<?xml version="1.0" encoding="UTF-8"?>
<svg width="24px" height="18px" viewBox="0 0 24 18" version="1.1" xmlns="http://www.w3.org/2000/svg" xmlns:xlink="http://www.w3.org/1999/xlink">
    <!-- Generator: Sketch 58 (84663) - https://sketch.com -->
    <title>Path</title>
    <desc>Created with Sketch.</desc>
    <g id="Final-Landing-page-and-services-" stroke="none" stroke-width="1" fill="none" fill-rule="evenodd">
        <g id="Login" transform="translate(-48.000000, -48.000000)" fill="#005263" fill-rule="nonzero">
            <path d="M70.8159581,55.8517169 L52.0222524,55.8517169 L57.8684595,50.0156292 C58.178873,49.7212151 58.3033896,49.2835084 58.1937187,48.8722628 C58.0840478,48.4610172 57.7574417,48.1409258 57.3405664,48.0361282 C56.9236912,47.9313306 56.4821256,48.0583125 56.1871199,48.3678271 L48.3428421,56.1970821 C47.8857193,56.6533671 47.8857193,57.3885993 48.3428421,57.8448842 L56.1871199,65.6741393 C56.6506399,66.1137684 57.3841287,66.107829 57.8403044,65.6607526 C58.2964801,65.2136762 58.308972,64.4885149 57.8684595,64.0263372 L52.0222524,58.1931763 L70.8159581,58.1931763 C71.4698864,58.1931763 72,57.6690228 72,57.0224466 C72,56.3758704 71.4698864,55.8517169 70.8159581,55.8517169 Z" id="Path"></path>
        </g>
    </g>
</svg>