<?xml version="1.0" encoding="UTF-8"?>
<svg width="38px" height="38px" viewBox="0 0 38 38" version="1.1" xmlns="http://www.w3.org/2000/svg" xmlns:xlink="http://www.w3.org/1999/xlink">
    <!-- Generator: Sketch 53.2 (72643) - https://sketchapp.com -->
    <title>Group 8</title>
    <desc>Created with Sketch.</desc>
    <defs>
        <linearGradient x1="-61.8223854%" y1="50%" x2="114.61221%" y2="50%" id="linearGradient-1">
            <stop stop-color="#F67F9C" offset="0%"></stop>
            <stop stop-color="#EF305E" offset="100%"></stop>
        </linearGradient>
    </defs>
    <g id="Page-1" stroke="none" stroke-width="1" fill="none" fill-rule="evenodd">
        <g id="01-Invest-Tab" transform="translate(-976.000000, -349.000000)">
            <g id="Group-8" transform="translate(976.000000, 349.000000)">
                <circle id="Oval" fill="#EF305E" opacity="0.0975864955" cx="19" cy="19" r="19"></circle>
                <circle id="Oval" fill="#EF305E" opacity="0.099609375" cx="19" cy="19" r="16"></circle>
                <g id="noun_insurance_1652211" transform="translate(10.000000, 9.000000)" fill="url(#linearGradient-1)">
                    <path d="M13.4124952,0 C14.3820911,0 15.1577678,0.821302534 15.1577678,1.8479307 C15.1577678,2.87455887 14.3820911,3.72152711 13.4124952,3.72152711 C12.4428993,3.72152711 11.6672226,2.87455887 11.6672226,1.8479307 C11.6672226,0.821302534 12.4428993,0 13.4124952,0 Z M5.26788971,9.29098492 C4.22557413,10.3689445 2.86813988,11.0875842 1.43798594,11.3185756 C1.17134707,14.0648059 2.77118029,16.6057106 5.26788971,17.4013474 C7.76459913,16.6057106 9.36443235,14.0648059 9.09779348,11.3185756 C7.66763954,11.0875842 6.31020529,10.3689445 5.26788971,9.29098492 Z M10.5037075,11.1645813 C10.8188262,14.6037857 8.78267482,17.8376644 5.67996796,18.8386269 L5.26788971,18.9669554 L4.85581146,18.8386269 C1.7531046,17.8376644 -0.283046772,14.6037857 0.0320718933,11.1645813 L0.15327138,10.0352903 L1.21982686,9.85563041 C2.38334193,9.65030478 3.44989741,9.08565929 4.29829382,8.21302534 L5.26788971,7.23772859 L6.2374856,8.21302534 C7.08588201,9.08565929 8.17667738,9.65030478 9.31595256,9.85563041 L10.382508,10.0352903 L10.5037075,11.1645813 Z M9.65531112,11.2672441 C9.94618989,14.2701315 8.17667738,17.093359 5.43756899,17.9659929 L5.26788971,18.0173244 L5.09821043,17.9659929 C2.35910203,17.093359 0.589589531,14.2701315 0.880468299,11.2672441 L0.928948093,10.8052615 L1.34102635,10.7282644 C2.6742207,10.5229387 3.91045546,9.85563041 4.88005135,8.85466795 L5.26788971,8.46968239 L5.65572807,8.85466795 C6.62532396,9.85563041 7.86155872,10.5229387 9.19475307,10.7282644 L9.60683132,10.8052615 L9.65531112,11.2672441 Z M15.5456062,19.0182868 C15.5456062,20.3272377 13.703374,20.3272377 13.703374,19.0182868 L13.703374,13.012512 C13.703374,12.5505294 12.7822579,12.5761951 12.7822579,13.012512 L12.7822579,19.0182868 C12.7822579,20.3272377 10.9400257,20.3272377 10.9400257,19.0182868 L10.9400257,6.1341033 L5.58300837,6.1341033 C5.19517002,6.1341033 4.85581146,5.77478345 4.85581146,5.36413218 L4.85581146,5.36413218 C4.85581146,4.92781521 5.19517002,4.59416105 5.58300837,4.59416105 L10.9400257,4.59416105 L10.9885055,4.59416105 L15.5456062,4.59416105 C16.4667223,4.59416105 17,5.13314084 17,5.85178056 L17,10.7282644 C17,11.7292268 15.5698461,11.7292268 15.5456062,10.7282644 L15.5456062,19.0182868 Z" id="Shape"></path>
                </g>
                <circle id="Oval" fill="#EF305E" style="mix-blend-mode: multiply;" opacity="0.502673921" cx="7" cy="16" r="1"></circle>
                <circle id="Oval-Copy-2" fill="#EF305E" style="mix-blend-mode: multiply;" opacity="0.502673921" cx="31" cy="22" r="1"></circle>
                <circle id="Oval-Copy-3" fill="#EF305E" style="mix-blend-mode: multiply;" opacity="0.502673921" cx="13.5" cy="9.5" r="1"></circle>
                <circle id="Oval-Copy-4" fill="#EF305E" style="mix-blend-mode: multiply;" opacity="0.502673921" cx="28.5" cy="11.5" r="1"></circle>
            </g>
        </g>
        <g id="1st"></g>
    </g>
</svg>