<?xml version="1.0" encoding="UTF-8"?>
<svg width="38px" height="38px" viewBox="0 0 38 38" version="1.1" xmlns="http://www.w3.org/2000/svg" xmlns:xlink="http://www.w3.org/1999/xlink">
    <!-- Generator: Sketch 53.2 (72643) - https://sketchapp.com -->
    <title>Group 4</title>
    <desc>Created with Sketch.</desc>
    <defs>
        <linearGradient x1="-94.6115551%" y1="62.1736847%" x2="142.729894%" y2="62.1736847%" id="linearGradient-1">
            <stop stop-color="#F67F9C" offset="0%"></stop>
            <stop stop-color="#EF305E" offset="100%"></stop>
        </linearGradient>
        <linearGradient x1="-94.6115551%" y1="62.1736847%" x2="142.729894%" y2="62.1736847%" id="linearGradient-2">
            <stop stop-color="#F67F9C" offset="0%"></stop>
            <stop stop-color="#EF305E" offset="100%"></stop>
        </linearGradient>
    </defs>
    <g id="Page-1" stroke="none" stroke-width="1" fill="none" fill-rule="evenodd">
        <g id="05-Mutual-funds---more-options-Copy" transform="translate(-556.000000, -459.000000)">
            <g id="Group-4" transform="translate(556.000000, 459.000000)">
                <g id="Group-34" fill="#EF305E">
                    <circle id="Oval" opacity="0.0975864955" cx="19" cy="19" r="19"></circle>
                    <circle id="Oval" opacity="0.099609375" cx="19" cy="19" r="16"></circle>
                    <circle id="Oval" style="mix-blend-mode: multiply;" opacity="0.502673921" cx="18" cy="8" r="1"></circle>
                    <circle id="Oval-Copy-2" style="mix-blend-mode: multiply;" opacity="0.502673921" cx="23" cy="31" r="1"></circle>
                    <circle id="Oval-Copy-3" style="mix-blend-mode: multiply;" opacity="0.502673921" cx="10.5" cy="9.5" r="1"></circle>
                    <circle id="Oval-Copy-4" style="mix-blend-mode: multiply;" opacity="0.502673921" cx="29.5" cy="22.5" r="1"></circle>
                    <circle id="Oval-Copy-5" style="mix-blend-mode: multiply;" opacity="0.502673921" cx="8.5" cy="21.5" r="1"></circle>
                </g>
                <g id="sip" transform="translate(11.000000, 11.000000)" fill-rule="nonzero">
                    <path d="M13.978022,1.61684211 L12.8175824,1.61684211 L12.8175824,1.02736842 C12.8175824,0.454736842 12.3428571,7.28306304e-13 11.7450549,7.28306304e-13 C11.1472527,7.28306304e-13 10.6725275,0.454736842 10.6725275,1.02736842 L10.6725275,1.61684211 L5.25714286,1.61684211 L5.25714286,1.02736842 C5.25714286,0.454736842 4.78241758,7.28306304e-13 4.18461538,7.28306304e-13 C3.58681319,7.28306304e-13 3.11208791,0.454736842 3.11208791,1.02736842 L3.11208791,1.61684211 L1.95164835,1.61684211 C0.879120879,1.61684211 -1.45661261e-12,2.45894737 -1.45661261e-12,3.48631579 L-1.45661261e-12,4.44631579 L15.9472527,4.44631579 L15.9472527,3.48631579 C15.9296703,2.44210526 15.0681319,1.61684211 13.978022,1.61684211 Z" id="Path" fill="url(#linearGradient-1)"></path>
                    <path d="M-1.44950718e-12,14.1305263 C-1.44950718e-12,15.1578947 0.879120879,16 1.95164835,16 L13.9956044,16 C15.0681319,16 15.9472527,15.1578947 15.9472527,14.1305263 L15.9472527,5.62526316 L-1.44950718e-12,5.62526316 L-1.44950718e-12,14.1305263 Z M10.4615385,8.80842105 C10.4615385,8.62315789 10.6197802,8.48842105 10.7956044,8.48842105 L12.3956044,8.48842105 C12.589011,8.48842105 12.7296703,8.64 12.7296703,8.80842105 L12.7296703,9.81894737 C12.7296703,10.0042105 12.5714286,10.1389474 12.3956044,10.1389474 L10.7956044,10.1389474 C10.6021978,10.1389474 10.4615385,9.98736842 10.4615385,9.81894737 L10.4615385,8.80842105 Z M10.4615385,11.8063158 C10.4615385,11.6210526 10.6197802,11.4863158 10.7956044,11.4863158 L12.3956044,11.4863158 C12.589011,11.4863158 12.7296703,11.6378947 12.7296703,11.8063158 L12.7296703,12.8168421 C12.7296703,13.0021053 12.5714286,13.1368421 12.3956044,13.1368421 L10.7956044,13.1368421 C10.6021978,13.1368421 10.4615385,12.9852632 10.4615385,12.8168421 L10.4615385,11.8063158 Z M6.82197802,8.80842105 C6.82197802,8.62315789 6.98021978,8.48842105 7.15604396,8.48842105 L8.75604396,8.48842105 C8.94945055,8.48842105 9.09010989,8.64 9.09010989,8.80842105 L9.09010989,9.81894737 C9.09010989,10.0042105 8.93186813,10.1389474 8.75604396,10.1389474 L7.15604396,10.1389474 C6.96263736,10.1389474 6.82197802,9.98736842 6.82197802,9.81894737 L6.82197802,8.80842105 Z M6.82197802,11.8063158 C6.82197802,11.6210526 6.98021978,11.4863158 7.15604396,11.4863158 L8.75604396,11.4863158 C8.94945055,11.4863158 9.09010989,11.6378947 9.09010989,11.8063158 L9.09010989,12.8168421 C9.09010989,13.0021053 8.93186813,13.1368421 8.75604396,13.1368421 L7.15604396,13.1368421 C6.96263736,13.1368421 6.82197802,12.9852632 6.82197802,12.8168421 L6.82197802,11.8063158 Z M3.2,8.80842105 C3.2,8.62315789 3.35824176,8.48842105 3.53406593,8.48842105 L5.13406593,8.48842105 C5.32747253,8.48842105 5.46813187,8.64 5.46813187,8.80842105 L5.46813187,9.81894737 C5.46813187,10.0042105 5.30989011,10.1389474 5.13406593,10.1389474 L3.53406593,10.1389474 C3.34065934,10.1389474 3.2,9.98736842 3.2,9.81894737 L3.2,8.80842105 Z M3.2,11.8063158 C3.2,11.6210526 3.35824176,11.4863158 3.53406593,11.4863158 L5.13406593,11.4863158 C5.32747253,11.4863158 5.46813187,11.6378947 5.46813187,11.8063158 L5.46813187,12.8168421 C5.46813187,13.0021053 5.30989011,13.1368421 5.13406593,13.1368421 L3.53406593,13.1368421 C3.34065934,13.1368421 3.2,12.9852632 3.2,12.8168421 L3.2,11.8063158 Z" id="Shape" fill="url(#linearGradient-2)"></path>
                </g>
            </g>
        </g>
        <g id="1st"></g>
    </g>
</svg>