<?xml version="1.0" encoding="UTF-8"?>
<svg width="38px" height="38px" viewBox="0 0 38 38" version="1.1" xmlns="http://www.w3.org/2000/svg" xmlns:xlink="http://www.w3.org/1999/xlink">
    <!-- Generator: Sketch 53.2 (72643) - https://sketchapp.com -->
    <title>Group 54</title>
    <desc>Created with Sketch.</desc>
    <defs>
        <linearGradient x1="-74.653144%" y1="50%" x2="114.61221%" y2="50%" id="linearGradient-1">
            <stop stop-color="#F67F9C" offset="0%"></stop>
            <stop stop-color="#EF305E" offset="100%"></stop>
        </linearGradient>
    </defs>
    <g id="Page-1" stroke="none" stroke-width="1" fill="none" fill-rule="evenodd">
        <g id="icons" transform="translate(-436.000000, -327.000000)">
            <g id="Group-54" transform="translate(436.000000, 327.000000)">
                <g id="Group-53" fill="#EF305E">
                    <circle id="Oval" opacity="0.0975864955" cx="19" cy="19" r="19"></circle>
                    <circle id="Oval" opacity="0.099609375" cx="19" cy="19" r="16"></circle>
                    <circle id="Oval" style="mix-blend-mode: multiply;" opacity="0.502673921" cx="15" cy="7" r="1"></circle>
                    <circle id="Oval-Copy-2" style="mix-blend-mode: multiply;" opacity="0.502673921" cx="30" cy="21" r="1"></circle>
                    <circle id="Oval-Copy-3" style="mix-blend-mode: multiply;" opacity="0.502673921" cx="6.5" cy="20.5" r="1"></circle>
                    <circle id="Oval-Copy-4" style="mix-blend-mode: multiply;" opacity="0.502673921" cx="27.5" cy="12.5" r="1"></circle>
                </g>
                <g id="noun_Audit_2430561" transform="translate(11.000000, 10.000000)" fill="url(#linearGradient-1)" fill-rule="nonzero">
                    <g id="Group">
                        <g id="Shape">
                            <path d="M16.6715909,17.8916667 L14.5852273,15.7541667 C15.2227273,14.9229167 15.6090909,13.89375 15.6090909,12.7458333 C15.6090909,10.8260417 14.5272727,9.18333333 12.9431818,8.371875 L12.9431818,0.851041667 C12.9431818,0.435416667 12.6147727,0.0791666667 12.1897727,0.0791666667 L0.907954545,0.0791666667 C0.482954545,0.0791666667 0.154545455,0.415625 0.154545455,0.851041667 L0.154545455,15.4375 C0.154545455,15.853125 0.482954545,16.209375 0.907954545,16.209375 L7.47613636,16.209375 C8.34545455,17.0802083 9.52386364,17.634375 10.8375,17.634375 C11.9386364,17.634375 12.9625,17.2385417 13.7738636,16.5854167 L15.8602273,18.7229167 C15.9761364,18.8416667 16.1113636,18.9010417 16.2659091,18.9010417 C16.4204545,18.9010417 16.5556818,18.8416667 16.6715909,18.7229167 C16.9034091,18.5052083 16.9034091,18.1291667 16.6715909,17.8916667 Z M3.43863636,2.86979167 L9.65909091,2.86979167 C9.91022727,2.86979167 10.1227273,3.0875 10.1227273,3.34479167 C10.1227273,3.60208333 9.91022727,3.81979167 9.65909091,3.81979167 L3.43863636,3.81979167 C3.1875,3.81979167 2.975,3.60208333 2.975,3.34479167 C2.975,3.0875 3.1875,2.86979167 3.43863636,2.86979167 Z M3.43863636,6.07604167 L9.65909091,6.07604167 C9.91022727,6.07604167 10.1227273,6.29375 10.1227273,6.55104167 C10.1227273,6.80833333 9.91022727,7.02604167 9.65909091,7.02604167 L3.43863636,7.02604167 C3.1875,7.02604167 2.975,6.80833333 2.975,6.55104167 C2.975,6.29375 3.1875,6.07604167 3.43863636,6.07604167 Z M3.43863636,13.4385417 C3.1875,13.4385417 2.975,13.2208333 2.975,12.9635417 C2.975,12.70625 3.1875,12.4885417 3.43863636,12.4885417 L6.10454545,12.4885417 C6.10454545,12.5677083 6.08522727,12.6666667 6.08522727,12.7458333 C6.08522727,12.9833333 6.10454545,13.2010417 6.14318182,13.41875 L3.43863636,13.41875 L3.43863636,13.4385417 Z M3.43863636,10.2322917 C3.1875,10.2322917 2.975,10.0145833 2.975,9.75729167 C2.975,9.5 3.1875,9.28229167 3.43863636,9.28229167 L7.49545455,9.28229167 C7.225,9.559375 6.97386364,9.87604167 6.78068182,10.2125 L3.43863636,10.2125 L3.43863636,10.2322917 Z M10.8375,16.446875 C8.84772727,16.446875 7.225,14.784375 7.225,12.7458333 C7.225,10.7072917 8.84772727,9.04479167 10.8375,9.04479167 C12.8272727,9.04479167 14.45,10.7072917 14.45,12.7458333 C14.45,14.784375 12.8272727,16.446875 10.8375,16.446875 Z"></path>
                        </g>
                    </g>
                </g>
            </g>
        </g>
        <g id="1st"></g>
    </g>
</svg>