<?xml version="1.0" encoding="UTF-8"?>
<svg width="38px" height="38px" viewBox="0 0 38 38" version="1.1" xmlns="http://www.w3.org/2000/svg" xmlns:xlink="http://www.w3.org/1999/xlink">
    <!-- Generator: Sketch 53.2 (72643) - https://sketchapp.com -->
    <title>Group 4</title>
    <desc>Created with Sketch.</desc>
    <defs>
        <linearGradient x1="-150.16871%" y1="50%" x2="143.902241%" y2="50%" id="linearGradient-1">
            <stop stop-color="#F67F9C" offset="0%"></stop>
            <stop stop-color="#EF305E" offset="100%"></stop>
        </linearGradient>
        <linearGradient x1="-150.16871%" y1="50%" x2="143.902241%" y2="50%" id="linearGradient-2">
            <stop stop-color="#F67F9C" offset="0%"></stop>
            <stop stop-color="#EF305E" offset="100%"></stop>
        </linearGradient>
        <linearGradient x1="-150.16871%" y1="50%" x2="143.902241%" y2="50%" id="linearGradient-3">
            <stop stop-color="#F67F9C" offset="0%"></stop>
            <stop stop-color="#EF305E" offset="100%"></stop>
        </linearGradient>
    </defs>
    <g id="Page-1" stroke="none" stroke-width="1" fill="none" fill-rule="evenodd">
        <g id="03-Tax-Tab---2-rows" transform="translate(-553.000000, -269.000000)">
            <g id="Group-4" transform="translate(553.000000, 269.000000)">
                <g id="Group-34" fill="#EF305E">
                    <circle id="Oval" opacity="0.0975864955" cx="19" cy="19" r="19"></circle>
                    <circle id="Oval" opacity="0.099609375" cx="19" cy="19" r="16"></circle>
                    <circle id="Oval" style="mix-blend-mode: multiply;" opacity="0.502673921" cx="28" cy="13" r="1"></circle>
                    <circle id="Oval-Copy-2" style="mix-blend-mode: multiply;" opacity="0.502673921" cx="15" cy="31" r="1"></circle>
                    <circle id="Oval-Copy-3" style="mix-blend-mode: multiply;" opacity="0.502673921" cx="18.5" cy="6.5" r="1"></circle>
                    <circle id="Oval-Copy-4" style="mix-blend-mode: multiply;" opacity="0.502673921" cx="29.5" cy="25.5" r="1"></circle>
                    <circle id="Oval-Copy-5" style="mix-blend-mode: multiply;" opacity="0.502673921" cx="7.5" cy="17.5" r="1"></circle>
                </g>
                <g id="calculator" transform="translate(12.000000, 10.000000)">
                    <path d="M14.5403226,10.0531646 C14.3709677,9.88481013 14.1774194,9.81265823 13.983871,9.81265823 L13.9596774,9.81265823 L12.75,9.81265823 L7.30645161,9.81265823 C7.06451613,9.81265823 6.87096774,9.90886076 6.72580645,10.0531646 L6.7016129,10.0772152 C6.58064516,10.1974684 6.50806452,10.3658228 6.48387097,10.5101266 C6.48387097,10.5582278 6.48387097,10.5822785 6.48387097,10.6303797 L6.48387097,10.8708861 L6.48387097,17.7974684 C6.48387097,17.8455696 6.48387097,17.8936709 6.50806452,17.9417722 C6.53225806,18.1101266 6.62903226,18.2544304 6.75,18.3987342 C6.82258065,18.4708861 6.89516129,18.5189873 6.96774194,18.5670886 C7.08870968,18.6392405 7.20967742,18.6632911 7.33064516,18.6632911 L13.9596774,18.6632911 C14.2016129,18.6632911 14.3951613,18.5670886 14.5645161,18.3987342 C14.733871,18.2303797 14.8306452,18.0379747 14.8306452,17.821519 L14.8306452,10.6303797 C14.7822581,10.4139241 14.7096774,10.221519 14.5403226,10.0531646 Z" id="Path" fill="url(#linearGradient-1)" fill-rule="nonzero"></path>
                    <path d="M13.6935484,10.9189873 C13.6935484,10.9189873 13.6935484,10.9189873 13.6935484,10.943038 L13.6935484,12.1455696 C13.6935484,12.1455696 13.6935484,12.1696203 13.6693548,12.1936709 C13.6451613,12.2177215 13.6451613,12.2177215 13.6209677,12.2177215 L7.59677419,12.2177215 L7.57258065,12.2177215 L7.5483871,12.1936709 C7.52419355,12.1696203 7.52419355,12.1696203 7.52419355,12.1455696 L7.52419355,10.943038 C7.52419355,10.9189873 7.52419355,10.9189873 7.52419355,10.9189873 L7.5483871,10.8949367 C7.57258065,10.8708861 7.57258065,10.8708861 7.59677419,10.8708861 L13.6451613,10.8708861 L13.6935484,10.9189873 Z" id="Path" fill="#FFFFFF" fill-rule="nonzero"></path>
                    <path d="M7.91457738,14.1658228 L7.90800327,14.1658228 C7.60249892,14.1658228 7.35483871,13.9181626 7.35483871,13.6126582 L7.35483871,13.6126582 C7.35483871,13.3071539 7.60249892,13.0594937 7.90800327,13.0594937 L7.91457738,13.0594937 C8.22008173,13.0594937 8.46774194,13.3071539 8.46774194,13.6126582 L8.46774194,13.6126582 C8.46774194,13.9181626 8.22008173,14.1658228 7.91457738,14.1658228 Z" id="Path" fill="#FFFFFF" fill-rule="nonzero"></path>
                    <path d="M9.75328706,14.1658228 L9.74671294,14.1658228 C9.4412086,14.1658228 9.19354839,13.9181626 9.19354839,13.6126582 L9.19354839,13.6126582 C9.19354839,13.3071539 9.4412086,13.0594937 9.74671294,13.0594937 L9.75328706,13.0594937 C10.0587914,13.0594937 10.3064516,13.3071539 10.3064516,13.6126582 L10.3064516,13.6126582 C10.3064516,13.9181626 10.0587914,14.1658228 9.75328706,14.1658228 Z" id="Path-Copy" fill="#FFFFFF" fill-rule="nonzero"></path>
                    <path d="M11.4468354,14.1658228 L11.4402613,14.1658228 C11.134757,14.1658228 10.8870968,13.9181626 10.8870968,13.6126582 L10.8870968,13.6126582 C10.8870968,13.3071539 11.134757,13.0594937 11.4402613,13.0594937 L11.4468354,13.0594937 C11.7523398,13.0594937 12,13.3071539 12,13.6126582 L12,13.6126582 C12,13.9181626 11.7523398,14.1658228 11.4468354,14.1658228 Z" id="Path-Copy-2" fill="#FFFFFF" fill-rule="nonzero"></path>
                    <path d="M13.3823193,14.1658228 L13.3757452,14.1658228 C13.0702409,14.1658228 12.8225806,13.9181626 12.8225806,13.6126582 L12.8225806,13.6126582 C12.8225806,13.3071539 13.0702409,13.0594937 13.3757452,13.0594937 L13.3823193,13.0594937 C13.6878237,13.0594937 13.9354839,13.3071539 13.9354839,13.6126582 L13.9354839,13.6126582 C13.9354839,13.9181626 13.6878237,14.1658228 13.3823193,14.1658228 Z" id="Path-Copy-3" fill="#FFFFFF" fill-rule="nonzero"></path>
                    <path d="M13.3427419,17.7493671 L13.3427419,17.7493671 C13.0421031,17.7493671 12.7983871,17.5056511 12.7983871,17.2050122 L12.7983871,15.407646 C12.7983871,15.1070071 13.0421031,14.8632911 13.3427419,14.8632911 L13.3427419,14.8632911 C13.6433808,14.8632911 13.8870968,15.1070071 13.8870968,15.407646 L13.8870968,17.2050122 C13.8870968,17.5056511 13.6433808,17.7493671 13.3427419,17.7493671 Z" id="Path" fill="#FFFFFF" fill-rule="nonzero"></path>
                    <path d="M3.29032258,3.5835443 C3.60483871,3.5835443 3.87096774,3.31898734 3.87096774,3.00632911 C3.87096774,2.76582278 3.72580645,2.57341772 3.53225806,2.47721519 L3.53225806,1.9721519 L3.53225806,1.8278481 L3.53225806,1.34683544 L3.53225806,0.312658228 C3.53225806,0.16835443 3.41129032,0.0721518987 3.29032258,0.0721518987 C3.14516129,0.0721518987 3.0483871,0.16835443 3.0483871,0.312658228 L3.0483871,1.34683544 L3.0483871,1.8278481 L3.0483871,1.9721519 L3.0483871,2.47721519 C2.85483871,2.57341772 2.70967742,2.76582278 2.70967742,3.00632911 C2.70967742,3.34303797 2.97580645,3.5835443 3.29032258,3.5835443 Z" id="Path" fill="url(#linearGradient-2)" fill-rule="nonzero"></path>
                    <path d="M9.38709677,3.5835443 C9.7016129,3.5835443 9.96774194,3.31898734 9.96774194,3.00632911 C9.96774194,2.76582278 9.82258065,2.57341772 9.62903226,2.47721519 L9.62903226,1.9721519 L9.62903226,1.8278481 L9.62903226,1.34683544 L9.62903226,0.312658228 C9.62903226,0.16835443 9.50806452,0.0721518987 9.38709677,0.0721518987 C9.24193548,0.0721518987 9.14516129,0.16835443 9.14516129,0.312658228 L9.14516129,1.34683544 L9.14516129,1.8278481 L9.14516129,1.9721519 L9.14516129,2.47721519 C8.9516129,2.57341772 8.80645161,2.76582278 8.80645161,3.00632911 C8.80645161,3.34303797 9.07258065,3.5835443 9.38709677,3.5835443 Z" id="Path" fill="url(#linearGradient-2)" fill-rule="nonzero"></path>
                    <path d="M6.33870968,3.5835443 C6.65322581,3.5835443 6.91935484,3.31898734 6.91935484,3.00632911 C6.91935484,2.76582278 6.77419355,2.57341772 6.58064516,2.47721519 L6.58064516,1.9721519 L6.58064516,1.8278481 L6.58064516,1.34683544 L6.58064516,0.312658228 C6.58064516,0.16835443 6.48387097,0.0721518987 6.33870968,0.0721518987 C6.21774194,0.0721518987 6.09677419,0.16835443 6.09677419,0.312658228 L6.09677419,1.34683544 L6.09677419,1.8278481 L6.09677419,1.9721519 L6.09677419,2.47721519 C5.90322581,2.57341772 5.75806452,2.76582278 5.75806452,3.00632911 C5.75806452,3.34303797 6.02419355,3.5835443 6.33870968,3.5835443 Z" id="Path" fill="url(#linearGradient-2)" fill-rule="nonzero"></path>
                    <path d="M6.26612903,18.5911392 C6.14516129,18.4227848 6.0483871,18.2303797 6.02419355,18.0139241 C6.02419355,17.9658228 6,17.8696203 6,17.7974684 L6,10.8708861 L6,10.6303797 C6,10.4379747 6.0483871,10.2455696 6.12096774,10.0772152 C6.19354839,9.93291139 6.26612903,9.81265823 6.38709677,9.7164557 C6.60483871,9.47594937 6.94354839,9.33164557 7.33064516,9.33164557 L12.75,9.33164557 L12.75,2.26075949 C12.75,1.77974684 12.3387097,1.37088608 11.8548387,1.37088608 L10.1129032,1.37088608 L10.1129032,2.26075949 C10.3306452,2.45316456 10.4516129,2.71772152 10.4516129,3.03037975 C10.4516129,3.60759494 9.96774194,4.08860759 9.38709677,4.08860759 C8.80645161,4.08860759 8.32258065,3.60759494 8.32258065,3.03037975 C8.32258065,2.71772152 8.44354839,2.45316456 8.66129032,2.26075949 L8.66129032,1.37088608 L7.06451613,1.37088608 L7.06451613,2.26075949 C7.28225806,2.45316456 7.40322581,2.71772152 7.40322581,3.03037975 C7.40322581,3.60759494 6.91935484,4.08860759 6.33870968,4.08860759 C5.75806452,4.08860759 5.27419355,3.60759494 5.27419355,3.03037975 C5.27419355,2.71772152 5.39516129,2.45316456 5.61290323,2.26075949 L5.61290323,1.37088608 L4.01612903,1.37088608 L4.01612903,2.26075949 C4.23387097,2.45316456 4.35483871,2.71772152 4.35483871,3.03037975 C4.35483871,3.55949367 3.94354839,3.99240506 3.43548387,4.06455696 C3.38709677,4.06455696 3.33870968,4.08860759 3.29032258,4.08860759 C2.70967742,4.08860759 2.22580645,3.60759494 2.22580645,3.03037975 C2.22580645,2.71772152 2.34677419,2.45316456 2.56451613,2.26075949 L2.56451613,1.37088608 L1.06451613,1.37088608 C0.580645161,1.37088608 0.169354839,1.77974684 0.169354839,2.26075949 L0.169354839,17.9177215 C0.169354839,18.3987342 0.580645161,18.8075949 1.06451613,18.8075949 L5.80645161,18.8075949 L6.24193548,18.8075949 L6.43548387,18.8075949 C6.41129032,18.7835443 6.38709677,18.7594937 6.36290323,18.735443 C6.33870968,18.6873418 6.29032258,18.6392405 6.26612903,18.5911392 Z" id="Path" fill="url(#linearGradient-3)" fill-rule="nonzero"></path>
                    <path d="M2.51612903,5.57974684 L10.1612903,5.57974684 C10.2822581,5.57974684 10.4032258,5.7 10.4032258,5.82025316 C10.4032258,5.94050633 10.2822581,6.06075949 10.1612903,6.06075949 L2.51612903,6.06075949 C2.39516129,6.06075949 2.27419355,5.94050633 2.27419355,5.82025316 C2.27419355,5.7 2.39516129,5.57974684 2.51612903,5.57974684 Z" id="Path" fill="#FFFFFF" fill-rule="nonzero"></path>
                    <path d="M2.27419355,7.93670886 C2.27419355,7.79240506 2.39516129,7.69620253 2.51612903,7.69620253 L10.1612903,7.69620253 C10.2822581,7.69620253 10.4032258,7.79240506 10.4032258,7.93670886 C10.4032258,8.08101266 10.2822581,8.17721519 10.1612903,8.17721519 L2.51612903,8.17721519 C2.39516129,8.17721519 2.27419355,8.08101266 2.27419355,7.93670886 Z" id="Path" fill="#FFFFFF" fill-rule="nonzero"></path>
                    <g id="payroll-management-rupee" stroke-width="1" fill-rule="evenodd" transform="translate(1.693548, 12.025316)" fill="#FFFFFF">
                        <g id="Group" fill-rule="nonzero">
                            <path d="M2.68298109,0.454556962 L0.210233593,0.454556962 C0.100111235,0.454556962 0.0100111235,0.357151899 0.0100111235,0.238101266 C0.0100111235,0.119050633 0.100111235,0.0216455696 0.210233593,0.0216455696 L2.68298109,0.0216455696 C2.79310345,0.0216455696 2.88320356,0.119050633 2.88320356,0.238101266 C2.88320356,0.357151899 2.79310345,0.454556962 2.68298109,0.454556962 Z" id="Path"></path>
                            <path d="M2.68298109,1.53683544 L0.210233593,1.53683544 C0.100111235,1.53683544 0.0100111235,1.43943038 0.0100111235,1.32037975 C0.0100111235,1.20132911 0.100111235,1.10392405 0.210233593,1.10392405 L2.68298109,1.10392405 C2.79310345,1.10392405 2.88320356,1.20132911 2.88320356,1.32037975 C2.88320356,1.43943038 2.79310345,1.53683544 2.68298109,1.53683544 Z" id="Path"></path>
                            <path d="M0.936040044,2.44053797 L0.210233593,2.44053797 C0.100111235,2.44053797 0.0100111235,2.34313291 0.0100111235,2.22408228 C0.0100111235,2.10503165 0.100111235,2.00762658 0.210233593,2.00762658 L0.936040044,2.00762658 C1.33147942,2.00762658 1.65684093,1.66129747 1.65684093,1.22838608 C1.65684093,0.795474684 1.33648498,0.44914557 0.936040044,0.44914557 L0.210233593,0.44914557 C0.100111235,0.44914557 0.0100111235,0.351740506 0.0100111235,0.232689873 C0.0100111235,0.113639241 0.100111235,0.0162341772 0.210233593,0.0162341772 L0.936040044,0.0162341772 C1.55172414,0.0162341772 2.05728587,0.557373418 2.05728587,1.22838608 C2.05728587,1.89939873 1.5567297,2.44053797 0.936040044,2.44053797 Z" id="Path"></path>
                            <path d="M2.00222469,4.30746835 C1.95216908,4.30746835 1.90211346,4.28582278 1.86206897,4.24794304 L0.0700778643,2.38101266 C-0.0100111235,2.29984177 -0.0100111235,2.15914557 0.0650723026,2.07256329 C0.140155729,1.98598101 0.270300334,1.98598101 0.350389321,2.0671519 L2.14238042,3.92867089 C2.22246941,4.00984177 2.22246941,4.15053797 2.14738598,4.23712025 C2.10233593,4.28041139 2.05228031,4.30746835 2.00222469,4.30746835 Z" id="Path"></path>
                        </g>
                    </g>
                    <path d="M7.91457738,16.0177215 L7.90800327,16.0177215 C7.60249892,16.0177215 7.35483871,15.7700613 7.35483871,15.464557 L7.35483871,15.464557 C7.35483871,15.1590526 7.60249892,14.9113924 7.90800327,14.9113924 L7.91457738,14.9113924 C8.22008173,14.9113924 8.46774194,15.1590526 8.46774194,15.464557 L8.46774194,15.464557 C8.46774194,15.7700613 8.22008173,16.0177215 7.91457738,16.0177215 Z" id="Path-Copy-4" fill="#FFFFFF" fill-rule="nonzero"></path>
                    <path d="M9.75328706,16.0177215 L9.74671294,16.0177215 C9.4412086,16.0177215 9.19354839,15.7700613 9.19354839,15.464557 L9.19354839,15.464557 C9.19354839,15.1590526 9.4412086,14.9113924 9.74671294,14.9113924 L9.75328706,14.9113924 C10.0587914,14.9113924 10.3064516,15.1590526 10.3064516,15.464557 L10.3064516,15.464557 C10.3064516,15.7700613 10.0587914,16.0177215 9.75328706,16.0177215 Z" id="Path-Copy-5" fill="#FFFFFF" fill-rule="nonzero"></path>
                    <path d="M11.4468354,16.0177215 L11.4402613,16.0177215 C11.134757,16.0177215 10.8870968,15.7700613 10.8870968,15.464557 L10.8870968,15.464557 C10.8870968,15.1590526 11.134757,14.9113924 11.4402613,14.9113924 L11.4468354,14.9113924 C11.7523398,14.9113924 12,15.1590526 12,15.464557 L12,15.464557 C12,15.7700613 11.7523398,16.0177215 11.4468354,16.0177215 Z" id="Path-Copy-6" fill="#FFFFFF" fill-rule="nonzero"></path>
                    <path d="M7.91457738,17.7012658 L7.90800327,17.7012658 C7.60249892,17.7012658 7.35483871,17.4536056 7.35483871,17.1481013 L7.35483871,17.1481013 C7.35483871,16.8425969 7.60249892,16.5949367 7.90800327,16.5949367 L7.91457738,16.5949367 C8.22008173,16.5949367 8.46774194,16.8425969 8.46774194,17.1481013 L8.46774194,17.1481013 C8.46774194,17.4536056 8.22008173,17.7012658 7.91457738,17.7012658 Z" id="Path-Copy-7" fill="#FFFFFF" fill-rule="nonzero"></path>
                    <path d="M9.75328706,17.7012658 L9.74671294,17.7012658 C9.4412086,17.7012658 9.19354839,17.4536056 9.19354839,17.1481013 L9.19354839,17.1481013 C9.19354839,16.8425969 9.4412086,16.5949367 9.74671294,16.5949367 L9.75328706,16.5949367 C10.0587914,16.5949367 10.3064516,16.8425969 10.3064516,17.1481013 L10.3064516,17.1481013 C10.3064516,17.4536056 10.0587914,17.7012658 9.75328706,17.7012658 Z" id="Path-Copy-8" fill="#FFFFFF" fill-rule="nonzero"></path>
                    <path d="M11.4468354,17.7012658 L11.4402613,17.7012658 C11.134757,17.7012658 10.8870968,17.4536056 10.8870968,17.1481013 L10.8870968,17.1481013 C10.8870968,16.8425969 11.134757,16.5949367 11.4402613,16.5949367 L11.4468354,16.5949367 C11.7523398,16.5949367 12,16.8425969 12,17.1481013 L12,17.1481013 C12,17.4536056 11.7523398,17.7012658 11.4468354,17.7012658 Z" id="Path-Copy-9" fill="#FFFFFF" fill-rule="nonzero"></path>
                </g>
            </g>
        </g>
        <g id="1st"></g>
    </g>
</svg>