<?xml version="1.0" encoding="UTF-8"?>
<svg width="38px" height="38px" viewBox="0 0 38 38" version="1.1" xmlns="http://www.w3.org/2000/svg" xmlns:xlink="http://www.w3.org/1999/xlink">
    <!-- Generator: Sketch 53.2 (72643) - https://sketchapp.com -->
    <title>Group 59</title>
    <desc>Created with Sketch.</desc>
    <defs>
        <linearGradient x1="-776.726784%" y1="50%" x2="1171.51261%" y2="50%" id="linearGradient-1">
            <stop stop-color="#F67F9C" offset="0%"></stop>
            <stop stop-color="#EF305E" offset="100%"></stop>
        </linearGradient>
        <linearGradient x1="-776.726784%" y1="50%" x2="1171.51261%" y2="50%" id="linearGradient-2">
            <stop stop-color="#F67F9C" offset="0%"></stop>
            <stop stop-color="#EF305E" offset="100%"></stop>
        </linearGradient>
        <linearGradient x1="-776.726784%" y1="50%" x2="1171.51261%" y2="50%" id="linearGradient-3">
            <stop stop-color="#F67F9C" offset="0%"></stop>
            <stop stop-color="#EF305E" offset="100%"></stop>
        </linearGradient>
        <linearGradient x1="-776.726784%" y1="50%" x2="1171.51261%" y2="50%" id="linearGradient-4">
            <stop stop-color="#F67F9C" offset="0%"></stop>
            <stop stop-color="#EF305E" offset="100%"></stop>
        </linearGradient>
        <linearGradient x1="-776.726784%" y1="50%" x2="1171.51261%" y2="50%" id="linearGradient-5">
            <stop stop-color="#F67F9C" offset="0%"></stop>
            <stop stop-color="#EF305E" offset="100%"></stop>
        </linearGradient>
        <linearGradient x1="-74.653144%" y1="50%" x2="114.61221%" y2="50%" id="linearGradient-6">
            <stop stop-color="#F67F9C" offset="0%"></stop>
            <stop stop-color="#EF305E" offset="100%"></stop>
        </linearGradient>
        <linearGradient x1="-56.6282665%" y1="50%" x2="106.271873%" y2="50%" id="linearGradient-7">
            <stop stop-color="#F67F9C" offset="0%"></stop>
            <stop stop-color="#EF305E" offset="100%"></stop>
        </linearGradient>
    </defs>
    <g id="Page-1" stroke="none" stroke-width="1" fill="none" fill-rule="evenodd">
        <g id="04-Tax-tab---click-to-load-more" transform="translate(-766.000000, -589.000000)">
            <g id="Group-59" transform="translate(766.000000, 589.000000)">
                <g id="Group-35" fill="#EF305E">
                    <circle id="Oval" opacity="0.0975864955" cx="19" cy="19" r="19"></circle>
                    <circle id="Oval" opacity="0.099609375" cx="19" cy="19" r="16"></circle>
                    <circle id="Oval" style="mix-blend-mode: multiply;" opacity="0.502673921" cx="27" cy="30" r="1"></circle>
                    <circle id="Oval-Copy-2" style="mix-blend-mode: multiply;" opacity="0.502673921" cx="12" cy="8" r="1"></circle>
                    <circle id="Oval-Copy-3" style="mix-blend-mode: multiply;" opacity="0.502673921" cx="29.5" cy="11.5" r="1"></circle>
                    <circle id="Oval-Copy-4" style="mix-blend-mode: multiply;" opacity="0.502673921" cx="6.5" cy="23.5" r="1"></circle>
                </g>
                <g id="nri" transform="translate(6.000000, 9.000000)">
                    <g id="noun_Travel_49736" transform="translate(2.012500, 0.000000)">
                        <g id="Group" fill-rule="nonzero">
                            <polygon id="Path" fill="url(#linearGradient-1)" points="10.76745 5.67478261 10.7936125 5.69304348 10.79735 5.7142029 10.8212125 5.72898551 10.8074125 5.74753623 10.79965 5.76608696 10.8033875 5.79478261 10.81805 5.81507246 10.8304125 5.79478261 10.855425 5.77507246 10.8905 5.78115942 10.8930875 5.8026087 10.88245 5.83826087 10.886475 5.86028986 10.8905 5.8884058 10.8850375 5.92463768 10.8902125 5.95652174 10.9103375 5.95304348 10.943975 5.9484058 10.97215 5.94318841 11.0103875 5.93710145 11.0477625 5.92637681 11.0500625 5.94231884 11.0477625 5.95942029 11.0414375 5.99478261 11.0500625 6.01623188 11.076225 6.00811594 11.1184875 6.01217391 11.119925 6.03536232 11.118775 6.06405797 11.1230875 6.09072464 11.1035375 6.11014493 11.0747875 6.14318841 11.05265 6.14608696 11.0126875 6.13623188 10.99055 6.13362319 10.9666875 6.13623188 10.9845125 6.17971014 10.991125 6.21391304 10.987675 6.23014493 10.9666875 6.2515942 10.9804875 6.2657971 11.003775 6.26173913 11.0241875 6.28724638 11.0149875 6.3057971 10.9954375 6.32057971 10.970425 6.34637681 10.935925 6.36985507 10.932475 6.38637681 10.935925 6.41478261 10.9511625 6.44144928 10.9747375 6.44811594 10.97675 6.42463768 11.0080875 6.4084058 11.0368375 6.44405797 11.0653 6.43971014 11.0906 6.43072464 11.1115875 6.42144928 11.137175 6.41217391 11.17685 6.40666667 11.1811625 6.43333333 11.167075 6.45275362 11.129125 6.45971014 11.1058375 6.46231884 11.0742125 6.47217391 11.0517875 6.4773913 11.0310875 6.48289855 11.006075 6.5057971 10.9937125 6.53043478 10.9804875 6.55536232 10.9730125 6.58405797 10.9641 6.60347826 10.9448375 6.62376812 10.9247125 6.63623188 10.92385 6.67188406 10.9339125 6.69275362 10.9816375 6.68028986 10.991125 6.66173913 11.0029125 6.62434783 11.0149875 6.60608696 11.0368375 6.59797101 11.0678875 6.60985507 11.0837 6.60695652 11.10555 6.60434783 11.13315 6.60028986 11.137175 6.56434783 11.1529875 6.55188406 11.199275 6.55362319 11.228025 6.55710145 11.25045 6.55362319 11.2691375 6.53304348 11.293575 6.50695652 11.3093875 6.49768116 11.3312375 6.49536232 11.3594125 6.49681159 11.376375 6.49536232 11.391325 6.49217391 11.4402 6.49594203 11.471825 6.49217391 11.4933875 6.4884058 11.5135125 6.46724638 11.540825 6.46318841 11.5658375 6.44811594 11.579925 6.4342029 11.5819375 6.41043478 11.5692875 6.39652174 11.541975 6.40057971 11.5169625 6.39333333 11.517825 6.36434783 11.52185 6.34637681 11.52185 6.31826087 11.540825 6.31565217 11.56325 6.31188406 11.5819375 6.30289855 11.5986125 6.28811594 11.606375 6.2657971 11.60925 6.24898551 11.6072375 6.23304348 11.6101125 6.17449275 11.5773375 6.15101449 11.550025 6.15043478 11.5184 6.15333333 11.4979875 6.17449275 11.47815 6.20666667 11.463775 6.19014493 11.4404875 6.17188406 11.4422125 6.13768116 11.435025 6.09826087 11.4077125 6.07536232 11.4404875 6.06637681 11.42525 6.03826087 11.40685 6.03014493 11.3875875 6.01536232 11.3594125 6.01391304 11.3505 5.99275362 11.3358375 5.97275362 11.2783375 5.92637681 11.23895 5.92550725 11.2260125 5.91072464 11.216525 5.8884058 11.2125 5.86028986 11.199275 5.84231884 11.173975 5.79246377 11.1391875 5.79246377 11.13315 5.77768116 11.1184875 5.75652174 11.0952 5.7542029 11.076225 5.75188406 11.0742125 5.72811594 11.0811125 5.70608696 11.0793875 5.66 11.0782375 5.64289855 11.0926125 5.62956522 11.1058375 5.6057971 11.126825 5.59188406 11.1213625 5.56434783 11.122225 5.55246377 11.1230875 5.52956522 11.12165 5.51884058 11.119925 5.51217391 11.103825 5.48173913 11.076225 5.47971014 11.0529375 5.4826087 11.0368375 5.48463768 10.9954375 5.50289855 10.9730125 5.50637681 10.9411 5.51130435 10.91695 5.50956522 10.912925 5.48173913 10.9137875 5.44753623 10.939375 5.43304348 10.935925 5.41101449 10.965825 5.38724638 10.9684125 5.3373913 10.9632375 5.32057971 10.9339125 5.31362319 10.8997 5.32492754 10.87095 5.35072464 10.855425 5.35246377 10.8401875 5.34202899 10.8189125 5.34347826 10.8229375 5.3657971 10.8200625 5.38318841 10.801375 5.41304348 10.795625 5.44115942 10.8005125 5.46956522 10.7916 5.49391304 10.76515 5.50637681 10.769175 5.53217391 10.761125 5.55014493 10.769175 5.58 10.7700375 5.58202899 10.7792375 5.60434783 10.778375 5.61275362 10.77435 5.64057971"></polygon>
                            <polygon id="Path" fill="url(#linearGradient-2)" points="10.828975 6.04057971 10.8353 6.01072464 10.8102875 5.98492754 10.795625 5.9715942 10.7824 5.95652174 10.7637125 5.94231884 10.7424375 5.94550725 10.734675 5.97362319 10.697875 5.99130435 10.7039125 5.97507246 10.7090875 5.96115942 10.7073625 5.93884058 10.6881 5.91971014 10.65705 5.94724638 10.630025 5.95043478 10.6076 5.9484058 10.5984 5.96811594 10.5894875 5.9857971 10.5869 6.0026087 10.594375 6.01942029 10.5984 6.04057971 10.5768375 6.04956522 10.5584375 6.07536232 10.55125 6.09913043 10.523075 6.10463768 10.5009375 6.10811594 10.480525 6.11652174 10.4842625 6.13362319 10.486275 6.14869565 10.49145 6.19246377 10.4486125 6.20550725 10.454075 6.23913043 10.4572375 6.26086957 10.4710375 6.27710145 10.4877125 6.27449275 10.509275 6.27188406 10.529975 6.25594203 10.5492375 6.23594203 10.566775 6.24985507 10.5526875 6.26318841 10.5503875 6.28173913 10.5526875 6.29768116 10.5452125 6.32173913 10.535725 6.33913043 10.51675 6.3942029 10.50065 6.43565217 10.4658625 6.46927536 10.486275 6.48289855 10.4957625 6.5057971 10.5124375 6.51333333 10.51675 6.53536232 10.5317 6.53246377 10.5475125 6.52028986 10.5728125 6.50869565 10.593225 6.53043478 10.6176625 6.53797101 10.64785 6.51565217 10.6653875 6.48289855 10.6837875 6.45971014 10.70075 6.45536232 10.7332375 6.45130435 10.735825 6.43333333 10.7364 6.40028986 10.7591125 6.39652174 10.7775125 6.37652174 10.7847 6.33768116 10.802525 6.31014493 10.7947625 6.29362319 10.7775125 6.26231884 10.77435 6.22927536 10.769175 6.20637681 10.7717625 6.18521739 10.768025 6.16144928 10.769175 6.13362319 10.7893 6.10811594 10.8146 6.0915942 10.8384625 6.07188406 10.8304125 6.05594203"></polygon>
                            <polygon id="Path" fill="url(#linearGradient-3)" points="4.4065125 11.4066667 4.3815 11.382029 4.3056 11.3773913 4.2190625 11.3855072 4.172775 11.3692754 4.066975 11.4084058 4.0293125 11.4518841 4.015225 11.4678261 3.9928 11.5023188 3.97555 11.537971 3.9919375 11.5617391 4.03305 11.5501449 4.046275 11.537971 4.0678375 11.4910145 4.0942875 11.4544928 4.1351125 11.435942 4.18025 11.4214493 4.216475 11.4507246 4.23315 11.4765217 4.253275 11.4626087 4.279725 11.457971 4.309625 11.4756522 4.3334875 11.4605797 4.400475 11.5113043 4.4168625 11.5463768 4.4804 11.5353623 4.5295625 11.5342029 4.551125 11.5637681 4.56205 11.6049275 4.6060375 11.6115942 4.6506 11.62 4.6761875 11.6484058 4.6629625 11.6997101 4.6560625 11.7263768 4.6784875 11.7310145 4.756975 11.7115942 4.832875 11.6794203 4.8590375 11.6695652 4.9004375 11.6686957 4.9619625 11.6646377 4.9286125 11.5942029 4.8590375 11.5997101 4.8369 11.5892754 4.7980875 11.5202899 4.7509375 11.5286957 4.6894125 11.5156522 4.675325 11.4976812 4.6299 11.48 4.4781 11.4498551"></polygon>
                            <polygon id="Path" fill="url(#linearGradient-4)" points="5.03355 11.8171014 4.9780625 11.8153623 4.9855375 11.8623188 5.0209 11.8794203 5.0746625 11.8715942 5.1258375 11.8649275 5.1267 11.8649275 5.15775 11.8594203 5.1865 11.8547826 5.2770625 11.8573913 5.2914375 11.877971 5.3107 11.866087 5.3245 11.8373913 5.3176 11.7956522 5.3391625 11.8046377 5.3788375 11.813913 5.4087375 11.8034783 5.4501375 11.775942 5.490675 11.7637681 5.53265 11.7573913 5.56945 11.746087 5.527475 11.6930435 5.430875 11.6849275 5.3650375 11.6527536 5.297475 11.6362319 5.210075 11.6544928 5.147975 11.6811594 5.1390625 11.7637681 5.174425 11.7849275 5.181325 11.822029 5.1522875 11.8310145 5.1338875 11.8353623 5.1189375 11.8353623 5.06805 11.8336232"></polygon>
                            <polygon id="Path" fill="url(#linearGradient-5)" points="4.75985 11.8701449 4.6135125 11.8823188 4.5939625 11.9284058 4.6462875 11.9423188 4.6750375 11.9547826 4.6974625 11.9675362 4.72305 11.9855072 4.7463375 11.9666667 4.78515 11.9431884 4.7980875 11.9194203 4.778825 11.8936232"></polygon>
                            <path d="M11.1035375,0.215942029 C5.77185,0.215942029 1.434625,4.58898551 1.434625,9.96434783 C1.434625,15.3385507 5.77185,19.7110145 11.1035375,19.7110145 C16.434075,19.7110145 20.7713,15.3385507 20.7713,9.96434783 C20.7713,4.58898551 16.434075,0.215942029 11.1035375,0.215942029 Z M16.723875,7.20492754 L16.7310625,7.22608696 L16.73595,7.24434783 L16.7494625,7.25710145 L16.7601,7.24057971 L16.7874125,7.23304348 L16.79345,7.23130435 L16.813575,7.22753623 L16.8268,7.23043478 L16.8268,7.23130435 L16.8259375,7.24521739 L16.813575,7.28782609 L16.8337,7.32492754 L16.8495125,7.34608696 L16.8613,7.36724638 L16.8650375,7.3715942 L16.8776875,7.38347826 L16.8857375,7.40028986 L16.8886125,7.41565217 L16.8788375,7.42231884 L16.874525,7.42434783 L16.865325,7.44927536 L16.881425,7.49333333 L16.88315,7.52521739 L16.8886125,7.56144928 L16.8857375,7.57855072 L16.8857375,7.57971014 L16.8912,7.6173913 L16.899825,7.63304348 L16.900975,7.65217391 L16.894075,7.66695652 L16.8707875,7.6715942 L16.8604375,7.65768116 L16.8328375,7.65217391 L16.813575,7.65594203 L16.7891375,7.66811594 L16.7678625,7.67594203 L16.751475,7.69797101 L16.7322125,7.71449275 L16.6862125,7.71536232 L16.638775,7.69565217 L16.6267,7.67449275 L16.608875,7.6684058 L16.5827125,7.66463768 L16.5637375,7.65217391 L16.5390125,7.64666667 L16.51745,7.65217391 L16.496175,7.65391304 L16.4705875,7.64405797 L16.4516125,7.63942029 L16.445575,7.62927536 L16.43925,7.6173913 L16.4372375,7.60086957 L16.4358,7.58985507 L16.4119375,7.55710145 L16.399575,7.53594203 L16.3739875,7.51652174 L16.3688125,7.48521739 L16.37945,7.46550725 L16.396125,7.43043478 L16.399575,7.41681159 L16.407625,7.37449275 L16.4128,7.35043478 L16.414525,7.3257971 L16.4286125,7.30550725 L16.4251625,7.27884058 L16.419125,7.24782609 L16.42085,7.2257971 L16.4481625,7.22115942 L16.4657,7.21362319 L16.4585125,7.20115942 L16.4395375,7.18927536 L16.421425,7.19304348 L16.40015,7.17275362 L16.3820375,7.14898551 L16.3757125,7.13913043 L16.354725,7.10869565 L16.347825,7.09942029 L16.3279875,7.0884058 L16.297225,7.06086957 L16.2779625,7.05101449 L16.2612875,7.03507246 L16.255825,6.99942029 L16.2313875,6.9826087 L16.1989,6.94811594 L16.173025,6.8515942 L16.1531875,6.83362319 L16.1474375,6.8 L16.1572125,6.7742029 L16.137375,6.75913043 L16.1135125,6.74927536 L16.092525,6.76 L16.0790125,6.7715942 L16.0721125,6.75101449 L16.0721125,6.71826087 L16.0744125,6.67275362 L16.0847625,6.58811594 L16.089075,6.55478261 L16.094825,6.50405797 L16.1184,6.48318841 L16.1330625,6.4573913 L16.1480125,6.46811594 L16.1782,6.48318841 L16.212125,6.44086957 L16.1943,6.43478261 L16.1865375,6.41681159 L16.2210375,6.40782609 L16.236275,6.41362319 L16.25985,6.42376812 L16.2748,6.40782609 L16.2773875,6.38231884 L16.2888875,6.36956522 L16.3492625,6.37855072 L16.36335,6.37507246 L16.384625,6.3342029 L16.385775,6.31971014 L16.3958375,6.29246377 L16.4067625,6.2826087 L16.4326375,6.27188406 L16.4602375,6.26869565 L16.4723125,6.29449275 L16.4979,6.30927536 L16.5085375,6.31565217 L16.5344125,6.31565217 L16.544475,6.31565217 L16.5761,6.31072464 L16.5936375,6.33391304 L16.6149125,6.34811594 L16.6660875,6.36144928 L16.7074875,6.36753623 L16.7141,6.40405797 L16.72675,6.4342029 L16.74515,6.45971014 L16.764125,6.47391304 L16.7822375,6.49449275 L16.7851125,6.51623188 L16.7799375,6.54463768 L16.7598125,6.56666667 L16.7304875,6.58028986 L16.7005875,6.57130435 L16.6821875,6.56 L16.658325,6.55913043 L16.6310125,6.55014493 L16.6152,6.54637681 L16.60715,6.54463768 L16.5807,6.54463768 L16.574375,6.54463768 L16.562875,6.56811594 L16.553675,6.59014493 L16.5119875,6.59536232 C16.5119875,6.59536232 16.511125,6.59188406 16.4999125,6.60144928 C16.48755,6.61246377 16.48755,6.61246377 16.48755,6.61246377 L16.491,6.66289855 L16.51745,6.68318841 L16.514,6.70086957 L16.4688625,6.70289855 L16.41625,6.71536232 L16.4309125,6.75043478 L16.4654125,6.76376812 L16.4999125,6.78 L16.512275,6.81101449 L16.524925,6.82492754 L16.5545375,6.84695652 L16.5804125,6.85971014 L16.599675,6.86811594 L16.6131875,6.86811594 L16.6405,6.87014493 L16.6580375,6.86811594 L16.6862125,6.98811594 L16.70375,6.98811594 L16.71985,6.98347826 L16.7253125,6.98173913 L16.73825,6.9657971 L16.7463,6.95681159 L16.7523375,6.94898551 L16.7678625,6.96144928 L16.7874125,6.96231884 L16.8224875,6.98956522 C16.8224875,6.98956522 16.820475,7.00405797 16.8328375,7.01565217 C16.84175,7.02782609 16.85785,7.04463768 16.85785,7.04463768 L16.88315,7.05449275 L16.9070125,7.06347826 L16.89695,7.0884058 L16.8840125,7.09449275 L16.88315,7.12173913 L16.8753875,7.13942029 L16.8705,7.15101449 L16.8523875,7.16 L16.8351375,7.15652174 L16.8069625,7.15246377 L16.7845375,7.13594203 L16.772175,7.13043478 L16.7624,7.12753623 L16.7511875,7.12463768 L16.74745,7.13043478 L16.7316375,7.15971014 L16.719275,7.18289855 L16.723875,7.20492754 Z M8.0707,1.15971014 L8.072425,1.15710145 C8.113825,1.1426087 8.1555125,1.1284058 8.1969125,1.11449275 L8.1779375,1.13043478 L8.1750625,1.13246377 L8.1445875,1.15710145 L8.12705,1.16 L8.0669625,1.16753623 L8.0707,1.15971014 Z M11.1035375,19.2849275 C6.7726375,19.2849275 3.1392125,16.2834783 2.1341125,12.2321739 L2.1519375,12.2426087 L2.1933375,12.2918841 L2.277575,12.3342029 L2.3497375,12.3692754 L2.3963125,12.3828986 L2.4549625,12.4084058 L2.5383375,12.4507246 L2.5944,12.4536232 L2.650175,12.4666667 L2.712275,12.5031884 L2.8221,12.5092754 L2.89455,12.5295652 L2.9644125,12.4872464 L3.0061,12.4562319 L3.1786,12.4481159 L3.2116625,12.4472464 L3.224025,12.4455072 L3.2637,12.4837681 L3.31085,12.5014493 L3.343625,12.5733333 L3.4224,12.5944928 L3.496,12.6281159 L3.52935,12.6318841 L3.6383125,12.6944928 L3.6984,12.664058 L3.7536,12.6542029 L3.8556625,12.6733333 L3.865725,12.7394203 L3.920925,12.74 L3.9741125,12.8002899 L4.0066,12.7826087 L4.02155,12.7956522 L4.04225,12.8113043 L4.0448375,12.8130435 L4.104925,12.8571014 L4.1101,12.8895652 L4.079625,12.9057971 L4.0666875,12.9634783 L4.1109625,13.0472464 L4.154375,13.0397101 L4.2041125,13.064058 L4.2633375,13.0997101 L4.298125,13.1733333 L4.349875,13.1910145 L4.3677,13.1965217 L4.3904125,13.2072464 L4.4022,13.2124638 L4.4484875,13.1982609 L4.531,13.2605797 L4.56435,13.2672464 L4.6595125,13.2292754 L4.6537625,13.1965217 L4.615525,13.1585507 L4.6529,13.1182609 L4.7083875,13.1107246 L4.766175,13.1356522 L4.799525,13.1417391 L4.81735,13.1828986 L4.825975,13.2376812 L4.8446625,13.2915942 L4.8998625,13.2942029 L4.9205625,13.3573913 L4.929475,13.4118841 L4.938675,13.4771014 L4.950175,13.5431884 L4.9343625,13.5875362 L4.93465,13.6672464 L4.9843875,13.7037681 L4.9286125,13.7684058 L4.8918125,13.8188406 L4.8653625,13.8675362 L4.877725,13.9342029 L4.827125,13.9968116 L4.7932,14.0457971 L4.75525,14.084058 L4.7980875,14.1449275 L4.7900375,14.1715942 L4.7750875,14.2147826 L4.7750875,14.2185507 L4.774225,14.2834783 L4.759275,14.3286957 L4.7584125,14.3965217 L4.767325,14.462029 L4.7854375,14.5153623 L4.8233875,14.5208696 L4.838625,14.5626087 L4.814475,14.6113043 L4.7739375,14.6533333 L4.752375,14.7214493 L4.773075,14.7849275 L4.7909,14.8382609 L4.84265,14.9544928 L4.9036,14.9988406 L4.9659875,15.0356522 L5.016875,15.0826087 L5.0453375,15.1228986 L5.106575,15.1686957 L5.1804625,15.282029 L5.18765,15.2973913 L5.2017375,15.3269565 L5.2132375,15.3536232 L5.260675,15.4486957 L5.3843,15.6742029 L5.475725,15.8492754 L5.5110875,15.9333333 L5.580375,15.9547826 L5.643625,16.0002899 L5.676975,16.026087 L5.6939375,16.0376812 L5.7086,16.0423188 L5.7968625,16.0672464 L5.85925,16.1121739 L5.93055,16.1362319 L5.9710875,16.1669565 L6.0165125,16.2 L6.028875,16.237971 L6.0628,16.3492754 L6.10535,16.4197101 L6.118,16.5081159 L6.1228875,16.6084058 L6.1320875,16.7405797 L6.141,16.7947826 L6.118,16.8762319 L6.12375,16.9217391 L6.1683125,17.0481159 L6.1763625,17.1136232 L6.1631375,17.1643478 L6.1614125,17.1721739 L6.1499125,17.1956522 L6.13755,17.2191304 L6.1441625,17.2623188 L6.164575,17.3275362 L6.1556625,17.4855072 L6.132375,17.5544928 L6.135825,17.5721739 L6.141,17.6052174 L6.141,17.6095652 L6.192175,17.6573913 L6.2028125,17.7118841 L6.180675,17.8011594 L6.1746375,17.8269565 L6.1780875,17.8376812 C6.225525,17.8666667 6.271525,17.8953623 6.3178125,17.9252174 C6.7312375,18.173913 7.1624875,18.3904348 7.6107,18.5736232 L7.612425,18.5689855 L7.6265125,18.5391304 L7.6316875,18.5301449 L7.6730875,18.3672464 L7.651525,18.3031884 L7.6038,18.2765217 L7.59575,18.2150725 L7.59575,18.2118841 L7.5644125,18.1602899 L7.56355,18.1594203 L7.48995,18.1052174 L7.4333125,18.0255072 L7.4413625,17.9336232 L7.4775875,17.9611594 L7.5141,18.0446377 L7.5716,18.0585507 L7.6104125,18.0973913 L7.6656125,18.0994203 L7.7294375,18.0791304 L7.858525,18.06 L7.8944625,17.9947826 L7.9099875,17.9666667 L7.9692125,17.8565217 L7.9864625,17.8255072 L7.997675,17.8046377 L8.0083125,17.7356522 L8.0071625,17.6466667 L8.0709875,17.5582609 L8.0905375,17.4715942 L8.096575,17.4405797 L8.15925,17.537971 L8.1698875,17.5547826 L8.1716125,17.5486957 L8.1796625,17.5127536 L8.1888625,17.4742029 L8.2003625,17.3944928 L8.2199125,17.3017391 L8.2670625,17.2484058 L8.3015625,17.1875362 L8.294375,17.1443478 L8.2854625,17.08 L8.2739625,17.0028986 L8.244925,16.8852174 L8.26045,16.8385507 L8.295525,16.786087 L8.324275,16.7498551 L8.3786125,16.6736232 L8.45365,16.5991304 L8.4775125,16.5762319 L8.48585,16.5689855 L8.566925,16.5333333 L8.593375,16.4736232 L8.653175,16.4434783 L8.7653,16.3698551 L8.841775,16.3672464 L8.85615,16.3113043 L8.8541375,16.222029 L8.8874875,16.084058 L8.93895,15.9857971 L8.97575,15.8573913 L8.96885,15.8031884 L8.9792,15.7443478 L8.98265,15.6101449 L8.9582125,15.5246377 L8.9679875,15.4098551 L8.9697125,15.3895652 L8.9668375,15.3788406 L8.9432625,15.2823188 L8.9723,15.1095652 L9.014275,15.1043478 L9.0260625,15.1008696 L9.0352625,15.0686957 L9.0484875,15.0191304 L9.059125,14.9521739 L9.0712,14.884058 L9.1249625,14.7962319 L9.2106375,14.7057971 L9.2192625,14.6168116 L9.220125,14.6150725 L9.2255875,14.5817391 L9.2445625,14.4884058 L9.2158125,14.3026087 L9.15285,14.2449275 L9.1266875,14.1484058 L9.054525,14.1255072 L8.97115,14.1510145 L8.883175,14.0747826 L8.76645,13.9692754 L8.6574875,13.9544928 L8.6526,13.9536232 L8.624425,13.9576812 L8.5666375,13.9655072 L8.451925,13.94 L8.3504375,13.9231884 L8.3280125,13.993913 L8.2662,13.9452174 L8.1721875,13.8486957 L8.0905375,13.8162319 L7.996525,13.7881159 L7.876925,13.7927536 L7.8202875,13.8588406 L7.805625,13.7608696 L7.7556,13.724058 L7.683725,13.7568116 L7.6230625,13.8672464 L7.6316875,13.9223188 L7.5854,13.9165217 L7.534225,13.9475362 L7.5235875,13.8721739 L7.538825,13.7678261 L7.635425,13.7315942 L7.6383,13.675942 L7.63025,13.6191304 L7.5782125,13.5721739 L7.60035,13.5023188 L7.5509,13.4765217 L7.5270375,13.3794203 L7.45315,13.2597101 L7.3758125,13.1913043 L7.2889875,13.1266667 L7.1590375,13.0797101 L7.1107375,13.0530435 L6.9,13.0962319 L6.8675125,13.1026087 L6.8655,13.1026087 L6.800525,13.0457971 L6.7433125,13.0310145 L6.6817875,13.0631884 L6.67115,12.9976812 L6.6702875,12.9307246 L6.6478625,12.9028986 L6.5299875,12.8524638 C6.5299875,12.8524638 6.4558125,12.8849275 6.44,12.8544928 C6.4236125,12.8243478 6.4339625,12.8113043 6.4339625,12.8113043 L6.438275,12.7666667 L6.388825,12.74 L6.3310375,12.7142029 L6.2706625,12.68 L6.2706625,12.6513043 L6.270375,12.6205797 L6.270375,12.6026087 L6.2284,12.6202899 L6.1617,12.6481159 L6.1033375,12.6736232 L6.0780375,12.7315942 L5.9892,12.7356522 L5.9423375,12.7095652 L5.865,12.7211594 L5.8006,12.7301449 L5.7192375,12.7771014 L5.6899125,12.7263768 L5.629825,12.6904348 L5.5570875,12.6568116 L5.5007375,12.6431884 L5.5082125,12.6965217 L5.4587625,12.7376812 L5.40845,12.78 L5.4156375,12.824058 L5.4190875,12.844058 L5.42455,12.8521739 L5.4616375,12.9046377 L5.4547375,12.9469565 L5.451,12.9736232 L5.4305875,12.9771014 L5.40615,12.9791304 L5.3644625,12.9205797 L5.35325,12.844058 L5.35325,12.7771014 L5.3334125,12.7124638 L5.3426125,12.6947826 L5.3644625,12.6527536 L5.3845875,12.6147826 L5.354975,12.6188406 L5.3224875,12.6246377 L5.3196125,12.6255072 L5.2925875,12.6637681 L5.2546375,12.7017391 L5.2034625,12.7437681 L5.16235,12.762029 L5.060575,12.8214493 L5.0347,12.8701449 L5.0234875,12.9376812 L5.044475,13.0023188 L4.968,13.1588406 L4.817925,13.0388406 L4.7423125,12.9713043 L4.6577875,13.0069565 L4.601725,13.0715942 L4.5287,13.1043478 L4.4335375,13.1115942 L4.3518875,13.0310145 L4.3056,12.9657971 L4.253275,12.8904348 L4.216475,12.7965217 L4.2156125,12.7947826 L4.216475,12.6826087 L4.2173375,12.4889855 L4.2173375,12.4617391 L4.2173375,12.4397101 L4.1883,12.3855072 L4.119875,12.3553623 L4.093425,12.3452174 L4.083075,12.3452174 L3.93875,12.3481159 L3.8642875,12.3692754 L3.8044875,12.3881159 L3.75245,12.4057971 L3.7375,12.4104348 L3.657575,12.4014493 L3.6601625,12.3863768 L3.665625,12.36 L3.695525,12.1947826 L3.688625,12.0843478 L3.7435375,12.0089855 L3.7113375,11.6544928 L3.625375,11.6698551 L3.5213,11.7095652 L3.462075,11.7611594 L3.4313125,11.8449275 L3.4416625,11.9211594 L3.40285,12.0266667 L3.342475,12.0698551 L3.278075,12.0910145 L3.22805,12.1214493 L3.19355,12.1823188 L3.144675,12.2034783 L3.1119,12.2165217 L3.058425,12.2246377 L3.0452,12.2275362 L3.04175,12.2194203 L3.0276625,12.1878261 L3.027375,12.186087 L2.9345125,12.1449275 L2.713425,11.8657971 L2.6953125,11.757971 L2.681225,11.6576812 L2.6372375,11.4869565 L2.652475,11.3944928 L2.6895625,11.3457971 L2.6780625,11.2681159 L2.6312,11.1646377 L2.6286125,11.073913 L2.6694375,10.9802899 L2.772075,10.9202899 L2.781275,10.8513043 L2.82555,10.7782609 L2.8428,10.7715942 L2.875,10.7571014 L2.91065,10.7423188 L2.994025,10.7075362 L3.0679125,10.6953623 L3.1694,10.7028986 L3.2024625,10.7634783 L3.2501875,10.7226087 L3.340175,10.7310145 L3.3789875,10.6921739 L3.3600125,10.6397101 L3.3600125,10.5623188 L3.4468375,10.5486957 L3.542575,10.533913 L3.6043875,10.5023188 L3.6774125,10.5463768 L3.7406625,10.5576812 L3.7458375,10.5585507 L3.7734375,10.5547826 L3.8111,10.5486957 L3.8516375,10.5304348 L3.903675,10.5678261 L3.956575,10.6263768 L3.986475,10.6765217 L4.0396625,10.8150725 L4.0500125,10.8805797 L4.1017625,10.8973913 L4.1098125,10.9521739 L4.1678875,11.0066667 L4.2161875,11.1002899 L4.2598875,11.0936232 L4.2757,11.0571014 L4.290075,10.9994203 L4.2754125,10.9005797 L4.2363125,10.7956522 L4.1868625,10.6915942 L4.1745,10.6055072 L4.1216,10.5455072 L4.109525,10.4701449 L4.1155625,10.3681159 L4.1218875,10.255942 L4.1834125,10.1568116 L4.219925,10.1072464 L4.35275,9.96289855 L4.4082375,9.8884058 L4.464875,9.82434783 L4.4712,9.78811594 L4.5379,9.72173913 L4.50455,9.63942029 L4.4732125,9.58782609 L4.40105,9.54289855 L4.3909875,9.47681159 L4.3587875,9.41594203 L4.3608,9.35913043 L4.3513125,9.29449275 L4.3616625,9.26695652 L4.3714375,9.24028986 L4.391275,9.18608696 L4.4689,9.18608696 L4.432675,9.23652174 L4.4289375,9.24753623 L4.4197375,9.2742029 L4.4168625,9.28347826 L4.4283625,9.35971014 L4.464875,9.38724638 L4.524675,9.41217391 L4.547675,9.34144928 L4.563775,9.29188406 L4.5698125,9.2715942 L4.5640625,9.26434783 L4.5264,9.21217391 L4.5563,9.18347826 L4.6092,9.1657971 L4.6365125,9.11623188 L4.6399625,9.06927536 L4.6422625,9.03652174 L4.6428375,9.0257971 L4.7216125,8.95826087 L4.65405,8.95768116 L4.7106875,8.88144928 L4.7520875,8.86318841 L4.7687625,8.85594203 L4.8009625,8.84086957 L4.8553,8.8142029 L4.9090625,8.80637681 L4.91395,8.76086957 L4.8958375,8.72057971 L4.8958375,8.64173913 L4.8837625,8.56376812 L4.9404,8.50086957 L5.0039375,8.47884058 L5.0608625,8.42666667 L5.1200875,8.44956522 L5.1603375,8.42086957 L5.175575,8.3742029 L5.1632125,8.29797101 L5.249175,8.27304348 L5.3006375,8.25478261 L5.331975,8.22898551 L5.3466375,8.19246377 L5.387175,8.15246377 L5.4173625,8.21449275 L5.4725625,8.21710145 L5.499875,8.24666667 L5.37395,8.28898551 L5.3242125,8.33101449 L5.2741875,8.38289855 L5.29575,8.44695652 L5.3339875,8.47362319 L5.395225,8.50985507 L5.4489875,8.49942029 L5.4972875,8.44898551 L5.5108,8.39101449 L5.555075,8.31681159 L5.618325,8.29652174 L5.6582875,8.26695652 L5.7209625,8.16869565 L5.63155,8.15942029 L5.543,8.17333333 L5.4777375,8.11652174 L5.44065,8.07768116 L5.395225,7.99536232 L5.3506625,7.92376812 L5.2362375,7.89797101 L5.238825,7.84202899 L5.2831,7.8457971 L5.348075,7.75826087 L5.354975,7.72347826 L5.3383,7.68115942 L5.2954625,7.6315942 L5.2195625,7.64376812 L5.097375,7.70753623 L5.0292375,7.77246377 L4.9314875,7.85681159 L4.8688125,7.95478261 L4.869675,7.89855072 L4.9084875,7.7826087 L4.96915,7.73768116 L5.01745,7.68521739 L5.050225,7.6257971 L5.135325,7.52376812 L5.3383,7.48057971 L5.4349,7.45478261 L5.4967125,7.42376812 L5.5915875,7.46405797 L5.7063,7.41246377 L5.7640875,7.35913043 L5.859825,7.26637681 L5.850625,7.21217391 L5.924225,7.17826087 L6.0176625,7.14173913 L6.0832125,7.05246377 L6.0745875,6.99913043 L6.0613625,6.91246377 L5.9894875,6.87884058 L5.933425,6.86463768 L5.8394125,6.91304348 L5.6784125,7.01536232 L5.7278625,6.9742029 L5.7784625,6.87681159 L5.84315,6.85652174 L5.8808125,6.8173913 L5.8612625,6.76492754 L5.8238875,6.72492754 L5.7778875,6.72144928 L5.6260875,6.74434783 L5.580375,6.66231884 L5.5082125,6.61913043 L5.45675,6.56927536 L5.4029875,6.52173913 L5.4731375,6.4773913 L5.4662375,6.43362319 L5.39925,6.4226087 L5.3926375,6.36608696 L5.3374375,6.32 L5.3006375,6.28202899 L5.2379625,6.30231884 L5.2624,6.24202899 L5.251475,6.17710145 L5.212375,6.13623188 L5.15315,6.11449275 L5.1085875,6.04202899 L5.09795,5.96898551 L5.096225,5.95565217 L5.066325,5.95942029 L5.0637375,5.95942029 L5.053675,6.01536232 L5.051375,6.0284058 L5.050225,6.03130435 L5.0091125,6.11449275 L4.957075,6.14463768 L4.9312,6.18 L4.882325,6.23333333 L4.821375,6.25507246 L4.77825,6.27101449 L4.7371375,6.21101449 L4.700625,6.19275362 L4.61265,6.19797101 L4.586775,6.09942029 L4.5853375,6.04231884 L4.584475,6.01246377 L4.584475,6.01101449 L4.5862,5.94347826 L4.5893625,5.89942029 L4.524675,5.90927536 L4.5082875,5.87913043 L4.4703375,5.83942029 L4.4093875,5.88173913 L4.3674125,5.88869565 L4.3219875,5.81623188 L4.2366,5.77942029 L4.2282625,5.77507246 L4.2067,5.76463768 L4.131375,5.72434783 L4.0586375,5.79101449 L3.9447875,5.7773913 L3.834675,5.77826087 L3.731175,5.80956522 L3.7452625,5.90376812 L3.7596375,5.99449275 L3.7699875,6.07188406 L3.8194375,6.08144928 L3.8499125,6.18695652 L3.827775,6.23913043 L3.7421,6.29826087 L3.721975,6.38086957 L3.7303125,6.38782609 L3.75245,6.40724638 L3.8315125,6.47507246 L3.9097125,6.58898551 L3.95945,6.63130435 L3.98705,6.65507246 L4.002575,6.66898551 L3.99165,6.81391304 L3.9606,6.91362319 L3.923225,6.9426087 L3.8844125,6.9742029 L3.8631375,6.99217391 L3.795,7.06463768 L3.82375,7.15536232 L3.8430125,7.18666667 L3.8665875,7.22782609 L3.8677375,7.23333333 L3.880675,7.32173913 L3.8740625,7.48057971 L3.8372625,7.54869565 L3.81685,7.54666667 L3.7843625,7.54202899 L3.725425,7.53507246 L3.652975,7.46782609 L3.6250875,7.39246377 L3.562125,7.33072464 L3.5486125,7.25275362 L3.5348125,7.16028986 L3.519,7.0515942 L3.427575,7.01188406 L3.2271875,7.04231884 L3.1208125,7.00637681 L3.0886125,6.99710145 L2.9971875,6.9657971 L2.9235875,6.89971014 L2.898575,6.88782609 L2.8689625,6.8742029 L2.8212375,6.85217391 L2.7255,6.83449275 L2.6268875,6.80231884 L2.539775,6.84695652 L2.469625,6.79362319 L2.4250625,6.74115942 C2.7194625,5.93565217 3.122825,5.18289855 3.6141625,4.49971014 L3.6457875,4.51768116 L3.647225,4.48028986 L3.6745375,4.46202899 L3.705875,4.47101449 L3.755325,4.50782609 L3.77315,4.48289855 L3.800175,4.52289855 L3.8090875,4.57391304 L3.863425,4.58956522 L3.8435875,4.65855072 L3.8617,4.67797101 L3.8890125,4.70898551 L3.9160375,4.69768116 L3.9493875,4.67797101 L3.974975,4.64463768 L4.0155125,4.62173913 L4.0218375,4.66666667 L4.0293125,4.71826087 L4.0304625,4.71826087 L4.0770375,4.74 L4.108375,4.74956522 L4.1144125,4.80057971 L4.1397125,4.86434783 L4.1661625,4.89797101 L4.1172875,4.91130435 L4.1247625,4.95536232 L4.134825,4.98202899 L4.1529375,5.0026087 L4.127925,5.02869565 L4.1023375,5.0626087 L4.0689875,5.11130435 L4.0356375,5.15449275 L4.038225,5.20666667 L4.1684625,5.29623188 L4.152075,5.33652174 L4.03305,5.37623188 L3.986475,5.39971014 L3.87665,5.40057971 L3.7901125,5.44985507 L3.766825,5.46318841 L3.7636625,5.47217391 L3.7239875,5.57304348 L3.7337625,5.63043478 L3.7697,5.64057971 L3.8042,5.66434783 L3.888725,5.63594203 L3.939325,5.57623188 L3.966925,5.57275362 L3.9721,5.57188406 L4.003725,5.56666667 L4.022125,5.55768116 L4.025,5.55710145 L4.0074625,5.49217391 L4.030175,5.50376812 L4.0511625,5.50115942 L4.094,5.48608696 L4.1121125,5.51362319 L4.1561,5.51536232 L4.181975,5.53942029 L4.230275,5.56144928 L4.2466625,5.57449275 L4.26535,5.59188406 L4.2915125,5.61623188 L4.30675,5.63043478 L4.3654,5.6226087 L4.3892625,5.64144928 L4.3547625,5.66869565 L4.342975,5.67768116 L4.3524625,5.70144928 L4.353325,5.70521739 L4.37575,5.70782609 L4.38495,5.70869565 L4.4427375,5.70782609 L4.463725,5.69797101 L4.4709125,5.69478261 L4.5358875,5.68492754 L4.6273125,5.66463768 L4.69545,5.66898551 L4.760425,5.65855072 L4.81965,5.66463768 L4.8889375,5.64695652 L4.8854875,5.60869565 L4.84035,5.61710145 L4.7975125,5.57072464 L4.7377125,5.56608696 L4.6589375,5.52666667 L4.5862,5.48434783 L4.6138,5.47333333 L4.6782,5.45565217 L4.7187375,5.43449275 L4.769625,5.47942029 L4.8601875,5.44927536 L4.9447125,5.4742029 L4.9289,5.41043478 L4.945575,5.37014493 L4.9360875,5.31826087 L4.9096375,5.28608696 L4.8737,5.28521739 L4.729375,5.2257971 L4.687975,5.17942029 L4.6566375,5.13217391 L4.632775,5.11449275 L4.646575,5.01478261 L4.640825,4.96463768 L4.7020625,4.93971014 L4.7417375,4.99391304 L4.7725,5.01797101 L4.807575,5.04985507 L4.8670875,5.05652174 L4.874275,5.09217391 L4.9102125,5.09913043 L4.936375,5.12492754 L4.9700125,5.1573913 L5.0462,5.16086957 L5.09565,5.15391304 L5.0982375,5.12376812 L5.092775,5.04347826 L5.14165,5.02202899 L5.1494125,4.98202899 L5.1453875,4.94637681 L5.2534875,4.93043478 L5.2509,4.81884058 L5.2302,4.78434783 L5.18995,4.7542029 L5.131875,4.76144928 L5.0579875,4.81188406 L5.035275,4.80811594 L5.0073875,4.81188406 L4.9565,4.82028986 L4.8987125,4.73333333 L4.8613375,4.67188406 L4.8262625,4.6915942 L4.80815,4.71652174 L4.7842875,4.74956522 L4.7210375,4.77536232 L4.685675,4.7284058 L4.6664125,4.70550725 L4.641975,4.67971014 L4.63335,4.66927536 L4.5312875,4.6484058 L4.5008125,4.62173913 L4.492475,4.57304348 L4.5220875,4.56695652 L4.5525625,4.52608696 L4.5301375,4.4773913 L4.586775,4.46898551 L4.5404875,4.43884058 L4.4806875,4.44173913 L4.4519375,4.40057971 L4.485575,4.37217391 L4.52525,4.35275362 L4.52525,4.30057971 L4.4712,4.27826087 L4.4691875,4.3084058 L4.41715,4.30927536 L4.37115,4.24985507 L4.3162375,4.24144928 L4.2964,4.23884058 L4.2782875,4.26434783 L4.2650625,4.32289855 L4.2619,4.34115942 L4.2587375,4.33362319 L4.246375,4.2915942 L4.231425,4.24028986 L4.2029625,4.20898551 L4.1690375,4.18376812 L4.1414375,4.14550725 C4.1414375,4.14550725 4.0896875,4.15217391 4.070425,4.15478261 C4.0482875,4.15768116 4.0572,4.16550725 4.0572,4.16550725 L3.9850375,4.17565217 L3.965775,4.14898551 L3.905975,4.18869565 L3.9016625,4.15768116 L3.902525,4.13652174 L3.9031,4.11855072 C4.2000875,3.74695652 4.52295,3.39855072 4.871975,3.07710145 L4.926025,3.06811594 L5.02665,3.08724638 L5.08875,3.13188406 L5.1022625,3.14521739 L5.1172125,3.1626087 L5.1338875,3.16028986 L5.159475,3.15623188 L5.2026,3.13797101 L5.23825,3.15478261 L5.2546375,3.19681159 L5.2693,3.22782609 L5.39005,3.27797101 L5.458475,3.29507246 L5.4685375,3.29710145 L5.4742875,3.33536232 L5.476875,3.35217391 L5.465375,3.42115942 L5.5225875,3.42289855 L5.5409875,3.47536232 L5.6007875,3.51304348 L5.6094125,3.56811594 L5.6697875,3.60289855 L5.6778375,3.65652174 L5.6488,3.68318841 L5.6347125,3.74173913 L5.6347125,3.79681159 L5.627525,3.83188406 L5.6329875,3.86376812 L5.6876125,3.86637681 L5.728725,3.84869565 L5.7796125,3.81855072 L5.8098,3.82028986 L5.8371125,3.82231884 L5.8463125,3.82028986 L5.93515,3.80492754 L5.949525,3.83681159 L5.9940875,3.84173913 L6.0510125,3.84347826 L6.0855125,3.86028986 L6.0697,3.90782609 L6.077175,3.95072464 L6.105925,3.9915942 L6.0996,4.02521739 L6.0458375,4.03536232 L6.010475,4.01826087 L5.9503875,3.99217391 L5.8491875,3.98637681 L5.763225,4 L5.758625,4.00231884 L5.7155,4.01855072 L5.710325,4.01971014 L5.7146375,4.02057971 L5.7456875,4.03072464 L5.7916875,4.04231884 L5.817275,4.06985507 L5.9078375,4.07855072 L5.9342875,4.10724638 L5.980575,4.1226087 L6.0274375,4.14 L6.070275,4.13304348 L6.10075,4.11623188 L6.1341,4.11333333 L6.157675,4.14115942 L6.16745,4.19449275 L6.1861375,4.24898551 L6.1838375,4.31536232 L6.1433,4.32115942 L6.1516375,4.38753623 L6.149625,4.44231884 L6.105925,4.43855072 L6.06165,4.4457971 L6.0239875,4.48463768 L6.0170875,4.51942029 L6.05245,4.53681159 L6.141,4.52347826 L6.182975,4.51594203 L6.202525,4.5573913 L6.217475,4.60028986 L6.1654375,4.61855072 L6.109375,4.61652174 L6.0636625,4.60231884 L6.01105,4.63072464 L5.9636125,4.68405797 L5.9731,4.73884058 L6.015075,4.78695652 L5.9869,4.83710145 L5.9984,4.90115942 L6.03405,4.91913043 L6.049,4.94927536 L6.0924125,4.94289855 L6.15365,4.97768116 L6.174925,5.05275362 L6.171475,5.09768116 L6.154225,5.13333333 L6.1824,5.17507246 L6.228975,5.12347826 L6.235875,5.08927536 L6.2675,5.07101449 L6.3097625,5.0657971 L6.284175,5.12492754 L6.2453625,5.15391304 L6.2148875,5.18 L6.2465125,5.23246377 L6.2930875,5.25826087 L6.3005625,5.30057971 L6.318675,5.33246377 L6.3218375,5.3315942 L6.35605,5.32608696 L6.3603625,5.32521739 L6.387675,5.36608696 L6.4184375,5.3884058 L6.4253375,5.39391304 L6.429075,5.41855072 L6.434825,5.44811594 L6.509,5.39478261 L6.5133125,5.39275362 L6.514175,5.39391304 L6.5311375,5.43275362 L6.5725375,5.48231884 L6.5805875,5.5373913 L6.6171,5.55217391 L6.6332,5.59565217 L6.6599375,5.63652174 L6.7229,5.60492754 L6.7484875,5.55594203 L6.7881625,5.52724638 L6.8065625,5.57101449 L6.847675,5.61884058 L6.9244375,5.60608696 L6.978775,5.60898551 L7.00695,5.63913043 L7.04145,5.65594203 L7.075375,5.72956522 L7.10125,5.70376812 L7.1323,5.67623188 L7.1383375,5.64115942 L7.1208,5.60927536 L7.084,5.57130435 L7.107,5.52202899 L7.14265,5.45043478 L7.14725,5.40463768 L7.1624875,5.36985507 L7.16335,5.29072464 L7.16335,5.23478261 L7.175425,5.21536232 L7.1929625,5.18695652 L7.205325,5.17478261 L7.2197,5.16028986 L7.238675,5.12376812 L7.253625,5.08956522 L7.24615,5.04405797 L7.2452875,4.95565217 L7.2504625,4.91072464 L7.2619625,4.84086957 L7.266275,4.80869565 L7.30595,4.77855072 L7.320325,4.72202899 L7.4152,4.69623188 L7.4660875,4.65362319 L7.5189875,4.63536232 L7.5356625,4.67884058 L7.580225,4.68144928 L7.6075375,4.64405797 L7.6314,4.63971014 L7.6627375,4.63478261 L7.67165,4.63304348 L7.7202375,4.5915942 L7.756175,4.53217391 L7.7714125,4.48463768 L7.80045,4.44637681 L7.8398375,4.41797101 L7.9111375,4.30666667 L7.960875,4.27594203 L7.95455,4.23362319 L7.943625,4.15623188 L7.9812875,4.18521739 L8.0152125,4.19043478 L8.0767375,4.15797101 L8.129925,4.14057971 L8.1512,4.13623188 L8.19605,4.14057971 L8.24895,4.12144928 L8.2802875,4.11594203 L8.32255,4.09913043 L8.35245,4.08202899 L8.38235,4.0542029 L8.4021875,4.04028986 L8.4476125,4.0457971 L8.49965,4.03710145 L8.5238,3.96695652 L8.585325,3.93507246 L8.6135,3.89681159 L8.6586375,3.9026087 L8.6827875,3.85362319 L8.7584,3.83101449 L8.8113,3.82202899 L8.8173375,3.78724638 L8.8435,3.73884058 L8.9070375,3.65217391 L8.82165,3.66521739 L8.764725,3.66318841 L8.69515,3.62811594 L8.6408125,3.63652174 L8.5706625,3.69246377 L8.5286875,3.69797101 L8.5470875,3.60666667 L8.553125,3.5715942 L8.526675,3.54202899 L8.553125,3.49507246 L8.5160375,3.46666667 L8.484125,3.47101449 L8.416275,3.47101449 L8.3619375,3.48057971 L8.3124875,3.4426087 L8.344975,3.4373913 L8.3881,3.42927536 L8.4211625,3.42405797 L8.453075,3.41971014 L8.494475,3.41246377 L8.5292625,3.41942029 L8.5744,3.42405797 L8.6103375,3.44 L8.648,3.46753623 L8.69745,3.50724638 L8.7149875,3.53681159 L8.76185,3.55130435 L8.8064125,3.56608696 L8.8535625,3.58347826 L8.9076125,3.58608696 L8.9432625,3.59043478 L8.971725,3.56550725 L8.9656875,3.51971014 L8.947,3.46811594 L8.8857625,3.43072464 L8.845225,3.38231884 L8.7385625,3.34231884 L8.6902625,3.3057971 L8.6431125,3.2915942 L8.6043,3.26405797 L8.5698,3.2457971 L8.5286875,3.26405797 L8.486425,3.27043478 L8.4303625,3.26724638 L8.416275,3.24347826 L8.3987375,3.21507246 L8.4021875,3.21217391 L8.4269125,3.18 L8.45825,3.16347826 L8.49735,3.13362319 L8.5491,3.10318841 L8.5879125,3.15507246 L8.624425,3.17101449 L8.6526,3.20057971 L8.65835,3.20057971 L8.6963,3.20492754 L8.71125,3.2315942 L8.7420125,3.28608696 L8.7920375,3.31275362 L8.8259625,3.31826087 L8.8702375,3.33333333 L8.901575,3.31826087 L8.8748375,3.28811594 L8.84695,3.24898551 L8.8966875,3.21826087 L8.86765,3.18811594 L8.86075,3.18028986 L8.799225,3.15536232 L8.7494875,3.11768116 L8.67445,3.07362319 L8.7535125,3.06202899 L8.79635,3.06666667 L8.8616125,3.05681159 L8.8995625,3.01449275 L8.9524625,2.99768116 L8.9777625,2.93797101 L8.936075,2.88869565 L8.832,2.93797101 L8.832,2.85826087 L8.9179625,2.83623188 L8.9104875,2.79304348 L8.9056,2.76028986 L8.900425,2.72695652 L8.836025,2.67014493 L8.8788625,2.66318841 L8.9150875,2.66898551 L8.9622375,2.69623188 L8.98725,2.63623188 L8.98035,2.59275362 L8.8987,2.4942029 L8.8483875,2.52376812 L8.7931875,2.53217391 L8.822225,2.4942029 L8.847525,2.44724638 L8.84005,2.41304348 L8.83315,2.39333333 L8.8251,2.37130435 L8.9507375,2.36956522 L8.98035,2.36956522 L9.0047875,2.38782609 L9.059125,2.37855072 L9.1002375,2.35188406 L9.093625,2.34231884 L9.0726375,2.31333333 L9.05625,2.28869565 L9.028075,2.24898551 L8.9861,2.2657971 L8.9219875,2.27565217 L8.883175,2.24811594 L8.9495875,2.17072464 L8.869375,2.16057971 L8.737125,2.15913043 C8.737125,2.15913043 8.737125,2.15913043 8.7316625,2.1257971 C8.72735,2.09391304 8.7759375,2.13043478 8.7759375,2.13043478 L8.8547125,2.11942029 L8.86765,2.07188406 L8.8828875,2.02492754 L8.94815,1.94869565 L8.9332,1.84956522 L9.068325,1.78521739 L9.06315,1.75217391 L8.9674125,1.71043478 L8.8932375,1.7226087 L8.8311375,1.75449275 L8.8110125,1.69971014 L8.8598875,1.66057971 L8.9355,1.64898551 L8.9840875,1.67304348 L9.1358875,1.65072464 L9.19195,1.57449275 L9.2261625,1.54086957 L9.251175,1.51681159 L9.2595125,1.50927536 L9.296025,1.47101449 L9.3457625,1.42869565 L9.3817,1.37913043 L9.4624875,1.38898551 L9.5243,1.30202899 L9.4555875,1.27797101 L9.3265,1.29884058 L9.29085,1.30463768 L9.26785,1.30724638 L9.1853375,1.31971014 L9.0022,1.34724638 L8.9409625,1.39130435 L8.865925,1.40289855 L8.7906,1.41507246 L8.7345375,1.41188406 L8.6718625,1.44347826 L8.6158,1.50753623 L8.5813,1.55942029 L8.5085625,1.60144928 L8.4970625,1.60347826 L8.459975,1.60898551 L8.4119625,1.61681159 L8.3728625,1.57942029 L8.4234625,1.5484058 L8.4631375,1.52086957 L8.493325,1.50463768 L8.5217875,1.46753623 L8.557725,1.41594203 L8.5200625,1.38956522 L8.4548,1.3884058 L8.3791875,1.40115942 L8.365675,1.46811594 L8.2624625,1.50492754 L8.190875,1.47188406 L8.132225,1.44086957 L8.12935,1.43942029 L8.087375,1.44086957 L8.0198125,1.44376812 L7.8614,1.49188406 L7.7622125,1.50521739 L7.6173125,1.57304348 L7.6196125,1.54724638 L7.620475,1.51623188 L7.7035625,1.47043478 L7.7326,1.46 L7.8177,1.42985507 L8.0025625,1.40318841 L8.1578125,1.37478261 L8.21215,1.36405797 L8.411675,1.32782609 L8.545075,1.32985507 L8.619825,1.31797101 L8.668125,1.26608696 L8.67905,1.19681159 L8.5882,1.17826087 L8.55485,1.18289855 L8.4688875,1.18550725 L8.4424375,1.17391304 L8.431225,1.16782609 L8.4019,1.16724638 L8.3763125,1.16724638 L8.3096125,1.16463768 L8.292075,1.12289855 L8.280575,1.11130435 L8.2613125,1.09304348 C9.1565875,0.801449275 10.1110875,0.642028986 11.1029625,0.642028986 C13.2655375,0.642028986 15.2533125,1.39275362 16.8276625,2.64695652 L16.8385875,2.71855072 L16.868775,2.7884058 L16.8196125,2.80492754 L16.7759125,2.78173913 L16.753775,2.85681159 L16.710075,2.84376812 L16.6844875,2.80666667 L16.668675,2.76550725 L16.5968,2.7884058 L16.5554,2.79333333 L16.553675,2.84753623 L16.4786375,2.82724638 L16.434075,2.81362319 L16.3829,2.82 L16.3458125,2.85681159 L16.3366125,2.88782609 L16.329425,2.9257971 L16.3268375,2.93391304 L16.2564,2.94376812 L16.214425,2.95072464 L16.183375,2.94608696 L16.1503125,2.94 L16.1974625,2.91014493 L16.214425,2.87681159 L16.1618125,2.87594203 L16.1353625,2.83681159 L16.1025875,2.83072464 L16.0008125,2.92 L15.94705,2.96985507 L15.8938625,2.97913043 L15.8562,3.0057971 L15.801,3.0457971 L15.7711,3.06231884 L15.7317125,3.07652174 L15.729125,3.08115942 L15.7029625,3.10115942 L15.6489125,3.14376812 L15.646325,3.19710145 L15.646325,3.26086957 L15.5908375,3.31130435 L15.5620875,3.33652174 L15.5227,3.35246377 L15.48015,3.33971014 L15.431275,3.29391304 L15.4206375,3.23246377 L15.44795,3.19536232 L15.50315,3.14521739 L15.4821625,3.0742029 L15.442775,3.0173913 L15.36515,2.99913043 L15.242675,3.0173913 L15.240375,3.07072464 L15.264525,3.09826087 L15.25705,3.18405797 L15.2536,3.22637681 L15.2628,3.28869565 L15.251875,3.36376812 L15.2418125,3.42869565 L15.228875,3.48289855 L15.1409,3.45391304 L15.1164625,3.42637681 L15.0836875,3.42086957 L15.0440125,3.45507246 L15.0204375,3.47652174 L15.01095,3.48492754 L14.9755875,3.53188406 L14.944825,3.60028986 L14.949425,3.63188406 L14.9893875,3.6884058 L15.025325,3.72492754 L14.9750125,3.73304348 L14.917225,3.69942029 L14.8726625,3.67594203 L14.8082625,3.67275362 L14.763125,3.6484058 L14.724025,3.65449275 L14.721725,3.71884058 L14.729775,3.78 L14.764275,3.79681159 L14.814875,3.85304348 L14.8042375,3.90637681 L14.743,3.92608696 L14.69355,3.93449275 L14.613625,3.90318841 L14.5886125,3.87507246 L14.550375,3.82956522 L14.510125,3.77246377 L14.4891375,3.70086957 L14.4707375,3.6515942 L14.4161125,3.62898551 L14.3603375,3.60608696 L14.2945,3.58347826 L14.2574125,3.54869565 L14.216875,3.48 L14.152475,3.40550725 L14.267475,3.47275362 L14.318075,3.46463768 L14.352,3.48956522 L14.4072,3.50608696 L14.4923,3.51217391 L14.5443375,3.5142029 L14.596375,3.51623188 L14.6921125,3.52318841 L14.748175,3.54695652 L14.8166,3.5142029 L14.867775,3.44318841 L14.9054375,3.40550725 L14.9428125,3.3715942 L14.9669625,3.34927536 L14.987375,3.33043478 L14.9543125,3.2515942 L14.9347625,3.19043478 L14.8818625,3.18956522 L14.8258,3.15565217 L14.8097,3.14347826 L14.7536375,3.10231884 L14.7254625,3.09043478 L14.6852125,3.07217391 L14.63145,3.0484058 L14.47965,3.01884058 L14.4385375,3.02521739 L14.3517125,3.00637681 L14.290475,3.00637681 L14.2079625,3.01884058 L14.1734625,3.00231884 L14.0975625,2.98376812 L14.1240125,2.94637681 L14.077725,2.91072464 L14.0463875,2.91710145 L13.9957875,2.92405797 L13.9532375,2.93101449 L13.868425,2.97536232 L13.8307625,2.93855072 L13.8575,2.91391304 L13.8750375,2.89014493 L13.9336875,2.86 L13.859225,2.78695652 L13.82875,2.79217391 L13.8069,2.77449275 L13.7611875,2.74985507 L13.755725,2.7826087 L13.7611875,2.82231884 L13.7126,2.85246377 L13.6749375,2.80637681 L13.7077125,2.74608696 L13.69305,2.71826087 L13.6582625,2.70173913 L13.632675,2.72811594 L13.6298,2.78144928 L13.6157125,2.83449275 L13.6114,2.86724638 L13.582075,2.88231884 L13.5564875,2.8542029 L13.5513125,2.82463768 L13.5300375,2.81565217 L13.5248625,2.85942029 L13.5018625,2.90434783 L13.496975,2.91101449 L13.48375,2.92927536 L13.4826,2.94347826 L13.479725,2.97188406 L13.4552875,3.0084058 L13.43775,2.95768116 L13.432,2.92695652 L13.4506875,2.89942029 L13.4573,2.89043478 L13.4650625,2.86637681 L13.4719625,2.84637681 L13.4455125,2.81884058 L13.4274,2.81304348 L13.40095,2.80463768 L13.3788125,2.8 L13.370475,2.79884058 L13.3377,2.80231884 L13.3377,2.85652174 L13.3195875,2.88057971 L13.279625,2.89768116 L13.2753125,2.93913043 L13.2488625,2.9657971 L13.2091875,2.98231884 L13.1775625,2.98724638 L13.10885,2.9542029 L13.0723375,2.94695652 L13.0550875,2.94231884 L13.0763625,3.01304348 L13.0614125,3.0373913 L13.0280625,3.02927536 L12.9832125,3.01768116 L13.002475,3.06753623 L12.970275,3.07275362 L12.932325,3.08869565 L12.8963875,3.13565217 L12.8653375,3.12956522 L12.8411875,3.17768116 L12.8032375,3.2026087 L12.777075,3.25014493 L12.75465,3.28492754 L12.7520625,3.34927536 L12.731075,3.42405797 L12.6865125,3.46289855 L12.65,3.50028986 L12.6232625,3.50376812 L12.60975,3.50608696 L12.62815,3.55536232 L12.64425,3.59565217 L12.6422375,3.61304348 L12.640225,3.62898551 L12.6123375,3.66434783 L12.580425,3.72202899 L12.54995,3.7257971 L12.521775,3.75275362 L12.5088375,3.80608696 L12.4542125,3.87130435 L12.448175,3.87971014 L12.43495,3.93536232 L12.3972875,3.97188406 L12.38665,4.02637681 L12.3478375,4.05333333 L12.3208125,4.06869565 L12.2866,4.07304348 L12.245775,4.14231884 L12.231975,4.18724638 L12.19575,4.2142029 L12.1914375,4.25565217 L12.2334125,4.27101449 L12.26475,4.26666667 L12.2403125,4.31072464 L12.240025,4.31246377 L12.1937375,4.34173913 L12.1517625,4.34695652 L12.1419875,4.32028986 L12.13595,4.30695652 L12.1051875,4.30173913 L12.07385,4.30695652 L12.034175,4.32347826 L12.0281375,4.33101449 L12.0080125,4.35855072 L12.0143375,4.36492754 L12.035325,4.3857971 L12.057175,4.4026087 L11.97725,4.43826087 L11.9827125,4.47855072 L11.9528125,4.48434783 L11.91285,4.49072464 L11.8947375,4.52405797 L11.8993375,4.55449275 L11.88295,4.55768116 L11.8516125,4.5826087 L11.838675,4.62666667 L11.7967,4.63478261 L11.7734125,4.66753623 L11.7251125,4.69710145 L11.708725,4.73072464 L11.6837125,4.77797101 L11.7141875,4.8373913 L11.7222375,4.89884058 L11.7544375,4.96695652 L11.7808875,4.99275362 L11.8590875,4.9715942 L11.85075,5.05797101 L11.7941125,5.08695652 L11.7898,5.12927536 L11.7952625,5.17130435 L11.8372375,5.16521739 L11.8573625,5.22550725 L11.8657,5.28724638 L11.921475,5.31043478 L11.975525,5.32202899 L12.0982875,5.30463768 L12.14515,5.26434783 L12.1862625,5.19478261 L12.25555,5.16318841 L12.2874625,5.11652174 L12.3374875,5.09826087 L12.3777375,5.13478261 L12.3932625,5.18463768 L12.4220125,5.23391304 L12.4248875,5.24985507 L12.4294875,5.28202899 L12.4317875,5.29536232 L12.476925,5.37275362 L12.553975,5.41449275 L12.5881875,5.43014493 L12.6025625,5.45797101 L12.5680625,5.50637681 L12.5416125,5.53130435 L12.49245,5.54898551 L12.49935,5.60144928 L12.4484625,5.6084058 L12.4151125,5.60376812 L12.4254625,5.66608696 L12.4628375,5.71217391 L12.527525,5.71217391 L12.5416125,5.67913043 L12.535,5.63594203 L12.5502375,5.59188406 L12.5899125,5.57449275 L12.594225,5.60463768 L12.6198125,5.6342029 L12.6893875,5.61304348 L12.7164125,5.58637681 L12.7192875,5.53362319 L12.743725,5.48869565 L12.779375,5.46115942 L12.881725,5.43536232 L12.91335,5.36753623 L12.9044375,5.31565217 L12.894375,5.24347826 L12.9061625,5.17913043 L12.90645,5.16144928 L12.907025,5.12869565 L12.9073125,5.11478261 L12.89955,5.07304348 L12.9061625,5.04115942 L12.946125,5.0342029 L12.9774625,5.02985507 L13.0249,5.00231884 L13.0548,4.9857971 L13.0706125,4.95304348 L13.0548,4.92405797 L13.08585,4.85565217 L13.0355375,4.80028986 L13.000175,4.76376812 L12.956475,4.75942029 L12.9239875,4.74202899 L12.8906375,4.72782609 L12.846075,4.51304348 L12.8636125,4.4773913 L12.857,4.43652174 L12.8825875,4.41246377 L12.920825,4.37391304 L12.932325,4.30898551 L12.9395125,4.3026087 L12.9584875,4.28492754 L12.958775,4.2515942 L12.958775,4.22173913 L12.9964375,4.18318841 L13.0939,4.14869565 L13.141625,4.11014493 L13.1537,4.05362319 L13.201425,4.01536232 L13.1721,3.96695652 L13.13415,3.92 L13.1677875,3.87217391 L13.1942375,3.83652174 L13.2275875,3.78985507 L13.245125,3.75681159 L13.261225,3.72173913 L13.3310875,3.70927536 L13.3575375,3.73855072 L13.469375,3.72173913 L13.5271625,3.7542029 L13.5352125,3.80463768 L13.5352125,3.86898551 L13.4782875,3.92028986 L13.436025,3.98057971 L13.41245,4.03507246 L13.3788125,4.08202899 L13.3581125,4.15942029 L13.30435,4.22057971 L13.2994625,4.23188406 L13.2862375,4.26463768 L13.2810625,4.27855072 L13.2954375,4.36927536 L13.3046375,4.43101449 L13.3362625,4.50173913 L13.310675,4.54724638 L13.347475,4.58347826 L13.363575,4.62173913 L13.38485,4.61855072 L13.424525,4.6026087 L13.4558625,4.60869565 L13.45155,4.64231884 L13.42625,4.68695652 L13.5007125,4.68608696 L13.5150875,4.71594203 L13.5915625,4.74521739 L13.626925,4.70956522 L13.6513625,4.65275362 L13.677525,4.62753623 L13.7347375,4.58637681 L13.7755625,4.57130435 L13.8368,4.56144928 L13.886825,4.54318841 L13.9265,4.53681159 L13.978825,4.6026087 L14.022525,4.61797101 L14.0636375,4.61188406 L14.093825,4.59594203 L14.12775,4.61188406 L14.104175,4.66608696 L14.0768625,4.70434783 L14.0176375,4.71478261 L13.97135,4.69884058 L13.9702,4.7626087 L13.891425,4.78550725 L13.8370875,4.77333333 L13.78505,4.78086957 L13.743075,4.7657971 L13.6973625,4.82492754 L13.6473375,4.83391304 L13.6068,4.83971014 L13.5817875,4.87565217 L13.55275,4.90115942 L13.55965,4.94956522 L13.5616625,4.96173913 L13.57575,4.97710145 L13.5881125,4.98927536 L13.621175,5.00550725 L13.6229,5.15449275 L13.5863875,5.19072464 L13.5608,5.22608696 L13.516525,5.21188406 L13.501575,5.18173913 L13.4782875,5.16463768 L13.439475,5.11768116 L13.379675,5.13797101 L13.4006625,5.20753623 L13.4021,5.28144928 L13.3883,5.33710145 L13.364725,5.38376812 L13.34805,5.41594203 L13.3529375,5.44695652 L13.3540875,5.4573913 L13.357825,5.46347826 L13.381975,5.4942029 L13.3883,5.53652174 L13.383125,5.5426087 L13.3425875,5.58637681 L13.3276375,5.55565217 L13.296875,5.55043478 L13.2825,5.60492754 L13.2781875,5.6484058 L13.26755,5.71275362 L13.2218375,5.6884058 L13.194525,5.70318841 L13.17095,5.75826087 L13.1424875,5.71130435 L13.1189125,5.69304348 L13.0562375,5.70318841 L13.031225,5.73884058 L12.9354875,5.79565217 L12.8584375,5.82724638 L12.817325,5.84550725 L12.775925,5.86 L12.7075,5.8626087 L12.66955,5.83652174 L12.59595,5.81623188 L12.5738125,5.81942029 L12.535,5.90985507 L12.484975,5.9173913 L12.4576625,5.89043478 L12.425175,5.86231884 L12.384925,5.86985507 L12.343525,5.83333333 L12.328575,5.77362319 L12.3765875,5.74463768 L12.3777375,5.7026087 L12.3512875,5.66376812 L12.3432375,5.61217391 L12.3625,5.53536232 L12.3696875,5.50318841 L12.313625,5.46898551 L12.2914875,5.41043478 L12.3257,5.35188406 L12.3190875,5.30492754 L12.3179375,5.29942029 L12.3012625,5.27681159 L12.290625,5.26057971 L12.2748125,5.2826087 L12.2475,5.32 L12.2466375,5.32144928 L12.2207625,5.36695652 L12.18885,5.42492754 L12.121575,5.45623188 L12.1764875,5.46782609 L12.0934,5.55623188 L12.1230125,5.60347826 L12.159525,5.64057971 L12.1644125,5.68202899 L12.182525,5.73101449 L12.2115625,5.7684058 L12.22565,5.80927536 L12.2521,5.89942029 L12.2702125,5.95014493 L12.21875,6.03333333 L12.2000625,6.0342029 L12.1563625,6.03072464 L12.10835,6.0484058 L12.0367625,6.07072464 L12.006575,6.0742029 L11.953675,6.08231884 L11.9508,6.11565217 L11.921475,6.14144928 L11.891,6.21043478 L11.8889875,6.27130435 L11.8889875,6.3373913 L11.884675,6.36782609 L11.80705,6.38028986 L11.7757125,6.38434783 L11.7722625,6.38521739 L11.7130375,6.41536232 L11.6733625,6.43304348 L11.6262125,6.47101449 L11.6244875,6.52376812 L11.610975,6.56724638 L11.5830875,6.60347826 L11.5238625,6.62434783 L11.509775,6.66753623 L11.47125,6.68492754 L11.421225,6.7142029 L11.3939125,6.66463768 L11.3321,6.66376812 L11.3197375,6.71913043 L11.334975,6.75913043 L11.3551,6.81913043 L11.3183,6.8457971 L11.2743125,6.84086957 L11.2346375,6.84666667 L11.1932375,6.85391304 L11.129125,6.89565217 L11.0995125,6.91942029 L11.0834125,6.95507246 L11.0914625,7.0057971 L11.1343,7.01072464 L11.2104875,7.01768116 L11.2771875,7.06753623 L11.366025,7.11246377 L11.4542875,7.15971014 L11.4876375,7.2226087 L11.50345,7.31623188 L11.5060375,7.35565217 L11.5077625,7.38985507 L11.5115,7.45652174 L11.5267375,7.56 L11.4870625,7.60173913 L11.4013875,7.57971014 L11.3206,7.59217391 L11.24815,7.56956522 L11.1782875,7.57768116 L11.1098625,7.58985507 L11.011825,7.64 L10.939375,7.62753623 L10.879,7.61246377 L10.8606,7.64 L10.8307,7.67884058 L10.7642875,7.7026087 L10.7338125,7.74231884 L10.74215,7.7884058 L10.785275,7.84173913 L10.81575,7.89594203 L10.8292625,7.98782609 L10.8413375,8.06869565 L10.81575,8.13188406 L10.805975,8.21478261 L10.81575,8.28492754 L10.8367375,8.34202899 L10.8652,8.37072464 L10.880725,8.47623188 L10.8890625,8.53478261 L10.9724375,8.54521739 L11.061275,8.50724638 L11.0954875,8.5026087 L11.1374625,8.55507246 L11.1932375,8.59362319 L11.25045,8.5973913 L11.31485,8.5515942 L11.3528,8.51043478 L11.42295,8.49913043 L11.4816,8.49188406 L11.5106375,8.45043478 L11.5255875,8.40173913 L11.586825,8.34492754 L11.6319625,8.32666667 L11.64835,8.27594203 L11.653525,8.22753623 L11.702975,8.17304348 L11.7090125,8.13565217 L11.678825,8.09333333 L11.6842875,8.04550725 L11.7205125,7.98115942 L11.74955,7.92869565 L11.7670875,7.90289855 L11.8084875,7.84869565 L11.8717375,7.80347826 L11.9355625,7.76 L11.953675,7.73275362 L11.9654625,7.65884058 L11.958275,7.61246377 L11.9186,7.57130435 L11.9367125,7.53246377 L11.997375,7.50144928 L12.00255,7.49855072 L12.0298625,7.49855072 L12.08305,7.49855072 L12.1672875,7.52173913 L12.228525,7.53565217 L12.26015,7.49478261 L12.2845875,7.44434783 L12.3397875,7.42405797 L12.3809,7.37072464 L12.4059125,7.30724638 L12.48785,7.29362319 L12.543625,7.36811594 L12.5841625,7.4084058 L12.6422375,7.47304348 L12.66265,7.52782609 L12.7175625,7.59130435 L12.7802375,7.61710145 L12.8446375,7.65391304 L12.90875,7.67855072 L12.9832125,7.70347826 L13.061125,7.76231884 L13.1286875,7.81246377 L13.1792875,7.83971014 L13.2005625,7.89449275 L13.2120625,7.97623188 L13.207175,8.02376812 L13.1767,8.06463768 L13.146225,8.08231884 L13.0999375,8.08782609 L13.0525,8.10695652 L12.9964375,8.13884058 L12.963375,8.13275362 L12.995575,8.18695652 L13.0700375,8.21043478 L13.1327125,8.23797101 L13.170375,8.25623188 L13.1723875,8.19565217 L13.1867625,8.13391304 L13.2425375,8.11333333 L13.271,8.07449275 L13.3017625,8.03362319 L13.3276375,7.98086957 L13.329075,7.91101449 L13.3241875,7.87681159 L13.29515,7.8457971 L13.285375,7.78724638 L13.3621375,7.74115942 L13.41475,7.77884058 L13.354375,7.69449275 L13.312975,7.65217391 L13.261225,7.62550725 L13.222125,7.59536232 L13.168075,7.54405797 L13.1327125,7.5373913 L12.99845,7.51246377 L12.9536,7.44753623 L12.9360625,7.4026087 L12.8846,7.37565217 L12.8066875,7.32782609 L12.7658625,7.28724638 L12.7693125,7.24782609 L12.7719,7.21507246 L12.772475,7.19304348 L12.741425,7.11391304 L12.8371625,7.06463768 L12.8682125,7.2057971 L12.8699375,7.21130435 L12.879425,7.20521739 L12.912775,7.18202899 L12.96165,7.11565217 L13.0295,7.17652174 L13.0315125,7.19246377 L13.0366875,7.22347826 L13.03755,7.23507246 L13.056525,7.28956522 L13.1350125,7.31391304 L13.2089,7.34898551 L13.3011875,7.41884058 L13.432575,7.43391304 L13.4895,7.50695652 L13.51595,7.68086957 L13.5352125,7.7257971 L13.592425,7.79913043 L13.6852875,7.85594203 L13.741925,7.92782609 L13.79195,7.95710145 L13.8621,7.95797101 L13.80115,8.0142029 L13.822425,8.07014493 L13.8805,8.07304348 L13.9578375,8.03768116 L14.0187875,7.98057971 L14.0187875,7.97826087 L14.0256875,7.94550725 L14.0429375,7.93826087 L14.07025,7.92608696 L14.05185,7.88202899 L14.0302875,7.87652174 L13.9957875,7.86753623 L13.9917625,7.86753623 L13.931675,7.86463768 L13.9012,7.82173913 L13.8836625,7.77855072 L13.8888375,7.73072464 L13.868425,7.67478261 L13.8575,7.61797101 L13.9104,7.65478261 L13.9495,7.65014493 L13.98055,7.64550725 L13.98055,7.64521739 L13.9986625,7.60666667 L13.9796875,7.56289855 L14.036325,7.55449275 L14.142125,7.54898551 L14.172025,7.60376812 L14.2091125,7.68115942 L14.2401625,7.73478261 L14.268625,7.7657971 L14.2752375,7.81217391 L14.249075,7.86318841 L14.2683375,7.92 L14.327275,7.92376812 L14.3436625,8.0257971 L14.398575,8.01855072 L14.4419875,8.05884058 L14.5150125,8.08405797 L14.6070125,8.14086957 L14.6501375,8.12144928 L14.6765875,8.07014493 L14.697,8.03130435 L14.7637,8.02144928 L14.8398875,8.05652174 L14.9025625,8.0826087 L14.9727125,8.07101449 L15.0244625,8.02782609 L15.0834,7.96115942 L15.146075,7.91623188 L15.17425,8.0173913 L15.177125,8.03710145 L15.182875,8.06753623 L15.1906375,8.12173913 L15.2084625,8.23710145 L15.22025,8.31826087 L15.200125,8.41652174 L15.1998375,8.48724638 L15.1938,8.53565217 L15.1676375,8.59826087 L14.995425,8.6142029 L14.9520125,8.64289855 L14.9031375,8.62608696 L14.835,8.63768116 L14.760825,8.68405797 L14.7266125,8.70144928 L14.6694,8.7115942 L14.6119,8.70898551 L14.560725,8.69072464 L14.55095,8.77594203 L14.5069625,8.79362319 L14.4730375,8.79913043 L14.4368125,8.79362319 L14.3735625,8.75710145 L14.3137625,8.75304348 L14.2568375,8.76231884 L14.2171625,8.73130435 L14.19445,8.72173913 L14.1774875,8.71391304 L14.15995,8.71391304 L14.1079125,8.71391304 L14.061625,8.72173913 L14.015625,8.72753623 L13.97365,8.68637681 L13.9463375,8.65565217 L13.8894125,8.66521739 L13.8428375,8.67217391 L13.77355,8.74289855 L13.743075,8.78231884 L13.753425,8.85217391 L13.7617625,8.90927536 L13.7318625,8.94869565 L13.702825,8.98927536 L13.632675,8.98753623 L13.5955875,8.98144928 L13.547575,8.96521739 L13.4857625,8.93942029 L13.4092875,8.91536232 L13.3239,8.88028986 L13.2580625,8.83304348 L13.16405,8.83565217 L13.07895,8.81275362 L12.995575,8.80347826 L12.951875,8.76115942 L12.8940875,8.75797101 L12.854125,8.72811594 L12.8296875,8.67652174 L12.816175,8.64637681 L12.8032375,8.61797101 L12.83285,8.57913043 L12.816175,8.47362319 L12.764425,8.43536232 L12.782825,8.35130435 L12.8285375,8.26 L12.76155,8.2715942 L12.71325,8.27623188 L12.657475,8.2857971 L12.5812875,8.32144928 L12.5088375,8.32057971 L12.46025,8.30463768 L12.44415,8.34231884 L12.387225,8.3515942 L12.3372,8.34666667 L12.2535375,8.32463768 L12.185975,8.34666667 L12.1808,8.3515942 L12.1517625,8.37913043 L12.113525,8.41768116 L12.01175,8.43188406 L11.9416,8.42057971 L11.8935875,8.43884058 L11.868,8.49043478 L11.8159625,8.53275362 L11.738625,8.56927536 L11.7205125,8.60724638 L11.642025,8.63072464 L11.5848125,8.65188406 L11.54485,8.68202899 L11.440775,8.69884058 L11.397075,8.71710145 L11.3505,8.72434783 L11.2886875,8.69855072 L11.239525,8.68173913 L11.1823125,8.69043478 L11.194675,8.77014493 L11.1823125,8.8426087 L11.1426375,8.90898551 L11.1052625,8.96231884 L11.104975,8.96434783 L11.0655875,9.00405797 L11.064725,9.00405797 L11.0032,9.04782609 L10.9442625,9.14028986 L10.9419625,9.2715942 L10.9546125,9.36347826 L10.9632375,9.42231884 L10.973875,9.49188406 L10.9419625,9.59043478 L10.855425,9.71014493 L10.81805,9.76492754 L10.7665875,9.81913043 L10.7387,9.86985507 L10.6837875,9.89101449 L10.6421,10.015942 L10.5705125,10.1556522 L10.5595875,10.2286957 L10.513875,10.317971 L10.496625,10.4411594 L10.4215875,10.5588406 L10.435675,10.6492754 L10.4693125,10.7278261 L10.4744875,10.7408696 L10.4859875,10.7727536 L10.494325,10.7953623 L10.4974875,10.9133333 L10.511575,10.9921739 L10.55355,11.0475362 L10.5685,11.1501449 L10.56045,11.2327536 L10.5503875,11.3310145 L10.5193375,11.4428986 L10.4986375,11.54 L10.5423375,11.5927536 L10.566775,11.6814493 L10.5992625,11.7371014 L10.641525,11.7768116 L10.6835,11.8313043 L10.730075,11.893913 L10.792175,11.9197101 L10.8194875,11.9507246 L10.8884875,12.0130435 L10.9436875,12.0756522 L10.9770375,12.1527536 L11.00895,12.1944928 L11.056675,12.2707246 L11.072775,12.2889855 L11.083125,12.302029 L11.1021,12.3188406 L11.1506875,12.3626087 L11.27,12.4518841 L11.3588375,12.495942 L11.4494,12.5527536 L11.5100625,12.5663768 L11.57245,12.5814493 L11.617875,12.5750725 L11.8036,12.4884058 L11.8703,12.4518841 L11.9395875,12.4428986 L12.0287125,12.4272464 L12.087075,12.4191304 L12.18885,12.3924638 L12.2667625,12.3675362 L12.3303,12.3342029 L12.40045,12.3252174 L12.4706,12.242029 L12.5235,12.1997101 L12.68795,12.1510145 L12.6916875,12.1495652 L12.7227375,12.1591304 L12.7411375,12.1646377 L12.8285375,12.2104348 L12.8486625,12.2663768 L12.8641875,12.3582609 L12.9400875,12.3950725 L13.0525,12.3666667 L13.115175,12.3324638 L13.1741125,12.3234783 L13.2802,12.4008696 L13.3126875,12.4565217 L13.30895,12.6 L13.3080875,12.6457971 L13.292275,12.717971 L13.3207375,12.8930435 L13.2776125,13.006087 L13.3883,13.1182609 L13.5139375,13.2423188 L13.6450375,13.4115942 L13.6689,13.5005797 L13.725825,13.564058 L13.7968375,13.6466667 L13.818975,13.7872464 L13.83795,13.8397101 L13.84945,13.8707246 L13.862675,13.9089855 L13.8802125,14.0257971 L13.900625,14.0927536 L13.9129875,14.1715942 L13.927075,14.2910145 L13.8767625,14.3930435 L13.8715875,14.4507246 L13.8698625,14.582029 L13.859225,14.6794203 L13.8560625,14.6895652 L13.8451375,14.7252174 L13.8290375,14.7782609 L13.8342125,14.8953623 L13.885675,14.9947826 L13.9336875,15.0802899 L14.0021125,15.1524638 L14.0762875,15.3318841 L14.1596625,15.4133333 L14.260575,15.6101449 L14.275525,15.713913 L14.2896125,15.8066667 L14.3361875,15.9289855 L14.3494125,15.9643478 L14.357175,15.9921739 L14.373275,16.0556522 L14.434225,16.1391304 L14.503225,16.2118841 L14.569925,16.2721739 L14.6121875,16.3846377 L14.6648,16.4901449 L14.6771625,16.5147826 L14.6806125,16.5228986 L14.701025,16.5837681 L14.73035,16.637971 L14.7283375,16.7684058 L14.742425,16.8611594 L14.772325,16.9037681 L14.8473625,16.9272464 L14.9508625,16.9226087 L14.9577625,16.9211594 L15.0006,16.9086957 L15.04085,16.8973913 L15.2251375,16.8698551 L15.2757375,16.813913 L15.401375,16.7942029 L15.447375,16.7875362 L15.56525,16.722029 L15.6264875,16.6663768 L15.626775,16.666087 L15.6431625,16.6376812 L15.655525,16.6147826 L15.6943375,16.5623188 L15.72165,16.5081159 L15.7621875,16.4675362 L15.7903625,16.4168116 L15.829175,16.362029 L15.856775,16.3104348 L15.867125,16.226087 L15.9059375,16.1724638 L15.9323875,16.1089855 L15.972925,16.0675362 L16.0011,16.0168116 L15.956825,15.9634783 L16.05975,15.935942 L16.038475,15.7965217 L16.012025,15.7063768 L15.968325,15.6536232 L16.012025,15.6234783 L16.0606125,15.5686957 L16.127025,15.5347826 L16.18165,15.5156522 L16.210975,15.4744928 L16.204075,15.4266667 L16.1819375,15.1257971 L16.1474375,15.0582609 L16.131625,15.026087 L16.0910875,14.9843478 L16.0709625,14.9281159 L16.072975,14.8701449 L16.11495,14.8397101 L16.1307625,14.7785507 L16.16095,14.6788406 L16.20005,14.6263768 L16.317925,14.5602899 L16.42775,14.493913 L16.4631125,14.4185507 L16.513425,14.2918841 L16.5309625,14.1713043 L16.5160125,14.0802899 L16.505375,14.0063768 L16.5002,13.9765217 L16.493875,13.9286957 L16.4797875,13.8672464 L16.4728875,13.837971 L16.4596625,13.7802899 L16.442125,13.6649275 L16.397275,13.5991304 L16.34265,13.5501449 L16.3279875,13.3756522 L16.3507,13.2875362 L16.29895,13.2495652 L16.240875,13.1982609 L16.2313875,13.1165217 L16.2785375,12.9695652 L16.2595625,12.8411594 L16.283425,12.7675362 L16.320225,12.7011594 L16.4015875,12.6176812 L16.4326375,12.5202899 L16.5079625,12.3878261 L16.537,12.2776812 L16.5873125,12.2226087 L16.67155,12.1518841 L16.7615375,12.0544928 L16.8535375,11.8863768 L16.9294375,11.7678261 L16.96825,11.6428986 L16.96825,11.5611594 L16.9978625,11.4371014 L17.04185,11.2657971 L17.0910125,11.1275362 L17.099925,11.0321739 L17.1209125,10.9344928 L17.1082625,10.8484058 L17.105675,10.8301449 L17.1042375,10.8197101 L17.089575,10.7382609 L17.014825,10.784058 L16.94985,10.8171014 L16.8840125,10.8417391 L16.8498,10.8585507 L16.788275,10.9144928 L16.7678625,10.942029 L16.7396875,10.9808696 L16.6402125,10.9869565 L16.6114625,10.9889855 L16.5545375,10.9973913 L16.4935875,10.9823188 L16.385775,10.8930435 L16.3032625,10.8115942 L16.294925,10.7547826 L16.21155,10.6857971 L16.1744625,10.6437681 L16.12185,10.604058 L16.068375,10.5643478 L16.02755,10.5075362 L15.9645875,10.4872464 L15.9617125,10.4863768 L15.93095,10.4695652 L15.89415,10.4498551 L15.86425,10.3611594 L15.83895,10.2915942 L15.8363625,10.2843478 L15.8231375,10.2605797 L15.795825,10.2118841 L15.7391875,10.1582609 L15.683125,10.0866667 L15.6262,10.0333333 L15.5963,9.92753623 L15.5963,9.83188406 L15.5758875,9.78724638 L15.515225,9.7026087 L15.425525,9.6373913 L15.35365,9.47391304 L15.313975,9.41913043 L15.2602125,9.26927536 L15.2199625,9.20956522 L15.1457875,9.1426087 L15.1354375,9.06463768 L15.079375,9.01188406 L15.071325,8.94753623 L15.0606875,8.88782609 L15.1181875,8.95681159 L15.1866125,8.9942029 L15.2878125,9.04115942 L15.3481875,9.12782609 L15.39045,9.2 L15.4994125,9.29362319 L15.5756,9.37768116 L15.6943375,9.45304348 L15.703825,9.51449275 L15.7161875,9.5915942 L15.7271125,9.66985507 L15.76765,9.72637681 L15.7943875,9.78637681 L15.8610875,9.91681159 L15.8792,9.92753623 L15.91485,9.94724638 L15.995925,9.99188406 L16.07125,10.0742029 L16.1301875,10.144058 L16.1779125,10.2626087 L16.17935,10.2663768 L16.1894125,10.2965217 L16.207525,10.3536232 L16.2400125,10.4736232 L16.266175,10.5336232 L16.3751375,10.6281159 L16.4263125,10.6507246 L16.5071,10.6710145 L16.608875,10.6075362 L16.6517125,10.6014493 L16.74515,10.5866667 L16.888325,10.5008696 L16.9760125,10.4562319 L17.0269,10.3855072 L17.089575,10.3423188 L17.1143,10.3255072 L17.1143,10.3165217 L17.114875,10.2304348 L17.2307375,10.164058 L17.2681125,10.1115942 L17.28565,10.0878261 L17.3083625,10.0576812 L17.31555,10.0501449 L17.3750625,9.98347826 L17.4938,9.93391304 L17.5291625,9.86666667 L17.5596375,9.75188406 L17.5975875,9.69855072 L17.658825,9.57855072 L17.647325,9.50086957 L17.708275,9.39565217 L17.6654375,9.30695652 L17.543825,9.23217391 L17.4774125,9.21101449 L17.4078375,9.17304348 L17.36615,9.10057971 L17.3135375,9.06202899 L17.3006,8.98492754 L17.216075,9.10289855 L17.2109,9.11043478 L17.1925,9.16695652 L17.1887625,9.17710145 L17.0570875,9.22898551 L16.9972875,9.2542029 L16.9340375,9.24724638 L16.8889,9.16 L16.860725,9.08376812 L16.8132875,9.07710145 L16.7799375,9.16 L16.72215,9.09101449 L16.68075,9.01768116 L16.6131875,8.88492754 L16.553675,8.80115942 L16.49445,8.72985507 L16.454775,8.67304348 L16.459375,8.59449275 L16.5637375,8.56289855 L16.670975,8.5457971 L16.743425,8.61449275 L16.767575,8.67333333 L16.7897125,8.71623188 L16.84865,8.78695652 L16.88545,8.8284058 L16.9556,8.88057971 L17.0085,8.90463768 L17.0875625,8.92376812 L17.1557,8.91217391 L17.1881875,8.90695652 L17.195375,8.90608696 L17.2692625,8.88028986 L17.3307875,8.87043478 L17.394325,8.87594203 L17.451825,8.9457971 L17.490925,8.98753623 L17.5521625,8.97855072 L17.714025,9.01681159 L17.7976875,9.0515942 L17.9621375,9.01043478 L18.2045,8.94144928 L18.2827,8.96173913 L18.31605,8.9715942 L18.349975,8.98057971 L18.3517,8.98144928 L18.3747,9.02753623 L18.5043625,9.06985507 L18.593775,9.13449275 L18.6619125,9.17188406 L18.738675,9.16028986 L18.64955,9.30057971 L18.609875,9.3542029 L18.7171125,9.43101449 L18.8263625,9.44608696 L18.8896125,9.43681159 L18.9310125,9.39913043 L18.9143375,9.29072464 L18.9244,9.24231884 L18.9741375,9.26782609 L19.0046125,9.35594203 L19.019275,9.46289855 L19.01985,9.57478261 L19.0580875,9.71188406 L19.1199,9.86173913 L19.1305375,9.88637681 L19.131975,9.89014493 L19.2041375,10.0675362 L19.288375,10.1968116 L19.3062,10.32 L19.3105125,10.3356522 L19.337825,10.4266667 L19.34185,10.4304348 L19.4496625,10.5368116 L19.5523,10.693913 L19.583925,10.815942 L19.67305,10.8814493 L19.7423375,10.8228986 L19.777125,10.74 L19.834625,10.7005797 L19.855325,10.7426087 L19.8745875,10.866087 L19.9228875,10.9686957 L19.954225,11.0753623 L20.0350125,11.0942029 L20.088775,11.0385507 L20.0746875,10.9469565 L20.047375,10.8701449 L19.9746375,10.8034783 L19.9349625,10.7472464 L19.912825,10.7031884 L19.8550375,10.6327536 L19.8435375,10.5547826 L19.8320375,10.4785507 L19.8153625,10.3707246 L19.8320375,10.2724638 L19.81105,10.1330435 L19.7961,10.042029 L19.8009875,9.9626087 L19.90535,9.83507246 L19.9711875,9.74637681 L20.0442125,9.71797101 L20.13305,9.57826087 L20.1730125,9.52405797 L20.2115375,9.47072464 L20.2722,9.35217391 L20.3012375,9.32927536 L20.32395,9.31188406 C20.3389,9.52811594 20.3489625,9.74550725 20.3489625,9.9657971 C20.348675,15.1121739 16.209825,19.2849275 11.1035375,19.2849275 Z M14.4701625,7.49797101 L14.4488875,7.53188406 L14.421575,7.52811594 L14.391675,7.51826087 L14.37155,7.53101449 L14.3223875,7.56608696 L14.29105,7.56956522 L14.31175,7.53188406 L14.3827625,7.49246377 L14.3942625,7.48028986 L14.4109375,7.4657971 L14.4224375,7.42608696 L14.395125,7.42144928 L14.3620625,7.41681159 L14.333025,7.39913043 L14.3091625,7.36347826 L14.2769625,7.31072464 L14.3014,7.25101449 L14.3198,7.18927536 L14.3281375,7.16956522 L14.3626375,7.13942029 L14.3660875,7.13623188 L14.36005,7.10695652 L14.3459625,7.0373913 L14.364075,7.00695652 L14.3701125,6.98811594 L14.408925,6.97304348 L14.3965625,6.91449275 L14.3712625,6.87942029 L14.3942625,6.84637681 L14.4178375,6.81971014 L14.46355,6.7684058 L14.4828125,6.74115942 L14.498625,6.68869565 L14.56015,6.68 L14.57395,6.67536232 L14.5909125,6.68782609 L14.5955125,6.69942029 L14.615925,6.72028986 L14.6869375,6.73275362 L14.7407,6.72492754 L14.7869875,6.70202899 L14.7933125,6.74347826 L14.7737625,6.76 L14.721725,6.78289855 L14.707925,6.81217391 L14.695275,6.84231884 L14.7260375,6.8457971 L14.79015,6.8457971 L14.8042375,6.87246377 L14.8048125,6.90898551 L14.7950375,6.93217391 L14.814875,6.94724638 L14.85225,6.94724638 L14.8968125,6.91594203 L14.952875,6.88811594 L14.9853625,6.8715942 L15.003475,6.86318841 L15.0244625,6.85072464 L15.058675,6.8457971 L15.073625,6.8115942 L15.1469375,6.78695652 L15.163325,6.80608696 L15.1785625,6.84231884 L15.2119125,6.85565217 L15.2412375,6.86898551 L15.292125,6.9026087 L15.31225,6.91623188 L15.335825,6.93652174 L15.365725,6.96492754 L15.401375,6.99072464 L15.4292625,6.99913043 L15.496825,7.02289855 L15.54915,7.03188406 L15.5756,7.05594203 L15.6011875,7.08695652 L15.610675,7.1 L15.616425,7.11768116 L15.617,7.11942029 L15.6193,7.13681159 L15.6161375,7.17014493 L15.5986,7.2226087 L15.5655375,7.26 L15.546275,7.27594203 L15.5040125,7.30608696 L15.4775625,7.3142029 L15.448525,7.30144928 L15.4327125,7.28898551 L15.43185,7.2884058 L15.414025,7.27855072 L15.40195,7.30173913 L15.401375,7.3026087 L15.378375,7.32173913 L15.2705625,7.33246377 L15.227725,7.31710145 L15.203,7.30695652 L15.1912125,7.28956522 L15.1544125,7.28956522 L15.13285,7.31710145 L15.104675,7.28869565 L15.0790875,7.27942029 L15.0514875,7.27449275 L15.0164125,7.27449275 L15.0121,7.24434783 L14.9569,7.24782609 L14.8082625,7.25710145 L14.7844,7.2915942 L14.7323625,7.33217391 L14.7116625,7.35333333 L14.666525,7.37536232 L14.655025,7.40028986 L14.6374875,7.41942029 L14.559575,7.44608696 L14.5460625,7.42956522 L14.49805,7.43362319 L14.4672875,7.44608696 L14.4701625,7.49797101 Z M15.1521125,6.63797101 L15.18805,6.66086957 L15.203,6.67594203 L15.167925,6.71913043 L15.1774125,6.74376812 L15.13285,6.75565217 L15.0842625,6.77333333 L15.036825,6.78492754 L14.9663875,6.79623188 L14.9382125,6.78492754 L14.9083125,6.76869565 L14.9031375,6.74144928 L14.8741,6.7315942 L14.8502375,6.72086957 L14.8370125,6.7 L14.8042375,6.68318841 L14.8968125,6.67217391 L14.9238375,6.67391304 L14.9566125,6.65014493 L14.9822,6.6084058 L15.02475,6.58927536 L15.0995,6.56724638 L15.1181875,6.54202899 L15.1549875,6.51884058 L15.172525,6.50782609 L15.1969625,6.49362319 L15.2009875,6.49275362 L15.23405,6.48289855 L15.269125,6.4773913 L15.2947125,6.47536232 L15.299025,6.50028986 L15.270275,6.51913043 L15.249,6.55507246 L15.226575,6.56927536 L15.2113375,6.57913043 L15.2044375,6.60289855 L15.2027125,6.60318841 L15.184025,6.6057971 L15.1475125,6.61565217 L15.1521125,6.63797101 Z" id="Shape" fill="url(#linearGradient-6)"></path>
                            <path d="M4.1056439,1.24817915 C4.37935349,0.976260019 4.78672228,1.39028063 4.50467636,1.66890002 L3.35981999,2.8073869 L3.98087678,5.37693893 L3.55766895,5.79710145 L2.50479012,3.67144204 L1.64837087,4.52265501 L1.7242315,5.18095615 L1.38966667,5.51345685 L1.00313871,4.7649813 L0.262594483,4.36910725 L0.59771506,4.03604819 L1.2482269,4.11589302 L2.10464615,3.26440088 L0,2.18314544 L0.423485705,1.76242457 L2.95217332,2.39336629 L4.1056439,1.24817915 Z" id="Path" fill="url(#linearGradient-7)"></path>
                        </g>
                    </g>
                </g>
            </g>
        </g>
        <g id="1st"></g>
    </g>
</svg>