<?xml version="1.0" encoding="UTF-8"?>
<svg width="30px" height="31px" viewBox="0 0 30 31" version="1.1" xmlns="http://www.w3.org/2000/svg" xmlns:xlink="http://www.w3.org/1999/xlink">
    <!-- Generator: sketchtool 58 (101010) - https://sketch.com -->
    <title>DD5C3385-9D39-4DD4-A335-17F651CC5B02</title>
    <desc>Created with sketchtool.</desc>
    <g id="Dashboard" stroke="none" stroke-width="1" fill="none" fill-rule="evenodd">
        <g id="Know-your-expert" transform="translate(-27.000000, -322.000000)">
            <g id="Group-9" transform="translate(27.000000, 322.714286)">
                <circle id="Oval-Copy-5" fill="#FFFFFF" cx="15" cy="15" r="15"></circle>
                <g id="telemarketer-copy" transform="translate(5.000000, 5.000000)" fill-rule="nonzero">
                    <path d="M9.71519913,14.8865267 C6.84902339,14.8865267 4.5169916,12.5548789 4.5169916,9.68831913 C4.5169916,6.82175939 6.84902339,4.4904956 9.71519913,4.4904956 C12.5813749,4.4904956 14.9134067,6.82214339 14.9134067,9.68831913 C14.9134067,12.5544949 12.5813749,14.8865267 9.71519913,14.8865267 Z" id="Path" fill-opacity="0.56" fill="#F0806D" opacity="0.5"></path>
                    <path d="M19.4035183,6.88089538 L17.8844144,6.88089538 C17.7223664,3.05932773 14.5628147,0 10.701695,0 L8.72870322,0 C4.86758356,0 1.70803185,3.05932773 1.54598386,6.88089538 L0.0268799976,6.88089538 L0.0268799976,12.4957429 L3.66835167,12.4957429 L3.66835167,12.4876789 C4.72819158,14.7674867 7.03987137,16.3526385 9.71519913,16.3526385 C12.3905269,16.3526385 14.7022067,14.7678707 15.7620466,12.4876789 L15.7620466,12.4957429 L17.2742385,12.4957429 L17.2742385,18.2104304 L11.689727,18.2104304 L11.689727,17.3775344 L7.74067131,17.3775344 L7.74067131,19.6607982 L11.689727,19.6607982 L11.689727,18.8279023 L17.8917104,18.8279023 L17.8917104,12.4957429 L19.4035183,12.4957429 L19.4035183,6.88089538 Z M11.070719,19.0433263 L8.35814325,19.0433263 L8.35814325,17.9950064 L11.072255,17.9950064 L11.070719,19.0433263 Z M8.72831922,0.617471945 L10.701695,0.617471945 C14.2222067,0.617471945 17.1048945,3.3999357 17.2680945,6.88089538 L15.7620466,6.88089538 L15.7620466,6.88895938 C14.7022067,4.60799959 12.3905269,3.02399973 9.71519913,3.02399973 C7.03987137,3.02399973 4.72819158,4.60799959 3.66835167,6.88895938 L3.66835167,6.88089538 L2.16383981,6.88089538 C2.32550379,3.3999357 5.20819153,0.617471945 8.72870322,0.617471945 L8.72831922,0.617471945 Z M3.05087973,11.8782709 L0.644351942,11.8782709 L0.644351942,7.49836733 L3.05087973,7.49836733 L3.05087973,11.8782709 Z M9.71519913,15.7351666 C6.38092743,15.7351666 3.66835167,13.0225908 3.66835167,9.68831913 C3.66835167,6.35404743 6.38092743,3.64147167 9.71519913,3.64147167 C13.0494708,3.64147167 15.7620466,6.35404743 15.7620466,9.68831913 C15.7620466,13.0225908 13.0494708,15.7351666 9.71519913,15.7351666 Z M18.7860463,11.8782709 L16.3795185,11.8782709 L16.3795185,7.49836733 L18.7860463,7.49836733 L18.7860463,11.8782709 Z" id="Shape" fill="#005263"></path>
                </g>
            </g>
        </g>
    </g>
</svg>