<?xml version="1.0" encoding="UTF-8"?>
<svg width="30px" height="30px" viewBox="0 0 30 30" version="1.1" xmlns="http://www.w3.org/2000/svg" xmlns:xlink="http://www.w3.org/1999/xlink">
    <!-- Generator: Sketch 58 (84663) - https://sketch.com -->
    <title>Group 8</title>
    <desc>Created with Sketch.</desc>
    <g id="Dashboard" stroke="none" stroke-width="1" fill="none" fill-rule="evenodd">
        <g id="Client-signoff" transform="translate(-27.000000, -732.000000)">
            <g id="Group-8" transform="translate(27.000000, 732.000000)">
                <circle id="Oval-Copy-10" fill="#FFFFFF" cx="15" cy="15" r="15"></circle>
                <g id="chat" transform="translate(5.000000, 7.000000)" fill-rule="nonzero">
                    <path d="M19.8,1.8 L6.84,1.8 C6.444,1.8 6.12,2.124 6.12,2.52 L6.12,6.12 L14.04,6.12 C14.436,6.12 14.76,6.444 14.76,6.84 L14.76,11.88 L16.2,11.88 L19.08,14.76 L19.08,11.88 L19.8,11.88 C20.196,11.88 20.52,11.556 20.52,11.16 L20.52,2.52 C20.52,2.124 20.196,1.8 19.8,1.8 Z" id="Path" fill="#F6B8AD"></path>
                    <g id="Group" fill="#005263">
                        <path d="M1.08,15.12 L1.44,15.12 L1.44,17.64 C1.44,17.784 1.512,17.928 1.656,17.964 C1.692,18 1.764,18 1.8,18 C1.908,18 1.98,17.964 2.052,17.892 L4.824,15.12 L14.04,15.12 C14.652,15.12 15.12,14.652 15.12,14.04 L15.12,10.8 L16.056,10.8 L18.828,13.572 C18.9,13.644 18.972,13.68 19.08,13.68 C19.116,13.68 19.188,13.68 19.224,13.644 C19.368,13.572 19.44,13.464 19.44,13.32 L19.44,10.8 L19.8,10.8 C20.412,10.8 20.88,10.332 20.88,9.72 L20.88,1.08 C20.88,0.468 20.412,0 19.8,0 L6.84,0 C6.228,0 5.76,0.468 5.76,1.08 L5.76,4.32 L1.08,4.32 C0.468,4.32 0,4.788 0,5.4 L0,14.04 C0,14.652 0.468,15.12 1.08,15.12 Z M6.48,1.08 C6.48,0.864 6.624,0.72 6.84,0.72 L19.8,0.72 C20.016,0.72 20.16,0.864 20.16,1.08 L20.16,9.72 C20.16,9.936 20.016,10.08 19.8,10.08 L19.08,10.08 C18.864,10.08 18.72,10.224 18.72,10.44 L18.72,12.456 L16.452,10.188 C16.38,10.116 16.308,10.08 16.2,10.08 L15.12,10.08 L15.12,5.4 C15.12,4.788 14.652,4.32 14.04,4.32 L6.48,4.32 L6.48,1.08 Z M0.72,5.4 C0.72,5.184 0.864,5.04 1.08,5.04 L6.12,5.04 L14.04,5.04 C14.256,5.04 14.4,5.184 14.4,5.4 L14.4,10.44 L14.4,14.04 C14.4,14.256 14.256,14.4 14.04,14.4 L4.68,14.4 C4.572,14.4 4.5,14.436 4.428,14.508 L2.16,16.776 L2.16,14.76 C2.16,14.544 2.016,14.4 1.8,14.4 L1.08,14.4 C0.864,14.4 0.72,14.256 0.72,14.04 L0.72,5.4 Z" id="Shape"></path>
                        <path d="M3.24,7.92 L9,7.92 C9.216,7.92 9.36,7.776 9.36,7.56 C9.36,7.344 9.216,7.2 9,7.2 L3.24,7.2 C3.024,7.2 2.88,7.344 2.88,7.56 C2.88,7.776 3.024,7.92 3.24,7.92 Z" id="Path"></path>
                        <path d="M10.44,7.92 L11.88,7.92 C12.096,7.92 12.24,7.776 12.24,7.56 C12.24,7.344 12.096,7.2 11.88,7.2 L10.44,7.2 C10.224,7.2 10.08,7.344 10.08,7.56 C10.08,7.776 10.224,7.92 10.44,7.92 Z" id="Path"></path>
                        <path d="M3.24,9.36 L6.12,9.36 C6.336,9.36 6.48,9.216 6.48,9 C6.48,8.784 6.336,8.64 6.12,8.64 L3.24,8.64 C3.024,8.64 2.88,8.784 2.88,9 C2.88,9.216 3.024,9.36 3.24,9.36 Z" id="Path"></path>
                        <path d="M11.88,8.64 L7.56,8.64 C7.344,8.64 7.2,8.784 7.2,9 C7.2,9.216 7.344,9.36 7.56,9.36 L11.88,9.36 C12.096,9.36 12.24,9.216 12.24,9 C12.24,8.784 12.096,8.64 11.88,8.64 Z" id="Path"></path>
                        <path d="M3.24,10.8 L11.88,10.8 C12.096,10.8 12.24,10.656 12.24,10.44 C12.24,10.224 12.096,10.08 11.88,10.08 L3.24,10.08 C3.024,10.08 2.88,10.224 2.88,10.44 C2.88,10.656 3.024,10.8 3.24,10.8 Z" id="Path"></path>
                        <path d="M3.24,12.24 L4.68,12.24 C4.896,12.24 5.04,12.096 5.04,11.88 C5.04,11.664 4.896,11.52 4.68,11.52 L3.24,11.52 C3.024,11.52 2.88,11.664 2.88,11.88 C2.88,12.096 3.024,12.24 3.24,12.24 Z" id="Path"></path>
                        <path d="M11.88,11.52 L6.12,11.52 C5.904,11.52 5.76,11.664 5.76,11.88 C5.76,12.096 5.904,12.24 6.12,12.24 L11.88,12.24 C12.096,12.24 12.24,12.096 12.24,11.88 C12.24,11.664 12.096,11.52 11.88,11.52 Z" id="Path"></path>
                        <path d="M15.12,3.24 C15.12,3.024 14.976,2.88 14.76,2.88 L9,2.88 C8.784,2.88 8.64,3.024 8.64,3.24 C8.64,3.456 8.784,3.6 9,3.6 L14.76,3.6 C14.976,3.6 15.12,3.456 15.12,3.24 Z" id="Path"></path>
                        <path d="M16.2,3.6 L17.64,3.6 C17.856,3.6 18,3.456 18,3.24 C18,3.024 17.856,2.88 17.64,2.88 L16.2,2.88 C15.984,2.88 15.84,3.024 15.84,3.24 C15.84,3.456 15.984,3.6 16.2,3.6 Z" id="Path"></path>
                        <path d="M16.2,5.04 L17.64,5.04 C17.856,5.04 18,4.896 18,4.68 C18,4.464 17.856,4.32 17.64,4.32 L16.2,4.32 C15.984,4.32 15.84,4.464 15.84,4.68 C15.84,4.896 15.984,5.04 16.2,5.04 Z" id="Path"></path>
                        <path d="M16.2,6.48 L17.64,6.48 C17.856,6.48 18,6.336 18,6.12 C18,5.904 17.856,5.76 17.64,5.76 L16.2,5.76 C15.984,5.76 15.84,5.904 15.84,6.12 C15.84,6.336 15.984,6.48 16.2,6.48 Z" id="Path"></path>
                        <path d="M16.2,7.92 L17.64,7.92 C17.856,7.92 18,7.776 18,7.56 C18,7.344 17.856,7.2 17.64,7.2 L16.2,7.2 C15.984,7.2 15.84,7.344 15.84,7.56 C15.84,7.776 15.984,7.92 16.2,7.92 Z" id="Path"></path>
                    </g>
                </g>
            </g>
        </g>
    </g>
</svg>