<?xml version="1.0" encoding="UTF-8"?>
<svg width="32px" height="32px" viewBox="0 0 32 32" version="1.1" xmlns="http://www.w3.org/2000/svg" xmlns:xlink="http://www.w3.org/1999/xlink">
    <!-- Generator: sketchtool 58 (101010) - https://sketch.com -->
    <title>AA6BF634-8BFB-4D3E-AA5B-00DDA73ED6EE</title>
    <desc>Created with sketchtool.</desc>
    <g id="Dashboard" stroke="none" stroke-width="1" fill="none" fill-rule="evenodd">
        <g id="Know-your-expert" transform="translate(-26.000000, -158.000000)">
            <g id="Group-11" transform="translate(27.000000, 159.000000)">
                <circle id="Oval" stroke="" stroke-width="1.5" fill="#FFFFFF" cx="15" cy="15" r="15"></circle>
                <g id="Group" transform="translate(8.000000, 5.000000)" fill="#005263" fill-rule="nonzero">
                    <path d="M16.4297966,3.46679991 L14.8745966,2.68919993 C14.7773966,1.91159995 14.0969966,1.29599997 13.2869966,1.29599997 L5.80259685,1.29599997 C5.64059685,0.550799985 4.99259687,-7.10542736e-15 4.21499689,-7.10542736e-15 L2.91899692,-7.10542736e-15 C2.14139694,-7.10542736e-15 1.46099696,0.583199985 1.33139696,1.32839996 C0.586196984,1.45799996 0.00299699992,2.13839994 0.00299699992,2.91599992 L0.00299699992,17.1719995 C0.00299699992,18.0791995 0.715796981,18.7919995 1.62299696,18.7919995 L13.2869966,18.7919995 C14.1617966,18.7919995 14.9069966,18.1115995 14.9069966,17.2367995 L14.9069966,17.2367995 L17.3045965,5.24879986 C17.4341965,4.53599988 17.0777965,3.7907999 16.4297966,3.46679991 Z M2.91899692,0.647999983 L4.21499689,0.647999983 C4.63619688,0.647999983 4.99259687,0.907199976 5.12219686,1.29599997 L2.01179695,1.29599997 C2.14139694,0.907199976 2.49779693,0.647999983 2.91899692,0.647999983 Z M14.2589966,17.1719995 C14.2589966,17.7227995 13.8377966,18.1439995 13.2869966,18.1439995 L9.72299674,18.1439995 L9.72299674,17.1719995 C9.72299674,16.9775996 9.59339675,16.8479996 9.39899675,16.8479996 C9.20459676,16.8479996 9.07499676,16.9775996 9.07499676,17.1719995 L9.07499676,18.1439995 L8.42699678,18.1439995 L8.42699678,15.8759996 C8.42699678,15.6815996 8.29739678,15.5519996 8.10299679,15.5519996 C7.90859679,15.5519996 7.77899679,15.6815996 7.77899679,15.8759996 L7.77899679,18.1439995 L7.13099681,18.1439995 L7.13099681,17.1719995 C7.13099681,16.9775996 7.00139681,16.8479996 6.80699682,16.8479996 C6.61259682,16.8479996 6.48299683,16.9775996 6.48299683,17.1719995 L6.48299683,18.1439995 L3.24299691,18.1439995 L3.24299691,17.1719995 C3.24299691,16.9775996 3.11339692,16.8479996 2.91899692,16.8479996 C2.72459693,16.8479996 2.59499693,16.9775996 2.59499693,17.1719995 L2.59499693,18.1439995 L1.62299696,18.1439995 C1.07219697,18.1439995 0.650996983,17.7227995 0.650996983,17.1719995 L0.650996983,2.91599992 C0.650996983,2.36519994 1.07219697,1.94399995 1.62299696,1.94399995 L5.18699686,1.94399995 L5.18699686,8.09999979 C5.18699686,8.65079977 4.76579687,9.07199976 4.21499689,9.07199976 C3.6641969,9.07199976 3.24299691,8.65079977 3.24299691,8.09999979 L3.24299691,2.91599992 C3.24299691,2.72159993 3.11339692,2.59199993 2.91899692,2.59199993 C2.72459693,2.59199993 2.59499693,2.72159993 2.59499693,2.91599992 L2.59499693,8.09999979 C2.59499693,9.00719976 3.30779691,9.71999974 4.21499689,9.71999974 C5.12219686,9.71999974 5.83499685,9.00719976 5.83499685,8.09999979 L5.83499685,1.94399995 L13.2869966,1.94399995 C13.8377966,1.94399995 14.2589966,2.36519994 14.2589966,2.91599992 L14.2589966,17.1719995 Z M16.6565966,5.11919986 L14.9069966,13.8995996 L14.9069966,3.43439991 L16.1381966,4.04999989 C16.5269966,4.24439989 16.7537966,4.69799988 16.6565966,5.11919986 Z" id="Shape"></path>
                    <path d="M11.9909967,3.8879999 L8.10299679,3.8879999 C7.90859679,3.8879999 7.77899679,4.01759989 7.77899679,4.21199989 C7.77899679,4.40639988 7.90859679,4.53599988 8.10299679,4.53599988 L11.9909967,4.53599988 C12.1853967,4.53599988 12.3149967,4.40639988 12.3149967,4.21199989 C12.3149967,4.01759989 12.1853967,3.8879999 11.9909967,3.8879999 Z" id="Path"></path>
                    <path d="M11.9909967,6.47999983 L8.10299679,6.47999983 C7.90859679,6.47999983 7.77899679,6.60959982 7.77899679,6.80399982 C7.77899679,6.99839981 7.90859679,7.12799981 8.10299679,7.12799981 L11.9909967,7.12799981 C12.1853967,7.12799981 12.3149967,6.99839981 12.3149967,6.80399982 C12.3149967,6.60959982 12.1853967,6.47999983 11.9909967,6.47999983 Z" id="Path"></path>
                    <path d="M8.10299679,9.71999974 L9.39899675,9.71999974 C9.59339675,9.71999974 9.72299674,9.59039975 9.72299674,9.39599975 C9.72299674,9.20159976 9.59339675,9.07199976 9.39899675,9.07199976 L8.10299679,9.07199976 C7.90859679,9.07199976 7.77899679,9.20159976 7.77899679,9.39599975 C7.77899679,9.59039975 7.90859679,9.71999974 8.10299679,9.71999974 Z" id="Path"></path>
                    <path d="M11.9909967,9.07199976 L10.6949967,9.07199976 C10.5005967,9.07199976 10.3709967,9.20159976 10.3709967,9.39599975 C10.3709967,9.59039975 10.5005967,9.71999974 10.6949967,9.71999974 L11.9909967,9.71999974 C12.1853967,9.71999974 12.3149967,9.59039975 12.3149967,9.39599975 C12.3149967,9.20159976 12.1853967,9.07199976 11.9909967,9.07199976 Z" id="Path"></path>
                    <path d="M6.80699682,12.9599997 L2.91899692,12.9599997 C2.72459693,12.9599997 2.59499693,13.0895997 2.59499693,13.2839996 C2.59499693,13.4783996 2.72459693,13.6079996 2.91899692,13.6079996 L6.80699682,13.6079996 C7.00139681,13.6079996 7.13099681,13.4783996 7.13099681,13.2839996 C7.13099681,13.0895997 7.00139681,12.9599997 6.80699682,12.9599997 Z" id="Path"></path>
                    <path d="M11.9909967,12.9599997 L8.10299679,12.9599997 C7.90859679,12.9599997 7.77899679,13.0895997 7.77899679,13.2839996 C7.77899679,13.4783996 7.90859679,13.6079996 8.10299679,13.6079996 L11.9909967,13.6079996 C12.1853967,13.6079996 12.3149967,13.4783996 12.3149967,13.2839996 C12.3149967,13.0895997 12.1853967,12.9599997 11.9909967,12.9599997 Z" id="Path"></path>
                    <path d="M11.9909967,7.77599979 L8.10299679,7.77599979 C7.90859679,7.77599979 7.77899679,7.90559979 7.77899679,8.09999979 C7.77899679,8.29439978 7.90859679,8.42399978 8.10299679,8.42399978 L11.9909967,8.42399978 C12.1853967,8.42399978 12.3149967,8.29439978 12.3149967,8.09999979 C12.3149967,7.90559979 12.1853967,7.77599979 11.9909967,7.77599979 Z" id="Path"></path>
                    <path d="M9.72299674,11.9879997 C9.72299674,11.7935997 9.59339675,11.6639997 9.39899675,11.6639997 L2.91899692,11.6639997 C2.72459693,11.6639997 2.59499693,11.7935997 2.59499693,11.9879997 C2.59499693,12.1823997 2.72459693,12.3119997 2.91899692,12.3119997 L9.39899675,12.3119997 C9.59339675,12.3119997 9.72299674,12.1823997 9.72299674,11.9879997 Z" id="Path"></path>
                    <path d="M11.9909967,11.6639997 L10.6949967,11.6639997 C10.5005967,11.6639997 10.3709967,11.7935997 10.3709967,11.9879997 C10.3709967,12.1823997 10.5005967,12.3119997 10.6949967,12.3119997 L11.9909967,12.3119997 C12.1853967,12.3119997 12.3149967,12.1823997 12.3149967,11.9879997 C12.3149967,11.7935997 12.1853967,11.6639997 11.9909967,11.6639997 Z" id="Path"></path>
                    <path d="M8.10299679,5.83199985 L9.39899675,5.83199985 C9.59339675,5.83199985 9.72299674,5.70239985 9.72299674,5.50799985 C9.72299674,5.31359986 9.59339675,5.18399986 9.39899675,5.18399986 L8.10299679,5.18399986 C7.90859679,5.18399986 7.77899679,5.31359986 7.77899679,5.50799985 C7.77899679,5.70239985 7.90859679,5.83199985 8.10299679,5.83199985 Z" id="Path"></path>
                    <path d="M11.9909967,5.18399986 L10.6949967,5.18399986 C10.5005967,5.18399986 10.3709967,5.31359986 10.3709967,5.50799985 C10.3709967,5.70239985 10.5005967,5.83199985 10.6949967,5.83199985 L11.9909967,5.83199985 C12.1853967,5.83199985 12.3149967,5.70239985 12.3149967,5.50799985 C12.3149967,5.31359986 12.1853967,5.18399986 11.9909967,5.18399986 Z" id="Path"></path>
                    <path d="M11.9909967,10.3679997 L8.10299679,10.3679997 C7.90859679,10.3679997 7.77899679,10.4975997 7.77899679,10.6919997 C7.77899679,10.8863997 7.90859679,11.0159997 8.10299679,11.0159997 L11.9909967,11.0159997 C12.1853967,11.0159997 12.3149967,10.8863997 12.3149967,10.6919997 C12.3149967,10.4975997 12.1853967,10.3679997 11.9909967,10.3679997 Z" id="Path"></path>
                </g>
            </g>
        </g>
    </g>
</svg>