<svg width="34" height="35" viewBox="0 0 34 35" fill="none" xmlns="http://www.w3.org/2000/svg">
<g clip-path="url(#clip0_125_621)">
<path d="M33.0703 30.5566H1.0625C0.444922 30.7617 0 31.2197 0 31.7871V33.9746C0 34.542 0.444922 35 0.996094 35H33.0039C33.5551 35 34 34.542 34 33.9746V31.7871C34 31.2197 33.5551 30.7617 33.0703 30.5566Z" fill="#042b62"/>
<path d="M33.3824 6.91113L17.3785 0.0751953C17.1328 -0.0273438 16.8605 -0.0273438 16.6148 0.0751953L0.610937 6.91113C0.239062 7.0752 0 7.44434 0 7.86133V9.91211C0 10.4795 0.444922 10.9375 0.996094 10.9375H33.0039C33.5551 10.9375 34 10.4795 34 9.91211V7.86133C34 7.44434 33.7609 7.0752 33.3824 6.91113ZM22.9766 7.86133H11.0234C10.4723 7.86133 10.0273 7.40332 10.0273 6.83594C10.0273 6.26855 10.4723 5.81055 11.0234 5.81055H22.9766C23.5277 5.81055 23.9727 6.26855 23.9727 6.83594C23.9727 7.40332 23.5277 7.86133 22.9766 7.86133Z" fill="#042b62"/>
<path d="M1.89258 26.6602V28.7109H9.5293V26.6602C9.5293 26.0928 9.08437 25.6348 8.5332 25.6348H2.88867C2.3375 25.6348 1.89258 26.0928 1.89258 26.6602Z" fill="#042b62"/>
<path d="M3.2207 12.9883H8.20117V23.584H3.2207V12.9883Z" fill="#042b62"/>
<path d="M25.7988 12.9883H30.7793V23.584H25.7988V12.9883Z" fill="#042b62"/>
<path d="M24.4707 26.6602V28.7109H32.1074V26.6602C32.1074 26.0928 31.6625 25.6348 31.1113 25.6348H25.4668C24.9156 25.6348 24.4707 26.0928 24.4707 26.6602Z" fill="#042b62"/>
<path d="M20.5528 14.458H13.0489V15.9961H15.6918C16.6614 15.9961 17.4915 16.6387 17.7969 17.5342H13.0422V19.0723H17.7969C17.4915 19.9678 16.6614 20.6104 15.6918 20.6104H13.0489V22.1484L17.4184 26.6396L18.4743 25.5527L15.1606 22.1416H15.6985C17.4981 22.1416 19.0055 20.8223 19.3508 19.0723H20.5528V17.5342H19.3508C19.2379 16.9668 19.0055 16.4473 18.6801 15.9961H20.5594V14.458H20.5528Z" fill="#042b62"/>
</g>
<defs>
<clipPath id="clip0_125_621">
<rect width="34" height="35" fill="white"/>
</clipPath>
</defs>
</svg>
