<?xml version="1.0" encoding="UTF-8"?>
<svg  width="512px" height="512px" id="Layer_1" xmlns="http://www.w3.org/2000/svg" viewBox="0 0 1080 1080">
  <defs>
    <style>
      .cls-1 {
        fill: #042b62;
        isolation: isolate;
      }

      .cls-2 {
        fill: #fefefe;
      }
    </style>
  </defs>
  <path d="M875.84,674.31c-.02-37.89-23.06-60.91-60.97-60.92-91.56-.01-183.11,0-274.67,0s-185.45-.04-278.18.02c-33.83.03-57.95,24.01-58.09,57.62-.11,25.96.16,51.91-.1,77.86-.12,11.98,4.43,21.21,13.46,28.92,63.16,53.97,126.24,108.02,189.23,162.17,7.45,6.4,15.52,9.5,25.42,9.47,72.03-.18,144.05-.17,216.07,0,9.56.02,17.49-2.83,24.71-9.03,63.24-54.32,126.55-108.56,189.91-162.74,9.02-7.71,13.43-17.05,13.3-29.02-.28-24.78-.07-49.56-.09-74.35ZM764.87,787.71c-39.58,33.94-79.23,67.82-118.73,101.87-3.37,2.9-6.69,3.86-10.99,3.85-63.53-.1-127.07-.07-190.61-.05-3.5,0-6.61-.11-9.65-2.74-41.47-35.77-83.08-71.39-124.63-107.06-.35-.3-.47-.85-.7-1.3,9.01-1.33,428.43-1.93,461.66-.62-2.52,2.42-4.35,4.33-6.35,6.05ZM820.02,717.48c.29,6.56-1.5,8.08-8.05,8.06-93.02-.24-186.05-.16-279.08-.16-88.06,0-176.13-.1-264.2.18-7.22.02-9.36-1.56-8.98-8.93.68-13.08.6-26.25.02-39.35-.29-6.56,1.5-8.08,8.05-8.06,90.69.24,181.39.16,272.08.16s180.8.1,271.2-.18c7.22-.02,9.37,1.56,8.98,8.93-.68,13.08-.59,26.25-.02,39.35Z"/>
  <path class="cls-1" d="M539.58,165.44c93.08.14,168.53,76.2,168.28,169.65-.25,93.09-76.26,168.29-169.86,168.06-92.94-.23-168.07-76.37-167.85-170.08.22-92.45,76.35-167.76,169.43-167.62Z"/>
  <path class="cls-2" d="M560.26,319.27c-27.87,0-54.97-.21-82.06.15-6.47.09-8.43-1.54-8.34-8.21.28-20.29-.03-20.3,20.63-20.3,21.28,0,42.56-.21,63.84.11,6.82.1,6.63-2.1,3.77-6.85-8.7-14.45-21.53-21.78-38.24-22.11-14.28-.28-28.57-.25-42.85.02-5.09.09-7.04-1.13-7.13-6.72-.35-21.68-.56-21.67,20.88-21.67,38.19,0,76.37.17,114.56-.16,6.58-.06,8.29,1.69,8.2,8.22-.27,20.24.02,20.25-20.56,20.25-4.54,0-9.07,0-14.83,0,5.25,8.9,9.59,16.74,11.72,25.52,1.1,4.53,4.85,3.3,7.86,3.37q15.64.34,15.63,16.32c0,1.46-.19,2.94.03,4.37.93,6.05-1.4,8.75-7.61,7.71-.57-.1-1.18.08-1.74-.03-9.33-1.67-13.61,1.8-17.27,11.24-10.87,28.05-32.24,43.34-62.55,45.41-3.7.25-7.44.03-11.5.03-.07,3.83,2.57,5.06,4.23,6.73,17.26,17.37,34.47,34.79,52,51.88,4.08,3.98,4.12,6.18.04,10.24-15.18,15.13-15.02,15.29-29.92.39-20.2-20.2-40.18-40.62-60.73-60.46-6.13-5.92-8.83-11.89-8.49-20.46.66-16.63.19-16.64,17.26-16.65,11.95,0,23.91.21,35.85-.11,16.87-.45,31.33-11.27,37.29-28.24Z"/>
</svg>