<?xml version="1.0" encoding="UTF-8"?>
<svg id="Layer_1" xmlns="http://www.w3.org/2000/svg" viewBox="0 0 1080 1080">
  <defs>
    <style>
      .cls-1 {
        fill: #010101;
      }

      .cls-2 {
        fill: #042b62;
      }
    </style>
  </defs>
  <path d="M528.53,53c1.67,2.75,4.82,1.91,7.22,2.82,22.54,8.59,35.55,24.54,38.05,48.66,1.15,11.09,2.72,12.74,13.86,12.81,6.89.04,13.79-.09,20.68.04,24.31.45,44.16,13.81,52.58,36.44,2.04,5.47,4.61,6.46,9.67,6.45,41.37-.15,82.73-.11,124.1-.08,33.73.02,50.35,16.54,50.36,50,0,31.77,0,63.55,0,95.32,0,2.1.08,4.2-.02,6.29-.44,8.86-6,14.73-13.74,14.6-7.73-.13-13.14-6.03-13.17-15.04-.1-33.57-.04-67.14-.05-100.72,0-18.79-4.6-23.44-23.17-23.48-1.5,0-3.03.2-4.49-.03-7.64-1.25-10.06,1.29-10,9.54.41,62.95.22,125.9.22,188.84,0,3,.14,6.01-.15,8.99-.71,7.37-5.3,11.49-12.27,12.06-6.61.54-11.33-2.89-13.67-9.37-1.27-3.53-.86-7.11-.86-10.67-.04-63.55-.13-127.1.13-190.64.03-6.86-1.47-9.05-8.7-8.9-24.27.5-48.56.37-72.83.06-5.78-.07-7.44,1.39-7.55,7.35-.39,22.18-14.07,35.61-36.3,35.65-84.23.14-168.46.14-252.69,0-22.98-.04-35.58-12.77-36.25-36.37-.15-5.12-1.54-6.65-6.64-6.6-25.48.22-50.96.23-76.44,0-5.17-.05-6.7,1.57-6.52,6.64.36,10.18.11,20.38.11,30.57,0,211.63,0,423.25,0,634.88q0,15.05,14.93,15.06c58.45,0,116.9-.09,175.36.14,6.15.02,10-1.41,12.29-7.38,28.15-73.53,79.51-131.53,127.88-191.62,89.41-111.07,178.42-222.48,267.62-333.72,18.51-23.08,45.28-30.05,69.45-18.24,31.97,15.64,40.86,55.82,18.18,84.69-25.72,32.74-51.99,65.06-78.03,97.55-90.66,113.14-181.37,226.25-271.94,339.46-8.72,10.9-20.77,17.9-30.56,27.39.73,3.01,2.99,1.65,4.41,1.65,60.85.08,121.7.09,182.55.06,10.88,0,11.51-.7,11.51-11.95.02-62.95,0-125.9.03-188.84,0-3.57-.39-7.17.98-10.66,2.51-6.39,7.13-9.57,13.92-8.91,6.78.66,10.83,4.66,11.84,11.42.35,2.35.21,4.79.21,7.18,0,63.55.02,127.1,0,190.64-.01,25.45-12.62,38.1-37.98,38.11-71.34.02-142.68.08-214.02-.12-6.38-.02-11.49,1.34-16.27,5.64-6,5.4-12.34,10.48-18.88,15.21-18.51,13.4-42.09,6.47-49.69-15.08-2.14-6.08-5.6-5.67-10.1-5.67-57.25.04-114.51.04-171.76.02-26.37,0-38.9-12.65-38.9-39.24,0-221.52-.07-443.04.23-664.55.01-8.99-2.5-11.57-10.85-10.31-4.12.62-8.41.01-12.55.55-7.77,1-12.35,5.69-13.48,13.41-.48,3.24-.44,6.57-.44,9.86-.02,237.4-.02,474.81-.01,712.21,0,19.47,4.34,23.82,23.68,23.82,195.14,0,390.28,0,585.42,0,18.22,0,23.06-4.75,23.06-22.68,0-110.31,0-220.62.01-330.93,0-2.99-.36-6.1.31-8.96,1.53-6.57,6.02-10.47,12.76-10.6,7.16-.14,11.88,3.83,13.53,10.77.68,2.85.36,5.96.36,8.96.01,110.61.02,221.22,0,331.83,0,31.5-17.29,48.59-49.06,48.59-196.04,0-392.08,0-588.12,0-31.78,0-48.91-16.97-48.91-48.69-.03-238.9-.03-477.81,0-716.71,0-31.22,17.07-48.23,48.37-48.3,41.67-.09,83.33-.12,125,.09,5.7.03,8.67-1.08,11.05-7.09,8.6-21.67,25.12-33.75,48.39-35.78,9.23-.8,18.57-.31,27.86-.41,5.84-.07,9.4-2.22,10.13-8.77,3.41-30.53,16.29-45.74,45.23-54.12.52-.15.92-.71,1.37-1.07,17.39,0,34.77,0,52.16,0Z"/>
  <path class="cls-1" d="M587.32,367.3c30.26,0,60.51-.03,90.77.02,10.72.02,16.86,4.74,17.15,12.87.31,8.49-6.25,14.05-17.13,14.06-61.11.06-122.22,0-183.33.07-7.12,0-13.39-1.62-16.12-8.81-2.03-5.35-1.01-10.62,3.46-14.81,3.62-3.4,8.1-3.41,12.63-3.41,30.86.01,61.71,0,92.57,0Z"/>
  <path class="cls-1" d="M585.92,334.02c-31.15,0-62.31.08-93.46-.05-9.03-.04-14.19-4.76-14.58-12.45-.41-8.12,4.8-13.61,13.82-14.4,2.38-.21,4.79-.07,7.19-.07,53.62,0,107.24,0,160.87,0,6.29,0,12.58-.09,18.87.03,10.29.2,16.65,5.5,16.63,13.68-.02,8.2-6.23,13.23-16.76,13.25-30.85.06-61.71.02-92.57.02Z"/>
  <path class="cls-1" d="M586.06,500.06c31.45,0,62.9-.09,94.36.07,9,.05,14.88,5.72,14.83,13.37-.05,7.31-5.57,12.63-14.08,13.4-2.68.24-5.39.13-8.08.13-39.84,0-79.68,0-119.52,0-18.27,0-36.54,0-54.82-.01-2.69,0-5.41.09-8.07-.24-8.54-1.05-13.42-6.46-12.75-14.32.71-8.29,5.83-12.26,13.78-12.33,19.17-.18,38.34-.08,57.51-.09,12.28,0,24.56,0,36.84,0Z"/>
  <path d="M359.15,786.74c-6.27-.4-11.8-2.35-16.46-6.5-9.4-8.37-18.9-16.62-28.18-25.12-6.7-6.14-7.51-13.98-2.46-19.81,5.28-6.09,13.41-6.17,20.66.06,7.27,6.25,14.59,12.47,21.45,19.16,3.82,3.73,5.65,3.28,8.56-1,12.11-17.82,24.53-35.44,36.92-53.06,6.51-9.26,14.06-11.41,21.1-6.27,6.71,4.9,7.27,12.71,1.23,21.41-13.65,19.67-27.47,39.22-41.11,58.9-5.33,7.7-12.51,11.76-21.71,12.23Z"/>
  <path d="M359.52,592.38c-6.53-.47-12.1-2.32-16.77-6.48-9.4-8.36-18.91-16.62-28.19-25.12-6.7-6.13-7.55-14-2.57-19.83,5.2-6.07,13.46-6.19,20.68-.02,7.06,6.03,14.15,12.07,20.79,18.55,4.14,4.04,6.24,4.23,9.73-1,11.98-17.91,24.6-35.39,36.88-53.1,3.23-4.66,6.95-8.23,13.05-8.13,10.17.16,16.97,11.28,11.15,19.98-15.13,22.64-30.91,44.84-46.82,66.94-4.23,5.88-11.22,7.62-17.93,8.2Z"/>
  <path d="M358.7,394.92c-6.35.23-11.66-2.28-16.3-6.37-9.21-8.12-18.44-16.22-27.5-24.51-7.12-6.51-8-14.5-2.6-20.44,5.58-6.14,12.96-6.07,20.61.49,7.04,6.04,14.14,12.06,20.74,18.57,3.97,3.91,6.01,3.98,9.28-.89,11.19-16.63,22.85-32.93,34.34-49.35,1.37-1.96,2.64-4.01,4.13-5.87,5.36-6.72,12.58-8.22,18.88-4.01,6.6,4.4,8.1,12.25,2.98,19.69-14.41,20.95-29.11,41.69-43.71,62.51-.51.73-1.1,1.42-1.71,2.08-5.18,5.54-11.45,8.52-19.15,8.12Z"/>
  <path d="M539.33,586.94c-14.98,0-29.96.06-44.93-.02-10.64-.06-16.47-4.89-16.54-13.44-.07-8.66,5.57-13.47,16.33-13.49,29.66-.07,59.31-.07,88.97,0,10.56.02,16.73,5.04,16.79,13.28.06,8.25-6.29,13.59-16.58,13.65-14.68.09-29.36.02-44.04.02Z"/>
  <path class="cls-2" d="M568.29,822.03c-1.93-1.46-3.62-2.69-5.25-3.99-10.31-8.22-20.38-16.75-30.99-24.55-5.77-4.23-6.39-7.02-1.57-12.94,36.09-44.4,71.76-89.14,107.55-133.78,56.77-70.83,113.58-141.62,170.18-212.58,4.15-5.2,6.78-6.65,12.35-1.69,9.83,8.75,20.15,17.03,30.82,24.74,5.61,4.05,5.42,6.53,1.26,11.68-35.99,44.48-71.68,89.21-107.46,133.85-57.15,71.29-114.3,142.58-171.49,213.84-1.56,1.94-2.59,4.61-5.4,5.42Z"/>
  <path class="cls-2" d="M501.91,202.98c-41.06,0-82.12.02-123.19-.01-11.36,0-12.33-1.03-12.38-12.26-.02-5.39-.07-10.79.03-16.18.35-18.36,12.1-29.94,30.68-30.19,7.49-.1,14.99.1,22.48-.06,21.9-.47,35.74-13.8,37.1-35.59,1.05-16.78,13.01-28.41,29.7-28.66,10.49-.16,20.98-.17,31.47,0,16.09.27,27.63,11.1,29.18,27.1,2.44,25.19,15.32,37.06,40.38,37.18,6.89.03,13.79-.11,20.68.05,16.8.39,29.51,11.84,29.69,28.57.38,34.9,4.29,29.84-27.92,30.01-35.97.2-71.93.05-107.9.04Z"/>
  <path class="cls-2" d="M921.2,373.93c.24,5.97-2.18,11.95-6.43,17.26-12.16,15.19-24.46,30.27-36.44,45.59-2.78,3.56-4.64,4.24-8.34,1.16-11.5-9.57-23.18-18.94-35.03-28.08-3.36-2.59-3.82-4.25-1.04-7.65,12.89-15.75,25.32-31.88,38.33-47.53,7.95-9.57,20.51-12.27,31.81-7.8,10.45,4.13,17.15,14.33,17.13,27.05Z"/>
  <path class="cls-2" d="M548.33,841.47c-.2,2.2-1.98,3-3.32,4.09-21.86,17.75-43.73,35.48-65.62,53.18-2.57,2.08-5.29,4.55-8.67,1.51-3.12-2.8-1.73-5.9-.21-8.96,12.54-25.14,25.04-50.3,37.58-75.43,1.13-2.27,1.84-5.79,5.6-2.78,10.99,8.79,21.97,17.61,32.92,26.45.68.55,1.18,1.33,1.71,1.94Z"/>
</svg>