<?xml version="1.0" encoding="UTF-8"?>
<svg id="Layer_1" xmlns="http://www.w3.org/2000/svg" viewBox="0 0 1080 1080">
  <defs>
    <style>
      .cls-1 {
        fill: #042b62;
      }

      .cls-2 {
        fill: #fff;
      }
    </style>
  </defs>
  <path class="cls-1" d="M550.69,39.38h0c280.73,0,508.31,227.58,508.31,508.31h0c0,280.73-227.58,508.31-508.31,508.31h0c-280.73,0-508.31-227.58-508.31-508.31h0c0-280.73,227.58-508.31,508.31-508.31Z"/>
  <path class="cls-2" d="M822.82,565.67c9.92-9.93,9.92-26.02,0-35.95l-161.74-161.74c-9.93-9.93-26.02-9.93-35.94,0-9.93,9.93-9.93,26.02,0,35.94l143.77,143.77-143.77,143.77c-9.93,9.93-9.93,26.02,0,35.94,9.92,9.93,26.02,9.93,35.94,0l161.74-161.74ZM296.54,573.11h508.31v-50.83h-508.31v50.83Z"/>
</svg>