<?xml version="1.0" encoding="utf-8"?>
<!-- Generator: Adobe Illustrator 27.8.0, SVG Export Plug-In . SVG Version: 6.00 Build 0)  -->
<svg version="1.1" xmlns="http://www.w3.org/2000/svg" xmlns:xlink="http://www.w3.org/1999/xlink" x="0px" y="0px"
	 viewBox="0 0 512 512" style="enable-background:new 0 0 512 512;" xml:space="preserve">
<g id="Background_Complete">
	<g>
		<rect x="180.93" y="315.11" style="fill:#F5F5F5;" width="7.46" height="22.62"/>
		<polygon style="fill:#F5F5F5;" points="175.94,335.35 184.91,345.58 193.38,335.66 		"/>
	</g>
	<g>
		<g>
			<path style="fill:#E0E0E0;" d="M130.02,324.69l-23.89-8.71c-3.78-1.38-5.72-5.56-4.34-9.33l4.25-11.65
				c1.38-3.78,5.56-5.72,9.33-4.34l23.89,8.71c3.78,1.38,5.72,5.56,4.34,9.33l-4.25,11.65
				C137.97,324.12,133.79,326.07,130.02,324.69z"/>
		</g>
		<g style="opacity:0.3;">
			
				<rect x="104.35" y="300.31" transform="matrix(0.9394 0.3427 -0.3427 0.9394 111.4218 -24.2583)" style="fill:#FFFFFF;" width="39.99" height="5.65"/>
		</g>
		<g>
			<g>
				<path style="fill:#FFFFFF;" d="M117.93,313.86c-0.02,0.06-3.1-1.01-6.88-2.38c-3.78-1.38-6.82-2.54-6.8-2.61
					c0.02-0.06,3.1,1.01,6.88,2.38C114.9,312.64,117.95,313.8,117.93,313.86z"/>
			</g>
		</g>
		<g>
			<g>
				<path style="fill:#FFFFFF;" d="M121.25,313.7c-0.02,0.06-3.75-1.24-8.32-2.91c-4.57-1.67-8.26-3.07-8.24-3.13
					c0.02-0.06,3.75,1.24,8.32,2.91C117.58,312.24,121.27,313.64,121.25,313.7z"/>
			</g>
		</g>
	</g>
</g>
<g id="Background_Simple" style="display:none;">
	<path style="display:inline;fill:#F5F5F5;" d="M359.96,53.34l-0.58,1.08c-4.86,9.09-4.51,20.11,1.23,28.55
		c0.74,1.09,1.56,2.12,2.45,3.09c6.42,6.97,16.56,10.34,25.99,8.64c5.54-1,11.05-3.62,16.56-2.54c7.16,1.4,11.51,8.41,15,14.76
		c3.49,6.35,7.86,13.35,15.03,14.72c4.49,0.86,9.18-0.8,13-3.34c10.13-6.74,15.17-19.57,14.34-31.59
		c-0.83-12.02-6.87-23.18-14.92-32.12c-11.27-12.52-27.14-21.38-44.09-22.32C387.01,31.35,369.23,39.09,359.96,53.34z"/>
	<path style="display:inline;fill:#F5F5F5;" d="M32.41,275.31l0.15,0.99c1.25,8.31,6.84,15.34,14.71,18.06
		c1.01,0.35,2.05,0.63,3.1,0.82c7.59,1.42,15.86-1.31,21.19-7c3.14-3.35,5.46-7.75,9.58-9.72c5.36-2.57,11.61-0.11,16.99,2.34
		c5.38,2.45,11.64,4.9,16.99,2.3c3.35-1.63,5.61-4.99,6.87-8.52c3.34-9.34,0.39-20.18-6.01-27.63s-15.78-11.8-25.39-13.73
		c-13.46-2.69-28.15-0.76-39.68,6.89S31.52,261.47,32.41,275.31z"/>
	<path style="display:inline;fill:#F5F5F5;" d="M456.31,422.21l-0.18-0.67c-1.54-5.62-5.96-10-11.6-11.23
		c-0.72-0.16-1.46-0.26-2.2-0.31c-5.34-0.36-10.81,2.19-14.02,6.55c-1.89,2.56-3.13,5.78-5.8,7.48c-3.48,2.21-7.99,1.02-11.89-0.22
		c-3.9-1.25-8.41-2.42-11.88-0.2c-2.18,1.39-3.45,3.89-4.03,6.42c-1.54,6.7,1.38,13.92,6.39,18.53c5.01,4.61,11.83,6.84,18.6,7.38
		c9.49,0.75,19.44-1.77,26.76-7.98C453.76,441.74,458.04,431.66,456.31,422.21z"/>
	<circle style="display:inline;fill:#F5F5F5;" cx="85.53" cy="404.72" r="16.06"/>
	<circle style="display:inline;fill:#F5F5F5;" cx="451.67" cy="207.52" r="16.06"/>
	<circle style="display:inline;fill:#F5F5F5;" cx="224.26" cy="70.05" r="16.06"/>
</g>
<g id="Table">
</g>
<g id="Coin">
	<g>
		<g>
			<g>
				<g>
					<path style="fill:#042b62;" d="M434.81,316.69c-1.29,11.47-11.66,19.72-23.16,18.42c-11.5-1.3-19.77-11.64-18.47-23.11
						c1.29-11.47,11.66-19.72,23.16-18.42C427.84,294.87,436.11,305.22,434.81,316.69z"/>
				</g>
			</g>
		</g>
		<g style="opacity:0.3;">
			<g>
				<g>
					<g>
						<g>
							<path d="M429.92,314.34c-0.1-0.01-0.09-0.71-0.2-1.95c-0.13-1.24-0.41-3.04-1.28-5.07c-0.44-1.01-1.02-2.07-1.78-3.12
								c-0.77-1.04-1.7-2.06-2.83-2.97c-0.56-0.46-1.16-0.89-1.82-1.27c-0.65-0.39-1.33-0.75-2.06-1.04
								c-0.73-0.29-1.48-0.56-2.27-0.74c-0.79-0.19-1.6-0.32-2.43-0.39c-0.83-0.06-1.66-0.06-2.46-0.01
								c-0.81,0.06-1.6,0.19-2.36,0.36c-0.77,0.17-1.5,0.42-2.2,0.69c-0.7,0.27-1.37,0.6-2,0.96c-1.26,0.71-2.34,1.58-3.27,2.48
								c-0.92,0.91-1.66,1.86-2.25,2.79c-1.19,1.86-1.76,3.59-2.08,4.79c-0.32,1.21-0.42,1.9-0.52,1.9c-0.07,0-0.13-0.72,0.05-1.99
								c0.19-1.27,0.65-3.12,1.8-5.14c0.58-1.01,1.33-2.05,2.27-3.06c0.95-0.99,2.09-1.95,3.42-2.74c0.67-0.4,1.37-0.77,2.13-1.07
								c0.75-0.31,1.54-0.58,2.37-0.78c0.82-0.2,1.68-0.35,2.55-0.41c0.87-0.07,1.76-0.07,2.66,0c0.9,0.08,1.77,0.22,2.62,0.43
								c0.85,0.21,1.67,0.49,2.45,0.82c0.78,0.32,1.52,0.72,2.21,1.15c0.69,0.42,1.34,0.9,1.93,1.4c1.19,1,2.16,2.12,2.94,3.25
								c0.77,1.14,1.34,2.29,1.75,3.38c0.82,2.19,0.97,4.09,0.95,5.37C430.16,313.65,429.99,314.34,429.92,314.34z"/>
						</g>
					</g>
				</g>
			</g>
		</g>
		<g>
			<g>
				<g>
					<g>
						<g>
							<path style="fill:#263238;" d="M429.9,315.83c-0.01,0-0.01-0.09,0-0.26c0.01-0.19,0.02-0.45,0.03-0.76
								c0.02-0.34,0.04-0.75,0-1.24c-0.03-0.49-0.03-1.06-0.15-1.68c-0.14-1.27-0.55-2.79-1.27-4.44c-0.73-1.65-1.85-3.41-3.48-4.99
								c-1.63-1.57-3.75-2.98-6.3-3.75c-2.54-0.75-5.48-0.99-8.38-0.22c-0.73,0.15-1.44,0.44-2.16,0.69
								c-0.69,0.33-1.41,0.62-2.06,1.05c-1.35,0.79-2.61,1.8-3.68,3.02c-1.07,1.21-2.04,2.58-2.71,4.13
								c-0.68,1.53-1.14,3.19-1.36,4.9c-0.17,1.72-0.09,3.43,0.23,5.08c0.31,1.65,0.95,3.2,1.72,4.63c0.77,1.43,1.78,2.7,2.92,3.77
								c0.54,0.57,1.18,1.01,1.78,1.49c0.65,0.41,1.27,0.85,1.95,1.16c2.66,1.39,5.58,1.81,8.22,1.65c2.66-0.18,5.05-1.09,6.98-2.26
								c1.94-1.18,3.43-2.65,4.5-4.09c1.07-1.45,1.81-2.84,2.22-4.04c0.25-0.59,0.38-1.14,0.52-1.61c0.15-0.47,0.22-0.88,0.28-1.21
								c0.06-0.31,0.11-0.56,0.14-0.75C429.87,315.92,429.89,315.83,429.9,315.83c0.01,0,0,0.09-0.02,0.26
								c-0.03,0.19-0.06,0.44-0.1,0.76c-0.04,0.34-0.1,0.75-0.24,1.22c-0.12,0.48-0.24,1.04-0.49,1.63
								c-0.4,1.22-1.12,2.64-2.19,4.12c-1.07,1.47-2.57,2.98-4.54,4.2c-1.96,1.2-4.38,2.15-7.1,2.35c-2.7,0.18-5.69-0.23-8.41-1.65
								c-0.7-0.32-1.34-0.76-2-1.18c-0.61-0.48-1.27-0.94-1.83-1.52c-1.17-1.1-2.2-2.39-3-3.85c-0.8-1.46-1.45-3.05-1.77-4.74
								c-0.33-1.69-0.41-3.45-0.24-5.21c0.22-1.75,0.69-3.45,1.39-5.02c0.69-1.58,1.68-2.98,2.78-4.22c1.1-1.25,2.4-2.28,3.78-3.09
								c0.67-0.44,1.41-0.74,2.12-1.07c0.74-0.26,1.46-0.55,2.21-0.7c2.97-0.78,5.98-0.52,8.57,0.26c2.6,0.8,4.76,2.26,6.4,3.87
								c1.65,1.62,2.77,3.42,3.49,5.1c0.71,1.68,1.1,3.23,1.22,4.51c0.1,0.64,0.1,1.21,0.11,1.7c0.03,0.49,0,0.91-0.04,1.25
								c-0.03,0.32-0.05,0.57-0.07,0.76C429.91,315.75,429.9,315.83,429.9,315.83z"/>
						</g>
					</g>
				</g>
			</g>
		</g>
		<g>
			<g>
				<g>
					<g>
						<path style="fill:#FFFFFF;" d="M406.47,332.8c-0.01,0.03-0.23-0.04-0.62-0.17c-0.39-0.13-0.95-0.37-1.61-0.7
							c-1.33-0.66-3.06-1.81-4.66-3.43c-1.59-1.63-2.71-3.39-3.35-4.72c-0.32-0.67-0.55-1.23-0.67-1.62
							c-0.13-0.39-0.19-0.62-0.16-0.62c0.07-0.02,0.39,0.83,1.09,2.12c0.7,1.29,1.83,2.98,3.39,4.57c1.57,1.59,3.24,2.75,4.51,3.47
							C405.65,332.39,406.5,332.73,406.47,332.8z"/>
					</g>
				</g>
			</g>
		</g>
		<g>
			<g>
				<g>
					<g>
						<path style="fill:#FFFFFF;" d="M409.79,334.04c-0.03,0.11-0.45,0.07-0.94-0.08c-0.48-0.15-0.85-0.36-0.82-0.46
							c0.03-0.11,0.45-0.07,0.94,0.08C409.46,333.73,409.82,333.94,409.79,334.04z"/>
					</g>
				</g>
			</g>
		</g>
	</g>
	<g>
		<rect x="383.63" y="310.29" style="fill:#455A64;" width="6.49" height="19.68"/>
		<polygon style="fill:#455A64;" points="379.29,327.89 387.1,336.79 394.46,328.16 		"/>
	</g>
	<g>
		<g>
			<g>
				<path style="fill:#7F7F7F;" d="M245.25,299.28c0.02,0.01-0.13,0.25-0.42,0.7c-0.33,0.49-0.77,1.14-1.32,1.94
					c-1.16,1.68-2.85,4.09-4.97,7.05c-4.24,5.93-10.17,14.06-16.9,22.91c-6.73,8.85-13.02,16.72-17.75,22.26
					c-2.38,2.76-4.31,4.99-5.72,6.46c-0.67,0.71-1.2,1.27-1.61,1.71c-0.37,0.39-0.58,0.58-0.59,0.57c-0.02-0.01,0.16-0.24,0.5-0.65
					c0.39-0.45,0.9-1.04,1.53-1.78c1.35-1.52,3.23-3.79,5.57-6.58c4.64-5.61,10.87-13.51,17.6-22.36
					c6.73-8.84,12.71-16.93,17.04-22.79c2.13-2.89,3.87-5.25,5.12-6.94c0.58-0.78,1.05-1.4,1.41-1.88
					C245.05,299.48,245.23,299.26,245.25,299.28z"/>
			</g>
			<g>
				<path style="fill:#7F7F7F;" d="M278.04,161.19c0.16,0.02-0.56,6.19-1.62,13.78c-1.06,7.59-2.05,13.72-2.22,13.7
					c-0.16-0.02,0.56-6.19,1.62-13.78C276.88,167.3,277.88,161.17,278.04,161.19z"/>
			</g>
			<g>
				<path style="fill:#7F7F7F;" d="M393.33,153.19c0.01,0.02-0.25,0.25-0.77,0.67c-0.56,0.45-1.32,1.06-2.27,1.84
					c-2.03,1.61-4.89,3.87-8.41,6.66c-7.17,5.61-17,13.29-27.86,21.79c-10.9,8.44-20.77,16.08-27.97,21.65
					c-3.56,2.72-6.46,4.94-8.52,6.51c-0.98,0.73-1.76,1.31-2.33,1.75c-0.54,0.39-0.83,0.59-0.84,0.58
					c-0.01-0.02,0.25-0.25,0.76-0.67c0.56-0.45,1.31-1.06,2.27-1.83c2.03-1.61,4.89-3.87,8.4-6.66c7.17-5.61,17-13.3,27.87-21.8
					c10.9-8.44,20.77-16.08,27.97-21.65c3.56-2.72,6.46-4.94,8.52-6.51c0.98-0.73,1.76-1.31,2.33-1.74
					C393.03,153.37,393.32,153.17,393.33,153.19z"/>
			</g>
			<g>
				<path style="fill:#7F7F7F;" d="M449.04,228.99c0.01,0.17-28.2,2.51-63,5.23c-34.82,2.72-63.04,4.8-63.06,4.63
					c-0.01-0.16,28.19-2.51,63.01-5.23C420.8,230.9,449.03,228.82,449.04,228.99z"/>
			</g>
			<g>
				<path style="fill:#7F7F7F;" d="M371.11,298.29c-0.08,0.15-12.04-5.81-26.72-13.3c-14.68-7.49-26.52-13.69-26.45-13.84
					c0.08-0.15,12.04,5.81,26.72,13.3C359.34,291.95,371.18,298.14,371.11,298.29z"/>
			</g>
			<g>
				<path style="fill:#7F7F7F;" d="M228.4,202.51c-0.02,0.01-0.22-0.23-0.59-0.71c-0.4-0.53-0.93-1.23-1.6-2.1
					c-1.38-1.83-3.35-4.5-5.76-7.82c-4.82-6.63-11.39-15.87-18.46-26.19c-7.07-10.33-13.31-19.79-17.75-26.68
					c-2.22-3.45-4-6.25-5.21-8.2c-0.58-0.94-1.04-1.69-1.38-2.25c-0.31-0.52-0.47-0.8-0.45-0.81s0.21,0.24,0.55,0.74
					c0.37,0.55,0.86,1.28,1.48,2.19c1.3,1.96,3.13,4.71,5.37,8.09c4.53,6.83,10.82,16.25,17.89,26.58
					c7.07,10.32,13.57,19.59,18.31,26.29c2.34,3.31,4.24,6.01,5.6,7.93c0.63,0.91,1.13,1.63,1.51,2.17
					C228.25,202.23,228.42,202.5,228.4,202.51z"/>
			</g>
			<g>
				<path style="fill:#7F7F7F;" d="M213.21,224.28c-0.07,0.15-7.91-3.4-17.51-7.92c-9.6-4.52-17.32-8.31-17.25-8.46
					s7.91,3.39,17.51,7.92C205.56,220.35,213.28,224.13,213.21,224.28z"/>
			</g>
			<g>
				<path style="fill:#7F7F7F;" d="M208.75,245.64c-0.01,0.16-26.45-2.07-59.03-4.99c-32.59-2.92-59-5.42-58.98-5.59
					c0.01-0.16,26.44,2.07,59.04,4.99C182.35,242.98,208.76,245.48,208.75,245.64z"/>
			</g>
			<g>
				<path style="fill:#7F7F7F;" d="M218.19,277.22c0.06,0.15-15.63,6.98-35.05,15.26c-19.42,8.28-35.22,14.86-35.28,14.71
					c-0.06-0.15,15.62-6.98,35.05-15.26C202.33,283.66,218.12,277.07,218.19,277.22z"/>
			</g>
		</g>
		<g>
			<circle style="fill:#E8505B;" cx="266.27" cy="245.65" r="57.52"/>
			<g style="opacity:0.8;">
				<circle style="fill:#FFFFFF;" cx="266.27" cy="245.65" r="57.52"/>
			</g>
		</g>
		<g>
			<g>
				<path style="fill:#7F7F7F;" d="M189.49,105.36c-0.01,0-0.03-0.16-0.05-0.46c-0.02-0.33-0.06-0.77-0.1-1.34
					c-0.02-0.3-0.04-0.63-0.06-0.99c-0.04-0.36-0.12-0.75-0.18-1.18c-0.14-0.85-0.27-1.84-0.6-2.91c-0.5-2.18-1.53-4.75-3.14-7.48
					c-1.63-2.71-3.97-5.55-7.16-7.95c-3.18-2.38-7.18-4.41-11.81-5.22c-4.59-0.79-9.77-0.64-14.71,1.23
					c-1.26,0.4-2.44,1.02-3.65,1.61c-1.15,0.7-2.36,1.34-3.43,2.21c-1.14,0.78-2.13,1.76-3.17,2.7c-0.94,1.04-1.93,2.06-2.74,3.24
					c-1.67,2.31-3.12,4.88-4,7.71c-0.91,2.81-1.4,5.79-1.44,8.83c0.04,3.04,0.53,6.02,1.44,8.83c0.88,2.83,2.33,5.4,4,7.71
					c0.81,1.18,1.8,2.2,2.74,3.25c1.04,0.94,2.04,1.92,3.17,2.7c1.07,0.87,2.28,1.51,3.43,2.21c1.21,0.58,2.39,1.2,3.65,1.61
					c4.94,1.88,10.12,2.02,14.71,1.23c4.62-0.82,8.63-2.84,11.81-5.22c3.19-2.4,5.53-5.24,7.15-7.95c1.61-2.73,2.64-5.3,3.14-7.48
					c0.33-1.07,0.46-2.06,0.6-2.91c0.07-0.43,0.14-0.82,0.18-1.18c0.02-0.36,0.04-0.69,0.06-0.99c0.04-0.57,0.07-1.01,0.1-1.34
					C189.46,105.52,189.48,105.36,189.49,105.36s0.01,0.16,0.01,0.46c-0.01,0.33-0.02,0.78-0.04,1.35c-0.01,0.3-0.02,0.63-0.04,0.99
					c-0.03,0.36-0.1,0.76-0.16,1.19c-0.12,0.86-0.23,1.86-0.55,2.94c-0.47,2.21-1.48,4.82-3.08,7.59c-1.62,2.76-3.97,5.66-7.19,8.12
					c-3.21,2.44-7.27,4.52-11.97,5.38c-4.67,0.82-9.95,0.7-14.99-1.2c-1.28-0.41-2.49-1.04-3.73-1.63
					c-1.18-0.71-2.41-1.36-3.51-2.24c-1.16-0.8-2.18-1.79-3.24-2.75c-0.96-1.06-1.97-2.1-2.8-3.31c-1.7-2.36-3.19-4.98-4.09-7.87
					c-0.93-2.87-1.43-5.92-1.47-9.02c0.04-3.1,0.54-6.15,1.48-9.01c0.9-2.89,2.39-5.51,4.09-7.87c0.83-1.21,1.84-2.25,2.8-3.31
					c1.06-0.96,2.08-1.95,3.24-2.75c1.09-0.88,2.33-1.54,3.51-2.24c1.24-0.59,2.45-1.22,3.73-1.63c5.04-1.9,10.32-2.03,14.99-1.2
					c4.7,0.85,8.76,2.93,11.97,5.37c3.22,2.46,5.57,5.36,7.19,8.12c1.61,2.77,2.61,5.39,3.08,7.59c0.31,1.09,0.43,2.08,0.55,2.94
					c0.06,0.43,0.13,0.82,0.16,1.19c0.01,0.36,0.02,0.69,0.04,0.99c0.02,0.57,0.03,1.01,0.04,1.35
					C189.5,105.21,189.5,105.36,189.49,105.36z"/>
			</g>
		</g>
		<g>
			<g>
				<circle style="fill:#FFFFFF;" cx="52.93" cy="230.51" r="37.81"/>
				<g>
					<path style="fill:#7F7F7F;" d="M90.74,230.51c0,0-0.03-0.21-0.06-0.61c-0.03-0.43-0.07-1.02-0.12-1.79
						c-0.02-0.4-0.05-0.84-0.08-1.32c-0.05-0.48-0.16-1.01-0.24-1.58c-0.18-1.14-0.35-2.46-0.79-3.9
						c-0.67-2.92-2.04-6.37-4.19-10.02c-2.17-3.64-5.31-7.44-9.57-10.66c-4.25-3.19-9.62-5.91-15.82-7.01
						c-1.55-0.22-3.12-0.54-4.75-0.55c-0.81-0.03-1.63-0.11-2.45-0.09c-0.82,0.04-1.65,0.09-2.48,0.13
						c-0.42,0.03-0.84,0.03-1.25,0.08l-1.25,0.19c-0.84,0.14-1.69,0.24-2.53,0.41c-1.66,0.45-3.37,0.79-5,1.47
						c-1.68,0.54-3.27,1.37-4.89,2.15c-0.79,0.43-1.55,0.93-2.34,1.4c-0.8,0.45-1.53,1-2.26,1.56c-1.53,1.05-2.86,2.36-4.26,3.62
						c-1.26,1.4-2.59,2.76-3.68,4.35c-2.23,3.1-4.18,6.55-5.36,10.33c-1.22,3.77-1.88,7.76-1.94,11.83
						c0.05,4.07,0.71,8.07,1.93,11.84c1.18,3.79,3.13,7.24,5.36,10.34c1.09,1.59,2.41,2.95,3.68,4.35c1.4,1.26,2.73,2.57,4.26,3.62
						c0.73,0.56,1.47,1.12,2.26,1.56c0.78,0.47,1.54,0.97,2.34,1.4c1.63,0.78,3.21,1.61,4.89,2.15c1.63,0.68,3.35,1.02,5.01,1.47
						c0.84,0.17,1.69,0.27,2.53,0.41l1.25,0.19c0.42,0.06,0.84,0.05,1.25,0.08c0.83,0.04,1.66,0.09,2.49,0.13
						c0.82,0.01,1.64-0.07,2.45-0.09c1.63-0.01,3.2-0.33,4.75-0.55c6.2-1.1,11.56-3.82,15.82-7.01c4.27-3.23,7.4-7.03,9.57-10.66
						c2.16-3.65,3.52-7.1,4.19-10.02c0.44-1.44,0.61-2.76,0.79-3.9c0.09-0.57,0.19-1.09,0.24-1.58c0.03-0.48,0.06-0.92,0.08-1.32
						c0.05-0.77,0.09-1.37,0.12-1.79C90.7,230.71,90.74,230.51,90.74,230.51s0.01,0.21,0,0.61c-0.01,0.43-0.03,1.03-0.06,1.8
						c-0.02,0.4-0.03,0.84-0.05,1.33c-0.04,0.49-0.14,1.01-0.21,1.59c-0.16,1.15-0.32,2.48-0.74,3.93
						c-0.64,2.94-1.98,6.43-4.13,10.13c-2.16,3.69-5.31,7.55-9.6,10.83c-4.28,3.25-9.71,6.03-15.98,7.16
						c-1.57,0.23-3.16,0.56-4.81,0.57c-0.82,0.03-1.65,0.11-2.48,0.1c-0.83-0.04-1.67-0.08-2.52-0.12
						c-0.42-0.03-0.85-0.03-1.27-0.08l-1.27-0.19c-0.85-0.14-1.71-0.24-2.56-0.41c-1.68-0.45-3.42-0.79-5.08-1.48
						c-1.71-0.54-3.32-1.38-4.97-2.18c-0.81-0.44-1.58-0.94-2.37-1.41c-0.81-0.45-1.56-1.01-2.3-1.58
						c-1.55-1.06-2.91-2.39-4.33-3.67c-1.28-1.42-2.63-2.8-3.74-4.41c-2.27-3.15-4.25-6.65-5.45-10.5
						c-1.24-3.83-1.91-7.89-1.97-12.03c0.05-4.13,0.72-8.2,1.97-12.02c1.2-3.85,3.18-7.35,5.46-10.49c1.11-1.61,2.45-3,3.74-4.41
						c1.42-1.28,2.78-2.61,4.33-3.67c0.75-0.57,1.49-1.13,2.3-1.58c0.8-0.47,1.57-0.98,2.37-1.41c1.65-0.79,3.26-1.63,4.97-2.17
						c1.66-0.69,3.4-1.03,5.08-1.48c0.85-0.17,1.71-0.27,2.56-0.41l1.27-0.19c0.42-0.05,0.85-0.05,1.27-0.08
						c0.85-0.04,1.69-0.08,2.52-0.12c0.83-0.01,1.66,0.07,2.48,0.1c1.65,0.01,3.24,0.34,4.81,0.57c6.27,1.13,11.7,3.91,15.98,7.16
						c4.3,3.28,7.44,7.14,9.6,10.83c2.15,3.7,3.49,7.19,4.13,10.13c0.42,1.45,0.58,2.78,0.74,3.93c0.08,0.57,0.17,1.1,0.21,1.59
						c0.02,0.49,0.04,0.93,0.05,1.33c0.03,0.77,0.05,1.37,0.06,1.8C90.75,230.3,90.74,230.51,90.74,230.51z"/>
				</g>
			</g>
			<g>
				<g>
					<g>
						
							<ellipse transform="matrix(0.9196 -0.3929 0.3929 0.9196 -86.6771 39.4578)" style="fill:#F5F5F5;" cx="53.04" cy="231.44" rx="20.16" ry="20.16"/>
						<g>
							<path style="fill:#263238;" d="M73.2,231.44c0,0-0.04-0.44-0.09-1.28c-0.01-0.42-0.05-0.94-0.17-1.55
								c-0.1-0.61-0.19-1.31-0.42-2.08c-0.35-1.56-1.08-3.4-2.23-5.35c-1.16-1.94-2.83-3.97-5.11-5.7
								c-2.27-1.71-5.14-3.16-8.44-3.75c-3.29-0.57-7-0.47-10.53,0.87c-1.78,0.62-3.5,1.55-5.07,2.73
								c-0.81,0.56-1.53,1.26-2.27,1.93c-0.67,0.75-1.38,1.48-1.96,2.32c-2.47,3.28-3.86,7.5-3.9,11.84
								c0.04,4.35,1.43,8.57,3.9,11.85c0.58,0.85,1.29,1.58,1.96,2.32c0.75,0.67,1.46,1.37,2.27,1.93c1.58,1.18,3.29,2.11,5.07,2.73
								c3.54,1.34,7.25,1.44,10.53,0.87c3.31-0.59,6.17-2.04,8.44-3.75c2.28-1.72,3.95-3.75,5.11-5.7c1.15-1.95,1.88-3.79,2.23-5.35
								c0.23-0.77,0.32-1.47,0.42-2.08c0.12-0.61,0.15-1.13,0.17-1.55C73.16,231.88,73.2,231.44,73.2,231.44s-0.01,0.44-0.04,1.29
								c-0.01,0.42-0.04,0.94-0.15,1.55c-0.09,0.61-0.17,1.32-0.4,2.09c-0.34,1.57-1.06,3.42-2.21,5.4
								c-1.15,1.96-2.83,4.02-5.12,5.76c-2.28,1.73-5.17,3.21-8.51,3.81c-3.32,0.58-7.07,0.49-10.65-0.86
								c-1.8-0.62-3.54-1.56-5.13-2.75c-0.82-0.57-1.55-1.27-2.3-1.95c-0.68-0.75-1.4-1.49-1.99-2.35
								c-2.5-3.32-3.91-7.59-3.95-11.99c0.04-4.4,1.45-8.67,3.95-11.98c0.59-0.86,1.31-1.59,1.99-2.35c0.76-0.68,1.48-1.39,2.3-1.95
								c1.6-1.19,3.33-2.13,5.13-2.75c3.58-1.35,7.33-1.44,10.64-0.86c3.34,0.6,6.23,2.08,8.51,3.81c2.29,1.75,3.96,3.8,5.12,5.76
								c1.15,1.97,1.86,3.83,2.21,5.4c0.23,0.77,0.31,1.48,0.4,2.09c0.11,0.61,0.14,1.13,0.15,1.55
								C73.19,231,73.2,231.44,73.2,231.44z"/>
						</g>
					</g>
				</g>
				<g>
					<g>
						<path style="fill:none;" d="M53.04,218.27c-7.26,0-13.17,5.91-13.17,13.17c0,7.26,5.91,13.17,13.17,13.17
							s13.17-5.91,13.17-13.17C66.21,224.18,60.3,218.27,53.04,218.27z"/>
						<g>
							<path style="fill:#7F7F7F;" d="M53.04,218.27c0,0,1.18-0.16,3.24,0.3c2.02,0.45,5.03,1.75,7.39,4.78
								c1.15,1.5,2.14,3.41,2.55,5.62c0.4,2.19,0.34,4.68-0.55,7.05c-0.41,1.19-1.03,2.35-1.82,3.41c-0.77,1.07-1.73,2.05-2.85,2.85
								c-2.2,1.66-5.03,2.61-7.95,2.63c-2.92-0.02-5.76-0.97-7.96-2.63c-1.12-0.81-2.08-1.78-2.85-2.85
								c-0.79-1.06-1.41-2.21-1.82-3.41c-0.89-2.37-0.95-4.86-0.55-7.06c0.41-2.21,1.4-4.12,2.55-5.62
								c2.36-3.03,5.36-4.32,7.39-4.78C51.86,218.11,53.04,218.27,53.04,218.27c0.01,0.08-1.17,0.01-3.19,0.53
								c-1.97,0.51-4.87,1.84-7.11,4.81c-1.09,1.47-2.02,3.32-2.4,5.45c-0.36,2.12-0.29,4.51,0.58,6.78c0.4,1.14,1,2.24,1.76,3.26
								c0.75,1.02,1.67,1.95,2.74,2.72c2.11,1.58,4.82,2.48,7.61,2.5c2.79-0.03,5.5-0.92,7.61-2.51c1.07-0.77,1.99-1.7,2.74-2.72
								c0.76-1.01,1.36-2.11,1.76-3.26c0.87-2.27,0.94-4.66,0.58-6.77c-0.37-2.13-1.3-3.98-2.4-5.45c-2.24-2.97-5.14-4.29-7.11-4.81
								C54.21,218.28,53.03,218.35,53.04,218.27z"/>
						</g>
					</g>
				</g>
				<g>
					<g>
						<path style="fill:#7F7F7F;" d="M53.04,227.26c-2.31,0-4.18,1.88-4.18,4.18c0,2.3,1.88,4.18,4.18,4.18
							c2.31,0,4.18-1.88,4.18-4.18C57.22,229.13,55.34,227.26,53.04,227.26z"/>
						<g>
							<path style="fill:#7F7F7F;" d="M53.04,227.26c0-0.03,0.37-0.11,1.05,0.02c0.66,0.12,1.65,0.52,2.44,1.51
								c0.79,0.95,1.27,2.57,0.7,4.17c-0.52,1.59-2.2,2.98-4.18,2.96c-1.98,0.02-3.66-1.38-4.19-2.96c-0.57-1.6-0.09-3.23,0.7-4.17
								c0.79-0.98,1.78-1.38,2.44-1.51C52.66,227.15,53.04,227.23,53.04,227.26c0,0.05-0.37,0.06-0.99,0.24
								c-0.61,0.18-1.49,0.62-2.16,1.54c-0.67,0.89-1.04,2.34-0.51,3.73c0.49,1.38,1.95,2.57,3.67,2.55
								c1.71,0.01,3.18-1.17,3.67-2.55c0.53-1.39,0.16-2.84-0.51-3.73c-0.67-0.92-1.55-1.35-2.16-1.54
								C53.41,227.32,53.04,227.31,53.04,227.26z"/>
						</g>
					</g>
				</g>
				<g>
					<path style="fill:#F5F5F5;" d="M31.56,245.97c6.97-4.86,14.52-9.67,21.48-14.53"/>
					<g>
						<path style="fill:#263238;" d="M53.04,231.44c0.04,0.05-4.74,3.35-10.67,7.36c-5.93,4.01-10.77,7.22-10.81,7.17
							c-0.04-0.05,4.74-3.35,10.67-7.36C48.16,234.59,53,231.39,53.04,231.44z"/>
					</g>
				</g>
				<g>
					<path style="fill:#263238;" d="M33.92,244.56c0,0.07-1.12,0.08-2.49,0.03c-1.37-0.05-2.48-0.14-2.48-0.21
						c0-0.07,1.12-0.08,2.49-0.03C32.81,244.4,33.92,244.5,33.92,244.56z"/>
				</g>
				<g>
					<path style="fill:#263238;" d="M33.07,247.83c-0.06-0.01,0.04-0.78,0.24-1.7c0.2-0.93,0.41-1.67,0.48-1.65
						c0.06,0.01-0.05,0.78-0.25,1.71C33.35,247.11,33.14,247.85,33.07,247.83z"/>
				</g>
				<g>
					<path style="fill:#263238;" d="M34.29,247.45c-0.07-0.01,0.02-0.81,0.2-1.78c0.17-0.97,0.37-1.75,0.43-1.74
						c0.07,0.01-0.02,0.81-0.2,1.78C34.55,246.68,34.36,247.46,34.29,247.45z"/>
				</g>
				<g>
					<path style="fill:#263238;" d="M31.43,243.13c0.02-0.06,0.79,0.06,1.73,0.29c0.94,0.22,1.69,0.45,1.68,0.52
						c-0.02,0.06-0.79-0.06-1.73-0.29C32.17,243.43,31.42,243.19,31.43,243.13z"/>
				</g>
			</g>
		</g>
		<g>
			
				<ellipse transform="matrix(0.9257 -0.3783 0.3783 0.9257 -61.1608 75.6714)" style="fill:#FFFFFF;" cx="162.03" cy="193.51" rx="21.92" ry="21.92"/>
			<g>
				<path style="fill:#7F7F7F;" d="M183.95,193.51c-0.01,0-0.03-0.12-0.05-0.35c-0.02-0.27-0.05-0.61-0.08-1.04
					c-0.02-0.46-0.07-1.02-0.2-1.68c-0.11-0.66-0.21-1.42-0.47-2.25c-0.39-1.69-1.19-3.68-2.44-5.78c-1.26-2.1-3.08-4.29-5.54-6.15
					c-2.46-1.84-5.56-3.4-9.13-4.03c-3.55-0.61-7.56-0.49-11.37,0.96c-1.92,0.67-3.77,1.68-5.47,2.95c-0.88,0.6-1.65,1.36-2.45,2.09
					c-0.73,0.81-1.49,1.59-2.12,2.51c-2.66,3.54-4.16,8.09-4.2,12.78c0.04,4.69,1.54,9.24,4.2,12.78c0.63,0.91,1.39,1.7,2.12,2.51
					c0.81,0.73,1.57,1.48,2.45,2.09c1.7,1.27,3.55,2.28,5.47,2.95c3.81,1.45,7.82,1.57,11.37,0.96c3.58-0.63,6.67-2.19,9.13-4.03
					c2.47-1.86,4.28-4.05,5.54-6.15c1.25-2.11,2.05-4.1,2.44-5.78c0.26-0.83,0.36-1.59,0.47-2.25c0.13-0.66,0.18-1.22,0.2-1.68
					c0.03-0.43,0.06-0.77,0.08-1.04C183.92,193.63,183.94,193.51,183.95,193.51s0.01,0.12,0.01,0.36c-0.01,0.27-0.01,0.61-0.02,1.04
					c0,0.46-0.03,1.03-0.14,1.69c-0.09,0.67-0.18,1.44-0.42,2.28c-0.36,1.71-1.14,3.74-2.38,5.9c-1.25,2.15-3.08,4.4-5.57,6.31
					c-2.49,1.9-5.65,3.52-9.3,4.18c-3.63,0.64-7.73,0.55-11.65-0.93c-1.97-0.68-3.88-1.71-5.63-3.01c-0.9-0.62-1.7-1.39-2.52-2.14
					c-0.75-0.82-1.53-1.63-2.18-2.57c-2.74-3.63-4.29-8.31-4.33-13.13c0.04-4.82,1.59-9.5,4.33-13.13c0.65-0.94,1.43-1.75,2.18-2.57
					c0.83-0.75,1.62-1.52,2.52-2.14c1.75-1.3,3.65-2.33,5.62-3.01c3.92-1.47,8.02-1.57,11.65-0.93c3.65,0.67,6.81,2.29,9.3,4.18
					c2.5,1.92,4.32,4.16,5.57,6.31c1.24,2.16,2.02,4.19,2.38,5.9c0.24,0.84,0.33,1.62,0.42,2.28c0.11,0.66,0.14,1.23,0.14,1.69
					c0.01,0.43,0.02,0.78,0.02,1.05C183.96,193.39,183.96,193.51,183.95,193.51z"/>
			</g>
		</g>
		<g>
			<g>
				<g>
					<g>
						<path style="fill:#F5F5F5;" d="M163.84,193.84c1.78-0.75,3.04-2.58,3.05-4.74c0.01-2.83-2.13-5.13-4.78-5.14
							c-2.65-0.01-4.81,2.27-4.82,5.1c-0.01,2.18,1.26,4.03,3.06,4.78c-7.39,1.11-7.06,9.15-7.06,9.15l17.48,0.08
							C170.77,203.07,171.17,194.94,163.84,193.84z"/>
						<g>
							<path style="fill:#263238;" d="M163.84,193.84c0,0.07,1.29,0,3.23,1.13c0.93,0.59,1.94,1.57,2.65,2.97
								c0.7,1.4,1.15,3.17,1.14,5.13l0,0.09l-0.09,0c-4.89-0.02-10.89-0.03-17.48-0.05l-0.12,0l0-0.11
								c-0.01-1.64,0.34-3.36,1.09-4.94c0.58-1.2,1.45-2.26,2.53-2.98c1.08-0.73,2.32-1.12,3.53-1.34l-0.03,0.22
								c-1.9-0.78-3.05-2.72-3.12-4.58c-0.11-1.88,0.81-3.67,2.2-4.64c1.4-1,3.2-1.08,4.56-0.46c1.38,0.6,2.28,1.79,2.69,2.95
								c0.43,1.18,0.38,2.35,0.12,3.29c-0.26,0.95-0.74,1.67-1.2,2.16c-0.47,0.5-0.92,0.79-1.23,0.95
								C164.02,193.78,163.85,193.83,163.84,193.84c-0.04-0.02,0.75-0.24,1.66-1.23c0.45-0.5,0.9-1.21,1.15-2.14
								c0.24-0.92,0.27-2.07-0.15-3.21c-0.41-1.13-1.3-2.27-2.62-2.84c-1.31-0.58-3.03-0.49-4.37,0.47
								c-1.33,0.94-2.21,2.66-2.1,4.46c0.07,1.79,1.18,3.64,2.98,4.38l0.37,0.15l-0.4,0.07c-1.19,0.22-2.39,0.6-3.43,1.31
								c-1.05,0.7-1.89,1.72-2.45,2.89c-0.74,1.54-1.08,3.24-1.07,4.83l-0.12-0.11c6.59,0.04,12.59,0.08,17.48,0.11l-0.09,0.09
								c0.02-1.92-0.41-3.68-1.09-5.06c-0.69-1.38-1.67-2.35-2.58-2.95c-0.47-0.28-0.89-0.53-1.29-0.66
								c-0.39-0.16-0.73-0.29-1.03-0.34C164.32,193.96,164.07,193.9,163.84,193.84z"/>
						</g>
					</g>
				</g>
			</g>
		</g>
		<g>
			<g>
				
					<ellipse transform="matrix(0.1536 -0.9881 0.9881 0.1536 -222.2428 382.7292)" style="fill:#FFFFFF;" cx="112.28" cy="321.09" rx="38.19" ry="38.19"/>
				<g>
					<path style="fill:#7F7F7F;" d="M150.47,321.09c0,0-0.03-0.21-0.06-0.62c-0.03-0.43-0.07-1.03-0.12-1.81
						c-0.02-0.4-0.05-0.85-0.08-1.33c-0.05-0.49-0.16-1.02-0.24-1.59c-0.18-1.15-0.36-2.49-0.8-3.94
						c-0.67-2.95-2.06-6.43-4.23-10.12c-2.2-3.67-5.36-7.51-9.67-10.77c-4.3-3.23-9.72-5.97-15.98-7.08
						c-1.57-0.22-3.15-0.54-4.8-0.55c-0.82-0.03-1.64-0.11-2.47-0.09c-0.83,0.04-1.67,0.09-2.51,0.13
						c-0.42,0.03-0.85,0.03-1.27,0.08l-1.26,0.19c-0.84,0.14-1.7,0.24-2.55,0.42c-1.67,0.46-3.41,0.8-5.06,1.48
						c-1.7,0.54-3.3,1.39-4.94,2.17c-0.8,0.43-1.57,0.94-2.36,1.41c-0.81,0.45-1.55,1.01-2.29,1.58c-1.54,1.06-2.89,2.38-4.3,3.65
						c-1.27,1.41-2.61,2.79-3.71,4.39c-2.26,3.13-4.22,6.61-5.42,10.44c-1.24,3.8-1.9,7.84-1.96,11.95
						c0.05,4.11,0.72,8.15,1.95,11.96c1.19,3.83,3.16,7.31,5.42,10.44c1.1,1.6,2.44,2.98,3.71,4.39c1.41,1.27,2.76,2.6,4.3,3.66
						c0.74,0.57,1.48,1.13,2.29,1.58c0.79,0.47,1.56,0.98,2.36,1.41c1.64,0.79,3.24,1.63,4.94,2.17c1.65,0.69,3.38,1.03,5.06,1.48
						c0.85,0.18,1.71,0.27,2.55,0.42l1.26,0.19c0.42,0.06,0.85,0.05,1.27,0.08c0.84,0.04,1.68,0.09,2.51,0.13
						c0.83,0.01,1.65-0.07,2.47-0.09c1.64-0.01,3.23-0.33,4.8-0.55c6.26-1.11,11.68-3.86,15.98-7.08c4.31-3.26,7.47-7.1,9.67-10.77
						c2.18-3.69,3.56-7.17,4.23-10.12c0.44-1.45,0.61-2.79,0.8-3.94c0.09-0.58,0.19-1.11,0.24-1.59c0.03-0.49,0.06-0.93,0.08-1.33
						c0.05-0.78,0.09-1.38,0.12-1.81C150.44,321.3,150.47,321.09,150.47,321.09s0.01,0.21,0,0.62c-0.01,0.43-0.04,1.04-0.06,1.82
						c-0.02,0.4-0.03,0.85-0.05,1.34c-0.04,0.49-0.14,1.02-0.22,1.6c-0.17,1.16-0.32,2.5-0.75,3.97c-0.64,2.97-2,6.49-4.17,10.23
						c-2.19,3.72-5.36,7.62-9.7,10.94c-4.33,3.29-9.8,6.09-16.14,7.23c-1.59,0.23-3.19,0.56-4.86,0.58
						c-0.83,0.03-1.66,0.11-2.51,0.1c-0.84-0.04-1.69-0.08-2.54-0.12c-0.43-0.03-0.86-0.03-1.29-0.08l-1.28-0.19
						c-0.86-0.14-1.73-0.24-2.59-0.42c-1.7-0.46-3.46-0.8-5.13-1.49c-1.73-0.55-3.35-1.4-5.02-2.2c-0.81-0.44-1.59-0.95-2.4-1.43
						c-0.82-0.46-1.57-1.02-2.32-1.6c-1.57-1.07-2.94-2.41-4.37-3.71c-1.3-1.43-2.66-2.83-3.78-4.46c-2.29-3.18-4.3-6.71-5.51-10.6
						c-1.26-3.86-1.93-7.97-1.99-12.15c0.05-4.18,0.73-8.28,1.99-12.14c1.21-3.89,3.22-7.42,5.51-10.6
						c1.12-1.62,2.48-3.03,3.78-4.46c1.43-1.29,2.8-2.63,4.37-3.7c0.75-0.57,1.5-1.14,2.32-1.6c0.8-0.48,1.59-0.99,2.4-1.43
						c1.67-0.8,3.29-1.65,5.02-2.2c1.67-0.69,3.43-1.04,5.13-1.49c0.86-0.18,1.73-0.28,2.59-0.42l1.28-0.19
						c0.43-0.06,0.86-0.05,1.28-0.08c0.85-0.04,1.7-0.08,2.54-0.12c0.84-0.01,1.68,0.07,2.51,0.1c1.66,0.01,3.27,0.35,4.86,0.58
						c6.34,1.15,11.81,3.95,16.14,7.23c4.34,3.32,7.51,7.21,9.7,10.94c2.17,3.74,3.53,7.26,4.17,10.23
						c0.43,1.46,0.58,2.81,0.75,3.97c0.08,0.58,0.17,1.11,0.22,1.6c0.02,0.49,0.04,0.94,0.05,1.34c0.03,0.78,0.05,1.39,0.06,1.82
						C150.48,320.88,150.47,321.09,150.47,321.09z"/>
				</g>
			</g>
		</g>
		<g>
			<g>
				<path style="fill:#E8505B;" d="M203.56,377.17c-0.1,0.01,0.02-1.54-0.65-4.18c-0.31-1.32-0.94-2.88-1.93-4.53
					c-0.99-1.64-2.42-3.36-4.35-4.81c-1.93-1.44-4.36-2.66-7.16-3.15c-2.78-0.47-5.92-0.38-8.9,0.76c-1.5,0.52-2.95,1.31-4.28,2.31
					c-1.35,0.98-2.57,2.19-3.58,3.6c-2.08,2.77-3.26,6.33-3.29,10c0.03,3.67,1.21,7.23,3.29,10.01c1.01,1.41,2.23,2.62,3.58,3.6
					c1.33,1,2.78,1.79,4.28,2.31c2.99,1.14,6.12,1.23,8.9,0.76c2.8-0.49,5.23-1.71,7.16-3.15c1.93-1.45,3.36-3.17,4.35-4.81
					c0.98-1.65,1.61-3.21,1.93-4.53C203.58,378.7,203.46,377.16,203.56,377.17c0.01,0,0.02,0.09,0.02,0.28
					c0,0.22-0.01,0.49-0.01,0.82c0,0.36-0.02,0.81-0.11,1.33c-0.07,0.52-0.14,1.13-0.32,1.8c-0.28,1.35-0.89,2.95-1.86,4.65
					c-0.98,1.69-2.42,3.47-4.38,4.98c-1.96,1.5-4.44,2.78-7.32,3.3c-2.86,0.51-6.09,0.43-9.18-0.73c-1.55-0.53-3.06-1.34-4.44-2.37
					c-1.4-1.01-2.66-2.26-3.71-3.71c-2.16-2.86-3.38-6.55-3.41-10.35c0.03-3.8,1.26-7.49,3.42-10.35c1.05-1.45,2.31-2.7,3.71-3.71
					c1.38-1.03,2.88-1.84,4.43-2.37c3.09-1.16,6.32-1.24,9.18-0.73c2.88,0.53,5.36,1.81,7.32,3.3c1.97,1.51,3.4,3.28,4.38,4.98
					c0.98,1.7,1.58,3.3,1.86,4.65c0.19,0.66,0.25,1.27,0.32,1.8c0.09,0.52,0.11,0.97,0.11,1.33c0,0.33,0.01,0.6,0.01,0.82
					C203.58,377.07,203.57,377.17,203.56,377.17z"/>
			</g>
			<g>
				<path style="fill:#F5F5F5;" d="M189.73,381.13c-0.95,0-1.79,0.52-2.29,1.31c-0.62-0.48-1.39-1.04-2.25-1.62
					c-0.47-0.32-0.93-0.62-1.35-0.89c0.53-0.51,0.85-1.22,0.85-2.01c0-0.58-0.18-1.11-0.48-1.56c0.52-0.36,1.1-0.79,1.72-1.27
					c0.54-0.42,1.04-0.83,1.48-1.2c0.5,0.74,1.35,1.22,2.31,1.22c1.54,0,2.8-1.26,2.79-2.8c0-1.55-1.26-2.8-2.8-2.79
					c-1.55,0-2.8,1.26-2.79,2.8c0,0.33,0.07,0.65,0.18,0.95c-0.5,0.35-1.06,0.76-1.65,1.22c-0.63,0.49-1.2,0.96-1.69,1.38
					c-0.5-0.45-1.15-0.74-1.88-0.74c-1.54,0-2.8,1.26-2.79,2.8c0,1.55,1.26,2.8,2.8,2.79c0.48,0,0.93-0.13,1.32-0.35
					c0.47,0.34,0.99,0.71,1.54,1.08c0.89,0.6,1.72,1.13,2.4,1.54c-0.14,0.36-0.22,0.76-0.22,1.18c0,1.68,1.26,3.04,2.8,3.04
					c1.55,0,2.8-1.37,2.79-3.05C192.53,382.49,191.27,381.13,189.73,381.13z"/>
				<g>
					<path style="fill:#263238;" d="M189.73,381.13c0,0,0.39-0.08,1.05,0.19c0.64,0.25,1.55,1.01,1.77,2.35
						c0.11,0.65,0.02,1.43-0.37,2.13c-0.38,0.7-1.12,1.33-2.07,1.47c-0.93,0.16-2-0.28-2.63-1.14c-0.64-0.85-0.84-2.08-0.42-3.17
						l0.04,0.12c-1.25-0.8-2.61-1.64-3.95-2.62l0.12,0.01c-0.84,0.49-1.98,0.49-2.86-0.04c-0.89-0.51-1.48-1.55-1.43-2.62
						c0.02-1.07,0.71-2.12,1.73-2.55c1.01-0.46,2.3-0.27,3.13,0.52l-0.16,0c0.52-0.43,1.08-0.88,1.65-1.34
						c0.57-0.42,1.14-0.84,1.7-1.26l-0.04,0.14c-0.29-0.76-0.22-1.64,0.15-2.34c0.37-0.71,1.04-1.24,1.79-1.45
						c0.75-0.21,1.57-0.11,2.23,0.27c0.66,0.37,1.15,1.01,1.36,1.72c0.45,1.44-0.4,3.02-1.7,3.51c-1.29,0.54-2.8,0-3.49-1.06
						l0.15,0.02c-1.11,0.93-2.19,1.73-3.21,2.46l0.02-0.12c0.86,1.27,0.48,2.88-0.4,3.67l-0.01-0.11c1.51,0.97,2.67,1.87,3.6,2.54
						l-0.07,0.01c0.5-0.76,1.18-1.09,1.62-1.21C189.48,381.09,189.73,381.13,189.73,381.13c0,0.02-0.25-0.01-0.69,0.12
						c-0.43,0.13-1.08,0.46-1.56,1.21l-0.03,0.04l-0.04-0.03c-0.93-0.65-2.1-1.53-3.62-2.49l-0.08-0.05l0.07-0.06
						c0.83-0.76,1.17-2.28,0.35-3.47l-0.05-0.07l0.07-0.05c1.01-0.74,2.08-1.54,3.19-2.47l0.09-0.07l0.06,0.09
						c0.64,0.99,2.05,1.47,3.24,0.97c1.2-0.46,1.98-1.92,1.56-3.24c-0.35-1.33-1.9-2.26-3.31-1.82c-0.69,0.19-1.3,0.68-1.64,1.34
						c-0.34,0.65-0.41,1.45-0.13,2.15l0.03,0.08l-0.08,0.06c-0.56,0.41-1.12,0.83-1.69,1.25c-0.56,0.46-1.12,0.91-1.64,1.33
						l-0.08,0.07l-0.07-0.07c-0.77-0.72-1.95-0.9-2.87-0.48c-0.94,0.4-1.57,1.36-1.6,2.35c-0.05,0.99,0.49,1.94,1.31,2.41
						c0.81,0.49,1.85,0.49,2.64,0.05l0.06-0.03l0.06,0.04c1.34,0.98,2.69,1.83,3.93,2.63l0.07,0.05l-0.03,0.08
						c-0.4,1.03-0.21,2.2,0.38,3c0.59,0.81,1.58,1.22,2.46,1.08c0.89-0.12,1.59-0.71,1.97-1.38c0.38-0.67,0.48-1.42,0.38-2.05
						c-0.19-1.3-1.06-2.05-1.68-2.31C190.11,381.1,189.72,381.16,189.73,381.13z"/>
				</g>
			</g>
		</g>
		<g>
			<g>
				<path style="fill:#7F7F7F;" d="M445.36,318.41c0,0-0.03-0.22-0.06-0.64c-0.03-0.45-0.07-1.07-0.12-1.88
					c-0.03-0.42-0.05-0.88-0.08-1.39c-0.05-0.51-0.16-1.06-0.25-1.66c-0.19-1.2-0.37-2.58-0.83-4.09c-0.7-3.06-2.14-6.68-4.4-10.52
					c-2.28-3.82-5.57-7.81-10.05-11.19c-4.46-3.35-10.1-6.21-16.6-7.36c-1.63-0.23-3.28-0.57-4.99-0.58
					c-0.85-0.03-1.71-0.11-2.57-0.1c-0.86,0.04-1.73,0.09-2.61,0.14c-0.44,0.03-0.88,0.03-1.32,0.09l-1.31,0.2
					c-0.88,0.15-1.77,0.25-2.65,0.43c-1.74,0.47-3.54,0.83-5.25,1.54c-1.77,0.57-3.43,1.44-5.14,2.26
					c-0.83,0.45-1.63,0.98-2.45,1.47c-0.84,0.47-1.61,1.05-2.38,1.64c-1.6,1.1-3,2.47-4.47,3.8c-1.32,1.47-2.72,2.9-3.86,4.57
					c-2.34,3.26-4.39,6.87-5.63,10.85c-1.28,3.95-1.98,8.15-2.03,12.42c0.06,4.27,0.75,8.47,2.03,12.43
					c1.24,3.98,3.29,7.6,5.63,10.85c1.14,1.66,2.53,3.1,3.86,4.57c1.47,1.32,2.87,2.7,4.47,3.8c0.77,0.59,1.54,1.17,2.38,1.64
					c0.82,0.49,1.62,1.01,2.45,1.47c1.71,0.82,3.37,1.69,5.14,2.26c1.71,0.72,3.52,1.07,5.25,1.54c0.88,0.18,1.77,0.29,2.65,0.43
					l1.31,0.2c0.44,0.06,0.88,0.06,1.32,0.09c0.88,0.05,1.75,0.09,2.61,0.14c0.86,0.01,1.72-0.07,2.57-0.1
					c1.71-0.01,3.36-0.35,4.99-0.58c6.5-1.15,12.14-4.01,16.6-7.36c4.48-3.39,7.77-7.38,10.05-11.2c2.26-3.84,3.7-7.45,4.4-10.52
					c0.46-1.51,0.64-2.9,0.83-4.09c0.09-0.6,0.2-1.15,0.25-1.66c0.03-0.51,0.06-0.97,0.08-1.39c0.05-0.81,0.1-1.44,0.12-1.88
					C445.33,318.63,445.36,318.41,445.36,318.41s0.01,0.22,0,0.64c-0.02,0.45-0.04,1.08-0.07,1.89c-0.02,0.42-0.04,0.88-0.06,1.39
					c-0.04,0.51-0.14,1.06-0.23,1.67c-0.17,1.2-0.34,2.6-0.78,4.12c-0.67,3.09-2.08,6.75-4.34,10.63
					c-2.27,3.87-5.57,7.92-10.08,11.36c-4.49,3.41-10.18,6.32-16.77,7.51c-1.65,0.24-3.32,0.58-5.05,0.6
					c-0.86,0.03-1.73,0.12-2.6,0.11c-0.87-0.04-1.76-0.09-2.64-0.13c-0.44-0.03-0.89-0.03-1.33-0.08l-1.33-0.2
					c-0.89-0.15-1.79-0.25-2.69-0.43c-1.76-0.47-3.59-0.83-5.33-1.55c-1.79-0.57-3.48-1.45-5.22-2.28
					c-0.84-0.46-1.66-0.99-2.49-1.48c-0.85-0.47-1.63-1.06-2.41-1.66c-1.63-1.11-3.05-2.51-4.54-3.85
					c-1.35-1.49-2.76-2.94-3.92-4.63c-2.38-3.3-4.46-6.97-5.72-11.01c-1.31-4.01-2.01-8.28-2.06-12.62
					c0.06-4.34,0.76-8.6,2.07-12.61c1.26-4.04,3.34-7.71,5.72-11.01c1.16-1.69,2.57-3.14,3.92-4.63c1.49-1.34,2.91-2.73,4.54-3.85
					c0.78-0.6,1.56-1.18,2.41-1.66c0.84-0.49,1.65-1.03,2.49-1.48c1.73-0.83,3.42-1.71,5.22-2.28c1.74-0.72,3.57-1.08,5.33-1.55
					c0.89-0.18,1.8-0.29,2.69-0.43l1.33-0.2c0.44-0.06,0.89-0.05,1.33-0.08c0.89-0.04,1.77-0.09,2.64-0.13
					c0.87-0.01,1.74,0.07,2.6,0.11c1.73,0.02,3.4,0.36,5.05,0.6c6.58,1.19,12.27,4.1,16.77,7.51c4.51,3.44,7.81,7.49,10.08,11.36
					c2.25,3.88,3.67,7.54,4.34,10.63c0.44,1.52,0.61,2.92,0.78,4.12c0.08,0.6,0.18,1.16,0.23,1.67c0.02,0.51,0.04,0.98,0.06,1.39
					c0.03,0.81,0.05,1.44,0.07,1.89C445.37,318.2,445.36,318.41,445.36,318.41z"/>
			</g>
		</g>
		<g>
			<g>
				<path style="fill:#7F7F7F;" d="M509.02,228.09c-0.01,0-0.03-0.16-0.06-0.48c-0.02-0.35-0.06-0.82-0.1-1.42
					c-0.02-0.31-0.04-0.66-0.07-1.04c-0.04-0.38-0.13-0.8-0.19-1.25c-0.15-0.9-0.28-1.94-0.63-3.08c-0.53-2.3-1.62-5.03-3.32-7.91
					c-1.72-2.87-4.2-5.87-7.57-8.41c-3.36-2.52-7.6-4.66-12.49-5.53c-4.86-0.83-10.34-0.68-15.56,1.3c-1.33,0.43-2.58,1.08-3.86,1.7
					c-1.22,0.74-2.5,1.41-3.63,2.33c-1.2,0.83-2.26,1.86-3.36,2.86c-1,1.1-2.04,2.18-2.9,3.43c-1.76,2.45-3.3,5.16-4.23,8.15
					c-0.96,2.97-1.48,6.13-1.53,9.34c0.04,3.21,0.56,6.37,1.52,9.34c0.93,2.99,2.47,5.71,4.23,8.16c0.86,1.25,1.9,2.33,2.9,3.43
					c1.1,1,2.15,2.03,3.36,2.86c1.13,0.92,2.41,1.6,3.63,2.33c1.28,0.62,2.53,1.27,3.86,1.7c5.22,1.98,10.7,2.14,15.56,1.3
					c4.89-0.86,9.13-3.01,12.49-5.53c3.37-2.54,5.85-5.54,7.56-8.41c1.7-2.88,2.79-5.6,3.32-7.91c0.35-1.13,0.48-2.18,0.63-3.08
					c0.07-0.45,0.15-0.86,0.19-1.25c0.02-0.38,0.05-0.73,0.07-1.04c0.04-0.6,0.08-1.07,0.1-1.42
					C508.99,228.25,509.01,228.09,509.02,228.09c0.01,0,0.01,0.16,0.01,0.48c-0.01,0.35-0.02,0.82-0.04,1.42
					c-0.01,0.32-0.02,0.67-0.04,1.05c-0.03,0.39-0.11,0.8-0.17,1.26c-0.13,0.91-0.25,1.96-0.58,3.11c-0.5,2.33-1.56,5.09-3.26,8.02
					c-1.71,2.92-4.19,5.98-7.6,8.58c-3.39,2.58-7.68,4.78-12.65,5.68c-4.93,0.87-10.51,0.73-15.84-1.27
					c-1.35-0.43-2.63-1.1-3.94-1.72c-1.24-0.75-2.55-1.44-3.71-2.37c-1.23-0.84-2.3-1.89-3.43-2.91c-1.02-1.12-2.08-2.22-2.96-3.5
					c-1.8-2.49-3.37-5.27-4.32-8.32c-0.99-3.03-1.52-6.25-1.56-9.53c0.04-3.28,0.57-6.49,1.56-9.53c0.95-3.05,2.52-5.82,4.32-8.31
					c0.88-1.27,1.94-2.37,2.96-3.49c1.12-1.01,2.2-2.06,3.43-2.91c1.16-0.94,2.46-1.63,3.7-2.37c1.31-0.63,2.58-1.29,3.94-1.72
					c5.33-2.01,10.9-2.14,15.84-1.27c4.97,0.9,9.26,3.1,12.65,5.68c3.4,2.6,5.89,5.66,7.6,8.58c1.7,2.93,2.76,5.69,3.26,8.02
					c0.33,1.15,0.45,2.2,0.58,3.11c0.06,0.45,0.13,0.87,0.17,1.26c0.01,0.38,0.03,0.73,0.04,1.05c0.02,0.6,0.03,1.08,0.04,1.42
					C509.03,227.93,509.03,228.09,509.02,228.09z"/>
			</g>
		</g>
		<g>
			<g>
				<path style="fill:#7F7F7F;" d="M429.18,136.27c-0.01,0-0.03-0.12-0.05-0.35c-0.02-0.27-0.05-0.61-0.08-1.04
					c-0.02-0.46-0.07-1.02-0.2-1.68c-0.11-0.66-0.21-1.42-0.47-2.25c-0.39-1.69-1.19-3.68-2.44-5.78c-1.26-2.1-3.08-4.29-5.54-6.15
					c-2.46-1.84-5.56-3.4-9.13-4.03c-3.55-0.61-7.56-0.49-11.37,0.96c-1.92,0.67-3.77,1.68-5.47,2.95c-0.88,0.6-1.65,1.36-2.45,2.09
					c-0.73,0.81-1.49,1.59-2.12,2.51c-2.66,3.54-4.16,8.09-4.2,12.78c0.04,4.69,1.54,9.24,4.2,12.78c0.63,0.91,1.39,1.7,2.12,2.51
					c0.81,0.73,1.57,1.48,2.45,2.09c1.7,1.27,3.55,2.28,5.47,2.95c3.81,1.45,7.82,1.57,11.37,0.96c3.58-0.63,6.67-2.19,9.13-4.03
					c2.47-1.86,4.28-4.05,5.54-6.15c1.25-2.11,2.05-4.1,2.44-5.78c0.26-0.83,0.36-1.59,0.47-2.25c0.13-0.66,0.18-1.22,0.2-1.68
					c0.03-0.43,0.06-0.77,0.08-1.04C429.15,136.39,429.17,136.27,429.18,136.27c0.01,0,0.01,0.12,0.01,0.36
					c-0.01,0.27-0.01,0.61-0.02,1.04c0,0.46-0.03,1.03-0.14,1.69c-0.09,0.67-0.18,1.44-0.42,2.28c-0.36,1.71-1.14,3.74-2.38,5.9
					c-1.25,2.15-3.08,4.4-5.57,6.31c-2.49,1.9-5.65,3.52-9.3,4.18c-3.63,0.64-7.73,0.55-11.65-0.93c-1.97-0.68-3.88-1.71-5.62-3.01
					c-0.9-0.62-1.7-1.39-2.52-2.14c-0.75-0.82-1.53-1.63-2.18-2.57c-2.74-3.63-4.29-8.31-4.33-13.13c0.04-4.82,1.59-9.5,4.33-13.13
					c0.65-0.94,1.43-1.75,2.18-2.57c0.83-0.75,1.62-1.52,2.52-2.14c1.75-1.3,3.65-2.33,5.62-3.01c3.92-1.47,8.02-1.57,11.65-0.93
					c3.65,0.67,6.81,2.29,9.3,4.18c2.5,1.92,4.32,4.16,5.57,6.31c1.24,2.16,2.02,4.19,2.38,5.9c0.24,0.84,0.33,1.62,0.42,2.28
					c0.11,0.66,0.14,1.23,0.14,1.69c0.01,0.43,0.02,0.78,0.02,1.05C429.19,136.15,429.19,136.27,429.18,136.27z"/>
			</g>
		</g>
	</g>
</g>
<g id="Buy_Icon">
</g>
<g id="Speech_Bubble">
	<g>
		<g>
			<g>
				<path style="fill:#042b62;" d="M397.66,130.17c1.37,2.09,2.75,4.17,4.12,6.26c0.19,0.3,0.39,0.59,0.58,0.89
					c0.26,0.39,0.81,0.6,1.24,0.32c1.76-1.14,3.51-2.29,5.27-3.43c-0.41-0.11-0.82-0.22-1.24-0.32c1.28,2.12,2.56,4.23,3.83,6.35
					c0.18,0.3,0.36,0.6,0.54,0.9c0.6,0.99,2.16,0.09,1.56-0.91c-1.28-2.12-2.56-4.23-3.83-6.35c-0.18-0.3-0.36-0.6-0.54-0.9
					c-0.24-0.4-0.82-0.59-1.24-0.32c-1.76,1.14-3.51,2.29-5.27,3.43c0.41,0.11,0.82,0.22,1.24,0.32c-1.37-2.09-2.75-4.17-4.12-6.26
					c-0.19-0.3-0.39-0.59-0.58-0.89C398.58,128.29,397.02,129.2,397.66,130.17L397.66,130.17z"/>
			</g>
			<polygon style="fill:#042b62;" points="408.67,141.28 415.42,137.03 415.42,143.85 			"/>
		</g>
	</g>
</g>
<g id="House">
	<g>
		<g>
			<g>
				<g>
					<g>
						<polygon style="fill:#042b62;" points="485.39,213.96 475.18,214.03 475.18,214.1 473.78,239.83 495.58,239.68 495.47,223.94 
													"/>
					</g>
				</g>
			</g>
			<g style="opacity:0.3;">
				<g>
					<g>
						<polygon points="485.39,213.96 475.18,214.03 475.18,214.1 473.78,239.83 495.58,239.68 495.47,223.94 						"/>
					</g>
				</g>
			</g>
			<g>
				<g>
					<g>
						<polygon style="fill:#042b62;" points="475.18,214.03 465.04,223.65 465.15,239.89 485.57,239.75 485.46,223.86 						"/>
					</g>
				</g>
			</g>
			<g style="opacity:0.3;">
				<g>
					<g>
						<g>
							
								<rect x="478.11" y="225.34" transform="matrix(1 -6.940713e-03 6.940713e-03 1 -1.5676 3.339)" style="fill:#FFFFFF;" width="4.35" height="4.35"/>
						</g>
					</g>
				</g>
			</g>
			<g style="opacity:0.3;">
				<g>
					<g>
						<g>
							
								<rect x="467.5" y="225.41" transform="matrix(1 -6.929048e-03 6.929048e-03 1 -1.5657 3.2599)" style="fill:#FFFFFF;" width="4.35" height="4.35"/>
						</g>
					</g>
				</g>
			</g>
			<g>
				<g>
					<g>
						
							<rect x="467.44" y="215.82" transform="matrix(1 -6.952378e-03 6.952378e-03 1 -1.5115 3.2627)" style="fill:#042b62;" width="2.18" height="6.45"/>
					</g>
				</g>
			</g>
			<g style="opacity:0.3;">
				<g>
					<g>
						<g>
							
								<rect x="471.91" y="231.83" transform="matrix(1 -6.933651e-03 6.933651e-03 1 -1.6237 3.2952)" width="5.06" height="7.99"/>
						</g>
					</g>
				</g>
			</g>
		</g>
		<g>
			<g>
				<path style="fill:#263238;" d="M485.39,213.96c0,0,0.02,0.01,0.05,0.04c0.04,0.04,0.09,0.08,0.14,0.13
					c0.13,0.13,0.32,0.3,0.55,0.53c0.49,0.48,1.19,1.16,2.07,2.02c1.78,1.75,4.31,4.24,7.32,7.2l0.15,0.15l-0.21,0
					c-3.02-0.02-6.41-0.05-10.01-0.08l-0.04,0l-0.03-0.03c-0.56-0.54-1.16-1.11-1.76-1.68c-3.07-2.94-5.97-5.72-8.51-8.15l0.12,0
					c-3.2,3.02-5.9,5.57-7.81,7.36c-0.95,0.88-1.7,1.59-2.22,2.07c-0.25,0.23-0.45,0.41-0.59,0.54c-0.06,0.06-0.11,0.1-0.15,0.14
					c-0.04,0.03-0.05,0.04-0.06,0.04c0,0,0.01-0.02,0.05-0.05c0.04-0.04,0.09-0.09,0.14-0.15c0.14-0.13,0.33-0.32,0.57-0.56
					c0.51-0.5,1.25-1.21,2.18-2.11c1.89-1.81,4.57-4.37,7.76-7.41l0.06-0.06l0.06,0.06c2.54,2.42,5.45,5.2,8.52,8.14
					c0.6,0.58,1.2,1.15,1.76,1.68l-0.07-0.03c3.6,0.04,6.99,0.07,10.01,0.1l-0.06,0.14c-2.99-2.98-5.5-5.48-7.27-7.25
					c-0.87-0.88-1.56-1.57-2.04-2.05c-0.23-0.23-0.41-0.42-0.53-0.55c-0.06-0.06-0.1-0.1-0.13-0.14
					C485.4,213.98,485.39,213.96,485.39,213.96z"/>
			</g>
		</g>
		<g>
			<g>
				<path style="fill:#263238;" d="M476.96,239.81c-0.01,0-0.01-0.05-0.02-0.15c0-0.12-0.01-0.27-0.02-0.45
					c-0.01-0.41-0.02-0.98-0.03-1.67c-0.01-1.45-0.03-3.43-0.05-5.71l0.09,0.09c-0.8,0-1.65,0.01-2.52,0.01
					c-0.87,0-1.71,0-2.51,0.01l0.09-0.09c-0.01,2.28-0.01,4.27-0.01,5.72c-0.01,0.69-0.02,1.25-0.02,1.67
					c-0.01,0.18-0.01,0.33-0.01,0.45c0,0.1-0.01,0.16-0.02,0.16c-0.01,0-0.01-0.05-0.02-0.15c0-0.12-0.01-0.27-0.02-0.45
					c-0.01-0.42-0.02-0.98-0.03-1.67c-0.01-1.45-0.03-3.44-0.05-5.72l0-0.09l0.09,0c0.79,0,1.64-0.01,2.51-0.01
					c0.87,0,1.72,0,2.52-0.01l0.09,0l0,0.09c-0.01,2.28-0.01,4.26-0.01,5.71c-0.01,0.69-0.02,1.25-0.02,1.67
					c-0.01,0.18-0.01,0.33-0.01,0.45C476.98,239.75,476.97,239.81,476.96,239.81z"/>
			</g>
		</g>
	</g>
</g>
<g id="Piggy_Bank">
	<g>
		<path style="fill:#042b62;" d="M167.57,112.79c0.07,0.11,1.61,4.67,2.1,4.7c0.5,0.02,1.7-0.18,1.7-0.18s0.15-6.14,0.23-6.54
			c0.08-0.4-0.01-1.24-0.01-1.24l-3.32,0.78L167.57,112.79z"/>
		<path style="fill:#042b62;" d="M162.46,114.76c0.13-0.02,1.09,2.84,1.73,2.82c0.64-0.02,2.07-0.05,2.07-0.17
			c0-0.12-0.18-3.95-0.18-3.95s-3.33,0.25-3.31,0.32C162.8,113.84,162.46,114.76,162.46,114.76z"/>
		<path style="fill:#042b62;" d="M155.25,114.4c-0.05,0.04,0.91,3.1,1.29,3.16c0.38,0.07,1.94-0.09,1.94-0.16c0-0.07,0.39-3,0.39-3
			S156.48,113.35,155.25,114.4z"/>
		<path style="fill:#042b62;" d="M150.72,113.98c0,0,1.06,3.08,1.44,3.28c0.39,0.2,2.01,0.13,2.01,0.13l-0.09-3.41l-4.13-2.31
			L150.72,113.98z"/>
		<path style="fill:#042b62;" d="M150.24,112.44c0.19,0.22,4.11,2.95,11.5,2.43s10.95-5.53,10.95-5.53l-28.41,0.36
			c0,0,0.65,1.84,3.53,1.84h2.11L150.24,112.44z"/>
		<g>
			<path style="fill:#263238;" d="M154.75,115.4c0.02,0,0.03,0.3,0.02,0.82c-0.01,0.52-0.03,1.27-0.06,2.16
				c0,0.06-0.05,0.11-0.11,0.11l0,0c-0.27,0-0.56,0.01-0.87,0.01c-0.05,0-0.09-0.03-0.11-0.06l0,0c-0.07-0.14-0.16-0.3-0.24-0.46
				l0.23-0.01c-0.06,0.15-0.12,0.3-0.19,0.46c-0.02,0.05-0.07,0.08-0.12,0.08c-0.36,0-0.74,0-1.12,0c-0.07,0-0.14,0-0.2,0
				c-0.05,0-0.1-0.03-0.12-0.08c-0.63-1.48-1.19-2.81-1.58-3.78s-0.61-1.57-0.58-1.58c0.03-0.01,0.31,0.56,0.75,1.51
				c0.43,0.95,1.02,2.27,1.65,3.75l-0.12-0.08c0.06,0,0.13,0,0.2,0c0.38,0,0.76,0,1.12,0l-0.12,0.08c0.07-0.16,0.13-0.31,0.19-0.46
				l0,0c0.03-0.06,0.1-0.09,0.16-0.07c0.03,0.01,0.05,0.03,0.06,0.06c0.08,0.16,0.16,0.32,0.23,0.46l-0.11-0.07
				c0.3,0,0.59,0.01,0.87,0.01l-0.11,0.11c0.06-0.89,0.11-1.64,0.16-2.16C154.69,115.69,154.72,115.4,154.75,115.4z"/>
		</g>
		<g>
			<path style="fill:#263238;" d="M166.51,114.86c0.03,0,0.06,0.37,0.08,1s0.04,1.5,0.05,2.51c0,0.07-0.05,0.12-0.12,0.13h0h0
				c-0.28,0-0.57,0-0.87,0c-0.05,0-0.09-0.03-0.11-0.07c-0.06-0.1-0.12-0.22-0.18-0.33l-0.05-0.09l0.23-0.01
				c-0.06,0.14-0.13,0.28-0.19,0.42c-0.02,0.05-0.07,0.08-0.12,0.08c-0.46,0-0.91-0.01-1.32-0.01h0c-0.05,0-0.09-0.03-0.1-0.07
				c-0.37-0.76-0.67-1.41-0.87-1.87c-0.21-0.46-0.31-0.74-0.29-0.75c0.02-0.01,0.18,0.24,0.42,0.69c0.24,0.44,0.57,1.08,0.96,1.83
				l-0.11-0.07c0.41,0,0.86-0.01,1.32-0.01l-0.12,0.08c0.06-0.14,0.12-0.28,0.19-0.42c0.03-0.07,0.11-0.09,0.17-0.07
				c0.03,0.01,0.05,0.03,0.06,0.06l0.05,0.09c0.06,0.11,0.12,0.22,0.18,0.33l-0.11-0.07c0.3,0,0.59,0,0.87,0l-0.12,0.12
				c0.01-1.01,0.02-1.89,0.05-2.51S166.48,114.86,166.51,114.86z"/>
		</g>
		<g>
			<path style="fill:#263238;" d="M148.79,112.37c0.05-0.06,1.26,0.91,2.96,1.75c1.7,0.85,3.2,1.25,3.18,1.32
				c-0.01,0.03-0.39-0.03-1-0.2c-0.61-0.17-1.43-0.46-2.29-0.89c-0.86-0.43-1.59-0.91-2.09-1.29
				C149.04,112.68,148.77,112.4,148.79,112.37z"/>
		</g>
		<g>
			<path style="fill:#263238;" d="M158.87,116.02c0-0.04,0.5-0.06,1.3-0.13c0.8-0.07,1.91-0.19,3.11-0.42
				c1.2-0.24,2.27-0.55,3.03-0.81c0.76-0.26,1.23-0.44,1.24-0.41c0.01,0.03-0.43,0.28-1.18,0.58c-0.75,0.31-1.83,0.65-3.05,0.89
				c-1.22,0.24-2.34,0.33-3.15,0.35C159.37,116.1,158.87,116.05,158.87,116.02z"/>
		</g>
		<g>
			<path style="fill:#263238;" d="M172.13,111.03c-0.01-0.01,0.09-0.13,0.27-0.35c0.18-0.23,0.45-0.57,0.75-1.03
				c0.6-0.92,1.36-2.36,1.68-4.31c0.17-0.97,0.22-2.05,0.13-3.2c-0.01-0.29-0.07-0.58-0.1-0.87c-0.06-0.29-0.1-0.59-0.18-0.89
				c-0.14-0.6-0.35-1.2-0.6-1.8c-1.01-2.39-2.98-4.64-5.58-6.14c-2.59-1.52-5.46-2.21-8.05-2.34c-2.61-0.16-4.95,0.32-6.81,0.96
				c-1.87,0.64-3.26,1.45-4.18,2.07c-0.23,0.15-0.43,0.3-0.6,0.42c-0.17,0.12-0.32,0.23-0.43,0.32c-0.23,0.18-0.35,0.27-0.36,0.26
				c-0.01-0.01,0.11-0.11,0.33-0.3c0.11-0.1,0.25-0.22,0.42-0.35c0.17-0.13,0.36-0.29,0.59-0.44c0.9-0.64,2.29-1.49,4.17-2.16
				c1.87-0.67,4.24-1.17,6.88-1.03c2.63,0.12,5.53,0.81,8.17,2.35c2.64,1.53,4.65,3.83,5.67,6.27c0.25,0.61,0.46,1.22,0.6,1.84
				c0.08,0.3,0.12,0.61,0.18,0.91c0.03,0.3,0.09,0.6,0.1,0.89c0.09,1.17,0.02,2.27-0.16,3.25c-0.35,1.98-1.15,3.43-1.78,4.34
				c-0.32,0.46-0.6,0.79-0.79,1C172.25,110.93,172.14,111.04,172.13,111.03z"/>
		</g>
		<g>
			<path style="fill:#263238;" d="M144.77,99.04c0.08,0.02-0.41,1.39-0.55,3.15c-0.14,1.76,0.18,3.18,0.1,3.19
				c-0.03,0.01-0.15-0.34-0.26-0.92c-0.1-0.58-0.18-1.4-0.1-2.29c0.07-0.9,0.26-1.69,0.44-2.25
				C144.58,99.36,144.74,99.03,144.77,99.04z"/>
		</g>
		<g>
			<path style="fill:#263238;" d="M148.6,112.29c0-0.05,0.89-0.01,2.24-0.4c0.67-0.2,1.45-0.52,2.2-1.06
				c0.36-0.28,0.72-0.61,0.99-1.02c0.27-0.41,0.44-0.9,0.44-1.42c0-0.52-0.11-1.03-0.31-1.48c-0.21-0.45-0.52-0.82-0.85-1.13
				c-0.33-0.31-0.71-0.54-1.08-0.72c-0.09-0.04-0.18-0.09-0.27-0.13c-0.09-0.04-0.18-0.07-0.27-0.11c-0.18-0.07-0.35-0.12-0.52-0.18
				c-1.35-0.38-2.25-0.33-2.25-0.38c0-0.02,0.22-0.03,0.62-0.03c0.4,0.01,0.98,0.06,1.68,0.24c0.17,0.05,0.36,0.09,0.54,0.16
				c0.09,0.03,0.19,0.06,0.28,0.1c0.09,0.04,0.19,0.08,0.29,0.13c0.38,0.18,0.78,0.41,1.14,0.74c0.36,0.32,0.7,0.71,0.92,1.2
				c0.22,0.48,0.34,1.02,0.34,1.59c0,0.57-0.19,1.11-0.49,1.55c-0.3,0.44-0.68,0.78-1.06,1.07c-0.79,0.55-1.6,0.86-2.29,1.04
				c-0.7,0.18-1.27,0.23-1.67,0.25C148.82,112.33,148.6,112.31,148.6,112.29z"/>
		</g>
		<g>
			<path style="fill:#263238;" d="M161.51,98.19c-0.04,0.01-0.25-0.64-0.68-1.67c-0.21-0.51-0.47-1.12-0.83-1.75
				c-0.18-0.32-0.37-0.64-0.62-0.94c-0.12-0.15-0.26-0.29-0.41-0.4c-0.08-0.06-0.16-0.1-0.24-0.14c-0.04-0.02-0.08-0.02-0.12-0.03
				c-0.04,0-0.09,0-0.13,0c-0.18,0.01-0.37,0.09-0.54,0.19c-0.17,0.1-0.33,0.21-0.49,0.33c-0.31,0.24-0.58,0.51-0.83,0.77
				c-0.5,0.53-0.92,1.04-1.26,1.47c-0.69,0.87-1.08,1.44-1.11,1.41c-0.01-0.01,0.06-0.16,0.23-0.43c0.16-0.27,0.41-0.64,0.74-1.1
				c0.33-0.45,0.73-0.98,1.23-1.53c0.25-0.27,0.53-0.55,0.85-0.81c0.16-0.13,0.33-0.25,0.52-0.36c0.19-0.11,0.4-0.2,0.64-0.22
				c0.06,0,0.12,0,0.19,0c0.06,0.02,0.13,0.03,0.18,0.05c0.11,0.05,0.21,0.1,0.3,0.17c0.18,0.13,0.33,0.29,0.46,0.45
				c0.26,0.32,0.46,0.66,0.64,0.99c0.35,0.66,0.59,1.28,0.79,1.8c0.19,0.52,0.32,0.96,0.41,1.26
				C161.5,98.02,161.53,98.19,161.51,98.19z"/>
		</g>
		<g>
			<path style="fill:#263238;" d="M144.87,93.83c-0.02-0.01,0.04-0.09,0.19-0.15c0.15-0.06,0.37-0.11,0.65-0.11
				c0.56-0.01,1.31,0.13,2.11,0.36c1.6,0.46,2.82,1.05,2.79,1.11c-0.03,0.07-1.28-0.41-2.86-0.86c-0.79-0.23-1.51-0.39-2.04-0.43
				c-0.26-0.02-0.48,0-0.62,0.02C144.95,93.8,144.88,93.85,144.87,93.83z"/>
		</g>
		<g>
			<path style="fill:#263238;" d="M154.89,91.74c-0.01,0,0.18-0.09,0.59-0.27c0.21-0.09,0.45-0.15,0.74-0.25
				c0.14-0.05,0.3-0.08,0.47-0.12c0.17-0.04,0.34-0.09,0.54-0.12c1.51-0.3,3.69-0.4,6.1,0.04c0.02,0,0.04,0.01,0.05,0.02l0,0
				c0.41,0.35,0.85,0.72,1.29,1.09c0.04,0.03,0.08,0.06,0.11,0.1c0.05,0.05,0.06,0.13,0.01,0.18c-0.04,0.04-0.09,0.06-0.14,0.04
				c-0.91-0.31-1.83-0.46-2.71-0.53c-0.88-0.07-1.71-0.06-2.47-0.02c-1.52,0.09-2.76,0.31-3.55,0.49l0,0c-0.01,0-0.03,0-0.04-0.01
				c-0.35-0.22-0.6-0.39-0.76-0.5C154.96,91.79,154.88,91.74,154.89,91.74c0.01,0,0.11,0.05,0.29,0.15c0.18,0.1,0.44,0.23,0.76,0.41
				l-0.05-0.01c0.8-0.22,2.03-0.47,3.57-0.59c0.77-0.05,1.61-0.07,2.5-0.01c0.89,0.07,1.84,0.22,2.77,0.53l-0.13,0.22
				c-0.04-0.03-0.07-0.06-0.11-0.1c-0.44-0.38-0.87-0.74-1.29-1.1l0.06,0.03c-2.36-0.44-4.52-0.37-6.02-0.13
				c-0.19,0.02-0.36,0.07-0.53,0.1c-0.17,0.04-0.33,0.06-0.47,0.1c-0.29,0.08-0.55,0.14-0.73,0.2
				C155.15,91.66,154.9,91.74,154.89,91.74z"/>
		</g>
		<g>
			<path style="fill:#263238;" d="M152.94,108.25c-0.03,0,0-0.41-0.24-1.08c-0.13-0.33-0.32-0.72-0.64-1.11
				c-0.32-0.38-0.76-0.76-1.31-1.07c-1.09-0.61-2.68-0.9-4.29-0.46c-0.4,0.11-0.79,0.28-1.18,0.48c-0.38,0.22-0.73,0.48-1.05,0.8
				c-0.63,0.64-1.05,1.53-1.05,2.47c0,0.95,0.39,1.85,1.02,2.5c0.62,0.65,1.44,1.02,2.25,1.22c0.81,0.18,1.62,0.22,2.35,0.13
				c0.73-0.09,1.4-0.32,1.95-0.63c0.55-0.31,0.99-0.68,1.31-1.07c0.33-0.38,0.52-0.78,0.64-1.11
				C152.94,108.66,152.91,108.25,152.94,108.25c0.01,0,0.01,0.1,0.01,0.29c0,0.1-0.01,0.21-0.04,0.35c-0.01,0.14-0.06,0.3-0.11,0.47
				c-0.11,0.34-0.3,0.76-0.62,1.17c-0.32,0.41-0.77,0.81-1.33,1.14c-0.56,0.33-1.25,0.57-2.01,0.68c-0.76,0.1-1.59,0.08-2.44-0.11
				c-0.84-0.2-1.7-0.59-2.37-1.28c-0.67-0.68-1.09-1.65-1.09-2.67c-0.01-1.02,0.45-1.99,1.12-2.65c0.34-0.34,0.71-0.61,1.11-0.84
				c0.4-0.21,0.81-0.39,1.23-0.49c1.68-0.44,3.32-0.12,4.45,0.54c0.57,0.33,1.01,0.73,1.33,1.14c0.33,0.41,0.51,0.82,0.62,1.17
				c0.05,0.17,0.1,0.33,0.11,0.47c0.02,0.14,0.04,0.25,0.04,0.35C152.95,108.15,152.95,108.25,152.94,108.25z"/>
		</g>
		<g>
			<path style="fill:#263238;" d="M146.23,110.15c-0.01-0.02,0.14-0.01,0.28-0.16c0.07-0.08,0.12-0.19,0.1-0.34
				c-0.01-0.16-0.01-0.35-0.02-0.54c-0.01-0.41-0.02-0.89-0.03-1.42c0-0.27,0-0.55-0.01-0.84c0.01-0.13-0.04-0.22-0.12-0.29
				c-0.04-0.03-0.09-0.06-0.15-0.07c-0.04-0.01-0.13,0-0.21-0.01c-0.11,0-0.22,0.06-0.28,0.15c-0.03,0.05-0.05,0.1-0.05,0.15
				c0,0.05,0,0.14,0,0.21c0,0.29-0.01,0.57-0.01,0.84c-0.01,0.53-0.02,1.01-0.03,1.42c0,0.1-0.01,0.2-0.01,0.29
				c0,0.09-0.01,0.18,0,0.24c0.02,0.13,0.11,0.23,0.2,0.28c0.09,0.05,0.17,0.06,0.23,0.07
				C146.19,110.13,146.23,110.14,146.23,110.15c0,0.01-0.03,0.02-0.09,0.03c-0.06,0.01-0.16,0.02-0.27-0.03
				c-0.11-0.05-0.25-0.16-0.3-0.34c-0.02-0.1-0.02-0.18-0.02-0.27c0-0.09-0.01-0.19-0.01-0.29c-0.01-0.41-0.02-0.89-0.03-1.42
				c0-0.27,0-0.55-0.01-0.84c0-0.08,0-0.14,0-0.23c0.01-0.09,0.04-0.19,0.09-0.27c0.1-0.16,0.29-0.27,0.49-0.27
				c0.08,0,0.15-0.01,0.25,0.01c0.1,0.02,0.19,0.06,0.26,0.12c0.07,0.06,0.13,0.14,0.17,0.23c0.04,0.08,0.05,0.19,0.04,0.26
				c0,0.29-0.01,0.57-0.01,0.84c-0.01,0.53-0.02,1.01-0.03,1.42c-0.01,0.2-0.01,0.38-0.02,0.54c0.01,0.17-0.08,0.33-0.18,0.41
				C146.37,110.21,146.22,110.16,146.23,110.15z"/>
		</g>
		<g>
			<path style="fill:#263238;" d="M149.07,110.15c-0.01-0.02,0.14-0.01,0.28-0.16c0.07-0.08,0.12-0.19,0.1-0.34
				c-0.01-0.16-0.01-0.35-0.02-0.54c-0.01-0.41-0.02-0.89-0.03-1.42c0-0.27,0-0.55-0.01-0.84c0.01-0.13-0.04-0.22-0.12-0.29
				c-0.04-0.03-0.09-0.06-0.15-0.07c-0.04-0.01-0.13,0-0.21-0.01c-0.11,0-0.22,0.06-0.28,0.15c-0.03,0.05-0.05,0.1-0.05,0.15
				c0,0.05,0,0.14,0,0.21c0,0.29-0.01,0.57-0.01,0.84c-0.01,0.53-0.02,1.01-0.03,1.42c0,0.1-0.01,0.2-0.01,0.29
				c0,0.09-0.01,0.18,0,0.24c0.02,0.13,0.11,0.23,0.2,0.28c0.09,0.05,0.17,0.06,0.23,0.07
				C149.03,110.13,149.07,110.14,149.07,110.15c0,0.01-0.03,0.02-0.09,0.03c-0.06,0.01-0.16,0.02-0.27-0.03
				c-0.11-0.05-0.25-0.16-0.3-0.34c-0.02-0.1-0.02-0.18-0.02-0.27c0-0.09-0.01-0.19-0.01-0.29c-0.01-0.41-0.02-0.89-0.03-1.42
				c0-0.27,0-0.55-0.01-0.84c0-0.08,0-0.14,0-0.23c0.01-0.09,0.04-0.19,0.09-0.27c0.1-0.16,0.29-0.27,0.49-0.27
				c0.08,0,0.15-0.01,0.25,0.01c0.1,0.02,0.19,0.06,0.26,0.12c0.07,0.06,0.13,0.14,0.17,0.23c0.04,0.08,0.05,0.19,0.04,0.26
				c0,0.29-0.01,0.57-0.01,0.84c-0.01,0.53-0.02,1.01-0.03,1.42c-0.01,0.2-0.01,0.38-0.02,0.54c0.01,0.17-0.08,0.33-0.18,0.41
				C149.21,110.21,149.06,110.16,149.07,110.15z"/>
		</g>
		<g>
			<path style="fill:#263238;" d="M144.77,99.04c-0.04,0-0.13-0.66-0.25-1.73c-0.06-0.54-0.13-1.17-0.18-1.89
				c-0.01-0.18-0.01-0.37-0.01-0.56c0.01-0.19,0.02-0.39,0.08-0.59c0.06-0.2,0.18-0.41,0.38-0.55c0.2-0.14,0.43-0.18,0.65-0.17
				c0.24,0.01,0.45,0.09,0.63,0.16c0.19,0.08,0.37,0.17,0.54,0.26c0.35,0.18,0.67,0.37,0.98,0.55c0.61,0.37,1.15,0.72,1.6,1.02
				c0.45,0.3,0.8,0.55,1.05,0.73c0.24,0.18,0.37,0.29,0.36,0.3c-0.02,0.03-0.59-0.32-1.5-0.88c-0.46-0.28-1.01-0.61-1.62-0.96
				c-0.31-0.18-0.63-0.36-0.98-0.53c-0.17-0.09-0.35-0.17-0.53-0.24c-0.18-0.08-0.36-0.14-0.53-0.14c-0.19,0-0.37,0.03-0.51,0.13
				c-0.14,0.09-0.23,0.24-0.28,0.41c-0.1,0.34-0.09,0.72-0.08,1.07c0.04,0.71,0.09,1.35,0.12,1.88
				C144.78,98.37,144.81,99.04,144.77,99.04z"/>
		</g>
		<g>
			<path style="fill:#263238;" d="M167.39,113.49c-0.01,0-0.05-0.07-0.09-0.22c-0.02-0.08-0.03-0.17-0.01-0.29
				c0.01-0.12,0.05-0.24,0.09-0.38c0.09-0.28,0.21-0.62,0.43-0.97c0.22-0.36,0.54-0.72,0.99-1.01c0.44-0.29,1-0.49,1.61-0.57
				c0.15-0.02,0.31-0.04,0.47-0.05c0.16-0.02,0.35,0,0.51,0.06c0.34,0.12,0.62,0.42,0.71,0.79c0.02,0.09,0.03,0.19,0.03,0.28
				c0,0.09,0,0.17,0,0.26c0,0.17-0.01,0.35-0.01,0.53c-0.01,0.36-0.01,0.72-0.02,1.09c-0.02,0.74-0.03,1.51-0.05,2.29
				c-0.03,1.07-0.05,2.11-0.07,3.1c0,0.07-0.06,0.12-0.12,0.12c-0.17,0-0.33,0-0.49,0c-0.04,0-0.07-0.02-0.1-0.05
				c-0.12-0.15-0.24-0.31-0.36-0.46l0.19-0.01c-0.1,0.15-0.21,0.3-0.31,0.45l0,0c-0.02,0.03-0.06,0.05-0.1,0.05
				c-0.48,0-0.95-0.01-1.39-0.01h0c-0.05,0-0.08-0.03-0.1-0.07c-0.57-1.48-1.03-2.72-1.35-3.58c-0.16-0.43-0.28-0.77-0.36-1.01
				C167.42,113.62,167.38,113.5,167.39,113.49c0.01,0,0.07,0.11,0.17,0.34c0.1,0.23,0.24,0.56,0.42,0.98
				c0.35,0.85,0.85,2.07,1.44,3.55l-0.1-0.07c0.44,0,0.91-0.01,1.39-0.01l-0.1,0.05c0.1-0.15,0.2-0.3,0.3-0.46
				c0.04-0.06,0.11-0.07,0.17-0.03c0.01,0.01,0.02,0.02,0.03,0.03c0.12,0.15,0.24,0.3,0.36,0.45l-0.1-0.05c0.16,0,0.33,0,0.49,0
				l-0.12,0.12c0.02-0.98,0.04-2.02,0.06-3.1c0.02-0.79,0.04-1.55,0.05-2.29c0.01-0.37,0.02-0.73,0.03-1.09
				c0-0.18,0.01-0.35,0.01-0.53c0-0.09,0-0.17,0.01-0.26c0-0.08-0.01-0.15-0.02-0.22c-0.07-0.29-0.29-0.54-0.56-0.63
				c-0.14-0.05-0.27-0.06-0.42-0.05c-0.15,0.01-0.3,0.02-0.45,0.04c-0.59,0.07-1.12,0.25-1.54,0.51c-0.42,0.26-0.74,0.6-0.96,0.94
				c-0.22,0.33-0.36,0.66-0.46,0.92C167.24,113.17,167.43,113.49,167.39,113.49z"/>
		</g>
		<g>
			<path style="fill:#263238;" d="M158.87,116.02c-0.02,0-0.06-0.12-0.16-0.33c-0.11-0.21-0.29-0.51-0.62-0.79
				c-0.32-0.27-0.83-0.45-1.4-0.38c-0.56,0.06-1.15,0.45-1.5,1.02l0.01-0.11c0.21,0.55,0.44,1.13,0.68,1.74
				c0.15,0.4,0.3,0.8,0.45,1.18l-0.12-0.08c0.56,0,1.09,0.01,1.58,0.01l-0.1,0.06c0.11-0.18,0.22-0.35,0.33-0.52l0,0
				c0.03-0.05,0.1-0.07,0.15-0.03c0.02,0.01,0.03,0.02,0.04,0.04c0.11,0.18,0.21,0.36,0.31,0.52l-0.09-0.05c0.14,0,0.27,0,0.39,0.01
				l-0.1,0.09c0.03-0.73,0.06-1.32,0.09-1.73C158.83,116.25,158.85,116.02,158.87,116.02s0.03,0.22,0.04,0.64
				c0.01,0.41,0.01,1.01,0,1.75c0,0.05-0.04,0.09-0.09,0.09l0,0c-0.13,0-0.26,0-0.39,0.01c-0.04,0-0.07-0.02-0.09-0.05l0,0
				c-0.1-0.16-0.21-0.34-0.32-0.51l0.19,0c-0.1,0.17-0.21,0.34-0.32,0.52c-0.02,0.04-0.06,0.06-0.1,0.06h0
				c-0.5,0-1.03,0.01-1.58,0.01c-0.05,0-0.1-0.03-0.12-0.08c-0.15-0.38-0.3-0.77-0.45-1.17c-0.23-0.61-0.46-1.2-0.67-1.75l0-0.01
				c-0.01-0.03-0.01-0.07,0.01-0.1c0.41-0.64,1.06-1.05,1.7-1.11c0.63-0.06,1.19,0.16,1.53,0.47c0.34,0.31,0.5,0.64,0.59,0.87
				C158.87,115.89,158.88,116.02,158.87,116.02z"/>
		</g>
		<circle style="fill:#263238;" cx="148.27" cy="102.14" r="0.73"/>
		<path style="fill:#263238;" d="M156.21,102.14c0,0.4-0.33,0.73-0.73,0.73c-0.4,0-0.73-0.33-0.73-0.73c0-0.4,0.33-0.73,0.73-0.73
			C155.88,101.41,156.21,101.74,156.21,102.14z"/>
		<path style="opacity:0.3;" d="M144.27,109.69c0.15,0,7.76,0.88,13.92,0.88c8.37,0,14.49-1.24,14.49-1.24L144.27,109.69z"/>
		<g>
			<path style="fill:#263238;" d="M179.37,100.19c0.01,0.01-0.06,0.16-0.27,0.36c-0.21,0.2-0.58,0.45-1.11,0.53
				c-0.52,0.09-1.21-0.05-1.75-0.53c-0.26-0.24-0.5-0.55-0.6-0.94c-0.05-0.19-0.06-0.41,0.01-0.62c0.06-0.21,0.22-0.4,0.41-0.51
				c0.19-0.11,0.39-0.17,0.59-0.2c0.2-0.03,0.41-0.03,0.61,0.03c0.2,0.05,0.39,0.2,0.49,0.39c0.1,0.19,0.1,0.4,0.07,0.58
				c-0.07,0.37-0.29,0.66-0.52,0.87c-0.24,0.21-0.5,0.35-0.76,0.43c-0.51,0.16-0.96,0.11-1.23,0.02c-0.28-0.09-0.41-0.19-0.4-0.2
				c0.01-0.02,0.15,0.05,0.43,0.11c0.27,0.05,0.69,0.07,1.15-0.1c0.23-0.09,0.46-0.22,0.67-0.41c0.2-0.2,0.38-0.45,0.43-0.75
				c0.02-0.15,0.01-0.3-0.05-0.43c-0.07-0.12-0.19-0.22-0.34-0.26c-0.3-0.08-0.7-0.02-1,0.15c-0.15,0.09-0.25,0.22-0.3,0.37
				c-0.05,0.15-0.04,0.32,0,0.48c0.08,0.33,0.28,0.61,0.52,0.82c0.47,0.44,1.08,0.58,1.56,0.53c0.49-0.05,0.85-0.26,1.07-0.43
				C179.26,100.3,179.36,100.17,179.37,100.19z"/>
		</g>
	</g>
</g>
<g id="Credit_Card">
	<g>
		<g>
			<path style="fill:#042b62;" d="M126.74,335.05l-24.97,4.78c-3.95,0.76-7.76-1.83-8.52-5.78l-2.33-12.18
				c-0.76-3.95,1.83-7.76,5.78-8.52l24.97-4.78c3.95-0.76,7.76,1.83,8.52,5.78l2.33,12.18C133.27,330.48,130.69,334.3,126.74,335.05
				z"/>
		</g>
		<g style="opacity:0.3;">
			
				<rect x="90.81" y="316.64" transform="matrix(0.9822 -0.1881 0.1881 0.9822 -58.1043 26.5403)" style="fill:#FFFFFF;" width="39.99" height="5.65"/>
		</g>
		<g>
			<g>
				<path style="fill:#263238;" d="M110.8,331.97c0.01,0.06-3.18,0.73-7.13,1.48c-3.95,0.76-7.16,1.32-7.17,1.25
					c-0.01-0.06,3.18-0.73,7.13-1.48C107.58,332.47,110.79,331.9,110.8,331.97z"/>
			</g>
		</g>
		<g>
			<g>
				<path style="fill:#263238;" d="M113.57,330.12c0.01,0.06-3.85,0.86-8.63,1.77c-4.78,0.92-8.67,1.61-8.68,1.54
					c-0.01-0.06,3.85-0.86,8.63-1.77C109.67,330.75,113.56,330.06,113.57,330.12z"/>
			</g>
		</g>
	</g>
	<path style="fill:#FFFFFF;" d="M126.93,327.94l-2.06,0.39c-0.73,0.14-1.44-0.34-1.58-1.07l-0.39-2.06
		c-0.14-0.73,0.34-1.44,1.07-1.58l2.06-0.39c0.73-0.14,1.44,0.34,1.58,1.07l0.39,2.06C128.14,327.09,127.66,327.8,126.93,327.94z"/>
</g>
<g id="Character_00000035511241625499820420000003876118771081521067_">
	<g>
		<path style="fill:#263238;" d="M346.75,386.91l6.07,63.87H205.28c0,0,4-68.15,8.62-68.15
			C218.51,382.64,346.75,386.91,346.75,386.91z"/>
		<g>
			<g>
				<g>
					<g>
						<g>
							<g>
								<path style="fill:#263238;" d="M205.23,106.29c0.71-3.81,1.78-7.63,3.93-10.85c2.16-3.22,5.56-5.78,9.41-6.17
									c3.86-0.39,8.04,1.79,9.27,5.47l2.96,0.25c-4.55,4.46-6.16,11.09-6.93,17.41c-0.78,6.32,0.6,11.8-1.91,17.65
									c-3.89-3.09-8.41-6.3-9.92-11.03c-0.85,3.24-0.46,6.79,1.08,9.78c-4.04-1.55-6.84-5.46-7.94-9.64
									C204.06,114.97,204.44,110.54,205.23,106.29z"/>
							</g>
						</g>
					</g>
					<g>
						<g>
							<g>
								<path style="fill:#263238;" d="M223.12,91.13c-0.71-13.47,15.15-19.6,25.67-22.12c10.52-2.52,21.78,0.17,31.03,5.54
									c9.25,5.36,16.73,13.2,23.4,21.46c-2.43,1.01-4.86,2.03-7.29,3.04c2.05-0.95,4.59,0.18,5.88,1.98
									c1.3,1.8,1.65,4.08,1.94,6.28c0.68,5.25,1.17,10.54,1.02,15.84c-0.39,13.86-5.09,27.27-9.73,40.42
									c-4.65-9.45-5.55-20.24-6.03-30.77c-0.17-3.73-0.38-7.71-2.6-10.73c-1.99-2.72-5.31-4.2-8.64-5
									c-3.32-0.8-6.78-1.03-10.09-1.86c-7.42-1.85-13.95-6.78-17.64-13.33L223.12,91.13z"/>
							</g>
						</g>
					</g>
					<g>
						<g>
							<g>
								<g>
									<g>
										<g>
											<g>
												<g>
													<g>
														<g>
															<g>
																<g>
																	<g>
																		<g>
																			<g>
																				<g>
																					<g>
																						<g>
																							<g>
																								<path style="fill:#FFBF9D;" d="M288.25,111.38l16.08,77.12c2.73,13.11,4.07,32.94-16.86,36.31l0,0
																									c-18.38,1.56-26.49-14.54-29.03-26.78c-1.2-5.81-2.22-10.65-2.38-11.23c0,0-20.02,2.25-25.49-16.89
																									c-2.64-9.25-6.54-28.74-9.85-46.41c-3.56-18.98,8.07-37.51,26.7-42.59l1.85-0.51
																									C269.57,76.13,284.54,90.98,288.25,111.38z"/>
																							</g>
																						</g>
																					</g>
																				</g>
																			</g>
																		</g>
																	</g>
																</g>
															</g>
														</g>
													</g>
												</g>
											</g>
										</g>
									</g>
								</g>
							</g>
						</g>
						<g>
							<g>
								<g>
									<g>
										<g>
											<g>
												<g>
													<g>
														<g>
															<g>
																<g>
																	<g>
																		<g>
																			<g>
																				<g>
																					<g>
																						<g>
																							<g>
																								<path style="fill:#FF9A6C;" d="M256.06,186.79c0,0,12.3-2.59,22.98-14.2c0,0-2.28,15.69-21.91,19.18
																									L256.06,186.79z"/>
																							</g>
																						</g>
																					</g>
																				</g>
																			</g>
																		</g>
																	</g>
																</g>
															</g>
														</g>
													</g>
												</g>
											</g>
										</g>
									</g>
								</g>
							</g>
						</g>
						<g>
							<g>
								<g>
									<g>
										<g>
											<g>
												<g>
													<g>
														<g>
															<g>
																<g>
																	<g>
																		<g>
																			<g>
																				<g>
																					<g>
																						<g>
																							<g>
																								<g>
																									<g>
																										<g>
																											<path style="fill:#263238;" d="M251.82,149.24c-0.03-0.17-1.95,0.01-5.03,0.44
																												c-0.77,0.13-1.53,0.17-1.8-0.31c-0.33-0.5-0.23-1.39-0.11-2.37c0.21-2.02,0.43-4.13,0.66-6.34
																												c0.87-9.01,1.28-16.34,0.91-16.37c-0.36-0.03-1.36,7.25-2.23,16.26c-0.2,2.22-0.38,4.33-0.56,6.35
																												c-0.05,0.93-0.28,2.04,0.42,3.06c0.36,0.51,1.02,0.77,1.54,0.76c0.52,0.02,0.95-0.09,1.33-0.17
																												C250,149.9,251.86,149.41,251.82,149.24z"/>
																										</g>
																									</g>
																								</g>
																							</g>
																						</g>
																					</g>
																				</g>
																			</g>
																		</g>
																	</g>
																</g>
															</g>
														</g>
													</g>
												</g>
											</g>
										</g>
									</g>
								</g>
							</g>
						</g>
						<g>
							<g>
								<g>
									<g>
										<g>
											<g>
												<g>
													<g>
														<g>
															<g>
																<g>
																	<g>
																		<g>
																			<path style="fill:#FFBF9D;" d="M290.56,126.02c0.29-0.23,12.13-7.5,15.29,5.74c3.16,13.24-10.79,13.68-10.9,13.3
																				C294.83,144.7,290.56,126.02,290.56,126.02z"/>
																		</g>
																	</g>
																</g>
															</g>
														</g>
													</g>
												</g>
											</g>
										</g>
									</g>
								</g>
							</g>
						</g>
						<g>
							<g>
								<g>
									<g>
										<g>
											<g>
												<g>
													<g>
														<g>
															<g>
																<g>
																	<g>
																		<g>
																			<g>
																				<path style="fill:#FF9A6C;" d="M297.79,139.09c0.05-0.06,0.27,0.11,0.7,0.19c0.42,0.08,1.1,0.05,1.73-0.38
																					c1.28-0.85,1.92-3.35,1.42-5.75c-0.25-1.21-0.78-2.3-1.43-3.15c-0.64-0.87-1.42-1.4-2.16-1.36
																					c-0.74,0.01-1.14,0.55-1.21,0.96c-0.09,0.41,0.06,0.66-0.01,0.7c-0.03,0.04-0.34-0.15-0.36-0.73
																					c-0.01-0.28,0.07-0.63,0.32-0.95c0.26-0.33,0.69-0.58,1.19-0.64c1.04-0.17,2.18,0.55,2.9,1.48
																					c0.78,0.92,1.4,2.14,1.68,3.5c0.55,2.69-0.22,5.51-2,6.52c-0.87,0.46-1.72,0.37-2.19,0.15
																					C297.89,139.4,297.75,139.12,297.79,139.09z"/>
																			</g>
																		</g>
																	</g>
																</g>
															</g>
														</g>
													</g>
												</g>
											</g>
										</g>
									</g>
								</g>
							</g>
						</g>
					</g>
					<g>
						<g>
							<g>
								<path style="fill:#263238;" d="M224.51,97.98c-4.33-7.41,1.23-12.92,6.84-19.42c5.61-6.5,15.48-8.9,23.44-5.71
									c4.17,1.67,7.68,4.64,11.55,6.91c3.88,2.27,8.57,3.87,12.84,2.46c-3.23,5.66-10.27,8.86-16.66,7.58
									c6.43,4.49,14.21,7.02,22.05,7.19c-4.53,5.09-12.95,6.11-18.56,2.25c3.41,5.71,8.25,10.56,13.95,13.98
									c0.97,0.58,2.09,1.35,2.05,2.47c-0.04,1.15-1.27,1.85-2.36,2.21c-6.35,2.1-13.8,0.39-18.61-4.27
									c-5.17-5.01-9.23-10.72-14.13-15.99c-2.33-2.51-8.62-6.28-12.56-5.33c-3.29,0.79-9.18,3.6-9.9,6.9"/>
							</g>
						</g>
					</g>
					<g>
						<g>
							<g>
								<path style="fill:#263238;" d="M252.18,82.78c0.3-1.1,1.36-1.8,2.4-2.28c6.88-3.22,15.39-0.85,21.19,4.05
									c5.81,4.9,9.4,11.89,12.38,18.88c2.42,5.68,4.57,11.7,4.17,17.85l-2.23,5.64c-0.69,1.66-0.19,3.55-0.14,5.35
									c0.05,1.8-0.76,3.98-2.55,4.21c-1.32,0.17-2.51-0.86-3.22-1.98c-2.15-3.38-1.75-7.96-4.03-11.26
									c-1.53-2.21-4.02-3.51-6.12-5.19c-3.72-2.97-6.22-7.15-8.65-11.24c-4.09-6.88-8.17-13.76-12.26-20.64
									C252.51,85.14,251.87,83.94,252.18,82.78z"/>
							</g>
						</g>
					</g>
					<g>
						<g>
							<g>
								<path style="fill:#263238;" d="M224.51,97.98c-4.33-7.41,1.23-12.92,6.84-19.42c5.61-6.5,15.48-8.9,23.44-5.71
									c4.17,1.67,7.68,4.64,11.55,6.91c3.88,2.27,8.57,3.87,12.84,2.46c-3.23,5.66-10.27,8.86-16.66,7.58
									c6.43,4.49,14.21,7.02,22.05,7.19c-4.53,5.09-12.95,6.11-18.56,2.25c3.41,5.71,8.25,10.56,13.95,13.98
									c0.97,0.58,2.09,1.35,2.05,2.47c-0.04,1.15-1.27,1.85-2.36,2.21c-6.35,2.1-13.8,0.39-18.61-4.27
									c-5.17-5.01-9.23-10.72-14.13-15.99c-2.33-2.51-8.62-6.28-12.56-5.33c-3.29,0.79-9.18,3.6-9.9,6.9"/>
							</g>
						</g>
					</g>
					<g>
						<g>
							<g>
								<g>
									<path style="fill:#455A64;" d="M265.33,84.73c0-0.07-0.7-0.02-1.93-0.18c-1.23-0.16-2.97-0.61-4.97-1.57
										c-2.02-0.92-4.24-2.38-6.88-3.79c-1.32-0.69-2.77-1.37-4.37-1.81c-1.59-0.44-3.35-0.63-5.11-0.4
										c-3.53,0.44-6.57,2.15-8.82,4.14c-2.28,2-3.82,4.28-4.95,6.22c-1.12,1.96-1.84,3.64-2.31,4.81
										c-0.46,1.17-0.67,1.84-0.62,1.86c0.15,0.07,1.14-2.55,3.44-6.36c1.18-1.87,2.73-4.05,4.95-5.94
										c2.19-1.88,5.11-3.48,8.41-3.89c3.32-0.45,6.42,0.73,9.01,2.07c2.61,1.35,4.9,2.78,7,3.65c2.08,0.91,3.92,1.29,5.19,1.35
										C264.64,84.94,265.34,84.77,265.33,84.73z"/>
								</g>
							</g>
						</g>
					</g>
					<g>
						<g>
							<g>
								<g>
									<path style="fill:#455A64;" d="M258.61,98.68c0.07-0.11-1.73-1.33-4.28-3.75c-1.29-1.19-2.79-2.67-4.62-4.16
										c-1.82-1.48-4.07-2.95-6.76-3.67c-2.68-0.73-5.39-0.65-7.71-0.06c-2.33,0.6-4.23,1.7-5.62,2.84
										c-1.4,1.14-2.3,2.29-2.85,3.12c-0.54,0.84-0.75,1.35-0.71,1.38c0.14,0.11,1.14-1.93,3.93-4.03
										c1.38-1.03,3.22-2.03,5.43-2.55c2.2-0.52,4.77-0.57,7.3,0.12c2.53,0.68,4.69,2.06,6.5,3.47c1.82,1.42,3.36,2.85,4.71,3.99
										c1.34,1.15,2.49,2.02,3.32,2.56C258.08,98.48,258.58,98.72,258.61,98.68z"/>
								</g>
							</g>
						</g>
					</g>
					<g>
						<g>
							<g>
								<g>
									<path style="fill:#455A64;" d="M213.6,109.51c0.13,0,0.22-1.22,0.58-3.14c0.37-1.91,1.08-4.56,2.71-7.01
										c1.63-2.44,3.91-4.01,5.69-4.72c1.79-0.73,3.04-0.74,3.03-0.89c0.01-0.08-1.28-0.3-3.23,0.33
										c-1.94,0.59-4.44,2.2-6.19,4.81c-1.74,2.61-2.38,5.41-2.6,7.39C213.37,108.27,213.5,109.51,213.6,109.51z"/>
								</g>
							</g>
						</g>
					</g>
					<g>
						<g>
							<g>
								<g>
									<path style="fill:#455A64;" d="M273.65,117.43c0,0.02,0.2,0.01,0.59-0.01c0.39-0.03,0.97-0.1,1.71-0.26
										c1.47-0.32,3.66-0.99,6.03-2.62c1.13-0.83,2.52-1.79,3.24-3.49c0.36-0.82,0.34-1.98-0.35-2.77
										c-0.68-0.82-1.77-1.07-2.76-1.18c-1.02-0.11-2.05-0.04-3.08-0.1c-1.03-0.06-2.09-0.2-3.16-0.45
										c-2.13-0.5-4.29-1.4-6.28-2.76l-0.28,0.63c4.08,1.01,9.31-0.79,11.82-5.13l0.28-0.48l-0.55-0.1
										c-3.77-0.72-7.55-2.39-10.78-4.99l-0.3,0.74c5.09,0.53,10.63-1.87,13.74-6.42c0.12-0.18,0.24-0.36,0.35-0.52l0.39-0.59
										l-0.72-0.06c-2.42-0.2-4.68-1.26-6.66-2.6c-1.99-1.35-3.74-3-5.49-4.6c-1.74-1.61-3.54-3.16-5.5-4.4
										c-1.95-1.24-4.01-2.22-6.09-2.95c-8.38-2.96-16.88-1.75-22.74,1.31c-5.98,3.01-9.58,7.28-11.57,10.35
										c-2.01,3.12-2.54,5.12-2.54,5.12c0.11,0.05,0.74-1.92,2.81-4.94c2.05-2.98,5.67-7.12,11.56-9.99
										c2.92-1.44,6.39-2.47,10.21-2.75c3.81-0.29,7.96,0.21,12.01,1.64c4.08,1.41,7.9,3.92,11.28,7.22
										c1.74,1.6,3.51,3.29,5.58,4.69c2.05,1.39,4.44,2.53,7.07,2.75l-0.33-0.65c-0.1,0.15-0.21,0.32-0.33,0.49
										c-2.91,4.27-8.17,6.56-12.95,6.07l-1.41-0.14l1.1,0.88c3.35,2.68,7.26,4.39,11.15,5.12l-0.27-0.58
										c-2.28,4.01-7.18,5.75-10.97,4.83l-1.91-0.46l1.63,1.1c2.07,1.4,4.32,2.31,6.53,2.81c1.11,0.24,2.2,0.38,3.27,0.43
										c1.08,0.05,2.09-0.03,3.05,0.06c0.94,0.09,1.88,0.32,2.41,0.95c0.55,0.63,0.6,1.51,0.3,2.25c-0.6,1.52-1.92,2.5-3.01,3.33
										c-2.27,1.64-4.4,2.36-5.84,2.74C274.44,117.33,273.64,117.38,273.65,117.43z"/>
								</g>
							</g>
						</g>
					</g>
				</g>
			</g>
			<g>
				<g>
					<g>
						<g>
							<g>
								<g>
									<g>
										<g>
											<g>
												<g>
													<g>
														<g>
															<path style="fill:#263238;" d="M231.26,138.66c0.25,1.48,1.7,2.49,3.25,2.26c1.55-0.23,2.61-1.61,2.36-3.09
																c-0.25-1.48-1.7-2.49-3.25-2.27C232.07,135.8,231.02,137.18,231.26,138.66z"/>
														</g>
													</g>
												</g>
											</g>
										</g>
									</g>
								</g>
							</g>
						</g>
					</g>
				</g>
				<g>
					<g>
						<g>
							<g>
								<g>
									<g>
										<g>
											<g>
												<g>
													<g>
														<g>
															<g>
																<path style="fill:#263238;" d="M226.98,129.28c0.42,0.29,2.21-1.7,5.21-2.3c2.98-0.64,5.5,0.45,5.75,0.02
																	c0.13-0.19-0.36-0.78-1.46-1.28c-1.08-0.5-2.83-0.85-4.69-0.46c-1.86,0.39-3.29,1.39-4.05,2.28
																	C226.95,128.44,226.78,129.16,226.98,129.28z"/>
															</g>
														</g>
													</g>
												</g>
											</g>
										</g>
									</g>
								</g>
							</g>
						</g>
					</g>
				</g>
				<g>
					<g>
						<g>
							<g>
								<g>
									<g>
										<g>
											<g>
												<g>
													<g>
														<g>
															<path style="fill:#263238;" d="M257.2,134.5c0.25,1.48,1.7,2.49,3.25,2.26c1.55-0.23,2.61-1.61,2.36-3.09
																c-0.25-1.48-1.7-2.49-3.25-2.26C258.01,131.63,256.95,133.02,257.2,134.5z"/>
														</g>
													</g>
												</g>
											</g>
										</g>
									</g>
								</g>
							</g>
						</g>
					</g>
				</g>
				<g>
					<g>
						<g>
							<g>
								<g>
									<g>
										<g>
											<g>
												<g>
													<g>
														<g>
															<g>
																<path style="fill:#263238;" d="M256.48,124.01c0.42,0.29,2.21-1.7,5.21-2.3c2.98-0.64,5.49,0.45,5.75,0.02
																	c0.13-0.19-0.36-0.78-1.46-1.28c-1.08-0.5-2.83-0.85-4.69-0.46c-1.86,0.39-3.29,1.4-4.05,2.28
																	C256.45,123.16,256.27,123.88,256.48,124.01z"/>
															</g>
														</g>
													</g>
												</g>
											</g>
										</g>
									</g>
								</g>
							</g>
						</g>
					</g>
				</g>
				<g>
					<g>
						<g>
							<g>
								<g>
									<g>
										<g>
											<path style="fill:#263238;" d="M267.02,111.67c-0.34-0.81-3.37-0.27-6.97-0.52c-3.61-0.18-6.55-1.08-6.99-0.31
												c-0.19,0.37,0.35,1.12,1.56,1.87c1.2,0.74,3.08,1.41,5.24,1.54c2.16,0.13,4.11-0.32,5.39-0.91
												C266.55,112.75,267.17,112.06,267.02,111.67z"/>
										</g>
									</g>
								</g>
							</g>
						</g>
					</g>
				</g>
				<g>
					<g>
						<g>
							<g>
								<g>
									<g>
										<g>
											<path style="fill:#263238;" d="M225.05,120.51c0.75,0.56,3.06-0.6,6-1.19c2.92-0.67,5.52-0.56,5.96-1.38
												c0.19-0.39-0.33-1-1.54-1.44c-1.19-0.44-3.09-0.63-5.1-0.2c-2.01,0.43-3.64,1.38-4.54,2.27
												C224.92,119.46,224.72,120.22,225.05,120.51z"/>
										</g>
									</g>
								</g>
							</g>
						</g>
					</g>
				</g>
				<g>
					<g>
						<g>
							<g>
								<g>
									<path style="fill:#263238;" d="M254.64,160.15c0.46,0.09,0.89-3,3.84-4.84c2.95-1.84,6.2-1.04,6.28-1.47
										c0.07-0.19-0.65-0.7-2.04-0.93c-1.36-0.23-3.41-0.07-5.22,1.05c-1.8,1.13-2.74,2.83-3.02,4.08
										C254.18,159.32,254.42,160.14,254.64,160.15z"/>
								</g>
							</g>
						</g>
					</g>
				</g>
			</g>
		</g>
		<g>
			<path style="fill:#FFBF9D;" d="M188.64,161.78c-0.69,0.93-18.43,31.57-18.43,31.57s-17.15,31.94-19.99,40.47
				c-4.15,12.45-5.44,31.07,7.15,38.49c7.42,4.38,14.08,4.85,30.28-1.4c16.2-6.25,27.9-16.85,27.9-16.85l0.11-54.03l-20.32,18.67
				l12.46-48.75L188.64,161.78z"/>
			<g>
				<g>
					<g>
						<path style="fill:#FFBF9D;" d="M180.97,175.03l7.68-15.63c0,0,17.98-32.3,19.07-33.6c1.09-1.3,6.88-14.78,6.88-14.78l8.1-9.68
							c0,0,3.8,0.57,1.39,5.49l-3.44,6.55l12.63-12.68c0,0,3.74,0.43,2.28,4.4c-1.08,2.95-4.94,7.52-4.94,7.52l11.33-9.84
							c0,0,4.72,0.73,2.45,5.67c-1.47,3.22-14.68,17.82-14.68,17.82s6.59-4.07,8.67-5.42c2.08-1.35,4.23-4.29,5.77-4.01
							s4.22,2.66,0.22,7.2c-4,4.55-15.27,11.79-16.91,12.69c-1.64,0.9-1.64,0.9-1.64,0.9s-1.95,5.05-4.7,7.49
							c0,0-4.52,14.33-6.8,18.27c-2.46,4.25-6.54,6.56-6.54,6.56l-5.12,20.05"/>
						<g>
							<path style="fill:#FF9A6C;" d="M202.66,190.01c0,0,0.02-0.12,0.07-0.34c0.06-0.24,0.14-0.57,0.24-1
								c0.22-0.9,0.54-2.21,0.96-3.91c0.86-3.44,2.12-8.45,3.72-14.83l0.01-0.06l0.05-0.03c3.26-2.01,6.44-5.31,8.01-9.9
								c1.79-4.47,3.47-9.48,5.2-14.87l0.02-0.05l0.04-0.04c2-1.86,3.45-4.59,4.63-7.42l0.03-0.08l0.07-0.04
								c1.59-0.84,3.14-1.78,4.7-2.82c1.56-1.02,3.13-2.1,4.71-3.22c1.58-1.12,3.16-2.3,4.72-3.55c1.55-1.26,3.12-2.57,4.45-4.1
								c0.66-0.77,1.24-1.62,1.61-2.55c0.37-0.92,0.44-1.99-0.07-2.83c-0.24-0.42-0.61-0.76-1.04-1c-0.21-0.13-0.44-0.2-0.67-0.26
								c-0.21-0.02-0.43-0.02-0.66,0.08c-0.91,0.36-1.71,1.15-2.51,1.87c-0.8,0.73-1.61,1.5-2.57,2.11
								c-0.93,0.58-1.87,1.17-2.82,1.76c-1.89,1.18-3.8,2.38-5.73,3.58l-1.62,1.01l1.28-1.42c3.25-3.62,6.55-7.37,9.8-11.28
								c1.59-1.97,3.29-3.94,4.62-6.1c0.56-1.08,1.02-2.38,0.67-3.53c-0.32-1.16-1.52-1.9-2.7-2.13l0.22-0.06
								c-1.02,0.89-2.12,1.84-3.23,2.8c-2.73,2.37-5.43,4.71-8.1,7.03l-0.39-0.39c1.58-1.94,3.1-3.95,4.27-6.1
								c0.28-0.54,0.55-1.09,0.71-1.66c0.19-0.56,0.26-1.15,0.18-1.7c-0.08-0.55-0.37-1.04-0.8-1.38c-0.43-0.34-1-0.56-1.53-0.64
								l0.22-0.08c-4.33,4.34-8.54,8.57-12.63,12.67l-1.24,1.24l0.81-1.55c1.13-2.14,2.24-4.25,3.33-6.34
								c0.5-1.03,0.96-2.12,0.86-3.2c-0.03-1.08-0.93-1.94-1.95-2.12l0.23-0.09c-2.8,3.34-5.5,6.56-8.11,9.67l0.04-0.06
								c-1.08,2.49-2.15,4.92-3.21,7.29c-1.08,2.36-2.1,4.68-3.29,6.87c-1.37,2.07-2.53,4.17-3.71,6.19
								c-1.16,2.03-2.29,4.01-3.38,5.92c-4.33,7.67-8.11,14.37-11.22,19.89c-0.39,0.69-0.76,1.36-1.13,2.01
								c-0.35,0.66-0.66,1.32-0.98,1.95c-0.63,1.26-1.21,2.45-1.76,3.55c-1.09,2.2-2.03,4.07-2.79,5.6
								c-0.76,1.51-1.34,2.66-1.74,3.46c-0.2,0.38-0.35,0.67-0.46,0.88c-0.1,0.2-0.17,0.29-0.17,0.29s0.04-0.11,0.13-0.31
								c0.1-0.22,0.24-0.51,0.42-0.9c0.39-0.81,0.95-1.98,1.68-3.5c0.74-1.53,1.66-3.42,2.73-5.63c0.54-1.11,1.12-2.3,1.73-3.57
								c0.31-0.63,0.62-1.29,0.96-1.96c0.36-0.66,0.74-1.33,1.12-2.02c3.09-5.54,6.83-12.25,11.13-19.95
								c1.09-1.92,2.21-3.9,3.36-5.94c1.17-2.02,2.34-4.15,3.69-6.2c1.16-2.15,2.19-4.48,3.26-6.84c1.06-2.37,2.12-4.8,3.19-7.29
								l0.01-0.03l0.02-0.03c2.6-3.11,5.29-6.34,8.09-9.69l0.1-0.12l0.14,0.03c0.63,0.12,1.19,0.41,1.64,0.87
								c0.45,0.45,0.7,1.09,0.74,1.71c0.1,1.26-0.4,2.42-0.91,3.48c-1.09,2.09-2.2,4.2-3.33,6.35l-0.42-0.31
								c4.09-4.11,8.3-8.34,12.62-12.68l0.1-0.1l0.13,0.02c0.67,0.11,1.27,0.35,1.81,0.76c0.53,0.41,0.91,1.05,1,1.72
								c0.1,0.67,0.01,1.34-0.2,1.95c-0.18,0.62-0.46,1.19-0.75,1.75c-1.21,2.22-2.73,4.23-4.34,6.2l-0.39-0.39
								c2.67-2.32,5.38-4.67,8.1-7.04c1.11-0.96,2.21-1.92,3.23-2.8l0.1-0.09l0.12,0.02c0.7,0.14,1.34,0.4,1.92,0.82
								c0.57,0.41,1.03,1.01,1.23,1.7c0.22,0.69,0.16,1.41,0.01,2.07c-0.08,0.33-0.16,0.66-0.3,0.97c-0.11,0.32-0.25,0.62-0.43,0.91
								c-1.39,2.27-3.07,4.2-4.68,6.19c-3.26,3.92-6.57,7.66-9.83,11.29l-0.34-0.41c1.93-1.2,3.83-2.4,5.72-3.57
								c0.94-0.59,1.88-1.18,2.82-1.76c0.91-0.57,1.7-1.32,2.5-2.05c0.82-0.72,1.58-1.52,2.69-1.97c0.27-0.11,0.61-0.14,0.92-0.1
								c0.29,0.07,0.57,0.16,0.82,0.31c0.51,0.28,0.94,0.69,1.23,1.19c0.61,1.01,0.51,2.28,0.1,3.27c-0.4,1.02-1.02,1.91-1.71,2.7
								c-1.38,1.58-2.97,2.89-4.53,4.16c-1.57,1.26-3.16,2.43-4.75,3.56c-1.59,1.12-3.17,2.2-4.74,3.22c-1.56,1.03-3.15,2-4.74,2.83
								l0.1-0.12c-0.59,1.46-1.29,2.84-2.06,4.13c-0.78,1.28-1.65,2.48-2.71,3.44l0.06-0.09c-1.75,5.4-3.44,10.4-5.26,14.88
								c-0.47,1.12-0.92,2.21-1.49,3.23c-0.57,1.01-1.24,1.93-1.96,2.77c-1.45,1.66-3.07,3-4.75,4.02l0.07-0.09
								c-1.66,6.36-2.96,11.36-3.85,14.79c-0.45,1.69-0.79,2.99-1.03,3.89c-0.12,0.43-0.21,0.76-0.27,1
								C202.71,189.9,202.66,190.01,202.66,190.01z"/>
						</g>
					</g>
				</g>
				<g>
					<g>
						<path style="fill:#FF9A6C;" d="M232.44,110.56c0.02,0.01-0.23,0.33-0.7,0.88c-0.46,0.55-1.15,1.34-2.01,2.3
							c-1.73,1.91-4.17,4.52-7.05,7.21c-2.28,2.14-4.5,4-6.36,5.4l-0.02,0.02l-0.02,0.01c-1.72,0.49-3.01,1.23-3.85,1.81
							c-0.84,0.58-1.27,0.98-1.29,0.96c-0.01-0.01,0.09-0.12,0.29-0.31c0.2-0.19,0.5-0.46,0.92-0.77c0.83-0.62,2.12-1.42,3.86-1.94
							l-0.04,0.02c1.83-1.43,4.02-3.3,6.3-5.43c2.87-2.69,5.33-5.26,7.1-7.13c0.85-0.91,1.56-1.66,2.09-2.23
							C232.15,110.83,232.43,110.54,232.44,110.56z"/>
						<g>
							<path style="fill:#FF9A6C;" d="M232.44,110.56c0,0-0.39,0.46-1.12,1.29c-0.73,0.83-1.81,2.03-3.23,3.46
								c-1.43,1.46-3.12,3.19-5.01,5.12c-1.94,1.91-4.21,3.93-6.75,5.93l-0.29-0.46l0.04-0.02l0.2,0.5
								c-0.9,0.27-1.78,0.65-2.62,1.14c-0.83,0.46-1.66,1.14-2.28,1.76c0,0,0.02-0.01,0.03-0.09c0.02-0.07-0.02-0.19-0.07-0.24
								c-0.02-0.02-0.04-0.04-0.08-0.06c-0.07-0.04-0.16-0.03-0.21-0.01c-0.01,0-0.03,0.02-0.03,0.02l0.02-0.02l0.07-0.05l0.15-0.12
								l0.3-0.24l0.62-0.45c0.42-0.29,0.85-0.56,1.3-0.8c0.89-0.48,1.81-0.85,2.75-1.11l-0.09,0.04c5.14-3.9,9.11-7.95,11.91-10.85
								c1.4-1.45,2.47-2.67,3.22-3.48C231.83,111.23,232.15,110.87,232.44,110.56c0.05,0.03-0.3,0.54-1.01,1.39
								c-0.71,0.86-1.74,2.11-3.11,3.6c-2.74,2.97-6.68,7.09-11.84,11.04l-0.04,0.03l-0.05,0.01c-0.9,0.26-1.78,0.61-2.63,1.08
								c-0.42,0.23-0.84,0.49-1.24,0.77l-0.6,0.44l-0.29,0.23l-0.15,0.12l-0.08,0.06l-0.06,0.04c-0.01,0.01-0.05,0.03-0.08,0.04
								c-0.05,0.02-0.15,0.03-0.22-0.01c-0.04-0.02-0.06-0.04-0.08-0.06c-0.05-0.04-0.09-0.17-0.07-0.24
								c0.02-0.08,0.04-0.1,0.04-0.11c1.54-1.61,3.33-2.54,5.22-3.12l0.2,0.5l-0.04,0.02l-0.29-0.46c2.53-1.98,4.8-3.97,6.76-5.85
								c1.92-1.89,3.63-3.59,5.08-5.02C230.73,112.27,232.34,110.45,232.44,110.56z"/>
						</g>
					</g>
				</g>
				<g>
					<g>
						<path style="fill:#FF9A6C;" d="M221.26,112.61c0.03,0.03-0.42,0.6-1.19,1.5c-0.77,0.89-1.87,2.1-3.11,3.4
							c-1.21,1.26-2.31,2.39-3.2,3.31c-0.82,0.84-1.34,1.36-1.37,1.33c-0.03-0.03,0.42-0.6,1.2-1.49c0.78-0.89,1.89-2.08,3.13-3.38
							c1.21-1.26,2.3-2.4,3.18-3.33C220.72,113.09,221.23,112.57,221.26,112.61z"/>
						<g>
							<path style="fill:#FF9A6C;" d="M221.26,112.61c0,0-0.94,1.11-2.54,2.85c-0.83,0.91-1.77,1.93-2.8,3.05
								c-0.53,0.58-1.08,1.18-1.65,1.8c-0.29,0.31-0.58,0.63-0.86,0.96l-0.42,0.5l-0.2,0.26l-0.09,0.13l-0.04,0.06l-0.01,0.02
								l0.01-0.02l0.01-0.05c0.02-0.09-0.04-0.21-0.1-0.24c-0.05-0.05-0.18-0.08-0.25-0.05l-0.03,0.01c-0.01,0-0.02,0.01-0.02,0.01
								l0.02-0.01l0.05-0.05l0.12-0.11l0.24-0.23l0.46-0.47c0.31-0.31,0.61-0.62,0.9-0.93c0.59-0.6,1.16-1.19,1.71-1.75
								c1.11-1.1,2.05-2.14,2.87-2.98c0.81-0.85,1.49-1.53,1.93-2.02C221.02,112.87,221.26,112.61,221.26,112.61
								c0.11,0.07-0.75,1.28-2.33,3.03c-0.78,0.88-1.7,1.96-2.79,3.08c-0.54,0.57-1.11,1.16-1.69,1.77c-0.3,0.31-0.6,0.62-0.9,0.93
								l-0.47,0.47l-0.24,0.24l-0.13,0.12l-0.07,0.06l-0.05,0.04l-0.05,0.03c-0.02,0.01,0,0-0.05,0.02c-0.08,0.03-0.21,0-0.27-0.05
								c-0.06-0.04-0.12-0.17-0.1-0.26c0.02-0.08,0.01-0.04,0.02-0.07l0.03-0.06l0.03-0.05l0.06-0.08l0.11-0.14l0.21-0.27l0.43-0.51
								c0.29-0.34,0.58-0.65,0.87-0.96c0.58-0.62,1.14-1.21,1.68-1.79c1.07-1.15,2.06-2.14,2.89-2.97
								C220.11,113.52,221.17,112.49,221.26,112.61z"/>
						</g>
					</g>
				</g>
				<g>
					<g>
						<path style="fill:#FFBF9D;" d="M216.42,132.71c4.8-1.58,9.39-3.81,13.59-6.61"/>
						<g>
							<path style="fill:#FF9A6C;" d="M230.02,126.09c0.04,0.06-0.62,0.6-1.77,1.36c-1.15,0.76-2.79,1.73-4.68,2.65
								c-1.89,0.92-3.67,1.61-4.98,2.05c-1.31,0.43-2.14,0.62-2.16,0.55c-0.05-0.16,3.15-1.27,6.9-3.1
								C227.08,127.79,229.93,125.95,230.02,126.09z"/>
						</g>
					</g>
					<g>
						<g>
							<path style="fill:#FF9A6C;" d="M230.02,126.09c0.01,0.02-0.15,0.15-0.46,0.38c-0.31,0.23-0.77,0.54-1.35,0.91
								c-1.16,0.74-2.8,1.7-4.69,2.62c-1.89,0.92-3.66,1.62-4.96,2.07c-0.65,0.23-1.18,0.4-1.55,0.5c-0.37,0.1-0.58,0.15-0.58,0.13
								c-0.02-0.05,0.78-0.34,2.05-0.85c1.27-0.5,3.02-1.24,4.9-2.15c1.88-0.91,3.53-1.83,4.71-2.52
								C229.27,126.5,229.99,126.05,230.02,126.09z"/>
							<g>
								<path style="fill:#FF9A6C;" d="M230.02,126.09c0,0-1.37,1.01-3.8,2.31c-1.21,0.65-2.61,1.53-4.3,2.22
									c-0.84,0.37-1.71,0.76-2.61,1.16c-0.45,0.21-0.91,0.41-1.39,0.59l-0.72,0.28l-0.36,0.14l-0.17,0.07l-0.07,0.03
									c-0.02,0.01,0,0,0.01-0.01c0.02,0,0.11-0.14,0.08-0.23c0-0.02-0.02-0.12-0.12-0.19c-0.1-0.05-0.06-0.03-0.09-0.04
									c-0.06-0.01-0.05,0-0.05,0c1.91-0.51,3.83-1.25,5.47-1.96c1.66-0.72,3.11-1.46,4.31-2.11c1.2-0.65,2.14-1.24,2.79-1.64
									C229.67,126.32,230.02,126.09,230.02,126.09c0.05,0.04-0.27,0.35-0.89,0.8c-0.62,0.47-1.53,1.11-2.72,1.81
									c-1.19,0.7-2.63,1.49-4.3,2.24c-1.68,0.76-3.49,1.49-5.63,2.05c-0.02,0-0.02,0.01-0.1,0c-0.04-0.01,0,0.01-0.1-0.04
									c-0.1-0.07-0.12-0.18-0.12-0.2c-0.03-0.1,0.07-0.25,0.1-0.25c0.04-0.03,0.08-0.06,0.09-0.06l0.11-0.05l0.19-0.08l0.37-0.15
									l0.72-0.28c0.48-0.18,0.94-0.38,1.39-0.58c0.9-0.39,1.77-0.77,2.61-1.13c1.69-0.66,3.1-1.49,4.32-2.1
									C228.49,126.85,229.95,125.95,230.02,126.09z"/>
							</g>
						</g>
					</g>
				</g>
			</g>
			<g>
				<path style="fill:#042b62;" d="M354.92,203.95c0,0,17.01,8.46,23.22,36.69c3.9,17.74,10.89,46.54,10.89,46.54l-44.43,7.01
					c0,0-6.99-42.06-6.18-42.91C339.25,250.43,354.92,203.95,354.92,203.95z"/>
				<path style="fill:#042b62;" d="M215.65,200.04l41.7-7.27c0,0,3.4,20.91,25.79,17.05c23.03-3.97,21.19-22.76,21.19-22.76
					s38.41,10.96,45.84,14.29c7.44,3.33,11.52,8.47,11.52,8.47s-13.65,52.96-14.07,53.63c-0.35,0.54-1.52,79.94-1.95,109.3
					c2.86,5.37,3.64,11.46,2.73,18.12l-129.61,2.75l-4.2-133.37l-17.31,8.84l-8.93-25.44l8.04-29.83L215.65,200.04z"/>
				<g>
					<path style="fill:#263238;" d="M243.07,299.51c0-0.01,0.06-0.04,0.18-0.1c0.14-0.07,0.31-0.15,0.53-0.26
						c0.49-0.23,1.18-0.56,2.05-0.99c1.8-0.86,4.38-2.09,7.56-3.6c6.38-3.05,15.16-7.33,24.78-12.21
						c9.62-4.88,18.26-9.44,24.49-12.78c3.1-1.67,5.61-3.02,7.37-3.97c0.86-0.46,1.53-0.82,2.01-1.07c0.22-0.11,0.39-0.2,0.53-0.27
						c0.12-0.06,0.18-0.09,0.18-0.08c0,0-0.05,0.04-0.17,0.11c-0.13,0.08-0.3,0.18-0.51,0.3c-0.47,0.27-1.13,0.65-1.98,1.13
						c-1.72,0.98-4.22,2.36-7.32,4.06c-6.2,3.39-14.83,7.99-24.45,12.87c-9.62,4.88-18.42,9.12-24.83,12.12
						c-3.2,1.5-5.8,2.7-7.6,3.51c-0.89,0.4-1.58,0.71-2.08,0.93c-0.23,0.1-0.41,0.17-0.54,0.23
						C243.14,299.49,243.07,299.51,243.07,299.51z"/>
				</g>
				<g>
					<path style="fill:#263238;" d="M349.11,242.74c0.01,0,0,0.15-0.03,0.45c-0.04,0.34-0.09,0.76-0.16,1.28
						c-0.16,1.17-0.39,2.79-0.67,4.81c-0.62,4.18-1.48,10-2.49,16.84l0-0.04c0.03,4.83,0.07,10.17,0.11,15.8
						c0.03,10.86,0.05,20.69,0.07,27.87c-0.02,3.52-0.03,6.39-0.04,8.45c-0.02,0.95-0.03,1.72-0.04,2.3
						c-0.02,0.52-0.03,0.8-0.05,0.8c-0.02,0-0.04-0.28-0.06-0.8c-0.02-0.58-0.04-1.34-0.06-2.3c-0.03-2.05-0.08-4.92-0.13-8.45
						c-0.06-7.18-0.14-17.01-0.23-27.87c-0.02-5.63-0.04-10.97-0.06-15.8l0-0.02l0-0.02c1.09-6.83,2.02-12.64,2.69-16.81
						c0.34-2.01,0.61-3.62,0.81-4.79c0.1-0.52,0.17-0.93,0.24-1.27C349.05,242.89,349.09,242.74,349.11,242.74z"/>
				</g>
				<g>
					<path style="fill:#263238;" d="M210.99,220.71c0.04-0.01,0.2,0.61,0.45,1.74c0.26,1.12,0.59,2.76,0.96,4.79
						c0.75,4.05,1.61,9.69,2.22,15.96c0.61,6.27,0.85,11.96,0.89,16.09c0.02,2.06,0.01,3.73-0.02,4.88
						c-0.03,1.15-0.07,1.79-0.11,1.79c-0.04,0-0.08-0.64-0.11-1.79c-0.04-1.25-0.09-2.89-0.15-4.87c-0.14-4.11-0.45-9.79-1.05-16.04
						c-0.61-6.25-1.41-11.88-2.06-15.94c-0.32-1.96-0.59-3.58-0.79-4.81C211.04,221.35,210.96,220.71,210.99,220.71z"/>
				</g>
			</g>
			<g>
				<path style="fill:#FF9A6C;" d="M198.1,207.87c0.15,0.04-2.74,10.78-6.45,23.99c-3.71,13.21-6.84,23.88-6.99,23.84
					c-0.15-0.04,2.74-10.78,6.46-23.99C194.82,218.5,197.95,207.83,198.1,207.87z"/>
			</g>
		</g>
		<g>
			<path style="fill:#E0E0E0;" d="M191.78,345.35c0,0,9.15-28.65,41.33-8.3c32.99,20.86,54.85,113.73,54.85,113.73h-84.89
				c0-28.04-29.82-103.02-39.16-105.65L191.78,345.35z"/>
			<g>
				<g>
					<path style="fill:#FFFFFF;" d="M215.65,329.75l-62.61-1.02c0,0-27.38,0.37-27.38,35.74c0,45.81,16.05,61.45-26.58,87.61
						l68.8,5.66c0,0,32.55-2.05,32.52-40.22c-0.02-17.42-1.45-50.76-2.91-65.66C196.43,341.01,205.18,330.49,215.65,329.75z"/>
					<g>
						<path style="fill:#263238;" d="M215.65,329.75c-0.12,0.02-0.31,0.05-0.72,0.11c-0.49,0.08-1.26,0.16-2.18,0.43
							c-1.87,0.47-4.63,1.53-7.53,3.89c-1.41,1.21-2.86,2.72-4.14,4.61c-1.27,1.89-2.34,4.17-2.97,6.77c-0.18,0.64-0.24,1.33-0.37,2
							c-0.1,0.68-0.1,1.39-0.16,2.1c-0.01,0.71,0.05,1.44,0.08,2.18c0.07,0.74,0.14,1.49,0.21,2.26c0.27,3.06,0.52,6.31,0.74,9.73
							c0.88,13.69,1.69,30.2,2,48.91c0.07,4.66,0.11,9.52-0.72,14.42c-0.46,2.44-0.99,4.9-1.87,7.29c-0.84,2.4-1.9,4.77-3.28,6.98
							c-2.71,4.46-6.55,8.37-11.2,11.2c-2.32,1.43-4.81,2.61-7.43,3.51c-2.62,0.9-5.34,1.58-8.18,1.85l-0.02,0l-0.02,0
							c-19.73-1.62-41.14-3.38-63.32-5.2c-1.88-0.15-3.75-0.31-5.49-0.45l-0.83-0.07l0.71-0.44c3.12-1.96,6.21-3.93,9.12-6.1
							c2.93-2.14,5.74-4.41,8.28-6.93c2.55-2.5,4.87-5.2,6.72-8.18c1.86-2.97,3.24-6.2,4.07-9.54c1.68-6.71,1.3-13.62,0.77-20.23
							c-0.57-6.64-1.34-13.13-1.81-19.48c-0.49-6.35-0.74-12.57-0.64-18.61c0-1.51,0.16-3.01,0.27-4.5
							c0.19-1.48,0.35-2.95,0.66-4.39c0.56-2.88,1.38-5.67,2.53-8.28c2.26-5.23,5.96-9.61,10.39-12.49c2.22-1.43,4.58-2.54,7-3.31
							c2.41-0.74,4.86-1.28,7.3-1.26C191.85,329.29,214.15,329.72,215.65,329.75c-1.5-0.02-23.8-0.31-62.06-0.82
							c-2.37-0.01-4.79,0.53-7.17,1.26c-2.38,0.76-4.7,1.86-6.89,3.27c-4.36,2.85-7.98,7.16-10.21,12.32
							c-1.13,2.57-1.93,5.33-2.48,8.19c-0.3,1.42-0.46,2.88-0.65,4.35c-0.1,1.47-0.26,2.96-0.26,4.46
							c-0.09,6.01,0.16,12.22,0.66,18.56c0.48,6.34,1.25,12.82,1.83,19.48c0.53,6.63,0.93,13.58-0.77,20.4
							c-0.84,3.39-2.24,6.68-4.13,9.7c-1.88,3.02-4.23,5.76-6.8,8.28c-2.57,2.54-5.39,4.83-8.34,6.98
							c-2.93,2.19-6.03,4.16-9.15,6.13l-0.12-0.51c1.73,0.14,3.61,0.3,5.49,0.45c22.18,1.83,43.58,3.59,63.31,5.22l-0.04,0
							c2.75-0.26,5.46-0.93,8.04-1.82c2.59-0.89,5.05-2.05,7.34-3.45c4.58-2.79,8.38-6.63,11.05-11.02
							c1.36-2.18,2.42-4.51,3.25-6.88c0.87-2.36,1.41-4.8,1.86-7.21c0.83-4.85,0.8-9.67,0.74-14.34
							c-0.28-18.69-1.04-35.2-1.88-48.89c-0.21-3.42-0.45-6.67-0.71-9.73c-0.07-0.76-0.13-1.52-0.2-2.26
							c-0.02-0.75-0.08-1.49-0.07-2.21c0.06-0.72,0.07-1.44,0.18-2.13c0.13-0.69,0.21-1.38,0.39-2.03c0.65-2.63,1.75-4.93,3.04-6.83
							c1.3-1.9,2.78-3.41,4.21-4.63c2.94-2.36,5.73-3.4,7.62-3.84c0.95-0.27,1.67-0.31,2.16-0.36
							C215.32,329.79,215.52,329.76,215.65,329.75z"/>
					</g>
				</g>
			</g>
			<g>
				<path style="fill:#E0E0E0;" d="M69.01,435.28c0,0-1.76,21.19,24.63,22.46c26.39,1.27,74.24,0,74.24,0s-16.62-3-16.62-21.07
					L69.01,435.28z"/>
				<g>
					<path style="fill:#263238;" d="M69.01,435.28c-0.01-0.01,0.13-0.01,0.39-0.01c0.28,0,0.67,0,1.17,0
						c1.06,0.01,2.59,0.02,4.56,0.04c4.02,0.05,9.83,0.12,17.12,0.21c14.67,0.22,35.26,0.52,59.03,0.88l0.26,0l0,0.26
						c0,4.52,1.2,9.31,4.14,13.13c2.9,3.83,7.42,6.53,12.26,7.66l2.12,0.49l-2.16,0.06c-0.05,0-0.1,0-0.15,0
						c-15.41,0.37-30.09,0.55-43.44,0.54c-6.68-0.02-13.02-0.07-18.96-0.21c-2.97-0.08-5.84-0.14-8.59-0.27
						c-2.75-0.11-5.41-0.22-7.92-0.64c-5.01-0.8-9.39-2.64-12.51-5.22c-3.16-2.55-4.97-5.68-5.96-8.32c-1-2.66-1.27-4.88-1.37-6.36
						c-0.05-0.74-0.05-1.31-0.03-1.69C68.97,435.47,69.01,435.28,69.01,435.28s0,0.19,0.01,0.58c0,0.38,0.02,0.95,0.08,1.68
						c0.13,1.47,0.44,3.66,1.46,6.29c1.01,2.6,2.82,5.67,5.95,8.16c3.1,2.51,7.42,4.31,12.38,5.07c2.48,0.39,5.12,0.5,7.87,0.6
						c2.75,0.12,5.62,0.17,8.58,0.24c5.93,0.12,12.28,0.15,18.95,0.15c13.35-0.01,28.03-0.21,43.43-0.58c0.05,0,0.1,0,0.15,0
						l-0.04,0.55c-2.53-0.57-4.9-1.57-7.05-2.9c-2.14-1.33-4.07-2.99-5.55-4.98c-3.03-3.95-4.25-8.87-4.24-13.47l0.26,0.27
						c-23.69-0.45-44.22-0.84-58.84-1.12c-7.31-0.16-13.14-0.28-17.17-0.37c-1.99-0.05-3.54-0.09-4.61-0.11
						c-0.51-0.02-0.91-0.03-1.2-0.04C69.16,435.29,69.01,435.28,69.01,435.28z"/>
				</g>
			</g>
			<g>
				<path style="fill:#263238;" d="M184.08,355.33c0,0.31-5.98,0.55-13.36,0.55c-7.38,0-13.36-0.25-13.36-0.55
					c0-0.31,5.98-0.55,13.36-0.55C178.1,354.77,184.08,355.02,184.08,355.33z"/>
			</g>
			<g>
				<path style="fill:#263238;" d="M137.89,355.41c0-0.31,1.67-0.55,3.73-0.55c2.06,0,3.73,0.25,3.73,0.55
					c0,0.31-1.67,0.55-3.73,0.55C139.56,355.97,137.89,355.72,137.89,355.41z"/>
			</g>
			<g>
				<path style="fill:#263238;" d="M185.73,345.58c0,0.31-5.98,0.55-13.36,0.55c-7.38,0-13.36-0.25-13.36-0.55
					c0-0.31,5.98-0.55,13.36-0.55C179.75,345.02,185.73,345.27,185.73,345.58z"/>
			</g>
			<g>
				<path style="fill:#263238;" d="M139.54,345.66c0-0.31,1.67-0.55,3.73-0.55c2.06,0,3.73,0.25,3.73,0.55
					c0,0.31-1.67,0.55-3.73,0.55C141.21,346.22,139.54,345.97,139.54,345.66z"/>
			</g>
			<g>
				<path style="fill:#263238;" d="M191.11,336.77c0,0.31-5.98,0.55-13.36,0.55c-7.38,0-13.36-0.25-13.36-0.55
					c0-0.31,5.98-0.55,13.36-0.55C185.13,336.22,191.11,336.47,191.11,336.77z"/>
			</g>
			<g>
				<path style="fill:#263238;" d="M144.92,336.86c0-0.31,1.67-0.55,3.73-0.55c2.06,0,3.73,0.25,3.73,0.55
					c0,0.31-1.67,0.55-3.73,0.55C146.59,337.41,144.92,337.16,144.92,336.86z"/>
			</g>
			<g>
				<path style="fill:#263238;" d="M184.08,365.97c0,0.31-5.98,0.55-13.36,0.55c-7.38,0-13.36-0.25-13.36-0.55
					c0-0.31,5.98-0.55,13.36-0.55C178.1,365.42,184.08,365.67,184.08,365.97z"/>
			</g>
			<g>
				<path style="fill:#263238;" d="M137.89,366.06c0-0.31,1.67-0.55,3.73-0.55c2.06,0,3.73,0.25,3.73,0.55
					c0,0.31-1.67,0.55-3.73,0.55C139.56,366.61,137.89,366.36,137.89,366.06z"/>
			</g>
			<g>
				<path style="fill:#263238;" d="M185.43,376.41c0,0.31-5.98,0.55-13.36,0.55c-7.38,0-13.36-0.25-13.36-0.55
					c0-0.31,5.98-0.55,13.36-0.55C179.45,375.86,185.43,376.11,185.43,376.41z"/>
			</g>
			<g>
				<path style="fill:#263238;" d="M139.24,376.5c0-0.31,1.67-0.55,3.73-0.55c2.06,0,3.73,0.25,3.73,0.55
					c0,0.31-1.67,0.55-3.73,0.55C140.91,377.05,139.24,376.8,139.24,376.5z"/>
			</g>
			<g>
				<path style="fill:#263238;" d="M185.85,385.43c0,0.31-5.98,0.55-13.36,0.55c-7.38,0-13.36-0.25-13.36-0.55
					c0-0.31,5.98-0.55,13.36-0.55C179.87,384.87,185.85,385.12,185.85,385.43z"/>
			</g>
			<g>
				<path style="fill:#263238;" d="M139.66,385.51c0-0.31,1.67-0.55,3.73-0.55c2.06,0,3.73,0.25,3.73,0.55
					c0,0.31-1.67,0.55-3.73,0.55C141.33,386.07,139.66,385.82,139.66,385.51z"/>
			</g>
			<g>
				<path style="fill:#263238;" d="M186.28,394.44c0,0.31-5.98,0.55-13.36,0.55c-7.38,0-13.36-0.25-13.36-0.55s5.98-0.55,13.36-0.55
					C180.3,393.89,186.28,394.14,186.28,394.44z"/>
			</g>
			<g>
				<path style="fill:#263238;" d="M140.09,394.53c0-0.31,1.67-0.55,3.73-0.55c2.06,0,3.73,0.25,3.73,0.55
					c0,0.31-1.67,0.55-3.73,0.55C141.76,395.08,140.09,394.83,140.09,394.53z"/>
			</g>
			<g>
				<path style="fill:#263238;" d="M186.7,403.46c0,0.31-5.98,0.55-13.36,0.55c-7.38,0-13.36-0.25-13.36-0.55
					c0-0.31,5.98-0.55,13.36-0.55C180.72,402.9,186.7,403.15,186.7,403.46z"/>
			</g>
			<g>
				<path style="fill:#263238;" d="M140.51,403.54c0-0.31,1.67-0.55,3.73-0.55c2.06,0,3.73,0.25,3.73,0.55
					c0,0.31-1.67,0.55-3.73,0.55C142.18,404.1,140.51,403.85,140.51,403.54z"/>
			</g>
			<g>
				<path style="fill:#263238;" d="M186.85,412.23c0,0.31-5.98,0.55-13.36,0.55c-7.38,0-13.36-0.25-13.36-0.55
					c0-0.31,5.98-0.55,13.36-0.55C180.87,411.67,186.85,411.92,186.85,412.23z"/>
			</g>
			<g>
				<path style="fill:#263238;" d="M140.67,412.31c0-0.31,1.67-0.55,3.73-0.55c2.06,0,3.73,0.25,3.73,0.55
					c0,0.31-1.67,0.55-3.73,0.55C142.33,412.87,140.67,412.62,140.67,412.31z"/>
			</g>
			<g>
				<path style="fill:#263238;" d="M185.43,420.95c0,0.31-5.98,0.55-13.36,0.55c-7.38,0-13.36-0.25-13.36-0.55
					c0-0.31,5.98-0.55,13.36-0.55C179.45,420.39,185.43,420.64,185.43,420.95z"/>
			</g>
			<g>
				<path style="fill:#263238;" d="M139.24,421.03c0-0.31,1.67-0.55,3.73-0.55c2.06,0,3.73,0.25,3.73,0.55
					c0,0.31-1.67,0.55-3.73,0.55C140.91,421.59,139.24,421.34,139.24,421.03z"/>
			</g>
			<g>
				<path style="fill:#263238;" d="M182,430.21c0,0.31-5.98,0.55-13.36,0.55c-7.38,0-13.36-0.25-13.36-0.55
					c0-0.31,5.98-0.55,13.36-0.55C176.02,429.66,182,429.91,182,430.21z"/>
			</g>
			<g>
				<path style="fill:#263238;" d="M135.81,430.3c0-0.31,1.67-0.55,3.73-0.55c2.06,0,3.73,0.25,3.73,0.55
					c0,0.31-1.67,0.55-3.73,0.55C137.48,430.85,135.81,430.6,135.81,430.3z"/>
			</g>
			<g>
				<path style="fill:#263238;" d="M179.42,438.65c0,0.31-5.98,0.55-13.36,0.55c-7.38,0-13.36-0.25-13.36-0.55
					c0-0.31,5.98-0.55,13.36-0.55C173.44,438.09,179.42,438.34,179.42,438.65z"/>
			</g>
		</g>
		<g>
			<path style="fill:#FFBF9D;" d="M294.52,343.17l51.29-21.87l-0.15-27.1l36.72-5.82c0,0,1.56,51.65-4.96,60.53
				c-8.19,11.15-75.49,12.51-75.49,12.51L294.52,343.17z"/>
			<g>
				<path style="fill:#FFBF9D;" d="M345.36,321.61c6.12,0.23,12.15,2.49,16.91,6.34"/>
				<g>
					<path style="fill:#FF9A6C;" d="M362.28,327.95c-0.1,0.15-3.3-2.52-8.04-4.27c-4.72-1.8-8.89-1.88-8.87-2.07
						c0-0.06,1.04-0.13,2.71,0.04c1.66,0.16,3.96,0.61,6.36,1.51c2.4,0.9,4.42,2.07,5.78,3.04
						C361.58,327.17,362.32,327.9,362.28,327.95z"/>
				</g>
			</g>
			<g>
				<path style="fill:#FFBF9D;" d="M287.63,343.17c-0.74,0.25-17.46,0.74-22.63,1.23c-5.17,0.49-18.21,5.77-18.21,5.77l2.91,4.3
					c0,0-1.92,1.17-8.56,1.01c-7.63-0.19-16.73-0.25-15.74,5.66c0,0-4.82,1.97-0.07,5.66l4.5,1.48c0,0,0.74,3.2,8.61,4.92
					c0,0-2.71,1.72,5.66,3.44c8.36,1.72,20.66,4.18,30.99,1.48c10.33-2.71,29.27-16.86,29.27-16.86l-9.84-18.07H287.63z"/>
				<g>
					<path style="fill:#FF9A6C;" d="M266.51,351.38c0,0.08-1.03,0.2-2.69,0.42c-1.66,0.21-3.96,0.54-6.47,1.03
						c-2.51,0.49-4.76,1.04-6.38,1.46c-1.62,0.42-2.63,0.7-2.65,0.62c-0.02-0.07,0.94-0.48,2.54-1c1.6-0.52,3.86-1.14,6.39-1.63
						c2.53-0.49,4.85-0.76,6.54-0.87C265.46,351.29,266.51,351.31,266.51,351.38z"/>
				</g>
				<g>
					<path style="fill:#FF9A6C;" d="M262.08,361.17c0,0.04-0.51,0.14-1.44,0.28c-0.93,0.15-2.28,0.32-3.95,0.5
						c-3.34,0.36-7.98,0.7-13.12,0.73c-5.14,0.03-9.78-0.23-13.13-0.55c-1.67-0.16-3.03-0.31-3.96-0.45
						c-0.93-0.13-1.44-0.22-1.44-0.26c0-0.04,0.52-0.02,1.46,0.05c1.04,0.07,2.37,0.16,3.96,0.27c3.35,0.22,7.98,0.42,13.09,0.39
						c5.11-0.04,9.74-0.31,13.08-0.57c1.59-0.13,2.92-0.24,3.96-0.33C261.55,361.16,262.07,361.13,262.08,361.17z"/>
				</g>
				<g>
					<path style="fill:#FF9A6C;" d="M263.72,368.72c0.01,0.04-0.47,0.14-1.33,0.29c-0.86,0.15-2.11,0.33-3.66,0.51
						c-3.1,0.36-7.41,0.65-12.17,0.57c-4.76-0.09-9.06-0.53-12.14-0.99c-1.54-0.23-2.78-0.45-3.64-0.63
						c-0.85-0.18-1.32-0.3-1.31-0.33c0.01-0.04,0.49,0.01,1.35,0.12c0.97,0.12,2.2,0.28,3.65,0.46c3.09,0.36,7.36,0.74,12.1,0.82
						c4.74,0.08,9.02-0.15,12.12-0.4c1.46-0.13,2.69-0.24,3.67-0.33C263.24,368.71,263.72,368.68,263.72,368.72z"/>
				</g>
				<g>
					<path style="fill:#FF9A6C;" d="M262.08,373.87c0,0.04-0.33,0.11-0.94,0.22c-0.61,0.11-1.5,0.22-2.6,0.33
						c-2.2,0.22-5.26,0.36-8.64,0.2c-3.38-0.17-6.41-0.61-8.58-1.05c-1.08-0.22-1.96-0.42-2.55-0.59c-0.6-0.16-0.92-0.27-0.91-0.31
						c0.02-0.08,1.36,0.18,3.53,0.51c2.17,0.34,5.19,0.71,8.54,0.88c3.35,0.16,6.38,0.09,8.58-0.03
						C260.71,373.91,262.07,373.79,262.08,373.87z"/>
				</g>
			</g>
		</g>
	</g>
</g>
</svg>
