<?xml version="1.0" encoding="UTF-8"?>
<svg id="Layer_1" xmlns="http://www.w3.org/2000/svg" viewBox="0 0 1080 1080">
  <defs>
    <style>
      .cls-1 {
        fill: #1f3060;
      }

      .cls-2 {
        fill: #ececeb;
      }

      .cls-3 {
        fill: #eaebeb;
      }

      .cls-4 {
        fill: #ebeceb;
      }

      .cls-5 {
        fill: #ececec;
      }

      .cls-6 {
        fill: #ebebeb;
      }

      .cls-7 {
        fill: #e9eaeb;
      }
    </style>
  </defs>
  <path class="cls-2" d="M540.3,111.26c85.97,0,171.94-.01,257.91,0,89.3.02,172.09,76.35,181.85,165.31,2.53,23.11,2.81,45.98,2.85,68.97.23,150.6.57,301.19-.04,451.79-.4,101.11-63.8,175.44-159.73,195.33-17.74,3.68-36.35,4.31-54.57,4.35-153.56.33-307.12.58-460.68.01-72.29-.26-134.45-23.39-177.28-85.53-20.25-29.38-33.04-62.06-33.19-97.59-.75-173.12-1.67-346.26.22-519.37.96-87.9,65.69-162.11,153.14-180.17,11.79-2.44,23.36-3.09,35.16-3.09,84.78-.03,169.57-.02,254.35-.02Z"/>
  <path class="cls-1" d="M625.74,366.15c0-12.13.69-20.34-.16-28.38-1.35-12.83,4.47-16.93,16.44-16.66,65.4,1.46,56.74-10.12,54.52,53.04-1.22,34.86,7.12,58.62,37.53,77.57,27.45,17.1,26.2,19.87,3.28,41.82-8.22,7.87-13.85,19.3-27.69,20.59-6.64.62-3.67,7.7-3.75,11.84-.35,17.78-.17,35.57-.18,53.36,0,6.46-1.34,12.54-9.28,12.29-7.82-.25-8.8-6.35-8.77-12.81.09-23.12-.44-46.26.24-69.36.28-9.35-2.85-15.17-10.15-20.8-48.33-37.28-96.5-74.76-144.28-112.74-8.76-6.97-14.29-7.98-23.71-.43-45.78,36.68-92.02,72.8-138.74,108.28-11.63,8.83-15.83,18.24-15.67,32.77.76,68.17.45,136.36.21,204.54-.03,9.95.25,16.74,13.68,16.54,13.48-.2,11.79-8.11,11.75-16.44-.08-19.56-.3-39.14.1-58.69.16-7.61-3.52-19.71,8.49-19.78,13.25-.07,9.36,12.6,9.52,20.77.4,20.15.53,40.33-.05,60.47-.28,9.7,2.35,13.52,12.84,13.48,87.75-.36,175.49-.37,263.24,0,10.6.04,12.94-3.96,12.7-13.56-.55-21.92-.08-43.87-.22-65.81-.05-7.06.92-14.42,9.17-14.54,8.69-.12,8.98,7.62,8.96,14.47-.07,20.16,1.25,40.42-.41,60.44-1.38,16.66,5.04,20.94,19.98,18.95,6.4-.85,13.03-.21,19.54,0,5.23.18,9.59,2.4,9.87,8.1.32,6.59-4.12,9.33-10.18,9.68-3.55.2-7.11.1-10.67.1-141.7,0-283.4,0-425.1,0-4.15,0-8.33.17-12.43-.31-5.22-.6-9.38-3.92-9.52-8.96-.15-5.38,4.34-8.02,9.58-8.54,2.35-.24,4.74-.13,7.11-.21q32.61-1.03,32.61-34.36c0-56.92.04-113.83-.04-170.75-.01-8.87,1.03-15.54-11.17-21.41-14.15-6.81-24.8-21.6-35.82-33.96-7.87-8.84,2.62-12.29,7.46-16.1,57.76-45.42,115.73-90.58,173.64-135.81,13.54-10.58,27.57-20.61,40.4-32,7.87-6.98,13.17-6.61,21.13-.21,29.97,24.08,60.5,47.46,93.97,73.55Z"/>
  <path class="cls-1" d="M520.48,680.52c-26.07,0-52.16-.44-78.22.19-12.76.31-18.17-3.84-18.04-17.28.49-53.33.49-106.67,0-160-.12-13.49,5.78-17.68,18.17-17.63,52.74.24,105.49.34,158.22-.06,12.88-.1,18.45,4.94,18.41,17.71-.16,53.33-.2,106.67.06,160,.06,13.21-5.97,17.51-18.61,17.24-26.65-.58-53.33-.18-80-.17Z"/>
  <path class="cls-1" d="M705.62,620.67c-.71,5.58-4.37,8.56-9.49,8.14-5.04-.41-8.78-3.73-8.27-9.42.49-5.48,4.34-8.57,9.49-8.18,5.1.39,8.46,3.71,8.26,9.46Z"/>
  <path class="cls-1" d="M399.39,615.27c-1.71,5.56-4.89,8.63-10.23,8.25-5.59-.4-8.25-4.13-7.7-9.44.55-5.29,3.96-8.49,9.46-7.8,5.22.66,7.64,4.48,8.47,8.98Z"/>
  <path class="cls-4" d="M328.83,493.78c-5.4-6.51-11.7-12.23-15.48-19.29-2.94-5.5,4.53-7.15,7.76-9.69,62.36-49.01,125.11-97.51,187.13-146.95,10.81-8.62,17.24-6.95,27.06.84,61.22,48.53,123,96.37,184.36,144.73,4.4,3.47,15.88,5.67,6.78,15.42-6.91,7.39-11.91,16.52-25.26,5.75-53.9-43.47-109.14-85.27-163.19-128.56-12.46-9.98-20.6-10.2-33.31.03-54.41,43.77-109.81,86.33-164.85,129.32-2.75,2.15-5.55,4.25-10.99,8.42Z"/>
  <path class="cls-3" d="M677.94,404.91c-23.35-12.07-38.27-25.94-34.13-53.89,1.89-12.77,8.15-11.95,16.48-11.64,8.27.3,18.48-3.12,17.83,11.86-.76,17.42-.18,34.9-.18,53.68Z"/>
  <path class="cls-7" d="M442.53,626.52q0-34.31,34.2-34.31,35.93,0,35.93,36.77,0,33.39-33.91,33.39-36.21,0-36.21-35.85Z"/>
  <path class="cls-6" d="M442.55,538.28q0-32.8,33.65-32.8,36.42,0,36.42,35.68,0,32.84-32.12,32.84c-.59,0-1.18,0-1.77,0q-36.18,0-36.18-35.72Z"/>
  <path class="cls-6" d="M530.9,625.83q0-33.59,33.04-33.59,35.45,0,35.45,34.82,0,35.28-34.91,35.28-33.58,0-33.58-36.52Z"/>
  <path class="cls-5" d="M565.14,505.49q34.23,0,34.23,34.37,0,34.14-34.33,34.14-34.14,0-34.14-34.22t34.23-34.28Z"/>
</svg>