<svg width="346" height="347" viewBox="0 0 346 347" fill="none" xmlns="http://www.w3.org/2000/svg">
<path d="M251.958 66.8839V35.785C251.958 34.3537 253.119 33.1934 254.55 33.1934H285.649C287.08 33.1934 288.241 34.3537 288.241 35.785V100.575M8.34979 339H331.002M44.6319 156.294V337.704M296.015 157.589V222.379M296.015 266.436V331.225M73.7872 266.436L73.7872 331.225M295.367 243.03V245.622M73.1393 243.03V245.622M169.676 154.998H109.421C107.99 154.998 106.83 156.158 106.83 157.589V217.844M169.676 154.998H229.93C231.361 154.998 232.522 156.158 232.522 157.589V217.844M169.676 154.998V217.844M169.676 280.689H229.93C231.361 280.689 232.522 279.529 232.522 278.098V217.844M169.676 280.689H109.421C107.99 280.689 106.83 279.529 106.83 278.098V217.844M169.676 280.689V217.844M169.676 217.844H106.83M169.676 217.844H232.522M8.49578 141.431L26.1925 165.764C27.0611 166.958 28.7508 167.186 29.905 166.265L167.44 56.4892C168.372 55.745 169.692 55.7335 170.638 56.4612L313.459 166.421C314.569 167.276 316.158 167.093 317.045 166.008L337.095 141.503C338.017 140.376 337.83 138.712 336.682 137.817L170.658 8.54675C169.704 7.80417 168.364 7.81948 167.427 8.58366L8.95323 137.898C7.88766 138.768 7.68686 140.318 8.49578 141.431Z" stroke="#042b62" stroke-width="15.5495" stroke-linecap="round" stroke-linejoin="round"/>
</svg>
