<svg id="Layer_1" data-name="Layer 1" xmlns="http://www.w3.org/2000/svg" viewBox="0 0 1358 290"><defs><style>.cls-1{fill:#fed385;}.cls-2{fill:#8bc53f;}.cls-3{fill:#fff;}.cls-4,.cls-5{fill:none;stroke:#c3c1d6;stroke-linecap:round;stroke-linejoin:round;}.cls-4{stroke-width:1.95px;}.cls-5{stroke-width:1.9px;}.cls-6{fill:#80af35;}.cls-7{fill:#042b62;}.cls-8{fill:#eef0f7;}.cls-9{fill:#e6e6e6;}.cls-10{fill:#e06453;}.cls-11{fill:#f0806d;}.cls-12{fill:#ffb085;}.cls-13{fill:#ff5c55;}.cls-14{fill:#f2ab88;}.cls-15{fill:#182c3c;}.cls-16{fill:#bc584b;}.cls-17{fill:#024149;}.cls-18{fill:#fc988b;}.cls-19{fill:#0e1d28;}.cls-20{fill:#0e2838;}.cls-21{fill:#884627;}.cls-22{fill:#9f1818;}.cls-23{fill:#e34848;}.cls-24{fill:#fdfaee;}.cls-25{fill:#dbd8bd;}.cls-26{fill:#351807;}.cls-27{fill:#542913;}.cls-28{fill:#110804;}.cls-29{fill:#e25d5d;}</style></defs><path class="cls-1" d="M73.94,60.69a4.85,4.85,0,0,0,4.82,4.83H182a4.82,4.82,0,0,0,3.4-8.24,4.78,4.78,0,0,0-3.4-1.42h-4.88A12.58,12.58,0,0,0,156.61,52a17.49,17.49,0,0,0-20.14-7.87,20,20,0,0,0-36.89,4,12.58,12.58,0,0,0-17.71,7.73H78.76A4.84,4.84,0,0,0,73.94,60.69Z"/><path class="cls-1" d="M585.39,60.39a4.71,4.71,0,0,1-4.69,4.7H480.27a4.7,4.7,0,0,1,0-9.4H485a12.24,12.24,0,0,1,19.92-3.79,17,17,0,0,1,19.59-7.66,19.45,19.45,0,0,1,35.91,3.93,12.08,12.08,0,0,1,5.47-1.3,12.24,12.24,0,0,1,11.76,8.82h3A4.72,4.72,0,0,1,585.39,60.39Z"/><path class="cls-1" d="M1321.25,63.55a2.63,2.63,0,0,1-.79,1.88,2.59,2.59,0,0,1-1.87.79h-57a2.67,2.67,0,0,1-1.88-4.55,2.63,2.63,0,0,1,1.88-.79h2.7a6.94,6.94,0,0,1,11.3-2.15,9.64,9.64,0,0,1,11.13-4.34,11,11,0,0,1,20.38,2.22,7,7,0,0,1,9.78,4.27h1.72A2.67,2.67,0,0,1,1321.25,63.55Z"/><path class="cls-1" d="M1310,203.67l-3.42-5.62a1,1,0,1,1,1.66-1l2.43,4,6.44-3.81a1,1,0,1,1,1,1.68Z"/><path class="cls-1" d="M1312.26,212.32A12.33,12.33,0,1,1,1324.59,200,12.35,12.35,0,0,1,1312.26,212.32Zm0-22.9A10.57,10.57,0,1,0,1322.83,200,10.58,10.58,0,0,0,1312.26,189.42Z"/><path class="cls-1" d="M595.52,143.59,592.09,138a1,1,0,0,1,.32-1.34,1,1,0,0,1,1.35.32l2.42,4,6.45-3.81a1,1,0,0,1,1,1.68Z"/><path class="cls-1" d="M597.82,152.24a12.33,12.33,0,1,1,12.33-12.33A12.34,12.34,0,0,1,597.82,152.24Zm0-22.9a10.57,10.57,0,1,0,10.57,10.57A10.58,10.58,0,0,0,597.82,129.34Z"/><path class="cls-1" d="M754,167.46l-3.43-5.61a1,1,0,0,1,.33-1.35,1,1,0,0,1,1.34.33l2.43,4,6.44-3.82a1,1,0,0,1,1.34.35,1,1,0,0,1-.34,1.33Z"/><path class="cls-1" d="M756.26,176.12a12.34,12.34,0,1,1,12.33-12.34A12.35,12.35,0,0,1,756.26,176.12Zm0-22.91a10.57,10.57,0,1,0,10.57,10.57A10.59,10.59,0,0,0,756.26,153.21Z"/><path class="cls-1" d="M839.94,30.19l-3.65-6a1,1,0,0,1,1.77-1.08l2.59,4.23,6.86-4.06a1,1,0,1,1,1,1.78Z"/><path class="cls-1" d="M842.39,39.4a13.13,13.13,0,1,1,13.12-13.12A13.13,13.13,0,0,1,842.39,39.4Zm0-24.37a11.25,11.25,0,1,0,11.25,11.25A11.26,11.26,0,0,0,842.39,15Z"/><path class="cls-1" d="M822.61,201.47l-2.9-4.76a.83.83,0,1,1,1.41-.86l2.06,3.36,5.46-3.23a.84.84,0,0,1,1.14.29.83.83,0,0,1-.29,1.13Z"/><path class="cls-1" d="M824.57,208.81A10.46,10.46,0,1,1,835,198.35,10.47,10.47,0,0,1,824.57,208.81Zm0-19.42a9,9,0,1,0,9,9A9,9,0,0,0,824.57,189.39Z"/><path class="cls-1" d="M775.6,74.13l-2.91-4.76a.83.83,0,0,1,1.42-.87l2,3.37,5.47-3.24a.82.82,0,0,1,1.13.3.81.81,0,0,1-.29,1.13Z"/><path class="cls-1" d="M777.55,81.47A10.46,10.46,0,1,1,788,71,10.48,10.48,0,0,1,777.55,81.47Zm0-19.42a9,9,0,1,0,9,9A9,9,0,0,0,777.55,62.05Z"/><path class="cls-1" d="M659.55,74.54,653.3,64.3a1.78,1.78,0,1,1,3-1.85l4.42,7.24,11.76-7a1.78,1.78,0,1,1,1.81,3.07Z"/><path class="cls-1" d="M663.75,90.33a22.5,22.5,0,1,1,22.49-22.49A22.52,22.52,0,0,1,663.75,90.33Zm0-41.77A19.28,19.28,0,1,0,683,67.84,19.3,19.3,0,0,0,663.75,48.56Z"/><path class="cls-1" d="M471.31,128.87l-6.25-10.24a1.78,1.78,0,1,1,3-1.86l4.42,7.24,11.76-7a1.78,1.78,0,0,1,1.82,3.07Z"/><path class="cls-1" d="M475.51,144.65A22.49,22.49,0,1,1,498,122.16,22.52,22.52,0,0,1,475.51,144.65Zm0-41.77a19.28,19.28,0,1,0,19.28,19.28A19.3,19.3,0,0,0,475.51,102.88Z"/><path class="cls-1" d="M1268.44,228.41l-2.33-3.82a.66.66,0,0,1,1.13-.69l1.65,2.7,4.39-2.59a.66.66,0,0,1,.91.23.67.67,0,0,1-.23.91Z"/><path class="cls-1" d="M1270,234.3a8.39,8.39,0,1,1,8.39-8.39A8.39,8.39,0,0,1,1270,234.3Zm0-15.58a7.2,7.2,0,1,0,7.19,7.19A7.2,7.2,0,0,0,1270,218.72Z"/><path class="cls-1" d="M350,220.05l-2.91-4.78a.84.84,0,0,1,.27-1.15.83.83,0,0,1,1.14.28l2.07,3.38,5.49-3.25a.83.83,0,0,1,.84,1.43Z"/><path class="cls-1" d="M352,227.41a10.5,10.5,0,1,1,10.5-10.5A10.51,10.51,0,0,1,352,227.41Zm0-19.49a9,9,0,1,0,9,9A9,9,0,0,0,352,207.92Z"/><path class="cls-1" d="M1237.64,36.26l-2.92-4.78a.83.83,0,0,1,.27-1.14.84.84,0,0,1,1.15.27L1238.2,34l5.49-3.25a.83.83,0,1,1,.84,1.44Z"/><path class="cls-1" d="M1239.6,43.63a10.5,10.5,0,1,1,10.49-10.5A10.51,10.51,0,0,1,1239.6,43.63Zm0-19.5a9,9,0,1,0,9,9A9,9,0,0,0,1239.6,24.13Z"/><path class="cls-2" d="M999.44,147.14h0a11.86,11.86,0,0,0-5.3-1.29l3-5.85a12,12,0,0,0-5.31-16.14h0a12,12,0,0,0-16.13,5.31l-4.2,8.33-6.59-20a13.55,13.55,0,0,0-17.09-8.63h0a13.55,13.55,0,0,0-8.63,17.09l6.59,20-8.32-4.21a12,12,0,0,0-16.14,5.31h0a12,12,0,0,0,5.31,16.14l5.85,3a11.88,11.88,0,0,0-3.5,4.19h0a12,12,0,0,0,5.31,16.13l5.85,2.95a12.05,12.05,0,0,0-3.5,4.19h0a12,12,0,0,0,5.31,16.13l5.84,3a12,12,0,0,0-3.5,4.18h0A12,12,0,0,0,949.55,233l36.78,18.57a11.28,11.28,0,0,0,8.62.64h0a11.27,11.27,0,0,0,6.54-5.63l18.57-36.78a12,12,0,0,0-5.31-16.14h0a12,12,0,0,0-5.3-1.29l3-5.84a12,12,0,0,0-5.31-16.14h0a12.06,12.06,0,0,0-5.3-1.29l3-5.85A12,12,0,0,0,999.44,147.14Z"/><path class="cls-3" d="M1000.61,269.94a.51.51,0,0,1-.48-.35L952.48,124.76a.51.51,0,0,1,.32-.63.5.5,0,0,1,.63.32l47.65,144.83a.49.49,0,0,1-.32.63Z"/><path class="cls-3" d="M967.93,170.61a.52.52,0,0,1-.21,0l-35.13-16.08a.5.5,0,0,1-.25-.66.52.52,0,0,1,.67-.25l35.13,16.08a.49.49,0,0,1,.24.66A.48.48,0,0,1,967.93,170.61Z"/><path class="cls-3" d="M967.93,170.61a.5.5,0,0,1-.44-.74l18.72-33.79a.51.51,0,0,1,.68-.2.5.5,0,0,1,.2.68l-18.72,33.8A.52.52,0,0,1,967.93,170.61Z"/><path class="cls-3" d="M975.46,193.5a.52.52,0,0,1-.21,0l-35.13-16.08a.49.49,0,0,1-.24-.66.5.5,0,0,1,.66-.25l35.13,16.08a.51.51,0,0,1,.25.66A.5.5,0,0,1,975.46,193.5Z"/><path class="cls-3" d="M975.46,193.5a.5.5,0,0,1-.44-.74L993.75,159a.5.5,0,1,1,.87.48l-18.72,33.8A.5.5,0,0,1,975.46,193.5Z"/><path class="cls-3" d="M983,216.4a.54.54,0,0,1-.21-.05l-35.13-16.08a.49.49,0,0,1-.24-.66.5.5,0,0,1,.66-.25l35.13,16.08a.5.5,0,0,1-.21,1Z"/><path class="cls-3" d="M983,216.4a.44.44,0,0,1-.24-.07.5.5,0,0,1-.2-.68l18.73-33.79a.49.49,0,0,1,.68-.19.48.48,0,0,1,.19.67l-18.72,33.8A.51.51,0,0,1,983,216.4Z"/><path class="cls-3" d="M990.52,239.29a.54.54,0,0,1-.21,0l-35.13-16.07a.5.5,0,0,1-.24-.67.49.49,0,0,1,.66-.24l35.13,16.07a.5.5,0,0,1-.21,1Z"/><line class="cls-4" x1="1009.25" y1="204.99" x2="990.52" y2="238.79"/><path class="cls-2" d="M1143.14,150.19h0a11.69,11.69,0,0,1,5.17-1.26l-2.88-5.7a11.7,11.7,0,0,1,5.17-15.73h0a11.72,11.72,0,0,1,15.74,5.17l4.09,8.12,6.43-19.53a13.2,13.2,0,0,1,16.66-8.41h0a13.19,13.19,0,0,1,8.41,16.66L1195.51,149l8.11-4.1a11.72,11.72,0,0,1,15.74,5.17h0a11.73,11.73,0,0,1-5.18,15.74l-5.7,2.88a11.65,11.65,0,0,1,3.41,4.08h0a11.71,11.71,0,0,1-5.18,15.73l-5.7,2.88a11.63,11.63,0,0,1,3.41,4.08h0a11.7,11.7,0,0,1-5.17,15.73l-5.7,2.88a11.74,11.74,0,0,1,3.41,4.08h0a11.72,11.72,0,0,1-5.18,15.74L1155.92,252a11,11,0,0,1-8.4.63h0a11,11,0,0,1-6.38-5.49L1123,211.31a11.71,11.71,0,0,1,5.18-15.74h0a11.53,11.53,0,0,1,5.16-1.25l-2.87-5.71a11.71,11.71,0,0,1,5.17-15.73h0a11.72,11.72,0,0,1,5.17-1.26l-2.88-5.7A11.71,11.71,0,0,1,1143.14,150.19Z"/><path class="cls-3" d="M1142,269.94l-.15,0a.49.49,0,0,1-.32-.63L1188,128.06a.5.5,0,0,1,.63-.32.52.52,0,0,1,.32.64l-46.46,141.21A.51.51,0,0,1,1142,269.94Z"/><path class="cls-3" d="M1173.86,173.09a.49.49,0,0,1-.45-.29.49.49,0,0,1,.25-.66l34.25-15.68a.5.5,0,0,1,.66.25.49.49,0,0,1-.24.66l-34.26,15.68A.52.52,0,0,1,1173.86,173.09Z"/><path class="cls-3" d="M1173.86,173.09a.49.49,0,0,1-.43-.26l-18.26-33a.5.5,0,1,1,.87-.48l18.26,32.95a.51.51,0,0,1-.19.68A.54.54,0,0,1,1173.86,173.09Z"/><path class="cls-3" d="M1166.52,195.41a.5.5,0,0,1-.21-.95l34.26-15.68a.51.51,0,0,1,.66.25.5.5,0,0,1-.25.66l-34.25,15.68A.52.52,0,0,1,1166.52,195.41Z"/><line class="cls-5" x1="1148.26" y1="161.96" x2="1166.52" y2="194.91"/><path class="cls-3" d="M1159.18,217.73a.52.52,0,0,1-.46-.29.5.5,0,0,1,.25-.66l34.25-15.68a.52.52,0,0,1,.67.25.5.5,0,0,1-.25.66l-34.26,15.68A.45.45,0,0,1,1159.18,217.73Z"/><line class="cls-5" x1="1140.92" y1="184.28" x2="1159.18" y2="217.23"/><path class="cls-3" d="M1151.83,240.05a.5.5,0,0,1-.2-1l34.25-15.68a.5.5,0,0,1,.66.25.49.49,0,0,1-.24.66L1152,240A.52.52,0,0,1,1151.83,240.05Z"/><line class="cls-5" x1="1133.58" y1="206.6" x2="1151.83" y2="239.55"/><path class="cls-6" d="M1006.82,272.34a23.21,23.21,0,0,0-14.72-18.48,10,10,0,0,0-9.7-7.64,10.21,10.21,0,0,0-2.72.38,16.23,16.23,0,0,0-14.74-9.44,16.64,16.64,0,0,0-3.41.36,13.58,13.58,0,0,0-26.83.43,16.22,16.22,0,0,0-22,14.5c-.71-.06-1.43-.1-2.17-.1a23.19,23.19,0,0,0-23,20Z"/><path class="cls-6" d="M1263.19,272.34a23.21,23.21,0,0,0-14.72-18.48,10,10,0,0,0-9.7-7.64,10.21,10.21,0,0,0-2.72.38,16.23,16.23,0,0,0-14.74-9.44,16.64,16.64,0,0,0-3.41.36,13.58,13.58,0,0,0-26.83.43,16.22,16.22,0,0,0-22,14.5c-.71-.06-1.43-.1-2.17-.1a23.19,23.19,0,0,0-23,20Z"/><rect class="cls-7" x="992.14" y="38.7" width="178.25" height="235.13" rx="8.05"/><rect class="cls-3" x="1001.36" y="46.23" width="159.8" height="217.44"/><rect class="cls-8" x="1011.31" y="71.43" width="55.43" height="53.43" rx="4.23"/><path class="cls-9" d="M1146.53,78.59h-69.7a3.58,3.58,0,0,1-3.59-3.58h0a3.58,3.58,0,0,1,3.59-3.58h69.7a3.58,3.58,0,0,1,3.58,3.58h0A3.58,3.58,0,0,1,1146.53,78.59Z"/><path class="cls-9" d="M1146.53,94h-69.7a3.58,3.58,0,0,1-3.59-3.58h0a3.58,3.58,0,0,1,3.59-3.58h69.7a3.58,3.58,0,0,1,3.58,3.58h0A3.58,3.58,0,0,1,1146.53,94Z"/><path class="cls-9" d="M1146.53,109.44h-69.7a3.59,3.59,0,0,1-3.59-3.59h0a3.59,3.59,0,0,1,3.59-3.58h69.7a3.58,3.58,0,0,1,3.58,3.58h0A3.58,3.58,0,0,1,1146.53,109.44Z"/><path class="cls-9" d="M1146.53,124.86h-69.7a3.58,3.58,0,0,1-3.59-3.58h0a3.58,3.58,0,0,1,3.59-3.58h69.7a3.58,3.58,0,0,1,3.58,3.58h0A3.58,3.58,0,0,1,1146.53,124.86Z"/><path class="cls-9" d="M1146.53,140.28H1013.1a3.58,3.58,0,0,1-3.58-3.58h0a3.58,3.58,0,0,1,3.58-3.58h133.43a3.58,3.58,0,0,1,3.58,3.58h0A3.58,3.58,0,0,1,1146.53,140.28Z"/><rect class="cls-9" x="1009.52" y="148.54" width="140.59" height="7.16" rx="3.46"/><path class="cls-9" d="M1146.53,171.13H1013.1a3.58,3.58,0,0,1-3.58-3.58h0a3.58,3.58,0,0,1,3.58-3.58h133.43a3.58,3.58,0,0,1,3.58,3.58h0A3.58,3.58,0,0,1,1146.53,171.13Z"/><path class="cls-9" d="M1146.53,186.55H1013.1a3.58,3.58,0,0,1-3.58-3.58h0a3.58,3.58,0,0,1,3.58-3.58h133.43a3.58,3.58,0,0,1,3.58,3.58h0A3.58,3.58,0,0,1,1146.53,186.55Z"/><path class="cls-9" d="M1146.53,202H1013.1a3.59,3.59,0,0,1-3.58-3.59h0a3.59,3.59,0,0,1,3.58-3.58h133.43a3.58,3.58,0,0,1,3.58,3.58h0A3.58,3.58,0,0,1,1146.53,202Z"/><path class="cls-9" d="M1146.53,217.4H1013.1a3.58,3.58,0,0,1-3.58-3.58h0a3.58,3.58,0,0,1,3.58-3.58h133.43a3.58,3.58,0,0,1,3.58,3.58h0A3.58,3.58,0,0,1,1146.53,217.4Z"/><path class="cls-9" d="M1146.53,232.82H1013.1a3.58,3.58,0,0,1-3.58-3.58h0a3.58,3.58,0,0,1,3.58-3.58h133.43a3.58,3.58,0,0,1,3.58,3.58h0A3.58,3.58,0,0,1,1146.53,232.82Z"/><path class="cls-9" d="M1146.53,248.25H1013.1a3.59,3.59,0,0,1-3.58-3.59h0a3.59,3.59,0,0,1,3.58-3.58h133.43a3.58,3.58,0,0,1,3.58,3.58h0A3.58,3.58,0,0,1,1146.53,248.25Z"/><polygon class="cls-10" points="1001.37 206.02 1042.4 263.67 1001.37 263.67 1001.37 206.02"/><path class="cls-11" d="M1001.36,206l41,57.65s12.77-8.6,24.78-32C1067.18,231.69,1027.23,224.23,1001.36,206Z"/><path class="cls-7" d="M1126.58,32.7h-28.13a17.77,17.77,0,0,0-34.38,0h-28.13a1.89,1.89,0,0,0-1.89,1.89V54.78a1.9,1.9,0,0,0,1.89,1.9h90.64a1.89,1.89,0,0,0,1.89-1.9V34.59A1.88,1.88,0,0,0,1126.58,32.7ZM1084,30.33a3.85,3.85,0,1,1,1.13-2.73A3.87,3.87,0,0,1,1084,30.33Z"/><path class="cls-2" d="M1045.59,99a11.08,11.08,0,1,0-13.13,0,14.78,14.78,0,0,0-8.21,13.23v12.61h29.55V112.25A14.76,14.76,0,0,0,1045.59,99Z"/><path class="cls-11" d="M949,65.1h72.31a3.79,3.79,0,0,1,3.79,3.79V90.72a3.78,3.78,0,0,1-3.79,3.79h-5.18v5.06a.94.94,0,0,1-1.6.66l-5.65-5.72H949a3.78,3.78,0,0,1-3.79-3.79V68.89A3.79,3.79,0,0,1,949,65.1Z"/><path class="cls-1" d="M959.79,74.8l.88,1.77a1,1,0,0,0,.74.54l2,.28a1,1,0,0,1,.55,1.7l-1.42,1.37a1,1,0,0,0-.28.88l.33,2a1,1,0,0,1-1.44,1l-1.74-.91a1,1,0,0,0-.93,0l-1.74.91a1,1,0,0,1-1.44-1l.33-2a1,1,0,0,0-.29-.88l-1.41-1.37a1,1,0,0,1,.55-1.7l1.95-.28a1,1,0,0,0,.75-.54L958,74.8A1,1,0,0,1,959.79,74.8Z"/><path class="cls-1" d="M972.91,74.8l.88,1.77a1,1,0,0,0,.74.54l2,.28a1,1,0,0,1,.55,1.7l-1.42,1.37a1,1,0,0,0-.28.88l.33,2a1,1,0,0,1-1.44,1l-1.74-.91a1,1,0,0,0-.93,0l-1.74.91a1,1,0,0,1-1.44-1l.33-2a1,1,0,0,0-.29-.88L967,79.09a1,1,0,0,1,.55-1.7l2-.28a1,1,0,0,0,.75-.54l.87-1.77A1,1,0,0,1,972.91,74.8Z"/><path class="cls-1" d="M986,74.8l.87,1.77a1,1,0,0,0,.75.54l2,.28a1,1,0,0,1,.55,1.7l-1.41,1.37a1,1,0,0,0-.29.88l.33,2a1,1,0,0,1-1.44,1l-1.74-.91a1,1,0,0,0-.93,0l-1.74.91a1,1,0,0,1-1.44-1l.33-2a1,1,0,0,0-.28-.88l-1.42-1.37a1,1,0,0,1,.55-1.7l2-.28a1,1,0,0,0,.74-.54l.88-1.77A1,1,0,0,1,986,74.8Z"/><path class="cls-1" d="M999.16,74.8l.87,1.77a1,1,0,0,0,.75.54l2,.28a1,1,0,0,1,.55,1.7l-1.41,1.37a1,1,0,0,0-.29.88l.33,2a1,1,0,0,1-1.44,1l-1.74-.91a1,1,0,0,0-.93,0l-1.74.91a1,1,0,0,1-1.44-1l.33-2a1,1,0,0,0-.28-.88l-1.42-1.37a1,1,0,0,1,.55-1.7l2-.28a1,1,0,0,0,.74-.54l.88-1.77A1,1,0,0,1,999.16,74.8Z"/><path class="cls-3" d="M1012.28,74.8l.87,1.77a1,1,0,0,0,.75.54l2,.28a1,1,0,0,1,.55,1.7L1015,80.46a1,1,0,0,0-.29.88l.33,2a1,1,0,0,1-1.44,1l-1.74-.91a.94.94,0,0,0-.92,0l-1.75.91a1,1,0,0,1-1.44-1l.33-2a1,1,0,0,0-.28-.88l-1.42-1.37a1,1,0,0,1,.55-1.7l2-.28a1,1,0,0,0,.74-.54l.88-1.77A1,1,0,0,1,1012.28,74.8Z"/><path class="cls-12" d="M1201.24,93l-.17.63-.27-.11L1197,98l-3.11,3.67-2.56-.79,1.56-5.06a9.89,9.89,0,0,1-1.37-2.51,5,5,0,0,1-.27-2.45,13.49,13.49,0,0,1,1-3.79l.86,0,4.09,1.32.11-.56,1.38-.17.89-.12,2.45-7.28h0a1.31,1.31,0,0,1,1.64-.86,1.09,1.09,0,0,1,.25.1,1.3,1.3,0,0,1,.64,1.45L1201.81,91l-.33,1.17-.11.41,0,.21v.07Z"/><path class="cls-13" d="M1201.24,93l-.17.63-.27-.11L1197,98c-1.35,0-2.51-.3-2.62-1.26a3.72,3.72,0,0,1,1.14-3.46c-2.86-.57-3.9-1.75-4.27-2.42a13.49,13.49,0,0,1,1-3.79l.86,0,4.09,1.32.11-.56,1.38-.17-1.09,2.67,1.43,1.33,2.41.53-.11.41,0,.28Z"/><path class="cls-12" d="M1198.42,92a1.43,1.43,0,0,1-.7.63,1.52,1.52,0,0,1-.34.1,2.21,2.21,0,0,1-.57,0,1,1,0,0,1-.81-1.15,2.11,2.11,0,0,0,.12-.29l.24-1.49.47-3a2.16,2.16,0,0,1,2.39.16,3,3,0,0,1,.48.42l-.78,2.8-.08.29Z"/><path class="cls-12" d="M1193.07,91.52a1.52,1.52,0,0,1-.66-.08c-1-.31-.82-1-.12-4.36a1.25,1.25,0,0,1,1.58-.56,2.19,2.19,0,0,1,.5.26l-.75,4.31A.66.66,0,0,1,1193.07,91.52Z"/><path class="cls-12" d="M1196.12,91.3a1.69,1.69,0,0,1-.58.84.89.89,0,0,1-.64.14c-.81-.1-1.24-.48-1.28-1.19l.75-4.31a1.63,1.63,0,0,1,2-.28,2.29,2.29,0,0,1,.49.34Z"/><path class="cls-13" d="M1201.61,91.63a8.35,8.35,0,0,1-.68.59,5.83,5.83,0,0,1-2.13,1.06,1.57,1.57,0,0,1-.5-1,1.4,1.4,0,0,1-.55.46,1.06,1.06,0,0,1-.25.09l-.12-.07a2.21,2.21,0,0,1-.57,0,1,1,0,0,1-.81-1.15,2.11,2.11,0,0,0,.12-.29l.24-1.49a1.25,1.25,0,0,1,.18-.24.34.34,0,0,1,.4-.09c.64.27,1.2.48,1.69.65l.13,0,.16,0c1,.33,1.72.46,2.18.58l.14,0a.62.62,0,0,1,.38.73A.12.12,0,0,1,1201.61,91.63Z"/><path class="cls-13" d="M1196.12,91.3a1.69,1.69,0,0,1-.58.84l.8-5.64a2.29,2.29,0,0,1,.49.34Z"/><path class="cls-13" d="M1193.07,91.52l.8-5a2.19,2.19,0,0,1,.5.26l-.75,4.31A.66.66,0,0,1,1193.07,91.52Z"/><path class="cls-13" d="M1198.42,92a1.43,1.43,0,0,1-.7.63l1.5-5.65a3,3,0,0,1,.48.42Z"/><path class="cls-12" d="M1201.87,94.47l-3.52,2.83-1.62,5.25-3.89-1.2,2-6.49A3.33,3.33,0,0,1,1198,93c-.17-.07-.32-.15-.46-.22l-.12-.07a2,2,0,0,1-.77-2.73.37.37,0,0,1,.48-.17,13.86,13.86,0,0,0,1.75.66,12.45,12.45,0,0,0,2.1.42.74.74,0,0,1,.66.58l0,.07.51,2.13A.74.74,0,0,1,1201.87,94.47Z"/><path class="cls-14" d="M1254.7,265.76l5.55.48a67.64,67.64,0,0,0,4.8,5.69c1,.72,7.14,2.16,6.9,3.3s-1.74,2.46-4.08,2.22a34.71,34.71,0,0,1-5.22-.72,57.56,57.56,0,0,0-8.86-1.93,1.23,1.23,0,0,1-1-.9C1253.65,271.55,1253.89,269.11,1254.7,265.76Z"/><path class="cls-15" d="M1253.81,268.5c2,.78,3.35,1.36,5,1.27l.3,0c1.52,1.41,2.94,2.37,2.46,1.49-.19-.37-.75-1.2-1.07-1.88a11.11,11.11,0,0,0,1.7-.88,23.87,23.87,0,0,0,3.82,3.48c1.08.81,8,2.44,7.77,3.72s-2,2.77-4.59,2.5a81.49,81.49,0,0,1-8.91-1.58,3.85,3.85,0,0,0-2.59-1,4.79,4.79,0,0,0-1,.09c-.88-.17-1.82-.33-2.81-.46a1.38,1.38,0,0,1-1.18-1.26C1252.7,272.63,1253.37,270.46,1253.81,268.5Z"/><path d="M1252.83,273c.68.18,1.51.27,2.92.59,3.93.89,4,2,5.52,2.47a25.44,25.44,0,0,0,8.32,1.28,5.12,5.12,0,0,0,4.22-1.72.14.14,0,0,1,0,.09c-.27,1.28-2,2.77-4.59,2.5a81.49,81.49,0,0,1-8.91-1.58,3.85,3.85,0,0,0-2.59-1,4.79,4.79,0,0,0-1,.09c-.88-.17-1.82-.33-2.81-.46a1.38,1.38,0,0,1-1.18-1.26C1252.78,273.86,1252.83,273,1252.83,273Z"/><path class="cls-14" d="M1223.89,265.76l-5.55.48a67.64,67.64,0,0,1-4.8,5.69c-1,.72-7.13,2.16-6.89,3.3s1.74,2.46,4.08,2.22a34.73,34.73,0,0,0,5.21-.72,57.8,57.8,0,0,1,8.87-1.93,1.21,1.21,0,0,0,1-.9C1224.94,271.55,1224.7,269.11,1223.89,265.76Z"/><path class="cls-15" d="M1224.79,268.5c-2,.78-3.36,1.36-5,1.27l-.29,0c-1.52,1.41-2.94,2.37-2.47,1.49.19-.37.75-1.2,1.07-1.88a11.45,11.45,0,0,1-1.69-.88,23.84,23.84,0,0,1-3.83,3.48c-1.08.81-8,2.44-7.77,3.72s2,2.77,4.6,2.5a82.37,82.37,0,0,0,8.91-1.58,3.83,3.83,0,0,1,2.59-1,4.69,4.69,0,0,1,.94.09c.88-.17,1.82-.33,2.82-.46a1.36,1.36,0,0,0,1.17-1.26C1225.89,272.63,1225.22,270.46,1224.79,268.5Z"/><path d="M1225.77,273c-.68.18-1.52.27-2.92.59-3.93.89-4.06,2-5.53,2.47a25.41,25.41,0,0,1-8.32,1.28,5.13,5.13,0,0,1-4.22-1.72v.09c.27,1.28,2,2.77,4.6,2.5a82.37,82.37,0,0,0,8.91-1.58,3.83,3.83,0,0,1,2.59-1,4.69,4.69,0,0,1,.94.09c.88-.17,1.82-.33,2.82-.46a1.36,1.36,0,0,0,1.17-1.26C1225.81,273.86,1225.77,273,1225.77,273Z"/><path class="cls-7" d="M1214.13,169.39s1.18,31.83,2.55,42c0,0-1.24,6.09,0,9.19.35,3.36-1.28,4.35-1.28,4.35l0,41.25s5,2.86,9.45,2.49c0,0,1-13.54,3.61-23.11,1.16-9.44,0-22.24,0-22.24a389,389,0,0,0,8.07-39.39s2.36-1.37,3.23.62c0,0,6.09,38.89,8.58,42.49,0,0-2.49,16.1,5.46,41.66,0,0,5.22.71,8-2.76,0,0-3.1-52.07-1.61-68.22.65-15.78,0-26.84,0-26.84l-5.47-4.59Z"/><path class="cls-11" d="M1225.33,91,1210,97l-14,9.35-2.13,10.85s-3.82,9.56-11.48,6.16a11.18,11.18,0,0,1,0-7.44s-4,8.72.22,11.48h8.07l21.69-12.54,1.77,54.56s3.33,3.26,22.89,2.62l.76-4,2.43,4.11s14.45-4.54,19.13-9.43l-1.07-16.37s9.15,0,10.85,1.27l1.48-8.29s-2.76-30.82-4-35.07c0,0-.43-8.08-8.72-9.35,0,0-10.2-1.07-12.76-7.87l-15.94-1.06A39.81,39.81,0,0,1,1225.33,91Z"/><path class="cls-16" d="M1258.27,146.29V138s9.78-.21,12.33,1.27l-1.48,8.29S1265.71,146.29,1258.27,146.29Z"/><path class="cls-16" d="M1262.72,100.27s-4.29,16.21-3,21.8l1.37,3.92s1.15-5.78,3.34-6.9c0,0-3.6,9.51-2.48,13.79,0,0,2.43-3.35,4.67-2.23,0,0-6.71,2.75-4.85,7.34h-3.51s1.33,6.11-2.26,21.16c0,0,.74-9.88,0-14.54,0,0-1.87,4.66-5.59,6.9,0,0,9-11.74,7.85-25.91S1260.48,105.86,1262.72,100.27Z"/><path class="cls-16" d="M1190.67,127.37l21.72-16.85s-.74-11.37-2.05-10.25c0,0,4.73-5.21,2.65,33.92l-.63-19.36Z"/><path class="cls-17" d="M1239.79,184.57l12.12,42.1,6.61,41.54-4.69.51s-6.51-20.65-5.46-41.66A295.85,295.85,0,0,1,1239.79,184.57Z"/><path class="cls-12" d="M1267.92,147.23l-7.75,23.67s-1.66,6.3-8.06,1.19,1.15-8,1.15-8,2.71-.29,5-17.77C1258.27,146.29,1264.67,145.8,1267.92,147.23Z"/><path class="cls-17" d="M1224.88,268.69s1-15.1,3.81-25.09c0,0,.06-13.19-.2-20.26,0,0,5.94-22.29,7.26-34.43l-10.87,36.22s-4.55,37.33-3.4,43.32A12.71,12.71,0,0,0,1224.88,268.69Z"/><path class="cls-17" d="M1249.57,168.55s.51,4.53,9.89,6.27C1259.46,174.82,1250,175.73,1249.57,168.55Z"/><path class="cls-11" d="M1198.49,100.67s-3.78,9.31-4.06,15-6.58,10.88-12.75,7.48c-2.38-7.61,9.11-25,9.11-25Z"/><path class="cls-13" d="M1236.68,95.81c8,0,11.54-1.48,12.57-1.84a12.33,12.33,0,0,1-2.82-6.32,1.87,1.87,0,0,0-1.85-1.59h-14.71a1.35,1.35,0,0,0-1.33,1.18,12.3,12.3,0,0,1-3.21,7.09A58.18,58.18,0,0,0,1236.68,95.81Z"/><path class="cls-12" d="M1229.15,89.34s-2.81,11.54,7,14.74l1.09,9.37,1.38-9.11s8.53-2,6.84-15C1245.43,89.34,1239.45,103.3,1229.15,89.34Z"/><path class="cls-18" d="M1249,101.45l-5.22-4.1-4.28,4.1-1.49,4.78V99s7.86-3,7.47-13l3.82,5.1Z"/><polygon class="cls-16" points="1248.3 100.86 1243.84 97.35 1239.55 101.45 1238.3 105.45 1240.97 100.6 1248.3 100.86"/><path class="cls-18" d="M1225.63,101.45l5.22-4.1,4.28,4.1,1.49,4.78V99s-7.86-3-7.47-13l-3.82,5.1Z"/><polygon class="cls-16" points="1226.38 100.86 1230.85 97.35 1235.13 101.45 1236.38 105.45 1233.72 100.6 1226.38 100.86"/><path class="cls-12" d="M1224.44,78c1.45-2,4.75,1.23,4.75,1.23a4.06,4.06,0,0,1-.34,5.29c-1.19,1.44-2.57.35-3.49-1.37S1223.4,79.37,1224.44,78Z"/><path class="cls-13" d="M1226.53,83.32a1.38,1.38,0,0,0,1.21.5.48.48,0,0,0,.33-.51c-.13-.43-1.5-1.19-1.16-2.38s-1.18-2.36-1.66-1.7S1225.33,82.1,1226.53,83.32Z"/><path class="cls-12" d="M1250.3,78c-1.45-2-4.75,1.23-4.75,1.23a4.06,4.06,0,0,0,.34,5.29c1.19,1.44,2.57.35,3.49-1.37S1251.34,79.37,1250.3,78Z"/><path class="cls-13" d="M1248.21,83.32a1.37,1.37,0,0,1-1.21.5.48.48,0,0,1-.33-.51c.13-.43,1.5-1.19,1.16-2.38s1.18-2.36,1.66-1.7S1249.41,82.1,1248.21,83.32Z"/><path class="cls-12" d="M1248.13,68.62a7,7,0,0,0-2.78-4.08,12.68,12.68,0,0,0-15.89,0,7,7,0,0,0-2.79,4.08s-.68,12.67,2.48,17.53c2.45,3.76,5.53,5.8,8.25,5.8s5.81-2,8.26-5.8C1248.81,81.29,1248.13,68.62,1248.13,68.62Z"/><path class="cls-19" d="M1227.76,78.8c-.35-5.54.25-9.66.56-10.15a12.21,12.21,0,0,0,3.68-4.89s4.56,2.21,11.77,1.33c0,0,1.34,1.89,2.55,3.83.59.94.84,6.35.68,9.86a1.69,1.69,0,0,0,.55,1.36l.24.22c.89-1.8,1.77-9.38,1.32-11.88-1.27-7.06-6.38-7.81-11.46-7.81a14.38,14.38,0,0,0-6.12,1.4c-.39-.11-1-.25-1-.33-2.72.18-4.11,4.05-4.91,6.74s.43,10.08,1.32,11.88h0A1.7,1.7,0,0,0,1227.76,78.8Z"/><path class="cls-20" d="M1230.7,64.55l.75.35a9.26,9.26,0,0,0,.55-1.14s4.56,2.21,11.77,1.33c0,0,1.13,1.6,2.26,3.37a10.31,10.31,0,0,0,2.77-1.3c-1.64-5.84-6.4-6.49-11.15-6.49a14.38,14.38,0,0,0-6.12,1.4c-.39-.11-1-.25-1-.33a3.35,3.35,0,0,0-2.13,1.06l0,0A5.78,5.78,0,0,0,1230.7,64.55Z"/><path class="cls-19" d="M1249.34,60.39c0,2.48-4.08,1.43-9.4-1.57s-7.81-.39-8.86,1.3a10.66,10.66,0,0,1,1.22-3.39,3.65,3.65,0,0,0-2.16,4.69,4,4,0,0,0-3.53.76s2.76-.43,3.77.44c.14.11.56.31.61.36,2.85,3.14,5.67,4.66,11.55,4.24,3.25-.24,4.33-.62,5.87-2.27A4.79,4.79,0,0,0,1249.34,60.39Z"/><path class="cls-20" d="M1242.54,67.22c3.06-.22,4.2-.57,5.61-2a8.52,8.52,0,0,1-6.1-2.17,4.66,4.66,0,0,0,1.43,3.13,14.55,14.55,0,0,1-7-3,16.37,16.37,0,0,0,1.3,2.73c-1.34,0-4.91-1.56-5.71-1.92C1234.56,66.45,1237.37,67.59,1242.54,67.22Z"/><path class="cls-21" d="M1240.26,69.9a16.7,16.7,0,0,1,3.76.85c.67.45,2,2,1.81,2.45s-2.42-1.12-2.73-1.12-3.23-.41-3.38-.86S1239.75,69.8,1240.26,69.9Z"/><path class="cls-21" d="M1234.06,70a16.9,16.9,0,0,0-3.78.75c-.68.43-2,1.94-1.85,2.4s2.45-1.06,2.76-1.05,3.24-.31,3.4-.76S1234.58,69.89,1234.06,70Z"/><path class="cls-20" d="M1227.66,74.57a7.15,7.15,0,0,1-2.07-.38,24.76,24.76,0,0,0,1.37,6.17h0a1.7,1.7,0,0,0,.79-1.55C1227.66,77.26,1227.64,75.84,1227.66,74.57Z"/><path class="cls-20" d="M1247,74.68c0,1.42,0,2.88,0,4.1a1.69,1.69,0,0,0,.55,1.36l.24.22a26.06,26.06,0,0,0,1.25-6.59A6.15,6.15,0,0,1,1247,74.68Z"/><path class="cls-22" d="M1232.52,83.44s5.34,1.91,8.85-.51c0,0-.27,4.25-4.19,4.45C1234.57,87.51,1233,85.49,1232.52,83.44Z"/><path class="cls-23" d="M1236.75,85.87a5.61,5.61,0,0,0-2.54.48,4.28,4.28,0,0,0,5.48.08A7.1,7.1,0,0,0,1236.75,85.87Z"/><path class="cls-24" d="M1233.14,83.63c.07.26.17.58.23.77a.3.3,0,0,0,.16.17c3.4,1.32,5.63.65,6.82-.16a.23.23,0,0,0,.1-.12,9.23,9.23,0,0,0,.35-1C1238.07,84.74,1234.55,84,1233.14,83.63Z"/><path class="cls-3" d="M1239.07,76.36a3.88,3.88,0,0,1,1.12-.79,3.18,3.18,0,0,1,1.79-.26,2.35,2.35,0,0,1,1.5.62,2,2,0,0,0,.62.51,6.56,6.56,0,0,1-1.23.58c-1.32.27-2.55-.25-3.85-.57h.18"/><path class="cls-25" d="M1243.5,76.39a2.31,2.31,0,0,0-1.5-.63,3.09,3.09,0,0,0-1.78.27,4.2,4.2,0,0,0-.81.5l-.38-.1c.06,0,0,0,.09,0l-.18-.05a5,5,0,0,1,1.26-.83,3.18,3.18,0,0,1,1.79-.26,2.27,2.27,0,0,1,1.5.62,2.31,2.31,0,0,0,.62.51l-.37.2Z"/><path class="cls-26" d="M1242.93,76.18a1.06,1.06,0,1,0-1,1A1.06,1.06,0,0,0,1242.93,76.18Z"/><path class="cls-27" d="M1242.56,76.43a.62.62,0,0,0-.68-.55.56.56,0,1,0,.68.55Z"/><path d="M1242.3,76.18a.43.43,0,0,0-.42-.43.42.42,0,0,0-.42.43.42.42,0,0,0,.42.42A.42.42,0,0,0,1242.3,76.18Z"/><path class="cls-3" d="M1241.71,76a.21.21,0,0,0-.21-.21.21.21,0,1,0,0,.42A.21.21,0,0,0,1241.71,76Z"/><path class="cls-28" d="M1239.07,76.36a8.67,8.67,0,0,1,1.63-1,4.3,4.3,0,0,1,2.59.44l.61.53.52-.06a1.94,1.94,0,0,0-.79-.89c-.68-.47-3-.42-3-.42a21.36,21.36,0,0,0-1.76,1.38"/><path class="cls-13" d="M1243.9,76.36c-.32.18-.25.21-.59.33a3.85,3.85,0,0,1-1.8.25,13,13,0,0,1-2-.37c-.19-.06-.52-.27-.67-.2,0,.1.18.14.28.17a10.2,10.2,0,0,0,2.57.74,3.58,3.58,0,0,0,1.42-.17,2.58,2.58,0,0,0,1.27-.81"/><path class="cls-3" d="M1235.08,76.36a4,4,0,0,0-1.11-.79,3.18,3.18,0,0,0-1.79-.26,2.3,2.3,0,0,0-1.5.62,2.05,2.05,0,0,1-.63.51,6.65,6.65,0,0,0,1.24.58c1.32.27,2.54-.25,3.85-.57H1235"/><path class="cls-25" d="M1230.65,76.39a2.34,2.34,0,0,1,1.5-.63,3.12,3.12,0,0,1,1.79.27,4.45,4.45,0,0,1,.8.5l.39-.1c-.06,0,0,0-.1,0l.18-.05a5,5,0,0,0-1.26-.83,3.17,3.17,0,0,0-1.79-.26,2.3,2.3,0,0,0-1.49.62,2.36,2.36,0,0,1-.63.51l.38.2C1230.5,76.54,1230.57,76.46,1230.65,76.39Z"/><path class="cls-26" d="M1231.68,76.16a1.06,1.06,0,0,1,2.11,0,1.06,1.06,0,1,1-2.11,0Z"/><path class="cls-27" d="M1232.05,76.41a.7.7,0,0,1,1.37,0,.7.7,0,0,1-1.37,0Z"/><path d="M1232.31,76.16a.43.43,0,1,1,.43.42A.42.42,0,0,1,1232.31,76.16Z"/><path class="cls-3" d="M1232.27,76.08a.21.21,0,0,1,.21-.21.21.21,0,0,1,.21.21.21.21,0,0,1-.21.21A.22.22,0,0,1,1232.27,76.08Z"/><path class="cls-28" d="M1235.08,76.36a8.67,8.67,0,0,0-1.63-1,4.27,4.27,0,0,0-2.58.44c-.18.14-.61.53-.61.53l-.53-.06a1.93,1.93,0,0,1,.8-.89c.67-.47,3-.42,3-.42a19.76,19.76,0,0,1,1.76,1.38"/><path class="cls-13" d="M1230.26,76.36a2.29,2.29,0,0,0,.59.33,3.82,3.82,0,0,0,1.8.25,12.9,12.9,0,0,0,1.95-.37c.19-.06.53-.27.67-.2,0,.1-.17.14-.27.17a10.27,10.27,0,0,1-2.58.74,3.63,3.63,0,0,1-1.42-.17,2.58,2.58,0,0,1-1.27-.81"/><path class="cls-29" d="M1234.38,80.83c0,.32,1.32.68,2.68.68s2.51-.44,2.51-.76-.25-.34-.92-.34c-.44,0-1.05.7-1.66.7s-1.37-.84-1.81-.74S1234.38,80.66,1234.38,80.83Z"/><path class="cls-16" d="M1190.79,98.15l7.7,2.52s-.74,1.91-1.09,2.91l-8.11-3A22.83,22.83,0,0,1,1190.79,98.15Z"/></svg>