<?xml version="1.0" encoding="UTF-8"?>
<svg width="64" height="64" id="Layer_1" xmlns="http://www.w3.org/2000/svg" viewBox="0 0 1080 1080">
  <defs>
    <style>
      .cls-1 {
        fill: #042b62;
      }

      .cls-2 {
        fill: #fefefe;
      }
    </style>
  </defs>
  <g>
    <path class="cls-1" d="M721.94,117.15c4.34,2.63,9.46,2.51,14.15,3.99,36.71,11.53,62.18,44.75,62.52,83.86.51,59.04.23,118.08.1,177.12-.03,14.87-10.44,25.64-24.07,25.74-14.02.1-24.26-10.71-24.28-26.09-.07-56.77-.02-113.54-.04-170.31-.01-29.71-16.13-45.85-45.72-45.85-152.65,0-305.29,0-457.94,0-29.58,0-45.57,16.1-45.57,45.85,0,195.54,0,391.08,0,586.61,0,29.74,16.01,45.84,45.59,45.84,78.47,0,156.94.02,235.4-.02,11.27,0,19.52,4.8,23.92,15.14,4.04,9.49,2.05,18.32-4.95,25.84-4.68,5.03-10.64,7.5-17.55,7.5-81.75-.01-163.5.38-245.24-.2-46.94-.33-85.54-40.75-85.58-88.36-.12-122.62-.04-245.24-.04-367.86,0-75.19,0-150.37,0-225.56,0-46.14,25.18-79.03,69.74-91.24,1.52-.42,3.74.36,4.45-1.99h495.11Z"/>
    <path class="cls-1" d="M806.04,647.44c10.89,10.96,11.53,25.73,1.81,35.7-10.15,10.41-24.57,9.84-36.15-1.57-9.49-9.36-18.83-18.86-28.31-28.37-2.37,2.31-1.33,4.69-1.33,6.76-.09,37.08.02,74.16-.14,111.24-.05,11.66-6.98,20.3-17.85,23.37-10.11,2.85-20.99-1.51-26.78-10.74-3.07-4.89-3.76-10.3-3.76-15.93.04-35.57.02-71.13.02-106.7v-9.28c-11,11.08-20.35,20.62-29.84,30.03-10.95,10.85-25.67,11.33-35.64,1.31-9.99-10.05-9.42-24.6,1.56-35.61,23.14-23.23,46.33-46.42,69.55-69.58,11.8-11.77,25.46-11.91,37.29-.17,23.27,23.09,46.45,46.29,69.57,69.54Z"/>
    <path class="cls-1" d="M925.14,648.62c-18.49-117.97-135.99-197.73-252.43-171.18-108.44,24.73-178.8,127.07-162.52,236.38,16.37,109.81,117.61,188.54,228.16,177.39,90.03-9.07,162.84-73.01,184.03-161.25,2.02-8.42,1.92-17.28,5.48-25.34v-42.4c-2.91-4.11-2.01-9.08-2.72-13.6ZM717.92,843.91c-89.28-.12-161.43-72.42-161.35-161.68.08-89.33,72.31-161.32,161.69-161.18,89.18.14,161.37,72.68,161.14,161.91-.24,88.67-72.87,161.07-161.48,160.95Z"/>
    <path class="cls-2" d="M807.85,683.14c-10.15,10.41-24.57,9.84-36.15-1.57-9.49-9.36-18.83-18.86-28.31-28.37-2.37,2.31-1.33,4.69-1.33,6.76-.09,37.08.02,74.16-.14,111.24-.05,11.66-6.98,20.3-17.85,23.37-10.11,2.85-20.99-1.51-26.78-10.74-3.07-4.89-3.76-10.3-3.76-15.93.04-35.57.02-71.13.02-106.7v-9.28c-11,11.08-20.35,20.62-29.84,30.03-10.95,10.85-25.67,11.33-35.64,1.31-9.99-10.05-9.42-24.6,1.56-35.61,23.14-23.23,46.33-46.42,69.55-69.58,11.8-11.77,25.46-11.91,37.29-.17,23.27,23.09,46.45,46.29,69.57,69.54,10.89,10.96,11.53,25.73,1.81,35.7Z"/>
    <path class="cls-1" d="M807.85,683.14c-10.15,10.41-24.57,9.84-36.15-1.57-9.49-9.36-18.83-18.86-28.31-28.37-2.37,2.31-1.33,4.69-1.33,6.76-.09,37.08.02,74.16-.14,111.24-.05,11.66-6.98,20.3-17.85,23.37-10.11,2.85-20.99-1.51-26.78-10.74-3.07-4.89-3.76-10.3-3.76-15.93.04-35.57.02-71.13.02-106.7v-9.28c-11,11.08-20.35,20.62-29.84,30.03-10.95,10.85-25.67,11.33-35.64,1.31-9.99-10.05-9.42-24.6,1.56-35.61,23.14-23.23,46.33-46.42,69.55-69.58,11.8-11.77,25.46-11.91,37.29-.17,23.27,23.09,46.45,46.29,69.57,69.54,10.89,10.96,11.53,25.73,1.81,35.7Z"/>
  </g>
  <rect class="cls-1" x="256.22" y="239" width="170.31" height="43"/>
  <rect class="cls-1" x="252" y="325" width="369" height="43"/>
  <rect class="cls-1" x="252" y="411" width="369" height="43"/>
</svg>