<?xml version="1.0" encoding="UTF-8"?>
<svg xmlns="http://www.w3.org/2000/svg" version="1.1" xmlns:xlink="http://www.w3.org/1999/xlink" viewBox="0 0 1358 290">
  <defs>
    <style>
      .cls-1, .cls-2, .cls-3, .cls-4, .cls-5, .cls-6 {
        isolation: isolate;
      }

      .cls-1, .cls-7, .cls-3, .cls-8, .cls-6 {
        fill: #042b62;
      }

      .cls-1, .cls-9, .cls-6 {
        opacity: .4;
      }

      .cls-2 {
        fill: #d1e3f1;
      }

      .cls-2, .cls-5 {
        opacity: .6;
      }

      .cls-10, .cls-5 {
        fill: #ffb7b4;
      }

      .cls-3 {
        opacity: .7;
      }

      .cls-11, .cls-12, .cls-8 {
        opacity: .5;
      }

      .cls-11, .cls-13, .cls-9, .cls-14, .cls-15 {
        mix-blend-mode: multiply;
      }

      .cls-16 {
        fill: #005263;
      }

      .cls-17, .cls-12 {
        fill: #fff;
      }

      .cls-18 {
        mask: url(#mask);
      }

      .cls-19 {
        fill: #648d9b;
      }

      .cls-20 {
        fill: #c63e3e;
      }

      .cls-21 {
        fill: #f2f1f0;
      }

      .cls-22 {
        fill: #ffd5be;
      }

      .cls-23, .cls-24, .cls-25 {
        fill: none;
      }

      .cls-26 {
        mix-blend-mode: color-burn;
      }

      .cls-27, .cls-28 {
        fill: #e2e2e2;
      }

      .cls-29 {
        fill: #e0e0e0;
      }

      .cls-28, .cls-30 {
        stroke: #a8a8a8;
      }

      .cls-28, .cls-30, .cls-25 {
        stroke-width: .2px;
      }

      .cls-31 {
        fill: #ffcbd7;
      }

      .cls-32 {
        mix-blend-mode: screen;
      }

      .cls-32, .cls-14 {
        opacity: .3;
      }

      .cls-33 {
        fill: #fcee21;
      }

      .cls-34 {
        fill: #0e1d28;
      }

      .cls-35 {
        fill: #365f6d;
      }

      .cls-30, .cls-36 {
        fill: #eaeaea;
      }

      .cls-37 {
        fill: #182c3c;
      }

      .cls-24 {
        stroke: #e2e2e2;
        stroke-width: .8px;
      }

      .cls-24, .cls-25 {
        stroke-miterlimit: 10;
      }

      .cls-38 {
        fill: #023f47;
      }

      .cls-25 {
        stroke: #fce2b9;
      }

      .cls-39 {
        clip-path: url(#clippath);
      }

      .cls-40 {
        fill: #feffff;
      }

      .cls-6 {
        fill-opacity: .6;
      }

      .cls-41 {
        fill: #e4e8ea;
      }

      .cls-15 {
        opacity: .5;
      }
    </style>
    <clipPath id="clippath">
      <rect class="cls-23" width="1358" height="290"/>
    </clipPath>
    <mask id="mask" x="724.4" y="64.2" width="20.8" height="23.4" maskUnits="userSpaceOnUse">
      <g id="mask0_31_2174">
        <path class="cls-17" d="M730.4,69.1c.2,0,.6.7.1,2-.2.6-.6,1.2-1.1,1.7.2.7.3,1.5.2,2.3.6.5,1.5-1.8,2.5-2.2.4-1,1-1.9,1.8-2.8,0,0,2.3-5.5,2.8-5.8s1.5,0,1.6.5-1.8,5.4-1.8,5.4c0,0,3-5.5,3.2-5.8.2-.3,1.5,0,1.6.5.1.6-2.1,6.1-2.1,6.1,0,0,2.9-4.3,3.4-4.6.4-.3,1.5.2,1.4.9-.8,1.7-1.8,3.3-2.8,4.9.8-1.2,1.8-2.3,2.8-3.3.1,0,.3,0,.4,0,.1,0,.3,0,.4.1.1,0,.2.2.3.3,0,.1.1.2.1.4,0,.4-3.2,4.9-3.2,4.9-.9,1.9-2,3.6-3.3,5.3-1.3,1.4-2.8,2.6-4.4,3.5l-1.9,3.6s-5.7-.7-7.2-4.8l1.6-3.5s-.1-4.1,0-4.7c.3-1,.7-2,1.1-3,0,0,2-2,2.6-1.9Z"/>
      </g>
    </mask>
  </defs>
  <!-- Generator: Adobe Illustrator 28.7.1, SVG Export Plug-In . SVG Version: 1.2.0 Build 142)  -->
  <g class="cls-4">
    <g id="Layer_1">
      <g class="cls-39">
        <g>
          <path class="cls-36" d="M972.6,173.5h-14.5v72.4h14.5v-72.4Z"/>
          <path class="cls-27" d="M987.2,173.5h-14.6v72.4h14.6v-72.4Z"/>
          <path class="cls-36" d="M1010.3,151.6h-14.5v94.3h14.5v-94.3Z"/>
          <path class="cls-27" d="M1024.9,151.6h-14.5v94.3h14.5v-94.3Z"/>
          <path class="cls-36" d="M1048,130.5h-14.6v115.5h14.6v-115.5Z"/>
          <path class="cls-27" d="M1062.6,130.5h-14.6v115.5h14.6v-115.5Z"/>
          <path class="cls-7" d="M73.9,60.7c0,1.3.5,2.5,1.4,3.4.9.9,2.1,1.4,3.4,1.4h103.2c1,0,1.9-.3,2.7-.8.8-.5,1.4-1.3,1.8-2.2.4-.9.5-1.9.3-2.8-.2-.9-.7-1.8-1.3-2.5-.4-.4-1-.8-1.6-1.1-.6-.2-1.2-.4-1.8-.4h-4.9c-.8-1.9-2.1-3.6-3.7-4.8-1.6-1.3-3.5-2.2-5.5-2.5-2-.4-4.1-.3-6.1.4-2,.6-3.8,1.7-5.2,3.2-2-3.4-5.1-6-8.7-7.4-3.7-1.4-7.7-1.6-11.4-.4-1.9-3.5-4.8-6.4-8.3-8.3-3.5-1.9-7.5-2.6-11.5-2.2-4,.4-7.7,2-10.8,4.6s-5.3,6-6.3,9.8c-1.6-.8-3.5-1.3-5.3-1.3-1.8,0-3.7.3-5.4,1-1.7.7-3.2,1.8-4.4,3.2s-2.1,3-2.6,4.8h-3.1c-1.3,0-2.5.5-3.4,1.4-.9.9-1.4,2.1-1.4,3.4Z"/>
          <path class="cls-7" d="M375.4,60.4c0,1.2-.5,2.4-1.4,3.3-.9.9-2.1,1.4-3.3,1.4h-100.4c-1.2,0-2.4-.5-3.3-1.4-.9-.9-1.4-2.1-1.4-3.3,0-1.2.5-2.4,1.4-3.3.9-.9,2.1-1.4,3.3-1.4h4.7c.8-1.9,2-3.5,3.6-4.7,1.6-1.3,3.4-2.1,5.4-2.5,2-.4,4-.3,5.9.3,1.9.6,3.7,1.7,5.1,3.1,1.9-3.3,4.9-5.8,8.5-7.2,3.6-1.4,7.5-1.5,11.1-.4,1.8-3.4,4.6-6.2,8.1-8.1,3.4-1.8,7.3-2.6,11.2-2.1,3.9.4,7.5,2,10.5,4.5,3,2.5,5.1,5.9,6.1,9.6,1.6-.8,3.4-1.2,5.2-1.3,1.8,0,3.6.3,5.2,1,1.6.7,3.1,1.8,4.3,3.1,1.2,1.3,2.1,2.9,2.6,4.7h3c1.2,0,2.4.5,3.3,1.4.9.9,1.4,2.1,1.4,3.3Z"/>
          <path class="cls-7" d="M1258.9,106.3c0,.7-.3,1.4-.8,1.9-.5.5-1.2.8-1.9.8h-57c-.7,0-1.4-.3-1.9-.8-.5-.5-.8-1.2-.8-1.9s.3-1.4.8-1.9,1.2-.8,1.9-.8h2.7c.5-1,1.2-2,2-2.7.9-.7,1.9-1.2,3.1-1.4,1.1-.2,2.3-.1,3.4.2,1.1.3,2.1.9,2.9,1.7.8-1.5,2.1-2.7,3.5-3.5,1.5-.8,3.1-1.3,4.8-1.3,1,0,1.9.1,2.8.4,1-2,2.6-3.6,4.6-4.6,2-1,4.2-1.5,6.4-1.2,2.2.2,4.3,1.1,6,2.6,1.7,1.4,2.9,3.4,3.5,5.5.9-.5,1.9-.7,2.9-.7,1,0,2,.2,3,.6.9.4,1.8,1,2.4,1.8.7.8,1.2,1.7,1.5,2.6h1.7c.7,0,1.4.3,1.9.8.5.5.8,1.2.8,1.9Z"/>
          <path class="cls-7" d="M943.5,60.7c0,.4,0,.8.2,1.2.2.4.4.7.7,1,.3.3.6.5,1,.7s.8.2,1.2.2h67.6c.8,0,1.6-.3,2.2-.9.6-.6.9-1.4.9-2.2,0-.8-.3-1.6-.9-2.2-.6-.6-1.4-.9-2.2-.9h-3.2c-.5-1.2-1.4-2.3-2.4-3.2-1-.8-2.3-1.4-3.6-1.7-1.3-.3-2.7-.2-4,.2-1.3.4-2.5,1.1-3.4,2.1-1.3-2.2-3.3-3.9-5.7-4.9-2.4-.9-5-1-7.5-.3-1.2-2.3-3.1-4.2-5.4-5.4-2.3-1.2-4.9-1.7-7.5-1.4-2.6.3-5.1,1.3-7.1,3-2,1.7-3.4,3.9-4.1,6.5-1.1-.5-2.3-.8-3.5-.9-1.2,0-2.4.2-3.5.7-1.1.5-2.1,1.2-2.9,2.1-.8.9-1.4,2-1.7,3.1h-2c-.4,0-.8,0-1.2.2-.4.2-.7.4-1,.7-.3.3-.5.7-.7,1-.2.4-.2.8-.2,1.2Z"/>
          <g class="cls-11">
            <path class="cls-7" d="M1186.1,213.5l.2.5h0v.2h0v.2c0,.2,0,.3-.2.4h-.2c0,0-2.3.8-2.3.8.2,0,.4,0,.5,0,.2,0,.3.2.4.3,0,0,0,0,0,.1l1.3,4s0,0,0,.1h0v.2h0c0,.2,0,.3-.2.4h0c0,0,0,0,0,0h-.2c0,0-1.1.4-1.1.4.2,0,.4,0,.5,0,.2,0,.3.2.4.4,0,0,0,0,0,.1l1.3,4h0v.2h0v.2c0,.1,0,.2-.2.3h0c0,0,0,0,0,0h-.2c0,0,1.1-.3,1.1-.3.2,0,.4,0,.5,0,.2,0,.3.2.4.3,0,0,0,0,0,.1l1.3,4s0,0,0,.1h0v.2c0,.1,0,.3-.2.4h0c0,.1,0,.1,0,.1,0,0,0,0-.2,0l-2.6.8c.2,0,.4,0,.5,0,.2,0,.3.2.4.4,0,0,0,0,0,.1l1.3,4c0,0,0,.1,0,.2,0,0,0,0,0,.1,0,0,0,.1,0,.2h0v.2h0c0,0,0,.1-.1.2h-.2c0,0,1.1-.3,1.1-.3.2,0,.4,0,.5,0,.2,0,.3.2.4.4h0c0,.1,1.3,4.1,1.3,4.1,0,0,0,0,0,.1,0,0,0,.1,0,.2,0,.2-.1.3-.2.4h0s0,0-.2,0l-2.1.7c.2,0,.4,0,.5,0,.2,0,.3.2.4.4,0,0,0,0,0,.1l1.3,4s0,0,0,.1h0v.2h0c0,.3-.2.4-.3.6h-.2c0,0-5.9,2-5.9,2-.4,0-.8-.2-1.1-.3-.4-.1-1-.3-1.5-.5-1.5-.6-3-1.4-4.3-2.3l-.6-.5c-.2-.1-.4-.3-.6-.5-1.3-1.1-2.4-2.3-3.4-3.6l-.4-.6-.4-.6c-.8-1.3-1.4-2.7-1.9-4.1,0-.2-.1-.4-.2-.6,0-.2-.1-.4-.2-.6-.4-1.5-.6-3-.6-4.5v-1.4c0-1.7.4-3.4.9-5.1,0-.2.2-.5.3-.8s.2-.5.3-.8c.9-2.2,2.3-4.3,4-6.1l.3-.3c.2-.3.5-.5.8-.8s.8-.7,1.2-1h.2c1.6-1.3,3.4-2.3,5.4-2.9h.3c.7,0,1.5,0,2.2,0Z"/>
          </g>
          <path class="cls-7" d="M1194.5,251.2c10.7-1.3,18.4-11,17.1-21.7-1.3-10.7-11-18.4-21.7-17.1-10.7,1.3-18.4,11-17.1,21.7,1.3,10.7,11,18.4,21.7,17.1Z"/>
          <g class="cls-13">
            <path class="cls-7" d="M1207.1,233.3c.7-8.5-5.6-16-14.1-16.7-8.5-.7-16,5.6-16.7,14.1-.7,8.5,5.6,16,14.1,16.7,8.5.7,16-5.6,16.8-14.1Z"/>
          </g>
          <g class="cls-26">
            <path class="cls-7" d="M1186.8,217.3c-.3,0-.6.2-.8.3,3.8-1,7.9-.5,11.3,1.4,3.5,1.9,6.1,5,7.3,8.7s1,7.8-.7,11.4-4.6,6.4-8.3,7.9c.3,0,.6-.1.8-.2,3.8-1.3,7-4.1,8.8-7.8,1.8-3.6,2.1-7.8.8-11.7-1.3-3.9-4-7-7.6-8.9-3.6-1.9-7.8-2.2-11.7-1Z"/>
          </g>
          <path class="cls-7" d="M1196.4,240.9c5-2.6,6.9-8.8,4.3-13.8-2.6-5-8.8-6.9-13.8-4.3-5,2.6-6.9,8.8-4.3,13.8,2.6,5,8.8,6.9,13.8,4.3Z"/>
          <path class="cls-12" d="M1194.3,226.3l-.5-1.4-5.9,2-2.3.8.5,1.4,2.3-.8c.5-.2,1-.2,1.4,0,.5.1.9.4,1.2.8l-4.3,1.4.5,1.4,4.3-1.4c0,.5-.2,1-.4,1.3-.3.4-.7.7-1.2.8l-2.3.8.5,1.4.5-.2c.7-.2,1.4-.3,2.1-.1,2,.5,3.8,1.7,5,3.4l1.5-.5c-1.3-2-3.2-3.5-5.5-4.2.4-.4.8-.9,1-1.5.2-.6.3-1.2.2-1.8l2.4-.8-.5-1.4-2.4.8c-.3-.5-.7-.9-1.2-1.3l3.1-1.1Z"/>
          <g class="cls-11">
            <path class="cls-7" d="M1148,54.5l-.2.5s0,0,0,.1h0c0,0,0,.2,0,.2h0c-.1.2-.3.2-.4.3h-.2c0,0-.1,0-.2,0l-2.3-.7c.2,0,.3.2.4.3,0,.2.1.3.1.5,0,0,0,0,0,.1l-1.2,4s0,0,0,.1h0c0,0,0,.1,0,.1,0,0-.2.1-.3.2h-.4l-1.1-.3c.2,0,.3.2.4.3,0,.2.1.3.1.5h0c0,.1-1.2,4.1-1.2,4.1h0c0,.2,0,.2,0,.2h0c0,.1-.2.2-.3.2h-.2c0,0-.1,0-.2,0l1.1.3c.2,0,.3.2.4.3,0,.1.1.3.1.5h0c0,.1-1.2,4.1-1.2,4.1,0,0,0,0,0,.1,0,0,0,0,0,.1,0,.1-.2.2-.3.2h-.3c0,0-.1,0-.2,0l-2.5-.8c.2,0,.3.2.4.3,0,.2.1.3.1.5h0c0,.1-1.2,4.1-1.2,4.1,0,0,0,.1,0,.2,0,0,0,0,0,.1,0,0,0,0-.1.1h-.2s0,0-.2,0h0c0,0-.1,0-.2,0l1.1.3c.2,0,.3.2.4.3,0,.1.1.3.1.5h0c0,.1-1.2,4.1-1.2,4.1h0c0,.1-.1.3-.1.3-.1.1-.3.2-.4.2h-.3l-2.1-.6c.2,0,.3.2.4.3.1.1.1.3.1.5,0,0,0,0,0,.1l-1.2,4h0v.2h0c-.1.2-.3.3-.5.3h-.2l-5.8-1.8c-.2-.3-.5-.6-.7-.9-.2-.3-.6-.8-.9-1.2-.9-1.3-1.6-2.8-2.1-4.3,0-.2-.2-.5-.2-.7,0-.2-.1-.5-.2-.7-.4-1.6-.6-3.2-.6-4.8v-1.3c.1-1.5.4-2.9.8-4.4,0-.2.1-.4.2-.6,0-.2.1-.4.2-.6.5-1.4,1.2-2.8,2.1-4,.1-.2.2-.4.4-.5.1-.2.3-.4.4-.5,1-1.3,2.3-2.5,3.6-3.5.2-.2.4-.3.6-.5l.7-.4c2-1.3,4.3-2.1,6.7-2.5h.4c.3-.1.7-.2,1.1-.2s1,0,1.5-.1h.2c2,0,4,.3,5.8.9h.3c.6.4,1.2.8,1.7,1.2Z"/>
          </g>
          <path class="cls-7" d="M1159.2,81.8c5.1-9.3,1.7-20.9-7.6-26-9.3-5.1-20.9-1.7-26,7.6-5.1,9.3-1.7,20.9,7.6,26,9.3,5.1,20.9,1.7,26-7.6Z"/>
          <g class="cls-13">
            <path class="cls-7" d="M1153.5,82.3c5.4-6.4,4.7-16-1.7-21.4-6.4-5.4-16-4.7-21.4,1.7-5.5,6.4-4.7,16,1.7,21.4s16,4.7,21.4-1.7Z"/>
          </g>
          <g class="cls-26">
            <path class="cls-7" d="M1146.5,58c-.3,0-.6-.2-.8-.2,3.7,1.3,6.8,4,8.6,7.5s2.1,7.6,1,11.4c-1.2,3.8-3.8,6.9-7.2,8.8-3.5,1.9-7.5,2.4-11.3,1.3l.8.3c1.9.7,4,.9,6,.8,2-.1,4-.7,5.8-1.6,1.8-.9,3.4-2.2,4.8-3.7,1.3-1.6,2.3-3.4,2.9-5.3.6-1.9.8-4,.6-6-.2-2-.8-4-1.8-5.8-1-1.8-2.3-3.4-3.9-4.6-1.6-1.3-3.4-2.2-5.4-2.7h0Z"/>
          </g>
          <path class="cls-7" d="M1151.9,73.8c.8-5.5-3-10.5-8.5-11.3-5.5-.8-10.5,3-11.3,8.5-.8,5.5,3.1,10.5,8.5,11.3,5.5.8,10.5-3,11.3-8.5Z"/>
          <path class="cls-12" d="M1147.3,69.4l.4-1.4-5.8-1.8-2.2-.7-.4,1.4,2.2.7c.4.1.8.4,1.1.8.3.4.4.8.5,1.3l-4.3-1.3-.4,1.4,4.3,1.3c-.3.4-.7.7-1.1.8-.5.1-.9.2-1.4,0l-2.2-.7-.4,1.4h.4c.7.4,1.3.7,1.8,1.3,1.3,1.6,2.1,3.6,2.1,5.6l1.5.5c0-2.3-.6-4.6-2-6.5.6,0,1.2-.3,1.7-.6.5-.3.9-.8,1.2-1.3l2.3.7.4-1.4-2.3-.7c0-.6,0-1.1-.2-1.7l3,.9Z"/>
          <g class="cls-11">
            <path class="cls-7" d="M446.9,80.5v.4c.2,0,.2,0,.1.1,0,0,0,0,0,0h0c0,.1,0,.1,0,.2,0,.1,0,.3-.2.4h-.1c0,0-2,.7-2,.7.1,0,.3,0,.5,0,.1,0,.3.2.3.3,0,0,0,0,0,.1l1.1,3.4s0,0,0,.1c0,0,0,0,0,0,0,0,0,0,0,0,0,0,0,.2-.2.3h0s0,0,0,0c0,0,0,0-.1,0l-.9.3c.1,0,.3,0,.5,0,.1,0,.3.2.3.3,0,0,0,0,0,.1l1.1,3.4s0,0,0,.1h0v.2c0,.1,0,.2-.2.3h0s0,0-.1,0l.9-.3c.1,0,.3,0,.5,0,.1,0,.3.2.3.3,0,0,0,0,0,0l1.1,3.4h0v.8c0,.1,0,.2-.1.3h-.1s0,0-.1,0l-2.2.7c.1,0,.3,0,.5,0,.1,0,.3.2.3.3,0,0,0,0,0,0l1.1,3.4c0,0,0,.1,0,.2,0,0,0,0,0,.1,0,0,0,.1,0,.2h0c0,.1,0,.1,0,.1h0c0,0,0,0,0,0,0,0,0,0-.1,0l.9-.3c.1,0,.3,0,.4,0,.1,0,.3.2.3.3h0c0,0,1.1,3.5,1.1,3.5,0,0,0,0,0,0,0,0,0,.1,0,.2,0,.1,0,.3-.2.4h-.2c0,0-1.8.6-1.8.6.1,0,.3,0,.5,0,.1,0,.3.2.3.3,0,0,0,0,0,.1l1.1,3.4s0,0,0,.1c0,0,0,0,0,0v.5s0,0,0,0c0,.2-.1.3-.3.4h0s0,0-.1,0l-5,1.7c-.3,0-.6-.2-1-.3-.4,0-.8-.3-1.3-.4-1.3-.5-2.5-1.2-3.7-2l-.5-.4-.5-.4c-1.1-.9-2.1-1.9-2.9-3.1-.1-.2-.2-.3-.3-.5-.1-.2-.2-.3-.3-.5-.7-1.1-1.2-2.3-1.6-3.5,0-.2-.1-.3-.2-.5,0-.2-.1-.3-.1-.5-.3-1.3-.5-2.6-.5-3.9v-1.2c0-1.5.3-2.9.8-4.3,0-.2.1-.4.2-.7,0-.2.2-.4.3-.7.8-1.9,2-3.7,3.4-5.2l.2-.2c.2-.2.5-.4.7-.6.2-.2.7-.6,1-.8h.2c1.4-1.2,2.9-1.9,4.6-2.5h.2c.7-.3,1.4-.4,2.1-.5Z"/>
          </g>
          <path class="cls-7" d="M454.1,112.8c9.2-1.1,15.7-9.4,14.6-18.6-1.1-9.2-9.4-15.7-18.6-14.6-9.2,1.1-15.7,9.4-14.6,18.6,1.1,9.2,9.4,15.7,18.6,14.6Z"/>
          <g class="cls-13">
            <path class="cls-7" d="M463.2,95.3c.6-7.3-4.9-13.7-12.2-14.3-7.3-.6-13.7,4.9-14.3,12.2-.6,7.3,4.9,13.7,12.2,14.3,7.3.6,13.7-4.9,14.3-12.2Z"/>
          </g>
          <g class="cls-26">
            <path class="cls-7" d="M447.6,83.8c-.2,0-.5.2-.7.3,3.3-.9,6.8-.5,9.7,1.1,3,1.6,5.2,4.3,6.3,7.5,1.1,3.2.9,6.7-.6,9.8-1.4,3.1-4,5.5-7.2,6.7l.7-.2c3.3-1.1,6.1-3.5,7.7-6.6,1.6-3.1,1.8-6.8.7-10.1-1.1-3.3-3.5-6.1-6.6-7.7-3.1-1.6-6.8-1.8-10.1-.7Z"/>
          </g>
          <path class="cls-7" d="M455.8,104c4.3-2.2,5.9-7.5,3.7-11.7-2.2-4.3-7.5-5.9-11.7-3.7-4.3,2.2-5.9,7.5-3.7,11.7,2.2,4.3,7.5,5.9,11.7,3.7Z"/>
          <path class="cls-12" d="M454,91.4l-.4-1.2-5,1.7-1.9.6.4,1.2,1.9-.6c.4-.1.8-.1,1.2,0,.4.1.7.4,1,.7l-3.8,1.2.4,1.2,3.7-1.2c0,.4-.1.8-.4,1.1-.2.3-.6.6-1,.7l-1.9.6.4,1.2h.4c.6-.3,1.2-.4,1.8-.2,1.7.4,3.3,1.5,4.3,2.9l1.3-.4c-1.1-1.7-2.8-3-4.7-3.6.4-.4.7-.8.9-1.3.2-.5.2-1,.2-1.5l2-.7-.4-1.2-2,.7c-.2-.4-.6-.8-1-1.1l2.6-.9Z"/>
          <g class="cls-11">
            <path class="cls-7" d="M577.4,179.7l.2.6c0,0,0,.1,0,.2,0,0,0,0,0,0h0v.2c0,.2-.1.3-.2.5h-.3c0,0-2.6.9-2.6.9.2,0,.4,0,.6,0,.2,0,.3.2.4.4h0c0,.1,1.5,4.6,1.5,4.6,0,0,0,0,0,.1,0,0,0,0,0,0h0c0,.1,0,.2,0,.2,0,0,0,0,0,0,0,.1-.1.2-.2.4h-.1c0,0,0,0,0,0h-.2c0,0-1.2.5-1.2.5.2,0,.4,0,.6,0,.2,0,.3.2.4.4h0c0,.1,1.5,4.6,1.5,4.6,0,0,0,0,0,.1,0,0,0,0,0,0,0,0,0,0,0,.1,0,0,0,0,0,.1,0,.1-.1.3-.2.4h0c0,0,0,.1,0,.1,0,0-.1,0-.2,0l1.2-.4c.2,0,.4,0,.6,0,.2,0,.3.2.4.4h0c0,.1,1.5,4.6,1.5,4.6v.2c0,0,0,0,0,.1,0,0,0,0,0,0,0,.2,0,.3-.2.4h0c0,0,0,.1,0,.1h0c0,0-.1.1-.2.1l-2.9.9c.2,0,.4,0,.6,0,.2,0,.3.2.4.4,0,0,0,0,0,.1l1.5,4.5c0,0,0,.1,0,.2,0,0,0,0,0,.1,0,0,0,.2,0,.2h0v.2h0c0,.1,0,.1-.1.2h0c0,0-.1,0-.2,0l1.2-.4c.2,0,.4,0,.6,0,.2,0,.3.2.4.4h0c0,.1,1.5,4.6,1.5,4.6h0c0,.2,0,.3,0,.4,0,0,0,0,0,0,0,.2-.1.3-.2.4h0c0,0-.1,0-.2,0l-2.3.8c.2,0,.4,0,.6,0,.2,0,.3.2.4.4h0c0,.1,1.5,4.6,1.5,4.6h0c0,.2,0,.2,0,.2h0c0,.2,0,.2,0,.2,0,.1,0,.2-.1.3,0,0-.1.2-.2.2h0s-.1,0-.2,0l-6.6,2.2c-.4-.1-.8-.2-1.3-.3-.4-.1-1.1-.4-1.7-.6-1.7-.7-3.3-1.5-4.8-2.6l-.7-.5c-.2-.2-.4-.4-.7-.5-1.4-1.2-2.7-2.5-3.8-4l-.4-.6-.4-.6c-.9-1.4-1.6-3-2.1-4.6,0-.2-.1-.5-.2-.7s-.1-.5-.2-.7c-.4-1.7-.7-3.4-.7-5.1v-1.5c0-1.9.4-3.8,1-5.6,0-.3.2-.6.3-.9.1-.3.2-.6.3-.9,1.1-2.5,2.6-4.8,4.5-6.8l.3-.3c.3-.3.6-.6.9-.8s.9-.8,1.4-1.1l.2-.2c1.8-1.3,3.9-2.4,6-3.1h.3c1-.2,2-.3,3-.3Z"/>
          </g>
          <path class="cls-7" d="M586.8,221.8c12-1.4,20.5-12.3,19.1-24.3-1.4-12-12.3-20.5-24.3-19.1-12,1.4-20.5,12.3-19.1,24.3,1.4,12,12.3,20.5,24.3,19.1Z"/>
          <g class="cls-13">
            <path class="cls-7" d="M600.9,201.8c.8-9.5-6.3-17.9-15.8-18.7-9.5-.8-17.9,6.3-18.7,15.8-.8,9.5,6.3,17.9,15.8,18.7,9.5.8,17.9-6.3,18.7-15.8Z"/>
          </g>
          <g class="cls-26">
            <path class="cls-7" d="M578.2,183.9c-.3.1-.6.2-.9.3,4.3-1.1,8.8-.6,12.6,1.5,3.9,2.1,6.8,5.6,8.2,9.8,1.4,4.2,1.1,8.7-.7,12.7-1.9,4-5.2,7.1-9.2,8.8l1-.3c4.3-1.5,7.9-4.6,9.9-8.7s2.4-8.8.9-13.2c-1.4-4.3-4.5-7.9-8.6-10-4.1-2.1-8.8-2.4-13.2-1h0Z"/>
          </g>
          <path class="cls-7" d="M588.9,210.4c5.6-2.9,7.7-9.8,4.8-15.3-2.9-5.6-9.8-7.7-15.3-4.8-5.6,2.9-7.7,9.8-4.8,15.3,2.9,5.6,9.8,7.7,15.3,4.8Z"/>
          <path class="cls-12" d="M586.6,194l-.5-1.6-6.6,2.2-2.5.8.5,1.6,2.5-.8c.5-.2,1.1-.2,1.6,0,.5.2,1,.5,1.3.9l-4.8,1.6.5,1.6,4.8-1.6c0,.5-.2,1.1-.5,1.5s-.8.8-1.3.9l-2.5.8.5,1.6.5-.2c.8-.3,1.6-.3,2.4-.1,2.3.6,4.3,1.9,5.6,3.8l1.7-.6c-1.5-2.2-3.6-3.9-6.2-4.7.5-.5.9-1,1.1-1.7.2-.6.3-1.3.2-2l2.6-.9-.5-1.6-2.6.9c-.3-.6-.8-1-1.3-1.4l3.4-1.1Z"/>
          <g class="cls-11">
            <path class="cls-7" d="M237,144.9l.2.6c0,0,0,.1,0,.1,0,0,0,0,0,0,0,0,0,0,0,.1,0,0,0,0,0,0,0,.2-.1.3-.2.5h0c0,0,0,0,0,0,0,0-.1,0-.2,0l-2.6.9c.2,0,.4,0,.6,0,.2,0,.3.2.4.4,0,0,0,0,0,.1l1.5,4.5c0,0,0,.1,0,.2,0,0,0,0,0,0h0c0,.1,0,.2,0,.2,0,.1-.1.2-.2.3h0c0,0,0,.1,0,.1h0c0,0-.1,0-.2,0l-1.2.4c.2,0,.4,0,.6,0,.2,0,.3.2.4.4,0,0,0,0,0,.1l1.5,4.5s0,0,0,.1c0,0,0,0,0,0h0c0,.2,0,.2,0,.2,0,.1-.1.2-.2.4h0s0,.1,0,.1h-.2c0,0,1.2-.3,1.2-.3.2,0,.4,0,.6,0,.2,0,.3.2.4.4h0c0,.1,1.5,4.6,1.5,4.6,0,0,0,0,0,.1v.2h0c0,.2,0,.4-.2.5h0c0,0,0,.1,0,.1h0s0,0,0,0c0,0-.1,0-.2,0l-2.9.9c.2,0,.4,0,.6,0,.2,0,.3.2.4.4,0,0,0,0,0,.1l1.5,4.5c0,0,0,.1,0,.2,0,0,0,.1,0,.1,0,0,0,.1,0,.2h0v.2h0c0,.1,0,.1-.1.2h-.2c0,0,1.2-.3,1.2-.3.2,0,.4,0,.6,0,.2,0,.3.2.4.4h0c0,.1,1.5,4.6,1.5,4.6,0,0,0,0,0,.1,0,0,0,.2,0,.2,0,0,0,0,0,0,0,.2-.1.3-.2.5h0c0,0-.1,0-.2,0l-2.3.8c.2,0,.4,0,.6,0,.2,0,.3.2.4.4h0c0,.1,1.5,4.6,1.5,4.6,0,0,0,0,0,.1,0,0,0,0,0,0,0,0,0,0,0,.1,0,0,0,0,0,0,0,.2-.2.4-.3.5h0c0,0-.1,0-.2,0l-6.6,2.2c-.4,0-.8-.2-1.3-.3-.6-.2-1.1-.4-1.7-.6-1.7-.7-3.3-1.5-4.8-2.6-.2-.2-.5-.3-.7-.5-.2-.2-.4-.4-.7-.5-1.4-1.2-2.7-2.5-3.8-4l-.4-.6c-.1-.2-.3-.4-.4-.6-.9-1.4-1.6-3-2.1-4.6,0-.2-.1-.5-.2-.7s-.1-.5-.2-.7c-.4-1.7-.7-3.4-.7-5.1v-1.5c0-1.9.4-3.8,1-5.6,0-.3.2-.6.3-.9s.2-.6.3-.9c1.1-2.5,2.6-4.8,4.5-6.8l.3-.3c.3-.3.6-.6.9-.8.4-.4.9-.8,1.4-1.1l.2-.2c1.8-1.3,3.9-2.4,6-3.1h.3c1-.3,2.1-.3,3.1-.3Z"/>
          </g>
          <path class="cls-7" d="M246.4,187.1c12-1.4,20.5-12.3,19.1-24.3-1.4-12-12.3-20.5-24.3-19.1-12,1.4-20.5,12.3-19.1,24.3,1.4,12,12.3,20.5,24.3,19.1Z"/>
          <g class="cls-13">
            <path class="cls-7" d="M260.5,167c.8-9.5-6.3-17.9-15.8-18.7-9.5-.8-17.9,6.3-18.7,15.8-.8,9.5,6.3,17.9,15.8,18.7,9.5.8,17.9-6.3,18.7-15.8Z"/>
          </g>
          <g class="cls-26">
            <path class="cls-7" d="M237.8,149.2c-.3,0-.6.2-.9.3,4.3-1.1,8.8-.6,12.7,1.5,3.9,2.1,6.8,5.6,8.2,9.8,1.4,4.2,1.1,8.7-.7,12.7-1.9,4-5.2,7.1-9.3,8.8l.9-.3c2.2-.7,4.2-1.8,6-3.3,1.8-1.5,3.2-3.3,4.2-5.3,1-2,1.7-4.3,1.8-6.6.2-2.3-.1-4.6-.8-6.8-.7-2.2-1.9-4.2-3.4-5.9-1.5-1.7-3.3-3.1-5.4-4.2-2.1-1-4.3-1.6-6.6-1.8-2.3-.1-4.6.2-6.7.9Z"/>
          </g>
          <path class="cls-7" d="M248.6,175.6c5.6-2.9,7.7-9.8,4.8-15.3-2.9-5.6-9.8-7.7-15.3-4.8-5.6,2.9-7.7,9.8-4.8,15.3,2.9,5.6,9.8,7.7,15.3,4.8Z"/>
          <path class="cls-12" d="M246.2,159.2l-.5-1.6-6.6,2.2-2.5.8.5,1.6,2.5-.8c.5-.2,1.1-.2,1.6,0,.5.2,1,.5,1.3.9l-4.9,1.6.5,1.6,4.8-1.6c0,.5-.2,1.1-.5,1.5-.3.4-.8.8-1.3.9l-2.5.8.5,1.6.5-.2c.8-.3,1.6-.3,2.4-.1,2.3.6,4.3,1.9,5.6,3.8l1.6-.6c-1.5-2.2-3.6-3.9-6.1-4.7.5-.5.9-1,1.1-1.7.2-.6.3-1.3.2-2l2.6-.9-.5-1.6-2.6.9c-.3-.6-.8-1-1.3-1.4l3.4-1.1Z"/>
          <path class="cls-3" d="M982.3,124.1l1-5.1-4.8-.9c0-1.3-.2-2.5-.6-3.7l3.9-2.6-2.8-4.3-3.8,2.5c-1.1-1.1-2.4-2-3.8-2.6l.9-4.8-5.1-1-1,4.9c-1.1,0-2.1.3-3.1.6l-2.6-3.9-4.3,2.9,2.5,3.8c-1.1,1.1-2,2.4-2.6,3.8l-4.2-.8-1,5.1,4.3.8c0,1.3.4,2.7.9,3.9l-3.8,2.5,2.9,4.3,3.9-2.6c1.1,1,2.4,1.7,3.8,2.2l-.9,4.8,5.1,1,1-5.2c1.1-.1,2.2-.4,3.3-.9l2.5,3.8,4.3-2.9-2.6-3.9c.7-.8,1.3-1.7,1.7-2.6l4.9,1ZM969.6,122.1c-.8.5-1.7.8-2.6.8-.9,0-1.9-.3-2.6-.8-.8-.5-1.4-1.3-1.7-2.1-.4-.9-.5-1.8-.3-2.7.2-.9.6-1.8,1.3-2.4s1.5-1.1,2.4-1.3c.9-.2,1.9,0,2.7.3.9.4,1.6,1,2.1,1.7.7,1,.9,2.3.7,3.5s-1,2.3-2,3h0Z"/>
          <path class="cls-1" d="M594.1,107.1l.7-3.8-3.5-.7c0-.9-.2-1.9-.5-2.8l2.9-2-2.2-3.2-2.8,1.9c-.8-.8-1.8-1.5-2.9-1.9l.7-3.6-3.8-.7-.7,3.7c-.8,0-1.6.2-2.3.4l-2-2.9-3.2,2.2,1.9,2.8c-.8.8-1.5,1.8-1.9,2.9l-3.1-.6-.8,3.8,3.2.6c0,1,.3,2,.7,2.9l-2.8,1.9,2.2,3.2,2.9-2c.8.7,1.8,1.3,2.8,1.6l-.7,3.6,3.8.7.8-3.9c.8,0,1.7-.3,2.5-.7l1.9,2.8,3.2-2.1-2-2.9c.5-.6,1-1.3,1.3-2l3.7.7ZM584.6,105.6c-.6.4-1.3.6-2,.6-.7,0-1.4-.2-2-.6-.6-.4-1-.9-1.3-1.6-.3-.6-.3-1.4-.2-2,.1-.7.5-1.3,1-1.8.5-.5,1.1-.8,1.8-1,.7-.1,1.4,0,2,.2.6.3,1.2.7,1.6,1.3.3.4.4.8.5,1.3,0,.5,0,.9,0,1.4s-.3.9-.5,1.3c-.3.4-.6.7-1,1Z"/>
          <path class="cls-1" d="M1153.3,149.4l.8-3.8-3.6-.7c0-.9-.2-1.9-.5-2.8l2.9-2-2.2-3.2-2.8,1.9c-.8-.8-1.8-1.5-2.9-1.9l.7-3.6-3.8-.7-.7,3.7c-.8,0-1.6.2-2.3.4l-2-2.9-3.2,2.2,1.9,2.8c-.8.8-1.5,1.8-1.9,2.9l-3.1-.6-.8,3.8,3.2.6c0,1,.3,2,.7,2.9l-2.8,1.9,2.2,3.2,2.9-2c.8.7,1.8,1.3,2.8,1.6l-.7,3.6,3.8.7.8-3.9c.8,0,1.7-.3,2.5-.6l1.9,2.8,3.2-2.2-2-2.9c.5-.6.9-1.3,1.3-2l3.7.8ZM1143.8,147.9c-.6.4-1.3.6-2,.6-.7,0-1.4-.2-2-.6-.6-.4-1-.9-1.3-1.6-.3-.6-.3-1.4-.2-2,.1-.7.5-1.3,1-1.8.5-.5,1.1-.8,1.8-1,.7-.1,1.4,0,2.1.2.6.3,1.2.7,1.6,1.3.3.4.4.8.5,1.3,0,.5,0,.9,0,1.4,0,.5-.3.9-.5,1.3-.3.4-.6.7-1,1Z"/>
          <path class="cls-16" d="M846.8,204.8c9.8-11.6,19.4-24.4,24.7-33.6,7-12,9.9-21.7,8.9-28.9,0-.2-.2-.4-.4-.6-.2-.1-.4-.2-.6-.2-.1,0-.2,0-.3.1,0,0-.2.1-.3.2,0,0-.1.2-.1.3,0,.1,0,.2,0,.3,1.9,12.5-9.8,33.9-33.8,61.9l2,.3Z"/>
          <path class="cls-16" d="M876.8,160s5.9,4.3,13-6.3c0,0-10.8-4.1-13,6.3Z"/>
          <path class="cls-16" d="M873.4,165.6s4.6-5.6-5.6-13.4c0,0-4.6,10.6,5.6,13.4Z"/>
          <path class="cls-16" d="M879.5,147.9s6.2-3.8-.8-14.5c0,0-7.9,8.5.8,14.5Z"/>
          <path class="cls-16" d="M866.9,177.3s4.1,6,14.4-1.6c0,0-8.9-7.5-14.4,1.6Z"/>
          <path class="cls-16" d="M862.5,182.5s5.5-4.8-3.2-14.1c0,0-6.3,9.7,3.2,14.1Z"/>
          <path class="cls-16" d="M857.3,190.3s4,6.1,14.4-1.3c0,0-8.8-7.6-14.4,1.3Z"/>
          <path class="cls-16" d="M737.5,213.9s-4,6.1-14.4-1.3c0,0,8.7-7.6,14.4,1.3Z"/>
          <path class="cls-16" d="M748.1,228.3c-9.8-11.6-19.3-24.4-24.7-33.6-7-12-10-21.7-8.9-28.9,0-.1,0-.2.1-.3,0,0,.1-.2.2-.3,0,0,.2-.1.3-.1.1,0,.2,0,.3,0,.1,0,.2,0,.3.1,0,0,.2.1.3.2,0,0,.1.2.1.3,0,.1,0,.2,0,.3-1.9,12.5,9.8,33.9,33.8,61.9l-1.9.3Z"/>
          <path class="cls-16" d="M718.1,183.5s-5.9,4.3-13-6.3c0,0,10.8-4,13,6.3Z"/>
          <path class="cls-16" d="M721.5,189.2s-4.6-5.6,5.6-13.3c0,0,4.6,10.6-5.6,13.3Z"/>
          <path class="cls-16" d="M715.3,171.4s-6.2-3.8.8-14.5c0,0,7.9,8.5-.8,14.5Z"/>
          <path class="cls-16" d="M728,200.8s-4.1,6-14.4-1.6c0,0,8.8-7.5,14.4,1.6Z"/>
          <path class="cls-16" d="M732.3,206.1s-5.5-4.8,3.2-14.1c0,0,6.4,9.7-3.2,14.1Z"/>
          <path class="cls-6" d="M753.4,258.4c65.7,0,118.9-3.6,118.9-8s-53.2-8-118.9-8-118.9,3.6-118.9,8,53.2,8,118.9,8Z"/>
          <path class="cls-16" d="M857.4,36.2v204.9c0,3.1-1.2,6-3.4,8.2-2.2,2.2-5.1,3.4-8.2,3.4h-102c-3.1,0-6-1.2-8.2-3.4-2.2-2.2-3.4-5.1-3.4-8.2V36.2c0-3.1,1.2-6,3.4-8.2,2.2-2.2,5.1-3.4,8.2-3.4h102c1.5,0,3,.3,4.5.9,1.4.6,2.7,1.4,3.8,2.5,1.1,1.1,1.9,2.4,2.5,3.8.6,1.4.9,2.9.9,4.5Z"/>
          <g class="cls-9">
            <path class="cls-16" d="M857.4,36.2v204.9c0,3.1-1.2,6-3.4,8.2-2.2,2.2-5.1,3.4-8.2,3.4h-102c-1.5,0-3.1-.3-4.5-.9-1.4-.6-2.7-1.5-3.8-2.6l115.5-223.5c1.9,1,3.5,2.5,4.7,4.3,1.1,1.8,1.7,3.9,1.7,6.1Z"/>
          </g>
          <path class="cls-16" d="M729.5,61.5h2.5v27.1h-2.5c-.5,0-.9-.2-1.2-.5-.3-.3-.5-.8-.5-1.2v-23.7c0-.5.2-.9.5-1.2.3-.3.8-.5,1.2-.5Z"/>
          <path class="cls-16" d="M859.5,81.5h-2.1v-22h2.1c.4,0,.7.1,1,.4.3.3.4.6.4,1v19.2c0,.4-.1.7-.4,1-.3.3-.6.4-1,.4Z"/>
          <path class="cls-16" d="M729.5,92.2h2.5v27.1h-2.5c-.5,0-.9-.2-1.2-.5-.3-.3-.5-.8-.5-1.2v-23.7c0-.2,0-.4.1-.7,0-.2.2-.4.4-.6.2-.2.3-.3.6-.4.2,0,.4-.1.7-.1Z"/>
          <path class="cls-17" d="M851.6,237.8V39.7c0-5.1-4.1-9.2-9.2-9.2h-95.2c-5.1,0-9.2,4.1-9.2,9.2v198.1c0,5.1,4.1,9.2,9.2,9.2h95.2c5.1,0,9.2-4.1,9.2-9.2Z"/>
          <path class="cls-16" d="M827.5,28.9h-65.6c-1.3,0-2.4,1.1-2.4,2.4v7.1c0,1.3,1.1,2.4,2.4,2.4h65.6c1.3,0,2.4-1.1,2.4-2.4v-7.1c0-1.3-1.1-2.4-2.4-2.4Z"/>
          <g class="cls-13">
            <path class="cls-16" d="M812.3,32.5h-41c-.3,0-.6.3-.6.6v1.7c0,.3.3.6.6.6h41c.3,0,.6-.3.6-.6v-1.7c0-.3-.3-.6-.6-.6Z"/>
          </g>
          <path class="cls-8" d="M823.2,33.9c0,.3,0,.7-.3,1-.2.3-.5.5-.8.6-.3.1-.7.2-1,.1-.3,0-.7-.2-.9-.5-.2-.2-.4-.6-.5-.9,0-.3,0-.7,0-1,.1-.3.4-.6.6-.8.3-.2.6-.3,1-.3.2,0,.5,0,.7.1.2,0,.4.2.6.4.2.2.3.4.4.6,0,.2.1.4.1.7Z"/>
          <path class="cls-29" d="M755.8,200.7h-3.7v15h3.7v-15Z"/>
          <path class="cls-29" d="M762.3,195.8h-3.7v19.8h3.7v-19.8Z"/>
          <path class="cls-29" d="M768.8,190.5h-3.7v25.1h3.7v-25.1Z"/>
          <path class="cls-29" d="M775.7,193.3h-3.7v22.3h3.7v-22.3Z"/>
          <path class="cls-29" d="M782.7,189.1h-3.7v26.6h3.7v-26.6Z"/>
          <path class="cls-29" d="M789.6,193.7h-3.7v21.9h3.7v-21.9Z"/>
          <path class="cls-29" d="M796.2,197.3h-3.7v18.4h3.7v-18.4Z"/>
          <path class="cls-29" d="M802.7,195.1h-3.7v20.6h3.7v-20.6Z"/>
          <path class="cls-29" d="M809.5,184.1h-3.7v31.6h3.7v-31.6Z"/>
          <path class="cls-29" d="M816.6,189.1h-3.7v26.6h3.7v-26.6Z"/>
          <path class="cls-29" d="M823.3,193.3h-3.7v22.3h3.7v-22.3Z"/>
          <path class="cls-29" d="M830.1,186.9h-3.7v28.8h3.7v-28.8Z"/>
          <path class="cls-29" d="M837.2,178.9h-3.7v36.8h3.7v-36.8Z"/>
          <path class="cls-8" d="M755.8,206.1h-3.7v9.5h3.7v-9.5Z"/>
          <path class="cls-8" d="M762.3,203.1h-3.7v12.6h3.7v-12.6Z"/>
          <path class="cls-8" d="M768.8,199.7h-3.7v15.9h3.7v-15.9Z"/>
          <path class="cls-8" d="M775.7,201.5h-3.7v14.2h3.7v-14.2Z"/>
          <path class="cls-8" d="M782.7,198.8h-3.7v16.9h3.7v-16.9Z"/>
          <path class="cls-8" d="M789.6,201.7h-3.7v13.9h3.7v-13.9Z"/>
          <path class="cls-8" d="M796.2,204h-3.7v11.7h3.7v-11.7Z"/>
          <path class="cls-8" d="M802.7,202.6h-3.7v13.1h3.7v-13.1Z"/>
          <path class="cls-8" d="M809.5,195.6h-3.7v20h3.7v-20Z"/>
          <path class="cls-8" d="M816.6,198.8h-3.7v16.9h3.7v-16.9Z"/>
          <path class="cls-8" d="M823.3,201.5h-3.7v14.2h3.7v-14.2Z"/>
          <path class="cls-8" d="M830.1,197.4h-3.7v18.2h3.7v-18.2Z"/>
          <path class="cls-8" d="M837.2,192.3h-3.7v23.3h3.7v-23.3Z"/>
          <path class="cls-36" d="M768.1,174.4h-15.3c-.4,0-.7.3-.7.7v2c0,.4.3.7.7.7h15.3c.4,0,.7-.3.7-.7v-2c0-.4-.3-.7-.7-.7Z"/>
          <path class="cls-29" d="M779,174.4h-5.8c-.4,0-.7.3-.7.7v2c0,.4.3.7.7.7h5.8c.4,0,.7-.3.7-.7v-2c0-.4-.3-.7-.7-.7Z"/>
          <path class="cls-29" d="M826.2,61.6h-44.2v2h44.2v-2Z"/>
          <path class="cls-29" d="M836.2,65.9h-54.2v2h54.2v-2Z"/>
          <path class="cls-29" d="M808.7,70h-26.7v2h26.7v-2Z"/>
          <path class="cls-29" d="M838.6,110.2h-.3v53.9h.3v-53.9Z"/>
          <path class="cls-29" d="M825.9,110.2h-.3v53.9h.3v-53.9Z"/>
          <path class="cls-29" d="M813.2,110.2h-.3v53.9h.3v-53.9Z"/>
          <path class="cls-29" d="M800.6,110.2h-.3v53.9h.3v-53.9Z"/>
          <path class="cls-29" d="M787.9,110.2h-.3v53.9h.3v-53.9Z"/>
          <path class="cls-29" d="M775.3,110.2h-.3v53.9h.3v-53.9Z"/>
          <path class="cls-29" d="M762.6,110.2h-.3v53.9h.3v-53.9Z"/>
          <path class="cls-29" d="M749.9,110.2h-.3v53.9h.3v-53.9Z"/>
          <path class="cls-8" d="M753.5,152.4h-3.6v-1h3.2l5.5-5.5,4,4,9.5-9.5,2.9,2.9,9.6-9.6,5.8,5.8h6.6l10.1-10.1h8.8l6.5-6.5h7.9l7.9-7.9.7.7-8.1,8.1h-7.9l-6.5,6.5h-8.8l-10.2,10.1h-7.4l-5.4-5.4-9.6,9.6-2.9-2.9-9.5,9.5-4-4-5.1,5.1Z"/>
          <path class="cls-36" d="M750.2,164.2l-.6-.7,10.5-9h6.4l14.5-12.4,9.1,7.7h6.7l3.4,2.9,10.5-8.9h5.3l22.1-18.8.6.7-22.4,19.1h-5.3l-10.9,9.3-3.7-3.2h-6.7l-8.7-7.4-14.1,12.1h-6.4l-10.3,8.7Z"/>
          <path class="cls-36" d="M831.4,114.3h-9.4c-.5,0-.9.4-.9.9h0c0,.6.4,1,.9,1h9.4c.5,0,.9-.4.9-.9h0c0-.6-.4-1-.9-1Z"/>
          <path class="cls-36" d="M816.7,119.5h-9.4c-.5,0-.9.4-.9.9h0c0,.6.4,1,.9,1h9.4c.5,0,.9-.4.9-.9h0c0-.6-.4-1-.9-1Z"/>
          <path class="cls-36" d="M798.8,116.3h-9.4c-.5,0-.9.4-.9.9h0c0,.6.4,1,.9,1h9.4c.5,0,.9-.4.9-.9h0c0-.6-.4-1-.9-1Z"/>
          <path class="cls-36" d="M783.5,125.3h-9.4c-.5,0-.9.4-.9.9h0c0,.6.4,1,.9,1h9.4c.5,0,.9-.4.9-.9h0c0-.6-.4-1-.9-1Z"/>
          <path class="cls-36" d="M764.2,132.7h-9.4c-.5,0-.9.4-.9.9h0c0,.6.4,1,.9,1h9.4c.5,0,.9-.4.9-.9h0c0-.6-.4-1-.9-1Z"/>
          <path class="cls-8" d="M839.2,105.5h-89.4v1h89.4v-1Z"/>
          <path class="cls-36" d="M839.2,101.9h-89.4v1h89.4v-1Z"/>
          <path class="cls-8" d="M748.4,95.4l5.4-5.4,4,4.1,6.3-6.3h2.9l4.3,1.9,5.2-5.2,7.1,7.1,4.4-4.4h1.2l2.3-2.3,6.3,6.3,3-2.9,3,3,5.2-5.2,3.9,3.9h2.9l6.1-6.1,6.4,6.4,10.9-6.4v11.6h-90.7Z"/>
          <g class="cls-14">
            <path class="cls-16" d="M763.4,95.4l4.4-4.4,2.6,2.6,5.2-5.2,5,4.9h3.9l3.5-3.5h4.6l5,5,3.3-3.2,1.8,1.8,6-6,4.4,4.4h3.8l4.4-4.4,1.9,1.9,1.6-1.6,4.1,4.1h4.2l6.1-6.1v9.7h-75.7Z"/>
          </g>
          <path class="cls-8" d="M773.3,62.4c-1.2-3.2-3.7-5.8-6.8-7.2-3.1-1.4-6.7-1.6-9.9-.4-3.2,1.2-5.9,3.5-7.4,6.6-1.5,3.1-1.7,6.6-.7,9.9.1.3.2.5.3.8.5,1.2,1.2,2.3,2,3.3,2,2.3,4.7,3.9,7.8,4.4,3,.5,6.1,0,8.8-1.6s4.7-4,5.8-6.8c1.1-2.9,1.1-6,0-8.9h0ZM764.3,76.1c-2.4.8-4.9.8-7.2-.2-2.3-1-4.1-2.8-5.1-5.1,0-.2-.2-.4-.2-.6-.9-2.5-.7-5.2.4-7.5,1.1-2.4,3.1-4.2,5.6-5,1-.3,2-.5,3-.6,2.3,0,4.6.7,6.4,2.2,1.8,1.5,3.1,3.5,3.5,5.8.4,2.3,0,4.7-1.1,6.7-1.2,2-3,3.6-5.2,4.4h0Z"/>
          <g class="cls-11">
            <path class="cls-7" d="M751.5,63.9l-3.1-1c.8-2.6,2.4-4.9,4.6-6.5,2.2-1.7,4.8-2.6,7.5-2.7v3.3c-1.9,0-3.9.8-5.6,2s-2.8,3-3.4,4.9h0Z"/>
          </g>
          <path class="cls-7" d="M751.9,70.7l-3,1.3c-.1-.3-.2-.5-.3-.8-1-2.7-1-5.6-.2-8.3l3.1,1c-.6,2-.6,4.2.1,6.2,0,.2.1.4.2.6Z"/>
          <g class="cls-11">
            <path class="cls-7" d="M750.9,75.3c-.8-1-1.5-2.1-2-3.3l3-1.3c.4.9.9,1.7,1.5,2.4l-2.5,2.1Z"/>
          </g>
          <path class="cls-2" d="M794.7,242.2c4.6,0,8.4-3.8,8.4-8.4s-3.8-8.4-8.4-8.4-8.4,3.8-8.4,8.4,3.8,8.4,8.4,8.4Z"/>
          <path class="cls-6" d="M910.7,269.1c47.6,0,86.1-4.5,86.1-10s-38.6-10-86.1-10-86.1,4.5-86.1,10,38.6,10,86.1,10Z"/>
          <path class="cls-8" d="M874.2,251.5v4.6s0,0,0,.1h0c0,0,0,.1,0,.2,0,0,0,0,0,.1h0c0,.1,0,.1,0,.1h0c0,0,0,0,0,0h-.1c0,0-.1,0-.1,0,0,0-.1,0-.2,0h-32c0,0-.1,0-.2,0h-.3c0,0,0-.1,0-.1h0c0,0,0-.2,0-.2h0v-.2h0c0-.1,0-.2,0-.2v-4.6s0,0,0-.1c0-.2.1-.4.3-.5.2-.1.3-.2.5-.2h32c.2,0,.4,0,.5.2.2.1.3.3.3.5,0,0-.2.1-.3.2Z"/>
          <g class="cls-32">
            <path class="cls-19" d="M846.3,250.6h-2.8v6.3h2.8v-6.3Z"/>
            <path class="cls-19" d="M850.9,250.6h-2.8v6.3h2.8v-6.3Z"/>
            <path class="cls-19" d="M871.3,250.6h-7.1v6.3h7.1v-6.3Z"/>
          </g>
          <path class="cls-7" d="M874.2,251.3h-33.7c0-.2.1-.4.3-.5.2-.1.3-.2.5-.2h32c.2,0,.4,0,.5.2.2.1.3.3.3.5Z"/>
          <path class="cls-7" d="M874.2,256.2h0c0,0,0,.1,0,.2,0,0,0,0,0,.1h0c0,.1,0,.1,0,.1h0c0,0,0,0,0,0h0c0,0-.1,0-.1,0,0,0-.1,0-.2,0h-32c0,0-.1,0-.2,0h-.3c0,0,0-.1,0-.1h0c0,0,0-.2,0-.2h0v-.2h0c0,0,33.3,0,33.3,0Z"/>
          <path class="cls-8" d="M875.3,245.1v4.6c0,0,0,0,0,.1h0v.2s0,0,0,.1c0,0,0,0,0,0h0c0,0,0,0,0,0h0c0,0-.1.1-.1.1h-32.9c0,0,0,0,0,0h0c0,0,0-.1,0-.2h0c0,0,0-.1,0-.2,0,0,0,0,0-.1,0,0,0,0,0,0,0,0,0-.1,0-.1v-4.6s0,0,0-.1c0-.2.1-.4.3-.5.2-.1.3-.2.5-.2h32c.2,0,.4,0,.5.2.2.1.3.3.3.5,0,0,0,.1-.2.2Z"/>
          <g class="cls-32">
            <path class="cls-19" d="M847.4,244.3h-2.8v6.3h2.8v-6.3Z"/>
            <path class="cls-19" d="M852,244.3h-2.8v6.3h2.8v-6.3Z"/>
            <path class="cls-19" d="M872.4,244.3h-7.1v6.3h7.1v-6.3Z"/>
          </g>
          <path class="cls-7" d="M875.3,245h-33.7c0-.2.1-.4.3-.5s.3-.2.5-.2h32c.2,0,.4,0,.5.2.2.1.3.3.3.5Z"/>
          <path class="cls-7" d="M875.3,249.9h0v.2s0,0,0,.1c0,0,0,0,0,0h0c0,0,0,0,0,0h0c0,0-.1.1-.1.1h-32.9c0,0,0,0,0,0h0c0,0,0-.1,0-.2h0c0,0,0-.1,0-.2,0,0,0,0,0-.1,0,0,0,0,0,0h33.5Z"/>
          <path class="cls-8" d="M878.2,238.8v4.6s0,0,0,.1h0c0,0,0,.1,0,.2,0,0,0,0,0,.1h0c0,.1,0,.2-.1.2h-.2s-.1,0-.1,0c0,0-.1,0-.2,0h-32c0,0-.1,0-.2,0h-.3c0,0,0,0,0,0h-.1c0,0,0-.2,0-.2h0v-.2h0c0-.1,0-.2,0-.2v-4.6s0,0,0-.1c0-.2.1-.4.3-.5.2-.1.3-.2.5-.2h32c.2,0,.4,0,.5.2.2.1.3.3.3.5-.1,0-.2,0-.4,0Z"/>
          <g class="cls-32">
            <path class="cls-19" d="M850.3,238h-2.8v6.3h2.8v-6.3Z"/>
            <path class="cls-19" d="M854.9,238h-2.8v6.3h2.8v-6.3Z"/>
            <path class="cls-19" d="M875.3,238h-7.1v6.3h7.1v-6.3Z"/>
          </g>
          <path class="cls-7" d="M878.2,238.7h-33.7c0-.2.1-.4.3-.5.2-.1.3-.2.5-.2h32c.2,0,.4,0,.5.2.2.1.3.3.3.5Z"/>
          <path class="cls-7" d="M878.2,243.6h0c0,0,0,.1,0,.2,0,0,0,0,0,.1h0c0,.1,0,.2-.1.2h-.2s-.1,0-.1,0c0,0-.1,0-.2,0h-32c0,0-.1,0-.2,0h-.3c0,0,0,0,0,0h-.1c0,0,0-.2,0-.2h0v-.2h0c0,0,33.3-.1,33.3-.1Z"/>
          <path class="cls-8" d="M876.5,232.5v4.6c0,0,0,.2,0,.3,0,0,0,0,0,.1,0,0,0,0,0,.1,0,0,0,0,0,.1h0s0,0,0,0h-.1c0,0-.1,0-.1,0h-32.6s0,0,0,0h0c0,0-.1-.2-.2-.2,0,0,0,0,0,0,0,0,0,0,0,0,0,0,0,0,0-.1h0c0-.1,0-.2,0-.2v-4.6s0,0,0-.1c0-.2.1-.4.3-.5.2-.1.3-.2.5-.2h32c.2,0,.4,0,.5.2.2.1.3.3.3.5,0,0,0,0-.1,0Z"/>
          <g class="cls-32">
            <path class="cls-19" d="M848.6,231.7h-2.8v6.3h2.8v-6.3Z"/>
            <path class="cls-19" d="M853.2,231.7h-2.8v6.3h2.8v-6.3Z"/>
            <path class="cls-19" d="M873.6,231.7h-7.1v6.3h7.1v-6.3Z"/>
          </g>
          <path class="cls-7" d="M876.5,232.4h-33.7c0-.2.1-.4.3-.5.2-.1.3-.2.5-.2h32c.2,0,.4,0,.5.2.2.1.3.3.3.5Z"/>
          <path class="cls-7" d="M876.5,237.3h0c0,.2,0,.2,0,.3,0,0,0,0,0,.1,0,0,0,0,0,.1h0s0,0,0,0h-.1c0,0-.1,0-.1,0h-32.5s0,0,0,0h0c0,0-.1-.2-.2-.2,0,0,0,0,0,0,0,0,0,0,0,0,0,0,0,0,0-.1h0c0,0,33.5-.1,33.5-.1Z"/>
          <path class="cls-8" d="M878.2,226.2v4.6s0,0,0,.1c0,0,0,0,0,.1h0c0,.1,0,.2,0,.2,0,0,0,.1-.1.1h0c0,0,0,.1,0,.1h-32.7c0,0,0,0,0,0h-.1c0,0,0-.2,0-.2h0v-.2c0,0,0,0,0-.1v-4.6s0,0,0-.1c0-.2.1-.4.3-.5.2-.1.3-.2.5-.2h32c.2,0,.4,0,.5.2.2.1.3.3.3.5,0,0-.2,0-.2,0Z"/>
          <g class="cls-32">
            <path class="cls-19" d="M850.3,225.4h-2.8v6.3h2.8v-6.3Z"/>
            <path class="cls-19" d="M854.9,225.4h-2.8v6.3h2.8v-6.3Z"/>
            <path class="cls-19" d="M875.3,225.4h-7.1v6.3h7.1v-6.3Z"/>
          </g>
          <path class="cls-7" d="M878.2,226.1h-33.7c0-.2.1-.4.3-.5.2-.1.3-.2.5-.2h32c.2,0,.4,0,.5.2.2.1.3.3.3.5Z"/>
          <path class="cls-7" d="M878.2,231s0,0,0,.1h0c0,.1,0,.2,0,.2,0,0,0,.1-.1.1h0c0,0,0,.1,0,.1h-32.7c0,0,0,0,0,0h-.1c0,0,0-.2,0-.2h0v-.2h33.4Z"/>
          <path class="cls-8" d="M876.5,219.9v4.6c0,0,0,.1,0,.1,0,0,0,0,0,.1h0v.2c0,0,0,.1-.1.1h0c0,0-.1,0-.1,0h-32.9c0,0,0,0,0,0h-.1c0,0,0-.2,0-.2,0,0,0,0,0-.1,0,0,0,0,0-.1,0,0,0,0,0-.1v-4.6s0,0,0-.1c0-.2.1-.4.3-.5.2-.1.3-.2.5-.2h32c.2,0,.4,0,.5.2.2.1.3.3.3.5,0,0,0,0,0,.1Z"/>
          <g class="cls-32">
            <path class="cls-19" d="M848.6,219h-2.8v6.3h2.8v-6.3Z"/>
            <path class="cls-19" d="M853.2,219h-2.8v6.3h2.8v-6.3Z"/>
            <path class="cls-19" d="M873.6,219h-7.1v6.3h7.1v-6.3Z"/>
          </g>
          <path class="cls-7" d="M876.5,219.7h-33.7c0-.2.1-.4.3-.5.2-.1.3-.2.5-.2h32c.2,0,.4,0,.5.2.2.1.3.3.3.5Z"/>
          <path class="cls-7" d="M876.5,224.6s0,0,0,.1h0v.2c0,0,0,.1-.1.1h0c0,0,0,0,0,0h-32.9c0,0,0,0,0,0h-.1c0,0,0-.2,0-.2,0,0,0,0,0-.1,0,0,0,0,0-.1h33.6Z"/>
          <path class="cls-8" d="M875.3,213.6v4.6s0,0,0,.1h0c0,.1,0,.2,0,.2,0,0,0,0,0,0,0,0,0,.1-.1.2h-.2c0,0-.1,0-.1,0,0,0-.1,0-.2,0h-32c0,0-.1,0-.2,0h-.3c0,0,0,0,0,0h-.1c0,0,0-.1,0-.2,0,0,0,0,0-.1,0,0,0,0,0-.1,0,0,0,0,0-.1v-4.6s0,0,0-.1c0-.2.1-.4.3-.5.2-.1.3-.2.5-.2h32c.2,0,.4,0,.5.2.2.1.3.3.3.5,0,0-.1,0-.2,0Z"/>
          <g class="cls-32">
            <path class="cls-19" d="M847.4,212.7h-2.8v6.3h2.8v-6.3Z"/>
            <path class="cls-19" d="M852,212.7h-2.8v6.3h2.8v-6.3Z"/>
            <path class="cls-19" d="M872.4,212.7h-7.1v6.3h7.1v-6.3Z"/>
          </g>
          <path class="cls-7" d="M875.3,213.4h-33.7c0-.2.1-.4.3-.5.2-.1.3-.2.5-.2h32c.2,0,.4,0,.5.2.2.1.3.3.3.5Z"/>
          <path class="cls-7" d="M875.3,218.3h0c0,.1,0,.2,0,.2,0,0,0,0,0,0,0,0,0,.1-.1.2h-.2c0,0-.1,0-.1,0,0,0-.1,0-.2,0h-32c0,0-.1,0-.2,0h-.3c0,0,0,0,0,0h-.1c0,0,0-.1,0-.2,0,0,0,0,0-.1,0,0,0,0,0-.1h33.5Z"/>
          <path class="cls-8" d="M880.1,207.2v4.6s0,0,0,.1h0c0,.1,0,.2,0,.2,0,0,0,0,0,0,0,0,0,.1-.1.1h0c0,0-.1.1-.1.1h-32.7c0,0,0,0,0,0,0,0,0,0,0,0,0,0,0,0,0,0,0,0,0,0,0-.1,0,0,0,0,0-.1,0,0,0,0,0-.1v-4.6s0-.1,0-.2c0-.2.1-.4.3-.5.2-.1.3-.2.5-.2h32c.2,0,.4,0,.5.2.2.1.3.3.3.5,0,0-.1,0-.2,0Z"/>
          <g class="cls-32">
            <path class="cls-19" d="M852.2,206.4h-2.8v6.3h2.8v-6.3Z"/>
            <path class="cls-19" d="M856.8,206.4h-2.8v6.3h2.8v-6.3Z"/>
            <path class="cls-19" d="M877.2,206.4h-7.1v6.3h7.1v-6.3Z"/>
          </g>
          <path class="cls-7" d="M880.1,207.1h-33.7c0-.2.1-.4.3-.5.2-.1.3-.2.5-.2h32c.2,0,.4,0,.5.2.2.1.3.3.3.5Z"/>
          <path class="cls-35" d="M880.1,212h0c0,.1,0,.2,0,.2,0,0,0,0,0,0,0,0,0,.1-.1.1h0c0,0-.1.1-.1.1h-32.7c0,0,0,0,0,0,0,0,0,0,0,0,0,0,0,0,0,0,0,0,0,0,0-.1,0,0,0,0,0-.1h33.5Z"/>
          <path class="cls-8" d="M881.2,203.1c0,0,0,0,0,.1l-.9,4.5s0,0,0,.1c0,0,0,.2-.1.2h0c0,.1,0,.1,0,.2h-.3c0,0-.1,0-.1,0,0,0-.1,0-.2,0l-1-.2h-.7c0-.1-.3-.2-.3-.2l-1.9-.4-1.2-.3-3.8-.8-2.8-.6-10.2-1.9-2.8-.6-1.7-.3-2.8-.6-2.1-.4c0,0-.2,0-.3-.1h-.1c0-.2-.2-.3-.2-.4,0-.1,0-.2,0-.4,0,0,0-.1,0-.2l.9-4.5s0,0,0-.1c0-.2.2-.4.4-.5.2,0,.4-.1.6,0l2.1.4,2.8.6,1.7.3,2.8.6,9.5,1.9,3.5.7,1.5.3,5.5,1.1,2.1.4c.2,0,.4.1.5.3.1.1.2.3.2.5Z"/>
          <g class="cls-32">
            <path class="cls-19" d="M851.2,196.3l-1.3,6.2,2.8.6,1.3-6.2-2.8-.6Z"/>
            <path class="cls-19" d="M855.7,197.2l-1.3,6.2,2.8.6,1.3-6.2-2.8-.6Z"/>
            <path class="cls-19" d="M878.4,201.8h0s-.1.7-.1.7l-1,4.8h0s-.1.7-.1.7l-1.9-.4-1.2-.3h0l-3.8-.8v-.7c.1,0,1.1-4.8,1.1-4.8v-.7c.1,0,1.6.3,1.6.3l5.5,1.1Z"/>
          </g>
          <path class="cls-7" d="M881.2,203.1l-2.9-.6-7-1.4-3.5-.7-9.6-1.9-2.8-.6-1.7-.3-2.8-.5-2.9-.6c0-.2.2-.4.4-.5.2,0,.4-.1.6,0l2.1.4,2.8.6,1.7.3,2.8.6,9.5,1.9,3.5.7,1.5.3,5.5,1.1,2.1.4c.2,0,.4.1.5.3.1.2.2.3.2.5Z"/>
          <path class="cls-7" d="M880.2,207.9c0,0,0,.2-.1.2h0c0,.1,0,.1,0,.2h-.3c0,0-.1,0-.1,0,0,0-.1,0-.2,0l-1-.2h-.7c0-.1-.3-.2-.3-.2l-1.9-.4-1.2-.3-3.8-.8-2.8-.6-10.2-1.9-2.8-.6-1.7-.3-2.8-.6-2.1-.4c0,0-.2,0-.3-.1h-.1c0-.2-.2-.3-.2-.4,0-.1,0-.2,0-.4l2.9.6,2.8.6,1.7.3,2.8.6,10.1,2,2.9.6,7,1.4,2.8.6Z"/>
          <path class="cls-8" d="M980.5,251.5v4.6c0,.2,0,.4-.3.6-.2.2-.4.2-.6.2h-32c-.2,0-.4,0-.6-.2s-.2-.4-.2-.6v-4.6s0,0,0-.1c0-.2.1-.4.3-.5.2-.1.3-.2.5-.2h32c.2,0,.4,0,.5.2.2.1.3.3.3.5,0,0,0,0,0,.1Z"/>
          <g class="cls-32">
            <path class="cls-19" d="M952.6,250.6h-2.8v6.3h2.8v-6.3Z"/>
            <path class="cls-19" d="M957.2,250.6h-2.8v6.3h2.8v-6.3Z"/>
            <path class="cls-19" d="M977.5,250.6h-7.1v6.3h7.1v-6.3Z"/>
          </g>
          <path class="cls-7" d="M980.5,251.3h-33.7c0-.2.1-.4.3-.5.2-.1.3-.2.5-.2h32c.2,0,.4,0,.5.2s.3.3.3.5Z"/>
          <path class="cls-7" d="M946.8,256.2h33.7c0,.2-.1.4-.3.5s-.3.2-.5.2h-32c-.2,0-.4,0-.5-.2-.2-.1-.3-.3-.3-.5Z"/>
          <path class="cls-8" d="M976.3,245.1v4.6c0,.2,0,.4-.2.6-.2.2-.4.2-.6.2h-32c-.2,0-.4,0-.6-.2-.2-.2-.2-.4-.2-.6v-4.6s0,0,0-.1c0-.2.1-.4.3-.5.2-.1.3-.2.5-.2h32c.2,0,.4,0,.5.2.2.1.3.3.3.5,0,0,0,0,0,.1Z"/>
          <g class="cls-32">
            <path class="cls-19" d="M948.4,244.3h-2.8v6.3h2.8v-6.3Z"/>
            <path class="cls-19" d="M953,244.3h-2.8v6.3h2.8v-6.3Z"/>
            <path class="cls-19" d="M973.4,244.3h-7.1v6.3h7.1v-6.3Z"/>
          </g>
          <path class="cls-7" d="M976.3,245h-33.7c0-.2.1-.4.3-.5.2-.1.3-.2.5-.2h32c.2,0,.4,0,.5.2.2.1.3.3.3.5Z"/>
          <path class="cls-7" d="M942.6,249.9h33.7c0,.2-.1.4-.3.5-.2.1-.3.2-.5.2h-32c-.2,0-.4,0-.5-.2-.2-.1-.3-.3-.3-.5Z"/>
          <path class="cls-8" d="M972.6,238.8v4.6c0,.1,0,.2,0,.3,0,.1-.1.2-.2.3s-.2.1-.3.2c-.1,0-.2,0-.3,0h-32c-.2,0-.4,0-.6-.2-.2-.2-.2-.4-.3-.6v-4.6c0,0,0-.1,0-.2,0-.2.1-.4.3-.5.2-.1.3-.2.5-.2h32c.2,0,.4,0,.5.2.2.1.3.3.3.5,0,0,0,0,0,.2Z"/>
          <g class="cls-32">
            <path class="cls-19" d="M944.7,238h-2.8v6.3h2.8v-6.3Z"/>
            <path class="cls-19" d="M949.2,238h-2.8v6.3h2.8v-6.3Z"/>
            <path class="cls-19" d="M969.6,238h-7.1v6.3h7.1v-6.3Z"/>
          </g>
          <path class="cls-7" d="M972.6,238.7h-33.7c0-.2.1-.4.3-.5.2-.1.3-.2.5-.2h32c.2,0,.4,0,.5.2.2.1.3.3.3.5Z"/>
          <path class="cls-7" d="M938.9,243.6h33.7c0,.2-.1.4-.3.5-.2.1-.3.2-.5.2h-32c-.2,0-.4,0-.5-.2-.2-.1-.3-.3-.3-.5Z"/>
          <path class="cls-8" d="M976.3,232.4v4.6c0,.2,0,.4-.2.6-.2.2-.4.2-.6.2h-32c-.2,0-.4,0-.6-.2-.2-.2-.2-.4-.2-.6v-4.6s0,0,0-.1c0-.2.1-.4.3-.5.2-.1.3-.2.5-.2h32c.2,0,.4,0,.5.2.2.1.3.3.3.5,0,0,0,0,0,.1Z"/>
          <g class="cls-32">
            <path class="cls-19" d="M948.4,231.6h-2.8v6.3h2.8v-6.3Z"/>
            <path class="cls-19" d="M953,231.6h-2.8v6.3h2.8v-6.3Z"/>
            <path class="cls-19" d="M973.4,231.6h-7.1v6.3h7.1v-6.3Z"/>
          </g>
          <path class="cls-7" d="M976.3,232.3h-33.7c0-.2.1-.4.3-.5.2-.1.3-.2.5-.2h32c.2,0,.4,0,.5.2.2.1.3.3.3.5Z"/>
          <path class="cls-7" d="M942.6,237.2h33.7c0,.2-.1.4-.3.5-.2.1-.3.2-.5.2h-32c-.2,0-.4,0-.5-.2-.2-.1-.3-.3-.3-.5Z"/>
          <path class="cls-8" d="M972.6,226.2v4.6c0,.2,0,.4-.2.6-.2.2-.4.2-.6.2h-32c-.2,0-.4,0-.6-.2-.2-.2-.2-.4-.3-.6v-4.6s0,0,0-.1c0-.2.1-.4.3-.5.2-.1.3-.2.5-.2h32c.2,0,.4,0,.5.2.2.1.3.3.3.5,0,0,0,0,0,.1Z"/>
          <g class="cls-32">
            <path class="cls-19" d="M944.7,225.4h-2.8v6.3h2.8v-6.3Z"/>
            <path class="cls-19" d="M949.2,225.4h-2.8v6.3h2.8v-6.3Z"/>
            <path class="cls-19" d="M969.6,225.4h-7.1v6.3h7.1v-6.3Z"/>
          </g>
          <path class="cls-7" d="M972.6,226.1h-33.7c0-.2.1-.4.3-.5.2-.1.3-.2.5-.2h32c.2,0,.4,0,.5.2.2.1.3.3.3.5Z"/>
          <path class="cls-7" d="M938.9,231h33.7c0,.2-.1.4-.3.5-.2.1-.3.2-.5.2h-32c-.2,0-.4,0-.5-.2-.2-.1-.3-.3-.3-.5Z"/>
          <path class="cls-8" d="M969.4,217.9l.6,4.6c0,.2,0,.4-.2.6-.1.2-.3.3-.6.3l-31.8,3.9c-.1,0-.2,0-.3,0s-.2,0-.3-.1c0,0-.2-.2-.2-.2,0,0,0-.2-.1-.3l-.5-4.6s0,0,0-.1c0-.2,0-.4.2-.5.1-.1.3-.2.5-.3l31.8-3.9c.2,0,.4,0,.6.1.2.1.3.3.3.5,0,0,0,.1,0,.2Z"/>
          <g class="cls-32">
            <path class="cls-19" d="M941.6,220.5l-2.8.3.8,6.3,2.8-.3-.8-6.3Z"/>
            <path class="cls-19" d="M946.1,220l-2.8.3.8,6.3,2.8-.3-.8-6.3Z"/>
            <path class="cls-19" d="M966.4,217.5l-7,.9.8,6.3,7-.9-.8-6.3Z"/>
          </g>
          <path class="cls-7" d="M969.4,217.8l-33.4,4.1c0-.2,0-.4.2-.5.1-.1.3-.2.5-.3l31.8-3.9c.2,0,.4,0,.5.1.2.1.3.3.3.4Z"/>
          <path class="cls-7" d="M936.6,226.8l33.4-4.1c0,.2,0,.4-.2.5-.1.1-.3.2-.5.3l-31.8,3.9c-.2,0-.4,0-.6-.1-.2-.1-.3-.3-.4-.5Z"/>
          <path class="cls-8" d="M955.7,214.5l-.3,4.6c0,.2-.1.4-.3.6-.2.2-.4.2-.6.2l-32-1.8c-.2,0-.4-.1-.6-.3-.2-.2-.2-.4-.2-.6l.3-4.6c0,0,0-.1,0-.1,0-.2.2-.4.3-.5s.4-.2.6-.2l32,1.8c.2,0,.4,0,.5.2.1.1.2.3.3.5,0,0,0,0,0,.1Z"/>
          <g class="cls-32">
            <path class="cls-19" d="M925.1,211.9l-.4,6.3,2.8.2.4-6.3-2.8-.2Z"/>
            <path class="cls-19" d="M929.6,212.2l-.4,6.3,2.8.2.4-6.3-2.8-.2Z"/>
            <path class="cls-19" d="M945.8,213.1l-.4,6.3,7.1.4.4-6.3-7.1-.4Z"/>
          </g>
          <path class="cls-7" d="M955.7,214.4l-33.6-1.9c0-.2.2-.4.3-.5s.4-.2.6-.2l32,1.8c.2,0,.4.1.5.2.1.1.2.3.2.5Z"/>
          <path class="cls-7" d="M921.8,217.4l33.6,1.9c0,.2-.2.4-.3.5-.2.1-.4.2-.6.2l-32-1.8c-.2,0-.4-.1-.5-.2-.1-.1-.2-.3-.2-.5Z"/>
          <path class="cls-8" d="M909.2,250.2v5.7c0,0,0,.1,0,.2h0c0,.1,0,.2,0,.2h0c0,.2-.1.3-.2.4-.1,0-.2.1-.4.2h-40.2c-.2,0-.4-.2-.5-.4,0,0,0,0,0,0,0,0,0,0,0-.1,0,0,0,0,0,0,0,0,0-.1,0-.2v-5.7c0,0,0-.1,0-.2,0-.2.2-.5.3-.6.2-.2.4-.2.7-.2h39.3c.2,0,.5,0,.7.2.2.2.3.4.3.6,0,0,0,0,0,.1Z"/>
          <g class="cls-32">
            <path class="cls-7" d="M874.9,249.2h-3.5v7.8h3.5v-7.8Z"/>
            <path class="cls-7" d="M880.5,249.2h-3.5v7.8h3.5v-7.8Z"/>
            <path class="cls-33" d="M905.6,249.2h-8.7v7.8h8.7v-7.8Z"/>
          </g>
          <path class="cls-8" d="M909.2,250h-41.4c0-.2.2-.5.3-.6.2-.2.4-.2.7-.2h39.3c.2,0,.5,0,.7.2.2.2.3.4.4.6Z"/>
          <path class="cls-8" d="M909.2,256.1h0c0,.1,0,.2,0,.2h0c0,.2-.1.3-.3.4-.1,0-.2.1-.3.2h-40.2c-.2,0-.4-.2-.5-.4,0,0,0,0,0,0,0,0,0,0,0-.1,0,0,0,0,0,0h41.3Z"/>
          <path class="cls-8" d="M912.2,242.4v5.7c0,0,0,.1,0,.2,0,0,0,.2,0,.3h0c-.1.3-.3.4-.5.5h-.2c0,0-.1,0-.2,0h-39.4c0,0-.2,0-.2,0h-.2c-.2,0-.3-.2-.4-.4,0,0,0,0,0,0,0,0,0,0,0,0,0,0,0-.1,0-.2,0,0,0-.2,0-.3v-5.7c0,0,0-.1,0-.2,0-.2.2-.5.3-.6.2-.2.4-.2.7-.2h39.4c.2,0,.5,0,.7.2.2.2.3.4.3.6,0,0,0,.1,0,.2Z"/>
          <g class="cls-32">
            <path class="cls-7" d="M877.8,241.4h-3.5v7.8h3.5v-7.8Z"/>
            <path class="cls-7" d="M883.5,241.4h-3.5v7.8h3.5v-7.8Z"/>
            <path class="cls-33" d="M908.5,241.4h-8.7v7.8h8.7v-7.8Z"/>
          </g>
          <path class="cls-8" d="M912.1,242.3h-41.4c0-.2.2-.5.3-.6.2-.2.4-.2.7-.2h39.3c.2,0,.5,0,.7.2.2.2.3.4.4.6Z"/>
          <path class="cls-8" d="M912.1,248.3c0,0,0,.2,0,.3h0c-.1.3-.3.4-.5.5h-.2c0,0-.1,0-.2,0h-39.4c0,0-.2,0-.2,0h-.2c-.2,0-.3-.2-.4-.4,0,0,0,0,0,0,0,0,0,0,0,0,0,0,0-.1,0-.2h0c0,0,41.3,0,41.3,0Z"/>
          <path class="cls-8" d="M910.6,234.7v5.7c0,0,0,.2,0,.3,0,0,0,.1,0,.2,0,0,0,.2-.1.2h0c0,0,0,.1,0,.1h0c0,0,0,.1,0,.1h-.2c0,0,0,0,0,0,0,0-.1,0-.2,0h-39.4c0,0-.2,0-.2,0h-.2c-.2,0-.3-.2-.4-.4,0,0,0,0,0,0,0,0,0,0,0,0,0,0,0-.1,0-.2,0,0,0-.2,0-.3v-5.7c0,0,0-.1,0-.2,0-.2.2-.5.3-.6.2-.2.4-.2.7-.2h39.3c.2,0,.5,0,.7.2.2.2.3.4.3.6,0,0,0,0,0,.1Z"/>
          <g class="cls-32">
            <path class="cls-7" d="M876.3,233.6h-3.5v7.8h3.5v-7.8Z"/>
            <path class="cls-7" d="M881.9,233.6h-3.5v7.8h3.5v-7.8Z"/>
            <path class="cls-33" d="M907,233.6h-8.7v7.8h8.7v-7.8Z"/>
          </g>
          <path class="cls-8" d="M910.6,234.5h-41.4c0-.2.2-.5.3-.6.2-.2.4-.2.7-.2h39.3c.2,0,.5,0,.7.2.2.2.3.4.4.6Z"/>
          <path class="cls-8" d="M910.6,240.5s0,0,0,0c0,0,0,.1,0,.2,0,0,0,.2-.1.2h0c0,0,0,.1,0,.1h0c0,0,0,.1,0,.1h-.2c0,0,0,0,0,0,0,0-.1,0-.2,0h-39.4c0,0-.2,0-.2,0h-.2c-.2,0-.3-.2-.4-.4,0,0,0,0,0,0,0,0,0,0,0,0,0,0,0-.1,0-.2,0,0,0,0,0,0h41.3Z"/>
          <path class="cls-8" d="M914.2,226.9v5.7c0,0,0,.1,0,.2,0,0,0,.1,0,.2h0c0,.2-.2.4-.4.5h-.2s0,0,0,0h-39.7c0,0-.1,0-.2,0h-.2c0,0-.1,0-.2,0h0c0,0,0-.1,0-.1h0c0-.1,0-.2,0-.2h0c0-.2,0-.2,0-.3,0,0,0-.1,0-.2v-5.7c0,0,0-.1,0-.2,0-.2.2-.5.3-.6.2-.2.4-.2.7-.2h39.3c.2,0,.5,0,.7.2.2.2.3.4.3.6,0,0,0,.2,0,.2Z"/>
          <g class="cls-32">
            <path class="cls-7" d="M879.9,225.9h-3.5v7.8h3.5v-7.8Z"/>
            <path class="cls-7" d="M885.5,225.9h-3.5v7.8h3.5v-7.8Z"/>
            <path class="cls-33" d="M910.6,225.9h-8.7v7.8h8.7v-7.8Z"/>
          </g>
          <path class="cls-8" d="M914.2,226.7h-41.4c0-.2.2-.5.3-.6.2-.2.4-.2.7-.2h39.3c.2,0,.5,0,.7.2.2.2.3.4.4.6Z"/>
          <path class="cls-8" d="M914.2,232.8c0,0,0,.1,0,.2h0c0,.2-.2.4-.4.5h-.2s0,0,0,0h-39.7c0,0-.1,0-.2,0h-.2c0,0-.1,0-.2,0h0c0,0,0-.1,0-.1h0c0-.1,0-.2,0-.2h0c0-.2,0-.2,0-.3h41.3Z"/>
          <path class="cls-8" d="M912.7,224.8c0,0,0,.1,0,.2,0,0,0,0,0,0,0,0,0,0,0,.1h0v.2c0,.1-.2.2-.4.3h-.3c0,0-.2,0-.2,0h-39.5c0,0-.1,0-.2,0h-.4c0,0,0-.1,0-.1h0c0,0,0-.1,0-.1-.2-.2-.2-.4-.2-.7v-5.7c0,0,0-.1,0-.2,0-.2.2-.5.3-.6.2-.2.4-.2.7-.2h39.3c.2,0,.5,0,.7.2.2.2.3.4.3.6,0,0,0,.1,0,.2v5.7Z"/>
          <g class="cls-32">
            <path class="cls-7" d="M878.4,218.1h-3.5v7.8h3.5v-7.8Z"/>
            <path class="cls-7" d="M884,218.1h-3.5v7.8h3.5v-7.8Z"/>
            <path class="cls-33" d="M909,218.1h-8.7v7.8h8.7v-7.8Z"/>
          </g>
          <path class="cls-8" d="M912.7,219h-41.4c0-.2.2-.5.3-.6.2-.2.4-.2.7-.2h39.3c.3,0,.5,0,.7.2.2.2.3.4.4.6Z"/>
          <path class="cls-8" d="M912.7,225s0,0,0,0c0,0,0,0,0,.1h0v.2c0,.1-.2.2-.4.3h-.3c0,0-.2,0-.2,0h-39.5c0,0-.1,0-.2,0h-.4c0,0,0-.1,0-.1h0c0,0,0-.1,0-.1-.1-.1-.2-.3-.2-.5h41.4Z"/>
          <path class="cls-8" d="M914.2,217.1c0,0,0,.1,0,.2h0c0,.1,0,.2,0,.2,0,0,0,0,0,.1,0,.1-.2.3-.4.3h-40c0,0-.1,0-.2,0h-.2s0,0,0,0h-.2c0,0,0-.1,0-.1h0c-.1-.2-.2-.4-.2-.6,0,0,0-.1,0-.2v-5.7c0,0,0-.1,0-.2,0-.2.2-.5.3-.6.2-.2.4-.2.7-.2h39.3c.2,0,.5,0,.7.2.2.2.3.4.3.6,0,0,0,.1,0,.2v5.8Z"/>
          <g class="cls-32">
            <path class="cls-7" d="M879.9,210.3h-3.5v7.8h3.5v-7.8Z"/>
            <path class="cls-7" d="M885.5,210.3h-3.5v7.8h3.5v-7.8Z"/>
            <path class="cls-33" d="M910.6,210.3h-8.7v7.8h8.7v-7.8Z"/>
          </g>
          <path class="cls-8" d="M914.2,211.2h-41.4c0-.2.2-.5.3-.6.2-.2.4-.2.7-.2h39.3c.2,0,.5,0,.7.2.2.2.3.4.4.6Z"/>
          <path class="cls-8" d="M914.2,217.2h0c0,.1,0,.2,0,.2,0,0,0,0,0,.1,0,.1-.2.3-.4.3h-39.9c0,0-.1,0-.2,0h-.2s0,0,0,0h-.2c0,0,0-.1,0-.1h0c-.1-.2-.2-.4-.2-.6h41.4Z"/>
          <path class="cls-8" d="M917.5,203.6v5.7c0,0,0,.1,0,.2h0v.2s0,0,0,0c-.1.2-.3.3-.5.4h-.2c0,0-.1,0-.2,0h-39.4c0,0-.1,0-.2,0h0c0,0-.2,0-.3-.1h0s0,0,0,0h0c0,0,0-.1,0-.1,0,0,0,0,0,0,0,0,0-.1,0-.2h0c0-.2,0-.2,0-.3v-5.7c0,0,0-.1,0-.2,0-.2.1-.4.3-.6,0,0,.2-.1.3-.2.1,0,.3,0,.5-.1h39.3c.2,0,.5,0,.7.2.2.2.3.4.3.6,0,0,0,0,0,.1Z"/>
          <path class="cls-7" d="M883.2,202.6h-3.5v7.8h3.5v-7.8Z"/>
          <path class="cls-7" d="M888.8,202.6h-3.5v7.8h3.5v-7.8Z"/>
          <path class="cls-7" d="M913.9,202.6h-8.7v7.8h8.7v-7.8Z"/>
          <path class="cls-8" d="M917.5,203.4h-41.4c0-.2.2-.5.3-.6.2-.2.4-.2.7-.2h39.3c.2,0,.5,0,.7.2.2.2.3.4.4.6Z"/>
          <path class="cls-8" d="M917.5,209.5h0v.2s0,0,0,0c-.1.2-.3.3-.5.4h-.2c0,0-.1,0-.2,0h-39.4c0,0-.1,0-.2,0h0c0,0-.2,0-.3-.1h0s0,0,0,0h0c0,0,0-.1,0-.1,0,0,0,0,0,0,0,0,0-.1,0-.2h0c0-.1,41.3-.1,41.3-.1Z"/>
          <path class="cls-8" d="M916.3,195.9v5.7c0,0,0,.1,0,.2,0,0,0,0,0,0,0,0,0,0,0,.1h0c-.1.3-.3.4-.5.5h-.2c0,0-.2,0-.2,0h-39.5c0,0-.1,0-.2,0h0c0,0-.2,0-.3-.1h0c0,0,0-.1,0-.1h0c0,0,0-.1,0-.1h0c0-.1,0-.2,0-.3,0,0,0,0,0-.1,0,0,0-.1,0-.2v-5.7c0,0,0-.1,0-.2,0-.2.1-.4.3-.6,0,0,.2-.1.3-.2.1,0,.3-.1.5-.1h39.3c.2,0,.5,0,.7.2.2.2.3.4.3.6,0,0,0,.1,0,.2Z"/>
          <path class="cls-7" d="M882,194.8h-3.5v7.8h3.5v-7.8Z"/>
          <path class="cls-7" d="M887.6,194.8h-3.5v7.8h3.5v-7.8Z"/>
          <path class="cls-7" d="M912.7,194.8h-8.7v7.8h8.7v-7.8Z"/>
          <path class="cls-8" d="M916.3,195.7h-41.4c0-.2.2-.5.3-.6.2-.2.4-.2.7-.2h39.3c.2,0,.5,0,.7.2.2.2.3.4.4.6Z"/>
          <path class="cls-8" d="M916.3,201.7s0,0,0,0c0,0,0,0,0,.1h0c-.1.3-.3.4-.5.5h-.2c0,0-.2,0-.2,0h-39.5c0,0-.1,0-.2,0h0c0,0-.2,0-.3-.1h0c0,0,0-.1,0-.1h0c0,0,0-.1,0-.1h0c0-.1,0-.2,0-.3,0,0,0,0,0-.1h41.3Z"/>
          <path class="cls-8" d="M914,188.1v5.7c0,0,0,.1,0,.2h0c0,.1,0,.2,0,.2,0,0,0,0,0,0-.1.2-.3.3-.5.4h-.2c0,0-.2,0-.2,0h-39.4c0,0-.1,0-.2,0h0c0,0-.2,0-.3-.1h0c0,0,0-.1,0-.1h0c0,0,0-.1,0-.1h0c0-.1,0-.2,0-.3,0,0,0,0,0-.1,0,0,0-.1,0-.2v-5.7c0,0,0-.1,0-.2,0-.2.1-.4.3-.6,0,0,.2-.1.3-.2.1,0,.3-.1.4-.1h39.3c.3,0,.5.1.7.3.2.2.3.4.3.7h0Z"/>
          <path class="cls-7" d="M879.7,187.1h-3.5v7.8h3.5v-7.8Z"/>
          <path class="cls-7" d="M885.3,187.1h-3.5v7.8h3.5v-7.8Z"/>
          <path class="cls-7" d="M910.4,187.1h-8.7v7.8h8.7v-7.8Z"/>
          <path class="cls-8" d="M914,187.9h-41.4c0-.2.2-.5.3-.6.2-.2.4-.2.7-.2h39.4c.2,0,.5,0,.7.2.2.2.3.4.3.6Z"/>
          <path class="cls-8" d="M914,194h0c0,.1,0,.2,0,.2,0,0,0,0,0,0-.1.2-.3.3-.5.4h-.2c0,0-.2,0-.2,0h-39.4c0,0-.1,0-.2,0h0c0,0-.2,0-.3-.1h0c0,0,0-.1,0-.1h0c0,0,0-.1,0-.1h0c0-.1,0-.2,0-.3,0,0,0,0,0,0h41.3Z"/>
          <path class="cls-8" d="M916.3,180.3v5.7c0,0,0,.1,0,.2,0,0,0,0,0,0,0,0,0,.1,0,.2h0c-.1.3-.3.4-.5.5h-.2c0,0-.2,0-.2,0h-39.5c0,0-.1,0-.2,0h0c0,0-.2,0-.3-.1h0c0,0,0-.1,0-.1h0c0,0,0-.1,0-.1,0,0,0,0,0,0,0,0,0-.1,0-.2,0,0,0,0,0-.1,0,0,0-.1,0-.2v-5.7c0,0,0-.1,0-.2,0-.2.1-.4.3-.6,0,0,.2-.1.3-.2.1,0,.3,0,.5-.1h39.3c.2,0,.5,0,.7.2.2.2.3.4.3.6,0,0,0,.1,0,.2Z"/>
          <path class="cls-7" d="M882,179.3h-3.5v7.8h3.5v-7.8Z"/>
          <path class="cls-7" d="M887.6,179.3h-3.5v7.8h3.5v-7.8Z"/>
          <path class="cls-7" d="M912.7,179.3h-8.7v7.8h8.7v-7.8Z"/>
          <path class="cls-8" d="M916.3,180.1h-41.4c0-.2.2-.5.3-.6.2-.2.4-.2.7-.2h39.3c.2,0,.5,0,.7.2.2.2.3.4.4.6Z"/>
          <path class="cls-8" d="M916.3,186.2s0,0,0,0c0,0,0,0,0,.1h0c-.1.3-.3.4-.5.5h-.2c0,0-.2,0-.2,0h-39.5c0,0-.1,0-.2,0h0c0,0-.2,0-.3-.1h0c0,0,0-.1,0-.1h0c0,0,0-.1,0-.1,0,0,0,0,0,0,0,0,0-.1,0-.2,0,0,0,0,0,0h41.3Z"/>
          <path class="cls-8" d="M919,172.6v5.7c0,0,0,.1,0,.2h0c0,.1,0,.2,0,.2h0c0,.3-.3.4-.5.5h-.2c0,0-.1,0-.2,0h-39.5c0,0-.1,0-.2,0h0c0,0-.2,0-.3-.1h0c0,0,0-.1,0-.1,0,0,0,0,0,0h0c0,0,0-.1,0-.2,0,0,0-.1,0-.2h0c0-.2,0-.2,0-.3v-5.7c0-.1,0-.3,0-.4,0-.1.1-.2.2-.3,0,0,.2-.1.3-.2.1,0,.3-.1.5-.1h39.3c.2,0,.5,0,.7.2.2.2.3.4.3.6,0,0,0,.1,0,.2Z"/>
          <path class="cls-8" d="M918.9,172.4h-41.4c0-.2.2-.5.3-.6.2-.2.4-.2.7-.2h39.3c.2,0,.5,0,.7.2.2.2.3.4.4.6Z"/>
          <path class="cls-8" d="M918.9,178.4h0c0,.1,0,.2,0,.2h0c0,.3-.3.4-.5.5h-.2c0,0-.1,0-.2,0h-39.5c0,0-.1,0-.2,0h0c0,0-.2,0-.3-.1h0c0,0,0-.1,0-.1,0,0,0,0,0,0h0c0,0,0-.1,0-.2,0,0,0-.1,0-.2h0c0,0,41.3,0,41.3,0Z"/>
          <g class="cls-32">
            <path class="cls-7" d="M884.6,171.5h-3.5v7.8h3.5v-7.8Z"/>
            <path class="cls-7" d="M890.3,171.5h-3.5v7.8h3.5v-7.8Z"/>
            <path class="cls-7" d="M915.3,171.5h-8.7v7.8h8.7v-7.8Z"/>
          </g>
          <path class="cls-8" d="M914,163.1l.4,5.7c0,.1,0,.3,0,.4,0,.1-.1.3-.2.4,0,.1-.2.2-.3.2-.1,0-.3,0-.4,0l-39.3,2.5c-.1,0-.3,0-.4,0-.1,0-.3-.1-.4-.2-.1,0-.2-.2-.2-.3,0-.1,0-.3,0-.4l-.4-5.7c0,0,0-.1,0-.2,0-.3.1-.5.3-.7.2-.2.4-.3.7-.3l39.3-2.5c.3,0,.5,0,.7.2.2.2.3.4.4.6,0,0,0,0,0,.1Z"/>
          <path class="cls-7" d="M879.7,164.3l-3.5.2.5,7.7,3.5-.2-.5-7.7Z"/>
          <path class="cls-7" d="M885.3,163.9l-3.5.2.5,7.7,3.5-.2-.5-7.7Z"/>
          <path class="cls-7" d="M910.3,162.3l-8.7.6.5,7.7,8.7-.6-.5-7.7Z"/>
          <path class="cls-8" d="M914,163l-41.3,2.7c0-.3.1-.5.3-.7.2-.2.4-.3.7-.3l39.3-2.5c.2,0,.5,0,.7.2.2.1.3.4.4.6Z"/>
          <path class="cls-8" d="M873,171.7l41.3-2.7c0,.3-.1.5-.3.7-.2.2-.4.3-.7.3l-39.3,2.5c-.2,0-.5,0-.7-.2-.2-.1-.3-.4-.4-.6Z"/>
          <path class="cls-8" d="M966.3,250.2v5.7c0,0,0,.1,0,.2,0,0,0,.1,0,.2h0c0,.3-.2.4-.4.5h-.1c0,0-.2,0-.2,0,0,0-.1,0-.2,0h-39.5c0,0-.1,0-.2,0h-.3c-.1-.1-.3-.3-.4-.4h0c0-.2,0-.3,0-.3,0,0,0-.1,0-.2v-5.7c0,0,0-.1,0-.2,0-.2.2-.5.3-.6s.4-.2.7-.2h39.3c.2,0,.5,0,.7.2s.3.4.3.6c0,0,0,.1,0,.2Z"/>
          <g class="cls-32">
            <path class="cls-33" d="M932,249.2h-3.5v7.8h3.5v-7.8Z"/>
            <path class="cls-7" d="M937.6,249.2h-3.5v7.8h3.5v-7.8Z"/>
            <path class="cls-7" d="M962.7,249.2h-8.7v7.8h8.7v-7.8Z"/>
          </g>
          <path class="cls-8" d="M966.3,250h-41.4c0-.2.2-.5.3-.6.2-.2.4-.2.7-.2h39.3c.3,0,.5,0,.7.2.2.2.3.4.4.6Z"/>
          <path class="cls-8" d="M924.9,256.1h41.4c0,.2-.2.5-.3.6-.2.2-.4.2-.7.2h-39.4c-.2,0-.5,0-.7-.2s-.3-.4-.3-.6Z"/>
          <path class="cls-8" d="M960.3,242.4v5.7c0,0,0,.1,0,.2,0,0,0,.1,0,.2v.2c-.1,0-.2.2-.3.3,0,0-.1,0-.2.1h-.1c0,0-.2.1-.2.1h-39.9s-.1-.1-.1-.1h0c-.1,0-.3-.2-.3-.3,0,0,0,0,0-.2v-.2c0,0,0-.1,0-.2v-5.7c0,0,0-.1,0-.2,0-.2.2-.5.4-.6.2-.2.4-.2.7-.2h39.3c.2,0,.5,0,.7.2.2.2.3.4.3.6,0,0,0,.1,0,.2Z"/>
          <g class="cls-32">
            <path class="cls-33" d="M926,241.4h-3.5v7.8h3.5v-7.8Z"/>
            <path class="cls-33" d="M931.6,241.4h-3.5v7.8h3.5v-7.8Z"/>
            <path class="cls-7" d="M956.7,241.4v7.8h-8.7v-7.8h8.7,0Z"/>
          </g>
          <path class="cls-8" d="M960.3,242.3h-41.4c0-.2.2-.5.4-.6.2-.2.4-.2.7-.2h39.3c.2,0,.5,0,.7.2.2.2.3.4.3.6Z"/>
          <path class="cls-8" d="M918.9,248.3h41.4c0,.2-.2.5-.3.6-.2.2-.4.2-.7.2h-39.3c-.3,0-.5,0-.7-.2-.2-.2-.3-.4-.4-.6Z"/>
          <path class="cls-8" d="M952.8,234.9v5.7c0,0,0,.1,0,.2,0,0,0,.1,0,.2,0,0,0,.1,0,.2,0,.1-.1.2-.2.3h0c0,0,0,0,0,0h-.1c0,0-.2,0-.2,0h-40.1c0,0,0,0,0,0-.1,0-.3-.2-.4-.4,0,0,0-.1,0-.2,0,0,0-.1,0-.2,0,0,0-.1,0-.2v-5.7c0-.3.1-.5.3-.7.2-.2.4-.3.7-.3h39.3c.3,0,.5.1.7.3.2.2.3.4.3.7h0Z"/>
          <g class="cls-32">
            <path class="cls-33" d="M918.5,233.9h-3.5v7.8h3.5v-7.8Z"/>
            <path class="cls-33" d="M924.1,233.9h-3.5v7.8h3.5v-7.8Z"/>
            <path class="cls-7" d="M949.2,233.9h-8.7v7.8h8.7v-7.8Z"/>
          </g>
          <path class="cls-8" d="M952.8,234.7h-41.4c0-.2.2-.5.3-.6.2-.2.4-.2.7-.2h39.3c.3,0,.5,0,.7.2.2.2.3.4.4.6Z"/>
          <path class="cls-8" d="M952.8,240.8c0,0,0,.1,0,.2,0,0,0,.1,0,.2,0,.1-.1.2-.2.3h0c0,0,0,0,0,0h-.1c0,0-.2,0-.2,0h-40.1c0,0,0,0,0,0-.1,0-.3-.2-.4-.4,0,0,0-.1,0-.2,0,0,0-.1,0-.2h41.4Z"/>
          <path class="cls-8" d="M950,227.1v5.7c0,0,0,.1,0,.2,0,0,0,.1,0,.2,0,0,0,.1,0,.2,0,.1-.1.2-.2.3h0c0,0,0,0,0,.1,0,0,0,0-.1,0h-.2s-.2,0-.2,0h-39.8c0,0,0,0-.1-.1-.1,0-.3-.2-.4-.4,0,0,0-.1,0-.2,0,0,0-.1,0-.2,0,0,0-.1,0-.2v-5.7c0,0,0-.1,0-.2,0-.2.2-.5.3-.6.2-.2.4-.2.7-.2h39.3c.2,0,.5,0,.7.2.2.2.3.4.3.6,0,0,0,.1,0,.2Z"/>
          <g class="cls-32">
            <path class="cls-33" d="M915.7,226.1h-3.5v7.8h3.5v-7.8Z"/>
            <path class="cls-33" d="M921.3,226.1h-3.5v7.8h3.5v-7.8Z"/>
            <path class="cls-33" d="M946.4,226.1h-8.7v7.8h8.7v-7.8Z"/>
          </g>
          <path class="cls-8" d="M950,226.9h-41.4c0-.2.2-.5.3-.6.2-.2.4-.2.7-.2h39.4c.2,0,.5,0,.7.2.2.2.3.4.3.6Z"/>
          <path class="cls-8" d="M950,233c0,0,0,.1,0,.2,0,0,0,.1,0,.2,0,.1-.1.2-.2.3h0c0,0,0,0,0,.1,0,0,0,0-.1,0h-.2c0,0-.2,0-.2,0h-39.8c0,0,0,0-.1-.1-.1,0-.3-.2-.4-.4,0,0,0-.1,0-.2,0,0,0-.1,0-.2h41.3Z"/>
          <path class="cls-8" d="M955.8,219.3v5.7c0,0,0,.1,0,.2,0,0,0,.1,0,.2,0,0,0,.1,0,.2,0,.1-.1.2-.2.3h0c0,0,0,.1,0,.1,0,0,0,0-.1,0h-.2s-.2,0-.2,0h-39.8c0,0,0,0-.1-.1h0c-.1,0-.3-.2-.3-.4,0,0,0-.1,0-.2s0-.1,0-.2c0,0,0-.1,0-.2v-5.7c0,0,0-.1,0-.2,0-.2.2-.5.3-.6.2-.2.4-.2.7-.2h39.3c.2,0,.5,0,.7.2.2.2.3.4.3.6,0,0,0,.1,0,.2Z"/>
          <g class="cls-32">
            <path class="cls-33" d="M921.5,218.3h-3.5v7.8h3.5v-7.8Z"/>
            <path class="cls-33" d="M927.2,218.3h-3.5v7.8h3.5v-7.8Z"/>
            <path class="cls-7" d="M952.2,218.3h-8.7v7.8h8.7v-7.8Z"/>
          </g>
          <path class="cls-8" d="M955.8,219.2h-41.4c0-.2.2-.5.3-.6.2-.2.4-.2.7-.2h39.4c.2,0,.5,0,.7.2.2.2.3.4.3.6Z"/>
          <path class="cls-8" d="M955.8,225.2c0,0,0,.1,0,.2,0,0,0,.1,0,.2,0,.1-.1.2-.2.3h0c0,0,0,.1,0,.1,0,0,0,0-.1,0h-.2s-.2,0-.2,0h-39.8c0,0,0,0-.1-.1h0c-.1,0-.3-.2-.3-.4,0,0,0-.1,0-.2,0,0,0-.1,0-.2h41.3Z"/>
          <path class="cls-8" d="M959.4,211.6v5.7c0,0,0,.1,0,.2,0,0,0,.1,0,.2,0,0,0,.1,0,.2,0,.1-.1.2-.2.3h0c0,0,0,0,0,.1h-.1c0,0-.2.1-.2.1h-39.9c0,0,0,0-.1-.1h0c-.1,0-.3-.2-.3-.4,0,0,0-.1,0-.2,0,0,0-.1,0-.2,0,0,0-.1,0-.2v-5.7c0,0,0-.1,0-.2,0-.2.2-.5.3-.6.2-.2.4-.2.7-.2h39.3c.2,0,.5,0,.7.2.2.2.3.4.3.6,0,0,0,.1,0,.2Z"/>
          <g class="cls-32">
            <path class="cls-33" d="M925,210.6h-3.5v7.8h3.5v-7.8Z"/>
            <path class="cls-33" d="M930.7,210.6h-3.5v7.8h3.5v-7.8Z"/>
            <path class="cls-7" d="M955.7,210.6h-8.7v7.8h8.7v-7.8Z"/>
          </g>
          <path class="cls-8" d="M959.3,211.4h-41.3c0-.2.2-.5.3-.6.2-.2.4-.2.7-.2h39.3c.2,0,.5,0,.7.2.2.2.3.4.3.6Z"/>
          <path class="cls-8" d="M959.3,217.5c0,0,0,.1,0,.2,0,0,0,.1,0,.2,0,.1-.1.2-.2.3h0c0,0,0,0,0,.1h-.1c0,0-.2.1-.2.1h-39.9c0,0,0,0-.1-.1h0c-.1,0-.3-.2-.3-.4,0,0,0-.1,0-.2,0,0,0-.1,0-.2h41.3Z"/>
          <path class="cls-8" d="M955.8,203.8v5.7c0,0,0,.1,0,.2,0,0,0,.1,0,.2v.2c-.1.1-.2.2-.3.3h0c0,0,0,.1,0,.1,0,0,0,0-.1,0h-.2s-.2,0-.2,0h-39.8c0,0,0,0-.1-.1h0c-.1,0-.3-.2-.3-.4v-.2c0,0,0-.1,0-.2,0,0,0-.1,0-.2v-5.7c0,0,0-.1,0-.2,0-.2.2-.5.3-.6.2-.2.4-.2.7-.2h39.3c.2,0,.5,0,.7.2.2.2.3.4.3.6,0,0,0,.1,0,.2Z"/>
          <path class="cls-7" d="M921.5,202.8h-3.5v7.8h3.5v-7.8Z"/>
          <path class="cls-7" d="M927.2,202.8h-3.5v7.8h3.5v-7.8Z"/>
          <path class="cls-7" d="M952.2,202.8h-8.7v7.8h8.7v-7.8Z"/>
          <path class="cls-8" d="M955.8,203.7h-41.4c0-.2.2-.5.3-.6.2-.2.4-.2.7-.2h39.4c.2,0,.5,0,.7.2.2.2.3.4.3.6Z"/>
          <path class="cls-8" d="M955.8,209.7c0,0,0,.1,0,.2v.2c-.1.1-.2.2-.3.3h0c0,0,0,.1,0,.1,0,0,0,0-.1,0h-.2s-.2,0-.2,0h-39.8c0,0,0,0-.1-.1h0c-.1,0-.3-.2-.3-.4v-.2c0,0,0-.1,0-.2h41.3Z"/>
          <path class="cls-8" d="M960.2,196.1v5.7c0,0,0,.1,0,.2,0,0,0,.1,0,.2,0,0,0,.1,0,.2,0,.1-.1.2-.2.3h0c0,0,0,.1,0,.1,0,0,0,0-.1,0h-.2s-.2,0-.2,0h-39.8c0,0,0,0-.1-.1-.1,0-.3-.2-.4-.4,0,0,0-.1,0-.2,0,0,0-.1,0-.2,0,0,0-.1,0-.2v-5.7c0,0,0-.1,0-.2,0-.2.2-.5.3-.6.2-.2.4-.2.7-.2h39.3c.2,0,.5,0,.7.2.2.2.3.4.3.6,0,0,0,.1,0,.2Z"/>
          <path class="cls-7" d="M925.9,195.1h-3.5v7.8h3.5v-7.8Z"/>
          <path class="cls-7" d="M931.5,195.1h-3.5v7.8h3.5v-7.8Z"/>
          <path class="cls-7" d="M956.5,195.1h-8.7v7.8h8.7v-7.8Z"/>
          <path class="cls-8" d="M960.2,195.9h-41.4c0-.2.2-.5.3-.6.2-.2.4-.2.7-.2h39.3c.3,0,.5,0,.7.2.2.2.3.4.4.6Z"/>
          <path class="cls-8" d="M960.2,202c0,0,0,.1,0,.2,0,0,0,.1,0,.2,0,.1-.1.2-.2.3h0c0,0,0,.1,0,.1,0,0,0,0-.1,0h-.2c0,0-.2,0-.2,0h-39.8c0,0,0,0-.1-.1-.1,0-.3-.2-.4-.4,0,0,0-.1,0-.2,0,0,0-.1,0-.2h41.3Z"/>
          <path class="cls-8" d="M962.5,188.3v5.7c0,0,0,.1,0,.2,0,0,0,.1,0,.2,0,0,0,.1,0,.2,0,.1-.1.2-.2.3h0c0,0,0,.1,0,.1,0,0,0,0-.1,0h-.2s-.2,0-.2,0h-39.8c0,0,0,0-.1-.1-.1,0-.3-.2-.4-.4,0,0,0-.1,0-.2,0,0,0-.1,0-.2,0,0,0-.1,0-.2v-5.7c0,0,0-.1,0-.2,0-.2.2-.5.3-.6.2-.2.4-.2.7-.2h39.3c.2,0,.5,0,.7.2.2.2.3.4.3.6,0,0,0,.1,0,.2Z"/>
          <path class="cls-7" d="M928.2,187.3h-3.5v7.8h3.5v-7.8Z"/>
          <path class="cls-7" d="M933.8,187.3h-3.5v7.8h3.5v-7.8Z"/>
          <path class="cls-7" d="M958.9,187.3h-8.7v7.8h8.7v-7.8Z"/>
          <path class="cls-8" d="M962.5,188.2h-41.4c0-.2.2-.5.3-.6.2-.2.4-.2.7-.2h39.3c.3,0,.5,0,.7.2.2.2.3.4.4.6Z"/>
          <path class="cls-8" d="M962.5,194.2c0,0,0,.1,0,.2,0,0,0,.1,0,.2,0,.1-.1.2-.2.3h0c0,0,0,.1,0,.1,0,0,0,0-.1,0h-.2s-.2,0-.2,0h-39.8c0,0,0,0-.1-.1-.1,0-.3-.2-.4-.4,0,0,0-.1,0-.2,0,0,0-.1,0-.2h41.3Z"/>
          <path class="cls-8" d="M966,180.6v5.7c0,0,0,.1,0,.2v.3c-.1.1-.2.2-.3.3h0c0,0,0,.1,0,.1,0,0,0,0-.1,0h-.2s-.2,0-.2,0h-39.7c0,0,0,0-.1-.1-.1,0-.3-.2-.4-.4v-.2c0,0,0-.1,0-.2,0,0,0-.1,0-.2v-5.7c0,0,0-.1,0-.2,0-.2.2-.5.3-.6.2-.2.4-.2.7-.2h39.2c.2,0,.5,0,.7.2.2.2.3.4.3.6,0,0,0,.1,0,.2Z"/>
          <path class="cls-7" d="M931.7,179.6h-3.5v7.8h3.5v-7.8Z"/>
          <path class="cls-7" d="M937.3,179.6h-3.5v7.8h3.5v-7.8Z"/>
          <path class="cls-7" d="M962.4,179.6h-8.7v7.8h8.7v-7.8Z"/>
          <path class="cls-8" d="M966,180.4h-41.4c0-.2.2-.5.3-.6.2-.2.4-.2.7-.2h39.4c.2,0,.5,0,.7.2.2.2.3.4.3.6Z"/>
          <path class="cls-8" d="M966,186.5v.3c-.1.1-.2.2-.3.3h0c0,0,0,.1,0,.1,0,0,0,0-.1,0h-.2s-.2,0-.2,0h-39.7c0,0,0,0-.1-.1-.1,0-.3-.2-.4-.4v-.2c0,0,0-.1,0-.2h41.2Z"/>
          <g class="cls-11">
            <path class="cls-7" d="M960.3,242.3c0,0,0,.1,0,.2v5.6l-3.6-2.5-4.5-3.2-.9-.6-.3-.2-.9-.6-.9-.6-7.7-5.4-1-.7-.2-.2h11.5c.3,0,.5.1.7.3.2.2.3.4.3.7v5.7c0,0,0,.1,0,.2,0,0,0,.1,0,.2,0,0,0,.1,0,.2,0,.1-.1.2-.2.3h6.8c.2,0,.5,0,.7.2.2.2.3.4.3.6Z"/>
          </g>
          <g class="cls-11">
            <path class="cls-7" d="M966.3,250.2v1.9l-3-2.1-.6-.4-.6-.4h3.2c.2,0,.5,0,.7.2s.3.4.3.6c0,0,0,.1,0,.2Z"/>
          </g>
          <path class="cls-8" d="M980.6,252.3l-3.7,4.3c-.2.2-.4.3-.7.4-.3,0-.5,0-.8-.3l-29.7-25.8c-.1,0-.2-.2-.3-.3,0-.1-.1-.3-.1-.4,0-.1,0-.3,0-.4,0-.1.1-.2.2-.4l3.7-4.3h.1c.2-.3.4-.4.7-.4s.5,0,.7.3l29.8,25.8c.2.2.3.4.3.6,0,.2,0,.5-.1.7,0,0,0,.1-.1.2Z"/>
          <path class="cls-7" d="M952.7,226.8l-5.1,5.9,2.6,2.3,5.1-5.9-2.6-2.3Z"/>
          <path class="cls-7" d="M957,230.5l-5.1,5.9,2.6,2.3,5.1-5.9-2.6-2.3Z"/>
          <path class="cls-7" d="M972,243.5l-5.1,5.9,6.6,5.7,5.1-5.9-6.6-5.7Z"/>
          <path class="cls-8" d="M980.7,252.1l-31.3-27.1c.2-.2.4-.3.7-.3s.5,0,.7.3l29.8,25.8c.2.2.3.4.4.7,0,.3,0,.5-.2.7Z"/>
          <path class="cls-8" d="M945.5,229.6l31.3,27.1c-.2.2-.4.2-.7.2s-.5,0-.7-.2l-29.7-25.8c-.2-.2-.3-.4-.4-.6s0-.5.2-.7Z"/>
          <g class="cls-11">
            <path class="cls-7" d="M917.5,208.6v.8c0,0,0,.1,0,.2h0v.2s0,0,0,0c-.1.2-.3.3-.5.4h-.2c0,0-.1,0-.2,0h-3.3c.2,0,.5,0,.7.2.2.2.3.4.3.6,0,0,0,.1,0,.2v5.7c0,0,0,.1,0,.2h0c0,.1,0,.2,0,.2,0,0,0,0,0,.1,0,.1-.2.3-.4.3h-2c.2,0,.5,0,.7.2.2.2.3.4.3.6,0,0,0,.1,0,.2v5.7c0,0,0,.1,0,.2,0,0,0,0,0,0,0,0,0,0,0,.1h0v.2c0,.1-.2.2-.4.3h-.3c0,0-.2,0-.2,0h1.5c.2,0,.5,0,.7.2.2.2.3.4.3.6,0,0,0,.1,0,.2v5.7c0,0,0,.1,0,.2,0,0,0,.1,0,.2h0c0,.2-.2.4-.4.5h-.2s0,0,0,0h-3.9c.2,0,.5,0,.7.2.2.2.3.4.3.6,0,0,0,.1,0,.2v5.7c0,0,0,.2,0,.3,0,0,0,.1,0,.2,0,0,0,.2-.1.2h0c0,0,0,.1,0,.1h0c0,0,0,.1,0,.1h-.2c0,0,0,0,0,0,0,0-.1,0-.2,0h1.6c.2,0,.5,0,.7.2.2.2.3.4.3.6,0,0,0,.1,0,.2v5.7c0,0,0,.1,0,.2,0,0,0,.2,0,.3h0c-.1.3-.3.4-.5.5h-.2c0,0-.1,0-.2,0h-3c.2,0,.5,0,.7.2.2.2.3.4.3.6,0,0,0,.1,0,.2v5.7c0,0,0,.1,0,.2h0c0,.1,0,.2,0,.2h0c0,.2-.1.3-.2.4-.1,0-.2.1-.3.2h-8.6c-.5-.3-.9-.6-1.3-.9s-1.1-.8-1.7-1.3c-1.7-1.4-3.2-3-4.5-4.8-.2-.3-.4-.6-.6-.9-.2-.3-.4-.6-.5-.9-1.2-1.9-2.1-3.9-2.8-6.1,0-.3-.2-.6-.2-.9,0-.3-.2-.6-.2-.9-.5-2-.7-4-.7-6v-1.7c.1-2.1.5-4.1,1.1-6.1,0-.3.2-.6.3-.9,0-.3.2-.6.3-.9.8-2.1,1.9-4.2,3.3-6l.7-.9c.2-.3.5-.6.7-.9,2.2-2.5,4.8-4.5,7.7-6.1l.5-.2c.4-.2.9-.4,1.3-.6.7-.3,1.3-.5,2-.8h.3c2.6-.9,5.3-1.4,8-1.4h.4c1.1.3,2.2.6,3.3,1.1Z"/>
          </g>
          <path class="cls-7" d="M943.3,239.8c2.9-14.2-6.3-28.1-20.5-31-14.2-2.9-28.1,6.3-31,20.5-2.9,14.2,6.3,28.1,20.5,31,14.2,2.9,28.1-6.3,31-20.5Z"/>
          <g class="cls-13">
            <path class="cls-7" d="M936,242.7c4.5-10.6-.4-22.8-10.9-27.3-10.6-4.5-22.8.4-27.3,10.9-4.5,10.6.4,22.8,10.9,27.3,10.6,4.5,22.8-.4,27.3-10.9Z"/>
          </g>
          <g class="cls-26">
            <path class="cls-7" d="M916.9,213.7h-1.2c5.3.3,10.3,2.6,14,6.5,3.7,3.9,5.7,9,5.7,14.3s-2,10.4-5.7,14.3c-3.7,3.9-8.7,6.2-14,6.5h1.2c5.5,0,10.8-2.2,14.7-6.1,3.9-3.9,6.1-9.2,6.1-14.7s-2.2-10.8-6.1-14.7c-3.9-3.9-9.2-6.1-14.7-6.1h0Z"/>
          </g>
          <path class="cls-7" d="M919.1,248c7.5-1.2,12.5-8.3,11.3-15.7-1.2-7.5-8.3-12.5-15.7-11.3-7.5,1.2-12.5,8.3-11.3,15.7,1.2,7.5,8.3,12.5,15.7,11.3Z"/>
          <path class="cls-12" d="M922.7,228.4v-2h-11.6v2h3.2c.7,0,1.3.2,1.8.6.5.4.9.9,1.2,1.5h-6.2v2h6.2c-.2.6-.6,1.2-1.2,1.5-.5.4-1.2.6-1.8.6h-3.2v2h.6c1,0,1.9.3,2.8.8,2.4,1.5,4.2,3.8,5,6.5h2.1c-.8-3.1-2.7-5.8-5.3-7.7.8-.3,1.4-.8,2-1.5.5-.6.9-1.4,1-2.2h3.3v-2h-3.3c-.2-.8-.5-1.5-1-2.1h4.3Z"/>
          <path class="cls-22" d="M673.5,83.7c-.1.9-.9,7.8-.9,7.8,0,0,1.4,4.3,1.7,4.1.7-.2,1.4-.5,2-.9.7-1.7,1.3-3.4,1.8-5.1.2-.6.6-6,.6-6h-5.1Z"/>
          <path class="cls-22" d="M684.2,69.6s.6,1.9-1.9,5.5v4.4s1.4,1.9-5,7.6l-3.4-.4s-6.5-5.1-5.9-8.5v-3.1s-2.2-3-1.8-5.4c0,0-2,.2-2.3-2.8-.2-2.8-1.8-5.4-.6-5.8,1.2-.3,3.6-5.6,3.6-5.6l3.7-3.9s6.8-.3,7-.3c.2,0,6.1-.1,6.1-.1l1.6,7.9,1.6,2s1,0,.2,2.3c-.4,2.4-1,5.1-1,5.1,0,0-.1,1.2-2,1.1Z"/>
          <path class="cls-20" d="M686.3,62.3c-.2,1.1-.4,2.3-.4,3.4.1.5,0,2-1.3,2.1l.2-.9.9-3.8c.2-.3.4-.5.6-.8Z"/>
          <path class="cls-20" d="M663.8,62c.2,1.1.4,2.3.4,3.4-.1.5,0,2,1.3,2.1l-.2-.9-.9-3.8c-.2-.3-.4-.5-.6-.8Z"/>
          <path class="cls-10" d="M682.3,75s-5.2,7.8-12.4,2.3c0,0,7.7,10,12.4.6v-2.9Z"/>
          <path class="cls-5" d="M684.2,69.6l1.3-7.8-.4-6.9s-2.7-4.7-2.8-4.7c-.1,0-9,0-9,0,0,0-5,2.1-5,2.2s.5,2.9.5,2.9c0,0,4.2-.7,4.5,2.1.3,2.8,2.8-.4,2.8-.4,0,0,7.6-1.3,4.4,9,0,0-3.2,2.2-1.5,8.2.4,1.1.4,2.4,0,3.5-.2.3-.4.6-.4.6,2.1-1.2,3.8-3.1,4.8-5.3.7-1.1,1-2.3.8-3.6Z"/>
          <path class="cls-34" d="M682.9,49.5s1.3-1.6,3.5,1.4c.9,1.1,1.4,2.5,1.5,3.9-.2-.6-.5-1.1-.9-1.5,0,0,1.7,1.9,0,5.4v2.3c-.4.9-.8,1.8-1,2.8-.2.8-.3,3.3-1.5,3.2,0,0,.7-4,.2-5.4-.7-.8-1.1-1.8-1.2-2.9,0,0,0-1.2-.3-1.6s-3.4-2.2-.9-5.4c0,0-1.6.7-3.6,3.6-1.4,1.6-6.1-.5-6.1-.5-.4-.1-.8-.2-1.2,0s-.8.2-1.1.4c-.3.2-.6.5-.9.9-.2.3-.4.7-.4,1.1-.9,2.3-1.9,2.8-1.9,2.8.9-1.2,1.5-2.7,1.5-4.2-.3,1.3-.8,2.5-1.5,3.6-1,1.2-2.1,2.8-1.1,7.7,0,0-.9.2-1.3-2.3-.4-2.5-.8-3.3-1.8-4.2-1-2.3.4-3.1.4-3.1,0,0,.2-.9-.1-1-.4-.7-2.5-2.7,2.6-6.5-1.3.5-2.3,1.5-2.9,2.7,1-2.7,2.9-4.9,5.5-6.3,4-1.9,5.4.2,9.2-.5,4.1,0,6.3.9,5.6,3.6Z"/>
          <path class="cls-34" d="M672.5,62.5c-1.5-.4-3.1-.7-4.6-.8-.9,0-1,.1-.9-.2.5-.4,1.1-.7,1.7-.9,0,0,3.5.2,4.3,1,1,1.2-.4.9-.4.9Z"/>
          <path class="cls-10" d="M671.3,72.8s2.4-1,3-.5c.6.5,2-.1,2-.1.9,0,1.7.3,2.5.7,0,0-3.3,4.8-7.5,0Z"/>
          <g class="cls-15">
            <path class="cls-10" d="M671.3,72.8s2.3-.9,3-.5c.7.4,2-.1,2-.1.9,0,1.7.3,2.5.7-2.4,1-5.1,1-7.5,0Z"/>
          </g>
          <path class="cls-34" d="M672.7,63.9c-.2-.3-.5-.6-.9-.8-.3-.2-.7-.3-1.1-.3s-.8,0-1.2.2c-.4.1-.7.4-1,.6h-.9c.7-.6,1.6-.9,2.5-1,.5,0,1,0,1.4.3.4.2.8.6,1.1,1Z"/>
          <path class="cls-21" d="M672.7,63.9s-1.6.9-4.1-.3c0,0,1.8-2.2,4.1.3Z"/>
          <path class="cls-34" d="M670.6,64.2c.4,0,.7-.3.7-.7s-.3-.7-.7-.7-.7.3-.7.7.3.7.7.7Z"/>
          <path class="cls-20" d="M675.6,69.8s.7-.6,1-.3c0,0,0,0,0,0,0,0,0,0,0,0s0,0,0,0c0,0,0,0,0,0-.3,0-.6,0-.9,0Z"/>
          <path class="cls-20" d="M674.6,69.8s-.7-.6-1-.3c0,0,0,0,0,0,0,0,0,0,0,0,0,0,0,0,0,0,0,0,0,0,0,0,.3,0,.6,0,.9,0Z"/>
          <path class="cls-34" d="M677.9,62.5c1.5-.4,3.1-.7,4.6-.8.9,0,1,.1.9-.2-.5-.4-1.1-.7-1.7-.9,0,0-3.5.2-4.3,1-1,1.2.4.9.4.9Z"/>
          <path class="cls-34" d="M677.7,63.9c.2-.3.5-.6.9-.8s.7-.3,1.1-.3c.4,0,.8,0,1.2.2.4.1.7.4,1,.6h.9c-.7-.6-1.6-.9-2.5-1-.5,0-1,0-1.4.3-.4.2-.8.6-1.1,1Z"/>
          <path class="cls-21" d="M677.7,63.9s1.6.9,4.1-.3c0,0-1.8-2.2-4.1.3Z"/>
          <path class="cls-34" d="M679.7,64.2c.4,0,.7-.3.7-.7s-.3-.7-.7-.7-.7.3-.7.7.3.7.7.7Z"/>
          <path class="cls-31" d="M729.2,69.8s.7-1,1.2-.6c-.6,1-1.2.6-1.2.6Z"/>
          <path class="cls-22" d="M730.4,69.1c.2,0,.6.7.1,2-.2.6-.6,1.2-1.1,1.7.2.7.3,1.5.2,2.3.6.5,1.5-1.8,2.5-2.2.4-1,1-1.9,1.8-2.8,0,0,2.3-5.5,2.8-5.8s1.5,0,1.6.5-1.8,5.4-1.8,5.4c0,0,3-5.5,3.2-5.8.2-.3,1.5,0,1.6.5.1.6-2.1,6.1-2.1,6.1,0,0,2.9-4.3,3.4-4.6.4-.3,1.5.2,1.4.9-.8,1.7-1.8,3.3-2.8,4.9.8-1.2,1.8-2.3,2.8-3.3.1,0,.3,0,.4,0,.1,0,.3,0,.4.1.1,0,.2.2.3.3,0,.1.1.2.1.4,0,.4-3.2,4.9-3.2,4.9-.9,1.9-2,3.6-3.3,5.3-1.3,1.4-2.8,2.6-4.4,3.5l-1.9,3.6s-5.7-.7-7.2-4.8l1.6-3.5s-.1-4.1,0-4.7c.3-1,.7-2,1.1-3,0,0,2-2,2.6-1.9Z"/>
          <g class="cls-18">
            <g>
              <path class="cls-10" d="M726.2,77.2l.5,1.5c0,.5.2,1,.5,1.5.3.4.6.8,1.1,1.1-.4.6-1.8-.3-1.8-.3l-.8,3.4-1.3-2.4,1.8-4.8Z"/>
              <path class="cls-10" d="M734.8,83.7l-.6-.3c-1,.3-2.1.3-3.1,0,.7.4,1.6.7,2.4.7l-1.6,3.3h1.3c0,.1,1.6-3.8,1.6-3.8Z"/>
              <path class="cls-10" d="M730.5,71.8c-.1.4-.4.7-.7.9-.3.2-.7.3-1.1.2.2.2.5.3.7.4.3,0,.5,0,.8,0l.4-1.5Z"/>
            </g>
          </g>
          <path class="cls-10" d="M729.9,75.9s2,1.7,1.2,5.5c2.3-2.8.9-5.3-1.2-5.5Z"/>
          <path class="cls-30" d="M698.8,84.1l14,12.5,9.9-14.4,10.6,9.8-16.2,22.7-8.6,3.4-13.6-13.5,3.9-20.4Z"/>
          <path class="cls-27" d="M732.2,90.8l1.9-3.3-10.1-7.6-1.2,2.3,9.4,8.6Z"/>
          <path class="cls-28" d="M698.8,84.1l14,12.5-5.6,7.5,1.3,13.9-13.6-13.5,3.9-20.4Z"/>
          <path class="cls-40" d="M683,77.5s-2.2,7-6.1,8.4c0,0-2.3,3.9-.9,7.8-.9-1.2-1.5-2.6-1.8-4-.3-1.5-.2-3,.2-4.4,0,0-4.3-.5-6.9-7.2l-.6,77.4,11.5.4,8-2.2-2.4-73.3-.9-2.9Z"/>
          <path d="M665.8,255.1s6,16-6,14.1c-12-2-7.4-10.7-7.4-10.7,0,0,4.6-9.4,13.4-3.4Z"/>
          <path class="cls-37" d="M665.4,255.2s1.4,9.3-.5,10.4c-2.3,2-7.4,1.7-10.7-5.9-.1-4.1,3.4-4.1,3.4-4.1,2.5-.9,5.2-1,7.8-.4Z"/>
          <path class="cls-16" d="M678.3,155.9c0,4.2-1.7,8.2-4.7,11.1,0,0-4.1,21.5-4.6,27.1-.6,5.7-2.6,22.8-4.5,26.1,0,0,1.2,20.2,0,28.9,0,0,.5,4.8,1.3,5.9,0,0-8.2-1.6-13.4,3.4l-1.9-1s-2-22.3-.7-58.8c0,0,2.3-11.6,2.9-14.9.6-3.3-1.7-19.6-1.7-19.6l-.4-9.3,27.7,1Z"/>
          <path class="cls-38" d="M668.1,171.5s-8.9-.9-8.6,2.9c0,0-1.7,2.2-2.3,25.8,0,0-4.4,17.6-1.2,23.4,3.2,5.8-3.6,34.8-3.6,34.8l-1.9-1s-2.5-40.9-.7-58.8l3-16-1.8-18.6h2.3l1.6,3.3,13.2,3.2v.9Z"/>
          <path class="cls-30" d="M667.9,78.1l-19.6,4.5s-4.9,0-8.7,38.1c0,0-.7,11.5,1.2,20.6.9,8.5,1.3,13.1,1.3,13.1,0,0,8.3.6,11.8-2.3-2.2-9.3-3-18.8-2.5-28.3,2.1-8.5,1.5-12.8,1.5-12.8,0,0,2.8,11.1,3,14.4,0,3.1-.1,6.1-.5,9.1l-.6,33s10.5,2.9,13.2,3.2c0,0,5-33.7,4.5-36,0,0-1.8-49.9-4.7-56.6Z"/>
          <path class="cls-27" d="M667.9,78.1l-8.4,8.7,2.8,2.3s-4.2-.3-5.8-1.7c0,0-.2,4.9,7.7,22.4,8,17.5,8.2,16.2,8.4,20.7,0-7.6-.5-15.3-1.5-22.9-1.5-9.8-1-22.8-3.1-29.5Z"/>
          <path class="cls-30" d="M696.4,165l-14.4,4.1.7-14.2c.2-7.9,0-15.9-.7-23.8l.2-53.3,1.8.8,14.6,5.4s0,20.3-3.6,28.6c0,0-2.8,15-.9,21.3,0,0,1.9,22.4,2.2,31.2Z"/>
          <path class="cls-27" d="M684.1,78.5l6.3,9.1s-2.2,1.7-2.1,3.5l4.4-2.1s0,8.1-10.5,42.9v-54.2c.1,0,1.9.8,1.9.8Z"/>
          <path class="cls-16" d="M673.6,167s3.2,12.9,2,39.6c0,0-.3,45.1,1,50.5,0,0,9.7.5,13.7-2.4l4.7-2.4s-2.8-6.2-4.7-6.8c0,0,2-24,1.4-37,0,0,1.8-3.6,2.4-42.9l-11.4-10.8-4.5,1s-.2,7.3-4.6,11.2Z"/>
          <path class="cls-38" d="M694.2,165.6c-3.1,2.8-6.9,4.5-11,5,0,0-2.4,9.9-1.1,18.6,0,0-.4,48.8,1.1,53.1l-.2,1.6s2.8,5.4,2.8,5.8.5,5.8-.8,6.9c0,0-2.6,1-8.2.5-1.2-11-1.5-22.1-1-33.1,0,0,.2-52.1-2-57.1,0,0,5.5-7,4.7-11.2l4.5-1,11.3,10.8Z"/>
          <path d="M695.1,252.4l13.8,8.8s1.7,3.8-.7,4.4l-13.1-.6-7.8-4.4s-1.5-.9-1.6.6c0,0-5.5,1.9-8.8-1.4l-.2-2.6,18.4-4.8Z"/>
          <path class="cls-37" d="M689.7,255.2s12,9.9,19.3,6l-13.8-8.8-5.5,2.8Z"/>
          <path class="cls-41" d="M676.8,85.9s2.8,1.7,1.5,6.2-5.1,13.8-1.7,23.8c-1.3,10.3-1.3,25.6-1.3,25.6l-.9,14.4h4l4.5-1-.5-77.1s-1.8,7.7-5.5,8.2Z"/>
          <path class="cls-27" d="M645,89.2s0,19.7-2.2,25.3c1.3,4.5-.6,10.1-.6,10.1,0,0,4.1-.9,4.7,1.2,0,0-6.8-.7-4.7,1,3.8-.2,3.6,1.6,3.6,1.6,0,0-4.6-.4-2.5,1.2,2.1,1.6,2.1,2.9,2.1,2.9,0,0,.3,17.6,2.1,21.8-1.7.2-3.5.3-5.2,0l-1.5-14.2s-2.5-15.9.3-28.6c0,0,2.6-20.1,4.1-22.4Z"/>
          <path class="cls-27" d="M653,111s.6,3.7-1.5,12.8c0,0-1.3,9.9,2.5,28.3l1.2,2.9.4-20.5s1.4-8.1,0-12.1c0,0-2.4-11-2.5-11.4Z"/>
          <path class="cls-7" d="M661.1,156.6l-22.6,5.7,7.1,28.3,22.6-5.7-7.1-28.3Z"/>
          <path class="cls-10" d="M652.3,166.6c.9-.1,2,.6,2.6-.6-2.2.2-3.6-1.1-5-2.5-.6-.6-1.1-1.6-2.3-1.2-1.8.6-3.4,0-5.1-.6.2,1.4.9,2.7,2,3.5,1.1.9,2.5,1.3,3.9,1.2,1.3,0,2.7.5,4,.1Z"/>
          <path class="cls-10" d="M647.4,153.1c-.8.5-1.7.8-2.6.8-.9,0-1.8,0-2.7-.4-.3,2.1-.3,4.3-.2,6.5,0,.6-.2,1.4.6,1.8-.5-2.2-.1-4.5,1.9-5.6,3.2-1.7,6.8-2.7,10.5-3,.1-.7-.5-.8-.8-1.3-2.3,0-4.2,1.8-6.6,1.2Z"/>
          <path class="cls-22" d="M656.8,165.5c0,.1-.1.3-.2.4l-.7.4-.8-.3v-.3c-.1,0-.3.3-.3.3-2.2.2-3.6-1.1-5-2.5-.6-.6-1.1-1.6-2.3-1.2-1.8.6-3.4,0-5.1-.6-.5-2.2-.1-4.5,1.9-5.6,3.2-1.7,6.8-2.7,10.5-3,.2.8.5,1.5.7,2.3.5,2.4,2,4.7,1.2,7.3-1.2.9-.3,1.8,0,2.7ZM653.7,158.9c-.2-.4-.4-.9-1-.8-.6.1-.4.6-.4,1,0,1.9,0,3.7,1.9,5.1.4-1.8.3-3.7-.5-5.3Z"/>
          <path class="cls-5" d="M677.7,64.2c.4.2.8.4,1.2.5.4,0,.9,0,1.3,0-.9,0-1.7,0-2.5-.4Z"/>
          <path class="cls-5" d="M672.9,64.2c-.4.2-.8.4-1.2.5-.4,0-.9,0-1.3,0,.9,0,1.7,0,2.5-.4Z"/>
          <path class="cls-7" d="M652.8,158.6l4.4-1.1,2,8.7-3,1.1c-2.2-2.4-3.4-5.5-3.5-8.8Z"/>
          <path class="cls-24" d="M643.4,171.8l17.4-4.4"/>
          <path class="cls-24" d="M644.3,174.4l17.4-4.4"/>
          <path class="cls-24" d="M645,177.2l17.4-4.4"/>
          <path class="cls-24" d="M645.7,180.1l17.4-4.4"/>
          <path class="cls-24" d="M646.3,182.6l17.4-4.4"/>
          <path class="cls-24" d="M646.9,184.8l17.4-4.4"/>
          <path class="cls-3" d="M913.6,79l.5-2.7-2.5-.5c0-.7-.1-1.4-.3-2l2.1-1.4-1.5-2.3-2,1.3c-.6-.6-1.2-1.1-2-1.4l.5-2.5-2.7-.5-.5,2.6c-.6,0-1.1.1-1.6.3l-1.4-2.1-2.3,1.5,1.3,2c-.6.6-1.1,1.2-1.4,2l-2.2-.4-.5,2.7,2.3.4c0,.7.2,1.4.5,2.1l-2,1.3,1.5,2.3,2.1-1.4c.6.5,1.3.9,2,1.2l-.5,2.5,2.7.5.5-2.7c.6,0,1.2-.2,1.7-.5l1.3,2,2.3-1.5-1.4-2.1c.4-.4.7-.9.9-1.4l2.6.5ZM906.8,77.9c-.4.3-.9.4-1.4.4-.5,0-1-.1-1.4-.4-.4-.3-.7-.7-.9-1.1-.2-.5-.2-1-.1-1.4s.3-.9.7-1.3c.3-.3.8-.6,1.3-.7.5,0,1,0,1.4.1.5.2.8.5,1.1.9.4.5.5,1.2.4,1.9-.1.6-.5,1.2-1,1.6h0Z"/>
          <path class="cls-25" d="M1358,0H0v290h1358V0Z"/>
        </g>
      </g>
    </g>
  </g>
</svg>