<?xml version="1.0" encoding="UTF-8"?>
<svg  width="512" height="512" id="Layer_1" xmlns="http://www.w3.org/2000/svg" viewBox="0 0 1080 1080">
  <defs>
    <style>
      .cls-1 {
        fill: #042b62;
      }

      .cls-2 {
        fill: #bababa;
      }
    </style>
  </defs>
  <path class="cls-1" d="M669.13,667.74v10.23c0,85.69-.16,171.39.23,257.08.04,9.14-2.66,10.99-11.27,10.97-185.94-.24-371.88-.27-557.81.06-9.69.02-11.4-2.75-11.36-11.77.36-85.05.22-170.09.22-255.14v-9.65c4.08-.61,6.38,2.04,9.01,3.61,64.03,38.35,127.97,76.85,192.1,115.02,6.28,3.74,9.78,7.55,8.61,15.14-.63,4.11-.16,8.39-.1,12.59.25,18.76,13.44,32.62,32.28,32.82,32.01.34,64.03.36,96.04-.02,18.37-.22,32.76-14.05,31.13-32.3-1.58-17.75,5.47-26.68,20.35-35.3,60.92-35.29,121-72.03,181.4-108.22,2.45-1.47,4.99-2.79,9.2-5.13Z"/>
  <path class="cls-1" d="M297.71,756.07c-16.87-10.08-33.44-19.94-49.97-29.86-50.12-30.06-100.18-60.23-150.41-90.09-5.88-3.5-8.62-7.15-8.4-14.34.58-18.41.36-36.85.09-55.27-.08-5.28,1.21-8.01,6.94-7.21,1.59.22,3.23.03,4.84.03,185.56,0,371.12.07,556.68-.2,9.03-.01,12.39,1.68,11.9,11.46-.88,17.41-.45,34.9-.13,52.36.1,5.44-1.49,8.73-6.3,11.6-65.73,39.23-131.37,78.62-196.94,118.12-5.61,3.38-7.09,3.13-7.68-3.99-1.29-15.78-13.64-27.7-29.53-27.94-33.29-.51-66.59-.58-99.88,0-17.61.31-27.67,12.29-31.21,35.33Z"/>
  <path class="cls-1" d="M588.39,214.07c.03-7.98-2.55-9.51-9.89-9.48-71.77.25-143.55.15-215.33.15s-143.56.16-215.33-.21c-8.57-.04-10.72,2.13-10.69,10.68.32,95.71.2,191.41.2,287.11,0,25.65,0,25.48,25.41,24.73,5.45-.17,7.37-1.7,7.23-7.22-.33-12.28-.19-24.57-.08-36.86.29-32.89,19.72-52.16,52.78-52.18,104.11-.04,208.22.05,312.33-.09,13.45-.02,25.58,2.89,35.91,11.84,1.6,1.39,3.36,4.09,5.62,1.64,5.03-5.45,11.91-9.03,11.86-18.66-.4-70.48-.35-140.97-.02-211.45ZM234.34,322.12c.26-1.57.04-3.21.04-4.82q0-15.53,15.92-15.53,15.44,0,15.44,15.91,0,16.07-16.3,16.07c-1.28,0-2.61-.2-3.85.03-9.66,1.77-12.75-2.65-11.25-11.66ZM169.43,318c-.02-1.29,0-2.59,0-3.88q.01-12.35,12.64-12.35h3.87q15.76,0,15.76,15.7c0,16.28,0,16.38-16.2,16.25-18.42-.15-15.82,2.46-16.07-15.72ZM555.88,378.39c-.68,19.84-.18,19.85-19.9,19.85h-173.68c-60.81,0-121.61-.16-182.41.19-8.21.05-10.34-2.37-10.19-10.33.41-21.37.05-21.37,21.33-21.37,117.72,0,235.45.11,353.17-.23,9.52-.02,12,2.61,11.68,11.89ZM534.41,333.73h-108.61c-39.12,0-78.23-.15-117.34.15-7.17.05-10.13-1.19-9.96-9.37.47-22.73.05-22.74,22.59-22.74,74.99,0,149.98.13,224.98-.18,8.18-.03,10.35,2.36,10.22,10.34-.37,21.8-.01,21.8-21.88,21.8Z"/>
  <path class="cls-1" d="M797.69,213.68c.04-7.34-1.98-9.19-9.2-9.11-34.92.38-69.86.17-104.79.17q-14.57,0-14.57-14.09c0-34.93-.23-69.87.18-104.8.09-7.6-1.9-9.73-9.61-9.68-50.78.36-101.56.19-152.34.19s-101.57.16-152.35-.19c-7.4-.05-9.24,2.05-9.12,9.22.42,25.23.11,50.46.18,75.69.05,14.27-1.37,12.28,12.45,12.29,83.77.05,167.55.15,251.32-.17,8.27-.03,10.38,2.33,10.05,10.28-.63,15.18.17,30.41-.34,45.6-.24,7,2.24,8.55,8.82,8.5,38.17-.29,76.33-.14,114.5-.14,22.11,0,21.8.01,22.11,22.16.11,7.49-1.8,9.91-9.62,9.82-37.51-.41-75.03-.18-112.55-.18-23.36,0-22.96.01-23.32,23.34-.13,8.21,3.01,9.39,10.1,9.33,37.51-.29,75.03-.13,112.55-.13,22.97,0,22.64,0,22.86,22.56.07,7.42-2.24,9.16-9.35,9.1-41.72-.32-83.45.07-125.17-.34-8.32-.08-11.16,1.78-11,10.64.57,31.04,1.08,62.13-.15,93.13-.58,14.42,3.44,23.73,16.2,30.37,8.48,4.4,24.58-2.03,26.14-11.57,2.66-16.25,5.63-32.45,7.89-48.76.95-6.9,3.87-8.63,10.67-8.56,36.22.38,72.45.02,108.67.32,6.54.06,8.81-1.32,8.78-8.39-.29-58.86-.31-117.73.01-176.6ZM394.65,140.41q-15.61,0-15.61-15.78,0-15.58,15.93-15.58t16.05,16.37q0,14.99-16.37,14.99ZM549.98,140.4h-42.6c-18.71,0-37.43-.19-56.14.11-5.72.1-7.74-1.37-7.85-7.47-.46-23.99-.69-23.98,23.28-23.98,32.27,0,64.54.17,96.8-.14,6.64-.06,8.81,1.68,8.79,8.57-.07,22.91.22,22.91-22.28,22.91ZM636.15,125q0,15.42-19.8,15.41-12.19,0-12.18-18.26c0-13.12,0-13.22,20.33-13.07,13.86.11,11.4-1.88,11.65,15.92Z"/>
  <path class="cls-2" d="M1022.73,659.73c.03-4.74-1.34-6.88-6.25-7.62-14-2.11-27.87-5.12-41.9-6.94-5.79-.75-8.59-3.14-10.17-8.4-3.81-12.73-9.11-24.88-15.49-36.49-2.86-5.2-2.8-8.97,1.04-13.89,8.54-10.92,16.12-22.6,24.41-33.73,3.48-4.67,3.66-7.82-.88-12.24-20.63-20.06-41.02-40.38-61.14-60.95-4.45-4.56-7.39-4.33-12.11-.72-11.03,8.41-22.63,16.07-33.7,24.43-4.45,3.36-8.07,3.82-13.1,1.09-11.36-6.15-23.13-11.68-35.68-14.86-6.88-1.75-9.28-5.99-10.23-12.14-2.04-13.04-4.41-26.03-6.06-39.12-.82-6.5-3.61-8.62-10.07-8.55-28.46.28-56.92.26-85.37,0-6.16-.05-8.63,2.27-9.43,8.17-1.77,13.07-4.15,26.07-6.01,39.13-.95,6.75-3.9,10.71-10.9,12.73-12.09,3.48-23.81,8.29-34.81,14.46-5.35,3.01-9.17,2.33-13.89-1.27-11.29-8.6-23.05-16.59-34.54-24.94-6.28-4.56-8.59-2.4-8.56,4.62.06,11.96.41,23.95-.13,35.89-.32,7.16,2.62,8.58,9.05,8.49,21.33-.32,42.68-.28,64.02-.04,7.54.08,14.56-1.09,21.71-3.65,59.11-21.19,116.38-15.98,168.79,18,62.37,40.44,93.21,99.01,89.9,174.21-1.87,42.47-16.55,80.51-44.46,112.15-50.31,57.02-113.3,79.93-188.76,64.69-6.89-1.39-7.7,1.25-7.6,6.82.21,11.64.06,23.28.07,34.92,0,11.97.18,23.93-.09,35.89-.12,5.35,1.6,7.44,7.18,7.4,28.45-.2,56.91-.19,85.37-.02,5.67.03,7.88-2.09,8.6-7.77,1.65-13.09,4.1-26.08,6.06-39.13.94-6.25,3.6-10.06,10.33-11.82,12.5-3.27,24.35-8.59,35.78-14.63,4.61-2.44,8.1-2.35,12.31.8,11.38,8.49,23.25,16.33,34.48,25,4.94,3.81,7.79,3.37,12.05-.98,20.13-20.58,40.52-40.89,61.02-61.08,4.21-4.14,4.98-6.98.97-12.1-8.95-11.43-16.95-23.59-25.44-35.37-2.44-3.39-3.41-6.3-1.04-10.47,7.04-12.39,12.42-25.55,16.32-39.27,1.32-4.61,3.7-6.54,8.73-7.23,14.67-2.02,29.17-5.13,43.82-7.29,4.7-.69,5.77-2.73,5.76-6.93-.1-29.75-.13-59.5.04-89.25ZM764.6,465.35c.08,15.13,1.52,12.65-15.96,12.89-15.31,0-15.42-.01-15.28-17.47.14-16.46-2.24-13.76,17.92-13.79,15.92-.02,13.22-2.37,13.32,18.37ZM930.56,544.36c-11.53,11.31-11.46,11.38-22.76.08-.68-.68-1.36-1.36-2.05-2.05q-8.96-8.97-.19-17.76,13.53-13.56,27.46.45c2.64,2.67,6.05,4.77,8.06,10.43-3.16,2.63-7.09,5.49-10.52,8.85ZM764.65,946.45q0,14.92-17.77,14.91c-13.56,0-13.67,0-13.51-18.16.13-15.58-2.2-12.88,18.7-12.97,14.79-.07,12.35-1.64,12.58,16.22ZM927.07,889.29c-2.23,2.19-3.95,5.15-7.5,5.92-4-1.66-6.37-5.26-9.29-8.15-12.86-12.7-12.4-12.36-.1-25.79,6.59-7.21,10.6-8.01,17.62-.28,13.17,14.51,13.7,14.08-.73,28.3ZM1006.82,706.81c.1,13.62.01,13.62-18.62,13.61q-13.95,0-13.95-17.31,0-15.28,18.37-15.29c16.77-.02,14.06-.54,14.2,18.99Z"/>
  <path class="cls-2" d="M700.47,704.13c0-25.19.2-50.39-.14-75.58-.08-6.08,2-9.21,7.41-11.77,58.22-27.55,126.89,8.2,136.77,72.4,8.08,52.57-26.76,101.55-80.15,110.49-19.31,3.23-38.54.66-56.63-8.19-5.4-2.64-7.48-5.71-7.4-11.78.33-25.19.14-50.39.14-75.58Z"/>
  <path class="cls-1" d="M378.8,526.91c-55.89,0-111.79-.15-167.68.17-7.6.04-10.02-1.9-9.61-9.6.66-12.24.09-24.55.2-36.82.11-12.12,5.77-18.05,17.62-18.05,106.3-.06,212.59-.06,318.89,0,11.53,0,17.46,5.59,17.78,17.07.36,12.91-.26,25.86.25,38.76.27,6.91-2.13,8.64-8.8,8.61-56.22-.24-112.43-.14-168.65-.14Z"/>
  <path class="cls-1" d="M378.68,1009.88c-92.82,0-185.64-.1-278.46.17-8.35.02-11.68-1.39-11.35-10.79.76-22.06.22-22.08,22.31-22.08,181.76,0,363.52-.01,545.28.02,14.11,0,12.61-1.66,12.66,12.17q.07,20.52-20.71,20.52c-89.91,0-179.82,0-269.73,0Z"/>
  <path class="cls-2" d="M748.96,544.08c44.61-1.87,82.69,14.61,113.51,45.41,65.01,64.97,62.44,166.18,1.28,227.34-43.21,43.21-95.03,55.55-153.9,43.73-7.57-1.52-10.21-4.9-9.49-12.39.74-7.68-2.4-18.46,1.57-22.36,4.41-4.33,13.99,2.29,21.33,3.94,67.91,15.31,139.34-32.05,151.95-100.26,13.98-75.62-37.88-143.48-109.89-152.89-19.12-2.5-37.39-.76-55.18,5.56-8.88,3.15-10.73.67-9.73-7.53.39-3.19.06-6.46.06-9.69q0-16.46,16.69-18.91c4.14-.61,8.25-1.66,12.41-1.87,6.45-.32,12.93-.08,19.39-.08Z"/>
  <path class="cls-1" d="M379.29,817c-13.87,0-27.75-.21-41.62.1-5.9.13-7.83-1.91-7.72-7.82.33-16.77.32-33.56,0-50.33-.11-5.7,2.09-7.04,7.36-7,27.42.2,54.85.25,82.27-.03,6-.06,7.75,1.87,7.63,7.72-.33,16.77-.31,33.56,0,50.33.1,5.62-1.91,7.23-7.28,7.12-13.54-.29-27.1-.1-40.65-.1Z"/>
  <path class="cls-1" d="M700.48,99.39c25.2,25.19,48.91,48.89,74.04,74.01-6.07,0-10.97,0-15.88,0-17.1,0-34.19-.01-51.29,0-3.6,0-7.01.53-6.96-5.1.21-22.45.09-44.91.09-68.92Z"/>
</svg>