<?xml version="1.0" encoding="UTF-8"?>
<svg width="512" height="512" id="Layer_1" xmlns="http://www.w3.org/2000/svg" viewBox="0 0 1080 1080">
  <defs>
    <style>
      .cls-1 {
        fill: #042b62;
      }
    </style>
  </defs>
  <path class="cls-1" d="M803.56,24c7.08,3.84,13.67,8.1,19.19,14.29,53.72,60.28,107.57,120.44,161.53,180.51,15.48,17.24,20.38,36.5,10.64,57.81-9.74,21.29-27.52,30.45-50.64,29.99-9.8-.19-19.64.39-29.42-.17-6.97-.4-10.67,1.14-9.32,8.92.38,2.22.06,4.57.06,6.86,0,209.58,0,419.17,0,628.75,0,48.95-28.96,77.75-78.15,77.75-22.89,0-45.77.08-68.66-.02-42.39-.17-72.92-30.65-72.93-73.09-.06-212.2-.11-424.4.21-636.6.02-10.21-2.47-13.61-12.72-12.64-9.72.93-19.6.3-29.41.18-22.02-.28-38.47-10.09-47.58-30.14-9.15-20.12-5.62-39.07,9.02-55.5,43.49-48.81,87.19-97.45,130.8-146.16,9.16-10.23,18.43-20.36,27.41-30.74,6.61-7.64,13.68-14.67,22.31-20.02h17.66Z"/>
  <path class="cls-1" d="M607.33,715.08c0,79.12.02,158.23,0,237.35-.01,46.95-29.5,76.27-76.66,76.29-23.54.01-47.08.1-70.61-.02-41.76-.21-72.44-30.78-72.46-72.55-.08-160.85-.08-321.69,0-482.54.02-41.95,30.5-72.58,72.18-72.81,25.17-.14,50.34-.14,75.52,0,41.15.24,71.89,30.81,71.98,72.03.18,80.75.05,161.5.05,242.25Z"/>
  <path class="cls-1" d="M89.3,793.21c0-53.61-.04-107.22.01-160.83.04-44.45,30.02-74.52,74.33-74.61,24.19-.05,48.38-.09,72.57.01,41.94.17,72.75,30.49,72.81,72.19.15,108.85.15,217.71,0,326.56-.06,41.26-30.78,71.91-71.87,72.16-25.5.16-50.99.19-76.49,0-40.47-.31-71.19-31.12-71.32-71.7-.17-54.59-.04-109.18-.04-163.77Z"/>
</svg>