<?xml version="1.0" encoding="UTF-8"?>
<svg xmlns="http://www.w3.org/2000/svg" version="1.1" viewBox="0 0 1080 1080">
  <defs>
    <style>
      .cls-1 {
        fill: #1f2f60;
      }

      .cls-2 {
        fill: #e7eaf6;
      }
    </style>
  </defs>
  <!-- Generator: Adobe Illustrator 28.7.1, SVG Export Plug-In . SVG Version: 1.2.0 Build 142)  -->
  <g>
    <g id="Layer_1">
      <g>
        <path class="cls-2" d="M161.6,838.9c-13.8-14.4-23-32-32.8-49.1-25.8-45-42-93.6-51-144.5-5.9-33.3-8.1-67.2-5.8-100.9,3.5-51.5,13.9-101.6,34.3-149.3,16.9-39.3,38-76.2,64.9-109.5,38.9-48.2,85.5-87,140-116.6,47.6-25.9,98.1-42.4,151.5-50,32.1-4.5,64.6-5.4,97.3-2.9,40.6,3.1,79.9,11.2,118.2,24.6,48.3,17,92.4,41.9,132.4,74,40.5,32.6,74.6,70.7,101.8,114.9,30.5,49.7,52,102.9,61.4,160.9,4.9,30.4,8.1,60.9,7,91.6-1.8,49.8-10.5,98.2-28.2,145-14.6,38.6-33.5,74.9-58,108.2-1,1.4-2.6,2.4-3.9,3.6-1.8-2-3.7-4-5.4-6.1-42.9-54.6-95.2-97.9-157.6-128.3-89.3-43.5-183-57.2-281-39.9-85.3,15.1-160.1,51.8-224.7,109.4-22.1,19.7-41.8,41.8-60.3,64.9ZM525.7,598.8c97.2.2,176.3-78.6,176.5-175.5.2-97.2-78.6-176.4-175.5-176.5-97.2-.1-176.3,78.5-176.5,175.5-.1,97.2,78.5,176.3,175.4,176.5Z"/>
        <path class="cls-1" d="M161.6,838.9c18.5-23.1,38.2-45.2,60.3-64.9,64.6-57.6,139.4-94.3,224.7-109.4,98-17.3,191.8-3.6,281,39.9,62.4,30.4,114.7,73.7,157.6,128.3,1.7,2.1,3.6,4.1,5.4,6.1-7.2,13.9-18.1,25.1-28.5,36.5-74.6,80.8-166.3,130.8-275.3,144.2-155.5,19.2-287.7-30.2-395.8-143.6-10.9-11.4-21.6-23.1-29.3-37.1Z"/>
        <path class="cls-1" d="M525.7,598.8c-96.9-.2-175.6-79.3-175.4-176.5.1-96.9,79.2-175.6,176.5-175.5,96.9.1,175.6,79.3,175.5,176.5-.2,96.9-79.3,175.6-176.5,175.5Z"/>
      </g>
    </g>
  </g>
</svg>