<svg xmlns="http://www.w3.org/2000/svg" viewBox="0 0 30.08 16.86"><defs><style>.cls-1{fill:#f49496;}.cls-2{fill:#bcd874;}</style></defs><g id="Layer_2" data-name="Layer 2"><g id="Layer_1-2" data-name="Layer 1"><path class="cls-1" d="M27.21,6.93a2.92,2.92,0,0,0-2.76,2H21.66a.82.82,0,0,0-.75.5l-1.13,2.46L17.7,7a.78.78,0,0,0-.8-.5.87.87,0,0,0-.75.54l-2,5.51L12.52.71a.83.83,0,0,0-.75-.7.8.8,0,0,0-.87.54L7.69,9.18h-2A2.82,2.82,0,0,0,2.89,7a2.88,2.88,0,0,0,0,5.76,2.86,2.86,0,0,0,2.67-1.84H8.23A.85.85,0,0,0,9,10.35l2.25-6.09,1.8,11.89a.8.8,0,0,0,.75.71.84.84,0,0,0,.87-.55l2.38-6.67,2,4.71a.83.83,0,0,0,.75.5.81.81,0,0,0,.75-.5l1.67-3.71h2.25a2.92,2.92,0,0,0,2.76,2,2.88,2.88,0,0,0,0-5.75ZM2.93,11A1.21,1.21,0,1,1,4.14,9.81,1.21,1.21,0,0,1,2.93,11Zm24.28,0a1.21,1.21,0,1,1,1.21-1.21A1.21,1.21,0,0,1,27.21,11Z"/><ellipse class="cls-2" cx="27.2" cy="9.81" rx="2.87" ry="2.89"/><ellipse class="cls-2" cx="2.87" cy="9.81" rx="2.87" ry="2.89"/></g></g></svg>