<?xml version="1.0" encoding="utf-8"?>
<!-- Generator: Adobe Illustrator 22.0.1, SVG Export Plug-In . SVG Version: 6.00 Build 0)  -->
<svg version="1.1" id="Layer_1" xmlns="http://www.w3.org/2000/svg" xmlns:xlink="http://www.w3.org/1999/xlink" x="0px" y="0px"
	 viewBox="0 0 25 25" style="enable-background:new 0 0 25 25;" xml:space="preserve">
<style type="text/css">
	.st0{fill:#889699;}
</style>
<title>Group 69 Copy</title>
<desc>Created with Sketch.</desc>
<g>
	<path class="st0" d="M20.2,15.4L13.8,18l-0.6,0.2c-0.2,0.1-0.4,0.1-0.6,0.1c-0.5,0-1.1,0-1.2,0H7.7c-0.1,0-0.1,0-0.2-0.1
		c-0.1-0.1-0.2-0.1-0.2-0.3c0-0.2,0.2-0.3,0.3-0.3H12c0.3,0,0.6-0.1,0.7-0.3c0.2-0.2,0.3-0.4,0.3-0.6c0,0,0-0.1,0-0.1
		c0-0.5-0.4-0.9-0.9-1c-2.4-0.4-4.7-1-7.1-0.8c-0.1,0-0.9,0-1.4,0.1V21l0,0.5c0.8,0.1,6.5,0.8,6.6,0.8c0.9,0.1,1.8,0.1,2.7-0.4
		c0,0,0,0,0,0c0,0,5.7-3.2,8.2-4.7c0.5-0.3,0.6-1,0.2-1.5C21.1,15.4,20.6,15.2,20.2,15.4z"/>
	<path class="st0" d="M0.7,14.1H3v7.4H0.7V14.1z"/>
	<path class="st0" d="M24.3,4.4C24.2,4.3,23.1,4.9,23,5c-1.2,0.7-2.4,1.4-3.5,2.2c-1.2,0.9-2.4,2.2-3.9,2.6c-1,0.2-2,0-2.7-0.7
		c-0.3,0.5-0.6,1-0.8,1.6v2c0,0.3-0.3,0.6-0.6,0.6l0,0c-0.3,0-0.6-0.3-0.6-0.6v-1.8c-0.2-0.4-0.5-0.8-0.8-1.2
		c-0.5,0.6-1.2,0.9-2,0.8c-1.2-0.1-2.2-1-3.2-1.6C3.9,8.6,3,8.2,2,7.8c-0.1,0-0.9-0.4-1-0.3c0.8-0.8,1.9-1.3,3-1.6
		c2.1-0.7,5.5-1,6.6,1.5c0.1,0.3,0.2,0.6,0.2,1c0,0.1-0.2,0.8-0.2,0.8c0.3,0.3,0.5,0.5,0.7,0.9l0-0.1c0,0,0,0,0,0
		c0.2-0.6,0.6-1.1,0.9-1.6c0,0-0.4-0.9-0.4-1c-0.1-0.4-0.1-0.9,0.1-1.3c0.8-3.5,5.3-3.8,8.2-3.3C21.6,3.1,23.1,3.5,24.3,4.4z"/>
</g>
</svg>
