<?xml version="1.0" encoding="utf-8"?>
<!-- Generator: Adobe Illustrator 22.0.1, SVG Export Plug-In . SVG Version: 6.00 Build 0)  -->
<svg version="1.1" id="Layer_1" xmlns="http://www.w3.org/2000/svg" xmlns:xlink="http://www.w3.org/1999/xlink" x="0px" y="0px"
	 viewBox="0 0 25 25" style="enable-background:new 0 0 25 25;" xml:space="preserve">
<style type="text/css">
	.st0{fill:#889699;}
</style>
<title>Group Copy 5</title>
<desc>Created with Sketch.</desc>
<g>
	<path class="st0" d="M10.3,11.9l-1.7,9.7c0,0.1-0.1,0.2-0.1,0.2c-0.1,0.1-0.3,0-0.4,0c-0.3,0-0.4-0.3-0.4-0.5l1.6-9.5
		c0-0.3,0.3-0.4,0.5-0.4C10.2,11.4,10.3,11.6,10.3,11.9z"/>
	<path class="st0" d="M12.4,6.4c0.5-0.1,1,0,1.5,0.3c0,0,0,0,0,0l0,0l0,0l0,0c3.1,2,3.1,5.2,3,9c0,1.8,0,3.7,0.3,5.6
		c0.1,0.3,0,0.5-0.1,0.7c-0.1,0.2-0.3,0.4-0.6,0.5c-0.3,0.1-0.5,0-0.7-0.1c-0.2-0.1-0.4-0.3-0.5-0.6c0,0,0,0,0-0.1l0.3,0l-0.3,0
		l-0.7-4.9l-0.8,3.6c0,0,0,0,0,0l0,0l-0.4,1.3c-0.1,0.3-0.2,0.5-0.5,0.6c-0.2,0.1-0.5,0.2-0.7,0.1c-0.3-0.1-0.5-0.2-0.6-0.5
		c-0.1-0.2-0.2-0.5-0.1-0.7l0.4-1.3c0,0,0,0,0,0l0.3,0.1l-0.3-0.1c0.3-1,0.7-3.1,0.8-5c0.1-1,0-1.9-0.1-2.8c1.1-0.6,1.8-1.7,1.9-3
		c0.1-0.4,0-0.7-0.2-1c-0.2-0.3-0.5-0.6-0.9-0.6c-0.4-0.1-0.7,0-1.1,0.2C12.2,7.7,12,8,11.9,8.4l0,0.1c-0.1,0.4-0.3,0.8-0.7,1.1
		C11,9.3,10.9,9,10.8,8.7c-0.1-0.5,0-1,0.3-1.5C11.4,6.8,11.9,6.5,12.4,6.4L12.4,6.4z"/>
	<path class="st0" d="M9.7,10.6c0.2-0.2,0.4-0.3,0.7-0.3l0,0l0,0h0c0,0,1.4,0,1.9-1.8l0,0c0.1-0.3,0.2-0.5,0.5-0.6
		c0.2-0.1,0.5-0.2,0.7-0.1l0,0C13.7,7.8,14,8,14.1,8.2c0.1,0.2,0.2,0.5,0.1,0.7l0,0c-0.2,1.7-2.1,3.3-3.9,3.3l0,0l0,0h0h0l0,0
		c-0.3,0-0.5-0.1-0.7-0.3c-0.2-0.2-0.3-0.4-0.3-0.7S9.5,10.8,9.7,10.6z"/>
	<path class="st0" d="M10.4,2.5c0.6,0,1.1,0.2,1.5,0.6c0.4,0.4,0.6,0.9,0.6,1.5c0,0.6-0.2,1.1-0.6,1.5c-0.4,0.4-0.9,0.6-1.5,0.6
		c-0.6,0-1.1-0.2-1.5-0.6C8.5,5.7,8.3,5.2,8.3,4.6c0-0.6,0.2-1.1,0.6-1.5C9.3,2.7,9.8,2.5,10.4,2.5z"/>
</g>
</svg>
