<svg width="35" height="35" viewBox="0 0 35 35" fill="none" xmlns="http://www.w3.org/2000/svg">
<path fill-rule="evenodd" clip-rule="evenodd" d="M1.93457 15.3809V23.748C1.93457 24.9375 2.90527 25.9082 4.09473 25.9082H16.2012C16.2012 22.251 18.2383 19.0654 21.2461 17.4316C20.5693 17.5068 19.8652 17.5684 19.1543 17.6162C18.8535 19.4277 17.2812 20.8018 15.3877 20.8018C13.4941 20.8018 11.9219 19.4209 11.6211 17.6162C7.54688 17.3428 3.88281 16.6182 2.02344 15.4355C1.98926 15.4219 1.96191 15.4014 1.93457 15.3809ZM28.8408 16.748V15.3809C28.8135 15.4014 28.7793 15.4219 28.752 15.4355C28.2324 15.7637 27.5762 16.0576 26.8105 16.3174C27.5078 16.3857 28.1914 16.5361 28.8408 16.748ZM28.1641 14.5127C26.4688 15.5859 23.0303 16.249 19.168 16.5156C18.9355 14.6357 17.3291 13.1729 15.3809 13.1729C13.4326 13.1729 11.8262 14.6289 11.5938 16.5156C7.73828 16.2559 4.2998 15.5928 2.59766 14.5127C2.3584 14.3623 2.13281 14.2051 1.92773 14.0273C1.15527 13.3916 0.615234 12.5986 0.615234 11.5527V6.28223C0.615234 5.67383 1.11426 5.1748 1.72266 5.1748H6.57617V8.77734C6.57617 10.1445 7.69043 11.2588 9.05762 11.2588H21.7041C23.0713 11.2588 24.1855 10.1445 24.1855 8.77734V5.1748H29.0391C29.6475 5.1748 30.1465 5.67383 30.1465 6.28223V11.5527C30.1465 12.5986 29.6064 13.3984 28.8271 14.0342C28.6289 14.2051 28.4033 14.3623 28.1641 14.5127ZM7.67676 5.1748V8.77734C7.67676 9.54297 8.29883 10.165 9.06445 10.165H21.7109C22.4766 10.165 23.0986 9.54297 23.0986 8.77734V5.1748H7.67676ZM12.667 16.9941C12.667 15.4971 13.8838 14.2734 15.3877 14.2734C16.8984 14.2734 18.1084 15.4971 18.1084 16.9941C18.1084 18.498 16.8916 19.7148 15.3877 19.7148C13.8838 19.7148 12.667 18.4912 12.667 16.9941ZM25.8398 17.3633C30.5566 17.3633 34.3848 21.1914 34.3848 25.9082C34.3848 30.625 30.5566 34.4531 25.8398 34.4531C21.123 34.4531 17.2949 30.625 17.2949 25.9082C17.2949 21.1914 21.1162 17.3633 25.8398 17.3633ZM25.8398 18.833C27.7949 18.833 29.5586 19.626 30.8369 20.9043C32.1152 22.1826 32.9082 23.9531 32.9082 25.9014C32.9082 27.8496 32.1152 29.6201 30.8369 30.8984C29.5586 32.1768 27.7881 32.9697 25.8398 32.9697C23.8916 32.9697 22.1211 32.1768 20.8428 30.8984C19.5645 29.6201 18.7715 27.8496 18.7715 25.9014C18.7715 23.9531 19.5645 22.1826 20.8428 20.9043C22.1143 19.626 23.8848 18.833 25.8398 18.833ZM30.0645 21.6836C31.1445 22.7637 31.8145 24.2607 31.8145 25.9082C31.8145 27.5557 31.1445 29.0527 30.0645 30.1328C28.9844 31.2129 27.4873 31.8828 25.8398 31.8828C24.1924 31.8828 22.6953 31.2129 21.6152 30.1328C20.5352 29.0527 19.8652 27.5557 19.8652 25.9082C19.8652 24.2607 20.5352 22.7637 21.6152 21.6836C22.6953 20.6035 24.1924 19.9336 25.8398 19.9336C27.4873 19.9336 28.9844 20.5967 30.0645 21.6836ZM21.1504 4.08105V2.85742C21.1504 1.58594 20.1113 0.546875 18.8398 0.546875H11.9355C10.6641 0.546875 9.625 1.58594 9.625 2.85742V4.07422H11.6758V2.85742C11.6758 2.71387 11.7988 2.59082 11.9424 2.59082H18.8467C18.9902 2.59082 19.1133 2.71387 19.1133 2.85742V4.07422H21.1504V4.08105ZM28.3145 22.7842H23.3584V23.7686H25.1084C25.751 23.7686 26.2979 24.1787 26.5029 24.7529H23.3652V25.7373H26.5029C26.2979 26.3115 25.751 26.7217 25.1084 26.7217H23.3584V27.7061L26.2432 30.5908L26.9404 29.8936L24.7529 27.7061H25.1084C26.2979 27.7061 27.2891 26.8584 27.5215 25.7373H28.3145V24.7529H27.5215C27.4463 24.3906 27.2959 24.0557 27.0771 23.7686H28.3145V22.7842Z" fill="#042b62"/>
</svg>
