<svg width="20" height="20" viewBox="0 0 20 20" fill="none" xmlns="http://www.w3.org/2000/svg">
<g clip-path="url(#clip0_1_4461)">
<path fill-rule="evenodd" clip-rule="evenodd" d="M11.0683 15.7389L10.3677 13.1245C10.6079 13.0632 10.8306 12.9421 11.0148 12.7695C11.097 12.6926 11.1877 12.6682 11.2974 12.6938C12.056 12.8708 12.8236 12.4299 13.053 11.6857L13.9334 14.9712L12.284 14.5459L11.0682 15.7389L11.0683 15.7389ZM9.39387 4.50063C9.1657 4.71438 8.87125 4.79328 8.5668 4.72223C8.11203 4.61617 7.65242 4.88148 7.51695 5.32836C7.42621 5.62754 7.21066 5.84309 6.91148 5.93383C6.46461 6.06934 6.19926 6.52895 6.30535 6.98367C6.37637 7.28813 6.29746 7.58258 6.08375 7.81074C5.76438 8.15168 5.76438 8.68211 6.08375 9.02305C6.2975 9.25121 6.37641 9.54566 6.30535 9.85012C6.19926 10.3049 6.46461 10.7645 6.91148 10.9C7.21066 10.9907 7.42625 11.2063 7.51695 11.5054C7.65246 11.9523 8.11203 12.2177 8.5668 12.1116C8.87125 12.0405 9.1657 12.1194 9.39387 12.3332C9.73481 12.6525 10.2652 12.6525 10.6061 12.3332C10.8343 12.1194 11.1287 12.0405 11.4332 12.1116C11.888 12.2177 12.3476 11.9523 12.483 11.5054C12.5738 11.2063 12.7893 10.9907 13.0885 10.9C13.5354 10.7645 13.8007 10.3048 13.6946 9.85012C13.6236 9.54566 13.7025 9.25121 13.9163 9.02305C14.2357 8.68211 14.2357 8.15168 13.9163 7.81074C13.7025 7.58258 13.6236 7.28813 13.6946 6.98367C13.8007 6.52891 13.5354 6.06934 13.0885 5.93383C12.7893 5.84309 12.5738 5.62754 12.483 5.32836C12.3475 4.88148 11.8879 4.61613 11.4332 4.72223C11.1287 4.79324 10.8343 4.71438 10.6061 4.50063C10.2652 4.18125 9.73477 4.18125 9.39387 4.50063ZM10 6.17688L10.6595 7.74574L12.3554 7.88816L11.0671 9.0002L11.4557 10.6571L9.99996 9.77551L8.54426 10.6571L8.93285 9.0002L7.64457 7.88816L9.34043 7.74574L9.99992 6.17688H10ZM8.93168 15.7389L7.71594 14.546L6.06656 14.9713L6.94691 11.6857C7.17637 12.4299 7.94398 12.8708 8.70254 12.6939C8.81219 12.6683 8.90297 12.6926 8.98512 12.7696C9.16937 12.9422 9.39199 13.0632 9.63219 13.1245L8.93164 15.739L8.93168 15.7389ZM10 0.0195312C4.48793 0.0195312 0.0195312 4.48793 0.0195312 10C0.0195312 15.5121 4.48793 19.9805 10 19.9805C15.5121 19.9805 19.9805 15.5121 19.9805 10C19.9805 4.48793 15.5121 0.0195312 10 0.0195312Z" fill="#042b62"/>
</g>
<defs>
<clipPath id="clip0_1_4461">
<rect width="20" height="20" fill="white"/>
</clipPath>
</defs>
</svg>
