<svg width="20" height="20" viewBox="0 0 20 20" fill="none" xmlns="http://www.w3.org/2000/svg">
<path d="M10.5913 11.0237V15.2276L14.2321 13.1256L10.5913 11.0237Z" fill="#042b62"/>
<path d="M11.1821 9.9999L14.8229 12.1019V7.89795L11.1821 9.9999Z" fill="#042b62"/>
<path d="M10.5913 8.97645L14.2321 6.87445L10.5913 4.77246V8.97645Z" fill="#042b62"/>
<path d="M9.4093 11.0237L5.76855 13.1256L9.4093 15.2276V11.0237Z" fill="#042b62"/>
<path d="M5.76855 6.87445L9.40934 8.97645V4.77246L5.76855 6.87445Z" fill="#042b62"/>
<path d="M8.81848 9.9999L5.17773 7.89795V12.1019L8.81848 9.9999Z" fill="#042b62"/>
<path d="M4.58639 6.19211L9.40908 3.40773V0L1.63525 4.48824L4.58639 6.19211Z" fill="#042b62"/>
<path d="M15.414 13.8079L10.5913 16.5922V19.9999L18.3651 15.5117L15.414 13.8079Z" fill="#042b62"/>
<path d="M16.0049 7.21559V12.7843L18.9561 14.4882V5.51172L16.0049 7.21559Z" fill="#042b62"/>
<path d="M10.5913 3.40773L15.414 6.19211L18.3651 4.48824L10.5913 0V3.40773Z" fill="#042b62"/>
<path d="M9.40908 16.5922L4.58643 13.8079L1.63525 15.5117L9.40908 19.9999V16.5922Z" fill="#042b62"/>
<path d="M3.99561 12.7843V7.21559L1.04443 5.51172V14.4882L3.99561 12.7843Z" fill="#042b62"/>
</svg>
