<svg width="20" height="20" viewBox="0 0 20 20" fill="none" xmlns="http://www.w3.org/2000/svg">
<g clip-path="url(#clip0_1_4019)">
<path d="M16.3866 6.7285L19.0053 5.6438C18.6008 4.81256 18.0843 4.04559 17.4759 3.36206L15.4727 5.36531C15.8265 5.78173 16.134 6.2387 16.3866 6.7285Z" fill="#042b62"/>
<path d="M2.843 10.5952H0.00878906C0.302212 15.648 4.36071 19.7065 9.41352 19.9999V17.1657C5.92064 16.882 3.12669 14.0881 2.843 10.5952Z" fill="#042b62"/>
<path d="M10.5864 17.1658V20C12.9052 19.8654 15.0144 18.9378 16.6467 17.4849L14.6435 15.4817C13.5304 16.4276 12.1265 17.0407 10.5864 17.1658Z" fill="#042b62"/>
<path d="M9.99994 2.8278C11.7691 2.8278 13.3905 3.47126 14.6435 4.53595L16.6467 2.5327C14.8777 0.958227 12.5488 0 9.99994 0C4.67798 0 0.313472 4.17544 0.00878906 9.42236H2.84304C3.14241 5.73599 6.23779 2.8278 9.99994 2.8278Z" fill="#042b62"/>
<path d="M17.157 9.42231H19.9913C19.9368 8.48359 19.7523 7.57928 19.4557 6.72693L16.8369 7.81167C17.0025 8.32592 17.1118 8.86518 17.157 9.42231Z" fill="#042b62"/>
<path d="M15.4727 14.6523L17.4759 16.6555C18.9287 15.0232 19.8562 12.914 19.9909 10.5952H17.1567C17.0316 12.1352 16.4185 13.5392 15.4727 14.6523Z" fill="#042b62"/>
<path d="M16.0079 10.0088C16.0079 6.69596 13.3126 4.00073 9.99976 4.00073C6.68689 4.00073 3.9917 6.69596 3.9917 10.0088C3.9917 13.3217 6.68692 16.0169 9.9998 16.0169C13.3127 16.0169 16.0079 13.3217 16.0079 10.0088ZM7.94843 13.2331H6.77552V12.0602H7.94843V13.2331ZM7.94843 10.5953H6.77552V9.42238H7.94843V10.5953ZM7.94843 7.95746H6.77552V6.78455H7.94843V7.95746ZM13.297 13.2331H9.34032V12.0602H13.297V13.2331ZM13.297 10.5953H9.34032V9.42238H13.297V10.5953ZM13.297 7.95746H9.34032V6.78455H13.297V7.95746Z" fill="#042b62"/>
</g>
<defs>
<clipPath id="clip0_1_4019">
<rect width="20" height="20" fill="white"/>
</clipPath>
</defs>
</svg>
