<?xml version="1.0" encoding="UTF-8"?>
<svg width="3334" height="2555" id4="Layer_1" xmlns="http://www.w3.org/2000/svg" xmlns:xlink="http://www.w3.org/1999/xlink" viewBox="0 0 1080 1080">
  <defs>
    <style>
      .cls-1 {
        fill: #042b62;
      }

      .cls-2 {
        font-family: MyriadPro-Regular, 'Myriad Pro';
        font-size: 5.1px;
      }

      .cls-2, .cls-3, .cls-4 {
        fill: #fff;
      }

      .cls-4 {
        stroke-width: 33px;
      }

      .cls-4, .cls-5 {
        stroke: #042b62;
        stroke-miterlimit: 10;
      }

      .cls-5 {
        fill: none;
        stroke-linecap: round;
      }
    </style>
  </defs>
  <rect class="cls-4" x="76" y="110" width="928" height="928" rx="79.4" ry="79.4"/>
  <image width="1008" height="986" transform="translate(127.46 170.48) scale(.82)" xlink:href="../../../../Downloads/Screenshot 2024-09-30 at 3.58.26 PM.png"/>
  <g>
    <rect class="cls-3" x="164" y="237.18" width="32" height="29.82"/>
    <g>
      <path class="cls-1" d="M175.73,257.24c0,1.63-1.48,2.95-3.32,2.95s-3.32-1.32-3.32-2.95c0-1.16.75-2.16,1.85-2.65v-.02c-.52-.66-1.42-1.89-1.11-2.25.1-.12.39-.23,1.48.25.48.31.79.31.98.25.23-.08.32-.24.74-.49.2-.12.38-.2.49-.25.67-.23.92-.06.98,0,.37.33.18,1.34-.59,2.53,1.09.56,1.81,1.57,1.81,2.63Z"/>
      <text class="cls-2" transform="translate(171.15 259.01)"><tspan x="0" y="0">₹</tspan></text>
      <circle class="cls-1" cx="180.65" cy="247.16" r="2.7"/>
      <path class="cls-1" d="M185.24,254.67c-.28.19-.66.13-.86-.15l-1.53-2.2v4.68h-.49v4.3c0,.34-.28.61-.61.61s-.61-.28-.61-.61v-4.3h-.74v4.3c0,.34-.28.61-.61.61s-.61-.28-.61-.61v-4.3h-.74v-4.58l-1.59,1.78c-.23.25-.61.28-.87.05-.14-.12-.21-.29-.21-.46,0-.15.05-.29.16-.41l2.28-2.56c.07-.08.16-.14.26-.17.42-.32,1.3-.54,2.31-.54,1.18,0,2.17.3,2.48.71.08.04.14.1.19.18l1.95,2.82c.19.28.12.66-.15.86Z"/>
      <path class="cls-5" d="M184.58,255.52s-.2-.55.1-.95c.13-.17.29-.25.39-.28.08.01.31.06.49.25.29.29.25.68.25.74v6.39"/>
    </g>
  </g>
</svg>