<svg width="32" height="32" viewBox="0 0 32 32" fill="none" xmlns="http://www.w3.org/2000/svg">
<g clip-path="url(#clip0_58_16)">
<path d="M25.82 0H11.67C11.4887 0.0102293 11.3182 0.0895249 11.1936 0.221583C11.069 0.353642 10.9997 0.528426 11 0.71V31.83H26.53V0.71C26.53 0.521696 26.4552 0.341105 26.322 0.207954C26.1889 0.0748034 26.0083 0 25.82 0Z" fill="#042b62"/>
<path d="M5.30914 9.89993C5.22426 9.88804 5.14642 9.84626 5.08959 9.7821C5.03276 9.71794 5.00069 9.63562 4.99914 9.54993V5.30993C4.99045 5.25832 4.99311 5.20544 5.00695 5.15496C5.02079 5.10449 5.04546 5.05764 5.07925 5.01768C5.11305 4.97771 5.15515 4.9456 5.20262 4.92357C5.2501 4.90155 5.30181 4.89014 5.35414 4.89014C5.40648 4.89014 5.45818 4.90155 5.50566 4.92357C5.55313 4.9456 5.59523 4.97771 5.62903 5.01768C5.66282 5.05764 5.6875 5.10449 5.70133 5.15496C5.71517 5.20544 5.71783 5.25832 5.70914 5.30993V9.54993C5.70966 9.60042 5.69925 9.65042 5.67862 9.69651C5.65799 9.7426 5.62764 9.78367 5.58964 9.81692C5.55164 9.85017 5.50689 9.87481 5.45848 9.88913C5.41006 9.90346 5.35911 9.90714 5.30914 9.89993Z" fill="#042b62"/>
<path d="M11 9.19978V31.8298H0.71C0.617237 31.8311 0.525135 31.814 0.43905 31.7794C0.352964 31.7448 0.274612 31.6935 0.208548 31.6283C0.142484 31.5632 0.0900265 31.4856 0.0542245 31.4C0.0184225 31.3144 -9.46346e-06 31.2226 3.64504e-09 31.1298L3.64504e-09 9.89978C-9.46346e-06 9.80701 0.0184225 9.71516 0.0542245 9.62957C0.0900265 9.54398 0.142484 9.46637 0.208548 9.40123C0.274612 9.3361 0.352964 9.28475 0.43905 9.25016C0.525135 9.21558 0.617237 9.19845 0.71 9.19978H11Z" fill="#E2E2E2" stroke="#939393" stroke-width="0.25"/>
<path d="M1.76953 11H4.59953V13.83H1.76953V11Z" fill="white"/>
<path d="M6.36914 11H9.19914V13.83H6.36914V11Z" fill="white"/>
<path d="M1.76953 15.5601H4.59953V18.3901H1.76953V15.5601Z" fill="white"/>
<path d="M6.36914 15.5601H9.19914V18.3901H6.36914V15.5601Z" fill="white"/>
<path d="M1.76953 20.1602H4.59953V23.0002H1.76953V20.1602Z" fill="white"/>
<path d="M6.36914 20.1602H9.19914V23.0002H6.36914V20.1602Z" fill="white"/>
<path d="M12.7305 1.77002H15.5605V4.60002H12.7305V1.77002Z" fill="white"/>
<path d="M17.3301 1.77002H20.1601V4.60002H17.3301V1.77002Z" fill="white"/>
<path d="M21.9297 1.77002H24.7597V4.60002H21.9297V1.77002Z" fill="white"/>
<path d="M12.7305 6.37012H15.5605V9.20012H12.7305V6.37012Z" fill="white"/>
<path d="M17.3301 6.37012H20.1601V9.20012H17.3301V6.37012Z" fill="white"/>
<path d="M21.9297 6.37012H24.7597V9.20012H21.9297V6.37012Z" fill="white"/>
<path d="M12.7305 11H15.5605V13.83H12.7305V11Z" fill="white"/>
<path d="M17.3301 11H20.1601V13.83H17.3301V11Z" fill="white"/>
<path d="M21.9297 11H24.7597V13.83H21.9297V11Z" fill="white"/>
<path d="M12.7305 15.5601H15.5605V18.3901H12.7305V15.5601Z" fill="white"/>
<path d="M17.3301 15.5601H20.1601V18.3901H17.3301V15.5601Z" fill="white"/>
<path d="M21.9297 15.5601H24.7597V18.3901H21.9297V15.5601Z" fill="white"/>
<path d="M27.9406 23.6998C27.8469 23.6972 27.7579 23.6581 27.6925 23.5909C27.6271 23.5236 27.5906 23.4335 27.5906 23.3398V22.2798C27.588 21.9994 27.4755 21.7313 27.2773 21.5331C27.0791 21.3349 26.8109 21.2224 26.5306 21.2198H24.4006C24.1203 21.2224 23.8522 21.3349 23.654 21.5331C23.4557 21.7313 23.3432 21.9994 23.3406 22.2798V23.3398C23.3406 23.4326 23.3038 23.5216 23.2381 23.5873C23.1725 23.6529 23.0835 23.6898 22.9906 23.6898C22.8978 23.6898 22.8088 23.6529 22.7431 23.5873C22.6775 23.5216 22.6406 23.4326 22.6406 23.3398V22.2798C22.6406 21.8121 22.8257 21.3634 23.1555 21.0317C23.4853 20.7001 23.9329 20.5124 24.4006 20.5098H26.5306C26.9992 20.5124 27.4479 20.6997 27.7793 21.0311C28.1107 21.3625 28.298 21.8111 28.3006 22.2798V23.3398C28.3006 23.4352 28.2627 23.5268 28.1952 23.5943C28.1277 23.6618 28.0361 23.6998 27.9406 23.6998Z" fill="#EAEAEA" stroke="#939393" stroke-width="0.25"/>
<path d="M31.1296 31.8298H19.8096C19.7168 31.8312 19.6247 31.814 19.5387 31.7795C19.4526 31.7449 19.3742 31.6935 19.3082 31.6284C19.2421 31.5633 19.1896 31.4856 19.1538 31.4001C19.118 31.3145 19.0996 31.2226 19.0996 31.1298V24.0498C19.0996 23.9566 19.118 23.8643 19.1537 23.7781C19.1893 23.692 19.2416 23.6137 19.3076 23.5478C19.3735 23.4819 19.4518 23.4296 19.5379 23.3939C19.624 23.3582 19.7164 23.3398 19.8096 23.3398H31.1296C31.2224 23.3398 31.3142 23.3583 31.3998 23.3941C31.4854 23.4299 31.563 23.4823 31.6282 23.5484C31.6933 23.6145 31.7446 23.6928 31.7792 23.7789C31.8138 23.865 31.8309 23.9571 31.8296 24.0498V31.1298C31.8296 31.3155 31.7559 31.4935 31.6246 31.6248C31.4933 31.7561 31.3153 31.8298 31.1296 31.8298Z" fill="#E2E2E2" stroke="#939393" stroke-width="0.25"/>
<path d="M31.1296 31.8299H19.8096C19.7168 31.8312 19.6247 31.8141 19.5387 31.7795C19.4526 31.7449 19.3742 31.6936 19.3082 31.6284C19.2421 31.5633 19.1896 31.4857 19.1538 31.4001C19.118 31.3145 19.0996 31.2227 19.0996 31.1299V26.8799H31.8296V31.1299C31.8296 31.3155 31.7559 31.4936 31.6246 31.6249C31.4933 31.7561 31.3153 31.8299 31.1296 31.8299Z" fill="#042b62"/>
<path d="M21.5801 26.1699H23.0001V27.9399H21.5801V26.1699Z" fill="#EAEAEA"/>
<path d="M27.9395 26.1699H29.3595V27.9399H27.9395V26.1699Z" fill="#EAEAEA"/>
<path d="M21.2196 31.83C21.2196 31.2677 20.9963 30.7285 20.5987 30.3309C20.2011 29.9333 19.6619 29.71 19.0996 29.71V31.13C19.0996 31.2227 19.118 31.3146 19.1538 31.4002C19.1896 31.4858 19.2421 31.5634 19.3082 31.6285C19.3742 31.6936 19.4526 31.745 19.5387 31.7796C19.6247 31.8142 19.7168 31.8313 19.8096 31.83H21.2196Z" fill="#E2E2E2"/>
<path d="M29.7109 31.83C29.7109 31.2677 29.9343 30.7285 30.3319 30.3309C30.7295 29.9333 31.2687 29.71 31.8309 29.71V31.13C31.8309 31.3156 31.7572 31.4937 31.6259 31.6249C31.4946 31.7562 31.3166 31.83 31.1309 31.83H29.7109Z" fill="#E2E2E2"/>
<path d="M4.94027 1.68001C4.97488 1.64307 5.01669 1.61363 5.06314 1.5935C5.10958 1.57337 5.15965 1.56299 5.21027 1.56299C5.26088 1.56299 5.31096 1.57337 5.3574 1.5935C5.40384 1.61363 5.44566 1.64307 5.48027 1.68001C6.0226 2.28471 6.31298 3.07402 6.29182 3.88602C6.27067 4.69802 5.93959 5.47115 5.36651 6.04679C4.79342 6.62244 4.02178 6.95696 3.20988 6.98173C2.39798 7.0065 1.60738 6.71964 1.00027 6.18001C0.962187 6.14715 0.931633 6.10647 0.91069 6.06074C0.889747 6.01501 0.878906 5.9653 0.878906 5.91501C0.878906 5.86471 0.889747 5.815 0.91069 5.76927C0.931633 5.72354 0.962187 5.68286 1.00027 5.65001L4.94027 1.68001Z" fill="#042b62"/>
<path d="M13.0899 31.8298V24.7598C13.0886 24.667 13.1057 24.5749 13.1403 24.4889C13.1749 24.4028 13.2262 24.3244 13.2914 24.2584C13.3565 24.1923 13.4341 24.1398 13.5197 24.104C13.6053 24.0682 13.6971 24.0498 13.7899 24.0498H16.6199C16.8082 24.0498 16.9888 24.1246 17.122 24.2578C17.2551 24.3909 17.3299 24.5715 17.3299 24.7598V31.8298H13.0899Z" fill="white"/>
<path d="M23.0007 25.8198H21.5807C21.4869 25.8198 21.3968 25.8563 21.3296 25.9217C21.2624 25.9871 21.2233 26.0761 21.2207 26.1698V27.9398C21.2207 28.0353 21.2586 28.1269 21.3261 28.1944C21.3937 28.2619 21.4852 28.2998 21.5807 28.2998H21.9307V28.9998C21.922 29.0514 21.9247 29.1043 21.9385 29.1548C21.9523 29.2053 21.977 29.2521 22.0108 29.2921C22.0446 29.332 22.0867 29.3642 22.1342 29.3862C22.1817 29.4082 22.2334 29.4196 22.2857 29.4196C22.338 29.4196 22.3897 29.4082 22.4372 29.3862C22.4847 29.3642 22.5268 29.332 22.5606 29.2921C22.5944 29.2521 22.6191 29.2053 22.6329 29.1548C22.6467 29.1043 22.6494 29.0514 22.6407 28.9998V28.2998H23.0007C23.0475 28.2998 23.0939 28.2905 23.137 28.2723C23.1801 28.254 23.2192 28.2274 23.2518 28.1938C23.2844 28.1602 23.31 28.1205 23.327 28.0768C23.344 28.0332 23.352 27.9866 23.3507 27.9398V26.1698C23.3507 26.077 23.3138 25.988 23.2482 25.9223C23.1826 25.8567 23.0935 25.8198 23.0007 25.8198ZM22.6507 27.5898H21.9407V26.5298H22.6507V27.5898Z" fill="white"/>
<path d="M29.3598 25.8198H27.9398C27.847 25.8198 27.758 25.8567 27.6924 25.9223C27.6267 25.988 27.5898 26.077 27.5898 26.1698V27.9398C27.5898 28.0336 27.6264 28.1237 27.6917 28.1909C27.7571 28.2581 27.8461 28.2972 27.9398 28.2998H28.2998V28.9998C28.2985 29.0466 28.3066 29.0932 28.3236 29.1368C28.3405 29.1805 28.3661 29.2202 28.3988 29.2538C28.4314 29.2874 28.4704 29.314 28.5136 29.3323C28.5567 29.3505 28.603 29.3598 28.6498 29.3598C28.7436 29.3572 28.8326 29.3181 28.898 29.2509C28.9633 29.1837 28.9999 29.0936 28.9998 28.9998V28.2998H29.3598C29.4536 28.2972 29.5426 28.2581 29.608 28.1909C29.6733 28.1237 29.7099 28.0336 29.7098 27.9398V26.1698C29.7098 26.077 29.673 25.988 29.6073 25.9223C29.5417 25.8567 29.4527 25.8198 29.3598 25.8198ZM28.9998 27.5898H28.2998V26.5298H28.9998V27.5898Z" fill="white"/>
</g>
<defs>
<clipPath id="clip0_58_16">
<rect width="31.83" height="31.83" fill="white"/>
</clipPath>
</defs>
</svg>
