<?xml version="1.0" encoding="UTF-8"?>
<svg width="23" height="22" id="Layer_1" xmlns="http://www.w3.org/2000/svg" viewBox="0 0 1080 1080">
  <defs>
    <style>
      .cls-1 {
        fill: none;
        stroke: #042b62;
        stroke-linecap: round;
        stroke-linejoin: round;
        stroke-width: 54px;
      }
    </style>
  </defs>
  <g id="tabler:search">
    <path id="Vector" class="cls-1" d="M868,895.81l-228.23-228.23M183.3,477.38c0,34.97,6.89,69.59,20.27,101.9,13.38,32.31,32.99,61.66,57.72,86.38,24.73,24.73,54.08,44.34,86.38,57.72,32.31,13.38,66.93,20.27,101.9,20.27s69.59-6.88,101.9-20.27,61.66-32.99,86.38-57.72c24.73-24.72,44.34-54.08,57.72-86.38,13.38-32.31,20.27-66.93,20.27-101.9s-6.89-69.59-20.27-101.9c-13.38-32.31-32.99-61.66-57.72-86.38-24.72-24.73-54.08-44.34-86.38-57.72-32.31-13.38-66.93-20.27-101.9-20.27s-69.59,6.89-101.9,20.27c-32.31,13.38-61.66,32.99-86.38,57.72-24.73,24.73-44.34,54.08-57.72,86.38-13.38,32.31-20.27,66.93-20.27,101.9Z"/>
  </g>
</svg>