<svg xmlns="http://www.w3.org/2000/svg" viewBox="0 0 30.04 30.03"><defs><style>.cls-1{fill:#bcd874;}.cls-2{fill:#b5cd6a;}.cls-3{fill:#f6ddca;}.cls-4{fill:#eacec1;}.cls-5{fill:#f49496;}.cls-6{fill:#ee888e;}.cls-7{fill:#fff;}</style></defs><g id="Layer_2" data-name="Layer 2"><g id="Layer_1-2" data-name="Layer 1"><path class="cls-1" d="M24.85,19.5a1.24,1.24,0,0,0-.18-.64L23.52,17a2,2,0,0,1-.22-.92V10.36a6.73,6.73,0,0,0-6.73-6.74H13.46a6.73,6.73,0,0,0-6.73,6.74v5.72a2,2,0,0,1-.22.92L5.36,18.86a1.24,1.24,0,0,0-.18.64h0a1.21,1.21,0,0,0,1.2,1.21H23.65A1.21,1.21,0,0,0,24.85,19.5Z"/><path class="cls-1" d="M16.57,3.62l2.15-3A.39.39,0,0,0,18.4,0H11.63a.39.39,0,0,0-.32.61l2.15,3v1h3.11Z"/><path class="cls-2" d="M24.67,18.86,23.52,17a2,2,0,0,1-.22-.92V10.36a6.78,6.78,0,0,0-1.41-4.15,20.32,20.32,0,0,1-10.83,14.5H23.65a1.21,1.21,0,0,0,1-1.85Z"/><path class="cls-3" d="M29.81,18.06a1.56,1.56,0,0,0-2.07-.57l-7.35,3.14a1.15,1.15,0,0,1-.41.08H10.9a1.05,1.05,0,0,1-1.06-1.06,1,1,0,0,1,1-1H15a3.1,3.1,0,0,0,3-2.32.63.63,0,0,0-.61-.79H9.51A4.68,4.68,0,0,0,5.84,17.3L2.59,21.23l3.65,6.7,14.07-3.38a7.64,7.64,0,0,0,1.75-.64l7.25-3.72A1.56,1.56,0,0,0,29.81,18.06Z"/><path class="cls-4" d="M5.08,25.8l1.16,2.13,14.07-3.38a7.64,7.64,0,0,0,1.75-.64l3.92-2C19.47,23.88,10.82,25.13,5.08,25.8Z"/><path class="cls-5" d="M0,21.12V30H6.39A.83.83,0,0,0,7,29.79L7.81,29a.82.82,0,0,0,.11-1l-5.37-8a.82.82,0,0,0-1.17-.2l-1.06.8A.81.81,0,0,0,0,21.12Z"/><path class="cls-6" d="M0,30H6.73l1.55-1.55L7.15,26.77A37.2,37.2,0,0,1,0,28.9Z"/><circle class="cls-7" cx="4.66" cy="27.44" r="1.04"/><path class="cls-7" d="M17.18,10.28a.17.17,0,0,0-.12,0h-.84a1.69,1.69,0,0,0-.31-.71h1.14a.16.16,0,0,0,.12,0,.15.15,0,0,0,0-.11v-.5a.14.14,0,0,0-.16-.16H13a.14.14,0,0,0-.16.16v.65a.13.13,0,0,0,0,.11.14.14,0,0,0,.11,0h.71c.69,0,1.13.18,1.32.55H13a.17.17,0,0,0-.12,0,.14.14,0,0,0,0,.11v.5a.14.14,0,0,0,0,.11.17.17,0,0,0,.12.05h2.09a1,1,0,0,1-.5.61,2.21,2.21,0,0,1-1,.21H13a.14.14,0,0,0-.11.05.13.13,0,0,0,0,.11v.62a.14.14,0,0,0,0,.11c.63.67,1.45,1.61,2.45,2.81a.14.14,0,0,0,.12.06h1a.13.13,0,0,0,.14-.09.12.12,0,0,0,0-.17c-.95-1.17-1.7-2-2.25-2.63a2.51,2.51,0,0,0,1.35-.54,1.87,1.87,0,0,0,.64-1.15h.82a.17.17,0,0,0,.12-.05.14.14,0,0,0,0-.11v-.5A.14.14,0,0,0,17.18,10.28Z"/></g></g></svg>