<svg xmlns="http://www.w3.org/2000/svg" viewBox="0 0 15.98 27.1"><defs><style>.cls-1{fill:#bcd874;}.cls-2{fill:#fff;}.cls-3{fill:#eaeaea;}.cls-4{fill:#f49496;}</style></defs><g id="Layer_2" data-name="Layer 2"><g id="Layer_1-2" data-name="Layer 1"><path class="cls-1" d="M16,25.13V2a2,2,0,0,0-2-2H2A2,2,0,0,0,0,2V25.13a1.94,1.94,0,0,0,.57,1.39A2,2,0,0,0,2,27.1H14a1.95,1.95,0,0,0,2-2Zm-7.06.19H7.06a.67.67,0,0,1-.47-.19.69.69,0,0,1-.19-.46A.67.67,0,0,1,7.06,24H8.91a.67.67,0,0,1,.66.66A.66.66,0,0,1,8.91,25.32ZM2.62,22.16V2.63H13.35V22.16Z"/><path class="cls-2" d="M8.91,3.64H7.06a.66.66,0,0,0-.66.65A.65.65,0,0,0,7.06,5H8.91a.66.66,0,1,0,0-1.31Z"/><path class="cls-2" d="M8.92,24H7.07a.66.66,0,0,0-.65.66.65.65,0,0,0,.65.65H8.92a.65.65,0,0,0,.66-.65A.66.66,0,0,0,8.92,24Z"/><circle class="cls-3" cx="8" cy="24.64" r="1.55"/><circle class="cls-2" cx="8" cy="24.64" r="1.38"/><rect class="cls-4" x="2.37" y="2.3" width="11.19" height="20.17" rx="0.87"/><path class="cls-2" d="M8.91,3.64H7.06a.66.66,0,0,0-.66.65A.65.65,0,0,0,7.06,5H8.91a.66.66,0,1,0,0-1.31Z"/></g></g></svg>