<?xml version="1.0" encoding="UTF-8"?>
<svg id="Layer_1" xmlns="http://www.w3.org/2000/svg" viewBox="0 0 1080 1080">
  <defs>
    <style>
      .cls-1 {
        fill: #042b62;
        isolation: isolate;
      }
    </style>
  </defs>
  <path class="cls-1" d="M977,945.59c-65.1-.07-130.19-.32-195.29,0-8.79.04-10.98-2.23-10.96-10.98.27-183.78.27-367.56,0-551.33-.01-8.82,2.24-11,10.99-10.94,62.07.4,124.14.21,186.21.23,3.02,0,6.04.24,9.05.37v572.64Z"/>
  <path class="cls-1" d="M690.31,754.73c0,60.26-.15,120.51.18,180.76.04,7.93-1.89,10.13-9.99,10.08-62.38-.36-124.76-.29-187.14-.06-6.78.03-9.26-1.23-9.24-8.78.26-121.42.24-242.84.03-364.26-.01-6.97,1.56-9.15,8.89-9.12,62.68.31,125.36.31,188.04,0,7.74-.04,9.42,2.34,9.39,9.7-.29,60.56-.16,121.12-.16,181.67Z"/>
  <path class="cls-1" d="M704.26,127.74c55.81,0,109.73.04,163.65-.08,4.76-.01,7.08.85,7.06,6.4-.18,54.17-.11,108.34-.11,162.62-3.78.45-4.95-2.54-6.7-4.28-17.01-16.84-34.06-33.64-50.72-50.81-4.16-4.29-6.31-4.02-10.51.02-74.02,71.17-148.22,142.17-222.38,213.2-13.34,12.78-26.93,25.32-39.9,38.47-4.77,4.83-7.24,4.82-11.97-.15-39.69-41.68-79.79-82.96-119.44-124.68-5.22-5.5-7.73-5.49-13.05-.07-100.73,102.75-201.75,205.23-302.45,308.01-6.21,6.34-9.58,7.45-15.9.3-9.41-10.64-19.84-20.44-30.35-30.02-4.84-4.41-4.28-6.73.07-11.12,41.83-42.14,83.4-84.53,125.05-126.85,74.79-76,149.63-151.96,224.27-228.12,4.8-4.9,7.28-5.43,12.33-.13,40.52,42.55,81.44,84.73,122.04,127.21,3.77,3.94,5.68,4.43,9.87.4,72.49-69.7,145.12-139.26,217.88-208.68,4.73-4.52,5.48-6.99.34-11.95-18.76-18.08-36.98-36.7-55.39-55.14-.99-.99-1.78-2.18-3.68-4.54Z"/>
  <path class="cls-1" d="M404.17,800.32c0,45.42-.17,90.84.17,136.26.06,7.31-2.11,8.98-9.15,8.95-62.68-.27-125.37-.28-188.05,0-7.41.03-9.76-1.77-9.74-9.49.26-90.84.27-181.68,0-272.53-.02-7.51,2.48-8.85,9.29-8.82,62.68.24,125.37.27,188.05-.03,7.4-.03,9.69,1.64,9.62,9.39-.39,45.42-.19,90.84-.19,136.26Z"/>
</svg>