<?xml version="1.0" encoding="utf-8"?>
<!-- Generator: Adobe Illustrator 24.2.3, SVG Export Plug-In . SVG Version: 6.00 Build 0)  -->
<svg fill="#042b62" version="1.1" id="Layer_1" xmlns="http://www.w3.org/2000/svg" xmlns:xlink="http://www.w3.org/1999/xlink" x="0px" y="0px"
	 viewBox="0 0 512 512" style="enable-background:new 0 0 512 512;" xml:space="preserve">
<g id="_x30_9">
	<path d="M64,272H32v192h32c8.8,0,16-7.2,16-16V288C80,279.2,72.8,272,64,272z"/>
	<path d="M461.7,293.4c-11.6-6.9-25.6-7.2-37.4-0.8l-104.8,56.3c-2.4,19.7-19.1,35.1-39.5,35.1h-64.3c-4.4,0-8-3.6-8-8
		c0-4.4,3.6-8,8-8H280c13.2,0,24-10.8,24-24c0-13-10.4-23.5-23.3-23.9c-4.8-0.1-82.1-0.1-82.1-0.1l-27.3-27.3c-3-3-7.1-4.7-11.3-4.7
		H96v160h28.3l51.8,16c21.5,6.9,44.5,16,70,16c23,0,45.7-7.6,65.3-22.7l152.4-100.8c10.2-7,16.3-18.6,16.3-30.9
		C480,312.3,473.1,300.2,461.7,293.4z"/>
	<path d="M462.6,169.4c-2.6-5.7-8.3-9.4-14.6-9.4h-48V48c0-8.8-7.2-16-16-16h-96c-8.8,0-16,7.2-16,16v112h-48
		c-6.3,0-12,3.7-14.6,9.4c-2.6,5.7-1.6,12.4,2.5,17.1l112,128c3,3.5,7.4,5.5,12,5.5s9-2,12-5.5l112-128
		C464.2,181.8,465.2,175.1,462.6,169.4z M372.2,70.6h-18.1c3.1,4.2,5.4,9.1,6.5,14.4h11.6v14.4h-11.6c-3.3,16.4-17.9,28.8-35.3,28.8
		h-5.2l32,32L342,170.4l-42.2-42.2v-14.4h25.6c9.4,0,17.4-6,20.4-14.4h-45.9V85h45.9c-3-8.4-11-14.4-20.4-14.4h-25.6V56.2h72.5V70.6
		z"/>
	<path d="M112,256c44.1,0,80-35.9,80-80s-35.9-80-80-80s-80,35.9-80,80S67.9,256,112,256z M80,168h28.7l29.7-29.7
		c3.1-3.1,8.2-3.1,11.3,0s3.1,8.2,0,11.3l-32,32c-1.5,1.5-3.5,2.3-5.7,2.3H80c-4.4,0-8-3.6-8-8S75.6,168,80,168z"/>
</g>
</svg>
