<svg width="50" height="50" viewBox="0 0 50 50" fill="none" xmlns="http://www.w3.org/2000/svg">
<circle cx="25" cy="25" r="25" fill="white"/>
<path fill-rule="evenodd" clip-rule="evenodd" d="M14.2432 14.2432C19.9008 8.5856 29.0737 8.5856 34.7313 14.2432C40.1512 19.6631 40.3789 28.3092 35.4144 34.0002L39.7071 38.2929C40.0976 38.6834 40.0976 39.3166 39.7071 39.7071C39.3166 40.0976 38.6834 40.0976 38.2929 39.7071L34.0002 35.4144C28.3092 40.3789 19.6631 40.1512 14.2432 34.7313C8.5856 29.0737 8.5856 19.9008 14.2432 14.2432ZM33.3171 15.6575C28.4405 10.7809 20.534 10.7809 15.6575 15.6575C10.7809 20.534 10.7809 28.4405 15.6575 33.3171C20.534 38.1937 28.4405 38.1937 33.3171 33.3171C38.1937 28.4405 38.1937 20.534 33.3171 15.6575Z" fill="#042b62"/>
<path fill-rule="evenodd" clip-rule="evenodd" d="M17.5 22.5C17.5 20.8431 18.8431 19.5 20.5 19.5H21C21 17.8431 22.3431 16.5 24 16.5H25C26.6568 16.5 28 17.8431 28 19.5H28.5C30.1568 19.5 31.5 20.8431 31.5 22.5V27.5C31.5 29.1568 30.1568 30.5 28.5 30.5H20.5C18.8431 30.5 17.5 29.1568 17.5 27.5V22.5ZM20.5 21.5C19.9477 21.5 19.5 21.9477 19.5 22.5V27.5C19.5 28.0523 19.9477 28.5 20.5 28.5H28.5C29.0523 28.5 29.5 28.0523 29.5 27.5V22.5C29.5 21.9477 29.0523 21.5 28.5 21.5H20.5ZM26 19.5C26 18.9477 25.5523 18.5 25 18.5H24C23.4477 18.5 23 18.9477 23 19.5H26Z" fill="#005478"/>
</svg>
