<svg width="50" height="50" viewBox="0 0 50 50" fill="none" xmlns="http://www.w3.org/2000/svg">
<circle cx="25" cy="25" r="25" fill="white"/>
<path fill-rule="evenodd" clip-rule="evenodd" d="M25 10C16.7157 10 10 16.7157 10 25V35C10 37.4853 12.0147 39.5 14.5 39.5C16.9853 39.5 19 37.4853 19 35V30C19 27.5147 16.9853 25.5 14.5 25.5C13.5749 25.5 12.715 25.7792 12 26.2577V25C12 17.8203 17.8203 12 25 12C32.1797 12 38 17.8203 38 25V26.2577C37.285 25.7792 36.4251 25.5 35.5 25.5C33.0147 25.5 31 27.5147 31 30V35C31 37.4853 33.0147 39.5 35.5 39.5C37.9853 39.5 40 37.4853 40 35V25C40 16.7157 33.2843 10 25 10ZM35.5 27.5C36.8807 27.5 38 28.6193 38 30V35C38 36.3807 36.8807 37.5 35.5 37.5C34.1193 37.5 33 36.3807 33 35V30C33 28.6193 34.1193 27.5 35.5 27.5ZM12 30V35C12 36.3807 13.1193 37.5 14.5 37.5C15.8807 37.5 17 36.3807 17 35V30C17 28.6193 15.8807 27.5 14.5 27.5C13.1193 27.5 12 28.6193 12 30Z" fill="#042b62"/>
<path d="M26 26C26 25.4477 25.5523 25 25 25C24.4477 25 24 25.4477 24 26V39C24 39.5523 24.4477 40 25 40C25.5523 40 26 39.5523 26 39V26Z" fill="#005478"/>
<path d="M28 28C28.5523 28 29 28.4477 29 29V36C29 36.5523 28.5523 37 28 37C27.4477 37 27 36.5523 27 36V29C27 28.4477 27.4477 28 28 28Z" fill="#005478"/>
<path d="M23 29C23 28.4477 22.5523 28 22 28C21.4477 28 21 28.4477 21 29V36C21 36.5523 21.4477 37 22 37C22.5523 37 23 36.5523 23 36V29Z" fill="#005478"/>
</svg>
