<svg version="1.2" xmlns="http://www.w3.org/2000/svg" viewBox="0 0 729 255" width="135" height="47">
	<title>fintooinvestlogo-svg</title>
	<style>
		.s0 { fill: #1f3060 } 
		.s1 { fill: #c7beb8 } 
		.s2 { fill: #d0cbc8 } 
		.s3 { fill: #f68638 } 
		.s4 { fill: #f7f6f6 } 
		.s5 { fill: #43271e } 
		.s6 { fill: #f68522 } 
	</style>
	<g>
		<g id="Layer_1">
			<g>
				<path class="s0" d="m55 113.8h28.7c7.1 0 12.9-5.8 12.9-12.9v-11.7h-28.7c-7.1 0-12.9 5.8-12.9 12.9z"/>
				<path class="s0" d="m50.8 31.5c-15.6 0-28.2 12.6-28.2 28.2v106.3h1.4c15.2 0 27.6-11.7 28.8-26.6v-51.5c0-0.2 0-0.3 0.1-0.5v-15.7c0-8.6 7-15.6 15.6-15.6h7.6c13.4 0 24.2-10.8 24.2-24.2v-0.5h-49.6z"/>
			</g>
			<path class="s0" d="m129.6 166h-4.2v-107.5c0-14.9 12.1-27.1 27.1-27.1h3.2v108.4c0 14.4-11.7 26.1-26.1 26.1z"/>
			<path class="s0" d="m277.1 166h-3l-55.4-84.5c-3.3-4.9-5.5-8.7-6.8-11.2h-0.4c0.5 4.8 0.8 12 0.8 21.8v49.6c0 13.4-10.9 24.3-24.3 24.3h-4.3v-103.3c0-17.2 14-31.2 31.2-31.2h1.4l53.4 81.9c2.4 3.7 4.7 7.3 6.8 11h0.4c-0.5-3.1-0.8-9.3-0.8-18.5v-49.8c0-13.6 11-24.6 24.6-24.6h4v106.9c0 15.3-12.4 27.6-27.6 27.6z"/>
			<path class="s0" d="m405 56.2h-17.6v82.2c0 15.3-12.4 27.7-27.7 27.7h-2.7v-109.9h-38.2v-4c0-11.4 9.3-20.7 20.7-20.7h86.2v4c0 11.4-9.3 20.7-20.7 20.7z"/>
			<path fill-rule="evenodd" class="s0" d="m643.9 168.4c-19.3 0-35-6.3-47.1-18.8-12.1-12.5-18.2-28.9-18.2-49 0-20.1 6.2-38.5 18.5-51.6 12.3-13.1 28.6-19.7 49-19.7 20.4 0 34.7 6.3 46.6 18.9 11.9 12.6 17.8 29.1 17.8 49.7 0 20.6-6.1 38.2-18.4 51.1-12.3 12.9-28.3 19.4-48.1 19.4zm1.3-113.1c-10.6 0-19.1 4-25.3 12-6.3 8-9.4 18.5-9.4 31.7 0 13.2 3.1 23.9 9.4 31.6 6.3 7.8 14.4 11.6 24.6 11.6 10.2 0 18.7-3.8 24.9-11.3 6.1-7.5 9.2-18 9.2-31.4 0-13.4-3-24.8-8.9-32.6-5.9-7.8-14.1-11.6-24.4-11.6z"/>
			<g>
				<g>
					<path class="s1" d="m499 28.8c-0.3 0.2-0.6 0.1-1 0.3 0 0 0-0.2 0-0.3z"/>
					<path class="s2" d="m500.2 28.8c0 0.2-0.6 0.1-1.2 0.1 0-0.1 1.2-0.1 1.2-0.1z"/>
					<path class="s3" d="m502.4 28.9c15.3 0.8 29.3 6.7 40 17.7 13.5 13.9 18.7 32.1 18.4 51.3l-31.4 0.5c-0.1-20-7.8-41.8-30.7-43.2l-0.2-0.2c-0.2-7.3 0-14.6-0.3-21.9 0-1.3 0-2.5-0.1-3.7 0 0 0-0.2 0-0.3 0.3-0.1 0.6-0.1 1-0.1 0.7 0 1.2 0.1 1.2-0.1h0.1c0.2 0.3 1.2 0 2 0.1z"/>
					<path class="s4" d="m502.4 28.8c-0.8 0-1.8 0.3-2 0z"/>
					<path class="s5" d="m529.4 98.4l-9.5-8.9c0.2-13.3-4.9-29.8-19.4-33.2-1.5-0.4-4.7-0.6-4.8-0.9 0.2-4.2-0.5-18.2-0.1-20.6 0-0.4 2.1-4.5 2.6-5.5 0.2 1.3 0.1 2.5 0.1 3.7 0.2 7.3 0.1 14.6 0.3 21.9l0.2 0.2c22.9 1.4 30.6 23.1 30.7 43.2z"/>
				</g>
				<path class="s0" d="m527.5 103.6c-0.6 11.3-3.6 20.3-9.1 27-6.1 7.5-14.4 11.3-24.9 11.3-10.5 0-18.3-3.9-24.6-11.6-6.3-7.8-9.4-18.3-9.4-31.6 0-13.3 3.1-23.7 9.4-31.7 5.7-7.3 13.3-11.2 22.7-11.9v-26.1c-18.7 0.7-33.9 7.3-45.5 19.6-12.3 13.1-18.5 30.3-18.5 51.6 0 21.3 6.1 36.5 18.2 49 12.1 12.5 27.8 18.8 47.1 18.8 19.3 0 35.8-6.5 48.1-19.4 11.1-11.7 17.1-26.7 18.2-45h-31.8z"/>
			</g>
			<g>
				<path class="s6" d="m507.6 200.2c-1.3 0-2.5-0.4-3.4-1.2-0.9-0.8-1.4-2-1.4-3.5 0-1.5 0.5-2.5 1.5-3.4 1-0.9 2.1-1.3 3.4-1.3 1.3 0 2.3 0.4 3.3 1.2 1 0.8 1.4 2 1.4 3.5 0 1.5-0.5 2.6-1.4 3.5-0.9 0.9-2.1 1.2-3.3 1.2zm4.7 9.9v27.7c0 1.9-0.5 3.4-1.4 4.4-0.9 1-2.1 1.5-3.5 1.5-1.4 0-2.5-0.5-3.4-1.5-0.9-1-1.3-2.4-1.3-4.3v-27.5c0-1.9 0.4-3.3 1.3-4.3 0.9-1 2-1.4 3.4-1.4 1.4 0 2.6 0.5 3.5 1.4 0.9 0.9 1.4 2.3 1.4 4z"/>
				<path class="s6" d="m531 210v1.2c1.7-2.2 3.5-3.9 5.5-4.9 2-1 4.3-1.6 6.9-1.6 2.6 0 4.8 0.6 6.8 1.7 2 1.1 3.5 2.7 4.5 4.7 0.6 1.2 1 2.4 1.2 3.8 0.2 1.4 0.3 3.1 0.3 5.2v17.9c0 1.9-0.4 3.4-1.3 4.4-0.9 1-2 1.5-3.4 1.5-1.4 0-2.6-0.5-3.5-1.5-0.9-1-1.3-2.4-1.3-4.3v-16c0-3.2-0.4-5.6-1.3-7.3-0.9-1.7-2.6-2.5-5.3-2.5-2.7 0-3.3 0.5-4.7 1.5-1.4 1-2.4 2.4-3.1 4.2-0.5 1.4-0.7 4.1-0.7 8v12c0 1.9-0.5 3.4-1.4 4.4-0.9 1-2.1 1.5-3.5 1.5-1.4 0-2.5-0.5-3.4-1.5-0.9-1-1.3-2.4-1.3-4.3v-27.7c0-1.8 0.4-3.2 1.2-4.1 0.8-0.9 1.9-1.4 3.3-1.4 1.4 0 1.6 0.2 2.3 0.6 0.7 0.4 1.2 1 1.6 1.8 0.4 0.8 0.6 1.8 0.6 2.9z"/>
				<path class="s6" d="m571.6 210.7l7.8 21.8 8.4-22.7c0.7-1.8 1.3-3.1 1.9-3.9 0.6-0.8 1.6-1.1 2.9-1.1 1.3 0 2.3 0.4 3.1 1.2 0.8 0.8 1.3 1.8 1.3 2.8 0 1 0 0.9-0.2 1.5-0.2 0.6-0.3 1.1-0.5 1.6-0.2 0.5-0.4 1.1-0.7 1.7l-9.2 22.9c-0.3 0.7-0.6 1.5-1 2.5-0.4 1-0.9 1.9-1.4 2.6-0.5 0.7-1.1 1.3-1.9 1.7-0.8 0.4-1.6 0.6-2.7 0.6-1.1 0-2.4-0.3-3.3-0.9-0.9-0.6-1.4-1.3-1.8-2-0.4-0.7-1-2.2-2-4.4l-9.1-22.6c-0.2-0.6-0.4-1.1-0.7-1.7-0.3-0.6-0.4-1.1-0.6-1.7-0.2-0.6-0.2-1.1-0.2-1.5 0-0.7 0.2-1.3 0.6-2 0.4-0.7 0.9-1.2 1.7-1.6 0.8-0.4 1.5-0.6 2.3-0.6 1.6 0 2.7 0.5 3.3 1.4 0.6 0.9 1.3 2.4 2 4.6z"/>
				<path fill-rule="evenodd" class="s6" d="m629.6 226.6h-18.8c0 2.2 0.5 4.1 1.3 5.8 0.8 1.7 2 2.9 3.4 3.8 1.4 0.9 3 1.3 4.7 1.3 1.7 0 2.2-0.1 3.1-0.4 0.9-0.3 1.9-0.7 2.8-1.3 0.9-0.6 1.7-1.2 2.5-1.8 0.8-0.6 1.7-1.5 2.9-2.7q0.7-0.6 2.1-0.6c0.9 0 1.8 0.3 2.4 0.8 0.6 0.5 0.9 1.3 0.9 2.3 0 1-0.3 1.9-1 3-0.7 1.1-1.7 2.3-3.1 3.3-1.4 1-3.1 2-5.2 2.7-2.1 0.7-4.5 1.1-7.2 1.1-6.2 0-11-1.8-14.4-5.3-3.4-3.5-5.1-8.3-5.1-14.3 0-6 0.4-5.5 1.3-7.9 0.9-2.4 2.1-4.5 3.7-6.2 1.6-1.7 3.6-3.1 6-4 2.4-0.9 5-1.4 7.9-1.4 2.9 0 7 0.8 9.7 2.4 2.7 1.6 4.7 3.6 6 6.1 1.3 2.5 2 5.1 2 7.7 0 2.6-0.7 4-2.1 4.7-1.4 0.7-3.3 1.1-5.8 1.1zm-1.3-5.5c-0.2-3.3-1.1-5.7-2.7-7.4-1.6-1.7-3.6-2.4-6.1-2.4-2.5 0-4.4 0.8-5.9 2.5-1.5 1.7-2.5 4.1-2.8 7.3z"/>
				<path class="s6" d="m676.5 231.2c0 2.6-0.6 4.9-1.9 6.8-1.3 1.9-3.2 3.3-5.7 4.3-2.5 1-5.6 1.5-9.2 1.5-3.6 0-6.4-0.5-8.9-1.6-2.5-1.1-4.3-2.4-5.4-4-1.1-1.6-1.8-3.2-1.8-4.8 0-1.6 0.4-2 1.1-2.7 0.7-0.7 1.7-1.1 2.8-1.1 1.1 0 1.8 0.2 2.3 0.7 0.5 0.5 1.1 1.2 1.5 2.1 1 1.7 2.2 3 3.5 3.8 1.3 0.8 3.2 1.3 5.6 1.3 2.4 0 3.5-0.4 4.7-1.3 1.2-0.9 1.8-1.8 1.8-2.9 0-1.7-0.6-2.9-1.9-3.7-1.3-0.8-3.4-1.5-6.3-2.2-3.3-0.8-6-1.7-8.1-2.6-2.1-0.9-3.7-2.1-5-3.6-1.3-1.5-1.9-3.3-1.9-5.4 0-2.1 0.6-3.7 1.7-5.4 1.1-1.7 2.8-3.1 5.1-4.1 2.3-1 4.9-1.5 8.1-1.5 3.2 0 4.7 0.3 6.7 0.8 2 0.5 3.6 1.2 5 2.1 1.4 0.9 2.3 1.8 3 2.9 0.7 1.1 1 2.1 1 3.1 0 1-0.4 2-1.1 2.7-0.7 0.7-1.8 1.1-3.1 1.1-1.3 0-1.8-0.3-2.5-0.8-0.7-0.5-1.5-1.4-2.4-2.5-0.7-0.9-1.6-1.7-2.6-2.2-1-0.5-2.3-0.8-4-0.8-1.7 0-3.2 0.4-4.3 1.1-1.1 0.7-1.7 1.7-1.7 2.8 0 1.1 0.4 1.8 1.3 2.5 0.9 0.7 2 1.2 3.4 1.6 1.4 0.4 3.4 0.9 5.9 1.5 3 0.7 5.4 1.6 7.3 2.6 1.9 1 3.3 2.2 4.3 3.6 1 1.4 1.5 2.9 1.5 4.7z"/>
				<path class="s6" d="m685.2 205.5h1.1v-5.8c0-1.5 0-2.8 0.1-3.6 0.1-0.8 0.3-1.6 0.7-2.3 0.4-0.7 0.9-1.2 1.6-1.6q1.1-0.6 2.4-0.6c0.9 0 2.3 0.5 3.3 1.4 1 0.9 1.1 1.4 1.2 2.2 0.1 0.8 0.3 2.1 0.3 3.7v6.5h3.5c1.4 0 2.4 0.3 3.1 1 0.7 0.7 1.1 1.5 1.1 2.5 0 1-0.5 2.2-1.5 2.7-1 0.5-2.5 0.8-4.4 0.8h-1.8v17.6c0 1.5 0 2.7 0.2 3.5 0.2 0.8 0.4 1.5 0.8 2 0.4 0.5 1.2 0.8 2.2 0.8 1 0 1.3 0 2.3-0.3 1-0.3 1.7-0.3 2.2-0.3q1.2 0 2.1 0.9c0.6 0.6 0.9 1.4 0.9 2.3 0 1.5-0.8 2.7-2.5 3.6-1.7 0.9-4.1 1.2-7.3 1.2-3.2 0-5.3-0.5-6.8-1.5-1.5-1-2.6-2.4-3-4.2-0.4-1.8-0.7-4.2-0.7-7.1v-18.4h-1.3c-1.4 0-2.4-0.3-3.2-1-0.8-0.7-1.1-1.5-1.1-2.5 0-1 0.4-1.8 1.1-2.5 0.7-0.7 1.9-1 3.3-1z"/>
			</g>
		</g>
	</g>
</svg>