<svg width="24" height="24" viewBox="0 0 24 24" fill="none" xmlns="http://www.w3.org/2000/svg">
<g clip-path="url(#clip0_73_2)">
<path d="M1.52588e-05 18C1.52588e-05 18.7072 0.280967 19.3855 0.781064 19.8856C1.28116 20.3857 1.95944 20.6666 2.66668 20.6666H21.3333C22.0406 20.6666 22.7189 20.3857 23.219 19.8856C23.7191 19.3855 24 18.7072 24 18V14.6666H1.52588e-05V18Z" fill="#138808"/>
<path d="M24 9.33337V6.00004C24 5.2928 23.7191 4.61452 23.219 4.11442C22.7189 3.61433 22.0406 3.33337 21.3333 3.33337H2.66668C1.95944 3.33337 1.28116 3.61433 0.781064 4.11442C0.280967 4.61452 1.52588e-05 5.2928 1.52588e-05 6.00004L1.52588e-05 9.33337H24Z" fill="#FF9933"/>
<path d="M1.52588e-05 9.11133H24V14.8893H1.52588e-05V9.11133Z" fill="#F7F7F7"/>
<path d="M12 14.6667C13.4728 14.6667 14.6667 13.4728 14.6667 12C14.6667 10.5273 13.4728 9.33337 12 9.33337C10.5273 9.33337 9.33334 10.5273 9.33334 12C9.33334 13.4728 10.5273 14.6667 12 14.6667Z" fill="#000080"/>
<path d="M12 14.25C13.2427 14.25 14.25 13.2426 14.25 12C14.25 10.7574 13.2427 9.75 12 9.75C10.7574 9.75 9.75002 10.7574 9.75002 12C9.75002 13.2426 10.7574 14.25 12 14.25Z" fill="#F7F7F7"/>
<path d="M12.0667 11.1667L12 11.6L11.9334 11.1667L12 9.8667L12.0667 11.1667ZM11.448 9.93937L11.72 11.212L11.8967 11.6134L11.8487 11.178L11.448 9.93937ZM10.9334 10.1527L11.5254 11.3114L11.8 11.6534L11.6414 11.2447L10.9334 10.1527ZM10.4914 10.4914L11.3634 11.458L11.7174 11.7174L11.458 11.3634L10.4914 10.4914ZM10.1527 10.9334L11.2447 11.6414L11.6534 11.8L11.3113 11.5254L10.1527 10.9334ZM9.93935 11.448L11.178 11.8487L11.6134 11.8967L11.212 11.72L9.93935 11.448ZM9.86668 12L11.1667 12.0667L11.6 12L11.1667 11.9334L9.86668 12ZM9.93935 12.552L11.212 12.28L11.6134 12.1034L11.178 12.1514L9.93935 12.552ZM10.1527 13.0667L11.3113 12.4747L11.6534 12.2L11.2447 12.3587L10.1527 13.0667ZM10.4914 13.5087L11.458 12.6367L11.7174 12.2827L11.3634 12.542L10.4914 13.5087ZM10.9334 13.8474L11.6414 12.7554L11.8 12.3467L11.5254 12.6887L10.9334 13.8474ZM11.448 14.0607L11.8487 12.822L11.8967 12.3867L11.72 12.788L11.448 14.0607ZM12 14.1334L12.0667 12.8334L12 12.4L11.9334 12.8334L12 14.1334ZM12.552 14.0607L12.28 12.788L12.1034 12.3867L12.1513 12.822L12.552 14.0607ZM13.0667 13.8474L12.4747 12.6887L12.2 12.3467L12.3587 12.7554L13.0667 13.8474ZM13.5087 13.5087L12.6367 12.542L12.2827 12.2827L12.542 12.6367L13.5087 13.5087ZM13.8474 13.0667L12.7553 12.3587L12.3467 12.2L12.6887 12.4747L13.8474 13.0667ZM14.0607 12.552L12.822 12.1514L12.3867 12.1034L12.788 12.28L14.0607 12.552ZM14.1334 12L12.8334 11.9334L12.4 12L12.8334 12.0667L14.1334 12ZM14.0607 11.448L12.788 11.72L12.3867 11.8967L12.822 11.8487L14.0607 11.448ZM13.8474 10.9334L12.6887 11.5254L12.3467 11.8L12.7553 11.6414L13.8474 10.9334ZM13.5087 10.4914L12.542 11.3634L12.2827 11.7174L12.6367 11.458L13.5087 10.4914ZM13.0667 10.1527L12.3587 11.2447L12.2 11.6534L12.4747 11.3114L13.0667 10.1527ZM12.552 9.93937L12.1513 11.178L12.1034 11.6134L12.28 11.212L12.552 9.93937Z" fill="#6666B3"/>
<path d="M11.7067 9.90595C11.7803 9.90595 11.84 9.84625 11.84 9.77262C11.84 9.69898 11.7803 9.63928 11.7067 9.63928C11.633 9.63928 11.5733 9.69898 11.5733 9.77262C11.5733 9.84625 11.633 9.90595 11.7067 9.90595Z" fill="#000080"/>
<path d="M11.14 10.0579C11.2137 10.0579 11.2733 9.99823 11.2733 9.92459C11.2733 9.85096 11.2137 9.79126 11.14 9.79126C11.0664 9.79126 11.0067 9.85096 11.0067 9.92459C11.0067 9.99823 11.0664 10.0579 11.14 10.0579Z" fill="#000080"/>
<path d="M10.632 10.3507C10.7056 10.3507 10.7653 10.291 10.7653 10.2173C10.7653 10.1437 10.7056 10.084 10.632 10.084C10.5584 10.084 10.4987 10.1437 10.4987 10.2173C10.4987 10.291 10.5584 10.3507 10.632 10.3507Z" fill="#000080"/>
<path d="M10.2173 10.7653C10.291 10.7653 10.3507 10.7056 10.3507 10.632C10.3507 10.5584 10.291 10.4987 10.2173 10.4987C10.1437 10.4987 10.084 10.5584 10.084 10.632C10.084 10.7056 10.1437 10.7653 10.2173 10.7653Z" fill="#000080"/>
<path d="M9.92468 11.2733C9.99832 11.2733 10.058 11.2136 10.058 11.1399C10.058 11.0663 9.99832 11.0066 9.92468 11.0066C9.85105 11.0066 9.79135 11.0663 9.79135 11.1399C9.79135 11.2136 9.85105 11.2733 9.92468 11.2733Z" fill="#000080"/>
<path d="M9.77268 11.8399C9.84632 11.8399 9.90601 11.7802 9.90601 11.7066C9.90601 11.6329 9.84632 11.5732 9.77268 11.5732C9.69904 11.5732 9.63934 11.6329 9.63934 11.7066C9.63934 11.7802 9.69904 11.8399 9.77268 11.8399Z" fill="#000080"/>
<path d="M9.77268 12.4266C9.84632 12.4266 9.90601 12.3669 9.90601 12.2932C9.90601 12.2196 9.84632 12.1599 9.77268 12.1599C9.69904 12.1599 9.63934 12.2196 9.63934 12.2932C9.63934 12.3669 9.69904 12.4266 9.77268 12.4266Z" fill="#000080"/>
<path d="M9.92468 12.9932C9.99832 12.9932 10.058 12.9335 10.058 12.8599C10.058 12.7863 9.99832 12.7266 9.92468 12.7266C9.85105 12.7266 9.79135 12.7863 9.79135 12.8599C9.79135 12.9335 9.85105 12.9932 9.92468 12.9932Z" fill="#000080"/>
<path d="M10.2173 13.5013C10.291 13.5013 10.3507 13.4416 10.3507 13.368C10.3507 13.2943 10.291 13.2346 10.2173 13.2346C10.1437 13.2346 10.084 13.2943 10.084 13.368C10.084 13.4416 10.1437 13.5013 10.2173 13.5013Z" fill="#000080"/>
<path d="M10.632 13.916C10.7056 13.916 10.7653 13.8563 10.7653 13.7826C10.7653 13.709 10.7056 13.6493 10.632 13.6493C10.5584 13.6493 10.4987 13.709 10.4987 13.7826C10.4987 13.8563 10.5584 13.916 10.632 13.916Z" fill="#000080"/>
<path d="M11.14 14.2086C11.2137 14.2086 11.2733 14.1489 11.2733 14.0752C11.2733 14.0016 11.2137 13.9419 11.14 13.9419C11.0664 13.9419 11.0067 14.0016 11.0067 14.0752C11.0067 14.1489 11.0664 14.2086 11.14 14.2086Z" fill="#000080"/>
<path d="M11.7067 14.3607C11.7803 14.3607 11.84 14.301 11.84 14.2273C11.84 14.1537 11.7803 14.094 11.7067 14.094C11.633 14.094 11.5733 14.1537 11.5733 14.2273C11.5733 14.301 11.633 14.3607 11.7067 14.3607Z" fill="#000080"/>
<path d="M12.2933 14.3607C12.367 14.3607 12.4267 14.301 12.4267 14.2273C12.4267 14.1537 12.367 14.094 12.2933 14.094C12.2197 14.094 12.16 14.1537 12.16 14.2273C12.16 14.301 12.2197 14.3607 12.2933 14.3607Z" fill="#000080"/>
<path d="M12.86 14.2086C12.9337 14.2086 12.9934 14.1489 12.9934 14.0752C12.9934 14.0016 12.9337 13.9419 12.86 13.9419C12.7864 13.9419 12.7267 14.0016 12.7267 14.0752C12.7267 14.1489 12.7864 14.2086 12.86 14.2086Z" fill="#000080"/>
<path d="M13.368 13.916C13.4417 13.916 13.5013 13.8563 13.5013 13.7826C13.5013 13.709 13.4417 13.6493 13.368 13.6493C13.2944 13.6493 13.2347 13.709 13.2347 13.7826C13.2347 13.8563 13.2944 13.916 13.368 13.916Z" fill="#000080"/>
<path d="M13.7827 13.5013C13.8563 13.5013 13.916 13.4416 13.916 13.368C13.916 13.2943 13.8563 13.2346 13.7827 13.2346C13.709 13.2346 13.6493 13.2943 13.6493 13.368C13.6493 13.4416 13.709 13.5013 13.7827 13.5013Z" fill="#000080"/>
<path d="M14.0754 12.9932C14.149 12.9932 14.2087 12.9335 14.2087 12.8599C14.2087 12.7863 14.149 12.7266 14.0754 12.7266C14.0017 12.7266 13.942 12.7863 13.942 12.8599C13.942 12.9335 14.0017 12.9932 14.0754 12.9932Z" fill="#000080"/>
<path d="M14.2273 12.4266C14.301 12.4266 14.3607 12.3669 14.3607 12.2932C14.3607 12.2196 14.301 12.1599 14.2273 12.1599C14.1537 12.1599 14.094 12.2196 14.094 12.2932C14.094 12.3669 14.1537 12.4266 14.2273 12.4266Z" fill="#000080"/>
<path d="M14.2273 11.8399C14.301 11.8399 14.3607 11.7802 14.3607 11.7066C14.3607 11.6329 14.301 11.5732 14.2273 11.5732C14.1537 11.5732 14.094 11.6329 14.094 11.7066C14.094 11.7802 14.1537 11.8399 14.2273 11.8399Z" fill="#000080"/>
<path d="M14.0754 11.2733C14.149 11.2733 14.2087 11.2136 14.2087 11.1399C14.2087 11.0663 14.149 11.0066 14.0754 11.0066C14.0017 11.0066 13.942 11.0663 13.942 11.1399C13.942 11.2136 14.0017 11.2733 14.0754 11.2733Z" fill="#000080"/>
<path d="M13.7827 10.7653C13.8563 10.7653 13.916 10.7056 13.916 10.632C13.916 10.5584 13.8563 10.4987 13.7827 10.4987C13.709 10.4987 13.6493 10.5584 13.6493 10.632C13.6493 10.7056 13.709 10.7653 13.7827 10.7653Z" fill="#000080"/>
<path d="M13.368 10.3507C13.4417 10.3507 13.5013 10.291 13.5013 10.2173C13.5013 10.1437 13.4417 10.084 13.368 10.084C13.2944 10.084 13.2347 10.1437 13.2347 10.2173C13.2347 10.291 13.2944 10.3507 13.368 10.3507Z" fill="#000080"/>
<path d="M12.86 10.0579C12.9337 10.0579 12.9934 9.99823 12.9934 9.92459C12.9934 9.85096 12.9337 9.79126 12.86 9.79126C12.7864 9.79126 12.7267 9.85096 12.7267 9.92459C12.7267 9.99823 12.7864 10.0579 12.86 10.0579Z" fill="#000080"/>
<path d="M12.2933 9.90595C12.367 9.90595 12.4267 9.84625 12.4267 9.77262C12.4267 9.69898 12.367 9.63928 12.2933 9.63928C12.2197 9.63928 12.16 9.69898 12.16 9.77262C12.16 9.84625 12.2197 9.90595 12.2933 9.90595Z" fill="#000080"/>
<path d="M12 12.5999C12.3314 12.5999 12.6 12.3313 12.6 11.9999C12.6 11.6685 12.3314 11.3999 12 11.3999C11.6686 11.3999 11.4 11.6685 11.4 11.9999C11.4 12.3313 11.6686 12.5999 12 12.5999Z" fill="#000080"/>
</g>
<defs>
<clipPath id="clip0_73_2">
<rect width="24" height="24" fill="white"/>
</clipPath>
</defs>
</svg>
