<svg width="50" height="50" viewBox="0 0 50 50" fill="none" xmlns="http://www.w3.org/2000/svg">
<circle cx="25" cy="25" r="25" fill="white"/>
<path d="M25 12C17.8203 12 12 17.8203 12 25C12 32.1797 17.8203 38 25 38C32.1797 38 38 32.1797 38 25C38 24.4477 38.4477 24 39 24C39.5523 24 40 24.4477 40 25C40 33.2843 33.2843 40 25 40C16.7157 40 10 33.2843 10 25C10 16.7157 16.7157 10 25 10C25.5523 10 26 10.4477 26 11C26 11.5523 25.5523 12 25 12Z" fill="#042b62"/>
<path d="M25 19C21.6863 19 19 21.6863 19 25C19 28.3137 21.6863 31 25 31C28.3137 31 31 28.3137 31 25C31 24.4477 31.4477 24 32 24C32.5523 24 33 24.4477 33 25C33 29.4183 29.4183 33 25 33C20.5817 33 17 29.4183 17 25C17 20.5817 20.5817 17 25 17C25.5523 17 26 17.4477 26 18C26 18.5523 25.5523 19 25 19Z" fill="#042b62"/>
<path fill-rule="evenodd" clip-rule="evenodd" d="M30.0166 14.7558L30.1742 18.3822L24.7929 23.7635C24.4024 24.1541 24.4024 24.7872 24.7929 25.1778C25.1834 25.5683 25.8166 25.5683 26.2071 25.1778L31.5884 19.7964L35.2148 19.9541C35.4949 19.9662 35.7671 19.8604 35.9654 19.6622L39.6777 15.9498C39.9581 15.6694 40.0463 15.2497 39.9025 14.8801C39.7588 14.5106 39.4102 14.2608 39.014 14.2436L35.8639 14.1067L35.727 10.9566C35.7097 10.5604 35.46 10.2118 35.0904 10.0681C34.7208 9.92429 34.3012 10.0125 34.0208 10.2929L30.3085 14.0052C30.1103 14.2035 30.0044 14.4757 30.0166 14.7558ZM32.1516 17.819L32.0338 15.1084L33.8276 13.3146L33.9056 15.1094C33.9282 15.6275 34.3431 16.0424 34.8613 16.065L36.656 16.143L34.8622 17.9368L32.1516 17.819Z" fill="#005478"/>
</svg>
