<?xml version="1.0" encoding="UTF-8"?>
<svg id="Layer_1" xmlns="http://www.w3.org/2000/svg" viewBox="0 0 1080 1080">
  <defs>
    <style>
      .cls-1, .cls-2, .cls-3, .cls-4, .cls-5, .cls-6, .cls-7, .cls-8, .cls-9, .cls-10, .cls-11, .cls-12, .cls-13, .cls-14, .cls-15, .cls-16, .cls-17 {
        stroke-linejoin: round;
      }

      .cls-1, .cls-3, .cls-4, .cls-5, .cls-6, .cls-7, .cls-8, .cls-9, .cls-10, .cls-11, .cls-12, .cls-13, .cls-14, .cls-15, .cls-16, .cls-17 {
        stroke-linecap: round;
      }

      .cls-1, .cls-18, .cls-9 {
        fill: #fff;
      }

      .cls-1, .cls-8, .cls-14 {
        stroke: #19759d;
      }

      .cls-2, .cls-19, .cls-4, .cls-6, .cls-20, .cls-8 {
        fill: #042b62;
      }

      .cls-2, .cls-17 {
        stroke: #24a7df;
      }

      .cls-3 {
        fill: #ededed;
      }

      .cls-3, .cls-5, .cls-6, .cls-9, .cls-11, .cls-12, .cls-15 {
        stroke: rgba(38, 50, 56, .3);
      }

      .cls-21, .cls-11 {
        fill: #263238;
      }

      .cls-4, .cls-10, .cls-13 {
        stroke: #042b62;
      }

      .cls-5 {
        fill: #ccc;
      }

      .cls-20 {
        isolation: isolate;
        opacity: .3;
      }

      .cls-7 {
        stroke-width: 2px;
      }

      .cls-7, .cls-12, .cls-13, .cls-14, .cls-16 {
        fill: none;
      }

      .cls-7, .cls-16 {
        stroke: #263238;
      }

      .cls-10 {
        fill: #efefef;
      }

      .cls-15 {
        fill: #ffbda7;
      }

      .cls-17 {
        fill: #d6d8d8;
      }
    </style>
  </defs>
  <path class="cls-19" d="M253.8,681.03c.16.13,5.47-13.16,5.72-14.03,2.76-10.16,2.13-31.39-7.76-37.85-1.67-1.02-3.54-1.67-5.48-1.92-1.94-.25-3.91-.09-5.79.47-1.88.56-3.61,1.51-5.1,2.78-1.48,1.28-2.69,2.85-3.52,4.61-3.81,7.38-1.46,17.35,1.95,24.44,3.99,8.34,19.95,21.48,19.98,21.5Z"/>
  <path class="cls-19" d="M46.85,649.95c7.91,4.73,28.49,6.9,28.49,6.9,0,0-2.69-13.99-2.96-14.86-3.3-10-15.56-27.37-27.33-27.37-1.96.07-3.88.55-5.64,1.41-1.76.86-3.32,2.08-4.58,3.58-1.26,1.5-2.19,3.25-2.72,5.13-.54,1.88-.67,3.86-.4,5.8.9,8.36,8.38,15.47,15.13,19.42Z"/>
  <path class="cls-19" d="M46.31,710.28c8.54,2.4,27.53-.58,29.15-.83,1.67,10.87,4.06,21.62,7.17,32.17,1.77,6.14,3.74,12.29,5.81,18.43-1.37-2.67-2.6-5.04-2.8-5.36-5.83-8.77-22.22-22.28-33.63-19.08-1.87.58-3.6,1.54-5.07,2.83-1.47,1.29-2.65,2.88-3.47,4.66-.82,1.78-1.25,3.71-1.27,5.67-.02,1.96.37,3.9,1.15,5.69,3.05,7.74,12.11,12.53,19.68,14.66,7.58,2.13,23.92,0,28.2-.72.83,2.24,1.61,4.71,2.44,7.04,3.95,11.21,7.94,22.42,11.52,33.63,1.26,3.9,2.24,7.8,3.47,11.7-1.21-2.35-2.24-4.35-2.44-4.62-5.81-8.76-22.22-22.31-33.63-19.1-1.87.58-3.59,1.55-5.06,2.85-1.47,1.3-2.65,2.89-3.46,4.67-.81,1.78-1.24,3.71-1.26,5.67-.02,1.96.38,3.9,1.16,5.69,3.05,7.73,12.11,12.53,19.66,14.64,7.56,2.11,22.42.13,27.44-.6,1.03,4.04,2.06,8.07,2.87,12.02.49,2.69,1.14,5.27,1.5,8.03.36,2.76.78,5.38,1.17,8.05.56,5.15,1.17,10.45,1.59,15.49.31,3.5.56,6.84.81,10.2-1.21-3.9-3.74-11.5-4.04-12.11-4.48-9.55-18.59-25.4-30.29-23.97-1.93.29-3.79.99-5.43,2.04-1.65,1.05-3.06,2.45-4.13,4.08-1.07,1.64-1.79,3.48-2.11,5.41-.31,1.93-.22,3.91.28,5.8,1.84,8.12,10.07,14.24,17.22,17.46,8.05,3.41,26.41,3.41,28.72,3.41.38,5.56.72,10.99.94,16.1.67,14.06.83,26.23.78,35.87h7.78c-.18-9.71-.61-22.01-1.59-36.21-.38-5.67-.9-11.7-1.48-17.93,5.75-1.51,11.41-3.33,16.95-5.47,5.16,7.24,19.53,16.77,21.39,17.93-2.76,4.87-5.47,9.57-8.09,13.97-6.41,10.76-12.33,20.04-17.33,27.6h9.08c4.28-6.9,9.12-14.98,14.28-24.1,2.8-4.91,5.69-10.24,8.63-15.69,2.13.74,19.66,6.73,28.29,5.87,7.82-.74,17.58-3.86,21.95-10.94,1.1-1.63,1.84-3.48,2.17-5.42.33-1.94.25-3.93-.24-5.83-.49-1.91-1.38-3.69-2.6-5.23-1.23-1.54-2.76-2.8-4.51-3.7-10.6-5.16-29.14,5.27-36.41,12.87-.43.45-4.48,5.85-7.08,9.28,1.19-2.24,2.35-4.48,3.56-6.73,2.38-4.59,4.62-9.26,7.06-14.26,1.08-2.45,2.24-4.93,3.3-7.42,1.05-2.49,2.06-5.22,3.12-7.85,2.24-6.12,4.48-12.47,6.3-18.88,4.01,2.08,18.43,9.26,26.32,9.71,7.89.45,17.94-1.17,23.34-7.51,1.32-1.45,2.32-3.15,2.93-5.01.62-1.86.83-3.82.64-5.77-.19-1.95-.8-3.83-1.77-5.53-.97-1.7-2.29-3.18-3.87-4.33-9.71-6.73-29.59.81-37.93,7.22-.54.4-6.01,5.7-8.97,8.66,1.12-3.88,2.24-7.74,3.27-11.68,2.94-11.41,5.54-23.05,8.18-34.64.81-3.57,1.66-7.08,2.49-10.63,1.43.76,18.36,9.66,27.19,10.16,7.85.45,17.94-1.17,23.36-7.49,1.32-1.45,2.32-3.16,2.93-5.02.61-1.86.83-3.83.63-5.78-.2-1.95-.8-3.84-1.77-5.54-.97-1.7-2.29-3.18-3.87-4.33-9.71-6.73-29.59.81-37.93,7.24-.63.47-8.47,8.07-10.38,10.11,1.84-7.78,3.74-15.54,5.94-23.09,2.94-10.13,6.52-20.07,10.72-29.75.67.36,18.29,9.73,27.35,10.24,7.85.45,17.94-1.16,23.36-7.49,1.33-1.44,2.34-3.15,2.97-5.01.63-1.86.86-3.83.67-5.78-.19-1.95-.78-3.84-1.75-5.55-.97-1.71-2.28-3.19-3.86-4.36-9.71-6.73-29.59.81-37.93,7.22-.56.42-6.55,6.21-9.33,8.97l-.56-.38c4.51-9.7,9.87-18.97,16.01-27.73,3.34-4.86,6.73-9.33,10.25-13.59,3.09,2.09,17.4,11.43,25.49,12.8,8.09,1.37,17.94.81,24.03-4.89,1.47-1.3,2.65-2.89,3.46-4.67.81-1.78,1.24-3.71,1.26-5.67.02-1.96-.37-3.9-1.15-5.69-.78-1.79-1.93-3.41-3.37-4.73-8.97-7.71-29.5-2.44-38.49,3-.49.31-5.13,3.88-8.47,6.52,1.59-1.91,3.18-3.9,4.75-5.67,5.83-6.73,11.59-12.56,16.72-17.67,2.94-2.87,5.67-5.42,8.23-7.78,4.13.45,20.74,2.06,28.4-.4,7.67-2.47,16.35-7.56,19.08-15.42.69-1.82.98-3.78.87-5.72-.12-1.95-.64-3.85-1.54-5.58-.89-1.73-2.15-3.26-3.67-4.48-1.52-1.22-3.28-2.11-5.17-2.6-11.46-2.73-27.31,11.41-32.78,20.4-.47.78-6.46,13.79-6.25,13.81h.25c-2.51,2.24-5.18,4.64-8.05,7.31-5.27,5.02-11.21,10.72-17.17,17.35-6.55,7.11-12.67,14.59-18.34,22.42-6.41,8.69-12.03,17.95-16.79,27.64l-.13.36c.49-3.41,1.57-13,1.57-13.76,0-10.52-6.23-30.85-17.46-34.44-1.88-.55-3.85-.69-5.79-.42-1.94.27-3.8.94-5.46,1.97-1.66,1.03-3.09,2.41-4.18,4.03-1.1,1.62-1.84,3.46-2.18,5.38-1.73,8.14,3.18,17.15,8.34,23.07,5.81,6.73,23.27,14.71,24.66,15.34-4.61,9.99-8.54,20.27-11.77,30.78-1.91,6.1-3.65,12.33-5.31,18.56.34-2.96.61-5.6.61-5.99,0-10.54-6.23-30.85-17.46-34.44-1.88-.55-3.85-.69-5.79-.42-1.94.27-3.8.94-5.46,1.98-1.66,1.03-3.08,2.41-4.18,4.03-1.09,1.62-1.83,3.46-2.17,5.38-1.75,8.14,3.18,17.13,8.32,23.07,5.13,5.94,20,13.14,23.92,14.97-.61,2.4-1.26,4.8-1.86,7.22-2.89,11.55-5.74,23.09-8.97,34.32-1.1,3.95-2.24,7.8-3.56,11.68.29-2.65.52-4.86.52-5.2,0-10.54-6.23-30.85-17.44-34.46-1.86-.53-3.82-.66-5.74-.39-1.92.27-3.76.94-5.41,1.96-1.65,1.02-3.06,2.37-4.16,3.97s-1.85,3.41-2.2,5.31c-1.73,8.14,3.18,17.13,8.34,23.07,5.16,5.94,18.54,12.44,23.2,14.64-1.37,3.93-2.73,7.85-4.24,11.59-1.08,2.53-1.95,5.04-3.18,7.51l-3.45,7.38c-2.38,4.6-4.8,9.37-7.22,13.79-1.68,3.09-3.32,6.01-4.98,8.97,1.17-3.93,3.23-11.68,3.34-12.33,1.05-9.2-.28-18.52-3.86-27.06.16-1.02.23-2.06.2-3.09,0-1.96-.41-3.89-1.2-5.68-.8-1.79-1.96-3.39-3.41-4.7-1.45-1.31-3.17-2.3-5.03-2.91-1.86-.6-3.83-.81-5.78-.61-11.68,1.57-21.39,20.49-23.25,30.85,0,.6-.56,7.35-.78,11.64-.25-2.53-.47-5-.76-7.6-.56-5.13-1.23-10.27-1.97-15.69-.45-2.65-.9-5.31-1.35-8.03-.45-2.71-1.17-5.47-1.73-8.25-1.46-6.39-3.23-12.8-5.18-19.21,4.48-.49,20.49-2.44,27.31-6.44,6.82-3.99,14.35-10.87,15.36-19.12.3-1.94.19-3.91-.32-5.8-.51-1.89-1.42-3.65-2.66-5.17-1.24-1.52-2.78-2.76-4.53-3.64-1.75-.88-3.67-1.38-5.62-1.47-11.77-.22-24.24,16.99-27.64,26.9-.22.63-1.86,8.03-2.69,12.13-1.21-3.86-2.38-7.69-3.72-11.55-3.86-11.21-8.09-22.26-12.29-33.41-1.28-3.41-2.51-6.73-3.77-10.24,1.59-.16,20.65-2.06,28.27-6.53,6.73-3.95,14.35-10.87,15.36-19.14.3-1.93.19-3.91-.33-5.8-.52-1.89-1.42-3.65-2.66-5.16-1.24-1.52-2.78-2.75-4.53-3.63-1.75-.88-3.66-1.39-5.62-1.48-11.77-.22-24.24,17.02-27.64,26.9-.27.74-2.62,11.41-3.09,14.17-2.76-7.51-5.43-15.04-7.78-22.55-3.21-10.13-5.75-20.46-7.62-30.92.74,0,20.63-1.99,28.45-6.55,6.73-3.97,14.35-10.9,15.33-19.15.3-1.93.19-3.91-.32-5.8-.51-1.89-1.42-3.65-2.65-5.17-1.24-1.52-2.78-2.76-4.53-3.64-1.75-.88-3.66-1.38-5.61-1.48-11.79-.22-24.24,16.99-27.67,26.9-.22.65-2.02,8.79-2.78,12.69h-.67c-1.61-10.58-2.26-21.28-1.95-31.97,0-5.89.49-11.52,1.03-16.99,3.74,0,20.83,0,28.32-3.39,7.49-3.39,15.47-9.24,17.35-17.33.51-1.88.62-3.86.32-5.78-.3-1.93-1-3.78-2.05-5.42-1.06-1.64-2.45-3.05-4.08-4.12-1.63-1.07-3.47-1.79-5.4-2.1-11.75-1.52-26.1,14.33-30.58,23.74-.25.52-2.24,6.05-3.47,10.11.29-2.47.52-5,.83-7.35,1.14-8.83,2.74-16.86,4.21-23.97.87-4.01,1.73-7.65,2.58-11.03,3.68-1.88,18.43-9.71,23.45-15.98,5.02-6.28,9.46-15.34,7.42-23.38-.42-1.9-1.23-3.69-2.39-5.26-1.15-1.57-2.62-2.87-4.31-3.84-1.69-.97-3.56-1.57-5.5-1.77-1.94-.2-3.89,0-5.74.6-11.08,4.04-16.48,24.66-16.07,35.11,0,.92,2.24,15.07,2.4,14.98l.22-.13c-.87,3.25-1.79,6.73-2.69,10.56-1.64,7.06-3.41,15.09-4.75,23.92-1.53,9.52-2.51,19.13-2.91,28.77-.54,10.78-.12,21.6,1.26,32.3.01.13.01.26,0,.38-1.46-3.12-5.85-11.73-6.28-12.35-5.81-8.77-22.22-22.28-33.63-19.1-1.87.58-3.59,1.55-5.06,2.85-1.47,1.29-2.65,2.88-3.47,4.66-.82,1.78-1.25,3.71-1.27,5.67-.02,1.96.37,3.9,1.15,5.69,3.09,7.74,12.15,12.53,19.71,14.64Z"/>
  <path class="cls-20" d="M46.85,649.95c7.91,4.73,28.49,6.9,28.49,6.9,0,0-2.69-13.99-2.96-14.86-3.3-10-15.56-27.37-27.33-27.37-1.96.07-3.88.55-5.64,1.41-1.76.86-3.32,2.08-4.58,3.58-1.26,1.5-2.19,3.25-2.72,5.13-.54,1.88-.67,3.86-.4,5.8.9,8.36,8.38,15.47,15.13,19.42Z"/>
  <path class="cls-20" d="M253.8,681.03c.16.13,5.47-13.16,5.72-14.03,2.76-10.16,2.13-31.39-7.76-37.85-1.67-1.02-3.54-1.67-5.48-1.92-1.94-.25-3.91-.09-5.79.47-1.88.56-3.61,1.51-5.1,2.78-1.48,1.28-2.69,2.85-3.52,4.61-3.81,7.38-1.46,17.35,1.95,24.44,3.99,8.34,19.95,21.48,19.98,21.5Z"/>
  <path class="cls-20" d="M46.31,710.28c8.54,2.4,27.53-.58,29.15-.83,1.67,10.87,4.06,21.62,7.17,32.17,1.77,6.14,3.74,12.29,5.81,18.43-1.37-2.67-2.6-5.04-2.8-5.36-5.83-8.77-22.22-22.28-33.63-19.08-1.87.58-3.6,1.54-5.07,2.83-1.47,1.29-2.65,2.88-3.47,4.66-.82,1.78-1.25,3.71-1.27,5.67-.02,1.96.37,3.9,1.15,5.69,3.05,7.74,12.11,12.53,19.68,14.66,7.58,2.13,23.92,0,28.2-.72.83,2.24,1.61,4.71,2.44,7.04,3.95,11.21,7.94,22.42,11.52,33.63,1.26,3.9,2.24,7.8,3.47,11.7-1.21-2.35-2.24-4.35-2.44-4.62-5.81-8.76-22.22-22.31-33.63-19.1-1.87.58-3.59,1.55-5.06,2.85-1.47,1.3-2.65,2.89-3.46,4.67-.81,1.78-1.24,3.71-1.26,5.67-.02,1.96.38,3.9,1.16,5.69,3.05,7.73,12.11,12.53,19.66,14.64,7.56,2.11,22.42.13,27.44-.6,1.03,4.04,2.06,8.07,2.87,12.02.49,2.69,1.14,5.27,1.5,8.03.36,2.76.78,5.38,1.17,8.05.56,5.15,1.17,10.45,1.59,15.49.31,3.5.56,6.84.81,10.2-1.21-3.9-3.74-11.5-4.04-12.11-4.48-9.55-18.59-25.4-30.29-23.97-1.93.29-3.79.99-5.43,2.04-1.65,1.05-3.06,2.45-4.13,4.08-1.07,1.64-1.79,3.48-2.11,5.41-.31,1.93-.22,3.91.28,5.8,1.84,8.12,10.07,14.24,17.22,17.46,8.05,3.41,26.41,3.41,28.72,3.41.38,5.56.72,10.99.94,16.1.67,14.06.83,26.23.78,35.87h7.78c-.18-9.71-.61-22.01-1.59-36.21-.38-5.67-.9-11.7-1.48-17.93,5.75-1.51,11.41-3.33,16.95-5.47,5.16,7.24,19.53,16.77,21.39,17.93-2.76,4.87-5.47,9.57-8.09,13.97-6.41,10.76-12.33,20.04-17.33,27.6h9.08c4.28-6.9,9.12-14.98,14.28-24.1,2.8-4.91,5.69-10.24,8.63-15.69,2.13.74,19.66,6.73,28.29,5.87,7.82-.74,17.58-3.86,21.95-10.94,1.1-1.63,1.84-3.48,2.17-5.42.33-1.94.25-3.93-.24-5.83-.49-1.91-1.38-3.69-2.6-5.23-1.23-1.54-2.76-2.8-4.51-3.7-10.6-5.16-29.14,5.27-36.41,12.87-.43.45-4.48,5.85-7.08,9.28,1.19-2.24,2.35-4.48,3.56-6.73,2.38-4.59,4.62-9.26,7.06-14.26,1.08-2.45,2.24-4.93,3.3-7.42,1.05-2.49,2.06-5.22,3.12-7.85,2.24-6.12,4.48-12.47,6.3-18.88,4.01,2.08,18.43,9.26,26.32,9.71,7.89.45,17.94-1.17,23.34-7.51,1.32-1.45,2.32-3.15,2.93-5.01.62-1.86.83-3.82.64-5.77-.19-1.95-.8-3.83-1.77-5.53-.97-1.7-2.29-3.18-3.87-4.33-9.71-6.73-29.59.81-37.93,7.22-.54.4-6.01,5.7-8.97,8.66,1.12-3.88,2.24-7.74,3.27-11.68,2.94-11.41,5.54-23.05,8.18-34.64.81-3.57,1.66-7.08,2.49-10.63,1.43.76,18.36,9.66,27.19,10.16,7.85.45,17.94-1.17,23.36-7.49,1.32-1.45,2.32-3.16,2.93-5.02.61-1.86.83-3.83.63-5.78-.2-1.95-.8-3.84-1.77-5.54-.97-1.7-2.29-3.18-3.87-4.33-9.71-6.73-29.59.81-37.93,7.24-.63.47-8.47,8.07-10.38,10.11,1.84-7.78,3.74-15.54,5.94-23.09,2.94-10.13,6.52-20.07,10.72-29.75.67.36,18.29,9.73,27.35,10.24,7.85.45,17.94-1.16,23.36-7.49,1.33-1.44,2.34-3.15,2.97-5.01.63-1.86.86-3.83.67-5.78-.19-1.95-.78-3.84-1.75-5.55-.97-1.71-2.28-3.19-3.86-4.36-9.71-6.73-29.59.81-37.93,7.22-.56.42-6.55,6.21-9.33,8.97l-.56-.38c4.51-9.7,9.87-18.97,16.01-27.73,3.34-4.86,6.73-9.33,10.25-13.59,3.09,2.09,17.4,11.43,25.49,12.8,8.09,1.37,17.94.81,24.03-4.89,1.47-1.3,2.65-2.89,3.46-4.67.81-1.78,1.24-3.71,1.26-5.67.02-1.96-.37-3.9-1.15-5.69-.78-1.79-1.93-3.41-3.37-4.73-8.97-7.71-29.5-2.44-38.49,3-.49.31-5.13,3.88-8.47,6.52,1.59-1.91,3.18-3.9,4.75-5.67,5.83-6.73,11.59-12.56,16.72-17.67,2.94-2.87,5.67-5.42,8.23-7.78,4.13.45,20.74,2.06,28.4-.4,7.67-2.47,16.35-7.56,19.08-15.42.69-1.82.98-3.78.87-5.72-.12-1.95-.64-3.85-1.54-5.58-.89-1.73-2.15-3.26-3.67-4.48-1.52-1.22-3.28-2.11-5.17-2.6-11.46-2.73-27.31,11.41-32.78,20.4-.47.78-6.46,13.79-6.25,13.81h.25c-2.51,2.24-5.18,4.64-8.05,7.31-5.27,5.02-11.21,10.72-17.17,17.35-6.55,7.11-12.67,14.59-18.34,22.42-6.41,8.69-12.03,17.95-16.79,27.64l-.13.36c.49-3.41,1.57-13,1.57-13.76,0-10.52-6.23-30.85-17.46-34.44-1.88-.55-3.85-.69-5.79-.42-1.94.27-3.8.94-5.46,1.97-1.66,1.03-3.09,2.41-4.18,4.03-1.1,1.62-1.84,3.46-2.18,5.38-1.73,8.14,3.18,17.15,8.34,23.07,5.81,6.73,23.27,14.71,24.66,15.34-4.61,9.99-8.54,20.27-11.77,30.78-1.91,6.1-3.65,12.33-5.31,18.56.34-2.96.61-5.6.61-5.99,0-10.54-6.23-30.85-17.46-34.44-1.88-.55-3.85-.69-5.79-.42-1.94.27-3.8.94-5.46,1.98-1.66,1.03-3.08,2.41-4.18,4.03-1.09,1.62-1.83,3.46-2.17,5.38-1.75,8.14,3.18,17.13,8.32,23.07,5.13,5.94,20,13.14,23.92,14.97-.61,2.4-1.26,4.8-1.86,7.22-2.89,11.55-5.74,23.09-8.97,34.32-1.1,3.95-2.24,7.8-3.56,11.68.29-2.65.52-4.86.52-5.2,0-10.54-6.23-30.85-17.44-34.46-1.86-.53-3.82-.66-5.74-.39-1.92.27-3.76.94-5.41,1.96-1.65,1.02-3.06,2.37-4.16,3.97s-1.85,3.41-2.2,5.31c-1.73,8.14,3.18,17.13,8.34,23.07,5.16,5.94,18.54,12.44,23.2,14.64-1.37,3.93-2.73,7.85-4.24,11.59-1.08,2.53-1.95,5.04-3.18,7.51l-3.45,7.38c-2.38,4.6-4.8,9.37-7.22,13.79-1.68,3.09-3.32,6.01-4.98,8.97,1.17-3.93,3.23-11.68,3.34-12.33,1.05-9.2-.28-18.52-3.86-27.06.16-1.02.23-2.06.2-3.09,0-1.96-.41-3.89-1.2-5.68-.8-1.79-1.96-3.39-3.41-4.7-1.45-1.31-3.17-2.3-5.03-2.91-1.86-.6-3.83-.81-5.78-.61-11.68,1.57-21.39,20.49-23.25,30.85,0,.6-.56,7.35-.78,11.64-.25-2.53-.47-5-.76-7.6-.56-5.13-1.23-10.27-1.97-15.69-.45-2.65-.9-5.31-1.35-8.03-.45-2.71-1.17-5.47-1.73-8.25-1.46-6.39-3.23-12.8-5.18-19.21,4.48-.49,20.49-2.44,27.31-6.44,6.82-3.99,14.35-10.87,15.36-19.12.3-1.94.19-3.91-.32-5.8-.51-1.89-1.42-3.65-2.66-5.17-1.24-1.52-2.78-2.76-4.53-3.64-1.75-.88-3.67-1.38-5.62-1.47-11.77-.22-24.24,16.99-27.64,26.9-.22.63-1.86,8.03-2.69,12.13-1.21-3.86-2.38-7.69-3.72-11.55-3.86-11.21-8.09-22.26-12.29-33.41-1.28-3.41-2.51-6.73-3.77-10.24,1.59-.16,20.65-2.06,28.27-6.53,6.73-3.95,14.35-10.87,15.36-19.14.3-1.93.19-3.91-.33-5.8-.52-1.89-1.42-3.65-2.66-5.16-1.24-1.52-2.78-2.75-4.53-3.63-1.75-.88-3.66-1.39-5.62-1.48-11.77-.22-24.24,17.02-27.64,26.9-.27.74-2.62,11.41-3.09,14.17-2.76-7.51-5.43-15.04-7.78-22.55-3.21-10.13-5.75-20.46-7.62-30.92.74,0,20.63-1.99,28.45-6.55,6.73-3.97,14.35-10.9,15.33-19.15.3-1.93.19-3.91-.32-5.8-.51-1.89-1.42-3.65-2.65-5.17-1.24-1.52-2.78-2.76-4.53-3.64-1.75-.88-3.66-1.38-5.61-1.48-11.79-.22-24.24,16.99-27.67,26.9-.22.65-2.02,8.79-2.78,12.69h-.67c-1.61-10.58-2.26-21.28-1.95-31.97,0-5.89.49-11.52,1.03-16.99,3.74,0,20.83,0,28.32-3.39,7.49-3.39,15.47-9.24,17.35-17.33.51-1.88.62-3.86.32-5.78-.3-1.93-1-3.78-2.05-5.42-1.06-1.64-2.45-3.05-4.08-4.12-1.63-1.07-3.47-1.79-5.4-2.1-11.75-1.52-26.1,14.33-30.58,23.74-.25.52-2.24,6.05-3.47,10.11.29-2.47.52-5,.83-7.35,1.14-8.83,2.74-16.86,4.21-23.97.87-4.01,1.73-7.65,2.58-11.03,3.68-1.88,18.43-9.71,23.45-15.98,5.02-6.28,9.46-15.34,7.42-23.38-.42-1.9-1.23-3.69-2.39-5.26-1.15-1.57-2.62-2.87-4.31-3.84-1.69-.97-3.56-1.57-5.5-1.77-1.94-.2-3.89,0-5.74.6-11.08,4.04-16.48,24.66-16.07,35.11,0,.92,2.24,15.07,2.4,14.98l.22-.13c-.87,3.25-1.79,6.73-2.69,10.56-1.64,7.06-3.41,15.09-4.75,23.92-1.53,9.52-2.51,19.13-2.91,28.77-.54,10.78-.12,21.6,1.26,32.3.01.13.01.26,0,.38-1.46-3.12-5.85-11.73-6.28-12.35-5.81-8.77-22.22-22.28-33.63-19.1-1.87.58-3.59,1.55-5.06,2.85-1.47,1.29-2.65,2.88-3.47,4.66-.82,1.78-1.25,3.71-1.27,5.67-.02,1.96.37,3.9,1.15,5.69,3.09,7.74,12.15,12.53,19.71,14.64Z"/>
  <path class="cls-8" d="M230.11,941v19.23c0,2.24,34.41,4.26,76.9,4.26s76.9-1.9,76.9-4.26v-19.23h-153.8Z"/>
  <path class="cls-8" d="M307,945.3c42.47,0,76.9-1.92,76.9-4.28s-34.43-4.28-76.9-4.28-76.9,1.91-76.9,4.28,34.43,4.28,76.9,4.28Z"/>
  <path class="cls-8" d="M307,943.22c32.62,0,59.07-1.23,59.07-2.74s-26.45-2.74-59.07-2.74-59.08,1.23-59.08,2.74,26.45,2.74,59.08,2.74Z"/>
  <path class="cls-14" d="M376.24,943.2v14.91"/>
  <path class="cls-14" d="M365.25,944.77v15.69"/>
  <path class="cls-14" d="M348.77,945.17v12.15"/>
  <path class="cls-14" d="M327.18,953.02v10.58"/>
  <path class="cls-14" d="M304.05,964.78v-13.34"/>
  <path class="cls-14" d="M235.02,943.2v6.68"/>
  <path class="cls-14" d="M244.03,962.03v-7.85"/>
  <path class="cls-14" d="M279.72,962.81v-9.42"/>
  <path class="cls-8" d="M233.6,921.76v19.21c0,2.35,34.41,4.28,76.9,4.28s76.9-1.93,76.9-4.28v-19.21h-153.79Z"/>
  <path class="cls-8" d="M310.5,926.05c42.47,0,76.9-1.92,76.9-4.28s-34.43-4.28-76.9-4.28-76.9,1.92-76.9,4.28,34.43,4.28,76.9,4.28Z"/>
  <path class="cls-8" d="M310.5,923.96c32.63,0,59.07-1.22,59.07-2.74s-26.45-2.73-59.07-2.73-59.07,1.22-59.07,2.73,26.45,2.74,59.07,2.74Z"/>
  <path class="cls-14" d="M379.73,923.96v14.91"/>
  <path class="cls-14" d="M368.75,925.53v15.69"/>
  <path class="cls-14" d="M352.27,925.91v12.18"/>
  <path class="cls-14" d="M330.7,933.76v10.6"/>
  <path class="cls-14" d="M307.54,945.53v-13.34"/>
  <path class="cls-14" d="M238.51,923.96v6.66"/>
  <path class="cls-14" d="M247.53,942.79v-7.85"/>
  <path class="cls-14" d="M283.22,943.58v-9.41"/>
  <path class="cls-8" d="M234.19,902.51v19.26c0,2.36,34.44,4.26,76.9,4.26s76.9-1.9,76.9-4.26v-19.23l-153.79-.02Z"/>
  <path class="cls-8" d="M311.08,906.81c42.47,0,76.9-1.92,76.9-4.28s-34.43-4.28-76.9-4.28-76.9,1.92-76.9,4.28,34.43,4.28,76.9,4.28Z"/>
  <path class="cls-8" d="M311.09,904.72c32.63,0,59.07-1.22,59.07-2.73s-26.45-2.74-59.07-2.74-59.07,1.22-59.07,2.74,26.45,2.73,59.07,2.73Z"/>
  <path class="cls-14" d="M380.31,904.72v14.89"/>
  <path class="cls-14" d="M369.33,906.27v15.69"/>
  <path class="cls-14" d="M352.85,906.68v12.15"/>
  <path class="cls-14" d="M331.29,914.52v10.58"/>
  <path class="cls-14" d="M308.12,926.29v-13.34"/>
  <path class="cls-14" d="M239.1,904.72v6.66"/>
  <path class="cls-14" d="M248.11,923.54v-7.85"/>
  <path class="cls-14" d="M283.8,924.32v-9.42"/>
  <path class="cls-8" d="M233.6,883.27v19.21c0,2.35,34.41,4.28,76.9,4.28s76.9-1.93,76.9-4.28v-19.21h-153.79Z"/>
  <path class="cls-8" d="M310.5,887.55c42.47,0,76.9-1.92,76.9-4.28s-34.43-4.28-76.9-4.28-76.9,1.92-76.9,4.28,34.43,4.28,76.9,4.28Z"/>
  <path class="cls-8" d="M369.55,882.73c0,1.5-26.43,2.73-59.05,2.73s-59.07-1.23-59.07-2.73,26.45-2.74,59.07-2.74,59.05,1.21,59.05,2.74Z"/>
  <path class="cls-14" d="M379.73,885.47v14.91"/>
  <path class="cls-14" d="M368.75,887.04v15.69"/>
  <path class="cls-14" d="M352.27,887.44v12.15"/>
  <path class="cls-14" d="M330.7,895.26v10.6"/>
  <path class="cls-14" d="M307.54,907.04v-13.34"/>
  <path class="cls-14" d="M238.51,885.47v6.68"/>
  <path class="cls-14" d="M247.53,904.3v-7.85"/>
  <path class="cls-14" d="M283.22,905.08v-9.42"/>
  <path class="cls-8" d="M234.77,864.01v19.24c0,2.35,34.44,4.26,76.9,4.26s76.9-1.91,76.9-4.26v-19.24h-153.79Z"/>
  <path class="cls-8" d="M311.67,868.31c42.47,0,76.9-1.92,76.9-4.28s-34.43-4.28-76.9-4.28-76.9,1.91-76.9,4.28,34.43,4.28,76.9,4.28Z"/>
  <path class="cls-8" d="M370.72,863.47c0,1.52-26.43,2.76-59.05,2.76s-59.07-1.23-59.07-2.76,26.45-2.74,59.07-2.74,59.05,1.23,59.05,2.74Z"/>
  <path class="cls-14" d="M380.9,866.23v14.89"/>
  <path class="cls-14" d="M369.91,867.8v15.67"/>
  <path class="cls-14" d="M353.44,868.18v12.15"/>
  <path class="cls-14" d="M331.87,876.03v10.58"/>
  <path class="cls-14" d="M308.71,887.8v-13.34"/>
  <path class="cls-14" d="M239.68,866.23v6.66"/>
  <path class="cls-14" d="M248.69,885.04v-7.82"/>
  <path class="cls-14" d="M284.38,885.82v-9.39"/>
  <path class="cls-8" d="M230.11,844.77v19.21c0,2.38,34.41,4.28,76.9,4.28s76.9-1.91,76.9-4.28v-19.21h-153.8Z"/>
  <path class="cls-8" d="M307,849.06c42.47,0,76.9-1.92,76.9-4.28s-34.43-4.28-76.9-4.28-76.9,1.92-76.9,4.28,34.43,4.28,76.9,4.28Z"/>
  <path class="cls-8" d="M366.05,844.24c0,1.52-26.43,2.73-59.05,2.73s-59.08-1.21-59.08-2.73,26.45-2.74,59.08-2.74,59.05,1.21,59.05,2.74Z"/>
  <path class="cls-14" d="M376.24,846.97v14.91"/>
  <path class="cls-14" d="M365.25,848.54v15.69"/>
  <path class="cls-14" d="M348.77,848.95v12.15"/>
  <path class="cls-14" d="M327.18,856.79v10.58"/>
  <path class="cls-14" d="M304.05,868.54v-13.32"/>
  <path class="cls-14" d="M235.02,846.97v6.68"/>
  <path class="cls-14" d="M244.03,865.8v-7.85"/>
  <path class="cls-14" d="M279.72,866.59v-9.41"/>
  <path class="cls-8" d="M227.77,825.54v19.21c0,2.35,34.41,4.26,76.9,4.26s76.9-1.91,76.9-4.26v-19.21h-153.8Z"/>
  <path class="cls-8" d="M304.65,829.82c42.47,0,76.9-1.92,76.9-4.28s-34.43-4.28-76.9-4.28-76.9,1.92-76.9,4.28,34.43,4.28,76.9,4.28Z"/>
  <path class="cls-8" d="M363.72,825c0,1.5-26.43,2.74-59.05,2.74s-59.07-1.23-59.07-2.74,26.45-2.76,59.07-2.76,59.05,1.23,59.05,2.76Z"/>
  <path class="cls-14" d="M373.88,827.74v14.91"/>
  <path class="cls-14" d="M362.92,829.3v15.69"/>
  <path class="cls-14" d="M346.44,829.69v12.17"/>
  <path class="cls-14" d="M324.85,837.53v10.6"/>
  <path class="cls-14" d="M301.71,849.31v-13.34"/>
  <path class="cls-14" d="M232.68,827.74v6.66"/>
  <path class="cls-14" d="M241.7,846.57v-7.85"/>
  <path class="cls-14" d="M277.39,847.35v-9.42"/>
  <path class="cls-8" d="M223.69,806.28v19.21c0,2.38,34.41,4.28,76.9,4.28s76.88-1.91,76.88-4.28v-19.21h-153.77Z"/>
  <path class="cls-8" d="M300.57,810.59c42.47,0,76.9-1.92,76.9-4.28s-34.43-4.28-76.9-4.28-76.9,1.92-76.9,4.28,34.43,4.28,76.9,4.28Z"/>
  <path class="cls-8" d="M359.65,805.74c0,1.52-26.43,2.74-59.05,2.74s-59.07-1.21-59.07-2.74,26.45-2.74,59.07-2.74,59.05,1.23,59.05,2.74Z"/>
  <path class="cls-14" d="M369.8,808.48v14.91"/>
  <path class="cls-14" d="M358.82,810.05v15.69"/>
  <path class="cls-14" d="M342.36,810.45v12.15"/>
  <path class="cls-14" d="M320.77,818.3v10.58"/>
  <path class="cls-14" d="M297.63,830.07v-13.34"/>
  <path class="cls-14" d="M228.6,808.48v6.68"/>
  <path class="cls-14" d="M237.62,827.31v-7.85"/>
  <path class="cls-14" d="M273.31,828.1v-9.41"/>
  <path class="cls-8" d="M230.11,787.05v19.21c0,2.24,34.41,4.28,76.9,4.28s76.9-1.93,76.9-4.28v-19.21h-153.8Z"/>
  <path class="cls-8" d="M307,791.33c42.47,0,76.9-1.92,76.9-4.28s-34.43-4.28-76.9-4.28-76.9,1.92-76.9,4.28,34.43,4.28,76.9,4.28Z"/>
  <path class="cls-8" d="M366.05,786.51c0,1.5-26.43,2.74-59.05,2.74s-59.08-1.23-59.08-2.74,26.45-2.76,59.08-2.76,59.05,1.25,59.05,2.76Z"/>
  <path class="cls-14" d="M376.24,789.24v14.91"/>
  <path class="cls-14" d="M365.25,790.81v15.69"/>
  <path class="cls-14" d="M348.77,791.19v12.17"/>
  <path class="cls-14" d="M327.18,799.04v10.6"/>
  <path class="cls-14" d="M304.05,810.81v-13.34"/>
  <path class="cls-14" d="M235.02,789.24v6.66"/>
  <path class="cls-14" d="M244.03,808.07v-7.85"/>
  <path class="cls-14" d="M279.72,808.86v-9.41"/>
  <path class="cls-8" d="M224.86,767.79v19.24c0,2.35,34.41,4.26,76.9,4.26s76.88-1.91,76.88-4.26v-19.24h-153.77Z"/>
  <path class="cls-8" d="M378.63,767.79c0,2.35-34.41,4.28-76.88,4.28s-76.9-1.93-76.9-4.28,34.41-4.26,76.9-4.26,76.88,1.91,76.88,4.26Z"/>
  <path class="cls-8" d="M360.88,767.25c0,1.52-26.43,2.73-59.05,2.73s-59.07-1.21-59.07-2.73,26.45-2.74,59.07-2.74,59.05,1.23,59.05,2.74Z"/>
  <path class="cls-14" d="M370.97,769.98v14.91"/>
  <path class="cls-14" d="M359.98,771.55v15.69"/>
  <path class="cls-14" d="M343.52,771.96v12.15"/>
  <path class="cls-14" d="M321.93,779.8v10.58"/>
  <path class="cls-14" d="M298.8,791.57v-13.34"/>
  <path class="cls-14" d="M229.77,769.98v6.68"/>
  <path class="cls-14" d="M238.78,788.82v-7.85"/>
  <path class="cls-14" d="M274.47,789.6v-9.41"/>
  <path class="cls-8" d="M230.11,748.55v19.21c0,2.35,34.41,4.28,76.9,4.28s76.9-1.93,76.9-4.28v-19.21h-153.8Z"/>
  <path class="cls-8" d="M383.9,748.55c0,2.35-34.44,4.26-76.9,4.26s-76.9-1.9-76.9-4.26,34.41-4.28,76.9-4.28,76.9,1.93,76.9,4.28Z"/>
  <path class="cls-8" d="M366.05,748.01c0,1.5-26.43,2.74-59.05,2.74s-59.08-1.23-59.08-2.74,26.45-2.76,59.08-2.76,59.05,1.23,59.05,2.76Z"/>
  <path class="cls-14" d="M376.24,750.75v14.91"/>
  <path class="cls-14" d="M365.25,752.32v15.69"/>
  <path class="cls-14" d="M348.77,752.7v12.18"/>
  <path class="cls-14" d="M327.18,760.55v10.6"/>
  <path class="cls-14" d="M304.05,772.32v-13.34"/>
  <path class="cls-14" d="M235.02,750.75v6.66"/>
  <path class="cls-14" d="M244.03,769.58v-7.85"/>
  <path class="cls-14" d="M279.72,770.37v-9.42"/>
  <path class="cls-8" d="M235.94,729.3v19.23c0,2.24,34.44,4.26,76.9,4.26s76.9-1.91,76.9-4.26v-19.23h-153.79Z"/>
  <path class="cls-8" d="M312.83,733.6c42.47,0,76.9-1.92,76.9-4.28s-34.43-4.28-76.9-4.28-76.9,1.92-76.9,4.28,34.43,4.28,76.9,4.28Z"/>
  <path class="cls-8" d="M371.89,728.76c0,1.52-26.43,2.76-59.05,2.76s-59.07-1.23-59.07-2.76,26.45-2.73,59.07-2.73,59.05,1.23,59.05,2.73Z"/>
  <path class="cls-14" d="M382.06,731.49v14.91"/>
  <path class="cls-14" d="M371.08,733.06v15.69"/>
  <path class="cls-14" d="M354.6,733.47v12.15"/>
  <path class="cls-14" d="M333.03,741.31v10.58"/>
  <path class="cls-14" d="M309.87,753.08v-13.34"/>
  <path class="cls-14" d="M240.84,731.49v6.68"/>
  <path class="cls-14" d="M249.86,750.32v-7.85"/>
  <path class="cls-14" d="M285.55,751.11v-9.42"/>
  <path class="cls-8" d="M235.94,711.25v19.21c0,2.35,34.44,4.28,76.9,4.28s76.9-1.93,76.9-4.28v-19.21h-153.79Z"/>
  <path class="cls-8" d="M389.73,711.25c0,2.24-34.44,4.26-76.9,4.26s-76.9-1.9-76.9-4.26,34.44-4.28,76.9-4.28,76.9,1.93,76.9,4.28Z"/>
  <path class="cls-8" d="M371.89,710.71c0,1.5-26.43,2.74-59.05,2.74s-59.07-1.23-59.07-2.74,26.45-2.76,59.07-2.76,59.05,1.23,59.05,2.76Z"/>
  <path class="cls-14" d="M382.06,713.44v14.91"/>
  <path class="cls-14" d="M371.08,715.01v15.69"/>
  <path class="cls-14" d="M354.6,715.39v12.18"/>
  <path class="cls-14" d="M333.03,723.24v10.6"/>
  <path class="cls-14" d="M309.87,735.01v-13.34"/>
  <path class="cls-14" d="M240.84,713.44v6.66"/>
  <path class="cls-14" d="M249.86,732.28v-7.85"/>
  <path class="cls-14" d="M285.55,733.06v-9.42"/>
  <path class="cls-8" d="M228.6,693.09v19.23c0,2.35,34.44,4.26,76.9,4.26s76.9-1.91,76.9-4.26v-19.23h-153.8Z"/>
  <path class="cls-8" d="M382.33,693.09c0,2.24-34.41,4.28-76.9,4.28s-76.83-1.84-76.83-4.28,34.44-4.26,76.9-4.26,76.83,2.02,76.83,4.26Z"/>
  <path class="cls-8" d="M364.51,692.64c0,1.52-26.45,2.76-59.07,2.76s-59.05-1.23-59.05-2.76,26.43-2.74,59.05-2.74,59.07,1.23,59.07,2.74Z"/>
  <path class="cls-14" d="M374.67,695.37v14.91"/>
  <path class="cls-14" d="M363.68,696.94v15.69"/>
  <path class="cls-14" d="M347.2,697.35v12.15"/>
  <path class="cls-14" d="M325.63,705.19v10.58"/>
  <path class="cls-14" d="M302.5,716.96v-13.34"/>
  <path class="cls-14" d="M233.44,695.37v6.68"/>
  <path class="cls-14" d="M242.48,714.21v-7.85"/>
  <path class="cls-14" d="M278.17,714.99v-9.42"/>
  <path class="cls-8" d="M219.64,675.15v19.21c0,2.35,34.41,4.28,76.9,4.28s76.88-1.93,76.88-4.28v-19.21h-153.77Z"/>
  <path class="cls-8" d="M373.3,675.15c0,2.35-34.42,4.26-76.88,4.26s-76.79-2.02-76.79-4.26,34.41-4.28,76.9-4.28,76.76,1.88,76.76,4.28Z"/>
  <path class="cls-8" d="M355.48,674.59c0,1.5-26.43,2.73-59.05,2.73s-59.07-1.23-59.07-2.73,26.45-2.76,59.07-2.76,59.05,1.23,59.05,2.76Z"/>
  <path class="cls-14" d="M365.63,677.32v14.91"/>
  <path class="cls-14" d="M354.65,678.9v15.69"/>
  <path class="cls-14" d="M338.19,679.28v12.17"/>
  <path class="cls-14" d="M316.6,687.12v10.6"/>
  <path class="cls-14" d="M293.46,698.89v-13.34"/>
  <path class="cls-14" d="M224.44,677.32v6.66"/>
  <path class="cls-14" d="M233.44,696.16v-7.85"/>
  <path class="cls-14" d="M269.14,696.94v-9.42"/>
  <path class="cls-8" d="M92.65,947.34v19.26c0,2.24,34.44,4.28,76.9,4.28s76.99-2.04,76.99-4.28v-19.21l-153.89-.04Z"/>
  <path class="cls-8" d="M169.55,951.63c42.47,0,76.9-1.92,76.9-4.28s-34.43-4.28-76.9-4.28-76.9,1.92-76.9,4.28,34.43,4.28,76.9,4.28Z"/>
  <path class="cls-8" d="M228.6,946.8c0,1.5-26.45,2.74-59.07,2.74s-59.05-1.23-59.05-2.74,26.43-2.76,59.05-2.76,59.07,1.23,59.07,2.76Z"/>
  <path class="cls-14" d="M238.78,949.54v14.91"/>
  <path class="cls-14" d="M227.8,951.11v15.69"/>
  <path class="cls-14" d="M211.32,951.49v12.17"/>
  <path class="cls-14" d="M189.75,959.34v10.6"/>
  <path class="cls-14" d="M166.61,971.11v-13.34"/>
  <path class="cls-14" d="M97.57,949.54v6.66"/>
  <path class="cls-14" d="M106.6,968.37v-7.85"/>
  <path class="cls-14" d="M142.29,969.16v-9.41"/>
  <path class="cls-8" d="M97.41,927.61v19.21c0,2.35,34.44,4.26,76.9,4.26s76.9-1.91,76.9-4.26v-19.21H97.41Z"/>
  <path class="cls-8" d="M174.3,931.9c42.47,0,76.9-1.92,76.9-4.28s-34.43-4.28-76.9-4.28-76.9,1.92-76.9,4.28,34.43,4.28,76.9,4.28Z"/>
  <path class="cls-8" d="M174.31,929.81c32.63,0,59.07-1.23,59.07-2.74s-26.45-2.74-59.07-2.74-59.07,1.23-59.07,2.74,26.45,2.74,59.07,2.74Z"/>
  <path class="cls-14" d="M243.53,929.81v14.91"/>
  <path class="cls-14" d="M232.55,931.38v15.69"/>
  <path class="cls-14" d="M216.07,931.76v12.17"/>
  <path class="cls-14" d="M194.5,939.61v10.6"/>
  <path class="cls-14" d="M171.37,951.38v-13.34"/>
  <path class="cls-14" d="M102.32,929.81v6.66"/>
  <path class="cls-14" d="M111.35,948.64v-7.85"/>
  <path class="cls-14" d="M147.04,949.43v-9.41"/>
  <path class="cls-8" d="M100.07,907.86v19.23c0,2.35,34.44,4.26,76.9,4.26s76.9-1.91,76.9-4.26v-19.23H100.07Z"/>
  <path class="cls-8" d="M176.97,912.17c42.47,0,76.9-1.91,76.9-4.28s-34.43-4.28-76.9-4.28-76.9,1.92-76.9,4.28,34.43,4.28,76.9,4.28Z"/>
  <path class="cls-8" d="M236.05,907.32c0,1.52-26.45,2.76-59.07,2.76s-59.05-1.23-59.05-2.76,26.43-2.74,59.05-2.74,59.07,1.23,59.07,2.74Z"/>
  <path class="cls-14" d="M246.2,910.06v14.91"/>
  <path class="cls-14" d="M235.22,911.63v15.69"/>
  <path class="cls-14" d="M218.74,912.03v12.15"/>
  <path class="cls-14" d="M197.17,919.88v10.58"/>
  <path class="cls-14" d="M174.03,931.65v-13.34"/>
  <path class="cls-14" d="M104.99,910.06v6.68"/>
  <path class="cls-14" d="M114.02,928.89v-7.85"/>
  <path class="cls-14" d="M149.71,929.68v-9.41"/>
  <path class="cls-8" d="M97.41,888.13v19.21c0,2.38,34.44,4.28,76.9,4.28s76.9-1.91,76.9-4.28v-19.21H97.41Z"/>
  <path class="cls-8" d="M174.3,892.42c42.47,0,76.9-1.92,76.9-4.28s-34.43-4.28-76.9-4.28-76.9,1.92-76.9,4.28,34.43,4.28,76.9,4.28Z"/>
  <path class="cls-8" d="M174.31,890.33c32.63,0,59.07-1.23,59.07-2.74s-26.45-2.74-59.07-2.74-59.07,1.23-59.07,2.74,26.45,2.74,59.07,2.74Z"/>
  <path class="cls-14" d="M243.53,890.33v14.91"/>
  <path class="cls-14" d="M232.55,891.9v15.69"/>
  <path class="cls-14" d="M216.07,892.3v12.15"/>
  <path class="cls-14" d="M194.5,900.15v10.58"/>
  <path class="cls-14" d="M171.37,911.92v-13.34"/>
  <path class="cls-14" d="M102.32,890.33v6.68"/>
  <path class="cls-14" d="M111.35,909.16v-7.85"/>
  <path class="cls-14" d="M147.04,909.95v-9.42"/>
  <path class="cls-8" d="M101.69,868.4v19.21c0,2.35,34.41,4.28,76.9,4.28s76.88-1.93,76.88-4.28v-19.21H101.69Z"/>
  <path class="cls-8" d="M178.56,872.69c42.47,0,76.9-1.92,76.9-4.28s-34.43-4.28-76.9-4.28-76.9,1.92-76.9,4.28,34.43,4.28,76.9,4.28Z"/>
  <path class="cls-8" d="M237.57,867.96c0,1.5-26.43,2.73-59.05,2.73s-59.07-1.23-59.07-2.73,26.45-2.76,59.07-2.76,59.05,1.14,59.05,2.76Z"/>
  <path class="cls-14" d="M247.8,870.6v14.91"/>
  <path class="cls-14" d="M236.81,872.17v15.69"/>
  <path class="cls-14" d="M220.35,872.55v12.18"/>
  <path class="cls-14" d="M198.77,880.4v10.6"/>
  <path class="cls-14" d="M175.63,892.17v-13.34"/>
  <path class="cls-14" d="M106.6,870.6v6.66"/>
  <path class="cls-14" d="M115.61,889.44v-7.85"/>
  <path class="cls-14" d="M151.3,890.22v-9.42"/>
  <path class="cls-8" d="M91.55,848.68v19.28c0,2.24,34.41,4.26,76.88,4.26s76.9-1.91,76.9-4.26v-19.28H91.55Z"/>
  <path class="cls-8" d="M168.43,852.96c42.47,0,76.9-1.92,76.9-4.28s-34.43-4.28-76.9-4.28-76.9,1.92-76.9,4.28,34.43,4.28,76.9,4.28Z"/>
  <path class="cls-8" d="M227.51,848.14c0,1.5-26.43,2.74-59.07,2.74s-59.05-1.23-59.05-2.74,26.43-2.76,59.05-2.76,59.07,1.23,59.07,2.76Z"/>
  <path class="cls-14" d="M237.66,850.87v14.91"/>
  <path class="cls-14" d="M226.68,852.44v15.69"/>
  <path class="cls-14" d="M210.22,852.82v12.18"/>
  <path class="cls-14" d="M188.63,860.67v10.6"/>
  <path class="cls-14" d="M165.49,872.44v-13.34"/>
  <path class="cls-14" d="M96.46,850.87v6.66"/>
  <path class="cls-14" d="M105.48,869.71v-7.85"/>
  <path class="cls-14" d="M141.17,870.49v-9.41"/>
  <path class="cls-8" d="M246.5,992.36c46.48,0,84.16-37.68,84.16-84.16s-37.68-84.16-84.16-84.16-84.16,37.68-84.16,84.16,37.68,84.16,84.16,84.16Z"/>
  <path class="cls-8" d="M241.56,992.36c46.48,0,84.16-37.68,84.16-84.16s-37.68-84.16-84.16-84.16-84.16,37.68-84.16,84.16,37.68,84.16,84.16,84.16Z"/>
  <path class="cls-8" d="M241.56,981.19c40.32,0,73-32.68,73-73s-32.68-73-73-73-73,32.68-73,73,32.68,73,73,73Z"/>
  <path class="cls-8" d="M619.21,449.21c-144.38-57.64-288.74,58.47-433.1.85v-223.88c144.36,57.62,288.71-58.49,433.1-.85v223.88Z"/>
  <path class="cls-1" d="M594.03,278.53c-20.6-5.49-37.28-23.36-37.28-44.03,0-1.01,0-2,.16-3-102.12-10.42-204.24,40.98-306.34,31.39,0,.99.16,2,.16,3.03,0,20.49-16.7,36.14-37.28,30.83-1.39-.36-2.76-.8-4.1-1.32v96.81c1.35.25,2.71.52,4.1.87,20.58,5.29,37.28,23.05,37.28,43.72,0,2.44-.25,4.87-.74,7.26,102.5,9.93,205-41.9,307.48-31.18-.48-2.44-.71-4.92-.72-7.4,0-20.51,16.68-36.03,37.28-30.54.74.2,1.46.47,2.24.72v-96.65c-.9-.16-1.61-.29-2.24-.49Z"/>
  <path class="cls-4" d="M456.43,328.8c0,29.62-24.06,57.84-53.81,64.01-29.75,6.17-53.81-13.79-53.81-43.56s24.08-57.82,53.81-64.01c29.73-6.19,53.81,13.79,53.81,43.56Z"/>
  <path class="cls-19" d="M539.18,474.18c-28.19,30.78-65.41,51.81-106.32,60.09-40.9,8.27-83.38,3.35-121.31-14.06l10.56-16.66-59.05-2.47,27.37,52.37,10.78-16.97c41.78,19.82,88.82,25.72,134.2,16.85,45.39-8.88,86.73-32.07,117.97-66.17l-14.21-12.98Z"/>
  <path class="cls-19" d="M487.97,168.01l-11.64,15.69,58.76,6.55-23.72-54.03-11.95,16.25c-43.69-24.46-94.52-33-143.81-24.16-49.29,8.84-93.98,34.51-126.45,72.63l14.55,12.42c29.33-34.47,69.63-57.79,114.13-66.05,44.5-8.26,90.49-.95,130.24,20.7h-.11Z"/>
  <path class="cls-17" d="M1046.41,992.05h-95.91l30.76-33.45s11.21-4.62,20-2.04c8.79,2.58,45.15,35.49,45.15,35.49Z"/>
  <path class="cls-2" d="M989.87,629.46l64.03,355.08c.23,1.26.07,2.55-.44,3.72-.51,1.17-1.36,2.16-2.44,2.84-1.08.69-2.33,1.03-3.61,1-1.28-.03-2.51-.44-3.56-1.18l-41.47-29.37c-2.83-2-6.27-2.93-9.72-2.63-3.45.3-6.68,1.82-9.11,4.29l-34.3,37.01c-.46.48-1.05.8-1.7.94-.65.14-1.32.09-1.94-.15-.62-.24-1.15-.66-1.54-1.2-.39-.54-.6-1.18-.63-1.84l-18.27-349.52,64.7-19.01Z"/>
  <path class="cls-17" d="M983.55,963.3c1.98-2,4.5-3.38,7.26-3.97l2.58-.38-52.03-.76,2.08,39.84,1.86,2.62c.6.4,1.33.58,2.06.5.72-.08,1.39-.42,1.89-.95l34.3-36.9Z"/>
  <path class="cls-10" d="M299.51,1000.88h646.84l43.52-371.4H343.03l-43.52,371.4Z"/>
  <path class="cls-19" d="M645.89,744.09l2.24-18.5c-.22.11-.46.2-.69.27l-1.12.31-1.12.29-.72.22.33-2.89c.35-.11.7-.25,1.03-.4.42-.16.87-.36,1.32-.56.45-.22.89-.46,1.32-.72.38-.23.73-.51,1.05-.83h2.98l-2.67,22.8h-3.97Z"/>
  <path class="cls-19" d="M727.27,744.09l.31-2.76,6.72-8.7,1.37-1.82c.43-.57.81-1.18,1.12-1.82.32-.66.53-1.36.61-2.08.12-.65.04-1.32-.22-1.93-.13-.23-.33-.42-.57-.53-.24-.12-.51-.17-.77-.14-.53-.01-1.05.16-1.46.49-.4.36-.69.82-.85,1.32-.19.59-.32,1.2-.38,1.82v.94h-3.83l.11-1.01c.12-1.24.47-2.45,1.03-3.56.51-1,1.29-1.82,2.24-2.4,1.09-.62,2.32-.92,3.57-.87.78-.08,1.56.02,2.29.3s1.39.71,1.93,1.27c.46.64.78,1.37.94,2.14.16.77.16,1.57,0,2.34-.08.88-.31,1.75-.67,2.56-.36.79-.79,1.54-1.3,2.24-.51.69-1.07,1.41-1.66,2.24l-5.51,7.08h6.93l-.36,3.12-11.57-.24Z"/>
  <path class="cls-19" d="M817.58,744.45c-1.18.07-2.35-.21-3.36-.81-.8-.53-1.38-1.32-1.64-2.24-.28-1.13-.34-2.3-.18-3.45v-.78h3.86v.67c-.07.61-.07,1.23,0,1.84,0,.22.04.44.13.64.09.2.22.38.38.53.16.15.35.26.56.32.21.07.43.09.65.06.49.03.98-.12,1.37-.42.35-.34.61-.76.74-1.23.18-.64.31-1.29.38-1.95.15-.91.07-1.85-.22-2.73-.19-.36-.49-.66-.85-.85-.36-.19-.76-.28-1.17-.25h-.65l.38-3.12h.58c.41.03.82-.03,1.21-.17.39-.14.74-.37,1.03-.66.54-.76.85-1.65.9-2.58.13-.75.07-1.52-.18-2.24-.14-.29-.37-.52-.65-.67-.28-.15-.6-.21-.92-.16-.34-.03-.69.04-.99.2-.31.16-.56.4-.73.7-.39.73-.63,1.53-.72,2.35v.83h-3.86v-1.1c.11-1.16.48-2.29,1.08-3.3.54-.89,1.32-1.61,2.24-2.08,1.02-.51,2.15-.75,3.3-.72,1.1-.05,2.2.19,3.18.7.81.45,1.44,1.17,1.77,2.04.37,1.05.48,2.17.31,3.27-.1,1.2-.53,2.36-1.23,3.34-.59.8-1.43,1.39-2.38,1.68.57.17,1.07.51,1.46.96.43.52.73,1.15.85,1.82.14.89.14,1.8,0,2.69-.13,1.25-.47,2.47-1.01,3.61-.49,1.02-1.27,1.87-2.24,2.44-1.03.57-2.2.85-3.39.83Z"/>
  <path class="cls-19" d="M902.75,744.09l.65-5.58h-6.73l.38-3.34,7.56-13.88h4.48l-1.66,14.1h2.24l-.36,3.12h-2.24l-.67,5.58h-3.65ZM900.22,735.39h3.57l1.14-9.91-4.71,9.91Z"/>
  <path class="cls-19" d="M389.08,797c-1.23.12-2.47-.16-3.54-.78-.78-.58-1.29-1.44-1.43-2.4-.18-1.2-.18-2.43,0-3.63h3.81c-.06.68-.06,1.36,0,2.04,0,.5.15.99.45,1.39.17.17.38.31.61.39.23.08.47.11.71.08.28.02.56-.03.81-.14.26-.11.48-.29.65-.51.38-.52.64-1.13.74-1.77.16-.76.29-1.64.42-2.64.05-.75.05-1.5,0-2.24,0-.55-.14-1.08-.42-1.55-.16-.19-.37-.34-.61-.44-.23-.09-.49-.13-.74-.1-.52,0-1.03.19-1.41.54-.43.4-.76.91-.96,1.46h-3.3l1.7-12.71h10.18l-.4,3.5h-6.97l-.87,5.49c.37-.37.82-.65,1.32-.81.58-.22,1.2-.35,1.82-.38.49-.07.99-.05,1.47.08.48.12.93.34,1.32.64.39.3.72.67.97,1.1.24.43.4.9.46,1.39.22,1.27.22,2.57,0,3.84-.12,1.12-.33,2.23-.63,3.32-.24.94-.64,1.84-1.19,2.65-.51.74-1.21,1.33-2.02,1.72-.93.37-1.93.54-2.94.49Z"/>
  <path class="cls-19" d="M476.85,796.96c-1.19.07-2.36-.28-3.32-.99-.82-.68-1.39-1.62-1.61-2.67-.27-1.26-.33-2.56-.16-3.83l.94-7.98c.14-1.38.48-2.73.98-4.01.46-1.14,1.24-2.12,2.24-2.83,1.1-.75,2.42-1.11,3.74-1.05,1.1-.05,2.2.18,3.18.67.77.41,1.35,1.1,1.61,1.93.3,1.01.38,2.08.22,3.12v.18c.01.06.01.12,0,.18h-3.88c.17-.74.17-1.5,0-2.24-.18-.52-.67-.76-1.48-.76-.46-.02-.91.14-1.26.45-.39.42-.68.93-.83,1.48-.27.89-.45,1.81-.54,2.74l-.31,2.74c.35-.45.8-.8,1.32-1.03.6-.26,1.25-.39,1.9-.38,1.02-.08,2.04.21,2.85.83.65.59,1.09,1.38,1.25,2.24.18,1.13.18,2.28,0,3.41-.15,1.38-.49,2.72-1.03,3.99-.48,1.11-1.26,2.06-2.24,2.76-1.06.73-2.32,1.1-3.61,1.08ZM477.23,793.95c.24.02.48-.02.71-.11.22-.09.43-.23.59-.41.36-.39.62-.87.76-1.39.19-.7.33-1.41.42-2.13,0-.81.13-1.55.16-2.24.03-.53-.09-1.07-.34-1.55-.15-.21-.36-.37-.59-.47-.24-.1-.49-.14-.75-.11-.31,0-.63.06-.92.18-.27.12-.53.28-.76.47-.19.17-.36.36-.51.56l-.43,3.59c-.07.59-.07,1.18,0,1.77.04.47.21.92.49,1.3.13.18.31.32.51.42.2.1.42.15.65.14v-.02Z"/>
  <path class="cls-19" d="M553.26,796.66l6.84-19.82h-6.17l.36-3h10l-.29,2.4-6.97,20.42h-3.77Z"/>
  <path class="cls-19" d="M642.64,796.96c-1.2.06-2.38-.23-3.41-.85-.81-.59-1.38-1.46-1.59-2.44-.25-1.2-.3-2.42-.13-3.63.06-.61.19-1.21.38-1.79.18-.53.42-1.04.72-1.52.28-.44.62-.84,1.01-1.19.37-.35.79-.64,1.25-.85-.65-.51-1.16-1.17-1.48-1.93-.39-.99-.51-2.06-.36-3.12.12-1.13.45-2.23.99-3.23.48-.89,1.21-1.61,2.11-2.09,1.01-.5,2.12-.75,3.25-.72,1.07-.05,2.14.21,3.07.74.76.48,1.33,1.22,1.59,2.09.56,2.14.25,4.41-.85,6.32-.49.77-1.14,1.43-1.91,1.93.4.21.76.5,1.05.85.3.35.55.75.72,1.19.2.49.32,1,.36,1.52.07.6.07,1.2,0,1.79-.12,1.26-.45,2.49-.99,3.63-.49,1.01-1.27,1.86-2.24,2.44-1.09.59-2.31.89-3.54.85ZM642.98,794.02c.27.01.54-.03.79-.13.25-.1.48-.25.67-.45.37-.4.64-.88.78-1.41.16-.57.27-1.16.34-1.75.06-.62.06-1.24,0-1.86-.01-.51-.17-1.01-.45-1.43-.15-.2-.35-.35-.58-.45-.23-.1-.48-.13-.72-.11-.26-.01-.52.03-.77.13-.24.1-.46.24-.65.43-.38.4-.66.9-.81,1.43-.21.6-.34,1.23-.4,1.86-.06.59-.06,1.18,0,1.77,0,.51.16,1,.45,1.41.17.19.38.33.61.42.23.09.48.12.73.1v.05ZM644.26,783.12c.44-.02.85-.19,1.17-.49.35-.37.6-.81.74-1.3.17-.6.3-1.22.38-1.84.13-.75.07-1.52-.18-2.24-.11-.26-.3-.48-.54-.62-.24-.15-.52-.21-.8-.18-.3,0-.61.06-.88.2-.27.14-.5.35-.67.6-.39.63-.63,1.34-.69,2.08-.07.63-.07,1.26,0,1.88.03.47.19.91.45,1.3.12.17.27.31.45.42s.38.17.58.19Z"/>
  <path class="cls-19" d="M727.05,796.96c-1.09.05-2.18-.18-3.16-.67-.78-.42-1.37-1.12-1.64-1.97-.3-1.02-.38-2.09-.22-3.14v-.31h3.72c-.14.75-.1,1.51.11,2.24.18.49.69.76,1.52.76.23.01.45-.03.67-.11.21-.08.4-.21.57-.36.39-.42.66-.93.78-1.48.26-.89.44-1.81.54-2.74l.31-2.74c-.33.46-.78.8-1.3,1.01-.61.26-1.27.39-1.93.4-1.02.09-2.03-.22-2.83-.85-.68-.64-1.12-1.5-1.25-2.42-.18-1.14-.18-2.29,0-3.43.13-1.36.49-2.7,1.05-3.95.48-1.09,1.26-2.02,2.24-2.69,1.07-.67,2.32-1,3.59-.96,1.18-.07,2.35.26,3.32.94.83.65,1.4,1.57,1.61,2.6.29,1.25.35,2.54.18,3.81l-.96,8.07c-.14,1.39-.47,2.74-.98,4.04-.44,1.13-1.17,2.11-2.13,2.85-1.11.78-2.45,1.17-3.81,1.1ZM728.55,785.01c.46.01.92-.12,1.3-.38.31-.25.59-.54.83-.85l.43-3.54c.05-.6.05-1.2,0-1.79-.03-.47-.2-.92-.47-1.3-.15-.17-.33-.3-.53-.39-.21-.09-.43-.12-.65-.11-.24,0-.47.04-.69.13-.22.09-.42.22-.59.39-.37.4-.63.88-.76,1.41-.22.69-.36,1.39-.42,2.11-.1.75-.15,1.49-.16,2.24-.05.54.07,1.08.34,1.55.16.21.37.37.62.47.25.1.51.12.77.07Z"/>
  <path class="cls-19" d="M808.68,796.66l2.24-18.49-.7.24c-.37.13-.74.23-1.12.31l-1.1.31c-.24.05-.49.13-.72.22l.34-2.91,1.03-.38,1.32-.58c.45-.22.9-.45,1.32-.72.37-.24.72-.51,1.03-.83h2.98l-2.67,22.82h-3.97Z"/>
  <path class="cls-19" d="M825.74,797c-1.13.05-2.25-.24-3.21-.85-.79-.55-1.38-1.33-1.68-2.24-.35-1.11-.44-2.28-.27-3.43l1.19-10.11c.12-1.23.47-2.42,1.03-3.52.53-.96,1.3-1.78,2.24-2.35,1.06-.58,2.26-.87,3.48-.83,1.15-.06,2.29.23,3.27.83.8.58,1.38,1.41,1.66,2.35.31,1.15.38,2.34.22,3.52l-1.19,10.11c-.13,1.2-.5,2.37-1.08,3.43-.53.93-1.31,1.71-2.24,2.24-1.04.6-2.23.89-3.43.85ZM826.14,793.64c.25.01.5-.03.73-.12.23-.09.44-.24.61-.42.35-.36.59-.8.72-1.28.15-.49.26-.99.31-1.5l1.19-10c.03-.52.03-1.03,0-1.55,0-.47-.14-.92-.38-1.32-.15-.19-.35-.34-.57-.43-.22-.1-.47-.13-.71-.1-.26-.02-.51.03-.75.12-.24.09-.46.24-.64.42-.32.39-.56.84-.69,1.32-.14.51-.24,1.02-.31,1.55l-1.17,10c-.04.5-.04,1,0,1.5.04.45.18.89.43,1.28.14.19.33.34.55.43.22.1.45.13.69.11Z"/>
  <path class="cls-19" d="M893.13,796.66l2.24-18.5-.69.25c-.37.12-.74.23-1.12.31l-1.12.31c-.24.06-.49.13-.72.22l.34-2.91,1.03-.38,1.32-.58c.46-.21.9-.45,1.32-.72.36-.25.68-.54.96-.87h3.01l-2.69,22.82-3.88.04Z"/>
  <path class="cls-19" d="M906.99,796.66l2.24-18.49-.69.24c-.37.12-.74.23-1.12.31l-1.12.31c-.24.05-.48.13-.72.22l.34-2.91,1.03-.38,1.32-.58c.46-.21.9-.45,1.32-.72.38-.23.73-.51,1.03-.83h2.98l-2.67,22.82h-3.95Z"/>
  <path class="cls-19" d="M380.2,849.22l2.24-18.5-.69.25-1.12.33-1.12.29c-.24.05-.47.13-.69.22l.34-2.92,1.03-.38,1.32-.58c.45-.22.9-.45,1.32-.72.37-.24.71-.51,1.03-.81h2.98l-2.67,22.8h-3.97Z"/>
  <path class="cls-19" d="M390.94,849.22l.33-2.76,6.73-8.7,1.39-1.84c.42-.57.8-1.18,1.12-1.82.3-.65.5-1.35.58-2.06.13-.66.05-1.34-.22-1.95-.13-.22-.33-.41-.57-.53-.23-.12-.5-.17-.76-.14-.53-.03-1.06.16-1.46.51-.4.35-.69.81-.85,1.32-.19.58-.32,1.19-.4,1.79l-.11.96h-3.84l.13-1.01c.12-1.24.46-2.45,1.01-3.56.51-1,1.29-1.84,2.24-2.42,1.09-.62,2.32-.92,3.57-.87.78-.07,1.56.03,2.29.31.73.28,1.39.72,1.92,1.29.46.64.78,1.37.94,2.14.16.77.16,1.57,0,2.34-.1.88-.33,1.73-.7,2.53-.36.79-.79,1.54-1.3,2.24-.51.7-1.05,1.39-1.66,2.13l-5.49,7.11h6.93l-.38,3.12-11.46-.13Z"/>
  <path class="cls-19" d="M467.48,849.22l2.24-18.5-.69.25-1.12.33-1.1.29c-.24.05-.48.13-.72.22l.34-2.92,1.03-.38,1.32-.58c.45-.22.9-.45,1.32-.72.37-.24.71-.51,1.03-.81h2.98l-2.67,22.8h-3.97Z"/>
  <path class="cls-19" d="M484.18,849.55c-1.18.06-2.34-.22-3.36-.81-.8-.52-1.37-1.32-1.61-2.24-.3-1.12-.37-2.29-.2-3.43v-.81h3.86v.69c-.06.6-.06,1.21,0,1.82.02.44.19.85.49,1.17.35.27.79.4,1.23.38.49.03.98-.12,1.37-.42.36-.33.61-.76.74-1.23.18-.63.31-1.28.38-1.93.16-.92.08-1.87-.22-2.76-.19-.36-.48-.65-.84-.84-.35-.19-.76-.27-1.16-.24h-.67l.36-3.14h.58c.41.03.82-.03,1.21-.17s.74-.37,1.03-.66c.55-.75.86-1.65.9-2.58.13-.75.07-1.52-.18-2.24-.14-.29-.37-.52-.65-.67-.28-.15-.6-.21-.92-.16-.35-.03-.69.05-1,.21-.31.16-.56.41-.73.71-.37.7-.62,1.46-.72,2.24v.85h-3.86l.13-1.1c.09-1.18.46-2.31,1.07-3.32.54-.89,1.32-1.61,2.24-2.08,1.03-.49,2.15-.74,3.3-.72,1.1-.03,2.19.21,3.18.69.81.46,1.44,1.19,1.77,2.06.38,1.05.49,2.17.31,3.27-.09,1.2-.52,2.35-1.23,3.32-.58.81-1.42,1.4-2.38,1.68.57.19,1.09.53,1.48.99.42.52.71,1.14.83,1.79.16.89.16,1.8,0,2.69-.13,1.25-.46,2.47-.99,3.61-.49,1.02-1.27,1.87-2.24,2.44-1.07.62-2.29.94-3.52.92Z"/>
  <path class="cls-19" d="M549.2,849.22l2.24-18.5-.69.25-1.12.33-1.12.29-.72.22.36-2.92,1.03-.38,1.32-.58c.45-.22.9-.45,1.32-.72.37-.24.71-.51,1.03-.81h2.98l-2.67,22.8h-3.97Z"/>
  <path class="cls-19" d="M566.44,849.22l.65-5.61h-6.72l.4-3.32,7.56-13.88h4.49l-1.64,14.1h2.24l-.36,3.09h-2.35l-.65,5.61h-3.61ZM563.9,840.52h3.54l1.17-9.91-4.71,9.91Z"/>
  <path class="cls-19" d="M633.58,849.22l2.24-18.5-.69.25-1.12.33-1.12.29c-.24.06-.49.13-.72.22l.33-2.92,1.03-.38,1.32-.58c.46-.21.9-.45,1.32-.72.37-.23.72-.5,1.03-.81h2.98l-2.67,22.8h-3.95Z"/>
  <path class="cls-19" d="M650.08,849.55c-1.2.08-2.4-.21-3.43-.85-.78-.57-1.3-1.43-1.46-2.38-.18-1.2-.18-2.43,0-3.63h3.79c-.06.68-.06,1.36,0,2.04,0,.49.15.97.45,1.37.17.18.37.32.6.4.23.08.48.11.72.08.27.02.55-.03.8-.14.26-.11.48-.28.66-.49.36-.54.61-1.15.72-1.79.2-.87.34-1.76.42-2.65.1-.74.15-1.49.13-2.24,0-.55-.16-1.08-.42-1.55-.17-.19-.37-.34-.61-.44-.23-.09-.49-.13-.74-.1-.26,0-.52.04-.76.13-.24.09-.46.23-.65.41-.43.4-.76.9-.96,1.46h-3.36l1.73-12.69h10.25l-.4,3.48h-6.99l-.87,5.49c.37-.36.83-.64,1.32-.81.59-.21,1.21-.34,1.84-.36,1.01-.12,2.03.14,2.85.74.72.64,1.2,1.51,1.37,2.47.2,1.26.2,2.55,0,3.81-.14,1.13-.35,2.24-.63,3.34-.25.94-.66,1.82-1.21,2.62-.51.74-1.21,1.34-2.02,1.73-.98.43-2.05.62-3.12.56Z"/>
  <path class="cls-19" d="M718.06,849.22l2.24-18.5-.69.25-1.12.33-1.12.29c-.24.05-.47.13-.7.22l.34-2.92,1.03-.38,1.32-.58c.45-.22.9-.45,1.32-.72.37-.24.71-.51,1.03-.81h2.98l-2.67,22.8h-3.97Z"/>
  <path class="cls-19" d="M735.12,849.53c-1.19.06-2.36-.29-3.32-.99-.82-.69-1.39-1.64-1.61-2.69-.27-1.25-.32-2.54-.16-3.81l.94-8c.14-1.38.48-2.73.98-4.01.46-1.14,1.24-2.12,2.24-2.83,1.1-.75,2.42-1.11,3.74-1.05,1.1-.05,2.2.18,3.18.67.76.42,1.34,1.11,1.61,1.93.31,1.01.39,2.08.22,3.12v.22c.01.07.01.13,0,.2h-3.88c.16-.74.16-1.5,0-2.24-.18-.52-.67-.76-1.48-.76-.45,0-.89.15-1.23.45-.4.41-.7.92-.85,1.48-.26.89-.43,1.81-.51,2.74l-.34,2.74c.35-.45.8-.8,1.32-1.03.61-.26,1.27-.39,1.93-.38,1.01-.07,2.01.22,2.83.83.66.58,1.1,1.38,1.25,2.24.18,1.13.18,2.28,0,3.41-.15,1.38-.49,2.72-1.03,3.99-.48,1.11-1.26,2.07-2.24,2.78-1.07.71-2.33,1.06-3.61,1.01ZM735.5,846.5c.24.01.48-.02.7-.11.22-.08.43-.22.6-.39.37-.4.63-.89.76-1.41.19-.69.33-1.39.42-2.11,0-.83.13-1.57.16-2.24.03-.53-.09-1.07-.34-1.55-.15-.21-.36-.37-.59-.47-.24-.1-.49-.14-.75-.11-.31,0-.63.06-.92.18-.26.12-.51.28-.74.47-.2.17-.38.36-.54.56l-.43,3.59c-.06.59-.06,1.18,0,1.77.04.47.21.92.49,1.3.14.17.32.31.52.4.2.09.42.13.64.12Z"/>
  <path class="cls-19" d="M802.54,849.22l2.24-18.5-.69.25-1.12.33-1.12.29c-.24.06-.49.13-.72.22l.33-2.92,1.03-.38,1.32-.58c.46-.21.9-.45,1.32-.72.37-.23.72-.5,1.03-.81h3l-2.69,22.8h-3.95Z"/>
  <path class="cls-19" d="M814.33,849.22l6.86-19.82h-6.17l.36-2.98h10l-.29,2.38-6.86,20.43h-3.9Z"/>
  <path class="cls-19" d="M886.99,849.22l2.24-18.5-.69.25-1.12.33-1.12.29-.72.22.36-2.92,1.03-.38,1.32-.58c.45-.22.89-.45,1.32-.72.37-.24.71-.51,1.03-.81h2.98l-2.67,22.8h-3.97Z"/>
  <path class="cls-19" d="M903.72,849.53c-1.19.06-2.38-.24-3.39-.87-.82-.59-1.39-1.46-1.59-2.44-.28-1.18-.32-2.41-.13-3.61.06-.62.19-1.23.38-1.82.18-.53.42-1.03.72-1.5.28-.45.62-.85,1.01-1.21.37-.34.78-.63,1.23-.85-.64-.51-1.14-1.18-1.46-1.93-.4-.99-.52-2.06-.36-3.12.11-1.13.44-2.23.99-3.23.49-.88,1.22-1.61,2.11-2.08,1-.5,2.11-.75,3.23-.72,1.07-.05,2.14.21,3.07.74.76.48,1.34,1.22,1.61,2.08.3,1.04.37,2.13.2,3.21-.12,1.11-.49,2.18-1.07,3.14-.49.76-1.13,1.41-1.88,1.91.4.22.75.51,1.05.85.3.36.55.77.72,1.21.19.48.3.99.36,1.5.07.6.07,1.21,0,1.82-.1,1.25-.42,2.47-.96,3.61-.49,1.02-1.27,1.87-2.24,2.44-1.09.62-2.33.93-3.59.87ZM904.07,846.57c.27,0,.53-.04.79-.13.25-.1.48-.24.67-.43.37-.4.63-.9.76-1.43.18-.57.3-1.16.36-1.75.06-.61.06-1.23,0-1.84-.02-.52-.18-1.02-.47-1.46-.15-.2-.35-.35-.58-.45s-.48-.14-.73-.11c-.26-.01-.51.03-.76.13-.24.1-.46.24-.63.43-.38.41-.65.9-.81,1.44-.21.6-.34,1.23-.4,1.86-.04.59-.04,1.18,0,1.77.02.51.18,1,.47,1.41.15.2.36.35.59.45.23.1.48.13.73.11ZM905.35,835.67c.44,0,.85-.18,1.16-.49.33-.37.58-.8.72-1.28.19-.61.33-1.23.4-1.86.11-.71.05-1.43-.18-2.11-.1-.27-.29-.49-.53-.64-.24-.15-.53-.21-.81-.19-.31,0-.61.06-.89.21-.27.15-.5.36-.66.62-.41.62-.66,1.34-.72,2.08-.06.62-.06,1.24,0,1.86.02.47.17.92.45,1.3.13.15.29.28.47.36.18.08.38.13.58.13Z"/>
  <path class="cls-19" d="M374.04,901.77l2.24-18.5-.69.25-1.12.34-1.12.29c-.24.06-.48.13-.72.22l.34-2.89,1.03-.4,1.32-.58c.46-.21.9-.44,1.32-.72.38-.22.73-.49,1.03-.81h2.98l-2.67,22.8h-3.95Z"/>
  <path class="cls-19" d="M390.72,902.08c-1.09.05-2.18-.18-3.16-.67-.76-.43-1.34-1.14-1.61-1.97-.31-1.02-.39-2.11-.22-3.16v-.31h3.7c-.12.75-.08,1.51.11,2.24.2.51.72.76,1.55.76.45.01.89-.15,1.23-.45.38-.43.65-.94.78-1.5.25-.89.43-1.8.51-2.71l.31-2.74c-.34.45-.78.8-1.3,1.01-.61.26-1.27.39-1.93.38-1.01.1-2.02-.21-2.8-.85-.68-.64-1.13-1.48-1.28-2.4-.16-1.14-.16-2.29,0-3.43.14-1.37.51-2.71,1.07-3.97.48-1.08,1.26-2,2.24-2.67,1.06-.67,2.31-1.01,3.56-.96,1.19-.07,2.36.26,3.34.94.83.65,1.4,1.57,1.61,2.6.28,1.24.34,2.53.16,3.79l-.94,8.09c-.14,1.38-.48,2.73-.99,4.01-.47,1.14-1.24,2.14-2.24,2.87-1.09.76-2.4,1.14-3.72,1.1ZM392.15,890.06c.47.02.93-.12,1.3-.4.32-.24.61-.53.85-.85l.43-3.54c.06-.6.06-1.2,0-1.79-.03-.46-.18-.9-.45-1.28-.14-.17-.32-.31-.53-.39-.21-.09-.43-.12-.66-.1-.24-.01-.47.02-.69.11-.22.08-.42.22-.59.38-.37.4-.64.89-.78,1.41-.2.69-.33,1.39-.4,2.11-.11.74-.16,1.49-.16,2.24-.05.54.07,1.09.33,1.57.17.22.39.39.65.49.26.1.54.11.81.05h-.11Z"/>
  <path class="cls-19" d="M458.22,901.77l.31-2.76,6.73-8.7,1.39-1.84c.42-.57.79-1.18,1.1-1.82.32-.65.53-1.34.6-2.06.12-.66.04-1.34-.22-1.95-.13-.22-.33-.41-.56-.53-.24-.12-.5-.17-.76-.14-.54-.01-1.07.17-1.48.51-.39.37-.68.82-.85,1.32-.19.58-.32,1.18-.38,1.79v.96h-3.83l.11-1.01c.13-1.24.48-2.45,1.03-3.57.5-1.01,1.28-1.85,2.24-2.42,1.09-.6,2.32-.9,3.56-.85.77-.08,1.55.03,2.28.3.73.27,1.38.71,1.91,1.27.46.64.78,1.37.95,2.14.17.77.17,1.57.02,2.34-.1.87-.33,1.73-.69,2.53-.36.79-.79,1.54-1.3,2.24-.52.69-1.08,1.41-1.66,2.13l-5.52,7.11h6.93l-.36,3.12-11.55-.13Z"/>
  <path class="cls-19" d="M481.36,902.1c-1.13.07-2.26-.23-3.21-.85-.8-.54-1.4-1.33-1.7-2.24-.35-1.11-.44-2.28-.27-3.43l1.19-10.11c.13-1.22.49-2.41,1.05-3.5.53-.94,1.3-1.71,2.24-2.24,1.05-.6,2.24-.89,3.45-.85,1.15-.06,2.29.24,3.27.85.78.54,1.37,1.33,1.66,2.24.32,1.14.39,2.33.22,3.5l-1.19,10.11c-.12,1.2-.48,2.37-1.05,3.43-.54.93-1.31,1.7-2.24,2.24-1.04.6-2.23.9-3.43.85ZM481.74,898.76c.25.01.51-.03.74-.12.24-.09.45-.24.63-.42.33-.38.57-.82.72-1.3.13-.49.24-.98.31-1.48l1.16-10c.04-.52.04-1.05,0-1.57-.01-.46-.14-.91-.38-1.3-.15-.19-.34-.33-.56-.43-.22-.09-.46-.13-.7-.11-.26-.02-.51.02-.75.11-.24.09-.46.24-.64.42-.34.37-.58.82-.72,1.3-.14.51-.24,1.04-.29,1.57l-1.19,10c-.05.49-.05.99,0,1.48.03.46.18.91.42,1.3.14.19.33.34.55.43.22.09.45.13.69.11Z"/>
  <path class="cls-19" d="M539.87,901.77l.31-2.76,6.73-8.7,1.39-1.84c.42-.57.78-1.18,1.1-1.82.32-.65.53-1.34.6-2.06.12-.66.04-1.34-.22-1.95-.13-.22-.33-.41-.56-.53-.23-.12-.5-.17-.76-.14-.54-.01-1.07.17-1.48.51-.39.37-.68.82-.85,1.32-.19.58-.32,1.18-.38,1.79l-.11.96h-3.83l.11-1.01c.13-1.24.48-2.45,1.03-3.57.49-1.01,1.27-1.85,2.24-2.42,1.09-.6,2.32-.9,3.57-.85.77-.08,1.55.03,2.28.3.73.27,1.38.71,1.91,1.27.46.64.78,1.37.95,2.14.17.77.17,1.57.01,2.34-.1.87-.33,1.73-.69,2.53-.36.79-.79,1.54-1.3,2.24-.51.69-1.08,1.41-1.66,2.13l-5.54,6.97h6.93l-.36,3.12h-11.41Z"/>
  <path class="cls-19" d="M559.78,901.77l2.24-18.5-.67.25-1.12.34-1.12.29c-.25.05-.49.13-.72.22l.34-2.89,1.03-.4,1.32-.58c.46-.21.9-.44,1.32-.72.37-.23.72-.5,1.03-.81h2.98l-2.67,22.8h-3.97Z"/>
  <path class="cls-19" d="M624.32,901.77l.33-2.76,6.73-8.7,1.39-1.84c.42-.57.8-1.18,1.12-1.82.3-.65.5-1.35.58-2.06.13-.66.05-1.34-.22-1.95-.13-.22-.33-.41-.57-.53-.23-.12-.5-.17-.76-.15-.53-.02-1.06.16-1.46.51-.4.36-.69.82-.85,1.32-.19.58-.32,1.18-.4,1.79l-.11.96h-3.81v-1.01c.12-1.24.47-2.45,1.01-3.57.51-1,1.29-1.84,2.24-2.42,1.09-.6,2.32-.9,3.57-.85.78-.08,1.56.03,2.29.3.73.27,1.39.71,1.93,1.27.46.64.78,1.37.94,2.14.16.77.16,1.57,0,2.34-.09.88-.33,1.73-.69,2.53-.36.79-.79,1.54-1.3,2.24-.51.69-1.05,1.41-1.66,2.13l-5.49,7.11h6.93l-.38,3.12-11.34-.13Z"/>
  <path class="cls-19" d="M641.12,901.77l.31-2.76,6.73-8.7,1.39-1.84c.42-.57.79-1.18,1.1-1.82.32-.65.53-1.34.6-2.06.12-.66.04-1.34-.22-1.95-.13-.22-.33-.41-.56-.53-.24-.12-.5-.17-.76-.14-.54-.01-1.07.17-1.48.51-.39.36-.67.82-.83,1.32-.21.58-.35,1.18-.4,1.79l-.11.96h-3.83l.11-1.01c.14-1.24.49-2.44,1.03-3.57.49-1.01,1.27-1.85,2.24-2.42,1.09-.6,2.32-.9,3.57-.85.77-.08,1.55.03,2.28.3.73.27,1.38.71,1.91,1.27.46.64.79,1.37.96,2.14s.17,1.57,0,2.35c-.1.87-.33,1.73-.69,2.53-.36.79-.79,1.54-1.3,2.24-.52.69-1.08,1.41-1.66,2.13l-5.52,7.11h6.93l-.36,3.12-11.43-.13Z"/>
  <path class="cls-19" d="M708.8,901.77l.31-2.76,6.73-8.7,1.37-1.84c.43-.57.81-1.18,1.12-1.82.32-.65.53-1.34.6-2.06.12-.66.04-1.34-.22-1.95-.14-.23-.34-.41-.57-.53-.24-.12-.51-.17-.77-.14-.53,0-1.05.18-1.46.51-.39.37-.68.82-.85,1.32-.19.58-.32,1.18-.38,1.79v.96h-4.06l.11-1.01c.12-1.24.47-2.45,1.03-3.56.5-1,1.28-1.84,2.24-2.42,1.09-.6,2.32-.89,3.57-.85.78-.08,1.56.02,2.29.29.73.27,1.39.71,1.93,1.28.46.64.78,1.37.95,2.14.17.77.17,1.57.02,2.34-.1.88-.33,1.73-.69,2.53-.36.79-.79,1.54-1.3,2.24-.51.69-1.08,1.41-1.66,2.13l-5.51,7.11h6.93l-.36,3.12-11.34-.13Z"/>
  <path class="cls-19" d="M731.45,902.1c-1.18.06-2.34-.22-3.36-.81-.8-.52-1.38-1.32-1.61-2.24-.3-1.12-.37-2.3-.2-3.45v-.78h3.86v.67c-.05.6-.05,1.21,0,1.82.02.44.19.85.49,1.17.35.28.79.42,1.23.38.49.03.98-.11,1.37-.4.36-.34.61-.78.74-1.26.18-.63.3-1.27.38-1.93.16-.93.08-1.87-.22-2.76-.19-.35-.48-.64-.84-.83-.35-.19-.76-.28-1.16-.24h-.65l.36-3.14h.58c.41.04.83-.01,1.21-.16.39-.15.74-.37,1.03-.67.55-.74.86-1.63.9-2.56.13-.75.07-1.52-.18-2.24-.22-.54-.74-.81-1.57-.81-.34-.03-.69.04-.99.2-.31.16-.56.4-.73.7-.37.7-.61,1.46-.72,2.24v.85h-3.86l.13-1.1c.04-1.17.36-2.31.92-3.34.55-.88,1.32-1.6,2.24-2.08,1.03-.49,2.16-.74,3.3-.72,1.11-.04,2.2.21,3.19.72.82.44,1.45,1.17,1.77,2.04.38,1.05.49,2.17.31,3.27-.1,1.2-.52,2.35-1.23,3.32-.58.8-1.41,1.4-2.36,1.7.57.18,1.07.51,1.46.96.42.52.71,1.14.83,1.79.16.89.16,1.8,0,2.69-.13,1.26-.46,2.48-.99,3.63-.5,1.01-1.28,1.85-2.24,2.42-1.03.61-2.19.93-3.39.94Z"/>
  <path class="cls-19" d="M793.26,901.77l.33-2.76,6.73-8.7,1.39-1.84c.42-.57.8-1.18,1.12-1.82.3-.65.5-1.35.58-2.06.12-.66.04-1.34-.23-1.95-.13-.22-.33-.41-.57-.53-.23-.12-.5-.17-.76-.15-.54-.01-1.06.17-1.48.51-.38.37-.67.82-.83,1.32-.2.58-.33,1.18-.4,1.79l-.11.96h-3.84l.13-1.01c.12-1.24.47-2.45,1.01-3.57.5-1,1.28-1.84,2.24-2.42,1.09-.6,2.32-.9,3.57-.85.78-.08,1.56.03,2.29.3.73.27,1.39.71,1.93,1.27.46.64.78,1.37.94,2.14.16.77.16,1.57,0,2.34-.09.88-.32,1.73-.69,2.53-.36.79-.79,1.54-1.3,2.24-.51.69-1.05,1.41-1.66,2.13l-5.6,6.97h6.93l-.38,3.12h-11.34Z"/>
  <path class="cls-19" d="M816.41,901.77l.65-5.6h-6.73l.38-3.32,7.58-13.88h4.49l-1.66,14.1h2.24l-.36,3.09h-2.24l-.65,5.6h-3.7ZM813.88,893.07h3.54l1.17-9.91-4.71,9.91Z"/>
  <path class="cls-19" d="M877.73,901.77l.31-2.76,6.73-8.7,1.37-1.84c.43-.57.81-1.18,1.12-1.82.32-.65.53-1.34.61-2.06.12-.66.04-1.34-.23-1.95-.14-.23-.33-.41-.57-.53-.24-.12-.51-.17-.77-.14-.53,0-1.05.18-1.46.51-.39.37-.68.82-.85,1.32-.19.58-.32,1.18-.38,1.79l-.11.96h-3.84l.11-1.01c.12-1.24.47-2.45,1.03-3.56.5-1,1.28-1.84,2.24-2.42,1.09-.6,2.32-.89,3.57-.85.78-.08,1.56.02,2.29.29.73.27,1.39.71,1.92,1.28.46.64.78,1.37.95,2.14.17.77.17,1.57.02,2.34-.1.88-.33,1.73-.69,2.53-.36.79-.79,1.54-1.3,2.24-.51.69-1.07,1.41-1.66,2.13l-5.51,7.11h6.93l-.36,3.12-11.46-.13Z"/>
  <path class="cls-19" d="M900.35,902.1c-1.21.09-2.41-.21-3.43-.85-.39-.28-.72-.64-.97-1.04-.25-.41-.42-.86-.49-1.33-.19-1.2-.19-2.43,0-3.63h3.79c-.05.68-.05,1.36,0,2.04,0,.49.17.97.47,1.37.16.18.37.31.59.4.22.08.47.11.71.07.28.03.56-.02.82-.13.26-.11.49-.28.66-.5.36-.53.61-1.14.72-1.77.19-.88.34-1.77.43-2.67.07-.75.07-1.5,0-2.24.01-.54-.13-1.07-.43-1.52-.16-.2-.36-.36-.6-.46-.24-.1-.49-.13-.75-.1-.26,0-.52.04-.76.14-.24.1-.46.24-.65.42-.42.4-.74.89-.94,1.43h-3.36l1.7-12.69h10.27l-.42,3.5h-6.97l-.87,5.47c.37-.37.83-.64,1.32-.81.59-.22,1.21-.34,1.84-.36,1.01-.12,2.02.15,2.83.76.73.63,1.22,1.49,1.39,2.44.2,1.27.2,2.56,0,3.84-.14,1.12-.35,2.22-.63,3.32-.26.93-.67,1.82-1.21,2.62-.51.74-1.21,1.34-2.02,1.73-.95.42-1.99.61-3.03.56Z"/>
  <path class="cls-19" d="M364.78,954.32l.33-2.76,6.73-8.7c.49-.63.96-1.23,1.39-1.81.42-.57.8-1.18,1.12-1.82.31-.66.5-1.36.58-2.09.12-.65.04-1.32-.22-1.93-.13-.23-.33-.42-.56-.54-.24-.12-.5-.17-.76-.15-.54-.01-1.06.17-1.48.52-.38.37-.67.82-.83,1.32-.2.58-.33,1.18-.4,1.79l-.11.96h-3.83l.13-1.01c.13-1.24.47-2.44,1.01-3.57.52-.99,1.29-1.81,2.24-2.4,1.09-.62,2.32-.92,3.57-.87.78-.08,1.56.03,2.29.3.73.27,1.39.71,1.93,1.27.46.64.78,1.37.94,2.14.16.77.16,1.57,0,2.34-.09.88-.33,1.75-.69,2.56-.36.79-.79,1.54-1.3,2.24-.51.69-1.05,1.41-1.66,2.13l-5.49,7.11h6.88l-.38,3.12-11.41-.16Z"/>
  <path class="cls-19" d="M387.91,954.63c-1.19.06-2.36-.28-3.32-.99-.83-.68-1.4-1.63-1.61-2.69-.27-1.25-.32-2.54-.16-3.81l.94-8c.15-1.37.48-2.72.96-4.01.46-1.14,1.24-2.12,2.24-2.83,1.1-.74,2.42-1.1,3.75-1.03,1.1-.04,2.19.18,3.18.65.76.42,1.33,1.11,1.61,1.93.3,1.02.38,2.09.22,3.14v.18c.01.06.01.12,0,.18h-3.75c.15-.74.15-1.5,0-2.24-.2-.49-.69-.76-1.5-.76-.46,0-.9.16-1.23.47-.4.4-.68.91-.83,1.46-.26.9-.44,1.82-.54,2.76l-.31,2.74c.34-.46.8-.82,1.32-1.03.6-.26,1.25-.39,1.91-.38.48-.07.96-.05,1.43.07.47.12.91.33,1.29.63s.7.67.94,1.09c.24.42.39.89.44,1.37.16,1.13.16,2.28,0,3.41-.15,1.36-.49,2.7-1.03,3.97-.48,1.12-1.25,2.08-2.24,2.78-1.11.71-2.41,1.05-3.72.96ZM388.3,951.63c.24,0,.48-.03.7-.12.22-.09.43-.22.6-.4.36-.4.62-.89.76-1.41.2-.69.33-1.39.4-2.11.1-.74.15-1.49.15-2.24.05-.54-.07-1.09-.33-1.57-.15-.2-.35-.36-.58-.46-.23-.1-.49-.13-.74-.1-.31,0-.63.06-.92.18-.28.11-.54.27-.76.47-.2.16-.37.35-.51.56l-.42,3.56c-.07.59-.07,1.18,0,1.77.02.48.19.95.49,1.32.14.17.32.31.52.4s.42.14.64.14Z"/>
  <path class="cls-19" d="M452.06,954.32l.34-2.76,6.72-8.7c.49-.63.96-1.23,1.39-1.81.42-.57.8-1.18,1.12-1.82.31-.66.5-1.36.58-2.09.13-.65.05-1.32-.22-1.93-.13-.23-.33-.42-.56-.54-.24-.12-.5-.17-.76-.15-.53-.02-1.06.16-1.46.52-.4.36-.69.81-.85,1.32-.19.58-.32,1.18-.4,1.79v.96h-4.04l.13-1.01c.12-1.24.47-2.44,1.01-3.57.52-.99,1.29-1.81,2.24-2.4,1.08-.62,2.32-.92,3.56-.87.78-.08,1.56.03,2.29.3.73.27,1.39.71,1.93,1.27.46.64.78,1.37.94,2.14.16.77.16,1.57,0,2.34-.09.88-.33,1.75-.69,2.56-.36.79-.79,1.54-1.3,2.24-.51.69-1.05,1.41-1.66,2.13l-5.49,7.11h6.93l-.38,3.12-11.37-.16Z"/>
  <path class="cls-19" d="M469.94,954.32l6.73-19.82h-5.94l.36-2.98h10l-.29,2.4-6.97,20.4h-3.88Z"/>
  <path class="cls-19" d="M533.71,954.32l.34-2.76,6.73-8.7c.49-.63.96-1.23,1.39-1.81.42-.57.8-1.18,1.12-1.82.31-.66.5-1.36.58-2.09.12-.65.04-1.32-.22-1.93-.13-.23-.33-.42-.56-.54-.23-.12-.5-.17-.76-.15-.54-.01-1.07.17-1.48.52-.38.37-.67.82-.83,1.32-.19.58-.32,1.18-.4,1.79l-.11.96h-3.83l.13-1.01c.12-1.24.47-2.44,1.01-3.57.52-.99,1.29-1.81,2.24-2.4,1.08-.62,2.32-.92,3.56-.87.78-.08,1.56.03,2.29.3.73.27,1.39.71,1.93,1.27.46.64.78,1.37.94,2.14.16.77.16,1.57,0,2.34-.15.83-.42,1.63-.81,2.38-.35.79-.79,1.54-1.3,2.24-.52.7-1.05,1.41-1.66,2.13l-5.49,7.11h6.93l-.38,3.12-11.34.02Z"/>
  <path class="cls-19" d="M556.51,954.63c-1.19.07-2.38-.24-3.39-.87-.81-.59-1.38-1.45-1.61-2.42-.25-1.2-.3-2.42-.13-3.63.08-.62.22-1.22.4-1.81.17-.53.41-1.04.72-1.5.27-.44.6-.84.99-1.19.37-.35.8-.65,1.25-.87-.64-.51-1.15-1.18-1.48-1.93-.38-.98-.5-2.05-.36-3.09.12-1.13.46-2.22.99-3.23.49-.89,1.23-1.61,2.13-2.09,1-.5,2.11-.75,3.23-.72,1.07-.05,2.14.21,3.07.74.76.47,1.33,1.21,1.59,2.06.32,1.04.39,2.15.2,3.23-.1,1.11-.46,2.17-1.05,3.12-.49.76-1.13,1.4-1.88,1.91.4.22.75.52,1.03.87.31.35.56.75.74,1.19.19.48.31.99.36,1.5.06.6.06,1.21,0,1.81-.11,1.26-.44,2.49-.96,3.63-.5,1.01-1.28,1.84-2.24,2.42-1.09.62-2.33.92-3.59.87ZM556.87,951.67c.27.01.54-.03.79-.13.25-.1.48-.24.67-.44.36-.4.62-.89.76-1.41.16-.58.27-1.17.34-1.77.08-.61.08-1.23,0-1.84-.02-.52-.19-1.02-.47-1.46-.15-.19-.35-.34-.58-.44-.22-.1-.47-.14-.72-.12-.26-.01-.52.03-.76.13-.24.1-.46.24-.64.43-.37.41-.66.9-.83,1.43-.18.61-.32,1.23-.4,1.86-.06.59-.06,1.18,0,1.77.01.51.17,1.01.47,1.43.17.2.38.35.62.44.24.1.5.13.75.1ZM558.12,940.78c.44,0,.87-.18,1.19-.49.33-.37.57-.8.72-1.28.2-.6.32-1.23.38-1.86.12-.71.06-1.43-.18-2.11-.1-.26-.28-.49-.52-.63-.24-.15-.52-.21-.8-.17-.31-.01-.61.05-.88.2-.27.14-.5.35-.67.61-.41.62-.66,1.34-.72,2.08-.07.62-.07,1.24,0,1.86.02.47.17.92.45,1.3.13.16.3.29.48.37.19.09.39.13.6.12h-.05Z"/>
  <path class="cls-19" d="M618.18,954.32l.31-2.76,6.73-8.7,1.37-1.81c.43-.57.81-1.18,1.12-1.82.32-.66.53-1.36.6-2.09.12-.65.04-1.32-.22-1.93-.13-.23-.33-.42-.57-.55-.24-.12-.51-.17-.77-.15-.53,0-1.05.18-1.46.52-.39.36-.68.82-.85,1.32-.19.58-.32,1.18-.38,1.79l-.11.96h-3.9v-1.01c.12-1.24.47-2.45,1.03-3.57.51-.99,1.29-1.82,2.24-2.4,1.08-.62,2.32-.92,3.57-.87.77-.08,1.56.03,2.29.3.73.27,1.39.71,1.92,1.27.46.64.78,1.37.94,2.14.16.77.16,1.57,0,2.34-.08.88-.31,1.75-.67,2.56-.35.79-.79,1.54-1.3,2.24-.52.69-1.08,1.41-1.66,2.13l-5.52,7.11h7.02l-.36,3.12-11.37-.16Z"/>
  <path class="cls-19" d="M640.92,954.63c-1.09.05-2.18-.18-3.16-.67-.77-.43-1.35-1.13-1.61-1.97-.33-1.02-.4-2.1-.22-3.16v-.29h3.72c-.17.74-.17,1.5,0,2.24.2.51.69.76,1.52.76.23.01.45-.02.66-.1.21-.08.41-.2.57-.35.39-.41.67-.92.81-1.48.24-.9.42-1.81.51-2.73l.31-2.74c-.34.45-.78.79-1.3,1.01-.61.26-1.27.39-1.93.4-.5.04-1.01,0-1.49-.16s-.93-.39-1.32-.72c-.69-.63-1.14-1.48-1.28-2.4-.18-1.14-.18-2.29,0-3.43.15-1.37.5-2.71,1.05-3.97.49-1.07,1.27-2,2.24-2.67,1.06-.68,2.31-1.02,3.57-.96,1.18-.07,2.35.26,3.32.94.83.65,1.41,1.57,1.64,2.6.27,1.25.32,2.54.15,3.81l-.94,8.07c-.16,1.38-.49,2.74-.98,4.04-.47,1.14-1.24,2.13-2.24,2.85-1.06.72-2.32,1.1-3.61,1.07ZM642.35,942.61c.47.02.93-.12,1.3-.4.32-.24.61-.51.85-.83l.4-3.56c.06-.59.06-1.18,0-1.77-.03-.47-.18-.92-.45-1.3-.14-.17-.32-.31-.53-.39-.21-.09-.43-.12-.66-.1-.24-.01-.48.03-.71.12-.22.09-.43.22-.6.4-.36.4-.62.87-.76,1.39-.19.69-.33,1.39-.42,2.11,0,.83-.13,1.55-.16,2.24-.03.55.09,1.09.34,1.57.16.21.38.36.62.46.24.09.51.12.77.08Z"/>
  <path class="cls-19" d="M708.49,954.65c-1.17.06-2.34-.21-3.36-.78-.8-.53-1.38-1.32-1.64-2.24-.28-1.13-.34-2.3-.18-3.45v-.78h3.86v.67c-.06.61-.06,1.23,0,1.84.02.43.2.83.49,1.14.35.29.79.43,1.23.4.49.01.97-.14,1.37-.43.35-.34.6-.76.74-1.23.18-.64.3-1.29.38-1.95.15-.92.07-1.86-.22-2.74-.19-.36-.49-.65-.85-.85-.36-.2-.76-.28-1.17-.25h-.63l.36-3.12h.58c.41.03.82-.03,1.21-.17.39-.14.74-.37,1.03-.66.54-.76.85-1.65.9-2.58.12-.75.06-1.52-.18-2.24-.22-.54-.74-.81-1.57-.81-.34-.03-.69.04-.99.2-.31.16-.56.4-.73.7-.37.7-.61,1.46-.72,2.24v.85h-3.86l.11-1.1c.11-1.18.49-2.31,1.1-3.32.54-.89,1.32-1.6,2.24-2.06,1.02-.5,2.15-.75,3.3-.72,1.1-.05,2.2.19,3.18.69.81.45,1.44,1.18,1.77,2.04.35,1.1.46,2.26.3,3.4-.16,1.14-.58,2.23-1.22,3.19-.58.81-1.42,1.41-2.38,1.7.57.18,1.08.51,1.48.96.42.53.7,1.15.83,1.82.16.88.16,1.79,0,2.67-.12,1.26-.46,2.49-1.01,3.63-.48,1.02-1.27,1.86-2.24,2.42-1.07.62-2.29.93-3.52.9Z"/>
  <path class="cls-19" d="M725.75,954.65c-1.13.06-2.25-.23-3.21-.83-.81-.57-1.41-1.4-1.7-2.35-.33-1.11-.43-2.28-.27-3.43l1.19-10.11c.13-1.22.49-2.41,1.05-3.5.53-.94,1.3-1.71,2.24-2.24,1.06-.58,2.25-.87,3.45-.83,1.15-.06,2.29.23,3.27.83.79.54,1.38,1.33,1.66,2.24.32,1.14.4,2.33.22,3.5l-1.19,10.11c-.11,1.2-.47,2.37-1.05,3.43-.52.97-1.3,1.79-2.24,2.35-1.05.58-2.23.87-3.43.83ZM726.13,951.31c.25.01.51-.03.74-.12.24-.09.45-.24.62-.42.33-.37.58-.82.72-1.3.15-.48.25-.98.31-1.48l1.17-10c.06-.52.06-1.05,0-1.57,0-.46-.13-.91-.38-1.3-.15-.19-.34-.33-.56-.43-.22-.09-.46-.13-.7-.11-.26-.02-.51.02-.76.11-.24.1-.46.24-.64.42-.34.37-.58.82-.69,1.3-.16.51-.26,1.04-.31,1.57l-1.19,10c-.04.49-.04.99,0,1.48.03.46.17.91.42,1.3.14.19.33.35.54.44.22.1.46.13.69.1Z"/>
  <path class="cls-19" d="M792.94,954.65c-1.17.06-2.33-.21-3.34-.78-.8-.52-1.39-1.32-1.64-2.24-.29-1.13-.35-2.3-.18-3.45v-.78h3.86v.67c-.05.61-.05,1.23,0,1.84.03.43.21.84.52,1.14.17.15.36.26.57.33.21.07.44.1.66.08.49.03.96-.13,1.34-.42.36-.33.62-.76.74-1.23.19-.64.31-1.29.38-1.95.16-.91.09-1.86-.22-2.73-.19-.36-.48-.66-.83-.85-.35-.2-.76-.28-1.16-.25h-.65l.36-3.12h.6c.41.03.82-.03,1.21-.17.39-.14.74-.37,1.03-.66.53-.76.83-1.65.87-2.58.13-.75.07-1.52-.16-2.24-.22-.54-.76-.81-1.59-.81-.34-.03-.69.04-.99.2-.3.16-.56.4-.73.7-.37.7-.6,1.46-.69,2.24v.85h-3.86l.05-.96c.12-1.17.48-2.3,1.08-3.32.54-.88,1.32-1.6,2.24-2.06,1.02-.51,2.16-.75,3.3-.72,1.11-.04,2.2.19,3.18.7.81.46,1.43,1.18,1.77,2.04.37,1.05.47,2.18.29,3.27-.09,1.2-.52,2.35-1.23,3.32-.57.81-1.4,1.41-2.35,1.7.57.18,1.07.51,1.46.96.42.53.72,1.15.85,1.82.14.88.14,1.78,0,2.67-.13,1.26-.48,2.49-1.01,3.63-.49,1.01-1.27,1.85-2.24,2.42-1.07.56-2.27.82-3.47.76Z"/>
  <path class="cls-19" d="M807.02,954.32l2.24-18.5c-.23.11-.46.2-.69.27l-1.12.31-1.12.29-.72.22.34-2.89c.35-.12.69-.25,1.03-.4.42-.16.87-.36,1.32-.56.46-.21.9-.46,1.32-.74.39-.22.74-.49,1.05-.81h2.98l-2.67,22.8h-3.97Z"/>
  <path class="cls-19" d="M386.93,704.52l.65-5.63c.97.02,1.94-.05,2.89-.22.68-.1,1.32-.37,1.86-.78.5-.46.87-1.04,1.08-1.68.31-.92.51-1.86.6-2.83l3.97-33.79h7.96l-3.99,34.1c-.2,2.1-.74,4.16-1.59,6.1-.71,1.54-1.91,2.8-3.43,3.57-1.93.87-4.05,1.27-6.17,1.17h-3.83Z"/>
  <path class="cls-19" d="M410.65,703.44l13.92-43.85h8.54l3.63,43.85h-7.42l-.54-10.13h-7.64l-2.96,10.13h-7.53ZM422.55,688.22h5.96l-.83-18.4-5.13,18.4Z"/>
  <path class="cls-19" d="M446.34,703.44l5.13-43.85h5.58l7.73,25,2.92-25h6.61l-5.13,43.85h-5.31l-7.65-26.21-3.07,26.21h-6.82Z"/>
  <path class="cls-19" d="M493.15,704.03c-2.58.18-5.14-.44-7.35-1.77-.84-.6-1.54-1.36-2.08-2.23-.54-.87-.9-1.84-1.06-2.86-.45-2.62-.49-5.29-.11-7.92l3.48-29.66h7.8l-3.59,30.58c-.16,1.29-.22,2.58-.18,3.88-.03,1.05.3,2.07.92,2.92.36.4.81.71,1.31.9.5.19,1.04.27,1.58.22.58.04,1.16-.04,1.71-.23.55-.19,1.05-.49,1.48-.89.76-.83,1.31-1.83,1.59-2.92.35-1.27.6-2.57.74-3.88l3.59-30.58h7.74l-3.48,29.66c-.27,2.72-.93,5.38-1.95,7.92-.86,2.11-2.37,3.89-4.3,5.09-2.4,1.3-5.1,1.91-7.83,1.77Z"/>
  <path class="cls-19" d="M514.87,703.44l13.9-43.85h8.57l3.63,43.85h-7.47l-.54-10.13h-7.65l-2.96,10.13h-7.49ZM526.78,688.22h5.96l-.83-18.4-5.13,18.4Z"/>
  <path class="cls-19" d="M550.54,703.44l5.16-43.85h10.49c2.5-.08,5,.28,7.38,1.05,1.82.6,3.35,1.88,4.23,3.59.93,2.19,1.21,4.61.78,6.95-.17,1.62-.53,3.21-1.05,4.75-.43,1.33-1.14,2.56-2.06,3.61-.97,1.02-2.17,1.79-3.5,2.24l3.59,21.61h-8l-2.96-20.18h-3.68l-2.24,20.18-8.14.04ZM561.51,678.31h2.49c1.3.05,2.59-.18,3.79-.67,1-.45,1.79-1.25,2.24-2.24.57-1.2.92-2.49,1.03-3.81.34-1.68.12-3.42-.63-4.95-.69-1.1-2.24-1.64-4.48-1.64h-2.94l-1.5,13.32Z"/>
  <path class="cls-19" d="M591.91,703.44l1.97-16.73-5.69-27.13h7.47l3.36,17.37,7.13-17.37h7.31l-11.95,27.13-1.95,16.73h-7.64Z"/>
  <path class="cls-13" d="M645.58,704.54h301.94"/>
  <path class="cls-9" d="M729.4,766.85s-11.21,15.92-15.92,20.56c-4.71,4.64-17.24,13.92-16.26,17.24.99,3.32,11.21,4.98,19.91,3.99,8.7-.99,22.55-7.62,22.55-7.62,0,0,14.26-7.31,21.21-10.96,6.95-3.65,7.31-6.3,5.99-11.93-1.52-4.78-3.64-9.36-6.3-13.61,0,0-25.87-1.64-31.18,2.33Z"/>
  <path class="cls-9" d="M760.9,790.05c5.07-2.64,6.61-4.77,6.59-7.89-4.42.95-8.66,2.61-12.56,4.91-5.96,3.99-20.18,14.26-33.83,17.93-7.89,1.86-16.15,1.29-23.72-1.61-.18.4-.23.85-.16,1.28,1.01,3.32,11.21,4.98,19.91,3.99,8.7-.99,22.55-7.62,22.55-7.62,0,0,14.26-7.33,21.21-10.99Z"/>
  <path class="cls-11" d="M710.3,580.25s-46.23,9.15-53.22,27.42c-7,18.27,70.98,153.26,70.98,153.26l-4.31,5.9,2.69,4.31s27.96,6.46,32.26,3.77c4.31-2.69,5.92-3.77,5.92-5.38s-7.53-27.96-7.53-27.96l-30.11-107.61h51.57s37.15-18.2,41.92-26.27c4.77-8.07-4.84-23.11-13.99-25.81-9.15-2.69-68.27-7-69.88-6.46-1.61.54-26.3,4.84-26.3,4.84Z"/>
  <path class="cls-9" d="M764.62,769.51s-14.53,18.83-23.67,24.66c-9.15,5.83-19.35,11.21-15.58,15.04,3.77,3.83,22.57,3.77,32.8,1.61,10.22-2.15,26.34-7.53,28.5-10.76,2.15-3.23,4.84-16.66,4.84-16.66,0,0-22.6-11.21-26.88-13.9Z"/>
  <path class="cls-9" d="M786.66,800.16c.85-1.56,1.52-3.21,1.97-4.93-5.85,2.04-30.49,10.52-42.31,11.93-7.06.84-14.23.37-21.12-1.39-.43.5-.66,1.14-.63,1.8.03.66.31,1.28.78,1.74,3.77,3.77,22.57,3.77,32.8,1.61,10.22-2.15,26.43-7.53,28.5-10.76Z"/>
  <path class="cls-11" d="M801.73,573.79s-39.26,28.52-39.26,37.1,3.77,76.9,3.77,76.9l-1.61,73.67c-1.67,1.59-3.12,3.39-4.31,5.36-.54,1.61-1.61,8.07-1.61,8.07,4.84,2.53,9.87,4.69,15.04,6.46,5.76,1.7,11.75,2.46,17.75,2.24,0,0,4.84-17.76,4.84-19.91v-8.05l22.04-78.47,5.38-42.46s39.25.54,51.07-2.24c11.82-2.78,18.83-3.77,21.52-16.14,2.69-12.38-3.23-31.72-3.23-31.72,0,0-62.37-29.08-91.4-10.81Z"/>
  <path class="cls-9" d="M814.62,384.53l-25.81,9.69-22.58,125.28,14.51,52.68h42.6l7.53-15.04s-.54-95.71.54-99.47c1.07-3.77,16.66-60.76,16.66-60.76l-33.45-12.38Z"/>
  <path class="cls-12" d="M808.34,440.69s-3.75,29.48-5,57.71"/>
  <path class="cls-12" d="M815.25,451.68c0,.56-.17,1.11-.48,1.57-.31.46-.75.83-1.27,1.04-.51.21-1.08.27-1.63.16s-1.05-.38-1.45-.77c-.4-.39-.67-.9-.77-1.45-.11-.55-.05-1.12.16-1.63.21-.51.58-.96,1.04-1.27.46-.31,1.01-.48,1.57-.48.37,0,.74.07,1.09.21.34.14.66.35.92.61.26.26.47.58.61.92.14.34.21.71.21,1.09Z"/>
  <path class="cls-12" d="M813.05,483.96c0,.75-.3,1.47-.83,2-.53.53-1.25.83-2,.83s-1.47-.3-2-.83c-.53-.53-.83-1.25-.83-2s.3-1.47.83-2c.53-.53,1.25-.83,2-.83s1.47.3,2,.83c.53.53.83,1.25.83,2Z"/>
  <path class="cls-12" d="M809.26,520.98c0,.56-.17,1.11-.48,1.57-.31.46-.75.83-1.27,1.04-.52.21-1.09.27-1.64.15-.55-.11-1.05-.38-1.45-.78-.39-.4-.66-.9-.77-1.45-.11-.55-.05-1.12.17-1.63.22-.52.58-.96,1.05-1.26.47-.31,1.02-.47,1.57-.47.37,0,.74.07,1.08.22.34.14.65.35.91.61.26.26.46.57.6.92.14.34.21.71.21,1.08Z"/>
  <path class="cls-12" d="M802.69,505.51s-.74,12.24-1.12,25.2"/>
  <path class="cls-6" d="M844.77,387.71s-9.8,33.88-16.86,59.66c-7.06,25.78-3.74,122.65-3.74,122.65,0,0,17.93,1.66,25.78,5.4,7.85,3.74,11.64,12.89,24.93,17.46,8.47,2.78,17.4,3.91,26.3,3.32,0,0-9.98-49.48-10.81-59.46-.83-9.98,4.49-118.82,1.23-122.66-3.25-3.83-46.83-26.39-46.83-26.39Z"/>
  <path class="cls-12" d="M872.82,566.75c2.58,1.05,5.05,2.33,7.4,3.84"/>
  <path class="cls-12" d="M837.19,564.13c9.63-2.04,19.59-1.89,29.15.45"/>
  <path class="cls-12" d="M835.04,560.36s2.69-2.69,11.84-2.24"/>
  <path class="cls-6" d="M795.94,384.35s-54.93,32.67-56.18,34.75c-1.26,2.09-30.36,94.79-30.36,94.79l63.63,2.51s15.92-111.47,22.91-132.05Z"/>
  <path class="cls-12" d="M749.51,452.53l1.12-6.14"/>
  <path class="cls-12" d="M738.8,511.45l9.3-51.18"/>
  <path class="cls-9" d="M795.94,384.35l-11.93,40.35,23.43-15,27.98,18.2s10.27-34.55,9.35-40.13c-1.06-4.23-2.97-8.21-5.6-11.68l-43.23,8.25Z"/>
  <path class="cls-15" d="M796.28,282.41s-15.69,23.54-15.69,28.32c-.27,5.25-1.45,10.42-3.5,15.27-1.25,2.24-12.08,6.73-11.46,11.21.78,3.24,2.44,6.21,4.77,8.59,0,0,3.19,31.81,7.96,31.18,4.99-.28,9.99-.18,14.95.31,0,0,14.3,54.41,15.58,52.48,1.28-1.93,30.53-47.71,30.53-47.71,0,0,2.56-19.73,3.83-21.95,1.28-2.22,20.67-17.17,24.17-26.1,3.5-8.92,2.56-32.75-2.87-41.03-5.42-8.27-30.53-20.04-43.24-19.08-12.71.96-23.14,3.72-25.04,8.5Z"/>
  <path class="cls-11" d="M821.41,273.85c-12.73.94-23.23,3.81-25.13,8.59,0,0-2.24,5.09,5.09,5.09s25.13-.65,25.13,6.99-12.74,10.81-12.42,14.64c.31,3.83,8.27,13.03,8.27,13.03,0,0-3.18,8.97.65,10.18,3.84,1.21,4.13-3.81,8.97-2.53,4.84,1.28,9.21,13.05,7,16.86-2.54,3.41-5.56,6.43-8.97,8.97,4.23,2.05,8.57,3.87,13,5.43.08-.34.2-.66.36-.96,1.25-2.24,20.67-17.17,24.17-26.1,3.5-8.92,2.56-32.75-2.87-41.03-5.43-8.27-30.53-20.13-43.25-19.15Z"/>
  <path class="cls-21" d="M778.12,345.7c2.35.27,4.73.06,7-.63,2.26-.69,4.36-1.83,6.16-3.36,0,0,4.49,8.79-2.78,11.57-7.26,2.78-10.38-7.58-10.38-7.58Z"/>
  <path class="cls-21" d="M788.54,323.17c-.74,2.51-2.24,4.3-3.32,3.99-1.08-.31-1.39-2.65-.65-5.16.74-2.51,2.24-4.33,3.34-3.99,1.1.34,1.39,2.69.63,5.16Z"/>
  <path class="cls-7" d="M786.53,309.94s4.86-4.48,8.27,1.93"/>
  <path class="cls-16" d="M792.82,324.56c-1.77,5.63-5.72,9.39-8.81,8.41-3.09-.99-4.19-6.3-2.42-11.93,1.77-5.63,5.69-9.37,8.81-8.41,3.12.96,4.17,6.32,2.42,11.93Z"/>
  <path class="cls-16" d="M781.59,321.06l-4.42-2.22"/>
  <path class="cls-16" d="M793.72,322.03l33.09,8.27"/>
  <path class="cls-11" d="M778.46,376.98s13.99-3.34,15.27-3.34,21.32-8.27,21.32-8.27l-19.1,19.08-2.53-7.15-14.95-.31Z"/>
  <path class="cls-19" d="M891.52,414.1s7.08,0,12.06,14.15c4.98,14.15,31.19,103.53,28.7,108.93-2.49,5.4-31.19,6.23-35.36.4-3.37-5.51-6.15-11.37-8.3-17.46l-5-57.37"/>
  <path class="cls-12" d="M891.52,414.1s7.08,0,12.06,14.15c4.98,14.15,31.19,103.53,28.7,108.93-2.49,5.4-31.19,6.23-35.36.4-3.37-5.51-6.15-11.37-8.3-17.46l-5-57.37"/>
  <path class="cls-15" d="M879.88,491.02l-7.49-7.06s-.4-26.61-1.66-28.27c-1.25-1.66-17.46-8.32-18.72-8.32s-8.72,7.49-8.72,7.49c0,0-2.08,9.55-2.49,12.04-.4,2.49,0,13.32,0,13.32,0,0,.4,6.23,2.92,6.73,1.79.26,3.59.39,5.4.4,1.44,2.97,3.41,5.65,5.81,7.92,2.09,1.39,4.35,2.5,6.73,3.32l11.64,10.4,6.59-17.96Z"/>
  <path class="cls-12" d="M843.29,454.86l20.18,5.54"/>
  <path class="cls-12" d="M841.81,464.08l17.58,5.94"/>
  <path class="cls-12" d="M840.8,473.89l16.34,4.08"/>
  <path class="cls-12" d="M849.1,487.3l1.3-3.61-3.88-1.23"/>
  <path class="cls-6" d="M929.36,519.72l-49.48-28.7-17.93,28.27s36.59,35.87,41.16,39.5c4.57,3.63,14.55,5,19.12,3.75,4.57-1.26,12.89-12.47,12.89-22.87-.29-7.02-2.26-13.86-5.76-19.95Z"/>
  <path class="cls-3" d="M811.1,587.85l37.19-18.85-49.57-2.47,12.38,21.32Z"/>
  <path class="cls-5" d="M681.69,502.57l20.83,78.33,108.57,6.95-22.31-83.31-107.1-1.97Z"/>
  <path class="cls-9" d="M751.15,543.46c0,4.19-4.19,7.58-9.35,7.58s-9.35-3.39-9.35-7.58,4.17-7.6,9.35-7.6,9.35,3.39,9.35,7.6Z"/>
  <path class="cls-15" d="M682.05,523.66s-.29,5.29,1.57,6.55c1.86,1.25,13.45,3.72,14.3.92.85-2.8.31-5.29-2.24-5.89-2.55-.61-10.2-3.43-13.63-1.57Z"/>
  <path class="cls-15" d="M683.71,530.21s-.31,6.52,1.55,7.76c1.86,1.23,9.33,1.57,10.9-.29,1.11-2.01,1.75-4.25,1.86-6.55,0,0-10.99,1.25-14.3-.92Z"/>
  <path class="cls-15" d="M685.17,537.97c.61,2.01,1.56,3.91,2.8,5.6,1.25.94,8.41.94,9.33-.92.92-1.86-1.23-4.98-1.23-4.98-3.61.46-7.26.56-10.9.29Z"/>
  <path class="cls-15" d="M687.97,543.57c.05.88.38,1.71.94,2.38.56.67,1.32,1.15,2.17,1.36,3.12.92,7.47,1.23,7.78-.63-.02-1.49-.57-2.92-1.57-4.04-3.04.82-6.19,1.13-9.33.92Z"/>
  <path d="M246.26,870.67l-34.61,16.68,3.31,6.88,12.2-5.88c4.48-2.16,9.69-1.13,13.04,2.19l-21.93,10.57,3.31,6.88,21.93-10.57c.51,4.69-1.93,9.4-6.41,11.56l-12.2,5.88,3.31,6.88,29.86,10.44,2.52-7.2-22.66-7.92,2.48-1.2c8.3-4,12.4-13.26,10.22-21.87l5.56-2.68-3.31-6.88-5.56,2.68c-1.74-2.29-3.95-4.11-6.41-5.38l8.66-4.17-3.31-6.88Z"/>
  <path class="cls-18" d="M246.26,870.67l-34.61,16.68,3.31,6.88,12.2-5.88c4.48-2.16,9.69-1.13,13.04,2.19l-21.93,10.57,3.31,6.88,21.93-10.57c.51,4.69-1.93,9.4-6.41,11.56l-12.2,5.88,3.31,6.88,29.86,10.44,2.52-7.2-22.66-7.92,2.48-1.2c8.3-4,12.4-13.26,10.22-21.87l5.56-2.68-3.31-6.88-5.56,2.68c-1.74-2.29-3.95-4.11-6.41-5.38l8.66-4.17-3.31-6.88Z"/>
  <path class="cls-18" d="M424.94,312.43h-38.42v7.63h13.55c4.98,0,9.22,3.19,10.8,7.63h-24.34v7.63h24.34c-1.57,4.44-5.82,7.63-10.8,7.63h-13.55v7.63l22.37,22.37,5.4-5.4-16.97-16.97h2.75c9.21,0,16.93-6.57,18.7-15.27h6.17v-7.63h-6.17c-.58-2.82-1.77-5.41-3.44-7.63h9.61v-7.63Z"/>
</svg>