<svg width="753" height="850" viewBox="0 0 753 850" fill="none" xmlns="http://www.w3.org/2000/svg">
<g clip-path="url(#clip0_1_2)">
<path d="M417.89 0V0.09C187.04 4.56 1.27979 193.08 1.27979 425C1.27979 656.92 187.04 845.44 417.89 849.91V850H751.28L747.28 703.6L751.28 146.49V0H417.89Z" fill="#042B62" fill-opacity="0.321569"/>
<g style="mix-blend-mode:multiply">
<path d="M752.56 637.44H0V637.82H752.56V637.44Z" fill="#B0E6FD"/>
<path d="M475.12 647.68H436.8V648.06H475.12V647.68Z" fill="#B0E6FD"/>
<path d="M685.5 655.83H594.69V656.21H685.5V655.83Z" fill="#B0E6FD"/>
<path d="M428.65 647.87H334.83V648.25H428.65V647.87Z" fill="#B0E6FD"/>
<path d="M274 659.13H254.37V659.51H274V659.13Z" fill="#B0E6FD"/>
<path d="M382.43 659.13H293.06V659.51H382.43V659.13Z" fill="#B0E6FD"/>
<path d="M136.84 652.78H78.96V653.16H136.84V652.78Z" fill="#B0E6FD"/>
<path d="M356.73 570.31H66.0998C63.8224 570.307 61.639 569.401 60.0286 567.791C58.4183 566.181 57.5124 563.997 57.5098 561.72V153.18C57.5124 150.902 58.4183 148.719 60.0286 147.109C61.639 145.498 63.8224 144.592 66.0998 144.59H356.73C359.007 144.592 361.191 145.498 362.801 147.109C364.411 148.719 365.317 150.902 365.32 153.18V561.72C365.317 563.997 364.411 566.181 362.801 567.791C361.191 569.401 359.007 570.307 356.73 570.31ZM66.0998 145C63.9214 145 61.8321 145.865 60.2909 147.404C58.7496 148.943 57.8824 151.032 57.8798 153.21V561.72C57.8824 563.898 58.7496 565.986 60.2909 567.526C61.8321 569.065 63.9214 569.93 66.0998 569.93H356.73C358.908 569.93 360.997 569.065 362.539 567.526C364.08 565.986 364.947 563.898 364.95 561.72V153.18C364.947 151.001 364.08 148.913 362.539 147.374C360.997 145.834 358.908 144.97 356.73 144.97L66.0998 145Z" fill="#B0E6FD"/>
<path d="M682.28 570.31H391.65C389.373 570.307 387.189 569.401 385.579 567.791C383.969 566.181 383.063 563.997 383.06 561.72V153.18C383.063 150.902 383.969 148.719 385.579 147.109C387.189 145.498 389.373 144.592 391.65 144.59H682.28C684.557 144.592 686.741 145.498 688.351 147.109C689.962 148.719 690.867 150.902 690.87 153.18V561.72C690.865 563.996 689.958 566.178 688.348 567.788C686.738 569.398 684.557 570.305 682.28 570.31ZM391.65 145C389.473 145.002 387.387 145.868 385.848 147.407C384.309 148.947 383.443 151.033 383.44 153.21V561.72C383.443 563.896 384.309 565.983 385.848 567.522C387.387 569.061 389.473 569.927 391.65 569.93H682.28C684.457 569.927 686.543 569.061 688.082 567.522C689.622 565.983 690.487 563.896 690.49 561.72V153.18C690.48 151.008 689.61 148.929 688.072 147.397C686.534 145.864 684.452 145.002 682.28 145H391.65Z" fill="#B0E6FD"/>
</g>
<path d="M294.95 506.89H195L188.94 436.9H288.88L294.95 506.89Z" fill="#6C6C6C"/>
<path d="M300.12 506.89H200.18L194.12 436.9H294.05L300.12 506.89Z" fill="#575757"/>
<path d="M213.84 491.86L210.51 451.93H280.39L283.72 491.86H213.84Z" fill="#042B62"/>
<path d="M317.42 506.89H305.69V637.43H317.42V506.89Z" fill="#575757"/>
<path d="M321.11 506.89H312.97V637.43H321.11V506.89Z" fill="#6C6C6C"/>
<path d="M207.62 521.3H321.12V506.89H207.62V521.3Z" fill="#6C6C6C"/>
<path d="M211.63 521.3H199.9V637.43H211.63V521.3Z" fill="#575757"/>
<path d="M215.32 521.3H207.18V637.43H215.32V521.3Z" fill="#6C6C6C"/>
<path d="M128.16 521.3H116.43V637.43H128.16V521.3Z" fill="#575757"/>
<path d="M131.85 521.3H123.71V637.43H131.85V521.3Z" fill="#6C6C6C"/>
<path d="M243.21 521.3H231.48V637.43H243.21V521.3Z" fill="#575757"/>
<path d="M246.9 521.3H238.76V637.43H246.9V521.3Z" fill="#6C6C6C"/>
<path d="M207.61 506.89H116.43V521.3H207.61V506.89Z" fill="#6C6C6C"/>
<g style="mix-blend-mode:multiply" opacity="0.7">
<path d="M623.15 140.87H270.45V337.22H623.15V140.87Z" fill="#B0E6FD"/>
</g>
<path opacity="0.7" d="M642.51 140.87H272.23V337.22H642.51V140.87Z" fill="#B6E9FF"/>
<g style="mix-blend-mode:multiply" opacity="0.4">
<path d="M636.47 331.17V146.92H278.29V331.17H636.47Z" fill="#042B62"/>
</g>
<g style="mix-blend-mode:multiply" opacity="0.4">
<path d="M423.31 331.17L490.93 146.91H379.33L311.71 331.17H423.31Z" fill="#042B62"/>
</g>
<g style="mix-blend-mode:multiply" opacity="0.7">
<path d="M530.74 331.17L598.36 146.91H514.17L446.55 331.17H530.74Z" fill="#042B62"/>
</g>
<path d="M659.41 449.9H629.43V637.43H659.41V449.9Z" fill="#575757"/>
<g style="mix-blend-mode:multiply" opacity="0.7">
<path d="M651.53 637.43H659.41V623H643.26L651.53 637.43Z" fill="#B0E6FD"/>
</g>
<path d="M382.98 449.9H353V637.43H382.98V449.9Z" fill="#575757"/>
<path d="M659.41 449.9H376.1V633.53H659.41V449.9Z" fill="#6C6C6C"/>
<path d="M654.05 509.16H381.47V457.29H654.05V509.16ZM382.97 507.65H652.54V458.8H382.97V507.65Z" fill="#575757"/>
<path d="M606.06 482.47H434.75C426.75 482.47 419.13 476.05 413.75 464.87L413.23 463.79H627.6L627.08 464.87C621.68 476.05 614.02 482.47 606.06 482.47ZM415.62 465.29C420.72 475.29 427.62 480.97 434.75 480.97H606.06C613.17 480.97 620.06 475.27 625.19 465.29H415.62Z" fill="#575757"/>
<g style="mix-blend-mode:multiply" opacity="0.7">
<path d="M383.99 637.43H376.1V623H392.25L383.99 637.43Z" fill="#B0E6FD"/>
</g>
<path d="M654.05 567.65H381.47V515.79H654.05V567.65ZM382.97 566.15H652.54V517.29H382.97V566.15Z" fill="#575757"/>
<path d="M606.06 541H434.75C426.75 541 419.13 534.58 413.75 523.39L413.23 522.31H627.6L627.08 523.39C621.68 534.55 614.02 541 606.06 541ZM415.62 523.79C420.72 533.79 427.62 539.46 434.75 539.46H606.06C613.17 539.46 620.06 533.77 625.19 523.79H415.62Z" fill="#575757"/>
<path d="M654.05 626.15H381.47V574.29H654.05V626.15ZM382.97 624.65H652.54V575.79H382.97V624.65Z" fill="#575757"/>
<path d="M606.06 599.47H434.75C426.75 599.47 419.13 593.05 413.75 581.86L413.23 580.78H627.6L627.08 581.86C621.68 593.05 614.02 599.47 606.06 599.47ZM415.62 582.29C420.72 592.29 427.62 597.96 434.75 597.96H606.06C613.17 597.96 620.06 592.27 625.19 582.29H415.62Z" fill="#575757"/>
<path d="M182.09 474.71V478.35H179.76L177.84 506.89H149.49L147.57 478.35H145.24V474.71H182.09Z" fill="#6C6C6C"/>
<path d="M172.76 403.86C170.43 386.86 147.49 382 118.36 381.38C90.6498 380.78 81.7798 371 81.7798 371C81.7798 371 81.8698 410.7 121.78 425.08C159.71 438.71 175.1 420.89 172.76 403.86Z" fill="#6C6C6C"/>
<path d="M158.61 442.41C159.09 435.41 170.26 422.56 197.12 428.41C216.54 432.63 223.76 422.56 223.76 422.56C223.76 422.56 221.96 450.98 192.76 459.56C165.02 467.63 157.75 454.71 158.61 442.41Z" fill="#6C6C6C"/>
<path d="M164.74 485.43C164.89 485.428 165.039 485.394 165.175 485.33C165.311 485.266 165.432 485.174 165.53 485.06C167.47 482.76 165.88 477.25 163.68 469.62C160.85 459.83 157.33 447.62 160.31 438.8C161.958 434.137 163.888 429.578 166.09 425.15C170.3 416.23 173.94 408.53 170.91 400.49C170.813 400.232 170.618 400.024 170.368 399.911C170.118 399.797 169.832 399.788 169.575 399.885C169.318 399.982 169.11 400.177 168.996 400.427C168.883 400.677 168.873 400.962 168.97 401.22C171.7 408.44 168.39 415.42 164.21 424.22C161.985 428.727 160.029 433.362 158.35 438.1C155.16 447.56 158.78 460.1 161.69 470.15C163.4 476.09 165.18 482.23 163.95 483.68C163.857 483.781 163.787 483.901 163.742 484.031C163.698 484.161 163.681 484.299 163.692 484.436C163.703 484.573 163.743 484.706 163.808 484.827C163.873 484.948 163.962 485.055 164.07 485.14C164.249 485.317 164.488 485.421 164.74 485.43Z" fill="#6C6C6C"/>
<g style="mix-blend-mode:multiply" opacity="0.7">
<path d="M368.13 791.8C529.303 791.8 659.96 784.171 659.96 774.76C659.96 765.349 529.303 757.72 368.13 757.72C206.957 757.72 76.2998 765.349 76.2998 774.76C76.2998 784.171 206.957 791.8 368.13 791.8Z" fill="#042B62"/>
</g>
<path d="M286.62 471.22H60.4601L48.0801 107.5H274.24L286.62 471.22Z" fill="#024B62"/>
<path d="M297.91 459.93H71.7501L59.3701 96.2202H285.53L297.91 459.93Z" fill="#007CFF"/>
<path d="M297.91 459.93H71.7501L59.3701 96.2202H285.53L297.91 459.93Z" fill="#024B62"/>
<path d="M222.144 245.874C246.358 221.243 245.327 180.965 219.841 155.911C194.355 130.858 154.065 130.515 129.851 155.147C105.638 179.778 106.669 220.056 132.155 245.109C157.641 270.163 197.931 270.506 222.144 245.874Z" fill="#042B62"/>
<path d="M228.5 200.53C228.825 209.194 226.936 217.799 223.01 225.53C218.763 233.855 212.283 240.834 204.295 245.686C196.307 250.538 187.126 253.07 177.78 253C168.21 252.946 158.823 250.379 150.558 245.554C142.293 240.729 135.442 233.817 130.69 225.51C126.268 217.897 123.794 209.309 123.49 200.51C123.206 193.689 124.309 186.882 126.734 180.5C129.16 174.119 132.856 168.297 137.598 163.387C142.341 158.477 148.032 154.581 154.325 151.936C160.619 149.291 167.384 147.952 174.21 148C203.21 148 227.51 171.53 228.5 200.53Z" fill="white"/>
<path d="M223.01 225.54C218.762 233.863 212.281 240.841 204.293 245.69C196.305 250.54 187.125 253.071 177.78 253C168.21 252.946 158.822 250.379 150.558 245.554C142.293 240.729 135.441 233.817 130.69 225.51C144.15 216.329 160.078 211.448 176.37 211.51C192.951 211.545 209.161 216.421 223.01 225.54Z" fill="#005263"/>
<path d="M192.351 199.23C201.252 190.175 200.872 175.368 191.503 166.158C182.133 156.947 167.322 156.82 158.42 165.875C149.519 174.929 149.899 189.736 159.269 198.947C168.639 208.158 183.45 208.285 192.351 199.23Z" fill="#005263"/>
<path d="M252.48 328.21H108.21L107.23 299.55H251.5L252.48 328.21Z" fill="white"/>
<path d="M254.22 379.46H109.95L108.97 350.79H253.25L254.22 379.46Z" fill="white"/>
<path d="M230.41 419.6H136.5L135.86 400.94H229.77L230.41 419.6Z" fill="white"/>
<path d="M185.1 313.88C185.133 314.563 185.025 315.245 184.784 315.884C184.543 316.523 184.174 317.107 183.699 317.598C183.224 318.089 182.653 318.477 182.022 318.739C181.391 319.001 180.713 319.131 180.03 319.12C178.626 319.111 177.28 318.562 176.27 317.586C175.261 316.61 174.666 315.283 174.61 313.88C174.577 313.198 174.684 312.516 174.925 311.876C175.166 311.237 175.536 310.654 176.011 310.163C176.486 309.672 177.056 309.283 177.688 309.022C178.319 308.76 178.997 308.63 179.68 308.64C181.083 308.652 182.428 309.202 183.437 310.177C184.445 311.153 185.041 312.478 185.1 313.88Z" fill="#005263"/>
<path d="M162.52 313.88C162.553 314.562 162.446 315.243 162.205 315.881C161.965 316.52 161.597 317.103 161.123 317.594C160.649 318.085 160.079 318.473 159.449 318.736C158.819 318.998 158.142 319.129 157.46 319.12C156.056 319.111 154.71 318.561 153.7 317.586C152.691 316.61 152.097 315.283 152.04 313.88C152.007 313.198 152.114 312.517 152.355 311.879C152.595 311.24 152.963 310.657 153.437 310.166C153.911 309.676 154.481 309.287 155.111 309.024C155.741 308.762 156.418 308.631 157.1 308.64C158.504 308.649 159.85 309.199 160.859 310.175C161.869 311.15 162.463 312.477 162.52 313.88Z" fill="#005263"/>
<path d="M139.95 313.88C139.983 314.562 139.876 315.243 139.635 315.882C139.395 316.52 139.026 317.103 138.552 317.594C138.078 318.085 137.509 318.473 136.879 318.736C136.249 318.998 135.572 319.129 134.89 319.12C133.484 319.114 132.135 318.565 131.124 317.589C130.113 316.613 129.517 315.285 129.46 313.88C129.427 313.198 129.534 312.516 129.775 311.876C130.016 311.237 130.386 310.654 130.861 310.163C131.336 309.672 131.907 309.283 132.538 309.022C133.169 308.76 133.847 308.63 134.53 308.64C135.934 308.649 137.28 309.199 138.289 310.175C139.299 311.15 139.893 312.477 139.95 313.88Z" fill="#005263"/>
<path d="M207.67 313.88C207.703 314.562 207.596 315.243 207.356 315.882C207.115 316.52 206.747 317.103 206.273 317.594C205.799 318.085 205.229 318.473 204.599 318.736C203.969 318.998 203.292 319.129 202.61 319.12C201.205 319.114 199.856 318.565 198.844 317.589C197.833 316.613 197.237 315.285 197.18 313.88C197.147 313.198 197.255 312.516 197.496 311.876C197.736 311.237 198.106 310.654 198.581 310.163C199.056 309.672 199.627 309.283 200.258 309.022C200.889 308.76 201.567 308.63 202.25 308.64C203.654 308.649 205 309.199 206.01 310.175C207.019 311.15 207.614 312.477 207.67 313.88Z" fill="#005263"/>
<path d="M230.28 313.88C230.313 314.562 230.206 315.243 229.966 315.881C229.725 316.52 229.357 317.103 228.883 317.594C228.409 318.085 227.839 318.473 227.209 318.736C226.579 318.998 225.903 319.129 225.22 319.12C223.816 319.111 222.47 318.561 221.461 317.586C220.451 316.61 219.857 315.283 219.8 313.88C219.767 313.198 219.874 312.517 220.115 311.879C220.355 311.24 220.724 310.657 221.198 310.166C221.672 309.676 222.241 309.287 222.871 309.024C223.501 308.762 224.178 308.631 224.86 308.64C226.264 308.649 227.61 309.199 228.62 310.175C229.629 311.15 230.224 312.477 230.28 313.88Z" fill="#005263"/>
<path d="M356.15 333.35L355.73 334.87L355.08 334.61L345.92 345.37L338.39 354.23L332.2 352.32L335.97 340.08C335.97 340.08 334.61 338.57 332.67 334.03C331.962 332.142 331.735 330.107 332.01 328.11C332.394 324.946 333.233 321.854 334.5 318.93H336.57L346.47 322.13L346.74 320.77L350.07 320.35L352.21 320.08L358.14 302.48C358.262 302.077 358.463 301.703 358.731 301.379C358.999 301.055 359.328 300.788 359.7 300.592C360.073 300.397 360.48 300.277 360.899 300.241C361.318 300.204 361.74 300.252 362.14 300.38C362.347 300.445 362.548 300.529 362.74 300.63C363.346 300.966 363.824 301.491 364.104 302.125C364.384 302.758 364.449 303.466 364.29 304.14L357.54 328.49L356.75 331.34L356.48 332.34V332.86V333.02L356.15 333.35Z" fill="#FFC5A6"/>
<path d="M356.15 333.35L355.73 334.87L355.08 334.61L345.92 345.37C342.66 345.37 339.85 344.65 339.57 342.32C338.88 336.51 342.28 334 342.28 334C335.38 332.61 332.86 329.76 331.97 328.15C332.354 324.986 333.193 321.894 334.46 318.97H336.53L346.43 322.17L346.7 320.81L350.03 320.39L347.39 326.85L350.86 330.07L356.68 331.36L356.41 332.36L356.46 333.04L356.15 333.35Z" fill="#FFB993"/>
<path d="M349.28 330.89C348.907 331.571 348.315 332.106 347.6 332.41C347.336 332.517 347.061 332.595 346.78 332.64C346.323 332.714 345.857 332.714 345.4 332.64C344.774 332.53 344.215 332.18 343.842 331.665C343.468 331.15 343.31 330.51 343.4 329.88C343.517 329.655 343.614 329.421 343.69 329.18L344.27 325.57L345.4 318.39C346.296 317.881 347.321 317.646 348.349 317.716C349.377 317.785 350.361 318.155 351.18 318.78C351.6 319.073 351.988 319.408 352.34 319.78L350.46 326.54L350.27 327.23L349.28 330.89Z" fill="#FFC5A6"/>
<path d="M336.38 329.67C335.846 329.722 335.308 329.66 334.8 329.49C332.33 328.72 332.8 327.17 334.5 318.93C334.853 318.266 335.442 317.759 336.152 317.509C336.861 317.258 337.638 317.284 338.33 317.58C338.755 317.742 339.158 317.957 339.53 318.22L337.72 328.64C337.62 328.923 337.44 329.171 337.203 329.354C336.965 329.537 336.679 329.646 336.38 329.67Z" fill="#FFC5A6"/>
<path d="M343.76 329.15C343.511 329.948 343.018 330.647 342.35 331.15C341.898 331.452 341.349 331.577 340.81 331.5C338.81 331.24 337.81 330.34 337.72 328.62L339.53 318.2C340.137 317.573 340.934 317.165 341.797 317.041C342.661 316.916 343.541 317.081 344.3 317.51C344.723 317.737 345.116 318.016 345.47 318.34L343.76 329.15Z" fill="#FFC5A6"/>
<path d="M357.04 329.93C356.517 330.441 355.963 330.919 355.38 331.36C353.867 332.561 352.119 333.433 350.25 333.92C349.547 333.292 349.111 332.419 349.03 331.48C348.689 331.961 348.231 332.346 347.7 332.6C347.51 332.688 347.312 332.758 347.11 332.81C347.008 332.762 346.912 332.705 346.82 332.64C346.363 332.714 345.897 332.714 345.44 332.64C344.813 332.53 344.254 332.18 343.881 331.665C343.508 331.15 343.35 330.51 343.44 329.88C343.556 329.656 343.653 329.421 343.73 329.18L344.31 325.57C344.44 325.365 344.584 325.167 344.74 324.98C344.861 324.841 345.023 324.745 345.203 324.705C345.384 324.666 345.572 324.685 345.74 324.76C347.28 325.43 348.63 325.93 349.82 326.33L350.12 326.43L350.52 326.56C353.01 327.36 354.69 327.66 355.79 327.97C355.907 327.998 356.021 328.038 356.13 328.09C356.476 328.217 356.763 328.469 356.933 328.797C357.103 329.124 357.145 329.504 357.05 329.86L357.04 329.93Z" fill="#FFB993"/>
<path d="M343.76 329.15C343.511 329.947 343.017 330.647 342.35 331.15L344.28 317.53C344.703 317.757 345.096 318.036 345.45 318.36L343.76 329.15Z" fill="#FFB993"/>
<path d="M336.38 329.67L338.33 317.58C338.755 317.742 339.158 317.957 339.53 318.22L337.72 328.64C337.62 328.923 337.44 329.171 337.203 329.354C336.965 329.537 336.679 329.647 336.38 329.67Z" fill="#FFB993"/>
<path d="M349.28 330.89C348.907 331.571 348.315 332.106 347.6 332.41L351.28 318.75C351.7 319.043 352.088 319.378 352.44 319.75L349.28 330.89Z" fill="#FFB993"/>
<path d="M357.66 336.8L349.16 343.64L345.28 356.34L335.88 353.44L340.72 337.75C342.85 333.03 348.25 333.34 348.25 333.34C347.872 333.187 347.505 333.01 347.15 332.81C347.049 332.761 346.952 332.705 346.86 332.64C343.45 330.54 344.33 327.48 344.99 326.06C345.086 325.851 345.261 325.688 345.476 325.607C345.692 325.527 345.93 325.535 346.14 325.63C347.513 326.261 348.93 326.792 350.38 327.22C352.039 327.71 353.739 328.045 355.46 328.22C355.839 328.259 356.196 328.415 356.483 328.665C356.769 328.916 356.971 329.25 357.06 329.62V329.81L358.28 335C358.353 335.328 358.333 335.67 358.224 335.987C358.115 336.305 357.919 336.586 357.66 336.8Z" fill="#FFC5A6"/>
<path d="M485.37 750.84L498.79 752C498.79 752 508.06 764 510.38 765.77C512.7 767.54 527.63 770.99 527.05 773.77C526.47 776.55 522.85 779.71 517.2 779.13C511.55 778.55 506.76 778.13 504.58 777.39C497.574 775.271 490.412 773.706 483.16 772.71C482.587 772.629 482.051 772.38 481.619 771.996C481.187 771.612 480.878 771.109 480.73 770.55C482.84 764.85 483.41 758.94 485.37 750.84Z" fill="#F2AB88"/>
<path d="M483.2 757.48C488.05 759.37 491.32 760.76 495.35 760.54C495.588 760.521 495.825 760.488 496.06 760.44C499.74 763.85 503.17 766.16 502.06 764.03C501.59 763.16 500.24 761.15 499.47 759.51C500.889 758.914 502.257 758.201 503.56 757.38C506.338 760.505 509.438 763.327 512.81 765.8C515.42 767.8 532.24 771.67 531.59 774.8C530.94 777.93 526.85 781.49 520.49 780.8C513.234 779.918 506.03 778.65 498.91 777C497.219 775.402 494.986 774.502 492.66 774.48C491.891 774.479 491.124 774.553 490.37 774.7C488.25 774.29 485.98 773.91 483.57 773.58C482.818 773.476 482.125 773.116 481.607 772.56C481.09 772.004 480.78 771.287 480.73 770.53C480.53 767.45 482.15 762.21 483.2 757.48Z" fill="#182C3C"/>
<path d="M480.84 768.24C482.48 768.67 484.49 768.88 487.9 769.65C497.39 771.81 497.7 774.53 501.24 775.65C510.99 778.65 519.02 778.98 521.36 778.76C524.87 778.76 528.94 777.91 531.57 774.58C531.575 774.657 531.575 774.734 531.57 774.81C530.91 777.91 526.83 781.5 520.47 780.81C513.221 779.925 506.024 778.653 498.91 777C497.219 775.403 494.987 774.502 492.66 774.48C491.891 774.48 491.125 774.553 490.37 774.7C488.25 774.29 485.98 773.91 483.57 773.58C482.818 773.476 482.125 773.116 481.608 772.56C481.09 772.005 480.78 771.288 480.73 770.53C480.72 770.43 480.84 768.24 480.84 768.24Z" fill="black"/>
<path d="M410.89 750.84L397.48 752C397.48 752 388.2 764 385.88 765.77C383.56 767.54 368.63 770.99 369.21 773.77C369.79 776.55 373.41 779.71 379.07 779.13C384.73 778.55 389.5 778.13 391.68 777.39C398.686 775.271 405.848 773.706 413.1 772.71C413.673 772.63 414.209 772.382 414.642 771.998C415.074 771.613 415.383 771.11 415.53 770.55C413.43 764.85 412.85 758.94 410.89 750.84Z" fill="#F2AB88"/>
<path d="M413.06 757.48C408.21 759.37 404.95 760.76 400.91 760.54C400.671 760.521 400.434 760.488 400.2 760.44C396.52 763.85 393.09 766.16 394.2 764.03C394.66 763.16 396.01 761.15 396.79 759.51C395.366 758.916 393.995 758.203 392.69 757.38C389.912 760.505 386.812 763.327 383.44 765.8C380.83 767.8 364.01 771.67 364.66 774.8C365.31 777.93 369.4 781.49 375.77 780.8C383.026 779.919 390.229 778.65 397.35 777C399.041 775.402 401.273 774.502 403.6 774.48C404.372 774.479 405.142 774.553 405.9 774.7C408.01 774.29 410.28 773.91 412.69 773.58C413.442 773.476 414.135 773.116 414.652 772.56C415.17 772.004 415.48 771.287 415.53 770.53C415.73 767.45 414.11 762.21 413.06 757.48Z" fill="#182C3C"/>
<path d="M415.43 768.24C413.79 768.67 411.77 768.88 408.37 769.65C398.87 771.81 398.56 774.53 395.02 775.65C385.27 778.65 377.24 778.98 374.9 778.76C371.39 778.76 367.33 777.91 364.7 774.58C364.69 774.657 364.69 774.734 364.7 774.81C365.36 777.91 369.44 781.5 375.81 780.81C383.052 779.924 390.243 778.652 397.35 777C399.041 775.403 401.273 774.502 403.6 774.48C404.372 774.479 405.142 774.553 405.9 774.7C408.01 774.29 410.28 773.91 412.69 773.58C413.442 773.476 414.135 773.116 414.652 772.56C415.17 772.005 415.479 771.288 415.53 770.53C415.54 770.43 415.43 768.24 415.43 768.24Z" fill="black"/>
<path d="M387.28 517.89C387.28 517.89 390.15 594.89 393.45 619.47C393.45 619.47 390.45 634.19 393.45 641.7C394.29 649.81 390.37 652.21 390.37 652.21V751.92C390.37 751.92 402.37 758.83 413.23 757.92C413.23 757.92 415.63 725.18 421.94 702.06C424.74 679.23 421.94 648.29 421.94 648.29C421.94 648.29 432.45 610.45 441.46 553.09C441.46 553.09 447.17 549.78 449.27 554.59C449.27 554.59 463.98 648.59 469.99 657.3C469.99 657.3 463.99 696.21 483.21 758C483.21 758 495.82 759.72 502.43 751.31C502.43 751.31 494.92 625.47 498.52 586.42C500.1 548.27 498.52 521.55 498.52 521.55L485.31 510.44L387.28 517.89Z" fill="#005263"/>
<path d="M414.36 328.46L377.36 342.85L343.45 365.46L338.28 391.67C338.28 391.67 329.03 414.79 310.53 406.57C310.53 406.57 306.93 397.32 310.53 388.57C310.53 388.57 300.77 409.64 311.04 416.32H330.57L383.01 386L387.28 517.89C387.28 517.89 395.33 525.78 442.61 524.24L444.45 514.5L450.32 524.44C450.32 524.44 485.26 513.44 496.56 501.63L493.99 462.06C493.99 462.06 516.09 462.06 520.2 465.15L523.8 445.15C523.8 445.15 517.12 370.64 514.03 360.36C514.03 360.36 513.03 340.83 492.97 337.75C492.97 337.75 468.3 335.18 462.13 318.75L423.6 316.18C420.857 320.516 417.766 324.623 414.36 328.46Z" fill="#EAEAEA"/>
<path d="M494 462.06V442C494 442 517.64 441.49 523.81 445.09L520.21 465.09C520.21 465.09 511.99 462.06 494 462.06Z" fill="#E2E2E2"/>
<path d="M504.74 350.81C504.74 350.81 494.38 390.01 497.53 403.52L500.84 412.98C500.84 412.98 503.61 398.98 508.9 396.32C508.9 396.32 500.2 419.32 502.9 429.65C502.9 429.65 508.78 421.54 514.18 424.25C514.18 424.25 497.96 430.91 502.47 442H493.98C493.98 442 497.18 456.78 488.5 493.16C488.5 493.16 490.3 469.28 488.5 458.02C488.5 458.02 484 469.28 474.99 474.69C474.99 474.69 496.76 446.3 493.99 412.06C491.22 377.82 499.33 364.33 504.74 350.81Z" fill="#E2E2E2"/>
<path d="M330.6 416.33L383.1 375.59C383.1 375.59 381.3 348.11 378.15 350.81C378.15 350.81 389.56 338.22 384.53 432.81L383.01 386L330.6 416.33Z" fill="#E2E2E2"/>
<path d="M449.33 554.6L478.63 656.36L494.63 756.78L483.28 758C483.28 758 467.54 708.09 470.06 657.3C470.05 657.31 456.81 613 449.33 554.6Z" fill="#024149"/>
<path d="M517.28 464.32L498.58 521.56C498.58 521.56 494.58 536.78 479.09 524.44C463.6 512.1 481.89 505.02 481.89 505.02C481.89 505.02 488.42 504.32 494 462.02C494 462.06 509.45 460.88 517.28 464.32Z" fill="#FFC5A6"/>
<path d="M413.28 757.93C413.28 757.93 415.71 721.43 422.48 697.27C422.48 697.27 422.63 665.4 421.99 648.27C421.99 648.27 436.35 594.41 439.56 565.07L413.28 652.63C413.28 652.63 402.28 742.86 405.06 757.35C405.07 757.35 410.81 758.45 413.28 757.93Z" fill="#024149"/>
<path d="M472.95 515.86C472.95 515.86 474.2 526.86 496.86 531.04C496.86 531 473.92 533.23 472.95 515.86Z" fill="#024149"/>
<path d="M349.5 351.78C349.5 351.78 340.36 374.3 339.68 388.11C339 401.92 323.76 414.4 308.86 406.18C303.1 387.78 330.86 345.71 330.86 345.71L349.5 351.78Z" fill="#EAEAEA"/>
<path d="M441.8 340C461.01 340 469.7 336.42 472.2 335.57C467.66 330.57 465.99 324.25 465.37 320.28C465.205 319.215 464.665 318.243 463.848 317.541C463.03 316.839 461.988 316.452 460.91 316.45H425.34C424.553 316.449 423.793 316.737 423.203 317.258C422.613 317.78 422.235 318.499 422.14 319.28C421.63 323.28 419.95 330.86 414.36 336.42C415.66 336.77 429.97 340 441.8 340Z" fill="#FFB993"/>
<path d="M418.906 336.153C418.906 336.153 412.105 346.804 439.413 346.898L443.231 354.634L446.279 346.462C446.279 346.462 469.706 342.437 463.925 331.758C463.924 331.748 448.559 345.33 418.906 336.153Z" fill="#FFC5A6"/>
<path d="M471.47 353.67L458.86 343.76L448.49 353.67L444.89 365.23V347.66C444.89 347.66 463.89 340.46 462.95 316.13L472.2 328.46L471.47 353.67Z" fill="#EAEAEA"/>
<path d="M469.9 352.24L459.1 343.76L448.74 353.67L445.73 363.33L452.17 351.63L469.9 352.24Z" fill="#E2E2E2"/>
<path d="M415.09 353.67L427.7 343.76L438.06 353.67L441.67 365.23V347.66C441.67 347.66 422.67 340.46 423.61 316.13L414.36 328.46L415.09 353.67Z" fill="#EAEAEA"/>
<path d="M416.91 352.24L427.7 343.76L438.07 353.67L441.08 363.33L434.64 351.63L416.91 352.24Z" fill="#E2E2E2"/>
<path d="M412.21 296.91C415.72 292.15 423.69 299.91 423.69 299.91C423.69 299.91 428.64 305.68 422.88 312.67C419.99 316.16 416.67 313.52 414.44 309.37C412.21 305.22 409.7 300.31 412.21 296.91Z" fill="#FFC5A6"/>
<path d="M417.28 309.85C417.631 310.278 418.082 310.612 418.593 310.823C419.104 311.034 419.66 311.116 420.21 311.06C420.468 310.98 420.691 310.812 420.839 310.586C420.987 310.36 421.051 310.089 421.02 309.82C420.69 308.82 417.4 306.95 418.22 304.07C419.04 301.19 415.35 298.37 414.22 299.97C413.28 301.22 414.36 306.91 417.28 309.85Z" fill="#FFB993"/>
<path d="M474.74 296.91C471.22 292.15 463.26 299.91 463.26 299.91C463.26 299.91 458.26 305.68 464.07 312.67C466.95 316.16 470.28 313.52 472.5 309.37C474.72 305.22 477.28 300.31 474.74 296.91Z" fill="#FFC5A6"/>
<path d="M469.68 309.85C469.332 310.278 468.882 310.612 468.373 310.823C467.863 311.035 467.309 311.116 466.76 311.06C466.501 310.98 466.277 310.813 466.128 310.587C465.978 310.361 465.912 310.09 465.94 309.82C466.28 308.82 469.57 306.95 468.75 304.07C467.93 301.19 471.62 298.37 472.75 299.97C473.67 301.22 472.58 306.91 469.68 309.85Z" fill="#FFB993"/>
<path d="M469.48 274.33C468.79 270.44 466.12 267.14 462.75 264.45C457.306 260.077 450.533 257.694 443.55 257.694C436.567 257.694 429.794 260.077 424.35 264.45C420.98 267.14 418.35 270.45 417.62 274.33C417.62 274.33 415.96 304.94 423.62 316.68C429.54 325.77 436.98 330.68 443.57 330.68C450.16 330.68 457.57 325.74 463.57 316.68C471.14 304.94 469.48 274.33 469.48 274.33Z" fill="#FFC5A6"/>
<path d="M420.28 298.92C419.44 285.54 420.88 275.59 421.65 274.4C425.557 271.267 428.614 267.203 430.54 262.58C430.54 262.58 441.54 267.92 458.97 265.78C458.97 265.78 462.21 270.35 465.15 275.04C466.57 277.31 467.15 290.4 466.78 298.89C466.75 299.503 466.855 300.115 467.086 300.683C467.317 301.252 467.67 301.762 468.12 302.18L468.69 302.7C470.84 298.35 472.97 280.03 471.88 273.97C468.81 256.91 456.47 255.1 444.19 255.1C439.068 255.134 434.016 256.291 429.39 258.49C428.45 258.21 427.01 257.88 427.03 257.69C420.46 258.13 417.1 267.47 415.16 273.97C413.22 280.47 416.16 298.35 418.35 302.7C418.984 302.304 419.498 301.743 419.838 301.077C420.178 300.411 420.33 299.666 420.28 298.92Z" fill="#0E1D28"/>
<path d="M427.34 264.49C427.96 264.757 428.57 265.037 429.17 265.33C429.661 264.437 430.105 263.519 430.5 262.58C430.5 262.58 441.5 267.92 458.93 265.78C458.93 265.78 461.68 269.66 464.41 273.94C466.788 273.232 469.047 272.17 471.11 270.79C467.11 256.68 455.62 255.1 444.11 255.1C438.988 255.134 433.936 256.291 429.31 258.49C428.37 258.21 426.93 257.88 426.95 257.69C424.975 257.876 423.14 258.788 421.8 260.25L421.86 260.33C423.32 262.143 425.201 263.571 427.34 264.49Z" fill="#0E2838"/>
<path d="M472.4 254.41C472.4 260.41 462.56 257.89 449.69 250.63C437.07 243.51 430.81 249.69 428.26 253.78C428.775 250.9 429.773 248.128 431.21 245.58C424.68 248.65 425.12 253.97 425.98 256.92C423.65 256.45 420.18 256.33 417.47 258.75C417.47 258.75 424.13 257.75 426.58 259.81C426.9 260.09 427.93 260.57 428.05 260.68C434.95 268.27 441.77 271.96 455.97 270.93C463.82 270.36 466.44 269.45 470.17 265.46C474.59 260.73 472.4 254.41 472.4 254.41Z" fill="#0E1D28"/>
<path d="M455.97 270.93C463.37 270.39 466.12 269.55 469.53 266.12C464.119 266.376 458.825 264.494 454.79 260.88C454.66 262.83 455.64 265.45 458.25 268.45C451.98 267.4 446.41 265.45 441.19 261.27C442.19 263.36 443.3 266.82 444.34 267.86C441.1 267.86 432.48 264.08 430.54 263.22C436.69 269.07 443.46 271.83 455.97 270.93Z" fill="#0E2838"/>
<path d="M450.47 277.4C450.47 277.4 457.92 278.4 459.55 279.46C461.18 280.52 464.39 284.3 463.93 285.4C463.47 286.5 458.07 282.68 457.32 282.68C456.57 282.68 449.51 281.68 449.14 280.6C448.72 279.34 449.28 277.18 450.47 277.4Z" fill="#1C1C1C"/>
<path d="M435.48 277.59C435.48 277.59 428 278.35 426.35 279.39C424.7 280.43 421.41 284.09 421.86 285.19C422.31 286.29 427.77 282.65 428.52 282.66C429.27 282.67 436.36 281.9 436.75 280.82C437.2 279.57 436.72 277.4 435.48 277.59Z" fill="#1C1C1C"/>
<path d="M420.01 288.71C418.306 288.651 416.621 288.337 415.01 287.78C415.75 294.09 417.16 300.35 418.32 302.7C418.948 302.304 419.457 301.745 419.794 301.083C420.13 300.421 420.281 299.681 420.23 298.94C420.01 295.21 419.95 291.78 420.01 288.71Z" fill="#0E2838"/>
<path d="M466.79 289C466.89 292.42 466.88 295.94 466.74 298.91C466.71 299.523 466.814 300.135 467.046 300.703C467.277 301.272 467.63 301.782 468.08 302.2L468.65 302.72C469.86 300.27 471.06 293.41 471.65 286.79C470.174 287.809 468.528 288.557 466.79 289Z" fill="#0E2838"/>
<path d="M431.75 310.14C431.75 310.14 444.65 314.75 453.15 308.91C453.15 308.91 452.5 319.18 443.02 319.66C436.7 320 432.95 315.1 431.75 310.14Z" fill="#9F1818"/>
<path d="M441.97 316C437.75 316.05 435.92 317.13 435.84 317.16C437.679 318.735 440.011 319.616 442.432 319.649C444.853 319.682 447.209 318.865 449.09 317.34C446.838 316.395 444.411 315.938 441.97 316Z" fill="#E34848"/>
<path d="M433.28 310.6C433.44 311.22 433.68 312.01 433.82 312.45C433.85 312.544 433.901 312.631 433.968 312.703C434.036 312.776 434.118 312.833 434.21 312.87C442.43 316.06 447.83 314.44 450.7 312.49C450.805 312.42 450.886 312.319 450.93 312.2C451.269 311.404 451.553 310.585 451.78 309.75C445.16 313.28 436.66 311.53 433.28 310.6Z" fill="#FDFAEE"/>
<path d="M447.59 293C448.375 292.22 449.288 291.58 450.29 291.11C451.637 290.479 453.138 290.257 454.61 290.47C455.979 290.514 457.285 291.058 458.28 292C458.704 292.498 459.216 292.915 459.79 293.23C458.84 293.795 457.835 294.261 456.79 294.62C453.6 295.26 450.64 294.02 447.48 293.25H447.92" fill="white"/>
<path d="M458.28 293.09C457.292 292.173 456.007 291.64 454.66 291.59C453.186 291.377 451.682 291.596 450.33 292.22C449.645 292.557 448.995 292.963 448.39 293.43L447.46 293.19H447.68L447.25 293.08C448.161 292.264 449.189 291.59 450.3 291.08C451.645 290.446 453.149 290.226 454.62 290.45C455.969 290.492 457.256 291.026 458.24 291.95C458.662 292.451 459.174 292.868 459.75 293.18C459.48 293.31 459.17 293.48 458.84 293.66L458.28 293.09Z" fill="#DBD8BD"/>
<path d="M456.92 292.59C456.922 292.086 456.774 291.592 456.496 291.172C456.217 290.751 455.82 290.423 455.355 290.228C454.89 290.033 454.377 289.981 453.882 290.077C453.387 290.174 452.932 290.415 452.574 290.77C452.216 291.125 451.971 291.579 451.871 292.073C451.77 292.567 451.819 293.08 452.01 293.547C452.201 294.014 452.527 294.413 452.945 294.695C453.363 294.977 453.855 295.128 454.36 295.13C454.695 295.132 455.027 295.067 455.336 294.94C455.646 294.813 455.928 294.626 456.166 294.39C456.404 294.155 456.593 293.874 456.722 293.565C456.851 293.256 456.918 292.925 456.92 292.59Z" fill="#351807"/>
<path d="M456.02 293.2C456.097 292.859 456.066 292.502 455.931 292.18C455.796 291.857 455.565 291.584 455.269 291.398C454.972 291.212 454.626 291.123 454.277 291.143C453.927 291.162 453.593 291.29 453.319 291.507C453.046 291.725 452.846 292.022 452.748 292.358C452.651 292.694 452.66 293.051 452.774 293.382C452.888 293.713 453.102 293.999 453.386 294.203C453.67 294.407 454.01 294.518 454.36 294.52C454.754 294.56 455.148 294.444 455.458 294.197C455.768 293.951 455.97 293.593 456.02 293.2Z" fill="#542913"/>
<path d="M455.39 292.59C455.39 292.392 455.331 292.199 455.222 292.034C455.112 291.87 454.956 291.742 454.773 291.666C454.59 291.59 454.389 291.57 454.195 291.609C454.001 291.648 453.823 291.743 453.683 291.883C453.543 292.023 453.448 292.201 453.409 292.395C453.371 292.589 453.391 292.79 453.466 292.973C453.542 293.155 453.67 293.311 453.835 293.421C453.999 293.531 454.192 293.59 454.39 293.59C454.655 293.59 454.91 293.484 455.097 293.297C455.285 293.109 455.39 292.855 455.39 292.59Z" fill="black"/>
<path d="M453.97 292.09C453.97 291.955 453.916 291.825 453.821 291.73C453.725 291.634 453.595 291.58 453.46 291.58C453.393 291.579 453.327 291.591 453.266 291.615C453.204 291.64 453.147 291.676 453.1 291.723C453.052 291.77 453.015 291.825 452.989 291.887C452.963 291.948 452.95 292.014 452.95 292.08C452.935 292.154 452.937 292.231 452.955 292.304C452.973 292.377 453.008 292.445 453.055 292.504C453.103 292.562 453.163 292.609 453.232 292.642C453.3 292.674 453.374 292.691 453.45 292.691C453.525 292.691 453.6 292.674 453.668 292.642C453.736 292.609 453.797 292.562 453.844 292.504C453.892 292.445 453.927 292.377 453.945 292.304C453.963 292.231 453.965 292.154 453.95 292.08L453.97 292.09Z" fill="white"/>
<path d="M447.59 293C448.813 292.077 450.135 291.292 451.53 290.66C451.53 290.66 455.73 290.13 457.77 291.73C458.2 292.07 459.25 293 459.25 293L460.52 292.87C460.128 291.966 459.454 291.212 458.6 290.72C456.97 289.57 451.38 289.72 451.38 289.72C449.904 290.759 448.482 291.874 447.12 293.06" fill="#110804"/>
<path d="M459.28 293C458.844 293.337 458.363 293.609 457.85 293.81C456.469 294.354 454.978 294.564 453.5 294.42C451.906 294.238 450.328 293.933 448.78 293.51C448.32 293.37 447.51 292.85 447.15 293.03C447.25 293.27 447.58 293.36 447.82 293.45C449.806 294.312 451.897 294.908 454.04 295.22C455.198 295.328 456.366 295.195 457.47 294.83C458.675 294.489 459.748 293.792 460.55 292.83" fill="#FFB993"/>
<path d="M437.94 293C437.155 292.22 436.242 291.58 435.24 291.11C433.893 290.479 432.392 290.257 430.92 290.47C429.561 290.521 428.267 291.065 427.28 292C426.856 292.498 426.344 292.915 425.77 293.23C426.72 293.795 427.725 294.261 428.77 294.62C431.96 295.26 434.92 294.02 438.08 293.25H437.64" fill="white"/>
<path d="M427.28 293.09C428.267 292.171 429.552 291.639 430.9 291.59C432.374 291.377 433.878 291.596 435.23 292.22C435.916 292.557 436.565 292.963 437.17 293.43L438.1 293.19H437.88L438.31 293.08C437.399 292.264 436.371 291.59 435.26 291.08C433.915 290.446 432.411 290.226 430.94 290.45C429.591 290.492 428.304 291.026 427.32 291.95C426.899 292.451 426.386 292.868 425.81 293.18C426.08 293.31 426.39 293.48 426.72 293.66L427.28 293.09Z" fill="#DBD8BD"/>
<path d="M429.72 292.55C429.72 292.046 429.87 291.553 430.149 291.134C430.429 290.715 430.827 290.388 431.292 290.195C431.757 290.002 432.27 289.951 432.764 290.048C433.258 290.146 433.713 290.388 434.07 290.743C434.427 291.099 434.67 291.552 434.77 292.046C434.87 292.54 434.82 293.053 434.629 293.519C434.437 293.985 434.112 294.384 433.694 294.665C433.276 294.947 432.784 295.098 432.28 295.1C431.945 295.101 431.612 295.036 431.301 294.909C430.991 294.781 430.708 294.594 430.471 294.357C430.233 294.12 430.044 293.838 429.915 293.528C429.787 293.218 429.72 292.886 429.72 292.55Z" fill="#351807"/>
<path d="M430.62 293.16C430.545 292.819 430.579 292.463 430.715 292.141C430.851 291.819 431.084 291.548 431.381 291.364C431.677 291.179 432.024 291.092 432.373 291.113C432.722 291.134 433.055 291.263 433.328 291.481C433.6 291.699 433.799 291.997 433.895 292.333C433.992 292.668 433.982 293.026 433.867 293.356C433.752 293.686 433.538 293.972 433.254 294.175C432.969 294.378 432.629 294.488 432.28 294.49C431.884 294.529 431.489 294.412 431.178 294.164C430.868 293.915 430.668 293.555 430.62 293.16Z" fill="#542913"/>
<path d="M431.28 292.55C431.28 292.352 431.338 292.159 431.448 291.994C431.558 291.83 431.714 291.702 431.897 291.626C432.08 291.55 432.281 291.53 432.475 291.569C432.669 291.608 432.847 291.703 432.987 291.843C433.127 291.983 433.222 292.161 433.261 292.355C433.299 292.549 433.279 292.75 433.204 292.932C433.128 293.115 433 293.271 432.835 293.381C432.671 293.491 432.478 293.55 432.28 293.55C432.015 293.55 431.76 293.444 431.573 293.257C431.385 293.069 431.28 292.815 431.28 292.55Z" fill="black"/>
<path d="M431.15 292.35C431.15 292.215 431.204 292.085 431.299 291.989C431.395 291.894 431.525 291.84 431.66 291.84C431.726 291.839 431.792 291.851 431.854 291.875C431.916 291.9 431.972 291.936 432.02 291.983C432.067 292.029 432.105 292.085 432.131 292.146C432.157 292.208 432.17 292.273 432.17 292.34C432.17 292.476 432.117 292.607 432.021 292.704C431.926 292.801 431.796 292.857 431.66 292.86C431.525 292.86 431.395 292.806 431.299 292.711C431.204 292.615 431.15 292.485 431.15 292.35Z" fill="white"/>
<path d="M437.94 293C436.717 292.077 435.396 291.292 434 290.66C434 290.66 429.8 290.13 427.76 291.73C427.28 292.09 426.28 293 426.28 293L425 292.87C425.402 291.968 426.077 291.216 426.93 290.72C428.56 289.57 434.15 289.72 434.15 289.72C434.15 289.72 437.35 292.01 438.41 293.06" fill="#110804"/>
<path d="M426.28 293C426.716 293.337 427.197 293.609 427.71 293.81C429.091 294.354 430.582 294.564 432.06 294.42C433.654 294.238 435.232 293.933 436.78 293.51C437.24 293.37 438.05 292.85 438.41 293.03C438.31 293.27 437.98 293.36 437.74 293.45C435.753 294.311 433.662 294.906 431.52 295.22C430.359 295.327 429.188 295.194 428.08 294.83C426.877 294.484 425.805 293.788 425 292.83" fill="#FFB993"/>
<path d="M436.28 303.83C436.28 304.6 439.48 305.47 442.78 305.47C446.08 305.47 448.83 304.41 448.84 303.63C448.84 303.21 448.24 302.81 446.61 302.81C445.54 302.81 444.09 304.51 442.61 304.51C441.13 304.51 439.3 302.51 438.23 302.72C437.16 302.93 436.28 303.42 436.28 303.83Z" fill="#E25D5D"/>
<path d="M330.87 345.71L349.5 351.78C349.5 351.78 347.7 356.41 346.86 358.83L327.28 351.52C327.28 351.52 330.59 345.62 330.87 345.71Z" fill="#E2E2E2"/>
</g>
<defs>
<clipPath id="clip0_1_2">
<rect width="753" height="850" fill="white"/>
</clipPath>
</defs>
</svg>
