<?xml version="1.0" encoding="UTF-8"?>
<svg id="Layer_1" xmlns="http://www.w3.org/2000/svg" viewBox="0 0 1080 1080">
  <defs>
    <style>
      .cls-1 {
        fill: #ebf4fe;
      }

      .cls-2 {MFI.svg
        fill: #042b62;
      }

      .cls-3 {
        fill: #2d2e30;
      }

      .cls-4 {
        fill: #848484;
      }

      .cls-5 {
        fill: #fff;
      }

      .cls-6 {
        fill: #e5e5e5;
      }

      .cls-7 {
        fill: #d2ebfc;
      }

      .cls-8 {
        fill: #0a3a72;
      }

      .cls-9 {
        fill: #ffd2ad;
      }

      .cls-10 {
        fill: #b03600;
      }

      .cls-11 {
        fill: #6b6b6b;
      }

      .cls-12 {
        fill: #c6c6c6;
      }

      .cls-13 {
        fill: #373738;
      }

      .cls-14 {
        fill: #ffcea0;
      }

      .cls-15 {
        fill: #8daec4;
      }

      .cls-16 {
        fill: #161616;
      }
    </style>
  </defs>
  <g id="Group_39725">
    <g id="Group">
      <path id="Vector" class="cls-2" d="M810.29,571.14c-10.93,0-20.64-2.78-29.11-8.41-28.73-19.08-33.13-64.05-13-133.66,15.72-54.34,42.7-111.92,62.56-150.74,5.37-10.42,14.68-18.05,25.62-20.9,9.7-2.52,19.48-.97,27.44,4.33l15.79,10.48-6.8,10.22-15.79-10.48c-5.04-3.36-11.25-4.27-17.53-2.65-7.5,1.94-13.97,7.31-17.79,14.62-19.6,38.3-46.25,95.1-61.72,148.54-8.6,29.82-12.61,54.92-11.84,74.66.84,21.87,7.5,37.13,19.86,45.35,12.35,8.22,29.05,8.47,49.55.78,18.51-6.92,40.11-20.31,64.24-39.79,43.28-34.87,85.4-81.38,113.08-114.31,5.3-6.27,7.7-14.36,6.6-22.06-.9-6.41-4.2-11.77-9.25-15.14l-13.78-9.19,6.8-10.22,13.78,9.19c8.02,5.3,13.2,13.71,14.62,23.61,1.62,11.19-1.81,22.71-9.38,31.7-28.08,33.32-70.71,80.48-114.76,115.99-39.79,31.96-72.98,48.07-99.18,48.07Z"/>
      <path id="Vector_2" class="cls-2" d="M980.3,359.59l3.56,2.39c3.56,2.39,8.41,1.36,10.74-2.14l14.95-22.45c2.39-3.56,1.35-8.41-2.14-10.74l-3.56-2.39c-3.56-2.39-8.41-1.36-10.74,2.13l-14.94,22.45c-2.4,3.49-1.43,8.35,2.13,10.74Z"/>
      <path id="Vector_3" class="cls-2" d="M890,299.49l3.56,2.39c3.56,2.39,8.41,1.36,10.74-2.14l14.94-22.45c2.4-3.56,1.36-8.41-2.13-10.74l-3.56-2.39c-3.56-2.39-8.41-1.36-10.74,2.13l-14.95,22.45c-2.39,3.56-1.42,8.41,2.14,10.74Z"/>
      <path id="Vector_4" class="cls-2" d="M892.19,856.95c-2.2,0-4.33-.97-5.82-2.78-2.58-3.23-2.13-7.96,1.1-10.55.39-.33,38.1-31.44,38.56-72.58.26-24.52-12.74-48.13-38.69-70.19-58.16-49.49-100.54-110.11-102.28-112.7-2.33-3.43-1.49-8.09,1.88-10.42,3.42-2.33,8.08-1.49,10.41,1.88.45.58,43.02,61.65,99.69,109.85,29.51,25.1,44.31,52.66,43.93,81.9-.58,48.2-42.31,82.48-44.12,83.9-1.29,1.17-2.97,1.69-4.66,1.69Z"/>
      <path id="Vector_5" class="cls-2" d="M880.61,955.03c30.76,0,55.7-24.94,55.7-55.7s-24.94-55.71-55.7-55.71-55.71,24.94-55.71,55.71,24.94,55.7,55.71,55.7Z"/>
      <path id="Vector_6" class="cls-5" d="M886.84,938.74c21.13-3.43,35.48-23.34,32.04-44.46-3.42-21.13-23.33-35.47-44.46-32.04-21.13,3.43-35.48,23.34-32.04,44.46,3.42,21.13,23.33,35.47,44.46,32.04Z"/>
      <path id="Vector_7" class="cls-2" d="M880.62,940.21c-21.87,0-39.72-17.79-39.72-39.72s17.79-39.72,39.72-39.72,39.72,17.79,39.72,39.72-17.86,39.72-39.72,39.72ZM880.62,862.78c-20.83,0-37.78,16.95-37.78,37.78s16.95,37.78,37.78,37.78,37.78-16.95,37.78-37.78-16.95-37.78-37.78-37.78Z"/>
    </g>
    <g id="Group_2">
      <path id="Vector_8" class="cls-2" d="M764.35,145.59H197.12v809.37h567.23V145.59Z"/>
      <path id="Vector_9" class="cls-5" d="M705.8,200.26H250.69v701.72h455.12V200.26Z"/>
      <path id="Vector_10" class="cls-2" d="M706.85,902.96H249.72V199.29h457.06v703.67h.06ZM251.66,901.01h453.18V201.23H251.66v699.78Z"/>
      <path id="Vector_11" class="cls-2" d="M372.96,342.19c-.32-.39-.97-.45-1.36-.13l-21.41,17.66c-7.12-8.93-18.11-14.62-30.34-14.62-13.13,0-24.71,6.53-31.76,16.5l-2.72-2.98c-.39-.39-.97-.39-1.36-.07-.39.39-.39.97-.07,1.36l3.04,3.3c-3.82,6.02-6.02,13.13-6.02,20.77,0,21.48,17.47,38.88,38.88,38.88s38.88-17.47,38.88-38.88c0-8.47-2.72-16.3-7.37-22.71l21.48-17.73c.45-.32.52-.91.13-1.36ZM319.85,347.04c11.64,0,22.06,5.43,28.85,13.91l-34.61,28.53-24.65-26.46c6.66-9.64,17.79-15.98,30.41-15.98ZM356.79,383.98c0,20.38-16.56,36.94-36.94,36.94s-36.94-16.56-36.94-36.94c0-7.05,2.01-13.65,5.43-19.28l25.62,27.43,35.97-29.63c4.33,6.08,6.86,13.46,6.86,21.48Z"/>
      <path id="Vector_12" class="cls-2" d="M367.53,477.79c-.32-.39-.97-.45-1.36-.13l-21.41,17.66c-7.12-8.93-18.11-14.62-30.34-14.62-13.13,0-24.71,6.53-31.76,16.5l-2.72-2.98c-.39-.39-.97-.39-1.36-.06-.39.39-.39.97-.06,1.36l3.04,3.3c-3.82,6.02-6.02,13.13-6.02,20.77,0,21.48,17.47,38.88,38.88,38.88s38.88-17.47,38.88-38.88c0-8.47-2.72-16.3-7.38-22.71l21.48-17.73c.39-.32.45-.97.13-1.36ZM314.35,482.64c11.65,0,22.06,5.43,28.85,13.91l-34.61,28.53-24.65-26.46c6.66-9.64,17.86-15.98,30.41-15.98ZM351.36,519.58c0,20.38-16.56,36.94-36.94,36.94s-36.94-16.56-36.94-36.94c0-7.05,2.01-13.65,5.43-19.28l25.62,27.43,35.97-29.63c4.27,6.02,6.86,13.46,6.86,21.48Z"/>
      <path id="Vector_13" class="cls-2" d="M365.78,613.32c-.32-.39-.97-.45-1.36-.13l-21.41,17.66c-7.12-8.93-18.11-14.62-30.34-14.62-13.13,0-24.71,6.53-31.76,16.5l-2.72-2.98c-.39-.39-.97-.39-1.36-.07-.39.39-.39.97-.07,1.36l3.04,3.3c-3.82,6.02-6.02,13.13-6.02,20.77,0,21.48,17.47,38.88,38.88,38.88s38.88-17.47,38.88-38.88c0-8.47-2.72-16.3-7.37-22.71l21.48-17.73c.39-.32.45-.91.13-1.36ZM312.61,618.17c11.64,0,22.06,5.43,28.85,13.91l-34.61,28.53-24.65-26.46c6.66-9.64,17.79-15.98,30.41-15.98ZM349.61,655.18c0,20.38-16.56,36.94-36.94,36.94s-36.94-16.56-36.94-36.94c0-7.05,2.01-13.65,5.43-19.28l25.62,27.43,35.97-29.63c4.27,6.02,6.86,13.46,6.86,21.48Z"/>
      <path id="Vector_14" class="cls-2" d="M671.01,353.12h-276.11c-.52,0-.97-.45-.97-.97s.45-.97.97-.97h276.11c.52,0,.97.45.97.97s-.45.97-.97.97Z"/>
      <path id="Vector_15" class="cls-2" d="M595.63,397.83h-203.07c-.52,0-.97-.45-.97-.97s.45-.97.97-.97h203.07c.52,0,.97.45.97.97s-.45.97-.97.97Z"/>
      <path id="Vector_16" class="cls-2" d="M668.15,493.9h-279.09c-.52,0-.97-.45-.97-.97s.45-.97.97-.97h279.09c.52,0,.97.45.97.97s-.45.97-.97.97Z"/>
      <path id="Vector_17" class="cls-2" d="M520.07,538.54h-133.33c-.52,0-.97-.45-.97-.97s.45-.97.97-.97h133.4c.52,0,.97.45.97.97s-.45.97-1.03.97Z"/>
      <path id="Vector_18" class="cls-2" d="M671,634.6h-287.11c-.52,0-.97-.45-.97-.97s.45-.97.97-.97h287.11c.52,0,.97.45.97.97s-.45.97-.97.97Z"/>
      <path id="Vector_19" class="cls-2" d="M606.83,679.31h-225.26c-.52,0-.97-.45-.97-.97s.45-.97.97-.97h225.26c.52,0,.97.45.97.97s-.45.97-.97.97Z"/>
      <path id="Vector_20" class="cls-2" d="M562.58,739.86h-268.99c-.52,0-.97-.45-.97-.97s.45-.97.97-.97h268.99c.52,0,.97.45.97.97s-.45.97-.97.97Z"/>
      <path id="Vector_21" class="cls-2" d="M560.24,785.66h-268.99c-.52,0-.97-.45-.97-.97s.45-.97.97-.97h268.99c.52,0,.97.45.97.97s-.45.97-.97.97Z"/>
      <path id="Vector_22" class="cls-7" d="M370.43,150.25c0,98.01-45.61,177.39-101.89,177.39s-101.89-79.44-101.89-177.39c0,0,37.52-12.62,49.43-18.05,13.97-6.4,54.15-29.31,54.15-29.31,0,0,39.27,23.1,52.4,29.31,11.97,5.63,47.81,18.05,47.81,18.05Z"/>
      <path id="Vector_23" class="cls-2" d="M268.55,328.61c-27.56,0-53.44-18.63-72.91-52.47-19.34-33.64-29.95-78.41-29.95-125.96v-.71l.65-.19c.39-.13,37.59-12.68,49.36-18.05,13.78-6.28,53.7-29.05,54.08-29.24l.52-.26.45.26c.39.26,39.4,23.16,52.34,29.24,11.71,5.56,47.29,17.92,47.68,18.05l.65.19v.71c0,47.55-10.67,92.25-29.95,125.96-19.41,33.83-45.35,52.47-72.91,52.47ZM167.63,150.96c.19,96.97,45.41,175.77,100.92,175.77s100.66-78.8,100.92-175.77c-4.92-1.75-36.23-12.68-47.23-17.86-12.23-5.76-47.42-26.39-52.01-29.05-4.66,2.65-40.76,23.1-53.76,29.05-10.87,4.98-43.73,16.11-48.84,17.86Z"/>
      <path id="Vector_24" class="cls-5" d="M351.87,163.83c0,80.15-37.33,145.11-83.32,145.11s-83.32-64.95-83.32-145.11c0,0,33.25-10.74,43.8-15.53,10.74-4.92,41.34-23.48,41.34-23.48,0,0,30.28,19.47,41.08,24.65,9.57,4.53,40.43,14.36,40.43,14.36Z"/>
      <path id="Vector_25" class="cls-2" d="M268.55,309.91c-22.64,0-43.86-15.27-59.78-43.02-15.85-27.56-24.52-64.18-24.52-103.12v-.71l.65-.19c.32-.13,33.32-10.74,43.67-15.53,10.61-4.85,40.95-23.29,41.21-23.42l.52-.32.52.32c.32.19,30.34,19.47,40.95,24.58,9.45,4.53,40.05,14.3,40.37,14.36l.65.19v.71c0,38.94-8.73,75.56-24.52,103.12-15.85,27.75-37.07,43.02-59.71,43.02ZM186.2,164.54c.19,79.12,37.07,143.42,82.35,143.42s82.16-64.31,82.35-143.42c-4.72-1.49-31.05-10.03-39.92-14.3-10.09-4.85-36.49-21.67-40.63-24.32-4.08,2.46-30.99,18.7-40.89,23.22-9.77,4.53-38.36,13.84-43.28,15.4Z"/>
      <path id="Vector_26" class="cls-2" d="M322.69,198.44h-37.33v-37.33h-33.64v37.33h-37.26v33.64h37.26v37.33h33.64v-37.33h37.33v-33.64Z"/>
    </g>
    <g id="Group_3">
      <path id="Vector_27" class="cls-2" d="M519.12,951.28c-11.19-6.86-14.81-21.61-7.96-32.81l26.14-42.82c6.86-11.19,21.61-14.82,32.8-7.96,11.19,6.86,14.81,21.61,7.96,32.8l-26.14,42.83c-6.79,11.26-21.61,14.82-32.8,7.96Z"/>
      <path id="Vector_28" class="cls-2" d="M581.8,882.18c-1.55-6.47-5.56-11.9-11.19-15.4-11.71-7.12-27.04-3.42-34.16,8.28l-26.14,42.83c-3.43,5.63-4.46,12.29-2.91,18.76s5.56,11.9,11.19,15.39c4.01,2.46,8.48,3.62,12.87,3.62,8.41,0,16.56-4.27,21.28-11.9l26.14-42.83c3.43-5.56,4.46-12.29,2.91-18.76ZM551.07,942.87c-6.6,10.8-20.7,14.23-31.51,7.63-5.17-3.17-8.86-8.22-10.29-14.17-1.42-5.95-.52-12.09,2.65-17.34l12.55-20.57,39.14,23.87-12.55,20.58ZM577.21,899.97l-12.55,20.57-39.14-23.87,12.55-20.57c4.33-7.06,11.84-11,19.6-11,4.08,0,8.15,1.1,11.9,3.37,5.18,3.17,8.86,8.21,10.29,14.17,1.49,6.01.52,12.16-2.65,17.34Z"/>
      <path id="Vector_29" class="cls-12" d="M554.56,939.05s-6.53,12.55-14.49,14.17c-7.96,1.55-19.34,3.37-28.92-9.96-9.57-13.33,3.3-30.15,3.3-30.15l9.77-16.04,40.76,24.85-10.42,17.15Z"/>
    </g>
    <g id="Group_4">
      <path id="Vector_30" class="cls-6" d="M617.65,777.19v-53.82h124.34v53.82c19.6,2.07,34.94,19.6,34.94,41.02v136.76h-194.14v-136.76c0-21.41,15.4-39.2,34.87-41.02Z"/>
      <path id="Vector_31" class="cls-5" d="M582.78,919.25h105.58l1.23-84.42h-106.81v84.42Z"/>
      <path id="Vector_32" class="cls-2" d="M742.95,776.28v-53.95h-126.28v53.95c-19.67,2.33-34.93,20.51-34.93,41.86v137.73h196.08v-137.73c0-21.48-14.94-39.27-34.87-41.86ZM699.74,724.27h10.48v51.88h-10.48v-51.88ZM688.03,724.27h9.7v51.88h-9.7v-51.88ZM675.29,724.27h10.8v51.88h-10.8v-51.88ZM661.51,724.27h11.84v51.88h-11.84v-51.88ZM647.27,724.27h12.29v51.88h-12.29v-51.88ZM632.39,724.27h12.94v51.88h-12.94v-51.88ZM618.61,724.27h11.84v51.88h-11.84v-51.88ZM583.75,835.8h104.87l-1.16,82.48h-103.7v-82.48ZM775.88,953.93h-192.2v-33.71h105.64l1.23-86.36h-106.81v-15.72c0-20.64,14.94-38.23,33.96-40.04h98.79v-1.94h-4.33v-51.88h28.85v53.76l.84.07c19.41,2.07,34.03,19.21,34.03,40.04v135.79Z"/>
    </g>
    <g id="Group_5">
      <path id="Vector_33" class="cls-14" d="M705.86,909.49v20.31h28.21l2.33-19.28-30.54-1.04Z"/>
      <path id="Vector_34" class="cls-2" d="M734.92,930.77h-29.95l-.06-22.32,32.6,1.09-2.59,21.22ZM706.84,928.83h26.33l2.13-17.41-28.46-.97v18.37Z"/>
      <path id="Vector_35" class="cls-15" d="M804.97,673.94v39.66l-34.61-2.13,4.99-35.9,29.62-1.62Z"/>
      <path id="Vector_36" class="cls-11" d="M704.32,928.57s-40.69,12.94-42.12,23.54h72.97v-23.54h-30.86Z"/>
      <path id="Vector_37" class="cls-14" d="M819.33,909.94l.78,20.57h28.15l1.35-21.02-30.28.45Z"/>
      <path id="Vector_38" class="cls-2" d="M849.16,931.48h-30.02l-.84-22.51,32.29-.45-1.43,22.96ZM821.03,929.54h26.33l1.23-19.02-28.2.38.65,18.63Z"/>
      <path id="Vector_39" class="cls-11" d="M818.56,929.28s-40.69,12.94-42.11,23.55h72.97v-23.55h-30.86Z"/>
      <path id="Vector_40" class="cls-2" d="M773.8,948.75v6.15h77.56v-6.98l-77.56.84Z"/>
      <path id="Vector_41" class="cls-2" d="M737.51,947.72v6.46h-77.5v-6.98l77.5.52Z"/>
      <path id="Vector_42" class="cls-2" d="M815.84,937.95c-.06,0-.19,0-.26-.07l-14.03-4.2c-.52-.13-.78-.72-.65-1.23.13-.52.71-.78,1.23-.65l14.04,4.21c.52.13.78.71.65,1.23-.2.38-.58.71-.98.71Z"/>
      <path id="Vector_43" class="cls-11" d="M822.5,430.82l-1.75-.84c.13-.32,13.97-29.44,6.73-43.93-2-4.01-5.56-6.6-10.55-7.57h-29.11c-.2,0-22.13,1.42-22.45,14.56-.32,12.81,2.52,26.85,2.59,26.98l-1.88.39c0-.13-2.91-14.36-2.65-27.43.32-14.94,23.36-16.43,24.33-16.5h29.43c5.63,1.1,9.64,4.01,11.97,8.6,7.7,15.46-6.08,44.51-6.66,45.74Z"/>
      <path id="Vector_44" class="cls-2" d="M808.79,942.16c-.06,0-.19,0-.26-.07l-14.04-4.21c-.52-.13-.78-.71-.64-1.23.13-.52.71-.78,1.23-.64l14.04,4.2c.52.13.78.71.64,1.23-.19.39-.58.72-.97.72Z"/>
      <path id="Vector_45" class="cls-2" d="M799.02,946.36c-.07,0-.19,0-.26-.07l-14.04-4.2c-.52-.13-.78-.72-.64-1.24.13-.51.71-.77,1.23-.64l14.04,4.21c.52.13.78.71.64,1.23-.13.38-.52.71-.97.71Z"/>
      <path id="Vector_46" class="cls-2" d="M703.61,935.81c-.06,0-.19,0-.26-.06l-14.04-4.21c-.52-.13-.78-.71-.65-1.23s.71-.78,1.23-.65l14.04,4.21c.52.13.78.71.65,1.23-.13.45-.52.71-.97.71Z"/>
      <path id="Vector_47" class="cls-2" d="M696.56,940.02c-.07,0-.19,0-.26-.07l-14.04-4.21c-.52-.13-.78-.71-.65-1.23.13-.52.71-.78,1.23-.64l14.04,4.2c.52.13.78.72.65,1.23-.13.46-.52.72-.97.72Z"/>
      <path id="Vector_48" class="cls-2" d="M686.85,944.22c-.07,0-.19,0-.26-.06l-14.04-4.21c-.52-.13-.78-.71-.65-1.23.13-.52.71-.78,1.23-.65l14.04,4.21c.52.13.78.71.65,1.23-.19.45-.58.71-.97.71Z"/>
      <path id="Vector_49" class="cls-13" d="M858.6,554.51l-1.09,105.77-.65,63.01-2.07,190.39h-44.77l-20.05-194.21-3.04-29.24-5.76,28.72-39.33,194.72h-43.09l17.73-194.72,8.22-89.86,4.79-52.27,60.49-10.42,23.49-4.08,45.15-7.83Z"/>
      <path id="Vector_50" class="cls-14" d="M782.01,357.01s3.17,33.32.52,36.94c-2.65,3.69-18.05,10.48-18.05,10.48l25.75,75.75,55.06-5.3,3.56-56.35s-25.1-20.44-26.65-24.65c-2.07-5.82-2.07-36.88-2.07-36.88h-38.11Z"/>
      <path id="Vector_51" class="cls-2" d="M789.58,481.22l-26.33-77.31.84-.39c4.21-1.88,15.59-7.31,17.66-10.16,1.81-2.46.52-23.55-.71-36.29-.07-.52.32-1.04.9-1.04.52-.06,1.04.32,1.04.91.52,5.63,3.04,33.83.33,37.65-2.46,3.43-14.17,8.86-17.6,10.42l25.23,74.2,53.44-5.18,3.49-54.99c-3.94-3.23-25.03-20.64-26.53-24.78-2.13-5.89-2.13-35.9-2.13-37.2,0-.52.45-.97.97-.97s.97.45.97.97c0,.32,0,30.99,2.07,36.55,1.04,2.91,16.3,16.11,26.33,24.26l.38.32-3.62,57.64-56.73,5.37Z"/>
      <path id="Vector_52" class="cls-14" d="M630.95,422.35c8.41,4.72,41.86,40.11,41.86,40.11l-24,11.45s-19.47-36.36-22.9-36.81c-6.47-.84-26.01-.26-32.35-4.53-9.57-6.4-14.49-14.56-13.33-17.08.65-1.36,17.14,8.54,20.83,8.67,10.16.26,23.87-5.18,29.89-1.81Z"/>
      <path id="Vector_53" class="cls-2" d="M648.35,475.2l-.45-.84c-9.19-17.21-20.05-35.45-22.25-36.29-1.68-.19-4.46-.32-7.63-.52-8.54-.39-20.25-.97-25.04-4.14-9.64-6.47-15.2-15.01-13.71-18.31.13-.26.39-.52.71-.65,1.03-.39,2.91.45,9.83,3.88,4.27,2.13,9.57,4.79,11.19,4.79,4.08.13,8.73-.71,13.26-1.49,6.79-1.23,13.26-2.33,17.14-.13,8.47,4.79,40.69,38.82,42.05,40.3l.91.97-26.01,12.42ZM581.01,416.46c.07,2.39,4.27,9.45,13.07,15.33,4.33,2.91,15.72,3.43,24.07,3.82,3.23.13,6.02.26,7.89.52.84.13,2.65.32,13.46,19.08,4.33,7.5,8.41,15.01,9.7,17.47l21.93-10.48c-5.43-5.69-33.25-34.74-40.69-38.95-3.23-1.81-9.38-.78-15.85.39-4.59.84-9.38,1.68-13.65,1.55-1.88-.06-6.02-2.01-12.03-5.05-2.78-1.42-6.47-3.23-7.89-3.69Z"/>
      <path id="Vector_54" class="cls-11" d="M756.13,401.45c-16.63,6.08-12.62,94.9-12.62,94.9-2.72,10.42-9.12,66.37-9.12,66.37l116.58,23.22,13.71-69.8s8.6-117.55-37.07-124.4c-4.39-.65-17.79,5.63-32.09,4.21-6.21-.58-9.38,6.79-12.49-4.08.07,0-23.35,8.22-26.91,9.57Z"/>
      <path id="Vector_55" class="cls-2" d="M859.33,664.23l-1.55,59.06h-.91l-66.89-3.82-3.04-29.24-5.75,28.72h-64.7l8.22-89.86,24-43.15,41.27-19.54,20.83-9.9,2.66,5.82,44.06,97.95,1.81,3.95Z"/>
      <path id="Vector_56" class="cls-2" d="M783.18,507.87l-11.07-114.05c-7.63,0-40.24,20.51-40.24,20.51-.52-1.04-27.82,48.78-35.32,67.35-.84,2.13-40.3-41.08-40.04-38.56,0,0-23.22,7.12-23.1,11.13.19,4.08,36.1,73.23,62.62,85.78,4.92,2.33,32.86-15.53,34.29-42.12l-3.62,65.53-11.97,145.37,58.48.06,8.48-135.4,1.49-65.6Z"/>
      <path id="Vector_57" class="cls-2" d="M824.77,389.55l-42.44,120.78c-.13,9.64-2.26,48.33,0,89.21,3.04,55.57,10.74,115.28,10.74,111.92,0-1.36,71.35,3.17,71.35,3.17l3.43-114.05s27.04-18.7,27.04-71.62c0-59.32-3.24-79.51-11.13-109.27-1.16-4.27-43.47-30.15-59-30.15Z"/>
      <path id="Vector_58" class="cls-3" d="M800.97,292.57c-6.92-.13-23.74-.71-25.3,11.51-1.81,13.97-1.75,32.15-1.55,41.79.07,3.82,2.91,6.99,6.66,7.44l42.11,5.43c3.88.52,7.51-2.01,8.41-5.76,3.11-12.74,9.51-39.72,8.54-44.06-3.43-14.75-27.89-16.11-38.88-16.37Z"/>
      <path id="Vector_59" class="cls-14" d="M818.43,367.42c2.59-2.07,4.65-11.32,6.34-21.93.07-.32.26-.58.52-.71,2.97-1.29,7.44-4.33,8.02-9.57.52-4.59-2.97-4.08-5.75-2.91-.52.19-1.04-.19-.97-.78,1.42-12.87,2.2-24.26,2.2-24.26l-50.01-6.4s-1.35,11.45-2.52,24.39c-.06.58-1.87,31.51-1.04,34.42.46,1.62,1.55,3.04,3.11,4.27,0,0,2.85,3.04,21.09,5.37l19.02-1.88Z"/>
      <path id="Vector_60" class="cls-3" d="M799.35,370.27h-.13c-17.21-2.2-20.96-5.05-21.61-5.63-1.75-1.42-2.91-2.98-3.43-4.72-.9-3.17.98-34.48,1.04-34.81,1.17-12.81,2.52-24.32,2.52-24.39l.13-.97,51.88,6.66-.07.91c0,.13-.71,11.32-2.13,23.87,2.39-.91,4.2-.91,5.37-.07,1.04.78,1.49,2.2,1.23,4.14-.65,6.27-6.15,9.32-8.54,10.35-2,13.13-4.2,20.51-6.66,22.51-.39.32-1.04.26-1.36-.13-.33-.39-.26-1.03.13-1.36,1.17-.91,3.43-4.92,5.95-21.35.13-.65.52-1.16,1.1-1.42,2.07-.91,6.86-3.49,7.43-8.8.07-.84.07-1.94-.52-2.39-.64-.45-2.06-.32-3.88.45-.52.19-1.17.13-1.62-.19-.45-.39-.71-.97-.64-1.55,1.16-10.61,1.94-20.31,2.13-23.29l-48.13-6.15c-.32,3.04-1.49,12.81-2.39,23.42-.13,1.23-1.81,31.44-1.1,34.09.38,1.36,1.29,2.59,2.78,3.75l.13.07s3.23,2.85,20.5,5.05c.52.07.9.58.84,1.1-.07.52-.52.84-.97.84Z"/>
      <path id="Vector_61" class="cls-3" d="M806.66,334.36h-.13c-.91-.07-1.55-.84-1.49-1.75l.06-1.04c.07-.91.84-1.55,1.75-1.49.91.06,1.55.84,1.49,1.75l-.07,1.03c-.07.84-.78,1.49-1.62,1.49Z"/>
      <path id="Vector_62" class="cls-3" d="M784.66,332.23h-.19c-.91-.13-1.55-.91-1.43-1.81l.13-1.23c.13-.91.9-1.55,1.81-1.42.9.13,1.55.91,1.42,1.81l-.13,1.23c-.13.84-.84,1.42-1.62,1.42Z"/>
      <path id="Vector_63" class="cls-3" d="M812.8,326.67c-.13,0-.33-.07-.45-.13-3.82-2.13-7.89-.91-7.96-.91-.52.13-1.04-.13-1.23-.65-.13-.52.13-1.03.64-1.23.19-.06,4.92-1.49,9.45,1.04.45.26.65.84.39,1.29-.13.39-.46.58-.84.58Z"/>
      <path id="Vector_64" class="cls-3" d="M792.42,345.75c-.13,0-.2,0-.33-.06-.71-.26-4.33-1.62-4.47-3.88-.06-1.62.13-2.07,2.85-6.99.58-1.04,1.29-2.33,2.14-3.88.38-.91,1.35-3.49,1.23-5.11,0-.07-.19-.39-.9-.84-2.2-1.29-7.12-2.26-10.22-.91-.52.19-1.04,0-1.29-.52-.19-.52,0-1.04.52-1.29,3.49-1.55,9.19-.65,12.03,1.1,1.17.71,1.81,1.49,1.88,2.39.19,2.46-1.36,5.95-1.42,6.08l-.07.06c-.84,1.55-1.55,2.91-2.14,3.95-2.59,4.72-2.65,4.92-2.59,5.95,0,.58,1.75,1.62,3.17,2.13.52.19.78.71.58,1.23-.19.32-.58.58-.97.58Z"/>
      <path id="Vector_65" class="cls-2" d="M843.01,607.3c-.19,0-.38-.07-.58-.19l-32.15-24.45c-.45-.32-.52-.91-.19-1.36.32-.45.9-.52,1.35-.19l32.15,24.45c.45.32.52.91.19,1.36-.19.26-.52.39-.78.39Z"/>
      <path id="Vector_66" class="cls-2" d="M729.74,601.55c-.32,0-.71-.19-.84-.52-.26-.45-.06-1.03.45-1.29l34.61-17.6c.45-.26,1.03-.06,1.29.45.26.45.07,1.04-.45,1.29l-34.61,17.6c-.19.07-.32.07-.45.07Z"/>
      <path id="Vector_67" class="cls-5" d="M773.02,390.45l-23.23,25.68,18.82,7.57-10.8,28.46,24.91,52.34c.07.19.38.13.38-.13l-10.09-113.92Z"/>
      <path id="Vector_68" class="cls-2" d="M782.92,505.54c-.45,0-.84-.26-1.04-.65l-25.1-52.66,10.67-27.95-19.28-7.76,25.69-28.34,10.22,116.12c.07.58-.32,1.1-.84,1.23h-.33ZM758.85,452.11l22.9,48.07-9.45-107.39-20.83,23.03,18.44,7.44-11.06,28.85Z"/>
      <path id="Vector_69" class="cls-5" d="M824.77,389.55l22.45,34.09-25.36,2.2,5.69,30.15-43.02,47.94c-.26.32-.78,0-.64-.39l40.88-113.99Z"/>
      <path id="Vector_70" class="cls-2" d="M784.27,504.96c-.26,0-.52-.06-.72-.19-.58-.32-.78-1.04-.58-1.62l41.47-115.8,24.45,37.07-25.88,2.26,5.57,29.56-43.35,48.26c-.19.32-.58.45-.97.45ZM825.03,391.68l-39.2,109.33,40.69-45.35-5.82-30.73,24.77-2.13-20.44-31.12Z"/>
      <path id="Vector_71" class="cls-2" d="M861.52,715.6l-69.09-3.17-.26-.52c-6.02-13.59-11.26-124.4-11.52-129.06l1.42-78.47c0-.52.46-.97.98-.97s.97.45.97.97l-1.43,78.41c.07,1.1,5.31,112.24,11.13,127.77l67.79,3.11c.52,0,.98.45.91,1.03.07.52-.39.91-.91.91Z"/>
      <path id="Vector_72" class="cls-14" d="M789.64,551.21c0,1.55,1.29,2.85,2.85,2.85s2.85-1.29,2.85-2.85-1.29-2.85-2.85-2.85-2.85,1.23-2.85,2.85Z"/>
      <path id="Vector_73" class="cls-2" d="M792.5,555.03c-2.13,0-3.82-1.75-3.82-3.82s1.75-3.82,3.82-3.82,3.82,1.75,3.82,3.82-1.68,3.82-3.82,3.82ZM792.5,549.34c-1.04,0-1.88.84-1.88,1.88s.84,1.88,1.88,1.88,1.88-.84,1.88-1.88-.84-1.88-1.88-1.88Z"/>
      <path id="Vector_74" class="cls-2" d="M770.69,709.78h-56.99l.06-1.03,17.47-233.87c.07-.52.52-.91,1.04-.91.52.06.91.52.91,1.03l-17.4,232.83h54.86c.52,0,.98.45.98.97s-.33.97-.91.97Z"/>
      <path id="Vector_75" class="cls-11" d="M837,395.11l-13.52-10.55-27.95,11.39,8.99,10.67,32.47-11.52Z"/>
      <path id="Vector_76" class="cls-2" d="M804.21,407.79l-10.22-12.23,29.69-12.1,15.33,11.97-34.8,12.36ZM797.16,396.34l7.69,9.19,30.22-10.67-11.65-9.12-26.26,10.61Z"/>
      <path id="Vector_77" class="cls-11" d="M764.68,396.34l9.44-10.03,21.41,9.64-8.08,9.83-22.77-9.45Z"/>
      <path id="Vector_78" class="cls-2" d="M787.77,407.01l-24.71-10.29,10.87-11.52,23.23,10.42-9.39,11.39ZM766.36,395.95l20.83,8.67,6.79-8.35-19.67-8.8-7.95,8.47Z"/>
      <path id="Vector_79" class="cls-2" d="M804.52,406.62l-8.99-10.67-8.93,10.67,3.95,4.59-10.41,56.99,3.82,35.26,14.42-40.24-.38-51.11,6.53-5.5Z"/>
      <path id="Vector_80" d="M743.91,901.98h-48.97v13.91h48.97v-13.91Z"/>
      <path id="Vector_81" d="M857.77,899.78h-48.98v13.91h48.98v-13.91Z"/>
      <path id="Vector_82" class="cls-16" d="M744.23,902.95h-.19c-.52-.13-.84-.64-.78-1.16l21.8-107.91c-4.59,1.1-17.47,3.75-21.74,1.04-.84-.52-1.36-1.29-1.55-2.2-.13-.78.07-1.62.58-2.26,2.39-3.17,11.84-4.79,16.5-5.43-4.01-3.11-5.82-5.37-5.24-6.66.52-1.29,2.39-1.03,2.98-.97,4.79.65,8.8,3.3,10.8,4.85l5.31-26.27c.13-.52.64-.84,1.16-.78.52.13.84.65.78,1.16l-6.01,29.56-1.3-1.23c-.07-.06-4.92-4.66-11-5.43-.32-.07-.58-.07-.71-.07.71,1.1,3.36,3.49,6.34,5.63l2.07,1.49-2.52.26c-4.14.45-15.4,2.14-17.53,4.98-.26.39-.26.65-.26.78.06.19.13.58.65.91,3.56,2.26,16.88-.45,21.67-1.68l1.49-.39-22.38,110.95c-.06.58-.45.84-.91.84Z"/>
      <path id="Vector_83" class="cls-16" d="M855.57,899.91c-.52,0-.97-.45-.97-.97l.52-110.11c-4.33,1.94-16.37,7.12-21.09,5.24-.91-.39-1.62-1.04-1.95-1.88-.32-.78-.26-1.55.13-2.39,1.75-3.56,10.67-6.99,15.13-8.54-4.53-2.26-6.72-4.14-6.46-5.5.26-1.36,2.13-1.49,2.71-1.55,4.85-.32,9.32,1.55,11.52,2.72l.13-26.78c0-.52.46-.97.98-.97s.97.45.97.97l-.19,30.15-1.49-.97c-.06-.06-5.75-3.62-11.84-3.23-.33,0-.58.06-.71.06.9.97,3.94,2.78,7.31,4.27l2.33,1.03-2.46.78c-4.01,1.23-14.68,5.11-16.24,8.28-.19.39-.13.65-.06.84.06.19.25.52.84.78,3.95,1.55,16.44-3.69,20.96-5.82l1.42-.65-.52,113.21c0,.58-.38,1.04-.97,1.04Z"/>
      <path id="Vector_84" class="cls-3" d="M829.5,310.94s-50.33,3.95-66.76-9.25c-9.38-7.5,2.26-24.71,10.87-25.81,6.46-.84,13.26,8.93,20.05,9.7,5.24.58,17.6,3.11,24.33,4.46,13.71,2.85,18.57,14.75,11.51,20.9Z"/>
      <path id="Vector_85" class="cls-5" d="M866.76,577.8l-60.62,26.78,20.64,42.18,59.58-26.98-19.6-41.99Z"/>
      <path id="Vector_86" class="cls-2" d="M826.32,648.06l-21.47-43.93,62.36-27.62,20.45,43.73-61.34,27.82ZM807.5,605.1l19.8,40.43,57.84-26.2-18.83-40.24-58.81,26.01Z"/>
      <path id="Vector_87" class="cls-14" d="M859.32,585.95c-1.16,10.03-8.41,27.82-13.78,35.45-2.58,3.75-11.38,17.27-12.29,20.77-.58,2.07,9.96-3.04,10.48-3.17l.64,3.95s2.07,2.01,3.95,1.23c1.55-.65,2.39-3.17,3.88-3.56.13-.06,3.04.45,4.08.19,1.29-.32,2.26-2.91,3.24-3.69.71-.58,3.17.45,4.27-.32,1.81-1.16,1.1-3.69,2.33-4.53,1.16-.78,2.97.91,4.98-.65,1.95-1.49-6.21-13.07-6.01-15.72.52-9.25,37.84-60.62,19.34-95.94-8.28-15.79-21.22,31.96-25.11,65.99Z"/>
      <path id="Vector_88" class="cls-2" d="M847.35,645.34c-1.95,0-3.62-1.62-3.69-1.68l-.26-.19-.52-3.04c-7.57,3.43-9.38,3.62-10.22,2.91-.38-.32-.52-.84-.38-1.36,1.04-3.75,10.22-17.85,12.49-21.09,5.17-7.31,12.42-24.91,13.58-35,3.17-27.49,12.74-68.19,21.81-69.87,1.94-.39,3.68.84,5.11,3.56,14.1,26.91-3.88,63.33-13.52,82.87-3.17,6.4-5.63,11.45-5.76,13.59-.06.84,1.62,4.01,2.85,6.34,2.91,5.63,4.53,8.8,2.85,10.09-1.49,1.1-2.97.84-3.94.71-.46-.07-.91-.19-1.1-.07-.26.19-.39.71-.52,1.29-.26.97-.52,2.33-1.81,3.23-.9.58-2.07.45-3.11.32-.38-.07-.9-.13-1.16-.07-.26.26-.58.78-.91,1.23-.71,1.1-1.49,2.33-2.65,2.65-.84.19-2.33.06-3.82-.13-.13,0-.33-.06-.39-.06-.45.19-.9.78-1.35,1.36-.58.78-1.29,1.68-2.26,2.07-.46.19-.91.32-1.29.32ZM845.21,642.43c.52.39,1.75,1.23,2.66.84.52-.19,1.04-.91,1.49-1.49.71-.91,1.42-1.81,2.52-2.07.19-.06.33-.06.97.07.71.06,2.52.32,3.11.13.38-.13,1.1-1.17,1.49-1.81.45-.65.84-1.29,1.29-1.68.64-.52,1.55-.45,2.59-.32.58.07,1.55.19,1.81,0,.64-.45.84-1.16,1.04-2.01.19-.91.45-1.88,1.29-2.46.84-.58,1.75-.39,2.53-.26.84.13,1.55.26,2.32-.26.2-1.03-2-5.24-3.3-7.7-1.94-3.69-3.1-6.02-3.04-7.31.13-2.52,2.59-7.44,5.95-14.3,9.51-19.28,27.1-55.05,13.52-81.13-.97-1.88-2-2.78-3.04-2.59-3.17.58-7.44,9.38-11.52,23.55-3.82,13.26-7.05,29.95-8.74,44.64-1.16,10.35-8.67,28.4-13.97,35.9-2.91,4.14-10.16,15.59-11.9,19.67,1.04-.26,3.23-1.03,7.63-2.98.97-.45,1.16-.52,1.36-.58l1.04-.26.9,4.4Z"/>
      <path id="Vector_89" class="cls-2" d="M869.74,612.93s28.34-18.37,33.12-57.58c4.73-39.27-12.29-104.87-12.29-104.87l-34.23,33.7s7.76,53.24,5.18,65.41c-2.59,12.16-20.96,63.33-20.96,63.33h29.17Z"/>
      <path id="Vector_90" class="cls-2" d="M869.74,613.9h-30.53l.33-1.23c3.04-11.45,6.98-21.41,10.8-30.99,5.24-13.07,9.7-24.39,10.61-36.49,2.78-36.62-9.45-66.83-9.58-67.15-.19-.52.07-1.03.52-1.29.52-.19,1.04.07,1.29.52.13.32,12.49,30.99,9.7,68.06-.9,12.36-5.7,24.32-10.74,37-3.68,9.19-7.44,18.7-10.41,29.5h28.01c.52,0,.97.45.97.97s-.38,1.1-.97,1.1Z"/>
      <path id="Vector_91" class="cls-5" d="M815.58,476.17v19.41l29.89.06v-19.47h-29.89Z"/>
      <path id="Vector_92" class="cls-2" d="M846.45,496.61l-31.83-.06v-21.35h31.83v21.41ZM816.56,494.61l27.95.07v-17.53h-27.95v17.47Z"/>
      <path id="Vector_93" class="cls-5" d="M836.86,476.17h-12.23c0-2.59,2.14-4.72,4.73-4.72h2.78c2.65,0,4.72,2.13,4.72,4.72Z"/>
      <path id="Vector_94" class="cls-2" d="M837.84,477.14h-14.17v-.97c0-3.17,2.59-5.69,5.7-5.69h2.78c3.17,0,5.69,2.59,5.69,5.69v.97ZM825.81,475.2h10.02c-.45-1.62-1.87-2.78-3.62-2.78h-2.78c-1.75,0-3.23,1.16-3.62,2.78Z"/>
      <path id="Vector_95" class="cls-2" d="M840.3,483.16h-18.76c-.52,0-.97-.45-.97-.97s.45-.97.97-.97h18.76c.52,0,.98.45.98.97s-.46.97-.98.97Z"/>
      <path id="Vector_96" class="cls-2" d="M836.88,488.33h-12.55c-.52,0-.97-.45-.97-.97s.45-.97.97-.97h12.55c.51,0,.97.45.97.97s-.39.97-.97.97Z"/>
      <path id="Vector_97" class="cls-1" d="M828.79,437.55c0,3.95-3.17,7.12-7.12,7.12s-7.12-3.17-7.12-7.12,3.17-7.12,7.12-7.12c3.88-.06,7.12,3.17,7.12,7.12Z"/>
      <path id="Vector_98" class="cls-11" d="M821.6,445.64c-4.47,0-8.08-3.62-8.08-8.09s3.62-8.09,8.08-8.09,8.08,3.62,8.08,8.09-3.56,8.09-8.08,8.09ZM821.6,431.34c-3.37,0-6.15,2.78-6.15,6.15s2.78,6.15,6.15,6.15,6.15-2.78,6.15-6.15-2.72-6.15-6.15-6.15Z"/>
      <path id="Vector_99" class="cls-11" d="M774.12,465.76l-1.88-.52c1.04-3.82.65-31.7-6.92-41.08-1.68-2.13-3.56-3.04-5.76-2.98-1.94.13-3.56.97-4.98,2.59-7.7,8.67-5.95,35.32-5.95,35.65l-1.94.13c-.07-1.1-1.81-27.75,6.4-37,1.75-2.01,3.88-3.11,6.34-3.23,2.78-.13,5.31,1.1,7.38,3.69,8.15,9.96,8.41,38.69,7.31,42.76Z"/>
      <path id="Vector_100" class="cls-11" d="M772.82,468.15c-1.23,0-2.2-.97-2.2-2.2s.97-2.2,2.2-2.2,2.2.97,2.2,2.2-.97,2.2-2.2,2.2ZM772.82,465.75c-.13,0-.25.13-.25.26s.13.26.25.26c.13,0,.26-.13.26-.26s-.13-.26-.26-.26Z"/>
      <path id="Vector_101" class="cls-11" d="M747.46,462.59c-1.23,0-2.2-.97-2.2-2.2s.97-2.2,2.2-2.2,2.2.97,2.2,2.2-.97,2.2-2.2,2.2ZM747.46,460.19c-.13,0-.26.13-.26.26s.13.26.26.26.26-.13.26-.26c0-.19-.13-.26-.26-.26Z"/>
      <path id="Vector_102" class="cls-11" d="M760.4,420.54l-1.88-.58c.06-.13,4.59-14.17,4.85-26.91.13-5.76,3.36-13.07,17.98-15.53l.33,1.94c-10.67,1.81-16.24,6.41-16.37,13.65-.26,13-4.85,27.3-4.92,27.43Z"/>
      <path id="Vector_103" class="cls-11" d="M822.51,430.82l-1.75-.84c.19-.39,18.43-38.82,1.88-49.3l1.03-1.62c17.99,11.32-.38,50.07-1.16,51.75Z"/>
      <path id="Vector_104" class="cls-3" d="M774.31,337.28s-5.11,21.15.97,26.59c6.08,5.43,31.77,8.41,36.42,6.4,4.59-2.07,12.74-25.94,12.74-25.94,0,0-10.28,3.88-15.98,3.82-5.7-.06-19.79.19-26.27-3.82-4.46-2.78-7.89-7.05-7.89-7.05Z"/>
      <path id="Vector_105" class="cls-14" d="M798.12,350.6c.33,1.55-4.21,6.15-8.08,5.43-6.35-1.16-6.86-7.89-5.44-7.25.58.26,2.46,2.46,6.27,3.04,4.14.65,6.99-2.2,7.25-1.23Z"/>
    </g>
    <g id="Group_6">
      <path id="Vector_106" class="cls-9" d="M177.59,467.57l1.49-26.65h28.92l8.48,30.99-38.88-4.33Z"/>
      <path id="Vector_107" class="cls-9" d="M92.01,825.84l-21.87,94.26-30.21,27.69,50.27-8.41-2.26-20.64,50.27-94.51-46.19,1.62Z"/>
      <path id="Vector_108" class="cls-2" d="M36.88,949.27l32.41-29.7,21.93-94.71,48.58-1.68-50.91,95.75,2.33,21.21-54.34,9.13ZM92.78,826.81l-21.74,93.8-28.01,25.68,46.13-7.7-2.2-19.99.13-.26,49.49-93.03-43.8,1.49Z"/>
      <path id="Vector_109" class="cls-9" d="M232.13,824.22l-4.92,95.87,30.21,27.69-50.2-8.41,2.26-20.64-12.81-94.51h35.45Z"/>
      <path id="Vector_110" class="cls-2" d="M260.54,949.27l-54.41-9.13,2.33-21.41-12.94-95.48h37.65l-4.92,96.46,32.28,29.57ZM208.27,938.53l46.13,7.69-28.14-25.74,4.85-95.3h-33.38l12.68,93.54-2.13,19.8Z"/>
      <path id="Vector_111" d="M205.99,925.46c-2.46,18.05,2.91,29.43,2.91,29.43h4.59l1.36-13.39,17.34,13.46,37.13-.07v-4.2s-12.94-8.93-14.36-6.08c-4.27,8.79-47.55-29.31-48.97-19.15Z"/>
      <path id="Vector_112" class="cls-4" d="M265.25,844.14l-217.95-3.23s87.66-198.09,98.79-242.66c3.11-12.55,6.28-21.54,9.19-28.01,7.44-16.5,13.39-16.43,13.39-16.43l69.29.65s12.68,6.79,19.02,38.49c.19,1.03.39,2.01.58,3.11,6.21,34.48,7.7,248.09,7.7,248.09Z"/>
      <path id="Vector_113" d="M91.36,925.46c2.46,18.05-2.91,29.43-2.91,29.43h-4.59l-1.36-13.39-17.01,13.46-37.46-.07v-4.2s12.94-8.93,14.36-6.08c4.27,8.79,47.61-29.31,48.97-19.15Z"/>
      <path id="Vector_114" class="cls-16" d="M201.14,335.4s18.18,2.59,28.21,20.18c10.03,17.6,8.67,20.38,3.75,31.25-4.92,10.87-7.57,16.76-.26,23.61,4.66,4.4,3.17,14.43.13,17.73-4.33,4.66-12.23,14.23-11,19.47,4.46,18.96,17.14,25.23,17.14,25.23l-107.2.13s-28.01-11.26-11.26-45.03c2.72-5.5,16.82-11.97,18.83-18.83,1.42-4.66-3.17-17.98.84-23.16,7.31-9.45,12.49-8.6,12.36-20.12.07-6.21,9.96-39.98,48.46-30.47Z"/>
      <path id="Vector_115" class="cls-9" d="M224.82,429.66s-26.72-10.09-34.93-10.48c-8.22-.39.26,10.48.26,10.48l29.56,13.2,5.11-13.2Z"/>
      <path id="Vector_116" d="M220.22,444.21l-30.73-13.71-.13-.19c-.91-1.16-5.31-7.12-3.69-10.29.65-1.29,2.07-1.88,4.21-1.75,8.28.39,34.16,10.09,35.19,10.55l.91.32-5.76,15.07ZM190.72,428.88l28.4,12.68,4.4-11.39c-4.72-1.75-26.59-9.7-33.7-10.09-.91-.07-2.07.06-2.39.71-.78,1.62,1.42,5.63,3.3,8.09Z"/>
      <path id="Vector_117" class="cls-9" d="M174.62,395.5s1.36,33.84.07,35.58c-4.4,6.08-17.53,11.45-20.51,12.23-2.98.78,48.84,20.57,48.84,20.57l24.91-12.23-9.57-8.67s-8.09-4.08-11.58-7.7c-3.56-3.69-5.24-38.04-5.24-38.04l-26.91-1.75Z"/>
      <path id="Vector_118" d="M203.09,464.98l-.39-.13c-.13-.06-12.42-4.72-24.52-9.57-25.17-10.03-25.1-10.87-25.1-11.84,0-.45.32-.84.84-.97,3.36-.91,15.79-6.21,19.93-11.84.78-2.07.26-22.51-.26-35.06l-.06-1.1,28.79,1.94.07.84c.65,13.13,2.59,34.93,4.98,37.46,3.36,3.49,11.26,7.5,11.32,7.5l.13.07,10.74,9.7-26.46,13ZM156.12,443.7c5.95,3.17,30.79,13,46.9,19.15l23.22-11.39-8.41-7.63c-1.03-.52-8.35-4.33-11.77-7.83-3.49-3.62-5.18-31.7-5.5-37.84l-24.91-1.68c.45,10.8,1.16,33.32-.13,35.13-4.08,5.63-14.75,10.42-19.41,12.1Z"/>
      <path id="Vector_119" class="cls-9" d="M175.79,399.25c-3.49-3.23-9.57-9.57-8.99-14.75.65-5.18,6.4-3.62,8.09-2.59,1.1.71,3.95-25.17,3.95-25.17l40.11,4.08s2.46,23.03-1.23,37c-3.69,14.04-10.8,16.69-21.22,15.53-5.17-.58-9.06-2.33-11.97-4.46l-8.73-9.64Z"/>
      <path id="Vector_120" d="M200.56,414.65c-1.42,0-2.78-.13-4.21-.26-4.72-.52-8.93-2.07-12.42-4.66-.45-.32-.52-.91-.19-1.36.32-.45.91-.52,1.36-.19,3.23,2.33,7.12,3.75,11.52,4.27,9.77,1.1,16.56-1.04,20.18-14.81,3.17-12.23,1.62-31.76,1.23-35.9l-38.36-3.95c-2.65,24.26-3.69,24.71-4.27,25.04-.32.13-.71.13-1.03-.06-.97-.65-3.43-1.36-5.05-.65-.91.39-1.36,1.23-1.55,2.46-.39,3.43,2.72,8.47,8.67,13.91.39.39.45.97.06,1.36s-.97.45-1.36.07c-4.59-4.21-9.9-10.29-9.25-15.59.32-2.46,1.62-3.56,2.65-4.01,1.88-.91,4.4-.45,6.02.26.78-2.98,2.26-14.04,3.36-24l.13-.97,41.86,4.27.07.78c.13.97,2.39,23.35-1.23,37.39-3.62,13.59-10.61,16.63-18.18,16.63Z"/>
      <path id="Vector_121" class="cls-8" d="M242.42,445.51c14.62,11.58,53.44,68.12,52.47,73.17-5.18,25.81-50.33,37.84-50.33,37.84l-11.52-18.18,22.9-13.26-15.27-20.96-2.72,50.46-26.91.45s-53.11,2.65-66.25-7.63c-19.47-15.4-28.4-77.57-7.5-98.98,7.05-7.25,13.33-8.02,16.76-8.02,10.35,0,55.77,41.99,68.57.52,1.81-6.02,15.85,1.49,19.8,4.59Z"/>
      <path id="Vector_122" class="cls-2" d="M210.92,386.63q-.06,0,0,0c-.91,0-1.62-.78-1.62-1.68v-1.29c0-.91.71-1.55,1.62-1.55h.07c.91,0,1.62.78,1.55,1.68v1.29c-.07.84-.78,1.55-1.62,1.55Z"/>
      <path id="Vector_123" class="cls-2" d="M193.05,384.63c-.91,0-1.62-.78-1.62-1.68v-1.29c0-.91.71-1.62,1.68-1.55.91,0,1.62.78,1.55,1.68v1.29c0,.84-.71,1.55-1.62,1.55Z"/>
      <path id="Vector_124" d="M188.01,377.77c-.39,0-.71-.19-.91-.58-.19-.52,0-1.03.52-1.29,4.14-1.75,8.09-.13,8.28-.06.52.19.71.78.52,1.29-.19.52-.78.71-1.29.52-.07,0-3.36-1.36-6.73.06-.19.07-.26.07-.39.07Z"/>
      <path id="Vector_125" d="M205.03,394.53c-.91,0-1.62-.19-1.94-.45l-.52-.39.13-.65c.13-.52.65-.84,1.16-.71.13.06.26.13.39.19.39.13,1.42.19,2.07-.26.26-.13.52-.45.52-1.29s-.26-1.88-.58-3.17c-.19-.84-.45-1.81-.65-2.91-.71-3.43-.65-5.24.06-6.27.58-.84,1.49-1.04,2.2-1.17.13,0,.19-.06.32-.06,2.65-.52,7.05,1.16,7.57,1.36.52.19.71.78.52,1.23-.19.52-.78.71-1.23.52-1.23-.45-4.72-1.62-6.47-1.29-.13,0-.26.06-.39.06-.58.13-.78.13-.91.32-.19.32-.45,1.36.26,4.85.19,1.1.45,2.01.65,2.85.32,1.42.65,2.52.65,3.56.06,1.49-.58,2.59-1.68,3.17-.71.39-1.49.52-2.13.52ZM204.58,393.36v.07-.07Z"/>
      <path id="Vector_126" class="cls-2" d="M249.85,583.04h-.13l-33.77-5.24c-.52-.07-.91-.58-.84-1.1.06-.52.58-.91,1.1-.84l33.77,5.24c.52.07.91.58.84,1.1-.06.45-.45.84-.97.84Z"/>
      <path id="Vector_127" class="cls-2" d="M210.14,523.79h-.13c-.52-.07-.91-.58-.78-1.1,6.4-38.36-7.18-61.2-7.38-61.46-.26-.45-.13-1.04.32-1.36.45-.26,1.03-.13,1.36.32.13.26,14.1,23.74,7.63,62.75-.19.52-.58.84-1.04.84Z"/>
      <path id="Vector_128" class="cls-16" d="M224.37,361.08s-40.04,4.33-49.55,21.74c0,0-1.29-.84-2.98-.91-2.2-.06-3.23.52-3.23.52l6.15-30.28,49.62,8.93Z"/>
      <path id="Vector_129" class="cls-10" d="M193.97,398.02s7.76,9.06,13.33,1.16c0,0-1.94-1.75-5.11-.71,0,0-2.98-1.49-8.22-.45Z"/>
      <path id="Vector_130" class="cls-9" d="M175.53,420.79s7.7,9.64,5.18,9.06c-1.36-.32-2.78-.91-3.82-1.36-.32-.13-.65.26-.45.52,1.68,2.33,4.85,7.38,2.2,8.99-3.49,2.13-11.64-2.46-11.84-7.05-.19-4.14-.32-8.67,8.73-10.16Z"/>
      <path id="Vector_131" d="M176.43,439.55c-1.49,0-3.17-.45-4.92-1.42-2.52-1.36-5.5-4.01-5.69-7.12-.19-4.08-.45-9.57,9.51-11.26l.58-.07.32.45c6.73,8.41,6.02,9.57,5.69,10.09-.13.19-.52.78-1.49.52-.71-.13-1.42-.39-2.13-.65,1.36,2.2,2.59,4.79,2.2,6.66-.19.84-.65,1.55-1.42,2.01-.71.58-1.62.78-2.65.78ZM175.14,421.83c-7.7,1.42-7.5,5.18-7.31,9.12.06,1.88,1.94,4.08,4.66,5.5,2.26,1.23,4.53,1.49,5.69.78.26-.19.45-.39.52-.71.26-1.29-.84-3.88-2.98-6.86-.39-.52-.32-1.16.06-1.62.39-.45,1.04-.65,1.55-.39.65.32,1.62.71,2.59,1.03-.84-1.55-2.85-4.4-4.79-6.86Z"/>
      <path id="Vector_132" class="cls-2" d="M256.11,593.01c-2.01.97-4.21,3.17-6.21,7.37-6.28,12.87-13.07,7.12-13.07,7.12l.26-13.78h-4.92s-7.05-2.85-10.8,4.01c-3.75,6.92-11.13,7.76-13.07,7.83-1.94.07,3.17-43.41,3.17-43.41l-52.98.32c4.92-8.73,9.38-8.73,9.38-8.73l69.29.65c-.06.19,12.62,6.92,18.96,38.62Z"/>
      <path id="Vector_133" class="cls-2" d="M283.63,495.9s11,18.5,6.86,25.36c-13.97,22.84-38.23,27.24-38.23,27.24,0,0-7.38-27.24-6.4-28.21.97-.97,37.78-24.39,37.78-24.39Z"/>
      <path id="Vector_134" class="cls-2" d="M237.69,583.76s-7.31,21.54,0,23.81c7.31,2.33,13.07-23.81,13.07-23.81h-13.07Z"/>
      <path id="Vector_135" class="cls-2" d="M209.16,581.81s-7.31,21.54,0,23.81c7.31,2.33,13.07-23.81,13.07-23.81h-13.07Z"/>
      <path id="Vector_136" d="M235.88,496.87s-30.34,17.27-29.95,32.67c.39,15.4,1.55,54.99,1.55,54.99h20.38v3.11h29.24s-5.37-38.82,0-48.46c5.37-9.64,21.09-17.6,21.09-19.15s1.1-24.07,1.1-24.07l-43.41.91Z"/>
      <path id="Vector_137" class="cls-16" d="M261.44,379.91c-4.92-.45-16.82-1.81-18.63,6.79-2.01,9.83-2.98,22.77-3.36,29.56-.13,2.72,1.68,5.11,4.33,5.63l29.63,6.15c2.72.58,5.43-1.04,6.28-3.62,2.91-8.86,8.93-27.69,8.47-30.79-1.68-10.67-18.95-12.94-26.72-13.71Z"/>
      <path id="Vector_138" class="cls-9" d="M253.87,419.56s-1.1,16.11-5.63,19.93c-4.53,3.82-10.09,5.05-11.19,5.43-1.17.39,5.56,12.29,5.56,12.29l36.68-7.7s-10.74-7.31-10.35-11.32c.39-4.01,6.47-18.63,6.47-18.63h-21.54Z"/>
      <path id="Vector_139" class="cls-2" d="M242.09,458.38l-.32-.65c-6.4-11.32-5.89-12.62-5.76-13,.13-.32.39-.58.71-.71.13-.07.39-.13.71-.19,1.94-.58,6.47-1.88,10.22-5.05,3.43-2.91,4.98-14.88,5.31-19.28l.06-.91h23.94l-.58,1.36c-.06.13-6.02,14.56-6.4,18.37-.26,2.39,5.69,7.57,9.96,10.42l1.88,1.29-39.72,8.35ZM237.95,445.7c.45,1.62,2.85,6.34,5.18,10.48l33.83-7.12c-3.3-2.46-9.32-7.37-8.99-10.93.32-3.43,4.46-13.84,6.02-17.6h-19.21c-.32,3.56-1.75,16.17-5.89,19.73-4.08,3.49-9.06,4.92-10.93,5.43Z"/>
      <path id="Vector_140" class="cls-4" d="M268.29,443.57c-4.59,4.72-18.18,9.7-22.77.45-4.59-9.25-23.35-17.73-23.35-17.73l-8.15,13.97,8.02,7.38s3.43,49.94,11.71,53.82c8.28,3.82,48.07,2.33,48.07,2.33l-1.75-30.41,16.17-.32s-6.08-28.66-11.77-32.15c-9.51-5.95-13.97.39-16.17,2.65Z"/>
      <path id="Vector_141" class="cls-9" d="M276.26,471s4.66,14.75,4.21,24.32c-.52,10.42-4.92,15.66-7.05,17.34-2.65,2.2-14.1,3.88-13.2,7.05.91,3.17,4.59-.26,6.02.19.71.19-13,7.25-6.08,10.35,6.99,3.11,21.67-11.06,22.97-13.91.65-1.36,8.15-6.79,10.61-17.92,2.52-11.71,0-29.24,0-29.24l-17.47,1.81Z"/>
      <path id="Vector_142" d="M262.27,531.61c-.91,0-1.75-.13-2.52-.52-1.55-.71-2.46-1.68-2.52-2.91-.19-2.07,1.94-4.21,4.46-6.15-.39,0-.71-.06-1.1-.26-.65-.32-1.1-.97-1.36-1.81-.78-2.85,3.56-4.33,8.15-5.82,2.2-.71,4.53-1.49,5.37-2.2,1.03-.84,6.15-5.56,6.66-16.63.45-9.32-4.08-23.87-4.14-24l-.39-1.16,19.54-2.01.13.91c.13.71,2.52,17.79,0,29.56-1.94,8.93-7.05,14.3-9.51,16.88-.52.52-1.03,1.1-1.16,1.29-1.1,2.59-13.52,14.81-21.61,14.81ZM265.89,518.87c.19,0,.39,0,.58.06l.58.19.13.65c.13.71-.26.97-1.81,2.01-1.75,1.16-6.4,4.4-6.21,6.21.07.45.52.91,1.36,1.29,6.08,2.72,20.38-10.61,21.67-13.39.19-.45.71-.97,1.49-1.81,2.33-2.46,7.18-7.5,8.99-15.91,2.13-9.9.58-24.2.13-27.95l-15.33,1.55c1.1,3.69,4.27,15.33,3.88,23.55-.58,11.58-5.82,16.76-7.38,18.05-1.16.97-3.49,1.75-6.02,2.59-2.33.78-7.18,2.39-6.86,3.49.06.26.19.52.32.58.39.19,1.49-.26,2.26-.52.78-.32,1.55-.65,2.2-.65Z"/>
      <path id="Vector_143" d="M227.79,588.54c-.52,0-.97-.45-.97-.97,0-.39-.58-38.43.13-55.12.78-17.27,17.01-23.87,17.21-23.94.52-.19,1.03.07,1.23.52.19.52-.07,1.03-.52,1.23-.13.07-15.27,6.21-15.98,22.19-.71,16.63-.13,54.6-.13,54.99,0,.65-.39,1.1-.97,1.1Z"/>
      <path id="Vector_144" class="cls-9" d="M229.41,532.52s11.64,3.04,18.11,0c6.47-3.04,5.63-8.47,8.41-7.44,2.78.97.39,6.92.39,6.92,0,0,3.95.58,13.84-7.7,1.29-1.1,2.98,8.73-.26,12.55-3.23,3.82-8.6,9.06-17.66,9.25-9.06.19-26.07,1.29-26.07,1.29l3.23-14.88Z"/>
      <path id="Vector_145" class="cls-2" d="M224.95,548.43l3.75-17.14.97.26c.13,0,11.39,2.91,17.47.07,3.23-1.49,4.46-3.69,5.37-5.24.78-1.42,1.75-2.98,3.75-2.26.71.26,1.29.78,1.62,1.55.65,1.49.26,3.69-.13,5.18,1.81-.45,5.56-2.07,11.84-7.31.52-.45,1.29-.39,1.81.13,1.49,1.49,2.52,10.03-.65,13.84-3.36,4.01-8.99,9.38-18.37,9.64-8.93.19-25.88,1.29-26.07,1.29h-1.36ZM230.13,533.68l-2.78,12.68c4.14-.26,17.34-1.03,24.84-1.23,8.6-.19,13.84-5.18,16.95-8.93,2.26-2.72,1.68-8.8,1.03-10.67-9.57,7.89-13.65,7.5-14.04,7.44l-1.23-.19.45-1.16c.58-1.36,1.23-4.01.71-5.18-.13-.26-.26-.39-.52-.52-.39-.13-.52-.19-1.42,1.42-.97,1.68-2.46,4.27-6.27,6.02-5.63,2.65-14.75.97-17.73.32Z"/>
      <path id="Vector_146" class="cls-2" d="M198.42,524.95l-1.36,30.41,40.89-.78v-26.91l-39.53-2.72Z"/>
      <path id="Vector_147" class="cls-2" d="M237.96,528.64h-.07c-6.53-.45-64.05-4.59-69.35-9.45-5.37-4.92-4.4-25.62-4.27-27.95,0-.52.52-.91,1.04-.91s.97.52.91,1.03c-.32,6.08-.32,22.77,3.69,26.39,3.62,3.3,42.76,7.12,68.12,8.93.52.06.91.52.91,1.03-.06.52-.45.91-.97.91Z"/>
      <path id="Vector_148" class="cls-4" d="M272.76,456.38c.45,1.49,0,15.53,0,15.53l23.48,1.1-5.5-20.31-17.98,3.69Z"/>
      <path id="Vector_149" d="M296.24,473.97l-26.39-1.16,3.17-19.21c.07-.52.58-.91,1.1-.78.52.06.91.58.78,1.1l-2.85,17.01,24.13,1.04c.52,0,.97.45.91,1.03.07.58-.32.97-.84.97Z"/>
      <path id="Vector_150" class="cls-9" d="M271.27,525.66s-4.01,8.99-13.72,10.16l13.72-10.16Z"/>
      <path id="Vector_151" class="cls-2" d="M257.56,536.79c-.45,0-.91-.39-.97-.84-.06-.52.32-1.03.84-1.1,8.99-1.03,12.94-9.51,12.94-9.57.19-.52.78-.71,1.29-.52.52.19.71.78.52,1.29-.19.39-4.4,9.51-14.49,10.74-.06-.06-.13,0-.13,0Z"/>
      <path id="Vector_152" class="cls-9" d="M271.79,530.06s-4.98,8.67-13.65,9.45l13.65-9.45Z"/>
      <path id="Vector_153" class="cls-2" d="M258.14,540.54c-.52,0-.91-.39-.97-.91-.07-.52.32-1.04.91-1.04,8.09-.78,12.87-8.93,12.87-8.99.26-.45.84-.65,1.29-.39.45.26.65.84.39,1.29-.19.39-5.3,9.12-14.43,9.96,0,.07-.06.07-.06.07Z"/>
      <path id="Vector_154" class="cls-9" d="M273.4,424.35c3.62-1.81,10.09-5.56,10.8-9.96.71-4.4-4.33-4.46-5.95-4.01-1.1.32,2.72-21.48,2.72-21.48l-33.77-6.08s-7.44,18.24-7.7,30.54c-.32,12.36,4.85,16.17,13.72,17.73,4.33.78,7.96.26,10.87-.84l9.32-5.89Z"/>
      <path id="Vector_155" class="cls-2" d="M257.16,432.37c-1.36,0-2.78-.13-4.21-.39-7.76-1.36-14.88-4.53-14.49-18.7.32-12.29,7.5-30.15,7.76-30.86l.32-.71,35.52,6.4-.19.97c-1.42,8.28-2.78,17.4-2.91,20.18,1.49-.13,3.56.13,4.92,1.23.78.65,1.62,1.88,1.23,4.01-.71,4.53-6.53,8.28-11.32,10.67-.45.26-1.03.06-1.29-.45-.26-.45-.06-1.03.45-1.29,6.08-2.98,9.83-6.34,10.29-9.25.19-1.04-.06-1.75-.58-2.26-1.1-.91-3.23-.91-4.14-.65-.32.13-.71,0-.97-.19-.45-.39-1.23-1.04,2.33-21.41l-32.02-5.76c-1.36,3.49-7.12,18.89-7.37,29.44-.32,12.03,4.72,15.33,12.87,16.69,3.69.65,7.18.39,10.35-.78.52-.19,1.04.06,1.23.58.19.52-.06,1.03-.58,1.23-2.26.91-4.72,1.29-7.18,1.29Z"/>
      <path id="Vector_156" class="cls-16" d="M247.92,390.91c-4.46-1.16-12.55-4.66-9.83-13.33,2.72-8.67,3.82-5.11,3.82-5.11,0,0,1.42,2.33,2.13,2.59.71.26-.84.39,3.04-6.4,0,0,6.92.13,8.93,4.92,2.01,4.79,4.53,2.91,6.08,1.03,1.29-1.62,3.62,1.29,3.75,3.23.58,2.26,11,3.36,13.71,5.5,4.27,3.43,5.69,4.79,4.27,11.06-.26,1.23-4.72,12.68-4.72,12.68l-1.23-13.26c-.07.06-22.71-.97-29.95-2.91Z"/>
      <path id="Vector_157" class="cls-9" d="M199.08,485.75c1.97,0,3.56-1.59,3.56-3.56s-1.59-3.56-3.56-3.56-3.56,1.59-3.56,3.56,1.59,3.56,3.56,3.56Z"/>
      <path id="Vector_158" class="cls-2" d="M199.07,486.72c-2.52,0-4.53-2.01-4.53-4.53s2.01-4.53,4.53-4.53,4.53,2.01,4.53,4.53-2.01,4.53-4.53,4.53ZM199.07,479.6c-1.42,0-2.59,1.17-2.59,2.59s1.17,2.59,2.59,2.59,2.59-1.16,2.59-2.59-1.16-2.59-2.59-2.59Z"/>
      <path id="Vector_159" class="cls-9" d="M201.21,505.35c1.96,0,3.56-1.59,3.56-3.56s-1.59-3.56-3.56-3.56-3.56,1.59-3.56,3.56,1.59,3.56,3.56,3.56Z"/>
      <path id="Vector_160" class="cls-2" d="M201.21,506.32c-2.52,0-4.53-2.01-4.53-4.53s2.01-4.53,4.53-4.53,4.53,2.01,4.53,4.53-2.07,4.53-4.53,4.53ZM201.21,499.2c-1.42,0-2.59,1.17-2.59,2.59s1.17,2.59,2.59,2.59,2.59-1.16,2.59-2.59-1.16-2.59-2.59-2.59Z"/>
      <path id="Vector_161" class="cls-2" d="M246.62,407.66c-.13,0-.26,0-.39-.07-.71-.19-1.03-.91-.84-1.62l.32-1.1c.19-.71.91-1.03,1.62-.84.71.19,1.03.91.84,1.62l-.32,1.1c-.19.52-.71.91-1.23.91Z"/>
      <path id="Vector_162" class="cls-2" d="M261.76,410.9c-.13,0-.26,0-.39-.06-.71-.19-1.03-.91-.84-1.62l.32-1.1c.19-.71.91-1.04,1.62-.84.71.19,1.03.91.84,1.62l-.32,1.1c-.19.52-.71.91-1.23.91Z"/>
      <path id="Vector_163" class="cls-2" d="M267.65,405.85c-.26,0-.45-.07-.65-.26-2.33-2.07-5.37-1.88-5.43-1.88-.52.06-1.03-.32-1.03-.91-.06-.52.32-1.03.91-1.03.13,0,3.88-.32,6.86,2.33.39.32.45.97.07,1.36-.19.26-.45.39-.71.39Z"/>
      <path id="Vector_164" class="cls-2" d="M251.93,415.81c-1.1,0-2.85-1.68-2.85-1.68-1.1-1.17-1.03-2.07-.84-2.65.32-.91.97-1.23,1.55-1.42.52-.26,1.04-.45,1.62-1.42.26-.45.84-.65,1.29-.39.45.26.65.84.39,1.29-.84,1.49-1.81,1.94-2.46,2.26-.45.19-.45.26-.52.39,0,.39,1.23,1.42,1.88,1.75h.06c.52.07.91.52.84,1.1-.06.39-.32.71-.65.84-.13-.07-.26-.06-.32-.06Z"/>
      <path id="Vector_165" class="cls-2" d="M252.18,401.64c-.19,0-.32-.06-.52-.13-3.11-1.88-5.37-1.42-5.37-1.42-.52.13-1.04-.19-1.17-.71-.13-.52.19-1.03.71-1.16.13,0,2.98-.65,6.79,1.62.45.26.58.84.32,1.36-.13.26-.45.45-.78.45Z"/>
      <path id="Vector_166" class="cls-2" d="M255.23,419.56c.26,1.03-3.3,3.49-6.21,2.59-4.79-1.49-5.05-5.89-4.01-5.3.45.26,1.81,1.88,4.72,2.72,3.11.84,5.31-.65,5.5,0Z"/>
    </g>
  </g>
</svg>