<?xml version="1.0" encoding="UTF-8"?>
<svg width="143" height="116" id="Layer_1" xmlns="http://www.w3.org/2000/svg" viewBox="0 0 1080 1080">
  <defs>
    <style>
      .cls-1 {
        fill: #7c7c7c;
      }

      .cls-2, .cls-3, .cls-4, .cls-5, .cls-6, .cls-7, .cls-8 {
        isolation: isolate;
      }

      .cls-2, .cls-9 {
        opacity: .3;
      }

      .cls-10 {
        fill: #005478;
      }

      .cls-11, .cls-12 {
        fill: #042b62;
      }

      .cls-13 {
        fill: #263238;
      }

      .cls-14, .cls-7, .cls-8 {
        fill: #fff;
      }

      .cls-15 {
        fill: #f0f0f0;
      }

      .cls-16 {
        fill: #e5e5e5;
      }

      .cls-17 {
        fill: #e0e0e0;
      }

      .cls-4 {
        fill: #3a3a3a;
      }

      .cls-5 {
        fill: none;
        stroke: #000;
        stroke-linecap: round;
        stroke-linejoin: round;
        stroke-width: .12px;
      }

      .cls-5, .cls-6 {
        opacity: .2;
      }

      .cls-18 {
        fill: #ff773b;
      }

      .cls-7 {
        opacity: .5;
      }

      .cls-19 {
        fill: #faac6d;
      }

      .cls-20 {
        fill: #efefef;
      }

      .cls-21 {
        fill: #ebebeb;
      }

      .cls-22 {
        fill: #fd504e;
      }

      .cls-8 {
        opacity: .8;
      }

      .cls-12 {
        opacity: .22;
      }
    </style>
  </defs>
  <path class="cls-17" d="M947.02,695.17h-377.04c-6.74,0-12.22-5.49-12.22-12.22V133.74c0-6.74,5.49-12.22,12.22-12.22h377.04c6.74,0,12.22,5.49,12.22,12.22v549.18c0,6.76-5.48,12.25-12.22,12.25ZM569.97,122.04c-6.45,0-11.7,5.26-11.7,11.7v549.18c0,6.45,5.26,11.7,11.7,11.7h377.04c6.45,0,11.71-5.26,11.71-11.7V133.74c0-6.45-5.26-11.7-11.71-11.7h-377.04Z"/>
  <path class="cls-17" d="M512.23,695.17H135.21c-6.74,0-12.22-5.49-12.22-12.22V133.74c0-6.74,5.49-12.22,12.22-12.22h377.04c6.74,0,12.22,5.49,12.22,12.22v549.18c-.02,6.76-5.49,12.25-12.25,12.25ZM135.21,122.04c-6.45,0-11.7,5.26-11.7,11.7v549.18c0,6.45,5.26,11.7,11.7,11.7h377.04c6.45,0,11.7-5.26,11.7-11.7V133.74c0-6.45-5.26-11.7-11.7-11.7H135.21Z"/>
  <path class="cls-17" d="M1064,741.75H21v.52h1043v-.52Z"/>
  <path class="cls-17" d="M450.65,809.2h-114.45v.53h114.45v-.53Z"/>
  <path class="cls-17" d="M239.98,790.87h-75.62v.52h75.62v-.52Z"/>
  <g>
    <path class="cls-17" d="M751.96,798.23h-132.64v.71h132.64v-.71Z"/>
    <path class="cls-17" d="M861.14,261.78c-.19,35.86,23.31,65.11,52.47,65.34l10.39.08.67-129.91-10.39-.09c-29.14-.22-52.94,28.68-53.14,64.58Z"/>
    <path class="cls-21" d="M976.09,287.59c12.16-33.03-1.17-71.17-29.78-85.21-28.59-14.04-61.64,1.35-73.79,34.37-12.15,33.02,1.17,71.17,29.78,85.21,28.59,14.04,61.64-1.36,73.79-34.37Z"/>
    <path class="cls-15" d="M879.31,261.9c-.15,28.73,19.89,52.15,44.77,52.32,24.88.17,45.16-22.97,45.31-51.7.15-28.73-19.89-52.15-44.78-52.32-24.88-.17-45.16,22.96-45.31,51.7Z"/>
    <path class="cls-17" d="M894.12,222.42c19.02-19.24,47.99-17.05,64.66,4.94,16.67,21.97,14.77,55.43-4.29,74.67,15.46-19.92,15.61-50.05.35-70.18-16.66-21.97-45.63-24.19-64.66-4.94,1.26-1.59,2.56-3.07,3.94-4.49Z"/>
    <path class="cls-10" d="M345.41,998.7s-19.95-1.07-45.98.57c-25.09,1.59-64.26,6.15-64.26,6.15-1.87,1-39.33,7.11-82.31,26.81-.34.16-.61.29-.92.42h95.15s69.31-30.87,98.33-33.95Z"/>
    <path class="cls-16" d="M345.41,998.7s-19.95-1.07-45.98.57c-25.09,1.59-64.26,6.15-64.26,6.15-1.87,1-39.33,7.11-82.31,26.81-.34.16-.61.29-.92.42h95.15s69.31-30.87,98.33-33.95Z"/>
    <path class="cls-1" d="M255.36,1028.21c-.25.1-5.19-5.66-6.7-5.32,0,0-22.68-16.93-10.56-17.82,0,0,43.43-3,55.12,8.75l-37.86,14.38Z"/>
    <path class="cls-10" d="M359.02,1032.8s-83.62-29.1-125.15-26.81c-.09-1.72,77.66-10.97,110.27-6.72,32.26,4.19,133.23,33.53,133.23,33.53h-118.34Z"/>
    <path class="cls-16" d="M359.02,1032.8s-83.62-29.1-125.15-26.81c-.09-1.72,77.66-10.97,110.27-6.72,32.26,4.19,133.23,33.53,133.23,33.53h-118.34Z"/>
    <path class="cls-13" d="M350.73,1021.59c13.36-1.72,26.72-3.42,40.07-5.14,1.07-.13,1.09-2.09,0-1.95-13.35,1.72-26.71,3.41-40.07,5.14-1.06.13-1.08,2.11,0,1.95Z"/>
    <path class="cls-13" d="M332.79,1015.65c13.35-1.72,26.71-3.41,40.07-5.14,1.06-.13,1.08-2.09,0-1.95-13.36,1.72-26.72,3.42-40.07,5.14-1.09.13-1.09,2.09,0,1.95Z"/>
    <path class="cls-13" d="M314.8,1009.71c13.36-1.72,26.72-3.41,40.07-5.13,1.07-.13,1.09-2.09,0-1.95-13.35,1.72-26.71,3.41-40.07,5.13-1.06.13-1.08,2.08,0,1.95Z"/>
    <path class="cls-11" d="M582.19,279.42c.29,3.2-11.96,63.31-8.66,83.94,3.31,20.61,27.8,99.39,23.67,112.21-4.13,12.82-56.29-5.01-56.29-5.01l-67.89-296.66c4.15-4.43,44.92-7.19,59.95,6.41,1.6,1.46,8.48,8.78,10.24,10.4,14.57,13.39,34.47,39.03,38.99,88.71Z"/>
    <path class="cls-11" d="M656.89,245.63l-58.98,34.08s-6.72-18.91-14.57-37.52c-8.01-18.99-22.07-50.7-37.36-52.93-5.03-.73-12.01-2.77-15.12-1.3-24.55,11.44,8.5,85.12,8.5,85.12,0,0,30.01,53.62,43.66,60.88,13.65,7.27,86.93-60.97,86.93-60.97l-13.06-27.35Z"/>
    <g class="cls-9">
      <path d="M578.15,312.36c1.63-11.02,4.42-21.63,4.9-32.88.7-17.01-3.25-33.59-10.2-48.54-5.89-12.66-13.69-24-22.18-34.44-.74-.91-1.94.47-1.2,1.38,13.25,16.34,25.14,35.33,29.85,57.37,2.89,13.45,2.53,27.12.16,40.62-.93,5.32-2.17,10.58-2.96,15.95-.2,1.25,1.44,1.8,1.63.55Z"/>
    </g>
    <path class="cls-13" d="M341.51,1042.23c-1.37-4.07-3.4-7.82-5.98-11.02,0,0-4.09-16.73,7.41-51.69l-10.43-11.59c-3.7-3.99-9.18-4.9-13.72-2.29-.65.31-1.22.78-1.71,1.36-2.32,2.94-4.47,6.07-6.43,9.35-6.57,11.25-12.52,22.95-17.85,35.04l2.17,1.53,11.83-21.57c4.03-7.34,4.74,4.8,2.14,13.78-2.61,8.96-3.83,19.59,10.43,29.39,16.7,11.33,24.14,15,22.16,7.71Z"/>
    <path class="cls-19" d="M346.59,966.7s-4.76,16.31-8.69,35.25c-2.44,9.49-3.25,19.44-2.39,29.26,0,0-11.91-4.82-12.43-16.18-.52-11.34,7.21-43.72-4.45-49.32,1.94-1.51,4.02-2.76,6.22-3.7,3.3-1.69,21.73,4.68,21.73,4.68Z"/>
    <path class="cls-13" d="M554.84,1035.74c-2.94-2.79-6.32-4.92-9.95-6.3,0,0-10.74-12.33-15.75-49.22l-14.06-4.32c-4.91-1.41-10.1.84-12.95,5.6-.43.63-.74,1.36-.9,2.14-.77,3.86-1.29,7.79-1.6,11.75-.88,13.47-1.06,26.99-.51,40.48l2.55.13,1.06-25.37c.37-8.65,6.21,1.56,7.77,10.84,1.58,9.28,5.07,19.23,21.7,19.85,19.43.6,27.53-.34,22.65-5.57Z"/>
    <path class="cls-19" d="M526.85,966.99s2.84,16.88,7.56,35.56c1.94,9.64,5.5,18.76,10.49,26.86,0,0-12.46,2.4-17.8-7.21-5.33-9.61-12.48-42.16-25.05-40.57,1.03-2.39,2.32-4.63,3.83-6.67,2.15-3.3,20.96-7.97,20.96-7.97Z"/>
    <path class="cls-10" d="M556.08,377.2s36.31,102.76,7.49,267.02c-.77,95.64-30.12,329.57-30.12,329.57-9.77,3.15-40.72.99-50.67-1.39,0,0-.86-185.97,6.07-341.76-21.03-159.88-19.61-244.5-19.61-244.5l86.84-8.94Z"/>
    <path class="cls-4" d="M556.08,377.2s36.31,102.76,7.49,267.02c-.77,95.64-30.12,329.57-30.12,329.57-9.77,3.15-40.72.99-50.67-1.39,0,0-.86-185.97,6.07-341.76-21.03-159.88-19.61-244.5-19.61-244.5l86.84-8.94Z"/>
    <path class="cls-10" d="M537.31,382.62s-35.26,210.2-59.16,300.44c-25.11,94.75-119.31,292.82-122.13,299.14-11.46-2.86-35.49-14.25-42.51-21.36,0,0,55.26-193.34,87.68-296.51,7.36-52.89,12.39-83.84,11.1-139.8-2.41-103.77,39.92-148.4,39.92-148.4l85.1,6.49Z"/>
    <path class="cls-4" d="M537.31,382.62s-35.26,210.2-59.16,300.44c-25.11,94.75-119.31,292.82-122.13,299.14-11.46-2.86-35.49-14.25-42.51-21.36,0,0,55.26-193.34,87.68-296.51,7.36-52.89,12.39-83.84,11.1-139.8-2.41-103.77,39.92-148.4,39.92-148.4l85.1,6.49Z"/>
    <path class="cls-6" d="M517.44,495.04l30.12-27.93-25.34,43.14-35.74,177.99,1.78-47.5,29.18-145.71Z"/>
    <path class="cls-20" d="M562.11,242.45s15.22,39.29,5.67,62.4c-19.41,67.11,4.69,70.11-2.74,82.51-11.1,10.1-79.53,23.63-115.45-8.52,4.78-27.3,5.87-74.2-11.61-151.89-3.79-16.75,5.1-33.82,19.83-38.12.94-.26,1.89-.49,2.84-.65,4.32-.7,8.89-1.38,13.58-1.87,16.41-2.16,25.77-2.35,42.29-1.88,2.86.15.51-.39,9.27,1.98,0,0,17.49,14.98,22.45,24,5.27,9.67,13.65,31.24,13.88,32.04Z"/>
    <path class="cls-13" d="M492.21,42.36s9.14-8.93,20.44-8.33c9.93.52,28.66,5.89,36.48,13.42,10.65,10.24,17.29,25.71,14.04,43.01-3.52,18.81-11.67,46.19-21.79,60.99-4.2,6.12-7.38,8.31-13.18,6.25l-2.82,3.07c-19.04,2.14-20.71,19.65-69.67-39.52-14.35-17.33-6.91-88.3,36.51-78.89Z"/>
    <path class="cls-19" d="M514.25,183.13c-2.87-2.84-1.79-9.02-1.36-14.98.27-4.61,1.36-9.43,2.71-14.14l-5.67-6.33-29.24-28.21c2.25,20.52,8.46,53.53-4.85,66.12l-7.51,1.1c4.92,3.83,18.41,22.79,47.63,24.22,15.82.78,12.25-17.66,7.67-25.4-7.24-1.77-9.38-2.38-9.38-2.38Z"/>
    <path class="cls-6" d="M512.4,174.33c-7.78-1.62-18.48-10.37-20.75-20.27-.95-4.07-1.22-8.16-1.13-10.87l23.67,15.06c-.11,3.91-1.26,9.38-1.79,16.08Z"/>
    <path class="cls-19" d="M476.26,84.02c-.36,31.68-1.1,45.05,11.6,63.28,19.11,27.44,52.8,23.27,61.33-7.08,7.69-27.33,6.99-74.57-18.84-91.16-25.45-16.37-53.7,3.28-54.08,34.96Z"/>
    <path class="cls-13" d="M514.46,101.66c-.45,3.5.63,6.67,2.41,7.11,1.78.44,3.59-2.03,4.04-5.5.45-3.49-.64-6.67-2.41-7.11-1.79-.47-3.59,2.01-4.04,5.5Z"/>
    <path class="cls-13" d="M510.89,91.58c.34.13.7.1,1.03-.11,5.04-3.28,9.41-.52,9.48-.49.65.41,1.44.15,1.76-.63.31-.75.05-1.72-.61-2.16-.23-.15-5.73-3.62-11.98.44-.64.41-.81,1.36-.45,2.14.18.41.45.67.77.81Z"/>
    <path class="cls-13" d="M550.44,94.84c.34-.03.65-.21.87-.52.45-.63.34-1.59-.27-2.16-6.05-5.6-12.01-3.81-12.27-3.73-.72.23-1.08,1.07-.81,1.87.25.81,1.03,1.28,1.76,1.07.22-.08,4.87-1.38,9.67,3.04.29.35.68.48,1.04.42Z"/>
    <path class="cls-18" d="M530.95,99.6s3.23,12.3,7.42,20.22c.72,1.38.02,3.17-1.33,3.56-3.54,1-7.4-.8-7.4-.8l1.31-22.98Z"/>
    <path class="cls-13" d="M517.42,96.16l6.52-.29s-8.62,4.8-6.52.29Z"/>
    <path class="cls-13" d="M539.14,104.79c-.45,3.54.61,6.77,2.39,7.21,1.79.44,3.61-2.09,4.06-5.63.45-3.54-.61-6.77-2.39-7.21-1.79-.42-3.59,2.09-4.06,5.63Z"/>
    <path class="cls-13" d="M541.93,99.21l6.52-.28s-6.66,4.12-6.52.28Z"/>
    <path class="cls-13" d="M481.92,140.27c-24.08-24.57-16.7-104.4,31.7-100.23,48.4,4.19,42.3,79.44,42.3,79.44-11.3-48.64-52.46-58.68-52.46-58.68,5.96,25.74-14.78,38.2-14.78,38.2-8.75,14.8-5.5,34-6.76,41.27Z"/>
    <path class="cls-19" d="M465.56,108.51c2.66,6.85,7.58,11.55,12.3,13.55,7.11,3,12.1-9.87,10.38-18.5-1.56-7.76-8.26-13.62-15.52-12.89-7.13.73-10.2,10.03-7.15,17.85Z"/>
    <path class="cls-5" d="M477,99.31c-2.18-1.4-4.82-.05-5.86,1.99-1.26,2.5-.74,8.83,6.14,11.96"/>
    <path class="cls-11" d="M476.86,174.87c1.59,10.32,23.31,117.6,25.88,149.15,2.58,31.55-27.82,161.3-35.56,169.55-7.74,8.29-74.8-43.41-72.54-44.13,2.25-.75,37.63-66.23,42.51-94.42,4.87-28.17-16-132.03-16.97-144.05-.97-12.01,28.79-17.53,44.76-25.27l8.08-11.81,3.83.97Z"/>
    <path class="cls-19" d="M421.43,468.2c-.48-1.33-1.13-2.91-1.83-4.64l-5.34-15.55-18.16,5.01c1.58,6.2-.14,12.89-.5,17.74-.59,7.79,4.71,14.36,4.15,17.72-1.51,8.99-9.95,23.42-5.96,26.1,3.99,2.71,11.42-14.25,11.42-14.25,0,0-5.98,19.23-2.19,21.66,5.24,3.33,5.76.86,5.76.86,0,0,1.8,3.73,5.23,2.13,2.12-.99,7.7-12.19,8.89-28.81,0,0,.72,5.34,1.2,14.04.21,3.5-1.6,7.58-.45,11.62,1.6,5.68,8.21-4.22,8.2-14.17,0-9.95-5.98-27.25-10.4-39.44Z"/>
    <path class="cls-18" d="M408.88,523.07c2.33-5.11,4.63-10.31,5.69-15.99,1.22-6.57.74-13.32-.16-19.88-.18-1.25-1.8-.71-1.62.52.87,6.36,1.33,12.92.08,19.25-1.06,5.37-3.23,10.26-5.44,15.11-.52,1.12.95,2.12,1.44.99Z"/>
    <path class="cls-18" d="M405.72,501.16c.54-2.77,1.2-5.53,1.53-8.34.29-2.58.14-5.18-.95-7.51-.51-1.09-1.99-.13-1.46.99,1,2.09,1,4.54.67,6.83-.36,2.52-.92,5.03-1.42,7.5-.25,1.22,1.4,1.74,1.63.52Z"/>
    <path class="cls-11" d="M442.16,197.23c-9.09.6-24.79,6.9-27.8,15.78-11.32,33.35-36.8,93.33-41.51,112.24-2.97,11.98,11.91,135.68,11.91,135.68l41.99-5.05s-10.94-108.96-8.69-114.85c8.42-21.93,33.71-74.46,37.59-94.31,3.89-19.86,7.54-38.14-2.12-46.33-2.89-2.47-7.92-3.38-11.38-3.17Z"/>
    <g class="cls-9">
      <path d="M496.64,289.39c-5.6-9.27-11.08-18.62-16.47-28.03-2.37-4.15-5.67-8.66-6.52-13.65-.86-5.01,2.23-9.02,2.43-13.84.32-7.94-7.24-11.72-10.4-17.69-4.4-8.29-2.46-20.66.2-29.31.36-1.2-1.26-1.69-1.63-.52-2.48,8.05-4.06,18.62-1.6,26.91,1.17,3.93,3.34,6.88,5.91,9.72,3.16,3.49,6.68,7.06,5.57,12.63-.86,4.35-2.97,7.97-2.12,12.61.87,4.82,3.81,9.04,6.09,13.06,5.57,9.79,11.26,19.49,17.06,29.1.64,1.01,2.1.02,1.47-1Z"/>
    </g>
    <path d="M465.74,409.25c-9.21-6.05-18.41-12.12-27.62-18.16-.94-.63-1.8,1.07-.86,1.69,9.21,6.04,18.41,12.11,27.62,18.16.94.62,1.8-1.07.86-1.69Z"/>
    <path class="cls-13" d="M526.53,134.07c-2.41,2.01-4.71,4.22-6.86,6.59-.43-.37-.85-.71-1.28-1.1-5.76-4.95-7.02-9.38-6.64-12.82.23-1.67.77-3.26,1.63-4.64.48-.78,1.04-1.51,1.67-2.11,1.69,4.69,6.75,9.77,9.54,12.35,1.24,1.04,1.94,1.72,1.94,1.72Z"/>
    <path class="cls-14" d="M524.58,132.3l-2.07,1.88c-5.4-4.67-8.67-8.75-9.14-12.11.47-.78,1.03-1.52,1.66-2.12,1.72,4.75,6.75,9.77,9.54,12.35Z"/>
    <path class="cls-22" d="M518.45,139.67c-5.75-4.94-7.01-9.38-6.63-12.82,2.17,1.93,3.99,4.28,5.46,6.91.9,1.79,1.33,3.86,1.17,5.91Z"/>
    <path class="cls-13" d="M468.2,123.49c-.93-5.42-3.48-10.24-5.96-14.93l-8.42-14.46c-1.56-6.05-4.67-11.86-9.52-14.73-4.85-2.86-11.62-1.82-14.69,3.37-2.8,4.74-1.89,11.12-.52,16.62,2.32,9.3,5.69,18.24,10,26.52,2.71,5.21,5.96,10.34,10.53,13.34,4.58,3,10.83,3.36,14.85-.58,3.66-3.57,4.67-9.77,3.73-15.16Z"/>
    <path class="cls-10" d="M469.99,938.43s-21.53,2.21-34.23,18.8c-12.7,16.6-76.3,75.56-76.3,75.56l140.41-.55,73.85-93.81h-103.72Z"/>
    <path class="cls-16" d="M469.99,938.43s-21.53,2.21-34.23,18.8c-12.7,16.6-76.3,75.56-76.3,75.56l140.41-.55,73.85-93.81h-103.72Z"/>
    <path class="cls-1" d="M456.81,941.94c32.02,17.25,54.63,37.96,65.19,63.13l14.57-19.46s-35.53-61.9-79.76-43.67Z"/>
    <path class="cls-10" d="M560.4,1032.3s-33.78-82.07-90.41-93.87h109.97c14.42,0,27.51,4.88,33.49,12.46l63.99,81.41h-117.03Z"/>
    <path class="cls-10" d="M560.4,1032.3s-33.78-82.07-90.41-93.87h109.97c14.42,0,27.51,4.88,33.49,12.46l63.99,81.41h-117.03Z"/>
    <g>
      <path class="cls-16" d="M560.4,1032.3s-33.78-82.07-90.41-93.87h109.97c14.42,0,27.51,4.88,33.49,12.46l63.99,81.41h-117.03Z"/>
      <path class="cls-16" d="M560.4,1032.3s-33.78-82.07-90.41-93.87h109.97c14.42,0,27.51,4.88,33.49,12.46l63.99,81.41h-117.03Z"/>
    </g>
    <path class="cls-13" d="M559.06,1004.5c23.91-1.2,47.81-2.42,71.72-3.62,1.08-.05,1.08-2.01,0-1.95-23.92,1.2-47.81,2.42-71.72,3.62-1.09.05-1.09,2.01,0,1.95Z"/>
    <path class="cls-13" d="M552.86,989.67c23.92-1.2,47.81-2.42,71.72-3.62,1.08-.05,1.08-2.01,0-1.95-23.92,1.2-47.81,2.42-71.72,3.62-1.08.05-1.08,2.01,0,1.95Z"/>
    <path class="cls-13" d="M543.34,975.77c23.91-1.2,47.81-2.43,71.72-3.63,1.08-.05,1.08-2.01,0-1.95-23.92,1.2-47.81,2.42-71.72,3.63-1.09.05-1.09,2,0,1.95Z"/>
    <path class="cls-13" d="M528.73,960.89c23.92-1.2,47.81-2.42,71.73-3.62,1.08-.05,1.08-2.01,0-1.95-23.92,1.2-47.81,2.42-71.73,3.62-1.08.08-1.1,2.03,0,1.95Z"/>
    <path class="cls-6" d="M605.02,944.16l-53.49,70.04,8.1,17.66s27.21-13.84,36.98-31.97c9.77-18.14,12.27-53.33,12.27-53.33l-3.86-2.4Z"/>
    <path class="cls-10" d="M779.68,532.86c-20.71-36.79-65.12-65.47-115.27-55.96-50.16,9.51-67.76-30.61-59.84-62.3,10-39.99,79.11-185.93,79.2-191.02h-95.33s-109.68,244.87-47.2,292.39c62.48,47.52,114.66,11.31,154.96,72.19,54.34,82.09-105.18,412.11-136.54,443.71-.95.97,117.03,0,117.03,0,65.15-130.81,163.69-391.19,102.99-499.02Z"/>
    <g class="cls-3">
      <path class="cls-16" d="M779.68,532.86c-20.71-36.79-65.12-65.47-115.27-55.96-50.16,9.51-67.76-30.61-59.84-62.3,10-39.99,79.11-185.93,79.2-191.02h-95.33s-109.68,244.87-47.2,292.39c62.48,47.52,114.66,11.31,154.96,72.19,54.34,82.09-105.18,412.11-136.54,443.71-.95.97,117.03,0,117.03,0,65.15-130.81,163.69-391.19,102.99-499.02Z"/>
    </g>
    <path class="cls-19" d="M670.47,275.02c.36-.21,10.92-19.46,10.36-26.94-.56-7.48-24.43-18.16-27.77-14.12-3.33,4.06,19.59,12.19,16.27,14.74,0,0-18.86-5.13-22.2,1.07-3.33,6.19,1.49,7.27,1.49,7.27,0,0-3.7,8.13,2.78,10.47,6.48,2.35,9.08,1.92,8.72,1.92s-15.93,2.55-12.96,6.85c2.96,4.28,10.95,4.41,11.01,4.56.09.15-3.81,5.13-2.61,5.73,1.22.6,3.95,3.83,7.85,1.04,3.95-2.77,7.08-12.61,7.08-12.61Z"/>
    <path class="cls-13" d="M554.46,487.35c14.67-8.68,29.74-16.36,45.15-23.08,1.02-.44.57-2.32-.44-1.88-15.55,6.78-30.76,14.54-45.56,23.27-.97.6-.11,2.27.86,1.69Z"/>
    <path class="cls-13" d="M588.46,491.05c5.89-4.17,11.75-8.32,17.64-12.48.93-.65.07-2.35-.85-1.69-5.9,4.17-11.76,8.31-17.65,12.48-.93.65-.09,2.34.86,1.69Z"/>
    <path class="cls-13" d="M683.24,838.6c13.68,5.21,27.32,10.45,41,15.65,1.04.39,1.49-1.48.45-1.87-13.68-5.21-27.32-10.45-41-15.66-1.03-.41-1.49,1.46-.45,1.88Z"/>
    <path class="cls-1" d="M381.77,1007.05c-.29-.08-37.86,20.79-37.86,20.79l15.52,4.95,25.97-24.85-3.63-.89Z"/>
    <g class="cls-9">
      <path d="M385.45,460.56c6.86-.26,13.76-1.49,20.58-2.24,6.68-.76,13.35-1.49,20.04-2.25.43-.05.9-.41.85-.99-2.12-24.17-4.26-48.38-6.38-72.55-1.09-12.33-2.17-24.65-3.25-36.97-.09-1.01-.38-2.26-.3-3.28.09-.91,1.36-3.07,1.92-4.38,3.43-7.77,6.7-15.63,9.99-23.47,4.49-10.71,8.98-21.44,13.61-32.07,3.43-7.87,6.79-15.92,10.9-23.37.58-1.07-.88-2.03-1.47-.99-8.5,15.37-14.89,32.54-21.77,48.9-3.59,8.55-7.15,17.09-10.81,25.61-1.2,2.78-2.97,5.7-3.83,8.65-.25.86-.22,1.17-.15,2.11,2,27.31,4.8,54.58,7.21,81.84.88,10,1.76,20.01,2.64,30.01.27-.31.56-.65.86-.99-6.68.75-13.36,1.51-20.04,2.24-6.82.75-13.74,1.98-20.58,2.24-1.13.05-1.13,2.01-.02,1.95Z"/>
    </g>
    <path class="cls-10" d="M989.15,390.51h-212.2c-7.04,0-12.75-6.59-12.75-14.72V102.23c0-8.13,5.71-14.72,12.75-14.72h212.2c7.05,0,12.75,6.59,12.75,14.72v273.53c0,8.16-5.7,14.75-12.75,14.75Z"/>
    <path class="cls-11" d="M989.15,390.51h-212.2c-7.04,0-12.75-6.59-12.75-14.72V102.23c0-8.13,5.71-14.72,12.75-14.72h212.2c7.05,0,12.75,6.59,12.75,14.72v273.53c0,8.16-5.7,14.75-12.75,14.75Z"/>
    <path class="cls-8" d="M979.51,180.84h-189c-2.48,0-4.52-2.32-4.52-5.21v-61.93c0-2.87,2.01-5.21,4.52-5.21h189c2.48,0,4.52,2.32,4.52,5.21v61.93c0,2.89-2.03,5.21-4.52,5.21Z"/>
    <path class="cls-8" d="M847.58,108.48s-49.48,37.89-31.41,39.32c18.1,1.46,69.59,4.35,60.29,14.8-9.29,10.45-23.1,18.24-23.1,18.24h19.58s52.25-27.72,24.37-36.16c-27.89-8.44-78.63,5.18-73.1-3.8,5.53-8.99,48.24-32.36,48.24-32.36h-24.86v-.03Z"/>
    <path class="cls-7" d="M977.52,368.49h-185.03c-3.59,0-6.5-3.36-6.5-7.51v-156.29c0-4.14,2.91-7.51,6.5-7.51h185.03c3.59,0,6.5,3.37,6.5,7.51v156.29c0,4.15-2.91,7.51-6.5,7.51Z"/>
    <path class="cls-14" d="M821.69,197.19v172.58c0,1.25,1.69,1.25,1.69,0v-172.58c0-1.25-1.69-1.25-1.69,0Z"/>
    <path class="cls-14" d="M862.15,197.19v172.58c0,1.25,1.69,1.25,1.69,0v-172.58c0-1.25-1.69-1.25-1.69,0Z"/>
    <path class="cls-14" d="M902.6,198.68v172.57c0,1.25,1.69,1.25,1.69,0v-172.57c0-1.25-1.69-1.25-1.69,0Z"/>
    <path class="cls-14" d="M943.06,199.67v172.58c0,1.25,1.69,1.25,1.69,0v-172.58c0-1.25-1.69-1.25-1.69,0Z"/>
    <path class="cls-14" d="M785.12,244.53h199.99c1.08,0,1.08-1.95,0-1.95h-199.99c-1.11,0-1.11,1.95,0,1.95Z"/>
    <path class="cls-14" d="M785.12,288.48h199.99c1.08,0,1.08-1.95,0-1.95h-199.99c-1.11,0-1.11,1.95,0,1.95Z"/>
    <path class="cls-14" d="M785.12,332.46h158.79c1.09,0,1.09-1.95,0-1.95h-158.79c-1.11,0-1.11,1.95,0,1.95Z"/>
    <path class="cls-13" d="M852.05,128.77v20.81h-2.52v-18.17h-.12l-5.08,3.37v-2.56l5.21-3.46h2.52ZM865.06,149.86c-1.34,0-2.54-.23-3.59-.69-1.04-.46-1.87-1.1-2.48-1.92-.61-.83-.94-1.79-1-2.87h2.56c.05.67.28,1.25.69,1.74.41.48.94.85,1.59,1.12.66.26,1.39.39,2.18.39.9,0,1.69-.15,2.38-.47.69-.31,1.23-.74,1.63-1.3.39-.56.59-1.2.59-1.93,0-.77-.19-1.44-.57-2.02-.38-.59-.94-1.05-1.67-1.38-.73-.33-1.63-.5-2.68-.5h-1.67v-2.24h1.67c.82,0,1.55-.15,2.17-.44.63-.3,1.12-.72,1.47-1.26.36-.54.54-1.18.54-1.91s-.16-1.32-.47-1.84c-.31-.52-.75-.93-1.33-1.22-.56-.29-1.23-.44-1.99-.44s-1.4.13-2.03.39c-.64.26-1.15.64-1.55,1.13-.4.49-.61,1.08-.65,1.77h-2.44c.04-1.09.37-2.05.99-2.87.61-.83,1.42-1.46,2.41-1.93,1-.46,2.1-.69,3.3-.69,1.29,0,2.39.26,3.31.78.92.52,1.63,1.2,2.12,2.05.49.84.74,1.76.74,2.74,0,1.17-.31,2.17-.93,3-.61.82-1.44,1.4-2.49,1.72v.16c1.32.21,2.35.77,3.08,1.67.74.9,1.1,2.01,1.1,3.33,0,1.13-.31,2.15-.92,3.04-.61.9-1.44,1.6-2.5,2.12-1.06.51-2.26.77-3.61.77ZM875.76,145.31v-2.07l9.15-14.47h1.5v3.21h-1.02l-6.91,10.93v.16h12.31v2.24h-15.03ZM885.55,149.58v-20.81h2.4v20.81h-2.4ZM895.42,149.74c-.51,0-.94-.18-1.3-.54-.36-.36-.54-.79-.54-1.3s.18-.93.54-1.29.79-.54,1.3-.54.93.18,1.29.54c.36.36.54.79.54,1.29,0,.34-.08.64-.25.92-.16.28-.38.5-.66.67-.27.16-.57.25-.91.25ZM907.59,149.86c-1.2,0-2.27-.24-3.22-.71-.96-.48-1.72-1.13-2.3-1.95-.57-.83-.89-1.77-.94-2.83h2.44c.09.94.52,1.72,1.28,2.34.77.61,1.68.91,2.74.91.85,0,1.61-.2,2.27-.6.67-.4,1.2-.95,1.58-1.65.38-.71.57-1.49.57-2.38s-.2-1.72-.6-2.43c-.39-.72-.94-1.28-1.63-1.69-.69-.41-1.48-.62-2.37-.63-.64,0-1.29.09-1.95.29-.67.2-1.23.45-1.66.76l-2.36-.28,1.26-10.24h10.82v2.24h-8.7l-.73,6.14h.12c.42-.35.96-.62,1.6-.84.64-.23,1.31-.34,2.01-.34,1.28,0,2.41.31,3.4.91,1,.61,1.79,1.43,2.36,2.48.58,1.05.87,2.25.87,3.6s-.3,2.51-.9,3.55c-.59,1.04-1.4,1.86-2.44,2.46-1.04.6-2.22.9-3.53.9ZM925.28,149.86c-1.53,0-2.83-.42-3.91-1.25-1.07-.84-1.9-2.05-2.47-3.65-.57-1.6-.85-3.53-.85-5.79s.28-4.17.85-5.76c.58-1.59,1.4-2.81,2.48-3.66,1.09-.84,2.38-1.27,3.9-1.27s2.81.43,3.89,1.27c1.08.84,1.91,2.06,2.48,3.66.57,1.59.87,3.51.87,5.76s-.28,4.19-.85,5.79c-.57,1.59-1.4,2.81-2.47,3.65-1.08.83-2.38,1.25-3.92,1.25ZM925.28,147.63c1.52,0,2.7-.73,3.53-2.19.84-1.46,1.26-3.55,1.26-6.26,0-1.8-.19-3.34-.58-4.61-.38-1.26-.93-2.23-1.64-2.89-.71-.67-1.57-1-2.58-1-1.5,0-2.68.74-3.53,2.22-.84,1.47-1.26,3.56-1.26,6.27,0,1.8.18,3.33.57,4.59.38,1.26.93,2.22,1.63,2.87.72.65,1.59.98,2.59.98ZM943.16,149.86c-1.53,0-2.84-.42-3.91-1.25-1.08-.84-1.9-2.05-2.47-3.65-.57-1.6-.86-3.53-.86-5.79s.28-4.17.86-5.76,1.4-2.81,2.48-3.66c1.08-.84,2.38-1.27,3.9-1.27s2.81.43,3.89,1.27c1.09.84,1.92,2.06,2.48,3.66.57,1.59.86,3.51.86,5.76s-.28,4.19-.85,5.79c-.57,1.59-1.39,2.81-2.47,3.65-1.07.83-2.38,1.25-3.91,1.25ZM943.16,147.63c1.52,0,2.69-.73,3.53-2.19.84-1.46,1.26-3.55,1.26-6.26,0-1.8-.19-3.34-.57-4.61-.38-1.26-.93-2.23-1.65-2.89-.71-.67-1.56-1-2.57-1-1.5,0-2.68.74-3.53,2.22-.85,1.47-1.27,3.56-1.27,6.27,0,1.8.19,3.33.57,4.59.38,1.26.93,2.22,1.64,2.87.72.65,1.58.98,2.59.98Z"/>
    <path class="cls-10" d="M647.02,821.25c34.11,29.39,81.13,23.24,105.05-13.73l8.51-13.15-123.53-106.45-8.51,13.16c-23.91,36.97-15.63,90.77,18.48,120.18Z"/>
    <path class="cls-2" d="M647.02,821.25c34.11,29.39,81.13,23.24,105.05-13.73l8.51-13.15-123.53-106.45-8.51,13.16c-23.91,36.97-15.63,90.77,18.48,120.18Z"/>
    <path class="cls-11" d="M720.72,826.48c40.81-13.95,64.11-63.48,52.02-110.61-12.08-47.13-54.97-74.02-95.79-60.07-40.81,13.95-64.1,63.48-52.02,110.61,12.08,47.13,54.97,74.02,95.79,60.07Z"/>
    <path class="cls-10" d="M746.57,786.14c21.58-30.46,17.69-75.35-8.69-100.27-26.38-24.92-65.25-20.43-86.83,10.03-21.58,30.47-17.69,75.36,8.69,100.27,26.38,24.92,65.25,20.43,86.83-10.04Z"/>
    <path class="cls-12" d="M746.57,786.14c21.58-30.46,17.69-75.35-8.69-100.27-26.38-24.92-65.25-20.43-86.83,10.03-21.58,30.47-17.69,75.36,8.69,100.27,26.38,24.92,65.25,20.43,86.83-10.04Z"/>
    <path class="cls-10" d="M636.26,747.25c-2.91-39.89,22.72-74.95,57.29-78.32,34.54-3.36,64.91,26.24,67.82,66.15-6.45-35.9-35.11-60.57-66.74-57.47-34.54,3.36-60.19,38.43-57.29,78.32-.51-2.87-.87-5.76-1.08-8.68Z"/>
    <path class="cls-2" d="M636.26,747.25c-2.91-39.89,22.72-74.95,57.29-78.32,34.54-3.36,64.91,26.24,67.82,66.15-6.45-35.9-35.11-60.57-66.74-57.47-34.54,3.36-60.19,38.43-57.29,78.32-.51-2.87-.87-5.76-1.08-8.68Z"/>
    <path class="cls-10" d="M498,644.69c-2.37,21.28,9.72,40.64,27.05,43.22l6.16.91,8.59-77.12-6.16-.91c-17.3-2.58-33.28,12.59-35.65,33.9Z"/>
    <path class="cls-2" d="M498,644.69c-2.37,21.28,9.72,40.64,27.05,43.22l6.16.91,8.59-77.12-6.16-.91c-17.3-2.58-33.28,12.59-35.65,33.9Z"/>
    <path class="cls-11" d="M556.1,681.06c-14.73,13.13-35.88,9.98-47.22-7.04-11.38-17.01-8.64-41.42,6.09-54.53,14.73-13.12,35.88-9.97,47.22,7.04,11.35,16.99,8.62,41.4-6.09,54.53Z"/>
    <path class="cls-10" d="M508.79,646.28c-1.9,17.06,8.52,32.64,23.28,34.86,14.78,2.19,28.27-9.85,30.19-26.89,1.89-17.06-8.53-32.64-23.28-34.86-14.78-2.19-28.3,9.84-30.19,26.89Z"/>
    <path class="cls-12" d="M508.79,646.28c-1.9,17.06,8.52,32.64,23.28,34.86,14.78,2.19,28.27-9.85,30.19-26.89,1.89-17.06-8.53-32.64-23.28-34.86-14.78-2.19-28.3,9.84-30.19,26.89Z"/>
    <path class="cls-10" d="M520.09,624.08c12.53-9.85,29.58-6.07,38.11,8.39,8.53,14.46,5.28,34.15-7.27,44,10.45-10.53,12.43-28.43,4.65-41.66-8.51-14.46-25.59-18.21-38.11-8.39.81-.83,1.69-1.61,2.61-2.34Z"/>
    <path class="cls-2" d="M520.09,624.08c12.53-9.85,29.58-6.07,38.11,8.39,8.53,14.46,5.28,34.15-7.27,44,10.45-10.53,12.43-28.43,4.65-41.66-8.51-14.46-25.59-18.21-38.11-8.39.81-.83,1.69-1.61,2.61-2.34Z"/>
    <path class="cls-10" d="M691.54,539.07c8.98,34.39,38.92,54.4,66.89,44.68l9.95-3.47-32.49-124.58-9.95,3.47c-27.97,9.74-43.38,45.51-34.41,79.9Z"/>
    <path class="cls-2" d="M691.54,539.07c8.98,34.39,38.92,54.4,66.89,44.68l9.95-3.47-32.49-124.58-9.95,3.47c-27.97,9.74-43.38,45.51-34.41,79.9Z"/>
    <path class="cls-11" d="M808.08,525.7c3.71-35.67-18.32-68.07-49.22-72.35-30.89-4.29-58.95,21.16-62.66,56.84-3.71,35.67,18.32,68.06,49.22,72.35,30.89,4.29,58.95-21.16,62.66-56.84Z"/>
    <path class="cls-10" d="M708.96,533.02c7.18,27.54,32.33,43.15,56.2,34.86,23.85-8.29,37.36-37.33,30.19-64.9-7.18-27.54-32.33-43.15-56.2-34.86-23.87,8.29-37.39,37.36-30.19,64.9Z"/>
    <path class="cls-12" d="M708.96,533.02c7.18,27.54,32.33,43.15,56.2,34.86,23.85-8.29,37.36-37.33,30.19-64.9-7.18-27.54-32.33-43.15-56.2-34.86-23.87,8.29-37.39,37.36-30.19,64.9Z"/>
    <path class="cls-10" d="M713.06,490.19c13.31-24.91,41.58-32.62,63.15-17.25,21.56,15.37,28.25,48.01,14.93,72.92,9.73-24.33,2.19-53.2-17.58-67.29-21.56-15.37-49.84-7.64-63.15,17.27.8-1.95,1.66-3.83,2.64-5.65Z"/>
    <path class="cls-2" d="M713.06,490.19c13.31-24.91,41.58-32.62,63.15-17.25,21.56,15.37,28.25,48.01,14.93,72.92,9.73-24.33,2.19-53.2-17.58-67.29-21.56-15.37-49.84-7.64-63.15,17.27.8-1.95,1.66-3.83,2.64-5.65Z"/>
    <path class="cls-11" d="M599.89,972.64h167.57c7.33,0,13.26-6.93,13.26-15.5s-5.93-15.5-13.26-15.5h-167.57c-7.33,0-13.27,6.93-13.27,15.5-.02,8.57,5.94,15.5,13.27,15.5Z"/>
    <path class="cls-11" d="M612.46,1033.48h167.57c7.34,0,13.27-6.93,13.27-15.5s-5.93-15.51-13.27-15.51h-167.57c-7.34,0-13.27,6.93-13.27,15.51s5.93,15.5,13.27,15.5Z"/>
    <path class="cls-10" d="M609.23,941.19h167.57c7.33,0,13.26-6.93,13.26-15.5s-5.93-15.5-13.26-15.5h-167.57c-7.34,0-13.27,6.93-13.27,15.5-.02,8.57,5.93,15.5,13.27,15.5Z"/>
    <path class="cls-12" d="M609.23,941.19h167.57c7.33,0,13.26-6.93,13.26-15.5s-5.93-15.5-13.26-15.5h-167.57c-7.34,0-13.27,6.93-13.27,15.5-.02,8.57,5.93,15.5,13.27,15.5Z"/>
    <path class="cls-10" d="M615.68,1002.84h167.57c7.34,0,13.27-6.93,13.27-15.5s-5.93-15.5-13.27-15.5h-167.57c-7.34,0-13.27,6.93-13.27,15.5s5.93,15.5,13.27,15.5Z"/>
    <path class="cls-12" d="M615.68,1002.84h167.57c7.34,0,13.27-6.93,13.27-15.5s-5.93-15.5-13.27-15.5h-167.57c-7.34,0-13.27,6.93-13.27,15.5s5.93,15.5,13.27,15.5Z"/>
    <path class="cls-11" d="M602.39,910.17h167.57c7.34,0,13.27-6.93,13.27-15.5s-5.93-15.51-13.27-15.51h-167.57c-7.33,0-13.26,6.93-13.26,15.51s5.93,15.5,13.26,15.5Z"/>
    <g class="cls-9">
      <path d="M761.82,883.67v21.73c0,1.25,1.69,1.25,1.69,0v-21.73c0-1.25-1.69-1.25-1.69,0Z"/>
    </g>
    <g class="cls-9">
      <path d="M744.78,883.67v21.73c0,1.25,1.69,1.25,1.69,0v-21.73c0-1.26-1.69-1.26-1.69,0Z"/>
    </g>
    <g class="cls-9">
      <path d="M728.81,883.67v21.73c0,1.25,1.69,1.25,1.69,0v-21.73c0-1.26-1.69-1.26-1.69,0Z"/>
    </g>
    <g class="cls-9">
      <path d="M711.78,883.67v21.73c0,1.25,1.69,1.25,1.69,0v-21.73c0-1.25-1.69-1.25-1.69,0Z"/>
    </g>
    <g class="cls-9">
      <path d="M695.77,883.67v21.73c0,1.25,1.69,1.25,1.69,0v-21.73c0-1.26-1.69-1.26-1.69,0Z"/>
    </g>
    <g class="cls-9">
      <path d="M678.74,883.67v21.73c0,1.25,1.69,1.25,1.69,0v-21.73c0-1.25-1.69-1.25-1.69,0Z"/>
    </g>
    <g class="cls-9">
      <path d="M662.77,883.67v21.73c0,1.25,1.69,1.25,1.69,0v-21.73c0-1.26-1.69-1.26-1.69,0Z"/>
    </g>
    <g class="cls-9">
      <path d="M645.73,883.67v21.73c0,1.25,1.69,1.25,1.69,0v-21.73c0-1.26-1.69-1.26-1.69,0Z"/>
    </g>
    <g class="cls-9">
      <path d="M629.77,883.67v21.73c0,1.25,1.69,1.25,1.69,0v-21.73c0-1.25-1.69-1.25-1.69,0Z"/>
    </g>
    <g class="cls-9">
      <path d="M612.72,883.67v21.73c0,1.25,1.69,1.25,1.69,0v-21.73c0-1.26-1.69-1.26-1.69,0Z"/>
    </g>
    <g class="cls-9">
      <path d="M767.83,915.04v21.73c0,1.25,1.69,1.25,1.69,0v-21.73c0-1.25-1.69-1.25-1.69,0Z"/>
    </g>
    <g class="cls-9">
      <path d="M750.78,915.04v21.73c0,1.25,1.69,1.25,1.69,0v-21.73c0-1.25-1.69-1.25-1.69,0Z"/>
    </g>
    <g class="cls-9">
      <path d="M734.79,915.04v21.73c0,1.25,1.69,1.25,1.69,0v-21.73c0-1.25-1.69-1.25-1.69,0Z"/>
    </g>
    <g class="cls-9">
      <path d="M717.77,915.04v21.73c0,1.25,1.69,1.25,1.69,0v-21.73c0-1.25-1.69-1.25-1.69,0Z"/>
    </g>
    <g class="cls-9">
      <path d="M701.79,915.04v21.73c0,1.25,1.69,1.25,1.69,0v-21.73c0-1.25-1.69-1.25-1.69,0Z"/>
    </g>
    <g class="cls-9">
      <path d="M684.75,915.04v21.73c0,1.25,1.69,1.25,1.69,0v-21.73c0-1.25-1.69-1.25-1.69,0Z"/>
    </g>
    <g class="cls-9">
      <path d="M668.76,915.04v21.73c0,1.25,1.69,1.25,1.69,0v-21.73c0-1.25-1.69-1.25-1.69,0Z"/>
    </g>
    <g class="cls-9">
      <path d="M651.71,915.04v21.73c0,1.25,1.69,1.25,1.69,0v-21.73c0-1.25-1.69-1.25-1.69,0Z"/>
    </g>
    <g class="cls-9">
      <path d="M635.75,915.04v21.73c0,1.25,1.69,1.25,1.69,0v-21.73c0-1.25-1.69-1.25-1.69,0Z"/>
    </g>
    <g class="cls-9">
      <path d="M618.71,915.04v21.73c0,1.25,1.69,1.25,1.69,0v-21.73c0-1.25-1.69-1.25-1.69,0Z"/>
    </g>
    <g class="cls-9">
      <path d="M751.37,946.9v21.73c0,1.25,1.69,1.25,1.69,0v-21.73c0-1.25-1.69-1.25-1.69,0Z"/>
    </g>
    <g class="cls-9">
      <path d="M734.34,946.9v21.73c0,1.25,1.69,1.25,1.69,0v-21.73c0-1.25-1.69-1.25-1.69,0Z"/>
    </g>
    <g class="cls-9">
      <path d="M718.35,946.9v21.73c0,1.25,1.69,1.25,1.69,0v-21.73c0-1.25-1.69-1.25-1.69,0Z"/>
    </g>
    <g class="cls-9">
      <path d="M701.33,946.9v21.73c0,1.25,1.69,1.25,1.69,0v-21.73c0-1.26-1.69-1.26-1.69,0Z"/>
    </g>
    <g class="cls-9">
      <path d="M685.33,946.9v21.73c0,1.25,1.69,1.25,1.69,0v-21.73c0-1.26-1.69-1.26-1.69,0Z"/>
    </g>
    <g class="cls-9">
      <path d="M668.3,946.9v21.73c0,1.25,1.69,1.25,1.69,0v-21.73c0-1.25-1.69-1.25-1.69,0Z"/>
    </g>
    <g class="cls-9">
      <path d="M652.33,946.9v21.73c0,1.25,1.69,1.25,1.69,0v-21.73c0-1.26-1.69-1.26-1.69,0Z"/>
    </g>
    <g class="cls-9">
      <path d="M635.29,946.9v21.73c0,1.25,1.69,1.25,1.69,0v-21.73c0-1.26-1.69-1.26-1.69,0Z"/>
    </g>
    <g class="cls-9">
      <path d="M619.29,946.9v21.73c0,1.25,1.69,1.25,1.69,0v-21.73c0-1.26-1.69-1.26-1.69,0Z"/>
    </g>
    <g class="cls-9">
      <path d="M602.25,946.9v21.73c0,1.25,1.69,1.25,1.69,0v-21.73c0-1.25-1.69-1.25-1.69,0Z"/>
    </g>
    <g class="cls-9">
      <path d="M776.46,976.7v21.73c0,1.25,1.69,1.25,1.69,0v-21.73c0-1.27-1.69-1.27-1.69,0Z"/>
    </g>
    <g class="cls-9">
      <path d="M759.42,976.7v21.73c0,1.25,1.69,1.25,1.69,0v-21.73c0-1.27-1.69-1.27-1.69,0Z"/>
    </g>
    <g class="cls-9">
      <path d="M743.45,976.7v21.73c0,1.25,1.69,1.25,1.69,0v-21.73c0-1.27-1.69-1.27-1.69,0Z"/>
    </g>
    <g class="cls-9">
      <path d="M726.41,976.7v21.73c0,1.25,1.69,1.25,1.69,0v-21.73c0-1.27-1.69-1.27-1.69,0Z"/>
    </g>
    <g class="cls-9">
      <path d="M710.42,976.7v21.73c0,1.25,1.69,1.25,1.69,0v-21.73c0-1.27-1.69-1.27-1.69,0Z"/>
    </g>
    <g class="cls-9">
      <path d="M693.39,976.7v21.73c0,1.25,1.69,1.25,1.69,0v-21.73c0-1.27-1.69-1.27-1.69,0Z"/>
    </g>
    <g class="cls-9">
      <path d="M677.42,976.7v21.73c0,1.25,1.69,1.25,1.69,0v-21.73c0-1.27-1.69-1.27-1.69,0Z"/>
    </g>
    <g class="cls-9">
      <path d="M660.37,976.7v21.73c0,1.25,1.69,1.25,1.69,0v-21.73c0-1.27-1.69-1.27-1.69,0Z"/>
    </g>
    <g class="cls-9">
      <path d="M644.38,976.7v21.73c0,1.25,1.69,1.25,1.69,0v-21.73c0-1.27-1.69-1.27-1.69,0Z"/>
    </g>
    <g class="cls-9">
      <path d="M627.37,976.7v21.73c0,1.25,1.69,1.25,1.69,0v-21.73c0-1.27-1.69-1.27-1.69,0Z"/>
    </g>
    <g class="cls-9">
      <path d="M767.34,1007.01v21.73c0,1.25,1.69,1.25,1.69,0v-21.73c0-1.25-1.69-1.25-1.69,0Z"/>
    </g>
    <g class="cls-9">
      <path d="M750.31,1007.01v21.73c0,1.25,1.69,1.25,1.69,0v-21.73c0-1.25-1.69-1.25-1.69,0Z"/>
    </g>
    <g class="cls-9">
      <path d="M734.34,1007.01v21.73c0,1.25,1.69,1.25,1.69,0v-21.73c0-1.25-1.69-1.25-1.69,0Z"/>
    </g>
    <g class="cls-9">
      <path d="M717.3,1007.01v21.73c0,1.25,1.69,1.25,1.69,0v-21.73c0-1.25-1.69-1.25-1.69,0Z"/>
    </g>
    <g class="cls-9">
      <path d="M701.33,1007.01v21.73c0,1.25,1.69,1.25,1.69,0v-21.73c0-1.25-1.69-1.25-1.69,0Z"/>
    </g>
    <g class="cls-9">
      <path d="M684.29,1007.01v21.73c0,1.25,1.69,1.25,1.69,0v-21.73c0-1.25-1.69-1.25-1.69,0Z"/>
    </g>
    <g class="cls-9">
      <path d="M668.3,1007.01v21.73c0,1.25,1.69,1.25,1.69,0v-21.73c0-1.25-1.69-1.25-1.69,0Z"/>
    </g>
    <g class="cls-9">
      <path d="M651.27,1007.01v21.73c0,1.25,1.69,1.25,1.69,0v-21.73c0-1.25-1.69-1.25-1.69,0Z"/>
    </g>
    <g class="cls-9">
      <path d="M635.29,1007.01v21.73c0,1.25,1.69,1.25,1.69,0v-21.73c0-1.25-1.69-1.25-1.69,0Z"/>
    </g>
    <g class="cls-9">
      <path d="M618.25,1007.01v21.73c0,1.25,1.69,1.25,1.69,0v-21.73c0-1.25-1.69-1.25-1.69,0Z"/>
    </g>
  </g>
</svg>