<?xml version="1.0" encoding="UTF-8"?>
<svg id="Layer_1" xmlns="http://www.w3.org/2000/svg" viewBox="0 0 1080 1080">
  <defs>
    <style>
      .cls-1 {
        fill: #042b62;
      }
    </style>
  </defs>
  <path class="cls-1" d="M1014.18,765.91c-16.34-135.85-139.76-229.35-274.1-207.65-126.88,20.49-214.96,139.6-197.24,266.73,17.62,126.48,131.94,216.25,259.41,203.7,102.32-10.07,187.38-86.46,208.5-186.99,1.72-8.16,1.36-16.77,5.08-24.52v-47.51c-1.58-.8-1.48-2.34-1.65-3.76ZM880.77,818.93c-33.09.04-66.19.04-99.28,0-18.71-.02-29.54-10.72-29.59-29.2-.05-16.69,0-33.39,0-50.08s-.07-33.97.02-50.95c.09-16.27,11.18-28.06,26.27-28.11,15.1-.05,26.39,11.7,26.47,27.89.11,22.55.33,45.1-.14,67.64-.16,7.62,1.33,10.52,9.8,10.26,22.24-.67,44.51-.26,66.76-.21,17.14.03,29.01,10.69,29.17,26.09.17,15.74-11.83,26.65-29.47,26.67Z"/>
  <path class="cls-1" d="M308.46,129.17c14.95,6.7,20.95,18.29,19.46,34.43-.62,6.67-.14,13.45-.17,20.18-.41.36-.82.73-1.22,1.1-16.73,2.43-33.47,2.43-50.21.01-.41-.37-.81-.74-1.22-1.11-.02-6.73.46-13.5-.17-20.18-1.52-16.16,4.51-27.74,19.46-34.43h14.08Z"/>
  <path class="cls-1" d="M466.83,129.17c14.95,6.7,20.95,18.29,19.46,34.43-.62,6.67-.14,13.45-.17,20.18-.41.36-.82.73-1.22,1.1-16.73,2.43-33.47,2.43-50.21.01-.41-.37-.81-.74-1.22-1.11-.02-6.73.46-13.5-.17-20.18-1.52-16.16,4.51-27.74,19.46-34.43h14.08Z"/>
  <path class="cls-1" d="M625.19,129.17c14.95,6.7,20.95,18.29,19.45,34.43-.62,6.67-.14,13.45-.17,20.18-.41.36-.82.73-1.22,1.1-16.73,2.43-33.47,2.43-50.21.01-.41-.37-.81-.74-1.22-1.11-.02-6.73.46-13.5-.17-20.18-1.52-16.16,4.51-27.74,19.46-34.43h14.08Z"/>
  <path class="cls-1" d="M750.2,183.78c-.02-6.73.46-13.5-.17-20.18-1.52-16.16,4.51-27.74,19.46-34.43h14.08c14.95,6.7,20.95,18.29,19.45,34.43-.62,6.67-.14,13.45-.17,20.18-.41.36-.82.73-1.22,1.1-16.73,2.43-33.47,2.43-50.21.01-.41-.37-.81-.74-1.22-1.11Z"/>
  <path class="cls-1" d="M961.46,401.37c.04-6.96-3.42-6.53-8.08-6.53-276.8.04-553.61.06-830.41-.12-6.61,0-8.23,1.69-8.22,8.25.19,163.62.14,327.24.17,490.85,0,18.04,10.93,28.92,29.04,28.93,122.27.02,244.55.02,366.82-.03,2.12,0,4.51.74,6.6-.98-.52-1.37-.85-2.47-1.34-3.5-31.61-66.07-38.86-134.32-18.19-205,1.16-3.97.31-6.36-2.72-9.09-8.41-7.57-11.38-16.99-7.22-27.81,4.32-11.25,12.86-17.36,24.91-17.35,4.98.01,7.2-1.98,9.29-6.01,7.01-13.55,15.17-26.4,24.11-38.77,1.72-2.37,4.9-4.16,4.36-8.19-12.9,0-25.51.21-38.11-.05-14.78-.31-26.28-12.06-26.27-26.37.01-14.39,11.44-26.07,26.32-26.29,17.59-.26,35.18-.1,52.78-.05,8.44.03,15.99,3.15,20.45,10.11,3.71,5.81,5.86,4.05,9.84.86,31.23-25.07,66.18-42.92,104.84-53.55,15.32-4.22,30.99-6.62,46.58-9.68-8.26-.57-16.47-.24-24.64-.64-14.11-.69-25.22-12.8-25.02-26.72.2-13.57,11.2-25.49,24.96-25.84,18.46-.47,36.95-.38,55.42-.02,11.92.23,21.48,8.65,24.5,20.43,2.66,10.37-2.17,21.99-11.74,28.09-1.82,1.16-3.78,2.11-6.65,3.7,76.02,6.91,95.64,14.21,176.85,65.64.29-1.66.55-2.48.55-3.29.03-53.66-.11-107.32.22-160.98ZM353.88,817.15c-8.78.18-17.56.03-26.34.03s-17.56.2-26.34-.05c-14.7-.4-26.19-12.14-26.16-26.41.03-14.29,11.52-26.04,26.29-26.26,17.55-.26,35.11-.23,52.67-.01,14.91.19,26.39,11.62,26.59,25.95.21,14.71-11.39,26.43-26.71,26.75ZM353.29,711.58c-8.48.13-16.97.02-25.46.02s-17.56.17-26.34-.04c-14.88-.35-26.32-11.76-26.45-26.11-.14-14.64,11.57-26.41,26.86-26.58,17.27-.2,34.54-.2,51.8,0,15.42.17,27.01,11.8,26.89,26.54-.11,14.74-11.73,25.94-27.3,26.17ZM354.95,605.96c-9.06.31-18.14.06-27.22.06s-17.56.18-26.33-.04c-14.78-.36-26.29-11.95-26.36-26.22-.07-14.33,11.33-26.2,26.08-26.44,17.85-.29,35.71-.31,53.55,0,14.67.26,26.09,12.32,25.92,26.61-.16,13.96-11.37,25.53-25.64,26.03ZM354.51,500.37c-17.85.3-35.7.32-53.55,0-14.62-.27-26.08-12.38-25.92-26.63.16-14.27,11.7-25.71,26.53-26.04,8.77-.19,17.56-.03,26.34-.03s17.56-.18,26.33.04c14.82.36,26.28,11.88,26.35,26.21.07,14.31-11.35,26.21-26.08,26.45ZM564.45,500.43c-8.78.12-17.56.02-26.34.02-8.19,0-16.39.1-24.58-.02-15.46-.23-27.2-11.53-27.33-26.15-.13-14.64,11.57-26.4,26.87-26.57,17.26-.19,34.53-.19,51.79,0,15.41.18,27.01,11.81,26.89,26.55-.12,14.75-11.72,25.94-27.3,26.17Z"/>
  <path class="cls-1" d="M275.1,183.78h-.04s-.06-.08-.1-.12l.14.12Z"/>
  <path class="cls-1" d="M327.88,183.66s-.07.08-.1.12h-.03l.13-.12Z"/>
  <path class="cls-1" d="M433.46,183.78h-.03s-.06-.08-.1-.12l.13.12Z"/>
  <path class="cls-1" d="M486.25,183.66s-.07.08-.1.12h-.03l.13-.12Z"/>
  <path class="cls-1" d="M591.83,183.78h-.03s-.06-.08-.1-.12l.13.12Z"/>
  <path class="cls-1" d="M644.62,183.66s-.07.08-.1.12h-.04l.14-.12Z"/>
  <path class="cls-1" d="M750.2,183.78h-.04s-.06-.08-.1-.12l.14.12Z"/>
  <path class="cls-1" d="M802.98,183.66s-.07.08-.1.12h-.03l.13-.12Z"/>
  <path class="cls-1" d="M961.46,333.01c.06,7.15-1.51,9.29-9.02,9.26-73.31-.31-146.62-.18-219.93-.18-202.34,0-404.67-.08-607.01.23-9.14.02-10.91-2.48-10.81-11.08.48-39.29.19-78.58.22-117.88.02-19.05,10.37-29.61,29.11-29.62,43.64-.03,87.29.02,130.94.04h.1c2.95,3.37,2.55,7.53,2.56,11.55.06,19.6.02,39.2.03,58.8,0,3.22-.1,6.44.2,9.65,1.22,12.95,10.48,22.23,22.6,22.68,12.32.46,22.76-8.77,24.39-21.81.8-6.4.33-12.86.34-19.3.05-16.67-.02-33.35.05-50.02.01-4.02-.39-8.18,2.55-11.55h105.65c2.95,3.37,2.54,7.53,2.56,11.55.06,19.6.02,39.2.03,58.8,0,3.22-.1,6.44.2,9.65,1.22,12.95,10.48,22.23,22.6,22.68,12.32.46,22.76-8.77,24.39-21.81.8-6.4.32-12.86.34-19.3.05-16.67-.02-33.35.04-50.02.02-4.02-.39-8.18,2.56-11.55h105.65c2.94,3.37,2.54,7.53,2.55,11.55.07,19.6.02,39.2.03,58.8,0,3.22-.09,6.44.21,9.65,1.22,12.95,10.48,22.23,22.6,22.68,12.32.46,22.76-8.77,24.39-21.81.8-6.4.32-12.86.34-19.3.04-16.67-.03-33.35.04-50.02.01-4.02-.39-8.18,2.56-11.55h105.64c2.95,3.37,2.55,7.53,2.56,11.55.06,19.6.02,39.2.03,58.8,0,3.22-.1,6.44.2,9.65,1.22,12.95,10.48,22.23,22.6,22.68,12.32.46,22.76-8.77,24.39-21.81.8-6.4.33-12.86.34-19.3.05-16.67-.02-33.35.05-50.02.01-4.02-.39-8.18,2.55-11.55,43.39-.02,86.78-.09,130.17-.03,17.58.02,28.19,10.87,28.22,28.74.05,40.17-.17,80.35.19,120.52Z"/>
</svg>