<?xml version="1.0" encoding="UTF-8"?>
<svg width="9px" height="20px" viewBox="0 0 9 20" version="1.1" xmlns="http://www.w3.org/2000/svg" xmlns:xlink="http://www.w3.org/1999/xlink">
    <!-- Generator: Sketch 58 (84663) - https://sketch.com -->
    <title>Fill 27</title>
    <desc>Created with Sketch.</desc>
    <g id="Landing-page-&amp;-Service-page" stroke="none" stroke-width="1" fill="none" fill-rule="evenodd">
        <g id="page-5" transform="translate(-324.000000, -727.000000)" fill="#FFFFFE">
            <path d="M326.042565,747 L329.968359,747 L329.968359,736.914805 L332.708447,736.914805 L333,733.538294 L329.968359,733.538294 C329.968359,733.538294 329.968359,732.277754 329.968359,731.615318 C329.968359,730.819004 330.125153,730.504303 330.875224,730.504303 C331.47867,730.504303 333,730.504303 333,730.504303 L333,727 C333,727 330.759959,727 330.2811,727 C327.359638,727 326.042565,728.319656 326.042565,730.845953 C326.042565,733.046249 326.042565,733.538294 326.042565,733.538294 L324,733.538294 L324,736.957402 L326.042565,736.957402 L326.042565,747" id="Fill-27"></path>
        </g>
    </g>
</svg>