<?xml version="1.0" encoding="UTF-8"?>
<svg id="Layer_1" xmlns="http://www.w3.org/2000/svg" viewBox="0 0 1080 1080">
  <defs>
    <style>
      .cls-1 {
        fill: #1f3060;
      }

      .cls-2 {
        fill: #8c5e55;
      }

      .cls-3 {
        fill: #c78976;
      }

      .cls-4 {
        opacity: .3;
      }

      .cls-5 {
        fill: #010101;
      }

      .cls-6 {
        fill: #273339;
      }

      .cls-7 {
        fill: #465b65;
      }
    </style>
  </defs>
  <g id="freepik--Chart--inject-191">
    <rect class="cls-7" x="374.32" y="567.23" width="261.63" height="435.92"/>
    <g class="cls-4">
      <rect class="cls-5" x="374.32" y="567.23" width="261.63" height="435.92"/>
    </g>
    <rect class="cls-7" x="428.61" y="567.23" width="261.63" height="435.92"/>
    <path class="cls-7" d="M427.81,780.97c.2.26-11.5,9.67-26.08,21.02-14.58,11.35-26.6,20.37-26.8,20.13s11.5-9.65,26.08-21.02c14.58-11.37,26.6-20.37,26.8-20.13Z"/>
    <path class="cls-7" d="M427.81,756.41c.2.24-11.5,9.65-26.08,21s-26.6,20.39-26.8,20.13,11.5-9.65,26.08-21.02c14.58-11.37,26.6-20.37,26.8-20.11Z"/>
    <path class="cls-7" d="M427.81,731.87c.2.24-11.5,9.65-26.08,21.02-14.58,11.37-26.6,20.28-26.82,20.08s11.5-9.65,26.08-21.02c14.58-11.37,26.63-20.37,26.82-20.08Z"/>
    <path class="cls-7" d="M427.81,707.24c.2.26-11.5,9.67-26.08,21.02-14.58,11.35-26.6,20.37-26.82,20.13s11.5-9.65,26.08-21.02c14.58-11.37,26.63-20.37,26.82-20.13Z"/>
    <path class="cls-7" d="M427.81,682.68c.2.24-11.5,9.65-26.08,21.02s-26.6,20.37-26.8,20.11,11.5-9.65,26.08-21.02c14.58-11.37,26.6-20.37,26.8-20.11Z"/>
    <path class="cls-7" d="M427.81,658.1c.2.24-11.5,9.65-26.08,21.02-14.58,11.37-26.6,20.37-26.82,20.15s11.5-9.65,26.08-21.02c14.58-11.37,26.63-20.28,26.82-20.15Z"/>
    <path class="cls-7" d="M427.81,633.52c.2.26-11.5,9.67-26.08,21.02s-26.6,20.37-26.8,20.13,11.5-9.65,26.08-21.02,26.6-20.37,26.8-20.13Z"/>
    <path class="cls-7" d="M427.81,608.96c.2.24-11.5,9.65-26.08,21.02-14.58,11.37-26.6,20.37-26.8,20.11s11.5-9.65,26.08-21.02c14.58-11.37,26.6-20.37,26.8-20.11Z"/>
    <path class="cls-7" d="M427.81,584.38c.2.24-11.5,9.65-26.08,21.02-14.58,11.37-26.6,20.37-26.8,20.13s11.5-9.65,26.08-21.02c14.58-11.37,26.6-20.43,26.8-20.13Z"/>
    <path class="cls-7" d="M417.07,568.14c.2.26-9.09,7.8-20.74,16.84-11.65,9.04-21.24,16.21-21.43,15.95s9.09-7.78,20.74-16.84c11.65-9.06,21.24-16.19,21.43-15.95Z"/>
    <path class="cls-7" d="M385.99,567.68c-1.47,1.86-3.23,3.48-5.22,4.78-1.75,1.61-3.76,2.93-5.93,3.89,3.23-3.47,7-6.4,11.15-8.69v.02Z"/>
    <path class="cls-7" d="M374.77,853.31c-.2-.26,11.5-9.67,26.08-21.02,14.58-11.35,26.6-20.39,26.78-20.13s-11.48,9.65-26.08,21.02c-14.61,11.37-26.58,20.41-26.78,20.13Z"/>
    <path class="cls-7" d="M376.38,884.39c-.17-.24,11.5-9.65,26.08-21.02,14.58-11.37,26.6-20.37,26.8-20.13s-11.5,9.65-26.08,21.02c-14.58,11.37-26.6,20.37-26.8,20.13Z"/>
    <path class="cls-7" d="M374.9,912.92c-.2-.24,11.5-9.65,26.08-21.02s26.6-20.37,26.8-20.13-11.5,9.67-26.08,21.02-26.58,20.39-26.8,20.13Z"/>
    <path class="cls-7" d="M374.9,937.51c-.2-.24,11.5-9.65,26.08-21.02,14.58-11.37,26.6-20.37,26.8-20.13s-11.5,9.65-26.08,21.02c-14.58,11.37-26.58,20.37-26.8,20.13Z"/>
    <path class="cls-7" d="M374.9,962.09c-.2-.26,11.5-9.67,26.08-21.02s26.6-20.39,26.8-20.13-11.5,9.65-26.08,21.02c-14.58,11.37-26.58,20.3-26.8,20.13Z"/>
    <path class="cls-7" d="M374.9,986.65c-.2-.24,11.5-9.65,26.08-21.02,14.58-11.37,26.6-20.37,26.8-20.13s-11.5,9.67-26.08,21.02c-14.58,11.35-26.58,20.39-26.8,20.13Z"/>
    <path class="cls-7" d="M385.64,1002.89c-.2-.26,9.09-7.8,20.74-16.84,11.65-9.04,21.24-16.19,21.43-15.95s-9.09,7.78-20.74,16.84c-11.65,9.06-21.24,16.19-21.43,15.95Z"/>
    <path class="cls-7" d="M416.66,1003.34c3.22-3.48,6.99-6.42,11.15-8.69-1.48,1.86-3.25,3.47-5.24,4.78-1.76,1.6-3.75,2.92-5.91,3.91Z"/>
    <rect class="cls-7" x="767.31" y="694.81" width="230.48" height="308.25"/>
    <g class="cls-4">
      <rect class="cls-5" x="767.31" y="694.81" width="230.48" height="308.25"/>
    </g>
    <rect class="cls-7" x="813.52" y="694.81" width="230.48" height="308.25"/>
    <path class="cls-7" d="M813.52,882.8c.2.24-10.02,8.5-22.8,18.45s-23.3,17.8-23.5,17.56,10.02-8.52,22.8-18.45c12.78-9.93,23.3-17.82,23.5-17.56Z"/>
    <path class="cls-7" d="M813.52,861.28c.2.24-10.02,8.52-22.8,18.45-12.78,9.93-23.3,17.8-23.5,17.56s10.02-8.52,22.8-18.45c12.78-9.93,23.3-17.8,23.5-17.56Z"/>
    <path class="cls-7" d="M813.52,839.76c.2.26-10.02,8.52-22.8,18.45-12.78,9.93-23.3,17.82-23.5,17.56s10.02-8.5,22.8-18.45c12.78-9.95,23.3-17.8,23.5-17.56Z"/>
    <path class="cls-7" d="M813.52,818.27c.2.24-10.02,8.5-22.8,18.45-12.78,9.95-23.3,17.8-23.5,17.56s10.02-8.52,22.8-18.45,23.3-17.82,23.5-17.56Z"/>
    <path class="cls-7" d="M813.52,796.75c.2.24-10.02,8.52-22.8,18.45-12.78,9.93-23.3,17.8-23.5,17.56s10.02-8.5,22.8-18.45c12.78-9.95,23.3-17.8,23.5-17.56Z"/>
    <path class="cls-7" d="M813.52,775.34c.2.26-10.02,8.52-22.8,18.45-12.78,9.93-23.3,17.82-23.5,17.56s10.02-8.5,22.8-18.45,23.3-17.91,23.5-17.56Z"/>
    <path class="cls-7" d="M813.52,753.74c.2.24-10.02,8.5-22.8,18.45-12.78,9.95-23.3,17.8-23.5,17.56s10.02-8.52,22.8-18.45c12.78-9.93,23.3-17.82,23.5-17.56Z"/>
    <path class="cls-7" d="M813.52,732.22c.2.26-10.02,8.52-22.8,18.45-12.78,9.93-23.3,17.8-23.5,17.56s10.02-8.5,22.8-18.45,23.3-17.8,23.5-17.56Z"/>
    <path class="cls-7" d="M813.52,710.72c.2.24-10.02,8.5-22.8,18.43-12.78,9.93-23.3,17.82-23.5,17.56s10.02-8.5,22.8-18.45,23.3-17.8,23.5-17.54Z"/>
    <path class="cls-7" d="M804.13,696.51c.2.24-7.91,6.87-18.11,14.8s-18.61,14.15-18.8,13.91,7.91-6.87,18.11-14.8c10.19-7.93,18.61-14.15,18.8-13.91Z"/>
    <path class="cls-7" d="M776.98,696.12c.2.24-1.83,2.17-4.52,4.24-1.55,1.38-3.32,2.48-5.24,3.26-.2-.24,1.85-2.17,4.54-4.35,1.53-1.36,3.3-2.43,5.22-3.15Z"/>
    <path class="cls-7" d="M813.52,967.33c.2.24-10.02,8.5-22.8,18.45-12.78,9.95-23.3,17.78-23.5,17.56s10.02-8.52,22.8-18.45c12.78-9.93,23.3-17.8,23.5-17.56Z"/>
    <path class="cls-7" d="M813.52,945.81c.2.26-10.02,8.52-22.8,18.45s-23.3,17.8-23.5,17.56,10.02-8.5,22.8-18.45,23.3-17.8,23.5-17.56Z"/>
    <path class="cls-7" d="M813.52,924.31c.2.24-10.02,8.5-22.8,18.45s-23.3,17.8-23.5,17.54,10.02-8.5,22.8-18.45c12.78-9.95,23.3-17.8,23.5-17.54Z"/>
    <path class="cls-7" d="M813.52,902.8c.2.24-10.02,8.5-22.8,18.45-12.78,9.95-23.3,17.8-23.5,17.56s10.02-8.52,22.8-18.45c12.78-9.93,23.3-17.8,23.5-17.56Z"/>
    <rect class="cls-7" x="26.53" y="793.45" width="247.11" height="209.9"/>
    <g class="cls-4">
      <rect class="cls-5" x="26.53" y="793.45" width="247.11" height="209.9"/>
    </g>
    <rect class="cls-7" x="71" y="793.45" width="247.11" height="209.9"/>
    <path class="cls-7" d="M70.18,969.39c.17.26-9.43,8.04-21.47,17.39-12.04,9.35-21.97,16.76-22.17,16.52s9.41-8.04,21.47-17.39c12.06-9.35,21.97-16.76,22.17-16.52Z"/>
    <path class="cls-7" d="M70.18,949.22c.17.26-9.43,8.06-21.47,17.39s-21.97,16.76-22.17,16.52,9.41-8.04,21.47-17.39,21.97-16.87,22.17-16.52Z"/>
    <path class="cls-7" d="M70.18,928.86c.17.24-9.43,8.04-21.47,17.39-12.04,9.35-21.97,16.78-22.17,16.52s9.41-8.04,21.47-17.39c12.06-9.35,21.97-16.78,22.17-16.52Z"/>
    <path class="cls-7" d="M70.18,908.58c.17.24-9.43,8.04-21.47,17.39s-21.97,16.78-22.17,16.54,9.41-8.06,21.47-17.39c12.06-9.32,21.97-16.78,22.17-16.54Z"/>
    <path class="cls-7" d="M70.18,888.36c.17.26-9.43,8.04-21.47,17.39s-21.97,16.76-22.17,16.52,9.41-8.04,21.47-17.39c12.06-9.35,21.97-16.82,22.17-16.52Z"/>
    <path class="cls-7" d="M70.18,868.04c.17.24-9.43,8.04-21.47,17.39-12.04,9.35-21.97,16.76-22.17,16.52s9.41-8.04,21.47-17.39c12.06-9.35,21.97-16.78,22.17-16.52Z"/>
    <path class="cls-7" d="M70.18,847.76c.17.24-9.43,8.04-21.47,17.39-12.04,9.35-21.97,16.78-22.17,16.52s9.41-8.04,21.47-17.39c12.06-9.35,21.97-16.78,22.17-16.52Z"/>
    <path class="cls-7" d="M70.18,827.51c.17.24-9.43,8.04-21.47,17.39-12.04,9.35-21.97,16.78-22.17,16.54s9.41-8.04,21.47-17.39,21.97-16.8,22.17-16.54Z"/>
    <path class="cls-7" d="M70.18,807.2c.17.26-9.43,8.04-21.47,17.39-12.04,9.35-21.97,16.76-22.17,16.52s9.41-8.04,21.47-17.39c12.06-9.35,21.97-16.76,22.17-16.52Z"/>
    <path class="cls-7" d="M61.31,793.82c-5.43,4.96-11.11,9.63-17.04,13.98-5.69,4.65-11.61,9-17.74,13.04,5.44-4.94,11.13-9.61,17.04-13.98,9.61-7.41,17.54-13.28,17.74-13.04Z"/>
    <path class="cls-7" d="M35.73,793.45c.2.24-1.7,2.04-4.24,4.02-1.43,1.35-3.12,2.42-4.96,3.13-.2-.24,1.72-2.04,4.35-4.02,1.41-1.34,3.05-2.4,4.85-3.13Z"/>
  </g>
  <g id="freepik--Character--inject-191">
    <g class="cls-4">
      <path class="cls-5" d="M647.88,548.75c-2.06-.64-4.25-.76-6.37-.35-66.42,7.37-140,12.37-206.48,19.74v.72c42.65,12.26,87.04,17.4,131.37,15.21,4.15-.2,8.89-.24,11.72,2.83s2.17,8.56,1.24,13.04c-9.35,40.64-18.68,81.28-28.02,121.91-1.46,6.39-2.48,14.24,2.52,18.45,6.91,5.85,17.08-1.09,22.91-8,39.56-46.93,57.51-107.83,74.44-166.82,1.78-5.98,2.5-14.35-3.33-16.74Z"/>
    </g>
    <path class="cls-1" d="M732.64,528.93c-6.94-5.93-15.93-8.9-25.04-8.26l-15.21,48.67c11.22.48,22.41,6.28,33.23,3.3,8.86-2.73,15.31-10.37,16.52-19.56.94-9.11-2.6-18.11-9.5-24.15Z"/>
    <path class="cls-1" d="M569.24,698.44l-30.84,86.42,107.35,38.95c3.09-10.5-44.99-51.21-44.99-51.21l22.15-54.58-53.66-19.58Z"/>
    <path class="cls-6" d="M602.69,772.69c-.2.5-2.91-.2-6.09.54s-5.37,2.46-5.78,2.17,1.48-3.11,5.35-3.96,6.82.78,6.52,1.24Z"/>
    <path class="cls-6" d="M612.27,781.43c0,.54-2.67.61-5.24,2.17s-3.96,3.74-4.48,3.52.24-3.28,3.48-5.19,6.41-1.02,6.24-.5Z"/>
    <path class="cls-6" d="M613.77,797.21c-.52,0-.3-2.93,2.17-5.33s5.26-2.63,5.33-2.17-2.02,1.5-3.93,3.48-3.02,4.17-3.56,4.02Z"/>
    <path class="cls-6" d="M606.34,759.69c-.39.39-2.54-1.2-5.56-2.17s-5.69-.76-5.8-1.33,2.78-1.61,6.35-.52,5.43,3.69,5.02,4.02Z"/>
    <path class="cls-6" d="M608.4,746.02c-1.93-.17-3.79-.85-5.37-1.98-1.81-1.05-3.49-2.32-5-3.76-.89-.86-1.73-1.79-2.5-2.76-.47-.55-.86-1.18-1.15-1.85-.44-1.02-.12-2.21.76-2.89.81-.54,1.82-.68,2.74-.37.68.25,1.32.6,1.91,1.02,1.05.69,2.03,1.48,2.93,2.35,1.51,1.48,2.79,3.19,3.78,5.06,1.08,1.63,1.62,3.55,1.56,5.5-.3,0-.91-1.98-2.76-4.8-1.07-1.61-2.35-3.07-3.8-4.35-.86-.8-1.78-1.53-2.76-2.17-1.02-.7-1.98-1.07-2.46-.65s-.22.22-.11.63c.24.49.53.95.87,1.37.67.92,1.4,1.81,2.17,2.65,1.37,1.42,2.87,2.72,4.48,3.87,1.63.94,3.2,1.98,4.69,3.13Z"/>
    <path class="cls-6" d="M607.45,746.52c-.46-1.9-.3-3.89.46-5.69.64-2.02,1.61-3.92,2.87-5.63.77-1,1.63-1.92,2.56-2.76,1.1-1.21,2.74-1.76,4.35-1.48.97.38,1.63,1.29,1.7,2.33.04.73,0,1.46-.15,2.17-.26,1.26-.7,2.48-1.33,3.61-1.03,1.91-2.52,3.54-4.35,4.72-3.11,2.02-5.52,1.87-5.5,1.67,1.62-.84,3.19-1.76,4.69-2.78,1.48-1.17,2.68-2.66,3.52-4.35.5-.99.85-2.04,1.04-3.13.24-1.2.15-2.28-.33-2.33-.96-.02-1.88.38-2.52,1.09-.87.74-1.67,1.55-2.39,2.43-1.23,1.51-2.23,3.18-2.98,4.98-1.17,3.02-1.41,5.17-1.65,5.15Z"/>
    <path class="cls-6" d="M453.74,452.81c-17.58.41-34.25,2.89-46.36,15.63-16.06,16.91-35.91,41.01-36.95,57.71-1.83,24.97,13.39,32.39,24.26,38.49,4.89,2.65,10.42,3.92,15.98,3.67l203.16-1.54,6.39-34.41-131.41-32.39,5.46-49.45-40.51,2.28Z"/>
    <path class="cls-6" d="M494.27,450.53l63.92-2.96s110.35,6.09,133.95,27.82,20.61,46.12,12.76,69.55c-7.85,23.43-77.03,174.19-77.03,174.19,0,0,5.61,9.59,2.46,19.13-2.57,8.5-9.42,15.03-18.04,17.19l-61.45-22.58s-8.35-2.93-2.46-10.87c5.89-7.93,9.8-9.3,9.8-9.3v-15.61s21.6-39.25,23.56-44.64,22.65-85.29,22.65-85.29l13.76-23.63s-33.25-15.63-62.05-26.95l-67.38-16.58,5.54-49.47Z"/>
    <path class="cls-7" d="M597.95,730.04c-.13.15-2.06-1.39-5.39-3.52-8.68-5.63-18.46-9.33-28.69-10.87-2.14-.21-4.28-.53-6.39-.96,2.17-.25,4.36-.21,6.52.13,5.21.56,10.32,1.78,15.21,3.65,4.9,1.85,9.54,4.33,13.8,7.39,1.82,1.16,3.48,2.57,4.93,4.17Z"/>
    <path class="cls-7" d="M628.64,719.26c-1.33-1.11-2.53-2.37-3.56-3.76-2.06-2.43-4.83-5.89-7.72-9.8-2.89-3.91-5.37-7.61-7.06-10.3-1.04-1.39-1.88-2.91-2.52-4.52,1.21,1.24,2.29,2.6,3.22,4.06l7.32,10.06,7.41,9.98c1.13,1.31,2.11,2.75,2.91,4.28Z"/>
    <path class="cls-7" d="M651.16,521.95c0,.2-2.17.67-5.8,1.87-4.64,1.54-9.08,3.62-13.24,6.19-4.14,2.61-7.96,5.68-11.39,9.17-2.63,2.67-4.06,4.52-4.22,4.35.95-1.83,2.17-3.51,3.61-4.98,3.31-3.73,7.14-6.97,11.37-9.61,4.23-2.63,8.81-4.65,13.61-6,1.96-.63,4-.97,6.06-1Z"/>
    <path class="cls-7" d="M588.32,628.61c.03-.45.11-.9.24-1.33.26-.98.57-2.17.96-3.74l3.67-13.71,12.58-45.1c2.54-8.8,4.74-17.19,7.19-24.8,2.6-6.62,6.54-12.62,11.56-17.65,3.32-3.4,7-6.44,10.98-9.04,1.43-.91,2.54-1.59,3.33-2,.38-.24.79-.45,1.22-.61,0,0-1.54,1.04-4.35,2.98-3.83,2.74-7.39,5.84-10.63,9.26-4.85,4.99-8.64,10.9-11.15,17.39-2.37,7.48-4.54,15.98-7.09,24.73l-12.85,45.17-4.04,13.61c-.48,1.5-.85,2.72-1.15,3.67-.11.41-.27.8-.48,1.17Z"/>
    <path class="cls-7" d="M531.79,513.56c-.33,0-1.67-11.93-3-26.69-1.33-14.76-2.17-26.78-1.83-26.8s1.67,11.91,3,26.69,2.15,26.76,1.83,26.8Z"/>
    <path class="cls-7" d="M425.42,545.45c-.2,0-1.17-1.85-3.17-4.67-2.62-3.67-5.74-6.96-9.28-9.76-3.57-2.76-7.51-4.99-11.72-6.63-3.24-1.26-5.35-1.76-5.3-1.96,1.91.09,3.8.48,5.59,1.15,8.85,2.95,16.41,8.86,21.41,16.74,1.1,1.56,1.94,3.3,2.48,5.13Z"/>
    <path class="cls-7" d="M464.56,502.06c0,.2-2.83-1.54-7.52-3.67-12.29-5.58-25.91-7.54-39.28-5.65-5.11.74-8.19,1.65-8.24,1.43.68-.38,1.41-.65,2.17-.8,1.97-.61,3.97-1.1,6-1.46,13.53-2.39,27.47-.39,39.78,5.72,1.85.9,3.64,1.93,5.35,3.09.64.37,1.22.82,1.74,1.35Z"/>
    <path class="cls-7" d="M617.6,532.34c-.53-.06-1.06-.14-1.59-.26l-4.52-1-16.56-3.72c-13.98-3.13-33.32-7.32-54.77-11.58-21.45-4.26-40.93-7.78-55.06-10.15l-16.74-2.87-4.54-.83c-.53-.08-1.05-.2-1.56-.35.54-.02,1.08.03,1.61.13l4.56.59c3.98.54,9.72,1.39,16.8,2.5,14.17,2.17,33.69,5.59,55.16,9.82s40.8,8.59,54.73,11.93c6.98,1.67,12.61,3.06,16.48,4.09l4.48,1.2c.52.11,1.03.28,1.52.5Z"/>
    <path class="cls-7" d="M488.82,505.82c-.82-2.22-1.75-4.4-2.8-6.52-1.27-2.21-2.84-4.23-4.65-6.02-2.25-2.19-4.62-4.24-7.11-6.15-4.61-3.4-9.48-6.42-14.56-9.04-2.16-1.01-4.24-2.19-6.22-3.52,2.26.72,4.44,1.65,6.52,2.78,5.26,2.43,10.26,5.39,14.91,8.85,2.54,1.94,4.93,4.05,7.17,6.32,1.83,1.9,3.39,4.05,4.61,6.39.79,1.58,1.4,3.24,1.8,4.96.21.63.33,1.29.33,1.96Z"/>
    <path class="cls-6" d="M715.1,536.54c.26.26-3.13,3.69-5.78,8.91-2.65,5.22-3.5,9.95-3.87,9.89.4-7.35,3.91-14.19,9.65-18.8Z"/>
    <path class="cls-6" d="M879.51,242.65c-.06.11-.12.21-.2.3l-.59.87-2.39,3.35-9.22,12.41c-8,10.72-19.39,25.89-32.97,44.01l-.28.39-.39-.28-28.76-20.32.76-.13c-6.82,9.24-14.11,19.08-21.63,29.21-8.15,10.98-16.04,21.74-23.52,31.67l-.28.41-.41-.26-35.32-20.67.61-.13-30.43,38.04-8.56,10.5-2.28,2.76c-.25.32-.52.63-.8.91.2-.35.44-.69.7-1l2.17-2.85,8.35-10.72,30.15-38.3.26-.33.35.22,35.38,20.56-.72.15,23.47-31.71,21.74-29.19.33-.43.43.33,28.67,20.41h-.67l33.3-43.77,9.41-12.24,2.52-3.2c.26-.35.48-.61.67-.83s.13-.15.15-.15Z"/>
    <path class="cls-6" d="M876.42,274.91c-.09-.85-.09-1.7,0-2.54.13-1.87.3-4.17.48-6.89.46-5.83,1.15-13.87,2-22.71v-.15l.76.59c-8.37,2.98-15.95,5.63-21.45,7.5l-6.52,2.17c-.78.31-1.6.53-2.43.63.73-.43,1.5-.78,2.3-1.04l6.41-2.5c5.43-2.04,13.04-4.83,21.32-7.8l.85-.3v.98c-.85,8.85-1.67,16.87-2.33,22.67-.33,2.72-.61,5.02-.85,6.87-.07.87-.25,1.72-.54,2.54Z"/>
    <path class="cls-1" d="M627.1,369.39c-1-6.65-20.87-28.65-20.87-28.65,0,0-17.28-42.3-20.26-54.06-2.24-7.41-4.95-14.67-8.13-21.74-6.96-11.76-10.39-11.98-22.3-18.67l-23.08-10.19-2.83-6.28c-2.43-5.41-6.63-9.84-11.91-12.54l-57.84-29.86-17.91,31.62s-34.39,16.24-36.38,18.8c-7.06,9-2.17,153.52-2.17,153.52,0,0-3.46,56.32-7.3,72.12-3.85,15.8-6.09,27.47-6.09,27.47l17.17-19.74c10.09-12.63,32.19-18.45,48.08-18.21l135.71.59-8.26-40.47,112.61,23.8s18.89-36.82,20.39-37.56-88.64-29.95-88.64-29.95Z"/>
    <path class="cls-6" d="M601.36,396.08c-.1-.55-.1-1.11,0-1.65.15-1.47.44-2.93.85-4.35,1.4-4.76,3.96-9.1,7.46-12.63,3.51-3.51,7.84-6.07,12.61-7.46,1.42-.42,2.87-.72,4.35-.87h1.65s-2.28.43-5.76,1.65c-9.21,3.11-16.45,10.35-19.56,19.56-1.13,3.46-1.37,5.76-1.59,5.74Z"/>
    <path class="cls-6" d="M604.73,370.31c3.02-1.78,6.43-2.77,9.93-2.87,3.47-.48,7-.06,10.26,1.22,0,.35-4.59-.52-10.17,0s-9.91,2-10.02,1.65Z"/>
    <path class="cls-1" d="M407.25,236.52c-18.53,8.06-32.13,24.46-36.6,44.17-6.09,24.82-32.19,126.3-26.82,141.47,5.37,15.17,109.7,30.08,109.7,30.08l12.37-52.16-52.99-14.5s.67-48.3,1.35-68.31c.67-20.02-7-80.75-7-80.75Z"/>
    <path class="cls-3" d="M592.28,442.27l-16.71-17.76-34.43-8.69s-31.54,9.45-32.3,9.43-27.45-7.3-27.45-7.3l-9.32,34.19,48.08,3.3,54.9-2.17s2.85-2.67,1.15-4.5,9.19,3.09,10.48,3.15,3.76,1.04,5.46-1.02c1.15-1.41,2.72-5.93.15-8.63Z"/>
    <path class="cls-2" d="M576.19,448.75c-1.87-.36-3.69-.9-5.46-1.61-3.35-1.07-7.96-2.48-13.04-3.8-5.09-1.33-9.89-2.3-13.32-3-1.88-.25-3.74-.68-5.54-1.28,1.91-.09,3.82.06,5.69.43,4.54.62,9.04,1.51,13.48,2.65,4.43,1.13,8.78,2.52,13.04,4.17,1.81.59,3.55,1.4,5.15,2.43Z"/>
    <path class="cls-2" d="M592.28,442.27c-2.59-.67-5.13-1.49-7.63-2.46-4.67-1.59-11.24-3.52-18.52-5.54-7.28-2.02-13.74-4.35-18.65-4.61-2.65-.13-5.3-.02-7.93.3.68-.36,1.41-.6,2.17-.7,1.94-.42,3.93-.58,5.91-.48,5.09,0,11.76,2.17,18.95,4.35,7.19,2.17,13.82,4.11,18.47,5.91,2.3.89,4.17,1.67,5.43,2.17.64.26,1.24.61,1.78,1.04Z"/>
    <path class="cls-6" d="M343.43,416.71s0,.87.26,2.46c.57,2.3,1.84,4.38,3.63,5.93,4.54,4.22,13.19,7.74,24.17,9.72h0c5.02,1.65,10.74,2.96,16.84,4.35,6.11,1.39,12.69,2.78,19.56,4.19,13.89,2.83,29.26,5.83,45.51,8.87l-.7.46,3.67-15.21c2.93-11.95,5.78-23.56,8.46-34.54l.41.72-47.08-13.45h0c-6.49-2.74-13.51-3.96-20.54-3.59-5.34.29-10.58,1.52-15.5,3.63-3.12,1.35-6.11,3-8.91,4.93l-2.17,1.59-.76.5s.2-.24.67-.63,1.13-.98,2.17-1.67c2.76-2.05,5.74-3.8,8.87-5.22,4.95-2.23,10.25-3.56,15.67-3.91,7.16-.44,14.32.74,20.95,3.48h0l47.14,13.24.57.15-.13.57c-2.7,11-5.5,22.58-8.41,34.56-1.28,5.19-2.52,10.3-3.7,15.21l-.15.57h-.57c-16.28-3.09-31.62-6.11-45.51-9.02-6.93-1.43-13.5-2.87-19.56-4.35s-11.8-2.78-16.91-4.52h0c-11.08-2.17-19.78-5.78-24.34-10.22-1.82-1.64-3.07-3.82-3.56-6.22-.18-.84-.2-1.71-.07-2.56Z"/>
    <path class="cls-6" d="M415.77,389.06c-.15.15-1.91-1.48-5.11-3.61-8.35-5.58-18.22-8.45-28.26-8.22-3.83,0-6.19.5-6.24.3,1.98-.74,4.08-1.13,6.19-1.17,10.28-.73,20.48,2.23,28.76,8.37,1.78,1.18,3.35,2.64,4.65,4.33Z"/>
    <path class="cls-6" d="M422.7,304.08c.12,1.05.12,2.12,0,3.17,0,2.04-.22,5-.5,8.69-.59,7.28-1.67,17.39-3.59,28.26-1.51,9.42-3.69,18.73-6.52,27.84-.59,1.72-1.2,3.28-1.7,4.65l-1.52,3.41c-.44.97-.99,1.89-1.63,2.74.31-1.01.71-1.99,1.2-2.93.39-1.02.83-2.17,1.3-3.48s.98-2.93,1.5-4.67c2.61-9.12,4.68-18.39,6.19-27.76,1.91-10.87,3.13-20.97,3.93-28.26.35-3.43.65-6.32.89-8.69.04-1,.19-2,.43-2.98Z"/>
    <path class="cls-6" d="M470.56,279.54s-.24-.61-.78-1.67c-.8-1.51-1.98-2.79-3.41-3.72-2.16-1.48-4.88-1.88-7.37-1.09-3.16,1.09-5.52,3.77-6.22,7.04l-.3,1.61-.7-1.48c-2.66-5.69-4.97-11.53-6.93-17.5-3.46-9.93-5.19-20.39-5.11-30.91,0-2.02.28-3.83.39-5.43s.48-2.93.72-4.02c.23-1.15.58-2.27,1.02-3.35-.79,4.23-1.23,8.52-1.3,12.82.19,10.37,2.01,20.64,5.41,30.43,1.95,5.91,4.21,11.72,6.78,17.39l-1.02.13c.79-3.63,3.46-6.56,7-7.69,2.74-.81,5.7-.28,8,1.41,1.47,1.03,2.63,2.44,3.35,4.09.18.44.33.89.43,1.35.07.41.07.59.04.59Z"/>
    <path class="cls-6" d="M526.83,284.65c-.22-.89-.38-1.79-.48-2.7-.49-2.5-.64-5.06-.46-7.61.46-3.85,2.3-7.41,5.17-10.02,1.71-1.52,3.92-2.36,6.22-2.37,2.54-.02,4.94,1.13,6.52,3.11l-.93.57-2.04-5.41c-4-10.67-7.56-20.37-10.09-27.39-1.17-3.37-2.17-6.17-2.93-8.35-.41-1.01-.72-2.06-.93-3.13.53.95.98,1.94,1.35,2.96.85,2.17,1.93,4.91,3.26,8.22,2.72,6.96,6.39,16.61,10.39,27.28l2.02,5.41,1.3,3.5-2.17-2.91c-1.39-1.73-3.49-2.74-5.72-2.74-2.06,0-4.06.73-5.63,2.06-2.7,2.43-4.49,5.73-5.04,9.32-.22,2.48-.18,4.97.13,7.43.14.91.16,1.84.07,2.76Z"/>
    <path class="cls-6" d="M565.35,290.25c.3,0,5.15,31.69,10.87,70.86,5.72,39.17,10.02,70.97,9.72,71.01s-5.15-31.67-10.87-70.86-10.02-70.97-9.72-71.01Z"/>
    <g class="cls-4">
      <path class="cls-5" d="M445.54,263.11c.29,8.8,2.21,17.48,5.65,25.58,2.46-3.04,5.19-6.26,8.95-7.17,4.67-1.11,9.41,1.78,12.78,5.28-.59-3.53-1.99-6.87-4.09-9.76-2.09-2.88-5.41-4.62-8.98-4.69-3.63.08-6.75,2.61-7.56,6.15l-6.52-15.21"/>
    </g>
    <path class="cls-6" d="M422.53,276.82c-.22,0-.15-2.37-.83-6.06-.92-4.82-2.8-9.4-5.52-13.48-1.5-2.23-3.24-4.29-5.17-6.15-1.59-1.52-3.33-2.87-5.19-4.04-3.17-2.02-5.41-2.78-5.35-3,.56.04,1.11.17,1.63.39.63.19,1.24.43,1.83.72.8.34,1.58.73,2.33,1.17,1.97,1.11,3.82,2.44,5.5,3.96,2.05,1.89,3.87,4,5.43,6.3,2.81,4.21,4.64,8.99,5.35,14,.22,1.5.29,3.02.22,4.54-.07,1.07-.13,1.65-.22,1.65Z"/>
    <g class="cls-4">
      <path class="cls-5" d="M567.3,304.36l14.54,102.46.72,1.63c3.43-35.42-1.81-71.14-15.26-104.09Z"/>
    </g>
    <path class="cls-3" d="M743.53,411.52s6.11,5.61,5.15,10.37c-.96,4.76-.65,8.32-5.15,8.69.13,3.61-2.54,6.7-6.13,7.09,0,0,1.39,7.48-7.32,8.69,0,0-2.65,8-8.15,6.06-3.14-1.08-6.17-2.49-9.02-4.19l-1.61-2.91s-8.06-3.02-6.09-7.59c1.22-2.76,5.39-3.48,5.39-3.48-.97-2.31-.78-4.94.52-7.09,1.93-2.61,8.24-.46,8.24-.46-.13-2.23.57-4.43,1.98-6.17,2.17-2.54,12.19,4.35,12.19,4.35l5.46-6.52,4.54-6.85Z"/>
    <path class="cls-2" d="M730.08,446.38c-3.53-1.5-6.9-3.37-10.04-5.56-3.36-1.84-6.53-4.02-9.43-6.52,6.93,3.33,13.49,7.39,19.56,12.11l-.09-.02Z"/>
    <path class="cls-2" d="M737.4,437.62c-3.28-1.3-6.4-2.96-9.32-4.93-3.11-1.66-6.02-3.66-8.69-5.96,3.28,1.3,6.41,2.95,9.32,4.93,3.11,1.65,6.03,3.65,8.69,5.96Z"/>
    <path class="cls-2" d="M727.43,421.21c.2-.33,3.93,1.63,8.28,4.35,2.7,1.55,5.3,3.28,7.78,5.17-.17.37-4.06-1.39-8.41-4.17-2.73-1.52-5.29-3.31-7.65-5.35Z"/>
    <path class="cls-6" d="M774.29,363.72c-.19.03-.38.03-.57,0h-8.19l-23.65.2-78.05.17h-5.69c-1.72-.18-3.39.6-4.35,2.04-1.8,3.22-3.56,6.41-5.3,9.54l-10.04,18.13-17.06,30.67c-4.87,8.69-8.8,15.67-11.58,20.63l-3.22,5.56-.85,1.43c-.1.17-.21.33-.35.48.06-.19.14-.37.24-.54.2-.39.43-.87.76-1.48.72-1.39,1.74-3.28,3-5.69l11.28-20.8c4.8-8.69,10.5-19.21,16.84-30.78,3.17-5.8,6.52-11.87,9.98-18.17l5.33-9.63c1.17-1.75,3.2-2.74,5.3-2.59h5.69l78.05.17,23.65.2h8.19l.59.46Z"/>
    <path class="cls-3" d="M518.88,224.61l-.65-18.76s24.91-5.46,23.67-30.62c-.59-12.17-3.87-37.1-7.09-59.62-3.51-24.19-24.98-41.65-49.38-40.14l-2.41.15c-26.08,3.13-37.97,27.04-34.12,53.01l6.11,98.98c1.07,17.23,15.61,30.5,32.86,29.99h0c17.67-.54,31.56-15.31,31.02-32.99,0,0,0,0,0,0Z"/>
    <path class="cls-2" d="M518.23,205.88c-11.62.69-23.19-1.97-33.34-7.65,0,0,8.5,17.82,33.47,14.02l-.13-6.37Z"/>
    <path class="cls-6" d="M531.61,139.24c.14,1.95-1.3,3.65-3.24,3.85-1.88.26-3.61-1.05-3.88-2.92,0-.03,0-.07-.01-.1-.08-1.93,1.38-3.58,3.3-3.74,1.85-.22,3.55,1.07,3.83,2.91Z"/>
    <path class="cls-6" d="M530.16,128.24c-.41.5-3.26-1.35-7.13-1.11s-6.52,2.37-7.02,1.91.17-1.07,1.37-2.04c3.26-2.57,7.77-2.83,11.3-.65,1.24.85,1.7,1.67,1.48,1.89Z"/>
    <path class="cls-6" d="M493.99,140.78c.13,1.95-1.32,3.64-3.26,3.83-1.86.28-3.6-1.01-3.87-2.88,0-.04-.01-.08-.02-.12-.14-1.95,1.3-3.65,3.24-3.85,1.9-.25,3.65,1.08,3.91,2.99,0,.01,0,.02,0,.04Z"/>
    <path class="cls-6" d="M492.21,131.3c-.41.5-3.26-1.35-7.13-1.11s-6.52,2.37-7.02,1.91.17-1.07,1.37-2.04c1.59-1.3,3.54-2.06,5.59-2.17,2-.13,4,.38,5.69,1.46,1.26.91,1.78,1.74,1.5,1.96Z"/>
    <path class="cls-6" d="M508.01,159.1c1.99-.76,4.07-1.28,6.19-1.52,1-.15,1.91-.41,2.04-1.09,0-1.03-.29-2.03-.85-2.89l-3.35-7.35c-4.72-10.45-8.19-19.06-7.78-19.26s4.59,8.15,9.3,18.58c1.13,2.59,2.17,5.04,3.26,7.39.69,1.16.96,2.52.76,3.85-.25.73-.82,1.3-1.54,1.54-.53.18-1.09.3-1.65.35-2.11.39-4.25.52-6.39.39Z"/>
    <path class="cls-6" d="M496.84,162.41c.63,0,.89,4.13,4.67,6.89s8.22,2.02,8.28,2.61c0,.26-.96.87-2.83,1.04-2.46.18-4.9-.5-6.91-1.93-1.92-1.39-3.23-3.47-3.65-5.8-.3-1.67.11-2.8.43-2.8Z"/>
    <path class="cls-6" d="M492.27,116.09c-.3,1.09-4.19.83-8.69,1.65s-8.11,2.17-8.69,1.37c-.3-.43.28-1.46,1.7-2.56,1.88-1.4,4.08-2.32,6.39-2.7,2.3-.41,4.67-.28,6.91.39,1.63.57,2.61,1.35,2.39,1.85Z"/>
    <path class="cls-6" d="M528.05,117.13c-.63.93-3.35.17-6.52.33s-5.89.96-6.52,0c-.3-.43,0-1.35,1.22-2.17,1.51-1.12,3.34-1.74,5.22-1.76,1.88-.09,3.74.41,5.33,1.43,1.13.85,1.56,1.8,1.28,2.17Z"/>
    <path class="cls-6" d="M531.61,104.22s-7.61-15.35-15.43-18.56c-9.45-3.89-12.8,6.52-21.74,4.54s-17.95-5.63-26.5,1.7c-9.35,8.02-4.35,12.93-4.35,24.13.33,45.4-7.15,58.69-10.87,37.54-.41-2.33-7-3.78-8.56-13.58-2.04-12.72-3.5-28.26-1.2-37.47,1.93-7.8,5.98-13.35,13.43-19.56,11.78-9.95,28.73-11.19,40.34-10.87s34.86,12.35,34.86,32.15Z"/>
    <path class="cls-3" d="M454.43,152.78c-.35-3.75-3.67-6.52-7.42-6.17-.11.01-.22.02-.34.04-4.67.74-9.74,3.72-8.82,13.41,1.61,17.15,18.52,12,18.5,11.5s-1.17-11.61-1.91-18.78Z"/>
    <path class="cls-2" d="M452,165.45s-.28.24-.76.52c-.67.36-1.44.45-2.17.26-1.89-.5-3.67-3.24-4.06-6.32-.18-1.46-.02-2.95.46-4.35.22-1.12.98-2.06,2.02-2.52.69-.24,1.46.03,1.85.65.26.48.2.83.28.85s.35-.33.15-1.02c-.15-.41-.42-.77-.78-1.02-.51-.31-1.11-.41-1.7-.28-1.41.42-2.5,1.54-2.87,2.96-.6,1.56-.8,3.24-.59,4.89.43,3.43,2.5,6.52,5.04,7,.96.18,1.95-.08,2.7-.72.46-.46.5-.87.43-.89Z"/>
    <path class="cls-6" d="M452.74,119.44c2.21,1.58,4.78,2.59,7.48,2.91,2.8.26,5.37-1.6,5.98-4.35.13-1.2-.24-2.59.48-3.54s2.63-.93,4.09-.87c5.19.07,9.72-3.5,10.87-8.56,1.71,1.66,4.41,1.75,6.22.2,1.69-1.56,3.15-3.34,4.35-5.3,1.24-1.98,3.38-3.22,5.72-3.3,1.24.33,2.52.53,3.8.59,2.17-.35,3.17-3.04,3.39-5.3s.3-4.91,2.17-6.24,4.04-.74,6.15-.54,4.76-.48,5.15-2.54c.12-1.12-.23-2.23-.96-3.09-3.14-4.1-8.69-5.5-13.41-3.39-2.99-7.85-11.78-11.79-19.64-8.8-3.62,1.38-6.58,4.09-8.27,7.58-6.6-5.3-16.25-4.24-21.54,2.36-1.14,1.42-2.01,3.02-2.58,4.74-6.03-1.19-11.88,2.73-13.07,8.76-.56,2.82,0,5.75,1.55,8.17-3.14,1.8-5.14,5.08-5.3,8.69.17,3.56,3.85,6.91,7.24,5.76-1.54,3.04-.32,6.74,2.72,8.28s6.74.32,8.28-2.72h0"/>
    <path class="cls-7" d="M505.81,81.1v.3c.02.31.02.62,0,.93-.17,1.18-.52,2.32-1.04,3.39-.84,1.7-2.06,3.19-3.56,4.35-1.99,1.54-4.42,2.39-6.93,2.43l.26-.39c.64,1.52.64,3.24,0,4.76-.67,1.57-1.57,3.04-2.67,4.35-.52.79-1.13,1.52-1.8,2.17-.78.61-1.7,1.02-2.67,1.2-2.04.42-4.16-.2-5.65-1.65l.63-.22c-.27,3.64-2.05,7-4.91,9.26-1.56,1.31-3.51,2.07-5.54,2.17-1.92.02-3.83-.27-5.65-.87l.46-.24c-.76,2.14-2.05,4.05-3.74,5.56-1.57,1.51-3.73,2.24-5.89,2-3.74-.57-6.79-3.31-7.76-6.98l.41.17c-1.76,1.07-3.83,1.5-5.87,1.22-1.56-.16-3.05-.71-4.35-1.59-.79-.54-1.48-1.21-2.04-1.98-.35-.54-.5-.85-.5-.85.75,1.02,1.67,1.89,2.72,2.59,1.24.78,2.65,1.27,4.11,1.41,1.93.24,3.88-.21,5.52-1.26l.33-.2v.37c.92,3.44,3.8,6,7.32,6.52,1.97.22,3.94-.46,5.35-1.87,1.59-1.44,2.79-3.26,3.5-5.28l.13-.33h.33c1.74.59,3.56.87,5.39.85,1.88-.11,3.67-.83,5.11-2.04,2.71-2.11,4.4-5.27,4.65-8.69v-.8l.57.59c2.04,1.89,5.12,2.07,7.37.43.63-.6,1.2-1.26,1.7-1.98,1.08-1.27,1.97-2.69,2.63-4.22.61-1.38.65-2.94.11-4.35l-.15-.39h.41c2.39,0,4.72-.76,6.65-2.17,1.47-1.08,2.68-2.48,3.54-4.09.8-1.43,1.33-2.99,1.57-4.61Z"/>
    <path class="cls-6" d="M514.4,142.28c-.48-1.31-.85-2.65-1.13-4.02-.63-3.72,0-7.54,1.78-10.87,1.23-2.3,2.99-4.27,5.13-5.76,2.45-1.71,5.3-2.75,8.28-3,1.61-.14,3.23-.03,4.8.3,1.64.33,3.22.93,4.67,1.76,6.37,3.53,9.71,10.79,8.26,17.93-.33,1.65-.91,3.23-1.74,4.69-.75,1.42-1.72,2.71-2.87,3.83-2.13,2.1-4.78,3.6-7.67,4.35-2.53.63-5.17.67-7.72.13-3.72-.81-7.05-2.85-9.48-5.78-.86-1.1-1.63-2.26-2.33-3.48.12.34.27.68.43,1,.18.4.4.79.65,1.15.3.52.64,1.01,1.02,1.48,4.15,5.28,11.02,7.64,17.54,6.02,3-.72,5.75-2.22,7.98-4.35,1.2-1.16,2.21-2.5,3-3.98.87-1.51,1.48-3.16,1.8-4.87,1.51-7.42-1.95-14.96-8.56-18.65-1.52-.85-3.16-1.46-4.87-1.8-1.63-.35-3.31-.45-4.98-.28-5.86.49-11.06,3.94-13.78,9.15-1.82,3.45-2.4,7.42-1.63,11.24.11.6.26,1.19.46,1.76.11.43.27.84.46,1.24.14.28.3.55.48.8Z"/>
    <path class="cls-6" d="M470.04,144.89c-.45-1.32-.82-2.66-1.13-4.02-.62-3.72.02-7.54,1.8-10.87,1.23-2.29,2.98-4.27,5.11-5.76,2.44-1.77,5.3-2.85,8.3-3.13,1.6-.15,3.21-.04,4.78.3,1.65.34,3.23.93,4.69,1.76,6.37,3.52,9.71,10.78,8.24,17.91-.65,3.24-2.25,6.22-4.61,8.54-4.03,4.01-9.82,5.7-15.37,4.48-3.73-.79-7.08-2.83-9.5-5.78-.85-1.1-1.63-2.25-2.33-3.46.12.35.28.68.46,1,.17.4.38.79.63,1.15.31.52.66,1.01,1.04,1.48,2.4,3.07,5.79,5.22,9.59,6.09,5.73,1.31,11.73-.39,15.91-4.52,1.21-1.15,2.23-2.49,3.02-3.96.85-1.53,1.46-3.18,1.8-4.89,1.52-7.45-2.01-15.01-8.69-18.63-1.52-.86-3.16-1.47-4.87-1.8-1.63-.35-3.31-.45-4.98-.28-3.08.27-6.04,1.36-8.56,3.15-2.19,1.56-3.97,3.62-5.22,6-1.82,3.45-2.38,7.42-1.61,11.24.1.59.25,1.17.46,1.74.11.43.26.86.46,1.26.16.35.35.68.57,1Z"/>
    <path class="cls-6" d="M502.45,134.15c3.22-1.84,7.12-2.04,10.52-.54,0,0-.43-.5-1.39-.93-2.53-1.12-5.45-.97-7.85.41-.91.43-1.35.91-1.28,1.07Z"/>
    <path class="cls-6" d="M452.87,148.24c2.76-1.03,5.44-2.29,8-3.76,2.67-1.25,5.25-2.7,7.69-4.35-2.76,1.04-5.43,2.3-8,3.76-2.67,1.26-5.24,2.71-7.69,4.35Z"/>
  </g>
</svg>