<?xml version="1.0" encoding="UTF-8"?>
<svg id="Layer_1" xmlns="http://www.w3.org/2000/svg" viewBox="0 0 1080 1080">
  <defs>
    <style>
      .cls-1 {
        fill: #1f3060;
      }

      .cls-2 {
        fill: #feffff;
      }
    </style>
  </defs>
  <path class="cls-1" d="M228.61,808.1c0-33.6.08-67.2-.09-100.8-.03-5.54.63-9.78,6.11-12.96,33.74-19.59,69.57-32.69,108.86-33.93,40.71-1.28,76.97,11.69,108.49,37.38,5.52,4.5,10.94,6.25,17.89,6.22,47.8-.2,95.6-.18,143.4-.04,15.99.05,27.83,8.06,32.48,21.25,4.46,12.62.46,26.85-10.03,35.68-6.71,5.65-14.52,7.4-23.18,7.37-53.69-.14-107.37-.07-161.06-.06-3.12,0-6.31-.36-9.34.18-8.37,1.48-14.31,6.09-14.18,15.1.13,8.81,5.74,13.8,14.22,15.19,3.38.56,6.91.17,10.38.18,53.34,0,106.68-.06,160.02.04,11.71.02,23.16-1.88,32.68-8.52,22.71-15.83,48.73-24.59,73.6-35.75,50.19-22.52,100.61-44.51,151-66.59,16.43-7.2,30.25-3.57,37.09,9.25,6.9,12.93,2.18,28.35-11.87,37.71-121.61,80.97-243.3,161.82-364.86,242.88-22.16,14.78-45.74,19.1-71.17,11.38-73.46-22.28-146.8-44.96-220.33-67-8.35-2.5-10.42-6.19-10.3-14.42.49-33.25.2-66.51.2-99.76Z"/>
  <path class="cls-1" d="M419.86,214.08c-.12-90.37,75.04-165.53,166.9-164.74,94.42.81,164.12,74.94,165.01,164.31.89,89.63-74.71,164.76-164.58,165-91.4.24-167.22-74.32-167.34-164.57Z"/>
  <path class="cls-1" d="M619.12,601.17c39.73,3.4,77.99,11.67,114.26,27.88,25.88,11.56,49.09,26.93,68.53,47.82,5.13,5.51,5.34,8.34-2.24,11.57-37.9,16.12-75.62,32.64-113.41,49.01-4.05,1.75-7.41,3.66-8.55-3.58-6.21-39.5-28.38-58.6-68.46-58.87-41.92-.28-83.84-.18-125.76.04-7.24.04-13.17-1.47-19.13-5.97-14.09-10.64-29.28-19.63-46.69-27.07,13.31-8.66,26.91-14.53,40.78-19.62,33.66-12.33,68.35-20.1,104.29-20.85,8.3-.17,10.93-2.79,10.43-10.91-.63-10.36-.41-20.79-.05-31.17.21-6.18-1.28-9.1-8.25-10.09-71.33-10.16-125.29-60.4-141.36-131.08-2.54-11.17-3.91-22.49-3.62-33.97.26-10.35,5.06-15.75,15.02-15.99,18.49-.43,36.42.74,52.32,12.63,9.08,6.79,19.62,12.28,30.67,14.99,20.03,4.9,34.05,17.51,46.57,32.68,2.17,2.63,4.41,5.22,7.4,8.77,2.12-7.99,1.18-15.14.92-22.13-.17-4.64.76-6.62,5.64-5.44,1.32.32,2.76.17,4.14.18,6.47.07,15.47-2.45,18.79.81,4.73,4.65,1.53,13.75,1.62,20.93.24,18.61.08,37.22.08,58.3,11.24-12.58,20.81-23.67,32.3-32.84,29.98-23.92,64.15-36.33,102.32-37.93,11.52-.48,19.03,7.19,18.43,19.91-2.83,59.64-29.75,105.58-79.72,138-15.53,10.07-32.48,16.95-50.65,20.74-2.25.47-4.82.6-6.63,3.25Z"/>
  <path class="cls-1" d="M127.09,809.44c0-51.22.22-102.44-.2-153.66-.07-8.85,2.61-11.24,11.11-10.84,14.16.66,28.37.06,42.56.24,11.92.15,17.03,5.18,17.04,17.15.08,98.29.08,196.58,0,294.87,0,12.37-6.1,18.23-18.61,18.36-13.84.14-27.7-.39-41.52.2-8.21.35-10.62-2.3-10.57-10.57.36-51.91.18-103.83.18-155.74Z"/>
  <path class="cls-2" d="M626.91,147.94c4.39,8.19,8.01,14.45,9.98,21.43,1.79,6.33,7.3,4.56,11.3,4.14,8.7-.92,12.18,2.25,10.85,10.93-.36,2.37-.3,4.87-.01,7.26.81,6.63-1.63,10.03-8.58,8.74-9.14-1.7-12.81,2.45-16.26,10.9-10.66,26.08-30.6,40.26-59.17,41.43-2.72.11-5.45.01-8.14.01-1.45,4.65,2.24,5.95,4.16,7.9,14.85,15.04,29.67,30.11,44.94,44.73,5.09,4.87,5.85,7.89.25,13.04-15.52,14.27-10.76,14.08-24.98.09-19.76-19.43-39.28-39.12-58.9-58.7-5.11-5.11-8.67-23.8-5.87-29.99,1.77-3.91,5.23-2.69,8.1-2.72,12.47-.14,24.95.2,37.42-.16,14.35-.42,26-6.31,34.23-18.42,3.88-5.7,3.55-8.31-4.38-8.19-21.82.32-43.66-.28-65.48.32-8.39.23-11.4-2.43-10.26-10.54.38-2.72.29-5.56.01-8.3-.67-6.55,2.47-8.31,8.56-8.24,22.17.24,44.35.12,66.52.06,2.31,0,5.4,1.08,6.75-1.17,1.68-2.79-.9-5.24-2.45-7.37-7.54-10.33-17.36-16.84-30.53-17.02-13.16-.18-26.34-.46-39.49,0-7.4.27-9.64-2.42-9.43-9.6.6-20.92-1.99-17.06,16.88-17.17,35.34-.22,70.68.23,106.02-.28,8.54-.12,10.48,2.69,10.18,10.57-.75,19.39,2.17,15.97-16.78,16.32-4.47.08-8.95.01-15.44.01Z"/>
</svg>