<?xml version="1.0" encoding="UTF-8"?>
<svg id="Layer_1" xmlns="http://www.w3.org/2000/svg" viewBox="0 0 1080 1080">
  <defs>
    <style>
      .cls-1 {
        fill: #042b62;
      }

      .cls-2 {
        fill: #fefefe;
      }
    </style>
  </defs>
  <path class="cls-1" d="M611.53,387.12c-.03,46.75-37.69,84.27-84.39,84.1-46.16-.17-83.53-37.68-83.6-83.9-.06-46.75,37.51-84.72,83.9-84.77,46.44-.04,84.13,37.85,84.09,84.57Z"/>
  <path class="cls-1" d="M833.53,346.94c-21.02-178.38-193.72-306.09-382.38-259.46-168.76,41.72-268.87,216.68-221.1,383.4,22.53,78.63,69.28,139.01,139.12,181.41,15.22,9.24,28.84,19.84,36.42,36.31,2.83,6.14,6.24,8.08,12.93,8.01,36.22-.36,72.44-.17,108.67-.17s73.12-.03,109.68.04c4.82.01,8.68.06,11.29-5.64,7.33-16.05,19.93-27.13,34.79-36.54,112.95-71.61,166.23-174.53,150.58-307.36ZM723.99,391.14c-1.57,12.65-12.75,23.08-26.11,23.75-10.36.52-23.04-3.16-30.46,1.61-6.72,4.31-7.95,17.46-11.18,26.85-2.67,7.75-11.78,14.63-9.23,22.05,2.47,7.15,10.92,12.32,16.96,18.12,7.94,7.63,12.95,16.44,10.96,27.74-3.78,21.53-29.38,30.69-46.1,16.41-6.61-5.65-12.67-11.99-18.58-18.39-3.52-3.82-6.48-4.83-11.12-1.75-11.56,7.68-24.4,12.65-37.86,15.76-4.63,1.08-5.98,3.24-5.9,7.55.16,8.39.22,16.78-.03,25.16-.48,16.1-12.81,28.08-28.31,27.8-15.09-.27-26.82-12.14-27.28-27.84-.29-9.71,2.65-20.89-1.24-28.75-4.05-8.2-17.38-6-25.73-10.76-2.91-1.65-6.07-2.84-9.05-4.38q-14.2-7.31-25.95,4.42c-3.56,3.56-7,7.26-10.76,10.59-11.32,10.02-27.9,9.86-38.38-.2-11.13-10.71-12.04-27.04-1.61-38.95,5.95-6.8,12.55-13.07,19.16-19.25,3.3-3.09,3.56-5.43,1.12-9.36-7.3-11.72-12.9-24.31-15.88-37.84-1.2-5.44-3.97-6.81-9.1-6.57-7.69.37-15.43.25-23.14.05-16.49-.42-28.14-12.03-28.19-27.87-.05-15.75,11.55-27.66,27.89-28.3,8.04-.31,16.12-.35,24.15.03,4.93.23,7.24-1.53,8.35-6.29,3.13-13.48,8.38-26.2,15.95-37.78,2.95-4.51,1.56-7.02-1.78-10.16-6.11-5.73-12.07-11.66-17.76-17.81-10.88-11.73-10.71-27.76.13-38.89,10.65-10.93,27.21-11.57,38.99-1.09,6.5,5.79,12.62,12.06,18.55,18.44,3.29,3.54,5.78,4.15,10.12,1.31,10.15-6.63,21.21-11.93,33.05-14.35,9.05-1.85,12.63-5.85,11.11-14.85-.44-2.61-.07-5.36-.07-8.04h.04c0-3.69-.1-7.38.01-11.07.51-16.07,12.74-28.38,28-28.25,15.21.12,27.23,12.5,27.63,28.66.19,7.72.27,15.44-.02,23.15-.19,5.09,1.17,7.79,6.69,9.07,13.46,3.11,26.21,8.38,37.83,15.9,3.94,2.55,6.29,2.14,9.34-1.13,5.71-6.12,11.63-12.09,17.79-17.78,12.1-11.18,28.81-11.09,39.8-.05,11.21,11.26,11.25,27.44-.17,39.69-6.62,7.11-16.93,12.85-19.51,21.11-2.64,8.42,8.13,16.5,10.7,25.78.71,2.57,2.03,4.97,2.92,7.49,5.93,16.83,5.91,16.75,24.38,16.88,6.33.04,12.7-.72,18.97,1.3,13.63,4.41,21.69,16.79,19.91,31.08Z"/>
  <path class="cls-1" d="M527.74,865.24c33.87,0,67.75.44,101.6-.27,9.91-.21,10.87,3.61,10.18,11.66-3.69,42.81-36.58,81.67-78.1,95.93-62.66,21.53-135.87-23.12-145.21-91.35-.32-2.32-.31-4.7-.71-7-1.21-6.99,1.45-9.2,8.62-9.12,34.54.34,69.08.15,103.62.15Z"/>
  <path class="cls-1" d="M527.52,752.73c36.51,0,73.02-.04,109.54.02,18.32.03,30.46,10.84,30.76,27.17.31,16.93-11.92,28.98-30.24,29.01-73.36.12-146.72.12-220.08,0-18.34-.03-30.52-12.03-30.22-29.02.29-16.39,12.33-27.14,30.71-27.17,36.51-.06,73.02-.02,109.54-.02Z"/>
  <path class="cls-1" d="M188.25,666.28c-11.15-.17-21.62-7.44-25.68-17.84-4.2-10.76-2.25-22.95,6.88-30.25,16.44-13.15,33.31-25.84,50.69-37.71,11.58-7.91,27.05-4.12,35.93,7.05,8.68,10.91,8.61,27.14-2.11,36.48-16.37,14.26-34.12,26.9-52.29,38.84-3.92,2.58-8.61,3.63-13.42,3.43Z"/>
  <path class="cls-1" d="M822.8,576.51c4.79.19,10.38,2.15,15.36,5.84,14.78,10.95,29.72,21.7,44.28,32.93,13.28,10.24,15.85,26.28,6.84,39.06-9.21,13.06-25.92,15.93-39.91,6.1-15.32-10.77-30.33-22-45.18-33.4-10.13-7.78-13.62-20.2-9.7-31.38,3.9-11.12,15.19-19.15,28.31-19.14Z"/>
  <path class="cls-1" d="M133.78,414.99c-9.36,0-18.73.2-28.08-.05-15.5-.4-27.62-12.3-27.97-27.14-.37-15.47,11.37-28.49,27.24-28.92,19.38-.52,38.79-.54,58.17.02,15.21.44,27.13,13.48,27.04,28.19-.09,15.37-12.28,27.49-28.31,27.87-9.36.22-18.72.04-28.08.04Z"/>
  <path class="cls-1" d="M921.08,414.99c-9.36,0-18.73.2-28.08-.04-15.96-.41-28.13-12.73-28.09-28.09.04-14.82,11.89-27.56,27.24-27.97,19.38-.52,38.79-.55,58.17.01,15.67.45,27.54,13.85,27.04,29.14-.48,14.83-12.62,26.55-28.19,26.92-9.36.22-18.72.04-28.08.04Z"/>
  <path class="cls-1" d="M233.48,197.31c-6.71.19-12.37-2.65-17.56-6.44-14.31-10.46-28.65-20.89-42.71-31.67-14.07-10.79-16.65-27.57-6.7-40.62,9.5-12.46,26.35-14.46,40.2-4.42,14.89,10.79,29.78,21.62,44.27,32.93,10.29,8.04,13.51,20.2,9.44,31.39-4.18,11.51-14.87,18.98-26.95,18.84Z"/>
  <path class="cls-1" d="M894.6,134.99c-.61,10.56-4.67,18.34-12.35,24.07-14.47,10.8-28.85,21.75-43.62,32.13-14.27,10.03-30.62,7.59-40.07-5.3-9.51-12.97-6.94-29.36,6.78-39.84,14.88-11.37,29.96-22.48,45.2-33.37,9.28-6.63,19.31-6.77,29.35-1.4,9.82,5.26,13.73,14.08,14.71,23.7Z"/>
  <path class="cls-2" d="M611.53,387.12c-.03,46.75-37.69,84.27-84.39,84.1-46.16-.17-83.53-37.68-83.6-83.9-.06-46.75,37.51-84.72,83.9-84.77,46.44-.04,84.13,37.85,84.09,84.57Z"/>
  <path class="cls-1" d="M611.53,387.12c-.03,46.75-37.69,84.27-84.39,84.1-46.16-.17-83.53-37.68-83.6-83.9-.06-46.75,37.51-84.72,83.9-84.77,46.44-.04,84.13,37.85,84.09,84.57Z"/>
</svg>