<?xml version="1.0" encoding="UTF-8"?>
<svg width="16px" height="15px" viewBox="0 0 16 15" version="1.1" xmlns="http://www.w3.org/2000/svg" xmlns:xlink="http://www.w3.org/1999/xlink">
    <!-- Generator: Sketch 58 (84663) - https://sketch.com -->
    <title>download-to-storage-drive copy</title>
    <desc>Created with Sketch.</desc>
    <g id="reports" stroke="none" stroke-width="1" fill="none" fill-rule="evenodd">
        <g id="2.1-" transform="translate(-102.000000, -144.000000)" fill="#005263" fill-rule="nonzero">
            <g id="download-to-storage-drive-copy" transform="translate(102.000000, 144.799999)">
                <path d="M15.066227,9.69702308 C14.8944961,9.52516314 14.6856063,9.43916865 14.4401382,9.43916865 L10.1669284,9.43916865 L8.91449263,10.6915722 C8.55838645,11.0353243 8.14092936,11.207281 7.66205685,11.207281 C7.18328111,11.207281 6.765695,11.0355501 6.40962107,10.6915722 L5.16637824,9.43916865 L0.884072317,9.43916865 C0.638539682,9.43916865 0.429811136,9.5252599 0.257854426,9.69702308 C0.0859299713,9.86888302 0,10.0776438 0,10.3233377 L0,13.270181 C0,13.5157781 0.0859299713,13.7245066 0.257854426,13.8963988 C0.42977888,14.0682588 0.638507426,14.1541242 0.884072317,14.1541242 L14.4401704,14.1541242 C14.6856385,14.1541242 14.8945284,14.0682588 15.0662593,13.8963988 C15.2382482,13.7245066 15.3241137,13.5157781 15.3241137,13.270181 L15.3241137,10.3233377 C15.3241137,10.0776438 15.2382482,9.86888302 15.066227,9.69702308 Z M11.6129647,12.8005014 C11.4961657,12.9171713 11.357981,12.9754579 11.1983461,12.9754579 C11.0387112,12.9754579 10.9007201,12.9171713 10.7839533,12.8005014 C10.6673802,12.6838315 10.6090936,12.5457436 10.6090936,12.3862054 C10.6090936,12.2266027 10.6673802,12.088289 10.7839533,11.9718126 C10.9007201,11.8550459 11.0387112,11.7966303 11.1983461,11.7966303 C11.357981,11.7966303 11.4961335,11.8550459 11.6129647,11.9718126 C11.7295056,12.0882568 11.7878244,12.2265705 11.7878244,12.3862054 C11.7878244,12.5457113 11.7295056,12.6838315 11.6129647,12.8005014 Z M13.9703618,12.8005014 C13.8537887,12.9171713 13.715604,12.9754579 13.5559368,12.9754579 C13.3963341,12.9754579 13.2582462,12.9171713 13.141544,12.8005014 C13.0250031,12.6838315 12.9667165,12.5457436 12.9667165,12.3862054 C12.9667165,12.2266027 13.0250031,12.088289 13.141544,11.9718126 C13.258214,11.8550459 13.3963019,11.7966303 13.5559368,11.7966303 C13.7155717,11.7966303 13.8537564,11.8550459 13.9703618,11.9718126 C14.0870318,12.0882568 14.1454151,12.2265705 14.1454151,12.3862054 C14.1454151,12.5457113 14.0871285,12.6838315 13.9703618,12.8005014 Z" id="Shape"></path>
                <path d="M7.24766408,9.85352917 C7.35823763,9.97007008 7.4963578,10.0283889 7.66205685,10.0283889 C7.82788492,10.0283889 7.96584381,9.97007008 8.07644962,9.85352917 L12.2022172,5.72772933 C12.3924953,5.54970849 12.4355571,5.3347868 12.3311444,5.08306101 C12.2269576,4.84368927 12.0457756,4.72398727 11.7878244,4.72385825 L9.43020149,4.72385825 L9.43020149,0.59812292 C9.43020149,0.438520255 9.37178588,0.300367828 9.25534174,0.183730149 C9.13857503,0.0670602141 9.00048712,0.00870911871 8.84094897,0.00870911871 L6.48316474,0.00870911871 C6.32362659,0.00870911871 6.18547416,0.0670602141 6.06877197,0.183730149 C5.95216654,0.300367828 5.89381545,0.438487999 5.89381545,0.59812292 L5.89381545,4.7238905 L3.53625701,4.7238905 C3.27827356,4.7238905 3.09725292,4.84372152 2.99287252,5.08309326 C2.88855663,5.33472228 2.93148936,5.54974075 3.12186424,5.72776159 L7.24766408,9.85352917 Z" id="Path"></path>
            </g>
        </g>
    </g>
</svg>