<?xml version="1.0" encoding="UTF-8"?>
<svg width="17px" height="16px" viewBox="0 0 17 16" version="1.1" xmlns="http://www.w3.org/2000/svg" xmlns:xlink="http://www.w3.org/1999/xlink">
    <!-- Generator: Sketch 58 (84663) - https://sketch.com -->
    <title>print</title>
    <desc>Created with Sketch.</desc>
    <g id="reports" stroke="none" stroke-width="1" fill="none" fill-rule="evenodd">
        <g id="2.1-" transform="translate(-155.000000, -144.000000)" fill="#005263" fill-rule="nonzero">
            <g id="print" transform="translate(155.000000, 144.000000)">
                <path d="M10.6430592,12.3164357 L5.8720104,12.3164357 C5.56799764,12.3164357 5.32149733,12.5629037 5.32149733,12.8669488 C5.32149733,13.1709938 5.56796538,13.4174618 5.8720104,13.4174618 L10.6430269,13.4174618 C10.9470397,13.4174618 11.19354,13.1709938 11.19354,12.8669488 C11.19354,12.5629037 10.9470719,12.3164357 10.6430592,12.3164357 Z" id="Path"></path>
                <path d="M10.6430592,10.58016 L5.8720104,10.58016 C5.56799764,10.58016 5.32149733,10.826628 5.32149733,11.130673 C5.32149733,11.4347181 5.56796538,11.6811861 5.8720104,11.6811861 L10.6430269,11.6811861 C10.9470397,11.6811861 11.19354,11.4347181 11.19354,11.130673 C11.19354,10.826628 10.9470719,10.58016 10.6430592,10.58016 Z" id="Path"></path>
                <path d="M15.2305713,3.73869564 L13.478974,3.73869564 L13.478974,0.55260971 C13.478974,0.248596955 13.2325059,0.00209663969 12.9284609,0.00209663969 L3.58660862,0.00209663969 C3.28259587,0.00209663969 3.03609555,0.248564699 3.03609555,0.55260971 L3.03609555,3.73869564 L1.28449824,3.73869564 C0.576221099,3.73869564 0,4.31494899 0,5.02322614 L0,10.561645 C0,11.2699222 0.576221099,11.8461433 1.28449824,11.8461433 L3.03619232,11.8461433 L3.03619232,14.801244 C3.03619232,15.1052568 3.28266038,15.3517571 3.58670539,15.3517571 L12.9283642,15.3517571 C13.2323769,15.3517571 13.4788772,15.105289 13.4788772,14.801244 L13.4788772,11.8461433 L15.2305713,11.8461433 C15.9388485,11.8461433 16.5150696,11.2699222 16.5150696,10.561645 L16.5150696,5.02322614 C16.5150696,4.31498125 15.9388485,3.73869564 15.2305713,3.73869564 Z M4.13708944,1.10312278 L12.3779479,1.10312278 L12.3779479,3.73869564 L4.13708944,3.73869564 L4.13708944,1.10312278 Z M12.3778834,14.2507309 L4.13721846,14.2507309 C4.13721846,14.1431572 4.13721846,9.87994683 4.13721846,9.74689085 L12.3778834,9.74689085 C12.3778834,9.88330145 12.3778834,14.147286 12.3778834,14.2507309 Z M12.9284609,6.9712302 L11.5271637,6.9712302 C11.223151,6.9712302 10.9766507,6.72476214 10.9766507,6.42071713 C10.9766507,6.11667212 11.2231187,5.87020406 11.5271637,5.87020406 L12.9284609,5.87020406 C13.2324737,5.87020406 13.478974,6.11667212 13.478974,6.42071713 C13.478974,6.72476214 13.2325059,6.9712302 12.9284609,6.9712302 Z" id="Shape"></path>
            </g>
        </g>
    </g>
</svg>