<?xml version="1.0" encoding="UTF-8"?>
<svg id="Layer_1" xmlns="http://www.w3.org/2000/svg" viewBox="0 0 1080 1080">
  <defs>
    <style>
      .cls-1 {
        fill: #b0b9d1;
      }

      .cls-2 {
        fill: #203161;
      }

      .cls-3 {
        fill: #5d5e6f;
      }

      .cls-4 {
        fill: #e6af78;
      }

      .cls-5 {
        fill: #efbf86;
      }

      .cls-6 {
        fill: #e4ae77;
      }

      .cls-7 {
        fill: #d29c6e;
      }

      .cls-8 {
        fill: #fff;
      }

      .cls-9 {
        fill: #d5dcea;
      }

      .cls-10 {
        fill: #d5dceb;
      }

      .cls-11 {
        fill: #ed537e;
      }

      .cls-12 {
        fill: #5c4348;
      }

      .cls-13 {
        fill: #c8d0e1;
      }

      .cls-14 {
        fill: #ec537e;
      }

      .cls-15 {
        fill: #959cb5;
      }

      .cls-16 {
        fill: #d33e6a;
      }

      .cls-17 {
        fill: #717588;
      }

      .cls-18 {
        fill: #e6b078;
      }

      .cls-19 {
        fill: #6a4c4c;
      }

      .cls-20 {
        fill: #d29b6e;
      }
    </style>
  </defs>
  <path class="cls-2" d="M54.52,522.61c.59-269.5,217.32-487.18,490.1-485.05,264.92,2.07,485.01,216.3,480.88,492.98-3.89,261.27-212.87,478.81-487.84,477.66-271.72-1.14-482.12-218.89-483.14-485.59Z"/>
  <path class="cls-8" d="M539.61,968.47c-245.7-.04-444.85-199.81-444.79-446.15.06-246.01,200.04-444.74,447.37-444.58,244.99.16,443.46,200.6,443.27,447.67-.19,244.09-200.45,443.1-445.86,443.06Z"/>
  <path class="cls-5" d="M656.35,402.85c-2.37,16.22.03,32.8-4.08,48.92-5.89,23.13-17.57,42.64-35.61,58.21-4.44,3.84-6.26,7.95-6.14,13.86.27,13.07-.22,26.16-.39,39.25-7.47-5.05-3.23-12.7-4.27-19.17-.3-6.67.46-13.38-.42-21.34-24.58,14.05-50.1,21.45-78.07,15.75-19.96-17.92-30.7-40.86-32.05-67.06-1.56-30.41-.55-60.96-.29-91.45.13-15.1,7.5-23.89,22.55-26.03,38.17-5.42,75.42-2.24,111.03,13.58,7.92,10.35,14.14,22.03,23.78,31.12,1.41,1.33,2.15,3.34,3.96,4.36Z"/>
  <path class="cls-19" d="M656.35,402.85c-1.31.07-2.03,3.16-2.94,1.66-7.2-11.8-20.97-19.26-22.91-34.52-2.9-11.53-11.61-17.4-21.55-22.01-19.33-8.97-39.6-13.96-60.88-15.88-13.7-1.24-27.33-1.99-41.05-1.48-15.92-8.77-29.95-19.11-33.67-38.64-3.52-18.52,2.09-33.61,16.15-45.88,2.71-2.37,6.54-3.56,7.91-7.37,4.04-2.28,8.51-1.53,12.79-1.55,43.61-.12,87.23-.18,130.84-.13,16.52.02,25.69,9.05,25.74,25.34.11,30.87.04,61.74,0,92.6-.02,16.69-5.94,32.12-10.44,47.85Z"/>
  <path class="cls-11" d="M363.04,626.25c13.63-10.96,30.67-14.19,46.37-20.47,14.49-5.8,29.82-9.41,43.71-16.78,11.35,13.2,21.71,27.18,32.24,41.03,9.25,12.17,14.86,12.41,26.19,2.03,3.1-2.84,5.31-8.43,11.39-5.64,1.81,6.04,4.06,11.9,7.18,17.42,2.36,9.36-.27,18.54-1.11,27.75-1.69,18.52-2.94,37.09-5.39,55.54-.51,3.88-.47,8.07-3.7,11.1-44.95.06-89.9.11-134.84.17.83-4.76,4.84-3.82,7.87-4.13,4.64-.47,9.34-.2,14.01-.19,4.87.01,7.55-2.04,7.55-7.11,0-10.68.69-21.39-.36-32.02-.85-8.58-4.86-15.82-11-21.94-10.64-10.6-21.28-21.2-31.84-31.89-3.5-3.54-7.39-6.83-8.95-11.86-.26-1.11-.02-2.1.69-2.98Z"/>
  <path class="cls-14" d="M687.18,738.37c-40.93-.05-81.86-.11-122.79-.16-6.06-9.98-4.55-21.38-5.79-32.2-1.92-16.63-3.33-33.32-5.17-49.97-.44-3.98-.26-8.04.7-11.99,2.88-5.58,5.6-11.25,7.09-17.41,4.86-3.08,7.17,1.28,9.85,3.67,14.39,12.84,17.91,12.31,30.08-2.98,10.11-12.71,18.84-26.5,30.07-38.33,20.11,9.32,41.21,15.93,62.19,22.87,8.78.53,16.71,3.58,23.88,8.49,3.47,2.37,7.5,4.71,6.48,10.11-13.53,13.38-26.77,27.07-40.5,40.25-9.31,8.94-13.47,19.64-13.54,32.26-.02,4.68-.01,9.36-.01,14.03q0,14.2,13.55,17.67c1.92.49,3.98,1.02,3.92,3.69Z"/>
  <path class="cls-9" d="M723.55,629.84c-7.35-10.53-19.5-13-30.15-17.96,12.81-.74,24.42-6.49,36.84-8.92,3.22-.63,5.36-3.91,7.07-6.83,1.91-3.27,3.92-6.29,8.19-6.56,4.82-1.52,6.51,2.93,9.49,4.95,6,6.72,13.1,12.22,19.87,18.1,3.81,3.31,6.91,3.5,10.21-.25,5.75-6.53,13.17-11.17,19.31-17.24,2.39-2.12,4.45-4.62,7.33-6.16.92-.27,1.77-.11,2.53.48,1.26.41,3.19.43,3.67,1.28,9.68,16.88,28.06,15.85,43.32,21.01,9.94,3.36,19.75,6.42,25.42,16.25-1.95,6.47-7.38,10.2-11.79,14.65-27.12,27.32-23.36,20.56-23.64,57.56-.07,9.02.04,18.04-.04,27.05-.03,3.98.29,8.09-2.68,11.4-19.53,0-39.06,0-58.58,0-1.63-1.81-2.56-3.99-2.61-6.37-.7-28.05-2.56-56.05-3.66-84.08-.05-1.33.45-2.63.87-3.87.77-2.17,2.08-4.16,2.5-6.49.83-4.61.13-8.69-4.29-11.27-3.06-1.79-5.76-.78-8.19,1.42-3.65,3.33-4.73,7.13-2.13,11.61.84,1.44,1.67,2.89,2.2,4.51,1.72,27.51-2.07,54.85-2.43,82.29-.06,4.26-1.01,8.7-4.14,12.15-13.66-.06-27.32-.12-40.98-.17,6.28-11.29,5.93-23.61,5.72-35.96-.19-11.35-.37-22.71.04-34.04.5-13.78-5.65-25.8-9.26-38.51Z"/>
  <path class="cls-10" d="M363.04,626.25c-.05.58-.18,1.14-.42,1.67-16.43,28.98-9.62,60.74-11.11,91.53-.35,7.22,5.31,12.22,5.67,18.98-40.45.07-80.89.14-121.34.21-3.22-3.64-2.68-8.14-2.71-12.45-.08-12.74-.47-25.5.1-38.21.48-10.82-3.65-18.7-12.17-24.9-5.41-3.94-10.64-8.18-15.67-12.6-2.61-2.29-6.47-4.02-5.84-8.62,1.44-6.71,7.62-8.78,12.44-11.55,8.22-4.75,17.11-8.35,25.71-12.43,10.06,10.29,19.94,20.61,34.36,25.18,27.09,8.59,55.2.46,73.18-21.74,1.07-1.32,2.31-2.41,3.64-3.43,4.63,2.93,10.44,3.87,14.15,8.35Z"/>
  <path class="cls-18" d="M505.85,329.36c9.42-3.45,19.36-2.61,28.78-1.55,16.28,1.82,32.77,2.22,48.71,7.53,13.52,4.5,26.58,9.52,38.84,16.79,7.08,4.2,10.85,9.44,8.32,17.87-16.06-4.24-31.29-11.21-48.05-13.3-23.28-2.91-46.43-3.92-69.5,1.08-9.27,2.01-14.83,8.46-14.94,17.65-.4,33.53-1.6,67.15.4,100.56,1.27,21.21,11.63,40.24,25.93,56.51,1.32,1.5,2.51,3.11,3.77,4.66-3.8,3.68-8.09,2.09-12.28,1.08-12.74-3.08-24.72-8.11-36.03-15.07-3.23,15.37-1.56,18.67,12.13,24.05,35.43,13.93,70.55,13.08,105.39-2.21,3.52-1.54,6.94-4.53,11.21-1.82.92,6.6-1.53,13.48,1.62,19.89,0,0,.08.82.08.82.49,3.17-2.23,3.87-4.09,4.97-18.51,10.91-36.9,22.03-55.12,33.42-5.24,3.27-10.18,4.46-15.95,1.03-19.63-11.66-38.8-24.07-58.57-35.5-1.43-.83-2.85-1.84-2.37-3.91-.11-11.37-.83-22.77-.14-34.08.57-9.32-1.38-16.91-8.99-22.64,2.68-3.34,6.48-4.62,10.43-5.43,3.51-.72,8.15,2.12,10.5-1.2,2.82-3.99.56-9.76,3.18-14.31.97-1.68-.42-3.2-2.2-3.8-3.26-1.1-4.21-3.28-2.66-6.21,3.25-6.12.23-10.3-4.23-13.86-5.34-4.26-7.78-10.88-12.95-15.26-1.53-1.3-2.46-3.26-1.05-5.36,1.28-1.91,3.12-2.09,5.28-1.89,3.46.32,7.09,3.15,10.38-.39,3.92-4.23,6.57-8.8,7.38-14.92,1.59-12.06-2.46-24.03.95-37.44-5.24,2.44-9.36,1.92-13.96-2.92,1.13,9.99,2.22,17.42,8.99,23.25,5.13,4.42,6.22,10.29,1.25,15.94-2.15,2.45-2.63,5.29-2.99,8.32-.45,3.78-2.94,6.17-6.38,6.97-6.09,1.43-12.56,1.05-18.23,4.56-1.76,1.09-3.85-.32-5.43-1.71-1.26-1.11-2.24-2.49-3.41-3.68-2.82-2.88-5.7-6.1-10.1-5.66-2.24.22-2.61,3.01-2.48,4.93.35,5.44,5.35,3.94,8.43,5.2,5.98,2.44,9.72,10.59,5.42,14.37-5.67,4.99-5.06,10.25-4.31,16.35.32,2.59,1.28,6.49-3.84,5.99-14.07-22.62-15-47.65-13.43-73.14,1-6.18,4.15-11.11,8.83-15.13,6.02-5.17,10-11.56,11.72-19.33,1.7-10-.21-20.11,1.13-30.12.55-2.35,1.58-4.76,3.77-5.59,16.43-6.21,33.05-11.26,50.89-6.37Z"/>
  <path class="cls-19" d="M274.03,412.19c42-14.34,90,15.18,98.95,61.54,4.62,23.93,5.63,48.5,12.02,72.16,2.7,10,5.26,20.07,8.51,29.89,2.92,8.83-.14,14.29-8.19,17.63-16.41,6.82-33.24,12.25-50.89,14.85-5.43-.1-7.12-4.13-8.5-8.3-2.44-7.38-2.57-14.96-1.72-22.6.72-4.71,4.44-7.11,7.63-10,8.6-7.81,17.35-15.53,21.46-26.93,8.52-18.96,6.76-24.43-9.92-36.07-20.59-14.39-43.44-23.48-67.38-30.3-22.61-18.17-23.34-41.44-1.97-61.86Z"/>
  <path class="cls-6" d="M326.36,575.45c1.27,7.4-.5,14.98,1.63,22.39,1.21,4.2,2.3,8.17,6.44,10.42,2.91,6.07,9.3,6.92,14.45,9.63-5.19,14.67-17.73,21.39-30.75,26.32-26.69,10.12-51.08,4.91-72.3-14.18-3.62-3.25-7.56-6.68-8.14-12.15,5.71-2.6,11.88-4.46,15.91-9.79-.59-6.18,2.61-11.61,3.44-17.54,1.27-8.98-.33-15.91-8.47-21.73-13.65-9.76-20.92-24.03-24.52-40.25-1.92-8.64.8-15.5,8.6-19.46,13.88-7.05,24.47-17.21,32.32-30.63,2.2-3.77,5.07-8.41,11.13-5.95,29.15,5.61,54.78,18.81,77.98,36.89,9.37,7.3,9.33,16.3,1.06,32.34-12.57-7-22.02-18.23-34.7-25.23-8.81-4.86-17.58-9.61-26.99-13.16-2.82-1.06-6.22-2.92-8.62-.88-8.03,6.85-18.59,13.2-21.06,23.16-3.62,14.6-1.9,29.63,8.19,42.83,10.69,13.98,24.27,11.16,38.23,8.74,5.34-.93,10.29-5.63,16.16-1.77Z"/>
  <path class="cls-5" d="M814.23,589.44c-.57.16-1.14.29-1.71.4-4.41-4.57-3.33-9.58-1.39-14.43-.32.33-.68,1.12-1.29,1.61-12.03,9.7-41.08,10.67-53.51,1.83-17.11-23.75-14.57-50.92-12.53-77.62.96-12.52,12.32-21.59,25.78-20.72,25.71,1.67,51.57,3.54,75.75,13.96.97.67,1.83,1.45,2.61,2.34.17,22.62-.93,44.89-17.66,62.75-1.59,1.7-2.88,3.99-4.84,4.99-10.5,5.36-13.08,14.07-11.22,24.89Z"/>
  <path class="cls-19" d="M847.94,496.8c-.31-.21-.65-.28-1.02-.22-24.65-29.56-58.58-32.93-93.61-33.18-3-.02-5.98.63-8.99.44-19.92-7.1-25.7-17.06-21.8-37.64.5-2.65.85-5.29.81-7.98,5.48-2.26,10.86-4.5,15.68-8.27,5.7-4.46,12.79-5.6,19.95-5.61,24.79-.03,49.58-.14,74.36.03,16.67.11,24.59,8.9,25.5,25.53,1.28,23.2-3.46,45.23-10.88,66.91Z"/>
  <path class="cls-16" d="M474.11,563.9c20.32,12.15,40.78,24.07,60.87,36.59,5.34,3.33,9.02,3.32,14.37,0,20.09-12.52,40.55-24.44,60.87-36.58,10.39-.2,13.43,7.69,16.77,15.24,1.44,3.27,2.82,6.57,4.23,9.85-6.16,14.74-18.3,25.27-26.97,38.23-1.48,2.21-3.09,4.35-4.71,6.47-8.19,10.75-16.26,11.42-26.1,2.25-3.66-3.41-7.4-6.73-11.1-10.09-6.71-2.26-10.2-8.37-15.04-12.82-3.73-3.43-6.55-3.41-10.27.01-4.84,4.45-8.32,10.56-15.04,12.82-4.63,4.28-9.2,8.62-13.89,12.82-5.44,4.87-12.85,5.9-17.07.92-13.65-16.05-28.33-31.47-37.9-50.61,2.54-5.63,5.09-11.26,7.63-16.89,2.6-5.78,7.37-7.99,13.37-8.2Z"/>
  <path class="cls-12" d="M276.11,472.53c-5.48.55-7.8,4.92-10.02,8.91-7.1,12.76-17.45,22.11-30.2,28.72-8.91,4.62-11.48,10.6-8.78,20.54,3.83,14.12,10.6,26.01,21.68,35.4,12.81,10.86,14.8,27.28,4.83,41.99-17.24-3.05-33.82-8.24-49.95-14.97-7.83-3.27-10.69-8.96-7.91-16.96,11.11-31.9,14.93-65.19,19.97-98.35,4.81-31.64,23.62-53.27,53.35-65.22,1.47-.59,3.3-.29,4.96-.41,2.37,2.47-.3,3.66-1.53,4.65-15.15,12.17-15.08,40.15.54,51.82,1.28.95,2.06,2.56,3.08,3.87Z"/>
  <path class="cls-12" d="M451.83,373.87c-1.74,7.73-5.9,13.94-12.06,18.78-4.56,3.58-6.95,8.74-10.24,13.24-13.01-33.43-16.3-67.93-8.18-102.74,8.24-35.33,42.64-63.41,76.07-64.42,5.72,1.43,2.41,2.86.06,4.48-12,8.25-20.39,18.41-22.32,33.82-2.28,18.11,8.62,37.15,19.62,43.05,4.28,2.3,9.3,3.92,11.09,9.28-15.35.86-30.65,2.12-45.55,6.2-3.12.85-6.68,1.28-6.98,5.67-2.26,10.8.41,21.82-1.5,32.64Z"/>
  <path class="cls-16" d="M723.55,629.84c9.04,8.88,11.06,20.38,11.27,32.2.36,20.06.02,40.13.15,60.19.05,6.83-1.83,12.45-7.92,16.13-13.29,0-26.58.01-39.88.02-1.57-1.59-3.6-1.5-5.61-1.59q-14.47-.65-14.47-15.58c0-6.7-.17-13.41.04-20.11.37-11.73,3.74-22.12,12.61-30.57,11.89-11.32,23.26-23.18,34.93-34.73,2.55-2.52,4.58-5.98,8.88-5.95Z"/>
  <path class="cls-16" d="M357.18,738.43c-4.52-3.27-7.82-7.35-7.71-13.21.45-24.32-1.42-48.68,1.06-72.96.98-9.56,4.69-17.91,12.09-24.35,13.79,14.05,27.41,28.28,41.44,42.09,9.13,8.98,13.59,19.46,13.22,32.24-.26,9.02-.28,18.06.03,27.08.2,5.67-2,7.45-7.58,7.61-8.22.24-16.62-1.91-24.66,1.44-9.3.02-18.59.04-27.89.06Z"/>
  <path class="cls-18" d="M743.63,462.55c16.62-5.45,33.14-1.24,49.42,1.37,13.78,2.21,27.28,6.57,39.04,14.7,6.59,4.55,13.33,9.14,14.84,17.97-23.21-7.4-47.26-10.21-71.25-13.58-17.23-2.43-30.18,7.55-29.88,24.89.31,17.24-2.2,34.63,3.67,51.67,2.2,6.39,6.89,11.4,8.29,17.99-4.66,3.55-8.39,1.72-11.8-2.01-1.31-3.43-4.66-4.65-7.26-6.67-17.75-13.85-26.81-32.02-27.04-54.56-.05-5.01.37-10.06-1.69-14.83,5.99-17.09,18.29-28.42,33.68-36.93Z"/>
  <path class="cls-13" d="M848.49,738.63c-.02-20.47.15-40.94-.14-61.4-.1-7.18,1.95-13.49,6.68-18.38,10.24-10.58,21.04-20.62,31.61-30.88,4.57,5.71,6.25,12.22,6.2,19.51-.17,25.07-.04,50.14-.07,75.2-.01,12.16-3.76,15.9-16.2,16.02-9.36.09-18.71-.04-28.07-.07Z"/>
  <path class="cls-13" d="M199.55,641.87c9.92,8.27,19.88,16.49,29.74,24.82,4.89,4.13,6.76,9.46,6.68,15.95-.25,18.67-.11,37.34-.13,56.01-10.39.03-20.77.07-31.16.08-8.56,0-13.11-4.17-13.12-12.85-.03-21.78-.22-43.56.11-65.34.11-7,1.63-13.98,7.87-18.66Z"/>
  <path class="cls-17" d="M556.09,642.06c.79,27.52,5.15,54.73,7.15,82.14.34,4.68.76,9.35,1.14,14.02-14.82,0-29.65,0-44.47,0,2.66-28.02,5.35-56.05,7.94-84.08.37-4,.26-8.05.37-12.07,9.29-4.79,18.58-4.79,27.87,0Z"/>
  <path class="cls-18" d="M442.95,479.04c4.2-2.69.55-5.98.82-8.95.45-4.93-4.05-11.88,5.07-13.89,2.89-.63,1.7-3.08,1.11-4.95-.83-2.68-.11-6.17-4.53-6.73-4.26-.54-8.43-1.73-13.87-2.89,4.33-4.34,3.3-9.56,4.88-14.89,4.22,1.99,9.96,2.79,11.49,5.76,6.93,13.47,17.29,3.98,26,4.79.92.09,1.89-.62,2.87-.87,2.48-.64,5.36-2.46,4.44-4.56-3.75-8.46,15.4-16.46.3-24.8-8.89-4.91-5.06-15.18-9.11-22.19-.9-1.55.52-3.26,2.2-3.94,1.81-.74,3.5.18,4.36,1.6,4.82,7.98,7.9,4.81,10.8-4.11,4.04,11.93.7,21.81,1.54,31.4.47,5.32-.45,11.51.08,16.74.9,8.87-7.23,11.39-9.65,17.77-1.28,3.39-6.2-1.52-9.49-2.56-2.1-.66-4.01-1.34-5.18.95-1.06,2.09,1.09,2.73,2.31,3.75,7.05,5.91,11.58,14.07,18.54,20.22,4.75,4.19-1.29,8.32-2.8,12.55,6.7.53,12.23,1.77,5.66,9.97-1.68,2.1-2.77,4.59-1.15,7.44,3.66,6.46-1.52,8.78-5.53,7.93-7.02-1.48-12.74,2.17-19.14,2.61-9.36-7.81-17.07-16.9-22.04-28.14Z"/>
  <path class="cls-12" d="M743.63,462.55c-12.39,11.25-25.44,21.89-33.68,36.92-5.95-17.07-10.48-34.35-8.98-52.73,1.16-14.09,8.61-23.81,22.35-28.53,2.03.44,4.45,1.01,3.27,3.73-8.49,19.54-.11,31.89,17.04,40.6Z"/>
  <path class="cls-1" d="M788.01,642.02c-4.2,6.47,0,13-.2,19.47-.76,25.77,3.64,51.37,2.1,77.14-7.29-.04-14.59-.07-21.88-.11,1.5-30.54,3.02-61.08,4.47-91.62.07-1.57-.48-3.17-.74-4.76,5.39-4.16,10.8-4.07,16.25-.13Z"/>
  <path class="cls-20" d="M745.95,575.53c3.93.72,7.64,2.68,11.8,2.01,18.2,7.98,35.92,4.62,54.07-2.52.24,5.08.47,9.94.7,14.81-2.14,1.95-4.28,3.89-6.42,5.84-17.54,7.85-35.1,7.33-52.68.16-2.64-2.09-5.28-4.18-7.92-6.27.15-4.68.3-9.35.45-14.03Z"/>
  <path class="cls-7" d="M608.51,543.19c-14.73,6.25-29.31,12.73-45.44,14.98-28.24,3.95-55.2.15-80.95-12.01-3.97-1.87-7.06-4.69-6.56-10.13.51-5.63.11-11.34.11-18.07,17.01,9.36,33.22,18.54,52.42,19.18,28.38,2.2,55.09-2.76,80.41-20.06v26.1Z"/>
  <path class="cls-3" d="M556.09,642.06c-9.29,0-18.58,0-27.87,0-7.61-3.27-5.46-10.29-6.24-16.19,17.94-23.19,22.45-23.19,40.34,0-.76,5.91,1.36,12.92-6.23,16.2Z"/>
  <path class="cls-4" d="M753.42,595.83c17.57,2.38,35.13,2.92,52.68-.16-7.51,7.14-15.09,14.22-22.5,21.45-2.67,2.61-4.78,2.89-7.6.13-7.41-7.26-15.04-14.3-22.58-21.42Z"/>
  <path class="cls-15" d="M788.01,642.02c-5.42.04-10.83.08-16.25.13-6.04-5.09-4.94-10.26-.05-15.32,3.59-3.72,7.07-6.83,12.82-2.82,7.32,5.11,7.35,11.04,3.48,18.02Z"/>
  <path class="cls-18" d="M462.41,346.16c4.95-4.62,9.69-7.44,13.63-.08,1.55,2.91.88,8.31,6.35,7.45,4.8-.75,6.6-5.84,6.53-9.11-.16-7.79,5.62-8.53,10.27-11.11,2.06-1.14,3.85-1.5,5.26.45,1.66,2.3-.34,3.36-1.89,4.73-5.02,4.42-9.32,9.14-3.67,16.06.19.23.35.67.27.92-.29.92-.79,2.61-1.05,2.58-10.51-1.24-4.91,14.34-15.29,14.19-7.57-.11-15.45,1.32-15.59,12.46-.06,4.46-6.15,6.09-9.1,5.6-4.39-.73-.19-4.96-.75-7.52-1.62-7.44,4.44-13.07,4.48-20.13.01-2.5,1.7-4.55,4.62-4.04,3.1.55,8.17,2.66,7.34-2.17-.62-3.64-1.88-10.38-8.8-10.3-.87.01-1.73,0-2.6,0Z"/>
  <path class="cls-18" d="M545.72,345.82c-.29-3.14,5.66.23,4.02-3.48-1.94-4.39-7.52-3.05-11.03-5.6-1.8-1.3-2.97,2.31-2.36,4.09,2.97,8.68-3.1,8.48-8.51,8.93-2.33.2-4.71-.06-7,.27-4.11.6-9.06,4.28-12.01-.18-3.18-4.79,1.49-10.19,1.52-15.5,0-1.89,1.93-2.64,3.71-2.51,3.47.26,6.81,1.16,7.75,5.05,1.68,6.87,4.36,5.56,7.81,1.29,6.14-7.61,17.37-7.96,22.85-.23,5.41,7.63,12.12,1.68,18.2,2.2-2.28,12.28-11.79,10.35-24.97,5.65Z"/>
  <path class="cls-18" d="M494.5,498.39c2.6,1.82,4.06,2.38,4.05,2.91-.23,10.28,9.16,14.89,13.24,22.6.9,1.7,1.4,3.1-.42,4.17-.65.38-2.4.21-2.62-.22-3.44-6.78-11.85-8.64-15.11-15.84-2.36-5.21,1.17-8.25.87-13.61Z"/>
  <path class="cls-18" d="M444.44,408.32c2.34,4.09,9.6-1.27,9.92,5.19.19,3.76-1.11,9.18-7.2,8.64-4.75-.42-9.89-2.38-10.67-7.23-.58-3.62,4.33-4.86,7.95-6.61Z"/>
  <path class="cls-18" d="M596.43,348.02c-1.06,4.56-4.2,4.08-6.62,3.58-4.51-.93-8.08-3.66-8.53-8.49-.17-1.89,2.25-3.56,4.5-2.52,4.08,1.89,9,2.89,10.65,7.44Z"/>
  <path class="cls-18" d="M619.61,358.7c-.83.55-1.12.91-1.36.87-4.41-.57-7.64-3.22-10.27-6.48-.71-.88.82-2.76,2.07-2.6,4.97.65,6.94,4.72,9.56,8.2Z"/>
  <path class="cls-18" d="M451.83,373.87c.4-10.88-2.05-21.9,1.5-32.64-.5,10.88,1.96,21.89-1.5,32.64Z"/>
  <path class="cls-5" d="M326.36,575.45c-10.57,1.15-19.99,6.98-31.21,6.31-14.96-.89-28.09-9.7-32.68-24.09-3.42-10.74-2.47-21.84-2.31-32.84.06-4.16,3.43-6.32,6.19-8.7,2.01-1.73,4.56-2.95,6.26-4.91,12.42-14.29,12.59-14.82,29.12-7.35,20.18,9.11,38.81,20.73,53.4,37.89-4.81,15.32-17.66,23.77-28.78,33.69Z"/>
</svg>