<?xml version="1.0" encoding="UTF-8"?>
<svg id="Layer_1" xmlns="http://www.w3.org/2000/svg" viewBox="0 0 1080 1080">
  <defs>
    <style>
      .cls-1 {
        fill: #ab2023;
      }

      .cls-2 {
        fill: #203161;
      }

      .cls-3 {
        fill: #dda879;
      }

      .cls-4 {
        fill: #452b1b;
      }

      .cls-5 {
        fill: #4a2f1e;
      }

      .cls-6 {
        fill: #f5bb8d;
      }

      .cls-7 {
        fill: #472c1c;
      }

      .cls-8 {
        fill: #492d1c;
      }

      .cls-9 {
        fill: #55bbad;
      }
    </style>
  </defs>
  <path class="cls-2" d="M231.45,921.49c-45.73-36.33-82.42-80.5-111.94-130.62-38.51-65.39-61.12-135.96-66.34-211.84-9.93-144.65,33.88-270.75,132.44-377.01,78.66-84.8,176.31-135.71,290.65-151.14,144.1-19.45,273.78,17.11,386.08,110.2,89.61,74.29,146.49,169.48,168.03,283.65,28.32,150.12-5.8,286.23-100.56,406.48-23.42,29.72-49.98,56.51-80.84,78.74-5.84-1.07-4.76-6.19-5.38-9.89-3.91-23.48-9.33-46.55-17.07-69.09-4.35-12.67-11.35-22.92-22.52-30.58-24.95-17.11-52.59-28.91-79.99-41.2-9.88-4.43-19.92-8.49-29.82-12.88-3.43-1.52-7.48-2.54-7.87-7.38,1.83-5.41,6.99-6.4,11.31-8.42,13.41-6.26,25.63-14.12,35.49-25.38,3.96-4.52,5.36-8.63.68-13.68-16.74-18.04-20.57-40.76-21.98-63.98-1.94-31.98,3.65-63.27,10.48-94.35,1.5-6.81,3.44-13.52,4.79-20.37,10.25-16.99,20.28-33.95,24.28-53.92,3.61-18.01,3.14-35.26-4.71-52.06-1.03-2.21-1.84-4.52-1.96-7.01,7.26-36.88,6.62-73.74-1.63-110.31-12.34-54.65-35.18-103.96-76.74-142.87-21.58-20.2-46.59-33.18-77.32-31.91-12.86.53-24.78,4.41-36.15,9.9-7.1,3.43-12.95,3.17-19.42-1.58-15.13-11.1-32.28-12.79-50.03-8.54-32.59,7.8-58.25,26.95-79.65,51.71-48.69,56.34-67.93,122.64-64,196.26.63,11.85,3.72,23.46,4.61,35.33-.39,1.34.52-.19-.13,1.03-15.3,28.72-11.49,57.31.46,85.89,1.21,2.89,2.1,5.93,2.73,9.03,6.74,35.12,7.81,70.62,6.83,106.23-.54,19.71-4.32,38.82-12.59,56.83-4.1,8.93-9.52,17-16.87,23.71-7.52,6.87-7.8,9.74-1.1,17.33,12,13.6,27.09,22.81,43.5,30.18,10.5,4.72,22,6.8,32.09,12.51,1.77,7.31-4.94,7.66-8.63,9.35-23.51,10.78-47.3,20.92-70.73,31.88-11.72,5.49-23.01,11.85-34.69,17.32-22.31,10.45-33.11,29.04-39.44,51.4-3.81,13.46-7.67,26.89-10.29,40.66-.69,3.63-.41,7.84-4.08,10.38Z"/>
  <path class="cls-9" d="M686.41,759.11c18.98,8.54,38.09,16.82,56.91,25.69,22.33,10.52,44.78,20.76,64.97,35.39,9.87,7.15,15.76,16.42,19.85,27.36,9.15,24.49,14.68,49.88,18.56,75.67.37,2.43.29,4.89,2.28,6.72-24.16,21.5-51.9,37.53-80.53,52.04-54.88,27.82-112.87,44.91-174.3,50.45-132.03,11.92-250.3-22.86-355.11-103.81-2.73-2.11-5.06-4.75-7.58-7.14,3.52-25.96,10.46-50.9,20.77-75.05,7.88-18.47,24.71-25.85,40.52-34.26,34.77-18.49,71.55-32.73,107.1-49.59.06-2.66,2.24-3.34,4.09-4.11,19.34-8.03,38.76-15.88,58.09-23.93,2.87-1.19,5.83-2.57,9.04-.96,1.92,2.08,1.81,4.63.86,6.88-7.18,16.98,3.22,28.06,14.55,36.54,24.16,18.09,51.88,20.86,80.74,13.74,17.81-4.4,33.26-12.35,42.83-29.17,3.2-5.63,4.24-10.63,1.19-16.7-2.27-4.52-5.09-9.4-2.11-14.87,2.73-1.66,5.46-.72,8.04.24,21.57,7.99,42.96,16.46,64.21,25.28,1.93.8,3.8,1.78,5.05,3.58Z"/>
  <path class="cls-4" d="M343.08,418.21c-7.59-26.24-7.97-53.21-5.72-79.95,4.86-57.52,25.24-109.16,63.5-152.89,22.91-26.17,49.58-47.13,84.87-54.19,19.08-3.82,36.74-.75,52.41,11.4,2.57,1.99,4.41,4.66,8.88,2.06,46.15-26.79,90.99-8.88,122.34,20.73,39.04,36.89,61.33,83.31,74.39,134.57,9.68,38,12.13,76.45,4.23,115.17-.34,1.65-1.24,3.18-1.87,4.77-1.84.56-3.37-.25-4.94-1.04-14.9-7.46-16.69-7.07-27.03,5.82-2.82,1.2-5.73.88-7.8-1.08-15.75-14.88-35.71-18.55-56.02-21.37-19.96-16.01-36.89-35.01-53.15-54.62-21.48-25.89-40.11-53.65-53.9-85.12-3.75,34.19-16.91,63.9-35.93,91.08-12.83,18.33-27.65,35.03-45.58,48.71-11.67,2.17-23.57,1.14-35.36,3.27-17.63,3.18-30.82,14.24-45.51,22.71-4.85,2.8-1.79,10.63-7.98,12.6-3.89-3.01-2.81-7.45-3.2-11.42-1.41-14.23-6.29-17.39-19.65-12.54-2.26.82-4.43,1.95-6.95,1.32Z"/>
  <path class="cls-6" d="M714.85,422.85c2.19-10.23,9.65-13.98,20.08-10.43,4.47,1.52,7.68,4.64,11.18,7.46,13.94,22.5,12.4,46.19,5.12,70.18-4.67,15.37-11.42,29.75-21.93,42.12-3.09,6.28-6.91,11.49-15.1,9.91-.7-.14-1.3-.85-1.31-.8-.22,1.03-.06,2.09-.22,3.12-6.81,44.62-30.45,80.52-59.74,113.12-13.02,14.5-26.81,28.47-42.33,40.49-15.44,12.52-31.98,23.28-49.82,32.15-15.82,7.87-31.06,7.9-46.95.04-14.72-7.28-28.62-15.7-41.75-25.5-31.48-24.11-57.14-53.35-75.99-88.24-10.87-20.12-17.67-41.77-19.85-64.69-.36-3.78.26-7.74-4.94-9.1-15.38-4.02-22.17-15.75-26.18-29.83-9-21.7-16.83-43.51-12.84-67.79,1.63-9.92,5.12-18.73,10.81-26.84,3.28-1.94,6.38-4.37,9.89-5.72,10.23-3.91,16.97-.05,18.66,10.62.92,5.85,1.15,11.8,1.7,17.71,5.52,5.46,3.6,12.53,4.15,19.06.78,7.9,1.67,15.79,2.64,23.68.03.21.51.37.92.66,4.54-.77,5.64-7.16,10.86-7,4.14,1.12,6.06,4.65,7.98,7.88,8.87,14.95,22.42,23.02,39.13,25.02,29.67,3.56,57.06-1.04,78.59-24.52,8.38-9.13,12.13-20.23,15.45-31.65,1.59-5.45,3.47-10.65,7.97-14.41,8.24-6.88,19.24-3.73,20.69,6.84,6.47,46.96,44.85,65.92,83.78,64.89,24.97-.66,43.78-9.95,54.63-33.24,2.35-5.06,5.41-9.77,9.75-13.49,11.34-9.71,13.94-23.35,7.03-36.94-.79-1.55-1.78-3-2.06-4.76Z"/>
  <path class="cls-4" d="M345.11,512.84c4.58,6.96,8.31,14.51,14.36,20.46,3.03,2.98,6.25,6.8,10.41,6.36,8.66-.92,8.46,3.88,8.94,10.16,3.22,42.01,22.82,76.78,48.86,108.61,13.53,16.54,29.38,30.68,45.72,44.3,3.9,10.95,5.83,21.73-2.74,31.6-23.6,9.42-47.21,18.85-70.81,28.27-22.5-6.62-44.23-14.99-63.27-29.07-4.47-3.31-8.67-7.08-12.53-11.09-11.85-12.33-11.63-13.91.12-25.13,16-15.27,21.94-35.33,25.1-56.22,5.86-38.7,2.8-77.3-2.88-115.78-.61-4.13-.86-8.31-1.27-12.46Z"/>
  <path class="cls-4" d="M609.24,696.43c21.61-19.35,42.75-39.14,60.13-62.58,19.76-26.65,35.21-55.24,40.7-88.46.38-2.29-1.01-5.93,4.09-5.26,6.65.87,10.91-3.72,15.14-7.95-3.88,20.44-8.35,40.8-11.51,61.35-4.26,27.67-5.8,55.5,1.06,83.07,3.32,13.36,8.61,25.97,19.56,34.92,5.1,4.17,3.61,7.19.58,11.19-7.71,10.18-17.33,18.13-28.45,24.21-7.89,4.32-16.06,8.13-24.1,12.17-21.67-6.07-41.75-16.39-63.01-23.57-4.58-1.55-9.08-3.35-13.62-5.03-7.33-8.03-7.56-22.25-.55-34.08Z"/>
  <path class="cls-3" d="M609.24,696.43c-1.53,11.39-3.57,22.78.55,34.08.66,3.03.48,6.64,2.11,9.01,9.65,14.1,1.82,24.62-7.35,34.01-20.2,20.68-46.16,24.62-73.42,22.65-14.68-1.06-28.82-4.74-41.46-13.04-8.39-5.51-14.06-13.16-19.93-21.1-7.43-10.05-.14-18.55.92-27.72,3.27-10.33,2.54-21,2.74-31.6,13.15,9.09,26.75,17.35,40.83,25.03,22.17,12.09,41.08,3.66,59.66-7.53,12.15-7.32,23.59-15.82,35.35-23.8Z"/>
  <path class="cls-6" d="M462.75,399.86c27.92-26.36,52.1-55.43,66.46-91.63,6.53-16.45,10.44-33.59,12.68-54.06,4.09,8.52,6.77,14.38,9.68,20.13,20.58,40.6,48.46,75.76,80.44,107.86,5.91,5.93,11.75,11.91,17.63,17.87-4.02,4.81-9.65,3.48-14.63,3.29-15.91-.59-31.25,2.05-46.3,6.91-8.36,2.7-16.25,6.24-23.05,11.97-9.87,8.32-21.15,8.87-30.95,1.69-19.18-14.05-40.81-18.92-63.73-20.59-3.07-.22-6.4-.13-8.22-3.45Z"/>
  <path class="cls-1" d="M462.75,399.86c26.72,1.24,52.18,5.66,74.56,22.47,7.84,5.89,17.94,5.32,26.85-2.43,16.25-14.13,36.78-17.2,57.27-19.23,9.33-.93,18.8-.46,28.2-.63,21.02,1.91,41.55,5.14,57.4,21.14,2.17,2.19,4.94,2.37,7.81,1.68,5.94,1.37,7.34,5.92,7.5,11.1.18,5.94-.16,11.9.13,17.82.32,6.37-1.76,11.05-8.13,12.89-5.8,1.67-7.9,6.85-9.78,11.26-16.36,38.3-47.39,41.42-78.01,36.87-41.12-6.11-59.9-26.13-67.31-67.22-1.34-7.44-10.38-9.87-16.98-4.47-4,3.27-5.11,7.97-6.32,12.81-9.46,37.92-37.28,59.52-76.57,59.97-14.41.17-28.48-.41-41.7-7.4-12.41-6.56-18.81-18.17-26.16-29.09-3.13-7.77-11.52-10.19-16.44-16.13-.59-6.82-1.18-13.65-1.76-20.46.49-21.64,20.74-23.3,33.5-31.21,16.63-10.3,36.75-9.29,55.92-9.74Z"/>
  <path class="cls-5" d="M375.09,461.27c6.9,3.93,17.57,4.02,16.44,16.14-3.87,4.75-6.54,10.6-13.56,14.33-1.01-10.66-1.94-20.56-2.88-30.46Z"/>
  <path class="cls-6" d="M697.76,459.23c-4.64,32.44-28.85,49.5-65.41,46.09-36.33-3.39-58.43-25.48-62.49-61.58-1.28-11.35,2.79-18.94,12.62-23.88,15.57-7.82,32.22-11.04,49.51-11.07,10.77-.01,21.67-1.22,32.17,2.45,21.4,8.85,30.64,26.21,33.59,47.98Z"/>
  <path class="cls-6" d="M450.34,409.11c21.11-1.53,41.62.74,61.19,9.42,10.77,4.78,15.61,11.98,14.7,24.5-2.71,37.15-28.23,61.64-66.44,62.43-32.08.66-49.21-9.6-58.34-35.08-1.04-2.9-1.44-6.03-2.14-9.05-.89-13.89,3.03-24.52,17.1-30.66,12.28-5.37,21.04-16.8,33.93-21.55Z"/>
  <path class="cls-7" d="M450.34,409.11c-10.08,9.63-21.53,17.57-33.59,24.25-8.88,4.91-14.74,10.59-15.16,21.08-.09,2.32-1.48,4.59-2.27,6.88-9.18-27.45-2.83-40.08,24.48-48.59,8.64-2.7,17.41-4.56,26.55-3.62Z"/>
  <path class="cls-8" d="M697.76,459.23c-.76-1.12-1.96-2.15-2.21-3.38-3.89-19.52-15.73-33.4-31.39-44.61,4.73-.6,8.85,1.58,13.06,3.06,22.63,7.96,28.79,21.53,20.53,44.92Z"/>
</svg>