<?xml version="1.0" encoding="UTF-8"?>
<svg width="128" height="128" id="Layer_1" xmlns="http://www.w3.org/2000/svg" viewBox="0 0 1080 1080">
  <defs>
    <style>
      .cls-1 {
        fill: #042b62;
      }

      .cls-2 {
        fill: #fefefe;
      }
    </style>
  </defs>
  <path class="cls-1" d="M927.32,552.72c-18.23-.61-29.29,8.75-31.03,26.98-1.88,19.72,7.54,32.71,27.32,34.82,20.32,2.17,29.85-11.11,34.67-29.51-2.67-17.8-10.3-31.59-30.96-32.29ZM927.32,552.72c-18.23-.61-29.29,8.75-31.03,26.98-1.88,19.72,7.54,32.71,27.32,34.82,20.32,2.17,29.85-11.11,34.67-29.51-2.67-17.8-10.3-31.59-30.96-32.29ZM927.32,552.72c-18.23-.61-29.29,8.75-31.03,26.98-1.88,19.72,7.54,32.71,27.32,34.82,20.32,2.17,29.85-11.11,34.67-29.51-2.67-17.8-10.3-31.59-30.96-32.29ZM927.32,552.72c-18.23-.61-29.29,8.75-31.03,26.98-1.88,19.72,7.54,32.71,27.32,34.82,20.32,2.17,29.85-11.11,34.67-29.51-2.67-17.8-10.3-31.59-30.96-32.29ZM927.32,552.72c-18.23-.61-29.29,8.75-31.03,26.98-1.88,19.72,7.54,32.71,27.32,34.82,20.32,2.17,29.85-11.11,34.67-29.51-2.67-17.8-10.3-31.59-30.96-32.29ZM927.32,552.72c-18.23-.61-29.29,8.75-31.03,26.98-1.88,19.72,7.54,32.71,27.32,34.82,20.32,2.17,29.85-11.11,34.67-29.51-2.67-17.8-10.3-31.59-30.96-32.29ZM1033.15,545.05c-7.92-18.82-18.1-36.61-25.58-55.62-15.36-39.01-29.53-78.49-45.91-117.09-8.86-20.88-16.24-54.91-44.11-43.05-47.3,20.12-109.42,15.55-137.14,72.73-.99,2.05-.38,5.22.25,7.67,3.87,15.01-5.31,20.95-17.09,25.55-29.3,11.47-57.31,20.31-89.28,3.88-34.29-17.62-72.19-18.55-109.87-9.67-9.89,2.33-18.78,6.49-29.9,1.91-42.78-17.63-86.04-12.03-129.61-1.68-45.05,10.71-69.55-.9-93.2-41.88-6.38-11.05-17.13-15.55-27.84-19.9-27.55-11.21-55.96-20.51-82.86-33.06-34.42-16.05-52.92-4.04-65.27,29.28-19.76,53.34-41.6,105.9-62.31,158.89-33.79,86.47-44.04,83.14,53.94,118.81,28.93,10.54,56.27,34.33,91.51,13.45,12.65-7.5,15.58,6.27,17.97,17.19,5.95,27.21-10.29,46.72-21.22,68.47-18.39,36.62-3.4,76.42,34.03,81.76,27.02,3.86,48.14,27.57,71.52,40.05,26.56,14.18,54.23,27,77.07,47.03,1.63,1.43,5.08,1.44,7.55,1.13,17.26-2.12,26.91,4.86,37.12,20.01,20.02,29.72,49.72,34.3,76.89,11.55,14.57-12.19,24.57-12.03,40.55-6.08,28.86,10.74,53.4-.94,63.78-27.74,8.98-23.18,24.78-38.02,38.77-56.33,20.8-27.23,37.95-55.92,68.34-73.93,2.81-1.66,4.11-6.55,5.26-10.2,15-47.65,53.83-71.04,92.98-96.11,29.25-18.74,60.29-3.21,87.82-11.64,23.13-7.09,46.13-14.69,68.56-23.8,13.69-5.56,50.68-16.09,59.79-29.29.28-.39.52-.79.74-1.19,7.46-13.45-7.95-48.52-13.25-61.1ZM207.25,620.19c-7.53,19.98-17.27,20.81-35.34,14.88-104.31-34.29-104.44-33.91-64.24-134.96,16.71-42.01,34.17-83.74,49.78-126.15,7.27-19.76,15.7-26.94,36.82-16.65,24.32,11.85,50.24,20.39,75.42,30.48,9.35,3.75,20.64,5.66,20.57,21.2-1.27,3.33-3.05,8.13-4.93,12.9-26.16,66.05-53.03,131.83-78.08,198.3ZM259.7,802.19c-21.5-5.38-35.33-18.67-26.53-41.37,8.78-22.62,21.05-44.74,35.91-63.89,14.15-18.25,34.75-18.66,49.08,1.08,12.44,17.14,3.68,34.86-7.05,50.16-14.17,20.19-18.61,49.84-51.41,54.02ZM320.77,840.07c-12.76-7.62-19.03-20.57-13.61-32.97,16.47-37.73,36.55-73.83,62.17-106.23,7.7-9.75,20.53-10.28,32.19-4.96,11.65,5.31,16.62,15.53,19.22,31.37-18.6,37.42-37.14,78.45-67.46,112.21-8.16,9.08-21.52,7.15-32.51.58ZM430.8,881.39c-3.55,4.29-11.35,5.07-15.11,6.62-25.5-1.2-37.91-14.84-32.46-35.64,8.56-32.65,27.68-60.99,48.89-87.1,7.74-9.54,19.91-11.19,32-4.89,12.74,6.65,22.72,18.13,18.41,30.9-11.18,33.11-29.4,63.09-51.73,90.11ZM485.52,931.92c-18.9-2.58-30.3-14.51-29.79-34.17.62-23.86,43.33-79,60.09-79.18,16.89-.19,31.64,15.01,31.48,32.43-.25,26.78-42.79,83.51-61.78,80.92ZM588.01,914.01c-12.32,6.14-23.54,2.63-32.62-4.76-10.06-8.19.27-15.98,3.65-23.63,5.19-11.74,10.38-23.48,15.79-35.72,18.83,5.57,33.09,15.89,32.75,37.31-.2,12.23-8.11,21.09-19.57,26.8ZM763.51,692.13c-13.07,23.98-33.63,18.45-53.41,6.33-14.33-8.78-28.71-17.71-43.88-24.87-10.15-4.8-23.23-22.5-32.18-4.93-7.94,15.58,12.81,18.81,22.69,25.34,12.94,8.55,26.93,15.49,40.11,23.69,17,10.58,28.28,24.55,16.52,44.94-11.21,19.47-28.39,20.46-46.83,10.22-18.11-10.05-35.67-21.12-54.07-30.58-9.4-4.84-21.45-18.51-30.31-4.89-9.56,14.68,8.7,18.35,17.26,24.15,12.83,8.7,26.67,15.91,40.14,23.63,19.26,11.05,24.13,28.09,13.7,46.07-9.81,16.91-26.15,18.29-44.04,9.35-31.09-15.54-58.12-39.22-93.36-46.51-10.07-2.09-7.13-12.54-11.01-18.61-24.59-38.54-69.54-58.35-91.84-99.21-1.46-2.69-7.41-5.29-10.3-4.48-40.47,11.33-78.31-.98-117.68-8.54-28.01-5.38-55.91-34.84-45.22-62.34,18.25-47,37.86-93.5,55.27-140.8,7.3-19.84,14.96-27.85,36.11-15.87,31.34,17.76,64.51,13.74,97.98,4.83,25.95-6.91,52.46-10.23,82.37,2.7-34.18,38.69-73.69,65.41-114.83,89.06-25.48,14.65-26.36,27.55-7.31,47.45,26.45,27.62,56.46,40.35,94.35,27.35,3.67-1.26,7.49-2.05,11.17-3.27q132.47-43.97,248.94,32.12c18.78,12.21,30.99,26.89,19.66,47.67ZM842.79,642.1c-26.52,11.21-44.54,24.01-74.88-6.18-34.44-34.28-85.22-52.3-129.26-76.72-14.23-7.9-29.71-7-45.22-2.04-35.65,11.39-71.39,22.48-107.21,33.32-13.47,4.07-26.83,10.6-41.52,6.16-15.05-4.56-32.5-9.94-36.09-25.94-3.53-15.73,16.04-17.24,25.42-24.79,26.15-21.05,54.23-39.86,79.2-62.17,26.66-23.82,57.16-34.22,100.06-35.81,9.67,2.04,29.11,2.2,44.52,10.16,38.1,19.68,74.91,17.11,111.66-.2,17.91-8.44,27.53-6.79,34.87,13.17,16.92,46.03,34.74,91.79,54.17,136.82,8.55,19.83,1.63,26.88-15.72,34.22ZM1005.99,601.51c-1.23.34-2.37,1.04-3.53,1.6q-101.49,49.21-142.95-54.72c-16.25-40.8-30.94-82.28-48.81-122.34-10.03-22.48-4.62-32.45,17.6-39.98,29.32-9.94,57.73-22.54,85.28-33.49,13.76-3.75,17.29,5.84,20.53,13.95,27.8,69.56,54.9,139.4,83.06,208.82,5.75,14.18,3.44,22.05-11.18,26.16ZM927.32,552.72c-18.23-.61-29.29,8.75-31.03,26.98-1.88,19.72,7.54,32.71,27.32,34.82,20.32,2.17,29.85-11.11,34.67-29.51-2.67-17.8-10.3-31.59-30.96-32.29ZM161.6,553.05c-17.61,1.82-27.72,13.09-27.28,31.08.49,20.06,12.84,29.3,31.98,31.08,18.77-3.76,31.26-14.56,29.51-33.92-1.71-18.78-14.29-30.3-34.21-28.24ZM927.32,552.72c-18.23-.61-29.29,8.75-31.03,26.98-1.88,19.72,7.54,32.71,27.32,34.82,20.32,2.17,29.85-11.11,34.67-29.51-2.67-17.8-10.3-31.59-30.96-32.29ZM927.32,552.72c-18.23-.61-29.29,8.75-31.03,26.98-1.88,19.72,7.54,32.71,27.32,34.82,20.32,2.17,29.85-11.11,34.67-29.51-2.67-17.8-10.3-31.59-30.96-32.29ZM927.32,552.72c-18.23-.61-29.29,8.75-31.03,26.98-1.88,19.72,7.54,32.71,27.32,34.82,20.32,2.17,29.85-11.11,34.67-29.51-2.67-17.8-10.3-31.59-30.96-32.29ZM927.32,552.72c-18.23-.61-29.29,8.75-31.03,26.98-1.88,19.72,7.54,32.71,27.32,34.82,20.32,2.17,29.85-11.11,34.67-29.51-2.67-17.8-10.3-31.59-30.96-32.29ZM927.32,552.72c-18.23-.61-29.29,8.75-31.03,26.98-1.88,19.72,7.54,32.71,27.32,34.82,20.32,2.17,29.85-11.11,34.67-29.51-2.67-17.8-10.3-31.59-30.96-32.29ZM927.32,552.72c-18.23-.61-29.29,8.75-31.03,26.98-1.88,19.72,7.54,32.71,27.32,34.82,20.32,2.17,29.85-11.11,34.67-29.51-2.67-17.8-10.3-31.59-30.96-32.29Z"/>
  <path class="cls-1" d="M561.11,257.48c-.02,19.31.37,38.63-.21,57.93-.24,7.91-3.67,15.87-12.82,16.55-9.74.72-13.78-7.71-13.89-15.22-.6-39.9-.57-79.81.13-119.71.13-7.55,4.65-15.78,14.36-14.58,9,1.11,12.09,9.16,12.29,17.1.5,19.3.16,38.62.14,57.93Z"/>
  <path class="cls-1" d="M442.06,354.88c-3.75,7.15-4.69,11.57-7.4,13.51-4.7,3.38-10.68,1.94-13.46-2.78-22.25-37.83-44.28-75.78-65.82-114.02-2.84-5.04,1.45-10.34,6.66-12.01,3.04-.98,8.98-.31,10.25,1.72,23.85,38.15,47.19,76.62,69.76,113.58Z"/>
  <path class="cls-1" d="M668.27,357.61c-12.58-4.36-12.7-12.18-7.34-21.51,19.29-33.58,38.6-67.14,58.06-100.62,4.2-7.23,10.56-12.51,18.7-7.22,2.96,1.92,5.11,10.3,3.4,13.39-20.65,37.21-41.98,74.04-63.55,110.73-1.62,2.76-6.36,3.68-9.27,5.25Z"/>
  <path class="cls-2" d="M166.3,615.21c-19.14-1.78-31.49-11.02-31.98-31.08-.44-17.99,9.67-29.26,27.28-31.08,19.92-2.06,32.5,9.46,34.21,28.24,1.75,19.36-10.74,30.16-29.51,33.92Z"/>
  <path class="cls-2" d="M958.28,585.01c-4.82,18.4-14.35,31.68-34.67,29.51-19.78-2.11-29.2-15.1-27.32-34.82,1.74-18.23,12.8-27.59,31.03-26.98,20.66.7,28.29,14.49,30.96,32.29Z"/>
  <path class="cls-1" d="M166.3,615.21c-19.14-1.78-31.49-11.02-31.98-31.08-.44-17.99,9.67-29.26,27.28-31.08,19.92-2.06,32.5,9.46,34.21,28.24,1.75,19.36-10.74,30.16-29.51,33.92Z"/>
  <path class="cls-1" d="M958.28,585.01c-4.82,18.4-14.35,31.68-34.67,29.51-19.78-2.11-29.2-15.1-27.32-34.82,1.74-18.23,12.8-27.59,31.03-26.98,20.66.7,28.29,14.49,30.96,32.29Z"/>
</svg>