<svg width="32" height="30" viewBox="0 0 32 30" fill="none" xmlns="http://www.w3.org/2000/svg">
<g clip-path="url(#clip0_25_132)">
<path d="M29.8 19.8999H1.4C0.6 19.8999 0 19.2999 0 18.4999V2.7999C0 1.9999 0.6 1.3999 1.4 1.3999H29.8C30.6 1.3999 31.2 1.9999 31.2 2.7999V18.3999C31.3 19.2999 30.6 19.8999 29.8 19.8999Z" fill="#EAEAEA" stroke="#DBDBDB" stroke-width="0.25" stroke-miterlimit="10"/>
<path d="M27 18.4999H4.3C4.3 16.8999 3 15.6999 1.5 15.5999V5.6999C3.1 5.6999 4.3 4.3999 4.3 2.8999H27C27 4.4999 28.3 5.6999 29.8 5.6999V15.5999C28.3 15.5999 27 16.8999 27 18.4999Z" fill="#E2E2E2" stroke="#DBDBDB" stroke-width="0.25" stroke-miterlimit="10"/>
<path d="M15.6004 17.0998C18.7484 17.0998 21.3004 14.2344 21.3004 10.6998C21.3004 7.16518 18.7484 4.2998 15.6004 4.2998C12.4524 4.2998 9.90039 7.16518 9.90039 10.6998C9.90039 14.2344 12.4524 17.0998 15.6004 17.0998Z" fill="#042b62"/>
<path d="M7.1002 12.0998C7.87339 12.0998 8.5002 11.473 8.5002 10.6998C8.5002 9.92661 7.87339 9.2998 7.1002 9.2998C6.327 9.2998 5.7002 9.92661 5.7002 10.6998C5.7002 11.473 6.327 12.0998 7.1002 12.0998Z" fill="#F49496"/>
<path d="M18.5 25.6001C21.2614 25.6001 23.5 23.3615 23.5 20.6001C23.5 17.8387 21.2614 15.6001 18.5 15.6001C15.7386 15.6001 13.5 17.8387 13.5 20.6001C13.5 23.3615 15.7386 25.6001 18.5 25.6001Z" fill="#FFC862"/>
<path d="M24.9004 24.2002C27.6618 24.2002 29.9004 21.9616 29.9004 19.2002C29.9004 16.4388 27.6618 14.2002 24.9004 14.2002C22.139 14.2002 19.9004 16.4388 19.9004 19.2002C19.9004 21.9616 22.139 24.2002 24.9004 24.2002Z" fill="#E2E2E2" stroke="#DBDBDB" stroke-width="0.25" stroke-miterlimit="10"/>
<path d="M24.9004 14.2002C22.1004 14.2002 19.9004 16.4002 19.9004 19.2002C19.9004 22.0002 22.1004 24.2002 24.9004 24.2002C27.7004 24.2002 29.9004 22.0002 29.9004 19.2002C29.9004 16.5002 27.7004 14.2002 25.0004 14.2002C24.9004 14.2002 24.9004 14.2002 24.9004 14.2002ZM24.9004 22.8002C22.9004 22.8002 21.3004 21.2002 21.3004 19.3002C21.3004 17.3002 22.9004 15.7002 24.8004 15.7002C26.8004 15.7002 28.4004 17.3002 28.4004 19.2002C28.4004 21.1002 26.9004 22.7002 24.9004 22.8002Z" fill="#042b62"/>
<path d="M24.9002 21.3C24.5002 21.3 24.2002 21 24.2002 20.7V20.6V17.7C24.2002 17.3 24.5002 17 24.9002 17C25.3002 17 25.6002 17.3 25.6002 17.7V20.6C25.6002 21 25.3002 21.3 24.9002 21.3Z" fill="white"/>
<path d="M18.5 25.6001C21.2614 25.6001 23.5 23.3615 23.5 20.6001C23.5 17.8387 21.2614 15.6001 18.5 15.6001C15.7386 15.6001 13.5 17.8387 13.5 20.6001C13.5 23.3615 15.7386 25.6001 18.5 25.6001Z" fill="#E2E2E2" stroke="#DBDBDB" stroke-width="0.25" stroke-miterlimit="10"/>
<path d="M18.5 15.6001C15.7 15.6001 13.5 17.8001 13.5 20.6001C13.5 23.4001 15.7 25.6001 18.5 25.6001C21.3 25.6001 23.5 23.4001 23.5 20.6001C23.5 17.9001 21.3 15.6001 18.6 15.6001C18.5 15.6001 18.5 15.6001 18.5 15.6001ZM18.5 24.2001C16.5 24.2001 14.9 22.6001 14.9 20.7001C14.9 18.8001 16.5 17.1001 18.4 17.1001C20.4 17.1001 22 18.7001 22 20.6001C22 22.6001 20.5 24.1001 18.5 24.2001Z" fill="#042b62"/>
<path d="M18.5 25.5001C21.2 25.6001 23.4 23.4001 23.5 20.7001V20.6001H23.4C23 20.6001 22.7 20.9001 22.7 21.2001C22.6 22.2001 22.1 23.1001 21.3 23.7001C20.7 24.3001 19.9 24.7001 19.1 24.8001C18.8 24.9001 18.5 25.1001 18.5 25.5001Z" fill="#F2B242"/>
<path d="M20.6002 22.8002C20.5002 22.8002 20.4002 22.8002 20.4002 22.7002C20.3002 22.6002 20.3002 22.3002 20.4002 22.2002C20.8002 21.8002 21.0002 21.2002 21.0002 20.6002C21.0002 20.4002 21.1002 20.2002 21.3002 20.2002C21.5002 20.2002 21.7002 20.3002 21.7002 20.5002V20.6002C21.7002 21.4002 21.5002 22.1002 21.0002 22.7002C20.9002 22.8002 20.7002 22.8002 20.6002 22.8002Z" fill="#FFC85E"/>
<path d="M18.4998 22.8001C18.0998 22.8001 17.7998 22.5001 17.7998 22.2001C17.7998 22.2001 17.7998 22.2001 17.7998 22.1001V19.3001C17.7998 18.9001 18.0998 18.6001 18.4998 18.6001C18.8998 18.6001 19.1998 18.9001 19.1998 19.3001V22.0001C19.1998 22.4001 18.9998 22.7001 18.5998 22.7001C18.5998 22.8001 18.4998 22.8001 18.4998 22.8001Z" fill="white"/>
<path d="M22 29.8999C24.7614 29.8999 27 27.6613 27 24.8999C27 22.1385 24.7614 19.8999 22 19.8999C19.2386 19.8999 17 22.1385 17 24.8999C17 27.6613 19.2386 29.8999 22 29.8999Z" fill="#E2E2E2" stroke="#DBDBDB" stroke-width="0.25" stroke-miterlimit="10"/>
<path d="M22 19.8999C19.2 19.8999 17 22.0999 17 24.8999C17 27.6999 19.2 29.8999 22 29.8999C24.8 29.8999 27 27.6999 27 24.8999C27 22.1999 24.8 19.8999 22.1 19.8999H22ZM22 28.3999C20 28.3999 18.5 26.7999 18.5 24.7999C18.5 22.7999 20.1 21.2999 22.1 21.2999C24.1 21.2999 25.6 22.8999 25.6 24.7999C25.6 26.7999 24 28.3999 22 28.3999Z" fill="#042b62"/>
<path d="M21.9998 27.0002C21.5998 27.0002 21.2998 26.7002 21.2998 26.4002V26.3002V23.5002C21.2998 23.1002 21.6998 22.8002 22.0998 22.9002C22.3998 22.9002 22.6998 23.2002 22.6998 23.5002V26.3002C22.6998 26.7002 22.4998 27.0002 21.9998 27.0002Z" fill="white"/>
<path d="M1.3002 5.7L5.4002 0.1C5.5002 0 5.6002 0 5.7002 0L9.8002 5.6C9.8002 5.7 9.8002 5.8 9.8002 5.8H9.7002H8.7002C8.6002 5.9 8.5002 6 8.5002 6.1V12.7C8.5002 12.8 8.4002 12.8 8.4002 12.8H2.7002C2.6002 12.8 2.5002 12.7 2.5002 12.7V6.1C2.5002 6 2.5002 6 2.4002 6H1.4002C1.3002 6 1.2002 6 1.2002 5.9C1.2002 5.8 1.2002 5.7 1.3002 5.7Z" fill="#042b62"/>
<path d="M6.60039 5.4001H6.10039C6.10039 5.3001 6.10039 5.1001 6.00039 5.0001H6.60039C6.60039 5.0001 6.60039 5.0001 6.70039 5.0001C6.70039 5.0001 6.70039 5.0001 6.70039 4.9001V4.7001C6.70039 4.7001 6.70039 4.7001 6.70039 4.6001H6.60039H4.40039C4.40039 4.6001 4.40039 4.6001 4.40039 4.7001V5.0001C4.40039 5.0001 4.40039 5.0001 4.40039 5.1001H4.50039H4.90039C5.30039 5.1001 5.50039 5.2001 5.60039 5.4001H4.60039C4.60039 5.4001 4.60039 5.4001 4.50039 5.4001C4.50039 5.4001 4.50039 5.4001 4.50039 5.5001V5.8001C4.50039 5.8001 4.50039 5.8001 4.50039 5.9001H4.60039H5.60039C5.60039 6.0001 5.50039 6.2001 5.30039 6.2001C5.10039 6.1001 4.90039 6.2001 4.70039 6.2001H4.40039C4.40039 6.2001 4.40039 6.2001 4.40039 6.3001V6.6001C4.70039 6.9001 5.10039 7.4001 5.70039 8.0001C5.70039 8.0001 5.70039 8.0001 5.80039 8.0001H6.30039C6.30039 8.0001 6.30039 8.0001 6.40039 8.0001V7.9001C5.80039 7.4001 5.40039 7.0001 5.10039 6.7001C5.40039 6.7001 5.60039 6.6001 5.80039 6.4001C6.00039 6.3001 6.10039 6.0001 6.10039 5.8001H6.50039H6.60039C6.60039 5.8001 6.60039 5.8001 6.60039 5.7001V5.4001Z" fill="white"/>
<path d="M17.5002 9.0002H16.7002C16.7002 8.8002 16.6002 8.6002 16.4002 8.4002H17.4002H17.5002V8.3002V7.8002C17.5002 7.7002 17.5002 7.7002 17.4002 7.7002H13.9002H13.8002V7.8002V8.4002C13.8002 8.5002 13.9002 8.5002 13.9002 8.5002H14.5002C15.1002 8.5002 15.5002 8.7002 15.6002 9.0002H13.8002H13.7002V9.1002V9.5002V9.6002H13.8002H15.6002C15.5002 9.8002 15.4002 10.0002 15.2002 10.1002C14.9002 10.2002 14.6002 10.3002 14.3002 10.3002H13.8002H13.7002V10.4002V11.0002V11.1002C14.2002 11.7002 15.0002 12.5002 15.8002 13.5002H15.9002H16.7002C16.8002 13.5002 16.8002 13.5002 16.8002 13.4002V13.3002C16.0002 12.3002 15.3002 11.5002 14.8002 11.0002C15.2002 11.0002 15.6002 10.8002 16.0002 10.5002C16.3002 10.2002 16.5002 9.9002 16.6002 9.5002H17.3002H17.4002V9.4002V9.1002C17.5002 9.1002 17.5002 9.0002 17.5002 9.0002Z" fill="white"/>
</g>
<defs>
<clipPath id="clip0_25_132">
<rect width="31.3" height="29.9" fill="white"/>
</clipPath>
</defs>
</svg>
