<svg width="32" height="32" viewBox="0 0 32 32" fill="none" xmlns="http://www.w3.org/2000/svg">
<g clip-path="url(#clip0_25_84)">
<path d="M7.2998 14.6H3.8998C3.5998 14.6 3.2998 14.3 3.2998 14V9.5C3.3998 9.2 3.5998 9 3.8998 9H7.2998C7.5998 9 7.89981 9.3 7.89981 9.6V14C7.89981 14.3 7.5998 14.6 7.2998 14.6Z" fill="#E2E2E2" stroke="#DBDBDB" stroke-width="0.25" stroke-miterlimit="10"/>
<path d="M9.49961 14.6H6.19961C5.89961 14.6 5.59961 14.3 5.59961 14V9.5C5.59961 9.2 5.89961 9 6.19961 9H9.59961C9.89961 9 10.1996 9.2 10.1996 9.6V14C10.0996 14.3 9.89961 14.6 9.49961 14.6C9.59961 14.6 9.59961 14.6 9.49961 14.6Z" fill="#EAEAEA"/>
<path d="M9.49961 14.6H6.19961C5.89961 14.6 5.59961 14.3 5.59961 14V9.5C5.59961 9.2 5.89961 9 6.19961 9H9.59961C9.89961 9 10.1996 9.2 10.1996 9.6V14C10.0996 14.3 9.89961 14.6 9.49961 14.6ZM9.49961 14.6C9.59961 14.6 9.59961 14.6 9.49961 14.6Z" stroke="#DBDBDB" stroke-width="0.25" stroke-miterlimit="10"/>
<path d="M16.2998 14.5999H12.8998C12.5998 14.5999 12.2998 14.2999 12.2998 13.9999V4.9999C12.2998 4.6999 12.5998 4.3999 12.8998 4.3999H16.2998C16.5998 4.3999 16.8998 4.6999 16.8998 4.9999V13.9999C16.7998 14.2999 16.5998 14.5999 16.2998 14.5999Z" fill="#E2E2E2" stroke="#DBDBDB" stroke-width="0.25" stroke-miterlimit="10"/>
<path d="M18.5 14.5999H15.1C14.8 14.5999 14.5 14.2999 14.5 13.9999V4.9999C14.5 4.6999 14.8 4.3999 15.1 4.3999H18.5C18.8 4.3999 19.1 4.6999 19.1 4.9999V13.9999C19.1 14.2999 18.9 14.5999 18.5 14.5999Z" fill="#EAEAEA" stroke="#DBDBDB" stroke-width="0.25" stroke-miterlimit="10"/>
<path d="M25.2998 14.6H21.8998C21.5998 14.6 21.2998 14.3 21.2998 14V0.6C21.2998 0.3 21.5998 0 21.8998 0H25.2998C25.5998 0 25.8998 0.3 25.8998 0.6V14C25.7998 14.3 25.5998 14.6 25.2998 14.6Z" fill="#E2E2E2" stroke="#DBDBDB" stroke-width="0.25" stroke-miterlimit="10"/>
<path d="M27.5 14.6H24.1C23.8 14.6 23.5 14.3 23.5 14V0.6C23.5 0.3 23.8 0 24.1 0H27.5C27.8 0 28.1 0.3 28.1 0.6V14C28.1 14.3 27.8 14.6 27.5 14.6Z" fill="#EAEAEA" stroke="#DBDBDB" stroke-width="0.25" stroke-miterlimit="10"/>
<path d="M29.2 31.4001H0.6C0.3 31.4001 0 31.1001 0 30.8001V15.2001C0 14.9001 0.3 14.6001 0.6 14.6001H29.2C29.5 14.6001 29.8 14.9001 29.8 15.2001V30.9001C29.8 31.2001 29.5 31.4001 29.2 31.4001Z" fill="#042b62"/>
<path d="M30.8996 31.4001H2.19961C1.89961 31.4001 1.59961 31.2001 1.59961 30.8001V15.2001C1.59961 14.9001 1.89961 14.6001 2.19961 14.6001H30.7996C31.0996 14.6001 31.3996 14.9001 31.3996 15.2001V30.9001C31.3996 31.2001 31.1996 31.4001 30.8996 31.4001Z" fill="#042b62"/>
<path d="M27.2998 16.2998H5.7998C5.2998 17.3998 4.3998 18.2998 3.2998 18.7998V27.2998C4.3998 27.7998 5.2998 28.5998 5.7998 29.7998H27.1998C27.6998 28.6998 28.4998 27.7998 29.6998 27.2998V18.7998C28.5998 18.2998 27.6998 17.3998 27.2998 16.2998Z" fill="#042b62"/>
<path d="M16.6 28.0999C19.4167 28.0999 21.7 25.8166 21.7 22.9999C21.7 20.1833 19.4167 17.8999 16.6 17.8999C13.7833 17.8999 11.5 20.1833 11.5 22.9999C11.5 25.8166 13.7833 28.0999 16.6 28.0999Z" fill="#042b62"/>
<path d="M25.3002 24.0999C25.9077 24.0999 26.4002 23.6074 26.4002 22.9999C26.4002 22.3924 25.9077 21.8999 25.3002 21.8999C24.6927 21.8999 24.2002 22.3924 24.2002 22.9999C24.2002 23.6074 24.6927 24.0999 25.3002 24.0999Z" fill="#042b62"/>
<path d="M7.8998 24.0999C8.50732 24.0999 8.9998 23.6074 8.9998 22.9999C8.9998 22.3924 8.50732 21.8999 7.8998 21.8999C7.29229 21.8999 6.7998 22.3924 6.7998 22.9999C6.7998 23.6074 7.29229 24.0999 7.8998 24.0999Z" fill="#042b62"/>
<path d="M18.4002 21.4002C18.3002 21.4002 18.3002 21.4002 18.4002 21.4002H17.6002C17.6002 21.2002 17.5002 21.0002 17.3002 20.8002H18.3002H18.4002V20.7002V20.3002V20.2002H18.3002H14.8002H14.7002V20.3002V20.8002V20.9002H14.8002H15.4002C16.0002 20.9002 16.3002 21.1002 16.5002 21.4002H14.8002H14.7002V21.5002V22.0002V22.1002H14.8002H16.6002C16.5002 22.3002 16.4002 22.5002 16.2002 22.6002C15.9002 22.7002 15.6002 22.8002 15.3002 22.8002H14.8002H14.7002V22.9002V23.4002V23.5002C15.2002 24.1002 15.9002 24.8002 16.7002 25.8002H16.8002H17.6002C17.7002 25.8002 17.7002 25.8002 17.7002 25.7002V25.6002C16.9002 24.6002 16.3002 23.9002 15.8002 23.4002C16.2002 23.4002 16.6002 23.2002 16.9002 23.0002C17.2002 22.7002 17.4002 22.4002 17.4002 22.0002H18.1002H18.2002V21.9002V21.4002C18.4002 21.5002 18.4002 21.5002 18.4002 21.4002Z" fill="white"/>
</g>
<defs>
<clipPath id="clip0_25_84">
<rect width="31.4" height="31.4" fill="white"/>
</clipPath>
</defs>
</svg>
