<svg xmlns="http://www.w3.org/2000/svg" width="45" height="45" viewBox="0 0 45 45">
  <g fill="none" fill-rule="evenodd">
    <g fill="#65D48E">
      <circle cx="22.5" cy="22.5" r="22.5" opacity=".12"/>
      <circle cx="22.5" cy="22.5" r="18.947" opacity=".233"/>
    </g>
    <g opacity=".228" transform="rotate(-32 29.328 1.83)">
      <circle cx="1.883" cy="13.399" r="1.184" fill="#005263"/>
      <circle cx="17.14" cy=".9" r="1" fill="#005263"/>
      <circle cx="23.508" cy="22.195" r="1.184" fill="#005263"/>
      <circle cx="19.899" cy="28.566" r="1" fill="#47A395" transform="matrix(1 0 0 -1 0 57.132)"/>
    </g>
    <g fill="#005263" fill-rule="nonzero" transform="translate(10 11)">
      <path d="M12.8384404 22.2589671C12.7203478 22.2589158 12.6071287 22.3058553 12.5236123 22.3893204 12.4400959 22.4728368 12.3932077 22.5860559 12.393259 22.7041485L12.393259 24.4848741C12.393259 24.9765846 11.9946067 25.3752369 11.5028963 25.3752369 11.0111858 25.3752369 10.6125335 24.9765846 10.6125335 24.4848741L10.6125335 24.0396927C10.6125335 23.7938118 10.413233 23.5945113 10.1673521 23.5945113 9.92147118 23.5945113 9.72217068 23.7938118 9.72217068 24.0396927L9.72217068 24.4848741C9.72217068 25.4683464 10.519424 26.2655997 11.5028963 26.2655997 12.4863685 26.2655997 13.2836219 25.4683464 13.2836219 24.4848741L13.2836219 22.7041485C13.2836731 22.5860559 13.2367336 22.4728368 13.1532685 22.3893204 13.0698034 22.3058553 12.956533 22.2589671 12.8384404 22.2589671zM12.8562415 0C6.09397822 0 .542600093 3.59705335.0128249998 8.1779381.391213795 6.55747372 2.00280327 5.34212543 3.93486385 5.34212543 5.41794683 5.30739533 6.80253381 6.08202532 7.54900011 7.36401231 7.6268735 7.50862701 7.7794397 7.5971195 7.943651 7.5929129 8.107811 7.5887063 8.2556576 7.49251881 8.3260412 7.34410791 9.01351249 6.01328332 10.5583607 5.06074494 12.3933103 4.92449214L12.3933103 10.6842509C12.3933103 10.9301318 12.5926108 11.1294323 12.8384917 11.1294323 13.0843726 11.1294323 13.2836731 10.9301318 13.2836731 10.6842509L13.2836731 4.92454344C15.1186228 5.06084754 16.663471 6.01338592 17.3509423 7.34415921 17.4213259 7.49257011 17.5691725 7.5887576 17.7333325 7.5929642 17.8974925 7.5971708 18.05011 7.50867831 18.1279834 7.36406361 18.8743984 6.08202532 20.2590366 5.30744663 21.7421196 5.34217673 23.8700949 5.34217673 25.6107039 6.81576921 25.739826 8.67657409 25.5705873 3.86412115 19.8634111 0 12.8562415 0z"/>
      <path d="M18.2499235,18.7028512 C18.0927916,18.6780733 17.9343259,18.7390177 17.8342909,18.8627533 C17.5608106,19.1710663 17.2265911,19.4195122 16.8526141,19.5925984 C16.3283281,18.6209251 16.0286848,17.5440355 15.9757432,16.4412394 C15.9711775,16.415179 15.9641494,16.3895803 15.9546589,16.3648024 L15.9546589,14.4730123 C15.9887734,14.4190447 16.0106785,14.3582029 16.0187839,14.2948474 C16.2126979,12.5454148 16.8998101,10.2925754 17.6719264,9.70262538 C17.8668664,9.55313718 17.903905,9.27401388 17.7547759,9.07881739 C17.6056468,8.88362089 17.3265748,8.84606929 17.1311218,8.99483929 C16.4291326,9.53148858 15.902179,10.7703836 15.5588794,12.019795 L9.27704058,12.019795 C9.03115969,12.019795 8.83185919,12.2190955 8.83185919,12.4649764 C8.83185919,12.7108573 9.03115969,12.9101578 9.27704058,12.9101578 L10.1674034,12.9101578 L10.1674034,14.245702 L8.38667779,14.245702 C7.8949673,14.245702 7.49631501,14.6443543 7.49631501,15.1360648 L7.49631501,16.471609 L8.80790209,16.471609 C8.75198509,17.5639399 8.45341909,18.6300565 7.933904,19.5925471 C7.55992701,19.4194609 7.22570751,19.171015 6.95222721,18.862702 C6.79760901,18.6714556 6.51720322,18.6417529 6.32595682,18.7964224 C6.13471042,18.9510406 6.10500772,19.2314464 6.25967722,19.4226928 C7.21524231,20.6047473 9.62285388,21.3686043 12.393259,21.3686043 C15.1636642,21.3686043 17.5713271,20.6047473 18.5268922,19.4226928 C18.6269272,19.2989572 18.6533467,19.1313088 18.5962498,18.9827953 C18.5391016,18.8343331 18.4071067,18.7276291 18.2499235,18.7028512 Z M11.0577662,12.9102091 L15.3441376,12.9102091 C15.2469241,13.3742689 15.1759249,13.8165262 15.1337563,14.1966079 C15.1342693,14.2130752 15.1357057,14.2294399 15.1381681,14.2457533 L11.0578175,14.2457533 L11.0578175,12.9102091 L11.0577662,12.9102091 Z M12.393259,20.4782415 C11.1618539,20.489784 9.93639948,20.3065917 8.76219379,19.9354362 C9.31664418,18.8712178 9.63603798,17.7003466 9.69893178,16.5020299 C9.69964998,16.4913595 9.69498168,16.4821255 9.69493038,16.471609 L15.0915877,16.471609 C15.0915877,16.4821768 15.0868681,16.4914108 15.0875863,16.5020299 C15.1504288,17.7003466 15.4698739,18.8712178 16.024273,19.9354362 C14.8501186,20.3065917 13.6246642,20.489784 12.393259,20.4782415 Z"/>
    </g>
  </g>
</svg>
