<svg width="27" height="32" viewBox="0 0 27 32" fill="none" xmlns="http://www.w3.org/2000/svg">
<g clip-path="url(#clip0_15_804)">
<path d="M17.6 21.3H23.1V26.4H17.6V21.3Z" fill="#EAEAEA" stroke="#939393" stroke-width="0.25"/>
<path d="M3.80005 21.3H8.90005V26.4H3.80005V21.3Z" fill="#EAEAEA" stroke="#939393" stroke-width="0.25"/>
<path d="M13.5 15.2V8.39999H15.7V15.1H13.5V15.2Z" fill="#042b62"/>
<path d="M11.2 15.2V10.7H13.4V15.2H11.2Z" fill="#ccd5e0"/>
<path d="M9 15.2V12.4H11.2V15.2H9Z" fill="#042b62"/>
<path d="M15.7 15.2V6.70001H18V15.1H15.7V15.2Z" fill="#ccd5e0"/>
<path d="M21.3 12.4C21.3 16.7 17.8 20.3 13.4 20.3C8.99997 20.3 5.49998 16.8 5.49998 12.4C5.49998 8 8.99997 4.5 13.4 4.5V0C6.59997 0 1.09998 5.5 1.09998 12.4C1.09998 19.3 6.59998 24.8 13.5 24.8C20.4 24.8 25.9 19.3 25.9 12.4H21.3Z" fill="#042b62"/>
<path d="M6.2 26.4V23.9C6.2 22.6 5.6 21.5 4.5 20.8V18.6C4.5 18 4 17.5 3.4 17.5C2.8 17.5 2.3 18 2.3 18.6V15.2C2.3 14.6 1.8 14.1 1.2 14C0.5 14 0 14.5 0 15.1V20.8C0 22.9 1 24.8 2.8 26L3.4 26.4H6.2Z" fill="#EAEAEA" stroke="#939393" stroke-width="0.25"/>
<path d="M6.69995 24.7H5.59995V23.9C5.59995 22.8 5.09995 21.8 4.19995 21.2C3.99995 21.1 3.89995 21 3.89995 20.8V18.6C3.89995 18.3 3.59995 18 3.29995 18C2.99995 18 2.69995 18.3 2.69995 18.6V21.4H1.69995V18.6C1.69995 17.7 2.49995 16.9 3.39995 16.9C4.29995 16.9 5.09995 17.7 5.09995 18.6V20.6C6.19995 21.4 6.79995 22.7 6.79995 24V24.7H6.69995Z" fill="#E2E2E2"/>
<path d="M1.69995 15.2H2.79995V21.4H1.69995V15.2Z" fill="#E2E2E2"/>
<path d="M3.40002 26.4H8.90002V32H3.40002V26.4Z" fill="#ccd5e0"/>
<path d="M20.8 26.4V23.9C20.8 22.6 21.4 21.4 22.5 20.8V18.6C22.5 18 23 17.5 23.6 17.5C24.2 17.5 24.7001 18 24.7001 18.6V15.2C24.7001 14.6 25.2 14.1 25.8 14C26.4 14 27 14.5 27 15.1V15.2V20.9C27 23 25.9001 24.9 24.2001 26.1L23.6 26.5L20.8 26.4Z" fill="#EAEAEA" stroke="#939393" stroke-width="0.25"/>
<path d="M21.2999 24.7H20.2V23.9C20.2 22.6 20.8 21.3 21.9 20.5V18.6C21.8 17.7 22.5 16.9 23.5 16.8C24.4 16.7 25.1999 17.4 25.2999 18.4C25.2999 18.5 25.2999 18.6 25.2999 18.7V21.5H24.2V18.7C24.2 18.4 23.9 18.1 23.6 18.1C23.3 18.1 23 18.4 23 18.7V20.9C23 21.1 22.8999 21.3 22.7999 21.4C21.8999 22 21.4 23 21.4 24.1L21.2999 24.7Z" fill="#E2E2E2"/>
<path d="M24.1 15.2H25.2V21.4H24.1V15.2Z" fill="#E2E2E2"/>
<path d="M17.6 26.4H23.6V32H17.6V26.4Z" fill="#ccd5e0"/>
</g>
<defs>
<clipPath id="clip0_15_804">
<rect width="27" height="32" fill="white"/>
</clipPath>
</defs>
</svg>
