<svg xmlns="http://www.w3.org/2000/svg" width="45" height="45" viewBox="0 0 45 45">
  <g fill="none" fill-rule="evenodd">
    <g fill="#65D48E">
      <circle cx="22.5" cy="22.5" r="22.5" opacity=".12"/>
      <circle cx="22.5" cy="22.5" r="18.947" opacity=".233"/>
    </g>
    <g opacity=".228" transform="rotate(-32 29.828 3.573)">
      <circle cx="1.399" cy="10.113" r="1.184" fill="#005263"/>
      <circle cx="18.14" cy=".9" r="1" fill="#005263"/>
      <circle cx="24.508" cy="22.195" r="1.184" fill="#005263"/>
      <circle cx="7.013" cy="28.143" r="1" fill="#47A395" transform="matrix(1 0 0 -1 0 56.287)"/>
    </g>
    <g fill="#005263" fill-rule="nonzero" transform="translate(12 10)">
      <path d="M21.8861012,20.4399989 C21.6461012,20.0399989 21.1261013,19.9199989 20.7261013,20.1199989 C20.2461013,20.3599989 19.7261014,20.5999989 19.1261014,20.8399989 C18.5261014,19.9199989 17.7661015,18.519999 17.2061015,16.6799991 C17.5661015,16.5599991 17.8061015,16.1999992 17.8061015,15.7999992 L17.8061015,15.3199992 C17.8061015,14.7999992 17.3661015,14.3599993 16.8461015,14.3599993 L16.6861015,14.3599993 C16.6461015,14.1999993 16.6461015,13.9999993 16.6061015,13.8399993 C16.6061015,13.5999993 16.6061015,13.2799993 16.5661015,12.9599993 L17.0461015,12.9599993 C17.4861015,12.9599993 17.8461015,12.5999994 17.8461015,12.1599994 C17.8461015,11.7199994 17.4861015,11.3599994 17.0461015,11.3599994 L6.92610212,11.3599994 C6.56610214,7.71999966 5.08610223,4.91999983 4.12610228,3.47999991 C3.8861023,3.11999993 3.40610233,2.99999994 3.04610235,3.23999993 C2.68610237,3.47999991 2.56610238,3.95999988 2.80610236,4.31999986 C3.8461023,5.87999977 5.5661022,9.15999957 5.44610221,13.4399993 C5.32610221,16.7999991 4.20610228,19.399999 3.24610234,20.9999989 C3.20610234,21.0399989 3.20610234,21.1199989 3.16610234,21.1999989 C2.44610238,20.9199989 1.80610242,20.6799989 1.24610246,20.3999989 C0.806102483,20.1999989 0.326102511,20.3599989 0.0861025256,20.7199989 C-0.113897462,21.1199989 0.046102528,21.5999988 0.446102504,21.7599988 C2.68610237,22.7999988 6.24610216,24.0399987 10.7261019,24.0399987 C10.8061019,24.0399987 10.9261019,24.0399987 11.0061019,24.0399987 C15.6461016,23.9999987 19.2861014,22.6399988 21.5261012,21.5199988 C21.9661012,21.3199988 22.1261012,20.8399989 21.8861012,20.4399989 Z M15.0861016,13.8799993 C15.0861016,14.0399993 15.1261016,14.2399993 15.1661016,14.3999993 L13.5661017,14.3999993 L13.5661017,12.9199993 L15.0061016,12.9199993 C15.0061016,13.2799993 15.0461016,13.5999993 15.0861016,13.8799993 Z M9.28610198,14.3999993 L9.28610198,12.9199993 L10.6061019,12.9199993 L10.6061019,14.3999993 L9.28610198,14.3999993 Z M11.4061019,12.9599993 L12.7261018,12.9599993 L12.7261018,14.3999993 L11.4061019,14.3999993 L11.4061019,12.9599993 Z M7.00610211,13.5599993 C7.00610211,13.3599993 7.00610211,13.1599993 7.00610211,12.9599993 L8.48610202,12.9599993 L8.48610202,14.3999993 L6.96610212,14.3999993 C6.96610212,14.1199993 7.00610211,13.8399993 7.00610211,13.5599993 Z M11.0461019,22.4799988 C8.64610202,22.5199988 6.48610214,22.1599991 4.68610225,21.6399988 C5.32610221,20.5199989 6.04610217,18.999999 6.48610214,17.1599991 L15.6861023,17.1599991 C16.2461016,18.959999 16.9661015,20.3999989 17.6061015,21.3999988 C15.8061016,21.9999988 13.6061017,22.4399988 11.0461019,22.4799988 Z"/>
      <g transform="translate(8)">
        <path d="M7.3775514,1.09267191 L7.09531142,1.09267191 L7.09531142,8.02671343 C7.09531142,8.48735931 6.72033545,8.8623252 6.25968957,8.8623252 L3.39998372,8.8623252 L1.12593591,8.8623252 L1.12593591,9.11936518 C1.12593591,9.41371123 1.36483189,9.65259713 1.65916786,9.65259713 L4.51785563,9.65259713 L7.3765434,9.65259713 C7.67087937,9.65259713 7.90976527,9.41371123 7.90976527,9.11936518 L7.90976527,1.62590387 C7.90976527,1.33156789 7.67188737,1.09267191 7.3775514,1.09267191 Z"/>
        <path d="M3.39998372,8.55992522 L6.25867149,8.55992522 C6.55300747,8.55992522 6.79190345,8.32103932 6.79190345,8.02671343 L6.79190345,1.09267191 L6.79190345,0.533231956 C6.79190345,0.238895981 6.55300747,0 6.25867149,0 L3.39998372,0 L2.4494398,0 L2.4494398,0.176399986 C2.45144572,0.194543984 2.4524638,0.213695983 2.4524638,0.232847981 L2.4524638,1.39507189 L2.4524638,1.69343986 C2.4524638,2.10772783 2.11579183,2.4443998 1.70150386,2.4443998 L1.40313589,2.4443998 L0.24091198,2.4443998 C0.225791982,2.4443998 0.209663983,2.4433918 0.194543984,2.4423838 L0.00907199926,2.4423838 L0.00907199926,8.02671343 C0.00907199926,8.32103932 0.24796798,8.55992522 0.542303956,8.55992522 L1.12694391,8.55992522 L3.39998372,8.55992522 L3.39998372,8.55992522 Z M3.50783971,6.74755145 L1.64404787,6.74755145 C1.50494388,6.74755145 1.39204789,6.63464538 1.39204789,6.49555147 C1.39204789,6.3564374 1.50494388,6.24355149 1.64404787,6.24355149 L3.50884771,6.24355149 C3.6479517,6.24355149 3.76084769,6.3564374 3.76084769,6.49555147 C3.76084769,6.63464538 3.6469437,6.74755145 3.50783971,6.74755145 Z M5.37263956,5.46135363 L1.64404787,5.46135363 C1.50494388,5.46135363 1.39204789,5.34844756 1.39204789,5.20935365 C1.39204789,5.07023959 1.50494388,4.95735368 1.64404787,4.95735368 L5.37263956,4.95735368 C5.51174355,4.95735368 5.62463954,5.07023959 5.62463954,5.20935365 C5.62463954,5.34844756 5.51174355,5.46135363 5.37263956,5.46135363 Z M1.64404787,3.59150371 L5.37263956,3.59150371 C5.51174355,3.59150371 5.62463954,3.7043997 5.62463954,3.84350369 C5.62463954,3.98260768 5.51174355,4.09550367 5.37263956,4.09550367 L1.64404787,4.09550367 C1.50494388,4.09550367 1.39204789,3.98260768 1.39204789,3.84350369 C1.39204789,3.7043997 1.50494388,3.59150371 1.64404787,3.59150371 Z"/>
        <path d="M0.24091198,2.14199983 L1.70150386,2.14199983 C1.70251186,2.14199983 1.70452786,2.14199983 1.70553586,2.14199983 C1.94947184,2.13998383 2.14703982,1.94241584 2.14905582,1.69847986 C2.14905582,1.69747186 2.14905582,1.69545586 2.14905582,1.69444786 L2.14905582,0.232847981 C2.14905582,0.097775992 2.03817583,0.00806399934 1.92327392,0.00806399934 C1.86783393,0.00806399934 1.81239393,0.0282239977 1.76602594,0.0745919939 L0.0816479933,1.75895986 C-0.0594719951,1.90007984 0.0403199967,2.14199983 0.24091198,2.14199983 Z"/>
      </g>
    </g>
  </g>
</svg>
