<svg xmlns="http://www.w3.org/2000/svg" width="45" height="45" viewBox="0 0 45 45">
  <g fill="none" fill-rule="evenodd">
    <g fill="#65D48E">
      <circle cx="22.5" cy="22.5" r="22.5" opacity=".12"/>
      <circle cx="22.5" cy="22.5" r="18.947" opacity=".233"/>
    </g>
    <g opacity=".228" transform="rotate(-32 29.084 7.56)">
      <circle cx="1.491" cy="12.279" r="1.184" fill="#005263"/>
      <circle cx="15.688" cy="1.477" r="1" fill="#005263"/>
      <circle cx="29.581" cy="14.502" r="1.184" fill="#005263"/>
      <circle cx="22.899" cy="29.566" r="1" fill="#47A395" transform="matrix(1 0 0 -1 0 59.132)"/>
    </g>
    <g fill="#005263" fill-rule="nonzero" transform="translate(15 9)">
      <path d="M7.97999986,10.6399998 C10.9134646,10.6399998 13.2999998,8.25346469 13.2999998,5.31999991 C13.2999998,2.38653513 10.9134646,0 7.97999986,0 C5.04653509,0 2.65999995,2.38653513 2.65999995,5.31999991 C2.65999995,8.25346469 5.04653509,10.6399998 7.97999986,10.6399998 Z M6.54546027,4.28227489 C6.49181816,4.28258849 6.44028175,4.26238585 6.40237588,4.22618478 C6.36447001,4.18998371 6.3433569,4.14080421 6.34375796,4.08964404 C6.34463804,4.03921383 6.3667317,3.9912368 6.40507226,3.95649821 C6.44341283,3.92175962 6.49478309,3.90317445 6.54763496,3.90492065 L6.54984363,3.90492065 L8.63720436,3.91856425 C8.54433495,3.37720772 8.05900499,2.9765463 7.48394011,2.96649341 L6.55969768,2.95706279 C6.44695218,2.95601153 6.35638045,2.8681073 6.35724782,2.76057544 C6.35714954,2.70906723 6.37876077,2.65968255 6.41722301,2.6235237 C6.45568525,2.58736484 6.5077709,2.56746614 6.56177043,2.56827582 L7.48261491,2.57786132 L7.48261491,2.57857428 L9.79070648,2.60307444 C9.90492792,2.60285967 9.99770526,2.69099691 9.99793086,2.79993448 C9.99815565,2.90887206 9.90574343,2.99735752 9.79152199,2.99757231 L9.78931332,2.99757231 L8.54566359,2.98204906 C8.82579238,3.22592585 9.00459293,3.5577706 9.04940969,3.91697628 L9.77867773,3.92630967 C9.892008,3.92920733 9.98187043,4.01840679 9.98038005,4.1265239 C9.97978122,4.23455739 9.88971924,4.32280093 9.77650305,4.32628442 L9.7742604,4.32628442 L9.04499235,4.31140933 C8.93332685,5.05769228 8.26214639,5.61139931 7.47174147,5.60930181 L7.45447988,5.60930181 L7.04305608,5.60508882 L8.96024748,7.37049351 C9.04125247,7.44508439 9.04351923,7.56818199 8.96531042,7.6454397 C8.88710162,7.72269741 8.75803333,7.72485931 8.67702834,7.65026843 L6.39105742,5.54536159 C6.33110701,5.49002037 6.31256117,5.40542614 6.3442404,5.33181227 C6.37591962,5.25819839 6.45143007,5.21042238 6.53485867,5.21120669 L7.45882925,5.22092898 C7.46307669,5.22092898 7.46746005,5.22147991 7.47170749,5.22147991 C8.04024856,5.2210232 8.52797043,4.83474432 8.63288897,4.30181668 L6.54546027,4.28227489 Z"/>
      <g transform="translate(0 11.97)">
        <path d="M1.9798779,12.3532794 L14.0193039,12.3532794 L14.0193039,2.0692938 L1.9798779,2.0692938 L1.9798779,12.3532794 Z M6.05534369,5.59098749 C6.81108959,5.59098749 7.44757438,6.11116379 7.62576778,6.81220679 L11.1651372,6.81220679 L11.1651372,7.61020678 L7.62576778,7.61020678 C7.44753448,8.31128968 6.81108959,8.83150588 6.05534369,8.83150588 C5.16190289,8.83150588 4.43508449,8.10460768 4.43508449,7.21120678 C4.43508449,6.31784579 5.16190289,5.59098749 6.05534369,5.59098749 Z"/>
        <path d="M-3.55271368e-15,3.55271368e-15 L-3.55271368e-15,14.4225333 L1.1670351,14.4225333 L1.1670351,15.6412788 L2.56353509,15.6412788 L2.56353509,14.4225333 L13.4356467,14.4225333 L13.4356467,15.6412788 L14.8321467,15.6412788 L14.8321467,14.4225333 L15.9991818,14.4225333 L15.9991818,3.55271368e-15 L-3.55271368e-15,3.55271368e-15 Z M1.1818779,13.1512794 L1.1818779,1.2712938 L14.8173039,1.2712938 L14.8173039,13.1512794 L1.1818779,13.1512794 Z"/>
      </g>
    </g>
  </g>
</svg>
