<svg xmlns="http://www.w3.org/2000/svg" width="45" height="45" viewBox="0 0 45 45">
  <g fill="none" fill-rule="evenodd">
    <g fill="#65D48E">
      <circle cx="22.5" cy="22.5" r="22.5" opacity=".12"/>
      <circle cx="22.5" cy="22.5" r="18.947" opacity=".233"/>
    </g>
    <g opacity=".228" transform="rotate(-32 29.828 3.573)">
      <circle cx="1.399" cy="10.113" r="1.184" fill="#005263"/>
      <circle cx="18.14" cy=".9" r="1" fill="#005263"/>
      <circle cx="24.508" cy="22.195" r="1.184" fill="#005263"/>
      <circle cx="7.013" cy="28.143" r="1" fill="#47A395" transform="matrix(1 0 0 -1 0 56.287)"/>
    </g>
    <g fill="#005263" fill-rule="nonzero" transform="translate(13 11)">
      <path d="M17.5655999,2.60159999 L16.8935999,2.60159999 L16.8935999,19.1112239 C16.8935999,20.2079999 16.0007999,21.1007759 14.9040239,21.1007759 L8.09519996,21.1007759 L2.68079999,21.1007759 L2.68079999,21.7127759 C2.68079999,22.4135999 3.24959998,22.9823759 3.95039998,22.9823759 L10.7567999,22.9823759 L17.5631999,22.9823759 C18.2639999,22.9823759 18.8327759,22.4135999 18.8327759,21.7127759 L18.8327759,3.87119998 C18.8327759,3.17039998 18.2663999,2.60159999 17.5655999,2.60159999 Z"/>
      <path d="M8.09519996,20.3807759 L14.9015999,20.3807759 C15.6023999,20.3807759 16.1711999,19.8119999 16.1711999,19.1112239 L16.1711999,2.60159999 L16.1711999,1.26959999 C16.1711999,0.568799997 15.6023999,0 14.9015999,0 L8.09519996,0 L5.83199997,0 L5.83199997,0.419999998 C5.83677597,0.463199998 5.83919997,0.508799997 5.83919997,0.554399997 L5.83919997,3.32159998 L5.83919997,4.03199998 C5.83919997,5.01839998 5.03759997,5.81999997 4.05119998,5.81999997 L3.34079998,5.81999997 L0.573599997,5.81999997 C0.537599997,5.81999997 0.499199998,5.81759997 0.463199998,5.81519997 L0.0215999999,5.81519997 L0.0215999999,19.1112239 C0.0215999999,19.8119999 0.590399997,20.3807759 1.29119999,20.3807759 L2.68319999,20.3807759 L8.09519996,20.3807759 L8.09519996,20.3807759 Z M8.35199996,16.0655999 L3.91439998,16.0655999 C3.58319998,16.0655999 3.31439998,15.7967759 3.31439998,15.4655999 C3.31439998,15.1343759 3.58319998,14.8655999 3.91439998,14.8655999 L8.35439996,14.8655999 C8.68559996,14.8655999 8.95439996,15.1343759 8.95439996,15.4655999 C8.95439996,15.7967759 8.68319996,16.0655999 8.35199996,16.0655999 Z M12.7919999,13.0032239 L3.91439998,13.0032239 C3.58319998,13.0032239 3.31439998,12.7343999 3.31439998,12.4032239 C3.31439998,12.0719999 3.58319998,11.8032239 3.91439998,11.8032239 L12.7919999,11.8032239 C13.1231999,11.8032239 13.3919999,12.0719999 13.3919999,12.4032239 C13.3919999,12.7343999 13.1231999,13.0032239 12.7919999,13.0032239 Z M3.91439998,8.55119996 L12.7919999,8.55119996 C13.1231999,8.55119996 13.3919999,8.81999996 13.3919999,9.15119995 C13.3919999,9.48239995 13.1231999,9.75119995 12.7919999,9.75119995 L3.91439998,9.75119995 C3.58319998,9.75119995 3.31439998,9.48239995 3.31439998,9.15119995 C3.31439998,8.81999996 3.58319998,8.55119996 3.91439998,8.55119996 Z"/>
      <path d="M0.573599997,5.09999997 L4.05119998,5.09999997 C4.05359998,5.09999997 4.05839998,5.09999997 4.06079998,5.09999997 C4.64159998,5.09519997 5.11199997,4.62479998 5.11679997,4.04399998 C5.11679997,4.04159998 5.11679997,4.03679998 5.11679997,4.03439998 L5.11679997,0.554399997 C5.11679997,0.232799999 4.85279998,0.0191999999 4.57922398,0.0191999999 C4.44722398,0.0191999999 4.31522398,0.0671999997 4.20482398,0.177599999 L0.194399999,4.18799998 C-0.141599999,4.52399998 0.0959999995,5.09999997 0.573599997,5.09999997 Z"/>
    </g>
  </g>
</svg>
