<svg xmlns="http://www.w3.org/2000/svg" width="45" height="45" viewBox="0 0 45 45">
  <g fill="none" fill-rule="evenodd">
    <g fill="#65D48E">
      <circle cx="22.5" cy="22.5" r="22.5" opacity=".12"/>
      <circle cx="22.5" cy="22.5" r="18.947" opacity=".233"/>
    </g>
    <g opacity=".228" transform="rotate(-32 29.084 7.56)">
      <circle cx="1.491" cy="12.279" r="1.184" fill="#005263"/>
      <circle cx="15.688" cy="1.477" r="1" fill="#005263"/>
      <circle cx="29.581" cy="14.502" r="1.184" fill="#005263"/>
      <circle cx="22.899" cy="29.566" r="1" fill="#47A395" transform="matrix(1 0 0 -1 0 59.132)"/>
    </g>
    <g transform="translate(14 11)">
      <path fill="#005263" fill-rule="nonzero" d="M10.4253666,19.1250404 C10.7995254,19.1250404 10.568706,17.4636406 11.681104,17.2968757 C12.5517156,17.1663581 12.8532893,17.1804267 13.6312872,16.6277533 C14.0631597,16.3209601 13.8299527,15.4038154 13.6312872,14.9241583 C12.7566655,12.8124761 12.1050005,10.9189824 12.9123418,9.56250038 C13.7196832,8.20601839 15.0750006,8.52453774 15.0750006,8.45266147 C15.0750006,7.11680351 15.0750006,5.11301658 15.0750006,2.44130066 L15.0750006,1.19137274 C15.0750006,0.533753005 14.5440487,2.66453526e-14 13.8898802,2.66453526e-14 L7.53638015,2.66453526e-14 L5.42377418,2.66453526e-14 L5.42377418,0.394121417 C5.42823238,0.43465962 5.43049509,0.477449945 5.43049509,0.520240271 L5.43049509,3.11693738 L5.43049509,3.7835656 C5.43049509,4.7091879 4.6822338,5.46139678 3.76146916,5.46139678 L3.0983394,5.46139678 L0.515269749,5.46139678 C0.4816652,5.46139678 0.445820348,5.45914466 0.412215799,5.45689254 L0,5.45689254 L0,17.9336731 C0,18.5912703 0.530951871,19.1250404 1.18512042,19.1250404 L2.48449631,19.1250404 L7.53638015,19.1250404 C8.82037414,19.1250404 9.78336963,19.1250404 10.4253666,19.1250404 Z M7.7760926,15.0757072 L3.63377188,15.0757072 C3.32461003,15.0757072 3.07369607,14.823447 3.07369607,14.5126766 C3.07369607,14.2018612 3.32461003,13.949646 3.63377188,13.949646 L7.7783329,13.949646 C8.08749475,13.949646 8.33840871,14.2018612 8.33840871,14.5126766 C8.33840871,14.823447 8.08525445,15.0757072 7.7760926,15.0757072 Z M11.9206536,12.2020216 L3.63377188,12.2020216 C3.32461003,12.2020216 3.07369607,11.9497614 3.07369607,11.638991 C3.07369607,11.3281756 3.32461003,11.0759604 3.63377188,11.0759604 L11.9206536,11.0759604 C12.2298155,11.0759604 12.4807294,11.3281756 12.4807294,11.638991 C12.4807294,11.9497614 12.2298155,12.2020216 11.9206536,12.2020216 Z M3.63377188,8.02431205 L11.9206536,8.02431205 C12.2298155,8.02431205 12.4807294,8.27654976 12.4807294,8.58734265 C12.4807294,8.89813554 12.2298155,9.15037324 11.9206536,9.15037324 L3.63377188,9.15037324 C3.32461003,9.15037324 3.07369607,8.89813554 3.07369607,8.58734265 C3.07369607,8.27654976 3.32461003,8.02431205 3.63377188,8.02431205 Z"/>
      <path fill="#005263" fill-rule="nonzero" d="M0.49903495,4.72500019 L3.73380707,4.72500019 C3.73603949,4.72500019 3.74050432,4.72500019 3.74273674,4.72500019 C4.28298164,4.72053632 4.72053535,4.28307764 4.72500019,3.74295008 C4.72500019,3.74071815 4.72500019,3.73625428 4.72500019,3.73402235 L4.72500019,0.497720851 C4.72500019,0.198641954 4.47943433,1.13686838e-13 4.22496112,1.13686838e-13 C4.10217819,1.13686838e-13 3.97939526,0.0446386414 3.87670408,0.147307516 L0.146313076,3.876866 C-0.166225293,4.18933649 0.0547839823,4.72500019 0.49903495,4.72500019 Z"/>
      <path fill="#005263" fill-rule="nonzero" d="M6.71175018 8.97750024L5.13000014 8.97750024 5.13000014 8.97750024C5.13000014 7.2619427 5.53484265 4.95643513 6.36590267 3.45591009 6.55058268 3.12288758 6.64164018 2.73942007 6.64164018 2.33115756 6.64164018 1.04352753 5.59084515-8.8817842e-16 4.30321512-8.8817842e-16 3.01558508-8.8817842e-16 1.96821005 1.04352753 1.96821005 2.33115756 1.96821005 2.73942007 2.02250255 3.12288758 2.20718256 3.45591009 3.03183008 4.94574763 3.42000009 7.2743402 3.42000009 8.97750024L3.42000009 8.97750024 1.87929005 8.97750024C.841747523 8.97750024 0 9.82010277 0 10.8576453L0 11.5425003 8.55000023 11.5425003 8.55000023 10.8576453C8.55000023 9.82010277 7.75014771 8.97750024 6.71175018 8.97750024zM.855000023 12.3098628C.855000023 12.7347978 1.19443503 13.2525004 1.61979754 13.2525004L6.77074518 13.2525004C7.1961077 13.2525004 7.69500021 12.7347978 7.69500021 12.3098628L7.69500021 11.9700003.855000023 11.9700003.855000023 12.3098628z" transform="translate(11.25 8.775)"/>
      <path fill="#005263" d="M2,11 L12,11 C12.3873437,10.9817187 12.5810156,11.2567448 12.5810156,11.8250781 C12.5810156,12.3934115 12.3873437,12.7850521 12,13 L2,13 L2,11 Z"/>
      <rect width="8" height="1.2" x="3" y="11" fill="#CDF1DB" rx=".6"/>
    </g>
  </g>
</svg>
