<svg xmlns="http://www.w3.org/2000/svg" width="45" height="45" viewBox="0 0 45 45">
  <g fill="none" fill-rule="evenodd">
    <g fill="#65D48E">
      <circle cx="22.5" cy="22.5" r="22.5" opacity=".12"/>
      <circle cx="22.5" cy="22.5" r="18.947" opacity=".233"/>
    </g>
    <g opacity=".228" transform="rotate(-32 39.046 2.817)">
      <circle cx="29.006" cy="13.484" r="1.184" fill="#005263"/>
      <circle cx="5.276" cy="1.859" r="1" fill="#005263"/>
      <circle cx="24.764" cy="1.401" r="1.184" fill="#005263"/>
      <circle cx=".91" cy="17.526" r="1" fill="#47A395" transform="matrix(1 0 0 -1 0 35.052)"/>
    </g>
    <path fill="#005263" fill-rule="nonzero" d="M23.5,17 C25.9813142,17 28,14.9813142 28,12.5 C28,10.0186858 25.9813142,8 23.5,8 C21.0186858,8 19,10.0186858 19,12.5 C19,14.9813142 21.0186858,17 23.5,17 Z M22.2865736,11.6222251 C22.2411997,11.6224903 22.1976068,11.6054016 22.1655436,11.5747804 C22.1334804,11.5441592 22.1156215,11.50256 22.1159608,11.4592854 C22.1167052,11.4166283 22.1353934,11.3760462 22.1678244,11.3466621 C22.2002553,11.3172779 22.2437076,11.3015574 22.2884131,11.3030344 L22.2902814,11.3030344 L24.0559061,11.3145751 C23.9773511,10.8566607 23.5668276,10.5177554 23.0804006,10.509252 L22.2986166,10.501275 C22.2032491,10.5003857 22.1266377,10.4260307 22.1273714,10.3350732 C22.1272882,10.2915043 22.1455684,10.2497315 22.1781023,10.219146 C22.2106361,10.1885605 22.2546935,10.1717289 22.3003698,10.1724138 L23.0792796,10.1805218 L23.0792796,10.1811249 L25.0316128,10.2018487 C25.1282287,10.201667 25.2067057,10.2762192 25.2068966,10.3683657 C25.2070867,10.4605121 25.1289185,10.5353589 25.0323026,10.5355405 L25.0304343,10.5355405 L23.978475,10.52241 C24.215426,10.7286967 24.3666671,11.0093925 24.404576,11.3132319 L25.0214381,11.3211267 C25.1173001,11.3235777 25.1933116,11.3990284 25.1920509,11.4904808 C25.1915444,11.5818625 25.1153642,11.6565046 25.0195986,11.6594512 L25.0177016,11.6594512 L24.4008395,11.6468689 C24.3063856,12.2781232 23.7386578,12.7464845 23.0700822,12.7447103 L23.0554812,12.7447103 L22.7074724,12.7411466 L24.3291568,14.2344401 C24.3976761,14.2975339 24.3995935,14.4016578 24.3334394,14.4670074 C24.2672853,14.5323569 24.158111,14.5341856 24.0895918,14.4710918 L22.1559697,12.6906255 C22.1052598,12.6438143 22.0895725,12.572259 22.1163688,12.5099917 C22.1431652,12.4477243 22.2070368,12.4073122 22.2776061,12.4079757 L23.0591602,12.4161994 C23.0627529,12.4161994 23.0664607,12.4166654 23.0700534,12.4166654 C23.5509622,12.4162791 23.9635089,12.0895394 24.0522558,11.6387548 L22.2865736,11.6222251 Z"/>
    <g fill="#005263" fill-rule="nonzero" transform="translate(14 19)">
      <path d="M11.4703197,4.59377988 L6.52967983,4.59377988 L2.00159995,15.0796796 L15.9983996,15.0796796 L11.4703197,4.59377988 Z M9.45233975,14.5605596 L8.54765977,14.5605596 L8.54765977,12.7488597 L9.45233975,12.7488597 L9.45233975,14.5605596 L9.45233975,14.5605596 Z M9.45233975,10.9358997 L8.54765977,10.9358997 L8.54765977,9.12419976 L9.45233975,9.12419976 L9.45233975,10.9358997 L9.45233975,10.9358997 Z M9.45233975,7.31249981 L8.54765977,7.31249981 L8.54765977,5.50079985 L9.45233975,5.50079985 L9.45233975,7.31249981 L9.45233975,7.31249981 Z"/>
      <path d="M18,0 L18,7.6546798 L14.3355596,7.6546798 C14.3485196,7.5047398 14.3591396,7.35461981 14.3591396,7.20233981 C14.3591396,4.21289989 11.9356197,1.78829995 8.94491976,1.78829995 C5.95655984,1.78829995 3.53213991,4.21289989 3.53213991,7.20233981 C3.53213991,7.35461981 3.54275991,7.5047398 3.55445991,7.6546798 L0,7.6546798 L0,0 L18,0 Z"/>
    </g>
  </g>
</svg>
