<svg xmlns="http://www.w3.org/2000/svg" width="45" height="45" viewBox="0 0 45 45">
  <g fill="none" fill-rule="evenodd">
    <g fill="#65D48E">
      <circle cx="22.5" cy="22.5" r="22.5" opacity=".12"/>
      <circle cx="22.5" cy="22.5" r="18.947" opacity=".233"/>
    </g>
    <g opacity=".228" transform="rotate(-32 29.084 7.56)">
      <circle cx="1.491" cy="12.279" r="1.184" fill="#005263"/>
      <circle cx="15.688" cy="1.477" r="1" fill="#005263"/>
      <circle cx="29.581" cy="14.502" r="1.184" fill="#005263"/>
      <circle cx="22.899" cy="29.566" r="1" fill="#47A395" transform="matrix(1 0 0 -1 0 59.132)"/>
    </g>
    <path fill="#005263" d="M12.5466893,18.9728601 L14.2869269,14.3382046 C14.9235992,13.1273486 15.8998301,12.3757829 17.0458403,12 L27.9541593,12 C29.1001695,12.3757829 30.0339555,13.1273486 30.7130727,14.3382046 L32.4533103,18.9728601 L34.7028858,18.9728601 C34.8726651,18.9728601 35,19.0981211 35,19.2651357 L35,20.1837161 C35,20.3507307 34.8726651,20.5177453 34.7028858,20.5177453 L33.3870964,20.5177453 C33.7690998,20.9770355 34.1511032,21.519833 34.5331065,22.2296451 C34.5331065,25.0271399 34.5755514,27.8246347 34.5755514,30.6638831 C34.5755514,31.3736952 33.9813239,32 33.2173171,32 L32.283531,32 C31.5195243,32 30.9252968,31.3736952 30.9252968,30.6638831 L30.9252968,28.9519833 L14.0747028,28.9519833 L14.0747028,30.6638831 C14.0747028,31.3736952 13.4804753,32 12.7164685,32 L11.7826825,32 C11.0186757,32 10.4244482,31.3736952 10.4244482,30.6638831 C10.4244482,27.8246347 10.466893,25.0271399 10.466893,22.2296451 C10.8488964,21.519833 11.2308998,20.9770355 11.6129032,20.5177453 L10.2971137,20.5177453 C10.1273345,20.5177453 10,20.3507307 10,20.1837161 L10,19.2651357 C10,19.0981211 10.1273345,18.9728601 10.2971137,18.9728601 L12.5466893,18.9728601 Z M17.2580644,13.8371608 C16.5365024,13.9624217 16.0696094,14.4217119 15.8149405,15.006263 C15.3056026,16.3841336 14.75382,17.9707724 14.2869269,19.348643 L30.7130727,19.348643 C30.2461796,17.9707724 29.6519521,16.3841336 29.1850591,15.006263 C28.8879453,14.4217119 28.4634971,13.9624217 27.7419352,13.8371608 L17.2580644,13.8371608 Z M30.2461796,22.3549061 C29.3972832,22.3549061 28.7181661,23.0229645 28.7181661,23.8580376 C28.7181661,24.6931106 29.3972832,25.3611691 30.2461796,25.3611691 C31.0526312,25.3611691 31.7317484,24.6931106 31.7317484,23.8580376 C31.7317484,23.0229645 31.0526312,22.3549061 30.2461796,22.3549061 Z M14.75382,22.3549061 C15.6027164,22.3549061 16.2818335,23.0229645 16.2818335,23.8580376 C16.2818335,24.6931106 15.6027164,25.3611691 14.75382,25.3611691 C13.9473684,25.3611691 13.2682512,24.6931106 13.2682512,23.8580376 C13.2682512,23.0229645 13.9473684,22.3549061 14.75382,22.3549061 Z"/>
  </g>
</svg>
