<svg width="32" height="32" viewBox="0 0 32 32" fill="none" xmlns="http://www.w3.org/2000/svg">
<g clip-path="url(#clip0_15_418)">
<path d="M27.6 4.6H23.9V11H27.6V4.6Z" fill="#042b62"/>
<path d="M2.79999 17.6V31.3C2.79999 31.7 3.09999 32 3.59999 32.1H28.2C28.6 32.1 29 31.8 29 31.3V17.6C29 17.4 28.9 17.2 28.8 17.1L15.9 4.2C10.9 9.3 7.99999 12.1 2.99999 17C2.89999 17.2 2.79999 17.4 2.79999 17.6Z" fill="#EAEAEA" stroke="#939393" stroke-width="0.25"/>
<path d="M29 17.3L15.9 4.2C13.3 6.7 11.3 8.7 9.29999 10.7L2.79999 17.2V20.2L15.9 7.2L29 20.3V20.7V17.3Z" fill="#E2E2E2"/>
<path d="M13.5 32H5.70001V24.3C5.70001 22.1 7.50001 20.4 9.60001 20.4C11.8 20.4 13.5 22.2 13.5 24.3V32Z" fill="white"/>
<path d="M18.6 20H23.6C23.8 20 24 20.2 24 20.4V24.7C24 24.9 23.8 25.1 23.6 25.1H18.6C18.4 25.1 18.2 24.9 18.2 24.7V20.4C18.2 20.2 18.4 20 18.6 20Z" fill="white"/>
<path d="M31.4 14.5L17.5 0.6C16.7 -0.2 15.3 -0.2 14.5 0.6L0.6 14.5C-0.2 15.3 -0.2 16.7 0.6 17.5C1.4 18.3 2.8 18.3 3.6 17.5L16 5.1L28.4 17.5C29.2 18.3 30.6 18.3 31.4 17.5C32.2 16.7 32.2 15.4 31.4 14.5Z" fill="#042b62"/>
</g>
<defs>
<clipPath id="clip0_15_418">
<rect width="32" height="32" fill="white"/>
</clipPath>
</defs>
</svg>
