<svg width="135" height="47" viewBox="0 0 135 47" fill="none" xmlns="http://www.w3.org/2000/svg">
<g clip-path="url(#clip0_8_2)">
<path d="M10.2778 25.9259H15.5926C16.9074 25.9259 17.9815 24.8519 17.9815 23.537V21.3704H12.6667C11.3519 21.3704 10.2778 22.4445 10.2778 23.7593V25.9259Z" fill="white"/>
<path d="M9.50001 10.6852C6.61112 10.6852 4.27779 13.0185 4.27779 15.9074V35.5926H4.53705C7.35186 35.5926 9.64816 33.4259 9.87038 30.6667V21.1296C9.87038 21.0926 9.87038 21.0741 9.8889 21.037V18.1296C9.8889 16.537 11.1852 15.2407 12.7778 15.2407H14.1852C16.6667 15.2407 18.6667 13.2407 18.6667 10.7593V10.6667H9.48149L9.50001 10.6852Z" fill="white"/>
<path d="M24.0926 35.6111H23.3148V15.7037C23.3148 12.9444 25.5556 10.6852 28.3333 10.6852H28.9259V30.7593C28.9259 33.4259 26.7593 35.5926 24.0926 35.5926V35.6111Z" fill="white"/>
<path d="M51.4074 35.6111H50.8519L40.5926 19.963C39.9815 19.0556 39.5741 18.3519 39.3333 17.8889H39.2593C39.3519 18.7778 39.4074 20.1111 39.4074 21.9259V31.1111C39.4074 33.5926 37.3889 35.6111 34.9074 35.6111H34.1111V16.4815C34.1111 13.2963 36.7037 10.7037 39.8889 10.7037H40.1482L50.037 25.8704C50.4815 26.5556 50.9074 27.2222 51.2963 27.9074H51.3704C51.2778 27.3333 51.2222 26.1852 51.2222 24.4815V15.2593C51.2222 12.7407 53.2593 10.7037 55.7778 10.7037H56.5185V30.5C56.5185 33.3333 54.2222 35.6111 51.4074 35.6111Z" fill="white"/>
<path d="M75.0926 15.2593H71.8333V30.4815C71.8333 33.3148 69.5371 35.6111 66.7037 35.6111H66.2037V15.2593H59.1296V14.5185C59.1296 12.4074 60.8519 10.6852 62.963 10.6852H78.9259V11.4259C78.9259 13.537 77.2037 15.2593 75.0926 15.2593Z" fill="white"/>
<path fill-rule="evenodd" clip-rule="evenodd" d="M119.333 36.037C115.759 36.037 112.852 34.8704 110.611 32.5556C108.37 30.2407 107.241 27.2037 107.241 23.4815C107.241 19.7593 108.389 16.3519 110.667 13.9259C112.944 11.5 115.963 10.2778 119.741 10.2778C123.519 10.2778 126.167 11.4444 128.37 13.7778C130.574 16.1111 131.667 19.1667 131.667 22.9815C131.667 26.7963 130.537 30.0556 128.259 32.4444C125.981 34.8333 123.019 36.037 119.352 36.037H119.333ZM119.574 15.1111C117.611 15.1111 116.037 15.8519 114.889 17.3333C113.722 18.8148 113.148 20.7593 113.148 23.2037C113.148 25.6481 113.722 27.6296 114.889 29.0556C116.056 30.5 117.556 31.2037 119.444 31.2037C121.333 31.2037 122.907 30.5 124.056 29.1111C125.185 27.7222 125.759 25.7778 125.759 23.2963C125.759 20.8148 125.204 18.7037 124.111 17.2593C123.019 15.8148 121.5 15.1111 119.593 15.1111H119.574Z" fill="white"/>
<path d="M92.7037 10.2037C92.5926 10.2222 92.4444 10.2037 92.3519 10.2593H92.3333C92.3333 10.2593 92.3333 10.2222 92.3333 10.2037H92.7037Z" fill="#DBD7D4"/>
<path d="M92.7037 10.2222C94.7778 10.2222 97.037 10.8889 98.7593 12.0185C102.426 14.4444 104.019 18.6481 103.944 22.963L103.907 23C103.167 22.9444 98.3704 23.1667 98.0926 23.0556C98.1852 19.4815 96.5556 15.2407 92.4259 15.0926L92.3889 15.0556L92.3333 10.2593C92.4259 10.2222 92.5741 10.2407 92.6852 10.2407L92.7037 10.2222Z" fill="#F58421"/>
<path d="M98.0926 23.0556C97.9815 23.0185 96.5741 21.6111 96.3519 21.4074C96.3519 18.5185 95.1852 15.3704 91.9074 15.1667L91.8704 15.1296C91.9259 14.3518 91.7778 11.7222 91.8519 11.3148C91.8519 11.2222 92.2778 10.4815 92.3333 10.2407H92.3519L92.4074 15.037L92.4445 15.0741C96.5741 15.2222 98.2037 19.463 98.1111 23.037L98.0926 23.0556Z" fill="url(#paint0_linear_8_2)"/>
<path d="M97.7778 24.037C97.6667 26.1296 97.1111 27.7963 96.0926 29.037C94.963 30.4259 93.4259 31.1296 91.4815 31.1296C89.537 31.1296 88.0926 30.4074 86.9259 28.9815C85.7593 27.537 85.1852 25.5926 85.1852 23.1296C85.1852 20.6667 85.7593 18.7407 86.9259 17.2593C87.9815 15.9074 89.3889 15.1852 91.1296 15.0556V10.2222C87.6667 10.3519 84.8519 11.5741 82.7037 13.8519C80.4259 16.2778 79.2778 19.463 79.2778 23.4074C79.2778 27.3518 80.4074 30.1667 82.6482 32.4815C84.8889 34.7963 87.7963 35.963 91.3704 35.963C94.9445 35.963 98 34.7593 100.278 32.3704C102.333 30.2037 103.444 27.4259 103.648 24.037H97.7593H97.7778Z" fill="white"/>
</g>
<defs>
<linearGradient id="paint0_linear_8_2" x1="117.881" y1="2.3037" x2="114.88" y2="6.95554" gradientUnits="userSpaceOnUse">
<stop stop-color="#735A4B"/>
<stop offset="1" stop-color="#573624"/>
</linearGradient>
<clipPath id="clip0_8_2">
<rect width="135" height="47" fill="white"/>
</clipPath>
</defs>
</svg>
