<?xml version="1.0" encoding="UTF-8"?>
<svg xmlns="http://www.w3.org/2000/svg" version="1.1" viewBox="0 0 752.2 199.1">
  <defs>
    <style>
      .cls-1 {
        fill: #f68638;
      }

      .cls-2 {
        fill: #c7beb8;
      }

      .cls-3 {
        fill: #d0cac7;
      }

      .cls-4 {
        fill: #1f3060;
      }

      .cls-5 {
        fill: #43271e;
      }

      .cls-6 {
        fill: #f5f5f5;
      }
    </style>
  </defs>
  <!-- Generator: Adobe Illustrator 29.1.0, SVG Export Plug-In . SVG Version: 1.2.0 Build 2)  -->
  <g>
    <g id="Layer_1">
      <g id="Layer_1-2" data-name="Layer_1">
        <g id="Layer_1-2">
          <g>
            <g>
              <path class="cls-4" d="M70.8,120.3h28.7c7.1,0,12.9-5.8,12.9-12.9v-11.7h-28.7c-7.1,0-12.9,5.8-12.9,12.9v11.7h0Z"/>
              <path class="cls-4" d="M66.6,38c-15.6,0-28.2,12.6-28.2,28.2v106.3h1.4c15.2,0,27.6-11.7,28.8-26.6v-51.5c0-.2,0-.3.1-.5v-15.7c0-8.6,7-15.6,15.6-15.6h7.6c13.4,0,24.2-10.8,24.2-24.2v-.5h-49.6,0Z"/>
            </g>
            <path class="cls-4" d="M145.4,172.5h-4.2v-107.5c0-14.9,12.1-27.1,27.1-27.1h3.2v108.4c0,14.4-11.7,26.1-26.1,26.1h0Z"/>
            <path class="cls-4" d="M292.9,172.5h-3l-55.4-84.5c-3.3-4.9-5.5-8.7-6.8-11.2h-.4c.5,4.8.8,12,.8,21.8v49.6c0,13.4-10.9,24.3-24.3,24.3h-4.3v-103.3c0-17.2,14-31.2,31.2-31.2h1.4l53.4,81.9c2.4,3.7,4.7,7.3,6.8,11h.4c-.5-3.1-.8-9.3-.8-18.5v-49.8c0-13.6,11-24.6,24.6-24.6h4v106.9c0,15.3-12.4,27.6-27.6,27.6h0Z"/>
            <path class="cls-4" d="M420.8,62.7h-17.6v82.2c0,15.3-12.4,27.7-27.7,27.7h-2.7V62.7h-38.2v-4c0-11.4,9.3-20.7,20.7-20.7h86.2v4c0,11.4-9.3,20.7-20.7,20.7Z"/>
            <path class="cls-4" d="M659.7,174.9c-19.3,0-35-6.3-47.1-18.8s-18.2-28.9-18.2-49,6.2-38.5,18.5-51.6,28.6-19.7,49-19.7,34.7,6.3,46.6,18.9c11.9,12.6,17.8,29.1,17.8,49.7s-6.1,38.2-18.4,51.1c-12.3,12.9-28.3,19.4-48.1,19.4h0ZM661,61.8c-10.6,0-19.1,4-25.3,12-6.3,8-9.4,18.5-9.4,31.7s3.1,23.9,9.4,31.6c6.3,7.8,14.4,11.6,24.6,11.6s18.7-3.8,24.9-11.3c6.1-7.5,9.2-18,9.2-31.4s-3-24.8-8.9-32.6c-5.9-7.8-14.1-11.6-24.4-11.6h0Z"/>
            <g>
              <g>
                <path class="cls-2" d="M514.8,35.3h0c-.3.2-.6.1-1,.3v-.3h1Z"/>
                <path class="cls-3" d="M515.9,35.3h0c-.4.1-.7.1-1.1.1h0c0-.1,1.1-.1,1.1-.1Z"/>
                <path class="cls-6" d="M518.2,35.3h0c-.8,0-1.6.1-2.3.1h0c0-.1,2.3-.1,2.3-.1Z"/>
                <path class="cls-1" d="M514.8,35.5h3.4c37.3,1.8,59.5,33.3,58.4,69l-31.4.5c0-20-7.8-41.8-30.7-43.2l-.2-.2c-.2-7.4,0-14.8-.3-22.2v-3.8c.3-.1.6-.1,1-.1h-.2Z"/>
                <path class="cls-5" d="M545.2,104.9l-9.5-8.9c.2-13.2-4.9-29.8-19.4-33.2-1.5-.4-4.7-.6-4.8-.9.2-4.2-.5-18.2,0-20.6,0-.4,2.1-4.5,2.6-5.5.2,1.2,0,2.3,0,3.5.2,7.4,0,14.8.3,22.2l.2.2c22.9,1.4,30.6,23.1,30.7,43.2h0Z"/>
              </g>
              <path class="cls-4" d="M543.3,110.1c-.6,11.3-3.6,20.3-9.1,27-6.1,7.5-14.4,11.3-24.9,11.3s-18.3-3.9-24.6-11.6c-6.3-7.8-9.4-18.3-9.4-31.6s3.1-23.7,9.4-31.7c5.7-7.3,13.3-11.2,22.7-11.9v-26.1c-18.7.7-33.9,7.3-45.5,19.6-12.3,13.1-18.5,30.3-18.5,51.6s6.1,36.5,18.2,49c12.1,12.5,27.8,18.8,47.1,18.8s35.8-6.5,48.1-19.4c11.1-11.7,17.1-26.7,18.2-45h-31.8,0Z"/>
            </g>
          </g>
        </g>
      </g>
    </g>
  </g>
</svg>