<svg width="20" height="32" viewBox="0 0 20 32" fill="none" xmlns="http://www.w3.org/2000/svg">
<g clip-path="url(#clip0_3_286)">
<path d="M19.8 30.8V26.7C19.8 22.5 16.4 19 12.1 19H7.59999C3.39999 19 -0.100006 22.4 -0.100006 26.7V30.8L9.79999 31.4L19.8 30.8Z" fill="#042b62"/>
<path d="M12.5 19.1C12.5 19.1 12.6 22.1 9.89999 22.1C7.19999 22.1 7.29999 19.1 7.29999 19.1H12.5Z" fill="white"/>
<path d="M18.1 12C18.2 10.9 18.2 9.9 18.1 8.8H1.7C1.6 9.9 1.6 10.9 1.7 12H18.1Z" fill="#E2E2E2" stroke="#939393" stroke-width="0.25"/>
<path d="M4.69999 13.2L3.69999 11H3.49999C2.59999 11 1.79999 11.6 1.49999 12.5C1.39999 12.7 1.39999 12.9 1.39999 13.1C1.39999 14.2 2.39999 15.1 3.49999 15.1C3.59999 15.1 3.79999 15.1 3.89999 15L4.29999 14.4L3.69999 13.8L4.69999 13.2Z" fill="#EFEFEF"/>
<path d="M18.3 12.4C18 11.5 17.2 10.9 16.3 10.9H16.1L15.1 13.1L16.1 13.8L15.5 14.4L15.9 15C16 15 16.2 15 16.3 15.1C17.4 15.1 18.4 14.2 18.4 13C18.4 12.8 18.4 12.6 18.3 12.4Z" fill="#EFEFEF"/>
<path d="M14.1 8.7L9.9 8.2L5.7 8.7C4.5 10.6 3.7 10.9 3.7 10.9V12.9C3.7 16.3 6.5 19 9.8 19H9.9C13.3 19 16 16.3 16.1 13C16.1 13 16.1 13 16.1 12.9V10.9C16.1 11 15.3 10.7 14.1 8.7Z" fill="white"/>
<path d="M9.9 18.5C6.5 18.5 3.7 15.7 3.7 12.3V13.5C3.7 16.9 6.5 19.7 9.9 19.7C13.3 19.7 16.1 16.9 16.1 13.5V12.3C16.1 15.7 13.3 18.5 9.9 18.5Z" fill="#EFEFEF"/>
<path d="M0.3 32H3.4L3.9 31.4L4.4 32H15.4L15.9 31.4L16.4 32H19.5C19.7 32 19.8 31.9 19.8 31.7V30.8H0V31.7C0 31.9 0.1 32 0.3 32Z" fill="#042b62"/>
<path d="M3.39999 30.8H4.39999V32H3.39999V30.8Z" fill="#042b62"/>
<path d="M15.4 30.8H16.4V32H15.4V30.8Z" fill="#042b62"/>
<path d="M18.4 7.6C17.6 1.7 13.7 0 9.89999 0C6.09999 0 2.19999 1.7 1.39999 7.6L9.89999 8.2L18.4 7.6Z" fill="#042b62"/>
<path d="M1.39999 7.6C1.39999 7.9 1.29999 8.1 1.29999 8.4C1.29999 8.6 1.39999 8.7 1.59999 8.7H7.19999L9.79999 8.1L12.4 8.7H18C18.2 8.7 18.3 8.6 18.3 8.4C18.3 8.1 18.3 7.8 18.2 7.6H1.39999Z" fill="#042b62"/>
<path d="M12.6 6.9L9.89999 7.5L7.29999 6.9V6.8C7.29999 5.3 8.49999 4.2 9.89999 4.2C11.4 4.2 12.5 5.4 12.5 6.8V6.9H12.6Z" fill="#E2E2E2"/>
<path d="M12.6 7.6L9.89999 8.1L7.29999 7.6V6.9H12.6V7.6Z" fill="#042b62"/>
<path d="M7.29999 7.6H12.6V8.8H7.29999V7.6Z" fill="#42BFEA"/>
<path d="M4.39999 27.7V30.9L3.89999 31.5L3.39999 30.9V27.7C3.39999 27.4 3.59999 27.2 3.89999 27.2C4.19999 27.2 4.39999 27.4 4.39999 27.7Z" fill="#042b62"/>
<path d="M16.4 27.7V30.9L15.9 31.5L15.4 30.9V27.7C15.4 27.4 15.6 27.2 15.9 27.2C16.2 27.2 16.4 27.4 16.4 27.7Z" fill="#042b62"/>
</g>
<defs>
<clipPath id="clip0_3_286">
<rect width="19.9" height="32" fill="white"/>
</clipPath>
</defs>
</svg>
