<svg width="24" height="24" viewBox="0 0 24 24" fill="none" xmlns="http://www.w3.org/2000/svg">
<g clip-path="url(#clip0_3_355)">
<path d="M0.4 21H2.1C2.3 21 2.5 20.8 2.5 20.6C2.5 20.4 2.3 20.2 2.1 20.2H0.4C0.2 20.2 0 20.4 0 20.6C0 20.8 0.2 21 0.4 21Z" fill="#ccd5e0"/>
<path d="M0.4 17.6H2.1C2.3 17.6 2.5 17.4 2.5 17.2C2.5 17 2.3 16.8 2.1 16.8H0.4C0.2 16.8 0 17 0 17.2C0 17.4 0.2 17.6 0.4 17.6Z" fill="#ccd5e0"/>
<path d="M11.6 6.1C12.1523 6.1 12.6 5.65228 12.6 5.1C12.6 4.54771 12.1523 4.1 11.6 4.1C11.0477 4.1 10.6 4.54771 10.6 5.1C10.6 5.65228 11.0477 6.1 11.6 6.1Z" fill="#ccd5e0"/>
<path d="M3.4 3.4C3.4 4.1 2.8 4.7 2.1 4.7H1.7V5.6H2.1C2.8 5.6 3.4 6.2 3.4 6.9C3.4 7.6 2.9 8.1 2.1 8.1H1.7V9H2.1C2.8 9 3.4 9.6 3.4 10.3C3.4 11 2.8 11.6 2.1 11.6H1.7V12.5H2.1C2.8 12.5 3.4 13.1 3.4 13.8C3.4 14.5 2.9 15 2.1 15H1.7V15.9H2.1C2.8 15.9 3.4 16.5 3.4 17.2C3.4 17.9 2.8 18.5 2.1 18.5H1.7V19.4H2.1C2.8 19.4 3.4 20 3.4 20.7C3.4 21.4 2.8 22 2.1 22H1.7V23.3C1.7 23.8 2.1 24.2 2.6 24.2H4.3V0H2.6C2.1 0 1.7 0.4 1.7 0.9V2.2H2.1C2.9 2.1 3.4 2.7 3.4 3.4Z" fill="#ccd5e0"/>
<path d="M17.1 6.1C17.6523 6.1 18.1 5.65228 18.1 5.1C18.1 4.54771 17.6523 4.1 17.1 4.1C16.5477 4.1 16.1 4.54771 16.1 5.1C16.1 5.65228 16.5477 6.1 17.1 6.1Z" fill="#ccd5e0"/>
<path d="M0.4 14.1H2.1C2.3 14.1 2.5 13.9 2.5 13.7C2.5 13.5 2.3 13.3 2.1 13.3H0.4C0.2 13.3 0 13.5 0 13.7C0 13.9 0.2 14.1 0.4 14.1Z" fill="#ccd5e0"/>
<path d="M0.4 3.9H2.1C2.3 3.9 2.5 3.7 2.5 3.5C2.6 3.2 2.4 3 2.1 3H0.4C0.2 3 0 3.2 0 3.4C0 3.7 0.2 3.9 0.4 3.9Z" fill="#ccd5e0"/>
<path d="M0.4 7.3H2.1C2.3 7.3 2.5 7.1 2.5 6.9C2.5 6.7 2.4 6.4 2.1 6.4H0.4C0.2 6.4 0 6.6 0 6.9C0 7.2 0.2 7.3 0.4 7.3Z" fill="#ccd5e0"/>
<path d="M0.4 10.7H2.1C2.3 10.7 2.5 10.5 2.5 10.3C2.5 10.1 2.4 9.9 2.1 9.9H0.4C0.2 9.9 0 10 0 10.3C0 10.6 0.2 10.7 0.4 10.7Z" fill="#ccd5e0"/>
<path d="M18.8 10.7C19 10.6 19.3 10.8 19.3 11L19.8 12.9C19.9 13.1 20.1 13.2 20.3 13.2C20.4 13.2 20.5 13.1 20.6 13C20.7 12.9 20.7 12.8 20.6 12.7L19.7 9.5C19.5 9 19 8.6 18.4 8.6H16.3C15.7 8.6 15.2 9 15.1 9.5L14.9 10C15.4 10.2 15.7 10.7 15.8 11.3C15.9 11.8 15.7 12.4 15.3 12.8C15.9 13.2 16.2 13.9 16.2 14.6V15.5H18.8C18.9 15.5 19.1 15.4 19.1 15.3C19.2 15.2 19.2 15.1 19.2 14.9C18.8 12.8 18.9 13.6 18.4 11.3C18.4 11 18.5 10.8 18.8 10.7Z" fill="#ccd5e0"/>
<path d="M9 14.6C8.3 14.6 7.7 14 7.7 13.3V10.3C7.7 8.9 8.9 7.7 10.3 7.7H12.4C13.2 7.7 14 8.1 14.4 8.7C14.8 8.1 15.5 7.7 16.2 7.7H18.3C19.3 7.7 20.1 8.3 20.4 9.3L21.3 12.5C21.4 12.9 21.3 13.4 21 13.7C20.7 14 20.3 14.2 19.9 14.1C20 14.8 20.1 15 20 15.4H22.2V2.6H6.9V15.5H9V14.6ZM17.1 3.4C18 3.4 18.8 4.2 18.8 5.1C18.8 6 18 6.8 17.1 6.8C16.2 6.8 15.4 6 15.4 5.1C15.4 4.2 16.2 3.4 17.1 3.4ZM11.6 3.4C12.5 3.4 13.3 4.2 13.3 5.1C13.3 6 12.5 6.8 11.6 6.8C10.7 6.8 9.9 6 9.9 5.1C9.9 4.2 10.6 3.4 11.6 3.4Z" fill="#ccd5e0"/>
<path d="M6.9 16.3V18H22.3V16.3H6.9Z" fill="#ccd5e0"/>
<path d="M9.9 14.2V15.4H12V14.5C12 13.8 12.4 13.1 12.9 12.7C12.4 12.2 12.3 11.5 12.5 10.9C12.7 10.3 13.3 9.8 14 9.8C13.8 9.1 13.1 8.5 12.4 8.6H10.3C9.4 8.6 8.6 9.4 8.6 10.3V13.3C8.6 13.4 8.6 13.5 8.7 13.6C8.8 13.7 9 13.8 9.2 13.7C9.4 13.6 9.5 13.5 9.5 13.3V11.2C9.5 11 9.7 10.8 9.9 10.8C10.1 10.8 10.3 11 10.3 11.2V13.3C10.3 13.6 10.1 14 9.9 14.2Z" fill="#ccd5e0"/>
<path d="M15.4 14.6C15.4 13.9 14.8 13.3 14.1 13.3C13.4 13.3 12.8 13.9 12.8 14.6V15.5H15.4V14.6Z" fill="#ccd5e0"/>
<path d="M13.3 11.6C13.3 12.1 13.7 12.5 14.2 12.5C14.7 12.5 15.1 12.1 15.1 11.6C15.1 11.1 14.7 10.7 14.2 10.7C13.7 10.7 13.3 11.1 13.3 11.6Z" fill="#ccd5e0"/>
<path d="M24 23.6V0.4C24 0.2 23.8 0 23.6 0H5.1V24H23.5C23.8 24 24 23.8 24 23.6ZM16.3 22.3H12.9C12.7 22.3 12.5 22.1 12.5 21.9C12.5 21.7 12.7 21.5 12.9 21.5H16.3C16.5 21.5 16.7 21.7 16.7 21.9C16.7 22.1 16.5 22.3 16.3 22.3ZM18.4 20.6H10.7C10.5 20.6 10.3 20.4 10.3 20.2C10.3 20 10.5 19.8 10.7 19.8H18.4C18.6 19.8 18.8 20 18.8 20.2C18.9 20.4 18.7 20.6 18.4 20.6ZM23.1 18C23.1 18.5 22.7 18.9 22.2 18.9H6.9C6.4 18.9 6 18.5 6 18V2.6C6 2.1 6.4 1.7 6.9 1.7H22.3C22.8 1.7 23.2 2.1 23.2 2.6V18H23.1Z" fill="#ccd5e0"/>
</g>
<defs>
<clipPath id="clip0_3_355">
<rect width="24" height="24" fill="white"/>
</clipPath>
</defs>
</svg>
