<svg xmlns="http://www.w3.org/2000/svg" viewBox="0 0 30.56 19.9"><defs><style>.cls-1{fill:#bcd874;}.cls-2{fill:#f49496;}.cls-3{fill:#b5cd6a;}.cls-4{fill:#fff;}.cls-5{fill:#ee888e;}</style></defs><g id="Layer_2" data-name="Layer 2"><g id="Layer_1-2" data-name="Layer 1"><path class="cls-1" d="M15.9,8.88H14.68a6.75,6.75,0,0,1,6.73-6.74h2.45V3.37H21.41A5.51,5.51,0,0,0,15.9,8.88Z"/><path class="cls-1" d="M21.41,5.21a.62.62,0,0,1,0-.87l1.46-1.46a.18.18,0,0,0,0-.25L21.43,1.19a.62.62,0,0,1,0-.86.61.61,0,0,1,.89,0l2.14,2.14a.43.43,0,0,1,0,.61L22.28,5.21A.62.62,0,0,1,21.41,5.21Z"/><path class="cls-2" d="M15.68,14.39H14.9a.22.22,0,0,1-.22-.22V8.88A5.52,5.52,0,0,0,9.17,3.37H6.72V2.14H9.17A6.73,6.73,0,0,1,15.9,8.88v5.29A.22.22,0,0,1,15.68,14.39Z"/><path class="cls-2" d="M8.3,5.21,6.19,3.1a.48.48,0,0,1,0-.68L8.3.31a.62.62,0,0,1,.87,0,.62.62,0,0,1,0,.86L7.79,2.55a.28.28,0,0,0,0,.41L9.17,4.34a.63.63,0,0,1,0,.87A.62.62,0,0,1,8.3,5.21Z"/><circle class="cls-1" cx="27.8" cy="2.76" r="2.76"/><path class="cls-3" d="M27.8,0a2.75,2.75,0,0,0-2.23,1.14A2.76,2.76,0,0,1,29.42,5,2.76,2.76,0,0,0,27.8,0Z"/><path class="cls-4" d="M28.68,2h-.39a.64.64,0,0,0-.12-.29h.46l.05,0a.08.08,0,0,0,0,0v-.2a.08.08,0,0,0,0,0l-.05,0H27a.05.05,0,0,0,0,0s0,0,0,0v.26s0,0,0,.05a.05.05,0,0,0,0,0h.29c.29,0,.47.07.54.23h-.87a.06.06,0,0,0,0,0v.2s0,0,0,0l0,0h.86a.4.4,0,0,1-.21.25.84.84,0,0,1-.42.09H27s0,0,0,0,0,0,0,0V3a0,0,0,0,0,0,0c.25.27.59.66,1,1.15l0,0h.39a.06.06,0,0,0,.06,0,.06.06,0,0,0,0-.07c-.39-.48-.7-.84-.92-1.08A1.05,1.05,0,0,0,28,2.77a.76.76,0,0,0,.26-.47h.34l0,0s0,0,0,0V2A.06.06,0,0,0,28.68,2Z"/><circle class="cls-1" cx="2.76" cy="2.76" r="2.76"/><path class="cls-3" d="M2.76,0A2.72,2.72,0,0,0,.53,1.14a2.74,2.74,0,0,1,3.84.61A2.73,2.73,0,0,1,4.37,5,2.76,2.76,0,0,0,2.76,0Z"/><path class="cls-4" d="M3.64,2H3.25a.55.55,0,0,0-.13-.29h.47l.05,0a.08.08,0,0,0,0,0v-.2a.08.08,0,0,0,0,0l-.05,0H1.92l0,0a.07.07,0,0,0,0,0v.26a.07.07,0,0,0,0,.05l0,0h.29c.28,0,.46.07.54.23H1.87a.09.09,0,0,0,0,0v.2a.07.07,0,0,0,0,0l0,0h.86a.4.4,0,0,1-.21.25.89.89,0,0,1-.43.09H1.92a.06.06,0,0,0,0,0s0,0,0,0V3a.06.06,0,0,0,0,0c.26.27.59.66,1,1.15l0,0h.4a.05.05,0,0,0,.05,0,.06.06,0,0,0,0-.07C3,3.59,2.67,3.23,2.44,3A1.05,1.05,0,0,0,3,2.77a.76.76,0,0,0,.26-.47h.33l.05,0a.08.08,0,0,0,0,0V2S3.65,2,3.64,2Z"/><circle class="cls-2" cx="15.29" cy="16.51" r="3.39"/><path class="cls-5" d="M15.29,13.12a3.38,3.38,0,0,0-2.74,1.4,3.39,3.39,0,0,1,4.73,4.73,3.39,3.39,0,0,0-2-6.13Z"/><path class="cls-4" d="M16.38,15.56l-.06,0H15.9a.85.85,0,0,0-.16-.36h.57s.05,0,.06,0,0,0,0-.06v-.25s0,0,0,0a.06.06,0,0,0-.06,0h-2l-.06,0a.08.08,0,0,0,0,0v.33a.14.14,0,0,0,0,.06l.06,0h.36c.35,0,.57.09.66.28h-1l-.06,0a.11.11,0,0,0,0,.06v.25a.14.14,0,0,0,0,.06l.06,0h1.05a.48.48,0,0,1-.25.31,1.12,1.12,0,0,1-.52.1h-.28a.09.09,0,0,0-.06,0,.08.08,0,0,0,0,.05v.32s0,0,0,0c.32.34.73.8,1.23,1.41a.09.09,0,0,0,.06,0H16s.05,0,.07-.05a.08.08,0,0,0,0-.08q-.72-.89-1.14-1.32a1.43,1.43,0,0,0,.69-.27A.9.9,0,0,0,15.9,16h.42l.06,0a.14.14,0,0,0,0-.06v-.25A.11.11,0,0,0,16.38,15.56Z"/></g></g></svg>