<svg xmlns="http://www.w3.org/2000/svg" viewBox="0 0 29.95 32"><defs><style>.cls-1{fill:#f49496;}.cls-2{fill:#bcd874;}.cls-3{fill:#ee888e;}.cls-4{fill:#fffffa;}.cls-5{fill:#b5cd6a;}.cls-6{fill:#fff;}.cls-7{fill:#fcfdfc;}</style></defs><g id="Layer_2" data-name="Layer 2"><g id="Layer_1-2" data-name="Layer 1"><path class="cls-1" d="M28.81,0H8.09A1.14,1.14,0,0,0,7,1.14V30.86A1.14,1.14,0,0,0,8.09,32H28.81A1.14,1.14,0,0,0,30,30.86V1.14A1.14,1.14,0,0,0,28.81,0Z"/><path class="cls-2" d="M10.18,29.5H21.67a.73.73,0,0,0,.49-.19l5.05-4.59a.71.71,0,0,0,.24-.54V4.23a.73.73,0,0,0-.73-.73H10.18a.73.73,0,0,0-.73.73V28.77A.73.73,0,0,0,10.18,29.5Z"/><path class="cls-3" d="M12.45.45V4.39A1.11,1.11,0,0,0,13.56,5.5h9.78a1.11,1.11,0,0,0,1.11-1.11V.45A.45.45,0,0,0,24,0H12.9A.45.45,0,0,0,12.45.45Z"/><path class="cls-4" d="M14.17,2.5h.57a.22.22,0,0,1,.21.22v.56a.22.22,0,0,1-.21.22h-.57A.22.22,0,0,1,14,3.28V2.72A.22.22,0,0,1,14.17,2.5Z"/><path class="cls-4" d="M22.14,2.5h.62a.19.19,0,0,1,.19.19v.62a.19.19,0,0,1-.19.19h-.62A.2.2,0,0,1,22,3.31V2.69A.2.2,0,0,1,22.14,2.5Z"/><path class="cls-5" d="M22.45,24.5h5l-5.5,5V25A.5.5,0,0,1,22.45,24.5Z"/><path class="cls-6" d="M13,8.5h11.5v8H13Z"/><path class="cls-6" d="M16,19h5.5v1H16Z"/><path class="cls-6" d="M22.45,19h3v1h-3Z"/><path class="cls-6" d="M14.45,22H20v1h-5.5Z"/><path class="cls-6" d="M21,22h4.5v1H21Z"/><path class="cls-6" d="M12,25h8.5v1H12Z"/><path class="cls-4" d="M16.17,2.5h4.57a.22.22,0,0,1,.21.22v.56a.22.22,0,0,1-.21.22H16.17A.22.22,0,0,1,16,3.28V2.72A.22.22,0,0,1,16.17,2.5Z"/><path class="cls-3" d="M14.67,13.35a.44.44,0,0,1,.23.46l-.62,3.52a12,12,0,0,1-4.62,7.51L7.71,26.3a.42.42,0,0,1-.52,0l-2-1.53A12,12,0,0,1,.62,17.3L0,13.81a.42.42,0,0,1,.22-.46l7-3.74a.43.43,0,0,1,.41,0Z"/><path class="cls-7" d="M6.39,23.18A10,10,0,0,1,2.59,17l-.36-2.07a.41.41,0,0,1,.22-.45l4.8-2.57a.47.47,0,0,1,.4,0l4.81,2.57a.42.42,0,0,1,.22.45L12.31,17a10,10,0,0,1-3.85,6.26l-.74.56a.43.43,0,0,1-.52,0Z"/><path class="cls-2" d="M7.45,24.69a.48.48,0,0,1-.3-.11L5.48,23.32A9.29,9.29,0,0,1,2,17.53l-.49-2.79a.49.49,0,0,1,.26-.53L3.91,13a.35.35,0,0,1,.47.15l.14.26a.36.36,0,0,1-.14.48l-1.65.87a.35.35,0,0,0-.18.37l.39,2.18a8.25,8.25,0,0,0,3.15,5.17l1.15.88a.36.36,0,0,0,.42,0l1.11-.83A8.27,8.27,0,0,0,12,17.37l.39-2.2a.34.34,0,0,0-.18-.37l-1.65-.88a.35.35,0,0,1-.14-.47l.14-.26A.34.34,0,0,1,11,13l2.2,1.17a.5.5,0,0,1,.25.53L13,17.55a9.33,9.33,0,0,1-3.58,5.82L7.75,24.58a.48.48,0,0,1-.3.11Z"/><path class="cls-2" d="M8.91,13.06l-1.3-.69a.36.36,0,0,0-.32,0L6,13.06a.35.35,0,0,1-.47-.14l-.14-.27a.35.35,0,0,1,.14-.47l1.7-.9a.49.49,0,0,1,.47,0l1.69.9a.35.35,0,0,1,.14.47l-.14.27A.35.35,0,0,1,8.91,13.06Z"/><path class="cls-1" d="M7,20h0a.51.51,0,0,1-.38-.2l-1.2-1.6a.51.51,0,0,1,.1-.7h0a.5.5,0,0,1,.7.1l.46.61a.5.5,0,0,0,.78,0l2.36-2.69a.49.49,0,0,1,.7-.05h0a.51.51,0,0,1,.05.71L7.33,19.83A.5.5,0,0,1,7,20Z"/><path class="cls-1" d="M7.17,14h.57a.21.21,0,0,1,.21.21v.58a.21.21,0,0,1-.21.21H7.17A.22.22,0,0,1,7,14.79v-.58A.22.22,0,0,1,7.17,14Z"/><path class="cls-1" d="M7.17,21h.56a.22.22,0,0,1,.22.22v.56a.22.22,0,0,1-.22.22H7.17A.22.22,0,0,1,7,21.78v-.56A.22.22,0,0,1,7.17,21Z"/></g></g></svg>