<svg width="26" height="32" viewBox="0 0 26 32" fill="none" xmlns="http://www.w3.org/2000/svg">
<g clip-path="url(#clip0_22_2632)">
<path d="M9.20996 0H10.29V3.25H9.20996V0Z" fill="#042b62"/>
<path d="M11.3701 1.08008H12.4601V3.25008H11.3701V1.08008Z" fill="#042b62"/>
<path d="M9.40992 2.70996H12.2599C12.4562 2.70996 12.6444 2.78792 12.7832 2.9267C12.922 3.06548 12.9999 3.2537 12.9999 3.44996V5.21996C12.9999 5.31714 12.9808 5.41337 12.9436 5.50315C12.9064 5.59293 12.8519 5.6745 12.7832 5.74322C12.7145 5.81194 12.6329 5.86644 12.5431 5.90363C12.4533 5.94082 12.3571 5.95996 12.2599 5.95996H9.40992C9.31274 5.95996 9.21652 5.94082 9.12674 5.90363C9.03695 5.86644 8.95538 5.81194 8.88666 5.74322C8.81795 5.6745 8.76344 5.59293 8.72625 5.50315C8.68906 5.41337 8.66992 5.31714 8.66992 5.21996V3.44996C8.66992 3.2537 8.74789 3.06548 8.88666 2.9267C9.02544 2.78792 9.21366 2.70996 9.40992 2.70996Z" fill="#E2E2E2" stroke="#939393" stroke-width="0.25"/>
<path d="M8.39008 4.87012H13.2801C13.386 4.87011 13.4908 4.89113 13.5886 4.93196C13.6863 4.97278 13.7749 5.03261 13.8493 5.10796C13.9237 5.18331 13.9825 5.27268 14.0221 5.3709C14.0617 5.46912 14.0814 5.57422 14.0801 5.68012V7.32012C14.0801 7.42517 14.0594 7.5292 14.0192 7.62626C13.979 7.72332 13.9201 7.81152 13.8458 7.8858C13.7715 7.96009 13.6833 8.01902 13.5862 8.05922C13.4892 8.09943 13.3851 8.12012 13.2801 8.12012H8.39008C8.28418 8.12144 8.17908 8.10173 8.08086 8.06212C7.98264 8.02251 7.89327 7.96379 7.81792 7.88937C7.74257 7.81495 7.68274 7.72631 7.64192 7.62859C7.60109 7.53087 7.58007 7.42602 7.58008 7.32012V5.68012C7.58008 5.46529 7.66542 5.25927 7.81732 5.10736C7.96923 4.95546 8.17525 4.87012 8.39008 4.87012Z" fill="#042b62"/>
<path d="M16 4.23008V2.18008C16.0005 2.02541 16.0562 1.876 16.157 1.7587C16.2578 1.64139 16.3972 1.56388 16.55 1.54008L22.3 0.660083C22.3925 0.645678 22.487 0.651429 22.5771 0.676941C22.6672 0.702453 22.7507 0.747124 22.8219 0.807897C22.8932 0.868671 22.9504 0.944113 22.9898 1.02906C23.0291 1.11401 23.0497 1.20646 23.05 1.30008V4.23008C23.0474 4.40073 22.9777 4.56351 22.8561 4.68325C22.7345 4.803 22.5707 4.8701 22.4 4.87008H16.65C16.5651 4.87141 16.4808 4.85584 16.402 4.82427C16.3232 4.7927 16.2515 4.74577 16.191 4.6862C16.1305 4.62664 16.0824 4.55564 16.0497 4.47733C16.0169 4.39902 16 4.31498 16 4.23008Z" fill="#042b62"/>
<path d="M15.8399 3.79004H23.2099C23.4539 3.79004 23.6879 3.88697 23.8605 4.0595C24.033 4.23203 24.1299 4.46604 24.1299 4.71004V31C24.1299 31.1209 24.1061 31.2405 24.0599 31.3521C24.0137 31.4637 23.9459 31.5651 23.8605 31.6506C23.775 31.736 23.6736 31.8038 23.562 31.85C23.4504 31.8962 23.3307 31.92 23.2099 31.92H15.8399C15.7191 31.92 15.5995 31.8962 15.4879 31.85C15.3762 31.8038 15.2748 31.736 15.1894 31.6506C15.104 31.5651 15.0362 31.4637 14.99 31.3521C14.9437 31.2405 14.9199 31.1209 14.9199 31V4.71004C14.9199 4.46604 15.0169 4.23203 15.1894 4.0595C15.3619 3.88697 15.5959 3.79004 15.8399 3.79004Z" fill="#EAEAEA" stroke="#939393" stroke-width="0.25"/>
<path d="M7.55993 7H14.0999C14.243 6.99994 14.3846 7.02858 14.5165 7.08422C14.6483 7.13986 14.7676 7.22137 14.8673 7.32393C14.9671 7.42649 15.0453 7.54801 15.0973 7.68131C15.1492 7.81461 15.1739 7.95698 15.1699 8.1V30.9C15.1739 31.043 15.1492 31.1854 15.0973 31.3187C15.0453 31.452 14.9671 31.5735 14.8673 31.6761C14.7676 31.7786 14.6483 31.8601 14.5165 31.9158C14.3846 31.9714 14.243 32.0001 14.0999 32H7.55993C7.4177 31.9987 7.27715 31.9691 7.1465 31.9129C7.01585 31.8566 6.89773 31.7749 6.79903 31.6725C6.70033 31.5701 6.62304 31.449 6.57169 31.3164C6.52033 31.1837 6.49594 31.0422 6.49993 30.9V8.1C6.49594 7.95782 6.52033 7.81627 6.57169 7.68363C6.62304 7.55099 6.70033 7.42991 6.79903 7.32749C6.89773 7.22507 7.01585 7.14335 7.1465 7.08712C7.27715 7.03089 7.4177 7.00127 7.55993 7Z" fill="#E2E2E2" stroke="#939393" stroke-width="0.25"/>
<path d="M8.12012 8.66992H9.21012V9.74992H8.12012V8.66992Z" fill="white"/>
<path d="M8.66992 11.9199H9.74992V12.9999H8.66992V11.9199Z" fill="white"/>
<path d="M12.46 9.20996H13.54V10.29H12.46V9.20996Z" fill="white"/>
<path d="M16.55 8.12012H17.63V9.21012H16.55V8.12012Z" fill="white"/>
<path d="M19.26 5.41992H20.34V6.49992H19.26V5.41992Z" fill="white"/>
<path d="M19.26 10.8301H20.34V11.9201H19.26V10.8301Z" fill="white"/>
<path d="M21.4199 8.66992H22.5099V9.74992H21.4199V8.66992Z" fill="white"/>
<path d="M1.08 27.6201H6.5C6.64267 27.6201 6.78393 27.6484 6.91562 27.7033C7.04731 27.7582 7.16681 27.8386 7.26723 27.94C7.36765 28.0413 7.44699 28.1616 7.50068 28.2937C7.55436 28.4259 7.58132 28.5674 7.58 28.7101C7.58 28.9965 7.46621 29.2713 7.26368 29.4738C7.06114 29.6763 6.78643 29.7901 6.5 29.7901H1.08C0.793566 29.7901 0.518864 29.6763 0.316325 29.4738C0.113785 29.2713 9.66639e-10 28.9965 9.66638e-10 28.7101C-1.20926e-05 28.4228 0.113453 28.147 0.31571 27.9429C0.517967 27.7388 0.79265 27.6228 1.08 27.6201Z" fill="#042b62"/>
<path d="M1.08 25.46H6.5C6.78643 25.46 7.06114 25.5737 7.26368 25.7763C7.46621 25.9788 7.58 26.2535 7.58 26.54C7.58 26.8264 7.46621 27.1011 7.26368 27.3036C7.06114 27.5062 6.78643 27.62 6.5 27.62H1.08C0.793566 27.62 0.518864 27.5062 0.316325 27.3036C0.113785 27.1011 0 26.8264 0 26.54C0 26.2535 0.113785 25.9788 0.316325 25.7763C0.518864 25.5737 0.793566 25.46 1.08 25.46Z" fill="#42BFEA"/>
<path d="M2.17 29.79H7.58C7.86736 29.79 8.14311 29.9035 8.34723 30.1057C8.55136 30.308 8.66737 30.5827 8.67 30.87C8.67538 31.0165 8.65116 31.1626 8.5988 31.2995C8.54644 31.4364 8.467 31.5613 8.36524 31.6668C8.26349 31.7723 8.1415 31.8562 8.00658 31.9134C7.87166 31.9707 7.72657 32.0001 7.58 32H2.17C1.88092 32 1.60367 31.8852 1.39926 31.6808C1.19484 31.4764 1.08 31.1991 1.08 30.91C1.07599 30.7644 1.10122 30.6194 1.1542 30.4837C1.20718 30.348 1.28683 30.2242 1.38845 30.1198C1.49007 30.0154 1.61159 29.9324 1.74583 29.8758C1.88007 29.8191 2.0243 29.79 2.17 29.79Z" fill="#42BFEA"/>
<path d="M4.87 25.45C7.55963 25.45 9.74 23.2696 9.74 20.58C9.74 17.8903 7.55963 15.71 4.87 15.71C2.18037 15.71 0 17.8903 0 20.58C0 23.2696 2.18037 25.45 4.87 25.45Z" fill="#042b62"/>
<path d="M6.42001 19.2302C6.39429 19.2202 6.36573 19.2202 6.34001 19.2302H5.74001C5.70286 19.045 5.62423 18.8707 5.51001 18.7202H6.33001C6.34263 18.7257 6.35625 18.7286 6.37001 18.7286C6.38378 18.7286 6.39739 18.7257 6.41001 18.7202C6.41916 18.6944 6.41916 18.6661 6.41001 18.6402V18.2802C6.41916 18.2544 6.41916 18.2261 6.41001 18.2002C6.39739 18.1947 6.38378 18.1919 6.37001 18.1919C6.35625 18.1919 6.34263 18.1947 6.33001 18.2002H3.41001C3.39518 18.1987 3.38018 18.2004 3.36612 18.2054C3.35206 18.2104 3.33929 18.2184 3.32874 18.229C3.31819 18.2395 3.31014 18.2523 3.30517 18.2664C3.3002 18.2804 3.29844 18.2954 3.30001 18.3102V18.7802C3.29844 18.7951 3.3002 18.8101 3.30517 18.8241C3.31014 18.8382 3.31819 18.851 3.32874 18.8615C3.33929 18.8721 3.35206 18.8801 3.36612 18.8851C3.38018 18.8901 3.39518 18.8918 3.41001 18.8902H3.92001C4.41001 18.8902 4.73001 19.0202 4.86001 19.2902H3.41001C3.39518 19.2887 3.38018 19.2904 3.36612 19.2954C3.35206 19.3004 3.33929 19.3084 3.32874 19.319C3.31819 19.3295 3.31014 19.3423 3.30517 19.3564C3.3002 19.3704 3.29844 19.3854 3.30001 19.4002V19.7602C3.29844 19.7751 3.3002 19.7901 3.30517 19.8041C3.31014 19.8182 3.31819 19.831 3.32874 19.8415C3.33929 19.8521 3.35206 19.8601 3.36612 19.8651C3.38018 19.8701 3.39518 19.8718 3.41001 19.8702H4.91001C4.88531 19.9652 4.84034 20.0537 4.7782 20.1297C4.71606 20.2056 4.63821 20.2672 4.55001 20.3102C4.31569 20.4198 4.05843 20.4712 3.80001 20.4602H3.41001C3.3816 20.4625 3.35493 20.4748 3.33477 20.495C3.31462 20.5152 3.30229 20.5418 3.30001 20.5702V21.0202C3.28997 21.046 3.28997 21.0745 3.30001 21.1002C3.75001 21.5802 4.30001 22.2402 5.05001 23.1002C5.06416 23.1066 5.0795 23.1099 5.09501 23.1099C5.11052 23.1099 5.12586 23.1066 5.14001 23.1002H5.82001C5.83327 23.1241 5.85547 23.1417 5.88173 23.1492C5.90798 23.1567 5.93614 23.1535 5.96001 23.1402C5.98388 23.127 6.0015 23.1048 6.00901 23.0785C6.01651 23.0523 6.01327 23.0241 6.00001 23.0002C6.01477 22.9837 6.02293 22.9624 6.02293 22.9402C6.02293 22.9181 6.01477 22.8967 6.00001 22.8802C5.26001 22.0002 4.72001 21.4102 4.33001 21.0002C4.69497 20.9737 5.04346 20.8378 5.33001 20.6102C5.57507 20.401 5.73513 20.1093 5.78001 19.7902H6.37001C6.38484 19.7918 6.39984 19.7901 6.4139 19.7851C6.42796 19.7801 6.44073 19.7721 6.45128 19.7615C6.46183 19.751 6.46988 19.7382 6.47485 19.7241C6.47982 19.7101 6.48159 19.6951 6.48001 19.6802V19.3202C6.47861 19.3013 6.47235 19.2831 6.46184 19.2674C6.45133 19.2516 6.43692 19.2388 6.42001 19.2302Z" fill="white"/>
<path d="M24.7599 13.9102H12.1299C11.6108 13.9102 11.1899 14.331 11.1899 14.8502V31.0002C11.1899 31.5193 11.6108 31.9402 12.1299 31.9402H24.7599C25.2791 31.9402 25.6999 31.5193 25.6999 31.0002V14.8502C25.6999 14.331 25.2791 13.9102 24.7599 13.9102Z" fill="#042b62"/>
<path d="M22.9699 17.5H13.9299C13.7808 17.5 13.6599 17.6209 13.6599 17.77V18.5C13.6599 18.6491 13.7808 18.77 13.9299 18.77H22.9699C23.119 18.77 23.2399 18.6491 23.2399 18.5V17.77C23.2399 17.6209 23.119 17.5 22.9699 17.5Z" fill="white"/>
<path d="M21.0099 20.9302H13.9299C13.7808 20.9302 13.6599 21.0511 13.6599 21.2002V21.9302C13.6599 22.0793 13.7808 22.2002 13.9299 22.2002H21.0099C21.159 22.2002 21.2799 22.0793 21.2799 21.9302V21.2002C21.2799 21.0511 21.159 20.9302 21.0099 20.9302Z" fill="white"/>
<path d="M18.4499 24.3701H13.9299C13.7808 24.3701 13.6599 24.491 13.6599 24.6401V25.3701C13.6599 25.5192 13.7808 25.6401 13.9299 25.6401H18.4499C18.599 25.6401 18.7199 25.5192 18.7199 25.3701V24.6401C18.7199 24.491 18.599 24.3701 18.4499 24.3701Z" fill="white"/>
<path d="M21.7801 30.2999C23.0061 30.2999 24.0001 29.3059 24.0001 28.0799C24.0001 26.8538 23.0061 25.8599 21.7801 25.8599C20.554 25.8599 19.5601 26.8538 19.5601 28.0799C19.5601 29.3059 20.554 30.2999 21.7801 30.2999Z" fill="#E2E2E2" stroke="#939393" stroke-width="0.25"/>
<path d="M22.4801 27.47H22.2101C22.1915 27.3877 22.1576 27.3097 22.1101 27.24H22.5101V27H21.1101V27.21H21.3801C21.6101 27.21 21.7501 27.27 21.8101 27.39H21.1501V27.55H21.8701C21.8586 27.5926 21.8385 27.6323 21.811 27.6667C21.7835 27.7011 21.7491 27.7295 21.7101 27.75C21.6046 27.8019 21.4876 27.826 21.3701 27.82H21.1501V28.02C21.3601 28.23 21.6201 28.54 21.9501 28.93H22.2601C22.2677 28.9344 22.2763 28.9367 22.2851 28.9367C22.2939 28.9367 22.3025 28.9344 22.3101 28.93V28.88C22.0001 28.49 21.7501 28.21 21.5801 28.02C21.7416 28.006 21.8951 27.9432 22.0201 27.84C22.1315 27.7467 22.203 27.6143 22.2201 27.47H22.5301V27.31C22.5301 27.31 22.4901 27.48 22.4801 27.47Z" fill="white"/>
</g>
<defs>
<clipPath id="clip0_22_2632">
<rect width="25.7" height="31.96" fill="white"/>
</clipPath>
</defs>
</svg>
