<?xml version="1.0" encoding="utf-8"?>
<!-- Generator: Adobe Illustrator 26.5.1, SVG Export Plug-In . SVG Version: 6.00 Build 0)  -->
<svg version="1.1" id="Layer_1" xmlns="http://www.w3.org/2000/svg" xmlns:xlink="http://www.w3.org/1999/xlink" x="0px" y="0px"
	 viewBox="0 0 30.3 29.8" style="enable-background:new 0 0 30.3 29.8;" xml:space="preserve">
<style type="text/css">
	.st0{fill:#E2E2E2;stroke:#939393;stroke-width:0.25;stroke-miterlimit:10;}
	.st1{fill:#042b62;}
	.st2{fill:#FFFFFF;}
</style>
<path class="st0" d="M1.1,0h28.2c0.3,0,0.6,0.3,0.6,0.6v1.9c0,0.3-0.3,0.6-0.6,0.6H1.1C0.8,3,0.5,2.8,0.5,2.5V0.6
	C0.5,0.3,0.8,0,1.1,0z"/>
<rect x="1.5" y="3" class="st1" width="27.3" height="21.2"/>
<path class="st2" d="M17.9,21.7c-0.3,0-0.5-0.2-0.5-0.5l0,0v-1.5c0-0.3,0.2-0.5,0.5-0.5l0,0c0.3,0,0.5,0.2,0.5,0.5c0,0,0,0,0,0v1.5
	C18.4,21.5,18.2,21.7,17.9,21.7C17.9,21.7,17.9,21.7,17.9,21.7z"/>
<path class="st2" d="M20,21.7c-0.3,0-0.5-0.2-0.5-0.5c0,0,0,0,0,0v-3.5c0-0.3,0.2-0.5,0.5-0.5c0,0,0,0,0,0c0.3,0,0.5,0.2,0.5,0.5
	l0,0v3.5C20.5,21.5,20.3,21.7,20,21.7z"/>
<path class="st2" d="M22,21.7c-0.3,0-0.5-0.2-0.5-0.5c0,0,0,0,0,0v-2.5c0-0.3,0.2-0.5,0.5-0.5c0,0,0,0,0,0c0.3,0,0.5,0.2,0.5,0.5
	l0,0v2.5C22.5,21.5,22.3,21.7,22,21.7L22,21.7z"/>
<path class="st2" d="M24,21.7c-0.3,0-0.5-0.2-0.5-0.5l0,0v-6.1c0-0.3,0.2-0.5,0.5-0.5l0,0c0.3,0,0.5,0.2,0.5,0.5c0,0,0,0,0,0v6.1
	C24.5,21.5,24.3,21.7,24,21.7C24,21.7,24,21.7,24,21.7z"/>
<path class="st2" d="M26,21.7c-0.3,0-0.5-0.2-0.5-0.5l0,0v-4c0-0.3,0.2-0.5,0.5-0.5l0,0c0.3,0,0.5,0.2,0.5,0.5c0,0,0,0,0,0v4
	C26.5,21.5,26.3,21.7,26,21.7C26,21.7,26,21.7,26,21.7z"/>
<path class="st2" d="M10.1,19.7h-5c-0.3,0-0.5-0.2-0.5-0.5l0,0c0-0.3,0.2-0.5,0.5-0.5c0,0,0,0,0,0h5.1c0.3,0,0.5,0.2,0.5,0.5
	c0,0,0,0,0,0C10.7,19.5,10.4,19.7,10.1,19.7C10.1,19.7,10.1,19.7,10.1,19.7z"/>
<path class="st2" d="M12.6,21.7H5.1c-0.3,0-0.5-0.2-0.5-0.5l0,0c0-0.3,0.2-0.5,0.5-0.5c0,0,0,0,0,0h7.6c0.3,0,0.5,0.2,0.5,0.5
	c0,0,0,0,0,0C13.2,21.5,12.9,21.7,12.6,21.7C12.6,21.7,12.6,21.7,12.6,21.7z"/>
<circle class="st0" cx="9.9" cy="10.9" r="5.3"/>
<path class="st2" d="M9.6,5.6L9.6,5.6v5.5l0,0h5.5c0.1-2.9-2.2-5.4-5.1-5.5C9.9,5.6,9.8,5.6,9.6,5.6z"/>
<path class="st2" d="M26,9.1h-4c-0.3-0.1-0.5-0.3-0.4-0.6c0-0.2,0.2-0.4,0.4-0.4h4c0.3,0.1,0.5,0.3,0.4,0.6
	C26.4,8.9,26.2,9.1,26,9.1z"/>
<path class="st2" d="M26,6.6h-4c-0.3,0-0.5-0.2-0.5-0.5c0-0.3,0.2-0.5,0.5-0.5c0,0,0,0,0,0h4c0.3,0,0.5,0.2,0.5,0.5c0,0,0,0,0,0
	C26.5,6.3,26.3,6.6,26,6.6z"/>
<path class="st0" d="M29.8,24.8H0.5c-0.3,0-0.5-0.2-0.5-0.5c0,0,0,0,0,0c0-0.3,0.2-0.5,0.5-0.5c0,0,0,0,0,0h29.3
	c0.3,0,0.5,0.2,0.5,0.5l0,0C30.3,24.5,30.1,24.8,29.8,24.8C29.8,24.8,29.8,24.8,29.8,24.8z"/>
<path class="st0" d="M15.2,26.3c-0.3,0-0.5-0.2-0.5-0.5l0,0v-1.5c0-0.3,0.2-0.5,0.5-0.5c0,0,0,0,0,0c0.3,0,0.5,0.2,0.5,0.5
	c0,0,0,0,0,0v1.5C15.7,26.1,15.5,26.3,15.2,26.3C15.2,26.3,15.2,26.3,15.2,26.3z"/>
<path class="st0" d="M15.2,29.8c-1.1,0-2-0.9-2-2s0.9-2,2-2s2,0.9,2,2S16.3,29.8,15.2,29.8z M15.2,26.8c-0.6,0-1,0.4-1,1s0.4,1,1,1
	s1-0.4,1-1C16.2,27.3,15.8,26.8,15.2,26.8C15.2,26.8,15.2,26.8,15.2,26.8L15.2,26.8z"/>
</svg>
