<?xml version="1.0" encoding="utf-8"?>
<!-- Generator: Adobe Illustrator 26.5.1, SVG Export Plug-In . SVG Version: 6.00 Build 0)  -->
<svg version="1.1" id="Layer_1" xmlns="http://www.w3.org/2000/svg" xmlns:xlink="http://www.w3.org/1999/xlink" x="0px" y="0px"
	 viewBox="0 0 32 29" style="enable-background:new 0 0 32 29;" xml:space="preserve">
<style type="text/css">
	.st0{fill:#042b62;}
	.st1{fill:#042b62;}
	.st2{fill:#E2E2E2;stroke:#939393;stroke-width:0.25;stroke-miterlimit:10;}
	.st3{fill:#FFFFFF;}
</style>
<path class="st0" d="M0.9,0h25.8c0.5,0,0.9,0.4,0.9,0.9v25.8c0,0.5-0.4,0.9-0.9,0.9H0.9c-0.5,0-0.9-0.4-0.9-0.9V0.9
	C0,0.4,0.4,0,0.9,0z"/>
<path class="st1" d="M1.6,26.5H0v1.1h27.6V8.3C23.6,19.2,13.3,26.5,1.6,26.5z"/>
<path class="st2" d="M17.1,5.5l-1.7-1.7l-1.7,1.7l-1.6-1.7l-1.7,1.7V0h6.6V5.5z"/>
<path class="st3" d="M6.6,15.8H2.2c-0.3,0-0.5-0.2-0.5-0.5c0,0,0,0,0,0l0,0v-4.4c0-0.3,0.2-0.6,0.5-0.6c0,0,0,0,0,0h4.4
	c0.3,0,0.6,0.2,0.6,0.5c0,0,0,0,0,0l0,0v4.4C7.2,15.6,6.9,15.8,6.6,15.8L6.6,15.8z M2.8,14.7h3.3v-3.3H2.8V14.7z"/>
<path class="st3" d="M6.6,22.4H2.2c-0.3,0-0.5-0.2-0.5-0.5c0,0,0,0,0,0l0,0v-4.4c0-0.3,0.2-0.5,0.5-0.5c0,0,0,0,0,0h4.4
	c0.3,0,0.5,0.2,0.6,0.5c0,0,0,0,0,0l0,0v4.4C7.2,22.2,6.9,22.4,6.6,22.4C6.6,22.4,6.6,22.4,6.6,22.4z M2.8,21.3h3.3V18H2.8V21.3z"/>
<path class="st3" d="M8.3,14.7h8.8v1.1H8.3V14.7z"/>
<path class="st3" d="M8.3,21.3h8.8v1.1H8.3V21.3z"/>
<path class="st2" d="M29.8,29h-8.9c-1.1,0.1-2.1-0.8-2.2-2V12.3c0-0.4,0.4-0.8,0.8-0.7c0,0,0,0,0,0h11.6c0.4,0,0.8,0.3,0.8,0.7
	c0,0,0,0,0,0V27C31.9,28.2,31,29.1,29.8,29z"/>
<path class="st3" d="M20.4,13.9h9.9v3.2h-9.9V13.9z"/>
<path class="st3" d="M20.4,19h2.8v1.1h-2.8V19z"/>
<path class="st3" d="M24.3,19h3.3v1.1h-3.3V19z"/>
<path class="st3" d="M28.7,19h1.6v1.1h-1.6V19z"/>
<path class="st3" d="M26.5,21.2h3.9v1.1h-3.9V21.2z"/>
<path class="st3" d="M20.4,21.2h5v1.1h-5V21.2z"/>
<path class="st3" d="M20.4,23.4h2.2v1.1h-2.2V23.4z"/>
<path class="st3" d="M23.7,23.4h2.2v1.1h-2.2V23.4z"/>
<path class="st3" d="M27,23.4h3.3v1.1H27V23.4z"/>
</svg>
