<svg xmlns="http://www.w3.org/2000/svg" viewBox="0 0 31.99 32.05"><defs><style>.cls-1{fill:#f49496;}.cls-2{fill:#ffd384;}.cls-3{fill:#ee888e;}.cls-4{fill:#f6ddca;}.cls-5{fill:#fcc875;}.cls-6{fill:#eacec1;}.cls-7{fill:#bcd874;}.cls-8{fill:#b5cd6a;}.cls-9{fill:#fff;}</style></defs><g id="Layer_2" data-name="Layer 2"><g id="Layer_1-2" data-name="Layer 1"><path class="cls-1" d="M19.85,30.82v-4.1a7.66,7.66,0,0,0-7.66-7.66H7.65A7.66,7.66,0,0,0,0,26.72v4.1l9.92.56Z"/><path class="cls-2" d="M.07,18.93a3,3,0,0,0,3.29-4.11l-1.57-.63S-.2,15.19.07,18.93Z"/><path class="cls-3" d="M.33,32h3.1l.49-.56.49.56h11l.5-.56.49.56h3.1a.33.33,0,0,0,.33-.33v-.85H0v.85A.33.33,0,0,0,.33,32Z"/><path class="cls-4" d="M12.47,19.06s.12,3-2.55,3-2.55-3-2.55-3Z"/><path class="cls-5" d="M3.92,15l-.56-.22C3.19,17.31,1,18.53.07,18.93a8.67,8.67,0,0,0,.11.95.33.33,0,0,0,.45.25c1-.45,3.71-1.92,3.29-5.09Z"/><path class="cls-2" d="M18.13,12C20,2.63,14.53,0,9.92,0S-.18,2.63,1.72,12Z"/><path class="cls-6" d="M3.73,13.89l.79-1.19L3.71,11H3.5a2.09,2.09,0,0,0-2,1.48h0a2.33,2.33,0,0,0-.08.59A2.07,2.07,0,0,0,3.5,15.09,2,2,0,0,0,3.92,15l.41-.7-.6-.45Z"/><path class="cls-2" d="M19.78,18.93a3,3,0,0,1-3.3-4.11l1.57-.63s2,1,1.73,4.74Z"/><path class="cls-5" d="M15.93,15l.55-.22c.17,2.49,2.37,3.71,3.3,4.11,0,.3-.06.61-.11.95a.33.33,0,0,1-.46.25c-1-.45-3.7-1.92-3.28-5.09Z"/><path class="cls-6" d="M18.33,12.42h0a2.07,2.07,0,0,0-2-1.48h-.22l-.8,1.75.79,1.19h0l-.6.45.41.7a1.86,1.86,0,0,0,.42.05A2.08,2.08,0,0,0,18.42,13,2,2,0,0,0,18.33,12.42Z"/><path class="cls-4" d="M10.2,5.76A15.23,15.23,0,0,0,16.13,11v1.86a6.26,6.26,0,0,1-6.21,6.27,6.26,6.26,0,0,1-6.21-6.27V11a15.23,15.23,0,0,0,5.93-5.2.34.34,0,0,1,.56,0Z"/><path class="cls-6" d="M9.92,18.47a6.21,6.21,0,0,1-6.21-6.21v1.18a6.21,6.21,0,0,0,12.42,0V12.26a6.21,6.21,0,0,1-6.21,6.21Z"/><path class="cls-3" d="M4.41,27.66v3.18L4,31.4l-.53-.56V27.66a.49.49,0,0,1,1,0Z"/><path class="cls-3" d="M16.42,27.66v3.18l-.49.56-.5-.56V27.66a.5.5,0,0,1,1,0Z"/><path class="cls-3" d="M3.43,30.82h1V32h-1Z"/><path class="cls-3" d="M15.43,30.82h1V32h-1Z"/><path class="cls-7" d="M15.07,12.15v19a.86.86,0,0,0,.86.86H31.12a.86.86,0,0,0,.87-.86v-19Z"/><path class="cls-8" d="M16.55,31.19v-19H15.07v19a.86.86,0,0,0,.86.86h1.49A.86.86,0,0,1,16.55,31.19Z"/><path class="cls-1" d="M31.12,9.74H17.45v2.5H32V10.6a.86.86,0,0,0-.87-.86Z"/><path class="cls-1" d="M17.54,9.74H15.93a.86.86,0,0,0-.86.86v1.64h2.47V9.74Z"/><path class="cls-3" d="M17.42,9.74H15.93a.86.86,0,0,0-.86.86v1.64h1.48V10.6A.86.86,0,0,1,17.42,9.74Z"/><path class="cls-9" d="M23.53,14.18a3.13,3.13,0,0,0-1.94,5.6V19a1,1,0,0,1,1-1.06H24.5a1,1,0,0,1,1,1.06v.8a3.13,3.13,0,0,0-1.94-5.6Z"/><circle class="cls-4" cx="23.53" cy="16.69" r="1.15"/><path class="cls-1" d="M24.53,17.84h-2a1,1,0,0,0-1,1v.89a3.17,3.17,0,0,0,2,.73,3.13,3.13,0,0,0,2-.73v-.89A1,1,0,0,0,24.53,17.84Z"/><path class="cls-9" d="M27.05,23.62H20a.34.34,0,0,1,0-.68h7a.34.34,0,0,1,0,.68Z"/><path class="cls-9" d="M25.52,26H19.94a.31.31,0,0,1-.26-.34.31.31,0,0,1,.26-.33h5.58a.31.31,0,0,1,.27.33A.31.31,0,0,1,25.52,26Z"/><path class="cls-9" d="M23.43,28.42H19.85c-.1,0-.17-.15-.17-.33s.07-.34.17-.34h3.58c.1,0,.17.15.17.34S23.53,28.42,23.43,28.42Z"/></g></g></svg>