<?xml version="1.0" encoding="UTF-8"?>
<svg id="Layer_1" xmlns="http://www.w3.org/2000/svg" viewBox="0 0 1080 1080">
  <defs>
    <style>
      .cls-1 {
        fill: #1f3060;
      }
    </style>
  </defs>
  <path class="cls-1" d="M497.78,696.38h62.77v313.84h-62.77v-313.84Z"/>
  <path class="cls-1" d="M121.17,884.68h62.77v125.54h-62.77v-125.54Z"/>
  <path class="cls-1" d="M246.71,759.14h62.77v251.07h-62.77v-251.07Z"/>
  <path class="cls-1" d="M372.24,790.53h62.77v219.69h-62.77v-219.69Z"/>
  <path class="cls-1" d="M968.54,931.76h-15.69v31.38h-31.38v-31.38h-31.38v31.38h-31.38v-31.38h-31.38v31.38h-31.38v-31.38h-31.38v31.38h-31.38v-31.38h-31.38v31.38h-31.38v-31.38h-15.69c-8.63,0-15.69,7.06-15.69,15.69v31.38c0,8.63,7.06,15.69,15.69,15.69h313.84c8.63,0,15.69-7.06,15.69-15.69v-31.38c0-8.63-7.06-15.69-15.69-15.69Z"/>
  <path class="cls-1" d="M811.62,241.31c95.13,0,172.61,77.48,172.61,172.61s-77.48,172.61-172.61,172.61c-49.04,0-93.17-20.6-124.75-53.55l-9.81,33.93c35.9,31.58,82.97,51,134.36,51,112.39,0,204-91.6,204-204s-91.41-204-203.8-204c-93.37,0-172.22,63.16-196.15,148.88l36.68-10.4c25.7-62.77,87.48-107.1,159.47-107.1Z"/>
  <path class="cls-1" d="M811.62,272.69c-49.23,0-92.78,25.5-118.08,63.75l53.94-15.3-50.21,175.36c25.7,35.5,67.28,58.65,114.36,58.65,77.87,0,141.23-63.36,141.23-141.23s-63.36-141.23-141.23-141.23ZM878.31,360.56h-24.32c4.12,5.69,7.26,12.16,8.63,19.22h15.5v19.22h-15.5c-4.51,21.97-23.93,38.45-47.08,38.45h-6.87l42.76,42.76-13.53,13.53-56.3-56.3v-19.22h33.93c12.55,0,23.34-8.04,27.26-19.22h-61.4v-19.22h61.4c-3.92-11.18-14.71-19.22-27.26-19.22h-34.13v-19.22h96.9v19.22Z"/>
  <path class="cls-1" d="M968.54,837.6h-15.69v31.38h-31.38v-31.38h-31.38v31.38h-31.38v-31.38h-31.38v31.38h-31.38v-31.38h-31.38v31.38h-31.38v-31.38h-31.38v31.38h-31.38v-31.38h-15.69c-8.63,0-15.69,7.06-15.69,15.69v31.38c0,8.63,7.06,15.69,15.69,15.69h313.84c8.63,0,15.69-7.06,15.69-15.69v-31.38c0-8.63-7.06-15.69-15.69-15.69Z"/>
  <path class="cls-1" d="M968.54,743.45h-15.69v31.38h-31.38v-31.38h-31.38v31.38h-31.38v-31.38h-31.38v31.38h-31.38v-31.38h-31.38v31.38h-31.38v-31.38h-31.38v31.38h-31.38v-31.38h-15.69c-8.63,0-15.69,7.06-15.69,15.69v31.38c0,8.63,7.06,15.69,15.69,15.69h313.84c8.63,0,15.69-7.06,15.69-15.69v-31.38c0-8.63-7.06-15.69-15.69-15.69Z"/>
  <path class="cls-1" d="M968.54,649.3h-15.69v31.38h-31.38v-31.38h-31.38v31.38h-31.38v-31.38h-31.38v31.38h-31.38v-31.38h-31.38v31.38h-31.38v-31.38h-31.38v31.38h-31.38v-31.38h-15.69c-8.63,0-15.69,7.06-15.69,15.69v31.38c0,8.63,7.06,15.69,15.69,15.69h313.84c8.63,0,15.69-7.06,15.69-15.69v-31.38c0-8.63-7.06-15.69-15.69-15.69Z"/>
  <path class="cls-1" d="M701.78,366.84l-219.69,62.77,54.92,54.92-117.69,117.69v-235.38h47.08c43.35,0,78.46-35.11,78.46-78.46v-15.69h-78.46c-17.65,0-33.93,6.08-47.08,16.08v-78.85h47.08c77.87,0,141.23-63.36,141.23-141.23v-15.69h-78.46c-77.87,0-141.23,63.36-141.23,141.23v188.7c-13.14-10-29.42-16.08-47.08-16.08h-78.46v47.08c0,43.35,35.11,78.46,78.46,78.46h47.08v109.84l-62.77-62.77-94.15,94.15v-298.15h47.08c43.35,0,78.46-35.11,78.46-78.46v-15.69h-78.46c-17.65,0-33.93,6.08-47.08,16.08v-63.16c0-60.61-49.23-109.84-109.84-109.84h-47.08v15.69c0,60.61,49.23,109.84,109.84,109.84h15.69v95.92c-20.01-20.4-47.66-33.15-78.46-33.15h-47.08v15.69c0,60.61,49.23,109.84,109.84,109.84h15.69v266.77l-109.84,109.84,47.08,47.08,188.31-188.31,78.46,78.46,180.46-180.46,54.92,54.92,62.77-219.69Z"/>
</svg>