<?xml version="1.0" encoding="UTF-8"?>
<svg id="Layer_1" xmlns="http://www.w3.org/2000/svg" viewBox="0 0 1080 1080">
  <defs>
    <style>
      .cls-1 {
        fill: #1f3060;
      }
    </style>
  </defs>
  <path class="cls-1" d="M834.57,768.55l-9.68,30.98-48.27,154.63-9.64,30.84,61.84,19.32,67.61-216.46-61.86-19.3ZM380.97,147.39c-98.4,0-178.18,79.77-178.18,178.18s79.77,178.18,178.18,178.18,178.18-79.77,178.18-178.18h-178.18v-178.18ZM818.31,487.54h64.79v48.59h-64.79v-48.59Z"/>
  <g>
    <path class="cls-1" d="M910.78,780.34c-2-3.81-5.43-6.66-9.54-7.94l-61.84-19.32c-8.53-2.67-17.6,2.07-20.28,10.6,0,.01,0,.02-.01.03l-4.86,15.53-139.06-43.43-65.32-20.53c-12.98-4.09-27.09-2.54-38.87,4.27l-168.36,97.25c-11.77,6.31-20.43,17.17-23.97,30.05l-132.52-41.37c-25.61-8-52.86,6.28-60.86,31.89l-9.66,30.92c-8,25.62,6.27,52.88,31.89,60.88l341.07,106.5c12.15,3.82,25.32,2.69,36.65-3.14l140.68-72.38c3.78-1.93,8.17-2.31,12.23-1.05l18.18,5.69-4.82,15.39c-2.65,8.54,2.1,17.61,10.63,20.29l61.86,19.32c1.57.49,3.2.73,4.84.73,7.08,0,13.33-4.6,15.45-11.36l67.61-216.46c1.27-4.1.87-8.54-1.11-12.35h0ZM747.81,928.18c-12.18-3.84-25.39-2.7-36.73,3.18l-140.6,72.34c-3.78,1.94-8.18,2.31-12.23,1.03l-341.07-106.5c-8.54-2.67-13.3-11.75-10.63-20.29l9.66-30.92c2.63-8.52,11.68-13.29,20.2-10.66.03,0,.06.02.09.03l145.84,45.54c.06.1.1.2.14.3l15.04,28.67c12.46,23.77,41.83,32.94,65.6,20.49l129.12-67.67c7.94-4.12,11.04-13.89,6.93-21.83-4.12-7.94-13.89-11.04-21.83-6.93-.05.02-.09.05-.14.07l-129.12,67.67c-7.92,4.13-17.7,1.08-21.87-6.82l-15.02-28.69c-.51-.96-.92-1.97-1.24-3.02-2.13-7.4,1.24-15.28,8.06-18.85.2-.1.38-.22.59-.32l168.62-97.41c3.92-2.26,8.62-2.78,12.94-1.42l65.36,20.55,139.08,43.43-38.61,123.69-18.18-5.67ZM818.19,984.03l-30.92-9.66,57.95-185.53,30.92,9.66-57.95,185.53ZM891.2,34H194.69c-31.3.03-56.66,25.4-56.69,56.69v469.74c.03,31.3,25.4,56.66,56.69,56.69h49.99l124.83,124.85c6.32,6.33,16.58,6.33,22.91.01,3.04-3.04,4.75-7.17,4.75-11.47v-113.39h494.04c31.3-.03,56.66-25.4,56.69-56.69V90.69c-.03-31.3-25.4-56.66-56.69-56.69ZM915.5,560.43c-.01,13.41-10.88,24.29-24.3,24.3h-510.23c-8.95,0-16.2,7.25-16.2,16.2v90.49l-101.93-101.95c-3.04-3.04-7.16-4.74-11.46-4.74h-56.69c-13.41-.01-24.29-10.88-24.3-24.3V90.69c.01-13.41,10.88-24.29,24.3-24.3h696.51c13.41.01,24.29,10.88,24.3,24.3v469.74Z"/>
    <path class="cls-1" d="M429.56,293.17h178.18c8.95,0,16.2-7.25,16.2-16.2-.12-107.3-87.07-194.25-194.37-194.37-8.95,0-16.2,7.25-16.2,16.2v178.18c0,8.95,7.25,16.2,16.2,16.2ZM445.76,115.8c76.59,7.82,137.15,68.38,144.97,144.97h-144.97V115.8ZM883.1,163.58h-226.77c-8.95,0-16.2,7.25-16.2,16.2s7.25,16.2,16.2,16.2h226.77c8.95,0,16.2-7.25,16.2-16.2s-7.25-16.2-16.2-16.2ZM883.1,212.18h-226.77c-8.95,0-16.2,7.25-16.2,16.2s7.25,16.2,16.2,16.2h226.77c8.95,0,16.2-7.25,16.2-16.2s-7.25-16.2-16.2-16.2ZM656.33,293.17h161.98c8.95,0,16.2-7.25,16.2-16.2s-7.25-16.2-16.2-16.2h-161.98c-8.95,0-16.2,7.25-16.2,16.2s7.25,16.2,16.2,16.2ZM883.1,325.56h-226.77c-8.95,0-16.2,7.25-16.2,16.2s7.25,16.2,16.2,16.2h226.77c8.95,0,16.2-7.25,16.2-16.2s-7.25-16.2-16.2-16.2ZM883.1,374.16h-226.77c-8.95,0-16.2,7.25-16.2,16.2s7.25,16.2,16.2,16.2h226.77c8.95,0,16.2-7.25,16.2-16.2s-7.25-16.2-16.2-16.2ZM818.31,455.15c8.95,0,16.2-7.25,16.2-16.2s-7.25-16.2-16.2-16.2h-161.98c-8.95,0-16.2,7.25-16.2,16.2s7.25,16.2,16.2,16.2h161.98Z"/>
    <path class="cls-1" d="M769.72,519.94h-219.32l-41.39-48.27c42.16-36.84,66.35-90.11,66.33-146.11,0-8.95-7.25-16.2-16.2-16.2h-161.98v-161.98c0-8.95-7.25-16.2-16.2-16.2-107.35-.07-194.43,86.9-194.5,194.25-.07,107.35,86.9,194.43,194.25,194.5,36.09.02,71.47-10,102.19-28.95l47.74,55.7c3.08,3.58,7.57,5.65,12.29,5.65h226.77c8.95,0,16.2-7.25,16.2-16.2s-7.25-16.2-16.2-16.2ZM487.94,447.05l-29.89-34.85c-5.74-6.86-15.95-7.78-22.82-2.04-6.86,5.74-7.78,15.95-2.04,22.82.09.11.18.22.28.32l28.04,32.72c-77.59,44.5-176.56,17.68-221.06-59.91-44.5-77.59-17.68-176.56,59.91-221.06,19.78-11.34,41.72-18.38,64.41-20.66v161.17c0,8.95,7.25,16.2,16.2,16.2h161.17c-4.1,40.69-23.47,78.31-54.2,105.29ZM883.1,471.34h-64.79c-8.95,0-16.2,7.25-16.2,16.2v48.59c0,8.95,7.25,16.2,16.2,16.2h64.79c8.95,0,16.2-7.25,16.2-16.2v-48.59c0-8.95-7.25-16.2-16.2-16.2ZM866.91,519.94h-32.4v-16.2h32.4v16.2Z"/>
  </g>
</svg>