<?xml version="1.0" encoding="UTF-8"?>
<svg id="Layer_1" xmlns="http://www.w3.org/2000/svg" xmlns:xlink="http://www.w3.org/1999/xlink" viewBox="0 0 1080 1080">
  <defs>
    <style>
      .cls-1 {
        fill: #1f3060;
        fill-rule: evenodd;
      }

      .cls-2 {
        fill: none;
      }

      .cls-3 {
        clip-path: url(#clippath);
      }
    </style>
    <clipPath id="clippath">
      <rect class="cls-2" x="-5.37" y="-8.86" width="1097.37" height="1097.37"/>
    </clipPath>
  </defs>
  <g class="cls-3">
    <path class="cls-1" d="M673.65,456.17c50.48,0,91.61-41.09,91.61-91.59s-41.13-91.58-91.61-91.58-91.61,41.09-91.61,91.58c0,7.08.8,13.95,2.41,20.58l-151.95,87.7c-16.39-15.26-38.31-24.63-62.35-24.63-50.58,0-91.61,41.09-91.61,91.59s41.03,91.58,91.61,91.58c24.04,0,45.96-9.37,62.35-24.62l151.95,87.7c-1.61,6.62-2.41,13.5-2.41,20.58,0,50.49,41.13,91.58,91.61,91.58s91.61-41.09,91.61-91.58-41.13-91.59-91.61-91.59c-24.14,0-46.06,9.37-62.45,24.63l-151.85-87.7c1.51-6.62,2.31-13.5,2.31-20.58s-.8-13.95-2.31-20.58l151.85-87.7c16.39,15.26,38.31,24.62,62.45,24.62ZM543.32,995.28c-251.1,0-455.44-204.32-455.44-455.45S292.22,84.37,543.32,84.37s455.45,204.32,455.45,455.45-204.34,455.45-455.45,455.45ZM903.23,179.88c96.14,96.15,149.13,223.97,149.13,359.95s-53,263.8-149.13,359.94c-96.14,96.15-223.95,149.09-359.91,149.09s-263.77-52.94-360.01-149.09c-96.14-96.15-149.03-223.97-149.03-359.94s52.89-263.8,149.03-359.95C279.55,83.73,407.36,30.79,543.32,30.79s263.77,52.94,359.91,149.09Z"/>
  </g>
</svg>