<svg xmlns="http://www.w3.org/2000/svg" viewBox="0 0 30.7 30.66"><defs><style>.cls-1{fill:#f49496;}.cls-2{fill:#f08b90;}.cls-3{fill:#bcd874;}.cls-4{fill:#fff;}.cls-5{fill:#ffd384;}.cls-6{fill:#eeeff0;}.cls-7{fill:#b5cd6a;}</style></defs><g id="Layer_2" data-name="Layer 2"><g id="Layer_1-2" data-name="Layer 1"><path class="cls-1" d="M1.45,5.61A1.45,1.45,0,0,0,0,7.06V27.57l5.12,1.36,5.11-1.36v-22Z"/><path class="cls-1" d="M29.25,5.61H20.47v22l5.12,1.36,5.11-1.36V7.06A1.45,1.45,0,0,0,29.25,5.61Z"/><path class="cls-2" d="M24.33,5.61H20.47v22l3.86,1Z"/><path class="cls-2" d="M6.37,28.59l3.86-1v-22H6.37Z"/><path class="cls-3" d="M7.92,1.42V27.49l7.43,1.65,7.43-1.65V1.42Z"/><path class="cls-4" d="M25.75,14.9h2a.56.56,0,0,1,.55.56v3a.55.55,0,0,1-.55.55h-2a.55.55,0,0,1-.56-.55v-3A.56.56,0,0,1,25.75,14.9Z"/><path class="cls-5" d="M10.1,18.87a8.58,8.58,0,0,1,3-.55H30.7v9.25L15.35,29.14,2.93,27.57v-.35A5.58,5.58,0,0,1,3.41,25Z"/><path class="cls-4" d="M10.1,18.87v2.82A3.28,3.28,0,0,1,6.82,25H3.41a5.48,5.48,0,0,1,1.14-1.65L7,20.85A8.36,8.36,0,0,1,10.1,18.87Z"/><path class="cls-1" d="M15.12,21.43H13.49a1.25,1.25,0,0,0-1.26,1.25v6.46h4.14V22.68A1.25,1.25,0,0,0,15.12,21.43Z"/><path class="cls-4" d="M21.26,21.43H19.45a.92.92,0,0,0-.92.91v1.81a.92.92,0,0,0,.92.92h1.81a.92.92,0,0,0,.92-.92V22.34A.92.92,0,0,0,21.26,21.43Z"/><path class="cls-4" d="M27.31,21.43H25.5a.91.91,0,0,0-.91.91v1.81a.92.92,0,0,0,.91.92h1.81a.92.92,0,0,0,.92-.92V22.34A.92.92,0,0,0,27.31,21.43Z"/><path class="cls-4" d="M5,8.12H3a.56.56,0,0,0-.55.56v3a.55.55,0,0,0,.55.55H5a.55.55,0,0,0,.56-.55v-3A.56.56,0,0,0,5,8.12Z"/><path class="cls-6" d="M12.9,5.12h-2a.55.55,0,0,0-.55.55v3a.55.55,0,0,0,.55.55h2a.56.56,0,0,0,.56-.55v-3A.56.56,0,0,0,12.9,5.12Z"/><path class="cls-6" d="M12.9,11.67h-2a.55.55,0,0,0-.55.55v3a.56.56,0,0,0,.55.56h2a.56.56,0,0,0,.56-.56v-3A.56.56,0,0,0,12.9,11.67Z"/><path class="cls-6" d="M17.8,5.12h2a.55.55,0,0,1,.55.55v3a.55.55,0,0,1-.55.55h-2a.55.55,0,0,1-.55-.55v-3A.55.55,0,0,1,17.8,5.12Z"/><path class="cls-6" d="M17.8,11.67h2a.55.55,0,0,1,.55.55v3a.55.55,0,0,1-.55.56h-2a.55.55,0,0,1-.55-.56v-3A.55.55,0,0,1,17.8,11.67Z"/><path class="cls-4" d="M5,14.9H3a.56.56,0,0,0-.55.56v3A.55.55,0,0,0,3,19H5a.55.55,0,0,0,.56-.55v-3A.56.56,0,0,0,5,14.9Z"/><path class="cls-4" d="M25.75,8.12h2a.56.56,0,0,1,.55.56v3a.55.55,0,0,1-.55.55h-2a.55.55,0,0,1-.56-.55v-3A.56.56,0,0,1,25.75,8.12Z"/><path class="cls-7" d="M7.92,4.56H22.78V1.42H7.92Z"/><path class="cls-1" d="M22.78,0H7.92a.79.79,0,0,0-.79.79V1.92a.79.79,0,0,0,.79.79H22.78a.79.79,0,0,0,.79-.79V.79A.79.79,0,0,0,22.78,0Z"/><path class="cls-3" d="M0,27.57H30.7v3.09H0Z"/></g></g></svg>