<svg width="32" height="32" viewBox="0 0 32 32" fill="none" xmlns="http://www.w3.org/2000/svg">
<g clip-path="url(#clip0_18_1245)">
<path d="M29.5 10.8L28.3 9.69998C28 9.39998 27.5 9.39998 27.1 9.59998L26.7 9.89998V8.59998C26.7 7.99998 26.3 7.59998 25.7 7.59998C25.1 7.59998 24.7 7.99998 24.7 8.59998V9.99998L24.3 9.69998C23.9 9.49998 23.4 9.49998 23.1 9.79998L22 10.8C21.6 11.2 21.6 11.8 21.9 12.2C22.3 12.6 22.9 12.6 23.3 12.3L23.9 11.8L24.8 12.4V14.2C24.8 14.8 25.2 15.2 25.8 15.2C26.4 15.2 26.8 14.8 26.8 14.2V12.4L27.6 11.8L28.2 12.3C28.6 12.7 29.2 12.6 29.6 12.2C30 11.8 30 11.2 29.5 10.8Z" fill="#042b62"/>
<path d="M19.8 10.8L18.6 9.69998C18.3 9.39998 17.8 9.39998 17.4 9.59998L17 9.99998V8.59998C17 7.99998 16.6 7.59998 16 7.59998C15.4 7.59998 15 7.99998 15 8.59998V9.99998L14.6 9.69998C14.2 9.49998 13.7 9.49998 13.4 9.79998L12.2 10.8C11.8 11.2 11.8 11.8 12.1 12.2C12.5 12.6 13.1 12.6 13.5 12.3L14.1 11.8L15 12.4V14.2C15 14.8 15.4 15.2 16 15.2C16.6 15.2 17 14.8 17 14.2V12.4L17.8 11.8L18.4 12.3C18.8 12.7 19.4 12.6 19.8 12.2C20.2 11.8 20.2 11.2 19.8 10.8Z" fill="#042b62"/>
<path d="M10 10.8L8.90002 9.79998C8.50002 9.49998 8.00003 9.39998 7.60003 9.69998L7.20003 9.99998V8.59998C7.20003 7.99998 6.80003 7.59998 6.20003 7.59998C5.60003 7.59998 5.20003 7.99998 5.20003 8.59998V9.99998L4.80003 9.69998C4.50003 9.49998 4.00003 9.49998 3.60003 9.79998L2.40003 10.8C2.00003 11.2 2.00003 11.8 2.30003 12.2C2.60003 12.6 3.30003 12.6 3.70003 12.3L4.30003 11.8L5.10003 12.4V14.2C5.10003 14.8 5.50003 15.2 6.10003 15.2C6.70003 15.2 7.10003 14.8 7.10003 14.2V12.4L7.90003 11.8L8.50003 12.3C8.90003 12.7 9.50002 12.6 9.90002 12.2C10.5 11.8 10.4 11.2 10 10.8Z" fill="#042b62"/>
<path d="M32 14.1C32 13.5 31.6 13.1 31 13.1H1C0.4 13.1 0 13.5 0 14.1V30.9C0 31.5 0.4 31.9 1 31.9H31C31.6 31.9 32 31.5 32 30.9V14.1Z" fill="#042b62"/>
<path d="M32 30.9V20.5C27.8 20.5 19.9 20.9 14.3 23.1C6.4 26.3 4.2 20.9 3.9 18.7C3.8 17.6 1.9 17.6 0 17.9V31C0 31.6 0.4 32 1 32H31C31.6 31.9 32 31.5 32 30.9Z" fill="#042b62"/>
<path d="M31.8 30.5L22.1 13.6C21.9 13.3 21.6 13.1 21.2 13.1H10.7C10.3 13.1 9.99999 13.3 9.79999 13.6L0.0999925 30.5C-0.100007 31 -7.48038e-06 31.6 0.499993 31.9C0.599993 32 0.799992 32 0.999992 32H31C31.6 32 32 31.6 32 31C32 30.8 32 30.7 31.8 30.5Z" fill="#042b62"/>
<path d="M23.9 30.7L19.4 13.8C19.3 13.4 18.9 13 18.4 13.1H13.6C13.1 13.1 12.7 13.4 12.6 13.8L8.09997 30.7C7.99997 31.2 8.29997 31.8 8.79997 31.9C8.89997 31.9 8.89997 31.9 8.99997 31.9H22.9C23.5 31.9 23.9 31.5 23.9 30.9C24 30.9 23.9 30.8 23.9 30.7Z" fill="#042b62"/>
<path d="M8.99997 32H22.9C23.5 32 23.9 31.6 23.9 31C23.9 30.9 23.9 30.8 23.9 30.7L21.4 21.4C18.9 22.2 15.6 22.5 13.7 19.9C13.1 19.1 12.3 18.5 11.4 18.1L8.09997 30.7C7.99997 31.2 8.29997 31.8 8.79997 31.9C8.79997 32 8.89997 32 8.99997 32Z" fill="#042b62"/>
<path d="M27.9 1.99999C26.8 -0.600012 24.6 -0.600012 23.5 1.99999C23.2 2.99999 23 4.09999 23 5.09999C22.9 5.99999 23 6.99999 23.3 7.89999C23.6 8.99999 24.7 9.69999 25.8 9.59999C26.9 9.69999 28 8.99999 28.3 7.89999C28.5 6.99999 28.6 5.99999 28.6 5.09999C28.5 3.99999 28.3 2.99999 27.9 1.99999Z" fill="#EAEAEA" stroke="#939393" stroke-width="0.25"/>
<path d="M16 0C14 0 13.2 3.1 13.2 5.1C13.1 6 13.2 7 13.5 7.9C13.8 9 14.9 9.7 16 9.6C17.1 9.7 18.2 9 18.5 7.9C18.7 7 18.8 6 18.8 5.1C18.8 3.1 17.9 0 16 0Z" fill="#EAEAEA" stroke="#939393" stroke-width="0.25"/>
<path d="M6.19998 0C4.29998 0 3.49998 3.1 3.49998 5.1C3.39998 6.1 3.49998 7 3.69998 7.9C4.09998 9 5.09998 9.7 6.19998 9.6C7.39998 9.7 8.39998 9 8.69998 7.9C8.99998 7 9.09998 6.1 8.99998 5.1C8.99998 3.1 8.19998 0 6.19998 0Z" fill="#EAEAEA" stroke="#939393" stroke-width="0.25"/>
<path d="M8.7 7.9C8.9 7.4 9 6.9 9 6.3C7.1 6.5 5.2 6.2 3.5 5.5C3.5 6.3 3.6 7.1 3.8 7.9C4.1 9 5.1 9.7 6.2 9.6C7.4 9.7 8.4 9 8.7 7.9Z" fill="#E2E2E2"/>
<path d="M16 9.59998C17.1 9.69998 18.2 8.99998 18.5 7.89998C18.8 6.49998 18.9 5.09998 18.7 3.59998C16.8 3.49998 15 3.89998 13.3 4.59998C13.2 5.69998 13.3 6.79998 13.6 7.79998C13.8 8.99998 14.9 9.69998 16 9.59998Z" fill="#E2E2E2"/>
<path d="M28.2 7.89999C28.3 7.49999 28.4 6.99999 28.4 6.59999C26.5 6.79999 24.7 6.49999 22.9 5.79999C22.9 6.49999 23 7.19999 23.2 7.89999C23.5 8.99999 24.6 9.69999 25.7 9.59999C26.9 9.69999 27.9 8.99999 28.2 7.89999Z" fill="#E2E2E2"/>
</g>
<defs>
<clipPath id="clip0_18_1245">
<rect width="32" height="32" fill="white"/>
</clipPath>
</defs>
</svg>
