<svg width="32" height="32" viewBox="0 0 32 32" fill="none" xmlns="http://www.w3.org/2000/svg">
<g clip-path="url(#clip0_18_1260)">
<path d="M25.8 0H11.7C11.3 0 11 0.3 11 0.7V31.8H26.5V0.7C26.5 0.3 26.2 0 25.8 0Z" fill="#042b62"/>
<path d="M5.3 9.90002C5.1 9.90002 5 9.70002 5 9.60002V5.30002C5 5.10002 5.1 4.90002 5.3 4.90002C5.5 4.90002 5.7 5.00002 5.7 5.20002V5.30002V9.50002C5.7 9.70002 5.6 9.90002 5.3 9.90002Z" fill="#E2E2E2" stroke="#939393" stroke-width="0.25"/>
<path d="M11 9.20001V31.8H0.7C0.3 31.8 0 31.5 0 31.1V9.90001C0 9.50001 0.3 9.20001 0.7 9.20001H11Z" fill="#042b62"/>
<path d="M1.79999 11H4.59999V13.8H1.79999V11Z" fill="white"/>
<path d="M6.40002 11H9.20002V13.8H6.40002V11Z" fill="white"/>
<path d="M1.79999 15.6H4.59999V18.4H1.79999V15.6Z" fill="white"/>
<path d="M6.40002 15.6H9.20002V18.4H6.40002V15.6Z" fill="white"/>
<path d="M1.79999 20.2H4.59999V23H1.79999V20.2Z" fill="white"/>
<path d="M6.40002 20.2H9.20002V23H6.40002V20.2Z" fill="white"/>
<path d="M12.7 1.79999H15.5V4.59999H12.7V1.79999Z" fill="white"/>
<path d="M17.3 1.79999H20.1V4.59999H17.3V1.79999Z" fill="white"/>
<path d="M21.9 1.79999H24.7V4.59999H21.9V1.79999Z" fill="white"/>
<path d="M12.7 6.40002H15.5V9.20002H12.7V6.40002Z" fill="white"/>
<path d="M17.3 6.40002H20.1V9.20002H17.3V6.40002Z" fill="white"/>
<path d="M21.9 6.40002H24.7V9.20002H21.9V6.40002Z" fill="white"/>
<path d="M12.7 11H15.5V13.8H12.7V11Z" fill="white"/>
<path d="M17.3 11H20.1V13.8H17.3V11Z" fill="white"/>
<path d="M21.9 11H24.7V13.8H21.9V11Z" fill="white"/>
<path d="M12.7 15.6H15.5V18.4H12.7V15.6Z" fill="white"/>
<path d="M17.3 15.6H20.1V18.4H17.3V15.6Z" fill="white"/>
<path d="M21.9 15.6H24.7V18.4H21.9V15.6Z" fill="white"/>
<path d="M27.9 23.7C27.7 23.7 27.5 23.5 27.5 23.3V22.2C27.5 21.6 27 21.1 26.4 21.1H24.3C23.7 21.1 23.2 21.6 23.2 22.2V23.3C23.2 23.5 23 23.7 22.8 23.7C22.6 23.7 22.4 23.5 22.4 23.3V22.2C22.4 21.2 23.2 20.4 24.2 20.4H26.3C27.3 20.4 28.1 21.2 28.1 22.2V23.3C28.3 23.5 28.1 23.7 27.9 23.7Z" fill="#EAEAEA" stroke="#939393" stroke-width="0.25"/>
<path d="M31.1 31.8H19.8C19.4 31.8 19.1 31.5 19.1 31.1V24C19.1 23.6 19.4 23.3 19.8 23.3H31.1C31.5 23.3 31.8 23.6 31.8 24V31.1C31.8 31.5 31.5 31.8 31.1 31.8Z" fill="#E2E2E2" stroke="#939393" stroke-width="0.25"/>
<path d="M31.1 31.8H19.8C19.4 31.8 19.1 31.5 19.1 31.1V26.9H31.8V31.1C31.8 31.5 31.5 31.8 31.1 31.8Z" fill="#042b62"/>
<path d="M21.6 26.2H23V28H21.6V26.2Z" fill="#EAEAEA"/>
<path d="M27.9 26.2H29.3V28H27.9V26.2Z" fill="#EAEAEA"/>
<path d="M21.2 31.8C21.2 30.6 20.3 29.7 19.1 29.7V31.1C19.1 31.5 19.4 31.8 19.8 31.8H21.2Z" fill="#E2E2E2"/>
<path d="M29.7 31.8C29.7 30.6 30.6 29.7 31.8 29.7V31.1C31.8 31.5 31.5 31.8 31.1 31.8H29.7Z" fill="#E2E2E2"/>
<path d="M4.89999 1.7C4.99999 1.6 5.29999 1.5 5.39999 1.7C6.69999 3 6.49999 5 5.19999 6.2C3.99999 7.3 2.19999 7.3 0.999992 6.2C0.899992 6.1 0.799992 5.8 0.999992 5.7L4.89999 1.7Z" fill="#E2E2E2" stroke="#939393" stroke-width="0.25"/>
<path d="M13.1 31.8V24.7C13.1 24.3 13.4 24 13.8 24H16.6C17 24 17.3 24.3 17.3 24.7V31.8H13.1Z" fill="white"/>
<path d="M23 25.8H21.6C21.4 25.8 21.2 26 21.2 26.2V28C21.2 28.2 21.4 28.4 21.6 28.4H22V29C22 29.2 22.1 29.4 22.3 29.4C22.5 29.4 22.7 29.3 22.7 29.1V29V28.3H23C23.2 28.3 23.4 28.1 23.4 28V26.2C23.4 26 23.2 25.8 23 25.8ZM22.6 27.6H21.9V26.5H22.6V27.6Z" fill="white"/>
<path d="M29.4 25.8H28C27.8 25.8 27.6 26 27.6 26.2V28C27.6 28.2 27.8 28.4 28 28.4H28.4V29C28.4 29.2 28.5 29.4 28.7 29.4C28.9 29.4 29.1 29.2 29 29V28.3H29.4C29.6 28.3 29.8 28.1 29.8 27.9V26.1C29.7 26 29.6 25.8 29.4 25.8ZM29 27.6H28.3V26.5H29V27.6Z" fill="white"/>
</g>
<defs>
<clipPath id="clip0_18_1260">
<rect width="31.8" height="31.8" fill="white"/>
</clipPath>
</defs>
</svg>
