<?xml version="1.0" encoding="utf-8"?>
<!-- Generator: Adobe Illustrator 27.8.1, SVG Export Plug-In . SVG Version: 6.00 Build 0)  -->
<svg version="1.1" id="Layer_1" xmlns="http://www.w3.org/2000/svg" xmlns:xlink="http://www.w3.org/1999/xlink" x="0px" y="0px"
	 viewBox="0 0 512 512" style="enable-background:new 0 0 512 512;" xml:space="preserve" fill="#042b62">
<path d="M256,469.3c-117.8,0-213.3-95.5-213.3-213.3S138.2,42.7,256,42.7S469.3,138.2,469.3,256S373.8,469.3,256,469.3z M256,426.7
	c45.3,0,88.7-18,120.7-50c32-32,50-75.4,50-120.7c0-45.3-18-88.7-50-120.7c-32-32-75.4-50-120.7-50c-45.3,0-88.7,18-120.7,50
	c-32,32-50,75.4-50,120.7c0,45.3,18,88.7,50,120.7C167.3,408.7,210.7,426.7,256,426.7z"/>
</svg>
