<?xml version="1.0" encoding="UTF-8"?>
<svg width="526px" height="510px" viewBox="0 0 526 510" version="1.1" xmlns="http://www.w3.org/2000/svg" xmlns:xlink="http://www.w3.org/1999/xlink">
    <!-- Generator: Sketch 53.2 (72643) - https://sketchapp.com -->
    <title>Group 77</title>
    <desc>Created with Sketch.</desc>
    <g id="Page-1" stroke="none" stroke-width="1" fill="none" fill-rule="evenodd" opacity="0.59828404">
        <g id="Landing-Page-1.1" transform="translate(-341.000000, -922.000000)" fill="#FDF1DB" fill-rule="nonzero">
            <g id="Group-77" transform="translate(201.000000, 762.000000)">
                <path d="M447.938544,143.186445 C516.582732,211.764496 644.746545,239.639608 642.92597,290.090609 C641.105395,340.682535 631.757246,360.648157 552.098841,455.992622 C472.440436,551.337087 515.510204,610.831273 444.149003,643.862322 C372.787802,676.89337 181.485444,630.658979 142.142849,535.766893 C102.800253,440.874807 110.629338,375.152397 129.828197,274.620602 C149.027055,174.088807 169.929317,188.441601 227.109555,131.316455 C284.289792,74.1913096 379.294356,74.6083935 447.938544,143.186445 Z" id="Path" style="mix-blend-mode: multiply;" transform="translate(378.472580, 372.240378) rotate(-121.000000) translate(-378.472580, -372.240378) "></path>
                <path d="M379.020682,366.845316 C419.12135,406.815108 493.992284,423.061742 492.928738,452.466428 C491.865192,481.95325 486.404175,493.589944 439.869205,549.16018 C393.334235,604.730416 418.494799,639.405801 376.806903,658.657502 C335.119006,677.909204 223.363699,650.962112 200.380481,595.655539 C177.397263,540.348965 181.97087,502.043544 193.186489,443.449943 C204.402107,384.856341 216.612823,393.221674 250.016462,359.927052 C283.420102,326.632431 338.920015,326.875523 379.020682,366.845316 Z" id="Path" style="mix-blend-mode: multiply;" transform="translate(338.439948, 500.346313) rotate(-57.000000) translate(-338.439948, -500.346313) "></path>
            </g>
        </g>
    </g>
</svg>