<?xml version="1.0" encoding="utf-8"?>
<!-- Generator: Adobe Illustrator 25.2.3, SVG Export Plug-In . SVG Version: 6.00 Build 0)  -->
<svg version="1.1" id="Layer_1" xmlns="http://www.w3.org/2000/svg" xmlns:xlink="http://www.w3.org/1999/xlink" x="0px" y="0px"
	 viewBox="0 0 3000 2000" style="enable-background:new 0 0 3000 2000;" xml:space="preserve">
<style type="text/css">
	.st0{fill:#FFFFFF;}
	.st1{opacity:0.21;clip-path:url(#XMLID_2_);fill:#D4DFFF;}
	.st2{fill:#EAF2FC;}
	.st3{fill:#6880E4;}
	.st4{fill:#D4DFFF;}
	.st5{fill:#8C9EF4;}
	.st6{clip-path:url(#XMLID_3_);fill:#D4DFFF;}
	.st7{fill:#1B3D9E;}
	.st8{clip-path:url(#XMLID_4_);fill:#1C056D;}
	.st9{clip-path:url(#XMLID_5_);fill:#F6AB36;}
	.st10{clip-path:url(#XMLID_6_);fill:#FFFFFF;}
	.st11{fill:#F6AB36;}
	.st12{opacity:0.24;clip-path:url(#XMLID_7_);fill:#1C056D;}
	.st13{clip-path:url(#XMLID_8_);fill:#E57492;}
	.st14{fill:#E57492;}
	.st15{opacity:0.24;clip-path:url(#XMLID_9_);fill:#1C056D;}
	.st16{clip-path:url(#XMLID_10_);fill:#1C056D;}
	.st17{clip-path:url(#XMLID_11_);fill:#1B3D9E;}
	.st18{opacity:0.24;clip-path:url(#XMLID_11_);fill:#1C056D;}
	.st19{clip-path:url(#XMLID_12_);fill:#FFFFFF;}
	.st20{clip-path:url(#XMLID_12_);fill:#1C056D;}
	.st21{clip-path:url(#XMLID_13_);fill:#E57492;}
	.st22{fill:#F9C438;}
	.st23{clip-path:url(#XMLID_14_);fill:#E57492;}
	.st24{fill:#FE8E9C;}
	.st25{fill:#FC476A;}
</style>
<rect class="st0" width="3000" height="2000"/>
<g>
	<defs>
		<path id="XMLID_66_" d="M371.2,1812.4h2250.7c38.7-100,80.8-203.1,92.3-309.7c11.5-106.6-7.6-220.7-74.8-304.2
			c-61.5-76.4-154.6-118.4-235.2-174.3c-80.9-56-150.8-127.8-204.8-210c-63.9-97.5-105.8-209.7-181.6-298.2
			c-58.9-68.8-136.1-120.3-218.3-158.5c-158.6-73.8-360.3-94.7-498.3,12.8c-75.5,58.8-121.6,148.4-148.7,240.2
			c-27.2,91.8-37.6,187.6-55.6,281.6c-27.9,145.7-91.2,306.4-230.8,356.4c-118.3,42.3-257.3-9.5-371.5,42.7
			c-48.9,22.4-88.2,62.1-118.3,106.7C295.3,1517.8,317.7,1678,371.2,1812.4z"/>
	</defs>
	<use xlink:href="#XMLID_66_"  style="overflow:visible;fill:#F6F9FF;"/>
	<clipPath id="XMLID_2_">
		<use xlink:href="#XMLID_66_"  style="overflow:visible;"/>
	</clipPath>
	<path class="st1" d="M250.7,1414.8c28.1-51.9,83.6-85.1,141.5-96.3c57.9-11.2,118-2.7,174.8,13c110.3,30.5,213,88.1,296.4,166.4
		c71.5,67.1,133.7,152,226.9,182.8c75.8,25.1,159.6,8.9,233.7-20.8c74.1-29.7,142.5-72.3,216.4-102.6
		c185.3-76.1,396.6-70.6,589.9-18.4c193.4,52.2,371.9,148.3,544,250.7c0,2.4-5.7-1.7-5.7,0.8v72.8H237.5L250.7,1414.8z"/>
</g>
<path class="st2" d="M2205.1,1814.2h139.8c124.4,0,199.5-153.8,250.1-267.5c-85.2,22.7-166.1,64.8-231.2,124.4
	c53.3-113.8,78.4-240.7,72.4-366.2c-66.4,74-118.2,162.1-150,256.3c-0.2-152.7-10.4-311.6-84.3-445.3
	c-36.4,157.6-72.3,322.2-45,481.7C2168.9,1667.6,2180.5,1747.4,2205.1,1814.2z"/>
<g>
	<path class="st3" d="M926.7,1232c-6.6,3.4-176.8,219.6-176.8,219.6l68.5,180.9l443.4-167.9l-68.5-180.9
		C1193.3,1283.7,933.3,1228.6,926.7,1232z"/>
	<g>
		<path class="st2" d="M1195.5,1492.7l-323.6,122.5c-6.8,2.6-14.5-0.9-17.1-7.7l-100.2-264.7c-2.6-6.8,0.9-14.5,7.7-17.1
			l323.6-122.5c6.8-2.6,14.5,0.9,17.1,7.7l100.2,264.7C1205.8,1482.4,1202.3,1490.1,1195.5,1492.7z"/>
		<g>
			<path class="st0" d="M1085.3,1275.3l-274.9,104.1c-1.4,0.5-3-0.2-3.5-1.6l-4.1-10.7c-0.5-1.4,0.2-3,1.6-3.5l274.9-104.1
				c1.4-0.5,3,0.2,3.5,1.6l4.1,10.7C1087.4,1273.2,1086.7,1274.7,1085.3,1275.3z"/>
			<path class="st0" d="M1095.8,1302.9L820.9,1407c-1.4,0.5-3-0.2-3.5-1.6l-4.1-10.7c-0.5-1.4,0.2-3,1.6-3.5l274.9-104.1
				c1.4-0.5,3,0.2,3.5,1.6l4.1,10.7C1097.9,1300.8,1097.2,1302.4,1095.8,1302.9z"/>
			<path class="st0" d="M1106.3,1330.6l-274.9,104.1c-1.4,0.5-3-0.2-3.5-1.6l-4.1-10.7c-0.5-1.4,0.2-3,1.6-3.5l274.9-104.1
				c1.4-0.5,3,0.2,3.5,1.6l4.1,10.7C1108.4,1328.5,1107.7,1330.1,1106.3,1330.6z"/>
			<path class="st0" d="M1116.7,1358.3l-274.9,104.1c-1.4,0.5-3-0.2-3.5-1.6l-4.1-10.7c-0.5-1.4,0.2-3,1.6-3.5l274.9-104.1
				c1.4-0.5,3,0.2,3.5,1.6l4.1,10.7C1118.9,1356.2,1118.2,1357.7,1116.7,1358.3z"/>
			<path class="st0" d="M1127.2,1385.9L852.4,1490c-1.4,0.5-3-0.2-3.5-1.6l-4.1-10.7c-0.5-1.4,0.2-3,1.6-3.5l274.9-104.1
				c1.4-0.5,3,0.2,3.5,1.6l4.1,10.7C1129.3,1383.8,1128.6,1385.4,1127.2,1385.9z"/>
			<path class="st0" d="M1137.7,1413.6l-274.9,104.1c-1.4,0.5-3-0.2-3.5-1.6l-4.1-10.7c-0.5-1.4,0.2-3,1.6-3.5l274.9-104.1
				c1.4-0.5,3,0.2,3.5,1.6l4.1,10.7C1139.8,1411.5,1139.1,1413.1,1137.7,1413.6z"/>
		</g>
		<g>
			<path class="st4" d="M759.7,1477.5c0,0,246.7,52.9,265,42.8c18.3-10.1,178.3-210.7,178.3-210.7l108.4,286.4
				c2.2,5.7-0.7,12.1-6.4,14.3l-422.6,160c-5.7,2.2-12.1-0.7-14.3-6.4L759.7,1477.5z"/>
			<g>
				<path class="st5" d="M949.2,1614l-96.8,36.7c-1.3,0.5-2.8-0.2-3.3-1.5l-10.4-27.6c-0.5-1.3,0.2-2.8,1.5-3.3l96.8-36.7
					c1.3-0.5,2.8,0.2,3.3,1.5l10.4,27.6C951.2,1612,950.5,1613.5,949.2,1614z"/>
				<g>
					<path class="st5" d="M1240.6,1480.8l-146.4,55.4c-0.9,0.3-1.9-0.1-2.2-1l-3.4-9.1c-0.3-0.9,0.1-1.9,1-2.2l146.4-55.4
						c0.9-0.3,1.9,0.1,2.2,1l3.4,9.1C1241.9,1479.5,1241.5,1480.5,1240.6,1480.8z"/>
					<path class="st2" d="M1247.4,1498.7l-146.4,55.4c-0.9,0.3-1.9-0.1-2.2-1l-3.4-9.1c-0.3-0.9,0.1-1.9,1-2.2l146.4-55.4
						c0.9-0.3,1.9,0.1,2.2,1l3.4,9.1C1248.7,1497.4,1248.3,1498.4,1247.4,1498.7z"/>
					<path class="st2" d="M1254.1,1516.6l-146.4,55.4c-0.9,0.3-1.9-0.1-2.2-1l-3.4-9.1c-0.3-0.9,0.1-1.9,1-2.2l146.4-55.4
						c0.9-0.3,1.9,0.1,2.2,1l3.4,9.1C1255.5,1515.3,1255,1516.3,1254.1,1516.6z"/>
					<path class="st2" d="M1260.9,1534.5l-146.4,55.4c-0.9,0.3-1.9-0.1-2.2-1l-3.4-9.1c-0.3-0.9,0.1-1.9,1-2.2l146.4-55.4
						c0.9-0.3,1.9,0.1,2.2,1l3.4,9.1C1262.3,1533.2,1261.8,1534.2,1260.9,1534.5z"/>
				</g>
			</g>
		</g>
	</g>
</g>
<path class="st2" d="M1546,1812.4c-0.5-30.1-1-60.8-1.5-90.9c-0.8-50.9-1.8-102.2-13.8-151.6c-13.8-56.2-41.5-107.9-69-158.9
	c-30-55.7-60.1-111.4-90.1-167.1c-28.1,91.3-56.3,188.3-33.2,281c-40.3-47.3-84.9-91-133.1-130.3c13.6,103.2,66.5,200.8,145.7,268.5
	c-42.9-23.9-90.3-39.9-138.9-46.9c68,98.6,173.1,167.9,289.4,196.4H1546z"/>
<g>
	<g>
		<g>
			<path class="st3" d="M2224.4,1812.4h-706c-16.4,0-29.6-13.3-29.6-29.6V529.2c0-16.4,13.3-29.6,29.6-29.6h706
				c16.4,0,29.6,13.3,29.6,29.6v1253.6C2254.1,1799.2,2240.8,1812.4,2224.4,1812.4z"/>
			<g>
				<defs>
					<path id="XMLID_64_" d="M2153.9,1691.1H1562c-13.7,0-24.8-11.1-24.8-24.8v-1051c0-13.7,11.1-24.8,24.8-24.8h591.9
						c13.7,0,24.8,11.1,24.8,24.8v1051C2178.7,1680,2167.6,1691.1,2153.9,1691.1z"/>
				</defs>
				<use xlink:href="#XMLID_64_"  style="overflow:visible;fill:#FFFFFF;"/>
				<clipPath id="XMLID_3_">
					<use xlink:href="#XMLID_64_"  style="overflow:visible;"/>
				</clipPath>
				<path class="st6" d="M2279.4,1140.8c0,0-79.6-129.6-272.7-15.8s-669.3,406.9-669.3,406.9v175h958.9L2279.4,1140.8z"/>
			</g>
		</g>
	</g>
	<g>
		<path class="st7" d="M1979.7,1776.3h-141.9c-12.6,0-22.8-10.2-22.8-22.8v-12.7c0-12.6,10.2-22.8,22.8-22.8h141.9
			c12.6,0,22.8,10.2,22.8,22.8v12.7C2002.5,1766.1,1992.3,1776.3,1979.7,1776.3z"/>
		<g>
			<g>
				<defs>
					<path id="XMLID_63_" d="M1423.9,1455.8c0,0,4.4,285.4,94.5,356.7h220.8c0,0,36.9-267.7-64.7-339.8L1423.9,1455.8z"/>
				</defs>
				<use xlink:href="#XMLID_63_"  style="overflow:visible;fill:#1B3D9E;"/>
				<clipPath id="XMLID_4_">
					<use xlink:href="#XMLID_63_"  style="overflow:visible;"/>
				</clipPath>
				<path class="st8" d="M1544.7,1828.5c0-4.3-27.9-273.5-39.7-284.2c-11.8-10.7-8.6,283.2,5.4,286.4
					C1524.3,1833.8,1544.7,1828.5,1544.7,1828.5z"/>
			</g>
			<g>
				<g>
					<defs>
						<path id="XMLID_62_" d="M1531.4,977.2c0,0-162.2,88.8-212.7,125.1c-91.2,65.6,11.1-194.5-5.2-205.6
							c-16.3-11.1-133-12.6-150.3,19c-17.3,31.6-67.1,356,52.1,347.8c119.2-8.2,244-65.4,244-65.4S1561,1027.4,1531.4,977.2z"/>
					</defs>
					<use xlink:href="#XMLID_62_"  style="overflow:visible;fill:#F9C438;"/>
					<clipPath id="XMLID_5_">
						<use xlink:href="#XMLID_62_"  style="overflow:visible;"/>
					</clipPath>
					<path class="st9" d="M1325.7,1097.4c0,0-83.5,86.6-83.5,70.9c0-15.7,39.9-106.6,39.9-106.6S1293.9,1107.3,1325.7,1097.4"/>
					<path class="st9" d="M1205.4,889.5c0,0-18.3,44.4-6.6,56.1c11.7,11.7,71.5,24.1,81.1,19c9.5-5.1,29.3-75.1,29.3-75.1
						S1234.7,879.4,1205.4,889.5z"/>
				</g>
				<g>
					<defs>
						<path id="XMLID_61_" d="M1655.8,949.5c0,0,127.7,112,120.1,184.1c-7.7,72.1-76.7,326.8-101.3,339.1
							c-24.5,12.3-225,30.7-250.6-16.9c-25.6-47.6-2.5-366.7,31.2-418.9c33.8-52.2,102.8-69,102.8-69L1655.8,949.5z"/>
					</defs>
					<use xlink:href="#XMLID_61_"  style="overflow:visible;fill:#F9C438;"/>
					<clipPath id="XMLID_6_">
						<use xlink:href="#XMLID_61_"  style="overflow:visible;"/>
					</clipPath>
					<path class="st10" d="M1408,1229.2c0,0,137.2,64.1,345.7,40.4l-4.3,40c0,0-280.9,20.8-353.3-46.8L1408,1229.2z"/>
					<path class="st10" d="M1400.5,1310.1c0,0,133.1,48.2,286.8,36.8l-8.7,31.1c0,0-203.4,17.6-283.3-38.8L1400.5,1310.1z"/>
				</g>
				<path class="st11" d="M1420.5,1214.1c0,0,7.7-81,31.3-142.3c0,0-64,60.1-73.9,157.4C1377.9,1229.2,1399.4,1221.3,1420.5,1214.1z
					"/>
				<path class="st0" d="M1544.1,989.4c0,0-1.3,11.4,2.7,12.2s52.2-2,100.2-24.3l9.7,5.9c0,0-66.1,35.1-103.2,30.6
					C1516.4,1009.3,1544.1,989.4,1544.1,989.4z"/>
				<g>
					<g>
						<defs>
							<path id="XMLID_60_" d="M1577.9,694.7c-12.2,1.5-24.6,3.1-36.2,7.2s-22.7,10.9-29.6,21.1c-10.1,14.8-10.2,34.3-18.1,50.4
								c-9.8,19.9-30.6,32.6-41.2,52.1c-5.9,10.9-8.3,23.8-5.9,36c3.3,16.6,15.2,30.6,29.4,39.8c14.2,9.2,30.7,14.3,47,18.6
								c32.8,8.7,66.3,14.9,100,18.6c12.5-28.1,22.2-57.3,30.5-86.8c10.2-36.5,16.9-76.3,3.5-111.8c-3.5-9.4-8.5-18.4-15.7-25.6
								C1626.1,698.9,1599.6,691.9,1577.9,694.7z"/>
						</defs>
						<use xlink:href="#XMLID_60_"  style="overflow:visible;fill:#1B3D9E;"/>
						<clipPath id="XMLID_7_">
							<use xlink:href="#XMLID_60_"  style="overflow:visible;"/>
						</clipPath>
						<path class="st12" d="M1515.4,742.5c0,0-70.5,122.9-26.6,156.8c43.9,33.9,89.2-6.3,89.2-6.3l6.6-155L1515.4,742.5z"/>
					</g>
					<g>
						<defs>
							<path id="XMLID_59_" d="M1665,745.6c-8.9-16.7-49.1-41.6-85.7-42.7c-20.6-0.6-39.5,11.6-48.1,30.3
								c-19.5,42.5-61.8,143.6-32.1,160.2c13.2,7.4,30.6,7.7,48.1,4.2c-2.7,27.9-3.4,92.5-2.9,101.3c0.7,12.3,86.8-10,102.8-21.6
								c16-11.6-26.9-116.4-26.9-116.4C1631.7,844.1,1677.4,768.8,1665,745.6z"/>
						</defs>
						<use xlink:href="#XMLID_59_"  style="overflow:visible;fill:#FE8E9C;"/>
						<clipPath id="XMLID_8_">
							<use xlink:href="#XMLID_59_"  style="overflow:visible;"/>
						</clipPath>
						<path class="st13" d="M1547.1,897.5c0,0,24-9.7,45-22.8c0,0-18.1,58.1-54.4,56.6L1547.1,897.5"/>
						<path class="st13" d="M1505.7,770.5c1.9-0.4,16.9,2.6,44.1-19.8c0,0,10.1,14.5,43.9-6.1l5.3-28.1l-69.8-9.2L1505.7,770.5z"/>
					</g>
					<path class="st14" d="M1539.1,794.2c0,0-22.8,15.8-21.3,20.1s17.6-1.2,19.2-0.1c1.6,1.1-3.4,6.1-5.6,5.8
						c-2.2-0.2-17.4-0.1-17.3-5.5S1521.6,801.6,1539.1,794.2z"/>
					<path class="st0" d="M1513.6,834.4c0,0,22.2,12.4,48.6,0c0,0-15,20.5-31,19.5C1510,852.6,1513.6,834.4,1513.6,834.4z"/>
					<g>
						<defs>
							<path id="XMLID_58_" d="M1588,769.4c5.3,11.5,15.6,20.1,21,31.6c9.4,20.1,1.7,43.4-3.7,64.9c-7.8,31.1-9.9,66.3,7.4,93.3
								c11.2,17.5,29.4,29.7,49.1,36.6c19.6,6.9,40.6,8.8,61.4,9.3c45.5,1.1,91.2-4.8,134.9-17.3c-9.3-3.6-19.2-7.5-25.2-15.5
								c-7.8-10.2-7.4-24.2-7.7-37c-0.5-21.3-3.9-42.8-12.3-62.4c-8.4-19.6-22.1-37.3-40.2-48.5c-13.6-8.3-29.8-13.3-40.1-25.4
								c-11.6-13.5-13.1-32.6-17.1-49.9c-3.4-14.4-8.8-28.3-16.1-41.1c-5-8.8-11.4-17.5-20.6-21.7c-8.7-4-18.8-3.5-28.3-1.8
								c-32.1,5.8-60.8,24.8-65.6,59.6C1583.4,752.7,1584.3,761.5,1588,769.4z"/>
						</defs>
						<use xlink:href="#XMLID_58_"  style="overflow:visible;fill:#1B3D9E;"/>
						<clipPath id="XMLID_9_">
							<use xlink:href="#XMLID_58_"  style="overflow:visible;"/>
						</clipPath>
						<path class="st15" d="M1831.9,945.5c0,0-145.4,70.4-227,22.4c0,0,65.4,81.3,178.4,62.6c113-18.7,115.8-34.8,115.8-34.8
							L1831.9,945.5z"/>
					</g>
					<path class="st7" d="M1563.3,740.5c-0.9-0.1-1.8-0.2-2.6-0.6c-2-1.1-2.3-4-1.7-6.3c0.6-2.3,1.8-4.4,1.6-6.8
						c-12.4,16.2-33.2,23.8-53.3,26.9c-1,0.2-2.3,0.2-2.9-0.5c-0.3-0.3-0.4-0.8-0.6-1.2c-6.1-21.2-1-45.3,13.2-62.2
						c7-8.3,15.8-14.8,25.2-20.1c26.3-15,58.8-21.2,87.2-10.8c9.2,3.4,18,8.7,23.2,17c1.9,3.1,3.3,6.6,3.2,10.2
						c-0.1,5.7-3.7,10.7-7.9,14.4c-5.2,4.6-11.5,7.7-18,10.1c-3.3,1.2-6.6,2.1-9.9,3.1c-2.1,0.7-3.8,1.5-5.2,3.1
						c-4.1,4.5-7.8,8.9-12.8,12.5c-5.2,3.8-11.1,6.7-17.3,8.7c-6.2,1.9-12.7,2.9-19.1,2.7C1564.8,740.6,1564,740.6,1563.3,740.5z"/>
				</g>
				<g>
					<g>
						<defs>
							<path id="XMLID_57_" d="M1276.7,802.5c0,0-75,110.4-57.2,122.9c17.8,12.5,41.4,16.6,44.9,9.6c3.6-6.9,49.2-128.4,49.2-128.4
								L1276.7,802.5z"/>
						</defs>
						<use xlink:href="#XMLID_57_"  style="overflow:visible;fill:#1B3D9E;"/>
						<clipPath id="XMLID_10_">
							<use xlink:href="#XMLID_57_"  style="overflow:visible;"/>
						</clipPath>
						<path class="st16" d="M1249.1,835.4c0,0,64.8,6.5,67.2,1c2.4-5.4,8.6-26.2,8.6-26.2s-69-19.5-71.4-13.1
							C1251,803.5,1249.1,835.4,1249.1,835.4z"/>
					</g>
					<g>
						<g>
							<defs>
								<path id="XMLID_56_" d="M1377.1,802c2.2-7-0.5-14.6-6.6-18.7c-48.6-32.2-252.8-166.7-265-162.4
									c-13.9,4.9-72.6,171.6-61.1,193.8c10.2,19.7,261.7,2.8,318.1-1.3C1369.3,813,1375.1,808.4,1377.1,802L1377.1,802z"/>
							</defs>
							<use xlink:href="#XMLID_56_"  style="overflow:visible;fill:#68A9FD;"/>
							<clipPath id="XMLID_11_">
								<use xlink:href="#XMLID_56_"  style="overflow:visible;"/>
							</clipPath>
							<path class="st17" d="M1322.8,737.1c0,0,14,47.8-25.8,101.4c0,0,94.3-8.8,97.6-19.3c3.3-10.5,10.8-20.2,6.1-27.4
								C1396,784.5,1322.8,737.1,1322.8,737.1z"/>
							<path class="st18" d="M1042.9,762.4c0,0,66.3-13.9,127.2,20c60.9,34,180.2,16.5,180.2,16.5l-7.8,25.1
								c0,0-243.8,28.8-279.5,20.1C1027.4,835.5,1029.9,783.3,1042.9,762.4"/>
						</g>
						<g>
							<defs>
								
									<ellipse id="XMLID_55_" transform="matrix(0.3005 -0.9538 0.9538 0.3005 67.0913 1528.9543)" cx="1075.9" cy="718.7" rx="102.8" ry="22"/>
							</defs>
							<use xlink:href="#XMLID_55_"  style="overflow:visible;fill:#1B3D9E;"/>
							<clipPath id="XMLID_12_">
								<use xlink:href="#XMLID_55_"  style="overflow:visible;"/>
							</clipPath>
							<path class="st19" d="M1107.8,714.5c0,0-35.5-24.6-42.9-1.9c-7.4,22.7-7,30.7,37.8,34.8L1107.8,714.5z"/>
							<path class="st20" d="M1094.6,624.5c0,0,11.3,5,7.8,32.4c-3,23.6-32.7,144.5-66.6,157.1c0,0,6.7,14.6,16.7,13.3
								c10-1.4,42.4-44.9,48.9-72.7c6.5-27.9,30.5-105.7,29.4-118.5C1129.8,623.2,1101.5,612.1,1094.6,624.5z"/>
						</g>
					</g>
				</g>
				<path class="st11" d="M1689.2,1450.3c0,0-57.1,29.5-64.3,26.9c-7.2-2.6-35.8-16.9-47.5-31.1c0,0-4.6,32.2,24.1,38.5
					c0,0,51.8-1.8,73.1-11.9C1674.6,1472.7,1683.6,1469.3,1689.2,1450.3z"/>
				<g>
					<defs>
						<path id="XMLID_54_" d="M1586.9,1397.9c0,0-53.2,18.5-68.2,29.5c0,0-75.7,48.8-64.9,52.9c6,2.2,28-8.4,46.6-18.4
							c-10.2,24.3-20.3,53.2-15.5,52.1c7.7-1.7,44.7-56.7,44.7-56.7s-24.8,63.2-20.9,63.3c3.9,0.1,28.8-20.3,35.5-57.4
							c0,0-7.5,52.1-2.4,53.3c5.1,1.2,21.7-51.3,21.7-51.3s44.8-17.5,45.8-26.4C1610.3,1430,1586.9,1397.9,1586.9,1397.9z"/>
					</defs>
					<use xlink:href="#XMLID_54_"  style="overflow:visible;fill:#FE8E9C;"/>
					<clipPath id="XMLID_13_">
						<use xlink:href="#XMLID_54_"  style="overflow:visible;"/>
					</clipPath>
					<path class="st21" d="M1522.1,1420.5c-0.5,4.2,35.6,40.3,62.8,40.3s29.7-18.6,29.7-18.6l-41.1-53.9
						C1573.5,1388.3,1522.9,1413,1522.1,1420.5z"/>
					<path class="st21" d="M1453.8,1480.3c0,0,49-28.6,52.7-30.7c3.7-2.1-9.4,17.2-9.4,17.2S1453.2,1487,1453.8,1480.3"/>
				</g>
				<g>
					<path class="st22" d="M1744.8,1049.8c0,0,151.8,198.2,140.9,250.6c-11,52.4-241.3,181.6-260.8,176.7
						c-19.5-4.9-73.8-41.5-68.6-79.3c5.2-37.7,171-153.5,171-153.5s-88-57.3-84.2-103.6C1646.8,1094.5,1744.8,1049.8,1744.8,1049.8z
						"/>
					<g>
						<path class="st11" d="M1562.2,1384.6c0,0,109.4-104.3,165-140.2c0,0-61.5-26.2-84.2-103.6c0,0,4.5,100.5,52.4,106.9
							C1695.4,1247.6,1561.6,1332.9,1562.2,1384.6z"/>
						<path class="st11" d="M1727.2,1045.9c0,0-62.9,25.7-79.5,79.1C1647.7,1125,1638.2,1070.8,1727.2,1045.9z"/>
					</g>
				</g>
				<g>
					<g>
						<defs>
							<path id="XMLID_52_" d="M1301.7,838.6c0,0-45.3,15.1-43.2,19.7c2.1,4.5,35.3,1.3,35.3,1.3s-11.7,30.7-11.7,30.7
								c0,0,14.5,1,20.8,2.7c0,0,23.9-38,21.8-45.5C1322.6,840.1,1301.7,838.6,1301.7,838.6z"/>
						</defs>
						<use xlink:href="#XMLID_52_"  style="overflow:visible;fill:#FE8E9C;"/>
						<clipPath id="XMLID_14_">
							<use xlink:href="#XMLID_52_"  style="overflow:visible;"/>
						</clipPath>
						<path class="st23" d="M1294.2,897.2c0,0,13.7-40.2,11.6-39.8c-2,0.3-15.5,2.5-15.5,2.5l-12.2,33.2L1294.2,897.2z"/>
						<path class="st23" d="M1265.9,861c0,0,23-3.4,25.6-7.9c2.6-4.5-18-6-18-6s-18,10.6-15.2,12.4
							C1261.2,861.2,1265.9,861,1265.9,861z"/>
					</g>
					<path class="st24" d="M1241.5,848.3c1.6-0.9,3.5-1.2,5.3-1.2c8,0.1,35.8,0.8,40.3,4.5c5.2,4.4-42,11.3-47.1,10.2
						C1235.5,861,1234.2,852.3,1241.5,848.3z"/>
					<path class="st24" d="M1279.5,864.8c-4.5-3.8-32.3-4.4-40.3-4.5c-1.8,0-3.7,0.3-5.3,1.2c-5.8,3.1-6.2,9.2-3.9,12
						c-6.7,4.1-5.3,12.3-0.9,13.2c5.1,1,47.6-6.8,42.3-11.2c-2.4-2-6.8-2.2-16.1-2.8C1268.8,870.6,1282.5,867.3,1279.5,864.8z"/>
					<path class="st14" d="M1255.4,872.8c0,0-17.5,3.6-25.3,0.8c0,0,22.4-1.9,31.8-3.9c9.4-2,17.6-4.8,17.6-4.8s2.1,1.2-3,3.1
						C1271.4,869.9,1255.4,872.8,1255.4,872.8z"/>
				</g>
			</g>
		</g>
	</g>
</g>
<g>
	<path class="st25" d="M1042.6,590.1l-20.7-138.3c-2.7-18.1-19.6-30.6-37.7-27.8l-289.1,43.3c-18.1,2.7-30.6,19.6-27.8,37.7
		L688,643.3c2.7,18.1,19.6,30.6,37.7,27.8l155.9-23.4c20.1,29.5,102.8,79.2,96.9,66.5c-4.3-9.3-14.2-54.1-19.3-78.1l55.6-8.3
		C1032.8,625.1,1045.3,608.2,1042.6,590.1z"/>
	<g>
		<path class="st0" d="M726.7,516.2c-1.3,0-2.4-0.9-2.6-2.2c-0.2-1.4,0.7-2.7,2.1-2.9L955,475.4c1.4-0.2,2.7,0.7,2.9,2.1
			c0.2,1.4-0.7,2.7-2.1,2.9l-228.7,35.7C727,516.2,726.8,516.2,726.7,516.2z"/>
		<path class="st0" d="M732.5,548.7c-1.3,0-2.4-0.9-2.6-2.2c-0.2-1.4,0.7-2.7,2.1-2.9l228.7-35.7c1.4-0.2,2.7,0.7,2.9,2.1
			c0.2,1.4-0.7,2.7-2.1,2.9l-228.7,35.7C732.7,548.7,732.6,548.7,732.5,548.7z"/>
		<path class="st0" d="M738.2,581.2c-1.3,0-2.4-0.9-2.6-2.2c-0.2-1.4,0.7-2.7,2.1-2.9l228.7-35.7c1.4-0.2,2.7,0.7,2.9,2.1
			c0.2,1.4-0.7,2.7-2.1,2.9l-228.7,35.7C738.4,581.2,738.3,581.2,738.2,581.2z"/>
		<path class="st0" d="M743.9,613.7c-1.3,0-2.4-0.9-2.6-2.2c-0.2-1.4,0.7-2.7,2.1-2.9l228.7-35.7c1.4-0.2,2.7,0.7,2.9,2.1
			c0.2,1.4-0.7,2.7-2.1,2.9l-228.7,35.7C744.1,613.7,744,613.7,743.9,613.7z"/>
	</g>
</g>
</svg>
