<?xml version="1.0" encoding="UTF-8"?>
<svg width="38px" height="38px" viewBox="0 0 38 38" version="1.1" xmlns="http://www.w3.org/2000/svg" xmlns:xlink="http://www.w3.org/1999/xlink">
    <!-- Generator: Sketch 53.2 (72643) - https://sketchapp.com -->
    <title>Group 74</title>
    <desc>Created with Sketch.</desc>
    <defs>
        <polygon id="path-1" points="0.11088 0.171428571 9.19395692 0.171428571 9.19395692 9.59997143 0.11088 9.59997143"></polygon>
        <linearGradient x1="-126.831136%" y1="50%" x2="114.61221%" y2="50%" id="linearGradient-3">
            <stop stop-color="#F67F9C" offset="0%"></stop>
            <stop stop-color="#EF305E" offset="100%"></stop>
        </linearGradient>
        <linearGradient x1="-126.831136%" y1="50%" x2="114.61221%" y2="50%" id="linearGradient-4">
            <stop stop-color="#F67F9C" offset="0%"></stop>
            <stop stop-color="#EF305E" offset="100%"></stop>
        </linearGradient>
        <linearGradient x1="-126.831136%" y1="50%" x2="114.61221%" y2="50%" id="linearGradient-5">
            <stop stop-color="#F67F9C" offset="0%"></stop>
            <stop stop-color="#EF305E" offset="100%"></stop>
        </linearGradient>
        <linearGradient x1="-151.866481%" y1="50%" x2="239.895703%" y2="50%" id="linearGradient-6">
            <stop stop-color="#F67F9C" offset="0%"></stop>
            <stop stop-color="#EF305E" offset="100%"></stop>
        </linearGradient>
        <linearGradient x1="-72.6184808%" y1="46.2599158%" x2="91.5812023%" y2="50%" id="linearGradient-7">
            <stop stop-color="#F67F9C" offset="0%"></stop>
            <stop stop-color="#EF305E" offset="100%"></stop>
        </linearGradient>
    </defs>
    <g id="Page-1" stroke="none" stroke-width="1" fill="none" fill-rule="evenodd">
        <g id="Landing-Page-1.1" transform="translate(-542.000000, -444.000000)">
            <g id="Group-74" transform="translate(542.000000, 444.000000)">
                <g id="Group-34" fill="#EF305E">
                    <circle id="Oval" opacity="0.0975864955" cx="19" cy="19" r="19"></circle>
                    <circle id="Oval" opacity="0.099609375" cx="19" cy="19" r="16"></circle>
                    <circle id="Oval" style="mix-blend-mode: multiply;" opacity="0.502673921" cx="18" cy="8" r="1"></circle>
                    <circle id="Oval-Copy-2" style="mix-blend-mode: multiply;" opacity="0.502673921" cx="23" cy="31" r="1"></circle>
                    <circle id="Oval-Copy-3" style="mix-blend-mode: multiply;" opacity="0.502673921" cx="10.5" cy="9.5" r="1"></circle>
                    <circle id="Oval-Copy-4" style="mix-blend-mode: multiply;" opacity="0.502673921" cx="29.5" cy="22.5" r="1"></circle>
                    <circle id="Oval-Copy-5" style="mix-blend-mode: multiply;" opacity="0.502673921" cx="8.5" cy="21.5" r="1"></circle>
                </g>
                <g id="financial" transform="translate(12.000000, 10.000000)">
                    <g id="Group-56" transform="translate(0.000000, -0.000000)">
                        <g id="Group-3" transform="translate(6.369231, 0.000000)">
                            <mask id="mask-2" fill="white">
                                <use xlink:href="#path-1"></use>
                            </mask>
                            <g id="Clip-2"></g>
                            <path d="M4.68011077,9.05711429 C2.46472615,9.05711429 0.636756923,7.19997143 0.636756923,4.88568571 C0.636756923,2.59997143 2.43675692,0.714257143 4.68011077,0.714257143 C6.61857231,0.714257143 8.25214154,2.14282857 8.64011077,4.02854286 L9.19395692,4.02854286 C8.80598769,1.85711429 6.92318769,0.1714 4.68011077,0.1714 C2.15983385,0.1714 0.11088,2.28568571 0.11088,4.88568571 C0.11088,7.48568571 2.15983385,9.59997143 4.68011077,9.59997143 C6.92318769,9.59997143 8.80598769,7.91425714 9.19395692,5.71425714 L8.64011077,5.71425714 C8.25214154,7.62854286 6.61857231,9.05711429 4.68011077,9.05711429" id="Fill-1" fill="url(#linearGradient-3)" mask="url(#mask-2)"></path>
                        </g>
                        <path d="M11.0493415,7.71434286 C9.55395692,7.71434286 8.30780308,6.4572 8.30780308,4.88577143 C8.30780308,3.34291429 9.52626462,2.0572 11.0493415,2.0572 C12.2675262,2.0572 13.3198338,2.88577143 13.6521415,4.02862857 L14.2059877,4.02862857 C13.8462646,2.57148571 12.5724185,1.48577143 11.0493415,1.48577143 C9.24934154,1.48577143 7.78164923,3.00005714 7.78164923,4.8572 C7.78164923,6.71434286 9.24934154,8.22862857 11.0493415,8.22862857 C12.5724185,8.22862857 13.8462646,7.14291429 14.2059877,5.68577143 L13.6521415,5.68577143 C13.3198338,6.8572 12.2675262,7.71434286 11.0493415,7.71434286" id="Fill-4" fill="url(#linearGradient-4)"></path>
                        <path d="M11.0493415,6.37142857 C10.27368,6.37142857 9.60934154,5.71428571 9.60934154,4.88571429 C9.60934154,4.08571429 10.2462646,3.4 11.0493415,3.4 C11.5478031,3.4 11.9631877,3.65714286 12.2401108,4.02857143 L12.8493415,4.02857143 C12.5444492,3.31428571 11.8521415,2.82857143 11.0493415,2.82857143 C9.96934154,2.82857143 9.08291077,3.74285714 9.08291077,4.85714286 C9.08291077,5.97142857 9.96934154,6.88571429 11.0493415,6.88571429 C11.8521415,6.88571429 12.5444492,6.4 12.8493415,5.68571429 L12.2401108,5.68571429 C11.9631877,6.11428571 11.5478031,6.37142857 11.0493415,6.37142857" id="Fill-6" fill="url(#linearGradient-5)"></path>
                        <polygon id="Fill-8" fill="url(#linearGradient-6)" points="0.166181538 14.3998857 3.48925846 14.3998857 3.48925846 17.8573143"></polygon>
                        <path d="M5.20615385,15.0857143 L7.08923077,15.0857143 L7.08923077,14.5142857 L5.20615385,14.5142857 L5.20615385,15.0857143 Z M1.88307692,12.5714286 L6.28615385,12.5714286 L6.28615385,12 L1.88307692,12 L1.88307692,12.5714286 Z M1.88307692,10.0857143 L5.20615385,10.0857143 L5.20615385,9.51428571 L1.88307692,9.51428571 L1.88307692,10.0857143 Z M1.88307692,7.57142857 L4.92923077,7.57142857 L4.92923077,7 L1.88307692,7 L1.88307692,7.57142857 Z M1.88307692,5.05714286 L4.12615385,5.05714286 L4.12615385,4.48571429 L1.88307692,4.48571429 L1.88307692,5.05714286 Z M11.0492308,10.1714286 C8.22461538,10.1714286 5.92615385,7.8 5.92615385,4.88571429 C5.92615385,4.08571429 6.09230769,3.34285714 6.39692308,2.65714286 L0.803076923,2.65714286 C0.36,2.65714286 3.62376795e-13,3.02857143 3.62376795e-13,3.48571429 L3.62376795e-13,13.8285714 L4.04307692,13.8285714 L4.04307692,18 L12.1292308,18 C12.5723077,18 12.9323077,17.6285714 12.9323077,17.1714286 L12.9323077,9.77142857 C12.3507692,10.0285714 11.7138462,10.1714286 11.0492308,10.1714286 L11.0492308,10.1714286 Z" id="Fill-14" fill="url(#linearGradient-7)"></path>
                        <path d="M16.9477477,4.88565714 L17.6677477,4.1428 C17.7785169,4.02851429 17.7785169,3.85708571 17.6677477,3.7428 C17.5569785,3.62851429 17.3908246,3.62851429 17.2800554,3.7428 L16.4492862,4.59994286 L11.0492862,4.59994286 C10.9108246,4.59994286 10.7723631,4.71422857 10.7723631,4.88565714 C10.7723631,5.02851429 10.8831323,5.17137143 11.0492862,5.17137143 L16.4492862,5.17137143 L17.2800554,6.02851429 C17.3351631,6.08565714 17.3908246,6.11422857 17.4736246,6.11422857 C17.5292862,6.11422857 17.6120862,6.08565714 17.6677477,6.02851429 C17.7785169,5.91422857 17.7785169,5.7428 17.6677477,5.62851429 L16.9477477,4.88565714 Z" id="Fill-16" fill="#EF305E"></path>
                        <g id="rupee" transform="translate(8.584615, 11.885714)" fill="#FFFFFF">
                            <g id="payroll-management-rupee">
                                <g id="Group" fill-rule="nonzero">
                                    <path d="M2.77241379,0.42 L0.217241379,0.42 C0.103448276,0.42 0.0103448276,0.33 0.0103448276,0.22 C0.0103448276,0.11 0.103448276,0.02 0.217241379,0.02 L2.77241379,0.02 C2.8862069,0.02 2.97931034,0.11 2.97931034,0.22 C2.97931034,0.33 2.8862069,0.42 2.77241379,0.42 Z" id="Path"></path>
                                    <path d="M2.77241379,1.42 L0.217241379,1.42 C0.103448276,1.42 0.0103448276,1.33 0.0103448276,1.22 C0.0103448276,1.11 0.103448276,1.02 0.217241379,1.02 L2.77241379,1.02 C2.8862069,1.02 2.97931034,1.11 2.97931034,1.22 C2.97931034,1.33 2.8862069,1.42 2.77241379,1.42 Z" id="Path"></path>
                                    <path d="M0.967241379,2.255 L0.217241379,2.255 C0.103448276,2.255 0.0103448276,2.165 0.0103448276,2.055 C0.0103448276,1.945 0.103448276,1.855 0.217241379,1.855 L0.967241379,1.855 C1.37586207,1.855 1.71206897,1.535 1.71206897,1.135 C1.71206897,0.735 1.38103448,0.415 0.967241379,0.415 L0.217241379,0.415 C0.103448276,0.415 0.0103448276,0.325 0.0103448276,0.215 C0.0103448276,0.105 0.103448276,0.015 0.217241379,0.015 L0.967241379,0.015 C1.60344828,0.015 2.12586207,0.515 2.12586207,1.135 C2.12586207,1.755 1.60862069,2.255 0.967241379,2.255 Z" id="Path"></path>
                                    <path d="M2.06896552,3.98 C2.01724138,3.98 1.96551724,3.96 1.92413793,3.925 L0.0724137931,2.2 C-0.0103448276,2.125 -0.0103448276,1.995 0.0672413793,1.915 C0.144827586,1.835 0.279310345,1.835 0.362068966,1.91 L2.2137931,3.63 C2.29655172,3.705 2.29655172,3.835 2.21896552,3.915 C2.17241379,3.955 2.12068966,3.98 2.06896552,3.98 Z" id="Path"></path>
                                </g>
                            </g>
                        </g>
                    </g>
                </g>
            </g>
        </g>
    </g>
</svg>