<?xml version="1.0" encoding="UTF-8"?>
<svg width="22px" height="22px" viewBox="0 0 22 22" version="1.1" xmlns="http://www.w3.org/2000/svg" xmlns:xlink="http://www.w3.org/1999/xlink">
    <!-- Generator: Sketch 56.3 (81716) - https://sketch.com -->
    <title>Shape</title>
    <desc>Created with Sketch.</desc>
    <g id="New-UI" stroke="none" stroke-width="1" fill="none" fill-rule="evenodd" opacity="0.463797433">
        <g id="21.-Retirement-(expenses)-1" transform="translate(-195.000000, -652.000000)" fill="#005263" fill-rule="nonzero">
            <path d="M204.380889,665.185924 C204.678424,665.407563 204.976485,665.629989 205.274808,665.852153 C204.963354,666.159401 204.651376,666.466912 204.340973,666.773897 C204.312086,666.803571 204.285037,666.834559 204.256676,666.864758 L204.271644,666.661502 C204.307359,666.169905 204.343336,665.677521 204.380889,665.185924 Z M206.82866,660.851891 C205.315249,661.80646 203.801838,662.763655 202.28764,663.7177 C202.256914,663.73687 202.223301,663.751838 202.189161,663.767332 C202.387431,664.401261 202.5857,665.035452 202.783444,665.669905 C202.924727,666.116334 203.071262,666.561712 203.20493,667.009979 C203.260078,667.195903 203.355667,667.295431 203.55735,667.260242 C203.613286,666.501576 203.666858,665.743435 203.724106,664.984506 C203.730671,664.896008 203.741176,664.806197 203.751943,664.7177 C203.666332,664.668592 203.703885,664.57458 203.73356,664.543592 C203.785819,664.489758 203.838078,664.434874 203.890337,664.380252 C203.908982,664.36292 203.928415,664.345326 203.946535,664.327994 C203.972796,664.300683 203.998269,664.273372 204.024267,664.246324 C204.149531,664.129727 204.27427,664.011029 204.399534,663.893908 C204.470964,663.826418 204.543181,663.758666 204.614873,663.691439 C204.809203,663.509454 205.003271,663.327731 205.201015,663.148634 C205.703647,662.691702 206.21652,662.245273 206.720203,661.790179 C207.36228,661.209296 208.002781,660.626313 208.638818,660.038866 C208.685563,659.974002 208.715762,659.890494 208.756729,659.819065 C208.642757,659.834296 208.50909,659.815389 208.41849,659.868697 C207.883032,660.187763 207.35624,660.519433 206.82866,660.851891 Z M217,663 C217,669.075105 212.075046,674 205.999869,674 C199.924429,674 195,669.075105 195,663 C195,656.924632 199.924429,652 205.999869,652 C212.075046,652 217,656.924632 217,663 Z M210.911955,658.617647 C210.906177,658.57563 210.901976,658.532563 210.893572,658.491334 C210.79667,658.024422 210.540889,657.883403 210.082901,658.040179 C210.015673,658.062763 209.94687,658.077468 209.878591,658.096113 C209.623074,658.201681 209.370182,658.314601 209.110988,658.411502 C208.681361,658.573529 208.247532,658.725053 207.814229,658.881303 C207.550045,658.991334 207.287699,659.106355 207.021152,659.210609 C206.353339,659.471639 205.684214,659.727679 205.015351,659.986082 C203.638759,660.516807 202.261904,661.047269 200.884261,661.577994 C200.574909,661.697479 200.26293,661.810662 199.956729,661.938025 C199.687556,662.049107 199.412868,662.156775 199.164966,662.305935 C199.055195,662.371849 198.934396,662.545168 198.947001,662.6552 C198.959081,662.766282 199.128988,662.861345 199.232981,662.960609 C199.251889,662.978729 199.28419,662.984506 199.311501,662.99291 C200.041289,663.21875 200.771077,663.44459 201.501391,663.669905 C201.497452,663.746061 201.506118,663.823792 201.530015,663.900735 L201.795512,664.752363 L202.144518,665.869748 C202.185485,665.999475 202.226714,666.126838 202.267156,666.254202 C202.366422,666.565389 202.469627,666.886817 202.563378,667.201418 C202.767687,667.883929 203.318639,667.936712 203.482769,667.936712 C203.507192,667.936712 203.53319,667.935137 203.558926,667.934086 C203.584136,667.935137 203.609346,667.935924 203.634294,667.935924 C204.05578,667.935924 204.326529,667.703782 204.487771,667.564863 C204.517446,667.538866 204.545807,667.514968 204.566291,667.499212 C204.599642,667.474265 204.630892,667.447216 204.657678,667.417017 C204.678687,667.395221 204.697857,667.372637 204.718603,667.351103 C204.75248,667.313288 204.784255,667.277836 204.812355,667.25 C205.057368,667.007353 205.301856,666.765494 205.547395,666.523372 L205.838365,666.236345 C205.879332,666.264706 205.920298,666.292805 205.961528,666.320903 C206.623563,666.815126 207.284548,667.311712 207.948947,667.803309 C208.444751,668.169905 208.791394,668.074842 209.031417,667.514706 C209.133572,667.042279 209.235201,666.568803 209.336568,666.097426 C209.429531,665.62605 209.521444,665.155987 209.613357,664.685662 C209.672444,664.427258 209.730743,664.168067 209.789042,663.909926 C209.943981,663.181985 210.098657,662.453256 210.252808,661.725053 C210.302966,661.492647 210.352074,661.260504 210.40197,661.028099 C210.41405,660.972952 210.428493,660.917542 210.439523,660.86187 C210.597613,660.113708 210.754652,659.366071 210.911955,658.617647 Z" id="Shape"></path>
        </g>
    </g>
</svg>