<?xml version="1.0" encoding="UTF-8"?>
<svg width="14px" height="14px" viewBox="0 0 14 14" version="1.1" xmlns="http://www.w3.org/2000/svg" xmlns:xlink="http://www.w3.org/1999/xlink">
    <!-- Generator: Sketch 56.3 (81716) - https://sketch.com -->
    <title>Group 15 Copy</title>
    <desc>Created with Sketch.</desc>
    <g id="New-UI" stroke="none" stroke-width="1" fill="none" fill-rule="evenodd">
        <g id="22.-Income-tax" transform="translate(-203.000000, -474.000000)" fill="#005263" fill-rule="nonzero" stroke="#005263" stroke-width="0.620000005">
            <g id="Group-15-Copy" transform="translate(204.000000, 475.000000)">
                <path d="M11.6279031,0.000254808826 L8.80481973,0.0366902182 C8.60259313,0.040738597 8.44485639,0.210770508 8.44485639,0.413189449 C8.44890092,0.611560011 8.6106822,0.781591922 8.80886427,0.781591922 C8.80886427,0.781591922 8.8129088,0.781591922 8.8129088,0.781591922 L10.7421506,0.749204891 L7.05353739,4.43322962 C6.91197877,4.57492288 6.91197877,4.80568047 7.05353739,4.94737373 C7.12633896,5.02024455 7.2193632,5.05263158 7.31238743,5.05263158 C7.40541167,5.05263158 7.4984359,5.01619617 7.57123748,4.94737373 L11.2598506,1.25525224 L11.2355835,3.1944257 C11.2315389,3.39684464 11.3933202,3.57092493 11.5955468,3.57092493 C11.5955468,3.57092493 11.5995913,3.57092493 11.5995913,3.57092493 C11.7977734,3.57092493 11.9595547,3.40089302 11.9635992,3.20252246 L12,0.37270566 C12,0.275544569 11.9635992,0.178383477 11.8948422,0.109561037 C11.8260851,0.040738597 11.7290164,-0.00379357 11.6279031,0.000254808826 Z" id="Path"></path>
                <path d="M4.42826273,7.05379296 L0.73669453,10.7512854 L0.760981163,8.80929103 C0.765028935,8.60657763 0.603118049,8.4322441 0.400729442,8.4322441 C0.400729442,8.4322441 0.39668167,8.4322441 0.39668167,8.4322441 C0.198340835,8.4322441 0.0364299493,8.60252336 0.0323821772,8.80118249 L0,11.6351159 C0,11.7324183 0.0364299493,11.8256665 0.105242076,11.894589 C0.174054202,11.9635116 0.267152962,12 0.364299493,12 C0.364299493,12 0.368347265,12 0.368347265,12 L3.19369222,11.9675659 C3.39608083,11.9635116 3.55394394,11.7932323 3.55394394,11.5945732 C3.54989617,11.3959141 3.38798528,11.2296891 3.18964445,11.2296891 C3.18964445,11.2296891 3.18559668,11.2296891 3.18559668,11.2296891 L1.25480936,11.2621232 L4.94637756,7.568685 C5.08804959,7.42678562 5.08804959,7.19569234 4.94637756,7.05379296 C4.80470554,6.91189358 4.57398252,6.91189358 4.42826273,7.05379296 Z" id="Path"></path>
            </g>
        </g>
    </g>
</svg>