<?xml version="1.0" encoding="utf-8"?>
<!-- Generator: Adobe Illustrator 25.2.3, SVG Export Plug-In . SVG Version: 6.00 Build 0)  -->
<svg version="1.1" xmlns="http://www.w3.org/2000/svg" xmlns:xlink="http://www.w3.org/1999/xlink" x="0px" y="0px"
	 viewBox="0 0 1174.8 1142.1" style="enable-background:new 0 0 1174.8 1142.1;" xml:space="preserve">
<style type="text/css">
	.st0{fill:#E6F6FF;}
	.st1{fill:#2E5B99;}
	.st2{fill:#2E76E6;}
	.st3{fill:none;stroke:#2E76E6;stroke-width:0.8724;stroke-linejoin:round;stroke-miterlimit:10;}
	.st4{fill:#AAE0FF;}
	.st5{fill:#1B57B3;}
	.st6{fill:#408BFF;}
	.st7{fill:#265399;}
	.st8{fill:#246AD6;}
	.st9{fill:#2D76E6;}
	.st10{fill:#0B254D;}
	.st11{fill:#113873;}
	.st12{fill:#1951A6;}
	.st13{fill:#007880;}
	.st14{fill:#FFFFFF;}
	.st15{fill:#00C0CC;}
	.st16{fill:#2984CC;}
	.st17{fill:#2E97E6;}
	.st18{fill:#3397FF;}
	.st19{fill:#FF912B;}
	.st20{fill:#FC7600;}
	.st21{fill:#FFAE73;}
	.st22{fill:#0B3563;}
	.st23{fill:#6B98F6;}
	.st24{fill:#547CE6;}
	.st25{fill:#1E3865;}
	.st26{fill:#214D9A;}
	.st27{fill:#FF9D5D;}
	.st28{fill:#0E3A76;}
	.st29{fill:#FF7910;}
</style>
<g id="BG">
</g>
<g id="banner">
</g>
<g id="illustrator">
	<g>
		<path class="st0" d="M214.8,1081.8c0,0-131-80.4-80-184.5c51-104.1,216.3-135.7,149.7-243c-57.8-93.2-98.7-179.1-39.1-254
			c92.2-116,372.6,23.8,563.2-54.8s404.8,136.5,194.7,307.3c-252,204.7-13.1,426.5-13.1,426.5L214.8,1081.8z"/>
		<path class="st1" d="M1029.6,1085.3H118.7c-2.8,0-5.1-2.8-5.1-6.3s2.3-6.3,5.1-6.3h910.9c2.8,0,5.1,2.8,5.1,6.3
			S1032.4,1085.3,1029.6,1085.3z"/>
	</g>
	<g>
		<g>
			<g>
				<g>
					<path class="st2" d="M417.6,219.3c-2.6-4.7-6-8.7-9.9-11.8l1-1.3l2-2.5l0,0c-4.5-3.6-9.7-6.3-15.1-7.8l-1.3,4.6
						c-5-1.4-10.2-1.9-15.4-1.3l-0.5-4.8c-5.5,0.6-11.1,2.3-16.3,5.2l2.3,4.2c-4.7,2.6-8.7,6-11.8,9.9l-3.8-3
						c-3.6,4.5-6.2,9.7-7.8,15.1l4.6,1.3c-1.4,5-1.9,10.2-1.3,15.4l-4.8,0.5c0.6,5.5,2.3,11.1,5.2,16.3l4.2-2.3
						c2.6,4.7,6,8.7,9.9,11.8l-2.1,2.7l-0.9,1.1l0,0c4.5,3.6,9.7,6.2,15.1,7.8l1.3-4.6c5,1.4,10.2,1.9,15.4,1.3l0.5,4.8
						c5.5-0.6,11.1-2.3,16.2-5.1l-2.3-4.2c4.7-2.6,8.7-6,11.8-10l2.9,2.3l0.8,0.7c3.6-4.5,6.2-9.7,7.8-15.1l-4.6-1.3
						c1.4-5,1.9-10.2,1.3-15.4l4.8-0.5c-0.6-5.5-2.3-11-5.2-16.2L417.6,219.3z M393.5,256.9c-10.3,5.7-23.3,1.9-28.9-8.4
						c-5.7-10.3-1.9-23.3,8.4-28.9c10.3-5.7,23.3-1.9,28.9,8.4C407.6,238.3,403.8,251.2,393.5,256.9z"/>
				</g>
				<g>
					<path class="st3" d="M365.2,155c-1.7-1.5-3.5-2.6-5.5-3.3l0.2-0.6l0.4-1.2l0,0c-2.3-0.8-4.7-1.2-7.1-1.1l0.1,2
						c-2.2,0.1-4.3,0.6-6.3,1.6l-0.9-1.8c-2.1,1-4.1,2.4-5.8,4.2l1.5,1.4c-1.5,1.7-2.6,3.5-3.3,5.5l-1.9-0.7
						c-0.8,2.3-1.2,4.7-1.1,7.1l2-0.1c0.1,2.2,0.6,4.3,1.6,6.3l-1.8,0.9c1,2.1,2.4,4.1,4.2,5.8l1.4-1.5c1.7,1.5,3.5,2.6,5.5,3.3
						l-0.5,1.3l-0.2,0.5l0,0c2.3,0.8,4.7,1.2,7.1,1.1l-0.1-2c2.2-0.1,4.3-0.6,6.3-1.6l0.9,1.8c2.1-1,4.1-2.4,5.7-4.2l-1.5-1.4
						c1.5-1.7,2.6-3.5,3.4-5.5l1.5,0.5l0.4,0.1c0.8-2.3,1.2-4.7,1.1-7l-2,0.1c-0.1-2.2-0.6-4.3-1.6-6.3l1.8-0.9
						c-1-2.1-2.4-4.1-4.2-5.7L365.2,155z M360.7,173.1c-3.3,3.6-9,3.9-12.6,0.6c-3.6-3.3-3.9-9-0.5-12.6c3.3-3.6,9-3.9,12.6-0.6
						C363.7,163.8,364,169.5,360.7,173.1z"/>
				</g>
			</g>
			<g>
				<g>
					<path class="st4" d="M843.1,396.7H429.9c-44.8,0-81.4-36.6-81.4-81.4v0c0-44.8,36.6-81.4,81.4-81.4h413.2
						c44.8,0,81.4,36.6,81.4,81.4v0C924.5,360.1,887.8,396.7,843.1,396.7z"/>
					
						<ellipse transform="matrix(0.7071 -0.7071 0.7071 0.7071 63.7121 560.5244)" class="st4" cx="708.5" cy="203.4" rx="127.3" ry="127.3"/>
					<circle class="st4" cx="534.5" cy="210.3" r="85.8"/>
				</g>
			</g>
			<g>
				<g>
					<rect x="466.1" y="54.1" class="st5" width="27.3" height="209.9"/>
					<g>
						<rect x="390.1" y="54.1" class="st6" width="76.1" height="209.9"/>
						<rect x="395.3" y="84.4" class="st7" width="65.8" height="166.3"/>
						<path class="st7" d="M392.7,154.5L392.7,154.5c-0.6,0-1.1-0.5-1.1-1.1v-18.5c0-0.6,0.5-1.1,1.1-1.1l0,0c0.6,0,1.1,0.5,1.1,1.1
							v18.5C393.9,154,393.4,154.5,392.7,154.5z"/>
						<rect x="463.8" y="100.7" class="st7" width="2.4" height="13.1"/>
						<rect x="463.8" y="216" class="st7" width="2.4" height="13.1"/>
						<g>
							<rect x="397.9" y="110.4" class="st6" width="61.6" height="20.2"/>
							<rect x="397.9" y="134" class="st6" width="61.6" height="20.2"/>
							<rect x="397.9" y="157.5" class="st6" width="61.6" height="20.2"/>
							<rect x="397.9" y="181.1" class="st6" width="61.6" height="20.2"/>
							<rect x="397.9" y="204.6" class="st6" width="61.6" height="20.2"/>
							<rect x="397.9" y="228.2" class="st6" width="61.6" height="20.2"/>
							<g>
								<rect x="397.9" y="86.9" class="st6" width="61.6" height="20.2"/>
								<g>
									<rect x="402.9" y="92.1" class="st7" width="50.8" height="10.1"/>
									<g>
										<rect x="405" y="94.9" class="st6" width="36.4" height="4.6"/>
										<g>
											<path class="st8" d="M445,97.2c0,0.7-0.5,1.2-1.2,1.2c-0.6,0-1.2-0.5-1.2-1.2s0.5-1.2,1.2-1.2
												C444.5,96,445,96.5,445,97.2z"/>
											<path class="st6" d="M448.4,97.2c0,0.7-0.5,1.2-1.2,1.2c-0.6,0-1.2-0.5-1.2-1.2s0.5-1.2,1.2-1.2
												C447.9,96,448.4,96.5,448.4,97.2z"/>
											<path class="st6" d="M451.8,97.2c0,0.7-0.5,1.2-1.2,1.2c-0.6,0-1.2-0.5-1.2-1.2s0.5-1.2,1.2-1.2
												C451.3,96,451.8,96.5,451.8,97.2z"/>
										</g>
									</g>
								</g>
							</g>
							<g>
								<rect x="402.9" y="116" class="st7" width="50.8" height="10.1"/>
								<g>
									<rect x="405" y="118.7" class="st6" width="36.4" height="4.6"/>
								</g>
							</g>
							<g>
								<rect x="402.9" y="139.8" class="st7" width="50.8" height="10.1"/>
								<g>
									<rect x="405" y="142.5" class="st6" width="36.4" height="4.6"/>
								</g>
							</g>
							<g>
								<rect x="402.9" y="163.6" class="st7" width="50.8" height="10.1"/>
								<g>
									<rect x="405" y="166.3" class="st6" width="36.4" height="4.6"/>
								</g>
							</g>
							<g>
								<rect x="402.9" y="186.8" class="st7" width="50.8" height="10.1"/>
								<g>
									<rect x="405" y="189.5" class="st6" width="36.4" height="4.6"/>
								</g>
								<g>
									<ellipse class="st8" cx="443.9" cy="191.9" rx="1.2" ry="1.2"/>
									<path class="st6" d="M448.4,191.9c0,0.7-0.5,1.2-1.2,1.2c-0.6,0-1.2-0.5-1.2-1.2c0-0.7,0.5-1.2,1.2-1.2
										C447.9,190.7,448.4,191.2,448.4,191.9z"/>
									<ellipse class="st6" cx="450.6" cy="191.9" rx="1.2" ry="1.2"/>
								</g>
							</g>
							<g>
								<rect x="402.9" y="210.7" class="st7" width="50.8" height="10.1"/>
								<g>
									<rect x="405" y="213.4" class="st6" width="36.4" height="4.6"/>
								</g>
							</g>
							<g>
								<rect x="402.9" y="234" class="st7" width="50.8" height="10.1"/>
								<g>
									<rect x="405" y="236.8" class="st6" width="36.4" height="4.6"/>
								</g>
								<g>
									<ellipse class="st8" cx="443.9" cy="239.2" rx="1.2" ry="1.2"/>
									<path class="st6" d="M448.4,239.2c0,0.7-0.5,1.2-1.2,1.2c-0.6,0-1.2-0.5-1.2-1.2c0-0.7,0.5-1.2,1.2-1.2
										C447.9,238,448.4,238.5,448.4,239.2z"/>
									<ellipse class="st6" cx="450.6" cy="239.2" rx="1.2" ry="1.2"/>
								</g>
							</g>
							<g>
								<path class="st8" d="M445,121.2c0,0.7-0.5,1.2-1.2,1.2c-0.6,0-1.2-0.5-1.2-1.2s0.5-1.2,1.2-1.2
									C444.5,120,445,120.5,445,121.2z"/>
								<path class="st6" d="M448.4,121.2c0,0.7-0.5,1.2-1.2,1.2c-0.6,0-1.2-0.5-1.2-1.2s0.5-1.2,1.2-1.2
									C447.9,120,448.4,120.5,448.4,121.2z"/>
								<path class="st6" d="M451.8,121.2c0,0.7-0.5,1.2-1.2,1.2c-0.6,0-1.2-0.5-1.2-1.2s0.5-1.2,1.2-1.2
									C451.3,120,451.8,120.5,451.8,121.2z"/>
							</g>
							<g>
								<ellipse class="st8" cx="443.9" cy="144.8" rx="1.2" ry="1.2"/>
								<path class="st6" d="M448.4,144.8c0,0.7-0.5,1.2-1.2,1.2c-0.6,0-1.2-0.5-1.2-1.2c0-0.7,0.5-1.2,1.2-1.2
									C447.9,143.5,448.4,144.1,448.4,144.8z"/>
								<ellipse class="st6" cx="450.6" cy="144.8" rx="1.2" ry="1.2"/>
							</g>
							<g>
								<path class="st8" d="M445,168.7c0,0.7-0.5,1.2-1.2,1.2c-0.6,0-1.2-0.5-1.2-1.2s0.5-1.2,1.2-1.2
									C444.5,167.5,445,168,445,168.7z"/>
								<path class="st6" d="M448.4,168.7c0,0.7-0.5,1.2-1.2,1.2c-0.6,0-1.2-0.5-1.2-1.2s0.5-1.2,1.2-1.2
									C447.9,167.5,448.4,168,448.4,168.7z"/>
								<path class="st6" d="M451.8,168.7c0,0.7-0.5,1.2-1.2,1.2c-0.6,0-1.2-0.5-1.2-1.2s0.5-1.2,1.2-1.2
									C451.3,167.5,451.8,168,451.8,168.7z"/>
							</g>
							<g>
								<path class="st8" d="M445,215.8c0,0.7-0.5,1.2-1.2,1.2c-0.6,0-1.2-0.5-1.2-1.2c0-0.7,0.5-1.2,1.2-1.2
									C444.5,214.6,445,215.1,445,215.8z"/>
								<path class="st6" d="M448.4,215.8c0,0.7-0.5,1.2-1.2,1.2c-0.6,0-1.2-0.5-1.2-1.2c0-0.7,0.5-1.2,1.2-1.2
									C447.9,214.6,448.4,215.1,448.4,215.8z"/>
								<path class="st6" d="M451.8,215.8c0,0.7-0.5,1.2-1.2,1.2c-0.6,0-1.2-0.5-1.2-1.2c0-0.7,0.5-1.2,1.2-1.2
									C451.3,214.6,451.8,215.1,451.8,215.8z"/>
							</g>
						</g>
					</g>
					<rect x="466.1" y="54.1" class="st9" width="2" height="209.9"/>
					<polygon class="st10" points="468.3,264 467.9,264 467.9,81.5 390.2,81.5 390.2,81.2 468.3,81.2 					"/>
					<rect x="463.8" y="156.3" class="st7" width="2.4" height="13.1"/>
					<g>
						<g>
							<g>
								<polygon class="st7" points="425.4,61.6 397.4,61.6 395.2,59.5 425.4,59.5 								"/>
							</g>
						</g>
						<g>
							<g>
								<polygon class="st7" points="425.4,64.7 397.4,64.7 395.2,62.6 425.4,62.6 								"/>
							</g>
						</g>
						<g>
							<g>
								<polygon class="st7" points="425.4,67.9 397.4,67.9 395.2,65.8 425.4,65.8 								"/>
							</g>
						</g>
						<g>
							<g>
								<polygon class="st7" points="425.4,71 397.4,71 395.2,68.9 425.4,68.9 								"/>
							</g>
						</g>
						<g>
							<g>
								<polygon class="st7" points="425.4,74.2 397.4,74.2 395.2,72.1 425.4,72.1 								"/>
							</g>
						</g>
						<g>
							<g>
								<polygon class="st7" points="425.4,77.3 397.4,77.3 395.2,75.2 425.4,75.2 								"/>
							</g>
						</g>
					</g>
					<g>
						<g>
							<g>
								<polygon class="st7" points="460.6,61.6 432.7,61.6 430.5,59.5 460.6,59.5 								"/>
							</g>
						</g>
						<g>
							<g>
								<polygon class="st7" points="460.6,64.7 432.7,64.7 430.5,62.6 460.6,62.6 								"/>
							</g>
						</g>
						<g>
							<g>
								<polygon class="st7" points="460.6,67.9 432.7,67.9 430.5,65.8 460.6,65.8 								"/>
							</g>
						</g>
						<g>
							<g>
								<polygon class="st7" points="460.6,71 432.7,71 430.5,68.9 460.6,68.9 								"/>
							</g>
						</g>
						<g>
							<g>
								<polygon class="st7" points="460.6,74.2 432.7,74.2 430.5,72.1 460.6,72.1 								"/>
							</g>
						</g>
						<g>
							<g>
								<polygon class="st7" points="460.6,77.3 432.7,77.3 430.5,75.2 460.6,75.2 								"/>
							</g>
						</g>
					</g>
					<g>
						<g>
							<path class="st6" d="M490.5,97.3h-19.3V84.5h19.3V97.3z M471.5,97.1h18.8V84.7h-18.8V97.1z"/>
							<path class="st6" d="M490.5,115.1h-19.3v-12.8h19.3V115.1z M471.5,114.9h18.8v-12.4h-18.8V114.9z"/>
						</g>
						<g>
							<path class="st6" d="M490.5,133.8h-19.3v-12.8h19.3V133.8z M471.5,133.5h18.8v-12.4h-18.8V133.5z"/>
							<path class="st6" d="M490.5,151.5h-19.3v-12.8h19.3V151.5z M471.5,151.3h18.8v-12.4h-18.8V151.3z"/>
							<path class="st6" d="M490.5,250.3h-19.3v-92h19.3V250.3z M471.5,250.1h18.8v-91.6h-18.8V250.1z"/>
						</g>
					</g>
				</g>
				<g>
					<g>
						<path class="st11" d="M494.1,264h-86.3c-1,0-1.9,0.8-1.9,1.9v23c0,1,0.8,1.9,1.9,1.9h86.3c1,0,1.9-0.8,1.9-1.9v-23
							C496,264.8,495.1,264,494.1,264z"/>
						<path class="st12" d="M469.3,263.9c-15.1,0-67.9,0.1-81.3,0.1c-1.4,0-2.5,1.1-2.5,2.4v21.9c0,1.3,1.1,2.4,2.5,2.4
							c13.5,0,65.7,0.2,81.3,0.2c1.4,0,2.5-1.1,2.5-2.4v-22.2C471.7,265,470.6,263.9,469.3,263.9z"/>
					</g>
					<rect x="390.1" y="263.5" class="st10" width="103.3" height="0.4"/>
					<path class="st6" d="M412.5,270.8h-21.6c-1,0-1.7-0.8-1.7-1.7l0,0c0-1,0.8-1.7,1.7-1.7h21.6c1,0,1.7,0.8,1.7,1.7l0,0
						C414.2,270,413.4,270.8,412.5,270.8z"/>
				</g>
			</g>
			<g>
				<g>
					<rect x="576.7" y="54.1" class="st5" width="27.3" height="209.9"/>
					<g>
						<rect x="500.7" y="54.1" class="st6" width="76.1" height="209.9"/>
						<rect x="505.9" y="84.4" class="st7" width="65.8" height="166.3"/>
						<path class="st7" d="M503.4,154.5L503.4,154.5c-0.6,0-1.1-0.5-1.1-1.1v-18.5c0-0.6,0.5-1.1,1.1-1.1l0,0c0.6,0,1.1,0.5,1.1,1.1
							v18.5C504.5,154,504,154.5,503.4,154.5z"/>
						<rect x="574.4" y="100.7" class="st7" width="2.4" height="13.1"/>
						<rect x="574.4" y="216" class="st7" width="2.4" height="13.1"/>
						<g>
							<rect x="508.6" y="110.4" class="st6" width="61.6" height="20.2"/>
							<rect x="508.6" y="134" class="st6" width="61.6" height="20.2"/>
							<rect x="508.6" y="157.5" class="st6" width="61.6" height="20.2"/>
							<rect x="508.6" y="181.1" class="st6" width="61.6" height="20.2"/>
							<rect x="508.6" y="204.6" class="st6" width="61.6" height="20.2"/>
							<rect x="508.6" y="228.2" class="st6" width="61.6" height="20.2"/>
							<g>
								<rect x="508.6" y="86.9" class="st6" width="61.6" height="20.2"/>
								<g>
									<rect x="513.5" y="92.1" class="st7" width="50.8" height="10.1"/>
									<g>
										<rect x="515.6" y="94.9" class="st6" width="36.4" height="4.6"/>
										<g>
											<path class="st8" d="M555.7,97.2c0,0.7-0.5,1.2-1.2,1.2s-1.2-0.5-1.2-1.2s0.5-1.2,1.2-1.2S555.7,96.5,555.7,97.2z"/>
											<path class="st6" d="M559,97.2c0,0.7-0.5,1.2-1.2,1.2c-0.6,0-1.2-0.5-1.2-1.2s0.5-1.2,1.2-1.2
												C558.5,96,559,96.5,559,97.2z"/>
											<path class="st6" d="M562.4,97.2c0,0.7-0.5,1.2-1.2,1.2c-0.6,0-1.2-0.5-1.2-1.2s0.5-1.2,1.2-1.2
												C561.9,96,562.4,96.5,562.4,97.2z"/>
										</g>
									</g>
								</g>
							</g>
							<g>
								<rect x="513.5" y="116" class="st7" width="50.8" height="10.1"/>
								<g>
									<rect x="515.6" y="118.7" class="st6" width="36.4" height="4.6"/>
								</g>
							</g>
							<g>
								<rect x="513.5" y="139.8" class="st7" width="50.8" height="10.1"/>
								<g>
									<rect x="515.6" y="142.5" class="st6" width="36.4" height="4.6"/>
								</g>
							</g>
							<g>
								<rect x="513.5" y="163.6" class="st7" width="50.8" height="10.1"/>
								<g>
									<rect x="515.6" y="166.3" class="st6" width="36.4" height="4.6"/>
								</g>
							</g>
							<g>
								<rect x="513.5" y="186.8" class="st7" width="50.8" height="10.1"/>
								<g>
									<rect x="515.6" y="189.5" class="st6" width="36.4" height="4.6"/>
								</g>
								<g>
									<path class="st8" d="M555.7,191.9c0,0.7-0.5,1.2-1.2,1.2s-1.2-0.5-1.2-1.2c0-0.7,0.5-1.2,1.2-1.2S555.7,191.2,555.7,191.9z
										"/>
									<path class="st6" d="M559,191.9c0,0.7-0.5,1.2-1.2,1.2c-0.6,0-1.2-0.5-1.2-1.2c0-0.7,0.5-1.2,1.2-1.2
										C558.5,190.7,559,191.2,559,191.9z"/>
									<path class="st6" d="M562.4,191.9c0,0.7-0.5,1.2-1.2,1.2c-0.6,0-1.2-0.5-1.2-1.2c0-0.7,0.5-1.2,1.2-1.2
										C561.9,190.7,562.4,191.2,562.4,191.9z"/>
								</g>
							</g>
							<g>
								<rect x="513.5" y="210.7" class="st7" width="50.8" height="10.1"/>
								<g>
									<rect x="515.6" y="213.4" class="st6" width="36.4" height="4.6"/>
								</g>
							</g>
							<g>
								<rect x="513.5" y="234" class="st7" width="50.8" height="10.1"/>
								<g>
									<rect x="515.6" y="236.8" class="st6" width="36.4" height="4.6"/>
								</g>
								<g>
									<path class="st8" d="M555.7,239.2c0,0.7-0.5,1.2-1.2,1.2s-1.2-0.5-1.2-1.2c0-0.7,0.5-1.2,1.2-1.2S555.7,238.5,555.7,239.2z
										"/>
									<path class="st6" d="M559,239.2c0,0.7-0.5,1.2-1.2,1.2c-0.6,0-1.2-0.5-1.2-1.2c0-0.7,0.5-1.2,1.2-1.2
										C558.5,238,559,238.5,559,239.2z"/>
									<path class="st6" d="M562.4,239.2c0,0.7-0.5,1.2-1.2,1.2c-0.6,0-1.2-0.5-1.2-1.2c0-0.7,0.5-1.2,1.2-1.2
										C561.9,238,562.4,238.5,562.4,239.2z"/>
								</g>
							</g>
							<g>
								<path class="st8" d="M555.7,121.2c0,0.7-0.5,1.2-1.2,1.2s-1.2-0.5-1.2-1.2s0.5-1.2,1.2-1.2S555.7,120.5,555.7,121.2z"/>
								<path class="st6" d="M559,121.2c0,0.7-0.5,1.2-1.2,1.2c-0.6,0-1.2-0.5-1.2-1.2s0.5-1.2,1.2-1.2
									C558.5,120,559,120.5,559,121.2z"/>
								<path class="st6" d="M562.4,121.2c0,0.7-0.5,1.2-1.2,1.2c-0.6,0-1.2-0.5-1.2-1.2s0.5-1.2,1.2-1.2
									C561.9,120,562.4,120.5,562.4,121.2z"/>
							</g>
							<g>
								<path class="st8" d="M555.7,144.8c0,0.7-0.5,1.2-1.2,1.2s-1.2-0.5-1.2-1.2c0-0.7,0.5-1.2,1.2-1.2S555.7,144.1,555.7,144.8z"
									/>
								<path class="st6" d="M559,144.8c0,0.7-0.5,1.2-1.2,1.2c-0.6,0-1.2-0.5-1.2-1.2c0-0.7,0.5-1.2,1.2-1.2
									C558.5,143.5,559,144.1,559,144.8z"/>
								<path class="st6" d="M562.4,144.8c0,0.7-0.5,1.2-1.2,1.2c-0.6,0-1.2-0.5-1.2-1.2c0-0.7,0.5-1.2,1.2-1.2
									C561.9,143.5,562.4,144.1,562.4,144.8z"/>
							</g>
							<g>
								<path class="st8" d="M555.7,168.7c0,0.7-0.5,1.2-1.2,1.2s-1.2-0.5-1.2-1.2s0.5-1.2,1.2-1.2S555.7,168,555.7,168.7z"/>
								<path class="st6" d="M559,168.7c0,0.7-0.5,1.2-1.2,1.2c-0.6,0-1.2-0.5-1.2-1.2s0.5-1.2,1.2-1.2
									C558.5,167.5,559,168,559,168.7z"/>
								<path class="st6" d="M562.4,168.7c0,0.7-0.5,1.2-1.2,1.2c-0.6,0-1.2-0.5-1.2-1.2s0.5-1.2,1.2-1.2
									C561.9,167.5,562.4,168,562.4,168.7z"/>
							</g>
							<g>
								<path class="st8" d="M555.7,215.8c0,0.7-0.5,1.2-1.2,1.2s-1.2-0.5-1.2-1.2c0-0.7,0.5-1.2,1.2-1.2S555.7,215.1,555.7,215.8z"
									/>
								<path class="st6" d="M559,215.8c0,0.7-0.5,1.2-1.2,1.2c-0.6,0-1.2-0.5-1.2-1.2c0-0.7,0.5-1.2,1.2-1.2
									C558.5,214.6,559,215.1,559,215.8z"/>
								<path class="st6" d="M562.4,215.8c0,0.7-0.5,1.2-1.2,1.2c-0.6,0-1.2-0.5-1.2-1.2c0-0.7,0.5-1.2,1.2-1.2
									C561.9,214.6,562.4,215.1,562.4,215.8z"/>
							</g>
						</g>
					</g>
					<rect x="576.7" y="54.1" class="st9" width="2" height="209.9"/>
					<polygon class="st10" points="578.9,264 578.6,264 578.6,81.5 500.8,81.5 500.8,81.2 578.9,81.2 					"/>
					<rect x="574.4" y="156.3" class="st7" width="2.4" height="13.1"/>
					<g>
						<g>
							<g>
								<polygon class="st7" points="536,61.6 508,61.6 505.9,59.5 536,59.5 								"/>
							</g>
						</g>
						<g>
							<g>
								<polygon class="st7" points="536,64.7 508,64.7 505.9,62.6 536,62.6 								"/>
							</g>
						</g>
						<g>
							<g>
								<polygon class="st7" points="536,67.9 508,67.9 505.9,65.8 536,65.8 								"/>
							</g>
						</g>
						<g>
							<g>
								<polygon class="st7" points="536,71 508,71 505.9,68.9 536,68.9 								"/>
							</g>
						</g>
						<g>
							<g>
								<polygon class="st7" points="536,74.2 508,74.2 505.9,72.1 536,72.1 								"/>
							</g>
						</g>
						<g>
							<g>
								<polygon class="st7" points="536,77.3 508,77.3 505.9,75.2 536,75.2 								"/>
							</g>
						</g>
					</g>
					<g>
						<g>
							<g>
								<polygon class="st7" points="571.3,61.6 543.3,61.6 541.1,59.5 571.3,59.5 								"/>
							</g>
						</g>
						<g>
							<g>
								<polygon class="st7" points="571.3,64.7 543.3,64.7 541.1,62.6 571.3,62.6 								"/>
							</g>
						</g>
						<g>
							<g>
								<polygon class="st7" points="571.3,67.9 543.3,67.9 541.1,65.8 571.3,65.8 								"/>
							</g>
						</g>
						<g>
							<g>
								<polygon class="st7" points="571.3,71 543.3,71 541.1,68.9 571.3,68.9 								"/>
							</g>
						</g>
						<g>
							<g>
								<polygon class="st7" points="571.3,74.2 543.3,74.2 541.1,72.1 571.3,72.1 								"/>
							</g>
						</g>
						<g>
							<g>
								<polygon class="st7" points="571.3,77.3 543.3,77.3 541.1,75.2 571.3,75.2 								"/>
							</g>
						</g>
					</g>
					<g>
						<g>
							<path class="st6" d="M601.1,97.3h-19.3V84.5h19.3V97.3z M582.1,97.1h18.8V84.7h-18.8V97.1z"/>
							<path class="st6" d="M601.1,115.1h-19.3v-12.8h19.3V115.1z M582.1,114.9h18.8v-12.4h-18.8V114.9z"/>
						</g>
						<g>
							<path class="st6" d="M601.1,133.8h-19.3v-12.8h19.3V133.8z M582.1,133.5h18.8v-12.4h-18.8V133.5z"/>
							<path class="st6" d="M601.1,151.5h-19.3v-12.8h19.3V151.5z M582.1,151.3h18.8v-12.4h-18.8V151.3z"/>
							<path class="st6" d="M601.1,250.3h-19.3v-92h19.3V250.3z M582.1,250.1h18.8v-91.6h-18.8V250.1z"/>
						</g>
					</g>
				</g>
				<g>
					<g>
						<path class="st11" d="M604.7,264h-86.3c-1,0-1.9,0.8-1.9,1.9v23c0,1,0.8,1.9,1.9,1.9h86.3c1,0,1.9-0.8,1.9-1.9v-23
							C606.6,264.8,605.8,264,604.7,264z"/>
						<path class="st12" d="M579.9,263.9c-15.1,0-67.9,0.1-81.3,0.1c-1.4,0-2.5,1.1-2.5,2.4v21.9c0,1.3,1.1,2.4,2.5,2.4
							c13.5,0,65.7,0.2,81.3,0.2c1.4,0,2.5-1.1,2.5-2.4v-22.2C582.4,265,581.3,263.9,579.9,263.9z"/>
					</g>
					<rect x="500.7" y="263.5" class="st10" width="103.3" height="0.4"/>
					<path class="st6" d="M523.1,270.8h-21.6c-1,0-1.7-0.8-1.7-1.7l0,0c0-1,0.8-1.7,1.7-1.7h21.6c1,0,1.7,0.8,1.7,1.7l0,0
						C524.9,270,524.1,270.8,523.1,270.8z"/>
				</g>
			</g>
			<g>
				<g>
					<rect x="689.7" y="54.1" class="st5" width="27.3" height="209.9"/>
					<g>
						<rect x="613.7" y="54.1" class="st6" width="76.1" height="209.9"/>
						<rect x="618.9" y="84.4" class="st7" width="65.8" height="166.3"/>
						<path class="st7" d="M616.4,154.5L616.4,154.5c-0.6,0-1.1-0.5-1.1-1.1v-18.5c0-0.6,0.5-1.1,1.1-1.1l0,0c0.6,0,1.1,0.5,1.1,1.1
							v18.5C617.5,154,617,154.5,616.4,154.5z"/>
						<rect x="687.4" y="100.7" class="st7" width="2.4" height="13.1"/>
						<rect x="687.4" y="216" class="st7" width="2.4" height="13.1"/>
						<g>
							<rect x="621.6" y="110.4" class="st6" width="61.6" height="20.2"/>
							<rect x="621.6" y="134" class="st6" width="61.6" height="20.2"/>
							<rect x="621.6" y="157.5" class="st6" width="61.6" height="20.2"/>
							<rect x="621.6" y="181.1" class="st6" width="61.6" height="20.2"/>
							<rect x="621.6" y="204.6" class="st6" width="61.6" height="20.2"/>
							<rect x="621.6" y="228.2" class="st6" width="61.6" height="20.2"/>
							<g>
								<rect x="621.6" y="86.9" class="st6" width="61.6" height="20.2"/>
								<g>
									<rect x="626.5" y="92.1" class="st7" width="50.8" height="10.1"/>
									<g>
										<rect x="628.6" y="94.9" class="st6" width="36.4" height="4.6"/>
										<g>
											<path class="st8" d="M668.7,97.2c0,0.7-0.5,1.2-1.2,1.2c-0.6,0-1.2-0.5-1.2-1.2s0.5-1.2,1.2-1.2
												C668.2,96,668.7,96.5,668.7,97.2z"/>
											<path class="st6" d="M672.1,97.2c0,0.7-0.5,1.2-1.2,1.2c-0.6,0-1.2-0.5-1.2-1.2s0.5-1.2,1.2-1.2
												C671.5,96,672.1,96.5,672.1,97.2z"/>
											<path class="st6" d="M675.4,97.2c0,0.7-0.5,1.2-1.2,1.2c-0.6,0-1.2-0.5-1.2-1.2s0.5-1.2,1.2-1.2
												C674.9,96,675.4,96.5,675.4,97.2z"/>
										</g>
									</g>
								</g>
							</g>
							<g>
								<rect x="626.5" y="116" class="st7" width="50.8" height="10.1"/>
								<g>
									<rect x="628.6" y="118.7" class="st6" width="36.4" height="4.6"/>
								</g>
							</g>
							<g>
								<rect x="626.5" y="139.8" class="st7" width="50.8" height="10.1"/>
								<g>
									<rect x="628.6" y="142.5" class="st6" width="36.4" height="4.6"/>
								</g>
							</g>
							<g>
								<rect x="626.5" y="163.6" class="st7" width="50.8" height="10.1"/>
								<g>
									<rect x="628.6" y="166.3" class="st6" width="36.4" height="4.6"/>
								</g>
							</g>
							<g>
								<rect x="626.5" y="186.8" class="st7" width="50.8" height="10.1"/>
								<g>
									<rect x="628.6" y="189.5" class="st6" width="36.4" height="4.6"/>
								</g>
								<g>
									<path class="st8" d="M668.7,191.9c0,0.7-0.5,1.2-1.2,1.2c-0.6,0-1.2-0.5-1.2-1.2c0-0.7,0.5-1.2,1.2-1.2
										C668.2,190.7,668.7,191.2,668.7,191.9z"/>
									<path class="st6" d="M672.1,191.9c0,0.7-0.5,1.2-1.2,1.2c-0.6,0-1.2-0.5-1.2-1.2c0-0.7,0.5-1.2,1.2-1.2
										C671.5,190.7,672.1,191.2,672.1,191.9z"/>
									<path class="st6" d="M675.4,191.9c0,0.7-0.5,1.2-1.2,1.2c-0.6,0-1.2-0.5-1.2-1.2c0-0.7,0.5-1.2,1.2-1.2
										C674.9,190.7,675.4,191.2,675.4,191.9z"/>
								</g>
							</g>
							<g>
								<rect x="626.5" y="210.7" class="st7" width="50.8" height="10.1"/>
								<g>
									<rect x="628.6" y="213.4" class="st6" width="36.4" height="4.6"/>
								</g>
							</g>
							<g>
								<rect x="626.5" y="234" class="st7" width="50.8" height="10.1"/>
								<g>
									<rect x="628.6" y="236.8" class="st6" width="36.4" height="4.6"/>
								</g>
								<g>
									<path class="st8" d="M668.7,239.2c0,0.7-0.5,1.2-1.2,1.2c-0.6,0-1.2-0.5-1.2-1.2c0-0.7,0.5-1.2,1.2-1.2
										C668.2,238,668.7,238.5,668.7,239.2z"/>
									<path class="st6" d="M672.1,239.2c0,0.7-0.5,1.2-1.2,1.2c-0.6,0-1.2-0.5-1.2-1.2c0-0.7,0.5-1.2,1.2-1.2
										C671.5,238,672.1,238.5,672.1,239.2z"/>
									<path class="st6" d="M675.4,239.2c0,0.7-0.5,1.2-1.2,1.2c-0.6,0-1.2-0.5-1.2-1.2c0-0.7,0.5-1.2,1.2-1.2
										C674.9,238,675.4,238.5,675.4,239.2z"/>
								</g>
							</g>
							<g>
								<path class="st8" d="M668.7,121.2c0,0.7-0.5,1.2-1.2,1.2c-0.6,0-1.2-0.5-1.2-1.2s0.5-1.2,1.2-1.2
									C668.2,120,668.7,120.5,668.7,121.2z"/>
								<path class="st6" d="M672.1,121.2c0,0.7-0.5,1.2-1.2,1.2c-0.6,0-1.2-0.5-1.2-1.2s0.5-1.2,1.2-1.2
									C671.5,120,672.1,120.5,672.1,121.2z"/>
								<path class="st6" d="M675.4,121.2c0,0.7-0.5,1.2-1.2,1.2c-0.6,0-1.2-0.5-1.2-1.2s0.5-1.2,1.2-1.2
									C674.9,120,675.4,120.5,675.4,121.2z"/>
							</g>
							<g>
								<path class="st8" d="M668.7,144.8c0,0.7-0.5,1.2-1.2,1.2c-0.6,0-1.2-0.5-1.2-1.2c0-0.7,0.5-1.2,1.2-1.2
									C668.2,143.5,668.7,144.1,668.7,144.8z"/>
								<path class="st6" d="M672.1,144.8c0,0.7-0.5,1.2-1.2,1.2c-0.6,0-1.2-0.5-1.2-1.2c0-0.7,0.5-1.2,1.2-1.2
									C671.5,143.5,672.1,144.1,672.1,144.8z"/>
								<path class="st6" d="M675.4,144.8c0,0.7-0.5,1.2-1.2,1.2c-0.6,0-1.2-0.5-1.2-1.2c0-0.7,0.5-1.2,1.2-1.2
									C674.9,143.5,675.4,144.1,675.4,144.8z"/>
							</g>
							<g>
								<path class="st8" d="M668.7,168.7c0,0.7-0.5,1.2-1.2,1.2c-0.6,0-1.2-0.5-1.2-1.2s0.5-1.2,1.2-1.2
									C668.2,167.5,668.7,168,668.7,168.7z"/>
								<path class="st6" d="M672.1,168.7c0,0.7-0.5,1.2-1.2,1.2c-0.6,0-1.2-0.5-1.2-1.2s0.5-1.2,1.2-1.2
									C671.5,167.5,672.1,168,672.1,168.7z"/>
								<path class="st6" d="M675.4,168.7c0,0.7-0.5,1.2-1.2,1.2c-0.6,0-1.2-0.5-1.2-1.2s0.5-1.2,1.2-1.2
									C674.9,167.5,675.4,168,675.4,168.7z"/>
							</g>
							<g>
								<path class="st8" d="M668.7,215.8c0,0.7-0.5,1.2-1.2,1.2c-0.6,0-1.2-0.5-1.2-1.2c0-0.7,0.5-1.2,1.2-1.2
									C668.2,214.6,668.7,215.1,668.7,215.8z"/>
								<path class="st6" d="M672.1,215.8c0,0.7-0.5,1.2-1.2,1.2c-0.6,0-1.2-0.5-1.2-1.2c0-0.7,0.5-1.2,1.2-1.2
									C671.5,214.6,672.1,215.1,672.1,215.8z"/>
								<path class="st6" d="M675.4,215.8c0,0.7-0.5,1.2-1.2,1.2c-0.6,0-1.2-0.5-1.2-1.2c0-0.7,0.5-1.2,1.2-1.2
									C674.9,214.6,675.4,215.1,675.4,215.8z"/>
							</g>
						</g>
					</g>
					<rect x="689.7" y="54.1" class="st9" width="2" height="209.9"/>
					<polygon class="st10" points="691.9,264 691.6,264 691.6,81.5 613.8,81.5 613.8,81.2 691.9,81.2 					"/>
					<rect x="687.4" y="156.3" class="st7" width="2.4" height="13.1"/>
					<g>
						<g>
							<g>
								<polygon class="st7" points="649,61.6 621,61.6 618.9,59.5 649,59.5 								"/>
							</g>
						</g>
						<g>
							<g>
								<polygon class="st7" points="649,64.7 621,64.7 618.9,62.6 649,62.6 								"/>
							</g>
						</g>
						<g>
							<g>
								<polygon class="st7" points="649,67.9 621,67.9 618.9,65.8 649,65.8 								"/>
							</g>
						</g>
						<g>
							<g>
								<polygon class="st7" points="649,71 621,71 618.9,68.9 649,68.9 								"/>
							</g>
						</g>
						<g>
							<g>
								<polygon class="st7" points="649,74.2 621,74.2 618.9,72.1 649,72.1 								"/>
							</g>
						</g>
						<g>
							<g>
								<polygon class="st7" points="649,77.3 621,77.3 618.9,75.2 649,75.2 								"/>
							</g>
						</g>
					</g>
					<g>
						<g>
							<g>
								<polygon class="st7" points="684.3,61.6 656.3,61.6 654.1,59.5 684.3,59.5 								"/>
							</g>
						</g>
						<g>
							<g>
								<polygon class="st7" points="684.3,64.7 656.3,64.7 654.1,62.6 684.3,62.6 								"/>
							</g>
						</g>
						<g>
							<g>
								<polygon class="st7" points="684.3,67.9 656.3,67.9 654.1,65.8 684.3,65.8 								"/>
							</g>
						</g>
						<g>
							<g>
								<polygon class="st7" points="684.3,71 656.3,71 654.1,68.9 684.3,68.9 								"/>
							</g>
						</g>
						<g>
							<g>
								<polygon class="st7" points="684.3,74.2 656.3,74.2 654.1,72.1 684.3,72.1 								"/>
							</g>
						</g>
						<g>
							<g>
								<polygon class="st7" points="684.3,77.3 656.3,77.3 654.1,75.2 684.3,75.2 								"/>
							</g>
						</g>
					</g>
					<g>
						<g>
							<path class="st6" d="M714.1,97.3h-19.3V84.5h19.3V97.3z M695.1,97.1h18.8V84.7h-18.8V97.1z"/>
							<path class="st6" d="M714.1,115.1h-19.3v-12.8h19.3V115.1z M695.1,114.9h18.8v-12.4h-18.8V114.9z"/>
						</g>
						<g>
							<path class="st6" d="M714.1,133.8h-19.3v-12.8h19.3V133.8z M695.1,133.5h18.8v-12.4h-18.8V133.5z"/>
							<path class="st6" d="M714.1,151.5h-19.3v-12.8h19.3V151.5z M695.1,151.3h18.8v-12.4h-18.8V151.3z"/>
							<path class="st6" d="M714.1,250.3h-19.3v-92h19.3V250.3z M695.1,250.1h18.8v-91.6h-18.8V250.1z"/>
						</g>
					</g>
				</g>
				<g>
					<g>
						<path class="st11" d="M717.7,264h-86.3c-1,0-1.9,0.8-1.9,1.9v23c0,1,0.8,1.9,1.9,1.9h86.3c1,0,1.9-0.8,1.9-1.9v-23
							C719.6,264.8,718.8,264,717.7,264z"/>
						<path class="st12" d="M692.9,263.9c-15.1,0-67.9,0.1-81.3,0.1c-1.4,0-2.5,1.1-2.5,2.4v21.9c0,1.3,1.1,2.4,2.5,2.4
							c13.5,0,65.7,0.2,81.3,0.2c1.4,0,2.5-1.1,2.5-2.4v-22.2C695.4,265,694.3,263.9,692.9,263.9z"/>
					</g>
					<rect x="613.7" y="263.5" class="st10" width="103.3" height="0.4"/>
					<path class="st6" d="M636.1,270.8h-21.6c-1,0-1.7-0.8-1.7-1.7l0,0c0-1,0.8-1.7,1.7-1.7h21.6c1,0,1.7,0.8,1.7,1.7l0,0
						C637.9,270,637.1,270.8,636.1,270.8z"/>
				</g>
			</g>
			<circle class="st4" cx="707.6" cy="251.4" r="109.3"/>
			
				<ellipse transform="matrix(0.7071 -0.7071 0.7071 0.7071 -48.336 482.9783)" class="st4" cx="558.8" cy="299.8" rx="85.9" ry="85.9"/>
			
				<ellipse transform="matrix(0.7071 -0.7071 0.7071 0.7071 -103.8856 385.8063)" class="st4" cx="413.8" cy="318.3" rx="76.3" ry="76.3"/>
			<g>
				<g>
					<g>
						<g>
							<g>
								<path class="st13" d="M723,173.9c-0.1-0.1-0.1-0.1-0.2-0.2c-21.2,22.7-55.1,41.4-91.3,49.3c0,2.4-0.1,15.8-0.3,77.6
									c-0.4,82.4,78.1,122.7,90.3,128.9C685.7,284.7,713.7,197.1,723,173.9z"/>
								<path class="st13" d="M723,173.9c-9.3,23.2-37.3,110.8-1.6,255.6c11.8-5.4,91.2-45.6,91.6-128.1c0.3-61.8,0.3-75.2,0.3-77.6
									C777.3,215.6,744,196.7,723,173.9z"/>
							</g>
							<path class="st14" d="M721.4,432.4l-1.1-0.6c-23.9-12.1-40.6-26.4-50.5-36.3c-27.5-27.6-41.3-59.5-41.2-94.9l0.4-79.7l2-0.4
								c35.1-7.7,68.8-25.8,89.9-48.5l1.9-2.1l2.1,2.2c21,22.8,54.3,41.2,89.1,49.2l2,0.5l0,2.1c0,2.4-0.1,15.8-0.3,77.6
								c-0.4,85.3-83.6,126.1-93.1,130.4L721.4,432.4z M634.2,225.1l-0.3,75.5c-0.3,72.3,60.3,111.8,87.7,126
								c13.3-6.4,88.6-45.8,88.9-125.2c0.2-52.1,0.3-69.8,0.3-75.5c-34-8.2-66.6-26.1-87.9-48.4
								C701.3,199.6,668.5,217.2,634.2,225.1z"/>
						</g>
						<path class="st15" d="M722.7,414.2l-2.5-0.1c-8.5-4.4-25.2-14.2-41.1-30c-24.4-24.2-36.6-52.2-36.5-83.2l0.3-68.2l2.3-0.6
							c29.3-7.6,56.1-21.4,75.3-39.1l2.2-2l2.1,2.1l-2,2.3l2.1-2.2c19.1,17.8,45.6,31.8,74.8,39.6l2.3,0.6l-0.3,68.2
							c-0.1,31-12.7,58.9-37.2,82.9c-15.5,15.2-31.8,24.7-40.2,29.1L722.7,414.2z M649,237.3l-0.3,63.5
							c-0.1,29.3,11.5,55.8,34.7,78.9c14.5,14.4,29.7,23.6,38.2,28.2c8.1-4.2,23.6-13.4,38.4-27.9c23.4-22.8,35.3-49.3,35.4-78.5
							l0.3-63.5c-28.2-7.9-54-21.5-73.2-38.7C703.3,216.2,677.4,229.6,649,237.3z"/>
					</g>
				</g>
				<g>
					<path class="st14" d="M687.9,291.3v12.3c0,11.6,16.3,20.4,37.5,20.4c21.1,0,37.5-8.9,37.5-20.4v-12.3
						c-7.5,7.5-21.1,12.3-37.5,12.3C709,303.6,695.4,298.8,687.9,291.3z"/>
					<path class="st14" d="M687.9,318.6v12.3c0,11.6,16.3,20.4,37.5,20.4c21.1,0,37.5-8.9,37.5-20.4v-12.3
						c-7.5,7.5-21.1,12.3-37.5,12.3C709,330.8,695.4,326.1,687.9,318.6z"/>
					<ellipse class="st14" cx="725.3" cy="276.3" rx="37.5" ry="20.4"/>
				</g>
			</g>
			<g>
				<path class="st4" d="M880.8,180.4l-1.4,1.6l10.3,0.1l-1.3-10.2l-1.9,2.1c-8.3-5.6-19.7-4.5-26.5,3.2c-3.4,3.8-5,8.5-5.1,13.2
					l8.4,0c0.1-2.7,1-5.4,3-7.6C869.9,178.7,876,177.8,880.8,180.4z"/>
				<path class="st4" d="M889.4,203.5c3.4-3.8,5-8.5,5.1-13.2l-8.4,0c-0.1,2.7-1,5.4-3,7.6c-3.8,4.2-9.9,5.1-14.7,2.5l1.4-1.6
					l-10.3-0.1l1.3,10.2l1.9-2.1C871.2,212.4,882.5,211.2,889.4,203.5z"/>
			</g>
			
				<ellipse transform="matrix(0.9239 -0.3827 0.3827 0.9239 -63.5511 356.8411)" class="st14" cx="865.2" cy="338.2" rx="10.5" ry="10.5"/>
			<path class="st4" d="M876.8,421.5c0,3.3-2.7,6-6,6c-3.3,0-6-2.7-6-6c0-3.3,2.7-6,6-6C874.1,415.4,876.8,418.1,876.8,421.5z"/>
			<circle class="st4" cx="491.3" cy="23.9" r="6"/>
			<g>
				<path class="st14" d="M580.2,353.5L580.2,353.5c-1.6,0-2.8-1.3-2.8-2.8v-30.4c0-1.6,1.3-2.8,2.8-2.8l0,0c1.6,0,2.8,1.3,2.8,2.8
					v30.4C583.1,352.2,581.8,353.5,580.2,353.5z"/>
				<path class="st14" d="M562.2,335.5L562.2,335.5c0-1.6,1.3-2.8,2.8-2.8h30.4c1.6,0,2.8,1.3,2.8,2.8l0,0c0,1.6-1.3,2.8-2.8,2.8
					h-30.4C563.5,338.3,562.2,337,562.2,335.5z"/>
			</g>
			<g>
				<path class="st5" d="M813.3,86L813.3,86c-1.4,0-2.6-1.1-2.6-2.6V56c0-1.4,1.1-2.6,2.6-2.6l0,0c1.4,0,2.6,1.1,2.6,2.6v27.4
					C815.9,84.8,814.7,86,813.3,86z"/>
				<path class="st5" d="M797.1,69.7L797.1,69.7c0-1.4,1.1-2.6,2.6-2.6H827c1.4,0,2.6,1.1,2.6,2.6l0,0c0,1.4-1.1,2.6-2.6,2.6h-27.4
					C798.2,72.3,797.1,71.2,797.1,69.7z"/>
			</g>
			<path class="st2" d="M382.5,436.2c-5.1,0-9.2-4.1-9.2-9.2s4.1-9.2,9.2-9.2c5.1,0,9.2,4.1,9.2,9.2S387.6,436.2,382.5,436.2z
				 M382.5,420.3c-3.7,0-6.7,3-6.7,6.7s3,6.7,6.7,6.7c3.7,0,6.7-3,6.7-6.7S386.2,420.3,382.5,420.3z"/>
			<g>
				<path class="st16" d="M715.6,835.7l-0.9,1l6.5,0.1l-0.8-6.5l-1.2,1.4c-5.3-3.6-12.5-2.8-16.9,2c-2.2,2.4-3.2,5.4-3.2,8.4l5.3,0
					c0.1-1.7,0.7-3.4,1.9-4.8C708.7,834.6,712.5,834,715.6,835.7z"/>
				<path class="st16" d="M721.1,850.4c2.2-2.4,3.2-5.4,3.2-8.4l-5.3,0c-0.1,1.7-0.7,3.4-1.9,4.8c-2.4,2.7-6.3,3.3-9.3,1.6l0.9-1
					l-6.5-0.1l0.8,6.5l1.2-1.4C709.4,856,716.7,855.3,721.1,850.4z"/>
			</g>
		</g>
		<g>
			<g>
				<path class="st17" d="M512.8,662.8c-1.2,0-2.2-1-2.2-2.2v-0.7c0-1.2,1-2.2,2.2-2.2c1.2,0,2.2,1,2.2,2.2v0.7
					C515,661.8,514,662.8,512.8,662.8z M512.8,643.9c-1.2,0-2.2-1-2.2-2.2V641c0-1.2,1-2.2,2.2-2.2c1.2,0,2.2,1,2.2,2.2v0.7
					C515,642.9,514,643.9,512.8,643.9z M512.8,625.1c-1.2,0-2.2-1-2.2-2.2v-0.7c0-1.2,1-2.2,2.2-2.2c1.2,0,2.2,1,2.2,2.2v0.7
					C515,624.1,514,625.1,512.8,625.1z M512.8,606.2c-1.2,0-2.2-1-2.2-2.2v-0.7c0-1.2,1-2.2,2.2-2.2c1.2,0,2.2,1,2.2,2.2v0.7
					C515,605.2,514,606.2,512.8,606.2z M512.8,587.3c-1.2,0-2.2-1-2.2-2.2v-0.7c0-1.2,1-2.2,2.2-2.2c1.2,0,2.2,1,2.2,2.2v0.7
					C515,586.3,514,587.3,512.8,587.3z M512.8,568.5c-1.2,0-2.2-1-2.2-2.2v-0.7c0-1.2,1-2.2,2.2-2.2c1.2,0,2.2,1,2.2,2.2v0.7
					C515,567.5,514,568.5,512.8,568.5z M512.8,549.6c-1.2,0-2.2-1-2.2-2.2v-0.7c0-1.2,1-2.2,2.2-2.2c1.2,0,2.2,1,2.2,2.2v0.7
					C515,548.6,514,549.6,512.8,549.6z M512.8,530.7c-1.2,0-2.2-1-2.2-2.2v-0.7c0-1.2,1-2.2,2.2-2.2c1.2,0,2.2,1,2.2,2.2v0.7
					C515,529.7,514,530.7,512.8,530.7z M512.8,511.9c-1.2,0-2.2-1-2.2-2.2v-0.7c0-1.2,1-2.2,2.2-2.2c1.2,0,2.2,1,2.2,2.2v0.7
					C515,510.9,514,511.9,512.8,511.9z M512.8,493c-1.2,0-2.2-1-2.2-2.2v-0.7c0-1.2,1-2.2,2.2-2.2c1.2,0,2.2,1,2.2,2.2v0.7
					C515,492,514,493,512.8,493z M512.8,474.2c-1.2,0-2.2-1-2.2-2.2v-0.7c0-1.2,1-2.2,2.2-2.2c1.2,0,2.2,1,2.2,2.2v0.7
					C515,473.2,514,474.2,512.8,474.2z"/>
				<path class="st17" d="M512.8,681.3c-1.2,0-2.2-1-2.2-2.2c0-1.2,1-2.4,2.2-2.4c1.2,0,2.2,0.8,2.2,2v0.4
					C515,680.3,514,681.3,512.8,681.3z"/>
			</g>
			<g>
				<path class="st17" d="M722.4,455.3c-1.2,0-2.2-1-2.2-2.2s1-2.4,2.2-2.4c1.2,0,2.2,0.8,2.2,2v0.4
					C724.7,454.3,723.7,455.3,722.4,455.3z"/>
				<path class="st17" d="M722.4,662.8c-1.2,0-2.2-1-2.2-2.2v-0.7c0-1.2,1-2.2,2.2-2.2c1.2,0,2.2,1,2.2,2.2v0.7
					C724.7,661.8,723.7,662.8,722.4,662.8z M722.4,643.9c-1.2,0-2.2-1-2.2-2.2V641c0-1.2,1-2.2,2.2-2.2c1.2,0,2.2,1,2.2,2.2v0.7
					C724.7,642.9,723.7,643.9,722.4,643.9z M722.4,625.1c-1.2,0-2.2-1-2.2-2.2v-0.7c0-1.2,1-2.2,2.2-2.2c1.2,0,2.2,1,2.2,2.2v0.7
					C724.7,624.1,723.7,625.1,722.4,625.1z M722.4,606.2c-1.2,0-2.2-1-2.2-2.2v-0.7c0-1.2,1-2.2,2.2-2.2c1.2,0,2.2,1,2.2,2.2v0.7
					C724.7,605.2,723.7,606.2,722.4,606.2z M722.4,587.3c-1.2,0-2.2-1-2.2-2.2v-0.7c0-1.2,1-2.2,2.2-2.2c1.2,0,2.2,1,2.2,2.2v0.7
					C724.7,586.3,723.7,587.3,722.4,587.3z M722.4,568.5c-1.2,0-2.2-1-2.2-2.2v-0.7c0-1.2,1-2.2,2.2-2.2c1.2,0,2.2,1,2.2,2.2v0.7
					C724.7,567.5,723.7,568.5,722.4,568.5z M722.4,549.6c-1.2,0-2.2-1-2.2-2.2v-0.7c0-1.2,1-2.2,2.2-2.2c1.2,0,2.2,1,2.2,2.2v0.7
					C724.7,548.6,723.7,549.6,722.4,549.6z M722.4,530.7c-1.2,0-2.2-1-2.2-2.2v-0.7c0-1.2,1-2.2,2.2-2.2c1.2,0,2.2,1,2.2,2.2v0.7
					C724.7,529.7,723.7,530.7,722.4,530.7z M722.4,511.9c-1.2,0-2.2-1-2.2-2.2v-0.7c0-1.2,1-2.2,2.2-2.2c1.2,0,2.2,1,2.2,2.2v0.7
					C724.7,510.9,723.7,511.9,722.4,511.9z M722.4,474.2c-1.2,0-2.2-1-2.2-2.2v-0.7c0-1.2,1-2.2,2.2-2.2c1.2,0,2.2,1,2.2,2.2v0.7
					C724.7,473.1,723.7,474.2,722.4,474.2z"/>
				<path class="st17" d="M722.4,681.3c-1.2,0-2.2-1-2.2-2.2c0-1.2,1-2.4,2.2-2.4c1.2,0,2.2,0.8,2.2,2.1v0.3
					C724.7,680.3,723.7,681.3,722.4,681.3z"/>
			</g>
			<g>
				<path class="st17" d="M582.7,455.3c-1.2,0-2.2-1-2.2-2.2c0-1.2,1-2.4,2.2-2.4c1.2,0,2.2,0.8,2.2,2v0.4
					C584.9,454.3,583.9,455.3,582.7,455.3z"/>
				<path class="st17" d="M582.7,662.8c-1.2,0-2.2-1-2.2-2.2v-0.7c0-1.2,1-2.2,2.2-2.2c1.2,0,2.2,1,2.2,2.2v0.7
					C584.9,661.8,583.9,662.8,582.7,662.8z M582.7,643.9c-1.2,0-2.2-1-2.2-2.2V641c0-1.2,1-2.2,2.2-2.2c1.2,0,2.2,1,2.2,2.2v0.7
					C584.9,642.9,583.9,643.9,582.7,643.9z M582.7,606.2c-1.2,0-2.2-1-2.2-2.2v-0.7c0-1.2,1-2.2,2.2-2.2c1.2,0,2.2,1,2.2,2.2v0.7
					C584.9,605.2,583.9,606.2,582.7,606.2z M582.7,587.3c-1.2,0-2.2-1-2.2-2.2v-0.7c0-1.2,1-2.2,2.2-2.2c1.2,0,2.2,1,2.2,2.2v0.7
					C584.9,586.3,583.9,587.3,582.7,587.3z M582.7,568.5c-1.2,0-2.2-1-2.2-2.2v-0.7c0-1.2,1-2.2,2.2-2.2c1.2,0,2.2,1,2.2,2.2v0.7
					C584.9,567.5,583.9,568.5,582.7,568.5z M582.7,549.6c-1.2,0-2.2-1-2.2-2.2v-0.7c0-1.2,1-2.2,2.2-2.2c1.2,0,2.2,1,2.2,2.2v0.7
					C584.9,548.6,583.9,549.6,582.7,549.6z M582.7,530.7c-1.2,0-2.2-1-2.2-2.2v-0.7c0-1.2,1-2.2,2.2-2.2c1.2,0,2.2,1,2.2,2.2v0.7
					C584.9,529.7,583.9,530.7,582.7,530.7z M582.7,511.9c-1.2,0-2.2-1-2.2-2.2v-0.7c0-1.2,1-2.2,2.2-2.2c1.2,0,2.2,1,2.2,2.2v0.7
					C584.9,510.9,583.9,511.9,582.7,511.9z M582.7,493c-1.2,0-2.2-1-2.2-2.2v-0.7c0-1.2,1-2.2,2.2-2.2c1.2,0,2.2,1,2.2,2.2v0.7
					C584.9,492,583.9,493,582.7,493z M582.7,474.1c-1.2,0-2.2-1-2.2-2.2v-0.7c0-1.2,1-2.2,2.2-2.2c1.2,0,2.2,1,2.2,2.2v0.7
					C584.9,473.1,583.9,474.1,582.7,474.1z"/>
				<path class="st17" d="M582.7,681.3c-1.2,0-2.2-1-2.2-2.2c0-1.2,1-2.4,2.2-2.4c1.2,0,2.2,0.8,2.2,2v0.4
					C584.9,680.3,583.9,681.3,582.7,681.3z"/>
			</g>
			<g>
				<path class="st17" d="M652.6,455.3c-1.2,0-2.2-1-2.2-2.2s1-2.4,2.2-2.4c1.2,0,2.2,0.8,2.2,2.1v0.4
					C654.8,454.3,653.8,455.3,652.6,455.3z"/>
				<path class="st17" d="M652.6,662.8c-1.2,0-2.2-1-2.2-2.2v-0.7c0-1.2,1-2.2,2.2-2.2c1.2,0,2.2,1,2.2,2.2v0.7
					C654.8,661.8,653.8,662.8,652.6,662.8z M652.6,643.9c-1.2,0-2.2-1-2.2-2.2V641c0-1.2,1-2.2,2.2-2.2c1.2,0,2.2,1,2.2,2.2v0.7
					C654.8,642.9,653.8,643.9,652.6,643.9z M652.6,625.1c-1.2,0-2.2-1-2.2-2.2v-0.7c0-1.2,1-2.2,2.2-2.2c1.2,0,2.2,1,2.2,2.2v0.7
					C654.8,624.1,653.8,625.1,652.6,625.1z M652.6,606.2c-1.2,0-2.2-1-2.2-2.2v-0.7c0-1.2,1-2.2,2.2-2.2c1.2,0,2.2,1,2.2,2.2v0.7
					C654.8,605.2,653.8,606.2,652.6,606.2z M652.6,587.3c-1.2,0-2.2-1-2.2-2.2v-0.7c0-1.2,1-2.2,2.2-2.2c1.2,0,2.2,1,2.2,2.2v0.7
					C654.8,586.3,653.8,587.3,652.6,587.3z M652.6,568.5c-1.2,0-2.2-1-2.2-2.2v-0.7c0-1.2,1-2.2,2.2-2.2c1.2,0,2.2,1,2.2,2.2v0.7
					C654.8,567.5,653.8,568.5,652.6,568.5z M652.6,549.6c-1.2,0-2.2-1-2.2-2.2v-0.7c0-1.2,1-2.2,2.2-2.2c1.2,0,2.2,1,2.2,2.2v0.7
					C654.8,548.6,653.8,549.6,652.6,549.6z M652.6,530.7c-1.2,0-2.2-1-2.2-2.2v-0.7c0-1.2,1-2.2,2.2-2.2c1.2,0,2.2,1,2.2,2.2v0.7
					C654.8,529.7,653.8,530.7,652.6,530.7z M652.6,511.9c-1.2,0-2.2-1-2.2-2.2v-0.7c0-1.2,1-2.2,2.2-2.2c1.2,0,2.2,1,2.2,2.2v0.7
					C654.8,510.9,653.8,511.9,652.6,511.9z M652.6,493c-1.2,0-2.2-1-2.2-2.2v-0.7c0-1.2,1-2.2,2.2-2.2c1.2,0,2.2,1,2.2,2.2v0.7
					C654.8,492,653.8,493,652.6,493z M652.6,474.2c-1.2,0-2.2-1-2.2-2.2v-0.7c0-1.2,1-2.2,2.2-2.2c1.2,0,2.2,1,2.2,2.2v0.7
					C654.8,473.1,653.8,474.2,652.6,474.2z"/>
				<path class="st17" d="M652.6,681.3c-1.2,0-2.2-1-2.2-2.2c0-1.2,1-2.4,2.2-2.4c1.2,0,2.2,0.8,2.2,2.1v0.4
					C654.8,680.3,653.8,681.3,652.6,681.3z"/>
			</g>
			<g>
				<polygon class="st18" points="521.2,452 513.4,447.1 505.8,452 505.8,449.4 513.5,444.5 521.2,449.4 				"/>
				<polygon class="st18" points="521.2,458 513.4,453.1 505.8,458 505.8,455.3 513.5,450.4 521.2,455.3 				"/>
			</g>
			<g>
				<polygon class="st18" points="575.7,621.3 583.5,626.2 591.2,621.3 591.2,624 583.4,628.9 575.7,624 				"/>
				<polygon class="st18" points="575.7,615.4 583.5,620.3 591.2,615.4 591.2,618 583.4,623 575.7,618 				"/>
			</g>
			<g>
				<polygon class="st18" points="729.9,492.8 722.1,487.9 714.4,492.8 714.4,490.2 722.2,485.3 729.9,490.2 				"/>
				<polygon class="st18" points="729.9,498.8 722.1,493.8 714.4,498.8 714.4,496.1 722.2,491.2 729.9,496.1 				"/>
			</g>
		</g>
	</g>
</g>
<g id="sample_text">
</g>
<g id="Layer_5">
	<g>
		<g>
			<path class="st19" d="M937.2,1069.7l-501.4,0c-69.9-80.3-67-178.1,28.4-266.9c17.1-15.9,47-33.1,71.1-38.9
				c44.5-10.6,94.9-13.1,95.3-13.3c0.1-0.1,56.1-7.8,72-27.2c49.6-60.3,62.3-68.9,62.3-68.9c50.5-9.9,93.6-12.8,125.5,5.1
				c0,0,0,0,0,0c29.6,16.6,49.6,51,57.1,114.2c1.4,12,2.4,24.9,2.9,39c1.8,51.3,11.9,97,17.9,135.6c0,0,0,0,0,0
				C977,1004.4,983.2,1047,937.2,1069.7z"/>
		</g>
		<path class="st20" d="M865.4,723.7c-30.6,16.7-34,71.7-82,85.9c-48,14.2-129.4,12.9-175.6,63c-44.6,48.3-93.7-74.6-72.5-109.2
			c44.5-10.6,94.9-13,95.3-13.2c0.1-0.1,68.4-0.3,84.4-19.6c49.6-60,49.9-76.1,49.9-76.1c50.5-9.8,93.6-12.7,125.5,5.1c0,0,0,0,0,0
			C925.7,695.9,896.1,707,865.4,723.7z"/>
		<path class="st20" d="M968.4,947c-70.3-87.8-214.8,31.9-252.2,28.5c-34.4-3.1,67-123.1,192.8-141c50.8-7.2,38.7-59.8,38.6-61.4
			c1.4,11.9,2.4,24.8,2.9,38.9C952.3,863.1,962.4,908.6,968.4,947z"/>
		<g>
			<g>
				<path class="st21" d="M576.1,994.8c-4.9,9.5-6,26.9-7.5,32.8c-1.5,5.9-27.2,26-29.5,25c-5.6-2.5-0.2-12.4,3.2-19.5
					c0.1-0.3,0.3-0.6,0.4-0.9c3.4-7.2,0.5-23.4,2.2-31.7c1.8-8.3-6.7-30.8-6.7-30.8l14.2-18c0,0,10,19,17.2,22.5
					c1.3,0.6,2.4,1.4,3.5,2.2C578,980.5,580.1,987,576.1,994.8z"/>
				<path class="st22" d="M766.9,516.4c-13.7,1.2-26.5,7.3-36.5,16.9c-6.3,6-13.3,14.3-17.6,24.1c-9.4,21.4-6.2,46.4-11.5,60.1
					c-5.4,13.7-8.6,16.1,0,22.3c8.6,6.2,10,12.1-0.2,18.7c-10.3,6.6-17.8,27,10.8,28.8c28.6,1.8,84.2-8.6,91.3-13.9
					c7.1-5.3,26.6-13.2,36-27.3c18.7-28.3,3.8-47.4-10.6-52.2C806.6,586.5,814.6,512.4,766.9,516.4z"/>
				<path class="st23" d="M729.3,635.1c0,0-28.4,64.1-34.3,69.7c-5.9,5.6-33.6,16.5-31.1,25.8c2.5,9.3,23.4,18.4,32.1,16.2
					c8.7-2.2,30.8-39.9,30.8-39.9L729.3,635.1z"/>
				<path class="st24" d="M666.2,736.3c0,0,1.5-11,28.5-14.6c14.9-2,39.9-43.6,39.9-43.6l-25,65.7l-24.2,10.5L666.2,736.3z"/>
				<path class="st25" d="M677.1,757c0,0-140.2-9.8-159.4,12.4c-15.2,17.7,12.5,210.5,12.5,210.5s38.1,1.1,41.2-9
					c0,0-7.1-93.6-1.2-109.8c6-16.2,2.2-38.6,2.2-38.6s74.6,11.2,98.3,5.5C694.4,822.3,677.1,757,677.1,757z"/>
				<path class="st21" d="M526,1050.4c-9.9,4.1-22,16.7-26.9,20.3c-4.9,3.6-37.6,2.3-38.6,0.1c-2.8-5.8,8.7-9.9,15.9-13.3
					c0.1,0,0.2-0.1,0.3-0.1l0,0c7.2-3.6,15.2-17.5,21.8-22.6c6.7-5.2,14.7-27.8,14.7-27.8l22.5-4.6c0,0-4.6,21-1.4,28.3
					c0.3,0.7,0.6,1.4,0.8,2.1C537.2,1039.4,535,1046.7,526,1050.4z"/>
				<path class="st26" d="M738.7,763.8c0,0-153,15.5-166.4,31.2c-13.4,15.6-66.3,218.6-66.3,218.6s15.6,8.7,29.8,0.6
					c0,0,40.5-68.9,58.4-90.5c17.9-21.6,24.3-78.1,33.8-84.2c2.6-1.6,92.6,8.5,125.6-16.8C786.6,797.3,738.7,763.8,738.7,763.8z"/>
				<path class="st23" d="M805.4,764.1c-3.9,7.5-8.2,14.6-12.8,21c-11.5,16-24.7,27.4-39.1,30.4c-20.9,4.3-90.8-36.3-87.3-58.7
					c1.9-12.2,40.8-34.1,47.1-42.9c6.3-8.8,10-53.2,13.4-71.3c2.5-13.5,10.8-14.9,21.3-18.4c44.3-15.2,75.9,0.9,75.9,0.9
					C844.2,636.5,832.9,711.5,805.4,764.1z"/>
				<path class="st22" d="M803.3,578.9c0,0,2.4-10.9,3.3-22.5c0.7-8.3-11.9-35.3-31.5-34.2c0,0-8.7,1.7-16.5,8.1
					c-6.2,5.1-14.8,15.6-1.7,41l3.6,8.6L803.3,578.9z"/>
				<g>
					<path class="st21" d="M763.6,622.6c0.6,4.6,4.8,7.3,13.9,6.7c9.3-0.6,22.5-6.2,21.4-10.5c-1-3.8-5.1-12.6-6.8-35l-1.7,0.5
						l-28.4,8c0,0,1.4,9,2.1,17.6C764.7,616.9,763.3,620.2,763.6,622.6z"/>
					<path class="st27" d="M762.1,592.2c0,0,1.4,9,2.1,17.6c16.1-1.7,23.5-17.1,26.4-25.6L762.1,592.2z"/>
					<path class="st21" d="M761.5,605.3c0,0,37.2-9.3,31-32.4c-6.2-23.1-5.5-39.8-29.5-34.8c-24,5-26.2,15-26,23.2
						C737.1,569.5,751.7,607.1,761.5,605.3z"/>
					<path class="st22" d="M745.9,542c0,0,12.5,23.8,36,26.3c13.8,1.5,17.6,10.6,17.6,10.6s-4.1-26-11.1-41.8
						C788.5,537.1,750.1,527.1,745.9,542z"/>
					<path class="st22" d="M750.2,545.2c0,0-8.1,8.3-10.7,14.2c-3.7,8.7,3.5,26.9,6.5,30.9c0,0-17.3-29.4-11.5-42.1
						C740.7,534.7,750.2,545.2,750.2,545.2z"/>
				</g>
				<path class="st21" d="M636.8,759.3c0,0-7.4,7.8-8.3,8.3c-4.9,2.3-11.1,1-14.1,1.7c-3,0.8-2.5-1.1-0.3-2.6
					c2.2-1.5,7.6-0.9,5.4-1.5c-2.2-0.6-14.2-2.8-18.7-1.6c-7.1,1.9-12.8-0.3-13.2-1.1c-0.4-0.7,16.3-8.9,21.1-8.6
					c4.8,0.3,18.5-0.4,18.5-0.4L636.8,759.3z"/>
				<path class="st21" d="M836.5,639.5c0,0,4.4,109-8.4,124.3c-12.4,14.8-65.5,4.8-88.5-0.2c-1.1-0.2-3.5,0-5.1,1.5
					c-1.8,1.6-2.6-10.9-2.6-10.9s69.3-10.1,73.9-11.4c6.7-1.9,2-77,2-77L836.5,639.5z"/>
				<path class="st21" d="M737.4,762.1c0,0-6.2,6.3-8.6,9.5c-2.4,3.2-18.9,9-19.2,7.3c-0.4-1.7,7.4-7,8.1-8.9
					c0.7-2,9.2-11.8,14.3-12.9C737.1,756,737.4,762.1,737.4,762.1z"/>
				<path class="st21" d="M732,754.2c0,0-25.4,5.9-29.8,7.6c-4.3,1.8-13.5,14.7-9.8,16.7c2.3,1.2,12.3-4.1,17.4-5.2
					c5.1-1.1,19.5,1.4,26.1-11.7C736.7,760.2,732,754.2,732,754.2z"/>
				<path class="st26" d="M526,1050.4c-9.9,4.1-22,16.7-26.9,20.3c-4.9,3.6-37.6,2.3-38.6,0.1c-2.8-5.8,8.7-9.9,15.9-13.3
					c0.1,0,0.2-0.1,0.3-0.1l0,0l1-0.3c0,0,14.1,5,25.8,0c9.1-3.9,22.7-18.5,31.6-24.4C537.2,1039.4,535,1046.7,526,1050.4z"/>
				<path class="st28" d="M576.1,994.8c-4.9,9.5-6,26.9-7.5,32.8c-1.5,5.9-27.2,26-29.5,25c-5.6-2.5-0.2-12.4,3.2-19.5
					c2-0.1,4.7-0.8,7.9-2.9c6.4-4.3,17.4-20.5,18.3-30.1c0.8-7.8,0.3-19,4.6-23.7C578,980.5,580.1,987,576.1,994.8z"/>
				<g>
					<g>
						<polygon class="st29" points="699.1,781.8 588.3,781.8 555,698.9 665.6,698.9 						"/>
						<polygon class="st20" points="587,778.5 733.4,778.5 733.4,781.8 588.3,781.8 						"/>
					</g>
					<path class="st14" d="M616.3,740.3c-0.8-2.9,0.8-5.3,3.8-5.3c2.9,0,6,2.4,6.8,5.3c0.8,2.9-0.8,5.3-3.8,5.3
						C620.2,745.6,617.1,743.2,616.3,740.3z"/>
				</g>
				<path class="st24" d="M805.4,764.1c-3.9,7.5-8.2,14.6-12.8,21c-35.5-1.3-44.1-15.7-44.1-15.7L805.4,764.1z"/>
				<path class="st24" d="M750.2,750.5c0,0,40.6-9.3,45.6-18c5-8.7,12.1-66.8,12.1-66.8l16.9,21.7l-3.4,51c0,0-19.3,19.1-20.5,18.4
					C799.6,756.2,750.2,750.5,750.2,750.5z"/>
				<path class="st23" d="M823.9,625c0,0,9.6,4.8,13.3,11.6c7,12.9,14.6,112.7-5.5,129.2c-20,16.5-78.2,13.2-85,1.5
					c0,0-0.5-10.9,3.5-16.8c0,0,52.3-6.9,54.7-10.2c2.3-3.3-1.7-74,0.8-80.4C808.1,653.5,823.9,625,823.9,625z"/>
			</g>
		</g>
		<path class="st19" d="M832.6,764.7c0,0-15.1,14.2-78.3,16.2c-49.4,1.6-101.5,21.5-125.8,55.8c-6.8,9.5-11.5,25.3-13.3,35.9
			c-3.3,19.5,120,49.7,122,46.9c2-2.8,81.2-70.9,81.2-70.9L832.6,764.7z"/>
	</g>
</g>
</svg>
