<?xml version="1.0" encoding="UTF-8"?>
<svg width="44px" height="44px" viewBox="0 0 44 44" version="1.1" xmlns="http://www.w3.org/2000/svg" xmlns:xlink="http://www.w3.org/1999/xlink">
    <!-- Generator: Sketch 54.1 (76490) - https://sketchapp.com -->
    <title>Group 9</title>
    <desc>Created with Sketch.</desc>
    <g id="New-UI" stroke="none" stroke-width="1" fill="none" fill-rule="evenodd">
        <g id="3.-Goals" transform="translate(-329.000000, -242.000000)">
            <g id="Group-9" transform="translate(329.000000, 242.000000)">
                <g id="Group-7">
                    <ellipse id="Oval" fill="#65D48E" opacity="0.121954055" cx="22" cy="21.986755" rx="22" ry="21.986755"></ellipse>
                    <ellipse id="Oval" fill="#65D48E" opacity="0.225678943" cx="21.8263158" cy="21.8131753" rx="18.5263158" ry="18.5151621"></ellipse>
                    <g id="Group-11" transform="translate(6.947368, 10.576786)">
                        <ellipse id="Oval" fill="#47A395" opacity="0.52" cx="1.15789474" cy="12.4514465" rx="1.15789474" ry="1.15719763"></ellipse>
                        <ellipse id="Oval-Copy-10" fill="#47A395" opacity="0.52" cx="10.56" cy="0.879470199" rx="1" ry="1"></ellipse>
                        <ellipse id="Oval-Copy-2" fill="#47A395" opacity="0.523809524" cx="24.3157895" cy="2.03666783" rx="1.15789474" ry="1.15719763"></ellipse>
                        <ellipse id="Oval-Copy-36" fill="#A772BB" opacity="0.287252604" cx="25.1726316" cy="25.4814918" rx="1" ry="1"></ellipse>
                    </g>
                </g>
                <g id="Group-13-Copy" transform="translate(8.800000, 14.291391)" fill="#00A8A2" fill-rule="nonzero">
                    <g id="Group">
                        <path d="M12.7860215,10.3036928 C12.0668078,10.3036928 11.3475941,10.1960825 10.6550179,10.0077643 L4.68820789,8.20529065 L4.68820789,12.3213873 C4.68820789,13.0746599 5.16768369,13.7203221 5.8868974,13.9355428 L8.49737679,14.715718 C11.3742316,15.5766009 14.4109117,15.5766009 17.2877666,14.715718 L19.898246,13.9355428 C20.6174597,13.7203221 21.0969355,13.0746599 21.0969355,12.3213873 L21.0969355,8.15148546 L14.9170251,10.0077643 C14.2244489,10.2229851 13.5052352,10.3036928 12.7860215,10.3036928 Z" id="Path"></path>
                        <path d="M24.9061044,3.63184996 L14.3842742,0.484246661 C13.3454099,0.161415554 12.2266331,0.161415554 11.1611313,0.484246661 L0.66593862,3.63184996 C-0.0532750896,3.8470707 -0.0532750896,4.8962718 0.66593862,5.11149253 L11.1877688,8.25909583 C12.2266331,8.58192694 13.3454099,8.58192694 14.4109117,8.25909583 L23.4144019,5.5688366 L23.4144019,7.96316732 C23.2279391,8.07077769 23.0947513,8.25909583 23.0947513,8.47431657 L23.0947513,9.11997878 C23.0947513,9.36210211 23.2279391,9.57732285 23.4410394,9.65803063 L22.881651,10.9762577 C22.8017384,11.1645758 22.9082885,11.3528939 23.1213889,11.3797965 L23.7074149,11.4336017 C23.8139651,11.4336017 23.9471528,11.4336017 24.053703,11.4336017 L24.6397289,11.3797965 C24.8261918,11.3528939 24.9327419,11.1645758 24.8794668,10.9762577 L24.3200784,9.65803063 C24.5331788,9.55042026 24.6663665,9.36210211 24.6663665,9.11997878 L24.6663665,8.47431657 C24.6663665,8.25909583 24.5331788,8.07077769 24.3467159,7.96316732 L24.3467159,5.29981068 L24.9327419,5.11149253 C25.6253181,4.8693692 25.6253181,3.8470707 24.9061044,3.63184996 Z" id="Path"></path>
                    </g>
                </g>
            </g>
        </g>
    </g>
</svg>