<?xml version="1.0" encoding="UTF-8"?>
<svg width="44px" height="44px" viewBox="0 0 44 44" version="1.1" xmlns="http://www.w3.org/2000/svg" xmlns:xlink="http://www.w3.org/1999/xlink">
    <!-- Generator: Sketch 54.1 (76490) - https://sketchapp.com -->
    <title>Group 15</title>
    <desc>Created with Sketch.</desc>
    <g id="New-UI" stroke="none" stroke-width="1" fill="none" fill-rule="evenodd">
        <g id="3.-Goals" transform="translate(-329.000000, -467.000000)">
            <g id="Group-15" transform="translate(329.000000, 467.000000)">
                <g id="Group-7-Copy-3">
                    <ellipse id="Oval" fill="#65D48E" opacity="0.121954055" cx="22" cy="21.986755" rx="22" ry="21.986755"></ellipse>
                    <ellipse id="Oval" fill="#65D48E" opacity="0.225678943" cx="21.8263158" cy="21.8131753" rx="18.5263158" ry="18.5151621"></ellipse>
                    <g id="Group-11" transform="translate(6.947368, 10.576786)">
                        <ellipse id="Oval" fill="#47A395" opacity="0.52" cx="1.15789474" cy="12.4514465" rx="1.15789474" ry="1.15719763"></ellipse>
                        <ellipse id="Oval-Copy-10" fill="#47A395" opacity="0.52" cx="8.36" cy="0.879470199" rx="1" ry="1"></ellipse>
                        <ellipse id="Oval-Copy-2" fill="#47A395" opacity="0.523809524" cx="24.3157895" cy="2.03666783" rx="1.15789474" ry="1.15719763"></ellipse>
                        <ellipse id="Oval-Copy-36" fill="#A772BB" opacity="0.287252604" cx="25.1726316" cy="25.4814918" rx="1" ry="1"></ellipse>
                    </g>
                </g>
                <path d="M30.4673804,16.0559697 L25.6107711,16.0559697 C25.3886653,15.6891377 25.1034908,15.3626465 24.7678349,15.0909073 L26.6179718,13.2792988 C26.8843634,13.0111175 26.8829988,12.5836318 26.6149002,12.3170865 C26.3468016,12.0505411 25.9102958,12.0426931 25.6323849,12.2994218 L23.47101,14.4157868 C22.7745709,14.2109241 22.0320107,14.2109241 21.3355717,14.4157868 L19.1741968,12.2994218 C18.995436,12.1224933 18.7338566,12.0523865 18.487993,12.1155097 C18.2421293,12.178633 18.0493341,12.3653965 17.9822312,12.6054483 C17.9151284,12.8455 17.9839126,13.1023703 18.1626734,13.2792988 L20.0214557,15.0993727 C19.6818733,15.3701481 19.3929857,15.6967037 19.1677127,16.0644352 L14.3132648,16.0644352 C13.0942901,16.0644261 12.1047785,17.0295466 12.1000169,18.2231275 L12.1000169,29.3636731 C12.0977181,29.9399045 12.3298837,30.4933068 12.7451976,30.9015605 C13.1605115,31.3098142 13.7247739,31.5393008 14.3132648,31.5392964 L16.1893381,31.5392964 L16.1893381,32.1742059 C16.1893381,32.4430382 16.4119046,32.6609699 16.6864543,32.6609699 L18.1583506,32.6609699 C18.4329003,32.6609699 18.6554668,32.4430382 18.6554668,32.1742059 L18.6554668,31.5392964 L26.1273397,31.5392964 L26.1273397,32.1742059 C26.1273397,32.4430382 26.3499062,32.6609699 26.6244559,32.6609699 L28.0963522,32.6609699 C28.3709019,32.6609699 28.5934684,32.4430382 28.5934684,32.1742059 L28.5934684,31.5392964 L30.4695418,31.5392964 C31.057658,31.5387384 31.6213643,31.3090038 32.0362104,30.9008113 C32.4510565,30.4926188 32.6829259,29.9395379 32.6806282,29.3636731 L32.6806282,18.2231275 C32.6806282,17.0262393 31.6897234,16.0559697 30.4673804,16.0559697 Z M27.1280563,27.8123776 C27.1280563,28.4540686 26.5967997,28.974262 25.9414615,28.974262 L15.7613859,28.974262 C15.1060477,28.974262 14.5747911,28.4540686 14.5747911,27.8123776 L14.5747911,19.7701904 C14.5747911,19.4620395 14.699807,19.1665096 14.9223367,18.948614 C15.1448664,18.7307184 15.4466814,18.608306 15.7613859,18.608306 L25.9436228,18.608306 C26.2583273,18.608306 26.5601424,18.7307184 26.7826721,18.948614 C27.0052018,19.1665096 27.1302176,19.4620395 27.1302176,19.7701904 L27.1280563,27.8123776 Z M29.7908701,26.6123986 C29.3766581,26.6123986 29.040873,26.283606 29.040873,25.8780199 C29.040873,25.4724338 29.3766581,25.1436412 29.7908701,25.1436412 C30.205082,25.1436412 30.5408671,25.4724338 30.5408671,25.8780199 C30.5408671,26.283606 30.205082,26.6123986 29.7908701,26.6123986 Z M29.7908701,24.5256626 C29.3766581,24.5256626 29.040873,24.1968701 29.040873,23.791284 C29.040873,23.3856978 29.3766581,23.0569053 29.7908701,23.0569053 C30.205082,23.0569053 30.5408671,23.3856978 30.5408671,23.791284 C30.5396759,24.1960434 30.2042394,24.523548 29.7908701,24.5235463 L29.7908701,24.5256626 Z M29.7908701,22.4389267 C29.3766581,22.4389267 29.040873,22.1101342 29.040873,21.704548 C29.040873,21.2989619 29.3766581,20.9701694 29.7908701,20.9701694 C30.205082,20.9701694 30.5408671,21.2989619 30.5408671,21.704548 C30.5384895,22.1084802 30.2033997,22.4347007 29.7908701,22.434694 L29.7908701,22.4389267 Z M25.9284932,21.4548169 C26.0109492,21.6073523 26.0059622,21.7909982 25.9153442,21.9390274 C25.8247262,22.0870565 25.6616661,22.1779242 25.4854114,22.1786138 C24.7267688,22.1786138 24.3593351,21.6262425 24.0891632,21.2220168 C23.8189914,20.8177911 23.7195681,20.7098565 23.5315285,20.7098565 C23.3434889,20.7098565 23.2332588,20.8304893 22.9738938,21.2220168 C22.7145288,21.6135443 22.3384496,22.1786138 21.5776456,22.1786138 C20.8168417,22.1786138 20.4450852,21.6262425 20.1813975,21.2220168 C19.9177097,20.8177911 19.8118024,20.7098565 19.6237628,20.7098565 C19.4357232,20.7098565 19.325493,20.8304893 19.0661281,21.2220168 C18.8067631,21.6135443 18.4306839,22.1786138 17.6720413,22.1786138 C16.9133987,22.1786138 16.5546105,21.6262425 16.2779545,21.2220168 C16.1835502,21.0570949 16.0640221,20.9072279 15.923489,20.7775801 C15.80066,20.6936755 15.725379,20.5580116 15.7203198,20.411449 L15.7203198,20.3437253 C15.7209433,20.1694379 15.8200469,20.0098092 15.9777738,19.9290377 C16.1355007,19.8482661 16.3259308,19.8596253 16.4724782,19.9585469 C16.7345667,20.1579819 16.9547538,20.4052053 17.1208907,20.6865764 C17.3802557,21.0759876 17.4904858,21.1987368 17.6785254,21.1987368 C17.866565,21.1987368 17.9767951,21.078104 18.2361601,20.6865764 C18.4955251,20.2950489 18.8716043,19.7299794 19.6302469,19.7299794 C20.3888895,19.7299794 20.7520004,20.2844671 21.0200109,20.6865764 C21.2880214,21.0886858 21.389606,21.1987368 21.5776456,21.1987368 C21.7656852,21.1987368 21.8759154,21.078104 22.1352803,20.6865764 C22.3946453,20.2950489 22.7707246,19.7299794 23.5315285,19.7299794 C24.2923324,19.7299794 24.6576048,20.2844671 24.9256153,20.6865764 C25.1936258,21.0886858 25.293049,21.194504 25.4746045,21.1987368 C25.663285,21.192786 25.8391265,21.2919943 25.9284932,21.4548169 Z M25.9284932,24.2949788 C26.0109492,24.4475142 26.0059622,24.6311601 25.9153442,24.7791893 C25.8247262,24.9272184 25.6616661,25.0180861 25.4854114,25.0187757 C24.7267688,25.0187757 24.3593351,24.4664044 24.0891632,24.0621787 C23.8189914,23.657953 23.7195681,23.5500183 23.5315285,23.5500183 C23.3434889,23.5500183 23.2332588,23.6706512 22.9738938,24.0621787 C22.7145288,24.4537062 22.3384496,25.0187757 21.5776456,25.0187757 C20.8168417,25.0187757 20.4450852,24.4685208 20.1813975,24.0727605 C19.9177097,23.6770003 19.8118024,23.5606002 19.6237628,23.5606002 C19.4357232,23.5606002 19.325493,23.681233 19.0661281,24.0727605 C18.8067631,24.464288 18.4306839,25.0293575 17.6720413,25.0293575 C16.9133987,25.0293575 16.5546105,24.4685208 16.2779545,24.0727605 C16.1835502,23.9078386 16.0640221,23.7579716 15.923489,23.6283239 C15.80066,23.5444192 15.725379,23.4087553 15.7203198,23.2621927 L15.7203198,23.194469 C15.7179466,23.0183152 15.8164126,22.855664 15.9753757,22.7731546 C16.1343388,22.6906453 16.327083,22.7021447 16.4746396,22.8029415 C16.7367281,23.0023765 16.9569151,23.2495999 17.1230521,23.5309711 C17.382417,23.9203822 17.4926472,24.0431314 17.6806868,24.0431314 C17.8687264,24.0431314 17.9789565,23.9224986 18.2383215,23.5309711 C18.4976865,23.1394435 18.8737657,22.5743741 19.6324083,22.5743741 C20.3910508,22.5743741 20.7584846,23.1267453 21.026495,23.5309711 C21.2945055,23.9351968 21.3960901,24.0431314 21.5841298,24.0431314 C21.7721694,24.0431314 21.8823995,23.9224986 22.1417645,23.5309711 C22.4011295,23.1394435 22.7772087,22.5743741 23.5380126,22.5743741 C24.2988166,22.5743741 24.6640889,23.1267453 24.9342608,23.5309711 C25.2044326,23.9351968 25.3016945,24.0388987 25.48325,24.0431314 C25.6683857,24.0399853 25.8399646,24.1378528 25.9284932,24.2970952 L25.9284932,24.2949788 Z M25.9284932,27.1351407 C26.0109492,27.2876761 26.0059622,27.471322 25.9153442,27.6193511 C25.8247262,27.7673803 25.6616661,27.858248 25.4854114,27.8589376 C24.7267688,27.8589376 24.3593351,27.3065663 24.0891632,26.9023406 C23.8189914,26.4981149 23.7174067,26.4007621 23.5293671,26.4007621 C23.3413275,26.4007621 23.2310974,26.5213949 22.9717324,26.9129224 C22.7123674,27.3044499 22.3362882,27.8695194 21.5754843,27.8695194 C20.8146803,27.8695194 20.4450852,27.3086827 20.1813975,26.9044569 C19.9177097,26.5002312 19.8118024,26.4007621 19.6259241,26.4007621 C19.4400459,26.4007621 19.3276544,26.5213949 19.0682894,26.9129224 C18.8089244,27.3044499 18.4328452,27.8695194 17.6742027,27.8695194 C16.9155601,27.8695194 16.5546105,27.3086827 16.2779545,26.9044569 C16.1835502,26.739535 16.0640221,26.589668 15.923489,26.4600203 C15.80066,26.3761157 15.725379,26.2404517 15.7203198,26.0938891 L15.7203198,26.0261655 C15.7209433,25.851878 15.8200469,25.6922494 15.9777738,25.6114778 C16.1355007,25.5307063 16.3259308,25.5420655 16.4724782,25.640987 C16.7345667,25.8404221 16.9547538,26.0876454 17.1208907,26.3690166 C17.3802557,26.7584278 17.4904858,26.8811769 17.6785254,26.8811769 C17.866565,26.8811769 17.9767951,26.7605441 18.2361601,26.3690166 C18.4955251,25.9774891 18.8716043,25.4124196 19.6302469,25.4124196 C20.3888895,25.4124196 20.7563232,25.9647909 21.0243337,26.3690166 C21.2923442,26.7732423 21.3939288,26.8811769 21.5819684,26.8811769 C21.770008,26.8811769 21.8802381,26.7605441 22.1396031,26.3690166 C22.3989681,25.9774891 22.7750473,25.4124196 23.5358513,25.4124196 C24.2966552,25.4124196 24.6619275,25.9647909 24.9320994,26.3690166 C25.2022713,26.7732423 25.2995331,26.8769442 25.4810886,26.8811769 C25.6674614,26.8776491 25.8401871,26.9765118 25.9284932,27.1372571 L25.9284932,27.1351407 Z" id="Shape" fill="#00A8A2" fill-rule="nonzero"></path>
            </g>
        </g>
    </g>
</svg>