<?xml version="1.0" encoding="UTF-8"?>
<svg width="23px" height="23px" viewBox="0 0 23 23" version="1.1" xmlns="http://www.w3.org/2000/svg" xmlns:xlink="http://www.w3.org/1999/xlink">
    <!-- Generator: Sketch 54.1 (76490) - https://sketchapp.com -->
    <title>Group 22</title>
    <desc>Created with Sketch.</desc>
    <g id="New-UI" stroke="none" stroke-width="1" fill="none" fill-rule="evenodd">
        <g id="11.-Income-&amp;-Expenses-1.2" transform="translate(-768.000000, -428.000000)" fill-rule="nonzero">
            <g id="Group-22" transform="translate(768.000000, 428.000000)">
                <path d="M19.6262474,3.36830208 C17.4541849,1.196 14.5660078,0 11.4945495,0 C8.42261198,0 5.53491406,1.196 3.36285156,3.36830208 C-1.12095052,7.85210417 -1.12095052,15.1481354 3.36285156,19.6319375 C5.53491406,21.804 8.42261198,23 11.4945495,23 C14.5660078,23 17.4541849,21.804 19.6262474,19.6316979 C24.1100495,15.1481354 24.1100495,7.85186458 19.6262474,3.36830208 Z" id="Path" fill="#00A8A2"></path>
                <g id="Group-21" transform="translate(5.510417, 5.750000)">
                    <g id="Group-14">
                        <path d="M10.5166901,0.175375 L0.175554687,10.5162708 C-0.0585182292,10.7503438 -0.0585182292,11.1293646 0.175554687,11.3631979 C0.292471354,11.4801146 0.446044271,11.5385729 0.599138021,11.5385729 C0.752710937,11.5385729 0.905565104,11.4801146 1.02272135,11.3631979 L11.3636172,1.02230208 C11.5976901,0.788229167 11.5976901,0.409208333 11.3636172,0.175375 C11.1295443,-0.0584583333 10.7505234,-0.0584583333 10.5166901,0.175375 Z" id="Path" fill="#FFFFFF"></path>
                        <path d="M9.2976901,9.29727083 C9.07727344,9.5176875 8.69226302,9.51792708 8.47184635,9.29703125 C8.36139844,9.18682292 8.30054427,9.0404375 8.30054427,8.88422917 C8.30054427,8.72802083 8.36139844,8.58163542 8.47184635,8.4711875 C8.58229427,8.36073958 8.72867969,8.300125 8.88440885,8.300125 C9.04061719,8.300125 9.18724219,8.36073958 9.2976901,8.4711875 C9.52505469,8.69903125 9.52505469,9.06942708 9.2976901,9.29727083 Z" id="Path" fill="#000000"></path>
                        <path d="M2.65476302,4.43660417 C3.13105469,4.43660417 3.57835677,4.25140625 3.91497135,3.91455208 C4.25134635,3.57817708 4.43678385,3.13063542 4.43678385,2.65458333 C4.43678385,2.17853125 4.25158594,1.73122917 3.91497135,1.39461458 C3.57835677,1.058 3.1308151,0.8725625 2.65476302,0.8725625 C2.17871094,0.8725625 1.73140885,1.058 1.39503385,1.39461458 C1.05865885,1.73122917 0.872742187,2.17853125 0.873221354,2.65458333 C0.873221354,3.13039583 1.05841927,3.5779375 1.39455469,3.91455208 C1.73164844,4.25116667 2.17895052,4.43660417 2.65476302,4.43660417 Z" id="Path" fill="#FFFFFF"></path>
                    </g>
                    <path d="M8.88440885,7.10220833 C8.40859635,7.10220833 7.96105469,7.28740625 7.62467969,7.62402083 C7.28782552,7.96063542 7.10238802,8.4079375 7.10238802,8.88422917 C7.10238802,9.36052083 7.28758594,9.80758333 7.62467969,10.1441979 C7.96105469,10.4805729 8.40835677,10.66625 8.88440885,10.66625 C9.36046094,10.66625 9.8080026,10.4808125 10.1446172,10.1441979 C10.8394089,9.44964583 10.8394089,8.31905208 10.1446172,7.62426042 C9.8080026,7.28764583 9.36070052,7.10220833 8.88440885,7.10220833 Z" id="Path" fill="#FFFFFF"></path>
                    <path d="M2.24196094,2.24154167 C2.35192969,2.13133333 2.49879427,2.07047917 2.65476302,2.07047917 C2.81097135,2.07047917 2.95759635,2.13133333 3.06804427,2.24154167 C3.17801302,2.35175 3.23886719,2.498375 3.23886719,2.65458333 C3.23886719,2.81079167 3.17801302,2.95741667 3.0675651,3.067625 C2.84714844,3.28852083 2.46309635,3.28852083 2.24220052,3.067625 C2.1317526,2.95741667 2.0713776,2.81079167 2.0713776,2.65458333 C2.07089844,2.49861458 2.13151302,2.35175 2.24196094,2.24154167 Z" id="Path" fill="#FFFFFF"></path>
                </g>
            </g>
        </g>
    </g>
</svg>