<?xml version="1.0" encoding="UTF-8"?>
<svg width="837px" height="668px" viewBox="0 0 837 668" version="1.1" xmlns="http://www.w3.org/2000/svg" xmlns:xlink="http://www.w3.org/1999/xlink">
    <!-- Generator: Sketch 55.1 (78136) - https://sketchapp.com -->
    <title>9th Stay updated</title>
    <desc>Created with Sketch.</desc>
    <defs>
        <path d="M786.076268,349.387355 C783.435268,371.497355 798.116268,391.158355 803.376268,412.198355 C809.185268,435.467355 803.176268,458.227355 792.265268,479.277355 C783.457268,496.273355 768.170268,506.211355 755.868268,520.136355 C743.346268,534.311355 752.943268,545.810355 750.183268,562.275355 C748.691268,571.176355 745.213268,579.601355 740.533268,587.284355 C729.650268,605.151355 712.448268,618.642355 694.608268,629.062355 C645.522268,657.732355 585.646268,667.568355 529.505268,667.568355 C501.410268,667.568355 473.495268,663.212355 446.285268,656.411355 C421.241268,650.153355 397.002268,638.411355 371.784268,633.569355 C355.533268,630.449355 342.892268,640.551355 327.962268,644.866355 C312.905268,649.218355 297.309268,651.568355 281.626268,651.568355 C239.833268,651.568355 198.555268,635.447355 168.792268,605.913355 C153.882268,591.118355 142.141268,573.245355 134.524268,553.667355 C130.967268,544.527355 130.103268,534.191355 123.582268,526.788355 C116.387268,518.621355 104.920268,514.738355 96.5002677,508.034355 C85.1652677,499.011355 74.3632677,489.290355 64.4892677,478.678355 C44.1252677,456.791355 28.0472677,431.171355 18.5712677,402.742355 C0.0962676772,351.855355 -5.20773232,294.433355 5.43526768,241.217355 C23.4552677,147.427355 100.605268,56.6073554 201.966268,56.5873554 C216.886268,56.5873554 232.296268,63.5173554 247.055268,61.9173554 C265.236268,59.9473554 276.085268,45.4173554 289.125268,33.9573554 C316.555268,9.84735537 354.066268,-2.89264463 390.506268,0.557355366 C411.375268,2.53735537 431.206268,10.7373554 448.935268,21.6473554 C463.086268,30.3573554 476.735268,49.2173554 492.475268,53.8573554 C504.836268,57.5073554 514.235268,50.0273554 525.695268,44.6773554 C552.456268,32.1773554 583.305268,26.5473554 612.605268,24.9373554 C651.475268,22.8073554 690.905268,30.7173554 725.815268,47.9973554 C789.695268,79.6273554 836.046268,143.367355 836.046268,215.988355 C836.046268,243.517355 827.935268,269.707355 815.216268,293.927355 C806.815268,309.937355 790.985268,326.278355 786.805268,345.087355 C786.485268,346.528355 786.246268,347.967355 786.076268,349.387355" id="path-1"></path>
    </defs>
    <g id="Page-1" stroke="none" stroke-width="1" fill="none" fill-rule="evenodd">
        <g id="1st"></g>
        <g id="Artboard" transform="translate(-269.000000, -4252.000000)">
            <g id="9th-Stay-updated" transform="translate(269.130732, 4252.297245)">
                <mask id="mask-2" fill="white">
                    <use xlink:href="#path-1"></use>
                </mask>
                <use id="Mask" fill="#FDF1DB" opacity="0.346865699" xlink:href="#path-1"></use>
                <g mask="url(#mask-2)">
                    <g transform="translate(88.869268, 105.702755)">
                        <g id="Group-6" transform="translate(0.000000, 405.800000)">
                            <polygon id="Fill-3" fill="#F9AE25" points="0.738 24.907 689.51 24.907 689.51 0.311 0.738 0.311"></polygon>
                            <polygon id="Fill-5" fill="#FDF1DB" opacity="0.346865699" points="0.738 161.065 689.51 161.065 689.51 24.907 0.738 24.907"></polygon>
                        </g>
                        <g id="Group-63" transform="translate(78.000000, 0.800000)">
                            <polygon id="Fill-7" fill="#FDF1DB" points="168.43 196.413 275.607 196.413 275.607 7.439 168.43 7.439"></polygon>
                            <polygon id="Fill-9" fill="#FDF1DB" points="266.933 196.413 374.11 196.413 374.11 7.439 266.933 7.439"></polygon>
                            <polygon id="Fill-10" fill="#FFC967" points="266.934 200.521 275.974 200.521 275.974 7.438 266.934 7.438"></polygon>
                            <polygon id="Fill-11" fill="#FFC967" points="159.39 7.438 383.15 7.438 383.15 0.453 159.39 0.453"></polygon>
                            <polygon id="Fill-12" fill="#FFC967" points="159.573 203.398 383.334 203.398 383.334 196.413 159.573 196.413"></polygon>
                            <polygon id="Fill-13" fill="#FFC967" points="159.39 203.398 168.43 203.398 168.43 7.439 159.39 7.439"></polygon>
                            <polygon id="Fill-14" fill="#FFC967" points="374.11 203.398 383.15 203.398 383.15 7.439 374.11 7.439"></polygon>
                            <polygon id="Fill-15" fill-opacity="0.387838724" fill="#FFC967" points="266.9336 45.8118 168.4306 112.4518 168.4306 147.5568 266.9336 81.7768"></polygon>
                            <polygon id="Fill-16" fill-opacity="0.387838724" fill="#FFC967" points="374.1621 53.7225 275.9741 120.3635 275.9741 155.4675 374.1621 89.6875"></polygon>
                            <polygon id="Fill-17" fill="#84253E" points="517.5107 181.3113 404.1697 181.3113 443.6727 112.8863 478.0057 112.8863"></polygon>
                            <path d="M517.5107,181.3104 C517.5107,184.6234 492.1387,187.3074 460.8397,187.3074 C429.5407,187.3074 404.1687,184.6234 404.1687,181.3104 C404.1687,177.9984 429.5407,175.3144 460.8397,175.3144 C492.1387,175.3144 517.5107,177.9984 517.5107,181.3104" id="Fill-18" fill="#EF305E"></path>
                            <polygon id="Fill-19" fill="#84253E" points="458.341 320.902 463.339 320.902 463.339 175.314 458.341 175.314"></polygon>
                            <path d="M549.6943,470.3973 C549.6943,482.0763 426.8213,491.5433 275.2513,491.5433 C123.6793,491.5433 0.8073,482.0763 0.8073,470.3973 C0.8073,458.7173 123.6793,449.2513 275.2513,449.2513 C426.8213,449.2513 549.6943,458.7173 549.6943,470.3973" id="Fill-20" fill="#FDF1DB"></path>
                            <polygon id="Fill-21" fill="#FFC967" points="47.5967 324.9725 99.2637 295.8595 99.2637 337.0775"></polygon>
                            <path d="M394.8262,215.4217 L148.1392,215.4217 C121.1462,215.4217 99.2642,237.3047 99.2642,264.2967 L99.2642,370.1717 L443.7012,370.1717 L443.7012,264.2967 C443.7012,237.3047 421.8192,215.4217 394.8262,215.4217" id="Fill-22" fill="#FFC967"></path>
                            <path d="M514.4209,370.1736 C514.4209,370.1736 503.8519,443.2526 484.5459,464.3976 L56.1659,464.3976 C36.8599,443.2526 26.2889,370.1736 26.2889,370.1736 L514.4209,370.1736 Z" id="Fill-23" fill="#FFC967"></path>
                            <polygon id="Fill-24" fill="#F9AE25" points="99.264 398.21 443.701 398.21 443.701 370.172 99.264 370.172"></polygon>
                            <path d="M112.729,366.035 C112.729,391.167 92.356,411.539 67.225,411.539 C42.094,411.539 21.721,391.167 21.721,366.035 C21.721,340.904 42.094,320.531 67.225,320.531 C92.356,320.531 112.729,340.904 112.729,366.035" id="Fill-25" fill="#FFC967"></path>
                            <path d="M112.729,366.035 C112.729,391.167 92.356,411.539 67.225,411.539 C42.094,411.539 21.721,391.167 21.721,366.035 C21.721,340.904 42.094,320.531 67.225,320.531 C92.356,320.531 112.729,340.904 112.729,366.035 Z" id="Stroke-26" stroke="#FFC967"></path>
                            <polygon id="Fill-27" fill="#FFC967" points="99.2637 295.8592 99.4667 333.9252 95.3017 330.2242 97.7797 296.6952"></polygon>
                            <path d="M85.3804,365.782 C85.3804,375.809 77.2524,383.937 67.2254,383.937 C57.1974,383.937 49.0694,375.809 49.0694,365.782 C49.0694,355.755 57.1974,347.627 67.2254,347.627 C77.2524,347.627 85.3804,355.755 85.3804,365.782" id="Fill-28" fill="#F9AE25"></path>
                            <path d="M160.7363,305.1795 C160.7363,310.5335 156.3963,314.8745 151.0413,314.8745 C145.6873,314.8745 141.3463,310.5335 141.3463,305.1795 C141.3463,299.8255 145.6873,295.4855 151.0413,295.4855 C156.3963,295.4855 160.7363,299.8255 160.7363,305.1795" id="Fill-29" fill="#F9AE25"></path>
                            <path d="M373.6553,306.9149 C373.6553,312.2689 377.9963,316.6089 383.3503,316.6089 C388.7043,316.6089 393.0453,312.2689 393.0453,306.9149 C393.0453,301.5609 388.7043,297.2209 383.3503,297.2209 C377.9963,297.2209 373.6553,301.5609 373.6553,306.9149" id="Fill-30" fill="#F9AE25"></path>
                            <path d="M145.3354,312.5389 C145.3354,312.5389 134.5414,333.7289 138.0654,356.5589" id="Stroke-31" stroke="#F9AE25" stroke-width="2"></path>
                            <path d="M147.9136,297.0037 C147.9136,297.0037 141.4806,282.2887 147.9136,267.1207" id="Stroke-32" stroke="#F9AE25" stroke-width="2"></path>
                            <path d="M152.9673,313.9354 C152.9673,313.9354 158.9423,329.9294 157.1043,345.0974" id="Stroke-33" stroke="#F9AE25" stroke-width="2"></path>
                            <path d="M155.2114,297.4256 C155.2114,297.4256 162.6194,280.9096 163.0794,262.9846" id="Stroke-34" stroke="#F9AE25" stroke-width="2"></path>
                            <path d="M389.0566,314.2733 C389.0566,314.2733 399.8506,335.4633 396.3266,358.2933" id="Stroke-35" stroke="#F9AE25" stroke-width="2"></path>
                            <path d="M386.4785,298.7391 C386.4785,298.7391 392.9115,284.0241 386.4785,268.8561" id="Stroke-36" stroke="#F9AE25" stroke-width="2"></path>
                            <path d="M381.4248,315.6707 C381.4248,315.6707 375.4488,331.6647 377.2878,346.8327" id="Stroke-37" stroke="#F9AE25" stroke-width="2"></path>
                            <path d="M379.1807,299.1609 C379.1807,299.1609 371.7727,282.6449 371.3127,264.7199" id="Stroke-38" stroke="#F9AE25" stroke-width="2"></path>
                            <polygon id="Fill-39" fill="#FFC967" points="495.3682 324.9725 443.7012 295.8595 443.7012 337.0775"></polygon>
                            <path d="M521.9687,366.035 C521.9687,391.167 501.5957,411.539 476.4647,411.539 C451.3327,411.539 430.9607,391.167 430.9607,366.035 C430.9607,340.904 451.3327,320.531 476.4647,320.531 C501.5957,320.531 521.9687,340.904 521.9687,366.035" id="Fill-40" fill="#FFC967"></path>
                            <path d="M521.9687,366.035 C521.9687,391.167 501.5957,411.539 476.4647,411.539 C451.3327,411.539 430.9607,391.167 430.9607,366.035 C430.9607,340.904 451.3327,320.531 476.4647,320.531 C501.5957,320.531 521.9687,340.904 521.9687,366.035 Z" id="Stroke-41" stroke="#FFC967"></path>
                            <path d="M494.6201,366.035 C494.6201,376.062 486.4911,384.191 476.4651,384.191 C466.4371,384.191 458.3081,376.062 458.3081,366.035 C458.3081,356.009 466.4371,347.88 476.4651,347.88 C486.4911,347.88 494.6201,356.009 494.6201,366.035" id="Fill-42" fill="#F9AE25"></path>
                            <polygon id="Fill-43" fill="#FFC967" points="443.7119 295.8592 443.5099 334.6572 447.6749 330.7952 445.1959 296.6952"></polygon>
                            <path d="M252.6665,240.0438 C252.6665,240.0438 257.2155,237.8728 258.6465,233.4028 L267.4235,233.4028 L267.3665,247.2288 L253.4765,248.0608 L252.6665,240.0438 Z" id="Fill-44" fill="#D58071"></path>
                            <path d="M281.585,240.0447 C281.585,240.0447 277.024,237.8727 275.59,233.4027 L266.792,233.4027 L266.85,247.2287 L280.773,248.0607 L281.585,240.0447 Z" id="Fill-45" fill="#D58071"></path>
                            <path d="M242.9229,204.4217 C242.9229,204.4217 233.9719,208.0617 248.4539,218.6907 L246.4619,210.9287 L242.9229,204.4217 Z" id="Fill-46" fill="#D58071"></path>
                            <path d="M290.0449,200.5399 C290.0449,200.5399 295.7819,199.4459 287.6099,214.0419 L290.0449,200.5399 Z" id="Fill-47" fill="#D58071"></path>
                            <path d="M267.0693,236.1619 C244.8113,234.7919 245.153993,197.8119 245.153993,197.8119 L290.6223,186.8179 C290.6223,186.8179 292.5313,234.5159 267.0693,236.1619" id="Fill-48" fill="#D58071"></path>
                            <path d="M246.4614,210.9285 C246.3844,210.1565 245.1364,208.8005 244.7624,208.1215 C243.3614,205.5795 242.1844,202.9095 241.2424,200.1655 C238.9344,193.4365 236.5124,183.1015 241.5724,177.1885 C252.8714,163.9885 272.3574,162.7015 288.3674,165.4745 C294.0094,166.4505 299.3844,171.4485 301.2814,176.7825 C302.3784,179.8665 302.0934,183.3355 300.0404,185.9535 C297.0324,189.7875 293.0414,191.8235 288.2484,192.4505 C273.9164,194.3295 259.5214,195.9875 245.1544,197.8125 C245.1544,197.8125 246.4614,210.9245 246.4614,210.9285" id="Fill-49" fill="#000000"></path>
                            <path d="M267.1504,247.2303 L267.1504,352.0003 L239.7004,352.0003 C223.7594,350.2803 222.6204,280.7703 222.6204,280.7703 L216.8904,296.8393 L195.9204,287.8503 C195.9204,287.8503 202.2994,267.8303 214.0304,255.0003 C225.7704,242.1693 252.6704,240.0403 252.6704,240.0403 C256.7594,247.0003 267.1504,247.2303 267.1504,247.2303" id="Fill-50" fill="#EF305E"></path>
                            <path d="M338.3896,287.8504 L317.4196,296.8394 L311.7006,280.7704 C311.7006,280.7704 310.5496,350.2804 294.6106,351.9994 L267.1606,351.9994 L267.1606,247.2304 C267.1606,247.2304 277.5496,246.9994 281.6506,240.0394 C281.6506,240.0394 308.5496,242.1694 320.2806,254.9994 C332.0096,267.8294 338.3896,287.8504 338.3896,287.8504" id="Fill-51" fill="#EF305E"></path>
                            <path d="M197.3872,288.4744 C196.8882,289.7174 194.5052,297.8904 193.5252,301.7944 C191.3222,310.5694 189.4212,319.4904 191.2402,328.2034 C191.7042,330.4284 192.5102,332.7894 194.6212,333.9784 C197.6002,335.6544 201.7082,334.2844 205.0202,332.7274 C216.7202,327.2264 227.8542,319.8674 238.0722,312.3084 C238.7482,311.8084 256.4452,298.0234 255.8402,297.2274 C253.9742,294.8574 253.3172,293.8214 251.3712,291.5054 C243.9022,295.3334 229.4902,303.4414 222.2302,307.5964 C219.2032,309.3284 216.1792,311.0644 213.1552,312.8004 C212.7272,313.0454 211.2812,313.6714 210.0842,314.3034 C209.5232,314.5984 208.9042,314.0414 209.1332,313.4504 C211.3932,307.6204 214.1032,302.5524 216.2282,296.5574 C216.2282,296.5574 197.5812,288.5744 197.3872,288.4744" id="Fill-52" fill="#D58071"></path>
                            <path d="M353.3896,408.3396 C353.3896,408.3396 340.7306,454.6996 312.4906,499.7996 C312.4906,499.7996 311.6396,501.7496 311.2806,502.5206 C306.7596,502.1196 302.8206,501.2196 298.2996,500.6696 C301.8896,459.7896 324.5996,401.1696 324.5996,401.1696 C324.5996,401.1696 298.4696,396.4406 276.4106,378.1596 C276.3096,378.0696 276.2096,377.9896 276.1106,377.9096 C275.2196,377.1696 274.3396,376.4096 273.4696,375.6196 C272.3496,374.6106 271.3396,373.6406 270.4196,372.6996 C268.2096,371.6906 266.1606,371.9006 264.4006,372.6406 C263.4806,373.5896 262.4506,374.5896 261.2996,375.6196 C260.2596,376.5606 259.2096,377.4596 258.1606,378.3196 C258.0496,378.4096 257.9506,378.4996 257.8396,378.5896 C235.8796,396.5206 210.1696,401.1696 210.1696,401.1696 C210.1696,401.1696 232.8896,459.7896 236.4696,500.6696 C231.9506,501.2196 228.0196,502.1196 223.4906,502.5206 C223.1396,501.7496 222.2806,499.7996 222.2806,499.7996 C194.0496,454.6996 181.3796,408.3396 181.3796,408.3396 C169.2996,380.9406 238.3796,351.0606 238.3796,351.0606 L296.4006,351.0606 C296.4006,351.0606 365.4806,380.9406 353.3896,408.3396" id="Fill-53" fill="#30302F"></path>
                            <path d="M336.9248,288.4744 C337.4238,289.7174 339.8078,297.8904 340.7868,301.7944 C342.9898,310.5694 344.8908,319.4904 343.0718,328.2034 C342.6088,330.4284 341.8018,332.7894 339.6908,333.9784 C336.7118,335.6544 332.6038,334.2844 329.2908,332.7274 C317.5918,327.2264 306.4578,319.8674 296.2398,312.3084 C295.5648,311.8084 277.8668,298.0234 278.4718,297.2274 C280.3378,294.8574 280.9948,293.8214 282.9408,291.5054 C290.4098,295.3334 304.8208,303.4414 312.0818,307.5964 C315.1088,309.3284 318.1328,311.0644 321.1568,312.8004 C321.5848,313.0454 323.0298,313.6714 324.2278,314.3034 C324.7878,314.5984 325.4078,314.0414 325.1788,313.4504 C322.9188,307.6204 320.2088,302.5524 318.0838,296.5574 C318.0838,296.5574 336.7308,288.5744 336.9248,288.4744" id="Fill-54" fill="#D58071"></path>
                            <polygon id="Fill-55" fill="#353535" points="258.794 301.44 275.157 301.44 275.157 271.325 258.794 271.325"></polygon>
                            <path d="M283.4072,291.7449 C280.9512,288.9049 278.3452,284.1139 274.6202,283.0759 C273.4762,282.7579 272.2622,282.5879 271.0992,282.8319 C268.6762,283.3419 266.8562,285.7759 266.9092,288.2539 C266.9932,292.1279 270.4692,293.4379 273.3622,294.9689 C275.5072,296.1029 277.1602,297.2139 279.3042,298.3489 C279.3042,298.3489 283.3712,291.6769 283.4072,291.7449" id="Fill-56" fill="#D58071"></path>
                            <path d="M360.5986,510.0467 C360.5986,515.5287 318.8496,519.9747 267.3496,519.9747 C215.8496,519.9747 174.1016,515.5287 174.1016,510.0467 C174.1016,504.5647 215.8496,500.1187 267.3496,500.1187 C318.8496,500.1187 360.5986,504.5647 360.5986,510.0467" id="Fill-57" fill="#FDF1DB"></path>
                            <path d="M250.9053,291.7449 C253.3613,288.9049 255.9673,284.1139 259.6923,283.0759 C260.8363,282.7579 262.0503,282.5879 263.2123,282.8319 C265.6363,283.3419 267.4563,285.7759 267.4023,288.2539 C267.3183,292.1279 263.8423,293.4379 260.9493,294.9689 C258.8043,296.1029 257.1523,297.2139 255.0073,298.3489 C255.0073,298.3489 250.9403,291.6769 250.9053,291.7449" id="Fill-58" fill="#D58071"></path>
                            <path d="M222.6797,499.6941 L217.8437,504.0311 C217.8437,504.0311 202.8627,501.0401 198.9567,508.8121 C195.0517,516.5851 238.5977,506.8661 238.5977,506.8661 L236.2737,497.6471 C236.2737,497.6471 229.3977,502.4051 222.6797,499.6941" id="Fill-59" fill="#000000"></path>
                            <path d="M312.0928,499.6941 L316.9288,504.0311 C316.9288,504.0311 331.9098,501.0401 335.8158,508.8121 C339.7208,516.5851 296.1748,506.8661 296.1748,506.8661 L298.4988,497.6471 C298.4988,497.6471 305.3748,502.4051 312.0928,499.6941" id="Fill-60" fill="#000000"></path>
                            <path d="M276.4102,378.16 L276.4102,378.33 C276.3092,378.19 276.2202,378.05 276.1102,377.91 C276.2102,377.99 276.3092,378.07 276.4102,378.16" id="Fill-61" fill="#30302F"></path>
                            <path d="M290.0449,200.5399 C290.0449,200.5399 293.4479,193.5549 293.2729,185.5049 L289.8069,185.5049 L290.0449,200.5399 Z" id="Fill-62" fill="#000000"></path>
                        </g>
                    </g>
                </g>
            </g>
        </g>
    </g>
</svg>