<?xml version="1.0" encoding="UTF-8"?>
<svg width="783px" height="619px" viewBox="0 0 783 619" version="1.1" xmlns="http://www.w3.org/2000/svg" xmlns:xlink="http://www.w3.org/1999/xlink">
    <!-- Generator: Sketch 55.1 (78136) - https://sketchapp.com -->
    <title>Group 5</title>
    <desc>Created with Sketch.</desc>
    <defs>
        <path d="M453.385,1.564 C414.619,6.16 377.338,23.306 348.405,49.476 L348.405,49.476 C337.005,59.789 326.324,81.792 312.754,88.229 L312.754,88.229 C304.683,92.057 295.829,85.423 288.979,79.689 L288.979,79.689 C222.858,24.343 118.809,20.929 49.339,72.405 L49.339,72.405 C24.079,91.123 -0.018,122.285 0.961,155.188 L0.961,155.188 C1.556,175.197 11.69,193.037 23.584,208.537 L23.584,208.537 C32.872,220.642 55.01,236.575 57.318,252.187 L57.318,252.187 C59.519,267.099 40.604,280.023 33.717,291.807 L33.717,291.807 C26.407,304.312 21.911,318.423 20.366,332.813 L20.366,332.813 C17.27,361.643 26.303,391.742 47.335,412.176 L47.335,412.176 C51.522,416.245 56.343,420.385 57.418,426.124 L57.418,426.124 C59.54,437.453 54.856,449.644 55.641,461.283 L55.641,461.283 C56.413,472.741 59.378,484.014 64.132,494.457 L64.132,494.457 C73.454,514.937 89.715,532.214 109.81,542.406 L109.81,542.406 C147.496,561.521 195.065,556.338 230.585,533.448 L230.585,533.448 C237.447,529.026 244.416,523.821 252.565,523.351 L252.565,523.351 C268.754,522.417 284.016,532.089 299.305,536.08 L299.305,536.08 C315.842,540.397 333.061,542.635 350.121,543.333 L350.121,543.333 C384.378,544.734 418.928,539.306 451.046,527.282 L451.046,527.282 C462.62,522.949 474.176,517.719 486.518,517.085 L486.518,517.085 C502.363,516.27 517.489,523.1 533.076,526.061 L533.076,526.061 C579.018,534.789 629.105,504.792 643.096,460.172 L643.096,460.172 C646.466,449.421 648.258,437.501 655.98,429.297 L655.98,429.297 C663.041,421.793 673.6,418.994 683.43,415.908 L683.43,415.908 C709.531,407.713 734.731,394.906 753.686,375.179 L753.686,375.179 C770.696,357.476 782.203,333.698 782.664,309.308 L782.664,309.308 C782.717,306.52 782.625,303.725 782.381,300.93 L782.381,300.93 C780.021,273.937 763.716,249.445 742.267,232.888 L742.267,232.888 C720.817,216.333 694.616,206.97 668.146,201.177 L668.146,201.177 C664.142,200.301 659.937,199.414 656.807,196.767 L656.807,196.767 C649.904,190.929 651.49,180.155 652.775,171.205 L652.775,171.205 C667.167,70.921 564.952,0.404 473.366,0.404 L473.366,0.404 C466.633,0.404 459.953,0.785 453.385,1.564" id="path-1"></path>
    </defs>
    <g id="Page-1" stroke="none" stroke-width="1" fill="none" fill-rule="evenodd">
        <g id="1st"></g>
        <g id="Artboard" transform="translate(-1398.000000, -3275.000000)">
            <g id="Group-5" transform="translate(1398.000000, 3275.000000)">
                <path d="M782.6641,309.3084 C782.2031,333.6984 770.6961,357.4764 753.6861,375.1794 C734.7311,394.9064 709.5311,407.7134 683.4301,415.9084 C673.6001,418.9944 663.0411,421.7924 655.9801,429.2964 C648.2591,437.5014 646.4671,449.4204 643.0961,460.1714 C629.1051,504.7914 579.0181,534.7884 533.0761,526.0604 C517.4891,523.0994 502.3631,516.2704 486.5181,517.0844 C474.1761,517.7194 462.6201,522.9494 451.0461,527.2824 C418.9281,539.3054 384.3781,544.7344 350.1211,543.3324 C333.0611,542.6344 315.8431,540.3964 299.3051,536.0794 C284.0161,532.0884 268.7551,522.4164 252.5651,523.3504 C244.4151,523.8214 237.4471,529.0264 230.5851,533.4484 C195.0651,556.3374 147.4961,561.5204 109.8101,542.4064 C89.7151,532.2134 73.4551,514.9364 64.1321,494.4564 C59.3781,484.0144 56.4131,472.7414 55.6411,461.2834 C54.8561,449.6444 59.5401,437.4534 57.4181,426.1234 C56.3431,420.3854 51.5221,416.2454 47.3351,412.1764 C26.3031,391.7424 17.2701,361.6434 20.3661,332.8124 C21.9111,318.4224 26.4071,304.3124 33.7171,291.8064 C40.6041,280.0224 59.5181,267.0994 57.3181,252.1864 C55.0101,236.5744 32.8721,220.6414 23.5841,208.5374 C11.6901,193.0374 1.5571,175.1974 0.9611,155.1874 C-0.0179,122.2844 24.0791,91.1224 49.3391,72.4054 C118.8091,20.9294 222.8581,24.3424 288.9791,79.6894 C295.8301,85.4234 304.6841,92.0574 312.7541,88.2284 C326.3241,81.7914 337.0051,59.7884 348.4051,49.4764 C377.3371,23.3064 414.6191,6.1604 453.3851,1.5644 C549.2871,-9.8066 668.2251,63.5494 652.7741,171.2054 C651.4901,180.1544 649.9031,190.9284 656.8071,196.7664 C659.9361,199.4134 664.1421,200.3014 668.1451,201.1774 C694.6151,206.9704 720.8171,216.3324 742.2671,232.8884 C763.7161,249.4444 780.0211,273.9374 782.3811,300.9304 C782.6251,303.7254 782.7171,306.5204 782.6641,309.3084" id="Fill-1" fill="#FDF1DB"></path>
                <path d="M540.8525,597.7 C540.8525,609.179 472.2845,618.483 387.6995,618.483 C303.1155,618.483 234.5465,609.179 234.5465,597.7 C234.5465,586.221 303.1155,576.917 387.6995,576.917 C472.2845,576.917 540.8525,586.221 540.8525,597.7" id="Fill-3" fill="#FDF1DB" opacity="0.50797526"></path>
                <polygon id="Fill-5" fill="#FBFBFB" points="100.105 504.28 370.398 504.28 370.398 111.2 100.105 111.2"></polygon>
                <path d="M423.1846,443.5565 L615.1846,443.5565 C625.6776,443.5565 634.1846,435.0495 634.1846,424.5565 L634.1846,319.8895 C634.1846,309.3965 625.6776,300.8895 615.1846,300.8895 L423.1846,300.8895 C412.6916,300.8895 404.1846,309.3965 404.1846,319.8895 L404.1846,424.5565 C404.1846,435.0495 412.6916,443.5565 423.1846,443.5565" id="Fill-7" fill="#84243F"></path>
                <polygon id="Fill-8" fill="#EC335E" points="404.185 350.889 634.185 350.889 634.185 326.222 404.185 326.222"></polygon>
                <polygon id="Fill-9" fill="#EC335E" points="426.852 377.556 611.518 377.556 611.518 366.889 426.852 366.889"></polygon>
                <path d="M574.5176,406.8895 C574.5176,417.1075 582.8006,425.3895 593.0176,425.3895 C603.2356,425.3895 611.5176,417.1075 611.5176,406.8895 C611.5176,396.6725 603.2356,388.3895 593.0176,388.3895 C582.8006,388.3895 574.5176,396.6725 574.5176,406.8895" id="Fill-10" fill="#EC335E"></path>
                <path d="M469.1865,284.5779 C469.1865,303.0109 456.7625,317.9529 441.4365,317.9529 C426.1105,317.9529 413.6865,303.0109 413.6865,284.5779 C413.6865,266.1449 426.1105,251.2029 441.4365,251.2029 C456.7625,251.2029 469.1865,266.1449 469.1865,284.5779" id="Fill-11" fill="#F5AC24"></path>
                <path d="M466.4561,284.5779 C466.4561,300.5589 456.4351,313.5139 444.0711,313.5139 C431.7091,313.5139 421.6861,300.5589 421.6861,284.5779 C421.6861,268.5969 431.7091,255.6419 444.0711,255.6419 C456.4351,255.6419 466.4561,268.5969 466.4561,284.5779" id="Fill-12" fill="#FFC969"></path>
                <path d="M452.8359,254.1702 C449.3599,252.2712 445.5059,251.2032 441.4369,251.2032 C431.7739,251.2032 423.2849,257.1572 418.3169,266.1662 C419.3609,266.2412 420.3929,266.4172 421.4139,266.6522 C426.3949,259.4752 434.9339,254.6282 443.7059,254.6282 C446.3479,254.6282 448.8559,255.0342 451.2179,255.7432 C451.7349,255.1982 452.2749,254.6732 452.8359,254.1702" id="Fill-13" fill="#F5AC24"></path>
                <path d="M482.7061,140.4578 C478.5481,140.5768 474.4721,141.2908 470.6131,142.5408 C466.7681,143.8168 463.1601,145.7298 460.1381,148.3448 C458.5971,149.6178 457.2381,151.1018 456.0381,152.7048 C455.4001,153.4798 454.8811,154.3428 454.3221,155.1798 L453.5801,156.4978 C453.3161,156.9298 453.0791,157.3758 452.8701,157.8378 C451.0771,161.4758 449.8651,165.4268 448.9561,169.4938 C449.0381,165.3268 449.8421,161.1318 451.4481,157.1938 C453.0241,153.2508 455.5681,149.6278 458.8371,146.8268 C462.1201,144.0378 466.0571,142.0698 470.1791,141.0478 C474.2941,140.0258 478.5881,139.7478 482.7061,140.4578" id="Fill-14" fill="#CC6D60"></path>
                <path d="M456.6299,287.4857 C456.6299,287.4857 448.2969,281.6527 461.2969,266.6527 C461.2969,266.6527 469.2969,267.8187 471.2969,270.6527 C471.2969,270.6527 462.4629,283.3187 456.6299,287.4857" id="Fill-15" fill="#8DC541"></path>
                <path d="M328.2646,209.4559 C328.4076,209.5319 328.5706,209.6019 328.7536,209.6639 C332.6436,211.0029 336.9856,209.8079 340.2076,207.4209 C340.8796,206.9229 345.6626,203.5599 345.4976,202.6119 C345.4976,202.6119 344.6896,198.1699 340.7476,197.6729 C337.7736,199.1209 334.8346,200.7259 332.1186,202.6209 C330.6656,203.6349 325.2816,207.8739 328.2646,209.4559" id="Fill-16" fill="#8DC541"></path>
                <polygon id="Stroke-17" stroke="#DADADA" points="113 228.493 189 228.493 189 129.2 113 129.2"></polygon>
                <path d="M113,369.1004 L355,369.1004" id="Stroke-18" stroke="#DADADA"></path>
                <path d="M113,353.5779 L355,353.5779" id="Stroke-19" stroke="#DADADA"></path>
                <path d="M113,338.0555 L355,338.0555" id="Stroke-20" stroke="#DADADA"></path>
                <path d="M113,322.533 L355,322.533" id="Stroke-21" stroke="#DADADA"></path>
                <path d="M113,307.0115 L355,307.0115" id="Stroke-22" stroke="#DADADA"></path>
                <path d="M113,446.7108 L355,446.7108" id="Stroke-23" stroke="#DADADA"></path>
                <path d="M113,431.1893 L355,431.1893" id="Stroke-24" stroke="#DADADA"></path>
                <path d="M113,415.6668 L355,415.6668" id="Stroke-25" stroke="#DADADA"></path>
                <path d="M113,400.1443 L355,400.1443" id="Stroke-26" stroke="#DADADA"></path>
                <path d="M113,384.6219 L355,384.6219" id="Stroke-27" stroke="#DADADA"></path>
                <path d="M113,291.4891 L355,291.4891" id="Stroke-28" stroke="#DADADA"></path>
                <path d="M113,275.9666 L355,275.9666" id="Stroke-29" stroke="#DADADA"></path>
                <path d="M113,260.4446 L355,260.4446" id="Stroke-30" stroke="#DADADA"></path>
                <path d="M113,487.2 L126,487.2" id="Stroke-31" stroke="#DADADA"></path>
                <path d="M130.8335,487.2 L143.8335,487.2" id="Stroke-32" stroke="#DADADA"></path>
                <path d="M148.6665,487.2 L161.6665,487.2" id="Stroke-33" stroke="#DADADA"></path>
                <path d="M166.5,487.2 L179.5,487.2" id="Stroke-34" stroke="#DADADA"></path>
                <path d="M184.3335,487.2 L197.3335,487.2" id="Stroke-35" stroke="#DADADA"></path>
                <path d="M202.1665,487.2 L215.1665,487.2" id="Stroke-36" stroke="#DADADA"></path>
                <path d="M220,487.2 L233,487.2" id="Stroke-37" stroke="#DADADA"></path>
                <path d="M289.0625,529.118 C289.0625,529.118 316.3725,561.323 311.5585,592.214 C311.5585,592.214 317.3085,589.406 318.9135,585.394 C318.9135,585.394 321.8545,586.731 322.1225,594.755 C322.1225,594.755 333.1395,586.365 338.5295,569.431 L320.1165,538.322 L289.0625,529.118 Z" id="Fill-38" fill="#F9AE25"></path>
                <path d="M372.0239,563.7088 C372.0239,563.7088 396.4749,570.9518 427.0979,564.3988 C427.0979,564.3988 430.4409,579.7768 424.9579,591.5458 C424.9579,591.5458 431.1089,588.4698 432.0459,585.7958 C432.0459,585.7958 435.3889,589.4058 435.3889,595.8248 C435.3889,595.8248 441.4729,590.7698 442.3829,586.1648 L445.9529,584.5918 L445.0179,555.0378 L370.3979,559.0498 L372.0239,563.7088 Z" id="Fill-39" fill="#F9AE25"></path>
                <path d="M184.8843,328.4568 L162.6193,371.7818 C162.6193,371.7818 174.7553,394.5658 200.1633,410.6128 C200.1633,410.6128 202.8383,421.5788 216.4783,427.4628 C216.4783,427.4628 220.7583,452.3358 238.4093,463.5688 C238.4093,463.5688 260.3413,522.9438 317.5753,544.6068 C317.5753,544.6068 344.5883,564.1318 345.9263,595.6908 C345.9263,595.6908 347.2633,595.9588 348.8673,589.0048 C348.8673,589.0048 352.4783,590.6088 352.6793,599.4358 C352.6793,599.4358 370.9323,596.0248 372.1363,561.3228 C372.1363,561.3228 405.8353,568.7448 440.9383,559.1168 C440.9383,559.1168 448.7613,569.7478 439.5343,595.8248 C439.5343,595.8248 445.7533,593.8188 447.9593,589.0048 C447.9593,589.0048 452.7733,593.6178 451.9703,601.2408 C451.9703,601.2408 485.6703,576.9698 486.2713,536.6498 C486.2713,536.6498 516.1603,517.3938 521.5763,474.0658 C526.9923,430.7388 503.4563,391.3558 483.3963,371.5648 C483.3963,371.5648 423.0863,313.3938 280.2663,318.6088 C280.2663,318.6088 246.3633,347.5318 184.8843,328.4568" id="Fill-40" fill="#FFC967"></path>
                <path d="M319.8818,328.6395 C319.9168,327.5805 320.0668,326.5025 320.3428,325.4105 C321.6578,320.2195 325.7478,316.0835 330.4308,313.4875 C352.1738,301.4315 377.7818,312.8265 395.8048,326.4315 C392.8608,324.2085 385.5358,325.3705 382.4128,326.1465 C374.3838,328.1405 371.7938,333.7455 366.5838,339.5145 C358.6058,348.3495 344.9518,351.5115 333.9018,347.0845 C326.3918,344.0765 319.6048,336.9655 319.8818,328.6395" id="Fill-41" fill="#F9AE25"></path>
                <path d="M521.2305,476.5721 C523.6995,476.1401 526.2765,475.3641 528.4945,474.1911 C529.6415,473.5851 530.7025,472.8021 531.5495,471.8151 C532.5205,470.6841 532.3215,470.5031 533.6145,471.1501 C535.0195,471.8541 536.3605,472.7301 537.7235,473.5141 C538.4895,473.9551 535.6215,478.4181 535.3145,478.8271 C533.7305,480.9421 531.6555,482.6701 529.3915,484.0181 C526.3765,485.8131 522.4605,487.5951 518.9595,488.0471 C518.7715,487.0631 520.7045,476.6641 521.2305,476.5721" id="Fill-42" fill="#F9AE25"></path>
                <path d="M534.9492,458.0018 C534.7742,457.8398 534.6182,457.7668 534.4902,457.8128 C532.4652,458.5368 530.3842,459.6848 529.5542,461.6698 C528.0372,465.3078 530.7782,469.1298 533.3322,471.4988 C536.6622,474.5898 540.4332,475.7518 544.9582,474.8328 C549.9092,473.8268 554.4852,470.5348 556.7822,466.0018 C559.2722,461.0868 558.7522,455.0698 557.4812,449.8958 C557.4812,449.8958 558.6842,462.9338 548.0532,467.1468 C546.5862,467.7288 544.0952,467.0438 542.7292,466.5418 C541.0032,465.9068 539.4772,464.8368 538.2632,463.4578 C537.5542,462.6528 535.9422,458.9158 534.9492,458.0018" id="Fill-43" fill="#FFC967"></path>
                <path d="M266.0239,350.1024 C266.0239,350.1024 272.6439,362.9394 296.7139,358.9274 C296.7139,358.9274 281.2689,369.1584 259.6049,352.6094 L266.0239,350.1024 Z" id="Fill-44" fill="#000000"></path>
                <path d="M291.0977,338.869 C291.0977,338.869 300.3257,343.884 302.1307,353.512 C302.1307,353.512 304.0697,339.672 291.0977,338.869" id="Fill-45" fill="#F9AE25"></path>
                <path d="M302.0635,387.2108 C302.5175,387.9768 299.8025,392.1098 299.4485,392.7248 C296.9615,397.0338 293.7575,400.9888 290.0445,404.2998 C271.0425,421.2388 244.0615,421.5588 220.4305,416.7248 C213.6575,415.3388 206.9785,413.5138 200.4025,411.3858 C204.5215,412.7188 208.7295,414.9378 212.7445,416.5808 C219.1995,419.2238 225.9805,421.0578 232.8805,422.0688 C248.9295,424.4228 265.2615,423.1688 279.6445,415.1558 C290.4395,409.1428 298.8225,400.0898 305.0055,389.4838 C305.0055,389.4838 309.6525,391.2228 312.6615,396.9398 C312.6615,396.9398 317.1745,383.0998 286.1835,379.8898 C286.1835,379.8898 300.6925,384.9038 302.0635,387.2108" id="Fill-46" fill="#F9AE25"></path>
                <path d="M383.5337,348.9432 C383.5337,348.9432 446.3787,367.3002 459.2787,390.1242 L459.2787,378.8782 C459.2787,378.8782 447.1507,360.0792 389.1567,344.4232 L383.5337,348.9432 Z" id="Fill-47" fill="#F9AE25"></path>
                <polygon id="Fill-48" fill="#8DC541" points="561.7441 256.7845 585.0171 224.8665 585.0171 256.7845"></polygon>
                <polygon id="Fill-49" fill="#8DC541" points="573.381 264.764 585.018 264.764 585.018 256.785 573.381 256.785"></polygon>
                <polygon id="Fill-50" fill="#8DC541" points="573.381 276.235 585.018 276.235 585.018 267.989 573.381 267.989"></polygon>
                <polygon id="Fill-51" fill="#8DC541" points="573.381 287.539 585.018 287.539 585.018 279.293 573.381 279.293"></polygon>
                <polygon id="Fill-52" fill="#8DC541" points="608.291 256.7845 585.018 224.8665 585.018 256.7845"></polygon>
                <polygon id="Fill-53" fill="#8DC541" points="585.017 264.764 596.654 264.764 596.654 256.785 585.017 256.785"></polygon>
                <polygon id="Fill-54" fill="#8DC541" points="585.017 276.235 596.654 276.235 596.654 267.989 585.017 267.989"></polygon>
                <polygon id="Fill-55" fill="#8DC541" points="585.017 287.539 596.654 287.539 596.654 279.293 585.017 279.293"></polygon>
                <g id="Group-59">
                    <mask id="mask-2" fill="white">
                        <use xlink:href="#path-1"></use>
                    </mask>
                    <g id="Clip-58"></g>
                    <path d="M632.9131,62.4109 C622.6461,71.3479 612.2821,80.1609 601.1011,87.9539 C575.7601,105.6189 541.2161,123.4209 509.4061,121.4799 C500.2211,120.9199 491.9271,119.0569 482.7041,120.5199 C474.0811,121.8889 465.4761,123.5979 457.8181,128.0119 C455.2971,129.4659 452.8971,131.1909 450.1541,132.1639 C441.2641,135.3169 428.2011,131.6049 419.2231,129.8839 C408.2261,127.7759 397.3961,124.8839 386.6631,121.7169 C379.3451,119.5579 372.0801,117.2139 364.8851,114.6769 C363.4201,114.1599 360.5521,112.4259 358.9991,112.5449 C355.1841,112.8369 356.8781,119.4029 358.2961,122.2989 C360.7001,127.2079 365.2381,131.0899 369.7031,134.0859 C371.5981,135.3569 375.5121,138.6159 377.9361,138.7029 C367.2241,138.3189 356.5321,137.9349 345.8391,137.5519 C339.5351,137.3249 333.2301,137.0989 326.9261,136.8729 C323.9831,136.7669 322.5411,136.0219 321.7371,139.1859 C320.5651,143.8009 324.4341,149.5839 327.8471,152.2239 C334.9251,157.6979 344.3071,156.6049 352.7191,156.7859 C360.4741,156.9519 368.2281,157.1179 375.9831,157.2839 C386.3841,157.5069 396.7851,157.7299 407.1861,157.9529 L391.1861,167.4529 C370.0901,179.5589 348.2531,190.6819 329.4471,206.2589 C331.1051,210.1999 335.2431,212.6839 339.4631,213.3729 C343.6831,214.0609 347.9991,213.2159 352.1251,212.0939 C362.0141,209.4039 371.3831,205.1189 380.3331,200.1749 C384.7251,197.7489 389.0211,195.1549 393.2731,192.4919 C395.7801,190.9219 399.3241,187.4629 402.1901,186.7019 C412.6681,183.9209 422.9061,179.7829 433.0151,175.9069 C434.4761,175.3469 448.6361,171.0499 448.6861,169.8139 C448.1781,182.2409 436.5121,191.9629 431.7941,202.5929 C427.4341,212.4169 430.1031,225.1109 430.1031,235.6559 L430.1031,254.1059 L450.5481,253.3689 C449.4561,229.9579 462.9911,212.0369 473.3341,194.8769 C477.4471,188.0539 480.6691,179.4909 485.7691,173.3689 C492.4361,165.3689 495.7691,173.3689 495.7691,173.3689 C505.1031,194.3689 486.1031,216.7029 486.1031,216.7029 C484.5291,219.4579 480.9291,221.3709 478.5881,223.4169 C475.7221,225.9199 472.9281,228.4699 470.3151,231.2419 C464.9341,236.9529 460.2321,243.3069 456.3541,250.1289 C453.8031,254.6179 451.5791,259.3889 450.7881,264.4919 C450.2221,268.1519 450.4341,272.0329 451.7671,275.5119 C452.0741,276.3119 456.4031,284.0559 456.5381,283.944124 C456.6231,283.8719 456.7081,283.8009 456.7931,283.7299 C468.3751,274.0499 479.0551,263.0579 489.7261,252.3929 C498.3701,243.7569 507.0691,234.2169 518.2021,228.7739 C524.5851,225.6529 531.5141,223.7759 537.8921,220.3099 C544.4341,216.7549 550.6601,212.6279 556.5701,208.1039 C565.7401,201.0859 572.7331,192.1139 581.4921,184.8869 C590.9761,177.0619 601.0801,170.0139 611.5021,163.5009 C632.1801,150.5779 654.0711,139.7729 675.7351,128.6369 C677.9371,127.5039 680.1241,126.3549 682.3081,125.2029 C665.0311,104.9209 648.4331,84.0709 632.9131,62.4109" id="Fill-57" fill="#D58071" mask="url(#mask-2)"></path>
                </g>
            </g>
        </g>
    </g>
</svg>