<?xml version="1.0" encoding="utf-8"?>
<!-- Generator: Adobe Illustrator 22.0.1, SVG Export Plug-In . SVG Version: 6.00 Build 0)  -->
<svg version="1.1" id="Layer_1" xmlns="http://www.w3.org/2000/svg" xmlns:xlink="http://www.w3.org/1999/xlink" x="0px" y="0px"
	 viewBox="0 0 510 284" style="enable-background:new 0 0 510 284;" xml:space="preserve">
<style type="text/css">
	.st0{fill:#FFC967;}
	.st1{fill:#722538;}
	.st2{fill:#D93457;}
	.st3{fill:#DDE9BE;}
	.st4{fill:#D58535;}
	.st5{fill:#9DC665;}
	.st6{fill:#F8C46B;}
	.st7{fill:#EAA633;}
	.st8{fill:#FDF1DB;}
	.st9{opacity:0.1165;fill:#F9CD8A;enable-background:new    ;}
	.st10{fill:none;stroke:#FFC967;stroke-width:0.7731;}
	.st11{fill:none;stroke:#8DC63F;stroke-width:0.7731;}
	.st12{fill:#2A2B29;}
	.st13{fill:#C8796A;}
	.st14{fill:#EF305E;}
	.st15{fill:#0A0B09;}
	.st16{fill:#0B0B09;}
	.st17{font-family:'LucidaGrande';}
	.st18{font-size:12.5695px;}
</style>
<g>
	<title>10th Best service</title>
	<desc>Created with Sketch.</desc>
	<g id="Page-1">
		<g id="_x31_st">
		</g>
		<g id="Artboard" transform="translate(-1529.000000, -4190.000000)">
			<g id="_x31_0th-Best-service" transform="translate(1529.000000, 4189.000000)">
				<g id="Group-102" transform="translate(0.000000, 11.800000)">
					<polygon id="Fill-3" class="st0" points="204.3,211.6 305.7,211.6 305.7,49.4 204.3,49.4 					"/>
					<polygon id="Fill-5" class="st1" points="170.4,44.9 196.5,44.9 196.5,25.6 170.4,25.6 					"/>
					<polygon id="Fill-6" class="st2" points="170.4,25.6 183.5,35.2 196.5,25.6 					"/>
					<path id="Fill-7" class="st3" d="M317.7,263.3c0,0.6-4.1,1.1-9.1,1.1c-5.1,0-9.1-0.5-9.1-1.1s4.1-1.1,9.1-1.1
						C313.6,262.2,317.7,262.7,317.7,263.3"/>
					<path id="Fill-8" class="st4" d="M310.8,1.4L310.8,1.4L310.8,1.4C310.8,1.4,310.8,1.4,310.8,1.4"/>
					<path id="Fill-9" class="st4" d="M310.8,1.4L310.8,1.4L310.8,1.4C310.8,1.4,310.8,1.4,310.8,1.4"/>
					<path id="Fill-10" class="st1" d="M321.6,26.4c-0.4,1.2-1,2.3-1.5,3.5c-1.5,3.3-3,6.5-4.5,9.8c-1.1,2.3-2.1,4.6-3.2,6.8l0,0.1
						l0-0.1c-2.5-5.4-5-10.7-7.5-16.1c-1.1-2.3-2.1-4.2-2-6.8c0.1-1.3,0.3-2.7,0.8-3.9c1.4-3.7,5-5.3,8.7-5.3h0.1
						c3.3,0.1,6.5,1.2,8.2,4.2c1.2,2.2,1.7,4.9,1.2,7.4C321.7,26,321.6,26.2,321.6,26.4"/>
					<path id="Fill-11" class="st2" d="M317.1,23.4c0,2.7-2.2,4.8-4.8,4.8c-2.7,0-4.8-2.2-4.8-4.8c0-2.7,2.2-4.8,4.8-4.8
						C314.9,18.5,317.1,20.7,317.1,23.4"/>
					<polygon id="Fill-12" class="st5" points="318,51.4 318,51.3 318,51.5 					"/>
					<polygon id="Fill-13" class="st5" points="317.9,51.3 318,51.4 317.9,51.5 					"/>
					<polygon id="Fill-14" class="st2" points="332.3,103.7 335.2,100.8 333.3,100.1 					"/>
					<polygon id="Fill-15" class="st6" points="336.4,101.5 317.5,94.4 322.2,81.9 341.1,89 					"/>
					<polygon id="Fill-16" class="st7" points="336.2,99.6 316.9,93.6 320.8,80.9 340.2,86.8 					"/>
					<polygon id="Fill-17" class="st2" points="326.8,94.9 315.6,91.1 319.9,78.5 331.1,82.3 					"/>
					<polygon id="Fill-18" class="st1" points="332.3,103.7 312.9,97.7 316.8,85 336.2,90.9 					"/>
					<polygon id="Fill-19" class="st8" points="198.7,216.1 301.3,216.1 301.3,54.9 198.7,54.9 					"/>
					<polygon id="Fill-20" class="st9" points="299.1,54.9 260.9,155.9 238.2,216.1 198.7,216.1 198.7,215.9 222.1,155.9 
						261.4,54.9 					"/>
					<path id="Stroke-21" class="st10" d="M238.1,75.5c0,7.8-6.3,14.1-14.1,14.1s-14.1-6.3-14.1-14.1s6.3-14.1,14.1-14.1
						S238.1,67.7,238.1,75.5z"/>
					<path id="Stroke-22" class="st10" d="M245.6,68.7h44.5"/>
					<path id="Stroke-23" class="st10" d="M245.6,78.2h44.5"/>
					<path id="Stroke-24" class="st10" d="M246.5,99.9h43.5"/>
					<path id="Stroke-25" class="st10" d="M236.8,103.3h43.5"/>
					<path id="Stroke-26" class="st10" d="M236.8,106.8h43.5"/>
					<path id="Stroke-27" class="st10" d="M210.6,133.2h79.5"/>
					<path id="Stroke-28" class="st10" d="M210.6,136.2h79.5"/>
					<path id="Stroke-29" class="st10" d="M210.6,139.3h79.5"/>
					<path id="Stroke-30" class="st10" d="M210.6,142.4h79.5"/>
					<path id="Stroke-31" class="st10" d="M226,109h-8.2c-0.5,0-0.9-0.4-0.9-0.9v-8.2c0-0.5,0.4-0.9,0.9-0.9h8.2
						c0.5,0,0.9,0.4,0.9,0.9v8.2C226.9,108.6,226.5,109,226,109z"/>
					<path id="Stroke-32" class="st10" d="M226,125.7h-8.2c-0.5,0-0.9-0.4-0.9-0.9v-8.2c0-0.5,0.4-0.9,0.9-0.9h8.2
						c0.5,0,0.9,0.4,0.9,0.9v8.2C226.9,125.3,226.5,125.7,226,125.7z"/>
					<polyline id="Stroke-33" class="st11" points="219.7,120.8 221.9,122.7 228.4,115.8 					"/>
					<path id="Stroke-34" class="st10" d="M224.8,193.1v12.6c0,2.1-1.7,3.7-3.7,3.7h-12.6c-2.1,0-3.7-1.7-3.7-3.7v-12.6
						c0-1.9,1.5-3.5,3.3-3.7c0.1,0,0.3,0,0.4,0h12.6C223.1,189.3,224.8,191,224.8,193.1z"/>
					<path id="Stroke-35" class="st10" d="M248.3,193.1v12.6c0,2.1-1.7,3.7-3.7,3.7H232c-2.1,0-3.7-1.7-3.7-3.7v-12.6
						c0-2.1,1.7-3.7,3.7-3.7h12.6c1,0,1.8,0.4,2.5,0.9C247.8,191,248.3,192,248.3,193.1z"/>
					<path id="Stroke-36" class="st10" d="M267.3,209.4h-11.1c-2.5,0-4.5-2-4.5-4.5v-11.1c0-2.5,2-4.5,4.5-4.5h11.1
						c2.5,0,4.5,2,4.5,4.5v11.1C271.8,207.4,269.8,209.4,267.3,209.4z"/>
					<path id="Stroke-37" class="st10" d="M290.9,209.4h-11.1c-2.5,0-4.5-2-4.5-4.5v-11.1c0-2.5,2-4.5,4.5-4.5h11.1
						c2.5,0,4.5,2,4.5,4.5v11.1C295.3,207.4,293.3,209.4,290.9,209.4z"/>
					<path id="Stroke-38" class="st10" d="M204.8,156.5h20"/>
					<path id="Stroke-39" class="st10" d="M204.8,160.2h11.3"/>
					<path id="Stroke-40" class="st10" d="M204.8,163.9h20"/>
					<path id="Stroke-41" class="st10" d="M204.8,167.6h20"/>
					<path id="Stroke-42" class="st10" d="M204.8,171.3h8.7"/>
					<path id="Stroke-43" class="st10" d="M204.8,175h15.5"/>
					<path id="Stroke-44" class="st10" d="M204.8,178.7h20"/>
					<path id="Stroke-45" class="st10" d="M204.8,182.4h20"/>
					<path id="Stroke-46" class="st10" d="M251.8,156.5h20"/>
					<path id="Stroke-47" class="st10" d="M251.8,160.2h16.6"/>
					<path id="Stroke-48" class="st10" d="M251.8,163.9h20"/>
					<path id="Stroke-49" class="st10" d="M251.8,167.6H271"/>
					<path id="Stroke-50" class="st10" d="M251.8,171.3H265"/>
					<path id="Stroke-51" class="st10" d="M251.8,175h20"/>
					<path id="Stroke-52" class="st10" d="M251.8,178.7h7.8"/>
					<path id="Stroke-53" class="st10" d="M251.8,182.4h3.9"/>
					<path id="Stroke-54" class="st10" d="M275.3,156.5h20"/>
					<path id="Stroke-55" class="st10" d="M275.3,160.2h20"/>
					<path id="Stroke-56" class="st10" d="M275.3,163.9H289"/>
					<path id="Stroke-57" class="st10" d="M275.3,167.6h20"/>
					<path id="Stroke-58" class="st10" d="M275.3,171.3h20"/>
					<path id="Stroke-59" class="st10" d="M275.3,175h20"/>
					<path id="Stroke-60" class="st10" d="M275.3,178.7h10"/>
					<path id="Stroke-61" class="st10" d="M275.3,182.4h16.8"/>
					<path id="Stroke-62" class="st10" d="M228.3,156.5h20"/>
					<path id="Stroke-63" class="st10" d="M228.3,160.2h20"/>
					<path id="Stroke-64" class="st10" d="M228.3,163.9h20"/>
					<path id="Stroke-65" class="st10" d="M228.3,167.6H244"/>
					<path id="Stroke-66" class="st10" d="M228.3,171.3h20"/>
					<path id="Stroke-67" class="st10" d="M228.3,175h20"/>
					<path id="Stroke-68" class="st10" d="M228.3,178.7h17.6"/>
					<path id="Stroke-69" class="st10" d="M228.3,182.4h7.8"/>
					<path id="Fill-70" class="st3" d="M215,248.5c0,1.5-16.1,2.7-36,2.7s-36-1.2-36-2.7c0-1.5,16.1-2.7,36-2.7S215,247,215,248.5"
						/>
					<path id="Fill-71" class="st12" d="M326.3,178.9c0,0,4.2,9.9-4.9,43.4c0,0,12.2,15.5,14.6,24.8l-2.9,2.9
						c0,0-22.5-20.2-22.7-29.8c-0.2-9.6,1.2-21.1,1.2-21.1s-2.8,10.1-6.1,18.9c0,0,4.8,10.1,5.6,41.1h-3.6c0,0-14.6-34.4-13.4-46.3
						c0.6-6.6,1.4-13.3,2.5-19.8c1-6.1,1.8-12.6,5.5-17.8L326.3,178.9z"/>
					<polygon id="Fill-72" class="st13" points="335.8,247.4 337,249.6 334.9,251.5 333.1,250.1 					"/>
					<path id="Fill-73" class="st14" d="M307.9,143.2l-17.8-7.2l-11.5-18.1h-3.3c0,0,4.3,21.4,10.2,24.2c0,0,8.9,8.3,17.6,10.7
						c0,0-5.2,6.6,1.2,10.9c0,0,0.8,5.7-2.2,11.5c0,0,8.1,5.6,24.3,3.7c0,0-4.7-11.4-3.2-16.1l4.5,1.3c0,0,8.4,5.5,14.5,24.6h3.5
						c0,0,1.3-27.4-19.5-40.1L307.9,143.2z"/>
					<path id="Fill-74" class="st13" d="M309.4,129.8c0,0-4.4,7.5-0.6,10.9h4.6v-10.9H309.4z"/>
					<path id="Fill-75" class="st15" d="M309.3,132.4c0-0.1-0.1-0.2-0.1-0.3c-0.3-1.3,0.3-3.2,1.2-4.1c1.5-1.4,3.8-1.4,5.7-1.2
						c8.3,1.2,6.4,10,6.4,10c-0.4,1.7,0,3.9,0.3,5.5c0.4,2.2,1.1,4.3,2.2,6.2c1.5,2.7,3.9,4.4,4.7,7.5c0.7,2.7,0.8,6-0.5,8.5
						c-1.5,2.8-4.6,4.1-7.6,4.5c-14,2-15.7-7.6-15.7-7.6s-2.8-8.6,4.6-25.5c0,0,1.6-0.2,1.3-1.7
						C311.6,132.5,309.9,133.5,309.3,132.4"/>
					<polygon id="Fill-76" class="st13" points="308,260.5 311.1,260.5 311.1,259.2 308,259.2 					"/>
					<path id="Fill-77" class="st15" d="M311.1,260.5c0,0,0.5,2.1,0,3.2c0,0-5.1-0.1-7.1-2.4c0,0,0-0.2,0.1-0.3
						c0.1-0.2,0.3-0.4,0.5-0.4c0.5-0.1,0.9,0,1.4,0.1c0.5,0.1,0.9,0.2,1.4,0.2c0.4,0.1,0.4,0,0.7-0.3L311.1,260.5z"/>
					<path id="Fill-78" class="st15" d="M334.9,250.9c0,0.5,0,0.9-0.1,1.4c0,0.5-0.1,1-0.1,1.5c0,0-0.7,2.1-0.1,3.4
						c0.6,1.3,2.8-0.5,3.1-1.3c0.3-0.8,0.6-1.6,0.7-2.4c0.1-0.8,0.1-1.6,0-2.3c0-0.7-0.2-1.3-0.5-1.9c-0.7-1.2-2.1-0.4-2.1-0.4
						c-0.4,0.2-0.6,0.8-0.7,1.2C335,250.4,334.9,250.6,334.9,250.9"/>
					<polygon id="Fill-79" class="st15" points="334.6,251.2 334.7,254.3 335.4,252 					"/>
					<path id="Fill-80" class="st13" d="M345.5,188.7c0.2,0.1,0.4,0.2,0.6,0.4c0.6,0.5,1.2,1.2,1.7,1.9c0.4,0.7,0.7,1.6,0.8,2.4
						c0,0.4,0,0.9,0,1.3c0,0.3-0.1,1-0.3,1.2c-0.2,0.2-0.4-0.4-0.4-0.5c-0.1-0.3-0.3-0.6-0.4-0.9c-0.3-0.5-0.6-0.9-1-1.4
						c-0.3-0.3-0.9-0.9-1.4-0.7c-0.2,0.1-0.4,0.2-0.5,0.4c-0.1,0.1-0.3,0.6-0.4,0.5c-0.3-0.3-0.4-0.8-0.5-1.2
						c-0.1-0.3-0.1-0.5-0.1-0.8c0-0.4,0.3-0.8,0-1.1c-0.4-0.5-0.8-1-1.2-1.5c0,0.1,0.5,0,0.6,0h1.3h1.1
						C345.3,188.6,345.4,188.6,345.5,188.7"/>
					<polygon id="Fill-81" class="st1" points="272.9,120.9 274.8,121.6 279.1,110.1 277.2,109.4 					"/>
					<polygon id="Fill-82" class="st2" points="279.1,110.1 278.9,107.7 277.2,109.4 					"/>
					<polygon id="Fill-83" class="st1" points="279,108.2 278.6,108 278.9,107.7 					"/>
					<path id="Fill-84" class="st13" d="M273.4,113.6c0.2,0.9,0.5,1.7,0.7,2.6c0.1,0.3,0.6,1.8,1,1.8h3.1c0.1,0,0.8-3.9,0.8-4.2
						c0-0.5-0.1-1.1-0.4-1.5c-0.5-0.8-0.6,0.8-0.7,1.2c-0.1,0.3-0.3,0.8-0.6,0.9c-0.3,0.1-0.5-0.3-0.6-0.6c-0.1-0.2-0.2-0.5-0.3-0.8
						c0-0.1-0.1-0.3-0.1-0.4c0-0.1,0.1-0.2,0.1-0.3c0.1-0.1,0.1-0.2,0.2-0.3c0.1-0.2,0.3-0.5,0.4-0.7c0.2-0.3,0.4-0.8,0.3-1.2
						c-0.1-0.3-0.4-0.5-0.7-0.6c-0.3-0.1-0.6,0.1-0.8,0.3c-0.4,0.3-0.7,0.6-1.1,0.9c-0.2,0.2-0.5,0.5-0.7,0.7
						C273.6,112.1,273.2,112.8,273.4,113.6"/>
					<path id="Fill-85" class="st1" d="M275.8,113.1C275.8,113.1,275.9,113.1,275.8,113.1c0.1-0.1,0.2-0.2,0.3-0.3
						c0.1-0.1,0.1-0.2,0.2-0.3c0,0,0,0,0,0c0.3,0.3,0.6,0.6,1,0.8c0.1,0.1,0.3,0.2,0.4,0.2l-3,8l-1.8-0.7L275.8,113.1z"/>
					<path id="Fill-86" class="st13" d="M172.3,133.1l0.4,2.4l5.1,0.8l0.2,0l0.1,0l5.1-0.8l0.4-2.4c0,0-2.9-1.3-2.9-5h-5.5
						C175.1,131.8,172.3,133.1,172.3,133.1"/>
					<path id="Fill-87" class="st13" d="M186.7,119.5c0,0,0.1,0.8,0.1,0.9c0.1,0.7,0.1,1.5,0.1,2.2c0,1.9-0.5,3.8-1.5,5.4
						c-1.8,2.6-7.1,2.4-9.7,2c-0.3-0.1-0.8-0.6-0.4-1.6c0.6-1.6-0.3-5,1-6.9c1.3-2,4.8-2.5,4.8-2.5S186.7,119.5,186.7,119.5"/>
					<polygon id="Fill-88" class="st13" points="193.1,241.7 193.1,247.4 187.8,245.9 187.8,241.7 					"/>
					<polygon id="Fill-89" class="st13" points="169,241.7 169,245.9 163.7,247.3 163.7,241.7 					"/>
					<path id="Fill-90" class="st16" d="M193.1,245.8l2.1,1.3c0,0,5.6-1.9,7.5,0.7c1.9,2.5-15.3,1.5-15.3,1.5l0.4-3.5
						C187.8,245.7,190.6,247.1,193.1,245.8"/>
					<path id="Fill-91" class="st16" d="M163.7,245.8l-2.1,1.3c0,0-5.6-1.9-7.5,0.7c-1.9,2.5,15.3,1.5,15.3,1.5l-0.4-3.5
						C168.9,245.7,166.1,247.1,163.7,245.8"/>
					<path id="Fill-92" class="st13" d="M194.5,129.3c1.3-1.1,2.6-2.1,3.9-3.2c1.8-1.4,4.5-3,5.5-5c2.3-5,4.6-10,6.9-15h3.5
						c-1.6,5.5-3.2,11.1-4.7,16.6c-0.8,3.1-3.8,5.3-6.1,7.5c-0.3,0.3-4.7,4.2-4.4,4.5C199,134.8,194.5,129.3,194.5,129.3"/>
					<path id="Fill-93" class="st13" d="M211.1,106.4c-1,0-1.5-1.7-1.8-2.4c-0.6-1.5-0.1-2,0.6-3.3c0.4-0.8,0.9-1.7,1.3-2.5
						c0.2-0.3,0.4-0.7,0.8-0.6c0.1,0,0.2,0.1,0.3,0.1c0.9,0.6,2.2,1.1,2.8,2.1c1.2,1.9-0.2,4.3-0.6,6.2
						C214.2,106.8,211.8,106.4,211.1,106.4"/>
					<polygon id="Fill-94" class="st13" points="161.4,151.9 161.4,181 156.5,181 155.9,151.9 					"/>
					<path id="Fill-95" class="st13" d="M161.4,180.7C161.4,180.7,161.5,180.7,161.4,180.7c0.2,0.2,0.3,0.9,0.4,1.1l0.4,1.2
						c0.2,0.7,0.4,1.3,0.6,2c0.2,0.7-0.3,0.6-0.9,0.6c-0.1,0-0.2,0-0.3,0.1c-0.3,0.2-0.1,0.7-0.1,0.9v2.2c0,0.7,0.1,1.4,0,2.1
						c0,0.6-0.2,0.9-0.8,0.7c-0.8-0.3-1.6-0.8-2.4-1.1c-0.6-0.3-1.5-0.4-1.9-1.1c-0.5-0.8-0.2-1.8-0.1-2.7c0.1-1,0-2.1,0-3.1
						c0-0.2,0.2-2.9,0.2-2.9h3.5C160.3,180.7,161.1,180.5,161.4,180.7"/>
					<path id="Fill-96" class="st12" d="M163.1,241.7h6.9c0,0,5.9-32.8,7.8-49.2c0.4-0.6,1.1-0.1,1.1,0c1.9,16.4,7.8,49.2,7.8,49.2
						h6.9c3.3-45.8-4.3-65.7-4.3-65.7h-21.9C167.5,176.1,159.8,195.9,163.1,241.7"/>
					<path id="Fill-97" class="st14" d="M161.6,152.1l1.5-5.3c0,0-0.3,29,4.3,29.3c13.6,4.3,21.9,0,21.9,0
						c4.7-0.2,4.3-29.3,4.3-29.3c-0.3-6.6,5.9-11.8,5.9-11.8l-5.4-6.1c-1.7,1.9-5.3,3.2-6.7,3.6c-0.4,0.1-0.6,0.2-0.6,0.2
						s-3.2,0.1-3.2,0.1c-0.1,0-0.5,0.8-0.6,0.9c-0.5,0.4-1.2,0.7-1.8,0.9c-2.7,0.8-5.9,0.1-7.8-1.8c0,0-10.5-2.3-15,5.4
						c0,0-3,5.5-3,13.8H161.6z"/>
					<path id="Fill-98" class="st15" d="M188.1,120.4c0.6-0.5,1.2-1.1,1.6-1.8c0.3-0.4,0.9-1.7,0.3-2.1c-0.6-0.4-1.6-0.2-2.3-0.2
						c-1.1,0-2.1,0-3.2,0c-2.1-0.1-4.2-0.1-6.3-0.2c-0.8,0-1.6,0-2.3,0.3c-0.4,0.2-1.7,0.8-1.7,1.3c-0.2,0.4-0.4,0.8-0.5,1.2
						c-0.6,3.4-0.2,6.7,1.4,9.2c0.1,0.1,1.4,0,1.6,0c0.6,0,1.1,0,1.7,0c0.7,0,1.5,0,2.2,0c0.8,0,1.1,0,1.6-0.7
						c0.3-0.3,0.5-0.7,0.8-1c0.5-0.7,1-1.3,1.5-2c1-1.3,2.1-2.6,3.3-3.7C187.9,120.6,188,120.5,188.1,120.4"/>
					<path id="Fill-99" class="st13" d="M185.6,123.6c0,0-0.8-0.8-1.4,0s-0.3,2.4-0.3,2.4L185.6,123.6z"/>
					<polygon id="Fill-100" class="st1" points="164.4,103.3 187.3,103.3 187.3,85.6 164.4,85.6 					"/>
					<polygon id="Fill-101" class="st2" points="164.4,89.1 187.3,89.1 187.3,85.6 164.4,85.6 					"/>
				</g>
				<text transform="matrix(1 0 0 1 168.4548 108.7413)" class="st7 st17 st18">15</text>
				<g id="Group-109" transform="translate(244.000000, 0.800000)">
					<path id="Fill-103" class="st1" d="M13.5,40.7C13.5,40.7,13.5,40.7,13.5,40.7c-2.6,0.9-7.3,1.6-11.1-2.5c0,0-3.3-3.8-5.4-8.9
						c0-0.1-0.1-0.2-0.1-0.3c0-0.1-0.1-0.2-0.1-0.2c-2.5-4.9-3.2-9.9-3.2-9.9c-0.6-5.6,3.1-8.6,5.4-10c0,0,0,0,0,0
						c0,0,4.3,3,4.9,8.8c-0.1,0-0.3,0-0.4,0c-3.7,0.2-2.6,3.3-2.6,3.3l2.3,4.3L3.4,26l0.3,0.7l1.8,4.6c0,0,1.7,2.8,4.2,0.2
						c0.1-0.1,0.2-0.2,0.3-0.3C14,35.5,13.5,40.7,13.5,40.7"/>
					<path id="Fill-105" class="st2" d="M5.8,16.7c0,0.1-0.1,0.1-0.1,0.1v0c0,0-0.1,0.1-0.1,0.1c0,0,0,0,0,0
						c-0.1,0.1-0.1,0.1-0.2,0.2c0,0,0,0,0,0c0,0-0.1,0-0.1,0.1c0,0-0.1,0-0.1,0.1c-0.3,0.2-0.6,0.3-1,0.4c0,0-0.1,0-0.2,0
						c-0.1,0-0.1,0-0.2,0C3.3,11.9-1,8.9-1,8.9l0.1-0.1c0.1,0,0.1-0.1,0.2-0.1c0.1-0.1,0.2-0.1,0.3-0.2c0.1,0,0.1-0.1,0.2-0.1
						c0,0,0.1,0,0.1-0.1c0.1,0,0.1,0,0.1-0.1c0,0,0.1,0,0.1-0.1c0.1,0,0.1,0,0.1-0.1c0.1-0.1,0.2-0.1,0.3-0.1c0.1,0,0.1,0,0.1,0
						c3-0.1,5.1,6.6,5.1,6.6S6.3,15.8,5.8,16.7"/>
					<path id="Fill-107" class="st2" d="M15.8,38.9c0,0.1,0,0.2-0.1,0.2c0,0.2-0.1,0.3-0.2,0.4c0,0,0,0,0,0c0,0.1-0.1,0.1-0.1,0.2
						c0,0.1-0.1,0.1-0.2,0.2c0,0,0,0-0.1,0.1c0,0,0,0,0,0c0,0-0.1,0-0.1,0.1c-0.1,0-0.1,0.1-0.2,0.1c-0.3,0.1-0.7,0.3-1.2,0.5
						l-0.1,0c0,0,0.6-5.2-3.5-9.5v0c0,0,0.1-0.1,0.1-0.1c0,0,0,0,0,0c0.2-0.2,0.4-0.3,0.5-0.4c0.1-0.1,0.2-0.1,0.3-0.1
						c0.1-0.1,0.2-0.1,0.4-0.1c0,0,0.1,0,0.1,0c0.7-0.1,1.2,0.2,1.6,0.5c0,0,0,0,0.1,0.1c0.3,0.3,0.5,0.7,0.5,0.7h0v0
						c0,0,0.1,0.2,0.2,0.4c0,0.1,0.1,0.2,0.1,0.3c0.3,0.5,0.6,1.2,1,2c0.1,0.3,0.3,0.7,0.4,1c0,0.1,0.1,0.2,0.1,0.3
						C15.8,36.8,16,37.9,15.8,38.9"/>
				</g>
			</g>
		</g>
	</g>
</g>
</svg>
