<?xml version="1.0" encoding="utf-8"?>
<!-- Generator: Adobe Illustrator 25.2.3, SVG Export Plug-In . SVG Version: 6.00 Build 0)  -->
<svg version="1.1" id="Layer_1" xmlns="http://www.w3.org/2000/svg" xmlns:xlink="http://www.w3.org/1999/xlink" x="0px" y="0px"
	 viewBox="0 0 64 64" style="enable-background:new 0 0 64 64;" xml:space="preserve">
<style type="text/css">
	.st0{fill:#005263;}
</style>
<g>
	<path class="st0" d="M7.7,34.7H37c-0.3-0.8-0.5-1.7-0.5-2.6s0.2-1.8,0.5-2.6H7.7c-1.4,0-2.6,1.2-2.6,2.6
		C5.1,33.5,6.2,34.7,7.7,34.7z"/>
	<path class="st0" d="M56.3,29.4h-5.2c0.3,0.8,0.5,1.7,0.5,2.6c0,0.9-0.2,1.8-0.5,2.6h5.2c1.4,0,2.6-1.2,2.6-2.6
		C58.9,30.6,57.8,29.4,56.3,29.4z"/>
	<ellipse class="st0" cx="44.1" cy="32.1" rx="6.8" ry="7.1"/>
	<path class="st0" d="M7.7,49.3c-1.4,0-2.6,1.2-2.6,2.6s1.1,2.6,2.6,2.6h4.7c-0.3-0.8-0.5-1.7-0.5-2.6s0.2-1.8,0.5-2.6H7.7z"/>
	<path class="st0" d="M56.3,49.3H26.6c0.3,0.8,0.5,1.7,0.5,2.6s-0.2,1.8-0.5,2.6h29.8c1.4,0,2.6-1.2,2.6-2.6
		C58.9,50.5,57.8,49.3,56.3,49.3z"/>
	<ellipse class="st0" cx="19.4" cy="51.9" rx="6.8" ry="7.1"/>
	<path class="st0" d="M7.7,14.7h17.2c-0.3-0.8-0.5-1.7-0.5-2.6s0.2-1.8,0.5-2.6H7.7c-1.4,0-2.6,1.2-2.6,2.6
		C5.1,13.6,6.2,14.7,7.7,14.7z"/>
	<path class="st0" d="M56.3,14.7c1.4,0,2.6-1.2,2.6-2.6s-1.1-2.6-2.6-2.6H39.1c0.3,0.8,0.5,1.7,0.5,2.6s-0.2,1.8-0.5,2.6H56.3z"/>
	<ellipse class="st0" cx="32" cy="12.1" rx="6.8" ry="7.1"/>
</g>
</svg>
