<?xml version="1.0" encoding="UTF-8"?>
<svg width="271px" height="359px" viewBox="0 0 271 359" version="1.1" xmlns="http://www.w3.org/2000/svg" xmlns:xlink="http://www.w3.org/1999/xlink">
    <!-- Generator: Sketch 53.2 (72643) - https://sketchapp.com -->
    <title>Group 71</title>
    <desc>Created with Sketch.</desc>
    <g id="Page-1" stroke="none" stroke-width="1" fill="none" fill-rule="evenodd">
        <g id="Landing-Page-1.1" transform="translate(0.000000, -5338.000000)">
            <g id="Group-71" transform="translate(-67.000000, 5338.000000)">
                <path d="M52.340833,387.855824 C52.340833,387.855824 -3.74989169,287.66071 65.9385844,207.844263 C135.62706,128.027817 217.213569,172.181596 217.213569,172.181596 C217.213569,172.181596 319.196705,219.731819 295.40064,333.512712 C295.40064,333.512712 281.802888,391.252269 241.009634,387.855824 L52.340833,387.855824 Z" id="Path" fill="#FDF1DB" fill-rule="nonzero"></path>
                <path d="M141,388 L202,202" id="Path" stroke="#FFC967" opacity="0.583379836"></path>
                <path d="M258,230 C258,230 226.426957,215.2175 194.735217,223.4525 C194.735217,223.4525 178.304348,182.75 141,176" id="Path" stroke="#FFC967" opacity="0.583379836"></path>
                <path d="M273,294 C273,294 219.593737,254.930176 180.50899,266.780901 C180.50899,266.780901 136.363636,213.742932 106,217.158126" id="Path" stroke="#FFC967" opacity="0.583379836"></path>
                <path d="M261,364 C261,364 214.998,330.58572 158.099,332.821302 C158.099,332.821302 114.8,280.413103 74,277" id="Path" stroke="#FFC967" opacity="0.583379836"></path>
                <path d="M165,388 C157.912592,384.669743 150.517798,382.031817 142.91938,380.123236 C142.91938,380.123236 107.296664,333.985475 36,349.007468" id="Path" stroke="#FFC967" opacity="0.583379836"></path>
                <path d="M0,324.036744 L0,10.3478928 C0,10.3478928 152.484968,-28.6512616 181.287684,159.562049 C210.090401,347.775359 0,324.036744 0,324.036744 Z" id="Path" fill="#FFC967" fill-rule="nonzero"></path>
                <path d="M148,110 C148,110 116.1345,81.1395349 84.0333333,87.9302326 C84.0333333,87.9302326 63.8333333,42.0930233 47,37" id="Path" stroke="#FFC967" opacity="0.583379836"></path>
                <g id="Group-25" transform="translate(109.000000, 0.000000)">
                    <path d="M0,388 C0,388 105.44757,223.33678 118.189624,153.015965 C130.931677,82.6951498 155,18 155,18" id="Path" stroke="#84253E" stroke-width="2"></path>
                    <path d="M178,159 L112,164.823779 C112,164.823779 147.106383,227.4294 178,159 Z" id="Path" fill="#84253E" fill-rule="nonzero"></path>
                    <path d="M63.2678512,123 L115,163.918223 C115,163.918223 47.9789302,190.259071 63.2678512,123 Z" id="Path" fill="#84253E" fill-rule="nonzero"></path>
                    <path d="M188,102 L128,109.713009 C128,109.713009 180.917847,151.058009 188,102 Z" id="Path" fill="#84253E" fill-rule="nonzero"></path>
                    <path d="M89.0176307,79 L129,107.5909 C129,107.5909 80.4315814,128.571167 89.0176307,79 Z" id="Path" fill="#84253E" fill-rule="nonzero"></path>
                    <path d="M143,55.3310924 C143,55.3310924 191.789956,42.6293415 198.822235,45.3935963 C205.854515,48.1578511 201.635147,78.5646541 181.944764,79.9467815 C162.254381,81.3289089 143,55.3310924 143,55.3310924 Z" id="Path" fill="#84253E" fill-rule="nonzero"></path>
                    <path d="M110.062967,19 C110.062967,19 141.516036,47.9706576 142.945721,54.8684332 C144.375406,61.7662088 117.211392,78.3208703 102.914542,54.8684332 C88.6176925,31.4159961 110.062967,19 110.062967,19 Z" id="Path" fill="#84253E" fill-rule="nonzero"></path>
                    <ellipse id="Oval" fill="#F9AE25" fill-rule="nonzero" cx="168" cy="20.5" rx="14" ry="13.5"></ellipse>
                    <ellipse id="Oval" fill="#F9AE25" fill-rule="nonzero" cx="142" cy="13.5" rx="14" ry="13.5"></ellipse>
                </g>
                <path d="M136,165 C136,165 114.039995,132.170756 56.6061359,130.761849 C56.6061359,130.761849 22.8215129,68.2436975 0,64" id="Path" stroke="#FFC967" opacity="0.583379836"></path>
                <path d="M136,242 C136,242 88.4929193,176.875817 30.3085714,173.599129 C30.3085714,173.599129 12.6708075,149.553014 0,148" id="Path" stroke="#FFC967" opacity="0.583379836"></path>
                <path d="M298.100475,252 C298.100475,252 312.317312,270.60307 291.540496,298.704898 C270.763681,326.806727 253.639581,350.516313 260.561636,368 C260.561636,368 291.902573,315.826119 317.418334,315.101186 C342.934095,314.376252 326.161423,283.406672 298.100475,252 Z" id="Path" fill="#EF305E" fill-rule="nonzero"></path>
                <path d="M325,275.177695 C325,281.705478 324.327922,287 323.5,287 C322.672078,287 322,281.684215 322,275.177695 C322,268.671174 322.837662,271.722434 323.665584,271.722434 C324.493506,271.722434 325,268.649911 325,275.177695 Z" id="Path" fill="#F9AE25" fill-rule="nonzero"></path>
                <path d="M334.437792,283.514151 C328.581629,286.684612 323.464277,288.604143 323.029682,287.827703 C322.595087,287.051264 326.984494,283.794532 332.808062,280.624072 C338.631631,277.453611 336.360874,279.761361 336.795469,280.570152 C337.230063,281.378943 340.337415,280.343691 334.437792,283.514151 Z" id="Path" fill="#F9AE25" fill-rule="nonzero"></path>
                <path d="M222.899525,252 C222.899525,252 208.682688,270.60307 229.459504,298.704898 C250.236319,326.806727 267.360419,350.516313 260.438364,368 C260.438364,368 229.097427,315.826119 203.581666,315.101186 C178.065905,314.376252 194.838577,283.406672 222.899525,252 Z" id="Path" fill="#EF305E" fill-rule="nonzero"></path>
                <path d="M197,275.177695 C197,281.705478 197.672078,287 198.5,287 C199.327922,287 200,281.684215 200,275.177695 C200,268.671174 199.162338,271.722434 198.334416,271.722434 C197.506494,271.722434 197,268.649911 197,275.177695 Z" id="Path" fill="#F9AE25" fill-rule="nonzero"></path>
                <path d="M187.558936,283.514151 C193.416775,286.684612 198.535591,288.604143 198.97031,287.827703 C199.405029,287.051264 195.014367,283.794532 189.189133,280.624072 C183.363898,277.453611 185.635305,279.761361 185.200586,280.570152 C184.765867,281.378943 181.668494,280.343691 187.558936,283.514151 Z" id="Path" fill="#F9AE25" fill-rule="nonzero"></path>
            </g>
        </g>
    </g>
</svg>