<?xml version="1.0" encoding="UTF-8"?>
<svg width="21px" height="24px" viewBox="0 0 21 24" version="1.1" xmlns="http://www.w3.org/2000/svg" xmlns:xlink="http://www.w3.org/1999/xlink">
    <!-- Generator: Sketch 54.1 (76490) - https://sketchapp.com -->
    <title>Group 23</title>
    <desc>Created with Sketch.</desc>
    <g id="New-UI" stroke="none" stroke-width="1" fill="none" fill-rule="evenodd">
        <g id="9.-Income-&amp;-Expenses-1" transform="translate(-561.000000, -500.000000)" fill="#00A8A2" fill-rule="nonzero">
            <g id="Group-23" transform="translate(561.000000, 500.000000)">
                <path d="M19.5517241,6.46125 L16.2663103,6.46125 C16.9223793,5.7465 17.2887931,4.8195 17.2887931,3.83025 C17.2887931,2.80725 16.9042759,1.84575 16.2054828,1.122 C15.5081379,0.399 14.579069,-2.62012634e-13 13.592069,-2.62012634e-13 C12.605069,-2.62012634e-13 11.676,0.39825 10.9772069,1.122 C10.7903793,1.3155 10.6346897,1.56225 10.5007241,1.839 C10.3645862,1.56225 10.2096207,1.31625 10.0227931,1.122 C9.324,0.399 8.39637931,-2.62012634e-13 7.40793103,-2.62012634e-13 C6.42093103,-2.62012634e-13 5.49258621,0.39825 4.79451724,1.122 C4.09644828,1.84575 3.7112069,2.80725 3.7112069,3.83025 C3.7112069,4.8195 4.07762069,5.74725 4.73368966,6.46125 L1.44827586,6.46125 C0.648103448,6.46125 0,7.13325 0,7.96125 L0,9.97575 C0,10.80375 0.648103448,11.47575 1.44827586,11.47575 L19.5517241,11.47575 C20.3511724,11.47575 21,10.80375 21,9.97575 L21,7.96125 C21,7.1325 20.3504483,6.46125 19.5517241,6.46125 Z M12.0004138,2.1825 C12.4262069,1.743 12.9903103,1.5 13.5913448,1.5 C14.1923793,1.5 14.7564828,1.74225 15.1808276,2.1825 C15.6066207,2.62275 15.8397931,3.20775 15.8397931,3.83025 C15.8397931,4.45275 15.6066207,5.037 15.1808276,5.47725 C14.7181034,5.9565 13.1807586,6.2715 11.2364483,6.29025 C11.235,6.10875 11.2321034,5.90775 11.2248621,5.691 C11.282069,4.26075 11.5152414,2.68575 12.0004138,2.1825 Z M5.817,2.1825 C6.24134483,1.743 6.80689655,1.5 7.40648276,1.5 C8.00751724,1.5 8.57306897,1.74225 8.99741379,2.1825 C9.48403448,2.68575 9.71575862,4.26075 9.77224138,5.691 C9.765,5.9085 9.76210345,6.1095 9.76210345,6.29025 C7.81706897,6.2715 6.27827586,5.9565 5.81627586,5.47725 C5.39048276,5.037 5.15731034,4.452 5.15731034,3.83025 C5.15731034,3.2085 5.3912069,2.62275 5.817,2.1825 Z" id="Shape"></path>
                <path d="M1.5387931,21.6675 C1.5387931,22.91025 2.51058621,23.9175 3.7112069,23.9175 L8.32758621,23.9175 L8.32758621,12.97575 L1.5387931,12.97575 L1.5387931,21.6675 Z" id="Path"></path>
                <path d="M12.6724138,23.9175 L17.2887931,23.9175 C18.4879655,23.9175 19.4612069,22.91025 19.4612069,21.6675 L19.4612069,12.97575 L12.6724138,12.97575 L12.6724138,23.9175 L12.6724138,23.9175 Z" id="Path"></path>
            </g>
        </g>
    </g>
</svg>