<?xml version="1.0" encoding="UTF-8"?>
<svg width="40px" height="40px" viewBox="0 0 40 40" version="1.1" xmlns="http://www.w3.org/2000/svg" xmlns:xlink="http://www.w3.org/1999/xlink">
    <!-- Generator: Sketch 58 (84663) - https://sketch.com -->
    <title>Group 103</title>
    <desc>Created with Sketch.</desc>
    <g id="New-UI" stroke="none" stroke-width="1" fill="none" fill-rule="evenodd">
        <g id="Group-103">
            <g id="Group-32-Copy">
                <g id="Group-35">
                    <circle id="Oval-Copy-13" fill="#65D48E" opacity="0.120419457" cx="20" cy="20" r="20"></circle>
                    <circle id="Oval-Copy-14" fill="#65D48E" opacity="0.232538132" cx="20" cy="20" r="16.8421053"></circle>
                    <g id="Group" transform="translate(10.526316, 9.473684)" fill="#005263">
                        <path d="M15.8792887,12.9306532 C15.7618383,13.2918446 15.5504277,13.8456715 15.2685468,14.4235778 C15.4094872,14.832928 15.4094872,15.338596 15.1276064,15.9165023 C15.0571361,16.0609789 14.9631759,16.2054555 14.8692156,16.349932 C14.6108248,16.7111235 14.2584737,17.0963943 13.8591425,17.529824 C13.8356524,17.5539035 13.8121623,17.5779829 13.7886723,17.6261418 C13.694712,17.7224595 13.5302815,17.7706183 13.4128311,17.6743006 C13.2718907,17.5779829 13.2484006,17.361268 13.365851,17.2408709 C13.389341,17.2167915 13.4363212,17.1686326 13.4598113,17.1445532 C13.9531028,16.5907263 14.4229042,16.0609789 14.6343148,15.6516286 C15.010156,14.9051663 14.7517652,14.3994983 14.3994141,14.1827835 C14.0940432,14.0142275 13.694712,14.0142275 13.4833013,14.3513395 C13.1544403,14.832928 12.7081289,15.3626755 12.2853077,15.8683435 C11.7920161,16.4462498 11.2987246,17.0482355 11.0168438,17.529824 C10.7114728,18.0595715 10.3121416,19.3357812 10.2181813,20.6842292 C10.1712012,21.3343738 10.1477111,22.0808361 10.1477111,22.5383452 C10.1477111,22.7791395 10.3121416,22.9476955 10.5470423,22.9476955 L13.1309502,22.9476955 C13.3423609,22.9476955 13.5302815,22.7550601 13.5302815,22.5383452 L13.5302815,21.7918829 C13.5302815,21.6233269 13.6242418,21.4547709 13.7651822,21.3343738 C14.681295,20.6842292 15.5504277,19.9136875 16.0437192,19.3357812 C17.1007724,18.0836509 17.4766136,14.3513395 17.5470838,13.2436857 C17.5705738,12.1601115 16.2081497,11.8952377 15.8792887,12.9306532 Z" id="Path" fill-rule="nonzero"></path>
                        <path d="M7.77521383,17.5539035 C7.49333296,17.0723149 7.00004145,16.4703292 6.50674994,15.8924229 C6.08392865,15.3867549 5.63761728,14.8810869 5.30875627,14.3754189 C5.09734562,14.0383069 4.67452433,14.0383069 4.39264346,14.2068629 C4.04029238,14.4235778 3.78190159,14.9292458 4.15774274,15.675708 C4.36915339,16.0850583 4.83895483,16.6148058 5.33224634,17.1686326 C5.35573641,17.192712 5.40271656,17.2408709 5.42620663,17.2649503 C5.54365699,17.3853475 5.52016692,17.6020623 5.37922649,17.69838 C5.26177613,17.7706183 5.09734562,17.7465389 5.00338533,17.6502212 C4.97989526,17.6261418 4.95640519,17.6020623 4.93291512,17.5539035 C4.53358389,17.1204738 4.18123281,16.7352029 3.94633209,16.3740115 C3.85237181,16.2295349 3.75841152,16.0850583 3.6879413,15.9405818 C3.40606044,15.3626755 3.38257037,14.832928 3.54700087,14.4476572 C3.28861008,13.8697509 3.05370936,13.315924 2.936259,12.9547326 C2.63088806,11.9193172 1.24497382,12.1841909 1.29195396,13.2918446 C1.3389341,14.3994983 1.73826533,18.1318098 2.79531857,19.3839401 C3.28861008,19.9618463 4.15774274,20.7323881 5.07385555,21.3825326 C5.21479598,21.4788503 5.30875627,21.6474063 5.30875627,21.8400418 L5.30875627,22.5865041 C5.30875627,22.8032189 5.49667685,22.9958543 5.70808749,22.9958543 L8.29199541,22.9958543 C8.52689613,22.9958543 8.69132664,22.8032189 8.69132664,22.5865041 C8.69132664,22.1289949 8.66783656,21.3825326 8.62085642,20.7323881 C8.50340606,19.3598606 8.10407484,18.0836509 7.77521383,17.5539035 Z" id="Path" fill-rule="nonzero"></path>
                        <path d="M13.7886723,9.5836126 C13.7886723,7.10343145 11.8155062,5.08075944 9.3960288,5.08075944 C6.97655138,5.08075944 5.00338533,7.10343145 5.00338533,9.5836126 C5.00338533,12.0637937 6.97655138,14.0864658 9.3960288,14.0864658 C11.8155062,14.0864658 13.7886723,12.0637937 13.7886723,9.5836126 Z M9.77186995,11.8229995 L9.77186995,12.4009057 C9.77186995,12.473144 9.7248898,12.5213029 9.65441959,12.5213029 L9.11414793,12.5213029 C9.04367772,12.5213029 8.99669757,12.473144 8.99669757,12.4009057 L8.99669757,11.8470789 C8.45642592,11.79892 8.01011455,11.3654903 7.93964433,10.8116635 C7.93964433,10.7394252 7.98662448,10.6912663 8.05709469,10.6912663 L8.59736635,10.6912663 C8.64434649,10.6912663 8.69132664,10.7153457 8.69132664,10.7635046 C8.73830678,10.9320606 8.87924721,11.0765372 9.06716779,11.0765372 L9.53696923,11.0765372 C9.81885009,11.0765372 10.0772409,10.8598223 10.100731,10.5949486 C10.124221,10.2578366 9.88932031,9.99296288 9.5604593,9.99296288 L9.20810822,9.99296288 C8.52689613,9.99296288 7.93964433,9.48729488 7.86917412,8.81307088 C7.7987039,8.09068802 8.31548548,7.46462288 8.9732075,7.36830516 L8.9732075,6.8144783 C8.9732075,6.76631945 9.02018764,6.69408116 9.09065786,6.69408116 L9.63092952,6.69408116 C9.67790966,6.69408116 9.74837988,6.74224002 9.74837988,6.8144783 L9.74837988,7.36830516 C10.2886515,7.41646402 10.7349629,7.84989374 10.8054331,8.40372059 C10.8054331,8.47595888 10.758453,8.52411774 10.6879828,8.52411774 L10.1477111,8.52411774 C10.100731,8.52411774 10.0537508,8.50003831 10.0537508,8.45187945 C10.0067707,8.28332345 9.86583024,8.13884688 9.67790966,8.13884688 L9.20810822,8.13884688 C8.92622736,8.13884688 8.66783656,8.35556174 8.64434649,8.62043545 C8.62085642,8.95754745 8.85575714,9.22242117 9.18461815,9.22242117 L9.58394937,9.22242117 C10.3356317,9.22242117 10.9463735,9.89664517 10.8759033,10.6671869 C10.8289232,11.2691726 10.3356317,11.7266817 9.77186995,11.8229995 Z" id="Shape" fill-rule="nonzero"></path>
                        <circle id="Oval" cx="9.5" cy="9.5" r="3.5"></circle>
                        <path d="M9.3960288,3.58783487 C9.81885009,3.58783487 10.1477111,3.25072287 10.1477111,2.81729315 L10.1477111,0.890938859 C10.1477111,0.457509144 9.81885009,0.120397143 9.3960288,0.120397143 C8.9732075,0.120397143 8.64434649,0.457509144 8.64434649,0.890938859 L8.64434649,2.81729315 C8.64434649,3.25072287 8.9732075,3.58783487 9.3960288,3.58783487 Z" id="Path" fill-rule="nonzero"></path>
                        <path d="M4.20472289,5.34563316 C4.34566332,5.49010973 4.53358389,5.56234801 4.74499454,5.56234801 C4.95640519,5.56234801 5.12083569,5.49010973 5.2852662,5.34563316 C5.59063713,5.03260058 5.59063713,4.55101201 5.2852662,4.26205887 L3.92284202,2.88953144 C3.61747109,2.57649886 3.14766965,2.57649886 2.86578878,2.88953144 C2.56041785,3.20256401 2.56041785,3.68415258 2.86578878,3.97310572 L4.20472289,5.34563316 Z" id="Path" fill-rule="nonzero"></path>
                        <path d="M3.54700087,9.5836126 C3.54700087,9.15018288 3.21813986,8.81307088 2.79531857,8.81307088 L0.916112808,8.81307088 C0.493291512,8.81307088 0.164430504,9.15018288 0.164430504,9.5836126 C0.164430504,10.0170423 0.493291512,10.3541543 0.916112808,10.3541543 L2.79531857,10.3541543 C3.21813986,10.3541543 3.54700087,10.0170423 3.54700087,9.5836126 Z" id="Path" fill-rule="nonzero"></path>
                        <path d="M17.8759448,8.81307088 L15.996739,8.81307088 C15.5739177,8.81307088 15.2450567,9.15018288 15.2450567,9.5836126 C15.2450567,10.0170423 15.5739177,10.3541543 15.996739,10.3541543 L17.8759448,10.3541543 C18.2987661,10.3541543 18.6276271,10.0170423 18.6276271,9.5836126 C18.6276271,9.17426231 18.2987661,8.81307088 17.8759448,8.81307088 Z" id="Path" fill-rule="nonzero"></path>
                        <path d="M14.0705531,5.58642744 C14.2584737,5.58642744 14.4463943,5.51418916 14.6108248,5.36971259 L15.9497589,3.99718515 C16.2551298,3.68415258 16.2551298,3.20256401 15.9497589,2.91361086 C15.6443879,2.62465772 15.1745865,2.60057829 14.8927056,2.91361086 L13.5537715,4.2861383 C13.2484006,4.59917087 13.2484006,5.08075944 13.5537715,5.36971259 C13.6712219,5.51418916 13.8591425,5.58642744 14.0705531,5.58642744 Z" id="Path" fill-rule="nonzero"></path>
                    </g>
                </g>
                <g id="Group-11-Copy-3" transform="translate(6.315789, 8.000000)">
                    <circle id="Oval" fill="#005263" opacity="0.52" cx="1.05263158" cy="11.3263158" r="1.05263158"></circle>
                    <circle id="Oval-Copy-10" fill="#005263" opacity="0.52" cx="9.6" cy="0.8" r="1"></circle>
                    <circle id="Oval-Copy-2" fill="#005263" opacity="0.523809524" cx="22.1052632" cy="1.85263158" r="1.05263158"></circle>
                    <circle id="Oval-Copy-36" fill="#47A395" opacity="0.287252604" cx="22.8842105" cy="23.1789474" r="1"></circle>
                </g>
            </g>
            <g id="rupee" transform="translate(18.000000, 17.000000)" fill="#FFFFFF" fill-rule="nonzero" stroke="#FFFFFF" stroke-width="0.2">
                <path d="M3.82728843,1.3068884 L2.94991364,1.3068884 C2.89982729,0.900300895 2.63903282,0.522755359 2.25734024,0.290419644 L3.82728843,0.290419644 C3.92227979,0.290419644 4,0.225075224 4,0.145209822 C4,0.0653444198 3.92227979,0 3.82728843,0 L0.172711572,0 C0.0777202073,0 0,0.0653444198 0,0.145209822 C0,0.225075224 0.0777202073,0.290419644 0.172711572,0.290419644 L1.2193437,0.290419644 C1.93091537,0.290419644 2.51813472,0.740570091 2.60276339,1.3068884 L0.172711572,1.3068884 C0.0777202073,1.3068884 0,1.37223282 0,1.45209822 C0,1.53196362 0.0777202073,1.59730804 0.172711572,1.59730804 L2.60276339,1.59730804 C2.5164076,2.18540782 1.92227979,2.62684568 1.2193437,2.62829777 L0.174438687,2.62829777 C0.0777202073,2.62974987 0,2.69654639 0.00172711572,2.77786389 C0.00172711572,2.81707054 0.0224525043,2.8548251 0.0552677029,2.88241496 L2.66839378,4.96036751 C2.73747841,5.01554725 2.8462867,5.01264305 2.9119171,4.95455912 C2.9775475,4.89502309 2.97409326,4.80354091 2.90500864,4.74690907 L0.606217617,2.91871742 L1.21761658,2.91871742 C2.11917098,2.91871742 2.86355786,2.33787813 2.94991364,1.59730804 L3.82728843,1.59730804 C3.92227979,1.59730804 4,1.53196362 4,1.45209822 C4,1.37223282 3.92227979,1.3068884 3.82728843,1.3068884 Z" id="Path"></path>
            </g>
        </g>
    </g>
</svg>