<?xml version="1.0" encoding="UTF-8"?>
<svg width="18px" height="15px" viewBox="0 0 18 15" version="1.1" xmlns="http://www.w3.org/2000/svg" xmlns:xlink="http://www.w3.org/1999/xlink">
    <!-- Generator: Sketch 58 (84663) - https://sketch.com -->
    <title>black-back-closed-envelope-shape</title>
    <desc>Created with Sketch.</desc>
    <g id="New-UI" stroke="none" stroke-width="1" fill="none" fill-rule="evenodd">
        <g id="Chat-maximize-option-Copy" transform="translate(-236.000000, -324.000000)" fill="#005263" fill-rule="nonzero">
            <g id="black-back-closed-envelope-shape" transform="translate(236.000000, 324.000000)">
                <path d="M16.2522614,14.022137 C16.6534058,14.022137 17.000993,13.8896858 17.296481,13.628153 L12.2404934,8.57197091 C12.1191878,8.65883531 12.0016082,8.74330212 11.890541,8.82362172 C11.5121738,9.10239132 11.2050865,9.31992492 10.9692793,9.47580133 C10.7335045,9.63203413 10.4198077,9.79128013 10.0282213,9.95386333 C9.63637573,10.1166409 9.27132492,10.1977705 8.93268012,10.1977705 L8.92276572,10.1977705 L8.91285132,10.1977705 C8.57417411,10.1977705 8.20912331,10.1166733 7.8173101,9.95386333 C7.4254969,9.79128013 7.11180009,9.63203413 6.87625209,9.47580133 C6.64047729,9.31992492 6.33355208,9.10242372 5.95499048,8.82362172 C5.84949608,8.74628292 5.73249968,8.66142731 5.60601007,8.57061011 L0.549050407,13.628153 C0.844506011,13.8896858 1.19232002,14.022137 1.59343202,14.022137 L16.2522614,14.022137 L16.2522614,14.022137 Z" id="Path"></path>
                <path d="M1.00592281,5.38808767 C0.627588008,5.13585367 0.292086004,4.84697526 0,4.52158206 L0,12.2141522 L4.45632846,7.7578237 C3.56481005,7.13541969 2.41613283,6.34641488 1.00592281,5.38808767 Z" id="Path"></path>
                <path d="M16.8499118,5.38808767 C15.4934858,6.30617408 14.340629,7.09653969 13.3912118,7.7596057 L17.8457582,12.2143466 L17.8457582,4.52158206 C17.5601522,4.84043046 17.2282466,5.12911447 16.8499118,5.38808767 Z" id="Path"></path>
                <path d="M16.2522614,0.000421200006 L1.59346442,0.000421200006 C1.08206281,0.000421200006 0.688888809,0.173113202 0.413456405,0.518140807 C0.137797202,0.863330411 0.000194400003,1.29502802 0.000194400003,1.81274762 C0.000194400003,2.23093443 0.182800802,2.68404844 0.547851607,3.17221924 C0.912902412,3.66019565 1.30134602,4.04348765 1.71298802,4.32228966 C1.93865403,4.48173006 2.61918363,4.95483487 3.75457685,5.74144208 C4.36748766,6.16617368 4.90050006,6.53637609 5.35853887,6.85584009 C5.74895888,7.12787049 6.08565968,7.3634509 6.36365168,7.5589525 C6.39556568,7.5813409 6.44575329,7.6172401 6.51236769,7.6648681 C6.58413369,7.7164165 6.67495089,7.7818321 6.78699009,7.8627349 C7.00274169,8.01877331 7.1819785,8.14490651 7.3247329,8.24126411 C7.4672929,8.33765411 7.6400173,8.44531931 7.8426469,8.56487531 C8.04511451,8.68426932 8.23608011,8.77404972 8.41531691,8.83376292 C8.59458611,8.89344372 8.76053892,8.92338132 8.91320772,8.92338132 L8.92312212,8.92338132 L8.93303652,8.92338132 C9.08567292,8.92338132 9.25165812,8.89344372 9.43095972,8.83376292 C9.61016413,8.77404972 9.80096773,8.68446372 10.0035973,8.56487531 C10.2060325,8.44531931 10.3785301,8.33742731 10.5215437,8.24126411 C10.6642981,8.14490651 10.8435349,8.01880571 11.0593189,7.8627349 C11.1711313,7.7818321 11.2619485,7.7163841 11.3337146,7.6650301 C11.4003614,7.6172077 11.4505166,7.5815353 11.482625,7.5589525 C11.6991866,7.4082601 12.036665,7.1736517 12.4903946,6.85859409 C13.3160114,6.28495208 14.5319186,5.44064047 16.1432354,4.32228966 C16.6278422,3.98380685 17.0327126,3.57534005 17.3581058,3.09747244 C17.6829158,2.61960483 17.8457582,2.11834443 17.8457582,1.59385322 C17.8457582,1.15564322 17.687873,0.78067801 17.372783,0.468374406 C17.0573366,0.156459602 16.683797,0.000421200006 16.2522614,0.000421200006 Z" id="Path"></path>
            </g>
        </g>
    </g>
</svg>