<?xml version="1.0" encoding="UTF-8"?>
<svg width="45px" height="45px" viewBox="0 0 45 45" version="1.1" xmlns="http://www.w3.org/2000/svg" xmlns:xlink="http://www.w3.org/1999/xlink">
    <!-- Generator: Sketch 54.1 (76490) - https://sketchapp.com -->
    <title>Group 54</title>
    <desc>Created with Sketch.</desc>
    <g id="New-UI" stroke="none" stroke-width="1" fill="none" fill-rule="evenodd">
        <g id="Group-54">
            <g id="Group-29">
                <g id="Group-5">
                    <circle id="Oval-Copy-24" fill="#65D48E" opacity="0.120419457" cx="22.5" cy="22.5" r="22.5"></circle>
                    <circle id="Oval-Copy-25" fill="#65D48E" opacity="0.232538132" cx="22.5" cy="22.5" r="18.9473684"></circle>
                    <path d="M25.9571307,17.5203387 C26.7450127,15.801926 27.6283956,13.7597543 27.6283956,12.9379047 C27.6283956,11.9417234 26.4107598,11.3938237 25.6706282,12.4647186 C24.7156197,13.8593724 24.3097411,11.8421053 23.1876061,11.8421053 C22.0893463,11.8421053 21.5163413,13.7348497 20.6568336,12.4647186 C19.8689516,11.3440146 18.5558149,12.0413415 18.5558149,12.9379047 C18.5558149,14.0337041 19.3914474,16.0011622 20.1793294,17.5950523 C17.5053056,19.7866512 14.2105263,23.8709945 14.2105263,27.5817699 C14.2105263,32.9860535 18.1976868,35.5263158 23.0921053,35.5263158 C27.9865238,35.5263158 31.9736842,32.9860535 31.9736842,27.5817699 C31.9736842,23.84609 28.6550297,19.7119376 25.9571307,17.5203387 Z M20.5613328,22.7004815 C21.3014643,22.7004815 21.8983447,23.3230948 21.8983447,24.0951353 C21.8983447,24.8671758 21.3014643,25.4897891 20.5613328,25.4897891 C19.8212012,25.4897891 19.2243209,24.8671758 19.2243209,24.0951353 C19.2243209,23.3230948 19.8212012,22.7004815 20.5613328,22.7004815 Z M20.919461,30.1469367 C20.7762097,30.2963639 20.5613328,30.3959821 20.3703311,30.3959821 C20.1793294,30.3959821 19.9644525,30.3212685 19.8212012,30.1469367 C19.5108234,29.8231778 19.5108234,29.3001826 19.8212012,29.0013282 L25.2886248,23.2981903 C25.5990025,22.9744313 26.100382,22.9744313 26.3868846,23.2981903 C26.6733871,23.6219492 26.6972623,24.1449444 26.3868846,24.4437988 L20.919461,30.1469367 Z M25.6228778,30.7695501 C24.8827462,30.7695501 24.2858659,30.1469367 24.2858659,29.3748962 C24.2858659,28.6028557 24.8827462,27.9802424 25.6228778,27.9802424 C26.3630093,27.9802424 26.9598896,28.6028557 26.9598896,29.3748962 C26.9598896,30.1469367 26.3630093,30.7695501 25.6228778,30.7695501 Z" id="Shape" fill="#005263" fill-rule="nonzero"></path>
                </g>
                <g id="Group-11-Copy-5" transform="translate(7.105263, 9.000000)" fill="#005263">
                    <circle id="Oval" opacity="0.52" cx="1.18421053" cy="12.7421053" r="1.18421053"></circle>
                    <circle id="Oval-Copy-10" opacity="0.52" cx="10.8" cy="0.9" r="1"></circle>
                    <circle id="Oval-Copy-2" opacity="0.523809524" cx="24.8684211" cy="2.08421053" r="1.18421053"></circle>
                    <circle id="Oval-Copy-36" opacity="0.287252604" cx="25.7447368" cy="26.0763158" r="1"></circle>
                </g>
            </g>
        </g>
    </g>
</svg>