<?xml version="1.0" encoding="UTF-8"?>
<svg width="40px" height="40px" viewBox="0 0 40 40" version="1.1" xmlns="http://www.w3.org/2000/svg" xmlns:xlink="http://www.w3.org/1999/xlink">
    <!-- Generator: Sketch 54.1 (76490) - https://sketchapp.com -->
    <title>Group 43</title>
    <desc>Created with Sketch.</desc>
    <g id="New-UI" stroke="none" stroke-width="1" fill="none" fill-rule="evenodd">
        <g id="1.-About-you" transform="translate(-15.000000, -241.000000)">
            <g id="Group-43" transform="translate(15.000000, 241.000000)">
                <g id="Group-40">
                    <circle id="Oval" fill="#65D48E" opacity="0.121954055" cx="20" cy="20" r="20"></circle>
                    <circle id="Oval" fill="#65D48E" opacity="0.225678943" cx="20" cy="20" r="16.8421053"></circle>
                    <g id="Group-11" transform="translate(6.315789, 7.621053)">
                        <circle id="Oval" fill="#47A395" opacity="0.52" cx="1.05263158" cy="11.3263158" r="1.05263158"></circle>
                        <circle id="Oval-Copy-10" fill="#47A395" opacity="0.52" cx="9.6" cy="0.8" r="1"></circle>
                        <circle id="Oval-Copy-2" fill="#47A395" opacity="0.523809524" cx="22.1052632" cy="1.85263158" r="1.05263158"></circle>
                        <circle id="Oval-Copy-36" fill="#A772BB" opacity="0.287252604" cx="22.8842105" cy="23.1789474" r="1"></circle>
                    </g>
                    <g id="Group" transform="translate(9.473684, 10.526316)" fill="#005263" fill-rule="nonzero">
                        <path d="M9.47368421,7.89465789 C8.16584211,7.89465789 7.10526316,8.95547368 7.10526316,10.2630789 C7.10526316,11.5713947 8.16584211,12.6315 9.47368421,12.6315 C10.782,12.6315 11.8421053,11.5713947 11.8421053,10.2630789 C11.8421053,8.95571053 10.782,7.89465789 9.47368421,7.89465789 Z" id="Path"></path>
                        <path d="M13.4211316,18.9473684 L13.4211316,15.7895526 C13.4211316,14.9212895 12.7101316,14.2105263 11.8421053,14.2105263 L7.10526316,14.2105263 C6.23676316,14.2105263 5.52623684,14.9212895 5.52623684,15.7895526 L5.52623684,18.9473684 L13.4211316,18.9473684 Z" id="Path"></path>
                        <path d="M14.2105263,1.84741111e-13 C12.4673684,1.84741111e-13 11.0527105,1.41394737 11.0527105,3.15781579 C11.0527105,4.90168421 12.4673684,6.31586842 14.2105263,6.31586842 C15.9551053,6.31586842 17.3683421,4.90192105 17.3683421,3.15805263 C17.3683421,1.41418421 15.9551053,1.84741111e-13 14.2105263,1.84741111e-13 Z" id="Path"></path>
                        <path d="M4.73684211,2.36842105 C3.21157895,2.36842105 1.97360526,3.60592105 1.97360526,5.13165789 C1.97360526,6.65810526 3.21134211,7.89489474 4.73684211,7.89489474 C6.26328947,7.89489474 7.50007895,6.65810526 7.50007895,5.13165789 C7.50007895,3.60592105 6.26328947,2.36842105 4.73684211,2.36842105 Z" id="Path"></path>
                        <path d="M5.92105263,12.8666842 L5.92105263,9.47368421 L1.57902632,9.47368421 C0.710526316,9.47368421 0,10.1844474 0,11.0527105 L0,15.7895526 L3.94744737,15.7895526 C3.94744737,14.4672632 4.76573684,13.3363421 5.92105263,12.8666842 Z" id="Path"></path>
                        <path d="M17.3683421,7.89465789 L13.0263158,7.89465789 L13.0263158,12.8666842 C14.1811579,13.3361053 14.9999211,14.4672632 14.9999211,15.7895526 L18.9473684,15.7895526 L18.9473684,9.47368421 C18.9473684,8.60542105 18.2366053,7.89465789 17.3683421,7.89465789 Z" id="Path"></path>
                    </g>
                    <circle id="Oval-Copy-4" fill="#634FB9" opacity="0.287252604" cx="14" cy="24.4" r="1"></circle>
                </g>
            </g>
        </g>
    </g>
</svg>