<?xml version="1.0" encoding="UTF-8"?>
<svg width="40px" height="40px" viewBox="0 0 40 40" version="1.1" xmlns="http://www.w3.org/2000/svg" xmlns:xlink="http://www.w3.org/1999/xlink">
    <!-- Generator: Sketch 54.1 (76490) - https://sketchapp.com -->
    <title>Group 34</title>
    <desc>Created with Sketch.</desc>
    <g id="New-UI" stroke="none" stroke-width="1" fill="none" fill-rule="evenodd">
        <g id="1.-About-you" transform="translate(-15.000000, -306.000000)">
            <g id="Group-34" transform="translate(15.000000, 306.000000)">
                <circle id="Oval-Copy" fill="#65D48E" opacity="0.120419457" cx="20" cy="20" r="20"></circle>
                <circle id="Oval-Copy-5" fill="#65D48E" opacity="0.232538132" cx="20" cy="20" r="16.8421053"></circle>
                <g id="Group-3" transform="translate(9.473684, 10.526316)" fill="#005263" fill-rule="nonzero">
                    <path d="M16.780461,6.36788003 C18.503109,9.76537511 17.5013113,13.9110405 14.417338,16.1470183 C11.3333646,18.3829962 7.08168825,18.046265 4.38813218,15.3527089 C1.6945761,12.6591528 1.35784488,8.40747645 3.59382274,5.32350309 C5.82980059,2.23952973 9.97546596,1.23773211 13.372961,2.96038003 L14.937961,1.39538003 C10.6556005,-1.15924694 5.14074004,-0.12143747 2.07990686,3.81506234 C-0.980926322,7.75156215 -0.627722933,13.3520962 2.90341061,16.872867 C6.43454415,20.3936377 12.0360921,20.7303795 15.9635791,17.6579902 C19.8910661,14.5856008 20.9126629,9.06771398 18.345461,4.79288003 L16.780461,6.36788003 Z" id="Path"></path>
                    <path d="M19.227961,3.14038003 L16.887961,2.85288003 L16.600461,0.512880031 L14.100461,3.01288003 L14.100461,4.71038003 L12.930461,5.88038003 L11.622961,7.17788003 L11.622961,7.17788003 L10.487961,8.31288003 C9.74848562,8.01531429 8.90172759,8.27921328 8.462243,8.94421145 C8.0227584,9.60920962 8.11192641,10.4916443 8.67556161,11.0552795 C9.23919681,11.6189147 10.1216315,11.7080827 10.7866296,11.2685981 C11.4516278,10.8291135 11.7155268,9.98235546 11.417961,9.24288003 L12.562961,8.11788003 L12.562961,8.11788003 L14.507961,6.17288003 L14.507961,6.17288003 L15.030461,5.65038003 L16.727961,5.65038003 L19.227961,3.14038003 Z" id="Path"></path>
                    <path d="M11.122961,6.91038003 L13.122961,4.91038003 C10.577302,3.24381849 7.18365649,3.77232855 5.26534866,6.13408686 C3.34704082,8.49584516 3.52550818,11.925758 5.67857018,14.0756723 C7.83163218,16.2255865 11.2618025,16.3990355 13.6207517,14.4772744 C15.9797008,12.5555132 16.5032452,9.16109806 14.832961,6.61788003 L12.832961,8.61788003 C13.4331923,10.0342201 12.9460411,11.677293 11.6708167,12.5375833 C10.3955922,13.3978735 8.68964669,13.2343046 7.60112502,12.1473743 C6.51260336,11.060444 6.34653868,9.35473969 7.20496228,8.07825792 C8.06338588,6.80177614 9.7057443,6.3122216 11.122961,6.91038003 Z" id="Path"></path>
                </g>
                <g id="Group-11-Copy" transform="translate(6.315789, 7.200000)">
                    <circle id="Oval" fill="#005263" opacity="0.52" cx="1.05263158" cy="11.3263158" r="1.05263158"></circle>
                    <circle id="Oval-Copy-10" fill="#005263" opacity="0.52" cx="9.6" cy="0.8" r="1"></circle>
                    <circle id="Oval-Copy-2" fill="#005263" opacity="0.523809524" cx="22.1052632" cy="1.85263158" r="1.05263158"></circle>
                    <circle id="Oval-Copy-36" fill="#47A395" opacity="0.287252604" cx="22.8842105" cy="23.1789474" r="1"></circle>
                </g>
            </g>
        </g>
    </g>
</svg>