<?xml version="1.0" encoding="utf-8"?>
<!-- Generator: Adobe Illustrator 22.0.1, SVG Export Plug-In . SVG Version: 6.00 Build 0)  -->
<svg version="1.1" id="Layer_1" xmlns="http://www.w3.org/2000/svg" xmlns:xlink="http://www.w3.org/1999/xlink" x="0px" y="0px"
	 viewBox="0 0 361.4 542.5" style="enable-background:new 0 0 361.4 542.5;" xml:space="preserve">
<style type="text/css">
	.st0{fill:#FFFFFF;}
	.st1{fill:none;stroke:#000000;stroke-width:5;}
</style>
<g transform="translate(-46.445 -49.95)">
	<path class="st0" d="M407.9,50l-0.3,542.5l-67.2-0.1L151.2,345.6c34.3-5.3,57.4-10.9,69.4-16.8c18-8.8,56.5-32.8,66.7-52.2
		c6.8-13,14.5-30.7,23-53.3l1.1-8.5h56l33.2-54.2h-92c-5.1-22-9.4-35.1-12.8-39.4s-6.2-8.3-8.4-11.9l80.1,0.5L400.8,50L407.9,50z"/>
	<path class="st0" d="M46.4,50.1V592l209.1,0L71.2,352.9v-52.1c48.4,0.6,80-1.4,94.9-6c22.3-6.9,49.9-18.7,60.1-42.1
		c6.8-15.6,11.5-29.2,14.1-40.7H55.1v-5.2l30.3-50.3h146.3c-11.4-22.1-26.6-35.7-45.4-40.9s-50.8-8.2-95.8-9.4H55.1l31.7-56.1
		L46.4,50.1z"/>
	<path class="st1" d="M54.6,106.9c57.6-1.1,98,0.6,121.4,5.2s41.9,19.3,55.7,44.3H85.4l-33.2,55.5h188
		c-9.3,45.8-31.4,72.7-66.5,80.8s-69.3,10.8-102.6,8v52.1l182.2,236.6H340L150.7,342.7c47.5-4.5,84.4-18.4,110.6-41.9
		c26.2-23.5,42.8-53.1,49.6-88.9h56l33.2-54.2h-92c-0.9-9.6-3.1-18.6-6.6-27s-8.3-16.4-14.4-23.8h79.9l33.2-54.3H85.4L54.6,106.9z"
		/>
</g>
</svg>
