<?xml version="1.0" encoding="UTF-8"?>
<svg width="9px" height="12px" viewBox="0 0 9 12" version="1.1" xmlns="http://www.w3.org/2000/svg" xmlns:xlink="http://www.w3.org/1999/xlink">
    <!-- Generator: Sketch 53.2 (72643) - https://sketchapp.com -->
    <title>Shape</title>
    <desc>Created with Sketch.</desc>
    <g id="Page-1" stroke="none" stroke-width="1" fill="none" fill-rule="evenodd">
        <g id="Contact-Us" transform="translate(-1000.000000, -581.000000)" fill="#FFFFFF" fill-rule="nonzero">
            <g id="Group-9" transform="translate(998.000000, 520.000000)">
                <g id="Group-8" transform="translate(2.000000, 58.000000)">
                    <g id="noun_Location_2524635" transform="translate(0.000000, 3.000000)">
                        <path d="M0,4.4892648 C0,6.72218608 3.71347826,11.0982433 4.5,12 C5.28652174,11.0943396 9,6.71828237 9,4.4892648 C9,2.0143136 6.98086957,0 4.5,0 C2.01913043,0 0,2.0143136 0,4.4892648 Z M6.26086957,4.4892648 C6.26086957,5.45738452 5.47043478,6.24593364 4.5,6.24593364 C3.52956522,6.24593364 2.73913043,5.45738452 2.73913043,4.4892648 C2.73913043,3.52114509 3.52956522,2.73259597 4.5,2.73259597 C5.47043478,2.73259597 6.26086957,3.52114509 6.26086957,4.4892648 Z" id="Shape"></path>
                    </g>
                </g>
            </g>
        </g>
    </g>
</svg>