<?xml version="1.0" encoding="UTF-8"?>
<svg width="892px" height="810px" viewBox="0 0 892 810" version="1.1" xmlns="http://www.w3.org/2000/svg" xmlns:xlink="http://www.w3.org/1999/xlink">
    <!-- Generator: Sketch 53.2 (72643) - https://sketchapp.com -->
    <title>step1</title>
    <desc>Created with Sketch.</desc>
    <g id="Page-1" stroke="none" stroke-width="1" fill="none" fill-rule="evenodd">
        <g id="1st"></g>
        <g id="step1">
            <g id="Group-83">
                <path d="M198.866349,663.38938 C198.866349,667.94838 178.555349,671.64438 153.502349,671.64438 C128.448349,671.64438 108.137349,667.94838 108.137349,663.38938 C108.137349,658.82938 128.448349,655.13438 153.502349,655.13438 C178.555349,655.13438 198.866349,658.82938 198.866349,663.38938" id="Fill-1" fill="#DBDBDA"></path>
                <path d="M135.006449,180.53048 C135.086449,179.99248 135.164449,179.45248 135.240449,178.91048 C138.638449,154.70948 139.768449,129.15248 152.791449,107.68648 C165.145449,87.3244802 185.945449,74.7994802 207.256449,65.5114802 C235.368449,53.2604802 251.416449,48.2144802 281.737449,53.9494802 C303.989449,58.1584802 309.453449,46.2024802 321.715449,31.6544802 C342.273449,7.26548023 375.416449,-2.89051977 406.537449,0.703480226 C442.558449,4.86348023 461.465449,35.5294802 495.199449,41.7364802 C513.680449,45.1364802 527.635449,36.3664802 543.247449,28.1834802 C561.795449,18.4604802 576.717449,17.0434802 597.408449,19.8114802 C675.863449,30.3054802 740.563449,88.1674802 759.769449,164.96248 C766.159449,190.51448 766.858449,217.03848 762.773449,243.01448 C759.036449,266.77048 748.647449,289.69448 758.402449,313.31848 C764.110449,327.14348 773.761449,338.91148 783.242449,350.48048 C821.058449,396.62048 848.915449,442.61348 856.687449,502.67148 C860.766449,534.19748 857.038449,566.36548 848.897449,596.95648 C843.014449,619.06048 816.975449,657.37448 825.054449,680.09548 C830.019449,694.05748 848.407449,700.60348 858.846449,709.77948 C871.964449,721.31148 890.272449,737.60348 890.272449,756.72148 C901.600449,795.34148 851.761449,803.59548 824.199449,806.39848 C783.052449,810.58048 733.505449,814.81048 696.433449,794.90548 C656.265449,773.33848 613.167449,752.77648 566.590449,752.68948 C510.433449,752.58348 458.686449,779.13148 404.764449,791.13448 C349.687449,803.39448 282.579449,796.66148 227.854449,784.80848 C174.320449,773.21148 122.290449,749.60248 83.7914486,710.64048 C44.1154486,670.48748 20.9894486,616.28148 9.86044862,560.94148 C-0.970551383,507.09148 -4.93055138,447.28548 8.65144862,393.55348 C24.6364486,330.31648 79.6934486,303.96648 109.900449,250.32048 C122.709449,227.57148 131.173449,206.25948 135.006449,180.53048" id="Fill-3" fill="#F4F8EA"></path>
                <polygon id="Fill-5" fill="#F9F5EF" points="532.276049 411.97728 550.638049 368.64428 623.127049 368.64428 623.127049 377.95728 611.247049 411.97728"></polygon>
                <path d="M307.774049,351.40258 L306.775049,346.40258 L331.702049,341.51958 L332.552049,346.57858 C332.552049,346.57858 308.899049,357.66058 307.774049,351.40258" id="Fill-7" fill="#D58070"></path>
                <path d="M563.957649,666.15108 L386.501649,666.15108 C366.283649,666.15108 349.894649,649.76108 349.894649,629.54408 L349.894649,221.04208 C349.894649,200.82408 366.283649,184.43508 386.501649,184.43508 L563.957649,184.43508 C584.174649,184.43508 600.563649,200.82408 600.563649,221.04208 L600.563649,629.54408 C600.563649,649.76108 584.174649,666.15108 563.957649,666.15108" id="Fill-9" fill="#FFFFFF"></path>
                <path d="M563.957649,666.15108 L386.501649,666.15108 C366.283649,666.15108 349.894649,649.76108 349.894649,629.54408 L349.894649,221.04208 C349.894649,200.82408 366.283649,184.43508 386.501649,184.43508 L563.957649,184.43508 C584.174649,184.43508 600.563649,200.82408 600.563649,221.04208 L600.563649,629.54408 C600.563649,649.76108 584.174649,666.15108 563.957649,666.15108 Z" id="Stroke-11" stroke="#ABABAB" stroke-width="2"></path>
                <path d="M429.250649,182.01338 L428.400649,181.92338 L407.590649,179.72338 C407.590649,179.72338 401.380649,181.19338 401.370649,181.19338 C401.370649,181.19338 395.850649,182.51338 395.830649,182.51338 C395.830649,182.51338 383.430649,185.46338 383.410649,185.47338 L382.590649,185.66338 C376.474649,187.08038 370.533649,188.42738 364.177649,187.94538 C359.488649,187.58938 354.674649,186.30338 351.067649,183.14138 C346.477649,179.11638 346.262649,172.95738 343.863649,167.73838 C341.427649,162.44038 337.023649,158.15838 331.967649,155.34338 C327.121649,152.64538 321.684649,151.19838 316.205649,150.51938 C312.657649,150.08038 309.860649,149.67838 307.056649,147.32438 C304.346649,145.05038 302.797649,141.83538 302.221649,138.38638 C301.501649,134.06538 303.900649,130.07138 301.792649,125.93938 C300.758649,123.91338 299.191649,122.22038 297.721649,120.48438 C294.178649,116.30238 284.854649,102.10538 294.566649,99.4253802 C301.938649,97.3903802 309.053649,102.40538 315.787649,104.50438 C319.582649,105.68738 323.565649,106.11538 327.522649,106.50338 C332.574649,106.99938 337.707649,107.55438 342.791649,107.41038 C347.769649,107.27138 352.604649,106.43938 357.615649,107.05738 C363.225649,107.74938 368.496649,110.08838 372.819649,113.72038 C378.600649,118.57538 382.001649,123.38838 382.501649,130.91738 C382.764649,134.86838 384.026649,138.71438 385.955649,142.16138 C387.130649,144.26038 388.333649,146.62738 390.136649,148.26738 C392.523649,150.43838 394.184649,149.68038 397.164649,149.53138 C415.319649,148.62038 424.350649,167.31238 429.220649,181.92338 C429.230649,181.95338 429.240649,181.98338 429.250649,182.01338" id="Fill-13" fill="#84243E"></path>
                <path d="M321.895149,117.04368 C321.895149,117.04368 367.592149,135.22568 386.728149,181.40668" id="Stroke-15" stroke="#F8AD24"></path>
                <path d="M445.815049,186.27708 C451.419049,179.85808 456.534049,172.89308 459.860049,165.04808 C463.186049,157.20408 464.640049,148.38708 462.808049,140.06508 C460.709049,130.52208 454.488049,122.48508 447.163049,116.26608 C443.382049,113.05608 439.885049,110.80508 437.485049,106.28908 C435.208049,102.00408 434.092049,97.0810802 434.133049,92.2380802 C434.163049,88.6850802 434.897049,85.0710802 434.392049,81.5260802 C433.925049,78.2530802 432.542049,75.0650802 431.257049,72.0400802 C429.457049,67.7960802 426.917049,63.8810802 423.773049,60.5090802 C416.664049,52.8820802 406.590049,48.1130802 396.265049,46.9790802 C395.053049,46.8450802 393.821049,46.7580802 392.669049,46.3550802 C390.207049,45.4940802 388.619049,42.4060802 387.023049,40.4730802 C385.055049,38.0910802 383.038049,35.7370802 380.797049,33.6050802 C376.549049,29.5640802 371.397049,26.2240802 365.376049,25.9680802 C364.564049,25.9340802 363.726049,25.9600802 362.984049,26.2890802 C361.800049,26.8140802 361.063049,28.0180802 360.605049,29.2290802 C358.133049,35.7480802 357.314049,42.3590802 357.653049,49.3210802 C357.819049,52.7150802 358.160049,56.1550802 358.817049,59.4920802 C359.277049,61.8280802 360.845049,64.1400802 360.299049,66.5900802 C359.982049,68.0130802 358.966049,69.1570802 358.044049,70.2870802 C351.073049,78.8320802 348.305049,89.6580802 351.542049,100.35708 C354.065049,108.69908 359.622049,115.89408 366.296049,121.49808 C367.792049,122.75408 369.407049,124.01608 370.169049,125.81408 C370.764049,127.21408 370.769049,128.78408 370.774049,130.30608 C370.809049,141.98608 371.585049,154.19108 376.611049,164.93408 C384.277049,181.31508 399.711049,186.02808 416.725049,185.71708 C426.454049,185.53908 424.101049,186.07708 445.815049,186.27708" id="Fill-17" fill="#F8AD24"></path>
                <path d="M377.149049,58.6442802 C377.149049,58.6442802 387.649049,149.53428 442.899049,186.46428" id="Stroke-19" stroke="#84243E"></path>
                <path d="M796.568949,452.11398 C787.713949,459.03498 779.465949,468.93598 778.845949,480.57898 C778.729949,482.76498 778.850949,485.00498 778.193949,487.09298 C776.414949,492.74598 769.837949,495.19198 764.000949,496.21298 C758.163949,497.23398 751.666949,497.87798 747.643949,502.22898 C744.466949,505.66798 743.658949,510.59298 741.940949,514.94698 C733.099949,537.34898 705.556949,537.21798 686.478949,529.62498 C685.148949,524.29498 683.678949,518.96498 682.098949,513.60398 C681.068949,510.10398 679.978949,506.60398 678.848949,503.08498 C676.398949,495.73398 673.198949,489.13498 669.468949,482.59398 C667.819949,479.70298 672.522949,470.28098 673.929949,467.93998 C677.477949,462.03998 682.559949,458.56298 689.455949,457.75498 C694.454949,457.16898 699.574949,457.58498 704.480949,456.46598 C712.334949,454.67598 718.730949,449.21198 725.204949,444.41798 C731.677949,439.62498 739.219949,435.17498 747.237949,435.94898 C753.283949,436.53298 758.738949,440.04598 764.774949,440.72198 C774.462949,441.80698 782.481949,434.38398 792.094949,435.80798 C799.377949,436.88798 803.510949,446.68898 796.568949,452.11398" id="Fill-21" fill="#84243E"></path>
                <path d="M807.495749,635.11108 C791.508749,653.65608 776.690749,619.26308 761.920749,617.01708 C757.932749,616.41108 753.532749,617.15508 750.113749,615.01608 C743.850749,611.10008 745.754749,601.32308 741.962749,594.98508 C738.043749,588.43708 729.341749,587.19708 722.108749,584.76208 C705.555749,579.19008 693.610749,563.97508 690.349749,547.02408 C689.228749,541.20408 687.929749,535.41408 686.478749,529.62508 C698.688749,534.48408 711.768749,536.23408 724.398749,531.98408 C725.488749,531.61408 726.509749,531.22408 727.469749,530.79508 C737.648749,526.25508 740.478749,518.42408 744.538749,507.71508 C746.768749,501.83508 751.398749,497.36408 757.898749,497.59408 L757.937749,497.59408 C767.809749,497.83208 774.627749,504.39108 777.757749,513.33108 C781.151749,523.02508 774.766749,532.15708 776.372749,541.75308 C777.970749,551.29808 787.923749,554.85208 790.343749,563.81108 C792.613749,572.21508 785.403749,580.31108 785.022749,589.00808 C784.741749,595.42808 788.237749,601.43008 792.412749,606.31508 C796.586749,611.19908 801.558749,615.41708 805.205749,620.70408 C809.908749,627.52108 809.964749,632.24708 807.495749,635.11108" id="Fill-23" fill="#F8AD24"></path>
                <path d="M686.479149,529.62478 C686.379149,529.58478 686.279149,529.54478 686.179149,529.50478 C686.179149,529.50478 686.179149,529.53378 686.189149,529.59478 C686.299149,530.33478 687.119149,535.64478 689.079149,542.72478 C689.089149,542.75478 689.089149,542.77378 689.099149,542.80478 C689.469149,544.15378 689.889149,545.56378 690.349149,547.02378" id="Stroke-25" stroke="#231F20"></path>
                <path d="M669.469349,482.59448 C669.439349,483.02448 669.429349,483.26448 669.429349,483.26448" id="Stroke-27" stroke="#231F20"></path>
                <polygon id="Stroke-29" stroke="#ABABAB" stroke-width="2" points="368.191049 599.64428 580.267049 599.64428 580.267049 236.59428 368.191049 236.59428"></polygon>
                <path d="M198.866349,573.48408 L179.526349,656.81408 C179.526349,656.81408 171.026349,663.53408 151.196349,663.53408 C131.366349,663.53408 122.866349,656.81408 122.866349,656.81408 L103.526349,573.48408 L151.196349,577.03408 L198.866349,573.48408 Z" id="Fill-31" fill="#F8AD24"></path>
                <path d="M198.866349,573.48408 L179.526349,656.81408 C179.526349,656.81408 171.026349,663.53408 151.196349,663.53408 C131.366349,663.53408 122.866349,656.81408 122.866349,656.81408 L103.526349,573.48408 L151.196349,577.03408 L198.866349,573.48408 Z" id="Stroke-32" stroke="#F8AD24"></path>
                <path d="M103.526049,573.48408 C103.526049,573.48408 147.869049,550.10408 198.866049,573.48408 C198.866049,573.48408 155.190049,596.43708 103.526049,573.48408" id="Fill-33" fill="#FDF2DC"></path>
                <path d="M103.526049,573.48408 C103.526049,573.48408 147.869049,550.10408 198.866049,573.48408 C198.866049,573.48408 155.190049,596.43708 103.526049,573.48408 Z" id="Stroke-34" stroke="#F8AD24"></path>
                <path d="M145.132449,585.42848 C149.132449,429.71848 54.3624486,335.86448 54.3624486,335.86448 L83.7824486,348.69848 C83.7824486,348.69848 83.7824486,356.37948 83.7834486,356.38048 C87.2334486,357.91348 91.1234486,359.12148 94.0204486,361.53248 C107.225449,372.52548 110.677449,396.15748 106.408449,412.16648" id="Stroke-35" stroke="#F8AD24"></path>
                <path d="M151.309649,384.00658 C151.290649,384.16458 151.281649,384.32158 151.272649,384.48058 C147.623649,434.80058 146.156649,502.90858 151.485649,589.86358" id="Stroke-36" stroke="#F8AD24"></path>
                <path d="M155.420549,584.86788 C152.873549,452.19688 230.852549,354.19988 230.852549,354.19988 L207.945549,371.11388 L206.445549,382.86388 L193.764549,389.86388 C193.764549,389.86388 157.010549,417.63188 179.347549,450.38188" id="Stroke-37" stroke="#F8AD24"></path>
                <path d="M160.402949,585.82198 C176.028949,474.53098 250.168949,431.36198 250.195949,431.34298 C249.559949,431.79998 247.163949,431.55698 246.391949,431.64598 C242.895949,432.04798 239.425949,432.73498 236.037949,433.68398 C227.474949,436.08298 214.570949,441.42098 210.933949,450.28898 C209.998949,452.56998 209.416949,455.00998 208.197949,457.15298 C204.563949,463.54198 196.745949,465.71698 191.983949,471.03398 C186.242949,477.44398 185.815949,490.39498 189.641949,498.01598" id="Stroke-38" stroke="#F8AD24"></path>
                <path d="M139.947849,584.86788 C137.910849,552.42788 128.634849,519.22188 114.551849,490.05688 C100.821849,461.62188 80.9438486,436.82988 54.3968486,419.39388 C55.2138486,419.93088 55.8308486,426.95388 56.2148486,428.24788 C57.2038486,431.58488 58.5208486,434.82588 60.1348486,437.90888 C62.9818486,443.34388 66.3308486,448.92388 72.3628486,451.01388 C76.7308486,452.52688 82.5128486,454.29788 83.6388486,459.49188 C83.9228486,460.80288 83.8618486,462.15988 83.9428486,463.49888 C84.9678486,480.37688 98.5638486,494.70688 115.854849,492.79788" id="Stroke-39" stroke="#F8AD24"></path>
                <g id="Group-42" transform="translate(53.899049, 418.644280)">
                    <path d="M61.9561,74.1533 C44.6641,76.0623 31.0691,61.7323 30.0441,44.8543 C29.9621,43.5153 30.0231,42.1583 29.7401,40.8473 C28.6141,35.6533 22.8311,33.8823 18.4631,32.3693 C12.4321,30.2793 9.0831,24.6993 6.2361,19.2643 C4.6221,16.1813 3.3051,12.9403 2.3151,9.6033 C1.9321,8.3093 1.3141,1.2863 0.4981,0.7503 C27.0451,18.1853 46.9221,42.9773 60.6531,71.4133 C61.1191,72.3793 61.5811,73.3503 62.0371,74.3253" id="Fill-40" fill="#84243E"></path>
                    <path d="M61.9561,74.1533 C44.6641,76.0623 31.0691,61.7323 30.0441,44.8543 C29.9621,43.5153 30.0231,42.1583 29.7401,40.8473 C28.6141,35.6533 22.8311,33.8823 18.4631,32.3693 C12.4321,30.2793 9.0831,24.6993 6.2361,19.2643 C4.6221,16.1813 3.3051,12.9403 2.3151,9.6033 C1.9321,8.3093 1.3141,1.2863 0.4981,0.7503 C27.0451,18.1853 46.9221,42.9773 60.6531,71.4133 C61.1191,72.3793 61.5811,73.3503 62.0371,74.3253" id="Stroke-41" stroke="#84243E"></path>
                </g>
                <g id="Group-45" transform="translate(53.899049, 335.644280)">
                    <path d="M52.625,76.749 C27.9,27.391 0.464,0.22 0.464,0.22 L29.884,13.054 C29.884,13.054 29.884,20.735 29.884,20.736 C33.334,22.269 37.225,23.478 40.121,25.888 C53.326,36.881 56.778,60.513 52.509,76.522" id="Fill-43" fill="#84243E"></path>
                    <path d="M52.625,76.749 C27.9,27.391 0.464,0.22 0.464,0.22 L29.884,13.054 C29.884,13.054 29.884,20.735 29.884,20.736 C33.334,22.269 37.225,23.478 40.121,25.888 C53.326,36.881 56.778,60.513 52.509,76.522" id="Stroke-44" stroke="#84243E"></path>
                </g>
                <path d="M166.823349,280.27608 L166.814349,280.32008 C166.797349,280.38208 166.761349,280.50608 166.708349,280.69208 C166.691349,280.75308 166.673349,280.81508 166.655349,280.89508 C166.611349,281.04508 166.567349,281.22208 166.514349,281.42508 C166.469349,281.57508 166.426349,281.75208 166.381349,281.93808 C166.337349,282.09708 166.293349,282.27408 166.249349,282.45908 C166.063349,283.18408 165.842349,284.07608 165.586349,285.16408 C165.533349,285.39308 165.471349,285.62308 165.418349,285.87108 C165.055349,287.40008 164.640349,289.24708 164.180349,291.41208 C164.074349,291.89808 163.969349,292.39308 163.863349,292.90508 C163.809349,293.17108 163.756349,293.44508 163.695349,293.72808 C163.588349,294.24008 163.482349,294.77108 163.367349,295.31808 C163.297349,295.69808 163.217349,296.09608 163.137349,296.49408 C163.040349,296.97108 162.943349,297.45708 162.846349,297.95208 C162.546349,299.49008 162.236349,301.13408 161.918349,302.87508 C161.821349,303.37908 161.723349,303.89108 161.635349,304.42208 C161.414349,305.65908 161.184349,306.94108 160.955349,308.27508 C160.822349,309.04408 160.690349,309.82208 160.557349,310.62608 C160.336349,311.96108 160.106349,313.34808 159.876349,314.77108 C159.691349,315.90208 159.514349,317.06908 159.328349,318.26208 C159.311349,318.38608 159.293349,318.50908 159.275349,318.63308 C159.169349,319.29608 159.063349,319.96808 158.966349,320.64908 C158.727349,322.26608 158.480349,323.92708 158.233349,325.64208 C157.976349,327.48908 157.711349,329.38908 157.446349,331.35108 C157.340349,332.16408 157.225349,332.98608 157.119349,333.82608 C157.039349,334.39208 156.969349,334.97508 156.898349,335.55808 C156.801349,336.30008 156.703349,337.05208 156.606349,337.81208 C156.535349,338.36908 156.474349,338.92508 156.403349,339.48208 C155.828349,344.15708 155.263349,349.11608 154.715349,354.35708 C154.618349,355.28508 154.520349,356.21308 154.423349,357.15808 C154.326349,358.10408 154.229349,359.05908 154.140349,360.02208 C154.043349,360.98508 153.946349,361.95808 153.858349,362.93908 C153.840349,363.11508 153.823349,363.31008 153.804349,363.49508 C153.690349,364.67108 153.584349,365.85508 153.478349,367.04808 C152.974349,372.55408 152.506349,378.32608 152.064349,384.38008 C126.910349,375.91308 127.564349,345.83708 127.564349,345.83708 L135.006349,346.09308 C123.976349,328.39008 142.448349,307.79808 142.448349,307.79808 L148.077349,313.76308 C145.117349,295.67208 166.823349,280.27608 166.823349,280.27608" id="Fill-46" fill="#84243E"></path>
                <path d="M166.823349,280.27608 L166.814349,280.32008 C166.797349,280.38208 166.761349,280.50608 166.708349,280.69208 C166.691349,280.75308 166.673349,280.81508 166.655349,280.89508 C166.611349,281.04508 166.567349,281.22208 166.514349,281.42508 C166.469349,281.57508 166.426349,281.75208 166.381349,281.93808 C166.337349,282.09708 166.293349,282.27408 166.249349,282.45908 C166.063349,283.18408 165.842349,284.07608 165.586349,285.16408 C165.533349,285.39308 165.471349,285.62308 165.418349,285.87108 C165.055349,287.40008 164.640349,289.24708 164.180349,291.41208 C164.074349,291.89808 163.969349,292.39308 163.863349,292.90508 C163.809349,293.17108 163.756349,293.44508 163.695349,293.72808 C163.588349,294.24008 163.482349,294.77108 163.367349,295.31808 C163.297349,295.69808 163.217349,296.09608 163.137349,296.49408 C163.040349,296.97108 162.943349,297.45708 162.846349,297.95208 C162.546349,299.49008 162.236349,301.13408 161.918349,302.87508 C161.821349,303.37908 161.723349,303.89108 161.635349,304.42208 C161.414349,305.65908 161.184349,306.94108 160.955349,308.27508 C160.822349,309.04408 160.690349,309.82208 160.557349,310.62608 C160.336349,311.96108 160.106349,313.34808 159.876349,314.77108 C159.691349,315.90208 159.514349,317.06908 159.328349,318.26208 C159.311349,318.38608 159.293349,318.50908 159.275349,318.63308 C159.169349,319.29608 159.063349,319.96808 158.966349,320.64908 C158.727349,322.26608 158.480349,323.92708 158.233349,325.64208 C157.976349,327.48908 157.711349,329.38908 157.446349,331.35108 C157.340349,332.16408 157.225349,332.98608 157.119349,333.82608 C157.039349,334.39208 156.969349,334.97508 156.898349,335.55808 C156.801349,336.30008 156.703349,337.05208 156.606349,337.81208 C156.535349,338.36908 156.474349,338.92508 156.403349,339.48208 C155.828349,344.15708 155.263349,349.11608 154.715349,354.35708 C154.618349,355.28508 154.520349,356.21308 154.423349,357.15808 C154.326349,358.10408 154.229349,359.05908 154.140349,360.02208 C154.043349,360.98508 153.946349,361.95808 153.858349,362.93908 C153.840349,363.11508 153.823349,363.31008 153.804349,363.49508 C153.690349,364.67108 153.584349,365.85508 153.478349,367.04808 C152.974349,372.55408 152.506349,378.32608 152.064349,384.38008 C126.910349,375.91308 127.564349,345.83708 127.564349,345.83708 L135.006349,346.09308 C123.976349,328.39008 142.448349,307.79808 142.448349,307.79808 L148.077349,313.76308 C145.117349,295.67208 166.823349,280.27608 166.823349,280.27608 Z" id="Stroke-47" stroke="#84243E"></path>
                <g id="Group-50" transform="translate(171.899049, 353.644280)">
                    <path d="M7.3115,97.1025 C29.4325,37.6545 58.9535,0.5555 58.9535,0.5555 L36.0465,17.4695 L34.5465,29.2195 L21.8655,36.2195 C21.8655,36.2195 -14.8885,63.9875 7.4485,96.7375" id="Fill-48" fill="#84243E"></path>
                    <path d="M7.3115,97.1025 C29.4325,37.6545 58.9535,0.5555 58.9535,0.5555 L36.0465,17.4695 L34.5465,29.2195 L21.8655,36.2195 C21.8655,36.2195 -14.8885,63.9875 7.4485,96.7375" id="Stroke-49" stroke="#84243E"></path>
                </g>
                <g id="Group-53" transform="translate(186.899049, 430.644280)">
                    <path d="M2.5767,67.6641 C29.3657,20.4591 63.2787,0.7111 63.2967,0.6981 C62.6607,1.1551 60.2647,0.9131 59.4927,1.0021 C55.9967,1.4031 52.5267,2.0911 49.1397,3.0401 C40.5767,5.4381 27.6717,10.7761 24.0347,19.6441 C23.0997,21.9261 22.5177,24.3651 21.2987,26.5091 C17.6647,32.8971 9.8467,35.0721 5.0847,40.3901 C-0.6563,46.8001 -1.0833,59.7511 2.7437,67.3721" id="Fill-51" fill="#84243E"></path>
                    <path d="M2.5767,67.6641 C29.3657,20.4591 63.2787,0.7111 63.2967,0.6981 C62.6607,1.1551 60.2647,0.9131 59.4927,1.0021 C55.9967,1.4031 52.5267,2.0911 49.1397,3.0401 C40.5767,5.4381 27.6717,10.7761 24.0347,19.6441 C23.0997,21.9261 22.5177,24.3651 21.2987,26.5091 C17.6647,32.8971 9.8467,35.0721 5.0847,40.3901 C-0.6563,46.8001 -1.0833,59.7511 2.7437,67.3721" id="Stroke-52" stroke="#84243E"></path>
                </g>
                <path d="M681.899049,513.84738 C681.899049,513.84738 702.399049,468.14438 758.649049,465.64438" id="Stroke-54" stroke="#F8AD24"></path>
                <path d="M727.469334,530.79468 C727.469334,530.79468 727.239349,570.64468 784.569349,615.64468" id="Stroke-55" stroke="#84243E"></path>
                <polygon id="Fill-56" fill="#FFC968" points="378.899049 365.64428 463.608049 365.64428 463.608049 312.97728 378.899049 312.97728"></polygon>
                <polygon id="Fill-57" fill="#FFC968" points="468.649049 366.01828 568.899049 366.01828 568.899049 312.97728 468.649049 312.97728"></polygon>
                <polyline id="Stroke-58" stroke="#FFC968" points="323.232549 129.64428 344.015549 129.64428 338.055549 115.64428"></polyline>
                <polyline id="Stroke-59" stroke="#FFC968" points="344.015249 145.64428 362.849249 145.64428 359.764249 127.64428"></polyline>
                <path d="M359.764249,164.64428 L378.899249,166.11728" id="Stroke-60" stroke="#FFC968"></path>
                <polyline id="Stroke-61" stroke="#84243E" points="366.899049 75.3620802 382.107049 84.3480802 394.566049 66.9780802"></polyline>
                <polyline id="Stroke-62" stroke="#84243E" points="370.566049 106.11698 390.565049 112.23198 405.566049 93.6439802"></polyline>
                <polyline id="Stroke-63" stroke="#84243E" points="380.732049 136.64428 405.566049 144.72928 420.232049 122.64428"></polyline>
                <polyline id="Stroke-64" stroke="#84243E" points="399.232049 166.97778 426.468049 172.79478 436.092049 148.09178"></polyline>
                <polyline id="Stroke-65" stroke="#F8AD24" points="752.679349 457.66968 744.865349 467.20668 756.019349 475.89468"></polyline>
                <polyline id="Stroke-66" stroke="#F8AD24" points="727.469349 461.89428 722.427349 474.47128 733.399349 480.39428"></polyline>
                <polyline id="Stroke-67" stroke="#F8AD24" points="703.399049 471.14428 701.753049 488.29328 714.899049 491.89428"></polyline>
                <polyline id="Stroke-68" stroke="#F8AD24" points="683.899049 486.89428 687.275049 504.73128 703.899049 508.39428"></polyline>
                <polyline id="Stroke-69" stroke="#84243E" points="782.232049 605.31128 772.273049 605.31128 772.273049 615.64428"></polyline>
                <polyline id="Stroke-70" stroke="#84243E" points="755.019149 603.64428 755.481149 588.38528 771.273149 589.64428"></polyline>
                <polyline id="Stroke-71" stroke="#84243E" points="740.566049 584.64428 742.832049 571.46028 760.899049 571.46028"></polyline>
                <polyline id="Stroke-72" stroke="#84243E" points="724.399049 567.47728 732.003049 550.49828 757.399049 553.64428"></polyline>
                <polyline id="Stroke-73" stroke="#84243E" points="714.232049 547.02418 727.878049 534.22518 752.399049 535.81118"></polyline>
                <path d="M498.899049,633.46458 C498.899049,646.53658 488.301049,657.13458 475.229049,657.13458 C462.157049,657.13458 451.559049,646.53658 451.559049,633.46458 C451.559049,620.39158 462.157049,609.79458 475.229049,609.79458 C488.301049,609.79458 498.899049,620.39158 498.899049,633.46458 Z" id="Stroke-74" stroke="#ABABAB" stroke-width="2"></path>
                <polygon id="Fill-75" fill="#FFC968" points="378.899049 583.68528 568.899049 583.68528 568.899049 370.37628 378.899049 370.37628"></polygon>
                <path d="M432.899049,692.10718 C432.899049,699.20018 374.979049,704.95018 303.532049,704.95018 C232.084049,704.95018 174.164049,699.20018 174.164049,692.10718 C174.164049,685.01318 232.084049,679.26318 303.532049,679.26318 C374.979049,679.26318 432.899049,685.01318 432.899049,692.10718" id="Fill-76" fill="#E3EECA"></path>
                <path d="M579.539649,709.30148 C579.539649,712.94248 553.823649,715.89448 522.101649,715.89448 C490.379649,715.89448 464.663649,712.94248 464.663649,709.30148 C464.663649,705.65948 490.379649,702.70848 522.101649,702.70848 C553.823649,702.70848 579.539649,705.65948 579.539649,709.30148" id="Fill-77" fill="#E3EECA"></path>
                <path d="M848.848249,784.88548 C848.848249,788.52648 823.132249,791.47848 791.410249,791.47848 C759.688249,791.47848 733.972249,788.52648 733.972249,784.88548 C733.972249,781.24348 759.688249,778.29148 791.410249,778.29148 C823.132249,778.29148 848.848249,781.24348 848.848249,784.88548" id="Fill-78" fill="#E3EECA"></path>
                <path d="M486.816049,183.39428 C486.816049,183.39428 486.149049,139.89428 522.899049,127.64428 L568.899049,123.43328 C568.899049,123.43328 608.899049,138.39428 596.107049,201.56128 C596.107049,201.56128 591.357049,192.68628 581.649049,188.04528 C580.941049,182.22728 580.267049,183.47628 580.267049,183.47628 L486.816049,183.39428 Z" id="Fill-79" fill="#8DC63F"></path>
                <path d="M331.190549,337.72778 C330.990549,337.75878 331.605549,341.20878 331.701549,341.51978 C321.621549,345.22878 312.894549,347.98178 308.954549,347.75178 C307.584549,347.68278 306.814549,347.26278 306.773549,346.40278 C306.773549,346.40278 285.773549,317.74278 307.104549,325.40278 C307.104549,325.40278 309.854549,302.14778 323.523549,292.47778 C340.012549,297.14478 350.732549,334.64478 331.190549,337.72778" id="Fill-80" fill="#D58070"></path>
                <path d="M331.190549,297.34158 C328.565549,313.31058 307.105549,325.40258 307.105549,325.40258 C294.234549,320.78058 297.537549,331.56058 305.315549,335.22758 C310.406549,337.62758 306.774549,346.40258 306.774549,346.40258 C274.898549,343.64458 283.774549,315.58258 283.774549,315.58258 C272.105549,297.09258 292.774549,293.74258 292.774549,293.74258 C309.398549,276.31058 331.190549,297.34158 331.190549,297.34158" id="Fill-81" fill="#231F20"></path>
                <path d="M663.238849,690.92458 L663.228849,690.93458" id="Stroke-82" stroke="#231F20"></path>
                <path d="M529.232049,690.26338 C529.232049,690.26338 446.774049,710.64438 525.163049,709.93138 L547.899049,709.93138 L546.566049,690.26338" id="Fill-83" fill="#231F20"></path>
                <path d="M779.232049,745.59738 C779.232049,745.59738 784.024049,804.39438 794.566049,776.26338 L805.232049,732.26338 L784.566049,726.98138" id="Fill-84" fill="#231F20"></path>
                <path d="M617.368749,452.58468 C617.049749,453.27368 616.568749,453.59468 616.568749,453.59468" id="Stroke-85" stroke="#231F20"></path>
                <path d="M367.899049,670.59448 C367.899049,670.59448 412.066049,690.32448 374.899049,690.26448 L328.524049,690.26448 L327.899049,670.59448" id="Fill-86" fill="#231F20"></path>
                <path d="M316.867849,550.49878 C306.197849,580.49878 250.898849,677.59478 250.898849,677.59478 L221.898849,658.59478 C245.228849,622.93478 268.898849,465.92478 268.898849,465.92478 C279.568849,519.58478 316.867849,550.49878 316.867849,550.49878" id="Fill-87" fill="#303030"></path>
                <path d="M250.899049,677.59448 C250.899049,677.59448 277.229049,716.93448 242.569049,694.26448 L210.569049,672.26448 L221.899049,658.59448" id="Fill-88" fill="#231F20"></path>
                <path d="M569.899049,124.59448 C555.229049,105.26448 556.569049,93.2644802 556.569049,93.2644802 C558.569049,64.5944802 545.899049,89.9344802 545.899049,89.9344802 C539.229049,69.9344802 524.569049,75.2644802 521.899049,78.5944802 C518.469049,82.8844802 516.699049,88.0644802 515.989049,93.4544802 C498.739049,95.6344802 496.569049,71.9344802 496.569049,71.9344802 C495.899049,43.2644802 540.089049,53.2644802 540.089049,53.2644802 C572.289049,44.5944802 573.229049,75.3644802 573.229049,75.3644802 C561.899049,92.7944802 569.899049,124.59448 569.899049,124.59448" id="Fill-89" fill="#231F20"></path>
                <path d="M569.899049,124.59448 C533.899049,157.93448 540.569049,129.26448 540.569049,129.26448 C527.229049,136.59448 521.899049,129.26448 521.899049,129.26448 C521.899049,129.26448 513.749049,110.33448 515.989049,93.4544802 C516.699049,88.0644802 518.469049,82.8844802 521.899049,78.5944802 C524.569049,75.2644802 539.229049,69.9344802 545.899049,89.9344802 C545.899049,89.9344802 558.569049,64.5944802 556.569049,93.2644802 C556.569049,93.2644802 555.229049,105.26448 569.899049,124.59448" id="Fill-90" fill="#D58070"></path>
                <path d="M647.988849,458.21458 L647.978849,458.20358 C647.049849,457.41358 646.259849,456.61358 645.608849,455.79458" id="Stroke-91" stroke="#231F20"></path>
                <path d="M645.609049,455.79468 C636.919049,451.14468 627.019049,449.65368 617.369049,452.58468 C618.199049,450.84468 618.039049,446.76468 606.569049,439.59468 C606.569049,439.59468 603.349049,437.52368 600.199049,432.61368 L600.199049,432.60468 C595.769049,425.69368 591.509049,413.18468 596.569049,392.93468 C596.569049,392.93468 598.149049,392.73368 600.279049,392.73368 C605.859049,392.73368 615.199049,394.13468 609.899049,404.26468 C609.899049,404.26468 622.499049,404.97468 611.899049,419.59468 C611.899049,419.59468 621.229049,444.93468 644.229049,440.26468 C644.229049,440.26468 639.539049,448.29468 645.609049,455.79468" id="Fill-92" fill="#D58070"></path>
                <path d="M653.899049,404.26438 C638.569049,420.93438 644.229049,440.26438 644.229049,440.26438 C621.229049,444.93438 611.899049,419.59438 611.899049,419.59438 C622.499049,404.97438 609.899049,404.26438 609.899049,404.26438 C615.199049,394.13438 605.859049,392.73438 600.279049,392.73438 C598.149049,392.73438 596.569049,392.93438 596.569049,392.93438 C592.929049,391.51438 590.339049,390.05438 588.569049,388.59438 L588.569049,376.44438 C591.139049,373.90438 594.269049,372.26438 594.269049,372.26438 C596.329049,371.86438 598.349049,371.52438 600.329049,371.24338 C644.249049,365.04438 668.569049,388.31438 653.899049,404.26438" id="Fill-93" fill="#231F20"></path>
                <path d="M601.229149,571.50368 C601.539149,571.11268 611.329149,547.58368 610.749149,537.94268 C610.749149,537.87368 610.749149,537.79368 610.739149,537.72368 C610.168149,528.57368 607.899149,521.93368 607.899149,521.93368 C605.249149,523.83368 602.609149,525.46368 599.999149,526.84368 C596.139149,528.90268 592.319149,530.42368 588.569149,531.48268 C575.889149,535.06368 563.918149,533.35368 553.189149,528.92368 C523.918149,516.85368 503.899149,484.59368 503.899149,484.59368 L504.259149,484.27368 L514.219149,475.49368 L515.229149,474.59368 C515.409149,474.85368 515.589149,475.11268 515.779149,475.37368 C516.889149,476.96368 518.019149,478.44268 519.168149,479.83368 C519.179149,479.84368 519.189149,479.85368 519.189149,479.86268 C523.329149,484.86268 527.639149,488.55368 532.039149,491.15268 C542.379149,497.27368 553.229149,497.36268 563.579149,494.21368 C569.369149,492.46368 575.009149,489.68368 580.309149,486.37368 C580.529149,486.23268 580.759149,486.09368 580.979149,485.95368 C583.599149,484.29368 586.139149,482.50368 588.569149,480.64368 C592.769149,477.44268 596.659149,474.03368 600.119149,470.74368 L600.119149,470.73268 C610.159149,461.18368 616.569149,452.59368 616.569149,452.59368 C628.819149,449.41368 639.199149,451.54368 647.979149,457.20368 L647.989149,457.21368 C656.579149,462.74368 663.629149,471.64368 669.429149,482.26368 C676.939149,496.00368 682.329149,512.61268 686.179149,528.50368 L686.179149,528.54368 C687.269149,533.02368 688.229149,537.44268 689.079149,541.72368 C689.089149,541.75368 689.089149,541.77368 689.099149,541.80368 C693.668149,564.84368 695.049149,583.86268 695.208149,586.32368 C695.219149,586.50368 695.229149,586.59368 695.229149,586.59368 C634.561149,647.26168 599.899149,571.49368 599.899149,571.49368 L601.229149,571.50368 Z" id="Fill-94" fill="#8DC63F"></path>
                <path d="M784.568949,726.98408 L779.228949,745.59408 L620.568949,726.98408 C595.228949,726.98408 631.228949,624.93408 631.228949,624.93408 C629.028949,624.93408 614.518949,623.44408 599.798949,621.88408 C583.318949,620.12508 566.568949,618.26408 566.568949,618.26408 C565.768949,621.43408 558.858949,646.26408 553.388949,665.88408 C549.648949,679.28408 546.568949,690.26408 546.568949,690.26408 C531.228949,693.59408 529.228949,690.26408 529.228949,690.26408 L524.268949,665.88408 L513.898949,614.93408 C513.098949,611.82408 512.848949,608.93408 513.068949,606.26408 C515.318949,579.67408 564.718949,573.99408 588.568949,572.80408 C593.879949,572.53408 597.928949,572.49408 599.898949,572.49408 C600.758949,572.49408 601.228949,572.50508 601.228949,572.50508 C601.228949,572.50508 637.898949,602.93408 695.228949,587.59408 C703.168949,619.36408 663.798949,689.92408 663.238949,690.92408 C681.938949,682.95408 784.568949,726.98408 784.568949,726.98408" id="Fill-95" fill="#353535"></path>
                <path d="M445.912549,221.59728 L502.545549,221.59728 C505.502205,221.59728 507.899049,219.200437 507.899049,216.24378 L507.899049,216.24378 C507.899049,213.287124 505.502205,210.89028 502.545549,210.89028 L445.912549,210.89028 C442.955892,210.89028 440.559049,213.287124 440.559049,216.24378 L440.559049,216.24378 C440.559049,219.200437 442.955892,221.59728 445.912549,221.59728 Z" id="Stroke-96" fill="#DADADA"></path>
                <path d="M562.750649,179.48508 C559.044649,181.97608 555.794649,184.76008 554.441649,186.01608 C550.308649,189.85508 548.647649,199.85708 556.338649,201.13908 C559.044649,201.59008 562.049649,201.31308 564.746649,201.00708 C569.499649,200.46708 575.948649,200.07208 579.413649,196.16608 C583.755649,191.27208 580.996649,181.19208 577.693649,176.48808 C574.985649,172.63108 568.348649,175.72308 562.750649,179.48508" id="Fill-97" fill="#D58070"></path>
                <path d="M505.240849,184.56418 C505.327849,186.70618 504.850849,188.96018 504.218849,191.02418 C503.306849,193.99418 502.000849,197.05118 499.450849,198.82418 C498.170849,199.71418 496.656849,200.21718 495.127849,200.51618 C491.724849,201.17918 487.676849,200.76218 484.974849,198.40918 C482.841849,196.55018 481.833849,193.65018 481.720849,190.82218 C481.607849,187.99518 482.294849,185.20018 483.069849,182.47918 C483.531849,180.86118 484.045849,179.21518 485.065849,177.87818 C487.830849,174.25818 494.241849,175.19018 498.075849,176.19018 C500.317849,176.77418 502.484849,177.96518 503.797849,179.87518 C504.757849,181.27118 505.172849,182.88318 505.240849,184.56418" id="Fill-98" fill="#D58070"></path>
                <polygon id="Fill-99" fill="#FFC968" points="378.899049 308.14428 568.899049 308.14428 568.899049 247.64428 378.899049 247.64428"></polygon>
                <path d="M368.519149,661.22438 C368.168149,667.19438 367.899149,670.59438 367.899149,670.59438 L327.899149,670.59438 C332.190149,615.64438 257.399149,519.14438 268.899149,465.92438 C268.899149,465.92438 310.569149,478.26438 353.899149,471.59438 C359.179149,485.28438 369.918149,637.60438 368.519149,661.22438" id="Fill-100" fill="#474747"></path>
                <polygon id="Fill-101" fill="#FDD596" points="474.229149 370.37668 554.566149 370.21868 457.232149 583.68568 378.899149 583.68568"></polygon>
                <polygon id="Fill-102" fill="#FDD596" points="527.401049 247.64428 568.899049 247.64428 568.899049 308.14428 500.363049 308.14428"></polygon>
                <path d="M503.899049,485.59738 C503.899049,485.59738 478.361049,472.30238 493.232049,460.59738 C493.232049,460.59738 500.232049,452.58838 514.899049,465.92638 C514.899049,465.92638 518.232049,470.59738 525.232049,468.26338 C525.232049,468.26338 520.899049,476.93038 515.232049,475.59738" id="Fill-103" fill="#D58070"></path>
                <path d="M411.308249,270.79618 L402.249249,325.31518 L397.879249,351.60518 L375.180249,366.73518 L362.010249,375.50518 C362.010249,375.50518 360.549249,453.21518 353.879249,472.26518 C310.550249,478.93518 268.880249,466.59518 268.880249,466.59518 C273.100249,400.24618 306.084249,353.49218 307.774249,351.40218 C307.824249,351.35218 306.697249,356.81118 332.702249,346.51918 C333.145249,346.34318 334.829249,350.10518 335.280249,349.93518 C343.890249,346.72518 353.280249,342.85518 361.200249,339.46518 C366.669249,337.11518 371.440249,335.00518 374.799249,333.50518 C377.980249,332.08518 379.879249,331.21518 379.879249,331.21518 L383.379249,316.74518 L394.597249,270.36518 L411.308249,270.79618 Z" id="Fill-104" fill="#8DC63F"></path>
                <path d="M395.426349,270.58418 C395.426349,270.58418 388.554349,263.76118 392.277349,257.73618 C395.999349,251.71218 395.285349,249.31118 402.344349,250.10818 C409.403349,250.90518 413.764349,255.04618 414.346349,257.33918 C414.928349,259.63118 415.635349,269.19618 409.863349,270.95818" id="Fill-105" fill="#D58070"></path>
                <polygon id="Fill-106" fill="#FDD596" points="476.059249 366.01828 498.333249 312.97728 568.899249 312.97728 568.899249 335.14428 554.279249 366.01828"></polygon>
            </g>
        </g>
    </g>
</svg>