<?xml version="1.0" encoding="UTF-8"?>
<svg width="887px" height="812px" viewBox="0 0 887 812" version="1.1" xmlns="http://www.w3.org/2000/svg" xmlns:xlink="http://www.w3.org/1999/xlink">
    <!-- Generator: Sketch 53.2 (72643) - https://sketchapp.com -->
    <title>step 3</title>
    <desc>Created with Sketch.</desc>
    <g id="Page-1" stroke="none" stroke-width="1" fill="none" fill-rule="evenodd">
        <g id="1st"></g>
        <g id="step-3">
            <g id="2ndd">
                <path d="M626.0654,607.8896 C626.0654,660.5366 583.3854,703.2166 530.7384,703.2166 C478.0904,703.2166 435.4114,660.5366 435.4114,607.8896 C435.4114,555.2426 478.0904,512.5636 530.7384,512.5636 C583.3854,512.5636 626.0654,555.2426 626.0654,607.8896" id="Fill-1" fill="#F4F8EA"></path>
                <path d="M488.4854,687.1504 C488.4854,726.5184 456.5714,758.4324 417.2034,758.4324 C377.8354,758.4324 345.9204,726.5184 345.9204,687.1504 C345.9204,647.7824 377.8354,615.8684 417.2034,615.8684 C456.5714,615.8684 488.4854,647.7824 488.4854,687.1504" id="Fill-3" fill="#F4F8EA"></path>
                <path d="M192.2744,361.0039 C192.2744,413.6509 149.5954,456.3309 96.9474,456.3309 C44.3004,456.3309 1.6214,413.6509 1.6214,361.0039 C1.6214,308.3569 44.3004,265.6769 96.9474,265.6769 C149.5954,265.6769 192.2744,308.3569 192.2744,361.0039" id="Fill-5" fill="#F4F8EA"></path>
                <path d="M843.3467,314.4546 C843.3467,410.8766 765.1817,489.0416 668.7597,489.0416 C572.3377,489.0416 494.1727,410.8766 494.1727,314.4546 C494.1727,218.0326 572.3377,139.8676 668.7597,139.8676 C765.1817,139.8676 843.3467,218.0326 843.3467,314.4546" id="Fill-7" fill="#F4F8EA"></path>
                <path d="M886.9561,629.0938 C886.9561,709.7188 821.5971,775.0788 740.9711,775.0788 C660.3461,775.0788 594.9851,709.7188 594.9851,629.0938 C594.9851,548.4678 660.3461,483.1088 740.9711,483.1088 C821.5971,483.1088 886.9561,548.4678 886.9561,629.0938" id="Fill-9" fill="#F4F8EA"></path>
                <path d="M388.2837,618.0654 C388.2837,725.1344 301.4867,811.9314 194.4167,811.9314 C87.3467,811.9314 0.5497,725.1344 0.5497,618.0654 C0.5497,510.9954 87.3467,424.1984 194.4167,424.1984 C301.4867,424.1984 388.2837,510.9954 388.2837,618.0654" id="Fill-11" fill="#F4F8EA"></path>
                <path d="M705.3252,83.5928 C705.3252,129.5658 660.2482,166.8338 604.6432,166.8338 C549.0382,166.8338 503.9612,129.5658 503.9612,83.5928 C503.9612,37.6198 549.0382,0.3518 604.6432,0.3518 C660.2482,0.3518 705.3252,37.6198 705.3252,83.5928" id="Fill-13" fill="#F4F8EA"></path>
                <path d="M458.9653,182.1328 C458.9653,280.9208 362.1023,361.0038 242.6153,361.0038 C123.1293,361.0038 26.2663,280.9208 26.2663,182.1328 C26.2663,83.3448 123.1293,3.2608 242.6153,3.2608 C362.1023,3.2608 458.9653,83.3448 458.9653,182.1328" id="Fill-15" fill="#F4F8EA"></path>
                <path d="M647.9326,359.5762 C647.9326,462.8262 541.5676,546.5272 410.3576,546.5272 C279.1486,546.5272 172.7836,462.8262 172.7836,359.5762 C172.7836,256.3262 279.1486,172.6252 410.3576,172.6252 C541.5676,172.6252 647.9326,256.3262 647.9326,359.5762" id="Fill-17" fill="#F4F8EA"></path>
                <path d="M508.5332,316.1968 L479.9532,376.2268 L473.5132,389.7468 L452.3932,389.5368 C453.0632,389.5368 463.3132,364.3368 471.5232,343.7068 C471.6032,343.5168 471.6632,343.3468 471.7332,343.1768 C472.0632,342.3468 472.3832,341.5268 472.7032,340.7268 C477.5332,328.5968 481.4032,318.6668 481.7732,317.4368 C482.6432,314.6568 481.4832,287.1968 480.4032,281.3868 C480.3832,281.2968 480.3732,281.2168 480.3532,281.1368 L505.1332,279.0168 L508.1332,278.7568 L508.1332,279.0168 L508.5332,316.1968 Z" id="Fill-19" fill="#D58070"></path>
                <path d="M450.8901,654.6484 C451.7091,654.8604 451.9641,655.8374 452.3121,656.5124 C453.4331,658.6924 454.6201,660.8334 455.4021,663.1674 C456.1211,665.3154 456.7291,667.5014 457.2251,669.7114 C458.2151,674.1324 458.7541,678.6564 458.8231,683.1874 C458.9061,688.7014 458.5851,694.2034 458.4761,699.7154 C458.3581,705.3804 458.2311,711.2644 456.1781,716.6244 C455.0591,719.5444 453.2281,722.1564 451.0781,724.4104 C449.1811,726.4004 446.5991,729.0114 443.9221,729.8774 C439.7671,731.2224 435.7081,725.4004 433.8211,722.4694 C431.2221,718.4344 429.7801,713.7264 429.1451,708.9954 C428.0851,701.0934 429.0441,693.0264 429.6541,685.1274 C430.5541,673.4824 432.3211,661.8854 435.5201,650.6394 C435.5201,650.6394 450.8301,654.6324 450.8901,654.6484" id="Fill-21" fill="#000000"></path>
                <path d="M467.5767,474.6396 C468.5767,474.6826 466.3687,544.0206 465.9767,550.2436 C464.8387,568.3106 463.2497,586.3846 460.0577,604.2176 C458.4307,613.3106 456.3867,622.3336 453.7997,631.2026 C452.2857,636.3946 451.1307,641.7526 451.1717,647.1866 C451.2337,655.4076 453.4847,663.7536 453.8447,672.0656 C454.2317,680.9916 453.8317,689.9516 452.6397,698.8056 C452.5717,699.3106 436.9387,698.8786 435.2517,698.8786 C431.3827,698.8786 433.8937,651.7736 434.1297,647.8596 C434.2257,646.2566 434.3227,644.6546 434.3557,643.0496 C434.5587,633.0746 432.4397,622.9106 431.8837,612.8696 C429.7797,574.8976 429.5947,536.8366 429.5177,498.8176 C429.5137,496.7246 429.4957,474.6396 429.5247,474.6396 L467.5767,474.6396 Z" id="Fill-23" fill="#D58070"></path>
                <path d="M359.9307,342.3179 C359.9307,342.3179 341.3757,371.9409 340.3547,393.1369 L418.9997,410.2139 L497.5717,392.9239 C497.5717,392.9239 495.2497,371.2499 472.3017,344.0339 L359.9307,342.3179 Z" id="Fill-25" fill="#353535"></path>
                <path d="M481.9971,394.666 L481.9971,394.68 L415.7901,410.214 L345.6061,393.815 C350.5271,394.414 355.5151,394.959 360.5691,395.437 C397.2101,398.923 437.6821,399.148 481.9971,394.666" id="Fill-27" fill="#84243E"></path>
                <path d="M727.6592,217.7114 L727.6592,436.8134 C716.6602,449.4614 704.9972,460.8734 692.9202,471.1544 C670.7762,490.0404 647.2482,505.1624 623.9202,517.2784 C617.0172,520.8694 610.1282,524.1804 603.3052,527.2534 C602.8402,527.4654 602.3612,527.6784 601.8952,527.8784 C581.1352,537.1484 560.9312,544.1704 542.4312,549.4634 C537.3112,550.9404 532.3242,552.2834 527.4962,553.5064 C517.7072,555.9674 508.5432,557.9494 500.2312,559.5444 C494.9912,560.5434 490.0702,561.3804 485.5482,562.0984 C477.3022,563.3884 470.3332,564.2404 464.9332,564.7984 C463.1112,564.9984 461.4622,565.1584 459.9992,565.2914 C455.0512,565.7164 452.3512,565.8234 452.3512,565.8234 C444.8372,566.5144 437.4422,567.0734 430.1802,567.4994 C417.7582,568.2164 405.7092,568.5494 394.0182,568.5624 L393.1672,568.5624 C381.5962,568.5494 370.3842,568.1904 359.5182,567.5384 C337.8662,566.2614 317.6232,563.8014 298.7642,560.4494 L298.7242,560.4494 C298.2852,560.3704 297.8472,560.2904 297.4082,560.2104 C287.9652,558.5074 278.8812,556.5794 270.1432,554.4914 C263.9582,553.0024 257.9472,551.4194 252.1082,549.7564 C220.6142,540.8454 194.1202,529.6604 172.3882,518.3294 L172.3882,387.6044 L150.4442,375.7014 L150.4442,505.9334 C113.5502,483.3894 95.9142,463.4144 95.9142,463.4144 L95.9142,286.5244 C95.9142,286.5244 147.3452,340.5354 250.8582,373.3734 C278.1362,382.0314 309.0322,389.2264 343.5582,393.5484 C344.2372,393.6424 344.9282,393.7354 345.6062,393.8014 L345.6062,393.8154 C350.5272,394.4144 355.5152,394.9594 360.5692,395.4374 C397.2102,398.9224 437.6812,399.1484 481.9972,394.6664 C487.1312,394.1614 492.3312,393.5764 497.5712,392.9234 C497.5712,392.9234 505.1122,391.8734 517.4682,389.2664 C518.4782,389.0404 519.5032,388.8284 520.5802,388.5874 L520.5932,388.5874 C529.0522,386.7264 539.4262,384.2124 550.9712,380.8614 C574.9642,373.9454 604.0232,363.5314 631.6072,348.3694 C656.0792,334.9234 679.3812,317.7264 696.9362,295.9274 C696.9502,295.9144 696.9642,295.8884 696.9902,295.8744 C703.4272,287.8814 709.0932,279.2504 713.7342,269.9664 C715.9692,265.5374 717.9642,260.9624 719.6932,256.2274 C720.6642,253.6344 721.5422,251.0014 722.3402,248.3144 C725.1992,238.7384 727.0342,228.5374 727.6592,217.7114" id="Fill-29" fill="#F8AD24"></path>
                <path d="M267.3501,206.3398 C271.7521,207.3238 276.1411,208.3748 280.5571,209.3718 C262.4551,214.5718 246.0701,220.3308 231.7061,226.0098 C189.7851,242.5948 165.0741,258.5948 165.0741,258.5948 L165.0741,91.0158 C170.2471,87.7708 175.5401,84.6988 180.9401,81.7858 C192.5241,75.5478 204.5881,70.0558 216.9431,65.2548 L216.9431,195.1018 C218.7521,195.5008 220.5611,195.9128 222.3701,196.3118 C237.3721,199.6498 252.3611,203.0018 267.3501,206.3398" id="Fill-31" fill="#AB90FF"></path>
                <path d="M333.3174,172.8105 C333.3174,172.8105 280.1174,176.8005 242.8784,199.4105 L242.8784,166.1605 C242.8784,166.1605 286.7674,142.2205 333.3174,143.5505 L333.3174,172.8105 Z" id="Fill-33" fill="#AB90FF"></path>
                <path d="M243.543,117.6162 L243.543,92.3462 C243.543,92.3462 288.098,65.0812 341.962,71.0662 L341.962,92.3462 C341.962,92.3462 290.758,89.0212 243.543,117.6162" id="Fill-35" fill="#AB90FF"></path>
                <path d="M479.4434,193.7046 C474.8684,193.0796 470.3194,192.5206 465.7974,192.0556 C451.4344,190.5396 437.3494,189.7546 423.6104,189.5956 C422.0684,189.5686 420.5254,189.5556 418.9824,189.5556 L418.9024,189.5556 C414.4464,189.5416 410.0314,189.5956 405.6694,189.7146 L405.6024,189.7146 C404.4584,189.7546 403.3284,189.7816 402.1974,189.8216 C399.7764,189.9006 397.3824,190.0076 394.9894,190.1266 L394.9624,190.1266 C371.0624,191.2976 348.3994,194.2236 327.2794,198.2406 C338.4114,191.3506 348.6784,186.4826 357.6964,183.0516 C357.5234,174.6996 358.8934,155.8266 360.0104,142.2476 C354.7834,142.9786 349.4234,143.8566 343.9574,144.8806 L343.9574,112.9606 C343.9574,112.9606 351.5914,111.9106 363.4684,110.7936 C364.7324,103.6376 366.4214,96.4696 368.6554,89.6996 C376.4494,65.9856 390.8534,46.9536 416.2694,48.9356 C439.8234,50.7706 453.5484,70.7876 459.5874,95.9376 C460.5974,100.1266 461.4084,104.3556 462.0734,108.6256 C462.2604,109.7956 462.4334,110.9666 462.6064,112.1496 C463.8694,112.4026 465.1064,112.6816 466.3164,112.9606 L466.3164,144.8806 C466.3164,144.8806 466.0504,144.8146 465.5184,144.6816 C465.9844,155.8536 466.5164,173.1296 466.2364,184.3546 C471.1714,186.9756 475.5464,190.1406 479.4434,193.7046" id="Fill-37" fill="#AB90FF"></path>
                <path d="M727.6592,217.7114 L727.6592,203.3874 L727.8192,203.4274 C728.0062,208.3084 727.9382,213.0694 727.6592,217.7114" id="Fill-39" fill="#AB90FF"></path>
                <polygon id="Fill-41" fill="#84243E" points="150.4438 375.7012 150.4438 561.8332 142.7568 557.4172 47.3698 502.6222 47.3698 319.7742 95.9138 346.1082"></polygon>
                <path d="M527.5024,435.4834 L527.5024,553.5064 C517.7134,555.9674 508.5504,557.9494 500.2374,559.5454 L500.2374,617.6924 C500.2374,617.6924 490.7684,621.8694 473.8374,626.3504 C439.7494,635.3684 375.4184,645.6884 297.4144,625.7524 L297.4144,427.5044 C297.4144,427.5044 346.7164,441.7614 415.1584,444.0624 L415.2374,444.0624 C420.6244,444.2484 426.1304,444.3544 431.7434,444.3684 C453.3154,444.4614 476.4304,443.2514 500.2374,440.0324 C509.2414,438.8224 518.3384,437.3194 527.5024,435.4834" id="Fill-43" fill="#84243E"></path>
                <polygon id="Fill-45" fill="#84243E" points="150.4438 354.3545 150.4438 561.8335 142.7568 557.4165 47.3698 502.6225 25.4248 490.0135 25.4248 286.5245 95.9138 324.7755"></polygon>
                <path d="M99.9106,371.6445 L142.4706,395.5835" id="Stroke-47" stroke="#ED325E" stroke-width="2"></path>
                <path d="M54.0259,414.8691 L118.5299,451.4431" id="Stroke-49" stroke="#ED325E" stroke-width="2"></path>
                <path d="M54.0259,429.499 L118.5299,466.073" id="Stroke-51" stroke="#ED325E" stroke-width="2"></path>
                <path d="M54.0259,448.1191 L98.5809,472.7231" id="Stroke-53" stroke="#ED325E" stroke-width="2"></path>
                <path d="M54.0259,462.749 L118.5299,499.323" id="Stroke-55" stroke="#ED325E" stroke-width="2"></path>
                <path d="M54.0259,481.3682 L118.5299,517.9432" id="Stroke-57" stroke="#ED325E" stroke-width="2"></path>
                <path d="M267.3501,206.3398 C271.7521,207.3238 276.1411,208.3748 280.5571,209.3718 C262.4551,214.5718 246.0701,220.3308 231.7061,226.0098 C189.7851,242.5948 165.0741,258.5948 165.0741,258.5948 L165.0741,91.0158 C170.2471,87.7708 175.5401,84.6988 180.9401,81.7858 C192.5241,75.5478 204.5881,70.0558 216.9431,65.2548 L216.9431,195.1018 C218.7521,195.5008 220.5611,195.9128 222.3701,196.3118 C237.3721,199.6498 252.3611,203.0018 267.3501,206.3398" id="Fill-59" fill="#FFC968"></path>
                <path d="M333.3174,172.8105 C333.3174,172.8105 280.1174,176.8005 242.8784,199.4105 L242.8784,166.1605 C242.8784,166.1605 286.7674,142.2205 333.3174,143.5505 L333.3174,172.8105 Z" id="Fill-61" fill="#FFC968"></path>
                <path d="M243.543,117.6162 L243.543,92.3462 C243.543,92.3462 288.098,65.0812 341.962,71.0662 L341.962,92.3462 C341.962,92.3462 290.758,89.0212 243.543,117.6162" id="Fill-63" fill="#FFC968"></path>
                <path d="M479.4434,193.7046 C474.8684,193.0796 470.3194,192.5206 465.7974,192.0556 C451.4344,190.5396 437.3494,189.7546 423.6104,189.5956 C422.0684,189.5686 420.5254,189.5556 418.9824,189.5556 L418.9024,189.5556 C414.4464,189.5416 410.0314,189.5956 405.6694,189.7146 L405.6024,189.7146 C404.4584,189.7546 403.3284,189.7816 402.1974,189.8216 C399.7764,189.9006 397.3824,190.0076 394.9894,190.1266 L394.9624,190.1266 C371.0624,191.2976 348.3994,194.2236 327.2794,198.2406 C338.4114,191.3506 348.6784,186.4826 357.6964,183.0516 C357.5234,174.6996 358.8934,155.8266 360.0104,142.2476 C354.7834,142.9786 349.4234,143.8566 343.9574,144.8806 L343.9574,112.9606 C343.9574,112.9606 351.5914,111.9106 363.4684,110.7936 C364.7324,103.6376 366.4214,96.4696 368.6554,89.6996 C376.4494,65.9856 390.8534,46.9536 416.2694,48.9356 C439.8234,50.7706 453.5484,70.7876 459.5874,95.9376 C460.5974,100.1266 461.4084,104.3556 462.0734,108.6256 C462.2604,109.7956 462.4334,110.9666 462.6064,112.1496 C463.8694,112.4026 465.1064,112.6816 466.3164,112.9606 L466.3164,144.8806 C466.3164,144.8806 466.0504,144.8146 465.5184,144.6816 C465.9844,155.8536 466.5164,173.1296 466.2364,184.3546 C471.1714,186.9756 475.5464,190.1406 479.4434,193.7046" id="Fill-65" fill="#FFC968"></path>
                <polygon id="Fill-67" fill="#FFC968" points="727.6592 202.0703 727.6592 203.3873 727.2612 203.2803"></polygon>
                <path d="M727.6592,224.082 C727.1942,229.295 726.4752,234.482 725.6782,239.523 C725.3722,241.465 724.9332,243.433 724.4012,245.388 C721.9142,254.698 717.2462,264.035 712.7502,272.254 C712.6312,272.48 712.4982,272.706 712.3782,272.932 C708.1362,280.633 703.1472,289.278 696.9902,295.874 C703.4272,287.881 709.0932,279.25 713.7342,269.966 L719.6932,256.228 C720.6642,253.634 721.5422,251.001 722.3402,248.314 C725.1992,238.738 727.0342,228.537 727.6592,217.711 L727.6592,203.387 L727.8192,203.427 C727.7792,202.323 727.7262,201.206 727.6592,200.076 C727.7932,201.206 727.8992,202.336 727.9782,203.467 C728.4972,210.25 728.2852,217.192 727.6592,224.082" id="Fill-69" fill="#FFC968"></path>
                <path d="M82.8042,353.4756 C90.4182,372.1856 87.1202,391.2066 75.4372,395.9606 C63.7552,400.7156 48.1112,389.4036 40.4972,370.6936 C32.8822,351.9846 36.1802,332.9626 47.8642,328.2076 C59.5462,323.4536 75.1902,334.7666 82.8042,353.4756" id="Fill-71" fill="#ED325E"></path>
                <path d="M461.6748,112.9609 L461.6748,144.8809 C461.6748,144.8809 461.4188,144.8149 460.9068,144.6809 C458.1048,144.0029 447.8178,141.6889 432.0278,140.2259 C420.6278,139.1619 406.3478,138.5499 389.9698,139.3349 C380.4498,139.7739 370.2138,140.6779 359.4018,142.2479 C354.3728,142.9789 349.2168,143.8569 343.9578,144.8809 L343.9578,112.9609 C343.9578,112.9609 351.3018,111.9099 362.7278,110.7939 C369.7018,110.1149 378.1978,109.4099 387.4748,108.9179 C405.6178,107.9469 426.7308,107.7609 445.2458,110.0479 C449.7108,110.5939 454.0238,111.2849 458.1048,112.1499 C459.3208,112.4019 460.5098,112.6819 461.6748,112.9609" id="Fill-73" fill="#F8AD24"></path>
                <path d="M464.2368,184.355 C464.1568,187.48 464.0108,190.127 463.7978,192.056 C463.7178,192.641 463.6378,193.16 463.5588,193.612 C463.3328,194.782 463.0528,195.434 462.7068,195.42 L420.5998,192.215 L416.7298,191.923 L415.2928,191.816 L415.2668,191.816 L412.5798,191.604 L405.1588,191.045 L404.4668,190.992 L404.4268,190.992 L402.0998,190.819 L400.5568,190.699 L392.9888,190.127 L392.9628,190.127 L356.4008,187.348 C356.2148,187.334 356.0688,187.015 355.9488,186.43 C355.8028,185.698 355.7228,184.541 355.6958,183.052 C355.5238,174.699 356.8928,155.827 358.0098,142.248 C358.6218,134.64 359.1678,128.695 359.3138,127.179 C359.8058,121.845 360.5108,116.313 361.4678,110.793 C362.7318,103.638 364.4208,96.469 366.6548,89.7 C374.4488,65.986 388.8528,46.954 414.2688,48.936 C437.8228,50.771 451.5488,70.787 457.5868,95.938 C458.5978,100.126 459.4088,104.356 460.0738,108.626 C460.2598,109.796 460.4328,110.966 460.6058,112.15 C461.6428,119.425 462.3348,126.767 462.9728,134.121 C463.0268,134.72 463.1068,136.076 463.2128,137.978 C463.2928,139.774 463.3988,142.062 463.5188,144.681 C463.9838,155.854 464.5158,173.13 464.2368,184.355" id="Fill-75" fill="#000000"></path>
                <polygon id="Fill-77" fill="#ED325E" points="216.9434 48.4565 216.9434 196.0855 195.8624 208.6145 165.0734 226.9015 157.1334 231.6235 125.1734 250.6155 125.1734 97.6655 188.0294 63.9645"></polygon>
                <polygon id="Fill-79" fill="#84243E" points="185.1152 135.5708 185.1152 206.4718 174.9912 212.4888 160.2042 221.2718 156.3912 223.5388 141.0422 232.6598 141.0422 159.2048 171.2292 143.0188"></polygon>
                <path d="M326.1802,236.1802 C325.7802,236.1802 325.3802,236.2002 324.9702,236.2402 C321.6102,236.5002 317.9002,237.7502 314.7202,238.3502 C311.7302,238.9102 308.7402,239.4702 305.7502,240.0402 C302.9402,240.5702 299.6202,241.7402 296.7702,241.7402 C283.4802,244.2702 268.1602,239.1102 255.6902,235.0502 C247.5502,232.4102 239.5502,229.3602 231.7102,226.0102 C219.4602,220.7802 207.5402,214.8402 195.8602,208.6102 C194.0802,207.6702 192.3002,206.7102 190.5202,205.7402 C185.4602,203.0002 181.4502,202.5102 175.7702,202.2702 C173.2702,202.1602 170.7702,202.0202 168.2702,201.9002 C167.2002,201.8302 166.1402,201.7802 165.0702,201.7402 C162.8102,201.6302 160.5502,201.5702 158.3002,201.5702 C156.3602,201.5702 155.3802,199.8002 156.8002,198.3702 C157.4102,197.7602 158.3002,197.4402 159.1702,197.1902 C161.1102,196.6302 163.1102,196.3102 165.0702,195.8602 C166.3002,195.5902 167.5102,195.2702 168.6802,194.8402 C169.8402,194.4102 170.9902,193.8002 171.6402,192.7902 C171.6802,192.7102 171.7402,192.6402 171.7602,192.5702 C171.9502,192.2602 172.0602,191.9502 172.1102,191.6602 L172.1102,191.6402 C172.4902,189.1602 168.6002,187.5602 165.0702,186.6602 C163.1202,186.1502 161.2702,185.8602 160.3302,185.7502 C156.4702,185.3002 152.8602,183.5702 149.7102,181.5002 C148.0802,180.4002 142.8202,178.0002 143.7102,175.4202 C143.7402,175.3102 143.7802,175.2002 143.8502,175.0802 C143.9002,174.9902 143.9702,174.8902 144.0502,174.7802 C144.5002,174.1802 145.2002,173.8202 145.9402,173.5402 C151.4402,171.4702 158.5702,171.9102 165.0702,173.5402 C168.9702,174.5102 172.6502,175.9102 175.6202,177.4502 C176.1302,177.7202 176.6202,177.9802 177.1102,178.2802 C179.7202,179.7502 182.1202,181.5102 184.3202,183.4802 C187.8002,186.6302 189.4902,188.9702 194.4502,190.0902 C197.4702,190.7502 200.4802,191.4302 203.4802,192.1002 C207.9702,193.1102 212.4602,194.1002 216.9402,195.1002 C218.7502,195.5002 220.5602,195.9102 222.3702,196.3102 C237.3702,199.6502 252.3602,203.0002 267.3502,206.3402 C271.7502,207.3202 276.1402,208.3702 280.5602,209.3702 C283.2802,210.0002 286.0202,210.6002 288.7802,211.1402 C295.3602,212.4402 301.2802,210.2802 307.6502,208.9702 C310.7202,208.3502 313.7902,207.7102 316.8702,207.0702 C317.3702,206.9802 317.8802,206.8702 318.3802,206.7702 L326.1802,236.1802 Z" id="Fill-81" fill="#D58070"></path>
                <polygon id="Fill-83" fill="#D58070" points="429.0801 175.4697 428.5801 176.7497 428.5701 176.7597 418.9801 189.5597 417.2901 191.8197 417.2801 191.8197 416.7601 192.5197 411.7901 199.4097 407.4901 192.5997 407.4501 192.5497 406.4301 190.9907 405.6001 189.7097 396.5701 175.9597 396.5601 175.9497 396.5501 175.9197 395.8301 174.1397 401.1301 149.5597 401.3301 148.6597 426.4201 148.8697 426.4601 149.2597"></polygon>
                <path d="M396.5635,145.8389 C403.4725,153.0729 414.7275,155.5019 423.7595,150.8499 C429.1385,148.0789 433.4835,143.5769 436.6555,138.4739 C438.2055,135.9819 439.4875,133.3189 440.4775,130.5569 C441.2355,128.4419 441.4155,125.3229 443.0135,123.6259 C443.3905,123.2259 443.9435,123.0599 444.4525,122.8529 C452.8765,119.4149 451.2145,105.2769 442.4575,104.7749 C431.9235,104.1699 422.3395,87.1849 421.4215,78.3809 C411.7095,80.0769 409.6555,81.3689 403.0385,89.7339 C401.5745,91.5849 400.3645,93.6209 399.1105,95.6209 C394.4065,103.1239 392.4175,107.7079 384.5175,112.0169 C383.2205,112.7239 385.7705,122.3619 386.1225,123.9209 C387.8855,131.7129 390.8185,139.6689 396.3425,145.6049 C396.4165,145.6829 396.4895,145.7609 396.5635,145.8389" id="Fill-85" fill="#D58070"></path>
                <path d="M326.1802,236.1802 C325.7802,236.1802 325.3802,236.2002 324.9702,236.2402 L316.8702,207.0702 C317.3702,206.9802 317.8802,206.8702 318.3802,206.7702 L326.1802,236.1802 Z" id="Fill-87" fill="#8DC640"></path>
                <path d="M510.6499,279.52 L509.7999,279.59 L506.7999,279.85 L476.1669,282.5 L472.9699,237.58 C486.6669,323.833 472.3699,343.87 472.2999,344.03 C421.0599,356.44 386.5299,351.53 370.9599,346.75 C363.5299,344.46 359.9299,342.32 359.9299,342.32 C347.7499,325.5 363.9099,229.91 363.9099,229.91 L325.3399,237.58 L324.9699,236.24 C325.3799,236.2 325.7799,236.18 326.1799,236.18 L318.3799,206.77 C317.8799,206.87 317.3699,206.98 316.8699,207.07 L316.4099,205.45 C320.1099,202.83 323.7399,200.43 327.2799,198.24 C338.4099,191.35 348.6799,186.48 357.6999,183.05 C380.8899,174.21 395.8299,174.82 395.8299,174.82 L396.5499,175.92 C396.5499,175.92 396.5599,175.95 396.5699,175.96 L405.5999,189.71 L406.4299,190.99 L407.4499,192.55 L407.4899,192.6 L411.7899,199.41 L416.7599,192.52 C416.7599,192.52 417.2799,191.82 417.2899,191.82 L418.9799,189.56 C418.9799,189.56 428.5699,176.76 428.5799,176.75 L429.0799,176.1 C450.2779,179.723 472.6189,183.281 486.1069,201.994 C497.0959,217.24 502.2279,235.847 506.3709,253.925 C508.2949,262.323 509.9419,270.92 510.6499,279.52" id="Fill-89" fill="#8DC63F"></path>
                <polygon id="Fill-91" fill="#8DC640" points="416.7598 192.52 411.7898 199.41 407.4898 192.6 411.7898 199.16"></polygon>
                <path d="M472.3013,344.0337 C471.5963,344.2067 470.8913,344.3797 470.1873,344.5387 C470.2663,344.3527 470.3333,344.1797 470.3993,344.0067 C470.7323,343.1827 471.0513,342.3577 471.3703,341.5597 C471.9423,343.1827 472.3013,344.0337 472.3013,344.0337" id="Fill-93" fill="#8DC640"></path>
                <path d="M341.9624,71.0664 L341.9624,92.3464 C341.9624,92.3464 290.7574,89.0214 243.5434,117.6164 L243.5434,92.3464 C243.5434,92.3464 288.0974,65.0814 341.9624,71.0664" id="Fill-95" fill="#F8AD24"></path>
                <path d="M333.3174,143.5508 L333.3174,172.8108 C333.3174,172.8108 280.1174,176.8008 242.8784,199.4108 L242.8784,166.1608 C242.8784,166.1608 286.7674,142.2208 333.3174,143.5508" id="Fill-97" fill="#F8AD24"></path>
                <path d="M373.3232,654.6484 C372.5042,654.8604 372.2482,655.8374 371.9012,656.5124 C370.7792,658.6924 369.5932,660.8334 368.8112,663.1674 C368.0922,665.3154 367.4842,667.5014 366.9882,669.7114 C365.9972,674.1324 365.4592,678.6564 365.3902,683.1874 C365.3072,688.7014 365.6282,694.2034 365.7372,699.7154 C365.8552,705.3804 365.9812,711.2644 368.0352,716.6244 C369.1542,719.5444 370.9852,722.1564 373.1352,724.4104 C375.0322,726.4004 377.6142,729.0114 380.2912,729.8774 C384.4462,731.2224 388.5052,725.4004 390.3922,722.4694 C392.9912,718.4344 394.4332,713.7264 395.0682,708.9954 C396.1282,701.0934 395.1692,693.0264 394.5582,685.1274 C393.6592,673.4824 391.8922,661.8854 388.6932,650.6394 C388.6932,650.6394 373.3832,654.6324 373.3232,654.6484" id="Fill-99" fill="#000000"></path>
                <path d="M356.6367,474.6396 C355.6367,474.6826 357.8447,544.0206 358.2367,550.2436 C359.3747,568.3106 360.9637,586.3846 364.1557,604.2176 C365.7827,613.3106 367.8257,622.3336 370.4137,631.2026 C371.9277,636.3946 373.0827,641.7526 373.0417,647.1866 C372.9797,655.4076 370.7287,663.7536 370.3687,672.0656 C369.9817,680.9916 370.3817,689.9516 371.5737,698.8056 C371.6407,699.3106 387.2737,698.8786 388.9617,698.8786 C392.8307,698.8786 390.3197,651.7736 390.0837,647.8596 C389.9867,646.2566 389.8907,644.6546 389.8577,643.0496 C389.6547,633.0746 391.7727,622.9106 392.3297,612.8696 C394.4337,574.8976 394.6187,536.8366 394.6957,498.8176 C394.6997,496.7246 394.7167,474.6396 394.6887,474.6396 L356.6367,474.6396 Z" id="Fill-101" fill="#D58070"></path>
                <polygon id="Fill-103" fill="#84243E" points="142.7563 557.417 150.4433 544.33 150.4433 561.833"></polygon>
                <path d="M172.3887,387.6045 L172.3887,518.3295 C170.6597,517.4245 168.9707,516.5335 167.3077,515.6285 C166.5627,515.2165 165.8187,514.8175 165.0737,514.4055 C164.3287,514.0065 163.5967,513.5935 162.8657,513.1815 C158.5037,510.7485 154.3677,508.3275 150.4437,505.9335 L150.4437,375.7015 L172.3887,387.6045 Z" id="Fill-105" fill="#84243E"></path>
                <path d="M343.5586,393.5488 L327.1996,421.4788 L320.4826,432.9568 L314.1526,443.7698 L297.4076,472.3778 L294.5216,477.2988 L270.1426,518.9538 L252.1086,549.7568 C220.6146,540.8458 194.1206,529.6598 172.3886,518.3288 L172.3886,506.9708 L250.8576,373.3728 C278.1366,382.0308 309.0316,389.2268 343.5586,393.5488" id="Fill-107" fill="#FFC968"></path>
                <path d="M341.96,92.3501 C341.96,92.3501 290.76,89.0201 243.54,117.6201 L243.54,92.3501 C243.54,92.3501 288.1,65.0801 341.96,71.0701 L341.96,92.3501 Z M333.32,172.8101 C333.32,172.8101 280.12,176.8001 242.88,199.4101 L242.88,166.1601 C242.88,166.1601 286.77,142.2201 333.32,143.5501 L333.32,172.8101 Z M727.66,200.0801 C727.66,200.0801 720.53,153.5001 667.64,108.6501 C646.74,90.9401 618.71,73.4701 581.13,59.2801 C554.72,49.2801 523.6,40.9001 486.93,35.1601 C486.93,35.1601 337.99,18.0501 216.94,65.2501 L216.94,195.1001 C218.75,195.5001 220.56,195.9101 222.37,196.3101 C237.37,199.6501 252.36,203.0001 267.35,206.3401 C271.75,207.3201 276.14,208.3701 280.56,209.3701 C295.08,205.2001 310.71,201.3801 327.28,198.2401 C338.41,191.3501 348.68,186.4801 357.7,183.0501 C357.52,174.7001 358.89,155.8301 360.01,142.2501 C354.78,142.9801 349.42,143.8601 343.96,144.8801 L343.96,112.9601 C343.96,112.9601 351.59,111.9101 363.47,110.7901 C364.73,103.6401 366.42,96.4701 368.66,89.7001 C376.45,65.9901 390.85,46.9501 416.27,48.9401 C439.82,50.7701 453.55,70.7901 459.59,95.9401 C460.6,100.1301 461.41,104.3601 462.07,108.6301 C462.26,109.8001 462.43,110.9701 462.61,112.1501 C463.87,112.4001 465.11,112.6801 466.32,112.9601 L466.32,144.8801 C466.32,144.8801 466.05,144.8101 465.52,144.6801 C465.98,155.8501 466.52,173.1301 466.24,184.3601 C471.17,186.9801 475.55,190.1401 479.44,193.7001 C486.31,194.6501 493.24,195.7501 500.22,197.0401 C521.92,201.0501 544.16,206.8201 566.731,214.7101 C566.731,214.7101 579.46,220.3401 597.07,229.2001 C617.7,239.6001 645.04,254.4301 666.44,269.8201 C679.231,279.0101 689.9,288.4001 695.74,297.1601 C696.14,296.7701 696.54,296.3501 696.94,295.9301 C696.95,295.9101 696.96,295.8901 696.99,295.8701 C703.43,287.8801 709.09,279.2501 713.731,269.9701 L719.69,256.2301 C720.66,253.6301 721.54,251.0001 722.34,248.3101 C725.2,238.7401 727.03,228.5401 727.66,217.7101 L727.66,203.3901 L727.26,203.2801 L727.66,202.0701 L727.66,203.3901 L727.82,203.4301 C727.78,202.3201 727.731,201.2101 727.66,200.0801 L727.66,200.0801 Z" id="Fill-109" fill="#FFC968"></path>
                <path d="M713.7344,269.9663 L712.7504,272.2543 L675.5374,358.0513 L675.5374,358.0653 L664.0464,384.5853 L662.8624,387.2853 L643.1384,432.7843 L623.9204,477.0993 L603.3054,524.6333 L601.8954,527.8783 C581.1344,537.1483 560.9314,544.1713 542.4314,549.4643 L631.6074,348.3693 C656.0794,334.9233 679.3804,317.7263 696.9364,295.9273 C696.9504,295.9143 696.9634,295.8883 696.9904,295.8743 C703.4264,287.8813 709.0924,279.2503 713.7344,269.9663" id="Fill-111" fill="#FFC968"></path>
                <path d="M727.6592,224.082 L727.6592,237.874 L724.4012,245.388 L719.6932,256.228 C720.6642,253.634 721.5422,251.001 722.3402,248.314 C725.1992,238.738 727.0342,228.537 727.6592,217.711 L727.6592,203.387 L727.8192,203.427 L727.9782,203.467 C728.4972,210.25 728.2852,217.192 727.6592,224.082" id="Fill-113" fill="#FFC968"></path>
                <path d="M500.2378,418.1943 L500.2378,617.6923 C500.2378,617.6923 490.7678,621.8693 473.8378,626.3503 C439.7498,635.3683 375.4178,645.6883 297.4138,625.7523 C293.6768,624.7953 289.9128,623.7703 286.1098,622.6793 C285.9758,622.6393 285.8568,622.6133 285.7368,622.5733 C285.5368,622.5203 285.4448,622.4803 285.4448,622.4803 C280.3898,621.0173 275.2968,619.4223 270.1498,617.6923 L270.1498,410.2143 C270.1498,410.2143 380.5388,442.1333 500.2378,418.1943" id="Fill-115" fill="#ED325E"></path>
                <path d="M318.0288,456.7637 C318.0288,468.5167 309.6928,478.0437 299.4088,478.0437 C289.1258,478.0437 280.7888,468.5167 280.7888,456.7637 C280.7888,445.0107 289.1258,435.4837 299.4088,435.4837 C309.6928,435.4837 318.0288,445.0107 318.0288,456.7637" id="Fill-117" fill="#84243E"></path>
                <path d="M493.5879,580.4531 C493.5879,592.9391 484.9539,603.0621 474.3029,603.0621 C463.6519,603.0621 455.0179,592.9391 455.0179,580.4531 C455.0179,567.9661 463.6519,557.8431 474.3029,557.8431 C484.9539,557.8431 493.5879,567.9661 493.5879,580.4531" id="Fill-119" fill="#84243E"></path>
                <path d="M285.4443,513.2881 C285.4443,513.2881 314.7043,527.9181 393.1733,525.2581 L393.1733,569.1471 C393.1733,569.1471 312.0443,571.8081 285.4443,554.5171 L285.4443,513.2881 Z" id="Fill-121" fill="#84243E"></path>
                <path d="M748.2812,286.4453 L748.2812,483.3633 C748.2812,483.3633 747.6162,484.8923 746.2722,487.6323 L746.2462,487.6593 C737.0952,500.8663 725.0592,515.9223 710.0442,530.3513 C687.9522,551.5653 659.3842,571.3823 623.9272,581.7833 L623.9272,517.2783 C617.0242,520.8693 610.1352,524.1803 603.3112,527.2533 L603.3112,419.5243 C603.3112,419.5243 611.4512,416.5453 623.9272,410.3463 C630.3642,407.1413 637.9442,403.0853 646.1642,398.1243 C652.6412,394.2143 659.5302,389.7453 666.5402,384.6913 C675.1712,378.4803 684.0022,371.4053 692.5542,363.4243 C703.2472,353.4633 713.5022,342.0653 722.3452,329.2043 C722.5722,328.8853 722.7982,328.5663 723.0102,328.2463 C724.6072,325.8923 726.1632,323.4853 727.6662,321.0253 C731.4292,314.8933 734.8612,308.4293 737.8802,301.6603 C739.8482,299.0673 741.7772,296.3933 743.6262,293.6673 C745.2212,291.3133 746.7782,288.9053 748.2812,286.4453" id="Fill-123" fill="#84243E"></path>
                <path d="M338.6436,438.8086 C338.6436,438.8086 381.2036,448.1196 431.7436,442.7986 L431.7436,486.6886 C431.7436,486.6886 370.5636,493.3386 338.6436,482.6986 L338.6436,438.8086 Z" id="Fill-125" fill="#84243E"></path>
                <path d="M286.1094,597.7422 C333.9884,615.0322 391.6454,621.6252 441.7184,607.0532" id="Stroke-127" stroke="#84243E" stroke-width="2"></path>
                <path d="M286.1094,581.7832 C333.9884,599.0722 391.6454,605.6652 441.7184,591.0932" id="Stroke-129" stroke="#84243E" stroke-width="2"></path>
                <path d="M667.6367,108.6519 L662.0247,118.2409 L655.0417,130.1719 L652.8337,133.9349 L640.4257,155.1349 L636.5417,161.7719 L633.3637,167.1979 L606.4447,213.1889 L597.0677,229.2019 C579.4587,220.3449 566.7307,214.7059 566.7307,214.7059 C544.1607,206.8189 521.9237,201.0469 500.2177,197.0429 L551.3427,110.0079 L565.2547,86.3209 L581.1347,59.2829 C618.7067,73.4739 646.7427,90.9369 667.6367,108.6519" id="Fill-131" fill="#F9DAA7"></path>
                <path d="M506.2227,127.5908 C506.2227,127.5908 631.2417,143.5508 700.4017,248.6198" id="Stroke-133" stroke="#F8AD24" stroke-width="2"></path>
                <path d="M503.5625,155.521 C503.5625,155.521 628.5825,171.48 697.7415,276.55" id="Stroke-135" stroke="#F8AD24" stroke-width="2"></path>
                <path d="M514.2026,73.0615 C514.2026,73.0615 639.2216,89.0215 708.3806,194.0905" id="Stroke-137" stroke="#F8AD24" stroke-width="2"></path>
                <path d="M508.8823,99.6611 C508.8823,99.6611 633.9013,115.6211 703.0613,220.6901" id="Stroke-139" stroke="#F8AD24" stroke-width="2"></path>
                <path d="M768.8955,234.6553 L768.8955,448.7843 C768.8955,448.7843 761.5535,465.6213 746.2725,487.6333 L746.2465,487.6593 C737.0955,500.8663 725.0595,515.9223 710.0435,530.3513 C687.9525,551.5653 659.3835,571.3823 623.9265,581.7833 L623.9265,384.9443 C623.9265,384.9443 671.8465,367.4273 713.1685,328.8453 C716.2675,325.9463 719.3395,322.9403 722.3455,319.8013 C724.1415,317.9263 725.9235,316.0103 727.6665,314.0423 C731.1905,310.0923 734.6085,305.9693 737.8795,301.6603 C739.8485,299.0673 741.7775,296.3933 743.6255,293.6673 C745.2215,291.3133 746.7785,288.9053 748.2815,286.4453 C757.6575,271.1363 764.9995,253.9003 768.8955,234.6553" id="Fill-141" fill="#84243E"></path>
                <path d="M683.7764,384.9443 C683.7764,384.9443 743.6264,347.7043 754.2654,314.4543 L754.2654,349.0343 C754.2654,349.0343 728.9964,390.2633 683.7764,410.2143 L683.7764,384.9443 Z" id="Fill-143" fill="#ED325E"></path>
                <path d="M652.5205,528.8242 L715.0835,489.0212" id="Stroke-145" stroke="#ED325E" stroke-width="2"></path>
                <path d="M653.1074,514.2139 L715.6704,474.4099" id="Stroke-147" stroke="#ED325E" stroke-width="2"></path>
                <path d="M653.4922,495.6182 L696.7392,468.7822" id="Stroke-149" stroke="#ED325E" stroke-width="2"></path>
                <path d="M652.749,481.0068 L715.312,441.2028" id="Stroke-151" stroke="#ED325E" stroke-width="2"></path>
                <path d="M651.8037,462.4111 L714.3667,422.6071" id="Stroke-153" stroke="#ED325E" stroke-width="2"></path>
                <path d="M674.0732,418.1494 C669.6272,433.5714 657.9672,443.7524 648.0302,440.8864 C638.0932,438.0224 633.6402,423.1974 638.0872,407.7754 C642.5322,392.3534 654.1922,382.1734 664.1302,385.0384 C674.0662,387.9034 678.5182,402.7274 674.0732,418.1494" id="Fill-155" fill="#ED325E"></path>
                <path d="M762.4658,448.8711 C760.2158,456.6761 754.9028,461.9971 750.5988,460.7571 C746.2938,459.5161 744.6288,452.1831 746.8788,444.3781 C749.1288,436.5721 754.4428,431.2511 758.7458,432.4921 C763.0508,433.7321 764.7158,441.0651 762.4658,448.8711" id="Fill-157" fill="#ED325E"></path>
                <path d="M141.812,105.646 L201.662,72.396" id="Stroke-159" stroke="#84243E" stroke-width="2"></path>
                <path d="M141.812,123.6011 L201.662,90.3511" id="Stroke-161" stroke="#84243E" stroke-width="2"></path>
                <path d="M141.812,140.5229 L201.662,107.2729" id="Stroke-163" stroke="#84243E" stroke-width="2"></path>
                <path d="M474.4502,251.6401 L472.9702,237.5801 C473.5902,242.1201 474.0802,246.8301 474.4502,251.6401" id="Fill-165" fill="#8DC640"></path>
            </g>
        </g>
    </g>
</svg>