<?xml version="1.0" encoding="UTF-8"?>
<svg width="602px" height="783px" viewBox="0 0 602 783" version="1.1" xmlns="http://www.w3.org/2000/svg" xmlns:xlink="http://www.w3.org/1999/xlink">
    <!-- Generator: Sketch 53.2 (72643) - https://sketchapp.com -->
    <title>step 4</title>
    <desc>Created with Sketch.</desc>
    <defs>
        <path d="M169.89,99.21 C169.89,111.84 172.26,123.92 176.58,135.031 L176.58,135.031 C77.35,146.57 0.45,227.991 0.45,326.71 L0.45,326.71 C0.45,401.52 44.611,466.401 109.19,498.469 L109.19,498.469 C100.74,518.019 95.92,540.55 95.92,564.52 L95.92,564.52 C95.92,637.111 140.059,696.41 195.599,700.21 L195.599,700.21 C204.41,746.77 247.889,782.12 300.19,782.12 L300.19,782.12 C344.09,782.12 381.76,757.219 397.941,721.7 L397.941,721.7 C419.42,739.05 446.76,749.441 476.51,749.441 L476.51,749.441 C545.63,749.441 601.65,693.41 601.65,624.3 L601.65,624.3 C601.65,588.25 586.41,555.76 562.02,532.911 L562.02,532.911 C570.25,519.3 574.991,503.33 574.991,486.25 L574.991,486.25 C574.991,440.22 540.549,402.231 496.019,396.651 L496.019,396.651 C502.02,381.83 505.321,365.62 505.321,348.64 L505.321,348.64 C505.321,325.62 499.25,304.02 488.63,285.349 L488.63,285.349 C506.639,263.901 517.37,236.911 517.37,207.59 L517.37,207.59 C517.37,137.76 456.519,81.15 381.47,81.15 L381.47,81.15 C376.309,81.15 371.22,81.42 366.209,81.94 L366.209,81.94 C358.04,35.55 317.54,0.3 268.8,0.3 L268.8,0.3 C214.17,0.3 169.89,44.59 169.89,99.21" id="path-1"></path>
        <path d="M169.89,99.21 C169.89,111.84 172.26,123.92 176.58,135.031 L176.58,135.031 C77.35,146.57 0.45,227.991 0.45,326.71 L0.45,326.71 C0.45,401.52 44.611,466.401 109.19,498.469 L109.19,498.469 C100.74,518.019 95.92,540.55 95.92,564.52 L95.92,564.52 C95.92,637.111 140.059,696.41 195.599,700.21 L195.599,700.21 C204.41,746.77 247.889,782.12 300.19,782.12 L300.19,782.12 C344.09,782.12 381.76,757.219 397.941,721.7 L397.941,721.7 C419.42,739.05 446.76,749.441 476.51,749.441 L476.51,749.441 C545.63,749.441 601.65,693.41 601.65,624.3 L601.65,624.3 C601.65,588.25 586.41,555.76 562.02,532.911 L562.02,532.911 C570.25,519.3 574.991,503.33 574.991,486.25 L574.991,486.25 C574.991,440.22 540.549,402.231 496.019,396.651 L496.019,396.651 C502.02,381.83 505.321,365.62 505.321,348.64 L505.321,348.64 C505.321,325.62 499.25,304.02 488.63,285.349 L488.63,285.349 C506.639,263.901 517.37,236.911 517.37,207.59 L517.37,207.59 C517.37,137.76 456.519,81.15 381.47,81.15 L381.47,81.15 C376.309,81.15 371.22,81.42 366.209,81.94 L366.209,81.94 C358.04,35.55 317.54,0.3 268.8,0.3 L268.8,0.3 C214.17,0.3 169.89,44.59 169.89,99.21" id="path-3"></path>
        <path d="M169.89,99.21 C169.89,111.84 172.26,123.92 176.58,135.031 L176.58,135.031 C77.35,146.57 0.45,227.991 0.45,326.71 L0.45,326.71 C0.45,401.52 44.611,466.401 109.19,498.469 L109.19,498.469 C100.74,518.019 95.92,540.55 95.92,564.52 L95.92,564.52 C95.92,637.111 140.059,696.41 195.599,700.21 L195.599,700.21 C204.41,746.77 247.889,782.12 300.19,782.12 L300.19,782.12 C344.09,782.12 381.76,757.219 397.941,721.7 L397.941,721.7 C419.42,739.05 446.76,749.441 476.51,749.441 L476.51,749.441 C545.63,749.441 601.65,693.41 601.65,624.3 L601.65,624.3 C601.65,588.25 586.41,555.76 562.02,532.911 L562.02,532.911 C570.25,519.3 574.991,503.33 574.991,486.25 L574.991,486.25 C574.991,440.22 540.549,402.231 496.019,396.651 L496.019,396.651 C502.02,381.83 505.321,365.62 505.321,348.64 L505.321,348.64 C505.321,325.62 499.25,304.02 488.63,285.349 L488.63,285.349 C506.639,263.901 517.37,236.911 517.37,207.59 L517.37,207.59 C517.37,137.76 456.519,81.15 381.47,81.15 L381.47,81.15 C376.309,81.15 371.22,81.42 366.209,81.94 L366.209,81.94 C358.04,35.55 317.54,0.3 268.8,0.3 L268.8,0.3 C214.17,0.3 169.89,44.59 169.89,99.21" id="path-5"></path>
        <path d="M169.89,99.21 C169.89,111.84 172.26,123.92 176.58,135.031 L176.58,135.031 C77.35,146.57 0.45,227.991 0.45,326.71 L0.45,326.71 C0.45,401.52 44.611,466.401 109.19,498.469 L109.19,498.469 C100.74,518.019 95.92,540.55 95.92,564.52 L95.92,564.52 C95.92,637.111 140.059,696.41 195.599,700.21 L195.599,700.21 C204.41,746.77 247.889,782.12 300.19,782.12 L300.19,782.12 C344.09,782.12 381.76,757.219 397.941,721.7 L397.941,721.7 C419.42,739.05 446.76,749.441 476.51,749.441 L476.51,749.441 C545.63,749.441 601.65,693.41 601.65,624.3 L601.65,624.3 C601.65,588.25 586.41,555.76 562.02,532.911 L562.02,532.911 C570.25,519.3 574.991,503.33 574.991,486.25 L574.991,486.25 C574.991,440.22 540.549,402.231 496.019,396.651 L496.019,396.651 C502.02,381.83 505.321,365.62 505.321,348.64 L505.321,348.64 C505.321,325.62 499.25,304.02 488.63,285.349 L488.63,285.349 C506.639,263.901 517.37,236.911 517.37,207.59 L517.37,207.59 C517.37,137.76 456.519,81.15 381.47,81.15 L381.47,81.15 C376.309,81.15 371.22,81.42 366.209,81.94 L366.209,81.94 C358.04,35.55 317.54,0.3 268.8,0.3 L268.8,0.3 C214.17,0.3 169.89,44.59 169.89,99.21" id="path-7"></path>
        <path d="M169.89,99.21 C169.89,111.84 172.26,123.92 176.58,135.031 L176.58,135.031 C77.35,146.57 0.45,227.991 0.45,326.71 L0.45,326.71 C0.45,401.52 44.611,466.401 109.19,498.469 L109.19,498.469 C100.74,518.019 95.92,540.55 95.92,564.52 L95.92,564.52 C95.92,637.111 140.059,696.41 195.599,700.21 L195.599,700.21 C204.41,746.77 247.889,782.12 300.19,782.12 L300.19,782.12 C344.09,782.12 381.76,757.219 397.941,721.7 L397.941,721.7 C419.42,739.05 446.76,749.441 476.51,749.441 L476.51,749.441 C545.63,749.441 601.65,693.41 601.65,624.3 L601.65,624.3 C601.65,588.25 586.41,555.76 562.02,532.911 L562.02,532.911 C570.25,519.3 574.991,503.33 574.991,486.25 L574.991,486.25 C574.991,440.22 540.549,402.231 496.019,396.651 L496.019,396.651 C502.02,381.83 505.321,365.62 505.321,348.64 L505.321,348.64 C505.321,325.62 499.25,304.02 488.63,285.349 L488.63,285.349 C506.639,263.901 517.37,236.911 517.37,207.59 L517.37,207.59 C517.37,137.76 456.519,81.15 381.47,81.15 L381.47,81.15 C376.309,81.15 371.22,81.42 366.209,81.94 L366.209,81.94 C358.04,35.55 317.54,0.3 268.8,0.3 L268.8,0.3 C214.17,0.3 169.89,44.59 169.89,99.21" id="path-9"></path>
        <path d="M169.89,99.21 C169.89,111.84 172.26,123.92 176.58,135.031 L176.58,135.031 C77.35,146.57 0.45,227.991 0.45,326.71 L0.45,326.71 C0.45,401.52 44.611,466.401 109.19,498.469 L109.19,498.469 C100.74,518.019 95.92,540.55 95.92,564.52 L95.92,564.52 C95.92,637.111 140.059,696.41 195.599,700.21 L195.599,700.21 C204.41,746.77 247.889,782.12 300.19,782.12 L300.19,782.12 C344.09,782.12 381.76,757.219 397.941,721.7 L397.941,721.7 C419.42,739.05 446.76,749.441 476.51,749.441 L476.51,749.441 C545.63,749.441 601.65,693.41 601.65,624.3 L601.65,624.3 C601.65,588.25 586.41,555.76 562.02,532.911 L562.02,532.911 C570.25,519.3 574.991,503.33 574.991,486.25 L574.991,486.25 C574.991,440.22 540.549,402.231 496.019,396.651 L496.019,396.651 C502.02,381.83 505.321,365.62 505.321,348.64 L505.321,348.64 C505.321,325.62 499.25,304.02 488.63,285.349 L488.63,285.349 C506.639,263.901 517.37,236.911 517.37,207.59 L517.37,207.59 C517.37,137.76 456.519,81.15 381.47,81.15 L381.47,81.15 C376.309,81.15 371.22,81.42 366.209,81.94 L366.209,81.94 C358.04,35.55 317.54,0.3 268.8,0.3 L268.8,0.3 C214.17,0.3 169.89,44.59 169.89,99.21" id="path-11"></path>
        <path d="M169.89,99.21 C169.89,111.84 172.26,123.92 176.58,135.031 L176.58,135.031 C77.35,146.57 0.45,227.991 0.45,326.71 L0.45,326.71 C0.45,401.52 44.611,466.401 109.19,498.469 L109.19,498.469 C100.74,518.019 95.92,540.55 95.92,564.52 L95.92,564.52 C95.92,637.111 140.059,696.41 195.599,700.21 L195.599,700.21 C204.41,746.77 247.889,782.12 300.19,782.12 L300.19,782.12 C344.09,782.12 381.76,757.219 397.941,721.7 L397.941,721.7 C419.42,739.05 446.76,749.441 476.51,749.441 L476.51,749.441 C545.63,749.441 601.65,693.41 601.65,624.3 L601.65,624.3 C601.65,588.25 586.41,555.76 562.02,532.911 L562.02,532.911 C570.25,519.3 574.991,503.33 574.991,486.25 L574.991,486.25 C574.991,440.22 540.549,402.231 496.019,396.651 L496.019,396.651 C502.02,381.83 505.321,365.62 505.321,348.64 L505.321,348.64 C505.321,325.62 499.25,304.02 488.63,285.349 L488.63,285.349 C506.639,263.901 517.37,236.911 517.37,207.59 L517.37,207.59 C517.37,137.76 456.519,81.15 381.47,81.15 L381.47,81.15 C376.309,81.15 371.22,81.42 366.209,81.94 L366.209,81.94 C358.04,35.55 317.54,0.3 268.8,0.3 L268.8,0.3 C214.17,0.3 169.89,44.59 169.89,99.21" id="path-13"></path>
        <path d="M169.89,99.21 C169.89,111.84 172.26,123.92 176.58,135.031 L176.58,135.031 C77.35,146.57 0.45,227.991 0.45,326.71 L0.45,326.71 C0.45,401.52 44.611,466.401 109.19,498.469 L109.19,498.469 C100.74,518.019 95.92,540.55 95.92,564.52 L95.92,564.52 C95.92,637.111 140.059,696.41 195.599,700.21 L195.599,700.21 C204.41,746.77 247.889,782.12 300.19,782.12 L300.19,782.12 C344.09,782.12 381.76,757.219 397.941,721.7 L397.941,721.7 C419.42,739.05 446.76,749.441 476.51,749.441 L476.51,749.441 C545.63,749.441 601.65,693.41 601.65,624.3 L601.65,624.3 C601.65,588.25 586.41,555.76 562.02,532.911 L562.02,532.911 C570.25,519.3 574.991,503.33 574.991,486.25 L574.991,486.25 C574.991,440.22 540.549,402.231 496.019,396.651 L496.019,396.651 C502.02,381.83 505.321,365.62 505.321,348.64 L505.321,348.64 C505.321,325.62 499.25,304.02 488.63,285.349 L488.63,285.349 C506.639,263.901 517.37,236.911 517.37,207.59 L517.37,207.59 C517.37,137.76 456.519,81.15 381.47,81.15 L381.47,81.15 C376.309,81.15 371.22,81.42 366.209,81.94 L366.209,81.94 C358.04,35.55 317.54,0.3 268.8,0.3 L268.8,0.3 C214.17,0.3 169.89,44.59 169.89,99.21" id="path-15"></path>
        <path d="M169.89,99.21 C169.89,111.84 172.26,123.92 176.58,135.031 L176.58,135.031 C77.35,146.57 0.45,227.991 0.45,326.71 L0.45,326.71 C0.45,401.52 44.611,466.401 109.19,498.469 L109.19,498.469 C100.74,518.019 95.92,540.55 95.92,564.52 L95.92,564.52 C95.92,637.111 140.059,696.41 195.599,700.21 L195.599,700.21 C204.41,746.77 247.889,782.12 300.19,782.12 L300.19,782.12 C344.09,782.12 381.76,757.219 397.941,721.7 L397.941,721.7 C419.42,739.05 446.76,749.441 476.51,749.441 L476.51,749.441 C545.63,749.441 601.65,693.41 601.65,624.3 L601.65,624.3 C601.65,588.25 586.41,555.76 562.02,532.911 L562.02,532.911 C570.25,519.3 574.991,503.33 574.991,486.25 L574.991,486.25 C574.991,440.22 540.549,402.231 496.019,396.651 L496.019,396.651 C502.02,381.83 505.321,365.62 505.321,348.64 L505.321,348.64 C505.321,325.62 499.25,304.02 488.63,285.349 L488.63,285.349 C506.639,263.901 517.37,236.911 517.37,207.59 L517.37,207.59 C517.37,137.76 456.519,81.15 381.47,81.15 L381.47,81.15 C376.309,81.15 371.22,81.42 366.209,81.94 L366.209,81.94 C358.04,35.55 317.54,0.3 268.8,0.3 L268.8,0.3 C214.17,0.3 169.89,44.59 169.89,99.21" id="path-17"></path>
        <path d="M169.89,99.21 C169.89,111.84 172.26,123.92 176.58,135.031 L176.58,135.031 C77.35,146.57 0.45,227.991 0.45,326.71 L0.45,326.71 C0.45,401.52 44.611,466.401 109.19,498.469 L109.19,498.469 C100.74,518.019 95.92,540.55 95.92,564.52 L95.92,564.52 C95.92,637.111 140.059,696.41 195.599,700.21 L195.599,700.21 C204.41,746.77 247.889,782.12 300.19,782.12 L300.19,782.12 C344.09,782.12 381.76,757.219 397.941,721.7 L397.941,721.7 C419.42,739.05 446.76,749.441 476.51,749.441 L476.51,749.441 C545.63,749.441 601.65,693.41 601.65,624.3 L601.65,624.3 C601.65,588.25 586.41,555.76 562.02,532.911 L562.02,532.911 C570.25,519.3 574.991,503.33 574.991,486.25 L574.991,486.25 C574.991,440.22 540.549,402.231 496.019,396.651 L496.019,396.651 C502.02,381.83 505.321,365.62 505.321,348.64 L505.321,348.64 C505.321,325.62 499.25,304.02 488.63,285.349 L488.63,285.349 C506.639,263.901 517.37,236.911 517.37,207.59 L517.37,207.59 C517.37,137.76 456.519,81.15 381.47,81.15 L381.47,81.15 C376.309,81.15 371.22,81.42 366.209,81.94 L366.209,81.94 C358.04,35.55 317.54,0.3 268.8,0.3 L268.8,0.3 C214.17,0.3 169.89,44.59 169.89,99.21" id="path-19"></path>
        <path d="M169.89,99.21 C169.89,111.84 172.26,123.92 176.58,135.031 L176.58,135.031 C77.35,146.57 0.45,227.991 0.45,326.71 L0.45,326.71 C0.45,401.52 44.611,466.401 109.19,498.469 L109.19,498.469 C100.74,518.019 95.92,540.55 95.92,564.52 L95.92,564.52 C95.92,637.111 140.059,696.41 195.599,700.21 L195.599,700.21 C204.41,746.77 247.889,782.12 300.19,782.12 L300.19,782.12 C344.09,782.12 381.76,757.219 397.941,721.7 L397.941,721.7 C419.42,739.05 446.76,749.441 476.51,749.441 L476.51,749.441 C545.63,749.441 601.65,693.41 601.65,624.3 L601.65,624.3 C601.65,588.25 586.41,555.76 562.02,532.911 L562.02,532.911 C570.25,519.3 574.991,503.33 574.991,486.25 L574.991,486.25 C574.991,440.22 540.549,402.231 496.019,396.651 L496.019,396.651 C502.02,381.83 505.321,365.62 505.321,348.64 L505.321,348.64 C505.321,325.62 499.25,304.02 488.63,285.349 L488.63,285.349 C506.639,263.901 517.37,236.911 517.37,207.59 L517.37,207.59 C517.37,137.76 456.519,81.15 381.47,81.15 L381.47,81.15 C376.309,81.15 371.22,81.42 366.209,81.94 L366.209,81.94 C358.04,35.55 317.54,0.3 268.8,0.3 L268.8,0.3 C214.17,0.3 169.89,44.59 169.89,99.21" id="path-21"></path>
        <path d="M169.89,99.21 C169.89,111.84 172.26,123.92 176.58,135.031 L176.58,135.031 C77.35,146.57 0.45,227.991 0.45,326.71 L0.45,326.71 C0.45,401.52 44.611,466.401 109.19,498.469 L109.19,498.469 C100.74,518.019 95.92,540.55 95.92,564.52 L95.92,564.52 C95.92,637.111 140.059,696.41 195.599,700.21 L195.599,700.21 C204.41,746.77 247.889,782.12 300.19,782.12 L300.19,782.12 C344.09,782.12 381.76,757.219 397.941,721.7 L397.941,721.7 C419.42,739.05 446.76,749.441 476.51,749.441 L476.51,749.441 C545.63,749.441 601.65,693.41 601.65,624.3 L601.65,624.3 C601.65,588.25 586.41,555.76 562.02,532.911 L562.02,532.911 C570.25,519.3 574.991,503.33 574.991,486.25 L574.991,486.25 C574.991,440.22 540.549,402.231 496.019,396.651 L496.019,396.651 C502.02,381.83 505.321,365.62 505.321,348.64 L505.321,348.64 C505.321,325.62 499.25,304.02 488.63,285.349 L488.63,285.349 C506.639,263.901 517.37,236.911 517.37,207.59 L517.37,207.59 C517.37,137.76 456.519,81.15 381.47,81.15 L381.47,81.15 C376.309,81.15 371.22,81.42 366.209,81.94 L366.209,81.94 C358.04,35.55 317.54,0.3 268.8,0.3 L268.8,0.3 C214.17,0.3 169.89,44.59 169.89,99.21" id="path-23"></path>
        <path d="M169.89,99.21 C169.89,111.84 172.26,123.92 176.58,135.031 L176.58,135.031 C77.35,146.57 0.45,227.991 0.45,326.71 L0.45,326.71 C0.45,401.52 44.611,466.401 109.19,498.469 L109.19,498.469 C100.74,518.019 95.92,540.55 95.92,564.52 L95.92,564.52 C95.92,637.111 140.059,696.41 195.599,700.21 L195.599,700.21 C204.41,746.77 247.889,782.12 300.19,782.12 L300.19,782.12 C344.09,782.12 381.76,757.219 397.941,721.7 L397.941,721.7 C419.42,739.05 446.76,749.441 476.51,749.441 L476.51,749.441 C545.63,749.441 601.65,693.41 601.65,624.3 L601.65,624.3 C601.65,588.25 586.41,555.76 562.02,532.911 L562.02,532.911 C570.25,519.3 574.991,503.33 574.991,486.25 L574.991,486.25 C574.991,440.22 540.549,402.231 496.019,396.651 L496.019,396.651 C502.02,381.83 505.321,365.62 505.321,348.64 L505.321,348.64 C505.321,325.62 499.25,304.02 488.63,285.349 L488.63,285.349 C506.639,263.901 517.37,236.911 517.37,207.59 L517.37,207.59 C517.37,137.76 456.519,81.15 381.47,81.15 L381.47,81.15 C376.309,81.15 371.22,81.42 366.209,81.94 L366.209,81.94 C358.04,35.55 317.54,0.3 268.8,0.3 L268.8,0.3 C214.17,0.3 169.89,44.59 169.89,99.21" id="path-25"></path>
        <path d="M169.89,99.21 C169.89,111.84 172.26,123.92 176.58,135.031 L176.58,135.031 C77.35,146.57 0.45,227.991 0.45,326.71 L0.45,326.71 C0.45,401.52 44.611,466.401 109.19,498.469 L109.19,498.469 C100.74,518.019 95.92,540.55 95.92,564.52 L95.92,564.52 C95.92,637.111 140.059,696.41 195.599,700.21 L195.599,700.21 C204.41,746.77 247.889,782.12 300.19,782.12 L300.19,782.12 C344.09,782.12 381.76,757.219 397.941,721.7 L397.941,721.7 C419.42,739.05 446.76,749.441 476.51,749.441 L476.51,749.441 C545.63,749.441 601.65,693.41 601.65,624.3 L601.65,624.3 C601.65,588.25 586.41,555.76 562.02,532.911 L562.02,532.911 C570.25,519.3 574.991,503.33 574.991,486.25 L574.991,486.25 C574.991,440.22 540.549,402.231 496.019,396.651 L496.019,396.651 C502.02,381.83 505.321,365.62 505.321,348.64 L505.321,348.64 C505.321,325.62 499.25,304.02 488.63,285.349 L488.63,285.349 C506.639,263.901 517.37,236.911 517.37,207.59 L517.37,207.59 C517.37,137.76 456.519,81.15 381.47,81.15 L381.47,81.15 C376.309,81.15 371.22,81.42 366.209,81.94 L366.209,81.94 C358.04,35.55 317.54,0.3 268.8,0.3 L268.8,0.3 C214.17,0.3 169.89,44.59 169.89,99.21" id="path-27"></path>
        <path d="M169.89,99.21 C169.89,111.84 172.26,123.92 176.58,135.031 L176.58,135.031 C77.35,146.57 0.45,227.991 0.45,326.71 L0.45,326.71 C0.45,401.52 44.611,466.401 109.19,498.469 L109.19,498.469 C100.74,518.019 95.92,540.55 95.92,564.52 L95.92,564.52 C95.92,637.111 140.059,696.41 195.599,700.21 L195.599,700.21 C204.41,746.77 247.889,782.12 300.19,782.12 L300.19,782.12 C344.09,782.12 381.76,757.219 397.941,721.7 L397.941,721.7 C419.42,739.05 446.76,749.441 476.51,749.441 L476.51,749.441 C545.63,749.441 601.65,693.41 601.65,624.3 L601.65,624.3 C601.65,588.25 586.41,555.76 562.02,532.911 L562.02,532.911 C570.25,519.3 574.991,503.33 574.991,486.25 L574.991,486.25 C574.991,440.22 540.549,402.231 496.019,396.651 L496.019,396.651 C502.02,381.83 505.321,365.62 505.321,348.64 L505.321,348.64 C505.321,325.62 499.25,304.02 488.63,285.349 L488.63,285.349 C506.639,263.901 517.37,236.911 517.37,207.59 L517.37,207.59 C517.37,137.76 456.519,81.15 381.47,81.15 L381.47,81.15 C376.309,81.15 371.22,81.42 366.209,81.94 L366.209,81.94 C358.04,35.55 317.54,0.3 268.8,0.3 L268.8,0.3 C214.17,0.3 169.89,44.59 169.89,99.21" id="path-29"></path>
        <path d="M169.89,99.21 C169.89,111.84 172.26,123.92 176.58,135.031 L176.58,135.031 C77.35,146.57 0.45,227.991 0.45,326.71 L0.45,326.71 C0.45,401.52 44.611,466.401 109.19,498.469 L109.19,498.469 C100.74,518.019 95.92,540.55 95.92,564.52 L95.92,564.52 C95.92,637.111 140.059,696.41 195.599,700.21 L195.599,700.21 C204.41,746.77 247.889,782.12 300.19,782.12 L300.19,782.12 C344.09,782.12 381.76,757.219 397.941,721.7 L397.941,721.7 C419.42,739.05 446.76,749.441 476.51,749.441 L476.51,749.441 C545.63,749.441 601.65,693.41 601.65,624.3 L601.65,624.3 C601.65,588.25 586.41,555.76 562.02,532.911 L562.02,532.911 C570.25,519.3 574.991,503.33 574.991,486.25 L574.991,486.25 C574.991,440.22 540.549,402.231 496.019,396.651 L496.019,396.651 C502.02,381.83 505.321,365.62 505.321,348.64 L505.321,348.64 C505.321,325.62 499.25,304.02 488.63,285.349 L488.63,285.349 C506.639,263.901 517.37,236.911 517.37,207.59 L517.37,207.59 C517.37,137.76 456.519,81.15 381.47,81.15 L381.47,81.15 C376.309,81.15 371.22,81.42 366.209,81.94 L366.209,81.94 C358.04,35.55 317.54,0.3 268.8,0.3 L268.8,0.3 C214.17,0.3 169.89,44.59 169.89,99.21" id="path-31"></path>
        <path d="M169.89,99.21 C169.89,111.84 172.26,123.92 176.58,135.031 L176.58,135.031 C77.35,146.57 0.45,227.991 0.45,326.71 L0.45,326.71 C0.45,401.52 44.611,466.401 109.19,498.469 L109.19,498.469 C100.74,518.019 95.92,540.55 95.92,564.52 L95.92,564.52 C95.92,637.111 140.059,696.41 195.599,700.21 L195.599,700.21 C204.41,746.77 247.889,782.12 300.19,782.12 L300.19,782.12 C344.09,782.12 381.76,757.219 397.941,721.7 L397.941,721.7 C419.42,739.05 446.76,749.441 476.51,749.441 L476.51,749.441 C545.63,749.441 601.65,693.41 601.65,624.3 L601.65,624.3 C601.65,588.25 586.41,555.76 562.02,532.911 L562.02,532.911 C570.25,519.3 574.991,503.33 574.991,486.25 L574.991,486.25 C574.991,440.22 540.549,402.231 496.019,396.651 L496.019,396.651 C502.02,381.83 505.321,365.62 505.321,348.64 L505.321,348.64 C505.321,325.62 499.25,304.02 488.63,285.349 L488.63,285.349 C506.639,263.901 517.37,236.911 517.37,207.59 L517.37,207.59 C517.37,137.76 456.519,81.15 381.47,81.15 L381.47,81.15 C376.309,81.15 371.22,81.42 366.209,81.94 L366.209,81.94 C358.04,35.55 317.54,0.3 268.8,0.3 L268.8,0.3 C214.17,0.3 169.89,44.59 169.89,99.21" id="path-33"></path>
        <path d="M169.89,99.21 C169.89,111.84 172.26,123.92 176.58,135.031 L176.58,135.031 C77.35,146.57 0.45,227.991 0.45,326.71 L0.45,326.71 C0.45,401.52 44.611,466.401 109.19,498.469 L109.19,498.469 C100.74,518.019 95.92,540.55 95.92,564.52 L95.92,564.52 C95.92,637.111 140.059,696.41 195.599,700.21 L195.599,700.21 C204.41,746.77 247.889,782.12 300.19,782.12 L300.19,782.12 C344.09,782.12 381.76,757.219 397.941,721.7 L397.941,721.7 C419.42,739.05 446.76,749.441 476.51,749.441 L476.51,749.441 C545.63,749.441 601.65,693.41 601.65,624.3 L601.65,624.3 C601.65,588.25 586.41,555.76 562.02,532.911 L562.02,532.911 C570.25,519.3 574.991,503.33 574.991,486.25 L574.991,486.25 C574.991,440.22 540.549,402.231 496.019,396.651 L496.019,396.651 C502.02,381.83 505.321,365.62 505.321,348.64 L505.321,348.64 C505.321,325.62 499.25,304.02 488.63,285.349 L488.63,285.349 C506.639,263.901 517.37,236.911 517.37,207.59 L517.37,207.59 C517.37,137.76 456.519,81.15 381.47,81.15 L381.47,81.15 C376.309,81.15 371.22,81.42 366.209,81.94 L366.209,81.94 C358.04,35.55 317.54,0.3 268.8,0.3 L268.8,0.3 C214.17,0.3 169.89,44.59 169.89,99.21 L169.89,99.21 Z" id="path-35"></path>
        <path d="M169.89,99.21 C169.89,111.84 172.26,123.92 176.58,135.031 L176.58,135.031 C77.35,146.57 0.45,227.991 0.45,326.71 L0.45,326.71 C0.45,401.52 44.611,466.401 109.19,498.469 L109.19,498.469 C100.74,518.019 95.92,540.55 95.92,564.52 L95.92,564.52 C95.92,637.111 140.059,696.41 195.599,700.21 L195.599,700.21 C204.41,746.77 247.889,782.12 300.19,782.12 L300.19,782.12 C344.09,782.12 381.76,757.219 397.941,721.7 L397.941,721.7 C419.42,739.05 446.76,749.441 476.51,749.441 L476.51,749.441 C545.63,749.441 601.65,693.41 601.65,624.3 L601.65,624.3 C601.65,588.25 586.41,555.76 562.02,532.911 L562.02,532.911 C570.25,519.3 574.991,503.33 574.991,486.25 L574.991,486.25 C574.991,440.22 540.549,402.231 496.019,396.651 L496.019,396.651 C502.02,381.83 505.321,365.62 505.321,348.64 L505.321,348.64 C505.321,325.62 499.25,304.02 488.63,285.349 L488.63,285.349 C506.639,263.901 517.37,236.911 517.37,207.59 L517.37,207.59 C517.37,137.76 456.519,81.15 381.47,81.15 L381.47,81.15 C376.309,81.15 371.22,81.42 366.209,81.94 L366.209,81.94 C358.04,35.55 317.54,0.3 268.8,0.3 L268.8,0.3 C214.17,0.3 169.89,44.59 169.89,99.21 L169.89,99.21 Z" id="path-37"></path>
        <path d="M169.89,99.21 C169.89,111.84 172.26,123.92 176.58,135.031 L176.58,135.031 C77.35,146.57 0.45,227.991 0.45,326.71 L0.45,326.71 C0.45,401.52 44.611,466.401 109.19,498.469 L109.19,498.469 C100.74,518.019 95.92,540.55 95.92,564.52 L95.92,564.52 C95.92,637.111 140.059,696.41 195.599,700.21 L195.599,700.21 C204.41,746.77 247.889,782.12 300.19,782.12 L300.19,782.12 C344.09,782.12 381.76,757.219 397.941,721.7 L397.941,721.7 C419.42,739.05 446.76,749.441 476.51,749.441 L476.51,749.441 C545.63,749.441 601.65,693.41 601.65,624.3 L601.65,624.3 C601.65,588.25 586.41,555.76 562.02,532.911 L562.02,532.911 C570.25,519.3 574.991,503.33 574.991,486.25 L574.991,486.25 C574.991,440.22 540.549,402.231 496.019,396.651 L496.019,396.651 C502.02,381.83 505.321,365.62 505.321,348.64 L505.321,348.64 C505.321,325.62 499.25,304.02 488.63,285.349 L488.63,285.349 C506.639,263.901 517.37,236.911 517.37,207.59 L517.37,207.59 C517.37,137.76 456.519,81.15 381.47,81.15 L381.47,81.15 C376.309,81.15 371.22,81.42 366.209,81.94 L366.209,81.94 C358.04,35.55 317.54,0.3 268.8,0.3 L268.8,0.3 C214.17,0.3 169.89,44.59 169.89,99.21" id="path-39"></path>
    </defs>
    <g id="Page-1" stroke="none" stroke-width="1" fill="none" fill-rule="evenodd">
        <g id="1st"></g>
        <g id="step-4">
            <g id="Group-85">
                <path d="M34.3857,619.1201 C34.3857,636.2211 48.2487,650.0841 65.3487,650.0841 C82.4487,650.0841 96.3127,636.2211 96.3127,619.1201 C96.3127,602.0201 82.4487,588.1571 65.3487,588.1571 C48.2487,588.1571 34.3857,602.0201 34.3857,619.1201" id="Fill-33" fill="#F4F8EA"></path>
                <path d="M509.6934,316.7568 C509.6934,325.8768 517.0874,333.2698 526.2074,333.2698 C535.3274,333.2698 542.7204,325.8768 542.7204,316.7568 C542.7204,307.6358 535.3274,300.2428 526.2074,300.2428 C517.0874,300.2428 509.6934,307.6358 509.6934,316.7568" id="Fill-35" fill="#F4F8EA"></path>
                <g id="Group-168">
                    <mask id="mask-2" fill="white">
                        <use xlink:href="#path-1"></use>
                    </mask>
                    <g id="Clip-167"></g>
                    <path d="M401.2539,326.707 C401.2539,433.347 311.5319,519.796 200.8549,519.796 C90.1769,519.796 0.4539,433.347 0.4539,326.707 C0.4539,220.066 90.1769,133.618 200.8549,133.618 C311.5319,133.618 401.2539,220.066 401.2539,326.707" id="Fill-166" fill="#F4F8EA" mask="url(#mask-2)"></path>
                </g>
                <g id="Group-171">
                    <mask id="mask-4" fill="white">
                        <use xlink:href="#path-3"></use>
                    </mask>
                    <g id="Clip-170"></g>
                    <path d="M367.7109,99.2148 C367.7109,153.8408 323.4279,198.1238 268.8009,198.1238 C214.1749,198.1238 169.8919,153.8408 169.8919,99.2148 C169.8919,44.5878 214.1749,0.3048 268.8009,0.3048 C323.4279,0.3048 367.7109,44.5878 367.7109,99.2148" id="Fill-169" fill="#F4F8EA" mask="url(#mask-4)"></path>
                </g>
                <g id="Group-174">
                    <mask id="mask-6" fill="white">
                        <use xlink:href="#path-5"></use>
                    </mask>
                    <g id="Clip-173"></g>
                    <path d="M517.3652,207.585 C517.3652,277.412 456.5242,334.018 381.4712,334.018 C306.4202,334.018 245.5792,277.412 245.5792,207.585 C245.5792,137.759 306.4202,81.152 381.4712,81.152 C456.5242,81.152 517.3652,137.759 517.3652,207.585" id="Fill-172" fill="#F4F8EA" mask="url(#mask-6)"></path>
                </g>
                <g id="Group-177">
                    <mask id="mask-8" fill="white">
                        <use xlink:href="#path-7"></use>
                    </mask>
                    <g id="Clip-176"></g>
                    <path d="M249.0195,348.6387 C249.0195,419.4157 306.3945,476.7917 377.1715,476.7917 C447.9485,476.7917 505.3245,419.4157 505.3245,348.6387 C505.3245,277.8627 447.9485,220.4867 377.1715,220.4867 C306.3945,220.4867 249.0195,277.8627 249.0195,348.6387" id="Fill-175" fill="#F4F8EA" mask="url(#mask-8)"></path>
                </g>
                <g id="Group-180">
                    <mask id="mask-10" fill="white">
                        <use xlink:href="#path-9"></use>
                    </mask>
                    <g id="Clip-179"></g>
                    <path d="M306.6445,564.5205 C306.6445,639.5725 259.4735,700.4145 201.2845,700.4145 C143.0955,700.4145 95.9235,639.5725 95.9235,564.5205 C95.9235,489.4685 143.0955,428.6265 201.2845,428.6265 C259.4735,428.6265 306.6445,489.4685 306.6445,564.5205" id="Fill-178" fill="#F4F8EA" mask="url(#mask-10)"></path>
                </g>
                <g id="Group-183">
                    <mask id="mask-12" fill="white">
                        <use xlink:href="#path-11"></use>
                    </mask>
                    <g id="Clip-182"></g>
                    <path d="M193.9736,682.7822 C193.9736,737.6452 241.5306,782.1222 300.1946,782.1222 C358.8586,782.1222 406.4146,737.6452 406.4146,682.7822 C406.4146,627.9182 358.8586,583.4422 300.1946,583.4422 C241.5306,583.4422 193.9736,627.9182 193.9736,682.7822" id="Fill-181" fill="#F4F8EA" mask="url(#mask-12)"></path>
                </g>
                <g id="Group-186">
                    <mask id="mask-14" fill="white">
                        <use xlink:href="#path-13"></use>
                    </mask>
                    <g id="Clip-185"></g>
                    <path d="M351.3691,624.2959 C351.3691,693.4099 407.3971,749.4389 476.5121,749.4389 C545.6261,749.4389 601.6531,693.4099 601.6531,624.2959 C601.6531,555.1819 545.6261,499.1529 476.5121,499.1529 C407.3971,499.1529 351.3691,555.1819 351.3691,624.2959" id="Fill-184" fill="#F4F8EA" mask="url(#mask-14)"></path>
                </g>
                <g id="Group-189">
                    <mask id="mask-16" fill="white">
                        <use xlink:href="#path-15"></use>
                    </mask>
                    <g id="Clip-188"></g>
                    <path d="M234.3975,543.4482 C234.3975,612.5622 290.4255,668.5912 359.5405,668.5912 C428.6545,668.5912 484.6825,612.5622 484.6825,543.4482 C484.6825,474.3342 428.6545,418.3052 359.5405,418.3052 C290.4255,418.3052 234.3975,474.3342 234.3975,543.4482" id="Fill-187" fill="#F4F8EA" mask="url(#mask-16)"></path>
                </g>
                <g id="Group-192">
                    <mask id="mask-18" fill="white">
                        <use xlink:href="#path-17"></use>
                    </mask>
                    <g id="Clip-191"></g>
                    <path d="M394.373,486.2529 C394.373,536.1289 434.806,576.5619 484.683,576.5619 C534.559,576.5619 574.991,536.1289 574.991,486.2529 C574.991,436.3759 534.559,395.9429 484.683,395.9429 C434.806,395.9429 394.373,436.3759 394.373,486.2529" id="Fill-190" fill="#F4F8EA" mask="url(#mask-18)"></path>
                </g>
                <g id="Group-195">
                    <mask id="mask-20" fill="white">
                        <use xlink:href="#path-19"></use>
                    </mask>
                    <g id="Clip-194"></g>
                    <path d="M523.3857,364.1201 C523.3857,381.2211 537.2487,395.0841 554.3487,395.0841 C571.4487,395.0841 585.3127,381.2211 585.3127,364.1201 C585.3127,347.0201 571.4487,333.1571 554.3487,333.1571 C537.2487,333.1571 523.3857,347.0201 523.3857,364.1201" id="Fill-193" fill="#F4F8EA" mask="url(#mask-20)"></path>
                </g>
                <g id="Group-198">
                    <mask id="mask-22" fill="white">
                        <use xlink:href="#path-21"></use>
                    </mask>
                    <g id="Clip-197"></g>
                    <path d="M-44.2695,437.2275 C-44.2695,454.3285 -30.4075,468.1905 -13.3065,468.1905 C3.7935,468.1905 17.6565,454.3285 17.6565,437.2275 C17.6565,420.1265 3.7935,406.2645 -13.3065,406.2645 C-30.4075,406.2645 -44.2695,420.1265 -44.2695,437.2275" id="Fill-196" fill="#F4F8EA" mask="url(#mask-22)"></path>
                </g>
                <g id="Group-201">
                    <mask id="mask-24" fill="white">
                        <use xlink:href="#path-23"></use>
                    </mask>
                    <g id="Clip-200"></g>
                    <path d="M-59.751,485.3926 C-59.751,495.3676 -51.665,503.4546 -41.689,503.4546 C-31.714,503.4546 -23.628,495.3676 -23.628,485.3926 C-23.628,475.4166 -31.714,467.3306 -41.689,467.3306 C-51.665,467.3306 -59.751,475.4166 -59.751,485.3926" id="Fill-199" fill="#F4F8EA" mask="url(#mask-24)"></path>
                </g>
                <g id="Group-204">
                    <mask id="mask-26" fill="white">
                        <use xlink:href="#path-25"></use>
                    </mask>
                    <g id="Clip-203"></g>
                    <path d="M-31.3682,529.2568 C-31.3682,561.5578 -5.1832,587.7418 27.1168,587.7418 C59.4178,587.7418 85.6028,561.5578 85.6028,529.2568 C85.6028,496.9558 59.4178,470.7708 27.1168,470.7708 C-5.1832,470.7708 -31.3682,496.9558 -31.3682,529.2568" id="Fill-202" fill="#F4F8EA" mask="url(#mask-26)"></path>
                </g>
                <g id="Group-207">
                    <mask id="mask-28" fill="white">
                        <use xlink:href="#path-27"></use>
                    </mask>
                    <g id="Clip-206"></g>
                    <path d="M354.8096,18.3662 C354.8096,46.8672 377.9136,69.9712 406.4146,69.9712 C434.9146,69.9712 458.0196,46.8672 458.0196,18.3662 C458.0196,-10.1338 434.9146,-33.2378 406.4146,-33.2378 C377.9136,-33.2378 354.8096,-10.1338 354.8096,18.3662" id="Fill-205" fill="#F4F8EA" mask="url(#mask-28)"></path>
                </g>
                <g id="Group-210">
                    <mask id="mask-30" fill="white">
                        <use xlink:href="#path-29"></use>
                    </mask>
                    <g id="Clip-209"></g>
                    <path d="M299.7637,-19.4775 C299.7637,-4.2775 312.0857,8.0455 327.2867,8.0455 C342.4877,8.0455 354.8097,-4.2775 354.8097,-19.4775 C354.8097,-34.6775 342.4877,-46.9995 327.2867,-46.9995 C312.0857,-46.9995 299.7637,-34.6775 299.7637,-19.4775" id="Fill-208" fill="#F4F8EA" mask="url(#mask-30)"></path>
                </g>
                <g id="Group-213">
                    <mask id="mask-32" fill="white">
                        <use xlink:href="#path-31"></use>
                    </mask>
                    <g id="Clip-212"></g>
                    <path d="M351.3691,624.2959 C351.3691,693.4099 407.3971,749.4389 476.5121,749.4389 C545.6261,749.4389 601.6531,693.4099 601.6531,624.2959 C601.6531,555.1819 545.6261,499.1529 476.5121,499.1529 C407.3971,499.1529 351.3691,555.1819 351.3691,624.2959" id="Fill-211" fill="#F4F8EA" mask="url(#mask-32)"></path>
                </g>
                <g id="Group-216">
                    <mask id="mask-34" fill="white">
                        <use xlink:href="#path-33"></use>
                    </mask>
                    <g id="Clip-215"></g>
                    <path d="M373.1377,459.1035 C376.6727,449.7615 382.8997,441.2425 381.4257,431.0295 C380.4657,424.3745 379.5067,417.7205 378.5467,411.0665 C377.7157,405.3075 377.5267,399.8105 374.4457,394.7765 C361.6697,373.9045 357.6477,347.0035 367.1877,324.4675 C370.1787,317.4025 375.0197,317.1075 381.8257,315.7465 L395.4547,344.8475 C399.6077,355.7215 399.7127,367.5045 403.9017,378.2835 C407.8667,388.4865 414.1797,397.5335 419.9797,406.7415 C424.5687,414.0275 429.7687,420.9115 433.9207,428.4725 C442.8437,444.7215 440.1507,461.8335 442.1637,479.4485 C443.2707,489.1175 445.0497,498.6635 446.5107,508.2755 C450.1027,531.9025 458.8167,555.0385 465.6307,577.9095 C471.0337,600.2565 485.7697,612.7825 485.7697,612.7825 L609.9997,727.9995 L439.9997,759.9995 C436.7947,758.1865 363.3457,661.5035 360.0117,659.9435 C356.0547,658.0915 352.0837,656.1975 347.8757,655.0745 C343.7707,653.9785 339.6487,652.9395 335.5767,651.7225 C327.4887,649.3035 319.4967,646.1025 312.9387,640.6565 C312.8157,640.5535 312.6937,640.4525 312.5707,640.3495 L291.0487,622.4755 C285.8837,618.1865 280.7187,613.8975 275.5547,609.6085 C269.8427,604.8645 264.4327,599.6675 258.2707,595.4985 C255.3197,593.5005 251.9847,592.1285 249.1707,589.9145 C245.9027,587.3435 242.9207,584.4355 239.9487,581.5365 C234.5897,576.3095 229.6017,570.7745 224.7867,565.0645 C223.1847,563.1635 221.3207,561.2045 219.0027,560.1875 C216.7567,559.2015 214.2177,558.8985 211.8857,558.1475 C207.7597,556.8205 203.6717,555.3755 199.6227,553.8295 C191.5287,550.7345 183.5927,547.2285 175.8207,543.3985 C166.6547,538.8805 157.3087,533.3285 151.6467,524.5245 C149.5007,521.1895 148.0157,517.2845 148.2487,513.2655 C148.5347,508.3375 151.7477,504.9625 155.9927,502.6195 C163.7827,498.3195 173.0187,497.6335 181.9157,497.6105 C186.1257,497.5995 190.3807,497.7215 194.4527,498.7905 C196.4717,499.3195 198.4627,500.0975 200.0937,501.4005 C201.7247,502.7025 202.9707,504.5815 203.1787,506.6585 C203.3407,508.2715 202.8777,509.8895 202.2037,511.3655 C200.6587,514.7495 197.9967,517.5535 194.9037,519.6215 C189.9717,522.9165 183.8327,524.5545 178.1127,525.9065" id="Fill-214" fill="#D58070" mask="url(#mask-34)"></path>
                </g>
                <g id="Group-219">
                    <mask id="mask-36" fill="white">
                        <use xlink:href="#path-35"></use>
                    </mask>
                    <g id="Clip-218"></g>
                    <path d="M137,284 C137.088,283.918 135.046,280.654 134.849,280.26 C134.247,279.053 133.609,277.494 133.616,276.124 C133.623,274.705 134.538,273.426 135.359,272.349 C136.649,270.659 138.283,269.246 140.115,268.173 C140.807,267.768 141.479,267.305 142.238,267.033 C144.124,266.356 146.327,267.468 147.996,268.271 C148.291,268.414 151.005,269.995 151,270 L137,284 Z" id="Fill-217" fill="#84243E" mask="url(#mask-36)"></path>
                </g>
                <g id="Group-222">
                    <mask id="mask-38" fill="white">
                        <use xlink:href="#path-37"></use>
                    </mask>
                    <g id="Clip-221"></g>
                    <path d="M175.377,280.75 C174.319,280.072 173.245,279.418 172.168,278.77 C169.735,277.304 167.273,275.888 164.767,274.55 C162.085,273.118 159.35,271.74 156.499,270.67 C155.293,270.217 154.106,269.847 152.824,269.696 C150.689,269.446 148.487,269.366 146.394,269.93 C143.991,270.562 141.824,271.882 140.133,273.698 C138.11,275.87 136.334,278.726 136.196,281.766 C136.114,283.56 136.762,285.455 137.386,287.131 C138.916,291.237 141.325,295.003 143.941,298.494 C145.85,301.041 147.92,303.466 150.082,305.8 C150.082,305.8 165.309,321.149 175.377,328.148 L175.377,280.75 Z" id="Fill-220" fill="#D58070" mask="url(#mask-38)"></path>
                </g>
                <g id="Group-225">
                    <mask id="mask-40" fill="white">
                        <use xlink:href="#path-39"></use>
                    </mask>
                    <g id="Clip-224"></g>
                    <path d="M335.835,537.9805 L211.386,537.9805 C191.169,537.9805 174.779,521.5915 174.779,501.3745 L174.779,194.7365 C174.779,174.5185 191.169,158.1285 211.386,158.1285 L335.835,158.1285 C356.053,158.1285 372.441,174.5185 372.441,194.7365 L372.441,501.3745 C372.441,521.5915 356.053,537.9805 335.835,537.9805" id="Fill-223" fill="#FFC967" mask="url(#mask-40)"></path>
                </g>
                <polygon id="Fill-226" fill="#FFC968" points="189.208 485.538 356.438 485.538 356.438 199.259 189.208 199.259"></polygon>
                <path d="M292.2754,512.2061 C292.2754,522.5151 283.9194,530.8711 273.6104,530.8711 C263.3024,530.8711 254.9464,522.5151 254.9464,512.2061 C254.9464,501.8981 263.3024,493.5421 273.6104,493.5421 C283.9194,493.5421 292.2754,501.8981 292.2754,512.2061" id="Fill-228" fill="#F9AE25"></path>
                <polygon id="Fill-229" fill="#E9E9E9" points="195 481 350.908 481 350.908 304.932 195 304.932"></polygon>
                <path d="M250.492,187.433 L295.151,187.433 C297.482194,187.433 299.372,185.543194 299.372,183.212 L299.372,183.212 C299.372,180.880806 297.482194,178.991 295.151,178.991 L250.492,178.991 C248.160806,178.991 246.271,180.880806 246.271,183.212 L246.271,183.212 C246.271,185.543194 248.160806,187.433 250.492,187.433 Z" id="Fill-230" fill="#F9AE25"></path>
                <polygon id="Fill-231" fill="#E9E9E9" points="194 253.564 349.908 253.564 349.908 203.626 194 203.626"></polygon>
                <polygon id="Fill-232" fill="#E9E9E9" points="195.092 300.756 264.602 300.756 264.602 257.284 195.092 257.284"></polygon>
                <polygon id="Fill-233" fill="#E9E9E9" points="268.737 301.064 351 301.064 351 257.284 268.737 257.284"></polygon>
                <polygon id="Fill-234" fill="#FFFFFF" points="273.3164 304.9912 339.2384 304.8612 259.3694 480.7292 195.0914 480.7292"></polygon>
                <polygon id="Fill-235" fill="#FFFFFF" points="316.9482 203.3574 351.0002 203.3574 351.0002 253.2954 294.7612 253.2954"></polygon>
                <polygon id="Fill-236" fill="#FFFFFF" points="274.8184 301.0645 293.0954 257.2845 351.0004 257.2845 351.0004 275.5815 339.0044 301.0645"></polygon>
                <path d="M174.835,356.8467 C168.154,358.2067 161.453,359.9557 155.092,362.4187 C153.239,363.1367 151.402,363.9247 149.666,364.8967 C146.984,366.3987 144.766,369.0077 142.301,370.9047 C139.243,373.2557 136.063,375.5947 134.661,379.2997 C133.289,382.9287 133.161,387.0147 133.638,390.8287 C134.91,401.0067 143.218,409.1477 151.146,414.8887 C155.19,417.8187 160.448,420.6997 165.566,420.9087 C170.208,421.0977 175.464,418.7547 178.396,415.1427 C178.396,415.1427 191.902,405.3197 174.835,379.6557 L174.835,356.8467" id="Fill-237" fill="#D58070"></path>
                <path d="M160.2852,413.8291 C160.2852,413.8291 161.7462,402.7261 176.6472,397.4671 C176.6472,397.4671 159.9182,379.3761 159.8952,379.3501 C157.6922,376.9691 153.7732,377.2311 150.8472,377.5171 C146.5372,377.9391 142.3922,380.5841 140.5212,384.5431 C139.6032,386.4851 139.2252,388.8231 139.7062,390.9391 C140.2772,393.4511 142.3572,395.2931 144.0782,397.0721 C146.9992,400.0921 149.9192,403.1111 152.8392,406.1301 C155.3202,408.6961 157.8032,411.2631 160.2852,413.8291" id="Fill-238" fill="#84243E"></path>
                <path d="M151.6123,435.6943 C153.6333,432.6873 156.4343,430.3403 160.2303,429.5643 C163.9833,428.7973 167.9133,429.4473 171.5123,430.7573 C175.1123,432.0663 178.4393,434.0113 181.7613,435.9173 C187.0483,438.9493 192.3953,441.9223 197.2303,445.6313 C202.0653,449.3403 206.4093,453.8503 209.1173,459.3083 C210.6723,462.4433 211.6743,465.9353 211.4003,469.4233 C210.8453,476.4933 205.0703,480.0753 198.7373,481.6533 C191.7453,483.3943 184.3643,483.3413 177.2973,481.9353 C171.5213,480.7863 165.8833,478.7203 160.9883,475.4493 C156.0913,472.1773 151.9603,467.6603 149.5643,462.2813 C146.9293,456.3653 146.5443,449.5473 148.2543,443.3193 C148.9823,440.6643 150.0703,437.9873 151.6123,435.6943" id="Fill-239" fill="#D58070"></path>
                <path d="M186.1553,475.6221 C186.1553,475.6221 184.4353,466.0451 198.0653,458.0631 C198.0653,458.0631 176.0963,444.0711 176.0863,444.0641 C172.2513,441.6221 166.7043,443.0331 163.4633,445.8851 C158.9263,449.8771 159.2593,457.8461 164.4213,461.2561 L186.1553,475.6221 Z" id="Fill-240" fill="#84243E"></path>
                <path d="M165.9062,537.627 C159.3422,533.6 152.1672,527.729 149.9952,519.961 C147.7832,512.052 152.7102,502.936 160.4502,500.504 C169.6832,497.604 179.7962,495.924 189.4482,497.292 C193.3862,497.85 200.1892,498.847 202.6812,502.299 C205.1352,505.699 204.0342,510.665 202.2902,514.118 C198.1752,522.264 187.8452,524.352 179.7672,526.21 L165.9062,537.627 Z" id="Fill-241" fill="#D58070"></path>
                <path d="M442.0527,478.7266 C441.0207,477.8086 441.6367,471.1016 441.5867,469.6276 C441.4807,466.4356 441.4107,463.2426 441.2817,460.0496 C441.0187,453.5816 440.5357,447.0816 439.0417,440.7656 C433.2167,416.1336 410.5307,399.8726 402.9507,375.7966 C402.5277,374.4506 402.1097,373.1026 401.7027,371.7506 C399.2197,361.8146 397.5637,351.8786 394.2517,342.7706 C390.1117,333.6636 386.7997,324.5546 381.8317,316.2756 C366.9277,315.4476 363.6157,332.0066 361.9597,343.5986 C360.8977,356.8836 364.3967,369.8996 368.9417,382.2596 C374.1197,396.3426 379.5677,409.1706 380.8287,424.2946 C380.8287,424.2946 442.0387,478.7136 442.0527,478.7266" id="Fill-242" fill="#D58070"></path>
                <path d="M376.4531,313.8047 C375.9881,313.9207 375.5251,314.0467 375.0651,314.1827 C373.3311,314.6947 371.4021,315.1997 370.6251,317.0197 C369.8591,318.8137 370.9091,320.4357 371.6681,322.0397 C372.5561,323.9147 373.4531,325.7857 374.3611,327.6527 C375.4501,329.8837 376.5491,332.1107 377.6651,334.3287 C380.7791,340.5177 386.0781,345.4177 393.6271,344.6837 C393.9681,344.6507 394.9841,344.7407 395.1141,344.4677 C395.1391,344.4167 395.0421,344.2957 395.0471,344.2407 C395.0821,343.7747 394.6661,343.0227 394.5221,342.5837 C393.7781,340.3117 392.9591,338.0617 392.0941,335.8287 C389.0511,327.9757 385.1231,320.3537 381.0041,312.9627 C379.4271,313.2297 378.0051,313.4147 376.4531,313.8047" id="Fill-243" fill="#84243E"></path>
                <path d="M193.9248,502.2129 C193.9248,502.2129 191.1298,507.0239 193.6368,513.4439 C191.6968,513.6329 189.7568,513.8209 187.8178,514.0089 C185.5288,514.2319 183.1868,514.9139 180.8788,514.5199 C176.7618,513.8159 172.4178,509.1809 175.3358,505.0469 C176.0068,504.0959 177.0158,503.4199 178.1018,503.0019 C180.5108,502.0749 183.2448,502.3069 185.7808,502.2839 C188.2108,502.2629 190.6418,502.2409 193.0708,502.2199 C193.1498,502.2199 193.8858,502.2799 193.9248,502.2129" id="Fill-244" fill="#84243E"></path>
                <path d="M305.8828,551.1426 C313.0848,553.2856 319.9558,556.4386 326.5498,560.0586 C329.8658,561.8456 333.0528,563.8626 336.2088,565.9296 C339.3348,568.0446 342.3548,570.3186 345.3108,572.6746 C348.2308,575.0786 351.0308,577.6326 353.7158,580.3036 L355.6858,582.3516 L357.5868,584.4646 C358.8548,585.8716 360.0518,587.3456 361.2018,588.8496 C363.5488,591.8266 365.5918,595.0346 367.4748,598.3056 C369.2928,601.6216 370.8518,605.0706 372.0438,608.6256 C370.0438,605.4436 368.0598,602.3186 365.8238,599.3716 C365.2868,598.6216 364.6988,597.9066 364.1408,597.1746 C363.5828,596.4426 363.0138,595.7206 362.4048,595.0266 L360.6388,592.9106 L358.8068,590.8506 C356.2918,588.1726 353.8048,585.4766 351.0728,583.0166 C348.3938,580.5116 345.6608,578.0566 342.7808,575.7706 C337.1118,571.0896 331.1058,566.8066 324.9438,562.7196 C318.7578,558.6626 312.4218,554.8026 305.8828,551.1426" id="Fill-245" fill="#CC6D60"></path>
                <path d="M365.5361,531.6191 C367.0331,536.5811 368.5021,541.4551 370.0951,546.2761 C371.6771,551.0981 373.3831,555.8471 375.2361,560.5251 C377.0901,565.2091 379.2201,569.7501 381.5051,574.2371 C383.8191,578.7231 386.5331,582.9491 389.3971,587.2961 C385.3141,584.1051 381.7581,580.1791 378.8091,575.8591 C375.9201,571.5071 373.4371,566.8651 371.5241,562.0141 C369.6071,557.1641 368.1091,552.1621 367.0641,547.0771 C366.0601,541.9881 365.3831,536.8181 365.5361,531.6191" id="Fill-246" fill="#CC6D60"></path>
                <path d="M379.542,657.3398 C382.604,655.0838 385.402,652.5438 387.98,649.8388 C389.254,648.4708 390.486,647.0758 391.629,645.6168 C392.775,644.1608 393.805,642.6278 394.783,641.0788 C395.759,639.5268 396.617,637.9098 397.343,636.2478 C397.725,635.4248 398.029,634.5718 398.372,633.7378 C398.656,632.8818 398.974,632.0378 399.192,631.1658 C399.692,629.4398 400.015,627.6718 400.195,625.8978 C400.428,624.1258 400.42,622.3358 400.37,620.5538 L400.312,618.4148 L402.449,618.5168 C404.777,618.6278 407.229,618.6098 409.623,618.5448 C412.031,618.4978 414.438,618.3728 416.834,618.1628 C421.613,617.6908 426.395,617.0758 430.992,615.8098 C435.601,614.6268 440.079,612.8758 443.938,610.1608 C447.844,607.5018 450.77,603.5028 452.211,598.7718 C451.966,601.2248 451.235,603.6608 450.047,605.9028 C448.844,608.1338 447.209,610.1648 445.273,611.8318 C443.346,613.5068 441.215,614.9468 438.957,616.1208 C436.697,617.2918 434.337,618.2238 431.945,619.0328 C429.543,619.8178 427.095,620.4128 424.635,620.9118 C422.176,621.4218 419.693,621.7848 417.205,622.0318 C414.717,622.2858 412.224,622.4518 409.728,622.5368 C407.218,622.5948 404.76,622.5628 402.189,622.4098 L404.268,620.3728 C404.409,624.3768 403.882,628.4238 402.599,632.2008 C401.397,636.0068 399.462,639.5208 397.165,642.6818 C394.862,645.8508 392.137,648.6558 389.17,651.1118 C386.198,653.5598 382.993,655.7168 379.542,657.3398" id="Fill-247" fill="#CC6D60"></path>
            </g>
        </g>
    </g>
</svg>