<?xml version="1.0" encoding="UTF-8"?>
<svg width="98px" height="98px" viewBox="0 0 98 98" version="1.1" xmlns="http://www.w3.org/2000/svg" xmlns:xlink="http://www.w3.org/1999/xlink">
    <!-- Generator: Sketch 53.2 (72643) - https://sketchapp.com -->
    <title>noun_play_1939987</title>
    <desc>Created with Sketch.</desc>
    <g id="Page-1" stroke="none" stroke-width="1" fill="none" fill-rule="evenodd">
        <g id="Landing-Page-2---video-carousel" transform="translate(-801.000000, -4579.000000)" fill="#FFFFFF" fill-rule="nonzero" opacity="0.492931548">
            <g id="noun_play_1939987" transform="translate(801.000000, 4579.000000)">
                <g id="Group">
                    <path d="M65.1291667,46.4479167 L41.5479167,30.7270833 C39.50625,29.4 36.8520833,30.8291667 36.8520833,33.2791667 L36.8520833,64.7208333 C36.8520833,67.1708333 39.6083333,68.6 41.5479167,67.2729167 L65.1291667,51.5520833 C66.9666667,50.3270833 66.9666667,47.6729167 65.1291667,46.4479167 Z" id="Path"></path>
                    <path d="M49,0.510416667 C22.2541667,0.510416667 0.510416667,22.2541667 0.510416667,49 C0.510416667,75.7458333 22.2541667,97.4895833 49,97.4895833 C75.7458333,97.4895833 97.4895833,75.7458333 97.4895833,49 C97.4895833,22.2541667 75.7458333,0.510416667 49,0.510416667 Z M49,89.9354167 C26.4395833,89.9354167 8.06458333,71.5604167 8.06458333,49 C8.06458333,26.4395833 26.4395833,8.06458333 49,8.06458333 C71.5604167,8.06458333 89.9354167,26.4395833 89.9354167,49 C89.9354167,71.5604167 71.5604167,89.9354167 49,89.9354167 Z" id="Shape"></path>
                </g>
            </g>
        </g>
        <g id="1st"></g>
    </g>
</svg>