<?xml version="1.0" encoding="UTF-8"?>
<svg width="44px" height="44px" viewBox="0 0 44 44" version="1.1" xmlns="http://www.w3.org/2000/svg" xmlns:xlink="http://www.w3.org/1999/xlink">
    <!-- Generator: Sketch 54.1 (76490) - https://sketchapp.com -->
    <title>Group 16</title>
    <desc>Created with Sketch.</desc>
    <g id="New-UI" stroke="none" stroke-width="1" fill="none" fill-rule="evenodd">
        <g id="3.-Goals" transform="translate(-329.000000, -542.000000)">
            <g id="Group-16" transform="translate(329.000000, 542.000000)">
                <g id="Group-7-Copy-4" transform="translate(0.000000, 0.000000)">
                    <ellipse id="Oval" fill="#65D48E" opacity="0.121954055" cx="22" cy="21.986755" rx="22" ry="21.986755"></ellipse>
                    <ellipse id="Oval" fill="#65D48E" opacity="0.225678943" cx="21.8263158" cy="21.8131753" rx="18.5263158" ry="18.5151621"></ellipse>
                    <g id="Group-11" transform="translate(6.947368, 10.576786)">
                        <ellipse id="Oval" fill="#47A395" opacity="0.52" cx="1.15789474" cy="12.4514465" rx="1.15789474" ry="1.15719763"></ellipse>
                        <ellipse id="Oval-Copy-10" fill="#47A395" opacity="0.52" cx="10.56" cy="0.879470199" rx="1" ry="1"></ellipse>
                        <ellipse id="Oval-Copy-2" fill="#47A395" opacity="0.523809524" cx="24.3157895" cy="2.03666783" rx="1.15789474" ry="1.15719763"></ellipse>
                        <ellipse id="Oval-Copy-36" fill="#A772BB" opacity="0.287252604" cx="25.1726316" cy="25.4814918" rx="1" ry="1"></ellipse>
                    </g>
                </g>
                <path d="M34.3465195,27.7325462 L33.4837012,27.7325462 L33.4837012,17.9500836 C33.4837012,17.5349128 33.1438031,17.1975865 32.7254669,17.1975865 L28.6466893,17.1975865 L28.6466893,27.7325462 L27.7315789,27.7325462 L27.7315789,15.0438878 C27.7315789,14.628717 27.3916808,14.2913907 26.9733447,14.2913907 L17.717657,14.2913907 C17.2993209,14.2913907 16.9594228,14.628717 16.9594228,15.0438878 L16.9594228,27.7325462 L16.0443124,27.7325462 L16.0443124,17.1975865 L11.9132428,17.1975865 C11.4949066,17.1975865 11.1550085,17.5349128 11.1550085,17.9500836 L11.1550085,27.7325462 L10.2921902,27.7325462 C10.0830221,27.7325462 9.9,27.9141834 9.9,28.1217689 L9.9,28.7964214 C9.9,29.0040069 10.0830221,29.1856441 10.2921902,29.1856441 L34.3465195,29.1856441 C34.5556876,29.1856441 34.7387097,29.0040069 34.7387097,28.7964214 L34.7387097,28.1217689 C34.7387097,27.9141834 34.5556876,27.7325462 34.3465195,27.7325462 Z M30.1631579,19.1955961 C30.1631579,19.0658552 30.2677419,18.9620625 30.398472,18.9620625 L31.6273345,18.9620625 C31.7580645,18.9620625 31.8626486,19.0658552 31.8626486,19.1955961 L31.8626486,20.4151604 C31.8626486,20.5449013 31.7580645,20.648694 31.6273345,20.648694 L30.398472,20.648694 C30.2677419,20.648694 30.1631579,20.5449013 30.1631579,20.4151604 L30.1631579,19.1955961 Z M30.1631579,22.0758437 C30.1631579,21.9461028 30.2677419,21.8423101 30.398472,21.8423101 L31.6273345,21.8423101 C31.7580645,21.8423101 31.8626486,21.9461028 31.8626486,22.0758437 L31.8626486,23.295408 C31.8626486,23.4251489 31.7580645,23.5289416 31.6273345,23.5289416 L30.398472,23.5289416 C30.2677419,23.5289416 30.1631579,23.4251489 30.1631579,23.295408 L30.1631579,22.0758437 Z M30.1631579,24.9820395 C30.1631579,24.8522986 30.2677419,24.7485059 30.398472,24.7485059 L31.6273345,24.7485059 C31.7580645,24.7485059 31.8626486,24.8522986 31.8626486,24.9820395 L31.8626486,26.2016038 C31.8626486,26.3313447 31.7580645,26.4351374 31.6273345,26.4351374 L30.398472,26.4351374 C30.2677419,26.4351374 30.1631579,26.3313447 30.1631579,26.2016038 L30.1631579,24.9820395 Z M12.7760611,19.1955961 C12.7760611,19.0658552 12.8806452,18.9620625 13.0113752,18.9620625 L14.2402377,18.9620625 C14.3709677,18.9620625 14.4755518,19.0658552 14.4755518,19.1955961 L14.4755518,20.4151604 C14.4755518,20.5449013 14.3709677,20.648694 14.2402377,20.648694 L13.0113752,20.648694 C12.8806452,20.648694 12.7760611,20.5449013 12.7760611,20.4151604 L12.7760611,19.1955961 L12.7760611,19.1955961 Z M12.7760611,22.0758437 C12.7760611,21.9461028 12.8806452,21.8423101 13.0113752,21.8423101 L14.2402377,21.8423101 C14.3709677,21.8423101 14.4755518,21.9461028 14.4755518,22.0758437 L14.4755518,23.295408 C14.4755518,23.4251489 14.3709677,23.5289416 14.2402377,23.5289416 L13.0113752,23.5289416 C12.8806452,23.5289416 12.7760611,23.4251489 12.7760611,23.295408 L12.7760611,22.0758437 L12.7760611,22.0758437 Z M12.7760611,24.9820395 C12.7760611,24.8522986 12.8806452,24.7485059 13.0113752,24.7485059 L14.2402377,24.7485059 C14.3709677,24.7485059 14.4755518,24.8522986 14.4755518,24.9820395 L14.4755518,26.2016038 C14.4755518,26.3313447 14.3709677,26.4351374 14.2402377,26.4351374 L13.0113752,26.4351374 C12.8806452,26.4351374 12.7760611,26.3313447 12.7760611,26.2016038 L12.7760611,24.9820395 L12.7760611,24.9820395 Z M24.4110357,16.2634521 C24.4110357,16.1337113 24.5156197,16.0299186 24.6463497,16.0299186 L25.8752122,16.0299186 C26.0059423,16.0299186 26.1105263,16.1337113 26.1105263,16.2634521 L26.1105263,17.4830164 C26.1105263,17.6127573 26.0059423,17.71655 25.8752122,17.71655 L24.6463497,17.71655 C24.5156197,17.71655 24.4110357,17.6127573 24.4110357,17.4830164 L24.4110357,16.2634521 Z M24.4110357,19.1696479 C24.4110357,19.039907 24.5156197,18.9361143 24.6463497,18.9361143 L25.8752122,18.9361143 C26.0059423,18.9361143 26.1105263,19.039907 26.1105263,19.1696479 L26.1105263,20.3892122 C26.1105263,20.5189531 26.0059423,20.6227458 25.8752122,20.6227458 L24.6463497,20.6227458 C24.5156197,20.6227458 24.4110357,20.5189531 24.4110357,20.3892122 L24.4110357,19.1696479 Z M24.4110357,22.0758437 C24.4110357,21.9461028 24.5156197,21.8423101 24.6463497,21.8423101 L25.8752122,21.8423101 C26.0059423,21.8423101 26.1105263,21.9461028 26.1105263,22.0758437 L26.1105263,23.295408 C26.1105263,23.4251489 26.0059423,23.5289416 25.8752122,23.5289416 L24.6463497,23.5289416 C24.5156197,23.5289416 24.4110357,23.4251489 24.4110357,23.295408 L24.4110357,22.0758437 Z M24.4110357,24.9820395 C24.4110357,24.8522986 24.5156197,24.7485059 24.6463497,24.7485059 L25.8752122,24.7485059 C26.0059423,24.7485059 26.1105263,24.8522986 26.1105263,24.9820395 L26.1105263,26.2016038 C26.1105263,26.3313447 26.0059423,26.4351374 25.8752122,26.4351374 L24.6463497,26.4351374 C24.5156197,26.4351374 24.4110357,26.3313447 24.4110357,26.2016038 L24.4110357,24.9820395 Z M21.4826825,16.2634521 C21.4826825,16.1337113 21.5872666,16.0299186 21.7179966,16.0299186 L22.9468591,16.0299186 C23.0775891,16.0299186 23.1821732,16.1337113 23.1821732,16.2634521 L23.1821732,17.4830164 C23.1821732,17.6127573 23.0775891,17.71655 22.9468591,17.71655 L21.7179966,17.71655 C21.5872666,17.71655 21.4826825,17.6127573 21.4826825,17.4830164 L21.4826825,16.2634521 Z M21.4826825,19.1696479 C21.4826825,19.039907 21.5872666,18.9361143 21.7179966,18.9361143 L22.9468591,18.9361143 C23.0775891,18.9361143 23.1821732,19.039907 23.1821732,19.1696479 L23.1821732,20.3892122 C23.1821732,20.5189531 23.0775891,20.6227458 22.9468591,20.6227458 L21.7179966,20.6227458 C21.5872666,20.6227458 21.4826825,20.5189531 21.4826825,20.3892122 L21.4826825,19.1696479 Z M21.4826825,22.0758437 C21.4826825,21.9461028 21.5872666,21.8423101 21.7179966,21.8423101 L22.9468591,21.8423101 C23.0775891,21.8423101 23.1821732,21.9461028 23.1821732,22.0758437 L23.1821732,23.295408 C23.1821732,23.4251489 23.0775891,23.5289416 22.9468591,23.5289416 L21.7179966,23.5289416 C21.5872666,23.5289416 21.4826825,23.4251489 21.4826825,23.295408 L21.4826825,22.0758437 Z M18.5543294,16.2634521 C18.5543294,16.1337113 18.6589134,16.0299186 18.7896435,16.0299186 L20.0185059,16.0299186 C20.149236,16.0299186 20.25382,16.1337113 20.25382,16.2634521 L20.25382,17.4830164 C20.25382,17.6127573 20.149236,17.71655 20.0185059,17.71655 L18.7896435,17.71655 C18.6589134,17.71655 18.5543294,17.6127573 18.5543294,17.4830164 L18.5543294,16.2634521 Z M18.5543294,19.1696479 C18.5543294,19.039907 18.6589134,18.9361143 18.7896435,18.9361143 L20.0185059,18.9361143 C20.149236,18.9361143 20.25382,19.039907 20.25382,19.1696479 L20.25382,20.3892122 C20.25382,20.5189531 20.149236,20.6227458 20.0185059,20.6227458 L18.7896435,20.6227458 C18.6589134,20.6227458 18.5543294,20.5189531 18.5543294,20.3892122 L18.5543294,19.1696479 Z M18.5543294,22.0758437 C18.5543294,21.9461028 18.6589134,21.8423101 18.7896435,21.8423101 L20.0185059,21.8423101 C20.149236,21.8423101 20.25382,21.9461028 20.25382,22.0758437 L20.25382,23.295408 C20.25382,23.4251489 20.149236,23.5289416 20.0185059,23.5289416 L18.7896435,23.5289416 C18.6589134,23.5289416 18.5543294,23.4251489 18.5543294,23.295408 L18.5543294,22.0758437 Z M18.5543294,24.9820395 C18.5543294,24.8522986 18.6589134,24.7485059 18.7896435,24.7485059 L20.0185059,24.7485059 C20.149236,24.7485059 20.25382,24.8522986 20.25382,24.9820395 L20.25382,26.2016038 C20.25382,26.3313447 20.149236,26.4351374 20.0185059,26.4351374 L18.7896435,26.4351374 C18.6589134,26.4351374 18.5543294,26.3313447 18.5543294,26.2016038 L18.5543294,24.9820395 Z M21.4826825,24.9820395 C21.4826825,24.8522986 21.5872666,24.7485059 21.7179966,24.7485059 L22.9468591,24.7485059 C23.0775891,24.7485059 23.1821732,24.8522986 23.1821732,24.9820395 L23.1821732,27.7325462 L21.4826825,27.7325462 L21.4826825,24.9820395 Z" id="Shape" fill="#00A8A2" fill-rule="nonzero"></path>
            </g>
        </g>
    </g>
</svg>