<?xml version="1.0" encoding="UTF-8"?>
<svg width="54px" height="17px" viewBox="0 0 54 17" version="1.1" xmlns="http://www.w3.org/2000/svg" xmlns:xlink="http://www.w3.org/1999/xlink">
    <!-- Generator: Sketch 58 (84663) - https://sketch.com -->
    <title>Group</title>
    <desc>Created with Sketch.</desc>
    <g id="reports" stroke="none" stroke-width="1" fill="none" fill-rule="evenodd">
        <g id="current-investment-(holding)" transform="translate(-801.000000, -690.000000)" fill="#8DC63F" fill-rule="nonzero">
            <g id="Group" transform="translate(801.000000, 690.000000)">
                <polygon id="Path" points="13.6199992 16.379999 8.3999995 12.5999992 3.17999981 16.379999 5.21999969 10.2599994 0 6.47999961 6.41999962 6.53999961 8.3999995 0.419999975 10.3799994 6.53999961 16.799999 6.53999961 11.5799993 10.2599994"></polygon>
                <polygon id="Path" points="32.2799981 16.379999 27.0599984 12.5999992 21.8399987 16.379999 23.8799986 10.2599994 18.6599989 6.47999961 25.0799985 6.53999961 27.0599984 0.419999975 29.0399983 6.53999961 35.4599979 6.53999961 30.2999982 10.2599994"></polygon>
                <polygon id="Path" points="50.759997 16.379999 45.5999973 12.5999992 40.3799976 16.379999 42.3599975 10.2599994 37.1999978 6.47999961 43.6199974 6.53999961 45.5999973 0.419999975 47.5799972 6.53999961 53.9999968 6.53999961 48.7799971 10.2599994"></polygon>
            </g>
        </g>
    </g>
</svg>