<?xml version="1.0" encoding="UTF-8"?>
<svg width="23px" height="26px" viewBox="0 0 23 26" version="1.1" xmlns="http://www.w3.org/2000/svg" xmlns:xlink="http://www.w3.org/1999/xlink">
    <!-- Generator: Sketch 54.1 (76490) - https://sketchapp.com -->
    <title>Group</title>
    <desc>Created with Sketch.</desc>
    <g id="New-UI" stroke="none" stroke-width="1" fill="none" fill-rule="evenodd">
        <g id="9.-Income-&amp;-Expenses-1" transform="translate(-349.000000, -499.000000)" fill="#00A8A2" fill-rule="nonzero">
            <g id="Group" transform="translate(349.000000, 499.000000)">
                <path d="M21.6093023,12.75625 L20.1383721,12.75625 L19.1755814,9.75 C18.694186,8.20625 17.2767442,7.17708333 15.6988372,7.17708333 L7.30116279,7.17708333 C5.69651163,7.17708333 4.30581395,8.20625 3.8244186,9.75 L2.86162791,12.75625 L1.39069767,12.75625 C0.748837209,12.75625 0.240697674,13.2708333 0.240697674,13.9208333 L0.240697674,14.5708333 C0.240697674,15.2208333 0.748837209,15.7354167 1.39069767,15.7354167 L1.79186047,15.7354167 C1.55116279,16.81875 1.44418605,17.9291667 1.44418605,19.0395833 L1.44418605,24.7 C1.44418605,25.35 1.95232558,25.8645833 2.59418605,25.8645833 L4.54651163,25.8645833 C5.18837209,25.8645833 5.69651163,25.35 5.69651163,24.7 L5.69651163,22.8854167 L17.3302326,22.8854167 L17.3302326,24.7 C17.3302326,25.35 17.8383721,25.8645833 18.4802326,25.8645833 L20.405814,25.8645833 C21.0476744,25.8645833 21.555814,25.35 21.555814,24.7 L21.555814,19.0395833 C21.555814,17.9291667 21.422093,16.81875 21.2081395,15.7354167 L21.6093023,15.7354167 C22.2511628,15.7354167 22.7593023,15.2208333 22.7593023,14.5708333 L22.7593023,13.9208333 C22.7593023,13.2708333 22.2511628,12.75625 21.6093023,12.75625 Z M4.89418605,13.975 L5.99069767,10.48125 C6.17790698,9.9125 6.68604651,9.53333333 7.2744186,9.53333333 L15.672093,9.53333333 C16.2604651,9.53333333 16.7953488,9.9125 16.955814,10.48125 L18.0523256,13.975 C18.105814,14.1375 17.972093,14.3 17.8116279,14.3 L5.13488372,14.3 C4.9744186,14.3 4.86744186,14.1375 4.89418605,13.975 Z M7.32790698,19.6895833 L5.00116279,19.6895833 C4.6,19.6895833 4.27906977,19.3645833 4.27906977,18.9583333 L4.27906977,17.8479167 C4.27906977,17.4145833 4.68023256,17.0625 5.10813953,17.14375 L7.2744186,17.4958333 C7.56860465,17.55 7.78255814,17.7666667 7.8627907,18.0645833 L8.02325581,18.8229167 C8.13023256,19.25625 7.78255814,19.6895833 7.32790698,19.6895833 Z M18.7209302,18.9583333 C18.7209302,19.3645833 18.4,19.6895833 17.9988372,19.6895833 L15.672093,19.6895833 C15.2174419,19.6895833 14.8697674,19.25625 14.9767442,18.8229167 L15.1372093,18.0645833 C15.1906977,17.7666667 15.4313953,17.55 15.7255814,17.4958333 L17.8918605,17.14375 C18.3197674,17.0625 18.7209302,17.4145833 18.7209302,17.8479167 L18.7209302,18.9583333 L18.7209302,18.9583333 Z" id="Shape"></path>
                <path d="M7.51511628,5.71458333 C8.55813953,5.71458333 9.44069767,5.14583333 9.89534884,4.27916667 L11.6872093,4.27916667 C11.7674419,4.27916667 11.8744186,4.25208333 11.927907,4.17083333 L12.6232558,3.46666667 C12.65,3.43958333 12.7034884,3.43958333 12.7569767,3.46666667 L13.3988372,4.11666667 C13.4790698,4.19791667 13.6127907,4.19791667 13.7197674,4.11666667 C13.9069767,3.92708333 14.2546512,3.60208333 14.3883721,3.46666667 C14.4151163,3.43958333 14.4686047,3.43958333 14.522093,3.46666667 L15.1639535,4.11666667 C15.244186,4.19791667 15.4046512,4.19791667 15.4848837,4.11666667 L16.1,3.46666667 C16.1267442,3.43958333 16.1802326,3.43958333 16.2337209,3.46666667 L16.8755814,4.11666667 C16.955814,4.19791667 17.0895349,4.19791667 17.1965116,4.11666667 L18.2395349,3.0875 C18.3197674,3.00625 18.3197674,2.84375 18.2395349,2.7625 L17.0627907,1.625 C17.0093023,1.59791667 16.955814,1.57083333 16.9023256,1.57083333 L9.89534884,1.57083333 C9.30697674,0.4875 8.02325581,-0.1625 6.63255814,0.270833333 C5.80348837,0.541666667 5.13488372,1.21875 4.89418605,2.03125 C4.30581395,3.95416667 5.69651163,5.71458333 7.51511628,5.71458333 Z M6.55232558,2.13958333 C6.98023256,2.13958333 7.32790698,2.49166667 7.32790698,2.925 C7.32790698,3.35833333 6.98023256,3.71041667 6.55232558,3.71041667 C6.1244186,3.71041667 5.77674419,3.35833333 5.77674419,2.925 C5.80348837,2.49166667 6.1244186,2.13958333 6.55232558,2.13958333 Z" id="Shape"></path>
            </g>
        </g>
    </g>
</svg>