<?xml version="1.0" encoding="UTF-8"?>
<svg width="28px" height="24px" viewBox="0 0 28 24" version="1.1" xmlns="http://www.w3.org/2000/svg" xmlns:xlink="http://www.w3.org/1999/xlink">
    <!-- Generator: Sketch 54.1 (76490) - https://sketchapp.com -->
    <title>Group 19</title>
    <desc>Created with Sketch.</desc>
    <g id="New-UI" stroke="none" stroke-width="1" fill="none" fill-rule="evenodd">
        <g id="9.-Income-&amp;-Expenses-1" transform="translate(-347.000000, -429.000000)" fill="#00A8A2" fill-rule="nonzero">
            <g id="Group-19" transform="translate(347.000000, 429.000000)">
                <path d="M28,12.9542743 C28,7.20477132 23.4098175,2.48761972 17.5471652,1.96060002 C15.6798187,0.695102109 13.4532799,0 11.1315608,0 C4.99243252,0 0,4.77679375 0,10.6520874 C0,15.6848002 3.66784023,19.8998733 8.57642346,21.0103017 C10.639796,22.8592082 13.4056898,23.9999998 16.4559913,23.9999998 C22.8319372,24.0010842 28,19.0551237 28,12.9542743 Z M4.91424872,12.9542743 C4.91424872,14.7869148 5.38788394,16.511115 6.21277973,18.0347008 C3.66784023,16.4753297 1.9738578,13.7545634 1.9738578,10.6531718 C1.9738578,5.81998911 6.08134029,1.88902945 11.1315608,1.88902945 C12.0097123,1.88902945 12.8731334,2.00831374 13.6980292,2.2382071 C8.65800656,3.42454362 4.91424872,7.7664919 4.91424872,12.9542743 Z M19.5640808,17.959877 C19.0009308,18.5302728 18.1737688,18.8696908 17.0859941,18.9748779 L17.0859941,20.7836615 L15.8701793,20.7836615 L15.8701793,18.956443 C15.1098701,18.8740284 14.4753349,18.6831735 13.9620412,18.3849628 C13.4510137,18.0878365 12.9660475,17.70938 12.5048764,17.2528464 L14.0730849,16.1022952 C14.2543806,16.26604 14.431144,16.4243628 14.6045081,16.5772636 C14.775606,16.7290799 14.959168,16.8635459 15.1529278,16.9752393 C15.3455546,17.090186 15.5597103,17.1801915 15.7919955,17.2441712 C16.0265469,17.3092354 16.2939582,17.3417674 16.5930962,17.3417674 C17.1120554,17.3417674 17.5029744,17.2040483 17.7658533,16.92861 C18.0287321,16.6531718 18.1601716,16.3159225 18.1601716,15.9168623 C18.1601716,15.5015361 18.0253328,15.1436832 17.7556554,14.8422193 C17.4837117,14.5407554 17.1483145,14.2609795 16.7460645,14.003976 C16.3449476,13.7458882 15.9098377,13.4899692 15.4362025,13.2405566 C14.9648335,12.9900595 14.5274574,12.705946 14.1218081,12.3893005 C13.7172919,12.0715705 13.3784954,11.7050424 13.1076848,11.291885 C12.8380074,10.8743899 12.7031686,10.3755647 12.7031686,9.78998728 C12.7031686,9.39092709 12.7745538,9.01897698 12.9161912,8.67413693 C13.0600947,8.32929688 13.2674517,8.01698892 13.5359961,7.73938183 C13.8056736,7.46177475 14.1399377,7.22971258 14.5410546,7.04644853 C14.9376391,6.86210008 15.3806807,6.73847817 15.8713124,6.68100483 L15.8713124,5.12705581 L17.0871272,5.12705581 L17.0871272,6.68100483 C17.7454575,6.7504066 18.3063413,6.89463216 18.7697786,7.11042829 C19.233216,7.32730882 19.681923,7.62660396 20.1113674,8.00614489 L18.566954,9.20983185 C18.2984096,8.93439357 18.0004047,8.71209103 17.6797378,8.54617742 C17.3590709,8.38026381 16.9749504,8.2956804 16.5285096,8.2956804 C16.0027518,8.2956804 15.5971025,8.42255551 15.3126948,8.67413693 C15.028287,8.92680275 14.8855166,9.25754557 14.8855166,9.66419657 C14.8855166,10.1294053 15.0792764,10.5360563 15.4679293,10.8874028 C15.7217434,11.1031989 16.0106835,11.2962226 16.3324835,11.4621362 C16.6542835,11.6280498 16.9636194,11.798301 17.2638906,11.9663834 C17.71713,12.2179648 18.1363765,12.4695463 18.5238962,12.7222121 C18.911416,12.9716247 19.244547,13.247063 19.521023,13.5485269 C19.7997653,13.8456532 20.0173202,14.1785649 20.1736878,14.5429242 C20.3311885,14.9105367 20.4082392,15.3334537 20.4082392,15.8127597 C20.4071061,16.6737754 20.1260977,17.3883968 19.5640808,17.959877 Z" id="Shape"></path>
            </g>
        </g>
    </g>
</svg>