<svg xmlns="http://www.w3.org/2000/svg" width="133" height="136" viewBox="0 0 133 136">
  <g fill="none" fill-rule="evenodd">
    <g fill="#042b62">
      <path fill-rule="nonzero" d="M131.224331,75.3256346 L129.167191,72.5179154 C126.943255,69.4600034 126.887656,65.3179226 129.083793,62.2044122 L131.085335,59.3688937 C134.143247,55.0322185 132.725488,48.9997921 128.027423,46.4700649 L124.969511,44.8299121 C121.633607,43.0507633 119.79886,39.3256705 120.438242,35.5727785 L121.022025,32.1534768 C121.911599,26.9272272 117.991912,22.0901664 112.682265,21.8677728 L109.207365,21.7287768 C105.426674,21.5619816 102.146368,19.0044552 101.089998,15.36276 L100.117026,12.026856 C98.6436688,6.91180315 93.0282304,4.27087914 88.1355712,6.38361835 L84.9386632,7.74577915 C81.4637632,9.24693596 77.40508,8.35736155 74.8753527,5.52184314 L72.5680191,2.93651753 C69.0375207,-1.01096888 62.8382991,-0.983169683 59.3355999,3.04771433 L57.0560655,5.66083914 C54.5541375,8.52415675 50.5232534,9.46932956 47.0205542,8.02377115 L43.795847,6.68940955 C38.8753886,4.66006794 33.3155486,7.41218875 31.8977894,12.5272416 L30.9804158,15.8909448 C29.9796446,19.5604392 26.7549374,22.173564 22.9742461,22.3681584 L19.4993461,22.5627528 C14.1896989,22.868544 10.3534093,27.7612032 11.3263813,32.9874528 L11.9657629,36.4067545 C12.6607429,40.1318473 10.8815941,43.8847393 7.57348928,45.7194865 L4.54337647,47.4152377 C-0.0990899447,50.0005633 -1.43345155,56.0607889 1.70785806,60.3418658 L3.76499887,63.149585 C5.98893488,66.207497 6.04453328,70.3495778 3.84839647,73.4630882 L1.84685406,76.2986066 C-1.21105795,80.6352818 0.206701257,86.6677083 4.90476607,89.1974355 L7.96267809,90.8375883 C11.2985821,92.6167371 13.1333293,96.3418299 12.4939477,100.094722 L11.9101645,103.514024 C11.0205901,108.740273 14.9402773,113.577334 20.2499245,113.799728 L23.7248245,113.938724 C27.5055158,114.105519 30.7858214,116.663045 31.842191,120.30474 L32.815163,123.640644 C34.2885206,128.755697 39.903959,131.396621 44.7966182,129.283882 L47.9935262,127.921721 C51.4684263,126.420564 55.5271095,127.310139 58.0568367,130.145657 L60.3641703,132.730983 C63.9224679,136.678469 70.1216895,136.65067 73.5965895,132.619786 L75.8761239,130.006661 C78.378052,127.143344 82.408936,126.198171 85.9116352,127.643729 L89.1363424,128.978091 C94.0568008,131.007432 99.6166408,128.255312 101.0344,123.140259 L101.951774,119.776556 C102.952545,116.107061 106.177252,113.493936 109.957943,113.299342 L113.432843,113.104748 C118.742491,112.798956 122.57878,107.906297 121.605808,102.680048 L120.966427,99.2607459 C120.271447,95.5356531 122.050595,91.7827611 125.3587,89.9480139 L128.388813,88.2522627 C133.031279,85.6947363 134.365641,79.6345106 131.224331,75.3256346 Z M34.7333078,56.3109817 C34.7333078,48.7495993 40.8491318,42.6337753 48.4105142,42.6337753 C55.9718967,42.6337753 62.0877207,48.7495993 62.0877207,56.3109817 C62.0877207,63.8723642 55.9718967,69.9881882 48.4105142,69.9881882 C40.8491318,69.9881882 34.7333078,63.844565 34.7333078,56.3109817 Z M51.0514383,91.5881667 C49.8838718,93.0059259 47.7711326,93.2005203 46.3533734,92.0329539 L46.3533734,92.0329539 C44.9356142,90.8653875 44.7410198,88.7526483 45.9085862,87.3348891 L81.7973536,44.1071329 C82.96492,42.6893737 85.0776592,42.4947793 86.4954184,43.6623457 C87.9131776,44.8299121 88.107772,46.9426513 86.9402056,48.3604105 L51.0514383,91.5881667 Z M84.4660768,93.0059259 C76.9046944,93.0059259 70.7888703,86.8901019 70.7888703,79.3287194 C70.7888703,71.767337 76.9046944,65.651513 84.4660768,65.651513 C92.0274592,65.651513 98.1432832,71.767337 98.1432832,79.3287194 C98.1432832,86.8901019 92.0274592,93.0059259 84.4660768,93.0059259 Z"/>
      <circle cx="66.924" cy="68.211" r="41.184"/>
    </g>
    <circle cx="67.21" cy="68.64" r="44.33" stroke="#ffffff" stroke-width="1.43"/>
  </g>
</svg>
