<svg xmlns="http://www.w3.org/2000/svg" width="149" height="149" viewBox="0 0 149 149">
  <g fill="none">
    <g fill="#FFF">
      <circle cx="74.24" cy="74.24" r="68.489"/>
      <path d="M74.2399979,148.479996 C33.307369,148.479996 0,115.178427 0,74.2399979 C0,33.307369 33.307369,0 74.2399979,0 C115.178427,0 148.479996,33.307369 148.479996,74.2399979 C148.479996,115.178427 115.178427,148.479996 74.2399979,148.479996 Z M74.2399979,11.5011097 C39.6444489,11.5011097 11.5011097,39.6444489 11.5011097,74.2399979 C11.5011097,108.835547 39.6444489,136.978886 74.2399979,136.978886 C108.835547,136.978886 136.978886,108.829747 136.978886,74.2399979 C136.978886,39.6444489 108.835547,11.5011097 74.2399979,11.5011097 Z"/>
    </g>
    <path fill="#005263" d="M107.075827,90.2265374 C104.832967,92.4577973 101.210287,92.4577973 98.9674272,90.2265374 L74.2974179,65.5565281 L49.6274086,90.2265374 C47.2177986,92.2910473 43.5835187,92.0091674 41.5190088,89.5998474 C39.6731589,87.4492075 39.6731589,84.2690676 41.5190088,82.1184276 L70.271928,53.3655085 C72.5147879,51.1342485 76.1374678,51.1342485 78.3803277,53.3655085 L107.133247,82.1184276 C109.347397,84.3783976 109.324197,88.0010775 107.075827,90.2265374 Z"/>
  </g>
</svg>
