<?xml version="1.0" encoding="UTF-8"?>
<svg width="50px" height="50px" viewBox="0 0 50 50" version="1.1" xmlns="http://www.w3.org/2000/svg" xmlns:xlink="http://www.w3.org/1999/xlink">
    <!-- Generator: sketchtool 53.2 (72643) - https://sketchapp.com -->
    <title>BA4AF29F-774E-47E9-AD81-2FC97796E24A</title>
    <desc>Created with sketchtool.</desc>
    <g id="Page-1" stroke="none" stroke-width="1" fill="none" fill-rule="evenodd">
        <g id="02-Invest-tab---click-on-load-more" transform="translate(-1103.000000, -842.000000)" fill="#8DC63F" fill-rule="nonzero">
            <path d="M1124.3202,871.96801 C1124.99642,872.471734 1125.67383,872.977249 1126.35184,873.482167 C1125.64399,874.180457 1124.93494,874.879345 1124.22948,875.577039 C1124.16383,875.644481 1124.10236,875.714906 1124.0379,875.783542 L1124.07192,875.321596 C1124.15309,874.204331 1124.23486,873.085275 1124.3202,871.96801 Z M1129.88332,862.117934 C1126.44375,864.287409 1123.00418,866.462853 1119.56282,868.631135 C1119.49299,868.674704 1119.41659,868.708723 1119.339,868.743936 C1119.78962,870.184683 1120.24023,871.626027 1120.68964,873.067967 C1121.01074,874.082577 1121.34378,875.0948 1121.64757,876.113589 C1121.7729,876.536144 1121.99015,876.762342 1122.44852,876.682367 C1122.57565,874.958126 1122.6974,873.235079 1122.82751,871.510242 C1122.84244,871.30911 1122.86631,871.104994 1122.89078,870.903863 C1122.69621,870.792256 1122.78156,870.578591 1122.849,870.508165 C1122.96777,870.385815 1123.08654,870.261077 1123.20531,870.136937 C1123.24769,870.097546 1123.29185,870.057558 1123.33303,870.018167 C1123.39272,869.956097 1123.45061,869.894027 1123.5097,869.832553 C1123.79439,869.567561 1124.07789,869.297794 1124.36258,869.031608 C1124.52492,868.878223 1124.68905,868.724241 1124.85198,868.571452 C1125.29364,868.15785 1125.73471,867.744843 1126.18412,867.337806 C1127.32647,866.299322 1128.49209,865.284712 1129.63682,864.250406 C1131.09609,862.930219 1132.55178,861.605257 1133.99731,860.270149 C1134.10355,860.122732 1134.17219,859.93294 1134.26529,859.770603 C1134.00627,859.805219 1133.70248,859.762247 1133.49657,859.883403 C1132.27962,860.608551 1131.08236,861.362347 1129.88332,862.117934 Z M1153,867 C1153,880.807057 1141.80692,892 1127.9997,892 C1114.19188,892 1103,880.807057 1103,867 C1103,853.192346 1114.19188,842 1127.9997,842 C1141.80692,842 1153,853.192346 1153,867 Z M1139.16353,857.040107 C1139.1504,856.944614 1139.14085,856.846734 1139.12175,856.753032 C1138.90152,855.691869 1138.3202,855.371371 1137.27932,855.727679 C1137.12653,855.779006 1136.97016,855.812428 1136.81498,855.854803 C1136.23426,856.094729 1135.6595,856.351366 1135.07043,856.571596 C1134.094,856.93984 1133.10803,857.28421 1132.12325,857.639324 C1131.52283,857.889396 1130.92659,858.150807 1130.3208,858.387748 C1128.80304,858.980997 1127.2823,859.562906 1125.76216,860.150186 C1122.63354,861.356379 1119.50433,862.561975 1116.37332,863.768167 C1115.67025,864.039725 1114.96121,864.296959 1114.26529,864.586421 C1113.65354,864.83888 1113.02925,865.08358 1112.46583,865.422579 C1112.21635,865.572383 1111.94181,865.966291 1111.97046,866.216363 C1111.99791,866.468822 1112.38406,866.684874 1112.62041,866.910476 C1112.66338,866.951657 1112.73679,866.964787 1112.79887,866.983886 C1114.45748,867.497159 1116.11608,868.010433 1117.77589,868.522512 C1117.76694,868.695593 1117.78663,868.872255 1117.84094,869.047126 L1118.44434,870.982644 L1119.23754,873.522154 C1119.33065,873.816988 1119.42435,874.106451 1119.51626,874.395913 C1119.74187,875.103156 1119.97642,875.833676 1120.1895,876.548677 C1120.65383,878.099838 1121.906,878.2198 1122.27902,878.2198 C1122.33453,878.2198 1122.39361,878.216219 1122.4521,878.213832 C1122.5094,878.216219 1122.5667,878.21801 1122.6234,878.21801 C1123.58132,878.21801 1124.19666,877.690413 1124.56312,877.37469 C1124.63056,877.315604 1124.69502,877.261292 1124.74157,877.225482 C1124.81737,877.168783 1124.88839,877.10731 1124.94927,877.038675 C1124.99702,876.989138 1125.04058,876.93781 1125.08774,876.88887 C1125.16473,876.802927 1125.23694,876.722355 1125.30081,876.659091 C1125.85765,876.10762 1126.41331,875.55794 1126.97135,875.007663 L1127.63265,874.355328 C1127.72575,874.419786 1127.81886,874.483647 1127.91256,874.547508 C1129.41719,875.670741 1130.91943,876.799346 1132.42942,877.916611 C1133.55625,878.749785 1134.34408,878.533733 1134.88959,877.260695 C1135.12175,876.186999 1135.35273,875.110915 1135.58311,874.039606 C1135.79439,872.968296 1136.00328,871.899971 1136.21218,870.831049 C1136.34646,870.243769 1136.47896,869.654698 1136.61146,869.068015 C1136.96359,867.413603 1137.31513,865.757401 1137.66547,864.102392 C1137.77947,863.574198 1137.89108,863.0466 1138.00448,862.518406 C1138.03193,862.393072 1138.06476,862.267141 1138.08982,862.140613 C1138.44912,860.440245 1138.80603,858.741071 1139.16353,857.040107 Z" id="Shape"></path>
        </g>
        <g id="1st"></g>
    </g>
</svg>