<?xml version="1.0" encoding="UTF-8"?>
<svg width="13px" height="17px" viewBox="0 0 13 17" version="1.1" xmlns="http://www.w3.org/2000/svg" xmlns:xlink="http://www.w3.org/1999/xlink">
    <!-- Generator: Sketch 53.2 (72643) - https://sketchapp.com -->
    <title>pinterest</title>
    <desc>Created with Sketch.</desc>
    <g id="Page-1" stroke="none" stroke-width="1" fill="none" fill-rule="evenodd">
        <g id="Landing-Page" transform="translate(-456.000000, -5361.000000)" fill="#FFFFFE">
            <g id="pinterest" transform="translate(456.000000, 5361.000000)">
                <path d="M1.97485283,9.82995323 C2.19551923,9.92171651 2.3938961,9.83371402 2.45853575,9.58625403 C2.50237184,9.414762 2.60787564,8.98227114 2.65468366,8.80250537 C2.7200663,8.5565497 2.69480482,8.47155584 2.51574556,8.25794296 C2.12790764,7.79461362 1.87975081,7.19363935 1.87975081,6.34294863 C1.87975081,3.87511815 3.70303481,1.66603003 6.62890781,1.66603003 C9.21895182,1.66603003 10.6417672,3.26812662 10.6417672,5.40876836 C10.6417672,8.22409585 9.41138481,10.6001631 7.58438589,10.6001631 C6.57466994,10.6001631 5.81979768,9.75548959 6.06126765,8.71976799 C6.35177459,7.48246804 6.9127279,6.14738754 6.9127279,5.25382381 C6.9127279,4.45503198 6.48922672,3.78786782 5.612505,3.78786782 C4.58049951,3.78786782 3.75207178,4.8687189 3.75207178,6.31587094 C3.75207178,7.23726452 4.05966737,7.86080352 4.05966737,7.86080352 C4.05966737,7.86080352 3.00388638,12.389547 2.81888324,13.1815694 C2.45036292,14.7611012 2.7631594,16.697156 2.78990684,16.8927171 C2.8062525,17.0085494 2.95262045,17.0356271 3.01948906,16.9491289 C3.11459107,16.8227664 4.34348745,15.2868597 4.76030177,13.7532095 C4.87917929,13.3184622 5.43938961,11.0695097 5.43938961,11.0695097 C5.77447562,11.7163656 6.75372921,12.2857492 7.7953935,12.2857492 C10.8966108,12.2857492 13,9.42454006 13,5.59379923 C13,2.69723868 10.5771275,0 6.8934103,0 C2.31068183,0 0,3.32604279 0,6.10000159 C0,7.77957046 0.627821912,9.27410845 1.97485283,9.82995323" id="Fill-33"></path>
            </g>
        </g>
    </g>
</svg>