<?xml version="1.0" encoding="UTF-8"?>
<svg width="16px" height="16px" viewBox="0 0 16 16" version="1.1" xmlns="http://www.w3.org/2000/svg" xmlns:xlink="http://www.w3.org/1999/xlink">
    <!-- Generator: Sketch 53.2 (72643) - https://sketchapp.com -->
    <title>instagram</title>
    <desc>Created with Sketch.</desc>
    <g id="Page-1" stroke="none" stroke-width="1" fill="none" fill-rule="evenodd">
        <g id="Landing-Page" transform="translate(-484.000000, -5361.000000)" fill="#FFFFFE">
            <g id="instagram" transform="translate(484.000000, 5361.000000)">
                <g id="Group-68">
                    <path d="M7.99961666,0 C5.82682448,0 5.55465044,0.00920024917 4.70132733,0.0483013082 C3.85030428,0.0874023671 3.26838852,0.222339355 2.75930806,0.420144712 C2.23336049,0.624850256 1.7871484,0.898557669 1.34246969,1.34323638 C0.897790982,1.78791509 0.624083569,2.23412717 0.420144712,2.76007475 C0.222339355,3.26915521 0.0866356797,3.85030428 0.0483013082,4.70209402 C0.00920024917,5.55541713 0,5.82759116 0,8.00038334 C0,10.1731755 0.00920024917,10.4453496 0.0483013082,11.2986727 C0.0866356797,12.1504624 0.222339355,12.7316115 0.420144712,13.2406919 C0.624083569,13.7666395 0.897790982,14.2128516 1.34246969,14.6575303 C1.7871484,15.102209 2.23336049,15.3759164 2.75930806,15.580622 C3.26838852,15.7776606 3.85030428,15.9133643 4.70132733,15.9524654 C5.55465044,15.9907998 5.82682448,16 7.99961666,16 C10.1724088,16 10.4445829,15.9907998 11.297906,15.9524654 C12.1496957,15.9133643 12.7308448,15.7776606 13.2399252,15.580622 C13.7658728,15.3759164 14.2120849,15.102209 14.6567636,14.6575303 C15.102209,14.2128516 15.3751497,13.7666395 15.5798553,13.2406919 C15.7776606,12.7316115 15.9125976,12.1504624 15.9516987,11.2986727 C15.9907998,10.4453496 16,10.1731755 16,8.00038334 C16,5.82759116 15.9907998,5.55541713 15.9516987,4.70209402 C15.9125976,3.85030428 15.7776606,3.26915521 15.5798553,2.76007475 C15.3751497,2.23412717 15.102209,1.78791509 14.6567636,1.34323638 C14.2120849,0.898557669 13.7658728,0.624850256 13.2399252,0.420144712 C12.7308448,0.222339355 12.1496957,0.0874023671 11.297906,0.0483013082 C10.4445829,0.00920024917 10.1724088,0 7.99961666,0 M7.99961666,1.44137237 C10.1356078,1.44137237 10.3886147,1.44980593 11.2327376,1.4881403 C12.0124587,1.52417461 12.4356701,1.65451148 12.7178111,1.76414778 C13.0911879,1.9090517 13.3579951,2.08232306 13.637836,2.36216398 C13.9176769,2.64200489 14.0909483,2.90881211 14.2358522,3.28218889 C14.3454885,3.56432987 14.4758254,3.98754133 14.5118597,4.76802913 C14.5501941,5.61138531 14.5586276,5.86439216 14.5586276,8.00038334 C14.5586276,10.1363745 14.5501941,10.3893814 14.5118597,11.2327376 C14.4758254,12.0132254 14.3454885,12.4364368 14.2358522,12.7185778 C14.0909483,13.0919546 13.9176769,13.3579951 13.637836,13.6386027 C13.3579951,13.9184436 13.0911879,14.091715 12.7178111,14.2366189 C12.4356701,14.3462552 12.0124587,14.4765921 11.2327376,14.5118597 C10.3886147,14.5501941 10.1363745,14.5586276 7.99961666,14.5586276 C5.86362547,14.5586276 5.61061862,14.5501941 4.76726245,14.5118597 C3.98754133,14.4765921 3.56356318,14.3462552 3.28142221,14.2366189 C2.90804543,14.091715 2.64200489,13.9184436 2.36216398,13.6386027 C2.08232306,13.3579951 1.90828502,13.0919546 1.76338109,12.7185778 C1.65374479,12.4364368 1.52340793,12.0132254 1.4881403,11.2327376 C1.44980593,10.3893814 1.44137237,10.1363745 1.44137237,8.00038334 C1.44137237,5.86439216 1.44980593,5.61138531 1.4881403,4.76802913 C1.52340793,3.98754133 1.65374479,3.56432987 1.76338109,3.28218889 C1.90828502,2.90881211 2.08232306,2.64200489 2.36216398,2.36216398 C2.64200489,2.08232306 2.90804543,1.9090517 3.28142221,1.76414778 C3.56356318,1.65451148 3.98754133,1.52417461 4.76726245,1.4881403 C5.61061862,1.44980593 5.86362547,1.44137237 7.99961666,1.44137237" id="Fill-29"></path>
                    <path d="M8,10.5964912 C6.56588279,10.5964912 5.40350877,9.43411721 5.40350877,8 C5.40350877,6.56588279 6.56588279,5.40350877 8,5.40350877 C9.43411721,5.40350877 10.5964912,6.56588279 10.5964912,8 C10.5964912,9.43411721 9.43411721,10.5964912 8,10.5964912 M8,4 C5.79096678,4 4,5.79096678 4,8 C4,10.2090332 5.79096678,12 8,12 C10.2097798,12 12,10.2090332 12,8 C12,5.79096678 10.2097798,4 8,4" id="Fill-30"></path>
                    <path d="M12.8,4 C12.8,4.44153355 12.4416766,4.8 11.9996806,4.8 C11.5583234,4.8 11.2,4.44153355 11.2,4 C11.2,3.55782748 11.5583234,3.2 11.9996806,3.2 C12.4416766,3.2 12.8,3.55782748 12.8,4" id="Fill-31"></path>
                </g>
            </g>
        </g>
    </g>
</svg>