<?xml version="1.0" encoding="UTF-8"?>
<svg width="1703px" height="503px" viewBox="0 0 1703 503" version="1.1" xmlns="http://www.w3.org/2000/svg" xmlns:xlink="http://www.w3.org/1999/xlink">
    <!-- Generator: Sketch 53.2 (72643) - https://sketchapp.com -->
    <title>Group 83</title>
    <desc>Created with Sketch.</desc>
    <g id="Page-1" stroke="none" stroke-width="1" fill="none" fill-rule="evenodd">
        <g id="Group-83" transform="translate(-75.516029, -28.837223)" fill="#F8F8F8" fill-rule="nonzero">
            <path d="M1764.57107,366.32185 C1770.63197,360.704767 1776.32201,354.084634 1778.07034,346.017997 C1779.81868,337.95136 1776.36439,328.279842 1768.63992,325.334042 C1759.97242,322.029255 1750.71153,328.015882 1743.697,334.055301 C1736.68246,340.094721 1728.62952,346.999931 1719.44281,345.669569 C1729.05555,336.98869 1733.39171,323.918092 1730.86527,311.238544 C1730.46062,308.664747 1729.3619,306.248832 1727.68648,304.248866 C1722.87591,299.12803 1714.15542,301.324182 1708.40181,305.357501 C1690.08137,318.196546 1684.97411,342.987729 1684.87874,365.297682 C1683.03504,357.252162 1684.59265,348.858214 1684.53967,340.601525 C1684.48669,332.344836 1682.24035,323.211798 1675.22581,318.808935 C1671.07219,316.179887 1665.95433,315.641407 1661.0378,315.483031 C1652.80473,315.176836 1643.63921,316.000394 1638.01275,322.008138 C1631.03,329.462386 1632.84191,341.97412 1638.9134,350.178017 C1644.9849,358.381914 1654.23518,363.523867 1662.74375,369.183183 C1669.22849,373.501579 1675.7874,378.548506 1679.77148,385.369249 C1680.28622,386.28993 1680.70857,387.258957 1681.0324,388.262258 L1732.6454,388.262258 C1744.23253,382.418537 1754.97203,375.03799 1764.57107,366.32185 Z" id="Path" style="mix-blend-mode: multiply;" transform="translate(1706.015513, 344.762258) rotate(-6.000000) translate(-1706.015513, -344.762258) "></path>
            <g id="Group-75" transform="translate(191.500000, 318.000000) scale(-1, 1) rotate(-10.000000) translate(-191.500000, -318.000000) translate(50.000000, 21.000000)">
                <path d="M175.488851,47.293531 C175.488851,47.293531 148.515966,266.161698 175.488851,400.759769 C202.461736,535.35784 39.1702359,593.293531 39.1702359,593.293531 L278.689454,593.293531 C278.689454,593.293531 311.52601,157.312824 175.488851,47.293531 Z" id="Path" style="mix-blend-mode: multiply;"></path>
                <path d="M124.149841,0.384835089 C124.149841,0.384835089 36.1588044,88.4899513 85.8302191,219.222413 C135.501634,349.954875 0.674201784,567.384835 0.674201784,567.384835 C0.674201784,567.384835 2.11514141,567.173692 4.7978664,566.704487 C185.512782,534.763303 275.319637,327.796631 174.817027,174.049626 C137.469746,116.888631 106.799991,49.8273946 124.149841,0.384835089 Z" id="Path" style="mix-blend-mode: multiply;"></path>
            </g>
        </g>
    </g>
</svg>