<?xml version="1.0" encoding="UTF-8"?>
<svg width="44px" height="44px" viewBox="0 0 44 44" version="1.1" xmlns="http://www.w3.org/2000/svg" xmlns:xlink="http://www.w3.org/1999/xlink">
    <!-- Generator: Sketch 54.1 (76490) - https://sketchapp.com -->
    <title>Group 14</title>
    <desc>Created with Sketch.</desc>
    <g id="New-UI" stroke="none" stroke-width="1" fill="none" fill-rule="evenodd">
        <g id="3.-Goals" transform="translate(-329.000000, -392.000000)">
            <g id="Group-14" transform="translate(329.000000, 392.000000)">
                <g id="Group-7-Copy-2">
                    <ellipse id="Oval" fill="#65D48E" opacity="0.121954055" cx="22" cy="21.986755" rx="22" ry="21.986755"></ellipse>
                    <ellipse id="Oval" fill="#65D48E" opacity="0.225678943" cx="21.8263158" cy="21.8131753" rx="18.5263158" ry="18.5151621"></ellipse>
                    <g id="Group-11" transform="translate(6.947368, 10.576786)">
                        <ellipse id="Oval" fill="#47A395" opacity="0.52" cx="1.15789474" cy="12.4514465" rx="1.15789474" ry="1.15719763"></ellipse>
                        <ellipse id="Oval-Copy-10" fill="#47A395" opacity="0.52" cx="10.56" cy="0.879470199" rx="1" ry="1"></ellipse>
                        <ellipse id="Oval-Copy-2" fill="#47A395" opacity="0.523809524" cx="24.3157895" cy="2.03666783" rx="1.15789474" ry="1.15719763"></ellipse>
                        <ellipse id="Oval-Copy-36" fill="#A772BB" opacity="0.287252604" cx="25.1726316" cy="25.4814918" rx="1" ry="1"></ellipse>
                    </g>
                </g>
                <path d="M31.4691244,19.0792087 L30.2119816,19.0792087 L29.4009217,16.4995654 C28.9751152,15.178788 27.7788018,14.2913907 26.4202765,14.2913907 L19.2423963,14.2913907 C17.883871,14.2913907 16.6672811,15.178788 16.2617512,16.4995654 L15.4506912,19.0792087 L14.1935484,19.0792087 C13.6460829,19.0792087 13.2,19.5332259 13.2,20.0904288 L13.2,20.6682689 C13.2,21.2254719 13.6460829,21.6794891 14.1935484,21.6794891 L14.5382488,21.6794891 C14.3354839,22.6081607 14.2341014,23.5574694 14.2341014,24.5067781 L14.2341014,29.3565075 C14.2341014,29.9137105 14.6801843,30.3677277 15.2276498,30.3677277 L16.8903226,30.3677277 C17.437788,30.3677277 17.883871,29.9137105 17.883871,29.3565075 L17.883871,27.8087216 L27.8193548,27.8087216 L27.8193548,29.3565075 C27.8193548,29.9137105 28.2654378,30.3677277 28.8129032,30.3677277 L30.475576,30.3677277 C31.0230415,30.3677277 31.4691244,29.9137105 31.4691244,29.3565075 L31.4691244,24.486141 C31.4691244,23.5368323 31.3677419,22.5875235 31.164977,21.658852 L31.5096774,21.658852 C32.0571429,21.658852 32.5032258,21.2048347 32.5032258,20.6476318 L32.5032258,20.0697917 C32.4626728,19.5332259 32.0165899,19.0792087 31.4691244,19.0792087 Z M17.19447,20.111066 L18.1474654,17.0980426 C18.3096774,16.6027511 18.7557604,16.2725568 19.2423963,16.2725568 L26.4202765,16.2725568 C26.9271889,16.2725568 27.3732719,16.6027511 27.5152074,17.0980426 L28.4682028,20.111066 C28.5087558,20.255526 28.4073733,20.3793489 28.2654378,20.3793489 L17.397235,20.3793489 C17.2552995,20.399986 17.1539171,20.255526 17.19447,20.111066 Z M18.3299539,25.4354497 C17.6,25.4354497 17.0119816,24.8369725 17.0119816,24.0940352 C17.0119816,23.351098 17.6,22.7526207 18.3299539,22.7526207 C19.0599078,22.7526207 19.6479263,23.351098 19.6479263,24.0940352 C19.6682028,24.8369725 19.0599078,25.4354497 18.3299539,25.4354497 Z M27.3327189,25.4354497 C26.602765,25.4354497 26.0147465,24.8369725 26.0147465,24.0940352 C26.0147465,23.351098 26.602765,22.7526207 27.3327189,22.7526207 C28.0626728,22.7526207 28.6506912,23.351098 28.6506912,24.0940352 C28.6506912,24.8369725 28.0626728,25.4354497 27.3327189,25.4354497 Z" id="Shape" fill="#00A8A2" fill-rule="nonzero"></path>
            </g>
        </g>
    </g>
</svg>