<?xml version="1.0" encoding="UTF-8"?>
<svg width="66px" height="56px" viewBox="0 0 66 56" version="1.1" xmlns="http://www.w3.org/2000/svg" xmlns:xlink="http://www.w3.org/1999/xlink">
    <!-- Generator: Sketch 53.2 (72643) - https://sketchapp.com -->
    <title>Group 38</title>
    <desc>Created with Sketch.</desc>
    <defs>
        <linearGradient x1="-22.4157366%" y1="50%" x2="131.964305%" y2="50%" id="linearGradient-1">
            <stop stop-color="#8DC63F" offset="0%"></stop>
            <stop stop-color="#6AAA13" offset="100%"></stop>
        </linearGradient>
    </defs>
    <g id="Page-1" stroke="none" stroke-width="1" fill="none" fill-rule="evenodd">
        <g id="Landing-Page-1.1" transform="translate(-1003.000000, -3443.000000)">
            <g id="Group-38" transform="translate(1003.000000, 3443.000000)">
                <g id="Group-41">
                    <ellipse id="Oval-Copy" fill="#8DC63F" style="mix-blend-mode: multiply;" opacity="0.502673921" cx="63.6428571" cy="35" rx="2.35714286" ry="2.33333333"></ellipse>
                    <ellipse id="Oval-Copy-7" fill="#8DC63F" style="mix-blend-mode: multiply;" opacity="0.502673921" cx="1.17857143" cy="29.1666667" rx="1.17857143" ry="1.16666667"></ellipse>
                    <ellipse id="Oval-Copy-12" fill="#8DC63F" style="mix-blend-mode: multiply;" opacity="0.502673921" cx="38.8928571" cy="1.16666667" rx="1.17857143" ry="1.16666667"></ellipse>
                    <ellipse id="Oval-Copy-14" fill="#8DC63F" style="mix-blend-mode: multiply;" opacity="0.502673921" cx="51.8571429" cy="22.1666667" rx="1.17857143" ry="1.16666667"></ellipse>
                    <g id="budget" transform="translate(12.964286, 8.166667)">
                        <g id="Group-22">
                            <path d="M32.1041368,1.338 C31.8221368,1.018 31.2921368,0.636 30.3701368,0.636 C28.3601368,0.636 25.1641368,2.58 23.6201368,3.604 C22.4801368,1.984 20.7901368,0 19.3541368,0 C17.9181368,0 16.2281368,1.984 15.0881368,3.606 C13.5441368,2.58 10.3481368,0.638 8.33813677,0.638 C7.41813677,0.638 6.88613677,1.02 6.60413677,1.34 C6.15013677,1.852 5.94613677,2.52 6.01213677,3.27 C6.24013677,5.9 10.1041368,9.744 12.6361368,12 L26.0761368,12 C28.6061368,9.744 32.4701368,5.902 32.7001368,3.27 C32.7641368,2.52 32.5581368,1.852 32.1041368,1.338 Z" id="Path" fill="#8DC63F" fill-rule="nonzero"></path>
                            <path d="M25.316,14 L12.686,14 C8.868,18.13 0,28.228 0,33 C0,41.272 8.524,48 19,48 C29.476,48 38,41.272 38,33 C38,28.226 29.134,18.128 25.316,14 Z" id="Shape" fill="url(#linearGradient-1)" fill-rule="nonzero"></path>
                            <g id="rupee" transform="translate(14.000000, 24.000000)" fill="#FFFFFF">
                                <g id="Group-3">
                                    <path d="M9.99992597,4.95870392 L9.99992597,3.76546974 C10.0023649,3.69122406 9.94423618,3.6290127 9.86984762,3.62676901 C9.86659566,3.62656504 9.86314045,3.62656504 9.85968525,3.62676901 L7.67477538,3.62676901 L7.63819084,3.43707537 C7.53311192,2.86024353 7.29287346,2.31706701 6.93698721,1.85221561 L6.64024596,1.47078862 L9.83732803,1.47078862 C9.91029386,1.47425613 9.97208108,1.41775598 9.97553628,1.34453016 C9.97573953,1.34045073 9.97573953,1.33616732 9.97553628,1.33208789 L9.97553628,0.138853705 C9.977772,0.0644040502 9.91943999,0.00239666695 9.84545793,0.000152978742 C9.84281571,-5.09929139e-05 9.83997025,-5.09929139e-05 9.83732803,0.000152978742 L0.138360688,0.000152978742 C0.0641753759,-0.00209070947 0.0023881573,0.056245184 0.000152435572,0.130490867 C-5.08118574e-05,0.13334647 -5.08118574e-05,0.135998101 0.000152435572,0.138853705 L0.000152435572,1.69515744 C0.00116867272,1.77164681 0.0621429016,1.83365419 0.138360688,1.83589788 L1.8293793,1.83589788 C3.55494998,1.83589788 4.67484332,2.32542985 5.16263715,3.28817607 L5.33336499,3.62880873 L0.138360688,3.62880873 C0.0641753759,3.62656504 0.0023881573,3.68490094 0.000152435572,3.75914662 C-5.08118574e-05,3.76200222 -5.08118574e-05,3.76465385 0.000152435572,3.76750946 L0.000152435572,4.96074364 C-0.00208328615,5.0351933 0.0560454787,5.09720068 0.130027543,5.09944437 C0.132873007,5.09944437 0.135515224,5.09944437 0.138360688,5.09944437 L5.42259061,5.09944437 L5.34555984,5.39316355 C4.97971446,6.77405166 3.59559947,7.53282622 1.44727413,7.53282622 L0.138360688,7.53282622 C0.0621429016,7.53506991 0.00116867272,7.59707729 0.000152435572,7.67356666 L0.000152435572,9.15848031 C-0.000863801576,9.19213564 0.0125505288,9.2247711 0.0367369729,9.24822784 C2.29075097,11.6550934 4.10168557,13.8355504 5.85550764,15.9446173 C5.88050707,15.9815362 5.92298578,16.0023413 5.96749697,15.9996896 L8.23980323,15.9996896 C8.29285081,16.0033611 8.34264643,15.9741932 8.36581664,15.9262598 C8.39467777,15.8830179 8.39467777,15.8267217 8.36581664,15.7834797 C6.70731761,13.7580411 4.80898662,11.4450026 3.01024687,9.51747043 L2.69318088,9.17887748 L3.15455254,9.12380513 C5.69108047,8.82192708 7.3290515,7.42676096 7.67071043,5.30341602 L7.70323002,5.09944437 L9.85968525,5.09944437 C9.9348868,5.10168806 9.997487,5.04253628 9.99992597,4.96706676 L9.99992597,4.95870392 Z" id="Fill-1"></path>
                                </g>
                            </g>
                        </g>
                    </g>
                    <ellipse id="Oval-Copy-13" fill="#8DC63F" style="mix-blend-mode: multiply;" opacity="0.502673921" cx="15.3214286" cy="18.6666667" rx="2.35714286" ry="2.33333333"></ellipse>
                </g>
            </g>
        </g>
    </g>
</svg>