<svg xmlns="http://www.w3.org/2000/svg" width="45" height="45" viewBox="0 0 45 45">
  <g fill="none" fill-rule="evenodd">
    <g fill="#65D48E">
      <circle cx="22.5" cy="22.5" r="22.5" opacity=".12"/>
      <circle cx="22.5" cy="22.5" r="18.947" opacity=".233"/>
    </g>
    <g opacity=".228" transform="rotate(-32 37.046 -4.158)">
      <circle cx="1.686" cy="22.496" r="1.184" fill="#005263"/>
      <circle cx="1.276" cy="1.859" r="1" fill="#005263"/>
      <circle cx="20.764" cy="1.401" r="1.184" fill="#005263"/>
      <circle cx="21.431" cy="18.837" r="1" fill="#47A395" transform="matrix(1 0 0 -1 0 37.674)"/>
    </g>
    <g fill="#005263" fill-rule="nonzero" transform="translate(15 11)">
      <path d="M0.671999963,22.9375987 L10.7967994,22.9375987 L10.7967994,19.5327989 C10.7967994,19.1615861 11.0976762,18.860799 11.4687994,18.860799 L14.8735992,18.860799 L14.8735992,3.35999981 C14.8735992,2.98856303 14.573036,2.68799985 14.2015992,2.68799985 L11.4687994,2.68799985 L11.4687994,3.35999981 C11.4687994,4.47166695 10.5644666,5.3759997 9.45279948,5.3759997 L5.4207997,5.3759997 C4.30913256,5.3759997 3.40479981,4.47166695 3.40479981,3.35999981 L3.40479981,2.68799985 L0.671999963,2.68799985 C0.300563183,2.68799985 0,2.98856303 0,3.35999981 L0,22.2655988 C0,22.6370355 0.300563183,22.9375987 0.671999963,22.9375987 Z M10.1247994,8.10879955 L11.4687994,8.10879955 C11.8402361,8.10879955 12.1407993,8.40936273 12.1407993,8.78079951 C12.1407993,9.15223629 11.8402361,9.45279948 11.4687994,9.45279948 L10.1247994,9.45279948 C9.75336266,9.45279948 9.45279948,9.15223629 9.45279948,8.78079951 C9.45279948,8.40936273 9.75336266,8.10879955 10.1247994,8.10879955 Z M10.1247994,12.1407993 L11.4687994,12.1407993 C11.8402361,12.1407993 12.1407993,12.4413625 12.1407993,12.8127993 C12.1407993,13.1842361 11.8402361,13.4847993 11.4687994,13.4847993 L10.1247994,13.4847993 C9.75336266,13.4847993 9.45279948,13.1842361 9.45279948,12.8127993 C9.45279948,12.4413625 9.75336266,12.1407993 10.1247994,12.1407993 Z M10.1247994,16.1727991 L11.4687994,16.1727991 C11.8402361,16.1727991 12.1407993,16.4733623 12.1407993,16.8447991 C12.1407993,17.2162358 11.8402361,17.516799 11.4687994,17.516799 L10.1247994,17.516799 C9.75336266,17.516799 9.45279948,17.2162358 9.45279948,16.8447991 C9.45279948,16.4733623 9.75336266,16.1727991 10.1247994,16.1727991 Z M2.92969584,8.30569554 C3.19217902,8.04321235 3.6174654,8.04321235 3.87994859,8.30569554 L4.74879974,9.17454669 L6.96169561,6.96165081 C7.2241788,6.69916763 7.64946518,6.69916763 7.91194836,6.96165081 C8.17443155,7.224134 8.17443155,7.64942038 7.91194836,7.91190356 L5.22394851,10.5999034 C5.09268452,10.7311674 4.92074213,10.7967994 4.74884454,10.7967994 C4.57694695,10.7967994 4.40495976,10.7311674 4.27374056,10.5999034 L2.92974064,9.25590349 C2.66716785,8.9934203 2.66716785,8.56817873 2.92969584,8.30569554 L2.92969584,8.30569554 Z M2.92969584,12.3376953 C3.19217902,12.0752121 3.6174654,12.0752121 3.87994859,12.3376953 L4.74879974,13.2065465 L6.96169561,10.9936506 C7.2241788,10.7311674 7.64946518,10.7311674 7.91194836,10.9936506 C8.17443155,11.2561338 8.17443155,11.6814202 7.91194836,11.9439033 L5.22394851,14.6319032 C5.09268452,14.7631672 4.92074213,14.8287992 4.74884454,14.8287992 C4.57694695,14.8287992 4.40495976,14.7631672 4.27374056,14.6319032 L2.92974064,13.2879033 C2.66716785,13.0254201 2.66716785,12.6001785 2.92969584,12.3376953 L2.92969584,12.3376953 Z M2.92969584,16.3696951 C3.19217902,16.1072119 3.6174654,16.1072119 3.87994859,16.3696951 L4.74879974,17.2385462 L6.96169561,15.0256504 C7.2241788,14.7631672 7.64946518,14.7631672 7.91194836,15.0256504 C8.17443155,15.2881336 8.17443155,15.7134199 7.91194836,15.9759031 L5.22394851,18.663903 C5.09268452,18.795167 4.92074213,18.860799 4.74884454,18.860799 C4.57694695,18.860799 4.40495976,18.795167 4.27374056,18.663903 L2.92974064,17.319903 C2.66716785,17.0574199 2.66716785,16.6321783 2.92969584,16.3696951 L2.92969584,16.3696951 Z"/>
      <path d="M14.8055928 20.2047989L12.1407993 20.2047989 12.1407993 22.8695923C13.4553657 22.6016883 14.5376888 21.5193652 14.8055928 20.2047989L14.8055928 20.2047989zM8.78079951 1.34399993C8.78079951.601708767 8.17909075 0 7.43679959 0 6.69450843 0 6.09279966.601708767 6.09279966 1.34399993L5.4207997 1.34399993C5.04967652 1.34399993 4.74879974 1.64478711 4.74879974 2.01599989L4.74879974 3.35999981C4.74879974 3.73112299 5.04967652 4.03199978 5.4207997 4.03199978L9.45279948 4.03199978C9.82392266 4.03199978 10.1247994 3.73112299 10.1247994 3.35999981L10.1247994 2.01599989C10.1247994 1.64478711 9.82392266 1.34399993 9.45279948 1.34399993L8.78079951 1.34399993z"/>
    </g>
  </g>
</svg>
