<?xml version="1.0" encoding="UTF-8"?>
<svg width="113px" height="113px" viewBox="0 0 113 113" version="1.1" xmlns="http://www.w3.org/2000/svg" xmlns:xlink="http://www.w3.org/1999/xlink">
    <title>contingency-planning-big-one 2</title>
    <g id="Page-1" stroke="none" stroke-width="1" fill="none" fill-rule="evenodd">
        <g id="contingency-planning-big-one-2" fill-rule="nonzero">
            <g id="contingency-planning-big-one">
                <circle id="Oval" fill="#005263" cx="56.5" cy="56.5" r="56.5"></circle>
                <polygon id="Path" fill="#34704A" points="70 50 80 50 80 53 70 53"></polygon>
                <path d="M75.38,43.87 C76.8145717,43.6975603 78.0921529,42.8802028 78.85,41.65 C79.85,40.72 81.76,41.19 82.85,41.57 L80.36,49 L69.8,49 L67.3,41.49 C67.83187,41.2399848 68.4122984,41.110242 69,41.11 L69,41.11 C69.5275385,41.1175141 70.0307391,41.3331715 70.4,41.71 C71.6598204,43.1297465 73.4825558,43.9203306 75.38,43.87 L75.38,43.87 Z M88.49,76.56 C86.7407478,79.3324376 83.6881391,81.0098612 80.41,81.0000861 L69.75,81.0000861 L69.07,81.0000861 C65.9321283,80.772292 63.1060639,79.0184138 61.5091718,76.3076896 C59.9122798,73.5969654 59.7481275,70.2749506 61.07,67.42 L69.63,54 L80.53,54 L89.1,67.39 C90.4793926,70.3496328 90.2492608,73.8091544 88.49,76.56 Z" id="Shape" fill="#ACD77D"></path>
                <path d="M75.08,61 C71.2140068,61 68.08,64.1340068 68.08,68 C68.08,71.8659932 71.2140068,75 75.08,75 C78.9459932,75 82.08,71.8659932 82.08,68 C82.08,64.1340068 78.9459932,61 75.08,61 L75.08,61 Z" id="Path" fill="#005263"></path>
                <path d="M75.08,73 C72.3185763,73 70.08,70.7614237 70.08,68 C70.08,65.2385763 72.3185763,63 75.08,63 C77.8414237,63 80.08,65.2385763 80.08,68 C80.08,69.3260824 79.5532158,70.597852 78.6155339,71.5355339 C77.677852,72.4732158 76.4060824,73 75.08,73 Z" id="Path" fill="#EE888F"></path>
                <path d="M65.61,40.11 L65.61,40.11 L65.82,39.99 L65.82,39.99 C66.4995419,39.6091916 67.2354411,39.3391369 68,39.19 L68,31 L62,31 L62,36 L38,36 L38,31 L32,31 L32,81 L63.24,81 L62.85,80.7 C62.7,80.58 62.54,80.47 62.4,80.35 C62.26,80.23 62,80 61.8,79.81 C61.6,79.62 61.54,79.58 61.42,79.45 C61.3,79.32 61.02,79 60.83,78.77 C60.64,78.54 60.63,78.54 60.54,78.42 C60.2638798,78.05917 60.0100732,77.6817997 59.78,77.29 C57.8050864,74.0010605 57.613504,69.9402641 59.27,66.48 L59.34,66.37 L68,52.82 L68,49.92 L64.89,40.59 L65.53,40.17 C65.53,40.17 65.57,40.14 65.61,40.11 Z" id="Path" fill="#B7D06E"></path>
                <polygon id="Path" fill="#FFFFFF" points="50 64 39 64 39 62 50 62"></polygon>
                <polygon id="Path" fill="#FFFFFF" points="61 59 39 59 39 57 61 57"></polygon>
                <polygon id="Path" fill="#FFFFFF" points="61 54 39 54 39 52 61 52"></polygon>
                <polygon id="Path" fill="#FFFFFF" points="61 49 39 49 39 47 61 47"></polygon>
                <polygon id="Path" fill="#FFFFFF" points="61 44 39 44 39 42 61 42"></polygon>
                <polygon id="Path" stroke="#FFFFFF" fill="#FFFFFF" points="40 32 40 34 60 34 60 32"></polygon>
            </g>
        </g>
    </g>
</svg>