<?xml version="1.0" encoding="utf-8"?>
<!-- Generator: Adobe Illustrator 26.5.1, SVG Export Plug-In . SVG Version: 6.00 Build 0)  -->
<svg version="1.1" id="Layer_1" xmlns="http://www.w3.org/2000/svg" xmlns:xlink="http://www.w3.org/1999/xlink" x="0px" y="0px"
	 viewBox="0 0 20.8 32" style="enable-background:new 0 0 20.8 32;" xml:space="preserve">
<style type="text/css">
	.st0{fill:#042b62;}
	.st1{fill:#042b62;}
	.st2{fill:#FFFFFF;}
	.st3{fill:#EAEAEA;}
	.st4{fill:#E2E2E2;}
	.st5{fill:#E2E2E2;stroke:#939393;stroke-width:0.25;stroke-miterlimit:10;}
	.st6{fill:#ccd5e0;}
	.st7{fill:#EAEAEA;stroke:#939393;stroke-width:0.25;stroke-miterlimit:10;}
</style>
<path class="st0" d="M20,32H0.8C0.4,32,0,31.6,0,31.2V3.4C0,3,0.4,2.6,0.8,2.6H20c0.5,0,0.8,0.4,0.8,0.8v27.8
	C20.8,31.6,20.5,32,20,32z"/>
<path class="st1" d="M20,31.2H0.8c-0.5,0-0.8-0.4-0.8-0.8V2.6c0-0.5,0.4-0.8,0.8-0.8H20c0.5,0,0.8,0.4,0.8,0.8v27.8
	C20.8,30.8,20.5,31.2,20,31.2z"/>
<path class="st2" d="M19.6,28.3H1.2c-0.2,0-0.4-0.2-0.4-0.4V3.6c0-0.2,0.2-0.4,0.4-0.4l0,0h18.3c0.2,0,0.4,0.2,0.4,0.4v24.3
	C20,28.1,19.8,28.3,19.6,28.3z"/>
<path class="st2" d="M11.5,30.1H9.3c-0.2,0-0.4-0.2-0.4-0.4l0,0c0-0.2,0.2-0.4,0.4-0.4h2.2c0.2,0,0.4,0.2,0.4,0.4l0,0
	C11.9,30,11.8,30.1,11.5,30.1z"/>
<circle class="st0" cx="6.3" cy="23.8" r="3.4"/>
<path class="st3" d="M9.4,25.1l-3.1-1.4L7.2,27C8.2,26.7,9,26.1,9.4,25.1z"/>
<path class="st4" d="M6.3,23.8l3.1,1.4c0.7-1.5,0.2-3.3-1.2-4.2L6.3,23.8z"/>
<path class="st5" d="M15.5,23.3h-3.8c-0.2,0-0.4-0.2-0.4-0.4c0-0.2,0.2-0.4,0.4-0.4h3.8c0.2,0,0.4,0.2,0.4,0.4
	C15.9,23.2,15.7,23.3,15.5,23.3z"/>
<path class="st5" d="M13.9,24.9h-2.2c-0.2,0-0.4-0.2-0.4-0.4c0-0.2,0.2-0.4,0.4-0.4h2.2c0.2,0,0.4,0.2,0.4,0.4
	C14.3,24.8,14.1,24.9,13.9,24.9L13.9,24.9z"/>
<path class="st5" d="M6.3,15.9H2.5c-0.2,0-0.4-0.2-0.4-0.4s0.2-0.4,0.4-0.4h3.8c0.2,0,0.4,0.2,0.4,0.4l0,0
	C6.7,15.7,6.5,15.8,6.3,15.9z"/>
<path class="st5" d="M18,17.8H2.5c-0.2,0-0.4-0.2-0.4-0.4c0,0,0,0,0,0c0-0.2,0.2-0.4,0.4-0.4H18c0.2,0,0.4,0.2,0.4,0.4
	C18.4,17.6,18.2,17.8,18,17.8L18,17.8z"/>
<path class="st6" d="M19.6,3.2H1.2C1,3.2,0.8,3.4,0.8,3.6l0,0v8.7H20V3.6C20,3.4,19.8,3.2,19.6,3.2L19.6,3.2z"/>
<path class="st2" d="M3.1,3.2h0.8v9.1H3.1V3.2z"/>
<path class="st2" d="M6.6,3.2h0.8v9.1H6.6V3.2z"/>
<path class="st2" d="M10,3.2h0.8v9.1H10V3.2z"/>
<path class="st2" d="M13.4,3.2h0.8v9.1h-0.8V3.2z"/>
<path class="st2" d="M16.9,3.2h0.8v9.1h-0.8V3.2z"/>
<path class="st7" d="M3.5,10.6c-0.2,0-0.3-0.1-0.4-0.2C3,10.2,3.1,9.9,3.3,9.8c0,0,0,0,0,0l3.4-2.2c0.1-0.1,0.3-0.1,0.5,0l3.2,2
	L17,5.1C17.2,5,17.5,5,17.6,5.2c0,0,0,0,0,0c0.1,0.2,0.1,0.5-0.1,0.6l-6.9,4.7c-0.1,0.1-0.3,0.1-0.5,0L7,8.5l-3.2,2
	C3.7,10.6,3.6,10.6,3.5,10.6L3.5,10.6z"/>
<path class="st5" d="M4.5,10.2c0,0.6-0.4,1-1,1s-1-0.4-1-1s0.4-1,1-1S4.5,9.7,4.5,10.2z"/>
<path class="st5" d="M7.9,8.1c0,0.6-0.4,1-1,1s-1-0.4-1-1s0.4-1,1-1S7.9,7.5,7.9,8.1z"/>
<path class="st5" d="M11.4,10.1c0,0.6-0.4,1-1,1s-1-0.4-1-1s0.4-1,1-1S11.4,9.5,11.4,10.1z"/>
<path class="st5" d="M14.8,7.8c0,0.6-0.4,1-1,1s-1-0.4-1-1s0.4-1,1-1S14.8,7.3,14.8,7.8z"/>
<path class="st5" d="M18.2,5.6c0,0.6-0.4,1-1,1c-0.6,0-1-0.4-1-1s0.4-1,1-1c0,0,0,0,0,0C17.8,4.6,18.3,5.1,18.2,5.6z"/>
<circle class="st1" cx="10.4" cy="2.9" r="2.9"/>
<path class="st0" d="M12.6,3c0,1.2-1,2.2-2.3,2.2s-2.2-1-2.2-2.3c0-1.2,1-2.2,2.2-2.2C11.6,0.7,12.6,1.7,12.6,3
	C12.6,3,12.6,3,12.6,3z"/>
<path class="st0" d="M10.4,0.9c1.2,0,2.1,0.9,2.2,2.1l0,0c0.1-1.2-0.8-2.3-2.1-2.4S8.3,1.5,8.2,2.7c0,0.1,0,0.2,0,0.3l0,0
	C8.3,1.8,9.2,0.9,10.4,0.9z"/>
<path class="st2" d="M11.2,2.3h-0.4c0-0.1-0.1-0.2-0.1-0.3h0.4l0,0l0,0V1.8l0,0l0,0H9.7c0,0-0.1,0-0.1,0.1V2l0,0l0,0h0.3
	c0.2,0,0.4,0.1,0.5,0.2H9.6l0,0v0.2l0,0h0.8c0,0.1-0.1,0.2-0.2,0.2C10.1,2.7,10,2.7,9.9,2.7H9.7l0,0l0,0v0.2l0,0
	c0.2,0.2,0.5,0.6,0.9,1l0,0h0.4c0,0,0,0,0.1,0 M11,3.9c-0.3-0.4-0.6-0.7-0.8-1c0.2,0,0.3-0.1,0.5-0.2c0.1-0.1,0.2-0.3,0.2-0.4h0.3
	l0,0v0.1c0,0,0,0,0,0L11,3.9z"/>
</svg>
