<svg xmlns="http://www.w3.org/2000/svg" viewBox="0 0 32 32"><defs><style>.cls-1{fill:#b5cd6a;}.cls-2{fill:#bcd874;}.cls-3{fill:#3ba499;}.cls-4{fill:#4ebd9e;}.cls-5{fill:#f49496;}.cls-6{fill:#ee888e;}.cls-7{fill:#d98540;}.cls-8{fill:#fff;}</style></defs><g id="Layer_2" data-name="Layer 2"><g id="Layer_1-2" data-name="Layer 1"><rect class="cls-1" x="2.88" y="5.66" width="27.85" height="14.18" rx="1.1" transform="translate(-4.14 10.24) rotate(-30.35)"/><path class="cls-2" d="M23.39,2.27,4.45,13.36a1.49,1.49,0,0,1-.57,2l4.29,7.32a1.49,1.49,0,0,1,2.05.5l19-11.09a1.49,1.49,0,0,1,.56-2L25.45,2.78A1.51,1.51,0,0,1,23.39,2.27Z"/><ellipse class="cls-1" cx="16.81" cy="12.75" rx="3.82" ry="4.84" transform="translate(-4.14 10.24) rotate(-30.35)"/><circle class="cls-1" cx="26.14" cy="7.28" r="0.86"/><circle class="cls-3" cx="7.47" cy="18.22" r="0.86"/><path class="cls-4" d="M18.6,16.21l-.35-.59a4.05,4.05,0,0,1-2.51.28l.18-1.05a3.29,3.29,0,0,0,1.81-.11l-.92-1.58a3.59,3.59,0,0,1-1.68.21,1.5,1.5,0,0,1-1-.8,1.68,1.68,0,0,1-.18-1.44,2.25,2.25,0,0,1,1-1.23l-.24-.41.52-.3.24.41a4,4,0,0,1,2-.38l-.09,1.06a2.89,2.89,0,0,0-1.43.21L16.83,12l0,0a4,4,0,0,1,1.71-.21,1.56,1.56,0,0,1,1.07.83,1.7,1.7,0,0,1,.18,1.45,2.41,2.41,0,0,1-1.05,1.26l.34.59ZM15,11.31a.72.72,0,0,0,.47.91,1.78,1.78,0,0,0,.8-.05l-.82-1.41A1.2,1.2,0,0,0,15,11.31Zm3.79,2.56a.67.67,0,0,0-.05-.6.68.68,0,0,0-.44-.35,2.13,2.13,0,0,0-.85.08l.86,1.46A1.37,1.37,0,0,0,18.75,13.87Z"/><rect class="cls-5" x="14.1" y="5.66" width="5.41" height="14.18" rx="0.4" transform="matrix(0.86, -0.51, 0.51, 0.86, -4.14, 10.24)"/><rect class="cls-1" x="2.98" y="10.49" width="27.85" height="14.17" rx="1.1" transform="translate(-3.02 3.51) rotate(-10.88)"/><path class="cls-2" d="M5.18,25,3.27,15.05a1,1,0,0,0,.8-1.19L27.44,9.37a1,1,0,0,0,1.19.8l1.91,9.94a1,1,0,0,0-.8,1.19L6.37,25.79A1,1,0,0,0,5.18,25Z"/><ellipse class="cls-1" cx="16.9" cy="17.58" rx="3.82" ry="4.83" transform="translate(-3.02 3.51) rotate(-10.88)"/><circle class="cls-1" cx="27.53" cy="15.54" r="0.86"/><circle class="cls-1" cx="6.28" cy="19.62" r="0.86"/><path class="cls-5" d="M11.31,29.62c0,1.32-2.53,2.38-5.66,2.38S0,30.94,0,29.62V27.68H11.31v1.94Z"/><ellipse class="cls-6" cx="5.65" cy="27.68" rx="5.65" ry="2.38"/><path class="cls-7" d="M5.65,25.76c-2.72,0-4.93.86-4.93,1.92s2.21,1.91,4.93,1.91,4.94-.86,4.94-1.91S8.38,25.76,5.65,25.76Zm0,3.62c-2.42,0-4.38-.76-4.38-1.7s2-1.7,4.38-1.7,4.39.76,4.39,1.7S8.08,29.38,5.65,29.38Z"/><path class="cls-7" d="M5.47,29v-.23a7.28,7.28,0,0,1-2-.35l.6-.28a5.34,5.34,0,0,0,1.42.28V27.8a6.53,6.53,0,0,1-1.36-.23c-.29-.09-.43-.23-.43-.41s.17-.34.5-.45a4.09,4.09,0,0,1,1.29-.19v-.16H6v.16a7.84,7.84,0,0,1,1.71.24l-.53.29A5.5,5.5,0,0,0,6,26.87v.6H6a6,6,0,0,1,1.39.23q.45.15.45.42c0,.19-.17.34-.51.46A4.41,4.41,0,0,1,6,28.77V29Zm-.58-2.06q-.21.07-.21.18c0,.07.06.13.17.17a3.51,3.51,0,0,0,.62.12v-.55A2.12,2.12,0,0,0,4.89,26.94Zm1.74,1.4c.15-.05.23-.11.23-.19S6.8,28,6.67,28A3,3,0,0,0,6,27.85v.58A2.49,2.49,0,0,0,6.63,28.34Z"/><path class="cls-5" d="M11.31,27.26c0,1.31-2.53,2.38-5.66,2.38S0,28.57,0,27.26V25.32H11.31v1.94Z"/><ellipse class="cls-6" cx="5.65" cy="25.32" rx="5.65" ry="2.38"/><path class="cls-7" d="M5.65,23.4c-2.72,0-4.93.86-4.93,1.92s2.21,1.91,4.93,1.91,4.94-.86,4.94-1.91S8.38,23.4,5.65,23.4Zm0,3.62c-2.42,0-4.38-.77-4.38-1.7s2-1.71,4.38-1.71S10,24.38,10,25.32,8.08,27,5.65,27Z"/><path class="cls-7" d="M5.47,26.64V26.4a7.29,7.29,0,0,1-2-.34l.6-.28a5.77,5.77,0,0,0,1.42.28v-.62a6.53,6.53,0,0,1-1.36-.23c-.29-.09-.43-.23-.43-.41s.17-.34.5-.46a4.4,4.4,0,0,1,1.29-.19V24H6v.17a6.79,6.79,0,0,1,1.71.24l-.53.29A6.19,6.19,0,0,0,6,24.5v.6H6a6.5,6.5,0,0,1,1.39.24c.3.09.45.24.45.42s-.17.34-.51.46A4.74,4.74,0,0,1,6,26.41v.23Zm-.58-2.06q-.21.08-.21.18c0,.07.06.13.17.17a3.51,3.51,0,0,0,.62.12v-.56A2.07,2.07,0,0,0,4.89,24.58ZM6.63,26c.15-.05.23-.11.23-.19s-.06-.13-.19-.17A3,3,0,0,0,6,25.49v.58A2.49,2.49,0,0,0,6.63,26Z"/><path class="cls-5" d="M11.31,24.9c0,1.31-2.53,2.38-5.66,2.38S0,26.21,0,24.9V23H11.31V24.9Z"/><ellipse class="cls-6" cx="5.65" cy="22.95" rx="5.65" ry="2.38"/><path class="cls-7" d="M5.65,21C2.93,21,.72,21.9.72,23s2.21,1.92,4.93,1.92S10.59,24,10.59,23,8.38,21,5.65,21Zm0,3.61c-2.42,0-4.38-.76-4.38-1.7s2-1.7,4.38-1.7S10,22,10,23,8.08,24.65,5.65,24.65Z"/><path class="cls-7" d="M5.47,24.28V24a6.93,6.93,0,0,1-2-.35l.6-.27a5.32,5.32,0,0,0,1.42.27v-.61a7.28,7.28,0,0,1-1.36-.23c-.29-.09-.43-.23-.43-.42s.17-.33.5-.45a4.4,4.4,0,0,1,1.29-.19v-.16H6v.16A7.84,7.84,0,0,1,7.71,22l-.53.3A6.19,6.19,0,0,0,6,22.14v.6H6A7.4,7.4,0,0,1,7.41,23c.3.1.45.24.45.43s-.17.34-.51.45a4.7,4.7,0,0,1-1.35.2v.23Zm-.58-2.06q-.21.06-.21.18c0,.07.06.12.17.16a2.28,2.28,0,0,0,.62.12v-.55A2.07,2.07,0,0,0,4.89,22.22Zm1.74,1.4c.15-.05.23-.12.23-.19s-.06-.13-.19-.18A4,4,0,0,0,6,23.13v.57A3.14,3.14,0,0,0,6.63,23.62Z"/><path class="cls-5" d="M11.31,22.54c0,1.31-2.53,2.37-5.66,2.37S0,23.85,0,22.54V20.59H11.31v1.95Z"/><ellipse class="cls-6" cx="5.65" cy="20.59" rx="5.65" ry="2.38"/><path class="cls-5" d="M5.65,18.68c-2.72,0-4.93.85-4.93,1.91S2.93,22.5,5.65,22.5s4.94-.85,4.94-1.91S8.38,18.68,5.65,18.68Zm0,3.61c-2.42,0-4.38-.76-4.38-1.7s2-1.7,4.38-1.7,4.39.76,4.39,1.7S8.08,22.29,5.65,22.29Z"/><path class="cls-5" d="M23.23,29.62c0,1.32-2.53,2.38-5.65,2.38s-5.66-1.06-5.66-2.38V27.68H23.23v1.94Z"/><ellipse class="cls-6" cx="17.58" cy="27.68" rx="5.65" ry="2.38"/><path class="cls-7" d="M17.58,25.76c-2.73,0-4.94.86-4.94,1.92s2.21,1.91,4.94,1.91,4.93-.86,4.93-1.91S20.31,25.76,17.58,25.76Zm0,3.62c-2.42,0-4.39-.76-4.39-1.7s2-1.7,4.39-1.7,4.39.76,4.39,1.7S20,29.38,17.58,29.38Z"/><path class="cls-7" d="M17.4,29v-.23a7.21,7.21,0,0,1-2-.35l.6-.28a5.26,5.26,0,0,0,1.42.28V27.8A6.53,6.53,0,0,1,16,27.57c-.29-.09-.43-.23-.43-.41s.16-.34.49-.45a4.21,4.21,0,0,1,1.3-.19v-.16h.53v.16a7.84,7.84,0,0,1,1.71.24l-.54.29a5.31,5.31,0,0,0-1.17-.18v.6h0a6.25,6.25,0,0,1,1.39.23c.3.1.44.24.44.42s-.17.34-.51.46a4.39,4.39,0,0,1-1.34.19V29Zm-.58-2.06q-.21.07-.21.18c0,.07.05.13.16.17a3.48,3.48,0,0,0,.63.12v-.55A2.06,2.06,0,0,0,16.82,26.94Zm1.73,1.4c.15-.05.23-.11.23-.19S18.72,28,18.6,28a3.1,3.1,0,0,0-.67-.13v.58A2.34,2.34,0,0,0,18.55,28.34Z"/><path class="cls-5" d="M23.23,27.26c0,1.31-2.53,2.38-5.65,2.38s-5.66-1.07-5.66-2.38V25.32H23.23v1.94Z"/><ellipse class="cls-6" cx="17.58" cy="25.32" rx="5.65" ry="2.38"/><path class="cls-5" d="M17.58,23.4c-2.73,0-4.94.86-4.94,1.92s2.21,1.91,4.94,1.91,4.93-.86,4.93-1.91S20.31,23.4,17.58,23.4Zm0,3.62c-2.42,0-4.39-.77-4.39-1.7s2-1.71,4.39-1.71S22,24.38,22,25.32,20,27,17.58,27Z"/><path class="cls-8" d="M18.65,16.13a.16.16,0,0,0-.09,0h-.63a1.51,1.51,0,0,0-.24-.53h.86a.1.1,0,0,0,.09,0,.11.11,0,0,0,0-.08v-.38a.14.14,0,0,0,0-.09.12.12,0,0,0-.09,0H15.47a.12.12,0,0,0-.09,0,.14.14,0,0,0,0,.09v.49a.16.16,0,0,0,0,.09.14.14,0,0,0,.09,0H16c.53,0,.86.14,1,.42H15.47a.12.12,0,0,0-.09,0,.14.14,0,0,0,0,.09v.38a.11.11,0,0,0,0,.08.1.1,0,0,0,.09,0h1.58a.72.72,0,0,1-.38.46,1.63,1.63,0,0,1-.79.16h-.41a.14.14,0,0,0-.09,0,.16.16,0,0,0,0,.09v.47a.11.11,0,0,0,0,.08c.48.51,1.09,1.21,1.85,2.12a.1.1,0,0,0,.09,0H18a.11.11,0,0,0,.11-.06.1.1,0,0,0,0-.13c-.73-.88-1.29-1.55-1.71-2a1.85,1.85,0,0,0,1-.41,1.4,1.4,0,0,0,.48-.86h.62a.12.12,0,0,0,.09,0,.11.11,0,0,0,0-.08v-.38A.14.14,0,0,0,18.65,16.13Z"/></g></g></svg>