<svg xmlns="http://www.w3.org/2000/svg" viewBox="0 0 31.02 30.98"><defs><style>.cls-1{fill:#ee888e;}.cls-2{fill:#f49496;}.cls-3{fill:#bcd874;}.cls-4{fill:#f1f1f1;}.cls-5{fill:#b5cd6a;}.cls-6{fill:#fff;}</style></defs><g id="Layer_2" data-name="Layer 2"><g id="Layer_1-2" data-name="Layer 1"><path class="cls-1" d="M13.34,4.28h4.27v3.2H13.34Z"/><circle class="cls-2" cx="15.48" cy="17.64" r="11.22"/><circle class="cls-3" cx="15.48" cy="17.64" r="9.09"/><path class="cls-1" d="M6.78,7.43,5.27,8.94a1.07,1.07,0,0,0,0,1.52l.9.9a11.34,11.34,0,0,1,3-3l-.9-.9a1.09,1.09,0,0,0-1.52,0Z"/><path class="cls-2" d="M14.41,2.14h2.13V4.28H14.41Z"/><path class="cls-1" d="M18.68,2.14V1.07A1.07,1.07,0,0,0,17.61,0H13.34a1.07,1.07,0,0,0-1.07,1.07V2.14Z"/><path class="cls-4" d="M15.48,9.09h0a.53.53,0,0,1,.53.53v.53a.54.54,0,0,1-.53.54h0a.54.54,0,0,1-.54-.54V9.62A.53.53,0,0,1,15.48,9.09Z"/><path class="cls-4" d="M6.92,17.64h0a.54.54,0,0,1,.54-.54H8a.54.54,0,0,1,.54.54h0a.54.54,0,0,1-.54.53H7.46A.54.54,0,0,1,6.92,17.64Z"/><path class="cls-4" d="M15.48,26.19h0a.54.54,0,0,1-.54-.54v-.53a.54.54,0,0,1,.54-.54h0a.54.54,0,0,1,.53.54v.53A.54.54,0,0,1,15.48,26.19Z"/><path class="cls-4" d="M24,17.64h0a.54.54,0,0,1-.54.53H23a.54.54,0,0,1-.54-.53h0A.54.54,0,0,1,23,17.1h.53A.54.54,0,0,1,24,17.64Z"/><path class="cls-2" d="M15.48,11.76a.53.53,0,0,1,.53.53V17.1H14.94V12.29A.54.54,0,0,1,15.48,11.76Z"/><circle class="cls-2" cx="15.48" cy="17.64" r="1.07"/><path class="cls-5" d="M27.22,3.89A5.35,5.35,0,1,0,31,9,5.31,5.31,0,0,0,27.22,3.89Z"/><path class="cls-1" d="M6.87,20.54a5.33,5.33,0,1,0,3.57,6.64,5.67,5.67,0,0,0,.23-1.53A5.35,5.35,0,0,0,6.87,20.54Z"/><path class="cls-6" d="M27.39,11.17a.27.27,0,0,1-.26-.21l-.36-1.51V8.3a.27.27,0,1,1,.53,0h0v1l.35,1.49a.27.27,0,0,1-.2.32Z"/><path class="cls-6" d="M25.65,9.65a.26.26,0,0,1-.26-.26V8.3A.26.26,0,0,1,25.65,8a.27.27,0,0,1,.27.27V9.39a.27.27,0,0,1-.27.26Z"/><path class="cls-6" d="M27.74,8.13H24a.27.27,0,1,1,0-.53h3.73a.27.27,0,1,1,0,.53Z"/><path class="cls-6" d="M27.7,9.12H24.47l-1-3a.25.25,0,0,0-.33-.17.27.27,0,0,0-.18.33h0l.91,2.86H23.6a.27.27,0,0,0,0,.53h.33l-.27,1.19a.26.26,0,0,0,.51.13h0l.3-1.31H27.7a.27.27,0,1,0,0-.53Z"/><path class="cls-6" d="M25.65,11.81a4.34,4.34,0,0,1-2.6-.86.27.27,0,0,1-.05-.38.26.26,0,0,1,.37-.05,3.83,3.83,0,0,0,4.57,0,.26.26,0,1,1,.32.42h0A4.39,4.39,0,0,1,25.65,11.81Z"/><path class="cls-6" d="M7.19,24a.18.18,0,0,0-.1,0H6.37a1.5,1.5,0,0,0-.27-.6h1a.14.14,0,0,0,.14-.14v-.43a.18.18,0,0,0,0-.1.17.17,0,0,0-.1,0H3.57a.14.14,0,0,0-.09,0,.13.13,0,0,0,0,.1v.56a.13.13,0,0,0,0,.1.18.18,0,0,0,.09,0h.62c.59,0,1,.16,1.13.47H3.57a.15.15,0,0,0-.09,0,.13.13,0,0,0,0,.1v.43a.13.13,0,0,0,0,.1.14.14,0,0,0,.09,0H5.38a.85.85,0,0,1-.44.53,1.87,1.87,0,0,1-.89.18H3.57a.18.18,0,0,0-.09,0,.13.13,0,0,0,0,.1v.53a.13.13,0,0,0,0,.1q.81.86,2.1,2.4a.1.1,0,0,0,.1.05H6.5a.14.14,0,0,0,.13-.07.12.12,0,0,0,0-.15c-.82-1-1.47-1.76-1.93-2.26a2.13,2.13,0,0,0,1.16-.46,1.53,1.53,0,0,0,.54-1h.71a.17.17,0,0,0,.1,0,.18.18,0,0,0,0-.1v-.43A.18.18,0,0,0,7.19,24Z"/></g></g></svg>