<?xml version="1.0" encoding="utf-8"?>
<!-- Generator: Adobe Illustrator 25.2.3, SVG Export Plug-In . SVG Version: 6.00 Build 0)  -->
<svg version="1.1" xmlns="http://www.w3.org/2000/svg" xmlns:xlink="http://www.w3.org/1999/xlink" x="0px" y="0px"
	 viewBox="0 0 199.7 199.7" style="enable-background:new 0 0 199.7 199.7;" xml:space="preserve">
<style type="text/css">
	.st0{fill:#FFFFFF;stroke:#DBDBDA;stroke-miterlimit:10;}
	.st1{fill:#324446;}
	.st2{fill:#4E6566;}
	.st3{opacity:0.5;fill:#0B2025;enable-background:new    ;}
	.st4{opacity:0.7;fill:#18AEC8;enable-background:new    ;}
	.st5{fill:#0B2025;fill-opacity:0;}
	.st6{opacity:0.4;fill:#0B2025;enable-background:new    ;}
	.st7{fill:#FCC90D;}
	.st8{fill:#DB8616;}
	.st9{fill:url(#SVGID_1_);}
	.st10{fill:url(#SVGID_2_);}
	.st11{fill:#FFCD2E;}
	.st12{fill:#D8810E;}
	.st13{fill:#AA160B;}
	.st14{fill:#CCCACB;}
	.st15{fill:#B5C0C9;}
	.st16{opacity:0.4;fill:#90A3AF;enable-background:new    ;}
	.st17{fill:#F8FFFF;stroke:#AFAFAF;stroke-miterlimit:10;}
	.st18{opacity:0.5;fill:#B3C0C6;enable-background:new    ;}
	.st19{opacity:0.4;fill:#5AC7D3;enable-background:new    ;}
	.st20{fill:#FFFFFF;stroke:#9B9B9B;stroke-miterlimit:10;}
	.st21{fill:#90A3AF;}
	.st22{fill:#D11F11;}
	.st23{opacity:0.5;fill:#B71D0D;enable-background:new    ;}
	.st24{enable-background:new    ;}
	.st25{fill:#E08B0E;}
	.st26{fill:#FFD140;}
	.st27{fill:#E58E0E;}
	.st28{fill:#BF2105;}
	.st29{fill:#B71D0D;}
	.st30{fill:#D31C04;}
	.st31{fill:#FF3912;}
	.st32{fill:#FABB12;}
	.st33{fill:#FCCC0C;}
	.st34{opacity:0.6;fill:#5CC8D3;enable-background:new    ;}
</style>
<g id="Layer_2">
	<circle class="st0" cx="101.2" cy="97" r="88.3"/>
</g>
<g id="education">
	<g>
		<g>
			<g>
				<path class="st1" d="M131.2,97.8c0.1,2.2-16.5,13.9-33.1,14.1c-16.9,0.1-34-11.3-34-14.1v10.2c0,2.7,11.3,12.5,34,12.5
					c21.6,0,33.2-10.3,33.1-12.5V97.8z"/>
				<g>
					<path class="st1" d="M131.2,97.9L131.2,97.9L131.2,97.9C131.2,97.9,131.2,97.9,131.2,97.9z"/>
					<path class="st2" d="M131.1,97.5c-0.6-6.7-15.4-12-33.5-12c-18.2,0-33,5.4-33.6,12c0,0.1,0,0.3,0,0.4c0,6.8,14.8,13.9,33.1,14
						c0.1,0,0.3,0,0.4,0c0,0,0,0,0.1,0c0.1,0,0.3,0,0.4,0c0.1,0,0.2,0,0.3,0c18.2-0.1,32.8-7.2,32.9-14v0
						C131.2,97.7,131.2,97.6,131.1,97.5z"/>
				</g>
				<path class="st1" d="M129.4,69.4L97.6,86.8L65.8,69.4l0.1,27.9c0,2.6,9.9,12.1,32.2,12.1c24,0,31.4-10,31.3-12.1L129.4,69.4z"/>
				<path class="st3" d="M65.8,91.3c0-3.5,5.4-3.7,12.7-0.4c12.3,5.5,26.4,18.5,36.5,16.4c9.5-2.7,13.5-7.4,14.2-9.4
					c0.1-0.4,0.1-0.8,0.1-1.1l0-12.8c-0.5,0-13-0.4-25.3-0.8l-6.4,3.5l-7.3-4c-6.4-0.2-11-0.4-10.9-0.5c0.3-0.3-12.8-2.4-12.8-2.4
					l-0.8,0.4L65.8,91.3z"/>
				<polygon class="st4" points="129.4,93.8 129.4,83.5 119.2,87.9 119.7,106.2 128.8,98.4 				"/>
				<path class="st5" d="M80.8,101c4.9,1.7,10.6,2.8,16.8,2.8c19.5,0,31.8-7.3,31.8-12.8l0.1-19.4l-31.8-3.2l-31.8,2.3l0.1,16.8
					c0,4.6,5,9.5,12.9,12.8L80.8,101z"/>
				<polygon class="st1" points="132.2,69.1 97.6,53.5 63.2,69.1 46.8,72.3 46.8,75.7 46.8,75.7 97.6,98.2 148.8,75.7 148.8,75.7 
					148.8,72.3 				"/>
				<polygon class="st2" points="97.6,49.2 46.8,72.3 97.6,94.8 148.8,72.3 				"/>
				<path class="st6" d="M98.3,69.3c0,0-23.1,6.9-26.6,13c-0.4,0.6-0.6,1.8-0.8,3l2,1.2c0,0,0-2.7,0.4-3.3c3.5-6.1,27-13.2,27-13.2
					L98.3,69.3z"/>
				<path class="st3" d="M102.3,69.7c0,1.2-2,2.2-4.5,2.2s-4.5-1-4.5-2.2s2-2.2,4.5-2.2C100.2,67.5,102.3,68.5,102.3,69.7z"/>
				<g>
					<g>
						<path class="st7" d="M70.4,94c-0.1-1.9-0.4-10,0.9-12.3c3.2-5.7,24.1-12.2,26.2-12.8l0.8,0.6c-3.9,1.2-22.8,7.1-26,12.8
							c-1.3,2.2-0.9,9.9-0.8,11.6L70.4,94z"/>
					</g>
					<path class="st8" d="M94.5,70.7l1.3-0.4c0,0-0.6-0.6-0.7-0.7c-0.1-0.1-0.6,0.2-0.6,0.2l-0.3,0.1C94.5,69.8,94.8,70.6,94.5,70.7
						z"/>
				</g>
				<g>
					<path class="st1" d="M101.9,68.6c0,1.1-1.9,2-4.2,2s-4.2-0.9-4.2-2s1.9-2,4.2-2S101.9,67.5,101.9,68.6z"/>
				</g>
				<g>
					
						<linearGradient id="SVGID_1_" gradientUnits="userSpaceOnUse" x1="69.9204" y1="95.9235" x2="71.6746" y2="95.9235" gradientTransform="matrix(1 0 0 -1 0 195.7447)">
						<stop  offset="0" style="stop-color:#FFF200"/>
						<stop  offset="1" style="stop-color:#F7941E"/>
					</linearGradient>
					<rect x="69.9" y="97" class="st9" width="1.8" height="5.7"/>
				</g>
				<g>
					
						<linearGradient id="SVGID_2_" gradientUnits="userSpaceOnUse" x1="748.2759" y1="-242.5558" x2="777.6857" y2="-245.836" gradientTransform="matrix(0.8894 0 0 -0.8894 -609.7296 -108.6604)">
						<stop  offset="0" style="stop-color:#FFF200"/>
						<stop  offset="0.4571" style="stop-color:#FBC010"/>
						<stop  offset="0.8064" style="stop-color:#F8A01A"/>
						<stop  offset="1" style="stop-color:#F7941E"/>
					</linearGradient>
					<path class="st10" d="M76.8,116.8c0-0.8-0.7-6.6-1.8-11.8c-0.9-4-1.9-7.8-4.3-7.8c-5.6,0-6.3,18-6.2,19.6
						c0.1,0.9,0.5,1.8,1.8,2.6c0.4,0.2,1.1,0.4,1.3,0.5c0.8,0.2,1.8,0.3,3,0.3c0.6,0,1.1,0,1.6-0.1c0.6-0.1,0.9-0.1,1.3-0.2
						C76.1,119.3,76.8,117.8,76.8,116.8z"/>
					<path class="st11" d="M71.2,97.3c-0.2,0-0.3-0.1-0.5-0.1c-0.3,0.2-0.6,0.4-1.1,0.7c-3.7,2.5-4.7,15.3-4.7,20.1
						c0.3,0.5,0.8,1,1.5,1.4c0.4,0.2,1.1,0.4,1.3,0.5c0.4,0.1,0.7,0.2,1.2,0.2c0.1-8.1,1.1-20.7,1.7-22C70.5,98,70.9,97.6,71.2,97.3
						z"/>
					<path class="st12" d="M75.7,118.9c0.9-0.7,1.1-1.4,1.1-2.1c0-1.3-0.5-19.6-6.2-19.6c-0.8,0-1.4,0.3-2.1,0.9
						c-0.3,0.5,2.5,0.6,3.3,1.9c2,3,3.8,8.8,3.8,18.7C75.7,118.8,75.7,118.9,75.7,118.9z"/>
				</g>
			</g>
			<g>
				<path class="st13" d="M122.8,114.3c3.9,5.3,4.7,11.4,1.7,13.7c-3,2.2-8.6-0.3-12.6-5.5c-3.9-5.3-4.7-11.4-1.7-13.7
					C113.2,106.5,118.9,109,122.8,114.3z"/>
				<g>
					<path class="st14" d="M138.7,85.1L138.7,85.1c2.7-2.2,7.8-0.5,11.5,3.8c3.5,4.1,4.5,9,2.4,11.5l-52.3,47.6l-14-15.4L138.7,85.1
						z"/>
					<path class="st15" d="M88.6,144.5c-1.6-1.9-3.2-3.8-3.7-5.8c-0.2-0.8,1.6-1.7,1.2-2.3c-0.6-1.1-0.5-3,0.5-3.9
						c2.7-2.3,7.8-0.6,11.6,3.8c3.7,4.3,4.6,9.7,1.9,12C97.4,150.5,92.3,148.8,88.6,144.5z"/>
					<g>
						<path class="st16" d="M123.7,103.5L123.7,103.5c1.8-1.5,5.3-0.3,7.8,2.6c2.3,2.7,3,6.1,1.6,7.8l0.1,0.1L97.8,146
							c0,0,1.8-3.3-1.7-7.5c-3.2-3.8-6.6-2.7-6.6-2.7L123.7,103.5z"/>
						<path class="st16" d="M95.4,137.9c-0.5-0.6-3.7,3-4.1,2.4c-1.7-2.3-2.4-3.3-0.9-4.5c1.8-1.5,3.3-0.3,5.8,2.6
							c2.5,2.9,3.4,6,1.6,7.6c-0.8,0.7,0.7-0.6,0.7-2.1C98.4,142.1,96.8,139.6,95.4,137.9z"/>
					</g>
					<path class="st17" d="M98.2,136.2c-3.7-4.3-8.9-6.1-11.6-3.8c-0.1,0.1-0.2,0.2-0.3,0.3l-0.1-0.1l52.4-47.6l0,0
						c2.7-2.2,7.8-0.5,11.5,3.8c3.5,4.1,4.5,9,2.4,11.5l-52,47.9l-0.4-0.3C102.7,145.8,101.9,140.5,98.2,136.2z"/>
					<path class="st18" d="M129.1,116.3c0-0.1,3,1.6,3,1.6l21.6-20.5c0.2-3.8-2-6.8-3.5-8.5c-0.3-0.3-0.6-0.6-0.8-0.9L128,107.1
						c0.1-0.5,0.2-0.7,0.3-1.2c-0.7,0.1-1.1,0.1-1.8,0.2c0-0.5,0-0.7-0.1-1.2c-0.7,0.2-1,0.3-1.7,0.4c-0.2-0.4-0.2-0.6-0.4-1
						c-0.6,0.3-0.9,0.4-1.6,0.6c-0.3-0.4-0.4-0.5-0.7-0.9c-0.6,0.3-0.8,0.5-1.4,0.8c-0.4-0.3-0.6-0.4-0.9-0.7
						c-0.4,0.4-0.7,0.6-1.1,0.9c-0.4-0.2-0.7-0.3-1.1-0.5c-0.4,0.4-0.5,0.6-0.9,1c-0.5-0.1-0.7-0.2-1.2-0.3
						c-0.2,0.4-0.4,0.6-0.6,1.1c-0.5,0-0.8,0-1.3-0.1c-0.1,0.4-0.2,0.6-0.3,1.1c-0.5,0.1-0.8,0.1-1.3,0.1c0,0.4,0,0.6-0.1,1
						c-0.5,0.1-0.8,0.2-1.3,0.3c0.1,0.4,0.1,0.6,0.2,1c-0.5,0.2-0.8,0.3-1.3,0.5c0.2,0.4,0.3,0.5,0.5,0.9c-0.5,0.3-0.7,0.4-1.2,0.7
						c0.3,0.3,0.4,0.4,0.7,0.7c-0.4,0.4-0.6,0.5-1.1,0.9c0.4,0.2,0.6,0.4,1,0.6c-0.4,0.4-0.5,0.6-0.9,1c0.4,0.2,0.7,0.2,1.2,0.4
						c-0.3,0.4-0.4,0.7-0.7,1.1c0.5,0.1,0.8,0.1,1.4,0.1c-0.2,0.5-0.3,0.8-0.4,1.2c0.6,0,0.9-0.1,1.5-0.1c-0.1,0.5-0.1,0.8-0.2,1.3
						c0.6-0.1,0.9-0.2,1.6-0.3c0,0.5,0.1,0.8,0.1,1.3c0.3-0.1,0.5-0.2,0.8-0.3l-16.5,14.8l2.3,2l2.3,8.5l26-23.6c0.2,0-0.8-3-0.5-3
						c0-0.2,0-0.4,0-0.6l1.6-1.5C129,116.3,129.1,116.3,129.1,116.3z"/>
					<path class="st19" d="M152.6,100.5c0.7-0.8,1-1.9,1.1-3.1h0l-20.8,19.8L125,124l-22.4,20.4l-2.2,3.9l0.2,0.2L152.6,100.5z"/>
					<g>
						<path class="st20" d="M98.9,149.8c1.6-0.5,2.7-1.7,3.3-3.2c1.1-2.8,0.2-6.4-2.3-9.8c-4.7-6.3-9.4-6.9-12.2-5.5
							c-1,0.5-1.7,1.3-2,2.3c-0.7,2.5,1.1,5.7,2.1,7.4l0.1,0.3c1.3,2.2,6.3,6.6,9.2,5.4c0.9-0.4,1.5-1,1.8-1.8
							c0.6-1.8-0.5-3.9-1.1-5.1l-0.1-0.2c-0.8-1.6-4.9-5.7-7.3-4.5c-0.7,0.4-1.2,0.9-1.3,1.7c-0.3,1.5,0.8,3.3,1.6,4.1
							c0.3,0.3,0.6,0.3,0.9,0c0.3-0.3,0.3-0.6,0-0.9c-0.6-0.6-1.5-2.1-1.3-3c0.1-0.3,0.3-0.6,0.6-0.8c1.2-0.6,4.8,2.5,5.5,4l0.1,0.2
							c0.5,0.9,1.5,2.8,1,4.1c-0.2,0.4-0.5,0.8-1.1,1c-1.8,0.7-6.3-2.7-7.6-4.9l-0.1-0.3c-0.9-1.5-2.6-4.4-2-6.4
							c0.2-0.7,0.6-1.2,1.4-1.5c2.3-1.2,6.4-0.5,10.6,5.1c2.3,3,3.1,6.3,2.2,8.6c-0.5,1.4-1.7,2.4-3.2,2.7c-3.3,0.7-9.8-3-12.3-10.3
							c-0.1-0.3-0.5-0.5-0.8-0.4c-0.3,0.1-0.5,0.5-0.4,0.8c2.8,8,9.9,11.9,13.8,11.1C98.4,149.9,98.6,149.9,98.9,149.8z"/>
					</g>
					<path class="st21" d="M122.7,113.8c-2.9-3.4-6.6-5.4-9.6-5.5l-3,2.7c0.1,0,0.3-0.1,0.4-0.2c2.3-1.8,7.8,0.6,10.9,4.2
						c3.5,4.1,4.7,8.9,2.5,11.9l2.7-2.5C127.1,121.5,125.7,117.4,122.7,113.8z"/>
				</g>
				<path class="st13" d="M123.2,113.3c-4.2-5-10.1-6.9-13.2-4.4l-0.5,0.5l-0.4,0.9l0.1,0.4c0.8-0.7,0.9,0.3,1.8-0.3
					c2.3-1.8,7.8,0.6,10.9,4.2c3.6,4.2,4.8,9.2,2.3,12.2c-0.2,0.3,0.4,0.8,0.2,1.1c0,0,0.2,0,0.2,0c0.5-0.4,1.3-1.3,1.3-1.3
					C128.3,123.7,127.2,118,123.2,113.3z"/>
				<g>
					<path class="st22" d="M128.9,108.2c-4.2-5-10.1-6.9-13.2-4.4l0,0l-5.6,5c3.1-2.3,8.9-0.4,13.1,4.5c4,4.7,5.1,10.4,2.7,13.2
						l5.7-5.1C134,118.6,132.9,112.9,128.9,108.2z"/>
					<path class="st23" d="M128.9,108.2C128.9,108.2,128.8,108.1,128.9,108.2c-1.3-0.1-2.7,0-2.8,0.1c-0.1,0.2-2.9,2.3-4.3,3.6
						c0.5,0.4,0.9,0.9,1.4,1.4c2.4,2.8,3.8,6,4,8.7l5.7-5.3C132.6,114.1,131.3,111,128.9,108.2z"/>
				</g>
				<g>
					<g>
						<g class="st24">
							<g>
								<polygon class="st25" points="136,109.5 135.8,110.7 122.3,111.3 121.8,110.1 								"/>
							</g>
							<g>
								<polygon class="st26" points="133,105.4 136,109.5 121.8,110.1 125.7,105.6 								"/>
							</g>
						</g>
						<g class="st24">
							<g>
								<polygon class="st25" points="122.5,117.5 122.9,118.7 115.6,114.6 115.2,113.4 								"/>
							</g>
							<g>
								<polygon class="st25" points="131,115.3 131.4,116.5 122.9,118.7 122.5,117.5 								"/>
							</g>
							<g>
								<polygon class="st26" points="121.7,110.2 131,115.3 122.5,117.5 115.2,113.4 								"/>
							</g>
						</g>
						<polygon class="st27" points="124,116 124.4,115 125.9,114.8 126,113.9 127.6,113.5 127.5,113.4 121.7,110.2 115.2,113.4 
							121.5,116.9 121.9,117 122.6,116 						"/>
					</g>
					<g>
						<g>
							<polygon class="st28" points="124.4,100.3 125.2,102.7 125.4,103.6 124.6,101.2 							"/>
						</g>
						<g>
							<polygon class="st29" points="109.3,107.1 110.1,109.5 109.5,108.7 108.7,106.3 							"/>
						</g>
						<g>
							<polygon class="st29" points="126.1,100.8 127,103.2 126.9,104.2 126.1,101.8 							"/>
						</g>
						<g>
							<polygon class="st29" points="108.7,108.4 109.5,110.8 108.7,110.2 107.9,107.8 							"/>
						</g>
						<g>
							<polygon class="st29" points="127.6,101.6 128.4,104 128,105 127.2,102.6 							"/>
						</g>
						<g>
							<polygon class="st29" points="108.6,109.7 109.4,112.1 108.3,111.7 107.5,109.3 							"/>
						</g>
						<g>
							<polygon class="st29" points="128.6,102.6 129.4,105 128.7,106 127.9,103.7 							"/>
						</g>
						<g>
							<polygon class="st29" points="108.9,110.9 109.7,113.3 108.4,113.1 107.6,110.7 							"/>
						</g>
						<g>
							<polygon class="st29" points="129.2,103.9 130,106.3 129,107.2 128.2,104.9 							"/>
						</g>
						<g>
							<polygon class="st29" points="109.6,112 110.4,114.3 109,114.3 108.2,111.9 							"/>
						</g>
						<g>
							<polygon class="st29" points="129.3,105.3 130.1,107.7 128.9,108.5 128.1,106.2 							"/>
						</g>
						<g>
							<polygon class="st29" points="110.7,112.8 111.5,115.2 110,115.4 109.2,113 							"/>
						</g>
						<g>
							<polygon class="st29" points="128.9,106.8 129.7,109.2 128.3,109.9 127.5,107.5 							"/>
						</g>
						<g>
							<polygon class="st29" points="112.2,113.4 113,115.8 111.4,116.1 110.6,113.8 							"/>
						</g>
						<g>
							<polygon class="st30" points="128.1,108.3 128.9,110.7 127.4,111.2 126.6,108.9 							"/>
						</g>
						<g>
							<polygon class="st30" points="113.9,113.7 114.7,116.1 113.2,116.7 112.4,114.3 							"/>
						</g>
						<g>
							<polygon class="st29" points="126.6,108.9 127.4,111.2 127.6,112.1 126.8,109.8 							"/>
						</g>
						<g>
							<polygon class="st30" points="126.8,109.8 127.6,112.1 126.1,112.5 125.3,110.1 							"/>
						</g>
						<g>
							<polygon class="st30" points="115.8,113.8 116.6,116.1 115.2,116.9 114.4,114.5 							"/>
						</g>
						<g>
							<polygon class="st29" points="114.4,114.5 115.2,116.9 114.7,116.1 113.9,113.7 							"/>
						</g>
						<g>
							<polygon class="st29" points="125.2,111.1 126,113.5 124.5,113.7 123.7,111.3 							"/>
						</g>
						<g>
							<polygon class="st30" points="125.3,110.1 126.1,112.5 126,113.5 125.2,111.1 							"/>
						</g>
						<g>
							<polygon class="st30" points="117.8,113.5 118.6,115.9 117.4,116.8 116.6,114.4 							"/>
						</g>
						<g>
							<polygon class="st29" points="116.6,114.4 117.4,116.8 116.6,116.1 115.8,113.8 							"/>
						</g>
						<g>
							<polygon class="st29" points="123.3,112.3 124.1,114.7 122.7,114.6 121.8,112.3 							"/>
						</g>
						<g>
							<polygon class="st30" points="123.7,111.3 124.5,113.7 124.1,114.7 123.3,112.3 							"/>
						</g>
						<g>
							<polygon class="st30" points="119.8,113 120.7,115.4 119.7,116.3 118.9,114 							"/>
						</g>
						<g>
							<polygon class="st29" points="118.9,114 119.7,116.3 118.6,115.9 117.8,113.5 							"/>
						</g>
						<g>
							<polygon class="st29" points="121.1,113.3 122,115.6 120.7,115.4 119.8,113 							"/>
						</g>
						<g>
							<path class="st31" d="M126.6,108.8l0.2,0.9l-1.5,0.4l-0.1,1l-1.5,0.2l-0.4,1l-1.4,0l-0.7,1l-1.3-0.3l-1,0.9l-1.1-0.4
								l-1.2,0.9l-0.8-0.6l-1.4,0.7l-0.5-0.8l-1.5,0.6l-0.2-0.9l-1.5,0.4l0.1-1l-1.5,0.2l0.4-1l-1.4,0l0.7-1l-1.3-0.3l1-0.9
								l-1.1-0.4l1.2-0.9l-0.8-0.6l1.4-0.7l-0.5-0.8l1.5-0.6l-0.2-0.9l1.5-0.4l0.1-1l1.5-0.2l0.4-1l1.4,0l0.7-1l1.3,0.3l1-0.9
								l1.1,0.4l1.2-0.9l0.8,0.6l1.4-0.7l0.5,0.8l1.5-0.6l0.2,0.9l1.5-0.4l-0.1,1l1.5-0.2l-0.4,1l1.4,0l-0.7,1l1.3,0.3l-1,0.9
								l1.1,0.4l-1.2,0.9l0.8,0.6l-1.4,0.7l0.5,0.8L126.6,108.8z"/>
						</g>
						<g>
							<polygon class="st30" points="121.8,112.3 122.7,114.6 122,115.6 121.1,113.3 							"/>
						</g>
					</g>
				</g>
			</g>
		</g>
		<g>
			<path class="st32" d="M74.1,96.1c-0.1,1.8-1.7,3.2-3.5,3.1c-1.8-0.1-3.2-1.7-3.1-3.5c0.1-1.8,1.7-3.2,3.5-3.1
				C72.8,92.7,74.2,94.2,74.1,96.1z"/>
		</g>
		<path class="st12" d="M72,92.6c0.6,0.6,0.9,1.4,0.9,2.3c0,1.8-1.5,3.3-3.3,3.3c-0.4,0-0.8-0.1-1.2-0.2c0.1,0.1,0.2,0.2,0.3,0.3
			c0.6,0.4,1.3,1.3,2,1.3c1.9,0,1.2-0.8,1.7-1.1c0.9-0.6,1.6-1.6,1.6-2.8C74,94.2,73.2,93.1,72,92.6z"/>
		<g>
			<g>
				<path class="st30" d="M122.7,101.7c3.9,0.7,5,3.8,2.4,6.7c-2.6,3-7.8,4.8-11.7,4.1c-3.9-0.7-5-3.8-2.4-6.7
					C113.6,102.8,118.8,101,122.7,101.7z"/>
			</g>
			<path class="st33" d="M122.1,102.4c-3.4-0.6-7.9,0.9-10.1,3.5c-2.2,2.6-1.3,5.2,2.1,5.9c3.4,0.6,7.9-0.9,10.1-3.5
				C126.4,105.7,125.4,103.1,122.1,102.4z"/>
		</g>
		<polygon class="st34" points="97.7,98 97.7,94.7 148.5,72.3 148.5,75.6 		"/>
	</g>
</g>
</svg>
