<?xml version="1.0" encoding="utf-8"?>
<!-- Generator: Adobe Illustrator 25.2.3, SVG Export Plug-In . SVG Version: 6.00 Build 0)  -->
<svg version="1.1" id="Layer_1" xmlns="http://www.w3.org/2000/svg" xmlns:xlink="http://www.w3.org/1999/xlink" x="0px" y="0px"
	 viewBox="0 0 129 47" style="enable-background:new 0 0 129 47;" xml:space="preserve">
<style type="text/css">
	.st0{fill:#F2F2F2;}
	.st1{fill:#FDE584;}
	.st2{fill:#953333;}
	.st3{fill:#F79D1D;}
	.st4{fill:url(#SVGID_1_);}
	.st5{fill:#013D50;}
	.st6{fill:#C6CDDF;}
	.st7{fill:#B0B0AF;}
	.st8{fill:#E9EAF1;}
	.st9{fill:#DA494A;}
	.st10{fill:#FFFFFF;}
	.st11{fill:#78CEDE;}
	.st12{fill:none;stroke:#C6CDDF;stroke-width:0.5381;stroke-miterlimit:10;}
	.st13{fill:#D2D8D8;}
	.st14{fill:#BC2B2A;}
	.st15{fill:none;stroke:#DA494A;stroke-width:0.5381;stroke-miterlimit:10;}
	.st16{fill:url(#SVGID_2_);}
	.st17{fill:url(#SVGID_3_);}
	.st18{fill:url(#SVGID_4_);}
	.st19{fill:url(#SVGID_5_);}
	.st20{fill:url(#SVGID_6_);}
	.st21{fill:url(#SVGID_7_);}
	.st22{fill:url(#SVGID_8_);}
	.st23{fill:url(#SVGID_9_);}
	.st24{opacity:0.3;fill:url(#SVGID_10_);}
	.st25{fill:url(#SVGID_11_);}
	.st26{fill:url(#SVGID_12_);}
	.st27{opacity:0.3;fill:url(#SVGID_13_);}
	.st28{fill:url(#SVGID_14_);}
	.st29{fill:url(#SVGID_15_);}
	.st30{fill:url(#SVGID_16_);}
	.st31{fill:url(#SVGID_17_);}
	.st32{fill:url(#SVGID_18_);}
	.st33{fill:url(#SVGID_19_);}
	.st34{fill:url(#SVGID_20_);}
	.st35{fill:url(#SVGID_21_);}
	.st36{fill:url(#SVGID_22_);}
	.st37{fill:url(#SVGID_23_);}
	.st38{fill:url(#SVGID_24_);}
	.st39{fill:url(#SVGID_25_);}
	.st40{fill:url(#SVGID_26_);}
	.st41{fill:url(#SVGID_27_);}
	.st42{opacity:0.3;fill:url(#SVGID_28_);}
	.st43{opacity:0.3;fill:url(#SVGID_29_);}
	.st44{fill:url(#SVGID_30_);}
	.st45{opacity:0.3;}
	.st46{fill:url(#SVGID_31_);}
	.st47{fill:url(#SVGID_32_);}
	.st48{fill:url(#SVGID_33_);}
	.st49{fill:url(#SVGID_34_);}
	.st50{fill:url(#SVGID_35_);}
	.st51{fill:url(#SVGID_36_);}
	.st52{fill:url(#SVGID_37_);}
	.st53{fill:url(#SVGID_38_);}
	.st54{fill:url(#SVGID_39_);}
	.st55{fill:url(#SVGID_40_);}
	.st56{fill:url(#SVGID_41_);}
	.st57{fill:url(#SVGID_42_);}
	.st58{opacity:0.3;fill:url(#SVGID_43_);}
	.st59{fill:url(#SVGID_44_);}
	.st60{fill:url(#SVGID_45_);}
	.st61{fill:url(#SVGID_46_);}
	.st62{fill:url(#SVGID_47_);}
	.st63{fill:url(#SVGID_48_);}
	.st64{fill:url(#SVGID_49_);}
	.st65{fill:url(#SVGID_50_);}
	.st66{fill:url(#SVGID_51_);}
</style>
<g>
	<g>
		<path class="st0" d="M12,43.3H2c0,0,12.5-5.4,13.7-9.4s13-18.1,22.1-17c9.1,1.2,41.6,5.3,49-0.1c4.6-3.4,8.8-7.8,13.9-10.5
			c4.8-2.5,10-0.4,14.1,2.6c0.5,0.4,0.9,0.7,1.4,1.1c2.7,2.6,4.4,6.1,5.1,9.8c0.7,3.7,0.6,7.5,0.4,11.2c-0.2,3.2,0.5,5.3,2.3,7.9
			c1.1,1.5,2.2,3.1,3.4,4.5L12,43.3z"/>
		<path class="st1" d="M14,43.3h109.5c0.6-2.3,0.5-5-1.1-6.8c-1.5-1.8-4-2.7-6.3-2.5c1-8.3-3.2-10.9-9.8-16
			c-6.6-5.1-15.4-6.9-23.7-6c-9.6,1.1-18.8,5.8-25.3,12.9c-2.5-2.6-6.3-4.1-9.9-3.8c-3.6,0.3-7.1,2.3-9.2,5.3
			c-4-1.2-8.6-2.1-12.1,0.2c-2.4,1.6-3.8,4.4-4.5,7.2c-0.7,2.8-1-0.2-1.8,2.6c-0.1,0.5-0.3,1-0.7,1.2c-0.3,0.2-0.8,0.2-1.2,0.2
			c-1.6,0-3.2,0.4-4.3,1.5C12.4,40.6,12.8,42.2,14,43.3z"/>
	</g>
	<g>
		<g>
			<path class="st2" d="M106.4,32l-0.2-0.1c0.1-0.5,0.2-1,0.4-1.6c0.1,0,0.2,0.1,0.2,0.1c0,0,0,0-0.1,0c-0.4-0.2-1.2-0.4-1.2-0.4
				c-0.4,1.9-0.5,3.6-1,5.2c-0.3,1-1.1,1.8-1.7,2.8c-0.1,0-0.1-0.1-0.2-0.1c0.1-2.6,0.2-5.2,0.4-7.8h0.1c-0.7,0-1.3,0.2-1.3,0.2v3
				c-1-0.3-2.8-1.5-3.5-2.6c0.4-0.1,0.8-0.1,1.2-0.2l-0.1,0c-1.9,0.1-2.9,0.4-3.5,0.7c0.1,0,0.2-0.1,0.4-0.1
				c1.8,1.2,3.5,2.4,5.4,3.7c-0.2,2.9-0.4,5.8-0.6,8.6h1.9c0-0.1,0-0.3,0-0.4c0-1.1,0-2.3,0-3.4c0.3-0.2,0.4-0.3,0.6-0.4
				c1-0.6,1.7-1.5,2-2.6c0.1-0.7,0.4-1.3,0.5-2c0.1-0.6,0.3-0.9,0.8-1.3c0.9-0.7,1.7-1.5,2.7-2.4c0.1,0,0.3,0,0.5,0
				c-0.7-0.1-2-0.2-2-0.2C107.3,31.1,106.8,31.6,106.4,32z"/>
			<path class="st3" d="M114.2,24c-0.2-0.1-0.3-0.3-0.5-0.4c0.6-1.1,0.5-2.2-0.2-3.3c-0.7-1.1-1.9-1.3-3.2-1.2c0-0.3,0-0.6,0-0.9
				c-0.1-1.4,0-2.9-0.2-4.3c-0.4-3.6-3.1-6.4-6.7-7c-4-0.6-7.1,3.2-6.9,5.9c0,0.4,0,0.7,0,1.1c-3.1-1-4.9,0.6-6.4,2.9
				c-1.7,2.6-1.9,5.2,0.3,7.5c-0.1,0.9-0.3,1.6-0.2,2.2c0.1,1.2,0.6,2.3,1.7,3c1.2,0.8,2.3,1.9,3.8,1.6c0.6-0.3,1.6-0.6,3.5-0.7
				l0.1,0c0.8-0.1,1.5-0.2,2.3-0.3c0,0,0.6-0.2,1.3-0.2h2.5c0,0,0.8,0.2,1.2,0.4c0,0,0.1,0,0.1,0c0.3,0.1,0.6,0.2,1,0.3
				c0,0,1.3,0.1,2,0.2c0.4,0,0.9,0,1.4,0c1.3-0.1,2.4-0.7,3.1-1.8c0.4-0.7,0.6-1.4,0.9-2.2C115.5,25.7,115.1,24.7,114.2,24z"/>
			<linearGradient id="SVGID_1_" gradientUnits="userSpaceOnUse" x1="90.7778" y1="-3.3142" x2="102.061" y2="24.0761">
				<stop  offset="0.23" style="stop-color:#FFFFFF;stop-opacity:0.8"/>
				<stop  offset="0.3253" style="stop-color:#FBFBFB;stop-opacity:0.7009"/>
				<stop  offset="0.4218" style="stop-color:#EFEFEF;stop-opacity:0.6007"/>
				<stop  offset="0.5189" style="stop-color:#DADADA;stop-opacity:0.4998"/>
				<stop  offset="0.6165" style="stop-color:#BEBEBE;stop-opacity:0.3985"/>
				<stop  offset="0.7144" style="stop-color:#999999;stop-opacity:0.2968"/>
				<stop  offset="0.8126" style="stop-color:#6C6C6C;stop-opacity:0.1947"/>
				<stop  offset="0.9091" style="stop-color:#383838;stop-opacity:9.441984e-02"/>
				<stop  offset="1" style="stop-color:#000000;stop-opacity:0"/>
			</linearGradient>
			<path class="st4" d="M114.2,24c-0.2-0.1-0.3-0.3-0.5-0.4c0.6-1.1,0.5-2.2-0.2-3.3c-0.7-1.1-1.9-1.3-3.2-1.2c0-0.3,0-0.6,0-0.9
				c-0.1-1.4,0-2.9-0.2-4.3c-0.4-3.6-3.1-6.4-6.7-7c-4-0.6-7.1,3.2-6.9,5.9c0,0.4,0,0.7,0,1.1c-3.1-1-4.9,0.6-6.4,2.9
				c-1.7,2.6-1.9,5.2,0.3,7.5c-0.1,0.9-0.3,1.6-0.2,2.2c0.1,1.2,0.6,2.3,1.7,3c1.2,0.8,2.3,1.9,3.8,1.6c0.6-0.3,1.6-0.6,3.5-0.7
				l0.1,0c0.8-0.1,1.5-0.2,2.3-0.3c0,0,0.6-0.2,1.3-0.2h2.5c0,0,0.8,0.2,1.2,0.4c0,0,0.1,0,0.1,0c0.3,0.1,0.6,0.2,1,0.3
				c0,0,1.3,0.1,2,0.2c0.4,0,0.9,0,1.4,0c1.3-0.1,2.4-0.7,3.1-1.8c0.4-0.7,0.6-1.4,0.9-2.2C115.5,25.7,115.1,24.7,114.2,24z"/>
		</g>
	</g>
	<g>
		<rect x="49.3" y="42.1" class="st5" width="55.4" height="1.2"/>
		<path class="st6" d="M51.8,42.2c-0.1-0.2,0-18.5,0-18.5l9.4-16.5L71,23.9v18.3L51.8,42.2z"/>
		<g>
			<polygon class="st7" points="68.4,18.5 54.6,18.5 55.4,16.6 67.3,16.6 			"/>
			<g>
				<rect x="61.7" y="7.3" class="st7" width="1" height="10.1"/>
				<rect x="59.7" y="7.3" class="st7" width="1" height="10.1"/>
				<rect x="63.8" y="7.3" class="st7" width="1" height="10.1"/>
			</g>
		</g>
		<g>
			<polygon class="st8" points="68.1,18.1 55.8,18.1 56.6,16.2 67,16.2 			"/>
			<g>
				<rect x="61.4" y="6.9" class="st8" width="1" height="10.1"/>
				<rect x="59.4" y="6.9" class="st8" width="1" height="10.1"/>
				<rect x="63.5" y="6.9" class="st8" width="1" height="10.1"/>
			</g>
		</g>
		<rect x="71" y="24.1" class="st8" width="31.2" height="18.1"/>
		<path class="st9" d="M71.1,24.1L60,5.1c0,0,35.3,0.2,35.4,0c0.2-0.2,10.5,19,10.5,19L71.1,24.1z"/>
		<rect x="77.3" y="35.8" class="st7" width="19.2" height="1.2"/>
		<rect x="77.3" y="33.5" class="st9" width="19.2" height="3.1"/>
		<rect x="77.3" y="33.8" class="st10" width="19.2" height="0.6"/>
		<g>
			<rect x="77" y="37.5" class="st11" width="8.2" height="2.5"/>
			<g>
				<rect x="84.3" y="37.5" class="st7" width="0.9" height="2.5"/>
			</g>
		</g>
		<g>
			<rect x="88.7" y="37.5" class="st11" width="8.2" height="2.5"/>
			<g>
				<rect x="96.1" y="37.5" class="st7" width="0.9" height="2.5"/>
			</g>
		</g>
		<rect x="56" y="33.4" class="st11" width="10.3" height="8.8"/>
		<g>
			<rect x="56" y="33.4" class="st7" width="1.6" height="8.8"/>
		</g>
		<g>
			<rect x="60.7" y="33.4" class="st7" width="0.8" height="8.8"/>
		</g>
		<rect x="55.7" y="22.2" class="st11" width="3.4" height="9"/>
		<g>
			<polygon class="st7" points="59.1,23.2 59.1,22.2 55.7,22.2 55.7,31.2 56.7,31.2 56.7,23.2 			"/>
		</g>
		<rect x="62.5" y="22.2" class="st11" width="3.4" height="9"/>
		<g>
			<polygon class="st7" points="65.9,23.2 65.9,22.2 62.5,22.2 62.5,31.2 63.5,31.2 63.5,23.2 			"/>
		</g>
		<g>
			
				<rect x="89.8" y="27.2" transform="matrix(-1 -1.224647e-16 1.224647e-16 -1 183.0322 60.6644)" class="st11" width="3.4" height="6.3"/>
			<g>
				<polygon class="st7" points="89.8,28.2 89.8,27.2 93.2,27.2 93.2,33.5 92.2,33.5 92.2,28.2 				"/>
			</g>
		</g>
		<g>
			
				<rect x="79.8" y="27.2" transform="matrix(-1 -1.224647e-16 1.224647e-16 -1 163.0511 60.6644)" class="st11" width="3.4" height="6.3"/>
			<g>
				<polygon class="st7" points="79.8,28.2 79.8,27.2 83.2,27.2 83.2,33.5 82.2,33.5 82.2,28.2 				"/>
			</g>
		</g>
		<line class="st12" x1="61.5" y1="33.2" x2="61.5" y2="42.2"/>
		<line class="st12" x1="60.7" y1="33.2" x2="60.7" y2="42.2"/>
		<g>
			<path class="st13" d="M61.2,7.2l-9.4,16.5c0,0,0,5.3,0,8.6l12.6-19.5L61.2,7.2z"/>
		</g>
		<polygon class="st14" points="60,5.1 48.1,25 51.8,25 61.9,8.5 		"/>
		<g>
			<rect x="71" y="24.1" class="st13" width="31.2" height="1.6"/>
		</g>
		<g>
			<path class="st13" d="M95.4,5.1c-0.2,0.2-35.4,0-35.4,0l0.9,1.6h35.4C95.8,5.7,95.4,5.1,95.4,5.1z"/>
		</g>
		<g>
			<path class="st13" d="M105,22.6c-0.2,0.2-34.8,0-34.8,0l0.9,1.5l34.8,0.1C105.3,23.1,105,22.5,105,22.6z"/>
		</g>
		<rect x="55" y="30.4" class="st8" width="4.8" height="1.2"/>
		<rect x="61.7" y="30.4" class="st8" width="4.8" height="1.2"/>
		<g>
			<polygon class="st8" points="70.7,10.2 75.8,19.4 83.2,19.4 78,10.1 			"/>
			<g>
				<polygon class="st7" points="78,10.1 70.7,10.2 71.5,11.7 77,11.6 81.5,19.4 83.2,19.4 				"/>
			</g>
			<g>
				<line class="st15" x1="79.8" y1="19.7" x2="74.3" y2="9.8"/>
				<line class="st15" x1="72.8" y1="14.6" x2="80.8" y2="14.5"/>
			</g>
		</g>
		<g>
			<polygon class="st8" points="83.8,10.2 88.9,19.4 96.4,19.4 91.2,10.1 			"/>
			<g>
				<polygon class="st7" points="91.2,10.1 83.8,10.2 84.7,11.7 90.1,11.6 94.7,19.4 96.4,19.4 				"/>
			</g>
			<g>
				<line class="st15" x1="93" y1="19.7" x2="87.4" y2="9.8"/>
				<line class="st15" x1="85.9" y1="14.6" x2="93.9" y2="14.5"/>
			</g>
		</g>
		<linearGradient id="SVGID_2_" gradientUnits="userSpaceOnUse" x1="99.3636" y1="-7.1678" x2="83.6642" y2="13.6062">
			<stop  offset="0.23" style="stop-color:#FFFFFF;stop-opacity:0.8"/>
			<stop  offset="0.3253" style="stop-color:#FBFBFB;stop-opacity:0.7009"/>
			<stop  offset="0.4218" style="stop-color:#EFEFEF;stop-opacity:0.6007"/>
			<stop  offset="0.5189" style="stop-color:#DADADA;stop-opacity:0.4998"/>
			<stop  offset="0.6165" style="stop-color:#BEBEBE;stop-opacity:0.3985"/>
			<stop  offset="0.7144" style="stop-color:#999999;stop-opacity:0.2968"/>
			<stop  offset="0.8126" style="stop-color:#6C6C6C;stop-opacity:0.1947"/>
			<stop  offset="0.9091" style="stop-color:#383838;stop-opacity:9.441984e-02"/>
			<stop  offset="1" style="stop-color:#000000;stop-opacity:0"/>
		</linearGradient>
		<path class="st16" d="M71.1,24.1L60,5.1c0,0,35.3,0.2,35.4,0c0.2-0.2,10.5,19,10.5,19L71.1,24.1z"/>
	</g>
	<path class="st10" d="M47.8,27.9H23c-0.2-0.5-0.1-1.1,0.4-1.4c0.5-0.3,1-0.4,1.6-0.3c0.2,0,0.4,0.1,0.6,0c0.3,0,0.5-0.2,0.8-0.4
		c2.7-1.7,6.2-2.1,9.2-1.1c1.2,0.4,2.4,1.1,3.7,1.3c1.5,0.3,2.9,0,4.4,0C45.2,26.1,46.9,26.7,47.8,27.9z"/>
	<g>
		<g>
			<path class="st3" d="M45.6,39.2c1.3-0.9,1.4-0.8,3,0.7c1.3-1.1,2.5-0.8,3.4,1.3c0.1,0,0.1,0,0.2,0c0.6-0.2,1.2-0.2,1.6,0.4
				c0.4,0.6,0.5,1.3,0.1,1.9c-0.2,0.2-0.6,0.5-0.9,0.5c-3.8,0.3-7.6,0.4-11.4,0.2c-0.7,0-1.5,0-2.1-0.1c-0.7-0.1-1.3-0.4-1.9-0.8
				c-0.9-0.6-0.8-1.4,0-2c0.1-0.1,0.2-0.3,0.2-0.5c-0.4-1.6,0.4-3.1,2-3.7c2-0.8,4-0.2,5.5,1.6C45.3,38.9,45.5,39,45.6,39.2z"/>
			<linearGradient id="SVGID_3_" gradientUnits="userSpaceOnUse" x1="36.0817" y1="33.6112" x2="47.4197" y2="44.1328">
				<stop  offset="0.23" style="stop-color:#FFFFFF;stop-opacity:0.8"/>
				<stop  offset="0.3253" style="stop-color:#FBFBFB;stop-opacity:0.7009"/>
				<stop  offset="0.4218" style="stop-color:#EFEFEF;stop-opacity:0.6007"/>
				<stop  offset="0.5189" style="stop-color:#DADADA;stop-opacity:0.4998"/>
				<stop  offset="0.6165" style="stop-color:#BEBEBE;stop-opacity:0.3985"/>
				<stop  offset="0.7144" style="stop-color:#999999;stop-opacity:0.2968"/>
				<stop  offset="0.8126" style="stop-color:#6C6C6C;stop-opacity:0.1947"/>
				<stop  offset="0.9091" style="stop-color:#383838;stop-opacity:9.441984e-02"/>
				<stop  offset="1" style="stop-color:#000000;stop-opacity:0"/>
			</linearGradient>
			<path class="st17" d="M45.6,39.2c1.3-0.9,1.4-0.8,3,0.7c1.3-1.1,2.5-0.8,3.4,1.3c0.1,0,0.1,0,0.2,0c0.6-0.2,1.2-0.2,1.6,0.4
				c0.4,0.6,0.5,1.3,0.1,1.9c-0.2,0.2-0.6,0.5-0.9,0.5c-3.8,0.3-7.6,0.4-11.4,0.2c-0.7,0-1.5,0-2.1-0.1c-0.7-0.1-1.3-0.4-1.9-0.8
				c-0.9-0.6-0.8-1.4,0-2c0.1-0.1,0.2-0.3,0.2-0.5c-0.4-1.6,0.4-3.1,2-3.7c2-0.8,4-0.2,5.5,1.6C45.3,38.9,45.5,39,45.6,39.2z"/>
		</g>
	</g>
</g>
<g>
	<g>
		
			<linearGradient id="SVGID_4_" gradientUnits="userSpaceOnUse" x1="-9238.3838" y1="22.8842" x2="-9246.0449" y2="27.8969" gradientTransform="matrix(-1 0 0 1 -9218.1738 0)">
			<stop  offset="0" style="stop-color:#FFC446"/>
			<stop  offset="0.9964" style="stop-color:#F26E56"/>
		</linearGradient>
		<path class="st18" d="M24.4,22.1c0,0,2.4,0.9,1.9,3.1c-0.5,2.2-0.6,3.5-0.6,3.8c0,0.2-0.9,0.3-0.9,0.3L24.4,22.1z"/>
		
			<linearGradient id="SVGID_5_" gradientUnits="userSpaceOnUse" x1="-8836.2637" y1="544.2753" x2="-8834.2363" y2="551.5923" gradientTransform="matrix(-0.9968 7.990000e-02 7.990000e-02 0.9968 -8825.6895 202.5983)">
			<stop  offset="0" style="stop-color:#311844"/>
			<stop  offset="1" style="stop-color:#893A77"/>
		</linearGradient>
		<path class="st19" d="M24.1,43.4c0,0-0.1,0.4-0.1,0.5c0,0.1,1.6,0.2,1.6,0.1s-0.3-0.3-0.5-0.3c-0.2-0.1-0.8-0.2-0.8-0.2L24.1,43.4
			z"/>
		
			<linearGradient id="SVGID_6_" gradientUnits="userSpaceOnUse" x1="-8834.459" y1="549.4485" x2="-8834.4297" y2="546.9801" gradientTransform="matrix(-0.9968 7.990000e-02 7.990000e-02 0.9968 -8825.6895 202.5983)">
			<stop  offset="0" style="stop-color:#FFC446"/>
			<stop  offset="0.9964" style="stop-color:#F26E56"/>
		</linearGradient>
		<path class="st20" d="M24.5,43l-0.1,0.5c0,0-0.2,0.1-0.3,0L24,43L24.5,43z"/>
		
			<linearGradient id="SVGID_7_" gradientUnits="userSpaceOnUse" x1="-8833.7256" y1="543.5718" x2="-8831.6982" y2="550.8888" gradientTransform="matrix(-0.9968 7.990000e-02 7.990000e-02 0.9968 -8825.6895 202.5983)">
			<stop  offset="0" style="stop-color:#311844"/>
			<stop  offset="1" style="stop-color:#893A77"/>
		</linearGradient>
		<path class="st21" d="M21.3,44.1c0,0-0.1,0.4-0.1,0.5c0,0.1,1.6,0.2,1.6,0.1c0-0.1-0.3-0.3-0.5-0.3c-0.2-0.1-0.8-0.2-0.8-0.2
			L21.3,44.1z"/>
		
			<linearGradient id="SVGID_8_" gradientUnits="userSpaceOnUse" x1="-8831.6055" y1="549.4824" x2="-8831.5762" y2="547.014" gradientTransform="matrix(-0.9968 7.990000e-02 7.990000e-02 0.9968 -8825.6895 202.5983)">
			<stop  offset="0" style="stop-color:#FFC446"/>
			<stop  offset="0.9964" style="stop-color:#F26E56"/>
		</linearGradient>
		<path class="st22" d="M21.7,43.7l-0.1,0.5c0,0-0.2,0.1-0.3,0l-0.1-0.5L21.7,43.7z"/>
		
			<linearGradient id="SVGID_9_" gradientUnits="userSpaceOnUse" x1="-8835.8828" y1="541.51" x2="-8833.2539" y2="541.51" gradientTransform="matrix(-0.9968 7.990000e-02 7.990000e-02 0.9968 -8825.6895 202.5983)">
			<stop  offset="0" style="stop-color:#444B8C"/>
			<stop  offset="0.9964" style="stop-color:#25264F"/>
		</linearGradient>
		<path class="st23" d="M24.2,30.1c0.2,0.4,0.4,0.7,0.5,1.1c0.1,2.1,0.2,4.4,0.2,6.8c0,1.8-0.1,3.5-0.3,5.2c-0.2,0-0.5,0-0.7,0
			c-0.4-0.7-0.8-1.8-0.8-3.1c0-1.4,0.4-1.6,0.4-2.9c0-1.7-0.8-2.2-1.1-4.2c-0.1-0.8-0.2-1.8-0.1-3.1C22.9,29.9,23.5,30,24.2,30.1z"
			/>
		
			<linearGradient id="SVGID_10_" gradientUnits="userSpaceOnUse" x1="-8835.8828" y1="541.51" x2="-8833.2539" y2="541.51" gradientTransform="matrix(-0.9968 7.990000e-02 7.990000e-02 0.9968 -8825.6895 202.5983)">
			<stop  offset="0" style="stop-color:#444B8C"/>
			<stop  offset="0.9964" style="stop-color:#25264F"/>
		</linearGradient>
		<path class="st24" d="M22.2,29.9c0.4,0,0.7,0.1,1.1,0.1c0.7,1.1,0.8,2.3,0.7,2.9c-0.2,0.7-0.6,1-0.6,1.7c0,0.7,0.5,0.9,0.7,1.8
			c0.2,0.6,0.1,1.2,0,2.2c-0.2,2.2-0.7,2.8-0.3,3.6c0.1,0.2,0.4,0.4,0.8,0.6c0,0.1,0,0.3,0,0.4c-0.2,0-0.5,0-0.7,0
			c-0.4-0.7-0.8-1.8-0.8-3.1c0-1.4,0.4-1.6,0.4-2.9c0-1.7-0.8-2.2-1.1-4.2C22.2,32.1,22.1,31.1,22.2,29.9z"/>
		
			<linearGradient id="SVGID_11_" gradientUnits="userSpaceOnUse" x1="-8834.3984" y1="541.8854" x2="-8830.4092" y2="541.8854" gradientTransform="matrix(-0.9968 7.990000e-02 7.990000e-02 0.9968 -8825.6895 202.5983)">
			<stop  offset="0" style="stop-color:#444B8C"/>
			<stop  offset="0.9964" style="stop-color:#25264F"/>
		</linearGradient>
		<path class="st25" d="M23.2,30.7c-0.3,1.9-0.6,3.9-0.9,6c-0.3,2.6-0.4,5-0.5,7.2c-0.3,0-0.5,0-0.8,0c-1.1-2.1-1.1-3.5-1-4.5
			c0.1-0.4,0.2-1.1,0.3-2.1c0-0.7,0-1.3-0.1-2c-0.1-1.5-0.3-1.8-0.3-2.9c0-1.1,0-1.6,0.3-1.9C21,29.7,23.1,30.7,23.2,30.7z"/>
		
			<linearGradient id="SVGID_12_" gradientUnits="userSpaceOnUse" x1="-8826.3799" y1="542.3582" x2="-8835.2832" y2="529.5756" gradientTransform="matrix(-0.9968 7.990000e-02 7.990000e-02 0.9968 -8825.6895 202.5983)">
			<stop  offset="0" style="stop-color:#FFC446"/>
			<stop  offset="0.9964" style="stop-color:#F26E56"/>
		</linearGradient>
		<path class="st26" d="M25,31.6c0.3-0.4-0.1-0.8-0.1-1.7c-0.1-0.9,0.3-1.1,0.6-2.6c0.2-1,0.5-2,0.2-3.1c-0.1-0.5-0.3-1.5-1.1-1.9
			c-0.4-0.2-0.9-0.2-2-0.2c-1.3,0.1-2,0.1-2.5,0.4c-0.1,0-1.6,0.9-1.7,2.2c-0.1,1.4,1.4,1.5,1.6,3.3c0.1,0.8-0.1,2.1-0.2,2.9
			c-0.1,0.8-0.2,1,0,1.2c0.4,0.6,1.5,0.4,3.8,0.1C24.4,32,24.8,31.9,25,31.6z"/>
		
			<linearGradient id="SVGID_13_" gradientUnits="userSpaceOnUse" x1="-8826.3809" y1="542.3589" x2="-8835.2842" y2="529.576" gradientTransform="matrix(-0.9968 7.990000e-02 7.990000e-02 0.9968 -8825.6895 202.5983)">
			<stop  offset="0" style="stop-color:#FFC446"/>
			<stop  offset="0.9964" style="stop-color:#F26E56"/>
		</linearGradient>
		<path class="st27" d="M21.5,27.7c-0.1,0.4-0.4,0.6-0.7,1.5c-0.1,0.2-0.4,1.5,0.1,1.8c0.3,0.2,0.5-0.2,1.2-0.2
			c1.2-0.1,1.7,0.9,2.5,0.6c0.1,0,0.3-0.1,0.5-0.4c0,0.2,0,0.4-0.1,0.6c-0.2,0.3-0.6,0.4-1.5,0.5c-2.3,0.3-3.4,0.5-3.8-0.1
			c-0.2-0.2-0.1-0.4,0-1.2c0.1-0.8,0.3-2.1,0.2-2.9c-0.2-1.8-1.7-2-1.6-3.3c0-0.4,0.2-0.7,0.3-1C20.6,24.4,21.8,26.6,21.5,27.7z"/>
		
			<linearGradient id="SVGID_14_" gradientUnits="userSpaceOnUse" x1="-8831.8027" y1="535.2683" x2="-8830.3662" y2="535.2683" gradientTransform="matrix(-0.9968 7.990000e-02 7.990000e-02 0.9968 -8825.6895 202.5983)">
			<stop  offset="0" style="stop-color:#FFC446"/>
			<stop  offset="0.9964" style="stop-color:#F26E56"/>
		</linearGradient>
		<path class="st28" d="M19.2,30.3l0.4,0.2c0.1-0.1,0.2-0.2,0.5-0.3c0.3-0.1,0.6,0,0.6,0.1c0,0.1-0.2,0.1-0.2,0.2
			c-0.2,0.1-0.4,0-0.5,0.1c0,0-0.1,0.1-0.2,0.2c0,0-0.1,0-0.1,0c-0.2,0.1-0.4-0.2-0.5-0.2L19.2,30.3z"/>
		
			<linearGradient id="SVGID_15_" gradientUnits="userSpaceOnUse" x1="-8823.8828" y1="540.6189" x2="-8832.7871" y2="527.8361" gradientTransform="matrix(-0.9968 7.990000e-02 7.990000e-02 0.9968 -8825.6895 202.5983)">
			<stop  offset="0" style="stop-color:#FFC446"/>
			<stop  offset="0.9964" style="stop-color:#F26E56"/>
		</linearGradient>
		<path class="st29" d="M20.3,25.4c0.3-0.6,0.5-1.6,0-3.1c-2.8,1.1-4.3,3.7-3.7,5.8c0.5,1.7,2.1,2.6,2.5,2.7
			c0.1-0.2,0.2-0.4,0.3-0.6c-0.4-0.5-0.9-1.2-0.9-2C18.6,27.1,19.7,26.7,20.3,25.4z"/>
		
			<linearGradient id="SVGID_16_" gradientUnits="userSpaceOnUse" x1="-9228.6104" y1="5711.3208" x2="-9228.0283" y2="5702.3242" gradientTransform="matrix(-0.7795 0.6265 0.6265 0.7795 -10760.2803 1339.9041)">
			<stop  offset="0" style="stop-color:#FFC446"/>
			<stop  offset="0.9964" style="stop-color:#F26E56"/>
		</linearGradient>
		<path class="st30" d="M22.5,20.7c0,0,0,0.5-0.2,0.9c-0.1,0.3-0.9,0.5-1,0.6c-0.1,0.1,0.3,0.3,0.7,0.3c0.4,0,1.6-0.1,1.9-0.2
			c0.2-0.2-0.2-0.1-0.5-0.3c-0.3-0.1-0.5-0.7-0.4-1C23,20.8,22.5,20.7,22.5,20.7z"/>
		
			<linearGradient id="SVGID_17_" gradientUnits="userSpaceOnUse" x1="-8833.8828" y1="527.3034" x2="-8834.9482" y2="524.5994" gradientTransform="matrix(-0.9968 7.990000e-02 7.990000e-02 0.9968 -8825.6895 202.5983)">
			<stop  offset="0" style="stop-color:#444B8C"/>
			<stop  offset="0.9964" style="stop-color:#3F4277"/>
		</linearGradient>
		<path class="st31" d="M23.1,20.6c0.2-0.2,0.3-0.2,0.3-0.3c0.1-0.3-0.1-0.7-0.4-0.8c0,0-0.2-0.1-0.3,0c-0.1,0.1,0,0.2,0,0.3
			c0,0.1-0.2,0.1-0.4,0.3c-0.2,0.1-0.3,0.2-0.3,0.4c-0.1,0.3,0.3,0.7,0.6,0.6C22.6,21.1,22.6,21.1,23.1,20.6z"/>
		<g>
			
				<linearGradient id="SVGID_18_" gradientUnits="userSpaceOnUse" x1="-9229.6982" y1="5711.2505" x2="-9229.1152" y2="5702.2539" gradientTransform="matrix(-0.7795 0.6265 0.6265 0.7795 -10760.2803 1339.9041)">
				<stop  offset="0" style="stop-color:#FFC446"/>
				<stop  offset="0.9964" style="stop-color:#F26E56"/>
			</linearGradient>
			<path class="st32" d="M22.5,21.1c0,0,0.2,0.3,0.6,0.2c0.3-0.1,0.2-0.8,0-0.9c-0.1,0-0.2,0-0.3,0c-0.1,0-0.1,0.1-0.2,0.1
				c-0.1,0-0.1,0-0.2,0.1c0,0,0,0.1,0.1,0.3c-0.1-0.1-0.2-0.1-0.2,0c0,0,0,0,0,0C22.2,21,22.3,21.1,22.5,21.1z"/>
		</g>
	</g>
	<g>
		
			<linearGradient id="SVGID_19_" gradientUnits="userSpaceOnUse" x1="7744.3496" y1="26.8073" x2="7745.2778" y2="26.8073" gradientTransform="matrix(1 0 0 1 -7706.3628 0)">
			<stop  offset="0" style="stop-color:#FFC446"/>
			<stop  offset="0.9964" style="stop-color:#F26E56"/>
		</linearGradient>
		<path class="st33" d="M38,27.1c0,0,0.2-0.4,0.3-0.5c0.1-0.1,0.6-0.5,0.6-0.3c0,0.2-0.4,0.4-0.3,0.5c0.1,0.1-0.2,0.5-0.5,0.5
			S38,27.1,38,27.1z"/>
		
			<linearGradient id="SVGID_20_" gradientUnits="userSpaceOnUse" x1="-3666.8916" y1="41.4467" x2="-3666.6116" y2="46.4902" gradientTransform="matrix(-1 0 0 1 -3634.3938 0)">
			<stop  offset="0" style="stop-color:#444B8C"/>
			<stop  offset="0.9964" style="stop-color:#25264F"/>
		</linearGradient>
		<path class="st34" d="M31.8,43.2c0,0,0,0.3,0,0.4c0,0.1,0.8,0.2,1.1,0.1c0.3,0-0.2-0.3-0.3-0.4C32.4,43.3,31.8,43.2,31.8,43.2z"/>
		
			<linearGradient id="SVGID_21_" gradientUnits="userSpaceOnUse" x1="-3666.3625" y1="43.9322" x2="-3666.5115" y2="37.1227" gradientTransform="matrix(-1 0 0 1 -3634.3938 0)">
			<stop  offset="0" style="stop-color:#FFC446"/>
			<stop  offset="0.9964" style="stop-color:#F26E56"/>
		</linearGradient>
		<path class="st35" d="M32.2,42.8l-0.1,0.6c0,0-0.2,0.1-0.3,0l0-0.6L32.2,42.8z"/>
		
			<linearGradient id="SVGID_22_" gradientUnits="userSpaceOnUse" x1="-3661.8203" y1="41.165" x2="-3661.5403" y2="46.2083" gradientTransform="matrix(-1 0 0 1 -3634.3938 0)">
			<stop  offset="0" style="stop-color:#444B8C"/>
			<stop  offset="0.9964" style="stop-color:#25264F"/>
		</linearGradient>
		<path class="st36" d="M27.6,42.7c0,0,0.2,0.1,0.1,0.3c0,0.2-0.4,0.8-0.7,0.9c-0.3,0.2-0.2-0.2-0.1-0.4c0.1-0.2,0.3-0.7,0.4-0.8
			C27.4,42.7,27.6,42.7,27.6,42.7z"/>
		
			<linearGradient id="SVGID_23_" gradientUnits="userSpaceOnUse" x1="-3661.8977" y1="43.8346" x2="-3662.0464" y2="37.0251" gradientTransform="matrix(-1 0 0 1 -3634.3938 0)">
			<stop  offset="0" style="stop-color:#FFC446"/>
			<stop  offset="0.9964" style="stop-color:#F26E56"/>
		</linearGradient>
		<path class="st37" d="M27.9,42.1c-0.1,0.2-0.2,0.4-0.2,0.6c-0.1,0.3-0.2,0.4-0.3,0.5c-0.1,0.1-0.3,0.3-0.3,0.2
			c0,0,0.1-0.3,0.3-0.9c0-0.1,0.2-0.4,0.2-0.4l0,0H27.9z"/>
		
			<linearGradient id="SVGID_24_" gradientUnits="userSpaceOnUse" x1="-3668.5244" y1="39.5063" x2="-3665.6965" y2="35.7108" gradientTransform="matrix(-1 0 0 1 -3634.3938 0)">
			<stop  offset="0" style="stop-color:#311844"/>
			<stop  offset="1" style="stop-color:#6B3976"/>
		</linearGradient>
		<path class="st38" d="M33.9,32.5c0.1,0.6,0.1,1.5,0,2.6c-0.1,1.4-0.4,2.3-0.8,3.9c-0.2,0.9-0.5,2.3-0.8,4c-0.1,0-0.2,0.1-0.5,0.1
			c-0.1,0-0.2-0.1-0.3-0.1c-0.7-2.1-0.5-3.5-0.2-4.3c0.1-0.4,0.3-0.6,0.4-1.2c0.1-0.7,0-1.1-0.2-2.8c-0.2-1.2-0.1-1.4,0-1.5
			C32,32.4,33.3,32.4,33.9,32.5z"/>
		
			<linearGradient id="SVGID_25_" gradientUnits="userSpaceOnUse" x1="-3666.4238" y1="39.9774" x2="-3659.8003" y2="33.8004" gradientTransform="matrix(-1 0 0 1 -3634.3938 0)">
			<stop  offset="0" style="stop-color:#311844"/>
			<stop  offset="1" style="stop-color:#6B3976"/>
		</linearGradient>
		<path class="st39" d="M31.5,32.7c-0.4,2.2-0.9,3.4-1.2,4c-0.1,0.2-0.3,0.7-0.6,1.4c-0.2,0.7-0.3,1.2-0.4,1.4
			c-0.1,0.7-0.5,1.7-1.5,3c0,0-0.2,0.1-0.3,0c-0.1,0-0.1-0.1-0.1-0.1c0.1-1.2,0.3-2.3,0.4-3.1c0-0.2,0.1-0.9,0.3-1.9
			c0.1-0.4,0.2-0.9,0.3-1.5c0.2-0.7,0.4-1.7,0.8-2.9C30,32.9,30.7,32.8,31.5,32.7z"/>
		
			<linearGradient id="SVGID_26_" gradientUnits="userSpaceOnUse" x1="-3671.9932" y1="26.4288" x2="-3664.6792" y2="25.7695" gradientTransform="matrix(-1 0 0 1 -3634.3938 0)">
			<stop  offset="0" style="stop-color:#F48E85"/>
			<stop  offset="1" style="stop-color:#EC72AA"/>
		</linearGradient>
		<path class="st40" d="M38.3,27.3c-0.1-0.1-0.2-0.2-0.3-0.3c0,0-0.7,0.5-1.5,0.2c-0.6-0.2-0.8-0.7-1-1c-0.5-1,0-1.6-0.6-2.3
			c-0.2-0.2-0.5-0.5-0.8-0.4c-0.6,0.1-1.2,1.8-0.8,3.2c0.1,0.3,0.5,1.9,1.9,2.2C36.3,29.2,37.6,28.5,38.3,27.3z"/>
		
			<linearGradient id="SVGID_27_" gradientUnits="userSpaceOnUse" x1="-3657.8193" y1="31.7287" x2="-3664.491" y2="25.9625" gradientTransform="matrix(-1 0 0 1 -3634.3938 0)">
			<stop  offset="0" style="stop-color:#311844"/>
			<stop  offset="1" style="stop-color:#6B3976"/>
		</linearGradient>
		<path class="st41" d="M31.8,23.9c0.3-0.2,0.7-0.5,1-1.1c0.1-0.2,0.3-0.8,0-1.4c-0.2-0.3-0.6-0.5-1-0.4c-0.3,0.1-0.4,0.3-0.9,0.7
			c-0.2,0.2-0.5,0.4-0.9,0.6c-0.6,0.3-1,0-1.7,0c-0.8,0-1.7,0.5-2.1,1.1c-0.8,1.1,0.3,2.3-0.5,3.6c-0.3,0.4-0.4,0.3-1.1,1.2
			c-0.7,0.8-1,1.3-0.9,1.8c0.1,0.7,0.9,1.4,1.6,1.4c0.7,0,1.2-0.5,1.5-0.3c0.3,0.2,0.1,0.5,0.4,0.9c0.4,0.5,1,0.6,1.2,0.6
			c1,0.2,2.4-1.1,3-2.5C32.3,27.7,30.4,25.2,31.8,23.9z"/>
		
			<linearGradient id="SVGID_28_" gradientUnits="userSpaceOnUse" x1="-3668.1638" y1="39.7751" x2="-3665.3357" y2="35.9796" gradientTransform="matrix(-1 0 0 1 -3634.3938 0)">
			<stop  offset="0" style="stop-color:#311844"/>
			<stop  offset="1" style="stop-color:#6B3976"/>
		</linearGradient>
		<path class="st42" d="M31.5,38.6c0.1-0.4,0.3-0.6,0.4-1.2c0.1-0.7,0-1.1-0.2-2.8c-0.2-1.2-0.1-1.4,0-1.5c0.2-0.4,0.7-0.6,1.2-0.6
			c0,0,0,0,0,0.1c-0.3,1.2,0.7,1.9,0.3,3.2c-0.2,0.6-0.6,0.8-0.6,1.5c-0.1,0.7,0.2,0.8,0.1,1.5c-0.1,0.9-0.7,1.2-0.9,1.9
			c-0.1,0.5,0,1.1,0.8,2.1c0,0.1,0,0.2,0,0.3c-0.1,0-0.2,0.1-0.5,0.1c-0.1,0-0.2-0.1-0.3-0.1C30.9,40.8,31.1,39.4,31.5,38.6z"/>
		
			<linearGradient id="SVGID_29_" gradientUnits="userSpaceOnUse" x1="-3282.4407" y1="-259.2675" x2="-3277.1279" y2="-259.2675" gradientTransform="matrix(-0.9905 -0.1373 -0.1373 0.9905 -3248.5474 -166.5551)">
			<stop  offset="0" style="stop-color:#F48E85"/>
			<stop  offset="1" style="stop-color:#EC72AA"/>
		</linearGradient>
		<path class="st43" d="M34,25.1c0.9,1,0.6,2.5,1.2,2.7c0.2,0.1,0.2-0.1,0.7-0.2c0.7-0.1,1,0.1,1.5,0c0.2,0,0.5-0.2,0.8-0.5
			c0,0,0.1,0.1,0.1,0.1c-0.7,1.3-2,1.9-3.1,1.6c-1.4-0.4-1.8-2-1.9-2.2c-0.2-0.7-0.1-1.4,0-2C33.6,24.7,33.8,24.9,34,25.1z"/>
		
			<linearGradient id="SVGID_30_" gradientUnits="userSpaceOnUse" x1="-3671.6782" y1="29.9222" x2="-3664.3643" y2="29.2629" gradientTransform="matrix(-1 0 0 1 -3634.3938 0)">
			<stop  offset="0" style="stop-color:#F48E85"/>
			<stop  offset="1" style="stop-color:#EC72AA"/>
		</linearGradient>
		<path class="st44" d="M34.8,23.8c-0.1-0.1-0.3-0.4-1.1-0.6c-0.3-0.1-0.8-0.2-1.4-0.2c-0.1,0-0.5,0-0.8,0.1
			c-0.8,0.2-2.4,0.8-2.4,1.6c0,0.6,0.7,0.6,1.2,1.7c0.3,0.8,0.3,1.7,0,2.4c-0.3,0.6-0.8,1-1.2,1.4c-0.6,0.5-0.9,0.6-1.1,1
			c-0.2,0.5,0,0.7-0.3,1.1c-0.3,0.4-0.6,0.2-1.1,0.6c-0.5,0.4-0.3,0.7-0.7,1.1c-0.6,0.6-1.5,0.4-1.5,0.7c0,0.2,0.6,0.5,1.1,0.7
			c1,0.3,1.9-0.2,2.1-0.3c0.7-0.4,0.6-0.6,1.2-0.9c0.9-0.5,1.6,0.1,3.7,0.1c1.1,0,1.7,0,2-0.4c0.3-0.4,0.1-0.7,0-2.4c0,0,0,0,0,0
			c-0.1-0.6-0.2-1.7-0.2-2.4c0-0.4,0.1-1,0.4-2.3c0-0.1,0.2-0.8,0.3-1.7C35,24.3,34.9,24,34.8,23.8z"/>
		<g class="st45">
			
				<linearGradient id="SVGID_31_" gradientUnits="userSpaceOnUse" x1="-3663.8928" y1="23.1562" x2="-3662.2903" y2="32.9566" gradientTransform="matrix(-1 0 0 1 -3634.3938 0)">
				<stop  offset="0" style="stop-color:#F48E85"/>
				<stop  offset="1" style="stop-color:#EC72AA"/>
			</linearGradient>
			<path class="st46" d="M25.8,33.9c0.4-0.4,0.3-0.7,0.7-1.1c0.5-0.4,0.8-0.2,1.1-0.6c0.3-0.3,0-0.6,0.3-1.1c0.2-0.5,0.5-0.5,1.1-1
				c0.4-0.3,0.9-0.8,1.2-1.4c0.5-1,0.1-2.1,0-2.4c-0.4-1-1.1-1.6-1.4-1.7c0,0,1.3,1.1,1.3,1.1c1.8,0.2,1.6,0.1,1.7,0.4
				c0.3,0.7-0.2,1-0.2,3c0,1,0.1,1.4-0.2,1.8c-0.4,0.5-0.8,0.3-1.3,0.9c-0.4,0.5-0.3,0.8-0.7,1c-0.4,0.2-0.7,0-1.1,0.1
				c-0.8,0.2-0.9,1-1.4,1.5c-0.4,0.4-1.1,0.6-2.5,0.3c0,0,0-0.1,0-0.1C24.4,34.4,25.2,34.5,25.8,33.9z"/>
		</g>
		
			<linearGradient id="SVGID_32_" gradientUnits="userSpaceOnUse" x1="-3666.6038" y1="23.3876" x2="-3664.8733" y2="20.8759" gradientTransform="matrix(-1 0 0 1 -3634.3938 0)">
			<stop  offset="0" style="stop-color:#FFC446"/>
			<stop  offset="0.9964" style="stop-color:#F26E56"/>
		</linearGradient>
		<path class="st47" d="M32,22c0,0-0.1,0.7-0.4,0.9c-0.3,0.2-0.7,0.4-0.7,0.4c0,0.1,1.7,0.2,2.5-0.2l0,0c-0.3-0.1-0.4-0.1-0.4-0.1
			c-0.1,0-0.2-0.1-0.4-0.1c-0.1-0.1-0.3-0.2-0.4-0.4l0-0.4L32,22z"/>
		
			<linearGradient id="SVGID_33_" gradientUnits="userSpaceOnUse" x1="-2282.7019" y1="-2531.9021" x2="-2279.8901" y2="-2533.595" gradientTransform="matrix(-0.8182 -0.5749 -0.5749 0.8182 -3290.9622 781.6036)">
			<stop  offset="0" style="stop-color:#FFC446"/>
			<stop  offset="0.9964" style="stop-color:#F26E56"/>
		</linearGradient>
		<path class="st48" d="M31.9,22.2c0,0,0,0.3,0.3,0.4c0.3,0.1,0.5-0.5,0.4-0.7c0-0.1-0.1-0.1-0.2-0.1c-0.1,0-0.3,0.1-0.4,0.3
			c0-0.1-0.1-0.1-0.1-0.1c0,0,0,0.1,0,0.1C31.8,22.1,31.9,22.2,31.9,22.2z"/>
		
			<linearGradient id="SVGID_34_" gradientUnits="userSpaceOnUse" x1="-3663.8066" y1="29.7224" x2="-3663.9509" y2="23.8505" gradientTransform="matrix(-1 0 0 1 -3634.3938 0)">
			<stop  offset="0" style="stop-color:#F48E85"/>
			<stop  offset="1" style="stop-color:#EC72AA"/>
		</linearGradient>
		<path class="st49" d="M30.2,23.6c-0.5,0.3-2.2,1.1-2.6,3.4c-0.4,2.3,1.6,3.5,1.6,3.5l0.5-0.3c0,0-0.5-3.6,1.3-4.6
			C32.6,24.5,30.2,23.6,30.2,23.6z"/>
		
			<linearGradient id="SVGID_35_" gradientUnits="userSpaceOnUse" x1="-3664.6238" y1="30.1669" x2="-3663.125" y2="31.264" gradientTransform="matrix(-1 0 0 1 -3634.3938 0)">
			<stop  offset="0" style="stop-color:#FFC446"/>
			<stop  offset="0.9964" style="stop-color:#F26E56"/>
		</linearGradient>
		<path class="st50" d="M29.5,30.2c0.1,0,0.2,0.1,0.4,0c0.2-0.1,0.9,0,0.9,0s-0.3,0.3-0.6,0.2c-0.3-0.1-0.7,0.1-0.7,0.1
			c-0.1,0-0.1-0.2-0.1-0.2L29.5,30.2z"/>
	</g>
	<g>
		
			<linearGradient id="SVGID_36_" gradientUnits="userSpaceOnUse" x1="11598.0244" y1="31.4478" x2="11597.9453" y2="32.8226" gradientTransform="matrix(1 0 0 1 -11573.4697 0)">
			<stop  offset="0" style="stop-color:#FFC446"/>
			<stop  offset="0.9964" style="stop-color:#F26E56"/>
		</linearGradient>
		<path class="st51" d="M24.6,31.9c0,0,0.1-0.1,0.1-0.3c0-0.1-0.3,0.3-0.4,0.3c-0.1,0.1-0.1,0.1-0.1,0.3c0,0.2,0,0.4,0,0.4
			c-0.1,0,0.3,0,0.3,0s0-0.2,0-0.2c0,0,0.2-0.1,0.2-0.3C24.8,32,24.6,31.9,24.6,31.9z"/>
		
			<linearGradient id="SVGID_37_" gradientUnits="userSpaceOnUse" x1="11596.377" y1="31.4826" x2="11596.1777" y2="34.9402" gradientTransform="matrix(1 0 0 1 -11573.4697 0)">
			<stop  offset="3.597120e-03" style="stop-color:#D090BF"/>
			<stop  offset="1" style="stop-color:#8071B3"/>
		</linearGradient>
		<path class="st52" d="M21.5,31.8c0,0,0.9,0.3,1.4,1.5c0.5,1.2,1.3-0.7,1.3-0.7l0.4,0.1c0,0-0.2,2-1.5,2c-1.2,0-1.8-1-2.1-2.4
			L21.5,31.8z"/>
		
			<linearGradient id="SVGID_38_" gradientUnits="userSpaceOnUse" x1="11592.043" y1="38.6589" x2="11589.6025" y2="39.8999" gradientTransform="matrix(1 0 0 1 -11573.4697 0)">
			<stop  offset="0" style="stop-color:#444B8C"/>
			<stop  offset="0.9964" style="stop-color:#25264F"/>
		</linearGradient>
		<path class="st53" d="M18.1,39c0,0-0.1-0.2-0.2-0.1c-0.1,0-0.2,0-0.4,0.1c-0.2,0.1-0.3,0.1-0.3,0.2C17.3,39.3,17.9,39.3,18.1,39z"
			/>
		
			<linearGradient id="SVGID_39_" gradientUnits="userSpaceOnUse" x1="-13771.3193" y1="-11238.292" x2="-13771.2637" y2="-11237.5723" gradientTransform="matrix(-0.3082 -0.9513 -0.9513 0.3082 -14916.7773 -9597.9492)">
			<stop  offset="0" style="stop-color:#FFC446"/>
			<stop  offset="0.9964" style="stop-color:#F26E56"/>
		</linearGradient>
		<path class="st54" d="M18.3,39.1c0,0-0.2-0.1-0.3-0.2c0,0-0.1,0-0.1,0l0,0c0,0-0.1,0.1,0,0.2c0.1,0.1,0.2,0.2,0.3,0.3L18.3,39.1z"
			/>
		
			<linearGradient id="SVGID_40_" gradientUnits="userSpaceOnUse" x1="11592.5703" y1="42.0772" x2="11594.9502" y2="45.1847" gradientTransform="matrix(1 0 0 1 -11573.4697 0)">
			<stop  offset="0" style="stop-color:#444B8C"/>
			<stop  offset="0.9964" style="stop-color:#25264F"/>
		</linearGradient>
		<path class="st55" d="M19.7,43.2C19.7,43.2,19.7,43.2,19.7,43.2c0,0.1,0,0.2,0.1,0.3c0.1,0.1,0.4,0.1,0.7,0.1c0.3,0,0.1-0.2,0-0.2
			c0,0-0.7-0.3-0.7-0.3L19.7,43.2z"/>
		
			<linearGradient id="SVGID_41_" gradientUnits="userSpaceOnUse" x1="-12346.4355" y1="11834.0615" x2="-12346.7217" y2="11835.3867" gradientTransform="matrix(-0.4133 0.9106 0.9106 0.4133 -15860.8096 6394.3525)">
			<stop  offset="0" style="stop-color:#FFC446"/>
			<stop  offset="0.9964" style="stop-color:#F26E56"/>
		</linearGradient>
		<path class="st56" d="M19.9,42.9l-0.1,0.4c0,0-0.1,0-0.1-0.1l-0.1-0.3L19.9,42.9z"/>
		<g>
			
				<linearGradient id="SVGID_42_" gradientUnits="userSpaceOnUse" x1="11594.7559" y1="35.1405" x2="11593.6787" y2="40.7095" gradientTransform="matrix(1 0 0 1 -11573.4697 0)">
				<stop  offset="0" style="stop-color:#311844"/>
				<stop  offset="1" style="stop-color:#6B3976"/>
			</linearGradient>
			<path class="st57" d="M21.2,35.4c0.5,0,0.6,0.5,0.9,0.9c0.5,0.9,1.3,2.8,0.5,3.7c-0.6,0.8-2.4,0.4-2.9,0.2
				c-1.1-0.4-1-0.5-1.8-0.9c0.1-0.1,0.2-0.2,0.3-0.4c0.3,0,0.8,0,1,0c0.3,0,1,0,1.2,0c0.3,0,0.9,0.2,1,0c0.2-0.3-0.4-1.8-0.4-2.3
				C21,36.6,20.8,35.4,21.2,35.4z"/>
			
				<linearGradient id="SVGID_43_" gradientUnits="userSpaceOnUse" x1="-20362.4453" y1="5705.5239" x2="-20359.0234" y2="5708.2319" gradientTransform="matrix(-0.9513 0.3082 0.3082 0.9513 -21105.791 882.4227)">
				<stop  offset="0" style="stop-color:#311844"/>
				<stop  offset="1" style="stop-color:#6B3976"/>
			</linearGradient>
			<path class="st58" d="M22.1,36.3c0.1,0.2,0.2,0.5,0.3,0.7c-0.1,0.1-0.2,0.1-0.3,0.2c-0.2,0.5,0.2,0.9,0.1,1.6
				c0,0.2-0.1,0.7-0.4,0.9c-0.4,0.2-1.1-0.1-1.5,0c-0.2,0-0.5,0.2-0.7,0.2c-0.4,0-0.7-0.3-1.1-0.4c-0.1,0-0.3,0-0.4,0.1
				c-0.1,0-0.1-0.1-0.2-0.2c0.1-0.1,0.2-0.2,0.3-0.4c0.3,0,0.8,0,1,0c0.3,0,1,0,1.2,0c0.3,0,0.9,0.2,1,0c0.2-0.3-0.4-1.8-0.4-2.3
				c0-0.2-0.2-1.3,0.2-1.4C21.7,35.3,21.9,36,22.1,36.3z"/>
		</g>
		<g>
			
				<linearGradient id="SVGID_44_" gradientUnits="userSpaceOnUse" x1="11592.6182" y1="35.4794" x2="11594.8174" y2="42.5868" gradientTransform="matrix(1 0 0 1 -11573.4697 0)">
				<stop  offset="0" style="stop-color:#311844"/>
				<stop  offset="1" style="stop-color:#6B3976"/>
			</linearGradient>
			<path class="st59" d="M21.5,36.6c0,0.8-0.5,1.9-0.4,2.9c0,0.1,0,0.6-0.1,0.7c-0.1,0.4-1,2.8-1,2.9c-0.2,0-0.3-0.1-0.5-0.1
				c-0.2-0.4-0.4-0.9-0.5-1.3c-0.1-0.5,0.1-1.1,0.2-1.5c0.1-0.4,0.1-1.1,0.1-1.2c0.3-1-0.1-1.4,0.1-2.2c0.1-0.4,0.4-0.6,0.7-0.9
				C20.6,36.3,21.1,36.1,21.5,36.6z"/>
		</g>
		
			<linearGradient id="SVGID_45_" gradientUnits="userSpaceOnUse" x1="11593.334" y1="30.3878" x2="11594.3076" y2="38.6145" gradientTransform="matrix(1 0 0 1 -11573.4697 0)">
			<stop  offset="3.597120e-03" style="stop-color:#D090BF"/>
			<stop  offset="1" style="stop-color:#8071B3"/>
		</linearGradient>
		<path class="st60" d="M22.2,36.3c-0.1,0.4-0.6,0.6-1,0.8c-0.3,0.1-1.3,0.5-1.9,0.1c-0.2-0.2-0.3-0.4-0.4-1.3
			c-0.1-0.6-0.2-1.1-0.3-1.4c-0.2-0.9-0.3-1.1-0.1-1.4c0.3-0.7,1-1.1,1.3-1.2c0,0,0,0,0.1,0c0.6-0.2,1.8-0.4,2.2,0.1
			c0.5,0.5-0.3,1.2,0,2.8c0.1,0.5,0.2,0.8,0.3,1.1C22.2,36,22.2,36.1,22.2,36.3z"/>
		
			<linearGradient id="SVGID_46_" gradientUnits="userSpaceOnUse" x1="-23107.7031" y1="1068.7234" x2="-23108.9336" y2="1065.595" gradientTransform="matrix(-0.9842 0.1772 0.1772 0.9842 -22912.1602 3075.9241)">
			<stop  offset="0" style="stop-color:#311844"/>
			<stop  offset="1" style="stop-color:#6B3976"/>
		</linearGradient>
		<path class="st61" d="M21.3,30.4c0-0.1,0.1-0.1,0.2-0.3c0-0.2-0.1-0.4-0.3-0.4c-0.2-0.1-0.2,0-0.6,0c-0.4,0-0.4-0.1-0.7-0.1
			c-0.1,0-0.2,0-0.4,0.1c-0.1,0.1-0.4,0.2-0.4,0.5c0,0.3,0.2,0.5,0.2,0.5c-0.1,0.3-0.1,0.5,0,0.5c0,0,0.1,0.1,0.5,0.1l0,0
			c0,0,0.1,0.1,0.2,0.2c0.1,0.1,0.2,0.1,0.5-0.1c0-0.1,0-0.2,0-0.3c0-0.2,0.1-0.3,0.1-0.3c0.1,0,0.3,0.4,0.5,0.4
			c0.1,0,0.2-0.3,0.2-0.4C21.4,30.7,21.3,30.6,21.3,30.4z"/>
		
			<linearGradient id="SVGID_47_" gradientUnits="userSpaceOnUse" x1="-20591.6016" y1="1863.3181" x2="-20591.8691" y2="1865.5989" gradientTransform="matrix(-0.9939 0.1103 0.1103 0.9939 -20651.5078 449.4214)">
			<stop  offset="0" style="stop-color:#FFC446"/>
			<stop  offset="0.9964" style="stop-color:#F26E56"/>
		</linearGradient>
		<path class="st62" d="M20.8,31.6c0,0.1,0.1,0.3,0.2,0.3c0.1,0,0.3,0,0.4,0c0.1,0-0.4,0.1-1,0.2c-0.4,0.1-0.7,0.1-0.9,0.1
			c-0.1,0-0.1-0.1,0-0.1c0.2-0.1,0.4-0.2,0.7-0.3c0.3-0.1,0.5-0.7,0.5-0.7l0.2,0.2L20.8,31.6z"/>
		
			<linearGradient id="SVGID_48_" gradientUnits="userSpaceOnUse" x1="-9239.1357" y1="28.2253" x2="-9238.4727" y2="35.0194" gradientTransform="matrix(-1 0 0 1 -9218.1738 0)">
			<stop  offset="0" style="stop-color:#FFC446"/>
			<stop  offset="0.9964" style="stop-color:#F26E56"/>
		</linearGradient>
		<path class="st63" d="M20.3,31.4c0,0,0.3,0.3,0.8,0.2c0.4-0.1,0.3-1.1,0-1.2c-0.1-0.1-0.3,0-0.4,0c-0.1,0-0.1,0.1-0.2,0.1
			c-0.1,0.1-0.2,0-0.2,0.1c0,0-0.1,0.2,0.1,0.4c-0.1-0.1-0.2-0.1-0.3,0c0,0,0,0,0,0.1C20,31.2,20.1,31.4,20.3,31.4z"/>
		
			<linearGradient id="SVGID_49_" gradientUnits="userSpaceOnUse" x1="11589.7393" y1="0.9032" x2="11594.0439" y2="37.2796" gradientTransform="matrix(1 0 0 1 -11573.4697 0)">
			<stop  offset="3.597120e-03" style="stop-color:#D090BF"/>
			<stop  offset="1" style="stop-color:#8071B3"/>
		</linearGradient>
		<path class="st64" d="M22.2,36.3c-0.1,0.4-0.6,0.6-1,0.8c-0.3,0.1-1.3,0.5-1.9,0.1c-0.2-0.2-0.3-0.4-0.4-1.3
			c-0.1-0.6-0.2-1.1-0.3-1.4l0.7-1.3c0,0-0.2,1.2,0.3,1.4c0.5,0.2,0.9,0.2,1,0.9c0.1,0.6-0.1,1.6,1.7,0.5
			C22.2,36,22.2,36.1,22.2,36.3z"/>
		
			<linearGradient id="SVGID_50_" gradientUnits="userSpaceOnUse" x1="-1592.5933" y1="-9213.8555" x2="-1596.6702" y2="-9218.124" gradientTransform="matrix(-0.3873 0.9219 -0.9219 -0.3873 -9096.2754 -2061.4302)">
			<stop  offset="0" style="stop-color:#FFC446"/>
			<stop  offset="0.9964" style="stop-color:#F26E56"/>
		</linearGradient>
		<path class="st65" d="M19.6,36.8c0,0.1,0.1,0.2,0.2,0.2c0.2,0.2,0.6,0.1,0.6,0c0-0.1-0.2-0.3-0.3-0.3c-0.2-0.1-0.4-0.2-0.5-0.2
			L19.6,36.8z"/>
		
			<linearGradient id="SVGID_51_" gradientUnits="userSpaceOnUse" x1="11591.3057" y1="30.628" x2="11592.2793" y2="38.8545" gradientTransform="matrix(1 0 0 1 -11573.4697 0)">
			<stop  offset="3.597120e-03" style="stop-color:#D090BF"/>
			<stop  offset="1" style="stop-color:#8071B3"/>
		</linearGradient>
		<path class="st66" d="M18.8,32.4c0,0-3,3-1.3,3.9c1.7,0.9,2.1,0.7,2.1,0.7l0.1-0.4c0,0-2-0.9-1.4-1.5
			C18.9,34.6,20.6,33.6,18.8,32.4z"/>
	</g>
</g>
</svg>
