<?xml version="1.0" encoding="utf-8"?>
<!-- Generator: Adobe Illustrator 25.2.3, SVG Export Plug-In . SVG Version: 6.00 Build 0)  -->
<svg version="1.1" id="Layer_1" xmlns="http://www.w3.org/2000/svg" xmlns:xlink="http://www.w3.org/1999/xlink" x="0px" y="0px"
	 viewBox="0 0 20 20" style="enable-background:new 0 0 20 20;" xml:space="preserve">
<style type="text/css">
	.st0{fill:#FFFFFF;}
</style>
<g id="icons_7_">
	<g id="statistics_7_">
		<path class="st0" d="M4.3,10H2.6C1.7,10,1,10.7,1,11.6v4.9c0,0.9,0.7,1.6,1.6,1.6h1.6c0.9,0,1.6-0.7,1.6-1.6v-4.9
			C5.9,10.7,5.2,10,4.3,10z"/>
		<path class="st0" d="M10.8,1.8H9.2c-0.9,0-1.6,0.7-1.6,1.6v13.1c0,0.9,0.7,1.6,1.6,1.6h1.6c0.9,0,1.6-0.7,1.6-1.6V3.5
			C12.5,2.6,11.7,1.8,10.8,1.8z"/>
		<path class="st0" d="M17.4,6.7h-1.6c-0.9,0-1.6,0.7-1.6,1.6v8.2c0,0.9,0.7,1.6,1.6,1.6h1.6c0.9,0,1.6-0.7,1.6-1.6V8.4
			C19,7.5,18.3,6.7,17.4,6.7z"/>
	</g>
</g>
</svg>
