<svg xmlns="http://www.w3.org/2000/svg" viewBox="0 0 23.12 32"><defs><style>.cls-1{fill:#bcd874;}.cls-2{fill:#b5cd6a;}.cls-3{fill:#f49496;}.cls-4{fill:#ee888e;}</style></defs><g id="Layer_2" data-name="Layer 2"><g id="Layer_1-2" data-name="Layer 1"><path class="cls-1" d="M21.83,32H1.29A1.29,1.29,0,0,1,0,30.71V1.29A1.29,1.29,0,0,1,1.29,0H16.56a6.56,6.56,0,0,1,6.56,6.56V30.71A1.29,1.29,0,0,1,21.83,32Z"/><path class="cls-2" d="M23.12,7.5h-7.5V0h.94a6.56,6.56,0,0,1,6.56,6.56Z"/><path class="cls-3" d="M8.06,24.31a3.75,3.75,0,0,1-2.52-1,3.89,3.89,0,0,1,0-5.57L8,15.36A4,4,0,0,1,10,14.23a3.73,3.73,0,0,1,3.35,1L12,16.59A1.86,1.86,0,0,0,10.71,16a1.82,1.82,0,0,0-1.32.55L6.81,19.16a2,2,0,0,0-.28,2.49,1.89,1.89,0,0,0,2.86.24l1.32,1.32a3.7,3.7,0,0,1-2.65,1.1Z"/><path class="cls-4" d="M12,20.34a3.7,3.7,0,0,1-2.65-1.1l1.32-1.33a1.86,1.86,0,0,0,1.33.55,1.82,1.82,0,0,0,1.32-.55l2.56-2.55a2,2,0,0,0,0-2.81,1.8,1.8,0,0,0-1.25-.49,1.9,1.9,0,0,0-1.33.55L12,11.29a3.74,3.74,0,0,1,5.28,0,3.91,3.91,0,0,1-.12,5.45l-2.51,2.52A3.72,3.72,0,0,1,12,20.34Z"/><path class="cls-3" d="M13.36,17.91a1.82,1.82,0,0,1-1.32.55,2,2,0,0,1-.48-.06v1.91h0a3.75,3.75,0,0,0,3.13-1.07l2.51-2.52a3.91,3.91,0,0,0,.12-5.45,3.74,3.74,0,0,0-5.28,0l1.32,1.32a1.9,1.9,0,0,1,1.33-.55,1.85,1.85,0,0,1,1.26.49,2,2,0,0,1,0,2.81Z"/><path class="cls-4" d="M11.56,16.24a1.85,1.85,0,0,1,.48.35l1.32-1.33a3.75,3.75,0,0,0-1.8-1v2Z"/></g></g></svg>