<?xml version="1.0" encoding="UTF-8"?>
<svg width="1080" height="1080" id="Layer_1" xmlns="http://www.w3.org/2000/svg" viewBox="0 0 1080 1080">
  <defs>
    <style>
      .cls-1 {
        fill: #ffbf9d;
      }

      .cls-2 {
        fill: #042b62;
      }

      .cls-3 {
        opacity: .6;
      }

      .cls-4 {
        fill: #ff9a6c;
      }

      .cls-5 {
        fill: #263238;
      }

      .cls-6, .cls-7 {
        fill: #fff;
      }

      .cls-8 {
        letter-spacing: -.05em;
      }

      .cls-9 {
        fill: #e0e0e0;
      }

      .cls-10 {
        opacity: .3;
      }

      .cls-7 {
        font-family: Montserrat-Bold, Montserrat;
        font-size: 83.99px;
        font-weight: 700;
      }

      .cls-11 {
        fill: #d0d0d0;
      }

      .cls-12 {
        fill: #455a64;
      }

      .cls-13 {
        fill: #ebebeb;
      }

      .cls-14 {
        fill: #f5f5f5;
      }
    </style>
  </defs>
  <g id="freepik--background-complete--inject-116">
    <path class="cls-6" d="M869.02,496.29l19.7-24.3"/>
    <path class="cls-9" d="M888.71,471.98c-2.97,4.3-6.15,8.44-9.54,12.41-3.18,4.12-6.57,8.08-10.16,11.85,2.95-4.3,6.13-8.45,9.52-12.41,3.18-4.12,6.58-8.08,10.17-11.85Z"/>
    <path class="cls-14" d="M178.64,710.55c5.71,38.66-21,74.64-59.66,80.35-38.66,5.71-74.64-21-80.35-59.66-5.71-38.66,21-74.64,59.66-80.35.05,0,.11-.02.16-.02,38.62-5.66,74.52,21.07,80.19,59.69Z"/>
    <path class="cls-13" d="M161.98,712.92c4.35,29.46-16,56.88-45.47,61.23-29.46,4.35-56.88-16-61.23-45.47-4.35-29.46,16-56.88,45.47-61.23.04,0,.08-.01.12-.02,29.43-4.31,56.79,16.05,61.11,45.48Z"/>
    <path class="cls-9" d="M161.73,711.26c-.33,0-.9-2.25-2.35-6.22-2.03-5.56-4.91-10.78-8.53-15.46-2.49-3.19-5.34-6.1-8.47-8.66-3.62-2.93-7.6-5.38-11.85-7.29-2.27-1.04-4.62-1.91-7.02-2.59-2.5-.74-5.05-1.29-7.63-1.63-2.67-.37-5.37-.53-8.07-.47-2.78.07-5.54.34-8.28.8-2.73.51-5.42,1.21-8.06,2.1-2.55.88-5.02,1.96-7.41,3.21-2.27,1.22-4.44,2.61-6.5,4.16-2.02,1.47-3.93,3.1-5.7,4.86-3.31,3.25-6.18,6.9-8.55,10.89-2.07,3.49-3.75,7.2-5.01,11.06-1.79,5.64-2.7,11.53-2.68,17.45,0,4.22.27,6.59,0,6.64s-1.05-2.22-1.56-6.55c-.65-6.16-.15-12.38,1.48-18.35,1.12-4.15,2.73-8.16,4.78-11.94,2.42-4.33,5.41-8.32,8.89-11.85,1.87-1.93,3.88-3.71,6.03-5.33,2.23-1.71,4.59-3.24,7.06-4.56,2.56-1.39,5.23-2.57,7.98-3.54,2.83-.98,5.73-1.74,8.68-2.28,2.94-.5,5.91-.78,8.89-.84,2.91-.04,5.82.15,8.69.58,2.78.39,5.52,1.01,8.21,1.85,2.57.79,5.08,1.78,7.49,2.96,8.41,3.98,15.65,10.06,21,17.67,3.57,5.05,6.16,10.71,7.66,16.71,1.07,4.18,1.07,6.59.81,6.64Z"/>
    <path class="cls-14" d="M672.57,355.36c-13.43,23.68-43.51,31.99-67.19,18.56-23.68-13.43-31.99-43.51-18.56-67.19,13.43-23.68,43.51-31.99,67.19-18.56.03.02.06.04.09.05,23.64,13.44,31.9,43.5,18.47,67.14Z"/>
    <path class="cls-13" d="M662.38,349.56c-10.23,18.04-33.15,24.38-51.2,14.15-18.04-10.23-24.38-33.15-14.15-51.2,10.23-18.04,33.15-24.38,51.2-14.15.03.01.05.03.08.04,18.01,10.23,24.31,33.12,14.09,51.13,0,0-.01.02-.02.03Z"/>
    <path class="cls-9" d="M662.95,348.53c-.21-.12.47-1.63,1.38-4.44,1.27-3.92,1.92-8.02,1.93-12.14.02-6.07-1.45-12.06-4.28-17.43-.81-1.55-1.73-3.03-2.75-4.44-1.05-1.48-2.22-2.87-3.5-4.16-1.31-1.35-2.73-2.59-4.24-3.72-1.55-1.15-3.19-2.19-4.89-3.11-1.72-.89-3.49-1.65-5.32-2.3-1.78-.63-3.6-1.12-5.45-1.48-3.51-.62-7.09-.73-10.63-.33-3.21.38-6.36,1.17-9.36,2.35-2.6,1.04-5.09,2.36-7.41,3.94-3.38,2.34-6.38,5.19-8.89,8.44-1.81,2.31-2.68,3.72-2.89,3.61s.39-1.67,1.97-4.27c2.28-3.66,5.22-6.86,8.68-9.43,5.17-3.91,11.26-6.4,17.68-7.24,1.85-.26,3.73-.38,5.6-.34,1.96.01,3.91.19,5.84.52,2.01.34,3.99.83,5.92,1.48,3.96,1.34,7.68,3.31,11.02,5.84,1.61,1.23,3.12,2.59,4.53,4.04,1.36,1.41,2.6,2.92,3.7,4.53,1.08,1.53,2.04,3.14,2.87,4.81,2.91,5.79,4.28,12.23,3.97,18.71-.2,4.31-1.21,8.54-2.96,12.49-1.42,2.81-2.38,4.15-2.53,4.07Z"/>
    <path class="cls-14" d="M1042.06,756.57c-22.72,39.78-73.38,53.6-113.16,30.88-39.78-22.72-53.6-73.38-30.88-113.16,22.72-39.78,73.38-53.6,113.16-30.88.01,0,.02.01.03.02,39.75,22.73,53.56,73.38,30.85,113.14Z"/>
    <path class="cls-13" d="M1024.93,746.75c-17.3,30.35-55.93,40.93-86.28,23.63-30.35-17.3-40.93-55.93-23.63-86.28,17.3-30.35,55.93-40.93,86.28-23.63.04.02.08.05.12.07,30.3,17.31,40.82,55.91,23.51,86.21,0,0,0,0,0,0Z"/>
    <path class="cls-9" d="M1025.91,745.02c-.34-.18.8-2.73,2.33-7.41,2.16-6.6,3.28-13.5,3.32-20.45.02-4.75-.47-9.49-1.48-14.13-1.21-5.31-3.09-10.43-5.61-15.26-1.35-2.6-2.89-5.1-4.61-7.48-1.79-2.49-3.77-4.84-5.92-7.02-2.2-2.28-4.58-4.38-7.11-6.28-2.61-1.94-5.36-3.69-8.22-5.24-2.89-1.51-5.88-2.82-8.96-3.9-2.99-1.03-6.06-1.83-9.17-2.4-3.01-.55-6.05-.86-9.11-.95-2.93-.09-5.87.03-8.78.37-5.42.59-10.73,1.88-15.82,3.84-4.43,1.74-8.65,3.96-12.59,6.62-5.73,3.89-10.82,8.65-15.09,14.11-3.05,3.9-4.53,6.26-4.86,6.09s.64-2.81,3.3-7.17c3.86-6.13,8.81-11.49,14.62-15.82,8.73-6.55,19-10.73,29.83-12.13,6.4-.86,12.89-.75,19.25.34,3.37.57,6.69,1.41,9.92,2.5,3.32,1.16,6.55,2.55,9.67,4.18,3.1,1.67,6.07,3.57,8.89,5.69,2.71,2.07,5.26,4.35,7.61,6.83,4.47,4.67,8.21,9.99,11.09,15.77,2.58,5.21,4.45,10.75,5.55,16.45.94,4.96,1.3,10.01,1.05,15.05-.34,7.26-2.03,14.39-4.98,21.03-2.16,4.64-3.88,6.89-4.13,6.75Z"/>
    <path class="cls-14" d="M558.8,368.53c8.28,55.76-30.21,107.67-85.96,115.95-55.76,8.28-107.67-30.21-115.95-85.96-8.28-55.76,30.21-107.67,85.96-115.95.1-.02.2-.03.3-.04,55.68-8.16,107.44,30.33,115.64,86.01Z"/>
    <path class="cls-13" d="M534.77,372.02c6.28,42.49-23.08,82.02-65.57,88.3-42.49,6.28-82.02-23.08-88.3-65.57-6.28-42.49,23.08-82.02,65.57-88.3.06,0,.12-.02.18-.03,42.45-6.22,81.9,23.15,88.12,65.6Z"/>
    <path class="cls-9" d="M534.4,369.61c-.46.09-1.27-3.24-3.38-8.89-2.93-8-7.08-15.49-12.31-22.22-3.6-4.61-7.7-8.8-12.22-12.52-5.19-4.21-10.9-7.73-16.99-10.5-6.72-3.04-13.84-5.09-21.15-6.09-3.85-.52-7.74-.75-11.63-.68-4.01.11-8,.5-11.95,1.17-3.94.7-7.82,1.69-11.61,2.96-7.24,2.5-14.06,6.08-20.23,10.62-2.91,2.13-5.65,4.47-8.22,7.01-4.77,4.69-8.91,9.97-12.34,15.71-2.96,5.04-5.36,10.39-7.17,15.95-2.58,8.14-3.89,16.64-3.87,25.18,0,6.09.39,9.49-.09,9.58s-1.48-3.21-2.22-9.45c-.96-8.92-.23-17.94,2.15-26.59,1.62-5.98,3.94-11.75,6.92-17.2,3.46-6.26,7.74-12.03,12.74-17.15,5.55-5.66,11.9-10.47,18.85-14.26,3.69-2,7.53-3.7,11.49-5.09,4.09-1.41,8.28-2.51,12.53-3.29,4.26-.73,8.57-1.14,12.89-1.21,4.2-.06,8.4.22,12.56.83,4.02.56,7.98,1.45,11.85,2.67,3.71,1.13,7.33,2.54,10.83,4.22,12.12,5.73,22.55,14.5,30.27,25.46,5.17,7.28,8.95,15.45,11.14,24.11,1.47,6.12,1.51,9.6,1.16,9.66Z"/>
    <path class="cls-9" d="M886.92,544.52l-22.59,67.11c-1.84,5.49.7,11.49,5.92,14h0c5.51,2.64,12.12.5,15.03-4.87l34.06-62.77c2.37-4.35.77-9.8-3.58-12.18-.34-.18-.68-.35-1.04-.49l-16.04-6.31c-4.63-1.8-9.84.5-11.64,5.13-.05.13-.1.26-.14.38Z"/>
    <path class="cls-9" d="M872.54,669.5c-6.2,7.23-17.08,8.06-24.31,1.86-7.23-6.2-8.06-17.08-1.86-24.31,6.2-7.22,17.07-8.06,24.3-1.86,7.23,6.19,8.07,17.08,1.88,24.31,0,0,0,0,0,.01Z"/>
  </g>
  <g id="freepik--Document--inject-116">
    <rect class="cls-12" x="324.6" y="583.28" width="474.49" height="312.85"/>
    <path class="cls-12" d="M324.6,583.28s-4.18-19.82,21.89-37.55c19.45-13.21,129.64-105.88,184.42-152.14,17.93-15.17,44.15-15.28,62.21-.27,60.18,49.93,187.06,155.38,195.8,164.27,8.25,7.2,10.26,16.54,10.2,25.7h-474.52Z"/>
    <g class="cls-10">
      <path d="M324.6,583.28l212.92,164.4c13.95-5.41,28.23-5.92,42.95,0l218.64-164.4h-474.51Z"/>
    </g>
    <path class="cls-5" d="M324.6,896.13c-.13-.18,47.39-33.55,106.24-74.53,58.84-40.98,106.64-74.05,106.64-73.89s-47.39,33.53-106.24,74.53c-58.84,41-106.52,74.07-106.64,73.89Z"/>
    <path class="cls-5" d="M799.09,896.13c-.12.18-49.17-32.91-109.53-73.89-60.35-40.98-109.23-74.35-109.11-74.53s49.16,32.89,109.6,73.89c60.44,41,109.16,74.35,109.04,74.53Z"/>
    <path class="cls-6" d="M358.05,609.1v-201.84h405.52v202.74l-183.11,137.74c-12.94-6.1-27.47-5.11-42.95,0l-179.46-138.64Z"/>
    <path class="cls-5" d="M358.05,609.1l3.21,2.44,9.36,7.18,35.87,27.59,131.21,101.16h-.27c6.78-2.34,13.85-3.74,21.02-4.16,7.61-.44,15.21.99,22.14,4.16h-.31l183.06-137.74-.15.3v-202.77l.39.39-405.52-.1.27-.28c0,62.32-.1,112.77-.13,147.63,0,17.45,0,30.98-.07,40.18v14.03-13.91c0-9.18,0-22.7-.07-40.14,0-34.89-.07-85.37-.13-147.74v-.39h.28l405.52-.1h.39v203.31l-.15.12-183.3,137.71-.15.1-.18-.07c-6.84-3.14-14.34-4.55-21.85-4.13-7.11.43-14.12,1.81-20.85,4.12h-.15l-.13-.1-131.13-101.38-35.74-27.7-9.29-7.21-3.14-2.49Z"/>
    <rect class="cls-2" x="376" y="431.64" width="183.91" height="76.39"/>
    <rect class="cls-9" x="570.92" y="437.62" width="171.23" height="11.97"/>
    <rect class="cls-9" x="374.83" y="532.04" width="367.32" height="11.97"/>
    <rect class="cls-9" x="374.83" y="555.87" width="102.25" height="11.97"/>
    <rect class="cls-9" x="374.83" y="583.39" width="198.38" height="11.97"/>
    <rect class="cls-9" x="374.83" y="606.02" width="200.06" height="11.97"/>
    <rect class="cls-9" x="570.92" y="462.09" width="171.23" height="11.97"/>
    <rect class="cls-9" x="570.92" y="486.54" width="70.31" height="11.97"/>
    <polygon class="cls-9" points="403.35 644.1 418.83 656.05 702.34 656.05 718.23 644.1 403.35 644.1"/>
    <polygon class="cls-9" points="431.14 665.54 446.61 677.51 673.8 677.51 689.7 665.54 431.14 665.54"/>
    <polygon class="cls-9" points="662.32 686.14 457.81 686.14 473.3 698.11 646.41 698.11 662.32 686.14"/>
    <text class="cls-7" transform="translate(382.8 497.83)"><tspan class="cls-8" x="0" y="0">T</tspan><tspan x="46.78" y="0">AX</tspan></text>
  </g>
  <g id="freepik--Sign--inject-116">
    <path class="cls-6" d="M767.04,510.87l-93.01.24c-22.57,0-36.73-23.52-25.49-42.43l46.31-77.93,46.31-77.93c11.24-18.91,39.46-18.99,50.79-.13l46.7,77.71,46.7,77.71c11.33,18.81-2.73,42.51-25.3,42.51l-93.01.27Z"/>
    <path class="cls-5" d="M767.04,510.87h7.42l21.25-.12,33.65-.13,21.02-.07c3.72,0,7.55,0,11.45-.1,4-.23,7.92-1.27,11.52-3.04,3.75-1.9,7.05-4.59,9.67-7.88,2.73-3.45,4.62-7.48,5.52-11.77.93-4.48.68-9.13-.73-13.49-1.38-4.44-4.27-8.34-6.66-12.54l-31.96-53.2-35.29-58.7c-6.12-10.19-12.34-20.56-18.66-31.1l-2.33-3.91c-.79-1.32-1.57-2.64-2.44-3.88-1.78-2.5-3.96-4.69-6.44-6.5-2.54-1.81-5.34-3.2-8.31-4.13-2.98-.92-6.07-1.38-9.18-1.39-3.11,0-6.2.47-9.17,1.39-5.92,1.87-11.07,5.62-14.66,10.68-.86,1.26-1.64,2.58-2.43,3.91l-2.35,3.95c-6.27,10.55-12.44,20.91-18.51,31.1l-35.03,58.87-31.69,53.32c-2.38,4.21-5.26,8.12-6.61,12.57-1.38,4.37-1.6,9.01-.65,13.49.92,4.3,2.83,8.32,5.57,11.76,2.64,3.27,5.95,5.94,9.72,7.82,3.61,1.74,7.53,2.74,11.54,2.96,3.9.1,7.75,0,11.46,0h83.33-7.42l-21.25.1-33.65.15-21,.07h-11.48c-4.06-.19-8.05-1.2-11.72-2.96-3.83-1.89-7.2-4.59-9.88-7.92-2.78-3.44-4.73-7.47-5.69-11.79-.99-4.56-.77-9.3.64-13.74.73-2.27,1.73-4.45,2.96-6.49l3.67-6.21c9.92-16.71,20.51-34.54,31.65-53.32l34.98-58.92c6.07-10.22,12.24-20.59,18.51-31.1l2.35-3.95c.78-1.33,1.57-2.67,2.46-3.95,3.67-5.18,8.94-9.01,14.99-10.92,6.1-1.93,12.64-1.93,18.74,0,3.01.96,5.85,2.39,8.43,4.22,2.53,1.86,4.76,4.1,6.59,6.65.9,1.27,1.69,2.61,2.47,3.92s1.58,2.64,2.37,3.95l18.66,31.1,35.26,58.72c11.24,18.72,21.92,36.49,31.9,53.14l3.72,6.19c1.24,2.04,2.23,4.22,2.96,6.49,1.44,4.43,1.69,9.17.73,13.73-.92,4.38-2.84,8.48-5.63,11.98-2.66,3.34-6.02,6.06-9.83,7.98-3.66,1.79-7.63,2.84-11.7,3.07-3.94.13-7.76,0-11.48.07h-81.44c-1.18-.12-1.88-.15-1.88-.15Z"/>
    <path class="cls-2" d="M767.15,312.93h-.07c-7.5-.04-14.46,3.91-18.28,10.37l-86.21,145.97c-3.79,6.3-3.75,14.2.12,20.45,3.89,6.38,10.85,10.23,18.32,10.13h0l174.1-.95c7.51.05,14.48-3.9,18.29-10.37,3.78-6.3,3.74-14.19-.12-20.45l-87.78-145.03c-3.89-6.4-10.88-10.25-18.37-10.13Z"/>
    <polygon class="cls-6" points="776.46 431.93 779.91 368.28 753.46 368.5 758.16 432.08 776.46 431.93"/>
    <path class="cls-6" d="M767.07,443.17h-.13c-4.06-.03-7.98,1.48-10.97,4.22-2.8,2.65-4.37,6.35-4.31,10.2,0,3.87,1.61,7.57,4.44,10.2,2.99,2.71,6.9,4.18,10.93,4.12h.13c4.02.02,7.89-1.53,10.78-4.32,2.72-2.72,4.23-6.43,4.18-10.28-.03-8.1-6.5-14.17-15.05-14.14Z"/>
    <g class="cls-10">
      <polygon class="cls-6" points="810.22 343.41 673.68 426.36 656.41 456.21 819.7 359.73 810.22 343.41"/>
    </g>
    <g class="cls-10">
      <path class="cls-6" d="M831.43,379.86l-185.06,111.35c.72,2.73,2.04,5.26,3.87,7.41l184.28-113.38-3.08-5.38Z"/>
    </g>
  </g>
  <g id="freepik--Coins--inject-116">
    <rect class="cls-2" x="260.9" y="822.23" width="133.3" height="24.2"/>
    <path class="cls-5" d="M273.96,846.6c-.3,0-.55-5.38-.55-12.01s.25-12.01.55-12.01.56,5.38.56,12.01-.25,12.01-.56,12.01Z"/>
    <path class="cls-5" d="M266.68,846.6c-.31,0-.55-5.38-.55-12.01s.24-12.01.55-12.01.56,5.38.56,12.01-.25,12.01-.56,12.01Z"/>
    <path class="cls-5" d="M289.99,846.6c-.31,0-.56-5.38-.56-12.01s.25-12.01.56-12.01.55,5.38.55,12.01-.24,12.01-.55,12.01Z"/>
    <path class="cls-5" d="M282.7,846.6c-.31,0-.56-5.38-.56-12.01s.25-12.01.56-12.01.55,5.38.55,12.01-.25,12.01-.55,12.01Z"/>
    <path class="cls-5" d="M306,846.6c-.3,0-.55-5.38-.55-12.01s.25-12.01.55-12.01.56,5.38.56,12.01-.25,12.01-.56,12.01Z"/>
    <path class="cls-5" d="M298.71,846.6c-.31,0-.55-5.38-.55-12.01s.24-12.01.55-12.01.55,5.38.55,12.01-.24,12.01-.55,12.01Z"/>
    <path class="cls-5" d="M322.03,846.6c-.31,0-.56-5.38-.56-12.01s.25-12.01.56-12.01.55,5.38.55,12.01-.25,12.01-.55,12.01Z"/>
    <path class="cls-5" d="M314.72,846.6c-.3,0-.55-5.38-.55-12.01s.25-12.01.55-12.01.56,5.38.56,12.01-.25,12.01-.56,12.01Z"/>
    <path class="cls-5" d="M338.04,846.6c-.3,0-.55-5.38-.55-12.01s.25-12.01.55-12.01.56,5.38.56,12.01-.25,12.01-.56,12.01Z"/>
    <path class="cls-5" d="M330.82,846.6c-.31,0-.56-5.38-.56-12.01s.25-12.01.56-12.01.55,5.38.55,12.01-.31,12.01-.55,12.01Z"/>
    <path class="cls-5" d="M354.06,846.6c-.31,0-.56-5.38-.56-12.01s.25-12.01.56-12.01.55,5.38.55,12.01-.25,12.01-.55,12.01Z"/>
    <path class="cls-5" d="M346.76,846.6c-.3,0-.55-5.38-.55-12.01s.25-12.01.55-12.01.56,5.38.56,12.01-.21,12.01-.56,12.01Z"/>
    <path class="cls-5" d="M370.07,846.6c-.31,0-.55-5.38-.55-12.01s.24-12.01.55-12.01.56,5.38.56,12.01-.25,12.01-.56,12.01Z"/>
    <path class="cls-5" d="M362.78,846.6c-.31,0-.56-5.38-.56-12.01s.25-12.01.56-12.01.55,5.38.55,12.01-.25,12.01-.55,12.01Z"/>
    <path class="cls-5" d="M386.1,846.6c-.31,0-.56-5.38-.56-12.01s.25-12.01.56-12.01.55,5.38.55,12.01-.25,12.01-.55,12.01Z"/>
    <path class="cls-5" d="M378.8,846.6c-.3,0-.55-5.38-.55-12.01s.25-12.01.55-12.01.56,5.38.56,12.01-.25,12.01-.56,12.01Z"/>
    <path class="cls-5" d="M394.21,822.23c0,.3-29.98.55-66.96.55s-66.96-.25-66.96-.55,29.98-.56,66.96-.56,66.96.25,66.96.56Z"/>
    <rect class="cls-2" x="230.94" y="847.27" width="133.3" height="24.2"/>
    <path class="cls-5" d="M244,871.65c-.31,0-.56-5.38-.56-12.01s.25-12.01.56-12.01.55,5.38.55,12.01-.24,12.01-.55,12.01Z"/>
    <path class="cls-5" d="M236.72,871.65c-.31,0-.56-5.38-.56-12.01s.25-12.01.56-12.01.55,5.38.55,12.01-.25,12.01-.55,12.01Z"/>
    <path class="cls-5" d="M260.01,871.65c-.3,0-.55-5.38-.55-12.01s.25-12.01.55-12.01.56,5.38.56,12.01-.25,12.01-.56,12.01Z"/>
    <path class="cls-5" d="M252.73,871.65c-.31,0-.55-5.38-.55-12.01s.24-12.01.55-12.01.55,5.38.55,12.01-.24,12.01-.55,12.01Z"/>
    <path class="cls-5" d="M276.02,871.65c-.31,0-.56-5.38-.56-12.01s.25-12.01.56-12.01.55,5.38.55,12.01-.24,12.01-.55,12.01Z"/>
    <path class="cls-5" d="M268.74,871.65c-.3,0-.55-5.38-.55-12.01s.25-12.01.55-12.01.56,5.38.56,12.01-.25,12.01-.56,12.01Z"/>
    <path class="cls-5" d="M292.05,871.65c-.3,0-.55-5.38-.55-12.01s.25-12.01.55-12.01.56,5.38.56,12.01-.3,12.01-.56,12.01Z"/>
    <path class="cls-5" d="M284.76,871.65c-.31,0-.56-5.38-.56-12.01s.25-12.01.56-12.01.55,5.38.55,12.01-.24,12.01-.55,12.01Z"/>
    <path class="cls-5" d="M308.07,871.65c-.31,0-.56-5.38-.56-12.01s.25-12.01.56-12.01.55,5.38.55,12.01-.25,12.01-.55,12.01Z"/>
    <path class="cls-5" d="M300.77,871.65c-.3,0-.55-5.38-.55-12.01s.25-12.01.55-12.01.56,5.38.56,12.01-.25,12.01-.56,12.01Z"/>
    <path class="cls-5" d="M324.08,871.65c-.31,0-.55-5.38-.55-12.01s.24-12.01.55-12.01.56,5.38.56,12.01-.25,12.01-.56,12.01Z"/>
    <path class="cls-5" d="M316.8,871.65c-.31,0-.56-5.38-.56-12.01s.25-12.01.56-12.01.55,5.38.55,12.01-.25,12.01-.55,12.01Z"/>
    <path class="cls-5" d="M340.11,871.65c-.31,0-.56-5.38-.56-12.01s.25-12.01.56-12.01.55,5.38.55,12.01-.25,12.01-.55,12.01Z"/>
    <path class="cls-5" d="M332.81,871.65c-.3,0-.55-5.38-.55-12.01s.25-12.01.55-12.01.56,5.38.56,12.01-.25,12.01-.56,12.01Z"/>
    <path class="cls-5" d="M356.12,871.65c-.31,0-.55-5.38-.55-12.01s.24-12.01.55-12.01.55,5.38.55,12.01-.24,12.01-.55,12.01Z"/>
    <path class="cls-5" d="M348.83,871.65c-.31,0-.56-5.38-.56-12.01s.25-12.01.56-12.01.55,5.38.55,12.01-.25,12.01-.55,12.01Z"/>
    <path class="cls-5" d="M364.24,847.27c0,.31-29.98.55-66.96.55s-66.96-.24-66.96-.55,29.98-.56,66.96-.56,66.96.25,66.96.56Z"/>
    <rect class="cls-2" x="263.08" y="871.19" width="133.3" height="24.2"/>
    <path class="cls-5" d="M276.14,895.55c-.31,0-.56-5.38-.56-12s.25-12.01.56-12.01.55,5.38.55,12.01-.25,12-.55,12Z"/>
    <path class="cls-5" d="M268.84,895.55c-.3,0-.55-5.38-.55-12s.25-12.01.55-12.01.56,5.38.56,12.01-.25,12-.56,12Z"/>
    <path class="cls-5" d="M292.15,895.55c-.3,0-.55-5.38-.55-12s.25-12.01.55-12.01.56,5.38.56,12.01-.25,12-.56,12Z"/>
    <path class="cls-5" d="M284.91,895.55c-.31,0-.56-5.38-.56-12s.25-12.01.56-12.01.55,5.38.55,12.01-.28,12-.55,12Z"/>
    <path class="cls-5" d="M308.18,895.55c-.31,0-.56-5.38-.56-12s.25-12.01.56-12.01.55,5.38.55,12.01-.25,12-.55,12Z"/>
    <path class="cls-5" d="M300.88,895.55c-.3,0-.55-5.38-.55-12s.25-12.01.55-12.01.56,5.38.56,12.01-.24,12-.56,12Z"/>
    <path class="cls-5" d="M324.19,895.55c-.31,0-.55-5.38-.55-12s.24-12.01.55-12.01.56,5.38.56,12.01-.25,12-.56,12Z"/>
    <path class="cls-5" d="M316.9,895.55c-.31,0-.56-5.38-.56-12s.25-12.01.56-12.01.55,5.38.55,12.01-.24,12-.55,12Z"/>
    <path class="cls-5" d="M340.21,895.55c-.31,0-.56-5.38-.56-12s.25-12.01.56-12.01.55,5.38.55,12.01-.25,12-.55,12Z"/>
    <path class="cls-5" d="M332.91,895.55c-.3,0-.55-5.38-.55-12s.25-12.01.55-12.01.56,5.38.56,12.01-.25,12-.56,12Z"/>
    <path class="cls-5" d="M356.22,895.55c-.31,0-.55-5.38-.55-12s.24-12.01.55-12.01.56,5.38.56,12.01-.25,12-.56,12Z"/>
    <path class="cls-5" d="M348.94,895.55c-.31,0-.56-5.38-.56-12s.25-12.01.56-12.01.55,5.38.55,12.01-.25,12-.55,12Z"/>
    <path class="cls-5" d="M372.29,895.55c-.3,0-.55-5.38-.55-12s.25-12.01.55-12.01.56,5.38.56,12.01-.31,12-.56,12Z"/>
    <path class="cls-5" d="M364.89,895.55c-.3,0-.55-5.38-.55-12s.25-12.01.55-12.01.56,5.38.56,12.01-.19,12-.56,12Z"/>
    <path class="cls-5" d="M388.26,895.55c-.31,0-.56-5.38-.56-12s.25-12.01.56-12.01.55,5.38.55,12.01-.22,12-.55,12Z"/>
    <path class="cls-5" d="M380.97,895.55c-.31,0-.56-5.38-.56-12s.25-12.01.56-12.01.55,5.38.55,12.01-.25,12-.55,12Z"/>
    <path class="cls-5" d="M396.38,871.19c0,.3-30.05.55-67.11.55s-67.14-.25-67.14-.55,30.05-.56,67.14-.56,67.11.25,67.11.56Z"/>
    <rect class="cls-2" x="700.34" y="822.23" width="133.3" height="24.2"/>
    <path class="cls-5" d="M820.57,846.6c.3,0,.55-5.38.55-12.01s-.25-12.01-.55-12.01-.56,5.38-.56,12.01.25,12.01.56,12.01Z"/>
    <path class="cls-5" d="M827.86,846.6c.31,0,.55-5.38.55-12.01s-.24-12.01-.55-12.01-.56,5.38-.56,12.01.25,12.01.56,12.01Z"/>
    <path class="cls-5" d="M804.54,846.6c.31,0,.56-5.38.56-12.01s-.25-12.01-.56-12.01-.55,5.38-.55,12.01.24,12.01.55,12.01Z"/>
    <path class="cls-5" d="M811.83,846.6c.31,0,.56-5.38.56-12.01s-.25-12.01-.56-12.01-.55,5.38-.55,12.01.25,12.01.55,12.01Z"/>
    <path class="cls-5" d="M788.48,846.6c.3,0,.55-5.38.55-12.01s-.25-12.01-.55-12.01-.56,5.38-.56,12.01.31,12.01.56,12.01Z"/>
    <path class="cls-5" d="M795.88,846.6c.31,0,.55-5.38.55-12.01s-.24-12.01-.55-12.01-.55,5.38-.55,12.01.18,12.01.55,12.01Z"/>
    <path class="cls-5" d="M772.51,846.6c.31,0,.56-5.38.56-12.01s-.25-12.01-.56-12.01-.55,5.38-.55,12.01.22,12.01.55,12.01Z"/>
    <path class="cls-5" d="M779.81,846.6c.3,0,.55-5.38.55-12.01s-.25-12.01-.55-12.01-.56,5.38-.56,12.01.25,12.01.56,12.01Z"/>
    <path class="cls-5" d="M756.5,846.6c.3,0,.55-5.38.55-12.01s-.25-12.01-.55-12.01-.56,5.38-.56,12.01.25,12.01.56,12.01Z"/>
    <path class="cls-5" d="M763.79,846.6c.31,0,.56-5.38.56-12.01s-.25-12.01-.56-12.01-.55,5.38-.55,12.01.24,12.01.55,12.01Z"/>
    <path class="cls-5" d="M740.47,846.6c.31,0,.56-5.38.56-12.01s-.25-12.01-.56-12.01-.55,5.38-.55,12.01.25,12.01.55,12.01Z"/>
    <path class="cls-5" d="M747.78,846.6c.3,0,.55-5.38.55-12.01s-.25-12.01-.55-12.01-.56,5.38-.56,12.01.25,12.01.56,12.01Z"/>
    <path class="cls-5" d="M724.46,846.6c.31,0,.55-5.38.55-12.01s-.24-12.01-.55-12.01-.56,5.38-.56,12.01.25,12.01.56,12.01Z"/>
    <path class="cls-5" d="M731.75,846.6c.31,0,.56-5.38.56-12.01s-.25-12.01-.56-12.01-.55,5.38-.55,12.01.25,12.01.55,12.01Z"/>
    <path class="cls-5" d="M708.5,846.6c.31,0,.56-5.38.56-12.01s-.25-12.01-.56-12.01-.55,5.38-.55,12.01.19,12.01.55,12.01Z"/>
    <path class="cls-5" d="M715.74,846.6c.3,0,.55-5.38.55-12.01s-.25-12.01-.55-12.01-.56,5.38-.56,12.01.25,12.01.56,12.01Z"/>
    <path class="cls-5" d="M700.32,822.23c0,.3,29.98.55,66.96.55s66.96-.25,66.96-.55-29.98-.56-66.96-.56-66.96.25-66.96.56Z"/>
    <rect class="cls-2" x="730.3" y="847.27" width="133.3" height="24.2"/>
    <path class="cls-5" d="M850.53,871.65c.31,0,.56-5.38.56-12.01s-.25-12.01-.56-12.01-.55,5.38-.55,12.01.24,12.01.55,12.01Z"/>
    <path class="cls-5" d="M857.82,871.65c.31,0,.56-5.38.56-12.01s-.25-12.01-.56-12.01-.55,5.38-.55,12.01.25,12.01.55,12.01Z"/>
    <path class="cls-5" d="M834.52,871.65c.3,0,.55-5.38.55-12.01s-.25-12.01-.55-12.01-.56,5.38-.56,12.01.25,12.01.56,12.01Z"/>
    <path class="cls-5" d="M841.79,871.65c.31,0,.55-5.38.55-12.01s-.24-12.01-.55-12.01-.55,5.38-.55,12.01.25,12.01.55,12.01Z"/>
    <path class="cls-5" d="M818.5,871.65c.31,0,.56-5.38.56-12.01s-.25-12.01-.56-12.01-.55,5.38-.55,12.01.25,12.01.55,12.01Z"/>
    <path class="cls-5" d="M825.8,871.65c.3,0,.55-5.38.55-12.01s-.25-12.01-.55-12.01-.56,5.38-.56,12.01.27,12.01.56,12.01Z"/>
    <path class="cls-5" d="M802.49,871.65c.31,0,.55-5.38.55-12.01s-.24-12.01-.55-12.01-.56,5.38-.56,12.01.25,12.01.56,12.01Z"/>
    <path class="cls-5" d="M809.77,871.65c.31,0,.56-5.38.56-12.01s-.25-12.01-.56-12.01-.55,5.38-.55,12.01.24,12.01.55,12.01Z"/>
    <path class="cls-5" d="M786.46,871.65c.31,0,.56-5.38.56-12.01s-.25-12.01-.56-12.01-.55,5.38-.55,12.01.25,12.01.55,12.01Z"/>
    <path class="cls-5" d="M793.76,871.65c.3,0,.55-5.38.55-12.01s-.25-12.01-.55-12.01-.56,5.38-.56,12.01.25,12.01.56,12.01Z"/>
    <path class="cls-5" d="M770.45,871.65c.31,0,.55-5.38.55-12.01s-.24-12.01-.55-12.01-.56,5.38-.56,12.01.25,12.01.56,12.01Z"/>
    <path class="cls-5" d="M777.74,871.65c.31,0,.56-5.38.56-12.01s-.25-12.01-.56-12.01-.55,5.38-.55,12.01.25,12.01.55,12.01Z"/>
    <path class="cls-5" d="M754.41,871.65c.31,0,.56-5.38.56-12.01s-.25-12.01-.56-12.01-.55,5.38-.55,12.01.27,12.01.55,12.01Z"/>
    <path class="cls-5" d="M761.73,871.65c.3,0,.55-5.38.55-12.01s-.25-12.01-.55-12.01-.56,5.38-.56,12.01.25,12.01.56,12.01Z"/>
    <path class="cls-5" d="M738.41,871.65c.31,0,.55-5.38.55-12.01s-.24-12.01-.55-12.01-.55,5.38-.55,12.01.25,12.01.55,12.01Z"/>
    <path class="cls-5" d="M745.7,871.65c.31,0,.56-5.38.56-12.01s-.25-12.01-.56-12.01-.55,5.38-.55,12.01.25,12.01.55,12.01Z"/>
    <path class="cls-5" d="M730.3,847.27c0,.31,29.98.55,66.96.55s66.96-.24,66.96-.55-29.98-.56-66.96-.56-66.96.25-66.96.56Z"/>
    <rect class="cls-2" x="698.16" y="871.19" width="133.3" height="24.2"/>
    <path class="cls-5" d="M818.39,895.55c.31,0,.56-5.38.56-12s-.25-12.01-.56-12.01-.55,5.38-.55,12.01.25,12,.55,12Z"/>
    <path class="cls-5" d="M825.69,895.55c.3,0,.55-5.38.55-12s-.25-12.01-.55-12.01-.56,5.38-.56,12.01.25,12,.56,12Z"/>
    <path class="cls-5" d="M802.38,895.55c.3,0,.55-5.38.55-12s-.25-12.01-.55-12.01-.56,5.38-.56,12.01.25,12,.56,12Z"/>
    <path class="cls-5" d="M809.67,895.55c.31,0,.56-5.38.56-12s-.25-12.01-.56-12.01-.55,5.38-.55,12.01.24,12,.55,12Z"/>
    <path class="cls-5" d="M786.36,895.55c.31,0,.56-5.38.56-12s-.25-12.01-.56-12.01-.55,5.38-.55,12.01.25,12,.55,12Z"/>
    <path class="cls-5" d="M793.66,895.55c.3,0,.55-5.38.55-12s-.25-12.01-.55-12.01-.56,5.38-.56,12.01.25,12,.56,12Z"/>
    <path class="cls-5" d="M770.35,895.55c.31,0,.55-5.38.55-12s-.24-12.01-.55-12.01-.56,5.38-.56,12.01.25,12,.56,12Z"/>
    <path class="cls-5" d="M777.63,895.55c.31,0,.56-5.38.56-12s-.25-12.01-.56-12.01-.55,5.38-.55,12.01.24,12,.55,12Z"/>
    <path class="cls-5" d="M754.32,895.55c.31,0,.56-5.38.56-12s-.25-12.01-.56-12.01-.55,5.38-.55,12.01.25,12,.55,12Z"/>
    <path class="cls-5" d="M761.62,895.55c.3,0,.55-5.38.55-12s-.25-12.01-.55-12.01-.56,5.38-.56,12.01.25,12,.56,12Z"/>
    <path class="cls-5" d="M738.31,895.55c.31,0,.55-5.38.55-12s-.24-12.01-.55-12.01-.55,5.38-.55,12.01.24,12,.55,12Z"/>
    <path class="cls-5" d="M745.6,895.55c.31,0,.56-5.38.56-12s-.25-12.01-.56-12.01-.55,5.38-.55,12.01.25,12,.55,12Z"/>
    <path class="cls-5" d="M722.3,895.55c.3,0,.55-5.38.55-12s-.25-12.01-.55-12.01-.56,5.38-.56,12.01.25,12,.56,12Z"/>
    <path class="cls-5" d="M729.59,895.55c.31,0,.55-5.38.55-12s-.24-12.01-.55-12.01-.56,5.38-.56,12.01.21,12,.56,12Z"/>
    <path class="cls-5" d="M706.28,895.55c.31,0,.56-5.38.56-12s-.25-12.01-.56-12.01-.55,5.38-.55,12.01.24,12,.55,12Z"/>
    <path class="cls-5" d="M713.56,895.55c.31,0,.56-5.38.56-12s-.25-12.01-.56-12.01-.55,5.38-.55,12.01.25,12,.55,12Z"/>
    <path class="cls-5" d="M698.13,871.19c0,.3,30.05.55,67.11.55s67.14-.25,67.14-.55-30.05-.56-67.14-.56-67.11.25-67.11.56Z"/>
    <g class="cls-10">
      <polygon points="795.35 895.54 795.35 876.02 784.74 876.02 784.74 822.58 804.54 822.58 804.54 895.57 795.35 895.54"/>
    </g>
    <rect class="cls-2" x="797.67" y="724.99" width="133.3" height="24.2"/>
    <path class="cls-5" d="M917.91,749.36c.3,0,.55-5.38.55-12s-.25-12.01-.55-12.01-.56,5.38-.56,12.01.25,12,.56,12Z"/>
    <path class="cls-5" d="M925.19,749.36c.31,0,.55-5.38.55-12s-.24-12.01-.55-12.01-.55,5.38-.55,12.01.24,12,.55,12Z"/>
    <path class="cls-5" d="M901.88,749.36c.31,0,.56-5.38.56-12s-.25-12.01-.56-12.01-.55,5.38-.55,12.01.24,12,.55,12Z"/>
    <path class="cls-5" d="M909.17,749.36c.31,0,.56-5.38.56-12s-.25-12.01-.56-12.01-.55,5.38-.55,12.01.25,12,.55,12Z"/>
    <path class="cls-5" d="M885.87,749.36c.3,0,.55-5.38.55-12s-.19-12-.55-12-.56,5.38-.56,12.01.25,11.98.56,11.98Z"/>
    <path class="cls-5" d="M893.16,749.36c.31,0,.56-5.38.56-12s-.25-12.01-.56-12.01-.55,5.38-.55,12.01.24,12,.55,12Z"/>
    <path class="cls-5" d="M869.85,749.36c.31,0,.56-5.38.56-12s-.25-12.01-.56-12.01-.55,5.38-.55,12.01.25,12,.55,12Z"/>
    <path class="cls-5" d="M877.15,749.36c.3,0,.55-5.38.55-12s-.25-12.01-.55-12.01-.56,5.38-.56,12.01.25,12,.56,12Z"/>
    <path class="cls-5" d="M853.84,749.36c.31,0,.55-5.38.55-12s-.24-12.01-.55-12.01-.56,5.38-.56,12.01.25,12,.56,12Z"/>
    <path class="cls-5" d="M861.12,749.36c.31,0,.56-5.38.56-12s-.25-12.01-.56-12.01-.55,5.38-.55,12.01.24,12,.55,12Z"/>
    <path class="cls-5" d="M837.81,749.36c.31,0,.56-5.38.56-12s-.25-12.01-.56-12.01-.55,5.38-.55,12.01.25,12,.55,12Z"/>
    <path class="cls-5" d="M845.11,749.36c.3,0,.55-5.38.55-12s-.25-12.01-.55-12.01-.56,5.38-.56,12.01.21,12,.56,12Z"/>
    <path class="cls-5" d="M821.8,749.36c.31,0,.55-5.38.55-12s-.24-12.01-.55-12.01-.56,5.38-.56,12.01.25,12,.56,12Z"/>
    <path class="cls-5" d="M829.09,749.36c.31,0,.56-5.38.56-12s-.25-12.01-.56-12.01-.55,5.38-.55,12.01.25,12,.55,12Z"/>
    <path class="cls-5" d="M805.77,749.36c.31,0,.56-5.38.56-12s-.25-12.01-.56-12.01-.55,5.38-.55,12.01.25,12,.55,12Z"/>
    <path class="cls-5" d="M813.08,749.36c.3,0,.55-5.38.55-12s-.25-12.01-.55-12.01-.56,5.38-.56,12.01.25,12,.56,12Z"/>
    <path class="cls-5" d="M797.66,724.99c0,.3,29.99.55,66.96.55s66.96-.25,66.96-.55-29.96-.56-66.96-.56-66.96.25-66.96.56Z"/>
    <rect class="cls-2" x="806.4" y="749.58" width="133.3" height="24.2"/>
    <path class="cls-5" d="M926.63,773.96c.3,0,.55-5.38.55-12.01s-.25-12.01-.55-12.01-.56,5.38-.56,12.01.25,12.01.56,12.01Z"/>
    <path class="cls-5" d="M933.92,773.96c.31,0,.56-5.38.56-12.01s-.25-12.01-.56-12.01-.55,5.38-.55,12.01.25,12.01.55,12.01Z"/>
    <path class="cls-5" d="M910.6,773.96c.31,0,.56-5.38.56-12.01s-.25-12.01-.56-12.01-.55,5.38-.55,12.01.25,12.01.55,12.01Z"/>
    <path class="cls-5" d="M917.91,773.96c.3,0,.55-5.38.55-12.01s-.25-12.01-.55-12.01-.56,5.38-.56,12.01.25,12.01.56,12.01Z"/>
    <path class="cls-5" d="M894.59,773.96c.31,0,.55-5.38.55-12.01s-.24-12.01-.55-12.01-.56,5.38-.56,12.01.25,12.01.56,12.01Z"/>
    <path class="cls-5" d="M901.88,773.96c.31,0,.56-5.38.56-12.01s-.25-12.01-.56-12.01-.55,5.38-.55,12.01.24,12.01.55,12.01Z"/>
    <path class="cls-5" d="M878.57,773.96c.31,0,.56-5.38.56-12.01s-.25-12.01-.56-12.01-.55,5.38-.55,12.01.25,12.01.55,12.01Z"/>
    <path class="cls-5" d="M885.87,773.96c.3,0,.55-5.38.55-12.01s-.25-12.01-.55-12.01-.56,5.38-.56,12.01.25,12.01.56,12.01Z"/>
    <path class="cls-5" d="M862.53,773.96c.31,0,.55-5.38.55-12.01s-.24-12.01-.55-12.01-.55,5.38-.55,12.01.27,12.01.55,12.01Z"/>
    <path class="cls-5" d="M869.85,773.96c.31,0,.56-5.38.56-12.01s-.25-12.01-.56-12.01-.55,5.38-.55,12.01.25,12.01.55,12.01Z"/>
    <path class="cls-5" d="M846.55,773.96c.3,0,.55-5.38.55-12.01s-.25-12.01-.55-12.01-.56,5.38-.56,12.01.25,12.01.56,12.01Z"/>
    <path class="cls-5" d="M853.84,773.96c.31,0,.55-5.38.55-12.01s-.24-12.01-.55-12.01-.56,5.38-.56,12.01.25,12.01.56,12.01Z"/>
    <path class="cls-5" d="M830.52,773.96c.31,0,.56-5.38.56-12.01s-.25-12.01-.56-12.01-.55,5.38-.55,12.01.24,12.01.55,12.01Z"/>
    <path class="cls-5" d="M837.81,773.96c.31,0,.56-5.38.56-12.01s-.25-12.01-.56-12.01-.55,5.38-.55,12.01.25,12.01.55,12.01Z"/>
    <path class="cls-5" d="M814.51,773.96c.3,0,.55-5.38.55-12.01s-.25-12.01-.55-12.01-.56,5.38-.56,12.01.25,12.01.56,12.01Z"/>
    <path class="cls-5" d="M821.8,773.96c.31,0,.55-5.38.55-12.01s-.24-12.01-.55-12.01-.56,5.38-.56,12.01.25,12.01.56,12.01Z"/>
    <path class="cls-5" d="M806.38,749.58c0,.31,29.99.55,66.96.55s66.97-.24,66.97-.55-29.98-.52-66.97-.52-66.96.21-66.96.52Z"/>
    <rect class="cls-2" x="795.5" y="773.96" width="133.3" height="24.2"/>
    <path class="cls-5" d="M915.73,798.32c.31,0,.56-5.38.56-12s-.25-12.01-.56-12.01-.55,5.38-.55,12.01.25,12,.55,12Z"/>
    <path class="cls-5" d="M923.03,798.32c.3,0,.55-5.38.55-12s-.25-12.01-.55-12.01-.56,5.38-.56,12.01.25,12,.56,12Z"/>
    <path class="cls-5" d="M899.72,798.32c.31,0,.55-5.38.55-12s-.24-12.01-.55-12.01-.56,5.38-.56,12.01.25,12,.56,12Z"/>
    <path class="cls-5" d="M906.96,798.32c.31,0,.56-5.38.56-12s-.25-12.01-.56-12.01-.55,5.38-.55,12.01.28,12,.55,12Z"/>
    <path class="cls-5" d="M883.69,798.32c.31,0,.56-5.38.56-12s-.25-12.01-.56-12.01-.55,5.38-.55,12.01.25,12,.55,12Z"/>
    <path class="cls-5" d="M891,798.32c.3,0,.55-5.38.55-12s-.25-12.01-.55-12.01-.56,5.38-.56,12.01.24,12,.56,12Z"/>
    <path class="cls-5" d="M867.68,798.32c.31,0,.55-5.38.55-12s-.24-12.01-.55-12.01-.56,5.38-.56,12.01.25,12,.56,12Z"/>
    <path class="cls-5" d="M874.97,798.32c.31,0,.56-5.38.56-12s-.25-12.01-.56-12.01-.55,5.38-.55,12.01.25,12,.55,12Z"/>
    <path class="cls-5" d="M851.66,798.32c.31,0,.56-5.38.56-12s-.25-12.01-.56-12.01-.55,5.38-.55,12.01.25,12,.55,12Z"/>
    <path class="cls-5" d="M858.96,798.32c.3,0,.55-5.38.55-12s-.25-12.01-.55-12.01-.56,5.38-.56,12.01.25,12,.56,12Z"/>
    <path class="cls-5" d="M835.65,798.32c.31,0,.56-5.38.56-12s-.25-12.01-.56-12.01-.55,5.38-.55,12.01.24,12,.55,12Z"/>
    <path class="cls-5" d="M842.93,798.32c.31,0,.56-5.38.56-12s-.25-12.01-.56-12.01-.55,5.38-.55,12.01.25,12,.55,12Z"/>
    <path class="cls-5" d="M819.58,798.32c.3,0,.55-5.38.55-12s-.25-12.01-.55-12.01-.56,5.38-.56,12.01.31,12,.56,12Z"/>
    <path class="cls-5" d="M826.98,798.32c.31,0,.55-5.38.55-12s-.24-12.01-.55-12.01-.56,5.38-.56,12.01.19,12,.56,12Z"/>
    <path class="cls-5" d="M803.61,798.32c.31,0,.56-5.38.56-12s-.25-12.01-.56-12.01-.55,5.38-.55,12.01.22,12,.55,12Z"/>
    <path class="cls-5" d="M810.9,798.32c.31,0,.56-5.38.56-12s-.25-12.01-.56-12.01-.55,5.38-.55,12.01.25,12,.55,12Z"/>
    <path class="cls-5" d="M795.5,773.96c0,.3,30.05.55,67.12.55s67.12-.25,67.12-.55-30.05-.56-67.12-.56-67.12.25-67.12.56Z"/>
    <rect class="cls-2" x="805.95" y="797.97" width="133.3" height="24.2"/>
    <path class="cls-5" d="M926.22,822.34c.31,0,.55-5.38.55-12.01s-.24-12.01-.55-12.01-.56,5.38-.56,12.01.22,12.01.56,12.01Z"/>
    <path class="cls-5" d="M933.47,822.34c.31,0,.56-5.38.56-12.01s-.25-12.01-.56-12.01-.55,5.38-.55,12.01.24,12.01.55,12.01Z"/>
    <path class="cls-5" d="M910.16,822.34c.31,0,.56-5.38.56-12.01s-.25-12.01-.56-12.01-.55,5.38-.55,12.01.31,12.01.55,12.01Z"/>
    <path class="cls-5" d="M917.46,822.34c.3,0,.55-5.38.55-12.01s-.25-12.01-.55-12.01-.56,5.38-.56,12.01.25,12.01.56,12.01Z"/>
    <path class="cls-5" d="M894.15,822.34c.31,0,.55-5.38.55-12.01s-.24-12.01-.55-12.01-.56,5.38-.56,12.01.25,12.01.56,12.01Z"/>
    <path class="cls-5" d="M901.44,822.34c.31,0,.56-5.38.56-12.01s-.25-12.01-.56-12.01-.55,5.38-.55,12.01.25,12.01.55,12.01Z"/>
    <path class="cls-5" d="M878.12,822.34c.31,0,.56-5.38.56-12.01s-.25-12.01-.56-12.01-.55,5.38-.55,12.01.25,12.01.55,12.01Z"/>
    <path class="cls-5" d="M885.43,822.34c.3,0,.55-5.38.55-12.01s-.25-12.01-.55-12.01-.56,5.38-.56,12.01.25,12.01.56,12.01Z"/>
    <path class="cls-5" d="M862.11,822.34c.31,0,.55-5.38.55-12.01s-.24-12.01-.55-12.01-.55,5.38-.55,12.01.24,12.01.55,12.01Z"/>
    <path class="cls-5" d="M869.4,822.34c.31,0,.56-5.38.56-12.01s-.25-12.01-.56-12.01-.55,5.38-.55,12.01.25,12.01.55,12.01Z"/>
    <path class="cls-5" d="M846.1,822.34c.3,0,.55-5.38.55-12.01s-.25-12.01-.55-12.01-.56,5.38-.56,12.01.25,12.01.56,12.01Z"/>
    <path class="cls-5" d="M853.39,822.34c.31,0,.55-5.38.55-12.01s-.24-12.01-.55-12.01-.56,5.38-.56,12.01.25,12.01.56,12.01Z"/>
    <path class="cls-5" d="M830.08,822.34c.31,0,.56-5.38.56-12.01s-.25-12.01-.56-12.01-.55,5.38-.55,12.01.24,12.01.55,12.01Z"/>
    <path class="cls-5" d="M837.35,822.34c.31,0,.56-5.38.56-12.01s-.25-12.01-.56-12.01-.55,5.38-.55,12.01.27,12.01.55,12.01Z"/>
    <path class="cls-5" d="M814.07,822.34c.3,0,.55-5.38.55-12.01s-.25-12.01-.55-12.01-.56,5.38-.56,12.01.25,12.01.56,12.01Z"/>
    <path class="cls-5" d="M821.36,822.34c.31,0,.55-5.38.55-12.01s-.24-12.01-.55-12.01-.56,5.38-.56,12.01.27,12.01.56,12.01Z"/>
    <path class="cls-5" d="M805.94,797.94c0,.31,29.99.55,66.96.55s66.97-.24,66.97-.55-29.98-.55-66.97-.55-66.96.27-66.96.55Z"/>
    <rect class="cls-2" x="792.59" y="822.52" width="133.3" height="24.2"/>
    <path class="cls-5" d="M912.89,846.9c.31,0,.55-5.38.55-12.01s-.24-12.01-.55-12.01-.56,5.38-.56,12.01.19,12.01.56,12.01Z"/>
    <path class="cls-5" d="M920.11,846.9c.31,0,.56-5.38.56-12.01s-.25-12.01-.56-12.01-.55,5.38-.55,12.01.24,12.01.55,12.01Z"/>
    <path class="cls-5" d="M896.8,846.9c.31,0,.56-5.38.56-12.01s-.25-12.01-.56-12.01-.55,5.38-.55,12.01.25,12.01.55,12.01Z"/>
    <path class="cls-5" d="M904.1,846.9c.3,0,.55-5.38.55-12.01s-.25-12.01-.55-12.01-.56,5.38-.56,12.01.25,12.01.56,12.01Z"/>
    <path class="cls-5" d="M880.79,846.9c.31,0,.55-5.38.55-12.01s-.24-12.01-.55-12.01-.49,5.38-.49,12.09.18,11.94.49,11.94Z"/>
    <path class="cls-5" d="M888.08,846.9c.31,0,.56-5.38.56-12.01s-.25-12.01-.56-12.01-.55,5.38-.55,12.01.25,12.01.55,12.01Z"/>
    <path class="cls-5" d="M864.77,846.9c.31,0,.56-5.38.56-12.01s-.25-12.01-.56-12.01-.55,5.38-.55,12.01.25,12.01.55,12.01Z"/>
    <path class="cls-5" d="M872.07,846.9c.3,0,.55-5.38.55-12.01s-.25-12.01-.55-12.01-.56,5.38-.56,12.01.25,12.01.56,12.01Z"/>
    <path class="cls-5" d="M848.76,846.9c.31,0,.55-5.38.55-12.01s-.24-12.01-.55-12.01-.55,5.38-.55,12.01.24,12.01.55,12.01Z"/>
    <path class="cls-5" d="M856.04,846.9c.31,0,.56-5.38.56-12.01s-.25-12.01-.56-12.01-.55,5.38-.55,12.01.25,12.01.55,12.01Z"/>
    <path class="cls-5" d="M832.74,846.9c.3,0,.55-5.38.55-12.01s-.25-12.01-.55-12.01-.56,5.38-.56,12.01.25,12.01.56,12.01Z"/>
    <path class="cls-5" d="M840.03,846.9c.31,0,.55-5.38.55-12.01s-.24-12.01-.55-12.01-.56,5.38-.56,12.01.25,12.01.56,12.01Z"/>
    <path class="cls-5" d="M816.72,846.9c.31,0,.56-5.38.56-12.01s-.25-12.01-.56-12.01-.55,5.38-.55,12.01.24,12.01.55,12.01Z"/>
    <path class="cls-5" d="M824.02,846.9c.31,0,.56-5.38.56-12.01s-.25-12.01-.56-12.01-.55,5.38-.55,12.01.24,12.01.55,12.01Z"/>
    <path class="cls-5" d="M800.71,846.9c.3,0,.55-5.38.55-12.01s-.25-12.01-.55-12.01-.56,5.38-.56,12.01.25,12.01.56,12.01Z"/>
    <path class="cls-5" d="M808,846.9c.31,0,.55-5.38.55-12.01s-.24-12.01-.55-12.01-.55,5.38-.55,12.01.28,12.01.55,12.01Z"/>
    <path class="cls-5" d="M792.58,822.52c0,.31,29.99.55,66.96.55s66.97-.24,66.97-.55-29.98-.56-66.97-.56-66.96.25-66.96.56Z"/>
    <rect class="cls-2" x="800.95" y="847.02" width="133.3" height="24.2"/>
    <path class="cls-5" d="M921.18,871.38c.31,0,.56-5.38.56-12.01s-.25-12.01-.56-12.01-.55,5.38-.55,12.01.24,12.01.55,12.01Z"/>
    <path class="cls-5" d="M928.47,871.38c.31,0,.56-5.38.56-12.01s-.25-12.01-.56-12.01-.55,5.38-.55,12.01.25,12.01.55,12.01Z"/>
    <path class="cls-5" d="M905.17,871.38c.3,0,.55-5.38.55-12.01s-.25-12.01-.55-12.01-.56,5.38-.56,12.01.25,12.01.56,12.01Z"/>
    <path class="cls-5" d="M912.46,871.38c.31,0,.56-5.38.56-12.01s-.25-12.01-.56-12.01-.55,5.38-.55,12.01.24,12.01.55,12.01Z"/>
    <path class="cls-5" d="M889.19,871.38c.31,0,.56-5.38.56-12.01s-.25-12.01-.56-12.01-.55,5.38-.55,12.01.21,12.01.55,12.01Z"/>
    <path class="cls-5" d="M896.45,871.38c.3,0,.55-5.38.55-12.01s-.25-12.01-.55-12.01-.56,5.38-.56,12.01.25,12.01.56,12.01Z"/>
    <path class="cls-5" d="M873.13,871.38c.31,0,.55-5.38.55-12.01s-.24-12.01-.55-12.01-.56,5.38-.56,12.01.33,12.01.56,12.01Z"/>
    <path class="cls-5" d="M880.42,871.38c.31,0,.56-5.38.56-12.01s-.25-12.01-.56-12.01-.55,5.38-.55,12.01.24,12.01.55,12.01Z"/>
    <path class="cls-5" d="M857.11,871.38c.31,0,.56-5.38.56-12.01s-.25-12.01-.56-12.01-.5,5.38-.5,12.01.21,12.01.5,12.01Z"/>
    <path class="cls-5" d="M864.41,871.38c.3,0,.55-5.38.55-12.01s-.25-12.01-.55-12.01-.56,5.38-.56,12.01.25,12.01.56,12.01Z"/>
    <path class="cls-5" d="M841.1,871.38c.31,0,.55-5.38.55-12.01s-.24-12.01-.55-12.01-.56,5.38-.56,12.01.25,12.01.56,12.01Z"/>
    <path class="cls-5" d="M848.38,871.38c.31,0,.56-5.38.56-12.01s-.25-12.01-.56-12.01-.55,5.38-.55,12.01.25,12.01.55,12.01Z"/>
    <path class="cls-5" d="M825.07,871.38c.31,0,.56-5.38.56-12.01s-.25-12.01-.56-12.01-.55,5.38-.55,12.01.25,12.01.55,12.01Z"/>
    <path class="cls-5" d="M832.37,871.38c.3,0,.55-5.38.55-12.01s-.25-12.01-.55-12.01-.56,5.38-.56,12.01.25,12.01.56,12.01Z"/>
    <path class="cls-5" d="M809.06,871.38c.31,0,.55-5.38.55-12.01s-.24-12.01-.55-12.01-.55,5.38-.55,12.01.24,12.01.55,12.01Z"/>
    <path class="cls-5" d="M816.35,871.38c.31,0,.56-5.38.56-12.01s-.25-12.01-.56-12.01-.55,5.38-.55,12.01.25,12.01.55,12.01Z"/>
    <path class="cls-5" d="M800.95,847c0,.31,30.05.55,67.11.55s67.14-.24,67.14-.55-30.05-.55-67.14-.55-67.11.24-67.11.55Z"/>
    <rect class="cls-2" x="811.4" y="871.03" width="133.3" height="24.2"/>
    <path class="cls-5" d="M931.64,895.39c.3,0,.55-5.38.55-12s-.25-12.01-.55-12.01-.56,5.38-.56,12.01.25,12,.56,12Z"/>
    <path class="cls-5" d="M938.92,895.39c.31,0,.55-5.38.55-12s-.24-12.01-.55-12.01-.55,5.38-.55,12.01.24,12,.55,12Z"/>
    <path class="cls-5" d="M915.61,895.39c.31,0,.56-5.38.56-12s-.25-12.01-.56-12.01-.55,5.38-.55,12.01.25,12,.55,12Z"/>
    <path class="cls-5" d="M922.91,895.39c.3,0,.55-5.38.55-12s-.25-12.01-.55-12.01-.56,5.38-.56,12.01.25,12,.56,12Z"/>
    <path class="cls-5" d="M899.56,895.39c.3,0,.55-5.38.55-12s-.25-12.01-.55-12.01-.56,5.38-.56,12.01.3,12,.56,12Z"/>
    <path class="cls-5" d="M906.96,895.39c.31,0,.56-5.38.56-12s-.25-12.01-.56-12.01-.55,5.38-.55,12.01.16,12,.55,12Z"/>
    <path class="cls-5" d="M883.58,895.39c.31,0,.56-5.38.56-12s-.25-12.01-.56-12.01-.55,5.38-.55,12.01.24,12,.55,12Z"/>
    <path class="cls-5" d="M890.88,895.39c.3,0,.55-5.38.55-12s-.25-12.01-.55-12.01-.56,5.38-.56,12.01.25,12,.56,12Z"/>
    <path class="cls-5" d="M867.56,895.39c.31,0,.55-5.38.55-12s-.24-12.01-.55-12.01-.56,5.38-.56,12.01.25,12,.56,12Z"/>
    <path class="cls-5" d="M874.85,895.39c.31,0,.56-5.38.56-12s-.25-12.01-.56-12.01-.55,5.38-.55,12.01.25,12,.55,12Z"/>
    <path class="cls-5" d="M851.54,895.39c.31,0,.56-5.38.56-12s-.25-12.01-.56-12.01-.55,5.38-.55,12.01.25,12,.55,12Z"/>
    <path class="cls-5" d="M858.84,895.39c.3,0,.55-5.38.55-12s-.25-12.01-.55-12.01-.56,5.38-.56,12.01.25,12,.56,12Z"/>
    <path class="cls-5" d="M835.53,895.39c.31,0,.55-5.38.55-12s-.24-12.01-.55-12.01-.55,5.38-.55,12.01.24,12,.55,12Z"/>
    <path class="cls-5" d="M842.82,895.39c.31,0,.56-5.38.56-12s-.25-12.01-.56-12.01-.55,5.38-.55,12.01.25,12,.55,12Z"/>
    <path class="cls-5" d="M819.58,895.39c.3,0,.55-5.38.55-12s-.25-12.01-.55-12.01-.56,5.38-.56,12.01.19,12,.56,12Z"/>
    <path class="cls-5" d="M826.81,895.39c.31,0,.55-5.38.55-12s-.24-12.01-.55-12.01-.56,5.38-.56,12.01.25,12,.56,12Z"/>
    <path class="cls-5" d="M811.39,871.01c0,.31,29.99.56,66.96.56s66.96-.25,66.96-.56-29.96-.55-66.96-.55-66.96.25-66.96.55Z"/>
    <g class="cls-10">
      <path d="M928.79,773.96c-19.91,4.89-41.11,5.84-61.57,4.44s-41.11-4.37-61.61-4.12l123.18-.33Z"/>
    </g>
    <g class="cls-10">
      <path d="M927.59,749.86c-19.91,4.89-41.11,5.84-61.58,4.44s-41.1-4.37-61.61-4.12l123.2-.33Z"/>
    </g>
    <g class="cls-10">
      <path d="M921.14,798.2c-19.91,4.9-41.11,5.85-61.57,4.44s-41.11-4.37-61.61-4.12l123.18-.33Z"/>
    </g>
    <g class="cls-10">
      <path d="M926.36,822.37c-19.91,4.89-41.11,5.84-61.57,4.44-20.45-1.39-41.11-4.35-61.61-4.12l123.18-.33Z"/>
    </g>
    <g class="cls-10">
      <path d="M924.73,846.44c-19.91,4.9-41.11,5.84-61.58,4.44s-41.1-4.37-61.6-4.13l123.18-.31Z"/>
    </g>
    <g class="cls-10">
      <path d="M931.3,870.98c-19.91,4.89-41.13,5.84-61.58,4.44s-41.11-4.37-61.61-4.12l123.2-.33Z"/>
    </g>
    <path class="cls-6" d="M928.53,741.55c.3,0,.55-2.96.55-6.64s-.25-6.62-.55-6.62-.56,2.96-.56,6.62.25,6.64.56,6.64Z"/>
    <path class="cls-6" d="M936.92,767.41c.31,0,.56-3.18.56-7.11s-.25-7.12-.56-7.12-.55,3.18-.55,7.12.21,7.11.55,7.11Z"/>
    <path class="cls-6" d="M924.96,792.31c.31,0,.56-2.83.56-6.31s-.25-6.31-.56-6.31-.55,2.83-.55,6.31.33,6.31.55,6.31Z"/>
    <path class="cls-6" d="M937.25,815.26c.31,0,.55-2.53.55-5.66s-.24-5.66-.55-5.66-.56,2.53-.56,5.66.25,5.66.56,5.66Z"/>
    <path class="cls-6" d="M888.43,751.56c0,.31,9.83.56,21.98.56s21.99-.25,21.99-.56-9.85-.55-21.99-.55-21.98.25-21.98.55Z"/>
    <path class="cls-6" d="M874.2,728.33c0,.3,9.92.55,22.22.55s22.22-.25,22.22-.55-9.92-.56-22.22-.56-22.22.22-22.22.56Z"/>
    <path class="cls-6" d="M852.86,728.61c0,.31,3.26.56,7.29.56s7.27-.25,7.27-.56-3.26-.55-7.27-.55-7.29.27-7.29.55Z"/>
    <path class="cls-6" d="M923.99,845.86c.53-6.16.53-12.35,0-18.51-.55,6.16-.55,12.35,0,18.51Z"/>
    <path class="cls-6" d="M844.36,868.55c0,.24,19.15.41,42.79.41s42.79-.18,42.79-.41-19.17-.4-42.79-.4-42.79.18-42.79.4Z"/>
    <path class="cls-6" d="M942.85,890.56c.55-3.47.55-7,0-10.47-.53,3.47-.53,7,0,10.47Z"/>
    <path class="cls-6" d="M848.55,892.72c0,.22,19.86.4,44.43.4s44.43-.18,44.43-.4-19.86-.41-44.43-.41-44.43.12-44.43.41Z"/>
    <path class="cls-5" d="M944.7,895.23c.02-.15.02-.3,0-.44v-1.27c0-1.19.03-2.82.09-4.89,0-4.32,0-10.37.13-17.77v-.34h-9.83l.37.37v-24.59h-9.09l.41.4v-24.56l-.37.37h13.14v-.33c0-7.41-.1-13.33-.13-17.65,0-2.04,0-3.66-.09-4.84v-1.27c.12-.02.2-.14.17-.26-.02-.12-.14-.2-.26-.17s-.2.14-.17.26c.02.09.09.16.17.17v1.27c0,1.18,0,2.8-.07,4.84,0,4.27-.09,10.37-.15,17.65l.33-.31h-13.26v25.34h9.23l-.41-.41v24.54h.37l9.51-.15-.33-.31c0,7.41.1,13.49.15,17.77v6.16c.02.14.05.28.1.41Z"/>
  </g>
  <g id="freepik--speech-bubble--inject-116">
    <polygon class="cls-6" points="240.98 345.88 265.64 319.3 243.96 291.72 278.44 292.79 284.14 263.31 304.49 285.79 329.19 267.9 327.67 301.6 360 303.63 337.31 327.12 359.51 352.71 324.97 356.86 322.78 386.29 293.87 366.16 269.4 390.82 275.06 355.54 240.98 345.88"/>
    <path class="cls-5" d="M240.98,345.88l34.06,9.86-.15-.24c-1.58,9.75-3.52,21.67-5.73,35.26l-.15.87.64-.64,24.5-24.62h-.43l28.88,20.17.55.37v-.65c.7-9.32,1.48-19.25,2.21-29.43l-.34.37,34.55-4.13.77-.1-.52-.58c-7.06-8.18-14.56-16.81-22.22-25.61v.56c6.24-6.43,12.83-13.33,19.51-20.17l3.18-3.3.65-.67h-.93l-32.33-2.04.4.44c.52-11.5,1.02-22.73,1.48-33.69v-.86l-.68.5-24.62,17.91h.52l-20.36-22.41-.5-.55-.13.73-5.69,29.46.34-.27-34.46-1.04h-.62l.39.49,21.74,27.52v-.27c-15.64,17.08-23.52,25.58-24.5,26.73l24.82-26.45.12-.13-.1-.13-21.64-27.62-.22.46,34.46,1.13h.28v-.28c1.81-9.28,3.72-19.1,5.75-29.46l-.64.18,20.35,22.5.24.27.28-.21,24.7-17.88-.64-.36c-.5,10.95-1.02,22.22-1.48,33.69v.41h.41l32.33,2.03-.28-.73-3.18,3.3-19.55,20.22-.27.27.25.3,22.22,25.59.27-.68-34.57,4.18h-.31v.33c-.76,10.22-1.48,20.11-2.16,29.43l.58-.27-28.93-20.11-.24-.16-.19.21-24.45,24.75.49.25c2.15-13.61,4.04-25.53,5.58-35.28v-.19h-.18l-34.11-9.54Z"/>
    <path class="cls-2" d="M300.14,347.2c-3.27-.1-5.84-2.83-5.74-6.1.1-3.27,2.83-5.84,6.1-5.74,3.11.1,5.62,2.58,5.74,5.7.07,3.32-2.56,6.07-5.88,6.15-.07,0-.15,0-.22,0ZM302.77,329.12l-7.09.28-2.81-27.33,10.6-.43-.7,27.47Z"/>
  </g>
  <g id="freepik--Character--inject-116">
    <path class="cls-5" d="M233.56,862.44l-1.13,29.62s29.74,11.09,30.07,16.59l-57.57-.1-.15-46.24,28.78.13Z"/>
    <path class="cls-9" d="M214.65,889.54c-1.14.35-1.84,1.5-1.63,2.68.31,1.16,1.47,1.88,2.65,1.64,1.21-.37,1.95-1.6,1.7-2.84-.41-1.23-1.73-1.89-2.96-1.48,0,0,0,0,0,0"/>
    <path class="cls-12" d="M204.93,908.54l.16-4.67,55.1,1.87s2.56,1.13,2.27,2.96l-57.52-.16Z"/>
    <path class="cls-6" d="M233.37,891.78c0,.28-1.41.41-2.8,1.32s-2.12,2.07-2.38,1.96.16-1.73,1.87-2.78,3.38-.74,3.32-.49Z"/>
    <path class="cls-6" d="M239.4,894.29c0,.27-1.16.74-2.1,1.93s-1.24,2.44-1.48,2.43-.44-1.6.77-3.05,2.81-1.57,2.81-1.3Z"/>
    <path class="cls-6" d="M242.82,901.52c-.27,0-.65-1.35,0-2.89s2.04-2.15,2.16-1.91-.7,1.05-1.27,2.33-.61,2.44-.89,2.47Z"/>
    <path class="cls-6" d="M232.88,884.99c-.12.27-1.48-.13-2.96,0s-2.83.61-2.96.37,1.05-1.24,2.96-1.33,3.15.76,2.96.96Z"/>
    <path class="cls-5" d="M159.31,859.52l-3.11,35.75,5.69,28.97c.38,2-.93,3.93-2.93,4.32-.08.01-.15.03-.23.04h0c-1.18.16-2.36-.28-3.15-1.16-5.12-5.58-23.89-26.24-23.52-28.85.44-2.96.78-37.92.78-37.92l26.47-1.16Z"/>
    <path class="cls-12" d="M158.74,928.6l-26.51-32.42-.1,1.48c-.09,1.31.3,2.61,1.08,3.66,2.1,2.81,8.07,10.47,22.22,26.08.83.91,2.06,1.34,3.27,1.16l.04.04Z"/>
    <g class="cls-3">
      <path class="cls-6" d="M140.31,885.1c.88.73,1.06,2.02.41,2.96-.7.93-2.02,1.12-2.96.43-.93-.77-1.11-2.12-.43-3.11.83-.86,2.19-.91,3.08-.12"/>
    </g>
    <path class="cls-6" d="M151.61,912.44c.93-1.06,2.06-1.94,3.32-2.59,1.35-.44,2.76-.62,4.18-.52,0-.09-.4-.4-1.23-.56-1.09-.2-2.22-.08-3.24.36-1.03.42-1.91,1.13-2.55,2.04-.47.71-.61,1.23-.47,1.27Z"/>
    <path class="cls-6" d="M153.81,917.38c1.06-.51,2.16-.95,3.27-1.33,1.17-.15,2.35-.22,3.52-.22-1.07-.77-2.45-.97-3.7-.55-2.15.49-3.27,2-3.1,2.1Z"/>
    <path class="cls-6" d="M147.17,906.05c1.57-.93,3.21-1.73,4.9-2.4,1.77-.44,3.57-.74,5.39-.9-1.84-.61-3.83-.56-5.63.15-1.88.46-3.53,1.58-4.67,3.15Z"/>
    <path class="cls-6" d="M147.24,895.04c.09.22,2.12-.47,4.7-.4s4.58.81,4.67.61c-1.33-1-2.98-1.5-4.65-1.39-1.66-.17-3.33.25-4.71,1.18Z"/>
    <path class="cls-6" d="M147.9,884.52c1.59-.4,3.23-.58,4.87-.55,1.62.28,3.19.77,4.67,1.48,0-.07-.3-.55-1.08-1.08-1.06-.67-2.26-1.08-3.51-1.2-1.24-.13-2.5.04-3.66.5-.89.37-1.33.77-1.29.84Z"/>
    <path class="cls-6" d="M152.83,881.97c.16-.44.21-.9.15-1.36-.04-1.25-.33-2.48-.86-3.61-.3-.87-.89-1.61-1.66-2.1-.55-.28-1.22-.19-1.67.22-.41.43-.66.99-.68,1.58.01,2.49,1.79,4.62,4.24,5.08,2.41.4,4.83-.69,6.12-2.77.31-.52.39-1.14.21-1.72-.26-.58-.85-.93-1.48-.87-.89.15-1.73.52-2.43,1.08-1.02.71-1.91,1.6-2.62,2.62-.3.35-.51.76-.64,1.2,1.02-1.28,2.22-2.42,3.55-3.36.63-.46,1.37-.76,2.15-.87.34-.05.67.14.8.46.11.39.04.8-.19,1.13-1.16,1.76-3.25,2.67-5.33,2.34-2.08-.37-3.61-2.16-3.66-4.27,0-.41.16-.81.43-1.13.24-.24.62-.29.92-.13.67.42,1.18,1.03,1.48,1.76.68,1.49,1.08,3.09,1.18,4.72Z"/>
    <path class="cls-5" d="M256.89,628.84h0c-.19-4.34-.61-9.24-1.1-12.81-3.88,1.2-4.19,2.96-8.26,3.72-10.78,1.7-21.72,2.06-32.58,1.1h-.73c-22.42-1.9-39.59-6.93-62.75-13.82l-9.48,25.03-8.49,126.32-6.16,128.69h38.32s13.51-99,14.56-112.69c1.17-15.26,19.46-109.9,19.46-109.9l3.33-.83-2.06,221.84h39.69s15.94-238.85,16.29-247.34c.1-3.13.07-6.31-.04-9.3Z"/>
    <path class="cls-1" d="M252.74,456.55s13.33-5.92,13.33-6.43l15.76-21.7s18.39,12.72,27.28,21.13c3.26,3.2,4.82,7.75,4.21,12.28h0c.15,7.88-11.55,16.29-16.29,19.05-7.63,4.44-34.64,13.7-36.21,17.25-.21.44-9.73-7.57-10.81-21.62-1.08-14.06,2.74-19.96,2.74-19.96Z"/>
    <path class="cls-1" d="M114.26,487.72s-25.7,24.08-25.7,29.62c0,13.79,31.1,66.96,31.1,66.96l13.98-10.47-15.68-47.76,15.73-15.14-19.43-23.21Z"/>
    <path class="cls-2" d="M243.11,447.4s1.97.18-5.6-.43c-3.88-.33-12.83,0-12.83,0l-38.91,1.93s-40.82,1.93-43.75,7.41,7.14,115.08,7.14,115.08l1.08,27.96s-7.41,26.66-6.75,27.07,35.12,6.87,59.32,7.61c22.57.68,56.28-8.89,56.28-8.89l-4.25-72.1.49-57.98-12.22-47.66Z"/>
    <path class="cls-2" d="M148.35,453.19s-12.94,4.15-19.76,11.67c-2.81,3.11-26.39,32.58-26.39,32.58,0,0,26.14,26.5,27.8,27.07.87.3,15.2-18.5,15.2-18.5,0,0-1.32-27.12-1.6-27.99s4.75-24.84,4.75-24.84Z"/>
    <path class="cls-1" d="M133.69,572.32c.31.33,3.39,6.53,3.39,6.53l12.66,5.92-.68,9.58s7.89,11.98,7.15,14.6-3.15.64-3.15.64l-6.72-8.31s5.72,11.85,6.52,13.33c.96,1.87.21,3.47-1.69,2.83s-8.09-10.19-8.89-10.93,2.64,7.15,3.79,8.62,3.36,5.79,1.67,6.72-3.36-.31-4.52-1.78-6.62-12.31-8.31-13.98-7.67-3.69-9.78-7.57c-2.11-4.66-3.94-9.44-5.49-14.31l14.04-11.91Z"/>
    <path class="cls-2" d="M294.73,482.14s-9.76-4.01-15.7-12.06c-5.94-8.04-15.6-19.55-15.6-19.55l-20.85-3.17-2.49,13.82,6.15,44.17,8.04,6.65,1.01-11.42s31.31-11.14,36.94-14.22c4.71-2.56,2.5-4.22,2.5-4.22Z"/>
    <path class="cls-5" d="M255.66,466.09c.22,0,.39,8.37.39,18.71s-.16,18.71-.39,18.71-.39-8.37-.39-18.71.18-18.71.39-18.71Z"/>
    <path class="cls-5" d="M142.22,476.84c.23,1.71.37,3.43.41,5.15.21,3.18.59,7.57,1.02,12.43s.74,9.26.81,12.47v3.79c.01.46-.03.93-.13,1.38-.23-1.71-.37-3.43-.41-5.15-.22-3.17-.61-7.57-1.04-12.43s-.73-9.26-.8-12.47v-3.79c-.03-.46.01-.93.13-1.38Z"/>
    <path class="cls-4" d="M108.66,521.57c4.09.23,7.85,2.34,10.17,5.72-.18.16-1.98-1.81-4.81-3.36s-5.45-2.12-5.36-2.35Z"/>
    <path class="cls-5" d="M164.71,593.28c.68-.21,1.38-.36,2.09-.44l5.72-1.01c4.83-.87,11.46-2.25,18.71-4.16s13.67-4.03,18.29-5.66l5.48-1.96c.66-.28,1.33-.5,2.03-.67-.61.38-1.25.69-1.93.93-1.26.56-3.1,1.32-5.39,2.19-5.99,2.3-12.09,4.28-18.29,5.92-6.19,1.65-12.46,2.97-18.79,3.95-2.43.39-4.44.64-5.78.77-.7.11-1.42.15-2.13.12Z"/>
    <path class="cls-5" d="M221.86,378.23c3.92.21,7.27-2.79,7.48-6.71.18-3.36-2.01-6.38-5.26-7.25,2.7-3.07,2.41-7.75-.66-10.45-1.77-1.56-4.17-2.18-6.48-1.68-.51-4.88-4.89-8.42-9.77-7.91-1.41.15-2.77.64-3.96,1.42-3.7-2.67-8.74-2.49-12.23.44-3.88-.48-7.42,2.27-7.9,6.15-.29,2.32.59,4.64,2.35,6.19"/>
    <path class="cls-1" d="M189.85,353.24l1.56-.09c15.68-.88,29.41,10.44,31.53,26.01,1.98,14.47,3.98,30.5,4.32,38.3.7,16.16-15.33,19.57-15.33,19.57l1.58,12.47h0c-5.93,9.54-18.48,12.47-28.03,6.54-.88-.55-1.72-1.17-2.51-1.84l-5.82-5.01-9.42-62.06c-2.37-16.69,5.36-32.04,22.11-33.89Z"/>
    <path class="cls-4" d="M211.94,437.03c-7.46.4-14.88-1.35-21.37-5.05,0,0,5.85,11.37,21.88,9.03l-.5-3.98Z"/>
    <path class="cls-5" d="M220.99,371.85s-4.83-9.88-9.83-11.98c-6.06-2.52-8.25,4.1-13.97,2.84s-11.49-3.69-17,.98c-6.03,5.11-2.96,8.28-2.89,15.48,0,29.13-4.81,37.65-7.08,24.04-.25-1.48-4.44-2.44-5.45-8.74-1.26-8.18-2.12-18.13-.61-24.07,1.27-4.99,3.88-8.55,8.69-12.56,7.6-6.35,18.48-7.08,25.93-6.75s22.17,8.06,22.2,20.76Z"/>
    <path class="cls-1" d="M171.22,402.71c-.24-2.44-2.42-4.22-4.86-3.98-.04,0-.08,0-.12.01-2.96.46-6.25,2.35-5.7,8.58.96,11.02,11.85,7.78,11.85,7.41s-.73-7.41-1.17-12.01Z"/>
    <path class="cls-4" d="M169.59,410.84s-.18.15-.49.33c-.45.24-.99.3-1.48.15-1.54-.79-2.52-2.35-2.58-4.07-.11-.94,0-1.89.3-2.78.14-.72.64-1.32,1.32-1.6.44-.17.93,0,1.17.41.18.3.13.53.19.55s.22-.21.09-.67c-.09-.26-.26-.49-.49-.65-.33-.2-.72-.26-1.1-.18-.9.26-1.6.97-1.85,1.88-.39.99-.52,2.07-.4,3.13.27,2.22,1.58,4.21,3.21,4.44.62.13,1.25-.04,1.73-.44.39-.22.41-.47.37-.49Z"/>
    <path class="cls-5" d="M170.25,381.31c1.42,1.02,3.07,1.67,4.8,1.9,1.79.17,3.44-1,3.85-2.75.09-.77-.15-1.66.33-2.28s1.69-.58,2.62-.53c3.23.16,6.78-3.6,7.41-6.77.96,1.16,2.63,1.41,3.9.59.99-.68,1.84-1.54,2.53-2.52.81-1.26,2.19-2.05,3.69-2.1.79.23,1.61.36,2.43.4,1.48-.21,2.06-1.96,2.19-3.41s.22-3.14,1.41-3.98c1.25-.58,2.66-.69,3.98-.31,1.35.12,3.05-.3,3.32-1.61.08-.71-.14-1.43-.61-1.97-1.99-2.65-5.55-3.58-8.59-2.25-1.8-5.05-7.35-7.68-12.4-5.88-2.43.87-4.41,2.66-5.51,4.99-4.24-3.42-10.45-2.77-13.87,1.47-.72.89-1.28,1.89-1.65,2.97-3.87-.76-7.62,1.76-8.38,5.63-.35,1.79,0,3.65.98,5.2-2.03,1.15-3.33,3.27-3.44,5.6.09,2.28,2.44,4.44,4.62,3.72-.82,2.02.15,4.33,2.18,5.15,1.79.73,3.85.05,4.86-1.6"/>
    <path class="cls-12" d="M204.47,356.9v.19c.01.2.01.4,0,.59-.11.76-.34,1.49-.68,2.18-.55,1.08-1.34,2.02-2.31,2.75-1.28.96-2.84,1.48-4.44,1.48l.16-.27c.41.98.41,2.08,0,3.07-.44,1.02-1.03,1.97-1.75,2.83-.34.48-.73.93-1.16,1.33-1.63,1.2-3.88,1.05-5.35-.34l.41-.13c-.18,2.34-1.35,4.49-3.2,5.92-1.01.83-2.25,1.32-3.55,1.39-1.23.01-2.46-.19-3.63-.59l.3-.15c-.5,1.37-1.33,2.59-2.43,3.55-1.01.98-2.4,1.44-3.79,1.26-2.39-.37-4.33-2.11-4.95-4.44l.27.09c-1.12.69-2.46.96-3.76.77-.98-.12-1.91-.47-2.73-1.02-.5-.36-.94-.79-1.3-1.29-.12-.17-.23-.36-.31-.55.47.65,1.05,1.22,1.72,1.67.8.51,1.71.82,2.65.92,1.24.16,2.49-.12,3.54-.78l.21-.12v.22c.59,2.19,2.42,3.83,4.67,4.16,1.27.15,2.53-.28,3.44-1.18,1.03-.91,1.81-2.07,2.28-3.36v-.21h.22c1.11.37,2.28.56,3.45.56,1.21-.06,2.36-.52,3.29-1.3,1.73-1.36,2.81-3.39,2.96-5.58v-.52l.37.39c.85.82,2.04,1.18,3.2.95.54-.1,1.05-.32,1.48-.65.41-.37.78-.79,1.1-1.24.69-.82,1.27-1.73,1.72-2.71.39-.88.41-1.87.07-2.77l-.1-.25h.28c1.54-.02,3.04-.54,4.27-1.48.95-.69,1.73-1.58,2.3-2.61.51-.84.88-1.76,1.1-2.73Z"/>
    <path class="cls-5" d="M220.48,395.25c.07,1.25-.87,2.33-2.12,2.43-1.2.15-2.3-.7-2.45-1.9,0-.02,0-.05,0-.07-.08-1.25.87-2.33,2.12-2.43,1.2-.15,2.3.7,2.45,1.9,0,.02,0,.05,0,.07Z"/>
    <path class="cls-5" d="M221.36,386.98c-.27.31-2.07-.9-4.55-.78s-4.25,1.48-4.53,1.16.13-.68.9-1.3c1.03-.81,2.29-1.27,3.6-1.33,1.29-.06,2.57.29,3.64,1.01.8.59,1.07,1.13.93,1.26Z"/>
    <path class="cls-5" d="M204.61,414.66c-.34.22-1.73-1.48-4.15-2.03s-4.44.18-4.65-.18.31-.62,1.21-.99c1.22-.46,2.55-.54,3.82-.22,1.26.3,2.38,1,3.21,1.98.61.76.73,1.35.55,1.44Z"/>
    <path class="cls-5" d="M198.34,396.25c.08,1.25-.87,2.33-2.12,2.43-1.2.15-2.3-.7-2.45-1.9,0-.02,0-.05,0-.07-.07-1.24.86-2.32,2.1-2.43,1.22-.15,2.32.72,2.47,1.94,0,0,0,.02,0,.03Z"/>
    <path class="cls-5" d="M197.08,388.66c-.27.31-2.07-.9-4.55-.78s-4.24,1.48-4.53,1.14.13-.68.9-1.29c1.04-.79,2.29-1.24,3.6-1.29,1.29-.06,2.56.28,3.64.99.78.55,1.07,1.08.93,1.23Z"/>
    <path class="cls-5" d="M206.83,407.3c1.29-.47,2.63-.78,4-.92.64-.09,1.23-.24,1.3-.68.03-.65-.15-1.3-.5-1.85-.67-1.48-1.35-3.08-2.09-4.74-2.96-6.74-5.04-12.31-4.77-12.41s2.86,5.26,5.76,12c.7,1.67,1.38,3.26,2.01,4.77.43.75.58,1.62.43,2.47-.17.46-.53.82-.99.98-.35.11-.7.17-1.07.19-1.35.23-2.72.3-4.09.19Z"/>
    <path class="cls-5" d="M185.81,382.98c.09-.71,2.58-.95,5.33-1.93s4.89-2.27,5.41-1.76c.22.24,0,.95-.81,1.79-2.14,2.15-5.16,3.19-8.18,2.81-1.14-.18-1.78-.58-1.75-.92Z"/>
    <path class="cls-5" d="M211.83,377.18c.64-.37,2.15.81,4.18,1.61s3.92,1.07,4.12,1.78c.07.33-.4.76-1.35.96-2.56.43-5.15-.62-6.68-2.73-.52-.81-.55-1.5-.27-1.63Z"/>
    <path class="cls-1" d="M242.86,402.95s-14.23-27.71-15.71-29.06c0,0-15.31-6.13-15.74-5.58-.65,1.27-.56,2.8.24,3.98l-7.83-.86c-.87,1.34-.72,3.11.37,4.28,1.9,2.03,10.28,3.44,10.1,3.44s-12.6-1.48-12.6-1.48c0,0-.68,4.1,2.62,4.77-.77,1.52-.29,3.37,1.11,4.34,2.44,1.66,15.67,5.51,15.67,5.51l2.56,3.44s2.7,13.46,4.84,15.42,38.2,40.36,38.2,40.36l15.18-23.09-39-25.46Z"/>
    <path class="cls-4" d="M280.11,465.88s-.12-.09-.34-.31l-.95-.95-3.61-3.75-13.33-14c-5.64-5.92-12.4-13.08-19.95-21.08l-11.97-12.56-1.58-1.61c-.57-.59-1.02-1.27-1.33-2.03-.58-1.45-1.08-2.93-1.48-4.44-.87-2.96-1.6-6.15-2.27-9.33v.15c-.81-1.07-1.69-2.25-2.58-3.42l.19.13c-3.33-.98-6.86-2.07-10.37-3.3-1.72-.56-3.4-1.24-5.02-2.04-.88-.45-1.55-1.24-1.85-2.19-.25-.95-.15-1.97.27-2.86l.27.55c-1.14-.21-2.09-.97-2.56-2.03-.4-1.01-.53-2.11-.37-3.18v-.36h.39l7.26.86,3.57.41.87.1h.86c0,.25-.12-.59-.24.65h.13l-1.72-.36c-2.29-.45-4.53-1.13-6.69-2.01-.53-.24-1.03-.54-1.48-.9-.48-.4-.85-.91-1.08-1.48-.43-1.16-.28-2.46.4-3.5l.1-.18h.22l7.83.86-.3.55c-.62-.85-.88-1.92-.71-2.96.03-.25.08-.5.15-.74.03-.13.08-.25.13-.37l.09-.19c.09,0,0-.09.25-.25.17-.05.36-.05.53,0h.37l.68.19c1.78.53,3.45,1.17,5.09,1.78,3.27,1.21,6.37,2.43,9.27,3.6h.07c.76,1.02,1.45,2.1,2.04,3.23.58,1.07,1.16,2.1,1.72,3.11l3.05,5.73,4.78,9.24c1.26,2.52,2.27,4.44,2.96,5.92.31.65.55,1.16.74,1.48s.24.53.24.53c-.12-.16-.22-.33-.31-.5l-.81-1.48c-.72-1.37-1.75-3.31-3.1-5.81l-4.89-9.18-3.11-5.7-1.73-3.1c-.59-1.06-1.24-2.09-1.96-3.07h0c-2.96-1.14-5.92-2.34-9.27-3.54-1.64-.59-3.33-1.21-5.07-1.73l-.65-.18c-.11-.01-.22-.01-.33,0h-.21v-.12c0-.06-.04-.11-.09-.13l.21.16h0v.12c-.04.09-.08.18-.1.28-.06.21-.1.42-.12.64-.13.86.08,1.74.58,2.46l.5.62-.8-.09-7.83-.83.33-.16c-.55.85-.67,1.91-.31,2.86.45.95,1.26,1.67,2.25,2,2.12.86,4.32,1.51,6.56,1.94l1.73.36h0l.16.07c-.12,1.24-.31.41-.24.67h-.9l-.89-.1-3.58-.41-7.32-.84.41-.31c-.14.92-.03,1.87.31,2.74.37.83,1.12,1.43,2.01,1.6l.47.09-.21.46c-.33.71-.4,1.52-.21,2.28.24.76.77,1.39,1.48,1.75,1.58.77,3.21,1.44,4.89,1.98,3.51,1.23,7.04,2.31,10.37,3.3h.12l.07.1c.89,1.17,1.76,2.35,2.58,3.42h0v.09c.65,3.15,1.38,6.26,2.24,9.27.4,1.48.9,2.94,1.48,4.35.25.68.65,1.29,1.16,1.81l1.6,1.64,11.94,12.6,19.83,21.19,13.14,14.14,3.51,3.84.9,1.01c.19.21.34.47.43.74Z"/>
    <path class="cls-4" d="M217.34,385.97c-2.21-.21-4.4-.68-6.5-1.39-2.17-.47-4.29-1.18-6.29-2.13,2.21.21,4.4.68,6.5,1.39,2.17.47,4.29,1.18,6.29,2.13Z"/>
    <path class="cls-4" d="M223.15,382.51c-1.41-.94-2.96-1.65-4.59-2.1-1.73-.25-3.42-.75-5.01-1.48,1.76-.03,3.51.19,5.2.67,1.25.27,2.42.81,3.42,1.6.76.71,1.05,1.26.98,1.32Z"/>
    <path class="cls-4" d="M223.59,376.3c-.09.16-2.64-.9-5.92-1.87-2.05-.47-4.04-1.18-5.92-2.1,2.09.2,4.14.66,6.12,1.38,3.36.95,5.87,2.38,5.73,2.59Z"/>
  </g>
  <path class="cls-11" d="M610.28,588.09c-4.35-.61-8.49-.3-12.62-.07-2.64.15-4.16-.65-4.21-3.81-.05-3.38,2.13-3.08,4.15-3.16,3.92-.15,7.85-.16,12.62-.25-3.68-4.13-7.64-3.74-11.53-3.55-3.19.16-5.26-.46-5.22-4.52.03-2.86.76-3.59,3.48-3.58,8.85.04,17.7-.14,26.55-.22,2.63-.02,4.69.26,4.71,3.89.03,4.17-3.03,2.19-4.75,2.94-1.35.59-3.99-1.41-4.02,1.67-.02,2.74,2.13,3.3,4.41,3.26,2.73-.05,4.7.38,4.63,3.93-.08,3.79-2.86,2.98-4.79,2.95-2.23-.03-2.88,1-3.64,2.79-2.06,4.9-5.5,8.42-10.92,9.54-3.05.64-2.61,1.88-.92,3.79,4.37,4.94,8.66,9.97,12.87,15.05.8.97,2.53,1.81,1.69,3.47-.77,1.52-2.5.91-3.8,1.08-3.27.41-5.89-.41-8.18-3.24-4.69-5.8-9.76-11.29-14.77-16.82-1.89-2.09-3.06-4.36-2.17-7.09,1.02-3.14,3.94-2.29,6.24-2.39,4.31-.18,8.38-.59,10.18-5.68Z"/>
  <path class="cls-11" d="M659.15,589.58c-4.35-.61-8.49-.3-12.62-.07-2.64.15-4.16-.65-4.21-3.81-.05-3.38,2.13-3.08,4.15-3.16,3.92-.15,7.85-.16,12.62-.25-3.68-4.13-7.64-3.74-11.53-3.55-3.19.16-5.26-.46-5.22-4.52.03-2.86.76-3.59,3.48-3.58,8.85.04,17.7-.14,26.55-.22,2.63-.02,4.69.26,4.71,3.89.03,4.17-3.03,2.19-4.75,2.94-1.35.59-3.99-1.41-4.02,1.67-.02,2.74,2.13,3.3,4.41,3.26,2.73-.05,4.7.38,4.63,3.93-.08,3.79-2.86,2.98-4.79,2.95-2.23-.03-2.88,1-3.64,2.79-2.06,4.9-5.5,8.42-10.92,9.54-3.05.64-2.61,1.88-.92,3.79,4.37,4.94,8.66,9.97,12.87,15.05.8.97,2.53,1.81,1.69,3.47-.77,1.52-2.5.91-3.8,1.08-3.27.41-5.89-.41-8.18-3.24-4.69-5.8-9.76-11.29-14.77-16.82-1.89-2.09-3.06-4.36-2.17-7.09,1.02-3.14,3.94-2.29,6.24-2.39,4.31-.18,8.38-.59,10.18-5.68Z"/>
  <path class="cls-11" d="M712.47,586.61c-4.35-.61-8.49-.3-12.62-.07-2.64.15-4.16-.65-4.21-3.81-.05-3.38,2.13-3.08,4.15-3.16,3.92-.15,7.85-.16,12.62-.25-3.68-4.13-7.64-3.74-11.53-3.55-3.19.16-5.26-.46-5.22-4.52.03-2.86.76-3.59,3.48-3.58,8.85.04,17.7-.14,26.55-.22,2.63-.02,4.69.26,4.71,3.89.03,4.17-3.03,2.19-4.75,2.94-1.35.59-3.99-1.41-4.02,1.67-.02,2.74,2.13,3.3,4.41,3.26,2.73-.05,4.7.38,4.63,3.93-.08,3.79-2.86,2.98-4.79,2.95-2.23-.03-2.88,1-3.64,2.79-2.06,4.9-5.5,8.42-10.92,9.54-3.05.64-2.61,1.88-.92,3.79,4.37,4.94,8.66,9.97,12.87,15.05.8.97,2.53,1.81,1.69,3.47-.77,1.52-2.5.91-3.8,1.08-3.27.41-5.89-.41-8.18-3.24-4.69-5.8-9.76-11.29-14.77-16.82-1.89-2.09-3.06-4.36-2.17-7.09,1.02-3.14,3.94-2.29,6.24-2.39,4.31-.18,8.38-.59,10.18-5.68Z"/>
  <path class="cls-11" d="M456.06,353.63c-5.95-.47-11.53.3-17.12.96-3.57.42-5.69-.53-6.02-4.81-.35-4.58,2.63-4.35,5.37-4.63,5.3-.53,10.63-.87,17.09-1.38-5.33-5.3-10.67-4.44-15.93-3.86-4.32.48-7.18-.18-7.46-5.7-.2-3.89.74-4.93,4.42-5.14,12.01-.67,23.99-1.66,35.99-2.5,3.56-.25,6.38-.03,6.71,4.89.38,5.65-3.93,3.22-6.2,4.39-1.78.91-5.53-1.57-5.31,2.6.2,3.71,3.16,4.3,6.25,4.06,3.69-.29,6.41.13,6.6,4.94.21,5.15-3.63,4.28-6.25,4.4-3.03.15-3.83,1.6-4.7,4.09-2.39,6.81-6.76,11.87-14.01,13.85-4.09,1.12-3.39,2.77-.94,5.22,6.34,6.34,12.57,12.79,18.7,19.33,1.17,1.25,3.58,2.25,2.58,4.56-.92,2.13-3.31,1.45-5.06,1.78-4.4.83-8.02-.07-11.36-3.72-6.84-7.47-14.17-14.5-21.42-21.58-2.74-2.67-4.52-5.66-3.53-9.44,1.13-4.34,5.15-3.43,8.27-3.75,5.82-.6,11.31-1.49,13.33-8.55Z"/>
  <path class="cls-11" d="M105.43,717.88c-4.76-.37-9.22.24-13.69.76-2.85.33-4.55-.43-4.81-3.85-.28-3.66,2.1-3.48,4.29-3.7,4.24-.42,8.5-.7,13.66-1.1-4.27-4.24-8.53-3.55-12.73-3.09-3.45.38-5.74-.15-5.96-4.56-.16-3.11.59-3.94,3.54-4.11,9.6-.54,19.18-1.32,28.77-2,2.85-.2,5.1-.03,5.36,3.91.3,4.52-3.14,2.58-4.95,3.51-1.42.73-4.42-1.26-4.24,2.08.16,2.97,2.53,3.44,5,3.24,2.95-.24,5.12.11,5.28,3.95.16,4.12-2.91,3.42-5,3.52-2.42.12-3.06,1.28-3.76,3.27-1.91,5.44-5.4,9.49-11.2,11.07-3.27.89-2.71,2.21-.75,4.17,5.07,5.07,10.05,10.23,14.95,15.46.93,1,2.86,1.8,2.06,3.65-.74,1.7-2.65,1.16-4.05,1.42-3.52.66-6.41-.06-9.08-2.97-5.47-5.97-11.33-11.59-17.13-17.25-2.19-2.14-3.61-4.52-2.82-7.55.9-3.47,4.12-2.74,6.61-3,4.66-.48,9.05-1.19,10.66-6.84Z"/>
  <path class="cls-11" d="M970.84,713.68c-6.16-1-12.03-.7-17.9-.5-3.75.12-5.88-1.05-5.84-5.54.04-4.79,3.12-4.3,5.99-4.34,5.57-.08,11.13.02,17.91.06-5.09-5.98-10.71-5.55-16.24-5.41-4.53.12-7.45-.82-7.26-6.58.13-4.06,1.2-5.07,5.05-4.96,12.55.35,25.11.37,37.67.55,3.73.05,6.64.52,6.55,5.67-.1,5.91-4.37,3.01-6.83,4.02-1.93.79-5.62-2.12-5.75,2.24-.12,3.88,2.92,4.75,6.15,4.77,3.87.02,6.66.7,6.44,5.72-.24,5.38-4.15,4.13-6.89,4.03-3.17-.11-4.12,1.33-5.25,3.85-3.08,6.88-8.07,11.76-15.79,13.18-4.35.8-3.77,2.59-1.43,5.35,6.04,7.15,11.96,14.41,17.78,21.75,1.11,1.4,3.53,2.65,2.28,4.97-1.14,2.13-3.58,1.21-5.43,1.41-4.65.48-8.34-.78-11.5-4.86-6.46-8.37-13.48-16.33-20.41-24.33-2.62-3.02-4.21-6.28-2.85-10.13,1.55-4.42,5.66-3.12,8.93-3.18,6.11-.11,11.9-.56,14.62-7.73Z"/>
  <path class="cls-11" d="M630.12,323.45c-3.34-.26-6.46.17-9.59.54-2,.23-3.19-.3-3.37-2.7-.19-2.57,1.47-2.44,3.01-2.59,2.97-.29,5.95-.49,9.58-.77-2.99-2.97-5.98-2.49-8.92-2.16-2.42.27-4.02-.1-4.18-3.19-.11-2.18.41-2.76,2.48-2.88,6.73-.38,13.44-.93,20.16-1.4,2-.14,3.57-.02,3.76,2.74.21,3.17-2.2,1.81-3.47,2.46-1,.51-3.1-.88-2.97,1.46.11,2.08,1.77,2.41,3.5,2.27,2.07-.16,3.59.07,3.7,2.77.12,2.89-2.04,2.4-3.5,2.47-1.7.08-2.14.89-2.63,2.29-1.34,3.82-3.79,6.65-7.85,7.76-2.29.62-1.9,1.55-.53,2.92,3.55,3.55,7.04,7.17,10.48,10.83.65.7,2,1.26,1.44,2.56-.52,1.19-1.86.81-2.84,1-2.47.47-4.5-.04-6.36-2.08-3.83-4.19-7.94-8.12-12-12.09-1.54-1.5-2.53-3.17-1.98-5.29.63-2.43,2.89-1.92,4.63-2.1,3.26-.33,6.34-.84,7.47-4.79Z"/>
  <g id="freepik--Floor--inject-116">
    <path class="cls-5" d="M1050.33,896.13c0,.21-226,.39-504.72.39s-504.78-.18-504.78-.39,225.95-.44,504.75-.44,504.75.24,504.75.44Z"/>
  </g>
</svg>