<svg width="31" height="31" viewBox="0 0 31 31" fill="none" xmlns="http://www.w3.org/2000/svg">
<g clip-path="url(#clip0_18_1411)">
<path d="M25.4 18C28.2718 18 30.6 15.7614 30.6 13C30.6 10.2386 28.2718 8 25.4 8C22.5281 8 20.2 10.2386 20.2 13C20.2 15.7614 22.5281 18 25.4 18Z" fill="#042b62"/>
<path d="M16.7 9.8C19.5166 9.8 21.8 7.6062 21.8 4.9C21.8 2.1938 19.5166 0 16.7 0C13.8833 0 11.6 2.1938 11.6 4.9C11.6 7.6062 13.8833 9.8 16.7 9.8Z" fill="#042b62"/>
<path d="M25.2999 30.1C28.1166 30.1 30.4 27.8614 30.4 25.1C30.4 22.3386 28.1166 20.1 25.2999 20.1C22.4833 20.1 20.2 22.3386 20.2 25.1C20.2 27.8614 22.4833 30.1 25.2999 30.1Z" fill="#042b62"/>
<path d="M9.1 22.1V27C9.1 27.1 9 27.2 8.9 27.2H5.2C5.1 27.2 5 27.3 5 27.4V30C5 30.1 4.9 30.2 4.8 30.2H0.2C0.1 30.2 0 30.1 0 30V19.6C0.1 17.2 2.1 15.2 4.5 15.3C6.9 15.2 9 17.2 9.1 19.6V22.1Z" fill="#042b62"/>
<path d="M5 15.3H4.5C2.1 15.2 0.1 17.2 0 19.6V30.2H1V19.6C1 17.4 2.8 15.5 5 15.3Z" fill="#042b62"/>
<path d="M5.09998 16.6C3.39998 16.6 2.09998 17.9 2.09998 19.6H8.09998C8.09998 17.9 6.69998 16.6 5.09998 16.6Z" fill="#E2E2E2"/>
<path d="M16.7 2.19995L17.2 3.89995C17.2 3.99995 17.3 4.09995 17.5 4.09995H19.2L17.8 5.19995C17.7 5.29995 17.7 5.39995 17.7 5.49995L18.2 7.19995L16.8 6.09995C16.7 5.99995 16.6 5.99995 16.4 6.09995L15 7.19995L15.5 5.49995C15.5 5.39995 15.5 5.29995 15.4 5.19995L14 4.09995H15.7C15.8 4.09995 15.9 3.99995 16 3.89995L16.7 2.19995Z" fill="white"/>
<path d="M25.3 27.7C26.6808 27.7 27.8 26.5807 27.8 25.2C27.8 23.8192 26.6808 22.7 25.3 22.7C23.9193 22.7 22.8 23.8192 22.8 25.2C22.8 26.5807 23.9193 27.7 25.3 27.7Z" fill="white"/>
<path d="M23.5 11H27C27.2 11 27.2999 11.1 27.2999 11.3V14.7C27.2999 14.9 27.2 15 27 15H23.5C23.3 15 23.2 14.9 23.2 14.7V11.3C23.2 11.2 23.4 11 23.5 11Z" fill="white"/>
<path d="M10.4 4.49999L7.8 2.99999C7.6 2.89999 7.3 2.89999 7.2 3.19999C7.2 3.29999 7.1 3.39999 7.1 3.49999V4.49999H4C3.7 4.49999 3.5 4.69999 3.5 4.99999V13.6H4.5V5.89999C4.5 5.59999 4.7 5.39999 5 5.39999H7.1V6.39999C7.1 6.69999 7.3 6.99999 7.6 6.99999C7.7 6.99999 7.8 6.99999 7.9 6.89999L10.4 5.39999C10.6 5.29999 10.7 4.89999 10.6 4.69999C10.5 4.59999 10.4 4.59999 10.4 4.49999Z" fill="#E2E2E2" stroke="#939393" stroke-width="0.25"/>
<path d="M19 25.2L16.5 23.7C16.3 23.6 16 23.6 15.8 23.9C15.7 24 15.7 24.1 15.7 24.2V25.2H14.6C14.4 25.2 14.2 24.9999 14.2 24.7999V18.2C14.2 17.9 14 17.7 13.7 17.7H11.2V18.7H12.8C13 18.7 13.2 18.9 13.2 19.1V25.7C13.2 26 13.4 26.2 13.7 26.2H15.7V27.2C15.7 27.5 15.9 27.7 16.2 27.7C16.3 27.7 16.4 27.7 16.5 27.6L19.1 26.1C19.3 26 19.4 25.6 19.3 25.4C19.1 25.3 19.1 25.3 19 25.2Z" fill="#E2E2E2" stroke="#939393" stroke-width="0.25"/>
<path d="M19 13.1L16.5 11.6C16.3 11.5 16 11.5 15.8 11.8C15.7 11.9 15.7 12 15.7 12.1V13.1H11.1C10.8 13.1 10.6 13.3 10.6 13.6V15.1H9.59998V16.1H11.1C11.4 16.1 11.6 15.9 11.6 15.6V14.4C11.6 14.2 11.7 14.1 11.9 14.1H15.6V15.1C15.6 15.4 15.8 15.6 16.1 15.6C16.2 15.6 16.3 15.6 16.4 15.5L19 14C19.2 13.9 19.3 13.6 19.2 13.3C19.1 13.2 19.1 13.2 19 13.1Z" fill="#E2E2E2" stroke="#939393" stroke-width="0.25"/>
<path d="M7.40005 25.2001H10.4C10.5 25.2001 10.6 25.1 10.6 25V24.9L9.10005 21.9L9.00005 21.8C9.00005 21.8 9.00005 21.8 8.90005 21.9L7.30005 25C7.30005 25.1 7.40005 25.2001 7.40005 25.2001Z" fill="#042b62"/>
<path d="M5.69998 20.6H7.99998C8.09998 20.6 8.09998 20.7 8.09998 20.7V21.5C8.09998 21.6 7.99998 21.6 7.99998 21.6H5.69998C5.59998 21.6 5.59998 21.5 5.59998 21.5V20.7C5.59998 20.7 5.59998 20.6 5.69998 20.6Z" fill="white"/>
</g>
<defs>
<clipPath id="clip0_18_1411">
<rect width="30.5" height="30.2" fill="white"/>
</clipPath>
</defs>
</svg>
