<svg width="32" height="30" viewBox="0 0 32 30" fill="none" xmlns="http://www.w3.org/2000/svg">
<g clip-path="url(#clip0_18_1367)">
<path d="M29.7 25.9H0.5V28.1C0.5 28.7 1 29.2 1.6 29.2H30.7C31.3 29.2 31.8 28.7 31.8 28.1V25.9H29.7Z" fill="#042b62"/>
<path d="M29.7 7.60002V26H2.69995V7.60002C2.69995 6.40002 3.69995 5.40002 4.89995 5.40002H27.6C28.7 5.40002 29.7 6.40002 29.7 7.60002Z" fill="#E2E2E2" stroke="#939393" stroke-width="0.25"/>
<path d="M13.5 25.9H18.9V27C18.9 27.3 18.7 27.5 18.4 27.5H14C13.7 27.5 13.5 27.3 13.5 27V25.9Z" fill="#042b62"/>
<path d="M18.9 23.8H11.3V21.1C11.3 20.1 11.9 19.3 12.9 19L14.3 18.6L16.2 20L18.1 18.6L19.5 19C20.4 19.3 21.1 20.1 21.1 21.1V23.8H18.9Z" fill="#042b62"/>
<path d="M18 18.6L16.2 20L14.3 18.6L15.1 18.4V17C15.8 17.4 16.6 17.4 17.3 17V18.4L18 18.6Z" fill="#EAEAEA"/>
<path d="M18.4 14V15.1C18.4 15.7 18.2 16.2 17.8 16.6C17.7 16.7 17.5 16.8 17.3 16.9C16.6 17.3 15.8 17.3 15.1 16.9C14.4 16.5 14 15.8 14 15.1V14H14.6C15.2 14 15.9 13.8 16.4 13.5L17.2 13L17.4 13.5C17.6 13.7 18 14 18.4 14Z" fill="#EAEAEA"/>
<path d="M17.3 17V17.5C16.6 17.9 15.8 17.9 15.1 17.5V17C15.8 17.4 16.6 17.4 17.3 17Z" fill="#EAEAEA"/>
<path d="M16.2 10.8C17.7 10.8 18.9 12 18.9 13.5V14H18.4C18 14 17.7 13.7 17.6 13.4L17.3 13L16.5 13.5C16 13.9 15.3 14 14.7 14H13.5V13.5C13.5 12 14.6 10.8 16.2 10.8Z" fill="#042b62"/>
<path d="M10.9 5.39995C10.8 5.19995 10.7 4.99995 10.6 4.89995C9.7 3.19995 8 2.19995 6.1 2.19995H5.8C2.8 2.29995 0.5 4.69995 0.5 7.69995C0.5 9.39995 1.3 10.9 2.7 11.9C3.6 12.6 4.7 13 5.8 13C5.9 13 6 13 6.1 13C9 12.9 11.3 10.5 11.3 7.59995C11.3 6.79995 11.2 6.09995 10.9 5.39995Z" fill="white"/>
<path d="M30.2001 0H19.4C18.8 0 18.3 0.5 18.3 1.1V7.6C18.3 8.2 18.8 8.7 19.4 8.7H21.6V11.4L23.8 8.7H30.3C30.9 8.7 31.4 8.2 31.4 7.6V1.1C31.3 0.5 30.8001 0 30.2001 0Z" fill="#042b62"/>
<path d="M13 21H14V23.7H13V21Z" fill="#042b62"/>
<path d="M18.4 21H19.5V23.7H18.4V21Z" fill="#042b62"/>
<path d="M5.9 1.59998C2.7 1.59998 0 4.29998 0 7.49998C0 10.7 2.6 13.4 5.9 13.4C9.2 13.4 11.8 10.8 11.8 7.49998C11.9 4.29998 9.2 1.59998 5.9 1.59998ZM1.1 8.09998H2.7C2.7 8.59998 2.8 9.19998 2.9 9.69998H1.6C1.3 9.19998 1.2 8.69998 1.1 8.09998ZM6.5 4.29998V2.89998C7 3.29998 7.3 3.79998 7.5 4.29998H6.5ZM7.9 5.39998C8 5.89998 8.1 6.49998 8.1 6.99998H6.5V5.39998H7.9ZM5.4 2.89998V4.29998H4.4C4.6 3.79998 4.9 3.29998 5.4 2.89998ZM5.4 5.39998V6.99998H3.8C3.8 6.49998 3.9 5.89998 4 5.39998H5.4ZM2.7 6.99998H1.1C1.2 6.39998 1.3 5.89998 1.6 5.39998H2.9C2.8 5.89998 2.7 6.49998 2.7 6.99998ZM3.8 8.09998H5.4V9.69998H4C3.9 9.19998 3.8 8.59998 3.8 8.09998ZM5.4 10.8V12.2C4.9 11.8 4.6 11.3 4.4 10.8H5.4ZM6.5 12.2V10.8H7.5C7.3 11.4 6.9 11.8 6.5 12.2ZM6.5 9.69998V8.09998H8.1C8.1 8.59998 8 9.19998 7.9 9.69998H6.5ZM9.2 8.09998H10.8C10.7 8.69998 10.6 9.19998 10.3 9.69998H9C9.1 9.19998 9.2 8.59998 9.2 8.09998ZM9.2 6.99998C9.2 6.49998 9.1 5.89998 9 5.39998H10.3C10.5 5.89998 10.7 6.39998 10.7 6.99998H9.2ZM9.6 4.29998H8.7C8.5 3.89998 8.4 3.59998 8.2 3.19998C8.7 3.49998 9.2 3.89998 9.6 4.29998ZM3.7 3.19998C3.5 3.59998 3.3 3.99998 3.2 4.29998H2.3C2.7 3.89998 3.2 3.49998 3.7 3.19998ZM2.3 10.8H3.2C3.3 11.2 3.5 11.5 3.7 11.9C3.2 11.6 2.7 11.2 2.3 10.8ZM8.2 11.9C8.4 11.6 8.5 11.2 8.7 10.8H9.6C9.2 11.2 8.7 11.6 8.2 11.9Z" fill="#042b62"/>
<path d="M5.40002 23.2H27V24.2999H5.40002V23.2Z" fill="white"/>
<path d="M20.6999 1.59998H29.3999C29.5999 1.59998 29.7999 1.79998 29.7999 1.99998V6.59998C29.7999 6.79998 29.5999 6.99998 29.3999 6.99998H20.6999C20.4999 6.99998 20.2999 6.79998 20.2999 6.59998V1.99998C20.1999 1.79998 20.3999 1.59998 20.6999 1.59998Z" fill="#EAEAEA"/>
<path d="M20.9 5.50005V3.10005C20.9 3.00005 21 2.90005 21.1 2.90005C21.3 2.90005 21.5 2.70005 21.5 2.50005C21.5 2.40005 21.6 2.30005 21.7 2.30005H28.2C28.3 2.30005 28.4 2.40005 28.4 2.50005C28.4 2.70005 28.6 2.90005 28.8 2.90005C28.9 2.90005 29 3.00005 29 3.10005V5.50005C29 5.60005 28.9 5.70005 28.8 5.70005C28.6 5.70005 28.4 5.90005 28.4 6.10005C28.4 6.20005 28.3 6.30005 28.2 6.30005H21.7C21.6 6.30005 21.5 6.20005 21.5 6.10005C21.5 5.90005 21.3 5.70005 21.1 5.70005C21 5.70005 20.9 5.60005 20.9 5.50005Z" fill="#E2E2E2"/>
<path d="M25 5.89995C25.8837 5.89995 26.6 5.18361 26.6 4.29995C26.6 3.4163 25.8837 2.69995 25 2.69995C24.1164 2.69995 23.4 3.4163 23.4 4.29995C23.4 5.18361 24.1164 5.89995 25 5.89995Z" fill="#042b62"/>
<path d="M25.5 4C25.6 4 25.7 3.9 25.7 3.8C25.7 3.5 25.5 3.3 25.3 3.3V3.2C25.3 3.1 25.3 3 25.2 3C25.1 3 25 3.1 25 3.2V3.3C24.7 3.4 24.5 3.7 24.6 4C24.6 4.2 24.7 4.3 24.9 4.4L25.3 4.6C25.4 4.7 25.5 4.8 25.4 4.9C25.2 4.9 25.1 5 25 5C24.9 5 24.8 4.9 24.8 4.8C24.8 4.7 24.7 4.6 24.6 4.6C24.5 4.6 24.4 4.7 24.4 4.8C24.4 5.1 24.6 5.3 24.8 5.4V5.5C24.8 5.6 24.9 5.7 25 5.7C25.1 5.7 25.2 5.6 25.2 5.5V5.3C25.5 5.2 25.7 4.9 25.6 4.6C25.6 4.4 25.5 4.3 25.3 4.2L24.9 4C24.8 3.9 24.7 3.8 24.8 3.7C24.8 3.6 24.9 3.6 25 3.6H25.1C25.2 3.6 25.3 3.7 25.3 3.8C25.3 3.9 25.4 4 25.5 4Z" fill="white"/>
</g>
<defs>
<clipPath id="clip0_18_1367">
<rect width="31.8" height="29.1" fill="white"/>
</clipPath>
</defs>
</svg>
