<?xml version="1.0" encoding="utf-8"?>
<!-- Generator: Adobe Illustrator 25.2.3, SVG Export Plug-In . SVG Version: 6.00 Build 0)  -->
<svg version="1.1" xmlns="http://www.w3.org/2000/svg" xmlns:xlink="http://www.w3.org/1999/xlink" x="0px" y="0px"
	 viewBox="0 0 199.7 199.7" style="enable-background:new 0 0 199.7 199.7;" xml:space="preserve">
<style type="text/css">
	.st0{fill:#FFFFFF;stroke:#DBDBDA;stroke-miterlimit:10;}
	.st1{fill:#FFC03D;}
	.st2{fill:#DFEFEE;}
	.st3{fill:#00AEEF;}
	.st4{fill:none;}
	.st5{fill:#339667;}
	.st6{fill:#FFD95D;}
	.st7{fill:#13D0EA;}
	.st8{fill:#EC9611;}
	.st9{fill:#272425;}
</style>
<g id="Layer_2">
	<circle class="st0" cx="101.2" cy="97" r="88.3"/>
</g>
<g id="ring">
	<g>
		<g>
			<g>
				<path class="st1" d="M132.1,77.1l14.1,8.6c0.9,0.5,2.1,0.3,2.6-0.7l0,0c0.5-0.9,0.3-2.1-0.7-2.6L134,73.8
					c-0.9-0.5-2.1-0.3-2.6,0.7l0,0C130.9,75.4,131.2,76.6,132.1,77.1z"/>
				<polygon class="st2" points="134.9,74.4 147.5,81.9 158.8,75.5 135.4,61.4 				"/>
				<polygon class="st3" points="143.7,59.7 156.3,67.3 158.8,75.5 135.4,61.4 				"/>
				<polygon class="st2" points="150,63.5 148.7,62.7 143.4,66.2 141.2,78.1 150.8,70.6 151.4,64.3 				"/>
				<polygon class="st3" points="141.2,78.1 143.4,66.2 147.1,68.4 150.8,70.6 				"/>
			</g>
			<g>
				<path class="st1" d="M70.8,73.4l16.6-0.5c1,0,1.9-1,1.8-2l0,0c0-1-1-1.9-2-1.8l-16.6,0.5c-1,0-1.9,1-1.8,2l0,0
					C68.9,72.6,69.8,73.4,70.8,73.4z"/>
				<polygon class="st2" points="71.7,69.5 86.4,69 92.3,57.5 65,58.3 				"/>
				<polygon class="st3" points="71.2,52.5 85.8,52 92.3,57.5 65,58.3 				"/>
				<polygon class="st2" points="78.5,52.2 76.9,52.3 74.4,58 79,69.3 83,57.8 80.1,52.2 				"/>
				<polygon class="st3" points="79,69.3 74.4,58 78.7,57.9 83,57.8 				"/>
			</g>
			<ellipse class="st4" cx="101.6" cy="106.9" rx="4.7" ry="15.4"/>
			<path class="st4" d="M113.7,106.9c0,0.6,0,1.2-0.1,1.8c0,0.2,0,0.4-0.1,0.6c0,0.4-0.1,0.9-0.1,1.2c0,0.3-0.1,0.4-0.1,0.7
				c-0.1,0.3-0.1,0.8-0.2,1.1c0,0.3-0.1,0.4-0.1,0.7c-0.1,0.3-0.2,0.7-0.2,1.1c-0.1,0.3-0.1,0.4-0.2,0.7c-0.1,0.3-0.2,0.7-0.3,1
				c-0.1,0.3-0.1,0.4-0.2,0.7c-0.1,0.3-0.2,0.7-0.3,1c-0.1,0.2-0.2,0.4-0.2,0.6c-0.1,0.3-0.3,0.7-0.4,1c-0.1,0.2-0.2,0.3-0.3,0.6
				c-0.2,0.3-0.3,0.8-0.4,1.1c-0.1,0.2-0.2,0.3-0.3,0.5c-0.2,0.3-0.3,0.8-0.5,1.1c-0.1,0.2-0.2,0.3-0.2,0.4
				c-0.3,0.4-0.5,0.9-0.7,1.3c-0.1,0.1-0.1,0.2-0.2,0.3c-0.3,0.4-0.5,0.9-0.9,1.3c0,0.1-0.1,0.1-0.1,0.2c-0.3,0.6-0.8,1.1-1.1,1.7
				c4.8,4.1,11.1,6.6,18,6.6c15.3,0,27.7-12.4,27.7-27.7s-12.4-27.7-27.7-27.7c-6.9,0-13.2,2.5-18,6.6c3.1,4.1,5.2,8.8,6.3,14
				C113.4,102.1,113.7,104.5,113.7,106.9z"/>
			<path class="st4" d="M96.6,85.9c-4.8-4.1-11.1-6.6-18-6.6c-15.3,0-27.7,12.4-27.7,27.7s12.4,27.7,27.7,27.7
				c6.9,0,13.2-2.5,18-6.6c-4.4-5.8-7-13.2-7-21S92.2,91.7,96.6,85.9z"/>
			<path class="st1" d="M126.4,141.9L126.4,141.9L126.4,141.9z"/>
			<path class="st5" d="M124.6,71.9L124.6,71.9L124.6,71.9z"/>
			<path class="st6" d="M117.9,76c6.4-0.3,12.8,1.1,18.7,4.6c15.4,9.3,20.4,29.4,11.1,44.8c-4,6.6-10,11.3-16.8,13.8
				c0.5-0.1,1-0.2,1.5-0.2c1.7-0.5,3.3-1.1,5-1.8c0.1,0,0.1-0.1,0.2-0.1c0.4-0.2,0.9-0.4,1.3-0.7c0.1-0.1,0.2-0.1,0.3-0.2
				c0.3-0.2,0.8-0.4,1.1-0.6c0.1-0.1,0.3-0.2,0.3-0.3c0.3-0.2,0.7-0.4,1-0.6c0.2-0.1,0.3-0.2,0.4-0.3c0.3-0.2,0.6-0.4,0.9-0.6
				c0.2-0.1,0.3-0.3,0.4-0.3c0.3-0.3,0.5-0.4,0.9-0.7c0.2-0.2,0.3-0.3,0.4-0.4c0.3-0.3,0.5-0.4,0.8-0.7c0.2-0.2,0.3-0.3,0.4-0.4
				c0.3-0.3,0.5-0.5,0.7-0.7c0.2-0.2,0.3-0.3,0.4-0.4c0.3-0.3,0.4-0.5,0.7-0.8c0.2-0.2,0.3-0.3,0.4-0.5c0.3-0.3,0.4-0.5,0.7-0.8
				c0.2-0.2,0.3-0.3,0.4-0.5c0.3-0.3,0.4-0.6,0.7-1c0.1-0.2,0.3-0.3,0.3-0.4c0.3-0.4,0.6-1,1-1.5c1.1-1.9,2.1-3.9,2.8-5.9
				c0.5-1.6,1-3.1,1.3-4.6c0.3-1.6,0.5-3.1,0.5-4.7c0.5-11.6-5.1-23-15.7-29.5l0,0c-0.5-0.3-1-0.6-1.5-0.9c-0.2-0.1-0.3-0.2-0.5-0.3
				c-0.3-0.2-0.7-0.3-1-0.5c-0.2-0.1-0.4-0.2-0.6-0.3c-0.3-0.2-0.6-0.3-1-0.4c-0.2-0.1-0.4-0.2-0.6-0.3c-0.3-0.1-0.6-0.3-1-0.3
				c-0.2-0.1-0.4-0.2-0.6-0.2c-0.3-0.1-0.6-0.2-1-0.3c-0.2-0.1-0.4-0.1-0.6-0.2c-0.3-0.1-0.7-0.2-1-0.3c-0.2-0.1-0.4-0.1-0.6-0.2
				c-0.3-0.1-0.7-0.2-1-0.2c-0.2,0-0.3-0.1-0.6-0.1c-0.3-0.1-0.7-0.1-1.1-0.2c-0.2,0-0.3-0.1-0.5-0.1c-0.3,0-0.8-0.1-1.1-0.1
				c-0.2,0-0.3,0-0.4,0c-0.4,0-0.9,0-1.3-0.1c-0.1,0-0.3,0-0.3,0c-0.5,0-1,0-1.5,0c-0.1,0-0.1,0-0.2,0c-1.4,0.1-2.8,0.3-4.3,0.4
				C117.8,75.8,117.8,75.9,117.9,76z"/>
			<path class="st7" d="M124.8,142c0.5,0,1,0,1.6,0C125.8,142,125.2,142,124.8,142C124.7,142,124.8,142,124.8,142z"/>
			<path class="st7" d="M104.6,130.6C104.5,130.6,104.5,130.6,104.6,130.6c-0.1,0.1-0.2,0.1-0.2,0.2
				C104.4,130.6,104.5,130.6,104.6,130.6z"/>
			<path class="st7" d="M148,133.1L148,133.1L148,133.1z"/>
			<path class="st1" d="M80.4,141.9L80.4,141.9C80.3,141.9,80.3,141.9,80.4,141.9z"/>
			<path class="st1" d="M113.6,109.4c0,0.4-0.1,0.9-0.1,1.2C113.5,110.2,113.5,109.8,113.6,109.4z"/>
			<path class="st1" d="M112.3,116.7c-0.1,0.3-0.2,0.7-0.3,1C112,117.5,112.2,117.1,112.3,116.7z"/>
			<path class="st1" d="M106.6,127.9L106.6,127.9c0.4-0.5,0.8-1.1,1.2-1.7C107.5,126.9,107,127.4,106.6,127.9z"/>
			<path class="st1" d="M111.8,118.4c-0.1,0.3-0.3,0.7-0.4,1C111.5,119.1,111.6,118.8,111.8,118.4z"/>
			<path class="st1" d="M112.7,114.9c-0.1,0.3-0.2,0.7-0.3,1C112.5,115.7,112.6,115.4,112.7,114.9z"/>
			<path class="st1" d="M113,99.8c-1-5.1-3.2-9.9-6.3-14l0,0C109.7,90,111.9,94.7,113,99.8z"/>
			<path class="st1" d="M109.6,123.3c-0.2,0.3-0.4,0.8-0.6,1.2C109.1,124.1,109.4,123.7,109.6,123.3z"/>
			<path class="st1" d="M111.1,120.1c-0.2,0.3-0.3,0.8-0.4,1.1C110.8,120.8,111,120.4,111.1,120.1z"/>
			<path class="st1" d="M113.1,113.2c-0.1,0.3-0.2,0.7-0.2,1.1C113,113.9,113.1,113.5,113.1,113.2z"/>
			<path class="st1" d="M110.4,121.7c-0.2,0.3-0.3,0.8-0.5,1.1C110,122.4,110.2,122.1,110.4,121.7z"/>
			<path class="st1" d="M108.8,124.8c-0.3,0.4-0.5,0.9-0.9,1.3C108.2,125.8,108.4,125.2,108.8,124.8z"/>
			<path class="st1" d="M113.7,106.9c0,0.6,0,1.2-0.1,1.8C113.7,108.2,113.7,107.5,113.7,106.9z"/>
			<path class="st1" d="M113.3,111.4c-0.1,0.3-0.1,0.8-0.2,1.1C113.2,112.1,113.3,111.7,113.3,111.4z"/>
			<path class="st1" d="M98.8,83.3L98.8,83.3C98.7,83.4,98.7,83.4,98.8,83.3z"/>
			<path class="st1" d="M96.7,127.9C96.7,127.9,96.6,127.9,96.7,127.9c1.3,1.9,2.9,3.7,4.6,5.1c0,0,0.1,0,0.1-0.1
				C99.6,131.5,98.1,129.8,96.7,127.9z"/>
			<path class="st1" d="M106.6,85.9L106.6,85.9c-1.4-1.8-3-3.5-4.6-5.1l0,0C103.7,82.4,105.3,84,106.6,85.9z"/>
			<path class="st1" d="M104.5,130.5L104.5,130.5c0.8-0.8,1.5-1.7,2.1-2.5l0,0C106,128.8,105.3,129.7,104.5,130.5z"/>
			<polygon class="st1" points="101.6,80.5 101.6,80.5 101.6,80.5 			"/>
			<path class="st1" d="M98.5,83.6L98.5,83.6L98.5,83.6z"/>
			<path class="st1" d="M102,80.8c-0.1-0.1-0.3-0.3-0.3-0.3l0,0C101.7,80.6,101.9,80.7,102,80.8L102,80.8z"/>
			<path class="st1" d="M98.8,83.3c-0.1,0.1-0.2,0.2-0.3,0.3l0,0C98.6,83.5,98.7,83.4,98.8,83.3C98.8,83.3,98.8,83.3,98.8,83.3z"/>
			<path class="st1" d="M104.3,130.7L104.3,130.7c0.1-0.1,0.2-0.2,0.3-0.3l0,0C104.4,130.6,104.4,130.6,104.3,130.7z"/>
			<path class="st1" d="M103.8,88.7c-1.4-1.8-3-3.6-4.6-5.1c-0.1-0.1-0.3-0.3-0.3-0.3s0,0-0.1,0c-6.1-5.3-14.1-8.6-23-8.6
				c-8.1,0-15.5,2.8-21.5,7.3c-4.9,6-7.8,13.7-7.8,22c0,19.4,15.7,35.1,35.1,35.1c7.3,0,14.1-2.3,19.7-6.1c-1.7-1.6-3.3-3.2-4.7-5.1
				c-4.8,4.1-11.1,6.6-18,6.6c-15.4-0.1-27.8-12.5-27.8-27.8s12.4-27.7,27.7-27.7c6.9,0,13.2,2.5,18,6.6l0.1,0.1
				c0.2,0.2,0.4,0.3,0.6,0.5c1.7,1.5,3.1,3.2,4.4,5.1c3,4.4,4.7,9.7,4.7,15.4c0,5.7-1.7,11-4.7,15.4c1.2,1.9,2.7,3.6,4.5,5.1
				c3.1-5.1,4.8-11.3,4.8-17.7C110.8,101.8,108.2,94.6,103.8,88.7z"/>
			<path class="st6" d="M113.6,108.8c0,0.2,0,0.4-0.1,0.6C113.6,109.2,113.6,109,113.6,108.8z"/>
			<path class="st6" d="M113.4,110.7c0,0.3-0.1,0.4-0.1,0.7C113.4,111.1,113.4,110.9,113.4,110.7z"/>
			<path class="st6" d="M107.9,126.2c0,0.1-0.1,0.1-0.1,0.2C107.8,126.3,107.9,126.2,107.9,126.2z"/>
			<path class="st6" d="M52.4,83.6L52.4,83.6L52.4,83.6z"/>
			<path class="st6" d="M111.3,119.5c-0.1,0.2-0.2,0.3-0.3,0.6C111.1,119.9,111.2,119.7,111.3,119.5z"/>
			<path class="st6" d="M111.9,117.8c-0.1,0.2-0.2,0.4-0.2,0.6C111.8,118.3,111.8,118,111.9,117.8z"/>
			<path class="st6" d="M110.6,121.2c-0.1,0.2-0.2,0.3-0.3,0.5C110.5,121.6,110.5,121.4,110.6,121.2z"/>
			<path class="st6" d="M113.2,112.5c0,0.3-0.1,0.4-0.1,0.7C113.2,112.9,113.2,112.8,113.2,112.5z"/>
			<path class="st6" d="M109,124.5c-0.1,0.1-0.1,0.2-0.2,0.3C108.8,124.7,108.9,124.6,109,124.5z"/>
			<path class="st6" d="M109.8,122.9c-0.1,0.2-0.2,0.3-0.2,0.4C109.7,123.1,109.8,123,109.8,122.9z"/>
			<path class="st6" d="M112.5,116.1c-0.1,0.3-0.1,0.4-0.2,0.7C112.4,116.5,112.4,116.2,112.5,116.1z"/>
			<path class="st6" d="M112.9,114.2c-0.1,0.3-0.1,0.4-0.2,0.7C112.8,114.8,112.8,114.5,112.9,114.2z"/>
			<path class="st6" d="M101.6,80.5L101.6,80.5c-1,0.9-2.9,2.8-2.9,2.8C99.6,82.3,100.6,81.3,101.6,80.5z"/>
			<path class="st6" d="M52.5,83.7c0.3-0.3,0.7-0.8,1-1.1c-0.2,0.2-0.3,0.3-0.5,0.6C52.9,83.3,52.5,83.7,52.5,83.7z"/>
			<path class="st6" d="M113,99.8c-1-5.1-3.2-9.9-6.3-14c-1.4-1.8-3-3.5-4.6-5.1c-0.1-0.1-0.3-0.3-0.4-0.3l0,0
				c-6.2-5.3-14.2-8.6-23-8.6l0,0c-0.6,0-1.2,0-1.8,0.1c-0.2,0-0.4,0-0.6,0.1c-0.4,0-0.9,0.1-1.2,0.1c-0.3,0-0.4,0.1-0.7,0.1
				c-0.3,0.1-0.8,0.1-1.1,0.2c-0.3,0-0.4,0.1-0.7,0.1c-0.3,0.1-0.7,0.2-1,0.2c-0.3,0.1-0.4,0.1-0.7,0.2c-0.3,0.1-0.7,0.2-1,0.3
				c-0.3,0.1-0.4,0.1-0.7,0.2c-0.3,0.1-0.7,0.2-1,0.3c-0.2,0.1-0.4,0.2-0.6,0.2c-0.3,0.1-0.7,0.3-1,0.4c-0.2,0.1-0.3,0.2-0.6,0.3
				c-0.3,0.2-0.7,0.3-1.1,0.4c-0.2,0.1-0.3,0.2-0.5,0.3c-0.3,0.2-0.8,0.3-1.1,0.5c-0.2,0.1-0.3,0.2-0.4,0.3
				c-0.4,0.2-0.8,0.4-1.2,0.7c-0.1,0.1-0.2,0.1-0.3,0.2c-0.4,0.3-0.9,0.5-1.3,0.9c-0.1,0-0.1,0.1-0.2,0.1c-2.1,1.4-3.9,3.1-5.7,4.8
				c0.6-0.6,1.2-1.2,1.8-1.7c-0.3,0.4-0.8,0.9-1.1,1.3c5.9-4.6,13.4-7.3,21.5-7.3c8.8,0,16.8,3.2,23,8.6l0,0c0,0,0.3,0.3,0.3,0.3
				c1.7,1.6,3.3,3.2,4.6,5.1c4.5,5.8,7.1,13.2,7.1,21c0,6.5-1.7,12.5-4.8,17.7c0.2,0.2,0.4,0.3,0.6,0.5c0.4-0.5,0.8-1.1,1.2-1.7
				c0-0.1,0.1-0.1,0.1-0.2c0.3-0.4,0.6-0.9,0.9-1.3c0.1-0.1,0.1-0.2,0.2-0.3c0.3-0.4,0.4-0.8,0.7-1.2c0.1-0.2,0.2-0.3,0.2-0.4
				c0.2-0.3,0.3-0.8,0.5-1.1c0.1-0.2,0.2-0.3,0.3-0.5c0.2-0.3,0.3-0.7,0.4-1.1c0.1-0.2,0.2-0.3,0.3-0.6c0.2-0.3,0.3-0.7,0.4-1
				c0.1-0.2,0.2-0.4,0.2-0.6c0.1-0.3,0.3-0.7,0.3-1c0.1-0.3,0.1-0.4,0.2-0.7c0.1-0.3,0.2-0.7,0.3-1c0.1-0.3,0.1-0.4,0.2-0.7
				c0.1-0.3,0.2-0.7,0.2-1.1c0-0.3,0.1-0.4,0.1-0.7c0.1-0.3,0.1-0.8,0.2-1.1c0-0.3,0.1-0.4,0.1-0.7c0.1-0.4,0.1-0.9,0.1-1.2
				c0-0.2,0-0.4,0.1-0.6c0-0.6,0.1-1.2,0.1-1.8C113.7,104.5,113.4,102.1,113,99.8z"/>
			<path class="st8" d="M78.7,142c0.5,0,1,0,1.6,0C79.7,142,79.2,142,78.7,142L78.7,142z"/>
			<path class="st8" d="M80.4,141.9c8.1-0.3,15.5-3.6,21.3-8.6c0,0,0,0-0.1-0.1C95.9,138.3,88.5,141.6,80.4,141.9z"/>
			<path class="st8" d="M101.6,133.4L101.6,133.4C101.6,133.4,101.6,133.4,101.6,133.4C101.7,133.4,101.7,133.4,101.6,133.4
				C101.7,133.4,101.7,133.4,101.6,133.4z"/>
			<path class="st1" d="M136.5,80.7c-5.8-3.6-12.4-5-18.7-4.6c0.6,2,1,4.1,1.2,6.3c5.8-1,12,0.1,17.5,3.4
				c12.2,7.3,16.1,23.2,8.7,35.3c-7.3,12.2-23.2,16.1-35.3,8.7c-5.5-3.3-9.3-8.3-11.1-14c-0.1-0.3-0.2-0.5-0.3-0.7
				c-0.6-2-1-4.1-1-6.2c-0.3-4.9,1-9.9,3.7-14.5c2.7-4.5,6.6-7.9,11.2-10c-0.1-2.1-0.4-4.1-1-6.1c-4.9,2.7-9.2,6.6-12.3,11.8
				c-3.8,6.3-5.2,13.4-4.5,20.1c0.2,2.2,0.6,4.3,1.3,6.4c0,0.1,0.1,0.3,0.2,0.4l0,0c2.4,7.2,7.2,13.7,14.1,17.9
				c6.5,3.9,13.7,5.3,20.7,4.5c6.8-2.4,12.8-7.2,16.8-13.8C157,110.1,152,90,136.5,80.7z"/>
			<path class="st8" d="M101.3,133.1c-5.6,3.8-12.4,6.1-19.7,6.1c-19.4,0-35.1-15.7-35.1-35.1c0-8.4,2.9-16,7.8-22
				c-0.4,0.3-0.9,0.7-1.3,1c-5.8,6.3-9.3,14.6-9.3,23.8c0,19.4,15.6,35,35,35.1c0.5,0,1.1,0,1.7,0h0.1c8.1-0.4,15.4-3.6,21.2-8.6
				C101.5,133.3,101.4,133.2,101.3,133.1z"/>
			<path class="st8" d="M101.3,133.1c0.1,0.1,0.3,0.2,0.3,0.3c0,0,0,0,0.1-0.1C101.5,133.2,101.5,133.1,101.3,133.1
				C101.3,133,101.3,133.1,101.3,133.1z"/>
			<g>
				<path class="st9" d="M103.1,132c-0.1,0.1-0.3,0.3-0.4,0.3C102.9,132.2,102.9,132.1,103.1,132z"/>
				<path class="st9" d="M103.5,131.6c-0.1,0.1-0.3,0.3-0.3,0.3C103.2,131.9,103.4,131.7,103.5,131.6z"/>
				<path class="st9" d="M104.3,130.7c-0.3,0.3-0.5,0.6-0.8,0.9C103.8,131.3,104.1,131,104.3,130.7L104.3,130.7z"/>
				<path class="st9" d="M101.9,133.1c0.3-0.3,0.5-0.5,0.8-0.7C102.5,132.6,102.2,132.8,101.9,133.1C102,133,102,133.1,101.9,133.1z
					"/>
			</g>
			<path class="st8" d="M53,83.1c0.4-0.3,0.9-0.7,1.3-1c0.3-0.4,0.7-0.9,1.1-1.3C54.6,81.5,53.8,82.3,53,83.1z"/>
			<g>
				<path class="st8" d="M129.3,139.8L129.3,139.8L129.3,139.8z"/>
				<path class="st8" d="M130.8,139.3c-7.1,0.7-14.2-0.6-20.7-4.5c-7-4.3-11.9-10.6-14.1-17.9v-0.1l0,0c0-0.1-0.1-0.3-0.1-0.3
					c-0.6-2.1-1-4.2-1.3-6.4c-0.7-6.8,0.8-13.8,4.5-20.1c3.1-5.1,7.3-9.1,12.3-11.8c-0.1-0.3-0.2-0.4-0.3-0.7
					c-6.3,2.5-11.9,7.1-15.6,13.4c-3.8,6.3-5.2,13.3-4.5,20.1c0.2,2.2,0.6,4.3,1.3,6.4c0,0.1,0,0.1,0.1,0.2l0,0l0.1,0.3
					c2.4,7.2,7.2,13.7,14.1,17.9c0.4,0.3,0.9,0.5,1.3,0.8c0,0,0.1,0,0.1,0.1c0.4,0.3,0.9,0.4,1.3,0.7c7.4,3.6,15.8,4,23.3,1.8
					C132.2,139.1,131.3,139.3,130.8,139.3z"/>
				<path class="st8" d="M133.1,138.9c-0.2,0.1-0.3,0.1-0.5,0.2c0.1,0,0.1,0,0.1,0C132.8,138.9,132.8,138.9,133.1,138.9L133.1,138.9
					z"/>
			</g>
			<path class="st6" d="M141.9,81.5c4.7,4.2,8.3,9.9,9.9,16.5c4.3,17.5-6.4,35.2-23.8,39.5c-7.5,1.8-15.1,1-21.6-2.1
				c0.4,0.3,0.8,0.6,1.2,1c1.6,0.9,3.1,1.6,4.8,2.2c0.1,0,0.1,0,0.2,0.1c0.4,0.2,1,0.3,1.4,0.4c0.1,0,0.2,0.1,0.3,0.1
				c0.4,0.1,0.9,0.3,1.2,0.3c0.2,0,0.3,0.1,0.4,0.1c0.3,0.1,0.8,0.2,1.1,0.3c0.2,0,0.3,0.1,0.5,0.1c0.3,0.1,0.7,0.1,1.1,0.2
				c0.2,0,0.3,0.1,0.6,0.1c0.3,0.1,0.7,0.1,1,0.1c0.2,0,0.4,0,0.6,0.1c0.3,0,0.7,0,1,0.1c0.2,0,0.4,0,0.6,0c0.3,0,0.7,0,1,0
				c0.3,0,0.4,0,0.7,0c0.3,0,0.7,0,1-0.1c0.3,0,0.4,0,0.7-0.1c0.3,0,0.7-0.1,1-0.1c0.2,0,0.4-0.1,0.6-0.1c0.3-0.1,0.8-0.1,1.1-0.2
				c0.2,0,0.3-0.1,0.5-0.1c0.6-0.1,1.1-0.3,1.7-0.3c2.2-0.5,4.3-1.3,6.2-2.2c1.5-0.7,2.9-1.5,4.2-2.4c1.3-0.9,2.5-1.8,3.8-3
				c8.6-7.8,12.7-19.9,9.7-31.9l0,0c-0.2-0.6-0.3-1.1-0.4-1.7c-0.1-0.2-0.1-0.3-0.2-0.5c-0.1-0.3-0.3-0.8-0.3-1.1
				c-0.1-0.2-0.2-0.4-0.3-0.6c-0.1-0.3-0.3-0.7-0.3-1c-0.1-0.2-0.2-0.4-0.3-0.6c-0.2-0.3-0.3-0.6-0.4-1c-0.1-0.2-0.2-0.4-0.3-0.6
				c-0.2-0.3-0.3-0.6-0.5-0.9c-0.1-0.2-0.2-0.3-0.3-0.5c-0.2-0.3-0.3-0.6-0.5-0.9c-0.1-0.2-0.3-0.3-0.3-0.5
				c-0.2-0.3-0.4-0.6-0.6-0.9c-0.1-0.2-0.3-0.3-0.3-0.4c-0.2-0.3-0.4-0.6-0.7-0.9c-0.1-0.2-0.2-0.3-0.3-0.4
				c-0.3-0.3-0.5-0.6-0.8-0.9c-0.1-0.1-0.2-0.3-0.3-0.3c-0.3-0.3-0.6-0.6-0.9-1c-0.1-0.1-0.2-0.2-0.3-0.3c-0.3-0.3-0.7-0.7-1-1
				l-0.1-0.1c-1-1-2.2-1.8-3.3-2.6C142,81.2,142,81.3,141.9,81.5z"/>
			<path class="st1" d="M151.8,98c-1.7-6.6-5.2-12.3-9.9-16.5c-1,1.9-2.2,3.7-3.6,5.3c4.8,3.5,8.5,8.6,10,14.7
				c3.4,13.8-5.1,27.8-18.9,31.2c-13.8,3.4-27.8-5.1-31.2-18.9c-1.6-6.2-0.7-12.4,2-17.7c0.1-0.2,0.3-0.5,0.3-0.7
				c1-1.8,2.2-3.6,3.7-5.1c3.3-3.7,7.7-6.4,12.8-7.7c5.1-1.3,10.3-0.9,14.9,0.8c1.4-1.6,2.6-3.2,3.6-5.1c-5.3-1.6-11.2-1.8-17-0.3
				c-7.2,1.7-13.1,5.8-17.5,11c-1.4,1.7-2.6,3.5-3.6,5.4c-0.1,0.1-0.2,0.3-0.2,0.4l0,0c-3.5,6.7-4.6,14.7-2.6,22.7
				c1.8,7.3,5.9,13.4,11.4,17.8c6.5,3.1,14.1,4,21.6,2.1C145.4,133.2,156.2,115.5,151.8,98z"/>
			<g>
				<path class="st8" d="M104.9,134.7L104.9,134.7L104.9,134.7z"/>
				<path class="st8" d="M106.3,135.4c-5.5-4.5-9.7-10.5-11.4-17.8c-1.9-7.9-0.8-16,2.6-22.7l0.1-0.1l0,0c0.1-0.1,0.1-0.2,0.2-0.3
					c1-1.9,2.2-3.8,3.6-5.4c4.3-5.2,10.3-9.3,17.5-11c5.8-1.4,11.6-1.2,17,0.3c0.1-0.3,0.3-0.4,0.3-0.7c-6.3-2.6-13.4-3.4-20.5-1.7
					c-7.1,1.7-13.1,5.8-17.4,11c-1.4,1.7-2.5,3.5-3.6,5.4c0,0.1-0.1,0.1-0.1,0.2l0,0c0,0-0.1,0.3-0.2,0.3
					c-3.5,6.7-4.6,14.7-2.7,22.7c0.1,0.5,0.3,1,0.4,1.5v0.1c0.2,0.4,0.3,1,0.4,1.4c2.7,7.9,8.3,14.1,15.2,17.8
					C107.5,136.2,106.7,135.7,106.3,135.4z"/>
				<path class="st8" d="M108.2,136.7c-0.2-0.1-0.3-0.2-0.5-0.3c0.1,0,0.1,0.1,0.1,0.1C107.9,136.5,108,136.6,108.2,136.7
					L108.2,136.7z"/>
			</g>
		</g>
	</g>
</g>
</svg>
