<?xml version="1.0" encoding="utf-8"?>
<!-- Generator: Adobe Illustrator 25.2.3, SVG Export Plug-In . SVG Version: 6.00 Build 0)  -->
<svg version="1.1" xmlns="http://www.w3.org/2000/svg" xmlns:xlink="http://www.w3.org/1999/xlink" x="0px" y="0px"
	 viewBox="0 0 199.7 199.7" style="enable-background:new 0 0 199.7 199.7;" xml:space="preserve">
<style type="text/css">
	.st0{fill:#FFFFFF;stroke:#DBDBDA;stroke-miterlimit:10;}
	.st1{fill:#F5F5F5;}
	.st2{fill:#ECECEC;}
	.st3{fill:#1A2E35;}
	.st4{fill:#FF4F5B;}
	.st5{fill:#375A64;}
	.st6{opacity:0.4;}
	.st7{fill:none;}
	.st8{fill:#EBEBEB;}
	.st9{opacity:0.3;}
	.st10{fill:#E1E1E1;}
</style>
<g id="Layer_2">
	<circle class="st0" cx="101.2" cy="97" r="88.3"/>
</g>
<g id="Layer_4">
	<g>
		<path class="st1" d="M88.8,84.3c0.4-3.1-4-5.7-7.3-5.9c-1.6-0.1-3.2,0.1-4.7-0.4c-3.2-1.1-4.5-5.3-7.7-6.6c-2.4-1-5.1-0.1-7.4,1
			c-2.3,1.2-4.5,2.6-7.1,2.8c-2.2,0.1-4.6-0.7-6.6,0.4c-1.4,0.8-2.2,2.5-3.5,3.5c-1.3,1-3,1.2-4.6,1.3c-1.6,0.1-3.3,0.1-4.8,0.8
			c-1.5,0.7-2.7,2.2-2.4,3.8L88.8,84.3z"/>
	</g>
	<g>
		<path class="st2" d="M166.9,50c0.4-2.9-3.7-5.3-6.8-5.6c-1.5-0.1-3,0.1-4.4-0.4c-3-1.1-4.3-5-7.2-6.3c-2.2-0.9-4.8-0.1-6.9,1
			c-2.2,1.1-4.3,2.4-6.7,2.6c-2.1,0.1-4.4-0.6-6.2,0.4c-1.4,0.8-2.1,2.3-3.3,3.3c-1.2,0.9-2.8,1.1-4.4,1.2c-1.5,0.1-3.1,0.1-4.5,0.7
			c-1.4,0.6-2.5,2.1-2.3,3.6L166.9,50z"/>
	</g>
	<g>
		<g>
			<g>
				<path class="st3" d="M150.7,83.7c0,0-0.4,1.8-2.6,2c-2.2,0.1-5.8,0.2-5.8,0.2l-3-1.4l-1.1-4.1l3.4,1.5L150.7,83.7z"/>
			</g>
			<g>
				<path class="st4" d="M150.7,83.7c0,0,1.6-2.7-1.5-4.4c-3.1-1.7-8-0.4-8-0.4l0.4,5L150.7,83.7z"/>
			</g>
		</g>
		<g>
			<path class="st3" d="M141.2,139.4L141.2,139.4c-3.7,0-6.6-3-6.6-6.6v-17.9c0-3.7,3-6.6,6.6-6.6h0c3.7,0,6.6,3,6.6,6.6v17.9
				C147.9,136.5,144.9,139.4,141.2,139.4z"/>
		</g>
		<g>
			<path class="st3" d="M59.9,139.4L59.9,139.4c-3.7,0-6.6-3-6.6-6.6v-17.9c0-3.7,3-6.6,6.6-6.6h0c3.7,0,6.6,3,6.6,6.6v17.9
				C66.5,136.5,63.6,139.4,59.9,139.4z"/>
		</g>
		<g>
			<path class="st4" d="M57.2,127.8c0,0-4.5-8.7-4.7-19s1.2-14.4,3.6-16.5c2.4-2,5.1-6.4,5.1-6.4S63.9,75,67.7,68
				c3.5-6.4,9.9-5.8,9.9-5.8s28.2-2.5,45.9-0.1c0,0,4.8-0.3,8.3,5c3.5,5.4,7.4,14.7,8.3,19.5c0,0,4.1,4,5.4,5.9
				c1.2,1.9,3.3,5.2,3.1,8.4c-0.3,3.2-0.1,21.3-4.5,27.3L57.2,127.8z"/>
		</g>
		<g>
			<path class="st3" d="M65.1,81c0,0,2.6-12.5,6.1-14.6c3.5-2.1,28.9-2,28.9-2l24.6,0.7c0,0,4.3,0.1,5.7,2.4
				c1.4,2.3,5.5,13.3,5,14.1L97.6,82c0,0-26.7,0.5-27.8,0.2C68.8,82,65.4,82.3,65.1,81z"/>
		</g>
		<g>
			<path class="st5" d="M69.5,81c0,0-2.3-0.3-2-2.9c0.2-2,2.6-7.5,3.6-9.8c0.3-0.7,0.9-1.2,1.7-1.3c3.2-0.4,11.3-1.8,25.6-1.6
				c18.3,0.2,29.5,0.5,30.5,1.8c0.8,1,3.9,9.4,4.3,10.7c0.4,1.4-1.5,3-4.3,3.1C126.2,81,69.5,81,69.5,81z"/>
		</g>
		<g class="st6">
			<path d="M125.1,108.8c-2.1-3.9-7.8-3.3-7.8-3.3s-29.5-0.1-32.6,0c-3.1,0.1-3.9,0.1-5.8,2.1c-1.9,2-7.7,13.9-7.7,13.9h60
				C131.1,121.5,127.4,113.2,125.1,108.8z"/>
		</g>
		<g>
			<rect x="84.3" y="111.1" class="st7" width="0.4" height="0.4"/>
		</g>
		<g>
			<path class="st3" d="M78,93.7l1.5,3.5c0,0,0.6,1.4,3.3,1.6C85,99,119,99,119,99s2.3,0.2,3.2-1.4c0.9-1.6,1.8-3.9,1.8-3.9H78z"/>
		</g>
		<g>
			<g>
				<path class="st8" d="M57.1,98.3c0,0,0-2.9,0.3-4.7c0.1-0.7,1.4-3,5.1-3.4c1-0.1,1.8-0.2,2.5-0.2c2.4-0.1,4.8,0.9,6.4,2.7
					c0.5,0.6,1,1.2,1.3,2c1.3,3.1,2,7,2,7L57.1,98.3z"/>
			</g>
			<g class="st9">
				<path d="M57.4,98.3h-0.3c0,0-0.9,2.9,1.3,4.1c1.5,0.8,6.4,1.6,9.6,2.1c1.8,0.2,3.6-0.2,5-1.4l1.7-1.4L57.4,98.3z"/>
			</g>
		</g>
		<g>
			<path class="st10" d="M72.4,65.7c0,0,0.8-3.6,2-4.9c1.2-1.2,2.6-1.2,3.3-0.8c0.7,0.4,1.7,2,1.7,2l-1.9,0.1c0,0-0.4-0.7-1.2-0.5
				c-0.7,0.2-1.2,1.5-1.2,1.5l-0.8,2.1L72.4,65.7z"/>
		</g>
		<g>
			<path class="st10" d="M126.6,65.4c0,0-0.8-3.6-2-4.9c-1.2-1.2-2.6-1.2-3.3-0.8c-0.7,0.4-1.7,2-1.7,2l1.9,0.1c0,0,0.4-0.7,1.2-0.5
				c0.7,0.2,1.2,1.5,1.2,1.5l0.8,2.1L126.6,65.4z"/>
		</g>
		<g>
			<g>
				<path class="st3" d="M122,92.1c0,0-9.9,0.1-22.1,0.1c-12.2,0-22.1,0-22.1-0.1c0,0,9.9-0.1,22.1-0.1C112.1,92,122,92.1,122,92.1z
					"/>
			</g>
		</g>
		<g class="st9">
			<path d="M56.9,110c0,0-0.2,7,3.7,7.4l2.7,0.2c1.2,0.1,2.4-0.5,3.1-1.5l2.4-3.8L56.9,110z"/>
		</g>
		<g class="st9">
			<path d="M54.7,121.5l92-0.1c-0.5,2.5-1.4,4.9-2.7,6.8l-86.8-0.5C56.1,125.7,55.3,123.6,54.7,121.5z"/>
		</g>
		<g>
			<g>
				<path class="st3" d="M50,83.7c0,0,0.4,1.8,2.6,2c2.2,0.1,5.8,0.2,5.8,0.2l3-1.3l1.3-4.2l-3.5,1.5L50,83.7z"/>
			</g>
			<g>
				<path class="st4" d="M50,83.7c0,0-1.6-2.7,1.5-4.4c3.1-1.7,8-0.4,8-0.4l-0.4,5L50,83.7z"/>
			</g>
		</g>
		<g>
			<path class="st8" d="M112.5,116.1H89.1c-1.8,0-3.3-1.5-3.3-3.3v0c0-1.8,1.5-3.3,3.3-3.3h23.5c1.8,0,3.3,1.5,3.3,3.3v0
				C115.8,114.7,114.3,116.1,112.5,116.1z"/>
		</g>
		<g>
			<g>
				<path class="st3" d="M65.5,81c0,0-0.5,0.3-1.3,1c-0.2,0.2-0.4,0.3-0.6,0.6c-0.2,0.2-0.4,0.4-0.6,0.7c-0.4,0.5-0.8,1.1-1.2,1.8
					c-0.3,0.7-0.6,1.4-0.8,2c-0.1,0.3-0.2,0.6-0.2,0.9c-0.1,0.3-0.1,0.6-0.1,0.8c-0.1,1,0,1.6,0,1.6c0,0,0-0.2-0.1-0.4
					c0-0.1,0-0.3,0-0.5c0-0.2,0-0.4,0-0.7c0-0.3,0-0.5,0.1-0.8c0-0.3,0.1-0.6,0.2-0.9c0.2-0.6,0.4-1.3,0.8-2
					c0.4-0.7,0.8-1.3,1.2-1.8c0.2-0.2,0.4-0.5,0.7-0.7c0.2-0.2,0.4-0.4,0.6-0.5c0.2-0.2,0.4-0.3,0.5-0.4c0.2-0.1,0.3-0.2,0.4-0.3
					C65.3,81.1,65.5,81,65.5,81z"/>
			</g>
		</g>
		<g>
			<g>
				<path class="st3" d="M125.8,101.7c0,0-11.4,0.1-25.5,0.1c-14.1,0-25.5,0-25.5,0c0,0,11.4-0.1,25.5-0.1
					C114.4,101.6,125.8,101.6,125.8,101.7z"/>
			</g>
		</g>
		<g>
			<g>
				<path class="st10" d="M104.9,67.7c0,0-4.1,2.5-9.2,5.5c-5.1,3-9.2,5.4-9.3,5.4c0,0,4.1-2.5,9.2-5.5
					C100.7,70.1,104.8,67.7,104.9,67.7z"/>
			</g>
		</g>
		<g>
			<g>
				<path class="st10" d="M96.3,68.6c0,0-3,2-6.8,4.4c-3.8,2.4-6.9,4.3-6.9,4.3c0,0,3-2,6.8-4.4C93.2,70.5,96.3,68.5,96.3,68.6z"/>
			</g>
		</g>
		<g>
			<g>
				<path class="st10" d="M109.4,68.1c0,0-2.7,1.9-6.1,4.1c-3.4,2.2-6.1,4-6.2,4c0,0,2.7-1.9,6.1-4.1
					C106.6,69.9,109.3,68.1,109.4,68.1z"/>
			</g>
		</g>
		<g>
			<g>
				<path class="st3" d="M146.6,121.5c0,0-20.6,0.1-46,0.1c-25.4,0-46,0-46-0.1c0,0,20.6-0.1,46-0.1
					C126.1,121.4,146.6,121.4,146.6,121.5z"/>
			</g>
		</g>
		<g>
			<g>
				<path class="st3" d="M139.8,92.1c0,0,0-0.2,0.1-0.5c0.1-0.3,0.2-0.8,0.3-1.3c0.1-0.6,0.1-1.3,0.1-2c-0.1-0.8-0.2-1.6-0.6-2.4
					c-0.4-0.8-0.9-1.5-1.3-2.1c-0.5-0.6-1-1.1-1.4-1.4c-0.5-0.4-0.9-0.6-1.2-0.7c-0.2-0.1-0.3-0.1-0.4-0.1c-0.1,0-0.1,0-0.1,0
					c0,0,0,0,0.1,0c0.1,0,0.2,0,0.4,0.1c0.3,0.1,0.8,0.3,1.2,0.6c0.5,0.3,1,0.8,1.5,1.4c0.5,0.6,1,1.3,1.4,2.1
					c0.2,0.4,0.3,0.8,0.4,1.2c0.1,0.4,0.1,0.8,0.2,1.2c0,0.8,0,1.5-0.1,2.1c-0.1,0.6-0.2,1-0.3,1.3c0,0.2-0.1,0.3-0.1,0.4
					C139.8,92.1,139.8,92.1,139.8,92.1z"/>
			</g>
		</g>
		<g>
			<g>
				<path class="st8" d="M143.3,98.3c0,0,0-2.9-0.3-4.7c-0.1-0.7-1.4-3-5.1-3.4c-1-0.1-1.8-0.2-2.5-0.2c-2.4-0.1-4.8,0.9-6.4,2.7
					c-0.5,0.6-1,1.2-1.3,2c-1.3,3.1-2,7-2,7L143.3,98.3z"/>
			</g>
			<g class="st9">
				<path d="M143,98.3h0.3c0,0,0.9,2.9-1.3,4.1c-1.5,0.8-6.4,1.6-9.6,2.1c-1.8,0.2-3.6-0.2-5-1.4l-1.7-1.4L143,98.3z"/>
			</g>
		</g>
		<g class="st9">
			<path d="M143.5,110c0,0,0.2,7-3.7,7.4l-2.7,0.2c-1.2,0.1-2.4-0.5-3.1-1.5l-2.4-3.8L143.5,110z"/>
		</g>
	</g>
</g>
</svg>
