<?xml version="1.0" encoding="utf-8"?>
<!-- Generator: Adobe Illustrator 25.2.3, SVG Export Plug-In . SVG Version: 6.00 Build 0)  -->
<svg version="1.1" id="Layer_1" xmlns="http://www.w3.org/2000/svg" xmlns:xlink="http://www.w3.org/1999/xlink" x="0px" y="0px"
	 viewBox="0 0 20 20" style="enable-background:new 0 0 20 20;" xml:space="preserve">
<style type="text/css">
	.st0{fill:#FFFFFF;}
	.st1{fill:#8AC440;}
</style>
<g>
	<circle class="st0" cx="10" cy="10" r="9.7"/>
	<path class="st1" d="M13.4,7.9v0.7v0.2h-0.2h-1.4c-0.2,0.7-0.5,1.4-1.1,1.8c-0.5,0.5-1.2,0.7-2.1,0.9c0.9,0.9,1.9,2.3,3.5,4v0.2
		c0,0.2-0.2,0.2-0.2,0.2h-1.4c0,0-0.2,0-0.2-0.2c-1.6-1.9-2.8-3.3-3.9-4.4v-0.2v-0.5c0-0.2,0-0.2,0.2-0.2h0.2h0.9
		c0.7,0,1.2-0.2,1.6-0.4c0.4-0.4,0.5-0.7,0.7-1.1H6.9H6.7V8.8V7.9V7.7h0.2h3.2C9.7,7.2,9,6.8,8,6.8H6.9H6.7V6.7V5.6V5.4h0.2h6.3h0.2
		v0.2v0.7v0.2h-0.2h-1.8c0.2,0.4,0.4,0.7,0.4,1.2h1.2C13.3,7.7,13.3,7.7,13.4,7.9C13.4,7.7,13.4,7.9,13.4,7.9z"/>
</g>
</svg>
