<?xml version="1.0" encoding="UTF-8"?>
<svg id="Layer_1" xmlns="http://www.w3.org/2000/svg" version="1.1" viewBox="0 0 30.4 19.9">
  <!-- Generator: Adobe Illustrator 29.0.0, SVG Export Plug-In . SVG Version: 2.1.0 Build 186)  -->
  <defs>
    <style>
      .st0, .st1 {
        fill: #042b62;
      }

      .st1 {
        opacity: .7;
      }

      .st2, .st3 {
        fill: #fff;
      }

      .st3 {
        opacity: .4;
      }
    </style>
  </defs>
  <g id="Layer_2">
    <g id="Layer_1-2">
      <path class="st1" d="M19.5,19.9H1.2C.5,19.9,0,19.4,0,18.8c0,0,0,0,0,0V6.4c0-.6.5-1.2,1.1-1.2,0,0,0,0,0,0h18.4c.6,0,1.2.5,1.2,1.1,0,0,0,0,0,0v12.3c0,.6-.5,1.2-1.1,1.2,0,0,0,0,0,0Z"/>
      <path class="st0" d="M19.5,19.3H1.2C.5,19.3,0,18.8,0,18.1V5.8c0-.6.5-1.2,1.2-1.2h18.4c.6,0,1.2.5,1.2,1.2v12.3c0,.6-.5,1.2-1.2,1.2Z"/>
      <path class="st1" d="M19.5,4.6H1.2c-.6,0-1.2.5-1.2,1.2v2.1h20.7v-2.1c0-.6-.5-1.2-1.2-1.2Z"/>
      <path class="st2" d="M2.4,6c0,.3-.2.5-.5.5s-.5-.2-.5-.5c0-.3.2-.5.5-.5h0c.3,0,.5.2.5.5Z"/>
      <path class="st3" d="M0,7.2h20.7v.7H0v-.7Z"/>
      <path class="st2" d="M6.7,11.1H1.9c-.3,0-.5-.3-.4-.6,0-.2.2-.4.4-.4h4.8c.3,0,.5.3.4.6,0,.2-.2.4-.4.4Z"/>
      <path class="st2" d="M6.7,13.1H1.9c-.3,0-.5-.3-.4-.6,0-.2.2-.4.4-.4h4.8c.3,0,.5.3.4.6,0,.2-.2.4-.4.4Z"/>
      <path class="st2" d="M8.4,17.6H1.9c-.3,0-.5-.1-.6-.4s.1-.5.4-.6c0,0,.1,0,.2,0h6.5c.3,0,.5.3.4.6,0,.2-.2.4-.4.4Z"/>
      <path class="st2" d="M18.4,17.6h-6.5c-.3,0-.5-.3-.4-.6,0-.2.2-.4.4-.4h6.5c.3,0,.5.3.4.6,0,.2-.2.4-.4.4Z"/>
      <path class="st2" d="M19.5,4.6h-9.8v9.4c0,.6.5,1.2,1.1,1.2,0,0,0,0,0,0h9.8V5.8c0-.6-.5-1.2-1.2-1.2Z"/>
      <path class="st1" d="M29.2,15.3H10.8c-.6,0-1.2-.5-1.2-1.1,0,0,0,0,0,0V1.8c0-.6.5-1.1,1.1-1.1h18.4c.6,0,1.2.5,1.2,1.1v12.3c0,.6-.5,1.2-1.2,1.2Z"/>
      <path class="st0" d="M29.2,14.6H10.8c-.6,0-1.2-.5-1.2-1.1,0,0,0,0,0,0V1.2C9.7.5,10.2,0,10.8,0c0,0,0,0,0,0h18.4c.6,0,1.2.5,1.2,1.2v12.3c0,.6-.5,1.2-1.2,1.2Z"/>
      <path class="st1" d="M29.2,0H10.8c-.6,0-1.2.5-1.2,1.1,0,0,0,0,0,0v2.1h20.7V1.2C30.4.5,29.8,0,29.2,0Z"/>
      <path class="st2" d="M12,1.4c0,.3-.2.5-.5.5s-.5-.2-.5-.5h0c0-.3.2-.5.5-.5.3,0,.5.2.5.5h0Z"/>
      <path class="st3" d="M9.7,2.6h20.7v.7H9.7v-.7Z"/>
      <path class="st1" d="M25.1,5.6c-1.2-1.2-3.1-1.2-4.2,0,0,0,0,0,0,0l-.6.6c-1.2-.8-2.8-.7-3.8.4l-1.9,1.9c-1.2,1.2-1.2,3.1,0,4.3s3.1,1.2,4.3,0l.6-.6c1.2.8,2.8.7,3.8-.4l1.9-1.9c1.2-1.2,1.2-3.1,0-4.2,0,0,0,0,0,0ZM24.3,9l-1.9,2c-.2.2-.4.3-.6.4h-.3c0,0-.3,0-.3,0-.3,0-.6,0-.9-.2l.4-.4h0v-.2h0v-1.1h0v-.2h0v-.3h0v-.2h0v-.3h0v-.2h0c0-.2,0-.2,0-.3h0c0-.1,0-.2,0-.3h0c0,0,0-.2-.1-.3h0c0-.1-.1-.2-.2-.3l.6-.6c.7-.9,2-1.1,2.9-.4s1.1,2,.4,2.9h0ZM18,12c0,0-.2.2-.3.2,0,0-.2.1-.2.1h-.2c0,0-.2,0-.3,0h-.7c-.1,0-.2,0-.3,0h0c-.1,0-.3-.1-.4-.2h-.2c0-.1-.1-.2-.1-.2-.7-.7-.7-1.9,0-2.6,0,0,0,0,0,0l1.9-1.9c.6-.6,1.4-.7,2.1-.3l-.4.5c-1,1-1.2,2.6-.4,3.8l-.6.7ZM20.4,8.3c0,.4,0,.8,0,1.1h0v.2h0c0,0-.4.5-.4.5h0v-.2c0-.1,0-.2,0-.3,0-.2,0-.3,0-.5v.3-.2h0c0-.4.3-.7.5-.9l.4-.4c0,.1.1.2.1.4h-.5Z"/>
      <path class="st2" d="M14.5,12.4c-1.2-1.2-1.2-3.1,0-4.2,0,0,0,0,0,0l1.9-1.9c1.2-1.2,3.1-1.2,4.3,0,1.2,1.2,1.2,3.1,0,4.3l-1.9,1.9c-1.2,1.2-3.1,1.2-4.2,0,0,0,0,0,0,0ZM19.9,7c-.7-.7-1.9-.7-2.6,0,0,0,0,0,0,0l-1.9,1.9c-.7.7-.7,1.9,0,2.7s1.9.7,2.7,0h0l1.9-1.9c.7-.7.7-1.9,0-2.6,0,0,0,0,0,0h0Z"/>
      <path class="st1" d="M20.3,6.6c-.8-.9-2.3-1-3.2-.2,0,0,0,0,0,0l-2.2,2.2c-.8.9-.8,2.4.1,3.2.9.9,2.3,1,3.2.1,0,0,0,0,0,0l2.3-2.2c.9-.9.8-2.4-.1-3.2ZM18,11.5c-.7.7-1.9.7-2.7,0s-.7-1.9,0-2.7l1.9-1.9c.7-.7,1.9-.7,2.6,0s.7,1.9,0,2.6h0l-1.9,1.9Z"/>
      <path class="st2" d="M19,11.4c-1.2-1.2-1.2-3.1,0-4.2,0,0,0,0,0,0l1.9-1.9c1.2-1.2,3.1-1.2,4.3,0,1.2,1.2,1.2,3.1,0,4.3h0l-1.9,1.9c-1.2,1.2-3.1,1.2-4.2,0,0,0,0,0,0,0ZM24.3,6c-.7-.7-1.9-.7-2.6,0l-1.9,1.9c-.7.8-.6,1.9.2,2.6.7.6,1.8.6,2.5,0l1.9-1.9c.7-.7.7-1.9,0-2.6,0,0,0,0,0,0h0Z"/>
      <path class="st1" d="M24.7,5.6c-.9-.9-2.3-1-3.2-.2l-2.2,2.2c-.8.9-.8,2.4.2,3.2.9.9,2.3,1,3.2.2l2.2-2.2c.8-.9.8-2.4-.2-3.3ZM22.4,10.5c-.8.7-1.9.6-2.6-.2-.6-.7-.6-1.8,0-2.5l1.9-1.9c.8-.7,1.9-.6,2.6.2.6.7.6,1.8,0,2.5l-1.9,1.9Z"/>
      <path class="st2" d="M21.2,7l-.9.9c.2.6,0,1.3-.5,1.8l-1.8,1.8.8.8,1.8-1.8c.9-.9,1.2-2.3.6-3.5Z"/>
      <path class="st1" d="M20.8,7.4l-.5.5c.2.6,0,1.3-.5,1.8l-1.8,1.8.4.4,1.9-1.9c.6-.7.8-1.6.4-2.4Z"/>
    </g>
  </g>
</svg>