<svg id="Layer_1" data-name="Layer 1" xmlns="http://www.w3.org/2000/svg" viewBox="0 0 745 461"><defs><style>.cls-1{fill:#ccb78b;opacity:0.3;}.cls-2{fill:#473b1e;}.cls-3{fill:#847d3d;}.cls-4{fill:#e56b10;}.cls-5{fill:#fed385;}.cls-6{fill:#fff;}.cls-7{fill:#005263;}.cls-8{fill:#182c3c;}.cls-9{fill:#024149;}.cls-10{fill:#f0806d;}.cls-11{fill:#bc584b;}.cls-12{fill:#ffb085;}.cls-13{fill:#fbb1b2;}.cls-14{fill:#0e1d28;}.cls-15{fill:#ff5c55;}.cls-16{fill:#fefeff;}.cls-17{fill:#884627;}.cls-18{fill:#110804;}.cls-19{fill:#f2ab88;}.cls-20{fill:#212121;}.cls-21{fill:#363636;}</style></defs><path class="cls-1" d="M482,413.91c10.32,15.47-84.25,5.66-68.36-1.91C426.09,406.05,475.93,404.85,482,413.91Z"/><path class="cls-1" d="M353.07,398.58c32.15,48.24-262.54,17.67-213-5.93C179,374.1,334.26,370.37,353.07,398.58Z"/><path class="cls-2" d="M123.11,234.8h0a5.8,5.8,0,0,0-5.8,5.8V425.09h11.6V342.3H381.25v82.79h11.6V240.6a5.8,5.8,0,0,0-5.8-5.8h0a5.8,5.8,0,0,0-5.8,5.8v5.8H128.91v-5.8A5.8,5.8,0,0,0,123.11,234.8Zm156.63,87.69H236.23V259h43.51ZM286.5,259H330v63.53H286.5Zm-57,63.53H186V259h43.5Zm151.79,0H336.78V259h44.47ZM128.91,259h50.28v63.53H128.91Z"/><rect class="cls-3" x="381.25" y="342.3" width="11.6" height="82.79" transform="translate(774.1 767.39) rotate(180)"/><rect class="cls-3" x="117.31" y="342.3" width="11.6" height="82.79" transform="translate(246.23 767.39) rotate(180)"/><path class="cls-3" d="M117.31,325.57H392.85a0,0,0,0,1,0,0v3.19a13.54,13.54,0,0,1-13.54,13.54H130.85a13.54,13.54,0,0,1-13.54-13.54v-3.19A0,0,0,0,1,117.31,325.57Z" transform="translate(510.17 667.87) rotate(-180)"/><path class="cls-4" d="M433.51,411.41l-1.57,4.69s-14.4-4.33-15.6-16.33a19.81,19.81,0,0,1,0-3.84c.84-9,7.88-11.32,5.23-3.36a12.52,12.52,0,0,0-.59,2.67C420,403.5,426.86,411.91,433.51,411.41Z"/><path class="cls-5" d="M488.58,360.82c-.42,3.06-4.18,6.42-8.9,8.34h0a21.45,21.45,0,0,1-2.21.78,18.53,18.53,0,0,1-7.59.68c-.63-.09-1.25-.19-1.85-.32-7.25-1.57-12.4-6.2-11.76-10.87.37-2.72,2.64-4.9,5.93-6.16a17.35,17.35,0,0,1,2.53-.74,22.6,22.6,0,0,1,7.66-.21c1.77.24,3.57.54,5.29.91h0C483.92,354.58,489.12,356.86,488.58,360.82Z"/><path class="cls-5" d="M479.24,416.1h-8.3s-4.2-14.36-5.6-22.16c-1.4,4.6-1.4,17.5-1.4,17.5s3.56.55,4.32,3.83a.64.64,0,0,1-.65.83h-9.07s-1.2-18.37.2-22.76c-3.24,3.69-3.88,14.28-4,19.61a3.22,3.22,0,0,1-3.22,3.15h-20s-2.16-11.05,1.87-21.29a25.7,25.7,0,0,1,10.34-12.67A87.77,87.77,0,0,0,454,374.71h0c7-6,7.55-9.36,7.55-9.36l11.1,4.21c-.7,2.59-1.7,25.45,1.7,41.89,3.53.2,4.87.6,6,2.94A1.21,1.21,0,0,1,479.24,416.1Z"/><path class="cls-4" d="M461,353.79c-4.23-2.05-9-8.1-12.63-2.68s-4,14.9,0,12.56,6.4-7.2,6.4-7.2l2.14,1.91Z"/><path class="cls-4" d="M465.94,352.94c.2-4,1.8-10,6.7-7.8s2.65,3.58,0,4.8a10.89,10.89,0,0,0-3.5,2.2Z"/><path d="M485.53,356c-3,.45-1.64,5.23,1.33,5.63S491.84,355,485.53,356Z"/><path class="cls-4" d="M468,370.3c-7.25-1.57-12.4-6.2-11.76-10.87.37-2.72,2.64-4.9,5.93-6.16,2.81,1.1,7.15,4.58,6.41,6.74C467,364.73,470.78,369.11,468,370.3Z"/><path class="cls-4" d="M477.68,353.23c-1-.11-2.89,3.8-5.26,4.58-2.2.73-4.46-2.1-7.69-5.28a22.6,22.6,0,0,1,7.66-.21C474.16,352.56,476,352.86,477.68,353.23Z"/><path d="M465.33,359.46a1.54,1.54,0,1,1-3.07,0,1.54,1.54,0,0,1,3.07,0Z"/><path d="M472.3,354.26a1.2,1.2,0,1,1-1.2-1.19A1.19,1.19,0,0,1,472.3,354.26Z"/><path d="M479.68,369.16a21.45,21.45,0,0,1-2.21.78h-.42a10.67,10.67,0,0,1-7.44-3,.29.29,0,0,1,.41-.41C473.72,370.29,479.1,369.29,479.68,369.16Z"/><path class="cls-4" d="M453,384.13c1.1,2.25-5.25,10.84-8.16,7.54s-4.89-1.33-7.93,1.32a7.63,7.63,0,0,1-3.5,1.82,25.7,25.7,0,0,1,10.34-12.67A87.77,87.77,0,0,0,454,374.71C452.07,378.05,451.85,381.88,453,384.13Z"/><path class="cls-6" d="M415.31,393.65c0,.11.07.23.1.33l-.1.83Z"/><path class="cls-5" d="M421.54,392.57a12.52,12.52,0,0,0-.59,2.67,9.84,9.84,0,0,0-1.28,1.32c-1,1.28-2.32.92-3.36-.63C417.15,387,424.19,384.61,421.54,392.57Z"/><path class="cls-7" d="M460.1,368.2s7.65,5.34,12.2,4.44l-.16,2.07s-9.7-1.42-13-5.25C459.18,369.46,459.89,368.53,460.1,368.2Z"/><path class="cls-8" d="M417.24,328.33a6,6,0,0,1-1.63.16c-.39,0-.81,0-1.26-.07-5.52-.54-15.28-3.71-19.69-3.71H386l-2.19-3.34c-2.38-3.64-5.2-7.94-7.13-10.93,5.77,1.47,10.12,2.63,11.72,2.63,5.29,0,3.45-4.16,8.78-6.33s4.26,4.14,11,2.29S421.19,327.24,417.24,328.33Z"/><path class="cls-7" d="M330.06,305.74c-17.5,5.42-20.94,2.31-20.94,2.31l-8.23-10.17L282.83,293l-11.64,16c3.91,2.11,8.19,5.81,10.29,9.92s8.94,5.77,14.18,5.77H386c-2.61-4-6.76-10.27-9.34-14.27C363.3,307,342.28,302,330.06,305.74Z"/><path d="M414.35,328.42c-5.52-.54-15.28-3.71-19.69-3.71H386l-2.19-3.34c4.13,0,7.12.4,10-1s8.93-3.15,11.54-3,6.66,3.36,6.47,5.33C411.69,324.44,411.74,327.83,414.35,328.42Z"/><path class="cls-9" d="M383.81,321.37c-2.53,0-20.2-14-20.2-14l-5.28-1.05,12.26,18.43H386Z"/><path class="cls-9" d="M283.42,313.08s6.31-13.91,20.85-11.25l-7-20.23s-11.54,19.81-12.7,21S283.42,313.08,283.42,313.08Z"/><path class="cls-10" d="M224.82,253.15s-4.14-1.34-5.67.62-9.18,18-8.92,21.1c.12,1.39.13,3.92.11,6.31,0,2.88-.11,5.55-.11,5.76,0,.39-14.62,0-14.62,0V271.8c0-3.65.65-1.83,6.27-22.82s11.1-32.69,16.49-34.19l3.09,18.35Z"/><path class="cls-11" d="M224.82,253.15s-4.14-1.34-5.67.62-9.18,18-8.92,21.1c.12,1.39.13,3.92.11,6.31a2,2,0,0,1-.13-.77c0-3.27-3.76-7.84-4.16-7.84s12-33.69,11.84-39.43h3.57Z"/><path class="cls-10" d="M318.87,261.51a24.6,24.6,0,0,0-20.32,13.16c-.56,1-1.09,2.15-1.6,3.33-6.12,13.88-10.47,36.49-37.53,31.29,0,0-28.39-39.31-36.11-59.82q-2.52-6.71-4.16-12v0c-3.92-12.64-4.24-19.44-2-21.64,4-4.05,12.41-2.63,20.12-2.26s21.63-7.45,29.35-8.71,11.09,1.56,12.4,11c.27,1.89.64,4.27,1,6.92,1.65,10.57,4,25.32,2.91,28.63-.88,2.76,12.41,5,23.35,7.12C311.74,259.5,316.61,260.51,318.87,261.51Z"/><path class="cls-11" d="M306.29,258.47l-7.79,7s-19.84-8.19-17.36-12.64-6.79-24.28-8.45-31.85l7.34,1.72c1.65,10.57,4,25.32,2.91,28.63C282.06,254.11,295.35,256.38,306.29,258.47Z"/><path class="cls-11" d="M297,278c-6.12,13.88-10.47,36.49-37.53,31.29,0,0-28.39-39.31-36.11-59.82q-2.52-6.71-4.16-12c3.78,10.94,14.58,25.85,21.23,31.25s14.65,13.11,23.91,14.16C271.91,283.74,287.83,282.24,297,278Z"/><path class="cls-10" d="M323.43,265.49,316,263.26,305.14,260s-13.75-19-23.24-24.84a16.24,16.24,0,0,1-4.71-4.8s0,0,0,0c-6.26-9.22-8.88-25.7-4.91-25.5,5.49.28,14.25,7.21,18.77,12.48s22,24.26,29.15,29.34S326.25,260,323.43,265.49Z"/><path class="cls-11" d="M316.67,249.1,316,263.26,305.14,260s-13.75-19-23.24-24.84a16.24,16.24,0,0,1-4.71-4.8c3.35,4.22,7.36,3,13,7.48s13.32,13.58,15.05,13.71S309.48,246.72,316.67,249.1Z"/><path class="cls-12" d="M310.58,270l-2.25.44c-2.68.42-7.71,4.47-7.71,4.47.75,3-2.64,9-4.14,10.9-1.21,1.52-1.37,8.54-1.39,11.17a1,1,0,0,1-2,.35,15.28,15.28,0,0,1-.79-2.39c0-.42-.28-4-.28-4v-3.85h-.76l-.63,6.07.63,3.38s1,2.14.42,2.52-2.13,1.29-3.13,0c0,0-.38,1.62-1.14,1.81s-3.27-2.52-3.57-3a48.71,48.71,0,0,1-1-4.79l1-7.74-1.61,7s1.65,9.07-.38,9.07-2.23-2.52-2.62-3.47-.28-4.84-.47-6,1.95-9.74,2.33-10.49,8.5-9,10.4-11.79c1-1.47,3.43-3.59,5.89-5.91,7.56-1.61,11.39,1.77,12.79,5,0,.12.1.24.14.36A5.86,5.86,0,0,1,310.58,270Z"/><path class="cls-13" d="M310.58,270l-2.25.44c-2.68.42-7.71,4.47-7.71,4.47-2-2.5.09-3.63,3.06-4.19a46.29,46.29,0,0,0,6.48-1.95c0,.12.1.24.14.36A5.86,5.86,0,0,1,310.58,270Z"/><path class="cls-10" d="M324.72,258.59h0a16.9,16.9,0,0,1-1.29,6.89c-.68,1.48-8.53,3.53-12.85,4.47a7.68,7.68,0,0,0-.42-1.22h0c-1.4-3.24-5.23-6.62-12.79-5a35.26,35.26,0,0,0,5.74-6.42c2.68-4.4,8.09-10.32,15.76-7.65,4.22,1.48,5.66,5,5.84,8.55C324.72,258.33,324.72,258.46,324.72,258.59Z"/><path class="cls-7" d="M324.72,258.6a16.9,16.9,0,0,1-1.29,6.89c-.68,1.48-8.53,3.53-12.85,4.47a7.68,7.68,0,0,0-.42-1.22h0c5.19-1.51,10.81-4.26,11.33-7C322,259.2,324.55,260.1,324.72,258.6Z"/><path class="cls-12" d="M232.53,213.17c0,4.7-1.88,8,11.85,18.3l5.89-18.3-2.89-2.64Z"/><path class="cls-12" d="M228.45,202.48c-2.11,0-7-9.59-2.53-8.32S228.45,202.48,228.45,202.48Z"/><path class="cls-12" d="M235.82,190.79s-5.69-.53-7.37,2.84-1.37,23.5,9.79,25.18,13.07-18,11.59-24C249.83,194.79,238.45,196.16,235.82,190.79Z"/><path class="cls-14" d="M256.46,212.55V190.93c0-9.16-6.26-17.58-16.6-16.61-8.71.82-13.8,8.22-14.32,12.43s-.53,8.33.52,9.8-.2,2.36,1.59,4c-.12-3.19.21-5.81.73-6.84,1.69-3.37,7.37-2.85,7.37-2.85,2.64,5.38,14,4,14,4a55.13,55.13,0,0,1,.07,9.73c-4.25,4-1.86,10-1.86,10s-.85,1.9-4.32,5.7,0,9,0,9c-2,2.21-4.85,12.22,0,19a16.63,16.63,0,0,0,12.8,6.64Z"/><path class="cls-7" d="M333.16,293.83a11.08,11.08,0,0,1-2,4.05c-6.08,8-22.3,10.49-25.95,7.86C301,302.7,297,284.33,297,278s11.85-20.38,21.57-16.63l.35.14C329.79,266.24,336,282.72,333.16,293.83Z"/><path class="cls-9" d="M333.16,293.83a11.08,11.08,0,0,1-2,4.05L320.75,291c6.48-4.89,4.94-22.9-4.76-27.69l2.53-1.89.35.14C329.79,266.24,336,282.72,333.16,293.83Z"/><path class="cls-8" d="M405.38,362.8c.29,5.36-12.69,14.39-15.23,13s-3.1-16.64-3.1-16.64-4.51-11.28-10.44-16.93a37,37,0,0,0-5.21-3.72l8-13c5.17,5.78,9,9.16,12.46,9.29,4.51.16,9,2.65,9.87,10.37a45.28,45.28,0,0,0,.78,4.77l0,.12c.19.89.4,1.74.62,2.55C404.13,356.32,405.2,359.41,405.38,362.8Z"/><path class="cls-7" d="M379.39,325.46l-8,13c-12.27-7.72-39.45-21.3-42.75-22.24-3.95-1.12-19.58-6.3-23.45-10.5a5,5,0,0,1-1.33-5.34c2-5.62,13.91-11.37,16.88-9.45,3.55,2.29,3.38.75,17.21,3.73s28.49,15.64,36.39,24.95C376.17,321.78,377.84,323.72,379.39,325.46Z"/><path d="M402.5,349.89c-2.16-8-5-10.18-10.65-15.14,4.51.16,9,2.65,9.87,10.37A45.28,45.28,0,0,0,402.5,349.89Z"/><path class="cls-9" d="M371.4,338.48c-7.51-6.27-24.42-20.55-33.72-23.8s-13.76-11.27-20.24-10.06c-3.9.72-9.12.07-11.79-1.38a3.31,3.31,0,0,1-1.38-1.41l-.4-1.43c-3.39-3.94-5.64-12.72-5.64-12.72S301.07,303,305.45,306h0c4.24,4.15,19.33,9.15,23.2,10.25C332,317.18,359.13,330.76,371.4,338.48Z"/><path class="cls-15" d="M244,210.86c-1.74.79-7.32,1.87-10.44.45.4.86,2.24,3.86,5.63,3.28C241.34,214.36,242.57,212.9,244,210.86Z"/><path class="cls-16" d="M242.16,211.86a15.35,15.35,0,0,1-6.33.13C236.76,214.39,241.09,213.81,242.16,211.86Z"/><path class="cls-15" d="M236.38,208.94c0,.3,1.23.64,2.51.66s2.35-.4,2.36-.7-.23-.32-.86-.33c-.42,0-1,.66-1.57.65s-1.27-.8-1.69-.71S236.38,208.78,236.38,208.94Z"/><path class="cls-17" d="M240.76,203.05c0-.09.08-.19.18-.29a4.11,4.11,0,0,1,.29-.3,4.57,4.57,0,0,1,.68-.47,3.79,3.79,0,0,1,1.63-.46,3.12,3.12,0,0,1,1.77.4,2.09,2.09,0,0,1,1.11,1.43l-.07.08a3.61,3.61,0,0,0-1.29-.7,4.22,4.22,0,0,0-1.46-.14,7.25,7.25,0,0,0-1.47.22l-.73.2-.36.1-.2,0h-.11a.11.11,0,0,1-.08-.07.15.15,0,0,1,0-.08Z"/><path class="cls-17" d="M230.65,203.05c0-.09.08-.19.17-.29a4.11,4.11,0,0,1,.29-.3,4.19,4.19,0,0,1,.69-.47,3.71,3.71,0,0,1,1.63-.46,3.08,3.08,0,0,1,1.76.4,2.09,2.09,0,0,1,1.11,1.43l-.07.08a3.61,3.61,0,0,0-1.29-.7,4.22,4.22,0,0,0-1.46-.14,7.36,7.36,0,0,0-1.47.22l-.72.2-.37.1-.19,0h-.12a.08.08,0,0,1-.07-.07.1.1,0,0,1,0-.08Z"/><path class="cls-6" d="M235.29,205.73c-.26,1.64-3.93,1.12-3.56-.63C232.13,203.06,235.55,203.75,235.29,205.73Z"/><path d="M232.63,205.78c-.24,1.1,1.57,1.46,1.7.3C234.62,204.58,232.88,204.27,232.63,205.78Z"/><polygon class="cls-6" points="234.56 205.51 233.69 205.52 234.33 206.08 234.56 205.51"/><path class="cls-18" d="M231.73,205.1a1.88,1.88,0,0,1,3.56.63C235.74,203.57,231.91,202.93,231.73,205.1Z"/><path class="cls-6" d="M241.58,205.73c.26,1.64,3.94,1.12,3.57-.63C244.75,203.06,241.33,203.75,241.58,205.73Z"/><path d="M244.25,205.78c.24,1.1-1.58,1.46-1.71.3C242.26,204.58,244,204.27,244.25,205.78Z"/><polygon class="cls-6" points="242.32 205.51 243.19 205.52 242.55 206.08 242.32 205.51"/><path class="cls-18" d="M245.15,205.1a1.88,1.88,0,0,0-3.57.63C241.14,203.57,245,202.93,245.15,205.1Z"/><path class="cls-15" d="M232.45,215.51s7.37,8.45,14-.72l-.37,2.14s-2.91,6-13.28,2A9.13,9.13,0,0,1,232.45,215.51Z"/><path class="cls-19" d="M185.44,327.74l9.13,6.75s1.37,12.75,2.27,15,10.1,11.36,8.47,13.09-5.64,2.42-9.45-.49-7.06-5.34-8.31-6.82a118.81,118.81,0,0,0-13.34-12.81,2.48,2.48,0,0,1-.8-2.62C177.43,336.7,180.46,332.7,185.44,327.74Z"/><path class="cls-8" d="M181,331.55c2.65,3.5,4.39,5.94,7.39,7.56a3.65,3.65,0,0,0,.55.25c1.14,4.07,2.59,7.25,2.71,5.21,0-.83,0-2.87.13-4.4a22.37,22.37,0,0,0,3.88.28,50.3,50.3,0,0,0,2.94,10.14c1,2.56,11.39,12.79,9.55,14.74s-6.36,2.72-10.65-.56a172,172,0,0,1-13.82-12.24,7.78,7.78,0,0,0-3.38-4.57,10.39,10.39,0,0,0-1.75-.85c-1.34-1.23-2.81-2.51-4.39-3.81a2.78,2.78,0,0,1-.7-3.44C174.63,337.55,178.11,334.49,181,331.55Z"/><path d="M174.5,338.25c1,1,2.35,2.07,4.46,4.13,5.87,5.74,4.9,7.83,7,10.18,5.69,6.46,11.32,10.24,13.1,11.11,2.5,1.58,5.82,2.73,9.18,1.5a1.4,1.4,0,0,1-.1.16c-1.84,1.94-6.36,2.72-10.65-.56a172,172,0,0,1-13.82-12.24,7.78,7.78,0,0,0-3.38-4.57,10.39,10.39,0,0,0-1.75-.85c-1.34-1.23-2.81-2.51-4.39-3.81a2.78,2.78,0,0,1-.7-3.44C173.45,339.78,174.5,338.25,174.5,338.25Z"/><path class="cls-9" d="M256.35,285.66l-.33.53-7.93,12.56-21.32,7-12.3-8.61s-1.5-7.84,2.6-6.7c2,.54,7.42-.41,12.91-1.69,6-1.37,12-3.1,13.64-3.67C246.74,284,249.4,283.9,256.35,285.66Z"/><path class="cls-9" d="M256.35,285.66l-.33.53c-3.73-.22-7.63,0-9.85,1.31-3.65,2.21-10.23,2.49-16.19,1.24,6-1.37,12-3.1,13.64-3.67C246.74,284,249.4,283.9,256.35,285.66Z"/><path class="cls-7" d="M265.23,303a8.72,8.72,0,0,1-1.09,2.81v0c-4.77,8.28-22.63,17.47-28.2,20.26-4.1,2-25.45,9.2-39.54,13.85-1-5.82-7.15-10.29-12.65-11.61,5.92-4.24,12.73-9.41,16.88-12.9,3.56-3,7.42-7.16,13-10.81A49.13,49.13,0,0,1,235.25,297,35.36,35.36,0,0,0,242.8,291c3.12-3.49,6.22-7.32,13.55-5.29S266.78,294.12,265.23,303Z"/><path class="cls-9" d="M264.16,305.76l0,.05v0c-4.77,8.28-22.63,17.47-28.2,20.26-4.1,2-25.45,9.2-39.54,13.85-1-5.82-7.15-10.29-12.65-11.61,5.92-4.24,12.73-9.41,16.88-12.9,3.56-3,7.42-7.16,13-10.81l13.11,1.12c.13,15.56,14.8,12.71,21.21,9.3S261.55,310.41,264.16,305.76Z"/><path class="cls-10" d="M194.49,261.76a105.49,105.49,0,0,0-3.74,13.06c-1.27,5.62-1.93,10-1.93,10h-36.6c-19.3,0-24.69,20.91-24.69,20.91s-8.22-38-4.54-66.11c1.54-11.71,5.67-19.39,11.46-25.11h0c8.08-8,19.41-12.15,31.43-18.16,0,0,15.7-5.39,31.15,4C215.58,211.6,198.18,251.83,194.49,261.76Z"/><path class="cls-11" d="M190.75,274.82c-1.27,5.62-1.93,10-1.93,10h-36.6c-19.3,0-24.69,20.91-24.69,20.91s-8.22-38-4.54-66.11c1.54-11.71,5.67-19.39,11.46-25.11h0l27.28,19.74c-1.49,16.4-1.9,25,0,27.51C163.37,263.87,180.58,272.84,190.75,274.82Z"/><path class="cls-12" d="M230.37,286.73l-1.29.47h0l-.8.29a6.66,6.66,0,0,1-3-2.67l-2.55-1.44-4.89-.77h0l3.49,4.52a.83.83,0,0,1,.13.83,2.38,2.38,0,0,1-2.52,1.86s-1.22,3.55-3.22,2.11c0,0,.45,2-1.55,1.88s-3.34-2.88-4.44-2.88-13.11-2.77-21.54-4.44l-.65-.12a8.8,8.8,0,0,1,3.16-8.17c1.81.35,2.93.51,2.93.51s16.43-1.66,18.32-2l10.77,2,6.27,4.64a1.8,1.8,0,0,1,.68,1Z"/><path class="cls-15" d="M229.08,287.2h0l-.8.29a6.66,6.66,0,0,1-3-2.67l-2.55-1.44-4.89-.77c-1.12-1.29-1.12-1.92.77-1.58s4,.42,4.51.74,2.52,2.11,2.92,2.31S227.79,287.68,229.08,287.2Z"/><path class="cls-13" d="M209.73,291c-1.11,0-13.11-2.77-21.54-4.44l-.65-.12C195.9,286.62,205.29,288.06,209.73,291Z"/><path class="cls-10" d="M187.54,286.39a78,78,0,0,0-9.69-.59c-12.37-.23-30.36.34-37.07-1.63,0,0-4.2.79-6.31-1.77a20.81,20.81,0,0,1-1.74-5c-2.75-10.38-6.91-34.26-3.57-50.65l0-.13c1-4.88,2.68-9.09,5.28-12.07,7.12-8.19,27.11-6.94,27.68,11.79a50.35,50.35,0,0,1-.4,7.95c-1.88,14.75-9.45,25.7-9,30.06,0,0,10.54.88,18.53,6.66,5.75,4.15,14.78,6.35,19.39,7.25A8.8,8.8,0,0,0,187.54,286.39Z"/><path class="cls-11" d="M161.75,234.17v.08c-1.88,14.75-9.45,25.7-9,30.06a33.72,33.72,0,0,0-7.95,1.15s.2-3.39,4-6.78S160.35,244.22,161.75,234.17Z"/><path class="cls-11" d="M177.85,285.8c-12.37-.23-30.36.34-37.07-1.63,7.44-.42,14.21-2.49,19.85-1.78C163.46,282.74,171,284.31,177.85,285.8Z"/><path class="cls-12" d="M189.6,209.33a15.15,15.15,0,0,0-4.42,5.78,2.87,2.87,0,0,1-3.45,1.61,19,19,0,0,1-8.48-5.39l-.08-.09c-5.77-6.23-7.27-14.89-7.27-14.89l3.18-1.63,4.18-9.16,5.62,4.81Z"/><path class="cls-15" d="M189.6,209.33a15.15,15.15,0,0,0-4.42,5.78c-1.76-7.14-9.36-22.75-13.47-17.57-2.83,3.56.41,12.38,1.46,13.7-5.77-6.23-7.27-14.89-7.27-14.89l3.18-1.63,4.18-9.16,5.62,4.81Z"/><path class="cls-14" d="M177.6,165.67a4.92,4.92,0,0,1,5-4.72c1.34.06,2.62.66,4,.65,3.22,0,7.37-5.13,18.7,7.94,5.69,6.58,1.62,12.25-2.86,13.1-3.63.69-6.32-1.26-10.77,4.34-10.06,12.67-12.29,3.26-15.06.67-1.26-1.17-3.27-1.1-4-2.69C170.08,180,170.55,160,177.6,165.67Z"/><path class="cls-12" d="M180,187c-.75-4-3-7.65-6.13-6.43s-1.38,11.41,4.38,11.65c0,0-.13,7.29,4,12.75s10.88,10,17.38-2.43,6-20.88,5.38-24.77c0,0-3.94,8.38-16.17-3.52a5.36,5.36,0,0,0-3.22,6.07c.88,4.5-.12,2.8-2.12,3.65s-1.88,7-1.88,7h0a3.07,3.07,0,0,1-1.56-2.54Z"/><path class="cls-20" d="M221.5,289.83,252,279.14a.64.64,0,0,1,.75.48h0a1.93,1.93,0,0,1-.87,2.54l-28.44,10a1.91,1.91,0,0,1-2.26-1.44h0A.64.64,0,0,1,221.5,289.83Z"/><path class="cls-21" d="M239.9,284.13a1.94,1.94,0,0,0,2.21,1.46l9.8-3.43a1.93,1.93,0,0,0,.87-2.54.63.63,0,0,0-.73-.48l-11.86,4.15A.64.64,0,0,0,239.9,284.13Z"/><path class="cls-7" d="M209.3,316.46c-7.35,4.69-14.5,8.25-14.5,8.25H140.18c-10.35,0-14.62-11.94-12.65-19A30.23,30.23,0,0,1,132.87,295s0,0,0,0c8.08-10.15,22.25-12.57,38.29-12.57,24.24,0,50,8.29,53.65,16.93C226.77,304,217.89,311,209.3,316.46Z"/><path class="cls-9" d="M209.3,316.46c-7.35,4.69-14.5,8.25-14.5,8.25H140.18c-10.35,0-14.62-11.94-12.65-19A30.23,30.23,0,0,1,132.87,295c-5.76,9.07,38.16,10.76,52.9,11.6,12,.68,17.8,0,20.46-2.24Z"/><path class="cls-15" d="M177.2,190a2.09,2.09,0,0,0,1.85.76.73.73,0,0,0,.51-.78c-.21-.65-2.29-1.81-1.77-3.62s-1.81-3.59-2.53-2.58C174.69,184.53,175.38,188.12,177.2,190Z"/><path class="cls-15" d="M197.14,200.26c-1.87.46-7.54.5-10.35-1.47.23.92,1.49,4.2,4.93,4.26C193.84,203.21,195.32,202,197.14,200.26Z"/><path class="cls-16" d="M195.11,200.9a15.27,15.27,0,0,1-6.25-1C189.34,202.4,193.7,202.62,195.11,200.9Z"/><path class="cls-17" d="M204.42,189.51l-1-.37s-5.45.25-6.23.07l.77-2,5.93.68C204.43,187.94,204.61,188.89,204.42,189.51Z"/><path class="cls-17" d="M193.18,186.86c.12-.43-7.05-1.75-7.05-1.75l-2.12.08a71.81,71.81,0,0,0,6.91,2.83C192,188.86,192.87,188,193.18,186.86Z"/><path class="cls-6" d="M197.78,191.92c.26,1.64,3.93,1.12,3.56-.63C200.94,189.25,197.52,189.94,197.78,191.92Z"/><path d="M200.44,192c.24,1.1-1.57,1.45-1.7.3C198.45,190.76,200.19,190.46,200.44,192Z"/><polygon class="cls-6" points="198.48 191.68 199.33 191.82 198.62 192.28 198.48 191.68"/><path class="cls-18" d="M201.34,191.29a1.88,1.88,0,0,0-3.56.63C197.33,189.75,201.16,189.12,201.34,191.29Z"/><path class="cls-6" d="M191.2,190.47c-.26,1.64-3.93,1.12-3.56-.63C188,187.8,191.46,188.49,191.2,190.47Z"/><path d="M188.54,190.52c-.24,1.1,1.57,1.45,1.7.3C190.53,189.31,188.79,189,188.54,190.52Z"/><polygon class="cls-6" points="190.47 190.25 189.6 190.26 190.24 190.81 190.47 190.25"/><path class="cls-18" d="M187.64,189.84a1.88,1.88,0,0,1,3.56.63C191.65,188.3,187.82,187.67,187.64,189.84Z"/><path class="cls-15" d="M192,196.41c0,.31,1.24.65,2.52.66s2.35-.39,2.35-.69-.22-.32-.86-.33c-.41,0-1,.65-1.56.65s-1.28-.8-1.69-.71S192,196.26,192,196.41Z"/><path class="cls-19" d="M184.38,370l10.91,3.15s5.71,11.48,7.34,13.3,13.43,7.14,12.5,9.33-4.45,4.23-9,2.82-8.47-2.54-10.15-3.5a118.63,118.63,0,0,0-17-7.38,2.46,2.46,0,0,1-1.66-2.18C180,381.22,181.43,376.42,184.38,370Z"/><path class="cls-8" d="M181.49,375.17c3.71,2.36,6.18,4.05,9.56,4.53a5.09,5.09,0,0,0,.6,0c2.49,3.43,4.95,5.9,4.35,3.95-.24-.79-1-2.68-1.4-4.17a22.78,22.78,0,0,0,3.74-1.09,49.06,49.06,0,0,0,6.28,8.48c1.84,2.05,15.12,8.05,14.07,10.51s-5,4.76-10.18,3.18a168.87,168.87,0,0,1-17.21-6.68,7.78,7.78,0,0,0-4.76-3.1,8.76,8.76,0,0,0-1.93-.19c-1.69-.69-3.51-1.38-5.45-2.05a2.78,2.78,0,0,1-1.85-3C177.65,383,179.85,378.92,181.49,375.17Z"/><path d="M177.78,383.69c1.28.63,2.92,1.14,5.61,2.33,7.5,3.34,7.32,5.64,10.07,7.12,7.58,4.08,14.17,5.67,16.14,5.87,2.9.61,6.41.54,9.13-1.79a1.29,1.29,0,0,1,0,.19c-1.05,2.46-5,4.76-10.18,3.18a168.87,168.87,0,0,1-17.21-6.68,7.78,7.78,0,0,0-4.76-3.1,8.76,8.76,0,0,0-1.93-.19c-1.69-.69-3.51-1.38-5.45-2.05a2.78,2.78,0,0,1-1.85-3C177.33,385.49,177.78,383.69,177.78,383.69Z"/><path class="cls-7" d="M221.17,323.31s-12.58,31.87-22.08,54l-4-.82-9.56-1.94-5.25-1.06c.42-1.53.81-3,1.14-4.49A52,52,0,0,0,183,357.78c0-5.93-.22-15.73,1.56-25h0c1.66-8.65,5.06-16.88,12-21.19,14.42-8.95,20.49-20.63,25.66-15.7C227.53,301,229.71,312.21,221.17,323.31Z"/><path class="cls-9" d="M185.53,374.49l-5.27-1c.42-1.53.81-3,1.14-4.49A52,52,0,0,0,183,357.78c0-5.93-.22-15.73,1.56-25h0C183,343.44,187.63,367.48,185.53,374.49Z"/></svg>