<svg id="Layer_1" data-name="Layer 1" xmlns="http://www.w3.org/2000/svg" viewBox="0 0 745 461"><defs><style>.cls-1{fill:#ccb78b;opacity:0.3;}.cls-2{fill:#fff;}.cls-3{fill:#ffb085;}.cls-4{fill:#005263;}.cls-5{fill:#024149;}.cls-6{fill:#f0806d;}.cls-7{fill:#aa3f30;}.cls-8{fill:#bc584b;}.cls-9{fill:#fed385;}.cls-10{fill:#6b5b00;}.cls-11{fill:#ff5c55;}.cls-12{fill:#a6704b;}.cls-13{fill:#a9aaa4;}.cls-14{fill:#ced6cc;}.cls-15{fill:#efa27e;}.cls-16{fill:#ed9771;}.cls-17{fill:#941b1e;}.cls-18{fill:#eb8a61;}.cls-19{fill:#c63e3e;}.cls-20{fill:#dbd8bd;}.cls-21{fill:#351807;}.cls-22{fill:#542913;}.cls-23{fill:#110804;}.cls-24{fill:#1d1f49;}.cls-25{fill:#01707f;}.cls-26{fill:#9e4c35;}.cls-27{fill:#fdc896;}</style></defs><path class="cls-1" d="M256.9,416.6c-23.1-6.75-81.92-.49-85.91-1.18a1.35,1.35,0,0,0-1.11-.57c-35.89-3.51-39.07-4.63-62.18-1.44-4.34.59-12.8.91-13.16,5.14-.15,1.78,1.6,2.92,3.7,3.65,10.91,3.78,19.77,2.41,29,1.94,10.22-.53,17.8,1.67,41.76,2.39,2.89.09,29.27-6.26,85.89-5.3C267.73,421.45,258.61,417.1,256.9,416.6Z"/><path class="cls-1" d="M447.74,413.61c-.71-2-3.35-2.95-6.27-3.4a1.05,1.05,0,0,0-.82-.37c-26.3-2.28-40.52-4.54-57.45-2.47-3.19.38-52.88-4.35-53.15-1.6-.11,1.15-.26,11.37,1.28,11.84,8,2.46,71.32-1.43,78.07-1.74,7.49-.35,13,1.08,30.6,1.55,2.12.06,4.54.11,6.26-.8A2.43,2.43,0,0,0,447.74,413.61Z"/><path class="cls-2" d="M528.91,133.18H422.83s-1.86-3.22,1-4.24a4.87,4.87,0,0,1,3.94.22s2.29-3.64,5.11-3.75a8.22,8.22,0,0,1,5.44,1.53s-1.35-10.47,6.88-10.3c7.75.16,9.18,5.81,9.18,5.81s1.83-22.19,25.19-18.72c16.3,2.42,17.26,18.72,17.26,18.72a12.51,12.51,0,0,1,8.61,0,11.35,11.35,0,0,1,5.84,5.27S526.24,127.72,528.91,133.18Z"/><path class="cls-3" d="M119.72,394.74a20.65,20.65,0,0,1-4.87,6.39c5.54,6.65,15.82,4.63,15.82,4.63a8,8,0,0,1-.12-6.25Z"/><path class="cls-4" d="M110.29,406.41c.07,1,1,2.13,2.36,3.3a56.5,56.5,0,0,0,9.19,5.84s13.17,8.76,24.35,5.3l2.3-1.46s.23-4.28-3.76-3.07c-2.26-.51-5-2.7-7.85-5-2.46-2-4.49-3.85-4.49-3.85s.25-5.14-5.5-2.24c-4.68,2.4-9.42-3.6-9.71-6C117,397.72,113.17,399.74,110.29,406.41Z"/><path class="cls-5" d="M110.29,406.41c.07,1,1,2.13,2.36,3.3a128.82,128.82,0,0,0,15.86,6.4,18.06,18.06,0,0,1,8.37-4.8c-2.46-2-4.49-3.85-4.49-3.85s.25-5.14-5.5-2.24c-4.68,2.4-9.42-3.6-9.71-6C117,397.72,113.17,399.74,110.29,406.41Z"/><path class="cls-4" d="M148.07,422.22s-6.18,4.62-17.76.58c-9-4.89-11.45-5.18-13.94-5.36-2.17-.37-10-4.92-8.91-7a10.46,10.46,0,0,1,1.72-2.42,1.26,1.26,0,0,1,1.66-.14c1.84,1.38,6.29,4.57,8.74,5.16,3.11.82,14.88,11.2,28.54,7.59C148.78,421.35,148.07,422.22,148.07,422.22Z"/><path d="M148.43,421s-6.18,4.62-17.76.57c-9-4.89-11.45-5.18-13.94-5.36-2.17-.36-10-4.91-8.91-7a10.37,10.37,0,0,1,1.72-2.41,1.23,1.23,0,0,1,1.66-.14c1.84,1.37,6.29,4.56,8.74,5.15,3.11.82,15.62,12.7,28.54,7.59C149.14,420.08,148.43,421,148.43,421Z"/><path d="M130.55,407.55s-1.17-3.25-2.41-2.79-9.25,1.12-10.65-6.18c-1.11.2-2.77,1.63-2.64,2.55S117.84,410.25,130.55,407.55Z"/><path class="cls-4" d="M183.93,417.54c.77.54,2.15.57,3.77.34,4.74-.69,11.55-3.71,11.55-3.71s16.1-5,20.76-16.5l.34-2.88s-2.24-2.23-5,1c-1.5,1.5-8.29,2.92-12.42,3.66-1.89.35-3.21.55-3.21.55s-2.84-1.91-5.53,3-9.32,5.34-11.54,3.95C181.28,406.16,180.38,410.65,183.93,417.54Z"/><path class="cls-3" d="M180.67,401.89s1.55,2.78,2,8.31c9.21-.08,14.47-9.92,14.47-9.92-2.24.41-3.75-.95-5-3.07Z"/><path class="cls-5" d="M183.93,417.54c.77.54,2.15.57,3.77.34a60.08,60.08,0,0,0,13.84-7.39,14.35,14.35,0,0,1,1.36-11c-1.89.35-3.21.55-3.21.55s-2.84-1.91-5.53,3-9.32,5.34-11.54,3.95C181.28,406.16,180.38,410.65,183.93,417.54Z"/><path class="cls-4" d="M221.89,396.76s-.27,8.39-11.37,15.26c-10.13,4.16-12,6-13.79,7.93C195,421.5,186,424.85,185,422.53a11.75,11.75,0,0,1-.87-3.12,1.33,1.33,0,0,1,1-1.49c2.38-.58,8-2.07,10.14-3.71,2.76-2,19.29-4.64,25.39-18.59C221.64,395.55,221.89,396.76,221.89,396.76Z"/><path d="M221.61,395.89s-.35,8.2-11.48,15c-10.12,4.16-12,5.95-13.81,7.88-1.76,1.54-10.76,4.9-11.74,2.64a10.94,10.94,0,0,1-.83-3,1.32,1.32,0,0,1,1-1.46c2.37-.59,8-2.11,10.13-3.73,2.77-2,19.25-4.72,25.47-18.41C221.37,394.71,221.61,395.89,221.61,395.89Z"/><path d="M198.52,401.59s-3.46-1.22-3.92.11-5.31,8.37-12.26,4.62c-.59,1.05-.52,3.38.32,3.88S192.19,413.88,198.52,401.59Z"/><path class="cls-6" d="M172.41,219.71l9.13,15.91,10.38,18.07.82,1.42a7.51,7.51,0,0,0,5.09,3.65,8.88,8.88,0,0,0,1.45.13,7.48,7.48,0,0,0,4.66-1.6l30.31-23.7c3.28-2.57,2.28-6.32-.29-9.6s-5.74-4.86-9-2.29L201.5,240l-6.56-11.42-9.43-16.4a7.09,7.09,0,0,0-2.16-2.35,7.46,7.46,0,0,0-8.14-.46A7.56,7.56,0,0,0,172.41,219.71Z"/><path class="cls-7" d="M237,224.57l-2.15-3.22a2,2,0,0,0-2.69-.72L229,222.72a1,1,0,0,0-.2,1.44l3.24,4.87a1.05,1.05,0,0,0,1.43.38l3.11-2.07A2,2,0,0,0,237,224.57Z"/><path class="cls-8" d="M180.33,216.34l1.21,19.28,10.38,18.07c-1.56-9.54,1.53-20.53,3-25.09l-9.43-16.4a7.09,7.09,0,0,0-2.16-2.35Z"/><path class="cls-6" d="M119.51,394.72l11.68,6.13c2.29-4.44,4.77-8.8,7.23-13.14s3.7-7.71,6.29-12c4.1-6.82,8.29-13.55,12.59-20.26l3.36-5.23.05-.08.62-1.58c2.23-5.42,4.36-10.88,6.65-16.3s4.49-10.83,6.84-16.21,4.69-10.79,7.08-16.16,4.86-10.73,7.47-16l-33.2-10.38c-.88,5.85-2,11.63-3,17.44s-2.2,11.57-3.38,17.31-2.38,11.5-3.61,17.24q-1.1,5.16-2.27,10.28c-.51,2.27-1,4.55-1.53,6.82-3.62,8.74-7.34,17.46-11.2,26.07-2.05,4.58-2.84,8.17-5,12.68S121.86,390.32,119.51,394.72Z"/><path class="cls-8" d="M143.91,335.73c7.49,4.9,11.42,12.86,13.39,19.71l3.36-5.23.05-.08.62-1.58c2.23-5.42,4.36-10.88,6.65-16.3s4.49-10.83,6.84-16.21,4.69-10.79,7.08-16.16,4.86-10.73,7.47-16l-33.2-10.38c-.88,5.85-2,11.63-3,17.44s-2.2,11.57-3.38,17.31-2.38,11.5-3.61,17.24Q145.08,330.61,143.91,335.73Z"/><path class="cls-6" d="M132.3,286.82q7.13,14.28,13.58,28.79t12.63,29.14c4.14,9.74,8.05,19.54,11.85,29.38s7.31,19.77,10.4,29.85a14.64,14.64,0,0,0,3.24-.09,11.37,11.37,0,0,0,2.13-.39,13.54,13.54,0,0,0,2-.62,14.3,14.3,0,0,0,2-.84,29,29,0,0,0,4.34-2.57c-3.5-9.93-6.46-20.05-9.33-30.22s-5.46-20.38-7.9-30.67-4.85-20.57-7.1-30.93-4.29-20.77-6.13-31.26Z"/><path class="cls-7" d="M136.7,290.68c16.09,4.64,32,4.79,47.6,0a5.34,5.34,0,0,0,3.71-5.61l-.08-1a5.28,5.28,0,0,1-1.49.67,97.07,97.07,0,0,1-51.87,0,6.35,6.35,0,0,1-1.53-.65l-.09.84A5.36,5.36,0,0,0,136.7,290.68Z"/><path class="cls-6" d="M134.57,287c17.53,4.65,34.83,4.79,51.87,0a5.37,5.37,0,0,0,4-5.62l-6.76-70.31c-.22-2.26-2.14-3.55-4.2-4.69-12.63-6.95-26.8-8.74-38.83-.92-1.91,1.24-2.37,3.7-2.62,5.88l-7.59,69.88A5.37,5.37,0,0,0,134.57,287Z"/><path class="cls-9" d="M139,278.51a2.18,2.18,0,0,0,1.49-.59l12.32-11.67a2.16,2.16,0,0,0-3-3.14l-12.32,11.67a2.16,2.16,0,0,0-.08,3.05A2.13,2.13,0,0,0,139,278.51Z"/><path class="cls-9" d="M189.74,275.84a2.12,2.12,0,0,0,1.32-.46,2.16,2.16,0,0,0,.38-3l-6.5-8.37a2.16,2.16,0,1,0-3.41,2.65L188,275A2.16,2.16,0,0,0,189.74,275.84Z"/><path class="cls-10" d="M173.21,290.29a.54.54,0,0,0,.54-.52c1.77-55.18-3.77-79.55-3.82-79.79a.54.54,0,0,0-.65-.4.55.55,0,0,0-.41.65c.06.24,5.57,24.49,3.8,79.5a.54.54,0,0,0,.52.56Z"/><path class="cls-8" d="M150,214s-8.7,19.09-15,25c1.63-15,2.36-21.73,2.36-21.73Z"/><path class="cls-8" d="M172.63,203.22s9.31,1.55,7.65,4.24c-1.9,2.19-10.88,5.14-10.88,5.14A9.63,9.63,0,0,1,172.63,203.22Z"/><path class="cls-6" d="M172.63,201.62s9.15,2.46,7.49,5.15c-1.9,2.19-10.72,3.34-10.72,3.34S167.94,205.76,172.63,201.62Z"/><path class="cls-3" d="M232.65,220h5.09a1.25,1.25,0,0,1,1.25,1.25v3.41a1.46,1.46,0,0,1-1.46,1.46h-4.88a0,0,0,0,1,0,0V220A0,0,0,0,1,232.65,220Z" transform="translate(553.45 290.01) rotate(148.49)"/><path class="cls-11" d="M251.2,223.57l-.82-8.53c-.26-1.61-2.81-1.69-5.92-1.09l-4.81,1a3,3,0,0,0-2.61,3.19l1.08,5.88c.2,1.45,1.06,2.69,2.76,2.6l5.94-.19C248.77,226.27,251.47,225.23,251.2,223.57Z"/><rect class="cls-3" x="142.14" y="270.93" width="6.34" height="6.11" transform="translate(68.4 574.44) rotate(-137.7)"/><path class="cls-3" d="M150.4,288.17l5.67-5.14a3.27,3.27,0,0,0-.23-4.71l-3.65-3.64a3.21,3.21,0,0,0-4.35-.44l-5.22,4.52a3.17,3.17,0,0,0-.18,4.32l3.19,4.26A3.3,3.3,0,0,0,150.4,288.17Z"/><path class="cls-3" d="M247.62,225.25l1.82-.16a1.92,1.92,0,0,0,1.8-2.06l-.7-7.43a2,2,0,0,0-2.16-1.72l-1.82.16a1.92,1.92,0,0,0-1.8,2.06l.7,7.43A2,2,0,0,0,247.62,225.25Z"/><path class="cls-12" d="M144.41,190c2.29,4.57,6.67,7,9.77,5.45s3.77-6.53,1.48-11.09-6.66-7-9.77-5.44S142.12,185.4,144.41,190Z"/><path class="cls-13" d="M171.76,165.27c0,7.95,5.68,14.4,12.69,14.4s12.69-6.45,12.69-14.4c0-6.23-3.5-11.55-8.39-13.55a11.15,11.15,0,0,0-4.3-.86c-6.77,0-12.28,6-12.67,13.57C171.77,164.71,171.76,165,171.76,165.27Z"/><path class="cls-14" d="M172,162.23c0,8,5.68,14.39,12.69,14.39s12.69-6.44,12.69-14.39c0-6.24-3.5-11.56-8.39-13.56a11.14,11.14,0,0,0-4.3-.85c-6.77,0-12.28,6-12.67,13.57C172,161.67,172,161.94,172,162.23Z"/><path class="cls-13" d="M172,162.23c0,8,5.68,14.39,12.69,14.39a12,12,0,0,0,9.18-4.46c-3.94-.06-8.44-3.58-11-9-2.92-6.08-2.47-12.51.84-15.27-6.29.57-11.28,6.34-11.64,13.52C172,161.67,172,161.94,172,162.23Z"/><path class="cls-13" d="M172,161.39a10.71,10.71,0,0,0,17-12.72,11.14,11.14,0,0,0-4.3-.85C177.93,147.82,172.42,153.83,172,161.39Z"/><path class="cls-3" d="M159,196.79v7a3.34,3.34,0,0,0,3.35,3.35h5.37a3.35,3.35,0,0,0,3.36-3.35v-7a3.35,3.35,0,0,0-3.36-3.35h-5.37A3.34,3.34,0,0,0,159,196.79Z"/><path class="cls-8" d="M154.38,201.82s18.25,8,15,10.78c-11.93-1.29-28.71-7.1-28.71-7.1s-3.26-7.67,12.68-6.17l3.48,2-2.47.5Z"/><path class="cls-6" d="M154.38,200.79s10.4,4.6,15,9.32c-11.93-1.3-28.92-5.91-28.92-5.91s-2-5.9,12.89-5.9l3.48,2-2.47.5Z"/><path class="cls-8" d="M159,200.79v2.31s-15.81-1.43-18.11-.86c0-3.94,12.47-3.94,12.47-3.94l5.64,2.49Z"/><path class="cls-12" d="M146.08,200.24a5.63,5.63,0,0,0,2.94.51,3.75,3.75,0,0,0,2.65-1.68,6.65,6.65,0,0,0,.73-1.43,5.77,5.77,0,0,0,.26-1.53,7.36,7.36,0,0,0-.59-3H152a8.77,8.77,0,0,0-.29,1.46l-.23,1.38a9.2,9.2,0,0,1-.6,2.57,3,3,0,0,1-1.93,1.59,5.25,5.25,0,0,1-2.78,0Z"/><path class="cls-12" d="M148.17,202.91a4.4,4.4,0,0,0,3.27-.29,5.3,5.3,0,0,0,2.18-2.61,8.13,8.13,0,0,0,.75-3.26,9,9,0,0,0-.58-3.24h-.12a28.38,28.38,0,0,0-.53,3.15,21.27,21.27,0,0,1-.45,3,4.51,4.51,0,0,1-1.58,2.43,4,4,0,0,1-2.9.69Z"/><path class="cls-11" d="M159,199.34v3.35A42.12,42.12,0,0,0,171.09,204v-4.67a3.36,3.36,0,0,0-3.36-3.36h-5.37A3.35,3.35,0,0,0,159,199.34Z"/><path class="cls-15" d="M148.41,164.58c.2,4.77.47,12.72.53,20.66.1,12.53,5.78,17.27,22.19,17.17,5,0,8.45-1.21,10.86-2.85a12.57,12.57,0,0,0,5.5-9.79l-.35-23.2a4,4,0,0,0-3.7-3.91l-29.66-2.13-1.1-.07A4,4,0,0,0,148.41,164.58Z"/><path class="cls-3" d="M153.37,162.45c.19,4.76.46,12.71.53,20.65.1,12.53,5.77,17.28,22.19,17.17a23.25,23.25,0,0,0,5.9-.71,12.57,12.57,0,0,0,5.5-9.79l-.35-23.2a4,4,0,0,0-3.7-3.91l-29.66-2.13A4.09,4.09,0,0,0,153.37,162.45Z"/><path class="cls-16" d="M160.29,188.44a4.94,4.94,0,0,0,3.15.66,5,5,0,0,0,4.39-4.53C166.87,186.66,163.9,188.54,160.29,188.44Z"/><path class="cls-16" d="M181.05,184.94a5.5,5.5,0,0,0,1.67,2.88,8.73,8.73,0,0,0,2.82,1.79,5.15,5.15,0,0,1-3.59-1.16A3.45,3.45,0,0,1,181.05,184.94Z"/><path class="cls-17" d="M180.66,187.78l-13.95.15a.79.79,0,0,0-.78.93c.33,1.89,1.76,6,8,5.7,5.73-.25,7.16-4,7.51-5.83A.8.8,0,0,0,180.66,187.78Z"/><path class="cls-11" d="M167.46,192.23c1.16,1.36,3.12,2.48,6.49,2.33a9.43,9.43,0,0,0,3.85-.92c-.69-1.59-3-2.77-5.76-2.77A7.62,7.62,0,0,0,167.46,192.23Z"/><path class="cls-2" d="M179.55,188.36l-11.07.35a.46.46,0,0,0-.31.8c.88.82,2.81,2,6.57,1.88s4.94-1.3,5.39-2.16A.61.61,0,0,0,179.55,188.36Z"/><path class="cls-13" d="M133,171.37a24,24,0,0,0,.64,4.36c3.08,12.69,15.43,12,15.43,12s-.31-13.63-.52-20.37c2.35-5.41,11.38-6.33,11.38-6.33A33.68,33.68,0,0,0,176,163.44c18.08-1.55,12.32-19.17,12.32-19.17-.12-.26-.25-.52-.37-.77-6.8-12.91-27-9.52-30.13-3.15C147.4,144.06,131.94,154.16,133,171.37Z"/><path class="cls-14" d="M133,171.37a24,24,0,0,0,.64,4.36c4,10,14.59,9.34,14.59,9.34s-.29-13.63-.52-20.37c2.36-5.4,11.38-6.33,11.38-6.33a33.72,33.72,0,0,0,16.09,2.46c14.47-1.24,13.68-12.76,12.79-17.33-6.8-12.91-27-9.52-30.13-3.15C147.4,144.06,131.94,154.16,133,171.37Z"/><path class="cls-3" d="M140.74,180.24a6.22,6.22,0,0,0,3.21,4.63c1.57.89,3.62-.29,3.41-2l-.85-6.86c-.2-1.68-2.48-2.32-3.79-1.08A6.22,6.22,0,0,0,140.74,180.24Z"/><path class="cls-11" d="M142.55,179.92a3.54,3.54,0,0,0,1.83,2.64,1.28,1.28,0,0,0,2-1.12l-.49-3.91a1.28,1.28,0,0,0-2.16-.61A3.54,3.54,0,0,0,142.55,179.92Z"/><path class="cls-13" d="M149.29,160.25a8.35,8.35,0,0,0,4,1.05c5.13,0,9.29-4.73,9.29-10.56A10.89,10.89,0,0,0,158,141.6l.28.25a10.63,10.63,0,0,1,2.19,11.49C158.57,158.31,153.76,161.17,149.29,160.25Z"/><path class="cls-13" d="M166.87,161a11,11,0,0,0,5.34,1.39c6.75,0,12.24-6.23,12.24-13.92a14.34,14.34,0,0,0-6.11-12,3.68,3.68,0,0,1,.37.32c3.71,3.5,5,9.51,2.89,15.14C179.1,158.45,172.77,162.23,166.87,161Z"/><path class="cls-16" d="M176.6,195.83a2.69,2.69,0,0,1-2.61,2,2.94,2.94,0,0,1-2.77-1.78Z"/><path class="cls-18" d="M140.69,179.64a7.51,7.51,0,0,0,3.28-.77,7.31,7.31,0,0,0,2.63-2.08l-.08-.74c-.21-1.68-2.5-2.32-3.79-1.08A6.23,6.23,0,0,0,140.69,179.64Z"/><path class="cls-13" d="M136.93,176.81c1,2,4,2.5,6.91,1.13s4.41-4.11,3.45-6.1-4-2.5-6.91-1.13S136,174.81,136.93,176.81Z"/><path class="cls-13" d="M148.17,173.08c-.43,2.79-7.13,7.83-10.74,5.87,8.18-.44,10.36-10.86,10.36-10.86Z"/><path class="cls-6" d="M133,270.5l-22.42-23.65a13.87,13.87,0,0,1,1.72-20.61l26.13-19.67a7.56,7.56,0,0,1,9.09,12.07l-25,18.83,21.46,22.64a7.55,7.55,0,1,1-11,10.39Z"/><path class="cls-7" d="M141.18,267h3.87a2.09,2.09,0,0,1,2.09,2.09v4.22a1.11,1.11,0,0,1-1.11,1.11h-5.86a1.09,1.09,0,0,1-1.09-1.09v-4.24a2.09,2.09,0,0,1,2.09-2.09Z" transform="translate(421.21 398.97) rotate(142.61)"/><path class="cls-9" d="M139,270.14a1.13,1.13,0,0,0,.73-.28,1.09,1.09,0,0,0,.07-1.53l-23.81-26c-1.15-1.25-3.82-4.18-3.53-6.91a5.2,5.2,0,0,1,2.49-3.58l31.15-23.48a1.08,1.08,0,1,0-1.3-1.72l-31.13,23.46a7.2,7.2,0,0,0-3.35,5.09c-.4,3.7,2.74,7.13,4.07,8.59l23.81,26.05A1.09,1.09,0,0,0,139,270.14Z"/><path class="cls-9" d="M149,291.59c.15.47,15.52,49,35,112.3a11.37,11.37,0,0,0,2.13-.39c-19.49-63.39-34.9-112.08-35-112.56a1.08,1.08,0,1,0-2.05.65Z"/><path class="cls-9" d="M153.86,292.82c.16.45,14.83,46.73,34.3,110.06a14.3,14.3,0,0,0,2-.84c-19.43-63.25-34.1-109.42-34.25-109.87a1.07,1.07,0,0,0-1.34-.71A1.09,1.09,0,0,0,153.86,292.82Z"/><path class="cls-10" d="M168.34,213.68a1.06,1.06,0,0,0,1-.65l1.06-2.5a1.08,1.08,0,1,0-2-.85l-1.06,2.5a1.08,1.08,0,0,0,.57,1.42A1,1,0,0,0,168.34,213.68Z"/><path class="cls-9" d="M142.11,267.7a1.08,1.08,0,0,0,.8-1.81l-23.81-26a4.78,4.78,0,0,1,.54-6.94L148.82,211a1.08,1.08,0,1,0-1.29-1.73l-29.22,22a6.91,6.91,0,0,0-.8,10.09l23.8,26.05A1.11,1.11,0,0,0,142.11,267.7Z"/><path class="cls-3" d="M236.32,218.85a3,3,0,0,0,2.83,3.24c4.06,0,3.43-5.88,2.8-6.48a10.43,10.43,0,0,0,1-4.39c0-2.57-1.4-3-1.51-3s-.34.15-.47.6c-.48,3.17-2.27,5.51-3.65,7.6l-.2.28A4,4,0,0,0,236.32,218.85Z"/><path class="cls-19" d="M177.7,181c0,.35-1.46.75-3,.75s-2.76-.49-2.76-.84.27-.38,1-.38c.49,0,1.16.78,1.84.78s1.51-.93,2-.82S177.7,180.83,177.7,181Z"/><path class="cls-2" d="M177.39,174.45a5.49,5.49,0,0,1,1.41-1.24,4.32,4.32,0,0,1,2.42-.63,3.15,3.15,0,0,1,2.14.63,2.87,2.87,0,0,0,.94.61,9.18,9.18,0,0,1-1.61,1c-1.77.56-3.52,0-5.36-.2l.24,0"/><path class="cls-20" d="M183.47,173.83a3.19,3.19,0,0,0-2.15-.63,4.3,4.3,0,0,0-2.41.63,6.17,6.17,0,0,0-1,.8l-.54-.08h.13l-.26,0a7.14,7.14,0,0,1,1.61-1.33,4.35,4.35,0,0,1,2.41-.62,3.19,3.19,0,0,1,2.15.63,2.91,2.91,0,0,0,.93.6c-.15.09-.31.21-.49.33Z"/><path class="cls-21" d="M182.66,173.63a1.46,1.46,0,1,0-1.3,1.6A1.46,1.46,0,0,0,182.66,173.63Z"/><path class="cls-22" d="M182.18,174a.86.86,0,0,0-1-.66.88.88,0,0,0-.86.86.86.86,0,0,0,1,.65A.85.85,0,0,0,182.18,174Z"/><path d="M181.79,173.72a.59.59,0,0,0-.64-.52.6.6,0,0,0-.52.64.58.58,0,0,0,.64.52A.58.58,0,0,0,181.79,173.72Z"/><path class="cls-2" d="M181,173.53a.29.29,0,0,0-.32-.26.29.29,0,0,0-.26.32.3.3,0,0,0,.32.26A.29.29,0,0,0,181,173.53Z"/><path class="cls-23" d="M177.39,174.45a12,12,0,0,1,2.09-1.57s2.35-.56,3.61.22l.91.63.72-.15a2.58,2.58,0,0,0-1.23-1.1c-1-.56-4.15-.14-4.15-.14a29.36,29.36,0,0,0-2.21,2.15"/><path class="cls-11" d="M184,173.73c-.4.3-.3.33-.76.55a5.26,5.26,0,0,1-2.42.61,19.22,19.22,0,0,1-2.74-.22c-.27,0-.76-.3-1-.18.07.13.26.17.4.2a13.82,13.82,0,0,0,3.64.62,4.85,4.85,0,0,0,1.92-.43,3.69,3.69,0,0,0,1.63-1.3"/><path class="cls-2" d="M160.65,174.19a5.88,5.88,0,0,1,1.52-1.1,4.32,4.32,0,0,1,2.46-.39,3.18,3.18,0,0,1,2.08.83,3,3,0,0,0,.87.69,9.4,9.4,0,0,1-1.69.82c-1.81.39-3.51-.3-5.32-.71l.25,0"/><path class="cls-20" d="M166.76,174.15a3.28,3.28,0,0,0-2.08-.83,4.44,4.44,0,0,0-2.46.4,6.61,6.61,0,0,0-1.1.7l-.53-.13a.48.48,0,0,0,.12,0l-.24-.06a6.84,6.84,0,0,1,1.72-1.17,4.31,4.31,0,0,1,2.46-.39,3.15,3.15,0,0,1,2.08.83,2.89,2.89,0,0,0,.87.69,5.52,5.52,0,0,0-.52.28C167,174.36,166.87,174.25,166.76,174.15Z"/><path class="cls-21" d="M166,173.88a1.46,1.46,0,1,0-1.44,1.47A1.46,1.46,0,0,0,166,173.88Z"/><path class="cls-22" d="M165.46,174.23a1,1,0,1,0-.94.77A.87.87,0,0,0,165.46,174.23Z"/><path d="M165.09,173.89a.58.58,0,0,0-.58-.58.59.59,0,1,0,0,1.17A.58.58,0,0,0,165.09,173.89Z"/><path class="cls-2" d="M164.28,173.61a.28.28,0,0,0-.29-.28.29.29,0,1,0,.29.28Z"/><path class="cls-23" d="M160.65,174.19a11.93,11.93,0,0,1,2.23-1.36s2.39-.33,3.57.56c.25.19.85.72.85.72L168,174a2.67,2.67,0,0,0-1.12-1.21c-.94-.64-4.13-.53-4.13-.53a29.41,29.41,0,0,0-2.4,1.94"/><path class="cls-11" d="M167.3,174.11a3.64,3.64,0,0,1-.81.47A5.26,5.26,0,0,1,164,175a19,19,0,0,1-2.71-.48c-.26-.08-.73-.37-.93-.26.06.13.25.18.39.23a13.62,13.62,0,0,0,3.56,1,4.77,4.77,0,0,0,1.95-.25A3.55,3.55,0,0,0,168,174"/><path class="cls-16" d="M165.62,169.48s10.88-.95,14,0C179.65,169.48,174.13,167.11,165.62,169.48Z"/><path class="cls-16" d="M168.15,166.69s6.18-1.13,9.27,0A9,9,0,0,0,168.15,166.69Z"/><path class="cls-3" d="M321.41,174.79c-.57,3.62.91,6.86,3.3,7.24s4.8-2.25,5.37-5.87-.9-6.86-3.3-7.24S322,171.17,321.41,174.79Z"/><path class="cls-11" d="M323,175.65c-.05,2.44,1,4.45,2.47,4.48s2.61-1.93,2.67-4.37-1.06-4.46-2.47-4.49S323,173.2,323,175.65Z"/><path class="cls-3" d="M251.13,379.66s-1.87,2.87-6.93,6.06c4.69,8.75,16.71,8.83,16.71,8.83l3-5.84Z"/><path class="cls-4" d="M237.86,390.61c-.14,1.11.68,2.63,1.9,4.25a64.67,64.67,0,0,0,9,8.66s12.78,12.87,26.13,11.55l2.92-1.11s1.24-4.76-3.51-4.31c-2.42-1.1-5-4.18-7.68-7.43-2.3-2.83-4.15-5.35-4.15-5.35s1.45-5.73-5.67-3.78c-5.81,1.61-9.75-6.22-9.53-9C247.36,382.38,242.63,383.78,237.86,390.61Z"/><path class="cls-5" d="M237.86,390.61c-.14,1.11.68,2.63,1.9,4.25a147.92,147.92,0,0,0,16.34,10.83,20.7,20.7,0,0,1,10.5-3.47c-2.3-2.83-4.15-5.35-4.15-5.35s1.45-5.73-5.67-3.78c-5.81,1.61-9.75-6.22-9.53-9C247.36,382.38,242.63,383.78,237.86,390.61Z"/><path class="cls-4" d="M276.67,417s-8,3.77-20.08-3.42c-9-7.57-11.68-8.45-14.43-9.23-2.35-.9-10.07-7.81-8.4-9.87a11.67,11.67,0,0,1,2.48-2.32,1.43,1.43,0,0,1,1.9.22c1.75,2,6,6.57,8.63,7.8,3.3,1.64,14.14,16,30.32,15.08C277.66,416.23,276.67,417,276.67,417Z"/><path d="M277.36,415.7s-8,3.77-20.08-3.42c-9-7.57-11.67-8.45-14.43-9.23-2.34-.9-10.06-7.81-8.4-9.87a12.16,12.16,0,0,1,2.48-2.32,1.44,1.44,0,0,1,1.9.22c1.75,2,6,6.57,8.63,7.8,3.31,1.64,14.63,17.85,30.32,15.08C278.36,414.89,277.36,415.7,277.36,415.7Z"/><path d="M260.36,396.54s-.57-3.92-2.07-3.68-10.64-.88-10.55-9.39c-1.29,0-3.48,1.2-3.54,2.25S245.46,396.66,260.36,396.54Z"/><path class="cls-4" d="M330.12,409.87c.55.86,1.95,1.48,3.71,1.95,5.15,1.34,13.46,1.28,13.46,1.28s18.68,2,28.56-7.41l1.63-2.7s-1.31-3.16-5.61-1.15c-2.2.84-9.77-.66-14.33-1.7-2.08-.46-3.52-.84-3.52-.84s-2.06-3.1-7,.62-11.91,1.28-13.55-1C332.46,397.49,329.55,401.53,330.12,409.87Z"/><path class="cls-3" d="M333.56,393s.35,3.41-1.59,9.07c9.14,3.86,18.55-3.61,18.55-3.61L349.18,392Z"/><path class="cls-5" d="M330.12,409.87c.55.86,1.95,1.48,3.71,1.95a69.6,69.6,0,0,0,17.44-1.38c.6-5.37,4.31-8.84,6.27-10.3-2.08-.46-3.52-.84-3.52-.84s-2.06-3.1-7,.62-11.91,1.28-13.55-1C332.46,397.49,329.55,401.53,330.12,409.87Z"/><path class="cls-4" d="M378.18,405.59s-4,8.19-18.41,10.22c-12.2-.23-14.9.76-17.62,1.92-2.48.79-13.18.24-13.18-2.49a12.14,12.14,0,0,1,.49-3.46,1.49,1.49,0,0,1,1.68-1c2.69.45,9.11,1.38,12,.68,3.73-.83,21.79,3.68,34.22-7.5C378.45,404.29,378.18,405.59,378.18,405.59Z"/><path d="M378.27,404.61s-4,8-18.4,9.93c-12.21-.22-14.9.74-17.63,1.87-2.48.77-13.18.23-13.18-2.42a11.85,11.85,0,0,1,.49-3.36,1.5,1.5,0,0,1,1.68-1c2.69.44,9.11,1.35,12,.66,3.73-.8,21.79,3.58,34.23-7.28C378.55,403.35,378.27,404.61,378.27,404.61Z"/><path d="M352.13,400.35s-3-2.69-4.07-1.56-9.14,6-14.59-.7c-1.07.79-2,3.12-1.39,4S340.2,409.8,352.13,400.35Z"/><path class="cls-4" d="M345.08,223.16l26.13,41.1a7.69,7.69,0,0,0,5.8,3.56h.15a5.67,5.67,0,0,0,.58.05,7.78,7.78,0,0,0,5.64-2.46l22.2-23.57a7.74,7.74,0,0,0-11.28-10.59L381,245.4l-2,2.17-20.78-32.71a7.74,7.74,0,0,0-13.07,8.3Z"/><path class="cls-4" d="M377.12,266c0,.6,0,1.2,0,1.79a5.67,5.67,0,0,0,.58.05,7.78,7.78,0,0,0,5.64-2.46l22.2-23.57a7.74,7.74,0,0,0-11.28-10.59L381,245.4A55.38,55.38,0,0,0,377.12,266Z"/><path class="cls-5" d="M345.08,223.16,359.58,246c-.13-1.34-.2-2.72-.2-4.11a43.91,43.91,0,0,1,4.09-18.6l-5.32-8.38a7.74,7.74,0,0,0-13.07,8.3Z"/><polygon class="cls-24" points="334.33 342.54 335.3 344.79 334.49 339.11 334.33 342.54"/><path class="cls-4" d="M334.33,342.54l-2.43,54.17c5.37,2.2,12.33,2.33,19.83,1.77l7.59-57.16a10.23,10.23,0,0,0-.47-4.73l-.35-.93-22.36-62.93-27.33,10.75Z"/><polygon class="cls-5" points="334.49 339.11 334.33 342.54 335.3 344.79 334.49 339.11"/><path class="cls-5" d="M308.81,283.48,323.74,318c5.64-9.93,12.82-17.38,20.92-21.3l-8.52-24Z"/><path class="cls-4" d="M288,276.45l-10.31,60.66,1.37-3L247,381.79l16.51,11.11,32.08-47.71a8.93,8.93,0,0,0,.95-1.84l.42-1.18,20.88-57.88Z"/><polygon class="cls-24" points="277.68 337.1 279.03 334.09 277.9 335.75 277.68 337.1"/><path class="cls-5" d="M288,276.45l-4.59,27c7.89,4.29,14.83,11.25,20.23,20.12l14.17-39.31Z"/><polygon class="cls-24" points="277.68 337.1 279.03 334.09 277.9 335.75 277.68 337.1"/><path d="M286,290.71c14.16,3.8,33.72,3.38,48.28,1.42,3.24-.38,5.47-3.09,5-5.88l0-.22a5.55,5.55,0,0,0-6.23-4.32c-13.29,1.79-31.33,2.3-44.25-1.16A5.62,5.62,0,0,0,282,284l-.07.21C281.06,287,282.88,289.93,286,290.71Z"/><path class="cls-4" d="M276.87,273.27a13.09,13.09,0,0,0,9,13.49,13.9,13.9,0,0,0,1.79.48l50,1.9a6,6,0,0,0,7.19-7c-.67-3.78-1.18-7.2-1.55-10.32-.05-.38-.09-.73-.14-1.09l-.13-1.26a74,74,0,0,1-.35-13.55c0-.44.06-.86.11-1.28s.07-.73.13-1.09c.18-1.46.4-2.85.69-4.2,2-9.57,6.94-17.25,13.75-31.55a3.92,3.92,0,0,0-.57-4.18c-.07-.11-.18-.22-.27-.35a2.05,2.05,0,0,0-.2-.23,40.93,40.93,0,0,0-6.88-6.47,53.46,53.46,0,0,0-7.07-4.67,56.41,56.41,0,0,0-21.74-6.9,52.52,52.52,0,0,0-7.67-.2,5.43,5.43,0,0,0-3.8,1.75A140.24,140.24,0,0,0,288,229.91,127.92,127.92,0,0,0,276.87,273.27Z"/><path class="cls-5" d="M285.87,286.76a13.9,13.9,0,0,0,1.79.48l50,1.9a6,6,0,0,0,7.19-7c-.67-3.78-1.18-7.2-1.55-10.32-.05-.38-.09-.73-.14-1.09l-.13-1.26a74,74,0,0,1-.35-13.55c0-.44.06-.86.11-1.28s.07-.73.13-1.09c.18-1.46.4-2.85.69-4.2,2-9.57,6.94-17.25,13.75-31.55a3.92,3.92,0,0,0-.57-4.18c-.07-.11-.18-.22-.27-.35a2.05,2.05,0,0,0-.2-.23,40.93,40.93,0,0,0-6.88-6.47,53.46,53.46,0,0,0-7.07-4.67,55.51,55.51,0,0,0-18.13-5.06,50,50,0,0,0-7.68-.2,5.46,5.46,0,0,0-3.8,1.74,140.21,140.21,0,0,0-21.18,33.37,127.75,127.75,0,0,0-11.1,43.36A13,13,0,0,0,285.87,286.76Z"/><path class="cls-5" d="M288,229.91c1,1,2.06,2,3.14,2.94,11.68,10.26,28.53,16.67,47.23,16.67,1.77,0,3.54-.07,5.27-.18,2-9.57,6.94-17.25,13.75-31.55a3.52,3.52,0,0,0,.35-1.86,4.27,4.27,0,0,0-.92-2.32c-.07-.11-.18-.22-.27-.35a2.05,2.05,0,0,0-.2-.23,40.93,40.93,0,0,0-6.88-6.47A56.78,56.78,0,0,0,320.63,195a52.52,52.52,0,0,0-7.67-.2,5.43,5.43,0,0,0-3.8,1.75A140.24,140.24,0,0,0,288,229.91Z"/><path class="cls-25" d="M291.11,232.85c11.68,10.26,28.53,16.67,47.23,16.67,1.77,0,3.54-.07,5.27-.18,2-9.57,6.94-17.25,13.75-31.55a3.52,3.52,0,0,0,.35-1.86,43.25,43.25,0,0,0-5.72-5.15,56.94,56.94,0,0,0-28.81-11.57,51.35,51.35,0,0,0-7.68-.19,5.44,5.44,0,0,0-3.8,1.74A140.21,140.21,0,0,0,291.11,232.85Z"/><path class="cls-5" d="M319.21,201.84a20.75,20.75,0,0,0,11.27,18.46,20.7,20.7,0,0,0,23-2.72,4.66,4.66,0,0,0,.49-.39,10,10,0,0,0,2.36-4.16,40.86,40.86,0,0,0-6.87-6.48l-1.64,2.57A46.86,46.86,0,0,0,320.36,195c-.05.11-.07.22-.11.33A20.3,20.3,0,0,0,319.21,201.84Z"/><path class="cls-4" d="M319.21,201.84a20.75,20.75,0,0,0,11.27,18.46,24.64,24.64,0,0,0,1.09-7.29c0-9.33-5-17-11.32-17.67A20.3,20.3,0,0,0,319.21,201.84Z"/><path d="M291.79,299.24a4.25,4.25,0,1,1,4.25,4.25A4.25,4.25,0,0,1,291.79,299.24Zm2.21,0a2,2,0,1,0,2-2A2,2,0,0,0,294,299.24Z"/><path class="cls-4" d="M307.77,227.4a4.25,4.25,0,1,1,4.25,4.25A4.26,4.26,0,0,1,307.77,227.4Z"/><path d="M321.71,290.37a1.45,1.45,0,0,0,.29,0,1.11,1.11,0,0,0,.78-1.36c-11-40.31,14.3-68.93,14.55-69.22a1.1,1.1,0,0,0-1.64-1.48c-.26.29-26.38,29.82-15.05,71.28A1.12,1.12,0,0,0,321.71,290.37Z"/><path class="cls-4" d="M263.26,260.88a7.74,7.74,0,0,0,7.63-6.52l5.07-31.8a2.49,2.49,0,0,1,1.73-2l33.41-10a7.74,7.74,0,0,0-4.44-14.83l-33.41,10a18,18,0,0,0-12.58,14.36l-5.06,31.8a7.73,7.73,0,0,0,6.42,8.86A7.29,7.29,0,0,0,263.26,260.88Z"/><path class="cls-3" d="M330.77,203.83l13.84,4.87a8.72,8.72,0,0,0,11.13-5.33l3.53-10.06a23.84,23.84,0,0,0-7.38-46.51c-13.18,0-23,10.24-23,23.42,0,3.32-3.43,22.51-3.43,22.51A8.72,8.72,0,0,0,330.77,203.83Z"/><path class="cls-14" d="M327.3,178.36l1.55.36c1.41-9.25,3.45-13.07,5.06-12.78.11-.16.22-.34.31-.49,3.8-5.77,5.35-15.21,5.35-15.21-3.52-.38-6.21,2.8-8.14,7-.26.58-.53,1.17-.77,1.77s-.4,1.06-.58,1.61-.42,1.24-.59,1.86-.31,1.06-.45,1.57c-.46,1.79-.81,3.5-1.06,5C329.93,170.2,327.3,178.36,327.3,178.36Z"/><path class="cls-13" d="M327.3,178.36l1.55.36c1.41-9.25,3.45-13.07,5.06-12.78.11-.16.22-.34.31-.49-2.65.2-4.25-.47-5.18-1.44-.46,1.79-.81,3.5-1.06,5C329.93,170.2,327.3,178.36,327.3,178.36Z"/><path class="cls-14" d="M329.75,194.29a8.67,8.67,0,0,0,5,11.68,9.92,9.92,0,0,0,12.6-4.7c2.09-4.52-.17-9.74-5-11.67A9.9,9.9,0,0,0,329.75,194.29Z"/><path class="cls-13" d="M321.72,195.36a19.83,19.83,0,0,0,38.74,6.46,20.12,20.12,0,0,0-.4-13.09l-7,14.39s-.93,2.13-4.8,1.42-21.44-7-22.23-7.71a2.46,2.46,0,0,1-.09-1.24v-.07c.15-3.07,2.91-16.79,3-17.14-4,2.39-4.76,6.72-6.27,11.5A19.15,19.15,0,0,0,321.72,195.36Z"/><path class="cls-14" d="M321.93,195.36a18.9,18.9,0,0,0,13.86,17.4c10.44,3.12,21.58-2.34,24.88-12.22a17.5,17.5,0,0,0,.91-5.09,19.35,19.35,0,0,0-1.31-6.72l-7,14.39s-.93,2.13-4.8,1.42-21.3-7-22.09-7.81c-1-.56,2.55-18.37,2.61-18.73-4,2.26-4.62,6.73-6.12,11.24A17.18,17.18,0,0,0,321.93,195.36Z"/><path class="cls-13" d="M345,196.26a1,1,0,0,1,.62,1.4c-1.44,2-4.53,2.74-7.43,1.61s-4.68-3.76-4.37-6.21a1,1,0,0,1,1.4-.61Z"/><path class="cls-17" d="M344.54,195.2a.93.93,0,0,1,.52,1.36,6,6,0,0,1-10.73-4.19.94.94,0,0,1,1.31-.64Z"/><path class="cls-2" d="M342.93,194.86c.46.18.68.63.46.93-1,1.29-3.12,1.71-5.17.91s-3.35-2.56-3.18-4.17c0-.37.51-.54,1-.37Z"/><path class="cls-14" d="M364.31,155.66l9.61,8.84,2.51,2.94s5.94-10.15-15.45-19.78c-20.6-7.12-23.84,3.27-22.14,4.85C342.3,146.42,349.35,150.62,364.31,155.66Z"/><path class="cls-13" d="M342.86,149.24c-.9,3.31,4.56,9.81,11.9,11.79s16.62.49,17.51-2.82-6-9.92-13.35-11.9S343.75,145.94,342.86,149.24Z"/><path class="cls-14" d="M343.51,147.63c-.67,2.5,5.05,7.84,12.34,9.8s16.26,1.38,16.93-1.12-6.46-8-13.75-10S344.18,145.14,343.51,147.63Z"/><path class="cls-26" d="M334.25,182.4c-3.38-1.12-5.11-5.11-3.86-8.88a7.73,7.73,0,0,1,1.65-2.81,3.21,3.21,0,0,1,3.35-.62l5.29,1.75a3.21,3.21,0,0,1,2.32,2.5,7.88,7.88,0,0,1-3.71,7.47,6.37,6.37,0,0,1-3.2.89A5.81,5.81,0,0,1,334.25,182.4Zm-1.12-10.69A6.19,6.19,0,0,0,331.8,174c-1,3,.31,6.15,2.91,7a4.62,4.62,0,0,0,3.83-.46,6.23,6.23,0,0,0,2.7-3.42,6.29,6.29,0,0,0,.29-2.62,1.8,1.8,0,0,0-1.31-1.24l-5.3-1.76a2.71,2.71,0,0,0-.78-.13A1.36,1.36,0,0,0,333.13,171.71Z"/><path class="cls-26" d="M351,188.07a6.09,6.09,0,0,1-3.68-3.49,7.82,7.82,0,0,1,1.48-8.21,3.23,3.23,0,0,1,3.35-.62l5.29,1.76a3.21,3.21,0,0,1,2.32,2.5,7.71,7.71,0,0,1-.36,3.23,7.59,7.59,0,0,1-3.36,4.23,6.32,6.32,0,0,1-3.19.9A5.92,5.92,0,0,1,351,188.07Zm6-9.16-5.29-1.75a1.81,1.81,0,0,0-1.79.22,6.36,6.36,0,0,0-1.21,6.62,4.66,4.66,0,0,0,2.79,2.66,4.6,4.6,0,0,0,3.82-.47,6.09,6.09,0,0,0,2.7-3.41,6.17,6.17,0,0,0,.29-2.62,1.81,1.81,0,0,0-1.31-1.25Z"/><path class="cls-3" d="M370,192.6c-2.82,3-6.68,3.84-8.64,2s-1.26-5.77,1.56-8.72,6.68-3.84,8.63-2S372.78,189.65,370,192.6Z"/><path class="cls-11" d="M368.15,191.8c-2.13,1.7-4.65,2.08-5.64.85s-.06-3.62,2.07-5.32,4.65-2.08,5.64-.85S370.28,190.1,368.15,191.8Z"/><path class="cls-14" d="M361,187.11a12.35,12.35,0,0,1,1.83.67c.78-1,4.91-5.93,8.72-3.89l.15,0a33.67,33.67,0,0,0,2.28-3.83c.48-.93,1-1.92,1.48-3,.31-.64.62-1.28.88-2s.47-1.1.67-1.65a20.48,20.48,0,0,0,.75-2.3c.13-.47.22-.93.31-1.37a13.57,13.57,0,0,0-2.32-10.18c-2.63,2.37-7.45,8.85-9.84,14.58a1.48,1.48,0,0,1,.4.55C367.39,177,364.89,182.43,361,187.11Z"/><path class="cls-13" d="M361,187.11a12.35,12.35,0,0,1,1.83.67c.78-1,4.91-5.93,8.72-3.89l.15,0a33.67,33.67,0,0,0,2.28-3.83,14.25,14.25,0,0,1-7.67-5.28C367.39,177,364.89,182.43,361,187.11Z"/><path class="cls-14" d="M362.81,187.78a1.08,1.08,0,0,0-.11.18C362.79,188,363.08,187.93,362.81,187.78Z"/><path class="cls-26" d="M347.48,179.45l1-1c-.13-.14-3.41-3.39-6.91-1.74l.64,1.34C344.8,176.8,347.46,179.43,347.48,179.45Z"/><rect class="cls-26" x="360.64" y="181.49" width="1.48" height="6.37" transform="translate(15.02 396.19) rotate(-58.48)"/><path class="cls-5" d="M336.92,219.48V225a1.31,1.31,0,0,0,1.32,1.32,1.33,1.33,0,0,0,1.33-1.32v-5.54a1.33,1.33,0,0,0-1.33-1.32A1.31,1.31,0,0,0,336.92,219.48Zm.66,5.38a.67.67,0,1,1,.66.66A.65.65,0,0,1,337.58,224.86Z"/><path class="cls-5" d="M406.3,238l4.47-4.69-8.21-7.82-4.47,4.69.06.06c-1.09,1.82-.51,4.58,1.51,6.5s4.81,2.39,6.58,1.2Z"/><ellipse class="cls-4" cx="406.17" cy="229.96" rx="3.96" ry="5.67" transform="translate(-40.51 365.35) rotate(-46.38)"/><path d="M409.34,233a2.78,2.78,0,0,0,.43-2.86,5.56,5.56,0,0,0-1.51-2.36,4.44,4.44,0,0,0-4.47-1.33,2.18,2.18,0,0,0-.77.52,2.15,2.15,0,0,0-.49.79,4.47,4.47,0,0,0,1.53,4.42,5.52,5.52,0,0,0,2.45,1.38A2.75,2.75,0,0,0,409.34,233Z"/><path class="cls-15" d="M406.51,233.53l3.89-4.08-5-4.74-2.89,3a4.47,4.47,0,0,0,1.53,4.42A5.52,5.52,0,0,0,406.51,233.53Z"/><path class="cls-11" d="M403.48,227.61l2.4,2.27.15.15,2.7,2.58a3.26,3.26,0,0,0,4.43.08l3.82-3.46.85-.78a3.24,3.24,0,0,0,.05-4.76l-6-5.71a3.22,3.22,0,0,0-4.76.34L405,221l-1.79,2.22A3.27,3.27,0,0,0,403.48,227.61Z"/><path class="cls-3" d="M405.88,229.88l.15.15,2.7,2.58a3.26,3.26,0,0,0,4.43.08l3.82-3.46a8.41,8.41,0,0,0-5.2-1.65A8.08,8.08,0,0,0,405.88,229.88Z"/><path class="cls-5" d="M256.83,257.34v6.48h11.34v-6.48h-.09c-.46-2.08-2.78-3.67-5.57-3.67s-5.13,1.59-5.59,3.67Z"/><path class="cls-4" d="M256.83,263.1c0,2.19,2.54,4,5.67,4s5.68-1.78,5.68-4-2.54-4-5.68-4S256.83,260.92,256.83,263.1Z"/><path d="M258.13,263.11a2.77,2.77,0,0,0,1.66,2.37,5.61,5.61,0,0,0,2.72.66c2,0,3.61-.88,4.16-2.12a2.23,2.23,0,0,0,.2-.91,2.15,2.15,0,0,0-.2-.9,4.45,4.45,0,0,0-4.16-2.15,5.62,5.62,0,0,0-2.72.69A2.75,2.75,0,0,0,258.13,263.11Z"/><path class="cls-3" d="M259.79,260.75v5.64h6.88v-4.18a4.45,4.45,0,0,0-4.16-2.15A5.62,5.62,0,0,0,259.79,260.75Z"/><path class="cls-3" d="M254.5,279.76l10.18,1.33a2.58,2.58,0,0,0,2.9-2.23l1.34-4.7c.18-1.41-1.63-2-3.05-2.18l-10.18-1.33a2.59,2.59,0,0,0-2.9,2.23l-.52,4A2.58,2.58,0,0,0,254.5,279.76Z"/><path class="cls-3" d="M257.57,276.29h8.29a3.27,3.27,0,0,0,3.25-3.54l-.53-6.29a3.26,3.26,0,0,0-3.25-3H258a3.27,3.27,0,0,0-3.26,3l-.45,6.29A3.27,3.27,0,0,0,257.57,276.29Z"/><path class="cls-27" d="M408.36,219.93a.39.39,0,0,1,.16,0S408.36,219.93,408.36,219.93Z"/><path class="cls-3" d="M422.49,223.29l-7.38-8.41a2.45,2.45,0,0,0-3.38-.59L409,216.84c-1,.78,0,2.42.87,3.53l6.43,8a2.43,2.43,0,0,0,3.37.58l2.73-2.2A2.42,2.42,0,0,0,422.49,223.29Z"/><path class="cls-3" d="M403.45,227.05c2.26,2.32,3.48,1.14,3.48,1.14,1.71-.58,3.14-3.33,3.14-5.39a1.67,1.67,0,0,0,0-.31l1.55,1.92a2.53,2.53,0,0,0,3.07.13c.73-.45-.56-2-1-2.7l-3.37-4.75a1.54,1.54,0,0,0-.92-.58.37.37,0,0,0-.16,0h-.39l-.27,0a4.34,4.34,0,0,0-2.47,1.65l-1.79,2.23C402.47,222.88,402,225.55,403.45,227.05Z"/><path class="cls-2" d="M349,180.27a5.17,5.17,0,0,1,1.63-.49,3.85,3.85,0,0,1,2.22.41,2.86,2.86,0,0,1,1.53,1.33,2.79,2.79,0,0,0,.54.85,8.11,8.11,0,0,1-1.69.19c-1.67-.21-2.92-1.3-4.34-2.2l.22.06"/><path class="cls-20" d="M354.19,182.06a3,3,0,0,0-1.53-1.33,4,4,0,0,0-2.23-.4,5.68,5.68,0,0,0-1.15.28c-.14-.09-.27-.19-.42-.27l.11,0-.19-.12a6.41,6.41,0,0,1,1.82-.49,4,4,0,0,1,2.23.4,2.89,2.89,0,0,1,1.53,1.33,2.42,2.42,0,0,0,.54.85l-.53.09Z"/><path class="cls-21" d="M352.65,181.17A1.31,1.31,0,1,0,351,182,1.32,1.32,0,0,0,352.65,181.17Z"/><path class="cls-22" d="M352.11,181.32a.87.87,0,0,0-1.61-.55.87.87,0,0,0,1.61.55Z"/><path d="M351.9,180.92a.52.52,0,0,0-.33-.67.52.52,0,0,0-.67.33.54.54,0,0,0,.34.67A.53.53,0,0,0,351.9,180.92Z"/><path class="cls-2" d="M351.29,180.44a.27.27,0,0,0-.16-.34.28.28,0,0,0-.34.17.26.26,0,0,0,.17.33A.25.25,0,0,0,351.29,180.44Z"/><path class="cls-23" d="M349,180.27a11,11,0,0,1,2.31-.5s2.15.43,2.89,1.55c.15.24.51.87.51.87l.65.14a2.36,2.36,0,0,0-.59-1.37c-.61-.83-3.37-1.69-3.37-1.69s-2,.6-2.64.94"/><path class="cls-11" d="M354.66,182.19a2.91,2.91,0,0,1-.83.16,4.85,4.85,0,0,1-2.23-.42,14.9,14.9,0,0,1-2.17-1.22c-.2-.14-.51-.53-.72-.5,0,.13.16.23.26.32a12.87,12.87,0,0,0,2.76,1.89,4.61,4.61,0,0,0,1.75.37,3.29,3.29,0,0,0,1.83-.46"/><path class="cls-2" d="M340.67,177.58a5.32,5.32,0,0,0-1-1.37,4,4,0,0,0-2-1,2.87,2.87,0,0,0-2,.14,2.85,2.85,0,0,1-.94.36,8,8,0,0,0,1.23,1.17c1.45.84,3.11.72,4.79.86l-.21-.09"/><path class="cls-20" d="M335.41,175.86a2.87,2.87,0,0,1,2-.14,3.88,3.88,0,0,1,2,1,5.48,5.48,0,0,1,.76.91l.49,0-.11,0,.23,0a6.14,6.14,0,0,0-1.16-1.49,3.88,3.88,0,0,0-2-1,2.9,2.9,0,0,0-2,.14,2.5,2.5,0,0,1-.94.35l.37.39Z"/><path class="cls-21" d="M335.6,175.59a1.32,1.32,0,1,1,.83,1.67A1.31,1.31,0,0,1,335.6,175.59Z"/><path class="cls-22" d="M335.94,176a.87.87,0,0,1,1.62.54.87.87,0,0,1-1.62-.54Z"/><path d="M336.35,175.84a.53.53,0,0,1,1,.34.53.53,0,1,1-1-.34Z"/><path class="cls-2" d="M336.33,175.73a.26.26,0,0,1,.5.16.26.26,0,0,1-.5-.16Z"/><path class="cls-23" d="M340.67,177.58a10.89,10.89,0,0,0-1.55-1.79s-2-.95-3.24-.5c-.26.09-.93.38-.93.38l-.6-.27a2.26,2.26,0,0,1,1.29-.74c1-.3,3.71.68,3.71.68a27.33,27.33,0,0,1,1.54,2.33"/><path class="cls-11" d="M335,175.67c.3.34.21.35.57.63a4.8,4.8,0,0,0,2,1,15.8,15.8,0,0,0,2.46.33c.25,0,.74-.11.88,0-.08.11-.26.1-.4.1a12.43,12.43,0,0,1-3.34-.15,4.46,4.46,0,0,1-1.62-.76,3.27,3.27,0,0,1-1.18-1.46"/><path class="cls-19" d="M338.82,184.31c-.17.37,1.17,1.45,2.74,2.16s3.11.77,3.27.4c.09-.2-.11-.51-.88-.86-.51-.23-1.56.27-2.27,0s-1.15-1.67-1.71-1.78S338.9,184.11,338.82,184.31Z"/><path class="cls-16" d="M344.05,165.07s10.53,2.88,13.16,4.85C357.21,169.92,352.85,165.8,344.05,165.07Z"/><path class="cls-16" d="M347.38,163.33s6.2,1.08,8.71,3.2A9,9,0,0,0,347.38,163.33Z"/></svg>