<svg xmlns="http://www.w3.org/2000/svg" viewBox="0 0 745 461"><defs><style>.cls-1{isolation:isolate;}.cls-2{fill:#ccb78b;opacity:0.3;}.cls-3{fill:#e2b66f;}.cls-4{fill:#fed385;}.cls-5{fill:#fcd79d;}.cls-6{fill:#ff5c55;}.cls-7{fill:#ffb085;}.cls-8{fill:#005263;}.cls-9{fill:#024149;}.cls-10{fill:#f0806d;}.cls-11{fill:#182c3c;}.cls-12{fill:#bc584b;}.cls-13,.cls-22{fill:#fff;}.cls-13{stroke:#000;stroke-width:0.25px;}.cls-13,.cls-17{stroke-linecap:round;stroke-miterlimit:10;}.cls-14{fill:#fc988b;}.cls-15{fill:#0e1d28;}.cls-16{fill:#884627;}.cls-17{fill:none;stroke:#ff5c55;}.cls-18{fill:#0a0a0a;}.cls-19{fill:#e8e1d8;}.cls-20{fill:#1c6691;opacity:0.5;mix-blend-mode:multiply;}.cls-21{fill:#5e4e46;}.cls-23{fill:#c63e3e;}.cls-24{fill:#bf9456;}.cls-25{fill:#a57c47;}</style></defs><g class="cls-1"><g id="Layer_1" data-name="Layer 1"><path class="cls-2" d="M359.46,421.62c32.16,48.24-262.54,17.67-213-5.93C185.35,397.14,340.65,393.41,359.46,421.62Z"/><path class="cls-3" d="M233,392.26l-4.5-56.93a19.73,19.73,0,0,0-17.34-18l-11-1.28A19.74,19.74,0,0,0,178.47,332l-10,53.33-6.65-1.25,10-53.33a26.54,26.54,0,0,1,29.08-21.41l11,1.29a26.51,26.51,0,0,1,23.31,24.2l4.49,56.93Z"/><path class="cls-4" d="M190,420.87l-4.49-56.93a19.76,19.76,0,0,0-17.35-18l-11-1.28a19.76,19.76,0,0,0-21.65,15.93l-10,53.34-6.65-1.25,10-53.34A26.53,26.53,0,0,1,158,337.92l11,1.28a26.52,26.52,0,0,1,23.3,24.2l4.5,56.93Z"/><polygon class="cls-4" points="117.62 331.28 197.4 297.59 273.7 308.99 203.84 341.69 117.62 331.28"/><polygon class="cls-5" points="203.84 341.69 203.89 348.85 118.16 339.16 117.62 331.28 203.84 341.69"/><polygon class="cls-3" points="203.84 341.69 256.68 316.86 256.68 322.85 203.89 348.85 203.84 341.69"/><path class="cls-6" d="M253.89,242a62.19,62.19,0,0,0-7.66-3.08,7.6,7.6,0,0,0-3-.28,8.16,8.16,0,0,0-2.72,1.06,25.12,25.12,0,0,0-7,5.87,3.23,3.23,0,0,0-.67,1.1,2.25,2.25,0,0,0,.54,2,5.39,5.39,0,0,0,1.77,1.24,40.12,40.12,0,0,0,7.17,2.52,6.08,6.08,0,0,0,2.1.34,5.35,5.35,0,0,0,2.36-.93,63.83,63.83,0,0,0,7.11-5.49c.74-.61,2.69-1.6,2.88-2.63S254.69,242.32,253.89,242Z"/><path class="cls-7" d="M248.94,238.81c-.89-1.14-1.42-2.52-2.26-3.69a1,1,0,0,0-.58-.47,1.1,1.1,0,0,0-.63.14,104.1,104.1,0,0,0-10.06,5.08,4.22,4.22,0,0,0-1.16.89,3.48,3.48,0,0,0-.65,1.72,2.77,2.77,0,0,1-.62,1.65,10,10,0,0,0,.47,4,2.49,2.49,0,0,0,.69,1.16c.88.71,2.18.12,3.06-.58,2.6-2,4.42-4.95,6.93-7.12a.91.91,0,0,1,.48-.26,1,1,0,0,1,.66.22,6.3,6.3,0,0,0,5.76.16.71.71,0,0,0-.1-1.3A4.9,4.9,0,0,1,248.94,238.81Z"/><polygon class="cls-8" points="239.88 248.83 258.08 239.25 263.87 239.17 246.29 248.35 239.88 248.83"/><polygon class="cls-9" points="239.88 248.83 239.53 247.97 257.82 238.26 258.08 239.25 239.88 248.83"/><polygon class="cls-9" points="263.87 239.17 263.63 238.21 257.82 238.26 258.08 239.25 263.87 239.17"/><path class="cls-7" d="M259.23,243.81a6.79,6.79,0,0,0-5.47,0,1.66,1.66,0,0,0-.6.48,2.2,2.2,0,0,0,.09,2.09l-2.84-.71a2.6,2.6,0,0,0-1.14-.1,1.62,1.62,0,0,0-1.15,1.32,3,3,0,0,0,.36,1.79L245,248a2.63,2.63,0,0,0-1.9.12c-.55.35-.64,1.35,0,1.56-.75-.09-1.68-.1-2.09.54a1.36,1.36,0,0,0,.12,1.48,3.09,3.09,0,0,0,1.27.92,11.81,11.81,0,0,0,3.3.91,3.51,3.51,0,0,0,2.42-.31,1.36,1.36,0,0,0,.24-2.11,5.82,5.82,0,0,0,1.76.13,1.92,1.92,0,0,0,1.45-.9,1.16,1.16,0,0,0-.4-1.54,4.51,4.51,0,0,0,2.84-.11c.86-.43,1.34-1.71.65-2.38a25.21,25.21,0,0,1,2.6.17,2.57,2.57,0,0,0,2.28-1A1.4,1.4,0,0,0,259.23,243.81Z"/><path class="cls-10" d="M238.14,236.94c-7.73,2.45-16.18,3.15-23.22,7l.31-.66a14.71,14.71,0,0,0-11,16.11,4.48,4.48,0,0,0,1.41,3.1,4.79,4.79,0,0,0,3.21.64c7.4-.49,14.07-4.59,21.31-6.22,2.4-.54,4.89-.82,7.12-1.84A27.73,27.73,0,0,1,238.14,236.94Z"/><path class="cls-7" d="M302.41,362.35a3,3,0,0,1,1.55,1c5.57,5.78,10.61,12.15,17.06,16.94a6.06,6.06,0,0,1,1.75,1.67,5.32,5.32,0,0,1,.6,2.16,46,46,0,0,1,.36,6.64,2.34,2.34,0,0,1-2.51,2.79,34.69,34.69,0,0,1-9,.5,17.4,17.4,0,0,1-10.75-5.61,6.48,6.48,0,0,1-1.7-3,9.8,9.8,0,0,1,0-2.48,22.87,22.87,0,0,0-3.32-13.35c-.45-.73-2.25-2.52-2.21-3.34s1.74-1.23,2.48-1.51C298.36,364.2,300.61,362.05,302.41,362.35Z"/><path class="cls-6" d="M309.85,383.83c-2.62-1.92-4.65-6.5-1.39-9.13a30.89,30.89,0,0,1,3.62-2.56c-2.74-2.89-5.36-5.89-8.12-8.75a3,3,0,0,0-1.55-1c-1.8-.3-4.05,1.85-5.73,2.47-.74.28-2.44.62-2.48,1.51s1.76,2.61,2.21,3.34A22.87,22.87,0,0,1,299.73,383a9.8,9.8,0,0,0,0,2.48,6.48,6.48,0,0,0,1.7,3,17.34,17.34,0,0,0,10.75,5.6,34.25,34.25,0,0,0,9-.49,3.66,3.66,0,0,0,1.72-.57C319,389.53,314.2,387,309.85,383.83Z"/><path class="cls-8" d="M288.51,318.47c-4.08-9.64-7.86-19.56-14.14-27.93a15.94,15.94,0,0,0-4.41-4.33,18.37,18.37,0,0,0-6.77-1.91l-17.59-2.62a125.61,125.61,0,0,0-18-1.82c-6.79,0-19.64-6.62-19.64-6.62-10.38-1.23-21.62-1-30.3,4.79-4.91,3.28-8.58,8.11-11.65,13.15-3.68,6-8.08,10.45-10.19,17.19-.53,1.66.46,5.47.67,7.2.43,3.57,3.6,6.13,6.74,7.87,11.5,6.36,25.45,6.87,38.37,4.49s25.16-7.42,37.57-11.72a6.66,6.66,0,0,1,4.26-.47,6.73,6.73,0,0,1,2.83,2.47c16.31,21,31.57,43.11,51,61.23a41.47,41.47,0,0,0,16.18-11.36A418.36,418.36,0,0,1,288.51,318.47Z"/><path class="cls-11" d="M316.07,390.43a6.07,6.07,0,0,1,.07-3.79,24.51,24.51,0,0,1,4-8.32l5,3.14a42.22,42.22,0,0,0,4.89,2.79,31.75,31.75,0,0,0,8.25,2.32c1.39.23,2.8.4,4.2.53a4.1,4.1,0,0,1,1.77.44,3,3,0,0,1,.91,3.31,7.29,7.29,0,0,1-2.92,3.89,16.66,16.66,0,0,1-4.48,2.09,48.26,48.26,0,0,1-22.87,2c-2.13-.34-4.24-.81-6.38-1.05-1.7-.18-3.42-.21-5.11-.48a18.44,18.44,0,0,1-4.59-1.39,2.16,2.16,0,0,1-.94-.68,2.1,2.1,0,0,1-.28-1c-.23-1.94-1.16-11.19,1.66-11.36,1.55-.09,3.35,1.92,4.56,2.69a34.26,34.26,0,0,0,5.54,2.88A34.81,34.81,0,0,0,316.07,390.43Z"/><path class="cls-7" d="M257.13,400.62a3.14,3.14,0,0,1,1.41,2.09c.94,3.13,1.19,6.47,2.6,9.41a13,13,0,0,0,5.86,5.95,1.21,1.21,0,0,1,.73.63,1.13,1.13,0,0,1,0,.68,22.23,22.23,0,0,1-1.77,4.9,7.79,7.79,0,0,1-3.7,3.54,9.85,9.85,0,0,1-3.75.56c-2.71,0-5.64-.37-7.64-2.22a9.28,9.28,0,0,1-2.53-6.76c0-2.47.48-4.92.68-7.39.23-2.84,0-5.71.26-8.56.15-1.8,1.61-2.64,3.32-2.53a5.88,5.88,0,0,0,1.87,0C255.31,400.66,256.23,400.2,257.13,400.62Z"/><path class="cls-6" d="M255.84,415.67a22.26,22.26,0,0,1,4.73-2l.17,0,0,0c.3-.19.62-.36.93-.55-.19-.32-.41-.62-.57-1-1.41-2.94-1.66-6.28-2.6-9.41a3.14,3.14,0,0,0-1.41-2.09c-.9-.42-1.82,0-2.7.26a5.88,5.88,0,0,1-1.87,0c-1.71-.11-3.17.73-3.32,2.53-.23,2.85,0,5.72-.26,8.56-.2,2.47-.72,4.92-.68,7.39a9.28,9.28,0,0,0,2.53,6.76,6.28,6.28,0,0,0,.88.68C251.21,422.57,251.78,418.25,255.84,415.67Z"/><path class="cls-8" d="M229.79,317.2a68.63,68.63,0,0,1,9.68-5.07c3.42-1.27,7.29-1.76,10.7-.46,4.49,1.7,7.34,6.11,9.3,10.49,4.67,10.49,5.94,22.16,6.21,33.64.45,18.41-1.49,36.79-3.43,55.1l-15.47,1.71c-2.7-12.72-5.4-25.45-7.67-38.25-1.9-10.71-3.55-21.62-8.14-31.48a16.27,16.27,0,0,0-3.05-4.76c-1.94-1.94-4.6-2.93-7.18-3.86a137.31,137.31,0,0,1-14.6-7.2c3.88-1.33,6.26-2.22,8.17-2.87A92.41,92.41,0,0,0,229.79,317.2Z"/><path class="cls-9" d="M224.52,321.44c4.63-2.14,9.53-3.57,14.67-2.83,11.05,1.61,19.35,11.79,23.66,21.4.86,1.91,1.6,3.86,2.27,5.82-.75-8.16-2.33-16.22-5.65-23.67-2-4.38-4.81-8.79-9.3-10.49-3.41-1.3-7.28-.81-10.7.46a68.63,68.63,0,0,0-9.68,5.07,92.41,92.41,0,0,1-15.48,7c-1.48.51-3.27,1.16-5.81,2.05C213.22,328.79,220.24,323.42,224.52,321.44Z"/><path class="cls-11" d="M262.78,415.55a6.08,6.08,0,0,0-2.28,3.6,17.93,17.93,0,0,0-.35,4.33,22.84,22.84,0,0,1-12.66-6.37,52.33,52.33,0,0,0-1.61,13,.7.7,0,0,0,.13.5.66.66,0,0,0,.38.17c6.72,1.42,13.69,1.68,20.24,3.76a73.34,73.34,0,0,0,7.06,2.26,19.12,19.12,0,0,0,14.3-2.67,1.16,1.16,0,0,0,.49-.49c.18-.49-.3-.95-.73-1.25-3.24-2.21-6.65-4.17-9.85-6.44a31.59,31.59,0,0,1-8.36-8.18c-.91-1.39-.9-2.36-2.65-2.83A5,5,0,0,0,262.78,415.55Z"/><path class="cls-10" d="M203.94,191a43.69,43.69,0,0,0-12.82-.3c-5.71.54-11.55,1.56-16.38,4.65-5.49,3.51-9.13,9.39-11.12,15.59s-2.5,12.77-2.89,19.27c-1.33,22.05-1.5,44.2-4.4,66.1-.64,4.84-1.42,9.7-1.16,14.58a2.72,2.72,0,0,0,.4,1.51,2.5,2.5,0,0,0,1.5.79c4.29,1,8.8-.7,12.36-3.29s6.4-6,9.53-9.1c10.93-10.84,25.24-17.55,39.56-23.24-1.66-17.76,4.14-35.23,8.07-52.62,1.41-6.25,4.36-16.66-.55-22C220.94,197.25,211.26,192.45,203.94,191Z"/><path class="cls-12" d="M218.68,262.69c-7.83-2.72-15.92-5.05-20.63-12.63-5.35-8.63-1.58-19.33-6.06-27.85-2.06-3.92-5-7.41-7.2-11.28-2.36-4.16-5.67-7.13-8.47-10.86-6.76,10-9.66,21.52-10.34,33.47-.38,6.82.3,13.64-.15,20.45-.44,6.59-.06,10.63,3.45,16.53,4.05,6.83,11.31,17.54,3.37,24.37-3.36,2.88-8,4.4-11.62,7a52.62,52.62,0,0,0-5.85,4.89,39.66,39.66,0,0,0,0,4.08,2.72,2.72,0,0,0,.4,1.51,2.5,2.5,0,0,0,1.5.79c4.29,1,8.8-.7,12.36-3.29s6.4-6,9.53-9.1c10.93-10.84,25.24-17.55,39.56-23.24A76.42,76.42,0,0,1,218.68,262.69Z"/><path class="cls-13" d="M226.45,180.17A11.65,11.65,0,0,0,228,182Z"/><path class="cls-7" d="M229.9,184.08c-.5-1.13-1.74-1.69-2.79-2.34S225,180,225.3,178.8l1.15,1.37c-1.52-2.15-2.68-4.64-4.95-5.94a8.4,8.4,0,0,0-7.65.13,24.83,24.83,0,0,0-6.26,4.85l-7.12,6.86-2.2,2.12a153.64,153.64,0,0,0,11.17,24.49l0-.06c3.86-6,9.48-10.68,14.41-15.87,2.82-3,5.55-6.37,6.18-10.42A4,4,0,0,0,229.9,184.08Z"/><path class="cls-13" d="M226.45,180.17A11.65,11.65,0,0,0,228,182Z"/><path class="cls-6" d="M227.11,181.74a3.37,3.37,0,0,1-1.85-2.53c-7.11,7.12-15.49,19.32-9.42,25.62,2.63-2.73,5.43-5.34,8-8.08,2.82-3,5.55-6.37,6.18-10.42a4,4,0,0,0-.16-2.25C229.4,183,228.16,182.39,227.11,181.74Z"/><path class="cls-14" d="M192.75,190a16.88,16.88,0,0,1,1.58,4c2.75,9.24,4.72,18.7,6.69,28.14l1.12,5.36a137.29,137.29,0,0,0,7.3-15.17,20.26,20.26,0,0,1-1.78-3.39,65.66,65.66,0,0,1-4-10.67,66.33,66.33,0,0,1-1.29-7.94c-.18-1.5-.25-3-.34-4.49-.11-1.69-1.09-1-2.29-.36C199.1,185.79,192.53,189.65,192.75,190Z"/><path class="cls-14" d="M210.09,211.71a1.62,1.62,0,0,0-.32.75,1.89,1.89,0,0,0,.24.92l5.91,12.73a76.3,76.3,0,0,1,4.89-19.37c.46-1.14,4.23-8.19,2.14-8.6s-5.17,4.57-6.29,5.69A48.21,48.21,0,0,0,210.09,211.71Z"/><path class="cls-7" d="M246,176.79c.93,3.52.32,7.25-.57,10.77q-.66,2.63-1.51,5.19a2.75,2.75,0,0,1-.59,1.12c-.86.86-2.42.29-3.47.92-.89.52-1.1,1.69-1.23,2.71l-.61,4.82a1,1,0,0,1-.2.57c-.24.24-.63.17-1,.08a7,7,0,0,0-2.82-.33,7.57,7.57,0,0,0-2.59,1.09L225,207.47c-1.19.69-2.57,1.4-3.88,1a5,5,0,0,1-2.23-2c-1.76-2.38-3.58-4.9-3.88-7.84a12.13,12.13,0,0,1,.83-5.25c2.09-5.91,6.48-10.68,10.84-15.18,3.11-3.21,6.57-6.71,10.94-8.12C241.64,168.79,245.13,173.36,246,176.79Z"/><path class="cls-15" d="M229.45,186.56a6,6,0,0,0,8.36-8.48A10.88,10.88,0,0,0,240,182c1.75,1.7,4.4,2,6.84,2.14a7.47,7.47,0,0,0,4.61-.83,7.79,7.79,0,0,0,2-2.48,18.47,18.47,0,0,0,2.32-4.82,6.27,6.27,0,0,0-.68-5.15,2.92,2.92,0,0,0-2.18-1.35,1.72,1.72,0,0,0-1.81,1.55,4.33,4.33,0,0,0,.92-3.69,7.73,7.73,0,0,0-1.77-3.46,4.67,4.67,0,0,0-3-1.93c-1.23-.09-2.57,1-2.29,2.22a8.09,8.09,0,0,0-2.67-5.11c-1.56-1.2-4-1.36-5.39.05-.83.85-1.24,2.17-2.35,2.58-1.3.48-2.65-.66-3.28-1.89s-.94-2.68-1.92-3.65a4.43,4.43,0,0,0-4.76-.7,8.14,8.14,0,0,0-3.63,3.46c-.88,1.46-1.49,3.05-2.26,4.57-3.28,6.5-9.25,11.32-12.67,17.75a2.86,2.86,0,0,0-.37,1,2.35,2.35,0,0,0,.5,1.53,5.2,5.2,0,0,0,4.93,2.13c2-.28,3.63-1.62,5.68-1.45,1.87.14,2.53,1,3.52,2.39A5.64,5.64,0,0,0,229.45,186.56Z"/><path class="cls-7" d="M222.76,186a5.64,5.64,0,0,0-1.13-3.51A4,4,0,0,0,219.7,181a3.48,3.48,0,0,0-3.14.65,6.08,6.08,0,0,0-1.88,2.71,9.63,9.63,0,0,0,.1,6.95,3.63,3.63,0,0,0,1.82,2.14,2.86,2.86,0,0,0,3-.83c.84-.88,1-2,1.52-3C221.81,188.35,222.71,187.56,222.76,186Z"/><path class="cls-16" d="M240.69,194.36a.45.45,0,0,1-.16,0,16.78,16.78,0,0,0-6.19-1,.52.52,0,0,1-.49-.46.47.47,0,0,1,.46-.49,17.74,17.74,0,0,1,6.54,1.05.47.47,0,0,1-.16.92Z"/><path class="cls-7" d="M231,276.23c1.12-.15,2.25-.1,3.38-.21,3.59-.33,6.85-2.19,9.89-4.13a9,9,0,0,1,2.39-1.23,9.25,9.25,0,0,1,2-.24q3.69-.15,7.4-.23a3,3,0,0,1,1.15.12,3,3,0,0,1,1,.78L262.1,275a2.35,2.35,0,0,1,.54.72,2.12,2.12,0,0,1,.11.66l.2,2.88a.75.75,0,0,1-1.28,0,10.7,10.7,0,0,0,.88,2.59,4.55,4.55,0,0,1,.69,2c0,.72-.7,1.48-1.39,1.26-.46-.14-.71-.62-.94-1.05a21.66,21.66,0,0,0-2.49-3.48,6.73,6.73,0,0,0-2.07-1.91,16.15,16.15,0,0,0-2.93-.75c1.89,1.22,3.91,2.6,4.63,4.73a.59.59,0,0,1,0,.52.58.58,0,0,1-.36.19,3,3,0,0,1-2.25-.19c-4.57-3.2-6.32-.56-9.68.43-2.67.78-6,2.67-8.74,3a17.52,17.52,0,0,1-5.36,0,17.84,17.84,0,0,1-2.76-.82c-1.79-.67-2.29-3.17-2.2-5A4.6,4.6,0,0,1,231,276.23Z"/><path class="cls-17" d="M261.65,279.12a26.89,26.89,0,0,0-2.28-3.4,4.87,4.87,0,0,0-1.16-1.15,5,5,0,0,0-1.5-.53l-5.35-1.3"/><path class="cls-10" d="M187.26,208c2.94,15.57,5.27,31.26,7.6,46.94a3.85,3.85,0,0,1,2.08-1.34L195.55,257a3.1,3.1,0,0,1,2.54-1.67,6,6,0,0,1,2.24.44,208.46,208.46,0,0,1,35.81,15.94,112.4,112.4,0,0,0-7,21c-16.17.9-31.56-6.37-46.12-13.46A14.74,14.74,0,0,1,178,275.9a14.29,14.29,0,0,1-2.07-3.6,224.79,224.79,0,0,1-10.66-29.15A51.16,51.16,0,0,1,163,231.68a50.12,50.12,0,0,1,1.44-13.11,73.13,73.13,0,0,1,3.86-13.2c1.12-2.64,2.56-6.63,5.35-8C181.49,193.53,186.07,201.65,187.26,208Z"/><path class="cls-6" d="M217.28,189.11a1.75,1.75,0,0,0,.91,1.37.62.62,0,0,0,.71-.3c.15-.54-.73-2.28.46-3.28s.42-3.28-.54-2.93C218.08,184.25,216.89,187,217.28,189.11Z"/><path class="cls-16" d="M238.38,195.87c.12-.78,0-.94-.32-1.06s-3.82-.25-2.67.35A9.09,9.09,0,0,0,238.38,195.87Z"/><path class="cls-18" d="M239.16,196c0,.1.27.48-.78-.11s-.44.79-.44.79-.1.57-.32.66a4.3,4.3,0,0,1-2.23-1.72c-.38-.61-.5-.86.17-.76a10.33,10.33,0,0,1,2.33.43C239.12,195.66,239.24,195.78,239.16,196Z"/><path class="cls-19" d="M235.39,195.16c0-.24,1.39-.18,3,.71,0,0,.18.29-.2.8s-.63.58-1.5,0S235.43,195.63,235.39,195.16Z"/><path class="cls-18" d="M238.38,195.87l-.39-.2a.71.71,0,0,0-.8.24.78.78,0,0,0,.08,1.1c.43.17.64,0,.91-.34S238.38,195.87,238.38,195.87Z"/><path class="cls-20" d="M237.35,197a.74.74,0,0,1-.08-1.05.68.68,0,0,1,.77-.24l.36.19,0,0-.39-.2a.71.71,0,0,0-.8.24.78.78,0,0,0,.08,1.1.92.92,0,0,0,.3.07Z"/><path class="cls-21" d="M236.51,195.14c-.68-.15-1.26-.22-1.25-.09a2.29,2.29,0,0,0,.9,1.25C235.28,195.53,236,195.09,236.51,195.14Z"/><path class="cls-21" d="M236.08,196.23l-.05,0Z"/><path class="cls-18" d="M237.77,196.32a.39.39,0,0,0,.12.54l.11,0a1.82,1.82,0,0,0,.39-.62.24.24,0,0,0-.09-.08A.39.39,0,0,0,237.77,196.32Z"/><path class="cls-22" d="M238.22,196.13c0,.09-.13.18-.28.18s-.28-.08-.28-.18.13-.18.28-.18S238.22,196,238.22,196.13Z"/><path class="cls-22" d="M237.8,196.83a.14.14,0,0,1-.18-.05.13.13,0,0,1,0-.18.14.14,0,0,1,.17.05C237.82,196.71,237.84,196.79,237.8,196.83Z"/><path class="cls-23" d="M231.88,203.08a3.9,3.9,0,0,0-3.55-1.91s2.54,1.55,2.45,2.73C232.38,203.75,231.88,203.08,231.88,203.08Z"/><path class="cls-6" d="M228.33,201.17a16.11,16.11,0,0,0,.66,3.26c.41.87,1.77-.23,1.79-.53C230.78,203.9,231.05,202.72,228.33,201.17Z"/><path class="cls-6" d="M234.67,202.22c.22-.13,3.14-.18,3.25.25s-.45.62-.45.62S234.57,202.46,234.67,202.22Z"/><path class="cls-2" d="M415,383.22c2-.48-4.31-1-16.21-1.05-14.91-.11-30.29.4-30.52,1.1s12.36,1,25.34.87C404.37,384.05,413.18,383.65,415,383.22Z"/><path class="cls-2" d="M468.63,383.22c2-.48-4.3-1-16.21-1.05-14.91-.11-30.28.4-30.52,1.1s12.36,1,25.35.87C458,384.05,466.79,383.65,468.63,383.22Z"/><path class="cls-7" d="M416.8,369.76c-.59-2.25-3.67-3.86-6.94-3.74a7.93,7.93,0,0,0-3.4.87,11,11,0,0,0-5.47-1c-8.85,1.12-17.12-2.05-22-8.24,1,6.74,10.9,26.62,26.62,22.29,3.58-1,5.64-2.3,6.63-3.72C414.92,374.19,417.19,371.26,416.8,369.76Z"/><path class="cls-24" d="M415.36,367.7a6.36,6.36,0,0,1-.8,1.37c-4.18,5.47-16.56,5.47-27.64,0a38.59,38.59,0,0,1-4.63-2.7c4.26,7.85,12.39,16.59,23.34,13.57,3.58-1,5.64-2.3,6.63-3.72,2.66-2,4.93-5,4.54-6.46A4.11,4.11,0,0,0,415.36,367.7Z"/><polygon class="cls-7" points="412.48 374.73 416.29 375.45 415.86 372.33 412.93 372.36 412.48 374.73"/><path class="cls-7" d="M386,366.85s7.12,15,18.45,10S386,366.85,386,366.85Z"/><polygon class="cls-25" points="398.21 379.71 400.6 383.66 401.21 379.55 398.21 379.71"/><polygon class="cls-25" points="401.69 379.21 401.92 383.6 404.53 380.02 401.69 379.21"/><path class="cls-25" d="M412.59,370.57A1.9,1.9,0,0,0,410.5,369a1.77,1.77,0,0,0-1.81,1.76,1.89,1.89,0,0,0,2.09,1.54A1.75,1.75,0,0,0,412.59,370.57Z"/><path class="cls-7" d="M411.62,370.37a1.27,1.27,0,0,0-1.41-1.05,1.18,1.18,0,0,0-1.22,1.19,1.27,1.27,0,0,0,1.41,1A1.19,1.19,0,0,0,411.62,370.37Z"/><path class="cls-7" d="M430.8,374.46c-.45-2.27,1.7-4.66,4.81-5.49a8.49,8.49,0,0,1,3.56-.17,9.48,9.48,0,0,1,4.65-2.52c8.76-1.5,15.05-6.86,16.81-14,2.1,6.58,1.77,28-14.84,28.5-3.78.11-6.29-.52-7.86-1.56C434.54,378.05,431.11,376,430.8,374.46Z"/><path class="cls-24" d="M431.22,372.12a8.46,8.46,0,0,0,1.36,1.05c6.36,3.9,17.9.32,25.79-8a30.77,30.77,0,0,0,3.11-3.86c-.45,8.56-4.12,19.06-15.69,19.41-3.78.11-6.29-.52-7.86-1.56-3.39-1.13-6.82-3.21-7.13-4.72A3.48,3.48,0,0,1,431.22,372.12Z"/><polygon class="cls-7" points="437.07 377.85 433.83 379.62 432.83 376.59 435.58 375.76 437.07 377.85"/><path class="cls-7" d="M458.21,362.86s.1,16.09-12.75,14.63S458.21,362.86,458.21,362.86Z"/><polygon class="cls-25" points="453.86 375.62 451.07 383.31 450.43 379.2 453.86 375.62"/><polygon class="cls-25" points="449.95 378.87 449.76 383.26 447.13 379.7 449.95 378.87"/><path class="cls-25" d="M435.09,374a1.57,1.57,0,0,1,1.26-2,2.12,2.12,0,0,1,2.48,1.11,1.57,1.57,0,0,1-1.26,2A2.12,2.12,0,0,1,435.09,374Z"/><path class="cls-7" d="M435.91,373.53a1.06,1.06,0,0,1,.85-1.38,1.43,1.43,0,0,1,1.67.75,1.05,1.05,0,0,1-.85,1.38A1.42,1.42,0,0,1,435.91,373.53Z"/></g></g></svg>