<?xml version="1.0" encoding="UTF-8"?>
<svg  width="800" height="800" xmlns="http://www.w3.org/2000/svg" viewBox="0 0 1080 1080">
  <defs>
    <style>
      .cls-1 {
        fill: #cd8d7a;
      }

      .cls-2 {
        fill: #884627;
      }

      .cls-3 {
        fill: #351807;
      }

      .cls-4, .cls-5, .cls-6 {
        fill: #042b62;
      }

      .cls-7 {
        fill: #bbb4b0;
      }

      .cls-8 {
        fill: #e25d5d;
      }

      .cls-9 {
        fill: #f0806d;
      }

      .cls-10 {
        fill: #005263;
      }

      .cls-11 {
        fill: #fff;
      }

      .cls-12 {
        fill: #e34848;
      }

      .cls-13 {
        fill: #9f1818;
      }

      .cls-14 {
        fill: #dbd8bd;
      }

      .cls-15 {
        fill: #110804;
      }

      .cls-16 {
        fill: #024149;
      }

      .cls-17 {
        isolation: isolate;
      }

      .cls-18 {
        fill: #f29d77;
      }

      .cls-19 {
        fill: #cbcbcb;
      }

      .cls-20 {
        fill: #ffb085;
      }

      .cls-21 {
        fill: #542913;
      }

      .cls-22 {
        fill: #333;
      }

      .cls-23 {
        mix-blend-mode: multiply;
      }

      .cls-5 {
        opacity: .64;
      }

      .cls-24 {
        fill: #ff5c55;
      }

      .cls-25 {
        fill: #0e1d28;
      }

      .cls-26 {
        fill: #e2e2e2;
      }

      .cls-26, .cls-27, .cls-28 {
        stroke: #939393;
        stroke-width: .25px;
      }

      .cls-29 {
        fill: #fdfaee;
      }

      .cls-30 {
        fill: #949494;
      }

      .cls-31 {
        fill: #182c3c;
      }

      .cls-27 {
        fill: none;
      }

      .cls-6 {
        opacity: .23;
      }

      .cls-28, .cls-32 {
        fill: #eaeaea;
      }

      .cls-33 {
        fill: #0e2838;
      }
    </style>
  </defs>
  <g class="cls-17">
    <g id="Layer_1">
      <g>
        <path class="cls-4" d="M324.45,710.09c-3.05-6.57-8.64-15.76-10.17-21.37-1.52-5.61-2.55-36.62-5.1-50.36-2.55-13.74-4.57-25.94-4.57-31.02,0-3.07.17-6.14.51-9.19l6.09-29.51s7.13-12.71,10.18-21.36c3.05-8.64,7.12-47.81,3.05-61.55-4.07-13.74-5.6-55.95-5.6-55.95l-12.71-12.22-10.68-6.09s-1.02-5.1-1.52-7.12c-.5-2.02-3.56-3.57-3.56-3.57l1.01-7.12c1.54-.01,3.08-.18,4.58-.5,1.43-.3,2.75-.97,3.82-1.96,1.07-.99,1.86-2.24,2.27-3.64,1.52-4.07,5.1-11.7,5.6-13.74.5-2.04,2.04-2.55,2.04-6.11s-4.57-9.19-4.57-9.19c0,0,3.07-17.72-3.06-24.39-6.13-6.67-14.75-10.17-27.46-6.57-12.71,3.6-15.76,9.67-16.79,13.23l-1.02,3.56s-9.65-3.06-14.75-2.55c-5.1.51-13.73,7.63-12.2,20.35,1.52,12.71,11.7,16.27,16.79,17.3,5.08,1.02,10.68-2.55,10.68-2.55-.09,1.5.14,2.99.67,4.4.53,1.4,1.34,2.68,2.39,3.75,3.56,3.56,6.09,4.57,7.12,6.11,1.02,1.54,0,6.09-.51,7.63s-5.6,2.54-6.57,5.6l-2.55,7.62s-11.19,6.11-18.82,8.14c-7.63,2.04-8.64,4.07-8.64,8.14s1.01,14.75-3.06,36.11c-4.07,21.36-6.09,30.01-7.63,46.8s-1.52,32.56-.5,39.68c1.02,7.12,10.19,21.38,10.19,21.38l2.55,21.87,5.6,4.07s4.99,19.32,4.99,28.48,7.63,52.91,8.66,63.05c.61,5.23.95,10.49,1.01,15.76,0,1.52-13.23,10.68-18.31,16.79s-11.19,9.19-6.57,12.22,10.18,1.52,18.31-2.04c8.13-3.56,11.7-6.11,16.29-7.13,4.58-1.02,8.64-.5,10.68-6.57,2.04-6.07-2.04-15.76-2.55-24.42-.51-8.66,0-36.12,0-47.29s-3.05-21.87-3.05-31.02-.51-16.79-.51-16.79h13.74s7.63,32.56,9.67,46.29c2.04,13.73,6.11,28.49,8.13,40.19,2.02,11.7,2.55,14.75,3.06,20.35.51,5.6,4.07,10.68,5.6,14.24,1.52,3.56,10.17,12.22,16.79,11.7,6.62-.51,4.05-15.29.99-21.9ZM239.5,506.61s-1.02-12.22-1.02-16.79,3.56-17.3,3.56-17.3c0,0,2.04,15.26,2.04,19.83s-4.57,14.25-4.57,14.25ZM305.57,480.16s4.58,10.68,4.58,20.86-2.55,25.43-2.55,25.43c0,0-5.6-17.8-6.57-23.39-.97-5.6,4.53-22.89,4.53-22.89Z"/>
        <path class="cls-4" d="M678.67,710.09c-3.05-6.57-8.64-15.76-10.17-21.37-1.52-5.61-2.55-36.62-5.1-50.36-2.55-13.74-4.51-25.94-4.51-31.04,0-3.07.17-6.14.51-9.19l6.06-29.46s7.12-12.71,10.18-21.36c3.06-8.64,7.12-47.81,3.05-61.55-4.07-13.74-5.6-55.95-5.6-55.95l-12.71-12.22-10.68-6.09s-1.02-5.1-1.52-7.12c-.5-2.02-3.57-3.57-3.57-3.57l1.02-7.12c1.54-.01,3.07-.18,4.57-.5,1.43-.29,2.75-.97,3.83-1.95s1.86-2.24,2.28-3.64c1.52-4.07,5.08-11.7,5.6-13.74.51-2.04,2.04-2.55,2.04-6.11s-4.57-9.19-4.57-9.19c0,0,3.02-17.76-3.1-24.43-6.12-6.67-14.75-10.17-27.46-6.57s-15.76,9.67-16.79,13.23l-1.02,3.56s-9.65-3.06-14.75-2.55c-5.1.51-13.73,7.63-12.2,20.35,1.52,12.71,11.7,16.27,16.79,17.3,5.08,1.02,10.68-2.55,10.68-2.55-.09,1.5.14,2.99.66,4.4.53,1.4,1.34,2.68,2.4,3.75,3.56,3.56,6.09,4.57,7.12,6.11,1.02,1.54,0,6.09-.51,7.63-.51,1.54-5.6,2.54-6.57,5.6-.97,3.06-2.55,7.62-2.55,7.62,0,0-11.19,6.11-18.82,8.14-7.63,2.04-8.64,4.07-8.64,8.14s1.01,14.75-3.06,36.11c-4.07,21.36-6.09,30.01-7.63,46.8-1.54,16.79-1.52,32.56-.5,39.68,1.02,7.12,10.17,21.37,10.17,21.37l2.55,21.87,5.6,4.07s5.08,19.32,5.08,28.48,7.63,52.91,8.64,63.05c.62,5.23.96,10.49,1.02,15.76,0,1.52-13.23,10.68-18.31,16.79-5.08,6.11-11.19,9.19-6.57,12.22,4.62,3.02,10.18,1.52,18.31-2.04,8.13-3.56,11.7-6.11,16.29-7.13,4.58-1.02,8.64-.5,10.68-6.57,2.04-6.07-2.04-15.76-2.55-24.42-.51-8.66,0-36.12,0-47.29s-3.05-21.87-3.05-31.02-.51-16.79-.51-16.79h13.74s7.63,32.56,9.67,46.29c2.04,13.73,6.09,28.49,8.13,40.19,2.04,11.7,2.55,14.75,3.06,20.35.51,5.6,4.07,10.68,5.6,14.24,1.52,3.56,10.17,12.22,16.79,11.7,6.62-.51,3.99-15.28.93-21.88ZM593.72,506.61s-1.02-12.22-1.02-16.79,3.56-17.3,3.56-17.3c0,0,2.04,15.26,2.04,19.83s-4.57,14.25-4.57,14.25ZM659.84,480.16s4.58,10.68,4.58,20.86-2.55,25.43-2.55,25.43c0,0-5.6-17.8-6.57-23.39-.97-5.6,4.53-22.89,4.53-22.89Z"/>
        <path class="cls-4" d="M344.76,318.48s-10.6,0-13.78,6.37c-3.18,6.37-4.78,7.95-4.78,13.78.03,3.74.38,7.46,1.06,11.14-1.25,2.29-1.97,4.82-2.11,7.42,0,3.72,1.59,4.78,2.11,6.37,1.77,5.27,3.89,10.41,6.37,15.38l3.7,7.42s3.18,2.11.54,3.7c-2.64,1.59-7.43.54-7.96,4.24-.53,3.7-2.63,3.18-4.77,6.37-2.14,3.19,3.7,1.05,3.7,1.05,0,0-5.83,5.84-11.13,7.43-5.29,1.59-9.02,1.05-11.68,5.25-2.65,4.2-15.37,44.01-18.56,55.68-3.19,11.66-4.24,11.14,1.6,14.32,5.84,3.18,21.72,3.22,21.72,3.22v30.21c0,16.43,0,57.79,5.25,79.01,5.25,21.21,5.25,69.46,5.83,75.83.58,6.37-2.11,27.58-2.11,31.81s-3.18,13.78-4.77,15.91c-1.59,2.13-13.79,8.49-13.79,13.25s1.59,5.25,9.01,5.83c7.42.58,21.75-4.24,28.11-7.88,6.36-3.64,14.84-2.63,16.43-9.02,1.59-6.4,1.06-14.32,1.06-24.96s-3.7-46.67-3.7-54.09-2.13-58.86-1.06-66.8c1.06-7.95,2.11-31.83,2.11-31.83,0,0,12.2,110.33,14.86,130.44,2.65,20.11.53,44.01,2.63,48.26,2.1,4.24,8.47,7.42,15.91,9.55,7.43,2.13,21.2,8.49,26.51,6.36,5.31-2.13,7.96-9.01,4.78-13.78s-18.03-25.98-18.56-28.63c-.53-2.65-4.78-79.54-4.78-103.41s-7.42-63.05-7.42-68.39-1.06-41.36-1.06-41.36c0,0,15.91-3.18,18.03-6.9,2.13-3.72,2.63-9.55,2.63-12.2s-12.2-48.24-14.86-52.54c-2.65-4.3-11.66-9.55-16.43-11.66l-4.77-2.13c-.47-2.53-1.57-4.9-3.19-6.9-1.79-2.09-3.74-4.04-5.83-5.83,0,0,6.9-7.95,7.42-11.13.37-2.99.55-6.01.54-9.02,2.55-2.97,4.04-6.69,4.24-10.6.14-4.62-.95-9.2-3.18-13.25,0,0,.53-10.07-1.6-13.79-2.13-3.72-8.31-9.5-8.31-9.5,0,0-11.73-2.11-15.97,0Z"/>
        <path class="cls-4" d="M90.78,318.48s-10.6,0-13.75,6.44c-3.15,6.44-4.77,7.95-4.77,13.78.03,3.74.38,7.46,1.06,11.14-1.26,2.28-1.98,4.82-2.13,7.42,0,3.72,1.59,4.78,2.13,6.37,1.75,5.25,3.87,10.36,6.33,15.32l3.72,7.42s3.18,2.11.53,3.7c-2.65,1.59-7.42.54-7.88,4.24-.46,3.7-2.63,3.18-4.78,6.37s3.72,1.05,3.72,1.05c0,0-5.83,5.84-11.14,7.43-5.31,1.59-9.01,1.05-11.66,5.25-2.65,4.2-15.38,44.01-18.56,55.68-3.18,11.66-4.24,11.14,1.59,14.32,5.83,3.18,21.74,3.18,21.74,3.18v30.21c0,16.43,0,57.79,5.25,79.01,5.25,21.21,5.25,69.46,5.83,75.83.58,6.37-2.11,27.58-2.11,31.81s-3.19,13.78-4.78,15.91c-1.59,2.13-13.78,8.49-13.78,13.25s1.59,5.25,9.01,5.83c7.42.58,21.74-4.24,28.11-7.88,6.37-3.64,14.84-2.63,16.43-9.02,1.59-6.4,1.06-14.32,1.06-24.96s-3.72-46.67-3.72-54.09-2.11-58.86-1.06-66.8c1.05-7.95,2.13-31.83,2.13-31.83,0,0,12.19,110.33,14.84,130.44,2.65,20.11.54,44.01,2.63,48.26,2.09,4.24,8.49,7.42,15.91,9.55,7.42,2.13,21.21,8.49,26.52,6.36,5.31-2.13,7.88-9.01,4.77-13.78s-18.03-25.98-18.56-28.63-4.77-79.54-4.77-103.41-7.42-63.05-7.42-68.39-1.06-41.36-1.06-41.36c0,0,15.91-3.18,18.02-6.9s2.63-9.55,2.63-12.2-12.19-48.24-14.84-52.54c-2.65-4.3-11.66-9.55-16.44-11.66l-4.77-2.13c-.47-2.53-1.56-4.9-3.18-6.9-1.79-2.09-3.74-4.04-5.83-5.83,0,0,6.9-7.95,7.42-11.13.36-2.99.53-6.01.53-9.02,2.53-2.92,4.03-6.59,4.27-10.46.15-4.62-.95-9.2-3.18-13.25,0,0,.53-10.07-1.59-13.79-2.11-3.72-8.49-9.55-8.49-9.55,0,0-11.66-2.17-15.91-.05Z"/>
        <path class="cls-4" d="M784.11,318.48s-10.6,0-13.79,6.37c-3.19,6.37-4.77,7.95-4.77,13.78.03,3.74.38,7.46,1.06,11.14-1.26,2.28-1.98,4.82-2.13,7.42,0,3.72,1.59,4.78,2.13,6.37,1.76,5.27,3.88,10.41,6.36,15.38l3.72,7.42s3.18,2.11.53,3.7c-2.65,1.59-7.42.54-7.95,4.24-.53,3.7-2.63,3.18-4.78,6.37s3.72,1.05,3.72,1.05c0,0-5.83,5.84-11.14,7.43-5.31,1.59-9.01,1.05-11.66,5.25-2.65,4.2-15.38,44.01-18.56,55.68-3.18,11.66-4.24,11.14,1.59,14.32,5.83,3.18,21.74,3.18,21.74,3.18v30.21c0,16.43,0,57.79,5.25,79.01,5.25,21.21,5.25,69.46,5.83,75.83.58,6.37-2.11,27.58-2.11,31.81s-3.19,13.78-4.78,15.91-13.78,8.49-13.78,13.25,1.59,5.25,9.01,5.83c7.42.58,21.74-4.24,28.11-7.88,6.37-3.64,14.84-2.63,16.43-9.02,1.59-6.4,1.06-14.32,1.06-24.96s-3.64-46.63-3.64-54.05-2.11-58.86-1.06-66.8c1.05-7.95,2.13-31.83,2.13-31.83,0,0,12.19,110.33,14.84,130.44,2.65,20.11.54,44.01,2.63,48.26,2.09,4.24,8.49,7.42,15.91,9.55,7.42,2.13,21.21,8.49,26.52,6.36,5.31-2.13,7.95-9.01,4.77-13.78-3.18-4.77-18.02-25.98-18.56-28.63-.54-2.65-4.77-79.54-4.77-103.41s-7.42-63.05-7.42-68.39-1.06-41.36-1.06-41.36c0,0,15.91-3.18,18.02-6.9,2.11-3.72,2.63-9.55,2.63-12.2s-12.19-48.24-14.84-52.54c-2.65-4.3-11.66-9.55-16.44-11.66l-4.77-2.13c-.47-2.53-1.56-4.9-3.18-6.9-1.79-2.09-3.74-4.04-5.83-5.83,0,0,6.9-7.95,7.42-11.13.36-2.99.53-6.01.53-9.02,2.55-2.96,4.05-6.69,4.24-10.6.15-4.62-.95-9.2-3.18-13.25,0,0,.54-10.07-1.59-13.79s-8.49-9.55-8.49-9.55c0,0-11.64-2.06-15.88.05Z"/>
        <path class="cls-4" d="M445.57,321.07s-5.15-4.64-10.3-5.66-11.32,1.54-17.51,6.17c-6.19,4.64-7.21,8.76-7.21,11.82v8.75s-2.63,3.1-2.63,6.19c-.11,3.05.6,6.07,2.06,8.75l1.55,2.63s2.06,8.76,5.15,11.82c3.09,3.06,5.66,5.15,5.66,5.15v6.19s-3.09-2.63-4.64,1.02-3.09,8.24-3.09,8.24c0,0-22.17.83-22.68,8.55-.51,7.72-7.7,28.02-9.19,33.68-1.5,5.66-11.32,36.04-11.32,42.74s15.45,22.66,18.02,29.36c1.81,4.57,3.87,9.04,6.17,13.38,0,0,1.55,61.29,1.55,70.55s-.51,35.02-.51,53.04,1.02,44.8,1.02,46.87-2.63,11.34-2.63,11.34c-2.47,3.97-5.22,7.75-8.24,11.32-4.12,4.64-6.7,8.24-6.7,12.36s8.25,4.64,14.45,4.64,21.63-9.79,25.23-11.34,5.15-2.05,6.7-7.2,1.54-7.21,1.54-22.15.53-65.92.53-76.18.51-48.4.51-50.98,1.02-22.66,1.02-22.66c0,0,12.36,88.57,12.36,99.39s5.15,55.1,5.15,63.85,2.06,10.3,6.7,12.36c4.64,2.06,33.98,8.75,35.53,9.27,1.55.53,7.72-3.1,7.72-7.72s-8.75-9.79-14.93-19.06c-3.74-5.66-7.16-11.52-10.25-17.55,0,0-5.66-102.45-5.66-108.14s-.51-19.57-.51-19.57c0,0,11.82-20.08,10.81-27.81-1.01-7.72-2.06-10.81-.51-13.91,1.55-3.1,4.64-7.72,4.64-13.9s-1.04-21.11-1.04-29.87-4.64-56.13-6.17-60.25c-1.54-4.12-7.21-7.72-10.82-9.27s-12.87-7.72-12.87-7.72c0,0,0-5.15-2.06-7.21-1.24-1.22-2.88-1.95-4.62-2.05v-5.67s7.72-2.06,8.24-7.72c.51-5.66,1.02-8.75,1.02-8.75,0,0,2.63,0,2.06-6.7-.56-6.7-2.06-9.27-3.09-10.81s2.06-10.3-.51-14.45c-1.29-2.28-3.29-4.08-5.7-5.12Z"/>
        <path class="cls-4" d="M690.99,331.19s-5.15-4.64-10.3-5.66c-5.15-1.02-11.32,1.54-17.51,6.17-6.19,4.64-7.21,8.75-7.21,11.82v8.75c-1.47,1.76-2.38,3.91-2.63,6.19-.11,3.05.6,6.07,2.06,8.75l1.55,2.63s2.06,8.76,5.15,11.82c3.09,3.06,5.66,5.15,5.66,5.15v6.17s-3.09-2.63-4.64,1.04-3.09,8.24-3.09,8.24c0,0-22.33,1.22-22.83,8.94s-7.55,27.58-9.1,33.28-11.24,36.04-11.24,42.74,15.45,22.66,18.02,29.36c1.82,4.57,3.88,9.04,6.19,13.38,0,0,1.54,61.27,1.54,70.55s-.51,35.02-.51,53.04,1.02,44.8,1.02,46.87-2.63,11.32-2.63,11.32c-2.46,3.98-5.22,7.76-8.24,11.34-4.12,4.64-6.7,8.24-6.7,12.36s8.25,4.64,14.45,4.64,21.63-9.79,25.23-11.34c3.6-1.55,5.15-2.06,6.7-7.21,1.55-5.15,1.54-7.21,1.54-22.13s.53-65.92.53-76.18.51-48.4.51-50.98,1.02-22.66,1.02-22.66c0,0,12.36,88.57,12.36,99.38s5.15,55.06,5.15,63.82,2.06,10.3,6.7,12.36c4.64,2.06,33.98,8.75,35.46,9.19s7.72-3.09,7.72-7.72-8.75-9.77-14.93-19.05c-3.73-5.63-7.14-11.47-10.23-17.48,0,0-5.66-102.45-5.66-108.14s-.51-19.57-.51-19.57c0,0,11.82-20.08,10.81-27.81-1.01-7.72-2.06-10.77-.46-13.92s4.64-7.72,4.64-13.9-1.04-21.12-1.04-29.87-4.69-56.06-6.23-60.2-7.21-7.72-10.82-9.27c-3.61-1.55-12.87-7.72-12.87-7.72,0,0,0-5.15-2.06-7.21-1.24-1.23-2.88-1.96-4.62-2.06v-5.66s7.72-2.06,8.24-7.72,1.02-8.75,1.02-8.75c0,0,2.63,0,2.06-6.7-.56-6.7-2.06-9.27-3.09-10.81-1.02-1.54,2.06-10.31-.51-14.45-1.29-2.28-3.28-4.08-5.67-5.12Z"/>
        <path class="cls-4" d="M481.04,331.67c-2.7,1.46-5.13,3.37-7.18,5.65-10.64,11.93-5.78,32.57-5.78,47.1,0,6.97,1.6,14.45,0,17.71s-10.73,8.58-14.45,10.72-4.3,2.69-6.97,13.95c-2.68,11.26-10.19,33.26-10.19,33.26l6.97,5.37s-3.22,21.45-3.76,26.27,9.65,22.53,10.73,27.36c1.08,4.83-6.97,16.63-3.22,39.15,3.76,22.53,1.06,47.21,1.06,47.21h11.82s2.63,62.23,2.63,73.49,1.08,25.22.54,30.05l-.54,4.82s-10.19,9.65-13.95,13.95c-3.76,4.3-8.04,5.36-4.82,9.12,3.22,3.76,9.12,0,18.23-1.6,9.12-1.6,11.82-2.63,16.63-6.44,4.81-3.81,9.67-5.91,10.73-11.27,1.06-5.36-2.63-32.72-2.63-39.15s-1.6-72.96-1.6-72.96l12.87-1.06s5.9,106.21,5.9,109.96.54,5.9,2.63,8.58c2.09,2.68,10.73,3.76,16.63,5.37,5.9,1.62,15.03,3.76,20.39,3.22,5.36-.54,10.73-1.62,11.27-6.44s-12.87-12.87-17.17-16.63c-4.3-3.76-12.33-11.82-12.33-13.41s-4.3-91.2-4.3-91.2l11.27-1.08s-1.62-47.75-2.69-56.86,2.15-7.51,2.15-7.51c0,0,4.28,12.33,4.82,16.09s-2.14,6.44,1.08,7.51,6.97-6.44,6.97-13.41-5.9-29.5-8.05-39.69c-2.15-10.19-4.28-24.68-4.28-28.44s2.14-11.82,2.14-11.82l6.97-3.76s-6.97-26.82-8.05-33.8c-1.08-6.97-1.06-10.19-3.22-13.95-2.15-3.76-11.82-11.27-11.82-11.27,0,0,.53-28.42,0-42.91s-2.69-26.27-11.82-31.65c-7.59-4.45-17.65-3.91-25.61.41Z"/>
        <path class="cls-4" d="M555.13,332.18c-2.21,1.1-12.15,2.76-12.15,5.52.11,2.8-.26,5.6-1.1,8.27-1.1,3.86-4.96,8.27-3.86,12.15.71,2.37,1.83,4.59,3.31,6.57,0,0-6.57,7.17-6.07,11.03s4.96,6.57,4.96,6.57c.26,3.35.82,6.67,1.66,9.93,1.1,3.31.55,3.86,4.41,4.41,3.31.3,6.64.3,9.94,0l.55,5.52c-.97.29-1.87.78-2.63,1.45-.76.67-1.37,1.5-1.78,2.42-1.04,2.02-2.37,3.88-3.94,5.52,0,0-12.69,2.76-18.2,4.96-5.52,2.21-7.17,4.96-7.72,7.17-.55,2.21-21.02,54.63-21.53,56.28-.51,1.65,9.39,16,9.39,16,0,0,3.86,17.08,4.41,25.39.72,7.26,1.82,14.47,3.31,21.61,0,0,4.41,64.57,6.57,80.02,2.15,15.45,3.31,67.87,3.31,70.63s1.1,9.39-.55,12.7c-1.65,3.31-3.86,9.38-7.17,13.79s-7.72,8.27-7.17,14.34c.55,6.07,8.27,5.52,15.45,3.86,6.97-1.56,13.2-5.45,17.65-11.03,4.17-5.2,7.22-11.21,8.96-17.64,1.66-6.07,1.66-13.79,1.66-18.22s3.31-27.03,2.76-36.41c-.55-9.38-.55-79.47-.55-79.47l3.86-7.17,7.17-.55s12.69,100.98,12.69,113.06,0,23.73.55,27.04c.46,4.95.64,9.92.55,14.89,0,3.31,5.52,10.51,10.51,11.58,4.99,1.08,14.91,10.51,22.63,10.51s12.69-.55,13.79-6.08.55-8.83-2.76-14.34c-3.31-5.52-7.17-8.83-9.38-14.34-2.21-5.52-4.41-5.52-4.41-8.28s.55-11.05,0-16.01c-.55-4.96-2.76-7.17-2.76-12.69v-19.31c0-3.31-1.66-77.26-1.66-80.02v-16.55s6.07-11.05,9.93-18.22c3.52-6.99,6.65-14.18,9.38-21.51.55-1.66,2.21-7.17,2.21-9.38v-13.21l12.69-6.07s-12.14-36.42-14.89-45.25c-2.76-8.83-3.86-21.51-8.83-23.17s-16-5.52-19.86-7.17c-2.89-1.1-5.24-3.28-6.57-6.07-1.1-2.22,0-3.32-2.76-4.98-2.05-1.1-4.27-1.84-6.57-2.21l-3.31-8.83,4.96-13.24c3.39-4.42,5.15-9.88,4.96-15.45-.55-8.84-1.1-16.56-3.31-20.42-2.21-3.86-8.27-7.17-14.89-8.83-6.62-1.65-17.8-1.1-17.8-1.1Z"/>
        <path class="cls-4" d="M136.32,332.18c-2.21,1.1-12.14,2.76-12.14,5.52.11,2.8-.26,5.6-1.1,8.27-1.1,3.86-4.96,8.27-3.86,12.15.71,2.37,1.83,4.59,3.31,6.57,0,0-6.57,7.17-6.08,11.03.49,3.86,4.98,6.57,4.98,6.57.26,3.35.82,6.67,1.65,9.93,1.1,3.31.55,3.86,4.41,4.41,3.3.3,6.63.3,9.93,0l.55,5.52c-.97.29-1.87.78-2.63,1.45s-1.37,1.5-1.78,2.42c-1.01,2.04-2.31,3.92-3.86,5.58,0,0-12.7,2.76-18.22,4.96-5.52,2.21-7.17,4.96-7.72,7.17-.55,2.21-21.02,54.63-21.51,56.28-.5,1.66,9.38,16,9.38,16,0,0,3.86,17.08,4.41,25.39.72,7.23,1.83,14.42,3.32,21.54,0,0,4.41,64.57,6.57,80.02,2.15,15.45,3.31,67.87,3.31,70.63s1.1,9.39-.55,12.7c-1.65,3.31-3.86,9.38-7.17,13.79-3.31,4.41-7.72,8.27-7.17,14.34.55,6.07,8.27,5.52,15.45,3.86,6.97-1.56,13.2-5.45,17.67-11.03,4.13-5.21,7.13-11.22,8.83-17.65,1.65-6.07,1.65-13.79,1.65-18.22s3.31-27.03,2.76-36.41c-.55-9.38-.55-79.47-.55-79.47l3.86-7.17,7.17-.55s12.69,100.98,12.69,113.12,0,23.73.55,27.04c.48,4.97.69,9.96.62,14.95,0,3.31,5.53,10.51,10.51,11.58s14.89,10.51,22.62,10.51,12.69-.55,13.79-6.08c1.1-5.53.55-8.83-2.76-14.34-3.31-5.52-7.17-8.83-9.38-14.34-2.21-5.52-4.41-5.52-4.41-8.27s.55-11.05,0-16.01c-.55-4.96-2.76-7.17-2.76-12.69v-19.31c0-3.31-1.66-77.26-1.66-80.02v-16.55s6.07-11.05,9.93-18.22c3.52-6.99,6.65-14.18,9.38-21.51.55-1.66,2.21-7.17,2.21-9.38v-13.31l12.7-6.07s-12.15-36.42-14.91-45.25c-2.76-8.83-3.86-21.51-8.83-23.17s-16-5.52-19.86-7.17c-2.89-1.11-5.24-3.28-6.57-6.07-1.1-2.22,0-3.32-2.76-4.98-2.05-1.1-4.27-1.84-6.57-2.21l-3.31-8.83,4.98-13.24c3.39-4.42,5.15-9.88,4.96-15.45-.55-8.84-1.1-16.56-3.31-20.42s-8.29-7.17-14.91-8.83c-6.62-1.65-17.81-1.1-17.81-1.1Z"/>
        <path class="cls-4" d="M186.88,318.48s-10.61,0-13.79,6.37c-3.18,6.37-4.77,7.95-4.77,13.78.03,3.74.38,7.46,1.06,11.14-1.26,2.28-1.98,4.82-2.13,7.42,0,3.72,1.59,4.78,2.13,6.37,1.75,5.27,3.88,10.41,6.36,15.38l3.72,7.42s3.18,2.11.53,3.7c-2.65,1.59-7.42.54-7.96,4.24-.54,3.7-2.63,3.18-4.77,6.37-2.14,3.19,3.72,1.05,3.72,1.05,0,0-5.83,5.84-11.14,7.43-5.31,1.59-9.01,1.05-11.66,5.25-2.65,4.2-15.38,44.05-18.61,55.72-3.23,11.66-4.24,11.14,1.59,14.32,5.83,3.18,21.74,3.18,21.74,3.18v30.21c0,16.43,0,57.79,5.25,79.01,5.25,21.21,5.25,69.46,5.83,75.83.58,6.37-2.13,27.58-2.13,31.81s-3.18,13.78-4.77,15.91c-1.59,2.13-13.79,8.49-13.79,13.25s1.6,5.25,9.02,5.83c7.42.58,21.74-4.24,28.1-7.88,6.36-3.64,14.86-2.63,16.44-9.02,1.59-6.4,1.06-14.32,1.06-24.96s-3.72-46.67-3.72-54.09-2.11-58.86-1.06-66.8c1.05-7.95,2.13-31.83,2.13-31.83,0,0,12.19,110.33,14.84,130.44,2.65,20.11.53,44.01,2.63,48.26,2.1,4.24,8.49,7.42,15.91,9.55,7.42,2.13,21.21,8.49,26.52,6.36,5.31-2.13,7.95-9.01,4.77-13.78s-18.03-25.98-18.56-28.63c-.53-2.65-4.77-79.54-4.77-103.41s-7.43-63.05-7.43-68.39-1.05-41.36-1.05-41.36c0,0,15.91-3.18,18.02-6.9,2.11-3.72,2.63-9.55,2.63-12.2s-12.19-48.24-14.84-52.54c-2.65-4.3-11.66-9.55-16.44-11.66l-4.77-2.13c-.47-2.53-1.56-4.9-3.18-6.9-1.79-2.09-3.74-4.04-5.83-5.83,0,0,6.88-7.95,7.42-11.13.36-2.99.53-6.01.53-9.02,2.55-2.96,4.05-6.69,4.24-10.6.15-4.62-.95-9.2-3.18-13.25,0,0,.53-10.07-1.59-13.79s-8.49-9.55-8.49-9.55c0,0-11.51-2.06-15.75.05Z"/>
        <path class="cls-4" d="M308.05,331.67c-2.7,1.46-5.13,3.37-7.18,5.65-10.64,11.93-5.79,32.57-5.79,47.1,0,6.97,1.62,14.45,0,17.71-1.62,3.26-10.73,8.58-14.45,10.72s-4.3,2.69-6.97,13.95c-2.68,11.26-10.19,33.26-10.19,33.26l6.97,5.37s-3.23,21.45-3.76,26.27,9.65,22.53,10.72,27.36c1.06,4.83-6.96,16.63-3.22,39.15,3.74,22.53,1.08,47.21,1.08,47.21h11.82s2.63,62.23,2.63,73.49,1.06,25.22.54,30.05l-.54,4.82s-10.19,9.65-13.95,13.95c-3.76,4.3-8.05,5.36-4.83,9.12,3.22,3.76,9.19,0,18.24-1.6,9.05-1.6,11.82-2.63,16.63-6.44,4.81-3.81,9.65-5.91,10.73-11.27,1.08-5.36-2.63-32.72-2.63-39.15s-1.62-72.96-1.62-72.96l12.87-1.06s5.91,106.21,5.91,109.96.53,5.9,2.63,8.58c2.1,2.68,10.73,3.76,16.63,5.37,5.9,1.62,15.01,3.76,20.39,3.22,5.37-.54,10.73-1.62,11.26-6.44s-12.87-12.87-17.15-16.63c-4.28-3.76-12.35-11.82-12.35-13.41s-4.3-91.2-4.3-91.2l11.27-1.08s-1.6-47.75-2.63-56.86,2.14-7.51,2.14-7.51c0,0,4.3,12.33,4.83,16.09s-2.14,6.44,1.08,7.51c3.22,1.08,6.96-6.44,6.96-13.41s-5.9-29.5-8.04-39.69c-2.14-10.19-4.36-24.67-4.36-28.42s2.15-11.82,2.15-11.82l6.96-3.76s-6.96-26.82-8.04-33.8c-1.08-6.97-1.08-10.19-3.22-13.95-2.14-3.76-11.82-11.27-11.82-11.27,0,0,.54-28.42,0-42.91-.54-14.49-2.63-26.27-11.82-31.65-7.58-4.47-17.56-3.93-25.59.39Z"/>
        <path class="cls-4" d="M720.63,337.86c-2.7,1.45-5.13,3.36-7.18,5.63-10.64,11.94-5.78,32.57-5.78,47.1,0,6.97,1.6,14.45,0,17.71-1.6,3.26-10.73,8.58-14.45,10.73-3.72,2.15-4.3,2.63-6.97,13.95-2.68,11.32-10.27,33.26-10.27,33.26l6.97,5.36s-3.22,21.46-3.76,26.27c-.54,4.81,9.65,22.54,10.73,27.36s-6.97,16.63-3.22,39.17c3.76,22.54,1.06,47.21,1.06,47.21h11.82s2.63,62.22,2.63,73.56,1.08,25.21.54,30.04l-.54,4.83s-10.19,9.65-13.95,13.94c-3.76,4.28-8.04,5.37-4.82,9.19,3.22,3.82,9.12,0,18.23-1.62s11.82-2.63,16.63-6.44c4.81-3.81,9.67-5.9,10.73-11.27,1.06-5.37-2.63-32.72-2.63-39.15s-1.62-72.95-1.62-72.95l12.89-1.08s5.9,106.21,5.9,109.96.54,5.91,2.63,8.59c2.09,2.68,10.73,3.76,16.63,5.36,5.9,1.6,15.03,3.76,20.39,3.22,5.36-.54,10.73-1.6,11.27-6.44.54-4.83-12.87-12.87-17.17-16.63-4.3-3.76-12.33-11.82-12.33-13.41s-4.23-91.37-4.23-91.37l11.26-1.08s-1.6-47.73-2.63-56.86c-1.02-9.13,2.15-7.51,2.15-7.51,0,0,4.28,12.35,4.82,16.1.54,3.76-2.14,6.44,1.08,7.5,3.22,1.06,6.97-6.44,6.97-13.41s-5.9-29.5-8.05-39.69c-2.15-10.19-4.3-24.67-4.3-28.42s2.15-11.82,2.15-11.82l6.97-3.76s-6.97-26.82-8.05-33.8c-1.08-6.97-1.08-10.19-3.22-13.95-2.14-3.76-11.82-11.26-11.82-11.26,0,0,.53-28.44,0-42.92-.53-14.49-2.63-26.27-11.82-31.65-7.64-4.41-17.71-3.87-25.65.45Z"/>
        <path class="cls-4" d="M896.53,318.48s-10.61,0-13.79,6.37c-3.18,6.37-4.77,7.95-4.77,13.78.03,3.74.38,7.46,1.05,11.14-1.25,2.29-1.97,4.82-2.11,7.42,0,3.72,1.59,4.78,2.11,6.37,1.77,5.27,3.89,10.41,6.37,15.38l3.7,7.42s3.19,2.11.54,3.7c-2.65,1.59-7.42.54-7.96,4.24-.54,3.7-2.63,3.18-4.77,6.37-2.14,3.19,3.72,1.05,3.72,1.05,0,0-5.85,5.84-11.14,7.43-5.29,1.59-9.02,1.05-11.66,5.25-2.64,4.2-15.38,44.01-18.56,55.68-3.18,11.66-4.24,11.14,1.59,14.32,5.83,3.18,21.74,3.18,21.74,3.18v30.21c0,16.43,0,57.79,5.25,79.01,5.25,21.21,5.25,69.46,5.83,75.83.58,6.37-2.13,27.58-2.13,31.81s-3.18,13.78-4.77,15.91c-1.59,2.13-13.79,8.49-13.79,13.25s1.59,5.25,9.02,5.83c7.43.58,21.74-4.24,28.1-7.88,6.36-3.64,14.86-2.63,16.44-9.02,1.59-6.4,1.05-14.32,1.05-24.96s-3.7-46.67-3.7-54.09-2.13-58.86-1.06-66.8c1.06-7.95,2.13-31.83,2.13-31.83,0,0,12.19,110.33,14.84,130.44,2.65,20.11.53,44.01,2.63,48.26,2.1,4.24,8.49,7.42,15.91,9.55s21.34,8.52,26.6,6.4,7.96-9.01,4.78-13.78c-3.18-4.77-18.03-25.98-18.56-28.63-.53-2.65-4.78-79.54-4.78-103.41s-7.42-63.05-7.42-68.39-1.06-41.36-1.06-41.36c0,0,15.92-3.18,18.03-6.9,2.11-3.72,2.63-9.55,2.63-12.2s-12.2-48.24-14.84-52.54c-2.64-4.3-11.68-9.55-16.44-11.66l-4.77-2.13c-.47-2.53-1.57-4.9-3.18-6.9-1.79-2.1-3.75-4.05-5.85-5.83,0,0,6.9-7.95,7.43-11.13.36-2.99.53-6.01.53-9.02,2.55-2.96,4.05-6.69,4.24-10.6.14-4.62-.95-9.2-3.18-13.25,0,0,.53-10.07-1.59-13.79-2.11-3.72-8.51-9.5-8.51-9.5,0,0-11.62-2.11-15.87,0Z"/>
        <path class="cls-4" d="M803.38,331.19s-5.15-4.64-10.3-5.66c-5.15-1.02-11.34,1.54-17.51,6.17s-7.21,8.75-7.21,11.82v8.75c-1.47,1.76-2.38,3.91-2.63,6.19-.12,3.05.6,6.07,2.06,8.75l1.54,2.63s2.06,8.76,5.16,11.82c3.1,3.06,5.66,5.15,5.66,5.15v6.17s-3.09-2.63-4.64,1.04-3.09,8.24-3.09,8.24c0,0-22.33,1.22-22.84,8.94-.51,7.72-7.54,27.58-9.09,33.28s-11.34,36.04-11.34,42.74,15.46,22.66,18.03,29.36c1.84,4.57,3.94,9.04,6.27,13.38,0,0,1.55,61.27,1.55,70.55s-.51,35.02-.51,53.04,1.02,44.8,1.02,46.87-2.63,11.32-2.63,11.32c-2.47,3.97-5.22,7.76-8.24,11.34-4.12,4.64-6.7,8.24-6.7,12.36s8.24,4.64,14.45,4.64,21.62-9.79,25.23-11.34,5.15-2.06,6.69-7.21,1.55-7.21,1.55-22.13.51-65.92.51-76.18.51-48.4.51-50.98,1.04-22.66,1.04-22.66c0,0,12.36,88.57,12.36,99.38s5.15,55.1,5.15,63.86,2.06,10.3,6.7,12.36c4.64,2.06,33.98,8.75,35.46,9.19,1.48.45,7.72-3.09,7.72-7.72s-8.76-9.77-14.93-19.05c-3.73-5.65-7.14-11.49-10.22-17.52,0,0-5.67-102.45-5.67-108.14s-.51-19.57-.51-19.57c0,0,11.82-20.08,10.82-27.81-1-7.72-2.06-10.81-.53-13.91,1.54-3.1,4.64-7.72,4.64-13.9s-1.02-21.12-1.02-29.87-4.64-56.14-6.19-60.25-7.21-7.72-10.81-9.27c-3.6-1.55-12.87-7.72-12.87-7.72,0,0,0-5.15-2.06-7.21-1.24-1.23-2.89-1.96-4.64-2.06v-5.66s7.72-2.06,8.24-7.72c.51-5.66,1.04-8.75,1.04-8.75,0,0,2.63,0,2.06-6.7s-2.06-9.27-3.1-10.81c-1.04-1.54,2.06-10.31-.51-14.45-1.3-2.26-3.29-4.05-5.69-5.08Z"/>
        <path class="cls-4" d="M946.18,332.18c-2.21,1.1-12.14,2.76-12.14,5.52.11,2.8-.26,5.6-1.1,8.27-1.1,3.86-4.97,8.27-3.86,12.15.71,2.37,1.83,4.59,3.31,6.57,0,0-6.57,7.17-6.07,11.03s4.97,6.57,4.97,6.57c.26,3.35.82,6.67,1.66,9.93,1.1,3.31.55,3.86,4.41,4.41,3.3.3,6.63.3,9.93,0l.55,5.52c-.97.29-1.87.78-2.63,1.45-.76.67-1.37,1.5-1.78,2.42-1.02,2.02-2.32,3.87-3.86,5.52,0,0-12.69,2.76-18.2,4.96-5.52,2.21-7.18,4.96-7.74,7.17s-21.02,54.63-21.51,56.28c-.5,1.65,9.38,16,9.38,16,0,0,3.86,17.08,4.41,25.39.72,7.26,1.82,14.47,3.31,21.61,0,0,4.41,64.57,6.57,80.02,2.15,15.45,3.31,67.87,3.31,70.63s1.1,9.39-.55,12.7c-1.66,3.31-3.94,9.38-7.18,13.79-3.24,4.41-7.72,8.27-7.17,14.34.55,6.07,8.27,5.52,15.46,3.86,6.97-1.56,13.2-5.45,17.65-11.03,4.12-5.21,7.13-11.22,8.83-17.65,1.75-6.06,1.75-13.78,1.75-18.23s3.31-27.03,2.76-36.41c-.55-9.38-.55-79.47-.55-79.47l3.86-7.17,7.17-.55s12.7,100.98,12.7,113.12,0,23.73.55,27.04c.46,4.95.64,9.92.55,14.89,0,3.31,5.52,10.51,10.51,11.58,4.99,1.08,14.89,10.51,22.62,10.51s12.7-.55,13.8-6.08c1.1-5.53.55-8.83-2.76-14.34-3.31-5.52-7.18-8.83-9.39-14.34s-4.41-5.52-4.41-8.27.55-11.05,0-16.01c-.55-4.96-2.76-7.17-2.76-12.69v-19.31c0-3.31-1.66-77.26-1.66-80.02v-16.55s6.07-11.05,9.93-18.22c3.5-6.99,6.61-14.17,9.31-21.5.55-1.66,2.21-7.17,2.21-9.38v-13.25l12.69-6.07s-12.14-36.42-14.89-45.25c-2.76-8.83-3.86-21.51-8.84-23.17-4.98-1.66-16-5.52-19.86-7.17-2.89-1.11-5.24-3.28-6.57-6.07-1.1-2.22,0-3.32-2.76-4.98-2.05-1.1-4.27-1.84-6.57-2.21l-3.31-8.83,4.96-13.24c3.35-4.43,5.06-9.89,4.85-15.45-.55-8.84-1.1-16.56-3.31-20.42s-8.27-7.17-14.91-8.83c-6.63-1.65-17.61-1.1-17.61-1.1Z"/>
        <path class="cls-4" d="M822.66,337.86c-2.7,1.45-5.13,3.36-7.18,5.63-10.64,11.94-5.79,32.57-5.79,47.1,0,6.97,1.62,14.45,0,17.71-1.62,3.26-10.73,8.58-14.45,10.73-3.72,2.15-4.28,2.63-6.96,13.95-2.68,11.32-10.19,33.26-10.19,33.26l6.96,5.36s-3.22,21.46-3.74,26.27c-.53,4.81,9.65,22.54,10.72,27.36s-6.97,16.63-3.22,39.17c3.76,22.54,1.08,47.21,1.08,47.21h11.82s2.63,62.22,2.63,73.56,1.06,25.21.54,30.04l-.54,4.83s-10.19,9.65-13.95,13.94c-3.76,4.28-8.05,5.37-4.83,9.19,3.22,3.82,9.19,0,18.24-1.62s11.82-2.63,16.63-6.44c4.81-3.81,9.65-5.9,10.73-11.27,1.08-5.37-2.63-32.72-2.63-39.15s-1.62-72.95-1.62-72.95l12.87-1.08s5.9,106.21,5.9,109.96.54,5.91,2.69,8.59c2.15,2.68,10.73,3.76,16.63,5.36,5.9,1.6,15.01,3.76,20.39,3.22,5.37-.54,10.73-1.6,11.26-6.44s-12.87-12.87-17.17-16.63c-4.3-3.76-12.33-11.82-12.33-13.41s-4.35-91.37-4.35-91.37l11.27-1.08s-1.6-47.73-2.63-56.86c-1.02-9.13,2.14-7.51,2.14-7.51,0,0,4.3,12.35,4.83,16.1.54,3.76-2.15,6.44,1.06,7.5,3.22,1.06,6.97-6.44,6.97-13.41s-5.9-29.5-8.04-39.69c-2.14-10.19-4.3-24.67-4.3-28.42s2.14-11.82,2.14-11.82l6.97-3.76s-6.97-26.82-8.04-33.8c-1.06-6.97-1.08-10.19-3.22-13.95-2.14-3.76-11.82-11.26-11.82-11.26,0,0,.54-28.44,0-42.92-.54-14.49-2.63-26.27-11.82-31.65-7.66-4.41-17.72-3.87-25.67.45Z"/>
        <path class="cls-4" d="M395.79,332.18c-2.21,1.1-12.14,2.76-12.14,5.52.11,2.8-.26,5.6-1.1,8.27-1.1,3.86-4.96,8.27-3.86,12.15.71,2.37,1.83,4.59,3.31,6.57,0,0-6.57,7.17-6.07,11.03s4.96,6.57,4.96,6.57c.26,3.35.82,6.67,1.65,9.93,1.1,3.31.55,3.86,4.41,4.41,3.3.3,6.63.3,9.93,0l.55,5.52c-.97.29-1.87.78-2.63,1.45-.76.67-1.37,1.5-1.78,2.42-1.01,2.02-2.31,3.87-3.86,5.52,0,0-12.69,2.76-18.2,4.96-5.52,2.21-7.17,4.96-7.72,7.17-.55,2.21-21.02,54.63-21.53,56.28-.51,1.65,9.39,16,9.39,16,0,0,3.86,17.08,4.41,25.39.72,7.26,1.82,14.47,3.31,21.61,0,0,4.41,64.57,6.57,80.02,2.15,15.45,3.31,67.87,3.31,70.63s1.1,9.39-.55,12.7c-1.65,3.31-3.86,9.38-7.17,13.79-3.31,4.41-7.72,8.27-7.17,14.34.55,6.07,8.27,5.52,15.45,3.86,6.97-1.56,13.2-5.45,17.65-11.03,4.13-5.21,7.13-11.22,8.83-17.65,1.77-6.06,1.77-13.78,1.77-18.23s3.32-27.03,2.77-36.41c-.55-9.38-.55-79.47-.55-79.47l3.86-7.17,7.17-.55s12.62,101.01,12.62,113.09,0,23.73.55,27.04c.46,4.95.64,9.92.55,14.89,0,3.31,5.52,10.51,10.51,11.58,4.99,1.08,14.91,10.51,22.63,10.51s12.69-.55,13.79-6.08.55-8.83-2.76-14.34c-3.31-5.52-7.17-8.83-9.38-14.34-2.21-5.52-4.41-5.52-4.41-8.28s.55-11.05,0-16.01c-.55-4.96-2.76-7.17-2.76-12.69v-19.31c0-3.31-1.66-77.26-1.66-80.02v-16.55s6.07-11.05,9.93-18.22c3.51-6.98,6.64-14.15,9.37-21.48.55-1.66,2.21-7.17,2.21-9.38v-13.25l12.69-6.07s-12.14-36.42-14.89-45.25c-2.76-8.83-3.86-21.51-8.83-23.17s-16.01-5.52-19.87-7.17c-2.89-1.11-5.24-3.28-6.57-6.07-1.1-2.22,0-3.32-2.76-4.98-2.05-1.1-4.27-1.84-6.57-2.21l-3.31-8.83,4.96-13.24c3.35-4.43,5.06-9.89,4.85-15.45-.55-8.84-1.1-16.56-3.31-20.42-2.21-3.86-8.27-7.17-14.89-8.83-6.62-1.65-17.67-1.1-17.67-1.1Z"/>
        <path class="cls-6" d="M924.48,951.5H170.2L471.91-2.69h150.87l301.71,954.19Z"/>
        <path class="cls-6" d="M547.34,1047.34c208.29,0,377.14-40.14,377.14-89.65s-168.85-89.65-377.14-89.65-377.14,40.14-377.14,89.65,168.85,89.65,377.14,89.65Z"/>
        <path class="cls-5" d="M558.82,987.06c68.23,0,123.55-13.15,123.55-29.37s-55.31-29.37-123.55-29.37-123.55,13.15-123.55,29.37,55.31,29.37,123.55,29.37Z"/>
        <path class="cls-20" d="M475.3,516.33l5.85,5.83-9.09,44.12-14.26-23.68,17.51-26.27Z"/>
        <path class="cls-31" d="M639.56,917.54s30.54,29.58,42.03,36.32c11.49,6.74,19.24,9.63,8.66,16.35-10.59,6.73-24.96,7.7-40.4,3.85-15.45-3.85-19.23-12.5-25.97-20.2-6.74-7.7-9.63-2.89-9.63,0v2.85l-20.2-6.74s.49-6.25-2.15-18.03c-2.64-11.78,10.82-14.67,21.4-17.56,10.57-2.89,26.27,3.17,26.27,3.17Z"/>
        <path class="cls-31" d="M483.82,918.61s-30,29.05-41.34,35.66c-11.34,6.61-18.9,9.46-8.5,16.06,10.4,6.61,24.56,7.57,39.68,3.78,15.12-3.78,18.9-12.28,25.52-19.85,6.62-7.57,9.44-2.82,9.44,0v2.84l19.85-6.57s-.47-6.15,2.13-17.72c2.6-11.57-10.64-14.45-21.02-17.25-10.38-2.8-25.77,3.03-25.77,3.03Z"/>
        <path class="cls-10" d="M481,487.71l-2.84,19.78s-13.46,65.91-13.46,86.47,10.63,85.05,14.88,106.31c4.26,21.27,7.08,28.34,4.24,48.9s-2.11,62.36,2.13,87.18c4.24,24.81,1.42,58.82.71,61.65-1.24,3.9-1.96,7.95-2.13,12.04.02,2.85-.22,5.7-.71,8.51,0,0,4.96.7,19.14,6.37,8.93,3.51,18.2,6.13,27.65,7.8,0,0,6.37-17.72,8.5-31.89,2.13-14.17-2.13-33.31-1.42-49.61.71-16.3,5.62-46.73,4.31-72.95-1.31-26.22-2.13-43.23-1.42-55.28.71-12.06,4.96-112.68,4.96-112.68l7.79-4.95s21.27,97.8,22.68,121.89c1.42,24.09-4.96,31.18,1.42,63.05,6.38,31.87,9.92,77.97,9.92,91.43s-4.95,19.85-3.55,27.58c1.41,7.74,7.8,24.81,7.8,24.81l48.01-16.67s-2.63-23.03-4.78-32.23c-2.15-9.21-2.21-27.57-2.21-55.93s1.42-97.09,2.13-128.27c.71-31.18-3.53-97.09-9.92-135.37l-9.89-59.47-1.42-20.56-132.53,2.09Z"/>
        <path class="cls-22" d="M591.79,512.04v-16.06l8.5-3.78,1.89,18.9c4.39-1.76,8.62-3.88,12.66-6.34l-1.31-19.16-132.53,2.13-2.56,17.9,21.69,6.42v-16.06l8.51,1.89.95,16.06s18.69,6.57,26.82,6.57,22.33,2.82,37.43-.95c15.11-3.77,17.96-7.51,17.96-7.51Z"/>
        <path class="cls-11" d="M536.4,520.55c6.34,0,16.35,1.68,27.58.66v-17.65h-27.58v17Z"/>
        <path class="cls-28" d="M635.73,308s42.03,141.67,42.53,144.98,4.72,18.9-.47,28.34c-5.19,9.44-15.59,13.7-22.68,10.39-7.09-3.31-36.38-87.87-36.38-87.87,0,0,14.66-90.12,17.01-95.84Z"/>
        <path class="cls-26" d="M618.72,403.85s18.97,54.72,30.07,77.84l7.97-37.24-9.19,18.39-16.25-60.88,2.82-59.54-7.08,51.03,3.24-57.79c-5.11,28.37-11.58,68.2-11.58,68.2Z"/>
        <path class="cls-28" d="M510.08,289.97l-47.89,17.51s16.98,152.73,16.47,159.4c-.51,6.67-4.11,7.21-3.6,14.45.51,7.24,3.09,9.79,6.17,12.36,3.09,2.57,30.13,9.5,54.84,10.51,24.71,1.01,32.72-.22,51.76-5.37,19.05-5.15,28.9-9.27,27.29-17.51-1.6-8.24-3.6-23.17-3.6-23.17l24.19-150.13-44.8-13.4s-16.47-4.64-27.29-4.64-41.19-4.12-53.55-.01Z"/>
        <path class="cls-26" d="M515.73,493.93s46.64-9.88,64.2-27.99c17.56-18.11,28.54-39.51,21.96-27.44-6.58,12.07-16.47,43.9-36.25,51.58-19.78,7.68-49.91,3.85-49.91,3.85Z"/>
        <path class="cls-7" d="M521.02,273.89l56.91.2-10.35,23.08-39,.39-7.57-23.67Z"/>
        <path class="cls-20" d="M523.98,247.23s.53,24.72,1.55,30.91c1.02,6.19,14.45,22.15,14.45,22.15l9.27,22.13,7.2-24.19,17.51-17.51,1.02-33.48h-51Z"/>
        <path class="cls-1" d="M542.65,254.29s7.57.33,10.85.33c2.28-.1,4.51-.67,6.57-1.65-2.31,2.22-5.35,3.51-8.55,3.63-3.13.27-6.26-.54-8.87-2.3Z"/>
        <path class="cls-26" d="M531.79,307.46s13.23,17.94,16.54,18.39c3.31.45,19.83-19.32,19.83-19.32l2.84,7.08-20.79,40.21,15.6,122.36-16.08,27.37-14.17-30.72,8.04-118.12-16.05-38.75,4.24-8.5Z"/>
        <g class="cls-23">
          <path class="cls-19" d="M556.43,298.22l-7.21,24.19,7.61-4.08,14.88,17.72.71-14.88-15.99-22.95Z"/>
        </g>
        <path class="cls-9" d="M524.04,249.58l50.92,4.57s-26.64,71.73-50.92-4.57Z"/>
        <g class="cls-23">
          <path class="cls-19" d="M519.97,324.71l2.13,17.71,19.85-26.22,7.28,6.21-9.27-22.13-19.98,24.43Z"/>
        </g>
        <path class="cls-28" d="M520.98,273.88s-2.48,6.3-5.57,8.37c-3.09,2.06-8.98,10.3-8.98,10.3l8.25,48.41,21.62-33.99,3.61-6.69-18.93-26.4Z"/>
        <path class="cls-28" d="M556.45,298.22l18.53,40.72,18.53-44.29s-8.62-10.51-11.19-11.57c-2.57-1.06-4.37-8.94-4.37-8.94l-21.5,24.09Z"/>
        <path class="cls-28" d="M462.19,307.48s-64.36,74.16-82.75,91.94-24.1,19.14-21.97,29.76c2.13,10.63,16.06,26.7,24.58,28.11s86.93-92.84,86.93-92.84l-6.78-56.98Z"/>
        <path class="cls-26" d="M380.36,423.92l28.07,9.77c25.74-27.52,60.51-69.3,60.51-69.3l-3.13-26.81-3.94-17.84,4.96,38.97s-10.64-35.46-10.64-33.31,6.38,33.31,6.38,33.31l-54.56,69.46-27.66-4.26Z"/>
        <path class="cls-32" d="M392.88,422.75s69.69,59.29,71.82,65.67c2.13,6.38,5.66,12.04,0,17.72-5.66,5.67-14.19,20.54-19.85,21.96-5.66,1.42-10.64-.71-15.59-6.37-4.95-5.66-66.15-73.48-68.98-79.91-2.84-6.44-6.38-14.17-.71-22.67"/>
        <path class="cls-27" d="M392.88,422.75s69.69,59.29,71.82,65.67c2.13,6.38,5.66,12.04,0,17.72-5.66,5.67-14.19,20.54-19.85,21.96-5.66,1.42-10.64-.71-15.59-6.37-4.95-5.66-66.15-73.48-68.98-79.91-2.84-6.44-6.38-14.17-.71-22.67"/>
        <path class="cls-26" d="M464.92,502.71s-16.05,7.66-21.13,7.66-25.05-12.01-35.73-27.39c-10.68-15.38-41.85-45.84-38.22-48.74,3.63-2.9,13.06-6.57,5.79-6.57h-10.88c-2.26,0-2.76-4.86-3.94-8.38l-1.31-.13c-5.67,8.5-2.13,16.3.71,22.67,2.84,6.37,64.02,74.19,68.98,79.86s9.92,7.79,15.59,6.37c5.25-1.31,13.13-14.45,18.72-20.77l1.42-4.58Z"/>
        <path class="cls-26" d="M464.92,502.71l10.38,13.62-17.84,24.97-11.03-13.29,18.49-25.3Z"/>
        <path class="cls-20" d="M708.97,354.24s-2.36-25.99-.47-32.6,10.39-10.88,14.65-17.96c4.26-7.08,4.73-14.17,6.57-18.39,1.84-4.22,7.55.95,7.55,7.55s-2.84,11.82-4.26,15.59c-.87,1.93-1.04,4.11-.47,6.15,0,0,23.64-.95,30.72-.95s20.78-3.31,20.31,0c-.47,3.31,10.4,1.89,3.78,7.57-6.62,5.67-26.45,13.23-36.86,17.48-10.4,4.26-15.54,5.15-19.35,8.46-3.81,3.31-6.57,15.59-6.57,15.59l-15.6-8.5Z"/>
        <path class="cls-32" d="M651.79,447.78s18.39-25.51,25.05-43.46c6.66-17.96,12.28-33.07,17.96-34.96,5.67-1.89,31.65,9.92,33.07,14.17s-.95,13.23-5.25,24.56c-4.31,11.34-33.07,63.32-40.17,75.13-7.09,11.81-17.94,18.39-24.56,13.7-6.62-4.69-13.7-14.17-13.7-23.64"/>
        <path class="cls-27" d="M651.79,447.78s18.39-25.51,25.05-43.46c6.66-17.96,12.28-33.07,17.96-34.96,5.67-1.89,31.65,9.92,33.07,14.17s-.95,13.23-5.25,24.56c-4.31,11.34-33.07,63.32-40.17,75.13-7.09,11.81-17.94,18.39-24.56,13.7-6.62-4.69-13.7-14.17-13.7-23.64"/>
        <path class="cls-26" d="M695.39,387.84c-6.57,10.88-18.13,55.17-23.2,67.43-5.07,12.27-19.57,36.25-18.85,26.82.72-9.43,7.97-22.47,2.17-18.13-5.08,4.13-8.63,9.84-10.1,16.22,2.39,6.73,6.76,12.59,12.53,16.8,6.57,4.73,17.48-1.89,24.56-13.7,5.25-8.77,22.54-39.72,32.84-59.7l.39-1.62s10.84-23.26,3.59-32.69-17.4-12.32-23.93-1.44Z"/>
        <path class="cls-28" d="M699.98,370.3l4.73-17.48,23.64,8.97-3.78,18.39s-19.86-5.62-24.59-9.88Z"/>
        <path class="cls-18" d="M735.89,342.42s21.74-4.24,23.64-9.44c1.9-5.2,8.5-29.76,6.13-33.55-2.36-3.78-16.06,29.76-16.06,29.76,0,0-25.98-.95-29.29,3.78s-7.08,9.44-3.31,13.23c3.77,3.78,8.51.47,8.51.47"/>
        <path class="cls-18" d="M769.44,328.24s10.88-28.82,9.46-32.13c-1.42-3.31-5.25,3.31-8.04,8.04-2.78,4.73-5.67,18.9-8.5,23.14-2.82,4.24-3.78,6.15,0,6.15s7.08-5.2,7.08-5.2Z"/>
        <path class="cls-16" d="M542.65,522.44l2.84,68.97,15.12-18.9-1.89-50.07h-16.06Z"/>
        <path class="cls-16" d="M554.94,600.87l37.33-27.89-28.34,26.45s25.98-8.98,22.2-8.04-31.65,17.01-31.65,17.01l2.84-6.13-2.36-1.41Z"/>
        <path class="cls-16" d="M537.69,851.29c.71-16.3,5.67-46.79,4.26-73-.75-13.84-1.31-25.1-1.55-34.43-.92,7.07-2.22,14.99-4.06,23.83-9.26,44.19-21.59,73.44-21.59,73.44,0,0-12.33-57.56-12.33-41.11s8.22,49.91,6.17,49.91c-1.18,0-14.59-24.84-25.89-46.13.47,10.93,1.55,21.82,3.26,32.63,4.26,24.8,1.42,58.82.71,61.65-1.24,3.9-1.96,7.95-2.13,12.04.02,2.85-.22,5.7-.71,8.51,0,0,4.96.7,19.14,6.37,8.93,3.51,18.2,6.13,27.65,7.8,0,0,6.37-17.72,8.5-31.89,2.13-14.17-2.13-33.32-1.42-49.62Z"/>
        <path class="cls-16" d="M634.78,885.3c-2.13-9.19-2.13-27.58-2.13-55.99,0-18.53.62-54.33,1.23-85.61-5.04,20.95-17.55,73.25-22.01,94.39-5.65,26.72,5.65-49.33-2.05-29.29-7.7,20.04-8.22,28.78-12.33,40.07-2.48,6.8-8.84-3.85-13.53-13.44,2.18,20.27,3.34,38.63,3.34,46.33,0,13.46-4.95,19.85-3.55,27.58,1.41,7.74,7.8,24.81,7.8,24.81l48.01-16.67s-2.65-22.97-4.78-32.18Z"/>
        <path d="M649.37,930.91s-12.58,4.85-11.62,9.19c.96,4.35,18.39,15.5,24.69,16.94,6.3,1.44,13.07,1.46,12.1-3.39-.97-4.85-25.17-22.75-25.17-22.75Z"/>
        <path d="M645.99,928.49l-11.62,6.29-11.13-8.71s9.19-4.85,12.58-5.82c3.39-.97,5.81,1.94,10.17,8.24Z"/>
        <path d="M469.76,934.3s-18.39,16.46-22.26,19.36c-3.87,2.9-2.43,6.78,8.22,6.29,10.65-.49,21.79-7.74,26.62-11.61,4.83-3.87,5.81-7.26,5.81-7.26l-18.39-6.78Z"/>
        <path d="M472.19,931.88l19.37,6.78s12.1-7.75,10.17-10.17c-1.93-2.42-10.17-4.85-15.01-4.85s-14.53,8.24-14.53,8.24Z"/>
        <path class="cls-30" d="M537.02,520.63c6.36.09,16.08,1.63,26.99.64v-13.13l-26.99,12.49Z"/>
        <path class="cls-20" d="M506.72,227.08c4.93-6.67,16.09,4.19,16.09,4.19,0,0,6.92,8.1-1.14,17.89-4.03,4.9-8.7,1.2-11.82-4.62-3.13-5.82-6.63-12.7-3.13-17.46Z"/>
        <path class="cls-24" d="M513.8,245.2c.49.6,1.12,1.07,1.84,1.37.72.3,1.5.41,2.27.33.36-.11.67-.35.87-.66.21-.32.3-.69.25-1.07-.46-1.44-5.08-4.02-3.94-8.06,1.14-4.05-4.02-7.99-5.63-5.74-1.25,1.75.28,9.73,4.33,13.84Z"/>
        <path class="cls-20" d="M594.31,227.08c-4.91-6.67-16.08,4.19-16.08,4.19,0,0-6.94,8.1,1.14,17.89,4.03,4.9,8.7,1.2,11.82-4.62,3.13-5.82,6.62-12.7,3.11-17.46Z"/>
        <path class="cls-24" d="M587.23,245.2c-.49.6-1.12,1.07-1.83,1.37-.72.3-1.49.41-2.26.33-.36-.12-.67-.35-.88-.67-.21-.32-.3-.69-.27-1.07.47-1.44,5.08-4.02,3.94-8.06-1.14-4.05,4.02-7.99,5.63-5.74,1.25,1.75-.28,9.73-4.33,13.84Z"/>
        <path class="cls-20" d="M586.96,195.45c-.97-5.46-4.7-10.07-9.43-13.84-7.63-6.14-17.13-9.49-26.93-9.49s-19.3,3.35-26.93,9.49c-4.73,3.77-8.46,8.38-9.43,13.84,0,0-2.31,42.89,8.38,59.33,8.29,12.74,18.73,19.7,27.95,19.7s19.7-6.91,27.95-19.7c10.76-16.44,8.43-59.33,8.43-59.33Z"/>
        <path class="cls-25" d="M517.97,229.9c-1.18-18.76.83-32.69,1.92-34.36,5.47-4.39,9.75-10.08,12.45-16.55,0,0,15.42,7.47,39.84,4.48,0,0,4.53,6.4,8.64,12.98,2,3.18,2.85,21.5,2.3,33.4-.04.86.1,1.72.42,2.51s.81,1.51,1.44,2.1l.8.72c3.01-6.09,5.99-31.75,4.47-40.23-4.3-23.92-21.58-26.44-38.79-26.44-7.18.04-14.26,1.66-20.74,4.74-1.31-.39-3.32-.85-3.3-1.12-9.19.62-13.91,13.7-16.63,22.82-2.72,9.12,1.46,34.15,4.47,40.23.89-.55,1.61-1.34,2.08-2.27.48-.93.69-1.97.62-3.01Z"/>
        <path class="cls-33" d="M527.92,181.66c.87.38,1.75.78,2.63,1.18.69-1.25,1.32-2.53,1.87-3.85,0,0,15.42,7.47,39.84,4.48,0,0,3.85,5.42,7.67,11.43,3.33-.99,6.49-2.48,9.38-4.41-5.56-19.77-21.7-21.97-37.76-21.97-7.18.04-14.26,1.66-20.74,4.74-1.31-.39-3.32-.85-3.3-1.12-2.77.26-5.34,1.54-7.21,3.59l.08.11c2.01,2.53,4.6,4.53,7.55,5.83Z"/>
        <path class="cls-25" d="M591.04,167.55c0,8.39-13.79,4.86-31.83-5.25-17.67-9.97-26.44-1.31-30.01,4.41.73-4.04,2.13-7.92,4.14-11.49-9.19,4.31-8.54,11.82-7.32,15.89-3.27-.66-8.14-.83-11.94,2.56,0,0,9.34-1.46,12.78,1.48.43.38,1.88,1.06,2.05,1.21,9.67,10.64,19.22,15.76,39.12,14.37,10.99-.8,14.66-2.08,19.89-7.66,6.2-6.69,3.13-15.53,3.13-15.53Z"/>
        <path class="cls-33" d="M568.03,190.68c10.36-.75,14.21-1.93,18.99-6.74-7.58.36-15-2.28-20.65-7.34-.18,2.75,1.18,6.4,4.85,10.6-8.79-1.46-16.59-4.2-23.91-10.06,1.47,2.93,2.96,7.78,4.43,9.19-4.54,0-16.63-5.25-19.35-6.57,8.62,8.31,18.11,12.18,35.63,10.92Z"/>
        <path class="cls-2" d="M560.39,199.75s10.43,1.31,12.71,2.89c2.29,1.58,6.79,6.78,6.15,8.31-.64,1.54-8.21-3.81-9.26-3.81s-10.94-1.38-11.45-2.9c-.67-1.77.04-4.81,1.85-4.49Z"/>
        <path class="cls-2" d="M539.37,200.02s-10.51,1.06-12.79,2.52c-2.29,1.46-6.91,6.57-6.29,8.12.62,1.55,8.29-3.56,9.34-3.53,1.05.03,10.99-1.08,11.53-2.63.56-1.73-.09-4.75-1.79-4.48Z"/>
        <path class="cls-33" d="M517.65,215.6c-2.39-.09-4.75-.53-7.01-1.31,1.04,8.84,3.01,17.61,4.64,20.9.87-.56,1.57-1.34,2.03-2.27.46-.92.67-1.95.6-2.99-.25-5.24-.33-10.09-.25-14.33Z"/>
        <path class="cls-33" d="M583.19,215.97c.14,4.79.13,9.72-.07,13.88-.04.86.1,1.72.42,2.51.32.8.81,1.51,1.44,2.1l.8.72c1.69-3.43,3.38-13.04,4.26-22.33-2.08,1.44-4.4,2.49-6.86,3.11Z"/>
        <path class="cls-13" d="M534.12,245.61s18.07,6.46,29.99-1.72c0,0-.92,14.38-14.2,15.05-8.87.45-14.12-6.38-15.79-13.33Z"/>
        <path class="cls-12" d="M548.42,253.86c-5.92,0-8.49,1.56-8.59,1.62,2.57,2.21,5.84,3.45,9.23,3.5,3.39.05,6.69-1.1,9.33-3.25-3.15-1.32-6.55-1.95-9.97-1.87Z"/>
        <path class="cls-29" d="M536.2,246.26c.22.87.56,1.97.76,2.63.04.13.12.25.21.35.09.1.21.18.34.23,11.51,4.47,19.07,2.21,23.09-.53.15-.1.27-.24.33-.41.47-1.12.87-2.27,1.2-3.44-9.25,4.96-21.15,2.48-25.93,1.17Z"/>
        <path class="cls-11" d="M556.29,221.63c1.1-1.08,2.38-1.97,3.77-2.63,1.89-.88,4-1.19,6.07-.88,1.89.06,3.69.81,5.07,2.1.59.7,1.31,1.29,2.11,1.72-1.32.79-2.72,1.44-4.18,1.94-4.47.92-8.62-.83-13.04-1.9h.62"/>
        <path class="cls-14" d="M571.29,221.73c-1.38-1.29-3.18-2.04-5.07-2.11-2.07-.3-4.17.01-6.07.89-.96.48-1.87,1.04-2.72,1.69l-1.31-.34h.32l-.6-.14c1.27-1.15,2.71-2.1,4.27-2.82,1.89-.88,3.99-1.19,6.06-.88,1.89.06,3.69.81,5.07,2.1.59.7,1.31,1.28,2.11,1.72-.38.18-.81.42-1.31.67l-.74-.77Z"/>
        <path class="cls-3" d="M569.36,221.02c0-.71-.21-1.4-.6-1.98s-.95-1.05-1.6-1.32c-.65-.27-1.37-.34-2.06-.2-.69.14-1.33.48-1.83.97-.5.5-.84,1.13-.98,1.83-.14.69-.07,1.41.2,2.06.27.65.72,1.21,1.31,1.61.59.39,1.28.61,1.98.61.47,0,.94-.09,1.37-.27.43-.18.83-.44,1.16-.77.33-.33.6-.73.78-1.16.18-.43.27-.9.27-1.37Z"/>
        <path class="cls-21" d="M568.1,221.88c-.11-.53-.41-1-.83-1.34-.42-.34-.95-.53-1.49-.53s-1.07.19-1.49.53c-.42.34-.71.81-.82,1.34.11.53.4,1,.82,1.34.42.34.95.53,1.49.53s1.07-.19,1.49-.53c.42-.34.71-.81.83-1.34Z"/>
        <path d="M567.22,221.02c0-.28-.08-.56-.24-.8-.15-.24-.38-.42-.64-.53s-.55-.14-.83-.09c-.28.05-.53.19-.74.39-.2.2-.34.45-.4.73-.06.28-.03.57.08.83.11.26.29.49.53.64.24.16.51.24.8.24.38,0,.74-.15,1.01-.42.27-.27.42-.63.42-1Z"/>
        <path class="cls-11" d="M565.23,220.33c0-.19-.08-.38-.21-.51-.14-.14-.32-.21-.51-.21s-.37.07-.5.21c-.13.13-.21.31-.21.5s.07.37.21.51c.13.14.31.21.5.22.19,0,.37-.07.51-.21.14-.13.21-.31.22-.5Z"/>
        <path class="cls-15" d="M556.29,221.63c1.71-1.29,3.56-2.39,5.52-3.27,0,0,5.88-.75,8.75,1.5.6.47,2.06,1.77,2.06,1.77l1.79-.17c-.54-1.27-1.49-2.34-2.69-3.02-2.29-1.62-10.11-1.44-10.11-1.44-2.07,1.46-4.06,3.02-5.96,4.68"/>
        <path class="cls-24" d="M572.61,221.63c-1.06.62-.83.72-2,1.14-1.94.76-4.02,1.05-6.09.85-2.22-.27-4.41-.71-6.57-1.31-.66-.2-1.79-.93-2.29-.68.13.34.59.47.93.59,2.78,1.21,5.72,2.04,8.72,2.48,1.62.15,3.26-.04,4.81-.55,1.67-.47,3.17-1.42,4.31-2.73"/>
        <path class="cls-11" d="M542.77,221.63c-1.1-1.08-2.38-1.97-3.78-2.63-1.89-.88-3.99-1.19-6.06-.88-1.89.06-3.69.81-5.07,2.1-.59.7-1.31,1.29-2.11,1.72,1.32.79,2.71,1.44,4.16,1.94,4.47.92,8.63-.83,13.06-1.9h-.62"/>
        <path class="cls-14" d="M527.77,221.73c1.38-1.29,3.18-2.04,5.07-2.11,2.06-.3,4.17.01,6.06.89.96.47,1.87,1.04,2.72,1.69l1.31-.34h-.3l.6-.14c-1.27-1.15-2.71-2.1-4.27-2.82-1.89-.88-3.99-1.19-6.06-.88-1.89.06-3.7.81-5.08,2.1-.58.7-1.3,1.29-2.1,1.72.38.18.81.42,1.31.67.21-.26.51-.53.74-.77Z"/>
        <path class="cls-3" d="M531.25,220.97c0-.71.21-1.4.6-1.98.39-.59.95-1.05,1.6-1.32.65-.27,1.37-.34,2.06-.2.69.14,1.33.48,1.83.97.5.5.84,1.13.98,1.83.14.69.07,1.41-.2,2.06-.27.65-.73,1.21-1.31,1.61-.59.39-1.28.61-1.98.61-.47,0-.94-.09-1.37-.27-.43-.18-.83-.44-1.16-.77-.33-.33-.6-.73-.78-1.16-.18-.43-.27-.9-.27-1.37Z"/>
        <path class="cls-21" d="M532.51,221.82c.11-.53.4-1,.82-1.34.42-.34.95-.53,1.49-.53s1.07.19,1.49.53c.42.34.71.81.83,1.34-.11.53-.4,1-.83,1.34-.42.34-.94.53-1.49.53s-1.07-.19-1.49-.53c-.42-.34-.71-.81-.82-1.34Z"/>
        <path d="M533.39,220.97c0-.28.08-.56.24-.8.16-.24.38-.42.64-.53.26-.11.55-.14.83-.08.28.06.53.19.73.39.2.2.34.46.39.73.06.28.03.57-.08.83-.11.26-.29.49-.53.64-.24.16-.51.24-.79.24-.38,0-.74-.15-1.01-.42-.27-.27-.42-.63-.42-1.01Z"/>
        <path class="cls-11" d="M533.25,220.68c0-.19.08-.37.22-.5.14-.13.32-.21.51-.21s.37.07.5.21c.13.13.21.31.21.5s-.07.37-.21.51c-.13.13-.31.21-.5.22-.19,0-.37-.08-.51-.22-.14-.13-.21-.32-.22-.51Z"/>
        <path class="cls-15" d="M542.77,221.63c-1.72-1.29-3.56-2.38-5.52-3.27,0,0-5.88-.75-8.76,1.5-.6.47-2.06,1.77-2.06,1.77l-1.79-.17c.55-1.28,1.5-2.34,2.71-3.02,2.27-1.62,10.1-1.44,10.1-1.44,2.07,1.46,4.06,3.02,5.98,4.68"/>
        <path class="cls-24" d="M526.43,221.63c1.08.62.84.72,2,1.14,1.94.76,4.02,1.05,6.09.85,2.22-.27,4.41-.71,6.57-1.31.64-.2,1.79-.93,2.29-.68-.14.34-.6.47-.95.59-2.78,1.21-5.72,2.05-8.72,2.48-1.62.15-3.25-.04-4.79-.55-1.68-.47-3.18-1.42-4.32-2.73"/>
        <path class="cls-8" d="M540.38,236.77c0,1.09,4.47,2.3,9.09,2.3s8.49-1.48,8.49-2.63c0-.6-.83-1.14-3.11-1.16-1.5,0-3.53,2.39-5.62,2.38-2.09-.01-4.64-2.84-6.13-2.51-1.5.33-2.71,1.04-2.71,1.62Z"/>
      </g>
    </g>
  </g>
</svg>