<?xml version="1.0" encoding="UTF-8"?>
<svg width="512" height="512" id="Layer_1" xmlns="http://www.w3.org/2000/svg" viewBox="0 0 1080 1080">
  <defs>
    <style>
      .cls-1 {
        fill: #042b62;
      }

      .cls-2 {
        fill: #fefefe;
      }
    </style>
  </defs>
  <path class="cls-1" d="M234.8,962.54c-16.24-9.46-30.94-20.98-44.99-33.4-4.37-6.05-3.34-13.05-3.34-19.8-.04-153.48-.03-306.97-.03-460.45,0-95.5-.01-191,.03-286.5,0-6.42-.87-13.07,3.45-18.73,14.03-12.35,28.66-23.89,44.88-33.29,4.09,1.79,4.71,5.53,5.14,9.31.46,4.07.32,8.17.32,12.26,0,269.67.03,539.34-.12,809.01,0,7.4,2.74,15.96-5.33,21.58Z"/>
  <path class="cls-1" d="M355.69,1021.65c-13.52-3.38-26.36-8.59-38.91-14.56-4.25-5.69-3.33-12.35-3.34-18.76-.04-105.76-.03-211.52-.03-317.27,0-195.14,0-390.28.04-585.42,0-6.74-1.11-13.76,3.33-19.79,12.56-5.94,25.34-11.3,38.91-14.56,2.84,2.95,3.09,6.71,3.25,10.48.15,3.41.1,6.82.1,10.23,0,309.67.02,619.33-.08,929,0,6.96,1.91,14.43-3.27,20.66Z"/>
  <path class="cls-1" d="M234.8,962.54c2.5-4.01,2.11-8.48,2.11-12.91,0-275.45,0-550.9,0-826.35,0-4.42.39-8.9-2.11-12.9,14.04-10.57,29.22-19.23,44.98-26.92,2.87,2.62,2.94,6.08,2.53,9.49-2.02,16.66-1.04,33.39-1.05,50.08-.07,269.06-.05,538.11-.03,807.17,0,10.89-.67,21.83,2.09,32.57.68,2.66.71,5.44-1.34,7.75-16.57-7.89-32.42-17.01-47.17-27.98Z"/>
  <path class="cls-1" d="M281.97,990.52c-5.52-15.12-4.09-30.86-4.09-46.45-.02-277.41.03-554.81-.2-832.22,0-9.6,2.62-18.85,2.09-28.39,11.84-6.91,24.08-12.98,37.01-17.62,0,313.75,0,627.5,0,941.25-12.18-4.32-23.67-10.07-34.81-16.56Z"/>
  <path class="cls-1" d="M427.33,1039.99c-12.51-1.63-24.88-3.89-36.83-8.08-2.83-2.95-3.1-6.71-3.25-10.49-.19-4.77-.1-9.55-.1-14.33,0-313.86-.02-627.72.11-941.58,0-8.04-2.22-16.3,1.2-24.2,14.05-4.2,28.27-7.57,42.92-8.87,3.87,3.8,3.35,8.78,3.35,13.47.09,74.01.09,148.01.02,222.02,0,4.08.05,8.22-2.06,11.95-1.51,2.08-3.79,3.24-6.14,3.15-10.65-.38-12.71,5.48-12.57,14.83.42,28.26.15,56.53.15,84.8,0,3.75,0,7.5.94,11.15,1.08,4.92,5.19,7.6,8.26,11.02,3.16,3.52,6.27,7,5.5,12.28-.46,203.27-.07,406.53-.21,609.79,0,4.39.83,8.89-1.31,13.08Z"/>
  <path class="cls-1" d="M388.47,41.31c2.05,5.54,2.07,11.28,2.07,17.1-.04,324.5-.04,649-.03,973.5-11.94-2.29-23.66-5.32-34.81-10.26,0-323.46,0-646.91,0-970.37,10.6-4.4,21.51-7.77,32.78-9.96Z"/>
  <path class="cls-1" d="M189.92,143.67c-.04,164.66-.09,329.33-.11,493.99-.02,97.16,0,194.32.01,291.48-12.55-9.69-24.4-20.15-34.91-32.06-2.93-4.88-3.3-10.27-3.3-15.8,0-229.88,0-459.76,0-689.64,0-5.53.37-10.91,3.3-15.8,10.56-11.93,22.36-22.52,35.01-32.18Z"/>
  <path class="cls-1" d="M895.76,192.55c29.76,31.12,54.04,66.12,73.76,104.34-.92,7.13-.2,14.28-.21,21.41-.08,92.74-.03,185.47-.1,278.21,0,7.07,1.02,14.43-3.48,20.77-.78.92-1.77,1.61-2.9,2.04-5.9.57-8.33-4.47-12.04-7.47-5.93-6.31-12.2-12.3-18.28-18.47-1.64-1.68-3.29-3.36-4.98-4.99-5.96-6-11.95-11.97-17.99-17.9-5.66-5.88-11.46-11.62-17.37-17.26-3.21-3.38-6.15-6.84-3.99-12.01.79-6.47.78-12.95.78-19.43,0-103.68-.08-207.37.15-311.05.01-6.47-3.01-14.89,6.64-18.19Z"/>
  <path class="cls-1" d="M154.91,175.85c0,240.41,0,480.82,0,721.23-14.6-13.48-27.78-28.21-39.22-44.47-1.39-6.06-.92-12.21-.92-18.35-.03-200.59.12-401.18-.1-601.77,0-4.12.31-8.17,1.02-12.21,11.46-16.24,24.62-30.97,39.23-44.43Z"/>
  <path class="cls-1" d="M427.33,1039.99c-2.44-3.66-2.02-7.8-2.02-11.88,0-200.78,0-401.56,0-602.35,0-4.07-.45-8.22,1.99-11.89,6.11-1.66,7.71,4.35,11.48,6.69,6.36,6.54,12.79,13.01,19.44,19.27,3.94,4.09,8.47,7.89,7.44,14.53-.37,190.28-.02,380.55-.23,570.81,0,6.62,1.78,13.76-3.38,19.59-11.77-.22-23.32-1.98-34.73-4.78Z"/>
  <path class="cls-1" d="M895.76,192.55c-5.16,3.27-3.45,8.5-3.45,13.04-.07,109.36-.03,218.73-.18,328.09,0,3.81,2.75,9.32-3.98,10.98-4.63,1.3-6.36-2.84-9.22-4.88-3.46-3.6-6.99-7.12-10.6-10.57-6.23-6.31-12.46-12.62-18.91-18.73-4.34-4.36-8.71-8.68-13-13.07-3.3-3.38-5.43-7.03-3.46-11.93.74-6.48.69-12.96.69-19.45,0-100.97,0-201.94,0-302.91,0-4.77-.33-9.58.54-14.3.76-4.08,1.71-8.3,7.42-7.85,17.92,17.32,39.1,31.23,54.14,51.58Z"/>
  <path class="cls-1" d="M115.68,220.28c2.41,3.98,2.47,8.36,2.47,12.84-.03,202.21-.03,404.43,0,606.64,0,4.48-.02,8.87-2.46,12.84-12.57-14.05-23.11-29.52-32.35-45.91-1.84-4.91-1.32-10.05-1.32-15.11.02-170.09.02-340.18,0-510.26,0-5.06-.51-10.2,1.31-15.11,9.27-16.38,19.8-31.86,32.36-45.93Z"/>
  <path class="cls-1" d="M739.05,75.52c16.88,9.65,35.58,16.01,51.02,28.26,2.66,5.34,3.14,11.04,3.14,16.92-.04,101.34,0,202.68-.07,304.02,0,5.73.68,11.7-3.31,16.67-8.8,5.32-11.56-3.61-16.65-7.05-4.19-4.62-8.66-9-13.13-13.37-4.96-4.97-9.58-10.3-15.44-14.33-4.26-3.74-7.38-8.51-11.36-12.49-3.02-3.02-4.47-6.54-2.7-10.84.71-6.14.73-12.27.73-18.42-.01-89.02-.01-178.04,0-267.06,0-4.77-.32-9.58.5-14.3.71-4.07,1.57-8.33,7.28-8Z"/>
  <path class="cls-1" d="M462.06,1044.77c.04-193.37.07-386.74.14-580.11,0-4.72-.86-9.6,1.97-13.94,12.49,3.66,19.28,13.29,25.14,23.96,1.05,6.1.72,12.25.72,18.38.02,93.03.01,186.06.02,279.09,0,5.45-.29,10.91.75,16.29.68,4.69,4.29,7.38,7.22,10.54,3.41,3.67,7.23,7.13,6.64,12.88-.78,72.87.07,145.73-.6,218.58-.08,8.48,5.16,12.32,9.24,17.65-17.2.65-34.28-.47-51.25-3.3Z"/>
  <path class="cls-1" d="M961.89,618.38c4.93-4.06,4.09-9.71,4.09-15.09.01-98.33-.03-196.66.14-294.98,0-3.85-2.78-9.17,3.42-11.41,27.36,49.31,44.39,102.21,53.4,157.66,11.51,70.83,8.06,141.12-9.86,210.65-.41,1.6-1.25,3.09-1.89,4.63-5.1-1.47-7.58-6.14-11.36-9.23-2.2-2.28-4.45-4.52-6.76-6.7-6.68-6.7-13.35-13.39-20.11-20-3.52-5.29-11.22-7.61-11.06-15.52Z"/>
  <path class="cls-1" d="M83.33,266.21c1.56,5.25,2.09,10.57,2.09,16.07-.08,169.45-.08,338.89,0,508.34,0,5.51-.52,10.83-2.08,16.08-14.99-22.47-27.63-46.17-37.14-71.49,1.27-7.43,1.01-14.93,1.01-22.41.03-117.55.03-235.1,0-352.66,0-7.48.26-14.98-1.02-22.41,9.53-25.32,22.07-49.07,37.13-71.52Z"/>
  <path class="cls-1" d="M785.75,442.27c5.73-2.79,4.05-8.1,4.06-12.62.07-103.86.05-207.72.06-311.58,0-4.77.14-9.53.21-14.3,15.1,8.94,29.55,18.82,43.22,29.83,2.89,2.32,5.56,4.91,8.34,7.38-6.4,2.75-4.61,8.48-4.61,13.33-.07,108.03-.02,216.05-.17,324.08,0,3.81,2.76,9.33-3.97,10.99-.72.67-1.56.87-2.51.61-5.21-3.11-8.73-8.08-13.23-11.98-5.25-5.36-10.59-10.63-15.92-15.91-4.06-4.3-8.31-8.42-12.5-12.6-1.6-2.15-4.28-3.88-2.95-7.22Z"/>
  <path class="cls-1" d="M634.53,38.67c18.54,5.19,37.83,7.86,55.42,16.3.79,3.33.9,6.71.89,10.13-.15,85.39-.01,170.78-.13,256.17,0,6.34,1.24,13.03-3.07,18.71-4.94,3.08-8.35-.09-11.7-3.04-3.33-2.93-6.34-6.2-9.48-9.32-5.65-6.09-11.59-11.92-17.6-17.68-4.91-4.97-9.87-9.89-14.78-14.84-3.42-3.45-5.83-7.25-5.08-12.41-.26-76.9-.14-153.78.02-230.65.01-4.86-1.85-11.23,5.52-13.36Z"/>
  <path class="cls-1" d="M550.88,26.37c13.12-.35,26.07.92,38.86,3.9,1.41,6.4.67,12.88.68,19.32.04,71.09.05,142.18-.02,213.26,0,6.04,1,12.32-2.61,17.88-2.73,2.37-6.1,2.82-9.48,2.9-13.16.3-26.33.27-39.49.02-3.39-.07-6.76-.47-9.57-2.72-3.29-4.48-2.79-9.72-2.79-14.79-.07-74.68-.05-149.36-.03-224.03,0-1.71,0-3.41.1-5.11.66-10.57,1.53-11.47,12.21-11.39,4.05.03,8.18-.8,12.15.76Z"/>
  <path class="cls-1" d="M683.33,339.89c6.75-1.63,4-7.14,4.01-10.96.16-87.18.09-174.36.2-261.54,0-4.18-1.81-8.97,2.41-12.43,17.14,4.99,33.52,11.82,49.1,20.55-6.32,2.86-4.43,8.6-4.43,13.42-.08,95.69-.03,191.38-.18,287.07,0,3.81,2.75,9.32-3.98,10.97-.79.65-1.68.83-2.66.54-7.88-5.44-13.69-13.09-20.69-19.48-2.87-3.04-5.81-6-8.85-8.87-5.04-5.63-11.28-10.15-15.45-16.61-.28-.98-.12-1.88.52-2.68Z"/>
  <path class="cls-1" d="M513.31,1048.07c-11.95-.34-12.49-7.69-12.44-17.52.41-69.58.22-139.16.22-208.74,0-4.41-.52-8.91,2.03-12.92,7.02-.72,9.22,5.79,13.48,9.15,2.9,2.28,5.34,5.16,7.98,7.79,5.38,5.66,10.97,11.1,16.52,16.59,2.95,3.09,6,6.08,9.14,8.99,5.75,7.3,15.88,11.46,16.27,22.64-1.78,42.54-.31,85.08-.76,127.6-.09,8.17.37,16.36-.12,24.5-.46,7.68,1.26,14.01,7.84,18.5-19.92,3.45-40.01,4.14-60.17,3.42Z"/>
  <path class="cls-1" d="M431.46,280.49c-.02-82.68-.05-165.37-.07-248.05,16.86-3.98,33.93-6.11,51.26-6.04,3.83,3.82,3.28,8.8,3.29,13.48.1,75.96.1,151.92.02,227.89,0,4.41.15,8.91-2.53,12.83-10.38,5.94-21.71,2.53-32.6,3.04-6.5.31-13.56,1.78-19.37-3.14Z"/>
  <path class="cls-1" d="M46.19,337.73c4.88,2.06,4.35,6.36,4.35,10.45,0,125.52,0,251.04,0,376.56,0,4.09.54,8.39-4.34,10.46-15.63-33.09-25.31-68.1-31.89-103.88-18.17-98.82-8.54-195.02,28.99-288.32.74-1.85,1.92-3.52,2.9-5.27Z"/>
  <path class="cls-1" d="M482.66,280.49c0-84.7,0-169.39,0-254.09,22.74-2.79,45.48-2.95,68.22-.03q-21.11.63-21.11,21.96c0,77.39,0,154.77,0,232.16-15.7,5.24-31.4,5.25-47.1,0Z"/>
  <path class="cls-1" d="M587.09,280.49c0-79.28-.02-158.56.09-237.84,0-4.18-1.79-8.98,2.55-12.37,15.26,1.04,30.21,3.75,44.8,8.39-3.89,3.18-2.29,7.6-2.3,11.47-.09,74.96-.04,149.92-.14,224.88,0,3.9,1.56,8.25-1.99,11.62-2.13,1.12-3.81-.14-5.57-1.02-1.38-.7-2.81-1.26-4.32-1.64-7.3-1.1-14.62-.23-21.92-.57-3.92-.18-8.08.37-11.21-2.92Z"/>
  <path class="cls-1" d="M573.48,1044.65c-8.86.99-11.25-2.81-11.17-11.68.46-48.89.27-97.78.15-146.68-.01-5.49.56-10.78,2.11-16.01,2.03-1.15,3.56.04,5.13,1.06,5.75,5.26,11.05,11,16.72,16.35,6.35,6.54,12.89,12.88,19.37,19.31,2.36,2.63,3.93,5.59,4.04,9.2-2.31,37.64-.68,75.29-.96,112.94-.03,3.66,1.21,7.48-1.29,10.84-11.21,2.74-22.54,4.58-34.11,4.66Z"/>
  <path class="cls-1" d="M990.51,730.99c-3.56,11.53-8.8,22.31-14.74,32.78-11.52,5.76-21,15.38-32.21,20.61-15.64,7.3-29.54,16.72-43.62,26.21-5.06,2.75-10.28,5.18-15.39,7.86-1.8.86-3.64,1.57-5.65,1.78-11.46.31-20.02,7.94-29.55,12.59-9.51,4.64-20.91,6.44-28,15.55-16.48.26-29,11.75-44.23,15.61-5.18-.92-7.09-4.34-7.1-9.23,2-7.12,6.52-11.75,13.74-13.54,4.13-1.03,7.36-3.37,10.21-6.36,5.89-6.16,11.71-12.42,21.07-12.99.66-.04,1.44-.32,1.84-.81,10.49-12.71,28.51-15.63,38.14-29.43,17.96-5.17,32.27-16.93,47.62-26.74,4.2-2.68,7.64-5.63,12.86-3,2.28,1.15,5.13,1.25,6.67-.7,6.85-8.69,17.49-11.91,26.55-16.29,12.19-5.91,25.58-9.77,38.17-15.29,1.24-.54,2.61.4,3.62,1.4Z"/>
  <path class="cls-1" d="M607.59,1039.98c-.56-1.95-1.62-3.9-1.61-5.84.28-39.61-2.7-79.27,1.54-118.82.07-.67.05-1.36.07-2.03,5.86-1.11,7.67,4.4,11.32,6.9,5.36,5.58,10.89,10.99,16.4,16.43,4.16,4.34,8.43,8.56,12.78,12.73,2.47,2.62,5.33,4.96,6.3,8.68.24,1.11.31,2.22.26,3.36-1.98,18.51-.63,37.07-.95,55.6-.08,4.29,2.15,7.7,3.84,11.33-16.2,5.8-32.9,9.47-49.93,11.68Z"/>
  <path class="cls-1" d="M942.31,821.39c-11.65,18.18-24.38,35.52-39.47,51.04-12.79,2.36-24.03,8.16-35.22,14.59-7.11,4.08-15.85,3.71-23.69,7.79-8.31,4.31-16.44,8.89-24.46,13.71-6.98-1.78-12.39.14-18.13,4.92-6.06,5.05-14.25,7.15-20.7,12.25-4.29,3.39-8.25.96-10.34-3.98,1.24-11.4,4.76-16.08,15.03-18.44,4.24-.98,6.21-3.7,8.27-6.88,5.34-8.22,12.07-14.76,21.93-17.29,10.08-6.66,21.56-11.03,30.91-18.83,3.71-3.1,7.65-5.67,12.09-7.5,17.32-7.12,34.17-15.08,49.1-26.6,2.53-1.95,5.92-3.82,8.38-1.46,5.34,5.11,8.75,2.14,12.87-1.51,3.87-3.43,8.25-6.53,13.42-1.8Z"/>
  <path class="cls-1" d="M818.53,907.12c7.88-11.12,21.49-15.6,32.36-18.61,13.04-3.62,24.17-9.39,35.81-15.2,4.94-2.47,10.73-.74,16.14-.87-17.29,21.53-37.07,40.51-58.78,57.52-16.68-2.78-27.09,10.86-40.86,15.75-2.72.96-4.79,3.87-8,4.17-19.85,1.88-36.3,11.4-52.25,22.47-7.47,5.19-16.21,8.32-23.47,14.14-3.63,2.91-8.49,3.31-10-3.3,10.08-7.2,17.36-18.32,30.46-21.39,2.52-.59,4.2-3.36,6.02-5.4,1.36-1.53,2.22-3.99,3.88-4.67,13.78-5.61,22.79-18.46,36.57-23.91,3.02-1.19,5.43-2.79,7.21-5.36,6.08-8.75,13.88-14.65,24.91-15.35Z"/>
  <path class="cls-1" d="M942.31,821.39c-6.67-1.69-10.69,2.28-15,6.44-3.38,3.26-7.52,8.73-11.09-.55-1.42-3.67-4.62-1.69-6.67.22-11.06,10.32-24.77,16.08-38.14,22.44-10.05,4.78-19.57,10.11-28.89,16.49-7.72,5.28-15.91,12.16-26.02,14.06-1.22-1.16-1.38-2.57-1.02-4.12,4.82-7.47,11.15-13.72,18.28-18.69,7.87-5.49,15.3-11.04,20.03-19.58.65-1.17,1.72-2.82,2.81-2.77,12.04.57,16.41-9.71,23.39-16.27.88-1.65,2.41-2.01,4.1-2.05,6.05-.5,11.54-1.99,14.34-8.19,8.63-10.81,24.29-11.74,32.51-23.12,18.12-.84,26.58-21.42,44.85-21.94-9.29,20.29-20.53,39.45-33.46,57.62Z"/>
  <path class="cls-1" d="M990.51,730.99c-5.61-.75-9.72,3.18-13.88,5.52-6.59,3.69-12.46,8.19-20.6,6.87-.94-.15-2.48-.03-2.91.57-6.83,9.46-20.3,8.59-27.36,17.87-3.16,4.16-7.25,7.4-12.58,1.71-3.16-3.37-5.33.39-7.56,2.24-12.03,10.03-26.31,16.57-39.26,25.19-3.35,2.23-7.26,1.32-10.97,1.48-5.71-.68-8.85,3.54-12.81,6.44-6.01,4.38-9.14,2.65-10.69-5.49,13.35-4.71,20.59-19.59,35.82-21.38,2.91-.34,4.91-3.48,7.04-5.66,4.3-4.42,8.67-8.64,15.16-9.61.99-.15,2.19-.45,2.77-1.18,9.09-11.44,24.22-14.53,34.14-24.8,1.89-1.95,3.84-4.54,6.43-4.81,9.07-.92,13.87-7.92,19.95-13.13,13.39-6.16,27.84-9.74,40.82-16.94,2.91-1.61,6.35-2.54,9.3.45-2.88,12.07-7.23,23.6-12.82,34.66Z"/>
  <path class="cls-1" d="M709.99,982.89c3.4,6.57,7.33,2.71,10.76.29,16.03-11.33,32.08-22.51,50.76-29.31,7.6-2.77,13.62-10.56,23.37-6.13,2.42,1.1,4.77-2.16,6.57-4.15,3.32-3.68,6.89-6.51,12.3-5.82,2.96.38,5.47-1.07,7.07-3.36,6.36-9.09,14.07-10.41,23.24-4.46-41.3,35.25-87.16,62.8-138.05,81.91-6.87-4.07-13.44-8.41-15.07-17.1,5.03-6.07,8.7-14.33,19.04-11.87Z"/>
  <path class="cls-1" d="M1003.32,696.33c-2.76-.26-5.38.11-7.83,1.53-13.13,7.57-27.41,12.32-41.79,16.77-2.64,1.59-4.83,3.71-6.98,5.88-1.19,1.2-2.91,3.42-3.9,2.97-14.39-6.66-21.86,10.22-34.54,10.05-4.06-.05-7.81,1.75-10.82-2.27-.68-1.39-.87-2.85-.69-4.38,3.15-7.66,8.67-12.87,16.59-15.23,3.71-1.11,6.86-2.83,9.52-5.57.95-.97,1.83-2.24,3.03-2.69,13.24-5.05,24.71-12.89,36.21-21.04,4.8-3.41,10.86-5.35,14.95-10.03,6.35-7.27,16.21-7.96,23.75-12.97,4.27,2.7,7.78,6.15,10.37,10.5-1.43,9.19-3.95,18.05-7.86,26.51Z"/>
  <path class="cls-1" d="M691.55,995.18c4.82,5.56,9.64,11.12,14.46,16.69-15.56,7.25-31.68,12.88-48.49,16.43-3.39-.41-7.07-.52-6.86-5.42.91-21.51-2.32-43.15,1.98-64.55,6.58-.75,8.85,5.15,12.72,8.45,3.84,3.27,7.22,7.07,10.83,10.62,4.9,6.12,12.24,10.14,15.37,17.79Z"/>
  <path class="cls-2" d="M587.09,280.49c12.31,1.89,24.87-1.5,37.11,1.79,2.71,5.36,2.67,11.13,2.68,16.94.07,37.4-.26,74.81.17,112.21-.45,49.12-.08,98.23-.16,147.35-.07,32.16-.03,64.32,0,96.48-.1,42.04.09,84.07-.09,126.11-.05,11.5-1.29,12.66-12.48,14.03-15.27.36-30.54.56-45.81.05-21.73.59-43.47.17-65.2.3-5.18.03-10.18-.48-14.69-3.3-3.48-3.4-1.89-7.75-1.89-11.64-.09-99.49-.07-198.99-.08-298.48,0-3.74-.22-7.48-.34-11.22-3.5-7-2.6-14.54-2.7-21.95-.17-12.19.24-24.38.26-36.57,0-3.66.72-7.55-2.5-10.43-7.21-3.7-14.96-1.05-22.39-1.98-15.48-.62-31.2,3.1-46.35-2.8-2.86-2.83-1.63-6.44-1.64-9.7-.1-31.69.28-63.39-.27-95.07-.16-9.13,1.98-13.27,11.61-11.73,2.95.47,6.09-.22,9.14-.38,17.07,0,34.13,0,51.2,0,15.7,0,31.4,0,47.1,0,19.11,0,38.23,0,57.34,0Z"/>
  <path class="cls-1" d="M412.62,397.36c15.84.02,31.68.03,47.52.05-.12,10.51-12.14,23.41-22.95,24.64-3.29-2.73-6.58-5.45-9.87-8.18-4.9-5.5-9.8-11-14.69-16.51Z"/>
  <path class="cls-1" d="M894.33,552.79c6.25,4.68,11.71,10.14,16.39,16.4,2.08,11.66-7.15,15.65-14.73,18.67-8.09,3.23-14.31,8.71-21.53,12.74-11.82,6.6-22.52,14.9-34.34,21.21-7.56,4.03-13.24,10.66-21.28,13.69-13.03-4.82-22.1,5.16-32.06,9.75-8.92,4.11-18.3,8.33-25.97,15.36-4.79,4.38-10.13,1.79-14.19-2.77.01-8.09,6.8-12.09,11-17.49,4.35-5.6,9.81-10.36,15-15.27,10.75-7.75,23.2-12.99,32.88-22.34,2.03-1.96,4.76-2.57,7.59-2.5,2.76.07,5.42-.21,7.82-1.82,23.95-16.05,49.67-29.24,73.41-45.63Z"/>
  <path class="cls-1" d="M961.89,618.38c4.1,4.77,8.2,9.55,12.3,14.32,1.32,4.72-1.42,7.15-5.27,8.3-6.49,1.94-11.08,6.33-15.56,10.99-3.82,3.98-7.9,7.39-13.75,7.88-3.92.33-6.94,2.52-9.59,5.25-4.34,4.48-9.19,7.95-15.67,8.59-2.05.2-4.04,1.11-5.39,2.63-9.02,10.14-21.68,14.79-32.68,21.97-5.64,2.41-11.28,4.78-17.6,4.7-2.05-.02-4.52.13-5.79,1.61-7.78,8.99-20.28,10.54-28.71,18.75-6.55,6.38-16.34,8-23.68,13.62-2.3,1.76-5.24.99-7.23-1.55-1.45-5.55.17-11.08.05-16.63,4.14-7.34,9.58-13.13,18.17-15.16,2.01-.47,3.78-1.48,5.44-2.7,14.96-10.96,31.27-19.28,47.97-27.39,12.2-5.92,24.09-13.68,34.87-22.44,4.84-3.93,9.25-8.06,16.02-7.72,1.36.07,3.09,0,3.89-.95,9.69-11.55,27.74-9.51,36.52-22.51.74-1.09,2.27-1.43,3.65-1.6.68,0,1.36.01,2.04.02Z"/>
  <path class="cls-1" d="M959.85,618.36c-6.79,7.97-12.59,17.31-25.21,16.64-1.71-.09-3.82,1.4-5.24,2.7-5.08,4.67-9.05,11.37-17.83,8.18-.91-.33-2.9.66-3.6,1.62-7.97,10.87-21.72,13.43-31.36,22-4.89,4.35-10.04,9.3-17.7,8.83-1.57-.1-3.76.52-4.74,1.63-9.44,10.62-24.28,12.35-34.81,21.81-7.35,6.61-18.49,8.83-25.4,16.95-.28-.39-.56-.77-.84-1.16q1.76-5.82,13.67-15.73c-4.86,2.75-7.45,8.43-12.19,3.99-3.95-3.7-2.18-8.2-.39-12.22,3.55-8.01,8.6-14.54,17.97-16.18,1.95-.54,4.13-.49,5.72-1.95,14.57-13.43,32.67-21.53,49.4-31.51,7.94-4.73,18.24-5.67,26.77-10.67,3.97-2.33,8.8-3.33,12.45-6.56,1.01-.89,2.55-2.29,3.47-1.91,12.33,5.01,19.45-8.28,30.29-8.46,4.71-.07,6.75-5.66,11.39-6.23,3.47,1.99,6.2,4.73,8.18,8.21Z"/>
  <path class="cls-1" d="M894.33,552.79c-.08,3.04-1.81,4.74-4.3,6.34-16.15,10.39-32.38,21.14-49.12,29.89-9.26,4.84-16.66,17.92-30.53,13.48-1-.32-2.94,1.46-4.09,2.62-9.44,9.46-21.39,15.04-32.8,21.45-4.16.22-6.2,3.34-8.66,6.07-7.59,8.45-11.03,7.85-15.19-2.44-.5-1.23-1.08-2.43-1.44-3.72.06-4.41,3.18-6.48,6.46-8.4,16.87-9.9,33-20.97,49.43-31.49,11.15-7.13,20.82-17.28,34.26-20.92,3.67-.99,5.81-4.56,8.66-6.95,10.02-8.37,21.33-14.66,33.05-20.27,2.7,2.07,5.4,4.13,8.1,6.2,2.06,2.71,4.12,5.42,6.17,8.13Z"/>
  <path class="cls-1" d="M929.16,587.64c1.36,1.36,2.72,2.72,4.09,4.08-1.11,9.42-7.93,13.89-15.75,16.36-6.08,1.92-10.57,5.52-15.56,9.06-12.86,9.15-25.54,18.63-39.43,26.24-1.18.65-2.83.74-3.64,1.74-9.88,12.1-26.36,15.13-36.58,26.73-2.92,3.32-6.86,4.17-10.99,4.55-12.02,6.14-23.17,13.9-35.76,18.96-3.45-.38-5.66-2.32-6.94-5.46.76-8.47,6.18-13.13,13.45-16.1,2.8-1.14,6.65-1.13,8.12-3.77,8.6-15.39,27.64-17.65,38.08-30.64,1.04-1.29,2.78-1.89,4.4-2.44,10.27-1.35,16.32-10.29,25.59-14.08,12.13-4.96,25.57-8.63,35.65-17.05,9.61-8.02,20.85-12.08,31.37-17.89,1.25-.69,2.55-.82,3.9-.31Z"/>
  <path class="cls-1" d="M929.16,587.64c-19.51,9.17-35.89,23.67-56.45,31.51-10.18,3.88-22.04,6.99-29.57,16.57-2.67,3.4-6.49,3.25-10.27,3.14-1.85-2.04-1.37-8.73-6.96-3.32-1.95,1.89-4.44,3.3-7.4,1.71-.6-.83-.59-1.66.02-2.48,6.48-5.78,14.12-10.21,20.76-15.41,13.28-10.39,30.1-15.14,41.76-27.64,2.12-2.28,4.51-3.65,7.83-4.16,10.88-1.66,18.43-7.65,21.84-18.37,6.95,5.35,13.1,11.5,18.44,18.45Z"/>
  <path class="cls-1" d="M810.34,673.67c3.79.12,7.35,0,10.35-3.1,6.1-6.33,14.93-9.79,20.93-14.92,10.64-9.1,22.68-15.67,34.05-23,14.18-9.14,25.7-22.53,43.01-27.12,6.44-1.71,10.55-8.27,14.57-13.8,6.94,5.35,13.09,11.48,18.42,18.43-4.03,4.53-6.33,11.62-15.03,8.64-3.24-1.11-5.17,2.64-7.41,4.61-4.16,3.65-7.75,9.65-14.12,2.85-1.38-1.47-3.66-.59-4.61.57-6.96,8.55-19.38,7.45-26.7,15.3-.9.97-2.22,2.33-3.27,2.26-16.31-1.08-25.49,12.61-38.38,17.9-11.12,4.57-17.8,15.42-29.77,17.54-2.23-1.53-4.39-3.09-2.05-6.14Z"/>
  <path class="cls-1" d="M437.18,422.05c11.04-5.05,17.24-14.62,22.95-24.64,8.19.03,16.38.05,24.57.08,4.57,17.31-.55,30.78-16.02,40.04-3.99,2.39-7.96,5.4-13.08,2.89-6.14-6.12-12.28-12.25-18.42-18.37Z"/>
  <path class="cls-1" d="M455.6,440.42c21.62-7.04,29.1-18.08,29.11-42.93,2.31.54,1.92,2.44,1.92,4.03-.09,23.19-.21,46.38-.32,69.58-7.37-6.8-14.75-13.59-22.12-20.39-2.86-3.43-5.72-6.86-8.58-10.29Z"/>
  <path class="cls-1" d="M880.06,538.46c-10.51,12.09-25.64,18.32-38.35,27.12-9.44,6.53-18.08,16.93-30.86,18.87-.96.15-2.01.66-2.74,1.31-16.65,14.82-36.1,25.33-55.31,36.22-1.64.93-2.61,3.03-3.89,4.59-1.07,4.74-4.37,8.12-8.57,9.23-15.02,3.98-25.49,15.65-38.93,22.24-2.42,1.19-4.44,3.15-7.41,2.09-3.93-4.03-1.29-7.4,1.2-10.67,2.83-3.7,6.71-6.46,9.58-10.48-5.26,2.91-9.85,10.26-15.93,1.59,4.01-8.29,10.94-13.93,18.89-17.49,5.4-2.42,10.39-4.79,14.42-9.12,1.39-1.5,2.85-3.33,4.78-3.76,20.16-4.47,34.13-19.57,51.21-29.29,9.14-5.21,18.51-9.62,25.87-17.43,3.06-3.25,7.59-2.42,11.67-2.23,17.63-11.7,35.22-23.44,54.11-33.07,4.15,2.7,7.57,6.14,10.28,10.28Z"/>
  <path class="cls-1" d="M830.84,489.3c.67.03,1.35.05,2.02.07,6.17,6.79,12.33,13.59,18.5,20.38.04,8.12-6.79,11.2-11.75,15.33-13.51,11.26-29.05,19.92-41.7,32.31-7.15,7-18.08,5.68-25.64,11.75-7.24,2.78-13.2,8.82-21.65,8.54-3.48-5.15-6.44-3.23-9.54.54-2.16,2.63-4.63,5.59-8.58,3.62-4.32-2.16-3.47-6.14-2.69-9.89.76-3.67,1.74-7.3,2.74-10.92,5.8-9.04,14.2-15.38,22.97-21.08,15.85-10.3,32.29-19.6,47.7-30.71,9.19-6.63,19.9-11.19,27.62-19.95Z"/>
  <path class="cls-1" d="M771.43,567.18c4.73-3.25,9.33-6.55,15.59-6.47,2.15.03,4.83-1.19,6.39-2.73,8.44-8.35,18.75-14.37,27.64-21.87,10.18-8.6,23.2-14.22,30.31-26.36,6.88,5.4,13.04,11.53,18.42,18.43-1.54,3.22-4.27,5.03-7.28,6.81-15.8,9.33-32.34,17.57-46.02,30.15-2.78-7.67-6.86-8.15-12.19-2.25-1.6,1.77-3.49,3.62-5.94,3.61-6.79-.03-11.22,3.69-15.38,8.46-2.51,2.87-6.04,5.08-9.88,2.6-4.02-2.59-4.84-6.31-1.66-10.37Z"/>
  <path class="cls-1" d="M761.26,419.52c4.78,3.43,8.88,7.53,12.3,12.31,2.41,7.96-3.69,11.28-8.82,13.54-7.93,3.48-14.67,8.13-20.55,14.3-1.39,1.46-2.91,3.34-4.79,3.61-11.07,1.6-16.8,10.53-24.2,17.17-19.27,17.38-41.66,30.16-63.86,43.21-4.46,2.62-7.74,6.63-11.87,9.58-5.37,3.84-10.58,4.66-14.41-2.26-.08-5.83-.04-11.65-.02-17.47,7.54-5.9,15.3-12.11,23.51-16.35,18.13-9.36,31.25-24.81,47.79-35.89,8.15-8.57,19.61-11.97,29.31-18.07,12.09-7.6,23.52-16.13,35.61-23.69Z"/>
  <path class="cls-1" d="M728.46,386.85c.67.06,1.33.1,2,.13,5.46,6.15,10.92,12.29,16.38,18.44.97,8.08-4.22,11.98-10.62,14.05-5.45,1.76-9.34,5.2-13.7,8.5-9.95,7.55-20.62,14.4-31.27,20.57-14.39,8.34-28.5,17.41-43.61,24.55-4.17,3-7.14,7.53-11.61,9.98-3.33,1.83-7.25,6.5-10.99.2-.03-8.9,0-17.8-.01-26.68,7.65-6.99,16.63-12.2,25.2-17.83,20.95-13.79,42.52-26.6,64.82-38.13,6.05-3.13,8.42-9.71,13.41-13.79Z"/>
  <path class="cls-1" d="M646.5,470.94c15.2-7.26,30.03-15.75,43.76-24.96,11.75-7.89,25.8-13.02,35.29-24.32,1.51-1.8,3.26-3.83,5.84-3.74,8.86.31,12.27-5.9,15.46-12.49,5.77,3.71,10.25,8.76,14.42,14.11-6.4,10.86-17.98,15.34-27.71,21.91-11.5,7.76-23.86,14.26-35.85,21.31-6.48,2.66-13.28,4.55-18.28,10.15-2.78,3.11-6.58,3.83-9.35-.41-2.81-4.3-5.39-2.34-8.36-.3-5.33,3.64-10.56,4.25-15.21-1.25Z"/>
  <path class="cls-1" d="M714.08,479.13c6.53-6.92,11.04-16.13,22.55-17.02,2.98-.23,5.78-4.32,8.44-6.86,5.13-4.88,10.17-9.42,17.49-11.36,5.6-1.48,9.7-5.87,11-12.06,4.06,3.48,8.12,6.96,12.18,10.44,1.39,2,2.79,3.99,4.18,5.99,2.06,2.89.8,5.55-1.55,6.94-11.29,6.65-21.26,15.13-31.93,22.63-1.9,1.34-4.4,1.6-6.69,2.08-.99.2-2.06.31-2.92.83q-13.72,8.25-18.51-6.37c-5.43-.47-7.76,8.5-14.26,4.76Z"/>
  <path class="cls-1" d="M488.62,792.45c26.69,0,53.37.02,80.06.03,2.57,3.59-.06,5.81-2.36,7.71-8.43,6.99-15.92,14.94-23.47,22.8-5.69,5.92-11.79,7.6-19.28,4.39-6.81-6.16-13.62-12.33-20.43-18.49-4.84-5.48-9.67-10.96-14.51-16.44Z"/>
  <path class="cls-1" d="M1000.81,659.33c-2.98,4.76-6.41,8.61-12.82,8.34-3.8-.16-5.79,3.18-8.16,5.51-5.06,4.95-12.85,7.47-16.93,11.59-11.48,11.56-27.92,13.74-39.33,24.3-3.33,3.08-6.6,4.39-11.18,5.29-6.32,1.24-10.22,7.31-13.99,12.56-10.9,9.73-25.04,13.23-37.76,19.45-5.21,2.55-10.51,4.75-14.72,8.9-1.7,1.68-3.74,3.66-6.11,3.38-16.51-1.94-28.21,7.56-40.76,15.94-12.13,8.11-26.36,12.43-39.24,19.31-3,1.6-6.67,1.2-9.59-1.3-1.57-2.42-1.61-5.01-.84-7.69.6-1.61,1.37-3.43,2.82-4.12,11.3-5.37,20.51-13.89,31.01-20.34,4.89-3,10.12-5.04,13.52-9.96.96-1.39,2.09-3.01,3.57-3.56,13.56-5.07,23.67-16.35,37.52-20.81,2.99-.96,5.96-2.08,7.77-4.55,6.92-9.45,17.25-13.82,27.18-18.83,4.01-1.1,7.42-3.14,10.46-6.03,4.06-3.86,8.37-7.29,14.38-3.36,1.16.76,2.98,1.09,3.88.2,6.98-6.96,17.7-6.99,24.84-13.55,3.62-3.33,7.18-6.49,12.54-3.42,1.21.69,2.84.89,3.93.13,14.45-10.18,35.18-7.29,47.18-22.63,1.01-1.3,2.91-1.69,4.68-.89,2.76,1.34,4.8,3.39,6.14,6.14Z"/>
  <path class="cls-1" d="M994.66,653.19c-7.23,7.78-16.99,12.04-25.42,18.14-1.07.78-2.63,2.17-3.41,1.87-9.34-3.6-16.29-.32-22.08,7.05-.51.65-2.4,1.22-2.65.94-8.13-9.04-11.67.73-16.8,4-5.92,3.78-14,2.78-18.94,9-2.49,3.14-5.5,6.36-9.7.99-3.58-4.57-6.58-.25-9.25,1.87-3.87,3.07-6.44,8.2-12.58,7.34-2.86-3.62-1.12-6.08,2.05-8.19,10.48-8.44,22.2-16.98,33.42-22,11.57-5.17,19.45-17.95,33.79-17.35,1.85.08,3.96-2.37,5.69-3.92,6.47-5.8,11.38-13.66,21.31-14.77,1.55-.17,2.74-3.56,4.1-5.46,7.65,6.01,14.48,12.83,20.48,20.49Z"/>
  <path class="cls-1" d="M830.84,489.3c-3.84,8.65-9.45,15.3-19.22,17.5-1.93.43-4.29,1.06-5.44,2.44-10.73,12.85-26.8,17.96-39.99,27.2-11.02,7.72-22.25,14.87-31.62,24.61-6.44,7.96-14.48,13.48-23.29,18.92-14.61,9.03-29.35,17.97-43.66,27.52-9.28,6.19-19.91,10.03-28.49,17.52-4.25,3.71-9.96,4.2-14.03-1.62-.11-5.29-.07-10.57-.03-15.85,18.18-10.19,30.72-27.61,47.54-38.77,13.55-8.99,24.73-21.94,41.49-26.77,8.3-2.39,13.35-12.55,23.21-13.74,25.61-19.48,53.62-35.14,81.31-51.31,4.78,3.42,8.95,7.45,12.24,12.36Z"/>
  <path class="cls-1" d="M748.9,477.08c16.03-6.26,28.91-17,41.03-28.82,4.79,3.4,8.9,7.48,12.28,12.29,3.9,8.61-2.7,12.03-8.27,14.77-17.11,8.42-31.9,20.33-47.87,30.36-12.82,8.05-24.57,17.71-38.25,24.77-12.15,6.27-23.01,15.46-34.8,22.81-14.05,8.76-28.27,17.25-40.73,28.31-2.51.31-5.31,2.42-7.18-1.16-.21-6.71-.04-13.41-.1-20.11,0-1.6-.04-3.2.17-4.79,18.72-9.25,34.67-23.06,52.74-33.02,12.29-6.77,23.3-15.55,36.06-21.91,11.97-5.97,25.1-12.99,34.9-23.5Z"/>
  <path class="cls-1" d="M632.16,579.47c16.46-16.54,38.42-25.23,56.41-39.22,12.84-9.99,27.38-17.04,40.49-26.41,10.88-7.78,21.34-17.13,34.04-22.94,11.53-5.27,19.85-16.18,32.93-19.56,3.98-1.03,6.77-5.64,6.18-10.79,6.18,4.74,11.64,10.21,16.39,16.39-6.54,7.86-15.63,12.76-24.06,17.62-19.22,11.08-38.37,22.1-55.89,35.76-7.28.45-13.65,2.65-18.24,8.82-1.47,1.98-3.88,3.47-6.22,1.84-5.63-3.94-8.81.11-13.33,2.65-10.51,5.9-20.61,12.5-31.03,18.53-9.58,5.54-20,9.72-28.71,16.82-2.5,2.04-5.67,6.59-8.97.49Z"/>
  <path class="cls-1" d="M683.33,339.89c.09.59.14,1.18.16,1.78,2.53,4.44-.57,7.03-3.41,9.37-5.21,4.3-10.32,9.01-16.33,11.95-9.56,4.67-17.75,10.87-25.53,18.02-3.35,3.08-7.51,9.2-13.17,2.28-.05-8.36-.01-16.71-.02-25.05,9.37-7.88,17.93-16.95,28.94-22.54,5.29-2.68,9.71-5.77,13.12-10.48,5.41,4.89,10.83,9.79,16.24,14.68Z"/>
  <path class="cls-1" d="M667.09,325.21c.06,4.18.14,8.56-5.07,9.83-9.74,2.38-16.78,8.57-23.33,15.65-3.35,3.63-7.51,5.81-12.65,5.57-2.18-8.78-.45-17.71-1.02-26.53.12-1.4.57-3.04,1.96-3.23,11.21-1.52,17.38-9.7,23.73-17.67,6.09,4.83,11.54,10.3,16.38,16.38Z"/>
  <path class="cls-1" d="M650.71,308.82c-2.33,12.01-11.16,18.73-24.67,18.76-1.66-14.4-1.71-28.79.03-43.18,1.35.74,2.69,1.49,4.04,2.23,6.87,7.4,13.74,14.79,20.61,22.19Z"/>
  <path class="cls-1" d="M728.46,386.85c-2.31,9.82-8.46,15.89-18.12,18.52-1.3.35-2.93.26-3.86,1.04-20.74,17.24-47.49,25.29-67.26,44.02-3.64,3.45-8.22,4.57-13.19,4.13-2.14-7.29-.46-14.77-1.02-22.12,7.92-7.58,17.32-13.34,26.66-18.62,21.9-12.37,40.01-28.84,56.35-47.59,7.45,6.24,14.46,12.92,20.43,20.63Z"/>
  <path class="cls-1" d="M708.03,366.22c-.51,10.31-9.85,13.85-15.49,20.22-15.49,17.49-37.88,25.78-54.93,41.16-3.53,3.19-7.62,2.11-11.58,2.38-2.54-5.93.3-12.35-1.64-18.33-.06-43.12-.13-86.24-.19-129.36.62.71,1.24,1.41,1.86,2.12,0,14.39-.02,28.79-.03,43.18,0,9.56,0,19.11,0,28.67,0,9.56,0,19.11,0,28.67,2.94,3.02,2.26,6.89,2.57,10.56.24,2.87-1.1,6.65,2.64,7.99,3.34,1.2,5.54-1.73,7.92-3.56,8.85-6.8,17.65-14.24,27.29-19.23,12.2-6.32,22.18-15.25,33.39-22.64,3.34,2.12,6.07,4.84,8.19,8.18Z"/>
  <path class="cls-1" d="M699.84,358.04c-4.64,11.09-15.53,16.08-24.64,20.96-12.55,6.74-23.12,15.85-34.8,23.54-3.71,2.45-6.71,6.42-11.53,4.42-5.08-2.11-2.36-7.12-2.77-10.86-.4-3.69-.08-7.46-.07-11.19,2.21-.77,5.15-.88,6.51-2.4,13.23-14.83,32.21-21.61,47.14-34.01,2.17-1.8,3.7-3.92,3.8-6.85,6.1,4.81,11.56,10.26,16.35,16.38Z"/>
  <path class="cls-1" d="M613.73,792.48c7.74.46,10.69-2.1,10.59-10.87-.48-42.08-.04-84.16.08-126.24,7.21,4.02,3.74,10.97,4.6,16.73.02,9.39.34,18.77.06,28.16-.06,8.77.36,17.54-.08,26.31.12,8.55.29,17.1-.02,25.64-.16,3.36.1,6.73-.13,10.09.43,5.66-2.96,13.79,1.58,16.43,5.71,3.32,8.54-5.88,13.49-8.27,14.41-6.96,27.14-16.86,41.6-23.7,3.63-1.72,7.39-3.67,11.71-2.25,2.63.79-.65,10.19,6.59,4.47,1.36-1.07,3.46-.51,4.42,1.08,1.43,2.37.32,4.71-1.31,6.43-4.83,5.13-9.05,10.73-13.13,16.46-17.69,11.92-36.66,21.77-54.04,34.26-7.81,5.62-17.55,8.57-24.37,15.94-.45.49-1.18.85-1.84.83-20.01-.63-32.26,14.83-47.95,23.14-5.5,2.91-10.16,8.65-17.49,4.78-3.43-2.03-6.15-4.77-8.2-8.18,2.42-5.32,7.23-8.45,12.1-10.36,7.12-2.79,12.64-8.18,19.29-11.15,16.18-7.21,27.53-20.93,42.44-29.71Z"/>
  <path class="cls-1" d="M548.1,851.88c11.75-.62,19.42-9.24,28.1-15.25,8.29-5.74,19.2-7.37,25.4-16.28.47-.67,2.24-1.3,2.71-.96,10.15,7.15,13.61-3.01,19.58-7.21,6.67-4.69,14.33-7.59,21.28-12.21,14.45-9.6,29.52-18.54,44.42-27.62,1.03-.63,2.66-.27,4.02-.38.68.78,1.07,1.69,1.18,2.71-.19,3.24-1.47,7.21-4.03,7.83-13.18,3.22-18.77,17.53-31.59,20.98-.66.18-1.49.28-1.87.76-9.63,12.12-22.73,19.77-35.19,28.44-5.09,3.54-9.01,8.84-15.04,11.75-7.25,3.5-11.93,9.97-16.15,16.67-6.97,4.64-14.07,9.06-22.28,11.28-1.36-.7-2.71-1.4-4.07-2.1-5.49-6.14-10.98-12.27-16.48-18.41Z"/>
  <path class="cls-1" d="M613.73,792.48c-7.38,9.49-16.85,16.9-26.62,23.38-15.2,10.08-31.42,18.64-47.21,27.84-6.18-4.7-11.63-10.15-16.34-16.32,12.05,1.85,18.64-6.49,25.13-14.14,6.25-7.37,15.59-11.69,19.99-20.76,15.02,0,30.04,0,45.06,0Z"/>
  <path class="cls-1" d="M568.64,872.38c5.54-6.28,13.74-8.14,20.51-12.36,12.18-12.48,29.07-17.63,42.89-27.51,13.84-9.89,28.9-17.64,43.49-26.21,4.9-2.88,9.54-6.68,15.78-6.27,2.06,1.28,3.79,5.04,6.68,1.82,7.12-7.93,19.01-7.36,26.21-15.08,1.13-1.22,3.56-2.22,4.64-1.16,6.22,6.13,10.49,1.66,15.37-2.03,1.73-1.3,5-4.34,6.71.67v8.19c-1.24,5.12-5.03,9-9.41,9.98-10.61,2.37-17.64,9.73-25.58,15.97-7.35.86-13.02,4.39-18.66,9.31-10.33,9.01-23.46,13.69-35.37,20.28-15.12,8.36-29.16,18.36-43.37,28.12-8.37,5.75-18.69,7.76-26.9,13.97-1.89,1.43-4.62.06-6.67-1.35-6.23-4.67-11.68-10.12-16.36-16.34Z"/>
  <path class="cls-1" d="M617.79,921.48c-3.4-2.73-6.81-5.47-10.21-8.2-1.38-2.05-2.77-4.09-4.15-6.14,12.58-4.53,20.82-14.94,30.53-23.19,8.71-7.4,18.55-12.55,28.35-17.99,3.48-1.93,7.21-1.74,10.96-1.18,9.28-5.44,19.54-9.2,27.77-16.43,2.86-2.51,6.16-4.33,10.11-4.17,4.02.17,7.23-1.33,10.06-4.03,1.47-1.4,3.06-3.4,4.94-3.44,16.78-.38,28.82-11.93,43.17-18.01,2.25-.95,4.54-1.47,6.76.14,1.33,1.74,1.58,3.72,1.34,5.82-.26,1.34-.47,2.96-1.52,3.71-13.04,9.29-25.33,19.73-39.76,26.91-2.32,1.16-5.43.98-7.37,3.06-11.37,12.18-28.72,16.42-39.25,29.7-12.83,6.07-27.38,8.13-39.28,16.17-8.38,5.66-16.4,11.75-25.89,15.54-2.15.86-3.94,2.75-6.56,1.72Z"/>
  <path class="cls-1" d="M673.12,868.21c-11.27-4.64-18.25,4.84-25.9,9.27-10.3,5.96-19.05,14.84-27.78,23.19-4.75,4.55-9.38,7.47-16.01,6.47-6.94-5.35-13.08-11.49-18.43-18.42,2.03-.11,5.06.61,5.95-.45,8.29-9.95,21.7-10.78,31.77-18.44,10.32-7.85,21.52-15.66,33.37-21.89,16.09-8.46,33.7-14.48,46.47-28.45,3.75-4.1,8.98-1.99,13.58-2.47,2.36,6.84-.63,11.68-7.23,10.61-7.87-1.27-9.5,3.14-11.49,8.34-.98,2.55-1.07,5.33-1.61,8-1.01,5.01-3.68,8.88-8.58,10.6-5.19,1.82-6.39-3.77-9.59-5.92-4.08,6.09.53,13.95-4.5,19.56Z"/>
  <path class="cls-1" d="M879.97,819.06c-2.34,4.12-4.77,8.19-6.99,12.38-2.08,3.92-4.23,6.9-9.46,4.39-2.14-1.02-5.56-.74-6.44,1.55-5.72,14.81-21.34,19.34-30.84,30.17-2.88,3.28-6.48,5.92-9.76,8.85-18.78,13.33-38.96,23.97-59.99,33.45-10.92,4.92-20.66,12.76-31.72,17.93-1.81.85-3.46,3.23-5.27,2.85-16.91-3.59-26.14,11.59-39.72,15.92-9.18,2.93-17.3,8.79-27.16,9.74-2.74-1.36-4.79-3.4-6.14-6.15.51-3,2.54-5.11,5.1-5.95,8.36-2.73,13.9-10.38,21.17-13.53,15.21-6.59,24.59-21.19,40.8-26.36,9.4-3,17.55-10.83,24.77-17.28,11.97-10.69,27.08-15.33,39.25-24.96,8.71-6.05,19.07-11.17,28.27-13.43,10.87-2.67,18.89-8.89,28.43-12.49,11.54-4.36,22.21-10.06,32.78-15.93,4.78-2.65,8.3-3.83,12.91-1.15Z"/>
  <path class="cls-1" d="M689.51,886.64c7.41-7.5,12.26-18.11,24.94-19.14,2.47-.2,4.69-3.64,6.99-5.63,4.84-4.19,8.07-11.35,16.54-8.87.49.15,1.44-.34,1.81-.81,9.55-12.13,25.81-15.38,35.74-26.99,2.29-2.51,4.51-5.12,7.69-6.54,14.49-6.49,27.3-15.94,41.24-23.39,2.64-1.41,5.35-3.31,8.41-.78,2.94,8.86,6.41,4.01,10.67.86,3.24-2.4,5.62-11.72,11.85-2.91-2,7.51-7.55,12.91-14.11,14.73-7.86,2.17-12.86,7.02-17.96,12.3-3.42,3.54-6.86,6.49-12.26,5.79-3.41-.44-5.55,1.89-7.86,3.96-6.86,6.12-11.7,14.7-22.7,15.65-3.26.28-6.07,5.85-9.08,9-10.44,9.27-23.06,15.4-34.37,23.44-4.28,3.04-9.62,4.75-13.78,8.43-3.59,3.17-7.63,5.94-12.94,3.91-2.42-3.3-4.09-7.72-9.43-2.73-3.26,3.06-7.72,4.22-11.4-.29Z"/>
  <path class="cls-1" d="M709.99,888.69c3.58.34,6.81-.84,9.55-2.89,15.01-11.22,31.18-20.62,47.23-30.19,1.4-.84,3.1-1.17,4.66-1.74.71,3.73,1.29,7.57,6.14,8.19-4.83,6.07-9.06,12.73-18.35,12.79-2.33.01-5.3,2.08-6.85,4.07-8.29,10.64-20.48,17.13-31.37,23-14.51,7.82-25.69,20.28-40.98,26.42-1.26.51-2.83.88-3.61,1.84-7.9,9.81-19.45,14.07-29.93,19.96-4.89-3.3-8.98-7.4-12.3-12.28,4.2-9.61,12.61-14.72,21.29-19.25,6.03-3.15,11.95-6.26,16.84-11.07,1.69-1.66,3.53-3.58,5.86-3.84,9.66-1.05,16.77-6.5,23.56-12.79,2.17-2.01,4.89-3.79,8.26-2.23Z"/>
  <path class="cls-1" d="M898.4,808.82c-1.54,8.4-5,13.44-14.34,8.19,3.99-4.12,9.62-5.35,14.34-8.19Z"/>
  <path class="cls-1" d="M652.62,956.29c12.43-8.4,27.06-12.17,40.22-19.07,3.7-1.94,6.85-4.34,9.72-7.28,3.51-3.59,7.11-6.83,12.02-1.82,1.66,1.69,3.6,1.44,5.57.28,15.57-9.17,30.56-19.39,47.22-26.63,14.72-6.39,29.08-13.3,41.3-24.06,1.68-1.48,5.17-.92,7.81-1.31v4.1c-9.96,4.21-18.02,10.48-22.64,20.59-1.14,2.49-3.17,5.75-5.65,5.2-13.1-2.88-13.31,7.81-16.76,15.17-2.17,3.45-5.24,5.41-9.33,5.65-4.71-2-5.84,2.33-8.11,4.65-13.44,12.99-29.08,22.44-46.54,28.95-2.96,1.1-4.87,3.63-7.19,5.61-7.32,6.24-15.07,11.65-25.09,12.49-7.51-6.83-15.02-13.65-22.53-20.48,0-.68-.01-1.36-.02-2.04Z"/>
  <path class="cls-1" d="M709.99,888.69c-23.86,18.57-54.03,27.39-75.81,49.17-6.26-4.66-11.72-10.12-16.38-16.38,22.74-14.01,44.58-29.88,71.71-34.84,4.56,1.39,8.57.9,12.08-2.78,1.78-1.87,3.6-5.43,6.33-4.29,3.95,1.65,1.43,6.01,2.07,9.12Z"/>
  <path class="cls-1" d="M761.19,925.55c3.41-1.37,6.83-2.73,10.24-4.1,2.45,1.87,5.16,6.61,8.1,2.59,6.93-9.46,20.46-8.39,27.03-18.12,4.35-6.43,7.96.81,11.97,1.2-10.91,4.14-19.99,10.57-25.98,20.84-16.17-.85-19.12,21.02-35.26,20.53-2.72-.08-4.4,2.83-6.01,5.06-4.75,6.58-9.27,12.86-18.84,13.63-4.87.39-7.64,6.32-11.33,9.77-3.21,3-5.93,6.72-11.12,5.94-8.51.55-12,8.64-18.44,12.29-6.28-4.64-11.74-10.1-16.38-16.38,10.41-6.04,20.34-16.15,30.09-18.95,12.42-3.56,18.75-15.24,31.64-16.98,5.85-.79,10.76-8.6,16.09-13.23,2.39-2.04,5.29-3.08,8.19-4.1Z"/>
  <path class="cls-1" d="M832.86,794.49c-10.18,5.8-21.31,9.84-30.65,17.23-7.94,6.27-17.99,8.61-26.69,13.49v-6.14c-1.02-5,2.69-6.45,6.13-7.9,2.5-1.05,5.88-.92,7.5-3.02,10.46-13.57,27.38-18.53,39.45-30.05,8.23-7.85,20.3-11.29,26.22-22.05,16.78-4.42,25.19-23.4,43.58-25.04,1.56.6,4.01,2.16,4.55,1.66,6.83-6.34,18-1.98,24.29-10.54,2.67-3.64,8.01-10.12,13.2-.79,1.25,2.26,3.5-.28,4.94-1.52,2.51-2.17,4.42-5.25,8.32-5.19-4.82,6.03-8.99,12.98-18.26,12.59-.6-.03-1.5.33-1.81.8-8.34,12.7-23.19,16.95-34.85,24.83-12.38,8.36-22.63,21.47-39.05,23.62-2.04.27-4.11,2.35-5.63,4.06-5.85,6.59-12.28,12.15-21.23,13.95Z"/>
  <path class="cls-1" d="M898.4,731.01c-.27.2-.52.53-.82.59-14.83,3.22-20.84,20.63-36.51,22.71-1.99.26-4.11,2.45-5.43,4.28-5.37,7.41-13.86,11.57-19.79,17.35-11.78,11.5-28.27,15.71-38.67,28.46-3.77,4.62-7.77,9.35-15.09,8.9-3.08-.19-5.12,2.95-6.58,5.75-10.99,5.72-21.97,12.43-33.16,16.53-10.04,3.67-19.84,9.22-30.58,10.8-4.02.59-7.15,1.73-9.77,4.32-8.24,8.17-19.66,11.02-28.88,17.51.68-7.38-1.67-15.02,1.88-22.14.75-1.5,1.54-3.41,3.51-2.98,1.01.22,2.16,1.7,2.47,2.82.87,3.13.38,8.16,5.17,6.94,4.17-1.06,7.36-4.82,7.42-9.95.09-7.07,1.96-13.42,7.65-18.13,1.47-1.22,2.8-3.65,5.06-1.76,9.4,7.9,7.61-2.3,9.84-5.99,5.75-6.75,10.41-14.55,21.05-15.03,5.93-.27,8.81-6.82,13.77-9.55,10.92,1.99,17.92-6.89,26.86-10.26,10.19-3.84,20.5-8.32,28.73-16.83,5.55-5.74,16.4-3.86,21.89-11.38.15-.2.7-.3.97-.2,16.95,6.34,24.93-12.08,38.77-14.05,11.3-1.6,18.93-11.46,30.22-12.81v4.1Z"/>
  <path class="cls-1" d="M626.03,671.62c-.77-5.4,1.65-11.12-1.63-16.26,0-32.12,0-64.24,0-96.36.53-.9,1.06-.95,1.6,0,.01,7.5.02,15.01.03,22.51,4.79,8.19,4.49,16.39,0,24.58v18.43c4.4,5.76,2.09,12.46,2.55,18.75.48,6.69,3.48,8,8.39,4.03,20.88-16.9,45.07-28.81,67.05-44.14,10.19-7.11,19.77-17.72,33.84-19.23,4.87-.52,6.97-7.73,13.07-6.5,6.83-3.41,13.65-6.83,20.48-10.24.3,3.52-1.22,8.2,3.64,9.37,3.67.88,5.64-2.61,7.91-5.18,3.59-4.06,6.48-9.6,14-6.67,2.96,1.15,4.89-2.95,7.29-4.69,3.06-2.21,4.68-7.99,9.46-5.9,4.55,1.99,2.27,7.18,2.76,11.02-5.13-3.12-9.29-2.21-13.54,2.15-12.74,13.05-29.84,19.55-44.96,29.03-4.4,2.76-8.15,5.96-11.85,9.43-3.95,3.7-7.76,7.84-14.18,5.37-1.03-.4-3.08-.1-3.68.65-10.38,13.12-29.07,15.16-38.76,29.13-.99,1.75-2.64,2.55-4.45,3.13-6.47.85-10.51,5.84-15.51,9.19-10.1,7.09-21.49,12.18-30.49,21.06-4.55,4.49-9.81,3.79-13.03-2.66Z"/>
  <path class="cls-1" d="M626,559h-.8s-.8,0-.8,0c0-49.12,0-98.24,0-147.35,3.33,5.86.82,12.25,1.64,18.33,0,8.19,0,16.38,0,24.57,0,10.24,0,20.47,0,30.71,4.73,8.88,4.63,17.75,0,26.63,0,6.83,0,13.65,0,20.48,4.43,7.51,4.46,15.02,0,22.52-.01,1.37-.03,2.74-.04,4.1Z"/>
  <path class="cls-1" d="M626.04,726.91c0-8.87,0-17.74,0-26.61,12.72-1.44,20.97-10.79,29.56-18.38,11.42-10.09,25.42-14.96,38.01-22.58,9.32-7.88,22.07-10.34,30.64-19.39,2.83-2.99,5.71-5.86,10.32-5.17,6.96,1.04,9.3-5.92,14.33-8.2.33.06.65.15.98.19,5.9.59.01,10.61,7.3,9.5,5.16-.78,5.81-6.97,9.43-9.86,2.35-1.88,4.65-2.7,6.87.17-8.6,10.48-18.98,19.41-26.62,30.72-.37,2.94-2.07,5.71-4.43,6.52-11.78,4.03-20.15,13.41-30.93,19.06-12.87,6.75-24.37,15.88-36.6,23.78-11.61,7.49-25.29,11.46-35.28,21.83-3.82,3.96-9.51,3.18-13.56-1.56Z"/>
  <path class="cls-1" d="M626.04,726.91c6.23,2.57,11.82,1.87,16.54-3.26,11.2-12.15,28.36-14.84,40.53-25.51,2.22-1.95,5.86-2.4,7.83-4.5,10.05-10.66,24.92-14.04,35.44-24.32,5.43-5.3,15.04-5.49,20.47-12.04,7.48,4.53,12.54,1.7,19.41-3.23,8.62-6.2,17.86-12.53,28.64-15.41,2.87-.77,6.4-1.86,8.02-4.02,5.59-7.43,10.47-4.78,15.61.13v2.05c-6.79,5.98-13.95,12-21.62,16.23-12.99,7.16-23.82,18.14-38.65,22.04-3.72.98-6.19,4.12-8.78,6.8-4.32,4.47-8.82,8.52-15.49,8.92-1.35.08-2.98.35-3.8,1.32-8.97,10.6-23.56,13.15-32.93,23.29-7.44,8.06-18.42,11.02-27.11,17.75-9.51,7.38-20.32,13.23-29.68,21.09-4.63,3.89-9.87,4.57-14.42-.72,0-8.87,0-17.75,0-26.62Z"/>
  <path class="cls-1" d="M750.95,784.25c-6.4-1.82-8.36,4.16-12.03,7-2.54,1.97-5.68,4.74-7.3.49-3-7.88-5.72-3.82-9.01-.68-7.61,7.24-19.38,6.82-26.84,15.52-3.1,3.61-3.65-3.09-4.2-5.95,3.58-7.88,9.3-13.18,17.96-14.95,1.67-.34,3.73-.5,4.75-1.69,9.48-10.99,24.52-14.07,34.43-24.47,8.48-8.9,22.13-10.68,29.63-21.08.81-.61,1.67-1.11,2.57-1.57,4.23-1.49,8.37-3.67,13.06-1.77,2.74,1.68,5.55,1.08,7.53-.89,4.44-4.42,11.36-5.55,15.22-9.13,9.29-8.62,22.27-10.9,30.83-20.05,2.95-3.16,6.19-5.53,10.69-4.7,6.55,1.22,11.71-3.04,17.65-4.14-1.4,2.55-2.37,5.21-2.05,8.19-10.69,6.07-19.74,17.04-29.71,20.68-12.85,4.69-20.11,17.89-34.23,18.81-2.15.14-4.46,1.76-6.21,3.26-7.13,6.1-14.03,12.14-21.99,17.48-10.04,6.74-20.64,12.86-30.74,19.63Z"/>
  <path class="cls-1" d="M793.95,735.1c-4.1,1.37-8.19,2.73-12.29,4.1-3.54-5.47-.71-10.63.76-15.86,3.05-3.5,6.49-6.06,11.53-4.61,3.74,5.46,1.33,10.92,0,16.38Z"/>
  <path class="cls-1" d="M793.95,718.72c-3.41,1.37-6.83,2.73-10.24,4.1-1.97,3.61-4.64,6.46-8.63,7.87-11.29,5.49-21.81,12.32-32.62,18.57-10.6,6.13-20.75,13.94-32.79,17.17-6.02,1.61-9.14,8.54-16.07,7.59v-2.05c.43-9.53,10.84-12.86,13.74-20.88-3.06-1.94-4.05.5-5.6,1.48-2.28,1.44-3.94,6.16-7.02,3.44-3-2.65,1.37-5.12,2.36-7.72.35-.92.41-1.95.61-2.94-.81-5.76,3.6-7.76,7.54-9.08,6.33-2.11,11.37-5.71,15.81-10.47,1.61-1.73,3.41-4.04,5.58-4.19,11.96-.81,18.2-10.71,27.03-16.46,1.59-1.06,3.26-1.96,5.07-2.57,6.6-.81,10.07-7.87,16.79-8.44,11.61-6.83,23.21-13.65,34.82-20.48.68,2.05,1.37,4.1,2.05,6.14-10.2,1.65-13.97,9.44-17.2,17.84-1.04,2.71-1.79,5.35.87,7.32,3.12,2.32,4.76-.74,6.79-2.31,2.55-1.97,3.93-5.62,9.34-5.66-4.91,8.96-16.13,11.79-18.24,21.7Z"/>
  <path class="cls-1" d="M626.04,753.53c7.94,3.76,13.49-.61,18.84-5.57,12.64-11.72,27.64-19.89,42.52-28.24,1.48-.83,3.51-1.3,4.35-2.57,8.68-12.94,23.68-19.5,35.84-25.15,13.3-6.18,22.97-17.12,37.05-22.36,12.23-4.55,24.72-12.48,35.12-21.65,5.72-5.05,11.18-9.67,18.76-11.21,2.51.01,4.25-1.41,6.07-2.94,2.59-2.16,4.71-7,8.83-4.14,3.54,2.46-1.04,5.97-.57,9.13-9.08,5.77-14.18,16.9-26.79,18.35-3.59.41-6.99,6.04-9.68,9.84-3.46,4.88-6.96,8.14-13.51,9.1-7.12,1.05-10.53,7.73-13.5,13.9-.63,2.16-2.27,3.21-4.24,3.9-3.33.82-6.75,1.32-9.97,2.58-10.77,7.53-23.24,12.38-33.25,21.07-3.17,2.75-6.35,5.12-10.76,5.18-1.02.01-2.32-.05-2.96.6-10.1,10.27-25.75,9.91-36.41,19.38-10.43,9.26-25.27,11.6-35.42,21.75-2.6,2.6-7.05,2.21-10.32-.73,0-3.41,0-6.82,0-10.24Z"/>
  <path class="cls-1" d="M765.28,692.1c1.37-.68,2.73-1.37,4.1-2.05,2.05,1.37,4.1,2.73,6.14,4.1-5.57,3.24-8.46,10.77-16.38,10.24-1.68-5.96,2.83-8.83,6.14-12.29Z"/>
  <path class="cls-1" d="M693.6,659.33c-6.84,6.49-15.07,10.47-23.32,14.93-11,5.95-20.46,14.94-30,23.29-4.63,4.06-8.62,6.29-14.25,2.74,0-9.56,0-19.11,0-28.67,3.97,3.47,8.61,5.17,12.31.58,8.2-10.17,20.51-13.99,30.69-21.07,8.33,3.01,10.7-5.91,16.38-8.19.88-1.65,2.41-2.01,4.1-2.05,5.18,3.64,8.62.82,12.26-2.86,1.87-1.9,4.06-6.62,6.97-3.76,3.33,3.28-1.34,5.82-3.42,8.14-3.39,3.79-7.27,7.17-10.48,11.1-1.11,1.36-.86,3.84-1.24,5.81Z"/>
  <path class="cls-1" d="M750.95,577.42c-14.07,9.45-28.73,17.78-43.79,25.61-8.74,4.54-16.04,11.87-24.47,17.47-14.58,9.69-31.14,16.58-43.81,29.1-2.92,2.89-6.16,4.54-10.04,3.13-4.37-1.59-2.63-5.75-2.74-8.87-.23-6.44-.06-12.9-.05-19.35,6.95,2.02,11.5-1.42,17.14-5.36,14.31-10.01,29.83-18.25,44.61-27.61,13.44-8.52,27.97-15.42,39.81-26.41,1.93-1.79,4.63-2.75,6.97-4.1-.95,4.62-1.75,9.27-2.92,13.83-.56,2.17-.89,4.1,1.22,5.36,2.88,1.72,4.26-.49,5.64-2.5.96-1.39,1.84-2.87,3-4.07,1.85-1.92,3.63-4.73,6.65-3.97,4.21,1.06,2.32,4.96,2.8,7.74Z"/>
  <path class="cls-1" d="M626.04,554.89c0-7.51,0-15.02,0-22.52,5.98,2.55,10.29,1.09,15.22-3.61,12.08-11.51,27.3-19,41.58-27.08,11.48-6.49,19.55-16.9,31.24-22.55,5.52-.12,7.43-5.58,11.54-7.81,4.2-2.28,6.96-2.62,6.98,3.58.01,3.2-1.78,7.54,1.79,9.39,4.41,2.28,6.29-2.68,9.03-4.85,1.67-1.32,3.34-2.3,5.48-2.36-12.21,12.33-25,23.82-42.2,28.88-1.27.37-2.63.91-3.6,1.76-15.49,13.7-33.68,23.33-51.1,34.13-2.57,1.6-5.34,3.3-7.14,5.63-4.9,6.34-11.17,8.45-18.83,7.41Z"/>
  <path class="cls-1" d="M626.04,511.89c0-8.88,0-17.75,0-26.63,9.35-1.16,13.32-10.01,20.46-14.33,6.45,2.56,12.11,2.65,17.1-3.49,2.73-3.36,6.4-4.41,7.52,1.95,1.16,6.57,4.41,4.91,7.21,1.34,5.02-6.43,11.28-9.29,19.37-7.99-15.14,10.37-25.99,26.27-43.75,33.4-4.5,1.81-8.55,5.53-11.93,9.19-4.48,4.86-9.31,7.63-15.99,6.55Z"/>
  <path class="cls-1" d="M626.04,606.09c0-8.19,0-16.39,0-24.58,2.04-.68,4.09-1.36,6.13-2.04.82.49,2.28,1.48,2.36,1.39,7.17-9.1,18.48-12.32,27.9-17.31,10.37-5.49,18.55-15,30.78-17.19,4.57-.82,6.79-5.44,10.08-8.33,2.05-1.8,5.11-5.05,6.82-3,7.49,8.93,11,.84,15.7-2.91,3.88-3.09,8.54-1.35,12.85-1.8-8.09,1.79-13.55,9.96-19.99,11.72-15.78,4.32-23.94,19.36-38.84,23.93-3.66,1.12-6.24,3.9-8.97,6.48-10.55,10-21.39,19.69-31.71,29.9-3.97,3.93-8.38,3.76-13.11,3.72Z"/>
  <path class="cls-1" d="M626.04,763.77c6.2.84,11.34-.84,15.24-6,2.96-3.91,6.96-6.37,11.77-7.49,7.15-1.67,12.72-6.11,18.46-10.38,5.92-4.41,11.52-9.77,19.88-8.96,2.58.25,4.52-1.22,6.24-2.97,4.5-4.6,8.62-9.68,16.42-7.74,1.27.32,3.56-1.83,4.81-3.32,8.71-10.33,23.06-12.23,32.33-21.73.8-.82,2.55-.72,3.86-1.04,2.71,4.1.81,8.19,0,12.29-4.23,3.88-8.48,7.74-12.67,11.66-2.7,2.53-4.98,5.72-9.57,4.07-1.09-.39-3.17-.2-3.78.55-8.46,10.32-22.1,13.43-31.32,22.63-13.03,2.51-23.51,10.28-34.32,17.13-9.87,6.26-21.03,10.47-29.05,19.91-3.56,4.2-8.25,2.43-8.29-4.34-.03-4.76,0-9.52,0-14.28Z"/>
  <path class="cls-1" d="M693.6,774.01c13.82-9.08,28.48-16.43,43.33-23.72,9.34-4.59,17.97-11.81,27.3-17.31,3.57-2.11,6.93-4.33,11.29-4.02,2.97,2.77,3.2,6.64,4.1,10.24-5.02,6.97-10.7,13.06-19.58,15.04-1.28.29-2.9.81-3.59,1.78-9.22,12.97-26.33,15.37-36.37,27.23-1.26,1.48-3.24,3.29-4.93,3.32-10.64.22-16.25,8.54-23.59,14.06-18.34,10.86-37.04,21.17-55.33,32.07-10.42,6.21-18.7,17.76-32.74,18.37-5.86.25-7.88,8.52-14.33,8.95,4.69-8.88,10.76-16.26,20.71-19.66,3.64-1.24,6.24-3.82,8.17-7.25,2.39-4.25,5.87-8.2,10.6-8.9,6.71-.98,10.67-5.21,15.04-9.43,6.27-6.05,9.95-15.32,20.95-15.65,2.3-.07,4.63-4.54,6.65-7.2,3.14-4.12,6.15-7.81,12.17-7.85,6.23-.04,7.81-5.64,10.16-10.08Z"/>
  <path class="cls-1" d="M761.19,925.55c-2.08,2.66-4.94,3.76-8.19,4.1,1.88-3.07,3.5-6.65,8.19-4.1Z"/>
  <path class="cls-1" d="M685.41,642.95c-1.3,1.92-3.1,3.67-3.82,5.79-2.87,8.41-7.41,6.7-12.56,2.4,5.33-2.98,8.19-10.93,16.38-8.19Z"/>
  <path class="cls-1" d="M779.62,739.2c-4.77-2.05-4.07-6.29-4.1-10.24,2.73-2.05,5.46-4.1,8.19-6.14,1.03,5.67-1.94,10.85-2.05,16.38h-2.05Z"/>
  <path class="cls-1" d="M755.04,706.43c-3.37-4.1-.68-8.19,0-12.29,3.16-1.95,6.65-2.27,10.24-2.05-.4,4.92-4.89,7.79-6.14,12.29-1.37.68-2.73,1.37-4.1,2.05Z"/>
  <path class="cls-1" d="M675.93,670.23c-1.08-6.78-.32-10.46,4-12.45,1.21-.56,2.75.31,2.96,1.91.6,4.65-3.53,5.91-6.95,10.54Z"/>
</svg>