<?xml version="1.0" encoding="UTF-8"?>
<svg width="512" height="512" id="Layer_1" xmlns="http://www.w3.org/2000/svg" viewBox="0 0 1080 1080">
  <defs>
    <style>
      .cls-1 {
        fill: #042b62;
      }

      .cls-2 {
        fill: #fefefe;
      }
    </style>
  </defs>
  <path class="cls-1" d="M205.11,154.78c13.4-11.8,27.37-22.83,42.87-31.8,3.91,1.71,4.5,5.28,4.91,8.89.44,3.89.3,7.81.3,11.71,0,257.61.03,515.22-.11,772.83,0,7.07,2.61,15.25-5.09,20.61-15.51-9.04-29.56-20.04-42.98-31.9-4.17-5.78-3.19-12.46-3.19-18.91-.04-146.62-.03-293.24-.03-439.86,0-91.23-.01-182.46.03-273.69,0-6.13-.83-12.49,3.29-17.89Z"/>
  <path class="cls-1" d="M247.99,937.03c2.39-3.83,2.01-8.1,2.01-12.33,0-263.13,0-526.26,0-789.39,0-4.23.37-8.5-2.02-12.33,13.41-10.09,27.91-18.37,42.97-25.72,2.74,2.5,2.81,5.81,2.41,9.07-1.93,15.92-.99,31.89-1,47.84-.07,257.02-.05,514.05-.03,771.07,0,10.41-.64,20.86,1.99,31.12.65,2.54.67,5.2-1.28,7.4-15.83-7.54-30.97-16.24-45.06-26.73Z"/>
  <path class="cls-1" d="M293.05,963.76c-5.27-14.44-3.91-29.48-3.91-44.37-.02-265,.03-530-.19-795.01,0-9.17,2.51-18.01,2-27.12,11.31-6.6,23.01-12.41,35.36-16.84,3.86,3.99,3.1,9.09,3.14,13.89.14,18.91.06,37.82.06,56.72,0,269.6.02,539.2-.08,808.79,0,6.65,1.82,13.8-3.12,19.75-11.63-4.12-22.62-9.61-33.26-15.82Z"/>
  <path class="cls-1" d="M326.31,979.59V80.43c12.67-5.71,25.24-11.72,39.12-14.1,1.8,2.23,1.55,4.86,1.52,7.47-.79,85.02-.14,170.05-.31,255.07-.01,6.8-.52,13.74,2.96,20.05,1.54,4.54-.8,8.22-2.83,11.89-13.57,24.5-17.69,51.35-19.79,78.74-.66,8.62,4.58,9.34,11.09,9.33,33.47-.04,66.94-.07,100.41.02,4.8.01,9.82-.77,14.17,2.29,1.62,3.63-1.55,3.74-3.49,4.77-5.98,1.08-12.01.71-18.03.62-13.1.25-26.21.19-39.31.12-19.97-.59-39.96.16-60.12-.4,5.84,7.72,15.25,12.43,18.07,22.42.85,5.18.74,10.38.74,15.58,0,63.73,0,127.47,0,191.2,0,6.5-.05,13,.84,19.44,2.38,5.97-1.53,9.95-4.78,13.9-5.58,6.79-10.55,14.29-17.03,20.11-12.46,11.19-12.34,24.85-9.83,39.4,4.57,7.66,11.86,12.77,17.85,19.12,4.14,4.67,10.18,8.22,9.25,15.85-.47,54.79-.03,109.56-.26,164.33-.02,5.4,1.21,11.2-3.06,15.85-12.92-3.22-25.18-8.21-37.17-13.91Z"/>
  <path class="cls-1" d="M877.48,199.54c29.47,30.07,53.01,64.35,72.38,101.61-.44,13.33-.23,26.67-.23,40.01-.03,86.01.04,172.01-.1,258.02-.01,7.5,1.78,16.1-7.41,20.46-3.59.71-6.56-.8-9.4-2.7-7.46-6.33-12.73-14.87-20.73-20.68-7.57-8.5-15.69-16.47-23.88-24.38-4.9-5.01-9.94-9.86-14.78-14.92-3.07-3.21-4.96-6.66-2.53-11.14,2.67-6.23,2.1-12.8,2.1-19.28.03-103.46-.03-206.93.15-310.39,0-5.69-2.52-12.58,4.46-16.61Z"/>
  <path class="cls-1" d="M205.11,154.78c-.04,157.3-.08,314.6-.11,471.9-.01,92.82,0,185.63.01,278.45-11.99-9.26-23.3-19.25-33.34-30.63-2.8-4.67-3.15-9.81-3.15-15.09,0-219.6,0-439.2,0-658.8,0-5.28.35-10.43,3.15-15.09,10.09-11.4,21.36-21.52,33.44-30.74Z"/>
  <path class="cls-1" d="M171.67,185.52c0,229.66,0,459.32,0,688.98-13.94-12.88-26.54-26.95-37.47-42.48-1.32-5.79-.88-11.67-.88-17.53-.03-191.62.12-383.24-.1-574.86,0-3.94.3-7.8.98-11.66,10.95-15.51,23.52-29.59,37.47-42.45Z"/>
  <path class="cls-1" d="M877.48,199.54c-2.61,3.51-1.38,7.56-1.38,11.35-.07,108.01-.03,216.01-.13,324.02,0,5.44,2.12,12.19-5.82,14.68-3.21,1.23-4.84-1.32-6.9-2.85-4.66-4.47-8.8-9.5-14.18-13.21-5.53-5.26-9.91-11.63-15.84-16.53-3.58-3.61-7.19-7.17-10.71-10.81-3.05-3.16-4.92-6.61-3.11-11.13.71-6.19.66-12.38.66-18.58,0-101.04,0-202.07,0-303.11,0-4.56-.31-9.16.52-13.66.72-3.9,1.63-7.93,7.09-7.5,16.33,16.07,36.1,28.52,49.81,47.34Z"/>
  <path class="cls-1" d="M682.51,69.91c20.57,6.36,40.27,14.73,58.85,25.66.44,3.88.96,7.72.95,11.66-.09,97.11-.02,194.21-.12,291.32,0,5.71,1.23,11.88-3.58,16.63-2.17,1.15-4.38,1.02-6.61.21-8.25-3.49-11.48-12.11-17.82-17.59-2.69-2.33-5.19-4.9-7.96-7.16-7.96-8.94-16.64-17.17-25.03-25.7-3.47-3.53-6.88-7.08-4.61-12.72.68-5.86.67-11.72.67-17.58,0-82.36-.06-164.72.09-247.08.01-6.18-1.92-13.35,5.15-17.64Z"/>
  <path class="cls-1" d="M134.19,227.97c2.3,3.8,2.36,7.99,2.36,12.27-.03,193.17-.03,386.34,0,579.52,0,4.28-.02,8.47-2.35,12.27-12-13.42-22.07-28.2-30.9-43.86-1.76-4.69-1.26-9.6-1.26-14.43.02-162.48.02-324.96,0-487.45,0-4.83-.49-9.74,1.25-14.44,8.86-15.64,18.92-30.44,30.91-43.87Z"/>
  <path class="cls-1" d="M938.63,618.05c5.09.5,7.03-2.7,7.63-6.94.41-2.88.21-5.85.21-8.78,0-96.75-.03-193.5.13-290.25,0-3.69-2.67-8.78,3.26-10.93,26.94,49.04,43.51,101.48,51.81,156.7,10.62,70.69,5.68,140.29-14.05,208.92-.44,1.52-1.26,2.93-1.9,4.39-5.46-7.36-11.55-14.12-18.69-19.9-2.35-1.98-4.02-4.57-6.17-6.73-5.67-6.01-11.62-11.74-17.49-17.55-1.99-2.75-5.95-4.47-4.75-8.92Z"/>
  <path class="cls-1" d="M103.28,271.84c1.49,5.01,2,10.09,2,15.36-.07,161.87-.07,323.74,0,485.61,0,5.26-.49,10.34-1.99,15.36-14.32-21.47-26.39-44.11-35.48-68.3,1.22-7.09.97-14.26.97-21.41.03-112.3.03-224.59,0-336.89,0-7.14.25-14.31-.98-21.41,9.1-24.19,21.09-46.88,35.47-68.33Z"/>
  <path class="cls-1" d="M735.07,414.63c6.89-1.84,3.88-7.5,3.89-11.39.18-98.58.12-197.17.22-295.75,0-4-1.74-8.55,2.19-11.92,14.74,7.57,29.84,14.53,42.99,24.85,1.3,2.37,1.45,4.91,1.43,7.56-1.05,104.17-.17,208.34-.5,312.5-.02,5.82.7,11.75-1.61,17.36-2.69,4.11-5.78,2.63-8.74.44-3.28-2.42-5.99-5.49-8.85-8.35-6.68-6.83-12.94-14.12-20.65-19.9-4.94-4.13-10.35-7.96-10.35-15.41Z"/>
  <path class="cls-1" d="M780.07,459.62c3.69-3.5,1.99-8.01,1.99-12.04.1-103.3.1-206.59.02-309.89,0-5.92.47-11.66,2.28-17.29,15.49,9.16,29.99,19.68,43.32,31.79-6.12,2.62-4.4,8.11-4.41,12.74-.06,107.45-.01,214.91-.19,322.36,0,3.89,3.02,9.55-3.84,11.43-2,.97-3.51-.15-5.03-1.19-5.4-4.67-9.8-10.42-15.71-14.54-5.08-3.05-7.18-9.12-12.33-12.1-3.13-3.17-8.68-5.04-6.1-11.28Z"/>
  <path class="cls-1" d="M682.51,69.91c-2.53,4.13-2.11,8.73-2.11,13.27,0,87.46.04,174.92-.1,262.39,0,3.66,2.54,8.93-3.94,10.39-7.48.05-9.67-7.79-15.44-10.31-10.08-11.22-20.57-22-32.72-31.05-3.12-2.33-4.13-5.59-3.5-9.43,1.45-7.73,1.74-15.5,1.73-23.33-.04-70.23-.06-140.45.04-210.68,0-5.7-1.35-11.83,3.14-16.76,17.7,4.95,36.1,7.52,52.92,15.5Z"/>
  <path class="cls-1" d="M549.93,42.73c12.53-.33,24.91.88,37.12,3.73,1.34,6.12.63,12.32.64,18.48.04,68.97.04,137.94,0,206.91,0,5.49.65,11.09-1.65,16.37-2.8,4.15-6.88,3.11-10.6,2.23-12.37-2.95-24.78-5.51-37.5-6.48-3.96-.3-7.67-1.64-9.79-5.53-1.81-4.35-1.55-8.95-1.55-13.5-.03-68.73-.03-137.47-.02-206.2,0-1.95-.02-3.91.1-5.86.62-10.06,1.49-10.96,11.66-10.88,3.87.03,7.82-.76,11.6.73Z"/>
  <path class="cls-1" d="M67.81,340.16c4.67,1.96,4.15,6.07,4.15,9.98,0,119.91,0,239.81,0,359.72,0,3.91.51,8.02-4.15,9.99-14.93-31.61-24.18-65.05-30.47-99.24-17.36-94.4-8.15-186.3,27.69-275.42.71-1.76,1.84-3.36,2.77-5.03Z"/>
  <path class="cls-1" d="M441.65,47.21c14.27-2.49,28.55-4.83,43.11-4.46,3.65,3.65,3.12,8.4,3.13,12.86.09,71.18.08,142.37.03,213.55,0,3.57-.02,7.16-1.22,10.6-6.47,6.95-43.36,15.65-50.51,11.9-1.61-3.71-1.5-7.64-1.5-11.54-.05-72.57-.08-145.13.06-217.7.01-5.86-1.52-12.95,6.91-15.22Z"/>
  <path class="cls-1" d="M584.37,289.84c.06-77.18.09-154.36.24-231.54,0-4-1.71-8.59,2.43-11.84,14.5.96,28.69,3.58,42.55,7.95-.02,78.53-.04,157.06-.05,235.59,0,6.79,0,13.57-4.58,19.27-1.87,1.2-3.89.88-5.54-.12-10.28-6.23-21.32-10.88-32.3-15.68-1.51-.66-2.7-1.77-2.76-3.63Z"/>
  <path class="cls-1" d="M484.77,281.37c0-79.54,0-159.08,0-238.62,21.72-2.66,43.44-2.81,65.17-.02q-20.16.6-20.16,20.99c0,71.99,0,143.98-.01,215.96-2.19,2.33-5.1,2.74-8.02,2.79-9.38.16-18.75.37-28.07,1.66-3.2.44-6.52.07-8.89-2.75Z"/>
  <path class="cls-1" d="M441.65,47.21c-4.41,2.66-3.86,6.97-3.86,11.2.04,78.33.05,156.66.06,234.99-3.45,5.38-32.72,22.14-38.28,21.86-.99-.05-1.71-.87-2.46-1.52-3.55-4.41-3.48-9.7-3.49-14.89-.09-76.4-.07-152.81-.01-229.21,0-4.52-.3-9.2,3.12-12.93,14.61-4.89,29.73-7.35,44.92-9.49Z"/>
  <path class="cls-1" d="M396.73,56.7c0,81.13,0,162.27,0,243.4,0,5.19-.61,10.52,3.52,14.72.97,1.21.8,2.6-.2,3.44-11.36,9.59-19.58,22.23-30.96,31.78-7.05-2.56-5.57-8.66-5.57-13.94-.06-65.64-.04-131.29-.04-196.93,0-18.85.1-37.7-.06-56.54-.05-5.57.38-10.98,2.02-16.3,9.83-5.18,20.51-7.59,31.31-9.63Z"/>
  <path class="cls-1" d="M363.47,993.5c0-57.16,0-114.31,0-171.47,0-4.21-.42-8.48,1.97-12.3,4.47-1.18,6.15,2.8,8.92,4.79,3.47,3.59,7.01,7.11,10.69,10.51,5.33,6.12,13.17,10.41,14.3,19.61,1.07,49.16.37,98.31.36,147.45,0,4.21-.21,8.63-4.86,10.91-10.7-2.37-21.34-4.93-31.37-9.5Z"/>
  <path class="cls-1" d="M394.85,1003c2.62-3.81,1.86-8.15,1.86-12.34.03-49.87.02-99.74.02-149.61.74-.63,1.58-.81,2.51-.53,6.56,4.33,11.19,10.76,17.13,15.79,4.9,5.36,11.52,9.52,12.34,17.73,1.11,42.11.37,84.21.39,126.3,0,3.53-.14,7.2-3.25,9.79-10.46-1.81-20.9-3.72-31-7.14Z"/>
  <path class="cls-1" d="M923.86,802.2c-11.62,18.12-24.39,35.35-39.46,50.79-18.34,7.44-35.81,16.61-53.03,26.31-1.14.64.2.59-.83.38-12.53-2.62-20.29,7.98-30.78,10.94-8.25,2.33-14.22,9.02-22.2,12.03-3.32,1.25-6.24,3.51-9.69,4.63-4.91.99-9.37.82-11.74-4.62,2.72-9.53,6.39-18.34,17.28-21.15,5.59-1.44,8.13-6.12,11.31-10.15,4.99-5.49,10.25-10.26,17.94-12.14,6.47-1.58,8.75-9.2,14.66-12,5.2-.89,9.86-2.66,13.77-6.52,4.18-4.13,9.43-6.66,14.87-8.95,15.42-6.5,30.95-12.87,44.56-22.9,1.87-1.38,4.27-3.01,6.22-1.74,6.7,4.39,10.59.02,15.07-3.88,3.54-3.08,7.65-5.15,12.04-1.03Z"/>
  <path class="cls-1" d="M425.84,1010.14c.08-46.58.15-93.16.23-139.74,3.28-1.27,4.94,1.37,7.06,2.91,6.07,6.06,12.06,12.21,18.32,18.1,4.47,5.41,11.95,8.91,11.21,17.64-.56,30.39-.07,60.77-.29,91.15-.04,5.09.81,10.45-3.03,14.8-11.36-.25-22.42-2.56-33.49-4.86Z"/>
  <path class="cls-1" d="M459.33,1014.99c0-32.38,0-64.76,0-97.13,0-4.2-.42-8.45,1.96-12.26,5.62-.97,7.39,4.29,10.92,6.71,5.35,5.5,10.76,10.93,16.34,16.21,5.14,6.01,12.76,10.15,14.33,18.88.98,14.93.68,29.87.32,44.79-.26,10.72-.73,20.93,10.84,26.55-18.36.61-36.59-.75-54.71-3.75Z"/>
  <path class="cls-1" d="M768.44,905.61c11.66-6.26,21.46-16.11,35.38-18.14,1.94-.28,3.73-2.46,5.32-4.03,4.36-4.32,8.17-9.81,15.53-4.77.94.65,3.41.2,4.48-.63,10.92-8.53,24.67-11.75,36.03-19.36,5.88-3.94,12.42-5.16,19.23-5.68-18.01,22.01-38.58,41.32-61.23,58.46-4.36-.24-7.73,2.46-11.52,3.71-12.73,4.2-21.71,16.43-34.76,18.01-12.32,1.49-23.02,7.75-35.15,8.9-1.65.16-3.46.54-4.45,1.76-7.01,8.61-19.09,9.29-26.59,17.38-4.13,4.46-9.6,2.43-14.41-.14-1.49-2.15-.4-4.29,1.3-4.9,12.18-4.39,18.18-17.99,31.4-20.86,2.83-.62,5.01-3.13,6.71-5.5,4.71-6.55,10.26-10.93,18.69-12.76,5.7-1.24,7.88-9.3,14.05-11.46Z"/>
  <path class="cls-1" d="M768.44,905.61c-6.4,5.83-8.42,17.55-20.77,15.42-.52-.09-1.41.35-1.71.81-6.98,10.98-18.89,15.57-28.67,22.98-6.98,5.29-14.09,10.47-21.24,15.56-3.74,8.02-10.35,12.88-17.87,17.12-14.07,7.94-28.25,15.76-40.73,26.19-16.56,5.29-33.52,8.56-50.85,9.96-2.41-10.2,6.13-14.79,12.14-16.93,12.24-4.36,21.22-13.48,31.64-19.99,12.4-7.74,26.04-14.41,36.81-24.87,1.89-1.84,4.26-3.02,6.88-3.38,7.34-1.01,12.27-5.41,16.22-11.26,1.14-1.6,2.37-3.87,4.05-4.05,11.78-1.3,19.56-10.74,30.06-14.39,6.09-2.12,9.5-7.88,15.37-10.06,5.02-.77,10.3-1.01,13.36-6.11,1.03-.9,2.11-1.63,3.55-.91,2.88,4.4,7.34,4.07,11.74,3.91Z"/>
  <path class="cls-1" d="M983.49,678.7c-1.84,8.95-5.03,17.42-8.9,25.66-23.68,8.77-43.93,24.19-67.47,33.66-23.54,9.47-45.97,22.01-68.42,34.11-4.73,2.82-7.94,7.81-13.51,9.44-1.39.32-2.75.26-4.09-.24-2.2-1.22-4.78-3.36-6.9-.89-5.91,6.86-15.97,6.4-22.01,13-1.65,1.81-4.37,2.93-6.65.16,1.32-6.81,6.19-10.75,12.05-12.87,6.38-2.31,11.54-5.77,15.71-10.98,4.46-5.58,13.19-5.5,16.9-11.09,8.42-12.66,25.04-14.25,33.71-26.48,2.79-3.94,8.85-3.61,13.44-5.14,10.91-6.71,21.93-13.21,32.64-20.22,1.61-1.06,2.89-3.15,4.72-3.32,15.5-1.46,26.27-13.05,39.93-18.4,9.3-3.64,18.32-8.38,28.86-6.39Z"/>
  <path class="cls-1" d="M821.26,780.41h3.91c5.77-1.03,8.59-5.6,11.74-9.78,13.07-6.93,25.11-15.93,40-19.21,3.72-.82,7.12-3.13,9.83-6.14,4.01-4.45,8.42-8.11,14.98-8,4.08.07,5.98-3.55,8.64-5.85,1.67-1.45,3.7-4.54,5.55-2.98,7.45,6.3,10.35-1.1,15.37-3.91,13.9-7.77,26.3-19.01,43.3-20.16-1.39,5.45-3.17,10.74-6.35,15.46-16.89,12.89-33.33,26.5-53.77,33.71-18.36,11.8-36,24.65-57.63,30.69-8.15,2.28-16.42,6.15-23.32,11.81-1.26,1.03-2.58,2.61-4.06,2.58-16.75-.43-26.95,12.85-40.49,19.09-.9.41-1.88.43-2.86.24-3.06-5.75,1.43-9.31,4.96-10.95,11.45-5.33,18.21-15.27,26.1-24.18,1.1-1.24,2.41-2.15,4.1-2.41Z"/>
  <path class="cls-1" d="M637.46,1003.69c.15-7.04,6.48-8.66,10.84-11.38,16.27-10.13,33.73-18.44,47.75-31.93,8.39,2.5,13.61-3.96,20.21-6.23,11.28-3.88,17.68-17.6,31.68-14.95,2.41.46,4.88-1.29,6.83-3.24,3.38-3.39,7.12-5.42,12.22-3.28,1.63.68,3.93.37,5.75-.14,14.52-4.03,25.73-14.4,38.96-21.01,4.93-2.46,7.55-3.44,11.46-.08-51.58,42.62-110.13,71.73-174.32,89.88-3.72,1.05-7.59,1.59-11.39,2.36Z"/>
  <path class="cls-1" d="M923.86,802.2c-6.9-1.8-10.88,2.6-14.97,6.95-3.24,3.44-6.49,7.18-10.67.75-1.63-2.51-3.85-1.56-5.81.17-13.52,11.93-30.49,17.37-46.58,24.37-5.16,2.25-10.17,4.61-13.8,8.77-4.07,4.64-8.74,6.48-14.67,5.68-3.43-4.89-.37-8.44,2.47-12.04,7.42-4.08,13.74-9.39,18.53-16.48,1.63-2.41,3.71-5.17,6.56-5.38,8.11-.6,12.31-6.23,16.75-11.76,2.44-2.09,5.07-3.87,8.13-4.93,4.14-.46,7.62-2.06,9.87-5.78,6.93-5.71,14.92-9.74,22.43-14.33,9.8-6,21.01-9.38,30.08-16.69,5.1-4.11,10.92-8.59,18.39-4.51-7.16,16.1-16.55,30.88-26.7,45.22Z"/>
  <path class="cls-1" d="M514.05,1018.74q-13.63-4.01-13.63-19.54c0-18.16,0-36.31,0-54.47,1.88-1.11,3.28.03,4.73.97,2.28,1.96,4.34,4.16,6.55,6.2,3.67,3.69,7.37,7.35,11.06,11.02,2.64,2.79,5.36,5.52,8.13,8.18,3.27,3.38,6.6,6.68,10,9.93,5.85,5.93,11.73,11.84,17.74,17.62,3.89,5.82,12.36,8.3,12.41,16.92-18.88,3.12-37.89,3.9-56.98,3.16Z"/>
  <path class="cls-1" d="M983.49,678.7c-15.7,2.98-30.09,9.22-44.04,16.87-3.13,1.72-6.25,3.13-8.79,5.71-1.58,1.6-3.97,4.44-5.13,4.06-8.85-2.87-12.8,5.39-18.94,7.42-11.08,3.66-17.83,13.46-28.58,16.78-3.05-4.9-.89-10.29-1.49-15.43,6.09-8.05,12.31-15.94,22.77-18.7,2.92-.77,5.25-2.61,7.27-4.77,4.33-4.62,9.08-8.35,15.73-8.95,2.31-.21,4.44-1.42,5.96-3.14,11.15-12.61,28.19-17.19,39.76-29.21,6.66,6.66,16.35,10.85,17.74,21.8.16,2.79-.56,5.31-2.24,7.55Z"/>
  <path class="cls-1" d="M571.03,1015.58c-4.63-5.35-9.27-10.71-13.9-16.06,8.81-7.09,18.17-13.31,28.64-17.71,7.6-4.3,14.01-9.46,24.47-8.89,5.53.3,14.24-5.53,19.85-10.37,7.99-6.9,18.98-8.53,26.05-16.51.82-.93-.25-.62.78-.43,12.13,2.24,21.17-7.96,32.69-7.95.99,0,1.85.47,2.54,1.21-4.43,6.23-9.3,11.76-17.84,11.82-.94,0-2.25.11-2.76.71-9.52,11.08-23.49,15.76-35.08,23.83-11.38,7.93-22.04,17.32-35.55,22.46-6.56,2.49-12.62,7.89-14.3,15.97-5,2.24-10.34,1.7-15.58,1.93Z"/>
  <path class="cls-1" d="M870.17,799.97c-2.71,1.1-4.42,4.2-7.83,3.91-2.95.51-3.11-1.65-3.47-3.62,1.04-6.85,4.89-11.03,11.77-12.31,2.25-.42,4.77-.79,6.07-2.71,8.14-12.11,21.38-18.45,31.57-28.22,1.87-1.8,3.59-3.72,4.93-5.95,17.58-2.72,28.09-17.81,43.28-24.74,4.06-1.85,7.83-4.31,11.74-6.5-4.36,13.11-10.45,25.4-17.68,37.15-7.7.57-14.59,2.95-19.86,8.9-2.69,3.04-5.68,5.27-10.09,4.79-2.31-.25-4.71.07-6.29,1.97-9.12,10.92-24.7,11.45-34.35,21.47-3.42,1.69-6.45,4.03-9.78,5.87Z"/>
  <path class="cls-2" d="M369.08,350.04c6.34-11.49,16.26-19.87,25.21-29.1,1.98-2.04,5.16-2.93,5.96-6.12,12.54-7.14,25.07-14.28,37.61-21.42,15.32-5.26,31.04-8.96,46.92-12.02,14.99-.56,29.99-1.13,44.98-1.69,18.44,2.16,36.71,5.16,54.62,10.16,13.97,5.56,27.5,12.04,40.59,19.43,13.8,10.28,26.46,21.76,37.4,35.08,16.61,17.01,23.53,38.55,28.51,61.01,1.15,5.37,2.32,10.72,2.07,16.27-.5,12.66,1.12,25.35-.46,37.99-3,16.54-6.73,32.89-13.8,48.27-7.35,16.53-16.44,32.11-26,47.44-2.74,3.63-5.76,7.05-8.07,11.01-11.77,16.7-23.54,33.41-36.92,48.89-10.52,13.65-21.96,26.54-32.69,40.01-1.44,1.81-4.69,3.1-2.45,6.38,25.08,1.47,50.09.29,75.09.6,13.65.17,27.3-.07,40.95.07,12.28.13,13.64,1.58,14.22,14.21.28,10.31.33,20.63-.01,30.94.17,4.23.2,8.47,0,12.7.34,11.52.21,23.03.12,34.55-.31,7.31.67,14.65-.61,21.93-3.31,8.86-10.98,6.16-17.48,6.6-3.65.15-7.3.2-10.96-.01-12.25.3-24.49.43-36.74.05-17.49.43-34.97.3-52.46.15-16.83-.08-33.66.44-50.48-.14-7.98.01-15.95.4-23.93.06-9.75-.09-19.51.41-29.26-.08-9.12.22-18.24.29-27.36.09-7.89-.12-15.78.36-23.67-.1-9.15.2-18.29.38-27.44,0-11.08.28-22.16.33-33.24.09-10.48-.69-21.3,2.44-31.36-2.85-2.15-14.57-4.82-28.58,7.69-41.16,9.41-9.47,18.73-19.49,25.5-31.34,5.31-10.81,14.61-18.5,21.87-27.79,6.39-8.17,13.78-15.54,19.38-24.34,19.68-21.84,38.01-44.82,56.73-67.48,1.65-2,3.18-4.08,4.67-6.2,14.92-17.95,29.2-36.4,42.97-55.24,11.14-15.82,22.64-31.41,30.75-49.13,4.27-9.19,8.29-18.45,8.88-28.77.01-10.26,1.35-20.69-4.25-30.14-5.2-7.51-9.6-15.92-19.88-17.75-27.6-11.17-53.94,8.38-55.73,34.57-2.26,5.41,1.56,12.3-4.1,16.87-39.37-.1-78.75-.43-118.12-.1-8.22.07-10.41-2.27-10.17-10.37.97-32.75,8.17-63.67,24.93-92.08Z"/>
  <path class="cls-1" d="M414.04,657.16c-12.93,18.1-27.39,34.92-42.9,50.84-4.04-1.96-3.77-5.64-3.76-9.27.06-73.98.1-147.96.15-221.94,6.3.18,8.57,6.01,12.79,9.1,6.66,6.8,13.37,13.56,20.29,20.13,4.79,5.34,11.4,9.38,12.39,17.43,1.16,42.98.13,85.95.56,128.91.02,1.63-.16,3.24.49,4.79Z"/>
  <path class="cls-1" d="M472.43,452.59c2.26-6.13-.75-12.9,2.34-18.93.84.55,1.32,1.36,1.79,2.22,1.53,2.79-.97,7.77,2.61,8.64,4.07.99,6.63-3.36,9.13-6.21,10.51-11.95,24.32-20.37,34.61-32.58,2.73-3.24,6.81-4.9,10.72-6.53,10.36,1.42,14.96,9.6,20.11,17.13-11.42,13.11-24.03,24.95-37.75,35.63-7.1,1.81-12.77,5.7-18.34,10.53-7.53,6.53-17.57,9.41-25.47,15.79-2.9,2.34-7.49,1.87-11.04-.69.18-8.73,3.4-16.43,8-23.67,1.09-.45,2.18-.9,3.28-1.35Z"/>
  <path class="cls-1" d="M469.15,453.94c-.67,8.41-3.85,15.98-7.87,23.25-.76,8.09-6.63,13.27-12.04,17.72-9.1,7.49-16.81,16.05-24.06,25.17-2.22,2.79-4.34,5.78-8.53,5.57-3.49-.28-4.65-3.13-6.17-5.59-3.88-4.52-7.76-9.05-11.64-13.57,16.83-18.22,33.42-36.68,52.59-52.57,5.91,0,11.81,0,17.72.01Z"/>
  <path class="cls-1" d="M451.44,453.93c-10.59,12.88-21.56,25.65-34.48,36.01-6.48,5.2-8.68,14.92-18.11,16.56-7.28-5.76-13.84-12.24-19.56-19.57,8.81-12.46,20.03-22.66,31.08-33.02,13.69,0,27.38,0,41.07.01Z"/>
  <path class="cls-1" d="M410.37,453.91c-8.36,12.89-19.55,23.11-31.08,33.02-3.92-3.38-7.85-6.75-11.77-10.13-6.82-7.22-13.64-14.44-21.62-22.88h64.47Z"/>
  <path class="cls-1" d="M369.3,780.63c11.1,0,22.19,0,33.29,0,1.96,2.27.88,4.46-.65,6.12-8.15,8.87-15.63,18.31-23.57,27.35-1.29,1.47-3.05,2.49-5.22,1.58-2.57-1.99-5.15-3.97-7.72-5.96-3.32-3.87-6.63-7.75-9.95-11.62,2.54-7.46,7.65-12.88,13.82-17.47Z"/>
  <path class="cls-1" d="M369.3,780.63c-3.29,6.86-8.72,12.04-13.82,17.47-6.48-5.23-12.4-11.03-17.54-17.6,10.45.04,20.91.09,31.36.13Z"/>
  <path class="cls-1" d="M700.06,676.73c1.43-10.3-3.36-12.47-13.09-12.32-37.91.6-75.84.32-113.76.04-1.73-.01-7.18,3.81-6.16-3.06,5.53-1.69,11.22-.99,16.86-1.12,13.52-.36,27.04-.25,40.56-.21,4.39.52,8.81.04,13.2.22,9.11.43,18.4-.87,27.33.46,19.84,2.96,33.67-7.38,47.78-18.71,10.05-8.07,21.3-14.81,32.52-20.99,13.65-7.52,26.23-16.6,39.36-24.8,13.34-8.32,27.23-16.14,39.63-25.61,12.69-9.69,29.59-12.13,40.01-24.99,1.94,1.31,3.89,2.63,5.83,3.94,6.53,7.17,13.06,14.34,19.59,21.51,2.58,4.41-.74,6.52-3.44,8.88-20.93,5.92-37.21,20.28-55.84,30.29-10.32,5.55-18.51,16.98-32.47,15.12-1.97-.26-3.7,1.11-5.22,2.39-14.59,12.26-31.85,20.06-48.19,29.47-10.05,5.79-20.95,10.43-29.72,18.44-4.45,4.06-9.5,5.87-14.8,1.06Z"/>
  <path class="cls-1" d="M885.82,578.92c1.1-2.71,4.2-4.42,3.91-7.82,8.76,6.9,16.27,15.04,23.46,23.5.34,6.88-4.87,10.54-9.75,11.8-12.66,3.27-22.41,11.91-33.12,18.11-12.5,7.23-24.8,15.68-37.49,22.52-11.44,6.17-20.6,16.81-34.76,18.45-6.09.7-9.27,7.91-14.78,10.81-16.95,10.7-33.99,21.37-51.11,31.66-8.05,4.83-18.01,8.16-26.75,12.99-1.72.95-3.83.4-5.37-1.16,0-3.91,0-7.82,0-11.74,13.12-11.03,27.18-21.08,41.18-30.65,10.71-7.32,20.39-17.02,33.14-21.41,1.23-.43,2.69-.81,3.44-1.79,9.52-12.47,25.55-16.29,36.15-27.3,2.29-2.38,4.98-4.18,8.21-5.12,2.19-.64,5-.92,6.2-2.68,7.79-11.42,21.78-14.68,31.11-24.04,7.45-7.48,18.76-8.77,26.34-16.11Z"/>
  <path class="cls-1" d="M782.14,674.77c3.36-3.03,6.79-5.99,10.06-9.12,2.61-2.49,4.82-5.35,9.16-3.07,1.85.97,3.74-.26,5.32-1.57,18.55-15.39,40.99-24.64,60.97-37.91,9.69-6.44,19.46-15.54,32.47-17.5,5.93-.89,9.82-6.02,13.1-11.01,7.99,5.05,12.88,13.2,19.57,19.55.65,5.91-3.57,8.36-7.95,9.39-6.67,1.56-12.01,4.78-16.61,9.63-1.12,1.18-2.4,2.52-3.96,2.79-18.44,3.14-30.55,17.33-45.6,26.33-6.05,3.62-12.5,5.33-18.79,7.85-8.89,4.22-16.23,11.22-25.82,14.2-1.48.46-2.98,2.47-4.24,2.06-8.57-2.81-15.65-.36-22.77,4.62-2.54,1.77-5.39-1.26-6.39-4.26-1.39-4.16-1.17-8.25,1.49-11.98Z"/>
  <path class="cls-1" d="M838.87,668.91c14.22-3.86,24.24-15.35,37.59-20.78,4.41-1.79,7.07-5.63,10.44-8.64,3.62-3.24,7.09-6.94,12.79-4.82.84.31,2.48.51,2.72.12,7.01-11.5,22.74-10.13,30.36-20.64,1.96,1.3,3.91,2.6,5.87,3.9,1.96,2.61,3.92,5.21,5.88,7.82.81,1.06,1.58,2.45.79,3.51-6.71,8.88-13.68,17.49-25.61,19.57-1.58-.16-3.54-1.21-4.7.04-7.41,7.93-19.26,7.88-26.99,15.19-1.4,1.32-3.38,2.32-5.3,2.37-20.11.56-34.47,13.71-51.15,22.14-8.39,4.24-18.33,6.99-27.69,10.05-.4-9.11,7.22-14,12.95-16.21,8.51-3.29,14.75-9.08,22.07-13.61Z"/>
  <path class="cls-1" d="M864.31,545.64c-3.26,7.85-8.22,13.52-17.3,14.82-5.56.79-9.61,5.2-14.36,7.51-12.27,5.95-20.99,17.49-34.62,21.12-2.29.61-4.31,2.79-6.12,4.58-5.84,5.76-12.03,10.88-20.16,13.09-.93.25-2.06.57-2.61,1.26-9.56,12-24.57,16.25-36.78,24.16-10.61,6.88-22.17,13.64-31.13,21.78-14.69,13.34-30.73,7.51-46.33,9-5.15.49-10.4-.03-15.6-.08-2.58-5.51,1.82-7.85,5.16-9.89,17.45-10.66,34.3-22.26,51.46-33.28,8.81-5.66,18.55-11.89,30.36-13.92,8.59-1.48,15.77-9.71,23.91-14.45,9.28-5.41,18.4-11.04,28.56-14.71,22.81-16.69,48.97-27.97,71.84-44.56,5.44,3.66,9.88,8.32,13.71,13.59Z"/>
  <path class="cls-1" d="M815.4,496.74c1.28.66,2.56,1.33,3.84,1.99,5.24,5.86,10.48,11.72,15.73,17.57.58,6.63-5.33,8.87-8.78,12.7-2.33,2.59-5.59,4.24-8.08,6.75-15.3,12.38-30.92,26.1-49.37,31.34-16.17,4.59-28.55,14.03-42.71,21.11-1.92,0-3.92-.51-5.68.74-26.89,19.22-57.39,32.41-84.8,50.76-.81.54-1.73,1.65-2.46,1.48-10-2.41-16.52,5.36-24.74,8.1-4.42,1.47-8.51,2.85-11.98,6.04-2.14,1.97-4.55,3.9-7.85,2.27.38-9.34,7.44-12.99,14.52-15.94,4.31-1.79,8.25-3.68,11.42-7.09,3.64-3.91,7.76-6.89,13.33-7.35,1.62-.13,3.52-.45,4.51-1.65,8.51-10.29,21.05-15.06,31.71-22.12,12.85-8.51,24.38-18.95,38.47-25.83,9.25-4.51,16.26-12.8,23.87-19.83,5.73-5.3,11.11-10.96,17.56-15.43,16.4-10.9,33.72-20.33,50.12-31.32,7.07-4.74,15.22-7.99,21.34-14.3Z"/>
  <path class="cls-1" d="M817.35,533.92c5.55-6.19,13.25-10.23,17.61-17.62,6.76,3.71,10.01,10.91,15.63,15.74,0,4.02-2.97,5.46-5.97,6.81-10.47,4.72-19.12,12.38-29.41,17.73-12,6.25-24.86,12.58-35.04,22.33-1.01-10.29,6.59-15.45,13.32-20.2,9.66-6.82,16.85-15.62,23.85-24.79Z"/>
  <path class="cls-1" d="M689.88,460.89c.22-13.45.44-26.9.66-40.35,2.65-.16,3.46,1.92,3.46,3.72-.02,9.13,5.35,6.51,10.3,4.91,1.87-.6,3.69-1.52,4.9-3.02,5.75-7.13,13.84-10.3,22.05-13.32,1.28.6,2.55,1.19,3.83,1.79,3.58,4.89,6.26,10.56,11.77,13.81-1.16,7.06-7.71,9.77-12.45,12.39-12.89,7.12-23.67,17.77-37.91,22.53-2.84.95-6.16,3.08-6.6-2.46Z"/>
  <path class="cls-1" d="M731.24,412.84c-.15,3.21-2.65,4.84-5.04,4.97-6.22.34-10.29,4.16-13.26,8.54-4.41,6.49-12.13,4.93-17.64,8.56-2.3,1.51-2.83-1.33-3.12-3.26-.55-3.7,1.25-7.76-1.65-11.11-.68-5.24-1.35-10.49-2.03-15.73,5.45-6.33,11.14-12.37,19.21-15.43,10.01,5.65,14.66,16.66,23.52,23.46Z"/>
  <path class="cls-1" d="M707.72,389.38c-5.86,5.82-11.54,11.86-19.21,15.43-4.87-21.81-13.42-42.04-26.14-60.46,6.01,2.25,8.55,8.67,13.99,11.6,10.46,11.14,20.91,22.28,31.37,33.42Z"/>
  <path class="cls-1" d="M967.99,649.35c-5.07,8.5-11.85,14.94-21.53,17.87-4.19,1.27-7.3,4.03-10.3,7.06-5.15,5.2-9.52,11.82-18.48,10.57-1.03-.14-2.59.81-3.33,1.72-9.91,12.06-27.07,14.45-36.34,27.32-5.3,6.44-11.82,10.52-20.07,12.82-9.01,2.51-17.69,6.4-24.84,12.89-2.68,2.43-5.73,4.95-9.49,4.13-11.36-2.47-20.11,4.89-28.22,9.67-8.62,5.09-17.1,10.56-26.41,14-8.11,3-14.08,10.97-23.75,10.06-1.91-.85-3.01-2.38-3.61-4.32-.28-5.87,1.58-10.61,8.11-11.03,6.54-.42,9.82-4.33,12.4-9.47,2.58-5.15,5.25-9.79,12.45-8.15,3.46.79,5.16-2.05,6.61-4.68,1.73-3.12,3.14-6.41,4.94-9.51.49-.84.91-1.93,1.7-2.32,12.65-6.22,22.75-17.28,37.35-19.76,2.33-.4,4.41-1.31,5.96-2.98,6.43-6.9,14.88-10.01,23.51-12.86,4.63-.45,8.92-1.65,12.43-4.98,1.65-1.57,3.58-3.27,5.79-3.51,15-1.64,26.56-10.53,38.8-18.02.83-.51,1.81-1.45,2.58-1.27,9.49,2.28,16.12-5.06,24.2-6.94,9.8-2.27,17.27-7.01,23.69-14.21,1.95,1.96,3.91,3.92,5.86,5.88Z"/>
  <path class="cls-1" d="M962.12,643.48c-1.57,10.66-10.62,13.09-18.6,15.29-5.12,1.41-9.98,2.28-13.71,6.26-2.87,3.06-5.86,5.46-9.92,1.78-2.15-1.94-4.29-1.51-5.97.42-7.35,8.44-18.72,13.75-27.45,15.91-11.23,2.78-19.95,11.94-31.94,11.19,1.81-9.19,8.18-14.11,16.43-16.82,2.69-.88,6.37-.08,7.97-2.77,8.31-13.95,26.46-14.93,35.82-27.43,1.03-1.38,2.9-1.17,4.33.08,11.14-4.02,19.85-10.92,25.43-21.52,6.65,5.09,12.52,10.96,17.61,17.61Z"/>
  <path class="cls-1" d="M650.18,555.17c8.75-15.62,17.49-31.23,26.24-46.85,2.32.36,4.83.46,6.48-1.28,6.62-6.97,15.49-10.56,23.07-15.95,7.9-5.62,16.97-10.28,23.47-17.16,10.75-11.38,25.08-16.9,37.05-26.08,4.53,3.93,9.05,7.86,13.58,11.79.61,4.9,4.39,7.27,7.89,9.86.71,4.87-3.33,5.71-6.33,7.36-16.21,8.92-31.45,19.28-46.72,29.73-10.27,7.03-20.94,13.8-31.8,20.13-14,8.16-27.39,17.41-40.93,26.37-3.64,2.41-7.14,6.33-11.99,2.09Z"/>
  <path class="cls-1" d="M766.49,447.84c-4.48,6.6-9.95,11.81-18.07,13.66-1.79.41-3.93,1.34-4.96,2.73-9.08,12.3-23.28,18.28-34.62,27.8-8.16,6.85-19.09,10.32-26.48,18.91-2.47,2.87-5.34,1.48-5.93-2.61,5.27-15.58,10.51-31.18,13.46-47.42,7.17,3.1,14.07-2.04,17.52-5.11,12.14-10.81,28.25-15.55,39.44-27.35,7.57,5.44,13.79,12.24,19.66,19.4Z"/>
  <path class="cls-1" d="M815.4,496.74c-2.79,7.3-7.24,12.85-15.57,13.69-5.2.53-7.04,5.39-10.8,7.63-14.6,8.69-29.36,17.12-44.07,25.65-10.93,7.18-22.07,14.04-32.82,21.49-6.66,4.62-14.64,6.86-20.99,12-.74.6-1.95.99-2.77.62-13.73-6.23-20.64,7.15-30.82,10.96-4.59,1.72-7.9,6.92-13.88,4.59-.78-.73-1.24-1.94-.59-2.55,10.64-9.86,18.55-22.84,32.73-28.66,1.82-.74,3.72-1.51,5.09-2.87,8.11-8.09,17.58-14.16,27.82-19.13,7.12-10.01,19.27-12.69,28.85-19.03,20.51-13.56,42.22-25.34,62.14-39.89,6.12,4.26,11.17,9.61,15.67,15.51Z"/>
  <path class="cls-1" d="M799.73,481.24c-2.88,5.57-7.59,10.19-12.67,12.62-16.12,7.71-30.4,18.41-45.43,27.72-10.63,6.58-23.01,10.74-31.87,20.17-2.03,1.64-4.18,1.55-6.36.39-2.12-1.12-4.64-2.09-6.34-.15-6.64,7.59-17.23,8.53-24.56,15.36-6.02,5.6-14.82,7.49-21.69,12.53-3.97,2.92-6.39.92-7.55-4.58,1.27-4.09,3.73-7.36,6.92-10.13,1.91-.14,4.27.39,5.67-.53,12.94-8.49,25.16-18.28,38.72-25.59,11.14-6,20.38-14.81,32.29-19.65,9.51-3.86,15.68-12.95,25.28-17.63,12.57-6.13,23.93-14.74,35.81-22.28,5.76,2.08,6.24,9.45,11.77,11.75Z"/>
  <path class="cls-1" d="M429.98,780.63c7.81,0,15.63,0,23.44,0,1.3,3.21-.21,5.98-2.3,7.8-11.95,10.44-19.56,24.46-30.14,36.01-5.23,3.26-9.16,7.99-13.64,12.09-2.47,2.26-4.42,5.82-8.77,4.6-.62-.02-1.23-.04-1.85-.08-4.61-5.2-9.23-10.4-13.84-15.6,14.57-16.12,31.22-30.07,47.1-44.83Z"/>
  <path class="cls-1" d="M429.98,780.63c-.04,3.73-2.9,5.68-5.2,7.87-11.95,11.39-23.98,22.69-35.95,34.06-1.71,1.62-3.5,2.88-5.94,2.9-3.92-2.59-7.17-5.83-9.73-9.77,10.46-11.14,20.94-22.27,29.44-35.06,9.13,0,18.26,0,27.39,0Z"/>
  <path class="cls-1" d="M431.86,874.37c-1.93-1.32-3.86-2.65-5.79-3.97-3.94-4.55-7.89-9.1-11.83-13.65,6.98-9.79,12.8-20.46,21.79-28.74,1.36-.62,2.78-1.02,4.24-1.31,3.47-.2,5.63-2.76,8.31-4.45,6.5-4.1,13.04-5.02,19.31.58,3.66,9.1-3.26,15.33-6.15,22.66-5.19,9.38-13.26,16.48-19.85,24.76-2.35,2.95-5.54,5.56-10.03,4.13Z"/>
  <path class="cls-1" d="M435.85,829.32c-7.1,9.23-11.29,20.75-21.61,27.43-5.93-4.5-11.12-9.74-15.67-15.62,8.28-4.58,11.96-14.79,21.63-17.68,6.42-1.24,12.05-.4,15.65,5.87Z"/>
  <path class="cls-1" d="M692.14,938.87c-7.65,1.29-14.99,3.27-21.03,8.58-1.13.99-2.76,3.07-4.09,1.78-7.65-7.44-10.57,2.03-15.82,3.67-10.85,3.38-17.46,14.05-29.07,15.59-3.11.41-4.81,3.17-6.84,5.21-3.15,3.18-5.99,5.9-10.73,2.09-3.73-3-6.61.44-9.36,2.44-2.81,2.04-4.57,5.66-8.71,5.64-.27-7.32,5.58-11.08,10.28-13.93,8-4.85,15.45-10.17,22.43-16.33,2.17-1.91,5.06-2.77,7.94-3.31,1.25-.33,2.83-.09,3.76-.89,18.65-15.98,42.48-23.67,61.76-38.62,1.56-1.21,3.29-2.67,5.25-2.21,14.66,3.43,23.43-8.88,35.2-13.11,2.01-.72,3.53-3.35,5.73-3.52,13.1-1.01,22.25-9.98,32.97-15.83,4.29-2.34,8.41-6.64,14.22-3.77-3.05,6.3-6.52,11-14.72,12.26-8.55,1.31-8.57,12.27-14.62,17.09l-1.96,1.96c-6.08-1.57-9.74,2.48-13.69,5.87-7.89,11.02-23.23,11.42-31.46,22.12-1.86,2.42-5.48,1.38-8.32,1.32-4.48-.1-7.18,2.25-9.14,5.91Z"/>
  <path class="cls-1" d="M786.05,872.35c-8.54,1.7-15.95,6.33-21.97,11.88-10.19,9.39-24.93,8.1-35.64,17.51-4.91,4.31-14.35,5.56-20.14,11.37-.43.43-1.5.95-1.71.77-11.24-9.44-16.79,3.7-24.17,6.94-14.13,6.2-27.14,14.96-40.55,22.76-4.86,2.83-7.12,9.8-14.3,8.97-.58-4.49,3.44-5.92,5.86-8.1,5.45-4.92,9.44-10.5,10.77-17.81,13.35-6.29,22.42-19.73,37.76-22.73,10.25-2.43,17.75-10.05,26.96-14.56,6.19-3.03,12.36-6.19,18.45-9.29,10.46-5.31,22.06-6.66,32.33-12.49,14.19-8.04,29.24-14.64,43.68-22.34,2.92-1.56,5.08-4.01,7.61-6.02,3.02-2.4,6.02-5.4,10.26-2.1-1.68,3.79-4.42,7.22-3.91,11.74-5.72,6.22-10.07,13.65-20.21,14.7-3.96.41-7.41,5.7-11.09,8.77Z"/>
  <path class="cls-1" d="M431.86,874.37c12.34-6.82,19.19-18.78,27.47-29.4,14.91-6.4,27.16-17.33,41.71-24.36,6.46,4.25,5.39,11.34,6.67,17.55-3.97,13.41-13.07,22.99-23.6,31.51-9.9,9.97-22.29,16.09-34.62,22.3-6.6-5.14-12.46-11.02-17.63-17.59Z"/>
  <path class="cls-1" d="M449.49,891.96c9.21-10.53,23.84-13.37,33.32-23.52,4.77-1.96,9.37-4.47,14.38-5.7,4.18-1.03,8.44-.87,11.44,3.13.47,9.19-6.67,15.84-8.15,24.38-7.87,10.2-17.82,17.78-29.45,23.21-3.24-2.63-6.49-5.25-9.73-7.88-3.93-4.54-7.87-9.09-11.8-13.63Z"/>
  <path class="cls-1" d="M504.32,946.74c-1.3-.67-2.6-1.34-3.9-2.01-4.59-5.21-9.17-10.41-13.76-15.62,8.77-5.38,11.8-16.18,20.43-21.71,24.42-20.55,53.2-34.27,80.07-50.98,3.18-1.71,5.46-4.62,8.52-6.48,5.19-3.16,9.79-3.54,12.91,2.82.02,1.79-.97,2.98-2.33,3.97-1.32.95-3.24,1.25-4.16,2.4-14.91,18.64-39.16,27.64-51,49.42-7.87,7.01-14.62,14.88-25.38,18.82-8.93,3.27-13.71,13.42-21.4,19.37Z"/>
  <path class="cls-1" d="M508.24,909.52c-5.73,2.95-8.37,8.6-11.61,13.62-2.45,3.79-5.19,6.41-9.97,5.96-5.95-4.48-11.17-9.68-15.63-15.64,8.19-8.95,19.88-13.82,27.44-23.51,2.09-1.8,4.14-3.72,7.18-1.86,5.48,6.58,6.87,13.65,2.6,21.42Z"/>
  <path class="cls-1" d="M741.05,909.52c2.64-6.45,5.8-11.67,13.69-5.87-3.05,5.48-6.98,8.92-13.69,5.87Z"/>
  <path class="cls-1" d="M744.96,776.5c15.98-9.33,33.71-14.94,49.41-25.48,7.43-4.99,16.92-15.38,29.56-9.09,1.15.57,3.92-.75,5.18-1.98,9.35-9.11,20.67-13.93,33.25-16.72,5.99-1.33,9.31-8.02,15.63-9.33,2.62,5.22.48,10.43,0,15.65-8.75,1.23-16.03,4.64-20.37,12.94-.84,1.61-2.87,3.91-4.14,3.79-10.79-1.03-13.61,9.99-20.83,13.37-12.91,6.04-20.42,19.51-34.83,23.25-5.24,1.36-8.64,6.61-11.78,11.21.38,4.16-3.24,4.29-5.65,5.34-16.87,7.36-32.73,16.35-47,28.06-3.33,2.74-6.84,5.33-10.93,1.07-1.37-1.85-1.34-5.44-5.37-3.83-14.99,5.97-30.44,10.84-43.54,20.89-5.82,4.47-8.6-.84-11.44-4.83.27-7.17,4.71-11,10.85-13.34,2.41-.92,5.69-.85,7.06-2.93,8.17-12.33,22.29-17.02,33.06-26.01,9.86-8.23,20.31-16.06,31.87-22.04Z"/>
  <path class="cls-1" d="M723.44,827.36c2.19,2.84,4.53,2.03,6.65.07,16.28-15.1,35.92-24.54,55.95-33.33,7.85-6.87,19.25-7.87,26.41-15.75,4.58-5.04,6.88-2.95,8.8,2.06-4.35,8.8-12.79,14.37-17.86,22.61-2.46,4-8.12,1.76-11,5.28-2.39,2.92-6.26,4.79-6.35,9.27-.4,2.82-2.11,5.12-4.49,5.95-13.92,4.83-23.83,16.66-37.75,21.41-9.38,9.13-22.95,11.49-32.57,20.23-1.21,1.1-2.72,2.43-4.22,2.21-14.13-2.02-23.45,8.52-34.97,13.24-3.68,1.51-7.05,3.9-10.17-.69-.55-7.09,3.16-13.13,4.83-19.68,1.19-2.4,2.97-5.01,5.59-4.75,8.59.85,12.89-5.49,18.91-9.57,9.16-6.21,19.29-10.98,27.69-18.42,1.16-1.03,3-1.04,4.56-.16Z"/>
  <path class="cls-1" d="M836.91,770.63c-2.17,5.35-3.86,11.28-11.74,9.78,3.91-3.26,7.83-6.52,11.74-9.78Z"/>
  <path class="cls-1" d="M743.01,843.01c14.35-8.48,28.69-16.95,43.04-25.43,7.81-9.78,22.41-9.75,29.61-20.46.48-.71,1.8-1.48,2.52-1.31,15.45,3.67,23.86-10.68,36.47-14.13,6.16-1.69,12.14-3.4,18.1-5.97,7.29-3.13,13.19-7.62,19.62-11.84,6.73-4.42,15-6.62,20.84-12.81-2.59,8.59-9.9,13.48-16.29,18.34-5.13,3.9-10.07,7.46-14.01,12.69-3.32,4.41-6.65,8.97-13.86,8.54-5.07-.3-6.6,5.37-8.66,9.33-12,9.48-25.5,16.22-39.8,21.41-2.86,1.04-5.22,2.64-7.3,4.7-3.66,3.61-7.76,4.98-13.1,5.14-9.57.29-18.22,5.19-25.86,10.01-14.52,9.16-29.59,17.49-43.77,27.3-6.34,4.39-14.85,6.68-22.44,9.75-3.11-4.67.97-7.04,3.27-9.85,8.76-10.66,22.62-15.03,31.61-25.43Z"/>
  <path class="cls-1" d="M707.79,878.22c10.21-10.17,24.75-12.88,36.35-21.01,6.91-4.84,15.18-9.03,21.85-14,8.81-6.57,19.07-10.96,28.31-13.6,8.85-2.53,16.12-7.1,24.21-9.87,13.11-4.5,24.15-12.24,36.38-17.92,1.74-.81,3.66-1.24,5.49-1.84.04,1.61.38,3.07,1.96,3.91-3.09,6.77-6.17,13.11-15.6,12.5-3.69-.24-5.61,3.89-7.72,6.73-4.66,6.27-9.3,12.57-17.77,14.02-1.3.1-3.24-.32-3.79.37-7.63,9.6-20.56,11.03-29.18,19.45-6.41,6.26-16.84,5.12-24.52,10.54-6.92,4.89-16.78,6.23-23.42,9.98-9.96,5.63-21.76,6.08-31.34,14.4-6.56,5.69-15.27,14.26-26.66,13.73.29-10.95,6.16-18.31,15.43-23.14,2.78-1.45,5.76-2.65,8.61-4.06.46-.07.93-.13,1.39-.19Z"/>
  <path class="cls-1" d="M870.17,799.97c2.79-2.74,3.55-8.86,9.78-5.87-.53,6.51-5.37,5.83-9.78,5.87Z"/>
  <path class="cls-1" d="M723.44,827.36c-.58.28-1.32.41-1.73.86-10.43,11.37-26.65,14.82-36.67,26.75-2.49,2.97-5.3,4.44-9.35,2.46-3.24-1.59-5.55.21-7.03,3.19-2.93,4.54-7.57,7.16-11.9,9.88-14.45,9.08-28.33,20.71-43.59,26.47-24.61,9.29-43.3,27.49-66.82,38.11-9.8,4.42-21.31,7.77-29.24,16.43-1.73,1.89-4.26,3.16-6.95,1.06-2.6-1.29-4.55-3.24-5.84-5.84,6.81-10.32,13.44-20.34,26.75-23.99,7.77-2.13,11.54-10.81,18.26-15.18,9.01-11.13,22.3-16.54,33.4-24.87,3.89-2.92,8.16-5.31,11.64-8.82,2.06-2.07,4.37-4.96,7.32-4.36,13.43,2.7,21.83-7.27,30.88-13.37,8.38-5.66,17.69-9.58,25.78-15.58,1.34-.99,3.09-.87,4.44.48,5.29,4.9,8.68,1.54,14.51-.62,10.41-3.87,17-16.66,30.38-13.26,3.22.82,5.2-2.13,7.34-4.09,1.87-1.72,3.66-4.35,6.61-2.81,2.86,1.5,1.46,4.64,1.8,7.09Z"/>
  <path class="cls-1" d="M743.01,843.01c-7.08,11.98-21.08,16.26-29.6,26.64-2.19,2.66-5.62,4.48-5.61,8.57-12.29,3.24-20.06,14.09-31.65,18.63-18.16,7.11-34.08,18.73-52.02,26.33-1.2.51-2.43,1.11-3.32,2.03-5.8,5.98-12.94,8.26-20.88,10.89-13,4.31-26.06,10.01-36.92,19.11-7.76,6.51-18,9.16-25.25,16.52-2.18,2.22-5.24,2.52-8.04.4-3.32-1.9-5.92-4.51-7.82-7.83,17.38-7.4,30.87-21.09,47.32-29.71,13.54-7.1,23.49-19.26,37.86-24.78,1.22-.47,2.6-.95,3.35-1.95,8.3-11.01,23-12.94,32.15-22.99,5.16-5.67,13.27-3.83,20.2-4.7,1.54.18,3.87,1.1,4.51.43,7.59-7.99,20.22-7.05,27.43-15.61.79-.93,2.05-1.78,3.23-2.01,15.27-3.01,28.87-9.14,40.62-18.27,1.19-.93,2.93-1.15,4.42-1.71Z"/>
  <path class="cls-1" d="M529.73,972.14c2.28-.03,4.57.04,6.43-1.66,12.72-11.64,28.12-19.53,42.86-27.8,7.97-4.47,16.44-12.02,27.48-9.82.85.17,2.33-.13,2.72-.72,7.16-11.15,20.51-12.76,30.55-19.49,11.91-7.98,25.63-13.26,38.58-19.69,6.39-3.17,13.04-5.93,17.69-11.74,3.15-3.93,7.62-2.85,11.76-3-1.2,1.46-2.21,3.95-3.64,4.23-12.96,2.5-16.99,13.15-21.79,23.16-7.84,1.55-13.98,5.83-18.81,12-4.71,6.01-13.13,4.63-18.36,9.52-3.7,7.2-8.9,12.6-17.01,14.79-3.86,1.04-6.8,3.69-9.54,6.48-3.77,3.86-7.87,6.7-13.7,5.6-2.66-.5-5.26.16-7.25,2.02-9.36,8.74-21.41,13.25-31.97,20.09-7.54,4.88-16.26,9.49-26.21,5.81-4-2.52-7.25-5.79-9.79-9.78Z"/>
  <path class="cls-1" d="M662.8,880.18c-3.28,1.88-6.07,5.15-10.57,3.47-3.66-1.37-6.23.85-8.63,3.07-5.6,5.19-12.61,8.54-18.49,12.65-9.61,6.73-20.41,12.01-29.24,19.68-13.12,11.4-28.31,19.26-42.96,28.14-4.94,2.99-9.86,6.52-13.62,10.82-4.89,5.6-10.58,6.96-17.37,6.28-4.67-3.16-8.57-7.08-11.75-11.73,6.26-.53,8.05-8.49,13.15-9.14,11.09-1.43,18.59-9.42,27.82-13.96,15.49-7.61,29.56-18.16,44.02-27.79,3.62-2.42,5.87-7.22,11.53-4.21,1.13.6,3.94.24,4.53-.64,6.67-9.98,19.02-11.34,27.71-18.56,8.76-7.28,19.75-11.88,29.76-17.65-1.96,6.52-3.91,13.04-5.87,19.56Z"/>
  <path class="cls-1" d="M539.51,981.92c9.65-1.16,19.31-3.02,27.11-8.99,10.05-7.71,23.07-10.83,31.54-20.88.71-.84,2.66-1.62,3.49-1.24,9.07,4.16,12.9-3.51,18.91-7.37,8.29-5.32,17.84-8.67,24.62-16.31,1.58,13.63-10.65,17.71-17.61,25.43-1.24.31-2.88.21-3.66.98-11.5,11.32-28.1,16.34-37.43,30.32-10.79,3.34-18.03,13.35-29.37,15.66-6.65-5.09-12.51-10.96-17.61-17.6Z"/>
  <path class="cls-1" d="M410.49,520.06c1.93,1.36,3.87,2.72,5.8,4.08,5.19,2.5,8.89,6.81,12.93,10.71,5.14,5.28,10.38,10.47,15.65,15.62,5.81,5.97,11.72,11.83,17.68,17.64,4.14,5.18,10.53,8.47,12.84,15.19-19.24,25.62-39.86,50.09-61.35,73.85-5.3-1.22-3.54-5.54-3.55-8.74-.08-42.78-.02-85.57,0-128.35Z"/>
  <path class="cls-1" d="M504.33,888c-1.96.65-3.91,1.3-5.87,1.96,1.53-8.55,6.12-15.82,9.78-23.47,5.36-9.16,12.07-16.81,22.59-20.2,1.56-.5,3.2-.94,4.41-2.04,18.13-16.49,41.34-25.6,59.99-41.33,1.25-1.05,2.64-2.12,4.26-2.29,15.28-1.66,24.86-14.07,37.87-19.99,12.39,0,24.78,0,37.17,0,2.53,4.07-.66,6.15-3.2,7.86-14.47,9.76-28.6,20.1-44.22,28.04-2.97,1.51-5.39,3.59-7.76,5.82-2.13,2.01-4.21,4.4-7.05,5.11-28.14,6.96-47.51,29.33-72.77,41.22-10.91,5.14-21.34,10.65-29.88,19.35-1.36,1.38-3.56,1.56-5.33-.03Z"/>
  <path class="cls-1" d="M838.87,668.91c-4.42,5.93-9.17,10.64-17.01,12.88-8.11,2.31-12.97,10-18.21,16.47-6.2,3.96-12.18,8.2-17.54,13.26-13.77,6.24-26.49,14.49-40.31,20.84-10.73,4.93-22.24,11.18-31.37,20.06-3.72,3.62-8.2,9.72-14.38,2.58,0-11.74,0-23.48,0-35.23,5.3.23,9.11-2.55,12.8-5.96,3.86-3.57,6.8-10.6,14.04-4.56.48.4,2.89-.98,4.03-1.96,15.48-13.36,33.56-22.59,51.21-32.52,0,1.94-.07,3.89.02,5.83.13,3.14-.99,7.1,2.63,8.7,3.89,1.73,5.54-2.41,7.72-4.46,4.22-3.99,8.23-6.73,12.95-.82,1.74,2.19,3.87,1,5.09-.14,6.78-6.37,17.87-5.58,23.32-14.24.68-1.07,3.01-2.78,5.02-.75Z"/>
  <path class="cls-1" d="M637.36,780.64c-.6,1.47-.78,3.59-1.88,4.31-8.78,5.75-19.36,8.86-25.87,17.91-18.2-.88-28.41,14.22-41.94,22.14-10.82,6.33-21.54,14.54-32.1,21.03-9.96,6.12-17.83,14.26-27.33,20.47-5.25-2.46-10.5-3.5-15.4.65-3.14,2.66-6.53,2.12-10.03,1.31,9.56-8.4,17.4-18.17,23.48-29.34,7.18-8.45,16.6-13.89,25.35-20.39,15.87-11.78,34.55-19.83,48.01-34.86,1.34-1.5,3.2-2.21,4.86-3.22,17.62,0,35.24,0,52.85,0Z"/>
  <path class="cls-1" d="M885.82,578.92c-4.61,5.79-8.65,11.96-17.5,12.3-2.56.1-5.08,3.68-7.45,5.84-4.7,4.28-8.26,10.24-16.02,9.65-1.25-.09-3.1,1.37-3.89,2.61-5.06,7.94-14.49,10.74-20.41,16.26-10.74,10.01-24.27,14.95-35.16,24.48-11.21,9.81-23.71,19.06-37.96,24.92-1.18.48-2.69.9-3.33,1.83-8.07,11.84-22.82,15.37-32,25.83-3.1,3.54-7.14,5.59-12.05,5.38,0-10.43,0-20.87,0-31.3,6.72,1.99,11.07-1.39,16.41-5.28,14.04-10.23,30.09-17.33,44.96-26.26,10.17-6.1,22-9.95,29.88-19.64,1.43-1.75,3.6-4.24,5.61-3.31,9.76,4.54,13.39-6.02,19.76-7.53,12.95-3.08,19.22-16.69,32.48-18.08,2.8-.29,4.59-2.29,6.45-4.12,8.38-8.29,18.34-13.06,30.21-13.59Z"/>
  <path class="cls-1" d="M643.23,592.61c2.2-.46,5.23-.16,6.46-1.51,7.93-8.75,21.08-9.37,28.58-18.72,1.41-1.76,4.1-4.82,5.76-.57,2.58,6.61,4.85,3.36,9.25,1.59,11.89-4.8,19.98-15.56,32.87-18.99,6.65-1.77,9.99-11.37,18.81-10.7-12.39,11.41-23.31,25.49-37.63,33.4-12.17,6.72-22.31,15.97-34.08,23.03-11.89,7.12-24.99,13.5-34.95,23.85-3.22,3.35-6.37,6.58-11.65,5.87-1.22-.16-3.18-.1-3.72.64-8.9,12.29-26.92,12.75-34.48,26.68-1.2,2.69-3.98,3.73-5.88,5.69-5.18-.45-10.61,1.79-15.52-1.47,13.02-15.7,26.03-31.39,39.05-47.09,4.16.25,6.03-3.23,8.73-5.36,8.65-6.85,18.78-11.15,28.39-16.33Z"/>
  <path class="cls-1" d="M608.02,852.79c-9.65-8.47-13.31,3.02-19.56,5.87-.67-8.03,3.11-14.37,11.73-17.18,6.21-2.02,10.9-5.52,15-10.25.42-.49.77-1.13,1.31-1.43,12.24-7.06,21.64-18.47,33-25.46,12.03-7.4,21.2-18.96,34.83-23.7,4.99-2.35,12.15,3.59,15.74-4.12,11.97-6.62,23.75-13.59,34.76-21.69,5-3.68,10.32-6.63,15.81-9.29,10.12-4.92,20.18-10,30.49-14.53,2.35-.55,4.73-1.54,6.88.5-2.19,4.31-4.21,8.72-6.62,12.9-1.24,2.15-3.56,5.48-5.86,3.82-8.02-5.79-8.87,1.24-11.4,5.64-3.36,5.84-5.98,12.03-15.14,10.45-4.85-.84-4.93,4.75-5.98,8.28-5.51,6.44-10.87,13.01-19.93,14.77-3.31.64-5.52,3.34-7.79,5.67-3.73,3.82-7.56,7.18-13.54,6.26-2.74-.42-5.09.91-7.06,2.75-13.32,12.44-30.52,18.29-45.82,27.36-10.5,6.22-20.65,13.16-30.91,19.85-3.06,1.99-5.23,6.26-9.94,3.55Z"/>
  <path class="cls-1" d="M684.32,780.63c-.46,5.89-1.78,9.69-9.56,8.22-6.85-1.29-7.75,6.71-11.34,10.42-3.16,3.26-4.73,7.68-10.78,5.62-4.51-1.54-5.96,2.69-7.84,5.62-4.79,7.47-9.62,14.75-19.8,15.49-2.15.16-3.87,1.96-5.47,3.75-5.49,6.15-10.12,12.67-19.79,14.28-5.93.98-10.25,7.58-11.28,14.63-27.11,16.36-55.71,30.38-80.21,50.86.52-7.5-.35-14.76-3.91-21.52,1.49-.55,3.33-.73,4.41-1.72,7.81-7.14,16.29-12.57,25.85-17.69,12.24-6.56,25.34-12.88,36.27-22.36,8.25-7.15,19.47-10.27,27.16-18.6,1.6-1.74,4.51-2.9,7.24-1.55,2.36,1.17,4.98,1.04,6.36-.68,7.71-9.67,20.37-11.84,29.28-19.86,8.17-7.35,19.3-10.55,27.67-17.92,2.37-2.08,6-2.92,5.98-6.99,3.26,0,6.52,0,9.78,0Z"/>
  <path class="cls-1" d="M584.51,780.64c-5.26,9.97-14.21,15.85-23.79,20.7-12.91,6.54-21.87,18.75-36.28,23.5-6.95,2.3-10.42,11.49-18.15,14.26-3.21-5.45-1.06-12.69-5.87-17.61-1.28-2.38-.32-4.6,1.08-6.31,9.99-12.19,17.85-26.39,32.18-34.55,16.94,0,33.89,0,50.83,0Z"/>
  <path class="cls-1" d="M516.06,449.81c13.1-10.55,23.21-24.47,37.69-33.46,6.96,10.37,6.56,21.86,5.07,33.51-6.91,8.82-16.42,15.32-25.75,20.07-12.43,6.33-21.72,16.08-32.84,23.67-3.67,2.51-6.15,6.88-11.41,6.65-3.12-.58-5.32-2.35-6.62-5.23-.32-4.38,2.91-7.04,5.13-10.1,8.89-12.26,19.63-23.01,28.74-35.11Z"/>
  <path class="cls-1" d="M782.14,733.46c-17.04,8.71-35.21,14.81-50.68,27.19-7.52,6.02-17.13,10.28-25.07,16.5-2.23,1.74-4.29.33-6.32-.63,0-7.17,0-14.35,0-21.52,2.75,1.94,5.62,1.82,8.05-.25,7.46-6.36,16.29-10.92,23.97-16.46,16.85-12.18,36.57-17.84,53.97-28.29,4.33,8.76-1.38,15.85-3.91,23.47Z"/>
  <path class="cls-1" d="M488.68,498.71c9.91-3.66,16.11-12.41,24.39-18.34,14.94-10.69,30.61-20.2,45.75-30.52-.76,10.57-4.04,20.31-9.6,29.3-21.32,14.16-40.97,30.5-60.81,46.61-3.31,1.01-6.58,2.8-10.05.48-1.79-11.13,5.13-19,10.32-27.53Z"/>
  <path class="cls-1" d="M533.67,780.63c-.09,2.51-1.46,4.07-3.48,5.48-13.09,9.11-20.67,22.9-29.78,35.38-7.41,8.35-18.29,11.95-26.44,19.35-4.01,3.64-9.97,1.95-14.65,4.13,2.8-7.1,8.64-13.1,7.83-21.52,11.86-16.76,27.08-30.15,43.01-42.82,7.84,0,15.67,0,23.51,0Z"/>
  <path class="cls-1" d="M533.64,399.21c-13.04,11.99-26.07,23.99-39.14,35.95-4.06,3.71-6.91,8.58-11.73,11.61-5.54,3.47-8.33,2.98-7.83-4.31.2-2.91-.1-5.86-.17-8.79,2.38-29.51,29.7-45.51,58.87-34.45Z"/>
  <path class="cls-1" d="M643.23,592.61c-8.56,11.14-24.49,12.02-32.82,23.66-1.93,2.7-3.91,1.05-4.3-1.97,12.38-16.33,24.77-32.67,37.15-49,2.46,6.86,5.88,3.26,9.59,1.13,11.27-6.47,20.97-15.72,33.89-19.31.6-.17,1.14-.59,1.68-.93,5.04-3.07,17.33-5.63,21.33-4.44-14.74,3.84-21.69,19.63-36.35,23.66-5.67,1.56-8.42,6.92-12.47,10.56-6.02,5.41-11.81,11.08-17.69,16.64Z"/>
  <path class="cls-1" d="M488.68,524.14c8.47-6.36,16.46-13.65,23.4-21.27,9.39-10.31,23.72-12.53,32.51-22.99.76-.9,3.05-.52,4.63-.73-7.82,17.93-19,33.72-31.08,48.95-7.88,4.93-16.45,8.72-23.36,15.26-2.9,2.74-6.7,5.48-11.04,1.71-1.65-7.76-.6-14.87,4.94-20.93Z"/>
  <path class="cls-1" d="M435.85,829.32c-5.22-1.96-10.43-3.91-15.65-5.87,8.22-12.02,15.95-24.4,27.11-34.14,2.59-2.26,4.1-5.75,6.11-8.68,9.14,0,18.28,0,27.43,0,2.8,6.38-1.29,11.1-5.19,14.29-8.81,7.22-16.94,14.71-23.2,24.43-2.82,4.38-7.11,8.37-12.69,9.97h-3.91Z"/>
  <path class="cls-1" d="M439.77,829.32c7.18-5.27,13.13-11.71,16.65-19.87,2.57-5.94,7.98-8.64,12.61-11.76,6.44-4.34,9.98-9.91,11.82-17.06,9.77,0,19.54,0,29.31,0-2.19,5.82-7.86,8.4-11.87,12.49-10.14,10.34-20.73,20.25-31.14,30.33-7.08-2.97-13.85-3.8-19.51,2.87-2.08,2.45-4.78,3.24-7.88,3Z"/>
  <path class="cls-1" d="M484.76,545.66c5.19-.51,8.62-3.85,12.18-7.21,5.95-5.63,12.82-9.59,21.2-10.35-13.02,19.36-27.5,37.58-42.75,55.21-5.17-4.24-10.19-8.62-13.96-14.23,6.95-8.63,11.79-19.36,23.34-23.41Z"/>
  <path class="cls-1" d="M516.06,449.81c-7.18,17.88-23.6,28.94-33.26,44.99-1.36,5.24-5.38,8.38-9.82,10.17-11.48,4.63-20.31,12.5-29.1,20.88-4.43,4.22-8.51,10.04-15.87,10.04-4.7-3.12-8.31-7.34-11.72-11.75,5.47.12,6.63-4.97,8.84-8.1,10.3-14.64,26.72-23.5,36.16-38.85,6.73.67,11.58-3.14,17.37-5.74,13.35-5.98,22.01-19.71,37.4-21.65Z"/>
  <path class="cls-1" d="M817.35,533.92c-2.51,11.16-10.9,18.7-19.18,24.42-8.17,5.64-13.55,12.35-17.99,20.58-17.73,7.1-34.22,16.32-49.03,28.45-1,.82-2.38,2.4-3.08,2.16-8.64-2.97-12.86,4.93-19.15,7.19-18.64,6.71-32.31,20.67-48.81,30.34-5.83,3.42-11.83,6.57-17.62,10.05-1.98,1.19-3.14,3.27-3.18,5.75-4.54,0-9.07,0-13.61.01,8.01-9.7,14.75-20.92,27.71-24.96,4.81-1.5,7.56-4.86,10.04-8.64,3.34-5.11,7.42-8.93,13.72-9.87,1.6-.24,3.53-.64,4.38-1.92,9.03-13.49,26.45-16.05,36.55-28.16,1.7-2.04,3.76-4.9,7.3-2.59,7.08-.95,10.15-7.63,15.38-11.25,5.24-3.62,10.39-6.52,16.48-7.46,14.22-2.21,25.25-9.79,36.31-18.54,7.3-5.78,17.17-8.28,23.78-15.57Z"/>
  <path class="cls-1" d="M725.4,586.74c-4.13,0-6.1,3.31-8.61,5.71-5.76,5.5-10.6,12.08-19.42,13.4-3.57.53-6.21,3.64-8.07,6.65-3.37,5.48-7,10-14.31,9.8-1.7-.05-4.3,1.1-5.04,2.48-8.77,16.23-29.05,19.1-39.07,33.84-1.2,1.77-3.42,2.86-5.17,4.26-14.38,0-28.75,0-43.13-.01.25-3.67,2.24-5.53,5.88-5.69,8.5-8.33,21.69-8.43,30.01-17.14,1.04-1.09,2.98-2.43,4.13-2.15,14.92,3.69,22.63-9.39,33.89-14.11,10.69-4.48,19.85-11.53,30.16-16.69,9.96-4.98,20.66-9.96,29.33-17.67,2.58-2.3,4.77-7.22,9.43-2.67Z"/>
  <path class="cls-1" d="M782.14,733.46c-2.09-8.39,4.53-15.33,3.91-23.47,4.41-6.11,9.12-11.75,17.61-11.74,4.9-.18,6.98-4.38,10.01-7.15,2.92-2.68,5.09-5.74,9.73-2.01,3.08,2.48,6.12-.69,8.54-2.64,10.08-8.09,21.42-13.85,33.14-19.17,5.71-2.59,12.81.09,16.86-3.05,9.24-7.18,21.73-7.93,29.98-16.49,2.17-2.25,4.51-5.81,7.16-.35-4.16,0-6.13,3.35-8.66,5.76-4.87,4.66-9.03,9.98-16.59,11.03-4.22.59-7.15,4.31-9.56,7.89-3.28,4.88-6.11,8.05-13.71,7.94-6.92-.1-11.37,8.59-16.04,14.33-8.06,3.98-15.97,11.05-23.21,12.9-12.3,3.14-20.07,13.32-32.08,15.72-4.64.93-8.84,3.92-11.23,8.55-1.96.65-3.91,1.3-5.87,1.96Z"/>
  <path class="cls-1" d="M608.02,852.79c9.47-8.03,21.04-12.75,31.16-19.9,11.43-8.08,24.22-14.33,36.81-20.59,5.62-2.79,10.75-5.84,15.08-10.28,3.68-3.78,7.13-7.92,13.33-4.83,1.66.83,3.51.13,4.33-1.25,6.84-11.55,22.53-10.81,29.93-21.62.73-1.07,2.87-1.17,4.36-1.73.65,1.3,1.3,2.61,1.96,3.91-10.34,12.6-25.09,19.99-37.76,29.49-9.11,6.83-17.33,14.67-26.5,21.09-6.27,4.38-15.24,4.86-17.9,13.98-9.16,6.38-20.26,9.35-28.54,17.48-6.62,6.5-17.13,7.58-23.36,15.1-.17.21-.64.38-.89.3-17.26-4.92-23.6,12.33-35.74,17.87-8.86,4.04-16.66,10.42-24.94,15.76,4.57-11.52,13.74-21.67,23.03-26.21,10.51-5.13,16.01-12.91,22.62-20.63,3.64-4.24,9.79-3.55,13.04-7.94Z"/>
  <path class="cls-1" d="M428.01,535.89c17.06-15.3,35.11-29.29,54.8-41.09,1.96,1.3,3.91,2.61,5.87,3.91-.93,9.96-9.15,17.32-9.78,27.39,1.05,4.65-2.39,6.82-5.54,7.96-8.58,3.11-14.99,8.91-21.25,15.15-2.2,2.2-4.74,4.88-8.46,2.33-5.94-4.49-10.97-9.89-15.64-15.65Z"/>
  <path class="cls-1" d="M443.65,551.54c1.48-.54,3.38-.68,4.38-1.7,7.71-7.83,15.38-15.54,26.4-18.86,1.81-.54,2.99-3.21,4.46-4.89,3.26-.65,6.52-1.3,9.78-1.96-1.3,7.17-2.61,14.35-3.91,21.52-9.01,6.58-13.66,17.51-23.34,23.41-6.75-5.01-12.43-11.1-17.77-17.53Z"/>
</svg>