<?xml version="1.0" encoding="UTF-8"?>
<svg width="512" height="512" id="Layer_1" xmlns="http://www.w3.org/2000/svg" viewBox="0 0 1080 1080">
  <defs>
    <style>
      .cls-1 {
        fill: #3e4243;
      }

      .cls-2 {
        fill: #475b65;
      }

      .cls-3 {
        fill: #6a7275;
      }

      .cls-4 {
        fill: #4d616a;
      }

      .cls-5 {
        fill: #eb996f;
      }

      .cls-6, .cls-7 {
        fill: #042b62;
      }

      .cls-8 {
        fill: #263238;
      }

      .cls-9 {
        fill: #3d4142;
      }

      .cls-10 {
        fill: #b2babe;
      }

      .cls-11 {
        fill: #383d40;
      }

      .cls-12 {
        fill: #3e4143;
      }

      .cls-13 {
        fill: #aeb7bb;
      }

      .cls-14 {
        fill: #1f292e;
      }

      .cls-15 {
        fill: #4c4a49;
      }

      .cls-16 {
        fill: #febd9c;
      }

      .cls-17 {
        fill: #434e53;
      }

      .cls-18 {
        fill: #b5bdc1;
      }

      .cls-19 {
        fill: #b4bcc0;
      }

      .cls-20 {
        fill: #dfdfdf;
      }

      .cls-21 {
        fill: #2f383c;
      }

      .cls-22 {
        fill: #455a64;
      }

      .cls-23 {
        fill: #dedede;
      }

      .cls-24 {
        fill: none;
        stroke: #000;
        stroke-miterlimit: 10;
        stroke-width: 3px;
      }

      .cls-25 {
        fill: #242c30;
      }

      .cls-7 {
        opacity: .51;
      }

      .cls-26 {
        fill: #323a3d;
      }

      .cls-27 {
        fill: #fefefe;
      }

      .cls-28 {
        fill: #bbe3f4;
      }

      .cls-29 {
        fill: #485257;
      }

      .cls-30 {
        fill: #2c363b;
      }

      .cls-31 {
        fill: #27333a;
      }

      .cls-32 {
        fill: #4c565b;
      }
    </style>
  </defs>
  <g>
    <path class="cls-8" d="M409.85,812.02c-1.17-.03-2.33-.09-3.5-.09-7.84-.04-7.78-.03-7.09-8.07,2.94-34.32,5.84-68.64,8.77-102.95,1.89-22.02,7.59-43.27,14.45-64.08,5.49-16.65,7.12-33.78,9.33-50.87,4.36-33.66,8.39-67.36,12.63-101.04.24-1.94.36-3.49-1.31-4.91-13.04-11.03-16.7-25.81-16.82-42.06-.1-13.86,1.15-27.59,3.44-41.25.24-1.46.14-2.98.2-4.47.17-4.02,3.33-3.72,5.77-3.52,10.58.89,21.18,1.46,31.77,2.2,16.22,1.13,32.42,2.45,48.64,3.65,8.44.63,16.89,1.04,25.31,1.98,4.6.51,6.48,3.61,7.99,7.22,1.37,3.29,2.77,6.46,6.71,7.37,2.15,2.59-.05,2.4-1.88,2.69,5.27,3.54,10.27,7.28,15.46,10.74,32.27,21.5,64.36,43.29,97.29,63.77,9.95,6.19,17.3,14.03,20.1,25.53,2.11,8.68,2.23,17.59-.1,26.18-8.96,33.09-18.34,66.06-27.52,99.09-7.04,25.33-14.04,50.68-21.13,75.99-2.34,8.35-2.45,8.48-11.04,6.68-16.65-2.3-33.28-4.66-49.9-7.15-2.32-.35-4.64-.29-6.97-.31-5.38-.85-6.22-1.82-5.18-7.21,6.24-32.53,12.34-65.1,19.86-97.37,3.93-16.86,7.86-33.72,11.92-50.55.83-3.44.2-5.6-3.04-7.36-15.96-8.65-32.4-16.34-48.56-24.59-3.88-1.98-4.59.85-5.37,3.47-6.2,20.73-12.7,41.37-17.74,62.44-3.88,16.2-9.22,31.97-15.29,47.5-3.71,9.49-9.53,17.93-13.12,27.46-7.78,20.69-11.75,42.3-15.5,63.96-4.29,24.77-7.64,49.66-9.99,74.69-.54,5.75-.81,5.96-6.58,6.58-15.62.39-31.23.13-46.83.14-1.86,0-3.64-.3-5.17-1.48Z"/>
    <path class="cls-6" d="M674.03,362.74c13.55,12.73,27.15,25.41,40.64,38.2,36.54,34.64,73.04,69.32,109.54,104.01,1.66,1.58,3.14,3.36,4.7,5.04-1.2,1.29-2.7.92-4.19.8-11.99-.97-20.84,6.26-22.39,18.26-.23,1.77.11,3.71-1.52,5.06-3.04.2-4.85-1.97-6.66-3.79-14.64-14.77-30.14-28.65-45.22-42.96-23.04-21.86-46.26-43.54-69.35-65.34-16.32-15.41-32.69-30.77-49.06-46.14-23.4-21.97-46.74-44-70.17-65.94-7.15-6.7-13.76-14.01-21.53-20.07-1.49-1.16-4.35-2.54-2.28-5.52,1.83-.87,3.89-.9,5.75-1.63,1.09-.43,2.35-.88,2.29-2.29-.07-1.48-1.41-1.68-2.57-1.88-2.05-.36-4.31.02-6.02-1.65.67-2.07,2.33-1.99,3.73-2.1,2.5-.19,4.97-.53,7.42-1.04,1.84-.39,4.72-.18,4.35-2.91-.31-2.3-3.04-2.14-4.99-2.34-2.34-.24-4.61.71-6.95.53-.99-.08-2.19-.24-2.43-1.35-.31-1.4.85-2.04,1.96-2.49.93-.38,1.95-.44,2.94-.51,2.17-.14,4.31-.54,6.37-1.2,1.5-.48,3.86-.6,3.55-2.72-.26-1.79-2.43-1.28-3.86-1.34-2.66-.12-5.33.07-7.99-.1-1.45-.1-3.57.1-3.81-1.58-.27-1.84,1.92-1.85,3.25-2.24,2.23-.66,4.56-1.01,6.72-1.91,1.24-.52,2.68-1.17,2.39-2.77-.3-1.64-1.87-1.78-3.22-1.63-13.34,1.53-27.04,1.15-39.5,7.36-2.76.42-4.19-1.66-5.82-3.23-19.24-18.54-38.91-36.63-58.27-55.05-16.35-15.55-33.01-30.77-49.24-46.45-1.42-1.38-3-2.65-3.87-4.51.03-3.81,3.9-5.04,5.32-7.91,5.57-6.37,11.53-12.36,17.91-17.93.92-.59,1.71-1.3,2.35-2.2,1.15-1.31,2.35-2.19,3.73-.26,20.25,19.33,40.49,38.65,60.76,57.96.57.54,1.4.81,2.11,1.21,1.68.75,3.2,1.7,4.53,3.03,6.12,6.11,12.56,11.92,18.72,17.96,17.11,16.78,34.71,33.04,52.04,49.57,15.04,14.35,29.83,28.97,45.36,42.8.61.54,1.28,1.07,1.34,1.55-.33-8.34-.13-17.13-.1-25.91,0-1.42-.22-3.09,1.53-3.89,1.05,9.77.19,19.56.47,29.34.06,1.95-.23,3.84,1.55,5.48,9.64,8.89,19.18,17.9,28.75,26.87,3.89,2.02,6.99,5.01,10.1,8.03,2.61,2.53,2.85,4.81.44,7.76-2.63,3.22-5.66,6.1-8.01,9.54-1.11,1.63-2.65,3.44-.74,5.33,1.67,1.65,3.36.43,4.93-.59.93-.61,1.97-1.72,3.09-.78,1.1.92.33,2.17-.16,3.2-.79,1.65-1.67,3.27-1.99,5.09-.21,1.19-.2,2.4,1.03,3.07,1.28.7,2.19-.13,3.07-.94.49-.45-.14.1.33-.37,1.35-1.34,2.58-4.3,4.48-3.06,2.24,1.47-.23,3.81-.81,5.76-.67,2.23-3.73,4.71-1.33,6.63,2.28,1.82,3.75-1.71,5.54-2.92,1.19-.8,2.36-2.6,3.8-1.47,1.44,1.14,0,2.73-.54,4.06-.19.46-.46.89-.57,1.38-.36,1.58-1.26,3.48.71,4.43,1.61.77,2.77-.7,3.71-1.85,2.73-3.35,5.44-6.71,7.78-10.36,1.05-1.64,1.91-3.57,4.06-4.18Z"/>
    <path d="M557.17,412.15c-4.75.61-7.56-1.41-8.34-6.16-1.55-9.51-9.41-8.31-15.76-8.83-16.02-1.32-32.09-2.03-48.12-3.19-16.18-1.17-32.35-2.64-48.53-3.84-2.28-.17-5.17-1.16-6.48,2.12-6.56-2.43-6.89-2.94-5.76-9.8,2.22-13.43,4.48-26.85,6.84-40.99-3.79.63-7.32.96-10.7,1.82-19.69,5-35.89-13.17-38.33-29.05-1.3-8.49.25-16.47,3.73-24.24,9.03-20.14,19.27-39.66,29.55-59.18,1.97-.79,3.2.55,4.32,1.71,3.25,3.36,7.05,6.1,10.36,9.36,13.4,13.18,27.14,25.98,40.87,38.8,1.87,1.75,3.67,3.5,6.53,2.77,3.17-.81,4.61.97,5.56,3.57,2.76,6.42,4.28,13.25,6.51,19.85,2.2,6.51,2.18,6.52,8.35,4.01.62-.25,1.26-.42,1.92-.5,2.95.06,4.83,2.01,6.69,3.89,16.23,16.38,33.66,31.51,49.93,47.84,3.27,3.28,7.2,5.87,10.3,9.36,1.43,1.61,3.15,3.04,2.89,5.53-.5,9.58-1.46,19.1-3.55,28.46-1.28,5.71-3.93,7.5-8.8,6.7Z"/>
    <path class="cls-16" d="M522.29,167.22c2.21-6.84,1.55-14.04,2.65-21.03.18-1.14-.16-2.39.16-3.46,1.42-4.77,1.15-7.86-5.12-8.47-4.2-.41-6.87-3.69-7.1-8.35-.31-6.21-.16-12.15,7.05-14.74.49.13.96.31,1.31.67,4.41,4.58,7.65,3.78,9.64-2.38.57-1.76.73-3.58.88-5.4.18-2.28,1.07-4.25,2.93-5.55,5.15-3.6,7.21-8.88,8.5-14.71,2.13-9.6,7.42-12.83,17.06-10.43,5.53,1.38,10.77,3.64,15.36,6.97,8.06,5.86,17,8.88,26.86,9.48,1.32.08,2.69.14,3.54,1.43.62,21.16-1.78,42.12-4.16,63.07-1.32,11.64-10.33,20.19-22.03,21.8-1.3.18-2.57.6-3.86.91-9.31-1.5-17.79-4.96-25.35-10.55,3.8,7.47,10.15,11.62,18.24,13.53,2.06.49,4.33.46,6.06,2,.67,4.76-2.61,9.51-.05,14.28-.46,5.09-4.53,7.8-7.52,11.17-1.23,1.39-2.71.73-3.65-.83-.52-.86-.97-1.77-1.18-2.73-2-8.84-7.38-14.79-15.29-18.99-7.6-4.05-14.42-9.41-21.77-13.9-1.39-.85-3.56-1.35-3.15-3.81Z"/>
    <path d="M522.29,167.22c10.08,6.63,20.04,13.47,30.31,19.78,4.49,2.76,7.62,6,9.05,11.1.92,3.3,2.43,6.43,3.96,10.38,3.31-4.36,6.28-8.26,9.25-12.16,1.03-.9,2.09-1.55,2.14.61.26,9.85,5.92,15.7,13.43,21.52,9.79,7.61,13.36,19.08,13.71,31.39.13,4.49.13,8.97.19,13.47,0,10.4,0,20.79,0,32.68-6.27-5.88-11.34-10.57-16.35-15.34-34.38-32.67-68.75-65.34-103.1-98.03-1.43-1.36-2.65-2.94-3.97-4.42,6.6-.34,13.26-1.38,19.78-.82,6.85.59,11.09-2.61,15.33-7.01,1.6-1.66,2.85-4.83,6.28-3.13Z"/>
    <path class="cls-8" d="M606.01,91.26c-11.5.19-21.84-3.05-31.26-9.78-4.72-3.37-10.08-5.81-15.82-7.09-8.12-1.81-12.57,1.07-14.3,9.07-1.42,6.55-2.76,13.14-9.82,16.33-1.46.66-1.22,2.19-1.43,3.49-.4,2.45-.69,4.96-1.45,7.3-1.06,3.25-2.71,6.18-6.76,6.33-3.95.15-3.91-3.44-5.24-5.73-1.4-11.07,1.14-22.22-.79-33.33-.89-5.15.65-10.25,3.77-14.66,2.54-3.61,6.1-6.31,10.4-5.88,4.5.45,6.63-1.41,9.16-4.62,8.74-11.1,24.83-13.93,37.48-6.96,2.47,1.36,4.85,2.91,7.23,4.43,5.21,3.33,10.53,4.28,16.59,2.07,7.18-2.62,9.51-1.33,12.01,5.65.37,1.03.43,1.4,1.81,1.52,7.27.64,10.31,6.01,6.88,12.45-1.5,2.82-2.72,5.19-2.2,8.67.54,3.6-2.26,6.04-5.27,7.8-3.38,1.97-7.11,2.72-10.97,2.96Z"/>
    <path class="cls-28" d="M799.87,534c1.64-.51.97-1.87,1.01-2.91.62-14.81,11.44-23.64,26.05-21.26.65.11,1.32.11,1.98.16,8.46,18.43,16.71,36.95,24.03,55.87-.88,1.26-2.25,1.28-3.57,1.38-7.36.58-12.03,4.58-15.3,11.06-1.84,3.66-1.74,8.2-5.13,11.12-2.31.65-4.22-.69-6.2-1.39-16.46-5.82-32.69-12.29-49.09-18.29-1.09-.4-2.18-.85-2.87-1.88-.46-2.91,1.56-4.41,3.45-5.94,1.09-.88,2.8-1.24,2.32-3.24-2.62-10.91.37-18.83,9.14-23.75,4.51-2.53,9.26-3.38,14.16-.94Z"/>
    <path class="cls-22" d="M507.32,860.3c-.07-.26-.1-.5-.09-.74-1.46-1.33-3.15-2.38-4.83-3.45-11.26-7.15-23.43-12.45-35.62-17.72-5.3-2.29-5.58-3.38-5.01-9.24.55-5.73,2.5-11.37,1.24-17.23l-53.15.1c-.97,11.95-1.95,23.91-2.92,35.86-1.02,7.99-.83,8.27,6.91,8.59,3,.12,5.93.71,8.91.95,26.12,2.05,52.23,4.25,78.32,6.75,2.32.22,4.63.47,6.9-.35.11-.06.2-.12.29-.17-.31-1.12-.62-2.23-.94-3.35Z"/>
    <path class="cls-6" d="M676.88,181.04c-3.98-20.76,4.16-37.23,18.22-46.02,15.34-9.58,34.34-7.97,48.62,4.11-1.43,5.37-4.95,8.64-10.21,10.18-13.05-8.06-24.9-7.72-34.37.99-9.78,9-11.12,23.88-3.15,34.9,7.04,9.74,22.16,13.15,32.69,7.38,11.97-6.56,17.06-20.5,12.04-32.92-.8-1.99-2.16-3.78-2.16-6.05,2.86-3.58,6.38-6.35,10.47-8.4,9.06,11.35,9.34,24.33,7.02,37.79-2.9,5.88-5.33,11.93-10.29,16.69-23.03,22.1-61.85,11.09-68.29-17.92-.07-.31-.29-.54-.6-.73Z"/>
    <path class="cls-22" d="M668.84,768.42c-.91-.97-1.79-2-2.47-3.15-.51-.87-.85-1.76-1.08-2.7-.57-.25-1.13-.55-1.66-.94-11.16-8.15-23.09-15.07-35.27-21.55-3-1.59-3.7-3.85-2.99-7.05.9-4.04,2.09-8.03,2.62-12.15-.74-.83-1.74-.78-2.73-.91-8.63-1.2-17.22-2.74-25.88-3.61-9.82-.99-19.43-3.76-29.39-3.39,2.72,2.86,2.6,6.11,1.84,9.76-1.45,6.95-2.64,13.97-3.86,20.97-.44,2.53-1.5,5.15-.06,7.73,1.52,1.52,3.53,1.66,5.5,2.01,8.82,1.57,17.64,3.17,26.45,4.79,21.22,3.92,42.48,7.63,63.72,11.43,1.93.34,3.95.93,5.68-.66.02-.03.04-.06.05-.08-.16-.16-.32-.32-.47-.48Z"/>
    <path class="cls-7" d="M338.22,153.71c-13.97-26.24,1.68-54.67,26.35-60.05,10.21-2.23,20.1-1.11,29.34,4.12,1.08,2.49-1.05,3.58-2.31,4.87-6.24,6.4-12.62,12.65-18.9,19.01-9.83,9.65-19.46,19.51-29.29,29.16-1.4,1.38-2.45,3.75-5.18,2.89Z"/>
    <path class="cls-6" d="M481.71,286.63c-.67-1.61-1.4-2.97-3.62-2.13-3.49,1.32-5.76-.49-8.23-2.85-17.15-16.43-34.45-32.71-51.69-49.05-.85-.81-1.66-1.63-2.89-1.79-6.93-8.06-15.11-14.84-22.71-22.22-10.82-10.51-21.78-20.88-32.68-31.31.79-4.09,3.15-6.9,6.92-8.58,7.03,5.04,12.99,11.32,19.15,17.3,17.28,16.78,35.01,33.1,52.29,49.89,12.86,12.49,26.27,24.43,38.93,37.15,3.37,3.39,7.99,5.51,10.19,10.08-.7,3.07-2.99,3.58-5.65,3.51Z"/>
    <path class="cls-16" d="M674.03,362.74c-3.11,5.11-6.45,10.08-10.35,14.61-1.75,2.03-3.75,5.36-6.85,3.17-2.54-1.8-.97-4.85.23-7.27.58-1.16,1.19-2.31,1.88-3.64-1.97.05-2.27,1.73-3.31,2.5-2.23,1.65-3.98,5.78-7.27,3.28-3.04-2.31-.27-5.48.82-8.11.8-1.92,1.89-3.71,2.19-5.98-1.45,1.68-2.86,3.38-4.36,5.02-1.2,1.31-2.58,2.18-4.36.99-1.6-1.07-2.1-2.7-1.48-4.37,1.03-2.77,2.35-5.44,4.01-9.2-1.49,1.22-2.31,1.78-2.99,2.48-1.97,2-4.21,3.02-6.52.9-2.33-2.13-1.43-4.53.3-6.64,2.84-3.46,5.53-7.1,8.72-10.21,2.65-2.58,2.14-4.1-.37-6.26-3.25-2.8-6.17-5.98-9.24-9,2.23-3.08,4.39-6.22,6.73-9.22.87-1.11,1.9-2.78,3.57-2.18,1.65.59,2.19,2.41,2.49,4.07.62,3.44-.72,6.53-1.85,9.65-1.07,2.97-.89,4.24,2.92,3.29,5.25-1.31,9.31-.64,14.02,3.96,5.25,5.13,7.16,11.2,10.5,16.96,2.52,4.33,2.38,7.38.55,11.22Z"/>
    <path class="cls-20" d="M412.43,122.07c-6.08,5.55-11.94,11.32-17.43,17.46-2.2,2.03-3.78,4.81-6.86,5.8-7.56-4.83-13.87-11.13-20.36-17.23-.73-3.4,2.67-4.15,4-6.23,7.57-7.64,15.39-15.04,22.69-22.93,2.44-2.64,3.91-2.11,5.99.08,3.19,3.36,6.51,6.59,9.81,9.84,1.28,1.27,2.4,2.78,4.3,3.23,2.45,1.66,4.07,3.73,3.45,6.92-1.27-.92-2.34-.91-3.05.68-1.29,1.83-2.32.47-3.17-.4-4.84-4.95-10.74-8.76-15.11-14.21,4.05,5.1,9.5,8.71,14.02,13.31.91.93,3.06,1.58,1.72,3.68Z"/>
    <path class="cls-8" d="M829.29,588.86c1.22-4.99,2.4-9.98,5.33-14.36,4.4-6.59,10.55-9.31,18.33-8.63,5.33,12.11,10.67,24.22,16,36.33.44,1,.72,1.98-1.01,1.8-1-.05-2.01-.02-3-.25-11.3-3.82-22.31-8.42-33.57-12.35-1.08-.38-2.26-.68-2.68-1.97-.03-.08.08-.25.17-.32.12-.11.29-.16.43-.24Z"/>
    <path class="cls-19" d="M568.21,750.75c15.28,2.87,30.54,5.78,45.83,8.59,17.57,3.23,35.15,6.38,52.73,9.54.81.15,1.65.07,2.48.1.6.55,1.3,1.03,1.77,1.67.76,1.04,2.02,2.29,1.34,3.49-.88,1.55-2.65.67-4.06.48-18.14-2.39-36.1-6.2-54.47-6.79-5.33-1.41-10.91-.78-16.27-1.98-8.43-1.59-17.03-2.08-25.42-3.88-7.12-1.53-8.27-4.87-3.93-11.23Z"/>
    <path class="cls-7" d="M676.88,181.04c3.33,4.12,4.28,9.49,7.77,13.68,9.62,11.56,21.9,16.75,36.52,15.13,15.08-1.67,26.06-9.95,32.68-23.77.54-1.12-.04-3.15,2.21-3.08-4.42,18.71-19.51,31.09-38.4,31.51-18.81.42-35.1-11.57-40.12-29.56-.35-1.26-.45-2.6-.66-3.9Z"/>
    <path class="cls-17" d="M372.04,122.11c-.9,2.18-4.25,2.73-3.83,5.78-.09.21-.18.43-.26.64-7.36,7.17-14.89,14.18-21.65,21.95q-7.51,6.17-.72,12.96c2.7,2.7,5.47,5.35,8.1,8.13,1.98,2.09,3.69,3.1,6.2.54,2.32-2.36,2.11-4.14-.2-6.25-3.07-2.8-5.79-5.95-9.13-8.48-1.65-1.25-3.71-2.53-2.76-5.26,3.35-.64,4.96,2.17,7.05,3.78,2.75,2.11,5.13,4.72,7.44,7.31,2.33,2.6,4.14,2.47,6.53-.01,5.39-5.62,10.95-11.08,16.51-16.54.59-.58,1.23-1.11,2-1.45.23-.04.46-.08.7-.12,2.33-1.86,4.66-3.72,6.99-5.58-.83,3.45-4.55,4.64-5.98,7.62-2.07,4.32-5.98,7.01-9.24,10.22-4.1,4.04-7.54,8.81-12.65,11.76-3.04,2.16-4.96,5.32-7.24,8.15-2.21.42-4.07.25-5.84-1.61-5.04-5.29-10.24-10.44-15.51-15.52-2.27-2.19-2.36-4.18-.32-6.44,11.31-11.13,22.62-22.26,33.92-33.39.3.61.27,1.21-.1,1.79Z"/>
    <path class="cls-31" d="M734.2,148.79c3.17-3.22,6.35-6.44,9.52-9.66,0,0,.31-.04.31-.04,2.49-4.09,5.41-7.74,9.94-9.77,2.07-.38,2.31.89,2.22,2.45-.72,4.88-4.59,6.93-8.26,9.16-.38.14-.76.28-1.14.42-1.42,5.14-6.23,7.51-9.27,11.32-3.11,3.04-6.19,6.11-9.2,9.25-2.48,2.41-4.79,4.97-7.39,7.24-1.41,1.23-3.05,2.33-4.74.55-1.69-1.77-.46-3.37.76-4.75,2.29-2.58,4.83-4.92,7.23-7.4,3.47-2.78,5.78-6.89,10.02-8.8Z"/>
    <path class="cls-5" d="M574.91,182.04c-12.39-.14-22.34-6.88-26.81-18.72,8.34,6.22,16.86,10.58,26.56,12.3.5.09.87.94,1.3,1.43-.35,1.66-.7,3.33-1.05,4.99Z"/>
    <path class="cls-3" d="M372.04,122.11c.03-.59.06-1.18.1-1.78,7-7.77,15.13-14.44,21.77-22.55,2.29-2.3,4.31-2.38,6.69.18,4.52,4.85,9.31,9.44,13.98,14.14-4.14-.41-5.53-4.34-8.25-6.55-3.06-2.5-5.63-7.19-8.8-7.55-3.23-.36-5.62,4.8-8.47,7.43-5.83,5.39-11.36,11.1-17.01,16.68Z"/>
    <path class="cls-2" d="M753.97,129.33c-3.31,3.26-6.63,6.51-9.94,9.77-1.4-7.51,2.38-12.46,8.29-16.6,1.55,2.06-.38,4.99,1.65,6.83Z"/>
    <path class="cls-4" d="M747.93,140.95c2.75-3.05,5.51-6.11,8.26-9.16,2.24.4,4.48.81,7.26,1.31-4.55,4.76-7.6,11.05-15.52,7.86Z"/>
    <path class="cls-6" d="M737,152.26c3.25-3.63,6.51-7.27,9.76-10.89.75,1.33,1.49,2.65,2.24,3.98-2.69,3.75-6.41,6.22-10.15,8.66-1.05-.09-1.74-.59-1.85-1.74Z"/>
    <path class="cls-7" d="M799.87,534c-4.44-.1-8.87-.49-13.05,1.74-8.7,4.62-11.46,12.11-8.72,24.18-2.29.87-3.35-1.01-4.55-2.2-16.28-16.21-33.25-31.69-49.81-47.59-20.65-19.81-41.52-39.4-62.2-59.18-12.5-11.96-25.13-23.79-37.67-35.72-20.74-19.72-41.55-39.37-62.22-59.16-12.62-12.08-25.62-23.77-37.96-36.13-3.65-3.65-8.02-6.51-11.42-10.43-1.29-1.49-3.02-2.72-2.8-5.05,3.74-6.73,8.9-12.42,13.67-18.38,2.5-3.12,8.12-3.19,12.88-.9,13.24,12.58,26.45,25.18,39.73,37.71,6.64,6.27,13.47,12.33,20.1,18.61,15.2,14.4,30.3,28.91,45.51,43.3,17.01,16.1,34.1,32.12,51.16,48.17,17.3,16.28,34.58,32.58,51.89,48.85,18.49,17.4,36.99,34.78,55.49,52.18Z"/>
    <path class="cls-7" d="M367.13,169.12c7.3-7.33,14.6-14.65,21.89-21.98,6.89,5.49,12.76,12.08,19.26,18,15.34,13.97,30.1,28.58,45.21,42.81,17.15,16.15,34.43,32.17,51.65,48.25.04.16.16.36.1.48-4.46,9.65-10.47,18.27-17.47,26.22-.2.22-.61.21-.95.23-14.73-13.18-28.82-27.04-43.09-40.71-20.5-19.65-41.05-39.25-61.76-58.67-5.08-4.76-10.45-9.19-14.85-14.62Z"/>
    <path class="cls-16" d="M486.83,283.12c6.5-8.71,12.49-17.76,18.31-26.93,6.1-4.72,13.4-5.44,20.69-6.21,6.61-.7,13.22-1.42,19.82-2.24,2.42-.3,4.4.06,5.14,2.64.88,3.06-1.67,3.69-3.63,4.33-3.29,1.07-6.68,1.84-10.92,2.97,5.14,0,9.4.03,13.65-.01,2.12-.02,4.21.19,4.64,2.71.44,2.58-1.41,3.46-3.54,3.89-4.33.89-8.66,1.78-12.99,2.67l.05.7c3.86,0,7.72-.11,11.57.04,2.06.08,4.12.71,4.11,3.36,0,2.46-1.84,3.54-3.89,3.86-4.26.66-8.56,1.03-12.92,1.87,2.24.24,4.49.36,6.7.75,1.32.23,3.19-.18,3.45,2.01.26,2.19-.82,3.65-2.77,4.15-2.72.69-5.54,1.01-8.32,1.49-7.35-1.28-12.98.46-16.78,7.69-2.35,4.48-6.16,8.19-9.31,12.24-1.85,4.02-5.24,5.49-9.41,5.67-3.49.59-6.6,5.25-9.54,3.29-2.28-1.52-2.49-6.2-3.55-9.5-1.93-5.97-3.81-11.95-5.71-17.94,1.21-1.9,4.43-.85,5.12-3.51Z"/>
    <path class="cls-32" d="M412.43,122.07c-3.2-5.58-9.17-8.38-13.2-13.14-1.6-1.88-3.43-3.57-5.19-5.39,1.49-1.19,2.05.38,2.71.97,4.79,4.35,9.47,8.81,14.25,13.16,1.1,1,1.79,3.09,3.99,2.03-.34,1.34-1.17,2.15-2.55,2.37Z"/>
    <path class="cls-6" d="M500.51,310.77c3.02-2.08,6.71-3.06,9.41-5.67,10.67,10.7,21.79,20.94,32.78,31.31,18.39,17.34,36.48,35,54.74,52.47,13.21,12.64,26.51,25.19,39.77,37.78,20.13,19.12,40.25,38.25,60.37,57.37,13.14,12.48,26.28,24.95,39.42,37.42,13.02,12.36,26.04,24.72,39.08,37.06.59.56,1.34.95,2.02,1.41.5.51.64,1.61.21,1.6-3.91-.04-5.2,3.27-7.35,5.47-46.77-44.32-93.54-88.66-140.33-132.96-20.55-19.45-41.16-38.83-61.74-58.25-15.87-15.19-31.73-30.4-47.63-45.56-6.86-6.54-13.83-12.97-20.75-19.46Z"/>
    <path class="cls-25" d="M438.75,288.83c2.07-8.4,6.36-15.77,10.74-23.1-2.02,8.43-7.71,15.14-10.74,23.1Z"/>
    <path class="cls-9" d="M576.49,133.6c6.56-1.22,6.44-1.19,4.95-8.04-1.35-6.22-3.11-12.4-3.14-18.86,2.76,7.79,4.64,15.8,5.99,23.92.63,3.8-1.14,4.42-7.8,2.99Z"/>
    <path class="cls-21" d="M553.83,92.77c4.93-4.27,11.59-3.25,16.08,2.71-5.7-.96-10.7-1.8-16.08-2.71Z"/>
    <path class="cls-26" d="M587.81,97.68c4.19-3.35,10.08-3.31,12.98-.4.57.57,1.36,1.16.9,2.06-.45.87-1.43.64-2.19.51-3.69-.65-7.37-1.36-11.7-2.17Z"/>
    <path class="cls-11" d="M593.29,116.98c2.07.04,3.32,1.11,3.4,3,.07,1.9-1.12,3.11-3.08,3.22-2.17.12-3.61-.91-3.54-3.17.06-1.96,1.44-2.86,3.22-3.05Z"/>
    <path class="cls-12" d="M573.56,143.89c-7.35,2.21-11.54-.82-11.82-8.54,2.93,4.91,5.97,8.68,11.82,8.54Z"/>
    <path class="cls-30" d="M563.27,113.03c2.19-.03,3.51.87,3.65,2.77.16,2.14-1.09,3.37-3.25,3.38-1.93,0-3.08-1.15-3.12-3.03-.04-1.88,1.04-3,2.72-3.12Z"/>
    <path class="cls-1" d="M554.82,103.66c4.72-3.8,8.08-3.34,12.87,2.33-4.86-1.99-8.69-3.51-12.87-2.33Z"/>
    <path class="cls-15" d="M588.2,107.81c4.98-4.05,8.6-3.45,12.1,1.86-4.22-1.46-7.93-3.37-12.1-1.86Z"/>
    <path class="cls-14" d="M556.46,193.88c-4.3,4.04-8.63,8.04-12.88,12.12-1.74,1.67-3.23.51-4.38-.48-7.73-6.71-16.15-12.67-22.17-21.31,3.96,3.44,7.9,6.91,11.89,10.31,3.52,3,7.16,5.85,10.62,8.92,1.93,1.71,3.31,1.52,4.97-.35,3.3-3.71,6.74-7.29,10.13-10.92.61.57,1.22,1.14,1.83,1.71Z"/>
    <path class="cls-13" d="M431.99,833.17c-.85,2.63-2.09,4.63-4.82,4.5-2.43-.12-4.02-1.8-3.94-4.24.09-2.63,1.77-4.36,4.47-4.24,2.43.11,3.51,2.07,4.29,3.98Z"/>
    <path class="cls-27" d="M737.04,151.89c.61.56,1.23,1.12,1.85,1.68,11.16,17.87,2.33,39.17-17.69,42.73-12.45,2.21-24.55-4.35-29.56-16.02-5.06-11.77-1.33-25.39,8.99-32.9,10.24-7.45,23.81-6.87,33.57,1.42-3.21,3.21-6.43,6.43-9.64,9.64-1.7.62-3.25-.18-4.85-.53-5.54-1.2-10.73,1.09-13.52,5.95-2.53,4.41-1.82,10,1.75,13.79,3.73,3.95,8.92,4.86,14.09,2.45,4.6-2.14,7.19-7.35,6.51-12.81-.24-1.93-1.7-3.69-.8-5.77,3.1-3.21,6.2-6.42,9.3-9.62Z"/>
    <path class="cls-10" d="M591.24,727.95c2.46.49,3.99,1.86,3.91,4.39-.09,2.84-1.97,4.28-4.59,4.07-2.43-.19-3.87-1.87-3.6-4.47.27-2.51,1.86-3.73,4.27-3.99Z"/>
    <path class="cls-29" d="M368.21,127.9c7.08,5.18,13.74,10.85,19.8,17.21,0,0,.08-.06.08-.06-.88.83-1.91.72-2.73.11-6.14-4.51-12.3-9.02-17.09-15.06-.43-.54-.5-1.21-.33-1.89l.28-.31Z"/>
    <path class="cls-20" d="M367.93,128.21c5.95,6.53,12.09,12.83,20.15,16.84-6.41,7.88-14.2,14.42-21.11,21.81-1.76,1.88-2.4.23-3.43-.72-5.19-4.81-9.53-10.57-15.8-14.17-1.39.14-2.15-.29-1.71-1.85-.33-1.58.81-2.47,1.71-3.37,5.71-5.78,11.47-11.51,17.2-17.27.84-.85,1.65-1.63,2.98-1.26Z"/>
    <path class="cls-23" d="M346.04,150.11c.57.62,1.14,1.23,1.71,1.85,3.4,5.85,9.11,9.45,13.78,14.04,1.9,1.87,3.95,3.4.6,5.64-2.39,1.6-3.65,6.85-7.97,1.95-4.16-4.73-8.69-9.18-13.39-13.38-2.92-2.61-2.78-4.42.17-6.55,1.68-1.22,2.53-3.62,5.1-3.56Z"/>
    <path class="cls-6" d="M727.74,161.51c4.7,7.27,2.03,16.89-5.62,20.22-5.6,2.44-11.74,1.03-15.77-3.67-3.82-4.46-4.14-11.26-.75-16.15,3.48-5.01,9.54-7.04,15.33-5.07,1.24.42,2.42,1.05,3.63,1.59-1.94,2.03-4,3.96-5.78,6.13-1.08,1.33-4.22,2.4-2.06,4.61,1.91,1.96,3.04-.92,4.31-1.9,2.33-1.8,4.49-3.83,6.71-5.76Z"/>
    <path class="cls-18" d="M508.03,862.83c-10-.75-20-1.43-29.98-2.29-21.35-1.82-42.69-3.82-64.04-5.58-6.83-.56-6.85-.32-7.08-7.08-1.03,3.46-1.37,6.64-1.05,9.28l-.12-.07s-2.42,12.64,18.41,10.78l-.03-.02c23.64.03,47.27,0,70.9,0h14.34c-.43-1.68-.88-3.36-1.35-5.03ZM420.83,865.91l-.05-.03c4.82,0,9.62.01,14.37.06-4.77-.02-9.55-.03-14.32-.03ZM447.61,866.15c3.46.08,6.89.19,10.29.33-2.84.09-6.45-.15-10.29-.33Z"/>
  </g>
  <polyline class="cls-24" points="98.86 1065 235 1065 235 954.25 384.96 954.25 384.96 867.98 557.94 867.98 557.94 765.9 732.9 765.9 732.9 606.83 901.74 606.83"/>
</svg>