<svg xmlns="http://www.w3.org/2000/svg" width="34" height="34" viewBox="0 0 34 34">
  <g fill="none" fill-rule="evenodd">
    <circle cx="16.842" cy="16.842" r="16.842" fill="#65D48E" opacity=".233"/>
    <g fill="#005263" fill-rule="nonzero" transform="translate(6 6)">
      <polygon points="0 9.64 2.44 9.64 2.44 10.84 0 10.84"/>
      <polygon points="18.04 9.64 20.48 9.64 20.48 10.84 18.04 10.84"/>
      <polygon points="15.331 4.3 17.028 2.604 17.876 3.452 16.18 5.149"/>
      <polygon points="4.3 5.149 2.603 3.452 3.452 2.603 5.149 4.3"/>
      <polygon points="9.64 0 10.84 0 10.84 2.44 9.64 2.44"/>
      <path d="M4.83999978 18.0799992C4.17718733 18.0799992 3.63999984 18.6171867 3.63999984 19.2799991L3.63999984 20.4799991 16.8399992 20.4799991 16.8399992 19.2799991C16.8399992 18.6171867 16.3028118 18.0799992 15.6399998 18.0799992L4.83999978 18.0799992zM4.83999978 10.2399995L4.83999978 16.8799992 15.6399993 16.8799992 15.6399993 10.2399995C15.6399993 7.26234344 13.2176556 4.83999978 10.2399995 4.83999978 7.26234344 4.83999978 4.83999978 7.26234344 4.83999978 10.2399995zM9.63999957 8.43999962L10.8399995 8.43999962 10.8399995 12.0399995 9.63999957 12.0399995 9.63999957 8.43999962zM9.63999957 13.2399994L10.8399995 13.2399994 10.8399995 14.4399994 9.63999957 14.4399994 9.63999957 13.2399994z"/>
    </g>
  </g>
</svg>
