<svg xmlns="http://www.w3.org/2000/svg" width="113" height="113" viewBox="0 0 113 113">
  <g fill="none">
    <circle cx="56.5" cy="56.5" r="56.5" fill="#005263"/>
    <path fill="#FFF" d="M56.1358487,15.1315822 L61.4690253,13.1163251 C62.0639227,12.8915203 62.733416,12.9975507 63.2295887,13.3951647 L67.6786603,16.9599266 C68.0205437,17.2338385 68.4506167,17.373683 68.8881662,17.3529527 L74.5831071,17.0843084 C75.218446,17.0544024 75.8221794,17.3621284 76.1713694,17.8936397 L79.3013354,22.6587201 C79.5417752,23.0248987 79.9076176,23.2906544 80.330214,23.4062003 L85.8294046,24.9103365 C86.4428235,25.0782179 86.922004,25.5572238 87.0897171,26.1706368 L88.593868,31.6697736 C88.7094151,32.0923658 88.9751733,32.4582047 89.3413555,32.6986422 L94.1064824,35.8285776 C94.6379989,36.1777642 94.9457279,36.7814917 94.9158216,37.4168244 L94.6471747,43.1117097 C94.6266141,43.5494248 94.7662901,43.9793237 95.0402046,44.3212037 L98.6050014,48.7705718 C99.0026192,49.2669095 99.1086506,49.9362263 98.8838436,50.531118 L96.8685669,55.8642425 C96.7137679,56.2739208 96.7137679,56.7260792 96.8685669,57.1359274 L98.8838436,62.469052 C99.1086506,63.0639436 99.0026192,63.7334303 98.6050014,64.2295982 L95.0402046,68.6789662 C94.7662901,69.0208462 94.6264442,69.450915 94.6471747,69.8884603 L94.9158216,75.5833455 C94.9457279,76.2186782 94.6379989,76.8224057 94.1064824,77.1715923 L89.3413555,80.3015278 C88.9751733,80.5419653 88.7094151,80.9078041 88.593868,81.3303963 L87.0897171,86.8295332 C86.9218341,87.4429461 86.4428235,87.9221219 85.8294046,88.0898334 L80.330214,89.5939696 C79.9076176,89.7095156 79.5417752,89.9752712 79.3013354,90.3414499 L76.1713694,95.1065302 C75.8221794,95.6380415 75.218446,95.9457675 74.5831071,95.9158615 L68.8881662,95.6472172 C68.4507866,95.6266568 68.0205437,95.7663315 67.6786603,96.0402433 L63.2292488,99.6050053 C62.7329062,100.002619 62.0635829,100.10865 61.4686854,99.8838448 L56.1355088,97.8685878 C55.7258265,97.7137902 55.2736637,97.7137902 54.8638115,97.8685878 L49.5306349,99.8838448 C48.9357374,100.10865 48.2662442,100.002619 47.7700715,99.6050053 L43.32066,96.0402433 C42.9787766,95.7663315 42.5487037,95.6264869 42.1111541,95.6472172 L36.4162133,95.9158615 C35.7808743,95.9457675 35.1771409,95.6380415 34.8279509,95.1065302 L31.6979849,90.3414499 C31.4575451,89.9752712 31.0917027,89.7095156 30.6691063,89.5939696 L25.1699158,88.0898334 C24.5564968,87.921952 24.0773163,87.4429461 23.9096032,86.8295332 L22.4054523,81.3303963 C22.2899052,80.9078041 22.024147,80.5419653 21.6579648,80.3015278 L16.8928379,77.1714224 C16.3613214,76.8222358 16.0535924,76.2185083 16.0834987,75.5831756 L16.3521456,69.8882903 C16.3728761,69.4507451 16.2330302,69.0206763 15.9591157,68.6787963 L12.3949986,64.2290884 C11.9973808,63.7327506 11.8913494,63.0634338 12.1161564,62.4685422 L14.1314331,57.1354177 C14.2862321,56.7257394 14.2862321,56.2735809 14.1314331,55.8637327 L12.1161564,50.5306082 C11.8913494,49.9357166 11.9973808,49.2662298 12.3949986,48.770062 L15.9597954,44.3210338 C16.2337099,43.9791538 16.3735558,43.549085 16.3528253,43.1115397 L16.0841784,37.4166545 C16.0542721,36.7813218 16.3620011,36.1775943 16.8935176,35.8284077 L21.6586445,32.6984722 C22.0248267,32.4580347 22.2905849,32.0921959 22.406132,31.6696037 L23.9102829,26.1704668 C24.0781659,25.5570539 24.5571765,25.0778781 25.1705954,24.9101666 L30.669786,23.4060304 C31.0923824,23.2904844 31.4582248,23.0247288 31.6986646,22.6585501 L34.8286306,17.8934698 C35.1778206,17.3619585 35.781554,17.0542325 36.4168929,17.0841385 L42.1118338,17.3527828 C42.5493833,17.3735131 42.9794563,17.2336685 43.3213397,16.9597567 L47.7707512,13.3949947 C48.2670938,12.9973808 48.9364171,12.8913504 49.5313146,13.1161552 L54.8644912,15.1314122 C55.2738336,15.2863797 55.7261664,15.2863797 56.1358487,15.1315822 Z"/>
    <path fill="#65D48E" fill-opacity=".874" d="M56.5700712,19.9110737 L61.3515399,18.1042915 C61.8848962,17.9027424 62.4851316,17.9978041 62.9299761,18.3542856 L66.9187989,21.5502791 C67.225315,21.7958552 67.6108977,21.9212331 68.0031835,21.9026473 L73.1089925,21.6617938 C73.6786067,21.6349815 74.219885,21.9108738 74.5329519,22.3874011 L77.3391283,26.6595421 C77.554695,26.9878402 77.8826917,27.2261039 78.2615712,27.3296968 L83.1918799,28.6782327 C83.7418418,28.8287471 84.1714518,29.2582006 84.3218154,29.8081571 L85.6703644,34.7384177 C85.7739583,35.1172935 86.0122243,35.4452869 86.3405257,35.6608516 L90.6127084,38.4670006 C91.0892404,38.7800645 91.3651354,39.3213374 91.3383228,39.890946 L91.097467,44.9967052 C91.0790333,45.3891395 91.2042601,45.7745661 91.4498386,46.0810792 L94.6458633,50.0701678 C95.0023483,50.5151603 95.0974109,51.1152374 94.8958598,51.6485885 L93.08906,56.4300105 C92.9502746,56.7973083 92.9502746,57.2026917 93.08906,57.5701418 L94.8958598,62.3515638 C95.0974109,62.8849149 95.0023483,63.4851444 94.6458633,63.9299846 L91.4498386,67.9190731 C91.2042601,68.2255863 91.078881,68.6111652 91.097467,69.0034471 L91.3383228,74.1092063 C91.3651354,74.6788149 91.0892404,75.2200879 90.6127084,75.5331517 L86.3405257,78.3393008 C86.0122243,78.5548654 85.7739583,78.8828588 85.6703644,79.2617346 L84.3218154,84.1919953 C84.1712995,84.7419517 83.7418418,85.1715576 83.1918799,85.3219196 L78.2615712,86.6704555 C77.8826917,86.7740484 77.554695,87.0123121 77.3391283,87.3406102 L74.5329519,91.6127512 C74.219885,92.0892786 73.6786067,92.3651709 73.1089925,92.3383586 L68.0031835,92.0975051 C67.61105,92.0790716 67.225315,92.2042972 66.9187989,92.4498733 L62.9296714,95.6458668 C62.4846746,96.0023482 61.8845916,96.09741 61.3512352,95.8958608 L56.5697665,94.0890787 C56.2024652,93.9502947 55.7970778,93.9502947 55.4296241,94.0890787 L50.6481554,95.8958608 C50.1147991,96.09741 49.5145637,96.0023482 49.0697193,95.6458668 L45.0805917,92.4498733 C44.7740756,92.2042972 44.3884929,92.0789193 43.9962071,92.0975051 L38.8903981,92.3383586 C38.3207839,92.3651709 37.7795057,92.0892786 37.4664388,91.6127512 L34.6602623,87.3406102 C34.4446956,87.0123121 34.116699,86.7740484 33.7378194,86.6704555 L28.8075107,85.3219196 C28.2575489,85.1714052 27.8279388,84.7419517 27.6775753,84.1919953 L26.3290262,79.2617346 C26.2254323,78.8828588 25.9871663,78.5548654 25.658865,78.3393008 L21.3866823,75.5329994 C20.9101502,75.2199355 20.6342553,74.6786626 20.6610678,74.109054 L20.9019237,69.0032948 C20.9205096,68.6110128 20.7951305,68.2254339 20.549552,67.9189208 L17.3541367,63.9295275 C16.9976517,63.4845351 16.9025891,62.8844579 17.1041402,62.3511068 L18.91094,57.5696848 C19.0497254,57.202387 19.0497254,56.7970036 18.91094,56.4295535 L17.1041402,51.6481315 C16.9025891,51.1147804 16.9976517,50.5145509 17.3541367,50.0697108 L20.5501614,46.0809269 C20.7957399,45.7744137 20.921119,45.3888348 20.902533,44.9965529 L20.6616772,39.8907937 C20.6348646,39.3211851 20.9107596,38.7799121 21.3872916,38.4668483 L25.6594743,35.6606992 C25.9877757,35.4451346 26.2260417,35.1171412 26.3296356,34.7382654 L27.6781846,29.8080047 C27.8287005,29.2580483 28.2581582,28.8284424 28.8081201,28.6780804 L33.7384288,27.3295445 C34.1173083,27.2259516 34.445305,26.9876879 34.6608717,26.6593898 L37.4670481,22.3872488 C37.780115,21.9107214 38.3213933,21.6348291 38.8910075,21.6616414 L43.9968165,21.9024949 C44.3891023,21.9210807 44.774685,21.7957028 45.0812011,21.5501267 L49.0703286,18.3541332 C49.5153254,17.9976518 50.1154084,17.90259 50.6487648,18.1041392 L55.4302335,19.9109213 C55.7972301,20.0498577 56.2027699,20.0498577 56.5700712,19.9110737 Z"/>
    <path fill="#54B578" d="M68.1793183,85.3992888 C45.7680458,85.3992888 27.5999969,67.2313213 27.5999969,44.8201492 C27.5999969,38.8180464 28.9135389,33.1260058 31.2523476,28 L28.8097781,28.6682716 C28.259739,28.8188079 27.8300686,29.248324 27.679684,29.7983606 L26.3307932,34.7293396 C26.2271848,35.1082706 25.9888853,35.4363118 25.6605379,35.6520602 L21.387603,38.4586181 C20.911004,38.7717276 20.6350703,39.3130793 20.6618866,39.8826186 L20.9027763,44.9891217 C20.9212125,45.3814608 20.7959682,45.7670959 20.5503551,46.0736537 L17.3541864,50.0633235 C16.9976514,50.5083808 16.9025754,51.1085454 17.1041548,51.6418218 L18.9112083,56.4239405 C19.0500132,56.7912918 19.0500132,57.1967342 18.9112083,57.5642379 L17.1041548,62.3463565 C16.9025754,62.8797854 16.9976514,63.4801023 17.3541864,63.9250072 L20.5506599,67.914677 C20.7962729,68.2212348 20.9216696,68.6068699 20.903081,68.999209 L20.6621913,74.1057121 C20.635375,74.6754037 20.9113087,75.2167555 21.3879077,75.529865 L25.6606903,78.3364229 C25.9888853,78.5520189 26.2273371,78.8800601 26.3309456,79.2589912 L27.6798364,84.1899701 C27.8303734,84.7400067 28.2598914,85.1696752 28.8099305,85.3202115 L33.7409315,86.6690962 C34.1198642,86.7727042 34.4479069,87.0110026 34.6635039,87.3393486 L37.4700744,91.612112 C37.7831852,92.0887088 38.3245395,92.3644889 38.8942336,92.3378251 L44.0006073,92.0969365 C44.3931005,92.0785003 44.7787373,92.2037441 45.0852964,92.449356 L49.0749841,95.6458152 C49.5200434,96.0021962 50.1202107,96.0974242 50.6534895,95.8958457 L55.4356296,94.0886479 C55.8029826,93.9498437 56.2084269,93.9498437 56.5759322,94.0886479 L61.3580722,95.8958457 C61.8915035,96.0974242 62.4918231,96.0023486 62.9365777,95.6458152 L66.9262653,92.449356 C67.2328245,92.2038965 67.6184613,92.0785003 68.0109545,92.0969365 L73.1173281,92.3378251 C73.6870223,92.3646413 74.2283765,92.0887088 74.5414874,91.612112 L77.3480579,87.3393486 C77.5636549,87.011155 77.8916976,86.7727042 78.2706303,86.6690962 L83.2016313,85.3202115 C83.7516704,85.1696752 84.1813408,84.7401591 84.3317254,84.1899701 L85,81.7474115 C79.8736665,84.085905 74.181448,85.3992888 68.1793183,85.3992888 Z"/>
    <circle cx="56" cy="57" r="31" fill="#65D48E" fill-opacity=".172"/>
    <path fill="#D6FFE5" fill-opacity=".077" d="M74.7036195,72.842978 C74.4338119,72.4888905 74.0133605,72.2823016 73.563886,72.2677935 C56.7387657,71.7169403 43.2692715,58.1266576 43.2692715,41.4343683 C43.2692715,36.9705678 44.2433121,32.7363274 45.9827034,28.9104286 C46.5332214,27.6993071 45.1580781,26.4948351 44.0281725,27.2187273 C35.386345,32.7555204 29.9663915,42.7484064 31.1655534,53.8966486 C32.5184303,66.47318 42.5350939,76.7822211 55.2412339,78.6728039 C62.2545415,79.716327 68.8283562,78.2034074 74.2576769,74.9951594 C75.0236417,74.5425379 75.2395492,73.5464683 74.7036195,72.842978 L74.7036195,72.842978 Z"/>
    <path fill="#FFF" d="M46.6249613 73L38.3750387 73C37.6156543 73 37 72.4029963 37 71.6666166L37 50.3333834C37 49.5970037 37.6156543 49 38.3750387 49L46.6249613 49C47.3843457 49 48 49.5970037 48 50.3333834L48 71.6666166C48 72.4031465 47.3843457 73 46.6249613 73zM75.9822999 51.9612334C75.8041574 50.1944925 74.1737528 48.916737 72.3847767 48.916737L60.7392499 48.916737C63.9239324 46.3577082 66.0862989 42.9248684 66.3992811 40.1016926 66.6313595 38.0082476 65.1729333 36.0197272 63.0510958 36 61.1483921 35.982713 59.5996619 37.4929545 59.5996619 39.377315 59.5996619 40.5998551 56.9262915 44.2278608 51.9161106 45.8421092 51.9087137 45.8445564 51.901625 45.8468507 51.8942281 45.8492979 50.7222785 46.2341235 50 47.4106252 50 48.6357654L50 70.642098C50 71.3920184 50.6125575 72 51.3681221 72L69.0136302 72C70.3765128 72 71.6398452 71.0754092 71.8586708 69.740144 72.1374422 68.0387133 70.821715 66.568545 69.1600276 66.568545L70.3819064 66.568545C71.744789 66.568545 73.0081214 65.6439542 73.226947 64.308689 73.5057184 62.6072583 72.1899912 61.1370901 70.5283038 61.1370901L71.7501826 61.1370901C73.1130652 61.1370901 74.3763976 60.2124992 74.5952232 58.8772341 74.8739946 57.1758034 73.5582674 55.7056351 71.89658 55.7056351L72.580641 55.7056351C74.5852065 55.706094 76.1872562 53.9933449 75.9822999 51.9612334z"/>
    <path fill="#BEE9E7" d="M68.4014381 64C67.6274743 64 67 64.671604 67 65.5 67 66.328396 67.6274743 67 68.4014381 67L69.8098219 67 71.0614555 67C72.4575266 67 73.7516232 65.9786551 73.9757776 64.5036607 74.0016658 64.3321694 74.0000873 64.1662537 73.9999294 64L68.4014381 64zM68.3344745 58C67.5974923 58 67 58.671604 67 59.5 67 60.328396 67.5974923 61 68.3344745 61L71.0100373 61 72.2018653 61C73.5312292 61 74.7634912 59.9786551 74.976935 58.5036607 75.0015862 58.3321694 75.0000831 58.1662537 75 58L68.3344745 58zM68.2966473 53C67.5805556 53 67 53.671604 67 54.5 67 55.328396 67.5805556 56 68.2966473 56L72.1928694 56 72.8411931 56C74.4073058 56 75.6972348 54.708155 76 53.000169L68.2966473 53.000169 68.2966473 53z"/>
    <path fill="#FFF" d="M55.4992114,69.2842092 C53.9806176,69.2842092 52.7496057,68.0684049 52.7496057,66.5685713 L52.7496057,49.8369994 C52.7496057,49.2923424 53.0796203,48.8053477 53.5852504,48.5881578 C55.8357303,47.6210512 62.9171845,43.8982336 63.6628534,36.5879598 C63.4373718,36.354863 63.3193656,36.2331144 63.093884,36 C61.1916927,35.9940526 59.6470818,37.4998512 59.6470818,39.3773198 C59.6470818,40.599854 56.9605056,44.2278422 51.9255757,45.8420828 L51.9255757,45.8420828 C50.7767965,46.2145175 50,47.2737004 50,48.4679386 L50,70.6421046 C50,71.3920214 50.6155834,72 51.3748803,72 L69.1075527,72 C70.6252174,72 72.0197654,70.8649536 72,69.293998 C71.9962261,69.2903272 71.9937483,69.2880329 71.9901864,69.2843621 L55.4992114,69.2843621 L55.4992114,69.2842092 Z"/>
    <path fill="#005263" fill-opacity=".255" d="M42.5,70.3332332 C40.9812312,70.3332332 39.7500774,69.139376 39.7500774,67.6666166 L39.7500774,49 L38.3750387,49 C37.6156543,49 37,49.5970037 37,50.3333834 L37,71.6666166 C37,72.4029963 37.6156543,73 38.3750387,73 L46.6249613,73 C47.3843457,73 48,72.4029963 48,71.6666166 L48,70.3332332 L42.5,70.3332332 Z"/>
    <circle cx="42" cy="68" r="2" fill="#005263"/>
  </g>
</svg>
