<svg xmlns="http://www.w3.org/2000/svg" width="45" height="45" viewBox="0 0 45 45">
  <g fill="none" fill-rule="evenodd">
    <g fill="#65D48E">
      <circle cx="22.5" cy="22.5" r="22.5" opacity=".12"/>
      <circle cx="22.5" cy="22.5" r="18.947" opacity=".233"/>
    </g>
    <g opacity=".228" transform="rotate(-32 39.046 2.817)">
      <circle cx="29.006" cy="13.484" r="1.184" fill="#005263"/>
      <circle cx="5.276" cy="1.859" r="1" fill="#005263"/>
      <circle cx="24.764" cy="1.401" r="1.184" fill="#005263"/>
      <circle cx=".91" cy="17.526" r="1" fill="#47A395" transform="matrix(1 0 0 -1 0 35.052)"/>
    </g>
    <path fill="#005263" fill-rule="nonzero" d="M23.1200004 20.8000003C25.5461744 20.8000003 27.5200005 18.8261742 27.5200005 16.4000002 27.5200005 13.9738262 25.5461744 12 23.1200004 12 20.6938264 12 18.7200002 13.9738262 18.7200002 16.4000002 18.7200002 18.8261742 20.6938264 20.8000003 23.1200004 20.8000003zM21.8024732 15.670096C21.758757 15.670364 21.7167569 15.653101 21.6858651 15.6221676 21.6549734 15.5912342 21.637767 15.5492109 21.6380939 15.5054951 21.6388111 15.462403 21.6568165 15.4214072 21.6880626 15.3917235 21.7193086 15.3620397 21.7611733 15.3461589 21.8042455 15.347651L21.8060455 15.347651 23.5071614 15.3593093C23.4314765 14.8967263 23.0359519 14.5543656 22.5672969 14.5457755L21.8140761 14.5377171C21.722193 14.5368189 21.6483807 14.4617057 21.6490876 14.3698209 21.6490075 14.3258077 21.6666197 14.2836091 21.6979649 14.2527117 21.7293101 14.2218144 21.7717579 14.2048112 21.8157653 14.205503L22.5662169 14.2136937 22.5662169 14.214303 24.4472197 14.2352381C24.5403056 14.2350546 24.6159155 14.3103668 24.6160993 14.4034528 24.6162825 14.4965387 24.5409702 14.5721485 24.4478843 14.5723321L24.4460843 14.5723321 23.4325593 14.5590676C23.6608531 14.7674576 23.8065685 15.0510152 23.8430923 15.3579524L24.4374168 15.3659277C24.5297764 15.3684037 24.6030107 15.4446237 24.6017961 15.5370085 24.6013081 15.6293219 24.5279112 15.704725 24.4356445 15.7077016L24.4338168 15.7077016 23.8394924 15.694991C23.7484894 16.3326814 23.2015041 16.8058179 22.5573555 16.8040256L22.543288 16.8040256 22.207994 16.8004256 23.7704287 18.3089441C23.8364445 18.3726812 23.8382918 18.4778667 23.7745548 18.5438825 23.7108177 18.6098984 23.6056322 18.6117457 23.5396163 18.5480086L21.676641 16.7493894C21.6277838 16.7021009 21.6126697 16.6298161 21.638487 16.5669139 21.6643043 16.5040117 21.7258423 16.4631876 21.7938333 16.4638578L22.5468326 16.4721654C22.5502941 16.4721654 22.5538663 16.4726361 22.5573278 16.4726361 23.0206662 16.4722459 23.4181401 16.1421749 23.5036445 15.6867942L21.8024732 15.670096zM16.2432401 21.3398803L13.94028 21.3398803C13.42108 21.3398803 13 21.7609604 13 22.2801604L13 32.6201608C13 33.1389208 13.42108 33.5600008 13.94028 33.5600008L16.2432401 33.5600008C16.7624401 33.5600008 17.1830802 33.1389208 17.1830802 32.6201608L17.1830802 22.2801604C17.1830802 21.7609604 16.7624401 21.3398803 16.2432401 21.3398803zM21.7423603 24.1594004L19.4394002 24.1594004C18.9197602 24.1594004 18.4991202 24.5804805 18.4991202 25.0996805L18.4991202 32.6192808C18.4991202 33.1389208 18.9197602 33.5595608 19.4394002 33.5595608L21.7423603 33.5595608C22.2615603 33.5595608 22.6822004 33.1384808 22.6822004 32.6192808L22.6822004 25.0996805C22.6822004 24.5804805 22.2615603 24.1594004 21.7423603 24.1594004zM27.2406005 24.1594004L24.9376404 24.1594004C24.4184404 24.1594004 23.9978004 24.5804805 23.9978004 25.0996805L23.9978004 32.6192808C23.9978004 33.1389208 24.4184404 33.5595608 24.9376404 33.5595608L27.2406005 33.5595608C27.7602405 33.5595608 28.1808806 33.1384808 28.1808806 32.6192808L28.1808806 25.0996805C28.1808806 24.5804805 27.7602405 24.1594004 27.2406005 24.1594004zM32.7397207 21.3398803L30.4367606 21.3398803C29.9175606 21.3398803 29.4969206 21.7609604 29.4969206 22.2801604L29.4969206 32.6201608C29.4969206 33.1393608 29.9175606 33.5600008 30.4367606 33.5600008L32.7397207 33.5600008C33.2589207 33.5600008 33.6800008 33.1384808 33.6800008 32.6201608L33.6800008 22.2801604C33.6800008 21.7609604 33.2589207 21.3398803 32.7397207 21.3398803z"/>
  </g>
</svg>
