<svg xmlns="http://www.w3.org/2000/svg" width="45" height="45" viewBox="0 0 45 45">
  <g fill="none" fill-rule="evenodd">
    <g fill="#65D48E">
      <circle cx="22.5" cy="22.5" r="22.5" opacity=".12"/>
      <circle cx="22.5" cy="22.5" r="18.947" opacity=".233"/>
    </g>
    <g opacity=".228" transform="rotate(-32 39.046 2.817)">
      <circle cx="29.006" cy="13.484" r="1.184" fill="#005263"/>
      <circle cx="5.276" cy="1.859" r="1" fill="#005263"/>
      <circle cx="24.764" cy="1.401" r="1.184" fill="#005263"/>
      <circle cx=".91" cy="17.526" r="1" fill="#47A395" transform="matrix(1 0 0 -1 0 35.052)"/>
    </g>
    <path fill="#005263" fill-rule="nonzero" d="M11.3287202 8.80000032C13.7548942 8.80000032 15.7287203 6.82617417 15.7287203 4.40000016 15.7287203 1.97382615 13.7548942 3.62376795e-13 11.3287202 3.62376795e-13 8.90254615 3.62376795e-13 6.92872 1.97382615 6.92872 4.40000016 6.92872 6.82617417 8.90254615 8.80000032 11.3287202 8.80000032zM10.011193 3.67009599C9.96747681 3.67036396 9.92547669 3.65310103 9.89458492 3.62216762 9.86369314 3.59123422 9.8464868 3.54921088 9.84681364 3.50549509 9.84753087 3.46240305 9.86553633 3.42140721 9.89678236 3.39172348 9.92802839 3.36203975 9.96989311 3.34615892 10.0129653 3.34765103L10.0147653 3.34765103 11.7158812 3.35930933C11.6401963 2.89672627 11.2446717 2.55436558 10.7760167 2.5457755L10.0227959 2.53771714C9.93091283 2.53681886 9.85710047 2.46170567 9.85780734 2.36982091 9.85772725 2.32580773 9.87533954 2.28360907 9.90668473 2.25271173 9.93802993 2.2218144 9.98047766 2.20481118 10.0244851 2.20550304L10.7749367 2.21369375 10.7749367 2.21430297 12.6559395 2.23523808C12.7490254 2.23505455 12.8246353 2.31036684 12.8248191 2.40345277 12.8250023 2.4965387 12.74969 2.57214854 12.6566041 2.57233207L12.6548041 2.57233207 11.6412791 2.55906763C11.8695729 2.7674576 12.0152882 3.05101521 12.0518121 3.35795243L12.6461366 3.36592771C12.7384962 3.36840373 12.8117305 3.44462366 12.8105159 3.53700852 12.8100279 3.62932192 12.736631 3.70472504 12.6443643 3.70770164L12.6425366 3.70770164 12.0482122 3.69499104C11.9572092 4.33268144 11.4102239 4.80581787 10.7660753 4.80402558L10.7520078 4.80402558 10.4167138 4.80042562 11.9791485 6.3089441C12.0451643 6.37268116 12.0470116 6.47786668 11.9832746 6.54388252 11.9195375 6.60989837 11.814352 6.61174569 11.7483361 6.54800862L9.88536082 4.74938938C9.83650362 4.70210093 9.82138951 4.62981611 9.84720681 4.56691388 9.87302412 4.50401165 9.93456213 4.46318759 10.0025531 4.46385778L10.7555524 4.47216536C10.7590139 4.47216536 10.7625861 4.47263612 10.7660476 4.47263612 11.229386 4.47224587 11.6268599 4.14217491 11.7123643 3.68679423L10.011193 3.67009599zM20.1009602 13.7053601C19.4832002 13.9192001 18.4377601 14.1568001 17.2972801 14.3944001 16.8696001 15.0359201 16.1330401 15.5824001 14.9688001 15.7487201 14.7074401 15.7962401 14.3985601 15.8200001 14.0659201 15.8200001 13.2580801 15.8200001 12.3314401 15.7012001 11.2860001 15.5824001 11.2147201 15.5824001 11.1434401 15.5586401 11.0721601 15.5586401 10.8345601 15.5348801 10.6207201 15.3448001 10.5969601 15.0834401 10.5732001 14.7508001 10.8583201 14.4894401 11.1672001 14.5369601 11.2384801 14.5369601 11.3335201 14.5607201 11.4048001 14.5607201 12.7591201 14.7032801 14.0184001 14.8696001 14.8262401 14.7270401 16.3231201 14.4894401 16.7745601 13.5865601 16.6795201 12.8262401 16.6082401 12.2084801 16.1805601 11.5907201 15.4440001 11.6382401 14.3985601 11.6857601 13.1630401 11.5669601 11.9750401 11.4481601 10.6207201 11.3056001 9.19512007 11.1868001 8.19720006 11.3293601 7.65072006 11.4006401 6.67656005 11.7570401 5.70240004 12.1609601 5.46480004 12.2560001 5.01336004 12.4460801 5.01336004 12.4460801L.641520005 13.7053601C.261360002 13.8241601-7.10542736e-15 14.1568001-7.10542736e-15 14.5607201L-7.10542736e-15 18.4811202C-7.10542736e-15 19.0038402.451440004 19.4077602.974160008 19.3840002L5.01336004 19.0513602C7.03296006 19.7641602 9.52776007 20.5482402 10.9771201 20.6670402 13.9233601 20.9046402 19.7445602 17.5544802 21.3840002 16.4615201 23.0472002 15.3923201 21.9304802 13.0876001 20.1009602 13.7053601z" transform="translate(11 12)"/>
  </g>
</svg>
