<svg xmlns="http://www.w3.org/2000/svg" width="45" height="45" viewBox="0 0 45 45">
  <g fill="none" fill-rule="evenodd">
    <g fill="#65D48E">
      <circle cx="22.5" cy="22.5" r="22.5" opacity=".12"/>
      <circle cx="22.5" cy="22.5" r="18.947" opacity=".233"/>
    </g>
    <g opacity=".228" transform="rotate(-32 37.303 3.317)">
      <circle cx="17.135" cy="25.933" r="1.184" fill="#005263"/>
      <circle cx="1.176" cy="16.029" r="1" fill="#005263"/>
      <circle cx="15.665" cy="6.992" r="1" fill="#005263"/>
      <circle cx="25.294" cy="1.553" r="1.184" fill="#005263"/>
      <circle cx="25.431" cy="19.837" r="1" fill="#47A395" transform="matrix(1 0 0 -1 0 39.674)"/>
    </g>
    <path fill="#005263" fill-rule="nonzero" d="M19.1000004,24.1800004 C18.7700004,23.3700003 18.1400004,22.7400003 17.3300004,22.3500003 L16.1900003,21.8400003 C15.5,22.4700003 14.6300003,22.8300003 13.7000002,22.8300003 C12.7700002,22.8300003 11.9000002,22.4700003 11.2100001,21.8400003 L10.0700001,22.3500003 C8.81000003,22.9200003 8,24.1500004 8,25.5300004 L8,27.2100005 C8,27.9000005 8.57000002,28.5000005 9.29000005,28.5000005 L16.6400003,28.5000005 C16.7300003,26.7000005 17.6900004,25.1100004 19.1000004,24.1800004 Z"/>
    <ellipse cx="13.7" cy="18.33" fill="#005263" fill-rule="nonzero" rx="2.85" ry="3.33"/>
    <path fill="#005263" fill-rule="nonzero" d="M34.4300011,22.3500003 L33.290001,21.8400003 C32.600001,22.4400003 31.7300009,22.8300003 30.8000009,22.8300003 C29.8400009,22.8300003 29.0000008,22.4700003 28.3100008,21.8400003 L27.1700008,22.3500003 C26.3600007,22.7100003 25.7300007,23.3700003 25.4000007,24.1800004 C26.8100007,25.1400004 27.7700008,26.7000005 27.8600008,28.5300005 L35.2100011,28.5300005 C35.9000007,28.5300005 36.5000011,27.9600005 36.5000011,27.2400005 L36.5000011,25.5600004 C36.5000011,24.1500004 35.6900011,22.9200003 34.4300011,22.3500003 Z"/>
    <ellipse cx="30.8" cy="18.33" fill="#005263" fill-rule="nonzero" rx="2.85" ry="3.33"/>
    <path fill="#005263" fill-rule="nonzero" d="M19.714417,28.2671589 C18.9193747,27.5298043 20.5189167,26.8082551 21.51582,25.6880403 C21.7884554,25.4352202 22.2275821,25.4394285 22.4956793,25.6880403 L24.2970823,27.3585163 C24.5676392,27.6094411 24.5676392,28.0162662 24.2970823,28.2671589 C24.0264908,28.5180836 23.5877453,28.5180194 23.317223,28.2671589 L22.6986143,27.6934789 L22.6986143,31.8575092 C22.6986143,32.2123569 22.3884266,32.5 22.005767,32.5 C21.6231074,32.5 21.3129197,32.2123569 21.3129197,31.8575092 L21.3129197,27.6934789 L20.694311,28.2671589 C20.4237194,28.5180515 19.9850085,28.5180515 19.714417,28.2671589 Z" transform="rotate(-90 22 29)"/>
  </g>
</svg>
