<svg xmlns="http://www.w3.org/2000/svg" width="45" height="45" viewBox="0 0 45 45">
  <g fill="none" fill-rule="evenodd">
    <g fill="#65D48E">
      <circle cx="22.5" cy="22.5" r="22.5" opacity=".12"/>
      <circle cx="22.5" cy="22.5" r="18.947" opacity=".233"/>
    </g>
    <g opacity=".228" transform="rotate(-32 37.046 -4.158)">
      <circle cx="1.686" cy="22.496" r="1.184" fill="#005263"/>
      <circle cx="1.276" cy="1.859" r="1" fill="#005263"/>
      <circle cx="20.764" cy="1.401" r="1.184" fill="#005263"/>
      <circle cx="21.431" cy="18.837" r="1" fill="#47A395" transform="matrix(1 0 0 -1 0 37.674)"/>
    </g>
    <g transform="translate(10 12)">
      <g transform="translate(6.47 3.071)">
        <circle cx="6.665" cy="6.665" r="6.665" fill="#FFF" stroke="#005263" stroke-width="1.212"/>
        <path fill="#005263" fill-rule="nonzero" d="M5.45747148,10.9109036 C8.46451123,10.9109036 10.9109036,8.46451123 10.9109036,5.45747148 C10.9109036,2.45043174 8.46451123,0.00403932603 5.45747148,0.00403932603 C2.45043174,0.00403932603 0.00403932603,2.45043174 0.00403932603,5.45747148 C0.00403932603,8.46451123 2.45043174,10.9109036 5.45747148,10.9109036 Z M3.82450678,4.55281631 C3.77032422,4.55314844 3.71826858,4.53175248 3.67998081,4.49341311 C3.64169304,4.45507375 3.62036721,4.40298934 3.62077231,4.34880727 C3.62166126,4.29539829 3.64397751,4.24458738 3.68270436,4.20779687 C3.7214312,4.17100637 3.77331902,4.15132342 3.82670338,4.15317276 L3.8289343,4.15317276 L5.93732519,4.16762226 C5.84352012,3.59428924 5.35330046,3.1699618 4.77244179,3.15931511 L3.83888763,3.14932746 C3.72500622,3.1482141 3.63352197,3.0551176 3.63439808,2.94123412 C3.63429882,2.88668346 3.65612777,2.83438175 3.69497752,2.79608709 C3.73382727,2.75779243 3.78643768,2.73671836 3.84098126,2.73757587 L4.77110324,2.74772756 L4.77110324,2.74848264 L7.10244884,2.77442995 C7.21782107,2.77420249 7.31153313,2.86754577 7.31176101,2.982918 C7.31198806,3.09829022 7.21864479,3.19200229 7.10327256,3.19222976 L7.10104164,3.19222976 L5.84486214,3.1757896 C6.12781323,3.43407154 6.3084152,3.78551748 6.35368348,4.16594048 L7.0902989,4.17582518 C7.20477098,4.178894 7.29553877,4.27336223 7.29403337,4.38786553 C7.29342851,4.50228027 7.20245915,4.59573613 7.08810231,4.59942538 L7.08583706,4.59942538 L6.34922164,4.58367165 C6.23643111,5.37403556 5.55848851,5.96044859 4.76012025,5.95822719 L4.74268476,5.95822719 L4.32711587,5.95376535 L6.26362296,7.82344782 C6.34544408,7.90244458 6.34773368,8.03281323 6.26873692,8.11463435 C6.18974016,8.19645547 6.05937151,8.19874506 5.97755039,8.1197483 L3.66854832,5.89051019 C3.6079939,5.83190012 3.58926122,5.74230913 3.62125961,5.66434708 C3.653258,5.58638503 3.72952922,5.53578701 3.81379836,5.53661766 L4.74707795,5.54691421 C4.75136818,5.54691421 4.7557957,5.54749768 4.76008593,5.54749768 C5.33435505,5.54701399 5.82699073,5.13791865 5.93296632,4.57351239 L3.82450678,4.55281631 Z" transform="translate(1.212 1.212)"/>
      </g>
      <path fill="#005263" fill-rule="nonzero" d="M22.279313 1.07999998L23.7532376 1.07999998C24.0517118 1.07999998 24.2932376.838214983 24.2932376.539999989 24.2932376.241784995 24.0517118 1.45661261e-13 23.7532376 1.45661261e-13L20.896616 1.45661261e-13C20.5981418 1.45661261e-13 20.3566161.241784995 20.3566161.539999989L20.3566161 3.39662153C20.3566161 3.69483653 20.5981418 3.93662152 20.896616 3.93662152 21.1950902 3.93662152 21.436616 3.69483653 21.436616 3.39662153L21.436616 1.75598817C25.9775731 6.39548987 25.9522579 13.8604389 21.3506588 18.462038 21.1397186 18.6729782 21.1397186 19.0146956 21.3506588 19.2256304 21.561599 19.4365652 21.9033164 19.4365706 22.1142512 19.2256304 27.1085977 14.2312893 27.1576405 6.14618808 22.279313 1.07999998zM4.97769176 16.2461427C4.67921756 16.2461427 4.43769177 16.4879277 4.43769177 16.7861427L4.43769177 18.3377192C-.0753149439 13.6962357-.0422237446 6.25310808 4.55001716 1.66086717 4.76095736 1.44992697 4.76095736 1.10820958 4.55001716.897274782 4.33907697.686339986 3.99735958.686334586 3.78642478.897274782-1.22703232 5.91079668-1.25972932 14.0405289 3.67541698 19.1027642L2.12107021 19.1027642C1.82259602 19.1027642 1.58107022 19.3445492 1.58107022 19.6427642 1.58107022 19.9409792 1.82259602 20.1827642 2.12107021 20.1827642L4.97769176 20.1827642C5.27616595 20.1827642 5.51769174 19.9409792 5.51769174 19.6427642L5.51769174 16.7861427C5.51769174 16.4879277 5.27617135 16.2461427 4.97769176 16.2461427z"/>
    </g>
  </g>
</svg>
