<svg xmlns="http://www.w3.org/2000/svg" width="45" height="45" viewBox="0 0 45 45">
  <g fill="none" fill-rule="evenodd">
    <g fill="#65D48E">
      <circle cx="22.5" cy="22.5" r="22.5" opacity=".12"/>
      <circle cx="22.5" cy="22.5" r="18.947" opacity=".233"/>
    </g>
    <g opacity=".228" transform="rotate(-32 39.046 2.817)">
      <circle cx="29.006" cy="13.484" r="1.184" fill="#005263"/>
      <circle cx="5.276" cy="1.859" r="1" fill="#005263"/>
      <circle cx="24.764" cy="1.401" r="1.184" fill="#005263"/>
      <circle cx=".91" cy="17.526" r="1" fill="#47A395" transform="matrix(1 0 0 -1 0 35.052)"/>
    </g>
    <path fill="#005263" fill-rule="nonzero" d="M15.2432401 22.3398803L12.94028 22.3398803C12.42108 22.3398803 12 22.7609604 12 23.2801604L12 33.6201608C12 34.1389208 12.42108 34.5600008 12.94028 34.5600008L15.2432401 34.5600008C15.7624401 34.5600008 16.1830802 34.1389208 16.1830802 33.6201608L16.1830802 23.2801604C16.1830802 22.7609604 15.7624401 22.3398803 15.2432401 22.3398803zM20.7423603 25.1594004L18.4394002 25.1594004C17.9197602 25.1594004 17.4991202 25.5804805 17.4991202 26.0996805L17.4991202 33.6192808C17.4991202 34.1389208 17.9197602 34.5595608 18.4394002 34.5595608L20.7423603 34.5595608C21.2615603 34.5595608 21.6822004 34.1384808 21.6822004 33.6192808L21.6822004 26.0996805C21.6822004 25.5804805 21.2615603 25.1594004 20.7423603 25.1594004zM26.2406005 25.1594004L23.9376404 25.1594004C23.4184404 25.1594004 22.9978004 25.5804805 22.9978004 26.0996805L22.9978004 33.6192808C22.9978004 34.1389208 23.4184404 34.5595608 23.9376404 34.5595608L26.2406005 34.5595608C26.7602405 34.5595608 27.1808806 34.1384808 27.1808806 33.6192808L27.1808806 26.0996805C27.1808806 25.5804805 26.7602405 25.1594004 26.2406005 25.1594004zM31.7397207 22.3398803L29.4367606 22.3398803C28.9175606 22.3398803 28.4969206 22.7609604 28.4969206 23.2801604L28.4969206 33.6201608C28.4969206 34.1393608 28.9175606 34.5600008 29.4367606 34.5600008L31.7397207 34.5600008C32.2589207 34.5600008 32.6800008 34.1384808 32.6800008 33.6201608L32.6800008 23.2801604C32.6800008 22.7609604 32.2589207 22.3398803 31.7397207 22.3398803z"/>
    <g transform="translate(17 11)">
      <circle cx="5.367" cy="5.367" r="5.367" fill="#FFF" stroke="#005263" stroke-width=".976"/>
      <path fill="#005263" fill-rule="nonzero" d="M4.3940996,8.78494693 C6.81522671,8.78494693 8.78494693,6.81522671 8.78494693,4.3940996 C8.78494693,1.9729725 6.81522671,0.00325227551 4.3940996,0.00325227551 C1.9729725,0.00325227551 0.00325227551,1.9729725 0.00325227551,4.3940996 C0.00325227551,6.81522671 1.9729725,8.78494693 4.3940996,8.78494693 Z M3.07931315,3.66571377 C3.0356879,3.66598118 2.99377514,3.64875416 2.96294763,3.6178851 C2.93212012,3.58701604 2.91494956,3.54508012 2.91527573,3.50145527 C2.91599147,3.45845287 2.93395947,3.41754231 2.96514051,3.38792033 C2.99632154,3.35829834 3.03809917,3.34245055 3.08108175,3.34393956 L3.08287798,3.34393956 L4.78045526,3.35557361 C4.70492782,2.8939528 4.31022599,2.55230429 3.84254588,2.54373208 L3.09089194,2.53569049 C2.99919998,2.53479407 2.92554116,2.45983714 2.92624656,2.36814351 C2.92616664,2.32422188 2.94374229,2.282111 2.97502228,2.25127794 C3.00630227,2.22044488 3.04866171,2.20347703 3.09257763,2.20416746 L3.84146815,2.21234112 L3.84146815,2.21294907 L5.71855807,2.23384063 C5.81145037,2.23365749 5.88690292,2.30881311 5.8870864,2.40170541 C5.88726921,2.4945977 5.81211359,2.57005026 5.7192213,2.57023341 L5.71742506,2.57023341 L4.70600836,2.55699656 C4.93382728,2.76495304 5.07923949,3.0479208 5.11568739,3.35421953 L5.70877552,3.36217822 C5.80094305,3.36464909 5.87402501,3.44071047 5.87281294,3.53290315 C5.87232593,3.62502452 5.79908168,3.70027078 5.70700692,3.7032412 L5.70518305,3.7032412 L5.11209493,3.69055704 C5.02128129,4.32692091 4.47543376,4.79907313 3.83262516,4.79728457 L3.81858692,4.79728457 L3.48399037,4.79369211 L5.04317489,6.29907257 C5.10905341,6.36267705 5.11089689,6.46764376 5.04729241,6.53352228 C4.98368793,6.5994008 4.87872122,6.60124428 4.8128427,6.5376398 L2.95374273,4.74276202 C2.90498716,4.69557194 2.88990448,4.62343749 2.91566808,4.56066611 C2.94143168,4.49789473 3.00284168,4.45715559 3.07069124,4.45782438 L3.82212411,4.46611468 C3.8255784,4.46611468 3.82914323,4.46658447 3.83259752,4.46658447 C4.29497204,4.46619502 4.69161913,4.13681068 4.7769457,3.68237727 L3.07931315,3.66571377 Z" transform="translate(.976 .976)"/>
    </g>
  </g>
</svg>
