<svg width="28" height="32" viewBox="0 0 28 32" fill="none" xmlns="http://www.w3.org/2000/svg">
<g clip-path="url(#clip0_34_3917)">
<path d="M24.28 0L21 3.31H22.65V8.23C21.0184 6.48067 18.9059 5.25282 16.5784 4.70087C14.2508 4.14892 11.8119 4.29751 9.56856 5.12795C7.32519 5.9584 5.37745 7.43361 3.97027 9.36809C2.56309 11.3026 1.75931 13.6099 1.66 16V28.69H0L3.31 32L6.62 28.69H5V24.88C6.66634 26.6589 8.82958 27.895 11.2082 28.4275C13.5868 28.9599 16.0706 28.764 18.3363 27.8653C20.602 26.9665 22.5447 25.4066 23.9116 23.3885C25.2784 21.3703 26.0062 18.9874 26 16.55V3.31H27.66L24.28 0ZM13.79 25.38C12.0436 25.38 10.3364 24.8621 8.88431 23.8919C7.43223 22.9216 6.30047 21.5426 5.63214 19.9291C4.96382 18.3156 4.78896 16.5402 5.12967 14.8274C5.47037 13.1145 6.31135 11.5411 7.54625 10.3062C8.78114 9.07135 10.3545 8.23037 12.0674 7.88967C13.7802 7.54896 15.5556 7.72382 17.1691 8.39214C18.7826 9.06047 20.1616 10.1922 21.1319 11.6443C22.1021 13.0964 22.62 14.8036 22.62 16.55C22.6213 17.7099 22.3938 18.8588 21.9505 19.9307C21.5073 21.0025 20.8569 21.9765 20.0367 22.7967C19.2165 23.6169 18.2425 24.2673 17.1707 24.7105C16.0988 25.1538 14.9499 25.3813 13.79 25.38Z" fill="#042b62"/>
<path d="M19.8588 16.55C19.8588 17.7505 19.5028 18.9241 18.8358 19.9223C18.1688 20.9205 17.2208 21.6985 16.1116 22.1579C15.0025 22.6174 13.782 22.7376 12.6046 22.5033C11.4271 22.2691 10.3455 21.691 9.49661 20.8421C8.64771 19.9932 8.0696 18.9116 7.83539 17.7342C7.60117 16.5567 7.72138 15.3362 8.1808 14.2271C8.64023 13.1179 9.41823 12.1699 10.4164 11.503C11.4146 10.836 12.5882 10.48 13.7888 10.48C15.3986 10.48 16.9425 11.1195 18.0809 12.2578C19.2192 13.3962 19.8588 14.9401 19.8588 16.55Z" fill="#EAEAEA" stroke="#939393" stroke-width="0.25"/>
<path d="M18.2111 16.5499C18.2131 17.4245 17.9555 18.2801 17.471 19.0082C16.9866 19.7364 16.297 20.3045 15.4895 20.6406C14.682 20.9766 13.793 21.0656 12.9349 20.8962C12.0769 20.7268 11.2884 20.3066 10.6692 19.6888C10.0501 19.0711 9.62812 18.2835 9.45676 17.4259C9.2854 16.5682 9.37235 15.679 9.70659 14.8707C10.0408 14.0625 10.6073 13.3716 11.3344 12.8855C12.0615 12.3994 12.9165 12.1399 13.7911 12.1399C14.9616 12.1399 16.0843 12.6042 16.913 13.4309C17.7416 14.2577 18.2084 15.3794 18.2111 16.5499Z" fill="#E2E2E2"/>
<path d="M15.5509 15C15.5351 14.9934 15.5181 14.99 15.5009 14.99C15.4838 14.99 15.4668 14.9934 15.4509 15H14.7709C14.7335 14.793 14.6479 14.5978 14.5209 14.43H15.4509C15.4676 14.4301 15.484 14.4267 15.4993 14.42C15.5145 14.4134 15.5282 14.4036 15.5395 14.3914C15.5508 14.3792 15.5594 14.3647 15.5648 14.349C15.5702 14.3333 15.5723 14.3166 15.5709 14.3V13.89C15.5795 13.8606 15.5795 13.8294 15.5709 13.8H15.4809H12.1309C12.1021 13.7883 12.0698 13.7883 12.0409 13.8C12.0333 13.8295 12.0333 13.8605 12.0409 13.89V14.42C12.0302 14.4491 12.0302 14.481 12.0409 14.51C12.0698 14.5217 12.1021 14.5217 12.1309 14.51H12.7109C13.2709 14.51 13.6309 14.66 13.7809 14.96H12.1309C12.1082 14.9491 12.0822 14.9471 12.0581 14.9545C12.034 14.9619 12.0136 14.9782 12.0009 15C11.9902 15.0291 11.9902 15.061 12.0009 15.09V15.5C11.9933 15.5295 11.9933 15.5605 12.0009 15.59C12.0298 15.6017 12.0621 15.6017 12.0909 15.59H13.7909C13.7636 15.6984 13.7126 15.7994 13.6418 15.8858C13.5709 15.9722 13.4818 16.0419 13.3809 16.09C13.1201 16.2175 12.8309 16.276 12.5409 16.26H12.0909C12.0572 16.2623 12.0255 16.2768 12.0016 16.3007C11.9777 16.3246 11.9633 16.3563 11.9609 16.39V17C11.9742 17.0023 11.9877 17.0023 12.0009 17C12.5109 17.55 13.1709 18.3 14.0009 19.28C14.0133 19.2948 14.0285 19.3068 14.0457 19.3154C14.0629 19.324 14.0817 19.329 14.1009 19.33H14.8809C14.9055 19.3309 14.9298 19.3248 14.9511 19.3124C14.9723 19.3 14.9896 19.2818 15.0009 19.26C15.0156 19.2396 15.0235 19.2151 15.0235 19.19C15.0235 19.1649 15.0156 19.1404 15.0009 19.12C14.2209 18.17 13.6209 17.46 13.1709 16.98C13.5717 16.9471 13.9541 16.7976 14.2709 16.55C14.5508 16.3087 14.7352 15.9753 14.7909 15.61H15.4509C15.4835 15.62 15.5184 15.62 15.5509 15.61C15.5595 15.5806 15.5595 15.5494 15.5509 15.52V15.11C15.5597 15.093 15.5643 15.0742 15.5643 15.055C15.5643 15.0359 15.5597 15.017 15.5509 15Z" fill="#042b62"/>
</g>
<defs>
<clipPath id="clip0_34_3917">
<rect width="27.59" height="32" fill="white"/>
</clipPath>
</defs>
</svg>
