<svg xmlns="http://www.w3.org/2000/svg" width="45" height="45" viewBox="0 0 45 45">
  <g fill="none" fill-rule="evenodd">
    <g fill="#65D48E">
      <circle cx="22.5" cy="22.5" r="22.5" opacity=".12"/>
      <circle cx="22.5" cy="22.5" r="18.947" opacity=".233"/>
    </g>
    <g opacity=".228" transform="rotate(-32 33.559 -3.158)">
      <circle cx="25.006" cy="15.484" r="1.184" fill="#005263"/>
      <circle cx="1.276" cy="3.859" r="1" fill="#005263"/>
      <circle cx="5.079" cy="26.616" r="1.184" fill="#005263"/>
      <circle cx="18.851" cy="1.398" r="1" fill="#47A395" transform="matrix(1 0 0 -1 0 2.796)"/>
    </g>
    <g fill="#005263" transform="translate(14 12)">
      <g fill-rule="nonzero">
        <path d="M11.5199995 17.9207466L12.605318 21.1199991 13.7759929 19.2034969 15.3599993 19.5922861 14.2741634 15.6799993C13.4712967 16.5444836 12.5463446 17.3012249 11.5199995 17.9207466L11.5199995 17.9207466zM2.36583581 15.6799993L1.27999994 19.5922861 2.86400634 19.2034969 4.03468122 21.1199991 5.11999977 17.9207466C4.09417198 17.3007167 3.16921985 16.5439753 2.36583581 15.6799993zM14.8772093 1.94211824C12.4888794 1.94211824 10.1729695 1.27196505 8.15948964 0 6.13631973 1.2745151 3.82601983 1.94211824 1.44278994 1.94211824L0 1.94211824 0 7.18502149C0 12.2310609 3.34763985 16.7553599 8.15999964 18.2399992 12.9723594 16.7553599 16.3199993 12.2310609 16.3199993 7.18502149L16.3199993 1.94211824 14.8772093 1.94211824zM15.2999993 7.18502149C15.2999993 11.6103786 12.5006094 15.5976372 8.33390963 17.1062469L8.15999964 17.1689781 7.98608964 17.1062469C3.81938983 15.5976372 1.01999995 11.6103786 1.01999995 7.18502149L1.01999995 2.96468838 1.52693993 2.96162832C3.75512983 2.94836806 5.96495973 2.3817469 7.91723965 1.32398607L8.16050964 1.19189347 8.40377962 1.32398607C10.3570795 2.3817469 12.5663994 2.94836806 14.7930593 2.96162832L15.2999993 2.96468838 15.2999993 7.18502149z"/>
        <polygon points="6.249 9.173 5.44 9.991 7.269 11.84 12.16 6.898 11.351 6.08 7.269 10.205"/>
        <path d="M2.2399999,3.86348258 L2.2399999,7.08540838 C2.2399999,11.028882 4.67554646,14.5880753 8.31999963,15.9999993 C11.9644528,14.5875642 14.3999994,11.028371 14.3999994,7.08540838 L14.3999994,3.86348258 C12.2841595,3.77609966 10.1977062,3.21909742 8.32050629,2.2399999 C6.44381305,3.21909742 4.35685314,3.77609966 2.2399999,3.86348258 Z M7.10501302,3.90231943 L7.46018633,4.85944346 C7.12223968,4.98719627 6.7787197,5.10421784 6.43975971,5.20744211 L6.14690639,4.22936662 C6.46509304,4.13227448 6.78733303,4.02240707 7.10501302,3.90231943 L7.10501302,3.90231943 Z M3.25333319,7.08489737 L3.25333319,4.82111762 L3.69413317,4.76286234 C4.18205315,4.69796392 4.67706646,4.60751493 5.1654931,4.49355942 L5.39399976,5.48952031 C5.02007978,5.57639222 4.64261313,5.65048885 4.26615981,5.7118102 L4.26615981,7.08540838 C4.26615981,7.20498501 4.26919981,7.32405063 4.27527981,7.44260523 L3.26295985,7.49472838 C3.25637319,7.35828838 3.25333319,7.22184838 3.25333319,7.08489737 L3.25333319,7.08489737 Z M13.5964261,6.94181423 L7.30666634,13.2855076 L4.05690649,10.0078816 L6.29333305,7.75227804 L7.30666634,8.7743005 L11.3599995,4.68621066 L13.5964261,6.94181423 Z"/>
      </g>
      <polygon points="3.253 4.821 8.32 3.243 13.834 5.207 13.834 8.009 8.5 14.553 5.44 12.627 2.908 8.009"/>
    </g>
    <text fill="#FFF" font-family="Muli-ExtraBold, Muli ExtraBold" font-size="10.8" font-weight="600">
      <tspan x="19" y="24">+</tspan>
    </text>
  </g>
</svg>
