<?xml version="1.0" encoding="UTF-8"?>
<svg width="18" height="19" id="Layer_1" xmlns="http://www.w3.org/2000/svg" viewBox="0 0 1080 1080">
  <defs>
    <style>
      .cls-1 {
        fill: #042b62;
      }

      .cls-2 {
        fill: #fff;
      }
    </style>
  </defs>
  <rect class="cls-1" x="81.36" y="88.67" width="884.65" height="903.33" rx="442.32" ry="442.32"/>
  <path class="cls-2" d="M504.98,627.25h42.53v-65.14h63.8v-43.43h-63.8v-65.14h-42.53v65.14h-63.8v43.43h63.8v65.14ZM398.65,714.11c-11.7,0-21.7-4.25-30.03-12.75-8.32-8.5-12.49-18.73-12.5-30.68v-260.58c0-11.94,4.17-22.16,12.5-30.66,8.34-8.5,18.35-12.75,30.03-12.77h255.19c11.69,0,21.71,4.26,30.05,12.77,8.34,8.51,12.5,18.73,12.48,30.66v97.72l85.06-86.86v238.86l-85.06-86.86v97.72c0,11.94-4.16,22.17-12.48,30.68-8.32,8.51-18.34,12.76-30.05,12.75h-255.19Z"/>
</svg>