<?xml version="1.0" encoding="UTF-8"?>
<svg width="16" height="18" id="Layer_1" xmlns="http://www.w3.org/2000/svg" viewBox="0 0 1080 1080">
  <defs>
    <style>
      .cls-1 {
        fill: #042b62;
      }
    </style>
  </defs>
  <path class="cls-1" d="M796.81,997.17c-35.61,0-65.87-12.47-90.8-37.39-24.93-24.93-37.39-55.19-37.39-90.8,0-4.99.35-10.16,1.07-15.51.71-5.36,1.78-10.16,3.2-14.4l-301.24-175.19c-12.11,10.68-25.64,19.05-40.59,25.13-14.96,6.07-30.62,9.09-47,9.06-35.61,0-65.88-12.46-90.8-37.39-24.93-24.93-37.39-55.19-37.39-90.8s12.46-65.88,37.39-90.8c24.93-24.93,55.19-37.39,90.8-37.39,16.38,0,32.05,3.03,47,9.1,14.96,6.07,28.49,14.43,40.59,25.08l301.24-175.19c-1.42-4.27-2.49-9.07-3.2-14.4-.71-5.33-1.07-10.5-1.07-15.51,0-35.61,12.47-65.88,37.39-90.8,24.93-24.93,55.19-37.39,90.8-37.39s65.87,12.46,90.8,37.39c24.93,24.93,37.39,55.19,37.39,90.8s-12.47,65.88-37.39,90.8c-24.93,24.93-55.19,37.39-90.8,37.39-16.38,0-32.05-3.02-47-9.06-14.95-6.04-28.48-14.41-40.59-25.13l-301.25,175.19c1.42,4.27,2.49,9.09,3.2,14.44.71,5.36,1.07,10.51,1.07,15.47s-.36,10.16-1.07,15.51c-.71,5.36-1.78,10.16-3.2,14.4l301.25,175.19c12.11-10.68,25.64-19.04,40.59-25.08,14.96-6.04,30.63-9.08,47-9.1,35.61,0,65.87,12.46,90.8,37.39,24.93,24.93,37.39,55.19,37.39,90.8s-12.47,65.87-37.39,90.8c-24.93,24.93-55.19,37.39-90.8,37.39Z"/>
</svg>