<?xml version="1.0" encoding="utf-8"?>
<!-- Generator: Adobe Illustrator 27.0.1, SVG Export Plug-In . SVG Version: 6.00 Build 0)  -->
<svg version="1.1" id="Layer_1" xmlns="http://www.w3.org/2000/svg" xmlns:xlink="http://www.w3.org/1999/xlink" x="0px" y="0px"
	 viewBox="0 0 1358 290" style="enable-background:new 0 0 1358 290;" xml:space="preserve">
<style type="text/css">
	.st0{fill:#ccd5e0;display:none}
	.st1{fill:#042b62;}
	.st2{fill:#FFFFFF;}
	.st3{fill:none;stroke:#C3C1D6;stroke-width:1.95;stroke-linecap:round;stroke-linejoin:round;}
	.st4{fill:none;stroke:#C3C1D6;stroke-width:1.9;stroke-linecap:round;stroke-linejoin:round;}
	.st5{fill:#042b62;}
	.st6{fill:#005263;}
	.st7{fill:#EEF0F7;}
	.st8{fill:#E6E6E6;}
	.st9{fill:#E2E2E2;}
	.st10{fill:#EAEAEA;}
	.st11{fill:#042b62;}
	.st12{fill:#FFB085;}
	.st13{fill:#FF5C55;}
	.st14{fill:#F2AB88;}
	.st15{fill:#182C3C;}
	.st16{fill:#EAEAEA;stroke:#A8A8A8;stroke-width:0.25;stroke-miterlimit:10;}
	.st17{fill:#024149;}
	.st18{fill:#E2E2E2;stroke:#A8A8A8;stroke-width:0.25;stroke-miterlimit:10;}
	.st19{fill:#0E1D28;}
	.st20{fill:#0E2838;}
	.st21{fill:#884627;}
	.st22{fill:#9F1818;}
	.st23{fill:#E34848;}
	.st24{fill:#FDFAEE;}
	.st25{fill:#DBD8BD;}
	.st26{fill:#351807;}
	.st27{fill:#542913;}
	.st28{fill:#110804;}
	.st29{fill:#E25D5D;}
</style>
<path class="st0" d="M73.9,60.7c0,2.7,2.2,4.8,4.8,4.8H182c2.7,0,4.8-2.2,4.8-4.8c0-1.3-0.5-2.5-1.4-3.4s-2.1-1.4-3.4-1.4h-4.9
	c-2.7-6.4-10.1-9.3-16.5-6.6c-1.5,0.6-2.8,1.6-4,2.7c-4.1-7-12.4-10.2-20.1-7.9c-5.2-9.7-17.3-13.4-27.1-8.2
	c-4.8,2.6-8.3,7-9.8,12.2c-6.2-3.1-13.8-0.6-16.9,5.6c-0.3,0.7-0.6,1.4-0.8,2.1h-3.1C76.1,55.9,73.9,58,73.9,60.7z"/>
<path class="st0" d="M585.4,60.4c0,2.6-2.1,4.7-4.7,4.7H480.3c-2.6,0-4.7-2.1-4.7-4.7s2.1-4.7,4.7-4.7l0,0h4.7
	c2.7-6.2,9.9-9.1,16.1-6.4c1.4,0.6,2.7,1.5,3.8,2.6c4-6.8,12.1-9.9,19.6-7.7c5-9.5,16.8-13.1,26.3-8c4.7,2.5,8.2,6.8,9.6,12
	c1.7-0.9,3.6-1.3,5.5-1.3c5.4,0,10.2,3.6,11.8,8.8h3C583.3,55.7,585.4,57.8,585.4,60.4L585.4,60.4z"/>
<path class="st0" d="M1321.2,63.5c0,0.7-0.3,1.4-0.8,1.9s-1.2,0.8-1.9,0.8h-57c-1.5,0-2.7-1.2-2.7-2.7c0-0.7,0.3-1.4,0.8-1.9
	s1.2-0.8,1.9-0.8h2.7c1.5-3.5,5.6-5.1,9.1-3.6c0.8,0.4,1.6,0.9,2.2,1.5c2.3-3.8,6.9-5.6,11.1-4.3c2.8-5.4,9.4-7.5,14.8-4.7
	c2.7,1.4,4.7,3.9,5.5,6.9c3.5-1.7,7.7-0.3,9.4,3.2c0.2,0.3,0.3,0.7,0.4,1.1h1.7C1320.1,60.9,1321.2,62.1,1321.2,63.5z"/>
<path class="st0" d="M1310,203.7l-3.4-5.6c-0.4-0.4-0.4-1,0-1.4s1-0.4,1.4,0c0.1,0.1,0.2,0.3,0.3,0.4l2.4,4l6.4-3.8
	c0.4-0.4,1-0.4,1.4,0.1c0.4,0.4,0.4,1-0.1,1.4c-0.1,0.1-0.2,0.2-0.4,0.2L1310,203.7z"/>
<path class="st0" d="M1312.3,212.3c-6.8,0-12.3-5.5-12.3-12.3s5.5-12.3,12.3-12.3s12.3,5.5,12.3,12.3l0,0
	C1324.6,206.8,1319.1,212.3,1312.3,212.3z M1312.3,189.4c-5.8,0-10.6,4.7-10.6,10.6c0,5.8,4.7,10.6,10.6,10.6
	c5.8,0,10.6-4.7,10.6-10.6C1322.8,194.2,1318.1,189.4,1312.3,189.4L1312.3,189.4z"/>
<path class="st0" d="M595.5,143.6l-3.4-5.6c-0.3-0.5-0.1-1,0.3-1.3c0.5-0.3,1.1-0.1,1.3,0.3l2.4,4l6.5-3.8c0.5-0.2,1.1,0.1,1.3,0.6
	c0.1,0.4,0,0.8-0.3,1.1L595.5,143.6z"/>
<path class="st0" d="M597.8,152.2c-6.8,0-12.3-5.5-12.3-12.3s5.5-12.3,12.3-12.3s12.3,5.5,12.3,12.3S604.6,152.2,597.8,152.2z
	 M597.8,129.3c-5.8,0-10.6,4.7-10.6,10.6s4.7,10.6,10.6,10.6s10.6-4.7,10.6-10.6C608.4,134.1,603.7,129.3,597.8,129.3L597.8,129.3z"
	/>
<path class="st0" d="M754,167.5l-3.4-5.6c-0.3-0.5-0.1-1.1,0.3-1.4c0.5-0.3,1.1-0.1,1.3,0.3l2.4,4l6.4-3.8c0.5-0.3,1.1-0.1,1.3,0.4
	c0.3,0.5,0.1,1-0.3,1.3L754,167.5z"/>
<path class="st0" d="M756.3,176.1c-6.8,0-12.3-5.5-12.3-12.3s5.5-12.3,12.3-12.3s12.3,5.5,12.3,12.3l0,0
	C768.6,170.6,763.1,176.1,756.3,176.1z M756.3,153.2c-5.8,0-10.6,4.7-10.6,10.6s4.7,10.6,10.6,10.6s10.6-4.7,10.6-10.6
	C766.8,157.9,762.1,153.2,756.3,153.2L756.3,153.2z"/>
<path class="st0" d="M839.9,30.2l-3.7-6c-0.3-0.5-0.1-1.1,0.3-1.4c0.5-0.3,1.1-0.1,1.4,0.3l2.6,4.2l6.9-4.1c0.5-0.3,1.1-0.1,1.4,0.4
	c0.3,0.5,0.1,1.1-0.4,1.4L839.9,30.2z"/>
<path class="st0" d="M842.4,39.4c-7.3,0-13.1-5.9-13.1-13.1c0-7.3,5.9-13.1,13.1-13.1c7.3,0,13.1,5.9,13.1,13.1l0,0
	C855.5,33.5,849.6,39.4,842.4,39.4z M842.4,15c-6.2,0-11.2,5-11.2,11.2s5,11.2,11.2,11.2s11.2-5,11.2-11.2
	C853.7,20.1,848.6,15,842.4,15L842.4,15L842.4,15z"/>
<path class="st0" d="M822.6,201.5l-2.9-4.8c-0.3-0.4-0.2-0.9,0.2-1.2s0.9-0.2,1.2,0.2l0.1,0.1l2.1,3.4l5.5-3.2
	c0.4-0.2,0.9-0.1,1.1,0.3c0.2,0.4,0.1,0.9-0.3,1.1L822.6,201.5z"/>
<path class="st0" d="M824.6,208.8c-5.8,0-10.5-4.7-10.5-10.4c0-5.8,4.7-10.5,10.4-10.5c5.8,0,10.5,4.7,10.5,10.4l0,0
	C835,204.1,830.3,208.8,824.6,208.8z M824.6,189.4c-5,0-9,4-9,9s4,9,9,9s9-4,9-9S829.5,189.4,824.6,189.4z"/>
<path class="st0" d="M775.6,74.1l-2.9-4.8c-0.2-0.4-0.1-0.9,0.3-1.1c0.4-0.2,0.9-0.1,1.1,0.3l0,0l2,3.4l5.5-3.2
	c0.4-0.2,0.9-0.1,1.1,0.3l0,0c0.2,0.4,0.1,0.9-0.3,1.1l0,0L775.6,74.1z"/>
<path class="st0" d="M777.5,81.5c-5.8,0-10.5-4.7-10.5-10.5s4.7-10.5,10.5-10.5S788,65.2,788,70.9C788,76.8,783.3,81.5,777.5,81.5z
	 M777.5,62.1c-5,0-9,4-9,9s4,9,9,9s9-4,9-9S782.5,62.1,777.5,62.1C777.5,62,777.5,62,777.5,62.1z"/>
<path class="st0" d="M659.5,74.5l-6.2-10.2c-0.6-0.8-0.5-1.9,0.2-2.5c0.8-0.6,1.9-0.5,2.5,0.2c0.1,0.1,0.2,0.3,0.3,0.4l4.4,7.2
	l11.8-7c0.8-0.5,1.9-0.2,2.4,0.6c0.5,0.8,0.2,1.9-0.6,2.4l0,0L659.5,74.5z"/>
<path class="st0" d="M663.8,90.3c-12.4,0-22.5-10.1-22.5-22.5s10.1-22.5,22.5-22.5s22.5,10.1,22.5,22.5l0,0
	C686.2,80.3,676.2,90.3,663.8,90.3z M663.8,48.6c-10.6,0-19.3,8.6-19.3,19.2s8.6,19.3,19.2,19.3S683,78.5,683,67.9l0,0
	C683,57.2,674.4,48.6,663.8,48.6z"/>
<path class="st0" d="M471.3,128.9l-6.2-10.2c-0.6-0.8-0.5-1.9,0.3-2.5s1.9-0.5,2.5,0.3c0.1,0.1,0.2,0.3,0.2,0.4l4.4,7.2l11.8-7
	c0.8-0.5,1.9-0.2,2.4,0.6c0.5,0.8,0.2,1.9-0.6,2.4L471.3,128.9z"/>
<path class="st0" d="M475.5,144.6c-12.4,0-22.5-10.1-22.5-22.5s10.1-22.5,22.5-22.5s22.5,10.1,22.5,22.5l0,0
	C498,134.6,487.9,144.6,475.5,144.6z M475.5,102.9c-10.6,0-19.3,8.6-19.3,19.3s8.6,19.3,19.3,19.3s19.3-8.6,19.3-19.3l0,0
	C494.8,111.5,486.2,102.9,475.5,102.9z"/>
<path class="st0" d="M1268.4,228.4l-2.3-3.8c-0.2-0.3-0.1-0.7,0.2-0.9s0.7-0.1,0.9,0.2l1.7,2.7l4.4-2.6c0.3-0.2,0.7-0.1,0.9,0.2l0,0
	c0.2,0.3,0.1,0.7-0.2,0.9L1268.4,228.4z"/>
<path class="st0" d="M1270,234.3c-4.6,0-8.4-3.8-8.4-8.4s3.8-8.4,8.4-8.4s8.4,3.8,8.4,8.4S1274.6,234.3,1270,234.3L1270,234.3z
	 M1270,218.7c-4,0-7.2,3.2-7.2,7.2s3.2,7.2,7.2,7.2s7.2-3.2,7.2-7.2l0,0C1277.2,221.9,1274,218.7,1270,218.7z"/>
<path class="st0" d="M350,220.1l-2.9-4.8c-0.2-0.4-0.1-0.9,0.3-1.1c0.4-0.2,0.9-0.1,1.1,0.3l0,0l2.1,3.4l5.5-3.2
	c0.4-0.2,0.9-0.1,1.1,0.3c0.2,0.4,0.1,0.9-0.3,1.1L350,220.1z"/>
<path class="st0" d="M352,227.4c-5.8,0-10.5-4.7-10.5-10.5s4.7-10.5,10.5-10.5s10.5,4.7,10.5,10.5S357.8,227.4,352,227.4z
	 M352,207.9c-5,0-9,4-9,9s4,9,9,9s9-4,9-9l0,0C361,211.9,357,207.9,352,207.9z"/>
<path class="st0" d="M1237.6,36.3l-2.9-4.8c-0.2-0.4-0.1-0.9,0.3-1.1s0.9-0.1,1.2,0.3l2.1,3.4l5.5-3.2c0.4-0.2,0.9-0.1,1.1,0.3
	s0.1,0.9-0.3,1.1L1237.6,36.3z"/>
<path class="st0" d="M1239.6,43.6c-5.8,0-10.5-4.7-10.5-10.5s4.7-10.5,10.5-10.5s10.5,4.7,10.5,10.5l0,0
	C1250.1,38.9,1245.4,43.6,1239.6,43.6z M1239.6,24.1c-5,0-9,4-9,9s4,9,9,9s9-4,9-9S1244.6,24.1,1239.6,24.1L1239.6,24.1z"/>
<path class="st1" d="M999.4,147.1L999.4,147.1c-1.6-0.8-3.5-1.3-5.3-1.3l3-5.9c3-5.9,0.6-13.1-5.3-16.1l0,0l0,0
	c-5.9-3-13.1-0.6-16.1,5.3l0,0l-4.2,8.3l-6.6-20c-2.3-7.1-10-11-17.1-8.6l0,0c-7.1,2.3-11,10-8.6,17.1l6.6,20l-8.3-4.2
	c-5.9-3-13.1-0.6-16.1,5.3l0,0l0,0c-3,5.9-0.6,13.1,5.3,16.1l0,0l5.8,3c-1.5,1.1-2.7,2.5-3.5,4.2l0,0c-3,5.9-0.6,13.1,5.3,16.1l0,0
	l5.8,2.9c-1.5,1.1-2.7,2.5-3.5,4.2l0,0c-3,5.9-0.6,13.1,5.3,16.1l0,0l5.8,3c-1.5,1.1-2.7,2.5-3.5,4.2l0,0c-2.9,5.9-0.6,13,5.3,16
	l36.8,18.6c2.7,1.3,5.8,1.6,8.6,0.6l0,0c2.8-0.9,5.2-3,6.5-5.6l18.6-36.8c3-5.9,0.6-13.1-5.3-16.1l0,0l0,0c-1.6-0.8-3.5-1.3-5.3-1.3
	l3-5.8c3-5.9,0.6-13.1-5.3-16.1l0,0l0,0c-1.6-0.8-3.5-1.3-5.3-1.3l3-5.9C1007.8,157.3,1005.4,150.1,999.4,147.1
	C999.5,147.1,999.4,147.1,999.4,147.1z"/>
<path class="st2" d="M1000.6,269.9c-0.2,0-0.4-0.1-0.5-0.4l-47.7-144.8c-0.1-0.3,0.1-0.5,0.3-0.6c0.3-0.1,0.5,0.1,0.6,0.3
	l47.7,144.8C1001.1,269.5,1001,269.7,1000.6,269.9L1000.6,269.9L1000.6,269.9z"/>
<path class="st2" d="M967.9,170.6c-0.1,0-0.1,0-0.2,0l-35.1-16.1c-0.3-0.1-0.4-0.4-0.2-0.7c0.1-0.2,0.4-0.4,0.7-0.2l35.1,16.1
	c0.2,0.1,0.4,0.4,0.2,0.6l0,0C968.3,170.5,968.1,170.6,967.9,170.6z"/>
<path class="st2" d="M967.9,170.6c-0.3,0-0.5-0.2-0.5-0.5c0-0.1,0-0.2,0.1-0.2l18.7-33.8c0.1-0.2,0.4-0.3,0.7-0.2
	c0.2,0.1,0.3,0.4,0.2,0.7l0,0l-18.7,33.8C968.3,170.5,968.1,170.6,967.9,170.6z"/>
<path class="st2" d="M975.5,193.5c-0.1,0-0.1,0-0.2,0l-35.1-16.1c-0.2-0.1-0.4-0.4-0.2-0.6l0,0c0.1-0.3,0.4-0.4,0.7-0.2l35.1,16.1
	c0.2,0.1,0.4,0.4,0.2,0.7C975.8,193.4,975.6,193.5,975.5,193.5z"/>
<path class="st2" d="M975.5,193.5c-0.3,0-0.5-0.2-0.5-0.5c0-0.1,0-0.2,0.1-0.2l18.7-33.8c0.1-0.3,0.4-0.4,0.7-0.3
	c0.3,0.1,0.4,0.4,0.3,0.7c0,0,0,0.1-0.1,0.1L976,193.3C975.8,193.4,975.6,193.5,975.5,193.5z"/>
<path class="st2" d="M983,216.4c-0.1,0-0.1,0-0.2-0.1l-35.1-16.1c-0.2-0.1-0.4-0.4-0.2-0.6l0,0c0.1-0.3,0.4-0.4,0.7-0.2l35.1,16.1
	c0.3,0.1,0.5,0.3,0.4,0.6C983.5,216.3,983.3,216.5,983,216.4L983,216.4z"/>
<path class="st2" d="M983,216.4c-0.1,0-0.2,0-0.2-0.1c-0.2-0.1-0.3-0.4-0.2-0.7l0,0l18.7-33.8c0.1-0.2,0.4-0.3,0.7-0.2l0,0
	c0.2,0.1,0.3,0.4,0.2,0.6l0,0L983.5,216C983.4,216.3,983.2,216.4,983,216.4z"/>
<path class="st2" d="M990.5,239.3c-0.1,0-0.1,0-0.2,0l-35.1-16.1c-0.3-0.1-0.4-0.4-0.2-0.7l0,0c0.1-0.2,0.4-0.4,0.6-0.2l0,0
	l35.1,16.1c0.3,0.1,0.5,0.3,0.4,0.6C991.1,239.3,990.8,239.4,990.5,239.3L990.5,239.3L990.5,239.3z"/>
<line class="st3" x1="1009.2" y1="205" x2="990.5" y2="238.8"/>
<path class="st1" d="M1143.1,150.2L1143.1,150.2c1.6-0.8,3.4-1.2,5.2-1.3l-2.9-5.7c-2.9-5.8-0.6-12.8,5.2-15.7l0,0l0,0
	c5.8-2.9,12.8-0.6,15.7,5.2l4.1,8.1l6.4-19.5c2.3-6.9,9.7-10.7,16.7-8.4l0,0c6.9,2.3,10.7,9.7,8.4,16.6l0,0l-6.4,19.5l8.1-4.1
	c5.8-2.9,12.8-0.6,15.7,5.2l0,0c2.9,5.8,0.6,12.8-5.2,15.7l-5.7,2.9c1.4,1.1,2.6,2.5,3.4,4.1l0,0c2.9,5.8,0.6,12.8-5.2,15.7l0,0
	l-5.7,2.9c1.4,1.1,2.6,2.5,3.4,4.1l0,0c2.9,5.8,0.6,12.8-5.2,15.7l0,0l-5.7,2.9c1.4,1.1,2.6,2.5,3.4,4.1l0,0
	c2.9,5.8,0.6,12.8-5.2,15.7l-35.9,18.1c-2.6,1.3-5.6,1.5-8.4,0.6l0,0c-2.8-0.9-5.1-2.9-6.4-5.5l-18.1-35.8
	c-2.9-5.8-0.6-12.8,5.2-15.7l0,0l0,0c1.6-0.8,3.4-1.2,5.2-1.2l-2.9-5.7c-2.9-5.8-0.6-12.8,5.2-15.7l0,0c1.6-0.8,3.4-1.2,5.2-1.3
	l-2.9-5.7C1135,160.1,1137.4,153.1,1143.1,150.2L1143.1,150.2z"/>
<path class="st2" d="M1142,269.9h-0.2c-0.3-0.1-0.4-0.4-0.3-0.6l0,0l46.5-141.2c0.1-0.3,0.4-0.4,0.6-0.3c0.3,0.1,0.4,0.4,0.3,0.6
	l-46.5,141.2C1142.4,269.8,1142.2,269.9,1142,269.9z"/>
<path class="st2" d="M1173.9,173.1c-0.2,0-0.4-0.1-0.4-0.3c-0.1-0.2,0-0.5,0.2-0.7l0,0l34.2-15.7c0.3-0.1,0.5,0,0.7,0.2
	c0.1,0.2,0,0.5-0.2,0.7l0,0l-34.3,15.7C1174,173.1,1173.9,173.1,1173.9,173.1z"/>
<path class="st2" d="M1173.9,173.1c-0.2,0-0.3-0.1-0.4-0.3l-18.3-33c-0.2-0.2-0.1-0.5,0.1-0.7s0.5-0.1,0.7,0.1c0,0,0,0.1,0.1,0.1
	l18.3,32.9c0.1,0.2,0,0.5-0.2,0.7C1174,173,1174,173.1,1173.9,173.1z"/>
<path class="st2" d="M1166.5,195.4c-0.3,0-0.5-0.2-0.5-0.5c0-0.2,0.1-0.4,0.3-0.4l34.3-15.7c0.3-0.1,0.5,0,0.7,0.2
	c0.1,0.3,0,0.5-0.2,0.7l-34.2,15.7C1166.7,195.4,1166.6,195.4,1166.5,195.4z"/>
<line class="st4" x1="1148.3" y1="162" x2="1166.5" y2="194.9"/>
<path class="st2" d="M1159.2,217.7c-0.2,0-0.4-0.1-0.5-0.3c-0.1-0.3,0-0.5,0.2-0.7l34.2-15.7c0.3-0.1,0.5,0,0.7,0.2
	c0.1,0.3,0,0.5-0.2,0.7l-34.3,15.7C1159.3,217.7,1159.2,217.7,1159.2,217.7z"/>
<line class="st4" x1="1140.9" y1="184.3" x2="1159.2" y2="217.2"/>
<path class="st2" d="M1151.8,240.1c-0.3,0.1-0.5-0.1-0.6-0.4s0.1-0.5,0.4-0.6l34.2-15.7c0.3-0.1,0.5,0,0.7,0.2
	c0.1,0.2,0,0.5-0.2,0.7l0,0L1152,240C1151.9,240,1151.9,240,1151.8,240.1z"/>
<line class="st4" x1="1133.6" y1="206.6" x2="1151.8" y2="239.6"/>
<path class="st5" d="M1006.8,272.3c-1.2-8.4-6.8-15.5-14.7-18.5c-1.1-4.5-5.1-7.6-9.7-7.6c-0.9,0-1.8,0.1-2.7,0.4
	c-2.7-5.8-8.4-9.4-14.7-9.4c-1.1,0-2.3,0.1-3.4,0.4c-1.3-7.4-8.3-12.3-15.7-11.1c-5.8,1-10.3,5.7-11.1,11.5
	c-8.4-3.2-17.7,1-20.9,9.4c-0.6,1.6-1,3.4-1.1,5.1c-0.7-0.1-1.4-0.1-2.2-0.1c-11.6,0-21.4,8.5-23,20L1006.8,272.3z"/>
<path class="st5" d="M1263.2,272.3c-1.2-8.4-6.8-15.5-14.7-18.5c-1.1-4.5-5.1-7.6-9.7-7.6c-0.9,0-1.8,0.1-2.7,0.4
	c-2.7-5.8-8.4-9.4-14.7-9.4c-1.1,0-2.3,0.1-3.4,0.4c-1.3-7.4-8.3-12.3-15.7-11.1c-5.8,1-10.3,5.7-11.1,11.5
	c-8.4-3.2-17.7,1-20.9,9.4c-0.6,1.6-1,3.4-1.1,5.1c-0.7-0.1-1.4-0.1-2.2-0.1c-11.6,0-21.4,8.5-23,20L1263.2,272.3z"/>
<path class="st6" d="M1000.2,38.7h162.1c4.4,0,8.1,3.6,8.1,8v219c0,4.4-3.6,8-8.1,8h-162.1c-4.4,0-8-3.6-8-8v-219
	C992.1,42.3,995.7,38.7,1000.2,38.7z"/>
<rect x="1001.4" y="46.2" class="st2" width="159.8" height="217.4"/>
<path class="st7" d="M1015.5,71.4h47c2.3,0,4.2,1.9,4.2,4.2v45c0,2.3-1.9,4.2-4.2,4.2h-47c-2.3,0-4.2-1.9-4.2-4.2v-45
	C1011.3,73.3,1013.2,71.4,1015.5,71.4z"/>
<path class="st8" d="M1146.5,78.6h-69.7c-2,0-3.6-1.6-3.6-3.6l0,0l0,0c0-2,1.6-3.6,3.6-3.6l0,0h69.7c2,0,3.6,1.6,3.6,3.6l0,0
	C1150.1,77,1148.5,78.6,1146.5,78.6z"/>
<path class="st8" d="M1146.5,94h-69.7c-2,0-3.6-1.6-3.6-3.6l0,0l0,0c0-2,1.6-3.6,3.6-3.6l0,0h69.7c2,0,3.6,1.6,3.6,3.6l0,0
	C1150.1,92.4,1148.5,94,1146.5,94z"/>
<path class="st8" d="M1146.5,109.4h-69.7c-2,0-3.6-1.6-3.6-3.6l0,0c0-2,1.6-3.6,3.6-3.6h69.7c2,0,3.6,1.6,3.6,3.6l0,0
	C1150.1,107.8,1148.5,109.4,1146.5,109.4L1146.5,109.4z"/>
<path class="st8" d="M1146.5,124.9h-69.7c-2,0-3.6-1.6-3.6-3.6l0,0l0,0c0-2,1.6-3.6,3.6-3.6l0,0h69.7c2,0,3.6,1.6,3.6,3.6l0,0
	C1150.1,123.3,1148.5,124.9,1146.5,124.9z"/>
<path class="st8" d="M1146.5,140.3h-133.4c-2,0-3.6-1.6-3.6-3.6l0,0l0,0c0-2,1.6-3.6,3.6-3.6l0,0h133.4c2,0,3.6,1.6,3.6,3.6l0,0
	C1150.1,138.7,1148.5,140.3,1146.5,140.3z"/>
<path class="st8" d="M1013,148.5h133.7c1.9,0,3.5,1.5,3.5,3.5v0.2c0,1.9-1.5,3.5-3.5,3.5H1013c-1.9,0-3.5-1.5-3.5-3.5V152
	C1009.5,150.1,1011.1,148.5,1013,148.5z"/>
<path class="st8" d="M1146.5,171.1h-133.4c-2,0-3.6-1.6-3.6-3.6l0,0l0,0c0-2,1.6-3.6,3.6-3.6l0,0h133.4c2,0,3.6,1.6,3.6,3.6l0,0
	C1150.1,169.5,1148.5,171.1,1146.5,171.1z"/>
<path class="st8" d="M1146.5,186.6h-133.4c-2,0-3.6-1.6-3.6-3.6l0,0l0,0c0-2,1.6-3.6,3.6-3.6l0,0h133.4c2,0,3.6,1.6,3.6,3.6l0,0
	C1150.1,184.9,1148.5,186.5,1146.5,186.6z"/>
<path class="st8" d="M1146.5,202h-133.4c-2,0-3.6-1.6-3.6-3.6l0,0c0-2,1.6-3.6,3.6-3.6h133.4c2,0,3.6,1.6,3.6,3.6l0,0
	C1150.1,200.4,1148.5,202,1146.5,202L1146.5,202z"/>
<path class="st8" d="M1146.5,217.4h-133.4c-2,0-3.6-1.6-3.6-3.6l0,0l0,0c0-2,1.6-3.6,3.6-3.6l0,0h133.4c2,0,3.6,1.6,3.6,3.6l0,0
	C1150.1,215.8,1148.5,217.4,1146.5,217.4z"/>
<path class="st8" d="M1146.5,232.8h-133.4c-2,0-3.6-1.6-3.6-3.6l0,0l0,0c0-2,1.6-3.6,3.6-3.6l0,0h133.4c2,0,3.6,1.6,3.6,3.6l0,0
	C1150.1,231.2,1148.5,232.8,1146.5,232.8z"/>
<path class="st8" d="M1146.5,248.2h-133.4c-2,0-3.6-1.6-3.6-3.6l0,0c0-2,1.6-3.6,3.6-3.6h133.4c2,0,3.6,1.6,3.6,3.6l0,0
	C1150.1,246.6,1148.5,248.2,1146.5,248.2L1146.5,248.2z"/>
<polygon class="st9" points="1001.4,206 1042.4,263.7 1001.4,263.7 "/>
<path class="st10" d="M1001.4,206l41,57.6c0,0,12.8-8.6,24.8-32C1067.2,231.7,1027.2,224.2,1001.4,206z"/>
<path class="st6" d="M1126.6,32.7h-28.1c-2.5-9.5-12.2-15.2-21.7-12.7c-6.2,1.6-11.1,6.5-12.7,12.7H1036c-1,0-1.9,0.8-1.9,1.9l0,0
	v20.2c0,1,0.8,1.9,1.9,1.9h90.6c1,0,1.9-0.8,1.9-1.9l0,0V34.6C1128.5,33.6,1127.6,32.7,1126.6,32.7L1126.6,32.7z M1084,30.3
	c-1.5,1.5-3.9,1.5-5.4,0s-1.5-3.9,0-5.4s3.9-1.5,5.4,0c0.7,0.7,1.1,1.7,1.1,2.7S1084.7,29.6,1084,30.3z"/>
<path class="st1" d="M1045.6,99c4.9-3.6,6-10.6,2.4-15.5s-10.6-6-15.5-2.4s-6,10.6-2.4,15.5c0.7,0.9,1.5,1.7,2.4,2.4
	c-5,2.5-8.2,7.6-8.2,13.2v12.6h29.6v-12.6C1053.8,106.6,1050.6,101.5,1045.6,99z"/>
<path class="st9" d="M949,65.1h72.3c2.1,0,3.8,1.7,3.8,3.8v21.8c0,2.1-1.7,3.8-3.8,3.8l0,0h-5.2v5.1c0,0.5-0.4,0.9-0.9,0.9
	c-0.2,0-0.5-0.1-0.7-0.3l-5.7-5.7H949c-2.1,0-3.8-1.7-3.8-3.8l0,0V68.9C945.2,66.8,946.9,65.1,949,65.1z"/>
<path class="st11" d="M959.8,74.8l0.9,1.8c0.1,0.3,0.4,0.5,0.7,0.5l2,0.3c0.5,0.1,0.9,0.6,0.8,1.1c0,0.2-0.1,0.4-0.3,0.6l-1.4,1.4
	c-0.2,0.2-0.3,0.6-0.3,0.9l0.3,2c0.1,0.5-0.3,1-0.9,1.1c-0.2,0-0.4,0-0.6-0.1l-1.7-0.9c-0.3-0.2-0.6-0.2-0.9,0l-1.7,0.9
	c-0.5,0.2-1.1,0-1.3-0.4c-0.1-0.2-0.1-0.4-0.1-0.6l0.3-2c0.1-0.3-0.1-0.7-0.3-0.9l-1.4-1.4c-0.4-0.4-0.4-1,0-1.4
	c0.2-0.2,0.3-0.3,0.6-0.3l2-0.3c0.3,0,0.6-0.2,0.8-0.5l0.8-1.8c0.2-0.5,0.8-0.7,1.3-0.4C959.5,74.4,959.7,74.6,959.8,74.8z"/>
<path class="st11" d="M972.9,74.8l0.9,1.8c0.1,0.3,0.4,0.5,0.7,0.5l2,0.3c0.5,0.1,0.9,0.6,0.8,1.1c0,0.2-0.1,0.4-0.3,0.6l-1.4,1.4
	c-0.2,0.2-0.3,0.6-0.3,0.9l0.3,2c0.1,0.5-0.3,1-0.9,1.1c-0.2,0-0.4,0-0.6-0.1l-1.7-0.9c-0.3-0.2-0.6-0.2-0.9,0l-1.7,0.9
	c-0.5,0.2-1.1,0-1.3-0.4c-0.1-0.2-0.1-0.4-0.1-0.6l0.3-2c0.1-0.3-0.1-0.7-0.3-0.9l-1.5-1.4c-0.4-0.4-0.4-1,0-1.4
	c0.2-0.2,0.3-0.3,0.6-0.3l2-0.3c0.3,0,0.6-0.2,0.8-0.5l0.9-1.8c0.3-0.5,0.9-0.6,1.4-0.4C972.7,74.5,972.8,74.6,972.9,74.8z"/>
<path class="st11" d="M986,74.8l0.9,1.8c0.1,0.3,0.4,0.5,0.8,0.5l2,0.3c0.5,0.1,0.9,0.6,0.8,1.1c0,0.2-0.1,0.4-0.3,0.6l-1.4,1.4
	c-0.2,0.2-0.3,0.6-0.3,0.9l0.3,2c0.1,0.5-0.3,1-0.9,1.1c-0.2,0-0.4,0-0.6-0.1l-1.7-0.9c-0.3-0.2-0.6-0.2-0.9,0l-1.7,0.9
	c-0.5,0.2-1.1,0-1.3-0.4c-0.1-0.2-0.1-0.4-0.1-0.6l0.3-2c0.1-0.3,0-0.6-0.3-0.9l-1.4-1.4c-0.4-0.4-0.4-1,0-1.4
	c0.2-0.2,0.3-0.3,0.6-0.3l2-0.3c0.3,0,0.6-0.3,0.7-0.5l0.9-1.8c0.3-0.5,0.9-0.6,1.4-0.3C985.8,74.6,985.9,74.7,986,74.8z"/>
<path class="st11" d="M999.2,74.8l0.9,1.8c0.1,0.3,0.4,0.5,0.8,0.5l2,0.3c0.5,0.1,0.9,0.6,0.8,1.1c0,0.2-0.1,0.4-0.3,0.6l-1.4,1.4
	c-0.2,0.2-0.3,0.6-0.3,0.9l0.3,2c0.1,0.5-0.3,1-0.9,1.1c-0.2,0-0.4,0-0.6-0.1l-1.7-0.9c-0.3-0.2-0.6-0.2-0.9,0l-1.7,0.9
	c-0.5,0.2-1.1,0-1.3-0.4c-0.1-0.2-0.1-0.4-0.1-0.6l0.3-2c0.1-0.3,0-0.6-0.3-0.9l-1.4-1.4c-0.4-0.4-0.4-1,0-1.4
	c0.2-0.2,0.3-0.3,0.6-0.3l2-0.3c0.3,0,0.6-0.3,0.7-0.5l0.9-1.8c0.3-0.5,0.9-0.6,1.4-0.3C999,74.6,999.1,74.7,999.2,74.8z"/>
<path class="st2" d="M1012.3,74.8l0.9,1.8c0.1,0.3,0.4,0.5,0.8,0.5l2,0.3c0.5,0.1,0.9,0.6,0.8,1.1c0,0.2-0.1,0.4-0.3,0.6l-1.5,1.4
	c-0.2,0.2-0.3,0.6-0.3,0.9l0.3,2c0.1,0.5-0.3,1-0.9,1.1c-0.2,0-0.4,0-0.6-0.1l-1.7-0.9c-0.3-0.2-0.6-0.2-0.9,0l-1.8,0.9
	c-0.5,0.2-1.1,0-1.3-0.4c-0.1-0.2-0.1-0.4-0.1-0.6l0.3-2c0.1-0.3,0-0.6-0.3-0.9l-1.4-1.4c-0.4-0.4-0.4-1,0-1.4
	c0.2-0.2,0.3-0.3,0.6-0.3l2-0.3c0.3,0,0.6-0.3,0.7-0.5l0.9-1.8c0.3-0.5,0.9-0.6,1.4-0.4C1012.1,74.5,1012.2,74.6,1012.3,74.8z"/>
<path class="st12" d="M1201.2,93l-0.2,0.6l-0.3-0.1L1197,98l-3.1,3.7l-2.6-0.8l1.6-5.1c-0.6-0.8-1-1.6-1.4-2.5
	c-0.3-0.8-0.4-1.6-0.3-2.4c0.1-1.3,0.5-2.6,1-3.8h0.9l4.1,1.3l0.1-0.6l1.4-0.2l0.9-0.1l2.4-7.3l0,0c0.2-0.7,0.9-1.1,1.6-0.9
	c0.1,0,0.2,0.1,0.2,0.1c0.5,0.3,0.8,0.9,0.6,1.4l-2.7,10.1l-0.3,1.2l-0.1,0.4v0.2v0.1L1201.2,93z"/>
<path class="st13" d="M1201.2,93l-0.2,0.6l-0.3-0.1L1197,98c-1.3,0-2.5-0.3-2.6-1.3c-0.2-1.3,0.2-2.6,1.1-3.5
	c-2.9-0.6-3.9-1.8-4.3-2.4c0.1-1.3,0.5-2.6,1-3.8h0.9l4.1,1.3l0.1-0.6l1.4-0.2l-1.1,2.7l1.4,1.3l2.4,0.5l-0.1,0.4v0.3L1201.2,93z"/>
<path class="st12" d="M1198.4,92c-0.2,0.3-0.4,0.5-0.7,0.6c-0.1,0-0.2,0.1-0.3,0.1c-0.2,0-0.4,0-0.6,0c-0.5-0.1-0.9-0.6-0.8-1.2
	c0-0.1,0.1-0.2,0.1-0.3l0.2-1.5l0.5-3c0.8-0.4,1.7-0.4,2.4,0.2c0.2,0.1,0.3,0.3,0.5,0.4l-0.8,2.8l-0.1,0.3L1198.4,92z"/>
<path class="st12" d="M1193.1,91.5c-0.2,0-0.4,0-0.7-0.1c-1-0.3-0.8-1-0.1-4.4c0.3-0.6,1-0.8,1.6-0.6c0.2,0.1,0.3,0.2,0.5,0.3
	l-0.8,4.3C1193.5,91.3,1193.3,91.5,1193.1,91.5z"/>
<path class="st12" d="M1196.1,91.3c-0.1,0.3-0.3,0.6-0.6,0.8c-0.2,0.1-0.4,0.2-0.6,0.1c-0.8-0.1-1.2-0.5-1.3-1.2l0.8-4.3
	c0.5-0.5,1.3-0.7,2-0.3c0.2,0.1,0.3,0.2,0.5,0.3L1196.1,91.3z"/>
<path class="st13" d="M1201.6,91.6c-0.2,0.2-0.4,0.4-0.7,0.6c-0.6,0.5-1.4,0.9-2.1,1.1c-0.3-0.3-0.5-0.6-0.5-1
	c-0.1,0.2-0.3,0.4-0.6,0.5c-0.1,0-0.2,0.1-0.2,0.1l-0.1-0.1c-0.2,0-0.4,0-0.6,0c-0.5-0.1-0.9-0.6-0.8-1.2c0-0.1,0.1-0.2,0.1-0.3
	l0.2-1.5c0.1-0.1,0.1-0.2,0.2-0.2c0.1-0.1,0.3-0.2,0.4-0.1c0.6,0.3,1.2,0.5,1.7,0.7h0.1h0.2c1,0.3,1.7,0.5,2.2,0.6h0.1
	c0.3,0.1,0.5,0.4,0.4,0.7C1201.7,91.5,1201.7,91.6,1201.6,91.6L1201.6,91.6z"/>
<path class="st13" d="M1196.1,91.3c-0.1,0.3-0.3,0.6-0.6,0.8l0.8-5.6c0.2,0.1,0.3,0.2,0.5,0.3L1196.1,91.3z"/>
<path class="st13" d="M1193.1,91.5l0.8-5c0.2,0.1,0.3,0.2,0.5,0.3l-0.8,4.3C1193.5,91.3,1193.3,91.5,1193.1,91.5z"/>
<path class="st13" d="M1198.4,92c-0.2,0.3-0.4,0.5-0.7,0.6l1.5-5.7c0.2,0.1,0.3,0.3,0.5,0.4L1198.4,92z"/>
<path class="st12" d="M1201.9,94.5l-3.5,2.8l-1.6,5.2l-3.9-1.2l2-6.5c0.6-1.2,1.8-1.9,3.2-1.9c-0.2-0.1-0.3-0.2-0.5-0.2l-0.1-0.1
	c-1-0.5-1.3-1.8-0.8-2.7l0,0c0.1-0.2,0.3-0.2,0.5-0.2c0.6,0.3,1.2,0.5,1.8,0.7c0.7,0.2,1.4,0.3,2.1,0.4c0.3,0,0.6,0.3,0.7,0.6v0.1
	l0.5,2.1C1202.2,94,1202.1,94.3,1201.9,94.5z"/>
<path class="st14" d="M1254.7,265.8l5.6,0.5c1.5,2,3.1,3.9,4.8,5.7c1,0.7,7.1,2.2,6.9,3.3s-1.7,2.5-4.1,2.2
	c-1.8-0.1-3.5-0.3-5.2-0.7c-2.9-0.9-5.9-1.5-8.9-1.9c-0.5-0.1-0.9-0.4-1-0.9C1253.7,271.5,1253.9,269.1,1254.7,265.8z"/>
<path class="st15" d="M1253.8,268.5c2,0.8,3.3,1.4,5,1.3h0.3c1.5,1.4,2.9,2.4,2.5,1.5c-0.2-0.4-0.8-1.2-1.1-1.9
	c0.6-0.2,1.2-0.5,1.7-0.9c1.1,1.3,2.4,2.5,3.8,3.5c1.1,0.8,8,2.4,7.8,3.7s-2,2.8-4.6,2.5c-3-0.4-6-0.9-8.9-1.6c-0.7-0.6-1.6-1-2.6-1
	c-0.3,0-0.7,0-1,0.1c-0.9-0.2-1.8-0.3-2.8-0.5c-0.6-0.1-1.1-0.6-1.2-1.3C1252.7,272.6,1253.4,270.5,1253.8,268.5z"/>
<path d="M1252.8,273c0.7,0.2,1.5,0.3,2.9,0.6c3.9,0.9,4,2,5.5,2.5c2.7,0.9,5.5,1.3,8.3,1.3c1.6,0.1,3.2-0.5,4.2-1.7v0.1
	c-0.3,1.3-2,2.8-4.6,2.5c-3-0.4-6-0.9-8.9-1.6c-0.7-0.6-1.6-1-2.6-1c-0.3,0-0.7,0-1,0.1c-0.9-0.2-1.8-0.3-2.8-0.5
	c-0.6-0.1-1.1-0.6-1.2-1.3C1252.8,273.9,1252.8,273,1252.8,273z"/>
<path class="st14" d="M1223.9,265.8l-5.6,0.5c-1.5,2-3.1,3.9-4.8,5.7c-1,0.7-7.1,2.2-6.9,3.3s1.7,2.5,4.1,2.2
	c1.8-0.1,3.5-0.3,5.2-0.7c2.9-0.9,5.9-1.5,8.9-1.9c0.5-0.1,0.9-0.4,1-0.9C1224.9,271.5,1224.7,269.1,1223.9,265.8z"/>
<path class="st15" d="M1224.8,268.5c-2,0.8-3.4,1.4-5,1.3h-0.3c-1.5,1.4-2.9,2.4-2.5,1.5c0.2-0.4,0.8-1.2,1.1-1.9
	c-0.6-0.2-1.2-0.5-1.7-0.9c-1.1,1.3-2.4,2.5-3.8,3.5c-1.1,0.8-8,2.4-7.8,3.7s2,2.8,4.6,2.5c3-0.4,6-0.9,8.9-1.6c0.7-0.6,1.6-1,2.6-1
	c0.3,0,0.6,0,0.9,0.1c0.9-0.2,1.8-0.3,2.8-0.5c0.6-0.1,1.1-0.6,1.2-1.3C1225.9,272.6,1225.2,270.5,1224.8,268.5z"/>
<path d="M1225.8,273c-0.7,0.2-1.5,0.3-2.9,0.6c-3.9,0.9-4.1,2-5.5,2.5c-2.7,0.9-5.5,1.3-8.3,1.3c-1.6,0.1-3.2-0.5-4.2-1.7v0.1
	c0.3,1.3,2,2.8,4.6,2.5c3-0.4,6-0.9,8.9-1.6c0.7-0.6,1.6-1,2.6-1c0.3,0,0.6,0,0.9,0.1c0.9-0.2,1.8-0.3,2.8-0.5
	c0.6-0.1,1.1-0.6,1.2-1.3C1225.8,273.9,1225.8,273,1225.8,273z"/>
<path class="st6" d="M1214.1,169.4c0,0,1.2,31.8,2.6,42c0,0-1.2,6.1,0,9.2c0.3,3.4-1.3,4.4-1.3,4.4v41.2c0,0,5,2.9,9.4,2.5
	c0,0,1-13.5,3.6-23.1c1.2-9.4,0-22.2,0-22.2c3.4-13,6.1-26.1,8.1-39.4c0,0,2.4-1.4,3.2,0.6c0,0,6.1,38.9,8.6,42.5
	c0,0-2.5,16.1,5.5,41.7c0,0,5.2,0.7,8-2.8c0,0-3.1-52.1-1.6-68.2c0.7-15.8,0-26.8,0-26.8l-5.5-4.6L1214.1,169.4z"/>
<path class="st16" d="M1225.3,91l-15.3,6l-14,9.3l-2.1,10.8c0,0-3.8,9.6-11.5,6.2c-0.8-2.4-0.8-5,0-7.4c0,0-4,8.7,0.2,11.5h8.1
	l21.7-12.5l1.8,54.6c0,0,3.3,3.3,22.9,2.6l0.8-4l2.4,4.1c0,0,14.4-4.5,19.1-9.4l-1.1-16.4c0,0,9.2,0,10.8,1.3l1.5-8.3
	c0,0-2.8-30.8-4-35.1c0,0-0.4-8.1-8.7-9.3c0,0-10.2-1.1-12.8-7.9l-15.9-1.1C1228,87.8,1226.7,89.4,1225.3,91z"/>
<path class="st9" d="M1258.3,146.3V138c0,0,9.8-0.2,12.3,1.3l-1.5,8.3C1269.1,147.6,1265.7,146.3,1258.3,146.3z"/>
<path class="st9" d="M1262.7,100.3c0,0-4.3,16.2-3,21.8l1.4,3.9c0,0,1.2-5.8,3.3-6.9c0,0-3.6,9.5-2.5,13.8c0,0,2.4-3.4,4.7-2.2
	c0,0-6.7,2.8-4.8,7.3h-3.5c0,0,1.3,6.1-2.3,21.2c0,0,0.7-9.9,0-14.5c0,0-1.9,4.7-5.6,6.9c0,0,9-11.7,7.8-25.9
	S1260.5,105.9,1262.7,100.3z"/>
<path class="st9" d="M1190.7,127.4l21.7-16.8c0,0-0.7-11.4-2.1-10.2c0,0,4.7-5.2,2.7,33.9l-0.6-19.4L1190.7,127.4z"/>
<path class="st17" d="M1239.8,184.6l12.1,42.1l6.6,41.5l-4.7,0.5c0,0-6.5-20.6-5.5-41.7C1244.5,213.1,1241.6,198.9,1239.8,184.6z"/>
<path class="st12" d="M1267.9,147.2l-7.8,23.7c0,0-1.7,6.3-8.1,1.2s1.2-8,1.2-8s2.7-0.3,5-17.8
	C1258.3,146.3,1264.7,145.8,1267.9,147.2z"/>
<path class="st17" d="M1224.9,268.7c0,0,1-15.1,3.8-25.1c0,0,0.1-13.2-0.2-20.3c0,0,5.9-22.3,7.3-34.4l-10.9,36.2
	c0,0-4.6,37.3-3.4,43.3C1222.6,268.7,1223.7,268.8,1224.9,268.7z"/>
<path class="st17" d="M1249.6,168.6c0,0,0.5,4.5,9.9,6.3C1259.5,174.8,1250,175.7,1249.6,168.6z"/>
<path class="st16" d="M1198.5,100.7c0,0-3.8,9.3-4.1,15s-6.6,10.9-12.8,7.5c-2.4-7.6,9.1-25,9.1-25L1198.5,100.7z"/>
<path class="st13" d="M1236.7,95.8c8,0,11.5-1.5,12.6-1.8c-1.5-1.8-2.5-4-2.8-6.3c-0.1-0.9-0.9-1.6-1.8-1.6H1230
	c-0.7,0-1.2,0.5-1.3,1.2c-0.3,2.6-1.4,5.1-3.2,7.1C1229.1,95.2,1232.9,95.7,1236.7,95.8z"/>
<path class="st18" d="M1229.2,89.3c0,0-2.8,11.5,7,14.7l1.1,9.4l1.4-9.1c0,0,8.5-2,6.8-15C1245.4,89.3,1239.4,103.3,1229.2,89.3z"/>
<path class="st18" d="M1249,101.4l-5.2-4.1l-4.3,4.1l-1.5,4.8V99c0,0,7.9-3,7.5-13l3.8,5.1L1249,101.4z"/>
<polygon class="st18" points="1248.7,100.7 1244.2,97.2 1239.9,101.3 1238.7,105.3 1241.3,100.5 "/>
<path class="st18" d="M1225.6,101.4l5.2-4.1l4.3,4.1l1.5,4.8V99c0,0-7.9-3-7.5-13l-3.8,5.1L1225.6,101.4z"/>
<polygon class="st18" points="1226.4,100.9 1230.8,97.3 1235.1,101.4 1236.4,105.4 1233.7,100.6 "/>
<path class="st12" d="M1224.4,78c1.4-2,4.8,1.2,4.8,1.2c1.2,1.6,1.1,3.9-0.3,5.3c-1.2,1.4-2.6,0.3-3.5-1.4S1223.4,79.4,1224.4,78z"
	/>
<path class="st13" d="M1226.5,83.3c0.3,0.4,0.7,0.5,1.2,0.5c0.2-0.1,0.4-0.3,0.3-0.5c-0.1-0.4-1.5-1.2-1.2-2.4s-1.2-2.4-1.7-1.7
	S1225.3,82.1,1226.5,83.3z"/>
<path class="st12" d="M1250.3,78c-1.4-2-4.8,1.2-4.8,1.2c-1.2,1.6-1.1,3.9,0.3,5.3c1.2,1.4,2.6,0.3,3.5-1.4S1251.3,79.4,1250.3,78z"
	/>
<path class="st13" d="M1248.2,83.3c-0.3,0.4-0.7,0.5-1.2,0.5c-0.2-0.1-0.4-0.3-0.3-0.5c0.1-0.4,1.5-1.2,1.2-2.4s1.2-2.4,1.7-1.7
	S1249.4,82.1,1248.2,83.3z"/>
<path class="st12" d="M1248.1,68.6c-0.4-1.7-1.4-3.1-2.8-4.1c-4.6-3.7-11.3-3.7-15.9,0c-1.4,1-2.4,2.4-2.8,4.1
	c0,0-0.7,12.7,2.5,17.5c2.4,3.8,5.5,5.8,8.2,5.8s5.8-2,8.3-5.8C1248.8,81.3,1248.1,68.6,1248.1,68.6z"/>
<path class="st19" d="M1227.8,78.8c-0.3-5.5,0.2-9.7,0.6-10.2c1.6-1.3,2.9-3,3.7-4.9c0,0,4.6,2.2,11.8,1.3c0,0,1.3,1.9,2.6,3.8
	c0.6,0.9,0.8,6.3,0.7,9.9c0,0.5,0.2,1,0.6,1.4l0.2,0.2c0.9-1.8,1.8-9.4,1.3-11.9c-1.3-7.1-6.4-7.8-11.5-7.8c-2.1,0-4.2,0.5-6.1,1.4
	c-0.4-0.1-1-0.2-1-0.3c-2.7,0.2-4.1,4-4.9,6.7s0.4,10.1,1.3,11.9l0,0C1227.5,80,1227.8,79.4,1227.8,78.8z"/>
<path class="st20" d="M1230.7,64.6l0.8,0.3c0.2-0.4,0.4-0.7,0.6-1.1c0,0,4.6,2.2,11.8,1.3c0,0,1.1,1.6,2.3,3.4
	c1-0.3,1.9-0.7,2.8-1.3c-1.6-5.8-6.4-6.5-11.2-6.5c-2.1,0-4.2,0.5-6.1,1.4c-0.4-0.1-1-0.2-1-0.3c-0.8,0.1-1.6,0.5-2.1,1.1l0,0
	C1229,63.6,1229.8,64.2,1230.7,64.6z"/>
<path class="st19" d="M1249.3,60.4c0,2.5-4.1,1.4-9.4-1.6s-7.8-0.4-8.9,1.3c0.2-1.2,0.6-2.3,1.2-3.4c-1.9,0.7-2.9,2.8-2.2,4.7l0,0
	c-1.2-0.3-2.5,0-3.5,0.8c0,0,2.8-0.4,3.8,0.4c0.1,0.1,0.6,0.3,0.6,0.4c2.8,3.1,5.7,4.7,11.6,4.2c3.2-0.2,4.3-0.6,5.9-2.3
	C1249.5,63.7,1249.8,62,1249.3,60.4z"/>
<path class="st20" d="M1242.5,67.2c3.1-0.2,4.2-0.6,5.6-2c-2.2,0.1-4.4-0.7-6.1-2.2c0.1,1.2,0.6,2.3,1.4,3.1c-2.6-0.4-5-1.4-7-3
	c0.3,0.9,0.8,1.9,1.3,2.7c-1.3,0-4.9-1.6-5.7-1.9C1234.6,66.4,1237.4,67.6,1242.5,67.2z"/>
<path class="st21" d="M1240.3,69.9c1.3,0.1,2.5,0.4,3.8,0.8c0.7,0.4,2,2,1.8,2.4s-2.4-1.1-2.7-1.1s-3.2-0.4-3.4-0.9
	S1239.8,69.8,1240.3,69.9z"/>
<path class="st21" d="M1234.1,70c-1.3,0.1-2.6,0.4-3.8,0.8c-0.7,0.4-2,1.9-1.8,2.4s2.4-1.1,2.8-1.1s3.2-0.3,3.4-0.8
	S1234.6,69.9,1234.1,70z"/>
<path class="st20" d="M1227.7,74.6c-0.7,0-1.4-0.2-2.1-0.4c0.2,2.1,0.7,4.2,1.4,6.2l0,0c0.5-0.3,0.8-0.9,0.8-1.6
	C1227.7,77.3,1227.6,75.8,1227.7,74.6z"/>
<path class="st20" d="M1247,74.7c0,1.4,0,2.9,0,4.1c0,0.5,0.2,1,0.6,1.4l0.2,0.2c0.7-2.1,1.1-4.3,1.2-6.6
	C1248.4,74.2,1247.7,74.5,1247,74.7z"/>
<path class="st22" d="M1232.5,83.4c0,0,5.3,1.9,8.8-0.5c0,0-0.3,4.2-4.2,4.4C1234.6,87.5,1233,85.5,1232.5,83.4z"/>
<path class="st23" d="M1236.8,85.9c-0.9,0-1.7,0.1-2.5,0.5c1.6,1.3,3.9,1.4,5.5,0.1C1238.8,86,1237.8,85.8,1236.8,85.9z"/>
<path class="st24" d="M1233.1,83.6c0.1,0.3,0.2,0.6,0.2,0.8c0,0.1,0.1,0.1,0.2,0.2c3.4,1.3,5.6,0.7,6.8-0.2l0.1-0.1
	c0.1-0.3,0.3-0.7,0.3-1C1238.1,84.7,1234.6,84,1233.1,83.6z"/>
<path class="st2" d="M1239.1,76.4c0.3-0.3,0.7-0.6,1.1-0.8c0.6-0.3,1.2-0.3,1.8-0.3c0.6,0,1.1,0.2,1.5,0.6c0.2,0.2,0.4,0.4,0.6,0.5
	c-0.4,0.2-0.8,0.4-1.2,0.6C1241.6,77.3,1240.3,76.8,1239.1,76.4L1239.1,76.4"/>
<path class="st25" d="M1243.5,76.4c-0.4-0.4-0.9-0.6-1.5-0.6c-0.6-0.1-1.2,0-1.8,0.3c-0.3,0.1-0.6,0.3-0.8,0.5l-0.4-0.1
	c0.1,0,0,0,0.1,0l-0.2-0.1c0.4-0.3,0.8-0.6,1.3-0.8c0.6-0.3,1.2-0.3,1.8-0.3c0.6,0,1.1,0.2,1.5,0.6c0.2,0.2,0.4,0.4,0.6,0.5
	l-0.4,0.2L1243.5,76.4z"/>
<path class="st26" d="M1242.9,76.2c0-0.6-0.4-1.1-1-1.1s-1.1,0.4-1.1,1s0.4,1.1,1,1.1h0.1C1242.5,77.2,1242.9,76.7,1242.9,76.2z"/>
<path class="st27" d="M1242.6,76.4c0-0.3-0.3-0.6-0.7-0.6c-0.3,0.1-0.5,0.4-0.4,0.7c0.1,0.3,0.4,0.5,0.7,0.4
	C1242.4,76.9,1242.6,76.7,1242.6,76.4z"/>
<path d="M1242.3,76.2c0-0.2-0.2-0.4-0.4-0.4c-0.2,0-0.4,0.2-0.4,0.4l0,0c0,0.2,0.2,0.4,0.4,0.4l0,0
	C1242.1,76.6,1242.3,76.4,1242.3,76.2L1242.3,76.2z"/>
<path class="st2" d="M1241.7,76c0-0.1-0.1-0.2-0.2-0.2s-0.2,0.1-0.2,0.2s0.1,0.2,0.2,0.2l0,0C1241.6,76.2,1241.7,76.1,1241.7,76z"/>
<path class="st28" d="M1239.1,76.4c0.5-0.4,1.1-0.7,1.6-1c0.9-0.1,1.8,0,2.6,0.4l0.6,0.5l0.5-0.1c-0.2-0.4-0.4-0.7-0.8-0.9
	c-0.7-0.5-3-0.4-3-0.4c-0.6,0.4-1.2,0.9-1.8,1.4"/>
<path class="st13" d="M1243.9,76.4c-0.3,0.2-0.2,0.2-0.6,0.3c-0.6,0.2-1.2,0.3-1.8,0.2c-0.7-0.1-1.3-0.2-2-0.4
	c-0.2-0.1-0.5-0.3-0.7-0.2c0,0.1,0.2,0.1,0.3,0.2c0.8,0.4,1.7,0.6,2.6,0.7c0.5,0,1,0,1.4-0.2c0.5-0.1,0.9-0.4,1.3-0.8"/>
<path class="st2" d="M1235.1,76.4c-0.3-0.3-0.7-0.6-1.1-0.8c-0.6-0.3-1.2-0.3-1.8-0.3c-0.6,0-1.1,0.2-1.5,0.6
	c-0.2,0.2-0.4,0.4-0.6,0.5c0.4,0.2,0.8,0.4,1.2,0.6C1232.6,77.3,1233.8,76.8,1235.1,76.4L1235.1,76.4"/>
<path class="st25" d="M1230.7,76.4c0.4-0.4,0.9-0.6,1.5-0.6c0.6-0.1,1.2,0,1.8,0.3c0.3,0.1,0.6,0.3,0.8,0.5l0.4-0.1
	c-0.1,0,0,0-0.1,0l0.2-0.1c-0.4-0.3-0.8-0.6-1.3-0.8c-0.6-0.3-1.2-0.3-1.8-0.3c-0.6,0-1.1,0.2-1.5,0.6c-0.2,0.2-0.4,0.4-0.6,0.5
	l0.4,0.2C1230.5,76.5,1230.6,76.5,1230.7,76.4z"/>
<path class="st26" d="M1231.7,76.2c0.1-0.6,0.6-1,1.2-1c0.5,0,0.9,0.4,1,1s-0.4,1.1-1,1.2s-1.1-0.4-1.2-1
	C1231.7,76.3,1231.7,76.2,1231.7,76.2z"/>
<path class="st27" d="M1232.1,76.4c0.1-0.4,0.5-0.6,0.8-0.5s0.5,0.3,0.5,0.5c-0.1,0.4-0.5,0.6-0.8,0.5
	C1232.3,76.9,1232.1,76.7,1232.1,76.4z"/>
<path d="M1232.3,76.2c0-0.2,0.2-0.4,0.4-0.4s0.4,0.2,0.4,0.4s-0.2,0.4-0.4,0.4l0,0C1232.5,76.6,1232.3,76.4,1232.3,76.2L1232.3,76.2
	z"/>
<path class="st2" d="M1232.3,76.1c0-0.1,0.1-0.2,0.2-0.2s0.2,0.1,0.2,0.2s-0.1,0.2-0.2,0.2C1232.4,76.3,1232.3,76.2,1232.3,76.1z"/>
<path class="st28" d="M1235.1,76.4c-0.5-0.4-1.1-0.7-1.6-1c-0.9-0.1-1.8,0-2.6,0.4c-0.2,0.1-0.6,0.5-0.6,0.5l-0.5-0.1
	c0.2-0.4,0.4-0.7,0.8-0.9c0.7-0.5,3-0.4,3-0.4c0.6,0.4,1.2,0.9,1.8,1.4"/>
<path class="st13" d="M1230.3,76.4c0.2,0.1,0.4,0.2,0.6,0.3c0.6,0.2,1.2,0.3,1.8,0.2c0.7-0.1,1.3-0.2,1.9-0.4
	c0.2-0.1,0.5-0.3,0.7-0.2c0,0.1-0.2,0.1-0.3,0.2c-0.8,0.4-1.7,0.6-2.6,0.7c-0.5,0-1,0-1.4-0.2c-0.5-0.1-0.9-0.4-1.3-0.8"/>
<path class="st29" d="M1234.4,80.8c0,0.3,1.3,0.7,2.7,0.7s2.5-0.4,2.5-0.8s-0.2-0.3-0.9-0.3c-0.4,0-1.1,0.7-1.7,0.7
	s-1.4-0.8-1.8-0.7S1234.4,80.7,1234.4,80.8z"/>
<path class="st9" d="M1190.8,98.2l7.7,2.5c0,0-0.7,1.9-1.1,2.9l-8.1-3C1189.7,99.7,1190.2,98.9,1190.8,98.2z"/>
</svg>
