<svg id="Layer_1" data-name="Layer 1" xmlns="http://www.w3.org/2000/svg" viewBox="0 0 200 200"><defs><style>.cls-1{fill:#f0806d;}.cls-2{fill:#fc9081;}.cls-3{fill:#e26a5a;}</style></defs><path class="cls-1" d="M101.61,15.64l15.89,32.2a1.8,1.8,0,0,0,1.36,1L154.39,54a1.79,1.79,0,0,1,1,3.06L129.67,82.12a1.78,1.78,0,0,0-.51,1.58l6.07,35.4a1.79,1.79,0,0,1-2.61,1.89l-31.78-16.71a1.84,1.84,0,0,0-1.68,0L67.38,121a1.79,1.79,0,0,1-2.61-1.89l6.07-35.4a1.78,1.78,0,0,0-.51-1.58L44.61,57.05a1.79,1.79,0,0,1,1-3.06l35.53-5.17a1.8,1.8,0,0,0,1.36-1l15.89-32.2A1.79,1.79,0,0,1,101.61,15.64Z"/><path class="cls-2" d="M100,23.07,85.84,50.51a4.73,4.73,0,0,1-3.79,2.54L51.3,55.86l32.49,1.52a4.73,4.73,0,0,0,4.67-3.09Z"/><path class="cls-3" d="M65.47,115l-.7,4.07A1.79,1.79,0,0,0,67.38,121l31.78-16.71a1.84,1.84,0,0,1,1.68,0L132.62,121a1.79,1.79,0,0,0,2.61-1.89l-6.07-35.4a1.78,1.78,0,0,1,.51-1.58l25.72-25.07a1.79,1.79,0,0,0-1-3.06l-11.9-1.73C123.24,86.81,93.76,105,65.47,115Z"/><path class="cls-1" d="M169.46,81.05l8.93,18.11a1.05,1.05,0,0,0,.76.55l20,2.9a1,1,0,0,1,.56,1.72l-14.45,14.1a1,1,0,0,0-.29.89l3.41,19.9a1,1,0,0,1-1.47,1.06L169,130.89a1,1,0,0,0-.94,0l-17.87,9.39a1,1,0,0,1-1.46-1.06l3.41-19.9a1,1,0,0,0-.29-.89l-14.46-14.1a1,1,0,0,1,.56-1.72l20-2.9a1,1,0,0,0,.76-.55l8.94-18.11A1,1,0,0,1,169.46,81.05Z"/><path class="cls-2" d="M168.55,85.23l-8,15.43a2.66,2.66,0,0,1-2.12,1.43l-17.29,1.58,18.26.85a2.67,2.67,0,0,0,2.63-1.74Z"/><path class="cls-3" d="M149.14,136.93l-.39,2.29a1,1,0,0,0,1.46,1.06l17.87-9.39a1,1,0,0,1,.94,0l17.87,9.39a1,1,0,0,0,1.47-1.06L185,119.32a1,1,0,0,1,.29-.89l14.45-14.1a1,1,0,0,0-.56-1.72l-6.69-1C181.62,121.06,165,131.29,149.14,136.93Z"/><path class="cls-1" d="M30.84,84.39l8.43,17.09A1,1,0,0,0,40,102l18.86,2.74a1,1,0,0,1,.52,1.62l-13.64,13.3a1,1,0,0,0-.28.84l3.23,18.79a1,1,0,0,1-1.39,1l-16.86-8.87a1,1,0,0,0-.89,0l-16.86,8.87a1,1,0,0,1-1.39-1l3.22-18.79a1,1,0,0,0-.27-.84L.6,106.36a1,1,0,0,1,.52-1.62L20,102a1,1,0,0,0,.72-.52l8.43-17.09A1,1,0,0,1,30.84,84.39Z"/><path class="cls-2" d="M30,88.33l-7.51,14.56a2.52,2.52,0,0,1-2,1.35L4.15,105.73l17.24.81a2.51,2.51,0,0,0,2.47-1.64Z"/><path class="cls-3" d="M11.66,137.12l-.37,2.17a1,1,0,0,0,1.39,1l16.86-8.87a1,1,0,0,1,.89,0l16.86,8.87a1,1,0,0,0,1.39-1L45.45,120.5a1,1,0,0,1,.28-.84l13.64-13.3a1,1,0,0,0-.52-1.62l-6.32-.92C42.31,122.15,26.67,131.8,11.66,137.12Z"/></svg>