<svg xmlns="http://www.w3.org/2000/svg" viewBox="0 0 200 200"><defs><style>.cls-1{isolation:isolate;}.cls-2{fill:#464b94;}.cls-11,.cls-13,.cls-14,.cls-15,.cls-16,.cls-2,.cls-20,.cls-3,.cls-4,.cls-5,.cls-6,.cls-8,.cls-9{fill-rule:evenodd;}.cls-3{stroke:#000;stroke-miterlimit:22.93;stroke-width:0.57px;}.cls-20,.cls-21,.cls-3{opacity:0.2;}.cls-4{fill:#e8fffa;}.cls-10,.cls-5{fill:#8bc53f;}.cls-6,.cls-7{fill:#f0806d;}.cls-13,.cls-6,.cls-8{mix-blend-mode:multiply;}.cls-13,.cls-8,.cls-9{fill:#fed385;}.cls-11{fill:#fff;}.cls-12,.cls-16{fill:#005263;}.cls-13{opacity:0.5;}.cls-14{fill:#ffa54a;}.cls-15{fill:#ffe7cf;}.cls-17{fill:#ffbd7a;}.cls-18{fill:#7ef7df;}.cls-19{opacity:0.3;}.cls-20{fill:none;stroke:#fff;stroke-linecap:round;stroke-linejoin:round;stroke-width:3.84px;}</style></defs><g class="cls-1"><g id="Layer_1" data-name="Layer 1"><path class="cls-2" d="M43.34,50.6l123.91,0A10.89,10.89,0,0,1,177,61.45v87.29a10.89,10.89,0,0,1-10.55,10.85l-123.9-.05a10.89,10.89,0,0,1-9.75-10.8V61.45A10.89,10.89,0,0,1,43.34,50.6Z"/><path class="cls-3" d="M104.79,160.63c39.77,0,72.28,0,72,5.42s-32.23,5.41-72,5.41-72,.76-72-5.41S65,160.63,104.79,160.63Z"/><path class="cls-4" d="M43.34,50.6l123.91,0A10.89,10.89,0,0,1,177,61.45v93.77a10.89,10.89,0,0,1-10.55,10.85l-123.9,0a10.89,10.89,0,0,1-9.75-10.8V61.45A10.89,10.89,0,0,1,43.34,50.6Z"/><path class="cls-5" d="M43.34,50.6l123.91,0A10.89,10.89,0,0,1,177,61.45V78.77L32.79,78.7V61.45A10.89,10.89,0,0,1,43.34,50.6Z"/><path class="cls-6" d="M43.34,50.6H56.19A22.59,22.59,0,0,1,34,69.23c-.39,0-.77,0-1.16,0V61.45A10.89,10.89,0,0,1,43.34,50.6Z"/><circle class="cls-7" cx="33.95" cy="41.87" r="22.58" transform="translate(-12.81 68.7) rotate(-80.81)"/><path class="cls-8" d="M141,60.22a5.6,5.6,0,1,1-5.59,5.6A5.6,5.6,0,0,1,141,60.22Z"/><path class="cls-8" d="M68.76,60.22a5.6,5.6,0,1,1-5.59,5.6A5.6,5.6,0,0,1,68.76,60.22Z"/><path class="cls-5" d="M39,83.34v12.8l131.89.06V83.4Z"/><path class="cls-9" d="M68.76,43.1h0a3.55,3.55,0,0,1,3.54,3.54V65.1a3.55,3.55,0,0,1-3.54,3.54h0a3.55,3.55,0,0,1-3.54-3.54V46.64A3.55,3.55,0,0,1,68.76,43.1Z"/><path class="cls-9" d="M141,43.1h0a3.55,3.55,0,0,1,3.54,3.54V65.1A3.55,3.55,0,0,1,141,68.64h0a3.55,3.55,0,0,1-3.54-3.54V46.64A3.55,3.55,0,0,1,141,43.1Z"/><rect class="cls-10" x="39.21" y="98.06" width="17.06" height="10.88"/><rect class="cls-10" x="39.21" y="110.51" width="17.06" height="10.88"/><rect class="cls-10" x="39.21" y="122.96" width="17.06" height="10.88"/><rect class="cls-10" x="39.21" y="135.41" width="17.06" height="10.88"/><rect class="cls-10" x="39.21" y="147.86" width="17.06" height="10.88"/><rect class="cls-10" x="58.35" y="98.06" width="17.06" height="10.88"/><rect class="cls-10" x="58.35" y="110.51" width="17.06" height="10.88"/><rect class="cls-10" x="58.35" y="122.96" width="17.06" height="10.88"/><rect class="cls-10" x="58.35" y="135.41" width="17.06" height="10.88"/><rect class="cls-10" x="58.35" y="147.86" width="17.06" height="10.88"/><rect class="cls-10" x="77.48" y="98.06" width="17.06" height="10.88"/><rect class="cls-10" x="77.48" y="110.51" width="17.06" height="10.88"/><rect class="cls-10" x="77.48" y="122.96" width="17.06" height="10.88"/><rect class="cls-10" x="77.48" y="135.41" width="17.06" height="10.88"/><rect class="cls-10" x="77.48" y="147.86" width="17.06" height="10.88"/><rect class="cls-10" x="96.62" y="98.06" width="17.06" height="10.88"/><rect class="cls-10" x="96.62" y="110.51" width="17.06" height="10.88"/><rect class="cls-10" x="96.62" y="122.96" width="17.06" height="10.88"/><rect class="cls-10" x="96.62" y="135.41" width="17.06" height="10.88"/><rect class="cls-10" x="96.62" y="147.86" width="17.06" height="10.88"/><rect class="cls-10" x="115.76" y="98.06" width="17.06" height="10.88"/><rect class="cls-10" x="115.76" y="110.51" width="17.06" height="10.88"/><rect class="cls-10" x="115.76" y="122.96" width="17.06" height="10.88"/><rect class="cls-10" x="115.76" y="135.41" width="17.06" height="10.88"/><rect class="cls-10" x="115.76" y="147.86" width="17.06" height="10.88"/><rect class="cls-10" x="134.89" y="98.06" width="17.06" height="10.88"/><rect class="cls-10" x="134.89" y="110.51" width="17.06" height="10.88"/><rect class="cls-10" x="134.89" y="122.96" width="17.06" height="10.88"/><rect class="cls-10" x="134.89" y="135.41" width="17.06" height="10.88"/><rect class="cls-10" x="134.89" y="147.86" width="17.06" height="10.88"/><rect class="cls-10" x="154.03" y="98.06" width="17.06" height="10.88"/><rect class="cls-10" x="154.03" y="110.51" width="17.06" height="10.88"/><rect class="cls-10" x="154.03" y="122.96" width="17.06" height="10.88"/><rect class="cls-10" x="154.03" y="135.41" width="17.06" height="10.88"/><rect class="cls-10" x="154.03" y="147.86" width="17.06" height="10.88"/><path class="cls-11" d="M67.71,100.89a.07.07,0,0,1,0,0s0,0,0,0l0,0a0,0,0,0,0,0,0s0,0,0,0h0l0,0s0,0,0,0l0,0,0,0,0,0,0,0h-.19a0,0,0,0,0,0,0h-.08s0,0,0,0h0l-.92.55a.41.41,0,0,0-.14.57.42.42,0,0,0,.36.21.45.45,0,0,0,.21-.06l.3-.18v3.7a.41.41,0,0,0,.41.42.42.42,0,0,0,.42-.42v-4.46Z"/><path class="cls-11" d="M87.31,104.93h-1.6l1.42-1.28A1.81,1.81,0,0,0,84.71,101l-.23.21a.41.41,0,0,0,0,.59.4.4,0,0,0,.58,0l.24-.21a1,1,0,0,1,1.62.72.93.93,0,0,1-.32.72l-2.22,2a.4.4,0,0,0,0,.58.4.4,0,0,0,.31.14h2.67a.41.41,0,0,0,.41-.41A.42.42,0,0,0,87.31,104.93Z"/><path class="cls-11" d="M105.71,102.21l1-1a.41.41,0,0,0,.07-.11.47.47,0,0,0,.06-.2.42.42,0,0,0-.43-.42h-2.22a.43.43,0,0,0,0,.85h1.22l-.77.78a.42.42,0,0,0,0,.6h0a.37.37,0,0,0,.31.13,1,1,0,0,1,.72.3,1,1,0,0,1,.3.72,1,1,0,0,1-.3.72,1.07,1.07,0,0,1-.73.29,1,1,0,0,1-.71-.29.42.42,0,0,0-.6.6,1.87,1.87,0,0,0,1.31.55h0a1.88,1.88,0,0,0,1.88-1.87,1.83,1.83,0,0,0-.55-1.32A1.64,1.64,0,0,0,105.71,102.21Z"/><path class="cls-11" d="M125.92,104h-.07v-3.07s0,0,0,0,0,0,0,0v0l0,0s0,0,0,0l0,0s0,0,0,0l0,0a0,0,0,0,0,0,0,0,0,0,0,0,0,0l0,0s0,0,0,0h-.32s0,0,0,0h0l0,0,0,0s0,0,0,0,0,0,0,0l-2.78,3.46a.39.39,0,0,0,.07.57.34.34,0,0,0,.25.09H125v.58a.42.42,0,0,0,.83,0v-.58h.07a.41.41,0,0,0,.42-.41.41.41,0,0,0-.42-.41Zm-.9,0h-1.49L125,102.1Z"/><path class="cls-11" d="M143.14,102a2.08,2.08,0,0,0-.5.07l.09-.74h1.84a.43.43,0,1,0,0-.85h-2.21a.42.42,0,0,0-.2,0l0,0h0a.46.46,0,0,0-.19.3l-.22,2a.28.28,0,0,0,0,.13h0s0,0,0,.06,0,0,0,0v0l.09.09a.42.42,0,0,0,.6,0,1,1,0,0,1,.72-.29,1,1,0,0,1,1,1,1,1,0,0,1-.3.72,1,1,0,0,1-.71.3,1,1,0,0,1-.72-.3.42.42,0,0,0-.6,0,.4.4,0,0,0,0,.6,1.8,1.8,0,0,0,1.3.55h0a1.87,1.87,0,0,0,0-3.74Z"/><path class="cls-11" d="M162.51,102.13a1.77,1.77,0,0,0-.73.15,1.14,1.14,0,0,1,.1-.19,1.63,1.63,0,0,1,.47-.53,1.45,1.45,0,0,1,.71-.21.45.45,0,0,0,.41-.44.42.42,0,0,0-.44-.39,2.13,2.13,0,0,0-1.13.35,2.65,2.65,0,0,0-1,1.28,4.61,4.61,0,0,0-.26,1.54c0,.15,0,.29,0,.43v0a1.82,1.82,0,1,0,1.82-2Zm0,2.8a1,1,0,0,1-1-1,1,1,0,1,1,1,1Z"/><path class="cls-11" d="M49.45,113.45a.43.43,0,0,0,0-.16s0,0,0,0,0,0,0,0l0,0v0l0,0s0,0,0,0a0,0,0,0,0,0,0l0,0a.76.76,0,0,0-.16-.06H46.47a.41.41,0,0,0-.41.41.42.42,0,0,0,.41.42h1.94l-1.62,3.86a.42.42,0,0,0,.22.54.45.45,0,0,0,.16,0,.39.39,0,0,0,.38-.25l1.88-4.44A.24.24,0,0,0,49.45,113.45Z"/><path class="cls-11" d="M67.75,114.93a1.18,1.18,0,0,0,.25-.74,1.24,1.24,0,0,0-2.48,0,1.18,1.18,0,0,0,.25.74,1.8,1.8,0,1,0,2.79,1.5,1.82,1.82,0,0,0-.81-1.5Zm-1-1.15a.41.41,0,0,1,.41.41.42.42,0,1,1-.84,0,.42.42,0,0,1,.43-.41Zm0,3.62a1,1,0,1,1,0-2,1,1,0,0,1,0,2Z"/><path class="cls-11" d="M86,116.59a1.75,1.75,0,0,0,.72-.15,1.24,1.24,0,0,1-.1.2,1.74,1.74,0,0,1-.47.53,1.42,1.42,0,0,1-.71.21.44.44,0,0,0-.41.43.43.43,0,0,0,.44.4,2.22,2.22,0,0,0,1.13-.35,2.68,2.68,0,0,0,1-1.29A4.57,4.57,0,0,0,87.8,115c0-.14,0-.28,0-.43h0a1.82,1.82,0,1,0-1.81,2Zm0-2.8a1,1,0,0,1,0,2,1,1,0,1,1,0-2Z"/><path class="cls-11" d="M103.32,113.34s0,0,0,0,0,0,0,0a.08.08,0,0,0,0,0l0,0v0h0l0,0s0,0,0,0,0,0,0,0,0,0,0,0,0,0,0,0l0,0h-.31l0,0,0,0-.93.55a.4.4,0,0,0-.13.56.38.38,0,0,0,.35.21.34.34,0,0,0,.21-.06l.3-.17v3.7a.41.41,0,0,0,.42.42.42.42,0,0,0,.42-.42v-4.46Zm1.46,4h0a1.72,1.72,0,0,0,1.4.84h0a1.7,1.7,0,0,0,1.39-.84h0a3.24,3.24,0,0,0,.5-1.79h0a3.25,3.25,0,0,0-.5-1.8h0a1.69,1.69,0,0,0-1.39-.83h0a1.71,1.71,0,0,0-1.4.83h0a3.26,3.26,0,0,0-.51,1.8h0a3.25,3.25,0,0,0,.51,1.79Zm2.1-.46h0a.89.89,0,0,1-.7.46h0a.91.91,0,0,1-.71-.46h0a2.49,2.49,0,0,1-.36-1.33h0a2.5,2.5,0,0,1,.36-1.34h0a.88.88,0,0,1,.71-.46h0a.87.87,0,0,1,.7.46h0a2.5,2.5,0,0,1,.36,1.34h0A2.49,2.49,0,0,1,106.88,116.92Z"/><path class="cls-11" d="M123.86,113.34a.07.07,0,0,1,0,0s0,0,0,0,0,0,0,0l0,0s0,0,0,0h0l0,0s0,0,0,0a0,0,0,0,0,0,0l0,0,0,0,0,0h-.32l0,0s0,0,0,0l-.92.55a.4.4,0,0,0-.14.56.41.41,0,0,0,.36.21.34.34,0,0,0,.21-.06l.3-.17v3.7a.41.41,0,0,0,.41.42.42.42,0,0,0,.42-.42v-4.46Zm2.52,0a.07.07,0,0,1,0,0s0,0,0,0,0,0,0,0a0,0,0,0,0,0,0s0,0,0,0h0l0,0s0,0,0,0,0,0,0,0l0,0,0,0,0,0h-.32a.05.05,0,0,1,0,0s0,0,0,0l-.92.55a.39.39,0,0,0-.14.56.4.4,0,0,0,.36.21.36.36,0,0,0,.21-.06l.3-.17v3.7a.41.41,0,0,0,.41.42.42.42,0,0,0,.42-.42v-4.46Z"/><path class="cls-11" d="M142,113.34a.07.07,0,0,1,0,0s0,0,0,0,0,0,0,0a0,0,0,0,0,0,0s0,0,0,0h0l0,0s0,0,0,0,0,0,0,0l0,0,0,0,0,0h-.32l0,0s0,0,0,0l-.92.55a.42.42,0,0,0,.22.77.36.36,0,0,0,.21-.06l.3-.17v3.7a.41.41,0,0,0,.41.42.42.42,0,0,0,.42-.42v-4.46Zm3.94,4h-1.6l1.42-1.28a1.82,1.82,0,0,0,.59-1.34,1.8,1.8,0,0,0-.46-1.21,1.82,1.82,0,0,0-1.34-.59,1.8,1.8,0,0,0-1.21.46l-.23.21a.41.41,0,0,0,0,.59.4.4,0,0,0,.58,0l.24-.21a1,1,0,0,1,1.37.07,1,1,0,0,1-.07,1.37l-2.22,2a.4.4,0,0,0,0,.58.39.39,0,0,0,.3.14H146a.41.41,0,0,0,.41-.42A.41.41,0,0,0,146,117.38Z"/><path class="cls-11" d="M161.1,113.34a.07.07,0,0,1,0,0s0,0,0,0,0,0,0,0l0,0s0,0,0,0h0l0,0s0,0,0,0a0,0,0,0,0,0,0l0,0,0,0,0,0h-.32l0,0s0,0,0,0l-.92.55a.4.4,0,0,0-.14.56.41.41,0,0,0,.36.21.34.34,0,0,0,.21-.06l.3-.17v3.7a.41.41,0,0,0,.41.42.42.42,0,0,0,.42-.42v-4.46Zm3.28,1.32,1-1a.41.41,0,0,0,.07-.11.46.46,0,0,0,0-.2A.41.41,0,0,0,165,113h-2.22a.42.42,0,0,0-.42.42.42.42,0,0,0,.42.43H164l-.77.78a.42.42,0,0,0,0,.6h0a.37.37,0,0,0,.31.13,1.06,1.06,0,0,1,.72.3,1,1,0,0,1,.3.72,1,1,0,0,1-.3.72,1.07,1.07,0,0,1-.73.29,1,1,0,0,1-.71-.29.42.42,0,1,0-.6.6,1.87,1.87,0,0,0,1.31.55h0a1.86,1.86,0,0,0,1.87-1.87,1.86,1.86,0,0,0-.54-1.32A1.64,1.64,0,0,0,164.38,114.66Z"/><path class="cls-11" d="M47.78,142.28h-1.6L47.6,141a1.82,1.82,0,0,0,.59-1.34,1.8,1.8,0,0,0-.46-1.21,1.83,1.83,0,0,0-1.34-.6,1.76,1.76,0,0,0-1.21.47l-.23.21a.41.41,0,0,0,0,.59.41.41,0,0,0,.58,0l.23-.21a1,1,0,0,1,1.38.06,1,1,0,0,1,.25.66.94.94,0,0,1-.32.72l-2.22,2a.42.42,0,0,0,0,.59.42.42,0,0,0,.31.13h2.68a.41.41,0,0,0,.41-.41.41.41,0,0,0-.41-.42Zm3-4a.09.09,0,0,1,0-.05v0s0,0,0,0,0,0,0,0v0h0l0,0a.05.05,0,0,0,0,0s0,0,0,0l0,0,0,0,0,0h0l0,0a0,0,0,0,1,0,0H50.3s0,0,0,0h-.05l0,0s0,0,0,0l-.92.55a.42.42,0,0,0,.22.77.36.36,0,0,0,.21-.06L50,139v3.7a.41.41,0,0,0,.41.41.41.41,0,0,0,.42-.41v-4.46Z"/><path class="cls-11" d="M66,142.28h-1.6L65.78,141a1.82,1.82,0,0,0,.59-1.34,1.76,1.76,0,0,0-.47-1.21,1.79,1.79,0,0,0-1.33-.6,1.74,1.74,0,0,0-1.21.47l-.24.21a.42.42,0,0,0,.56.62l.23-.21a1,1,0,0,1,.66-.25,1,1,0,0,1,.72.31,1,1,0,0,1,.25.66.94.94,0,0,1-.32.72l-2.22,2a.42.42,0,0,0,0,.59.42.42,0,0,0,.31.13H66a.41.41,0,0,0,.41-.41.41.41,0,0,0-.41-.42Zm4.43,0h-1.6L70.21,141a1.82,1.82,0,0,0,.59-1.34,1.8,1.8,0,0,0-.46-1.21,1.82,1.82,0,0,0-1.34-.6,1.76,1.76,0,0,0-1.21.47l-.23.21a.42.42,0,0,0,0,.59.41.41,0,0,0,.58,0l.24-.21a1,1,0,0,1,1.31,1.44l-2.23,2a.42.42,0,0,0,0,.59.39.39,0,0,0,.31.13h2.67a.41.41,0,0,0,.41-.41A.41.41,0,0,0,70.39,142.28Z"/><path class="cls-11" d="M85,142.28h-1.6L84.84,141a1.82,1.82,0,0,0,.59-1.34,1.8,1.8,0,0,0-.46-1.21,1.83,1.83,0,0,0-1.34-.6,1.76,1.76,0,0,0-1.21.47l-.23.21a.41.41,0,0,0,0,.59.41.41,0,0,0,.58,0l.23-.21a1,1,0,0,1,1.38.06,1,1,0,0,1,.25.66.94.94,0,0,1-.32.72l-2.22,2a.42.42,0,0,0,0,.59.42.42,0,0,0,.31.13H85a.41.41,0,0,0,.41-.41.41.41,0,0,0-.41-.42Zm3.77-2.72.95-1a.36.36,0,0,0,.07-.1.47.47,0,0,0,.06-.21.42.42,0,0,0-.43-.42H87.22a.43.43,0,0,0,0,.85h1.22l-.77.78a.43.43,0,0,0,0,.61h0a.38.38,0,0,0,.31.14,1,1,0,0,1,.72.3,1,1,0,0,1,.3.71,1,1,0,0,1-.3.72,1,1,0,0,1-.72.3,1,1,0,0,1-.72-.3.43.43,0,0,0-.6,0,.43.43,0,0,0,0,.61,1.86,1.86,0,0,0,1.32.54h0a1.86,1.86,0,0,0,1.87-1.87,1.82,1.82,0,0,0-.55-1.31A1.64,1.64,0,0,0,88.79,139.56Z"/><path class="cls-11" d="M104.07,142.28h-1.61l1.42-1.28a1.8,1.8,0,0,0,.6-1.34,1.76,1.76,0,0,0-.47-1.21,1.82,1.82,0,0,0-1.34-.6,1.78,1.78,0,0,0-1.21.47l-.23.21a.42.42,0,1,0,.56.62l.23-.21a1,1,0,0,1,.65-.25,1,1,0,0,1,.73.31,1,1,0,0,1,.24.66.93.93,0,0,1-.31.72l-2.23,2a.42.42,0,0,0,0,.59.42.42,0,0,0,.31.13h2.68a.41.41,0,0,0,.41-.41.41.41,0,0,0-.41-.42Zm4.82-1h-.07v-3.06s0,0,0,0,0,0,0,0v0a.07.07,0,0,0,0,0l0,0,0,0,0,0,0,0h0l0,0,0,0h0l0,0s0,0,0,0h-.16l0,0s0,0,0,0l0,0,0,0s0,0,0,0,0,0,0,0,0,0,0,0l-2.78,3.46a.4.4,0,0,0,.07.58.34.34,0,0,0,.25.09H108v.57a.41.41,0,0,0,.41.41.41.41,0,0,0,.42-.41v-.57h.07a.41.41,0,0,0,.42-.41.42.42,0,0,0-.42-.42Zm-.9,0h-1.5l1.5-1.85Z"/><path class="cls-11" d="M123.31,142.28h-1.6l1.42-1.28a1.82,1.82,0,0,0,.59-1.34,1.8,1.8,0,0,0-.46-1.21,1.82,1.82,0,0,0-1.34-.6,1.76,1.76,0,0,0-1.21.47l-.23.21a.41.41,0,0,0,.55.62l.24-.21a1,1,0,0,1,.65-.25,1,1,0,0,1,1,1,.94.94,0,0,1-.32.72l-2.22,2a.41.41,0,0,0,0,.59.39.39,0,0,0,.31.13h2.67a.41.41,0,0,0,.41-.41.41.41,0,0,0-.41-.42Zm2.91-2.9a1.68,1.68,0,0,0-.5.07l.09-.75h1.85a.43.43,0,0,0,0-.85h-2.22a.42.42,0,0,0-.2.05h0l0,0a.44.44,0,0,0-.19.3l-.22,2a.24.24,0,0,0,0,.12v0a.43.43,0,0,1,0,.05.05.05,0,0,1,0,0v0l.09.1a.43.43,0,0,0,.6,0,1,1,0,0,1,.72-.29,1,1,0,0,1,.71.29.94.94,0,0,1,.3.72,1,1,0,0,1-.3.71,1,1,0,0,1-1.43,0,.43.43,0,0,0-.6,0,.41.41,0,0,0,0,.61,1.83,1.83,0,0,0,1.3.54h0a1.86,1.86,0,0,0,1.86-1.86,1.88,1.88,0,0,0-1.86-1.87Z"/><path class="cls-11" d="M142.31,142.28h-1.6l1.42-1.28a1.82,1.82,0,0,0,.59-1.34,1.8,1.8,0,0,0-.46-1.21,1.83,1.83,0,0,0-1.34-.6,1.76,1.76,0,0,0-1.21.47l-.23.21a.41.41,0,0,0,0,.59.41.41,0,0,0,.58,0l.23-.21a1,1,0,0,1,1.38.06,1,1,0,0,1,.25.66.94.94,0,0,1-.32.72l-2.22,2a.41.41,0,0,0,0,.59.38.38,0,0,0,.3.13h2.68a.41.41,0,0,0,.41-.41.41.41,0,0,0-.41-.42Zm3.28-2.8a1.77,1.77,0,0,0-.73.15,1.24,1.24,0,0,1,.1-.2,1.51,1.51,0,0,1,.48-.52,1.29,1.29,0,0,1,.7-.21.44.44,0,0,0,.41-.44.43.43,0,0,0-.44-.4,2.22,2.22,0,0,0-1.13.35,2.68,2.68,0,0,0-1,1.29,4.61,4.61,0,0,0-.26,1.54c0,.14,0,.29,0,.43h0a1.82,1.82,0,1,0,1.82-2Zm0,2.8a1,1,0,0,1-1-1,1,1,0,1,1,1,1Z"/><path class="cls-11" d="M161.71,142.28h-1.6l1.42-1.28a1.82,1.82,0,0,0,.59-1.34,1.8,1.8,0,0,0-.46-1.21,1.83,1.83,0,0,0-1.34-.6,1.76,1.76,0,0,0-1.21.47l-.23.21a.41.41,0,0,0,0,.59.41.41,0,0,0,.58,0l.23-.21A1,1,0,0,1,161,139a1,1,0,0,1,.25.66.94.94,0,0,1-.32.72l-2.22,2a.42.42,0,0,0,0,.59.42.42,0,0,0,.31.13h2.68a.41.41,0,0,0,.41-.41.41.41,0,0,0-.41-.42Zm4.73-3.93v-.17l0,0s0,0,0,0l0,0a.06.06,0,0,0,0,0s0,0,0,0a0,0,0,0,1,0,0l0,0,0,0-.15-.06h-2.66a.41.41,0,0,0-.41.42.43.43,0,0,0,.41.42h1.94l-1.62,3.85a.42.42,0,0,0,.22.54.34.34,0,0,0,.16,0,.4.4,0,0,0,.38-.24l1.88-4.45Z"/><path class="cls-11" d="M46.08,125.79a.09.09,0,0,1,0-.05v0s0,0,0,0a.08.08,0,0,0,0,0,0,0,0,0,1,0,0h0l0,0s0,0,0,0l0,0,0,0s0,0,0,0l0,0s0,0,0,0h-.28s0,0,0,0l0,0-.92.55a.39.39,0,0,0-.14.56.4.4,0,0,0,.35.21.37.37,0,0,0,.22-.06l.3-.17v3.7a.41.41,0,0,0,.41.42.43.43,0,0,0,.42-.42v-4.46Zm4.55,3.06h-.07v-3.06s0,0,0,0,0,0,0,0v0l0-.05a0,0,0,0,1,0,0l0,0s0,0,0,0l0,0h0l0,0,0,0H50l0,0,0,0,0,0a.05.05,0,0,1,0,0s0,0,0,0,0,0,0,0L47,129a.4.4,0,0,0,.07.58.36.36,0,0,0,.26.09h2.36v.57a.42.42,0,1,0,.83,0v-.57h.07a.42.42,0,0,0,.43-.41.42.42,0,0,0-.43-.42Zm-.9,0H48.24L49.73,127Z"/><path class="cls-11" d="M65.44,125.79a.06.06,0,0,1,0-.05v0s0,0,0,0,0,0,0,0a0,0,0,0,1,0,0h0l0,0s0,0,0,0l0,0,0,0s0,0,0,0l0,0s0,0,0,0h-.28l0,0,0,0-.92.55a.39.39,0,0,0-.14.56.4.4,0,0,0,.35.21.32.32,0,0,0,.21-.06l.3-.17v3.7a.42.42,0,0,0,.42.42.43.43,0,0,0,.42-.42v-4.46Zm2.41,1.14a1.73,1.73,0,0,0-.5.07l.09-.75h1.85a.42.42,0,0,0,.43-.42.42.42,0,0,0-.43-.42H67.07a.42.42,0,0,0-.2,0l0,0h0a.48.48,0,0,0-.19.3l-.22,2a.28.28,0,0,0,0,.13,0,0,0,0,1,0,0v0a.08.08,0,0,1,0,0s0,0,0,0l.08.1a.42.42,0,0,0,.6,0,1,1,0,0,1,.72-.29,1,1,0,0,1,1,1,1.06,1.06,0,0,1-.3.72,1,1,0,0,1-.72.3,1,1,0,0,1-.72-.3.42.42,0,1,0-.6.6,1.81,1.81,0,0,0,1.31.55h0a1.85,1.85,0,0,0,1.32-.55,1.86,1.86,0,0,0,0-2.64A1.85,1.85,0,0,0,67.85,126.93Z"/><path class="cls-11" d="M84.44,125.79a.06.06,0,0,1,0-.05v0a.08.08,0,0,0,0,0l0,0v0h0l0,0,0,0,0,0s0,0,0,0,0,0,0,0l0,0h-.31l0,0,0,0-.93.55a.4.4,0,0,0-.13.56.38.38,0,0,0,.35.21.34.34,0,0,0,.21-.06l.3-.17v3.7a.42.42,0,0,0,.42.42.43.43,0,0,0,.42-.42v-4.46ZM87.22,127a1.69,1.69,0,0,0-.72.15l.09-.2a1.61,1.61,0,0,1,.48-.52,1.29,1.29,0,0,1,.7-.21.44.44,0,0,0,.41-.44.43.43,0,0,0-.44-.4,2.16,2.16,0,0,0-1.12.36,2.54,2.54,0,0,0-1,1.28,4.39,4.39,0,0,0-.27,1.54c0,.14,0,.29,0,.43v0a1.82,1.82,0,1,0,1.81-2Zm0,2.8a1,1,0,0,1-1-1,1,1,0,0,1,2,0A1,1,0,0,1,87.22,129.83Z"/><path class="cls-11" d="M103.78,125.79a.06.06,0,0,1,0-.05v0l0,0s0,0,0,0a0,0,0,0,1,0,0h0l0,0s0,0,0,0,0,0,0,0l0,0s0,0,0,0l0,0s0,0,0,0h-.28l0,0,0,0-.92.55a.39.39,0,0,0-.14.56.4.4,0,0,0,.35.21.32.32,0,0,0,.21-.06l.31-.17v3.7a.41.41,0,0,0,.41.42.43.43,0,0,0,.42-.42v-4.46Zm4.34.11a.43.43,0,0,0,0-.16s0,0,0,0,0,0,0,0l0,0v0l0,0s0,0,0,0a0,0,0,0,0,0,0l0,0a.76.76,0,0,0-.16-.06h-2.65a.41.41,0,0,0-.41.41.42.42,0,0,0,.41.42h1.94l-1.62,3.85a.43.43,0,0,0,.22.55.45.45,0,0,0,.16,0,.39.39,0,0,0,.38-.25L108.1,126A.24.24,0,0,0,108.12,125.9Z"/><path class="cls-11" d="M122.75,125.79a.09.09,0,0,1,0-.05v0s0,0,0,0l0,0a0,0,0,0,1,0,0h0l0,0s0,0,0,0a0,0,0,0,0,0,0s0,0,0,0l0,0,0,0h-.32l0,0,0,0-.93.55a.4.4,0,0,0-.13.56.38.38,0,0,0,.35.21.34.34,0,0,0,.21-.06l.3-.17v3.7a.41.41,0,0,0,.41.42.42.42,0,0,0,.42-.42v-4.46Zm3.67,1.59a1.18,1.18,0,0,0,.25-.74,1.24,1.24,0,0,0-2.48,0,1.18,1.18,0,0,0,.25.74,1.78,1.78,0,0,0-.81,1.5,1.8,1.8,0,1,0,2.79-1.5Zm-1-1.16a.42.42,0,0,1,.41.42.42.42,0,1,1-.84,0,.42.42,0,0,1,.43-.42Zm0,3.63a1,1,0,1,1,0-1.95,1,1,0,0,1,0,1.95Z"/><path class="cls-11" d="M141.85,125.79a.06.06,0,0,1,0-.05v0a.08.08,0,0,0,0,0l0,0v0h0l0,0,0,0s0,0,0,0,0,0,0,0,0,0,0,0l0,0h-.31l0,0,0,0-.93.55a.4.4,0,0,0-.13.56.38.38,0,0,0,.35.21.34.34,0,0,0,.21-.06l.3-.17v3.7a.42.42,0,0,0,.42.42.43.43,0,0,0,.42-.42v-4.46Zm2.78,3.25a1.77,1.77,0,0,0,.73-.15,1.24,1.24,0,0,1-.1.2,1.59,1.59,0,0,1-.47.52,1.35,1.35,0,0,1-.71.21.45.45,0,0,0-.41.44.43.43,0,0,0,.44.4,2.22,2.22,0,0,0,1.13-.35,2.68,2.68,0,0,0,1-1.29,4.61,4.61,0,0,0,.26-1.54c0-.14,0-.29,0-.43h0a1.82,1.82,0,1,0-1.82,2Zm0-2.8a1,1,0,0,1,1,1,1,1,0,1,1-1-1Z"/><path class="cls-11" d="M161.19,129.83h-1.6l1.42-1.28a1.82,1.82,0,0,0,.59-1.34,1.8,1.8,0,0,0-.46-1.21,1.82,1.82,0,0,0-1.34-.59,1.8,1.8,0,0,0-1.21.46l-.23.21a.41.41,0,0,0,0,.59.4.4,0,0,0,.58,0l.24-.21a1,1,0,0,1,1.37.07,1,1,0,0,1-.07,1.37l-2.22,2a.41.41,0,0,0,0,.59.39.39,0,0,0,.3.14h2.68a.41.41,0,0,0,.41-.42.41.41,0,0,0-.41-.42Zm2,0h0a1.72,1.72,0,0,0,1.4.84h0a1.71,1.71,0,0,0,1.39-.84h0a3.24,3.24,0,0,0,.5-1.79h0a3.23,3.23,0,0,0-.5-1.8h0a1.7,1.7,0,0,0-1.39-.83h0a1.71,1.71,0,0,0-1.4.83h0a3.23,3.23,0,0,0-.51,1.8h0a3.25,3.25,0,0,0,.51,1.79Zm2.1-.46h0a.89.89,0,0,1-.7.46h0a.91.91,0,0,1-.71-.46h0a2.49,2.49,0,0,1-.37-1.33h0a2.47,2.47,0,0,1,.37-1.34h0a.88.88,0,0,1,.71-.46h0a.87.87,0,0,1,.7.46h0a2.47,2.47,0,0,1,.36,1.34h0A2.49,2.49,0,0,1,165.25,129.37Z"/><path class="cls-11" d="M46.67,154.73h-1.6l1.42-1.29a1.8,1.8,0,0,0,.59-1.33,1.78,1.78,0,0,0-.46-1.21,1.83,1.83,0,0,0-1.34-.6,1.76,1.76,0,0,0-1.21.47l-.23.21a.41.41,0,0,0,.55.62l.24-.22a1,1,0,0,1,.65-.24.93.93,0,0,1,.72.31,1,1,0,0,1,.25.66.94.94,0,0,1-.32.72l-2.22,2a.41.41,0,0,0,0,.59.38.38,0,0,0,.3.13h2.68a.41.41,0,0,0,.41-.41.41.41,0,0,0-.41-.42Zm4.16-2.45a1.21,1.21,0,0,0,.25-.75,1.24,1.24,0,0,0-2.48,0,1.21,1.21,0,0,0,.25.75,1.77,1.77,0,0,0-.8,1.49,1.8,1.8,0,1,0,2.78-1.49Zm-1-1.16a.42.42,0,0,1,.41.41.42.42,0,1,1-.41-.41Zm0,3.62a1,1,0,1,1,0-1.94,1,1,0,1,1,0,1.94Z"/><path class="cls-11" d="M65.76,154.73h-1.6l1.42-1.29a1.81,1.81,0,0,0,.6-1.33,1.79,1.79,0,0,0-.47-1.21,1.82,1.82,0,0,0-1.34-.6,1.76,1.76,0,0,0-1.21.47l-.23.21a.42.42,0,0,0,0,.59.41.41,0,0,0,.58,0l.24-.22a1,1,0,0,1,.65-.24.93.93,0,0,1,.72.31,1,1,0,0,1-.06,1.38l-2.23,2a.42.42,0,0,0,0,.59.39.39,0,0,0,.31.13h2.67a.41.41,0,0,0,.42-.41.42.42,0,0,0-.42-.42Zm3.29-.79a1.75,1.75,0,0,0,.72-.15,1.24,1.24,0,0,1-.1.2,1.7,1.7,0,0,1-.47.52,1.42,1.42,0,0,1-.71.21.45.45,0,0,0-.41.44.44.44,0,0,0,.44.4,2.22,2.22,0,0,0,1.13-.36,2.65,2.65,0,0,0,1-1.28,4.37,4.37,0,0,0,.26-1.54c0-.15,0-.29,0-.43v0a1.82,1.82,0,1,0-1.81,2Zm0-2.8a1,1,0,0,1,1,1,1,1,0,0,1-1,1,1,1,0,0,1-1-1A1,1,0,0,1,69.05,151.14Z"/><path class="cls-11" d="M83.91,152l.94-1,.08-.1a.46.46,0,0,0,0-.21.42.42,0,0,0-.43-.42H82.34a.43.43,0,1,0,0,.85h1.21l-.76.78a.43.43,0,0,0,0,.6h0a.4.4,0,0,0,.31.14,1,1,0,0,1,1,1,1,1,0,0,1-.3.72,1,1,0,0,1-.72.3,1,1,0,0,1-.71-.3.45.45,0,0,0-.61,0,.43.43,0,0,0,0,.6,1.86,1.86,0,0,0,1.32.55h0a1.86,1.86,0,0,0,1.32-3.18,1.71,1.71,0,0,0-.52-.37Zm2.77,2.72h0a1.72,1.72,0,0,0,1.4.83h0a1.73,1.73,0,0,0,1.39-.83h0a3.25,3.25,0,0,0,.5-1.8h0a3.22,3.22,0,0,0-.5-1.79h0a1.71,1.71,0,0,0-1.39-.84h0a1.7,1.7,0,0,0-1.4.84h0a3.22,3.22,0,0,0-.51,1.79h0a3.26,3.26,0,0,0,.51,1.8Zm2.1-.47h0a.88.88,0,0,1-.7.47h0a.91.91,0,0,1-.72-.47h0a2.44,2.44,0,0,1-.36-1.33h0a2.46,2.46,0,0,1,.36-1.33h0a.89.89,0,0,1,.72-.46h0a.87.87,0,0,1,.7.46h0a2.46,2.46,0,0,1,.36,1.33h0A2.44,2.44,0,0,1,88.78,154.26Z"/><path class="cls-11" d="M46,91.65h0a3.24,3.24,0,0,0,1.93.75h0A2.37,2.37,0,0,0,49.27,92h0a1.46,1.46,0,0,0,.64-1.16h0a1.14,1.14,0,0,0-.18-.64h0a1.72,1.72,0,0,0-.75-.63h0a4.24,4.24,0,0,0-1-.31h0a2.51,2.51,0,0,1-.94-.34h0a.53.53,0,0,1-.2-.19h0a.35.35,0,0,1-.06-.21h0A.62.62,0,0,1,47,88h0a1.42,1.42,0,0,1,.84-.25h0a2.13,2.13,0,0,1,1.21.48h0a.39.39,0,0,0,.54-.11h0a.4.4,0,0,0-.11-.54h0a2.93,2.93,0,0,0-1.64-.6h0a2.18,2.18,0,0,0-1.3.4h0a1.4,1.4,0,0,0-.6,1.1h0a1.17,1.17,0,0,0,.17.61h0a1.6,1.6,0,0,0,.7.59h0a4.07,4.07,0,0,0,1,.3h0a3.06,3.06,0,0,1,1,.35h0a.67.67,0,0,1,.22.23h0a.38.38,0,0,1,.07.24h0a.7.7,0,0,1-.32.54h0a1.69,1.69,0,0,1-.94.28h0a2.43,2.43,0,0,1-1.44-.58h0a.39.39,0,0,0-.55,0h0A.4.4,0,0,0,46,91.65Z"/><path class="cls-11" d="M68.63,87.14h0a.41.41,0,0,0-.34.17l-1.5,2.08L65.3,87.31a.42.42,0,0,0-.33-.17h0a.42.42,0,0,0-.41.41V92a.42.42,0,0,0,.41.41.41.41,0,0,0,.42-.41V88.82l1.08,1.51a.42.42,0,0,0,.34.17h0a.44.44,0,0,0,.34-.17l1.08-1.51V92a.41.41,0,0,0,.41.41.42.42,0,0,0,.42-.41V87.55A.43.43,0,0,0,68.63,87.14Z"/><path class="cls-11" d="M88,87.55a.41.41,0,0,0-.41-.41H84.41a.41.41,0,0,0-.41.41.42.42,0,0,0,.41.43H85.6v4a.41.41,0,0,0,.41.41.41.41,0,0,0,.41-.41V88h1.2A.43.43,0,0,0,88,87.55Z"/><path class="cls-11" d="M108.55,87.24a.42.42,0,0,0-.55.22l-1.46,3.48-1-2.31a.43.43,0,0,0-.39-.26.4.4,0,0,0-.39.26l-1,2.31-1.48-3.48a.4.4,0,0,0-.53-.22.39.39,0,0,0-.22.53l1.84,4.38,0,.07h0s0,0,0,0v0s0,0,.06,0h0l.07,0H104a0,0,0,0,1,0,0h0l.06,0h0l0,0s0,0,0,0l0,0h0a.11.11,0,0,0,0-.07l1-2.33,1,2.33a.24.24,0,0,0,0,.07s0,0,0,0l0,0s0,0,0,0,0,0,.06,0h0a.18.18,0,0,0,.07,0h.31a0,0,0,0,1,0,0h0a.18.18,0,0,0,.07,0h0l0,0s0,0,0,0l0,0h0s0,0,0-.07l1.84-4.38A.4.4,0,0,0,108.55,87.24Z"/><path class="cls-11" d="M126.31,87.55a.41.41,0,0,0-.42-.41h-3.21a.41.41,0,0,0-.41.41.42.42,0,0,0,.41.43h1.19v4a.42.42,0,0,0,.83,0V88h1.19A.43.43,0,0,0,126.31,87.55Z"/><path class="cls-11" d="M142.39,92.4a.42.42,0,0,0,.42-.41V90.18h1.75a.41.41,0,0,0,.41-.42.42.42,0,0,0-.41-.41h-1.75V88h2a.42.42,0,0,0,0-.84h-2.46a.41.41,0,0,0-.42.41V92A.41.41,0,0,0,142.39,92.4Z"/><path class="cls-11" d="M160.77,91.65h0a3.27,3.27,0,0,0,1.93.75h0a2.37,2.37,0,0,0,1.39-.43h0a1.46,1.46,0,0,0,.64-1.16h0a1.14,1.14,0,0,0-.18-.64h0a1.72,1.72,0,0,0-.75-.63h0a4.24,4.24,0,0,0-1-.31h0a2.58,2.58,0,0,1-.94-.34h0a.53.53,0,0,1-.2-.19h0a.35.35,0,0,1-.06-.21h0a.62.62,0,0,1,.29-.48h0a1.42,1.42,0,0,1,.84-.25h0a2.13,2.13,0,0,1,1.21.48h0a.39.39,0,0,0,.54-.11h0a.4.4,0,0,0-.11-.54h0a2.93,2.93,0,0,0-1.64-.6h0a2.18,2.18,0,0,0-1.3.4h0a1.4,1.4,0,0,0-.6,1.1h0a1.17,1.17,0,0,0,.17.61h0a1.6,1.6,0,0,0,.7.59h0a4.07,4.07,0,0,0,1,.3h0a3.06,3.06,0,0,1,1,.35h0a.67.67,0,0,1,.22.23h0a.38.38,0,0,1,.07.24h0a.7.7,0,0,1-.32.54h0a1.69,1.69,0,0,1-.94.28h0a2.43,2.43,0,0,1-1.44-.58h0a.39.39,0,0,0-.55,0h0A.42.42,0,0,0,160.77,91.65Z"/><path class="cls-11" d="M34,60.15A18.28,18.28,0,1,0,15.68,41.87,18.3,18.3,0,0,0,34,60.15Z"/><path class="cls-7" d="M34,32.05a.87.87,0,0,1-.87-.88v-5a.88.88,0,1,1,1.75,0v5A.87.87,0,0,1,34,32.05Z"/><path class="cls-7" d="M49.7,42.75H44.65a.88.88,0,0,1,0-1.75H49.7a.88.88,0,0,1,0,1.75Z"/><path class="cls-7" d="M23.25,42.75h-5a.88.88,0,1,1,0-1.75h5a.88.88,0,1,1,0,1.75Z"/><path class="cls-7" d="M34,29.53a.88.88,0,0,1-.87-.88V26.13a.88.88,0,1,1,1.75,0v2.52A.88.88,0,0,1,34,29.53Z"/><path class="cls-7" d="M40.56,31.3a.85.85,0,0,1-.43-.12A.86.86,0,0,1,39.81,30l1.26-2.19a.87.87,0,1,1,1.51.88l-1.26,2.18A.87.87,0,0,1,40.56,31.3Z"/><path class="cls-7" d="M45.41,36.14A.87.87,0,0,1,45,34.51l2.18-1.27a.89.89,0,0,1,1.2.32.88.88,0,0,1-.32,1.2L45.84,36A.88.88,0,0,1,45.41,36.14Z"/><path class="cls-7" d="M27.34,31.3a.88.88,0,0,1-.76-.44l-1.26-2.18a.88.88,0,1,1,1.52-.88L28.1,30a.87.87,0,0,1-.32,1.19A.88.88,0,0,1,27.34,31.3Z"/><path class="cls-7" d="M22.5,36.14a.88.88,0,0,1-.44-.12l-2.18-1.26a.88.88,0,0,1,.87-1.52l2.19,1.27a.87.87,0,0,1,.32,1.19A.88.88,0,0,1,22.5,36.14Z"/><path class="cls-7" d="M34,58.5a.87.87,0,0,1-.87-.88v-5a.88.88,0,1,1,1.75,0v5A.87.87,0,0,1,34,58.5Z"/><path class="cls-7" d="M34,58.5a.87.87,0,0,1-.87-.88V55.1a.88.88,0,1,1,1.75,0v2.52A.87.87,0,0,1,34,58.5Z"/><path class="cls-7" d="M41.83,56.39a.87.87,0,0,1-.76-.44l-1.26-2.19a.87.87,0,1,1,1.51-.87l1.26,2.18a.87.87,0,0,1-.32,1.2A.82.82,0,0,1,41.83,56.39Z"/><path class="cls-7" d="M47.59,50.62a.87.87,0,0,1-.44-.11L45,49.24a.87.87,0,1,1,.87-1.51L48,49a.87.87,0,0,1-.44,1.63Z"/><path class="cls-7" d="M26.08,56.39a.88.88,0,0,1-.76-1.32l1.26-2.18a.88.88,0,0,1,1.2-.32.87.87,0,0,1,.32,1.19L26.84,56A.88.88,0,0,1,26.08,56.39Z"/><path class="cls-7" d="M20.32,50.62a.86.86,0,0,1-.76-.43.88.88,0,0,1,.32-1.2l2.18-1.26a.87.87,0,1,1,.88,1.51l-2.19,1.27A.84.84,0,0,1,20.32,50.62Z"/><path class="cls-7" d="M34,43a1.16,1.16,0,0,1-1.16-1.17V33.92a1.17,1.17,0,0,1,2.33,0v7.95A1.17,1.17,0,0,1,34,43Z"/><path class="cls-7" d="M34,43a1.16,1.16,0,0,1-.78-2l4.44-4a1.16,1.16,0,0,1,1.64.09,1.17,1.17,0,0,1-.09,1.65l-4.43,4A1.16,1.16,0,0,1,34,43Z"/><path class="cls-12" d="M143.06,134.26a5.66,5.66,0,0,1-3.12-1c-2.44-1.61-3.3-4-2.3-6.31,1.21-2.84,5.14-5.22,10.54-5.13a17,17,0,0,0-3.89-6.19.44.44,0,0,1,.64-.61,17.75,17.75,0,0,1,4.18,6.84,20.39,20.39,0,0,1,3,.46.44.44,0,0,1,.33.52.46.46,0,0,1-.53.33,19.27,19.27,0,0,0-2.59-.41,10.39,10.39,0,0,1-1.75,9.16A6,6,0,0,1,143.06,134.26Zm4.75-11.56c-4.84,0-8.3,2.1-9.37,4.6-.83,2-.11,3.87,2,5.24a4.74,4.74,0,0,0,6.52-1.17,9.58,9.58,0,0,0,1.5-8.66Z"/><polygon class="cls-13" points="158.13 117.57 156.36 119.43 152.72 123.12 157.9 123.15 159.57 123.18 168.02 123.35 168.02 123.35 168.02 123.35 176.99 119.62 176.99 106.42 176.79 106.5 163.34 112.1 158.13 117.57"/><path class="cls-14" d="M155.4,108.4l-3.26,14.76,13.09-7.55,33.24-45.36a3.34,3.34,0,0,0-.71-4.65l-4.47-3.27a3.33,3.33,0,0,0-4.65.72Z"/><path class="cls-9" d="M155.4,108.4l-3.26,14.76,8.5-11.6L195.52,64l-2.23-1.64a3.33,3.33,0,0,0-4.65.72Z"/><path class="cls-11" d="M155.4,108.4l-3.26,14.76,13.09-7.55L195.58,74.2A34.82,34.82,0,0,0,185.75,67Z"/><path class="cls-11" d="M155.4,108.4l-3.26,14.76,8.5-11.6L191,70.16A34.88,34.88,0,0,0,185.75,67Z"/><path class="cls-9" d="M155.4,108.4l-3.26,14.76,13.09-7.55,28.05-38.28a32.7,32.7,0,0,0-9.83-7.2Z"/><path class="cls-8" d="M155.4,108.4l-3.26,14.76,8.5-11.6L188.7,73.27a31.42,31.42,0,0,0-5.25-3.14Z"/><path class="cls-15" d="M155.4,108.4l-3.26,14.76,13.09-7.55a34,34,0,0,0-9.83-7.21Z"/><path class="cls-15" d="M155.4,108.4l-3.26,14.76,8.5-11.6A34.26,34.26,0,0,0,155.4,108.4Z"/><path class="cls-16" d="M153.21,118.28l-1.2,5,4.45-2.67a10.87,10.87,0,0,0-1.51-1.33A11.34,11.34,0,0,0,153.21,118.28Z"/><path class="cls-7" d="M178.93,37.32a6.66,6.66,0,1,1,8.91-3A6.67,6.67,0,0,1,178.93,37.32Zm4.84-9.86a4.32,4.32,0,1,0,2,5.79A4.33,4.33,0,0,0,183.77,27.46Z"/><path class="cls-17" d="M16.8,160.68A6.66,6.66,0,1,1,23.46,154,6.67,6.67,0,0,1,16.8,160.68Zm0-11A4.33,4.33,0,1,0,21.13,154,4.33,4.33,0,0,0,16.8,149.7Z"/><path class="cls-18" d="M20.27,143.48A4.47,4.47,0,1,1,24.74,139,4.47,4.47,0,0,1,20.27,143.48Zm0-6.61A2.14,2.14,0,1,0,22.41,139,2.14,2.14,0,0,0,20.27,136.87Z"/><path class="cls-7" d="M22.05,89.14a1.16,1.16,0,0,1-.83-.34,3.56,3.56,0,0,1-.62-4c.33-1.08.36-1.41-.12-1.89h0c-.49-.48-.81-.45-1.89-.12A3.43,3.43,0,0,1,14,78.15c.33-1.08.36-1.4-.12-1.89S13,75.81,12,76.14a3.58,3.58,0,0,1-4-.62,3.58,3.58,0,0,1-.62-4c.33-1.08.36-1.41-.12-1.89s-.82-.45-1.9-.12a3.56,3.56,0,0,1-4-.62A1.17,1.17,0,0,1,3,67.23c.39.38.66.35,1.66,0s2.71-.83,4.24.7h0a3.76,3.76,0,0,1,.7,4.23c-.32,1-.35,1.28,0,1.67s.66.35,1.67,0a3.68,3.68,0,0,1,4.93,4.93c-.31,1-.35,1.28,0,1.67s.67.35,1.67,0a3.76,3.76,0,0,1,4.23.7h0a3.76,3.76,0,0,1,.7,4.23c-.31,1-.34,1.29,0,1.67a1.16,1.16,0,0,1,0,1.65A1.13,1.13,0,0,1,22.05,89.14Z"/><g class="cls-19"><path class="cls-7" d="M20.24,97.59a1.16,1.16,0,0,1-.83-.34,3.58,3.58,0,0,1-.62-4c.34-1.08.37-1.4-.12-1.89s-.81-.45-1.89-.12a3.58,3.58,0,0,1-4-.62h0a3.58,3.58,0,0,1-.62-4c.33-1.08.36-1.41-.12-1.89s-.81-.46-1.89-.12a3.57,3.57,0,0,1-4-.63h0a3.56,3.56,0,0,1-.62-4c.33-1.08.36-1.41-.12-1.89s-.81-.46-1.9-.12-2.58.8-4-.63a1.16,1.16,0,0,1,0-1.65,1.18,1.18,0,0,1,1.65,0c.39.39.66.36,1.67,0a3.73,3.73,0,0,1,4.23.7H7c1.53,1.53,1,3.15.7,4.23s-.35,1.28,0,1.66h0c.39.39.66.36,1.67,0a3.76,3.76,0,0,1,4.23.7h0c1.53,1.53,1,3.15.7,4.23s-.34,1.28,0,1.67.66.35,1.67,0,2.7-.84,4.23.7,1,3.16.7,4.23-.34,1.28.05,1.67a1.18,1.18,0,0,1,0,1.65A1.16,1.16,0,0,1,20.24,97.59Z"/></g><path class="cls-20" d="M33.33,172.22A3.31,3.31,0,1,1,30,175.53,3.31,3.31,0,0,1,33.33,172.22Z"/><path class="cls-20" d="M187,167.3a4.55,4.55,0,1,1-4.55,4.55A4.55,4.55,0,0,1,187,167.3Z"/><path class="cls-20" d="M188.2,155.45a3.31,3.31,0,1,1-3.31,3.3A3.3,3.3,0,0,1,188.2,155.45Z"/><g class="cls-21"><path class="cls-10" d="M168.75,24.47a4.47,4.47,0,1,1,6-2A4.48,4.48,0,0,1,168.75,24.47Zm2.91-5.93a2.13,2.13,0,1,0,1,2.86A2.15,2.15,0,0,0,171.66,18.54Z"/></g></g></g></svg>