<svg id="Layer_1" data-name="Layer 1" xmlns="http://www.w3.org/2000/svg" viewBox="0 0 200 200"><defs><style>.cls-1{fill:#f0806d;}.cls-2,.cls-4{opacity:0.5;}.cls-3,.cls-4{fill:#fff;}</style></defs><path class="cls-1" d="M79.51,45.84,36.88,143.47a18.42,18.42,0,0,0,18.75,25.7c29.61-3,74-7.57,104.74-10.75A19.58,19.58,0,0,0,173.86,127L108.54,42.26A17,17,0,0,0,79.51,45.84Z"/><g class="cls-2"><path class="cls-3" d="M81.7,52.4a3.1,3.1,0,0,1,.35-1c.14-.3.3-.7.54-1.13l1-1.47c.38-.53.91-1.06,1.44-1.69a17.22,17.22,0,0,1,2.09-1.69,15,15,0,0,1,6.21-2.52,16,16,0,0,1,8.38.81,16.17,16.17,0,0,1,4.2,2.48l1,.83c.3.31.59.64.88,1,.62.65,1.13,1.34,1.68,2l14.73,18.8,38.16,49.06,5.44,7a18.67,18.67,0,0,1,3.67,8.85,19,19,0,0,1-7.37,17.62,19.2,19.2,0,0,1-9.48,3.66l-9.74,1-19.88,2-39.22,4L67.08,164l-4.55.46-2.25.22-2.41.08a17.43,17.43,0,0,1-9-2.82,17.93,17.93,0,0,1-8.09-15.46c.07-.74.07-1.48.21-2.2s.3-1.43.48-2.13l.74-2c.26-.65.54-1.25.81-1.87l3.2-7.26L58,104.54C65.16,88.37,71,75.3,75.11,66.29c2.06-4.48,3.67-8,4.77-10.35A23.27,23.27,0,0,1,81.7,52.4a23.62,23.62,0,0,1-1.36,3.74c-1,2.43-2.47,6-4.35,10.53C72.17,75.8,66.56,89,59.59,105.24c-3.5,8.13-7.33,17-11.45,26.58L45,139.11c-.26.61-.55,1.24-.79,1.85l-.64,1.8c-.15.62-.26,1.26-.4,1.88s-.11,1.28-.17,1.93A15.68,15.68,0,0,0,50.15,160a15,15,0,0,0,7.8,2.41l2.1-.07,2.25-.24,4.54-.47,18.64-1.95,39.21-4.05,19.89-2,9.74-1a16.4,16.4,0,0,0,14.76-18.53,16.27,16.27,0,0,0-3.19-7.75l-5.39-7L122.76,69.92l-14.44-19c-.53-.7-1-1.41-1.58-2-.27-.31-.53-.62-.8-.91s-.59-.53-.89-.78a14.3,14.3,0,0,0-11.61-3.33,14.7,14.7,0,0,0-6,2.18,18.08,18.08,0,0,0-2.06,1.53c-.54.58-1.08,1.06-1.48,1.55l-1,1.35c-.27.41-.46.78-.63,1.06A3.27,3.27,0,0,1,81.7,52.4Z"/></g><path class="cls-4" d="M88.53,74.71l6.36,38.91a6.39,6.39,0,0,0,6.55,5.35h0a6.4,6.4,0,0,0,6.14-6.31L108,72.88a5,5,0,0,0-5.57-5l-9.54,1.08A5,5,0,0,0,88.53,74.71Z"/><path class="cls-4" d="M113.19,138.45A9.6,9.6,0,1,1,105.93,127,9.6,9.6,0,0,1,113.19,138.45Z"/><path class="cls-1" d="M34.16,22.74l-31.74,29a7.44,7.44,0,0,0,2.7,12.56c11.42,3.75,28.54,9.34,40.41,13.21a7.91,7.91,0,0,0,10.13-9.39l-10.2-42A6.87,6.87,0,0,0,34.16,22.74Z"/><g class="cls-2"><path class="cls-3" d="M33.89,25.52s.27-.54,1.2-1.14a6.21,6.21,0,0,1,4.71-.72,6.66,6.66,0,0,1,3.13,1.7,7.56,7.56,0,0,1,2,3.75c.72,2.75,1.54,5.88,2.45,9.32,1.77,7,3.86,15.19,6.19,24.33.28,1.15.57,2.31.86,3.49a8.17,8.17,0,0,1-.09,4.22,8.42,8.42,0,0,1-6.13,5.8,8.53,8.53,0,0,1-4.48-.22L40,74.83l-7.67-2.5-15.12-5L10,65l-1.75-.58-.87-.29-1-.4a7.7,7.7,0,0,1-3.11-2.76,7.9,7.9,0,0,1-.47-7.69,8.87,8.87,0,0,1,1.06-1.62L4.51,51l.62-.55,2.38-2.14,8.73-7.78c5.35-4.74,9.7-8.54,12.75-11.13s4.79-4,4.9-3.83-1.4,1.74-4.25,4.54-7,6.81-12.22,11.71l-8.52,8L6.56,52,6,52.51,5.49,53a6.51,6.51,0,0,0-.74,1.18,5.68,5.68,0,0,0,.42,5.49A5.32,5.32,0,0,0,7.38,61.6l.7.28.87.28,1.76.57,7.2,2.32L33.05,70l7.66,2.52,3.76,1.23a5.93,5.93,0,0,0,7.68-7c-.28-1.17-.55-2.33-.82-3.47L45.66,38.85c-.78-3.48-1.48-6.63-2.1-9.42a6.33,6.33,0,0,0-1.47-3.24,5.83,5.83,0,0,0-2.55-1.6,6,6,0,0,0-4.22.23C34.39,25.23,34,25.61,33.89,25.52Z"/></g><path class="cls-4" d="M32.75,34.87l-4,15.4a2.58,2.58,0,0,0,1.54,3h0A2.58,2.58,0,0,0,33.56,52l6.68-14.61A2,2,0,0,0,39,34.62l-3.69-1.16A2,2,0,0,0,32.75,34.87Z"/><path class="cls-4" d="M31.4,62.44A3.88,3.88,0,1,1,30.6,57,3.89,3.89,0,0,1,31.4,62.44Z"/><path class="cls-1" d="M156,31.75l-7.2,32.81a5.81,5.81,0,0,0,7.37,6.81l31.75-9.75a6.18,6.18,0,0,0,2.24-10.56l-25.4-22.2A5.36,5.36,0,0,0,156,31.75Z"/><g class="cls-2"><path class="cls-3" d="M157,33.64c-.06,0-.11-.47.2-1.29a4.86,4.86,0,0,1,2.69-2.65,5.4,5.4,0,0,1,2.83-.36,6,6,0,0,1,3,1.52l5.8,4.82,14.93,12.7,2.13,1.84a6.74,6.74,0,0,1,1.92,2.85,6.83,6.83,0,0,1-1.35,6.71,6.91,6.91,0,0,1-3.08,2l-3,.91-6,1.86-11.89,3.63-5.66,1.7-1.38.42-.69.2-.84.2a6.29,6.29,0,0,1-3.36-.39,6.33,6.33,0,0,1-3.95-6.46l.12-.76.14-.63c.19-.83.38-1.64.57-2.44.76-3.18,1.46-6.16,2.1-8.88,1.31-5.43,2.41-9.81,3.22-12.83s1.34-4.66,1.51-4.63,0,1.76-.57,4.84S155.1,46,154,51.47c-.55,2.75-1.16,5.74-1.8,9-.17.81-.34,1.62-.51,2.45l-.12.62-.07.51a4.46,4.46,0,0,0,.06,1,4.16,4.16,0,0,0,2.59,3.12,3.89,3.89,0,0,0,2.14.21l.54-.13.68-.22,1.38-.43,5.64-1.76,11.87-3.68,6-1.84,3-.9a4.38,4.38,0,0,0,2-1.24,4.46,4.46,0,0,0,.92-4.34A4.4,4.4,0,0,0,187.08,52L185,50.1,170.41,37l-5.55-5.1a4.37,4.37,0,0,0-4.61-1.3,4.66,4.66,0,0,0-2.57,2C157.26,33.24,157.14,33.67,157,33.64Z"/></g><path class="cls-4" d="M160.51,40.13l4.36,11.64A2,2,0,0,0,167.22,53h0a2,2,0,0,0,1.51-2.33l-2.3-12.34a1.58,1.58,0,0,0-2-1.21l-2.89.92A1.58,1.58,0,0,0,160.51,40.13Z"/><path class="cls-4" d="M172.05,58.33a3,3,0,1,1-3-3.1A3,3,0,0,1,172.05,58.33Z"/><path class="cls-1" d="M21.29,177.06s-.43-.33-1.11-1A12,12,0,0,1,19,174.7a20.79,20.79,0,0,1-1.43-1.88,33.66,33.66,0,0,1-3.05-5.33,38.79,38.79,0,0,1-2.36-7.16,38.2,38.2,0,0,1-.79-7.49,33.56,33.56,0,0,1,.57-6.12,23.34,23.34,0,0,1,.53-2.3,12.24,12.24,0,0,1,.53-1.69,5.56,5.56,0,0,1,.59-1.4c.15,0-.56,2.08-1.07,5.49a37.07,37.07,0,0,0-.39,6,40.81,40.81,0,0,0,.84,7.32,41.32,41.32,0,0,0,2.25,7,38.49,38.49,0,0,0,2.83,5.32C19.92,175.39,21.41,177,21.29,177.06Z"/><path class="cls-1" d="M35.1,179.06a6.19,6.19,0,0,1-1.36-.86A14.29,14.29,0,0,1,32.26,177a22.41,22.41,0,0,1-1.83-1.69,32.81,32.81,0,0,1-4.11-5.05,35.15,35.15,0,0,1-5.55-14.85,32.64,32.64,0,0,1-.21-6.5,20.09,20.09,0,0,1,.28-2.48,12.78,12.78,0,0,1,.35-1.85,5.58,5.58,0,0,1,.46-1.54c.16,0-.39,2.25-.5,5.9a35.92,35.92,0,0,0,.37,6.37A37.22,37.22,0,0,0,27,169.88a36.94,36.94,0,0,0,3.9,5.05C33.33,177.61,35.2,178.93,35.1,179.06Z"/><path class="cls-1" d="M182.51,162.18c-.13-.07,1.1-2.28,2.5-6.09a53.48,53.48,0,0,0,2-6.82,56.4,56.4,0,0,0,1.14-8.62,57.8,57.8,0,0,0-.31-8.68,53.09,53.09,0,0,0-1.32-7c-1-3.92-2-6.24-1.9-6.3a7.35,7.35,0,0,1,.81,1.59,35.53,35.53,0,0,1,1.65,4.56,45.57,45.57,0,0,1,1.51,7,48.63,48.63,0,0,1-.84,17.56,46.67,46.67,0,0,1-2.18,6.87,35.17,35.17,0,0,1-2.08,4.38A7.31,7.31,0,0,1,182.51,162.18Z"/><path class="cls-1" d="M195.24,158.92c-.14-.08.85-1.88,1.91-5a39.42,39.42,0,0,0,1.43-5.58,41.41,41.41,0,0,0,.59-7,42.05,42.05,0,0,0-.69-7,40.13,40.13,0,0,0-1.51-5.56c-1.1-3.1-2.12-4.89-2-5a5,5,0,0,1,.81,1.2,25.56,25.56,0,0,1,1.72,3.56,33.35,33.35,0,0,1,1.7,5.61,38.48,38.48,0,0,1,.78,7.16,39.69,39.69,0,0,1-.67,7.16,34.14,34.14,0,0,1-1.63,5.64A25.09,25.09,0,0,1,196,157.7,5.13,5.13,0,0,1,195.24,158.92Z"/></svg>