<?xml version="1.0" encoding="UTF-8"?>
<svg width="27px" height="21px" viewBox="0 0 27 21" version="1.1" xmlns="http://www.w3.org/2000/svg" xmlns:xlink="http://www.w3.org/1999/xlink">
    <!-- Generator: Sketch 56.3 (81716) - https://sketch.com -->
    <title>Group 49</title>
    <desc>Created with Sketch.</desc>
    <g id="New-UI" stroke="none" stroke-width="1" fill="none" fill-rule="evenodd">
        <g id="Group-49" fill="#00A8A2" fill-rule="nonzero">
            <g id="Group-63">
                <path d="M14.0192308,9.80245 C14.3138077,9.75975 14.5855385,9.6859 14.7973846,9.57845 C15.057,9.4472 15.1442308,9.3149 15.1442308,9.2743 C15.1442308,9.15425 14.7558462,8.85045 14.0192308,8.7451 L14.0192308,9.80245 Z" id="Path"></path>
                <path d="M21.6851538,3.2375 L5.31484615,3.2375 C5.10542308,4.31305 4.26530769,5.1625 3.20192308,5.3739 L3.20192308,10.98825 C4.26565385,11.2 5.10576923,12.04945 5.31484615,13.12465 L21.6848077,13.12465 C21.8942308,12.04945 22.7343462,11.19965 23.7977308,10.98825 L23.7977308,5.3739 C22.7346923,5.1625 21.8945769,4.31305 21.6851538,3.2375 Z M16.1826923,9.27465 C16.1826923,9.7762 15.8559231,10.21755 15.2619231,10.51785 C14.9112692,10.6953 14.4813462,10.81255 14.0192308,10.86365 L14.0192308,11.4625 C14.0192308,11.75265 13.7869615,11.9875 13.5,11.9875 C13.2130385,11.9875 12.9807692,11.75265 12.9807692,11.4625 L12.9807692,10.86365 C12.5186538,10.81255 12.0887308,10.6953 11.7380769,10.51785 C11.1444231,10.2179 10.8173077,9.7762 10.8173077,9.275 C10.8173077,8.98485 11.0495769,8.75 11.3365385,8.75 C11.6235,8.75 11.8557692,8.98485 11.8557692,9.275 C11.8557692,9.31525 11.943,9.44755 12.2022692,9.5788 C12.4144615,9.68625 12.6861923,9.7601 12.9807692,9.8028 L12.9807692,8.6779 C11.7173077,8.54 10.8173077,7.903 10.8173077,7.08785 C10.8173077,6.2727 11.7173077,5.6357 12.9807692,5.4978 L12.9807692,4.9 C12.9807692,4.60985 13.2130385,4.375 13.5,4.375 C13.7869615,4.375 14.0192308,4.60985 14.0192308,4.9 L14.0192308,5.49745 C15.2826923,5.6357 16.1826923,6.2727 16.1826923,7.0875 C16.1826923,7.37765 15.9500769,7.6125 15.6634615,7.6125 C15.3768462,7.6125 15.1442308,7.37765 15.1442308,7.0875 C15.1442308,6.96745 14.7558462,6.6633 14.0192308,6.55795 L14.0192308,7.68495 C15.2826923,7.82285 16.1826923,8.45985 16.1826923,9.27465 Z" id="Shape"></path>
                <path d="M11.8557692,7.0875 C11.8557692,7.20755 12.2445,7.5117 12.9807692,7.61705 L12.9807692,6.5583 C12.2445,6.6633 11.8557692,6.96745 11.8557692,7.0875 Z" id="Path"></path>
                <path d="M25.7884615,0 L1.21153846,0 C0.543461538,0 0,0.5495 0,1.225 L0,15.1375 C0,15.813 0.543461538,16.3625 1.21153846,16.3625 L25.7884615,16.3625 C26.4565385,16.3625 27,15.813 27,15.1375 L27,1.225 C27,0.5495 26.4565385,0 25.7884615,0 Z M24.8365385,11.9875 L24.3173077,11.9875 C23.4107308,11.9875 22.6730769,12.73335 22.6730769,13.65 L22.6730769,14.175 L4.32692308,14.175 L4.32692308,13.65 C4.32692308,12.73335 3.58926923,11.9875 2.68269231,11.9875 L2.16346154,11.9875 L2.16346154,4.375 L2.68269231,4.375 C3.58926923,4.375 4.32692308,3.62915 4.32692308,2.7125 L4.32692308,2.1875 L22.6730769,2.1875 L22.6730769,2.7125 C22.6730769,3.62915 23.4107308,4.375 24.3173077,4.375 L24.8365385,4.375 L24.8365385,11.9875 Z" id="Shape"></path>
                <path d="M24.3173077,17.5 L2.68269231,17.5 C2.39573077,17.5 2.16346154,17.7352 2.16346154,18.025 C2.16346154,18.3148 2.39573077,18.55 2.68269231,18.55 L24.3173077,18.55 C24.6039231,18.55 24.8365385,18.3148 24.8365385,18.025 C24.8365385,17.7352 24.6039231,17.5 24.3173077,17.5 Z" id="Path"></path>
                <path d="M21.0288462,19.6875 L5.92788462,19.6875 C5.64092308,19.6875 5.40865385,19.9227 5.40865385,20.2125 C5.40865385,20.5023 5.64092308,20.7375 5.92788462,20.7375 L21.0288462,20.7375 C21.3154615,20.7375 21.5480769,20.5023 21.5480769,20.2125 C21.5480769,19.9227 21.3154615,19.6875 21.0288462,19.6875 Z" id="Path"></path>
            </g>
        </g>
    </g>
</svg>