<?xml version="1.0" encoding="UTF-8"?>
<svg width="44px" height="44px" viewBox="0 0 44 44" version="1.1" xmlns="http://www.w3.org/2000/svg" xmlns:xlink="http://www.w3.org/1999/xlink">
    <!-- Generator: Sketch 54.1 (76490) - https://sketchapp.com -->
    <title>Group 25</title>
    <desc>Created with Sketch.</desc>
    <g id="New-UI" stroke="none" stroke-width="1" fill="none" fill-rule="evenodd">
        <g id="13.-Assests-&amp;-liabilities" transform="translate(-329.000000, -297.000000)">
            <g id="Group-25" transform="translate(329.000000, 297.000000)">
                <g id="Group-9">
                    <g id="Group-7">
                        <circle id="Oval" fill="#65D48E" opacity="0.121954055" cx="22" cy="22" r="22"></circle>
                        <circle id="Oval" fill="#65D48E" opacity="0.225678943" cx="21.8263158" cy="21.8263158" r="18.5263158"></circle>
                        <g id="Group-11" transform="translate(6.947368, 10.583158)">
                            <circle id="Oval" fill="#47A395" opacity="0.52" cx="1.15789474" cy="12.4589474" r="1.15789474"></circle>
                            <circle id="Oval-Copy-10" fill="#47A395" opacity="0.52" cx="7.56" cy="0.88" r="1"></circle>
                            <circle id="Oval-Copy-2" fill="#47A395" opacity="0.523809524" cx="24.3157895" cy="2.03789474" r="1.15789474"></circle>
                            <circle id="Oval-Copy-36" fill="#A772BB" opacity="0.287252604" cx="25.1726316" cy="25.4968421" r="1"></circle>
                        </g>
                    </g>
                </g>
                <g id="Group" transform="translate(12.000000, 13.000000)" fill="#00A8A2" fill-rule="nonzero">
                    <path d="M7.70035156,1.52981643 L12.2997266,1.52981643 L12.2997266,3.04544928 L13.8328516,3.04544928 L13.8328516,1.52981643 C13.8328516,0.692869565 13.1468359,0.0141835749 12.2997266,0.0141835749 L7.70035156,0.0141835749 C6.85320312,0.0141835749 6.16722656,0.692908213 6.16722656,1.52981643 L6.16722656,3.04544928 L7.70035156,3.04544928 L7.70035156,1.52981643 Z" id="Path"></path>
                    <path d="M18.4664063,3.85341063 L1.53363281,3.85341063 C0.687109375,3.85341063 0.00046875,4.53213527 0.00046875,5.36784541 L0.00046875,14.4689469 C0.00046875,15.3071304 0.687109375,15.9858164 1.53363281,15.9858164 L18.4664063,15.9858164 C19.3135938,15.9858164 19.9995313,15.3070918 19.9995313,14.4689469 L19.9995313,5.36784541 C19.9995313,4.53213527 19.3135156,3.85341063 18.4664063,3.85341063 Z M3.8675,12.72143 L3.8675,11.8639227 L16.1325,11.8639227 L16.1337109,12.72143 L3.8675,12.72143 Z M3.8675,10.3470918 L3.8675,9.4908599 L16.1325,9.4908599 L16.1337109,10.3470918 L3.8675,10.3470918 Z M3.8675,7.97279227 L3.8675,7.11656039 L16.1325,7.11656039 L16.1337109,7.97279227 L3.8675,7.97279227 Z" id="Shape"></path>
                </g>
            </g>
        </g>
    </g>
</svg>