<?xml version="1.0" encoding="UTF-8"?>
<svg width="500px" height="500px" viewBox="0 0 500 500" version="1.1" xmlns="http://www.w3.org/2000/svg" xmlns:xlink="http://www.w3.org/1999/xlink">
    <!-- Generator: Sketch 56.3 (81716) - https://sketch.com -->
    <title>Artboard</title>
    <desc>Created with Sketch.</desc>
    <g id="Artboard" stroke="none" stroke-width="1" fill="none" fill-rule="evenodd">
        <g id="Group-28" transform="translate(-12.000000, -12.000000)">
            <g id="Group-2" opacity="0.389541232">
                <g id="Group-8" fill="#65D48E">
                    <circle id="Oval-Copy-30" opacity="0.0621744792" cx="261.792" cy="261.792" r="261.792"></circle>
                    <circle id="Oval-Copy-31" opacity="0.0625" cx="261.792" cy="261.792" r="219.567484"></circle>
                </g>
                <g id="Group-9" opacity="0.497791109" transform="translate(77.568000, 145.440000)" fill="#634FB9">
                    <ellipse id="Oval" style="mix-blend-mode: multiply;" opacity="0.241582961" cx="88.1714462" cy="263.052095" rx="15.2898462" ry="15.342381"></ellipse>
                    <ellipse id="Oval-Copy-3" style="mix-blend-mode: multiply;" opacity="0.241582961" cx="7.64492308" cy="228.322524" rx="7.64492308" ry="7.67119048"></ellipse>
                    <ellipse id="Oval-Copy-6" style="mix-blend-mode: multiply;" opacity="0.241582961" cx="26.7572308" cy="78.7343095" rx="11.4673846" ry="11.5067857"></ellipse>
                    <ellipse id="Oval-Copy-7" style="mix-blend-mode: multiply;" opacity="0.241582961" cx="266.043323" cy="7.67119048" rx="7.64492308" ry="7.67119048"></ellipse>
                </g>
            </g>
            <g id="Group-25-Copy" opacity="0.583472842" transform="translate(92.448000, 112.320000)" fill="#65D48E" fill-rule="nonzero">
                <path d="M249.67642,174.036644 C249.67642,128.423986 213.516387,91.2253144 169.177299,91.2253144 C124.83821,91.2253144 88.6781769,128.423986 88.6781769,174.036644 C88.6781769,219.649301 124.83821,256.847973 169.177299,256.847973 C213.516387,256.847973 249.67642,219.649301 249.67642,174.036644 Z M176.064924,215.220887 L176.064924,225.849079 C176.064924,227.177603 175.203971,228.063286 173.912541,228.063286 L164.01158,228.063286 C162.72015,228.063286 161.859197,227.177603 161.859197,225.849079 L161.859197,215.663729 C151.958235,214.778046 143.77918,206.806902 142.48775,196.621551 C142.48775,195.293027 143.348703,194.407345 144.640133,194.407345 L154.541095,194.407345 C155.402048,194.407345 156.263001,194.850186 156.263001,195.735869 C157.123954,198.835758 159.706814,201.492806 163.150626,201.492806 L171.760158,201.492806 C176.925877,201.492806 181.66112,197.507234 182.091596,192.635979 C182.522073,186.436201 178.217307,181.564946 172.190635,181.564946 L165.733486,181.564946 C153.249665,181.564946 142.48775,172.265278 141.19632,159.865721 C139.904891,146.580481 149.375376,135.066606 161.42872,133.295241 L161.42872,123.10989 C161.42872,122.224208 162.289673,120.895684 163.581103,120.895684 L173.482064,120.895684 C174.343018,120.895684 175.634447,121.781366 175.634447,123.10989 L175.634447,133.295241 C185.535409,134.180924 193.714464,142.152068 195.005894,152.337418 C195.005894,153.665942 194.144941,154.551625 192.853511,154.551625 L182.952549,154.551625 C182.091596,154.551625 181.230643,154.108784 181.230643,153.223101 C180.36969,150.123212 177.78683,147.466164 174.343018,147.466164 L165.733486,147.466164 C160.567767,147.466164 155.832524,151.451736 155.402048,156.32299 C154.971571,162.522769 159.276337,167.394024 165.303009,167.394024 L172.621111,167.394024 C186.396362,167.394024 197.588753,179.793581 196.297324,193.964503 C195.43637,205.035537 186.396362,213.449522 176.064924,215.220887 Z" id="Shape" opacity="0.143159412"></path>
                <path d="M169.177299,63.7691518 C176.925877,63.7691518 182.952549,57.5693732 182.952549,49.5982292 L182.952549,14.1709226 C182.952549,6.19977865 176.925877,2.29372077e-13 169.177299,2.29372077e-13 C161.42872,2.29372077e-13 155.402048,6.19977865 155.402048,14.1709226 L155.402048,49.5982292 C155.402048,57.5693732 161.42872,63.7691518 169.177299,63.7691518 Z" id="Path" opacity="0.143159412"></path>
                <path d="M74.0419729,96.0965691 C76.6248324,98.7536171 80.0686451,100.082141 83.9429344,100.082141 C87.8172237,100.082141 90.8305598,98.7536171 93.8438959,96.0965691 C99.4400915,90.3396318 99.4400915,81.4828051 93.8438959,76.1687091 L68.8762539,50.9267532 C63.2800582,45.1698159 54.6705265,45.1698159 49.5048075,50.9267532 C43.9086118,56.6836905 43.9086118,65.5405172 49.5048075,70.8546131 L74.0419729,96.0965691 Z" id="Path" opacity="0.143159412"></path>
                <path d="M61.9886285,174.036644 C61.9886285,166.0655 55.9619563,159.865721 48.2133777,159.865721 L13.7752508,159.865721 C6.02667221,159.865721 4.4408921e-15,166.0655 4.4408921e-15,174.036644 C4.4408921e-15,182.007787 6.02667221,188.207566 13.7752508,188.207566 L48.2133777,188.207566 C55.9619563,188.207566 61.9886285,182.007787 61.9886285,174.036644 Z" id="Path" opacity="0.143159412"></path>
                <path d="M324.579346,159.865721 L290.141219,159.865721 C282.392641,159.865721 276.365969,166.0655 276.365969,174.036644 C276.365969,182.007787 282.392641,188.207566 290.141219,188.207566 L324.579346,188.207566 C332.327925,188.207566 338.354597,182.007787 338.354597,174.036644 C338.354597,166.508341 332.327925,159.865721 324.579346,159.865721 Z" id="Path" opacity="0.143159412"></path>
                <path d="M254.842139,100.524982 C258.285952,100.524982 261.729765,99.1964584 264.743101,96.5394104 L289.280266,71.2974545 C294.876462,65.5405172 294.876462,56.6836905 289.280266,51.3695945 C283.684071,46.0554985 275.074539,45.6126572 269.90882,51.3695945 L245.371654,76.6115505 C239.775459,82.3684878 239.775459,91.2253144 245.371654,96.5394104 C247.524037,99.1964584 250.96785,100.524982 254.842139,100.524982 Z" id="Path" opacity="0.143159412"></path>
            </g>
        </g>
    </g>
</svg>