<?xml version="1.0" encoding="UTF-8"?>
<svg width="23px" height="19px" viewBox="0 0 23 19" version="1.1" xmlns="http://www.w3.org/2000/svg" xmlns:xlink="http://www.w3.org/1999/xlink">
    <!-- Generator: Sketch 56.3 (81716) - https://sketch.com -->
    <title>Shape</title>
    <desc>Created with Sketch.</desc>
    <g id="New-UI" stroke="none" stroke-width="1" fill="none" fill-rule="evenodd">
        <g id="17.-Assests-&amp;-liabilities-(liability-1)" transform="translate(-765.000000, -429.000000)" fill="#00A8A2" fill-rule="nonzero">
            <path d="M786.825416,434.672464 L785.32304,434.672464 L784.339667,431.615942 C783.847981,430.046377 782.400238,429 780.788599,429 L772.211401,429 C770.572447,429 769.152019,430.046377 768.660333,431.615942 L767.67696,434.672464 L766.174584,434.672464 C765.519002,434.672464 765,435.195652 765,435.856522 L765,436.517391 C765,437.178261 765.519002,437.701449 766.174584,437.701449 L766.584323,437.701449 C766.33848,438.802899 766.229216,439.931884 766.229216,441.06087 L766.229216,446.815942 C766.229216,447.476812 766.748219,448 767.4038,448 L769.397862,448 C770.053444,448 770.572447,447.476812 770.572447,446.815942 L770.572447,444.971014 L782.454869,444.971014 L782.454869,446.815942 C782.454869,447.476812 782.973872,448 783.629454,448 L785.5962,448 C786.251781,448 786.770784,447.476812 786.770784,446.815942 L786.770784,441.06087 C786.770784,439.931884 786.634204,438.802899 786.415677,437.701449 L786.825416,437.701449 C787.480998,437.701449 788,437.178261 788,436.517391 L788,435.856522 C788,435.195652 787.480998,434.672464 786.825416,434.672464 Z M769.752969,435.911594 L770.872922,432.35942 C771.064133,431.781159 771.583135,431.395652 772.184086,431.395652 L780.761283,431.395652 C781.362233,431.395652 781.908551,431.781159 782.072447,432.35942 L783.192399,435.911594 C783.247031,436.076812 783.110451,436.242029 782.946556,436.242029 L769.998812,436.242029 C769.834917,436.242029 769.725653,436.076812 769.752969,435.911594 Z M772.238717,441.721739 L769.862233,441.721739 C769.452494,441.721739 769.124703,441.391304 769.124703,440.978261 L769.124703,439.849275 C769.124703,439.408696 769.534442,439.050725 769.971496,439.133333 L772.184086,439.491304 C772.484561,439.546377 772.703088,439.766667 772.785036,440.069565 L772.948931,440.84058 C773.058195,441.281159 772.703088,441.721739 772.238717,441.721739 Z M783.875297,440.978261 C783.875297,441.391304 783.547506,441.721739 783.137767,441.721739 L780.761283,441.721739 C780.296912,441.721739 779.941805,441.281159 780.051069,440.84058 L780.214964,440.069565 C780.269596,439.766667 780.515439,439.546377 780.815914,439.491304 L783.028504,439.133333 C783.465558,439.050725 783.875297,439.408696 783.875297,439.849275 L783.875297,440.978261 L783.875297,440.978261 Z" id="Shape"></path>
        </g>
    </g>
</svg>