<?xml version="1.0" encoding="UTF-8"?>
<svg width="18px" height="21px" viewBox="0 0 18 21" version="1.1" xmlns="http://www.w3.org/2000/svg" xmlns:xlink="http://www.w3.org/1999/xlink">
    <!-- Generator: Sketch 56.3 (81716) - https://sketch.com -->
    <title>Group</title>
    <desc>Created with Sketch.</desc>
    <g id="New-UI" stroke="none" stroke-width="1" fill="none" fill-rule="evenodd">
        <g id="17.-Assests-&amp;-liabilities-(liability-1)" transform="translate(-560.000000, -501.000000)" fill="#00A8A2" fill-rule="nonzero">
            <g id="Group" transform="translate(560.000000, 501.000000)">
                <path d="M9.00003659,11.1858627 C12.3133171,11.1856912 13.5054146,8.07422549 13.817561,5.51836765 C14.202,2.36970588 12.6145976,0 9.00003659,0 C5.38606098,0 3.79778049,2.36953431 4.1825122,5.51833333 C4.49495122,8.07415686 5.68668293,11.1861029 9.00003659,11.1858627 Z" id="Path"></path>
                <path d="M17.9627195,18.5948824 C17.9265,17.6030784 17.8025854,16.6067794 17.6180488,15.6304167 C17.3944756,14.4476569 17.1099146,12.7136814 16.0089146,11.9428922 C15.3721829,11.4972255 14.5476585,11.3510147 13.8187317,11.0822696 C13.4639634,10.9515343 13.1461463,10.8216912 12.8478659,10.673902 C11.8411098,11.7093529 10.5283537,12.2510294 8.99959756,12.251098 C7.47128049,12.251098 6.15867073,11.7094216 5.15202439,10.673902 C4.8537439,10.8217255 4.53592683,10.9516029 4.18115854,11.0822696 C3.45223171,11.3510147 2.62770732,11.4971912 1.99104878,11.9428922 C0.88997561,12.7136814 0.60545122,14.4476569 0.381914634,15.6304167 C0.197341463,16.6067794 0.0733902439,17.6030784 0.0372073171,18.5948824 C0.00918292683,19.3630637 0.413597561,19.4707402 1.09880488,19.7026667 C1.95684146,19.9928922 2.84268293,20.208348 3.73445122,20.3849608 C5.45678049,20.7260735 7.23212195,20.9882647 8.99985366,21 C10.7675854,20.9882304 12.5429268,20.7260735 14.2652561,20.3849608 C15.1570244,20.2084167 16.042939,19.9929608 16.9009024,19.7026667 C17.5863659,19.4708088 17.9907439,19.3631324 17.9627195,18.5948824 Z" id="Path"></path>
            </g>
        </g>
    </g>
</svg>