<?xml version="1.0" encoding="UTF-8"?>
<svg width="1917" height="2918" id="Layer_1" xmlns="http://www.w3.org/2000/svg" viewBox="0 0 1080 1080">
  <defs>
    <style>
      .cls-1 {
        fill: #042b62;
      }

      .cls-2 {
        fill: #fff;
      }
    </style>
  </defs>
  <path class="cls-1" d="M416.73,312.14c.07-2.71.18-5.4.08-8.11-.13-3.6,1.36-5.25,4.93-5.58,2.07-.19,4.17.08,6.26.07,15.64-.09,31.27.28,46.91-.2,5.29-.16,7.15,1.83,6.73,7.17-.19,2.35.16,4.67.15,7-.03,4.3-1.61,6.06-5.96,6.23-4.92.19-9.85.23-14.78.29-3.93.04-7.87.01-11.81.01v-.26c-8.74,0-17.48.07-26.22-.03-4.82-.06-6.41-1.82-6.29-6.59Z"/>
  <path class="cls-1" d="M513.27,454.68c.05,1.35-.06,2.71-.18,4.05-.42,5.18-2.18,6.87-7.25,6.6-4.44-.23-8.87-.22-13.92-.09-4.07-.13-8.75-.04-13.43.13-5.13.2-7.17-1.6-8.08-6.63-.54-2.94-.43-5.88.26-8.8.85-3.62,2.67-5.18,6.46-5.41,1.59-.09,3.21-.06,4.8.09,6.77.65,13.53.51,20.31.05,8.81-.61,10.64,1.16,11.03,10.01Z"/>
  <path class="cls-1" d="M575.99,451.25c.06,2.95.52,5.89.13,8.84-.51,3.79-1.98,5.15-5.82,5.19-4.92.05-9.84.01-14.09.01-5.22-.22-9.77-.09-14.32.09-5.77.24-8.01-1.84-8.68-7.63-.33-2.85.05-5.67.62-8.44.62-3.02,2.56-4.61,5.76-4.73,2.57-.11,5.17,0,7.74.21,6.28.53,12.54.06,18.81-.14.99-.03,1.97-.07,2.96-.04,4.86.12,6.79,1.87,6.89,6.64Z"/>
  <path class="cls-1" d="M639.28,452.22c.08,2.21.02,4.44-.16,6.64-.37,4.75-2.05,6.31-6.79,6.36-5.18.05-10.36.06-15.53-.01-3.7-.05-7.39-.17-11.08.24-1.09.13-2.22.07-3.32-.07-3.24-.4-5.07-2.09-5.8-5.31-.8-3.56-.46-7.13.2-10.64.62-3.31,2.5-4.81,6.01-4.86,3.57-.05,7.14.19,10.71.31,1.48.05,2.95.14,4.43.21v-.48c4.44,0,8.87.01,13.3,0,5.82-.02,7.83,1.83,8.03,7.61Z"/>
  <path class="cls-1" d="M415.39,410.93c3.42-3.37,6.96-6.63,10.41-9.98,13.01-12.62,25.73-25.53,38.34-38.55,4.88-5.05,7.69-5.13,12.45.13,6.62,7.31,14.18,13.71,20.81,21.03,3.09,3.42,5.35,3.35,8.79-.01,5.12-4.99,10.15-10.08,15.19-15.16,8.94-9.01,17.88-18.03,26.78-27.08,5.18-5.27,7.34-5.22,12.44.07,6.5,6.75,13.11,13.39,19.68,20.06,4.33,4.4,7.23,4.43,11.5-.18,6.11-6.61,12.46-12.99,18.88-19.3,4.75-4.67,9.44-9.39,14.23-14.02,5.33-5.16,6.88-5.15,12.17.11,2.27,2.26,4.31,4.75,6.56,7.02,1.37,1.38,1.2,2.46-.06,3.73-1.39,1.4-2.62,2.95-4.01,4.35-6.34,6.38-12.73,12.73-19.08,19.1-9.05,9.09-18.08,18.19-27.13,27.28-1.13,1.13-2.26,2.27-3.47,3.32-1.14.98-2.47,1.63-3.53,1.6-2.52.01-4.07-1.02-5.34-2.4-6.42-6.99-13.77-13.08-19.99-20.27-.24-.28-.48-.56-.73-.83-4.42-4.91-6.87-4.99-11.61-.22-13.29,13.39-26.55,26.81-39.84,40.2-1.21,1.22-2.47,2.43-3.87,3.41-2.48,1.75-4.3,1.67-6.8-.1-.8-.56-1.56-1.22-2.19-1.97-6.54-7.73-14.35-14.24-21.22-21.65-3.14-3.39-5.55-3.43-8.83-.07-11.37,11.65-23.35,22.69-34.4,34.65-5.86,6.34-8.55,5.21-12.68-.12-.89-1.16-2.1-2.08-3.2-3.05-4.52-3.99-4.62-6.8-.25-11.1Z"/>
  <path class="cls-1" d="M144.32,312.19c-.08-2.39-1.15-3.4-3.52-4.13-1.21-.37-2.43-.33-3.66-.33-6.4-.01-12.81,0-19.21,0v.02h-20.31c-3.08,0-4.2.44-4.68,2.56-1.18,5.32-1.83,10.69-.26,16.06.89,3.08,2.52,4.19,5.75,3.98,1.59-.11,3.18-.48,4.77-.48,11.2,0,22.4.07,33.6.11,1.11,0,2.23.01,3.32-.17,2.74-.45,4.19-1.92,4.26-4.71.11-4.3.08-8.61-.06-12.91ZM144.37,355.58c-.12-3.46-1.42-4.76-4.89-5.29-.99-.15-1.95-.08-2.94-.05-11.33.41-22.65.72-33.97-.19-1.62-.13-3.19.06-4.77.35-3.04.55-4.75,2.37-5.35,5.34-.59,2.93-.6,5.85-.11,8.81.79,4.8,2.96,7.01,7.69,6.5,7.15-.78,14.28-.09,21.41-.38,5.41.06,10.82-.22,16.24.29,4.6.43,6.66-1.58,6.73-6.15.04-3.07.07-6.15-.04-9.23ZM136.35,433.47c-.37,0-.74.01-1.11.02-7.25.3-14.51.19-21.77.15-5.29-.02-10.59-.45-15.85.35-3.81.58-4.81,1.71-5.26,5.44-.39,3.32-.18,6.63-.04,9.94.21,5.01,1.9,6.52,6.86,6.49,6.4-.04,12.8-.01,19.2-.01v-.06c6.77,0,13.54.04,20.3-.01,4.35-.03,5.67-1.47,5.68-5.84.01-2.7-.02-5.41.1-8.11.27-6.47-1.57-8.41-8.11-8.36ZM144.5,400.18c-.7-5.89-2.69-7.84-8.64-7.54-6.03.3-12.06.22-17.86.11-6.64.09-13.04.17-19.44-.03-4.61-.15-6.18,1.52-6.26,6.18-.03,2.1.09,4.19.05,6.28-.11,7.2,1.1,8.41,8.27,8.26,8.62-.19,17.22-.75,25.85-.23,3.68.22,7.39.32,11.08.23,4.21-.1,6.27-2.09,6.81-6.27.3-2.32.42-4.63.14-6.99ZM138.73,651.7c-6.9-.04-13.8-.01-20.7-.01s-13.31-.03-19.97.01c-5.75.03-8.32,2.46-8.18,8.03.08,3.33.07,6.62-.1,9.95-.29,5.51,2.74,8.66,8.18,8.68,13.68.05,27.36.03,41.04-.05,5.28-.02,7.69-2.54,7.7-7.72.01-3.57,0-7.14.01-10.72.02-5.76-2.25-8.13-7.98-8.17ZM140.76,610.69c-1.2-.22-2.45-.25-3.67-.24-6.28,0-12.57.06-18.85.07-6.77.02-13.55-.03-20.32.02-5.02.03-6.83,1.42-8.29,6.19-.22.71-.45,1.41-.57,2.14-.61,3.72-.63,7.37,1.47,10.71,2.26,3.61,5.72,5.3,9.77,5.94,6.99,1.09,14.02.27,21.38.54,5.43-.56,11.21-.09,16.99,0,5.76.09,8.7-3.11,8.22-8.85-.23-2.84-.18-5.62.11-8.46.46-4.49-1.8-7.26-6.24-8.06ZM146.52,573.93c-.52-3.19-2.38-5.04-5.56-5.58-1.08-.19-2.2-.16-3.31-.16-9.97.01-19.95.05-29.92.06-3.45.01-6.9-.13-10.35-.03-4.41.13-6.46,1.96-7.35,6.25-.68,3.28-.63,6.62-.59,9.93.06,5.74,2.47,8.31,8.17,8.86,1.1.1,2.21.15,3.32.15,5.78.01,11.57.01,17.36.01v.09c1.35,0,2.71.02,4.06,0,5.66-.07,11.34.03,16.99-.27,5.35-.29,7.71-2.96,7.91-8.28.14-3.7-.15-7.38-.73-11.03ZM146.77,701.21c-.92-5.42-2.88-7.19-8.38-7.22-6.66-.04-13.32-.01-19.99-.01-7.03,0-14.06-.04-21.09.02-4.18.03-6.12,1.39-7.57,5.23-3.93,10.42,3.48,20.43,13.57,20.15,10.36-.3,20.72-.06,31.09-.08,1.84-.01,3.71-.06,5.53-.32,4.78-.67,7.19-3.36,7.35-8.19.11-3.2.03-6.4-.51-9.58ZM199.73,693.78c-2.95,0-5.9.25-8.86.38v-.16c-3.45,0-6.9-.11-10.34.02-3.94.15-5.89,1.7-6.98,5.41-.63,2.12-1.1,4.28-1.16,6.52-.21,7.21,3.29,11.91,10.42,12.91,6.84.97,13.78.75,20.65.04,3.56-.37,5.45-2.53,5.97-6.05.44-2.92.81-5.85.71-8.83-.25-6.74-3.71-10.24-10.41-10.24ZM227.29,312.09c-.82-2.81-2.85-4.22-5.71-4.46-.98-.08-1.98-.11-2.95-.01-5.17.54-10.34.16-15.51.16-7.4-.01-14.81-.49-22.17.45-3.8.49-5.24,1.98-5.41,5.77-.16,3.31-.13,6.66.15,9.97.41,4.63,1.97,5.92,6.71,5.95,6.04.04,12.08.01,18.12.01,5.8-.12,11.59-.25,17.38.29,1.44.13,2.95-.13,4.4-.37,2.84-.47,4.8-2.21,5.36-4.96.86-4.25.88-8.58-.37-12.8ZM227.9,439.41c-.19-3.78-2.02-5.48-5.84-5.85-.98-.1-1.97-.06-2.96-.04-4.31.13-8.62.23-12.92.43-7.53.35-15.02-.49-22.54-.52-5.44-.02-7.67,2.08-8.08,7.45-.27,3.58.22,7.14.67,10.68.32,2.54,1.56,3.61,4.13,3.98,1.21.18,2.46.17,3.69.18,5.79.01,11.59,0,17.38,0,1.11,0,2.22.01,3.33,0,5.67-.03,11.34.06,17-.13,4.22-.14,5.88-1.76,6.11-5.84.2-3.44.21-6.91.03-10.34ZM227.96,397.51c-.09-2.69-1.34-4.09-3.94-4.59-1.07-.21-2.21-.18-3.31-.18-6.41-.02-12.83-.01-19.24-.01v.05c-6.78,0-13.56-.02-20.34.01-3.26.02-4.38.84-5.54,3.85-3.34,8.66,1.39,16.36,10.71,16.63,12.08.35,24.17.19,36.25.15,3.57-.02,5.27-1.71,5.4-5.19.13-3.57.12-7.15.01-10.72ZM227.97,355.25c-.08-3.06-1.43-4.45-4.47-4.81-.98-.12-1.97-.11-2.96-.11-6.4,0-12.81,0-19.21,0v.08c-6.9,0-13.8-.02-20.7.01-3.52.02-3.83.36-4.58,3.9-.92,4.28-1.02,8.54.07,12.8.81,3.19,2.07,4.36,5.2,3.93,4.32-.59,8.61-.13,12.91-.21,7.27-.14,14.53-.17,21.8-.2,2.33-.01,4.68.38,6.99.19,3.44-.29,4.83-1.83,4.94-5.24.11-3.45.1-6.9.01-10.34ZM261.89,658.46c-.16-3.81-2.44-6.1-6.22-6.66-1.09-.16-2.21-.14-3.32-.14-11.58-.01-23.17-.01-34.76-.01v.04c-12.07,0-24.15-.03-36.23.02-5.2.03-8.05,2.45-7.89,7.2.12,3.82-.04,7.6-.12,11.41-.1,4.73,2.69,7.52,7.43,7.99.86.09,1.72.07,2.59.07,22.55-.01,45.11-.02,67.66-.05,1.48,0,2.98.08,4.43-.11,3.98-.5,6.31-2.89,6.44-6.83.14-4.31.16-8.63-.01-12.93ZM261.99,576.43c-.03-5.29-2.53-7.94-7.83-8.27-1.35-.08-2.71-.02-4.06-.02h-32.53c-10.72,0-21.43-.01-32.15,0-1.73,0-3.47-.1-5.17.1-4.15.49-6.93,2.95-6.83,6.9.11,4.05-.26,8.08-.13,12.11.1,3.05,2.2,5.28,5.2,5.93,1.19.25,2.44.32,3.67.32,13.3-.01,26.61-.09,39.91-.05,9.98.02,19.96-.48,29.93.3.97.07,1.97-.03,2.94-.18,4.77-.72,6.91-3.09,7.03-7.91.08-3.07.04-6.15.02-9.23ZM261.98,617.79c-.11-3.94-1.97-6.02-5.84-7.01-1.83-.46-3.66-.42-5.51-.4-19.23.21-38.47.62-57.7.07-3.82-.11-7.66-.21-11.47-.03-5.79.27-8.46,3.37-8.16,9.13.04.61.1,1.23.21,1.84.24,1.22.19,2.43.04,3.67-1.02,8.28,1.45,10.99,9.91,10.99,11.35-.02,22.69-.01,36.96-.01,8.79-.08,20.5-.66,32.21.05.61.04,1.24.04,1.85-.02,4.79-.43,7.39-3.13,7.5-7.93.08-3.45.09-6.91,0-10.35ZM301.93,438.22c-.09-2.42-1.42-3.71-3.79-4.41-1.34-.4-2.69-.28-4.05-.28-4.31-.02-8.63-.01-12.94-.01v.08h-5.55c-3.21,0-6.42-.08-9.62.03-4.17.15-5.82,1.5-6.79,5.44-.62,2.52-1.06,5.07-.88,7.69.27,4,2.27,6.7,6.07,7.96,1.64.54,3.32.95,5.07.95,1.61.01,3.21.05,4.81.05,7.28.03,14.56.09,21.83.07,3.89-.01,5.73-1.38,5.86-4.64.17-4.3.13-8.63-.02-12.93ZM312.57,354.75c-.63-2.55-2.3-3.94-4.86-4.43-1.35-.25-2.68-.39-4.04-.28-11.31.91-22.62.81-33.94.04-1.74-.12-3.43.08-5.13.39-2.54.47-4.13,1.98-4.93,4.43-.9,2.76-.76,5.6-.57,8.41.4,5.79,3.14,8.37,8.9,7.74,5.92-.65,11.81-.24,17.19-.34,6.79.03,13.07-.5,19.33.4,1.21.17,2.43-.05,3.66-.32,2.6-.58,4.21-2.23,4.64-4.69.65-3.77.7-7.59-.25-11.35ZM313.14,397.44c.04-2.59-1.07-3.84-3.6-4.39-1.19-.26-2.45-.27-3.67-.27-6.54-.02-13.08-.01-19.61-.01-7.04,0-14.07-.04-21.1.02-3.95.03-5.3,1.18-6.07,5.02-.41,2.05-.83,4.1-.75,6.23.19,4.77,2.4,7.54,7.06,8.64,2.29.54,4.62.71,6.98.71,11.22-.03,22.45-.02,33.67-.02.86,0,1.73.05,2.59-.05,3.06-.35,4.49-1.75,4.46-4.79-.04-3.7-.01-7.39.04-11.09ZM313.08,314.37c-.2-5.2-1.85-6.66-7.13-6.65-6.41.02-12.82.01-19.23.01-6.77,0-13.55-.04-20.33.01-5.03.04-6.96,1.93-7.14,6.9-.09,2.58-.13,5.17-.07,7.76.11,5.62,2.03,7.52,7.65,7.52,12.2.01,24.41-.02,36.61-.06,1.59-.01,3.22-.08,4.77-.39,3.39-.67,4.71-2.07,4.89-5.5.18-3.19.1-6.4-.02-9.6ZM183.46,636.05c11.35-.02,22.69-.01,36.96-.01,8.79-.08,20.5-.66,32.21.05.61.04,1.24.04,1.85-.02,4.79-.43,7.39-3.13,7.5-7.93.08-3.45.09-6.91,0-10.35-.11-3.94-1.97-6.02-5.84-7.01-1.83-.46-3.66-.42-5.51-.4-19.23.21-38.47.62-57.7.07-3.82-.11-7.66-.21-11.47-.03-5.79.27-8.46,3.37-8.16,9.13.04.61.1,1.23.21,1.84.24,1.22.19,2.43.04,3.67-1.02,8.28,1.45,10.99,9.91,10.99ZM173.29,587.25c.1,3.05,2.2,5.28,5.2,5.93,1.19.25,2.44.32,3.67.32,13.3-.01,26.61-.09,39.91-.05,9.98.02,19.96-.48,29.93.3.97.07,1.97-.03,2.94-.18,4.77-.72,6.91-3.09,7.03-7.91.08-3.07.04-6.15.02-9.23-.03-5.29-2.53-7.94-7.83-8.27-1.35-.08-2.71-.02-4.06-.02h-32.53c-10.72,0-21.43-.01-32.15,0-1.73,0-3.47-.1-5.17.1-4.15.49-6.93,2.95-6.83,6.9.11,4.05-.26,8.08-.13,12.11ZM255.67,651.8c-1.09-.16-2.21-.14-3.32-.14-11.58-.01-23.17-.01-34.76-.01v.04c-12.07,0-24.15-.03-36.23.02-5.2.03-8.05,2.45-7.89,7.2.12,3.82-.04,7.6-.12,11.41-.1,4.73,2.69,7.52,7.43,7.99.86.09,1.72.07,2.59.07,22.55-.01,45.11-.02,67.66-.05,1.48,0,2.98.08,4.43-.11,3.98-.5,6.31-2.89,6.44-6.83.14-4.31.16-8.63-.01-12.93-.16-3.81-2.44-6.1-6.22-6.66ZM199.73,693.78c-2.95,0-5.9.25-8.86.38v-.16c-3.45,0-6.9-.11-10.34.02-3.94.15-5.89,1.7-6.98,5.41-.63,2.12-1.1,4.28-1.16,6.52-.21,7.21,3.29,11.91,10.42,12.91,6.84.97,13.78.75,20.65.04,3.56-.37,5.45-2.53,5.97-6.05.44-2.92.81-5.85.71-8.83-.25-6.74-3.71-10.24-10.41-10.24ZM138.39,693.99c-6.66-.04-13.32-.01-19.99-.01-7.03,0-14.06-.04-21.09.02-4.18.03-6.12,1.39-7.57,5.23-3.93,10.42,3.48,20.43,13.57,20.15,10.36-.3,20.72-.06,31.09-.08,1.84-.01,3.71-.06,5.53-.32,4.78-.67,7.19-3.36,7.35-8.19.11-3.2.03-6.4-.51-9.58-.92-5.42-2.88-7.19-8.38-7.22ZM97.61,593.26c1.1.1,2.21.15,3.32.15,5.78.01,11.57.01,17.36.01v.09c1.35,0,2.71.02,4.06,0,5.66-.07,11.34.03,16.99-.27,5.35-.29,7.71-2.96,7.91-8.28.14-3.7-.15-7.38-.73-11.03-.52-3.19-2.38-5.04-5.56-5.58-1.08-.19-2.2-.16-3.31-.16-9.97.01-19.95.05-29.92.06-3.45.01-6.9-.13-10.35-.03-4.41.13-6.46,1.96-7.35,6.25-.68,3.28-.63,6.62-.59,9.93.06,5.74,2.47,8.31,8.17,8.86ZM100.3,635.52c6.99,1.09,14.02.27,21.38.54,5.43-.56,11.21-.09,16.99,0,5.76.09,8.7-3.11,8.22-8.85-.23-2.84-.18-5.62.11-8.46.46-4.49-1.8-7.26-6.24-8.06-1.2-.22-2.45-.25-3.67-.24-6.28,0-12.57.06-18.85.07-6.77.02-13.55-.03-20.32.02-5.02.03-6.83,1.42-8.29,6.19-.22.71-.45,1.41-.57,2.14-.61,3.72-.63,7.37,1.47,10.71,2.26,3.61,5.72,5.3,9.77,5.94ZM97.96,678.36c13.68.05,27.36.03,41.04-.05,5.28-.02,7.69-2.54,7.7-7.72.01-3.57,0-7.14.01-10.72.02-5.76-2.25-8.13-7.98-8.17-6.9-.04-13.8-.01-20.7-.01s-13.31-.03-19.97.01c-5.75.03-8.32,2.46-8.18,8.03.08,3.33.07,6.62-.1,9.95-.29,5.51,2.74,8.66,8.18,8.68ZM266.83,329.92c12.2.01,24.41-.02,36.61-.06,1.59-.01,3.22-.08,4.77-.39,3.39-.67,4.71-2.07,4.89-5.5.18-3.19.1-6.4-.02-9.6-.2-5.2-1.85-6.66-7.13-6.65-6.41.02-12.82.01-19.23.01-6.77,0-13.55-.04-20.33.01-5.03.04-6.96,1.93-7.14,6.9-.09,2.58-.13,5.17-.07,7.76.11,5.62,2.03,7.52,7.65,7.52ZM309.54,393.05c-1.19-.26-2.45-.27-3.67-.27-6.54-.02-13.08-.01-19.61-.01-7.04,0-14.07-.04-21.1.02-3.95.03-5.3,1.18-6.07,5.02-.41,2.05-.83,4.1-.75,6.23.19,4.77,2.4,7.54,7.06,8.64,2.29.54,4.62.71,6.98.71,11.22-.03,22.45-.02,33.67-.02.86,0,1.73.05,2.59-.05,3.06-.35,4.49-1.75,4.46-4.79-.04-3.7-.01-7.39.04-11.09.04-2.59-1.07-3.84-3.6-4.39ZM268,371.05c5.92-.65,11.81-.24,17.19-.34,6.79.03,13.07-.5,19.33.4,1.21.17,2.43-.05,3.66-.32,2.6-.58,4.21-2.23,4.64-4.69.65-3.77.7-7.59-.25-11.35-.63-2.55-2.3-3.94-4.86-4.43-1.35-.25-2.68-.39-4.04-.28-11.31.91-22.62.81-33.94.04-1.74-.12-3.43.08-5.13.39-2.54.47-4.13,1.98-4.93,4.43-.9,2.76-.76,5.6-.57,8.41.4,5.79,3.14,8.37,8.9,7.74ZM298.14,433.81c-1.34-.4-2.69-.28-4.05-.28-4.31-.02-8.63-.01-12.94-.01v.08h-5.55c-3.21,0-6.42-.08-9.62.03-4.17.15-5.82,1.5-6.79,5.44-.62,2.52-1.06,5.07-.88,7.69.27,4,2.27,6.7,6.07,7.96,1.64.54,3.32.95,5.07.95,1.61.01,3.21.05,4.81.05,7.28.03,14.56.09,21.83.07,3.89-.01,5.73-1.38,5.86-4.64.17-4.3.13-8.63-.02-12.93-.09-2.42-1.42-3.71-3.79-4.41ZM181.32,371.05c4.32-.59,8.61-.13,12.91-.21,7.27-.14,14.53-.17,21.8-.2,2.33-.01,4.68.38,6.99.19,3.44-.29,4.83-1.83,4.94-5.24.11-3.45.1-6.9.01-10.34-.08-3.06-1.43-4.45-4.47-4.81-.98-.12-1.97-.11-2.96-.11-6.4,0-12.81,0-19.21,0v.08c-6.9,0-13.8-.02-20.7.01-3.52.02-3.83.36-4.58,3.9-.92,4.28-1.02,8.54.07,12.8.81,3.19,2.07,4.36,5.2,3.93ZM224.02,392.92c-1.07-.21-2.21-.18-3.31-.18-6.41-.02-12.83-.01-19.24-.01v.05c-6.78,0-13.56-.02-20.34.01-3.26.02-4.38.84-5.54,3.85-3.34,8.66,1.39,16.36,10.71,16.63,12.08.35,24.17.19,36.25.15,3.57-.02,5.27-1.71,5.4-5.19.13-3.57.12-7.15.01-10.72-.09-2.69-1.34-4.09-3.94-4.59ZM222.06,433.56c-.98-.1-1.97-.06-2.96-.04-4.31.13-8.62.23-12.92.43-7.53.35-15.02-.49-22.54-.52-5.44-.02-7.67,2.08-8.08,7.45-.27,3.58.22,7.14.67,10.68.32,2.54,1.56,3.61,4.13,3.98,1.21.18,2.46.17,3.69.18,5.79.01,11.59,0,17.38,0,1.11,0,2.22.01,3.33,0,5.67-.03,11.34.06,17-.13,4.22-.14,5.88-1.76,6.11-5.84.2-3.44.21-6.91.03-10.34-.19-3.78-2.02-5.48-5.84-5.85ZM221.58,307.63c-.98-.08-1.98-.11-2.95-.01-5.17.54-10.34.16-15.51.16-7.4-.01-14.81-.49-22.17.45-3.8.49-5.24,1.98-5.41,5.77-.16,3.31-.13,6.66.15,9.97.41,4.63,1.97,5.92,6.71,5.95,6.04.04,12.08.01,18.12.01,5.8-.12,11.59-.25,17.38.29,1.44.13,2.95-.13,4.4-.37,2.84-.47,4.8-2.21,5.36-4.96.86-4.25.88-8.58-.37-12.8-.82-2.81-2.85-4.22-5.71-4.46ZM135.86,392.64c-6.03.3-12.06.22-17.86.11-6.64.09-13.04.17-19.44-.03-4.61-.15-6.18,1.52-6.26,6.18-.03,2.1.09,4.19.05,6.28-.11,7.2,1.1,8.41,8.27,8.26,8.62-.19,17.22-.75,25.85-.23,3.68.22,7.39.32,11.08.23,4.21-.1,6.27-2.09,6.81-6.27.3-2.32.42-4.63.14-6.99-.7-5.89-2.69-7.84-8.64-7.54ZM136.35,433.47c-.37,0-.74.01-1.11.02-7.25.3-14.51.19-21.77.15-5.29-.02-10.59-.45-15.85.35-3.81.58-4.81,1.71-5.26,5.44-.39,3.32-.18,6.63-.04,9.94.21,5.01,1.9,6.52,6.86,6.49,6.4-.04,12.8-.01,19.2-.01v-.06c6.77,0,13.54.04,20.3-.01,4.35-.03,5.67-1.47,5.68-5.84.01-2.7-.02-5.41.1-8.11.27-6.47-1.57-8.41-8.11-8.36ZM100.03,371.05c7.15-.78,14.28-.09,21.41-.38,5.41.06,10.82-.22,16.24.29,4.6.43,6.66-1.58,6.73-6.15.04-3.07.07-6.15-.04-9.23-.12-3.46-1.42-4.76-4.89-5.29-.99-.15-1.95-.08-2.94-.05-11.33.41-22.65.72-33.97-.19-1.62-.13-3.19.06-4.77.35-3.04.55-4.75,2.37-5.35,5.34-.59,2.93-.6,5.85-.11,8.81.79,4.8,2.96,7.01,7.69,6.5ZM98.43,330.35c1.59-.11,3.18-.48,4.77-.48,11.2,0,22.4.07,33.6.11,1.11,0,2.23.01,3.32-.17,2.74-.45,4.19-1.92,4.26-4.71.11-4.3.08-8.61-.06-12.91-.08-2.39-1.15-3.4-3.52-4.13-1.21-.37-2.43-.33-3.66-.33-6.4-.01-12.81,0-19.21,0v.02h-20.31c-3.08,0-4.2.44-4.68,2.56-1.18,5.32-1.83,10.69-.26,16.06.89,3.08,2.52,4.19,5.75,3.98ZM672.79,550.81c-2.07-7.24-6.53-12.3-13.75-14.8-4-1.38-8.12-2.01-12.34-2.07-24.67-.35-49.34-.1-74-.28-42.44-.33-84.87-.15-127.31-.18-3.96,0-4.02-.01-4.11-4.04-.15-6.67-.87-13.27-2.37-19.78-.33-1.43-.8-2.84-1.13-4.28-.65-2.77.09-3.59,2.85-3.38,1.72.14,3.45.21,5.17.21,9.75,0,19.49-.04,29.24-.05,55.88,0,111.76,0,167.64.01,3.46,0,6.89-.16,10.33-.62,11.3-1.54,18.48-8.35,20.68-19.57.58-2.94.71-5.87.71-8.83.01-60.92.01-121.83.01-182.75,0-3.58-.16-7.14-.84-10.67-1.85-9.73-7.95-15.64-17.74-17.3-4.29-.73-8.59-.75-12.9-.75-76.61-.01-153.21-.01-229.82,0-2.1,0-4.19.04-6.29.07-3.1.05-6.13.58-9.11,1.4-7.35,2.02-12.19,6.59-14.48,13.93-1.5,4.81-1.57,9.72-1.58,14.64-.16,43.9.25,87.8-.26,131.7-.11,8.87-.02,17.75-.02,26.63,0,4.07,0,3.97-3.91,3.58-3.92-.4-7.86-.61-11.8-.79-5.14-.24-10.23.67-15.32.93-.62-1.49-.35-2.87-.35-4.2-.05-51.17-.08-102.35-.08-153.53,0-3.7-.19-7.39-.55-11.07-1.21-12.32-8.72-20.39-20.83-22.59-3.8-.69-7.61-.69-11.42-.7-76.49-.01-152.97-.01-229.45,0-1.85,0-3.7.05-5.55.06-3.36.01-6.64.57-9.84,1.53-7.8,2.34-12.92,7.43-15.25,15.24-1.24,4.17-1.55,8.46-1.55,12.8.02,59.93.01,119.86.01,179.8,0,3.33.22,6.64.73,9.94,1.66,10.67,7.74,17.31,18.24,19.83,4.59,1.1,9.26,1.29,13.96,1.29,66.61.01,133.22.03,199.84.07,1.57,0,3.19-.32,4.78.34,0,.5.11,1.02-.02,1.46-2.26,7.99-3.36,16.14-3.88,24.4-.35,5.43-.5,5.42-5.82,5.4h-.74c-65.26,0-130.51,0-195.77.01-2.47,0-4.94.03-7.4.21-11.96.87-20.43,7.91-22.95,19.08-.88,3.87-.98,7.81-.98,11.76.02,52.54.01,105.07.01,157.6,0,1.48.04,2.96.05,4.44.03,3.23.59,6.39,1.5,9.46,2.43,8.22,7.83,13.53,16.05,15.91,3.81,1.1,7.73,1.46,11.7,1.46,29.61-.03,59.22-.02,88.82-.02,9.01,0,18.02.16,27.02-.04,5.47-.12,4.93.06,3.25,4.66-5.05,13.89-10.16,27.76-15.12,41.68-1.47,4.11-2.91,8.14-6.83,10.94,3.52,4.67,8.15,5.55,13.11,5.59,5.18.04,10.36.01,15.54.01h303.82c6.91,0,13.82.05,20.72-.03,3.99-.04,7.87-.54,11.05-3.41,1.17-1.06,1.55-1.92.74-3.45-8.85-16.6-14.92-34.31-20.76-52.12-.37-1.15-1.02-2.25-.75-3.83h3.99c38.61,0,77.22-.01,115.84.02,2.97,0,5.9-.22,8.83-.69,10.29-1.65,17.4-8.48,19.54-18.63.72-3.41.82-6.84.82-10.29v-157.97c0-1.73-.05-3.46-.07-5.18-.03-3.48-.59-6.88-1.55-10.2ZM392.33,403.92c.01-37.24.01-74.48,0-111.71,0-2.84.1-5.66.53-8.48,1.11-7.19,4.08-10.17,11.31-10.85,3.19-.31,6.4-.49,9.6-.49,38.24-.04,76.48-.02,114.72-.02s74.01-.02,111.01.01c3.94.01,7.88.29,11.83.4,1.62.05,3.17.45,4.72.85,3.4.9,5.5,3.1,6.43,6.48.99,3.6,1.24,7.3,1.24,10.98.05,60.3.04,120.6.01,180.9,0,3.32-.28,6.63-1.17,9.88-1.26,4.62-4.3,7.34-8.85,8.49-1.92.48-3.85.83-5.85.82-1.97-.01-3.94.05-5.92.05-57.48,0-114.96.01-172.44-.01-10.11-.01-20.23.39-30.33-.19-1.23-.07-2.62-.23-3.66.25-2.24,1.01-3.24.1-4.39-1.71-8.96-14.12-21.04-24.71-36.33-31.52-2.1-.94-2.56-2.13-2.55-4.19.09-16.64.09-33.29.09-49.94ZM188.67,491.3v-.07h-100.64c-3.7,0-7.39-.01-11.04-.83-5.18-1.18-8.48-4.16-9.72-9.44-.74-3.16-.87-6.34-.87-9.55-.01-60.16-.01-120.33,0-180.5,0-1.72.05-3.45.2-5.17.7-7.9,4.79-12.1,12.64-12.88,2.94-.29,5.91-.47,8.86-.47,76.22-.03,152.44-.03,228.67,0,3.81,0,7.62.15,11.38,1.02,5.7,1.32,8.89,4.97,10.05,10.56.5,2.41.79,4.85.79,7.33.01,54,.02,108.01.09,162.01,0,2.11-.53,3.25-2.63,4.12-15.53,6.42-27.66,16.95-36.62,31.08-1.39,2.2-2.87,2.84-5.34,2.84-35.27-.07-70.54-.05-105.82-.05ZM202.8,742.73c-39.84.02-79.68.09-119.53.06-11.62-.01-16.41-4.79-16.8-16.32-.05-1.35-.08-2.71-.08-4.07,0-52.41,0-104.82.02-157.23,0-3.19-.07-6.39.63-9.57,1.33-6.04,5.16-9.32,11.07-10.42,2.91-.54,5.86-.69,8.83-.68,32.2.02,64.4.01,96.6.01h99.55q4.89,0,4.82,4.84c-.23,13.76,1.15,27.31,5.01,40.56,4.19,14.39,12.88,25.62,24.35,34.93,2.88,2.34,5.58,4.86,8.02,7.66,3.44,3.93,5.44,8.37,5.27,13.78-.13,4.17.45,8.35-.13,12.54-.28,2-1.03,2.94-3.16,3.27-11.93,1.85-19.03,9.13-22.25,20.46-1.45,5.09-2.78,10.22-3.88,15.39-1.07,5.01-4.18,7.43-8.96,8.55-9.95,2.35-19.85,4.91-29.76,7.41-7.77,1.95-15.56,3.8-23.26,5.96-6.45,1.81-12.44,4.73-17.8,8.81-4.58,3.49-8.29,7.74-11.05,12.78-.83,1.51-1.64,2.18-3.47,1.55-1.23-.43-2.68-.27-4.04-.27ZM663.73,723.97c0,2.46-.23,4.93-.59,7.36-1,6.64-5.11,10.41-12.25,11.28-1.83.23-3.69.2-5.54.2-40.33.01-80.65-.02-120.98.08-2.84,0-4.32-.83-5.74-3.33-5.1-8.93-12.95-14.68-22.45-18.33-5.79-2.22-11.87-3.24-17.85-4.68-11.62-2.79-23.01-6.43-34.72-8.86-2.17-.45-4.35-.84-6.51-1.31-3.92-.84-6.51-2.8-7.5-7.08-1.24-5.39-2.83-10.71-4.19-16.08-3.06-12.06-10.46-19.57-23.13-21.2-1.76-.22-2.56-.98-2.81-2.75-.86-6.3-.57-12.57.72-18.73,1.12-5.29,4.74-9.11,8.93-12.33,6.98-5.38,13.17-11.52,18.32-18.69,8.86-12.34,13.52-26.17,14.47-41.28.33-5.29.24-10.59-.12-15.89-.05-.86-.13-1.72-.16-2.58-.19-5.26-.09-5.37,5.14-5.37h98.41v.11h96.56c4.2,0,8.36.33,12.46,1.35,4.51,1.12,7.23,3.94,8.31,8.45.87,3.62,1.22,7.31,1.22,11,.03,52.88.03,105.77,0,158.66ZM631.39,570.44c-2.47.19-4.89-.06-7.33-.12-4.28-.1-6.4,1.59-7.17,5.82-.59,3.18-.34,6.38.39,9.53.81,3.43,2.5,4.88,6.08,5.5,2.59.45,5.16.21,7.73-.05,5.32-.54,7.69-2.87,8.31-8.15.11-.98.1-1.97.14-2.95-.05-.99-.04-1.98-.17-2.96-.65-4.89-3.02-7-7.98-6.62ZM632.87,613.22c-1.7-.25-3.42-.34-5.29-.52-1.2.11-2.56.18-3.89.35-4.94.63-6.85,2.75-7.06,7.73-.12,2.85.17,5.66.78,8.42.74,3.33,2.69,4.92,6.06,4.62,2.46-.22,4.85-.11,7.3,0,3.8.19,6.33-1.44,7.55-4.69,1.22-3.29,1.54-6.71.79-10.15-.8-3.65-2.53-5.23-6.24-5.77ZM631.8,696.28c-2.82.06-5.61-.03-8.42-.18-3.23-.18-5.09,1.28-6.02,4.35-.94,3.12-.98,6.34-.54,9.52.68,4.87,2.47,6.48,7.43,7.16,1.36.18,2.7.25,3.7.07,1.94-.17,3.56-.19,5.13-.47,3.2-.56,5.36-2.33,6.02-5.67.6-3.06.59-6.11-.2-9.14-1.02-3.9-3.09-5.73-7.1-5.64ZM622.69,676.08c1.46.21,2.95.2,4.51.3,1.64-.11,3.38-.09,5.08-.35,3.64-.55,6.06-2.49,6.79-6.28.61-3.19.6-6.34-.05-9.52-.76-3.78-3.19-5.73-6.83-6.25-2.92-.41-5.86-.63-8.83-.17-4.98.77-7.25,3.41-6.63,8.35.26,2.1.27,4.1,0,6.2-.56,4.45,1.55,7.08,5.96,7.72ZM581.45,570.83c-1.81-.57-3.65-.48-5.92-.5-.93.05-2.28.09-3.63.19-.61.04-1.21.21-1.81.34-3.41.78-4.98,2.38-5.26,5.73-.27,3.32-.13,6.65.72,9.9.68,2.61,2.31,4.18,5.07,4.71,3.48.67,6.89.14,10.25-.51,3.66-.7,4.94-2.54,4.79-6.29-.1-2.34-.12-4.62.25-6.96.55-3.43-1.1-5.55-4.46-6.61ZM580.01,653.87c-1.82-.31-3.65-.47-5.52-.3-8,.76-9.81,2.72-9.73,11.38-.01,1.66.12,3.99.69,6.28.63,2.51,2.17,4.21,4.65,4.74,3.65.77,7.37.73,10.99-.25,3.29-.9,4.9-2.84,4.7-6.18-.19-3.08-.07-6.13-.06-9.2,0-3.86-1.87-5.81-5.72-6.47ZM578.97,696.09c-3.34-.17-6.66.24-9.93.87-2.74.53-4.38,2.21-4.17,4.83.26,3.2-.12,6.35-.05,9.52.06,3.32,1.9,5.23,5.2,5.63,1.57.19,3.19.03,4.79.03v.07c1.85-.1,3.71-.08,5.53-.33,3.45-.48,5-2.07,5.35-5.54.33-3.32.03-6.67-.53-9.93-.61-3.52-2.52-4.96-6.19-5.15ZM578.3,612.79c-1.98.28-3.88.26-5.86.05-4.16-.45-6.59,1.39-7.4,5.46-.28,1.44-.26,2.94-.37,4.4.16,1.61.21,3.22.49,4.78.8,4.5,2.63,6.13,7.16,6.41,2.72.17,5.41-.02,8.07-.66,2.95-.71,4.67-2.49,5.19-5.52.6-3.46.35-6.9-.42-10.26-.81-3.5-3.28-5.15-6.86-4.66ZM530.27,613.36c-1.08-.2-2.21-.19-3.31-.19-8.25-.01-16.51-.01-24.76-.01v-.05c-8.62,0-17.24-.05-25.86.03-5.16.04-6.73,1.88-5.98,6.84.33,2.22.33,4.39.05,6.61-.65,5.22,1.32,7.17,6.67,7.08,16.61-.28,33.23-.45,49.84.04,1.13.03,2.22-.05,3.29-.36,2.27-.65,3.46-1.82,3.43-4.18-.05-3.93.07-7.86.15-11.79.06-2.35-1.17-3.57-3.52-4.02ZM474.75,590.98c1.09.14,2.21.1,3.32.1,8.01.01,16.02,0,24.03,0s16.26.01,24.39,0c1.11,0,2.24.03,3.32-.16,2.6-.45,3.87-1.87,3.92-4.54.07-3.69.07-7.39-.06-11.08-.1-2.85-1.42-4.25-4.22-4.74-.96-.17-1.96-.13-2.94-.13-14.42.05-28.83.13-43.24.16-2.46.01-4.93-.22-7.39-.14-3.75.12-5.67,1.84-5.52,5.44.13,3.33.18,6.6-.12,9.93-.28,3.16,1.35,4.78,4.51,5.16ZM526.57,653.73c-3.81.03-7.63.29-11.44.29-11.69,0-23.39-.07-35.08-.09-1.84-.01-3.68-.01-5.5.47-1.87.48-3.22,1.58-3.45,3.42-.57,4.49-1.35,9-.47,13.56.51,2.64,2.2,4.07,4.69,4.58,1.19.25,2.45.21,3.67.21,7.63.02,15.26.01,22.89.01v-.27c1.36,0,2.71-.02,4.07.01,6.76.11,13.53.34,20.3.34,5.14-.01,7.19-2.05,7.39-7.11.12-2.95.11-5.91-.06-8.86-.27-4.8-2.21-6.59-7.01-6.56ZM266.83,329.92c12.2.01,24.41-.02,36.61-.06,1.59-.01,3.22-.08,4.77-.39,3.39-.67,4.71-2.07,4.89-5.5.18-3.19.1-6.4-.02-9.6-.2-5.2-1.85-6.66-7.13-6.65-6.41.02-12.82.01-19.23.01-6.77,0-13.55-.04-20.33.01-5.03.04-6.96,1.93-7.14,6.9-.09,2.58-.13,5.17-.07,7.76.11,5.62,2.03,7.52,7.65,7.52ZM265.4,412.68c2.29.54,4.62.71,6.98.71,11.22-.03,22.45-.02,33.67-.02.86,0,1.73.05,2.59-.05,3.06-.35,4.49-1.75,4.46-4.79-.04-3.7-.01-7.39.04-11.09.04-2.59-1.07-3.84-3.6-4.39-1.19-.26-2.45-.27-3.67-.27-6.54-.02-13.08-.01-19.61-.01-7.04,0-14.07-.04-21.1.02-3.95.03-5.3,1.18-6.07,5.02-.41,2.05-.83,4.1-.75,6.23.19,4.77,2.4,7.54,7.06,8.64ZM268,371.05c5.92-.65,11.81-.24,17.19-.34,6.79.03,13.07-.5,19.33.4,1.21.17,2.43-.05,3.66-.32,2.6-.58,4.21-2.23,4.64-4.69.65-3.77.7-7.59-.25-11.35-.63-2.55-2.3-3.94-4.86-4.43-1.35-.25-2.68-.39-4.04-.28-11.31.91-22.62.81-33.94.04-1.74-.12-3.43.08-5.13.39-2.54.47-4.13,1.98-4.93,4.43-.9,2.76-.76,5.6-.57,8.41.4,5.79,3.14,8.37,8.9,7.74ZM301.95,451.15c.17-4.3.13-8.63-.02-12.93-.09-2.42-1.42-3.71-3.79-4.41-1.34-.4-2.69-.28-4.05-.28-4.31-.02-8.63-.01-12.94-.01v.08h-5.55c-3.21,0-6.42-.08-9.62.03-4.17.15-5.82,1.5-6.79,5.44-.62,2.52-1.06,5.07-.88,7.69.27,4,2.27,6.7,6.07,7.96,1.64.54,3.32.95,5.07.95,1.61.01,3.21.05,4.81.05,7.28.03,14.56.09,21.83.07,3.89-.01,5.73-1.38,5.86-4.64ZM256.14,610.78c-1.83-.46-3.66-.42-5.51-.4-19.23.21-38.47.62-57.7.07-3.82-.11-7.66-.21-11.47-.03-5.79.27-8.46,3.37-8.16,9.13.04.61.1,1.23.21,1.84.24,1.22.19,2.43.04,3.67-1.02,8.28,1.45,10.99,9.91,10.99,11.35-.02,22.69-.01,36.96-.01,8.79-.08,20.5-.66,32.21.05.61.04,1.24.04,1.85-.02,4.79-.43,7.39-3.13,7.5-7.93.08-3.45.09-6.91,0-10.35-.11-3.94-1.97-6.02-5.84-7.01ZM173.29,587.25c.1,3.05,2.2,5.28,5.2,5.93,1.19.25,2.44.32,3.67.32,13.3-.01,26.61-.09,39.91-.05,9.98.02,19.96-.48,29.93.3.97.07,1.97-.03,2.94-.18,4.77-.72,6.91-3.09,7.03-7.91.08-3.07.04-6.15.02-9.23-.03-5.29-2.53-7.94-7.83-8.27-1.35-.08-2.71-.02-4.06-.02h-32.53c-10.72,0-21.43-.01-32.15,0-1.73,0-3.47-.1-5.17.1-4.15.49-6.93,2.95-6.83,6.9.11,4.05-.26,8.08-.13,12.11ZM255.67,651.8c-1.09-.16-2.21-.14-3.32-.14-11.58-.01-23.17-.01-34.76-.01v.04c-12.07,0-24.15-.03-36.23.02-5.2.03-8.05,2.45-7.89,7.2.12,3.82-.04,7.6-.12,11.41-.1,4.73,2.69,7.52,7.43,7.99.86.09,1.72.07,2.59.07,22.55-.01,45.11-.02,67.66-.05,1.48,0,2.98.08,4.43-.11,3.98-.5,6.31-2.89,6.44-6.83.14-4.31.16-8.63-.01-12.93-.16-3.81-2.44-6.1-6.22-6.66ZM181.32,371.05c4.32-.59,8.61-.13,12.91-.21,7.27-.14,14.53-.17,21.8-.2,2.33-.01,4.68.38,6.99.19,3.44-.29,4.83-1.83,4.94-5.24.11-3.45.1-6.9.01-10.34-.08-3.06-1.43-4.45-4.47-4.81-.98-.12-1.97-.11-2.96-.11-6.4,0-12.81,0-19.21,0v.08c-6.9,0-13.8-.02-20.7.01-3.52.02-3.83.36-4.58,3.9-.92,4.28-1.02,8.54.07,12.8.81,3.19,2.07,4.36,5.2,3.93ZM224.02,392.92c-1.07-.21-2.21-.18-3.31-.18-6.41-.02-12.83-.01-19.24-.01v.05c-6.78,0-13.56-.02-20.34.01-3.26.02-4.38.84-5.54,3.85-3.34,8.66,1.39,16.36,10.71,16.63,12.08.35,24.17.19,36.25.15,3.57-.02,5.27-1.71,5.4-5.19.13-3.57.12-7.15.01-10.72-.09-2.69-1.34-4.09-3.94-4.59ZM222.06,433.56c-.98-.1-1.97-.06-2.96-.04-4.31.13-8.62.23-12.92.43-7.53.35-15.02-.49-22.54-.52-5.44-.02-7.67,2.08-8.08,7.45-.27,3.58.22,7.14.67,10.68.32,2.54,1.56,3.61,4.13,3.98,1.21.18,2.46.17,3.69.18,5.79.01,11.59,0,17.38,0,1.11,0,2.22.01,3.33,0,5.67-.03,11.34.06,17-.13,4.22-.14,5.88-1.76,6.11-5.84.2-3.44.21-6.91.03-10.34-.19-3.78-2.02-5.48-5.84-5.85ZM221.58,307.63c-.98-.08-1.98-.11-2.95-.01-5.17.54-10.34.16-15.51.16-7.4-.01-14.81-.49-22.17.45-3.8.49-5.24,1.98-5.41,5.77-.16,3.31-.13,6.66.15,9.97.41,4.63,1.97,5.92,6.71,5.95,6.04.04,12.08.01,18.12.01,5.8-.12,11.59-.25,17.38.29,1.44.13,2.95-.13,4.4-.37,2.84-.47,4.8-2.21,5.36-4.96.86-4.25.88-8.58-.37-12.8-.82-2.81-2.85-4.22-5.71-4.46ZM209.43,712.85c.44-2.92.81-5.85.71-8.83-.25-6.74-3.71-10.24-10.41-10.24-2.95,0-5.9.25-8.86.38v-.16c-3.45,0-6.9-.11-10.34.02-3.94.15-5.89,1.7-6.98,5.41-.63,2.12-1.1,4.28-1.16,6.52-.21,7.21,3.29,11.91,10.42,12.91,6.84.97,13.78.75,20.65.04,3.56-.37,5.45-2.53,5.97-6.05ZM138.39,693.99c-6.66-.04-13.32-.01-19.99-.01-7.03,0-14.06-.04-21.09.02-4.18.03-6.12,1.39-7.57,5.23-3.93,10.42,3.48,20.43,13.57,20.15,10.36-.3,20.72-.06,31.09-.08,1.84-.01,3.71-.06,5.53-.32,4.78-.67,7.19-3.36,7.35-8.19.11-3.2.03-6.4-.51-9.58-.92-5.42-2.88-7.19-8.38-7.22ZM97.61,593.26c1.1.1,2.21.15,3.32.15,5.78.01,11.57.01,17.36.01v.09c1.35,0,2.71.02,4.06,0,5.66-.07,11.34.03,16.99-.27,5.35-.29,7.71-2.96,7.91-8.28.14-3.7-.15-7.38-.73-11.03-.52-3.19-2.38-5.04-5.56-5.58-1.08-.19-2.2-.16-3.31-.16-9.97.01-19.95.05-29.92.06-3.45.01-6.9-.13-10.35-.03-4.41.13-6.46,1.96-7.35,6.25-.68,3.28-.63,6.62-.59,9.93.06,5.74,2.47,8.31,8.17,8.86ZM100.3,635.52c6.99,1.09,14.02.27,21.38.54,5.43-.56,11.21-.09,16.99,0,5.76.09,8.7-3.11,8.22-8.85-.23-2.84-.18-5.62.11-8.46.46-4.49-1.8-7.26-6.24-8.06-1.2-.22-2.45-.25-3.67-.24-6.28,0-12.57.06-18.85.07-6.77.02-13.55-.03-20.32.02-5.02.03-6.83,1.42-8.29,6.19-.22.71-.45,1.41-.57,2.14-.61,3.72-.63,7.37,1.47,10.71,2.26,3.61,5.72,5.3,9.77,5.94ZM97.96,678.36c13.68.05,27.36.03,41.04-.05,5.28-.02,7.69-2.54,7.7-7.72.01-3.57,0-7.14.01-10.72.02-5.76-2.25-8.13-7.98-8.17-6.9-.04-13.8-.01-20.7-.01s-13.31-.03-19.97.01c-5.75.03-8.32,2.46-8.18,8.03.08,3.33.07,6.62-.1,9.95-.29,5.51,2.74,8.66,8.18,8.68ZM135.86,392.64c-6.03.3-12.06.22-17.86.11-6.64.09-13.04.17-19.44-.03-4.61-.15-6.18,1.52-6.26,6.18-.03,2.1.09,4.19.05,6.28-.11,7.2,1.1,8.41,8.27,8.26,8.62-.19,17.22-.75,25.85-.23,3.68.22,7.39.32,11.08.23,4.21-.1,6.27-2.09,6.81-6.27.3-2.32.42-4.63.14-6.99-.7-5.89-2.69-7.84-8.64-7.54ZM136.35,433.47c-.37,0-.74.01-1.11.02-7.25.3-14.51.19-21.77.15-5.29-.02-10.59-.45-15.85.35-3.81.58-4.81,1.71-5.26,5.44-.39,3.32-.18,6.63-.04,9.94.21,5.01,1.9,6.52,6.86,6.49,6.4-.04,12.8-.01,19.2-.01v-.06c6.77,0,13.54.04,20.3-.01,4.35-.03,5.67-1.47,5.68-5.84.01-2.7-.02-5.41.1-8.11.27-6.47-1.57-8.41-8.11-8.36ZM100.03,371.05c7.15-.78,14.28-.09,21.41-.38,5.41.06,10.82-.22,16.24.29,4.6.43,6.66-1.58,6.73-6.15.04-3.07.07-6.15-.04-9.23-.12-3.46-1.42-4.76-4.89-5.29-.99-.15-1.95-.08-2.94-.05-11.33.41-22.65.72-33.97-.19-1.62-.13-3.19.06-4.77.35-3.04.55-4.75,2.37-5.35,5.34-.59,2.93-.6,5.85-.11,8.81.79,4.8,2.96,7.01,7.69,6.5ZM98.43,330.35c1.59-.11,3.18-.48,4.77-.48,11.2,0,22.4.07,33.6.11,1.11,0,2.23.01,3.32-.17,2.74-.45,4.19-1.92,4.26-4.71.11-4.3.08-8.61-.06-12.91-.08-2.39-1.15-3.4-3.52-4.13-1.21-.37-2.43-.33-3.66-.33-6.4-.01-12.81,0-19.21,0v.02h-20.31c-3.08,0-4.2.44-4.68,2.56-1.18,5.32-1.83,10.69-.26,16.06.89,3.08,2.52,4.19,5.75,3.98ZM144.32,312.19c-.08-2.39-1.15-3.4-3.52-4.13-1.21-.37-2.43-.33-3.66-.33-6.4-.01-12.81,0-19.21,0v.02h-20.31c-3.08,0-4.2.44-4.68,2.56-1.18,5.32-1.83,10.69-.26,16.06.89,3.08,2.52,4.19,5.75,3.98,1.59-.11,3.18-.48,4.77-.48,11.2,0,22.4.07,33.6.11,1.11,0,2.23.01,3.32-.17,2.74-.45,4.19-1.92,4.26-4.71.11-4.3.08-8.61-.06-12.91ZM144.37,355.58c-.12-3.46-1.42-4.76-4.89-5.29-.99-.15-1.95-.08-2.94-.05-11.33.41-22.65.72-33.97-.19-1.62-.13-3.19.06-4.77.35-3.04.55-4.75,2.37-5.35,5.34-.59,2.93-.6,5.85-.11,8.81.79,4.8,2.96,7.01,7.69,6.5,7.15-.78,14.28-.09,21.41-.38,5.41.06,10.82-.22,16.24.29,4.6.43,6.66-1.58,6.73-6.15.04-3.07.07-6.15-.04-9.23ZM136.35,433.47c-.37,0-.74.01-1.11.02-7.25.3-14.51.19-21.77.15-5.29-.02-10.59-.45-15.85.35-3.81.58-4.81,1.71-5.26,5.44-.39,3.32-.18,6.63-.04,9.94.21,5.01,1.9,6.52,6.86,6.49,6.4-.04,12.8-.01,19.2-.01v-.06c6.77,0,13.54.04,20.3-.01,4.35-.03,5.67-1.47,5.68-5.84.01-2.7-.02-5.41.1-8.11.27-6.47-1.57-8.41-8.11-8.36ZM144.5,400.18c-.7-5.89-2.69-7.84-8.64-7.54-6.03.3-12.06.22-17.86.11-6.64.09-13.04.17-19.44-.03-4.61-.15-6.18,1.52-6.26,6.18-.03,2.1.09,4.19.05,6.28-.11,7.2,1.1,8.41,8.27,8.26,8.62-.19,17.22-.75,25.85-.23,3.68.22,7.39.32,11.08.23,4.21-.1,6.27-2.09,6.81-6.27.3-2.32.42-4.63.14-6.99ZM227.29,312.09c-.82-2.81-2.85-4.22-5.71-4.46-.98-.08-1.98-.11-2.95-.01-5.17.54-10.34.16-15.51.16-7.4-.01-14.81-.49-22.17.45-3.8.49-5.24,1.98-5.41,5.77-.16,3.31-.13,6.66.15,9.97.41,4.63,1.97,5.92,6.71,5.95,6.04.04,12.08.01,18.12.01,5.8-.12,11.59-.25,17.38.29,1.44.13,2.95-.13,4.4-.37,2.84-.47,4.8-2.21,5.36-4.96.86-4.25.88-8.58-.37-12.8ZM227.9,439.41c-.19-3.78-2.02-5.48-5.84-5.85-.98-.1-1.97-.06-2.96-.04-4.31.13-8.62.23-12.92.43-7.53.35-15.02-.49-22.54-.52-5.44-.02-7.67,2.08-8.08,7.45-.27,3.58.22,7.14.67,10.68.32,2.54,1.56,3.61,4.13,3.98,1.21.18,2.46.17,3.69.18,5.79.01,11.59,0,17.38,0,1.11,0,2.22.01,3.33,0,5.67-.03,11.34.06,17-.13,4.22-.14,5.88-1.76,6.11-5.84.2-3.44.21-6.91.03-10.34ZM227.96,397.51c-.09-2.69-1.34-4.09-3.94-4.59-1.07-.21-2.21-.18-3.31-.18-6.41-.02-12.83-.01-19.24-.01v.05c-6.78,0-13.56-.02-20.34.01-3.26.02-4.38.84-5.54,3.85-3.34,8.66,1.39,16.36,10.71,16.63,12.08.35,24.17.19,36.25.15,3.57-.02,5.27-1.71,5.4-5.19.13-3.57.12-7.15.01-10.72ZM227.97,355.25c-.08-3.06-1.43-4.45-4.47-4.81-.98-.12-1.97-.11-2.96-.11-6.4,0-12.81,0-19.21,0v.08c-6.9,0-13.8-.02-20.7.01-3.52.02-3.83.36-4.58,3.9-.92,4.28-1.02,8.54.07,12.8.81,3.19,2.07,4.36,5.2,3.93,4.32-.59,8.61-.13,12.91-.21,7.27-.14,14.53-.17,21.8-.2,2.33-.01,4.68.38,6.99.19,3.44-.29,4.83-1.83,4.94-5.24.11-3.45.1-6.9.01-10.34ZM301.93,438.22c-.09-2.42-1.42-3.71-3.79-4.41-1.34-.4-2.69-.28-4.05-.28-4.31-.02-8.63-.01-12.94-.01v.08h-5.55c-3.21,0-6.42-.08-9.62.03-4.17.15-5.82,1.5-6.79,5.44-.62,2.52-1.06,5.07-.88,7.69.27,4,2.27,6.7,6.07,7.96,1.64.54,3.32.95,5.07.95,1.61.01,3.21.05,4.81.05,7.28.03,14.56.09,21.83.07,3.89-.01,5.73-1.38,5.86-4.64.17-4.3.13-8.63-.02-12.93ZM312.57,354.75c-.63-2.55-2.3-3.94-4.86-4.43-1.35-.25-2.68-.39-4.04-.28-11.31.91-22.62.81-33.94.04-1.74-.12-3.43.08-5.13.39-2.54.47-4.13,1.98-4.93,4.43-.9,2.76-.76,5.6-.57,8.41.4,5.79,3.14,8.37,8.9,7.74,5.92-.65,11.81-.24,17.19-.34,6.79.03,13.07-.5,19.33.4,1.21.17,2.43-.05,3.66-.32,2.6-.58,4.21-2.23,4.64-4.69.65-3.77.7-7.59-.25-11.35ZM313.14,397.44c.04-2.59-1.07-3.84-3.6-4.39-1.19-.26-2.45-.27-3.67-.27-6.54-.02-13.08-.01-19.61-.01-7.04,0-14.07-.04-21.1.02-3.95.03-5.3,1.18-6.07,5.02-.41,2.05-.83,4.1-.75,6.23.19,4.77,2.4,7.54,7.06,8.64,2.29.54,4.62.71,6.98.71,11.22-.03,22.45-.02,33.67-.02.86,0,1.73.05,2.59-.05,3.06-.35,4.49-1.75,4.46-4.79-.04-3.7-.01-7.39.04-11.09ZM313.08,314.37c-.2-5.2-1.85-6.66-7.13-6.65-6.41.02-12.82.01-19.23.01-6.77,0-13.55-.04-20.33.01-5.03.04-6.96,1.93-7.14,6.9-.09,2.58-.13,5.17-.07,7.76.11,5.62,2.03,7.52,7.65,7.52,12.2.01,24.41-.02,36.61-.06,1.59-.01,3.22-.08,4.77-.39,3.39-.67,4.71-2.07,4.89-5.5.18-3.19.1-6.4-.02-9.6ZM313.08,314.37c-.2-5.2-1.85-6.66-7.13-6.65-6.41.02-12.82.01-19.23.01-6.77,0-13.55-.04-20.33.01-5.03.04-6.96,1.93-7.14,6.9-.09,2.58-.13,5.17-.07,7.76.11,5.62,2.03,7.52,7.65,7.52,12.2.01,24.41-.02,36.61-.06,1.59-.01,3.22-.08,4.77-.39,3.39-.67,4.71-2.07,4.89-5.5.18-3.19.1-6.4-.02-9.6ZM313.14,397.44c.04-2.59-1.07-3.84-3.6-4.39-1.19-.26-2.45-.27-3.67-.27-6.54-.02-13.08-.01-19.61-.01-7.04,0-14.07-.04-21.1.02-3.95.03-5.3,1.18-6.07,5.02-.41,2.05-.83,4.1-.75,6.23.19,4.77,2.4,7.54,7.06,8.64,2.29.54,4.62.71,6.98.71,11.22-.03,22.45-.02,33.67-.02.86,0,1.73.05,2.59-.05,3.06-.35,4.49-1.75,4.46-4.79-.04-3.7-.01-7.39.04-11.09ZM312.57,354.75c-.63-2.55-2.3-3.94-4.86-4.43-1.35-.25-2.68-.39-4.04-.28-11.31.91-22.62.81-33.94.04-1.74-.12-3.43.08-5.13.39-2.54.47-4.13,1.98-4.93,4.43-.9,2.76-.76,5.6-.57,8.41.4,5.79,3.14,8.37,8.9,7.74,5.92-.65,11.81-.24,17.19-.34,6.79.03,13.07-.5,19.33.4,1.21.17,2.43-.05,3.66-.32,2.6-.58,4.21-2.23,4.64-4.69.65-3.77.7-7.59-.25-11.35ZM301.93,438.22c-.09-2.42-1.42-3.71-3.79-4.41-1.34-.4-2.69-.28-4.05-.28-4.31-.02-8.63-.01-12.94-.01v.08h-5.55c-3.21,0-6.42-.08-9.62.03-4.17.15-5.82,1.5-6.79,5.44-.62,2.52-1.06,5.07-.88,7.69.27,4,2.27,6.7,6.07,7.96,1.64.54,3.32.95,5.07.95,1.61.01,3.21.05,4.81.05,7.28.03,14.56.09,21.83.07,3.89-.01,5.73-1.38,5.86-4.64.17-4.3.13-8.63-.02-12.93ZM227.97,355.25c-.08-3.06-1.43-4.45-4.47-4.81-.98-.12-1.97-.11-2.96-.11-6.4,0-12.81,0-19.21,0v.08c-6.9,0-13.8-.02-20.7.01-3.52.02-3.83.36-4.58,3.9-.92,4.28-1.02,8.54.07,12.8.81,3.19,2.07,4.36,5.2,3.93,4.32-.59,8.61-.13,12.91-.21,7.27-.14,14.53-.17,21.8-.2,2.33-.01,4.68.38,6.99.19,3.44-.29,4.83-1.83,4.94-5.24.11-3.45.1-6.9.01-10.34ZM227.96,397.51c-.09-2.69-1.34-4.09-3.94-4.59-1.07-.21-2.21-.18-3.31-.18-6.41-.02-12.83-.01-19.24-.01v.05c-6.78,0-13.56-.02-20.34.01-3.26.02-4.38.84-5.54,3.85-3.34,8.66,1.39,16.36,10.71,16.63,12.08.35,24.17.19,36.25.15,3.57-.02,5.27-1.71,5.4-5.19.13-3.57.12-7.15.01-10.72ZM227.9,439.41c-.19-3.78-2.02-5.48-5.84-5.85-.98-.1-1.97-.06-2.96-.04-4.31.13-8.62.23-12.92.43-7.53.35-15.02-.49-22.54-.52-5.44-.02-7.67,2.08-8.08,7.45-.27,3.58.22,7.14.67,10.68.32,2.54,1.56,3.61,4.13,3.98,1.21.18,2.46.17,3.69.18,5.79.01,11.59,0,17.38,0,1.11,0,2.22.01,3.33,0,5.67-.03,11.34.06,17-.13,4.22-.14,5.88-1.76,6.11-5.84.2-3.44.21-6.91.03-10.34ZM227.29,312.09c-.82-2.81-2.85-4.22-5.71-4.46-.98-.08-1.98-.11-2.95-.01-5.17.54-10.34.16-15.51.16-7.4-.01-14.81-.49-22.17.45-3.8.49-5.24,1.98-5.41,5.77-.16,3.31-.13,6.66.15,9.97.41,4.63,1.97,5.92,6.71,5.95,6.04.04,12.08.01,18.12.01,5.8-.12,11.59-.25,17.38.29,1.44.13,2.95-.13,4.4-.37,2.84-.47,4.8-2.21,5.36-4.96.86-4.25.88-8.58-.37-12.8ZM144.5,400.18c-.7-5.89-2.69-7.84-8.64-7.54-6.03.3-12.06.22-17.86.11-6.64.09-13.04.17-19.44-.03-4.61-.15-6.18,1.52-6.26,6.18-.03,2.1.09,4.19.05,6.28-.11,7.2,1.1,8.41,8.27,8.26,8.62-.19,17.22-.75,25.85-.23,3.68.22,7.39.32,11.08.23,4.21-.1,6.27-2.09,6.81-6.27.3-2.32.42-4.63.14-6.99ZM136.35,433.47c-.37,0-.74.01-1.11.02-7.25.3-14.51.19-21.77.15-5.29-.02-10.59-.45-15.85.35-3.81.58-4.81,1.71-5.26,5.44-.39,3.32-.18,6.63-.04,9.94.21,5.01,1.9,6.52,6.86,6.49,6.4-.04,12.8-.01,19.2-.01v-.06c6.77,0,13.54.04,20.3-.01,4.35-.03,5.67-1.47,5.68-5.84.01-2.7-.02-5.41.1-8.11.27-6.47-1.57-8.41-8.11-8.36ZM144.37,355.58c-.12-3.46-1.42-4.76-4.89-5.29-.99-.15-1.95-.08-2.94-.05-11.33.41-22.65.72-33.97-.19-1.62-.13-3.19.06-4.77.35-3.04.55-4.75,2.37-5.35,5.34-.59,2.93-.6,5.85-.11,8.81.79,4.8,2.96,7.01,7.69,6.5,7.15-.78,14.28-.09,21.41-.38,5.41.06,10.82-.22,16.24.29,4.6.43,6.66-1.58,6.73-6.15.04-3.07.07-6.15-.04-9.23ZM144.32,312.19c-.08-2.39-1.15-3.4-3.52-4.13-1.21-.37-2.43-.33-3.66-.33-6.4-.01-12.81,0-19.21,0v.02h-20.31c-3.08,0-4.2.44-4.68,2.56-1.18,5.32-1.83,10.69-.26,16.06.89,3.08,2.52,4.19,5.75,3.98,1.59-.11,3.18-.48,4.77-.48,11.2,0,22.4.07,33.6.11,1.11,0,2.23.01,3.32-.17,2.74-.45,4.19-1.92,4.26-4.71.11-4.3.08-8.61-.06-12.91Z"/>
  <path class="cls-1" d="M893.59,369.23c0,4.87.01,8.9,0,12.92,0,1.36-.12,2.71-.16,4.07-.17,5.7,1.52,7.81,7.18,8.72,7.3,1.19,14.53,2.69,21.63,4.8,55.7,16.57,97.48,62.27,108.98,119.21,16.84,83.35-37.19,166.54-120.32,183.49-56.75,11.57-106.31-3.78-147.18-44.94-22.14-22.3-35.36-49.55-40.69-80.58-2.41-14.06-3.06-28.21-1.87-42.37,2.43-28.87,12.87-54.73,30.24-77.84,1.78-2.36,3.62-4.68,5.51-6.96,1.81-2.18,3.55-4.38,4.99-6.86,2.18-3.77,4.21-4.12,7.75-1.68,4.37,3.01,8.7,6.07,12.38,9.94,2.93,3.07,5.19,6.54,6.77,10.49.76,1.89.59,3.33-.78,5-6.87,8.43-12.97,17.39-18.14,26.96-10.63,19.69-15.54,40.73-13.97,63.03,2.1,29.89,13.67,55.79,34.39,77.45,17.29,18.08,38.17,30.14,62.93,34.19,44.8,7.33,83.97-3.78,115.1-37.96,16.11-17.69,25.36-38.85,28.86-62.52,3.57-24.16.81-47.53-9.75-69.61-17.07-35.69-45.49-57.43-83.75-66.67-.95-.23-1.95-.34-2.93-.35-2.55-.04-3.67.73-4.26,3.16-.44,1.79-.63,3.64-.85,5.47-.15,1.22-.08,2.47-.23,3.69-.28,2.24-.73,4.45-3.16,5.45-2.56,1.06-4.54-.12-6.36-1.75-5.34-4.77-11.07-9.06-16.73-13.43-7.71-5.96-14.68-12.8-22.16-19.04-4.07-3.4-3.91-6.19.05-9.88,4.32-4.03,8.5-8.25,14.33-10.24,1.22-.42,2.2-1.56,3.26-2.4,8.77-7,17.53-14.02,26.3-21.02.57-.46,1.18-.86,2.64-1.93Z"/>
  <path class="cls-1" d="M893.52,549.91c.1,2.13-.25,4.56-1.16,6.89-1.79,4.59-5.04,7.64-9.98,8.34-5.36.76-9.77,3.12-13.58,6.86-7.21,7.08-14.53,14.05-21.49,21.38-.34.36-.65.74-.99,1.1-4.04,4.28-5.42,4.34-9.68.22-1.86-1.8-3.72-3.62-5.36-5.61-2.05-2.49-2.02-4.02-.19-6.67,1.62-2.35,3.74-4.25,5.73-6.26,5.99-6.04,12.02-12.03,18.03-18.05.61-.61,1.23-1.21,1.82-1.84,6.31-6.79,7.35-13.41,3.05-21.64-4.1-7.86-8.44-15.6-12.7-23.37-5.26-9.62-10.55-19.21-15.82-28.83-3.59-6.57-3.24-7.58,3.58-10.75,1.45-.67,2.86-1.44,4.3-2.13,1.96-.94,3.66-.39,4.97,1.16.86,1.02,1.57,2.21,2.17,3.41,8.75,17.52,18.5,34.51,27.65,51.82,2.24,4.23,5.33,7.16,9.99,8.71,6.69,2.23,9.66,7.11,9.63,15.26Z"/>
  <path class="cls-2" d="M416.73,312.14c.07-2.71.18-5.4.08-8.11-.13-3.6,1.36-5.25,4.93-5.58,2.07-.19,4.17.08,6.26.07,15.64-.09,31.27.28,46.91-.2,5.29-.16,7.15,1.83,6.73,7.17-.19,2.35.16,4.67.15,7-.03,4.3-1.61,6.06-5.96,6.23-4.92.19-9.85.23-14.78.29-3.93.04-7.87.01-11.81.01v-.26c-8.74,0-17.48.07-26.22-.03-4.82-.06-6.41-1.82-6.29-6.59Z"/>
  <path class="cls-2" d="M513.27,454.68c.05,1.35-.06,2.71-.18,4.05-.42,5.18-2.18,6.87-7.25,6.6-4.44-.23-8.87-.22-13.92-.09-4.07-.13-8.75-.04-13.43.13-5.13.2-7.17-1.6-8.08-6.63-.54-2.94-.43-5.88.26-8.8.85-3.62,2.67-5.18,6.46-5.41,1.59-.09,3.21-.06,4.8.09,6.77.65,13.53.51,20.31.05,8.81-.61,10.64,1.16,11.03,10.01Z"/>
  <path class="cls-2" d="M575.99,451.25c.06,2.95.52,5.89.13,8.84-.51,3.79-1.98,5.15-5.82,5.19-4.92.05-9.84.01-14.09.01-5.22-.22-9.77-.09-14.32.09-5.77.24-8.01-1.84-8.68-7.63-.33-2.85.05-5.67.62-8.44.62-3.02,2.56-4.61,5.76-4.73,2.57-.11,5.17,0,7.74.21,6.28.53,12.54.06,18.81-.14.99-.03,1.97-.07,2.96-.04,4.86.12,6.79,1.87,6.89,6.64Z"/>
  <path class="cls-2" d="M639.28,452.22c.08,2.21.02,4.44-.16,6.64-.37,4.75-2.05,6.31-6.79,6.36-5.18.05-10.36.06-15.53-.01-3.7-.05-7.39-.17-11.08.24-1.09.13-2.22.07-3.32-.07-3.24-.4-5.07-2.09-5.8-5.31-.8-3.56-.46-7.13.2-10.64.62-3.31,2.5-4.81,6.01-4.86,3.57-.05,7.14.19,10.71.31,1.48.05,2.95.14,4.43.21v-.48c4.44,0,8.87.01,13.3,0,5.82-.02,7.83,1.83,8.03,7.61Z"/>
  <path class="cls-2" d="M643.56,338.8c-1.39,1.4-2.62,2.95-4.01,4.35-6.34,6.38-12.73,12.73-19.08,19.1-9.05,9.09-18.08,18.19-27.13,27.28-1.13,1.13-2.26,2.27-3.47,3.32-1.14.98-2.47,1.63-3.53,1.6-2.52.01-4.07-1.02-5.34-2.4-6.42-6.99-13.77-13.08-19.99-20.27-.24-.28-.48-.56-.73-.83-4.42-4.91-6.87-4.99-11.61-.22-13.29,13.39-26.55,26.81-39.84,40.2-1.21,1.22-2.47,2.43-3.87,3.41-2.48,1.75-4.3,1.67-6.8-.1-.8-.56-1.56-1.22-2.19-1.97-6.54-7.73-14.35-14.24-21.22-21.65-3.14-3.39-5.55-3.43-8.83-.07-11.37,11.65-23.35,22.69-34.4,34.65-5.86,6.34-8.55,5.21-12.68-.12-.89-1.16-2.1-2.08-3.2-3.05-4.52-3.99-4.62-6.8-.25-11.1,3.42-3.37,6.96-6.63,10.41-9.98,13.01-12.62,25.73-25.53,38.34-38.55,4.88-5.05,7.69-5.13,12.45.13,6.62,7.31,14.18,13.71,20.81,21.03,3.09,3.42,5.35,3.35,8.79-.01,5.12-4.99,10.15-10.08,15.19-15.16,8.94-9.01,17.88-18.03,26.78-27.08,5.18-5.27,7.34-5.22,12.44.07,6.5,6.75,13.11,13.39,19.68,20.06,4.33,4.4,7.23,4.43,11.5-.18,6.11-6.61,12.46-12.99,18.88-19.3,4.75-4.67,9.44-9.39,14.23-14.02,5.33-5.16,6.88-5.15,12.17.11,2.27,2.26,4.31,4.75,6.56,7.02,1.37,1.38,1.2,2.46-.06,3.73Z"/>
  <path class="cls-2" d="M92.68,326.37c-1.57-5.37-.92-10.74.26-16.06.48-2.12,1.6-2.56,4.68-2.56h20.31v-.02c6.4,0,12.81-.01,19.21,0,1.23,0,2.45-.04,3.66.33,2.37.73,3.44,1.74,3.52,4.13.14,4.3.17,8.61.06,12.91-.07,2.79-1.52,4.26-4.26,4.71-1.09.18-2.21.17-3.32.17-11.2-.04-22.4-.11-33.6-.11-1.59,0-3.18.37-4.77.48-3.23.21-4.86-.9-5.75-3.98Z"/>
  <path class="cls-2" d="M92.34,364.55c-.49-2.96-.48-5.88.11-8.81.6-2.97,2.31-4.79,5.35-5.34,1.58-.29,3.15-.48,4.77-.35,11.32.91,22.64.6,33.97.19.99-.03,1.95-.1,2.94.05,3.47.53,4.77,1.83,4.89,5.29.11,3.08.08,6.16.04,9.23-.07,4.57-2.13,6.58-6.73,6.15-5.42-.51-10.83-.23-16.24-.29-7.13.29-14.26-.4-21.41.38-4.73.51-6.9-1.7-7.69-6.5Z"/>
  <path class="cls-2" d="M144.46,441.83c-.12,2.7-.09,5.41-.1,8.11,0,4.37-1.33,5.81-5.68,5.84-6.76.05-13.53.01-20.3.01v.06c-6.4,0-12.8-.03-19.2.01-4.96.03-6.65-1.48-6.86-6.49-.14-3.31-.35-6.62.04-9.94.45-3.73,1.45-4.86,5.26-5.44,5.26-.8,10.56-.37,15.85-.35,7.26.04,14.52.15,21.77-.15.37-.01.74-.02,1.11-.02,6.54-.05,8.38,1.89,8.11,8.36Z"/>
  <path class="cls-2" d="M144.5,400.18c.28,2.36.16,4.67-.14,6.99-.54,4.18-2.6,6.17-6.81,6.27-3.69.09-7.4-.01-11.08-.23-8.63-.52-17.23.04-25.85.23-7.17.15-8.38-1.06-8.27-8.26.04-2.09-.08-4.18-.05-6.28.08-4.66,1.65-6.33,6.26-6.18,6.4.2,12.8.12,19.44.03,5.8.11,11.83.19,17.86-.11,5.95-.3,7.94,1.65,8.64,7.54Z"/>
  <path class="cls-2" d="M227.29,312.09c1.25,4.22,1.23,8.55.37,12.8-.56,2.75-2.52,4.49-5.36,4.96-1.45.24-2.96.5-4.4.37-5.79-.54-11.58-.41-17.38-.29-6.04,0-12.08.03-18.12-.01-4.74-.03-6.3-1.32-6.71-5.95-.28-3.31-.31-6.66-.15-9.97.17-3.79,1.61-5.28,5.41-5.77,7.36-.94,14.77-.46,22.17-.45,5.17,0,10.34.38,15.51-.16.97-.1,1.97-.07,2.95.01,2.86.24,4.89,1.65,5.71,4.46Z"/>
  <path class="cls-2" d="M227.9,439.41c.18,3.43.17,6.9-.03,10.34-.23,4.08-1.89,5.7-6.11,5.84-5.66.19-11.33.1-17,.13-1.11.01-2.22,0-3.33,0-5.79,0-11.59.01-17.38,0-1.23-.01-2.48,0-3.69-.18-2.57-.37-3.81-1.44-4.13-3.98-.45-3.54-.94-7.1-.67-10.68.41-5.37,2.64-7.47,8.08-7.45,7.52.03,15.01.87,22.54.52,4.3-.2,8.61-.3,12.92-.43.99-.02,1.98-.06,2.96.04,3.82.37,5.65,2.07,5.84,5.85Z"/>
  <path class="cls-2" d="M227.96,397.51c.11,3.57.12,7.15-.01,10.72-.13,3.48-1.83,5.17-5.4,5.19-12.08.04-24.17.2-36.25-.15-9.32-.27-14.05-7.97-10.71-16.63,1.16-3.01,2.28-3.83,5.54-3.85,6.78-.03,13.56-.01,20.34-.01v-.05c6.41,0,12.83-.01,19.24.01,1.1,0,2.24-.03,3.31.18,2.6.5,3.85,1.9,3.94,4.59Z"/>
  <path class="cls-2" d="M176.12,367.12c-1.09-4.26-.99-8.52-.07-12.8.75-3.54,1.06-3.88,4.58-3.9,6.9-.03,13.8-.01,20.7-.01v-.08c6.4,0,12.81,0,19.21,0,.99,0,1.98,0,2.96.11,3.04.36,4.39,1.75,4.47,4.81.09,3.44.1,6.89-.01,10.34-.11,3.41-1.5,4.95-4.94,5.24-2.31.19-4.66-.2-6.99-.19-7.27.03-14.53.06-21.8.2-4.3.08-8.59-.38-12.91.21-3.13.43-4.39-.74-5.2-3.93Z"/>
  <path class="cls-2" d="M301.93,438.22c.15,4.3.19,8.63.02,12.93-.13,3.26-1.97,4.63-5.86,4.64-7.27.02-14.55-.04-21.83-.07-1.6,0-3.2-.04-4.81-.05-1.75,0-3.43-.41-5.07-.95-3.8-1.26-5.8-3.96-6.07-7.96-.18-2.62.26-5.17.88-7.69.97-3.94,2.62-5.29,6.79-5.44,3.2-.11,6.41-.03,9.62-.03h5.55v-.08c4.31,0,8.63-.01,12.94.01,1.36,0,2.71-.12,4.05.28,2.37.7,3.7,1.99,3.79,4.41Z"/>
  <path class="cls-2" d="M259.1,363.31c-.19-2.81-.33-5.65.57-8.41.8-2.45,2.39-3.96,4.93-4.43,1.7-.31,3.39-.51,5.13-.39,11.32.77,22.63.87,33.94-.04,1.36-.11,2.69.03,4.04.28,2.56.49,4.23,1.88,4.86,4.43.95,3.76.9,7.58.25,11.35-.43,2.46-2.04,4.11-4.64,4.69-1.23.27-2.45.49-3.66.32-6.26-.9-12.54-.37-19.33-.4-5.38.1-11.27-.31-17.19.34-5.76.63-8.5-1.95-8.9-7.74Z"/>
  <path class="cls-2" d="M313.14,397.44c-.05,3.7-.08,7.39-.04,11.09.03,3.04-1.4,4.44-4.46,4.79-.86.1-1.73.05-2.59.05-11.22,0-22.45-.01-33.67.02-2.36,0-4.69-.17-6.98-.71-4.66-1.1-6.87-3.87-7.06-8.64-.08-2.13.34-4.18.75-6.23.77-3.84,2.12-4.99,6.07-5.02,7.03-.06,14.06-.02,21.1-.02,6.53,0,13.07-.01,19.61.01,1.22,0,2.48.01,3.67.27,2.53.55,3.64,1.8,3.6,4.39Z"/>
  <path class="cls-2" d="M259.18,322.4c-.06-2.59-.02-5.18.07-7.76.18-4.97,2.11-6.86,7.14-6.9,6.78-.05,13.56-.01,20.33-.01,6.41,0,12.82.01,19.23-.01,5.28-.01,6.93,1.45,7.13,6.65.12,3.2.2,6.41.02,9.6-.18,3.43-1.5,4.83-4.89,5.5-1.55.31-3.18.38-4.77.39-12.2.04-24.41.07-36.61.06-5.62,0-7.54-1.9-7.65-7.52Z"/>
  <path class="cls-2" d="M533.58,660.29c.17,2.95.18,5.91.06,8.86-.2,5.06-2.25,7.1-7.39,7.11-6.77,0-13.54-.23-20.3-.34-1.36-.03-2.71-.01-4.07-.01v.27c-7.63,0-15.26.01-22.89-.01-1.22,0-2.48.04-3.67-.21-2.49-.51-4.18-1.94-4.69-4.58-.88-4.56-.1-9.07.47-13.56.23-1.84,1.58-2.94,3.45-3.42,1.82-.48,3.66-.48,5.5-.47,11.69.02,23.39.09,35.08.09,3.81,0,7.63-.26,11.44-.29,4.8-.03,6.74,1.76,7.01,6.56Z"/>
  <path class="cls-2" d="M470.24,585.82c.3-3.33.25-6.6.12-9.93-.15-3.6,1.77-5.32,5.52-5.44,2.46-.08,4.93.15,7.39.14,14.41-.03,28.82-.11,43.24-.16.98,0,1.98-.04,2.94.13,2.8.49,4.12,1.89,4.22,4.74.13,3.69.13,7.39.06,11.08-.05,2.67-1.32,4.09-3.92,4.54-1.08.19-2.21.16-3.32.16-8.13.01-16.26,0-24.39,0s-16.02.01-24.03,0c-1.11,0-2.23.04-3.32-.1-3.16-.38-4.79-2-4.51-5.16Z"/>
  <path class="cls-2" d="M533.79,617.38c-.08,3.93-.2,7.86-.15,11.79.03,2.36-1.16,3.53-3.43,4.18-1.07.31-2.16.39-3.29.36-16.61-.49-33.23-.32-49.84-.04-5.35.09-7.32-1.86-6.67-7.08.28-2.22.28-4.39-.05-6.61-.75-4.96.82-6.8,5.98-6.84,8.62-.08,17.24-.03,25.86-.03v.05c8.25,0,16.51,0,24.76.01,1.1,0,2.23-.01,3.31.19,2.35.45,3.58,1.67,3.52,4.02Z"/>
  <path class="cls-2" d="M585.16,617.45c.77,3.36,1.02,6.8.42,10.26-.52,3.03-2.24,4.81-5.19,5.52-2.66.64-5.35.83-8.07.66-4.53-.28-6.36-1.91-7.16-6.41-.28-1.56-.33-3.17-.49-4.78.11-1.46.09-2.96.37-4.4.81-4.07,3.24-5.91,7.4-5.46,1.98.21,3.88.23,5.86-.05,3.58-.49,6.05,1.16,6.86,4.66Z"/>
  <path class="cls-2" d="M585.16,701.24c.56,3.26.86,6.61.53,9.93-.35,3.47-1.9,5.06-5.35,5.54-1.82.25-3.68.23-5.53.33v-.07c-1.6,0-3.22.16-4.79-.03-3.3-.4-5.14-2.31-5.2-5.63-.07-3.17.31-6.32.05-9.52-.21-2.62,1.43-4.3,4.17-4.83,3.27-.63,6.59-1.04,9.93-.87,3.67.19,5.58,1.63,6.19,5.15Z"/>
  <path class="cls-2" d="M585.73,660.34c-.01,3.07-.13,6.12.06,9.2.2,3.34-1.41,5.28-4.7,6.18-3.62.98-7.34,1.02-10.99.25-2.48-.53-4.02-2.23-4.65-4.74-.57-2.29-.7-4.62-.69-6.28-.08-8.66,1.73-10.62,9.73-11.38,1.87-.17,3.7-.01,5.52.3,3.85.66,5.72,2.61,5.72,6.47Z"/>
  <path class="cls-2" d="M585.91,577.44c-.37,2.34-.35,4.62-.25,6.96.15,3.75-1.13,5.59-4.79,6.29-3.36.65-6.77,1.18-10.25.51-2.76-.53-4.39-2.1-5.07-4.71-.85-3.25-.99-6.58-.72-9.9.28-3.35,1.85-4.95,5.26-5.73.6-.13,1.2-.3,1.81-.34,1.35-.1,2.7-.14,3.63-.19,2.27.02,4.11-.07,5.92.5,3.36,1.06,5.01,3.18,4.46,6.61Z"/>
  <path class="cls-2" d="M616.73,668.36c.27-2.1.26-4.1,0-6.2-.62-4.94,1.65-7.58,6.63-8.35,2.97-.46,5.91-.24,8.83.17,3.64.52,6.07,2.47,6.83,6.25.65,3.18.66,6.33.05,9.52-.73,3.79-3.15,5.73-6.79,6.28-1.7.26-3.44.24-5.08.35-1.56-.1-3.05-.09-4.51-.3-4.41-.64-6.52-3.27-5.96-7.72Z"/>
  <path class="cls-2" d="M638.9,701.92c.79,3.03.8,6.08.2,9.14-.66,3.34-2.82,5.11-6.02,5.67-1.57.28-3.19.3-5.13.47-1,.18-2.34.11-3.7-.07-4.96-.68-6.75-2.29-7.43-7.16-.44-3.18-.4-6.4.54-9.52.93-3.07,2.79-4.53,6.02-4.35,2.81.15,5.6.24,8.42.18,4.01-.09,6.08,1.74,7.1,5.64Z"/>
  <path class="cls-2" d="M617.41,629.2c-.61-2.76-.9-5.57-.78-8.42.21-4.98,2.12-7.1,7.06-7.73,1.33-.17,2.69-.24,3.89-.35,1.87.18,3.59.27,5.29.52,3.71.54,5.44,2.12,6.24,5.77.75,3.44.43,6.86-.79,10.15-1.22,3.25-3.75,4.88-7.55,4.69-2.45-.12-4.84-.23-7.3,0-3.37.3-5.32-1.29-6.06-4.62Z"/>
  <path class="cls-2" d="M617.28,585.67c-.73-3.15-.98-6.35-.39-9.53.77-4.23,2.89-5.92,7.17-5.82,2.44.06,4.86.31,7.33.12,4.96-.38,7.33,1.73,7.98,6.62.13.98.12,1.97.17,2.96-.04.98-.03,1.97-.14,2.95-.62,5.28-2.99,7.61-8.31,8.15-2.57.26-5.14.5-7.73.05-3.58-.62-5.27-2.07-6.08-5.5Z"/>
  <path class="cls-2" d="M89.78,669.68c.17-3.33.18-6.62.1-9.95-.14-5.57,2.43-8,8.18-8.03,6.66-.04,13.31-.01,19.97-.01s13.8-.03,20.7.01c5.73.04,8,2.41,7.98,8.17-.01,3.58,0,7.15-.01,10.72-.01,5.18-2.42,7.7-7.7,7.72-13.68.08-27.36.1-41.04.05-5.44-.02-8.47-3.17-8.18-8.68Z"/>
  <path class="cls-2" d="M90.53,629.58c-2.1-3.34-2.08-6.99-1.47-10.71.12-.73.35-1.43.57-2.14,1.46-4.77,3.27-6.16,8.29-6.19,6.77-.05,13.55,0,20.32-.02,6.28-.01,12.57-.07,18.85-.07,1.22-.01,2.47.02,3.67.24,4.44.8,6.7,3.57,6.24,8.06-.29,2.84-.34,5.62-.11,8.46.48,5.74-2.46,8.94-8.22,8.85-5.78-.09-11.56-.56-16.99,0-7.36-.27-14.39.55-21.38-.54-4.05-.64-7.51-2.33-9.77-5.94Z"/>
  <path class="cls-2" d="M89.44,584.4c-.04-3.31-.09-6.65.59-9.93.89-4.29,2.94-6.12,7.35-6.25,3.45-.1,6.9.04,10.35.03,9.97-.01,19.95-.05,29.92-.06,1.11,0,2.23-.03,3.31.16,3.18.54,5.04,2.39,5.56,5.58.58,3.65.87,7.33.73,11.03-.2,5.32-2.56,7.99-7.91,8.28-5.65.3-11.33.2-16.99.27-1.35.02-2.71,0-4.06,0v-.09c-5.79,0-11.58,0-17.36-.01-1.11,0-2.22-.05-3.32-.15-5.7-.55-8.11-3.12-8.17-8.86Z"/>
  <path class="cls-2" d="M146.77,701.21c.54,3.18.62,6.38.51,9.58-.16,4.83-2.57,7.52-7.35,8.19-1.82.26-3.69.31-5.53.32-10.37.02-20.73-.22-31.09.08-10.09.28-17.5-9.73-13.57-20.15,1.45-3.84,3.39-5.2,7.57-5.23,7.03-.06,14.06-.02,21.09-.02s13.33-.03,19.99.01c5.5.03,7.46,1.8,8.38,7.22Z"/>
  <path class="cls-2" d="M210.14,704.02c.1,2.98-.27,5.91-.71,8.83-.52,3.52-2.41,5.68-5.97,6.05-6.87.71-13.81.93-20.65-.04-7.13-1-10.63-5.7-10.42-12.91.06-2.24.53-4.4,1.16-6.52,1.09-3.71,3.04-5.26,6.98-5.41,3.44-.13,6.89-.02,10.34-.02v.16c2.96-.13,5.91-.38,8.86-.38,6.7,0,10.16,3.5,10.41,10.24Z"/>
  <path class="cls-2" d="M261.89,658.46c.17,4.3.15,8.62.01,12.93-.13,3.94-2.46,6.33-6.44,6.83-1.45.19-2.95.11-4.43.11-22.55.03-45.11.04-67.66.05-.87,0-1.73.02-2.59-.07-4.74-.47-7.53-3.26-7.43-7.99.08-3.81.24-7.59.12-11.41-.16-4.75,2.69-7.17,7.89-7.2,12.08-.05,24.16-.02,36.23-.02v-.04c11.59,0,23.18,0,34.76.01,1.11,0,2.23-.02,3.32.14,3.78.56,6.06,2.85,6.22,6.66Z"/>
  <path class="cls-2" d="M173.42,575.14c-.1-3.95,2.68-6.41,6.83-6.9,1.7-.2,3.44-.1,5.17-.1,10.72-.01,21.43,0,32.15,0h32.53c1.35,0,2.71-.06,4.06.02,5.3.33,7.8,2.98,7.83,8.27.02,3.08.06,6.16-.02,9.23-.12,4.82-2.26,7.19-7.03,7.91-.97.15-1.97.25-2.94.18-9.97-.78-19.95-.28-29.93-.3-13.3-.04-26.61.04-39.91.05-1.23,0-2.48-.07-3.67-.32-3-.65-5.1-2.88-5.2-5.93-.13-4.03.24-8.06.13-12.11Z"/>
  <path class="cls-2" d="M173.55,625.06c.15-1.24.2-2.45-.04-3.67-.11-.61-.17-1.23-.21-1.84-.3-5.76,2.37-8.86,8.16-9.13,3.81-.18,7.65-.08,11.47.03,19.23.55,38.47.14,57.7-.07,1.85-.02,3.68-.06,5.51.4,3.87.99,5.73,3.07,5.84,7.01.09,3.44.08,6.9,0,10.35-.11,4.8-2.71,7.5-7.5,7.93-.61.06-1.24.06-1.85.02-11.71-.71-23.42-.13-32.21-.05-14.27,0-25.61-.01-36.96.01-8.46,0-10.93-2.71-9.91-10.99Z"/>
  <path class="cls-1" d="M364.81,811.55c-56.62,0-113.25,0-169.87,0-.99,0-1.97.03-2.96,0-3.1-.1-3.26-.32-1.72-3.06,1.58-2.82,2.49-5.88,3.58-8.89,4.58-12.59,9.19-25.17,13.79-37.75,1.14-3.12,2.24-6.25,3.36-9.37,4.79-13.35,13.9-22.32,27.24-27.12,7.2-2.59,14.76-3.63,22.13-5.51,11.88-3.05,23.81-5.93,35.74-8.78,2.22-.53,4.24-1.29,5.92-2.8,1.02-.92,2.12-1.32,3.37-.78,1.43.61,2.91.47,4.38.47,36.76,0,73.53,0,110.29,0,.74,0,1.48.05,2.22-.02,3.84-.32,4.83-.16,8.33,1.79,2.3,1.28,4.82,1.91,7.32,2.44,12.12,2.57,24.12,5.68,36.15,8.61,6.19,1.51,12.52,2.48,18.52,4.73,11.75,4.41,20.4,12.32,25.63,23.64,2.42,5.22,3.85,10.89,5.67,16.38,4.79,14.49,9.97,28.82,16.86,42.48,1.22,2.42.73,3.24-2,3.52-1.1.11-2.22.03-3.33.03-56.87,0-113.74,0-170.61,0Z"/>
  <path class="cls-1" d="M365.09,645.05c-7.4,0-14.8,0-22.21,0-1.1,0-2.25.06-3.31-.2-1.93-.47-3.4-1.05-3.7-3.74-.79-7.02-4.81-12.12-10.58-16.08-8.86-6.06-15.79-13.94-21.24-23.17-4.74-8.04-7.8-16.73-9.3-25.85-1.37-8.35-2.3-16.84-1.54-25.31.27-2.97-.16-5.81-.1-8.7.27-12.64,1.05-25.24,4.53-37.49,1.81-6.36,5.21-11.91,9.2-17.1,2.17-2.81,4.3-5.71,6.84-8.18,3.16-3.07,6.6-5.88,10.11-8.55,6.41-4.9,13.64-8.4,21.25-10.92,3.92-1.3,8.13-1.81,12.31-1.89,4.93-.1,9.89-.28,14.8.04,6.97.44,13.84,1.22,20.24,4.7,6.61,3.59,13.29,7.02,19,11.95,5.69,4.92,10.93,10.35,14.68,16.96,3.76,6.62,7.46,13.3,8.74,20.98.87,5.2,1.77,10.41,1.83,15.66.15,12.82.27,25.66-.02,38.48-.28,12.5-3.92,24.13-10.14,35.02-3.91,6.84-9.13,12.54-14.91,17.7-3.57,3.18-7.55,5.89-10.81,9.45-3.06,3.34-5.15,7.21-6.2,11.58-.83,3.45-1.93,4.61-5.42,4.66-5.67.08-11.35.02-17.02.02-2.34,0-4.69,0-7.03,0Z"/>
  <path class="cls-1" d="M364.93,703.51c-17.77,0-35.53,0-53.3,0-.86,0-1.73.05-2.59-.02-2.13-.18-3.03-1.06-2.55-3.12,1.89-7.99,2.96-16.23,6.7-23.67,2.54-5.05,6.74-8.02,12.45-8.71,2.43-.29,4.82-1,7.31-.76.35.03.83,0,1.06-.21,2.68-2.39,5.99-1.66,9.13-2.04,11.8-1.42,23.64-.27,35.44-.69,4.32-.16,8.53,1.25,12.86.78.24-.03.56-.05.72.08,3.9,3.03,8.73,1.93,13.09,2.85,8.17,1.73,12.25,7.19,14.26,14.71,1.27,4.74,2.36,9.53,3.52,14.29.14.59.27,1.2.31,1.81.32,4.13-.2,4.71-4.39,4.71-18.01,0-36.02,0-54.04,0Z"/>
  <path class="cls-1" d="M388.39,660.14c-13.8-.6-27.32-.62-40.85-.26-1.94.05-4.35,1.03-5.7-.24-1.37-1.29-.22-3.73-.4-5.66-.02-.24-.03-.49-.03-.74-.01-3.48-.01-3.51,3.34-3.48,8.24.07,16.48.23,24.73.24,5.41.01,10.82-.19,16.23-.23,2.62-.02,2.64.05,2.68,2.6.03,2.45,0,4.9,0,7.77Z"/>
  <path class="cls-1" d="M869.61,549.14c.05-4.49,3.14-7.43,7.83-7.45,4.29-.02,7.9,3.66,7.9,8.07,0,4.39-3.59,7.88-8.05,7.83-4.75-.06-7.74-3.35-7.67-8.45Z"/>
  <path class="cls-1" d="M643.56,338.8c-1.39,1.4-2.62,2.95-4.01,4.35-6.34,6.38-12.73,12.73-19.08,19.1-9.05,9.09-18.08,18.19-27.13,27.28-1.13,1.13-2.26,2.27-3.47,3.32-1.14.98-2.47,1.63-3.53,1.6-2.52.01-4.07-1.02-5.34-2.4-6.42-6.99-13.77-13.08-19.99-20.27-.24-.28-.48-.56-.73-.83-4.42-4.91-6.87-4.99-11.61-.22-13.29,13.39-26.55,26.81-39.84,40.2-1.21,1.22-2.47,2.43-3.87,3.41-2.48,1.75-4.3,1.67-6.8-.1-.8-.56-1.56-1.22-2.19-1.97-6.54-7.73-14.35-14.24-21.22-21.65-3.14-3.39-5.55-3.43-8.83-.07-11.37,11.65-23.35,22.69-34.4,34.65-5.86,6.34-8.55,5.21-12.68-.12-.89-1.16-2.1-2.08-3.2-3.05-4.52-3.99-4.62-6.8-.25-11.1,3.42-3.37,6.96-6.63,10.41-9.98,13.01-12.62,25.73-25.53,38.34-38.55,4.88-5.05,7.69-5.13,12.45.13,6.62,7.31,14.18,13.71,20.81,21.03,3.09,3.42,5.35,3.35,8.79-.01,5.12-4.99,10.15-10.08,15.19-15.16,8.94-9.01,17.88-18.03,26.78-27.08,5.18-5.27,7.34-5.22,12.44.07,6.5,6.75,13.11,13.39,19.68,20.06,4.33,4.4,7.23,4.43,11.5-.18,6.11-6.61,12.46-12.99,18.88-19.3,4.75-4.67,9.44-9.39,14.23-14.02,5.33-5.16,6.88-5.15,12.17.11,2.27,2.26,4.31,4.75,6.56,7.02,1.37,1.38,1.2,2.46-.06,3.73Z"/>
  <path class="cls-1" d="M481.79,312.49c-.03,4.3-1.61,6.06-5.96,6.23-4.92.19-9.85.23-14.78.29-3.93.04-7.87.01-11.81.01v-.26c-8.74,0-17.48.07-26.22-.03-4.82-.06-6.41-1.82-6.29-6.59.07-2.71.18-5.4.08-8.11-.13-3.6,1.36-5.25,4.93-5.58,2.07-.19,4.17.08,6.26.07,15.64-.09,31.27.28,46.91-.2,5.29-.16,7.15,1.83,6.73,7.17-.19,2.35.16,4.67.15,7Z"/>
  <path class="cls-1" d="M639.12,458.86c-.37,4.75-2.05,6.31-6.79,6.36-5.18.05-10.36.06-15.53-.01-3.7-.05-7.39-.17-11.08.24-1.09.13-2.22.07-3.32-.07-3.24-.4-5.07-2.09-5.8-5.31-.8-3.56-.46-7.13.2-10.64.62-3.31,2.5-4.81,6.01-4.86,3.57-.05,7.14.19,10.71.31,1.48.05,2.95.14,4.43.21v-.48c4.44,0,8.87.01,13.3,0,5.82-.02,7.83,1.83,8.03,7.61.08,2.21.02,4.44-.16,6.64Z"/>
  <path class="cls-1" d="M576.12,460.09c-.51,3.79-1.98,5.15-5.82,5.19-4.92.05-9.84.01-14.09.01-5.22-.22-9.77-.09-14.32.09-5.77.24-8.01-1.84-8.68-7.63-.33-2.85.05-5.67.62-8.44.62-3.02,2.56-4.61,5.76-4.73,2.57-.11,5.17,0,7.74.21,6.28.53,12.54.06,18.81-.14.99-.03,1.97-.07,2.96-.04,4.86.12,6.79,1.87,6.89,6.64.06,2.95.52,5.89.13,8.84Z"/>
  <path class="cls-1" d="M513.09,458.73c-.42,5.18-2.18,6.87-7.25,6.6-4.44-.23-8.87-.22-13.92-.09-4.07-.13-8.75-.04-13.43.13-5.13.2-7.17-1.6-8.08-6.63-.54-2.94-.43-5.88.26-8.8.85-3.62,2.67-5.18,6.46-5.41,1.59-.09,3.21-.06,4.8.09,6.77.65,13.53.51,20.31.05,8.81-.61,10.64,1.16,11.03,10.01.05,1.35-.06,2.71-.18,4.05Z"/>
  <path class="cls-1" d="M313.1,323.97c-.18,3.43-1.5,4.83-4.89,5.5-1.55.31-3.18.38-4.77.39-12.2.04-24.41.07-36.61.06-5.62,0-7.54-1.9-7.65-7.52-.06-2.59-.02-5.18.07-7.76.18-4.97,2.11-6.86,7.14-6.9,6.78-.05,13.56-.01,20.33-.01,6.41,0,12.82.01,19.23-.01,5.28-.01,6.93,1.45,7.13,6.65.12,3.2.2,6.41.02,9.6Z"/>
  <path class="cls-1" d="M144.38,325.1c-.07,2.79-1.52,4.26-4.26,4.71-1.09.18-2.21.17-3.32.17-11.2-.04-22.4-.11-33.6-.11-1.59,0-3.18.37-4.77.48-3.23.21-4.86-.9-5.75-3.98-1.57-5.37-.92-10.74.26-16.06.48-2.12,1.6-2.56,4.68-2.56h20.31v-.02c6.4,0,12.81-.01,19.21,0,1.23,0,2.45-.04,3.66.33,2.37.73,3.44,1.74,3.52,4.13.14,4.3.17,8.61.06,12.91Z"/>
  <path class="cls-1" d="M144.46,441.83c-.12,2.7-.09,5.41-.1,8.11,0,4.37-1.33,5.81-5.68,5.84-6.76.05-13.53.01-20.3.01v.06c-6.4,0-12.8-.03-19.2.01-4.96.03-6.65-1.48-6.86-6.49-.14-3.31-.35-6.62.04-9.94.45-3.73,1.45-4.86,5.26-5.44,5.26-.8,10.56-.37,15.85-.35,7.26.04,14.52.15,21.77-.15.37-.01.74-.02,1.11-.02,6.54-.05,8.38,1.89,8.11,8.36Z"/>
  <path class="cls-1" d="M227.66,324.89c-.56,2.75-2.52,4.49-5.36,4.96-1.45.24-2.96.5-4.4.37-5.79-.54-11.58-.41-17.38-.29-6.04,0-12.08.03-18.12-.01-4.74-.03-6.3-1.32-6.71-5.95-.28-3.31-.31-6.66-.15-9.97.17-3.79,1.61-5.28,5.41-5.77,7.36-.94,14.77-.46,22.17-.45,5.17,0,10.34.38,15.51-.16.97-.1,1.97-.07,2.95.01,2.86.24,4.89,1.65,5.71,4.46,1.25,4.22,1.23,8.55.37,12.8Z"/>
  <path class="cls-1" d="M227.87,449.75c-.23,4.08-1.89,5.7-6.11,5.84-5.66.19-11.33.1-17,.13-1.11.01-2.22,0-3.33,0-5.79,0-11.59.01-17.38,0-1.23-.01-2.48,0-3.69-.18-2.57-.37-3.81-1.44-4.13-3.98-.45-3.54-.94-7.1-.67-10.68.41-5.37,2.64-7.47,8.08-7.45,7.52.03,15.01.87,22.54.52,4.3-.2,8.61-.3,12.92-.43.99-.02,1.98-.06,2.96.04,3.82.37,5.65,2.07,5.84,5.85.18,3.43.17,6.9-.03,10.34Z"/>
  <path class="cls-1" d="M313.1,408.53c.03,3.04-1.4,4.44-4.46,4.79-.86.1-1.73.05-2.59.05-11.22,0-22.45-.01-33.67.02-2.36,0-4.69-.17-6.98-.71-4.66-1.1-6.87-3.87-7.06-8.64-.08-2.13.34-4.18.75-6.23.77-3.84,2.12-4.99,6.07-5.02,7.03-.06,14.06-.02,21.1-.02,6.53,0,13.07-.01,19.61.01,1.22,0,2.48.01,3.67.27,2.53.55,3.64,1.8,3.6,4.39-.05,3.7-.08,7.39-.04,11.09Z"/>
  <path class="cls-1" d="M312.82,366.1c-.43,2.46-2.04,4.11-4.64,4.69-1.23.27-2.45.49-3.66.32-6.26-.9-12.54-.37-19.33-.4-5.38.1-11.27-.31-17.19.34-5.76.63-8.5-1.95-8.9-7.74-.19-2.81-.33-5.65.57-8.41.8-2.45,2.39-3.96,4.93-4.43,1.7-.31,3.39-.51,5.13-.39,11.32.77,22.63.87,33.94-.04,1.36-.11,2.69.03,4.04.28,2.56.49,4.23,1.88,4.86,4.43.95,3.76.9,7.58.25,11.35Z"/>
  <path class="cls-1" d="M227.95,408.23c-.13,3.48-1.83,5.17-5.4,5.19-12.08.04-24.17.2-36.25-.15-9.32-.27-14.05-7.97-10.71-16.63,1.16-3.01,2.28-3.83,5.54-3.85,6.78-.03,13.56-.01,20.34-.01v-.05c6.41,0,12.83-.01,19.24.01,1.1,0,2.24-.03,3.31.18,2.6.5,3.85,1.9,3.94,4.59.11,3.57.12,7.15-.01,10.72Z"/>
  <path class="cls-1" d="M144.36,407.17c-.54,4.18-2.6,6.17-6.81,6.27-3.69.09-7.4-.01-11.08-.23-8.63-.52-17.23.04-25.85.23-7.17.15-8.38-1.06-8.27-8.26.04-2.09-.08-4.18-.05-6.28.08-4.66,1.65-6.33,6.26-6.18,6.4.2,12.8.12,19.44.03,5.8.11,11.83.19,17.86-.11,5.95-.3,7.94,1.65,8.64,7.54.28,2.36.16,4.67-.14,6.99Z"/>
  <path class="cls-1" d="M227.96,365.59c-.11,3.41-1.5,4.95-4.94,5.24-2.31.19-4.66-.2-6.99-.19-7.27.03-14.53.06-21.8.2-4.3.08-8.59-.38-12.91.21-3.13.43-4.39-.74-5.2-3.93-1.09-4.26-.99-8.52-.07-12.8.75-3.54,1.06-3.88,4.58-3.9,6.9-.03,13.8-.01,20.7-.01v-.08c6.4,0,12.81,0,19.21,0,.99,0,1.98,0,2.96.11,3.04.36,4.39,1.75,4.47,4.81.09,3.44.1,6.89-.01,10.34Z"/>
  <path class="cls-1" d="M144.41,364.81c-.07,4.57-2.13,6.58-6.73,6.15-5.42-.51-10.83-.23-16.24-.29-7.13.29-14.26-.4-21.41.38-4.73.51-6.9-1.7-7.69-6.5-.49-2.96-.48-5.88.11-8.81.6-2.97,2.31-4.79,5.35-5.34,1.58-.29,3.15-.48,4.77-.35,11.32.91,22.64.6,33.97.19.99-.03,1.95-.1,2.94.05,3.47.53,4.77,1.83,4.89,5.29.11,3.08.08,6.16.04,9.23Z"/>
  <path class="cls-1" d="M301.95,451.15c-.13,3.26-1.97,4.63-5.86,4.64-7.27.02-14.55-.04-21.83-.07-1.6,0-3.2-.04-4.81-.05-1.75,0-3.43-.41-5.07-.95-3.8-1.26-5.8-3.96-6.07-7.96-.18-2.62.26-5.17.88-7.69.97-3.94,2.62-5.29,6.79-5.44,3.2-.11,6.41-.03,9.62-.03h5.55v-.08c4.31,0,8.63-.01,12.94.01,1.36,0,2.71-.12,4.05.28,2.37.7,3.7,1.99,3.79,4.41.15,4.3.19,8.63.02,12.93Z"/>
  <path class="cls-1" d="M533.64,669.15c-.2,5.06-2.25,7.1-7.39,7.11-6.77,0-13.54-.23-20.3-.34-1.36-.03-2.71-.01-4.07-.01v.27c-7.63,0-15.26.01-22.89-.01-1.22,0-2.48.04-3.67-.21-2.49-.51-4.18-1.94-4.69-4.58-.88-4.56-.1-9.07.47-13.56.23-1.84,1.58-2.94,3.45-3.42,1.82-.48,3.66-.48,5.5-.47,11.69.02,23.39.09,35.08.09,3.81,0,7.63-.26,11.44-.29,4.8-.03,6.74,1.76,7.01,6.56.17,2.95.18,5.91.06,8.86Z"/>
  <path class="cls-1" d="M533.73,586.38c-.05,2.67-1.32,4.09-3.92,4.54-1.08.19-2.21.16-3.32.16-8.13.01-16.26,0-24.39,0s-16.02.01-24.03,0c-1.11,0-2.23.04-3.32-.1-3.16-.38-4.79-2-4.51-5.16.3-3.33.25-6.6.12-9.93-.15-3.6,1.77-5.32,5.52-5.44,2.46-.08,4.93.15,7.39.14,14.41-.03,28.82-.11,43.24-.16.98,0,1.98-.04,2.94.13,2.8.49,4.12,1.89,4.22,4.74.13,3.69.13,7.39.06,11.08Z"/>
  <path class="cls-1" d="M533.64,629.17c.03,2.36-1.16,3.53-3.43,4.18-1.07.31-2.16.39-3.29.36-16.61-.49-33.23-.32-49.84-.04-5.35.09-7.32-1.86-6.67-7.08.28-2.22.28-4.39-.05-6.61-.75-4.96.82-6.8,5.98-6.84,8.62-.08,17.24-.03,25.86-.03v.05c8.25,0,16.51,0,24.76.01,1.1,0,2.23-.01,3.31.19,2.35.45,3.58,1.67,3.52,4.02-.08,3.93-.2,7.86-.15,11.79Z"/>
  <path class="cls-1" d="M639.07,669.75c-.73,3.79-3.15,5.73-6.79,6.28-1.7.26-3.44.24-5.08.35-1.56-.1-3.05-.09-4.51-.3-4.41-.64-6.52-3.27-5.96-7.72.27-2.1.26-4.1,0-6.2-.62-4.94,1.65-7.58,6.63-8.35,2.97-.46,5.91-.24,8.83.17,3.64.52,6.07,2.47,6.83,6.25.65,3.18.66,6.33.05,9.52Z"/>
  <path class="cls-1" d="M639.54,580.02c-.04.98-.03,1.97-.14,2.95-.62,5.28-2.99,7.61-8.31,8.15-2.57.26-5.14.5-7.73.05-3.58-.62-5.27-2.07-6.08-5.5-.73-3.15-.98-6.35-.39-9.53.77-4.23,2.89-5.92,7.17-5.82,2.44.06,4.86.31,7.33.12,4.96-.38,7.33,1.73,7.98,6.62.13.98.12,1.97.17,2.96Z"/>
  <path class="cls-1" d="M585.79,669.54c.2,3.34-1.41,5.28-4.7,6.18-3.62.98-7.34,1.02-10.99.25-2.48-.53-4.02-2.23-4.65-4.74-.57-2.29-.7-4.62-.69-6.28-.08-8.66,1.73-10.62,9.73-11.38,1.87-.17,3.7-.01,5.52.3,3.85.66,5.72,2.61,5.72,6.47-.01,3.07-.13,6.12.06,9.2Z"/>
  <path class="cls-1" d="M639.1,711.06c-.66,3.34-2.82,5.11-6.02,5.67-1.57.28-3.19.3-5.13.47-1,.18-2.34.11-3.7-.07-4.96-.68-6.75-2.29-7.43-7.16-.44-3.18-.4-6.4.54-9.52.93-3.07,2.79-4.53,6.02-4.35,2.81.15,5.6.24,8.42.18,4.01-.09,6.08,1.74,7.1,5.64.79,3.03.8,6.08.2,9.14Z"/>
  <path class="cls-1" d="M638.32,629.14c-1.22,3.25-3.75,4.88-7.55,4.69-2.45-.12-4.84-.23-7.3,0-3.37.3-5.32-1.29-6.06-4.62-.61-2.76-.9-5.57-.78-8.42.21-4.98,2.12-7.1,7.06-7.73,1.33-.17,2.69-.24,3.89-.35,1.87.18,3.59.27,5.29.52,3.71.54,5.44,2.12,6.24,5.77.75,3.44.43,6.86-.79,10.15Z"/>
  <path class="cls-1" d="M585.58,627.71c-.52,3.03-2.24,4.81-5.19,5.52-2.66.64-5.35.83-8.07.66-4.53-.28-6.36-1.91-7.16-6.41-.28-1.56-.33-3.17-.49-4.78.11-1.46.09-2.96.37-4.4.81-4.07,3.24-5.91,7.4-5.46,1.98.21,3.88.23,5.86-.05,3.58-.49,6.05,1.16,6.86,4.66.77,3.36,1.02,6.8.42,10.26Z"/>
  <path class="cls-1" d="M585.91,577.44c-.37,2.34-.35,4.62-.25,6.96.15,3.75-1.13,5.59-4.79,6.29-3.36.65-6.77,1.18-10.25.51-2.76-.53-4.39-2.1-5.07-4.71-.85-3.25-.99-6.58-.72-9.9.28-3.35,1.85-4.95,5.26-5.73.6-.13,1.2-.3,1.81-.34,1.35-.1,2.7-.14,3.63-.19,2.27.02,4.11-.07,5.92.5,3.36,1.06,5.01,3.18,4.46,6.61Z"/>
  <path class="cls-1" d="M585.69,711.17c-.35,3.47-1.9,5.06-5.35,5.54-1.82.25-3.68.23-5.53.33v-.07c-1.6,0-3.22.16-4.79-.03-3.3-.4-5.14-2.31-5.2-5.63-.07-3.17.31-6.32.05-9.52-.21-2.62,1.43-4.3,4.17-4.83,3.27-.63,6.59-1.04,9.93-.87,3.67.19,5.58,1.63,6.19,5.15.56,3.26.86,6.61.53,9.93Z"/>
  <path class="cls-1" d="M261.9,671.39c-.13,3.94-2.46,6.33-6.44,6.83-1.45.19-2.95.11-4.43.11-22.55.03-45.11.04-67.66.05-.87,0-1.73.02-2.59-.07-4.74-.47-7.53-3.26-7.43-7.99.08-3.81.24-7.59.12-11.41-.16-4.75,2.69-7.17,7.89-7.2,12.08-.05,24.16-.02,36.23-.02v-.04c11.59,0,23.18,0,34.76.01,1.11,0,2.23-.02,3.32.14,3.78.56,6.06,2.85,6.22,6.66.17,4.3.15,8.62.01,12.93Z"/>
  <path class="cls-1" d="M261.98,628.14c-.11,4.8-2.71,7.5-7.5,7.93-.61.06-1.24.06-1.85.02-11.71-.71-23.42-.13-32.21-.05-14.27,0-25.61-.01-36.96.01-8.46,0-10.93-2.71-9.91-10.99.15-1.24.2-2.45-.04-3.67-.11-.61-.17-1.23-.21-1.84-.3-5.76,2.37-8.86,8.16-9.13,3.81-.18,7.65-.08,11.47.03,19.23.55,38.47.14,57.7-.07,1.85-.02,3.68-.06,5.51.4,3.87.99,5.73,3.07,5.84,7.01.09,3.44.08,6.9,0,10.35Z"/>
  <path class="cls-1" d="M261.97,585.66c-.12,4.82-2.26,7.19-7.03,7.91-.97.15-1.97.25-2.94.18-9.97-.78-19.95-.28-29.93-.3-13.3-.04-26.61.04-39.91.05-1.23,0-2.48-.07-3.67-.32-3-.65-5.1-2.88-5.2-5.93-.13-4.03.24-8.06.13-12.11-.1-3.95,2.68-6.41,6.83-6.9,1.7-.2,3.44-.1,5.17-.1,10.72-.01,21.43,0,32.15,0h32.53c1.35,0,2.71-.06,4.06.02,5.3.33,7.8,2.98,7.83,8.27.02,3.08.06,6.16-.02,9.23Z"/>
  <path class="cls-1" d="M147,618.75c-.29,2.84-.34,5.62-.11,8.46.48,5.74-2.46,8.94-8.22,8.85-5.78-.09-11.56-.56-16.99,0-7.36-.27-14.39.55-21.38-.54-4.05-.64-7.51-2.33-9.77-5.94-2.1-3.34-2.08-6.99-1.47-10.71.12-.73.35-1.43.57-2.14,1.46-4.77,3.27-6.16,8.29-6.19,6.77-.05,13.55,0,20.32-.02,6.28-.01,12.57-.07,18.85-.07,1.22-.01,2.47.02,3.67.24,4.44.8,6.7,3.57,6.24,8.06Z"/>
  <path class="cls-1" d="M147.25,584.96c-.2,5.32-2.56,7.99-7.91,8.28-5.65.3-11.33.2-16.99.27-1.35.02-2.71,0-4.06,0v-.09c-5.79,0-11.58,0-17.36-.01-1.11,0-2.22-.05-3.32-.15-5.7-.55-8.11-3.12-8.17-8.86-.04-3.31-.09-6.65.59-9.93.89-4.29,2.94-6.12,7.35-6.25,3.45-.1,6.9.04,10.35.03,9.97-.01,19.95-.05,29.92-.06,1.11,0,2.23-.03,3.31.16,3.18.54,5.04,2.39,5.56,5.58.58,3.65.87,7.33.73,11.03Z"/>
  <path class="cls-1" d="M146.71,659.87c-.01,3.58,0,7.15-.01,10.72-.01,5.18-2.42,7.7-7.7,7.72-13.68.08-27.36.1-41.04.05-5.44-.02-8.47-3.17-8.18-8.68.17-3.33.18-6.62.1-9.95-.14-5.57,2.43-8,8.18-8.03,6.66-.04,13.31-.01,19.97-.01s13.8-.03,20.7.01c5.73.04,8,2.41,7.98,8.17Z"/>
  <path class="cls-1" d="M147.28,710.79c-.16,4.83-2.57,7.52-7.35,8.19-1.82.26-3.69.31-5.53.32-10.37.02-20.73-.22-31.09.08-10.09.28-17.5-9.73-13.57-20.15,1.45-3.84,3.39-5.2,7.57-5.23,7.03-.06,14.06-.02,21.09-.02s13.33-.03,19.99.01c5.5.03,7.46,1.8,8.38,7.22.54,3.18.62,6.38.51,9.58Z"/>
  <path class="cls-1" d="M210.14,704.02c.1,2.98-.27,5.91-.71,8.83-.52,3.52-2.41,5.68-5.97,6.05-6.87.71-13.81.93-20.65-.04-7.13-1-10.63-5.7-10.42-12.91.06-2.24.53-4.4,1.16-6.52,1.09-3.71,3.04-5.26,6.98-5.41,3.44-.13,6.89-.02,10.34-.02v.16c2.96-.13,5.91-.38,8.86-.38,6.7,0,10.16,3.5,10.41,10.24Z"/>
  <path class="cls-1" d="M217.76,656.15c11.22,0,22.44,0,33.66,0,.99,0,1.99-.08,2.95.1,2.16.4,3.54,2.19,3.01,4.3-.77,3.07-.72,6.02.03,9.09.47,1.95-.81,3.68-2.81,4.11-1.07.23-2.2.16-3.31.16-15.04,0-30.09-.04-45.13.04-3.09.02-6.04-1.15-9.16-.78-4.27.51-8.54.99-12.85.75-.86-.05-1.74.05-2.58-.1-2.28-.41-3.17-1.41-3.21-3.74-.06-3.57-.06-7.15,0-10.72.04-2.14.71-2.86,2.77-3.14.97-.13,1.97-.06,2.96-.06,11.22,0,22.44,0,33.66,0Z"/>
  <path class="cls-1" d="M187.82,614.65c15.6,1.52,31.87.53,48.12.79,5.04.08,10.02-1.23,15.08-.72.98.1,2.03-.09,2.93.19,3.16,1,3.69.8,3.61,4.46-.05,2.71.07,5.43-.04,8.14-.11,2.84-1.29,4.16-4.08,4.16-3.3,0-6.58.21-9.93-.43-3.6-.69-7.4-.54-11.05-.02-1.96.28-3.89.51-5.85.51-14.06,0-28.12,0-42.18,0-.86,0-1.73.04-2.59-.01-3.5-.23-4.84-1.71-4.07-5,.55-2.35.61-4.52.01-6.88-.68-2.65.46-4.17,3.13-4.86,2.06-.53,4.18-.11,6.89-.32Z"/>
  <path class="cls-1" d="M192.33,572.54c11.66.86,23.35,1.12,35,.6,8.1-.36,16.19-.56,24.3-.6.98,0,1.99-.06,2.94.13,2.21.46,2.93,1.43,2.98,3.92.05,2.71.06,5.42,0,8.12-.07,3.55-1.94,5.28-5.44,4.54-2.22-.47-4.4-.42-6.59-.43-20.69-.03-41.37-.02-62.06-.02-.49,0-.99,0-1.48,0-4.27-.03-4.99-.88-4-5.08.43-1.85.43-3.59-.01-5.44-.91-3.85.48-5.65,4.39-5.74,3.32-.07,6.65-.02,9.97-.02Z"/>
  <path class="cls-1" d="M142.08,623.41c0,1.48.05,2.96,0,4.44-.1,2.76-1.65,4.17-4.24,3.54-1.61-.4-3.17-.37-4.76-.38-9.86-.02-19.73-.03-29.59,0-1.62,0-3.17-.18-4.7-.73-3.55-1.28-5.59-4.07-5.54-7.82.01-.85.16-1.71.36-2.54q1.05-4.46,5.52-4.46c12.58,0,25.15,0,37.73,0,.86,0,1.73.02,2.59.01,1.88-.02,2.66.98,2.64,2.77-.02,1.73,0,3.45,0,5.18Z"/>
  <path class="cls-1" d="M118.03,588.82c-5.79,0-11.58.01-17.36-.01-1.1,0-2.23,0-3.29-.24-2.58-.58-3.29-1.42-3.37-4.05-.09-2.82-.11-5.62.66-8.41.63-2.27,1.3-3.24,3.52-3.49,1.46-.17,3.02-.33,4.42,0,4.75,1.11,9.55.53,14.33.64,3.94.09,7.88-.08,11.82.05,2.85.09,5.53-1.03,8.41-.81,3.96.3,4.86.91,4.91,4.73.03,2.11.92,4.04.82,6.18-.19,4.12-1.09,5.24-5.27,5.38-2.95.1-5.91.02-8.87.02-3.57,0-7.14,0-10.71,0Z"/>
  <path class="cls-1" d="M118.75,656.15c6.28,0,12.56-.03,18.83,0,4,.02,4.48.53,4.5,4.42.01,3.08.02,6.15,0,9.23-.03,3.44-.58,4.01-4.09,4.09-2.46.06-4.92.01-7.39.01-4.8,0-9.6.02-14.4,0-2.32-.01-4.62.05-6.95-.56-1.74-.46-3.69-.45-5.47.16-1.94.66-3.91.44-5.85.36-2.1-.09-3.12-1.13-3.18-3.28-.11-3.81.01-7.63-.06-11.44-.03-1.89,1.02-2.72,2.64-2.89,1.58-.17,3.2-.09,4.79-.09,5.54,0,11.08,0,16.62,0Z"/>
  <path class="cls-1" d="M118.03,698.33c6.17,0,12.34,0,18.5,0,1.36,0,2.71-.05,3.95.69.78.46,1.55.97,1.52,1.93-.09,2.97,1.12,5.78.86,8.78-.24,2.79-1.39,4.32-4.1,4.81-.36.07-.74.06-1.11.06-11.84,0-23.69.1-35.53-.04-5.63-.07-10.1-6.29-8.78-11.78.78-3.24,2.27-4.43,5.81-4.45,6.29-.03,12.58,0,18.87,0Z"/>
  <path class="cls-1" d="M192.16,714.6c-2.74-.32-6.21.56-9.6-.66-4.6-1.66-6.44-4.72-5.42-9.41.13-.6.33-1.18.44-1.78.62-3.41,2.56-4.92,5.87-4.26,4.28.85,8.52.94,12.78-.03.36-.08.74-.07,1.1-.11,6.39-.78,9.47,2.99,7.93,9.21-.23.94-.21,1.95-.27,2.93-.15,2.87-1.09,3.94-4.04,4.09-2.71.14-5.43.03-8.81.03Z"/>
</svg>