<?xml version="1.0" encoding="UTF-8"?>
<svg  width="1080" height="1080" id="Layer_1" xmlns="http://www.w3.org/2000/svg" xmlns:xlink="http://www.w3.org/1999/xlink" viewBox="0 0 1080 1080">
  <defs>
    <style>
      .cls-1 {
        fill: #111;
      }

      .cls-2 {
        fill: #ffbf9d;
      }

      .cls-3 {
        fill: #ff9a6c;
      }

      .cls-4 {
        fill: #263238;
      }

      .cls-5 {
        fill: #fff;
      }

      .cls-6 {
        fill: #e0e0e0;
      }

      .cls-7 {
        opacity: .3;
      }

      .cls-8 {
        opacity: .6;
      }

      .cls-9 {
        fill: #455a64;
      }

      .cls-10 {
        fill: #fafafa;
      }
    </style>
  </defs>
  <g id="freepik--Device--inject-59">
    <path class="cls-9" d="M721.82,1004.83l-337.53.17c-27.18.01-49.22-22-49.24-49.18l-.39-760.33c-.02-30.97,25.07-56.1,56.04-56.13,0,0,.01,0,.02,0l331.3-.17c27.48,0,49.76,22.28,49.76,49.76l.41,765.54c-.02,27.8-22.57,50.33-50.37,50.33Z"/>
    <path class="cls-4" d="M341.91,938.25l-.39-732.16c.06-33,26.82-59.73,59.82-59.74l303.65-.17c33.05-.02,59.87,26.75,59.89,59.8v.02l.39,732.16c.02,33.05-26.75,59.87-59.8,59.89h-.02l-303.65.17c-33.06.01-59.88-26.78-59.89-59.85,0-.04,0-.09,0-.13Z"/>
    <path class="cls-9" d="M521.79,173.47c-2.69,0-4.87-2.18-4.87-4.87s2.18-4.87,4.87-4.87h62.51c2.68-.18,5,1.85,5.18,4.53.18,2.68-1.85,5-4.53,5.18-.22.01-.43.01-.65,0l-62.51.02Z"/>
    <path class="cls-9" d="M488.28,173.49c-2.69.01-4.88-2.16-4.89-4.85-.01-2.69,2.16-4.88,4.85-4.89,2.69-.01,4.88,2.16,4.89,4.85,0,0,0,.01,0,.02,0,2.68-2.17,4.86-4.85,4.87Z"/>
    <path class="cls-9" d="M506.17,173.47c-2.69.01-4.88-2.16-4.89-4.85-.01-2.69,2.16-4.88,4.85-4.89,2.69-.01,4.88,2.16,4.89,4.85,0,0,0,.01,0,.02,0,2.68-2.17,4.86-4.85,4.87Z"/>
    <path class="cls-9" d="M618.1,173.4c-2.69,0-4.87-2.18-4.87-4.87,0-2.69,2.18-4.87,4.87-4.87s4.87,2.18,4.87,4.87c0,0,0,.01,0,.02,0,2.68-2.17,4.85-4.85,4.85,0,0-.01,0-.02,0Z"/>
    <path class="cls-9" d="M600.2,173.42c-2.69,0-4.87-2.18-4.87-4.87s2.18-4.87,4.87-4.87,4.87,2.18,4.87,4.87h0c.01,2.68-2.15,4.86-4.82,4.87-.01,0-.03,0-.04,0Z"/>
    <path class="cls-10" d="M708.23,156.11h-58.85c-5.7,0-10.72,3.75-12.33,9.22l-4.8,16.49c-1.78,6.13-7.4,10.33-13.78,10.32h-130.38c-6.37,0-11.99-4.19-13.8-10.3l-4.82-16.49c-1.61-5.47-6.63-9.22-12.33-9.2h-58.89c-25.81-.05-46.78,20.83-46.84,46.65l.39,736.98c.08,25.81,21.08,46.67,46.89,46.58h0l309.94-.15c25.81.05,46.78-20.83,46.84-46.65l-.39-736.96c-.13-25.75-21.07-46.54-46.82-46.5Z"/>
    <path class="cls-9" d="M771.82,327.3h0c1.58.01,2.87,1.29,2.88,2.88v93.75c0,1.58-1.28,2.87-2.86,2.88h0l-.02-99.51Z"/>
    <path class="cls-9" d="M334.72,388.86h0c-1.64,0-2.96,1.33-2.96,2.96v57.06c.01,1.64,1.35,2.96,2.99,2.96h0l-.02-62.98Z"/>
    <path class="cls-9" d="M334.68,306.47h0c-1.64,0-2.96,1.33-2.96,2.96,0,0,0,.01,0,.02v57.03c.01,1.64,1.34,2.97,2.99,2.99h0l-.02-63.01Z"/>
    <path class="cls-9" d="M334.66,244.78h0c-1.42,0-2.57,1.15-2.57,2.57h0v24.17c0,1.41,1.14,2.55,2.55,2.55,0,0,.01,0,.02,0h0v-29.3Z"/>
    <rect class="cls-5" x="657.02" y="180.11" width="3.01" height="4.22"/>
    <rect class="cls-5" x="661.91" y="178.23" width="3.01" height="6.08"/>
    <rect class="cls-5" x="666.8" y="176.82" width="3.01" height="7.49"/>
    <rect class="cls-5" x="671.69" y="174.09" width="3.01" height="10.21"/>
    <path class="cls-5" d="M719.05,184.5h-15.15c-.59.01-1.07-.45-1.08-1.04,0,0,0-.01,0-.02v-7.51c0-.59.47-1.07,1.06-1.08h15.15c.15.01.27.13.28.28v2.47h1.62c.14,0,.26.12.26.26,0,0,0,.02,0,.02v3.59c0,.16-.13.28-.28.28h-1.62v2.47c.01.14-.09.27-.24.28h0ZM718.77,175.39h-14.86c-.29,0-.52.23-.52.52v7.51c0,.29.23.52.52.52h14.8v-2.47c0-.14.12-.26.26-.26h1.62v-3.07h-1.54c-.14,0-.26-.12-.26-.26l-.02-2.49Z"/>
    <polygon class="cls-5" points="704.64 182.73 704.64 176.65 717.52 176.63 717.52 179.37 717.52 179.98 717.52 182.73 704.64 182.73"/>
    <path class="cls-5" d="M689.06,183.94c0-.61-.49-1.1-1.1-1.1-.61,0-1.1.49-1.1,1.1s.49,1.1,1.1,1.1c.61,0,1.1-.49,1.1-1.1h0Z"/>
    <path class="cls-5" d="M684.2,181.3l1.41,1.38c1.31-1.29,3.41-1.29,4.72,0l1.41-1.41c-1-.99-2.35-1.55-3.76-1.56-1.42,0-2.77.57-3.76,1.58Z"/>
    <path class="cls-5" d="M687.96,176.65c-2.24,0-4.38.89-5.97,2.47l1.41,1.41c2.53-2.5,6.6-2.5,9.13,0l1.41-1.41c-1.58-1.59-3.73-2.47-5.97-2.47Z"/>
    <path class="cls-5" d="M679.69,176.8l1.41,1.41c1.81-1.84,4.28-2.86,6.86-2.86,2.57,0,5.04,1.02,6.86,2.83l1.41-1.41c-4.56-4.56-11.96-4.57-16.52,0,0,0,0,0,0,0v.02Z"/>
    <path class="cls-5" d="M546.63,252.57c-2.1,2.8-4.42,5.43-6.95,7.85-2.27,2.69-4.89,5.07-7.79,7.08,2.1-2.81,4.43-5.43,6.97-7.85,2.27-2.69,4.88-5.07,7.77-7.08Z"/>
    <path class="cls-5" d="M574.78,268.32c-2.94-2.35-5.63-4.99-8.03-7.9-2.68-2.65-5.1-5.54-7.23-8.65,2.95,2.35,5.64,5,8.05,7.9,2.68,2.64,5.09,5.54,7.2,8.65Z"/>
  </g>
  <g id="freepik--Character--inject-21">
    <path class="cls-2" d="M255.16,264.22c1.31,21.75-20.18,26.7-20.18,26.7l1.16,34.74-53.63-4.87-.38-16.44-7.85-79.59c-3.58-22.43,6.47-43.22,28.99-46.19l2.12-.15c21.1-1.54,39.85,13.39,43.08,34.3,3,19.44,6.16,40.98,6.71,51.5Z"/>
    <path class="cls-3" d="M235.17,296.7c-21.54,3.53-29.09-12.17-29.09-12.17,8.89,4.87,18.99,7.07,29.09,6.35v5.82Z"/>
    <path class="cls-4" d="M240.03,234.38c-.24-1.64-1.76-2.78-3.4-2.55-1.69.18-2.92,1.67-2.77,3.36,0,0,0,.01,0,.02.24,1.64,1.76,2.78,3.4,2.54,1.68-.18,2.91-1.66,2.77-3.34,0-.01,0-.02,0-.04Z"/>
    <path class="cls-4" d="M243.25,222.08c-1.49-.9-3.22-1.32-4.95-1.21-1.76.12-3.45.78-4.82,1.88-.99.85-1.52,1.38-1.14,1.78s2.71-1.46,6.05-1.71,5.82,1.31,6.18.89c.17-.19-.23-.91-1.31-1.63Z"/>
    <path class="cls-4" d="M208.7,237.27c-.26-1.62-1.77-2.72-3.39-2.46-1.67.2-2.89,1.69-2.75,3.36,0,.03,0,.07.01.1.26,1.62,1.78,2.72,3.39,2.46,1.67-.18,2.9-1.67,2.75-3.34,0-.04-.01-.08-.02-.12Z"/>
    <path class="cls-4" d="M210.45,225.1c-1.48-.92-3.21-1.35-4.95-1.21-1.76.11-3.43.76-4.8,1.86-1.02.87-1.54,1.42-1.16,1.8s2.71-1.5,6.05-1.73,5.82,1.33,6.18.89c.17-.13-.23-.89-1.31-1.61Z"/>
    <path class="cls-4" d="M231.19,250.15c.49-.05.97-.15,1.44-.32.62-.22,1.11-.71,1.31-1.33.17-1.15-.08-2.33-.7-3.32-.91-2.12-1.88-4.23-2.88-6.35-4.19-8.99-7.87-16.16-8.23-15.99s2.67,7.6,6.9,16.59l3,6.35c.5.73.76,1.59.76,2.48-.11.59-.91.83-1.76.97-1.83.24-3.63.7-5.35,1.38,1.85.09,3.69-.06,5.5-.44Z"/>
    <path class="cls-4" d="M215.7,255.99c.38,2.01,1.52,3.79,3.19,4.97,1.74,1.22,3.86,1.79,5.99,1.61,1.63-.17,2.5-.49,2.43-.93s-3.91.23-7.19-2.12c-3.28-2.35-3.55-5.9-4.08-5.9-.25,0-.59.93-.34,2.37Z"/>
    <path class="cls-4" d="M209.52,211.98c-3.94-1.08-8.17-.3-11.47,2.12-1.23.97-1.71,1.86-1.46,2.24.59.85,3.7-.51,7.57-1.27s7.24-.57,7.51-1.5c.11-.44-.68-1.12-2.16-1.59Z"/>
    <path class="cls-4" d="M241.45,212.26c-2.85-1.72-6.45-1.57-9.14.38-1.02.8-1.29,1.59-1.02,1.95.59.76,2.9.02,5.67-.13s5.12.47,5.65-.34c.23-.38-.15-1.14-1.16-1.86Z"/>
    <path class="cls-2" d="M181.15,261.85c.02.42-14.56,5.04-16.1-9.77-.97-8.36,3.45-10.98,7.49-11.66.1-.02.21-.03.32-.04,3.23-.33,6.12,2.01,6.46,5.25.72,6.22,1.82,15.8,1.84,16.23Z"/>
    <path class="cls-3" d="M176.92,257.32c-.64.56-1.5.8-2.33.63-2.31-.38-4.02-3.03-4.42-5.99-.2-1.43-.05-2.88.44-4.23.34-1.14,1.22-2.04,2.35-2.41.5-.13,1.04-.04,1.48.23.33.19.57.5.68.87.3.59.08.89,0,.87s-.02-.32-.25-.72c-.34-.54-1.01-.77-1.61-.55-.88.39-1.53,1.17-1.73,2.12-.38,1.22-.5,2.5-.34,3.77.1,2.32,1.47,4.4,3.55,5.42.65.17,1.34.09,1.93-.23.42-.25.66-.47.66-.47.06.04.02.38-.4.7Z"/>
    <path class="cls-4" d="M163.29,212.49c-.49-1.95-1.33-4.44-1.8-6.88-1.23-6.11.76-12.42,5.27-16.71l.8-.7c3.29-2.89,7.88-3.77,12.02-2.33.8-7.03,5.2-13.15,11.62-16.14,6.3-2.88,17.77-1.48,23.44,2.52,3.36-8.02,10.66-12.25,19.38-12.25,8.88.21,17.04,4.92,21.67,12.5,4.65,7.38,6.71,15.76,4.04,24.08-1.78,5.46-8,11.62-14.34,11.45.38-1.73.74-3.47,1.12-5.23-.91,1.33-2.27,2.27-3.83,2.67,1.36-1.46,2.04-3.43,1.88-5.42-1.04,1.54-2.96,2.23-4.74,1.69,2.43-3.7,1.76-8.62-1.57-11.53-3.44-2.71-8.16-3.1-12-.99-3.74,2.12-5.8,8.46-6.47,12.69-3.51-5.4-9.57-8.6-16.02-8.46-6.4.26-12.19,3.85-15.28,9.46-4.74,13.84.11,22.55-.17,34.61-.23,9.52-3.34,13.88-6.96,15.4s-1.8-13.94-9.35-12.04c-3.79.97-3.34-6.11-4.57-10.35,0,0-2.69-12.19-4.15-18.05Z"/>
    <path class="cls-9" d="M247.04,197.81c1.27-1.84,2.05-3.97,2.24-6.2.35-3.3-.72-6.59-2.94-9.06-2.73-3.03-6.76-4.54-10.81-4.04-4,.74-7.58,2.93-10.07,6.14-2.11,2.56-3.67,5.54-4.57,8.74-.78,2.97-1.07,6.05-.87,9.12-.07-.21-.11-.42-.13-.63-.19-.42-.19-1.04-.19-1.84-.2-5.72,1.68-11.32,5.29-15.76,1.29-1.55,2.81-2.89,4.51-3.98,1.8-1.23,3.85-2.04,6.01-2.37,4.25-.54,8.49,1.04,11.34,4.23,2.31,2.59,3.39,6.05,2.96,9.5-.24,2.3-1.1,4.5-2.5,6.35-.37.49-.79.95-1.25,1.35-.32.4-.51.4-.51.4-.04-.04.59-.68,1.48-1.95Z"/>
    <path class="cls-9" d="M248.69,205.45l1.06-2.12c1.34-2.66,2.43-5.44,3.28-8.29.56-1.96.85-3.99.87-6.03.05-2.34-.39-4.66-1.29-6.81-1.04-2.35-2.74-4.35-4.89-5.75-2.32-1.51-5-2.39-7.76-2.56-5.38-.12-10.63,1.68-14.81,5.08-3.57,2.62-6.19,6.33-7.45,10.58-.79,2.86-.71,5.9.23,8.72.37,1.02.84,2.01,1.4,2.94-.21-.2-.39-.43-.53-.68-.44-.66-.81-1.37-1.1-2.12-1.06-2.86-1.22-5.98-.44-8.93,1.23-4.36,3.87-8.18,7.51-10.87,2.08-1.65,4.4-2.97,6.88-3.94,2.7-1.03,5.58-1.49,8.46-1.33,2.87.18,5.65,1.1,8.06,2.67,2.26,1.48,4.03,3.59,5.1,6.07.93,2.23,1.37,4.63,1.29,7.05-.05,2.09-.38,4.16-.97,6.16-.9,2.87-2.07,5.64-3.49,8.29-.49.91-.89,1.63-1.16,2.12-.12.26-.27.5-.44.72.03-.32.1-.64.21-.95Z"/>
    <path class="cls-9" d="M171.63,220.3c-.89-.7-1.72-1.47-2.48-2.31-5.16-5.65-6.82-13.67-4.34-20.9.36-1.07.82-2.1,1.35-3.09.18-.37.42-.71.7-1.02.11,0-.8,1.54-1.61,4.23-1.06,3.49-1.23,7.19-.51,10.77.77,3.57,2.39,6.89,4.74,9.69,1.82,2.14,3.19,3.26,3.19,3.26-.38-.16-.74-.37-1.06-.63Z"/>
    <path class="cls-9" d="M185.68,220.36c-.52-.21-1.02-.46-1.5-.74-1.76-1.09-3.17-2.67-4.06-4.55l.49-.13c.23,2.07.49,4.49.76,7.09v.66s-.55-.36-.55-.36c-6.6-4.42-9.86-12.39-8.25-20.16.34-1.58.89-3.11,1.63-4.55.19-.39.41-.78.66-1.14.17-.25.28-.36.28-.36-.94,1.96-1.65,4.02-2.12,6.14-.41,2.31-.41,4.67,0,6.98.94,5.11,3.88,9.64,8.17,12.57l-.49.3c-.23-2.6-.44-4.99-.63-7.11l-.13-1.54.61,1.42c.81,1.82,2.11,3.38,3.74,4.51,1.18.8,1.93,1.14,1.93,1.14-.18-.02-.36-.07-.53-.15Z"/>
    <path class="cls-9" d="M190.42,188.94c.13-.35.28-.7.44-1.04.66-1.23,1.54-2.33,2.6-3.24,1.59-1.35,3.48-2.28,5.52-2.71,2.5-.51,5.1-.29,7.49.61,2.39.88,4.52,2.34,6.22,4.23,1.35,1.56,2.43,3.33,3.19,5.25.51,1.29.87,2.63,1.08,4,.11.49.15,1,.11,1.5-.39-1.81-.93-3.59-1.61-5.31-.8-1.84-1.89-3.53-3.24-5.01-1.64-1.81-3.7-3.2-5.99-4.06-2.27-.87-4.74-1.09-7.13-.63-1.96.38-3.79,1.23-5.35,2.48-1.41,1.17-2.57,2.61-3.43,4.23-.02-.02,0-.15.08-.3Z"/>
    <path class="cls-9" d="M194.8,177.18c.94-.57,1.96-1.01,3.03-1.29,3.57-.91,7.34-.44,10.58,1.31,3.18,1.82,5.74,4.56,7.32,7.87.49.99.88,2.01,1.18,3.07.13.38.21.78.21,1.18-.11.04-.53-1.63-1.82-4.04-1.64-3.14-4.14-5.75-7.21-7.51-3.12-1.67-6.74-2.18-10.2-1.44-1.41.38-2.78.92-4.08,1.59.29-.3.62-.55.99-.74Z"/>
    <path class="cls-4" d="M202.1,878.46l.28,63.47h79c-.47-7.55-41.32-22.74-41.32-22.74l1.5-40.69-39.46-.04Z"/>
    <path class="cls-6" d="M215.34,915.85c1.64-.55,3.42.3,4.02,1.93.34,1.71-.67,3.4-2.33,3.91-1.62.34-3.21-.65-3.64-2.24-.31-1.62.66-3.21,2.24-3.68"/>
    <path class="cls-4" d="M281.37,942c.4-2.48-3.13-4.02-3.13-4.02l-75.66-2.45-.21,6.35,79,.13Z"/>
    <path class="cls-5" d="M236.77,919.47c-2.33,1.46-2.9,3.66-2.54,3.83s1.35-1.48,3.26-2.71,3.85-1.4,3.85-1.78c.08-.38-2.24-.8-4.57.66Z"/>
    <path class="cls-5" d="M245.64,923.99c-1.65,2.12-1.46,4.21-1.04,4.23s.8-1.67,2.12-3.32,2.9-2.29,2.9-2.67c0-.38-2.33-.36-3.98,1.76Z"/>
    <path class="cls-5" d="M255.54,928.75c.78-1.73,1.9-2.88,1.73-3.19s-2.07.55-2.96,2.64-.34,3.96,0,3.96c.3-.04.44-1.67,1.23-3.41Z"/>
    <path class="cls-5" d="M236.46,908.13c-2.56.15-4.19,1.5-4,1.84s1.9-.32,4.08-.49,3.94.36,4.1,0c.19-.3-1.63-1.5-4.19-1.35Z"/>
    <path class="cls-4" d="M114.61,884.66s.61,47.84.13,52.07c-.44,3.58,25.98,31.36,33.2,38.87,1.13,1.17,2.75,1.73,4.36,1.48h0c.12-.02.24-.04.35-.06,2.73-.59,4.47-3.28,3.88-6.01l-8.72-39.61,3.13-49.17-36.33,2.43Z"/>
    <path class="cls-4" d="M152.38,977.1c-1.66.29-3.35-.27-4.51-1.48-19.99-20.99-28.44-31.31-31.4-35.1-1.11-1.42-1.68-3.19-1.61-4.99v-2.12s37.43,43.67,37.43,43.67l.08.02Z"/>
    <g class="cls-8">
      <path class="cls-5" d="M125.8,918.15c-1.25-1.08-3.13-.96-4.23.28-.88,1.38-.59,3.2.68,4.23,1.3.86,3.05.55,3.98-.7.85-1.31.55-3.06-.68-4.02"/>
    </g>
    <path class="cls-5" d="M142.54,953.36c1.72-2.6,4.79-3.96,7.87-3.49,1.14.21,1.71.61,1.71.74-1.94-.09-3.88.2-5.71.85-1.71.93-3.23,2.17-4.49,3.66-.11-.06,0-.72.61-1.76Z"/>
    <path class="cls-5" d="M149.35,958.86c1.7-.62,3.59-.39,5.1.61-1.62.06-3.24.2-4.85.42-1.52.56-3,1.21-4.44,1.95-.25-.15,1.25-2.26,4.19-2.98Z"/>
    <path class="cls-5" d="M135.75,946.4c3.33-4.22,8.8-6.12,14.03-4.87-2.48.29-4.94.76-7.36,1.4-2.3.99-4.53,2.15-6.66,3.47h0Z"/>
    <path class="cls-5" d="M135.28,931.33c3.96-2.37,8.9-2.37,12.86,0,0,.32-2.9-.66-6.35-.68s-6.22,1.02-6.35.72l-.17-.04Z"/>
    <path class="cls-5" d="M137.76,915.72c1.58-.66,3.3-.94,5.01-.8,1.71.13,3.37.66,4.85,1.54,1.1.7,1.52,1.44,1.52,1.44-2.06-.92-4.23-1.56-6.45-1.9-2.25,0-4.49.31-6.66.91-.06-.11.53-.59,1.73-1.18Z"/>
    <path class="cls-5" d="M140.91,906.73c-.44-.99-1.18-1.82-2.12-2.37-.42-.21-.93-.11-1.25.23-.36.43-.56.98-.55,1.54.17,2.88,2.31,5.26,5.16,5.73,2.86.39,5.69-.92,7.24-3.36.28-.47.36-1.03.23-1.57-.19-.42-.64-.67-1.1-.61-1.07.18-2.07.62-2.92,1.29-1.82,1.33-3.43,2.92-4.78,4.72-.06-.02.15-.66.83-1.65.94-1.43,2.13-2.69,3.51-3.7.94-.8,2.08-1.33,3.3-1.54.87-.1,1.72.36,2.12,1.14.26.79.18,1.65-.23,2.37-1.71,2.89-4.99,4.47-8.31,4-3.38-.56-5.88-3.43-5.97-6.85.01-.79.32-1.54.87-2.12.63-.57,1.53-.71,2.31-.36,1.07.67,1.89,1.66,2.35,2.84.74,1.55,1.17,3.22,1.27,4.93.09.62.04,1.26-.15,1.86-.21-2.26-.82-4.47-1.8-6.52Z"/>
    <path class="cls-4" d="M140.11,526.87l-5.27,47.48-13.16,162.91-9.84,179.58,43.41,2.12s21.26-142.05,22.85-159.72c1.78-19.68,28.44-144.12,28.44-144.12l1.86-1.67-7.72,295.78,44.73,4.02s35.18-316.35,35.76-327.3c.88-17.26-.8-34.56-4.99-51.33l-136.06-7.74Z"/>
    <path class="cls-9" d="M202.12,588.69c1.99.77,4.06,1.33,6.18,1.65,3.04.5,6.15-.39,8.46-2.43,2.48-2.39,2.94-6.52,3.64-10.58,1.4-8.25,2.41-15.72,3.11-21.16.32-2.45.59-4.61.8-6.35.06-.8.2-1.58.42-2.35.1.79.1,1.6,0,2.39-.08,1.52-.23,3.74-.49,6.45-.51,5.42-1.42,12.93-2.81,21.16-.36,2.05-.66,4.08-1.18,6.03-.48,1.93-1.44,3.71-2.79,5.16-1.32,1.23-2.97,2.07-4.74,2.41-1.52.26-3.07.26-4.59,0-2.16-.38-4.25-1.06-6.22-2.01-.75-.29-1.46-.67-2.12-1.12.8.15,1.59.39,2.33.74Z"/>
    <path class="cls-9" d="M210.56,550.37c-.96.83-1.51,2.03-1.52,3.3.16,1.51,1.21,2.78,2.67,3.22,1.42.59,3.05.24,4.1-.87.8-.98,1.12-2.27.87-3.51-.26-1.19-.9-2.26-1.82-3.05.02-.04.4,0,.97.42.8.61,1.36,1.49,1.57,2.48.38,1.47.07,3.02-.85,4.23-.81.83-1.88,1.34-3.04,1.46-2.72.28-5.15-1.7-5.43-4.42.03-1.54.78-2.97,2.01-3.89.79-.62,1.77-.96,2.77-.97.7.04,1.04.3,1.04.3-1.23.06-2.4.52-3.34,1.31Z"/>
    <path class="cls-9" d="M141.76,570.92c10.11-1.22,19.62-5.48,27.25-12.23,2.92-2.58,4.55-4.38,4.61-4.34s-.28.55-.95,1.42c-.97,1.23-2.02,2.39-3.15,3.47-7.52,7.2-17.3,11.58-27.67,12.42-1.56.11-3.12.11-4.68,0-.58.02-1.16-.06-1.71-.21.02-.25,2.45-.19,6.3-.53Z"/>
    <path class="cls-9" d="M259.45,553.65c2.67,3.67,5.68,7.08,8.99,10.18,3.34,3.07,6.96,5.81,10.81,8.21,1.66.9,3.27,1.89,4.82,2.96-1.83-.54-3.58-1.32-5.2-2.33-4.03-2.23-7.78-4.94-11.15-8.08-3.38-3.15-6.36-6.7-8.89-10.58-1.15-1.54-2.09-3.23-2.79-5.01,1.23,1.48,2.36,3.04,3.41,4.65Z"/>
    <path class="cls-2" d="M265.65,381.29l9.22,87.49c5.73,9.31,22.87,14.89,32.52,9.82,9.65-5.08,13.69-21.88,11.4-32.58-12.44-57.97-11.7-56.3-18.34-75.7l-34.8,10.98Z"/>
    <path class="cls-1" d="M135.01,522.34c-.63,5.95-1.78,17.69-2.88,24.71,0,0,69.5,3.24,116.22,1.12,23.02-1.06,32.16-7.41,32.16-7.41,2.43-21.77-4.23-143.68-4.23-143.68l37.58-3.36c-.42-1.06-20.71-52.58-27.06-63.9-4.8-7.93-12.22-13.92-20.99-16.93h0l-30.32-10.43c-4.84,5.92-11.27,10.32-18.53,12.69-12.76,3.72-26-4.06-35.1-13.75l-45.02,19.04h0l-.87.4h0c-3.91,2.03-20.1,11.47-24.97,30.26-8.42,32.52-17.6,62.77-17.6,62.77l46.78,10.92.19,4.53-.28,46.1-5.08,46.91Z"/>
    <path class="cls-4" d="M277.88,416.68c1.31,35.86,2.24,64.93,2.12,64.93s-1.44-29.07-2.86-64.91c-1.42-35.84-2.41-64.91-2.22-64.91.19-.02,1.65,29.03,2.96,64.89Z"/>
    <path class="cls-4" d="M141.9,417.42c-1.5,31.82-2.45,57.59-2.12,57.61s1.82-25.75,3.32-57.55,2.43-57.61,2.12-57.61c-.34,0-1.82,25.73-3.32,57.55Z"/>
    <path class="cls-2" d="M114.38,484.91c20.67,1.73,35.76-18.96,45.36-32.54,7.38-10.43,20.08-37.24,20.08-37.24l-14.56-15.13-4.59-.4-28.92,29.39,1.61-6.03-37.41-8.7s-1.27,10.11-2.79,21.56c-2.73,20.52,2.12,47.48,21.22,49.09Z"/>
    <path class="cls-3" d="M122.35,436.06c4.82-3.53,9.22-6.03,9.06-6.35-3.54,1.24-6.85,3.07-9.77,5.42-3.16,2.01-5.94,4.57-8.21,7.55.23.25,4.1-3.09,8.93-6.62Z"/>
    <path class="cls-2" d="M198.16,363.01l-5.61,3.19h0c2.68.9,5.26,2.08,7.7,3.51,1.29,1.25.47,4.72.47,4.72.85.38,1.58.99,2.12,1.76.73,1.65,1.02,3.45.85,5.25l2.81,4.13c-.03,1.56-.36,3.11-.97,4.55-1.04,2.58-6.6,5.25-6.6,5.25,0,0-1.71,3.34-5.59,9.39s-13.5,10.28-13.5,10.28l-11.36,20.73-17.96-23.27,10.18-12.88,12.69-31.99,8.25-7.62,16.67-5.29,12.86,6.56c-.7,5.69-13.01,1.73-13.01,1.73Z"/>
    <path class="cls-3" d="M196.32,373.08c1.51.21,2.96.76,4.23,1.61,0,.15-1.97-.57-4.23-1.08s-4.23-.55-4.23-.72c1.41-.25,2.85-.19,4.23.19Z"/>
    <path class="cls-3" d="M199.75,379.99c1.28.11,2.51.51,3.6,1.18-1.24-.14-2.47-.35-3.68-.63-1.25-.09-2.49-.26-3.72-.49,1.25-.31,2.55-.33,3.81-.06Z"/>
    <path class="cls-3" d="M201.06,389.68c0-.91.11-1.65.25-1.65s.28.72.3,1.63-.08,1.65-.23,1.65-.32-.72-.32-1.63Z"/>
    <path class="cls-3" d="M198.65,393.66c.08-.83.4-1.63.91-2.29.54-.69,1.28-1.19,2.12-1.44.61-.11,1.02,0,1.02,0-.98.45-1.86,1.09-2.58,1.88-.61.89-1.02,1.9-1.18,2.96-.06,0-.21-.38-.28-1.12Z"/>
    <path class="cls-3" d="M189.13,383.63c.81-1.47,2.39-2.34,4.06-2.26.63.04.97.28.97.28-1.05.06-2.09.32-3.05.76-.88.55-1.64,1.27-2.24,2.12-.06-.02-.04-.4.25-.89Z"/>
    <path class="cls-3" d="M183.35,376.5c.35-.69.89-1.27,1.54-1.67.64-.41,1.36-.65,2.12-.7.59,0,.93.19.93.19-.98.18-1.93.51-2.81.97-1.46.85-1.97,2.12-2.12,2.12-.06-.02-.04-.38.34-.91Z"/>
    <path class="cls-3" d="M178.84,372.72c0-.96.3-1.89.87-2.67.57-.77,1.38-1.34,2.31-1.61.68-.13,1.12-.08,1.14,0s-.4.17-1.02.44c-.79.35-1.47.9-1.99,1.59-.5.69-.83,1.5-.93,2.35-.15.66-.15,1.1-.15,1.1-.06.02-.23-.4-.23-1.21Z"/>
    <path class="cls-3" d="M186.31,365.35c1.42-.01,2.83.1,4.23.32,2.03.26,3.98.98,5.69,2.12-.08.15-2.54-1.02-5.78-1.5s-5.92-.53-5.92-.72c.58-.17,1.18-.25,1.78-.21Z"/>
    <g class="cls-7">
      <path d="M222.18,445.86c1.46,1.63,3.41,2.75,5.56,3.17,4.92,1.42,10.01,2.16,15.13,2.22,4.91.04,10.28-.38,14.18,2.6,2.81,2.16,4.17,5.67,6.03,8.7,3.7,6,9.6,10.32,16.44,12.04l-18.24-54.12c-6.09,2.22-12.86.87-19.34.63-6.47-.23-13.86.8-17.62,6.11-1.91,3.21-3,6.85-3.17,10.58-.38,2.77-.63,5.82,1.04,8.06Z"/>
    </g>
    <path class="cls-4" d="M265,366.05l-38.49.89c-1.57.04-2.86,2.54-3.09,6.01l-4.06,57.65c-.39,3.64.6,7.3,2.79,10.24l36.54.76c2.3-1.56,3.69-4.14,3.72-6.92l5.67-60.24c.4-4.29-1.12-8.44-3.09-8.4Z"/>
    <path class="cls-2" d="M274.43,383.4c-.16,2.81-1.85,5.31-4.4,6.5,1.51,3.23.64,7.07-2.12,9.33,1.63,5.75-3.74,11.7-9.2,13.82-.78-3.05-.55-6.27.66-9.18-1.21,1.79-2.84,3.24-4.76,4.23-2,.95-4.39.28-5.61-1.57-.77-1.97.17-4.2,2.12-5.01-2.5-.68-3.91-2.03-3.6-4.59.56-2.71,2.38-4.99,4.91-6.14-1.76.99-4.02-1.12-3.72-3.24.55-2.01,1.93-3.69,3.79-4.63,2.39-1.6,4.92-2.97,7.57-4.08,2.16-.98,4.49-1.52,6.85-1.59,2.43-.07,4.76.96,6.35,2.79,1.54,1.88,1.59,4.58.13,6.52"/>
    <path class="cls-2" d="M258.21,408.75s-1.29,14.18.19,18.58c2.52,7.47,5.23,20.56,9.58,28.63,8.23,15,11.55,17.65,25.39,21.71,13.84,4.06,18.36-33.15,18.36-33.15l-30.61-27.4-6.69-10.05-.44-25.75-15.78,27.44Z"/>
    <path class="cls-3" d="M253.17,399.4c1.78-1.72,3.96-2.96,6.35-3.62,1.34-.32,2.73-.32,4.06,0,1.1.27,2.11.8,2.96,1.54.57.49,1.03,1.1,1.35,1.78.23.49.23.78.23.78-.5-.83-1.13-1.58-1.86-2.22-.83-.65-1.79-1.11-2.81-1.33-1.25-.28-2.55-.28-3.81,0-2.28.64-4.39,1.78-6.18,3.34-.73.69-1.52,1.32-2.35,1.88.59-.8,1.28-1.53,2.05-2.16Z"/>
    <path class="cls-3" d="M254.23,389.32c.98-.58,2-1.09,3.05-1.54,1.3-.52,2.65-.92,4.02-1.18,1.4-.28,2.83-.28,4.23,0,1.16.21,2.25.69,3.17,1.42.62.49,1.12,1.1,1.48,1.8.14.25.22.52.25.8-.54-.89-1.26-1.66-2.12-2.26-.89-.62-1.91-1.04-2.98-1.23-1.34-.18-2.7-.13-4.02.15-1.34.26-2.65.63-3.94,1.1-1.16.47-2.18.99-3.03,1.42-.9.54-1.86.97-2.86,1.27.87-.64,1.78-1.22,2.73-1.73Z"/>
    <path class="cls-3" d="M308.81,458.66c.23-.61.41-1.24.55-1.88.52-2.36.6-4.8.25-7.19-.55-3.58-1.78-7.03-3.62-10.16-2.23-3.76-4.99-7.19-8.19-10.18-3.45-3.13-6.73-5.9-9.8-8.46s-5.71-4.97-7.83-7.09c-1.67-1.68-3.23-3.47-4.68-5.35-.48-.74-1.01-1.45-1.59-2.12.34.81.76,1.59,1.27,2.31,1.33,2.04,2.83,3.97,4.46,5.78,2.46,2.56,5.04,5,7.74,7.3,3.03,2.5,6.41,5.27,9.71,8.46,3.13,2.92,5.85,6.25,8.08,9.9,1.78,3.01,3.01,6.31,3.62,9.75.5,3.19.37,6.45-.38,9.58.04,0,.13-.23.38-.66Z"/>
  </g>
  <image width="1080" height="1080" transform="translate(103 92) scale(.87)" xlink:href="../../../1.png"/>
</svg>