<?xml version="1.0" encoding="UTF-8"?>
<svg width="512" height="512" id="Layer_1" xmlns="http://www.w3.org/2000/svg" viewBox="0 0 1080 1080">
  <defs>
    <style>
      .cls-1 {
        fill: #042b62;
      }

      .cls-2 {
        fill: #0d6b8c;
      }

      .cls-3 {
        fill: #fefefe;
      }
    </style>
  </defs>
  <path class="cls-1" d="M200.88,166.46c14.12-12.78,29.1-24.4,45.54-34.08,4.16,4.35,3.23,9.89,3.24,15.07.11,35.07.06,70.15.06,105.22,0,228.64.02,457.28-.08,685.92,0,6.75,1.84,14.01-3.21,20.04-16.42-9.7-31.43-21.3-45.52-34.11-1.61-4.12-1.38-8.44-1.38-12.74.02-244.19.03-488.38,0-732.57,0-4.3-.22-8.62,1.36-12.75Z"/>
  <path class="cls-1" d="M353.51,1012.7c-12.24-3.92-24.27-8.34-35.56-14.56-2.64-2.9-3.03-6.5-3.16-10.18-.12-3.31-.09-6.61-.09-9.92,0-288.35-.01-576.7.07-865.05,0-6.79-1.62-14.01,3.19-20.1,10.74-5.84,22.01-10.38,33.76-13.75,3.32,3.45,3.16,7.87,3.16,12.14.09,63.15.1,126.3,0,189.45,0,3.31-.19,6.61-1.11,9.82-1.2,3.74-2.85,7.39-2.84,11.43.08,32.91-.85,65.82.53,98.69.47,1.55.95,3.1,1.94,4.43,4.91,6.91,13.48,11.38,14.21,21.13-1.88,60.78-.3,121.57-.84,182.34-.05,5.59.57,11.25-1.36,16.69-4.09,6.23-10.59,4.05-16.24,4.4-9.88.61-10.43,1.34-9.52,11.3,1.85,20.25,6.84,39.61,15.19,58.15,2.15,4.77,4.52,9.61,4.1,15.15-.17,27.4-.03,54.77-.04,82.15-.03,65,.05,130-.09,195-.02,7.42,1.21,15.39-5.31,21.29Z"/>
  <path class="cls-1" d="M246.43,958.63c0-275.42,0-550.83,0-826.25,11.73-9.11,24.68-16.24,37.78-23.11,4.11,4.38,3.16,9.91,3.18,15.09.12,32.41.05,64.83.06,97.24.05,250.38-.1,500.76.07,751.14,0,3.28.46,6.65-1.35,9.68-14.05-6.58-27.33-14.47-39.74-23.79Z"/>
  <path class="cls-1" d="M286.17,982.43c-2.34-3.92-1.98-8.26-1.98-12.55.01-286.87.01-573.74.02-860.6,11-5.99,21.74-12.48,33.75-16.39,0,301.75,0,603.5,0,905.26-11.28-3.86-21.66-9.53-31.79-15.71Z"/>
  <path class="cls-1" d="M166.99,893.1c-13.5-12.33-25.46-26.02-35.98-40.97-2.44-5.56-3.02-11.39-3.02-17.43.05-192.8.05-385.61,0-578.41,0-6.04.62-11.86,3.01-17.43,10.49-14.97,22.49-28.6,35.98-40.93,3.95,1.75,4.56,5.36,4.98,9.03.41,3.62.3,7.26.3,10.9,0,218.44.03,436.87-.1,655.31,0,6.88,2.42,14.83-5.18,19.93Z"/>
  <path class="cls-1" d="M166.99,893.1c2.2-3.58,2.05-7.55,2.05-11.54-.02-224.03-.02-448.06,0-672.09,0-3.99.15-7.96-2.06-11.54,10.15-11.73,21.56-22.1,33.89-31.48,2.24,3.59,1.91,7.59,1.91,11.55,0,244.99,0,489.97,0,734.96,0,3.96.36,7.97-1.88,11.56-12.33-9.37-23.78-19.7-33.92-31.43Z"/>
  <path class="cls-1" d="M131.01,238.86c.1,3.64.28,7.27.28,10.91.01,197.15.01,394.3,0,591.45,0,3.64-.18,7.27-.27,10.91-13.16-14.79-24.11-31.13-33.81-48.33-1.25-10.85-.9-21.75-.9-32.64,0-150.1,0-300.19,0-450.29,0-11.22-.35-22.45.89-33.63,9.71-17.21,20.68-33.56,33.82-48.37Z"/>
  <path class="cls-1" d="M97.19,287.24c3.62,2.71,2.29,6.66,2.29,10.12.06,165.44.06,330.87,0,496.31,0,3.46,1.33,7.4-2.27,10.13-13.46-20.62-24.98-42.23-33.54-65.36-1.74-3.43-1.06-7.13-1.06-10.71-.02-122.13-.19-244.26.03-366.4,0-2.97-.32-5.94,1.03-8.74,8.58-23.11,19.99-44.78,33.52-65.35Z"/>
  <path class="cls-1" d="M834.78,162.06c17.36,16.77,37.84,30.27,52.46,49.91-.43,84.41-.05,168.82-.24,253.22-.01,6.15,1.1,12.65-3.3,18.04-7.91,4.64-9.5-4.27-14.16-6.62-2.52-2.12-4.4-4.9-7.11-6.84-5.16-5.82-11.49-10.4-16.91-15.94-1.58-1.62-3.15-3.24-4.78-4.82-4.72-5.19-10.38-9.49-14.48-15.3-1.11-2.18-.88-4.34,0-6.51.8-6.26.81-12.53.81-18.81-.01-74.97-.01-149.94,0-224.91,0-4.62-.32-9.28.52-13.84.73-3.95,1.65-8.04,7.18-7.59Z"/>
  <path class="cls-1" d="M590.61,54.76c20.16,1.65,39.81,5.77,59.03,12.02,3.18,3.89,3.13,8.57,3.14,13.2.05,66.38.07,132.76-.02,199.14,0,4.27.14,8.64-2.49,12.42-2.04,1.88-4.58,2.62-7.22,2.71-16.38.52-32.77.65-49.15-.07-2.32-.1-4.5-.87-6.36-2.35-3.21-4.33-2.73-9.41-2.73-14.32-.06-69.38-.13-138.76.14-208.13.02-5.15-2.76-12.34,5.68-14.62Z"/>
  <path class="cls-1" d="M754.88,108.51c19.11,9.43,37.26,20.39,53.91,33.74.81,3.22.9,6.5.9,9.81-.14,77.81,0,155.62-.11,233.43,0,6.83,1.02,13.96-3.5,20.04-5.03,4.33-8.18.18-11.65-2.59-1.11-1.02-2.14-2.13-3.18-3.23-5.07-5.39-10.42-10.51-15.67-15.73-5.44-5.64-10.98-11.18-16.68-16.58-3.87-5.6-13.16-8.32-9.59-17.91.77-74.36.05-148.7.43-223.04.03-6.27-2.02-13.54,5.14-17.94Z"/>
  <path class="cls-1" d="M754.88,108.51c-2.61,4.21-2.06,8.9-2.06,13.51,0,73.4.04,146.8-.12,220.2,0,3.7,2.7,9.03-3.8,10.7-4.88.57-5.9-4.78-9.52-6.16-7.79-5.76-13.79-13.34-20.58-20.12-9.72-8.01-17.8-17.57-25.75-27.24-2.42-2.95-3.7-6.18-3.39-10.03.93-63.87.09-127.71.45-191.56.03-5.8-1.37-12.03,3.18-17.06,21.66,6.75,42.05,16.32,61.58,27.77Z"/>
  <path class="cls-1" d="M590.61,54.76c-4.32,3.23-2.52,7.91-2.53,11.95-.11,74.94-.09,149.87-.1,224.81-1.71,1.76-3.9,2.54-6.24,2.64-15.18.66-30.36.68-45.53-.01-2.34-.11-4.53-.88-6.38-2.43-3.11-4.37-2.63-9.45-2.63-14.36-.06-70.39-.05-140.78-.03-211.18,0-1.98.12-3.97.13-5.95.04-7.23,2.85-11.24,10.83-10.13,4.87.67,9.9-.77,14.74.83,12.74-.31,25.32.86,37.73,3.82Z"/>
  <path class="cls-1" d="M879.92,483.96c5.53-2.73,3.9-7.88,3.9-12.26.07-82.87.01-165.73.18-248.6,0-3.75-2.69-8.88,3.24-11.13,17.45,18.24,33.55,37.52,46.05,59.59-1.2,7.22-.5,14.49-.51,21.73-.09,73.35-.04,146.7-.08,220.05,0,5.58.64,11.27-1.66,16.62-3.24,4.43-6.23,2.22-8.93-.57-2.98-3.07-5.57-6.54-9.07-9.08-7.51-5.65-13.55-12.87-20.4-19.25-3.96-5.9-12.33-8.54-12.72-17.1Z"/>
  <path class="cls-1" d="M552.88,50.94q-22.46.69-22.46,23.3c0,72.43,0,144.86-.01,217.29-4.14,3.7-9.32,3.24-14.15,2.91-11.37-.78-23.11,2.74-34.09-2.73-2.92-4.05-2.6-8.77-2.61-13.36-.07-71.01-.06-142.02,0-213.03,0-4.91-.48-10.01,3.21-14.13,23.36-2.82,46.73-3.23,70.11-.24Z"/>
  <path class="cls-1" d="M63.66,352.59c2.62,9.68,2.11,19.58,2.11,29.45,0,108.98,0,217.97,0,326.95,0,9.87.51,19.77-2.11,29.45-15.21-32.11-24.6-66.1-31.01-100.84-17.65-95.6-8.29-188.66,27.76-278.99.84-2.1,2.16-4.01,3.25-6.01Z"/>
  <path class="cls-1" d="M552.73,1040.13c-24,3.02-47.98,2.41-71.94-.39-3.03-3.15-3.13-7.18-3.13-11.14-.1-57.76-.16-115.53.02-173.29,0-2.31.21-4.62.87-6.84,1.71-5.12,4.74-3.73,7.92-1.6,5.22,4.83,10.01,10.12,15.18,15.02,5.25,5.48,10.67,10.8,16.1,16.11,5.43,5.58,10.94,11.08,16.59,16.46,2.97,2.99,5.69,6.15,7.43,10.05,7.83,7.75,9.83,17.23,9.69,27.98-.39,28.65-.09,57.32-.16,85.98-.02,7.26.22,14.48,1.45,21.65Z"/>
  <path class="cls-1" d="M482.76,51.18c0,80.11,0,160.23-.01,240.34-15.41,5.03-30.83,4.56-46.28.16-2.91-4.06-2.59-8.79-2.59-13.38-.07-69.09-.06-138.18-.01-207.26,0-4.94-.3-10,3.13-14.21,15.05-3.54,30.27-5.71,45.76-5.64Z"/>
  <path class="cls-1" d="M353.51,1012.7c2.86-9.99,2.16-20.24,2.16-30.43.02-86.17,0-172.35.07-258.52,0-3.83-1.31-7.97,1.59-11.44,10.96,11.23,19.71,24.36,30.62,35.64,3.14,3.24,7.41,5.78,6.55,11.34,1.64,6.81,2.1,13.69,2.1,20.66,0,78.64-.07,157.27,0,235.91,0,3.28.4,6.64-1.28,9.7-14.28-3.15-28.23-7.4-41.8-12.85Z"/>
  <path class="cls-1" d="M437,56.83c.03,78.23.06,156.47.09,234.7-15.4,5.02-30.83,4.54-46.27.16-2.91-4.05-2.59-8.78-2.6-13.37-.07-65.75-.06-131.5,0-197.25,0-4.92-.38-10,3.18-14.17,14.74-5.46,30.05-8.34,45.62-10.08Z"/>
  <path class="cls-1" d="M480.82,845.2c-.01,64.85-.03,129.69-.04,194.54-16.11-.22-31.95-2.6-47.65-6.02-3.08-3.14-3.13-7.18-3.14-11.13-.1-71.66-.17-143.31.02-214.97,0-1.98.18-3.96.61-5.88,1.6-6.12,5.07-5.04,8.64-1.98,6.52,5.59,12.27,12,18.42,17.97,5.94,6.37,12.33,12.32,18.33,18.65,2.33,2.46,5.79,4.48,4.81,8.82Z"/>
  <path class="cls-1" d="M927.56,531.61c3.41-3.27,1.9-7.48,1.91-11.25.09-78.81.05-157.61.12-236.42,0-4.38-1.64-9.49,3.7-12.38,14.83,22.96,29.88,45.8,39.89,71.44-1.41,3.51-.8,7.18-.8,10.79.05,66.09.03,132.18-.03,198.27,0,5.54.78,11.33-3.02,16.19-3.29,3.08-5.95,1.02-8.51-1.15-3.48-2.96-6.43-6.49-10.14-9.18-6.14-3.56-8.91-10.53-14.64-14.52-3.55-3.4-9.08-5.38-8.47-11.77Z"/>
  <path class="cls-1" d="M433.17,797.53c-.01,78.73-.03,157.46-.04,236.19-12.85-1.56-25.45-4.31-37.81-8.17-2.67-3.85-1.89-8.26-1.89-12.5-.03-78.94-.17-157.87.24-236.81.04-6.84-4.04-13.39-.96-20.25,3.71.02,5.59,2.94,8.03,4.99,8.9,9.04,18.03,17.87,26.85,26.99,2.57,2.66,6.49,4.77,5.59,9.55Z"/>
  <path class="cls-1" d="M693.29,80.73c-.02,66.54-.04,133.08-.04,199.62,0,4.61.32,9.25-2.1,13.47.29,4.9,1.69,9.79.67,14.7-.59,2.82.37,7.23-5.03,6.46-2.68-3.31-2.59-7.34-2.42-11.18.33-7.36-3.4-9.33-10.14-9.6-8.25-.33-16.94,2.39-24.7-2.68.03-74.91.06-149.82.09-224.74,14.91,3.53,29.75,7.26,43.65,13.95Z"/>
  <path class="cls-1" d="M965.3,569.34c5.52-2.73,3.89-7.88,3.9-12.27.07-68.69,0-137.38.26-206.06,0-2.51-3.76-8.36,3.71-8.01,17.32,35.21,28,72.6,35.28,110.93,9.94,52.37,11.07,105.09,4.11,157.95-.17,1.27-.83,2.47-1.25,3.7-4.11-.95-6.18-4.84-9.67-6.69-7.26-4.5-10.24-13.24-17.59-17.65-2.22-1.53-4.28-3.26-6.23-5.12-3.98-5.74-12.16-8.35-12.53-16.78Z"/>
  <path class="cls-1" d="M391.39,66.91c0,74.88.02,149.75.03,224.63-13.23,4.67-26.47,4.66-39.7.01,0-70.81,0-141.61,0-212.42,12.94-5.01,25.8-10.25,39.67-12.23Z"/>
  <path class="cls-1" d="M802.5,406.52c4.74-3.97,3.92-9.44,3.92-14.66.01-79.18-.02-158.36.09-237.54,0-4.05-1.76-8.68,2.28-12.07,9.61,5.37,18,12.32,25.99,19.81-6.2,2.66-4.47,8.22-4.47,12.91-.07,81.57-.01,163.14-.17,244.71,0,3.69,2.69,9.03-3.82,10.67-.7.67-1.51.87-2.44.63-5.77-3.57-9.72-9.13-14.74-13.52-2.39-3.53-7.78-5.26-6.64-10.93Z"/>
  <path class="cls-1" d="M552.73,1040.13c-5.98-1.02-4.37-5.77-4.38-9.42-.09-29.77-.44-59.54.12-89.3.26-14.04-.07-27.43-10.07-38.56,5.69-.87,7.53,4.42,11.12,6.91,5.08,5.25,10.3,10.34,15.46,15.51,2.16,2.27,4.36,4.49,6.64,6.65,6.32,6.39,12.71,12.71,19.07,19.06,1.01.95,1.98,1.93,2.95,2.93,5.1,6.29,12.83,10.34,15.78,18.49.14,1.11.1,2.2-.08,3.3-.84,15.06-.23,30.11-.46,45.15-.07,4.54.39,9.25-2.99,13.05-17.48,4.09-35.19,6.2-53.15,6.23Z"/>
  <path class="cls-1" d="M994.84,690.45c-1.66,8.29-4.34,16.23-7.95,23.87-2.82,5.67-9.05,2.4-13.19,5.11-11.79,7.73-25.88,11.51-36.57,21.21-2.53,2.29-6.55,4.68-8.8,1.95-5.65-6.84-8.24-.2-12.57,1.36-14.31,5.16-24.04,17.55-39.03,22.29-13.18,4.17-25.88,11.33-37.02,20.3-3.12,2.51-6.28,4.87-10.61,4.55-1.61-.2-3.73-1.69-4.66-.87-7.74,6.83-19.16,5.43-26.87,12.35-3.04,2.73-6.49,5.81-11.3,3.22-1.11-5.52,2.43-9.25,5.11-13.32,4.91-5.43,9.98-10.52,17.72-11.89,2.99-.53,5.05-3.05,7.12-5.18,3.73-3.83,7.65-7.24,13.2-8.25,3.75-.68,6.4-3.32,8.93-5.95,5.08-5.3,10.39-10.17,17.8-12.05,1.93-.49,3.8-1.53,5.02-3.07,6.89-8.72,16.5-12.8,26.65-16.05,9.98-7.53,22.61-10.15,32.42-18.33,6.48-5.41,15.48-6.93,23.26-10.39,11.57-5.15,23.57-9.73,36.22-12.03,5.18-.94,10.35-2.82,15.11,1.17Z"/>
  <path class="cls-1" d="M828.27,789.73c12.02-5.18,21.76-14.25,33.88-19.43,6.88-2.94,12.76-7.97,20.74-8.7,2.68-.24,6.09-2.02,7.59-4.18,7.3-10.52,21.61-10.51,29.46-20.14,1.42-1.74,4.46-3.62,6.34.36,3.34,7.08,6.71,3.71,10.49.26,11.56-10.57,27.09-14.38,39.85-22.99,2.82-1.91,6.95,2.55,10.28-.58-3.43,11.7-7.81,23.01-13.72,33.7-4.38,5.27-10.7,7.85-16.67,10.06-7.66,2.83-15.94,3.83-22.07,10.13-1.63,1.67-4.31,1.36-6.64.85-1.95-.42-4.33-1.19-5.75.19-6.11,5.92-14.93,6.81-21.39,11.19-11.38,7.73-22.92,13.31-36.62,15.47-6.59,1.04-12.97,4.88-18.84,8.45-6,3.64-10.58,10.09-19.14,6.06-1.95-.92-3.87,2.04-5.7,3.4-3.1,2.28-5.85,5.66-10.46,3.65-.38-9.78,8.58-23.3,18.38-27.74Z"/>
  <path class="cls-1" d="M810.4,817.53c3.66-1.6,7-3.63,9.68-6.68,3.2-3.65,6.41-7.17,11.04-1.53,1.69,2.06,3.71,1.09,4.95-.67,6.36-9.04,17.78-9.52,26.05-15.46,4.45-3.2,10.59.98,16.42-3.15,6.71-4.75,14.54-8.46,21.8-12.42,6.99-3.82,15.16-5.72,21.31-11.61,1.51-1.45,3.58-1.34,5.38.23,1.94,1.69,4.51,2.33,6.29.44,10.86-11.5,27.39-10.73,39.86-18.66-1.67,7.45-6.12,13.51-9.99,19.87-17.02,8.32-32.49,19.39-48.94,28.5-13.91,7.7-25.28,20.41-41.98,22.96-11.65,2.26-23.04,5.2-32.56,12.86-.51.41-1.1,1.15-1.6,1.08-11.26-1.55-18.89,6.75-28.22,10.39-11.41,4.45-23.93,5.69-34.61,12.31-3.57,2.21-7.6,4.17-12.04,1.72-1.02-7.46,4-12.9,6.42-19.22,9.52-7.73,21.3-12.21,29.97-21.31,2.73-2.86,7.26-2.66,10.77.35Z"/>
  <path class="cls-1" d="M832.51,930.79c-43.93,37.05-93.62,63.91-147.58,83.13-8.97,3.19-17.83,6.93-27.42,8.12-5.26-2.72-10.43-5.51-10.36-12.62,9.38-7.78,20.08-13.64,30.62-19.49,6.1-3.38,12.12-6.39,17.05-11.43,3.26-3.33,7.05-6.1,12.23-5.36,2.97,1.15,5.72,1.27,8.11-1.38,4.11-4.56,10.19-5.75,15.05-8.68,9.4-5.66,19.92-7.96,29.43-12.71,6.43-3.21,12.69-5.36,19.7-5.47,3.35-.05,7.2.44,9.55-1.77,8.58-8.07,21.02-8.95,29.75-16.77,6.5-5.83,10.64-1.44,13.87,4.43Z"/>
  <path class="cls-1" d="M832.51,930.79c-6.97-7.34-11.25-.98-18,1.59-14.37,5.47-26.55,15.34-43.28,17.21-11.39,1.27-24.28,6-35.22,13.8-7.21,5.14-17.16,6.57-23.74,13.94-1.83,2.05-3.97-.86-5.12-2.95,7.91-8.24,14.89-17.49,26.2-21.8,3.98-1.52,6.72-5.27,9.47-8.51,4.31-5.06,8.12-10.19,16.16-9.2,4.05.5,5.78-3.79,7.85-6.7,2.09-2.95,3.94-6.07,6.27-8.86,5.15-5.36,13.2-5.6,18.59-10.56,4.8-4.7,9.78-8.91,17.24-8.08,2,.22,3.85-1,5.27-2.42,5.3-5.31,12-6.15,18.85-8.27,9.05-2.8,19.18-4.26,27.48-9.86,6.05-4.08,12.69-7.16,19.79-8.83,4.07-.96,8.56-1.67,12.05,2.03-17.62,21.59-37.72,40.6-59.86,57.48Z"/>
  <path class="cls-1" d="M1002.99,607.09c3.62,2,6.36,4.87,8.32,8.5.52,9.41-3.14,18.12-4.52,27.21-3.44,3.24-8.04,4.69-11.73,7.57-12.38,3.12-22.8,10.11-33.3,16.93-3.43,2.22-7.01,3.64-11.19,3.13-2.32-.28-4.9-.54-6.67,1.09-5.97,5.51-12.12,9.05-20.36,4.49-1.35-.74-3.28.6-4.35,1.84-6.27,7.29-17.09,7.1-23.41,14.33-1.06,1.21-2.98,2.13-4.51,1.69-13.1-3.79-21.21,6.79-31.51,10.92-4.6,1.85-8.64,5.12-13.84,2.06-.96-1.25-1.17-2.66-.89-4.18.77-1.07-.67-.18.39-.87,12-7.77,22.25-18.36,36.34-22.76,1.91-.6,4.06-.89,5.24-2.46,8.06-10.81,21.7-14.47,30.67-24.13,2.95-3.18,6.75-5.19,11.2-5.68,12.33-5.35,22.52-14.2,34.13-20.77,7.38-4.18,13.95-9.48,23.1-9.9,6.73-.31,9.83-8.62,16.9-9.03Z"/>
  <path class="cls-1" d="M871.95,817.53c15.19-2.52,25.93-14.04,38.01-21.59,11-6.87,24.17-11.04,33.52-20.93,5.12-5.41,11.98-7.92,19.69-7.12-7.87,20.11-19.67,37.95-31.95,55.53-3.65,1.35-7.9.9-11,4-4.96,4.95-9.72,10.56-17.4,3.46-1.84-1.7-4.13.91-6.07,2.12-15.6,9.79-31.38,19.25-49.12,24.83-8.52,9.38-21.79,10.36-31.49,18.13-7.05,5.65-10.42-2.69-14.21-7.16,10.94-5.01,17.58-16.11,28.98-20.47,3.47-1.33,6.19-3.62,8.6-6.38,5.42-6.2,10.92-12.01,19.6-14,5.61-1.29,7.76-7.86,12.82-10.41Z"/>
  <path class="cls-1" d="M846.14,855.25c18.69-5.12,35-14.87,50.8-25.74,2.82-1.94,6.07-7.07,9.6.61,2.98,6.48,6.38.76,8.89-1.56,4.56-4.21,8.37-10.03,15.81-5.14-11.39,17.85-24.07,34.7-38.86,49.89-11.91-1.71-21.85,3.18-31.19,9.63-3.66,2.53-7.33,4.45-11.87,4.08-3.84-.31-7.14.57-9.78,3.62-3.03,3.51-5.85,5.22-11,2.23-4.51-2.62-7.41,2.69-10.48,5.42-3.56,3.16-5.98,7.37-12.49,5.04-6.05-2.17-8.24,5.63-13.02,7.53-2.72-5.64,1.18-9.53,4.92-11.25,10.48-4.79,16.36-13.99,23.33-22.14,3.49-4.08,6.94-7.59,12.27-9.3,6.35-2.05,9.21-8.09,13.09-12.9Z"/>
  <path class="cls-1" d="M995.07,648.76c2.61-4.54,6.86-5.86,11.73-5.96-2.29,16.31-6.44,32.15-11.95,47.65-13.81,1.07-26.82,4.15-39.99,9.3-9.13,3.57-17.23,10.69-27.8,10.73-1.48,0-3.6.82-4.32,1.95-7.02,11.16-22.38,9-30.15,18.99-.71.92-3.12.52-4.74.73-1.9-5.09,1.37-9.42,2.09-14.12,3.1-6.53,7.94-11.28,14.68-13.93,3.47-1.36,6.35-3.46,8.92-6.07.69-.71,1.3-1.64,2.14-2.04,14.08-6.61,26.17-16.54,39.87-23.76,1.42-.75,3.5-.64,4.54-1.82,9.44-10.85,23.39-14.34,34.99-21.66Z"/>
  <path class="cls-1" d="M647.57,1010.13c3.31,3.97,6.62,7.94,9.93,11.91-16.77,5.87-33.95,9.93-51.63,11.86,0-16.7.02-33.4-.02-50.1,0-3.94-.18-7.88,2.01-11.42,7.17-.53,9.36,6.16,13.72,9.64,3.31,2.63,6.1,5.92,9.13,8.91,5.32,6.66,13.29,11,16.85,19.2Z"/>
  <path class="cls-3" d="M351.71,291.55c13.23,0,26.47,0,39.7-.01,15.22.77,30.45.84,45.67,0,15.22.77,30.44.84,45.67,0,15.88.8,31.77.83,47.65,0,19.19.8,38.39.82,57.58,0,20.52.82,41.04.82,61.56,0,9.82.17,19.66.76,29.46.35,6.79-.28,9.57,1.76,8.87,8.77-.45,4.52.15,9.15.28,13.73,1.09,5.89-2.93,9.85-5.6,14.2-9.12,14.86-18.69,29.46-27.53,44.5-9.11,13.12-16.97,27.04-25.67,40.42-11.07,18.4-23.21,36.14-33.78,54.84-2.95,4.85,1.05,5.62,4.08,6.52,7.91,2.33,15.56,5.32,22.98,8.89,5.29,2.69,10.49,5.54,15.44,8.82,6.14,4.65,13.08,8.22,18.44,13.91,5.25,5.57,10.87,10.79,16.13,16.35,3.54,4.7,6.63,9.71,10.11,14.46,4.11,6.18,7.49,12.76,10.75,19.41,2.13,4.79,3.51,9.85,5.4,14.73.97,2.85,1.97,5.68,2.98,8.52,3.34,9.75,3.49,20.06,5.4,30.07,1.03,6.21.79,12.46.69,18.71.64,9.69-1.48,19.11-2.64,28.63-2.29,10.23-4.24,20.57-8.11,30.39-5.33,13.72-12.17,26.65-20.39,38.86-14.41,18.91-31.69,34.69-51.77,47.43-26.72,14.97-55.11,24.46-85.84,26.42-19.77,2.69-39.4,1.05-58.97-1.92-29.58-6.24-57.82-15.51-80.84-36.36-2.24-2.05-4.47-4.1-6.71-6.15-12.78-13.77-26.44-26.82-35.38-43.69-10.84-23.35-18.63-47.53-20.91-73.35-1.06-12.05-1.42-11.98,10.46-12.04,5.58-.03,11.16-.21,16.75-.32,6.5-4.46,13.88-2.49,20.91-2.72,7.48-.25,14.98-.33,22.46.13,13.64-.25,27.28-.37,40.91.05,5.19.17,10.61-.87,15.22,2.63,3.5,5.29,3.37,11.71,5.32,17.49,2.6,7.73,5.64,15.17,11.66,20.97,10.75,12.18,24.15,17.95,40.44,16.73,9.6.42,18.3-2.54,26.57-7.08,20.14-12.34,26.62-31.37,26.37-53.71-.1-9.28-2.47-17.98-6.65-26.22-4.61-7.92-10.45-14.59-18.85-18.69-14.21-7.62-29.58-8.59-45.24-7.97-21.95.13-43.9,1.06-65.82-.5-4.66-1.11-6-4.66-6.3-8.84-.83-11.27-.56-22.2,6.58-31.97,4.24-5.8,7.44-12.35,11.24-18.46,14.15-21.82,27.21-44.34,40.75-66.55,6.07-8.95,11.46-18.33,16.88-27.69,1.12-1.94,4.09-3.99,1.09-6.76-47.12-.26-94.15-.03-141.18-.06-5.63,0-11.17-.19-16.46-2.32-2.28-2.91-1.31-6.33-1.31-9.53-.07-31.25-.08-62.51.01-93.76.01-3.68-1.63-8.18,3.51-10.21Z"/>
  <path class="cls-1" d="M407.31,626.59h-43.68c0-59.71,0-119.42-.02-179.13,0-8.22-.3-16.44,1.98-24.46,4.62-2.38,6.49,1.86,8.81,4.05,9.12,8.63,17.75,17.76,26.84,26.44,4.31,4.77,10.22,8.54,9.98,16.14-1.71,46.95-.25,93.91-.8,140.85-.06,5.5,1.14,11.36-3.11,16.11Z"/>
  <path class="cls-1" d="M399.14,454.67c-11.18-10.56-22.37-21.12-33.55-31.67-4.66-5.43-9.33-10.87-13.99-16.3,8.41-2.37,16.99-.94,25.49-1.06,18.83-.25,37.67-.06,56.48-.09,4.88-.23,5.46,2.72,4.53,6.47-.72,2.93-2.41,5.48-4.4,7.68-9.75,10.76-20.19,20.88-29.51,32.03-1.27,1.52-3.01,2.58-5.05,2.94Z"/>
  <path class="cls-2" d="M437.08,406.72c-28.5,0-56.99-.02-85.49-.02-.7-.55-1.39-1.1-2.09-1.65,53.56-.06,107.12-.12,160.68-.16.65,0,1.36.01,1.93.27.26.12.23.87.33,1.33-10.15,5.83-21.17,2.2-31.79,2.94-10.48.44-20.96.25-31.43.2-4.25-.02-8.58.12-12.13-2.91Z"/>
  <path class="cls-1" d="M699.38,579.24c-2.3-2.19-2.4-5.01-2.22-7.9,21.46-3.31,27.68-22.13,37.7-37.07.35-.56.64-1.24,1.16-1.59,16.1-10.97,31.29-23.64,51.03-27.9,2.66-.57,5.15-1.3,7.1-3.14,8.03-7.57,18.85-11.73,28.24-15.01,11.65-4.06,20.93-13.89,34.09-13.92,2.91,0,4.95-3.08,7.52-4.53,3.16.83,3.52,4.44,5.95,5.99,2.65,5.26-1.72,7.29-4.81,9.13-26.89,15.94-52.58,33.49-75.48,54.9-1.44,1.34-3.27,2.23-5.04,3.14-4.77,2.35-9.87,3.59-14.99,4.91-9.96,2.57-19.53,6.07-26.88,13.84-2.52,2.66-5.46,4.89-9.19,5.5-5.82.95-10.34,4.05-14.35,8.15-5.53,5.65-12.12,7.59-19.82,5.49Z"/>
  <path class="cls-1" d="M691.54,557.42c-3.54-6.56-7.08-13.11-10.62-19.67,9.02-8.23,16.96-17.67,29.53-21.36,8.63-2.53,14.04-11.9,23.91-12.51,12.83-9.99,27.91-16.21,41.54-24.84.84-.53,1.67-1.31,2.6-1.4,17.67-1.69,31.25-11.34,44.96-21.6,5.13-3.84,12.83-4.48,18.8-7.97,1.33,1.33,2.66,2.66,3.99,3.99-.14,8.15-6.45,10.99-12.44,13.32-5.04,1.96-9.64,4.05-13.02,8.39-1.01,1.29-2.28,2.82-3.76,3.11-16.21,3.17-25.73,17.26-39.93,24.23-18.02,8.85-34.64,21.03-48.8,35.86-7.59,10.66-20.73,13.28-30.39,20.97-1.94,1.55-4.35,1.18-6.35-.5Z"/>
  <path class="cls-1" d="M734.94,505.8c-14.99,8.08-30.96,14.45-44.03,25.87-2.89,2.53-6.64,4.08-9.99,6.08-4.25-3.96-7.19-8.88-10.09-13.83,1.31-4.57,4.9-7.05,8.85-8.78,7.08-3.09,13.26-7.32,18.67-12.81,2.37-2.4,5.15-4.21,8.73-4.04,4.01.19,6.74-2.08,9.56-4.49,10.47-8.97,22.73-15.46,34.24-22.79,10.9-6.94,20.74-16.51,34.36-19.05,3.39-.63,5.56-4.51,8.12-7.07,4.53-4.53,9.21-8.66,16.25-8.07,6.11.51,8.29-7.87,14.76-6.51.65.02,1.3.03,1.95.03.69,1.27,1.38,2.55,2.07,3.82-2.26,9.32-9.01,15.74-16.92,18.92-8.12,3.26-14.15,8.06-19.4,14.43-3.07,3.73-6.2,6.8-11.54,6.1-2-.26-4.41-.13-5.52,1.5-10.01,14.65-29.39,17-40.08,30.69Z"/>
  <path class="cls-1" d="M784.58,539.56c12.18-10.52,23.17-23.13,36.89-30.95,12.47-7.1,22.1-18.08,35.6-23.48,5.16-2.06,11.47-3.97,12.88-10.96,4.64,1.92,6.52,6.65,9.96,9.78,4.65,5.27,9.3,10.54,13.95,15.81.96,4.61-2.3,7.38-5.54,8.06-13.13,2.77-23.63,11.08-35.66,16.05-5.46.04-10.27,1.33-14.15,5.7-2.73,3.08-7.34,5.81-10.58,3.16-11.99-9.83-19.27.89-27.83,5.64-3.45,1.92-6.37,4.84-10.72,4.27-2.02-.27-3.75-1.22-4.81-3.1Z"/>
  <path class="cls-1" d="M727,535.59c11.67-8.49,20.32-19.96,33.81-27.31,12.31-6.7,26.77-12.07,36.28-23.86,3.15-3.9,6.8-7.22,12.46-6.6.61.07,1.51-.09,1.86-.5,9.55-11.28,26.79-11.94,34.83-25.27,5.92,5.38,11.84,10.75,17.76,16.13-.83,5.51-4.23,7.86-9.59,7.84-1.65,0-3.99-.63-4.83.21-9.53,9.57-23.24,11.06-34.63,16.65-10.14,4.98-18.48,16.12-31.88,14.08-.6-.09-1.37.15-1.89.5-14.46,9.83-31.64,15.38-44.25,28.12-3.31,1.94-6.62,3.09-9.93,0Z"/>
  <path class="cls-1" d="M734.94,505.8c5.39-5.71,9.83-14.33,16.39-16.46,10.26-3.35,16.88-9.21,22.61-17.37.51-.73,1.91-1.66,2.44-1.43,10.9,4.71,13.57-5.65,19.09-10.49,4.41-3.86,8.49-6.92,14.7-8.63,8.17-2.25,12.24-11.28,18.22-17.25,5.28,3.98,9.94,8.58,13.86,13.9-3.01,5.11-6.79,8.8-13.4,8.21-1.5-.13-3.89.32-4.52,1.34-6.57,10.77-20.36,11.08-28.29,19.76-.65.71-1.57,1.75-2.33,1.72-23.71-.76-38.95,16.85-57.8,26.58-.27.14-.65.08-.98.11Z"/>
  <path class="cls-1" d="M621.79,485.74c-8.94-3.28-17.77-6.92-26.86-9.74-7.3-2.26-4.92-5.16-1.37-8.67,10.78-8.33,24.64-11.57,34.53-21.51,9.1-9.15,20.39-15.37,31.57-21.64,2.9-1.62,5.74-3.15,8.99-3.95,8.45-2.09,16.76-5.75,22.73-11.47,9.73-9.33,22.64-12.77,33.5-19.93,9.18-6.06,17.66-13.43,27.42-18.71,2.77-1.5,4.84-4.76,8.72-3.45,5.84,4.74,11.34,9.82,15.72,15.99-1.58,4.5-5.67,6.8-9.4,8.24-14.81,5.71-26.42,16.7-40.15,24.29-14.52,8.03-29.89,16.29-42.1,28.37-10.11,9.99-21.39,18.13-33.53,25.66-9.72,6.02-18.69,13.04-29.77,16.52Z"/>
  <path class="cls-1" d="M761.02,366.67c-8.18,6.57-16.28,15.23-25.04,18.58-11.26,4.31-17.96,14.92-30.74,17.11-8.9,1.53-15.64,11.13-24.47,15.86-7.72,4.13-16.14,6.21-23.92,10.5-15.48,8.55-27.55,21.07-41.96,30.42-5.84,3.79-13.86,6.32-21.32,8.18,10.25-18.96,22.25-36.83,34.19-54.73,3.27.6,6.61,1.44,9.55-.88,19.74-15.56,42.55-26.34,63.76-39.52,13.69-8.51,24.51-21.08,39.77-27.01,3.99,1.21,4.97,5.57,8.07,7.71,4.04,4.59,8.08,9.17,12.12,13.76Z"/>
  <path class="cls-1" d="M621.79,485.74c3.03-3.67,5.17-8.9,11.68-6.38.66.26,2.06-.37,2.61-1.02,8.79-10.32,22.47-13.84,32.05-22.52,10.51-9.52,20.36-20.92,32.62-26.84,11.6-5.6,19.24-17.6,32.93-19.14,2.11-.24,4.57-1.66,5.97-3.3,9.96-11.76,25.3-15.06,37.09-23.88,5.98,4.58,11.26,9.87,15.85,15.85.43.98.44,2.24-.43,2.61-14.93,6.26-27.55,16.54-41.81,24.08-10.45,5.53-21.17,11.24-30.68,18.76-9.73,7.7-19.94,14.9-30.38,21.6-15.43,9.91-32.04,17.9-47.45,27.9-1.44.93-2.95,1.41-4.63.62-5.14-2.79-10.28-5.57-15.42-8.36Z"/>
  <path class="cls-1" d="M637.21,494.09c13.73-11.87,30.98-17.89,45.97-27.72,13.08-8.58,25.37-18.18,38.16-27.1,9.32-6.5,19.39-12.17,29.71-16.93,6.99-3.23,12.73-8.09,19.26-11.86,7.31-4.22,14.54-8.54,22.28-11.96.66.66,1.32,1.31,1.99,1.97-.35,7.95-5.98,11.07-12.4,13.23-2.13.71-4.93-.14-6.61,1.59-13.78,14.2-33.69,21.03-45.12,38.19-6.43,9.65-14.11,18.36-26.69,20.54-2.91.5-5.32,2.84-7.04,5.27-4.57,6.45-9.93,10.93-18.33,12.03-4.6.6-7.29,5.33-9.39,9.58-3.94,3.51-6.57,9.6-13.64,6.96-6.04-4.59-12.09-9.18-18.13-13.77Z"/>
  <path class="cls-1" d="M667.43,499.85c2.33-7.16,6.6-11.87,14.72-11.97,1.58-.02,3.64-.13,4.67-1.08,19.78-18.26,44.41-31.18,59.9-54.17.55-.82,1.02-2.39,1.56-2.4,14.54-.41,19.66-17.86,34.41-18.68,5.26-.29,8.69-6.46,11.88-11.06,2.64,2.01,5.28,4.03,7.92,6.04,2.66,3.31,5.32,6.61,7.99,9.92-10.71,7.12-20.05,15.95-29.88,24.16-1.53,1.28-3.29,3.19-5.08,2.83-14.72-2.98-20.85,10.61-31.01,16.22-5.67,3.13-11.21,6.5-16.91,9.66-9.36,5.19-18.97,10.28-27.73,16.45-8.49,5.98-18.16,9.41-26.96,14.58-1.69.99-3.8,1.22-5.49-.49Z"/>
  <path class="cls-1" d="M740.82,345.2c-12.18,8.84-22.88,19.21-36.09,27.3-14.31,8.76-29.72,16.3-43.23,26.71-7.66,5.9-17.44,8.71-24.52,16.04-2.22,2.3-7.63,3.41-9.24-2.64,7.48-13.87,16.06-27.07,24.88-40.11,14.24-5.89,25.82-15.81,36.4-26.41,9.33-9.35,21.17-13.86,31.88-20.55,6.64,6.56,13.28,13.12,19.91,19.67Z"/>
  <path class="cls-1" d="M720.91,325.52c-3.74,5.17-8.73,7.87-14.67,10.61-11.02,5.08-18.83,15.12-28.13,22.91-7.49,6.27-14.68,13.35-25.48,13.45,11.84-19.36,23.68-38.73,35.52-58.1,3.25-6.54-1.92-14.29,3.01-20.56,9.51,10.95,18.92,22,29.75,31.7Z"/>
  <path class="cls-1" d="M852.1,521.69c11.73-5.52,22.09-14.02,35.53-15.94,2.86-.41,4.89-3.21,6.24-5.98,6.59,6,13.19,12,19.78,18,2.53,4.27-.49,6.15-3.59,7.45-15.81,6.64-29.42,16.96-43.89,25.84-5.35,3.29-10.32,7.23-17.15,6.46-7.91.43-14.11,5.87-20.13,9.42-10.36,6.09-21.65,10.54-31.47,17.66-11.69,8.48-25.4,13.83-36.79,22.93-2.34,1.87-5.63,1.69-8.63,1.49-2.7-.18-5.73-.19-7.47,1.86-7.8,9.14-21.52,8.19-29.28,17.55-2.35,2.83-6.37,3.49-9.79.48-.16-6.6-.33-13.2-.49-19.8,5.49-2.13,10.9-4.27,14.86-9.07,2.58-3.13,6.2-4.83,10.32-5.34,2.31-.29,4.74-.73,6.42-2.37,14.16-13.83,33.75-19.15,48.95-30.58,11.58-8.71,24.61-14.68,36.44-22.64,9.33-6.28,18.75-14.04,30.15-17.42Z"/>
  <path class="cls-1" d="M848.13,555.44c3.3.1,6.87.42,9.44-1.86,11.77-10.44,27.79-14.36,39.03-25.62,2.84-2.85,6.49-4.34,10.65-4.33,3.89.01,6.14-1.88,6.4-5.87,6.34,2.91,8.53,9.99,13.92,13.85,2.55,4.08,5.91,7.35,9.9,10,2.54,3.98-.1,7.29-2.99,7.84-11.51,2.18-19.15,11.16-28.83,16.37-11.5,6.19-23.26,11.65-35.04,17.17-11.17,6.01-23.35,9.55-34.14,17-7.43,5.14-17.22,8.89-27.2,9.21-1.66.05-3.61-.3-4.7.93-7.26,8.16-19.57,7.49-26.89,15.68-2.72,3.05-6.71,4.17-10.78,1.7-1.54-6.24,3.22-9.88,6.61-13.22,11.08-10.9,19.79-24.72,35.84-29.82,3.72-1.18,6.17-4.8,8.92-7.61,3.72-3.8,7.66-7.02,13.1-8.24,7.6-1.7,10.69-9.4,16.76-13.2Z"/>
  <path class="cls-1" d="M532.4,894.97c-6.07-4.52-11.42-9.75-15.84-15.91.81-4.27,3.78-7.8,7.18-8.95,12.73-4.31,22.11-14,33.75-20.16,13.52-7.15,26.76-15.32,39.53-24,.81-.55,1.46-1.7,2.31-1.81,13.22-1.66,21.69-12.93,33.88-16.64,4.55-1.39,7.51-5.3,11.5-7.61,11.39-6.37,22.09-13.96,33.99-19.42,3.61-1.66,7.08-5.16,11.61-2.01,2.49,5.33,1.39,11.08,2.01,16.64-.23,3.05-2.27,4.91-4.81,5.7-8.13,2.51-13.61,9.9-20.65,12.83-14.14,5.88-22.41,20.71-38.26,23.3-3.3.54-5.4,3.64-7.78,5.91-2.63,2.5-5.13,5.89-8.82,6.03-8.63.33-13.4,6.3-18.79,11.54-13.72,6.19-25.65,15.62-39.32,21.91-4.6,2.11-7.81,5.84-11.53,9.03-2.78,2.39-5.17,6.51-9.97,3.63Z"/>
  <path class="cls-1" d="M645.59,801.65c-13.3,8.77-26.1,17.79-41.78,23.02-8.53,2.85-17.43,9.08-24.82,14.91-12.68,10.02-28.34,14.72-40.52,25.63-6.17,5.53-15.83,7.16-21.91,13.85-6.1-4.48-11.4-9.76-15.87-15.88,11.4-8.59,19.61-20.82,34.02-26.24,8.24-3.1,14.44-11.03,22.54-15.73,11.66-6.77,23.22-13.69,35.31-19.66,5.25-4.07,10.4-8.32,17.85-5.7,1.54.54,3.58.03,4.65-1.15,7.29-8.04,18.74-9.47,26.44-16.91,3.08-2.98,6.88-5.63,11.19-1.37,2.94,9.9-2.77,17.37-7.1,25.22Z"/>
  <path class="cls-1" d="M593.96,803.63c-12.53,6.94-25.08,13.86-37.59,20.84-2.59,1.44-5.52,2.68-7.47,4.78-10.73,11.52-27.86,14.22-37.36,27.61-2.23,3.14-6.3,5.8-10.85,6.33-5.45-3.82-10.04-8.51-13.95-13.88,15.66-19.37,27.05-43.2,53.55-51.23,30.23-3.24,58.69-12.03,85.18-27.05,3.41,3.98.35,6.89-2.04,9.32-5.67,5.76-10.41,12.59-19.47,14.22-4.52.81-7.48,5.12-10,9.07Z"/>
  <path class="cls-1" d="M532.4,894.97c1.24-.35,2.86-.32,3.66-1.11,16.01-15.82,36.16-24.89,55.91-34.63,5.94-3.93,11.37-9.14,19.54-7.11,1.21.3,2.82-.39,3.59-1.38,7.17-9.21,19.03-11.12,27.94-17.98,8.76-6.74,20.27-10.91,32.27-5.76-.53,9.86-9.24,11.93-15.73,15.28-5.35,2.76-10.38,5.46-14.48,9.88-3.86,4.16-8.15,7.59-14.06,8.53-7.97,1.27-11.6,9.59-18.94,11.99-12.66.57-19.7,10.78-28.34,17.57-9.77,7.68-22,11.36-30.78,20.36-1.1,1.13-3.07.93-4.67.22-3.31-2.66-6.62-5.32-9.93-7.98-2-2.63-4-5.25-5.99-7.88Z"/>
  <path class="cls-1" d="M540.29,798.07c-1.46,2.56-2.62,6.33-5.83,6.15-11-.62-14.46,8.27-20.39,14.58-9.36,9.95-16.49,21.9-27.34,30.49-1.97-1.37-3.94-2.73-5.91-4.1-7.96-8.56-15.92-17.12-23.89-25.68,8.91-6.37,13.24-16.98,21.85-23.63,20.44,2.53,40.92,3.68,61.5,2.18Z"/>
  <path class="cls-1" d="M478.79,795.89c-6.2,8.88-9.73,20.23-21.85,23.63-7.92-7.33-15.84-14.66-23.77-21.99-11.25-11.8-22.5-23.59-33.75-35.39,11.47,5.67,21.55,13.68,33.29,18.98,14.84,6.71,30.47,10.64,46.08,14.76Z"/>
  <path class="cls-1" d="M869.97,581.25c4.38-3.41,8.55-7.05,14.85-6.23,1.71.22,4.29-.73,5.36-2.05,8.93-11.04,25.28-10.96,33.7-22.69,1.13-1.57,2.78-2.69,5.11-2,5.86,1.73,7.48-2.12,8.47-6.67,6.25,3,7.41,11.1,13.91,13.86,2.76,4.4-.57,7.08-3.29,9.07-6.53,4.79-11.43,12.17-20.57,13-2.68.24-4.43,2.74-6.36,4.54-4.64,4.33-9.48,8.26-16.11,9.11-2.01.26-3.93,1.17-5.22,2.68-8.94,10.51-22.4,13.64-33.46,20.68-9.83,4.44-19.87,8.55-29.73,12.71-13.9,5.87-26.12,15.01-40.1,19.75-7.84,2.66-16.27,3.56-23.56,8.26-2.46,1.59-5.12.33-6.76-2.28.36-7.11,5.47-10.64,11.13-12.32,5.69-1.69,10.24-4.24,13.88-8.77,1.24-1.54,2.69-3.29,4.48-3.84,14.4-4.43,23.51-17.73,37.75-22.38,1.26-.41,2.6-1.01,3.36-2.04,8.39-11.43,23.19-13.34,33.16-22.39Z"/>
  <path class="cls-1" d="M866,613.02c10.8-8.96,23.96-14.27,35.48-22.32,7.98-5.57,16.51-13.78,25.46-15.82,10.13-2.31,14.44-10.1,22.06-14.23,1.77-.96,2.32-3.12,2.38-5.19,5.45,3.81,10.03,8.5,13.93,13.87,4.64,5.29,9.27,10.58,13.91,15.87-.52,3.27-2.86,6.51-5.42,6.39-9.73-.44-16.86,7.36-26.23,7.49-1.66.02-3.8-.29-4.79.83-7.22,8.22-19.66,5.18-27.13,12.77-.88.9.29.63-.8.45-14.81-2.52-23.53,11.07-36.87,13.69-14.33,2.82-27.41,10.77-39.4,19.78-7.3,5.48-16.71,7.57-23.4,14.37-2.09,2.12-5.6,1.99-7.58-1.44,2.43-10.31,10.5-15.39,18.91-19.98,2.87-1.57,6.66-1.83,8.73-4.49,8.1-10.43,19.06-16.73,30.77-22.05Z"/>
  <path class="cls-1" d="M808.41,658.69c4.06,4.28,6.21.08,8.92-1.95,10.72-8.04,22.54-14.22,34.14-20.85,12.01-6.86,24.27-12.53,37.92-15.13,3.76-.71,5.87-4.16,8.3-6.78,3.18-3.42,6.22-5.94,10.93-2.57,1.33.95,3.31,1.9,4.55.52,5.13-5.7,15.11-4.91,18.21-8.1,8.88-9.13,22.04-4.66,30.85-13.11,3.19-3.06,12.37.47,16.97-5.51,1.97,1.34,3.94,2.67,5.91,4.01.07.32.29.87.18.94-9.31,6.31-17.33,14.75-27.93,18.83-4.74,1.83-9.14,3.44-12.62,7.19-4.12,4.44-8.9,7.87-14.92,9.29-4.69,1.11-8.29,3.96-11.59,7.29-3.35,3.38-6.89,6.24-12.2,4.81-1.63-.44-3.57-.32-4.71.89-9.46,10.05-23.79,13.1-33.24,22.86-6.11,6.32-14.96,4.89-21.44,9.47-8.62,8.66-21.56,9.76-30.69,17.67-3.17,2.74-7.2,2.78-10.57-.52-3.7-4.43-5.59.27-7.95,1.73-2.96,1.83-5.87,3.22-9.15,1.14-3.7-2.34-3.78-5.94-2.71-9.63,1.55-5.36,2.97-10.79,5.98-15.62,4.7-4.55,8.24-11.94,16.86-6.89Z"/>
  <path class="cls-1" d="M846.14,668.62c16.71-5.58,30.32-16.63,45.1-25.6,2.77-1.68,5.03-4.18,7.6-6.21,1.51-1.2,4.05-3.51,4.6-3.13,8.74,6.09,11.31-4.5,16.75-5.78,15.03-3.53,22.86-19.44,38.58-21.07.92-.1,2.1-.52,2.63-1.2,6.21-7.96,15.04-12.07,23.73-16.4,8.03,3.89,10.17,13.66,17.87,17.86-7.08,7.45-16.42,9.9-25.58,13.84-14.06,6.05-27.79,14.42-39.78,24.71-2.34,2.01-4.02,5.66-8.1,3.13-1.61-1.47-4.13-2.27-5.36-.92-6.9,7.52-17.55,8.19-25.17,14.14-4.9,3.83-9.26,6.67-13.99.03-2.19-3.06-4.54-1.52-6.79,0-6.76,4.59-14.7,7.05-21.07,12.49-4.23,3.62-9.39,5.77-12.43-1.92-.12-1.54.37-2.86,1.42-3.98Z"/>
  <path class="cls-1" d="M667.43,499.85c11.27-5.23,22.03-11.51,32.99-17.18,10.42-5.39,18.93-13.65,30.62-17.46,10.63-3.47,19.08-12.44,27.72-20,3.92-3.43,7.03-7.97,13.36-3.61,3,2.06,5.31-1.33,7.49-3.28,6.13-5.49,12.41-10.83,18.38-16.49,3.59-3.4,8.03-4.28,12.49-5.4,5.35,3.9,9.96,8.55,13.89,13.88-6.09,4.24-10.55,12.05-19.96,9.11-.46-.14-1.4.36-1.74.83-9.5,13.13-25.32,16.73-38.23,24.45-12.77,7.64-23,19.26-37.75,23.86-3.16.98-5.54,4.51-8.22,6.93-3.15,2.85-5.9,6.41-11.07,4.72-2.05-.67-4.08.17-5.31,1.84-7.97,10.82-21.45,13.73-31.26,21.88l-15.49-16.07c5.38-.63,8.1-5.28,12.09-8.01Z"/>
  <path class="cls-1" d="M629.71,992.25c-7.28-6.62-14.56-13.25-21.84-19.87,0-.66,0-1.31,0-1.97,7.23-8.12,14.02-16.81,25.74-18.81,1.3-.22,2.61-.79,3.54-1.69,14.52-14.16,34.22-19.29,51.09-29.35,9.09-8.42,20.33-13.97,31.94-15.75,15.48-2.36,27.2-11.72,40.84-17.36,4.62-1.91,8.93-1.68,13.22.71-.22,8.57-7.42,17.88-15.56,19.89-2.21.55-5.32-.31-6.54,1.65-8.28,13.34-24.37,16.32-34.94,26.84-8,7.97-20.12,11.29-26.45,21.61-8.01,5.76-17.31,9.18-25.61,14.61-9.04,5.92-18.95,10.41-26.52,18.51-2.37,2.53-5.63,3.47-8.91.99Z"/>
  <path class="cls-1" d="M570.13,932.69c-2.67-1.29-4.65-3.28-5.96-5.94-2.64-5.32,2.22-6.94,4.93-9.1,10.5-8.37,22.21-16.2,33.72-21.63,10.52-4.96,18.53-14.18,30.4-16.74,6.24-1.35,9.33-9.17,15.92-11.19,6.58-.54,11.95-4.04,16.79-7.92,11.37-9.1,25.71-11.17,38.45-17,4.27-1.95,7.77-5.29,11.79-6.91,12.24-4.93,22.96-13.5,36.46-15.36-1.91,10.84-8.81,17.98-18.33,22.12-5,2.18-9.4,4.58-13.07,8.49-4.37,4.64-9.15,8.09-15.89,9.18-9.29,1.51-11.37,11.25-17.09,16.92-.8.51-1.66.85-2.58,1.07-8.35-1.8-11.84,4.62-16.17,9.61-5.27,4.32-10.76,7.64-18,4.86-1.53-.59-3.65-.54-4.72.64-7.25,7.98-18.99,8.86-26.27,16.76-3.17,3.45-6.75,6.2-11.87,6.14-4.38-.06-7.04,3.17-9.98,5.76-8.15,7.2-17.73,10.39-28.52,10.23Z"/>
  <path class="cls-1" d="M689.27,922.76c-11.9,3.65-20.66,13.77-33.2,16.11-.93.17-2.07.52-2.64,1.19-10.74,12.69-29.23,14.12-39.61,27.32-1.46,1.86-3.44,3.06-5.95,3.03-6.1-4.49-11.39-9.8-15.9-15.88.54-3.57,2.86-6.49,5.61-7.84,11.92-5.89,21.35-16.13,34.49-19.76,3.04-.84,5.32-2.5,7.54-4.5,3.74-3.38,8.07-5.88,12.87-7.25,17.36-4.96,32.91-13.28,46.95-24.57,4.23-3.4,8.32-4.62,10.81,2.02.07,2.51-1.07,4.64-2.97,5.94-8.8,6.02-13.6,14.93-17.98,24.19Z"/>
  <path class="cls-1" d="M709.13,892.98c-2.42-4.94-4.99-3.63-8.37-.67-13.43,11.77-28.86,19.92-46.11,24.59-.95.26-2.15.27-2.8.86-10.46,9.53-24.94,11.95-36.01,21.02-7.16,5.87-17.21,8.41-23.87,15.75-.66-.66-1.32-1.32-1.99-1.97,0-8.07,7.34-16.96,15.16-16.69,5.75.2,9.41-2.04,12.87-5.8,4.53-4.93,9.43-9.11,16.36-10.46,3.32-.65,5.62-3.39,7.77-5.91,4.83-5.68,8.51-13.08,18.01-11.45.58.1,1.44-.28,1.76-.78,7.41-11.47,22.4-13.3,30.4-24,4.41-4.59,8.8-9.12,16.11-8,2.01.31,3.81-.8,5.49-1.95,14.69-10.02,30.46-18.22,45.87-27,3.37-1.92,6.89-4.44,10.9-1.14-1.21,6.59-3.85,12.55-7.94,17.87-.33.31-.66.63-.99.95-7.57.05-12.57,3.8-15.35,10.72-3.94,5.86-8.92,10.41-15.89,12.32-4.3,1.18-7.22,4.25-10.42,7.04-3.1,2.7-5.92,6.39-10.96,4.71Z"/>
  <path class="cls-1" d="M693.24,879.08c-3.31,5.28-6.13,10.26-14,10.57-6.31.25-8.25,8.02-13.01,11.49-3.11,2.26-4.75,7.52-10.54,3.5-3.13-2.17-5.17,2.09-6.74,4.22-5.12,6.92-9.66,13.82-19.7,14.76-3.17.3-5.85,4.99-8.91,7.47-4.68,3.78-7.2,9.6-16.37,7.03-4.85-1.36-11.65,7.09-13.99,14.44-7.42-5.82-14.02-12.46-19.85-19.87,11.09-4.41,21.69-10.67,32.15-15.14,11.19-4.79,18.47-16.12,31.33-17.11,2.17-.17,4.28-2.86,6.16-4.67,4.41-4.25,8.43-8.16,15.42-4.17,5.8,3.31,8.9-4.73,14.24-4.58,4.98-3.81,9.5-8.36,15.89-9.93h1.99c2.88-2.01,4.67-.77,5.96,1.99Z"/>
  <path class="cls-1" d="M649.56,869.15c-9.15,12.35-26.29,13.92-35.44,26.27-15.36-1.98-20.94,14.6-33.98,17.94-6.19,1.58-12.97,6.16-15.97,13.39-6.03-4.56-11.39-9.79-15.85-15.92,17.14-12.83,36.81-22.2,52.1-37.48,3.83-3.83,7.24-3.39,11.41-2.21,2.16,1.47,3.79.24,5.14-1.23,4.03-4.38,8.82-6.59,14.89-6.25,4.23.24,7.18-2.93,10.64-4.74,3.24-1.69,6.52-1.8,8.9,1.28,2.65,3.44,2.39,6.7-1.84,8.94Z"/>
  <path class="cls-1" d="M891.81,718.25c.03,5.02-2.13,9.41-3.97,13.9-15.46,1.83-22.22,18.61-37.04,21.58-.92.18-2.05.71-2.53,1.44-8.3,12.88-24.21,15.4-34.88,25.55-5.45,5.19-14.92,6.81-20.87,12.98-2.7-.98-5.8-3.42-8.19-.63-6.6,7.71-17.23,7.78-24.71,13.67-1.04.82-2.71,2.11-3.43,1.63-9.99-6.59-18.12,4.11-27.47,2.79-3.22-.45-5.62,2.57-8.07,2.71-10.74.6-20.25,4.68-29.83,8.83-.46.2-1.18-.44-1.71-.86.9-9.21,7.75-13.12,15.06-16.16,3.7-1.54,7.36-2.82,10.15-5.8,5.06-5.4,10.55-9.9,18.48-10.25,2.31-.1,4.6-1.37,6.08-3.09,8.42-9.83,21.32-12.78,31.1-20.5,3.11-1.26,6.33-2.17,9.66-2.6,3.29-.31,6.18-1.69,8.92-3.45,8.29-10.47,22.41-11.52,32.04-19.84.73-.63,1.84-1.28,2.7-1.04,14.24,4.01,23.27-7.89,35.01-11.48,9.26-2.83,18.71-5.23,27.14-10.37,1.96-1.19,4.48-.95,6.35.99Z"/>
  <path class="cls-1" d="M689.27,821.5c4.55.66,7.24-2.24,10.08-5.07,3.93-3.9,7.79-9.01,13.61-2.3.39.45,1.63.87,1.67.8,6.09-9.7,18.62-2.13,25.55-9.54,1.77-1.9,3.9-4.67,6.62-3.29,14.98,7.59,24.23-3.93,34.61-10.52,5.34-3.39,8.89-6.72,11.12,2.13-1.99,3.97-3.97,7.94-5.96,11.91-11.16,5.5-20.82,14.17-33.76,15.88-2.71-.13-4.96.78-7.36,2.18-6.75,3.91-11.14,12.96-21.5,9.65-1.59-.51-4.62,3.18-6.86,5.07-8.32,7.05-17.94,11.18-28.65,12.91-10.52,1.69-17.41,10.01-26.37,14.61-4.14,2.13-7.51,5.2-12.51,3.24,1.45-2.98,3.34-6.15-.29-8.74-3.63-2.59-5.91.46-8.46,2.49-3.34,2.66-6.62,4.87-11.57,3.3-4.7-1.49-7.63,2.55-10.85,5.26-2.12,1.79-4.72,6.45-6.56-.32,10.73-12.81,28.35-15.3,40.14-27.65,5.86-6.13,17.12-8.17,23.4-16.03,2.62-6.69,8.09-6.72,13.9-5.96Z"/>
  <path class="cls-1" d="M752.81,821.5c11.31-5.18,20.82-14.16,33.76-15.88,3.75-.37,6.86-2.1,9.54-4.63,4.03-3.8,7.58-7.74,14.38-6.12,3.37.8,6.57-2.53,8.95-5.3,3.09-3.59,5.95-3.52,8.82.16-6.34,9.02-15.98,15.92-17.87,27.8-5.95-.78-11.29.51-14.63,5.79-5.91,9.34-17.29,9.84-25.08,16.05-8.93-.23-15.54,5.93-21.88,10.23-10.72,7.27-23.66,10.69-33.08,19.89-1.64,1.6-3.69,4.33-5.66,3.26-8.38-4.58-11.51,3.55-16.82,6.33-1.99-.66-3.97-1.32-5.96-1.99,2.78-6.8,6.4-16,12.57-16.73,13.03-1.54,18.08-14.56,27.84-17.25,12.98-3.57,17.45-13.73,25.11-21.62Z"/>
  <path class="cls-1" d="M709.13,892.98c10.59-10.43,26.46-13.56,35.74-25.81,5.69-3.78,11.96-6.54,17.87-9.93,5.7-.36,10.79-1.97,15.15-5.99,2.91-2.69,6.58-4.8,10.76-3.57,3.73,1.1,6.59-.15,8.89-2.58,3.02-3.19,6.56-4.18,10.68-3.73,4.03.43,6.75-1.62,9.47-4.25,3.91-3.79,6.95-10.29,14.27-4.27,2.22,1.82,4.66-1.15,6.69-2.84,9.64-8,21.01-11.48,33.29-12.48-3.77,7.11-7.54,14.18-17.22,14.14-.9,0-1.96.53-2.67,1.14-9.29,8.02-16.96,17.53-28.69,23.21-7.09,3.43-12.1,11.48-20.91,13.13,1.24,3.5-1.15,5.7-3.3,7.42-7.28,5.81-14.86,11.21-24.5,12.44-14.38-1.6-25.05,6.92-36.26,13.64-3.08,1.84-5.32,4.05-9.51,4.09-10.77.12-21.01,3.15-29.84,9.45-3.21,2.29-6.11,4.97-9.78,6.57-.31-10.26,5.82-17.07,12.88-23.11,2.47-2.11,5.51-3.53,6.98-6.67Z"/>
  <path class="cls-1" d="M629.71,992.25c2.32,0,4.99.29,6.47-1.74,8.49-11.67,22.81-15.02,33.3-23.65,6.06-4.99,14.2-5.07,19.8-10.35,3.58-1.79,6.55-4.33,9.3-7.2,1.59-1.66,3.79-4.12,5.8-2.98,8.13,4.6,11.42-3.43,17.02-5.52,11.41-4.26,19.39-16.38,33.53-14.38,3.27.46,5.85-2.72,8.78-4.14,3.42-1.65,6.85-4.36,10.94-1.51-2.71,4.09-5.45,8.16-8.12,12.27-2.49,3.83-5.14,6.81-10.41,4.4-3.94-1.8-5.49,1.3-7.81,3.86-5.79,6.4-10.56,13.75-20.13,16.28-4.46,1.18-7.71,6.8-11.6,10.3-2.85,2.57-4.86,6.42-9.44,6.49-2.43.92-5.79,1.12-7.15,2.87-10.26,13.22-27.84,15.44-39.4,26.63-3.55,3.43-9.57,2.27-13.02,6.24-6.74-5.17-12.71-11.12-17.86-17.87Z"/>
  <path class="cls-1" d="M774.66,920.78c-4.79,1.09-9.44,2.28-13.17,5.98-2.38,2.36-5.87,3.42-9.1,2.53-5.91-1.64-9.6,1.06-13.99,4.6-7.95,6.41-19.18,8.18-25.32,17.41-.16.24-.76.51-.83.44-9.72-9.36-14.29,4.95-21.99,4.77-.33,0-.66,0-.99,0,6.06-6.74,13.38-11.88,20.38-17.43,10.76-8.54,23.17-14.47,33.45-23.45,4.93-4.31,7.15-10.89,16.83-10.47,6.21.27,10.71-9.69,14.73-16.15,8.92-7.1,21.69-8.82,27.8-19.86.96.2,2.46.09,2.79.65,5.47,9.4,10.54,5.55,15.72-.27,2.44-2.75,4.92-4.3,9.34-3.81,7.58.85,9.95-7.79,15.84-10.48-2.42,7.59-6.64,13.33-14.69,15.92-7.82,2.51-10.45,10.63-15.56,16.01-4.76,5.01-8.39,10.61-15.49,13.05-4.47,1.53-6.96,5.8-7.88,10.62-4.64,5.67-13,4.66-17.87,9.93Z"/>
  <path class="cls-1" d="M891.81,718.25c-1.93.32-4.21.07-5.73,1.04-12.81,8.16-28.07,10.23-41.41,17-2,1.02-3.74,2.56-5.58,3.9-1.58,1.15-3.99,3.7-4.57,3.33-11.87-7.57-18.27,7.7-28.52,6.66-3.66-.37-5.54,3.13-7.99,5.25-2.91,2.52-4.88,6.43-9.47,6.51-7.13-4.84-3.96-11.17-2.5-17.25,5.31-8.94,11.69-16.64,22.39-19.43,2.95-.77,5.2-2.77,7.3-4.88,4.22-4.23,8.24-8.57,15.28-6.71,2.82.75,4.74-1.69,6.8-3.35,2.43-1.96,4.3-5.27,8.31-3.98,11.72-.49,19.98-8.83,29.9-13.37,4.08-1.87,7.3-6.18,12.15-1.6,1.23,1.16,3.73,1.57,4.56.28,5.75-8.96,17.78-7.71,24.38-15.38,2.78-3.23,6.06-7.44,11.14-1.41,3.45,4.1,7.25.83,10.02-2.18,3.74-4.06,7.06-6.41,13.6-4.68,7.31,1.93,12.4-5.31,17.9-8.99,7.88-5.27,16.16-8.52,25.26-10.26-1.5,1.71-2.75,4.56-4.54,4.97-15.04,3.38-23.22,18.51-38.35,21.95-3.7.84-7.61,3.81-10.05,7.61-3.12,4.85-6.77,8.77-13.44,7.47-1.13-.22-2.93.27-3.65,1.09-9.46,10.86-25.22,13.78-33.23,26.41Z"/>
  <path class="cls-1" d="M846.14,706.34c-3.18,2.85-6.37,5.69-9.54,8.54-1.45,1.3-3.38,3.83-4.86,2.63-7.49-6.09-10.82.75-14.17,4.76-6.11,7.3-17.73,5.28-22.66,14.31-1.54,2.81-4.2,5.01-6.35,7.49-2.31,2.45-5.44,3.29-8.46,4.35-4.2.9-6.32,4.7-9.59,6.91-10.07,6.1-21.4,10.19-29.93,18.76-1.15,1.16-2.67,2.69-4.07,2.64-11.25-.36-18.14,9.68-28.35,11.67-3.36.65-5.77,2.97-8.37,5-2.44,1.9-4.75,5.04-8.52,2.3-3.98-5.59-1.1-11.94-1.99-17.87,4.55-7.06,10.16-12.61,19.12-13.39,1.31-.11,2.87-.12,3.73-1.03,7.11-7.56,17.19-10.13,25.43-15.47,9.6-6.22,19.23-12.28,29.29-17.72,19.46-4.33,37.17-12.37,53.69-23.59,5.82-3.95,12.74-6.42,19-9.98,4.93-2.81,9.47-2.02,6.61,5.73v3.97Z"/>
  <path class="cls-1" d="M846.14,702.37c.36-5.46-2.79-7.27-6.18-3.58-7.43,8.1-18.15,11.31-26.92,16.24-13.98,7.85-28.91,16.93-46.32,17.12.22-8.12,4.44-12.64,12.45-13.51,2.31-.25,5.23.17,6.3-2.01,7.56-15.31,25.25-17.85,36.44-28.96,6.34-6.29,14.88-12.1,24.23-15.08,1.93,4.03,4.6,4.56,7.69,1.36,7.44-7.7,18.6-9.44,26.37-16.56,3.12-2.86,4.79-2.53,6.1,1.72,1.93,6.23,5.54,6.99,9.94,2.05,3.64-4.09,7.5-7.13,13.58-6.62,4.49.38,6.67-3.84,9.46-6.51,3.81-3.65,7.2-4.79,10.26.72-2.15.75-5.09.85-6.33,2.35-9.08,10.95-23.85,14.54-32.76,25.7-2.8,3.51-5.94,7.42-11.63,4.47-.79-.41-2.92.28-3.46,1.1-7.06,10.64-19.42,13.43-29.22,19.99Z"/>
  <path class="cls-1" d="M792.53,666.63c-1.54,5.02-2.93,10.1-4.68,15.05-1.07,3.03-1.88,5.84,1.41,7.81,3.34,2.01,5.53-.4,7.68-2.48,1.43-1.37,2.71-2.92,4.26-4.13,5.39-4.22,4.96.24,5.23,3.6-14.08,14.85-33.48,21.55-50.07,32.57-4.37,2.9-9.06,5.25-12.93,8.91-3.85,3.64-8.06,6.78-13.63,7.34-2.36.24-4.54,1.15-6.14,2.88-9.17,9.93-23.1,11.77-33.36,19.82-3.5.41-7,.8-9.86,3.21-2.95,2.01-5.85,4.08-8.91,5.92-6.08,2.09-10.28,7.32-16.15,9.77-1.46.28-2.77.03-3.84-1.07-1.91.36-4.79.06-5.59,1.2-6.96,9.96-20.78,9.67-28.09,19.13-1.4,1.82-5.63,3.8-6.84,3.03-7.63-4.86-12.02.66-17.07,4.44,1.86-6.42,6.34-9.48,12.41-12.25,8.76-4,16.28-10.25,19.1-20.36,18.82-12.34,35.25-27.28,49.02-45.11,16.71-4.71,29.32-16.61,43.91-25.05,1.7-.98,3.22-2.65,5.16-2.75,19.05-1.02,32.11-14.58,47.75-22.7,6.84-3.55,12.6-9.55,21.21-8.78Z"/>
  <path class="cls-1" d="M407.31,626.59c0-48.2.04-96.41-.06-144.61-.01-5.32.34-10.5,1.98-15.57,4.6-1.84,6.19,2.49,8.98,4.35,3.41,3.56,6.91,7.05,10.5,10.44,5.94,6.01,12.04,11.86,17.86,17.98,2.32,2.44,5.82,4.5,4.6,8.87-3.57,6.29-6.55,13.01-10.82,18.77-8.96,12.08-7.48,25.23-5.31,38.64,7.82,5.07,16.07,9.78,17.43,20.4-.82,9.53-.39,19.07-.57,28.6-.08,4.23.42,8.64-2.89,12.12-13.9,0-27.8,0-41.7,0Z"/>
  <path class="cls-1" d="M792.53,666.63c-19,10.25-37.87,20.71-55.72,32.89-.81.55-1.92,1.92-2.25,1.74-12.96-7-17.91,9.11-28.3,9.81-3.94.26-6.73,3.84-9.55,6.66-6.12,6.13-13.28,9.61-22.22,8.19,7.26-12.26,14.51-24.53,20.15-37.65,9.4-4.94,21.04-5.79,27.98-15.25,16.75-.76,25.8-17.06,41.24-20.46.99-.22,1.93-.23,2.86.18,1.79.58,3.47,2.36,5.5.99,6.82-4.59,13.03-8.02,22.42-8.69,5.92-.42,16.23-4.82,22.29-11.59,3.21-3.6,6.68-7.19,12.69-5.31,1.7.53,4.91-.78,6.14-2.29,7.14-8.79,19.46-6.89,27.52-13.63.4-.34,1.79.51,2.73.81-2.03,4.33-4.29,8.23-10.21,7.15-1.15-.21-3.16.15-3.61.93-10.25,17.61-33.18,20.43-43.76,37.59-7.56-1.88-10.73,5.02-15.89,7.94Z"/>
  <path class="cls-1" d="M852.1,521.69c-11.22,12-26.4,18.73-39.94,26.96-16.69,10.15-32.97,21.49-50.7,29.74-8.9,4.14-15.26,11.25-23.21,15.47-9.08,4.82-18.67,8.1-25.81,16.1-1.9,2.12-4.84-1.33-7.48-.85-1.86-9.95-3.72-19.91-5.58-29.86,9.7-1.29,16.41-8.44,24.49-12.39,19.88-9.72,37.17-25.75,60.72-27.3,3.43.45,7.5,3.17,10.15-.28,6.29-8.18,17.29-8.4,24.3-15.19,2.52-2.45,4.26-2.37,5.35,1.64,2.35,8.63,7.53,7.17,12.18,2.33,4.42-4.6,9.03-7.46,15.54-6.37Z"/>
  <path class="cls-1" d="M766.71,652.73c-9.89,6.59-22.08,9.84-29.35,20.23-13.07-4.1-17.76,9.62-27.34,12.76-4.88,1.6-10.24,1.74-15.39,2.54,2.74-9.9,5.47-19.79,8.21-29.69,12.95-1.63,21.6-11.72,31.86-17.93,10.35-6.27,20.94-10.09,32-13.72,4.56.52,8.22-.85,11.43-4.35,3.38-3.67,9.19-4.76,12.38-6.96,8.98-6.19,18.85-8.88,28.63-11.59,18.19-5.04,32.37-18.62,50.82-22.78-4.7,5.89-8.79,12.64-17.83,12.23-.58-.03-1.44.36-1.74.83-8.2,12.64-24.87,13.98-33.93,25.49-2.51,3.18-5.58,5.7-10.11,5.2-.64-.07-1.57-.1-1.93.27-10.97,11.36-27.31,15.34-37.71,27.45Z"/>
  <path class="cls-1" d="M766.71,626.92c-.81,1.02-1.54,2.84-2.45,2.93-14.21,1.48-23.8,12.79-36.64,17.06-4.05,1.34-6.37,4.61-9.05,7.41-4.48,4.69-9.31,7.15-15.72,4.26.86-9.89,1.73-19.78,2.59-29.67,1.65-.06,4.16.56,4.82-.27,7.81-9.93,21.62-9.73,30.26-18.16,3.37-3.29,6.89-6.18,12.24-3.78,2.15.96,4.71.42,6.63-1.03,10.77-8.11,22.65-14.33,34.25-21.12,13.2-7.73,25.86-16.27,40.11-22.1,2.95-1.21,5.36-3.71,8.03-5.61,1.92-1.37,3.38-4.83,6.35-1.39-3.69,7.96-8.54,14.58-18.07,15.96-1.27.18-2.78.43-3.66,1.23-19.88,18.11-45.52,29.9-59.68,54.29Z"/>
  <path class="cls-1" d="M426.74,482.24c-3.25-3.25-6.5-6.5-9.75-9.74,2.38-11.22,10.78-18.6,18.61-25.31,15.35-13.17,28.91-28.33,45.15-40.48,10.56-.07,21.13-.15,31.69-.22-5.6,12.87-13.51,24.37-21.3,35.94-19.5,10.66-38.69,21.81-55.84,36.12-2.41,2.01-4.64,4.96-8.56,3.69Z"/>
  <path class="cls-1" d="M504.6,565.65c16.11-1,31.83-.11,45.75,9.48-.12,8.76-7.23,12.6-13.22,15.29-13.64,6.1-22.67,17.54-33.87,26.42-3.29,2.61-5.64,6.5-10.24,7.28-9.62-4.25-16.6-11.17-20.95-20.75,7.9-15.1,20.81-25.9,32.54-37.72Z"/>
  <path class="cls-1" d="M492.55,623c6.18-5.4,13.27-10.06,18.36-16.35,10.92-13.5,29.97-16.49,39.44-31.52,8.17,3.82,14.08,9.86,17.78,18.08,2.59,5.93-1.9,8.63-5.69,10.72-17.34,9.55-35.23,18.2-49.49,32.46-1.39,1.39-3.34,2.04-5.4,2.05-6.37-.92-9.46-6.25-13.61-10.17-1.13-1.58-2.22-3.18-1.4-5.28Z"/>
  <path class="cls-1" d="M506.5,636.88c1.75-.76,3.99-1.06,5.18-2.33,13.68-14.65,31.4-22.99,48.83-31.86,3.8-1.93,7.19-4.63,7.62-9.48,5.76,8.37,7.92,17.73,7.66,27.76-2.66,3.71-7.02,4.86-10.75,6.85-10.8,5.77-21.49,11.54-30.21,20.45-3.16,3.22-7.02,6.14-12.1,6.05-7.64-3.72-14.41-8.28-16.23-17.43Z"/>
  <path class="cls-1" d="M522.39,652.76c5.69-1.26,9.87-4.95,13.84-8.85,11.24-11.04,25.16-17.4,39.56-22.95.91,23.66-6.11,43.39-27.7,55.9-1.21.64-2.74,1.04-3.71.26-8.62-6.94-18.56-12.74-21.99-24.37Z"/>
  <path class="cls-1" d="M492.55,623l2.14,3.88c4.1,8.94,4.3,17.91.16,26.89-1.73,1.84-3.7,1.91-5.84.81-9.09-8.09-17.91-16.48-25.67-25.91-4.35-3.65-9.66-.65-14.33-2.08,1.03-14.45-2.25-29.1,2-43.41,10.49,3.13,16.24,11.4,21.69,19.99,5.99,7.24,12.52,13.93,19.85,19.83Z"/>
  <path class="cls-1" d="M426.74,482.24c11.24-9,22.3-18.68,34.32-26.06,9.01-5.53,18.3-13.17,30.08-13.75-12.54,22.35-25.84,44.24-39.96,65.63-8.15-8.61-16.29-17.21-24.44-25.82Z"/>
  <path class="cls-1" d="M472.7,603.17c-7.23-6.66-14.46-13.33-21.69-19.99-5.32-5.9-10.64-11.81-15.96-17.71,23.18.06,46.37.12,69.55.18-1.59,7.66-8.47,11.66-13.13,16.65-6.38,6.84-11.8,14.58-18.78,20.87Z"/>
  <path class="cls-1" d="M492.61,654.97c4.03-9.11,1.21-18.73,2.08-28.08,3.94,3.33,7.87,6.66,11.81,9.99,4.57,6.02,9.87,11.31,15.89,15.88,7.98,8.66,15.06,18.29,25.71,24.1-8.41,5.67-17.65,8.26-27.79,7.46-10.81-8.3-21.97-16.26-27.69-29.36Z"/>
  <path class="cls-1" d="M727,535.59h9.93c-6.79,8.29-9.99,18.79-17.51,26.82-6.37,6.79-13.02,10.45-22.25,8.94-1.87-4.64-3.75-9.28-5.62-13.92,12.52-6.15,25.3-11.86,35.46-21.84Z"/>
  <path class="cls-1" d="M492.61,654.97c9.23,9.79,18.46,19.57,27.69,29.36-16.98,1.19-31.29-4.07-42.26-17.43,3.33-4.82,6.78-9.56,10.64-13.99,1.31.69,2.62,1.38,3.93,2.06Z"/>
  <path class="cls-1" d="M488.68,652.9c-.46,7.01-4.3,11.45-10.64,13.99-10.36-10.63-13.93-23.88-14.7-38.21,10.25,6.19,17.61,15.4,25.34,24.22Z"/>
  <path class="cls-1" d="M480.75,406.71c-.05,2.1-.89,3.83-2.44,5.22-12.38,11.15-24.56,22.54-37.23,33.36-9.35,7.98-16.52,17.73-24.09,27.2-2.59-2.03-5.18-4.06-7.76-6.08-3.36-3.91-6.73-7.83-10.09-11.74,8.66-11.6,18.59-22.06,28.88-32.22,4.39-4.33,8.99-8.8,9.07-15.73,14.55,0,29.11,0,43.66-.01Z"/>
  <path class="cls-1" d="M671.4,765.91c1.44-3.59,5.04-4.31,7.94-5.96,4.88,2.6,7-1.7,9.93-3.97,9.74-9.1,24.89-9.4,33.4-20.49,3.99-5.19,11.32-1.19,15.71-6.05,9.89-10.94,23.68-16.37,35.99-23.73,8.95-5.35,18.7-9.19,25.59-17.51,1.62-1.95,4.16-1.72,6.48-1.72,1.99,2.56,5.61,2.99,6.9,1.1,7.12-10.4,22.26-7.34,29.18-17.84.54-.82,2.39-.77,3.64-1.13v3.97c-9.9,10.55-24.69,14.93-33.67,26.66-1.96,2.56-4.9,2.76-7.92,3.28-7.15,1.23-10.51,7.26-14.41,12.5-2.8,3.77-4.38,7.86-11.43,6-7.25-1.91-8.01,7.24-12.01,11.12-9.55,7.3-20.09,13.61-30.2,19.51-8.16,4.76-16.1,12.41-24.08,14.19-9.59,2.14-15.44,8.17-23.16,11.97-14.56,7.94-29.12,15.88-43.68,23.83-.16-9.1,7.63-16.36,5.96-25.81h3.97c9.02,2.64,10.73-6.39,15.89-9.93Z"/>
  <path class="cls-1" d="M691.26,795.69c9.05-8.5,21.26-14.34,31.65-17.26,18.15-5.11,29.55-21.21,47.78-24.43,3.16-2.14,5.84-4.75,7.94-7.94,3.31-.66,6.62-1.32,9.93-1.99-1.54,5.96-3.68,11.91,0,17.87-2.02,2.58-4.79,3.65-7.94,3.97-4.64-5.99-6.96-.38-9.93,1.99-10.42,8.73-22.38,17.39-33.99,21.61-12.95,4.71-20.42,17-34.34,19.25-5.4.87-9.57,7.54-13.08,12.75-4.33,2.68-9.96,2.35-13.9,5.96-6.25,3.09-12.63-1.48-19.97,2.24-13.43,6.8-26.4,13.91-38.26,23.13-1.03.8-2.52,2.27-3.25,1.99-8.31-3.18-14.54,3.43-21.92,4.4,4.88-6.12,9.15-13.16,18.7-12.07.61.07,1.47-.09,1.86-.49,7.55-7.68,16.87-11.95,26.49-16.66,8.28-4.05,15.87-10.81,23.69-16.3,9.27-6.51,18.59-12.68,28.54-18.02Z"/>
  <path class="cls-1" d="M685.3,877.09c-5.4,3.14-8.2,10.44-15.89,9.93,2.74-7.4,6.51-13.15,15.89-9.93Z"/>
  <path class="cls-1" d="M762.74,857.24c-4.18,6.5-10.5,9.16-17.87,9.93,3.13-8.39,8.64-12.51,17.87-9.93Z"/>
  <path class="cls-1" d="M770.69,767.89c.59-4.51,3.14-8.15,7.46-8.35,2.86-.13,2.31,3.89,2.46,6.36-3.31.66-6.62,1.32-9.93,1.99Z"/>
  <path class="cls-1" d="M778.63,746.05c-.57,4.72-3.22,7.37-7.94,7.94,1.39-3.9,4.04-6.55,7.94-7.94Z"/>
  <path class="cls-1" d="M671.4,765.91c-.41,4.46-3.55,7.52-6.04,10.73-3.26,4.2-6.96,4.38-9.84-.8,4.64-4.36,8.54-9.9,15.89-9.93Z"/>
  <path class="cls-1" d="M689.27,755.98c-.59,4.5-3.1,7.73-7.45,8.47-1.95.33-2.3-2.58-2.48-4.5,1.99-4.63,6.1-3.94,9.93-3.97Z"/>
</svg>