<?xml version="1.0" encoding="UTF-8"?>
<svg width="1155px" height="214px" viewBox="0 0 1155 214" version="1.1" xmlns="http://www.w3.org/2000/svg" xmlns:xlink="http://www.w3.org/1999/xlink">
    <!-- Generator: Sketch 56.3 (81716) - https://sketch.com -->
    <title>Fh illustration01-01</title>
    <desc>Created with Sketch.</desc>
    <g id="New-UI" stroke="none" stroke-width="1" fill="none" fill-rule="evenodd">
        <g id="1.-About-you" transform="translate(-245.000000, -19.000000)">
            <g id="Fh-illustration01-01" transform="translate(245.000000, 19.000000)">
                <path d="M18.29,207.47 C-18.57,128.05 2,74.8933333 80,48 C197,7.63 191.55,105 290.4,108.41 C389.25,111.82 546.004127,61.93 628.484127,25 C710.964127,-11.93 909.013816,-10.9240903 1062.66382,60.8659097 C1165.09715,108.739243 1223.11667,178.236667 1269.57,208.27 L28.47,213.27 L18.29,207.47 Z" id="Path-7" fill="#67DA91" opacity="0.37"></path>
                <path d="M3.73,184 C-12.47,111.633333 32.77,56.3233333 139.45,18.07 C299.45,-39.31 513.45,91.42 627.99,93.31 C742.53,95.2 856.65063,37.6 912.13063,25 C967.61063,12.4 1129.11,4.6 1184.4,53.89 C1221.26,86.75 1249.63667,127.236667 1269.53,175.35 L3.73,184 Z" id="Path-3" fill="#63DE90" opacity="0.38"></path>
            </g>
        </g>
    </g>
</svg>