<svg xmlns="http://www.w3.org/2000/svg" width="495" height="495" viewBox="0 0 495 495">
  <g fill="none" fill-rule="evenodd">
    <g fill="#65D48E" opacity=".23">
      <circle cx="247.5" cy="247.5" r="247.5" opacity=".12"/>
      <circle cx="247.5" cy="247.5" r="208.421" opacity=".18"/>
    </g>
    <g opacity=".11" transform="rotate(-32 364.969 23.073)">
      <circle cx="13.567" cy="232.659" r="13.026" fill="#005263" opacity=".228"/>
      <circle cx="93.8" cy="9.9" r="9.9" fill="#005263" opacity=".228"/>
      <circle cx="306.221" cy="117.197" r="13.026" fill="#005263" opacity=".228"/>
      <circle cx="258.192" cy="286.839" r="4.95" fill="#47A395" opacity=".228"/>
    </g>
    <g fill="#005263" fill-rule="nonzero" opacity=".03" transform="translate(143 110)">
      <path d="M51.9453001,103.85499 C80.5684672,103.85499 103.85499,80.5684672 103.85499,51.9453001 C103.85499,23.3221329 80.5684672,0.0356103001 51.9453001,0.0356103001 C23.3221329,0.0356103001 0.0356103001,23.3221329 0.0356103001,51.9453001 C0.0356103001,80.5684672 23.3221329,103.85499 51.9453001,103.85499 Z M36.4015675,43.3341415 C35.8858189,43.3373029 35.3903158,43.1336408 35.0258653,42.7686991 C34.6614148,42.4037574 34.4584202,41.9079805 34.4622763,41.3922367 C34.4707379,40.8838516 34.6831601,40.4001967 35.05179,40.0499983 C35.42042,39.6997998 35.9143256,39.5124433 36.4224763,39.5300467 L36.4437118,39.5300467 L56.5128928,39.6675874 C55.6199887,34.2101913 50.9537254,30.1711376 45.4246948,30.0697948 L36.5384548,29.9747251 C35.4544496,29.9641274 34.5836367,29.0779679 34.5919762,27.993943 C34.5910313,27.4746906 34.798815,26.9768453 35.1686148,26.6123292 C35.5384147,26.2478131 36.0391985,26.0472149 36.5583835,26.0553773 L45.4119535,26.1520083 L45.4119535,26.1591957 L67.6033777,26.4061809 C68.7015736,26.4040158 69.5935924,27.2925242 69.5957615,28.3907201 C69.5979228,29.488916 68.7094144,30.3809348 67.6112185,30.3831001 L67.589983,30.3831001 L55.632763,30.2266108 C58.326095,32.685124 60.0451944,36.0304393 60.4760905,39.6515791 L67.4877259,39.7456687 C68.5773534,39.7748799 69.4413466,40.6740965 69.4270171,41.7640213 C69.4212596,42.853103 68.5553478,43.7426831 67.4668171,43.7778001 L67.4452549,43.7778001 L60.4336195,43.6278448 C59.3599981,51.1510969 52.9068528,56.732998 45.3074095,56.7118531 L45.1414459,56.7118531 L41.1857623,56.6693821 L59.6188297,74.4663646 C60.397662,75.2183126 60.419456,76.4592552 59.667508,77.2380874 C58.91556,78.0169197 57.6746175,78.0387137 56.8957852,77.2867657 L34.9170427,56.067274 C34.3406422,55.5093811 34.1623311,54.6565897 34.4669147,53.9144908 C34.7714984,53.1723919 35.4975028,52.6907636 36.2996371,52.6986703 L45.1832635,52.7966803 C45.224101,52.7966803 45.2662453,52.8022342 45.3070828,52.8022342 C50.7733893,52.7976301 55.46265,48.9035664 56.4714019,43.5311416 L36.4015675,43.3341415 Z" transform="translate(131.26 164.076)"/>
      <path d="M185.2752,150.1368 C179.1768,138.8112 169.5936,129.5184 157.3968,124.0008 L138.2304,115.2888 C126.6144,125.7432 112.0944,131.8416 96.1224002,131.8416 C80.1504001,131.8416 65.6304001,125.7432 54.0144001,115.2888 L34.8480001,124.0008 C13.6488,133.584 0,154.7832 0,178.0152 L0,206.4744 C0,218.3808 9.58320002,228.2544 21.78,228.2544 L113.8368,228.2544 C113.5464,226.512 113.5464,224.7696 113.5464,223.0272 C113.5464,182.952 145.4904,150.4272 185.2752,150.1368 Z"/>
      <ellipse cx="96.122" cy="56.047" rx="48.206" ry="56.047"/>
    </g>
  </g>
</svg>
