<?xml version="1.0" encoding="utf-8"?>
<!-- Generator: Adobe Illustrator 27.0.1, SVG Export Plug-In . SVG Version: 6.00 Build 0)  -->
<svg version="1.1" id="Layer_1" xmlns="http://www.w3.org/2000/svg" xmlns:xlink="http://www.w3.org/1999/xlink" x="0px" y="0px"
	 viewBox="0 0 1358 290" style="enable-background:new 0 0 1358 290;" xml:space="preserve">
<style type="text/css">
	.st0{fill:#ccd5e0;}
	.st1{fill:#024b62;}
	.st2{fill:#024b62;}
	.st3{fill:#3C8F7C;}
	.st4{fill:#327F6B;}
	.st5{fill:#050607;}
	.st6{fill:#042b62;}
	.st7{fill:#F9F9F9;}
	.st8{opacity:0.8;fill:#050607;}
	.st9{opacity:0.5;fill:#ccd5e0;enable-background:new    ;}
	.st10{fill:#042b62;enable-background:new    ;}
</style>
<path class="st0" d="M73.9,60.7c0,2.7,2.2,4.8,4.8,4.8H182c2.7,0,4.8-2.2,4.8-4.8c0-1.3-0.5-2.5-1.4-3.4c-0.9-0.9-2.1-1.4-3.4-1.4
	h-4.9c-2.7-6.4-10.1-9.3-16.5-6.6c-1.5,0.6-2.8,1.6-4,2.7c-4.1-7-12.4-10.2-20.1-7.9c-5.2-9.7-17.3-13.4-27.1-8.2
	c-4.8,2.6-8.3,7-9.8,12.2c-6.2-3.1-13.8-0.6-16.9,5.6c-0.3,0.7-0.6,1.4-0.8,2.1h-3.1C76.1,55.9,73.9,58,73.9,60.7z"/>
<path class="st0" d="M585.4,60.4c0,2.6-2.1,4.7-4.7,4.7H480.3c-2.6,0-4.7-2.1-4.7-4.7s2.1-4.7,4.7-4.7l0,0h4.7
	c2.7-6.2,9.9-9.1,16.1-6.4c1.4,0.6,2.7,1.5,3.8,2.6c4-6.8,12.1-9.9,19.6-7.7c5-9.5,16.8-13.1,26.3-8c4.7,2.5,8.2,6.8,9.6,12
	c1.7-0.9,3.6-1.3,5.5-1.3c5.4,0,10.2,3.6,11.8,8.8h3C583.3,55.7,585.4,57.8,585.4,60.4C585.4,60.4,585.4,60.4,585.4,60.4z"/>
<path class="st0" d="M1321.2,63.5c0,0.7-0.3,1.4-0.8,1.9c-0.5,0.5-1.2,0.8-1.9,0.8h-57c-1.5,0-2.7-1.2-2.7-2.7
	c0-0.7,0.3-1.4,0.8-1.9c0.5-0.5,1.2-0.8,1.9-0.8h2.7c1.5-3.5,5.6-5.1,9.1-3.6c0.8,0.4,1.6,0.9,2.2,1.5c2.3-3.8,6.9-5.6,11.1-4.3
	c2.8-5.4,9.4-7.5,14.8-4.7c2.7,1.4,4.7,3.9,5.5,6.9c3.5-1.7,7.7-0.3,9.4,3.2c0.2,0.3,0.3,0.7,0.4,1.1h1.7
	C1320.1,60.9,1321.2,62.1,1321.2,63.5z"/>
<path class="st0" d="M1310,203.7l-3.4-5.6c-0.4-0.4-0.4-1,0-1.4c0.4-0.4,1-0.4,1.4,0c0.1,0.1,0.2,0.3,0.3,0.4l2.4,4l6.4-3.8
	c0.4-0.4,1-0.4,1.4,0.1c0.4,0.4,0.4,1-0.1,1.4c-0.1,0.1-0.2,0.2-0.4,0.2L1310,203.7z"/>
<path class="st0" d="M1312.3,212.3c-6.8,0-12.3-5.5-12.3-12.3c0-6.8,5.5-12.3,12.3-12.3c6.8,0,12.3,5.5,12.3,12.3c0,0,0,0,0,0
	C1324.6,206.8,1319.1,212.3,1312.3,212.3z M1312.3,189.4c-5.8,0-10.6,4.7-10.6,10.6c0,5.8,4.7,10.6,10.6,10.6
	c5.8,0,10.6-4.7,10.6-10.6C1322.8,194.2,1318.1,189.4,1312.3,189.4L1312.3,189.4z"/>
<path class="st0" d="M595.5,143.6l-3.4-5.6c-0.3-0.5-0.1-1,0.3-1.3c0.5-0.3,1.1-0.1,1.3,0.3l2.4,4l6.5-3.8c0.5-0.2,1.1,0.1,1.3,0.6
	c0.1,0.4,0,0.8-0.3,1.1L595.5,143.6z"/>
<path class="st0" d="M597.8,152.2c-6.8,0-12.3-5.5-12.3-12.3c0-6.8,5.5-12.3,12.3-12.3c6.8,0,12.3,5.5,12.3,12.3
	C610.1,146.7,604.6,152.2,597.8,152.2z M597.8,129.3c-5.8,0-10.6,4.7-10.6,10.6s4.7,10.6,10.6,10.6s10.6-4.7,10.6-10.6
	C608.4,134.1,603.7,129.3,597.8,129.3L597.8,129.3z"/>
<path class="st0" d="M754,167.5l-3.4-5.6c-0.3-0.5-0.1-1.1,0.3-1.4c0.5-0.3,1.1-0.1,1.3,0.3l2.4,4l6.4-3.8c0.5-0.3,1.1-0.1,1.3,0.4
	c0.3,0.5,0.1,1-0.3,1.3L754,167.5z"/>
<path class="st0" d="M756.3,176.1c-6.8,0-12.3-5.5-12.3-12.3c0-6.8,5.5-12.3,12.3-12.3s12.3,5.5,12.3,12.3c0,0,0,0,0,0
	C768.6,170.6,763.1,176.1,756.3,176.1z M756.3,153.2c-5.8,0-10.6,4.7-10.6,10.6s4.7,10.6,10.6,10.6s10.6-4.7,10.6-10.6
	C766.8,157.9,762.1,153.2,756.3,153.2L756.3,153.2z"/>
<path class="st0" d="M839.9,30.2l-3.7-6c-0.3-0.5-0.1-1.1,0.3-1.4c0.5-0.3,1.1-0.1,1.4,0.3l2.6,4.2l6.9-4.1c0.5-0.3,1.1-0.1,1.4,0.4
	c0.3,0.5,0.1,1.1-0.4,1.4L839.9,30.2z"/>
<path class="st0" d="M842.4,39.4c-7.3,0-13.1-5.9-13.1-13.1c0-7.3,5.9-13.1,13.1-13.1c7.3,0,13.1,5.9,13.1,13.1c0,0,0,0,0,0
	C855.5,33.5,849.6,39.4,842.4,39.4z M842.4,15c-6.2,0-11.2,5-11.2,11.2s5,11.2,11.2,11.2s11.2-5,11.2-11.2
	C853.7,20.1,848.6,15,842.4,15C842.4,15,842.4,15,842.4,15L842.4,15z"/>
<path class="st0" d="M822.6,201.5l-2.9-4.8c-0.3-0.4-0.2-0.9,0.2-1.2c0.4-0.3,0.9-0.2,1.2,0.2c0,0,0.1,0.1,0.1,0.1l2.1,3.4l5.5-3.2
	c0.4-0.2,0.9-0.1,1.1,0.3c0.2,0.4,0.1,0.9-0.3,1.1L822.6,201.5z"/>
<path class="st0" d="M824.6,208.8c-5.8,0-10.5-4.7-10.5-10.4c0-5.8,4.7-10.5,10.4-10.5c5.8,0,10.5,4.7,10.5,10.4c0,0,0,0,0,0
	C835,204.1,830.3,208.8,824.6,208.8z M824.6,189.4c-5,0-9,4-9,9s4,9,9,9s9-4,9-9S829.5,189.4,824.6,189.4z"/>
<path class="st0" d="M775.6,74.1l-2.9-4.8c-0.2-0.4-0.1-0.9,0.3-1.1c0.4-0.2,0.9-0.1,1.1,0.3l0,0l2,3.4l5.5-3.2
	c0.4-0.2,0.9-0.1,1.1,0.3c0,0,0,0,0,0c0.2,0.4,0.1,0.9-0.3,1.1c0,0,0,0,0,0L775.6,74.1z"/>
<path class="st0" d="M777.5,81.5c-5.8,0-10.5-4.7-10.5-10.5s4.7-10.5,10.5-10.5c5.8,0,10.5,4.7,10.5,10.4
	C788,76.8,783.3,81.5,777.5,81.5z M777.5,62.1c-5,0-9,4-9,9s4,9,9,9s9-4,9-9S782.5,62.1,777.5,62.1C777.5,62,777.5,62,777.5,62.1z"
	/>
<path class="st0" d="M659.5,74.5l-6.2-10.2c-0.6-0.8-0.5-1.9,0.2-2.5c0.8-0.6,1.9-0.5,2.5,0.2c0.1,0.1,0.2,0.3,0.3,0.4l4.4,7.2
	l11.8-7c0.8-0.5,1.9-0.2,2.4,0.6c0.5,0.8,0.2,1.9-0.6,2.4l0,0L659.5,74.5z"/>
<path class="st0" d="M663.8,90.3c-12.4,0-22.5-10.1-22.5-22.5c0-12.4,10.1-22.5,22.5-22.5s22.5,10.1,22.5,22.5c0,0,0,0,0,0
	C686.2,80.3,676.2,90.3,663.8,90.3z M663.8,48.6c-10.6,0-19.3,8.6-19.3,19.2c0,10.6,8.6,19.3,19.2,19.3S683,78.5,683,67.9
	c0,0,0,0,0,0C683,57.2,674.4,48.6,663.8,48.6z"/>
<path class="st0" d="M471.3,128.9l-6.2-10.2c-0.6-0.8-0.5-1.9,0.3-2.5c0.8-0.6,1.9-0.5,2.5,0.3c0.1,0.1,0.2,0.3,0.2,0.4l4.4,7.2
	l11.8-7c0.8-0.5,1.9-0.2,2.4,0.6c0.5,0.8,0.2,1.9-0.6,2.4L471.3,128.9z"/>
<path class="st0" d="M475.5,144.6c-12.4,0-22.5-10.1-22.5-22.5c0-12.4,10.1-22.5,22.5-22.5c12.4,0,22.5,10.1,22.5,22.5c0,0,0,0,0,0
	C498,134.6,487.9,144.6,475.5,144.6z M475.5,102.9c-10.6,0-19.3,8.6-19.3,19.3s8.6,19.3,19.3,19.3s19.3-8.6,19.3-19.3l0,0
	C494.8,111.5,486.2,102.9,475.5,102.9z"/>
<path class="st0" d="M1268.4,228.4l-2.3-3.8c-0.2-0.3-0.1-0.7,0.2-0.9s0.7-0.1,0.9,0.2l1.7,2.7l4.4-2.6c0.3-0.2,0.7-0.1,0.9,0.2
	c0,0,0,0,0,0c0.2,0.3,0.1,0.7-0.2,0.9L1268.4,228.4z"/>
<path class="st0" d="M1270,234.3c-4.6,0-8.4-3.8-8.4-8.4s3.8-8.4,8.4-8.4c4.6,0,8.4,3.8,8.4,8.4S1274.6,234.3,1270,234.3L1270,234.3
	z M1270,218.7c-4,0-7.2,3.2-7.2,7.2c0,4,3.2,7.2,7.2,7.2c4,0,7.2-3.2,7.2-7.2c0,0,0,0,0,0C1277.2,221.9,1274,218.7,1270,218.7z"/>
<path class="st0" d="M350,220.1l-2.9-4.8c-0.2-0.4-0.1-0.9,0.3-1.1c0.4-0.2,0.9-0.1,1.1,0.3c0,0,0,0,0,0l2.1,3.4l5.5-3.2
	c0.4-0.2,0.9-0.1,1.1,0.3c0.2,0.4,0.1,0.9-0.3,1.1L350,220.1z"/>
<path class="st0" d="M352,227.4c-5.8,0-10.5-4.7-10.5-10.5s4.7-10.5,10.5-10.5s10.5,4.7,10.5,10.5
	C362.5,222.7,357.8,227.4,352,227.4z M352,207.9c-5,0-9,4-9,9s4,9,9,9s9-4,9-9l0,0C361,211.9,357,207.9,352,207.9z"/>
<path class="st0" d="M1237.6,36.3l-2.9-4.8c-0.2-0.4-0.1-0.9,0.3-1.1c0.4-0.2,0.9-0.1,1.2,0.3l2.1,3.4l5.5-3.2
	c0.4-0.2,0.9-0.1,1.1,0.3s0.1,0.9-0.3,1.1L1237.6,36.3z"/>
<path class="st0" d="M1239.6,43.6c-5.8,0-10.5-4.7-10.5-10.5s4.7-10.5,10.5-10.5s10.5,4.7,10.5,10.5c0,0,0,0,0,0
	C1250.1,38.9,1245.4,43.6,1239.6,43.6z M1239.6,24.1c-5,0-9,4-9,9s4,9,9,9s9-4,9-9S1244.6,24.1,1239.6,24.1
	C1239.6,24.1,1239.6,24.1,1239.6,24.1z"/>
<path class="st0" d="M1050,79.3c-2.6-1.7-5.2-3.3-7.7-5.1c-0.5-0.4-0.8-1-0.8-1.7c0.3-3.6,0.8-7.1,1.1-10.7c-0.1-0.9,0.4-1.7,1.3-2
	c3.5-1.4,6.9-2.9,10.4-4.3l2.1-0.9c-1.7-5.3-3.4-10.6-5.1-16c-4.5,0.9-8.5,1.7-12.6,2.6c-1.2,0.5-2.5,0-3.1-1.1
	c-1.9-2.7-4.2-5.1-6.2-7.7c-0.3-0.5-0.4-1.1-0.3-1.7c1.3-3.6,2.7-7.1,4.3-10.6c0.7-1.7,0.4-2.5-1.1-3.3c-0.6-0.3-1.1-0.7-1.6-1.2
	l-7.7-4.1c-0.3,0-0.7-0.1-1-0.2c-3.1-1.3-2.5-1.2-4.3,1.4c-2.2,3.2-4.2,6.4-6.1,9.2l-13.9-1.2c-1.8-4.2-3.6-8.7-5.5-13.1
	c-5.5,0.8-10.9,2.5-15.9,5.1c0.9,4.4,1.8,8.7,2.7,12.9c0.3,0.7,0,1.4-0.6,1.8c-2.9,2.2-5.8,4.5-8.6,7c-0.6,0.6-1.5,0.8-2.2,0.3
	c-3.6-1.5-7.2-2.9-10.8-4.3c-0.7-0.4-1.6-0.2-2.1,0.5c0,0,0,0,0,0.1c-2.8,3.9-5,8.2-6.5,12.8c-0.3,0.9,0.1,1.3,0.8,1.7
	c3.2,2,6.3,4.1,9.5,6.1c0.8,0.4,1.3,1.4,1,2.2c-0.6,4.1-1,8.2-1.5,12.6l-12.6,5.3c0.7,5.6,2.4,11.1,5,16.1l13.7-2.9
	c2.7,3,5,5.9,7.6,8.6c0.9,0.7,1.2,2,0.6,3.1c-1.5,3.4-2.8,6.8-4.2,10.3c-0.3,0.7-0.8,1.5,0.3,2l12.9,6.7c0.9,0.5,1.5,0.2,2-0.7
	c2-3.2,4.2-6.3,6.2-9.6c0.8-1.3,1.6-1.3,2.9-1.2c3.2,0.4,6.4,0.7,9.7,0.8c1.1-0.2,2.1,0.5,2.4,1.6c1.5,4,3.2,7.9,4.8,11.7
	c3.4,0,12.8-3,16.2-5.2c-0.9-4.2-1.8-8.5-2.8-12.8c-0.3-0.8,0.1-1.8,0.9-2.2c2.6-2.1,5.1-4.3,7.7-6.5c0.5-0.4,1.2-0.5,1.8-0.4
	c3.2,1.2,6.3,2.6,9.5,3.9c1.8,0.8,2.5,1.1,3.1,0.6l7.2-13.7C1052.8,81.2,1052,80.7,1050,79.3z M1022.7,74.7
	c-6.5,12.3-21.7,16.9-33.9,10.5c0,0,0,0,0,0l0,0c-12.3-6.5-16.9-21.7-10.5-33.9l0,0c6.5-12.3,21.7-16.9,33.9-10.5l0,0
	C1024.5,47.3,1029.2,62.5,1022.7,74.7z"/>
<path class="st0" d="M1152.8,61.8c-0.9-0.6-1.9-1.2-2.8-1.9c-0.2-0.2-0.3-0.4-0.3-0.6c0.1-1.3,0.3-2.6,0.4-3.9
	c0-0.4,0.1-0.6,0.5-0.7c1.3-0.5,2.6-1.1,3.8-1.6c0.2-0.1,0.4-0.2,0.8-0.3l-1.9-5.8c-1.6,0.3-3.1,0.6-4.6,1c-0.4,0.2-0.9,0-1.2-0.4
	c-0.7-1-1.5-1.9-2.3-2.8c-0.1-0.2-0.2-0.4-0.1-0.6c0.5-1.3,1-2.6,1.6-3.9c0.3-0.3,0.2-0.8-0.2-1.1c-0.1-0.1-0.2-0.1-0.2-0.1
	c-0.2-0.1-0.4-0.3-0.6-0.4l-2.8-1.5c-0.1,0-0.2,0-0.4-0.1c-1.2-0.5-0.9-0.5-1.6,0.5c-0.8,1.2-1.6,2.4-2.2,3.4l-5.1-0.4l-2-4.8
	c-2,0.3-4,0.9-5.8,1.8c0.3,1.6,0.7,3.2,1,4.8c0.1,0.2,0,0.5-0.2,0.7c-1.1,0.8-2.1,1.7-3.2,2.5c-0.2,0.2-0.5,0.3-0.8,0.1
	c-1.3-0.5-2.6-1-3.9-1.6c-0.3-0.2-0.6-0.1-0.8,0.2c0,0,0,0,0,0c-1,1.4-1.8,3-2.4,4.7c-0.1,0.3,0,0.5,0.3,0.6
	c1.2,0.7,2.3,1.5,3.5,2.2c0.3,0.1,0.5,0.5,0.4,0.8c-0.2,1.5-0.4,3-0.5,4.6l-4.6,1.9c0.3,2.1,0.9,4.1,1.8,5.9l5-1.1
	c1,1.1,1.8,2.2,2.8,3.1c0.3,0.3,0.4,0.7,0.2,1.1c-0.5,1.2-1,2.5-1.5,3.8c-0.1,0.2-0.3,0.5,0.1,0.8l4.8,2.5c0.3,0.2,0.6,0.1,0.8-0.3
	c0.8-1.2,1.6-2.3,2.3-3.5c0.3-0.5,0.6-0.5,1.1-0.4c1.2,0.2,2.4,0.3,3.5,0.3c0.4-0.1,0.8,0.2,0.9,0.6c0.6,1.5,1.2,2.9,1.8,4.3
	c2.1-0.3,4.1-0.9,5.9-1.9c-0.3-1.6-0.7-3.1-1-4.7c-0.1-0.3,0-0.6,0.3-0.8c1-0.8,1.9-1.6,2.8-2.4c0.2-0.1,0.4-0.2,0.7-0.1
	c1.2,0.4,2.3,0.9,3.5,1.4c0.7,0.3,0.9,0.4,1.2,0.2l2.7-5C1153.8,62.5,1153.6,62.3,1152.8,61.8z M1142.8,60.1
	c-2.4,4.5-8,6.2-12.5,3.9c0,0,0,0,0,0l0,0c-4.5-2.4-6.2-7.9-3.8-12.4c0,0,0,0,0,0l0,0c2.4-4.5,8-6.2,12.5-3.8l0,0
	C1143.4,50.1,1145.2,55.7,1142.8,60.1L1142.8,60.1z"/>
<path class="st1" d="M989.8,236.2c0,0-48.2-23.8-56.4-36.1s3.9-13.1,3.9-13.1s-21.5-20.9-18.5-29.7s14.2-0.7,14.2-0.7
	s-13.8-30.8-7.3-33.9c12.1-5.8,29.2,27.3,29.2,27.3s-3.7-14.4,4.7-13.9c12.6,0.7,12.1,33.2,12.1,33.2s1.4-12.5,9-8.4
	C994.2,168.2,989.8,236.2,989.8,236.2z"/>
<path class="st2" d="M983.3,156c-5.9-3.3-11.8,6.3-11.8,6.3s0.6-25.4-12-26.1c-8.4-0.5-4.7,13.9-4.7,13.9s-17-33.1-29.2-27.3
	l64.2,113C990.3,227.8,995.1,162.5,983.3,156z"/>
<path class="st1" d="M988.6,236.5c0,0-39.4,4.9-49.6,0.5s-2.9-9.8-2.9-9.8s-21.9-4.3-23.6-11s8.4-6.2,8.4-6.2s-21-13.6-18.2-18.2
	c5.2-8.5,29.3,5.2,29.3,5.2s-8.1-7.5-2.7-10.6c8.2-4.7,21,15.8,21,15.8s-0.8-5,5.6-5.6C967.4,195.8,988.6,236.5,988.6,236.5z"/>
<path class="st2" d="M956.2,193.1c-6.4,0.6-5.8,9.3-5.8,9.3s-13.1-24.3-21.3-19.6c-5.4,3.1,1,13.3,1,13.3s-22.1-12.6-27.3-4.1
	l86,44.4C985.8,231.2,966.9,192.2,956.2,193.1z"/>
<path class="st2" d="M1215,179l2.1-5.1c1.5-3.7,5.7-5.5,9.4-4c0,0,0,0,0,0l0,0c8.9,3.9,12.8,14.7,8.7,24.2l-3,6.9
	c-1.3,2.9-0.9,6.2,0.9,8.7c1.6,2.2,1.9,5.2,0.8,7.7l-1.6,3.6c-1.7,3.9-5,6.9-9.1,8.1c-2.5,0.8-4.5,2.6-5.5,4.9l-2.3,5.2
	c-2.5,5.7-8.9,8.4-14.3,6.1l-3.1-1.3c-5.4-2.4-7.7-8.9-5.2-14.6l0,0c4-6.8,3.7-11.9,2.3-15.4c-2.1-5.2-2-11,0.2-16.2l0.3-0.7
	c2.4-5.4,6.9-9.6,12.6-11.4C1210.7,185,1213.2,183.1,1215,179z"/>
<path class="st1" d="M1075.7,280c-5.7-7.4-37.1-47.1-57.5-53.7c-22.6-7.3-1.3,21.7-1.3,21.7s-40-43.8-54.7-39.8
	c-13.5,3.6,0,30.8,0,30.8s-15.2-15-33.5-15c-17.9,0,12.5,53.3,14.1,56.1L1075.7,280z"/>
<path class="st2" d="M1244.5,121c0,0-5.8,7.4-9.2,10.4s-6.6,5.7-11,15s-4.2,10.4-5.4,12.8s-7.2,11.8-7.7,13.6s-10.3,10.8-13.4,15.4
	s-8.1,10.9-8.7,14.6h0.9c2.2-5.9,5.8-11.2,10.5-15.5c7.8-7.2,7.4-9,15-11.9s14.8-14,14.8-14s9.8-11.6,11.1-18.6
	S1246.1,130.1,1244.5,121z"/>
<path class="st2" d="M1238.6,106.1c0,0-1.5,5.4-4,8.3s-4.5,4.5-5.6,7.9s-4.4,12.3-10.3,15.6s-9.7,16.4-14.4,19.6s-5.8,5.9-6.8,13
	s-0.8,17.1-9.1,28.3l-0.5-3.4c0,0,6.3-9.4,6.7-15.6s-0.7-16.1,1.5-20.1s-2-6,2.2-11.9s3.7-8.5,8.6-13.3c0,0,0.4-0.2,2.5-4.8
	s11.9-11.6,16.2-13.8S1236.1,110,1238.6,106.1z"/>
<path class="st1" d="M1217.7,129.9c0,0-6,6.3-7.1,11s-1.5,8.7-5.2,14.6s-0.3,11-2.4,14.3s-3.2,7.5-3.9,10.7s-8.1,12.7-10.1,17.9
	s-1,5.4-1,5.4s2.5-6.9,4.2-9c3.1-3.9,6-8,8.6-12.3c1.5-2.9,4.2-4.4,7.3-9.3s6.8-8.7,8.4-16.2S1222.7,142.2,1217.7,129.9z"/>
<path class="st1" d="M1191.9,199.5c0,0,4.2-8.8,12.8-7.8s13.2,3.8,20.7-1.6s13.5-15.4,15.8-16.8c0,0-2.6-2.2-8.7,1.3
	s-10.3,6.2-13.9,8.2s-5.4-0.3-8.9,0.8c-2.9,0.9-7.2,4.5-9.2,6.4c-0.6,0.6-1.4,1.2-2.1,1.6c-0.7,0.4-1.6,0.9-2.1,1.3
	c-1.1,0.8-5.2,6.5-5.2,6.5L1191.9,199.5z"/>
<path class="st3" d="M1189.3,197.2c0,0,5.6-10.7,4.9-16.7s-6-11.6-4.9-15s7.2-12,5.6-19.8c0,0-2.7,6-4.2,7.1s-11.2,4.8-11.5,12.6
	s7.5,11.4,9,14.1s4.2,3.3,3.9,4.7c-0.6,4.1-1.7,8-3.1,11.9L1189.3,197.2z"/>
<path class="st1" d="M1194.4,190.3l7-11c0,0,4.7-9.1,8-16.8s8.4-32.6,8.4-32.6s-6,6.3-7.1,11s-1.5,8.7-5.2,14.6s-0.3,11-2.4,14.3
	s-3.2,7.5-3.9,10.7s-8.2,12.7-10.2,17.8c-1.1,2.8-1.3,4.2-1.3,4.9C1188.2,198.4,1194.4,190.3,1194.4,190.3z"/>
<path class="st1" d="M1216.6,188c-3.9-0.1-7.2-1.1-12.3,1.1c-3.1,1.3-6,3.1-8.6,5.2c0,0-2.8,3.1-4.1,4.8l-0.3,0.4l0.7,0.1
	c0,0,4.2-8.8,12.8-7.8s13.2,3.8,20.7-1.6s13.5-15.4,15.8-16.8c-4.3,2-8.4,4.3-12.4,6.9C1224,183.7,1220.4,188.1,1216.6,188z"/>
<path class="st4" d="M1190.8,152.8c-1.5,1.1-11.2,4.8-11.5,12.6s7.5,11.4,9,14.1s4.2,3.3,3.9,4.7c-0.6,4.1-1.7,8-3.1,11.9l0.1,0.5
	c1.1-2.3,2.1-4.7,3-7.2c1.2-3.8,1-5.5,0.4-8.9s-6.7-11.5-7.8-15.2s5.8-8,7.6-10.4s2.6-9.1,2.6-9.1S1192.3,151.7,1190.8,152.8z"/>
<path class="st1" d="M1087.2,280c5.7-7.4,37.1-47.1,57.5-53.7c22.6-7.3,1.2,21.7,1.2,21.7s40-43.8,54.7-39.8c13.5,3.6,0,30.8,0,30.8
	s15.2-15,33.6-15c17.9,0-12.5,53.3-14.1,56.1L1087.2,280z"/>
<path class="st5" d="M986.7,279.8c-18.9-25.7-41.4-48.5-66.9-67.8c-0.3-0.2-0.6,0.3-0.3,0.5c25.1,19.3,47.3,42.1,65.9,67.7
	L986.7,279.8z"/>
<path class="st5" d="M934.5,234.2c1.2-1.2,2.7-2.1,4.3-2.6c1.4-0.4,3-0.5,4.4-0.2c-1.2-1.2-2.7-2-4.3-2.4c-2.6-0.8-6.1-0.1-7.3,0.9
	c-2.6,1.8-2.8,4.8-1.5,5.4S933.1,235.1,934.5,234.2z"/>
<path class="st5" d="M923.7,224.8c1.2-1.2,2.7-2,4.3-2.6c1.4-0.4,3-0.5,4.4-0.2c-1.2-1.2-2.7-2-4.3-2.4c-2.6-0.8-6.1-0.1-7.3,0.9
	c-2.6,1.8-2.8,4.8-1.5,5.4S922.3,225.6,923.7,224.8z"/>
<path class="st5" d="M952.6,230c-0.6,0.4-2.6,1.1-3.5,2.7c-0.7,1.1-1.1,2.5-1,3.8c-1-1.4-1.6-3-1.8-4.7c-0.3-2.5,1-5.4,2.3-6
	c2.4-1.6,5.6-0.5,6,0.8S953.8,229.2,952.6,230z"/>
<path class="st5" d="M955.4,196.1c16.5,25.8,28.4,54.2,35.1,84l1.1-0.3c-6.8-29.6-18.7-57.8-35-83.4c-3.8-5.9-7.9-13-15-15.3
	c-0.1-0.1-0.2,0.2-0.1,0.2C948.1,183.9,951.8,190.6,955.4,196.1z"/>
<path class="st5" d="M953.9,180.3c-1.1,1.3-2,2.7-2.5,4.4c-0.4,1.5-0.4,3-0.1,4.4c-1.2-1.2-2-2.7-2.5-4.3c-0.8-2.6-0.2-6.1,0.8-7.3
	c1.7-2.7,4.7-2.9,5.3-1.6S954.7,178.9,953.9,180.3z"/>
<path class="st5" d="M950,203.1c1.2-1.2,2.7-2,4.3-2.6c1.4-0.4,3-0.5,4.4-0.2c-1.2-1.2-2.7-2-4.3-2.4c-2.6-0.8-6.1-0.1-7.3,0.9
	c-2.6,1.8-2.8,4.8-1.5,5.4S948.6,204,950,203.1z"/>
<path class="st5" d="M955.9,213.1c1.2-1.2,2.7-2.1,4.3-2.6c1.4-0.4,3-0.5,4.4-0.2c-1.2-1.2-2.7-2-4.3-2.4c-2.6-0.8-6.1-0.1-7.3,0.9
	c-2.6,1.8-2.8,4.8-1.5,5.4S954.5,214,955.9,213.1z"/>
<path class="st5" d="M962.2,191.6c-1.3,1.1-2.4,2.4-3.2,3.9c-0.6,1.4-0.9,2.9-0.8,4.4c-1-1.4-1.6-3-1.8-4.6
	c-0.4-2.7,0.7-6.1,1.9-7.1c2.1-2.4,5.1-2.1,5.5-0.8S963.2,190.4,962.2,191.6z"/>
<path class="st5" d="M970.8,202.9c-0.7,0.4-3.3,1.1-4.6,3c-1,1.3-1.5,2.9-1.5,4.6c-1.1-1.8-1.7-3.8-1.7-5.9
	c-0.2-3.1,1.7-6.5,3.3-7.1c3-1.7,6.9-0.2,7.2,1.5S972.4,202,970.8,202.9z"/>
<path class="st5" d="M980,220.1c-0.8,0.3-3.4,0.5-5,2.2c-1.2,1.1-2,2.6-2.3,4.2c-0.7-2-1-4.1-0.7-6.1c0.3-3.1,2.8-6.1,4.5-6.4
	c3.3-1.2,6.8,1,6.9,2.7S981.6,219.4,980,220.1z"/>
<path class="st5" d="M938.9,184.3c0.7-0.7,1.5-1.3,2.4-1.7c0.8-0.3,1.7-0.4,2.6-0.3c-2-1.6-4.8-1.8-6.9-0.4c-1.5,1.2-1.5,3-0.7,3.2
	S938.1,184.9,938.9,184.3z"/>
<path class="st5" d="M942.1,177c-0.2,1-0.1,2,0.1,3c0.3,0.9,0.7,1.6,1.4,2.2c-2.5-0.6-4.3-2.7-4.5-5.3c0-1.9,1.5-3,2.2-2.5
	S942.1,176.1,942.1,177z"/>
<path class="st5" d="M916,215.1c0.7-0.8,1.5-1.3,2.4-1.7c0.8-0.3,1.7-0.4,2.6-0.3c-0.8-0.6-1.7-1.1-2.7-1.2c-1.5-0.3-3,0-4.3,0.9
	c-1.5,1.2-1.5,3-0.7,3.2S915.2,215.7,916,215.1z"/>
<path class="st5" d="M919.9,207.7c-0.3,1-0.3,2-0.1,3c0.2,0.9,0.6,1.7,1.2,2.4c-1-0.3-1.8-0.8-2.5-1.6c-1-1.1-1.6-2.5-1.6-4
	c0.2-1.9,1.7-2.9,2.3-2.3S920,206.8,919.9,207.7z"/>
<path class="st5" d="M923.5,256.8c16.7,1.8,32.2,9.2,47.2,16.4c10.1,4.8,9.6,6.2,11.7,7c0.2,0.1,0.5-0.1,0.5-0.3c0-0.1,0-0.2,0-0.3
	c-0.8-1.6-2.8-2.6-4.3-3.5c-1.7-1-3.4-2-5.2-2.8c-3.8-1.9-7.7-3.5-11.6-5.2c-7.9-3.6-16-6.5-24.3-8.9c-4.6-1.2-9.2-2-14-2.5
	C923.4,256.7,923.4,256.8,923.5,256.8L923.5,256.8z"/>
<path class="st5" d="M937.1,251.4c-0.5,1.5-0.6,3.1-0.4,4.6c0.2,1.4,0.8,2.7,1.7,3.8c-1.5-0.5-2.8-1.4-3.8-2.6
	c-1.7-1.8-2.6-5-2.2-6.4c0.4-2.9,2.8-4.3,3.8-3.5S937.2,249.9,937.1,251.4z"/>
<path class="st5" d="M951.8,256.7c-0.5,1.5-0.6,3.1-0.4,4.6c0.2,1.4,0.8,2.7,1.7,3.8c-1.5-0.5-2.8-1.4-3.8-2.6
	c-1.7-1.8-2.6-5-2.2-6.4c0.4-2.9,2.8-4.3,3.8-3.5S952,255.2,951.8,256.7z"/>
<path class="st5" d="M966.7,263.3c-0.5,1.5-0.6,3.1-0.4,4.6c0.2,1.4,0.8,2.7,1.7,3.8c-1.5-0.5-2.8-1.4-3.8-2.6
	c-1.7-1.8-2.6-5-2.2-6.4c0.4-2.9,2.8-4.3,3.8-3.5S966.9,261.8,966.7,263.3z"/>
<path class="st5" d="M932.7,265.2c0.5-1.4,1.3-2.6,2.3-3.6c0.9-0.9,2.1-1.5,3.3-1.8c-1.4-0.4-2.8-0.5-4.2-0.2
	c-2.3,0.4-4.7,2.2-5.2,3.5c-1.3,2.4-0.3,4.8,0.9,4.7S932,266.4,932.7,265.2z"/>
<path class="st5" d="M948,270.6c0.5-1.4,1.3-2.6,2.3-3.6c0.9-0.9,2.1-1.5,3.3-1.8c-1.4-0.4-2.8-0.5-4.2-0.2
	c-2.3,0.4-4.7,2.2-5.2,3.5c-1.3,2.4-0.3,4.8,0.9,4.7S947.3,271.8,948,270.6z"/>
<path class="st5" d="M921,259.6c0.5-0.8,1.1-1.5,1.9-2c0.7-0.4,1.5-0.7,2.3-0.7c-0.8-0.4-1.7-0.7-2.6-0.7c-1.4,0-2.7,0.5-3.8,1.5
	c-1.2,1.3-0.8,2.9-0.1,3.1S920.4,260.2,921,259.6z"/>
<path class="st5" d="M922.8,252.4c0,0.9,0.2,1.8,0.6,2.7c0.4,0.7,0.9,1.4,1.6,1.8c-0.9,0-1.8-0.3-2.6-0.8c-1.2-0.7-2.1-1.9-2.4-3.2
	c-0.3-1.7,0.8-3,1.5-2.6S922.6,251.5,922.8,252.4z"/>
<ellipse transform="matrix(0.7071 -0.7071 0.7071 0.7071 202.1732 811.9454)" class="st1" cx="1081.2" cy="161.9" rx="118.2" ry="118.2"/>
<ellipse transform="matrix(0.7071 -0.7071 0.7071 0.7071 202.1732 811.9454)" class="st6" cx="1081.2" cy="161.9" rx="107.8" ry="107.8"/>
<ellipse transform="matrix(0.7071 -0.7071 0.7071 0.7071 202.1733 811.9454)" class="st7" cx="1081.2" cy="161.9" rx="90.7" ry="90.7"/>
<ellipse transform="matrix(0.7071 -0.7071 0.7071 0.7071 202.1732 811.9454)" class="st6" cx="1081.2" cy="161.9" rx="68.2" ry="68.2"/>
<ellipse transform="matrix(0.7071 -0.7071 0.7071 0.7071 202.1368 811.9722)" class="st7" cx="1081.2" cy="162" rx="48.4" ry="48.4"/>
<path class="st6" d="M1093.5,161.9c0,6.8-5.5,12.4-12.3,12.4c-6.8,0-12.4-5.5-12.4-12.3c0-6.8,5.5-12.4,12.3-12.4c0,0,0,0,0,0
	C1088,149.6,1093.5,155.1,1093.5,161.9z"/>
<polygon class="st8" points="1157,100.7 1156.5,92.7 1183.7,71.4 1182.2,83 1155.7,103.8 "/>
<polygon class="st5" points="1159,103.4 1166.7,105.7 1193.8,84.5 1182.2,83.1 1155.6,103.9 "/>
<path class="st8" d="M1080.3,163L1080.3,163c0.6,0.8,1.7,0.9,2.5,0.3c0,0,0,0,0,0l76.5-59.8l-2.2-2.9l-76.5,59.8
	C1079.8,161.1,1079.7,162.2,1080.3,163z"/>
<path class="st9" d="M273.9,57.4l0.2,0.6c0,0,0,0.1,0,0.2c0,0,0,0,0,0.1v0.1c0,0,0,0.1,0,0.1c0,0.2-0.1,0.3-0.2,0.5l-0.1,0l0,0h-0.1
	c-0.1,0-0.1,0.1-0.2,0.1l-2.6,0.9c0.4-0.1,0.8,0.1,1,0.4c0,0,0,0.1,0.1,0.1l1.5,4.5c0,0,0,0.1,0,0.2l0,0c0,0,0,0,0,0.1v0.2
	c0,0,0,0.1,0,0.1s0,0,0,0c0,0.1-0.1,0.2-0.2,0.3l-0.1,0.1c0,0,0,0-0.1,0h0c-0.1,0-0.1,0.1-0.2,0.1l-1.2,0.4c0.4-0.1,0.8,0.1,1,0.4
	c0,0,0.1,0.1,0.1,0.1l1.5,4.5c0,0,0,0.1,0,0.1l0,0c0,0,0,0,0,0.1v0.2c0,0,0,0.1,0,0.1l0,0c0,0.1-0.1,0.2-0.2,0.3H274l-0.1,0.1h0
	c-0.1,0-0.1,0.1-0.2,0.1L275,72c0.4-0.1,0.8,0.1,1,0.4c0,0,0.1,0.1,0.1,0.1l1.5,4.5c0,0,0,0.1,0,0.1c0,0,0,0.1,0,0.2v0.1
	c0,0.2-0.1,0.3-0.2,0.4l0,0.1h-0.1l-0.1,0.1h0c-0.1,0-0.1,0.1-0.2,0.1l-2.9,1c0.4-0.1,0.8,0.1,1,0.4l0.1,0.1l1.5,4.5
	c0,0.1,0,0.1,0,0.2c0,0,0,0.1,0,0.2c0,0.1,0,0.1,0,0.2v0.1c0,0,0,0.1,0,0.1l0,0.1l0,0.1c0,0-0.1,0.1-0.1,0.1h-0.1l-0.2,0.1l1.2-0.4
	c0.4-0.1,0.8,0,1,0.4c0,0,0.1,0.1,0.1,0.1L280,90c0,0,0,0.1,0,0.1c0,0.1,0,0.2,0,0.2c0,0,0,0,0,0.1c0,0.2-0.1,0.3-0.3,0.5l0,0l0,0
	h-0.1l-0.2,0.1l-2.3,0.8c0.4-0.1,0.8,0.1,1,0.4c0,0,0.1,0.1,0.1,0.1l1.5,4.5c0,0,0,0.1,0,0.1c0,0,0,0,0,0.1v0.1c0,0,0,0.1,0,0.1
	c0,0.2-0.2,0.4-0.4,0.6h-0.1l-0.2,0.1l-6.6,2.2c-0.4-0.1-0.8-0.2-1.3-0.3s-1.1-0.3-1.6-0.6c-1.7-0.7-3.3-1.5-4.8-2.6
	c-0.2-0.2-0.5-0.3-0.7-0.5l-0.7-0.5c-1.4-1.2-2.7-2.5-3.8-4c-0.1-0.2-0.3-0.4-0.4-0.6s-0.3-0.4-0.4-0.6c-0.9-1.4-1.6-3-2.1-4.6l0,0
	c-0.1-0.2-0.1-0.5-0.2-0.7s-0.1-0.5-0.2-0.7c-0.4-1.7-0.7-3.4-0.7-5.1c0-0.2,0-0.5,0-0.8s0-0.5,0-0.8c0.1-1.9,0.4-3.8,1-5.6
	c0.1-0.3,0.2-0.6,0.3-0.8s0.2-0.6,0.3-0.9c1.1-2.5,2.6-4.8,4.5-6.8c0.1-0.1,0.2-0.2,0.3-0.3c0.3-0.3,0.6-0.6,0.9-0.8
	s0.9-0.8,1.4-1.1l0.2-0.2c1.8-1.3,3.9-2.4,6-3.1l0.3-0.1C271.9,57.7,272.9,57.5,273.9,57.4z"/>
<circle class="st0" cx="280.7" cy="77.9" r="21.8"/>
<circle class="st0" cx="280.2" cy="78.1" r="17.3"/>
<path class="st0" d="M274.7,61.7c-0.3,0.1-0.6,0.2-0.9,0.3c9.2-2.5,18.7,3,21.2,12.2c2.3,8.5-2.2,17.4-10.3,20.6
	c0.3-0.1,0.6-0.2,0.9-0.3c9.1-3,14-12.8,11-21.8S283.8,58.6,274.7,61.7C274.7,61.6,274.7,61.6,274.7,61.7z"/>
<ellipse transform="matrix(0.8857 -0.4642 0.4642 0.8857 -4.2065 138.9809)" class="st0" cx="280.2" cy="78" rx="11.4" ry="11.4"/>
<path class="st6" d="M283.1,71.7l-0.5-1.6l-6.6,2.2l-2.5,0.8l0.5,1.6l2.5-0.8c1.1-0.3,2.2,0,2.9,0.9l-4.9,1.6l0.5,1.6l4.9-1.6
	c0,1.1-0.7,2.1-1.8,2.4l-2.5,0.8l0.5,1.6l0.5-0.2c0.8-0.3,1.6-0.3,2.4-0.1c2.3,0.5,4.3,1.9,5.6,3.8l1.7-0.6
	c-1.5-2.2-3.6-3.9-6.1-4.7c1-0.9,1.5-2.3,1.4-3.7l2.6-0.9l-0.5-1.6l-2.6,0.9c-0.3-0.6-0.8-1.1-1.3-1.4L283.1,71.7z"/>
<path class="st9" d="M614.5,224.6l0.2,0.6c0,0,0,0.1,0,0.1c0,0,0,0,0,0.1v0.1c0,0,0,0.1,0,0.1c0,0.2-0.1,0.3-0.2,0.4l0,0.1l0,0h-0.1
	l-0.2,0.1l-2.5,0.8c0.4-0.1,0.8,0,1,0.4c0,0,0,0.1,0,0.1l1.4,4.2c0,0,0,0.1,0,0.1l0,0c0,0,0,0,0,0.1l0,0c0,0,0,0.1,0,0.1
	c0,0,0,0.1,0,0.1l0,0c0,0.1-0.1,0.2-0.2,0.3l0,0.1h-0.1h0l-0.2,0.1l-1.1,0.4c0.4-0.2,0.8,0,1,0.4c0,0,0.1,0.1,0.1,0.1l1.4,4.2
	c0,0,0,0.1,0,0.1l0,0c0,0,0,0,0,0.1v0.1c0,0,0,0.1,0,0.1s0,0,0,0c0,0.1-0.1,0.2-0.2,0.3l0,0.1l-0.1,0.1h0l-0.2,0.1l1.1-0.4
	c0.4-0.1,0.8,0,1,0.4c0,0,0,0.1,0,0.1l1.4,4.2v0.1c0,0.1,0,0.1,0,0.1s0,0,0,0.1c0,0.1-0.1,0.3-0.2,0.4l0,0l-0.1,0.1l-0.1,0.1l0,0
	l-0.2,0.1l-2.7,0.9c0.4-0.1,0.8,0,1,0.4c0,0,0,0.1,0,0.1l1.4,4.2c0,0.1,0,0.1,0,0.2c0,0,0,0.1,0,0.1c0,0.1,0,0.1,0,0.2v0.1
	c0,0,0,0,0,0.1v0.1v0.1l-0.1,0.1H617c0,0-0.1,0.1-0.2,0.1l1.2-0.4c0.4-0.1,0.8,0,1,0.4l0.1,0.1l1.4,4.2c0,0,0,0.1,0,0.1
	c0,0.1,0,0.1,0,0.2c0,0,0,0,0,0.1c0,0.2-0.1,0.3-0.2,0.4l0,0h0l0,0l-0.2,0.1l-2.2,0.7c0.4-0.2,0.8,0,1,0.4l0.1,0.1l1.4,4.2
	c0,0,0,0.1,0,0.1c0,0,0,0,0,0.1v0.1c0,0,0,0,0,0.1c0,0.2-0.2,0.4-0.3,0.5h-0.1l-0.2,0.1l-6.2,2c-0.4-0.1-0.8-0.2-1.2-0.3
	s-1-0.3-1.5-0.5c-1.7-0.4-3.4-1-4.9-1.8c-0.2-0.2-0.4-0.3-0.7-0.5s-0.4-0.3-0.6-0.5c-1.3-1.1-2.5-2.4-3.5-3.8
	c-0.1-0.2-0.3-0.4-0.4-0.6s-0.2-0.4-0.4-0.6c-0.8-1.3-1.5-2.8-2-4.3l0,0c-0.1-0.2-0.1-0.4-0.2-0.6s-0.1-0.4-0.2-0.6
	c-0.4-1.5-0.6-3.1-0.7-4.7c0-0.2,0-0.5,0-0.7s0-0.5,0-0.7c0.1-1.8,0.4-3.6,1-5.3c0.1-0.3,0.2-0.5,0.3-0.8s0.2-0.5,0.3-0.8
	c1-2.4,2.4-4.5,4.2-6.3l0.3-0.3c0.3-0.3,0.5-0.5,0.8-0.8c0.4-0.4,0.8-0.7,1.3-1l0.2-0.2c1.7-1.2,3.6-2.2,5.6-2.9l0.3-0.1
	C612.6,225,613.5,224.8,614.5,224.6z"/>
<ellipse transform="matrix(0.9929 -0.1188 0.1188 0.9929 -24.5526 75.4493)" class="st0" cx="620.8" cy="243.8" rx="20.4" ry="20.4"/>
<circle class="st0" cx="620.3" cy="243.9" r="16.2"/>
<path class="st0" d="M615.3,228.6l-0.9,0.3c8.6-2.3,17.5,2.8,19.8,11.5c2.1,7.9-2,16.2-9.6,19.2c0.3-0.1,0.6-0.2,0.9-0.3
	c8.4-2.9,12.9-12.2,10-20.6C632.5,230.4,623.6,225.9,615.3,228.6L615.3,228.6z"/>
<ellipse transform="matrix(0.8857 -0.4642 0.4642 0.8857 -42.3235 315.8635)" class="st0" cx="620.4" cy="243.9" rx="10.6" ry="10.6"/>
<path class="st6" d="M623.1,238l-0.5-1.5l-6.2,2l-2.4,0.8l0.5,1.5l2.4-0.8c1-0.3,2.1,0,2.7,0.8l-4.5,1.5l0.5,1.5l4.5-1.5
	c0,1-0.7,2-1.7,2.3l-2.4,0.8l0.5,1.5l0.5-0.2c0.7-0.2,1.5-0.3,2.2-0.1c2.1,0.5,4,1.8,5.3,3.6l1.5-0.5c-1.4-2.1-3.4-3.6-5.8-4.4
	c1-0.9,1.4-2.2,1.3-3.4l2.5-0.8l-0.5-1.5l-2.5,0.8c-0.3-0.5-0.7-1-1.2-1.3L623.1,238z"/>
<circle class="st0" cx="849.1" cy="103.8" r="44.9"/>
<rect x="821.5" y="86.3" class="st1" width="0.3" height="37.6"/>
<rect x="835.7" y="86.3" class="st1" width="0.3" height="37.6"/>
<rect x="850" y="86.3" class="st1" width="0.3" height="37.6"/>
<rect x="864.3" y="86.3" class="st1" width="0.3" height="37.6"/>
<rect x="879.5" y="85" class="st1" width="0.3" height="38.9"/>
<path class="st1" d="M821.8,108.7c0,0,5.1,3.1,10.8-2.7c5.6-5.8,11.7-10.4,17.4-5.5c5.7,4.9,9.2,6.1,15,0.6
	c5.7-5.5,5.3-12.2,13.9-12.2v34.9h-57.1V108.7z"/>
<rect x="820.6" y="81.7" class="st1" width="5.8" height="1.4"/>
<rect x="835.9" y="83.2" class="st1" width="3.5" height="1.4"/>
<rect x="850.2" y="81.7" class="st1" width="4.5" height="1.4"/>
<rect x="864.9" y="81.7" class="st1" width="7" height="1.4"/>
<rect x="879.7" y="81.7" class="st1" width="2.4" height="1.4"/>
<rect x="820.8" y="129.3" class="st1" width="29.2" height="3.4"/>
<path class="st10" d="M1288.9,106.5l0.1,0.3c0,0,0,0.1,0,0.1l0,0c0,0,0,0.1,0,0.1l0,0c0,0.1-0.1,0.2-0.2,0.3l0,0l0,0l0,0h-0.1
	l-1.5,0.5c0.2-0.1,0.5,0,0.6,0.2c0,0,0,0,0,0.1l0.9,2.6c0,0,0,0.1,0,0.1l0,0l0,0v0.1c0,0,0,0,0,0.1l0,0c0,0.1-0.1,0.2-0.1,0.2l0,0
	l0,0l0,0h-0.1l-0.7,0.2c0.2-0.1,0.5,0,0.6,0.2v0.1l0.9,2.6c0,0,0,0,0,0.1l0,0l0,0l0,0c0,0,0,0,0,0.1c0,0,0,0,0,0.1l0,0
	c0,0.1-0.1,0.1-0.1,0.2l0,0l0,0l0,0h-0.1l0.7-0.2c0.2-0.1,0.5,0,0.6,0.2v0.1l0.7,3.2c0,0,0,0.1,0,0.1c0,0,0,0.1,0,0.1l0,0
	c0,0.1,0,0.2-0.1,0.2l0,0l0,0l0,0l0,0h-0.1l-1.6,0.6c0.2-0.1,0.5,0,0.6,0.2c0,0,0,0.1,0,0.1l0.9,2.6c0,0,0,0.1,0,0.1v0.1v0.1l0,0
	l0,0l0,0l0,0c0,0,0,0-0.1,0.1l0,0h-0.1l0.7-0.2c0.2-0.1,0.5,0,0.6,0.2v0.1l0.9,2.6c0,0,0,0.1,0,0.1c0,0,0,0.1,0,0.1l0,0
	c0,0.1-0.1,0.2-0.2,0.3l0,0l0,0l0,0h-0.1l-1.3,0.4c0.2-0.1,0.5,0,0.6,0.2c0,0,0,0,0,0.1l0.9,2.6c0,0,0,0,0,0.1v0.1l0,0
	c0,0.1-0.1,0.2-0.2,0.3l0,0l-0.1,0.1l-3.8,1.2c-0.2-0.1-0.5-0.1-0.7-0.2s-0.6-0.2-1-0.3c-1-0.4-1.9-0.9-2.8-1.5
	c-0.1-0.1-0.3-0.2-0.4-0.3l-0.4-0.3c-0.8-0.7-1.5-1.5-2.2-2.3c-0.1-0.1-0.2-0.2-0.2-0.4l-0.2-0.3c-0.5-0.8-0.9-1.7-1.2-2.7l0,0
	l-0.1-0.4c0-0.1-0.1-0.3-0.1-0.4c-0.2-1-0.4-1.9-0.4-2.9v-0.4c0-0.2,0-0.3,0-0.4c0.1-1.1,0.3-2.2,0.6-3.2c0.1-0.2,0.1-0.3,0.2-0.5
	s0.1-0.3,0.2-0.5c0.6-1.5,1.5-2.8,2.6-3.9l0.2-0.2c0.2-0.2,0.3-0.3,0.5-0.5c0.3-0.2,0.5-0.4,0.8-0.6l0.1-0.1c1-0.5,2.2-0.9,3.3-1.1
	l0.2-0.1C1287.8,106.8,1288.3,106.6,1288.9,106.5z"/>
<ellipse transform="matrix(0.9929 -0.1188 0.1188 0.9929 -4.8999 154.363)" class="st0" cx="1292.8" cy="118.3" rx="12.6" ry="12.6"/>
<circle class="st0" cx="1292.6" cy="118.4" r="10"/>
<path class="st0" d="M1289.4,108.9c-0.2,0.1-0.4,0.1-0.5,0.2c5.4-1.3,10.8,2,12.1,7.3c1.2,4.8-1.3,9.7-5.8,11.6l0.5-0.2
	c5.2-1.7,8.1-7.4,6.4-12.6S1294.7,107.2,1289.4,108.9L1289.4,108.9z"/>
<ellipse transform="matrix(0.8857 -0.4642 0.4642 0.8857 92.7688 613.5435)" class="st0" cx="1292.5" cy="118.4" rx="6.6" ry="6.6"/>
<path class="st6" d="M1294.2,114.8l-0.3-0.9l-3.8,1.3l-1.5,0.5l0.3,0.9l1.5-0.5c0.6-0.2,1.3,0,1.7,0.5l-2.8,0.9l0.3,0.9l2.8-0.9
	c0,0.6-0.4,1.2-1,1.4l-1.5,0.5l0.3,0.9l0.3-0.1c0.4-0.2,0.9-0.2,1.4-0.1c1.3,0.3,2.5,1.1,3.2,2.2l0.9-0.3c-0.8-1.3-2.1-2.2-3.6-2.7
	c0.6-0.5,0.9-1.3,0.8-2.1l1.5-0.5l-0.3-0.9l-1.5,0.5c-0.2-0.3-0.4-0.6-0.8-0.8L1294.2,114.8z"/>
</svg>
