<svg width="31" height="31" viewBox="0 0 31 31" fill="none" xmlns="http://www.w3.org/2000/svg">
<g clip-path="url(#clip0_4_418)">
<path d="M3.7 28.3H17.6C18.5 28.3 19.2 27.6 19.2 26.7V13.4H1.5C0.7 13.4 0 14 0 14.8V24.6C0 26.7 1.7 28.3 3.7 28.3Z" fill="#042b62"/>
<path d="M9.60001 22.4L11.1 23.9C11.2 24 11.3 24 11.3 23.9L12.7 22.5C12.8 22.4 12.9 22.4 12.9 22.5L14.3 23.9C14.4 24 14.5 24 14.5 23.9L15.9 22.5C16 22.4 16 22.4 16.1 22.5L17.5 23.9C17.6 24 17.7 24 17.7 23.9L19.1 22.5C19.2 22.4 19.3 22.4 19.3 22.5L20.7 23.9C20.8 24 20.9 24 20.9 23.9L22.4 22.4V4.8H11.8C10.6 4.8 9.70001 5.8 9.70001 6.9V22.4H9.60001Z" fill="#EAEAEA" stroke="#939393" stroke-width="0.25"/>
<path d="M0 26.6C0 27.6 0.7 28.5 1.7 28.7L12.7 31C12.8 31 12.9 31 13 31C13.8 31 14.4 30.4 14.4 29.5V20.5C14.4 19.5 13.7 18.6 12.7 18.4L1.2 16.2C0.5 16.1 0 15.5 0 14.8V26.6Z" fill="#042b62"/>
<path d="M20.3 16.6H16C14.8 16.6 13.9 15.6 13.9 14.5V6.9C13.9 5.7 12.9 4.8 11.8 4.8H20.4V16.6H20.3Z" fill="#DDDDDD" stroke="#939393" stroke-width="0.25"/>
<path d="M28.9 16.6C30.1 16.6 31 15.7 31 14.5V0L29.6 1.4C29.5 1.5 29.3 1.5 29.2 1.4L28 0.2C27.9 0.1 27.7 0.1 27.6 0.2L26.4 1.4C26.3 1.5 26.1 1.5 25.9 1.4L24.7 0.2C24.6 0.1 24.4 0.1 24.3 0.2L23.1 1.4C23 1.5 22.8 1.5 22.7 1.4L21.5 0.2C21.4 0.1 21.2 0.1 21.1 0.2L20 1.4C19.9 1.5 19.7 1.5 19.5 1.4L18.2 0V14.4C18.2 15.6 17.3 16.5 16.1 16.5H28.9V16.6Z" fill="#E2E2E2" stroke="#939393" stroke-width="0.25"/>
<path d="M24.8 5.59999C25.4075 5.59999 25.9 5.10751 25.9 4.49999C25.9 3.89248 25.4075 3.39999 24.8 3.39999C24.1925 3.39999 23.7 3.89248 23.7 4.49999C23.7 5.10751 24.1925 5.59999 24.8 5.59999Z" fill="white"/>
<path d="M21.8 7.2H27.8C28 7.2 28 7.3 28 7.4V8.1C28 8.2 27.9 8.3 27.8 8.3H21.8C21.7 8.3 21.6 8.2 21.6 8.1V7.4C21.6 7.3 21.7 7.2 21.8 7.2Z" fill="white"/>
<path d="M21.8 9.3H27.8C28 9.3 28 9.3 28 9.4V10.1C28 10.2 27.9 10.3 27.8 10.3H21.8C21.7 10.3 21.6 10.2 21.6 10.1V9.4C21.6 9.3 21.7 9.3 21.8 9.3Z" fill="white"/>
<path d="M21.8 11.3H27.8C27.9 11.3 28 11.4 28 11.5V12.2C28 12.3 27.9 12.4 27.8 12.4H21.8C21.7 12.4 21.6 12.3 21.6 12.2V11.5C21.6 11.4 21.7 11.3 21.8 11.3Z" fill="white"/>
</g>
<defs>
<clipPath id="clip0_4_418">
<rect width="31" height="31" fill="white"/>
</clipPath>
</defs>
</svg>
