<svg width="32" height="32" viewBox="0 0 32 32" fill="none" xmlns="http://www.w3.org/2000/svg">
<g clip-path="url(#clip0_4_565)">
<path d="M23.5 0C21 0 18.8 1.9 18.5 4.4L18.3 6.6L18 9.4H23.5C26.1 9.4 28.2 7.3 28.2 4.7C28.2 2.1 26.1 0 23.5 0ZM24.7 7C24.2 7.5 23.6 7.7 22.9 7.7H19.9L20 6.6L20.2 5.2C20.4 3.8 21.5 2.7 22.9 2.7C24.3 2.7 25.4 3.8 25.4 5.2C25.4 5.7 25.3 6.2 25 6.6C24.9 6.8 24.8 6.9 24.7 7Z" fill="#E2E2E2"/>
<path d="M13.8 6.6L13.6 4.4C13.2 1.9 11.1 0 8.6 0C6 0 3.9 2.1 3.9 4.7C3.9 7.3 6 9.4 8.6 9.4H14.1L13.8 6.6ZM9.1 7.7C7.7 7.7 6.6 6.6 6.6 5.2C6.6 3.8 7.7 2.7 9.1 2.7C10.5 2.7 11.7 3.8 11.9 5.2L12 6.6L12.1 7.7H9.1Z" fill="#E2E2E2"/>
<path d="M1.4 11.6H30.5C30.7 11.6 30.8 11.7 30.8 11.9V31.7C30.8 31.9 30.7 32 30.5 32H1.4C1.2 32 1.1 31.9 1.1 31.7V11.9C1.1 11.7 1.2 11.6 1.4 11.6Z" fill="#042b62"/>
<path d="M30.9 11.6V31.7C30.9 31.9 30.7 32.1 30.5 32.1H1.1V31H20.9C25.8 31 29.8 27 29.8 22.1V11.6H30.9Z" fill="#042b62"/>
<path d="M1.1 11.6H30.9V13.2H1.1V11.6Z" fill="#042b62"/>
<path d="M0.6 7.70001H31.5C31.8 7.70001 32 8.00001 32 8.30001V11C32 11.3 31.8 11.6 31.5 11.6H0.6C0.2 11.6 0 11.3 0 11V8.30001C0 8.00001 0.2 7.70001 0.6 7.70001C0.5 7.70001 0.5 7.70001 0.6 7.70001Z" fill="#042b62"/>
<path d="M12.7 7.70001H19.3V11.6H12.7V7.70001Z" fill="#EAEAEA"/>
<path d="M13.8 11.6H18.2V32H13.8V11.6Z" fill="#EAEAEA"/>
<path d="M18.2 4.40001V7.70001H13.8V4.40001C13.9 3.80001 14.4 3.30001 15 3.40001C15.5 3.50001 15.9 3.90001 16 4.40001C16.1 3.80001 16.6 3.30001 17.2 3.40001C17.7 3.50001 18.2 3.90001 18.2 4.40001Z" fill="#EAEAEA"/>
<path d="M2.8 16.5C3.40751 16.5 3.9 16.0075 3.9 15.4C3.9 14.7925 3.40751 14.3 2.8 14.3C2.19248 14.3 1.7 14.7925 1.7 15.4C1.7 16.0075 2.19248 16.5 2.8 16.5Z" fill="white"/>
<path d="M2.8 25.4C3.40751 25.4 3.9 24.9075 3.9 24.3C3.9 23.6925 3.40751 23.2 2.8 23.2C2.19248 23.2 1.7 23.6925 1.7 24.3C1.7 24.9075 2.19248 25.4 2.8 25.4Z" fill="white"/>
<path d="M7.2 21C7.80751 21 8.3 20.5075 8.3 19.9C8.3 19.2925 7.80751 18.8 7.2 18.8C6.59249 18.8 6.1 19.2925 6.1 19.9C6.1 20.5075 6.59249 21 7.2 21Z" fill="white"/>
<path d="M11.6 16.5C12.2075 16.5 12.7 16.0075 12.7 15.4C12.7 14.7925 12.2075 14.3 11.6 14.3C10.9925 14.3 10.5 14.7925 10.5 15.4C10.5 16.0075 10.9925 16.5 11.6 16.5Z" fill="white"/>
<path d="M7.2 29.8C7.80751 29.8 8.3 29.3075 8.3 28.7C8.3 28.0925 7.80751 27.6 7.2 27.6C6.59249 27.6 6.1 28.0925 6.1 28.7C6.1 29.3075 6.59249 29.8 7.2 29.8Z" fill="white"/>
<path d="M11.6 25.4C12.2075 25.4 12.7 24.9075 12.7 24.3C12.7 23.6925 12.2075 23.2 11.6 23.2C10.9925 23.2 10.5 23.6925 10.5 24.3C10.5 24.9075 10.9925 25.4 11.6 25.4Z" fill="white"/>
<path d="M20.4 16.5C21.0075 16.5 21.5 16.0075 21.5 15.4C21.5 14.7925 21.0075 14.3 20.4 14.3C19.7925 14.3 19.3 14.7925 19.3 15.4C19.3 16.0075 19.7925 16.5 20.4 16.5Z" fill="white"/>
<path d="M20.4 25.4C21.0075 25.4 21.5 24.9075 21.5 24.3C21.5 23.6925 21.0075 23.2 20.4 23.2C19.7925 23.2 19.3 23.6925 19.3 24.3C19.3 24.9075 19.7925 25.4 20.4 25.4Z" fill="white"/>
<path d="M24.8 21C25.4075 21 25.9 20.5075 25.9 19.9C25.9 19.2925 25.4075 18.8 24.8 18.8C24.1925 18.8 23.7 19.2925 23.7 19.9C23.7 20.5075 24.1925 21 24.8 21Z" fill="white"/>
<path d="M29.2 16.5C29.8075 16.5 30.3 16.0075 30.3 15.4C30.3 14.7925 29.8075 14.3 29.2 14.3C28.5925 14.3 28.1 14.7925 28.1 15.4C28.1 16.0075 28.5925 16.5 29.2 16.5Z" fill="white"/>
<path d="M24.8 29.8C25.4075 29.8 25.9 29.3075 25.9 28.7C25.9 28.0925 25.4075 27.6 24.8 27.6C24.1925 27.6 23.7 28.0925 23.7 28.7C23.7 29.3075 24.1925 29.8 24.8 29.8Z" fill="white"/>
<path d="M29.2 25.4C29.8075 25.4 30.3 24.9075 30.3 24.3C30.3 23.6925 29.8075 23.2 29.2 23.2C28.5925 23.2 28.1 23.6925 28.1 24.3C28.1 24.9075 28.5925 25.4 29.2 25.4Z" fill="white"/>
<path d="M10.1 7.69999H12.1L11.3 6.89999C9.5 5.09999 6.5 5.09999 4.7 6.89999L2.2 9.39999H4.4V11.6L7 8.99999C7.8 8.19999 8.9 7.69999 10.1 7.69999Z" fill="#EAEAEA"/>
<path d="M21.9 7.69999H19.9L20.7 6.89999C22.5 5.09999 25.5 5.09999 27.3 6.89999L29.8 9.39999H27.6V11.6L25 8.99999C24.2 8.19999 23.1 7.69999 21.9 7.69999Z" fill="#EAEAEA"/>
<path d="M16 4.39999V5.49999C15.4 5.49999 14.9 4.99999 14.9 4.39999V3.29999C15.5 3.29999 16 3.79999 16 4.39999Z" fill="#E2E2E2"/>
<path d="M18.2 4.39999V7.69999H13.8V6.59999C13.8 6.89999 14 7.19999 14.4 7.19999H15.5C16.4 7.19999 17.2 6.49999 17.2 5.59999V3.29999C17.7 3.29999 18.2 3.79999 18.2 4.39999Z" fill="#E2E2E2"/>
<path d="M13.8 11.6H18.2V13.2H13.8V11.6Z" fill="#E2E2E2"/>
<path d="M23.5 0C21 0 18.8 1.9 18.5 4.4L18.3 6.6L18 9.4H23.5C26.1 9.4 28.2 7.3 28.2 4.7C28.2 2.1 26.1 0 23.5 0ZM24.7 7C24.2 7.5 23.6 7.7 22.9 7.7H19.9L20 6.6L20.2 5.2C20.4 3.8 21.5 2.7 22.9 2.7C24.3 2.7 25.4 3.8 25.4 5.2C25.4 5.7 25.3 6.2 25 6.6C24.9 6.8 24.8 6.9 24.7 7Z" fill="#E2E2E2" stroke="#939393" stroke-width="0.25"/>
<path d="M13.8 6.6L13.6 4.4C13.2 1.9 11.1 0 8.6 0C6 0 3.9 2.1 3.9 4.7C3.9 7.3 6 9.4 8.6 9.4H14.1L13.8 6.6ZM9.1 7.7C7.7 7.7 6.6 6.6 6.6 5.2C6.6 3.8 7.7 2.7 9.1 2.7C10.5 2.7 11.7 3.8 11.9 5.2L12 6.6L12.1 7.7H9.1Z" fill="#E2E2E2" stroke="#939393" stroke-width="0.25"/>
<path d="M1.4 11.6H30.5C30.7 11.6 30.8 11.7 30.8 11.9V31.7C30.8 31.9 30.7 32 30.5 32H1.4C1.2 32 1.1 31.9 1.1 31.7V11.9C1.1 11.7 1.2 11.6 1.4 11.6Z" fill="#042b62"/>
<path d="M30.9 11.6V31.7C30.9 31.9 30.7 32.1 30.5 32.1H1.1V31H20.9C25.8 31 29.8 27 29.8 22.1V11.6H30.9Z" fill="#042b62"/>
<path d="M1.1 11.6H30.9V13.2H1.1V11.6Z" fill="#042b62"/>
<path d="M0.6 7.70001H31.5C31.8 7.70001 32 8.00001 32 8.30001V11C32 11.3 31.8 11.6 31.5 11.6H0.6C0.2 11.6 0 11.3 0 11V8.30001C0 8.00001 0.2 7.70001 0.6 7.70001C0.5 7.70001 0.5 7.70001 0.6 7.70001Z" fill="#042b62"/>
<path d="M12.7 7.70001H19.3V11.6H12.7V7.70001Z" fill="#EAEAEA" stroke="#939393" stroke-width="0.25"/>
<path d="M13.8 11.6H18.2V32H13.8V11.6Z" fill="#EAEAEA" stroke="#939393" stroke-width="0.25"/>
<path d="M18.2 4.40001V7.70001H13.8V4.40001C13.9 3.80001 14.4 3.30001 15 3.40001C15.5 3.50001 15.9 3.90001 16 4.40001C16.1 3.80001 16.6 3.30001 17.2 3.40001C17.7 3.50001 18.2 3.90001 18.2 4.40001Z" fill="#EAEAEA" stroke="#939393" stroke-width="0.25"/>
<path d="M2.8 16.5C3.40751 16.5 3.9 16.0075 3.9 15.4C3.9 14.7925 3.40751 14.3 2.8 14.3C2.19248 14.3 1.7 14.7925 1.7 15.4C1.7 16.0075 2.19248 16.5 2.8 16.5Z" fill="white"/>
<path d="M2.8 25.4C3.40751 25.4 3.9 24.9075 3.9 24.3C3.9 23.6925 3.40751 23.2 2.8 23.2C2.19248 23.2 1.7 23.6925 1.7 24.3C1.7 24.9075 2.19248 25.4 2.8 25.4Z" fill="white"/>
<path d="M7.2 21C7.80751 21 8.3 20.5075 8.3 19.9C8.3 19.2925 7.80751 18.8 7.2 18.8C6.59249 18.8 6.1 19.2925 6.1 19.9C6.1 20.5075 6.59249 21 7.2 21Z" fill="white"/>
<path d="M11.6 16.5C12.2075 16.5 12.7 16.0075 12.7 15.4C12.7 14.7925 12.2075 14.3 11.6 14.3C10.9925 14.3 10.5 14.7925 10.5 15.4C10.5 16.0075 10.9925 16.5 11.6 16.5Z" fill="white"/>
<path d="M7.2 29.8C7.80751 29.8 8.3 29.3075 8.3 28.7C8.3 28.0925 7.80751 27.6 7.2 27.6C6.59249 27.6 6.1 28.0925 6.1 28.7C6.1 29.3075 6.59249 29.8 7.2 29.8Z" fill="white"/>
<path d="M11.6 25.4C12.2075 25.4 12.7 24.9075 12.7 24.3C12.7 23.6925 12.2075 23.2 11.6 23.2C10.9925 23.2 10.5 23.6925 10.5 24.3C10.5 24.9075 10.9925 25.4 11.6 25.4Z" fill="white"/>
<path d="M20.4 16.5C21.0075 16.5 21.5 16.0075 21.5 15.4C21.5 14.7925 21.0075 14.3 20.4 14.3C19.7925 14.3 19.3 14.7925 19.3 15.4C19.3 16.0075 19.7925 16.5 20.4 16.5Z" fill="white"/>
<path d="M20.4 25.4C21.0075 25.4 21.5 24.9075 21.5 24.3C21.5 23.6925 21.0075 23.2 20.4 23.2C19.7925 23.2 19.3 23.6925 19.3 24.3C19.3 24.9075 19.7925 25.4 20.4 25.4Z" fill="white"/>
<path d="M24.8 21C25.4075 21 25.9 20.5075 25.9 19.9C25.9 19.2925 25.4075 18.8 24.8 18.8C24.1925 18.8 23.7 19.2925 23.7 19.9C23.7 20.5075 24.1925 21 24.8 21Z" fill="white"/>
<path d="M29.2 16.5C29.8075 16.5 30.3 16.0075 30.3 15.4C30.3 14.7925 29.8075 14.3 29.2 14.3C28.5925 14.3 28.1 14.7925 28.1 15.4C28.1 16.0075 28.5925 16.5 29.2 16.5Z" fill="white"/>
<path d="M24.8 29.8C25.4075 29.8 25.9 29.3075 25.9 28.7C25.9 28.0925 25.4075 27.6 24.8 27.6C24.1925 27.6 23.7 28.0925 23.7 28.7C23.7 29.3075 24.1925 29.8 24.8 29.8Z" fill="white"/>
<path d="M29.2 25.4C29.8075 25.4 30.3 24.9075 30.3 24.3C30.3 23.6925 29.8075 23.2 29.2 23.2C28.5925 23.2 28.1 23.6925 28.1 24.3C28.1 24.9075 28.5925 25.4 29.2 25.4Z" fill="white"/>
<path d="M10.1 7.69999H12.1L11.3 6.89999C9.5 5.09999 6.5 5.09999 4.7 6.89999L2.2 9.39999H4.4V11.6L7 8.99999C7.8 8.19999 8.9 7.69999 10.1 7.69999Z" fill="#EAEAEA" stroke="#939393" stroke-width="0.25"/>
<path d="M21.9 7.69999H19.9L20.7 6.89999C22.5 5.09999 25.5 5.09999 27.3 6.89999L29.8 9.39999H27.6V11.6L25 8.99999C24.2 8.19999 23.1 7.69999 21.9 7.69999Z" fill="#EAEAEA" stroke="#939393" stroke-width="0.25"/>
<path d="M16 4.39999V5.49999C15.4 5.49999 14.9 4.99999 14.9 4.39999V3.29999C15.5 3.29999 16 3.79999 16 4.39999Z" fill="#E2E2E2"/>
<path d="M18.2 4.39999V7.69999H13.8V6.59999C13.8 6.89999 14 7.19999 14.4 7.19999H15.5C16.4 7.19999 17.2 6.49999 17.2 5.59999V3.29999C17.7 3.29999 18.2 3.79999 18.2 4.39999Z" fill="#E2E2E2"/>
<path d="M13.8 11.6H18.2V13.2H13.8V11.6Z" fill="#E2E2E2"/>
</g>
<defs>
<clipPath id="clip0_4_565">
<rect width="32" height="32" fill="white"/>
</clipPath>
</defs>
</svg>
