<svg width="44" height="44" viewBox="0 0 44 44" fill="none" xmlns="http://www.w3.org/2000/svg">
<g clip-path="url(#clip0_4_706)">
<path opacity="0.62" d="M22 44C34.1503 44 44 34.1503 44 22C44 9.84974 34.1503 0 22 0C9.84974 0 0 9.84974 0 22C0 34.1503 9.84974 44 22 44Z" fill="#DDDDDD"/>
<path opacity="0.15" d="M21.8 40.3C32.0173 40.3 40.3 32.0173 40.3 21.8C40.3 11.5827 32.0173 3.29999 21.8 3.29999C11.5827 3.29999 3.29999 11.5827 3.29999 21.8C3.29999 32.0173 11.5827 40.3 21.8 40.3Z" fill="white"/>
<path opacity="0.52" d="M8.14737 24.2768C8.81011 24.2768 9.34735 23.7395 9.34735 23.0768C9.34735 22.414 8.81011 21.8768 8.14737 21.8768C7.48463 21.8768 6.94736 22.414 6.94736 23.0768C6.94736 23.7395 7.48463 24.2768 8.14737 24.2768Z" fill="#042b62"/>
<path opacity="0.52" d="M14.5474 10.4768C15.0996 10.4768 15.5474 10.0291 15.5474 9.47678C15.5474 8.92449 15.0996 8.47678 14.5474 8.47678C13.9951 8.47678 13.5474 8.92449 13.5474 9.47678C13.5474 10.0291 13.9951 10.4768 14.5474 10.4768Z" fill="#042b62"/>
<path opacity="0.5238" d="M31.2473 10.5768C31.9101 10.5768 32.4474 10.0395 32.4474 9.37677C32.4474 8.71403 31.9101 8.17679 31.2473 8.17679C30.5846 8.17679 30.0474 8.71403 30.0474 9.37677C30.0474 10.0395 30.5846 10.5768 31.2473 10.5768Z" fill="#042b62"/>
<path opacity="0.2873" d="M32.1474 37.0768C32.6997 37.0768 33.1474 36.6291 33.1474 36.0768C33.1474 35.5245 32.6997 35.0768 32.1474 35.0768C31.5951 35.0768 31.1474 35.5245 31.1474 36.0768C31.1474 36.6291 31.5951 37.0768 32.1474 37.0768Z" fill="#042b62" fill-opacity="0.5"/>
<path d="M29.1 29.5C29.1 29.5 30.7 28.5 30.4 27.8C30.1 27.2 28.6 27.7 26.9 28.6C26.9 28.6 28 32.3 21.5 30.6C21.5 30.6 25.2 30.5 25.8 30C26.4 29.5 26.3 28.3 23.7 28.2C21.8 28.2 20.9 26.4 19.2 26.1C17.7 25.8 15.2 26.9 11.4 29.6L14.2 32.4C14.2 32.4 16.1 32.4 16.6 32.4C17.1 32.4 19.9 33.3 22.8 33.9C24.7 34.3 30.9 30.5 32.1 29.6C33.3 28.8 31.5 27.9 29.1 29.5Z" fill="#042b62" fill-opacity="0.5"/>
<path d="M21.5 13.3C23 14.2 23.2 14.5 23.2 14.5H25H26.8C26.8 14.5 27 14.2 28.5 13.3C30.5 12.1 30.5 11.7 29.9 11.5C28.2 10.7 27.8 11.8 27.3 12.3C26.9 12.8 26.3 12.8 26.5 12.3C27.3 10.3 25.9 10 25 10C24.1 10 22.7 10.3 23.6 12.2C23.8 12.7 23.2 12.7 22.8 12.2C22.3 11.6 21.9 10.6 20.2 11.4C19.5 11.7 19.5 12.1 21.5 13.3Z" fill="#042b62" fill-opacity="0.5"/>
<path d="M30.8 21.4C30.4 18.9 26.8 15.1 26.8 15.1H25H23.1C23.1 15.1 19.5 19 19.1 21.4C18.9 23 19.4 24.9 21.1 24.9C22.8 24.9 24.9 24.9 24.9 24.9C24.9 24.9 27 24.9 28.7 24.9C30.6 24.9 31 23 30.8 21.4ZM26.3 22.4C26.1 22.7 25.7 22.8 25.2 22.8V23.6H24.7V22.8C24.4 22.8 24.1 22.7 23.9 22.5C23.7 22.4 23.5 22.2 23.3 22L24 21.5C24.1 21.6 24.2 21.6 24.2 21.7C24.3 21.8 24.4 21.8 24.4 21.9C24.5 21.9 24.6 22 24.7 22C24.8 22 24.9 22 25 22C25.2 22 25.4 21.9 25.5 21.8C25.6 21.7 25.7 21.5 25.7 21.4C25.7 21.2 25.6 21.1 25.5 20.9C25.4 20.8 25.2 20.6 25.1 20.5C24.9 20.4 24.7 20.3 24.5 20.2C24.3 20.1 24.1 20 23.9 19.8C23.7 19.7 23.6 19.5 23.5 19.3C23.4 19.1 23.3 18.9 23.3 18.6C23.3 18.4 23.3 18.3 23.4 18.1C23.5 17.9 23.5 17.8 23.7 17.7C23.8 17.6 24 17.5 24.1 17.4C24.3 17.3 24.5 17.3 24.7 17.2V16.7H25.2V17.4C25.5 17.4 25.7 17.5 25.9 17.6C26.1 17.7 26.3 17.8 26.5 18L25.8 18.5C25.7 18.4 25.6 18.3 25.4 18.2C25.3 18.1 25.1 18.1 24.9 18.1C24.7 18.1 24.5 18.2 24.4 18.3C24.3 18.4 24.2 18.6 24.2 18.7C24.2 18.9 24.3 19.1 24.4 19.2C24.5 19.3 24.6 19.4 24.8 19.5C24.9 19.6 25.1 19.6 25.2 19.7C25.4 19.8 25.6 19.9 25.7 20C25.9 20.1 26 20.2 26.1 20.4C26.2 20.5 26.3 20.7 26.4 20.8C26.5 21 26.5 21.1 26.5 21.4C26.7 21.8 26.5 22.1 26.3 22.4Z" fill="#042b62" fill-opacity="0.5"/>
</g>
<defs>
<clipPath id="clip0_4_706">
<rect width="44" height="44" fill="white"/>
</clipPath>
</defs>
</svg>
