<svg width="24" height="22" viewBox="0 0 24 22" fill="none" xmlns="http://www.w3.org/2000/svg">
<g clip-path="url(#clip0_4_837)">
<path d="M22.1 3.8H19.5V21.9H22.1C23.1 21.9 23.8 21.1 23.8 20.1V5.6C23.8 4.6 23.1 3.8 22.1 3.8Z" fill="#ccd5e0"/>
<path d="M4.3 3.8H1.7C0.8 3.8 0 4.6 0 5.6V20.1C0 21.1 0.8 21.9 1.7 21.9H4.3V3.8Z" fill="#ccd5e0"/>
<path d="M17.6 3.8V1.8C17.6 0.8 16.8 0 15.9 0H7.9C7 0 6.2 0.8 6.2 1.8V3.8H5.5V21.9H18.4V3.8H17.6ZM16.5 3.8H7.4V1.8C7.4 1.5 7.7 1.2 8 1.2H15.9C16.2 1.2 16.5 1.5 16.5 1.8V3.8Z" fill="#ccd5e0"/>
</g>
<defs>
<clipPath id="clip0_4_837">
<rect width="24" height="22" fill="white"/>
</clipPath>
</defs>
</svg>
