
<svg width="32" height="32" viewBox="0 0 32 32" fill="none" xmlns="http://www.w3.org/2000/svg">
<g clip-path="url(#clip0_3_225)">
<path d="M20.7 15.4H17.9C17.5 15.4 17.1 15.1 17.1 14.6L16.7 8C16.7 8 16.1 2.6 19.3 1.8C19.3 1.8 20.6 -0.799997 24.9 3.45707e-06H25.1C26.1 0.300003 27 0.900003 27.7 1.6C29.1 3 29.8 5 29.6 7C29.6 8.9 29.6 6.8 29.2 14.5C29.2 14.9 28.9 15.3 28.4 15.3H25.4" fill="#E2E2E2"/>
<path d="M20.7 15.4H17.9C17.5 15.4 17.1 15.1 17.1 14.6L16.7 8C16.7 8 16.1 2.6 19.3 1.8C19.3 1.8 20.6 -0.799997 24.9 3.45707e-06H25.1C26.1 0.300003 27 0.900003 27.7 1.6C29.1 3 29.8 5 29.6 7C29.6 8.9 29.6 6.8 29.2 14.5C29.2 14.9 28.9 15.3 28.4 15.3H25.4" stroke="#939393" stroke-width="0.25"/>
<path d="M21.2 15.4V14.5C19.5 13.8 18.4 12.1 18.3 10.3V7.3C18.3 5.7 18.5 2.5 21 2C21.7 0.9 22.9 0.2 24.2 0.0999998C22.4 -0.1 20.2 0.4 19.4 2C17.2 2.5 16.7 5.2 16.7 7.4V7.5C16.7 7.9 16.7 8.2 16.7 8.2L17.1 14.8C17.1 15.2 17.4 15.6 17.9 15.6H21.2V15.4Z" fill="#DDDDDD"/>
<path d="M14.3 29.8L15.1 22.3C15.4 20.1 15.3 19.2 16 18.3C15.8 18 15.5 17.8 15.2 17.7C14.3 17.3 13.3 17 12.3 16.8L10.8 16.1V14.3C9.60001 14.8 8.20001 14.8 6.90001 14.3V16.1L5.40001 16.8C4.40001 17 3.40001 17.3 2.50001 17.7C2.40001 17.7 2.40001 17.8 2.30001 17.8C1.50001 18.4 1.00001 19.4 1.10001 20.4L0.700007 24.4C7.21216e-06 30.2 7.22613e-06 29.7 7.22613e-06 30.2C-0.0999928 31.2 0.700007 32 1.60001 32C1.70001 32 1.70001 32 1.80001 32H16C15 32 14.2 31.2 14.2 30.2C14.2 30.1 14.2 30 14.3 29.8Z" fill="white" stroke="#939393" stroke-width="0.25" stroke-miterlimit="10"/>
<path d="M1.60001 30.2C1.60001 29.6 1.70001 29.6 2.70001 19.3C2.70001 18.5 3.10001 17.7 3.80001 17.2C3.30001 17.3 2.90001 17.5 2.50001 17.7L2.30001 17.8C1.50001 18.4 1.00001 19.4 1.10001 20.4C1.10001 20.5 7.22613e-06 29.8 7.22613e-06 30.1C-0.0999928 31.1 0.700007 31.9 1.60001 31.9H1.70001H3.30001C2.40001 31.9 1.50001 31.2 1.50001 30.3C1.60001 30.3 1.60001 30.2 1.60001 30.2Z" fill="#EAEAEA"/>
<path d="M8.50001 17.6V14.7C7.90001 14.7 7.40001 14.5 6.90001 14.3V16.1L8.50001 17.6Z" fill="#EAEAEA"/>
<path d="M32 29.8C30.9 19.7 30.9 20 30.8 19.5C30.6 18.7 30.2 18.1 29.5 17.7C29.2 17.5 28.9 17.4 28.6 17.3L25.3 16.5C25.2 16.4 25.1 16.3 25.1 16.1V14.5C23.9 15 22.5 15 21.2 14.5V16.1C21.2 16.3 21.1 16.4 21 16.5C18.2 17.2 17.6 17.2 16.8 17.7C16 18.2 15.4 19 15.4 20L14.3 29.8C14.1 30.7 14.6 31.7 15.6 32C15.7 32 15.9 32.1 16.1 32.1H30.3C31.3 32.1 32.1 31.4 32.1 30.4C32.1 30.3 32.1 30.3 32.1 30.2C32 30 32 29.9 32 29.8Z" fill="#EAEAEA" stroke="#939393" stroke-width="0.25"/>
<path d="M15.9 30.2C15.9 30.1 15.9 30 15.9 29.8L17 19.5C17.1 18.6 17.6 17.7 18.4 17.2C17.9 17.3 17.3 17.5 16.8 17.8C16 18.2 15.4 19 15.4 20L14.3 29.8C14.1 30.7 14.6 31.7 15.6 32C15.7 32 15.9 32.1 16.1 32.1H17.7C16.7 32.1 16 31.3 15.9 30.4C15.9 30.3 15.9 30.2 15.9 30.2Z" fill="#D8A373"/>
<path d="M31.4 24.5C30.9 19.9 30.9 20 30.8 19.6C30.6 18.8 30.2 18.2 29.5 17.8C29.2 17.6 28.9 17.5 28.6 17.4L25.3 16.6C25.2 16.5 25.1 16.4 25.1 16.2V14.6C23.9 15.1 22.4 15.1 21.2 14.6V16.2C21.2 16.4 21.1 16.5 21 16.6C18.2 17.3 17.6 17.3 16.8 17.8C16 18.2 15.4 19 15.4 20L14.9 24.4L18 24.7C18.2 24.7 18.3 24.9 18.3 25L17.9 32H28.3L28 25.2C28 25 28.1 24.9 28.3 24.8L31.4 24.5Z" fill="#042b62B3"/>
<path d="M14.9 24.5L16.5 24.7L17.1 19.5C17.2 18.6 17.7 17.7 18.5 17.2C18 17.3 17.4 17.5 16.9 17.8C16.2 18.2 15.7 18.9 15.6 19.6C15.3 20 15.4 20.1 14.9 24.5Z" fill="#A82626"/>
<path d="M15.2 17.7C14.3 17.3 13.3 17 12.3 16.8L10.8 16.1L8.80001 18L6.90001 16.1L5.40001 16.8C4.40001 17 3.40001 17.3 2.50001 17.7C1.70001 18.2 1.20001 19 1.10001 20L0.600006 24.4L3.70001 24.7C3.90001 24.8 4.00001 25 4.00001 25.1L3.70001 32H14.1L13.7 25.2C13.7 25 13.8 24.9 14 24.8L14.8 24.7C15.4 19.7 15.2 19.3 15.9 18.4C15.8 18.1 15.5 17.9 15.2 17.7Z" fill="#042b62"/>
<path d="M2.70001 19.3C2.70001 18.5 3.10001 17.7 3.80001 17.2C3.30001 17.3 2.90001 17.5 2.50001 17.7C2.20001 17.9 2.00001 18.1 1.70001 18.4C0.900006 19.4 1.10001 20.1 0.600006 24.5L2.20001 24.7C2.20001 24.7 2.30001 24 2.70001 19.3Z" fill="#042b62"/>
<path d="M26.6 16.8L25.3 16.5C25.2 16.4 25.1 16.3 25.1 16.1V14.3C23.9 14.8 22.4 14.8 21.2 14.3V16.1C21.2 16.3 21.1 16.4 21 16.5L19.7 16.8C20.8 18.7 23.3 19.3 25.2 18.2C25.7 17.9 26.2 17.4 26.6 16.8Z" fill="white"/>
<path d="M2.8 7.8V6.1C2.8 2.7 5.5 0 8.9 0C10.1 0 11.3 0.4 12.4 1.1C15.5 3.3 14.9 6.5 15 7.8" fill="#4C4846"/>
<path d="M2.8 7.8V6.1C2.8 2.7 5.5 0 8.9 0C10.1 0 11.3 0.4 12.4 1.1C15.5 3.3 14.9 6.5 15 7.8" fill="#E2E2E2"/>
<path d="M2.8 7.8V6.1C2.8 2.7 5.5 0 8.9 0C10.1 0 11.3 0.4 12.4 1.1C15.5 3.3 14.9 6.5 15 7.8" stroke="#939393" stroke-width="0.25"/>
<path d="M9.5 3.5204e-07C6.1 -0.3 3.1 2.1 2.8 5.5C2.8 5.7 2.8 5.9 2.8 6.1V7.8H4V6.1C4 3 6.4 0.3 9.5 3.5204e-07Z" fill="#DDDDDD"/>
<path d="M15.3 8.3C15.2 9.1 14.5 9.6 13.8 9.6V7.1C14.5 7 15.2 7.6 15.3 8.3Z" fill="#EAEAEA"/>
<path d="M2.5 8.30001C2.5 9.10001 3.2 9.70001 4 9.60001V7.10001C3.2 7.00001 2.5 7.50001 2.5 8.30001Z" fill="#EAEAEA"/>
<path d="M12.6 5.3C12.6 4.9 12.3 4.6 11.9 4.6H11.8H11.6C9.7 4.9 7.8 4.9 5.9 4.6C5.5 4.5 5.2 4.8 5.1 5.2V5.3C5.1 5.9 4.8 6.5 4.3 6.9C4.2 7 4.1 7 4 7.1C4 10.3 4 10.5 4.1 11.2C4.7 13.8 7.4 15.4 10 14.8C11.5 14.4 12.8 13.3 13.4 11.8C13.9 10.6 13.7 9.7 13.7 7C13 6.8 12.6 6.1 12.6 5.3Z" fill="white" stroke="#EAEAEA" stroke-width="0.1" stroke-miterlimit="10"/>
<path d="M5.8 12C5.5 10.8 5.6 10 5.6 7.7C5.6 7.5 5.7 7.3 5.9 7.1C6.4 6.7 6.7 6 6.7 5.3C6.7 5.1 6.8 4.8 7 4.7H6.3L5.9 4.6C5.6 4.5 5.2 4.8 5.1 5.2V5.3C5.1 5.9 4.8 6.5 4.3 6.9C4.2 7 4.1 7 4 7.1C4 10.3 4 10.1 4 10.3C4.1 12.5 5.6 14.3 7.7 14.8C6.8 14 6.2 13.1 5.8 12Z" fill="#EAEAEA"/>
<path d="M9.30001 21.5V17.5L8.90001 18L8.40001 17.5V21.5C8.40001 21.8 8.60001 22 8.90001 22C9.20001 22 9.40001 21.8 9.30001 21.5Z" fill="#042b62"/>
<path d="M10.8 16.1L8.8 18L9.9 19C10.1 19.2 10.4 19.2 10.6 19L12.3 16.9L10.8 16.1Z" fill="white"/>
<path d="M11.6 16.5L10.8 16.1L8.90001 18L9.60001 18.6L11.6 16.5Z" fill="#042b62"/>
<path d="M6.90001 16.1L8.90001 18L7.80001 19C7.60001 19.2 7.30001 19.2 7.10001 19L5.40001 16.8L6.90001 16.1Z" fill="white"/>
<path d="M7.50001 17.9L8.20001 18.6L8.90001 18L6.90001 16.1L6.10001 16.5L7.50001 17.9Z" fill="#042b62"/>
<path d="M22.8 17.1V14.7C22.2 14.7 21.7 14.5 21.2 14.3C21.2 15.7 21.3 16.3 21 16.5L19.7 16.8C20 17.4 20.5 17.8 21 18.2L22.4 17.7C22.4 17.7 22.8 17.5 22.8 17.1Z" fill="#EAEAEA"/>
<path d="M27.5 8.40001C27.8 8.50001 28 8.70001 28 9.00001V9.40001C28.1 10.1 28 10.8 27.8 11.5C27 14.1 24.3 15.6 21.7 14.8C19.7 14.2 18.3 12.4 18.2 10.4C18.2 10.4 18.2 10.4 18.2 10.3V7.60001V7.30001C18.2 7.00001 18.4 6.80001 18.7 6.70001C19.5 6.50001 20.2 6.10001 20.7 5.50001C20.9 5.30001 21.1 5.30001 21.3 5.50001C22.9 7.40001 25.2 8.40001 27.5 8.40001Z" fill="white"/>
<path d="M20.4 12.2C19.8 10.9 19.9 10 19.9 8.2V6.3C19.5 6.5 19.2 6.7 18.8 6.7C18.5 6.8 18.3 7 18.3 7.3V10.2C18.3 10.2 18.3 10.3 18.3 10.4C18.5 13.1 20.9 15.1 23.6 14.9C23.7 14.9 23.9 14.9 24 14.8C22.4 14.6 21.1 13.6 20.4 12.2Z" fill="#EAEAEA"/>
<path d="M27.5 17L26.6 16.8C25.9 18 24.6 18.8 23.1 18.8C23.1 18.8 27.5 23.3 27.5 17Z" fill="#042b62"/>
<path d="M18.7 17L19.6 16.8C20.3 18 21.6 18.8 23.1 18.8C23.1 18.8 18.7 23.3 18.7 17Z" fill="#042b62"/>
<path d="M21 18.2C20.2 18.6 19.3 18.8 18.8 18C19.3 22.7 23.2 18.8 23.2 18.8C22.4 18.8 21.6 18.6 21 18.2Z" fill="#042b62"/>
<path d="M25.2 18.2C26 18.6 26.9 18.8 27.4 18C26.9 22.7 23 18.8 23 18.8C23.9 18.8 24.6 18.6 25.2 18.2Z" fill="#042b62"/>
<path d="M19.3 17.3C17.9 15.4 15.2 15.1 13.3 16.6C12.9 16.9 12.5 17.3 12.3 17.7C11.8 18.7 11.5 19.8 11.7 20.9H20.2C20.4 19.7 20.1 18.4 19.3 17.3Z" fill="#E2E2E2" stroke="#939393" stroke-width="0.25"/>
<path d="M12.9 19C12.9 18.9 13 18.8 13 18.8C13.5 17.2 14.9 16 16.6 15.8C14.9 15.6 13.3 16.4 12.5 17.8C12 18.8 11.7 19.9 11.9 21H12.9C12.7 20.3 12.8 19.6 12.9 19Z" fill="#DDDDDD"/>
<path d="M21.5 24.5C21.3 23.7 20.8 22.9 20.3 22.2C20.1 22.4 19.8 22.6 19.4 22.6C19.8 23.3 20 24.1 19.9 24.9C19.9 25.1 20 25.3 20.2 25.3H20.3L21.1 25.1C21.4 25.1 21.6 24.8 21.5 24.5Z" fill="#DDDDDD" stroke="#939393" stroke-width="0.25"/>
<path d="M20.7 21.5C20.6 22.2 20 22.8 19.2 22.7V20.2C20 20.2 20.7 20.7 20.7 21.5Z" fill="#EAEAEA"/>
<path d="M10.5 24.5C10.7 23.7 11.2 22.9 11.7 22.2C11.9 22.4 12.2 22.6 12.6 22.6C12.2 23.3 12 24.1 12.2 24.9C12.2 25.1 12.1 25.3 11.9 25.3H11.8L11 25.1C10.6 25.1 10.4 24.8 10.5 24.5Z" fill="#DDDDDD" stroke="#939393" stroke-width="0.25"/>
<path d="M11.3 21.5C11.4 22.2 12 22.8 12.8 22.7V20.2C12 20.2 11.4 20.7 11.3 21.5Z" fill="#EAEAEA"/>
<path d="M21.5 32L21.2 29C21.2 28.4 20.8 27.8 20.3 27.5C19.4 27.1 18.5 26.8 17.5 26.7C17.3 26.6 17.4 26.2 17.4 25.2C16.6 25.6 15.6 25.6 14.8 25.2C14.8 26.2 14.9 26.6 14.7 26.7C13.7 26.9 12.8 27.1 11.9 27.5C11.5 27.8 11.1 28.2 11 28.7C10.9 29 10.9 29 10.5 32H21.5Z" fill="white"/>
<path d="M13.3 32V30.6C13.3 30.3 13.1 30.1 12.8 30.1C12.5 30.1 12.3 30.3 12.3 30.6V32H13.3Z" fill="#FCC875"/>
<path d="M19.6 32V30.6C19.6 30.3 19.4 30.1 19.1 30.1C18.8 30.1 18.6 30.3 18.6 30.6V32H19.6Z" fill="#FCC875"/>
<path d="M15.6 27.6C15.8 27.5 16 27.3 16 27V25.3C15.6 25.3 15.1 25.2 14.7 25C14.7 26 14.8 26.4 14.6 26.5L14.3 26.6C14.3 26.9 14.3 27.2 14.4 27.5C14.4 27.6 14.5 27.8 14.6 27.9L15.6 27.6Z" fill="#EAEAEA"/>
<path d="M15.8 19.2C15.1 20 14 20.4 13 20.1C12.9 20.1 12.8 20.1 12.8 20.2C12.7 21.2 12.7 22.3 12.9 23.3C13.4 25 15.2 26 16.9 25.5C18.3 25.1 19.2 23.8 19.2 22.4V20.3C19.2 20.2 19.1 20.1 19 20.1C18 20.4 16.8 20 16.2 19.2C16.1 19.1 16 19 15.9 19.1C15.8 19.1 15.8 19.1 15.8 19.2Z" fill="white"/>
<path d="M14.4 22.9C14.3 22 14.3 21 14.4 20.1C13.9 20.2 13.5 20.2 13 20.1C12.9 20.1 12.8 20.1 12.8 20.2C12.7 21.2 12.7 22.3 12.9 23.3C13.4 25 15.1 25.9 16.8 25.5C15.6 25.2 14.6 24.2 14.4 22.9Z" fill="#EAEAEA"/>
<path d="M10.5 32H21.5L21.2 29C21.2 28.4 20.8 27.8 20.3 27.5C19.5 27.2 18.7 26.9 17.8 26.8V27.2C17.8 27.5 17.7 27.7 17.6 28C17.6 28 17.6 28.1 17.5 28.1L17.4 28.2V28.3H17.3H17.2H17H16.9H16.4H16.3H16.1H16H15.9C15.5 28.1 15.3 27.7 15.2 27.3C15.1 27 15.1 26.7 15.1 26.4L14.7 26.5C14 26.6 13.3 26.8 12.6 27.1C12.2 27.4 11.8 27.8 11.7 28.3C10.8 29 10.8 29 10.5 32Z" fill="#D9F7FF"/>
<path d="M11.7 30.1C11.8 28.9 11.7 27.9 12.8 27.2C12.9 27.1 13 27.1 13.2 27H13.3C12.8 27.1 12.3 27.2 11.9 27.5C11.4 27.8 11.1 28.2 11 28.7C10.9 29 10.9 29.1 10.6 32H11.6L11.7 30.1Z" fill="#B3E8F4"/>
</g>
<defs>
<clipPath id="clip0_3_225">
<rect width="32" height="32" fill="white"/>
</clipPath>
</defs>
</svg>
