<svg width="21" height="29" viewBox="0 0 21 29" fill="none" xmlns="http://www.w3.org/2000/svg">
<g clip-path="url(#clip0_3_306)">
<path d="M0 28.1C0 28.4 0.2 28.6 0.5 28.6H19.9C20.2 28.6 20.4 28.4 20.4 28.1V27.1C20.4 25.4 19 24 17.3 24H13.7C13.5 25.1 12.6 26.6 10.2 26.6C7.8 26.6 6.9 25.1 6.7 24H3.1C1.4 24 0 25.4 0 27.1V28.1Z" fill="#ccd5e0"/>
<path d="M2.10001 8.4C2.70001 8 3.50001 8.1 3.90001 8.7C4.60001 8.7 6.40001 8.4 7.70001 7.4C8.00001 7.2 8.40001 7.1 8.70001 7.2C9.10001 7.3 9.30001 7.7 9.30001 8C9.30001 8.1 9.30001 8.3 9.30001 8.4C10.4 8.2 11.4 7.8 12.4 7.2C12.7 7.1 13 7 13.3 7C13.6 7 13.8 7.2 14 7.4C14.3 7.9 15 8.5 16.5 8.6C17 8.1 17.8 8 18.4 8.4C18.3 4.8 15.8 1.6 12.3 0.700001C12.3 0.800001 12.3 0.900001 12.3 1C12.3 1.4 12.2 1.8 11.9 2.2C13.7 2.4 15.3 3.5 16.2 5C16.5 5.4 16.4 5.9 16.1 6.3C15.8 6.7 15.3 6.8 14.8 6.5C11.9 4.9 8.40001 4.9 5.60001 6.5C5.20001 6.7 4.70001 6.6 4.30001 6.3C4.00001 5.9 4.00001 5.4 4.20001 5C5.10001 3.5 6.70001 2.4 8.50001 2.2C8.30001 1.8 8.20001 1.4 8.20001 1C8.20001 0.900001 8.20001 0.800001 8.20001 0.700001C4.70001 1.7 2.20001 4.8 2.10001 8.4Z" fill="#ccd5e0"/>
<path d="M17.5 14.3C17.5 14.6 17.4 14.9 17.3 15.2C17.1 15.9 16.8 16.7 16.3 17.7C16.4 18.7 17.2 19.4 18.1 19.5C19.1 19.6 20 19 20.3 18.1C20.6 17.2 20.2 16.2 19.4 15.7V17C19.4 17.3 19.2 17.5 18.9 17.5C18.6 17.5 18.4 17.3 18.4 17V13.9C18.2 14 17.9 14.2 17.5 14.3Z" fill="#ccd5e0"/>
<path d="M10.2 2C10.7523 2 11.2 1.55228 11.2 1C11.2 0.447715 10.7523 0 10.2 0C9.64771 0 9.2 0.447715 9.2 1C9.2 1.55228 9.64771 2 10.2 2Z" fill="#ccd5e0"/>
<path d="M7.7 22.3V23.5C7.7 23.7 7.8 25.5 10.3 25.5C12.8 25.5 12.9 23.7 12.9 23.5V22.3C11.2 23.2 9.2 23.2 7.7 22.3Z" fill="#ccd5e0"/>
<path d="M3.4 13.3C3.7 13.3 3.9 13.5 3.9 13.8C3.9 14.1 4 14.5 4.1 14.8C5.1 17.9 7 22 10.2 22C13.5 22 15.3 17.9 16.3 14.8C16.4 14.5 16.5 14.1 16.5 13.8C16.5 13.5 16.7 13.3 17 13.3C18.5 13.3 18.7 9.9 18 9.4C17.7 9.2 17.4 9.1 17.2 9.4C17.1 9.6 16.9 9.7 16.7 9.7C14.5 9.7 13.5 8.6 13.1 8C12.1 8.8 10.9 9.3 9.6 9.5C9.3 9.6 9 9.5 8.8 9.3C8.5 9 8.3 8.6 8.4 8.2C6.6 9.7 3.8 9.7 3.7 9.7C3.5 9.7 3.3 9.6 3.2 9.4C3 9.1 2.7 9.2 2.4 9.4C1.8 9.9 1.9 13.3 3.4 13.3Z" fill="#ccd5e0"/>
<path d="M0 17.4C0 18.5 0.8 19.4 1.9 19.4C3 19.4 3.9 18.6 4 17.6C3.6 16.7 3.3 15.8 3 15.2C2.9 14.9 2.8 14.6 2.8 14.3C2.6 14.2 2.3 14 2 13.8V16.9C2 17.2 1.8 17.4 1.5 17.4C1.2 17.4 1 17.2 1 16.9V15.6C0.4 16 0 16.7 0 17.4Z" fill="#ccd5e0"/>
<path d="M5.10001 5.5V5.6C8.30001 3.8 12.1 3.8 15.3 5.6V5.5C14.6 4.4 13.2 3 10.2 3C7.20001 3 5.80001 4.4 5.10001 5.5Z" fill="#ccd5e0"/>
</g>
<defs>
<clipPath id="clip0_3_306">
<rect width="21" height="29" fill="white"/>
</clipPath>
</defs>
</svg>
