
<svg width="32" height="32" viewBox="0 0 32 32" fill="none" xmlns="http://www.w3.org/2000/svg">
<g clip-path="url(#clip0_3_329)">
<path d="M11.4 0.2H20.5C20.9 0.2 21.2 0.5 21.2 0.9V14.9C21.2 15.3 20.9 15.6 20.5 15.6H11.4C11 15.6 10.7 15.3 10.7 14.9V1C10.7 0.6 11 0.2 11.4 0.2Z" fill="#042b62B3"/>
<path d="M6.6 20.7C3 20.7 0 23.6 0 27.3V30.4C0 30.9 0.4 31.3 0.9 31.3H10.7L12.7 25C11.7 22.5 9.3 20.8 6.6 20.7Z" fill="#042b62B3"/>
<path d="M10.7 31.4L12.7 25.1C11.7 22.5 9.3 20.8 6.5 20.8V31.4H10.7Z" fill="#042b62"/>
<path d="M6.6 22.6C4.4 22.6 2.5 20.8 2.5 18.5C2.5 16.2 4.3 14.4 6.6 14.4C8.9 14.4 10.7 16.2 10.7 18.5C10.6 20.8 8.8 22.6 6.6 22.6Z" fill="white" stroke="#042b62" stroke-width="0.25" stroke-miterlimit="10"/>
<path d="M25.4 20.7C22.7 20.7 20.2 22.4 19.2 25L21.2 31.4H31C31.5 31.4 31.9 31 31.9 30.5V27.4C32 23.7 29.1 20.7 25.4 20.7Z" fill="#042b62"/>
<path d="M31.1 31.4C31.6 31.4 32 31 32 30.5V27.4C32 23.8 29.1 20.8 25.4 20.8V31.4H31.1Z" fill="#042b62"/>
<path d="M25.4 22.6C23.2 22.6 21.3 20.8 21.3 18.5C21.3 16.2 23.1 14.4 25.4 14.4C27.6 14.4 29.5 16.2 29.5 18.5C29.5 20.8 27.7 22.6 25.4 22.6Z" fill="white" stroke="#042b62" stroke-width="0.25" stroke-miterlimit="10"/>
<path d="M21.3 31.4H10.7V29.3C10.7 26.4 13 24 16 24C18.9 24 21.3 26.3 21.3 29.3V31.4Z" fill="#E0E0E0"/>
<path d="M16 25.7C14.1 25.7 12.6 24.2 12.6 22.3C12.6 20.4 14.1 18.9 16 18.9C17.9 18.9 19.4 20.4 19.4 22.3C19.4 24.2 17.9 25.7 16 25.7Z" fill="white" stroke="#042b62" stroke-width="0.25" stroke-miterlimit="10"/>
<path d="M12.9 3.2H19C19.1 3.2 19.1 3.3 19.1 3.4V4.2C19.1 4.3 19 4.4 19 4.4H12.9C12.8 4.4 12.8 4.3 12.8 4.2V3.4C12.8 3.3 12.9 3.2 12.9 3.2Z" fill="white"/>
<path d="M12.9 6H19C19.1 6 19.1 6.1 19.1 6.2V7C19.1 7.1 19 7.2 19 7.2H12.9C12.8 7.2 12.8 7.1 12.8 7V6.2C12.8 6.1 12.9 6 12.9 6Z" fill="white"/>
<path d="M12.9 8.8H19C19.1 8.8 19.1 8.9 19.1 8.9V9.7C19.1 9.8 19 9.8 19 9.8H12.9C12.8 9.8 12.8 9.7 12.8 9.7V9C12.8 8.9 12.9 8.8 12.9 8.8Z" fill="white"/>
<path d="M12.9 11.6H19C19.1 11.6 19.1 11.7 19.1 11.7V12.5C19.1 12.6 19 12.6 19 12.6H12.9C12.8 12.6 12.8 12.5 12.8 12.5V11.7L12.9 11.6Z" fill="white"/>
</g>
<defs>
<clipPath id="clip0_3_329">
<rect width="32" height="31.1" fill="white"/>
</clipPath>
</defs>
</svg>
