<svg width="31" height="32" viewBox="0 0 31 32" fill="none" xmlns="http://www.w3.org/2000/svg">
<g clip-path="url(#clip0_4_538)">
<path d="M29.2 23V31.6C29.2 31.8 29 32 28.8 32H25V27.2H20.8V31.9H16.8C16.6 31.9 16.4 31.7 16.4 31.5V23C16.4 22.8 16.6 22.6 16.8 22.6H28.8C29 22.6 29.2 22.8 29.2 23Z" fill="#E2E2E2" stroke="#939393" stroke-width="0.25"/>
<path d="M25.7 4C27.4 5.4 28.3 7.7 28 9.9L27.9 10.5L27.6 10C25.4 6.3 22.4 6.5 21.7 6.7V9.6L17.1 5C17 4.9 17 4.6 17.1 4.5L21.7 0V2.9H21.8C23.2 2.7 24.6 3.2 25.7 4Z" fill="#E2E2E2" stroke="#939393" stroke-width="0.25"/>
<path d="M25.3 32H20.5V27.4C20.5 27.1 20.8 26.8 21.1 26.8H24.7C25 26.8 25.3 27 25.3 27.4V32Z" fill="white"/>
<path d="M8.2 21.7L12.8 26.3C12.9 26.4 12.9 26.6 12.8 26.8L8.2 31.3V28.4H8.1C6.7 28.5 5.3 28.1 4.2 27.2C2.5 25.8 1.6 23.5 1.9 21.3L2 20.8L2.3 21.3C4.3 24.6 6.9 24.8 7.9 24.7C8.1 24.7 8.2 24.5 8.2 24.4V21.7Z" fill="#042b62"/>
<path d="M13.9 7.60001C13.9 11.4 10.8 14.5 7 14.5C3.2 14.5 0 11.5 0 7.70001C0 3.90001 3.1 0.800007 6.9 0.800007C10.7 0.700007 13.8 3.80001 13.9 7.60001Z" fill="#042b62"/>
<path d="M30.1 22.9H15.6C15.4 22.9 15.2 22.7 15.2 22.5C15.2 22.4 15.3 22.2 15.4 22.2L22.7 15.9C22.9 15.8 23.1 15.8 23.3 15.9L30.6 22.2C30.8 22.4 30.8 22.6 30.7 22.8C30.4 22.8 30.3 22.9 30.1 22.9Z" fill="#042b62"/>
<path d="M9.3 5.80001H9.2H8.2C8.2 5.50001 8.1 5.20001 7.9 5.00001H9.1H9.2V4.90001V4.20001V4.10001H9.1H4.7H4.6V4.20001V5.00001V5.10001H4.7H5.5C6.3 5.10001 6.7 5.30001 6.9 5.70001H4.7C4.6 5.70001 4.5 5.80001 4.5 5.90001V6.50001V6.60001H4.6H7C6.9 6.90001 6.7 7.10001 6.4 7.20001C6.1 7.40001 5.7 7.50001 5.3 7.50001H4.7H4.6V7.60001V8.30001V8.40001C5.3 9.10001 6.2 10.2 7.3 11.5L7.4 11.6H8.4C8.5 11.6 8.5 11.6 8.5 11.5C8.5 11.4 8.5 11.4 8.5 11.3C7.5 10 6.6 9.00001 6.1 8.40001C6.6 8.40001 7.2 8.10001 7.6 7.80001C7.9 7.50001 8.2 7.00001 8.2 6.50001H9.1C9.2 6.50001 9.3 6.40001 9.3 6.30001V5.90001V5.80001Z" fill="white"/>
</g>
<defs>
<clipPath id="clip0_4_538">
<rect width="30.6" height="32" fill="white"/>
</clipPath>
</defs>
</svg>
