<svg width="44" height="44" viewBox="0 0 44 44" fill="none" xmlns="http://www.w3.org/2000/svg">
<g clip-path="url(#clip0_4_822)">
<path opacity="0.62" d="M22 43.98C34.1503 43.98 44 34.1347 44 21.99C44 9.84526 34.1503 0 22 0C9.84974 0 0 9.84526 0 21.99C0 34.1347 9.84974 43.98 22 43.98Z" fill="#DDDDDD"/>
<path opacity="0.15" d="M21.83 40.33C32.0638 40.33 40.36 32.0383 40.36 21.81C40.36 11.5817 32.0638 3.29 21.83 3.29C11.5962 3.29 3.3 11.5817 3.3 21.81C3.3 32.0383 11.5962 40.33 21.83 40.33Z" fill="white"/>
<path opacity="0.52" d="M8.11 24.19C8.75065 24.19 9.27 23.6707 9.27 23.03C9.27 22.3894 8.75065 21.87 8.11 21.87C7.46935 21.87 6.95 22.3894 6.95 23.03C6.95 23.6707 7.46935 24.19 8.11 24.19Z" fill="#042b62"/>
<path opacity="0.52" d="M14.51 10.46C15.0623 10.46 15.51 10.0123 15.51 9.46001C15.51 8.90772 15.0623 8.46001 14.51 8.46001C13.9577 8.46001 13.51 8.90772 13.51 9.46001C13.51 10.0123 13.9577 10.46 14.51 10.46Z" fill="#042b62"/>
<path opacity="0.52" d="M31.26 10.48C31.9007 10.48 32.42 9.96065 32.42 9.32C32.42 8.67935 31.9007 8.16 31.26 8.16C30.6194 8.16 30.1 8.67935 30.1 9.32C30.1 9.96065 30.6194 10.48 31.26 10.48Z" fill="#042b62"/>
<path opacity="0.29" d="M32.12 37.06C32.6723 37.06 33.12 36.6123 33.12 36.06C33.12 35.5077 32.6723 35.06 32.12 35.06C31.5677 35.06 31.12 35.5077 31.12 36.06C31.12 36.6123 31.5677 37.06 32.12 37.06Z" fill="#042b62"/>
<path d="M25.79 24.25C25.36 23.98 24.87 23.79 24.32 23.72L23.04 23.53L22.65 22.39C22.75 22.34 22.84 22.27 22.92 22.22C24.17 22.03 25.57 21.76 26.37 21.3C26.51 21.2 26.56 21.01 26.47 20.84C26.08 20.14 25.75 19.1 25.55 18.37C25.67 18.08 25.77 17.76 25.77 17.33C25.77 16.43 25.63 15.9 25.34 15.64C25.27 15.57 25.2 15.52 25.12 15.47C24.9 12.69 22.71 10.53 19.99 10.53C17.27 10.53 15.07 12.68 14.83 15.47C14.76 15.52 14.69 15.54 14.64 15.62C14.33 15.91 14.18 16.44 14.18 17.34C14.18 17.78 14.25 18.11 14.37 18.38C14.18 19.11 13.84 20.15 13.45 20.85C13.35 21.02 13.38 21.21 13.55 21.31C14.37 21.79 15.74 22.06 17 22.23C17.1 22.28 17.17 22.35 17.24 22.4L16.85 23.54L15.57 23.73C14.12 23.92 12.97 24.96 12.61 26.37L12.08 28.43C12.01 28.67 12.06 28.89 12.2 29.06C12.34 29.23 12.54 29.33 12.78 29.33H22.47C22.47 29.33 22.45 29.21 22.45 29.14C22.45 26.91 23.85 25.02 25.8 24.27L25.79 24.25ZM15.89 18.8C15.84 18.63 15.72 18.51 15.58 18.46C15.51 18.46 15 18.29 15 17.27C15 16.42 15.14 16.2 15.22 16.13H15.29C15.43 16.42 15.68 16.9 15.75 17.41C16.55 16.25 16.62 15.06 16.74 14.09L17.03 14.84C17.1 14.96 17.22 15.06 17.34 15.06H22.52C22.66 15.06 22.79 14.96 22.83 14.84L23.12 14.07C23.24 15.04 23.31 16.22 24.11 17.39C24.18 16.88 24.4 16.42 24.54 16.11C24.59 16.11 24.61 16.11 24.64 16.16C24.69 16.21 24.83 16.4 24.83 17.27C24.83 18.26 24.3 18.43 24.25 18.46C24.08 18.51 23.96 18.63 23.94 18.8C23.55 20.88 21.84 22.41 19.87 22.41C17.9 22.41 16.28 20.88 15.89 18.8ZM17.58 23.96L17.97 22.8C18.57 23.09 19.25 23.26 19.95 23.26C20.65 23.26 21.3 23.09 21.9 22.82L22.29 23.96C20.92 24.98 19.01 24.98 17.59 23.96H17.58Z" fill="#042b62" fill-opacity="0.5"/>
<path d="M27.64 24.81C25.28 24.81 23.33 26.75 23.33 29.14C23.33 31.53 25.26 33.47 27.64 33.47C30.02 33.47 31.95 31.53 31.95 29.14C31.95 26.75 30 24.81 27.64 24.81ZM28 31.27V31.8C28 31.8 27.95 31.9 27.9 31.9H27.37C27.37 31.9 27.27 31.85 27.27 31.8V31.27C26.74 31.25 26.31 30.81 26.23 30.28C26.23 30.23 26.28 30.16 26.33 30.16H26.86C26.86 30.16 26.96 30.18 26.96 30.23C26.98 30.4 27.15 30.52 27.32 30.52H27.78C28.05 30.52 28.31 30.33 28.33 30.04C28.35 29.73 28.11 29.46 27.8 29.46H27.46C26.81 29.46 26.21 28.98 26.16 28.32C26.09 27.62 26.59 27.04 27.24 26.94V26.41C27.24 26.41 27.29 26.31 27.34 26.31H27.87C27.87 26.31 27.97 26.36 27.97 26.41V26.94C28.5 26.96 28.93 27.4 29.01 27.93C29.01 27.98 28.96 28.05 28.91 28.05H28.38C28.38 28.05 28.28 28.03 28.28 27.98C28.26 27.81 28.09 27.69 27.92 27.69H27.46C27.19 27.69 26.93 27.88 26.91 28.17C26.89 28.48 27.13 28.75 27.44 28.75H27.85C28.6 28.75 29.18 29.38 29.1 30.15C29.03 30.73 28.57 31.17 27.99 31.26L28 31.27Z" fill="#042b62" fill-opacity="0.5"/>
</g>
<defs>
<clipPath id="clip0_4_822">
<rect width="44" height="43.97" fill="white"/>
</clipPath>
</defs>
</svg>
