<svg width="24" height="24" viewBox="0 0 24 24" fill="none" xmlns="http://www.w3.org/2000/svg">
<g clip-path="url(#clip0_4_745)">
<path d="M12.3 15.3C12.1 15.4 11.9 15.4 11.8 15.3L6.7 13V17.3H17.4V13L12.3 15.3Z" fill="#ccd5e0"/>
<path d="M12 13.9L17.3 11.6V10.7H6.7V11.6L12 13.9Z" fill="#ccd5e0"/>
<path d="M23.7 6.79999L12.3 0.0999939C12.1 -6.10203e-06 11.8 -6.10203e-06 11.6 0.0999939L0.3 6.79999C0.1 6.89999 0 7.09999 0 7.29999V23.3C0 23.5 0.1 23.6 0.2 23.8C0.3 23.9 0.5 24 0.7 24H23.4C23.6 24 23.7 23.9 23.9 23.8C24 23.7 24.1 23.5 24.1 23.3V7.29999C24 7.09999 23.9 6.89999 23.7 6.79999ZM18.7 18C18.7 18.2 18.6 18.3 18.5 18.5C18.4 18.7 18.2 18.7 18 18.7H6C5.8 18.7 5.7 18.6 5.5 18.5C5.3 18.4 5.3 18.2 5.3 18V9.99999C5.3 9.79999 5.4 9.69999 5.5 9.49999C5.7 9.39999 5.8 9.29999 6 9.29999H18C18.2 9.29999 18.3 9.39999 18.5 9.49999C18.6 9.59999 18.7 9.79999 18.7 9.99999V18Z" fill="#ccd5e0"/>
</g>
<defs>
<clipPath id="clip0_4_745">
<rect width="24" height="24" fill="white"/>
</clipPath>
</defs>
</svg>
