<svg xmlns="http://www.w3.org/2000/svg" viewBox="0 0 32 20.6"><defs><style>.cls-1{fill:#f49496;}.cls-2{fill:#ee888e;}.cls-3{fill:#fff;}.cls-4{fill:#bcd874;}.cls-5{fill:#b5cd6a;}.cls-6{fill:#efefef;}.cls-7{fill:#ffd384;}.cls-8{fill:#f4c273;}</style></defs><g id="Layer_2" data-name="Layer 2"><g id="Layer_1-2" data-name="Layer 1"><path class="cls-1" d="M13.33,9.91V6.76l-.6,0L12.45,7a.49.49,0,0,1-.34.14H3.41A.48.48,0,0,1,3.07,7L2.8,6.75H2.19V9.91l5.57.57Z"/><path class="cls-2" d="M2.19,5.59V6.76l.88.85a.48.48,0,0,0,.34.14h8.7a.49.49,0,0,0,.34-.14l.88-.85V5.59Z"/><path class="cls-3" d="M6.67,7.75a1.11,1.11,0,0,0,2.18,0L7.76,7.19Z"/><path class="cls-4" d="M19.38,9.91l4.69.57,4.7-.57V6.56h.71A.79.79,0,0,0,30,5.17L24.89.77a1.26,1.26,0,0,0-1.63,0l-5.11,4.4a.79.79,0,0,0,.52,1.39h.71V9.91Z"/><path class="cls-5" d="M19.38,11.08l1.44.56,1.79-.56h2.93l1.54.56,1.69-.56V9.91H19.38Z"/><path class="cls-3" d="M25.54,9.91V8.86a1.47,1.47,0,0,0-2.93,0V9.91l1.46.57Z"/><path class="cls-6" d="M6.65,7.55a.68.68,0,0,0,0,.2H8.85a1.36,1.36,0,0,0,0-.2v-1L7.76,6l-1.11.57Z"/><path class="cls-2" d="M9.68,3.39A.48.48,0,0,1,9.2,2.9V1.26A.3.3,0,0,0,8.9,1H6.61a.29.29,0,0,0-.29.29V2.9a.49.49,0,1,1-1,0V1.26A1.26,1.26,0,0,1,6.61,0H8.9a1.25,1.25,0,0,1,1.26,1.26V2.9a.48.48,0,0,1-.48.49Z"/><path class="cls-1" d="M12.11,6.59H3.41a.48.48,0,0,1-.34-.14l-1-1a.53.53,0,0,1-.15-.36V2.94a.62.62,0,0,1,.62-.62H13a.62.62,0,0,1,.62.62V5.09a.49.49,0,0,1-.15.36l-1,1A.49.49,0,0,1,12.11,6.59Z"/><path class="cls-2" d="M2.19,9.91v.55a.62.62,0,0,0,.62.62l4.95.56,5-.56a.62.62,0,0,0,.62-.62V9.91Z"/><path class="cls-6" d="M22.61,11.08l1.46.56,1.47-.56V9.91H22.61Z"/><path class="cls-7" d="M30.81,12.89H1.19a1,1,0,0,1-1-1.21,1.19,1.19,0,0,1,1-.6H30.81a1.19,1.19,0,0,1,1,.6A1,1,0,0,1,30.81,12.89Z"/><path class="cls-8" d="M30.81,12.29H1.19a1.2,1.2,0,0,1-1-.61,1.25,1.25,0,0,0-.15.58,1.19,1.19,0,0,0,1.19,1.19H30.81A1.19,1.19,0,0,0,32,12.26a1.25,1.25,0,0,0-.15-.58,1.2,1.2,0,0,1-1,.61Z"/><path class="cls-7" d="M20.32,19.43l-3.78-5.69a.64.64,0,0,0-1.08,0l-3.78,5.69L16,20Z"/><path class="cls-8" d="M20.32,19.43H11.68l-.11.16a.65.65,0,0,0,.54,1h7.78a.65.65,0,0,0,.54-1Z"/></g></g></svg>