<svg xmlns="http://www.w3.org/2000/svg" viewBox="0 0 29.17 31.33"><defs><style>.cls-1{fill:#bcd874;}.cls-2{fill:#b5cd6a;}.cls-3{fill:#f49496;}.cls-4{fill:#ee888e;}.cls-5{fill:#fff;}</style></defs><g id="Layer_2" data-name="Layer 2"><g id="Layer_1-2" data-name="Layer 1"><path class="cls-1" d="M24.85,2.16V4.32H21.07V2.16H8.1V4.32H4.32V2.16H1.84A1.84,1.84,0,0,0,0,4V30.16a1.17,1.17,0,0,0,1.17,1.17H28a1.17,1.17,0,0,0,1.17-1.17V4a1.84,1.84,0,0,0-1.84-1.84Z"/><rect class="cls-2" x="2.7" y="10.8" width="23.77" height="17.82" rx="0.95"/><rect class="cls-1" x="4.32" width="3.78" height="4.32" rx="0.73"/><rect class="cls-1" x="21.07" width="3.78" height="4.32" rx="0.73"/><path class="cls-3" d="M24.85,2.16V3.53a.79.79,0,0,1-.79.79H21.81a.74.74,0,0,1-.74-.75V2.16H8.1V3.62a.7.7,0,0,1-.7.7H5a.7.7,0,0,1-.7-.7V2.16H1.83A1.83,1.83,0,0,0,0,4V8.1H29.17V4a1.83,1.83,0,0,0-1.83-1.83Z"/><path class="cls-4" d="M27.33,2.16H25.71A1.84,1.84,0,0,1,27.55,4V8.1h1.62V4a1.84,1.84,0,0,0-1.84-1.84"/><path class="cls-3" d="M19.16,26.47H10a.29.29,0,0,1-.29-.29V20.1a1.2,1.2,0,0,1,1.2-1.2h7.33a1.2,1.2,0,0,1,1.2,1.2v6.08A.29.29,0,0,1,19.16,26.47Z"/><path class="cls-5" d="M14.58,19.45A.55.55,0,0,1,14,18.9V16.74a.55.55,0,0,1,.54-.54.54.54,0,0,1,.54.54V18.9a.55.55,0,0,1-.54.55"/><path class="cls-5" d="M18.21,21.76a.55.55,0,0,0-.77,0L16.2,23,15,21.76a.55.55,0,0,0-.77,0L13,23l-1.24-1.24a.54.54,0,0,0-.76,0L9.72,23v1.31a.55.55,0,0,0,.38-.16l1.24-1.24,1.24,1.24a.55.55,0,0,0,.77,0l1.23-1.24,1.24,1.24a.55.55,0,0,0,.77,0l1.23-1.24,1.24,1.24a.59.59,0,0,0,.39.16V23Z"/><path class="cls-3" d="M15.73,16.27h0A1.62,1.62,0,0,1,13.44,14l1.14-1,1.15,1a1.62,1.62,0,0,1,0,2.29"/><path class="cls-2" d="M27.55,31.33h1.31a.31.31,0,0,0,.31-.31V8.1H27.55Z"/></g></g></svg>