<?xml version="1.0" encoding="utf-8"?>
<!-- Generator: Adobe Illustrator 26.5.1, SVG Export Plug-In . SVG Version: 6.00 Build 0)  -->
<svg version="1.1" id="Layer_1" xmlns="http://www.w3.org/2000/svg" xmlns:xlink="http://www.w3.org/1999/xlink" x="0px" y="0px"
	 viewBox="0 0 128 128" style="enable-background:new 0 0 128 128;" xml:space="preserve">
<style type="text/css">
	.st0{clip-path:url(#SVGID_00000101796210945710408550000017110483216806803847_);}
	.st1{fill:#999999;}
	.st2{fill:#042b62;}
	.st3{fill:#ccd5e0;}
	.st4{fill:#EFEFEF;}
	.st5{fill:#D6D6D6;}
	.st6{fill:#B2B2B2;}
	.st7{clip-path:url(#SVGID_00000173872567663745954200000011843170076259634830_);}
	.st8{clip-path:url(#SVGID_00000173859544207087644900000009640199810630124689_);}
	.st9{fill:#042b62;}
	.st10{clip-path:url(#SVGID_00000158028110418650233570000017103001145885633707_);}
	.st11{clip-path:url(#SVGID_00000128459241389826202210000005584922737286522269_);}
	.st12{clip-path:url(#SVGID_00000125582195432338879790000008213371314181818283_);}
	
		.st13{opacity:0.4;clip-path:url(#SVGID_00000139254756846965239320000017544934974392754066_);fill:url(#SVGID_00000051344838247746232760000004403104086028182450_);enable-background:new    ;}
	.st14{clip-path:url(#SVGID_00000127040040095107267320000002215750381689388211_);}
	.st15{fill:#B2EBF2;}
	.st16{fill:#42BFEA;}
	.st17{clip-path:url(#SVGID_00000096749547313723358380000007812631083379515061_);}
	.st18{clip-path:url(#SVGID_00000085218461079663406950000009948598361128897725_);}
	.st19{clip-path:url(#SVGID_00000181057790498776862030000010531979455077142437_);}
	.st20{display:none;}
	.st21{display:inline;}
	.st22{opacity:0.6;}
	.st23{opacity:0.61;fill:none;stroke:#000000;stroke-width:0.2625;stroke-miterlimit:10;enable-background:new    ;}
	.st24{opacity:0.61;fill:none;stroke:#000000;stroke-width:0.25;stroke-miterlimit:10;enable-background:new    ;}
	.st25{opacity:0.61;}
	.st26{opacity:0.61;fill:none;stroke:#000000;stroke-width:0.2578;stroke-miterlimit:10;enable-background:new    ;}
	.st27{opacity:0.61;fill:none;stroke:#000000;stroke-width:0.2628;stroke-miterlimit:10;enable-background:new    ;}
	.st28{opacity:0.61;fill:none;stroke:#000000;stroke-width:0.2627;stroke-miterlimit:10;enable-background:new    ;}
	.st29{opacity:0.2;}
	.st30{clip-path:url(#SVGID_00000149383787233205050460000000578114546951804842_);}
	.st31{fill:none;stroke:#000000;stroke-width:0.25;stroke-miterlimit:10;}
	.st32{opacity:0.3;fill:#F44336;enable-background:new    ;}
</style>
<g>
	<g>
		<g>
			<defs>
				<rect id="SVGID_1_" x="4" y="4" width="120" height="120"/>
			</defs>
			<clipPath id="SVGID_00000036228585009676302440000003109827503874926740_">
				<use xlink:href="#SVGID_1_"  style="overflow:visible;"/>
			</clipPath>
			<g style="clip-path:url(#SVGID_00000036228585009676302440000003109827503874926740_);">
				<g>
					<path class="st1" d="M93.8,4C66.7,4,66.9,29,66.9,29.4c0,16.2,1.2,39.1,7.7,48.2c2.6,3.6,7.6,3.8,7.6,3.8h11.2h11.2
						c0,0,5-0.2,7.6-3.8c6.5-9,7.7-31.9,7.7-48.2C119.9,29,120.8,4,93.8,4z"/>
				</g>
				<g id="XMLID_4625_">
					<g id="XMLID_4626_">
						<path class="st2" d="M65.5,88.4c0-10.6,7.4-18.2,19.8-20.3c2.9-0.5,5.8-0.8,8.8-0.8c4.2,0,8.5,0.5,12.7,1.5
							c12.3,2.9,19.7,10.2,19.7,19.5V127h-61V88.4z"/>
						<path class="st3" d="M94.1,68.8L94.1,68.8c4.1,0,8.3,0.5,12.4,1.5c4.3,1,18.5,5.4,18.5,18.1v37.1H67V88.4
							c0-9.8,6.9-16.8,18.6-18.8C88.3,69.1,91.2,68.8,94.1,68.8 M94.1,65.8c-3,0-6,0.2-9,0.8C73.2,68.7,64,76.1,64,88.4v40.1h64
							V88.4c0-11.4-9.6-18.3-20.9-21C103,66.4,98.6,65.8,94.1,65.8L94.1,65.8z"/>
					</g>
				</g>
				<g id="XMLID_168_">
					<path class="st4" d="M92.8,71.7c-2.5,0-4.4-2-4.4-4.4v-5.6h10v5.6c0,2.4-2,4.4-4.4,4.4H92.8z"/>
					<path class="st5" d="M97.4,62.7v4.6c0,1.9-1.6,3.4-3.4,3.4h-1.1c-1.9,0-3.4-1.5-3.4-3.4v-4.6h4L97.4,62.7 M99.4,60.7h-6h-6v6.6
						c0,3,2.4,5.4,5.4,5.4h1.1c3,0,5.4-2.4,5.4-5.4L99.4,60.7L99.4,60.7z"/>
				</g>
				<g>
					<path class="st4" d="M93.4,63.8c-1.5,0-3.2-0.3-4.9-0.9c-7.4-2.6-16-10.7-16-24.7c0-18.7,11.2-25.4,20.9-25.4
						s20.9,6.6,20.9,25.4c0,14.1-8.6,22.1-16,24.7C96.5,63.5,94.8,63.8,93.4,63.8z"/>
					<path class="st5" d="M93.4,13.9L93.4,13.9c9.2,0,19.9,6.4,19.9,24.4c0,13.5-8.3,21.3-15.4,23.8c-1.6,0.6-3.2,0.9-4.5,0.9
						c-1.4,0-2.9-0.3-4.6-0.9c-7.1-2.5-15.3-10.2-15.3-23.8C73.5,20.2,84.2,13.9,93.4,13.9 M93.4,11.9L93.4,11.9L93.4,11.9
						c-11.4,0-21.9,8.4-21.9,26.4c0,14.4,8.9,22.9,16.7,25.6c1.8,0.7,3.6,1,5.2,1s3.3-0.3,5.2-1c7.8-2.7,16.7-11.2,16.7-25.7
						C115.3,20.3,104.7,11.9,93.4,11.9L93.4,11.9z"/>
				</g>
				<g>
					<path class="st6" d="M118.4,29.4c0,0,0.7-23.5-25-23.5s-25,23.5-25,23.5s0.2,30,2.1,33.9s4.8,3.8,4.8,3.8S74,49.6,73.8,41.3
						c0-1.9-0.6-9.1,3.4-10C92,28,100.3,20.2,100.3,20.2c2.2,4.8,9,9.4,11.4,11.1c2,1.4,1.7,7.4,1.7,9.9l-2,25.8
						c0,0,3.1,0.2,5.1-3.7C118.3,59.4,118.4,29.4,118.4,29.4z"/>
				</g>
				<g>
					<path class="st1" d="M95.9,46.2c-0.1,0-0.1,0-0.2,0h-4.6c-0.1,0-0.1,0-0.2,0c-0.4,0.2-0.7,0.6-0.4,1.1c0.2,0.5,1.1,1.8,3,1.8
						s2.8-1.3,3-1.8C96.6,46.8,96.3,46.4,95.9,46.2z"/>
				</g>
			</g>
		</g>
	</g>
</g>
<g>
	<g>
		<g>
			<defs>
				<rect id="SVGID_00000167398061095485918210000000618451433936488853_" x="4" y="4" width="120" height="120"/>
			</defs>
			<clipPath id="SVGID_00000127749774598776651020000008102271017651887234_">
				<use xlink:href="#SVGID_00000167398061095485918210000000618451433936488853_"  style="overflow:visible;"/>
			</clipPath>
			<g style="clip-path:url(#SVGID_00000127749774598776651020000008102271017651887234_);">
				<g>
					<g>
						<g>
							<defs>
								<rect id="SVGID_00000001643351432546321290000003434301962737746106_" width="128" height="128"/>
							</defs>
							<clipPath id="SVGID_00000022562712813765112010000011313856453903040176_">
								<use xlink:href="#SVGID_00000001643351432546321290000003434301962737746106_"  style="overflow:visible;"/>
							</clipPath>
							<g id="XMLID_4622_" style="clip-path:url(#SVGID_00000022562712813765112010000011313856453903040176_);">
								<g id="XMLID_4624_">
									<path class="st9" d="M1.5,127V88.4c0-9.3,7.4-16.6,19.7-19.5c4.3-1,8.4-1.5,12.4-1.5c2.8,0,5.7,0.2,8.6,0.8
										C52,69.8,62.5,76,62.5,88.4V127H1.5z"/>
									<path class="st2" d="M33.6,68.8c2.8,0,5.6,0.2,8.4,0.7c5.6,1,10.3,3.1,13.7,6.3c3.5,3.3,5.3,7.6,5.3,12.6v37.1H3V88.4
										c0-12.7,14.2-17,18.6-18.1C25.7,69.3,29.7,68.8,33.6,68.8 M33.6,65.8c-4.4,0-8.6,0.6-12.8,1.6C9.6,70.1,0,77,0,88.4v40.1
										h64V88.4c0-12.3-9.6-19.7-21.5-21.8C39.5,66.1,36.5,65.8,33.6,65.8L33.6,65.8z"/>
								</g>
							</g>
						</g>
					</g>
				</g>
				<g>
					<g>
						<g>
							<defs>
								<rect id="SVGID_00000085945076780084440300000008075065927743517077_" width="128" height="128"/>
							</defs>
							<clipPath id="SVGID_00000111162971239698523700000010825086351592180371_">
								<use xlink:href="#SVGID_00000085945076780084440300000008075065927743517077_"  style="overflow:visible;"/>
							</clipPath>
							<g id="XMLID_251_" style="clip-path:url(#SVGID_00000111162971239698523700000010825086351592180371_);">
								<path class="st4" d="M33.5,73.1c-3.3,0-6-2.7-6-6v-5.4h12v5.4C39.5,70.4,36.8,73.1,33.5,73.1z"/>
								<path class="st5" d="M38.5,62.7v4.4c0,2.8-2.2,5-5,5s-5-2.2-5-5v-4.4L38.5,62.7 M40.5,60.7h-14v6.4c0,3.9,3.1,7,7,7
									s7-3.1,7-7V60.7L40.5,60.7z"/>
							</g>
						</g>
					</g>
				</g>
				<g>
					<g>
						<g>
							<defs>
								<rect id="SVGID_00000159440035638810605600000006618852252047308437_" width="128" height="128"/>
							</defs>
							<clipPath id="SVGID_00000094583440078289315700000003296192912332250242_">
								<use xlink:href="#SVGID_00000159440035638810605600000006618852252047308437_"  style="overflow:visible;"/>
							</clipPath>
							<g id="XMLID_4620_" style="clip-path:url(#SVGID_00000094583440078289315700000003296192912332250242_);">
								<rect x="1" y="97.8" class="st5" width="10" height="30"/>
								<path class="st5" d="M10,98.8v28H2v-28H10 M12,96.8H0v32h12V96.8L12,96.8z"/>
							</g>
						</g>
					</g>
					<g>
						<g>
							<g>
								<defs>
									<rect id="SVGID_00000048483638161230891810000014557423007399250594_" width="128" height="128"/>
								</defs>
								<clipPath id="SVGID_00000147942892727123679410000003976702361055198854_">
									<use xlink:href="#SVGID_00000048483638161230891810000014557423007399250594_"  style="overflow:visible;"/>
								</clipPath>
								<g id="XMLID_4619_" style="clip-path:url(#SVGID_00000147942892727123679410000003976702361055198854_);">
									<rect x="117" y="97" class="st5" width="10" height="30"/>
									<path class="st5" d="M126,98v28h-8V98H126 M128,96h-12v32h12V96L128,96z"/>
								</g>
							</g>
						</g>
					</g>
				</g>
				<g>
					<g>
						<g>
							<defs>
								<rect id="SVGID_00000011733621494088963150000016824445312481719229_" width="128" height="128"/>
							</defs>
							<clipPath id="SVGID_00000161626299665810971930000005257737776629313665_">
								<use xlink:href="#SVGID_00000011733621494088963150000016824445312481719229_"  style="overflow:visible;"/>
							</clipPath>
							
								<radialGradient id="SVGID_00000160173173340577184730000017885133541908399271_" cx="64" cy="-351.3225" r="29.2298" gradientTransform="matrix(1 0 0 -1.4568 0 -414.5566)" gradientUnits="userSpaceOnUse">
								<stop  offset="0.4219" style="stop-color:#212121"/>
								<stop  offset="1" style="stop-color:#616161;stop-opacity:5.000000e-02"/>
							</radialGradient>
							
								<path style="opacity:0.4;clip-path:url(#SVGID_00000161626299665810971930000005257737776629313665_);fill:url(#SVGID_00000160173173340577184730000017885133541908399271_);enable-background:new    ;" d="
								M85.1,66.6C73.2,68.7,64,76.1,64,88.4c0-12.3-9.7-19.7-21.5-21.8C40.6,66.3,39,66.1,37,66v62.6h27h27V65.9
								C89,66.1,87.1,66.3,85.1,66.6z"/>
						</g>
					</g>
				</g>
				<g>
					<g>
						<g>
							<defs>
								<rect id="SVGID_00000000189327050445578300000005076103851953436800_" width="128" height="128"/>
							</defs>
							<clipPath id="SVGID_00000156574214529218206760000005092355911527072163_">
								<use xlink:href="#SVGID_00000000189327050445578300000005076103851953436800_"  style="overflow:visible;"/>
							</clipPath>
							<g id="XMLID_1875_" style="clip-path:url(#SVGID_00000156574214529218206760000005092355911527072163_);">
								<g id="XMLID_4603_">
									<path class="st15" d="M43.2,138.1c-0.1-2.6,0-10.8,0.1-16.1c0-9.2,12.4-12.2,15.9-12.2h9.4c3.5,0,15.9,2.9,15.9,12.1
										c0,0,0,0.6,0,1.1c0.2,10,0.1,13.7,0.1,15.1H43.2z"/>
									<path class="st16" d="M68.5,110.8c3.3,0,14.9,2.7,14.9,11.1v0.3c0,0,0,0.3,0,0.8c0.1,8.3,0.1,12.2,0.1,14.1H44.2
										c0-3.2,0-10.1,0.1-15.1c0-8.5,11.6-11.1,14.9-11.1h9.3 M68.5,108.8h-9.4c-4.3,0-16.9,3.3-16.9,13.1c0,0-0.3,17.1,0,17.1
										h43.1c0.3,0,0-16.5,0-16.9V122C85.4,112.1,72.9,108.8,68.5,108.8L68.5,108.8z"/>
								</g>
								<g id="XMLID_4602_">
									<path class="st4" d="M63.8,115.8c-2.3,0-4.2-1.9-4.2-4.2v-3.1H68v3.1C68,113.9,66.2,115.8,63.8,115.8z"/>
									<path class="st5" d="M67.5,109v2.6c0,2-1.7,3.7-3.7,3.7c-2,0-3.7-1.7-3.7-3.7V109H67.5 M68.5,108h-9.4v3.6
										c0,2.6,2.1,4.7,4.7,4.7l0,0c2.6,0,4.7-2.1,4.7-4.7V108L68.5,108z"/>
								</g>
								<g>
									<g>
										<g>
											<g>
												<defs>
													<rect id="SVGID_00000171691457566037255550000001770923349385023638_" x="40.5" y="64.2" width="46.9" height="46.9"/>
												</defs>
												<clipPath id="SVGID_00000033344895582145380330000006820629112577682585_">
													<use xlink:href="#SVGID_00000171691457566037255550000001770923349385023638_"  style="overflow:visible;"/>
												</clipPath>
												<g style="clip-path:url(#SVGID_00000033344895582145380330000006820629112577682585_);">
													<g>
														<path class="st5" d="M49.3,99.8c-2.9,0-5.3-2.3-5.3-5.1s2.4-5.1,5.3-5.1h29.5c2.9,0,5.3,2.3,5.3,5.1s-2.4,5.1-5.3,5.1
															H49.3z"/>
														<path class="st5" d="M78.8,90.2c2.6,0,4.8,2.1,4.8,4.6s-2.1,4.6-4.8,4.6h-4H53.3h-4c-2.6,0-4.8-2.1-4.8-4.6
															s2.1-4.6,4.8-4.6h4h21.5H78.8 M78.8,89.2h-4H53.3h-4c-3.2,0-5.8,2.5-5.8,5.6s2.6,5.6,5.8,5.6h4h21.5h4
															c3.2,0,5.8-2.5,5.8-5.6C84.6,91.7,82,89.2,78.8,89.2L78.8,89.2z"/>
													</g>
													<g>
														<path class="st4" d="M64,110.6c-8.4,0-17.5-6.4-17.5-20.5c0-11.2,6.7-23.4,17.5-23.4s17.5,12.1,17.5,23.4
															C81.4,104.2,72.4,110.6,64,110.6z"/>
														<path class="st5" d="M64,67.3L64,67.3c4.3,0,8.5,2.3,11.7,6.3c3.4,4.3,5.3,10.2,5.3,16.6c0,6.2-1.8,11.4-5.3,15
															c-3.1,3.2-7.2,4.9-11.7,4.9s-8.6-1.7-11.7-4.9c-3.5-3.6-5.3-8.8-5.3-15c0-6.4,1.9-12.3,5.3-16.6
															C55.4,69.6,59.7,67.3,64,67.3 M64,66.3L64,66.3L64,66.3c-9.3,0-18,9.8-18,23.9c0,14,8.9,20.9,18,20.9s18-6.9,18-20.9
															C81.9,76.1,73.3,66.3,64,66.3L64,66.3z"/>
													</g>
													<path class="st1" d="M66,96.7c-0.1,0-0.1,0-0.2,0h-3.6c-0.1,0-0.1,0-0.2,0c-0.3,0.1-0.5,0.5-0.3,0.8
														c0.2,0.4,0.9,1.4,2.3,1.4s2.2-1,2.3-1.4C66.5,97.2,66.3,96.8,66,96.7z"/>
													<g>
														<g>
															<path class="st6" d="M79.6,69.8c-2.3-2.4-4.5-3.5-4.8-3.5c-2.7-1.2-6.2-2.2-10.7-2.2c-19.9,0-21.2,16.3-20.5,23.4
																c0.7,6.3,4,7.8,4,7.8S47,89.8,48,85.8c0.8-3.2,2.8-5.5,2.8-5.5s3.6,3.1,10.3,5.2c3.2,1,7.3,0.5,7.3,0.5l-2.2-4
																c0,0,3.8,2.8,6.1,3.3c3,0.7,5.2,0.4,5.2,0.4l-1.1-4.3c0,0,1.9,1.3,3.4,4.7s0.6,9.3,0.6,9.3s3.5-1.5,4-7.8
																C85.1,79.7,84.1,74.9,79.6,69.8z"/>
														</g>
													</g>
												</g>
											</g>
										</g>
									</g>
								</g>
							</g>
						</g>
					</g>
				</g>
			</g>
		</g>
	</g>
</g>
<g>
	<defs>
		<rect id="SVGID_00000013165139100356627130000009835813072613924743_" x="4" y="4" width="120" height="120"/>
	</defs>
	<clipPath id="SVGID_00000004508070790564004100000000345309194266343333_">
		<use xlink:href="#SVGID_00000013165139100356627130000009835813072613924743_"  style="overflow:visible;"/>
	</clipPath>
	<g style="clip-path:url(#SVGID_00000004508070790564004100000000345309194266343333_);">
		<g>
			<defs>
				<rect id="SVGID_00000146460708956750096420000006663747482469149349_" x="3.7" y="4.1" width="60.2" height="60.2"/>
			</defs>
			<clipPath id="SVGID_00000139273685645545040300000006789031589989490877_">
				<use xlink:href="#SVGID_00000146460708956750096420000006663747482469149349_"  style="overflow:visible;"/>
			</clipPath>
			<g style="clip-path:url(#SVGID_00000139273685645545040300000006789031589989490877_);">
				<g>
					<path class="st5" d="M15.8,49.3c-3.6,0-6.6-3.2-6.6-7s2.9-7,6.6-7h36c3.6,0,6.6,3.2,6.6,7s-3,7-6.6,7H15.8z"/>
					<path class="st5" d="M51.8,35.7c3.3,0,6.1,2.9,6.1,6.5s-2.7,6.5-6.1,6.5H47H20.6h-4.9c-3.4,0-6.1-2.9-6.1-6.5s2.7-6.5,6.1-6.5
						h4.9H47H51.8 M51.8,34.7H47H20.6h-4.9c-3.9,0-7.1,3.4-7.1,7.5s3.2,7.5,7.1,7.5h4.9H47h4.9c3.9,0,7.1-3.4,7.1-7.5
						S55.7,34.7,51.8,34.7L51.8,34.7z"/>
				</g>
				<g>
					<path class="st4" d="M33.7,63.3c-5.6,0-10.7-2.2-14.5-6.2c-4.3-4.6-6.6-11.1-6.6-19c0-8.1,2.3-15.5,6.5-21
						c3.9-5.1,9.2-8,14.6-8s10.6,2.9,14.6,8c4.2,5.4,6.5,12.9,6.5,21c0,7.9-2.3,14.5-6.6,19C44.5,61.1,39.3,63.3,33.7,63.3z"/>
					<path class="st4" d="M33.7,10.1L33.7,10.1c5,0,10,2.8,13.8,7.6c4.1,5.3,6.3,12.5,6.3,20.4c0,7.6-2.2,14-6.3,18.3
						c-3.6,3.8-8.5,5.9-13.8,5.9s-10.2-2.1-13.8-5.9c-4.1-4.4-6.3-10.7-6.3-18.3c0-7.9,2.2-15.1,6.3-20.4
						C23.7,12.9,28.7,10.1,33.7,10.1 M33.7,8.1L33.7,8.1L33.7,8.1C22.2,8.1,11.6,20.4,11.6,38s11,26.3,22.1,26.3S55.8,55.6,55.8,38
						S45.2,8.1,33.7,8.1L33.7,8.1z"/>
				</g>
				<g>
					<path class="st6" d="M34,4.1c-30.2,0-23.9,34.7-23.9,34.7s3.2,5.6,3.2,5.5c-0.1-4.8,1.8-13.2,3.2-16.9c0.7-1.8,2.6-2.9,4.5-2.5
						c2.9,0.5,7.6,1.2,12.8,1.2c5,0,9.5-0.6,12.5-1.1c2-0.4,4,0.9,4.6,2.9l3.7,16.4l3.1-6C57.6,38.3,63.8,4.1,34,4.1z"/>
				</g>
				<g>
					<path class="st1" d="M35.9,46.9c-0.1,0-0.1,0-0.2,0H31c-0.1,0-0.1,0-0.2,0c-0.4,0.2-0.7,0.6-0.5,1.1s1.1,1.8,3,1.8
						c1.9,0,2.8-1.3,3-1.8C36.6,47.5,36.3,47,35.9,46.9z"/>
				</g>
			</g>
		</g>
	</g>
</g>
<g id="Layer_2_1_" class="st20">
	<g class="st21">
		<g class="st22">
			<circle class="st23" cx="64" cy="64" r="28"/>
			<line class="st24" x1="84" y1="0" x2="84" y2="128"/>
			<line class="st24" x1="44" y1="0" x2="44" y2="128"/>
			<line class="st24" x1="64" y1="0" x2="64" y2="128"/>
			<line class="st24" x1="128" y1="64" x2="0" y2="64"/>
			<line class="st24" x1="128" y1="44" x2="0" y2="44"/>
			<line class="st24" x1="128" y1="83.8" x2="0" y2="83.8"/>
			<line class="st24" x1="128" y1="128" x2="0" y2="0"/>
			<line class="st24" x1="0" y1="128" x2="128" y2="0"/>
			<g class="st25">
				<path d="M64,4.3c32.9,0,59.7,26.8,59.7,59.7S96.9,123.7,64,123.7S4.3,96.9,4.3,64S31.1,4.3,64,4.3 M64,4C30.9,4,4,30.9,4,64
					s26.9,60,60,60s60-26.9,60-60S97.1,4,64,4L64,4z"/>
			</g>
			<path class="st26" d="M108,116H20c-4.4,0-8-3.6-8-8V20c0-4.4,3.6-8,8-8h88c4.4,0,8,3.6,8,8v87.9C116,112.4,112.4,116,108,116z"/>
			<path class="st27" d="M100,124H28c-4.4,0-8-3.6-8-8V12c0-4.4,3.6-8,8-8h72c4.4,0,8,3.6,8,8v104C108,120.4,104.4,124,100,124z"/>
			<path class="st28" d="M113.8,108H14.2C8.6,108,4,103.4,4,97.8V30.3c0-5.6,4.6-10.2,10.2-10.2h99.5c5.6,0,10.2,4.6,10.2,10.2v67.5
				C124,103.4,119.4,108,113.8,108z"/>
		</g>
		<g>
			<g class="st29">
				<g>
					<g>
						<g>
							<defs>
								<rect id="SVGID_00000109722007024320905530000013958368067757170057_" width="128" height="128"/>
							</defs>
							<clipPath id="SVGID_00000067200826749438863410000003385582561274441104_">
								<use xlink:href="#SVGID_00000109722007024320905530000013958368067757170057_"  style="overflow:visible;"/>
							</clipPath>
							<g style="clip-path:url(#SVGID_00000067200826749438863410000003385582561274441104_);">
								<g>
									<line class="st31" x1="-28" y1="160" x2="-28" y2="-32"/>
									<line class="st31" x1="-24" y1="160" x2="-24" y2="-32"/>
									<line class="st31" x1="-20" y1="160" x2="-20" y2="-32"/>
									<line class="st31" x1="-16" y1="160" x2="-16" y2="-32"/>
									<line class="st31" x1="-12" y1="160" x2="-12" y2="-32"/>
									<line class="st31" x1="-8" y1="160" x2="-8" y2="-32"/>
									<line class="st31" x1="-4" y1="160" x2="-4" y2="-32"/>
									<line class="st31" x1="0" y1="160" x2="0" y2="-32"/>
									<line class="st31" x1="4" y1="160" x2="4" y2="-32"/>
									<line class="st31" x1="8" y1="160" x2="8" y2="-32"/>
									<line class="st31" x1="12" y1="160" x2="12" y2="-32"/>
									<line class="st31" x1="16" y1="160" x2="16" y2="-32"/>
									<line class="st31" x1="20" y1="160" x2="20" y2="-32"/>
									<line class="st31" x1="24" y1="160" x2="24" y2="-32"/>
									<line class="st31" x1="28" y1="160" x2="28" y2="-32"/>
									<line class="st31" x1="32" y1="160" x2="32" y2="-32"/>
									<line class="st31" x1="36" y1="160" x2="36" y2="-32"/>
									<line class="st31" x1="40" y1="160" x2="40" y2="-32"/>
									<line class="st31" x1="44" y1="160" x2="44" y2="-32"/>
									<line class="st31" x1="48" y1="160" x2="48" y2="-32"/>
									<line class="st31" x1="52" y1="160" x2="52" y2="-32"/>
									<line class="st31" x1="56" y1="160" x2="56" y2="-32"/>
									<line class="st31" x1="60" y1="160" x2="60" y2="-32"/>
									<line class="st31" x1="64" y1="160" x2="64" y2="-32"/>
									<line class="st31" x1="68" y1="160" x2="68" y2="-32"/>
									<line class="st31" x1="72" y1="160" x2="72" y2="-32"/>
									<line class="st31" x1="76" y1="160" x2="76" y2="-32"/>
									<line class="st31" x1="80" y1="160" x2="80" y2="-32"/>
									<line class="st31" x1="84" y1="160" x2="84" y2="-32"/>
									<line class="st31" x1="88" y1="160" x2="88" y2="-32"/>
									<line class="st31" x1="92" y1="160" x2="92" y2="-32"/>
									<line class="st31" x1="96" y1="160" x2="96" y2="-32"/>
									<line class="st31" x1="100" y1="160" x2="100" y2="-32"/>
									<line class="st31" x1="104" y1="160" x2="104" y2="-32"/>
									<line class="st31" x1="108" y1="160" x2="108" y2="-32"/>
									<line class="st31" x1="112" y1="160" x2="112" y2="-32"/>
									<line class="st31" x1="116" y1="160" x2="116" y2="-32"/>
									<line class="st31" x1="120" y1="160" x2="120" y2="-32"/>
									<line class="st31" x1="124" y1="160" x2="124" y2="-32"/>
									<line class="st31" x1="128" y1="160" x2="128" y2="-32"/>
									<line class="st31" x1="132" y1="160" x2="132" y2="-32"/>
									<line class="st31" x1="136" y1="160" x2="136" y2="-32"/>
									<line class="st31" x1="137" y1="166.1" x2="137" y2="-26"/>
									<line class="st31" x1="144" y1="160" x2="144" y2="-32"/>
									<line class="st31" x1="148" y1="160" x2="148" y2="-32"/>
									<line class="st31" x1="152" y1="160" x2="152" y2="-32"/>
									<line class="st31" x1="156" y1="160" x2="156" y2="-32"/>
								</g>
								<g>
									<line class="st31" x1="-32" y1="-28" x2="160" y2="-28"/>
									<line class="st31" x1="-32" y1="-24" x2="160" y2="-24"/>
									<line class="st31" x1="-32" y1="-20" x2="160" y2="-20"/>
									<line class="st31" x1="-32" y1="-16" x2="160" y2="-16"/>
									<line class="st31" x1="-32" y1="-12" x2="160" y2="-12"/>
									<line class="st31" x1="-32" y1="-8" x2="160" y2="-8"/>
									<line class="st31" x1="-32" y1="-4" x2="160" y2="-4"/>
									<line class="st31" x1="-32" y1="0" x2="160" y2="0"/>
									<line class="st31" x1="-32" y1="4" x2="160" y2="4"/>
									<line class="st31" x1="-32" y1="8" x2="160" y2="8"/>
									<line class="st31" x1="-32" y1="12" x2="160" y2="12"/>
									<line class="st31" x1="-32" y1="16" x2="160" y2="16"/>
									<line class="st31" x1="-32" y1="20" x2="160" y2="20"/>
									<line class="st31" x1="-32" y1="24" x2="160" y2="24"/>
									<line class="st31" x1="-32" y1="28" x2="160" y2="28"/>
									<line class="st31" x1="-32" y1="32" x2="160" y2="32"/>
									<line class="st31" x1="-32" y1="36" x2="160" y2="36"/>
									<line class="st31" x1="-32" y1="40" x2="160" y2="40"/>
									<line class="st31" x1="-32" y1="44" x2="160" y2="44"/>
									<line class="st31" x1="-32" y1="48" x2="160" y2="48"/>
									<line class="st31" x1="-32" y1="52" x2="160" y2="52"/>
									<line class="st31" x1="-32" y1="56" x2="160" y2="56"/>
									<line class="st31" x1="-32" y1="60" x2="160" y2="60"/>
									<line class="st31" x1="-32" y1="64" x2="160" y2="64"/>
									<line class="st31" x1="-32" y1="68" x2="160" y2="68"/>
									<line class="st31" x1="-32" y1="72" x2="160" y2="72"/>
									<line class="st31" x1="-32" y1="76" x2="160" y2="76"/>
									<line class="st31" x1="-32" y1="80" x2="160" y2="80"/>
									<line class="st31" x1="-32" y1="84" x2="160" y2="84"/>
									<line class="st31" x1="-32" y1="88" x2="160" y2="88"/>
									<line class="st31" x1="-32" y1="92" x2="160" y2="92"/>
									<line class="st31" x1="-32" y1="96" x2="160" y2="96"/>
									<line class="st31" x1="-32" y1="100" x2="160" y2="100"/>
									<line class="st31" x1="-32" y1="104" x2="160" y2="104"/>
									<line class="st31" x1="-32" y1="108" x2="160" y2="108"/>
									<line class="st31" x1="-32" y1="112" x2="160" y2="112"/>
									<line class="st31" x1="-32" y1="116" x2="160" y2="116"/>
									<line class="st31" x1="-32" y1="120" x2="160" y2="120"/>
									<line class="st31" x1="-32" y1="124" x2="160" y2="124"/>
									<line class="st31" x1="-32" y1="128" x2="160" y2="128"/>
									<line class="st31" x1="-32" y1="132" x2="160" y2="132"/>
									<line class="st31" x1="-32" y1="136" x2="160" y2="136"/>
									<line class="st31" x1="-32" y1="140" x2="160" y2="140"/>
									<line class="st31" x1="-32" y1="144" x2="160" y2="144"/>
									<line class="st31" x1="-32" y1="148" x2="160" y2="148"/>
									<line class="st31" x1="-32" y1="152" x2="160" y2="152"/>
									<line class="st31" x1="-32" y1="156" x2="160" y2="156"/>
								</g>
								<path d="M159.8-31.8v191.5H-31.8V-31.8H159.8 M160-32H-32v192h192V-32L160-32z"/>
							</g>
						</g>
					</g>
				</g>
			</g>
			<g>
				<rect class="st32" width="4" height="128"/>
				<rect x="124" class="st32" width="4" height="128"/>
				<rect x="4" class="st32" width="120" height="4"/>
				<rect x="4" y="124" class="st32" width="120" height="4"/>
			</g>
		</g>
	</g>
</g>
</svg>
