<?xml version="1.0" encoding="utf-8"?>
<!-- Generator: Adobe Illustrator 26.5.1, SVG Export Plug-In . SVG Version: 6.00 Build 0)  -->
<svg version="1.1" id="Layer_1" xmlns="http://www.w3.org/2000/svg" xmlns:xlink="http://www.w3.org/1999/xlink" x="0px" y="0px"
	 viewBox="0 0 30 30" style="enable-background:new 0 0 30 30;" xml:space="preserve">
<style type="text/css">
	.st0{fill:#EAEAEA;stroke:#B2B2B2;stroke-width:0.25;stroke-miterlimit:10;}
	.st1{fill:#E2E2E2;stroke:#B2B2B2;stroke-width:0.25;stroke-miterlimit:10;}
	.st2{fill:#042b62;}
	.st3{fill:#042b62;}
</style>
<path class="st0" d="M24.7,8.7l0.8-4.6c0,0,0-0.1,0-0.1l-0.8-3.8c0-0.1-0.1-0.2-0.2-0.2h-9.4c-0.1,0-0.2,0.1-0.2,0.2
	c0,0,0,0.1,0.1,0.1l3.9,4c0.1,0.1,0.1,0.2,0,0.3c0,0,0,0,0,0L15,8.5c-0.1,0.1-0.1,0.2,0,0.3c0,0,0.1,0.1,0.2,0.1h9.4
	C24.6,8.8,24.7,8.8,24.7,8.7z"/>
<path class="st1" d="M24.8,0h1.4c0.1,0,0.2,0.1,0.2,0.2c0,0,0,0,0,0v15.5c0,0.1-0.1,0.2-0.2,0.2l0,0h-1.4c-0.1,0-0.2-0.1-0.2-0.2
	c0,0,0,0,0,0V0.2C24.6,0.1,24.7,0,24.8,0C24.8,0,24.8,0,24.8,0z"/>
<path class="st2" d="M21.1,14.7v2.4c0,0.3-0.2,0.5-0.5,0.5h-5.9c-0.3,0-0.5,0.2-0.6,0.5v2.4c0,0.3-0.2,0.5-0.5,0.5c0,0,0,0,0,0H7.6
	c-0.3,0-0.5,0.2-0.5,0.5c0,0,0,0,0,0v2.4c0,0.3-0.3,0.5-0.6,0.5h-6c-0.3,0-0.5,0.3-0.5,0.6v4.2C0,29.7,0.2,30,0.5,30c0,0,0,0,0,0
	h28.9c0.3,0,0.5-0.2,0.5-0.5v0V14.7c0-0.3-0.2-0.5-0.5-0.6h-7.8C21.4,14.1,21.1,14.4,21.1,14.7L21.1,14.7z"/>
<path class="st3" d="M25.5,14.1h3.9c0.3,0,0.6,0.3,0.6,0.6c0,0,0,0,0,0v14.7c0,0.3-0.3,0.6-0.6,0.6h-3.9V14.1z"/>
</svg>
