<?xml version="1.0" encoding="utf-8"?>
<!-- Generator: Adobe Illustrator 26.5.1, SVG Export Plug-In . SVG Version: 6.00 Build 0)  -->
<svg version="1.1" id="Layer_1" xmlns="http://www.w3.org/2000/svg" xmlns:xlink="http://www.w3.org/1999/xlink" x="0px" y="0px"
	 viewBox="0 0 16 27.1" style="enable-background:new 0 0 16 27.1;" xml:space="preserve">
<style type="text/css">
	.st0{fill:#042b62;}
	.st1{fill:#FFFFFF;}
	.st2{fill:#EAEAEA;}
	.st3{fill:#EAEAEA;stroke:#B2B2B2;stroke-width:0.25;stroke-miterlimit:10;}
</style>
<path class="st0" d="M16,25.1V2c0-1.1-0.9-2-2-2H2C0.9,0,0,0.9,0,2v23.1c0,0.5,0.2,1,0.6,1.4c0.4,0.4,0.9,0.6,1.4,0.6h12
	C15.1,27.1,16,26.3,16,25.1C16,25.2,16,25.1,16,25.1L16,25.1z M8.9,25.3H7.1c-0.2,0-0.3-0.1-0.5-0.2c-0.1-0.1-0.2-0.3-0.2-0.5
	c0-0.4,0.3-0.7,0.7-0.7h1.8c0.4,0,0.7,0.3,0.7,0.7C9.6,25,9.3,25.3,8.9,25.3L8.9,25.3z M2.6,22.2V2.6h10.7v19.5H2.6z"/>
<path class="st1" d="M8.9,3.6H7.1c-0.4,0-0.7,0.3-0.7,0.6C6.4,4.6,6.6,5,7,5c0,0,0,0,0.1,0h1.8c0.4,0,0.7-0.2,0.7-0.6
	S9.4,3.7,9.1,3.7C9,3.7,9,3.7,8.9,3.6L8.9,3.6z"/>
<path class="st1" d="M8.9,24H7.1c-0.4,0-0.7,0.3-0.7,0.7c0,0.4,0.3,0.6,0.7,0.6h1.8c0.4,0,0.7-0.3,0.7-0.6c0,0,0,0,0,0
	C9.6,24.3,9.3,24,8.9,24z"/>
<circle class="st2" cx="8" cy="24.6" r="1.5"/>
<circle class="st1" cx="8" cy="24.6" r="1.4"/>
<path class="st3" d="M3.2,2.3h9.4c0.5,0,0.9,0.4,0.9,0.9v18.4c0,0.5-0.4,0.9-0.9,0.9H3.2c-0.5,0-0.9-0.4-0.9-0.9V3.2
	C2.4,2.7,2.8,2.3,3.2,2.3z"/>
<path class="st1" d="M8.9,3.6H7.1c-0.4,0-0.7,0.3-0.7,0.6C6.4,4.6,6.6,5,7,5c0,0,0,0,0.1,0h1.8c0.4,0,0.7-0.2,0.7-0.6
	S9.4,3.7,9.1,3.7C9,3.7,9,3.7,8.9,3.6L8.9,3.6z"/>
</svg>
