<?xml version="1.0" encoding="utf-8"?>
<!-- Generator: Adobe Illustrator 26.5.1, SVG Export Plug-In . SVG Version: 6.00 Build 0)  -->
<svg version="1.1" id="Layer_1" xmlns="http://www.w3.org/2000/svg" xmlns:xlink="http://www.w3.org/1999/xlink" x="0px" y="0px"
	 viewBox="0 0 31.7 23" style="enable-background:new 0 0 31.7 23;" xml:space="preserve">
<style type="text/css">
	.st0{fill:#042b62;}
	.st1{fill:#FFFFFF;}
	.st2{fill:#EAEAEA;stroke:#B2B2B2;stroke-width:0.25;stroke-miterlimit:10;}
</style>
<path class="st0" d="M30,23H1.8c-1,0-1.8-0.8-1.8-1.8c0,0,0,0,0,0V1.8C0,0.8,0.8,0,1.8,0H30c1,0,1.7,0.8,1.7,1.8v19.4
	C31.7,22.2,31,23,30,23C30,23,30,23,30,23"/>
<path class="st1" d="M7.7,4.9H2.7c-0.3,0-0.5-0.3-0.5-0.6c0-0.3,0.2-0.5,0.5-0.5h4.9c0.3,0,0.5,0.2,0.5,0.5c0,0,0,0,0,0
	C8.2,4.7,8,4.9,7.7,4.9L7.7,4.9"/>
<path class="st1" d="M14.8,4.9H9.8c-0.3,0-0.6-0.2-0.6-0.5v0c0-0.3,0.3-0.5,0.6-0.5h4.9c0.3,0,0.5,0.2,0.6,0.5
	C15.3,4.7,15.1,4.9,14.8,4.9L14.8,4.9"/>
<path class="st1" d="M20.7,3.8h7.8C28.8,3.8,29,4,29,4.3v4.5c0,0.3-0.2,0.5-0.5,0.5h-7.8c-0.3,0-0.5-0.2-0.5-0.5V4.3
	C20.2,4,20.4,3.8,20.7,3.8z"/>
<path class="st1" d="M28.9,9.8h-8.7c-0.3,0-0.6-0.3-0.6-0.6V3.9c0-0.3,0.3-0.6,0.6-0.6h8.7c0.3,0,0.6,0.2,0.6,0.6c0,0,0,0,0,0v5.4
	C29.5,9.6,29.3,9.8,28.9,9.8C28.9,9.8,28.9,9.8,28.9,9.8z M21.4,8.8h6.5c0.3,0,0.6-0.3,0.6-0.6V5c0-0.3-0.2-0.6-0.6-0.6c0,0,0,0,0,0
	h-6.5c-0.3,0-0.6,0.2-0.6,0.6c0,0,0,0,0,0v3.2C20.8,8.5,21,8.8,21.4,8.8z"/>
<path class="st2" d="M3.3,15.9h3.8c0.3,0,0.5,0.2,0.5,0.5v2.2c0,0.3-0.2,0.5-0.5,0.5H3.3c-0.3,0-0.5-0.2-0.5-0.5v-2.2
	C2.7,16.1,3,15.9,3.3,15.9z"/>
<path class="st2" d="M10.4,15.9h3.8c0.3,0,0.5,0.2,0.5,0.5v2.2c0,0.3-0.2,0.5-0.5,0.5h-3.8c-0.3,0-0.5-0.2-0.5-0.5v-2.2
	C9.8,16.1,10.1,15.9,10.4,15.9z"/>
<path class="st2" d="M17.5,15.9h3.8c0.3,0,0.5,0.2,0.5,0.5v2.2c0,0.3-0.2,0.5-0.5,0.5h-3.8c-0.3,0-0.5-0.2-0.5-0.5v-2.2
	C17,16.1,17.2,15.9,17.5,15.9z"/>
<path class="st2" d="M24.6,15.9h3.8c0.3,0,0.5,0.2,0.5,0.5v2.2c0,0.3-0.2,0.5-0.5,0.5h-3.8c-0.3,0-0.5-0.2-0.5-0.5v-2.2
	C24,16.1,24.3,15.9,24.6,15.9z"/>
<path class="st1" d="M7.7,7.7H2.7C2.4,7.6,2.2,7.3,2.3,7c0-0.2,0.2-0.4,0.5-0.5h4.9C8,6.5,8.2,6.7,8.3,7c0,0.3-0.2,0.6-0.5,0.6
	C7.7,7.7,7.7,7.7,7.7,7.7"/>
<path class="st1" d="M14.8,7.7H9.8c-0.3,0-0.6-0.2-0.6-0.5s0.2-0.6,0.5-0.6c0,0,0.1,0,0.1,0h4.9c0.3,0,0.6,0.2,0.6,0.5
	s-0.2,0.6-0.5,0.6C14.9,7.7,14.8,7.7,14.8,7.7"/>
</svg>
