<svg width="32" height="32" viewBox="0 0 32 32" fill="none" xmlns="http://www.w3.org/2000/svg">
<g clip-path="url(#clip0_18_1674)">
<path d="M1.60002 22.5001H1.40002C0.80002 22.4001 0.20002 22.0001 2.01464e-05 21.3001C-0.19998 20.5001 2.01464e-05 19.6001 0.70002 19.1001C2.00002 17.9001 4.30002 18.2001 5.90002 18.3001C6.20002 18.4001 6.30002 18.6001 6.30002 18.9001C6.30002 19.1001 6.10002 19.3001 5.80002 19.3001C4.40002 19.2001 2.40002 19.0001 1.40002 19.9001C1.10002 20.1001 0.90002 20.5001 1.00002 21.0001C1.10002 21.3001 1.30002 21.5001 1.50002 21.5001C1.60002 21.5001 1.80002 21.4001 1.90002 21.3001C2.00002 21.3001 2.10002 21.2001 2.10002 21.0001C2.10002 20.7001 2.30002 20.5001 2.50002 20.5001C2.80002 20.5001 3.00002 20.7001 3.00002 20.9001C3.00002 21.3001 2.90002 21.7001 2.60002 22.0001C2.30002 22.3001 2.00002 22.4001 1.60002 22.5001Z" fill="#042b62"/>
<path d="M29.2001 16.8C28.6001 14 26.8001 11.6 24.2001 10.3V6.5C24.2001 6.2 24.0001 6 23.7001 6C23.7001 6 23.7001 6 23.6001 6C21.8001 6.2 20.3001 7.6 19.8001 9.3H13.8001C8.60007 9.3 4.30007 13.5 4.20007 18.8C4.20007 21.7 5.60007 24.5 7.90007 26.2C7.90007 27.5 8.00007 28.7 8.20007 30C8.30007 31.2 9.40007 32 10.5001 31.8C11.5001 31.7 12.2001 30.9 12.3001 30C12.4001 29.5 12.5001 28.8 12.5001 28.1C12.8001 28.1 13.2001 28.2 13.5001 28.2H20.0001C20.2001 28.2 20.5001 28.2 20.7001 28.2C20.8001 28.8 20.8001 29.5 20.9001 30C21.1001 31.2 22.1001 32 23.3001 31.8C24.2001 31.7 25.0001 30.9 25.1001 30C25.2001 29 25.4001 27.7 25.4001 26.5C26.8001 25.5 27.9001 24.1 28.6001 22.5C28.7001 22.3 28.8001 22.2 29.0001 22.2H30.8001C31.3001 22.2 31.7001 21.8 31.7001 21.3V17.7C31.7001 17.2 31.3001 16.8 30.8001 16.8H29.2001Z" fill="#042b62"/>
<path d="M30.9 16.8H30.4V20.4C30.4 20.9 30 21.3 29.5 21.3H27.6C27.4 21.3 27.3 21.4 27.2 21.5C26.5 23.1 25.5 24.4 24.1 25.4C24 25.6 24 25.7 24 25.8C24 26.9 23.9 28.0001 23.7 29.2001C23.6 30.3001 22.7 31.1 21.6 31.1H21.4C22.1 32 23.4 32.3 24.3 31.6C24.8 31.3 25.1 30.7 25.2 30.1C25.3 29.1 25.5 27.8001 25.5 26.6C26.9 25.6 28 24.2 28.7 22.6C28.8 22.4 28.9 22.3 29.1 22.3H30.9C31.4 22.3 31.8 21.9 31.8 21.4V17.8C31.8 17.2 31.4 16.8 30.9 16.8Z" fill="#042b62"/>
<path d="M20.7001 28.2001H13.7001C13.4001 28.2001 13.0001 28.2 12.7001 28.1C12.6001 28.8 12.6001 29.4 12.5001 30C12.4001 31.2 11.3001 32 10.2001 31.9C9.60007 31.8 9.00007 31.5 8.70007 31H9.00007C10.1001 31 11.0001 30.2001 11.1001 29.2001C11.2001 28.7001 11.2001 28 11.3001 27.3C11.6001 27.3 12.0001 27.4 12.4001 27.4H20.7001C20.7001 27.6 20.7001 27.9001 20.7001 28.2001Z" fill="#042b62"/>
<path d="M25.6 16.2C25.3 16.2 25.1 16 25.1 15.7V14.6C25.1 14.3 25.4 14.2 25.6 14.2C25.8 14.2 26 14.4 26 14.6V15.7C26.1 16 25.8 16.2 25.6 16.2Z" fill="white"/>
<path d="M20.7 28.1C20.7 27.8 20.7 27.5001 20.6 27.2001C20.5 26.9001 20.6 26.6 20.6 26.3C20.6 26 20.4 25.8 20.1 25.8C19.8 25.8 19.6 26 19.6 26.3C19.6 26.6 19.6 26.9001 19.6 27.2001C19.6 27.5001 19.6 27.7 19.7 28H20C20.2 28.2 20.5 28.2 20.7 28.1Z" fill="#042b62"/>
<path d="M7.8 22.9C7.5 22.9 7.3 23 7.2 23.3C7.1 23.9 7 24.6 7 25.3C7.3 25.6 7.6 25.9 8 26.2C8 25.3 8 24.4 8.2 23.4C8.2 23.2 8.1 22.9 7.8 22.9Z" fill="#042b62"/>
<path d="M18.5001 8.49997C18.5001 9.89997 17.8001 11.1 16.6001 11.9H13.2001C13.0001 11.9 12.8001 11.9 12.6001 11.9C10.7001 10.8 10.1001 8.39997 11.2001 6.49997C12.3001 4.59997 14.7001 3.99997 16.6001 5.09997C17.7001 5.79997 18.5001 7.09997 18.5001 8.49997Z" fill="#E2E2E2" stroke="#939393" stroke-width="0.25"/>
<path d="M16.1 4.90002C17.7 6.40002 17.8 8.90002 16.3 10.4C15.2 11.6 13.4 12 11.9 11.3C12.1 11.5 12.4 11.7 12.6 11.8C13.2 11.7 13.2 11.8 16.6 11.8C19.3 10.2 19.3 6.50002 16.1 4.90002Z" fill="#EAEAEA"/>
<path d="M11.4 12.6C11.2 12.6 11 12.5 10.9 12.2C10.8 11.9 11 11.7 11.2 11.6C11.6 11.5 12 11.4 12.4 11.4C12.6 11.4 12.8 11.4 13.1 11.3H18.3C18.6 11.3 18.8 11.5 18.8 11.8C18.8 12.1 18.6 12.3 18.3 12.3H13.1H12.5C12.1 12.3 11.8 12.4 11.4 12.5V12.6Z" fill="#042b62"/>
<path d="M9.8 3.9C9.8 6.1 8 7.8 5.9 7.8C3.8 7.8 2 6.1 2 3.9C2 1.7 3.7 0 5.9 0C8.1 0 9.8 1.8 9.8 3.9Z" fill="#E2E2E2" stroke="#939393" stroke-width="0.25"/>
<path d="M7.40007 0.300049C9.00007 1.80005 9.10007 4.30005 7.60007 5.80005C6.50007 7.10005 4.70007 7.40005 3.20007 6.80005C4.80007 8.30005 7.30007 8.20005 8.70007 6.60005C10.1001 5.00005 10.1001 2.50005 8.50007 1.00005C8.20007 0.700049 7.80007 0.500049 7.40007 0.300049Z" fill="#EAEAEA"/>
<path d="M7.3 2.69995H6.7C6.7 2.49995 6.6 2.39995 6.5 2.19995H7.3C7.4 2.19995 7.4 2.19995 7.4 2.09995V1.79995C7.4 1.69995 7.4 1.69995 7.3 1.69995H4.6H4.5C4.5 1.69995 4.5 1.69995 4.5 1.79995V2.29995C4.5 2.39995 4.5 2.39995 4.6 2.39995H5C5.4 2.39995 5.7 2.49995 5.9 2.79995H4.6H4.5V2.89995V3.19995V3.29995H4.6H6C6 3.49995 5.8 3.59995 5.7 3.69995C5.4 3.59995 5.2 3.69995 4.9 3.69995H4.6C4.6 3.69995 4.6 3.69995 4.5 3.69995C4.5 3.69995 4.5 3.69995 4.5 3.79995V4.19995C4.5 4.19995 4.5 4.19995 4.5 4.29995C4.9 4.69995 5.4 5.29995 6.1 6.09995H6.2H6.8C6.8 6.09995 6.9 6.09995 6.9 5.99995V5.89995C6.2 5.19995 5.8 4.69995 5.4 4.29995C5.7 4.29995 6 4.19995 6.3 3.99995C6.5 3.79995 6.7 3.49995 6.7 3.19995H7.2H7.3V3.09995V2.69995Z" fill="#042b62"/>
<path d="M16 7.19995H15.4C15.4 6.99995 15.3 6.89995 15.2 6.69995H15.9H16C16 6.69995 16 6.69995 16 6.59995V6.29995C16 6.29995 16 6.29995 16 6.19995H15.9H13.2C13.1 6.19995 13.1 6.19995 13.1 6.29995V6.69995C13.1 6.79995 13.1 6.79995 13.2 6.79995H13.7C14.1 6.79995 14.4 6.89995 14.6 7.19995H13.3C13.2 7.19995 13.2 7.19995 13.2 7.29995V7.59995C13.2 7.69995 13.2 7.69995 13.3 7.69995H14.7C14.7 7.89995 14.5 7.99995 14.4 8.09995C14.2 8.19995 14 8.19995 13.7 8.19995H13.3C13.2 8.19995 13.2 8.19995 13.2 8.29995V8.69995C13.2 8.69995 13.2 8.69995 13.2 8.79995C13.6 9.19995 14.1 9.79995 14.8 10.6H14.9H15.5C15.5 10.6 15.6 10.6 15.6 10.5V10.4C15 9.59995 14.5 9.09995 14.1 8.69995C14.4 8.69995 14.8 8.59995 15 8.39995C15.2 8.19995 15.4 7.89995 15.4 7.59995H15.9C16 7.59995 16 7.59995 16 7.49995V7.19995C16 7.29995 16 7.29995 16 7.19995Z" fill="#042b62"/>
</g>
<defs>
<clipPath id="clip0_18_1674">
<rect width="31.9" height="31.8" fill="white"/>
</clipPath>
</defs>
</svg>
