<svg width="25" height="32" viewBox="0 0 25 32" fill="none" xmlns="http://www.w3.org/2000/svg">
<g clip-path="url(#clip0_18_1622)">
<path d="M19.9 32H2.2C1 32 0 30.9999 0 29.7999V4.39995C0 3.19995 1 2.19995 2.2 2.19995H22.1V29.7999C22.1 30.9999 21.1 32 19.9 32Z" fill="#042b62"/>
<path d="M22.1 2.19995H5.49995L2.19995 5.49995V28.7C2.19995 29 2.39995 29.2 2.69995 29.2H22V2.19995H22.1Z" fill="#042b62"/>
<path d="M23.7 28.1H3.90002C3.60002 28.1 3.40002 27.9 3.40002 27.6V4.4L7.70002 0H23.2C23.8 0 24.3 0.5 24.3 1.1V27.6C24.3 27.9 24 28.1 23.7 28.1Z" fill="#E2E2E2" stroke="#939393" stroke-width="0.25"/>
<path d="M7.20005 4.4H3.30005L7.70005 0V3.9C7.70005 4.2 7.50005 4.4 7.20005 4.4Z" fill="#EAEAEA"/>
<path d="M8.99998 7.69995H7.09998C6.79998 7.69995 6.59998 7.49995 6.59998 7.19995C6.59998 6.89995 6.79998 6.69995 7.09998 6.69995H8.99998C9.29998 6.69995 9.49998 6.89995 9.49998 7.19995C9.49998 7.49995 9.29998 7.69995 8.99998 7.69995Z" fill="white"/>
<path d="M20.5 7.69995H11.2C10.9 7.69995 10.7 7.49995 10.7 7.19995C10.7 6.89995 10.9 6.69995 11.2 6.69995H20.5C20.8 6.69995 21 6.89995 21 7.19995C21 7.49995 20.8 7.69995 20.5 7.69995Z" fill="white"/>
<path d="M8.99998 11.9H7.09998C6.79998 11.9 6.59998 11.7 6.59998 11.4C6.59998 11.1 6.79998 10.9 7.09998 11H8.99998C9.29998 11 9.49998 11.2 9.49998 11.5C9.49998 11.7 9.29998 11.9 8.99998 11.9Z" fill="white"/>
<path d="M19.9 11.9H11.2C10.9 11.9 10.7 11.7 10.7 11.4C10.7 11.1 10.9 10.9 11.2 10.9H19.9C20.2 10.9 20.4 11.1 20.4 11.4C20.4 11.7 20.2 11.9 19.9 11.9Z" fill="white"/>
<path d="M8.99998 16.2H7.09998C6.79998 16.2 6.59998 16 6.59998 15.7C6.59998 15.4 6.79998 15.2 7.09998 15.2H8.99998C9.29998 15.2 9.49998 15.4 9.49998 15.7C9.49998 16 9.29998 16.2 8.99998 16.2Z" fill="white"/>
<path d="M19.9 16.2H11.2C10.9 16.2 10.7 16 10.7 15.7C10.7 15.4 10.9 15.2 11.2 15.2H19.9C20.2 15.2 20.4 15.4 20.4 15.7C20.4 16 20.2 16.2 19.9 16.2Z" fill="white"/>
<path d="M8.99998 20.5H7.09998C6.79998 20.5 6.59998 20.3 6.59998 20C6.59998 19.7 6.79998 19.5 7.09998 19.5H8.99998C9.29998 19.5 9.49998 19.7 9.49998 20C9.49998 20.3 9.29998 20.5 8.99998 20.5Z" fill="white"/>
<path d="M19.9 20.5H11.2C10.9 20.5 10.7 20.3 10.7 20C10.7 19.7 10.9 19.5 11.2 19.5H19.9C20.2 19.5 20.4 19.7 20.4 20C20.4 20.3 20.2 20.5 19.9 20.5Z" fill="white"/>
<path d="M8.99998 24.7H7.09998C6.79998 24.7 6.59998 24.5 6.59998 24.2C6.59998 23.9 6.79998 23.7 7.09998 23.7H8.99998C9.29998 23.7 9.49998 23.9 9.49998 24.2C9.49998 24.5 9.29998 24.7 8.99998 24.7Z" fill="white"/>
<path d="M19.9 24.7H11.2C10.9 24.7 10.7 24.5 10.7 24.2C10.7 23.9 10.9 23.7 11.2 23.7H19.9C20.2 23.7 20.4 23.9 20.4 24.2C20.4 24.5 20.2 24.7 19.9 24.7Z" fill="white"/>
</g>
<defs>
<clipPath id="clip0_18_1622">
<rect width="24.3" height="32" fill="white"/>
</clipPath>
</defs>
</svg>
