<svg width="32" height="32" viewBox="0 0 32 32" fill="none" xmlns="http://www.w3.org/2000/svg">
<g clip-path="url(#clip0_18_1753)">
<path d="M10.2 0H30.6C30.9 0 31.2 0.2 31.2 0.6V29C31.2 29.3 30.9 29.6 30.6 29.6H10.2C9.89998 29.6 9.59998 29.3 9.59998 29V0.6C9.69998 0.2 9.89998 0 10.2 0Z" fill="#E2E2E2" stroke="#939393" stroke-width="0.25"/>
<path d="M12.3 2.19995H16.8C17 2.19995 17.3 2.39995 17.3 2.59995V3.79995C17.3 3.99995 17.1 4.19995 16.8 4.19995H12.3C12.1 4.19995 11.9 3.99995 11.9 3.69995V2.59995C11.8 2.39995 12 2.19995 12.3 2.19995Z" fill="#042b62"/>
<path d="M25.8 21.5H29.6V22.6H25.8V21.5Z" fill="white"/>
<path d="M23.1 1.59998H26.3V2.69998H23.1V1.59998Z" fill="white"/>
<path d="M27.4 1.59998H29.5V2.69998H27.4V1.59998Z" fill="white"/>
<path d="M23.1 3.80005H25.2V4.90005H23.1V3.80005Z" fill="white"/>
<path d="M26.3 3.80005H28.4V4.90005H26.3V3.80005Z" fill="white"/>
<path d="M21 26.9H27.5V28H21V26.9Z" fill="white"/>
<path d="M12.9 10.8H14V16.7H12.9V10.8Z" fill="white"/>
<path d="M18.3 10.8H19.4V16.7H18.3V10.8Z" fill="white"/>
<path d="M22 10.8H23.1V18.3H22V10.8Z" fill="white"/>
<path d="M25.8 10.8H26.9V18.3H25.8V10.8Z" fill="white"/>
<path d="M12.3 8.59998H28.5C28.8 8.59998 29 8.79998 29 9.09998V10.3C29 10.6 28.8 10.8 28.5 10.8H12.3C12 10.8 11.8 10.6 11.8 10.3V9.09998C11.8 8.79998 12 8.59998 12.3 8.59998Z" fill="#042b62"/>
<path d="M0 30.5V18.9C0 18.5 0.3 18.2 0.7 18.2H18.7C19.1 18.2 19.4 18.5 19.4 18.9V30.5C19.4 30.9 19.1 31.2 18.7 31.2H0.7C0.3 31.2 0 30.9 0 30.5Z" fill="#042b62"/>
<path d="M2.69995 23.6V21.5C2.69995 21.2 2.99995 21 3.19995 21H5.89995C6.19995 21 6.39995 21.2 6.49995 21.5V23.6C6.49995 23.9 6.29995 24.1 5.89995 24.1H3.19995C2.89995 24.2 2.69995 24 2.69995 23.6C2.69995 23.7 2.69995 23.7 2.69995 23.6Z" fill="#E2E2E2"/>
<path d="M1.59998 25.8H2.69998V26.9H1.59998V25.8Z" fill="white"/>
<path d="M3.80005 25.8H4.90005V26.9H3.80005V25.8Z" fill="white"/>
<path d="M5.90002 25.8H7.00002V26.9H5.90002V25.8Z" fill="white"/>
<path d="M1.59998 27.9H4.79998V29H1.59998V27.9Z" fill="white"/>
<path d="M15.6 29C16.4837 29 17.2 28.2837 17.2 27.4C17.2 26.5164 16.4837 25.8 15.6 25.8C14.7163 25.8 14 26.5164 14 27.4C14 28.2837 14.7163 29 15.6 29Z" fill="#E2E2E2"/>
<path d="M12.9 29C13.7837 29 14.5 28.2837 14.5 27.4C14.5 26.5164 13.7837 25.8 12.9 25.8C12.0164 25.8 11.3 26.5164 11.3 27.4C11.3 28.2837 12.0164 29 12.9 29Z" fill="white"/>
</g>
<defs>
<clipPath id="clip0_18_1753">
<rect width="31.2" height="31.2" fill="white"/>
</clipPath>
</defs>
</svg>
