<?xml version="1.0" encoding="UTF-8"?>
<svg  width="512" height="512" id="Layer_1" xmlns="http://www.w3.org/2000/svg" viewBox="0 0 1080 1080">
  <defs>
    <style>
      .cls-1 {
        fill: #042b62;
      }

      .cls-2 {
        fill: #fefefe;
      }
    </style>
  </defs>
  <path d="M380.47,684.55c-43.36-.21-78.89-36.08-78.9-79.68-.01-43.85,35.86-79.52,79.94-79.5,43.9.01,79.34,35.85,79.22,80.09-.11,43.86-36.07,79.3-80.26,79.09Z"/>
  <path d="M612.17,576.45c-46.7,81.03-93.49,162.02-140.34,242.96-7.35,12.71-18.55,17.47-31.17,13.91-11.49-3.23-19.11-13.47-19.06-26.18-.38-5,1.73-9.83,4.41-14.47,46.78-80.99,93.54-161.99,140.39-242.94,8.34-14.39,23.72-19.05,36.89-11.65,13.48,7.59,17.4,23.6,8.88,38.37Z"/>
  <path d="M736.62,764.66c-.19,43.87-36.16,79.31-80.29,79.12-43.41-.18-78.84-35.98-78.83-79.63.01-44.03,35.64-79.55,79.77-79.54,43.8,0,79.54,36.06,79.35,80.05Z"/>
  <path d="M972.86,272.33c-.05-15.02-9.01-24.76-23.98-27.05-4.09-.62-8.23-.46-12.36-.46h-181.31c-2.06,0-4.13-.07-6.19,0-5.13.18-7.45-1.43-4.52-6.7,1-1.8,1.85-3.69,2.72-5.57,19.8-43,10.7-94.58-22.75-127.59-18.65-18.41-40.71-29.67-67.35-30.79h-30.08c-.92.89-2.1.8-3.26.93-27.18,3.05-48.98,15.92-65.69,37.19-12.34,15.72-19.78,34.04-25.53,53.03-7.28,24.05-13.33,48.34-13.54,66.17-2.4-31.65-11.7-69.11-29.46-104.18-5.42-10.71-12.45-20.65-22.02-28.46-17.5-14.29-36.92-23.75-59.89-24.68h-30.08c-32.61,3.16-57.99,19.25-76.19,45.61-25.8,37.36-27.69,77.19-8.35,118.15.93,1.96,3.14,3.72,1.61,6.37-3.49,1.33-7.05.7-10.54.7-62.47.05-124.95-.03-187.42.07-17.6.03-25.27,5.73-30.51,21.96v155.7c4.92,15.15,12.77,21.39,27.87,22.13q13.55.68,13.61,14.09c.02,2.94.01,5.89.01,8.84,0,143.28.19,286.56-.13,429.84-.09,42.57,31.73,85.41,83.52,83.52,32.97-1.21,66.03-.23,99.05-.23,186.32,0,372.64.01,558.96-.02,13.04,0,25.8-1.17,37.59-7.84,29.81-16.86,43.82-42.83,43.86-76.44.16-144.46.06-288.92.07-433.38,0-3.24.1-6.49.02-9.72-.15-5.91,2.57-8.7,8.51-8.56,3.23.07,6.49.02,9.7-.47,14.62-2.24,24.01-12.48,24.05-27.11.15-48.35.16-96.7,0-145.05ZM874.75,894.7c0,22.4-9.86,32.28-32.22,32.28-215.79,0-431.57.01-647.35,0-21.71,0-31.7-10.07-31.7-31.92,0-147.98.06-295.96-.17-443.94-.02-7.23,1.48-9.14,8.96-9.12,115.85.27,231.7.19,347.55.19s230.52.1,345.78-.22c8.1-.03,9.33,2.28,9.32,9.67-.23,147.69-.17,295.37-.17,443.06Z"/>
  <path class="cls-2" d="M380.47,684.55c-43.36-.21-78.89-36.08-78.9-79.68-.01-43.85,35.86-79.52,79.94-79.5,43.9.01,79.34,35.85,79.22,80.09-.11,43.86-36.07,79.3-80.26,79.09Z"/>
  <path class="cls-2" d="M612.17,576.45c-46.7,81.03-93.49,162.02-140.34,242.96-7.35,12.71-18.55,17.47-31.17,13.91-11.49-3.23-19.11-13.47-19.06-26.18-.38-5,1.73-9.83,4.41-14.47,46.78-80.99,93.54-161.99,140.39-242.94,8.34-14.39,23.72-19.05,36.89-11.65,13.48,7.59,17.4,23.6,8.88,38.37Z"/>
  <path class="cls-2" d="M736.62,764.66c-.19,43.87-36.16,79.31-80.29,79.12-43.41-.18-78.84-35.98-78.83-79.63.01-44.03,35.64-79.55,79.77-79.54,43.8,0,79.54,36.06,79.35,80.05Z"/>
  <path class="cls-1" d="M518.89,389.11c-130.04,0-260.08-.07-390.13.17-7.54.01-9.96-1.42-9.74-9.48.64-23.57.54-47.18.04-70.76-.16-7.22,2.16-8.56,8.84-8.54,85.81.22,171.62.14,257.43.14,174.57,0,349.14.05,523.71-.17,7.82-.01,10.4,1.61,10.17,9.92-.63,23.28-.57,46.59-.02,69.88.18,7.58-2.11,9.02-9.29,9.01-130.34-.23-260.67-.17-391.01-.17Z"/>
  <path class="cls-1" d="M597.15,247.39c-2.36,0-4.72-.03-7.07,0-18.59.24-18.54.25-15.47-17.88,3.94-23.25,9.04-46.12,18.28-67.99,9.92-23.48,27.88-34.23,52.62-34.16,23.05.06,44.4,15.03,52.33,36.94,8.35,23.09,4.35,44.32-13.11,61.93-12.54,12.65-29.85,14.46-46.24,17.67-13.61,2.67-27.45,3.56-41.33,3.48Z"/>
  <path class="cls-1" d="M439.84,247.5c-22.2-.17-43.94-3.17-65.32-9.28-30.05-8.6-39.33-35.75-38.55-54.76,1.08-26.55,19.09-48.54,43.82-54.38,28.13-6.64,52.71,4.99,64.54,31.3,11.43,25.43,16.77,52.5,20.21,80.04.79,6.34-1.5,7.53-7.03,7.16-5.86-.39-11.77-.09-17.66-.09Z"/>
  <path d="M460.73,605.46c-.11,43.86-36.07,79.3-80.26,79.09-43.36-.21-78.89-36.08-78.9-79.68-.01-43.85,35.86-79.52,79.94-79.5,43.9.01,79.34,35.85,79.22,80.09Z"/>
  <path d="M736.62,764.66c-.19,43.87-36.16,79.31-80.29,79.12-43.41-.18-78.84-35.98-78.83-79.63.01-44.03,35.64-79.55,79.77-79.54,43.8,0,79.54,36.06,79.35,80.05Z"/>
  <path d="M612.17,576.45c-46.7,81.03-93.49,162.02-140.34,242.96-7.35,12.71-18.55,17.47-31.17,13.91-11.49-3.23-19.11-13.47-19.06-26.18-.38-5,1.73-9.83,4.41-14.47,46.78-80.99,93.54-161.99,140.39-242.94,8.34-14.39,23.72-19.05,36.89-11.65,13.48,7.59,17.4,23.6,8.88,38.37Z"/>
  <path class="cls-1" d="M382.45,578.44c14.35.64,25.69,13.01,25.19,27.49-.49,14.42-12.82,25.95-27.23,25.48-14.72-.48-26.57-13.37-25.7-27.96.86-14.38,13.36-25.65,27.74-25.01Z"/>
  <path class="cls-1" d="M656.94,790.67c-14.46-.02-26.27-11.83-26.35-26.34-.08-14.92,12-26.89,26.91-26.65,14.38.23,26.15,12.35,26.01,26.77-.14,14.39-12.15,26.24-26.57,26.22Z"/>
</svg>