<?xml version="1.0" encoding="UTF-8"?>
<svg id="Layer_1" xmlns="http://www.w3.org/2000/svg" viewBox="0 0 1080 1080">
  <defs>
    <style>
      .cls-1 {
        fill: #1f3060;
      }

      .cls-2 {
        fill: #fff;
      }
    </style>
  </defs>
  <path class="cls-1" d="M540.69,787.53c-34.58.03-61.31,28.19-60.77,64.09.54,35.97,25.28,59.82,61.62,59.45,35.66-.41,60.23-25.55,59.89-61.35-.3-34.62-27.27-62.19-60.74-62.19ZM540.72,881.2c-16.95,0-31.2-14.48-30.89-31.43.27-16.85,15.09-30.99,31.87-30.42,16.82.58,30.66,15.63,29.88,32.45-.78,16.04-14.79,29.4-30.86,29.4Z"/>
  <path class="cls-1" d="M773.72,852.87c-.88,12.28-.2,24.63-.2,36.98s-.64,24.7.2,36.95c.85,12.18-2.88,16.72-15.84,16.88-13.97.24-17.49-4.77-17.02-17.8.85-24.63.78-49.33.03-73.97-.37-12.05,2.81-16.82,15.84-17.02,14.08-.24,17.9,5.01,16.99,17.97Z"/>
  <path class="cls-1" d="M773.96,787.47c-.03,12.86-4.4,17.73-16.61,15.5-10.69,1.49-16.48-.98-16.65-13.77-.17-13.06,4.77-16.41,16.78-15.97,10.18.37,16.51,1.25,16.48,14.25Z"/>
  <path class="cls-1" d="M521.74,399.22c-8.56-18.34-23.04-29.84-43.35-29.57-20.17.27-34.55,11.71-42.87,30.28-5.01,11.13-1.86,13.77,10.52,16.24,15.9,3.15,19.49-13.47,31.94-14.55,13.6-1.18,16.51,20.44,31.13,13.3,14.99,2.67,18.31-3.52,12.62-15.7ZM645.01,397.9c-8.46-17.26-22.7-28.32-42.13-28.29-20.23.07-34.62,11.37-43.35,29.64-5.99,12.62-1.02,20.13,11.61,15.6,21.18-7.61,41.21-18.85,57.56.47,20.74.14,23.35-3.05,16.31-17.43ZM645.01,397.9c-8.46-17.26-22.7-28.32-42.13-28.29-20.23.07-34.62,11.37-43.35,29.64-5.99,12.62-1.02,20.13,11.61,15.6,21.18-7.61,41.21-18.85,57.56.47,20.74.14,23.35-3.05,16.31-17.43ZM521.74,399.22c-8.56-18.34-23.04-29.84-43.35-29.57-20.17.27-34.55,11.71-42.87,30.28-5.01,11.13-1.86,13.77,10.52,16.24,15.9,3.15,19.49-13.47,31.94-14.55,13.6-1.18,16.51,20.44,31.13,13.3,14.99,2.67,18.31-3.52,12.62-15.7ZM521.74,399.22c-8.56-18.34-23.04-29.84-43.35-29.57-20.17.27-34.55,11.71-42.87,30.28-5.01,11.13-1.86,13.77,10.52,16.24,15.9,3.15,19.49-13.47,31.94-14.55,13.6-1.18,16.51,20.44,31.13,13.3,14.99,2.67,18.31-3.52,12.62-15.7ZM645.01,397.9c-8.46-17.26-22.7-28.32-42.13-28.29-20.23.07-34.62,11.37-43.35,29.64-5.99,12.62-1.02,20.13,11.61,15.6,21.18-7.61,41.21-18.85,57.56.47,20.74.14,23.35-3.05,16.31-17.43ZM645.01,397.9c-8.46-17.26-22.7-28.32-42.13-28.29-20.23.07-34.62,11.37-43.35,29.64-5.99,12.62-1.02,20.13,11.61,15.6,21.18-7.61,41.21-18.85,57.56.47,20.74.14,23.35-3.05,16.31-17.43ZM521.74,399.22c-8.56-18.34-23.04-29.84-43.35-29.57-20.17.27-34.55,11.71-42.87,30.28-5.01,11.13-1.86,13.77,10.52,16.24,15.9,3.15,19.49-13.47,31.94-14.55,13.6-1.18,16.51,20.44,31.13,13.3,14.99,2.67,18.31-3.52,12.62-15.7ZM521.74,399.22c-8.56-18.34-23.04-29.84-43.35-29.57-20.17.27-34.55,11.71-42.87,30.28-5.01,11.13-1.86,13.77,10.52,16.24,15.9,3.15,19.49-13.47,31.94-14.55,13.6-1.18,16.51,20.44,31.13,13.3,14.99,2.67,18.31-3.52,12.62-15.7ZM645.01,397.9c-8.46-17.26-22.7-28.32-42.13-28.29-20.23.07-34.62,11.37-43.35,29.64-5.99,12.62-1.02,20.13,11.61,15.6,21.18-7.61,41.21-18.85,57.56.47,20.74.14,23.35-3.05,16.31-17.43ZM645.01,397.9c-8.46-17.26-22.7-28.32-42.13-28.29-20.23.07-34.62,11.37-43.35,29.64-5.99,12.62-1.02,20.13,11.61,15.6,21.18-7.61,41.21-18.85,57.56.47,20.74.14,23.35-3.05,16.31-17.43ZM521.74,399.22c-8.56-18.34-23.04-29.84-43.35-29.57-20.17.27-34.55,11.71-42.87,30.28-5.01,11.13-1.86,13.77,10.52,16.24,15.9,3.15,19.49-13.47,31.94-14.55,13.6-1.18,16.51,20.44,31.13,13.3,14.99,2.67,18.31-3.52,12.62-15.7ZM521.74,399.22c-8.56-18.34-23.04-29.84-43.35-29.57-20.17.27-34.55,11.71-42.87,30.28-5.01,11.13-1.86,13.77,10.52,16.24,15.9,3.15,19.49-13.47,31.94-14.55,13.6-1.18,16.51,20.44,31.13,13.3,14.99,2.67,18.31-3.52,12.62-15.7ZM645.01,397.9c-8.46-17.26-22.7-28.32-42.13-28.29-20.23.07-34.62,11.37-43.35,29.64-5.99,12.62-1.02,20.13,11.61,15.6,21.18-7.61,41.21-18.85,57.56.47,20.74.14,23.35-3.05,16.31-17.43ZM645.01,397.9c-8.46-17.26-22.7-28.32-42.13-28.29-20.23.07-34.62,11.37-43.35,29.64-5.99,12.62-1.02,20.13,11.61,15.6,21.18-7.61,41.21-18.85,57.56.47,20.74.14,23.35-3.05,16.31-17.43ZM521.74,399.22c-8.56-18.34-23.04-29.84-43.35-29.57-20.17.27-34.55,11.71-42.87,30.28-5.01,11.13-1.86,13.77,10.52,16.24,15.9,3.15,19.49-13.47,31.94-14.55,13.6-1.18,16.51,20.44,31.13,13.3,14.99,2.67,18.31-3.52,12.62-15.7ZM521.74,399.22c-8.56-18.34-23.04-29.84-43.35-29.57-20.17.27-34.55,11.71-42.87,30.28-5.01,11.13-1.86,13.77,10.52,16.24,15.9,3.15,19.49-13.47,31.94-14.55,13.6-1.18,16.51,20.44,31.13,13.3,14.99,2.67,18.31-3.52,12.62-15.7ZM645.01,397.9c-8.46-17.26-22.7-28.32-42.13-28.29-20.23.07-34.62,11.37-43.35,29.64-5.99,12.62-1.02,20.13,11.61,15.6,21.18-7.61,41.21-18.85,57.56.47,20.74.14,23.35-3.05,16.31-17.43ZM645.01,397.9c-8.46-17.26-22.7-28.32-42.13-28.29-20.23.07-34.62,11.37-43.35,29.64-5.99,12.62-1.02,20.13,11.61,15.6,21.18-7.61,41.21-18.85,57.56.47,20.74.14,23.35-3.05,16.31-17.43ZM478.39,369.65c-20.17.27-34.55,11.71-42.87,30.28-5.01,11.13-1.86,13.77,10.52,16.24,15.9,3.15,19.49-13.47,31.94-14.55,13.6-1.18,16.51,20.44,31.13,13.3,14.99,2.67,18.31-3.52,12.62-15.7-8.56-18.34-23.04-29.84-43.35-29.57ZM930.86,973.44c-15.23.85-20.34-3.79-20.1-19.52.81-60.57-.98-121.17.57-181.7,2.74-108.04-81.07-206.2-182.69-226.74-19.96-4.03-40.44-1.18-60.74-5.85,4.37-12.93,13.33-13.64,23.45-14.08,51.53-2.3,81.89-34.01,81.89-86.05.03-12.42,2.91-21.62,12.01-30.93,23.99-24.57,25.31-65.78,2.03-89.77-11.57-11.94-15.73-24.84-17.26-40.1-10.59-107.36-107.57-198.32-215.24-203.19-132.3-5.99-232.26,93.19-244.1,203.7-1.22,11.47-.37,24.06-11.47,33.87-22.57,19.96-26.46,45.88-16.61,73.43,10.05,27.98,31.1,43.14,60.7,44.46,11.23.51,15.63,4.94,17.87,15.19,6.94,31.64,22.57,58.67,44.83,82.05,2.94,3.11,8.49,5.38,6.06,12.08-17.63,1.29-35.56.95-52.85,4.13-110,20.37-193.41,119.95-189.25,233.58,2.17,59.11.07,118.4.61,177.58.1,13.23-3.65,18.78-17.53,17.83-15.06-1.05-30.25-.24-45.38-.24q-31.27,0-31.27,32.01h895.7q32.89,0,32.89-33.02c-24.74.34-49.5-.1-74.14,1.29ZM740.97,445.37c.88,23.11-9.64,36.95-37.39,47.2,6.8-18.61,14.96-33.6,17.76-50.52,1.05-6.29,4.6-11.3,12.59-10.59,10.08.85,6.8,8.56,7.04,13.91ZM772.95,363.83c-.68,17.09-11.4,28.66-27.44,35.19-14.01,5.68-21.05,2.17-20.23-13.77.37-7.55.07-15.13.03-22.67,0-6.87-.07-13.74.03-20.61.24-20.03,5.14-23.08,23.35-15.23,16.34,7.07,24.94,20.17,24.26,37.09ZM356.07,382.71c-.41,19.56-6.26,23.48-23.62,15.02-14.58-7.11-24.36-19.02-24.19-35.39.17-17.12,9.31-29.74,25.85-36.21,16.92-6.63,21.69-3.38,21.99,15.29.1,6.9,0,13.77,0,20.64s.1,13.77-.03,20.64ZM360,283.09c-1.86,6.46-5.21,11.71-12.99,10.15-9.41-1.89-6.53-9.37-5.45-14.96,14.75-75.63,55.63-130.81,128.75-158.15,120.49-45.04,249.11,30.93,269.51,158.09.24,1.35.47,2.71.68,4.06.27,4.91.81,10.05-5.99,11-5.28.74-9.61-.88-11.57-6.26-1.15-3.18-1.86-6.56-2.74-9.85-21.25-81.01-94.51-139.34-175.34-139.61-87.87-.34-160.9,54.41-183.3,137.45-.71,2.64-.81,5.45-1.56,8.09ZM683.55,322.95c-51.33-5.58-101.75-13.74-144.79-45.88-15.5-11.61-26.56-25.61-28.96-45.27-1.18-9.58-5.99-15.06-15.7-15.7-10.9-.71-14.69,7.17-15.7,15.56-5.82,47.44-40.5,62.9-79.96,73.53-9.68,2.61-11.4.61-9.91-9.85,9.98-70.79,76.67-126.01,153.04-125.77,78.67.27,143.3,57.42,153.18,135.82,1.05,8.22,4.43,19.29-11.2,17.56ZM386.12,405.58c-1.05-18.51.03-37.12-.24-55.7-.14-7.99,1.79-12.66,10.93-13.74,40.6-4.7,73.63-23.48,99.01-56.24,50.55,51.91,114.5,68.42,183.06,72.58,11.57.71,16.72,3.08,16.99,16.34.71,38.2-1.42,75.39-21.32,109.56-6.12,10.56-13.06,15.6-25.95,15.16-30.18-1.02-60.47.2-90.65-.54-12.76-.3-16.44,4.26-16.55,16.65-.07,12.79,4.47,16.72,16.85,16.28,22.37-.81,44.83-.24,67.23-.24-50.08,35.29-102.63,39.62-155.62,12.28-53.16-27.37-80.4-72.88-83.75-132.4ZM494.5,582.99c29.91,3.15,55.53,6.4,81.31,1.15,11.23-2.3,7.58,5.92,4.77,11.54-12.76,25.75-25.61,51.4-39.86,79.89-15.63-31.37-30.05-60.23-46.22-92.58ZM514.16,692.93c-18.78,6.56-27.78-.1-35.09-16-15.9-34.72-33.84-68.49-51.3-103.41,20.07-6.53,28.83,1.29,35.87,16.65,15.94,34.58,33.5,68.42,50.52,102.76ZM624.71,578.08c6.33-12.32,17.7-5.04,29.88-6.5-20.07,40.13-38.95,77.96-57.93,115.76-6.4,12.76-17.39,7.04-30.32,7.04,20-39.96,38.84-78.3,58.37-116.3ZM246.41,954.11c.47,20.81-10.62,19.05-24.26,19.29-13.77.2-22.77-.1-22.4-19.02,1.29-63.24-1.49-126.62.95-189.79,3.93-100.23,77.42-179.57,180.72-192.63,7-.88,11.4,1.05,14.69,7.78,18.34,37.39,37.09,74.61,57.52,115.55-44.56,0-85.07-.07-125.57.03-48.01.1-81.75,33.26-82.05,81.34-.37,59.15-1.02,118.33.41,177.44ZM784.04,973.4c-81.07-.51-162.15-.24-243.22-.24s-162.18-.44-243.25.34c-15.7.17-19.73-4.7-19.52-19.86.81-57.79.27-115.59.34-173.35.07-36,16.14-53.02,51.91-54.95,7.55-.37,15.09-.1,22.67-.1,128.48,0,256.99-.03,385.47.07,8.19.03,16.51.37,24.53,1.86,26.26,4.84,39.76,20.34,39.89,46.73.37,60.53-.3,121.07.51,181.6.2,15.29-5.79,17.97-19.32,17.9ZM859.5,973.37c-13.3-.47-25.01,2.1-24.46-19.05,1.42-57.05.64-114.17.44-171.25-.24-56.41-31.91-87.74-88.28-87.77h-119.41c20.4-40.88,39.22-78.03,57.42-115.49,3.86-7.95,9.37-8.59,16.72-7.75,101.21,11.47,179.07,98.5,179.23,200.59.1,60.5-.74,121.04.51,181.54.37,18.61-8.12,19.69-22.16,19.19ZM571.14,414.85c21.18-7.61,41.21-18.85,57.56.47,20.74.14,23.35-3.05,16.31-17.43-8.46-17.26-22.7-28.32-42.13-28.29-20.23.07-34.62,11.37-43.35,29.64-5.99,12.62-1.02,20.13,11.61,15.6ZM446.05,416.17c15.9,3.15,19.49-13.47,31.94-14.55,13.6-1.18,16.51,20.44,31.13,13.3,14.99,2.67,18.31-3.52,12.62-15.7-8.56-18.34-23.04-29.84-43.35-29.57-20.17.27-34.55,11.71-42.87,30.28-5.01,11.13-1.86,13.77,10.52,16.24ZM521.74,399.22c-8.56-18.34-23.04-29.84-43.35-29.57-20.17.27-34.55,11.71-42.87,30.28-5.01,11.13-1.86,13.77,10.52,16.24,15.9,3.15,19.49-13.47,31.94-14.55,13.6-1.18,16.51,20.44,31.13,13.3,14.99,2.67,18.31-3.52,12.62-15.7ZM645.01,397.9c-8.46-17.26-22.7-28.32-42.13-28.29-20.23.07-34.62,11.37-43.35,29.64-5.99,12.62-1.02,20.13,11.61,15.6,21.18-7.61,41.21-18.85,57.56.47,20.74.14,23.35-3.05,16.31-17.43ZM645.01,397.9c-8.46-17.26-22.7-28.32-42.13-28.29-20.23.07-34.62,11.37-43.35,29.64-5.99,12.62-1.02,20.13,11.61,15.6,21.18-7.61,41.21-18.85,57.56.47,20.74.14,23.35-3.05,16.31-17.43ZM521.74,399.22c-8.56-18.34-23.04-29.84-43.35-29.57-20.17.27-34.55,11.71-42.87,30.28-5.01,11.13-1.86,13.77,10.52,16.24,15.9,3.15,19.49-13.47,31.94-14.55,13.6-1.18,16.51,20.44,31.13,13.3,14.99,2.67,18.31-3.52,12.62-15.7ZM521.74,399.22c-8.56-18.34-23.04-29.84-43.35-29.57-20.17.27-34.55,11.71-42.87,30.28-5.01,11.13-1.86,13.77,10.52,16.24,15.9,3.15,19.49-13.47,31.94-14.55,13.6-1.18,16.51,20.44,31.13,13.3,14.99,2.67,18.31-3.52,12.62-15.7ZM645.01,397.9c-8.46-17.26-22.7-28.32-42.13-28.29-20.23.07-34.62,11.37-43.35,29.64-5.99,12.62-1.02,20.13,11.61,15.6,21.18-7.61,41.21-18.85,57.56.47,20.74.14,23.35-3.05,16.31-17.43ZM645.01,397.9c-8.46-17.26-22.7-28.32-42.13-28.29-20.23.07-34.62,11.37-43.35,29.64-5.99,12.62-1.02,20.13,11.61,15.6,21.18-7.61,41.21-18.85,57.56.47,20.74.14,23.35-3.05,16.31-17.43ZM521.74,399.22c-8.56-18.34-23.04-29.84-43.35-29.57-20.17.27-34.55,11.71-42.87,30.28-5.01,11.13-1.86,13.77,10.52,16.24,15.9,3.15,19.49-13.47,31.94-14.55,13.6-1.18,16.51,20.44,31.13,13.3,14.99,2.67,18.31-3.52,12.62-15.7ZM521.74,399.22c-8.56-18.34-23.04-29.84-43.35-29.57-20.17.27-34.55,11.71-42.87,30.28-5.01,11.13-1.86,13.77,10.52,16.24,15.9,3.15,19.49-13.47,31.94-14.55,13.6-1.18,16.51,20.44,31.13,13.3,14.99,2.67,18.31-3.52,12.62-15.7ZM645.01,397.9c-8.46-17.26-22.7-28.32-42.13-28.29-20.23.07-34.62,11.37-43.35,29.64-5.99,12.62-1.02,20.13,11.61,15.6,21.18-7.61,41.21-18.85,57.56.47,20.74.14,23.35-3.05,16.31-17.43ZM645.01,397.9c-8.46-17.26-22.7-28.32-42.13-28.29-20.23.07-34.62,11.37-43.35,29.64-5.99,12.62-1.02,20.13,11.61,15.6,21.18-7.61,41.21-18.85,57.56.47,20.74.14,23.35-3.05,16.31-17.43ZM521.74,399.22c-8.56-18.34-23.04-29.84-43.35-29.57-20.17.27-34.55,11.71-42.87,30.28-5.01,11.13-1.86,13.77,10.52,16.24,15.9,3.15,19.49-13.47,31.94-14.55,13.6-1.18,16.51,20.44,31.13,13.3,14.99,2.67,18.31-3.52,12.62-15.7ZM521.74,399.22c-8.56-18.34-23.04-29.84-43.35-29.57-20.17.27-34.55,11.71-42.87,30.28-5.01,11.13-1.86,13.77,10.52,16.24,15.9,3.15,19.49-13.47,31.94-14.55,13.6-1.18,16.51,20.44,31.13,13.3,14.99,2.67,18.31-3.52,12.62-15.7ZM645.01,397.9c-8.46-17.26-22.7-28.32-42.13-28.29-20.23.07-34.62,11.37-43.35,29.64-5.99,12.62-1.02,20.13,11.61,15.6,21.18-7.61,41.21-18.85,57.56.47,20.74.14,23.35-3.05,16.31-17.43ZM645.01,397.9c-8.46-17.26-22.7-28.32-42.13-28.29-20.23.07-34.62,11.37-43.35,29.64-5.99,12.62-1.02,20.13,11.61,15.6,21.18-7.61,41.21-18.85,57.56.47,20.74.14,23.35-3.05,16.31-17.43ZM521.74,399.22c-8.56-18.34-23.04-29.84-43.35-29.57-20.17.27-34.55,11.71-42.87,30.28-5.01,11.13-1.86,13.77,10.52,16.24,15.9,3.15,19.49-13.47,31.94-14.55,13.6-1.18,16.51,20.44,31.13,13.3,14.99,2.67,18.31-3.52,12.62-15.7Z"/>
  <path class="cls-2" d="M540.69,787.53c-34.58.03-61.31,28.19-60.77,64.09.54,35.97,25.28,59.82,61.62,59.45,35.66-.41,60.23-25.55,59.89-61.35-.3-34.62-27.27-62.19-60.74-62.19ZM540.72,881.2c-16.95,0-31.2-14.48-30.89-31.43.27-16.85,15.09-30.99,31.87-30.42,16.82.58,30.66,15.63,29.88,32.45-.78,16.04-14.79,29.4-30.86,29.4Z"/>
  <path class="cls-2" d="M773.72,852.87c-.88,12.28-.2,24.63-.2,36.98s-.64,24.7.2,36.95c.85,12.18-2.88,16.72-15.84,16.88-13.97.24-17.49-4.77-17.02-17.8.85-24.63.78-49.33.03-73.97-.37-12.05,2.81-16.82,15.84-17.02,14.08-.24,17.9,5.01,16.99,17.97Z"/>
  <path class="cls-2" d="M740.7,789.19c-.17-13.06,4.77-16.41,16.78-15.97,10.18.37,16.51,1.25,16.48,14.25-.03,12.86-4.4,17.73-16.61,15.5-10.69,1.49-16.48-.98-16.65-13.77Z"/>
  <path class="cls-2" d="M521.74,399.22c5.68,12.18,2.37,18.37-12.62,15.7-14.62,7.14-17.53-14.48-31.13-13.3-12.45,1.08-16.04,17.7-31.94,14.55-12.38-2.47-15.53-5.11-10.52-16.24,8.32-18.58,22.7-30.01,42.87-30.28,20.3-.27,34.78,11.23,43.35,29.57Z"/>
  <path class="cls-2" d="M628.7,415.33c-16.34-19.32-36.37-8.09-57.56-.47-12.62,4.53-17.6-2.98-11.61-15.6,8.73-18.27,23.11-29.57,43.35-29.64,19.42-.03,33.67,11.03,42.13,28.29,7.04,14.38,4.43,17.56-16.31,17.43Z"/>
  <path class="cls-1" d="M540.69,787.53c-34.58.03-61.31,28.19-60.77,64.09.54,35.97,25.28,59.82,61.62,59.45,35.66-.41,60.23-25.55,59.89-61.35-.3-34.62-27.27-62.19-60.74-62.19ZM540.72,881.2c-16.95,0-31.2-14.48-30.89-31.43.27-16.85,15.09-30.99,31.87-30.42,16.82.58,30.66,15.63,29.88,32.45-.78,16.04-14.79,29.4-30.86,29.4Z"/>
  <path class="cls-1" d="M773.72,926.81c.85,12.18-2.88,16.72-15.84,16.88-13.97.24-17.49-4.77-17.02-17.8.85-24.63.78-49.33.03-73.97-.37-12.05,2.81-16.82,15.84-17.02,14.08-.24,17.9,5.01,16.99,17.97-.88,12.28-.2,24.63-.2,36.98s-.64,24.7.2,36.95Z"/>
  <path class="cls-1" d="M773.96,787.47c-.03,12.86-4.4,17.73-16.61,15.5-10.69,1.49-16.48-.98-16.65-13.77-.17-13.06,4.77-16.41,16.78-15.97,10.18.37,16.51,1.25,16.48,14.25Z"/>
  <path class="cls-1" d="M509.12,414.92c-14.62,7.14-17.53-14.48-31.13-13.3-12.45,1.08-16.04,17.7-31.94,14.55-12.38-2.47-15.53-5.11-10.52-16.24,8.32-18.58,22.7-30.01,42.87-30.28,20.3-.27,34.78,11.23,43.35,29.57,5.68,12.18,2.37,18.37-12.62,15.7Z"/>
  <path class="cls-1" d="M628.7,415.33c-16.34-19.32-36.37-8.09-57.56-.47-12.62,4.53-17.6-2.98-11.61-15.6,8.73-18.27,23.11-29.57,43.35-29.64,19.42-.03,33.67,11.03,42.13,28.29,7.04,14.38,4.43,17.56-16.31,17.43Z"/>
</svg>