<?xml version="1.0" encoding="UTF-8"?>
<svg  width="23" height="22" id="Layer_1" xmlns="http://www.w3.org/2000/svg" xmlns:xlink="http://www.w3.org/1999/xlink" viewBox="0 0 1080 1080">
  <defs>
    <style>
      .cls-1 {
        fill: #042b62;
      }

      .cls-2 {
        fill: none;
      }

      .cls-3 {
        clip-path: url(#clippath);
      }
    </style>
    <clipPath id="clippath">
      <rect class="cls-2" x="29.84" y="31.62" width="1020.38" height="1020.38"/>
    </clipPath>
  </defs>
  <g class="cls-3">
    <g id="tabler:star-filled">
      <g id="Group">
        <path id="Vector" class="cls-1" d="M380.14,344.38l-271.25,39.33-4.8.98c-7.27,1.93-13.9,5.76-19.21,11.09-5.31,5.33-9.11,11.98-11.01,19.26-1.9,7.28-1.84,14.93.19,22.18,2.02,7.25,5.93,13.83,11.33,19.07l196.51,191.28-46.34,270.18-.55,4.68c-.45,7.52,1.12,15.02,4.53,21.74s8.54,12.41,14.88,16.5c6.33,4.08,13.64,6.41,21.16,6.74,7.53.33,15.01-1.34,21.68-4.85l242.6-127.55,242.04,127.55,4.25,1.95c7.02,2.77,14.65,3.61,22.1,2.46,7.45-1.16,14.46-4.27,20.31-9.03s10.33-10.99,12.98-18.05c2.65-7.06,3.37-14.7,2.09-22.14l-46.38-270.18,196.59-191.32,3.32-3.61c4.74-5.83,7.84-12.82,9-20.25,1.16-7.43.33-15.03-2.41-22.03-2.73-7-7.27-13.15-13.16-17.82-5.88-4.67-12.91-7.7-20.34-8.78l-271.25-39.37-121.25-245.74c-3.51-7.12-8.94-13.12-15.68-17.31-6.74-4.19-14.52-6.41-22.46-6.41s-15.72,2.22-22.46,6.41c-6.74,4.19-12.17,10.19-15.68,17.31l-121.3,245.74Z"/>
      </g>
    </g>
  </g>
</svg>