<?xml version="1.0" encoding="UTF-8"?>
<svg width="763px" height="401px" viewBox="0 0 763 401" version="1.1" xmlns="http://www.w3.org/2000/svg" xmlns:xlink="http://www.w3.org/1999/xlink">
    <title>big-go-top-left</title>
    <g id="Page-2" stroke="none" stroke-width="1" fill="none" fill-rule="evenodd">
        <g id="big-go-top-left">
            <g id="mask-2" fill="#FAFAFA" fill-rule="nonzero">
                <rect id="path-1" x="0" y="0.52" width="762.92" height="400"></rect>
            </g>
            <path d="M599.83,0.51 C560.725513,45.5635022 564.542911,113.547024 608.445346,153.939537 C652.347781,194.332051 720.413326,192.484559 762.06,149.77 L762.58,0" id="Path" fill="#BCD874" opacity="0.35"></path>
            <path d="M762,0.52 L573.8,0.67 C538.801637,53.9275148 547.207073,124.644412 593.714358,168.214135 C640.221643,211.783858 711.335931,215.563943 762.2,177.17 L762,0.52 Z" id="Path" fill="#BCD874" opacity="0.2"></path>
            <g id="Group-11-Copy-4" transform="translate(604.000000, 52.000000)" fill="#BCD874" fill-rule="nonzero">
                <circle id="Oval" cx="71.46" cy="106.25" r="6.89"></circle>
                <circle id="Oval-Copy-10" cx="5.78" cy="5.66" r="5.24"></circle>
            </g>
            <path d="M641.28,38.31 L641.28,125.43 C641.285477,128.146592 643.483424,130.349007 646.2,130.36 L715.53,130.36 C718.246576,130.349007 720.444523,128.146592 720.45,125.43 L720.45,54 L701.79,33.38 L646.2,33.38 C643.483424,33.3909929 641.285477,35.5934076 641.28,38.31 Z" id="Path" fill="#BCD874"></path>
            <path d="M701.79,49.07 C701.79,51.7888633 703.991142,53.9944851 706.71,54 L720.45,54 C720.38,49.89 719.91,48.55 716.54,44.89 L710.15,37.89 C706.9,34.35 706.6,33.34 701.79,33.34 L701.79,49.07 Z" id="Path" fill="#B5CD6A"></path>
            <path d="M662.74,85.29 L653.68,85.29 C653.207291,85.2954029 652.825403,85.6772912 652.82,86.15 L652.82,91.43 C652.82,91.9049649 653.205035,92.2900596 653.68,92.2900596 L662.74,92.2900596 C662.968906,92.2927092 663.189228,92.2029726 663.3511,92.0411003 C663.512973,91.879228 663.602709,91.658906 663.60006,91.43 L663.60006,86.15 C663.60006,85.6750351 663.214965,85.29 662.74,85.29 L662.74,85.29 Z" id="Path" fill="#FFFFFF"></path>
            <path d="M697.28,85.29 L673.28,85.29 C672.02,85.29 670.99,85.68 670.99,86.15 L670.99,91.43 C670.99,91.91 671.99,92.29 673.28,92.29 L697.28,92.29 C698.53,92.29 699.56,91.91 699.56,91.43 L699.56,86.15 C699.56,85.68 698.53,85.29 697.28,85.29 Z" id="Path" fill="#FFFFFF"></path>
            <path d="M697.28,99.38 L673.28,99.38 C672.02,99.38 670.99,99.76 670.99,100.24 L670.99,105.52 C670.99,105.99 671.99,106.38 673.28,106.38 L697.28,106.38 C698.53,106.38 699.56,105.99 699.56,105.52 L699.56,100.24 C699.56,99.76 698.53,99.38 697.28,99.38 Z" id="Path" fill="#FFFFFF"></path>
            <path d="M697.28,113.46 L673.28,113.46 C672.02,113.46 670.99,113.85 670.99,114.32 L670.99,119.6 C670.99,120.08 671.99,120.46 673.28,120.46 L697.28,120.46 C698.53,120.46 699.56,120.08 699.56,119.6 L699.56,114.32 C699.56,113.85 698.53,113.46 697.28,113.46 Z" id="Path" fill="#FFFFFF"></path>
            <path d="M662.74,99.37 L653.68,99.37 C653.205678,99.3807535 652.82527,99.7655855 652.82,100.24 L652.82,105.51 C652.82,105.986609 653.203422,106.374522 653.68,106.38 L662.74,106.38 C662.969829,106.38 663.190103,106.288037 663.351675,106.124587 C663.513247,105.961136 663.602672,105.739814 663.600058,105.51 L663.600058,100.24 C663.600058,99.7633906 663.216578,99.3754783 662.74,99.37 L662.74,99.37 Z" id="Path" fill="#FFFFFF"></path>
            <path d="M662.74,113.46 L653.68,113.46 C653.207291,113.465403 652.825403,113.847291 652.82,114.32 L652.82,119.6 C652.82,120.074965 653.205035,120.46006 653.68,120.46006 L662.74,120.46006 C662.968906,120.462709 663.189228,120.372973 663.3511,120.2111 C663.512973,120.049228 663.602709,119.828906 663.60006,119.6 L663.60006,114.32 C663.60006,113.845035 663.214965,113.46 662.74,113.46 L662.74,113.46 Z" id="Path" fill="#FFFFFF"></path>
            <path d="M713.59,55.71 L713.59,125.43 C713.552638,128.12938 711.379206,130.311665 708.68,130.36 L715.53,130.36 C718.246576,130.349007 720.444523,128.146592 720.45,125.43 L720.45,54 L713.58,54 C713.59,54.52 713.59,55.09 713.59,55.71 Z" id="Path" fill="#B5CD6A"></path>
            <path d="M679.69,77 C688.895276,76.9889542 696.349191,69.5186258 696.339997,60.3133473 C696.330786,51.1080688 688.861951,43.6526584 679.656671,43.6600119 C670.451391,43.6673762 662.994485,51.1347185 662.999997,60.34 C663.016548,69.5459146 670.484071,77 679.69,77 L679.69,77 Z" id="Path" fill="#FFFFFF"></path>
            <path d="M680.91,63.24 C680.888198,64.0274592 680.237681,64.6512429 679.45,64.64 C679.042407,64.6441676 678.652678,64.4729781 678.38,64.17 C678.070135,63.7989171 677.916025,63.3222493 677.95,62.84 C677.937033,62.2314893 678.031827,61.6254832 678.23,61.05 C678.413515,60.5702616 678.669856,60.121665 678.99,59.72 C679.376541,59.2587108 679.78711,58.8181005 680.22,58.4 C680.55,58.08 680.89,57.75 681.22,57.4 C681.41452,57.192316 681.576365,56.9562909 681.7,56.7 C681.825203,56.4487353 681.887001,56.1706436 681.88,55.89 C681.893762,55.3543652 681.692023,54.8356075 681.32,54.45 C680.936885,54.0594523 680.406677,53.848822 679.86,53.87 C679.285432,53.8209455 678.719457,54.0341046 678.32,54.45 C677.873829,54.9986514 677.534621,55.6261861 677.32,56.3 C677.21,57.15 676.82,57.78 675.92,57.78 C675.474658,57.7834971 675.051742,57.5849103 674.77,57.24 C674.482274,56.9291296 674.318599,56.5235007 674.31,56.1 C674.323868,55.2652415 674.55477,54.4484664 674.98,53.73 C675.445003,52.908408 676.112948,52.2198043 676.92,51.73 C677.827934,51.1959018 678.866901,50.9257706 679.92,50.95 C680.887531,50.931722 681.843932,51.1587811 682.7,51.61 C683.480402,52.0209672 684.131274,52.6406804 684.58,53.4 C685.016136,54.1461797 685.244061,54.9957184 685.24,55.86 C685.250345,56.4970542 685.120622,57.1286039 684.86,57.71 C684.630955,58.2011056 684.331095,58.6559492 683.97,59.06 C683.39,59.7 682.78,60.31 682.18,60.92 C681.977884,61.1121697 681.790677,61.3194342 681.62,61.54 C681.418085,61.803749 681.265623,62.1018968 681.17,62.42 C681,62.71 681,63 680.91,63.24 Z M679.57,69.7200136 C679.092507,69.7218708 678.634514,69.5307397 678.3,69.19 C677.930221,68.7962272 677.735448,68.2696213 677.76,67.73 C677.74865,67.2171237 677.934813,66.7194959 678.28,66.34 C678.606235,65.9765422 679.071604,65.7689125 679.56,65.7689125 C680.048396,65.7689125 680.513765,65.9765422 680.84,66.34 C681.171122,66.7265514 681.349016,67.221097 681.34,67.73 C681.361826,68.2662066 681.167246,68.7886891 680.8,69.18 C680.480826,69.5202471 680.036496,69.7153192 679.57,69.7200136 L679.57,69.7200136 Z" id="Shape" fill="#F49496"></path>
        </g>
    </g>
</svg>