<?xml version="1.0" encoding="UTF-8"?>
<svg width="763px" height="401px" viewBox="0 0 763 401" version="1.1" xmlns="http://www.w3.org/2000/svg" xmlns:xlink="http://www.w3.org/1999/xlink">
    <title>big-go-top-right</title>
    <g id="Page-2" stroke="none" stroke-width="1" fill="none" fill-rule="evenodd">
        <g id="big-go-top-right">
            <g id="mask-2" fill="#FAFAFA" fill-rule="nonzero">
                <rect id="path-1" x="0" y="0.52" width="762" height="400"></rect>
            </g>
            <path d="M599.83,0.51 C560.725513,45.5635022 564.542911,113.547024 608.445346,153.939537 C652.347781,194.332051 720.413326,192.484559 762.06,149.77 L762.58,0" id="Path" fill="#BCD874" opacity="0.35"></path>
            <g id="Group-11-Copy-4" transform="translate(604.000000, 52.000000)" fill="#BCD874" fill-rule="nonzero">
                <circle id="Oval" cx="71.46" cy="106.25" r="6.89"></circle>
                <circle id="Oval-Copy-10" cx="5.78" cy="5.66" r="5.24"></circle>
            </g>
            <path d="M761.8,0.52 L573.6,0.67 C547.09868,40.8957274 544.811977,92.4206803 567.64565,134.835919 C590.479323,177.251158 634.749175,203.713016 682.92,203.74015 C711.478553,203.783246 739.261371,194.448528 762,177.17 L761.8,0.52 Z" id="Path" fill="#BCD874" opacity="0.2"></path>
            <path d="M641,53.67 L636.24,53.67 C635.36739,53.67 634.66,54.3773901 634.66,55.25 L634.66,120.25 C634.66,121.124242 635.365775,121.834502 636.24,121.84 L671.67,121.84 C673.004082,125.64305 676.594744,128.188651 680.625,128.188651 C684.655256,128.188651 688.245918,125.64305 689.58,121.84 L725,121.84 C725.874225,121.834502 726.58,121.124242 726.58,120.25 L726.58,55.25 C726.58,54.3773901 725.87261,53.67 725,53.67 L641,53.67 Z" id="Path" fill="#BCD874" fill-rule="nonzero"></path>
            <path d="M680.65,44.16 L680.65,109.16 C680.644501,103.908431 676.39156,99.6510183 671.14,99.64 L642.6,99.64 C641.728045,99.6508837 641.025382,100.357994 641.02,101.23 L641.02,45.74 C641.02,44.8673901 641.72739,44.16 642.6,44.16 L680.65,44.16 Z" id="Path" fill="#F49496" fill-rule="nonzero"></path>
            <path d="M720.270035,45.74 L720.270035,101.22 C720.270035,100.34739 719.56261,99.64 718.69,99.64 L690.16,99.64 C684.907772,99.64 680.65,103.897772 680.65,109.15 L680.65,44.149492 L718.65,44.149492 C719.077669,44.13916 719.491455,44.302207 719.796774,44.6018718 C720.102093,44.9015367 720.272845,45.3122026 720.270035,45.74 L720.270035,45.74 Z" id="Path" fill="#F49496" fill-rule="nonzero"></path>
            <path d="M680.65,109.15 L680.65,115.49 L642.65,115.49 C642.218788,115.503489 641.800402,115.342268 641.489744,115.042907 C641.179086,114.743545 641.002485,114.331416 641,113.9 L641,101.22 C641.005382,100.347994 641.708045,99.6408837 642.58,99.63 L671.12,99.63 C676.379371,99.63 680.644481,103.890632 680.65,109.15 L680.65,109.15 Z" id="Path" fill="#B5CD6A" fill-rule="nonzero"></path>
            <path d="M720.27,101.22 L720.27,113.9 C720.264618,114.772006 719.561955,115.479116 718.69,115.49 L680.69,115.49 L680.69,109.15 C680.69,103.897772 684.947772,99.64 690.2,99.64 L718.73,99.64 C719.58695,99.6617018 720.27,100.362775 720.27,101.22 Z" id="Path" fill="#B5CD6A" fill-rule="nonzero"></path>
            <circle id="Oval" fill="#BCD874" fill-rule="nonzero" cx="680.65" cy="53.67" r="17.44"></circle>
            <path d="M680.65,64.7600609 C680.229961,64.7637091 679.826176,64.5978688 679.53,64.3 C679.23036,64.0042036 679.061177,63.6010443 679.06,63.18 L679.06,50.5 C679.012597,49.9036794 679.303903,49.331217 679.813872,49.0185239 C680.323841,48.7058307 680.966159,48.7058307 681.476128,49.0185239 C681.986097,49.331217 682.277403,49.9036794 682.23,50.5 L682.23,63.18 C682.227188,63.5987553 682.062328,64.0001532 681.77,64.3 C681.473187,64.5969136 681.069821,64.7625818 680.65,64.7600609 L680.65,64.7600609 Z" id="Path" fill="#FFFFFF" fill-rule="nonzero"></path>
            <path d="M672.72,107.56 C672.714618,108.432006 672.011955,109.139116 671.14,109.15 L641,109.15 L641,106 L671.12,106 C671.539052,105.994662 671.943058,106.156028 672.243123,106.448592 C672.543189,106.741156 672.714729,107.140947 672.72,107.56 L672.72,107.56 Z" id="Path" fill="#FFFFFF" fill-rule="nonzero"></path>
            <path d="M720.27,106 L720.27,109.17 L690.16,109.17 C689.563679,109.217403 688.991217,108.926097 688.678524,108.416128 C688.365831,107.906159 688.365831,107.263841 688.678524,106.753872 C688.991217,106.243903 689.563679,105.952597 690.16,106 L720.27,106 Z" id="Path" fill="#FFFFFF" fill-rule="nonzero"></path>
            <path d="M713.93,74.27 L698.08,74.27 C697.253336,74.2042862 696.615996,73.5142716 696.615996,72.685 C696.615996,71.8557284 697.253336,71.1657138 698.08,71.1 L713.93,71.1 C714.526321,71.0525968 715.098783,71.3439032 715.411476,71.8538721 C715.724169,72.3638409 715.724169,73.0061591 715.411476,73.5161279 C715.098783,74.0260968 714.526321,74.3174032 713.93,74.27 L713.93,74.27 Z" id="Path" fill="#FFFFFF" fill-rule="nonzero"></path>
            <path d="M713.93,82.2 L691.74,82.2 C690.913336,82.1342862 690.275996,81.4442716 690.275996,80.615 C690.275996,79.7857284 690.913336,79.0957138 691.74,79.03 L713.93,79.03 C714.526321,78.9825968 715.098783,79.2739032 715.411476,79.7838721 C715.724169,80.2938409 715.724169,80.9361591 715.411476,81.4461279 C715.098783,81.9560968 714.526321,82.2474032 713.93,82.2 L713.93,82.2 Z" id="Path" fill="#FFFFFF" fill-rule="nonzero"></path>
            <path d="M713.93,90.12 L691.74,90.12 C690.913336,90.0542862 690.275996,89.3642716 690.275996,88.535 C690.275996,87.7057284 690.913336,87.0157138 691.74,86.95 L713.93,86.95 C714.526321,86.9025968 715.098783,87.1939032 715.411476,87.7038721 C715.724169,88.2138409 715.724169,88.8561591 715.411476,89.3661279 C715.098783,89.8760968 714.526321,90.1674032 713.93,90.12 L713.93,90.12 Z" id="Path" fill="#FFFFFF" fill-rule="nonzero"></path>
            <path d="M663.21,74.27 L647.36,74.27 C646.763679,74.3174032 646.191217,74.0260968 645.878524,73.5161279 C645.565831,73.0061591 645.565831,72.3638409 645.878524,71.8538721 C646.191217,71.3439032 646.763679,71.0525968 647.36,71.1 L663.21,71.1 C663.806321,71.0525968 664.378783,71.3439032 664.691476,71.8538721 C665.004169,72.3638409 665.004169,73.0061591 664.691476,73.5161279 C664.378783,74.0260968 663.806321,74.3174032 663.21,74.27 L663.21,74.27 Z" id="Path" fill="#FFFFFF" fill-rule="nonzero"></path>
            <path d="M669.55,82.2 L647.36,82.2 C646.763679,82.2474032 646.191217,81.9560968 645.878524,81.4461279 C645.565831,80.9361591 645.565831,80.2938409 645.878524,79.7838721 C646.191217,79.2739032 646.763679,78.9825968 647.36,79.03 L669.55,79.03 C670.146321,78.9825968 670.718783,79.2739032 671.031476,79.7838721 C671.344169,80.2938409 671.344169,80.9361591 671.031476,81.4461279 C670.718783,81.9560968 670.146321,82.2474032 669.55,82.2 L669.55,82.2 Z" id="Path" fill="#FFFFFF" fill-rule="nonzero"></path>
            <path d="M669.55,90.12 L647.36,90.12 C646.763679,90.1674032 646.191217,89.8760968 645.878524,89.3661279 C645.565831,88.8561591 645.565831,88.2138409 645.878524,87.7038721 C646.191217,87.1939032 646.763679,86.9025968 647.36,86.95 L669.55,86.95 C670.146321,86.9025968 670.718783,87.1939032 671.031476,87.7038721 C671.344169,88.2138409 671.344169,88.8561591 671.031476,89.3661279 C670.718783,89.8760968 670.146321,90.1674032 669.55,90.12 L669.55,90.12 Z" id="Path" fill="#FFFFFF" fill-rule="nonzero"></path>
            <path d="M680.65,45.74 C680.229961,45.7437091 679.826176,45.5778688 679.53,45.28 C679.23036,44.9842036 679.061177,44.5810443 679.06,44.16 L679.06,42.57 C679.125714,41.7433362 679.815728,41.105996 680.645,41.105996 C681.474272,41.105996 682.164286,41.7433362 682.23,42.57 L682.23,44.16 C682.227188,44.5787553 682.062328,44.9801532 681.77,45.28 C681.473187,45.5769136 681.069821,45.7425818 680.65,45.74 L680.65,45.74 Z" id="Path" fill="#FFFFFF" fill-rule="nonzero"></path>
        </g>
    </g>
</svg>