<svg xmlns="http://www.w3.org/2000/svg" xmlns:xlink="http://www.w3.org/1999/xlink" viewBox="0 0 1358 290"><defs><style>.cls-1{isolation:isolate;}.cls-2{fill:#fce2b9;}.cls-17,.cls-2{opacity:0.4;}.cls-3,.cls-5,.cls-6{fill:#fed385;}.cls-4{fill:#a5681e;}.cls-21,.cls-22,.cls-4,.cls-40{opacity:0.5;}.cls-11,.cls-12,.cls-16,.cls-17,.cls-19,.cls-37,.cls-4,.cls-40,.cls-5{mix-blend-mode:multiply;}.cls-6{mix-blend-mode:color-burn;}.cls-7{fill:#fc9f21;}.cls-8{fill:#8c8b8b;}.cls-9{fill:url(#linear-gradient);}.cls-10{fill:#727272;}.cls-11{fill:#212048;}.cls-11,.cls-12,.cls-16{opacity:0.2;}.cls-12{fill:#ffc563;}.cls-13{fill:#fffeff;}.cls-14{fill:#f0806d;}.cls-15{fill:#8bc53f;}.cls-16{fill:#ffd176;}.cls-17,.cls-19{fill:#ffbd77;}.cls-18{fill:#ff791f;}.cls-19{opacity:0.7;}.cls-20{fill:url(#linear-gradient-2);}.cls-21,.cls-23{fill:#fed885;}.cls-24{fill:#023f47;}.cls-25{fill:#182c3c;}.cls-26{fill:#005263;}.cls-27{fill:#fff;}.cls-28{fill:#bc584b;}.cls-29{fill:#e4e8ea;}.cls-30{fill:#ffb085;}.cls-31{fill:#ff5c55;}.cls-32{fill:#0e1d28;}.cls-33{fill:#a6afc6;}.cls-34{fill:#d5d8df;}.cls-35{fill:#626982;}.cls-36{fill:#c63e3e;}.cls-37{fill:#b89584;opacity:0.3;}.cls-38{fill:#0a0a0a;}.cls-39{fill:#e8e1d8;}.cls-40{fill:#1c6691;}.cls-41{fill:#5e4e46;}</style><linearGradient id="linear-gradient" x1="1070.27" y1="76.03" x2="899.17" y2="247.14" gradientTransform="translate(819.64 1146.3) rotate(-90)" gradientUnits="userSpaceOnUse"><stop offset="0" stop-color="#fff"/><stop offset="1" stop-color="#f2f5ff"/></linearGradient><linearGradient id="linear-gradient-2" x1="818.21" y1="153.86" x2="882.43" y2="189.12" gradientUnits="userSpaceOnUse"><stop offset="0" stop-color="#fff5de"/><stop offset="1" stop-color="#fff"/></linearGradient></defs><g class="cls-1"><g id="Layer_1" data-name="Layer 1"><path class="cls-2" d="M1359.71,290H0V173s158.84-33.87,306.06,10.64,205.25-27.88,205.25-27.88S660,110.88,715.84,198.87s182.22-17.73,220-24.74c37.45,6.47,51.16-34,124.89,13s96,58.35,143,56.17C1320.66,218.49,1349.74,213,1359.71,290Z"/><path class="cls-3" d="M1321.25,61.82a2.68,2.68,0,0,1-2.66,2.66h-57a2.67,2.67,0,0,1,0-5.33h2.7a6.94,6.94,0,0,1,11.3-2.15,9.63,9.63,0,0,1,11.13-4.35,11,11,0,0,1,20.38,2.23,6.94,6.94,0,0,1,9.78,4.27h1.72A2.67,2.67,0,0,1,1321.25,61.82Z"/><path class="cls-3" d="M73.94,59a4.85,4.85,0,0,0,4.82,4.83H182A4.84,4.84,0,0,0,186.78,59,4.85,4.85,0,0,0,182,54.13h-4.88a12.57,12.57,0,0,0-20.47-3.9,17.47,17.47,0,0,0-15.07-8.62,17.72,17.72,0,0,0-5.07.75,20,20,0,0,0-36.89,4,12.58,12.58,0,0,0-17.71,7.74H78.76A4.84,4.84,0,0,0,73.94,59Z"/><path class="cls-3" d="M585.39,58.65A4.7,4.7,0,0,1,584,62a4.63,4.63,0,0,1-3.31,1.38H480.27a4.69,4.69,0,0,1-3.31-8A4.63,4.63,0,0,1,480.27,54H485a12.25,12.25,0,0,1,19.92-3.8,17,17,0,0,1,19.59-7.65,19.44,19.44,0,0,1,35.91,3.92A12.25,12.25,0,0,1,577.67,54h3A4.71,4.71,0,0,1,585.39,58.65Z"/><path class="cls-4" d="M278,52.78l.19.6a.83.83,0,0,1,0,.15.13.13,0,0,0,0,.06.53.53,0,0,1,0,.13.19.19,0,0,1,0,.08.87.87,0,0,1-.25.47l-.05,0,0,0-.07,0a.8.8,0,0,1-.16.08l-2.62.86a.86.86,0,0,1,1,.42.31.31,0,0,1,.06.13l1.49,4.49a.39.39,0,0,1,0,.14h0a.15.15,0,0,0,0,.07s0,0,0,0,0,.08,0,.12a.36.36,0,0,1,0,.1s0,0,0,0a.94.94,0,0,1-.2.35l-.06.06-.06.05-.06,0a.56.56,0,0,1-.17.09l-1.21.4a.87.87,0,0,1,1,.41l.06.14,1.49,4.48a.77.77,0,0,1,0,.15h0a.2.2,0,0,0,0,.07s0,0,0,0,0,.07,0,.11a.3.3,0,0,1,0,.1s0,0,0,0a.94.94,0,0,1-.2.35l-.06,0-.06,0-.05,0-.18.08,1.21-.4a.87.87,0,0,1,1,.41l.06.14,1.49,4.49,0,.14s0,.1,0,.15a.15.15,0,0,1,0,.07.82.82,0,0,1-.17.43l-.06.06s0,0-.06.06l-.06.06-.06,0-.17.08-2.86,1a.86.86,0,0,1,1,.41.35.35,0,0,1,.06.14l1.49,4.49a.54.54,0,0,1,0,.22.75.75,0,0,1,0,.15.73.73,0,0,1-.06.21l0,.07s0,0,0,.08l0,.06-.05.07a.69.69,0,0,1-.13.11l-.06,0-.17.08,1.24-.41a.85.85,0,0,1,1,.41l.06.13,1.48,4.49a.74.74,0,0,1,0,.14,1,1,0,0,1,0,.24.13.13,0,0,1,0,.06.87.87,0,0,1-.25.46l-.05,0,0,0-.06,0-.17.08-2.33.77a.87.87,0,0,1,1,.41l.06.14,1.48,4.48a.83.83,0,0,1,0,.15.17.17,0,0,0,0,.07v.13s0,0,0,.08a.85.85,0,0,1-.34.55l-.07,0-.16.07-6.57,2.18-1.26-.33c-.55-.17-1.11-.35-1.65-.56A22.18,22.18,0,0,1,269,92.08c-.24-.16-.47-.34-.7-.52s-.45-.35-.67-.53a21.91,21.91,0,0,1-3.75-4l-.42-.61-.4-.62a22,22,0,0,1-2.13-4.58h0c-.07-.23-.15-.46-.21-.69s-.14-.46-.19-.69a22,22,0,0,1-.71-5.06V74c0-.25,0-.51,0-.76a21.79,21.79,0,0,1,1-5.63c.09-.29.19-.57.3-.85s.21-.58.34-.87A21.8,21.8,0,0,1,266,59.1c.1-.11.2-.22.31-.32q.43-.44.9-.84c.43-.38.88-.75,1.36-1.11l.23-.17a22,22,0,0,1,6-3.07l.32-.1A22.05,22.05,0,0,1,278,52.78Z"/><circle class="cls-3" cx="284.8" cy="73.25" r="21.82" transform="translate(-6.68 34.33) rotate(-6.82)"/><circle class="cls-5" cx="284.3" cy="73.41" r="17.29" transform="translate(187.1 350.49) rotate(-85.15)"/><path class="cls-6" d="M278.86,57l-.92.34A17.28,17.28,0,0,1,288.8,90.1c.32-.08.63-.17.95-.28A17.29,17.29,0,0,0,278.86,57Z"/><circle class="cls-3" cx="284.3" cy="73.41" r="11.37" transform="translate(-1.59 140.35) rotate(-27.66)"/><path class="cls-7" d="M287.25,67.05l-.52-1.58-6.59,2.19-2.53.84.53,1.57,2.52-.84a2.61,2.61,0,0,1,2.88.9l-4.85,1.61.52,1.57,4.85-1.6a2.58,2.58,0,0,1-1.77,2.43l-2.53.84.53,1.58.5-.17a4.45,4.45,0,0,1,2.4-.13,9.71,9.71,0,0,1,5.63,3.81l1.66-.55a11.78,11.78,0,0,0-6.16-4.68,4.28,4.28,0,0,0,1.37-3.67l2.64-.88-.53-1.57-2.63.87a4.06,4.06,0,0,0-1.32-1.41Z"/><path class="cls-4" d="M184.05,192.81l.11.31s0,0,0,.08,0,0,0,0v.11a.5.5,0,0,1-.13.25l0,0,0,0,0,0-.09,0-1.37.45a.45.45,0,0,1,.54.22l0,.07.78,2.36s0,.05,0,.07h0V197a.09.09,0,0,1,0,.05v0a.5.5,0,0,1-.1.19l0,0,0,0a0,0,0,0,1,0,0l-.1.05-.63.21a.45.45,0,0,1,.54.21l0,.07.78,2.36s0,0,0,.07h0v.12a.09.09,0,0,1,0,0v0a.36.36,0,0,1-.1.18l0,0,0,0,0,0a.31.31,0,0,1-.1.05l.64-.21a.45.45,0,0,1,.54.21l0,.07.78,2.36a.19.19,0,0,1,0,.07v.12a.43.43,0,0,1-.09.22l0,0,0,0a.05.05,0,0,1,0,0s0,0,0,0a.31.31,0,0,1-.1.05l-1.49.49a.45.45,0,0,1,.54.22l0,.07.78,2.35a.5.5,0,0,1,0,.12v.08l0,.11,0,0,0,0,0,0,0,0a.13.13,0,0,1-.07.06l0,0-.09,0,.65-.21a.45.45,0,0,1,.54.21l0,.08.78,2.35s0,.05,0,.07v.13a0,0,0,0,1,0,0,.38.38,0,0,1-.13.24l0,0,0,0,0,0-.09,0-1.22.41a.45.45,0,0,1,.54.21l0,.07.78,2.36a.19.19,0,0,1,0,.07.06.06,0,0,0,0,0,.13.13,0,0,1,0,.06v.05a.45.45,0,0,1-.18.28l0,0-.08,0-3.45,1.14-.66-.18a8.69,8.69,0,0,1-.86-.29,11,11,0,0,1-2.53-1.36c-.13-.08-.25-.18-.37-.27l-.35-.28a11,11,0,0,1-2-2.12l-.22-.32a3,3,0,0,1-.21-.33,11,11,0,0,1-1.12-2.4h0c0-.12-.08-.24-.11-.36s-.07-.24-.1-.36a11,11,0,0,1-.37-2.65,2.67,2.67,0,0,1,0-.4c0-.13,0-.26,0-.4a11.3,11.3,0,0,1,.54-3c.05-.15.1-.3.16-.45a4.22,4.22,0,0,1,.18-.45,11.3,11.3,0,0,1,2.34-3.55l.16-.17.47-.44c.23-.2.47-.39.72-.58l.12-.09a11.23,11.23,0,0,1,3.14-1.61l.16,0A10.76,10.76,0,0,1,184.05,192.81Z"/><circle class="cls-3" cx="187.61" cy="203.54" r="11.44" transform="translate(-22.84 23.71) rotate(-6.82)"/><circle class="cls-5" cx="187.35" cy="203.62" r="9.06"/><path class="cls-6" d="M184.49,195a4.68,4.68,0,0,0-.48.18,9.07,9.07,0,0,1,5.7,17.18l.49-.15A9.07,9.07,0,0,0,184.49,195Z"/><circle class="cls-3" cx="187.35" cy="203.62" r="5.96" transform="translate(-73.11 110.23) rotate(-27.66)"/><path class="cls-7" d="M188.89,200.29l-.27-.83-3.45,1.15-1.33.44.27.82,1.33-.44a1.37,1.37,0,0,1,1.51.47l-2.55.85.28.82,2.54-.84a1.36,1.36,0,0,1-.93,1.28l-1.32.44.27.82.27-.09a2.41,2.41,0,0,1,1.25-.07,5.19,5.19,0,0,1,3,2l.86-.28a6.21,6.21,0,0,0-3.22-2.46,2.23,2.23,0,0,0,.72-1.92l1.38-.46-.28-.83-1.38.46a2.22,2.22,0,0,0-.69-.74Z"/><path class="cls-4" d="M618.61,220l.18.56a.32.32,0,0,1,0,.14.13.13,0,0,1,0,.06v.12a.25.25,0,0,1,0,.08.78.78,0,0,1-.24.43l0,0,0,0-.06,0-.16.07-2.44.81a.8.8,0,0,1,1,.38l.06.13,1.39,4.2a.7.7,0,0,1,0,.14h0s0,0,0,.07v0a.45.45,0,0,1,0,.11.28.28,0,0,1,0,.09.06.06,0,0,0,0,0,.92.92,0,0,1-.19.33l-.06.05s0,0-.06.05l-.05,0a.6.6,0,0,1-.16.08l-1.13.38a.8.8,0,0,1,1,.38l.06.13,1.39,4.2,0,.13h0a.13.13,0,0,0,0,.06v0a.37.37,0,0,1,0,.11s0,.06,0,.09l0,0a.78.78,0,0,1-.18.32l-.06,0-.06.05-.05,0-.16.07,1.13-.37a.8.8,0,0,1,1,.38.52.52,0,0,1,.06.13l1.39,4.2a.35.35,0,0,1,0,.14.61.61,0,0,1,0,.14v.06a.8.8,0,0,1-.17.4.1.1,0,0,1,0,.06.34.34,0,0,1-.06.06s0,0-.06,0l0,0a.6.6,0,0,1-.16.08l-2.67.88a.81.81,0,0,1,1,.39l.06.12,1.39,4.21a.65.65,0,0,1,0,.2.61.61,0,0,1,0,.14.54.54,0,0,1,0,.21l0,.06,0,.07-.05.06,0,.06a.43.43,0,0,1-.12.11l-.06,0-.15.08,1.15-.39a.82.82,0,0,1,1,.39.61.61,0,0,1,.05.12l1.39,4.2a.74.74,0,0,1,0,.14.81.81,0,0,1,0,.22s0,0,0,.06a.85.85,0,0,1-.24.42s0,0,0,0l0,0-.06,0-.16.07-2.18.73a.79.79,0,0,1,1,.38.52.52,0,0,1,.06.13l1.39,4.2a.31.31,0,0,1,0,.13.17.17,0,0,1,0,.07v.12a.17.17,0,0,1,0,.07.79.79,0,0,1-.32.51l-.06,0-.16.08-6.14,2c-.4-.09-.79-.19-1.18-.31s-1-.33-1.55-.52a21.08,21.08,0,0,1-4.51-2.42l-.66-.49-.62-.5a20.12,20.12,0,0,1-3.51-3.79q-.2-.27-.39-.57l-.38-.58a20.51,20.51,0,0,1-2-4.29h0c-.07-.21-.14-.43-.2-.64l-.18-.64a20.43,20.43,0,0,1-.66-4.74v-.7c0-.24,0-.48,0-.71a20.28,20.28,0,0,1,1-5.27c.09-.27.18-.54.28-.8s.2-.54.32-.81a20.56,20.56,0,0,1,4.18-6.34l.3-.3c.27-.27.55-.53.83-.78s.83-.71,1.28-1l.21-.16a20.44,20.44,0,0,1,5.6-2.87l.3-.1A19.28,19.28,0,0,1,618.61,220Z"/><circle class="cls-3" cx="624.96" cy="239.13" r="20.42" transform="translate(-23.97 75.89) rotate(-6.82)"/><circle class="cls-5" cx="624.49" cy="239.29" r="16.18" transform="translate(333.23 841.3) rotate(-85.15)"/><path class="cls-6" d="M619.4,223.93c-.3.1-.58.21-.87.32a16.18,16.18,0,0,1,10.17,30.66c.3-.08.59-.17.88-.27a16.18,16.18,0,1,0-10.18-30.71Z"/><circle class="cls-3" cx="624.49" cy="239.29" r="10.64" transform="translate(-39.72 317.21) rotate(-27.66)"/><path class="cls-7" d="M627.25,233.33l-.49-1.47-6.16,2-2.37.79.49,1.47,2.37-.78a2.42,2.42,0,0,1,2.69.83l-4.54,1.51.49,1.47,4.54-1.5a2.43,2.43,0,0,1-1.66,2.28l-2.37.78.49,1.48.48-.16a4.16,4.16,0,0,1,2.24-.12,9.13,9.13,0,0,1,5.27,3.56l1.55-.51a11.06,11.06,0,0,0-5.76-4.38,4,4,0,0,0,1.28-3.44l2.47-.81-.49-1.48-2.47.82a3.9,3.9,0,0,0-1.23-1.32Z"/><path class="cls-4" d="M1256.32,173l-.28.21-.07.05,0,0-.06,0h0a.58.58,0,0,1-.29-.05l0,0,0,0,0,0-.07-.08-.93-1.22a.49.49,0,0,1,0,.62s0,0-.06.05l-2.1,1.6-.07,0h0l0,0h0l-.06,0H1252a.59.59,0,0,1-.23,0l0,0,0,0,0,0a.6.6,0,0,1-.08-.08l-.43-.57a.48.48,0,0,1,0,.62l-.06,0-2.11,1.6-.07,0h0l-.07,0h-.08a.57.57,0,0,1-.22,0l0,0,0,0,0,0-.07-.08.43.57a.5.5,0,0,1,0,.62l-.06,0-2.11,1.6-.07,0-.08,0h0a.47.47,0,0,1-.26,0l0,0,0,0,0,0,0,0-.08-.08-1-1.34a.5.5,0,0,1,0,.62l-.06,0-2.11,1.6a.24.24,0,0,1-.11.06l-.08,0h-.21l0,0h0l-.08,0,0,0-.08-.07.44.58a.47.47,0,0,1,0,.62l-.06.05-2.1,1.6-.07,0a.35.35,0,0,1-.13.05h0a.42.42,0,0,1-.29-.05h0l0,0,0,0-.07-.07-.83-1.1a.47.47,0,0,1,0,.62l-.06.06-2.11,1.6-.07,0,0,0-.07,0h0a.48.48,0,0,1-.35-.08l0,0a.27.27,0,0,1-.07-.08l-2.34-3.08c0-.24,0-.48,0-.72a8,8,0,0,1,0-1,11.91,11.91,0,0,1,.49-3l.15-.46.16-.45a12.37,12.37,0,0,1,1.47-2.72l.25-.33.25-.32a12.25,12.25,0,0,1,2-2h0l.33-.23a2.75,2.75,0,0,1,.33-.23,11.76,11.76,0,0,1,2.55-1.29l.39-.13.41-.13a12.22,12.22,0,0,1,3.17-.47h.5l.52,0a12.19,12.19,0,0,1,4.39,1.14l.23.11.6.32c.29.16.56.34.84.52l.13.1a11.9,11.9,0,0,1,2.7,2.61l.12.15A12.54,12.54,0,0,1,1256.32,173Z"/><circle class="cls-3" cx="1246.72" cy="180.28" r="12.2" transform="translate(44.92 557.76) rotate(-25.67)"/><circle class="cls-5" cx="1246.54" cy="180.05" r="9.67"/><path class="cls-6" d="M1254.24,174.2c-.11-.15-.23-.29-.35-.43a9.66,9.66,0,0,1-15.37,11.67l.32.45a9.67,9.67,0,1,0,15.4-11.69Z"/><circle class="cls-3" cx="1246.54" cy="180.05" r="6.36" transform="translate(257.93 960.38) rotate(-46.5)"/><path class="cls-7" d="M1250.44,180.46l.74-.57-2.35-3.09-.9-1.18-.74.56.9,1.18a1.44,1.44,0,0,1,.05,1.69l-1.73-2.28-.74.56,1.73,2.28a1.44,1.44,0,0,1-1.61-.5l-.9-1.18-.74.56.18.24a2.46,2.46,0,0,1,.5,1.24,5.42,5.42,0,0,1-1,3.67l.59.77a6.57,6.57,0,0,0,1.37-4.1,2.36,2.36,0,0,0,2.19.06l.94,1.24.74-.56-.94-1.24a2.26,2.26,0,0,0,.51-.95Z"/><path class="cls-3" d="M595.52,143.59,592.09,138a1,1,0,0,1,.32-1.34,1,1,0,0,1,1.35.32l2.42,4,6.45-3.81a1,1,0,0,1,1,1.68Z"/><path class="cls-3" d="M597.82,152.24a12.33,12.33,0,1,1,12.33-12.33A12.34,12.34,0,0,1,597.82,152.24Zm0-22.9a10.57,10.57,0,1,0,10.57,10.57A10.58,10.58,0,0,0,597.82,129.34Z"/><path class="cls-3" d="M659.55,74.54,653.3,64.3a1.78,1.78,0,1,1,3-1.85l4.42,7.24,11.76-7a1.78,1.78,0,1,1,1.81,3.07Z"/><path class="cls-3" d="M663.75,90.33a22.5,22.5,0,1,1,22.49-22.49A22.52,22.52,0,0,1,663.75,90.33Zm0-41.77A19.28,19.28,0,1,0,683,67.84,19.3,19.3,0,0,0,663.75,48.56Z"/><path class="cls-3" d="M471.31,128.87l-6.25-10.24a1.78,1.78,0,1,1,3-1.86l4.42,7.24,11.76-7a1.78,1.78,0,0,1,1.82,3.07Z"/><path class="cls-3" d="M475.51,144.65A22.49,22.49,0,1,1,498,122.16,22.52,22.52,0,0,1,475.51,144.65Zm0-41.77a19.28,19.28,0,1,0,19.28,19.28A19.3,19.3,0,0,0,475.51,102.88Z"/><path class="cls-3" d="M350,220.05l-2.91-4.78a.84.84,0,0,1,.27-1.15.83.83,0,0,1,1.14.28l2.07,3.38,5.49-3.25a.83.83,0,0,1,.84,1.43Z"/><path class="cls-3" d="M352,227.41a10.5,10.5,0,1,1,10.5-10.5A10.51,10.51,0,0,1,352,227.41Zm0-19.49a9,9,0,1,0,9,9A9,9,0,0,0,352,207.92Z"/><path class="cls-8" d="M852.1,73.22h261.73a8.83,8.83,0,0,1,8.83,8.83V253.44a0,0,0,0,1,0,0H843.27a0,0,0,0,1,0,0V82.06A8.83,8.83,0,0,1,852.1,73.22Z"/><rect class="cls-9" x="903.92" y="34.7" width="158.09" height="257.27" transform="translate(1146.3 -819.64) rotate(90)"/><path class="cls-10" d="M1131.37,266.11H834.57a12.67,12.67,0,0,1-12.67-12.67H1144A12.67,12.67,0,0,1,1131.37,266.11Z"/><path class="cls-11" d="M962.62,256.56h46.23a3.12,3.12,0,0,0,3.11-3.12H959.51A3.12,3.12,0,0,0,962.62,256.56Z"/><rect class="cls-12" x="967.23" y="125.88" width="90.37" height="90.37" rx="4.46"/><rect class="cls-13" x="969.27" y="123.23" width="90.37" height="90.37" rx="4.46"/><path class="cls-14" d="M1015.27,138.58a29.7,29.7,0,0,1,19.68,8.17l-19.68,19.68Z"/><path class="cls-3" d="M1014.45,198.26a29.85,29.85,0,0,1-.81-59.68V168.4a.81.81,0,0,0,.12.4l0,.07,0,.07,19.77,22.33A29.74,29.74,0,0,1,1014.45,198.26Z"/><path class="cls-15" d="M1015.57,168.43l20.54-20.53a29.72,29.72,0,0,1-1.29,42.27Z"/><path class="cls-16" d="M952.49,172.88a3.7,3.7,0,0,0,3.7-3.7v-96H853a9.68,9.68,0,0,0-9.68,9.68v90Z"/><rect class="cls-3" x="801.12" y="50.15" width="157.84" height="120.77" rx="3.38"/><path class="cls-13" d="M921.93,124.33h-9.55a1.24,1.24,0,0,1,0-2.47h9.55a1.24,1.24,0,1,1,0,2.47Z"/><path class="cls-13" d="M925.57,124.33a1.24,1.24,0,0,1-.88-.37,1.2,1.2,0,0,1-.36-.87.66.66,0,0,1,0-.24,1,1,0,0,1,.06-.23,1.64,1.64,0,0,1,.12-.22c0-.06.1-.12.15-.18a1.28,1.28,0,0,1,1.75,0l.15.18a.9.9,0,0,1,.11.22,1,1,0,0,1,.08.23,1.94,1.94,0,0,1,0,.24,1.29,1.29,0,0,1-.36.87A1.23,1.23,0,0,1,925.57,124.33Z"/><path class="cls-13" d="M940.82,124.33H929.38a1.24,1.24,0,1,1,0-2.47h11.44a1.24,1.24,0,0,1,0,2.47Z"/><path class="cls-13" d="M932.1,130.5H912.38a1.24,1.24,0,0,1,0-2.47H932.1a1.24,1.24,0,1,1,0,2.47Z"/><path class="cls-13" d="M940.82,130.5h-4.54a1.24,1.24,0,1,1,0-2.47h4.54a1.24,1.24,0,0,1,0,2.47Z"/><path class="cls-17" d="M934.54,69.08A8,8,0,0,0,926.6,77a7.45,7.45,0,0,0,.08,1.06L913,84.77a7.93,7.93,0,0,0-12.18,10.09l-18.24,24.48a7.86,7.86,0,0,0-5.94.38l-16.79-17.41a7.94,7.94,0,1,0-14.05,0L829,119.72a7.91,7.91,0,1,0,3.6,3.46l16.79-17.41a7.84,7.84,0,0,0,6.86,0L873,123.18a7.94,7.94,0,1,0,13.53-.86l18.24-24.48a7.93,7.93,0,0,0,10.45-7.53,9.28,9.28,0,0,0-.08-1.06l13.71-6.69a7.93,7.93,0,1,0,5.67-13.48Z"/><circle class="cls-18" cx="809.63" cy="57.37" r="1.81"/><circle class="cls-19" cx="816.33" cy="57.37" r="1.81"/><circle class="cls-13" cx="823.03" cy="57.37" r="1.81"/><path class="cls-12" d="M843.27,227.24h68a3.7,3.7,0,0,0,3.7-3.7v-74a3.71,3.71,0,0,0-3.7-3.71h-68Z"/><path class="cls-12" d="M911.25,145.82H831.06a3.71,3.71,0,0,0-3.7,3.71v21.39H915V149.53A3.71,3.71,0,0,0,911.25,145.82Z"/><rect class="cls-20" x="829.68" y="143.5" width="87.59" height="81.42" rx="3.38"/><path class="cls-15" d="M908.05,215.35H839.87a.62.62,0,0,1-.62-.62V168a.62.62,0,0,1,1.24,0v46.08h67.56a.62.62,0,1,1,0,1.24Z"/><rect class="cls-3" x="845.62" y="199.1" width="7.72" height="9.88"/><rect class="cls-3" x="860.32" y="191.66" width="7.72" height="17.33"/><rect class="cls-3" x="875.02" y="194.1" width="7.72" height="14.88"/><rect class="cls-3" x="889.72" y="185.54" width="7.72" height="23.44"/><rect class="cls-14" x="845.62" y="192.98" width="7.72" height="6.12"/><rect class="cls-14" x="860.32" y="180.93" width="7.72" height="10.73"/><rect class="cls-14" x="875.02" y="184.89" width="7.72" height="9.21"/><rect class="cls-14" x="889.72" y="171.03" width="7.72" height="14.51"/><rect class="cls-15" x="839.87" y="152.19" width="7.4" height="2.91"/><rect class="cls-15" x="839.87" y="158.36" width="7.4" height="2.91"/><path class="cls-15" d="M862.88,154.88h-9.54a1.24,1.24,0,1,1,0-2.47h9.54a1.24,1.24,0,1,1,0,2.47Z"/><path class="cls-15" d="M866.52,154.88a1.26,1.26,0,0,1-.88-.37,1.24,1.24,0,0,1-.36-.87.66.66,0,0,1,0-.24,2,2,0,0,1,.06-.23c0-.07.07-.14.12-.22s.1-.12.15-.18a1.28,1.28,0,0,1,1.75,0l.15.18a.9.9,0,0,1,.11.22.7.7,0,0,1,.08.23,1.94,1.94,0,0,1,0,.24,1.25,1.25,0,0,1-1.23,1.24Z"/><path class="cls-15" d="M881.77,154.88H870.33a1.24,1.24,0,0,1,0-2.47h11.44a1.24,1.24,0,1,1,0,2.47Z"/><path class="cls-15" d="M873.05,161.05H853.34a1.24,1.24,0,1,1,0-2.47h19.71a1.24,1.24,0,1,1,0,2.47Z"/><path class="cls-15" d="M881.77,161.05h-4.54a1.24,1.24,0,0,1,0-2.47h4.54a1.24,1.24,0,1,1,0,2.47Z"/><rect class="cls-12" x="1049.25" y="172.29" width="50.9" height="61.06" rx="2.07"/><rect class="cls-14" x="1051.76" y="168.92" width="50.9" height="61.06" rx="2.07"/><rect class="cls-3" x="1068.57" y="165.21" width="17.29" height="37.46" transform="translate(1261.15 -893.27) rotate(90)"/><path class="cls-13" d="M1095.14,197.7H1059a.8.8,0,0,1-.8-.8h0a.79.79,0,0,1,.8-.79h36.18a.79.79,0,0,1,.8.79h0A.8.8,0,0,1,1095.14,197.7Z"/><path class="cls-13" d="M1081.83,201.06H1059a.8.8,0,0,1-.8-.8h0a.8.8,0,0,1,.8-.8h22.87a.79.79,0,0,1,.79.8h0A.79.79,0,0,1,1081.83,201.06Z"/><path class="cls-13" d="M1095.14,201.06h-9.83a.79.79,0,0,1-.79-.8h0a.79.79,0,0,1,.79-.8h9.83a.8.8,0,0,1,.8.8h0A.8.8,0,0,1,1095.14,201.06Z"/><path class="cls-13" d="M1088.14,204.41H1059a.79.79,0,0,1-.8-.79h0a.8.8,0,0,1,.8-.8h29.18a.8.8,0,0,1,.8.8h0A.79.79,0,0,1,1088.14,204.41Z"/><path class="cls-13" d="M1095.14,204.41h-3.9a.79.79,0,0,1-.8-.79h0a.8.8,0,0,1,.8-.8h3.9a.8.8,0,0,1,.8.8h0A.79.79,0,0,1,1095.14,204.41Z"/><path class="cls-13" d="M1066.43,207.77H1059a.79.79,0,0,1-.8-.79h0a.8.8,0,0,1,.8-.8h7.47a.8.8,0,0,1,.8.8h0A.79.79,0,0,1,1066.43,207.77Z"/><path class="cls-13" d="M1077.71,217.85h4.82a.8.8,0,0,0,.79-.8h0a.8.8,0,0,0-.79-.8h-4.82a.8.8,0,0,0-.8.8h0A.8.8,0,0,0,1077.71,217.85Z"/><path class="cls-13" d="M1059,217.85h15.65a.8.8,0,0,0,.8-.8h0a.8.8,0,0,0-.8-.8H1059a.8.8,0,0,0-.8.8h0A.8.8,0,0,0,1059,217.85Z"/><path class="cls-13" d="M1078.62,224.56h3.91a.79.79,0,0,0,.79-.79h0a.8.8,0,0,0-.79-.8h-3.91a.8.8,0,0,0-.8.8h0A.79.79,0,0,0,1078.62,224.56Z"/><path class="cls-13" d="M1059,221.21h6.5a.8.8,0,0,0,.8-.8h0a.8.8,0,0,0-.8-.8H1059a.8.8,0,0,0-.8.8h0A.8.8,0,0,0,1059,221.21Z"/><path class="cls-13" d="M1063.77,214.49H1059a.8.8,0,0,1-.8-.8h0a.79.79,0,0,1,.8-.79h4.81a.79.79,0,0,1,.8.79h0A.8.8,0,0,1,1063.77,214.49Z"/><path class="cls-13" d="M1082.53,214.49h-15.66a.8.8,0,0,1-.8-.8h0a.79.79,0,0,1,.8-.79h15.66a.79.79,0,0,1,.79.79h0A.8.8,0,0,1,1082.53,214.49Z"/><rect class="cls-3" x="1086.51" y="212.92" width="9.43" height="11.64"/><path class="cls-21" d="M1076.91,32.62a16.22,16.22,0,1,0,16.22,16.22A16.24,16.24,0,0,0,1076.91,32.62Zm13.16,14.73h-4a23,23,0,0,0-2.62-10.05A13.29,13.29,0,0,1,1090.07,47.35Zm-14.65-11.3v11.3h-4.64C1071.09,41.61,1073.18,37.39,1075.42,36.05Zm0,14.27v11.3c-2.24-1.34-4.33-5.56-4.64-11.3Zm3,11.3V50.32h4.65C1082.73,56.06,1080.65,60.28,1078.4,61.62Zm0-14.27V36.05c2.25,1.34,4.33,5.56,4.65,11.3Zm-8-10.05a23.09,23.09,0,0,0-2.62,10.05h-4A13.29,13.29,0,0,1,1070.42,37.3Zm-6.67,13h4a23.09,23.09,0,0,0,2.62,10A13.26,13.26,0,0,1,1063.75,50.32Zm19.65,10a23,23,0,0,0,2.62-10h4A13.26,13.26,0,0,1,1083.4,60.37Z"/><g class="cls-22"><path class="cls-23" d="M798.46,196.05a6.38,6.38,0,0,0-.1-1.08l1.58-.92a.46.46,0,0,0,.17-.65l-1.44-2.5a.47.47,0,0,0-.65-.17l-1.59.91a5.72,5.72,0,0,0-1.87-1.08v-1.83a.49.49,0,0,0-.48-.48H791.2a.48.48,0,0,0-.48.48v1.83a5.77,5.77,0,0,0-1.88,1.08l-1.58-.91a.49.49,0,0,0-.66.17l-1.44,2.5a.48.48,0,0,0,.18.65l1.58.92a5.49,5.49,0,0,0-.1,1.08,5.67,5.67,0,0,0,.1,1.09l-1.58.91a.48.48,0,0,0-.18.65l1.44,2.5a.48.48,0,0,0,.66.17l1.58-.91a5.77,5.77,0,0,0,1.88,1.08v1.83a.47.47,0,0,0,.48.48h2.88a.48.48,0,0,0,.48-.48v-1.83a5.72,5.72,0,0,0,1.87-1.08l1.59.91a.46.46,0,0,0,.65-.17l1.44-2.5a.47.47,0,0,0-.17-.65l-1.58-.91A6.59,6.59,0,0,0,798.46,196.05Zm-5.82,3.06a3.06,3.06,0,1,1,3.06-3.06A3.06,3.06,0,0,1,792.64,199.11Z"/><path class="cls-23" d="M816.82,205.7v-3.28a.42.42,0,0,0-.43-.42h-1a.43.43,0,0,1-.4-.29,5.94,5.94,0,0,0-.31-.75.43.43,0,0,1,.08-.48l.68-.68a.41.41,0,0,0,0-.59l-2.32-2.32a.41.41,0,0,0-.59,0l-.68.68a.43.43,0,0,1-.48.07c-.25-.11-.5-.22-.75-.31a.42.42,0,0,1-.29-.39v-1a.42.42,0,0,0-.42-.42h-3.28a.42.42,0,0,0-.42.42v1a.42.42,0,0,1-.29.39c-.26.09-.51.2-.75.31a.43.43,0,0,1-.48-.07l-.68-.68a.42.42,0,0,0-.6,0l-2.32,2.32a.42.42,0,0,0,0,.59l.68.68a.41.41,0,0,1,.08.48,7.92,7.92,0,0,0-.31.75.42.42,0,0,1-.39.29h-1a.42.42,0,0,0-.42.42v3.28a.42.42,0,0,0,.42.42h1a.42.42,0,0,1,.39.29,6.21,6.21,0,0,0,.31.75.41.41,0,0,1-.08.48l-.68.68a.43.43,0,0,0,0,.6l2.32,2.32a.43.43,0,0,0,.6,0l.68-.69a.43.43,0,0,1,.48-.07c.24.11.49.22.75.31a.42.42,0,0,1,.29.39v1a.42.42,0,0,0,.42.42H810a.42.42,0,0,0,.42-.42v-1a.42.42,0,0,1,.29-.39c.25-.09.5-.2.75-.31a.43.43,0,0,1,.48.07l.68.69a.42.42,0,0,0,.59,0l2.32-2.32a.42.42,0,0,0,0-.6l-.68-.68a.43.43,0,0,1-.08-.48,4.93,4.93,0,0,0,.31-.75.43.43,0,0,1,.4-.29h1A.42.42,0,0,0,816.82,205.7Zm-7.74,1.67a3.4,3.4,0,1,1,2.53-2.53A3.37,3.37,0,0,1,809.08,207.37Z"/></g><polygon class="cls-24" points="1166.13 149.55 1171.97 130.75 1178.55 146.41 1166.13 155.06 1166.13 149.55"/><path d="M1191.73,263.27s-7,18.8,7,16.5,8.7-12.54,8.7-12.54S1202.09,256.23,1191.73,263.27Z"/><path class="cls-25" d="M1192.2,263.31s-1.62,10.92.6,12.2c2.73,2.38,8.7,2,12.62-6.91.17-4.86-4-4.77-4-4.77A16.34,16.34,0,0,0,1192.2,263.31Z"/><path class="cls-26" d="M1177.11,146.66s-.51,6.82,5.46,13.13c0,0,4.77,25.24,5.45,31.89s3.07,26.78,5.29,30.7c0,0-1.36,23.71,0,33.94,0,0-.62,5.61-1.58,6.95,0,0,9.6-1.83,15.74,4l2.21-1.19s2.39-26.26.85-69.07c0,0-2.72-13.65-3.41-17.57s2.05-23,2.05-23l.51-10.92Z"/><path class="cls-24" d="M1189.05,165.08s10.4-1,10.06,3.41c0,0,2,2.56,2.73,30.35,0,0,5.15,20.64,1.38,27.46s4.25,40.93,4.25,40.93l2.21-1.19s2.9-48.09.85-69.07L1207,178.21l2.15-21.83h-2.73l-1.87,3.92-15.52,3.75Z"/><path class="cls-26" d="M1182.57,159.79s-3.76,15.18-2.39,46.56c0,0,.34,53-1.2,59.35,0,0-11.42.62-16.11-2.85l-5.55-2.78s3.24-7.33,5.55-8c0,0-2.31-28.15-1.62-43.49,0,0-2.14-4.27-2.82-50.42l13.39-12.69,5.29,1.2S1177.45,155.18,1182.57,159.79Z"/><path class="cls-24" d="M1158.43,158.15a23.27,23.27,0,0,0,13,5.9s2.82,11.6,1.28,21.83c0,0,.52,57.31-1.28,62.42l.26,1.88s-3.24,6.31-3.24,6.82-.61,6.76.89,8.16c0,0,3,1.22,9.68.54,0,0,2.43-20.3,1.21-38.89,0,0-.18-61.22,2.38-67,0,0-6.49-8.19-5.46-13.13l-5.29-1.2Z"/><path d="M1157.32,260.07l-16.2,10.37s-2,4.47.86,5.15l15.34-.68,9.21-5.11s1.71-1.1,1.88.64c0,0,6.48,2.25,10.4-1.67l.17-3.07Z"/><path class="cls-25" d="M1163.75,263.41s-14.1,11.6-22.63,7l16.2-10.37Z"/><path class="cls-27" d="M1139.15,111.84s1.67,2.12,3.91,1.9a5.7,5.7,0,0,0,4-1.9,1.83,1.83,0,0,0,.24-1.79l1.59,1.52s-.94,5.52-2,6.08-4,1.48-4.46.68a5.08,5.08,0,0,0-1.42-1.41s-2.49-3.63-2.6-4.41a3.81,3.81,0,0,1,0-1.26Z"/><path class="cls-14" d="M1162.49,67.74s-4.29,7.37-5,12.84-2.32,12.76-1.43,17a107.76,107.76,0,0,1,1.43,11s-9.66,1.67-10.17,1.45,1.88,1.34,0,5.25-3.91,3.46-7,1c-1-.81,1.13,4,2.68,4.77,4,2,19,1.15,19,1.15s2.12-.34,3.13-3.47,2.26-9.71,1.19-15.07-5.32-22.1-5.21-26A67.18,67.18,0,0,1,1162.49,67.74Z"/><path class="cls-28" d="M1156.66,121.74s2.38-.64,4.61-5.55,2-19.81,2-19.81a39.35,39.35,0,0,1-2.73-8.1c-.6-3.5-1.35-11.91-.3-13.06s7.89,15.3,8.34,20.62-1.34,21.69-3.43,23.92-3.53,2.69-5.56,2.66-5.52,0-5.52,0Z"/><path class="cls-27" d="M1172.81,96.74c-.09-.25-2.6-9.55-2.14-15.57a106.86,106.86,0,0,1,3.95-18.38c.23,0,2.41-1.07,3-.67a9.43,9.43,0,0,1,1.5,2l11.24-11.56s3.75.66,4.16,1.5S1185.7,68.44,1184.11,72s-8.12,16.57-8.87,19.59a56.6,56.6,0,0,0-1.09,7.85Z"/><path class="cls-29" d="M1179.36,64.42c.08.1,9.87-6.51,11.15-4.09.76,1.45-6.22,11.47-7.08,13.23-.4.84-2.77-8.88-4.34-7.29a32.07,32.07,0,0,0-4.94,6.57c-.67,1.54-1.51,7.74-1.17,11.17a54.22,54.22,0,0,0,2,8.64l-.8,6.75a57.77,57.77,0,0,1-2.55-7.94c-.46-2.68-1.13-8.43-.93-10.29s2.16-11.93,2.5-13.27,1.45-5.11,1.45-5.11l2.61-.86Z"/><path class="cls-14" d="M1153.72,159.62s2.84-15.91,4.18-23.28,6.87-21.26,7.2-25.95-2.51-16.58-4-24.12-1-13.31.33-17.08c1-2.61,9.31-6.76,9.31-6.76l4.28-.5s-6.22,15.86-2.41,32.55c.8,3.5,1.93,4.58,2.41,9.43s-.44,15.19-2.41,26.74-3,19.09-7.16,23.61-6.2,4.53-8,5.36A4.83,4.83,0,0,1,1153.72,159.62Z"/><path class="cls-28" d="M1170.64,113a32.66,32.66,0,0,0,4.37-8l-.11,7.71s.2,8-2.93,13.83-6.38,6.15-7.54,6.15-1.17-.9-1.17-.9a17.18,17.18,0,0,0,3.46-3.12c1.57-1.9,3.4-6.14,4.61-8.71a27.22,27.22,0,0,0,2.09-7.37c0-.89-1.49,2.23-4.32,5.47s-3.72,3.91-4.16,3.13c0,0,1.49-1.9,1.78-2.35S1167.16,118,1170.64,113Z"/><path class="cls-28" d="M1174.61,101.22s-4.76-6.57-6.77-12a54.42,54.42,0,0,1-3.41-12.62,10.52,10.52,0,0,1,0-3.72l2.56-2.22-2.52-2.54,1.81-2.87a20.76,20.76,0,0,1,5.09-3.28,5.79,5.79,0,0,1,3.68,0s-2.64,7.58-3,11.89a143.89,143.89,0,0,0,.63,19.49A78.2,78.2,0,0,0,1174.61,101.22Z"/><path class="cls-14" d="M1194.49,54s9.41,6,13.65,7.2,6.33,3.88,7.71,5c3.05,2.6,3.79,5.71,2.79,12.64s-4.08,20.93-5.64,28-4.86,14.4-4.86,19.76,2.68,11.89,4.19,19.26,2,11.22,2.68,14.91.67,5.36-.17,5.69-17.58,2.85-23.28,1.67-13.35-3.51-15.72-9.88-3.77-17.2-3.87-20.26,2-16.75,2.34-19.26,2.65-12.73.82-16.74-1.48-2.85-1-5.53,6.59-17.55,8.7-21.85,7.78-13.57,7.78-13.57Z"/><path class="cls-28" d="M1172.29,142.38s1.16-11.15,2.18-16.51,1.52-14.78,2.15-17.46-.6-5.6.61-10.12,14.35-19.2,18.61-23.22a41.48,41.48,0,0,0,6.3-7.32l4.83-7-6.79-3.44-4.34-1.65s-21.1,38.66-21.75,42.68.86,4.17.92,6.61-3.15,26.44-3.15,30.09A73.8,73.8,0,0,0,1172.29,142.38Z"/><path class="cls-28" d="M1205.3,81.42s0,2-1.51,8.71-3,7.36-5.7,13.06-4.68,11-1.84,17.41,14,17.1,14,17.1-2.89-8.49-2-12.92,4-14.74,5.21-20,5.54-21.51,4.88-24-4.18-2.68-7.53-2.35A9,9,0,0,0,1205.3,81.42Z"/><path class="cls-14" d="M1211.16,64.25c-.87.41-4.74,4.83-5.88,10.29s-1.8,19.33-1,23.74,1.64,5.76,1.64,5.76-1.19-.07-3.6,0c-3.55.11-1.23-.37-5.19-.91s-4.17-1.25-12.27-2.69c-5.14-.92-5.79-.74-5.79-.74v16.53s23.42,3.26,28.64,4.08,9.14,2.77,12.24,0,4.4-5.06,4.57-11.59-1.31-18.11-2.61-27.58-.82-11.42-2.62-14a7.69,7.69,0,0,0-5.3-3.62C1212.58,63.3,1212.74,63.5,1211.16,64.25Z"/><path class="cls-30" d="M1151.75,103.13s6.83-3.84,9.17-5.13,3-3,5.32-1.68,9.6,4.9,9.6,4.9l-1.53,9.06a3.3,3.3,0,0,1-3-.56,57,57,0,0,0-6.38-3c-1.13-.48-1.58.85-3.25,1.25s-3-1.17-3.8-1.84a2.23,2.23,0,0,1-.33-2.46c.22-.78-3.85,1.08-3.85,1.08Z"/><polygon class="cls-31" points="1161.92 99 1153.07 103.92 1153.72 104.77 1157.57 103.69 1161.92 99"/><path class="cls-28" d="M1193.11,102.13a45.33,45.33,0,0,1,4.32,6.3,12.65,12.65,0,0,0,4.71,5c.82.54-3.17-4.83-3.44-5.67s4.71,3.86,4.89,4.13,2.9,2.63,2.9,2.63-4.17-8-4.35-8.11a60.43,60.43,0,0,1,5.35,4.85c1.45,1.71,3.71,4.44,3.53,3.26s-4.26-7-4.53-7.52,3.44.18,3.44.18,3.9,2,4.35,2.81,0-2.08-.54-2.54-3.9-2.89-3.9-2.89l4.63-1.48a2.28,2.28,0,0,0-2.74-1.25,6.44,6.44,0,0,1-4.15-.91,9.69,9.69,0,0,1,2.08-5c2-2.63-1.72-.27-2.81,0s-1-1.54-1-1.9,1.85-3.08,2.57-4.17,1-2.08,1.54-2.9,1-2-1.08-.36a22,22,0,0,0-4.73,5.87,33.07,33.07,0,0,0,.33,6.63c.28,1.39,1.37,4.8,1.37,4.8a22.27,22.27,0,0,1-2.57-.12c-2.34-.25-1.78-.34-4-.59S1193.11,102.13,1193.11,102.13Z"/><path class="cls-30" d="M1158.62,41.84s1.13,2.93,1.8,4.74,1.43,2.41,2.26,2.71a2.62,2.62,0,0,1,1.51,1.2c.07.3.37,5.2.52,5.65s1.21.6,2.41.45,1.73,1.88,2.26,2.63,1.35,1.21,1.66,1.89.67,1.65,1.28,1.8,3.53.23,4.74-.64,2.25,1.77,2.25,1.77S1191,53.73,1191.13,53.5s-4.29-5.34-4.81-6.55-1.89-2.4-2-4.21-.52-3.91-1.8-4.67-3.92.23-4.37,1.73a18.5,18.5,0,0,0-.6,3.09v1.66l-1.23.63s-2.31-2.36-3.44-3.57-2.11-3.75-3.23-3.8a13.08,13.08,0,0,0-3.77.49c-1.5.38-5,1.13-5.94,1.73A3.26,3.26,0,0,0,1158.62,41.84Z"/><path class="cls-32" d="M1155.27,41.42c1,.69,2.82.87,5,.53a15.76,15.76,0,0,0,5.46-2c1.92-1,2.6-1.5,3.31-1.24s1.4,2.34,2.79,3.28,4.36,3.38,4.36,3.38l1.5-.83s.74-4.31,1.06-5.24a2.68,2.68,0,0,1,2.71-1.53,4.44,4.44,0,0,1,2.5,2.59c.17.8-.38,3.05,0,4a13.94,13.94,0,0,0,2.4,2.69l.93-.5s-.07-7.56,0-9.9-1.69-7.41-3.38-9-2.41-2.9-5.16-3.42a23.11,23.11,0,0,0-8.09,0,14.45,14.45,0,0,0-7.6,4c-2.64,2.52-3.13,3.88-4.67,5.72s-2.48,3.5-3.35,3.88a1.34,1.34,0,0,0-.83,1.92A3.54,3.54,0,0,0,1155.27,41.42Z"/><path class="cls-31" d="M1177.23,61.93a10.4,10.4,0,0,0,2.2-1.73,15.21,15.21,0,0,0,2.44-3.5,4.12,4.12,0,0,0,0-2.63,24.93,24.93,0,0,0-1.58-4.14,29.62,29.62,0,0,1,2.45,2.61,8.7,8.7,0,0,1,.64,3.75c0,.75-.32,4.43-.32,4.43L1179.31,64Z"/><polygon class="cls-27" points="1174.15 111.25 1179.09 113.07 1179.09 101.22 1175.84 101.22 1174.15 111.25"/><path class="cls-27" d="M1172.6,70.62c.08-.25,6.49-6.53,6.49-6.53l-1.86-2.16-2.73,1.26a23.36,23.36,0,0,1-1,3.69A13.64,13.64,0,0,0,1172.6,70.62Z"/><path class="cls-27" d="M1183.61,71.2a12.66,12.66,0,0,0-1.68-3.6c-.83-1.09-2.84-3.51-2.84-3.51s10.71-12.45,10.44-12.8,2.1.66,3,1.24,1.53,0,1.94,1.5-3.34,6-4.94,7.9S1183.61,71.2,1183.61,71.2Z"/><path class="cls-14" d="M1199.15,68.55s-11.54,14.29-15.77,19-5.73,6.08-7.84,9.22c-1.51,2.26-1.39,3.64-1.39,3.64a18.4,18.4,0,0,1,1.07-9.89c2.11-4.83,8.8-18,10.9-22.47s6-10,6.86-11.67a6.53,6.53,0,0,0,.93-2.21V52.53l9.88,5.2-3,7.06-4.52,1.42Z"/><path class="cls-28" d="M1140.26,116.31s1.44,2.78,2.44,3.12a4,4,0,0,0,4.26-1.78c1.1-1.79,1.31-6.69,1.31-6.69a16.41,16.41,0,0,1-1.32,4.78c-.9,1.46-1.64,3-3.56,2.21A15.79,15.79,0,0,1,1140.26,116.31Z"/><polygon class="cls-33" points="1117.36 88.28 1134.25 88.28 1159.58 109.05 1142.37 109.05 1117.36 88.28"/><path class="cls-30" d="M1132.88,95.84c-1.87,0-1.21,5.81.28,9.11a25,25,0,0,0,5,6.57,5,5,0,0,0,3.23,2.25c2.33.53,3.06.39,4.54-.7s1.69-1.6,1.38-2.11a9.61,9.61,0,0,1-.43-2.35c-.11-.74.85-2,1.28-2.87a1.11,1.11,0,0,0-.85-1.72c-.85-.09-3.94,2.85-3.94,2.85l.27-1.23s1.37-2.69,1.11-3.74c-.09-.36-.73-.6-1.38-.6s-1.06-.19-1.49.6-2.39,3.46-2.39,3.46-.91,1.1-.38-1.08,1.41-3.93,1-5.17a1.41,1.41,0,0,0-2-1c-.8.5-2.29,5.06-2.29,5.06s-.47-.13-.66-1c-.31-1.4-.41-3.89-.62-4.69C1134.25,96.32,1133.94,95.84,1132.88,95.84Z"/><polygon class="cls-34" points="1117.95 87.53 1117.36 88.28 1134.25 88.28 1134.55 87.53 1117.95 87.53"/><polygon class="cls-35" points="1134.55 87.53 1160.38 108.6 1159.58 109.05 1134.25 88.28 1134.55 87.53"/><path class="cls-31" d="M1135.23,103.13a23.72,23.72,0,0,1-.68-2.35,30.38,30.38,0,0,0-.3-3.29,8.72,8.72,0,0,1-.38-1.38,2.65,2.65,0,0,1,.74,1.67c.15,1.17.39,3.91.56,4.4a3.1,3.1,0,0,0,.66,1Z"/><path class="cls-31" d="M1139,105.36a9.42,9.42,0,0,1,0-2.73,15.48,15.48,0,0,1,.84-3c.11-.2.16-.89.35-.53a10.35,10.35,0,0,1-.12,3.07,23.22,23.22,0,0,0-.09,2.59l-.76.86Z"/><path class="cls-31" d="M1143.43,106.66s.39-2,.5-2.58.61-2.47.61-2.47a1.76,1.76,0,0,1,.17,1.25c-.16.73-.54,3.3-.54,3.3l-.79.71"/><path class="cls-31" d="M1147.44,111.61a18,18,0,0,1-.89-3.18,2.47,2.47,0,0,1,.77-1.56,6.86,6.86,0,0,0,1-1.67s.08,1.29-.26,1.67-1.23,1.17-1,1.78a11.74,11.74,0,0,1,.38,1.51Z"/><path class="cls-36" d="M1169,58.2a3.49,3.49,0,0,1,3.57-.44s-2.61.46-2.91,1.47C1168.34,58.59,1169,58.2,1169,58.2Z"/><path class="cls-31" d="M1172.54,57.76a13.81,13.81,0,0,1-1.6,2.49c-.62.59-1.39-.77-1.31-1C1169.63,59.23,1169.79,58.16,1172.54,57.76Z"/><path class="cls-32" d="M1164.76,48.93s3-2.82,5.17-2.68a18.88,18.88,0,0,0-5.16,3.77C1164.14,49.73,1164.76,48.93,1164.76,48.93Z"/><path class="cls-37" d="M1166.29,50.5c-.35-.62-.29-.79-.07-1s3.08-1.38,2.32-.53A7.83,7.83,0,0,1,1166.29,50.5Z"/><path class="cls-38" d="M1165.67,50.82c.06.08-.08.49.62-.32s.6.51.6.51.25.45.46.45a3.7,3.7,0,0,0,1.32-2.1c.14-.62.16-.87-.37-.58a9.22,9.22,0,0,0-1.79,1.07C1165.6,50.55,1165.54,50.68,1165.67,50.82Z"/><path class="cls-39" d="M1168.54,49c-.06-.2-1.21.28-2.25,1.51,0,0-.07.29.4.6s.7.29,1.24-.46S1168.65,49.39,1168.54,49Z"/><path class="cls-38" d="M1166.29,50.5a2.43,2.43,0,0,1,.26-.29.61.61,0,0,1,.73,0,.69.69,0,0,1,.27.93c-.3.27-.52.23-.86,0S1166.29,50.5,1166.29,50.5Z"/><path class="cls-40" d="M1167.49,51.13a.65.65,0,0,0-.26-.89.6.6,0,0,0-.71,0l-.24.26a.06.06,0,0,1,0,0,2.43,2.43,0,0,1,.26-.29.61.61,0,0,1,.73,0,.69.69,0,0,1,.27.93.86.86,0,0,1-.22.15Z"/><path class="cls-41" d="M1167.6,49.32c.52-.34,1-.57,1-.45a1.94,1.94,0,0,1-.36,1.3C1168.75,49.27,1168,49.13,1167.6,49.32Z"/><path class="cls-41" d="M1168.29,50.09l0-.05Z"/><path class="cls-38" d="M1166.93,50.68a.35.35,0,0,1,.06.49l-.07.06a.85.85,0,0,1-.22-.13,1.36,1.36,0,0,1-.3-.26.24.24,0,0,1,0-.1A.35.35,0,0,1,1166.93,50.68Z"/><path class="cls-27" d="M1166.5,50.66c0,.08.15.11.28.06s.2-.15.17-.23-.15-.11-.28-.07S1166.47,50.57,1166.5,50.66Z"/><path class="cls-27" d="M1167.06,51.11s.1,0,.13-.09,0-.14,0-.16-.1,0-.13.09S1167,51.09,1167.06,51.11Z"/></g></g></svg>