<svg xmlns="http://www.w3.org/2000/svg" width="17" height="17" viewBox="0 0 17 17">
  <g fill="none" fill-rule="evenodd" transform="translate(-2 -2)">
    <polygon points="0 0 21.6 0 21.6 21.6 0 21.6"/>
    <path fill="#005263" fill-rule="nonzero" d="M18.9000008,14.7780006 L18.9000008,17.9604007 C18.9002149,18.4331657 18.534606,18.8255072 18.0630007,18.8586007 C17.6697007,18.8856008 17.3484007,18.9000008 17.1000007,18.9000008 C9.14670036,18.9000008 2.70000011,12.4533005 2.70000011,4.50000018 C2.70000011,4.25160017 2.71350011,3.93030016 2.74140011,3.53700014 C2.77449361,3.06539482 3.16683518,2.69978594 3.63960014,2.69999987 L6.82200027,2.69999987 C7.05327691,2.69976594 7.24707273,2.87488264 7.27020029,3.10500012 C7.29090029,3.31200013 7.30980029,3.47670014 7.32780029,3.60180014 C7.50666111,4.85003107 7.87320284,6.06404884 8.41500033,7.20270029 C8.50050034,7.38270029 8.44470034,7.5978003 8.28270033,7.71300031 L6.34050025,9.10080036 C7.52800831,11.8678067 9.73309415,14.0728925 12.5001005,15.2604006 L13.8861006,13.3218005 C14.003011,13.1583566 14.2200807,13.1019109 14.4018006,13.1877005 C15.54032,13.7284796 16.7540222,14.0941074 18.0018007,14.2722006 C18.1269007,14.2902006 18.2916007,14.3100006 18.4968007,14.3298006 C18.7265616,14.3533589 18.9011815,14.5470353 18.9009011,14.7780006 L18.9000008,14.7780006 Z"/>
  </g>
</svg>
