<?xml version="1.0" encoding="utf-8"?>
<!-- Generator: Adobe Illustrator 22.0.1, SVG Export Plug-In . SVG Version: 6.00 Build 0)  -->
<svg version="1.1" id="Layer_1" xmlns="http://www.w3.org/2000/svg" xmlns:xlink="http://www.w3.org/1999/xlink" x="0px" y="0px"
	 viewBox="0 0 25 25" style="enable-background:new 0 0 25 25;" xml:space="preserve">
<style type="text/css">
	.st0{fill:#005263;stroke:#005263;stroke-width:0.5;}
</style>
<path class="st0" d="M22.4,18.7c-0.2-0.4-0.7-0.5-1.1-0.3c-0.4,0.2-0.9,0.4-1.5,0.7c-0.5-0.8-1.2-2.1-1.7-3.8
	c0.3-0.1,0.5-0.4,0.5-0.8v-0.4c0-0.5-0.4-0.9-0.9-0.9h-0.1c0-0.1,0-0.3-0.1-0.5c0-0.2,0-0.5,0-0.8H18c0.4,0,0.7-0.3,0.7-0.7
	s-0.3-0.7-0.7-0.7H8.8C8.5,7.2,7.1,4.6,6.3,3.3C6,3,5.6,2.9,5.3,3.1c-0.3,0.2-0.4,0.7-0.2,1C6,5.5,7.6,8.5,7.5,12.4
	c-0.1,3.1-1.1,5.4-2,6.9c0,0,0,0.1-0.1,0.2c-0.7-0.3-1.2-0.5-1.7-0.7c-0.4-0.2-0.8,0-1.1,0.3c-0.2,0.4,0,0.8,0.3,0.9
	c2,0.9,5.3,2.1,9.3,2.1c0.1,0,0.2,0,0.3,0c4.2,0,7.5-1.3,9.6-2.3C22.5,19.5,22.6,19.1,22.4,18.7z M16.2,12.8c0,0.1,0,0.3,0.1,0.5
	h-1.5v-1.3h1.3C16.1,12.2,16.2,12.5,16.2,12.8z M10.9,13.2v-1.3h1.2v1.3H10.9z M12.9,11.9h1.2v1.3h-1.2V11.9z M8.9,12.5
	c0-0.2,0-0.4,0-0.5h1.3v1.3H8.8C8.8,13,8.9,12.7,8.9,12.5z M12.5,20.6c-2.2,0-4.1-0.3-5.8-0.8c0.6-1,1.2-2.4,1.6-4.1h8.4
	c0.5,1.6,1.2,2.9,1.7,3.8C16.9,20.1,14.9,20.5,12.5,20.6z"/>
</svg>
