<?xml version="1.0" encoding="UTF-8"?>
<svg width="40px" height="40px" viewBox="0 0 40 40" version="1.1" xmlns="http://www.w3.org/2000/svg" xmlns:xlink="http://www.w3.org/1999/xlink">
    <!-- Generator: Sketch 57.1 (83088) - https://sketch.com -->
    <title>Group 78</title>
    <desc>Created with Sketch.</desc>
    <g id="reports" stroke="none" stroke-width="1" fill="none" fill-rule="evenodd">
        <g id="21..-Report-(pre--retirement-corpus)-Copy-3" transform="translate(-18.000000, -625.000000)">
            <g id="Group-78" transform="translate(18.000000, 625.000000)">
                <g id="Group-34">
                    <circle id="Oval-Copy" fill="#65D48E" opacity="0.120419457" cx="20" cy="20" r="20"></circle>
                    <circle id="Oval-Copy-5" fill="#65D48E" opacity="0.232538132" cx="20" cy="20" r="16.8421053"></circle>
                    <g id="Group-11-Copy" transform="translate(6.315789, 7.200000)">
                        <circle id="Oval" fill="#005263" opacity="0.52" cx="1.05263158" cy="11.3263158" r="1.05263158"></circle>
                        <circle id="Oval-Copy-10" fill="#005263" opacity="0.52" cx="9.6" cy="0.8" r="1"></circle>
                        <circle id="Oval-Copy-2" fill="#005263" opacity="0.523809524" cx="22.1052632" cy="1.85263158" r="1.05263158"></circle>
                        <circle id="Oval-Copy-36" fill="#47A395" opacity="0.287252604" cx="22.8842105" cy="23.1789474" r="1"></circle>
                    </g>
                </g>
                <g id="Group" transform="translate(9.000000, 13.000000)" fill="#005263" fill-rule="nonzero">
                    <path d="M16.3875,0.225 L6.6125,0.225 C3.04270833,0.225 0.119791667,3.25 0.119791667,7 C0.119791667,10.75 3.04270833,13.775 6.6125,13.775 L16.3635417,13.775 C19.9572917,13.775 22.85625,10.725 22.85625,7 C22.85625,3.275 19.9572917,0.225 16.3875,0.225 Z M16.3875,12.425 L6.6125,12.425 C3.7375,12.425 1.41354167,10 1.41354167,7 C1.41354167,4 3.7375,1.575 6.6125,1.575 L16.3635417,1.575 C19.2385417,1.575 21.5625,4 21.5625,7 C21.5625,10 19.2625,12.425 16.3875,12.425 Z" id="Shape"></path>
                    <path d="M18.1125,6.15 L17.1541667,6 L16.7229167,5.075 C16.675,5 16.603125,4.925 16.5072917,4.925 C16.4114583,4.925 16.3395833,4.975 16.2916667,5.075 L15.8604167,6 L14.8541667,6.125 C14.7583333,6.15 14.6864583,6.2 14.6625,6.3 C14.6385417,6.4 14.6625,6.5 14.734375,6.55 L15.4291667,7.275 L15.2614583,8.3 C15.2375,8.4 15.2854167,8.475 15.3572917,8.55 C15.4291667,8.6 15.525,8.625 15.596875,8.575 L16.459375,8.1 L17.3458333,8.575 C17.3697917,8.6 17.4177083,8.6 17.465625,8.6 C17.5135417,8.6 17.5614583,8.575 17.609375,8.55 C17.68125,8.5 17.7291667,8.4 17.7052083,8.3 L17.5375,7.3 L18.25625,6.575 C18.328125,6.5 18.3520833,6.4 18.328125,6.325 C18.2802083,6.225 18.2083333,6.15 18.1125,6.15 Z" id="Path"></path>
                    <path d="M13.1291667,6.15 L12.1708333,6 L11.7395833,5.075 C11.6916667,5 11.6197917,4.925 11.5239583,4.925 C11.428125,4.925 11.35625,4.975 11.3083333,5.075 L10.8770833,6 L9.89479167,6.15 C9.79895833,6.175 9.72708333,6.225 9.703125,6.325 C9.67916667,6.425 9.703125,6.525 9.775,6.575 L10.4697917,7.3 L10.3020833,8.325 C10.278125,8.425 10.3260417,8.5 10.3979167,8.575 C10.4697917,8.625 10.565625,8.65 10.6375,8.6 L11.5,8.125 L12.3864583,8.6 C12.4104167,8.625 12.4583333,8.625 12.50625,8.625 C12.5541667,8.625 12.6020833,8.6 12.65,8.575 C12.721875,8.525 12.7697917,8.425 12.7458333,8.325 L12.578125,7.325 L13.296875,6.6 C13.36875,6.525 13.3927083,6.425 13.36875,6.35 C13.296875,6.225 13.225,6.15 13.1291667,6.15 Z" id="Path"></path>
                    <path d="M8.14583333,6.15 L7.16354167,6 L6.73229167,5.075 C6.684375,5 6.6125,4.925 6.51666667,4.925 C6.42083333,4.925 6.34895833,4.975 6.30104167,5.075 L5.86979167,6 L4.8875,6.15 C4.79166667,6.175 4.71979167,6.225 4.69583333,6.325 C4.671875,6.425 4.69583333,6.525 4.76770833,6.575 L5.4625,7.3 L5.27083333,8.3 C5.246875,8.4 5.29479167,8.475 5.36666667,8.55 C5.43854167,8.6 5.534375,8.625 5.60625,8.575 L6.46875,8.1 L7.35520833,8.575 C7.37916667,8.6 7.42708333,8.6 7.475,8.6 C7.52291667,8.6 7.57083333,8.575 7.61875,8.55 C7.690625,8.5 7.73854167,8.4 7.71458333,8.3 L7.546875,7.3 L8.265625,6.575 C8.3375,6.5 8.36145833,6.4 8.3375,6.325 C8.31354167,6.225 8.24166667,6.15 8.14583333,6.15 Z" id="Path"></path>
                </g>
            </g>
        </g>
    </g>
</svg>