<?xml version="1.0" encoding="UTF-8"?>
<svg width="40px" height="40px" viewBox="0 0 40 40" version="1.1" xmlns="http://www.w3.org/2000/svg" xmlns:xlink="http://www.w3.org/1999/xlink">
    <!-- Generator: Sketch 56.3 (81716) - https://sketch.com -->
    <title>Group 14</title>
    <desc>Created with Sketch.</desc>
    <g id="New-UI" stroke="none" stroke-width="1" fill="none" fill-rule="evenodd">
        <g id="1.-Report-(about-you)" transform="translate(-15.000000, -368.000000)">
            <g id="Group-14" transform="translate(15.000000, 368.000000)">
                <g id="Group-11-Copy-2" transform="translate(6.000000, 9.000000)">
                    <circle id="Oval" fill="#005263" opacity="0.52" cx="1.05263158" cy="11.3263158" r="1.05263158"></circle>
                    <circle id="Oval-Copy-10" fill="#005263" opacity="0.52" cx="9.6" cy="0.8" r="1"></circle>
                    <circle id="Oval-Copy-2" fill="#005263" opacity="0.523809524" cx="22.1052632" cy="1.85263158" r="1.05263158"></circle>
                    <circle id="Oval-Copy-36" fill="#47A395" opacity="0.287252604" cx="22.8842105" cy="23.1789474" r="1"></circle>
                </g>
                <g id="Group-18" fill="#65D48E">
                    <circle id="Oval-Copy-8" opacity="0.120419457" cx="20" cy="20" r="20"></circle>
                    <circle id="Oval-Copy-9" opacity="0.232538132" cx="20" cy="20" r="16.8421053"></circle>
                </g>
                <g id="Group" transform="translate(11.000000, 11.000000)" fill="#005263" fill-rule="nonzero">
                    <path d="M5.17391304,19.5275563 L4.78125,15.4607156 C4.76091652,15.2821378 4.59391739,15.1325637 4.41457183,15.1323007 L1.51002042,15.1323007 L1.51002042,11.3953215 C1.51000105,11.2014015 1.33395378,11.0249704 1.1404552,11.0249511 L0.311820652,11.0249511 L2.7486413,6.16962741 C2.76631022,6.13516815 2.77853839,6.0979163 2.78473157,6.05967333 C3.3533908,2.322044 6.80811196,-0.220872667 10.5484882,0.347868074 C14.2788832,0.914979185 16.8114574,4.35312733 16.2608696,8.07934963 L13.012738,15.1887244 C12.9865875,15.2463763 12.9760623,15.3107763 12.9809775,15.3739096 L13.3043478,19.5275563 L5.17391304,19.5275563 Z M9.68953804,1.74977778 C9.49603961,1.74977778 9.31997262,1.926228 9.31997262,2.12014815 L9.31997262,6.19422222 C9.31983017,6.32364815 9.39291761,6.4506837 9.50475543,6.51540296 L13.0257304,8.55244 C13.1931464,8.64981926 13.433893,8.58571407 13.5309955,8.41789111 C14.3229442,7.04322444 14.3229442,5.34666667 13.5309955,3.972 C12.7390712,2.59740741 11.2734,1.74977778 9.68953804,1.74977778 Z M8.64003048,1.88572503 L8.64003048,1.88721763 C8.60692483,1.88712563 8.57381178,1.89152133 8.54186509,1.90023837 C7.21036743,2.25779393 6.12008352,3.21653467 5.59256096,4.49283096 C5.06503765,5.76912726 5.16028422,7.21862504 5.84952409,8.41499541 C5.94191317,8.59095689 6.18975248,8.6627043 6.36153526,8.56321911 C6.53331804,8.46373319 6.59503987,8.212708 6.48904561,8.04462504 C5.91439535,7.04714356 5.83557152,5.84054356 6.27539035,4.77639578 C6.71520843,3.7123217 7.62229,2.9144583 8.73242178,2.61638422 C9.082862,2.53245496 9.00028339,1.87943585 8.64003048,1.88572503 L8.64003048,1.88572503 Z M10.0591033,2.59034489 C11.225494,2.71501156 12.2956218,3.31059259 12.8900305,4.34237037 C13.484522,5.3742963 13.4638588,6.60103704 12.9881966,7.6757037 L10.0591033,5.98154889 L10.0591033,2.59034489 Z M12.5594433,8.70000889 C12.4728054,8.70223111 12.387325,8.73618667 12.3226902,8.79404889 C12.3156685,8.80056741 12.3089498,8.80729333 12.3024824,8.81430074 C11.7825795,9.3353563 11.124514,9.68364444 10.4142355,9.82558593 C10.1774728,9.87290148 9.93461965,9.89792593 9.68953804,9.89792593 C8.70921087,9.89792593 7.76980122,9.5090437 7.07659665,8.81430296 C7.00790187,8.74314741 6.90976604,8.7014563 6.81097165,8.7014563 C6.51869657,8.7015163 6.34398609,9.13432593 6.55400852,9.33803037 C7.38562783,10.1714378 8.51346843,10.6386667 9.68953804,10.6386667 C10.8656077,10.6386667 11.9934483,10.1714378 12.8250676,9.33803037 C13.0393799,9.13272444 12.8558006,8.69178148 12.5594433,8.70000889 L12.5594433,8.70000889 Z" id="Shape"></path>
                </g>
            </g>
        </g>
    </g>
</svg>