<?xml version="1.0" encoding="UTF-8"?>
<svg width="15px" height="47px" viewBox="0 0 15 47" version="1.1" xmlns="http://www.w3.org/2000/svg" xmlns:xlink="http://www.w3.org/1999/xlink">
    <!-- Generator: Sketch 58 (84663) - https://sketch.com -->
    <title>Group 10 Copy</title>
    <desc>Created with Sketch.</desc>
    <g id="reports" stroke="none" stroke-width="1" fill="none" fill-rule="evenodd">
        <g id="Group-10-Copy" fill-rule="nonzero">
            <path d="M7.75249941,1.08773419 C7.55671838,-0.362578062 5.4764059,-0.362578062 5.28062488,1.08773419 L0.340156294,37.7666377 C1.20531255,35.1646066 3.64109368,33.286638 6.51656214,33.286638 C9.3920306,33.286638 11.8267181,35.1646066 12.6918743,37.7666377 L7.75249941,1.08773419 Z" id="Path" fill="#BBBBBB"></path>
            <path d="M14.2134361,39.5746062 C14.2134361,43.1730433 11.295311,46.0911684 7.69687392,46.0911684 C4.09843684,46.0911684 1.18031178,43.1730433 1.18031178,39.5746062 C1.18031178,35.9761692 4.09843684,33.0580441 7.69687392,33.0580441 C11.295311,33.0580441 14.2134361,35.9761692 14.2134361,39.5746062 Z" id="Path" fill="#343636"></path>
            <path d="M9.32749929,39.5746062 C9.32749929,37.8038251 10.0340619,36.1992939 11.1803118,35.0257003 C9.99687451,33.8127317 8.345312,33.0580441 6.51656214,33.0580441 C2.91812506,33.0580441 2.42472709e-13,35.9761692 2.42472709e-13,39.5746062 C2.42472709e-13,43.1730433 2.91812506,46.0911684 6.51656214,46.0911684 C8.345312,46.0911684 9.99687451,45.3364808 11.1803118,44.1235122 C10.0340619,42.9499186 9.32749929,41.3453874 9.32749929,39.5746062 L9.32749929,39.5746062 Z" id="Path" fill="#4C4E4D"></path>
        </g>
    </g>
</svg>