<svg width="25" height="32" viewBox="0 0 25 32" fill="none" xmlns="http://www.w3.org/2000/svg">
<g clip-path="url(#clip0_36_3924)">
<path d="M0 0H22.71V31.65H0V0Z" fill="#042b62"/>
<path d="M3.15055 9.66638e-10H23.6905C23.977 9.66638e-10 24.2517 0.113785 24.4542 0.316325C24.6568 0.518864 24.7705 0.793566 24.7705 1.08V30.57C24.7705 30.8564 24.6568 31.1311 24.4542 31.3337C24.2517 31.5362 23.977 31.65 23.6905 31.65H3.15055C3.00788 31.6513 2.86637 31.6244 2.73418 31.5707C2.60199 31.517 2.48175 31.4377 2.3804 31.3372C2.27905 31.2368 2.1986 31.1173 2.1437 30.9856C2.0888 30.8539 2.06054 30.7127 2.06055 30.57V1.08C2.06318 0.79265 2.17919 0.517967 2.38331 0.31571C2.58744 0.113453 2.86319 -1.20926e-05 3.15055 9.66638e-10Z" fill="#042b62"/>
<path d="M20.2995 23.3002H6.53945C6.45467 23.301 6.37246 23.2711 6.30809 23.2159C6.24372 23.1607 6.20156 23.0841 6.18945 23.0002C6.19206 22.9091 6.23008 22.8226 6.29544 22.7591C6.36079 22.6956 6.44833 22.6601 6.53945 22.6602H20.2995C20.3896 22.6602 20.4761 22.696 20.5399 22.7597C20.6036 22.8235 20.6395 22.91 20.6395 23.0002C20.6276 23.0824 20.5869 23.1577 20.5246 23.2127C20.4623 23.2676 20.3825 23.2986 20.2995 23.3002Z" fill="white"/>
<path d="M20.2995 26.0504H6.53945C6.44833 26.0504 6.36079 26.0149 6.29544 25.9514C6.23008 25.8879 6.19206 25.8014 6.18945 25.7104C6.18945 25.6175 6.22633 25.5285 6.29197 25.4629C6.3576 25.3972 6.44663 25.3604 6.53945 25.3604H20.2995C20.3905 25.363 20.477 25.401 20.5405 25.4663C20.604 25.5317 20.6395 25.6192 20.6395 25.7104C20.6395 25.8005 20.6036 25.887 20.5399 25.9508C20.4761 26.0145 20.3896 26.0504 20.2995 26.0504Z" fill="white"/>
<path d="M13.4196 17.6996C16.772 17.6996 19.4896 14.9819 19.4896 11.6296C19.4896 8.2772 16.772 5.55957 13.4196 5.55957C10.0672 5.55957 7.34961 8.2772 7.34961 11.6296C7.34961 14.9819 10.0672 17.6996 13.4196 17.6996Z" fill="#E2E2E2"/>
<path d="M13.9999 9.80984H9.77992C9.70029 9.80852 9.62119 9.82306 9.54724 9.85261C9.47329 9.88217 9.40596 9.92616 9.34918 9.982C9.2924 10.0379 9.24731 10.1044 9.21653 10.1779C9.18576 10.2514 9.16991 10.3302 9.16992 10.4098V12.2398C9.16991 12.3195 9.18576 12.3983 9.21653 12.4718C9.24731 12.5452 9.2924 12.6118 9.34918 12.6677C9.40596 12.7235 9.47329 12.7675 9.54724 12.7971C9.62119 12.8266 9.70029 12.8412 9.77992 12.8398H13.9999L16.9999 14.0598V8.58984L13.9999 9.80984Z" fill="white"/>
<path d="M11.6006 15.8798H11.0006C10.8388 15.8798 10.6837 15.8156 10.5693 15.7012C10.4549 15.5868 10.3906 15.4316 10.3906 15.2698V12.8398H12.2006V15.2698C12.202 15.3495 12.1874 15.4286 12.1579 15.5025C12.1283 15.5765 12.0843 15.6438 12.0285 15.7006C11.9726 15.7574 11.906 15.8025 11.8326 15.8332C11.7591 15.864 11.6803 15.8799 11.6006 15.8798Z" fill="white"/>
</g>
<defs>
<clipPath id="clip0_36_3924">
<rect width="24.77" height="31.65" fill="white"/>
</clipPath>
</defs>
</svg>
