<svg xmlns="http://www.w3.org/2000/svg" width="20" height="67" viewBox="0 0 20 67">
  <g fill="none" transform="translate(.64 .865)">
    <path fill="#65D48E" d="M11.0749993,1.55390601 C10.7953122,-0.517968669 7.82343713,-0.517968669 7.54374995,1.55390601 L0.485937571,53.9523405 C1.7218751,50.2351531 5.20156249,47.5523409 9.30937465,47.5523409 C13.4171868,47.5523409 16.8953118,50.2351531 18.1312493,53.9523405 L11.0749993,1.55390601 Z"/>
    <path fill="#3D7271" d="M18.6187493,56.5351527 C18.6187493,61.6757772 14.4499991,65.8445274 9.30937465,65.8445274 C4.16875015,65.8445274 1.53299595e-12,61.6757772 1.53299595e-12,56.5351527 C1.53299595e-12,51.3945282 4.16875015,47.2257781 9.30937465,47.2257781 C14.4499991,47.2257781 18.6187493,51.3945282 18.6187493,56.5351527 Z"/>
    <path fill="#244E34" d="M13.3249992,56.5351527 C13.3249992,54.0054653 14.3343743,51.7132778 15.9718742,50.0367155 C14.2812495,48.3039032 11.9218745,47.2257781 9.30937465,47.2257781 C4.16875015,47.2257781 7.68274333e-13,51.3945282 7.68274333e-13,56.5351527 C7.68274333e-13,61.6757772 4.16875015,65.8445274 9.30937465,65.8445274 C11.9218745,65.8445274 14.2812495,64.7664022 15.9718742,63.0335899 C14.3343743,61.3570276 13.3249992,59.0648402 13.3249992,56.5351527 L13.3249992,56.5351527 Z"/>
  </g>
</svg>
