<?xml version="1.0" encoding="UTF-8"?>
<svg width="40px" height="40px" viewBox="0 0 40 40" version="1.1" xmlns="http://www.w3.org/2000/svg" xmlns:xlink="http://www.w3.org/1999/xlink">
    <!-- Generator: Sketch 56.3 (81716) - https://sketch.com -->
    <title>Group 17</title>
    <desc>Created with Sketch.</desc>
    <g id="New-UI" stroke="none" stroke-width="1" fill="none" fill-rule="evenodd">
        <g id="2.-Report-(scope-of-services)" transform="translate(-295.000000, -1062.000000)">
            <g id="Group-17" transform="translate(295.000000, 1062.000000)">
                <g id="Group-5-Copy-4">
                    <g id="Group-3">
                        <circle id="Oval-Copy" fill="#65D48E" opacity="0.120419457" cx="20" cy="20" r="20"></circle>
                        <circle id="Oval-Copy-5" fill="#65D48E" opacity="0.232538132" cx="20" cy="20" r="16.8421053"></circle>
                        <circle id="Oval" fill="#005263" opacity="0.52" cx="7.36842105" cy="20.5263158" r="1.05263158"></circle>
                        <circle id="Oval-Copy-2" fill="#005263" opacity="0.523809524" cx="28.4210526" cy="11.0526316" r="1.05263158"></circle>
                    </g>
                    <circle id="Oval-Copy-10" fill="#005263" opacity="0.52" cx="15.9157895" cy="10" r="1"></circle>
                </g>
                <g id="Group" transform="translate(13.000000, 12.000000)" fill="#005263" fill-rule="nonzero">
                    <path d="M7.00002846,8.52256209 C9.57702439,8.52243137 10.5042114,6.15179085 10.7469919,4.20447059 C11.046,1.8054902 9.81135366,0 7.00002846,0 C4.18915854,0 2.95382927,1.80535948 3.25306504,4.20444444 C3.49607317,6.15173856 4.42297561,8.5227451 7.00002846,8.52256209 Z" id="Path"></path>
                    <path d="M13.9710041,14.1675294 C13.9428333,13.4118693 13.8464553,12.6527843 13.7029268,11.9088889 C13.5290366,11.0077386 13.3077114,9.68661438 12.451378,9.09934641 C11.9561423,8.75979085 11.3148455,8.64839216 10.7479024,8.44363399 C10.4719715,8.34402614 10.2247805,8.24509804 9.99278455,8.13249673 C9.20975203,8.92141176 8.18871951,9.33411765 6.99968699,9.33416993 C5.81099593,9.33416993 4.79007724,8.92146405 4.00713008,8.13249673 C3.77513415,8.24512418 3.52794309,8.34407843 3.2520122,8.44363399 C2.68506911,8.64839216 2.04377236,8.75976471 1.5485935,9.09934641 C0.692203252,9.68661438 0.470906504,11.0077386 0.297044715,11.9088889 C0.153487805,12.6527843 0.0570813008,13.4118693 0.0289390244,14.1675294 C0.00714227642,14.7528105 0.321686992,14.8348497 0.854626016,15.0115556 C1.5219878,15.2326797 2.21097561,15.3968366 2.90457317,15.5313987 C4.2441626,15.7912941 5.62498374,15.9910588 6.99988618,16 C8.37478862,15.9910327 9.75560976,15.7912941 11.0951992,15.5313987 C11.7887967,15.3968889 12.4778415,15.232732 13.1451463,15.0115556 C13.6782846,14.834902 13.9928008,14.7528627 13.9710041,14.1675294 Z" id="Path"></path>
                </g>
            </g>
        </g>
    </g>
</svg>