<svg width="67" height="67" viewBox="0 0 67 67" fill="none" xmlns="http://www.w3.org/2000/svg">
<g clip-path="url(#clip0_39_65)">
<path d="M33.28 66.56C51.66 66.56 66.56 51.66 66.56 33.28C66.56 14.9 51.66 0 33.28 0C14.9 0 0 14.9 0 33.28C0 51.66 14.9 66.56 33.28 66.56Z" fill="#F4F4F4"/>
<path d="M40.9851 21.8438V25.3172H23.0039V21.8438C23.0039 21.3974 23.1831 20.9697 23.5014 20.6569C23.8198 20.344 24.2505 20.1722 24.6967 20.1799L24.6967 20.18H24.6989H39.3213C40.2402 20.18 40.9851 20.9249 40.9851 21.8438Z" fill="#E2E2E2" stroke="#939393" stroke-width="0.25"/>
<path d="M43.2232 48.9258C43.2232 49.2359 42.9717 49.4874 42.6616 49.4874H21.3624C21.0522 49.4874 20.8008 49.2359 20.8008 48.9258V39.6802C20.8008 37.7062 21.5856 35.8132 22.9824 34.4184C24.3792 33.0236 26.2732 32.2414 28.2472 32.2441H35.7872C39.894 32.2441 43.2232 35.5734 43.2232 39.6802V48.9258Z" fill="#042b62"/>
<path d="M35.787 32.2549H33.707C37.7993 32.272 41.1108 35.5882 41.1222 39.6805V49.4773H42.6406C42.9508 49.4773 43.2022 49.2258 43.2022 48.9157V39.6805C43.1965 35.5859 39.8816 32.2663 35.787 32.2549Z" fill="#042b62"/>
<path d="M45.3448 49.4877H40.2383C39.8133 49.4877 39.4688 49.1431 39.4688 48.7181V48.0733C39.4688 47.6483 39.8133 47.3037 40.2383 47.3037H45.3448C45.7698 47.3037 46.1144 47.6483 46.1144 48.0733V48.7181C46.1144 49.1431 45.7698 49.4877 45.3448 49.4877Z" fill="#EAEAEA" stroke="#939393" stroke-width="0.25"/>
<path d="M45.2933 47.3037H43.8789C44.3027 47.2674 44.6775 47.5774 44.7213 48.0005V48.7389C44.6881 49.1616 44.3231 49.4804 43.8997 49.4565H45.3141C45.7375 49.4804 46.1025 49.1616 46.1357 48.7389V48.0005C46.0919 47.5774 45.7171 47.2674 45.2933 47.3037Z" fill="#E2E2E2"/>
<path d="M45.3448 47.3032H40.2383C39.8133 47.3032 39.4688 46.9586 39.4688 46.5336V45.92C39.4688 45.495 39.8133 45.1504 40.2383 45.1504H45.3448C45.7698 45.1504 46.1144 45.495 46.1144 45.92V46.5648C46.0976 46.9776 45.7579 47.3035 45.3448 47.3032Z" fill="#EAEAEA" stroke="#939393" stroke-width="0.25"/>
<path d="M45.2933 45.1194H43.8789C44.3061 45.0957 44.6726 45.4205 44.7005 45.8474V46.5858C44.6673 47.0086 44.3023 47.3273 43.8789 47.3034H45.2933C45.7167 47.3273 46.0817 47.0086 46.1149 46.5858V45.8474C46.087 45.4205 45.7205 45.0957 45.2933 45.1194Z" fill="#E2E2E2"/>
<path d="M45.3448 45.1195H40.2383C39.8133 45.1195 39.4688 44.775 39.4688 44.3499V43.7051C39.4688 43.2801 39.8133 42.9355 40.2383 42.9355H45.3448C45.7698 42.9355 46.1144 43.2801 46.1144 43.7051V44.3499C46.1144 44.775 45.7698 45.1195 45.3448 45.1195Z" fill="#EAEAEA" stroke="#939393" stroke-width="0.25"/>
<path d="M45.2933 42.9358H43.8789C44.3061 42.9121 44.6726 43.2369 44.7005 43.6638V44.4022C44.6673 44.825 44.3023 45.1437 43.8789 45.1198H45.2933C45.7167 45.1437 46.0817 44.825 46.1149 44.4022V43.6638C46.087 43.2369 45.7205 42.9121 45.2933 42.9358Z" fill="#E2E2E2"/>
<path d="M43.807 42.935H38.711C38.286 42.935 37.9414 42.5904 37.9414 42.1654V41.5206C37.9414 41.0955 38.286 40.751 38.711 40.751H43.807C44.232 40.751 44.5766 41.0955 44.5766 41.5206V42.1654C44.5766 42.5904 44.232 42.935 43.807 42.935Z" fill="#EAEAEA" stroke="#939393" stroke-width="0.25"/>
<path d="M43.7517 40.7206H42.3477C42.7748 40.6969 43.1414 41.0217 43.1693 41.4486V42.187C43.136 42.6098 42.7711 42.9285 42.3477 42.9046H43.7517C43.9559 42.9188 44.1574 42.8512 44.3116 42.7165C44.4657 42.5818 44.5599 42.3913 44.5733 42.187V41.4486C44.5626 41.2424 44.4696 41.0492 44.3151 40.9123C44.1606 40.7755 43.9576 40.7064 43.7517 40.7206Z" fill="#E2E2E2"/>
<path d="M39.1787 49.498C40.8674 49.498 42.2363 48.1291 42.2363 46.4404C42.2363 44.7517 40.8674 43.3828 39.1787 43.3828C37.49 43.3828 36.1211 44.7517 36.1211 46.4404C36.1211 48.1291 37.49 49.498 39.1787 49.498Z" fill="#EAEAEA" stroke="#939393" stroke-width="0.25"/>
<path d="M39.1785 43.3822C38.937 43.3829 38.6963 43.4108 38.4609 43.4654C39.8278 43.8014 40.7886 45.0271 40.7886 46.4346C40.7886 47.8421 39.8278 49.0678 38.4609 49.4038C38.6963 49.4583 38.937 49.4862 39.1785 49.487C40.3116 49.5531 41.388 48.9863 41.9745 48.0146C42.561 47.0429 42.561 45.8263 41.9745 44.8546C41.388 43.8829 40.3116 43.316 39.1785 43.3822Z" fill="#E2E2E2"/>
<path d="M32.0113 38.1824C31.2896 38.1824 30.5976 37.895 30.0883 37.3837C29.5789 36.8724 29.2941 36.1793 29.2969 35.4576V32.7432H34.7361V35.4576C34.7361 36.9624 33.5162 38.1824 32.0113 38.1824Z" fill="white"/>
<path d="M24.7617 21.303V27.543C25.1094 31.2867 28.2507 34.1497 32.0105 34.1497C35.7703 34.1497 38.9116 31.2867 39.2593 27.543V21.303C39.2593 18.816 37.2432 16.7998 34.7561 16.7998H29.2649C26.7779 16.7998 24.7617 18.816 24.7617 21.303Z" fill="white"/>
<path d="M34.756 16.8002H33.0608C35.5479 16.8002 37.564 18.8164 37.564 21.3034V27.5434C37.5722 31.2164 34.843 34.3201 31.1992 34.7818C31.4798 34.7974 31.761 34.7974 32.0416 34.7818C36.0623 34.7818 39.3216 31.5225 39.3216 27.5018V21.2618C39.3107 20.0639 38.8228 18.9196 37.966 18.0823C37.1091 17.245 35.9539 16.7836 34.756 16.8002Z" fill="#EAEAEA"/>
<path d="M24.7627 26.8983H23.6083C22.8042 26.8983 22.1523 26.2465 22.1523 25.4423C22.1523 24.6382 22.8042 23.9863 23.6083 23.9863H24.7627V26.8983Z" fill="#EAEAEA"/>
<path d="M39.2617 26.8983H40.4265C41.2306 26.8983 41.8825 26.2465 41.8825 25.4423C41.8825 24.6382 41.2306 23.9863 40.4265 23.9863H39.2617V26.8983Z" fill="#EAEAEA"/>
<path d="M32.0104 35.9367C30.9283 35.9395 29.8898 35.5108 29.1246 34.7457C28.3595 33.9805 27.9308 32.942 27.9336 31.8599V30.5287C27.9336 29.5178 28.7531 28.6983 29.764 28.6983H34.2568C34.7441 28.6955 35.2123 28.8872 35.5578 29.2307C35.9034 29.5743 36.0976 30.0414 36.0976 30.5287V31.8599C36.0976 32.9429 35.6667 33.9815 34.8999 34.7463C34.1331 35.5112 33.0935 35.9395 32.0104 35.9367Z" fill="#ECF4FF"/>
<path d="M34.2597 28.6983H33.0013C34.0122 28.6983 34.8317 29.5178 34.8317 30.5287V31.8599C34.8261 33.8697 33.3637 35.5788 31.3789 35.8951C31.5901 35.9106 31.8021 35.9106 32.0133 35.8951C33.0963 35.8979 34.136 35.4696 34.9028 34.7047C35.6696 33.9399 36.1005 32.9013 36.1005 31.8183V30.5287C36.1005 30.0414 35.9062 29.5743 35.5607 29.2307C35.2152 28.8872 34.747 28.6955 34.2597 28.6983Z" fill="#DDEAFB"/>
<path d="M32.0113 31.3604C31.4711 31.3515 30.9445 31.1892 30.4929 30.8924C30.3782 30.8276 30.2954 30.7183 30.2639 30.5903C30.2324 30.4624 30.255 30.3271 30.3265 30.2164C30.4735 29.9845 30.7802 29.9148 31.0129 30.0604C31.6143 30.4862 32.4188 30.4862 33.0201 30.0604C33.2499 29.9168 33.5525 29.9867 33.6961 30.2164C33.8397 30.4462 33.7699 30.7488 33.5401 30.8924C33.0856 31.1911 32.5552 31.3535 32.0113 31.3604Z" fill="#EAEAEA"/>
<path d="M34.8417 19.8056H29.1841C28.8969 19.8056 28.6641 19.5728 28.6641 19.2856C28.6641 18.9984 28.8969 18.7656 29.1841 18.7656H34.8417C35.1289 18.7656 35.3617 18.9984 35.3617 19.2856C35.3617 19.5728 35.1289 19.8056 34.8417 19.8056Z" fill="#EAEAEA"/>
<path d="M33.5296 21.4805H30.5032C30.3681 21.4777 30.2395 21.4214 30.1459 21.3239C30.0523 21.2264 30.0012 21.0956 30.004 20.9605C30.0097 20.6888 30.2315 20.4716 30.5032 20.4717H33.5296C33.7996 20.4717 34.0184 20.6905 34.0184 20.9605C34.024 21.0947 33.9754 21.2254 33.8834 21.3233C33.7914 21.4211 33.6639 21.4778 33.5296 21.4805Z" fill="#EAEAEA"/>
<path d="M28.6945 27.2006C28.5631 27.2034 28.4361 27.1532 28.3421 27.0612C28.2482 26.9692 28.1953 26.8433 28.1953 26.7118V26.1606C28.1953 25.8734 28.4281 25.6406 28.7153 25.6406C29.0025 25.6406 29.2353 25.8734 29.2353 26.1606V26.6286C29.2629 26.7815 29.2162 26.9384 29.1095 27.0513C29.0027 27.1642 28.8487 27.2196 28.6945 27.2006Z" fill="#2B4D66"/>
<path d="M35.3625 27.1998C35.0908 27.1998 34.8689 26.9826 34.8633 26.711V26.1598C34.885 25.9004 35.1022 25.7012 35.3625 25.7022C35.6324 25.7022 35.8513 25.921 35.8513 26.191V26.659C35.8661 26.7973 35.8212 26.9355 35.7279 27.0387C35.6346 27.142 35.5017 27.2005 35.3625 27.1998Z" fill="#2B4D66"/>
</g>
<defs>
<clipPath id="clip0_39_65">
<rect width="67" height="67" fill="white"/>
</clipPath>
</defs>
</svg>
