<?xml version="1.0" encoding="UTF-8"?>
<svg id="Layer_1" xmlns="http://www.w3.org/2000/svg" viewBox="0 0 1080 1080">
  <defs>
    <style>
      .cls-1 {
        fill: #1f3060;
      }

      .cls-2 {
        fill: #fff;
      }

      .cls-3 {
        fill: #ccc;
      }

      .cls-4 {
        fill: #fbfcfc;
      }
    </style>
  </defs>
  <g id="_20._Tax">
    <circle class="cls-4" cx="524.9" cy="560.7" r="469.1"/>
    <path class="cls-3" d="M933.47,288.32v502.99c-120.1,212.81-383.46,297.78-605.28,195.28V167.26h484.23l121.06,121.06Z"/>
    <path class="cls-2" d="M842.68,424.51h-423.7c-8.36,0-15.13-6.77-15.13-15.13s6.77-15.13,15.13-15.13h423.7c8.36,0,15.13,6.77,15.13,15.13s-6.77,15.13-15.13,15.13Z"/>
    <path class="cls-2" d="M842.68,515.3h-423.7c-8.36,0-15.13-6.77-15.13-15.13s6.77-15.13,15.13-15.13h423.7c8.36,0,15.13,6.77,15.13,15.13s-6.77,15.13-15.13,15.13Z"/>
    <path class="cls-2" d="M842.68,606.1h-423.7c-8.36,0-15.13-6.77-15.13-15.13s6.77-15.13,15.13-15.13h423.7c8.36,0,15.13,6.77,15.13,15.13s-6.77,15.13-15.13,15.13Z"/>
    <path class="cls-2" d="M842.68,696.89h-423.7c-8.36,0-15.13-6.77-15.13-15.13s6.77-15.13,15.13-15.13h423.7c8.36,0,15.13,6.77,15.13,15.13s-6.77,15.13-15.13,15.13Z"/>
    <path class="cls-2" d="M842.68,787.68h-423.7c-8.36,0-15.13-6.77-15.13-15.13s6.77-15.13,15.13-15.13h423.7c8.36,0,15.13,6.77,15.13,15.13s-6.77,15.13-15.13,15.13Z"/>
    <path class="cls-2" d="M842.68,878.47h-423.7c-8.36,0-15.13-6.77-15.13-15.13s6.77-15.13,15.13-15.13h423.7c8.36,0,15.13,6.77,15.13,15.13s-6.77,15.13-15.13,15.13Z"/>
    <path class="cls-1" d="M555.17,530.44v498.38c-169.29,10.96-331.3-70.34-423.7-212.61v-285.77c0-25.07,20.32-45.4,45.4-45.4h332.91c25.07,0,45.4,20.32,45.4,45.4h0Z"/>
    <circle class="cls-1" cx="313.05" cy="227.79" r="166.45"/>
    <rect class="cls-3" x="192" y="545.57" width="302.64" height="121.06" rx="15.13" ry="15.13"/>
    <g>
      <rect class="cls-3" x="207.13" y="712.02" width="60.53" height="60.53" rx="7.57" ry="7.57"/>
      <rect class="cls-3" x="313.05" y="712.02" width="60.53" height="60.53" rx="7.57" ry="7.57"/>
      <rect class="cls-3" x="418.98" y="712.02" width="60.53" height="60.53" rx="7.57" ry="7.57"/>
      <rect class="cls-3" x="207.13" y="817.95" width="60.53" height="60.53" rx="7.57" ry="7.57"/>
      <path class="cls-3" d="M267.66,931.44v21.49c-13.73-8.96-26.97-18.66-39.65-29.05h32.08c4.18,0,7.57,3.39,7.57,7.57Z"/>
      <rect class="cls-3" x="313.05" y="817.95" width="60.53" height="60.53" rx="7.57" ry="7.57"/>
      <path class="cls-3" d="M373.58,931.44v45.4c0,4.18-3.39,7.57-7.57,7.57h-42.37c-3.4-1.51-6.73-3.18-10.06-4.92-.76-1.66-.53,1.29-.53-48.04,0-4.18,3.39-7.57,7.57-7.57h45.4c4.18,0,7.57,3.39,7.57,7.57Z"/>
      <rect class="cls-3" x="418.98" y="817.95" width="60.53" height="60.53" rx="7.57" ry="7.57"/>
      <rect class="cls-3" x="418.98" y="923.87" width="60.53" height="60.53" rx="7.57" ry="7.57"/>
    </g>
    <path class="cls-1" d="M933.47,288.32h-90.79c-16.71,0-30.26-13.55-30.26-30.26v-90.79l121.06,121.06Z"/>
    <path class="cls-2" d="M237.39,318.59c-8.36-.04-15.1-6.84-15.07-15.2.02-3.98,1.6-7.79,4.4-10.6l151.32-151.32c6.35-5.44,15.9-4.7,21.34,1.65,4.85,5.67,4.85,14.02,0,19.69l-151.32,151.32c-2.82,2.84-6.66,4.45-10.67,4.46Z"/>
    <path class="cls-2" d="M252.53,212.66c-25.07,0-45.4-20.32-45.4-45.4s20.32-45.4,45.4-45.4,45.4,20.32,45.4,45.4-20.32,45.4-45.4,45.4ZM252.53,152.13c-8.36,0-15.13,6.77-15.13,15.13s6.77,15.13,15.13,15.13,15.13-6.77,15.13-15.13-6.77-15.13-15.13-15.13Z"/>
    <path class="cls-2" d="M373.58,333.72c-25.07,0-45.4-20.32-45.4-45.4s20.32-45.4,45.4-45.4,45.4,20.32,45.4,45.4-20.32,45.4-45.4,45.4ZM373.58,273.19c-8.36,0-15.13,6.77-15.13,15.13s6.77,15.13,15.13,15.13,15.13-6.77,15.13-15.13-6.77-15.13-15.13-15.13Z"/>
    <circle class="cls-1" cx="139.04" cy="961.7" r="22.7"/>
    <circle class="cls-1" cx="910.77" cy="189.96" r="22.7"/>
    <circle class="cls-1" cx="880.51" cy="961.7" r="22.7"/>
    <circle class="cls-1" cx="169.3" cy="386.68" r="22.7"/>
  </g>
</svg>