<?xml version="1.0" encoding="UTF-8"?>
<svg id="Layer_1" data-name="Layer 1" xmlns="http://www.w3.org/2000/svg" viewBox="0 0 1080 1080">
  <defs>
    <style>
      .cls-1, .cls-2, .cls-3 {
        fill: #1f2f60;
      }

      .cls-4 {
        fill: #fff;
      }

      .cls-5 {
        fill: #ccc;
      }

      .cls-2 {
        opacity: .32;
      }

      .cls-6 {
        fill: #eaeaea;
      }

      .cls-7 {
        fill: #d8d9d8;
      }

      .cls-3 {
        opacity: .58;
      }
    </style>
  </defs>
  <path class="cls-1" d="M366.19,330.86l-100.03.14-.27-168.57c0-4.72,3.81-8.54,8.53-8.55l82.95-.12c4.72,0,8.54,3.81,8.55,8.53l.27,168.57Z"/>
  <path class="cls-5" d="M365.92,162.29c0-4.72-3.83-8.53-8.55-8.53l-49.46.07c4.39.35,7.85,3.98,7.86,8.46l.27,168.57-49.88.07v.07l100.03-.14-.27-168.57Z"/>
  <path class="cls-2" d="M531.61,150.7l-267.96,252.42.54,383.74c.01,10.12,8.23,18.32,18.36,18.3l499.96-.7c10.12-.01,18.32-8.23,18.3-18.36l-.54-383.74-268.66-251.68Z"/>
  <path class="cls-3" d="M800.27,402.38l-268.66-251.68-44.18,41.62,224.23,210.05.54,383.74c.01,10.12-8.18,18.34-18.3,18.36h88.62c10.12-.02,18.32-8.23,18.3-18.36l-.54-383.74Z"/>
  <path class="cls-1" d="M894.79,486.94c-9.05.01-18.11-3.29-25.24-9.96l-337.94-316.57L194.56,477.92c-14.81,13.96-38.14,13.26-52.09-1.55-13.96-14.81-13.26-38.13,1.55-52.09L506.27,83.03c14.16-13.34,36.26-13.37,50.46-.07l363.2,340.24c14.85,13.91,15.61,37.23,1.7,52.08-7.24,7.73-17.03,11.64-26.85,11.66Z"/>
  <path class="cls-5" d="M921.64,430.96c-7.24,7.73-17.03,11.64-26.85,11.66-9.05.01-18.11-3.29-25.24-9.96L531.61,116.08,194.56,433.6c-14.81,13.96-38.14,13.26-52.09-1.55-.93-.99-1.79-2.02-2.59-3.08-10.62,14.07-9.91,34.14,2.59,47.4,13.95,14.81,37.27,15.51,52.09,1.55l337.06-317.52,337.94,316.57c7.12,6.67,16.19,9.97,25.24,9.96,9.82-.01,19.61-3.93,26.85-11.66,12.43-13.27,13.11-33.29,2.52-47.33-.78,1.03-1.62,2.04-2.52,3.01Z"/>
  <path class="cls-4" d="M600.92,467.06l-137.75.19c-6.46,0-11.69,5.26-11.69,11.72l.46,325.97,161.15-.22-.46-325.97c0-6.46-5.26-11.7-11.72-11.69Z"/>
  <path class="cls-1" d="M612.64,478.75c0-6.46-5.26-11.7-11.72-11.69l-77.83.11c4.75,1.49,8.2,5.91,8.21,11.15l.46,326.51,81.34-.11-.46-325.97Z"/>
  <path class="cls-6" d="M952.41,640.18l-203.03,135.88-60.51-3.39-2.37-23.82c-3.53-35.45-30.82-63.91-66.1-68.9l-162.12-18.67c-37.4-5.29-73.41-17.82-106.01-36.9h0c-44.51-26.04-95.15-39.76-146.72-39.76h-116.89v266.81l308.93,116.99c11.68,3.3,23.94,4.28,35.92,2.39.07-.01.14-.02.22-.03l311.02-44.83c23.96-3.83,46.48-13.92,65.29-29.25l201.01-180.79c18.04-16.02,21.39-42.94,7.81-62.89h0c-14.85-21.82-44.54-27.56-66.45-12.83Z"/>
  <g>
    <path class="cls-7" d="M1021.51,657.45l-198.69,167.25c-18.8,15.34-50.06,25.43-74.02,29.25l-315.07,22.52c-.07.01-.14.02-.22.03-11.98,1.89-24.25.91-35.92-2.39l-308.93-116.99v94.31l308.93,116.99c5.84,1.65,11.82,2.72,17.84,3.14,1.51.11,3.01.17,4.52.19,4.53.07,9.06-.23,13.55-.95.07-.01.14-.02.22-.03l311.02-44.83c7.49-1.2,14.84-3,21.97-5.39,1.43-.48,2.85-.98,4.26-1.5,7.05-2.62,13.88-5.81,20.41-9.55,1.31-.75,2.6-1.52,3.88-2.31,5.13-3.16,10.06-6.67,14.76-10.5l201.01-180.79c16.74-14.86,20.8-39.1,10.46-58.45Z"/>
    <path class="cls-7" d="M712.43,774.03l-342.23-13.69c-1.63-.07-3.22-.55-4.62-1.4l-18.18-11.07c-8.84-5.39-4.1-19.02,6.17-17.76l358.86,43.93Z"/>
  </g>
  <path class="cls-5" d="M128.06,942.06h-46.25c-21.16,0-38.31-17.15-38.31-38.31v-342.25c0-21.16,17.15-38.31,38.31-38.31h46.25c21.16,0,38.31,17.15,38.31,38.31v342.25c0,21.16-17.15,38.31-38.31,38.31Z"/>
  <path class="cls-1" d="M128.06,523.2h-46.25c-2.6,0-5.14.27-7.59.76,17.52,3.52,30.72,18.99,30.72,37.55v342.25c0,18.56-13.2,34.03-30.72,37.55,2.46.49,4.99.76,7.59.76h46.25c21.16,0,38.31-17.15,38.31-38.31v-342.25c0-21.16-17.15-38.31-38.31-38.31Z"/>
</svg>