<?xml version="1.0" encoding="UTF-8"?>
<svg id="Layer_1" xmlns="http://www.w3.org/2000/svg" viewBox="0 0 1080 1080">
  <defs>
    <style>
      .cls-1 {
        fill: #042b62;
        fill-rule: evenodd;
      }
    </style>
  </defs>
  <g id="Layer_1-2" data-name="Layer_1" image-rendering="optimizeQuality" shape-rendering="geometricPrecision" text-rendering="geometricPrecision">
    <g id="Layer_x5F_1">
      <path class="cls-1" d="M908.13,1021.93v-78.85c0-17.92,28.07-17.92,28.07,0v78.85h63.32v-155.9c0-48.38-40.02-87.81-88.4-87.81h-32.26v15.53c0,37.63-31.06,68.1-68.1,66.9-36.44-.6-65.11-30.46-65.11-66.9v-15.53h-32.26c-48.98,0-88.4,39.42-88.4,87.81v155.9h63.32v-78.85c0-17.92,28.07-17.92,28.07,0v78.85h191.74ZM1013.26,1050h-402c-7.77,0-13.74-6.57-13.74-14.34v-169.64c0-63.91,51.97-115.88,115.88-115.88h32.26v-7.17c-30.46-20.91-50.18-56.15-50.18-96.17s-1.19-62.72,0-76.46c1.19-63.32,53.16-114.69,117.08-114.69s116.48,52.57,116.48,117.08v74.07c0,40.02-19.71,75.26-50.18,96.17v7.17h32.26c63.91,0,115.88,51.97,115.88,115.88v169.64c0,7.77-5.97,14.34-13.74,14.34h0ZM779.11,729.23c56.75,23.3,121.86-18.52,121.86-82.43v-61.52c-23.3,6.57-50.77,6.57-75.86-5.38-27.48-11.95-76.46-3.58-101.55,2.99v63.91c0,37.03,22.7,69.89,55.55,82.43ZM773.73,757.31v36.44c0,51.37,77.06,51.37,77.06,0v-36.44c-24.49,8.96-52.57,8.36-77.06,0ZM812.56,483.93c-43.01,0-78.85,29.87-87.21,69.89,115.28-26.28,111.1,24.49,174.42,2.99-7.77-41.81-44.2-72.87-87.21-72.87h0ZM398.21,726.25H130.01c-43.01,0-77.65-34.65-77.65-77.65V255.75c0-40.62,31.06-74.07,71.08-77.65v-26.28c0-29.87,24.49-54.36,54.36-54.36h72.28v-53.16c0-17.92,28.07-17.92,28.07,0v53.16h72.28c29.87,0,54.36,24.49,54.36,54.36v26.28c40.02,3.58,71.08,37.03,71.08,77.65v393.04c0,43.01-34.65,77.65-77.65,77.65v-.2ZM130.01,206.17c-27.48,0-49.58,22.1-49.58,49.58v393.04c0,27.48,22.1,49.58,49.58,49.58h47.79v-111.1c0-21.5,17.32-38.83,38.83-38.83h94.98c21.5,0,38.83,17.32,38.83,38.83v111.1h47.79c27.48,0,49.58-22.1,49.58-49.58V255.75c0-27.48-22.1-49.58-49.58-49.58H130.01ZM150.92,178.1h226.39v-26.28c0-14.93-11.95-26.28-26.88-26.28h-172.63c-14.93,0-26.28,11.35-26.28,26.28v26.28s-.6,0-.6,0ZM205.87,698.17h116.48v-111.1c0-5.97-4.78-11.35-10.75-11.35h-94.98c-5.97,0-10.75,5.38-10.75,11.35,0,0,0,111.1,0,111.1ZM205.27,282.63h-41.81c-17.92,0-17.92-28.07,0-28.07h41.81c17.92,0,17.92,28.07,0,28.07ZM364.76,282.63h-41.22c-17.92,0-17.92-28.07,0-28.07h41.22c18.52,0,18.52,28.07,0,28.07ZM205.27,354.91h-41.81c-17.92,0-17.92-28.07,0-28.07h41.81c17.92,0,17.92,28.07,0,28.07ZM364.76,354.91h-41.22c-17.92,0-17.92-28.07,0-28.07h41.22c18.52,0,18.52,28.07,0,28.07ZM205.27,427.18h-41.81c-17.92,0-17.92-28.07,0-28.07h41.81c17.92,0,17.92,28.07,0,28.07ZM364.76,427.18h-41.22c-17.92,0-17.92-28.07,0-28.07h41.22c18.52,0,18.52,28.07,0,28.07ZM205.27,499.46h-41.81c-17.92,0-17.92-27.48,0-27.48h41.81c17.92,0,17.92,27.48,0,27.48ZM364.76,499.46h-41.22c-17.92,0-17.92-27.48,0-27.48h41.22c18.52,0,18.52,27.48,0,27.48ZM853.18,342.36c-7.77,0-13.74-5.97-13.74-13.74,0-22.7-18.52-41.22-41.22-41.22h-148.74c0,22.7,5.38,49.58-18.52,59.14-10.75,4.78-23.3,2.39-31.66-5.97l-46.59-45.99c-11.35-11.35-11.35-30.46,0-41.81l46.59-45.99c17.92-18.52,50.18-4.78,50.18,20.31v32.26h148.74c62.72,0,87.21,83.03,54.95,83.03h0ZM621.41,274.86c-1.19-12.54,3.58-54.36-2.39-48.38l-46.59,47.19c0,.6,45.99,48.38,48.38,47.19,1.79-.6.6-41.22.6-45.99h0ZM430.47,909.63h-148.74c-62.72,0-87.21-82.43-54.95-82.43s13.74,5.97,13.74,13.74c0,22.7,18.52,41.22,41.22,41.22h148.74c0-22.7-5.38-49.58,17.92-59.14,11.35-4.78,23.89-2.39,32.26,5.97l45.99,46.59c11.35,11.35,11.35,29.87,0,41.22l-45.99,45.99c-17.92,18.52-50.18,5.38-50.18-20.31v-32.85ZM459.74,848.1l-1.19,1.79c0,8.96-1.19,92.59.6,93.78,1.79.6,43.61-41.81,47.79-46.59.6-.6.6-1.79,0-2.39l-45.99-45.99c-.6,0-.6-.6-1.19-.6h0Z"/>
    </g>
  </g>
</svg>