<svg width="32" height="29" viewBox="0 0 32 29" fill="none" xmlns="http://www.w3.org/2000/svg">
<g id="bxs:error">
<path id="Vector" d="M17.275 3.26056C16.8374 2.49583 15.4765 2.49583 15.0389 3.26056L3.65595 23.139C3.55349 23.3171 3.50269 23.5168 3.50851 23.7185C3.51432 23.9202 3.57656 24.1171 3.68916 24.29C3.80175 24.4629 3.96086 24.6058 4.15098 24.7049C4.3411 24.804 4.55575 24.8559 4.77401 24.8555H27.5399C27.758 24.8559 27.9725 24.8041 28.1625 24.7051C28.3525 24.606 28.5115 24.4631 28.624 24.2904C28.7365 24.1176 28.7986 23.9208 28.8043 23.7192C28.8101 23.5177 28.7592 23.3181 28.6567 23.1401L17.275 3.26056ZM17.4217 21.3476H14.8922V19.0089H17.4217V21.3476ZM14.8922 16.6703V10.8237H17.4217L17.423 16.6703H14.8922Z" fill="#F0BC02"/>
</g>
</svg>
