<?xml version="1.0" encoding="UTF-8"?>
<svg id="Layer_1" xmlns="http://www.w3.org/2000/svg" xmlns:xlink="http://www.w3.org/1999/xlink" viewBox="0 0 1080 1080">
  <defs>
    <style>
      .cls-1 {
        fill: #8a8a8b;
      }

      .cls-2 {
        fill: #585858;
      }

      .cls-3 {
        fill: #5d5d67;
      }

      .cls-4 {
        fill: #263237;
      }

      .cls-5 {
        fill: #0a0d0f;
      }

      .cls-6 {
        fill: #f7fbfd;
      }

      .cls-7 {
        fill: #eea986;
      }

      .cls-8, .cls-9, .cls-10 {
        fill: #042b62;
      }

      .cls-11 {
        fill: #a7a7a7;
      }

      .cls-12 {
        fill: #4a4a4a;
      }

      .cls-13, .cls-14 {
        fill: #fff;
      }

      .cls-13, .cls-15 {
        stroke-linecap: round;
        stroke-width: 5px;
      }

      .cls-13, .cls-15, .cls-9 {
        stroke: #fff;
      }

      .cls-13, .cls-15, .cls-9, .cls-10 {
        stroke-miterlimit: 10;
      }

      .cls-16 {
        fill: #505050;
      }

      .cls-17 {
        fill: #263238;
      }

      .cls-18 {
        fill: #68686e;
        opacity: .15;
      }

      .cls-19 {
        fill: #13171a;
      }

      .cls-20 {
        fill: #020202;
      }

      .cls-21 {
        fill: #15191b;
      }

      .cls-22 {
        fill: #494848;
      }

      .cls-23 {
        fill: #5e5e5e;
      }

      .cls-24 {
        fill: #283238;
      }

      .cls-25 {
        fill: #67676f;
      }

      .cls-26 {
        fill: #6e6e6e;
      }

      .cls-27 {
        fill: #fabc9c;
      }

      .cls-28 {
        fill: #535353;
      }

      .cls-29 {
        fill: #6a6a6a;
      }

      .cls-30 {
        fill: #f2b495;
      }

      .cls-31 {
        fill: #605753;
      }

      .cls-32 {
        fill: #1a2227;
      }

      .cls-33 {
        fill: #4b4a49;
      }

      .cls-34 {
        fill: #636363;
      }

      .cls-35 {
        fill: #273338;
      }

      .cls-36 {
        fill: #febd9c;
      }

      .cls-37 {
        fill: #656565;
      }

      .cls-38 {
        fill: #5d5d5a;
      }

      .cls-39 {
        fill: #f6fafd;
      }

      .cls-40 {
        fill: #171f23;
      }

      .cls-41 {
        fill: #73635c;
      }

      .cls-42 {
        fill: #917769;
      }

      .cls-43 {
        fill: #878787;
      }

      .cls-44 {
        fill: #555;
      }

      .cls-45 {
        fill: #fbfdfe;
      }

      .cls-46 {
        fill: #cbcbcb;
      }

      .cls-47 {
        fill: #84848c;
      }

      .cls-15 {
        fill: none;
      }

      .cls-48 {
        fill: #13191d;
      }

      .cls-49 {
        fill: #5a5a63;
      }

      .cls-50 {
        fill: #72635b;
      }

      .cls-51 {
        fill: #616161;
      }

      .cls-52 {
        fill: #0f0f0f;
      }

      .cls-53 {
        fill: #595959;
      }

      .cls-54 {
        fill: #1b2428;
      }

      .cls-55 {
        fill: #999;
      }

      .cls-56 {
        fill: #0a0d0e;
      }

      .cls-57 {
        fill: #515151;
      }

      .cls-58 {
        fill: #0e1215;
      }

      .cls-59 {
        fill: #1c2529;
      }

      .cls-60 {
        fill: #fcfefe;
      }

      .cls-61 {
        fill: #0f1316;
      }

      .cls-62 {
        fill: #1d272c;
      }

      .cls-63 {
        fill: #101619;
      }

      .cls-64 {
        fill: #5a5a64;
      }

      .cls-65 {
        fill: #464646;
      }

      .cls-66 {
        fill: #a1a6a9;
      }

      .cls-67 {
        fill: #2e363a;
      }

      .cls-9 {
        stroke-width: 3px;
      }

      .cls-68 {
        fill: #b68f7a;
      }

      .cls-69 {
        fill: #181b1d;
      }

      .cls-70 {
        fill: #949494;
      }

      .cls-71 {
        fill: #54504d;
      }

      .cls-72 {
        fill: #0f1416;
      }

      .cls-73 {
        fill: #56565e;
      }

      .cls-74 {
        fill: #dadada;
      }

      .cls-75 {
        fill: #5d5d5d;
      }

      .cls-76 {
        fill: #816d61;
      }

      .cls-77 {
        fill: #0e1316;
      }

      .cls-78 {
        fill: #fefefe;
      }

      .cls-79 {
        fill: #8a8a99;
      }

      .cls-80 {
        fill: #636c70;
      }

      .cls-81 {
        fill: #5a5450;
      }

      .cls-82 {
        fill: #78675e;
      }

      .cls-83 {
        fill: #151c1f;
      }

      .cls-10 {
        stroke: #ccc;
        stroke-width: 4px;
      }

      .cls-84 {
        fill: #676767;
      }

      .cls-85 {
        fill: #151c20;
      }

      .cls-86 {
        fill: #eb9b71;
      }

      .cls-87 {
        fill: #323232;
      }

      .cls-88 {
        fill: #5f5652;
      }

      .cls-89 {
        fill: #5c5c5c;
      }

      .cls-90 {
        fill: #414141;
      }

      .cls-91 {
        fill: #6c5f58;
      }

      .cls-92 {
        fill: #a8a8a9;
      }

      .cls-93 {
        fill: #afafaf;
      }
    </style>
    <image id="image" width="128" height="128" xlink:href="../../../../Downloads/rupee (4).png"/>
  </defs>
  <ellipse class="cls-18" cx="531" cy="922.5" rx="460" ry="114.5"/>
  <circle class="cls-14" cx="372.17" cy="184.39" r="93.39"/>
  <circle class="cls-8" cx="377.79" cy="178.77" r="87.77"/>
  <g>
    <path class="cls-27" d="M363.06,655.34c1.4-.03,2.87,2.14,4.47,3.83,2.63,2.87,5.48,5.53,8.52,7.97,1.97,2.07,9.2,5.23,7.66,8.52-1.84,2.09-5.48,1.47-8.06,1.81-5.94.31-11.96-.2-17.8.01-2.34.06-4.75.13-7.02-.46-6.02-1.5.1-6.76,2.03-9.79,1.92-2.56,3.84-5.11,5.76-7.67,1.46-1.88,2.87-4.23,4.31-4.22h.13Z"/>
    <path class="cls-37" d="M356.32,861.74c-.14.49-1.03.88-2.29,1.1-1.96.31-4.1.38-6.11.41-6.71-.05-13.36.54-20.06.98-14.44.51-28.92,1.87-43.37,1.75-2.38-.11-4.82-.23-7.14-.73-2.9-.67-2.54-2.2.43-2.63,7.28-.45,14.66.64,21.94-.47,1.45-.18,2.89-.38,4.34-.55,8.5-.93,17.06.44,25.5-1.29,8.01-.84,16.45-2.81,24.35-.46,1.52.51,2.55,1.22,2.44,1.81l-.02.07Z"/>
    <path class="cls-29" d="M382.96,860.37c-2.98.36-6.15.54-9.29.77-2.93-.06-11.21,1.72-12.56-1.17.24-2.71,5.71-2.31,7.85-2.43,4.94.24,9.76-.39,14.62-1.15,2.06-.09,15.12-1.07,13.78,2.24-.57.77-2.98.8-4.98.98-3.05.28-6.2.45-9.2.75l-.21.02Z"/>
    <path class="cls-23" d="M397.25,858.93c-1.61-.19-3.26-.62-4.94-.7-1.74-.07-3.81.06-4.46-.6-1.18-1.6,2.51-2.53,3.71-2.6,5.3-.47,10.95-.09,16.32.02,1.63.09,6.39.03,6.32,2.16-.7,1.1-2.72.94-4.61,1.13-3.97.25-8.28.95-12.14.62l-.2-.02Z"/>
    <path class="cls-43" d="M362.08,860.31c8.28,1.67-2.44,1.66-4.63,1.77-1.57-.06-3.14-.21-4.68-.52-.5-.13-1.13-.42-1.17-.92.02-1.14,2.2-1.53,3.25-1.64,2.43-.36,4.91.27,7.05,1.24l.19.06Z"/>
    <path class="cls-2" d="M413.84,857.07c.3-.21.76-.22,1.15-.22,2.73.03,5.49.06,8.22.1,2.32.07-1.18.88-1.81.92-.88.1-8.52.79-7.64-.73l.09-.08Z"/>
    <path class="cls-34" d="M330.46,863.98c2.37-1.64,5.72-.81,8.44-.78.17.02.67.02.7.13-1.18.74-3.11.81-4.56.91-1.47-.04-3.18.15-4.57-.21v-.05Z"/>
    <path class="cls-89" d="M382.75,860.24c2.04-1.57,5.12-.89,7.53-.76.29.06.27.16.02.29-2.25.9-5.18.96-7.54.53v-.06Z"/>
    <path class="cls-2" d="M398.95,859.05c2.02-1.66,5.15-.89,7.58-.8.29.05.27.15.02.28-2.24.92-5.23.99-7.59.58v-.06Z"/>
    <path class="cls-57" d="M385.25,818.14c-.91.66-2.17.5-3.37.87-5.64,2.11-11.16,4.75-16.91,6.58-1.48.38-3.14-.2-1.48-1.65,5.46-3.44,11.87-5.2,17.76-7.7.92-.35,2.03-.66,2.92-.36,1.17.39,1.73,1.62,1.16,2.19l-.08.08Z"/>
    <path class="cls-75" d="M329.3,839.16c-.08.63-1.12,1.24-1.78,1.6-5.7,2.88-11.79,5.18-17.92,7-2.35.55-4.46-.42-1.25-1.86,5.08-2.13,10.26-4.22,15.38-6.38,1.32-.51,4.76-1.92,5.57-.44v.08Z"/>
    <path class="cls-51" d="M356.57,828.42c-.55-.13-1.26-.81-1.15-1.2.3-.64,1.27-.74,1.93-1.09,1.55-.6,3.15-1.33,4.7-1.86.71-.23,1.58.16,1.91.76.46.98-1.8,1.29-2.47,1.7-1.55.5-3.18,1.55-4.76,1.71l-.16-.03Z"/>
    <path class="cls-34" d="M313.82,862.8c3.88-1.37,8.34-.89,12.4-.79.91.11-.06.49-.45.6-3.82,1.09-8.07.41-11.95.22v-.03Z"/>
    <path class="cls-89" d="M369.97,859.06c3.04-1.3,6.67-.96,9.92-.8.4.07.41.22.06.4-3.09,1.29-6.74.69-9.98.43v-.04Z"/>
    <path class="cls-37" d="M354.1,860.36c1.9-1.23,4.55-.92,6.74-.83.98.03,1.27.86.14.98-2.22-.04-4.66.13-6.87-.11v-.04Z"/>
    <path class="cls-2" d="M402.56,856.59c3.13-1.43,6.93-.89,10.31-.91.43.02,1.17.17,1.21.58-.04.42-.79.56-1.23.57-3.36-.11-6.97.13-10.29-.21v-.04Z"/>
    <g>
      <path class="cls-36" d="M348.74,684.97c6.71,31.22,16.82,62.01,24.72,92.99.37,1.63,1.53,5.2-.44,5.49-.83.06-2.28-.81-3.17-1.43-11.01-7.52-22.03-15-33.01-22.59-21.56-13.24-25.39-37.26-10.34-56.63,6.25-8.63,12.45-17.21,18.71-25.79,2.99-4.08,4.41-1,4,3.31-.14,1.49-.41,2.97-.45,4.47v.18Z"/>
      <path class="cls-52" d="M378.02,814.16c1.77-.7,5.53-1.77,6.09.08.21.94-.17,1.64-.75,2.33-2.54,2.56-6.5,3.16-9.72,4.56-7.76,3.13-15.42,6.19-23.24,9.28-4.89,2.03-9.91,3.72-14.77,5.75-2.79,1.23-5.23,3.03-8.05,4.1-6.88,2.15-13.59,4.93-20.23,7.68-1.75.68-3.44,1.51-5.24,1.95-2.82.73-5.77-.58-8.75-.1-1.39.18-8.09,2.32-3.55-.27,10.85-5.16,22.3-9.04,33.44-13.5,18.17-7.28,36.25-15.05,54.6-21.8l.18-.06Z"/>
      <path d="M293.82,856.24c.11-.92,1.51-2.05,2.6-2.66,2.95-1.65,5.73-3.66,8.78-5.14,7.18-3.14,14.5-6.09,21.88-8.73,4.2-1.84,8.35-4.29,12.81-5.75,13.66-5.1,26.92-11.31,40.75-15.96,9.61-2.38,7.83,19.32,8.02,24.97.3,4.55-.93,8.29-6.04,8.91-8.35.62-16.75,1.63-25.14,1.93-6.12-.32-12.09.87-18.15,1.34-11.88.59-23.69,1.92-35.5,3.2-2.74.14-9.63,1.51-10.01-1.99l.02-.11Z"/>
      <path class="cls-28" d="M357.01,827.93c-.15.6-1.07,1.18-1.71,1.5-5.14,2.42-10.45,4.87-15.98,6.18-2.35.35-3.9-.8-.98-1.98,5.08-2.04,10.24-4.1,15.34-6.1.93-.32,3.14-.96,3.35.3l-.02.1Z"/>
      <path class="cls-51" d="M337.04,834.28c1.16-.16,2.82.8,1.55,1.57-2.68,1.23-5.54,2.2-8.27,3.33-.46.17-1.25.37-1.22-.36.73-3.38,5.08-3.61,7.76-4.51l.19-.02Z"/>
      <g>
        <path d="M362.02,654.88c-1.3-3.73-.11-7.64,1.95-10.9,3.47-5.86,6.98-11.59,10.47-17.39,11.59-19.18,23.17-38.38,34.43-57.75,13.26-26.93,34.81-45.9,64.87-49.57,6.56-1.3,9.71.73,13.18,6.1,5.34,7.04,13.01,12.94,20.97,16.9,12.61,5.53,25.93,9.54,39.66,10.98,5.93-.12,11.98-.86,17.82-1.79,13.25-3.63,25.46-10.83,35.71-19.87,2.19-1.47,4.35-.64,6.28.96,21.1,17.96,42.72,35.43,64.83,52.06,4.71,3.61,9.39,7.25,13.82,11.2,1.78,1.64,3.59,3.73,1.15,5.32-7.8,2.87-11.3,6.79-13.43,14.82-4.56,17.94-10.06,35.57-18.77,52.03-4.06,8.25-9.22,9.86-17.03,4.94-6.24-4.03-14.24-7.15-17.96-13.86-3.7-15.23-2.78-31.36-4.08-46.94.01-.56-.28-3.23-.3-2.71,0,.28.02,1.02.07,2.01.9,15.73,1.89,31.5,3.26,47.19.17,5.44,1.89,12.6-2.51,16.73-2.49,1.98-6.14,1.74-9.24,1.79-23.48.07-46.97-.14-70.49-.24-26.91-.13-53.85.13-80.73-.04-2.1-.1-4.25-.53-5.62-1.79-3.15-3.11-1.03-8.08-1.02-11.97.21-3.22.2-6.4.24-9.66.04-11.42.13-30.83,0-36.62-.14,14.29.37,29.83-.32,45.82-.2,4.37-1.1,9.17-4.72,11.98-3.15,2.51-7.55,2.39-11.41,2.43-12.84.03-25.71.05-38.55-.01-4.11.02-8.24-.57-11.89-2.55-7.93-4.57-17.39-10.47-20.55-19.43l-.05-.18Z"/>
        <path d="M341.34,964.87c-17.34.73-34.79.24-52.17.56-3.75.07-7.54-.19-10.9-2.01-45.05-25.57-39.58-103.49,14.14-114.53,1.74-.81,6.58-1.13,5.08,1.94-1.09,1.74-3.44,2.56-5.26,3.41-3.76,1.58-7.53,3.44-11.01,5.52-.87.54-1.78,1.13-2.34,1.95-1.14,2.14,3.19,2.03,4.88,2.11,10.67-.1,21.3.3,31.86-.23,6.91-1.28,13.9-.71,20.88-1.32,5.5-.95,11.05-.89,16.59-1.05,5.37-.63,10.75-1.16,16.18-1.33,5.58-.77,11.15-1.13,16.78-1.17,5.26-.68,10.5-1.13,15.8-1.17,2.86-.18,5.68-.77,8.55-1,3.85-.29,7.81,0,11.68-.59,4.53-.81,9.07-.74,13.67-.92,4.85-.36,9.64-1.17,14.49-1.2,3.88-.13,7.71-1.02,11.54-1.13,2.68-.07,5.35-.24,8-.65,7.18-.99,14.51-1.18,21.72-2.08,8.39-1.31,16.89-2.77,25.44-2.61,5.93-.04,11.87.16,17.81.2,2.93.05,6.14.21,8.49,2.14,2.45,1.98,3.35,5.26,4.12,8.21,2.34,9.31,4.8,18.6,7.08,27.93.75,4.14,1.8,8.15,3.17,12.1,1.98,7.74-7.67,9.82-13.21,11.58-5.84,1.6-11.6,3.82-17.46,4.9-4,.61-7.55,2.45-11.32,3.87-10.37,3.55-20.92,6.49-31.47,9.43-42.51,12.38-85.47,23.04-128.22,34.52-4.7,1.32-9.62,1.99-14.39,2.61l-.19.02Z"/>
        <path d="M556.06,900.63c-.11-1.37-.58-2.87-.93-4.23-.6-2.22-.69-4.21.75-5.36,2.27-1.72,5.6-2.18,8.35-2.85,4.94-.85,9.52-2.73,14.28-4.22,21.56-5.64,43.54-9.49,65.27-14.33,3.55-.66,7.15-.8,10.74-1.08,7.32-.73,14.44-3.59,21.92-3.52,6.9-.13,13.77,1.45,20.7,1.33,19.25,1.76,38.56,4.09,57.86,5.05,7.16,1.09,13.99,1.13,21.22,1.1,5.08.07,12.11,2.59,16.12-.97,1.49-2.99-4.34-5.04-6.58-6.11-4.06-1.7-7.88-4.09-11.96-5.93-7.56-3.43-15.48-5.96-23.12-9.19-5.67-2.4-11.03-5.36-16.82-7.42-10.55-4.08-20.85-9.02-31.47-13.03-14.76-6.29-29.5-12.63-44.5-18.34-3.09-1.37-6.14-2.88-9.21-4.26-2.05-.99-4.63-2.13-5.47-4.34-.64-1.56.25-3.49,1.94-3.83.96-.25,2.15.01,3.13.4,3.02,1.41,6.24,3.1,9.47,4.33,38.64,16.32,77.01,33.27,116.04,48.61,6.98,2.81,14.51,5.31,21.08,9.04,31.07,17.25,36.79,58.64,20.38,88.4-2.92,6.96-7.87,13.97-15.6,15.46-29.79,1.02-59.7.55-89.52.18-8.43-.42-16.61-2.86-24.8-4.7-17.34-4.26-34.43-9.48-51.64-14.24-31.75-8.67-63.63-17.22-95.23-26.23-2.79-1.06-5.73-2.1-7.64-4.35-1.92-2.5,1.47-3.81,3.54-4.28,5.35-1.41,10.66-2.98,15.96-4.64,2.92-.85,6.11-2.81,5.73-6.27v-.18Z"/>
        <path class="cls-74" d="M378.4,814.27c0-1.09,2.34-3.1,2.67-5.28.52-2.89-.6-5.77-1.4-8.53-1.05-3.25-1.78-6.54-2.77-9.76-1.45-4.73-4.2-9.04-5.69-13.79-2.57-7.47-4.15-15.22-6.23-22.83-6.12-21.08-12.23-42.23-17.86-63.43-.71-4.08,2.75-6.19,6.54-6.16,63.71-.17,127.49-.02,191.22-.06,3.06.01,6.09-.05,9.14.19,4.16.4,6.94,1.15,5.92,5.45-.55,2.47-1.77,5.23-2.82,7.62-5.04,11.28-10.01,22.69-15.64,33.74-2.74,5.01-5.19,12.07-12.06,11.67-11.09.01-22.28-1.63-33.29.5-10.68,2.73-28.74,8.51-33.2,19.5-3.75,8.68,4.78,17.64,12.66,21.77,5.42,3.11,11.56,4.5,17.57,6.13,8,2.2,10.38,5.01,4.9,12.3-4.56,6.41-9.15,12.64-14.09,18.76-2.26,2.75-4.94,5.31-8.3,6.58-3.12,1.25-6.84,1.38-10.25,1.36-23.57-.26-47.09.14-70.63-.18-6.07.24-9.32-2.13-10.82-8.1-.56-1.87-1.22-3.71-2.51-4.79-.89-.92-2.79-1.33-3.09-2.58v-.08Z"/>
        <path class="cls-36" d="M489.6,498.1c-.55-1.38-.75-2.94-.84-4.46-.69-11.74-1.29-23.54-2.07-35.25-.32-3.62.32-7.73-1.51-10.97-3.85-6.31-13.94-2.45-16.44-10.8-1.54-4.49-1.91-10.72-.17-15.12,1.18-2.72,4.39-5.38,7.32-5.46,2.95.13,2.16,3.6.91,5.29-1.92,3.01-4.84,5.26-4.11,8.61.12.96.66,2.36.98,3.06.13.25.11.06-.06-.53-.83-2.67-1.8-6.48.38-8.2,1.64-1.61,5.74-1.62,8.51-1.74,5.69-.01,7.55-4.09,8.06-9.04.52-3.89,1.35-7.73,3.27-11.17,1.87-3.54,5.29-6.43,6.56-10.17,2.01-5.17.27-11.24,2.85-16.22,7.81-14.14,28.91-5.16,39.74.5,10.8,5.4,22.63,5.91,34.32,4.96,5.79-.76,6.91,2.82,7.38,7.96.74,6.67.39,13.4.87,20.08,1.11,18.85,2.51,37.8,1.39,56.72-1.04,14.14-8.81,22.72-22.05,27.6-1.89.82-3.46,1.7-4.26,3.48-2.33,5.05,5.12,6.12-.26,9.99-16.18,12.41-38.51,15.23-56.43,4.89-3.37-1.78-6.03-4.39-8.7-7.07-2.1-2.15-4.53-4.19-5.58-6.79l-.07-.17Z"/>
        <path class="cls-36" d="M650.8,670.98c6.9-16.11,14.58-31.98,18.29-49.3.91-2.72.96-7.9,4.28-8.41,1.75-.14,4.05,1.8,5.84,3.57,3.95,3.85,6.39,8.85,9.72,13.21,15.83,19.45,33.49,37.48,48.43,57.57,10.41,15.74,4.34,37.65-12.19,46.47-20.65,13.22-41.78,25.69-62.55,38.7-2.47,1.7-4.43,4.11-6.84,5.65-3.18,2.14-7.62,1.06-7.05-3.31,6.4-24.74,13.04-49.6,20.68-74.04.61-1.9,1.31-3.83,2.31-5.54,1.6-2.94,4.37-5.12,6.78-7.34.07-.09.15-.17.05-.22-.22-.09-1.87.18-3.01-.82-1.96-2.06-1.62-5.47-3.14-7.8-3.25-6.48-23.13,1.67-21.63-8.2l.04-.17Z"/>
        <path class="cls-17" d="M583.19,381.66c-12.72,3.99-26.59,2.82-38.79-2.73-9.54-4.45-23.35-11.44-33.95-7.67-5.16,1.93-6.97,8.7-7.43,14.05-.62,5.46-1.57,10.95-5.39,15.06-1.61,1.76-3.43,3.54-4.2,5.8-1.57,5.55-.23,14.8-5.83,17.65-3.37,1.74-7.84.14-9.08-3.55-3.22-9.71-2.42-20.21-4.01-30.3-1.08-7.2-4.06-14.19-1.96-21.37,1.22-4.75,3.53-9.66,7.72-12.45,3.16-2.15,8.04-2.09,11.27-4.14,2.94-1.81,4.81-5.1,7.02-7.82,10.38-13.73,29.79-16.86,44.85-9.08,4.24,1.96,8.74,3.57,13.15,4.93,1.12.44,3.01,1.04,2.8,2.45-.35,1.57-4.62,2.38-6.75,2.34-12.25.77-23.92-6.57-36.21-4.26-.49.07-.84.18-1.13.21.1-.02.63-.14,1.46-.3,14.55-2.67,29.33,8.58,43.73,2.63,3.1-1.33,5.17-4.33,8.19-5.77,3.31-1.48,7.97-2.08,11.19.02,2.08,1.41,3.19,4.16,5.35,5.57,2.96,2.04,7.38,1.83,9.61,4.83,3.54,4.5.52,10.45-.09,15.56-.42,3.26.03,6.8-1.14,9.92-1.59,4.1-6.13,6.71-10.2,8.38l-.19.07Z"/>
        <path class="cls-17" d="M645.51,439.22c.25-1.21,2.02-2.24,3.29-2.82,16.6-7.91,34.76-8.42,52.72-5.48,4.77.83,9.47,1.85,13.98,3.62,4.12,1.39,5.75,4.87,5.3,9.02-.29,4.82-.66,9.51-.78,14.33-.15,4.56.02,9.86-6.3,8.89-29.97-6.42-61.58,3.25-82.77,25.87-4.73,3.94-3.42-1.24-1.2-3.59,6.18-7.44,14.16-12.85,22.74-17.15,4-2.28,11.48-3.81,7.3-9.76-4.17-6.24-7.67-12.99-12.41-18.82-.89-1.13-2.14-2.54-1.91-3.98l.03-.12Z"/>
        <path class="cls-17" d="M662.94,467.76c-.62,1.07-2.12,1.85-3.33,2.42-10.66,4.91-20.33,11.31-28.74,19.55-2.74,3.01-5.77,3.68-9.3,1.51-5.24-2.8-10.53-5.52-15.56-8.68-3.77-2.14-4.03-4.93-1.67-8.42,8.82-14.36,20.61-25.55,35.58-33.29,2.24-1.19,5.06-2.21,7.15-.32.92.77,1.67,1.89,2.33,2.93,3.91,6.31,7.96,12.53,12.08,18.7,1.01,1.56,2.46,3.69,1.52,5.49l-.07.13Z"/>
        <path class="cls-17" d="M603.15,478.23c1.67.07,3.09,1.78,4.58,2.61,5.61,3.4,11.28,6.8,17.22,9.62.9.44,1.88.99,2.57,1.64,2.07,1.82.7,4.4-.64,6.29-5.76,8.14-11.56,16.29-17.33,24.42-2.84,3.83-5.04,7.94-8.96,10.84-2.01,1.53-3.88,3.92-6.37,3.83-3.34-.57-5.7-4.57-7.98-6.97-3.72-4.34-8.05-8.12-13.19-10.81-5.19-2.33-5.66-4.9-7.07-9.95-.78-2.3-2.81-4.38-2.73-5.63,0-1.1,1.32-1.37,2.24-1.33,1.73.08,2.88.9,3.8,2.91,1.51,2.29,1.44,9.03,4.75,8.62.77-.1,1.61-.56,2.3-1.05,3.84-2.8,6.58-6.82,9.57-10.42,1.56-2.14,3.95-3,6.35-1.64,5.63,2.64,11.28,5.92,16.7,8.91-3.78-2.1-7.74-4.66-11.69-6.53-4.19-1.96-8.8-3.71-5.44-9.05,2.67-4.64,5.37-9.31,8.41-13.73.73-1,1.6-2.43,2.82-2.58h.11Z"/>
        <path class="cls-46" d="M687.86,629.67c-2.05-.06-4.61-4.16-6.45-5.89-2.06-2.29-4.12-4.59-6.18-6.88-1.12-1.23-2.29-2.54-2.65-4.21-1.08-7.52,9.92-15.9,16.92-13.35,8.47,5.17,7.59,17.55,2.85,25.21-1.19,1.93-2.83,5.03-4.35,5.11h-.13Z"/>
        <path class="cls-35" d="M489.61,498.5c2.76-.35,5.25,2.66,7.25,4.36,2.67,2.25,4.09,5.26,3.39,7.85-.42,4.15-3.45,8.09-6.18,11.76-1.92,2.11-4.1,5.71-6.89,5.65-2.19-.27-4.05-4.27-6.09-5.97-.91-.86-2.19-1.48-3.09-2.26-.29-.28-.43-.55-.38-.85.12-.6.87-1.25,1.37-1.77,1.74-1.64,2.85-3.9,3.79-6.08,1.41-3.33,2.86-6.6,4.38-9.86.51-1.08,1.17-2.37,2.31-2.77l.14-.04Z"/>
        <path class="cls-55" d="M651.87,777.44c3.34-1.51,7.73-5.05,7.54.87-.04,5.87-1.45,11.41-5.18,15.85-1.1,1.4-2.52,2.69-3.08,4.41-.55,1.71.8,3.5.29,3.83-.81.36-2.23-.62-3.85-1.13-2.01-.76-4.53.06-5.43-.9-1.05-1.36-.18-3.52.13-5.15.7-2.8,1.61-5.54,2.54-8.27,1.18-4.09,2.83-7.85,6.86-9.44l.18-.09Z"/>
        <path class="cls-40" d="M566,340.72c1.53,1.81-2.52,3.58-4.1,3.98-17.02,6.49-33.97-7.71-50.64-2.19-1.96.72-4.16,1.39-1.06-.69,15.73-9.5,34.02,7.15,50.36.32,1.59-.63,3.84-2.35,5.36-1.48l.08.06Z"/>
        <path class="cls-80" d="M563.48,340.55c0,.5-.78.76-1.31.94-4.17.9-8.51-.59-12.19-2.45-.5-.31-1.47-.72-1.51-1.29.24-.47,1.13-.4,1.66-.46,2.33.06,4.63-.51,6.88-1.07,2.72-.11-.62,1.94-.31,2.95.62,1.08,2.4.97,3.82,1.02,1.02-.05,2.8-.11,2.93.3l.03.06Z"/>
        <path class="cls-66" d="M558.08,337.51c-1.22-.16-.71-1.51-.09-2.1,2.19-2.31,4.04-4.91,4.66-8.11.24-1.22.48-1.12.7.05.89,4.2-.71,8.94-5.1,10.17h-.17Z"/>
        <path class="cls-11" d="M569.91,331.64c-.33-3.16-.06-6.48-.13-9.63.02-.28.02-.95.35-.75,1.13,1.42,1.71,3.51,1.97,5.3.43.95-.5,8.84-2.15,5.27l-.05-.18Z"/>
        <path class="cls-70" d="M569.93,331.44c.97.22,1.44,1.45,1.15,2.39-.27.88-.17,1.65.57,2.17.16.14.52.55.24.86-1.03,1.01-3.06.77-4.36.68-.2-.06-.5-.12-.55-.35,0-.96.85-1.95,1.2-2.88.57-.92.81-2.18,1.63-2.85l.11-.02Z"/>
        <path class="cls-79" d="M348.79,675.97c.92-1,2.73-1.24,4.21-1.25,7.26-.05,14.59-.09,21.85-.17,2.9.26,5.97-.57,8.61-1.09,3.91-.27,7.92,1.32,11.96,1.03,13.96-.07,27.88-.05,41.81-.03,2.24-.03,4.7-.17,6.73-1.01.59-.25,1.25-.64,1.78-1.15,1.43-1.33,2.04-3.75,3.01-4.73.51-.38.86.32,1.02.77.97,3.81.93,6.89,6.04,6.94,32.39-.06,64.85.06,97.25.01,1.9,0,3.86.35,5.09,1.82,2.5,3.22.23,6.78-3.78,7.21-63.91,1.11-127.97.04-191.92.36-2.21-.01-4.41.05-6.6.03-2.49-.06-5.2-.11-6.88-2.1-1.46-1.79-1.79-4.89-.28-6.53l.1-.11Z"/>
        <path class="cls-49" d="M557.46,677.07c-1.07-.88-3.09-.94-4.61-.93-33.28-.08-66.61.06-99.87-.17-1.34-.17-2.14-.51-1.95-.82,53.23-1.4,107.28-.08,160.73-.27,5.61.36,6.4-4.55,6.33-8.99.08-2.29-.13-6.05,2.42-5.85,1.45.74,1.39,2.76,1.4,4.27-.19,2.59-.47,6.63,1.59,7.6,2.84,1.55,7.78,1.16,11.17,1.29,2.62-.12,5.2-.39,7.71.19,1.24.24,2.47.68,3.73.72,1.25.06,2.44-.47,3.61-.77,1.44-.41,2.42.1,4.13.84,1.32.57,2.84.64,4.28.67,3.34.04,6.47.1,9.89-.02,3.49-.17,8.16.1,8.42,4.62.31,2.23-.21,4.86-1.72,6.18-2.3,1.98-5.73,1.63-8.64,1.73-33.07,0-66.19.14-99.26-.05-2.83-.08-6.15-.67-7.32-3.55-.98-2.21-.16-5.03-1.9-6.58l-.11-.09Z"/>
        <path class="cls-17" d="M563.88,504.38c1.32-.79,3.72.39,4.54,2.02,1.31,2.19.73,6.06,2.13,8.14,1.98,2.4,5.52,3.23,7.57,5.83,3.58,3.77,7.71,7.03,11.19,10.88,1.55,1.85,3.83,3.54,4.3,5.94.93,6.07-20.08,14.37-25.37,15.21-4.15.87-5.62-3.43-6.36-6.74-1.05-4.25-2.48-8.3-3.78-12.55-.92-3.06-1.86-6.62,1.28-8.64.94-.71,2.08-1.36,3.14-1.92,1.65-.84,3.54-1.96,2.9-3.92-1.37-3.25-2.56-6.61-2.72-10.19-.11-1.36-.18-3.17,1.07-3.99l.11-.07Z"/>
        <path class="cls-4" d="M559.32,553.76c-.57.68-2.4,1-3.52,1.08-16.56,1.12-32.79-3.13-47.35-10.65-3.29-2.45-1.42-6.34-.06-9.54,1.73-3.66,3.42-7.52,6.01-10.66,4.06-4.15,11.13.33,15.92,1.51,2.03.71,4.4,1.23,5.76,3.02,1.37,1.82.76,4.7.26,7.29-.53,3.22-1.87,6.46-1.81,9.69,1.04,8.7,15.96,4.69,22,6.14,1.05.26,3.34.74,2.84,2.06l-.05.07Z"/>
        <path class="cls-17" d="M503.7,541.83c-4.28-1.81-8.22-4.75-11.68-7.85-6.44-5.93,2.73-14.92,6-20.39,2.11-3.08,4.67-2.47,7.75-.41,2.15,1.33,4.6,3.16,6.56,4.88,1.38,1.31,3.02,2.46,3.56,4.29.44,2.01-1.16,3.95-2.34,6.32-1.37,2.54-2.72,5.13-3.93,7.75-1.14,2.45-2.34,6.41-5.75,5.46l-.18-.05Z"/>
        <path class="cls-83" d="M515.41,522.3c-4.03-2.51-7.84-5.33-12.04-7.63-.95-.55-2.03-1.13-3.07-1.3-2.14-.41-3.51,1.5-4.45,3.16-2.19,3.79-4.59,7.57-6.91,11.26-.86,1.21-2.42,1.72-1.97-.32.44-2.18,2.34-4.12,3.62-6.43,2.1-4.04,5.88-8.22,4.66-12.74-.08-.65-.15-1.29.62-1.33,2.13.18,4.25,1.81,6.11,2.91,4.39,2.9,9.25,5.17,13.96,7.57,1.4.68,2.87,1.43,4.41,1.65,2.57.47,5.08-1.42,7.54-.48,2.99,1.52,4.88,5.07,8.39,5.83,2.96.89,6.75.82,8.15-1.72,1.02-1.84.66-4.3,1.52-6.18.84-1.95,2.71-2.2,3.78-.4,1.21,2.06,1.43,5.42,4.19,6.05,2.34.61,5.19-.13,7.04-1.59,3.6-3.01.91-8.72,1.8-12.61.64-2.68,2.51-1.46,2.99.29,1.01,2.9.8,7.35,2.75,9.07.67.8,2.34.87,2.75,1.65-.13,1.01-1.46,1.77-2.25,2.47-2.53,2.18-7.17,3.21-8.24,6.11-.69,1.79,0,3.93.58,5.74,1.38,4.06,2.78,8.01,3.65,12.16.34,1.5.64,3.03,1.34,4.4.85,1.65,2.14,2.32,2.47,3.26.34.56-1.91,1.41-3.15,1.62-2.02.5-4.16.09-4.12-2.32.42-4.44-1.12-8.64-2.54-12.99-2.09-6.72-1.78-11.12-10.54-9.35-2.9.45-5.66,1.03-8.19,2.33-1.3.52-3.26,2.02-4.41.71-.69-.88-.85-3.02-2.26-4.03-.72-.54-1.52-.84-2.47-1.13-5.24-1.2-10.73-3.33-15.54-5.62l-.17-.09Z"/>
        <path class="cls-58" d="M450.27,669.87c-2.18.14-2.35-2.78-2.17-4.48.28-1.96.38-4.12.37-6.14-.02-17.31-.02-34.64-.01-52.05-.03-1.12.19-3.02,1.05-3.42.78-.32,1.36.5,1.76,1.76.46,18.85,1.27,37.92-.59,56.78-.07,2.02.43,3.97.4,5.86,0,.93-.19,1.48-.72,1.66l-.09.03Z"/>
        <path class="cls-58" d="M620,660.83c-.98,2.66-1.96,5.02-1.77,8.06-.02,2.27-.84,5.96-1.09,1.95.14-22.08-3.91-44.26-2.3-66.37.29-1.36.67,2.8.73,3.16,1.84,15.23,2.77,30.56,4.12,45.86.13,2.38.99,4.92.35,7.18l-.04.16Z"/>
        <path class="cls-83" d="M594,539.12c-1.15-.41-1.97-1.7-2.68-2.71-2.14-3.19-5.02-5.73-7.72-8.41-2.84-3.03-5.77-5.84-8.23-9.06-1.02-1.45-1.1-2.72.87-1.28,4.47,3.68,8.93,7.38,12.53,12.11,3.89,5.18,6.12,8.91,11.93,3.17,2.27-1.82,1.08.95-.26,2.42-1.53,1.81-4.43,4.45-6.31,3.81l-.14-.05Z"/>
        <path class="cls-83" d="M503.93,542.63c.32-1.2,1.58-2.08,2.24-3.17,1.78-3.05,3.42-6.21,5.04-9.46,1.16-2.25,2.4-4.8,4.31-6.47,1.39-.94.69,1.23.42,1.93-1.73,4.52-5.02,8.47-6.7,13.06-.61,1.42-.9,3-1.29,4.46-.24.71-.5,1.2-1.1,1.44-.97.36-3.03-.57-2.93-1.67v-.12Z"/>
        <path class="cls-92" d="M447.82,668.92c1.34.75,1.1,2.77,1.03,4.12-.05,1.17-.2,2.57-1.38,2.94-.76.24-1.67.02-2.06-.7-1.05-1.61.49-3.26,1.17-4.7.36-.52.55-1.38,1.12-1.65h.11Z"/>
        <path class="cls-1" d="M388.07,829.33c.98-.59,2.27-.69,3.72-.63,26.94.35,54.07,1.99,80.81-.37,5.33-.46,10.68-.86,16.03-1.16,47.11-2.29,94.35-.09,141.42-.78,5.4.38,8.85,9.74,3,11.92-2.87,1.13-7.03,1.05-10.21,1.08-38.5.02-93.97,0-124.17.01,43.37.06,86.71-.11,130.11.07,4.5-.03,7.57,1.37,7.41,6.5-.04,5.39-5.92,5.42-10.1,5.37-2.92.04-5.87.06-8.8.07-23.08-.11-46.17.16-69.2-.12-4.25-.38-8.23-1.93-12.49-1.71-9.46.1-19.06-.29-28.54.19-7.64.48-15.3,1.45-22.99,1.33-30.33.04-60.65.14-90.97-.04-3.64.02-6.5-2.25-7.2-5.76-1.06-4.53-1.76-12.65,2.05-15.9l.13-.08Z"/>
        <path class="cls-36" d="M544.07,851.01c.89-1.71,3.61-1.81,5.5-1.81,27.43-.11,54.97.32,82.38-.21,3.01-.52,5.45-3.23,8.59-3.82,10.78-1.1,36.05,2.48,35.32,16.93-.59,3.57-5.03,4.41-8.13,5-36.28,7.14-72.42,14.99-108.4,23.46-3.89,1.04-6.51-.18-7.42-4.2-2.67-10.31-5.27-20.68-7.89-31-.34-1.35-.58-3.08,0-4.24l.07-.13Z"/>
        <path class="cls-16" d="M477.33,852.18c-.23.6-1.97.88-2.87.94-7.77.67-15.45,1.52-23.25,1.9-6.15.29-12.18,1.96-18.37,1.89-2.15-.02-4.26-.37-6.4-.45-2.06-.16-4.18.27-6.2-.18-2.62-.72-1.64-2.8.78-3.34,7.12-1.24,14.56.31,21.74-.71,3.86-.65,7.76-.94,11.68-.88,3.38.22,22.36-2.54,22.93.78l-.02.07Z"/>
        <path class="cls-56" d="M558.18,900.99c1,.22,1.26,1.9.64,3.27-.97,1.86-3.38,2.55-5.28,3.21-6.88,2.21-13.59,5.13-20.75,5.89-3.84.41-2.7-.79-.06-1.89,6.77-3.04,14.41-3.76,20.95-7.44,1.58-.73,2.75-2.8,4.41-3.05h.1Z"/>
        <path class="cls-16" d="M476.87,852.61c-2.25-.36-4.58-.64-6.87-.86-1.74-.19-3.16-.94-2.95-1.6.51-1.03,2.36-1.02,3.46-1.13,7.75-.31,15.51.63,23.18,1.35.62.12,2.25.12,2.23.58-.25.44-4.54,1.02-6.27,1.2-4.1.32-8.58.99-12.57.5l-.21-.03Z"/>
        <path class="cls-69" d="M553.58,891c.57-.77,1.57-1.17,2.53-1.4,5.46-1.08,11.06-2.09,16.57-3.13.53-.07,3.05-.64,2.45.17-3.81,2.71-8.66,2.71-13.19,3.8-3.82.83-6.47,2.4-6.98,6.53-.65,2.4-2.07-2.63-1.99-3.94,0-.67.14-1.35.51-1.9l.1-.14Z"/>
        <path class="cls-72" d="M547.79,881.42c.02.33-.45.81-.74,1.12-3.16,3.3-7.1,4.79-12.65,3.89-.43-.07-1.37-.26-1.43-.56.03-.38.8-.56,1.22-.72,4.69-1.4,8.63-2.57,12.37-3.68.38-.09.97-.31,1.2-.1l.02.05Z"/>
        <path class="cls-77" d="M539.7,858.03c-.01.31-.49.61-.8.8-3.5,2.04-7.75,1.7-11.3,3.42-.63.18-.47-.2-.15-.69,2.68-3.9,6.96-4.57,11.2-4.02.35.05.91.13,1.03.4l.02.08Z"/>
        <path class="cls-77" d="M531.73,873.11c.07-.23.57-.37.86-.48,3.34-1.09,6.81-2.49,10.91-1.71.39.09.98.25,1.06.61.06.36-.42.7-.75.9-3.87,2.15-8.29,2.28-12.07.74v-.06Z"/>
        <path class="cls-77" d="M536.33,899.4c.09-.38.89-.59,1.33-.76,4.71-1.57,8.56-2.86,12.2-4.06.35-.09.9-.32,1.1-.1.08.29-.5.85-.78,1.14-3.05,3.07-6.64,5.17-12.25,4.39-.52-.08-1.38-.19-1.6-.53v-.07Z"/>
        <path class="cls-56" d="M534.74,916.52c-.25.24-1.07.11-1.52.04-4.4-.74-8.85-2.26-13.34-1.48-.36.02-1.12.21-1.22-.06,2.09-2.17,8.23-2.79,10.98-1.83.93.42,1.69,1.1,2.58,1.61.84.55,2.26.86,2.55,1.67l-.03.05Z"/>
        <path class="cls-53" d="M418.42,855.18c3.13,1.1,8.8-.7,11.41,1.34-.06.42-1.07.34-1.53.4-3.45-.04-6.86.81-10.23.7-1.37-.17-4.61.06-4.66-1.8.61-1.75,3.38-1.27,4.82-.69l.19.06Z"/>
        <path class="cls-16" d="M446.29,855.32c2.84-1.86,6.67-.77,9.89-.82.4.04.37.16.02.31-3.08,1.1-6.72.89-9.91.55v-.05Z"/>
        <path class="cls-16" d="M463.75,854.04c1.51-1.42,3.92-.9,5.82-.85.16.02.59,0,.64.15-.67.71-2.09.85-3.08.95-1.07,0-2.4.12-3.37-.18v-.06Z"/>
        <path class="cls-21" d="M650.81,870.48c.49-.71,2.04-.96,2.97-1.28,4.8-1.34,9.8-1.88,14.61-3.28,5.29-1.55,6.28-3.36,3.96-8.57-.9-2.35.19-2.87,2.53-2.61,11.23,1.49,22.57,1.86,33.85,2.86,6.89.67,13.82,1,20.71,1.8,2.7.36,5.66.65,8.08,1.79,2.54,1.19,2.69,3.61-.12,4.32-3.03.63-6.19-.44-9.28-.51-14.59.2-29.21-1.84-43.76-2.6-.86,0-.73.06.31.1,2.06.14,7.97-.19,7.71,2.95-1.37,2.58-9.82,1.07-12.74,1.43-6.77-.06-13.39,1.24-19.98,2.75-2.32.52-5.04,1.09-7.32,1.16-.91.02-1.47-.07-1.52-.26v-.03Z"/>
        <path class="cls-84" d="M688.3,822.79c10.24,3.68,20.17,8.51,30.29,12.6.78.33,1.73.78,2.31,1.27,1.56,1.42-.16,2.21-1.84,2.21-10.54-1.58-20.1-7.26-29.74-11.59-1.26-.62-2.95-1.81-3.17-3.1-.2-.99.66-1.61,1.99-1.42l.17.02Z"/>
        <path class="cls-89" d="M749.65,872.73c-6.05.08-12.55-.92-18.69-1.31-1.37-.12-2.74-.23-4.11-.35-2.02-.22-4.15-.15-5.13-1.13-.85-1.02,1.17-1.92,2.18-2.14,5.24-1.11,10.61.41,15.89.83,5.93.49,11.98-.79,17.81.4,1.76.54,3.4,1.5,2.37,2.72-2.18,1.48-7.23.55-10.11.97h-.21Z"/>
        <path class="cls-65" d="M641.38,801.07c1.59-.07,2.4,1.86,3.87,2.77,5.26,3.06,11.02,5.31,16.48,8.05,4.79,2.37,1.46,4.15-2.16,3.1-3.94-.68-23.61-8.36-18.28-13.88l.1-.03Z"/>
        <path class="cls-34" d="M727.23,839.56c.76-.15,1.69.07,2.48.32,4.63,1.56,9.23,3.32,13.61,5.51.6.3,1.33.72,1.7,1.2,1.36,2.35-2.98,2.42-4.41,1.99-4.67-1.08-9.31-2.38-13.08-5.46-1.09-.81-2.32-2.94-.45-3.51l.16-.04Z"/>
        <path class="cls-44" d="M689.09,823.16c-4.31,3.73-11.93.54-15.62-2.91-.58-.56-1.14-1.39-.91-2.15.45-1.25,2.26-.99,3.32-.66,4.13,1.29,8.21,2.87,12.06,4.77.41.22,1.07.53,1.14.89v.07Z"/>
        <path class="cls-87" d="M684.15,866.71c.02-.34.59-.68,1.44-.9,2.25-.59,4.67-.11,6.97-.37,3.4-.44,6.45-2.45,9.8-1.55,1.63.2,5,2.3,2.11,3.51-1.36.47-2.98.22-4.41.13-4.66-.05-9.35,1.19-14,.2-.67-.14-1.75-.37-1.9-.95v-.08Z"/>
        <path class="cls-90" d="M695.42,867.78c1.54-1.56,5.15-.88,7.29-1.01,2.93.04,5.74-1.84,8.5-1.93,1.63-.38,7.76,1.52,4.79,3.53-.89.43-2.04.44-3.04.43-2.64-.14-5.14.52-7.76.32-2.97-.29-6.02-.49-8.93-.89-.49-.1-.79-.24-.84-.41v-.06Z"/>
        <path class="cls-12" d="M707.87,868.99c1.37-1.48,4.76-.79,6.72-1.04,3.44-.22,6.57-2.42,10.02-2.02,1.11-.16,6.21,2.07,4.06,3.23-.74.28-2.19.15-3.37.34-5.12,1.5-10.4.48-15.61.08-.57-.06-1.62-.16-1.82-.54v-.06Z"/>
        <path class="cls-23" d="M674.21,817.19c-.17.97-1.65,1.35-2.55,1.53-3.17.36-5.92-.49-7.96-2.75-1.28-1.31-.61-2.82,1.22-2.79,2.99.27,5.68,1.9,8.34,3.12.36.18.84.44.93.78l.02.11Z"/>
        <path class="cls-26" d="M727.77,839.59c-.19.82-1.37,1.32-2.13,1.66-2.57.94-5.11,0-6.4-2.3-.83-1.8,2.33-2.33,3.51-1.76,1.46.73,3.86,1.28,4.99,2.31l.02.1Z"/>
        <path class="cls-93" d="M643.25,801.29c-.69,7.23-1.12,14.46-4.03,21.22-1.23,3.72-4.22,5.92-8.3,5.73-23.67.05-47.37-.12-71.05-.1-53.48-.09-106.96,1.68-160.44,1.39-2.06-.02-4.15.09-6.13-.03-1.78-.11-3.01-.39-2.9-.65.27-.47,2.67-.48,3.67-.5,23.39-.07,46.74-.26,70.16.05,8.97.41,14.48-2.01,19.61-9.41,4.5-5.99,8.92-12,13.36-18.02.83-1.21,1.83-2.54,1.96-3.99.13-1.79-1.94-3.1-1.16-3.86,1.03-.78,2.25-.73,3.77-.78,16.23,1.49,32.47-.15,47.14-8.04,4.45-2.41,8.86-5.5,11.03-10.19,2.28-4.72,1.65-11.3-1.74-15.37-3.11-3.91-7.69-6.54-12.13-8.78-8.96-4.45-18.82-5.72-28.74-5.94-7.07-.31-14.24-.19-21.24.63-1.78.26-6.28-.42-2.88-2.22,1.63-.74,3.82-1.06,5.68-1.23,8.87-.35,17.8-.94,26.65.23,1.3.16,2.65.35,3.93.3,4.3.09,6.5-4.02,8.15-7.42,6.97-13.76,13.39-27.84,19.73-42.67.56-1.36,1.35-3.35.53-4.43-67.93-3.12-137.11-.04-204.89-1.09-.67,0-1.33-.01-1.93-.06-1.84-.14-2.91-.67-2.46-1.24.38-.56,2.26-1.08,4.23-1.15,106.15-.79,212.22,1.04,318.32,1.14,3.5-.04,5.52,1.53,4.73,5.14-8.29,26.1-15.43,52.83-23.02,79.19-1.22,3.22-1.57,6.33-1.8,9.44-.17,1.22-.88,2.71-1.58,3.96-1.61,2.89-2.48,6.28-3.55,9.48-.95,3-2.13,5.96-2.66,9.07l-.03.19Z"/>
        <path class="cls-64" d="M490.02,743.77c18.01-2.41,37.6-3.15,54.7,3.73,11.12,4.36,24.32,16.14,16.28,28.78-11.24,15.4-39.68,20.15-57.73,17.6-14.15-1.19-30.68-5.14-39.83-16.76-12.24-17.6,11.82-29.97,26.4-33.31l.19-.04Z"/>
        <path class="cls-86" d="M525.52,486.58c.57-.39,1.92.23,2.7.55,8.88,4.08,17.4,6.84,26.74,7.37,3.69.23,5.22,4.75,2.25,6.99-8.77,3.87-26.02-3.53-31.04-12.38-.42-.68-1.13-1.95-.71-2.48l.05-.05Z"/>
        <path class="cls-17" d="M562.8,505.41c.08.97-.2,2.19-.24,3.22-.36,4.45,4.59,11.4-1.11,14.29-2.84,1.18-8.74,3.86-11.39,1.92-1.41-1.28-1.62-4.1-1.78-5.99-.48-3.7,1.07-6.32,4.38-7.98,1.9-.61,9.07-9.09,10.12-5.6l.02.13Z"/>
        <path class="cls-67" d="M528.79,519.82c-1.23.35-2.36,1.07-3.48,1.68-3.55,2.2-7.29-.22-10.29-2.25-4.03-2.94-8.81-4.82-12.54-8.18-2.74-2.62.06-1.42,1.75-.52,12.3,6.16,25.1,7.69,38.38,4.43,1.05-.24,2.87-.62,3.6-.21.71.5-.26,1.41-.81,1.89-3.49,2.59-7.84,3.94-12.05,3.18-1.44-.26-2.94-.47-4.37-.06l-.19.05Z"/>
        <path class="cls-71" d="M537.02,399.52c-.21.45-1.16.54-1.74.64-5.25.58-10.09,1.36-15.03,1.69-3.28-.05-2.85-2.63-.51-3.94,3.95-2.53,10.76-2.5,15.93.28.52.29,1.36.75,1.36,1.25l-.02.08Z"/>
        <path class="cls-7" d="M478.14,416.35c.61.15.87.94,1.2,1.49.77,1.6,1.95,3.77,1.84,4.72-.06.6-.48.78-1.18.84-.98.06-2.25-.03-3.21.43-2.16.89-3.33,4.03-3.06,6.4.16,1.85,1.03,3.51,2.18,4.97.55.82,2.57,2.6,1.76,3.26-4.88.04-7.89-7.79-6.55-11.95.91-3.22,4.29-5.42,5.68-8.27.38-.61.65-1.62,1.28-1.88h.06Z"/>
        <path class="cls-33" d="M568.91,403.58c-1.82-.29-5.58,1.03-6.25-1.34-.4-3.64,4.99-3.66,7.8-3.36,2.62.17,5.87,1.47,4.55,4.14-1.29,1.55-4.06.36-5.91.57h-.2Z"/>
        <path class="cls-88" d="M549.59,458.02c-.24.29-1.14.3-1.64.3-5.7.03-8.88-2.99-9.64-9.28-.06-.53-.16-1.5.11-1.77.34-.17.78.58,1.03.9,2.5,3.75,5.35,6.65,9.08,8.82.37.24,1.11.61,1.08.97l-.03.06Z"/>
        <path class="cls-81" d="M562.59,413.85c.13-.22.87-.21,1.23-.22,4.2,0,7.76,0,11.93,0,.35.02,1.05.02,1.11.32,0,.3-.64.67-.98.86-4.54,2.47-9.29,1.99-13.3-.91v-.06Z"/>
        <path class="cls-42" d="M561.89,442.03c-1.6,2.42-5.91,2.74-8.57,2.15-1.38-1.06,2.46-2.19,3.33-2.38,1.23-.35,2.37-.78,2.87-1.9.21-.44.41-.97.78-1.27,1.63-.94,1.74,2.31,1.63,3.26l-.05.14Z"/>
        <path class="cls-31" d="M555.89,423.22c2.73,2.3,2.75,6.62,4.26,9.74.52,1.85-1.42,2.1-2.17.59-.54-1.1-5.36-11.35-2.23-10.4l.15.08Z"/>
        <path class="cls-22" d="M526.24,414.34c1.57.13,3.39.11,5.01-.08,1.03-.2,2.37-.11,2.21,1.14-.1.26-.23.54-.43.73-2.57,1.69-5.83,1.65-8.59.38-.75-.34-1.33-1.44-.57-2.06.54-.45,1.39-.23,2.19-.14l.19.02Z"/>
        <path class="cls-24" d="M545.85,515.5c-.57-.66.48-1.78,1.17-2.08,2.54-1.36,5.1-2.72,7.63-4.07,1.14-.63,1.29-.12.6.82-1.51,2.12-4.08,2.69-6.18,3.95-.99.43-2.06,1.57-3.13,1.44l-.09-.06Z"/>
        <path class="cls-82" d="M558.59,434.15c.07-.58.51-2.25,1.18-2.16,1.12,1.12,1.63,3.1,2.17,4.62.34,1.53.9,3.92,0,5.34-.36.14-.92-1.11-1.4-1.91-.93-1.65-1.77-3.91-1.95-5.69v-.19Z"/>
        <path class="cls-76" d="M553.44,420.97c-.9-.8-1.11-2.51-1.69-3.63-.44-1.48-1.58-3.05-1.37-4.65.77-1.42,2.18-.24,2.43.94.65,2.1,2.98,5.66.73,7.36l-.1-.02Z"/>
        <path class="cls-68" d="M552.09,412.25c-.15.28-.45.52-.66.86-.4.54-.4,1.64-.81,1.48-1.39-1.11-1.1-3.58-1.59-5.17-.12-.5.38-.64.69-.57.49.07,1.09.25,1.43.53.76.58,1.2,1.89,1,2.73l-.07.14Z"/>
        <path class="cls-50" d="M553.3,421.02c-.01-1.22,1-3.9,1.89-1.42.61,1.3,1.91,4.87-.9,3.69-.73-.4-.96-1.37-.99-2.1v-.17Z"/>
        <path class="cls-91" d="M526.2,414.48c-.1.16-.84.24-1.29.43-.65.16-1.02.84-1.67.94-1.65-.22-3.26-2.11-.87-2.84,1.33-.26,2.83.61,3.83,1.41v.07Z"/>
        <path class="cls-41" d="M533.49,415.79c-.46-.29-.98-.86-1.63-.98-1.46-.32-1.26-.49-.03-1.13,1.2-.69,2.85-.87,3.64.54.36.85-1.15,1.63-1.83,1.61l-.15-.04Z"/>
        <path class="cls-30" d="M672.94,694.72c-.22-.18-.22-.64-.2-.97.22-1.98.77-4.42,1.73-6.19.6-1.2,1.93-.8,2.99-.62,1.72.32,2.95-1.6,4.52-2.43,5.23-2.25-7.98,10.91-8.97,10.25l-.07-.04Z"/>
        <path class="cls-47" d="M559.3,683.81c-1.04,1.46-3.33,1.56-5.18,1.52-66.93.04-133.86.08-200.79.12-1.63.16-5.25-.59-4.9-1.83.08-.72,1.48-1.4,3.26-1.54,67.34-.52,134.74.63,202.08-.3.64-.13,1.25-.3,1.84-.57,2.28-.89,3-3.72,4.08-4.48.17-.02.28.17.34.35.36,1.1.69,4.99-.63,6.59l-.1.13Z"/>
        <path class="cls-40" d="M628.22,492.94c-.54.31-1.89.04-2.68-.17-7.73-2.17-14.41-6.52-20.58-11.5-.5-.45-1.51-1.18-1.46-1.65.39-.29,1.52.22,2.15.42,7.05,2.72,13.25,7.39,20.04,10.71.71.36,1.6.86,2.13,1.31.45.37.62.67.45.85l-.05.04Z"/>
        <path class="cls-83" d="M662.55,465.96c-.67-.31-1.48-1.29-2-2.02-4.42-6.56-9.65-12.73-12.89-20.02-1.17-2.52-1.41-4.38,1.25-1.3,5.21,6.04,8.82,13.23,13.04,19.96.4.65,2.01,3.58.69,3.42l-.09-.03Z"/>
        <path class="cls-48" d="M706.05,461.32c-.39-.19-.6-1.35-.76-1.95-1.75-8.3-1.19-16.66-.67-24.67.92,7.94,2.4,16.12,1.93,24.56-.06.63-.1,1.82-.46,2.06h-.04Z"/>
        <path class="cls-63" d="M679.8,434.77c.54.38.91,1.36,1.07,2.1,1.06,4.72,2.1,9.48,3.17,14.22.16,1.2,1.54,4.12,0,4.64-.43,0-.91-.46-1.16-.88-2.07-4.97-2.84-10.49-3.77-15.77-.14-.92-1.21-5.02.6-4.37l.1.06Z"/>
        <path class="cls-32" d="M683.17,455.42c.19-.45.48-.88.68-1.38.21-.5.33-.86.5-.8,1.63,2.68,2.3,5.86,1.78,9.18-.08.38-.18.91-.51,1.02-.43.13-1.03-1.15-1.43-2.01-.74-1.75-1.56-4.03-1.08-5.84l.07-.17Z"/>
        <path class="cls-62" d="M661.85,465.59c.14-.36.73-1.05,1.2-1.09.79.08,1.97,1.19,2.23,1.9.33.88-1.46,2.01-2.19,1.78-.28-.12-.47-.55-.65-.95-.22-.52-.54-.97-.6-1.49l.02-.15Z"/>
        <path class="cls-54" d="M680.32,434.66c-.22.39-.81.88-.91,1.44-.24,1.39-.65.99-1.26-.04-1.32-2.33,1.31-4.91,2.21-1.55l-.03.14Z"/>
        <path class="cls-85" d="M621.67,457.68c.39-.09,1.32.55,1.85.86,6.49,4.13,11.83,9.72,16.85,15.39.35.44,1.12,1.22,1.04,1.57-.35.11-1.24-.54-1.73-.83-6.37-4.21-11.91-9.62-16.93-15.32-.37-.46-1.16-1.27-1.11-1.65l.02-.03Z"/>
        <path class="cls-85" d="M597.73,502.77c4.98,2.35,10.17,5.03,14.17,8.91.53.76-.34.58-.94.44-5.31-1.74-10.11-4.94-14.84-7.75-1.24-1.13-.4-2.32,1.42-1.66l.19.07Z"/>
        <path class="cls-59" d="M598.16,503.15c-.05.13-.32.24-.67.39-.92.43-1.78,1.03-2.8.71-2.17-.68-5-2.35-5.26-4.8.17-.27.58-.15.9-.08,2.52.72,5,1.85,7.26,3.18.18.12.58.35.58.53v.07Z"/>
        <path class="cls-73" d="M672.89,683.16c-36.06.55-72.41.08-108.52.17-2.74-.11-2.14-.34.35-.41,35.98.16,72.32-.47,108.18.23h-.02Z"/>
        <path class="cls-17" d="M535.95,534.09c1.61-5,5.34-5.01,10.14-5.59,1.7-.28,3.4-.78,5.1-1,6.47-1.18,7.33,4.69,8.21,9.59.68,3.59,2.27,6.81,3.36,10.32.88,2.61.35,5.08-2.78,5.44-6.8.44-13.83.34-20.62-.03-10.55-.8-5.21-12.26-3.47-18.55l.07-.18Z"/>
        <path class="cls-61" d="M535.75,534.11c.27.36.35,1.05.33,1.58-.16,4.51-2.1,8.87-2.53,13.31-.07.34-.1,1.09-.43,1.04-2.47-4.42.66-9.5,1.38-14.02.14-.6.38-2.42,1.18-1.98l.07.07Z"/>
        <path class="cls-24" d="M528.96,518.72c1.12-1.03,4.2-.56,6.09-1.04,2.6-.41,5.17-1.15,7.74-1.73.82-.16,1.79-.33,2.5.12.91.64.99,1.94,1.22,2.98.42,2.43,1.55,4.91-.28,6.6-4.35,3.16-11.4,1.35-15.93-.96-1.84-1.1-2.79-4.13-1.44-5.88l.1-.1Z"/>
        <path class="cls-38" d="M636.71,827.87c1.32-1.28,2.04,2.1,2.17,3.05.51,3.77-.15,8.22,1.8,10.98,1.06,1.61,3.27,2.6,4.54,3.87,1.93,2.25-4.19,2.38-5.33,1.78-3.12-.85-4.41-4.56-7.4-5.81-2.32-.98-4.83-1.02-7.39-1.09-45.59.18-91.22.26-136.78.05-1.47-.13-2.61-.56-2.87-1.08-.5-1.62,4.02-1.72,5.44-1.66,47.51-.4,95.43.87,142.82-.52,3.11-1.06,1.45-6.86,2.94-9.5l.06-.08Z"/>
        <path class="cls-19" d="M355.24,852.02c12.02-1.18,24.16-2.36,36.27-2.72,25.29.32,50.71-.53,75.94.43,9.02,2.91-11.43,2.41-12.84,2.43-31.43.13-62.86.53-94.14,4.07-3.72.22-7.38-.02-10.9-.11-1.81.02-5.01-.59-5.38-1.7-1-2.58,8.94-1.74,10.85-2.37l.2-.02Z"/>
        <path class="cls-3" d="M449.83,843.2c-4.63-.35-13.96,1.88-12.22-5.91,1.05-3.88,6.78-2.71,10.3-2.87,2.32,0,4.62-.01,6.95-.03,2.06.03,4.55-.08,6.18,1.23,1.83,1.45,1.78,5.08-.09,6.43-2.95,1.88-7.57.9-10.92,1.15h-.19Z"/>
        <path class="cls-25" d="M413.48,843.23c-3.28-.29-8.02.82-10.83-1.14-1.73-1.44-1.71-5.29.1-6.67.74-.6,1.77-.86,2.88-.98,4.14-.23,8.35.06,12.5-.08,4.71-.24,9.16.18,8.23,5.6-.92,4.91-9.11,2.8-12.69,3.27h-.2Z"/>
        <path d="M644.74,846.45c-2.89-.75-6.76-.14-8.76-2.43-1.83-2.35-1.48-5.76-1.47-8.61.13-3.29-.07-6.58.51-9.79,1.2-5.52,3.18-10.94,4.76-16.34.86-2.84,2.68-3.8,5.61-2.52,11.22,4.57,22.54,9.04,33.42,14.41,12.84,4.69,25.06,10.96,37.93,15.65,5.78,2.08,11.23,4.94,16.82,7.43,6.77,2.66,13.61,5.09,20.24,8.15,8.09,4.13,16.77,6.61,24.79,10.87,3.81,1.71,7.5,3.68,11.24,5.61,1.06.54,3.21,1.82,3.09,2.54-.15.94-2.07,1.07-3.1,1.18-8.07.7-16.25-.17-24.29-.36-3.59-.09-7.08-1.01-10.66-1.31-8.86-.3-17.79-.52-26.54-1.94-4.69-.91-9.5-.51-14.19-1.52-4.35-.44-8.7-.65-13.01-1.47-4.16-.08-8.25-.9-12.35-1.4-2.97-.5-9.81,1.1-11.29-1.96-.33-1.5,2.49-2.05,3.91-1.9,12.43.73,24.9,1.45,37.33,2.29,5.57.59,11.1,1.2,16.67,1.46,7.02-.13,14.63-.55,21.63.65.24.03.48.06.7.09,1.22.16,1.88.24,1.64.18-.17-.04-.92-.17-1.97-.31-4.08-.58-8.29-.64-12.55-1.12-4.55-.46-8.95-1.95-13.51-2.19-16.34-.97-32.6-3.26-48.98-3.56-2.46-.01-4.95-.26-7.17-1.36-5.05-2.77-10.02-6.19-15.63-7.66-4.71-1.48-9.79-1.79-14.61-2.75l-.19-.03Z"/>
        <path class="cls-20" d="M353.97,854.52c31.79-3.02,63.8-4.51,95.75-3.94,2.39.07,4.92-.11,7.2.29,1.08.21,1.65.51,1.48.82-1.17,1.2-5.13,1.04-7.03,1.28-6.18.54-12.32.89-18.53,1.2-7.59-.22-15,1.65-22.51,1.97-6.73.47-13.55.39-20.25,1.25-12.98,1.58-26.18,1.93-39.24,3.09-9.1.04-18.26,1.03-27.31,1.8-13.62.4-27.2,1.84-40.85,1.33-9.84-.9,4.18-6.49,6.87-6.83,1.28-.23,2.57-.29,3.88-.22,3.46.33,6.97.95,10.61.94,3.43-.04,6.82-.62,10.23-.92,10.76-.94,21.6-2.03,32.43-1.71,2.38.07,4.76-.05,7.08-.32l.19-.02Z"/>
        <path class="cls-16" d="M434.6,854.07c3.07-1.37,6.76-.93,10.06-.88.4.06.41.21.06.42-3.1,1.49-6.84.68-10.12.49v-.03Z"/>
        <path class="cls-16" d="M452.13,852.84c1.93-1.29,4.81-.85,7.05-1.06,3.28-.01,1.75.96-.36,1.33-1.96.25-4.74.03-6.68-.23v-.05Z"/>
        <path class="cls-56" d="M735.16,862.23c.35-.46,1.75-.37,2.51-.37,8.83.28,17.66,1.85,26.43,3.04.65.12,2,.23,2.22.53-4.36,1.31-29.06.83-31.18-3.15l.02-.05Z"/>
        <path class="cls-56" d="M731.57,864.15c-2.67.16-5.93.8-8.46-.55-.37-.23-.38-.39.07-.44,2.66.06,6.12-.9,8.4.94v.05Z"/>
        <path class="cls-12" d="M735.24,869.57c2.72-.46,5.98-.57,8.65.44.39.18.42.32-.02.38-2.74.09-6.2.87-8.64-.77v-.05Z"/>
      </g>
    </g>
    <path class="cls-5" d="M354.11,854.59c-1.15,1.06-4.28,1.3-6.11,1.52-4.52.32-9.03.06-13.52.5-11.53,1-23.17,1.54-35.2,2.55-.91.05-2.92.26-3.09-.46.79-1.66,4.36-2.03,6.24-2.3,13.31-1.35,26.61-3.39,40.01-3.4,3.38.24,6.83,1.3,10.16,1.23.9.04,1.46.13,1.49.31v.03Z"/>
    <path class="cls-5" d="M356.66,852.09c-3.14,1.96-7.27.82-10.8.94-.56-.04-.53-.21-.05-.44,3.35-1.41,7.35-.69,10.85-.54v.04Z"/>
    <path class="cls-64" d="M413.5,841.87c-2.81-.19-6.66.5-9.32-.67-1.63-.81-1.93-3.21-.6-4.41.83-.79,2.14-.99,3.31-1.06,5.13.02,10.31-.29,15.42.16,2.51.23,3.78,3.43,1.73,5.05-2.88,1.68-7.22.67-10.35.93h-.19Z"/>
  </g>
  <image width="128" height="128" transform="translate(311.75 114.8) scale(.82)" xlink:href="../../../../Downloads/home (2).png"/>
  <circle class="cls-14" cx="196.39" cy="409.61" r="93.39"/>
  <circle class="cls-8" cx="202" cy="404" r="87.77"/>
  <circle class="cls-14" cx="667.9" cy="200.87" r="93.39"/>
  <circle class="cls-8" cx="673.51" cy="195.25" r="87.77"/>
  <rect class="cls-10" x="386.47" y="190.78" width="47.96" height="47.96" rx="23.98" ry="23.98"/>
  <use transform="translate(396.06 201.33) scale(.22)" xlink:href="#image"/>
  <g>
    <path class="cls-39" d="M627.44,138.57c1.2-1.36,3.49-1.56,5.33-1.54,19.8.01,39.58.03,59.39-.05,3.53.05,8.63-.48,9.65,3.85.44,1.27.73,2.69,1.66,3.69,1.35,1.59,4.42,1.29,5.97,2.67,1.78,1.53,1.47,4.39,2.96,6.1,1.64,1.91,5.51,1.38,6.76,3.89.89,1.65.84,4.03.86,5.98-.09,23.77-.15,47.53-.32,71.29,0,6.67,2.22,14.1-7.44,13.59-21.52-.4-43.29.76-64.75-.41-4.54-1.41-1.76-7.51-7.32-8.44-5.43-1.03-3.88-4.59-6.97-7.48-3.41-2.08-7.02-1.43-7.07-6.78-.09-26.8.03-53.7-.03-80.53-.02-1.91.01-4.32,1.23-5.72l.1-.11Z"/>
    <path class="cls-8" d="M697.66,142.38c.16.19.3.4.42.62.49.94.5,2.04.5,3.1.05,25.57.03,51.15-.04,76.72,0,1.18-.05,2.46-.82,3.36-.92,1.06-2.5,1.16-3.91,1.18-19.32.22-38.65.24-57.98.07-1.72-.02-3.59-.08-4.91-1.18-1.72-1.42-1.86-3.95-1.86-6.17-.01-23.27-.03-46.53-.04-69.8,0-3.31-.19-8.52,4-9.18,11.77-.48,23.55-.39,35.32-.3,5.89.05,11.79.1,17.68.07,2.98-.01,9.33-1.23,11.63,1.51Z"/>
    <path class="cls-8" d="M638.19,235.54c-2.09-2.3.69-3.99,3.12-3.91,18.11-.26,36.26.05,54.4-.15,1.82-.07,4.41-.22,5.45-1.52.92-1.04,1.11-3.39,1.18-5.1.14-22.1-.01-44.17.09-66.26.23-2.75-1.01-7.69,2.33-8.66,3.98.08,2.64,6.04,2.89,8.73.1,24.02.16,48.04.21,72.06.01,1.54-.08,3.53-.97,4.63-.93,1.3-3.01,1.53-4.65,1.51-19.57.01-39.2.02-58.78,0-1.75,0-3.93-.09-5.17-1.24l-.1-.09Z"/>
    <path class="cls-8" d="M712.3,158.93c2.58-1.51,3.94,2.5,3.83,4.76.05,24.73-.07,49.44.02,74.18.11,3.16-.31,6.93-4.13,7.28-19.36.51-38.73-.01-58.08.17-1.78,0-3.86.03-5.53-.38-2.92-.66-2.7-3.09-.02-4.02,18.42-1.76,37.3-.12,55.81-.68,7.3.13,6.64-5.28,6.57-10.8-.02-21.89.09-43.8,0-65.68-.03-1.63.15-3.83,1.43-4.75l.1-.07Z"/>
    <path class="cls-6" d="M663.23,222.14c-3.84,0-7.87,0-11.84,0-4.03,0-8.1,0-12.1-.03-1.35-.05-3.85-.16-3.9-1.83.21-1.16,2.53-1.5,3.78-1.46,16.46-.03,33-.03,49.46,0,1.52-.13,5.11.7,3.29,2.48-.93.72-2.39.79-3.59.81-8.22.04-16.75.03-24.92.02h-.18Z"/>
    <path class="cls-45" d="M663.33,213.27c-7.88,0-16.06.02-23.99-.02-1.13-.02-2.47-.09-3.41-.67-.43-.27-.66-.62-.65-.96.13-1.31,2.72-1.67,4.04-1.66,16.33-.06,32.63-.04,48.98,0,1.54-.13,5.87.82,3.66,2.65-.68.43-1.71.59-2.59.62-4.58.05-9.34.04-14,.05-3.97,0-8.02,0-11.86,0h-.18Z"/>
    <path class="cls-60" d="M657.17,203.15c-.5.42-1.53.53-2.29.54-5.56.01-11.19,0-16.77,0-3.63.04-3.65-1.88-.06-2.11,5.52-.39,11.08-.22,16.61-.03.87.02,3.36.38,2.57,1.54l-.07.06Z"/>
    <rect class="cls-9" x="640.08" y="154.17" width="31.46" height="31.46" rx="15.73" ry="15.73"/>
    <use transform="translate(646.37 161.09) scale(.15)" xlink:href="#image"/>
  </g>
  <g>
    <circle class="cls-14" cx="883" cy="442" r="93"/>
    <circle class="cls-8" cx="888.59" cy="436.41" r="87.41"/>
    <rect class="cls-14" x="846" y="444.72" width="13.37" height="26.75"/>
    <rect class="cls-14" x="862.24" y="432.3" width="13.37" height="39.16"/>
    <rect class="cls-14" x="879.44" y="423.7" width="13.37" height="47.76"/>
    <rect class="cls-14" x="895.68" y="413.19" width="13.37" height="58.27"/>
    <rect class="cls-14" x="911.91" y="405.55" width="13.37" height="65.91"/>
    <rect class="cls-10" x="889.94" y="444.72" width="47.76" height="47.76" rx="23.88" ry="23.88"/>
    <use transform="translate(899.5 455.22) scale(.22)" xlink:href="#image"/>
    <path class="cls-15" d="M842.37,425.1c.64-.66,45.45-28.77,45.45-28.77l8.47,7.65,20.67-15.36"/>
    <polygon class="cls-13" points="923.91 383.16 921.89 387.79 919.83 392.39 916.83 388.33 913.88 384.24 918.89 383.68 923.91 383.16"/>
  </g>
  <image width="512" height="512" transform="translate(140.54 348.27) scale(.22)" xlink:href="../../../../Downloads/mobile-chat (1).png"/>
  <ellipse class="cls-78" cx="227.52" cy="411.9" rx="21.97" ry="17.85"/>
  <image width="512" height="512" transform="translate(214.7 399.54) scale(.05)" xlink:href="../../../../Downloads/rupee (6).png"/>
</svg>