<svg width="36" height="33" viewBox="0 0 36 33" fill="none" xmlns="http://www.w3.org/2000/svg">
<g id="carbon:checkbox-checked">
<path id="Vector" d="M28.8458 4.1001H7.00511C6.42586 4.1001 5.87033 4.31081 5.46074 4.68588C5.05115 5.06096 4.82104 5.56966 4.82104 6.1001V26.1001C4.82104 26.6305 5.05115 27.1392 5.46074 27.5143C5.87033 27.8894 6.42586 28.1001 7.00511 28.1001H28.8458C29.425 28.1001 29.9805 27.8894 30.3901 27.5143C30.7997 27.1392 31.0298 26.6305 31.0298 26.1001V6.1001C31.0298 5.56966 30.7997 5.06096 30.3901 4.68588C29.9805 4.31081 29.425 4.1001 28.8458 4.1001ZM7.00511 26.1001V6.1001H28.8458V26.1001H7.00511Z" fill="#D4D4D4"/>
<path id="Vector_2" d="M15.7413 21.6001L10.2811 16.6401L12.0175 15.1001L15.7413 18.4501L23.8333 11.1001L25.5696 12.6801L15.7413 21.6001Z" fill="#D4D4D4"/>
</g>
</svg>
