<svg width="25" height="25" viewBox="0 0 25 25" fill="none" xmlns="http://www.w3.org/2000/svg">
<g id="mingcute:download-fill" clip-path="url(#clip0_303_5224)">
<g id="Group">
<path id="Vector" fill-rule="evenodd" clip-rule="evenodd" d="M12.6478 2.75C12.3826 2.75 12.1283 2.85536 11.9407 3.04289C11.7532 3.23043 11.6478 3.48478 11.6478 3.75V5.75H5.64783C5.11739 5.75 4.60869 5.96071 4.23361 6.33579C3.85854 6.71086 3.64783 7.21957 3.64783 7.75V20.75C3.64783 21.2804 3.85854 21.7891 4.23361 22.1642C4.60869 22.5393 5.11739 22.75 5.64783 22.75H19.6478C20.1783 22.75 20.687 22.5393 21.062 22.1642C21.4371 21.7891 21.6478 21.2804 21.6478 20.75V7.75C21.6478 7.21957 21.4371 6.71086 21.062 6.33579C20.687 5.96071 20.1783 5.75 19.6478 5.75H13.6478V3.75C13.6478 3.48478 13.5425 3.23043 13.3549 3.04289C13.1674 2.85536 12.913 2.75 12.6478 2.75ZM13.6478 5.75V14.578L15.4758 12.75C15.6633 12.5624 15.9177 12.4569 16.183 12.4568C16.4482 12.4567 16.7027 12.562 16.8903 12.7495C17.078 12.937 17.1834 13.1914 17.1835 13.4566C17.1836 13.7219 17.0783 13.9764 16.8908 14.164L13.5308 17.523C13.2964 17.7572 12.9787 17.8887 12.6473 17.8887C12.316 17.8887 11.9982 17.7572 11.7638 17.523L8.40483 14.164C8.31198 14.0711 8.23835 13.9608 8.18813 13.8394C8.1379 13.7181 8.11208 13.588 8.11212 13.4566C8.11217 13.3253 8.13809 13.1952 8.1884 13.0739C8.2387 12.9526 8.31242 12.8423 8.40533 12.7495C8.49824 12.6567 8.60852 12.583 8.72989 12.5328C8.85126 12.4826 8.98133 12.4568 9.11268 12.4568C9.24403 12.4568 9.37408 12.4828 9.49541 12.5331C9.61675 12.5834 9.72698 12.6571 9.81983 12.75L11.6478 14.578V5.75H13.6478Z" fill="white"/>
</g>
</g>
<defs>
<clipPath id="clip0_303_5224">
<rect width="24" height="24" fill="white" transform="translate(0.647827 0.75)"/>
</clipPath>
</defs>
</svg>
