<?xml version="1.0" encoding="UTF-8"?>
<svg id="Layer_1" xmlns="http://www.w3.org/2000/svg" viewBox="0 0 1080 1080">
  <defs>
    <style>
      .cls-1 {
        fill: #042b62;
      }
    </style>
  </defs>
  <path class="cls-1" d="M559.63,81.62c23.77,20.76,29.6,46.68,29.3,77.96-1.45,148.09-.65,296.2-.65,448.58,26.01-15.27,41.93-36.91,60.42-55.21,73.4-72.63,96.21-83.07,125.2-55.22,29.78,28.62,19.67,52.56-52.91,125.16-45.73,45.74-91.29,91.63-137.27,137.11-32.96,32.6-57.51,32.67-90.31.1-60.92-60.47-121.63-121.17-182.09-182.09-28.63-28.85-31.31-57.83-8.52-80.05,22.34-21.78,51.64-18.7,80.03,10.12,32.79,33.3,64.57,67.61,96.78,101.49,3-1.41,6-2.83,9-4.24v-33.07c0-137.57.85-275.16-.64-412.72-.34-31.27,5.43-57.23,29.3-77.94h42.37Z"/>
  <path class="cls-1" d="M86.51,717.11c16.18-21.3,33.76-40.04,64.34-30.2,32.06,10.32,35.71,35.76,35.71,64.82.02,100.93,34.16,134.03,136.22,134.03,148.08,0,296.16.11,444.25-.04,84.63-.09,123.19-38.45,123.56-122.28.24-54.13,14.98-78.59,47.93-79.5,35.23-.98,51.88,24.62,51.86,79.72-.07,139.54-81.6,221.66-220.36,221.75-144.56.09-289.25-3.84-433.63,1.19-125.16,4.36-210.75-41.53-249.88-163.57v-105.91Z"/>
</svg>