<svg width="18" height="18" viewBox="0 0 18 18" fill="none" xmlns="http://www.w3.org/2000/svg">
<g id="ion:mail">
<path id="Vector" d="M14.6621 3.02734H3.63247C3.14509 3.02787 2.67782 3.22171 2.33319 3.56634C1.98855 3.91097 1.79471 4.37824 1.79419 4.86562V12.744C1.79471 13.2313 1.98855 13.6986 2.33319 14.0433C2.67782 14.3879 3.14509 14.5817 3.63247 14.5822H14.6621C15.1495 14.5817 15.6168 14.3879 15.9614 14.0433C16.3061 13.6986 16.4999 13.2313 16.5004 12.744V4.86562C16.4999 4.37824 16.3061 3.91097 15.9614 3.56634C15.6168 3.22171 15.1495 3.02787 14.6621 3.02734ZM14.1967 6.06806L9.46967 9.74462C9.37749 9.81627 9.26406 9.85517 9.14731 9.85517C9.03056 9.85517 8.91713 9.81627 8.82495 9.74462L4.09795 6.06806C4.04241 6.02611 3.99576 5.97355 3.96071 5.91343C3.92566 5.8533 3.90291 5.78681 3.89378 5.71782C3.88465 5.64882 3.88933 5.5787 3.90753 5.51153C3.92574 5.44436 3.95711 5.38148 3.99983 5.32653C4.04255 5.27159 4.09576 5.22569 4.15637 5.19149C4.21699 5.15729 4.28379 5.13548 4.35291 5.12732C4.42202 5.11916 4.49207 5.12482 4.55898 5.14397C4.62589 5.16312 4.68832 5.19537 4.74266 5.23886L9.14731 8.66463L13.552 5.23886C13.6621 5.15569 13.8006 5.11921 13.9374 5.13731C14.0742 5.15542 14.1984 5.22665 14.2831 5.33561C14.3678 5.44457 14.4063 5.58249 14.3901 5.71956C14.3739 5.85662 14.3044 5.98181 14.1967 6.06806Z" fill="white"/>
</g>
</svg>
