<svg width="25" height="24" viewBox="0 0 25 24" fill="none" xmlns="http://www.w3.org/2000/svg">
<g id="radix-icons:eye-open" clip-path="url(#clip0_303_5212)">
<path id="Vector" fill-rule="evenodd" clip-rule="evenodd" d="M12.398 17.5998C8.08275 17.5998 4.44595 15.395 2.15155 11.9998C4.44595 8.6046 8.08275 6.3998 12.398 6.3998C16.7132 6.3998 20.35 8.6046 22.6444 11.9998C20.35 15.395 16.7132 17.5998 12.398 17.5998ZM12.398 4.7998C7.29075 4.7998 3.04755 7.5294 0.519551 11.5758C0.440085 11.703 0.397949 11.8499 0.397949 11.9998C0.397949 12.1497 0.440085 12.2967 0.519551 12.4238C3.04755 16.4702 7.29075 19.1998 12.398 19.1998C17.5052 19.1998 21.7484 16.4702 24.2764 12.4238C24.3558 12.2967 24.398 12.1497 24.398 11.9998C24.398 11.8499 24.3558 11.703 24.2764 11.5758C21.7484 7.5294 17.5052 4.7998 12.398 4.7998ZM12.398 15.1998C13.2466 15.1998 14.0606 14.8627 14.6607 14.2625C15.2608 13.6624 15.598 12.8485 15.598 11.9998C15.598 11.1511 15.2608 10.3372 14.6607 9.73706C14.0606 9.13695 13.2466 8.7998 12.398 8.7998C11.5493 8.7998 10.7353 9.13695 10.1352 9.73706C9.53509 10.3372 9.19795 11.1511 9.19795 11.9998C9.19795 12.8485 9.53509 13.6624 10.1352 14.2625C10.7353 14.8627 11.5493 15.1998 12.398 15.1998Z" fill="black"/>
</g>
<defs>
<clipPath id="clip0_303_5212">
<rect width="24" height="24" fill="white" transform="translate(0.397949)"/>
</clipPath>
</defs>
</svg>
