<?xml version="1.0" encoding="UTF-8"?>
<svg width="379" height="438" id="Layer_1" xmlns="http://www.w3.org/2000/svg" xmlns:xlink="http://www.w3.org/1999/xlink" viewBox="0 0 1080 1080">
  <defs>
    <style>
      .cls-1 {
        fill: #7c7c7c;
      }

      .cls-2 {
        fill: #005478;
      }

      .cls-3, .cls-4 {
        fill: #042b62;
      }

      .cls-5 {
        stroke: #000;
        stroke-linecap: round;
        stroke-linejoin: round;
        stroke-width: .12px;
      }

      .cls-5, .cls-6, .cls-7, .cls-8, .cls-9, .cls-10, .cls-11, .cls-12, .cls-13 {
        isolation: isolate;
      }

      .cls-5, .cls-9, .cls-13 {
        fill: none;
      }

      .cls-5, .cls-11 {
        opacity: .2;
      }

      .cls-14 {
        fill: #263238;
      }

      .cls-15, .cls-8, .cls-12 {
        fill: #fff;
      }

      .cls-16 {
        fill: #f0f0f0;
      }

      .cls-17 {
        fill: #e5e5e5;
      }

      .cls-18 {
        fill: #e0e0e0;
      }

      .cls-7 {
        fill: #3a3a3a;
      }

      .cls-19 {
        fill: #ff773b;
      }

      .cls-8 {
        opacity: .5;
      }

      .cls-9 {
        stroke: url(#linear-gradient);
        stroke-miterlimit: 10;
      }

      .cls-9, .cls-13 {
        opacity: .59;
        stroke-width: 36px;
      }

      .cls-20 {
        fill: #faac6d;
      }

      .cls-21 {
        fill: #efefef;
      }

      .cls-22, .cls-10 {
        opacity: .3;
      }

      .cls-23 {
        fill: #ebebeb;
      }

      .cls-24 {
        fill: #fd504e;
      }

      .cls-12 {
        opacity: .8;
      }

      .cls-4 {
        opacity: .22;
      }

      .cls-13 {
        stroke: url(#linear-gradient-2);
      }
    </style>
    <linearGradient id="linear-gradient" x1="199.31" y1="702.22" x2="923.1" y2="340.32" gradientUnits="userSpaceOnUse">
      <stop offset="0" stop-color="#042b62" stop-opacity=".55"/>
      <stop offset="1" stop-color="#24a7df" stop-opacity="0"/>
    </linearGradient>
    <linearGradient id="linear-gradient-2" x1="346.61" y1="-1765.05" x2="827.92" y2="-1524.39" gradientTransform="translate(0 -1118) scale(1 -1)" xlink:href="#linear-gradient"/>
  </defs>
  <path class="cls-9" d="M372.19,143.24c175.98-117.32,407.1-50.29,513.2,161.9,106.1,212.19,40.81,476.83-135.17,594.15-175.98,117.32-407.1,50.29-513.2-161.9-106.1-212.19-40.81-476.83,135.17-594.15Z"/>
  <path class="cls-13" d="M515.56,299.14c95.97-63.98,224.78-28.6,284.69,91.2,59.9,119.8,22.03,266.31-73.94,330.29-95.97,63.98-224.78,28.6-284.69-91.2-59.91-119.81-22.03-266.31,73.94-330.29Z"/>
  <path class="cls-18" d="M539.11,907.26h-179.42c-3.21,0-5.82-3.01-5.82-6.71v-301.76c0-3.7,2.61-6.72,5.82-6.72h179.42c3.21,0,5.82,3.01,5.82,6.72v301.75c0,3.71-2.61,6.73-5.82,6.73ZM359.69,592.35c-3.07,0-5.57,2.89-5.57,6.43v301.75c0,3.54,2.5,6.43,5.57,6.43h179.42c3.07,0,5.57-2.89,5.57-6.43v-301.75c0-3.54-2.5-6.43-5.57-6.43h-179.42Z"/>
  <path class="cls-18" d="M332.22,907.26h-179.41c-3.21,0-5.82-3.01-5.82-6.71v-301.76c0-3.7,2.61-6.72,5.82-6.72h179.41c3.21,0,5.82,3.01,5.82,6.72v301.75c0,3.71-2.61,6.73-5.82,6.73ZM152.81,592.35c-3.07,0-5.57,2.89-5.57,6.43v301.75c0,3.54,2.5,6.43,5.57,6.43h179.41c3.07,0,5.57-2.89,5.57-6.43v-301.75c0-3.54-2.5-6.43-5.57-6.43h-179.41Z"/>
  <path class="cls-18" d="M594.77,932.85H98.47v.28h496.3v-.28Z"/>
  <path class="cls-18" d="M165.7,949.2h-15.94v.29h15.94v-.29Z"/>
  <path class="cls-18" d="M320.69,946.09h-53.14v.28h53.14v-.28Z"/>
  <path class="cls-18" d="M202.67,959.85h-35.98v.29h35.98v-.29Z"/>
  <path class="cls-18" d="M516.9,945.94h-42.87v.28h42.87v-.28Z"/>
  <path class="cls-18" d="M532.02,945.94h-6.29v.28h6.29v-.28Z"/>
  <path class="cls-18" d="M465.83,953.08h-53.49v.29h53.49v-.29Z"/>
  <path class="cls-18" d="M509.86,736.74c-.08,14.46,9.4,26.26,21.16,26.35l4.19.03.27-52.39-4.19-.04c-11.75-.09-21.35,11.57-21.43,26.04Z"/>
  <path class="cls-23" d="M556.21,747.15c4.9-13.32-.47-28.7-12.01-34.36-11.53-5.66-24.86.54-29.76,13.86-4.9,13.32.47,28.7,12.01,34.36,11.53,5.66,24.86-.55,29.76-13.86Z"/>
  <path class="cls-16" d="M517.18,736.79c-.06,11.59,8.02,21.03,18.05,21.1s18.21-9.26,18.27-20.85c.06-11.59-8.02-21.03-18.06-21.1-10.04-.07-18.21,9.26-18.27,20.85Z"/>
  <path class="cls-18" d="M523.16,720.87c7.67-7.76,19.35-6.88,26.07,1.99,6.72,8.86,5.96,22.35-1.73,30.11,6.24-8.03,6.29-20.18.14-28.3-6.72-8.86-18.4-9.75-26.07-1.99.51-.64,1.03-1.24,1.59-1.81Z"/>
  <path class="cls-2" d="M301.88,1033.92s-8.04-.43-18.54.23c-10.12.64-25.91,2.48-25.91,2.48-.76.4-15.86,2.87-33.19,10.81-.14.06-.25.12-.37.17h38.37s27.95-12.45,39.65-13.69Z"/>
  <path class="cls-17" d="M301.88,1033.92s-8.04-.43-18.54.23c-10.12.64-25.91,2.48-25.91,2.48-.76.4-15.86,2.87-33.19,10.81-.14.06-.25.12-.37.17h38.37s27.95-12.45,39.65-13.69Z"/>
  <path class="cls-1" d="M265.56,1045.83c-.1.04-2.09-2.28-2.7-2.15,0,0-9.14-6.83-4.26-7.18,0,0,17.52-1.21,22.23,3.53l-15.27,5.8Z"/>
  <path class="cls-2" d="M307.37,1047.67s-33.72-11.74-50.47-10.81c-.04-.69,31.32-4.42,44.47-2.71,13.01,1.69,53.73,13.52,53.73,13.52h-47.72Z"/>
  <path class="cls-17" d="M307.37,1047.67s-33.72-11.74-50.47-10.81c-.04-.69,31.32-4.42,44.47-2.71,13.01,1.69,53.73,13.52,53.73,13.52h-47.72Z"/>
  <path class="cls-14" d="M304.02,1043.16c5.39-.7,10.77-1.38,16.16-2.07.43-.05.44-.84,0-.79-5.39.7-10.77,1.38-16.16,2.07-.43.05-.44.85,0,.79Z"/>
  <path class="cls-14" d="M296.79,1040.76c5.39-.69,10.77-1.38,16.16-2.07.43-.05.44-.84,0-.79-5.39.7-10.77,1.38-16.16,2.07-.44.05-.44.84,0,.79Z"/>
  <path class="cls-14" d="M289.53,1038.37c5.39-.69,10.77-1.38,16.16-2.07.43-.05.44-.84,0-.79-5.39.69-10.77,1.38-16.16,2.07-.43.05-.44.84,0,.79Z"/>
  <path class="cls-3" d="M397.36,743.86c.12,1.29-4.82,25.53-3.49,33.85,1.34,8.31,11.21,40.08,9.54,45.25s-22.7-2.02-22.7-2.02l-27.38-119.64c1.67-1.79,18.12-2.9,24.18,2.58.65.59,3.42,3.54,4.13,4.19,5.88,5.4,13.9,15.74,15.72,35.78Z"/>
  <path class="cls-3" d="M427.49,730.23l-23.78,13.74s-2.71-7.63-5.88-15.13c-3.23-7.66-8.9-20.44-15.07-21.35-2.03-.29-4.84-1.12-6.1-.53-9.9,4.61,3.43,34.33,3.43,34.33,0,0,12.1,21.62,17.61,24.55,5.51,2.93,35.06-24.59,35.06-24.59l-5.27-11.03Z"/>
  <g class="cls-22">
    <path d="M395.73,757.14c.66-4.45,1.78-8.72,1.98-13.26.28-6.86-1.31-13.54-4.11-19.58-2.37-5.1-5.52-9.68-8.94-13.89-.3-.37-.78.19-.48.56,5.34,6.59,10.14,14.25,12.04,23.13,1.17,5.42,1.02,10.94.06,16.38-.37,2.15-.87,4.27-1.19,6.43-.08.5.58.73.66.22Z"/>
  </g>
  <path class="cls-14" d="M300.3,1051.48c-.55-1.64-1.37-3.15-2.41-4.45,0,0-1.65-6.75,2.99-20.85l-4.2-4.67c-1.49-1.61-3.7-1.98-5.53-.92-.26.13-.49.32-.69.55-.94,1.19-1.8,2.45-2.59,3.77-2.65,4.54-5.05,9.26-7.2,14.13l.87.62,4.77-8.7c1.63-2.96,1.91,1.94.86,5.56-1.05,3.61-1.55,7.9,4.2,11.85,6.73,4.57,9.74,6.05,8.93,3.11Z"/>
  <path class="cls-20" d="M302.35,1021.02s-1.92,6.58-3.5,14.21c-.98,3.83-1.31,7.84-.96,11.8,0,0-4.8-1.94-5.01-6.52-.21-4.57,2.91-17.63-1.79-19.89.78-.61,1.62-1.11,2.51-1.49,1.33-.68,8.76,1.89,8.76,1.89Z"/>
  <path class="cls-14" d="M386.34,1048.86c-1.18-1.13-2.55-1.98-4.01-2.54,0,0-4.33-4.97-6.35-19.85l-5.67-1.74c-1.98-.57-4.07.34-5.22,2.26-.17.25-.3.55-.36.86-.31,1.56-.52,3.14-.65,4.74-.36,5.43-.43,10.89-.21,16.33l1.03.05.43-10.23c.15-3.49,2.5.63,3.13,4.37.64,3.74,2.05,7.75,8.75,8,7.83.24,11.1-.14,9.14-2.25Z"/>
  <path class="cls-20" d="M375.05,1021.14s1.15,6.81,3.05,14.34c.78,3.89,2.22,7.57,4.23,10.83,0,0-5.02.97-7.18-2.91-2.15-3.88-5.03-17-10.1-16.36.42-.96.94-1.87,1.55-2.69.87-1.33,8.45-3.21,8.45-3.21Z"/>
  <path class="cls-2" d="M386.83,783.29s14.64,41.44,3.02,107.68c-.31,38.57-12.15,132.91-12.15,132.91-3.94,1.27-16.42.4-20.44-.56,0,0-.35-75,2.45-137.82-8.48-64.48-7.91-98.6-7.91-98.6l35.02-3.6Z"/>
  <path class="cls-7" d="M386.83,783.29s14.64,41.44,3.02,107.68c-.31,38.57-12.15,132.91-12.15,132.91-3.94,1.27-16.42.4-20.44-.56,0,0-.35-75,2.45-137.82-8.48-64.48-7.91-98.6-7.91-98.6l35.02-3.6Z"/>
  <path class="cls-2" d="M379.27,785.47s-14.22,84.77-23.86,121.16c-10.12,38.21-48.11,118.09-49.25,120.64-4.62-1.15-14.31-5.75-17.14-8.61,0,0,22.28-77.97,35.36-119.58,2.97-21.33,5-33.81,4.48-56.38-.97-41.85,16.1-59.85,16.1-59.85l34.32,2.62Z"/>
  <path class="cls-7" d="M379.27,785.47s-14.22,84.77-23.86,121.16c-10.12,38.21-48.11,118.09-49.25,120.64-4.62-1.15-14.31-5.75-17.14-8.61,0,0,22.28-77.97,35.36-119.58,2.97-21.33,5-33.81,4.48-56.38-.97-41.85,16.1-59.85,16.1-59.85l34.32,2.62Z"/>
  <path class="cls-11" d="M371.25,830.81l12.15-11.26-10.22,17.4-14.41,71.78.72-19.16,11.77-58.76Z"/>
  <path class="cls-21" d="M389.27,728.95s6.14,15.84,2.28,25.17c-7.83,27.06,1.89,28.27-1.1,33.27-4.48,4.07-32.07,9.53-46.56-3.44,1.93-11.01,2.37-29.92-4.68-61.25-1.53-6.76,2.06-13.64,8-15.37.38-.11.76-.2,1.14-.26,1.74-.28,3.59-.56,5.48-.75,6.62-.87,10.39-.95,17.05-.76,1.15.06.21-.16,3.74.8,0,0,7.05,6.04,9.06,9.68,2.13,3.9,5.5,12.6,5.6,12.92Z"/>
  <path class="cls-14" d="M361.08,648.26s3.69-3.6,8.24-3.36c4,.21,11.56,2.37,14.71,5.41,4.29,4.13,6.97,10.37,5.66,17.35-1.42,7.59-4.71,18.63-8.79,24.6-1.69,2.47-2.98,3.35-5.31,2.52l-1.14,1.24c-7.68.86-8.35,7.92-28.1-15.94-5.79-6.99-2.79-35.61,14.72-31.82Z"/>
  <path class="cls-20" d="M369.97,705.02c-1.16-1.14-.72-3.64-.55-6.04.11-1.86.55-3.8,1.09-5.7l-2.28-2.55-11.79-11.38c.91,8.28,3.41,21.59-1.96,26.66l-3.03.44c1.98,1.54,7.43,9.19,19.21,9.77,6.38.32,4.94-7.12,3.09-10.24-2.92-.71-3.78-.96-3.78-.96Z"/>
  <path class="cls-11" d="M369.22,701.48c-3.14-.65-7.45-4.18-8.37-8.17-.38-1.64-.49-3.29-.45-4.38l9.54,6.07c-.05,1.58-.51,3.78-.72,6.48Z"/>
  <path class="cls-20" d="M354.64,665.06c-.15,12.78-.45,18.17,4.68,25.52,7.71,11.06,21.29,9.38,24.73-2.86,3.1-11.02,2.82-30.07-7.6-36.76-10.26-6.6-21.66,1.32-21.81,14.1Z"/>
  <path class="cls-14" d="M370.05,672.17c-.18,1.41.25,2.69.97,2.87.72.18,1.45-.82,1.63-2.22.18-1.41-.26-2.69-.97-2.87-.72-.19-1.45.81-1.63,2.22Z"/>
  <path class="cls-14" d="M368.61,668.11c.14.05.28.04.42-.04,2.03-1.32,3.8-.21,3.82-.2.26.17.58.06.71-.25.13-.3.02-.69-.24-.87-.09-.06-2.31-1.46-4.83.18-.26.17-.33.55-.18.86.07.17.18.27.31.32Z"/>
  <path class="cls-14" d="M384.56,669.42c.14-.01.26-.08.35-.21.18-.25.14-.64-.11-.87-2.44-2.26-4.84-1.54-4.95-1.5-.29.09-.44.43-.33.75.1.33.42.52.71.43.09-.03,1.96-.56,3.9,1.23.12.14.28.19.42.17Z"/>
  <path class="cls-19" d="M376.7,671.34s1.3,4.96,2.99,8.15c.29.56,0,1.28-.54,1.44-1.43.4-2.98-.32-2.98-.32l.53-9.27Z"/>
  <path class="cls-14" d="M371.24,669.95l2.63-.12s-3.48,1.94-2.63.12Z"/>
  <path class="cls-14" d="M380,673.43c-.18,1.43.25,2.73.96,2.91.72.18,1.46-.84,1.64-2.27.18-1.43-.24-2.73-.96-2.91-.72-.17-1.45.84-1.64,2.27Z"/>
  <path class="cls-14" d="M381.13,671.18l2.63-.11s-2.69,1.66-2.63.11Z"/>
  <path class="cls-14" d="M356.93,687.74c-9.71-9.91-6.73-42.1,12.78-40.42,19.52,1.69,17.06,32.03,17.06,32.03-4.56-19.62-21.16-23.66-21.16-23.66,2.4,10.38-5.96,15.41-5.96,15.41-3.53,5.97-2.22,13.71-2.73,16.64Z"/>
  <path class="cls-20" d="M350.33,674.93c1.07,2.76,3.06,4.66,4.96,5.46,2.87,1.21,4.88-3.98,4.19-7.46-.63-3.13-3.33-5.49-6.26-5.2-2.88.29-4.11,4.05-2.88,7.2Z"/>
  <path class="cls-5" d="M354.94,671.22c-.88-.57-1.94-.02-2.37.8-.51,1.01-.3,3.56,2.48,4.82"/>
  <path class="cls-3" d="M354.89,701.7c.64,4.16,9.4,47.42,10.44,60.15,1.04,12.72-11.22,65.05-14.34,68.38-3.12,3.34-30.16-17.5-29.25-17.8.91-.3,15.18-26.71,17.14-38.08,1.96-11.36-6.45-53.25-6.84-58.09-.39-4.84,11.61-7.07,18.05-10.19l3.26-4.76,1.55.39Z"/>
  <path class="cls-20" d="M332.53,819.99c-.19-.53-.45-1.17-.74-1.87l-2.15-6.27-7.32,2.02c.64,2.5-.06,5.2-.2,7.15-.24,3.14,1.9,5.79,1.67,7.14-.61,3.63-4.01,9.44-2.4,10.53,1.61,1.09,4.61-5.75,4.61-5.75,0,0-2.41,7.76-.88,8.73,2.11,1.34,2.32.35,2.32.35,0,0,.73,1.5,2.11.86.86-.4,3.1-4.92,3.59-11.62,0,0,.29,2.15.48,5.66.08,1.41-.65,3.06-.18,4.69.65,2.29,3.31-1.7,3.3-5.72,0-4.01-2.41-10.99-4.2-15.91Z"/>
  <path class="cls-19" d="M327.47,842.11c.94-2.06,1.87-4.16,2.29-6.45.49-2.65.3-5.37-.06-8.02-.07-.5-.73-.28-.65.21.35,2.56.53,5.21.03,7.76-.43,2.16-1.3,4.14-2.19,6.09-.21.45.38.85.58.4Z"/>
  <path class="cls-19" d="M326.2,833.28c.22-1.12.48-2.23.62-3.36.12-1.04.06-2.09-.38-3.03-.21-.44-.8-.05-.59.4.4.84.4,1.83.27,2.75-.15,1.02-.37,2.03-.57,3.03-.1.49.56.7.66.21Z"/>
  <path class="cls-3" d="M340.89,710.71c-3.67.24-10,2.78-11.21,6.37-4.57,13.45-14.84,37.64-16.74,45.26-1.2,4.83,4.8,54.72,4.8,54.72l16.93-2.04s-4.41-43.94-3.5-46.31c3.39-8.85,13.59-30.03,15.16-38.03,1.57-8.01,3.04-15.38-.85-18.68-1.17-1-3.19-1.36-4.59-1.28Z"/>
  <g class="cls-22">
    <path d="M362.86,747.88c-2.26-3.74-4.47-7.51-6.64-11.3-.96-1.67-2.28-3.49-2.63-5.51-.35-2.02.9-3.64.98-5.58.13-3.2-2.92-4.73-4.19-7.13-1.77-3.34-.99-8.33.08-11.82.15-.49-.51-.68-.66-.21-1,3.25-1.64,7.51-.65,10.85.47,1.59,1.35,2.77,2.38,3.92,1.27,1.41,2.69,2.85,2.25,5.09-.35,1.76-1.2,3.22-.85,5.09.35,1.94,1.54,3.64,2.45,5.26,2.25,3.95,4.54,7.86,6.88,11.74.26.41.85,0,.59-.4Z"/>
  </g>
  <path d="M350.4,796.21c-3.71-2.44-7.43-4.89-11.14-7.32-.38-.25-.73.43-.35.68,3.71,2.44,7.43,4.88,11.14,7.32.38.25.73-.43.35-.68Z"/>
  <path class="cls-14" d="M374.92,685.24c-.97.81-1.9,1.7-2.77,2.66-.17-.15-.34-.28-.52-.44-2.32-2-2.83-3.78-2.68-5.17.09-.67.31-1.31.66-1.87.19-.32.42-.61.67-.85.68,1.89,2.72,3.94,3.85,4.98.5.42.78.69.78.69Z"/>
  <path class="cls-15" d="M374.13,684.53l-.83.76c-2.18-1.88-3.5-3.53-3.69-4.88.19-.32.42-.61.67-.85.69,1.91,2.72,3.94,3.85,4.98Z"/>
  <path class="cls-24" d="M371.66,687.5c-2.32-1.99-2.83-3.78-2.67-5.17.87.78,1.61,1.73,2.2,2.79.36.72.54,1.56.47,2.38Z"/>
  <path class="cls-14" d="M351.4,680.98c-.37-2.19-1.4-4.13-2.4-6.02l-3.39-5.83c-.63-2.44-1.88-4.78-3.84-5.94-1.96-1.15-4.69-.73-5.92,1.36-1.13,1.91-.76,4.49-.21,6.7.94,3.75,2.29,7.35,4.03,10.7,1.09,2.1,2.4,4.17,4.25,5.38,1.85,1.21,4.37,1.35,5.99-.23,1.47-1.44,1.88-3.94,1.5-6.12Z"/>
  <path class="cls-2" d="M352.12,1009.62s-8.68.89-13.8,7.58c-5.12,6.69-30.77,30.47-30.77,30.47l56.62-.22,29.78-37.83h-41.83Z"/>
  <path class="cls-17" d="M352.12,1009.62s-8.68.89-13.8,7.58c-5.12,6.69-30.77,30.47-30.77,30.47l56.62-.22,29.78-37.83h-41.83Z"/>
  <path class="cls-1" d="M346.8,1011.04c12.91,6.96,22.03,15.31,26.29,25.46l5.88-7.85s-14.33-24.96-32.16-17.61Z"/>
  <path class="cls-2" d="M388.58,1047.47s-13.62-33.1-36.46-37.86h44.35c5.82,0,11.09,1.97,13.5,5.02l25.81,32.83h-47.2Z"/>
  <path class="cls-2" d="M388.58,1047.47s-13.62-33.1-36.46-37.86h44.35c5.82,0,11.09,1.97,13.5,5.02l25.81,32.83h-47.2Z"/>
  <g>
    <path class="cls-17" d="M388.58,1047.47s-13.62-33.1-36.46-37.86h44.35c5.82,0,11.09,1.97,13.5,5.02l25.81,32.83h-47.2Z"/>
    <path class="cls-17" d="M388.58,1047.47s-13.62-33.1-36.46-37.86h44.35c5.82,0,11.09,1.97,13.5,5.02l25.81,32.83h-47.2Z"/>
  </g>
  <path class="cls-14" d="M388.04,1036.26c9.64-.48,19.28-.98,28.92-1.46.44-.02.44-.81,0-.79-9.65.48-19.28.98-28.92,1.46-.44.02-.44.81,0,.79Z"/>
  <path class="cls-14" d="M385.54,1030.28c9.65-.48,19.28-.98,28.92-1.46.44-.02.44-.81,0-.79-9.65.48-19.28.98-28.92,1.46-.44.02-.44.81,0,.79Z"/>
  <path class="cls-14" d="M381.7,1024.68c9.64-.49,19.28-.98,28.92-1.46.44-.02.44-.81,0-.79-9.65.49-19.28.98-28.92,1.46-.44.02-.44.81,0,.79Z"/>
  <path class="cls-14" d="M375.81,1018.68c9.65-.48,19.28-.98,28.93-1.46.44-.02.44-.81,0-.79-9.65.48-19.28.98-28.93,1.46-.44.03-.45.82,0,.79Z"/>
  <path class="cls-11" d="M406.57,1011.93l-21.57,28.24,3.26,7.12s10.98-5.58,14.91-12.89c3.94-7.31,4.95-21.51,4.95-21.51l-1.56-.97Z"/>
  <path class="cls-2" d="M477.01,846.06c-8.35-14.84-26.26-26.4-46.48-22.57-20.23,3.84-27.33-12.34-24.13-25.12,4.03-16.13,31.9-74.98,31.94-77.03h-38.44s-44.23,98.75-19.03,117.92c25.2,19.16,46.24,4.56,62.49,29.11,21.91,33.1-42.42,166.19-55.06,178.94-.38.39,47.2,0,47.2,0,26.28-52.75,66.01-157.76,41.54-201.24Z"/>
  <g class="cls-6">
    <path class="cls-17" d="M477.01,846.06c-8.35-14.84-26.26-26.4-46.48-22.57-20.23,3.84-27.33-12.34-24.13-25.12,4.03-16.13,31.9-74.98,31.94-77.03h-38.44s-44.23,98.75-19.03,117.92c25.2,19.16,46.24,4.56,62.49,29.11,21.91,33.1-42.42,166.19-55.06,178.94-.38.39,47.2,0,47.2,0,26.28-52.75,66.01-157.76,41.54-201.24Z"/>
  </g>
  <path class="cls-20" d="M432.97,742.08c.15-.09,4.41-7.85,4.18-10.86-.23-3.02-9.85-7.32-11.2-5.69-1.34,1.64,7.9,4.92,6.56,5.95,0,0-7.61-2.07-8.95.43-1.34,2.5.6,2.93.6,2.93,0,0-1.49,3.28,1.12,4.22,2.61.95,3.66.78,3.52.78s-6.42,1.03-5.22,2.76c1.19,1.73,4.41,1.78,4.44,1.84.04.06-1.54,2.07-1.05,2.31.49.24,1.59,1.54,3.17.42,1.59-1.12,2.86-5.09,2.86-5.09Z"/>
  <path class="cls-14" d="M386.18,827.71c5.91-3.5,11.99-6.6,18.21-9.31.41-.18.23-.94-.18-.76-6.27,2.73-12.4,5.86-18.37,9.38-.39.24-.04.92.35.68Z"/>
  <path class="cls-14" d="M399.89,829.2c2.37-1.68,4.74-3.35,7.11-5.03.37-.26.03-.95-.34-.68-2.38,1.68-4.74,3.35-7.12,5.03-.37.26-.04.94.35.68Z"/>
  <path class="cls-14" d="M438.12,969.36c5.52,2.1,11.02,4.21,16.53,6.31.42.16.6-.6.18-.75-5.52-2.1-11.02-4.21-16.53-6.32-.42-.17-.6.59-.18.76Z"/>
  <path class="cls-1" d="M316.54,1037.29c-.12-.03-15.27,8.38-15.27,8.38l6.26,2,10.47-10.02-1.47-.36Z"/>
  <g class="cls-22">
    <path d="M318.02,816.91c2.77-.11,5.55-.6,8.3-.9,2.69-.31,5.39-.6,8.08-.91.17-.02.36-.17.34-.4-.85-9.75-1.72-19.51-2.57-29.26-.44-4.97-.87-9.94-1.31-14.91-.04-.41-.15-.91-.12-1.32.04-.37.55-1.24.78-1.77,1.38-3.13,2.7-6.3,4.03-9.47,1.81-4.32,3.62-8.65,5.49-12.93,1.38-3.18,2.74-6.42,4.4-9.43.23-.43-.36-.82-.59-.4-3.43,6.2-6,13.12-8.78,19.72-1.45,3.45-2.88,6.89-4.36,10.33-.48,1.12-1.2,2.3-1.55,3.49-.1.35-.09.47-.06.85.81,11.01,1.94,22.01,2.91,33,.36,4.03.71,8.07,1.07,12.1.11-.13.23-.26.35-.4-2.7.3-5.39.61-8.08.9-2.75.3-5.54.8-8.3.9-.45.02-.45.81,0,.79Z"/>
  </g>
  <path class="cls-2" d="M561.48,788.66h-85.57c-2.84,0-5.14-2.66-5.14-5.94v-110.32c0-3.28,2.3-5.94,5.14-5.94h85.57c2.84,0,5.14,2.66,5.14,5.94v110.31c0,3.29-2.3,5.95-5.14,5.95Z"/>
  <path class="cls-3" d="M561.48,788.66h-85.57c-2.84,0-5.14-2.66-5.14-5.94v-110.32c0-3.28,2.3-5.94,5.14-5.94h85.57c2.84,0,5.14,2.66,5.14,5.94v110.31c0,3.29-2.3,5.95-5.14,5.95Z"/>
  <path class="cls-12" d="M557.59,704.1h-76.22c-1,0-1.82-.94-1.82-2.1v-24.97c0-1.16.81-2.1,1.82-2.1h76.22c1,0,1.82.94,1.82,2.1v24.97c0,1.17-.82,2.1-1.82,2.1Z"/>
  <path class="cls-12" d="M504.39,674.92s-19.95,15.28-12.67,15.86c7.3.59,28.06,1.75,24.31,5.97-3.75,4.21-9.31,7.35-9.31,7.35h7.9s21.07-11.18,9.83-14.58c-11.25-3.4-31.71,2.09-29.48-1.53,2.23-3.63,19.45-13.05,19.45-13.05h-10.03Z"/>
  <path class="cls-8" d="M556.79,779.78h-74.62c-1.45,0-2.62-1.35-2.62-3.03v-63.03c0-1.67,1.17-3.03,2.62-3.03h74.62c1.45,0,2.62,1.36,2.62,3.03v63.03c0,1.67-1.17,3.03-2.62,3.03Z"/>
  <path class="cls-15" d="M493.95,710.7v69.6c0,.5.68.5.68,0v-69.6c0-.5-.68-.5-.68,0Z"/>
  <path class="cls-15" d="M510.26,710.7v69.6c0,.5.68.5.68,0v-69.6c0-.5-.68-.5-.68,0Z"/>
  <path class="cls-15" d="M526.58,711.3v69.59c0,.5.68.5.68,0v-69.59c0-.5-.68-.5-.68,0Z"/>
  <path class="cls-15" d="M542.89,711.7v69.6c0,.5.68.5.68,0v-69.6c0-.5-.68-.5-.68,0Z"/>
  <path class="cls-15" d="M479.2,729.79h80.65c.44,0,.44-.79,0-.79h-80.65c-.45,0-.45.79,0,.79Z"/>
  <path class="cls-15" d="M479.2,747.51h80.65c.44,0,.44-.79,0-.79h-80.65c-.45,0-.45.79,0,.79Z"/>
  <path class="cls-15" d="M479.2,765.25h64.04c.44,0,.44-.79,0-.79h-64.04c-.45,0-.45.79,0,.79Z"/>
  <path class="cls-14" d="M506.19,683.1v8.39h-1.02v-7.33h-.05l-2.05,1.36v-1.03l2.1-1.39h1.02ZM511.44,691.61c-.54,0-1.02-.09-1.45-.28-.42-.19-.75-.45-1-.78-.25-.33-.38-.72-.4-1.16h1.03c.02.27.11.5.28.7.16.19.38.34.64.45.27.11.56.16.88.16.36,0,.68-.06.96-.19.28-.12.5-.3.66-.52.16-.23.24-.49.24-.78,0-.31-.08-.58-.23-.82-.15-.24-.38-.42-.67-.56-.29-.13-.66-.2-1.08-.2h-.67v-.9h.67c.33,0,.62-.06.87-.18.25-.12.45-.29.59-.51.15-.22.22-.48.22-.77s-.06-.53-.19-.74c-.13-.21-.3-.37-.53-.49-.23-.12-.49-.18-.8-.18s-.56.05-.82.16c-.26.11-.46.26-.62.45-.16.2-.25.44-.26.71h-.98c.02-.44.15-.83.4-1.16.25-.33.57-.59.97-.78.4-.19.85-.28,1.33-.28.52,0,.96.11,1.34.32.37.21.66.48.86.83.2.34.3.71.3,1.11,0,.47-.13.87-.37,1.21-.24.33-.58.56-1,.69v.06c.53.09.95.31,1.24.67.3.36.45.81.45,1.34,0,.45-.12.87-.37,1.23-.25.36-.58.65-1.01.85-.43.21-.91.31-1.46.31ZM515.75,689.77v-.83l3.69-5.84h.61v1.3h-.41l-2.79,4.41v.07h4.97v.9h-6.06ZM519.7,691.5v-8.39h.97v8.39h-.97ZM523.68,691.56c-.2,0-.38-.07-.52-.22-.15-.15-.22-.32-.22-.52s.07-.37.22-.52.32-.22.52-.22.37.07.52.22c.15.15.22.32.22.52,0,.14-.03.26-.1.37-.06.11-.15.2-.27.27-.11.06-.23.1-.37.1ZM528.59,691.61c-.48,0-.92-.1-1.3-.29-.39-.19-.7-.45-.93-.79-.23-.33-.36-.71-.38-1.14h.98c.04.38.21.7.52.94.31.24.68.37,1.11.37.34,0,.65-.08.92-.24.27-.16.48-.38.64-.66.15-.28.23-.6.23-.96s-.08-.69-.24-.98c-.16-.29-.38-.52-.66-.68-.28-.17-.6-.25-.96-.25-.26,0-.52.04-.79.12-.27.08-.49.18-.67.31l-.95-.11.51-4.13h4.36v.9h-3.51l-.29,2.48h.05c.17-.14.39-.25.65-.34.26-.09.53-.14.81-.14.52,0,.97.12,1.37.37.41.24.72.58.95,1,.23.42.35.91.35,1.45s-.12,1.01-.36,1.43c-.24.42-.57.75-.98.99-.42.24-.89.36-1.43.36ZM535.72,691.61c-.62,0-1.14-.17-1.58-.5-.43-.34-.77-.83-1-1.47-.23-.65-.34-1.42-.34-2.33s.11-1.68.34-2.32c.23-.64.57-1.13,1-1.47.44-.34.96-.51,1.57-.51s1.13.17,1.57.51c.44.34.77.83,1,1.47.23.64.35,1.42.35,2.32s-.11,1.69-.34,2.33c-.23.64-.56,1.13-1,1.47-.44.33-.96.5-1.58.5ZM535.72,690.71c.61,0,1.09-.29,1.43-.88.34-.59.51-1.43.51-2.52,0-.73-.08-1.35-.23-1.86-.15-.51-.37-.9-.66-1.17-.29-.27-.63-.4-1.04-.4-.61,0-1.08.3-1.42.9-.34.59-.51,1.44-.51,2.53,0,.73.07,1.34.23,1.85.15.51.37.89.66,1.16.29.26.64.4,1.04.4ZM542.94,691.61c-.62,0-1.14-.17-1.58-.5-.44-.34-.77-.83-1-1.47-.23-.65-.35-1.42-.35-2.33s.11-1.68.35-2.32.56-1.13,1-1.47c.44-.34.96-.51,1.57-.51s1.13.17,1.57.51c.44.34.77.83,1,1.47.23.64.35,1.42.35,2.32s-.11,1.69-.34,2.33c-.23.64-.56,1.13-1,1.47-.43.33-.96.5-1.58.5ZM542.94,690.71c.61,0,1.09-.29,1.43-.88s.51-1.43.51-2.52c0-.73-.08-1.35-.23-1.86-.15-.51-.37-.9-.66-1.17-.29-.27-.63-.4-1.04-.4-.61,0-1.08.3-1.42.9-.34.59-.51,1.44-.51,2.53,0,.73.08,1.34.23,1.85.15.51.37.89.66,1.16.29.26.64.4,1.04.4Z"/>
  <path class="cls-2" d="M423.51,962.36c13.76,11.85,32.72,9.37,42.36-5.54l3.43-5.31-49.82-42.93-3.43,5.31c-9.64,14.91-6.3,36.6,7.45,48.47Z"/>
  <path class="cls-10" d="M423.51,962.36c13.76,11.85,32.72,9.37,42.36-5.54l3.43-5.31-49.82-42.93-3.43,5.31c-9.64,14.91-6.3,36.6,7.45,48.47Z"/>
  <path class="cls-3" d="M453.23,964.47c16.46-5.63,25.85-25.6,20.98-44.61-4.87-19.01-22.17-29.85-38.63-24.23-16.46,5.63-25.85,25.6-20.98,44.61,4.87,19.01,22.17,29.85,38.63,24.23Z"/>
  <path class="cls-2" d="M463.65,948.2c8.7-12.28,7.14-30.39-3.5-40.43-10.64-10.05-26.32-8.24-35.02,4.04-8.7,12.29-7.14,30.39,3.5,40.44,10.64,10.05,26.32,8.24,35.02-4.05Z"/>
  <path class="cls-4" d="M463.65,948.2c8.7-12.28,7.14-30.39-3.5-40.43-10.64-10.05-26.32-8.24-35.02,4.04-8.7,12.29-7.14,30.39,3.5,40.44,10.64,10.05,26.32,8.24,35.02-4.05Z"/>
  <path class="cls-2" d="M419.17,932.52c-1.17-16.09,9.16-30.23,23.1-31.58,13.93-1.35,26.18,10.58,27.35,26.68-2.6-14.48-14.16-24.43-26.92-23.18-13.93,1.35-24.27,15.5-23.1,31.58-.21-1.16-.35-2.32-.44-3.5Z"/>
  <path class="cls-10" d="M419.17,932.52c-1.17-16.09,9.16-30.23,23.1-31.58,13.93-1.35,26.18,10.58,27.35,26.68-2.6-14.48-14.16-24.43-26.92-23.18-13.93,1.35-24.27,15.5-23.1,31.58-.21-1.16-.35-2.32-.44-3.5Z"/>
  <path class="cls-2" d="M363.41,891.16c-.96,8.58,3.92,16.39,10.91,17.43l2.48.37,3.47-31.1-2.48-.37c-6.98-1.04-13.42,5.08-14.38,13.67Z"/>
  <path class="cls-10" d="M363.41,891.16c-.96,8.58,3.92,16.39,10.91,17.43l2.48.37,3.47-31.1-2.48-.37c-6.98-1.04-13.42,5.08-14.38,13.67Z"/>
  <path class="cls-3" d="M386.84,905.83c-5.94,5.3-14.47,4.03-19.04-2.84-4.59-6.86-3.48-16.7,2.45-21.99,5.94-5.29,14.47-4.02,19.04,2.84,4.58,6.85,3.48,16.69-2.45,21.99Z"/>
  <path class="cls-2" d="M367.76,891.8c-.77,6.88,3.44,13.16,9.39,14.06,5.96.88,11.4-3.97,12.17-10.84.76-6.88-3.44-13.16-9.39-14.06-5.96-.88-11.41,3.97-12.17,10.84Z"/>
  <path class="cls-4" d="M367.76,891.8c-.77,6.88,3.44,13.16,9.39,14.06,5.96.88,11.4-3.97,12.17-10.84.76-6.88-3.44-13.16-9.39-14.06-5.96-.88-11.41,3.97-12.17,10.84Z"/>
  <path class="cls-2" d="M372.32,882.85c5.05-3.97,11.93-2.45,15.37,3.38,3.44,5.83,2.13,13.77-2.93,17.75,4.21-4.24,5.01-11.46,1.88-16.8-3.43-5.83-10.32-7.35-15.37-3.39.33-.33.68-.65,1.05-.94Z"/>
  <path class="cls-10" d="M372.32,882.85c5.05-3.97,11.93-2.45,15.37,3.38,3.44,5.83,2.13,13.77-2.93,17.75,4.21-4.24,5.01-11.46,1.88-16.8-3.43-5.83-10.32-7.35-15.37-3.39.33-.33.68-.65,1.05-.94Z"/>
  <path class="cls-2" d="M441.46,848.57c3.62,13.87,15.7,21.94,26.98,18.02l4.01-1.4-13.1-50.24-4.01,1.4c-11.28,3.93-17.5,18.35-13.87,32.22Z"/>
  <path class="cls-10" d="M441.46,848.57c3.62,13.87,15.7,21.94,26.98,18.02l4.01-1.4-13.1-50.24-4.01,1.4c-11.28,3.93-17.5,18.35-13.87,32.22Z"/>
  <path class="cls-3" d="M488.46,843.17c1.5-14.38-7.39-27.45-19.85-29.18-12.46-1.73-23.77,8.53-25.27,22.92-1.5,14.38,7.39,27.45,19.85,29.18,12.46,1.73,23.77-8.53,25.27-22.92Z"/>
  <path class="cls-2" d="M448.49,846.13c2.89,11.1,13.04,17.4,22.66,14.06,9.62-3.34,15.07-15.06,12.17-26.17-2.89-11.1-13.04-17.4-22.66-14.06-9.63,3.34-15.08,15.07-12.17,26.17Z"/>
  <path class="cls-4" d="M448.49,846.13c2.89,11.1,13.04,17.4,22.66,14.06,9.62-3.34,15.07-15.06,12.17-26.17-2.89-11.1-13.04-17.4-22.66-14.06-9.63,3.34-15.08,15.07-12.17,26.17Z"/>
  <path class="cls-2" d="M450.14,828.86c5.37-10.04,16.77-13.15,25.47-6.96,8.7,6.2,11.39,19.36,6.02,29.41,3.92-9.81.88-21.45-7.09-27.14-8.7-6.2-20.1-3.08-25.47,6.97.32-.79.67-1.54,1.06-2.28Z"/>
  <path class="cls-10" d="M450.14,828.86c5.37-10.04,16.77-13.15,25.47-6.96,8.7,6.2,11.39,19.36,6.02,29.41,3.92-9.81.88-21.45-7.09-27.14-8.7-6.2-20.1-3.08-25.47,6.97.32-.79.67-1.54,1.06-2.28Z"/>
  <path class="cls-3" d="M404.5,1023.42h67.58c2.96,0,5.35-2.79,5.35-6.25s-2.39-6.25-5.35-6.25h-67.58c-2.96,0-5.35,2.79-5.35,6.25,0,3.46,2.4,6.25,5.35,6.25Z"/>
  <path class="cls-3" d="M409.57,1047.95h67.58c2.96,0,5.35-2.79,5.35-6.25s-2.39-6.25-5.35-6.25h-67.58c-2.96,0-5.35,2.79-5.35,6.25s2.39,6.25,5.35,6.25Z"/>
  <path class="cls-2" d="M408.27,1010.73h67.58c2.96,0,5.35-2.79,5.35-6.25s-2.39-6.25-5.35-6.25h-67.58c-2.96,0-5.35,2.79-5.35,6.25,0,3.46,2.39,6.25,5.35,6.25Z"/>
  <path class="cls-4" d="M408.27,1010.73h67.58c2.96,0,5.35-2.79,5.35-6.25s-2.39-6.25-5.35-6.25h-67.58c-2.96,0-5.35,2.79-5.35,6.25,0,3.46,2.39,6.25,5.35,6.25Z"/>
  <path class="cls-2" d="M410.87,1035.59h67.58c2.96,0,5.35-2.79,5.35-6.25s-2.39-6.25-5.35-6.25h-67.58c-2.96,0-5.35,2.79-5.35,6.25s2.39,6.25,5.35,6.25Z"/>
  <path class="cls-4" d="M410.87,1035.59h67.58c2.96,0,5.35-2.79,5.35-6.25s-2.39-6.25-5.35-6.25h-67.58c-2.96,0-5.35,2.79-5.35,6.25s2.39,6.25,5.35,6.25Z"/>
  <path class="cls-3" d="M405.51,998.22h67.58c2.96,0,5.35-2.79,5.35-6.25s-2.39-6.25-5.35-6.25h-67.58c-2.96,0-5.35,2.79-5.35,6.25s2.39,6.25,5.35,6.25Z"/>
  <g class="cls-22">
    <path d="M469.81,987.53v8.76c0,.5.68.5.68,0v-8.76c0-.5-.68-.5-.68,0Z"/>
  </g>
  <g class="cls-22">
    <path d="M462.93,987.54v8.76c0,.5.68.5.68,0v-8.76c0-.51-.68-.51-.68,0Z"/>
  </g>
  <g class="cls-22">
    <path d="M456.49,987.54v8.76c0,.5.68.5.68,0v-8.76c0-.51-.68-.51-.68,0Z"/>
  </g>
  <g class="cls-22">
    <path d="M449.62,987.53v8.76c0,.5.68.5.68,0v-8.76c0-.5-.68-.5-.68,0Z"/>
  </g>
  <g class="cls-22">
    <path d="M443.17,987.54v8.76c0,.5.68.5.68,0v-8.76c0-.51-.68-.51-.68,0Z"/>
  </g>
  <g class="cls-22">
    <path d="M436.3,987.53v8.76c0,.5.68.5.68,0v-8.76c0-.5-.68-.5-.68,0Z"/>
  </g>
  <g class="cls-22">
    <path d="M429.86,987.54v8.76c0,.5.68.5.68,0v-8.76c0-.51-.68-.51-.68,0Z"/>
  </g>
  <g class="cls-22">
    <path d="M422.99,987.54v8.76c0,.5.68.5.68,0v-8.76c0-.51-.68-.51-.68,0Z"/>
  </g>
  <g class="cls-22">
    <path d="M416.55,987.53v8.76c0,.5.68.5.68,0v-8.76c0-.5-.68-.5-.68,0Z"/>
  </g>
  <g class="cls-22">
    <path d="M409.68,987.54v8.76c0,.5.68.5.68,0v-8.76c0-.51-.68-.51-.68,0Z"/>
  </g>
  <g class="cls-22">
    <path d="M472.23,1000.19v8.76c0,.5.68.5.68,0v-8.76c0-.5-.68-.5-.68,0Z"/>
  </g>
  <g class="cls-22">
    <path d="M465.35,1000.19v8.76c0,.5.68.5.68,0v-8.76c0-.5-.68-.5-.68,0Z"/>
  </g>
  <g class="cls-22">
    <path d="M458.9,1000.19v8.76c0,.5.68.5.68,0v-8.76c0-.5-.68-.5-.68,0Z"/>
  </g>
  <g class="cls-22">
    <path d="M452.04,1000.19v8.76c0,.5.68.5.68,0v-8.76c0-.5-.68-.5-.68,0Z"/>
  </g>
  <g class="cls-22">
    <path d="M445.6,1000.19v8.76c0,.5.68.5.68,0v-8.76c0-.5-.68-.5-.68,0Z"/>
  </g>
  <g class="cls-22">
    <path d="M438.73,1000.19v8.76c0,.5.68.5.68,0v-8.76c0-.5-.68-.5-.68,0Z"/>
  </g>
  <g class="cls-22">
    <path d="M432.27,1000.19v8.76c0,.5.68.5.68,0v-8.76c0-.5-.68-.5-.68,0Z"/>
  </g>
  <g class="cls-22">
    <path d="M425.4,1000.19v8.76c0,.5.68.5.68,0v-8.76c0-.5-.68-.5-.68,0Z"/>
  </g>
  <g class="cls-22">
    <path d="M418.96,1000.19v8.76c0,.5.68.5.68,0v-8.76c0-.5-.68-.5-.68,0Z"/>
  </g>
  <g class="cls-22">
    <path d="M412.09,1000.19v8.76c0,.5.68.5.68,0v-8.76c0-.5-.68-.5-.68,0Z"/>
  </g>
  <g class="cls-22">
    <path d="M465.59,1013.03v8.76c0,.5.68.5.68,0v-8.76c0-.5-.68-.5-.68,0Z"/>
  </g>
  <g class="cls-22">
    <path d="M458.72,1013.03v8.76c0,.5.68.5.68,0v-8.76c0-.5-.68-.5-.68,0Z"/>
  </g>
  <g class="cls-22">
    <path d="M452.27,1013.03v8.76c0,.5.68.5.68,0v-8.76c0-.5-.68-.5-.68,0Z"/>
  </g>
  <g class="cls-22">
    <path d="M445.41,1013.04v8.76c0,.5.68.5.68,0v-8.76c0-.51-.68-.51-.68,0Z"/>
  </g>
  <g class="cls-22">
    <path d="M438.96,1013.04v8.76c0,.5.68.5.68,0v-8.76c0-.51-.68-.51-.68,0Z"/>
  </g>
  <g class="cls-22">
    <path d="M432.09,1013.03v8.76c0,.5.68.5.68,0v-8.76c0-.5-.68-.5-.68,0Z"/>
  </g>
  <g class="cls-22">
    <path d="M425.65,1013.04v8.76c0,.5.68.5.68,0v-8.76c0-.51-.68-.51-.68,0Z"/>
  </g>
  <g class="cls-22">
    <path d="M418.78,1013.04v8.76c0,.5.68.5.68,0v-8.76c0-.51-.68-.51-.68,0Z"/>
  </g>
  <g class="cls-22">
    <path d="M412.33,1013.04v8.76c0,.5.68.5.68,0v-8.76c0-.51-.68-.51-.68,0Z"/>
  </g>
  <g class="cls-22">
    <path d="M405.45,1013.03v8.76c0,.5.68.5.68,0v-8.76c0-.5-.68-.5-.68,0Z"/>
  </g>
  <g class="cls-22">
    <path d="M475.71,1025.05v8.76c0,.5.68.5.68,0v-8.76c0-.51-.68-.51-.68,0Z"/>
  </g>
  <g class="cls-22">
    <path d="M468.84,1025.05v8.76c0,.5.68.5.68,0v-8.76c0-.51-.68-.51-.68,0Z"/>
  </g>
  <g class="cls-22">
    <path d="M462.39,1025.05v8.76c0,.5.68.5.68,0v-8.76c0-.51-.68-.51-.68,0Z"/>
  </g>
  <g class="cls-22">
    <path d="M455.53,1025.05v8.76c0,.5.68.5.68,0v-8.76c0-.51-.68-.51-.68,0Z"/>
  </g>
  <g class="cls-22">
    <path d="M449.08,1025.05v8.76c0,.5.68.5.68,0v-8.76c0-.51-.68-.51-.68,0Z"/>
  </g>
  <g class="cls-22">
    <path d="M442.21,1025.05v8.76c0,.5.68.5.68,0v-8.76c0-.51-.68-.51-.68,0Z"/>
  </g>
  <g class="cls-22">
    <path d="M435.77,1025.05v8.76c0,.5.68.5.68,0v-8.76c0-.51-.68-.51-.68,0Z"/>
  </g>
  <g class="cls-22">
    <path d="M428.89,1025.05v8.76c0,.5.68.5.68,0v-8.76c0-.51-.68-.51-.68,0Z"/>
  </g>
  <g class="cls-22">
    <path d="M422.44,1025.05v8.76c0,.5.68.5.68,0v-8.76c0-.51-.68-.51-.68,0Z"/>
  </g>
  <g class="cls-22">
    <path d="M415.58,1025.05v8.76c0,.5.68.5.68,0v-8.76c0-.51-.68-.51-.68,0Z"/>
  </g>
  <g class="cls-22">
    <path d="M472.03,1037.27v8.76c0,.5.68.5.68,0v-8.76c0-.5-.68-.5-.68,0Z"/>
  </g>
  <g class="cls-22">
    <path d="M465.16,1037.27v8.76c0,.5.68.5.68,0v-8.76c0-.5-.68-.5-.68,0Z"/>
  </g>
  <g class="cls-22">
    <path d="M458.72,1037.27v8.76c0,.5.68.5.68,0v-8.76c0-.5-.68-.5-.68,0Z"/>
  </g>
  <g class="cls-22">
    <path d="M451.85,1037.27v8.76c0,.5.68.5.68,0v-8.76c0-.5-.68-.5-.68,0Z"/>
  </g>
  <g class="cls-22">
    <path d="M445.41,1037.27v8.76c0,.5.68.5.68,0v-8.76c0-.5-.68-.5-.68,0Z"/>
  </g>
  <g class="cls-22">
    <path d="M438.54,1037.27v8.76c0,.5.68.5.68,0v-8.76c0-.5-.68-.5-.68,0Z"/>
  </g>
  <g class="cls-22">
    <path d="M432.09,1037.27v8.76c0,.5.68.5.68,0v-8.76c0-.5-.68-.5-.68,0Z"/>
  </g>
  <g class="cls-22">
    <path d="M425.22,1037.27v8.76c0,.5.68.5.68,0v-8.76c0-.5-.68-.5-.68,0Z"/>
  </g>
  <g class="cls-22">
    <path d="M418.78,1037.27v8.76c0,.5.68.5.68,0v-8.76c0-.5-.68-.5-.68,0Z"/>
  </g>
  <g class="cls-22">
    <path d="M411.91,1037.27v8.76c0,.5.68.5.68,0v-8.76c0-.5-.68-.5-.68,0Z"/>
  </g>
  <path class="cls-3" d="M774.78,777.65c30.04-11.63,44.96-45.4,33.33-75.44-11.63-30.04-45.4-44.96-75.44-33.33-30.04,11.63-44.96,45.4-33.33,75.44,11.63,30.04,45.4,44.96,75.44,33.33Z"/>
  <path class="cls-3" d="M811.9,710.25c4.11,10.65,4.96,22.27,2.46,33.41-2.5,11.13-8.25,21.28-16.51,29.14-8.27,7.87-18.68,13.11-29.93,15.05-11.25,1.95-22.81.52-33.25-4.11-10.43-4.63-19.25-12.25-25.35-21.89-6.1-9.65-9.2-20.88-8.92-32.29.29-11.41,3.95-22.48,10.53-31.8,6.58-9.33,15.77-16.49,26.42-20.59,14.27-5.49,30.14-5.09,44.11,1.11,13.98,6.2,24.92,17.7,30.42,31.97Z"/>
  <path class="cls-3" d="M880.92,528.79c.35,10.06-2.29,20-7.59,28.57-5.3,8.56-13.02,15.36-22.18,19.54-9.16,4.18-19.36,5.54-29.3,3.93-9.94-1.62-19.18-6.14-26.54-13.01-7.37-6.87-12.53-15.76-14.84-25.56-2.31-9.8-1.66-20.07,1.86-29.5,3.52-9.43,9.77-17.61,17.94-23.5,8.17-5.88,17.9-9.22,27.97-9.57,6.68-.24,13.35.85,19.61,3.19,6.27,2.34,12.01,5.89,16.9,10.45,4.89,4.56,8.84,10.04,11.61,16.12,2.77,6.09,4.32,12.66,4.55,19.34Z"/>
  <path class="cls-3" d="M882.42,530.86c.33,9.93-2.28,19.73-7.52,28.17-5.24,8.44-12.86,15.14-21.9,19.25-9.04,4.11-19.1,5.45-28.9,3.84-9.8-1.6-18.91-6.08-26.17-12.86-7.26-6.78-12.35-15.56-14.62-25.23-2.27-9.67-1.62-19.79,1.86-29.1,3.48-9.3,9.65-17.36,17.71-23.16,8.06-5.8,17.66-9.08,27.59-9.43,6.6-.23,13.18.84,19.36,3.16,6.18,2.31,11.85,5.83,16.67,10.33,4.83,4.5,8.72,9.92,11.45,15.93,2.73,6.01,4.25,12.5,4.47,19.1Z"/>
</svg>