<?xml version="1.0" encoding="UTF-8"?>
<svg width="48" height="48" id="Layer_1" xmlns="http://www.w3.org/2000/svg" viewBox="0 0 1080 1080">
  <defs>
    <style>
      .cls-1 {
        stroke-width: 14px;
      }

      .cls-1, .cls-2, .cls-3 {
        stroke: #fff;
      }

      .cls-1, .cls-3 {
        fill: none;
        stroke-linecap: round;
        stroke-linejoin: round;
      }

      .cls-2 {
        fill: #042b62;
        stroke-miterlimit: 10;
        stroke-width: 24px;
      }

      .cls-4 {
        fill: #dbdbdb;
      }

      .cls-3 {
        stroke-width: 28px;
      }
    </style>
  </defs>
  <path class="cls-4" d="M533.83,74h0c260.74,0,472.11,211.37,472.11,472.11h0c0,260.74-211.37,472.11-472.11,472.11h0c-260.74,0-472.11-211.37-472.11-472.11h0c0-260.74,211.37-472.11,472.11-472.11Z"/>
  <path class="cls-2" d="M655.68,395.8v47.47-47.47ZM413.58,395.8v47.47-47.47ZM534.62,910.03c200.94,0,363.13-162.98,363.13-364.7s-162.19-363.13-363.13-363.13-364.7,162.19-364.7,363.13,162.98,364.7,364.7,364.7Z"/>
  <path class="cls-3" d="M655.68,395.8v47.47M413.58,395.8v47.47M534.62,910.03c200.94,0,363.13-162.98,363.13-364.7s-162.19-363.13-363.13-363.13-364.7,162.19-364.7,363.13,162.98,364.7,364.7,364.7Z"/>
  <path class="cls-1" d="M764.85,545.61s-93.36,75.01-230.51,75.01-231.53-75.03-231.53-75.03c0,128.06,103.47,231.53,231.53,231.53s230.49-103.47,230.49-231.53"/>
</svg>