<svg width="48" height="48" viewBox="0 0 48 48" fill="none" xmlns="http://www.w3.org/2000/svg">
<path d="M33.612 20.984L28.384 15.755M33.612 15.755L28.384 20.984M19.697 20.984L14.468 15.755M19.697 15.755L14.468 20.984M24.04 42.5C34.255 42.5 42.5 34.215 42.5 23.96C42.5 13.745 34.255 5.5 24.04 5.5C13.785 5.5 5.5 13.745 5.5 23.96C5.5 34.215 13.785 42.5 24.04 42.5Z" stroke="black" stroke-linecap="round" stroke-linejoin="round"/>
<path d="M24.04 35.2614C26.3723 35.2614 28.263 33.3707 28.263 31.0384C28.263 28.7061 26.3723 26.8154 24.04 26.8154C21.7077 26.8154 19.817 28.7061 19.817 31.0384C19.817 33.3707 21.7077 35.2614 24.04 35.2614Z" stroke="black" stroke-linecap="round" stroke-linejoin="round"/>
</svg>
