<svg width="23" height="22" viewBox="0 0 23 22" fill="none" xmlns="http://www.w3.org/2000/svg">
<g clip-path="url(#clip0_19_2181)">
<path d="M19.3 4.89999H16.3V2.39999C16.3 1.09999 15.2 0 13.9 0H9.20001C7.90001 0 6.79999 1.09999 6.79999 2.39999V4.89999H3.79999C1.79999 4.89999 0.0999756 6.60001 0.0999756 8.60001V18.3C0.0999756 20.3 1.79999 22 3.79999 22H19.4C21.4 22 23.1 20.3 23.1 18.3V8.60001C23 6.60001 21.3 4.89999 19.3 4.89999ZM9 2.39999C9 2.29999 9.09998 2.29999 9.09998 2.29999H13.8C13.9 2.29999 13.9 2.39999 13.9 2.39999V4.89999H8.90002V2.39999H9ZM15.8 15H13V17.8H10V15H7.20001V12H10V9.20001H13V12H15.8V15Z" fill="#ccd5e0"/>
</g>
<defs>
<clipPath id="clip0_19_2181">
<rect width="23" height="22" fill="white"/>
</clipPath>
</defs>
</svg>
