<svg width="136" height="150" viewBox="0 0 136 150" fill="none" xmlns="http://www.w3.org/2000/svg">
<g clip-path="url(#clip0_34_3677)">
<g opacity="0.5">
<path d="M114.998 91.3202C117.185 91.3178 119.303 90.562 120.998 89.1802L119.908 87.8502C118.424 89.046 116.551 89.6524 114.648 89.553C112.744 89.4536 110.945 88.6555 109.593 87.3116C108.242 85.9677 107.434 84.1724 107.324 82.2697C107.214 80.367 107.81 78.4907 108.998 77.0002L107.668 75.9102C106.546 77.2973 105.839 78.9736 105.628 80.7454C105.418 82.5172 105.713 84.3124 106.48 85.9237C107.246 87.535 108.453 88.8967 109.96 89.8515C111.467 90.8064 113.214 91.3155 114.998 91.3202Z" fill="#ccd5e0"/>
<path d="M115 74.12C116.466 74.1208 117.901 74.5374 119.14 75.3213C120.379 76.1052 121.37 77.2243 121.998 78.5488C122.626 79.8732 122.866 81.3487 122.689 82.8039C122.513 84.2591 121.927 85.6343 121 86.77L122.33 87.86C123.832 86.0446 124.602 83.7342 124.49 81.3809C124.378 79.0275 123.392 76.8006 121.725 75.1359C120.058 73.4712 117.829 72.4885 115.476 72.3801C113.122 72.2718 110.813 73.0455 109 74.55L110.09 75.88C111.475 74.7444 113.209 74.1226 115 74.12Z" fill="#ccd5e0"/>
<path d="M107.247 55.21H81.457V62.09H107.247V55.21ZM105.537 60.37H83.177V56.93H105.537V60.37Z" fill="#042b62"/>
<path d="M107.257 63.8101H81.457V65.5301H107.257V63.8101Z" fill="#042b62"/>
<path d="M103.817 67.24H81.457V68.96H103.817V67.24Z" fill="#042b62"/>
<path d="M91.7773 80.9999H100.377V70.6799H91.7773V80.9999ZM93.4973 72.3999H98.6573V79.2799H93.4973V72.3999Z" fill="#042b62"/>
<path d="M127.888 81.86C127.887 78.6166 126.658 75.4938 124.448 73.12V54.35C124.449 54.0109 124.384 53.6748 124.254 53.3612C124.125 53.0475 123.935 52.7626 123.695 52.5228C123.456 52.2829 123.171 52.0929 122.857 51.9637C122.543 51.8345 122.207 51.7687 121.868 51.77H77.1581C76.819 51.7687 76.4829 51.8345 76.1693 51.9637C75.8556 52.0929 75.5707 52.2829 75.3309 52.5228C75.091 52.7626 74.901 53.0475 74.7718 53.3612C74.6427 53.6748 74.5768 54.0109 74.5781 54.35V81.86C74.5768 82.1992 74.6427 82.5353 74.7718 82.8489C74.901 83.1625 75.091 83.4475 75.3309 83.6873C75.5707 83.9272 75.8556 84.1171 76.1693 84.2463C76.4829 84.3755 76.819 84.4414 77.1581 84.44H102.358C102.947 87.3339 104.515 89.9366 106.798 91.81L104.868 102.81C104.86 102.859 104.865 102.908 104.883 102.954C104.901 103 104.931 103.04 104.971 103.07C105.01 103.1 105.056 103.118 105.105 103.124C105.154 103.129 105.204 103.121 105.248 103.1L109.688 100.95L112.978 103.85C113.014 103.883 113.057 103.906 113.105 103.916C113.152 103.927 113.202 103.924 113.248 103.909C113.294 103.893 113.335 103.866 113.367 103.829C113.398 103.792 113.42 103.748 113.428 103.7L114.998 94.76L116.558 103.69C116.568 103.736 116.589 103.779 116.62 103.814C116.651 103.849 116.691 103.875 116.735 103.891C116.78 103.906 116.827 103.909 116.873 103.9C116.92 103.891 116.963 103.871 116.998 103.84L120.288 100.94L124.738 103.09C124.782 103.114 124.831 103.125 124.881 103.122C124.93 103.118 124.978 103.101 125.018 103.072C125.058 103.042 125.088 103.002 125.106 102.955C125.124 102.909 125.128 102.859 125.118 102.81L123.188 91.81C124.658 90.6016 125.842 89.0827 126.654 87.3622C127.467 85.6418 127.888 83.7627 127.888 81.86ZM122.728 66.86L109.328 53.46H112.058L122.728 64.13V66.86ZM122.728 54.32V61.7L114.488 53.46H121.868C121.984 53.4585 122.099 53.4808 122.206 53.5254C122.313 53.57 122.41 53.636 122.49 53.7193C122.571 53.8027 122.634 53.9016 122.674 54.0101C122.715 54.1186 122.734 54.2342 122.728 54.35V54.32ZM76.2981 69.32L89.6981 82.72H86.9981L76.2981 72.05V69.32ZM76.2981 81.86V74.48L84.5381 82.72H77.1581C77.0448 82.7214 76.9324 82.7 76.8275 82.6573C76.7225 82.6146 76.6272 82.5513 76.547 82.4711C76.4669 82.391 76.4036 82.2957 76.3609 82.1907C76.3181 82.0858 76.2968 81.9733 76.2981 81.86ZM92.1281 82.72L76.2981 66.89V54.35C76.2968 54.2367 76.3181 54.1243 76.3609 54.0194C76.4036 53.9144 76.4669 53.8191 76.547 53.7389C76.6272 53.6588 76.7225 53.5955 76.8275 53.5528C76.9324 53.51 77.0448 53.4887 77.1581 53.49H106.898L122.728 69.32V71.57C120.818 70.1214 118.54 69.2357 116.153 69.0129C113.766 68.7901 111.364 69.2392 109.218 70.3094C107.073 71.3795 105.269 73.0282 104.011 75.0693C102.753 77.1103 102.09 79.4624 102.098 81.86C102.098 82.15 102.098 82.44 102.098 82.72H92.1281ZM103.818 81.86C103.81 79.6472 104.459 77.4817 105.683 75.6379C106.906 73.7941 108.65 72.3549 110.692 71.5026C112.734 70.6503 114.983 70.4232 117.155 70.85C119.326 71.2769 121.322 72.3385 122.889 73.9004C124.457 75.4624 125.526 77.4544 125.96 79.6242C126.395 81.794 126.176 84.0439 125.331 86.0891C124.486 88.1344 123.053 89.8828 121.214 91.1131C119.374 92.3433 117.211 93 114.998 93C112.041 92.9974 109.205 91.8242 107.11 89.7367C105.015 87.6493 103.831 84.8174 103.818 81.86ZM112.178 100.86L109.998 98.9L107.078 100.31L108.378 92.9C109.883 93.8069 111.557 94.3957 113.298 94.63L112.178 100.86ZM122.938 100.33L119.998 98.9L117.798 100.84L116.708 94.63C118.449 94.3957 120.124 93.8069 121.628 92.9L122.938 100.33Z" fill="#042b62"/>
<path d="M118.179 79.0001V77.9001H111.809V79.0001H113.579C113.936 79 114.284 79.1118 114.575 79.3198C114.866 79.5279 115.084 79.8218 115.199 80.1601H111.809V81.2601H115.199C115.084 81.5985 114.866 81.8924 114.575 82.1005C114.284 82.3085 113.936 82.4203 113.579 82.4201H111.809V83.5201H112.169C112.707 83.5173 113.237 83.6626 113.699 83.9401C115.013 84.7622 115.989 86.0291 116.449 87.5101H117.599C117.141 85.814 116.122 84.3229 114.709 83.2801C115.121 83.1019 115.484 82.8272 115.768 82.4791C116.051 82.131 116.247 81.7198 116.339 81.2801H118.179V80.1801H116.339C116.253 79.7502 116.068 79.3462 115.799 79.0001H118.179Z" fill="#ccd5e0"/>
</g>
<g opacity="0.5">
<path d="M25.2717 37.1399C27.9932 37.1399 30.6535 36.3329 32.9164 34.8209C35.1792 33.3089 36.9428 31.1599 37.9843 28.6456C39.0258 26.1313 39.2983 23.3646 38.7673 20.6954C38.2364 18.0263 36.9259 15.5745 35.0015 13.6501C33.0771 11.7257 30.6253 10.4152 27.9562 9.88427C25.287 9.35334 22.5203 9.62583 20.006 10.6673C17.4917 11.7088 15.3427 13.4724 13.8307 15.7352C12.3187 17.9981 11.5117 20.6584 11.5117 23.3799C11.517 27.0276 12.9684 30.5245 15.5478 33.1038C18.1271 35.6832 21.624 37.1346 25.2717 37.1399ZM25.2717 11.7999C27.562 11.7999 29.8009 12.479 31.7052 13.7515C33.6095 15.0239 35.0938 16.8324 35.9702 18.9484C36.8467 21.0644 37.076 23.3927 36.6292 25.639C36.1824 27.8853 35.0795 29.9487 33.46 31.5682C31.8405 33.1877 29.7772 34.2906 27.5309 34.7374C25.2846 35.1842 22.9562 34.9549 20.8402 34.0784C18.7243 33.2019 16.9157 31.7177 15.6433 29.8134C14.3709 27.9091 13.6917 25.6702 13.6917 23.3799C13.697 20.3103 14.9187 17.3679 17.0893 15.1974C19.2598 13.0269 22.2021 11.8052 25.2717 11.7999Z" fill="#042b62"/>
<path d="M61.2401 31.6298C60.4996 31.6141 59.7692 31.8042 59.1304 32.1792C58.4916 32.5541 57.9694 33.099 57.6221 33.7532C57.2748 34.4075 57.1159 35.1453 57.1632 35.8845C57.2106 36.6237 57.4622 37.3352 57.8901 37.9398L47.7101 48.5098C47.0266 48.0149 46.204 47.7489 45.3601 47.7498C44.7093 47.7471 44.0676 47.9033 43.4908 48.2048C42.914 48.5063 42.4195 48.9439 42.0501 49.4798L35.5201 45.9298C35.7746 45.3243 35.876 44.6655 35.8154 44.0115C35.7549 43.3575 35.5342 42.7285 35.1729 42.18C34.8116 41.6315 34.3209 41.1804 33.7439 40.8666C33.167 40.5527 32.5216 40.3857 31.8649 40.3804C31.2081 40.3751 30.5602 40.5316 29.9782 40.836C29.3963 41.1405 28.8982 41.5836 28.5281 42.1261C28.158 42.6687 27.9271 43.294 27.856 43.947C27.7848 44.5999 27.8756 45.2603 28.1201 45.8698L22.2301 48.9998C21.5746 48.3482 20.7136 47.9437 19.7935 47.8551C18.8734 47.7665 17.951 47.9993 17.1832 48.5139C16.4153 49.0286 15.8494 49.7932 15.5817 50.6779C15.3139 51.5627 15.3608 52.5128 15.7144 53.3668C16.068 54.2209 16.7065 54.9261 17.5213 55.3626C18.3361 55.7991 19.2769 55.9399 20.1838 55.7611C21.0907 55.5824 21.9077 55.095 22.4958 54.382C23.084 53.6689 23.4071 52.7742 23.4101 51.8498C23.406 51.5296 23.3657 51.211 23.2901 50.8998L29.5301 47.6398C30.2034 48.1141 31.0066 48.369 31.8301 48.3698C32.6351 48.3684 33.4216 48.1283 34.0901 47.6798L41.3201 51.6198C41.3201 51.6898 41.3201 51.7698 41.3201 51.8498C41.3201 52.9239 41.7468 53.9541 42.5064 54.7136C43.2659 55.4731 44.296 55.8998 45.3701 55.8998C46.4443 55.8998 47.4744 55.4731 48.2339 54.7136C48.9934 53.9541 49.4201 52.9239 49.4201 51.8498C49.4173 51.3073 49.3086 50.7707 49.1001 50.2698L59.5201 39.3898C60.0586 39.5996 60.6361 39.6902 61.2129 39.6555C61.7897 39.6208 62.3521 39.4614 62.8615 39.1885C63.3708 38.9156 63.815 38.5356 64.1634 38.0746C64.5118 37.6136 64.7562 37.0826 64.8798 36.5181C65.0034 35.9536 65.0032 35.3691 64.8792 34.8047C64.7553 34.2403 64.5105 33.7094 64.1618 33.2487C63.813 32.7879 63.3686 32.4082 62.859 32.1356C62.3495 31.8631 61.787 31.7042 61.2101 31.6698L61.2401 31.6298ZM19.3601 53.6298C18.8642 53.6298 18.3885 53.4328 18.0378 53.0821C17.6872 52.7314 17.4901 52.2558 17.4901 51.7598C17.4901 51.2639 17.6872 50.7882 18.0378 50.4375C18.3885 50.0868 18.8642 49.8898 19.3601 49.8898C19.6814 49.8904 19.9969 49.9746 20.2757 50.1342C20.5545 50.2937 20.7869 50.5231 20.9501 50.7998C21.1219 51.0873 21.215 51.415 21.2201 51.7498C21.2268 51.9987 21.1837 52.2465 21.0933 52.4785C21.003 52.7105 20.8672 52.9221 20.6939 53.101C20.5207 53.2798 20.3134 53.4223 20.0844 53.5199C19.8554 53.6176 19.6091 53.6686 19.3601 53.6698V53.6298ZM30.0001 44.2698C30.0001 43.8995 30.1101 43.5376 30.316 43.2299C30.5219 42.9221 30.8146 42.6825 31.1568 42.5412C31.4991 42.4 31.8756 42.3635 32.2386 42.4365C32.6017 42.5095 32.9348 42.6886 33.196 42.9511C33.4571 43.2136 33.6344 43.5478 33.7054 43.9112C33.7764 44.2746 33.738 44.6509 33.5949 44.9924C33.4518 45.3339 33.2106 45.6253 32.9018 45.8295C32.5929 46.0338 32.2304 46.1418 31.8601 46.1398C31.3659 46.1372 30.8928 45.939 30.5443 45.5886C30.1958 45.2382 30.0001 44.764 30.0001 44.2698ZM45.3901 53.6698C45.0203 53.6698 44.6587 53.5601 44.3512 53.3547C44.0437 53.1492 43.804 52.8571 43.6625 52.5154C43.5209 52.1737 43.4839 51.7977 43.5561 51.435C43.6282 51.0722 43.8063 50.739 44.0678 50.4775C44.3294 50.216 44.6626 50.0379 45.0253 49.9657C45.3881 49.8936 45.7641 49.9306 46.1058 50.0722C46.4475 50.2137 46.7395 50.4534 46.945 50.7609C47.1505 51.0684 47.2601 51.43 47.2601 51.7998C47.2602 52.0479 47.2108 52.2936 47.115 52.5224C47.0191 52.7513 46.8787 52.9588 46.7019 53.1328C46.525 53.3069 46.3153 53.444 46.085 53.5362C45.8546 53.6284 45.6082 53.6738 45.3601 53.6698H45.3901ZM61.2401 37.5398C60.8699 37.5398 60.5079 37.4299 60.2002 37.224C59.8925 37.018 59.6528 36.7254 59.5115 36.3831C59.3703 36.0408 59.3339 35.6643 59.4068 35.3013C59.4798 34.9383 59.6589 34.6051 59.9214 34.344C60.184 34.0829 60.5181 33.9056 60.8815 33.8345C61.2449 33.7635 61.6212 33.802 61.9627 33.945C62.3042 34.0881 62.5956 34.3294 62.7999 34.6382C63.0041 34.947 63.1121 35.3095 63.1101 35.6798C63.1101 35.9249 63.0617 36.1676 62.9676 36.3939C62.8735 36.6202 62.7356 36.8257 62.5618 36.9986C62.388 37.1714 62.1818 37.3082 61.955 37.4011C61.7282 37.494 61.4852 37.5411 61.2401 37.5398Z" fill="#042b62"/>
<path d="M30.0727 18.87V17.21H20.4727V18.87H23.1327C23.6733 18.8722 24.1999 19.0429 24.639 19.3583C25.0781 19.6738 25.408 20.1183 25.5827 20.63H20.4727V22.29H25.5827C25.408 22.8017 25.0781 23.2462 24.639 23.5616C24.1999 23.8771 23.6733 24.0478 23.1327 24.05H20.4727V25.71H21.0027C21.8174 25.7066 22.6182 25.9206 23.3227 26.33C25.3014 27.5753 26.7698 29.487 27.4627 31.72H29.2027C28.508 29.1635 26.972 26.9159 24.8427 25.34C25.4664 25.0664 26.0149 24.6462 26.4414 24.1152C26.868 23.5842 27.16 22.958 27.2927 22.29H30.0727V20.63H27.2927C27.1637 19.99 26.8901 19.3879 26.4927 18.87H30.0727Z" fill="#ccd5e0"/>
</g>
<path fill-rule="evenodd" clip-rule="evenodd" d="M67.9995 7.34001C67.9995 7.34001 55.2495 2.71001 48.8895 11C43.6295 17.83 45.3495 32.22 45.7195 35.23C46.5695 42.16 49.4895 49.77 49.4895 52.23C49.4895 56.11 49.3795 57.8 42.5795 62.32C38.6495 64.94 40.6495 73.97 40.6495 73.97L59.2795 70.41L68.7695 69.86L67.9995 7.34001Z" fill="#413429"/>
<path fill-rule="evenodd" clip-rule="evenodd" d="M66.6684 7.34001C66.6684 7.34001 79.4184 2.71001 85.7784 11C91.0484 17.83 89.3184 32.22 88.9584 35.23C88.1084 42.16 85.1784 49.77 85.1784 52.23C85.1784 56.11 85.2884 57.8 92.0884 62.32C95.9984 64.84 93.9984 73.87 93.9984 73.87L75.3884 70.31L65.8984 69.76L66.6684 7.34001Z" fill="#413429"/>
<path fill-rule="evenodd" clip-rule="evenodd" d="M79.1598 58.07L76.5198 56.85V47.71H59.4998V56.85L56.8398 58L57.5398 81.9H59.4998V85.56H76.5198V81.9H78.4598L79.1598 58.07Z" fill="#E8C0A8"/>
<path fill-rule="evenodd" clip-rule="evenodd" d="M79.4111 58.1299L78.8111 60.4999C77.8111 63.6699 74.9111 68.7599 68.2611 68.7599C60.7511 68.7599 57.8811 62.2299 57.0011 59.3999L56.6611 58.1299C42.8111 63.3299 47.0711 106.66 47.0711 106.66L46.9211 142.66H90.2811L89.7011 106.66C89.7011 106.66 93.2411 63.3199 79.4111 58.1299Z" fill="#FDFEFB"/>
<path fill-rule="evenodd" clip-rule="evenodd" d="M109.732 108.21C111.028 104.24 111.007 99.9572 109.672 96C107.062 88.31 102.092 72.15 100.672 69.07C97.5117 62.2699 92.3317 62.53 79.7917 58.2L78.4417 57.72C77.7017 62.03 67.9817 103.72 67.9817 103.72C67.9817 103.72 58.2917 62 57.5517 57.7L56.2017 58.18C43.6417 62.46 37.1417 62.24 34.0017 69.05C32.6117 72.13 27.6717 88.29 25.0017 95.98C23.6817 99.9498 23.6817 104.24 25.0017 108.21C27.9647 116.737 31.7632 124.95 36.3417 132.73C38.6117 136.11 42.5817 137.33 45.4517 136.38C45.0617 138.2 41.3817 139.55 41.7917 139.55H89.3917C89.8017 139.55 89.6817 138.2 89.2817 136.38C92.1517 137.38 96.1217 136.11 98.3917 132.73C100.942 128.94 106.832 117 109.732 108.21Z" fill="#6847AF"/>
<path fill-rule="evenodd" clip-rule="evenodd" d="M82.7695 31.3001L83.2595 26.0001C83.2595 17.2201 75.4195 10.1001 67.2595 10.1001C59.0995 10.1001 51.2595 17.2201 51.2595 26.0001L51.7295 31.6601C51.2739 31.7743 50.8544 32.0013 50.5095 32.3201C50.1856 32.6332 49.9296 33.0096 49.7576 33.426C49.5855 33.8423 49.5011 34.2897 49.5095 34.7401V38.0001C49.4824 38.8121 49.7773 39.6019 50.3298 40.1975C50.8823 40.7931 51.6478 41.1463 52.4595 41.1801C52.4595 49.4701 61.7795 56.3001 67.3395 56.3001C72.8995 56.3001 82.2095 49.1401 82.2095 40.8501C82.6158 40.8398 83.016 40.7491 83.387 40.5834C83.7581 40.4177 84.0927 40.1803 84.3716 39.8847C84.6504 39.5891 84.868 39.2412 85.0118 38.8611C85.1557 38.481 85.2229 38.0763 85.2095 37.6701V34.4101C85.2207 33.6906 84.9845 32.9891 84.5403 32.423C84.0962 31.8568 83.471 31.4604 82.7695 31.3001Z" fill="#E8C0A8"/>
<path fill-rule="evenodd" clip-rule="evenodd" d="M67.21 56.3501V41.6701H65C65.82 37.5301 66.56 37.6701 67.22 33.2901V10.1101C75.42 10.1101 83.22 17.2301 83.22 26.0101L82.74 31.2401C83.4039 31.432 83.9856 31.8382 84.3944 32.3953C84.8032 32.9525 85.0161 33.6293 85 34.3201V37.6201C85.0133 38.0263 84.9461 38.431 84.8023 38.8111C84.6585 39.1912 84.4409 39.5391 84.162 39.8347C83.8832 40.1303 83.5486 40.3678 83.1775 40.5334C82.8064 40.6991 82.4062 40.7898 82 40.8001V42.8001V42.9401V43.4201C81.9193 44.2487 81.7517 45.0665 81.5 45.8601V46.0201C79.37 52.7501 72 56.2801 67.26 56.2801" fill="#E09F84"/>
<path fill-rule="evenodd" clip-rule="evenodd" d="M60.6585 35.3799C60.429 35.3977 60.1983 35.3679 59.9809 35.2923C59.7635 35.2167 59.564 35.0969 59.3951 34.9406C59.2261 34.7842 59.0913 34.5947 58.9992 34.3837C58.907 34.1728 58.8594 33.9451 58.8594 33.7149C58.8594 33.4847 58.907 33.257 58.9992 33.0461C59.0913 32.8352 59.2261 32.6456 59.3951 32.4892C59.564 32.3329 59.7635 32.2132 59.9809 32.1376C60.1983 32.062 60.429 32.0321 60.6585 32.0499H60.7185C61.1378 32.0824 61.5294 32.272 61.815 32.5806C62.1007 32.8893 62.2594 33.2944 62.2594 33.7149C62.2594 34.1355 62.1007 34.5406 61.815 34.8492C61.5294 35.1579 61.1378 35.3474 60.7185 35.3799" fill="#DD977B"/>
<path fill-rule="evenodd" clip-rule="evenodd" d="M62.3189 33.2299C62.3307 33.5584 62.2446 33.8829 62.0717 34.1624C61.8988 34.4419 61.6468 34.6638 61.3477 34.8C61.0486 34.9362 60.7157 34.9805 60.3914 34.9273C60.0671 34.8741 59.7658 34.7258 59.5258 34.5013C59.2858 34.2767 59.1179 33.986 59.0433 33.6659C58.9687 33.3458 58.9908 33.0108 59.1068 32.7033C59.2228 32.3958 59.4275 32.1296 59.6949 31.9385C59.9623 31.7474 60.2804 31.64 60.6089 31.6299C60.8273 31.6206 61.0453 31.6547 61.2504 31.7303C61.4555 31.8059 61.6435 31.9215 61.8035 32.0703C61.9635 32.2192 62.0924 32.3983 62.1826 32.5974C62.2728 32.7965 62.3225 33.0115 62.3289 33.2299" fill="#2C170A"/>
<path fill-rule="evenodd" clip-rule="evenodd" d="M61.5713 32.6199C61.574 32.6557 61.5693 32.6917 61.5575 32.7256C61.5457 32.7594 61.527 32.7905 61.5025 32.8168C61.4781 32.8431 61.4485 32.8641 61.4156 32.8784C61.3827 32.8927 61.3471 32.9 61.3113 32.8999C61.2758 32.9012 61.2404 32.8956 61.2071 32.8832C61.1739 32.8709 61.1434 32.8521 61.1174 32.8279C61.0913 32.8038 61.0704 32.7748 61.0556 32.7425C61.0408 32.7102 61.0325 32.6754 61.0313 32.6399C61.0311 32.569 61.0578 32.5006 61.1061 32.4487C61.1543 32.3967 61.2205 32.365 61.2913 32.3599C61.327 32.3571 61.363 32.3618 61.3969 32.3736C61.4308 32.3855 61.4619 32.4042 61.4882 32.4286C61.5145 32.453 61.5354 32.4826 61.5497 32.5156C61.564 32.5485 61.5714 32.584 61.5713 32.6199Z" fill="#FDFEFB"/>
<path fill-rule="evenodd" clip-rule="evenodd" d="M73.2796 35.3799C73.0501 35.3977 72.8194 35.3679 72.602 35.2923C72.3846 35.2167 72.1851 35.0969 72.0162 34.9406C71.8472 34.7842 71.7124 34.5947 71.6202 34.3837C71.5281 34.1728 71.4805 33.9451 71.4805 33.7149C71.4805 33.4847 71.5281 33.257 71.6202 33.0461C71.7124 32.8352 71.8472 32.6456 72.0162 32.4892C72.1851 32.3329 72.3846 32.2132 72.602 32.1376C72.8194 32.062 73.0501 32.0321 73.2796 32.0499H73.3396C73.7589 32.0824 74.1505 32.272 74.4361 32.5806C74.7218 32.8893 74.8805 33.2944 74.8805 33.7149C74.8805 34.1355 74.7218 34.5406 74.4361 34.8492C74.1505 35.1579 73.7589 35.3474 73.3396 35.3799" fill="#DD977B"/>
<path fill-rule="evenodd" clip-rule="evenodd" d="M74.9401 33.2299C74.9517 33.5579 74.8658 33.882 74.6933 34.1613C74.5208 34.4405 74.2694 34.6623 73.9708 34.7987C73.6723 34.9351 73.34 34.9799 73.016 34.9275C72.692 34.8751 72.3908 34.7278 72.1505 34.5042C71.9101 34.2807 71.7415 33.9909 71.6658 33.6715C71.5901 33.3521 71.6109 33.0175 71.7253 32.7098C71.8398 32.4022 72.0429 32.1354 72.3089 31.9432C72.575 31.751 72.892 31.642 73.22 31.6299C73.443 31.6136 73.6669 31.6425 73.8783 31.7149C74.0898 31.7872 74.2845 31.9015 74.4507 32.0509C74.6169 32.2003 74.7513 32.3818 74.8457 32.5844C74.9401 32.787 74.9926 33.0065 75 33.2299" fill="#2C170A"/>
<path fill-rule="evenodd" clip-rule="evenodd" d="M74.1884 32.6199C74.1912 32.6557 74.1865 32.6917 74.1747 32.7256C74.1629 32.7594 74.1442 32.7905 74.1197 32.8168C74.0953 32.8431 74.0657 32.8641 74.0328 32.8784C73.9999 32.8927 73.9643 32.9 73.9284 32.8999C73.893 32.9012 73.8576 32.8956 73.8243 32.8832C73.7911 32.8709 73.7605 32.8521 73.7345 32.8279C73.7085 32.8038 73.6875 32.7748 73.6728 32.7425C73.658 32.7102 73.6497 32.6754 73.6484 32.6399C73.6483 32.569 73.675 32.5006 73.7233 32.4487C73.7715 32.3967 73.8377 32.365 73.9084 32.3599C73.9442 32.3571 73.9802 32.3618 74.0141 32.3736C74.048 32.3855 74.0791 32.4042 74.1054 32.4286C74.1317 32.453 74.1526 32.4826 74.1669 32.5156C74.1812 32.5485 74.1885 32.584 74.1884 32.6199Z" fill="#FDFEFB"/>
<path fill-rule="evenodd" clip-rule="evenodd" d="M112.51 136.38H23.5099C22.6502 136.346 21.7924 136.486 20.9881 136.791C20.1837 137.097 19.4494 137.562 18.829 138.158C18.2087 138.754 17.7152 139.47 17.3781 140.261C17.041 141.053 16.8672 141.905 16.8672 142.765C16.8672 143.625 17.041 144.477 17.3781 145.269C17.7152 146.06 18.2087 146.776 18.829 147.372C19.4494 147.968 20.1837 148.433 20.9881 148.739C21.7924 149.044 22.6502 149.184 23.5099 149.15H112.51C113.37 149.184 114.227 149.044 115.032 148.739C115.836 148.433 116.57 147.968 117.191 147.372C117.811 146.776 118.305 146.06 118.642 145.269C118.979 144.477 119.153 143.625 119.153 142.765C119.153 141.905 118.979 141.053 118.642 140.261C118.305 139.47 117.811 138.754 117.191 138.158C116.57 137.562 115.836 137.097 115.032 136.791C114.227 136.486 113.37 136.346 112.51 136.38Z" fill="#5D5B63"/>
<path fill-rule="evenodd" clip-rule="evenodd" d="M101.871 136.45H34.1412C33.7385 136.464 33.3453 136.326 33.0401 136.063C32.7349 135.8 32.5401 135.432 32.4946 135.032C32.4491 134.631 32.5564 134.229 32.7949 133.904C33.0334 133.579 33.3856 133.356 33.7812 133.28H101.871C102.291 133.33 102.674 133.544 102.936 133.876C103.199 134.208 103.319 134.63 103.271 135.05C103.227 135.406 103.065 135.737 102.812 135.991C102.558 136.244 102.227 136.406 101.871 136.45Z" fill="#9D9D9C"/>
<path fill-rule="evenodd" clip-rule="evenodd" d="M99.2308 133.39H36.7708C35.6516 133.39 34.5782 132.945 33.7868 132.154C32.9954 131.363 32.5508 130.289 32.5508 129.17V86.17C32.5508 85.0507 32.9954 83.9774 33.7868 83.186C34.5782 82.3946 35.6516 81.95 36.7708 81.95H99.2308C100.35 81.95 101.423 82.3946 102.215 83.186C103.006 83.9774 103.451 85.0507 103.451 86.17V129.17C103.451 130.289 103.006 131.363 102.215 132.154C101.423 132.945 100.35 133.39 99.2308 133.39Z" fill="#D6D6D1"/>
<path fill-rule="evenodd" clip-rule="evenodd" d="M68.0014 111.81C66.8539 111.812 65.7315 111.473 64.7764 110.837C63.8213 110.201 63.0763 109.296 62.6358 108.236C62.1953 107.177 62.079 106.01 62.3016 104.885C62.5243 103.759 63.0759 102.724 63.8867 101.912C64.6974 101.1 65.7308 100.547 66.8562 100.322C67.9816 100.098 69.1483 100.212 70.2087 100.651C71.269 101.089 72.1755 101.833 72.8132 102.787C73.451 103.741 73.7914 104.862 73.7914 106.01C73.7927 106.771 73.6439 107.525 73.3535 108.229C73.0632 108.932 72.6369 109.572 72.0991 110.111C71.5613 110.649 70.9226 111.077 70.2195 111.368C69.5163 111.66 68.7626 111.81 68.0014 111.81Z" fill="#EBEAE7"/>
<path fill-rule="evenodd" clip-rule="evenodd" d="M35.7908 133.27H34.7308C34.1235 133.081 33.5918 132.705 33.2126 132.194C32.8333 131.684 32.6261 131.066 32.6208 130.43V129.17C32.62 130.119 32.9396 131.04 33.5277 131.784C34.1157 132.528 34.9378 133.052 35.8608 133.27M32.5508 86.1401V84.8701C32.5508 84.0745 32.8669 83.3114 33.4295 82.7488C33.9921 82.1862 34.7551 81.8701 35.5508 81.8701H36.8208C35.7016 81.8701 34.6282 82.3147 33.8368 83.1061C33.0454 83.8975 32.6008 84.9709 32.6008 86.0901" fill="#5D5B63"/>
<path fill-rule="evenodd" clip-rule="evenodd" d="M45.7205 133.39H35.5605C35.2795 133.39 34.9999 133.35 34.7305 133.27H35.7905C36.1174 133.352 36.4534 133.392 36.7905 133.39H45.7405" fill="#AEAEAB"/>
<path fill-rule="evenodd" clip-rule="evenodd" d="M45.7208 133.39H36.7708C35.6516 133.39 34.5782 132.945 33.7868 132.154C32.9954 131.363 32.5508 130.289 32.5508 129.17V86.17C32.5508 85.0507 32.9954 83.9774 33.7868 83.186C34.5782 82.3946 35.6516 81.95 36.7708 81.95H87.3308C76.0328 85.366 66.0234 92.101 58.6029 101.28C51.1825 110.459 46.694 121.657 45.7208 133.42" fill="#DDDDD8"/>
<path fill-rule="evenodd" clip-rule="evenodd" d="M55.1383 28.9101C55.8452 28.7514 56.5646 28.6544 57.2883 28.6201C59.0849 28.6103 60.8589 29.0213 62.4683 29.8201C62.7973 29.7218 63.1034 29.5586 63.3683 29.3401C63.3823 29.3253 63.3902 29.3056 63.3902 29.2851C63.3902 29.2647 63.3823 29.245 63.3683 29.2301C62.2016 28.5678 60.8894 28.2036 59.5483 28.1701C58.0414 28.0521 56.5257 28.2148 55.0783 28.6501C54.9383 28.6501 54.8983 28.7901 54.9783 28.8601C55.0322 28.895 55.0942 28.9157 55.1583 28.9201" fill="#413429"/>
<path fill-rule="evenodd" clip-rule="evenodd" d="M77.7291 28.91C77.0222 28.7513 76.3028 28.6543 75.5791 28.62C73.7825 28.6102 72.0085 29.0212 70.3991 29.82C70.0671 29.7217 69.7578 29.5586 69.4891 29.34C69.4784 29.3237 69.4727 29.3046 69.4727 29.285C69.4727 29.2655 69.4784 29.2464 69.4891 29.23C70.6552 28.5661 71.9677 28.2019 73.3091 28.17C74.816 28.0531 76.3315 28.2159 77.7791 28.65C77.9191 28.65 77.9591 28.79 77.8791 28.86C77.8245 28.8935 77.7629 28.914 77.6991 28.92" fill="#413429"/>
<path fill-rule="evenodd" clip-rule="evenodd" d="M46.4517 20.7399L66.2217 23.3699L67.1517 15.4699L68.0017 23.3699C68.0017 23.3699 87.2517 21.9999 88.0917 20.9999C88.9317 19.9999 89.2617 13.1899 84.0917 7.32993C82.065 4.96464 79.5375 3.07982 76.6924 1.81204C73.8472 0.544258 70.7557 -0.0747277 67.6417 -6.9866e-05C57.3017 -6.9866e-05 51.2117 5.14993 48.8917 9.62993C45.7017 15.8199 46.4517 20.7399 46.4517 20.7399Z" fill="#413429"/>
<path fill-rule="evenodd" clip-rule="evenodd" d="M62.5219 46.75C62.5067 46.6807 62.5085 46.6088 62.5271 46.5405C62.5457 46.4721 62.5805 46.4092 62.6286 46.3571C62.6768 46.3051 62.7367 46.2654 62.8035 46.2416C62.8702 46.2177 62.9417 46.2103 63.0119 46.22C63.9319 46.22 65.7419 46.31 67.1419 46.31C68.5419 46.31 70.4519 46.25 71.4119 46.22C71.4816 46.2125 71.5521 46.2215 71.6178 46.2462C71.6834 46.2708 71.7424 46.3105 71.79 46.3619C71.8376 46.4134 71.8725 46.4753 71.8919 46.5427C71.9113 46.6101 71.9148 46.681 71.9019 46.75C71.6019 47.75 70.5819 49.94 67.2119 49.94C63.8419 49.94 62.8219 47.79 62.5219 46.75Z" fill="#A23916"/>
<path d="M51.2783 42.4799C52.2669 42.4799 53.0683 41.6785 53.0683 40.6899C53.0683 39.7013 52.2669 38.8999 51.2783 38.8999C50.2897 38.8999 49.4883 39.7013 49.4883 40.6899C49.4883 41.6785 50.2897 42.4799 51.2783 42.4799Z" fill="#FDFEFB"/>
<path d="M83.3291 42.4799C84.3177 42.4799 85.1191 41.6785 85.1191 40.6899C85.1191 39.7013 84.3177 38.8999 83.3291 38.8999C82.3405 38.8999 81.5391 39.7013 81.5391 40.6899C81.5391 41.6785 82.3405 42.4799 83.3291 42.4799Z" fill="#FDFEFB"/>
</g>
<defs>
<clipPath id="clip0_34_3677">
<rect width="136" height="149.15" fill="white"/>
</clipPath>
</defs>
</svg>
