<svg width="136" height="150" viewBox="0 0 136 150" fill="none" xmlns="http://www.w3.org/2000/svg">
<g clip-path="url(#clip0_34_3413)">
<g opacity="0.5">
<path d="M114.998 91.3202C117.185 91.3178 119.303 90.562 120.998 89.1802L119.908 87.8502C118.424 89.046 116.551 89.6524 114.648 89.553C112.744 89.4536 110.945 88.6555 109.593 87.3116C108.242 85.9677 107.434 84.1724 107.324 82.2697C107.214 80.367 107.81 78.4907 108.998 77.0002L107.668 75.9102C106.546 77.2973 105.839 78.9736 105.628 80.7454C105.418 82.5172 105.713 84.3124 106.48 85.9237C107.246 87.535 108.453 88.8967 109.96 89.8515C111.467 90.8064 113.214 91.3155 114.998 91.3202Z" fill="#2EC9FF"/>
<path d="M115 74.12C116.466 74.1208 117.901 74.5374 119.14 75.3213C120.379 76.1052 121.37 77.2243 121.998 78.5488C122.626 79.8732 122.866 81.3487 122.689 82.8039C122.513 84.2591 121.927 85.6343 121 86.77L122.33 87.86C123.832 86.0446 124.602 83.7342 124.49 81.3809C124.378 79.0275 123.392 76.8006 121.725 75.1359C120.058 73.4712 117.829 72.4885 115.476 72.3801C113.122 72.2718 110.813 73.0455 109 74.55L110.09 75.88C111.475 74.7444 113.209 74.1226 115 74.12Z" fill="#2EC9FF"/>
<path d="M107.247 55.21H81.457V62.09H107.247V55.21ZM105.537 60.37H83.177V56.93H105.537V60.37Z" fill="#042b62"/>
<path d="M107.257 63.8101H81.457V65.5301H107.257V63.8101Z" fill="#042b62"/>
<path d="M103.817 67.24H81.457V68.96H103.817V67.24Z" fill="#042b62"/>
<path d="M91.7773 80.9999H100.377V70.6799H91.7773V80.9999ZM93.4973 72.3999H98.6573V79.2799H93.4973V72.3999Z" fill="#042b62"/>
<path d="M127.888 81.86C127.887 78.6166 126.658 75.4938 124.448 73.12V54.35C124.449 54.0109 124.384 53.6748 124.254 53.3612C124.125 53.0475 123.935 52.7626 123.695 52.5228C123.456 52.2829 123.171 52.0929 122.857 51.9637C122.543 51.8345 122.207 51.7687 121.868 51.77H77.1581C76.819 51.7687 76.4829 51.8345 76.1693 51.9637C75.8556 52.0929 75.5707 52.2829 75.3309 52.5228C75.091 52.7626 74.901 53.0475 74.7718 53.3612C74.6427 53.6748 74.5768 54.0109 74.5781 54.35V81.86C74.5768 82.1992 74.6427 82.5353 74.7718 82.8489C74.901 83.1625 75.091 83.4475 75.3309 83.6873C75.5707 83.9272 75.8556 84.1171 76.1693 84.2463C76.4829 84.3755 76.819 84.4414 77.1581 84.44H102.358C102.947 87.3339 104.515 89.9366 106.798 91.81L104.868 102.81C104.86 102.859 104.865 102.908 104.883 102.954C104.901 103 104.931 103.04 104.971 103.07C105.01 103.1 105.056 103.118 105.105 103.124C105.154 103.129 105.204 103.121 105.248 103.1L109.688 100.95L112.978 103.85C113.014 103.883 113.057 103.906 113.105 103.916C113.152 103.927 113.202 103.924 113.248 103.909C113.294 103.893 113.335 103.866 113.367 103.829C113.398 103.792 113.42 103.748 113.428 103.7L114.998 94.76L116.558 103.69C116.568 103.736 116.589 103.779 116.62 103.814C116.651 103.849 116.691 103.875 116.735 103.891C116.78 103.906 116.827 103.909 116.873 103.9C116.92 103.891 116.963 103.871 116.998 103.84L120.288 100.94L124.738 103.09C124.782 103.114 124.831 103.125 124.881 103.122C124.93 103.118 124.978 103.101 125.018 103.072C125.058 103.042 125.088 103.002 125.106 102.955C125.124 102.909 125.128 102.859 125.118 102.81L123.188 91.81C124.658 90.6016 125.842 89.0827 126.654 87.3622C127.467 85.6418 127.888 83.7627 127.888 81.86ZM122.728 66.86L109.328 53.46H112.058L122.728 64.13V66.86ZM122.728 54.32V61.7L114.488 53.46H121.868C121.984 53.4585 122.099 53.4808 122.206 53.5254C122.313 53.57 122.41 53.636 122.49 53.7193C122.571 53.8027 122.634 53.9016 122.674 54.0101C122.715 54.1186 122.734 54.2342 122.728 54.35V54.32ZM76.2981 69.32L89.6981 82.72H86.9981L76.2981 72.05V69.32ZM76.2981 81.86V74.48L84.5381 82.72H77.1581C77.0448 82.7214 76.9324 82.7 76.8275 82.6573C76.7225 82.6146 76.6272 82.5513 76.547 82.4711C76.4669 82.391 76.4036 82.2957 76.3609 82.1907C76.3181 82.0858 76.2968 81.9733 76.2981 81.86ZM92.1281 82.72L76.2981 66.89V54.35C76.2968 54.2367 76.3181 54.1243 76.3609 54.0194C76.4036 53.9144 76.4669 53.8191 76.547 53.7389C76.6272 53.6588 76.7225 53.5955 76.8275 53.5528C76.9324 53.51 77.0448 53.4887 77.1581 53.49H106.898L122.728 69.32V71.57C120.818 70.1214 118.54 69.2357 116.153 69.0129C113.766 68.7901 111.364 69.2392 109.218 70.3094C107.073 71.3795 105.269 73.0282 104.011 75.0693C102.753 77.1103 102.09 79.4624 102.098 81.86C102.098 82.15 102.098 82.44 102.098 82.72H92.1281ZM103.818 81.86C103.81 79.6472 104.459 77.4817 105.683 75.6379C106.906 73.7941 108.65 72.3549 110.692 71.5026C112.734 70.6503 114.983 70.4232 117.155 70.85C119.326 71.2769 121.322 72.3385 122.889 73.9004C124.457 75.4624 125.526 77.4544 125.96 79.6242C126.395 81.794 126.176 84.0439 125.331 86.0891C124.486 88.1344 123.053 89.8828 121.214 91.1131C119.374 92.3433 117.211 93 114.998 93C112.041 92.9974 109.205 91.8242 107.11 89.7367C105.015 87.6493 103.831 84.8174 103.818 81.86ZM112.178 100.86L109.998 98.9L107.078 100.31L108.378 92.9C109.883 93.8069 111.557 94.3957 113.298 94.63L112.178 100.86ZM122.938 100.33L119.998 98.9L117.798 100.84L116.708 94.63C118.449 94.3957 120.124 93.8069 121.628 92.9L122.938 100.33Z" fill="#042b62"/>
<path d="M118.179 79.0001V77.9001H111.809V79.0001H113.579C113.936 79 114.284 79.1118 114.575 79.3198C114.866 79.5279 115.084 79.8218 115.199 80.1601H111.809V81.2601H115.199C115.084 81.5985 114.866 81.8924 114.575 82.1005C114.284 82.3085 113.936 82.4203 113.579 82.4201H111.809V83.5201H112.169C112.707 83.5173 113.237 83.6626 113.699 83.9401C115.013 84.7622 115.989 86.0291 116.449 87.5101H117.599C117.141 85.814 116.122 84.3229 114.709 83.2801C115.121 83.1019 115.484 82.8272 115.768 82.4791C116.051 82.131 116.247 81.7198 116.339 81.2801H118.179V80.1801H116.339C116.253 79.7502 116.068 79.3462 115.799 79.0001H118.179Z" fill="#2EC9FF"/>
</g>
<g opacity="0.5">
<path d="M25.2717 37.1399C27.9932 37.1399 30.6535 36.3329 32.9164 34.8209C35.1792 33.3089 36.9428 31.1599 37.9843 28.6456C39.0258 26.1313 39.2983 23.3646 38.7673 20.6954C38.2364 18.0263 36.9259 15.5745 35.0015 13.6501C33.0771 11.7257 30.6253 10.4152 27.9562 9.88427C25.287 9.35334 22.5203 9.62583 20.006 10.6673C17.4917 11.7088 15.3427 13.4724 13.8307 15.7352C12.3187 17.9981 11.5117 20.6584 11.5117 23.3799C11.517 27.0276 12.9684 30.5245 15.5478 33.1038C18.1271 35.6832 21.624 37.1346 25.2717 37.1399ZM25.2717 11.7999C27.562 11.7999 29.8009 12.479 31.7052 13.7515C33.6095 15.0239 35.0938 16.8324 35.9702 18.9484C36.8467 21.0644 37.076 23.3927 36.6292 25.639C36.1824 27.8853 35.0795 29.9487 33.46 31.5682C31.8405 33.1877 29.7772 34.2906 27.5309 34.7374C25.2846 35.1842 22.9562 34.9549 20.8402 34.0784C18.7243 33.2019 16.9157 31.7177 15.6433 29.8134C14.3709 27.9091 13.6917 25.6702 13.6917 23.3799C13.697 20.3103 14.9187 17.3679 17.0893 15.1974C19.2598 13.0269 22.2021 11.8052 25.2717 11.7999Z" fill="#042b62"/>
<path d="M61.2401 31.6298C60.4996 31.6141 59.7692 31.8042 59.1304 32.1792C58.4916 32.5541 57.9694 33.099 57.6221 33.7532C57.2748 34.4075 57.1159 35.1453 57.1632 35.8845C57.2106 36.6237 57.4622 37.3352 57.8901 37.9398L47.7101 48.5098C47.0266 48.0149 46.204 47.7489 45.3601 47.7498C44.7093 47.7471 44.0676 47.9033 43.4908 48.2048C42.914 48.5063 42.4195 48.9439 42.0501 49.4798L35.5201 45.9298C35.7746 45.3243 35.876 44.6655 35.8154 44.0115C35.7549 43.3575 35.5342 42.7285 35.1729 42.18C34.8116 41.6315 34.3209 41.1804 33.7439 40.8666C33.167 40.5527 32.5216 40.3857 31.8649 40.3804C31.2081 40.3751 30.5602 40.5316 29.9782 40.836C29.3963 41.1405 28.8982 41.5836 28.5281 42.1261C28.158 42.6687 27.9271 43.294 27.856 43.947C27.7848 44.5999 27.8756 45.2603 28.1201 45.8698L22.2301 48.9998C21.5746 48.3482 20.7136 47.9437 19.7935 47.8551C18.8734 47.7665 17.951 47.9993 17.1832 48.5139C16.4153 49.0286 15.8494 49.7932 15.5817 50.6779C15.3139 51.5627 15.3608 52.5128 15.7144 53.3668C16.068 54.2209 16.7065 54.9261 17.5213 55.3626C18.3361 55.7991 19.2769 55.9399 20.1838 55.7611C21.0907 55.5824 21.9077 55.095 22.4958 54.382C23.084 53.6689 23.4071 52.7742 23.4101 51.8498C23.406 51.5296 23.3657 51.211 23.2901 50.8998L29.5301 47.6398C30.2034 48.1141 31.0066 48.369 31.8301 48.3698C32.6351 48.3684 33.4216 48.1283 34.0901 47.6798L41.3201 51.6198C41.3201 51.6898 41.3201 51.7698 41.3201 51.8498C41.3201 52.9239 41.7468 53.9541 42.5064 54.7136C43.2659 55.4731 44.296 55.8998 45.3701 55.8998C46.4443 55.8998 47.4744 55.4731 48.2339 54.7136C48.9934 53.9541 49.4201 52.9239 49.4201 51.8498C49.4173 51.3073 49.3086 50.7707 49.1001 50.2698L59.5201 39.3898C60.0586 39.5996 60.6361 39.6902 61.2129 39.6555C61.7897 39.6208 62.3521 39.4614 62.8615 39.1885C63.3708 38.9156 63.815 38.5356 64.1634 38.0746C64.5118 37.6136 64.7562 37.0826 64.8798 36.5181C65.0034 35.9536 65.0032 35.3691 64.8792 34.8047C64.7553 34.2403 64.5105 33.7094 64.1618 33.2487C63.813 32.7879 63.3686 32.4082 62.859 32.1356C62.3495 31.8631 61.787 31.7042 61.2101 31.6698L61.2401 31.6298ZM19.3601 53.6298C18.8642 53.6298 18.3885 53.4328 18.0378 53.0821C17.6872 52.7314 17.4901 52.2558 17.4901 51.7598C17.4901 51.2639 17.6872 50.7882 18.0378 50.4375C18.3885 50.0868 18.8642 49.8898 19.3601 49.8898C19.6814 49.8904 19.9969 49.9746 20.2757 50.1342C20.5545 50.2937 20.7869 50.5231 20.9501 50.7998C21.1219 51.0873 21.215 51.415 21.2201 51.7498C21.2268 51.9987 21.1837 52.2465 21.0933 52.4785C21.003 52.7105 20.8672 52.9221 20.6939 53.101C20.5207 53.2798 20.3134 53.4223 20.0844 53.5199C19.8554 53.6176 19.6091 53.6686 19.3601 53.6698V53.6298ZM30.0001 44.2698C30.0001 43.8995 30.1101 43.5376 30.316 43.2299C30.5219 42.9221 30.8146 42.6825 31.1568 42.5412C31.4991 42.4 31.8756 42.3635 32.2386 42.4365C32.6017 42.5095 32.9348 42.6886 33.196 42.9511C33.4571 43.2136 33.6344 43.5478 33.7054 43.9112C33.7764 44.2746 33.738 44.6509 33.5949 44.9924C33.4518 45.3339 33.2106 45.6253 32.9018 45.8295C32.5929 46.0338 32.2304 46.1418 31.8601 46.1398C31.3659 46.1372 30.8928 45.939 30.5443 45.5886C30.1958 45.2382 30.0001 44.764 30.0001 44.2698ZM45.3901 53.6698C45.0203 53.6698 44.6587 53.5601 44.3512 53.3547C44.0437 53.1492 43.804 52.8571 43.6625 52.5154C43.5209 52.1737 43.4839 51.7977 43.5561 51.435C43.6282 51.0722 43.8063 50.739 44.0678 50.4775C44.3294 50.216 44.6626 50.0379 45.0253 49.9657C45.3881 49.8936 45.7641 49.9306 46.1058 50.0722C46.4475 50.2137 46.7395 50.4534 46.945 50.7609C47.1505 51.0684 47.2601 51.43 47.2601 51.7998C47.2602 52.0479 47.2108 52.2936 47.115 52.5224C47.0191 52.7513 46.8787 52.9588 46.7019 53.1328C46.525 53.3069 46.3153 53.444 46.085 53.5362C45.8546 53.6284 45.6082 53.6738 45.3601 53.6698H45.3901ZM61.2401 37.5398C60.8699 37.5398 60.5079 37.4299 60.2002 37.224C59.8925 37.018 59.6528 36.7254 59.5115 36.3831C59.3703 36.0408 59.3339 35.6643 59.4068 35.3013C59.4798 34.9383 59.6589 34.6051 59.9214 34.344C60.184 34.0829 60.5181 33.9056 60.8815 33.8345C61.2449 33.7635 61.6212 33.802 61.9627 33.945C62.3042 34.0881 62.5956 34.3294 62.7999 34.6382C63.0041 34.947 63.1121 35.3095 63.1101 35.6798C63.1101 35.9249 63.0617 36.1676 62.9676 36.3939C62.8735 36.6202 62.7356 36.8257 62.5618 36.9986C62.388 37.1714 62.1818 37.3082 61.955 37.4011C61.7282 37.494 61.4852 37.5411 61.2401 37.5398Z" fill="#042b62"/>
<path d="M30.0727 18.87V17.21H20.4727V18.87H23.1327C23.6733 18.8722 24.1999 19.0429 24.639 19.3583C25.0781 19.6738 25.408 20.1183 25.5827 20.63H20.4727V22.29H25.5827C25.408 22.8017 25.0781 23.2462 24.639 23.5616C24.1999 23.8771 23.6733 24.0478 23.1327 24.05H20.4727V25.71H21.0027C21.8174 25.7066 22.6182 25.9206 23.3227 26.33C25.3014 27.5753 26.7698 29.487 27.4627 31.72H29.2027C28.508 29.1635 26.972 26.9159 24.8427 25.34C25.4664 25.0664 26.0149 24.6462 26.4414 24.1152C26.868 23.5842 27.16 22.958 27.2927 22.29H30.0727V20.63H27.2927C27.1637 19.99 26.8901 19.3879 26.4927 18.87H30.0727Z" fill="#2EC9FF"/>
</g>
<path fill-rule="evenodd" clip-rule="evenodd" d="M78.5819 62.84L76.0719 61.68V53.02H59.9419V61.68L57.4219 62.77L58.0919 85.42H59.9419V88.89H76.0719V85.42H77.9119L78.5819 62.84Z" fill="#E8C0A8"/>
<path fill-rule="evenodd" clip-rule="evenodd" d="M76.07 61.1601L73.16 61.8001C69.5704 62.564 65.8372 62.2865 62.4 61.0001L60 60.1001V54.1001C62.72 56.0001 65.66 57.1701 68 57.1701C70.34 57.1701 73.3 56.0101 76.07 54.0901V61.0901" fill="#DB967B"/>
<path fill-rule="evenodd" clip-rule="evenodd" d="M78.8117 62.8899L78.2517 65.1399C77.2517 68.1399 74.5517 72.9699 68.2517 72.9699C61.1317 72.9699 58.4117 66.7799 57.5717 64.0999L57.2517 62.8899C44.1317 67.8199 48.1617 108.89 48.1617 108.89L48.0017 143H89.1017L88.5517 108.88C88.5517 108.88 91.9017 67.7999 78.7917 62.8799" fill="#FDFEFB"/>
<path fill-rule="evenodd" clip-rule="evenodd" d="M71.8811 71.8599L70.3311 74.8199H65.6211L64.1211 71.8599L68.0011 68.6899L71.8811 71.8599Z" fill="#E53A64"/>
<path fill-rule="evenodd" clip-rule="evenodd" d="M67.9986 68.6899L63.0386 73.9099L54.5586 63.7899L59.8486 61.1499L61.8386 62.9999L67.9986 68.6899Z" fill="#DBDCD9"/>
<path fill-rule="evenodd" clip-rule="evenodd" d="M76.15 61.1599L68 68.6899L72.96 73.9099L81.44 63.7899L76.15 61.1599Z" fill="#DBDCD9"/>
<path fill-rule="evenodd" clip-rule="evenodd" d="M70.33 75.53L72.25 137.28L68 141.97L63.75 137.28L65.62 75.53H70.33Z" fill="#E53A64"/>
<path fill-rule="evenodd" clip-rule="evenodd" d="M112.129 110.36C113.359 106.591 113.338 102.526 112.069 98.77C109.599 91.48 104.889 76.16 103.569 73.24C100.569 66.8 91.0887 67.04 79.1987 62.94L77.9187 62.49C77.2187 66.57 68.0087 106.06 68.0087 106.06C68.0087 106.06 58.7987 66.57 58.0987 62.49L56.8187 62.94C44.9087 67 35.3887 66.79 32.4287 73.24C31.1087 76.16 26.4287 91.48 23.9287 98.77C22.6592 102.526 22.6382 106.591 23.8687 110.36C26.6774 118.442 30.2782 126.227 34.6187 133.6C36.7687 136.8 40.5287 137.96 43.2487 137.06C42.8787 138.78 42.7587 140.06 43.1487 140.06H92.8486C93.2386 140.06 93.1186 138.78 92.7486 137.06C95.4686 137.96 99.2286 136.8 101.379 133.6C103.799 130.01 109.379 118.69 112.129 110.36Z" fill="#3A3942"/>
<path fill-rule="evenodd" clip-rule="evenodd" d="M51.3594 63.8201L51.6194 71.5201L55.4694 74.6901L52.4794 78.7801L67.8994 106.06L58.1494 60.3301L51.3594 63.8201Z" fill="#444343"/>
<path fill-rule="evenodd" clip-rule="evenodd" d="M84.6416 63.8201L84.3816 71.5201L80.5316 74.6901L83.5216 78.7801L68.1016 106.06L77.8516 60.3301L84.6416 63.8201Z" fill="#444343"/>
<path fill-rule="evenodd" clip-rule="evenodd" d="M85.5998 30.0001L86.1498 22.9001C86.1498 13.6201 77.2798 6.1001 68.0098 6.1001C58.7398 6.1001 49.8698 13.6201 49.8698 22.9001L50.3998 30.0001C49.8907 30.1204 49.4177 30.3604 49.0198 30.7001C48.6495 31.0159 48.3521 31.4084 48.1484 31.8504C47.9447 32.2924 47.8394 32.7734 47.8398 33.2601V36.7501C47.8398 37.6378 48.1911 38.4894 48.8169 39.1189C49.4427 39.7485 50.2922 40.1048 51.1798 40.1101C51.1798 48.8701 61.7098 57.1801 67.9998 57.1801C74.2898 57.1801 84.8198 48.8701 84.8198 40.1101C85.7075 40.1048 86.557 39.7485 87.1828 39.1189C87.8086 38.4894 88.1599 37.6378 88.1598 36.7501V33.2901C88.1676 32.5331 87.9188 31.7958 87.4539 31.1984C86.989 30.601 86.3355 30.1786 85.5998 30.0001Z" fill="#E8C0A8"/>
<path fill-rule="evenodd" clip-rule="evenodd" d="M84.2202 43.8301C84.4851 43.0105 84.666 42.1662 84.7602 41.3101C84.681 42.179 84.51 43.0371 84.2502 43.8701" fill="#B07862"/>
<path fill-rule="evenodd" clip-rule="evenodd" d="M68 57.2099V42.7599H64C64.9218 38.3883 66.2613 34.1154 68 29.9999V6.13989C77.27 6.13989 86.14 13.6599 86.14 22.9399L85.6 29.9999C86.329 30.1768 86.9775 30.5932 87.4416 31.1825C87.9058 31.7718 88.1588 32.4998 88.16 33.2499V36.7399C88.16 37.6276 87.8088 38.4792 87.183 39.1087C86.5572 39.7383 85.7077 40.0946 84.82 40.0999V40.6399V40.7899V41.2899C84.7205 42.1674 84.5295 43.0321 84.25 43.8699L84.19 44.0399C81.75 51.1799 73.39 57.1399 68.06 57.1399M75.79 31.2999H75.7C75.3378 31.2847 74.9763 31.3437 74.6377 31.4732C74.2992 31.6027 73.9907 31.8001 73.7311 32.0532C73.4716 32.3063 73.2666 32.6098 73.1286 32.9451C72.9906 33.2803 72.9226 33.6402 72.9287 34.0026C72.9349 34.3651 73.015 34.7225 73.1643 35.0528C73.3136 35.3832 73.5288 35.6795 73.7967 35.9237C74.0647 36.1679 74.3797 36.3547 74.7225 36.4727C75.0653 36.5907 75.4285 36.6374 75.79 36.6099H75.88C76.2422 36.6251 76.6037 36.5661 76.9422 36.4366C77.2808 36.307 77.5893 36.1096 77.8489 35.8565C78.1084 35.6034 78.3134 35.3 78.4514 34.9647C78.5894 34.6295 78.6574 34.2696 78.6513 33.9072C78.6451 33.5447 78.565 33.1873 78.4157 32.857C78.2664 32.5266 78.0512 32.2303 77.7833 31.9861C77.5153 31.7419 77.2003 31.5551 76.8575 31.4371C76.5147 31.3191 76.1515 31.2724 75.79 31.2999Z" fill="#E09F84"/>
<path fill-rule="evenodd" clip-rule="evenodd" d="M60.3309 36.6099C59.9829 36.6152 59.6373 36.5518 59.3138 36.4235C58.9902 36.2952 58.6952 36.1044 58.4454 35.862C58.1956 35.6197 57.996 35.3305 57.858 35.011C57.7199 34.6915 57.6462 34.3479 57.6409 33.9999C57.6357 33.6519 57.699 33.3063 57.8273 32.9827C57.9557 32.6592 58.1464 32.3641 58.3888 32.1144C58.6312 31.8646 58.9204 31.665 59.2399 31.5269C59.5594 31.3889 59.9029 31.3152 60.2509 31.3099H60.3409C60.7024 31.2824 61.0657 31.3291 61.4084 31.4471C61.7512 31.5651 62.0662 31.7519 62.3342 31.9961C62.6021 32.2403 62.8174 32.5366 62.9666 32.867C63.1159 33.1973 63.1961 33.5547 63.2022 33.9172C63.2083 34.2796 63.1403 34.6395 63.0024 34.9747C62.8644 35.31 62.6593 35.6134 62.3998 35.8666C62.1403 36.1197 61.8318 36.317 61.4932 36.4466C61.1546 36.5761 60.7931 36.6351 60.4309 36.6199H60.3409" fill="#DD977B"/>
<path fill-rule="evenodd" clip-rule="evenodd" d="M63.0017 33.19C63.0191 33.7137 62.881 34.2308 62.6046 34.676C62.3283 35.1212 61.9261 35.4745 61.4491 35.6912C60.972 35.9079 60.4414 35.9783 59.9243 35.8935C59.4072 35.8087 58.9269 35.5725 58.544 35.2148C58.1611 34.857 57.8929 34.3938 57.7732 33.8837C57.6535 33.3736 57.6877 32.8394 57.8716 32.3487C58.0554 31.858 58.3806 31.4329 58.806 31.1269C59.2314 30.821 59.738 30.6481 60.2616 30.63C60.6097 30.618 60.9567 30.6747 61.2828 30.7969C61.609 30.919 61.9078 31.1043 62.1623 31.3421C62.4168 31.5798 62.6219 31.8654 62.7659 32.1825C62.9099 32.4996 62.99 32.8419 63.0017 33.19Z" fill="#2C170A"/>
<path fill-rule="evenodd" clip-rule="evenodd" d="M75.7914 36.6099C75.4299 36.6374 75.0666 36.5907 74.7238 36.4727C74.3811 36.3547 74.066 36.1679 73.7981 35.9237C73.5301 35.6795 73.3149 35.3832 73.1656 35.0528C73.0164 34.7225 72.9362 34.3651 72.9301 34.0026C72.9239 33.6402 72.9919 33.2803 73.1299 32.9451C73.2679 32.6098 73.473 32.3063 73.7325 32.0532C73.992 31.8001 74.3005 31.6027 74.6391 31.4732C74.9777 31.3437 75.3392 31.2847 75.7013 31.2999H75.7914C76.1528 31.2724 76.5161 31.3191 76.8589 31.4371C77.2016 31.5551 77.5167 31.7419 77.7846 31.9861C78.0526 32.2303 78.2678 32.5266 78.4171 32.857C78.5663 33.1873 78.6465 33.5447 78.6526 33.9072C78.6588 34.2696 78.5908 34.6295 78.4528 34.9647C78.3148 35.3 78.1097 35.6034 77.8502 35.8565C77.5907 36.1096 77.2822 36.307 76.9436 36.4366C76.605 36.5661 76.2435 36.6251 75.8813 36.6099H75.7914Z" fill="#D67F64"/>
<path fill-rule="evenodd" clip-rule="evenodd" d="M78.4392 33.1899C78.4566 33.7136 78.3185 34.2307 78.0421 34.6759C77.7658 35.1211 77.3636 35.4744 76.8866 35.6911C76.4095 35.9078 75.8789 35.9782 75.3618 35.8934C74.8447 35.8086 74.3644 35.5724 73.9815 35.2147C73.5986 34.857 73.3304 34.3938 73.2107 33.8836C73.091 33.3735 73.1252 32.8393 73.3091 32.3486C73.4929 31.8579 73.8181 31.4328 74.2435 31.1269C74.6689 30.8209 75.1755 30.648 75.6991 30.6299C76.4014 30.6083 77.0836 30.8654 77.597 31.345C78.1103 31.8246 78.4131 32.4879 78.4392 33.1899Z" fill="#2C170A"/>
<path fill-rule="evenodd" clip-rule="evenodd" d="M83.8097 38.36C83.7508 39.6722 83.4303 40.9594 82.867 42.146C82.3038 43.3326 81.5091 44.3947 80.5297 45.27C80.119 45.5693 79.6372 45.7563 79.1321 45.8124C78.627 45.8686 78.116 45.7919 77.6497 45.59C76.0497 44.9 72.4697 44.29 68.0297 44.29C64.7723 44.1704 61.5185 44.6101 58.4097 45.59C57.9433 45.7919 57.4323 45.8686 56.9272 45.8124C56.4221 45.7563 55.9403 45.5693 55.5297 45.27C54.5502 44.3947 53.7556 43.3326 53.1923 42.146C52.629 40.9594 52.3085 39.6722 52.2497 38.36C52.2497 38.36 49.5697 28.71 51.5897 21.61C52.5897 18.1 56.8897 16.12 60.4297 17.01C62.9193 17.6007 65.471 17.8895 68.0297 17.87C70.5883 17.8895 73.14 17.6007 75.6297 17.01C79.1697 16.12 83.4697 18.1 84.4697 21.61C86.4797 28.71 83.8097 38.36 83.8097 38.36ZM61.1997 1.74999C42.9997 -4.25001 46.4997 30.46 48.3097 36.24C48.75 37.222 49.3404 38.1295 50.0597 38.93C50.6097 39.93 48.5997 59.72 68.0597 59.72C87.5196 59.72 85.4497 40 85.9997 38.94C86.7189 38.1395 87.3093 37.232 87.7497 36.25C89.5597 30.47 95.0797 -8.66001 61.1997 1.75999V1.74999Z" fill="#413429"/>
<path fill-rule="evenodd" clip-rule="evenodd" d="M77.5994 38C72.7894 38 71.2494 36.92 70.4294 33C70.3277 32.6226 70.3146 32.2269 70.3909 31.8436C70.4672 31.4602 70.6309 31.0997 70.8694 30.79C71.5394 30 73.2494 29 77.5994 29C83.8994 29 83.8994 32.13 83.8994 33.15C83.8994 36 83.4594 38 77.5994 38ZM64.4594 33C63.6394 37 62.0994 38 57.2894 38C51.4294 38 50.9894 36.06 50.9894 33.1C50.9894 32.1 50.9894 28.95 57.2894 28.95C61.6394 28.95 63.3494 29.95 64.0194 30.76C64.256 31.0648 64.4188 31.4202 64.4951 31.7984C64.5715 32.1766 64.5592 32.5673 64.4594 32.94V33ZM86.2494 28.57H82.6094C81.0467 27.8416 79.332 27.4987 77.6094 27.57C73.8694 27.57 71.3194 28.29 70.0194 29.69C69.2429 29.2247 68.3546 28.979 67.4494 28.979C66.5441 28.979 65.6559 29.2247 64.8794 29.69C63.5694 28.3 60.9994 27.58 57.2994 27.58C55.5767 27.5087 53.8621 27.8516 52.2994 28.58H48.6094V31.2L49.8094 31.62C49.6923 32.1011 49.6352 32.5949 49.6394 33.09C49.6394 37.09 50.8894 39.33 57.2794 39.33C62.6794 39.33 64.8194 37.79 65.7694 33.23C65.8644 32.7043 65.8644 32.1658 65.7694 31.64C66.2589 31.3737 66.813 31.2491 67.3694 31.28C67.9372 31.2407 68.5041 31.3694 68.9994 31.65C68.9046 32.1691 68.9046 32.701 68.9994 33.22C69.9994 37.78 72.0894 39.32 77.4894 39.32C83.8894 39.32 85.1494 37 85.1494 33.08C85.1499 32.5812 85.0895 32.0842 84.9694 31.6L86.1494 31.19L86.2494 28.57Z" fill="#3B3943"/>
<path fill-rule="evenodd" clip-rule="evenodd" d="M110.192 137.06H25.8117C24.2072 137.06 22.6683 137.697 21.5337 138.832C20.3991 139.967 19.7617 141.506 19.7617 143.11C19.7617 144.715 20.3991 146.253 21.5337 147.388C22.6683 148.523 24.2072 149.16 25.8117 149.16H110.192C111.796 149.16 113.335 148.523 114.47 147.388C115.604 146.253 116.242 144.715 116.242 143.11C116.242 141.506 115.604 139.967 114.47 138.832C113.335 137.697 111.796 137.06 110.192 137.06Z" fill="#5D5B63"/>
<path fill-rule="evenodd" clip-rule="evenodd" d="M100.102 137.12H35.9117C35.5139 137.167 35.1139 137.053 34.7998 136.805C34.4857 136.556 34.2832 136.193 34.2367 135.795C34.1903 135.397 34.3038 134.997 34.5523 134.683C34.8008 134.369 35.1639 134.167 35.5617 134.12H100.102C100.47 134.163 100.809 134.339 101.056 134.616C101.302 134.892 101.438 135.25 101.438 135.62C101.438 135.991 101.302 136.348 101.056 136.625C100.809 136.901 100.47 137.078 100.102 137.12Z" fill="#9D9D9C"/>
<path fill-rule="evenodd" clip-rule="evenodd" d="M97.5984 134.22H38.3984C37.3376 134.22 36.3202 133.799 35.57 133.048C34.8199 132.298 34.3984 131.281 34.3984 130.22V89.4399C34.3984 88.3791 34.8199 87.3617 35.57 86.6115C36.3202 85.8614 37.3376 85.4399 38.3984 85.4399H97.5984C98.6593 85.4399 99.6767 85.8614 100.427 86.6115C101.177 87.3617 101.598 88.3791 101.598 89.4399V130.22C101.598 131.281 101.177 132.298 100.427 133.048C99.6767 133.799 98.6593 134.22 97.5984 134.22Z" fill="#D6D6D1"/>
<path fill-rule="evenodd" clip-rule="evenodd" d="M68.0017 113.77C66.9163 113.77 65.8553 113.448 64.9527 112.845C64.0501 112.243 63.3464 111.386 62.9306 110.383C62.5148 109.381 62.4055 108.277 62.6165 107.213C62.8275 106.148 63.3494 105.17 64.1162 104.402C64.883 103.633 65.8603 103.11 66.9245 102.897C67.9888 102.684 69.0924 102.791 70.0957 103.205C71.0991 103.619 71.9572 104.321 72.5616 105.223C73.1661 106.124 73.4897 107.185 73.4917 108.27C73.493 108.992 73.352 109.707 73.0767 110.374C72.8014 111.041 72.3972 111.648 71.8873 112.159C71.3773 112.669 70.7717 113.075 70.105 113.351C69.4382 113.628 68.7235 113.77 68.0017 113.77Z" fill="#EBEAE7"/>
<path fill-rule="evenodd" clip-rule="evenodd" d="M37.4684 134.11H36.4684C35.8895 133.937 35.3819 133.582 35.0214 133.097C34.661 132.612 34.467 132.024 34.4684 131.42V130.22C34.4685 131.119 34.7715 131.992 35.3285 132.698C35.8855 133.403 36.664 133.901 37.5384 134.11M34.3984 89.4399V88.2399C34.3984 87.4973 34.6934 86.7851 35.2185 86.26C35.7436 85.7349 36.4558 85.4399 37.1984 85.4399H38.3984C37.3376 85.4399 36.3202 85.8614 35.57 86.6115C34.8199 87.3617 34.3984 88.3791 34.3984 89.4399Z" fill="#5D5B63"/>
<path fill-rule="evenodd" clip-rule="evenodd" d="M46.8787 134.22H37.2487C36.985 134.219 36.7226 134.182 36.4688 134.11H37.4688C37.7736 134.182 38.0856 134.219 38.3988 134.22H46.8787Z" fill="#AEAEAB"/>
<path fill-rule="evenodd" clip-rule="evenodd" d="M46.8784 134.22H38.3984C37.3376 134.22 36.3202 133.799 35.57 133.048C34.8199 132.298 34.3984 131.281 34.3984 130.22V89.4399C34.3984 88.3791 34.8199 87.3617 35.57 86.6115C36.3202 85.8614 37.3376 85.4399 38.3984 85.4399H86.3184C75.6104 88.6773 66.1235 95.0602 59.0901 103.759C52.0566 112.458 47.8018 123.071 46.8784 134.22Z" fill="#DDDDD8"/>
<path fill-rule="evenodd" clip-rule="evenodd" d="M63.6102 47.4499L64.3402 47.6299C66.695 48.2095 69.1553 48.2095 71.5102 47.6299L72.4002 47.4099C72.4409 47.4112 72.481 47.4205 72.5181 47.4373C72.5552 47.4541 72.5887 47.478 72.6165 47.5077C72.6444 47.5375 72.6661 47.5724 72.6805 47.6105C72.6948 47.6486 72.7015 47.6892 72.7002 47.7299C72.7002 47.7692 72.6922 47.8081 72.6767 47.8442C72.6613 47.8802 72.6386 47.9128 72.6102 47.9399C71.8802 49.5999 69.6802 51.2099 68.0302 51.0799C66.3802 50.9499 64.5402 49.7699 63.4002 47.9999C63.3712 47.9711 63.3481 47.9368 63.3324 47.8991C63.3167 47.8613 63.3086 47.8208 63.3086 47.7799C63.3086 47.739 63.3167 47.6985 63.3324 47.6608C63.3481 47.623 63.3712 47.5887 63.4002 47.5599C63.4265 47.5305 63.4589 47.5072 63.4952 47.4916C63.5315 47.4761 63.5707 47.4687 63.6102 47.4699" fill="#E8C0A8"/>
<path fill-rule="evenodd" clip-rule="evenodd" d="M62.9999 26.38L62.2899 26.19C59.935 25.6104 57.4747 25.6104 55.1199 26.19L54.2299 26.41C54.1891 26.4087 54.1491 26.3994 54.112 26.3826C54.0748 26.3658 54.0414 26.3419 54.0135 26.3122C53.9857 26.2825 53.9639 26.2475 53.9496 26.2094C53.9352 26.1713 53.9285 26.1307 53.9299 26.09C53.9299 26.0507 53.9378 26.0119 53.9533 25.9758C53.9688 25.9397 53.9914 25.9071 54.0199 25.88C55.3289 24.8571 56.9735 24.3612 58.6299 24.49C60.2862 24.3612 61.9308 24.8571 63.2399 25.88C63.2689 25.9088 63.2919 25.9431 63.3076 25.9808C63.3234 26.0186 63.3315 26.0591 63.3315 26.1C63.3315 26.1409 63.3234 26.1814 63.3076 26.2191C63.2919 26.2569 63.2689 26.2912 63.2399 26.32C63.2136 26.3494 63.1811 26.3728 63.1448 26.3883C63.1086 26.4038 63.0693 26.4113 63.0299 26.41" fill="#413429"/>
<path d="M62.9999 26.38L62.2899 26.19C59.935 25.6104 57.4747 25.6104 55.1199 26.19L54.2299 26.41C54.1891 26.4087 54.1491 26.3994 54.112 26.3826C54.0748 26.3658 54.0414 26.3419 54.0135 26.3122C53.9857 26.2825 53.9639 26.2475 53.9496 26.2094C53.9352 26.1713 53.9285 26.1307 53.9299 26.09C53.9299 26.0507 53.9378 26.0119 53.9533 25.9758C53.9688 25.9397 53.9914 25.9071 54.0199 25.88C55.3289 24.8571 56.9735 24.3612 58.6299 24.49C60.2862 24.3612 61.9308 24.8571 63.2399 25.88C63.2689 25.9088 63.2919 25.9431 63.3076 25.9808C63.3234 26.0186 63.3315 26.0591 63.3315 26.1C63.3315 26.1409 63.3234 26.1814 63.3076 26.2191C63.2919 26.2569 63.2689 26.2912 63.2399 26.32C63.2136 26.3494 63.1811 26.3728 63.1448 26.3883C63.1086 26.4038 63.0693 26.4113 63.0299 26.41" stroke="#413429" stroke-width="0.25" stroke-miterlimit="10"/>
<path fill-rule="evenodd" clip-rule="evenodd" d="M80.3402 26.38L79.6102 26.2C77.2553 25.6204 74.795 25.6204 72.4402 26.2L71.5502 26.42C71.5095 26.4187 71.4694 26.4094 71.4323 26.3926C71.3952 26.3759 71.3617 26.3519 71.3338 26.3222C71.306 26.2925 71.2843 26.2576 71.2699 26.2194C71.2555 26.1813 71.2488 26.1407 71.2502 26.1C71.2502 26.0607 71.2581 26.0219 71.2736 25.9858C71.2891 25.9497 71.3117 25.9171 71.3402 25.89C72.6623 24.855 74.3271 24.3584 76.0002 24.5C77.6565 24.3712 79.3011 24.8671 80.6102 25.89C80.6392 25.9188 80.6622 25.9531 80.6779 25.9909C80.6937 26.0286 80.7018 26.0691 80.7018 26.11C80.7018 26.1509 80.6937 26.1914 80.6779 26.2292C80.6622 26.2669 80.6392 26.3012 80.6102 26.33C80.5839 26.3595 80.5514 26.3828 80.5152 26.3983C80.4789 26.4139 80.4396 26.4213 80.4002 26.42" fill="#413429"/>
<path d="M80.3402 26.38L79.6102 26.2C77.2553 25.6204 74.795 25.6204 72.4402 26.2L71.5502 26.42C71.5095 26.4187 71.4694 26.4094 71.4323 26.3926C71.3952 26.3759 71.3617 26.3519 71.3338 26.3222C71.306 26.2925 71.2843 26.2576 71.2699 26.2194C71.2555 26.1813 71.2488 26.1407 71.2502 26.1C71.2502 26.0607 71.2581 26.0219 71.2736 25.9858C71.2891 25.9497 71.3117 25.9171 71.3402 25.89C72.6623 24.855 74.3271 24.3584 76.0002 24.5C77.6565 24.3712 79.3011 24.8671 80.6102 25.89C80.6392 25.9188 80.6622 25.9531 80.6779 25.9909C80.6937 26.0286 80.7018 26.0691 80.7018 26.11C80.7018 26.1509 80.6937 26.1914 80.6779 26.2292C80.6622 26.2669 80.6392 26.3012 80.6102 26.33C80.5839 26.3595 80.5514 26.3828 80.5152 26.3983C80.4789 26.4139 80.4396 26.4213 80.4002 26.42" stroke="#413429" stroke-width="0.25" stroke-miterlimit="10"/>
<path fill-rule="evenodd" clip-rule="evenodd" d="M61.6789 32.3199C61.6789 32.3725 61.6686 32.4245 61.6485 32.473C61.6284 32.5215 61.5989 32.5656 61.5617 32.6028C61.5246 32.6399 61.4805 32.6694 61.432 32.6895C61.3834 32.7096 61.3314 32.7199 61.2789 32.7199C61.2264 32.7199 61.1744 32.7096 61.1258 32.6895C61.0773 32.6694 61.0332 32.6399 60.9961 32.6028C60.9589 32.5656 60.9295 32.5215 60.9094 32.473C60.8893 32.4245 60.8789 32.3725 60.8789 32.3199C60.8789 32.2138 60.921 32.1121 60.9961 32.0371C61.0711 31.9621 61.1728 31.9199 61.2789 31.9199C61.385 31.9199 61.4867 31.9621 61.5617 32.0371C61.6368 32.1121 61.6789 32.2138 61.6789 32.3199Z" fill="#FDFEFB"/>
<path fill-rule="evenodd" clip-rule="evenodd" d="M77.0891 32.3199C77.0891 32.426 77.0469 32.5278 76.9719 32.6028C76.8969 32.6778 76.7952 32.7199 76.6891 32.7199C76.583 32.7199 76.4812 32.6778 76.4062 32.6028C76.3312 32.5278 76.2891 32.426 76.2891 32.3199C76.2891 32.2138 76.3312 32.1121 76.4062 32.0371C76.4812 31.9621 76.583 31.9199 76.6891 31.9199C76.7952 31.9199 76.8969 31.9621 76.9719 32.0371C77.0469 32.1121 77.0891 32.2138 77.0891 32.3199Z" fill="#FDFEFB"/>
</g>
<defs>
<clipPath id="clip0_34_3413">
<rect width="136" height="149.15" fill="white"/>
</clipPath>
</defs>
</svg>
