<svg width="136" height="150" viewBox="0 0 136 150" fill="none" xmlns="http://www.w3.org/2000/svg">
<g clip-path="url(#clip0_34_3505)">
<path opacity="0.5" d="M20.0008 48.5C23.0008 50.2 30.6008 54.4 34.2008 54.4H34.4008C40.8008 54 56.0008 43.4 57.0008 42.7C58.5008 41.8 59.0008 39.8 58.1008 38.3C57.3008 36.9 55.5008 36.4 54.0008 37.1L44.7008 41.6C44.7008 39.8 43.2008 38.4 41.5008 38.4H36.1008C33.6008 36.1 30.4008 34.8 27.0008 34.6C24.0008 34.5 21.3008 34.5 20.0008 34.5V33H9.30078V50.6H20.0008V48.5ZM27.0008 36.2C30.1008 36.4 33.1008 37.7 35.3008 39.8L35.5008 40H41.5008C42.4008 40 43.2008 40.8 43.2008 41.7C43.2008 42.6 42.4008 43.4 41.5008 43.4H30.5008V45H41.4008C42.4008 45 43.4008 44.5 44.0008 43.7L54.7008 38.5C55.2008 38.3 55.8008 38.3 56.3008 38.6C57.1008 39.1 57.3008 40.1 56.8008 40.9C56.7008 41.1 56.5008 41.3 56.2008 41.5H56.1008C56.0008 41.5 40.5008 52.5 34.4008 52.8C31.3008 53 23.3008 48.7 20.0008 46.7V36.1C21.3008 36.1 24.0008 36.1 27.0008 36.2ZM18.4008 49.1H10.8008V34.5H18.4008V49.1Z" fill="#042b62"/>
<path opacity="0.81" d="M17.1 39.5H15.5V40.9H17.1V39.5Z" fill="#042b62"/>
<path opacity="0.81" d="M17.1 42.3H15.5V43.7001H17.1V42.3Z" fill="#042b62"/>
<path opacity="0.81" d="M17.1 45.1001H15.5V46.5001H17.1V45.1001Z" fill="#042b62"/>
<path opacity="0.5" d="M42.5008 14.4999C42.5008 10.2999 39.1008 6.8999 34.9008 6.8999C30.7008 6.8999 27.3008 10.2999 27.3008 14.4999C27.3008 18.6999 30.7008 22.0999 34.9008 22.0999C39.0008 22.0999 42.5008 18.6999 42.5008 14.4999ZM28.8008 14.4999C28.8008 11.0999 31.5008 8.3999 34.9008 8.3999C38.3008 8.3999 41.0008 11.0999 41.0008 14.4999C41.0008 17.8999 38.3008 20.5999 34.9008 20.5999C31.5008 20.4999 28.8008 17.7999 28.8008 14.4999Z" fill="#ccd5e0"/>
<path opacity="0.5" d="M45.3008 29.4C49.5008 29.4 52.9008 26 52.9008 21.8C52.9008 17.6 49.5008 14.2 45.3008 14.2C44.8008 14.2 44.3008 14.3 43.8008 14.4L44.1008 15.9C44.5008 15.8 44.9008 15.8 45.3008 15.8C48.6008 15.8 51.4008 18.5 51.4008 21.9C51.4008 25.3 48.7008 28 45.3008 28C42.3008 28 39.7008 25.8 39.3008 22.8L37.8008 23C38.3008 26.6 41.5008 29.4 45.3008 29.4Z" fill="#ccd5e0"/>
<path opacity="0.5" d="M16.6992 21.8001C16.6992 26.0001 20.0992 29.4001 24.2992 29.4001C28.0992 29.4001 31.2992 26.6001 31.7992 22.9001L30.2992 22.7001C29.7992 26.0001 26.6992 28.3001 23.3992 27.8001C20.0992 27.3001 17.7992 24.2001 18.2992 20.9001C18.6992 17.9001 21.2992 15.7001 24.2992 15.7001C24.6992 15.7001 25.0992 15.7001 25.4992 15.8001L25.7992 14.3001C25.2992 14.2001 24.7992 14.1001 24.1992 14.1001C20.0992 14.2001 16.6992 17.6001 16.6992 21.8001Z" fill="#ccd5e0"/>
<path opacity="0.81" d="M24.9992 19.5999C25.5992 19.5999 26.0992 19.8999 26.4992 20.1999L26.9992 19.1999C26.4992 18.6999 25.6992 18.3999 24.9992 18.3999C23.6992 18.3999 22.6992 19.3999 22.4992 20.5999H21.6992V21.4999H22.3992C22.3992 21.5999 22.3992 21.6999 22.3992 21.7999C22.3992 21.8999 22.3992 21.9999 22.3992 22.0999H21.6992V22.9999H22.4992C22.5992 24.2999 23.6992 25.1999 24.9992 25.1999C25.6992 25.1999 26.3992 24.8999 26.9992 24.3999L26.4992 23.3999C26.0992 23.7999 25.5992 23.9999 24.9992 23.9999C24.2992 23.9999 23.9992 23.4999 23.8992 22.8999H25.2992V21.9999H23.7992V21.3999H25.2992V20.4999H23.8992C23.9992 20.1999 24.0992 19.8999 24.2992 19.6999C24.4992 19.6999 24.6992 19.5999 24.9992 19.5999Z" fill="#ccd5e0"/>
<path opacity="0.5" d="M46.7016 18.8L45.3016 20.9L44.0016 18.8H42.6016L44.4016 21.4H43.4016V22.2001H44.7016V22.7001H43.4016V23.5H44.7016V24.8H46.0016V23.5H47.3016V22.7001H46.0016V22.2001H47.3016V21.4H46.3016L48.1016 18.8H46.7016Z" fill="#ccd5e0"/>
<path opacity="0.5" d="M37.6992 11.5001V10.6001H32.1992V11.5001H33.6992C34.2992 11.5001 34.8992 11.9001 35.0992 12.5001H32.1992V13.4001H35.0992C34.8992 14.0001 34.2992 14.4001 33.6992 14.4001H32.1992V15.3001H32.4992C32.9992 15.3001 33.3992 15.4001 33.7992 15.7001C34.8992 16.4001 35.7992 17.5001 36.1992 18.8001H37.1992C36.7992 17.3001 35.8992 16.1001 34.6992 15.2001C35.3992 14.9001 35.8992 14.2001 36.0992 13.5001H37.6992V12.6001H36.0992C35.9992 12.2001 35.8992 11.9001 35.5992 11.6001L37.6992 11.5001Z" fill="#ccd5e0"/>
<path opacity="0.5" d="M123.801 94.6999V72.6999C123.801 71.3999 122.801 70.3999 121.501 70.3999H88.1008C86.8008 70.3999 85.8008 71.3999 85.8008 72.6999V94.6999H81.9008C81.6008 94.6999 81.3008 94.9999 81.3008 95.2999V116.8C81.3008 117.1 81.6008 117.4 81.9008 117.4H127.701C128.001 117.4 128.301 117.1 128.301 116.8V95.2999C128.301 94.9999 128.001 94.6999 127.701 94.6999H123.801ZM87.3008 79.0999L94.5008 71.8999H96.9008L87.3008 81.4999V79.0999ZM88.1008 71.8999H92.3008L87.3008 76.8999V72.6999C87.3008 72.2999 87.6008 71.8999 88.1008 71.8999ZM87.3008 83.5999L99.0008 71.8999H121.501C121.901 71.8999 122.301 72.1999 122.301 72.6999V94.6999H116.201V93.9999C116.201 92.9999 115.601 92.1999 114.701 91.8999V84.0999H116.201V82.0999L106.601 76.8999C105.501 76.2999 104.101 76.2999 103.001 76.8999L93.4008 82.0999V84.0999H94.9008V91.7999C94.0008 92.0999 93.4008 92.9999 93.4008 93.9999V94.7999H87.3008V83.5999ZM113.101 91.6999H111.601V84.0999H113.101V91.6999ZM102.501 84.0999V91.6999H99.5008V84.0999H102.501ZM104.001 84.0999H105.501V91.6999H104.001V84.0999ZM107.001 84.0999H110.001V91.6999H107.001V84.0999ZM95.7008 82.5999L103.701 78.2999C104.401 77.8999 105.201 77.8999 105.801 78.2999L113.801 82.5999H95.7008ZM97.9008 84.0999V91.6999H96.4008V84.0999H97.9008ZM95.7008 93.1999H113.901C114.301 93.1999 114.701 93.4999 114.701 93.9999V94.7999H94.9008V93.9999C94.9008 93.5999 95.2008 93.1999 95.7008 93.1999ZM126.801 116H82.7008V96.1999H126.801V116Z" fill="#042b62"/>
<path opacity="0.5" d="M125.301 97.8H84.3008V114.5H125.301V97.8ZM123.801 102.2C122.301 101.9 121.101 100.7 120.801 99.2H123.801V102.2ZM119.301 113H90.3008C90.0008 110.7 88.1008 108.8 85.8008 108.5V103.8C88.1008 103.5 90.0008 101.6 90.3008 99.3H119.301C119.601 101.6 121.501 103.5 123.801 103.8V108.5C121.401 108.8 119.601 110.7 119.301 113ZM88.7008 99.3C88.4008 100.8 87.2008 102 85.7008 102.3V99.3H88.7008ZM85.7008 110C87.2008 110.3 88.4008 111.5 88.7008 113H85.7008V110ZM120.701 113C121.001 111.5 122.201 110.3 123.701 110V113H120.701Z" fill="#ccd5e0"/>
<path opacity="0.5" d="M119.202 77.9999H120.702V73.3999H114.602V74.9999H119.202V77.9999Z" fill="#042b62"/>
<path d="M108.1 103.1V102.2H103V103.1H104.4C105 103.1 105.5 103.5 105.7 104H103V104.9H105.7C105.5 105.5 105 105.8 104.4 105.8H103V106.7H103.3C103.7 106.7 104.2 106.8 104.5 107C105.6 107.7 106.3 108.7 106.7 109.9H107.6C107.2 108.5 106.4 107.3 105.3 106.5C106 106.2 106.5 105.6 106.6 104.9H108.1V104H106.6C106.5 103.7 106.4 103.3 106.2 103.1H108.1Z" fill="#F0806D"/>
<path d="M83.9005 31.2999V33H85.5005V31.2999C86.7005 30.8999 87.4005 29.6999 87.0005 28.4C86.8005 27.8 86.4005 27.3 85.8005 27L84.2005 26.2C83.9005 26 83.7005 25.5999 83.9005 25.2999C84.0005 25.0999 84.2005 24.9 84.5005 24.9H84.7005C85.1005 24.9 85.4005 25.2 85.4005 25.6V25.7H87.0005V25.6C87.0005 24.6 86.4005 23.7 85.4005 23.4V21.7H83.8005V23.4C82.6005 23.8 81.9005 24.9999 82.3005 26.2999C82.5005 26.8999 82.9005 27.4 83.5005 27.7L85.1005 28.5C85.3005 28.6 85.5005 28.9 85.5005 29.1C85.5005 29.5 85.2005 29.7999 84.8005 29.7999H84.6005C84.2005 29.7999 83.9005 29.5 83.9005 29.1V28.2H82.3005V29.1C82.3005 30.1 83.0005 30.9999 83.9005 31.2999Z" fill="#F0806D"/>
<path opacity="0.5" d="M84.7018 36.2C89.6018 36.2 93.5018 32.2 93.5018 27.4C93.5018 27.2 93.5018 27 93.5018 26.7L96.2018 26.2C96.9018 27.8 98.8018 28.4999 100.402 27.7999C101.602 27.2999 102.302 26.1 102.302 24.9C102.302 24.6 102.202 24.3 102.202 24.1L108.102 20.7C108.702 21.3 109.502 21.7 110.402 21.7C112.202 21.7 113.602 20.3 113.602 18.5C113.602 17.9 113.402 17.4 113.102 16.9L121.602 8.39995V13H123.202V5.69995H116.002V7.29995H120.502L112.002 15.8C110.502 14.9 108.502 15.4 107.602 16.9C107.302 17.4 107.102 18 107.102 18.6C107.102 18.9 107.202 19.2 107.202 19.4L101.302 22.7C100.702 22.1 99.9018 21.7 99.0018 21.7C97.3018 21.7 96.0018 23 95.9018 24.7L93.2018 25.2C92.0018 20.5 87.1018 17.7 82.4018 18.9C77.7018 20.1 74.9018 25 76.1018 29.7C77.2018 33.5 80.7018 36.3 84.7018 36.2ZM110.402 17C111.302 17 112.002 17.7 112.002 18.6C112.002 19.5 111.302 20.2 110.402 20.2C109.502 20.2 108.802 19.5 108.802 18.6C108.802 17.7 109.502 17 110.402 17ZM99.2018 23.4C100.102 23.4 100.802 24.1 100.802 25C100.802 25.9 100.102 26.6 99.2018 26.6C98.3018 26.6 97.6018 25.9 97.6018 25C97.6018 24.1 98.3018 23.4 99.2018 23.4ZM84.7018 20.2C88.7018 20.2 91.9018 23.4 91.9018 27.4C91.9018 31.4 88.7018 34.5999 84.7018 34.5999C80.7018 34.5999 77.5018 31.4 77.5018 27.4C77.5018 23.4 80.7018 20.2 84.7018 20.2Z" fill="#ccd5e0"/>
<path opacity="0.5" d="M77.5 55.4999H85.5V38.4999C85.5 38.1999 85.2 37.8999 84.9 37.8999H78.2C77.9 37.8999 77.6 38.1999 77.6 38.4999V55.4999H77.5ZM79.1 39.4999H83.9V53.8999H79.1V39.4999Z" fill="#042b62"/>
<path opacity="0.5" d="M87.1016 55.5H95.1016V40.1C95.1016 39.8 94.8016 39.5 94.5016 39.5H87.7016C87.4016 39.5 87.1016 39.8 87.1016 40.1V55.5ZM88.7016 41.1H93.5016V54H88.7016V41.1Z" fill="#042b62"/>
<path opacity="0.5" d="M96.8008 55.4999H104.801V30.4999C104.801 30.1999 104.501 29.8999 104.201 29.8999H97.4008C97.1008 29.8999 96.8008 30.1999 96.8008 30.4999V55.4999ZM98.3008 31.3999H103.101V53.8999H98.3008V31.3999Z" fill="#042b62"/>
<path opacity="0.5" d="M124.398 42.8999L121.698 38.4999L123.098 33.4999C123.298 32.5999 123.198 31.6999 122.698 30.9999C122.098 30.1999 121.098 29.7999 120.098 29.7999H118.098C116.998 29.7999 115.998 30.3999 115.498 31.3999H114.398V23.9999C114.398 23.6999 114.098 23.3999 113.798 23.3999H106.998C106.698 23.3999 106.398 23.6999 106.398 23.9999V55.4999H117.598C121.998 55.4999 125.598 51.8999 125.598 47.4999V47.1999C125.598 45.6999 125.198 44.1999 124.398 42.8999ZM116.798 32.6999C116.798 31.9999 117.398 31.3999 118.098 31.3999H120.298C120.998 31.3999 121.598 31.9999 121.598 32.6999C121.598 32.7999 121.598 32.8999 121.598 33.0999L120.298 37.8999H114.798L112.498 35.5999C112.198 35.2999 112.098 34.9999 112.098 34.5999C112.098 33.7999 112.698 33.0999 113.498 33.0999H115.198V34.6999H116.798V32.6999ZM107.998 53.8999V24.9999H112.798V31.4999C111.398 31.7999 110.398 33.0999 110.398 34.4999C110.398 35.2999 110.698 36.0999 111.298 36.6999L113.398 38.7999L110.798 42.8999C109.998 44.1999 109.598 45.5999 109.598 47.0999V47.3999C109.598 49.8999 110.798 52.2999 112.798 53.7999L107.998 53.8999ZM123.998 47.4999C123.998 50.9999 121.098 53.8999 117.598 53.8999C114.098 53.8999 111.198 50.9999 111.198 47.4999V47.1999C111.198 45.9999 111.598 44.7999 112.198 43.7999L114.898 39.4999H120.398L123.098 43.7999C123.698 44.7999 124.098 45.9999 124.098 47.1999L123.998 47.4999Z" fill="#042b62"/>
<path opacity="0.5" d="M120.698 44V43H114.898V44H116.498C117.198 44 117.698 44.4 117.998 45H114.898V46H117.998C117.798 46.6 117.198 47.1 116.498 47.1H114.898V48.1H115.198C115.698 48.1 116.198 48.2 116.598 48.5C117.798 49.3 118.698 50.4 119.098 51.8H120.198C119.798 50.3 118.798 48.9 117.598 47.9C118.398 47.6 118.898 46.9 119.098 46.1H120.798V45.1H118.998C118.898 44.7 118.798 44.4 118.498 44H120.698Z" fill="#ccd5e0"/>
<path fill-rule="evenodd" clip-rule="evenodd" d="M78.5984 62.8L76.0984 61.7V53H59.8984V61.7L57.3984 62.8L58.0984 85.4H59.8984V88.9H76.0984V85.4H77.8984L78.5984 62.8Z" fill="#E8C0A8"/>
<path fill-rule="evenodd" clip-rule="evenodd" d="M76.1 61.2001L73.2 61.8001C69.6 62.6001 65.9 62.3001 62.4 61.0001L60 60.1001V54.1001C62.7 56.0001 65.7 57.2001 68 57.2001C70.3 57.2001 73.3 56.0001 76.1 54.1001V61.2001Z" fill="#DB967B"/>
<path fill-rule="evenodd" clip-rule="evenodd" d="M78.7985 62.9001L78.1984 65.1C77.1984 68.1 74.4984 72.9001 68.1984 72.9001C61.0984 72.9001 58.3984 66.7 57.4984 64L57.1984 62.8C44.0984 67.7 48.0984 108.8 48.0984 108.8L47.9984 143H89.0984L88.4984 108.9C88.4984 108.9 91.8985 67.8001 78.7985 62.9001Z" fill="#FDFEFB"/>
<path fill-rule="evenodd" clip-rule="evenodd" d="M71.9016 71.9L70.3016 74.8H65.6016L64.1016 71.9L68.0016 68.7L71.9016 71.9Z" fill="#E53A64"/>
<path fill-rule="evenodd" clip-rule="evenodd" d="M68.0016 68.6999L63.0016 73.9L54.6016 63.7999L59.8016 61.2L61.8016 63L68.0016 68.6999Z" fill="#DBDCD9"/>
<path fill-rule="evenodd" clip-rule="evenodd" d="M76.2 61.2L68 68.6999L73 73.9L81.4 63.7999L76.2 61.2Z" fill="#DBDCD9"/>
<path fill-rule="evenodd" clip-rule="evenodd" d="M70.3008 75.5L72.2008 137.3L68.0008 142L63.8008 137.3L65.6008 75.5H70.3008Z" fill="#E53A64"/>
<path fill-rule="evenodd" clip-rule="evenodd" d="M112.102 110.4C113.302 106.6 113.302 102.6 112.002 98.8C109.502 91.5 104.802 76.2 103.502 73.3C100.502 66.9 91.0019 67.1 79.1019 63L77.8019 62.5C77.1019 66.6 67.9019 106.1 67.9019 106.1C67.9019 106.1 58.7019 66.6 58.0019 62.5L56.7019 63C44.9019 67 35.4019 66.8 32.4019 73.2C31.1019 76.1 26.4019 91.4 23.9019 98.7C22.6019 102.5 22.6019 106.5 23.8019 110.3C26.6019 118.4 30.2019 126.2 34.5019 133.5C36.7019 136.7 40.4019 137.9 43.1019 137C42.7019 138.7 42.6019 140 43.0019 140H92.7019C93.1019 140 93.0019 138.7 92.6019 137C95.3019 137.9 99.1019 136.7 101.202 133.5C103.802 130 109.402 118.7 112.102 110.4Z" fill="#3A3942"/>
<path fill-rule="evenodd" clip-rule="evenodd" d="M51.3984 63.8L51.5984 71.5L55.4984 74.7L52.4984 78.8001L67.8984 106.1L58.1984 60.3L51.3984 63.8Z" fill="#444343"/>
<path fill-rule="evenodd" clip-rule="evenodd" d="M84.6016 63.8L84.4016 71.5L80.5016 74.7L83.5016 78.8001L68.1016 106.1L77.8016 60.3L84.6016 63.8Z" fill="#444343"/>
<path fill-rule="evenodd" clip-rule="evenodd" d="M85.5984 30.0001L86.1984 22.9001C86.1984 13.6001 77.2984 6.1001 68.0984 6.1001C58.8984 6.1001 49.9984 13.6001 49.9984 22.9001L50.4984 30.0001C49.9984 30.1001 49.4984 30.4001 49.0984 30.7001C48.3984 31.3001 47.8984 32.3001 47.8984 33.3001V36.8001C47.8984 38.6001 49.3984 40.1001 51.1984 40.2001C51.1984 49.0001 61.6984 57.3001 67.9984 57.3001C74.2984 57.3001 84.7984 49.0001 84.7984 40.2001C86.5984 40.2001 88.0984 38.7001 88.0984 36.8001V33.3001C88.1984 31.7001 87.0984 30.4001 85.5984 30.0001Z" fill="#E8C0A8"/>
<path fill-rule="evenodd" clip-rule="evenodd" d="M84.1992 43.8C84.4992 43 84.5992 42.1 84.6992 41.3C84.6992 42.2 84.4992 43 84.1992 43.8Z" fill="#B07862"/>
<path fill-rule="evenodd" clip-rule="evenodd" d="M68 57.2001V42.8001H64C64.9 38.4001 66.3 34.2001 68 30.0001V6.1001C77.3 6.1001 86.1 13.6001 86.1 22.9001L85.6 30.0001C87.1 30.4001 88.2 31.7001 88.2 33.2001V36.7001C88.2 38.5001 86.7 40.0001 84.9 40.1001V40.6001V40.8001V41.3001C84.8 42.2001 84.6 43.0001 84.3 43.9001L84.2 44.0001C81.8 51.2001 73.4 57.1001 68 57.2001ZM75.8 31.3001C74.2 31.2001 73 32.4001 72.9 33.8001C72.8 35.3001 74 36.5001 75.4 36.6001C75.5 36.6001 75.6 36.6001 75.7 36.6001H75.8C77.3 36.7001 78.5 35.5001 78.6 34.1001C78.7 32.6001 77.5 31.4001 76.1 31.3001C76 31.3001 75.9 31.3001 75.8 31.3001Z" fill="#E09F84"/>
<path fill-rule="evenodd" clip-rule="evenodd" d="M60.3016 36.6C58.8016 36.6 57.6016 35.5 57.6016 34C57.6016 32.5 58.7016 31.3 60.2016 31.3H60.3016C61.8016 31.2 63.0016 32.3 63.2016 33.8C63.3016 35.3 62.2016 36.5 60.7016 36.7C60.6016 36.6 60.5016 36.6 60.3016 36.6Z" fill="#DD977B"/>
<path fill-rule="evenodd" clip-rule="evenodd" d="M62.9992 33.2001C62.9992 34.7001 61.8992 35.9001 60.3992 35.9001C58.8992 35.9001 57.6992 34.8001 57.6992 33.3001C57.6992 31.8001 58.7992 30.6001 60.2992 30.6001C61.6992 30.6001 62.8992 31.7001 62.9992 33.2001Z" fill="#2C170A"/>
<path fill-rule="evenodd" clip-rule="evenodd" d="M75.8008 36.5999C74.3008 36.6999 73.1008 35.5999 72.9008 34.0999C72.8008 32.5999 73.9008 31.3999 75.4008 31.1999C75.5008 31.1999 75.6008 31.1999 75.7008 31.1999H75.8008C77.3008 31.0999 78.5008 32.1999 78.7008 33.6999C78.8008 35.1999 77.7008 36.3999 76.2008 36.5999C76.1008 36.5999 76.0008 36.5999 75.8008 36.5999Z" fill="#D67F64"/>
<path fill-rule="evenodd" clip-rule="evenodd" d="M78.4016 33.2001C78.4016 34.7001 77.3016 35.9001 75.8016 35.9001C74.3016 35.9001 73.1016 34.8001 73.1016 33.3001C73.1016 31.8001 74.2016 30.6001 75.7016 30.6001C77.2016 30.6001 78.4016 31.7001 78.4016 33.2001Z" fill="#2C170A"/>
<path fill-rule="evenodd" clip-rule="evenodd" d="M83.7984 38.3999C83.6984 41.0999 82.4984 43.4999 80.4984 45.2999C79.6984 45.8999 78.5984 45.9999 77.5984 45.5999C75.9984 44.8999 72.3984 44.2999 67.9984 44.2999C64.6984 44.1999 61.4984 44.5999 58.3984 45.5999C57.4984 45.9999 56.3984 45.8999 55.4984 45.2999C53.4984 43.4999 52.2984 40.9999 52.1984 38.3999C52.1984 38.3999 49.4984 28.7999 51.4984 21.5999C52.4984 18.0999 56.7984 16.0999 60.2984 16.9999C62.7984 17.5999 65.2984 17.8999 67.8984 17.8999C70.4984 17.8999 72.9984 17.5999 75.4984 16.9999C78.9984 16.0999 83.2984 18.0999 84.2984 21.5999C86.4984 28.6999 83.7984 38.3999 83.7984 38.3999ZM61.1984 1.79994C42.9984 -4.20006 46.4984 30.4999 48.2984 36.1999C48.6984 37.1999 49.2984 38.0999 50.0984 38.8999C50.5984 39.8999 48.5984 59.6999 68.0984 59.6999C87.5984 59.6999 85.3984 39.9999 85.9984 38.8999C86.6984 38.0999 87.2984 37.1999 87.7984 36.1999C89.5984 30.4999 95.0984 -8.70006 61.1984 1.79994Z" fill="#413429"/>
<path fill-rule="evenodd" clip-rule="evenodd" d="M77.6016 37.9999C72.8016 37.9999 71.3016 36.8999 70.4016 32.9999C70.2016 32.1999 70.4016 31.3999 70.8016 30.7999C71.5016 29.9999 73.2016 28.9999 77.5016 28.9999C83.8016 28.9999 83.8016 32.0999 83.8016 33.1999C83.9016 35.9999 83.5016 37.9999 77.6016 37.9999ZM64.5016 32.9999C63.7016 36.9999 62.1016 37.9999 57.3016 37.9999C51.4016 37.9999 51.0016 36.0999 51.0016 33.0999C51.0016 32.0999 51.0016 28.9999 57.3016 28.9999C61.6016 28.9999 63.4016 29.9999 64.0016 30.7999C64.5016 31.3999 64.7016 32.1999 64.5016 32.9999ZM86.2016 28.5999H82.6016C81.0016 27.8999 79.3016 27.4999 77.6016 27.5999C73.9016 27.5999 71.3016 28.2999 70.0016 29.6999C68.4016 28.7999 66.4016 28.7999 64.9016 29.6999C63.6016 28.2999 61.0016 27.5999 57.3016 27.5999C55.6016 27.4999 53.9016 27.8999 52.3016 28.5999H48.6016V31.1999L49.8016 31.5999C49.7016 32.0999 49.6016 32.5999 49.6016 33.0999C49.6016 37.0999 50.8016 39.2999 57.2016 39.2999C62.6016 39.2999 64.7016 37.7999 65.7016 33.1999C65.8016 32.6999 65.8016 32.0999 65.7016 31.5999C66.2016 31.2999 66.7016 31.1999 67.3016 31.1999C67.9016 31.1999 68.4016 31.2999 68.9016 31.5999C68.8016 32.0999 68.8016 32.6999 68.9016 33.1999C69.9016 37.7999 72.0016 39.2999 77.4016 39.2999C83.8016 39.2999 85.1016 36.9999 85.1016 33.0999C85.1016 32.5999 85.0016 32.0999 84.9016 31.5999L86.1016 31.1999L86.2016 28.5999Z" fill="#3B3943"/>
<path fill-rule="evenodd" clip-rule="evenodd" d="M110.199 137.1H25.7992C22.4992 137.1 19.6992 139.8 19.6992 143.2C19.6992 146.6 22.3992 149.3 25.7992 149.3H110.199C113.499 149.3 116.299 146.6 116.299 143.2C116.299 139.8 113.499 137.1 110.199 137.1Z" fill="#5D5B63"/>
<path fill-rule="evenodd" clip-rule="evenodd" d="M100.098 137.1H35.8984C35.0984 137.2 34.2984 136.6 34.1984 135.8C34.0984 135 34.6984 134.2 35.4984 134.1H99.9984C100.798 134.2 101.398 134.9 101.298 135.8C101.298 136.5 100.798 137 100.098 137.1Z" fill="#9D9D9C"/>
<path fill-rule="evenodd" clip-rule="evenodd" d="M97.5984 134.2H38.3984C36.1984 134.2 34.3984 132.4 34.3984 130.2V89.3999C34.3984 87.1999 36.1984 85.3999 38.3984 85.3999H97.5984C99.7984 85.3999 101.598 87.1999 101.598 89.3999V130.2C101.598 132.4 99.7984 134.2 97.5984 134.2Z" fill="#D6D6D1"/>
<path fill-rule="evenodd" clip-rule="evenodd" d="M68 113.8C65 113.8 62.5 111.3 62.5 108.3C62.5 105.3 65 102.8 68 102.8C71 102.8 73.5 105.3 73.5 108.3C73.5 111.3 71 113.8 68 113.8Z" fill="#EBEAE7"/>
<path fill-rule="evenodd" clip-rule="evenodd" d="M37.4984 134.1H36.4984C35.2984 133.7 34.4984 132.7 34.4984 131.4V130.2C34.4984 132.1 35.6984 133.7 37.4984 134.1ZM34.3984 89.3999V88.1999C34.3984 86.6999 35.6984 85.3999 37.1984 85.3999H38.3984C36.1984 85.3999 34.3984 87.1999 34.3984 89.3999Z" fill="#5D5B63"/>
<path fill-rule="evenodd" clip-rule="evenodd" d="M46.9 134.2H37.3C37 134.2 36.8 134.2 36.5 134.1H37.5C37.8 134.2 38.1 134.2 38.4 134.2H46.9Z" fill="#AEAEAB"/>
<path fill-rule="evenodd" clip-rule="evenodd" d="M46.8984 134.2H38.3984C36.1984 134.2 34.3984 132.4 34.3984 130.2V89.3999C34.3984 87.1999 36.1984 85.3999 38.3984 85.3999H86.2984C64.3984 92.0999 48.7984 111.4 46.8984 134.2Z" fill="#DDDDD8"/>
<path fill-rule="evenodd" clip-rule="evenodd" d="M63.5992 47.5L64.2992 47.7C66.6992 48.3 69.0992 48.3 71.4992 47.7L72.3992 47.5C72.5992 47.5 72.6992 47.6 72.6992 47.8C72.6992 47.9 72.6992 48 72.5992 48C71.8992 49.7 69.6992 51.3 67.9992 51.1C66.2992 50.9 64.4992 49.8 63.3992 48C63.2992 47.9 63.2992 47.7 63.3992 47.6C63.4992 47.5 63.4992 47.5 63.5992 47.5Z" fill="#E8C0A8"/>
<path fill-rule="evenodd" clip-rule="evenodd" d="M62.9984 26.4001L62.2984 26.2001C59.8984 25.6001 57.4984 25.6001 55.0984 26.2001L54.1984 26.4001C53.9984 26.4001 53.8984 26.3001 53.8984 26.1001C53.8984 26.0001 53.8984 25.9001 53.9984 25.9001C55.2984 24.9001 56.9984 24.4001 58.5984 24.5001C60.2984 24.4001 61.8984 24.9001 63.1984 25.9001C63.2984 26.0001 63.2984 26.2001 63.1984 26.3001C63.1984 26.4001 63.0984 26.4001 62.9984 26.4001Z" fill="#413429" stroke="#413429" stroke-width="0.25" stroke-miterlimit="10"/>
<path fill-rule="evenodd" clip-rule="evenodd" d="M80.2992 26.4001L79.5992 26.2001C77.1992 25.6001 74.7992 25.6001 72.3992 26.2001L71.4992 26.4001C71.2992 26.4001 71.1992 26.3001 71.1992 26.1001C71.1992 26.0001 71.1992 25.9001 71.2992 25.9001C72.5992 24.9001 74.2992 24.4001 75.9992 24.5001C77.6992 24.4001 79.2992 24.9001 80.5992 25.9001C80.6992 26.0001 80.6992 26.2001 80.5992 26.3001C80.5992 26.4001 80.4992 26.4001 80.2992 26.4001Z" fill="#413429" stroke="#413429" stroke-width="0.25" stroke-miterlimit="10"/>
<path fill-rule="evenodd" clip-rule="evenodd" d="M61.6984 32.2999C61.6984 32.4999 61.4984 32.6999 61.2984 32.6999C61.0984 32.6999 60.8984 32.4999 60.8984 32.2999C60.8984 32.0999 61.0984 31.8999 61.2984 31.8999C61.4984 31.8999 61.6984 32.0999 61.6984 32.2999Z" fill="#FDFEFB"/>
<path fill-rule="evenodd" clip-rule="evenodd" d="M77.1008 32.2999C77.1008 32.4999 76.9008 32.6999 76.7008 32.6999C76.5008 32.6999 76.3008 32.4999 76.3008 32.2999C76.3008 32.0999 76.5008 31.8999 76.7008 31.8999C76.9008 31.8999 77.1008 32.0999 77.1008 32.2999Z" fill="#FDFEFB"/>
</g>
<defs>
<clipPath id="clip0_34_3505">
<rect width="136" height="149.1" fill="white"/>
</clipPath>
</defs>
</svg>
