<?xml version="1.0" encoding="UTF-8"?>
<svg width="762px" height="255px" viewBox="0 0 762 255" version="1.1" xmlns="http://www.w3.org/2000/svg" xmlns:xlink="http://www.w3.org/1999/xlink">
    <!-- Generator: Sketch 58 (84663) - https://sketch.com -->
    <title>Group 80 Copy 6</title>
    <desc>Created with Sketch.</desc>
    <defs>
        <rect id="path-1" x="0" y="0" width="762" height="255"></rect>
    </defs>
    <g id="reports" stroke="none" stroke-width="1" fill="none" fill-rule="evenodd">
        <g id="7.-Report-(-income-&amp;-expneses)-Copy" transform="translate(-268.000000, -1201.000000)">
            <g id="Group-80-Copy-6" transform="translate(268.000000, 1201.000000)">
                <g id="Group-86">
                    <mask id="mask-2" fill="white">
                        <use xlink:href="#path-1"></use>
                    </mask>
                    <use id="Mask" fill="#fafafa" xlink:href="#path-1"></use>
                    <g mask="url(#mask-2)">
                        <g transform="translate(640.000000, -49.000000)">
                            <g>
                                <g id="Group-31-Copy-46">
                                    <g id="Group-36" fill="#65D48E">
                                        <circle id="Oval-Copy-19" opacity="0.120419457" cx="74.6926239" cy="74.6926239" r="74.6926239"></circle>
                                        <circle id="Oval-Copy-20" opacity="0.232538132" cx="74.6926239" cy="74.6926239" r="62.8990517"></circle>
                                    </g>
                                    <g id="Group-11-Copy-4" transform="translate(72.842717, 71.228226) rotate(-32.000000) translate(-72.842717, -71.228226) translate(21.842717, 22.228226)" opacity="0.228329613">
                                        <circle id="Oval" fill="#005263" cx="3.94944256" cy="38.1064816" r="3.93119073"></circle>
                                        <circle id="Oval-Copy-2" fill="#005263" cx="97.1995413" cy="45.4872958" r="3.93119073"></circle>
                                        <circle id="Oval-Copy-36" fill="#47A395" transform="translate(75.016993, 95.494026) scale(1, -1) translate(-75.016993, -95.494026) " cx="75.0169929" cy="95.4940263" r="1.65983609"></circle>
                                    </g>
                                </g>
                                <g id="Group-31" transform="translate(49.000000, 54.000000)" fill="#005263" fill-rule="nonzero">
                                    <path d="M16.3423318,32.8769263 C25.3535452,32.8769263 32.6846636,25.5026837 32.6846636,16.4384632 C32.6846636,7.37424257 25.3535452,-4.26325641e-14 16.3423318,-4.26325641e-14 C7.33111835,-4.26325641e-14 1.42108547e-14,7.37424257 1.42108547e-14,16.4384632 C1.42108547e-14,25.5026837 7.33111835,32.8769263 16.3423318,32.8769263 Z M11.9356171,13.2319585 C11.7708356,13.2329275 11.6125226,13.1705026 11.4960808,13.0586436 C11.3796391,12.9467846 11.3147824,12.794823 11.3160144,12.6367413 C11.3187179,12.4809152 11.3865867,12.3326692 11.5043638,12.2253292 C11.6221409,12.1179891 11.7799435,12.0605621 11.9422974,12.0659578 L11.9490821,12.0659578 L18.3611766,12.1081156 C18.0758941,10.4353582 16.585025,9.19733975 14.8185022,9.16627696 L11.9793525,9.13713695 C11.6330133,9.13388863 11.354789,8.86227011 11.3574534,8.53000346 C11.3571516,8.37084637 11.4235384,8.21825081 11.5416892,8.10652225 C11.6598401,7.99479368 11.8198403,7.93330794 11.9857197,7.9358098 L14.8144314,7.96542839 L14.8144314,7.96763141 L21.9045816,8.04333534 C22.2554546,8.0426717 22.5404543,8.3150102 22.5411473,8.65162042 C22.5418378,8.98823063 22.2579598,9.26164513 21.9070867,9.26230879 L21.900302,9.26230879 L18.0799755,9.21434294 C18.9404939,9.96790678 19.4897453,10.9932861 19.6274165,12.1032089 L21.8676309,12.1320485 C22.2157664,12.1410021 22.4918118,12.4166228 22.4872335,12.7506978 C22.485394,13.0845144 22.2087356,13.3571814 21.8609505,13.3679452 L21.8540614,13.3679452 L19.613847,13.3219821 C19.2708254,15.6279492 17.2090484,17.3388689 14.7810296,17.3323877 L14.7280043,17.3323877 L13.4641652,17.3193698 L19.353522,22.7743587 C19.6023586,23.0048398 19.6093218,23.3852036 19.3690747,23.623925 C19.1288277,23.8626464 18.7323471,23.8693266 18.4835105,23.6388455 L11.461312,17.1348165 C11.2771524,16.9638156 11.220182,16.7024248 11.3174964,16.4749626 C11.4148107,16.2475004 11.6467688,16.0998755 11.9030503,16.102299 L14.741365,16.1323402 C14.7544126,16.1323402 14.7678777,16.1340426 14.7809252,16.1340426 C16.5274078,16.1326314 18.0256245,14.9390541 18.3479202,13.2923414 L11.9356171,13.2319585 Z" id="Shape-Copy-5"></path>
                                    <path d="M53.3290309,35.4896608 L51.4215237,35.4896608 L51.4215237,35.4896608 C50.1633807,31.6113811 47.7012083,28.1685574 44.4138023,25.5013897 C44.4138023,25.3789177 44.3867454,25.2428377 44.3596886,25.1203657 C43.6697392,22.6845339 44.5220296,20.4664301 45.5096043,18.8742943 C46.1995537,17.7584384 45.306678,16.3295985 44.0079497,16.4928945 C41.0993394,16.8603105 39.0971333,17.9353424 37.7172345,19.1464543 C36.7702451,19.9765422 36.0938241,21.0923981 35.7961988,22.330726 C33.7128222,31.0126292 25.9339808,37.4764286 16.6670132,37.4764286 C12.1620494,37.4764286 8.02235295,35.9523327 4.7078901,33.394029 C3.55797441,35.8979007 2.9356671,38.6331085 2.9356671,41.5043962 C2.9356671,43.0557081 3.12506498,44.5661959 3.47680389,46.0222518 L3.47680389,46.0222518 C3.47680389,46.0222518 3.47680389,46.0494678 3.49033231,46.0902918 C3.85559965,47.6007797 4.41026486,49.0568355 5.11374269,50.4312434 C6.04720366,52.4588352 7.40004564,54.826627 9.26696758,56.7453548 C11.9591231,59.5349946 12.4190894,62.9914263 12.4867315,64.4883061 L12.4867315,65.1278821 C12.4867315,65.1550981 12.4867315,65.1823141 12.4867315,65.2095301 C12.4867315,65.2231381 12.4867315,65.2231381 12.4867315,65.2231381 L12.4867315,65.2231381 C12.5408452,65.95797 13.1496241,66.5431139 13.8936872,66.5431139 L22.4436485,66.5431139 C23.2147684,66.5431139 23.8506041,65.917146 23.8506041,65.1278821 L23.8506041,63.0050343 C25.0952188,63.1683302 26.3668902,63.2635862 27.6520901,63.2635862 C28.6667216,63.2635862 29.6542962,63.2091542 30.6418709,63.1002903 L30.6418709,65.1278821 C30.6418709,65.903538 31.2641782,66.5431139 32.0488266,66.5431139 L40.6258447,66.5431139 C41.3969647,66.5431139 42.0328004,65.917146 42.0328004,65.1278821 L42.0328004,63.0050343 C42.0463288,62.2974183 42.2898404,59.4805626 44.9414106,57.0719468 C45.0361096,56.9902988 45.1308085,56.9086508 45.2255075,56.8270028 C45.2525643,56.7997868 45.2796211,56.7861788 45.306678,56.7589628 L45.306678,56.7589628 C48.2558735,54.1190111 50.4339491,50.8258754 51.5568079,47.1517157 L53.3560878,47.1517157 C54.7901003,47.1517157 55.9535444,45.9814278 55.9535444,44.5389799 L55.9535444,38.1023965 C55.9264875,36.6599487 54.7630434,35.4896608 53.3290309,35.4896608 Z M42.6280509,35.9523327 C41.4510783,35.9523327 40.5040889,34.9997728 40.5040889,33.8158769 C40.5040889,32.631981 41.4510783,31.6794211 42.6280509,31.6794211 C43.8050234,31.6794211 44.7520128,32.631981 44.7520128,33.8158769 C44.7520128,34.9997728 43.8050234,35.9523327 42.6280509,35.9523327 Z" id="Shape"></path>
                                </g>
                            </g>
                        </g>
                    </g>
                </g>
            </g>
        </g>
    </g>
</svg>