<svg xmlns="http://www.w3.org/2000/svg" xmlns:xlink="http://www.w3.org/1999/xlink" viewBox="0 0 1358 290"><defs><style>.cls-1{isolation:isolate;}.cls-2{fill:#fce2b9;opacity:0.4;}.cls-3,.cls-5,.cls-6{fill:#fed385;}.cls-4{fill:#a5681e;opacity:0.5;}.cls-4,.cls-5{mix-blend-mode:multiply;}.cls-6{mix-blend-mode:color-burn;}.cls-7{fill:#fc9f21;}.cls-8{fill:#8bc53f;}.cls-9{fill:#4e7735;}.cls-10{fill:url(#linear-gradient);}.cls-11{fill:url(#linear-gradient-2);}.cls-12{fill:#7faa33;}.cls-13{fill:url(#linear-gradient-3);}.cls-14{fill:url(#linear-gradient-4);}.cls-15{fill:#aebecc;}.cls-16{fill:#dedede;}.cls-17{fill:url(#linear-gradient-5);}.cls-18{fill:#e3e3e3;}.cls-19{fill:#e0e0e0;}.cls-20{fill:#f0806d;}.cls-21{fill:#005263;}.cls-22{fill:#fff;}.cls-23{fill:#f5f7ff;}</style><linearGradient id="linear-gradient" x1="1080.98" y1="107.54" x2="1137.23" y2="107.54" gradientUnits="userSpaceOnUse"><stop offset="0" stop-color="#ffd486"/><stop offset="1" stop-color="#8ac141"/></linearGradient><linearGradient id="linear-gradient-2" x1="4245.26" y1="-6525.53" x2="4245.26" y2="-6583.51" gradientTransform="translate(-6068.18 3242.74) rotate(33.63)" gradientUnits="userSpaceOnUse"><stop offset="0.01" stop-color="#3c6127"/><stop offset="1" stop-color="#639c38"/></linearGradient><linearGradient id="linear-gradient-3" x1="-756.3" y1="1785.64" x2="-756.3" y2="1703.27" gradientTransform="translate(1313.83 -1729.81) rotate(-10.45)" xlink:href="#linear-gradient-2"/><linearGradient id="linear-gradient-4" x1="-7732.69" y1="4667.27" x2="-7732.69" y2="4602.1" gradientTransform="translate(3035.41 -8616.15) rotate(-45.28)" xlink:href="#linear-gradient-2"/><linearGradient id="linear-gradient-5" x1="883.31" y1="132.37" x2="1096.28" y2="132.37" gradientTransform="translate(1979.59 264.75) rotate(-180)" gradientUnits="userSpaceOnUse"><stop offset="0" stop-color="#fff"/><stop offset="1" stop-color="#f2f5ff"/></linearGradient></defs><g class="cls-1"><g id="Layer_1" data-name="Layer 1"><path class="cls-2" d="M1359.71,290H0V173s158.84-33.87,306.06,10.64,205.25-27.88,205.25-27.88S660,110.88,715.84,198.87s182.22-17.73,220-24.74c37.45,6.47,51.16-34,124.89,13s96,58.35,143,56.17C1320.66,218.49,1349.74,213,1359.71,290Z"/><path class="cls-3" d="M1321.25,61.82a2.68,2.68,0,0,1-2.66,2.66h-57a2.67,2.67,0,0,1,0-5.33h2.7a6.94,6.94,0,0,1,11.3-2.15,9.63,9.63,0,0,1,11.13-4.35,11,11,0,0,1,20.38,2.23,6.94,6.94,0,0,1,9.78,4.27h1.72A2.67,2.67,0,0,1,1321.25,61.82Z"/><path class="cls-3" d="M73.94,59a4.85,4.85,0,0,0,4.82,4.83H182A4.84,4.84,0,0,0,186.78,59,4.85,4.85,0,0,0,182,54.13h-4.88a12.57,12.57,0,0,0-20.47-3.9,17.47,17.47,0,0,0-15.07-8.62,17.72,17.72,0,0,0-5.07.75,20,20,0,0,0-36.89,4,12.58,12.58,0,0,0-17.71,7.74H78.76A4.84,4.84,0,0,0,73.94,59Z"/><path class="cls-3" d="M585.39,58.65A4.7,4.7,0,0,1,584,62a4.63,4.63,0,0,1-3.31,1.38H480.27a4.69,4.69,0,0,1-3.31-8A4.63,4.63,0,0,1,480.27,54H485a12.25,12.25,0,0,1,19.92-3.8,17,17,0,0,1,19.59-7.65,19.44,19.44,0,0,1,35.91,3.92A12.25,12.25,0,0,1,577.67,54h3A4.71,4.71,0,0,1,585.39,58.65Z"/><path class="cls-4" d="M278,52.78l.19.6a.83.83,0,0,1,0,.15.13.13,0,0,0,0,.06.53.53,0,0,1,0,.13.19.19,0,0,1,0,.08.87.87,0,0,1-.25.47l-.05,0,0,0-.07,0a.8.8,0,0,1-.16.08l-2.62.86a.86.86,0,0,1,1,.42.31.31,0,0,1,.06.13l1.49,4.49a.39.39,0,0,1,0,.14h0a.15.15,0,0,0,0,.07s0,0,0,0,0,.08,0,.12a.36.36,0,0,1,0,.1s0,0,0,0a.94.94,0,0,1-.2.35l-.06.06-.06.05-.06,0a.56.56,0,0,1-.17.09l-1.21.4a.87.87,0,0,1,1,.41l.06.14,1.49,4.48a.77.77,0,0,1,0,.15h0a.2.2,0,0,0,0,.07s0,0,0,0,0,.07,0,.11a.3.3,0,0,1,0,.1s0,0,0,0a.94.94,0,0,1-.2.35l-.06,0-.06,0-.05,0-.18.08,1.21-.4a.87.87,0,0,1,1,.41l.06.14,1.49,4.49,0,.14s0,.1,0,.15a.15.15,0,0,1,0,.07.82.82,0,0,1-.17.43l-.06.06s0,0-.06.06l-.06.06-.06,0-.17.08-2.86,1a.86.86,0,0,1,1,.41.35.35,0,0,1,.06.14l1.49,4.49a.54.54,0,0,1,0,.22.75.75,0,0,1,0,.15.73.73,0,0,1-.06.21l0,.07s0,0,0,.08l0,.06-.05.07a.69.69,0,0,1-.13.11l-.06,0-.17.08,1.24-.41a.85.85,0,0,1,1,.41l.06.13,1.48,4.49a.74.74,0,0,1,0,.14,1,1,0,0,1,0,.24.13.13,0,0,1,0,.06.87.87,0,0,1-.25.46l-.05,0,0,0-.06,0-.17.08-2.33.77a.87.87,0,0,1,1,.41l.06.14,1.48,4.48a.83.83,0,0,1,0,.15.17.17,0,0,0,0,.07v.13s0,0,0,.08a.85.85,0,0,1-.34.55l-.07,0-.16.07-6.57,2.18-1.26-.33c-.55-.17-1.11-.35-1.65-.56A22.18,22.18,0,0,1,269,92.08c-.24-.16-.47-.34-.7-.52s-.45-.35-.67-.53a21.91,21.91,0,0,1-3.75-4l-.42-.61-.4-.62a22,22,0,0,1-2.13-4.58h0c-.07-.23-.15-.46-.21-.69s-.14-.46-.19-.69a22,22,0,0,1-.71-5.06V74c0-.25,0-.51,0-.76a21.79,21.79,0,0,1,1-5.63c.09-.29.19-.57.3-.85s.21-.58.34-.87A21.8,21.8,0,0,1,266,59.1c.1-.11.2-.22.31-.32q.43-.44.9-.84c.43-.38.88-.75,1.36-1.11l.23-.17a22,22,0,0,1,6-3.07l.32-.1A22.05,22.05,0,0,1,278,52.78Z"/><circle class="cls-3" cx="284.8" cy="73.25" r="21.82" transform="translate(-6.68 34.33) rotate(-6.82)"/><circle class="cls-5" cx="284.3" cy="73.41" r="17.29" transform="translate(187.1 350.49) rotate(-85.15)"/><path class="cls-6" d="M278.86,57l-.92.34A17.28,17.28,0,0,1,288.8,90.1c.32-.08.63-.17.95-.28A17.29,17.29,0,0,0,278.86,57Z"/><circle class="cls-3" cx="284.3" cy="73.41" r="11.37" transform="translate(-1.59 140.35) rotate(-27.66)"/><path class="cls-7" d="M287.25,67.05l-.52-1.58-6.59,2.19-2.53.84.53,1.57,2.52-.84a2.61,2.61,0,0,1,2.88.9l-4.85,1.61.52,1.57,4.85-1.6a2.58,2.58,0,0,1-1.77,2.43l-2.53.84.53,1.58.5-.17a4.45,4.45,0,0,1,2.4-.13,9.71,9.71,0,0,1,5.63,3.81l1.66-.55a11.78,11.78,0,0,0-6.16-4.68,4.28,4.28,0,0,0,1.37-3.67l2.64-.88-.53-1.57-2.63.87a4.06,4.06,0,0,0-1.32-1.41Z"/><path class="cls-4" d="M184.05,192.81l.11.31s0,0,0,.08,0,0,0,0v.11a.5.5,0,0,1-.13.25l0,0,0,0,0,0-.09,0-1.37.45a.45.45,0,0,1,.54.22l0,.07.78,2.36s0,.05,0,.07h0V197a.09.09,0,0,1,0,.05v0a.5.5,0,0,1-.1.19l0,0,0,0a0,0,0,0,1,0,0l-.1.05-.63.21a.45.45,0,0,1,.54.21l0,.07.78,2.36s0,0,0,.07h0v.12a.09.09,0,0,1,0,0v0a.36.36,0,0,1-.1.18l0,0,0,0,0,0a.31.31,0,0,1-.1.05l.64-.21a.45.45,0,0,1,.54.21l0,.07.78,2.36a.19.19,0,0,1,0,.07v.12a.43.43,0,0,1-.09.22l0,0,0,0a.05.05,0,0,1,0,0s0,0,0,0a.31.31,0,0,1-.1.05l-1.49.49a.45.45,0,0,1,.54.22l0,.07.78,2.35a.5.5,0,0,1,0,.12v.08l0,.11,0,0,0,0,0,0,0,0a.13.13,0,0,1-.07.06l0,0-.09,0,.65-.21a.45.45,0,0,1,.54.21l0,.08.78,2.35s0,.05,0,.07v.13a0,0,0,0,1,0,0,.38.38,0,0,1-.13.24l0,0,0,0,0,0-.09,0-1.22.41a.45.45,0,0,1,.54.21l0,.07.78,2.36a.19.19,0,0,1,0,.07.06.06,0,0,0,0,0,.13.13,0,0,1,0,.06v.05a.45.45,0,0,1-.18.28l0,0-.08,0-3.45,1.14-.66-.18a8.69,8.69,0,0,1-.86-.29,11,11,0,0,1-2.53-1.36c-.13-.08-.25-.18-.37-.27l-.35-.28a11,11,0,0,1-2-2.12l-.22-.32a3,3,0,0,1-.21-.33,11,11,0,0,1-1.12-2.4h0c0-.12-.08-.24-.11-.36s-.07-.24-.1-.36a11,11,0,0,1-.37-2.65,2.67,2.67,0,0,1,0-.4c0-.13,0-.26,0-.4a11.3,11.3,0,0,1,.54-3c.05-.15.1-.3.16-.45a4.22,4.22,0,0,1,.18-.45,11.3,11.3,0,0,1,2.34-3.55l.16-.17.47-.44c.23-.2.47-.39.72-.58l.12-.09a11.23,11.23,0,0,1,3.14-1.61l.16,0A10.76,10.76,0,0,1,184.05,192.81Z"/><circle class="cls-3" cx="187.61" cy="203.54" r="11.44" transform="translate(-22.84 23.71) rotate(-6.82)"/><circle class="cls-5" cx="187.35" cy="203.62" r="9.06"/><path class="cls-6" d="M184.49,195a4.68,4.68,0,0,0-.48.18,9.07,9.07,0,0,1,5.7,17.18l.49-.15A9.07,9.07,0,0,0,184.49,195Z"/><circle class="cls-3" cx="187.35" cy="203.62" r="5.96" transform="translate(-73.11 110.23) rotate(-27.66)"/><path class="cls-7" d="M188.89,200.29l-.27-.83-3.45,1.15-1.33.44.27.82,1.33-.44a1.37,1.37,0,0,1,1.51.47l-2.55.85.28.82,2.54-.84a1.36,1.36,0,0,1-.93,1.28l-1.32.44.27.82.27-.09a2.41,2.41,0,0,1,1.25-.07,5.19,5.19,0,0,1,3,2l.86-.28a6.21,6.21,0,0,0-3.22-2.46,2.23,2.23,0,0,0,.72-1.92l1.38-.46-.28-.83-1.38.46a2.22,2.22,0,0,0-.69-.74Z"/><path class="cls-4" d="M618.61,220l.18.56a.32.32,0,0,1,0,.14.13.13,0,0,1,0,.06v.12a.25.25,0,0,1,0,.08.78.78,0,0,1-.24.43l0,0,0,0-.06,0-.16.07-2.44.81a.8.8,0,0,1,1,.38l.06.13,1.39,4.2a.7.7,0,0,1,0,.14h0s0,0,0,.07v0a.45.45,0,0,1,0,.11.28.28,0,0,1,0,.09.06.06,0,0,0,0,0,.92.92,0,0,1-.19.33l-.06.05s0,0-.06.05l-.05,0a.6.6,0,0,1-.16.08l-1.13.38a.8.8,0,0,1,1,.38l.06.13,1.39,4.2,0,.13h0a.13.13,0,0,0,0,.06v0a.37.37,0,0,1,0,.11s0,.06,0,.09l0,0a.78.78,0,0,1-.18.32l-.06,0-.06.05-.05,0-.16.07,1.13-.37a.8.8,0,0,1,1,.38.52.52,0,0,1,.06.13l1.39,4.2a.35.35,0,0,1,0,.14.61.61,0,0,1,0,.14v.06a.8.8,0,0,1-.17.4.1.1,0,0,1,0,.06.34.34,0,0,1-.06.06s0,0-.06,0l0,0a.6.6,0,0,1-.16.08l-2.67.88a.81.81,0,0,1,1,.39l.06.12,1.39,4.21a.65.65,0,0,1,0,.2.61.61,0,0,1,0,.14.54.54,0,0,1,0,.21l0,.06,0,.07-.05.06,0,.06a.43.43,0,0,1-.12.11l-.06,0-.15.08,1.15-.39a.82.82,0,0,1,1,.39.61.61,0,0,1,.05.12l1.39,4.2a.74.74,0,0,1,0,.14.81.81,0,0,1,0,.22s0,0,0,.06a.85.85,0,0,1-.24.42s0,0,0,0l0,0-.06,0-.16.07-2.18.73a.79.79,0,0,1,1,.38.52.52,0,0,1,.06.13l1.39,4.2a.31.31,0,0,1,0,.13.17.17,0,0,1,0,.07v.12a.17.17,0,0,1,0,.07.79.79,0,0,1-.32.51l-.06,0-.16.08-6.14,2c-.4-.09-.79-.19-1.18-.31s-1-.33-1.55-.52a21.08,21.08,0,0,1-4.51-2.42l-.66-.49-.62-.5a20.12,20.12,0,0,1-3.51-3.79q-.2-.27-.39-.57l-.38-.58a20.51,20.51,0,0,1-2-4.29h0c-.07-.21-.14-.43-.2-.64l-.18-.64a20.43,20.43,0,0,1-.66-4.74v-.7c0-.24,0-.48,0-.71a20.28,20.28,0,0,1,1-5.27c.09-.27.18-.54.28-.8s.2-.54.32-.81a20.56,20.56,0,0,1,4.18-6.34l.3-.3c.27-.27.55-.53.83-.78s.83-.71,1.28-1l.21-.16a20.44,20.44,0,0,1,5.6-2.87l.3-.1A19.28,19.28,0,0,1,618.61,220Z"/><circle class="cls-3" cx="624.96" cy="239.13" r="20.42" transform="translate(-23.97 75.89) rotate(-6.82)"/><circle class="cls-5" cx="624.49" cy="239.29" r="16.18" transform="translate(333.23 841.3) rotate(-85.15)"/><path class="cls-6" d="M619.4,223.93c-.3.1-.58.21-.87.32a16.18,16.18,0,0,1,10.17,30.66c.3-.08.59-.17.88-.27a16.18,16.18,0,1,0-10.18-30.71Z"/><circle class="cls-3" cx="624.49" cy="239.29" r="10.64" transform="translate(-39.72 317.21) rotate(-27.66)"/><path class="cls-7" d="M627.25,233.33l-.49-1.47-6.16,2-2.37.79.49,1.47,2.37-.78a2.42,2.42,0,0,1,2.69.83l-4.54,1.51.49,1.47,4.54-1.5a2.43,2.43,0,0,1-1.66,2.28l-2.37.78.49,1.48.48-.16a4.16,4.16,0,0,1,2.24-.12,9.13,9.13,0,0,1,5.27,3.56l1.55-.51a11.06,11.06,0,0,0-5.76-4.38,4,4,0,0,0,1.28-3.44l2.47-.81-.49-1.48-2.47.82a3.9,3.9,0,0,0-1.23-1.32Z"/><path class="cls-4" d="M819.26,82.74l.14.44a.23.23,0,0,1,0,.11.09.09,0,0,0,0,0,.34.34,0,0,1,0,.1v.06a.71.71,0,0,1-.19.35l0,0,0,0s0,0,0,0A.34.34,0,0,1,819,84l-2,.65a.64.64,0,0,1,.77.3.42.42,0,0,1,0,.1L819,88.39a.36.36,0,0,1,0,.1h0v.17s0,0,0,.08v0a.61.61,0,0,1-.15.26l-.05,0s0,0,0,0l0,0-.14.06-.9.3a.64.64,0,0,1,.77.3s0,.07.05.1l1.1,3.35a.18.18,0,0,1,0,.1h0v.05a0,0,0,0,0,0,0s0,.06,0,.09,0,0,0,.07v0a.76.76,0,0,1-.15.26s0,0,0,0l0,0,0,0-.13.07.9-.3a.63.63,0,0,1,.76.3.47.47,0,0,1,0,.1L822,97.51a.36.36,0,0,1,0,.1.49.49,0,0,1,0,.12v0a.66.66,0,0,1-.14.32l0,.05s0,0,0,0l0,0,0,0-.13.07-2.13.7a.64.64,0,0,1,.77.31.3.3,0,0,1,0,.1l1.11,3.34a.51.51,0,0,1,0,.17.2.2,0,0,1,0,.11.47.47,0,0,1,0,.16s0,0,0,.05l0,.06,0,.05,0,0-.09.09,0,0a.31.31,0,0,1-.13.06l.92-.3a.64.64,0,0,1,.77.3.42.42,0,0,1,0,.1l1.11,3.35,0,.1a.54.54,0,0,1,0,.18s0,0,0,0a.58.58,0,0,1-.19.34s0,0,0,0l0,0-.05,0-.12.06-1.74.57a.65.65,0,0,1,.77.31.3.3,0,0,1,0,.1l1.11,3.34a.43.43,0,0,1,0,.11.09.09,0,0,1,0,0v.1a.13.13,0,0,1,0,.06.61.61,0,0,1-.26.4.05.05,0,0,1,0,0,.31.31,0,0,1-.13.06l-4.89,1.62c-.31-.07-.62-.15-.93-.25s-.83-.26-1.23-.41a16.65,16.65,0,0,1-3.6-1.93l-.52-.38-.49-.4a16,16,0,0,1-2.8-3l-.31-.46-.3-.46a16.33,16.33,0,0,1-1.58-3.41h0c-.06-.17-.11-.34-.16-.51s-.1-.34-.14-.51a16.32,16.32,0,0,1-.53-3.77v-.55c0-.19,0-.38,0-.57a16.06,16.06,0,0,1,.77-4.2c.07-.21.14-.42.22-.63s.16-.43.25-.65a16.26,16.26,0,0,1,3.33-5l.24-.24c.21-.21.43-.42.66-.62s.66-.56,1-.83l.18-.12a15.89,15.89,0,0,1,4.45-2.29l.24-.08A17.38,17.38,0,0,1,819.26,82.74Z"/><circle class="cls-3" cx="824.31" cy="97.98" r="16.25" transform="translate(-5.8 98.56) rotate(-6.82)"/><circle class="cls-5" cx="823.94" cy="98.1" r="12.87" transform="translate(656.48 910.79) rotate(-85.15)"/><path class="cls-6" d="M819.89,85.88c-.24.08-.47.16-.69.25a12.87,12.87,0,0,1,8.09,24.4c.23-.06.47-.13.7-.21a12.87,12.87,0,1,0-8.1-24.44Z"/><circle class="cls-3" cx="823.94" cy="98.1" r="8.47" transform="translate(48.6 393.66) rotate(-27.66)"/><path class="cls-7" d="M826.13,93.36l-.39-1.17-4.9,1.62-1.88.63.39,1.17,1.88-.62a1.92,1.92,0,0,1,2.14.67l-3.61,1.19.39,1.18,3.61-1.2a1.93,1.93,0,0,1-1.32,1.81l-1.88.63.39,1.17.38-.12a3.36,3.36,0,0,1,1.78-.1,7.23,7.23,0,0,1,4.19,2.84l1.23-.41A8.75,8.75,0,0,0,824,99.16a3.14,3.14,0,0,0,1-2.73l2-.65-.38-1.18-2,.65a3.08,3.08,0,0,0-1-1Z"/><path class="cls-4" d="M1208.32,173l-.28.21a.18.18,0,0,1-.07.05l0,0-.07,0h0a.58.58,0,0,1-.29-.05l0,0,0,0,0,0-.07-.08-.93-1.22a.5.5,0,0,1,0,.62l-.06.05-2.11,1.6-.07,0h0l0,0h0l-.06,0H1204a.54.54,0,0,1-.22,0,.05.05,0,0,1,0,0l0,0,0,0-.08-.08-.43-.57a.47.47,0,0,1,0,.62l-.06,0-2.11,1.6-.07,0h0l-.06,0h-.09a.57.57,0,0,1-.22,0l0,0,0,0,0,0a.3.3,0,0,1-.08-.08l.43.57a.48.48,0,0,1,0,.62l-.06,0-2.11,1.6-.07,0a.2.2,0,0,1-.08,0h0a.46.46,0,0,1-.26,0l0,0,0,0,0,0,0,0-.07-.08-1-1.34a.47.47,0,0,1,0,.62l-.06,0-2.11,1.6a.24.24,0,0,1-.11.06l-.08,0h-.21l0,0h-.05l-.08,0,0,0-.07-.07.44.58a.5.5,0,0,1,0,.62.18.18,0,0,1-.07.05l-2.1,1.6-.07,0a.29.29,0,0,1-.13.05h0a.42.42,0,0,1-.29-.05h0l0,0s0,0,0,0a.27.27,0,0,1-.08-.07l-.83-1.1a.47.47,0,0,1,0,.62l-.06.06-2.11,1.6-.07,0,0,0-.07,0h0a.51.51,0,0,1-.36-.08l0,0a.27.27,0,0,1-.07-.08l-2.34-3.08c0-.24,0-.48,0-.72s0-.65,0-1a11.92,11.92,0,0,1,.5-3c0-.15.09-.31.14-.46s.11-.3.17-.45a11.92,11.92,0,0,1,1.46-2.72l.25-.33.25-.32a12.25,12.25,0,0,1,2-2h0l.32-.23.33-.23a12,12,0,0,1,2.55-1.29l.4-.13.4-.13a12.28,12.28,0,0,1,3.17-.47h.5l.53,0a12.3,12.3,0,0,1,4.39,1.14l.22.11c.21.1.41.21.61.32s.56.34.83.52l.13.1a11.94,11.94,0,0,1,2.71,2.61l.11.15A11.28,11.28,0,0,1,1208.32,173Z"/><circle class="cls-3" cx="1198.72" cy="180.28" r="12.2" transform="translate(40.18 536.97) rotate(-25.67)"/><circle class="cls-5" cx="1198.54" cy="180.05" r="9.67"/><path class="cls-6" d="M1206.24,174.2c-.11-.15-.23-.29-.35-.43a9.66,9.66,0,0,1-15.37,11.67l.32.45a9.67,9.67,0,1,0,15.4-11.69Z"/><circle class="cls-3" cx="1198.54" cy="180.05" r="6.36" transform="translate(242.96 925.56) rotate(-46.5)"/><path class="cls-7" d="M1202.44,180.46l.74-.57-2.34-3.09-.9-1.18-.74.56.9,1.18a1.46,1.46,0,0,1,0,1.69l-1.73-2.28-.74.56,1.73,2.28a1.45,1.45,0,0,1-1.61-.5l-.9-1.18-.74.56.18.24a2.57,2.57,0,0,1,.51,1.24,5.53,5.53,0,0,1-1,3.67l.59.77a6.55,6.55,0,0,0,1.36-4.1,2.36,2.36,0,0,0,2.19.06l.94,1.24.74-.56-.94-1.24a2.26,2.26,0,0,0,.51-.95Z"/><path class="cls-3" d="M595.52,143.59,592.09,138a1,1,0,0,1,.32-1.34,1,1,0,0,1,1.35.32l2.42,4,6.45-3.81a1,1,0,0,1,1,1.68Z"/><path class="cls-3" d="M597.82,152.24a12.33,12.33,0,1,1,12.33-12.33A12.34,12.34,0,0,1,597.82,152.24Zm0-22.9a10.57,10.57,0,1,0,10.57,10.57A10.58,10.58,0,0,0,597.82,129.34Z"/><path class="cls-3" d="M659.55,74.54,653.3,64.3a1.78,1.78,0,1,1,3-1.85l4.42,7.24,11.76-7a1.78,1.78,0,1,1,1.81,3.07Z"/><path class="cls-3" d="M663.75,90.33a22.5,22.5,0,1,1,22.49-22.49A22.52,22.52,0,0,1,663.75,90.33Zm0-41.77A19.28,19.28,0,1,0,683,67.84,19.3,19.3,0,0,0,663.75,48.56Z"/><path class="cls-3" d="M471.31,128.87l-6.25-10.24a1.78,1.78,0,1,1,3-1.86l4.42,7.24,11.76-7a1.78,1.78,0,0,1,1.82,3.07Z"/><path class="cls-3" d="M475.51,144.65A22.49,22.49,0,1,1,498,122.16,22.52,22.52,0,0,1,475.51,144.65Zm0-41.77a19.28,19.28,0,1,0,19.28,19.28A19.3,19.3,0,0,0,475.51,102.88Z"/><path class="cls-3" d="M350,220.05l-2.91-4.78a.84.84,0,0,1,.27-1.15.83.83,0,0,1,1.14.28l2.07,3.38,5.49-3.25a.83.83,0,0,1,.84,1.43Z"/><path class="cls-3" d="M352,227.41a10.5,10.5,0,1,1,10.5-10.5A10.51,10.51,0,0,1,352,227.41Zm0-19.49a9,9,0,1,0,9,9A9,9,0,0,0,352,207.92Z"/><path class="cls-3" d="M846.82,146.66a69.94,69.94,0,0,1-40.24,16.21,77.75,77.75,0,0,1-4.77-14.52,56.56,56.56,0,0,0,34.75-11.78A68.1,68.1,0,0,0,846.82,146.66Z"/><path class="cls-8" d="M845.46,146.64a69,69,0,0,1-38.27,15.26,79,79,0,0,1-4.3-12.68,57.38,57.38,0,0,0,33.66-11.54A68.51,68.51,0,0,0,845.46,146.64Z"/><path class="cls-3" d="M833.87,143.28a4.44,4.44,0,0,1-3.41.53,59.38,59.38,0,0,1-17.85,6.28,3.91,3.91,0,0,1-3.06,1.92c-1.47.19-3,.33-4.49.42.64,2.07,1.37,4.14,2.2,6.19,1.61-.14,3.21-.34,4.77-.58a8.2,8.2,0,0,1,4.41.56,67.47,67.47,0,0,0,19.69-7.68,4.45,4.45,0,0,1,2-2.67q2.13-1.4,4.1-2.93c-1.59-1.5-3.1-3.06-4.51-4.67C836.47,141.57,835.2,142.45,833.87,143.28Z"/><path class="cls-9" d="M829.36,149.41c1.72,2.39,1.16,5.39-1.71,6.56a6.67,6.67,0,0,1-8-2.87,4.35,4.35,0,0,1,2.38-6.33A6.68,6.68,0,0,1,829.36,149.41Z"/><path class="cls-9" d="M816.26,154.39c.52,1.05-.16,2.17-1.59,2.46a3.18,3.18,0,0,1-3.47-1.5c-.46-1.1.34-2.14,1.7-2.38A3.2,3.2,0,0,1,816.26,154.39Z"/><path class="cls-9" d="M836.3,146a1.81,1.81,0,0,1-.63,2.8,2.66,2.66,0,0,1-3.37-.43,1.87,1.87,0,0,1,.76-2.77A2.62,2.62,0,0,1,836.3,146Z"/><path class="cls-3" d="M1227.41,106.07a69.87,69.87,0,0,1-40.24,16.2,78.2,78.2,0,0,1-4.78-14.51A56.57,56.57,0,0,0,1217.15,96,68.58,68.58,0,0,0,1227.41,106.07Z"/><path class="cls-8" d="M1226.05,106a68.94,68.94,0,0,1-38.27,15.27,79.31,79.31,0,0,1-4.3-12.68,57.38,57.38,0,0,0,33.66-11.54A68.45,68.45,0,0,0,1226.05,106Z"/><path class="cls-3" d="M1214.46,102.69a4.44,4.44,0,0,1-3.41.53,59.09,59.09,0,0,1-17.85,6.27,3.9,3.9,0,0,1-3.06,1.93c-1.47.19-3,.33-4.49.42q1,3.1,2.2,6.19c1.61-.14,3.21-.34,4.77-.59a8.2,8.2,0,0,1,4.41.57,67.47,67.47,0,0,0,19.69-7.68,4.42,4.42,0,0,1,2-2.67q2.13-1.39,4.1-2.93c-1.59-1.51-3.1-3.07-4.51-4.67C1217.06,101,1215.79,101.85,1214.46,102.69Z"/><path class="cls-9" d="M1210,108.81c1.72,2.4,1.16,5.4-1.71,6.57a6.69,6.69,0,0,1-8-2.87,4.35,4.35,0,0,1,2.38-6.33A6.69,6.69,0,0,1,1210,108.81Z"/><path class="cls-9" d="M1196.85,113.8c.52,1-.16,2.17-1.59,2.46a3.17,3.17,0,0,1-3.47-1.51c-.46-1.09.34-2.13,1.7-2.38A3.22,3.22,0,0,1,1196.85,113.8Z"/><path class="cls-9" d="M1216.89,105.41a1.81,1.81,0,0,1-.63,2.8,2.66,2.66,0,0,1-3.37-.44,1.87,1.87,0,0,1,.76-2.76A2.62,2.62,0,0,1,1216.89,105.41Z"/><path class="cls-3" d="M1076.25,48.37A69.88,69.88,0,0,1,1036,64.57a79,79,0,0,1-4.77-14.52A56.53,56.53,0,0,0,1066,38.28,68.51,68.51,0,0,0,1076.25,48.37Z"/><path class="cls-8" d="M1074.9,48.34a69,69,0,0,1-38.27,15.27,78.33,78.33,0,0,1-4.3-12.68A57.33,57.33,0,0,0,1066,39.38,68.6,68.6,0,0,0,1074.9,48.34Z"/><path class="cls-3" d="M1063.3,45a4.48,4.48,0,0,1-3.41.53A59.17,59.17,0,0,1,1042,51.79a3.86,3.86,0,0,1-3,1.92c-1.48.2-3,.34-4.49.43q1,3.11,2.2,6.19c1.61-.15,3.2-.34,4.77-.59a8.12,8.12,0,0,1,4.41.57,67.58,67.58,0,0,0,19.69-7.68,4.36,4.36,0,0,1,2-2.67q2.13-1.4,4.1-2.94-2.4-2.25-4.51-4.67Q1065.3,43.73,1063.3,45Z"/><path class="cls-9" d="M1058.79,51.11c1.73,2.4,1.16,5.4-1.71,6.57a6.69,6.69,0,0,1-8-2.87,4.36,4.36,0,0,1,2.38-6.33A6.67,6.67,0,0,1,1058.79,51.11Z"/><path class="cls-9" d="M1045.69,56.09c.53,1-.15,2.18-1.59,2.47a3.19,3.19,0,0,1-3.46-1.51c-.46-1.09.33-2.13,1.7-2.38A3.19,3.19,0,0,1,1045.69,56.09Z"/><path class="cls-9" d="M1065.74,47.7a1.82,1.82,0,0,1-.63,2.81,2.66,2.66,0,0,1-3.37-.44,1.86,1.86,0,0,1,.76-2.76A2.64,2.64,0,0,1,1065.74,47.7Z"/><path class="cls-3" d="M758.81,201.87a69.87,69.87,0,0,1-40.24,16.21,78.54,78.54,0,0,1-4.78-14.52,56.51,56.51,0,0,0,34.76-11.78A67.63,67.63,0,0,0,758.81,201.87Z"/><path class="cls-8" d="M757.45,201.85a69.09,69.09,0,0,1-38.27,15.27,79.64,79.64,0,0,1-4.3-12.68,57.39,57.39,0,0,0,33.66-11.55A68.51,68.51,0,0,0,757.45,201.85Z"/><path class="cls-3" d="M745.86,198.49a4.44,4.44,0,0,1-3.41.53,59.1,59.1,0,0,1-17.85,6.28,3.89,3.89,0,0,1-3.06,1.92c-1.47.19-3,.33-4.49.42.64,2.07,1.37,4.14,2.2,6.19,1.61-.14,3.21-.33,4.77-.58a8.1,8.1,0,0,1,4.41.57,67.49,67.49,0,0,0,19.69-7.69,4.4,4.4,0,0,1,2-2.66q2.13-1.41,4.1-2.94c-1.59-1.5-3.1-3.06-4.51-4.67C748.46,196.78,747.19,197.66,745.86,198.49Z"/><path class="cls-9" d="M741.35,204.62c1.72,2.4,1.16,5.4-1.71,6.57a6.68,6.68,0,0,1-8-2.88A4.35,4.35,0,0,1,734,202,6.7,6.7,0,0,1,741.35,204.62Z"/><path class="cls-9" d="M728.25,209.6c.52,1.05-.16,2.18-1.59,2.46a3.18,3.18,0,0,1-3.47-1.5c-.46-1.09.34-2.14,1.7-2.38A3.21,3.21,0,0,1,728.25,209.6Z"/><path class="cls-9" d="M748.29,201.21a1.81,1.81,0,0,1-.63,2.8,2.65,2.65,0,0,1-3.37-.43,1.88,1.88,0,0,1,.76-2.77A2.63,2.63,0,0,1,748.29,201.21Z"/><path class="cls-3" d="M1097.26,179.7c3-12.69,18.26-22.33,36.79-18.48a47.13,47.13,0,0,1,7.61,14.49c-14.78-6.51-28,.3-29.9,10.41A40.06,40.06,0,0,0,1097.26,179.7Z"/><path class="cls-8" d="M1098.6,179.2c3.29-11.82,17.61-20.63,35-17.27a47,47,0,0,1,6.86,12.59c-14.31-5.6-26.91.84-29.22,10.49A40.63,40.63,0,0,0,1098.6,179.2Z"/><path class="cls-3" d="M1110.83,178.72a3.22,3.22,0,0,1,2.7-1.4c3.64-4,9.51-6.51,16.42-6.39.42-.71,1.48-1.15,3.07-.94a32.6,32.6,0,0,1,4.85,1,46.32,46.32,0,0,0-3.5-6.11,37.2,37.2,0,0,0-5.32-.67,17.61,17.61,0,0,1-5.25-1.16c-7.89.7-14.49,4.09-18.65,8.94a3.77,3.77,0,0,1-.54,3.12,20.88,20.88,0,0,0-2.06,4.19,40.37,40.37,0,0,1,6.45,3.12A16.34,16.34,0,0,1,1110.83,178.72Z"/><path class="cls-9" d="M1112.66,171.92c-2.6-1.88-3.5-4.87-.74-6.31s7.7-.24,9.87,2.16,1.23,4.56-1.08,5.51A8.52,8.52,0,0,1,1112.66,171.92Z"/><path class="cls-9" d="M1125.16,166.83c-.83-1-.38-1.91,1.18-2a5.63,5.63,0,0,1,4.28,1.92c.73,1.05,0,1.74-1.44,1.71A6,6,0,0,1,1125.16,166.83Z"/><path class="cls-9" d="M1107.48,176.8a1.92,1.92,0,0,1-.79-2.87,2.73,2.73,0,0,1,3.47-.43,1.84,1.84,0,0,1,.43,2.79A2.46,2.46,0,0,1,1107.48,176.8Z"/><path class="cls-3" d="M816.14,268.94q4.49-12.13,8.84-24.32a16.27,16.27,0,0,0,11,0q4.34,12.19,8.57,24.42A42.16,42.16,0,0,1,816.14,268.94Z"/><path class="cls-8" d="M818,269q3.79-11.81,7.48-23.64a16.78,16.78,0,0,0,10,0q3.66,11.85,7.21,23.72A41.72,41.72,0,0,1,818,269Z"/><path class="cls-3" d="M836.06,266.4c-.12-.86.62-1.74,1.8-2.54q-1.29-6.23-2.63-12.46a2.52,2.52,0,0,1-1.82-2l-.39-2.71a17.91,17.91,0,0,1-5.17,0c-.14.9-.28,1.81-.41,2.71a2.49,2.49,0,0,1-1.76,1.93q-1.38,6.27-2.78,12.53c1.1.79,1.79,1.65,1.66,2.48-.18,1.09-.36,2.18-.55,3.27a41.06,41.06,0,0,0,12.52.06C836.37,268.59,836.21,267.49,836.06,266.4Z"/><path class="cls-9" d="M830.4,261.84c-4.59,0-7.77-2.51-7.22-4.25s3.76-2.39,7.26-2.41,6.7.66,7.23,2.43S835,261.86,830.4,261.84Z"/><path class="cls-9" d="M830,252.93c-1.28,0-2.22-.85-2.1-1.7a2.3,2.3,0,0,1,4.27.09C832.24,252.17,831.27,253,830,252.93Z"/><path class="cls-9" d="M829.64,266.92c-2,0-3.56-.95-3.44-1.79s1.69-1.34,3.52-1.31,3.37.6,3.45,1.46S831.66,267,829.64,266.92Z"/><path class="cls-3" d="M920.36,229c1,10.79-5.82,24-19.89,31.21a46.45,46.45,0,0,1-21.39-13.58c15.41.77,26.68-7.8,30-17.27A17.94,17.94,0,0,0,920.36,229Z"/><path class="cls-8" d="M919.64,229.89c.37,10.38-6.46,22.64-19.82,29.36a45.89,45.89,0,0,1-18.73-11.51c14.61-.13,25.12-8.48,28.36-17.64A18.48,18.48,0,0,0,919.64,229.89Z"/><path class="cls-3" d="M910,235.24a4.31,4.31,0,0,1-2.62,2.09,30.1,30.1,0,0,1-14.52,10.61c.27,1-.23,1.88-1.67,2.31a35.64,35.64,0,0,1-4.53,1.05,44.1,44.1,0,0,0,9.19,5.38,39.85,39.85,0,0,0,4.26-2,14.87,14.87,0,0,1,5.14-1.41,32.86,32.86,0,0,0,11.34-15,2.66,2.66,0,0,1-.41-2.59,24.68,24.68,0,0,0,.8-4.15,19.45,19.45,0,0,1-5.44,0A22.91,22.91,0,0,1,910,235.24Z"/><path class="cls-9" d="M909.8,241.41c3.19.5,5.19,2.2,3.69,4.52s-6.56,3.71-10.43,2.36-4.53-4-2.38-5.42S906.57,240.94,909.8,241.41Z"/><path class="cls-9" d="M900.73,250.46c1.54.57,2,1.59.8,2.35a6.21,6.21,0,0,1-5.24,0c-1.64-.78-1.8-1.89-.54-2.43A7.6,7.6,0,0,1,900.73,250.46Z"/><path class="cls-9" d="M913.39,235.5a1.34,1.34,0,0,1,1.31,1.92,3.1,3.1,0,0,1-3,1.77,1.3,1.3,0,0,1-1.09-2.06A3.31,3.31,0,0,1,913.39,235.5Z"/><path class="cls-3" d="M673.63,120c1,10.78-5.83,24-19.89,31.2a46.45,46.45,0,0,1-21.39-13.58c15.41.77,26.67-7.79,30-17.27A18,18,0,0,0,673.63,120Z"/><path class="cls-8" d="M672.91,121c.36,10.38-6.46,22.63-19.82,29.35a45.89,45.89,0,0,1-18.73-11.51c14.61-.13,25.12-8.48,28.35-17.64A18.6,18.6,0,0,0,672.91,121Z"/><path class="cls-3" d="M663.23,126.29a4.34,4.34,0,0,1-2.62,2.09A30.14,30.14,0,0,1,646.09,139c.26,1-.23,1.88-1.67,2.32a39.92,39.92,0,0,1-4.53,1.05,45,45,0,0,0,9.19,5.38,41.92,41.92,0,0,0,4.26-2.05,15,15,0,0,1,5.14-1.41,32.86,32.86,0,0,0,11.34-15.05,2.66,2.66,0,0,1-.41-2.59,25.6,25.6,0,0,0,.8-4.14,19.44,19.44,0,0,1-5.44,0A23.82,23.82,0,0,1,663.23,126.29Z"/><path class="cls-9" d="M663.07,132.47c3.19.49,5.19,2.2,3.69,4.51s-6.56,3.71-10.43,2.36-4.54-4-2.39-5.42S659.84,132,663.07,132.47Z"/><path class="cls-9" d="M654,141.51c1.54.57,2,1.59.79,2.35a6.15,6.15,0,0,1-5.23,0c-1.64-.78-1.8-1.89-.54-2.43A7.67,7.67,0,0,1,654,141.51Z"/><path class="cls-9" d="M666.65,126.56a1.34,1.34,0,0,1,1.32,1.91,3.09,3.09,0,0,1-3,1.77,1.3,1.3,0,0,1-1.09-2.06A3.26,3.26,0,0,1,666.65,126.56Z"/><path class="cls-3" d="M1286.21,104c-12.41-.23-21.69,6.34-25.15,14a17.35,17.35,0,0,0-12.42,0c-.67-9.18,4.44-20.12,15.19-27.17A41.2,41.2,0,0,1,1286.21,104Z"/><path class="cls-8" d="M1284.37,102.81c-11.76.51-20.42,7-23.74,14.46a17.75,17.75,0,0,0-11.16-.16c-.15-8.81,5-19,15.31-25.49A40.74,40.74,0,0,1,1284.37,102.81Z"/><path class="cls-3" d="M1265.28,96.24a11.06,11.06,0,0,1-4.35,1.34,29.93,29.93,0,0,0-8.54,12.9,1.93,1.93,0,0,1,.86,2.28,22.86,22.86,0,0,0-.59,2.87,18.79,18.79,0,0,1,5.69.21,25.61,25.61,0,0,1,1.15-2.59,3.45,3.45,0,0,1,2.54-1.62,27.09,27.09,0,0,1,11.86-9,1.45,1.45,0,0,1,1-2,33.27,33.27,0,0,1,4.36-1.23,39.85,39.85,0,0,0-10-5.53A36,36,0,0,0,1265.28,96.24Z"/><path class="cls-9" d="M1264.83,101.6c4.06,1.39,5.13,4,3.34,5.19s-5.4,1.17-8.83.6-5.8-1.93-4.64-3.91S1260.76,100.2,1264.83,101.6Z"/><path class="cls-9" d="M1258.43,109.6c1.26.2,1.78,1.09,1.3,1.87a3,3,0,0,1-2.81,1.15c-1.12-.12-1.86-.82-1.51-1.7A2.89,2.89,0,0,1,1258.43,109.6Z"/><path class="cls-9" d="M1271,98.3c1.67.81,2.06,1.92,1,2.38a7.06,7.06,0,0,1-4.6-.36c-1.58-.62-2.23-1.56-1.3-2.21S1269.33,97.49,1271,98.3Z"/><path class="cls-3" d="M1128.69,246.21c4.06-7.54,3.49-20.12-6.21-30a39.18,39.18,0,0,1,16.18.93c7.36,14.09,5,28.95-2,37.78A22.23,22.23,0,0,0,1128.69,246.21Z"/><path class="cls-8" d="M1129.51,246.08c3.84-7.51,3.33-19.55-5.5-29.39a38.6,38.6,0,0,1,14.09,1c6.84,13.29,4.92,27.27-1.4,35.9A22.64,22.64,0,0,0,1129.51,246.08Z"/><path class="cls-3" d="M1137.54,246.78a2.9,2.9,0,0,1,1.82-1.88,33.4,33.4,0,0,0,.3-18.63,14.38,14.38,0,0,1-2.62-4,38.48,38.48,0,0,0-2-4.16,37.68,37.68,0,0,0-6.85-.65,34.21,34.21,0,0,1,2.32,3.64,2.55,2.55,0,0,1,.12,2.83,27.87,27.87,0,0,1,2.25,16.39,4,4,0,0,1,.3,2.91,22.69,22.69,0,0,1-1.37,3.48,23.1,23.1,0,0,1,3.84,3.82A27.36,27.36,0,0,0,1137.54,246.78Z"/><path class="cls-9" d="M1136.84,238.71a9.58,9.58,0,0,1-4.42-6.21c-.32-2.3,1.25-3.92,4-3s5.22,4.52,5,7.29S1139.09,240.1,1136.84,238.71Z"/><path class="cls-9" d="M1135.23,226.17a5,5,0,0,1-2.84-2.61c-.51-1.17-.08-2,1.11-1.82a4.48,4.48,0,0,1,3,2.74C1137,225.76,1136.33,226.48,1135.23,226.17Z"/><path class="cls-9" d="M1135.12,244.77a2.92,2.92,0,0,1-.89-2.8c.23-1,1.06-1.46,1.91-.91a2.86,2.86,0,0,1,1,3A1.19,1.19,0,0,1,1135.12,244.77Z"/><path class="cls-3" d="M1253.42,252.24c-3.05-10.84-8.41-19.21-14.93-24.42a72.82,72.82,0,0,1,22.87-9.79c4.16,10.45,5.92,23.33,4.35,37.67A47.7,47.7,0,0,0,1253.42,252.24Z"/><path class="cls-8" d="M1254,251.66c-2.79-10.54-7.75-18.84-13.87-24.28a72.3,72.3,0,0,1,19.94-8.32c4.09,9.83,6,21.92,5,35.44A48.32,48.32,0,0,0,1254,251.66Z"/><path class="cls-3" d="M1262.16,247.31a3.58,3.58,0,0,1,1.11-3.05,72.1,72.1,0,0,0-3.5-17.5,4.82,4.82,0,0,1-3.24-2.21c-.46-1.05-1-2.07-1.46-3.06a70.81,70.81,0,0,0-9.71,3.91c.63.75,1.23,1.54,1.83,2.36s.3,1.83-.49,2.77a52.3,52.3,0,0,1,6.8,13.49,4.42,4.42,0,0,1,2.06,2.64c.36,1.42.69,2.89,1,4.39a47.67,47.67,0,0,1,5.84,1.3C1262.36,250.64,1262.29,249,1262.16,247.31Z"/><path class="cls-9" d="M1257.49,240.18c-3.39.11-6.82-1.09-7.87-2.91s1.1-4.32,5.14-5.26,8,.76,8.35,3.41S1260.86,240.05,1257.49,240.18Z"/><path class="cls-9" d="M1253.06,229.64c-1.6.43-3.26.16-3.79-.65s.36-2,2-2.6,3.48-.25,3.9.73S1254.65,229.2,1253.06,229.64Z"/><path class="cls-9" d="M1258.5,247a3.19,3.19,0,0,1-2.56-2.18,1.59,1.59,0,0,1,1.72-2,2.68,2.68,0,0,1,2.63,2.22A1.62,1.62,0,0,1,1258.5,247Z"/><path class="cls-3" d="M570.09,218.84c3-12.69,18.27-22.34,36.79-18.49a47.36,47.36,0,0,1,7.61,14.49c-14.78-6.5-28,.31-29.9,10.42A39.89,39.89,0,0,0,570.09,218.84Z"/><path class="cls-8" d="M571.43,218.34c3.29-11.82,17.61-20.64,35-17.28a47.33,47.33,0,0,1,6.86,12.59c-14.31-5.59-26.91.85-29.22,10.5A40.41,40.41,0,0,0,571.43,218.34Z"/><path class="cls-3" d="M583.66,217.86a3.22,3.22,0,0,1,2.7-1.4c3.64-4,9.51-6.51,16.42-6.39.42-.71,1.49-1.15,3.07-.94a32.6,32.6,0,0,1,4.85,1,47.05,47.05,0,0,0-3.5-6.12,38.64,38.64,0,0,0-5.32-.66,18.25,18.25,0,0,1-5.25-1.16c-7.89.69-14.49,4.09-18.65,8.94a3.77,3.77,0,0,1-.53,3.12,20.16,20.16,0,0,0-2.07,4.19,40.37,40.37,0,0,1,6.45,3.12A16.14,16.14,0,0,1,583.66,217.86Z"/><path class="cls-9" d="M585.49,211.06c-2.6-1.88-3.5-4.87-.74-6.31s7.7-.24,9.87,2.15,1.23,4.57-1.08,5.52A8.52,8.52,0,0,1,585.49,211.06Z"/><path class="cls-9" d="M598,206c-.84-1-.39-1.91,1.17-2a5.63,5.63,0,0,1,4.28,1.92c.73,1.05,0,1.73-1.43,1.71A5.93,5.93,0,0,1,598,206Z"/><path class="cls-9" d="M580.32,215.94a1.92,1.92,0,0,1-.8-2.88,2.74,2.74,0,0,1,3.47-.42,1.84,1.84,0,0,1,.43,2.79A2.45,2.45,0,0,1,580.32,215.94Z"/><path class="cls-3" d="M361,180.75c3-12.69,18.27-22.34,36.79-18.49a47.36,47.36,0,0,1,7.61,14.49c-14.78-6.5-28,.31-29.9,10.42A39.89,39.89,0,0,0,361,180.75Z"/><path class="cls-8" d="M362.34,180.25c3.29-11.82,17.61-20.64,35-17.28a47.23,47.23,0,0,1,6.86,12.6c-14.31-5.6-26.91.84-29.22,10.49A40.41,40.41,0,0,0,362.34,180.25Z"/><path class="cls-3" d="M374.57,179.77a3.22,3.22,0,0,1,2.7-1.4c3.64-4,9.51-6.51,16.42-6.39.42-.71,1.48-1.15,3.07-.94a32.6,32.6,0,0,1,4.85,1,47.05,47.05,0,0,0-3.5-6.12,38.64,38.64,0,0,0-5.32-.66,18.25,18.25,0,0,1-5.25-1.16c-7.89.69-14.49,4.09-18.65,8.94a3.74,3.74,0,0,1-.54,3.12,20.62,20.62,0,0,0-2.06,4.19,40.37,40.37,0,0,1,6.45,3.12A16.14,16.14,0,0,1,374.57,179.77Z"/><path class="cls-9" d="M376.4,173c-2.6-1.88-3.5-4.87-.74-6.31s7.7-.24,9.87,2.15,1.23,4.57-1.08,5.52A8.52,8.52,0,0,1,376.4,173Z"/><path class="cls-9" d="M388.9,167.88c-.83-1-.38-1.91,1.18-2a5.63,5.63,0,0,1,4.28,1.92c.73,1,0,1.73-1.43,1.71A6,6,0,0,1,388.9,167.88Z"/><path class="cls-9" d="M371.23,177.85a1.92,1.92,0,0,1-.8-2.88,2.74,2.74,0,0,1,3.47-.42,1.84,1.84,0,0,1,.43,2.79A2.45,2.45,0,0,1,371.23,177.85Z"/><path class="cls-10" d="M1111.63,141.38c-9.89,8.16-19.79,13.91-25.56,11.37a6.09,6.09,0,0,1-1-.53c-3.36-2.24-4.95-8-3.7-18.74,3.33-28.61,20.65-34.54,36.49-44.37,15.64-9.69,8-27,7.76-27.4C1151.48,99.83,1128.4,127.52,1111.63,141.38Z"/><path class="cls-11" d="M1086.07,152.75a6.09,6.09,0,0,1-1-.53c1.64-5.64,5.37-16.61,11.17-22.85a107.35,107.35,0,0,1,9.4-8.57c6.47-5.45,13.17-11.1,17.36-19l.94.5c-4.29,8-11.06,13.75-17.62,19.28a103.9,103.9,0,0,0-9.3,8.47C1091.39,136.18,1087.66,147.25,1086.07,152.75Z"/><path class="cls-12" d="M898.87,101.38c-10.39,13.51-.15,54.82,1.43,60.85l.2.75s-.8-.46-2.17-1.32c-9-5.7-42.58-29-35.11-55.78,8.62-30.8-9.12-24.75-21.67-53.72s16-46.76,16-46.76C890.67,30.57,910.09,86.8,898.87,101.38Z"/><path class="cls-13" d="M900.5,163s-.8-.46-2.17-1.32L897.28,160c-6.9-10.87-15.29-25.7-16.1-34.55a134.52,134.52,0,0,1,0-17.39c.53-12.42,1.07-25.27-5.05-32.38-9.35-10.87-9.66-29.2-9.67-30l1.37,0c0,.19.31,18.63,9.33,29.11,6.48,7.52,5.93,20.64,5.39,33.33a133.43,133.43,0,0,0,0,17.2c.81,8.71,9.58,24.31,17.76,36.91Z"/><path class="cls-8" d="M901.24,135.19c-3.74,14.71,4.19,23.62,6.77,26a8.67,8.67,0,0,0,.77.67,13.25,13.25,0,0,1-2.32-.14c-11.15-1.57-39.91-14.68-43.29-33.48-3.65-20.29-20.26-9-34-25.94-18.65-23,5.28-41.62,5.28-41.62-5.11,9.7,10.48,33.48,30.16,38.22S905.67,117.76,901.24,135.19Z"/><path class="cls-14" d="M881.75,134c2.29,7.13,4.44,13.86,10.37,16.8A99.78,99.78,0,0,1,908,161.23a8.67,8.67,0,0,0,.77.67,13.25,13.25,0,0,1-2.32-.14,95.46,95.46,0,0,0-15-9.79c-6.43-3.2-8.67-10.19-11-17.6-2.7-8.4-5.48-17.09-14.7-21C848.14,106,839.13,95.83,839,95.73l1-.91c.08.1,8.92,10.05,26.21,17.33C876.08,116.27,879,125.26,881.75,134Z"/><rect class="cls-15" x="976.42" y="196.17" width="26.76" height="81.27" transform="translate(1979.59 473.61) rotate(180)"/><rect class="cls-16" x="874.26" y="72.32" width="231.06" height="163" rx="14.71" transform="translate(1979.59 307.64) rotate(180)"/><rect class="cls-17" x="883.31" y="54.97" width="212.96" height="154.81" transform="translate(1979.59 264.75) rotate(180)"/><rect class="cls-3" x="883.31" y="54.97" width="212.96" height="18.7" transform="translate(1979.59 128.64) rotate(180)"/><path class="cls-8" d="M982.34,221.46a7.46,7.46,0,1,0,7.45-7.45A7.46,7.46,0,0,0,982.34,221.46Z"/><rect class="cls-18" x="929.6" y="274.38" width="120.38" height="6.14"/><rect class="cls-19" x="890.03" y="162.25" width="7.48" height="40.78"/><rect class="cls-19" x="906.55" y="150.4" width="7.48" height="52.63"/><rect class="cls-19" x="923.06" y="170.58" width="7.48" height="32.46"/><rect class="cls-19" x="939.58" y="154.85" width="7.48" height="48.19"/><rect class="cls-19" x="956.09" y="143.79" width="7.48" height="59.24"/><rect class="cls-19" x="972.61" y="164.76" width="7.48" height="38.27"/><rect class="cls-20" x="890.03" y="173.51" width="7.48" height="29.52"/><rect class="cls-20" x="906.55" y="164.93" width="7.48" height="38.1"/><rect class="cls-20" x="923.06" y="179.54" width="7.48" height="23.5"/><rect class="cls-20" x="939.58" y="168.15" width="7.48" height="34.88"/><rect class="cls-20" x="956.09" y="160.15" width="7.48" height="42.89"/><rect class="cls-20" x="972.61" y="175.33" width="7.48" height="27.7"/><rect class="cls-19" x="890.03" y="133.65" width="58.77" height="4.33" rx="0.97"/><rect class="cls-19" x="890.03" y="124.44" width="37.46" height="4.33" rx="0.97"/><rect class="cls-19" x="890.03" y="115.8" width="46.81" height="4.33" rx="0.97"/><rect class="cls-19" x="890.03" y="106.96" width="68.8" height="4.33" rx="0.97"/><rect class="cls-19" x="890.03" y="98.58" width="25.04" height="4.33" rx="0.97"/><path class="cls-20" d="M1068.61,131.51a25.46,25.46,0,1,0-17.14-47.95q-.81.28-1.59.63a25.46,25.46,0,0,0,18.73,47.32ZM1042.07,114a19.09,19.09,0,0,1,5.6-21,18.9,18.9,0,0,1,4.75-3c.39-.17.79-.32,1.19-.47a19.09,19.09,0,1,1-11.54,24.4Z"/><path class="cls-3" d="M1065.73,89.31l1.9-6.08a25.48,25.48,0,0,1,17.87,23.54l-6.37.19a19.12,19.12,0,0,0-13.4-17.65Z"/><path class="cls-8" d="M1052.42,90l-2.54-5.84q.78-.34,1.59-.63a25.31,25.31,0,0,1,16.16-.33l-1.9,6.08a19.08,19.08,0,0,0-12.12.25C1053.21,89.71,1052.81,89.86,1052.42,90Z"/><path class="cls-3" d="M1043.54,88.13a25.61,25.61,0,0,1,6.34-3.94l2.54,5.84a18.9,18.9,0,0,0-4.75,3Z"/><rect class="cls-20" x="1006.37" y="98.92" width="17.13" height="3.66" rx="1.69"/><rect class="cls-20" x="989.58" y="116.11" width="17.13" height="3.66" rx="1.69"/><rect class="cls-8" x="1008.09" y="133.98" width="17.13" height="3.66" rx="1.69"/><rect class="cls-8" x="1037.26" y="146.06" width="17.13" height="3.66" rx="1.69"/><polygon class="cls-21" points="996.37 199.26 995.63 198.48 1014.79 180.4 1034.18 184.6 1052.7 163.48 1068.86 164.39 1081.44 147.04 1082.31 147.67 1069.39 165.5 1053.17 164.59 1034.57 185.79 1015.12 181.58 996.37 199.26"/><path class="cls-22" d="M1037.19,184.59a2.88,2.88,0,1,1-3.42-2.2A2.87,2.87,0,0,1,1037.19,184.59Z"/><path class="cls-21" d="M1035.1,188.54a3.42,3.42,0,1,1,2.62-4.06A3.42,3.42,0,0,1,1035.1,188.54Zm-1.22-5.63a2.34,2.34,0,1,0,2.78,1.79A2.35,2.35,0,0,0,1033.88,182.91Z"/><path class="cls-22" d="M1055.74,163.61a2.88,2.88,0,1,1-3.42-2.21A2.88,2.88,0,0,1,1055.74,163.61Z"/><path class="cls-21" d="M1053.65,167.56a3.42,3.42,0,1,1,2.62-4.07A3.42,3.42,0,0,1,1053.65,167.56Zm-1.21-5.63a2.34,2.34,0,1,0,2.78,1.79A2.34,2.34,0,0,0,1052.44,161.93Z"/><path class="cls-22" d="M1071.78,164.25a2.88,2.88,0,1,1-3.42-2.2A2.87,2.87,0,0,1,1071.78,164.25Z"/><path class="cls-21" d="M1069.69,168.2a3.42,3.42,0,1,1,2.62-4.06A3.42,3.42,0,0,1,1069.69,168.2Zm-1.22-5.63a2.34,2.34,0,1,0,2.78,1.79A2.35,2.35,0,0,0,1068.47,162.57Z"/><path class="cls-22" d="M1017.75,180.65a2.88,2.88,0,1,1-3.42-2.21A2.88,2.88,0,0,1,1017.75,180.65Z"/><path class="cls-21" d="M1015.66,184.6a3.42,3.42,0,1,1,2.62-4.07A3.42,3.42,0,0,1,1015.66,184.6Zm-1.22-5.63a2.34,2.34,0,1,0,2.78,1.79A2.34,2.34,0,0,0,1014.44,179Z"/><rect class="cls-19" x="1012.06" y="191.96" width="11.78" height="2.27"/><rect class="cls-19" x="1020.26" y="168.67" width="11.78" height="2.27"/><rect class="cls-19" x="1044.7" y="184.9" width="11.78" height="2.27"/><rect class="cls-19" x="1055.27" y="153.03" width="11.78" height="2.27"/><rect class="cls-19" x="1072.38" y="172.02" width="11.78" height="2.27"/><rect class="cls-19" x="890.95" y="80.14" width="24.34" height="2.49"/><rect class="cls-19" x="920.02" y="80.14" width="17.28" height="2.49"/><rect class="cls-19" x="920.02" y="89.52" width="16.13" height="2.49"/><rect class="cls-8" x="1006.57" y="80.14" width="17.28" height="2.49"/><rect class="cls-20" x="941.95" y="80.14" width="22.01" height="2.49"/><rect class="cls-20" x="980.24" y="80.14" width="22.01" height="2.49"/><rect class="cls-19" x="968.03" y="80.14" width="8.06" height="2.49"/><rect class="cls-8" x="890.95" y="89.52" width="12.6" height="2.49"/><rect class="cls-8" x="906.65" y="89.52" width="4.07" height="2.49"/><rect class="cls-19" x="990.2" y="89.52" width="33.64" height="2.49"/><rect class="cls-8" x="913.71" y="89.52" width="4.15" height="2.49"/><rect class="cls-8" x="976.09" y="89.52" width="11.01" height="2.49"/><rect class="cls-8" x="949.76" y="89.52" width="23.42" height="2.49"/><rect class="cls-19" x="938.38" y="89.52" width="8.06" height="2.49"/><rect class="cls-8" x="883.31" y="63.61" width="212.96" height="10.06"/><rect class="cls-23" x="892.21" y="60.79" width="30.37" height="7.07" rx="3.18"/></g></g></svg>