<svg xmlns="http://www.w3.org/2000/svg" width="17" height="19" viewBox="0 0 17 19">
  <g fill="none" fill-rule="evenodd" transform="translate(-2 -1)">
    <polygon points="0 0 21.6 0 21.6 21.6 0 21.6"/>
    <path fill="#005263" fill-rule="nonzero" d="M18.0000007,19.8000008 L3.60000014,19.8000008 C3.10294385,19.8000008 2.70000011,19.397057 2.70000011,18.9000008 L2.70000011,7.20000029 L18.9000008,7.20000029 L18.9000008,18.9000008 C18.9000008,19.397057 18.497057,19.8000008 18.0000007,19.8000008 Z M18.9000008,5.40000021 L2.70000011,5.40000021 L2.70000011,2.70000011 C2.70000011,2.20294381 3.10294385,1.80000007 3.60000014,1.80000007 L18.0000007,1.80000007 C18.497057,1.80000007 18.9000008,2.20294381 18.9000008,2.70000011 L18.9000008,5.40000021 Z M6.30000025,9.90000039 L6.30000025,13.5000005 L9.90000039,13.5000005 L9.90000039,9.90000039 L6.30000025,9.90000039 Z M6.30000025,15.3000006 L6.30000025,17.1000007 L15.3000003,17.1000007 L15.3000003,15.3000006 L6.30000025,15.3000006 Z M11.7000005,10.8000004 L11.7000005,12.6000005 L15.3000006,12.6000005 L15.3000006,10.8000004 L11.7000005,10.8000004 Z"/>
  </g>
</svg>
