<?xml version="1.0" encoding="utf-8"?>
<!-- Generator: Adobe Illustrator 23.0.1, SVG Export Plug-In . SVG Version: 6.00 Build 0)  -->
<svg version="1.1" id="Layer_1" xmlns="http://www.w3.org/2000/svg" xmlns:xlink="http://www.w3.org/1999/xlink" x="0px" y="0px"
	 viewBox="0 0 1155 216" style="enable-background:new 0 0 1155 216;" xml:space="preserve">
<style type="text/css">
	.st0{opacity:0.5974;fill:#005263;enable-background:new    ;}
	.st1{fill:#FFFFFF;}
	.st2{opacity:0.9098;fill:url(#Rectangle_4_);enable-background:new    ;}
	.st3{fill:#FFFEFF;}
	.st4{fill:#007874;}
	.st5{opacity:0.9098;fill:url(#Rectangle_5_);enable-background:new    ;}
	.st6{fill:#005263;}
	.st7{opacity:0.9098;fill:url(#Rectangle_6_);enable-background:new    ;}
	.st8{fill:#10665A;}
	.st9{fill:#F9BBC1;}
	.st10{fill:#D8FFDE;}
	.st11{fill:#F0FFF2;}
	.st12{fill:#05C6B7;}
	.st13{fill:#D2FFDE;}
	.st14{opacity:0.3769;}
	.st15{fill:#63DE90;}
	.st16{fill:#006D67;}
	.st17{opacity:0.22;fill:#35A597;enable-background:new    ;}
	.st18{fill:#70E093;}
	.st19{fill:#71D392;}
	.st20{fill:#049B8F;}
	.st21{fill:#00BEC5;}
	.st22{fill:url(#Fill-53_1_);}
	.st23{fill:url(#Fill-53_2_);}
	.st24{fill:url(#Fill-53_3_);}
	.st25{fill:url(#Fill-53_4_);}
	.st26{fill:#097975;}
	.st27{fill:#8AF6B2;}
	.st28{fill:#78D195;}
	.st29{fill:#3D5954;}
	.st30{fill:#282828;}
	.st31{opacity:0.4957;}
	.st32{fill:#7FC98A;}
	.st33{fill:#47A395;}
	.st34{fill:#4F1221;fill-opacity:0.2299;}
	.st35{fill:url(#Shape_4_);}
	.st36{fill:url(#SVGID_1_);}
	.st37{fill:url(#Shape_6_);}
	.st38{fill:url(#SVGID_2_);}
	.st39{fill:url(#Shape_7_);}
	.st40{fill:url(#SVGID_3_);}
	.st41{fill:url(#Shape_8_);}
	.st42{fill:url(#SVGID_4_);}
</style>
<title>Group 23</title>
<desc>Created with Sketch.</desc>
<g id="Group-6-Copy-4_47_" transform="translate(461.334228, 26.000000)">
	<polygon id="Rectangle_161_" class="st0" points="-127.3,40.8 -115.2,18.6 -70.7,42.5 -82.8,64.7 	"/>
	
		<ellipse id="Oval_313_" transform="matrix(0.4759 -0.8795 0.8795 0.4759 -88.6893 -62.723)" class="st1" cx="-97" cy="43.1" rx="5.4" ry="10.6"/>
</g>
<g id="Group-6-Copy-4_46_" transform="translate(291.334228, 63.000000)">
	<polygon id="Rectangle_160_" class="st0" points="-130.6,42.7 -138.8,27.7 -169.2,44 -161,58.9 	"/>
	
		<ellipse id="Oval_312_" transform="matrix(0.8795 -0.4759 0.4759 0.8795 -39.3903 -66.4459)" class="st1" cx="-150.9" cy="44.6" rx="7.2" ry="3.7"/>
</g>
<g id="Group-41_4_" transform="translate(545.834228, 116.000000) rotate(-13.000000) translate(-545.834228, -116.000000) translate(507.334228, 84.000000)">
	
		<linearGradient id="Rectangle_4_" gradientUnits="userSpaceOnUse" x1="-408.6339" y1="223.3753" x2="-407.5764" y2="223.3774" gradientTransform="matrix(74.5106 14.0434 17.2021 -60.8285 26510.7754 19379.2051)">
		<stop  offset="0" style="stop-color:#005263"/>
		<stop  offset="1" style="stop-color:#65D48E"/>
	</linearGradient>
	<path id="Rectangle_19_" class="st2" d="M-96.9,43.4l70.9-29c1.9-0.7,4.1,0.1,4.9,2l16.9,41.4c0.7,1.9-0.1,4.1-2,4.9l-70.9,29
		c-1.9,0.7-4.1-0.1-4.9-2l-16.9-41.4C-99.8,46.3-98.8,44.1-96.9,43.4z"/>
	
		<rect id="Rectangle_18_" x="-98.3" y="36.7" transform="matrix(-0.9256 0.3786 -0.3786 -0.9256 -92.7281 101.0506)" class="st3" width="84.1" height="9.3"/>
	
		<rect id="Rectangle_17_" x="-84.9" y="52.8" transform="matrix(-0.9256 0.3786 -0.3786 -0.9256 -76.6751 125.354)" class="st3" width="68.4" height="4.7"/>
	<circle id="Oval_19_" class="st4" cx="-70.5" cy="77.3" r="5.5"/>
</g>
<g id="Group-41_1_" transform="translate(545.834228, 116.000000) rotate(-13.000000) translate(-545.834228, -116.000000) translate(507.334228, 84.000000)">
	
		<linearGradient id="Rectangle_5_" gradientUnits="userSpaceOnUse" x1="-412.0947" y1="221.3443" x2="-411.7189" y2="221.345" gradientTransform="matrix(26.5306 71.0294 60.9549 -16.7489 -3007.5906 32934.2031)">
		<stop  offset="0" style="stop-color:#005263"/>
		<stop  offset="1" style="stop-color:#65D48E"/>
	</linearGradient>
	<path id="Rectangle_3_" class="st5" d="M-446.2-46.5l21.9,16.2c0.6,0.4,0.7,1.3,0.3,1.8l-9.5,12.8c-0.4,0.6-1.3,0.7-1.8,0.3
		l-21.9-16.2c-0.6-0.4-0.7-1.3-0.3-1.8l9.5-12.8C-447.7-46.8-446.8-46.9-446.2-46.5z"/>
	
		<rect id="Rectangle_2_" x="-439.8" y="-49.4" transform="matrix(-0.5962 0.8028 -0.8028 -0.5962 -727.1026 296.7089)" class="st3" width="3.3" height="29.9"/>
	
		<rect id="Rectangle_1_" x="-442.1" y="-42.4" transform="matrix(-0.5962 0.8028 -0.8028 -0.5962 -728.71 305.9935)" class="st3" width="1.7" height="24.3"/>
	<circle id="Oval_1_" class="st4" cx="-451.7" cy="-32.2" r="1.9"/>
</g>
<g transform="translate(820.334228, 0.000000)">
	<g id="Group-6-Copy-4_7_" transform="translate(85.000000, 21.000000)">
		<polygon id="Rectangle_22_" class="st6" points="-18.1,36.1 11.2,18.1 47.6,76.3 18.3,94.2 		"/>
		
			<ellipse id="Oval_41_" transform="matrix(0.8496 -0.5275 0.5275 0.8496 -28.7428 17.4481)" class="st1" cx="16.2" cy="59.1" rx="7.3" ry="14.5"/>
	</g>
	<g id="Group-6-Copy-4_6_" transform="translate(72.000000, 28.000000)">
		<polygon id="Rectangle_21_" class="st6" points="-20.9,44.2 2.6,19.5 52.5,66.6 28.8,91.4 		"/>
		
			<ellipse id="Oval_40_" transform="matrix(0.6888 -0.725 0.725 0.6888 -36.342 30.9891)" class="st1" cx="17.9" cy="57.8" rx="7.2" ry="14.5"/>
	</g>
	<g id="Group-6-Copy-4_5_" transform="translate(65.000000, 40.000000)">
		<polygon id="Rectangle_20_" class="st6" points="-23.1,52.8 -7.6,22.2 53.6,53.2 38.1,83.9 		"/>
		
			<ellipse id="Oval_39_" transform="matrix(0.4521 -0.892 0.892 0.4521 -39.0155 46.0742)" class="st1" cx="18" cy="54.8" rx="7.3" ry="14.5"/>
	</g>
	
		<g id="Group-41_5_" transform="translate(225.336194, 101.374038) rotate(-13.000000) translate(-225.336194, -101.374038) translate(168.836194, 53.374038)">
		
			<linearGradient id="Rectangle_6_" gradientUnits="userSpaceOnUse" x1="-878.2814" y1="142.9361" x2="-878.9811" y2="142.2709" gradientTransform="matrix(109.3682 21.4217 25.2496 -92.7876 92553.1484 32130.0371)">
			<stop  offset="0" style="stop-color:#005263"/>
			<stop  offset="1" style="stop-color:#65D48E"/>
		</linearGradient>
		<path id="Rectangle_25_" class="st7" d="M96.9,28.7L-3.3,78c-2.7,1.3-3.8,4.6-2.5,7.3l28.7,58.5c1.3,2.7,4.6,3.8,7.3,2.5L130.4,97
			c2.7-1.3,3.8-4.6,2.5-7.3l-28.7-58.5C102.8,28.5,99.5,27.4,96.9,28.7z"/>
		<polygon id="Rectangle_24_" class="st3" points="113.4,50.2 3.4,104.3 -2.6,92 107.4,38 		"/>
		<polygon id="Rectangle_23_" class="st3" points="111.3,71.6 21.8,115.6 18.7,109.5 108.3,65.5 		"/>
		
			<ellipse id="Oval_42_" transform="matrix(-0.8977 0.4407 -0.4407 -0.8977 245.2455 124.1759)" class="st4" cx="108.2" cy="90.6" rx="8" ry="8"/>
	</g>
	<g transform="translate(0.000000, 73.000000)">
		<path class="st8" d="M15.2,70.4c-0.3,0.5-0.7,1-1,1.5c-0.4,0.4-0.8,0.9-1.3,1.4c-0.9,0.9-2,1.5-3.1,2.1c-1.1,0.5-2.4,0.9-3.7,0.9
			c-1.3,0.1-2.6-0.1-3.7-0.6c1.2,0,2.4-0.2,3.5-0.4c1.1-0.3,2.2-0.7,3.2-1.1c0.5-0.3,1-0.5,1.5-0.8c0.5-0.3,0.9-0.6,1.5-0.9
			c0.5-0.3,0.9-0.7,1.5-1C14.2,71.2,14.7,70.7,15.2,70.4z"/>
		<path class="st9" d="M39.8,42.2h3.4c0,0,2.2,9.1,6.2,12.2c3.9,3.1-4.8,5.2-4.8,5.2l-3.9,0.6c0,0-2-6.6-3.5-8.4
			C35.6,49.9,39.8,42.2,39.8,42.2z"/>
		<path class="st10" d="M39.8,42.2h3.4c0,0,2.2,9.1,6.2,12.2c3.9,3.1-4.8,5.2-4.8,5.2l-3.9,0.6c0,0-2-6.6-3.5-8.4
			C35.6,49.9,39.8,42.2,39.8,42.2z"/>
		
			<ellipse id="Oval" transform="matrix(0.1191 -0.9929 0.9929 0.1191 -14.1069 73.4063)" class="st11" cx="34.3" cy="44.7" rx="11.4" ry="8.9"/>
		<path class="st10" d="M35.7,33.3c-1-0.1-3.2,0-4.2,0.3c3.8,1.3,6.6,5.7,6.6,11c0,5.5-1.9,10.1-6,11.1c0.3,0.1,0.5,0.1,0.8,0.2
			c4.9,0.6,9.4-4,10.2-10.2C43.9,39.5,40.5,33.9,35.7,33.3z"/>
		<polygon class="st12" points="48.1,94.3 11.3,97.9 -5.1,66.3 31.5,63.9 		"/>
		<polygon class="st13" points="-1.8,67.2 32.1,64.9 47.3,93.2 13.3,96.5 		"/>
		<rect id="Rectangle" x="11.6" y="95.8" class="st12" width="46.2" height="4.1"/>
		<g transform="translate(32.934652, 30.233424)" class="st14">
			<polygon class="st15" points="-5.6,39.6 -29.2,41.4 -30.4,39.5 -6.7,37.7 			"/>
			<polygon class="st15" points="1.8,43 -27.2,45.1 -28.3,43.2 0.7,41.1 			"/>
			<polygon class="st15" points="-5.1,47.1 -25.1,48.8 -26.2,46.9 -6.3,45.2 			"/>
			<polygon class="st15" points="6,50.5 -23.1,52.6 -24.2,50.6 4.8,48.6 			"/>
			<polygon class="st15" points="8,54.2 -20.9,56.3 -22.1,54.4 6.9,52.3 			"/>
			<polygon class="st15" points="10.1,58 -18.9,60 -20,58.1 9,56 			"/>
		</g>
		<path class="st6" d="M49,64.6c0.1-1.4-0.2-2.7-0.6-3.9c-0.6-1.6-1.7-3.3-3.8-3.3c-2.5,0-4.7,0.5-5.1,2c-1,3.5-1.6,4.5-4.3,10.5
			c-4.8,10.8-12.2,18.8-12.2,18.8l10.3,3.8C33.3,92.4,48.2,85.1,49,64.6z"/>
		<path class="st11" d="M-13.3,107.8c0,0-6.8,6.9-11.6,8.5c-4.9,1.5-16.9,5.1-12.7,7.1c4.3,2.1,11.9,0.5,19.9-0.3
			c5.1-0.5,2.6-3.9,6-8.5C-11.2,114-13.3,107.8-13.3,107.8z"/>
		<rect x="0.3" y="99.9" class="st16" width="45.4" height="22.7"/>
		<path class="st1" d="M21,79.8c-1.3-0.3-2.6,0-3.6,0.9c-3,2.7-8.7,8.7-4.4,11.3c17.1,10.3,21.9,15.8,32.2,15.8
			c17,0,24.4-5.6,25.6-14L21,79.8z"/>
		<path class="st1" d="M22.9,94.3c0,0-4.4-1.4-6.6,4.4c-3,7.7-6.8,8.8-16.4,13.2c-9.9,4.6-13,6.4-13,6.4l-7.2-4.9
			c0,0,31.7-35,39.3-33.6C30.4,81.5,22.9,94.3,22.9,94.3z"/>
		<path class="st17" d="M63,91.5c-2.7,3.9-7.9,6.8-17.4,8.4c-8.5,1.4-16.1-2.5-28.4-8c-2-0.9-2.8,0.3-3.3,2.4c0,0,1,7.1-15.6,15.7
			c-7.9,4-10.6,7.4-11.5,8.1l0.2,0.1c0,0,3.1-1.8,13-6.4c9.6-4.5,13.3-5.5,16.4-13.2c0.6-1.6,1.4-2.7,2.2-3.3
			c12.9,8.1,17.7,12.6,26.9,12.6c17,0,24.4-5.6,25.6-14L63,91.5z"/>
		<path class="st6" d="M46.9,51.1c0,0-2.4,4.5-7.6,6.3c0,0-0.7,4.9,1,12.1c1.7,7.2,2.8,16.4,2.8,16.4s4.2,10.8,18.9,9.8
			s11.3-6.9,11.3-6.9s-5.7-18.6-11.5-26.2C55.5,54.1,49.6,49.6,46.9,51.1z"/>
		<path class="st6" d="M39,40.2c-0.8-0.3-1.5-0.3-2.3,0c-2.6,0.8-8.5,2.4-13.3,1c-6.2-1.7-6.8-4-6.8-4s2.6,1.2,4.4,1.2
			c0,0-3.7-2-4.4-4.1c0,0,3,1.8,6.4,1.5c0,0-2.7-0.2-3.3-1.5c0,0,3.5,0.8,8-0.6c0,0-4.9-0.1-5.6-1c0,0,5.4,0.2,8.6-1.1
			c3.3-1.3,10.5-1.7,12.9,3C45.7,38.8,42.4,41.2,39,40.2z"/>
		<path class="st17" d="M46.9,108c17-0.9,24.1-6.9,24.8-15.4c3.8-2.3,2.1-5.1,2.1-5.1s-2.1-6.5-6.2-14.3c-6.6,1.4-9.2,7.4-10.8,12.4
			c-1.7,5.5-0.7,12.3-20.3,10.3c-4.8-0.5-9.1,0.7-11.5,4.4C34.4,105.6,39.2,108.4,46.9,108z"/>
		<path class="st6" d="M37.5,36.2L33.8,39c0,0,6.7,0,6.9,4.4c0.2,2.8,1.7,6.5,6.9,6.7c0,0-1.7-1.7-2-2.3c0,0,1.6,1.1,3.2,0.7
			c0,0-2.9-1.6-3.5-3.3c0,0,1.1,1.1,2.4,1.1c0,0-2.8-2.4-3-3.3c0,0,1,0.7,2.1,0.2c0,0-1-0.3-1.7-1.5c-0.7-1.1-0.5-4-1.5-6.3
			c-0.9-2.3-3.9-1.9-3.9-1.9L37.5,36.2z"/>
		<path class="st18" d="M56.9,88.2c0,0,3.4-17.4,16.8-13c16,5.2,27.3,40.4,4.1,45.6c-11.9,2.7-43.8,2.2-53.2,1.8
			c-2.2-0.1-4.4-0.8-6.2-2.1c-2-1.4-4-3.5-4.1-6.5c-0.2-5.8,3.8-14,21.3-13.6C53,100.9,56.9,88.2,56.9,88.2z"/>
		<path class="st19" d="M83.5,82.6c-0.9-1.2-2.3-2.1-3.8-2.4l0,0c-13.8-2.8-15.2,14.8-15.2,14.8s-2.5,13-19.9,14.6
			c-14.8,1.4-19.2,7.6-19.7,13c9.7,0.4,41.3,0.9,53.1-1.8C95.8,116.8,93,94.8,83.5,82.6z"/>
		<path class="st17" d="M49.1,67.5c0-0.3-0.1-0.6-0.2-0.9c-0.7,7.5-3.2,13.1-6.2,17.1c0,0,0.4,2.2,0.7,2.8c0.3,0.9,2,2.9,2,2.9
			S50.4,78.5,49.1,67.5z"/>
		<path class="st20" d="M45.6,45.2c0,0,1.1,1.1,2.4,1.1c0,0-2.8-2.4-3-3.3c0,0,1,0.7,2.1,0.2c0,0-1-0.3-1.7-1.5
			c-0.6-1.1-0.5-3.9-1.4-6.2c-0.1-0.3-0.3-0.6-0.4-0.9c-1.3-2.6-4-3.6-6.8-3.9c0,0.1,0.3,0.3,0.6,0.4c3,1.2,4.3,7.3,3.1,10.8
			c0.2,0.4,0.3,0.9,0.3,1.4c0.2,2.8,1.7,6.5,6.9,6.7c0,0-1.7-1.7-2-2.3c0,0,1.6,1.1,3.2,0.7C49.1,48.4,46.2,46.8,45.6,45.2z"/>
		<path class="st9" d="M38.3,41.3c0,0,0.4-2.7,1.8-2.2c1.3,0.5,1.9,2.1,1.4,3.9c-0.5,1.8-2.6,0.9-2.6,0.9"/>
		<path class="st10" d="M38.3,41.3c0,0,0.4-2.7,1.8-2.2c1.3,0.5,1.9,2.1,1.4,3.9c-0.5,1.8-2.6,0.9-2.6,0.9"/>
		<path class="st4" d="M-22.8,115.3c-10.4,2.9-18.7,6.3-14.8,8.1c4.3,2.1,11.9,0.5,19.9-0.3c3.7-0.3,3.4-2.2,4.3-4.9
			C-15.1,118.4-18.9,118.2-22.8,115.3z"/>
	</g>
	<g transform="translate(143.000000, 0.000000)">
		<path class="st21" d="M0.5,136.9c3.1,14.7-4.7,29-4.4,43.6c0,0.8,0.9,5.6,1.6,8.9c0.3,1.8,0.7,3.1,0.8,3c0.7-0.6,1.4-1.1,2.1-1.6
			c14.6-11.2,32-18.8,50.1-21.9c2.3-0.4,4.8-0.8,6.6-2.2c4.5-3.6,0.5-8.2-3.6-9.2c-2.1-0.5-4.6-1.3-5.3-3.3
			c-2.7-7.4,11.2-9.6,15.3-9.7c3.4-0.1,7.2-0.3,9.9-2.4s3.9-6.6,1.5-8.9c-2.7-2.7-8.1-1.4-10.2-4.7c-1.5-2.2-0.3-5.4,1.9-6.9
			c2.1-1.5,4.9-2,7.4-2.3c6.5-0.9,13-1.7,19.5-2.6c3.6-0.5,7.3-1,10.2-3.2c2.9-2.1,4.4-6.5,2.4-9.5c-3.9-5.5-14.6-0.4-18.6-5.9
			c-2.1-2.9-0.8-7.2,1.9-9.6c2.6-2.4,6.2-3.5,9.5-4.9c12.1-5,22.1-14.9,27.3-27c3.1-7.2,3.8-16.2,3.4-23.8
			c-0.8-14.6-9.3-25.4-24.2-18.1C98.6,18,93.8,25.1,93.3,32.6c-0.3,5.3,1.3,11-0.9,16c-2.6,5.9-13,7.6-12.4-0.9
			c0.2-2.4,1.2-4.6,1.6-7c0.4-2.3,0.2-5.1-1.7-6.6c-1.9-1.4-4.7-1-6.8-0.1c-7,3.2-10.8,11.4-10.2,18.8c0.3,3.7,1.6,7.5,1.1,11.2
			c-0.5,3.7-3.9,7.6-7.6,6.6c-4.4-1.3-4.4-7.3-3.2-11.7c1.2-4.3,2.5-9.9-1.2-12.6c-2.4-1.8-6-1.2-8.4,0.8c-2.3,1.9-3.6,4.8-4.5,7.7
			c-2.7,8.3-3.3,17.2-1.7,25.7c0.4,2.5,1.1,5,0.7,7.5c-0.4,2.5-2.3,4.9-4.8,5.1c-4.3,0.3-6.4-5.6-10.6-6.9c-4.1-1.2-8.1,3.2-8.4,7.4
			c-0.3,4.3,2,8.2,4.2,11.9c2.4,4.2,7.6,13.1,2.7,17.1c-6.4,5.2-9.4-4.4-13.7-6.5c-4.2-2-9,2.6-9.6,7.2
			C-2.5,127.9-0.5,132.4,0.5,136.9z"/>
		<path class="st1" d="M-2.3,189.4c0.3,1.8,0.7,3.1,0.8,3c0.7-0.6,1.4-1.1,2.1-1.6c2.6-12.6,6.8-24.7,12.2-36.5
			c10.7-23.5,27.2-45,47.6-60.9c10.7-8.3,22.6-15,33.1-23.4c8.5-6.8,18-16.7,19.6-27.8c0.1-0.7-0.9-0.9-1.1-0.3
			c-3.1,7.3-6.3,14.2-12,19.9c-5.5,5.5-11.9,10.2-18.4,14.6c-11.3,7.6-22.2,14.8-32.2,23.9c-9.1,8.3-17.2,17.5-24.2,27.6
			C12.1,146.6,2.9,167.2-2.3,189.4z"/>
	</g>
	<g transform="translate(177.000000, 139.000000)">
		<path class="st4" d="M4.8,61.3c0,4.3,16,7.6,35.7,7.6s35.7-3.4,35.7-7.6v-5.9H4.8V61.3"/>
		<g id="Group-42-Copy-2_30_" transform="translate(0.064205, 0.466367)">
			
				<linearGradient id="Fill-53_1_" gradientUnits="userSpaceOnUse" x1="-842.673" y1="248.0764" x2="-842.189" y2="247.9435" gradientTransform="matrix(57.3853 0 0 -12.958 48383.8242 3268.3887)">
				<stop  offset="0" style="stop-color:#005263"/>
				<stop  offset="1" style="stop-color:#65D48E"/>
			</linearGradient>
			<path id="Fill-53_35_" class="st22" d="M76.2,54.7c0,4.4-16,8.1-35.7,8.1S4.7,59.1,4.7,54.7s16-8.1,35.7-8.1S76.2,50.2,76.2,54.7
				"/>
			<path id="Fill-54_34_" class="st1" d="M40.5,48.4c-15.2,0-27.6,2.8-27.6,6.2c0,3.5,12.3,6.2,27.6,6.2S68,58.1,68,54.7
				C68,51.2,55.7,48.4,40.5,48.4z M40.5,61c-15.6,0-28.3-2.9-28.3-6.3c0-3.6,12.7-6.3,28.3-6.3s28.3,2.9,28.3,6.3
				C68.7,58.1,56,61,40.5,61L40.5,61z"/>
			<path id="Fill-55_34_" class="st1" d="M32.9,56.3v-0.5h5v0.5c0,0.4,0.7,0.7,2.1,0.7c1.7,0,2.6-0.3,2.6-0.7c0-0.2-0.2-0.3-0.5-0.5
				c-0.3-0.2-0.8-0.3-1.4-0.4c-0.5-0.1-1.1-0.3-1.8-0.3c-0.7-0.1-1.4-0.3-2-0.4c-0.7-0.2-1.4-0.3-1.9-0.4c-0.6-0.2-1-0.3-1.4-0.6
				c-0.3-0.3-0.5-0.4-0.5-0.8c0-1,1.7-1.6,5.1-1.7v-0.5h4V51c1.7,0.1,3,0.3,3.9,0.5c0.9,0.3,1.3,0.7,1.3,1.1v0.3h-4.6v-0.3
				c0-0.4-0.8-0.7-2.4-0.7S38,52.2,38,52.7c0,0.2,0.2,0.3,0.5,0.5c0.3,0.2,0.8,0.3,1.4,0.4s1.2,0.3,1.9,0.3s1.4,0.3,2,0.4
				c0.7,0.2,1.3,0.3,1.9,0.4s1,0.3,1.4,0.6c0.3,0.3,0.5,0.4,0.5,0.8c0,0.5-0.4,0.9-1.4,1.1c-0.9,0.3-2.2,0.5-3.9,0.5v0.5h-4v-0.5
				c-1.7-0.1-3.1-0.3-3.9-0.5C33.3,57.2,32.9,56.8,32.9,56.3"/>
		</g>
	</g>
	<g transform="translate(180.000000, 131.000000)">
		<path class="st4" d="M5.6,59.8c0,4.3,16,7.6,35.7,7.6s35.7-3.4,35.7-7.6V54H5.6V59.8"/>
		<g id="Group-42-Copy-2_29_" transform="translate(0.064205, 0.466367)">
			
				<linearGradient id="Fill-53_2_" gradientUnits="userSpaceOnUse" x1="-845.6601" y1="256.2214" x2="-845.1758" y2="256.0884" gradientTransform="matrix(57.3853 0 0 -12.958 48556.1172 3372.4011)">
				<stop  offset="0" style="stop-color:#005263"/>
				<stop  offset="1" style="stop-color:#65D48E"/>
			</linearGradient>
			<path id="Fill-53_34_" class="st23" d="M77.1,53.1c0,4.4-16,8.1-35.7,8.1S5.6,57.6,5.6,53.1s16-8.1,35.7-8.1S77.1,48.7,77.1,53.1
				"/>
			<path id="Fill-54_33_" class="st1" d="M41.4,46.9c-15.2,0-27.6,2.8-27.6,6.2c0,3.5,12.3,6.2,27.6,6.2s27.6-2.8,27.6-6.2
				C68.9,49.7,56.5,46.9,41.4,46.9z M41.4,59.5c-15.6,0-28.3-2.9-28.3-6.3c0-3.6,12.7-6.3,28.3-6.3s28.3,2.9,28.3,6.3
				C69.6,56.6,56.9,59.5,41.4,59.5L41.4,59.5z"/>
			<path id="Fill-55_33_" class="st1" d="M33.8,54.9v-0.5h5v0.5c0,0.4,0.7,0.7,2.1,0.7c1.7,0,2.6-0.3,2.6-0.7c0-0.2-0.2-0.3-0.5-0.5
				c-0.3-0.2-0.8-0.3-1.4-0.4c-0.5-0.1-1.1-0.3-1.8-0.3c-0.7-0.1-1.4-0.3-2-0.4c-0.7-0.2-1.4-0.3-1.9-0.4c-0.6-0.2-1-0.3-1.4-0.6
				s-0.5-0.4-0.5-0.8c0-1,1.7-1.6,5.1-1.7v-0.5h4v0.5c1.7,0.1,3,0.3,3.9,0.5c0.9,0.3,1.3,0.7,1.3,1.1v0.3h-4.6v-0.3
				c0-0.4-0.8-0.7-2.4-0.7c-1.6,0-2.5,0.3-2.5,0.7c0,0.2,0.2,0.3,0.5,0.5c0.3,0.2,0.8,0.3,1.4,0.4s1.2,0.3,1.9,0.3s1.4,0.3,2,0.4
				c0.7,0.2,1.3,0.3,1.9,0.4s1,0.3,1.4,0.6c0.3,0.3,0.5,0.4,0.5,0.8c0,0.5-0.4,0.9-1.4,1.1c-0.9,0.3-2.2,0.5-3.9,0.5V57h-4.1v-0.5
				c-1.7-0.1-3.1-0.3-3.9-0.5C34.2,55.7,33.8,55.3,33.8,54.9"/>
		</g>
	</g>
	<g transform="translate(178.000000, 125.000000)">
		<path class="st4" d="M5.4,57.9c0,4.3,16,7.6,35.7,7.6s35.7-3.4,35.7-7.6V52H5.4V57.9"/>
		<g id="Group-42-Copy-2_28_" transform="translate(0.064168, 0.466367)">
			
				<linearGradient id="Fill-53_3_" gradientUnits="userSpaceOnUse" x1="-843.6693" y1="262.3417" x2="-843.1853" y2="262.2087" gradientTransform="matrix(57.3517 0 0 -12.958 48413.2617 3449.8008)">
				<stop  offset="0" style="stop-color:#005263"/>
				<stop  offset="1" style="stop-color:#65D48E"/>
			</linearGradient>
			<path id="Fill-53_33_" class="st24" d="M76.8,51.2c0,4.4-16,8.1-35.7,8.1S5.3,55.7,5.3,51.2s16-8.1,35.7-8.1S76.8,46.8,76.8,51.2
				"/>
			<path id="Fill-54_32_" class="st1" d="M41,45c-15.2,0-27.6,2.8-27.6,6.2c0,3.5,12.3,6.2,27.6,6.2s27.6-2.8,27.6-6.2
				C68.6,47.8,56.2,45,41,45z M41,57.6c-15.6,0-28.2-2.9-28.2-6.3c0-3.6,12.7-6.3,28.2-6.3s28.2,2.9,28.2,6.3
				C69.3,54.8,56.6,57.6,41,57.6L41,57.6z"/>
			<path id="Fill-55_32_" class="st1" d="M33.5,53v-0.5h5V53c0,0.4,0.7,0.7,2.1,0.7c1.7,0,2.6-0.3,2.6-0.7c0-0.2-0.2-0.3-0.5-0.5
				c-0.3-0.2-0.8-0.3-1.4-0.4c-0.5-0.1-1.1-0.3-1.8-0.3s-1.4-0.3-2-0.4c-0.7-0.2-1.4-0.3-1.9-0.4c-0.6-0.2-1-0.3-1.4-0.6
				c-0.3-0.3-0.5-0.4-0.5-0.8c0-1,1.7-1.6,5.1-1.7v-0.5h4v0.5c1.7,0.1,3,0.3,3.9,0.5c0.9,0.3,1.3,0.7,1.3,1.1v0.3h-4.6v-0.3
				c0-0.4-0.8-0.7-2.4-0.7c-1.6,0-2.5,0.3-2.5,0.7c0,0.2,0.2,0.3,0.5,0.5s0.8,0.3,1.4,0.4c0.6,0.1,1.2,0.3,1.9,0.3s1.4,0.3,2,0.4
				s1.3,0.3,1.9,0.4c0.6,0.2,1,0.3,1.4,0.6c0.3,0.3,0.5,0.4,0.5,0.8c0,0.5-0.4,0.9-1.4,1.1c-0.9,0.3-2.2,0.5-3.9,0.5V55h-4v-0.5
				c-1.7-0.1-3.1-0.3-3.9-0.5C33.9,53.8,33.5,53.4,33.5,53"/>
		</g>
	</g>
	<g transform="translate(180.000000, 117.000000)">
		<path class="st4" d="M5.4,56.3c0,4.3,16,7.6,35.7,7.6s35.7-3.4,35.7-7.6v-5.8H5.4V56.3"/>
		<g id="Group-42-Copy-2_27_" transform="translate(0.064205, 0.466367)">
			
				<linearGradient id="Fill-53_4_" gradientUnits="userSpaceOnUse" x1="-845.6609" y1="270.4868" x2="-845.1767" y2="270.3539" gradientTransform="matrix(57.3853 0 0 -12.958 48555.9141 3553.813)">
				<stop  offset="0" style="stop-color:#005263"/>
				<stop  offset="1" style="stop-color:#65D48E"/>
			</linearGradient>
			<path id="Fill-53_31_" class="st25" d="M76.9,49.7c0,4.4-16,8.1-35.7,8.1S5.4,54.1,5.4,49.7s16-8.1,35.7-8.1S76.9,45.3,76.9,49.7
				"/>
			<path id="Fill-54_31_" class="st1" d="M41.1,43.5c-15.2,0-27.6,2.8-27.6,6.2c0,3.5,12.3,6.2,27.6,6.2s27.6-2.8,27.6-6.2
				C68.7,46.3,56.3,43.5,41.1,43.5z M41.1,56.1c-15.6,0-28.3-2.9-28.3-6.3c0-3.6,12.7-6.3,28.3-6.3s28.3,2.9,28.3,6.3
				C69.4,53.3,56.7,56.1,41.1,56.1L41.1,56.1z"/>
			<path id="Fill-55_31_" class="st1" d="M33.5,51.4v-0.5h5v0.5c0,0.4,0.7,0.7,2.1,0.7c1.7,0,2.6-0.3,2.6-0.7c0-0.2-0.2-0.3-0.5-0.5
				c-0.3-0.2-0.8-0.3-1.4-0.4c-0.5-0.1-1.1-0.3-1.8-0.3s-1.4-0.3-2-0.4c-0.7-0.2-1.4-0.3-1.9-0.4c-0.6-0.2-1-0.3-1.4-0.6
				c-0.3-0.3-0.5-0.4-0.5-0.8c0-1,1.7-1.6,5.1-1.7v-0.5h4v0.5c1.7,0.1,3,0.3,3.9,0.5c0.9,0.3,1.3,0.7,1.3,1.1V48h-4.6v-0.3
				c0-0.4-0.8-0.7-2.4-0.7s-2.5,0.3-2.5,0.7c0,0.2,0.2,0.3,0.5,0.5s0.8,0.3,1.4,0.4s1.2,0.3,1.9,0.3c0.7,0.1,1.4,0.3,2,0.4
				s1.3,0.3,1.9,0.4c0.6,0.2,1,0.3,1.4,0.6c0.3,0.3,0.5,0.4,0.5,0.8c0,0.5-0.4,0.9-1.4,1.1c-0.9,0.3-2.2,0.5-3.9,0.5v0.5h-4V53
				c-1.7-0.1-3.1-0.3-3.9-0.5C34,52.3,33.5,51.9,33.5,51.4"/>
		</g>
	</g>
	<path class="st26" d="M177.5,100.9l-8.4,20.3c-1.5,3.6-5.2,5.9-9.1,5.6c-1.9-0.2-4-0.7-6.7-1.6c-1.6-0.6-3.1-1.6-4.4-2.6
		c-2.4-1.8-3.2-5-2-7.7l0,0C152,102.5,165.5,96.4,177.5,100.9C177.5,100.8,177.6,100.9,177.5,100.9z"/>
	<path class="st26" d="M115.2,206.6H96.6c-2.1,0-3.8-1.7-3.8-3.8v-9.9c0-2.1,1.7-3.8,3.8-3.8h18.5c2.1,0,3.8,1.7,3.8,3.8v9.9
		C119,204.9,117.3,206.6,115.2,206.6z"/>
	<path class="st26" d="M172.5,206.6h-18.5c-2.1,0-3.8-1.7-3.8-3.8v-9.9c0-2.1,1.7-3.8,3.8-3.8h18.5c2.1,0,3.8,1.7,3.8,3.8v9.9
		C176.4,204.9,174.6,206.6,172.5,206.6z"/>
	<path id="Shape" class="st26" d="M76.4,151.6c-0.4,2.1-4.2,5.7-10.5,1.2c1.1-0.7,2.5-1.5,3.3-3.6l0,0c1.1-2.6,0.2-5.2-1.4-7
		c-1.4-1.6-3.5-2.8-5.4-3c-6-0.2-3.8,8.8,0.2,12.7l0.3,0.2c0.2,0.2,0.3,0.4,0.5,0.5c-0.9,0.9-2.6,2-4.4,2.5c-0.6,0.2-1,0.7-0.9,1.5
		l0,0c0,0.2,0.2,0.4,0.4,0.5c0.7,0.2,2.7,0.1,6.3-3.2c2.6,2.2,5.8,4,8.3,4c2.7-0.1,5.7-1.7,6.1-5.1L76.4,151.6z M64.7,142.8
		c0.7,0.3,1.3,0.9,1.6,1.7c0.2,0.4,0.3,0.9,0.5,1.3c0.3,0.9,0.2,1.8-0.2,2.6c-0.9,1.7-1.9,2.8-1.9,2.8
		C60.3,148.6,59.6,140.2,64.7,142.8z"/>
	<path class="st26" d="M192.5,170.3v-23.5c0-1.4,1.1-2.5,2.5-2.5h6.7l0,0c4.8,2.1,8.2,7.7,8.2,14.3c0,6.6-3.4,12.2-8.3,14.3v-0.1
		H195c-0.7,0-1.3-0.3-1.8-0.8C192.8,171.7,192.5,171.1,192.5,170.3z"/>
	<path class="st27" d="M198.7,153.6c0,5.8-1.2,11.4-3.3,16.6c-8.5,20.4-32.2,35.1-60.2,35.1c-35.1,0-63.6-23.1-63.6-51.7
		c0-13.5,6.4-25.9,16.9-35.1c11.6-10.2,28.2-16.6,46.7-16.6C170.3,101.9,198.7,125.1,198.7,153.6z"/>
	<path class="st28" d="M197.5,165.4c-0.5,1.6-1,3.3-1.7,4.9c-8.5,20.4-32.3,35.1-60.3,35.1c-35.2,0-63.8-23.1-63.8-51.7
		c0-13.5,6.4-25.9,16.9-35.1c1.7-1.5,3.5-2.9,5.4-4.2c-1.1,3.8-1.6,7.7-1.6,11.7c0,28.5,28.5,51.7,63.8,51.7
		C171.8,177.8,186.3,173.1,197.5,165.4z"/>
	<path class="st26" d="M192.5,105.6l-10.6,20c-1.9,3.6-5.9,5.6-9.9,4.9c-1.9-0.3-4.1-1-6.7-2.3c-1.7-0.8-3-1.9-4.3-3.1
		c-2.3-2.1-2.8-5.4-1.4-8.1l0,0C166.1,104.8,180.6,99.8,192.5,105.6L192.5,105.6z"/>
	<path class="st29" d="M151.3,117.9c-11.4-5.2-24.6-5.2-36,0c-0.8,0.4-1.9,0.1-2.4-0.8l0,0c-0.4-0.9,0-1.9,1-2.3
		c12.4-5.6,26.4-5.6,38.8,0c0.9,0.4,1.4,1.5,1,2.3l0,0C153.2,118,152.2,118.4,151.3,117.9z"/>
	<path class="st11" d="M163.8,99.4c-11.2,0.1-13.7,2.6-13.6,13.8c-0.1-11.2-2.5-13.7-13.8-13.6c11.2-0.1,13.7-2.6,13.6-13.8
		C150.1,96.9,152.6,99.4,163.8,99.4z"/>
	<path class="st11" d="M165.1,88.8c-5.6,0.1-6.9,1.3-6.8,6.9c0-5.6-1.3-6.9-6.9-6.8c5.6,0,6.9-1.3,6.8-6.9
		C158.2,87.6,159.5,88.8,165.1,88.8z"/>
	<path class="st11" d="M250.7,123.1c-1,0.9-3.1,3.7-1.5,3.7c1.1,0.1,2.9-1.9,3.1-2.8C252.5,123.2,250.7,123.1,250.7,123.1z"/>
	<g transform="translate(225.000000, 30.000000)">
		<path class="st6" d="M61.1,25.4c0.3,0.4,0.5,0.8,0.9,1.2c4.4,5,11.2,12.6,16.1,16.3c0.8,0.6,1.6,1.3,2.7,2
			c8.1,6,24.9,18.3,23,32.1c0,0.2-0.2,0.3-0.4,0.3c0,0,0,0-0.1,0c-0.3,0-0.3-0.3-0.3-0.4c1.8-13.3-14.8-25.4-22.7-31.3
			c-1-0.8-2-1.4-2.7-2c-2.8-2.2-6.2-5.5-9.4-9c19.2,23,34.1,25.2,32.3,48.1c-2.2,29.2-49.2,16.9-50.6-9.4
			c-0.9-16.5-8.9-24.2-8.7-41.7C41.3,21.7,53.9,15.1,61.1,25.4z"/>
		<path class="st11" d="M21.1,55.2c-1.2-0.8-4.6-2.3-4.4-0.7c0.2,1.1,2.7,2.4,3.8,2.5C21.4,57,21.1,55.2,21.1,55.2z"/>
		<path class="st6" d="M42.1,81.7l16.1-1c0.1,0.5,0.1,1,0.2,1.5l9.7-1.5c1.1,7.5,1.5,22.9,1.6,28.6c0.1,2.5,0.1,4.6,0,6.5v0.1
			c1,3.7,3.8,13.3,5.3,21.8s4.4,27.2,0.5,27c-3.1-0.3-13.1-29.2-17.5-41.3c-0.1,4.8-0.3,11.1-1,16.9c-0.9,8.7-3.5,27.5-7.1,26.3
			c-3.4-1.1-4.9-43.2-5.5-49.2c0-0.3,0-0.5,0-0.7C42.3,105.1,42.8,81.7,42.1,81.7z"/>
		<path class="st30" d="M77.1,161c0.6,0.4,0.8,2.1,1.2,3.7c0.4,1.5-1.8,1.2-3.4,1.8c-3.9,1.4-9.3,2.2-6.7,0.6c3.5-2.3,4-4.5,4.8-5.1
			C73.2,161.8,76.9,161,77.1,161z"/>
		<path class="st30" d="M52.5,163.4c0.5,0.6,0.2,2.2,0.1,3.9c0,1.6-2.1,0.8-3.9,0.9c-4,0.4-9.5,0-6.6-1c3.9-1.4,5.2-3.4,6.1-3.8
			C48.5,163.3,52.2,163.3,52.5,163.4z"/>
		<path class="st11" d="M67.1,87c-0.6,1.4-1.2,4.7,0.5,4.4c1.4-0.2,1.5-3.1,1.4-4.1C69,86.3,67.1,87,67.1,87z"/>
		<path class="st11" d="M66.9,87.6c-0.4,0.3-1,1.4-1,2.1c0.1,0.8,1.6-1.3,1.7-1.8C67.8,87.4,66.9,87.6,66.9,87.6z"/>
		<path class="st27" d="M19.8,56.1c0.1-0.3,0.3-0.8,0.7-0.9l0.1-0.1c0.3-0.1,0.5-0.1,0.7,0l0.4,0.3l0.9,0.5c0.7,0.3,1.3,0.6,2,0.9
			c1.3,0.5,2.7,1,3.9,1.3c1.3,0.3,2.5,0.3,3.5,0.2c0.5-0.1,0.9-0.3,1.3-0.4c0.2-0.1,0.3-0.2,0.5-0.3l0.6-0.5c2.1-1.6,4-3.6,5.8-5.6
			c0.9-1,1.7-2.1,2.5-3.2c0.4-0.5,0.8-1.1,1.2-1.7l0.6-0.9c0.1-0.3,0.3-0.7,0.4-0.9c0.7-1.2,1.8-2.1,3.3-2.8
			c3.4-1.6,8.4-1.8,11.8-0.7c0.4,0.2,0.8,0.3,1.1,0.5c0.4,0.2,0.9,0.3,1.3,0.7c0.9,0.8,1.6,1.4,2.3,2.3c0.7,0.8,1.4,1.5,2.1,2.4
			c1.3,1.6,2.5,3.4,3.6,5.3c2.1,3.7,3.6,8,3.7,12.6c0,1.2-0.1,2.1-0.2,3.1c-0.1,1-0.3,2-0.3,3c-0.3,2-0.7,4-1.1,5.9
			c-0.5,2-1,3.8-1.7,5.8c-0.3,0.9-0.7,1.9-1,2.8l-0.5,1.4L69,87.5c-0.1,0.3-0.3,0.4-0.6,0.6c-0.4,0.2-0.9,0-1.1-0.3l-0.1-0.1
			c-0.3-0.3-0.3-0.6-0.2-0.8l0.1-0.7l0.2-1.4c0.1-0.8,0.2-1.4,0.3-2.2c-4.2,1.6-26.6,2.4-26.3-1c0.3-4.3,0.7-14,1.4-22.5
			c-1.4,1.2-2.8,2.3-4.5,3.2l-0.5,0.3l-0.7,0.3c-0.5,0.3-1,0.4-1.5,0.6c-1,0.3-2.1,0.4-3.1,0.3c-2-0.1-3.8-0.8-5.2-1.5
			c-1.5-0.8-2.8-1.7-4-2.7c-0.6-0.5-1.2-1-1.7-1.6c-0.3-0.3-0.5-0.6-0.9-0.9L20,56.7C19.9,56.6,19.8,56.4,19.8,56.1z"/>
		<path class="st1" d="M52.8,44.6c0.3,0,0.6,0,0.9,0c3.9-0.3,5.8-2.6,6.4-3.3c0.1-0.1,0-0.2,0-0.2c-0.1-0.1-0.2,0-0.2,0
			c-0.6,0.7-2.4,2.9-6.3,3.1c-4.3,0.3-5.2-1.8-5.3-2.5c0-0.1-0.1-0.1-0.2-0.1s-0.1,0.1-0.1,0.2C48.4,42.6,49.1,44.6,52.8,44.6z"/>
		<path class="st11" d="M50.8,41.6c0.3,1.6,1.8,2.6,3.4,2.2s2.7-2,2.4-3.7l-0.9-5.4c0-0.3-0.1-0.4-0.2-0.6c-0.5-1.2-1.8-1.9-3.2-1.5
			c-0.8,0.2-1.5,0.7-1.9,1.4c-0.4,0.7-0.6,1.4-0.5,2.3l0.9,4.9V41.6z"/>
		<path class="st10" d="M50.8,41.2c0.9,0,2.3-0.6,3.2-2.1c0.7-1.2,1.4-3.7,1.5-4.8c-0.5-1.2-1.8-1.9-3.2-1.5
			c-0.8,0.2-1.5,0.7-1.9,1.4c-0.4,0.7-0.6,1.4-0.5,2.3L50.8,41.2z"/>
		<path class="st11" d="M45.1,32.7c0.8,4.3,2.7,7.6,6.4,6.9c3.7-0.7,5.4-4.6,5.2-9c-0.3-5.8-3.9-8.7-8.1-6.5
			C45.2,25.7,44.3,28.4,45.1,32.7z"/>
		<path class="st6" d="M44.8,28.1c0,0,0.5-3.5,2.9-4.4c0.4-0.2,0.7-0.2,0.9-0.2c0-0.3,0.1-0.6,0.3-0.9c2-2.5,7.6,0.4,7.6,0.4
			l0.6,8.3c-2.2-0.9-6.4-3.7-7.9-6C48.3,25.7,45.9,26.7,44.8,28.1z"/>
		<path class="st11" d="M55.3,32c-0.1,1.1,0.2,2,1,2c0.9,0.1,1.7-0.8,1.8-1.8c0.1-1.1-0.6-2-1.5-2C55.8,30.1,55.4,30.9,55.3,32z"/>
	</g>
</g>
<g id="Group-37_2_" transform="translate(767.334228, 58.000000)" class="st31">
	<circle id="Oval_33_" class="st32" cx="-46.8" cy="32.5" r="5.5"/>
	<circle id="Oval_32_" class="st33" cx="-28.9" cy="52.9" r="5.5"/>
	<circle id="Oval_31_" class="st32" cx="-41.6" cy="68.1" r="5.5"/>
	<circle id="Oval_30_" class="st32" cx="-25.6" cy="79.2" r="5.5"/>
	<circle id="Oval_20_" class="st33" cx="-45.1" cy="97.9" r="5.5"/>
	<path id="Path_5_" class="st34" d="M-42.1,151.7c-0.1-0.1-2.4-4.1-3.1-12.3c-0.7-7.6-0.2-20.3,6.1-38.1c12-33.6-2.7-60.8-2.9-61
		l0.7-0.5c0,0.1,3.9,7,6.1,18.1c3,14.6,1.9,29.8-3.1,43.8c-12,33.6-3.1,49.5-3,49.7L-42.1,151.7z"/>
</g>
<g id="Group-37_3_" transform="translate(428.334228, 80.000000)" class="st31">
	<circle id="Oval_38_" class="st32" cx="-128.9" cy="38.5" r="5.5"/>
	<circle id="Oval_37_" class="st33" cx="-111" cy="58.9" r="5.5"/>
	<circle id="Oval_36_" class="st32" cx="-123.8" cy="74.1" r="5.5"/>
	<circle id="Oval_35_" class="st32" cx="-107.6" cy="85.2" r="5.5"/>
	<circle id="Oval_34_" class="st33" cx="-127.2" cy="103.8" r="5.5"/>
	<path id="Path_10_" class="st34" d="M-124.2,157.7c-0.1-0.1-2.4-4.1-3.1-12.3c-0.7-7.6-0.2-20.3,6.1-38.1c12-33.6-2.7-60.8-2.9-61
		l0.7-0.5c0,0.1,3.9,7,6.1,18.1c3,14.6,1.9,29.8-3.1,43.8c-12,33.6-3.1,49.5-3,49.7L-124.2,157.7z"/>
</g>
<g>
	<path class="st4" d="M543.7,105.3c4,1.9,15.1-12,24.5-31.3s13.9-36.4,10-38.5l-5.7-2.8L538,102.3L543.7,105.3"/>
	<g>
		
			<ellipse transform="matrix(0.4779 -0.8784 0.8784 0.4779 231.2555 523.4569)" class="st1" cx="556" cy="67.2" rx="32.5" ry="7.8"/>
		<g id="Page-1_4_">
			<g id="Group_5_">
				
					<linearGradient id="Shape_4_" gradientUnits="userSpaceOnUse" x1="530.9526" y1="432.5934" x2="554.3329" y2="404.9671" gradientTransform="matrix(0.5316 0.2597 -0.4323 0.885 448.8385 -444.1032)">
					<stop  offset="0" style="stop-color:#005263"/>
					<stop  offset="1" style="stop-color:#65D48E"/>
				</linearGradient>
				<path id="Shape_5_" class="st35" d="M567.3,43.9c-3-1.4-10.6,8.1-17,21.4c-6.4,13.3-9.4,25.2-6.4,26.6c3,1.4,10.6-8.1,17-21.4
					c3.1-6.3,5.6-12.7,6.7-17.7C568.8,47.8,568.7,44.7,567.3,43.9z M560.6,62.3c0.2,0.1,0,1-0.4,1.8c-0.4,0.9-1,1.5-1.2,1.4
					l-0.7-0.3c-1.9,3.9-4.2,6.3-4.8,5.6l-1.3,7.7c-0.1,0.2-0.2,0.6-0.4,1.1c-0.2,0.4-0.4,0.9-0.6,1.2c-0.3,0.4-0.5,0.6-0.6,0.5
					c-0.1,0-0.1-0.2-0.1-0.4l1.8-10.9c0.1-0.4,0.4-1.2,0.7-1.8c0.3-0.6,0.7-1.1,0.9-1l1.1,0.5c0.6,0.3,1.7-1.1,2.6-2.7l-2-1
					c-0.2-0.1,0-1,0.4-1.8c0.4-0.9,1-1.5,1.2-1.4l2,1c0.7-1.7,1.2-3.3,0.5-3.6l-1.1-0.5c-0.2-0.1,0-1,0.4-1.8c0.4-0.9,1-1.5,1.2-1.4
					l3.5,1.7c0.2,0.1,0,1-0.4,1.8c-0.4,0.9-1,1.5-1.2,1.4l-1-0.5c-0.3,1.1-0.7,2.1-1.3,3.3L560.6,62.3z"/>
				
					<linearGradient id="SVGID_1_" gradientUnits="userSpaceOnUse" x1="525.809" y1="438.6711" x2="560.1001" y2="398.1526" gradientTransform="matrix(0.5316 0.2597 -0.4323 0.885 448.8385 -444.1032)">
					<stop  offset="0" style="stop-color:#005263"/>
					<stop  offset="1" style="stop-color:#65D48E"/>
				</linearGradient>
				<path class="st36" d="M572.8,32.8c-4.3-2-15.4,12-25,31.4c-9.5,19.4-13.7,36.9-9.4,38.9s15.4-12,25-31.4
					c4.5-9.3,8.1-18.6,9.9-25.9C574.9,38.5,574.8,33.8,572.8,32.8z M542.3,95.1c-3.3-1.6,0-15.1,7.3-30.1c7.4-15,16-25.8,19.3-24.2
					c3.3,1.6,0,15.1-7.3,30.1c-3.5,7.2-7.5,13.8-11.1,18.3C546.9,93.8,543.9,95.9,542.3,95.1z"/>
			</g>
		</g>
	</g>
</g>
<g>
	<path class="st4" d="M632.9,187.7l4.2-2.2l-25.4-51.2l-4.2,2.1c-2.9,1.5,0.4,14.1,7.3,28.3S630,189.1,632.9,187.7"/>
	<g>
		
			<ellipse transform="matrix(0.8784 -0.4779 0.4779 0.8784 -0.4188 317.5284)" class="st1" cx="623.8" cy="159.6" rx="5.8" ry="23.9"/>
		<g id="Page-1_1_">
			<g id="Group_1_">
				
					<linearGradient id="Shape_6_" gradientUnits="userSpaceOnUse" x1="752.7551" y1="469.0966" x2="769.9649" y2="448.7616" gradientTransform="matrix(-0.5316 0.2597 0.4323 0.885 829.9451 -444.1032)">
					<stop  offset="0" style="stop-color:#005263"/>
					<stop  offset="1" style="stop-color:#65D48E"/>
				</linearGradient>
				<path id="Shape_1_" class="st37" d="M615.2,149c0.9,3.6,2.7,8.4,5,13c4.7,9.8,10.3,16.8,12.5,15.8c2.2-1,0-9.8-4.7-19.6
					c-4.7-9.8-10.3-16.8-12.5-15.8C614.4,143,614.3,145.3,615.2,149z M621,155.8c-0.4-0.9-0.7-1.7-0.9-2.4l-0.7,0.4
					c-0.2,0.1-0.6-0.4-0.9-1c-0.3-0.6-0.5-1.3-0.3-1.3l2.6-1.3c0.2-0.1,0.6,0.4,0.9,1c0.3,0.6,0.5,1.3,0.3,1.3l-0.8,0.4
					c-0.5,0.2-0.2,1.4,0.4,2.7l1.5-0.7c0.2-0.1,0.6,0.4,0.9,1c0.3,0.6,0.5,1.3,0.3,1.3l-1.5,0.7c0.6,1.2,1.4,2.2,1.9,2l0.8-0.4
					c0.1-0.1,0.4,0.2,0.6,0.7c0.2,0.5,0.5,1,0.6,1.3l1.3,8c0,0.2,0,0.3-0.1,0.3c-0.1,0.1-0.2-0.1-0.5-0.4c-0.2-0.2-0.3-0.6-0.5-0.9
					s-0.2-0.6-0.3-0.8l-0.9-5.7c-0.5,0.6-2.1-1.3-3.5-4.1l-0.6,0.2c-0.2,0.1-0.6-0.4-0.9-1c-0.3-0.6-0.5-1.3-0.3-1.3L621,155.8z"/>
				
					<linearGradient id="SVGID_2_" gradientUnits="userSpaceOnUse" x1="748.9691" y1="473.5703" x2="774.21" y2="443.7456" gradientTransform="matrix(-0.5316 0.2597 0.4323 0.885 829.9451 -444.1032)">
					<stop  offset="0" style="stop-color:#005263"/>
					<stop  offset="1" style="stop-color:#65D48E"/>
				</linearGradient>
				<path class="st38" d="M611.1,143.8c1.3,5.4,3.9,12.2,7.3,19.1c7,14.3,15.2,24.6,18.4,23.1c3.2-1.5,0.1-14.4-6.9-28.6
					c-7-14.3-15.2-24.6-18.4-23.1C609.9,135,609.9,138.5,611.1,143.8z M627.9,175.8c-2.7-3.3-5.6-8.2-8.2-13.5
					c-5.4-11-7.8-21-5.4-22.2c2.4-1.2,8.8,6.8,14.2,17.8c5.4,11,7.8,21,5.4,22.2C632.7,180.7,630.5,179.1,627.9,175.8z"/>
			</g>
		</g>
	</g>
</g>
<g>
	<path class="st4" d="M1079.6,165.6l-0.1-4.7l-57.1-0.3l0,4.7c0,3.3,12.8,6,28.6,6.2C1066.7,171.6,1079.5,168.8,1079.6,165.6"/>
	<g>
		
			<ellipse transform="matrix(0.9995 -3.258621e-02 3.258621e-02 0.9995 -4.6918 34.3148)" class="st1" cx="1050.4" cy="161.1" rx="23.9" ry="5.8"/>
		<g id="Page-1_3_">
			<g id="Group_3_">
				
					<linearGradient id="Shape_7_" gradientUnits="userSpaceOnUse" x1="1126.2677" y1="199.402" x2="1135.8164" y2="188.1192" gradientTransform="matrix(0.449 -0.8935 0.8935 0.449 369.8883 1084.3236)">
					<stop  offset="0" style="stop-color:#005263"/>
					<stop  offset="1" style="stop-color:#65D48E"/>
				</linearGradient>
				<path id="Shape_3_" class="st39" d="M1037.1,164c3.6,0.9,8.7,1.4,13.9,1.4c10.9,0.2,19.6-1.7,19.7-4.1c0.1-2.4-8.7-4.4-19.6-4.6
					s-19.6,1.7-19.7,4.1C1031.4,162.1,1033.4,163.1,1037.1,164z M1045.8,161.9c-1,0-1.8-0.1-2.6-0.3l0,0.8c0,0.2-0.6,0.3-1.3,0.3
					c-0.7,0-1.3-0.1-1.3-0.3l0-2.9c0-0.2,0.6-0.3,1.3-0.3c0.7,0,1.3,0.1,1.3,0.3l0,0.9c0,0.5,1.2,0.8,2.6,0.9l0-1.7
					c0-0.2,0.6-0.3,1.3-0.3c0.7,0,1.3,0.1,1.3,0.3l0,1.7c1.3,0,2.6-0.3,2.6-0.8l0-0.9c0-0.1,0.4-0.2,0.9-0.2c0.5,0,1.1,0,1.4,0.1
					l7.8,2.4c0.1,0.1,0.3,0.1,0.2,0.2c0,0.1-0.2,0.2-0.6,0.2c-0.3,0-0.6,0-1,0c-0.4,0-0.7-0.1-0.8-0.1l-5.5-1.7
					c0.3,0.7-2.1,1.3-5.3,1.3l0,0.6c0,0.2-0.6,0.3-1.3,0.3s-1.3-0.1-1.3-0.3L1045.8,161.9z"/>
				
					<linearGradient id="SVGID_3_" gradientUnits="userSpaceOnUse" x1="1124.1849" y1="201.8517" x2="1138.1394" y2="185.3629" gradientTransform="matrix(0.449 -0.8935 0.8935 0.449 369.8883 1084.3236)">
					<stop  offset="0" style="stop-color:#005263"/>
					<stop  offset="1" style="stop-color:#65D48E"/>
				</linearGradient>
				<path class="st40" d="M1030.6,165.4c5.4,1.3,12.7,2,20.3,2.1c15.9,0.1,28.8-2.6,28.9-6c0.1-3.5-12.8-6.5-28.7-6.7
					c-15.9-0.1-28.8,2.6-28.9,6C1022.2,162.5,1025.3,164.1,1030.6,165.4z M1066.8,164.7c-4.2,0.9-9.8,1.3-15.7,1.3
					c-12.3-0.2-22.2-2.4-22.2-5.2s10-4.8,22.3-4.7c12.3,0.2,22.2,2.4,22.2,5.2C1073.3,162.6,1070.9,163.9,1066.8,164.7z"/>
			</g>
		</g>
	</g>
</g>
<g>
	<path class="st4" d="M216.6,180.7l3.5-1.8l-21-42.4l-3.5,1.7c-2.4,1.2,0.3,11.7,6.1,23.4C207.4,173.4,214.2,181.9,216.6,180.7"/>
	<g>
		
			<ellipse transform="matrix(0.8784 -0.4779 0.4779 0.8784 -49.8364 119.0607)" class="st1" cx="209.1" cy="157.5" rx="4.8" ry="19.8"/>
		<g id="Page-1_2_">
			<g id="Group_2_">
				
					<linearGradient id="Shape_8_" gradientUnits="userSpaceOnUse" x1="1382.4633" y1="280.571" x2="1396.7158" y2="263.7302" gradientTransform="matrix(-0.5316 0.2597 0.4323 0.885 829.9451 -444.1032)">
					<stop  offset="0" style="stop-color:#005263"/>
					<stop  offset="1" style="stop-color:#65D48E"/>
				</linearGradient>
				<path id="Shape_2_" class="st41" d="M201.9,148.7c0.7,3,2.2,6.9,4.1,10.8c3.9,8.1,8.6,13.9,10.4,13.1c1.8-0.8,0-8.1-3.9-16.2
					c-3.9-8.1-8.6-13.9-10.4-13.1C201.3,143.8,201.2,145.7,201.9,148.7z M206.8,154.3c-0.3-0.7-0.6-1.4-0.8-2l-0.6,0.3
					c-0.1,0.1-0.5-0.3-0.7-0.8c-0.3-0.5-0.4-1-0.3-1.1l2.2-1c0.1-0.1,0.5,0.3,0.7,0.8c0.3,0.5,0.4,1,0.3,1.1l-0.7,0.3
					c-0.4,0.2-0.1,1.2,0.3,2.2l1.2-0.6c0.1-0.1,0.5,0.3,0.7,0.8c0.3,0.5,0.4,1,0.3,1.1l-1.2,0.6c0.5,1,1.2,1.8,1.6,1.6l0.7-0.3
					c0.1-0.1,0.3,0.2,0.5,0.6c0.2,0.4,0.4,0.8,0.5,1.1l1.1,6.7c0,0.1,0,0.3-0.1,0.3c-0.1,0.1-0.2-0.1-0.4-0.3
					c-0.1-0.2-0.3-0.5-0.4-0.7c-0.1-0.3-0.2-0.5-0.3-0.7l-0.8-4.7c-0.4,0.5-1.8-1-2.9-3.4l-0.5,0.2c-0.1,0.1-0.5-0.3-0.7-0.8
					s-0.4-1-0.3-1.1L206.8,154.3z"/>
				
					<linearGradient id="SVGID_4_" gradientUnits="userSpaceOnUse" x1="1379.3278" y1="284.2759" x2="1400.2314" y2="259.5761" gradientTransform="matrix(-0.5316 0.2597 0.4323 0.885 829.9451 -444.1032)">
					<stop  offset="0" style="stop-color:#005263"/>
					<stop  offset="1" style="stop-color:#65D48E"/>
				</linearGradient>
				<path class="st42" d="M198.5,144.4c1,4.4,3.3,10.1,6,15.8c5.8,11.8,12.6,20.4,15.2,19.1c2.6-1.2,0.1-11.9-5.7-23.7
					c-5.8-11.8-12.6-20.4-15.2-19.1C197.6,137.1,197.5,140,198.5,144.4z M212.5,170.9c-2.2-2.7-4.6-6.8-6.8-11.2
					c-4.4-9.1-6.5-17.4-4.4-18.4c2-1,7.2,5.6,11.8,14.8c4.4,9.1,6.5,17.4,4.4,18.4C216.4,175,214.6,173.7,212.5,170.9z"/>
			</g>
		</g>
	</g>
</g>
</svg>
