<svg width="1358" height="290" viewBox="0 0 1358 290" fill="none" xmlns="http://www.w3.org/2000/svg">
<path d="M1321.25 61.8201C1321.24 62.5239 1320.96 63.1975 1320.46 63.6952C1319.97 64.1929 1319.29 64.4748 1318.59 64.4801H1261.59C1260.91 64.4385 1260.27 64.1396 1259.81 63.6444C1259.34 63.1492 1259.08 62.4949 1259.08 61.8151C1259.08 61.1352 1259.34 60.4809 1259.81 59.9857C1260.27 59.4905 1260.91 59.1916 1261.59 59.1501H1264.29C1264.74 58.1068 1265.44 57.1896 1266.32 56.4787C1267.21 55.7679 1268.25 55.2852 1269.37 55.0729C1270.48 54.8607 1271.63 54.9254 1272.72 55.2614C1273.8 55.5974 1274.79 56.1944 1275.59 57.0001C1276.68 55.1276 1278.38 53.6794 1280.4 52.8899C1282.42 52.1004 1284.65 52.0159 1286.72 52.6501C1287.74 50.6848 1289.34 49.0744 1291.29 48.03C1293.25 46.9856 1295.47 46.5557 1297.67 46.7967C1299.87 47.0377 1301.95 47.9384 1303.64 49.3808C1305.32 50.8231 1306.53 52.7399 1307.1 54.8801C1308.01 54.423 1309.01 54.1719 1310.03 54.1445C1311.05 54.1172 1312.06 54.3143 1312.99 54.7218C1313.92 55.1293 1314.76 55.7373 1315.43 56.5026C1316.1 57.268 1316.6 58.1718 1316.88 59.1501H1318.6C1319.3 59.1553 1319.98 59.439 1320.47 59.9391C1320.97 60.4393 1321.25 61.1154 1321.25 61.8201Z" fill="#ccd5e0"/>
<path d="M73.9398 59C73.9451 60.2776 74.4543 61.5016 75.3568 62.406C76.2593 63.3103 77.4822 63.8221 78.7598 63.83H182C183.271 63.8142 184.486 63.2987 185.38 62.3949C186.274 61.4911 186.777 60.2715 186.78 59C186.785 57.7222 186.286 56.494 185.391 55.5821C184.496 54.6702 183.277 54.1484 182 54.13H177.12C176.308 52.2394 175.045 50.577 173.442 49.2884C171.838 47.9999 169.942 47.1247 167.921 46.7397C165.9 46.3547 163.816 46.4715 161.851 47.0801C159.885 47.6886 158.1 48.7702 156.65 50.23C155.107 47.6043 152.905 45.4275 150.261 43.9155C147.618 42.4034 144.625 41.6087 141.58 41.61C139.862 41.6129 138.155 41.8656 136.51 42.36C134.63 38.8411 131.74 35.965 128.212 34.1013C124.685 32.2377 120.68 31.4716 116.714 31.9017C112.748 32.3318 109 33.9383 105.954 36.5148C102.908 39.0913 100.702 42.5199 99.6198 46.36C97.9707 45.5347 96.1604 45.0822 94.3169 45.0343C92.4735 44.9864 90.6421 45.3443 88.9524 46.0828C87.2626 46.8213 85.7559 47.9222 84.5389 49.3077C83.3219 50.6931 82.4244 52.3291 81.9098 54.1H78.7598C78.1208 54.1025 77.4887 54.2317 76.8998 54.4798C76.311 54.728 75.7771 55.0903 75.329 55.5458C74.8809 56.0013 74.5274 56.5411 74.289 57.134C74.0506 57.7268 73.9319 58.361 73.9398 59Z" fill="#ccd5e0"/>
<path d="M585.39 58.6497C585.392 59.2723 585.27 59.8891 585.031 60.4642C584.793 61.0393 584.442 61.5612 584 61.9997C583.568 62.4383 583.053 62.7862 582.484 63.0232C581.916 63.2601 581.306 63.3813 580.69 63.3797H480.27C479.344 63.3772 478.44 63.1008 477.671 62.5853C476.902 62.0698 476.303 61.3382 475.949 60.4828C475.595 59.6274 475.502 58.6863 475.682 57.7782C475.862 56.8701 476.307 56.0356 476.96 55.3797C477.392 54.9411 477.908 54.5932 478.476 54.3562C479.044 54.1193 479.654 53.9981 480.27 53.9997H485C485.793 52.1627 487.023 50.5478 488.583 49.296C490.144 48.0442 491.988 47.1937 493.953 46.8189C495.918 46.444 497.945 46.5561 499.857 47.1455C501.769 47.7348 503.507 48.7834 504.92 50.1997C506.854 46.9116 509.837 44.3694 513.39 42.9819C516.943 41.5944 520.86 41.4421 524.51 42.5497C526.333 39.1123 529.145 36.3009 532.583 34.4792C536.021 32.6575 539.927 31.9094 543.795 32.3316C547.662 32.7538 551.315 34.327 554.279 36.8475C557.243 39.368 559.382 42.72 560.42 46.4697C562.026 45.6652 563.789 45.2236 565.584 45.1761C567.379 45.1285 569.163 45.4763 570.809 46.1948C572.455 46.9133 573.922 47.9848 575.108 49.3336C576.294 50.6824 577.168 52.2753 577.67 53.9997H580.67C581.911 53.997 583.102 54.4838 583.986 55.3544C584.87 56.2251 585.374 57.4092 585.39 58.6497Z" fill="#ccd5e0"/>
<g style="mix-blend-mode:multiply" opacity="0.5">
<path d="M278 52.7798L278.19 53.3798C278.195 53.4297 278.195 53.4799 278.19 53.5298C278.186 53.5495 278.186 53.5701 278.19 53.5898C278.196 53.633 278.196 53.6766 278.19 53.7198C278.196 53.7462 278.196 53.7734 278.19 53.7998C278.158 53.9787 278.071 54.1431 277.94 54.2698H277.89H277.82C277.77 54.3024 277.716 54.3292 277.66 54.3498L275.04 55.2098C275.23 55.1543 275.433 55.1658 275.615 55.2423C275.797 55.3188 275.947 55.4556 276.04 55.6298C276.07 55.6678 276.091 55.7124 276.1 55.7598L277.59 60.2498C277.599 60.2961 277.599 60.3435 277.59 60.3898C277.585 60.4128 277.585 60.4368 277.59 60.4598C277.59 60.4598 277.59 60.5398 277.59 60.5798C277.595 60.613 277.595 60.6466 277.59 60.6798C277.55 60.8095 277.482 60.929 277.39 61.0298L277.33 61.0898L277.27 61.1398H277.21C277.159 61.1794 277.102 61.2098 277.04 61.2298L275.83 61.6298C276.019 61.5754 276.22 61.5862 276.402 61.6607C276.583 61.7351 276.734 61.8687 276.83 62.0398L276.89 62.1798L278.38 66.6598C278.385 66.7097 278.385 66.7599 278.38 66.8098C278.376 66.8329 278.376 66.8566 278.38 66.8798C278.38 66.8798 278.38 66.9498 278.38 66.9898C278.386 67.0229 278.386 67.0567 278.38 67.0898C278.34 67.2195 278.271 67.339 278.18 67.4398H278.12H278.06H278.01L277.83 67.5198L279.04 67.1198C279.229 67.0654 279.43 67.0762 279.612 67.1507C279.793 67.2251 279.944 67.3587 280.04 67.5298L280.1 67.6698L281.59 72.1598V72.2998C281.59 72.2998 281.59 72.3998 281.59 72.4498C281.596 72.4728 281.596 72.4968 281.59 72.5198C281.576 72.6765 281.517 72.8257 281.42 72.9498L281.36 73.0098C281.36 73.0098 281.36 73.0098 281.3 73.0698L281.24 73.1298H281.18L281.01 73.2098L278.15 74.2098C278.339 74.1535 278.541 74.1635 278.723 74.2381C278.905 74.3127 279.056 74.4474 279.15 74.6198C279.18 74.6615 279.201 74.7093 279.21 74.7598L280.7 79.2498C280.715 79.3223 280.715 79.3972 280.7 79.4698C280.705 79.5197 280.705 79.5699 280.7 79.6198C280.691 79.6924 280.671 79.7632 280.64 79.8298V79.8998C280.64 79.8998 280.64 79.8998 280.64 79.9798V80.0398L280.59 80.1098C280.552 80.1517 280.508 80.1886 280.46 80.2198H280.4L280.23 80.2998L281.47 79.8898C281.659 79.8315 281.861 79.8406 282.044 79.9154C282.226 79.9902 282.377 80.1261 282.47 80.2998L282.53 80.4298L284.01 84.9198C284.015 84.9663 284.015 85.0132 284.01 85.0598C284.02 85.1395 284.02 85.2201 284.01 85.2998C284.015 85.3195 284.015 85.3401 284.01 85.3598C283.976 85.5352 283.889 85.6958 283.76 85.8198H283.71H283.65L283.48 85.8998L281.15 86.6698C281.339 86.6154 281.54 86.6262 281.722 86.7007C281.903 86.7751 282.054 86.9087 282.15 87.0798L282.21 87.2198L283.69 91.6998C283.695 91.7497 283.695 91.7999 283.69 91.8498C283.685 91.8729 283.685 91.8967 283.69 91.9198V92.0498C283.69 92.0498 283.69 92.0498 283.69 92.1298C283.654 92.3507 283.532 92.5484 283.35 92.6798H283.28L283.12 92.7498L276.55 94.9298L275.29 94.5998C274.74 94.4298 274.18 94.2498 273.64 94.0398C272.024 93.5648 270.468 92.9072 269 92.0798C268.76 91.9198 268.53 91.7398 268.3 91.5598C268.07 91.3798 267.85 91.2098 267.63 91.0298C266.218 89.8587 264.958 88.5149 263.88 87.0298L263.46 86.4198L263.06 85.7998C262.177 84.36 261.462 82.8232 260.93 81.2198C260.86 80.9898 260.78 80.7598 260.72 80.5298C260.66 80.2998 260.58 80.0698 260.53 79.8398C260.098 78.1864 259.86 76.4883 259.82 74.7798V73.9998C259.82 73.7498 259.82 73.4898 259.82 73.2398C259.905 71.3273 260.241 69.4344 260.82 67.6098C260.91 67.3198 261.01 67.0398 261.12 66.7598C261.23 66.4798 261.33 66.1798 261.46 65.8898C262.532 63.3606 264.073 61.0569 266 59.0998C266.1 58.9898 266.2 58.8798 266.31 58.7798C266.597 58.4865 266.897 58.2065 267.21 57.9398C267.64 57.5598 268.09 57.1898 268.57 56.8298L268.8 56.6598C270.631 55.3344 272.654 54.2989 274.8 53.5898L275.12 53.4898C276.063 53.1887 277.025 52.9515 278 52.7798Z" fill="#042b62"/>
</g>
<path d="M287.394 94.9071C299.359 93.476 307.899 82.6159 306.468 70.6503C305.037 58.6847 294.177 50.1448 282.211 51.5759C270.246 53.0069 261.706 63.867 263.137 75.8326C264.568 87.7982 275.428 96.3381 287.394 94.9071Z" fill="#ccd5e0"/>
<g style="mix-blend-mode:multiply">
<path d="M301.512 74.8762C302.319 65.3614 295.26 56.9937 285.745 56.1863C276.231 55.379 267.863 62.4378 267.056 71.9526C266.248 81.4674 273.307 89.8351 282.822 90.6425C292.337 91.4498 300.704 84.3911 301.512 74.8762Z" fill="#ccd5e0"/>
</g>
<g style="mix-blend-mode:color-burn">
<path d="M278.859 56.9998L277.939 57.3398C282.209 56.1674 286.765 56.6783 290.668 58.767C294.572 60.8558 297.525 64.3632 298.918 68.5655C300.311 72.7678 300.038 77.3446 298.155 81.3515C296.272 85.3584 292.924 88.4899 288.799 90.0998C289.119 90.0198 289.429 89.9298 289.749 89.8198C294.08 88.3582 297.655 85.2417 299.694 81.1516C301.733 77.0614 302.069 72.3305 300.63 67.9929C299.191 63.6553 296.093 60.064 292.013 58.004C287.934 55.944 283.204 55.583 278.859 56.9998Z" fill="#ccd5e0"/>
</g>
<path d="M289.576 83.4621C295.138 80.547 297.284 73.6751 294.369 68.1133C291.454 62.5514 284.582 60.4058 279.02 63.3209C273.458 66.236 271.312 73.1079 274.227 78.6697C277.143 84.2316 284.014 86.3772 289.576 83.4621Z" fill="#ccd5e0"/>
<path d="M287.249 67.0497L286.729 65.4697L280.139 67.6597L277.609 68.4997L278.139 70.0697L280.659 69.2297C281.174 69.0631 281.727 69.0602 282.243 69.2214C282.758 69.3826 283.212 69.7 283.539 70.1297L278.689 71.7397L279.209 73.3097L284.059 71.7097C284.055 72.2489 283.882 72.7733 283.565 73.2092C283.247 73.645 282.801 73.9704 282.289 74.1397L279.759 74.9797L280.289 76.5597L280.789 76.3897C281.562 76.1271 282.393 76.0821 283.189 76.2597C285.464 76.8098 287.463 78.1628 288.819 80.0697L290.479 79.5197C289.011 77.3107 286.841 75.6618 284.319 74.8397C284.823 74.3812 285.211 73.809 285.449 73.1707C285.687 72.5323 285.77 71.8463 285.689 71.1697L288.329 70.2897L287.799 68.7197L285.169 69.5897C284.849 69.0204 284.396 68.5367 283.849 68.1797L287.249 67.0497Z" fill="#042b62"/>
<g style="mix-blend-mode:multiply" opacity="0.5">
<path d="M184.05 192.81L184.16 193.12C184.16 193.12 184.16 193.12 184.16 193.2V193.31C184.142 193.404 184.096 193.491 184.03 193.56H183.94L182.57 194.01C182.672 193.977 182.782 193.981 182.88 194.021C182.979 194.061 183.061 194.135 183.11 194.23V194.3L183.89 196.66C183.89 196.66 183.89 196.71 183.89 196.73V197C183.895 197.016 183.895 197.034 183.89 197.05C183.871 197.12 183.837 197.185 183.79 197.24L183.69 197.29L183.06 197.5C183.16 197.466 183.27 197.468 183.368 197.507C183.467 197.545 183.549 197.617 183.6 197.71V197.78L184.38 200.14C184.38 200.14 184.38 200.14 184.38 200.21V200.33C184.365 200.399 184.33 200.461 184.28 200.51C184.25 200.533 184.216 200.55 184.18 200.56L184.82 200.35C184.92 200.316 185.03 200.318 185.128 200.357C185.227 200.395 185.309 200.467 185.36 200.56V200.63L186.14 202.99C186.144 203.013 186.144 203.037 186.14 203.06V203.18C186.131 203.26 186.1 203.337 186.05 203.4C186.02 203.423 185.986 203.44 185.95 203.45L184.46 203.94C184.562 203.907 184.672 203.911 184.77 203.951C184.869 203.991 184.951 204.065 185 204.16V204.23L185.78 206.58C185.785 206.62 185.785 206.66 185.78 206.7V206.78V206.89C185.765 206.918 185.74 206.939 185.71 206.95H185.62L186.27 206.74C186.37 206.706 186.48 206.708 186.578 206.747C186.677 206.785 186.759 206.857 186.81 206.95V207.03L187.59 209.38C187.59 209.38 187.59 209.43 187.59 209.45V209.58C187.578 209.673 187.532 209.759 187.46 209.82H187.37L186.15 210.23C186.25 210.196 186.36 210.198 186.458 210.237C186.557 210.275 186.639 210.347 186.69 210.44V210.51L187.47 212.87C187.474 212.893 187.474 212.917 187.47 212.94C187.475 212.96 187.475 212.98 187.47 213V213.05C187.448 213.163 187.384 213.263 187.29 213.33H187.21L183.76 214.47L183.1 214.29C182.809 214.209 182.521 214.112 182.24 214C181.341 213.659 180.49 213.202 179.71 212.64C179.58 212.56 179.46 212.46 179.34 212.37L178.99 212.09C178.232 211.475 177.56 210.762 176.99 209.97L176.77 209.65C176.693 209.545 176.623 209.435 176.56 209.32C176.091 208.568 175.715 207.762 175.44 206.92C175.44 206.8 175.36 206.68 175.33 206.56C175.3 206.44 175.26 206.32 175.23 206.2C174.999 205.335 174.875 204.445 174.86 203.55C174.85 203.417 174.85 203.283 174.86 203.15C174.86 203.02 174.86 202.89 174.86 202.75C174.904 201.73 175.085 200.721 175.4 199.75C175.45 199.6 175.5 199.45 175.56 199.3C175.611 199.147 175.671 198.997 175.74 198.85C176.288 197.529 177.082 196.325 178.08 195.3L178.24 195.13L178.71 194.69C178.94 194.49 179.18 194.3 179.43 194.11L179.55 194.02C180.505 193.321 181.565 192.778 182.69 192.41H182.85C183.258 192.52 183.658 192.653 184.05 192.81Z" fill="#042b62"/>
</g>
<path d="M188.972 214.89C195.245 214.14 199.722 208.446 198.972 202.172C198.222 195.899 192.528 191.421 186.255 192.172C179.981 192.922 175.504 198.616 176.254 204.889C177.004 211.163 182.698 215.64 188.972 214.89Z" fill="#ccd5e0"/>
<g style="mix-blend-mode:multiply">
<path d="M187.35 212.68C192.354 212.68 196.41 208.624 196.41 203.62C196.41 198.616 192.354 194.56 187.35 194.56C182.346 194.56 178.29 198.616 178.29 203.62C178.29 208.624 182.346 212.68 187.35 212.68Z" fill="#ccd5e0"/>
</g>
<g style="mix-blend-mode:color-burn">
<path d="M184.49 195C184.327 195.051 184.166 195.111 184.01 195.18C186.238 194.6 188.603 194.889 190.626 195.988C192.649 197.088 194.178 198.916 194.903 201.101C195.628 203.286 195.495 205.666 194.531 207.756C193.566 209.847 191.843 211.493 189.71 212.36L190.2 212.21C192.418 211.402 194.234 209.762 195.262 207.637C196.29 205.513 196.449 203.071 195.706 200.831C194.963 198.59 193.375 196.728 191.281 195.639C189.187 194.55 186.751 194.321 184.49 195Z" fill="#ccd5e0"/>
</g>
<path d="M190.121 208.886C193.036 207.358 194.161 203.756 192.633 200.841C191.105 197.925 187.503 196.8 184.587 198.328C181.672 199.856 180.547 203.459 182.075 206.374C183.603 209.29 187.206 210.414 190.121 208.886Z" fill="#ccd5e0"/>
<path d="M188.89 200.29L188.62 199.46L185.17 200.61L183.84 201.05L184.11 201.87L185.44 201.43C185.709 201.343 185.999 201.341 186.27 201.425C186.54 201.509 186.778 201.675 186.95 201.9L184.4 202.75L184.68 203.57L187.22 202.73C187.218 203.014 187.127 203.29 186.96 203.519C186.793 203.749 186.559 203.92 186.29 204.01L184.97 204.45L185.24 205.27L185.51 205.18C185.913 205.047 186.344 205.023 186.76 205.11C187.967 205.397 189.031 206.106 189.76 207.11L190.62 206.83C189.852 205.673 188.718 204.807 187.4 204.37C187.665 204.131 187.868 203.832 187.994 203.498C188.119 203.164 188.162 202.804 188.12 202.45L189.5 201.99L189.22 201.16L187.84 201.62C187.67 201.323 187.434 201.07 187.15 200.88L188.89 200.29Z" fill="#042b62"/>
<g style="mix-blend-mode:multiply" opacity="0.5">
<path d="M618.61 220L618.79 220.56C618.8 220.606 618.8 220.654 618.79 220.7C618.795 220.72 618.795 220.74 618.79 220.76V220.88C618.794 220.906 618.794 220.933 618.79 220.96C618.759 221.125 618.674 221.276 618.55 221.39H618.49L618.33 221.46L615.89 222.27C616.074 222.199 616.278 222.198 616.463 222.268C616.648 222.338 616.8 222.474 616.89 222.65L616.95 222.78L618.34 226.98C618.345 227.026 618.345 227.073 618.34 227.12C618.34 227.12 618.34 227.12 618.34 227.19C618.345 227.226 618.345 227.263 618.34 227.3C618.345 227.33 618.345 227.36 618.34 227.39C618.3 227.512 618.236 227.624 618.15 227.72L618.09 227.77C618.09 227.77 618.09 227.77 618.03 227.82H617.98C617.931 227.854 617.877 227.881 617.82 227.9L616.69 228.28C616.874 228.209 617.078 228.208 617.263 228.278C617.448 228.348 617.6 228.484 617.69 228.66L617.75 228.79L619.14 232.99V233.12C619.135 233.14 619.135 233.16 619.14 233.18C619.146 233.216 619.146 233.253 619.14 233.29C619.14 233.29 619.14 233.35 619.14 233.38C619.106 233.499 619.045 233.609 618.96 233.7H618.9L618.84 233.75H618.79L618.63 233.82L619.76 233.45C619.944 233.379 620.148 233.378 620.333 233.448C620.518 233.518 620.67 233.654 620.76 233.83C620.786 233.87 620.806 233.914 620.82 233.96L622.21 238.16C622.22 238.206 622.22 238.254 622.21 238.3C622.215 238.346 622.215 238.393 622.21 238.44V238.5C622.191 238.646 622.133 238.785 622.04 238.9C622.046 238.919 622.046 238.94 622.04 238.96C622.023 238.982 622.002 239.002 621.98 239.02C621.98 239.02 621.98 239.02 621.92 239.02C621.871 239.054 621.817 239.081 621.76 239.1L619.09 239.98C619.276 239.912 619.48 239.914 619.664 239.985C619.848 240.057 620 240.194 620.09 240.37L620.15 240.49L621.54 244.7C621.55 244.766 621.55 244.834 621.54 244.9C621.545 244.946 621.545 244.993 621.54 245.04C621.554 245.109 621.554 245.18 621.54 245.25V245.31V245.38L621.49 245.44V245.5C621.457 245.544 621.417 245.581 621.37 245.61H621.31L621.16 245.69L622.31 245.3C622.496 245.234 622.699 245.237 622.883 245.308C623.066 245.38 623.218 245.515 623.31 245.69C623.331 245.728 623.348 245.768 623.36 245.81L624.75 250.01C624.754 250.056 624.754 250.103 624.75 250.15C624.76 250.223 624.76 250.297 624.75 250.37C624.75 250.37 624.75 250.37 624.75 250.43C624.712 250.59 624.629 250.736 624.51 250.85H624.45L624.29 250.92L622.11 251.65C622.294 251.576 622.499 251.574 622.684 251.645C622.869 251.715 623.021 251.853 623.11 252.03C623.136 252.07 623.156 252.114 623.17 252.16L624.56 256.36C624.569 256.403 624.569 256.447 624.56 256.49C624.565 256.513 624.565 256.537 624.56 256.56V256.68C624.565 256.703 624.565 256.727 624.56 256.75C624.525 256.955 624.41 257.139 624.24 257.26H624.18L624.02 257.34L617.88 259.34C617.48 259.25 617.09 259.15 616.7 259.03C616.31 258.91 615.7 258.7 615.15 258.51C613.554 257.889 612.04 257.077 610.64 256.09L609.98 255.6L609.36 255.1C608.032 253.993 606.852 252.719 605.85 251.31C605.717 251.13 605.587 250.94 605.46 250.74L605.08 250.16C604.25 248.812 603.579 247.372 603.08 245.87C603.01 245.66 602.94 245.44 602.88 245.23L602.7 244.59C602.295 243.041 602.074 241.45 602.04 239.85V239.15C602.04 238.91 602.04 238.67 602.04 238.44C602.139 236.647 602.475 234.874 603.04 233.17C603.13 232.9 603.22 232.63 603.32 232.37C603.42 232.11 603.52 231.83 603.64 231.56C604.628 229.205 606.045 227.055 607.82 225.22L608.12 224.92C608.39 224.65 608.67 224.39 608.95 224.14C609.23 223.89 609.78 223.43 610.23 223.14L610.44 222.98C612.147 221.74 614.036 220.772 616.04 220.11L616.34 220.01C617.096 219.962 617.854 219.959 618.61 220Z" fill="#042b62"/>
</g>
<path d="M627.389 259.389C638.587 258.05 646.579 247.886 645.24 236.688C643.9 225.491 633.737 217.499 622.539 218.838C611.341 220.177 603.349 230.34 604.689 241.538C606.028 252.736 616.191 260.728 627.389 259.389Z" fill="#ccd5e0"/>
<g style="mix-blend-mode:multiply">
<path d="M640.584 240.645C641.339 231.741 634.734 223.911 625.83 223.155C616.926 222.4 609.095 229.005 608.34 237.909C607.584 246.813 614.19 254.644 623.094 255.399C631.998 256.155 639.828 249.549 640.584 240.645Z" fill="#ccd5e0"/>
</g>
<g style="mix-blend-mode:color-burn">
<path d="M619.4 223.93C619.1 224.03 618.82 224.14 618.53 224.25C622.515 223.187 626.756 223.685 630.386 225.644C634.016 227.603 636.76 230.874 638.059 234.789C639.358 238.704 639.112 242.967 637.372 246.707C635.633 250.447 632.531 253.381 628.7 254.91C629 254.83 629.29 254.74 629.58 254.64C631.637 254.004 633.546 252.965 635.195 251.582C636.845 250.2 638.202 248.502 639.188 246.588C640.173 244.674 640.767 242.583 640.934 240.437C641.101 238.291 640.838 236.134 640.161 234.09C639.483 232.047 638.405 230.16 636.989 228.539C635.574 226.917 633.848 225.595 631.915 224.649C629.982 223.702 627.879 223.151 625.73 223.028C623.581 222.905 621.429 223.211 619.4 223.93Z" fill="#ccd5e0"/>
</g>
<path d="M629.425 248.674C634.63 245.946 636.637 239.516 633.91 234.311C631.182 229.106 624.751 227.098 619.546 229.826C614.341 232.554 612.333 238.985 615.061 244.19C617.789 249.394 624.22 251.402 629.425 248.674Z" fill="#ccd5e0"/>
<path d="M627.25 233.33L626.76 231.86L620.599 233.86L618.229 234.65L618.719 236.12L621.09 235.34C621.568 235.18 622.085 235.175 622.568 235.323C623.05 235.472 623.474 235.768 623.78 236.17L619.24 237.68L619.729 239.15L624.27 237.65C624.264 238.155 624.102 238.647 623.804 239.055C623.507 239.464 623.089 239.77 622.609 239.93L620.24 240.71L620.729 242.19L621.21 242.03C621.931 241.786 622.706 241.744 623.45 241.91C625.576 242.427 627.446 243.69 628.719 245.47L630.27 244.96C628.895 242.895 626.866 241.353 624.51 240.58C624.982 240.15 625.345 239.614 625.567 239.015C625.79 238.417 625.866 237.774 625.789 237.14L628.26 236.33L627.77 234.85L625.299 235.67C624.998 235.14 624.577 234.688 624.07 234.35L627.25 233.33Z" fill="#042b62"/>
<g style="mix-blend-mode:multiply" opacity="0.5">
<path d="M819.26 82.7397L819.4 83.1797C819.409 83.2159 819.409 83.2536 819.4 83.2897C819.405 83.3229 819.405 83.3566 819.4 83.3897V83.4497C819.371 83.5821 819.305 83.7036 819.21 83.7998C819.192 83.8465 819.163 83.8887 819.127 83.9233C819.091 83.9578 819.047 83.984 819 83.9997L817 84.6497C817.143 84.6007 817.299 84.6039 817.44 84.6588C817.581 84.7137 817.698 84.8168 817.77 84.9497C817.774 84.983 817.774 85.0165 817.77 85.0498L819 88.3897C819.004 88.4229 819.004 88.4566 819 88.4897V88.6598C819 88.6598 819 88.6597 819 88.7397C818.972 88.8376 818.921 88.9269 818.85 88.9997H818.8L818.66 89.0597L817.76 89.3597C817.903 89.3107 818.059 89.3139 818.2 89.3688C818.341 89.4237 818.458 89.5268 818.53 89.6598C818.53 89.6598 818.53 89.7298 818.58 89.7598L819.68 93.1097C819.689 93.1424 819.689 93.1771 819.68 93.2097V93.2598C819.68 93.2598 819.68 93.3197 819.68 93.3497C819.68 93.3797 819.68 93.3497 819.68 93.4197C819.648 93.5155 819.597 93.6039 819.53 93.6797L819.4 93.7497L820.3 93.4497C820.441 93.4013 820.596 93.4049 820.735 93.4598C820.874 93.5148 820.989 93.6176 821.06 93.7497C821.063 93.783 821.063 93.8165 821.06 93.8497L822 97.5098C822.004 97.5429 822.004 97.5766 822 97.6097C822.005 97.6496 822.005 97.6899 822 97.7298C821.983 97.8471 821.934 97.9576 821.86 98.0498V98.0997L821.73 98.1697L819.6 98.8698C819.744 98.8215 819.901 98.8262 820.042 98.883C820.183 98.9398 820.299 99.045 820.37 99.1797C820.375 99.2128 820.375 99.2466 820.37 99.2797L821.48 102.62C821.489 102.676 821.489 102.733 821.48 102.79C821.49 102.826 821.49 102.864 821.48 102.9C821.489 102.953 821.489 103.007 821.48 103.06C821.48 103.06 821.48 103.06 821.48 103.11V103.17V103.22L821.39 103.31C821.352 103.34 821.307 103.36 821.26 103.37L822.18 103.07C822.323 103.021 822.479 103.024 822.62 103.079C822.761 103.134 822.878 103.237 822.95 103.37C822.954 103.403 822.954 103.437 822.95 103.47L824.06 106.82V106.92C824.07 106.979 824.07 107.04 824.06 107.1C824.038 107.232 823.97 107.352 823.87 107.44H823.82L823.7 107.5L821.96 108.07C822.104 108.024 822.26 108.029 822.401 108.086C822.541 108.142 822.658 108.246 822.73 108.38C822.735 108.413 822.735 108.447 822.73 108.48L823.84 111.82C823.844 111.856 823.844 111.893 823.84 111.93V112.03C823.844 112.049 823.844 112.07 823.84 112.09C823.826 112.17 823.795 112.247 823.75 112.316C823.706 112.385 823.648 112.444 823.58 112.49C823.542 112.52 823.497 112.54 823.45 112.55L818.56 114.17C818.25 114.1 817.94 114.02 817.63 113.92C817.32 113.82 816.8 113.66 816.4 113.51C815.125 113.017 813.916 112.368 812.8 111.58L812.28 111.2L811.79 110.8C810.731 109.924 809.79 108.916 808.99 107.8L808.68 107.34L808.38 106.88C807.724 105.808 807.193 104.663 806.8 103.47C806.74 103.3 806.69 103.13 806.64 102.96C806.59 102.79 806.54 102.62 806.5 102.45C806.177 101.218 805.999 99.9528 805.97 98.6797V98.1297C805.97 97.9397 805.97 97.7497 805.97 97.5597C806.038 96.1317 806.297 94.7192 806.74 93.3597C806.81 93.1497 806.88 92.9398 806.96 92.7298C807.04 92.5198 807.12 92.2998 807.21 92.0798C808 90.2207 809.129 88.5251 810.54 87.0798L810.78 86.8397C810.99 86.6297 811.21 86.4197 811.44 86.2197C811.67 86.0197 812.1 85.6597 812.44 85.3897L812.62 85.2697C813.973 84.2761 815.475 83.5032 817.07 82.9798L817.31 82.8997C817.956 82.8098 818.607 82.7564 819.26 82.7397Z" fill="#042b62"/>
</g>
<path d="M826.242 114.094C835.154 113.029 841.514 104.941 840.448 96.0295C839.382 87.1184 831.294 80.7585 822.383 81.8242C813.472 82.89 807.112 90.9778 808.178 99.8889C809.243 108.8 817.331 115.16 826.242 114.094Z" fill="#ccd5e0"/>
<g style="mix-blend-mode:multiply">
<path d="M836.714 99.1824C837.315 92.1 832.061 85.8713 824.979 85.2704C817.896 84.6694 811.668 89.9237 811.067 97.0062C810.466 104.089 815.72 110.317 822.802 110.918C829.885 111.519 836.114 106.265 836.714 99.1824Z" fill="#ccd5e0"/>
</g>
<g style="mix-blend-mode:color-burn">
<path d="M819.89 85.8797C819.65 85.9597 819.42 86.0397 819.2 86.1297C822.381 85.2533 825.777 85.6317 828.686 87.187C831.596 88.7422 833.797 91.3554 834.835 94.4869C835.874 97.6185 835.67 101.029 834.266 104.015C832.861 107 830.364 109.332 827.29 110.53C827.52 110.47 827.76 110.4 827.99 110.32C829.595 109.788 831.079 108.945 832.358 107.84C833.637 106.734 834.686 105.388 835.445 103.877C836.203 102.366 836.657 100.721 836.78 99.0344C836.903 97.3483 836.692 95.6545 836.16 94.0497C835.628 92.445 834.786 90.9607 833.68 89.6816C832.575 88.4026 831.228 87.3538 829.717 86.5951C828.206 85.8364 826.561 85.3828 824.875 85.2601C823.189 85.1373 821.495 85.3479 819.89 85.8797Z" fill="#ccd5e0"/>
</g>
<path d="M827.85 105.558C831.994 103.387 833.592 98.2677 831.42 94.1244C829.249 89.9812 824.13 88.3828 819.986 90.5543C815.843 92.7259 814.245 97.8451 816.416 101.988C818.588 106.132 823.707 107.73 827.85 105.558Z" fill="#ccd5e0"/>
<path d="M826.13 93.3599L825.74 92.1899L820.84 93.8099L818.96 94.4399L819.35 95.6099L821.23 94.9899C821.612 94.8633 822.024 94.8598 822.408 94.9801C822.792 95.1003 823.128 95.3381 823.37 95.6599L819.76 96.8499L820.15 98.0299L823.76 96.8299C823.756 97.2315 823.626 97.6216 823.389 97.9461C823.153 98.2705 822.821 98.513 822.44 98.6399L820.56 99.2699L820.95 100.44L821.33 100.32C821.903 100.127 822.518 100.092 823.11 100.22C824.803 100.631 826.291 101.639 827.3 103.06L828.53 102.65C827.453 101.012 825.858 99.7831 824 99.1599C824.374 98.8192 824.661 98.393 824.835 97.9176C825.009 97.4423 825.066 96.9319 825 96.4299L827 95.7799L826.62 94.5999L824.62 95.2499C824.369 94.8436 824.026 94.5012 823.62 94.2499L826.13 93.3599Z" fill="#042b62"/>
<g style="mix-blend-mode:multiply" opacity="0.5">
<path d="M1208.32 173L1208.04 173.21C1208.02 173.232 1208 173.249 1207.97 173.26H1207.9C1207.8 173.268 1207.7 173.251 1207.61 173.21L1207.54 173.13L1206.61 171.91C1206.68 171.998 1206.72 172.107 1206.72 172.22C1206.72 172.332 1206.68 172.441 1206.61 172.53L1206.55 172.58L1204.44 174.18H1204.37H1204.31H1204C1203.93 174.195 1203.85 174.195 1203.78 174.18L1203.7 174.1L1203.27 173.53C1203.35 173.615 1203.39 173.726 1203.39 173.84C1203.39 173.954 1203.35 174.064 1203.27 174.15H1203.21L1201.1 175.75H1201.03H1200.97H1200.88C1200.81 175.764 1200.73 175.764 1200.66 175.75C1200.63 175.728 1200.6 175.701 1200.58 175.67L1201.01 176.24C1201.08 176.326 1201.12 176.436 1201.12 176.55C1201.12 176.663 1201.08 176.773 1201.01 176.86H1200.95L1198.84 178.46H1198.77C1198.74 178.465 1198.72 178.465 1198.69 178.46C1198.6 178.485 1198.51 178.485 1198.43 178.46L1198.36 178.38L1197.36 177.04C1197.44 177.125 1197.48 177.236 1197.48 177.35C1197.48 177.464 1197.44 177.574 1197.36 177.66H1197.3L1195.19 179.26C1195.16 179.289 1195.12 179.31 1195.08 179.32H1195H1194.79H1194.74H1194.66L1194.59 179.25L1195.03 179.83C1195.1 179.918 1195.14 180.027 1195.14 180.14C1195.14 180.252 1195.1 180.361 1195.03 180.45C1195.01 180.472 1194.99 180.489 1194.96 180.5L1192.86 182.1H1192.79C1192.75 182.127 1192.71 182.144 1192.66 182.15C1192.56 182.169 1192.46 182.151 1192.37 182.1C1192.34 182.082 1192.31 182.058 1192.29 182.03L1191.46 180.93C1191.54 181.015 1191.58 181.126 1191.58 181.24C1191.58 181.354 1191.54 181.464 1191.46 181.55L1191.4 181.61L1189.29 183.21H1189.22H1189.15C1189.02 183.229 1188.9 183.2 1188.79 183.13C1188.76 183.108 1188.74 183.081 1188.72 183.05L1186.38 179.97C1186.38 179.73 1186.38 179.49 1186.38 179.25C1186.38 179.01 1186.38 178.6 1186.38 178.25C1186.42 177.232 1186.59 176.224 1186.88 175.25C1186.88 175.1 1186.97 174.94 1187.02 174.79C1187.07 174.64 1187.13 174.49 1187.19 174.34C1187.56 173.374 1188.05 172.459 1188.65 171.62L1188.9 171.29L1189.15 170.97C1189.74 170.228 1190.41 169.557 1191.15 168.97L1191.47 168.74L1191.8 168.51C1192.6 167.98 1193.45 167.547 1194.35 167.22L1194.75 167.09L1195.15 166.96C1196.18 166.665 1197.25 166.507 1198.32 166.49H1198.82H1199.35C1200.87 166.594 1202.36 166.981 1203.74 167.63L1203.96 167.74C1204.17 167.84 1204.37 167.95 1204.57 168.06C1204.77 168.17 1205.13 168.4 1205.4 168.58L1205.53 168.68C1206.57 169.401 1207.48 170.282 1208.24 171.29L1208.35 171.44C1208.38 171.96 1208.37 172.481 1208.32 173Z" fill="#042b62"/>
</g>
<path d="M1203.97 191.183C1210.04 188.264 1212.6 180.975 1209.68 174.902C1206.76 168.829 1199.47 166.272 1193.4 169.191C1187.33 172.109 1184.77 179.399 1187.69 185.471C1190.61 191.544 1197.9 194.101 1203.97 191.183Z" fill="#ccd5e0"/>
<g style="mix-blend-mode:multiply">
<path d="M1198.54 189.72C1203.88 189.72 1208.21 185.39 1208.21 180.05C1208.21 174.709 1203.88 170.38 1198.54 170.38C1193.2 170.38 1188.87 174.709 1188.87 180.05C1188.87 185.39 1193.2 189.72 1198.54 189.72Z" fill="#ccd5e0"/>
</g>
<g style="mix-blend-mode:color-burn">
<path d="M1206.24 174.2C1206.13 174.05 1206.01 173.91 1205.89 173.77C1207.3 175.816 1207.86 178.325 1207.47 180.777C1207.07 183.228 1205.75 185.433 1203.77 186.934C1201.79 188.436 1199.31 189.118 1196.85 188.84C1194.38 188.562 1192.11 187.344 1190.52 185.44L1190.84 185.89C1191.59 186.936 1192.55 187.82 1193.65 188.491C1194.75 189.161 1195.98 189.605 1197.25 189.796C1198.53 189.986 1199.83 189.919 1201.08 189.6C1202.33 189.28 1203.5 188.714 1204.53 187.934C1205.56 187.154 1206.42 186.177 1207.06 185.059C1207.7 183.942 1208.12 182.707 1208.28 181.428C1208.44 180.148 1208.34 178.849 1207.99 177.608C1207.64 176.367 1207.04 175.208 1206.24 174.2Z" fill="#ccd5e0"/>
</g>
<path d="M1203.2 184.486C1205.62 181.938 1205.51 177.912 1202.96 175.494C1200.41 173.077 1196.39 173.182 1193.97 175.73C1191.55 178.278 1191.66 182.303 1194.21 184.721C1196.75 187.139 1200.78 187.034 1203.2 184.486Z" fill="#ccd5e0"/>
<path d="M1202.44 180.46L1203.18 179.89L1200.84 176.8L1199.94 175.62L1199.2 176.18L1200.1 177.36C1200.27 177.607 1200.37 177.902 1200.37 178.205C1200.37 178.508 1200.27 178.803 1200.1 179.05L1198.37 176.77L1197.63 177.33L1199.36 179.61C1199.07 179.705 1198.76 179.708 1198.47 179.618C1198.19 179.529 1197.93 179.351 1197.75 179.11L1196.85 177.93L1196.11 178.49L1196.29 178.73C1196.57 179.091 1196.74 179.519 1196.8 179.97C1196.91 181.273 1196.56 182.574 1195.8 183.64L1196.39 184.41C1197.29 183.237 1197.77 181.791 1197.75 180.31C1198.08 180.496 1198.46 180.599 1198.84 180.61C1199.22 180.62 1199.6 180.538 1199.94 180.37L1200.88 181.61L1201.62 181.05L1200.68 179.81C1200.92 179.539 1201.1 179.213 1201.19 178.86L1202.44 180.46Z" fill="#042b62"/>
<path d="M595.52 143.59L592.09 138C591.961 137.778 591.923 137.515 591.982 137.266C592.042 137.016 592.195 136.799 592.41 136.66C592.633 136.528 592.898 136.488 593.15 136.547C593.401 136.607 593.62 136.762 593.76 136.98L596.18 140.98L602.63 137.17C602.847 137.097 603.082 137.1 603.296 137.18C603.511 137.259 603.691 137.41 603.808 137.606C603.925 137.802 603.971 138.033 603.939 138.259C603.906 138.486 603.797 138.694 603.63 138.85L595.52 143.59Z" fill="#ccd5e0"/>
<path d="M597.82 152.24C595.382 152.24 592.998 151.517 590.97 150.162C588.942 148.807 587.362 146.882 586.429 144.629C585.496 142.376 585.251 139.896 585.727 137.505C586.203 135.113 587.377 132.916 589.102 131.191C590.826 129.467 593.023 128.293 595.415 127.817C597.807 127.341 600.286 127.585 602.539 128.519C604.792 129.452 606.717 131.032 608.072 133.06C609.427 135.088 610.15 137.471 610.15 139.91C610.148 143.179 608.848 146.314 606.536 148.626C604.224 150.938 601.09 152.237 597.82 152.24ZM597.82 129.34C595.73 129.34 593.686 129.96 591.948 131.121C590.21 132.283 588.855 133.934 588.055 135.865C587.255 137.797 587.046 139.922 587.453 141.972C587.861 144.023 588.868 145.906 590.346 147.384C591.824 148.862 593.708 149.869 595.758 150.277C597.808 150.685 599.934 150.476 601.865 149.675C603.797 148.875 605.447 147.521 606.609 145.782C607.77 144.044 608.39 142.001 608.39 139.91C608.388 137.108 607.273 134.421 605.291 132.439C603.31 130.457 600.623 129.343 597.82 129.34Z" fill="#ccd5e0"/>
<path d="M659.55 74.5401L653.3 64.3001C653.137 64.1041 653.018 63.8754 652.951 63.6294C652.884 63.3834 652.871 63.126 652.912 62.8744C652.953 62.6228 653.048 62.383 653.19 62.1712C653.332 61.9594 653.517 61.7806 653.734 61.6468C653.951 61.5129 654.195 61.4273 654.448 61.3956C654.7 61.364 654.957 61.387 655.2 61.4632C655.444 61.5393 655.668 61.6669 655.858 61.8371C656.047 62.0074 656.198 62.2164 656.3 62.4501L660.72 69.6901L672.48 62.6901C672.682 62.5712 672.905 62.4933 673.136 62.4606C673.368 62.428 673.604 62.4413 673.831 62.4998C674.057 62.5583 674.27 62.6608 674.457 62.8016C674.644 62.9423 674.801 63.1185 674.92 63.3201C675.039 63.5217 675.117 63.7447 675.15 63.9764C675.182 64.2081 675.169 64.444 675.111 64.6706C675.052 64.8971 674.949 65.11 674.809 65.2969C674.668 65.4839 674.492 65.6413 674.29 65.7601L659.55 74.5401Z" fill="#ccd5e0"/>
<path d="M663.75 90.3301C659.299 90.3321 654.948 89.0139 651.246 86.5423C647.544 84.0708 644.659 80.5568 642.955 76.4451C641.251 72.3333 640.804 67.8085 641.672 63.443C642.54 59.0775 644.683 55.0675 647.83 51.9202C650.978 48.7729 654.988 46.6298 659.353 45.7619C663.719 44.8941 668.243 45.3405 672.355 47.0447C676.467 48.7489 679.981 51.6344 682.452 55.336C684.924 59.0376 686.242 63.3892 686.24 67.8401C686.232 73.8024 683.86 79.5182 679.644 83.7341C675.428 87.9501 669.712 90.3222 663.75 90.3301ZM663.75 48.5601C659.936 48.5542 656.205 49.6799 653.031 51.7948C649.856 53.9097 647.38 56.9187 645.916 60.4411C644.453 63.9636 644.067 67.8411 644.807 71.583C645.548 75.3249 647.381 78.7631 650.077 81.4625C652.772 84.1618 656.207 86.001 659.948 86.7474C663.689 87.4938 667.567 87.1137 671.091 85.6553C674.616 84.197 677.629 81.7258 679.749 78.5546C681.869 75.3834 683 71.6546 683 67.8401C682.995 62.7335 680.966 57.8372 677.358 54.2235C673.75 50.6098 668.857 48.5733 663.75 48.5601Z" fill="#ccd5e0"/>
<path d="M471.31 128.87L465.06 118.63C464.9 118.434 464.783 118.206 464.718 117.961C464.653 117.716 464.641 117.46 464.682 117.21C464.724 116.961 464.819 116.722 464.96 116.512C465.101 116.302 465.285 116.124 465.5 115.99C465.716 115.857 465.957 115.771 466.208 115.738C466.459 115.705 466.714 115.727 466.957 115.8C467.199 115.874 467.423 115.999 467.613 116.166C467.803 116.333 467.956 116.539 468.06 116.77L472.48 124.01L484.24 117.01C484.442 116.89 484.665 116.812 484.897 116.778C485.129 116.745 485.365 116.758 485.592 116.816C485.819 116.874 486.032 116.976 486.22 117.117C486.408 117.257 486.566 117.433 486.685 117.635C486.805 117.836 486.883 118.059 486.916 118.291C486.95 118.523 486.937 118.76 486.879 118.987C486.821 119.214 486.719 119.427 486.578 119.615C486.438 119.802 486.262 119.96 486.06 120.08L471.31 128.87Z" fill="#ccd5e0"/>
<path d="M475.51 144.65C471.061 144.65 466.713 143.331 463.015 140.86C459.316 138.388 456.434 134.876 454.731 130.766C453.029 126.657 452.584 122.135 453.452 117.772C454.319 113.41 456.461 109.402 459.607 106.257C462.752 103.112 466.759 100.97 471.122 100.102C475.485 99.2343 480.007 99.6797 484.116 101.382C488.226 103.084 491.738 105.967 494.209 109.665C496.681 113.364 498 117.712 498 122.16C497.992 128.122 495.62 133.838 491.404 138.054C487.188 142.27 481.472 144.642 475.51 144.65ZM475.51 102.88C471.696 102.88 467.969 104.011 464.798 106.129C461.628 108.248 459.156 111.259 457.697 114.782C456.238 118.305 455.856 122.181 456.6 125.921C457.344 129.661 459.18 133.097 461.877 135.793C464.573 138.489 468.008 140.326 471.748 141.069C475.488 141.813 479.365 141.432 482.888 139.972C486.411 138.513 489.422 136.042 491.54 132.871C493.659 129.701 494.79 125.973 494.79 122.16C494.784 117.048 492.751 112.147 489.137 108.533C485.522 104.918 480.621 102.885 475.51 102.88Z" fill="#ccd5e0"/>
<path d="M349.999 220.05L347.089 215.27C346.974 215.081 346.938 214.855 346.988 214.64C347.039 214.424 347.172 214.238 347.359 214.12C347.453 214.064 347.556 214.026 347.664 214.01C347.772 213.993 347.881 213.998 347.987 214.024C348.093 214.05 348.193 214.097 348.281 214.161C348.369 214.226 348.443 214.307 348.499 214.4L350.569 217.78L356.059 214.53C356.248 214.43 356.469 214.406 356.675 214.465C356.88 214.523 357.056 214.658 357.164 214.843C357.273 215.027 357.306 215.246 357.256 215.455C357.207 215.663 357.079 215.844 356.899 215.96L349.999 220.05Z" fill="#ccd5e0"/>
<path d="M352 227.41C349.923 227.41 347.893 226.794 346.167 225.64C344.44 224.486 343.094 222.846 342.299 220.928C341.505 219.009 341.297 216.898 341.702 214.861C342.107 212.824 343.107 210.954 344.575 209.485C346.044 208.017 347.915 207.017 349.952 206.611C351.988 206.206 354.1 206.414 356.018 207.209C357.937 208.004 359.577 209.349 360.73 211.076C361.884 212.803 362.5 214.833 362.5 216.91C362.497 219.694 361.39 222.363 359.422 224.331C357.453 226.3 354.784 227.407 352 227.41ZM352 207.92C350.22 207.92 348.48 208.448 347 209.436C345.52 210.425 344.366 211.831 343.685 213.476C343.004 215.12 342.826 216.93 343.173 218.675C343.52 220.421 344.377 222.025 345.636 223.284C346.895 224.542 348.498 225.399 350.244 225.747C351.99 226.094 353.8 225.916 355.444 225.235C357.089 224.553 358.494 223.4 359.483 221.92C360.472 220.44 361 218.7 361 216.92C361 214.533 360.052 212.244 358.364 210.556C356.676 208.868 354.387 207.92 352 207.92Z" fill="#ccd5e0"/>
<path d="M846.82 146.66C835.463 156.192 821.372 161.868 806.58 162.87C804.517 158.198 802.919 153.335 801.81 148.35C814.38 148.394 826.607 144.249 836.56 136.57C839.614 140.286 843.053 143.668 846.82 146.66Z" fill="#ccd5e0"/>
<path d="M845.46 146.64C834.555 155.505 821.203 160.829 807.19 161.9C805.4 157.802 803.962 153.56 802.89 149.22C815.049 149.037 826.836 144.996 836.55 137.68C839.237 140.934 842.22 143.934 845.46 146.64Z" fill="#042b62"/>
<path d="M833.87 143.28C833.365 143.591 832.804 143.799 832.218 143.89C831.633 143.981 831.035 143.954 830.46 143.81C824.884 146.844 818.857 148.964 812.61 150.09C812.292 150.632 811.847 151.09 811.315 151.424C810.782 151.759 810.176 151.96 809.55 152.01C808.08 152.2 806.55 152.34 805.06 152.43C805.7 154.5 806.43 156.57 807.26 158.62C808.87 158.48 810.47 158.28 812.03 158.04C813.523 157.817 815.049 158.011 816.44 158.6C823.366 157.09 830.01 154.498 836.13 150.92C836.425 149.804 837.142 148.847 838.13 148.25C839.55 147.317 840.916 146.34 842.23 145.32C840.64 143.82 839.13 142.26 837.72 140.65C836.47 141.57 835.2 142.45 833.87 143.28Z" fill="#ccd5e0"/>
<path d="M829.36 149.41C831.08 151.8 830.52 154.8 827.65 155.97C826.191 156.497 824.594 156.498 823.134 155.974C821.674 155.45 820.442 154.434 819.65 153.1C819.322 152.541 819.123 151.916 819.068 151.27C819.012 150.624 819.102 149.974 819.33 149.367C819.558 148.761 819.919 148.212 820.386 147.763C820.853 147.314 821.415 146.974 822.03 146.77C823.375 146.388 824.805 146.437 826.12 146.911C827.435 147.384 828.568 148.259 829.36 149.41Z" fill="#042b62"/>
<path d="M816.26 154.39C816.78 155.44 816.1 156.56 814.67 156.85C814.007 157.004 813.312 156.942 812.688 156.672C812.063 156.402 811.542 155.938 811.2 155.35C810.74 154.25 811.54 153.21 812.9 152.97C813.538 152.836 814.202 152.901 814.802 153.154C815.402 153.408 815.911 153.839 816.26 154.39Z" fill="#042b62"/>
<path d="M836.3 146C836.477 146.213 836.603 146.464 836.668 146.734C836.733 147.004 836.735 147.285 836.675 147.555C836.614 147.826 836.491 148.079 836.317 148.295C836.143 148.51 835.922 148.683 835.67 148.8C835.146 149.132 834.523 149.272 833.907 149.193C833.292 149.114 832.723 148.823 832.3 148.37C832.143 148.145 832.038 147.888 831.992 147.618C831.945 147.348 831.959 147.071 832.031 146.807C832.104 146.543 832.234 146.298 832.411 146.089C832.589 145.88 832.811 145.713 833.06 145.6C833.566 145.29 834.161 145.161 834.75 145.234C835.338 145.306 835.885 145.576 836.3 146Z" fill="#042b62"/>
<path d="M1227.41 106.07C1216.05 115.603 1201.96 121.276 1187.17 122.27C1185.11 117.601 1183.51 112.741 1182.39 107.76C1194.96 107.811 1207.19 103.673 1217.15 96C1220.21 99.7068 1223.65 103.082 1227.41 106.07Z" fill="#ccd5e0"/>
<path d="M1226.05 106C1215.15 114.872 1201.79 120.2 1187.78 121.27C1185.99 117.172 1184.55 112.93 1183.48 108.59C1195.64 108.407 1207.43 104.366 1217.14 97.0498C1219.83 100.301 1222.81 103.297 1226.05 106Z" fill="#042b62"/>
<path d="M1214.46 102.69C1213.96 103.002 1213.39 103.209 1212.81 103.3C1212.22 103.391 1211.63 103.364 1211.05 103.22C1205.48 106.255 1199.45 108.372 1193.2 109.49C1192.88 110.035 1192.44 110.495 1191.91 110.831C1191.37 111.167 1190.77 111.369 1190.14 111.42C1188.67 111.61 1187.14 111.75 1185.65 111.84C1186.32 113.907 1187.05 115.97 1187.85 118.03C1189.46 117.89 1191.06 117.69 1192.62 117.44C1194.11 117.22 1195.64 117.418 1197.03 118.01C1203.96 116.5 1210.6 113.909 1216.72 110.33C1217.01 109.213 1217.73 108.255 1218.72 107.66C1220.14 106.733 1221.51 105.757 1222.82 104.73C1221.23 103.22 1219.72 101.66 1218.31 100.06C1217.06 101 1215.79 101.85 1214.46 102.69Z" fill="#ccd5e0"/>
<path d="M1210 108.81C1211.72 111.21 1211.16 114.21 1208.29 115.38C1206.83 115.902 1205.23 115.902 1203.78 115.378C1202.32 114.855 1201.08 113.841 1200.29 112.51C1199.96 111.951 1199.76 111.325 1199.71 110.68C1199.65 110.034 1199.74 109.384 1199.97 108.777C1200.2 108.17 1200.56 107.622 1201.03 107.173C1201.49 106.723 1202.05 106.384 1202.67 106.18C1204.01 105.798 1205.44 105.847 1206.76 106.318C1208.07 106.79 1209.21 107.661 1210 108.81Z" fill="#042b62"/>
<path d="M1196.85 113.8C1197.37 114.8 1196.69 115.97 1195.26 116.26C1194.6 116.415 1193.9 116.351 1193.27 116.079C1192.65 115.807 1192.13 115.341 1191.79 114.75C1191.33 113.66 1192.13 112.62 1193.49 112.37C1194.13 112.24 1194.79 112.307 1195.39 112.562C1195.99 112.818 1196.5 113.249 1196.85 113.8Z" fill="#042b62"/>
<path d="M1216.89 105.41C1217.07 105.623 1217.19 105.874 1217.26 106.144C1217.32 106.414 1217.33 106.695 1217.26 106.965C1217.2 107.236 1217.08 107.489 1216.91 107.705C1216.73 107.921 1216.51 108.093 1216.26 108.21C1215.74 108.541 1215.11 108.679 1214.5 108.598C1213.88 108.518 1213.31 108.225 1212.89 107.77C1212.74 107.545 1212.63 107.29 1212.59 107.021C1212.54 106.752 1212.56 106.476 1212.63 106.213C1212.7 105.95 1212.83 105.706 1213.01 105.498C1213.18 105.291 1213.4 105.124 1213.65 105.01C1214.16 104.7 1214.75 104.571 1215.34 104.644C1215.93 104.716 1216.48 104.987 1216.89 105.41Z" fill="#042b62"/>
<path d="M1076.25 48.3698C1064.89 57.9036 1050.8 63.5772 1036 64.5698C1033.94 59.8953 1032.35 55.0326 1031.23 50.0498C1043.81 50.1035 1056.04 45.9617 1066 38.2798C1069.05 41.9934 1072.49 45.3754 1076.25 48.3698Z" fill="#ccd5e0"/>
<path d="M1074.9 48.3399C1064 57.2089 1050.64 62.5365 1036.63 63.6099C1034.84 59.5137 1033.4 55.2715 1032.33 50.9299C1044.49 50.7499 1056.29 46.7049 1066 39.3799C1068.68 42.6339 1071.66 45.6332 1074.9 48.3399Z" fill="#042b62"/>
<path d="M1063.3 45.0001C1062.79 45.3095 1062.23 45.5156 1061.65 45.6066C1061.06 45.6976 1060.46 45.6716 1059.89 45.5301C1054.3 48.5645 1048.26 50.6783 1042 51.7901C1041.69 52.3275 1041.26 52.7826 1040.73 53.1168C1040.21 53.451 1039.62 53.6545 1039 53.7101C1037.52 53.9101 1036 54.0501 1034.51 54.1401C1035.18 56.2134 1035.91 58.2768 1036.71 60.3301C1038.32 60.1801 1039.91 59.9901 1041.48 59.7401C1042.97 59.5161 1044.5 59.7135 1045.89 60.3101C1052.82 58.7986 1059.46 56.2069 1065.58 52.6301C1065.87 51.5102 1066.59 50.5498 1067.58 49.9601C1069 49.0268 1070.37 48.0468 1071.68 47.0201C1070.08 45.5201 1068.58 43.9634 1067.17 42.3501C1065.92 43.2701 1064.63 44.1534 1063.3 45.0001Z" fill="#ccd5e0"/>
<path d="M1058.79 51.1099C1060.52 53.5099 1059.95 56.5099 1057.08 57.6799C1055.62 58.2025 1054.02 58.202 1052.57 57.6785C1051.11 57.155 1049.87 56.141 1049.08 54.8099C1048.75 54.2504 1048.56 53.6253 1048.5 52.98C1048.45 52.3347 1048.54 51.6853 1048.77 51.0791C1048.99 50.4729 1049.35 49.9251 1049.82 49.4755C1050.29 49.0259 1050.85 48.6858 1051.46 48.4799C1052.8 48.0952 1054.23 48.1422 1055.55 48.6141C1056.86 49.0859 1058 49.959 1058.79 51.1099Z" fill="#042b62"/>
<path d="M1045.69 56.09C1046.22 57.09 1045.54 58.27 1044.1 58.56C1043.44 58.7092 1042.75 58.6433 1042.12 58.3717C1041.5 58.1001 1040.98 57.6371 1040.64 57.05C1040.18 55.96 1040.97 54.92 1042.34 54.67C1042.98 54.537 1043.64 54.6017 1044.24 54.8555C1044.84 55.1093 1045.34 55.54 1045.69 56.09Z" fill="#042b62"/>
<path d="M1065.74 47.6998C1065.92 47.9139 1066.04 48.1657 1066.11 48.4361C1066.17 48.7065 1066.18 48.9881 1066.11 49.2594C1066.05 49.5307 1065.93 49.7845 1065.76 50.0013C1065.58 50.218 1065.36 50.392 1065.11 50.5098C1064.59 50.8411 1063.96 50.9785 1063.35 50.8982C1062.73 50.8178 1062.16 50.5248 1061.74 50.0698C1061.58 49.8457 1061.48 49.5898 1061.43 49.3205C1061.39 49.0511 1061.4 48.7748 1061.47 48.5113C1061.54 48.2478 1061.67 48.0035 1061.85 47.7959C1062.03 47.5882 1062.25 47.4222 1062.5 47.3098C1063.01 47.0022 1063.6 46.8735 1064.19 46.9442C1064.78 47.0149 1065.32 47.281 1065.74 47.6998Z" fill="#042b62"/>
<path d="M758.81 201.87C747.456 211.406 733.364 217.083 718.57 218.08C716.508 213.407 714.907 208.544 713.79 203.56C726.365 203.61 738.597 199.465 748.55 191.78C751.601 195.498 755.041 198.881 758.81 201.87Z" fill="#ccd5e0"/>
<path d="M757.45 201.85C746.543 210.714 733.193 216.041 719.18 217.12C717.393 213.022 715.955 208.78 714.88 204.44C727.04 204.254 738.827 200.209 748.54 192.89C751.227 196.145 754.21 199.144 757.45 201.85Z" fill="#042b62"/>
<path d="M745.86 198.49C745.356 198.801 744.794 199.009 744.208 199.1C743.623 199.191 743.025 199.164 742.45 199.02C736.876 202.058 730.848 204.179 724.6 205.3C724.283 205.844 723.839 206.302 723.306 206.637C722.773 206.971 722.167 207.171 721.54 207.22C720.07 207.41 718.54 207.55 717.05 207.64C717.69 209.71 718.42 211.78 719.25 213.83C720.86 213.69 722.46 213.5 724.02 213.25C725.514 213.025 727.042 213.222 728.43 213.82C735.356 212.307 742.001 209.712 748.12 206.13C748.413 205.016 749.131 204.06 750.12 203.47C751.54 202.53 752.906 201.55 754.22 200.53C752.63 199.03 751.12 197.47 749.71 195.86C748.46 196.78 747.19 197.66 745.86 198.49Z" fill="#ccd5e0"/>
<path d="M741.35 204.62C743.07 207.02 742.51 210.02 739.64 211.19C738.179 211.714 736.582 211.713 735.122 211.187C733.663 210.662 732.431 209.644 731.64 208.31C731.315 207.753 731.118 207.131 731.064 206.488C731.009 205.846 731.098 205.199 731.323 204.595C731.549 203.992 731.907 203.445 732.37 202.997C732.832 202.548 733.389 202.207 734 202C735.345 201.614 736.777 201.66 738.096 202.13C739.414 202.6 740.552 203.47 741.35 204.62Z" fill="#042b62"/>
<path d="M728.25 209.6C728.77 210.65 728.09 211.78 726.66 212.06C725.997 212.214 725.303 212.152 724.678 211.882C724.053 211.612 723.532 211.149 723.19 210.56C722.73 209.47 723.53 208.42 724.89 208.18C725.528 208.048 726.191 208.113 726.791 208.367C727.392 208.62 727.9 209.05 728.25 209.6Z" fill="#042b62"/>
<path d="M748.29 201.21C748.467 201.423 748.594 201.674 748.658 201.944C748.723 202.214 748.726 202.495 748.665 202.765C748.604 203.036 748.482 203.289 748.307 203.505C748.133 203.721 747.912 203.893 747.66 204.01C747.137 204.345 746.513 204.485 745.897 204.406C745.281 204.328 744.712 204.035 744.29 203.58C744.135 203.355 744.032 203.098 743.986 202.828C743.941 202.559 743.955 202.282 744.027 202.019C744.099 201.755 744.228 201.51 744.405 201.301C744.582 201.093 744.802 200.925 745.05 200.81C745.556 200.502 746.152 200.374 746.74 200.447C747.328 200.519 747.874 200.788 748.29 201.21Z" fill="#042b62"/>
<path d="M1097.26 179.7C1100.26 167.01 1115.52 157.37 1134.05 161.22C1137.41 165.569 1139.99 170.473 1141.66 175.71C1126.88 169.2 1113.66 176.01 1111.76 186.12C1107.4 183.035 1102.47 180.852 1097.26 179.7Z" fill="#ccd5e0"/>
<path d="M1098.6 179.2C1101.89 167.38 1116.21 158.57 1133.6 161.93C1136.52 165.751 1138.83 169.997 1140.46 174.52C1126.15 168.92 1113.55 175.36 1111.24 185.01C1107.39 182.361 1103.12 180.396 1098.6 179.2Z" fill="#042b62"/>
<path d="M1110.83 178.72C1111.13 178.282 1111.53 177.925 1112 177.681C1112.48 177.437 1113 177.313 1113.53 177.32C1117.17 173.32 1123.04 170.81 1129.95 170.93C1130.37 170.22 1131.43 169.78 1133.02 169.99C1134.66 170.2 1136.28 170.534 1137.87 170.99C1136.86 168.867 1135.69 166.825 1134.37 164.88C1132.61 164.529 1130.84 164.305 1129.05 164.21C1127.25 164.094 1125.48 163.703 1123.8 163.05C1115.91 163.75 1109.31 167.14 1105.15 171.99C1105.29 172.518 1105.32 173.07 1105.22 173.609C1105.13 174.148 1104.92 174.66 1104.61 175.11C1103.77 176.425 1103.08 177.831 1102.55 179.3C1104.79 180.147 1106.95 181.191 1109 182.42C1109.45 181.114 1110.07 179.871 1110.83 178.72Z" fill="#ccd5e0"/>
<path d="M1112.66 171.92C1110.06 170.04 1109.16 167.05 1111.92 165.61C1114.68 164.17 1119.62 165.37 1121.79 167.77C1123.96 170.17 1123.02 172.33 1120.71 173.28C1119.36 173.745 1117.92 173.865 1116.51 173.627C1115.1 173.389 1113.78 172.802 1112.66 171.92Z" fill="#042b62"/>
<path d="M1125.16 166.83C1124.33 165.83 1124.78 164.92 1126.34 164.83C1127.15 164.823 1127.95 164.991 1128.69 165.323C1129.43 165.654 1130.09 166.141 1130.62 166.75C1131.35 167.8 1130.62 168.49 1129.18 168.46C1127.68 168.437 1126.25 167.855 1125.16 166.83Z" fill="#042b62"/>
<path d="M1107.48 176.8C1107.22 176.685 1106.99 176.514 1106.8 176.298C1106.61 176.082 1106.48 175.828 1106.4 175.553C1106.33 175.278 1106.31 174.99 1106.36 174.709C1106.41 174.428 1106.52 174.162 1106.69 173.93C1107.13 173.464 1107.71 173.165 1108.35 173.087C1108.98 173.008 1109.62 173.154 1110.16 173.5C1110.39 173.639 1110.59 173.827 1110.74 174.051C1110.89 174.275 1110.99 174.529 1111.03 174.795C1111.07 175.061 1111.05 175.332 1110.97 175.591C1110.9 175.849 1110.77 176.088 1110.59 176.29C1110.21 176.726 1109.7 177.015 1109.13 177.108C1108.56 177.202 1107.98 177.093 1107.48 176.8Z" fill="#042b62"/>
<path d="M816.14 268.94C819.133 260.853 822.08 252.747 824.98 244.62C828.535 245.897 832.424 245.897 835.98 244.62C838.873 252.747 841.73 260.887 844.55 269.04C835.353 272.295 825.313 272.259 816.14 268.94Z" fill="#ccd5e0"/>
<path d="M818 269C820.527 261.127 823.02 253.247 825.48 245.36C828.736 246.376 832.224 246.376 835.48 245.36C837.92 253.26 840.323 261.167 842.69 269.08C834.64 271.545 826.033 271.517 818 269Z" fill="#042b62"/>
<path d="M836.059 266.4C835.939 265.54 836.679 264.66 837.859 263.86C836.999 259.707 836.123 255.553 835.229 251.4C834.767 251.274 834.351 251.019 834.028 250.665C833.706 250.311 833.491 249.872 833.409 249.4L833.019 246.69C831.305 246.94 829.564 246.94 827.849 246.69C827.709 247.59 827.569 248.5 827.439 249.4C827.354 249.853 827.144 250.273 826.833 250.614C826.522 250.955 826.123 251.203 825.679 251.33C824.759 255.51 823.833 259.687 822.899 263.86C823.999 264.65 824.689 265.51 824.559 266.34C824.379 267.43 824.199 268.52 824.009 269.61C828.155 270.27 832.378 270.29 836.529 269.67C836.369 268.59 836.209 267.49 836.059 266.4Z" fill="#ccd5e0"/>
<path d="M830.4 261.84C825.81 261.84 822.63 259.33 823.18 257.59C823.73 255.85 826.94 255.2 830.44 255.18C833.94 255.16 837.14 255.84 837.67 257.61C838.2 259.38 835 261.86 830.4 261.84Z" fill="#042b62"/>
<path d="M830 252.93C828.72 252.93 827.78 252.08 827.9 251.23C828.08 250.807 828.382 250.447 828.768 250.198C829.154 249.948 829.606 249.82 830.065 249.83C830.525 249.839 830.971 249.986 831.346 250.252C831.721 250.518 832.008 250.89 832.17 251.32C832.24 252.17 831.27 253 830 252.93Z" fill="#042b62"/>
<path d="M829.64 266.92C827.64 266.92 826.08 265.97 826.2 265.13C826.32 264.29 827.89 263.79 829.72 263.82C831.55 263.85 833.09 264.42 833.17 265.28C833.25 266.14 831.66 267 829.64 266.92Z" fill="#042b62"/>
<path d="M920.36 229C921.36 239.79 914.54 253 900.47 260.21C892.219 257.753 884.814 253.051 879.08 246.63C894.49 247.4 905.76 238.83 909.08 229.36C912.781 230.457 916.737 230.33 920.36 229Z" fill="#ccd5e0"/>
<path d="M919.64 229.89C920.01 240.27 913.18 252.53 899.82 259.25C892.736 256.988 886.308 253.038 881.09 247.74C895.7 247.61 906.21 239.26 909.45 230.1C912.799 230.987 916.33 230.914 919.64 229.89Z" fill="#042b62"/>
<path d="M910 235.24C909.725 235.745 909.352 236.191 908.902 236.55C908.452 236.909 907.934 237.174 907.38 237.33C903.734 242.263 898.668 245.965 892.86 247.94C893.13 248.94 892.63 249.82 891.19 250.25C889.705 250.698 888.191 251.049 886.66 251.3C889.495 253.458 892.581 255.264 895.85 256.68C897.308 256.098 898.731 255.43 900.11 254.68C901.725 253.904 903.466 253.426 905.25 253.27C910.411 249.481 914.352 244.268 916.59 238.27C916.304 237.91 916.116 237.483 916.044 237.029C915.972 236.575 916.019 236.11 916.18 235.68C916.565 234.322 916.833 232.933 916.98 231.53C915.176 231.785 913.345 231.785 911.54 231.53C911.136 232.809 910.621 234.051 910 235.24Z" fill="#ccd5e0"/>
<path d="M909.8 241.41C912.99 241.91 914.99 243.61 913.49 245.93C911.99 248.25 906.93 249.64 903.06 248.29C899.19 246.94 898.53 244.29 900.68 242.87C902.83 241.45 906.57 240.94 909.8 241.41Z" fill="#042b62"/>
<path d="M900.729 250.46C902.269 251.03 902.729 252.05 901.529 252.81C900.709 253.192 899.814 253.39 898.909 253.39C898.004 253.39 897.11 253.192 896.289 252.81C894.649 252.03 894.489 250.92 895.749 250.38C897.371 249.847 899.125 249.875 900.729 250.46Z" fill="#042b62"/>
<path d="M913.39 235.5C913.625 235.482 913.861 235.526 914.073 235.628C914.286 235.73 914.468 235.886 914.601 236.081C914.734 236.276 914.813 236.502 914.83 236.737C914.848 236.972 914.803 237.208 914.7 237.42C914.435 237.982 914.007 238.451 913.472 238.766C912.937 239.082 912.32 239.23 911.7 239.19C911.458 239.197 911.218 239.136 911.009 239.013C910.8 238.891 910.629 238.713 910.515 238.499C910.402 238.284 910.351 238.043 910.367 237.801C910.384 237.559 910.468 237.327 910.61 237.13C910.896 236.644 911.302 236.239 911.788 235.954C912.275 235.669 912.826 235.512 913.39 235.5Z" fill="#042b62"/>
<path d="M673.63 120C674.63 130.78 667.8 144 653.74 151.2C645.489 148.743 638.083 144.041 632.35 137.62C647.76 138.39 659.02 129.83 662.35 120.35C666.05 121.446 670.004 121.323 673.63 120Z" fill="#ccd5e0"/>
<path d="M672.909 121C673.269 131.38 666.449 143.63 653.089 150.35C646.006 148.088 639.578 144.138 634.359 138.84C648.969 138.71 659.479 130.36 662.709 121.2C666.062 122.085 669.594 122.016 672.909 121Z" fill="#042b62"/>
<path d="M663.23 126.29C662.953 126.794 662.579 127.239 662.13 127.598C661.68 127.957 661.163 128.222 660.61 128.38C656.964 133.315 651.898 137.02 646.09 139C646.35 140 645.86 140.88 644.42 141.32C642.931 141.757 641.419 142.108 639.89 142.37C642.729 144.521 645.814 146.326 649.08 147.75C650.537 147.147 651.959 146.463 653.34 145.7C654.955 144.927 656.696 144.449 658.48 144.29C663.648 140.488 667.59 135.256 669.82 129.24C669.533 128.88 669.345 128.453 669.273 127.999C669.201 127.545 669.248 127.08 669.41 126.65C669.79 125.294 670.057 123.909 670.21 122.51C668.405 122.765 666.574 122.765 664.77 122.51C664.365 123.812 663.85 125.076 663.23 126.29Z" fill="#ccd5e0"/>
<path d="M663.07 132.47C666.26 132.96 668.26 134.67 666.76 136.98C665.26 139.29 660.2 140.69 656.33 139.34C652.46 137.99 651.79 135.34 653.94 133.92C656.09 132.5 659.84 132 663.07 132.47Z" fill="#042b62"/>
<path d="M654 141.51C655.54 142.08 656 143.1 654.79 143.86C653.972 144.244 653.079 144.443 652.175 144.443C651.271 144.443 650.378 144.244 649.56 143.86C647.92 143.08 647.76 141.97 649.02 141.43C650.643 140.902 652.395 140.93 654 141.51Z" fill="#042b62"/>
<path d="M666.649 126.56C666.884 126.541 667.119 126.584 667.332 126.685C667.545 126.785 667.727 126.94 667.861 127.134C667.995 127.327 668.075 127.553 668.094 127.787C668.113 128.022 668.07 128.258 667.969 128.47C667.705 129.033 667.278 129.502 666.743 129.818C666.207 130.134 665.589 130.281 664.969 130.24C664.727 130.247 664.488 130.186 664.278 130.063C664.069 129.941 663.898 129.763 663.785 129.549C663.671 129.334 663.62 129.093 663.637 128.851C663.654 128.609 663.738 128.377 663.879 128.18C664.162 127.694 664.566 127.29 665.051 127.006C665.537 126.722 666.087 126.568 666.649 126.56Z" fill="#042b62"/>
<path d="M1286.21 104C1273.8 103.77 1264.52 110.34 1261.06 118C1257.06 116.468 1252.64 116.468 1248.64 118C1247.97 108.82 1253.08 97.8801 1263.83 90.8301C1272.51 92.6929 1280.36 97.3124 1286.21 104Z" fill="#ccd5e0"/>
<path d="M1284.37 102.81C1272.61 103.32 1263.95 109.81 1260.63 117.27C1257.02 116.018 1253.11 115.962 1249.47 117.11C1249.32 108.3 1254.47 98.1101 1264.78 91.6201C1272.23 93.4316 1279.02 97.3104 1284.37 102.81Z" fill="#042b62"/>
<path d="M1265.28 96.2401C1263.94 96.9835 1262.46 97.4399 1260.93 97.5801C1257 101.057 1254.06 105.506 1252.39 110.48C1252.77 110.703 1253.07 111.052 1253.22 111.467C1253.38 111.883 1253.39 112.339 1253.25 112.76C1252.99 113.703 1252.79 114.662 1252.66 115.63C1254.56 115.411 1256.47 115.481 1258.35 115.84C1258.68 114.956 1259.07 114.092 1259.5 113.25C1259.77 112.806 1260.14 112.429 1260.58 112.148C1261.02 111.868 1261.52 111.69 1262.04 111.63C1265.07 107.581 1269.18 104.464 1273.9 102.63C1273.81 102.435 1273.77 102.223 1273.78 102.009C1273.78 101.796 1273.83 101.586 1273.93 101.395C1274.02 101.203 1274.16 101.036 1274.33 100.904C1274.5 100.772 1274.69 100.678 1274.9 100.63C1276.32 100.122 1277.78 99.7106 1279.26 99.4001C1276.21 97.0859 1272.84 95.2235 1269.26 93.8701C1267.88 94.5739 1266.55 95.3655 1265.28 96.2401Z" fill="#ccd5e0"/>
<path d="M1264.83 101.6C1268.89 102.99 1269.96 105.6 1268.17 106.79C1266.38 107.98 1262.77 107.96 1259.34 107.39C1255.91 106.82 1253.54 105.46 1254.7 103.48C1255.86 101.5 1260.76 100.2 1264.83 101.6Z" fill="#042b62"/>
<path d="M1258.43 109.6C1259.69 109.8 1260.21 110.69 1259.73 111.47C1259.41 111.894 1258.97 112.225 1258.48 112.427C1257.99 112.629 1257.45 112.696 1256.92 112.62C1255.8 112.5 1255.06 111.8 1255.41 110.92C1255.72 110.418 1256.17 110.023 1256.71 109.787C1257.25 109.551 1257.85 109.486 1258.43 109.6Z" fill="#042b62"/>
<path d="M1271 98.2999C1272.67 99.1099 1273.06 100.22 1272 100.68C1270.47 101.078 1268.85 100.952 1267.4 100.32C1265.82 99.6999 1265.17 98.7599 1266.1 98.1099C1267.03 97.4599 1269.33 97.4899 1271 98.2999Z" fill="#042b62"/>
<path d="M1128.69 246.21C1132.75 238.67 1132.18 226.09 1122.48 216.21C1127.88 215.389 1133.39 215.706 1138.66 217.14C1146.02 231.23 1143.66 246.09 1136.66 254.92C1134.84 251.351 1132.08 248.342 1128.69 246.21Z" fill="#ccd5e0"/>
<path d="M1129.51 246.08C1133.35 238.57 1132.84 226.53 1124.01 216.69C1128.73 216.154 1133.5 216.493 1138.1 217.69C1144.94 230.98 1143.02 244.96 1136.7 253.59C1134.92 250.563 1132.46 247.991 1129.51 246.08Z" fill="#042b62"/>
<path d="M1137.54 246.78C1137.67 246.346 1137.91 245.95 1138.23 245.623C1138.54 245.296 1138.93 245.049 1139.36 244.9C1141.22 238.844 1141.33 232.383 1139.66 226.27C1138.57 225.092 1137.68 223.74 1137.04 222.27C1136.46 220.845 1135.79 219.455 1135.04 218.11C1132.78 217.685 1130.49 217.467 1128.19 217.46C1129.04 218.623 1129.81 219.839 1130.51 221.1C1130.81 221.507 1130.98 221.993 1131 222.497C1131.02 223 1130.89 223.499 1130.63 223.93C1133.02 229.04 1133.81 234.755 1132.88 240.32C1133.34 241.217 1133.45 242.257 1133.18 243.23C1132.82 244.426 1132.36 245.59 1131.81 246.71C1133.23 247.828 1134.52 249.11 1135.65 250.53C1136.37 249.33 1137.01 248.077 1137.54 246.78Z" fill="#ccd5e0"/>
<path d="M1136.84 238.71C1135.72 238.032 1134.75 237.132 1133.99 236.064C1133.23 234.995 1132.69 233.783 1132.42 232.5C1132.1 230.2 1133.67 228.58 1136.42 229.5C1139.17 230.42 1141.64 234.02 1141.42 236.79C1141.2 239.56 1139.09 240.1 1136.84 238.71Z" fill="#042b62"/>
<path d="M1135.23 226.17C1134.61 225.945 1134.04 225.598 1133.55 225.15C1133.06 224.702 1132.67 224.161 1132.39 223.56C1131.88 222.39 1132.31 221.56 1133.5 221.74C1134.18 221.928 1134.81 222.274 1135.33 222.75C1135.85 223.226 1136.25 223.819 1136.5 224.48C1137 225.76 1136.33 226.48 1135.23 226.17Z" fill="#042b62"/>
<path d="M1135.12 244.77C1134.74 244.423 1134.45 243.982 1134.3 243.49C1134.14 242.998 1134.12 242.474 1134.23 241.97C1134.46 240.97 1135.29 240.51 1136.14 241.06C1136.58 241.406 1136.91 241.875 1137.09 242.409C1137.27 242.943 1137.29 243.517 1137.14 244.06C1137.11 244.282 1137.03 244.492 1136.89 244.667C1136.75 244.841 1136.56 244.973 1136.35 245.047C1136.14 245.121 1135.91 245.135 1135.7 245.086C1135.48 245.037 1135.28 244.927 1135.12 244.77Z" fill="#042b62"/>
<path d="M1253.42 252.24C1250.37 241.4 1245.01 233.03 1238.49 227.82C1245.5 223.269 1253.23 219.957 1261.36 218.03C1265.52 228.48 1267.28 241.36 1265.71 255.7C1261.79 254.001 1257.65 252.837 1253.42 252.24Z" fill="#ccd5e0"/>
<path d="M1254 251.66C1251.21 241.12 1246.25 232.82 1240.13 227.38C1246.32 223.624 1253.04 220.819 1260.07 219.06C1264.16 228.89 1266.07 240.98 1265.07 254.5C1261.51 253.119 1257.79 252.165 1254 251.66Z" fill="#042b62"/>
<path d="M1262.16 247.31C1262.09 246.75 1262.16 246.182 1262.35 245.652C1262.54 245.122 1262.86 244.645 1263.27 244.26C1262.83 238.304 1261.66 232.426 1259.77 226.76C1259.1 226.639 1258.47 226.38 1257.91 225.999C1257.36 225.618 1256.88 225.125 1256.53 224.55C1256.07 223.5 1255.53 222.48 1255.07 221.49C1251.74 222.552 1248.5 223.859 1245.36 225.4C1245.99 226.15 1246.59 226.94 1247.19 227.76C1247.79 228.58 1247.49 229.59 1246.7 230.53C1249.61 234.674 1251.9 239.218 1253.5 244.02C1254.51 244.596 1255.25 245.544 1255.56 246.66C1255.92 248.08 1256.25 249.55 1256.56 251.05C1258.53 251.36 1260.48 251.795 1262.4 252.35C1262.36 250.64 1262.29 249 1262.16 247.31Z" fill="#ccd5e0"/>
<path d="M1257.49 240.18C1254.1 240.29 1250.67 239.09 1249.62 237.27C1248.57 235.45 1250.72 232.95 1254.76 232.01C1258.8 231.07 1262.76 232.77 1263.11 235.42C1263.46 238.07 1260.86 240.05 1257.49 240.18Z" fill="#042b62"/>
<path d="M1253.06 229.64C1251.46 230.07 1249.8 229.8 1249.27 228.99C1248.74 228.18 1249.63 226.99 1251.27 226.39C1252.91 225.79 1254.75 226.14 1255.17 227.12C1255.59 228.1 1254.65 229.2 1253.06 229.64Z" fill="#042b62"/>
<path d="M1258.5 247C1257.91 246.911 1257.36 246.66 1256.91 246.275C1256.46 245.89 1256.12 245.386 1255.94 244.82C1255.87 244.569 1255.86 244.305 1255.92 244.05C1255.98 243.796 1256.1 243.56 1256.27 243.362C1256.44 243.165 1256.65 243.012 1256.9 242.917C1257.14 242.823 1257.4 242.789 1257.66 242.82C1258.29 242.822 1258.9 243.046 1259.38 243.452C1259.86 243.858 1260.18 244.42 1260.29 245.04C1260.35 245.294 1260.34 245.558 1260.27 245.81C1260.21 246.062 1260.08 246.294 1259.9 246.486C1259.73 246.678 1259.51 246.826 1259.27 246.915C1259.02 247.005 1258.76 247.034 1258.5 247Z" fill="#042b62"/>
<path d="M570.09 218.84C573.09 206.15 588.36 196.5 606.88 200.35C610.238 204.702 612.813 209.605 614.49 214.84C599.71 208.34 586.49 215.15 584.59 225.26C580.235 222.171 575.304 219.988 570.09 218.84Z" fill="#ccd5e0"/>
<path d="M571.43 218.34C574.72 206.52 589.04 197.7 606.43 201.06C609.342 204.884 611.656 209.129 613.29 213.65C598.98 208.06 586.38 214.5 584.07 224.15C580.224 221.497 575.947 219.531 571.43 218.34Z" fill="#042b62"/>
<path d="M583.66 217.86C583.96 217.422 584.363 217.065 584.834 216.821C585.305 216.577 585.829 216.453 586.36 216.46C590 212.46 595.87 209.95 602.78 210.07C603.2 209.36 604.27 208.92 605.85 209.13C607.49 209.34 609.111 209.674 610.7 210.13C609.688 208.005 608.518 205.96 607.2 204.01C605.444 203.667 603.666 203.447 601.88 203.35C600.082 203.225 598.313 202.834 596.63 202.19C588.74 202.88 582.14 206.28 577.98 211.13C578.123 211.657 578.15 212.21 578.058 212.748C577.967 213.287 577.759 213.799 577.45 214.25C576.6 215.562 575.905 216.968 575.38 218.44C577.618 219.287 579.777 220.331 581.83 221.56C582.279 220.253 582.894 219.01 583.66 217.86Z" fill="#ccd5e0"/>
<path d="M585.49 211.06C582.89 209.18 581.99 206.19 584.75 204.75C587.51 203.31 592.45 204.51 594.62 206.9C596.79 209.29 595.85 211.47 593.54 212.42C592.191 212.885 590.748 213.004 589.341 212.767C587.935 212.529 586.61 211.942 585.49 211.06Z" fill="#042b62"/>
<path d="M598 206C597.16 205 597.61 204.09 599.17 204C599.979 203.993 600.781 204.161 601.519 204.493C602.258 204.824 602.916 205.311 603.45 205.92C604.18 206.97 603.45 207.65 602.02 207.63C600.522 207.614 599.086 207.031 598 206Z" fill="#042b62"/>
<path d="M580.32 215.94C580.057 215.826 579.822 215.655 579.634 215.439C579.445 215.223 579.308 214.968 579.231 214.691C579.154 214.415 579.141 214.125 579.191 213.843C579.24 213.561 579.353 213.293 579.52 213.06C579.959 212.597 580.546 212.302 581.179 212.225C581.813 212.148 582.453 212.295 582.99 212.64C583.22 212.779 583.417 212.967 583.567 213.191C583.717 213.415 583.816 213.669 583.857 213.935C583.898 214.201 583.88 214.472 583.804 214.731C583.729 214.989 583.598 215.228 583.42 215.43C583.045 215.865 582.529 216.154 581.962 216.247C581.396 216.341 580.814 216.232 580.32 215.94Z" fill="#042b62"/>
<path d="M361 180.75C364 168.06 379.27 158.41 397.79 162.26C401.148 166.612 403.723 171.515 405.4 176.75C390.62 170.25 377.4 177.06 375.5 187.17C371.145 184.081 366.214 181.898 361 180.75Z" fill="#ccd5e0"/>
<path d="M362.34 180.25C365.63 168.43 379.95 159.61 397.34 162.97C400.255 166.796 402.568 171.045 404.2 175.57C389.89 169.97 377.29 176.41 374.98 186.06C371.134 183.407 366.857 181.441 362.34 180.25Z" fill="#042b62"/>
<path d="M374.57 179.77C374.87 179.332 375.273 178.975 375.744 178.731C376.215 178.487 376.739 178.363 377.27 178.37C380.91 174.37 386.78 171.86 393.69 171.98C394.11 171.27 395.17 170.83 396.76 171.04C398.4 171.25 400.021 171.584 401.61 172.04C400.598 169.915 399.428 167.87 398.11 165.92C396.354 165.577 394.577 165.357 392.79 165.26C390.992 165.135 389.223 164.744 387.54 164.1C379.65 164.79 373.05 168.19 368.89 173.04C369.034 173.568 369.06 174.121 368.966 174.66C368.873 175.199 368.663 175.711 368.35 176.16C367.507 177.474 366.816 178.88 366.29 180.35C368.528 181.197 370.687 182.241 372.74 183.47C373.189 182.164 373.804 180.92 374.57 179.77Z" fill="#ccd5e0"/>
<path d="M376.4 173C373.8 171.12 372.9 168.13 375.66 166.69C378.42 165.25 383.36 166.45 385.53 168.84C387.7 171.23 386.76 173.41 384.45 174.36C383.101 174.825 381.658 174.944 380.251 174.707C378.845 174.469 377.521 173.882 376.4 173Z" fill="#042b62"/>
<path d="M388.9 167.88C388.07 166.88 388.52 165.97 390.08 165.88C390.889 165.874 391.691 166.042 392.429 166.373C393.168 166.704 393.826 167.191 394.36 167.8C395.09 168.8 394.36 169.53 392.93 169.51C391.43 169.49 389.992 168.908 388.9 167.88Z" fill="#042b62"/>
<path d="M371.23 177.85C370.967 177.736 370.732 177.565 370.544 177.349C370.356 177.133 370.218 176.877 370.141 176.601C370.065 176.325 370.051 176.035 370.101 175.753C370.151 175.47 370.263 175.203 370.43 174.97C370.869 174.507 371.456 174.211 372.089 174.135C372.723 174.058 373.363 174.205 373.9 174.55C374.13 174.689 374.327 174.877 374.477 175.101C374.627 175.324 374.726 175.578 374.767 175.844C374.808 176.11 374.79 176.382 374.714 176.641C374.639 176.899 374.508 177.138 374.33 177.34C373.955 177.775 373.439 178.064 372.872 178.157C372.306 178.25 371.725 178.142 371.23 177.85Z" fill="#042b62"/>
<path d="M1111.63 141.38C1101.74 149.54 1091.84 155.29 1086.07 152.75C1085.72 152.605 1085.39 152.427 1085.07 152.22C1081.71 149.98 1080.12 144.22 1081.37 133.48C1084.7 104.87 1102.02 98.94 1117.86 89.11C1133.5 79.42 1125.86 62.11 1125.62 61.71C1151.48 99.83 1128.4 127.52 1111.63 141.38Z" fill="url(#paint0_linear_32_2795)"/>
<path d="M1086.07 152.75C1085.72 152.605 1085.39 152.427 1085.07 152.22C1086.71 146.58 1090.44 135.61 1096.24 129.37C1099.2 126.33 1102.34 123.468 1105.64 120.8C1112.11 115.35 1118.81 109.7 1123 101.8L1123.94 102.3C1119.65 110.3 1112.88 116.05 1106.32 121.58C1103.05 124.213 1099.95 127.041 1097.02 130.05C1091.39 136.18 1087.66 147.25 1086.07 152.75Z" fill="url(#paint1_linear_32_2795)"/>
<path d="M898.87 101.38C888.48 114.89 898.72 156.2 900.3 162.23L900.5 162.98C900.5 162.98 899.7 162.52 898.33 161.66C889.33 155.96 855.75 132.66 863.22 105.88C871.84 75.0799 854.1 81.1299 841.55 52.1599C829 23.1899 857.55 5.3999 857.55 5.3999C890.67 30.5699 910.09 86.7999 898.87 101.38Z" fill="#042b62"/>
<path d="M900.5 163C900.5 163 899.7 162.54 898.33 161.68L897.28 160C890.38 149.13 881.99 134.3 881.18 125.45C880.805 119.659 880.805 113.85 881.18 108.06C881.71 95.6397 882.25 82.7897 876.13 75.6797C866.78 64.8097 866.47 46.4797 866.46 45.6797H867.83C867.83 45.8697 868.14 64.3097 877.16 74.7897C883.64 82.3097 883.09 95.4297 882.55 108.12C882.18 113.847 882.18 119.592 882.55 125.32C883.36 134.03 892.13 149.63 900.31 162.23L900.5 163Z" fill="url(#paint2_linear_32_2795)"/>
<path d="M901.24 135.19C897.5 149.9 905.43 158.81 908.01 161.19C908.253 161.428 908.51 161.652 908.78 161.86C908.004 161.881 907.228 161.834 906.46 161.72C895.31 160.15 866.55 147.04 863.17 128.24C859.52 107.95 842.91 119.24 829.17 102.3C810.52 79.2997 834.45 60.6797 834.45 60.6797C829.34 70.3797 844.93 94.1597 864.61 98.8997C884.29 103.64 905.67 117.76 901.24 135.19Z" fill="#042b62"/>
<path d="M881.75 134C884.04 141.13 886.19 147.86 892.12 150.8C897.733 153.763 903.05 157.256 908 161.23C908.243 161.468 908.5 161.692 908.77 161.9C907.994 161.921 907.218 161.874 906.45 161.76C901.768 158.034 896.746 154.756 891.45 151.97C885.02 148.77 882.78 141.78 880.45 134.37C877.75 125.97 874.97 117.28 865.75 113.37C848.14 106 839.13 95.8298 839 95.7298L840 94.8198C840.08 94.9198 848.92 104.87 866.21 112.15C876.08 116.27 879 125.26 881.75 134Z" fill="url(#paint3_linear_32_2795)"/>
<path d="M976.41 277.44H1003.17V196.17H976.41V277.44Z" fill="#AEBECC"/>
<path d="M888.98 235.32L1090.62 235.32C1098.74 235.32 1105.33 228.734 1105.33 220.61V87.0298C1105.33 78.9057 1098.74 72.3198 1090.62 72.3198L888.98 72.3198C880.856 72.3198 874.27 78.9057 874.27 87.0298V220.61C874.27 228.734 880.856 235.32 888.98 235.32Z" fill="#DEDEDE"/>
<path d="M883.32 209.78L1096.28 209.78V54.9698L883.32 54.9698V209.78Z" fill="url(#paint4_linear_32_2795)"/>
<path d="M883.32 73.6699L1096.28 73.6699V54.9699L883.32 54.9699V73.6699Z" fill="#ccd5e0"/>
<path d="M982.34 221.46C982.338 222.936 982.774 224.38 983.593 225.608C984.412 226.836 985.577 227.794 986.94 228.36C988.304 228.926 989.805 229.074 991.253 228.787C992.701 228.499 994.031 227.789 995.075 226.745C996.119 225.701 996.829 224.371 997.117 222.923C997.404 221.475 997.256 219.974 996.69 218.61C996.124 217.247 995.166 216.082 993.938 215.263C992.71 214.444 991.266 214.008 989.79 214.01C987.815 214.012 985.921 214.798 984.525 216.195C983.128 217.591 982.342 219.485 982.34 221.46Z" fill="#042b62"/>
<path d="M1049.98 274.38H929.6V280.52H1049.98V274.38Z" fill="#E3E3E3"/>
<path d="M897.51 162.25H890.03V203.03H897.51V162.25Z" fill="#E0E0E0"/>
<path d="M914.03 150.4H906.55V203.03H914.03V150.4Z" fill="#E0E0E0"/>
<path d="M930.54 170.58H923.06V203.04H930.54V170.58Z" fill="#E0E0E0"/>
<path d="M947.06 154.85H939.58V203.04H947.06V154.85Z" fill="#E0E0E0"/>
<path d="M963.57 143.79H956.09V203.03H963.57V143.79Z" fill="#E0E0E0"/>
<path d="M980.089 164.76H972.609V203.03H980.089V164.76Z" fill="#E0E0E0"/>
<path d="M897.51 173.51H890.03V203.03H897.51V173.51Z" fill="#EAEAEA"/>
<path d="M914.03 164.93H906.55V203.03H914.03V164.93Z" fill="#EAEAEA"/>
<path d="M930.54 179.54H923.06V203.04H930.54V179.54Z" fill="#EAEAEA"/>
<path d="M947.06 168.15H939.58V203.03H947.06V168.15Z" fill="#EAEAEA"/>
<path d="M963.57 160.15H956.09V203.04H963.57V160.15Z" fill="#EAEAEA"/>
<path d="M980.089 175.33H972.609V203.03H980.089V175.33Z" fill="#EAEAEA"/>
<path d="M947.83 133.65H891C890.465 133.65 890.03 134.084 890.03 134.62V137.01C890.03 137.546 890.465 137.98 891 137.98H947.83C948.366 137.98 948.8 137.546 948.8 137.01V134.62C948.8 134.084 948.366 133.65 947.83 133.65Z" fill="#E0E0E0"/>
<path d="M926.52 124.44H891C890.465 124.44 890.03 124.874 890.03 125.41V127.8C890.03 128.336 890.465 128.77 891 128.77H926.52C927.056 128.77 927.49 128.336 927.49 127.8V125.41C927.49 124.874 927.056 124.44 926.52 124.44Z" fill="#E0E0E0"/>
<path d="M935.87 115.8H891C890.465 115.8 890.03 116.234 890.03 116.77V119.16C890.03 119.696 890.465 120.13 891 120.13H935.87C936.406 120.13 936.84 119.696 936.84 119.16V116.77C936.84 116.234 936.406 115.8 935.87 115.8Z" fill="#E0E0E0"/>
<path d="M957.86 106.96H891C890.465 106.96 890.03 107.394 890.03 107.93V110.32C890.03 110.856 890.465 111.29 891 111.29H957.86C958.396 111.29 958.83 110.856 958.83 110.32V107.93C958.83 107.394 958.396 106.96 957.86 106.96Z" fill="#E0E0E0"/>
<path d="M914.1 98.5801H891C890.465 98.5801 890.03 99.0144 890.03 99.5501V101.94C890.03 102.476 890.465 102.91 891 102.91H914.1C914.636 102.91 915.07 102.476 915.07 101.94V99.5501C915.07 99.0144 914.636 98.5801 914.1 98.5801Z" fill="#E0E0E0"/>
<path d="M1068.61 131.51C1071.76 130.384 1074.65 128.65 1077.13 126.405C1079.61 124.161 1081.62 121.45 1083.05 118.428C1084.48 115.406 1085.3 112.132 1085.47 108.792C1085.63 105.453 1085.14 102.113 1084.01 98.9649C1082.89 95.8164 1081.15 92.9205 1078.91 90.4424C1076.67 87.9643 1073.95 85.9526 1070.93 84.5221C1067.91 83.0916 1064.64 82.2704 1061.3 82.1053C1057.96 81.9402 1054.62 82.4345 1051.47 83.5599C1050.93 83.7465 1050.4 83.9566 1049.88 84.1899C1043.82 86.8236 1039.02 91.709 1036.5 97.8144C1033.98 103.92 1033.92 110.767 1036.36 116.909C1038.79 123.052 1043.51 128.009 1049.53 130.733C1055.55 133.458 1062.39 133.736 1068.61 131.51ZM1042.07 114C1040.76 110.345 1040.59 106.377 1041.59 102.625C1042.59 98.873 1044.71 95.5152 1047.67 92.9999C1049.09 91.7688 1050.7 90.7577 1052.42 89.9999C1052.81 89.8299 1053.21 89.6799 1053.61 89.5299C1057.16 88.257 1061.02 88.0669 1064.68 88.9837C1068.34 89.9006 1071.65 91.8831 1074.19 94.6807C1076.72 97.4782 1078.37 100.965 1078.93 104.7C1079.48 108.435 1078.92 112.251 1077.3 115.664C1075.69 119.078 1073.1 121.936 1069.86 123.877C1066.62 125.818 1062.88 126.755 1059.11 126.569C1055.33 126.384 1051.7 125.084 1048.67 122.834C1045.64 120.584 1043.34 117.485 1042.07 113.93V114Z" fill="#EAEAEA"/>
<path d="M1065.73 89.31L1067.63 83.23C1072.69 84.8095 1077.12 87.9254 1080.33 92.1444C1083.53 96.3633 1085.34 101.476 1085.5 106.77L1079.13 106.96C1079.01 102.991 1077.65 99.1586 1075.25 95.9957C1072.85 92.8328 1069.52 90.4961 1065.73 89.31Z" fill="#ccd5e0"/>
<path d="M1052.42 90.0001L1049.88 84.1601C1050.4 83.9334 1050.93 83.7234 1051.47 83.5301C1056.68 81.6568 1062.35 81.5409 1067.63 83.2001L1065.73 89.2801C1061.77 88.0437 1057.52 88.1315 1053.61 89.5301C1053.21 89.7101 1052.81 89.8601 1052.42 90.0001Z" fill="#042b62"/>
<path d="M1043.54 88.1299C1045.45 86.514 1047.59 85.1866 1049.88 84.1899L1052.42 90.0299C1050.7 90.7877 1049.1 91.7989 1047.67 93.0299L1043.54 88.1299Z" fill="#ccd5e0"/>
<path d="M1021.81 98.9199H1008.06C1007.13 98.9199 1006.37 99.6766 1006.37 100.61V100.89C1006.37 101.823 1007.13 102.58 1008.06 102.58H1021.81C1022.74 102.58 1023.5 101.823 1023.5 100.89V100.61C1023.5 99.6766 1022.74 98.9199 1021.81 98.9199Z" fill="#EAEAEA"/>
<path d="M1005.02 116.11H991.27C990.337 116.11 989.58 116.867 989.58 117.8V118.08C989.58 119.013 990.337 119.77 991.27 119.77H1005.02C1005.95 119.77 1006.71 119.013 1006.71 118.08V117.8C1006.71 116.867 1005.95 116.11 1005.02 116.11Z" fill="#EAEAEA"/>
<path d="M1023.53 133.98H1009.78C1008.85 133.98 1008.09 134.737 1008.09 135.67V135.95C1008.09 136.883 1008.85 137.64 1009.78 137.64H1023.53C1024.46 137.64 1025.22 136.883 1025.22 135.95V135.67C1025.22 134.737 1024.46 133.98 1023.53 133.98Z" fill="#042b62"/>
<path d="M1052.7 146.06H1038.95C1038.02 146.06 1037.26 146.817 1037.26 147.75V148.03C1037.26 148.963 1038.02 149.72 1038.95 149.72H1052.7C1053.63 149.72 1054.39 148.963 1054.39 148.03V147.75C1054.39 146.817 1053.63 146.06 1052.7 146.06Z" fill="#042b62"/>
<path d="M996.37 199.26L995.63 198.48L1014.79 180.4L1034.18 184.6L1052.7 163.48L1068.86 164.39L1081.44 147.04L1082.31 147.67L1069.39 165.5L1053.17 164.59L1034.57 185.79L1015.12 181.58L996.37 199.26Z" fill="#005263"/>
<path d="M1037.19 184.59C1037.31 185.147 1037.27 185.727 1037.06 186.258C1036.85 186.788 1036.49 187.245 1036.02 187.57C1035.55 187.895 1035 188.075 1034.43 188.085C1033.86 188.095 1033.3 187.936 1032.82 187.627C1032.34 187.319 1031.96 186.875 1031.73 186.352C1031.51 185.83 1031.44 185.251 1031.54 184.69C1031.64 184.129 1031.91 183.612 1032.31 183.202C1032.7 182.792 1033.21 182.51 1033.77 182.39C1034.14 182.309 1034.52 182.302 1034.89 182.369C1035.26 182.435 1035.62 182.575 1035.94 182.78C1036.25 182.984 1036.53 183.249 1036.74 183.56C1036.96 183.87 1037.11 184.22 1037.19 184.59Z" fill="white"/>
<path d="M1035.1 188.54C1034.44 188.683 1033.75 188.627 1033.12 188.378C1032.49 188.13 1031.95 187.7 1031.56 187.144C1031.18 186.588 1030.97 185.929 1030.96 185.253C1030.95 184.576 1031.14 183.912 1031.5 183.343C1031.87 182.774 1032.4 182.327 1033.02 182.059C1033.64 181.79 1034.33 181.711 1034.99 181.833C1035.66 181.955 1036.27 182.271 1036.76 182.742C1037.24 183.214 1037.58 183.818 1037.72 184.48C1037.91 185.366 1037.74 186.291 1037.25 187.052C1036.76 187.813 1035.99 188.348 1035.1 188.54ZM1033.88 182.91C1033.43 183.007 1033.01 183.237 1032.69 183.57C1032.37 183.903 1032.15 184.323 1032.07 184.779C1031.99 185.234 1032.04 185.704 1032.23 186.129C1032.41 186.554 1032.72 186.914 1033.11 187.165C1033.5 187.415 1033.95 187.545 1034.41 187.537C1034.88 187.529 1035.33 187.384 1035.71 187.12C1036.09 186.856 1036.38 186.485 1036.55 186.054C1036.72 185.624 1036.76 185.152 1036.66 184.7C1036.53 184.095 1036.16 183.568 1035.64 183.233C1035.12 182.898 1034.49 182.782 1033.88 182.91Z" fill="#005263"/>
<path d="M1055.74 163.61C1055.86 164.167 1055.81 164.747 1055.6 165.277C1055.39 165.806 1055.03 166.262 1054.56 166.586C1054.09 166.909 1053.54 167.087 1052.97 167.096C1052.4 167.104 1051.84 166.944 1051.36 166.635C1050.88 166.326 1050.51 165.882 1050.28 165.359C1050.05 164.836 1049.99 164.258 1050.09 163.697C1050.19 163.137 1050.46 162.619 1050.86 162.211C1051.25 161.802 1051.76 161.52 1052.32 161.4C1053.07 161.24 1053.85 161.383 1054.49 161.797C1055.13 162.211 1055.58 162.864 1055.74 163.61Z" fill="white"/>
<path d="M1053.65 167.56C1052.99 167.703 1052.3 167.646 1051.67 167.398C1051.04 167.149 1050.5 166.72 1050.12 166.164C1049.73 165.608 1049.52 164.951 1049.51 164.275C1049.5 163.599 1049.69 162.934 1050.05 162.366C1050.42 161.797 1050.94 161.35 1051.56 161.08C1052.18 160.811 1052.87 160.731 1053.54 160.851C1054.2 160.972 1054.82 161.287 1055.3 161.756C1055.79 162.226 1056.13 162.829 1056.27 163.49C1056.37 163.929 1056.37 164.383 1056.29 164.825C1056.21 165.268 1056.05 165.69 1055.8 166.068C1055.56 166.446 1055.24 166.772 1054.88 167.028C1054.51 167.284 1054.09 167.465 1053.65 167.56ZM1052.44 161.93C1051.99 162.027 1051.57 162.257 1051.25 162.59C1050.93 162.923 1050.71 163.343 1050.63 163.799C1050.55 164.254 1050.6 164.724 1050.79 165.149C1050.97 165.574 1051.28 165.934 1051.67 166.185C1052.06 166.435 1052.51 166.565 1052.97 166.557C1053.44 166.549 1053.89 166.404 1054.27 166.14C1054.65 165.876 1054.94 165.505 1055.11 165.074C1055.28 164.644 1055.32 164.172 1055.22 163.72C1055.09 163.114 1054.72 162.585 1054.2 162.25C1053.68 161.914 1053.05 161.799 1052.44 161.93Z" fill="#005263"/>
<path d="M1071.78 164.25C1071.9 164.807 1071.86 165.387 1071.65 165.918C1071.44 166.448 1071.08 166.905 1070.61 167.23C1070.14 167.556 1069.59 167.735 1069.02 167.745C1068.45 167.755 1067.89 167.596 1067.41 167.287C1066.93 166.979 1066.55 166.535 1066.32 166.013C1066.1 165.49 1066.03 164.911 1066.13 164.35C1066.23 163.79 1066.5 163.272 1066.9 162.862C1067.29 162.453 1067.8 162.17 1068.36 162.05C1068.73 161.969 1069.11 161.962 1069.48 162.029C1069.85 162.096 1070.21 162.235 1070.53 162.44C1070.84 162.644 1071.12 162.909 1071.33 163.22C1071.55 163.53 1071.7 163.881 1071.78 164.25Z" fill="white"/>
<path d="M1069.69 168.2C1069.03 168.343 1068.34 168.287 1067.71 168.039C1067.08 167.79 1066.54 167.36 1066.15 166.804C1065.77 166.248 1065.56 165.59 1065.55 164.913C1065.54 164.236 1065.73 163.572 1066.09 163.003C1066.46 162.435 1066.99 161.988 1067.61 161.719C1068.23 161.45 1068.92 161.372 1069.58 161.493C1070.25 161.615 1070.86 161.931 1071.35 162.403C1071.83 162.874 1072.17 163.478 1072.31 164.14C1072.5 165.026 1072.33 165.951 1071.84 166.712C1071.35 167.473 1070.58 168.008 1069.69 168.2ZM1068.47 162.57C1068.02 162.668 1067.6 162.897 1067.28 163.23C1066.96 163.563 1066.74 163.983 1066.66 164.439C1066.58 164.894 1066.63 165.364 1066.82 165.789C1067 166.214 1067.31 166.574 1067.7 166.825C1068.09 167.075 1068.54 167.205 1069 167.197C1069.47 167.189 1069.92 167.044 1070.3 166.78C1070.68 166.516 1070.97 166.145 1071.14 165.715C1071.31 165.284 1071.35 164.812 1071.25 164.36C1071.12 163.756 1070.75 163.229 1070.23 162.893C1069.71 162.558 1069.08 162.442 1068.47 162.57Z" fill="#005263"/>
<path d="M1017.75 180.65C1017.87 181.207 1017.82 181.787 1017.61 182.317C1017.4 182.846 1017.04 183.302 1016.57 183.626C1016.1 183.949 1015.55 184.127 1014.98 184.136C1014.41 184.144 1013.85 183.984 1013.37 183.675C1012.89 183.366 1012.52 182.922 1012.29 182.399C1012.07 181.876 1012 181.298 1012.1 180.737C1012.2 180.177 1012.47 179.66 1012.87 179.251C1013.26 178.842 1013.77 178.56 1014.33 178.44C1015.08 178.28 1015.86 178.423 1016.5 178.837C1017.14 179.251 1017.59 179.904 1017.75 180.65Z" fill="white"/>
<path d="M1015.66 184.6C1015 184.743 1014.31 184.686 1013.68 184.438C1013.05 184.189 1012.51 183.76 1012.13 183.204C1011.74 182.648 1011.53 181.991 1011.52 181.315C1011.51 180.639 1011.7 179.974 1012.06 179.406C1012.43 178.837 1012.95 178.39 1013.57 178.12C1014.19 177.851 1014.88 177.771 1015.55 177.891C1016.21 178.012 1016.83 178.327 1017.31 178.796C1017.8 179.266 1018.14 179.869 1018.28 180.53C1018.37 180.969 1018.38 181.423 1018.3 181.865C1018.22 182.308 1018.06 182.73 1017.81 183.108C1017.57 183.486 1017.25 183.812 1016.88 184.068C1016.52 184.324 1016.1 184.505 1015.66 184.6ZM1014.44 178.97C1013.99 179.068 1013.57 179.297 1013.25 179.63C1012.93 179.963 1012.71 180.383 1012.63 180.839C1012.55 181.294 1012.6 181.764 1012.79 182.189C1012.97 182.614 1013.28 182.974 1013.67 183.225C1014.06 183.475 1014.51 183.605 1014.97 183.597C1015.44 183.589 1015.89 183.444 1016.27 183.18C1016.65 182.916 1016.94 182.545 1017.11 182.114C1017.28 181.684 1017.32 181.212 1017.22 180.76C1017.08 180.16 1016.71 179.638 1016.19 179.309C1015.67 178.979 1015.04 178.868 1014.44 179V178.97Z" fill="#005263"/>
<path d="M1023.84 191.96H1012.06V194.23H1023.84V191.96Z" fill="#E0E0E0"/>
<path d="M1032.04 168.67H1020.26V170.94H1032.04V168.67Z" fill="#E0E0E0"/>
<path d="M1056.48 184.9H1044.7V187.17H1056.48V184.9Z" fill="#E0E0E0"/>
<path d="M1067.05 153.03H1055.27V155.3H1067.05V153.03Z" fill="#E0E0E0"/>
<path d="M1084.16 172.02H1072.38V174.29H1084.16V172.02Z" fill="#E0E0E0"/>
<path d="M915.29 80.1401H890.95V82.6301H915.29V80.1401Z" fill="#E0E0E0"/>
<path d="M937.299 80.1401H920.02V82.6301H937.299V80.1401Z" fill="#E0E0E0"/>
<path d="M936.15 89.52H920.02V92.01H936.15V89.52Z" fill="#E0E0E0"/>
<path d="M1023.85 80.1401H1006.57V82.6301H1023.85V80.1401Z" fill="#042b62"/>
<path d="M963.96 80.1401H941.95V82.6301H963.96V80.1401Z" fill="#EAEAEA"/>
<path d="M1002.25 80.1401H980.24V82.6301H1002.25V80.1401Z" fill="#EAEAEA"/>
<path d="M976.09 80.1401H968.03V82.6301H976.09V80.1401Z" fill="#E0E0E0"/>
<path d="M903.55 89.52H890.95V92.01H903.55V89.52Z" fill="#042b62"/>
<path d="M910.719 89.52H906.649V92.01H910.719V89.52Z" fill="#042b62"/>
<path d="M1023.84 89.52H990.2V92.01H1023.84V89.52Z" fill="#E0E0E0"/>
<path d="M917.86 89.52H913.71V92.01H917.86V89.52Z" fill="#042b62"/>
<path d="M987.1 89.52H976.09V92.01H987.1V89.52Z" fill="#042b62"/>
<path d="M973.18 89.52H949.76V92.01H973.18V89.52Z" fill="#042b62"/>
<path d="M946.44 89.52H938.38V92.01H946.44V89.52Z" fill="#E0E0E0"/>
<path d="M1096.27 63.6099H883.31V73.6699H1096.27V63.6099Z" fill="#042b62"/>
<path d="M919.4 60.79H895.39C893.634 60.79 892.21 62.2138 892.21 63.97V64.68C892.21 66.4363 893.634 67.86 895.39 67.86H919.4C921.156 67.86 922.58 66.4363 922.58 64.68V63.97C922.58 62.2138 921.156 60.79 919.4 60.79Z" fill="#F5F7FF"/>
<defs>
<linearGradient id="paint0_linear_32_2795" x1="1080.98" y1="107.54" x2="1137.23" y2="107.54" gradientUnits="userSpaceOnUse">
<stop stop-color="#ccd5e0"/>
<stop offset="1" stop-color="#042b62"/>
</linearGradient>
<linearGradient id="paint1_linear_32_2795" x1="1080.57" y1="160.521" x2="1112.69" y2="112.245" gradientUnits="userSpaceOnUse">
<stop offset="0.01" stop-color="#042b62"/>
<stop offset="1" stop-color="#042b62"/>
</linearGradient>
<linearGradient id="paint2_linear_32_2795" x1="893.949" y1="163.388" x2="879.009" y2="82.3842" gradientUnits="userSpaceOnUse">
<stop offset="0.01" stop-color="#042b62"/>
<stop offset="1" stop-color="#042b62"/>
</linearGradient>
<linearGradient id="paint3_linear_32_2795" x1="910.705" y1="162.434" x2="864.399" y2="116.577" gradientUnits="userSpaceOnUse">
<stop offset="0.01" stop-color="#042b62"/>
<stop offset="1" stop-color="#042b62"/>
</linearGradient>
<linearGradient id="paint4_linear_32_2795" x1="883.31" y1="132.37" x2="1096.28" y2="132.37" gradientUnits="userSpaceOnUse">
<stop stop-color="white"/>
<stop offset="1" stop-color="#F2F5FF"/>
</linearGradient>
</defs>
</svg>
