<?xml version="1.0" encoding="utf-8"?>
<!-- Generator: Adobe Illustrator 23.0.1, SVG Export Plug-In . SVG Version: 6.00 Build 0)  -->
<svg version="1.1" id="Layer_1" xmlns="http://www.w3.org/2000/svg" xmlns:xlink="http://www.w3.org/1999/xlink" x="0px" y="0px"
	 viewBox="0 0 751 180" style="enable-background:new 0 0 751 180;" xml:space="preserve">
<style type="text/css">
	.st0{fill:#007874;}
	.st1{fill:url(#Fill-53_1_);}
	.st2{fill:#FFFFFF;}
	.st3{fill:url(#Fill-53_2_);}
	.st4{fill:url(#Fill-53_3_);}
	.st5{fill:url(#Fill-53_4_);}
	.st6{fill:url(#Fill-53_5_);}
	.st7{fill:url(#Fill-53_6_);}
	.st8{fill:url(#Fill-53_7_);}
	.st9{fill:url(#Fill-53_8_);}
	.st10{fill:url(#Fill-53_9_);}
	.st11{fill:#005263;}
	.st12{fill:#10665A;}
	.st13{fill:#43856D;}
	.st14{opacity:0.22;fill:#47A395;enable-background:new    ;}
	.st15{opacity:0.51;fill:#005263;enable-background:new    ;}
	.st16{opacity:0.22;fill:#005263;enable-background:new    ;}
	.st17{fill:#8AF6B2;}
	.st18{fill:none;}
	.st19{fill:#056562;}
	.st20{fill:#F0FFF2;}
	.st21{fill:url(#Rectangle_1_);}
	.st22{fill:#FFFEFF;}
	.st23{opacity:0.9098;fill:url(#Rectangle_2_);enable-background:new    ;}
	.st24{opacity:0.5974;fill:#005263;enable-background:new    ;}
	.st25{opacity:0.4957;}
	.st26{fill:#7FC98A;}
	.st27{fill:#47A395;}
	.st28{fill:#4F1221;fill-opacity:0.2299;}
	.st29{fill:url(#Shape_6_);}
	.st30{fill:url(#SVGID_1_);}
	.st31{fill:url(#Shape_7_);}
	.st32{fill:url(#SVGID_2_);}
	.st33{fill:url(#Shape_8_);}
	.st34{fill:url(#SVGID_3_);}
	.st35{fill:url(#Shape_9_);}
	.st36{fill:url(#SVGID_4_);}
	.st37{fill:url(#Shape_10_);}
	.st38{fill:url(#SVGID_5_);}
</style>
<title>Group 10</title>
<desc>Created with Sketch.</desc>
<g id="Group" transform="translate(886.876014, 0.000000)">
	<g transform="translate(88.770009, 132.000000)">
		<path class="st0" d="M-329,35.8c0,3.4,13.6,6.3,30.3,6.3s30.3-2.8,30.3-6.3V31H-329V35.8"/>
		<g id="Group-42-Copy-2_163_" transform="translate(0.058825, 0.414566)">
			
				<linearGradient id="Fill-53_1_" gradientUnits="userSpaceOnUse" x1="-1026.2582" y1="234.785" x2="-1025.8092" y2="234.6687" gradientTransform="matrix(52.4512 0 0 -11.5187 53518.0938 2733.9973)">
				<stop  offset="0" style="stop-color:#005263"/>
				<stop  offset="1" style="stop-color:#65D48E"/>
			</linearGradient>
			<path id="Fill-53_166_" class="st1" d="M-268.4,30.2c0,3.7-13.6,6.7-30.3,6.7s-30.3-3-30.3-6.7s13.6-6.7,30.3-6.7
				S-268.4,26.6-268.4,30.2"/>
			<path id="Fill-54_163_" class="st2" d="M-298.7,25.2c-12.9,0-23.4,2.3-23.4,5.1s10.5,5.1,23.4,5.1s23.4-2.3,23.4-5.1
				S-285.8,25.2-298.7,25.2z M-298.7,35.5c-13.2,0-24-2.4-24-5.2c0-2.9,10.7-5.2,24-5.2s24,2.4,24,5.2
				C-274.8,33.2-285.6,35.5-298.7,35.5L-298.7,35.5z"/>
			<path id="Fill-55_163_" class="st2" d="M-305.2,31.7v-0.4h4.3v0.4c0,0.4,0.6,0.6,1.8,0.6c1.4,0,2.2-0.2,2.2-0.6
				c0-0.1-0.1-0.3-0.4-0.4c-0.3-0.1-0.7-0.3-1.2-0.4c-0.4-0.1-0.9-0.2-1.5-0.3s-1.2-0.2-1.7-0.4c-0.6-0.1-1.2-0.2-1.6-0.4
				c-0.5-0.1-0.9-0.3-1.2-0.5s-0.4-0.4-0.4-0.6c0-0.8,1.4-1.3,4.3-1.4v-0.4h3.4v0.4c1.4,0.1,2.5,0.2,3.3,0.4
				c0.7,0.2,1.1,0.6,1.1,0.9v0.2h-3.9v-0.2c0-0.4-0.7-0.6-2-0.6s-2.1,0.2-2.1,0.6c0,0.1,0.1,0.3,0.4,0.4c0.3,0.1,0.7,0.3,1.2,0.4
				c0.4,0.1,1,0.2,1.6,0.3c0.6,0.1,1.2,0.2,1.7,0.3c0.6,0.1,1.1,0.2,1.6,0.4c0.4,0.1,0.9,0.3,1.2,0.5c0.3,0.2,0.4,0.4,0.4,0.6
				c0,0.4-0.4,0.7-1.2,0.9c-0.7,0.2-1.9,0.4-3.3,0.4v0.4h-3.4V33c-1.4-0.1-2.6-0.2-3.3-0.4C-304.7,32.4-305.2,32-305.2,31.7"/>
		</g>
	</g>
	<g transform="translate(85.770009, 125.000000)">
		<path class="st0" d="M-329.2,35.1c0,3.4,13.8,6.3,30.8,6.3c17,0,30.8-2.8,30.8-6.3v-4.9h-61.5V35.1"/>
		<g id="Group-42-Copy-2_162_" transform="translate(0.059648, 0.414566)">
			
				<linearGradient id="Fill-53_2_" gradientUnits="userSpaceOnUse" x1="-1023.1923" y1="241.8736" x2="-1022.7432" y2="241.7605" gradientTransform="matrix(53.1851 0 0 -11.5187 54108.2812 2814.9998)">
				<stop  offset="0" style="stop-color:#005263"/>
				<stop  offset="1" style="stop-color:#65D48E"/>
			</linearGradient>
			<path id="Fill-53_165_" class="st3" d="M-267.7,29.6c0,3.7-13.8,6.7-30.8,6.7s-30.8-3-30.8-6.7s13.8-6.7,30.8-6.7
				C-281.5,22.9-267.7,25.9-267.7,29.6"/>
			<path id="Fill-54_162_" class="st2" d="M-298.5,24.4c-13.1,0-23.7,2.3-23.7,5.1s10.6,5.1,23.7,5.1s23.7-2.3,23.7-5.1
				S-285.4,24.4-298.5,24.4z M-298.5,34.8c-13.4,0-24.3-2.4-24.3-5.2s10.9-5.2,24.3-5.2s24.3,2.4,24.3,5.2S-285.1,34.8-298.5,34.8
				L-298.5,34.8z"/>
			<path id="Fill-55_162_" class="st2" d="M-304.9,30.9v-0.4h4.3V31c0,0.4,0.6,0.6,1.8,0.6c1.5,0,2.2-0.2,2.2-0.6
				c0-0.1-0.1-0.3-0.4-0.4c-0.3-0.1-0.7-0.3-1.2-0.4c-0.4-0.1-1-0.2-1.5-0.3c-0.6-0.1-1.2-0.2-1.8-0.4s-1.2-0.2-1.6-0.4
				c-0.5-0.1-0.9-0.3-1.2-0.5s-0.4-0.4-0.4-0.6c0-0.8,1.5-1.3,4.4-1.4v-0.4h3.5v0.4c1.5,0.1,2.6,0.2,3.4,0.4
				c0.7,0.2,1.1,0.6,1.1,0.9v0.2h-4V28c0-0.4-0.7-0.6-2.1-0.6c-1.4,0-2.1,0.2-2.1,0.6c0,0.1,0.1,0.3,0.4,0.4
				c0.3,0.1,0.7,0.3,1.2,0.4c0.4,0.1,1,0.2,1.6,0.3c0.6,0.1,1.2,0.2,1.8,0.3c0.6,0.1,1.1,0.2,1.6,0.4c0.4,0.1,0.9,0.3,1.2,0.5
				c0.3,0.2,0.4,0.4,0.4,0.6c0,0.4-0.4,0.7-1.2,0.9c-0.7,0.2-1.9,0.4-3.4,0.4v0.4h-3.5v-0.4c-1.5-0.1-2.6-0.2-3.4-0.4
				C-304.6,31.6-304.9,31.4-304.9,30.9"/>
		</g>
	</g>
	<g transform="translate(88.770009, 118.000000)">
		<path class="st0" d="M-329,33.6c0,3.4,13.6,6.3,30.3,6.3s30.3-2.8,30.3-6.3v-4.8H-329V33.6"/>
		<g id="Group-42-Copy-2_161_" transform="translate(0.058825, 0.414566)">
			
				<linearGradient id="Fill-53_3_" gradientUnits="userSpaceOnUse" x1="-1026.2582" y1="248.9746" x2="-1025.8092" y2="248.8583" gradientTransform="matrix(52.4512 0 0 -11.5187 53518.0938 2895.321)">
				<stop  offset="0" style="stop-color:#005263"/>
				<stop  offset="1" style="stop-color:#65D48E"/>
			</linearGradient>
			<path id="Fill-53_164_" class="st4" d="M-268.4,28.1c0,3.7-13.6,6.7-30.3,6.7s-30.3-3-30.3-6.7s13.6-6.7,30.3-6.7
				S-268.4,24.5-268.4,28.1"/>
			<path id="Fill-54_161_" class="st2" d="M-298.7,23c-12.9,0-23.4,2.3-23.4,5.1s10.5,5.1,23.4,5.1s23.4-2.3,23.4-5.1
				S-285.8,23-298.7,23z M-298.7,33.4c-13.2,0-24-2.4-24-5.2s10.7-5.2,24-5.2s24,2.4,24,5.2S-285.6,33.4-298.7,33.4L-298.7,33.4z"/>
			<path id="Fill-55_161_" class="st2" d="M-305.2,29.5v-0.4h4.3v0.4c0,0.4,0.6,0.6,1.8,0.6c1.4,0,2.2-0.2,2.2-0.6
				c0-0.1-0.1-0.3-0.4-0.4s-0.7-0.3-1.2-0.4c-0.4-0.1-0.9-0.2-1.5-0.3c-0.6-0.1-1.2-0.2-1.7-0.4c-0.6-0.1-1.2-0.2-1.6-0.4
				c-0.5-0.1-0.9-0.3-1.2-0.5s-0.4-0.4-0.4-0.6c0-0.8,1.4-1.3,4.3-1.4v-0.4h3.4v0.4c1.4,0.1,2.5,0.2,3.3,0.4
				c0.7,0.2,1.1,0.6,1.1,0.9v0.2h-3.9v-0.2c0-0.4-0.7-0.6-2-0.6s-2.1,0.2-2.1,0.6c0,0.1,0.1,0.3,0.4,0.4s0.7,0.3,1.2,0.4
				c0.4,0.1,1,0.2,1.6,0.3c0.6,0.1,1.2,0.2,1.7,0.3c0.6,0.1,1.1,0.2,1.6,0.4c0.4,0.1,0.9,0.3,1.2,0.5s0.4,0.4,0.4,0.6
				c0,0.4-0.4,0.7-1.2,0.9c-0.7,0.2-1.9,0.4-3.3,0.4v0.4h-3.4v-0.4c-1.4-0.1-2.6-0.2-3.3-0.4C-304.7,30.3-305.2,29.9-305.2,29.5"/>
		</g>
	</g>
	<g transform="translate(82.770009, 111.000000)">
		<path class="st0" d="M-329.9,33c0,3.4,13.6,6.3,30.3,6.3s30.3-2.8,30.3-6.3v-4.8h-60.7V33"/>
		<g id="Group-42-Copy-2_160_" transform="translate(0.058825, 0.414566)">
			
				<linearGradient id="Fill-53_4_" gradientUnits="userSpaceOnUse" x1="-1020.2757" y1="256.0647" x2="-1019.8266" y2="255.9483" gradientTransform="matrix(52.4512 0 0 -11.5187 53203.3867 2976.324)">
				<stop  offset="0" style="stop-color:#005263"/>
				<stop  offset="1" style="stop-color:#65D48E"/>
			</linearGradient>
			<path id="Fill-53_163_" class="st5" d="M-269.3,27.4c0,3.7-13.6,6.7-30.3,6.7c-16.7,0-30.3-3-30.3-6.7s13.6-6.7,30.3-6.7
				C-282.9,20.8-269.3,23.8-269.3,27.4"/>
			<path id="Fill-54_130_" class="st2" d="M-299.7,22.3c-12.9,0-23.4,2.3-23.4,5.1s10.5,5.1,23.4,5.1c12.9,0,23.4-2.3,23.4-5.1
				S-286.8,22.3-299.7,22.3z M-299.7,32.7c-13.2,0-24-2.4-24-5.2s10.7-5.2,24-5.2s24,2.4,24,5.2S-286.4,32.7-299.7,32.7L-299.7,32.7
				z"/>
			<path id="Fill-55_130_" class="st2" d="M-306,28.8v-0.4h4.3v0.4c0,0.4,0.6,0.6,1.8,0.6c1.4,0,2.2-0.2,2.2-0.6
				c0-0.1-0.1-0.3-0.4-0.4c-0.3-0.1-0.7-0.3-1.2-0.4c-0.4-0.1-0.9-0.2-1.5-0.3c-0.6-0.1-1.2-0.2-1.7-0.4c-0.6-0.1-1.2-0.2-1.6-0.4
				c-0.5-0.1-0.9-0.3-1.2-0.5s-0.4-0.4-0.4-0.6c0-0.8,1.4-1.3,4.3-1.4v-0.4h3.4v0.4c1.4,0.1,2.5,0.2,3.3,0.4
				c0.7,0.2,1.1,0.6,1.1,0.9v0.2h-3.9v-0.1c0-0.4-0.7-0.6-2-0.6c-1.4,0-2.1,0.2-2.1,0.6c0,0.1,0.1,0.3,0.4,0.4s0.7,0.3,1.2,0.4
				c0.4,0.1,1,0.2,1.6,0.3c0.6,0.1,1.2,0.2,1.7,0.3c0.6,0.1,1.1,0.2,1.6,0.4c0.4,0.1,0.9,0.3,1.2,0.5s0.4,0.4,0.4,0.6
				c0,0.4-0.4,0.7-1.2,0.9c-0.7,0.2-1.9,0.4-3.3,0.4v0.4h-3.4v-0.4c-1.4-0.1-2.6-0.2-3.3-0.4C-305.7,29.5-306,29.2-306,28.8"/>
		</g>
	</g>
	<g transform="translate(88.770009, 105.000000)">
		<path class="st0" d="M-329,31.7c0,3.4,13.6,6.3,30.3,6.3s30.3-2.8,30.3-6.3v-4.8H-329V31.7"/>
		<g id="Group-42-Copy-2_159_" transform="translate(0.058825, 0.414566)">
			
				<linearGradient id="Fill-53_5_" gradientUnits="userSpaceOnUse" x1="-1026.2582" y1="262.1505" x2="-1025.8092" y2="262.0342" gradientTransform="matrix(52.4512 0 0 -11.5187 53518.0938 3045.1267)">
				<stop  offset="0" style="stop-color:#005263"/>
				<stop  offset="1" style="stop-color:#65D48E"/>
			</linearGradient>
			<path id="Fill-53_132_" class="st6" d="M-268.4,26.2c0,3.7-13.6,6.7-30.3,6.7s-30.3-3-30.3-6.7s13.6-6.7,30.3-6.7
				S-268.4,22.5-268.4,26.2"/>
			<path id="Fill-54_129_" class="st2" d="M-298.7,21.1c-12.9,0-23.4,2.3-23.4,5.1s10.5,5.1,23.4,5.1s23.4-2.3,23.4-5.1
				S-285.8,21.1-298.7,21.1z M-298.7,31.5c-13.2,0-24-2.4-24-5.2s10.7-5.2,24-5.2s24,2.4,24,5.2S-285.6,31.5-298.7,31.5L-298.7,31.5
				z"/>
			<path id="Fill-55_129_" class="st2" d="M-305.2,27.6v-0.4h4.3v0.4c0,0.4,0.6,0.6,1.8,0.6c1.4,0,2.2-0.2,2.2-0.6
				c0-0.1-0.1-0.3-0.4-0.4s-0.7-0.3-1.2-0.4c-0.4-0.1-0.9-0.2-1.5-0.3c-0.6-0.1-1.2-0.2-1.7-0.4c-0.6-0.1-1.2-0.2-1.6-0.4
				c-0.5-0.1-0.9-0.3-1.2-0.5s-0.4-0.4-0.4-0.6c0-0.8,1.4-1.3,4.3-1.4v-0.4h3.4v0.4c1.4,0.1,2.5,0.2,3.3,0.4
				c0.7,0.2,1.1,0.6,1.1,0.9v0.2h-3.9v-0.2c0-0.4-0.7-0.6-2-0.6s-2.1,0.2-2.1,0.6c0,0.1,0.1,0.3,0.4,0.4s0.7,0.3,1.2,0.4
				c0.4,0.1,1,0.2,1.6,0.3c0.6,0.1,1.2,0.2,1.7,0.3c0.6,0.1,1.1,0.2,1.6,0.4c0.4,0.1,0.9,0.3,1.2,0.5s0.4,0.4,0.4,0.6
				c0,0.4-0.4,0.7-1.2,0.9c-0.7,0.2-1.9,0.4-3.3,0.4v0.4h-3.4v-0.4c-1.4-0.1-2.6-0.2-3.3-0.4C-304.7,28.3-305.2,27.9-305.2,27.6"/>
		</g>
	</g>
	<g transform="translate(84.770009, 100.000000)">
		<path class="st0" d="M-329.7,31c0,3.4,13.6,6.3,30.3,6.3S-269,34.5-269,31v-4.8h-60.7V31"/>
		<g id="Group-42-Copy-2_158_" transform="translate(0.058825, 0.414566)">
			
				<linearGradient id="Fill-53_6_" gradientUnits="userSpaceOnUse" x1="-1022.27" y1="267.2168" x2="-1021.821" y2="267.1005" gradientTransform="matrix(52.4512 0 0 -11.5187 53308.2188 3102.8438)">
				<stop  offset="0" style="stop-color:#005263"/>
				<stop  offset="1" style="stop-color:#65D48E"/>
			</linearGradient>
			<path id="Fill-53_131_" class="st7" d="M-269.1,25.5c0,3.7-13.6,6.7-30.3,6.7s-30.3-3-30.3-6.7s13.6-6.7,30.3-6.7
				C-282.6,18.8-269.1,21.9-269.1,25.5"/>
			<path id="Fill-54_128_" class="st2" d="M-299.4,20.4c-12.9,0-23.4,2.3-23.4,5.1s10.5,5.1,23.4,5.1s23.4-2.3,23.4-5.1
				S-286.5,20.4-299.4,20.4z M-299.4,30.7c-13.2,0-24-2.4-24-5.2s10.7-5.2,24-5.2s24,2.4,24,5.2S-286.2,30.7-299.4,30.7L-299.4,30.7
				z"/>
			<path id="Fill-55_128_" class="st2" d="M-305.8,26.9v-0.4h4.3v0.4c0,0.4,0.6,0.6,1.8,0.6c1.4,0,2.2-0.2,2.2-0.6
				c0-0.1-0.1-0.3-0.4-0.4c-0.3-0.1-0.7-0.3-1.2-0.4c-0.4-0.1-0.9-0.2-1.5-0.3s-1.2-0.2-1.7-0.4s-1.2-0.2-1.6-0.4
				c-0.5-0.1-0.9-0.3-1.2-0.5s-0.4-0.4-0.4-0.6c0-0.8,1.4-1.3,4.3-1.4v-0.4h3.4v0.4c1.4,0.1,2.5,0.2,3.3,0.4
				c0.7,0.2,1.1,0.6,1.1,0.9v0.2h-3.9v-0.2c0-0.4-0.7-0.6-2-0.6s-2.1,0.2-2.1,0.6c0,0.1,0.1,0.3,0.4,0.4s0.7,0.3,1.2,0.4
				c0.4,0.1,1,0.2,1.6,0.3c0.6,0.1,1.2,0.2,1.7,0.3c0.6,0.1,1.1,0.2,1.6,0.4c0.4,0.1,0.9,0.3,1.2,0.5c0.3,0.2,0.4,0.4,0.4,0.6
				c0,0.4-0.4,0.7-1.2,0.9c-0.7,0.2-1.9,0.4-3.3,0.4v0.4h-3.4v-0.4c-1.4-0.1-2.6-0.2-3.3-0.4C-305.4,27.6-305.8,27.3-305.8,26.9"/>
		</g>
	</g>
	<g transform="translate(78.770009, 94.000000)">
		<path class="st0" d="M-330.6,29.7c0,3.4,13.6,6.3,30.3,6.3s30.3-2.8,30.3-6.3v-4.8h-60.7V29.7"/>
		<g id="Group-42-Copy-2_157_" transform="translate(0.058825, 0.414566)">
			
				<linearGradient id="Fill-53_7_" gradientUnits="userSpaceOnUse" x1="-1016.2888" y1="273.3018" x2="-1015.8397" y2="273.1855" gradientTransform="matrix(52.4512 0 0 -11.5187 52993.5781 3171.6465)">
				<stop  offset="0" style="stop-color:#005263"/>
				<stop  offset="1" style="stop-color:#65D48E"/>
			</linearGradient>
			<path id="Fill-53_130_" class="st8" d="M-270,24.2c0,3.7-13.6,6.7-30.3,6.7s-30.3-3-30.3-6.7s13.6-6.7,30.3-6.7
				C-283.6,17.6-270,20.6-270,24.2"/>
			<path id="Fill-54_127_" class="st2" d="M-300.3,19.1c-12.9,0-23.4,2.3-23.4,5.1s10.5,5.1,23.4,5.1s23.4-2.3,23.4-5.1
				C-277,21.4-287.4,19.1-300.3,19.1z M-300.3,29.4c-13.2,0-24-2.4-24-5.2s10.7-5.2,24-5.2s24,2.4,24,5.2
				C-276.4,27.1-287.1,29.4-300.3,29.4L-300.3,29.4z"/>
			<path id="Fill-55_127_" class="st2" d="M-306.7,25.6v-0.4h4.3v0.4c0,0.4,0.6,0.6,1.8,0.6c1.4,0,2.2-0.2,2.2-0.6
				c0-0.1-0.1-0.3-0.4-0.4s-0.7-0.3-1.2-0.4c-0.4-0.1-0.9-0.2-1.5-0.3c-0.6-0.1-1.2-0.2-1.7-0.4s-1.2-0.2-1.6-0.4
				c-0.5-0.1-0.9-0.3-1.2-0.5c-0.3-0.2-0.4-0.4-0.4-0.6c0-0.8,1.4-1.3,4.3-1.4v-0.4h3.4v0.4c1.4,0.1,2.5,0.2,3.3,0.4
				c0.7,0.2,1.1,0.6,1.1,0.9v0.2h-3.9v-0.2c0-0.4-0.7-0.6-2-0.6s-2.1,0.2-2.1,0.6c0,0.1,0.1,0.3,0.4,0.4s0.7,0.3,1.2,0.4
				c0.4,0.1,1,0.2,1.6,0.3c0.6,0.1,1.2,0.2,1.7,0.3c0.6,0.1,1.1,0.2,1.6,0.4c0.4,0.1,0.9,0.3,1.2,0.5s0.4,0.4,0.4,0.6
				c0,0.4-0.4,0.7-1.2,0.9c-0.7,0.2-1.9,0.4-3.3,0.4v0.4h-3.4v-0.4c-1.4-0.1-2.6-0.2-3.3-0.4C-306.4,26.4-306.7,26-306.7,25.6"/>
		</g>
	</g>
	<g transform="translate(82.770009, 87.000000)">
		<path class="st0" d="M-329.8,29.1c0,3.4,13.6,6.3,30.3,6.3s30.3-2.8,30.3-6.3v-4.8h-60.7V29.1"/>
		<g id="Group-42-Copy-2_156_" transform="translate(0.058825, 0.414566)">
			
				<linearGradient id="Fill-53_8_" gradientUnits="userSpaceOnUse" x1="-1020.2755" y1="280.3927" x2="-1019.8265" y2="280.2764" gradientTransform="matrix(52.4512 0 0 -11.5187 53203.4492 3252.6489)">
				<stop  offset="0" style="stop-color:#005263"/>
				<stop  offset="1" style="stop-color:#65D48E"/>
			</linearGradient>
			<path id="Fill-53_129_" class="st9" d="M-269.3,23.5c0,3.7-13.6,6.7-30.3,6.7s-30.3-3-30.3-6.7s13.6-6.7,30.3-6.7
				C-282.8,16.9-269.3,19.9-269.3,23.5"/>
			<path id="Fill-54_126_" class="st2" d="M-299.6,18.4c-12.9,0-23.4,2.3-23.4,5.1s10.5,5.1,23.4,5.1c12.9,0,23.4-2.3,23.4-5.1
				S-286.7,18.4-299.6,18.4z M-299.6,28.8c-13.2,0-24-2.4-24-5.2s10.7-5.2,24-5.2c13.2,0,24,2.4,24,5.2S-286.4,28.8-299.6,28.8
				L-299.6,28.8z"/>
			<path id="Fill-55_126_" class="st2" d="M-306,24.9v-0.4h4.3V25c0,0.4,0.6,0.6,1.8,0.6c1.4,0,2.2-0.2,2.2-0.6
				c0-0.1-0.1-0.3-0.4-0.4s-0.7-0.3-1.2-0.4c-0.4-0.1-0.9-0.2-1.5-0.3c-0.6-0.1-1.2-0.2-1.7-0.4c-0.6-0.1-1.2-0.2-1.6-0.4
				c-0.5-0.1-0.9-0.3-1.2-0.5s-0.4-0.4-0.4-0.6c0-0.8,1.4-1.3,4.3-1.4v-0.4h3.4v0.4c1.4,0.1,2.5,0.2,3.3,0.4
				c0.7,0.2,1.1,0.6,1.1,0.9v0.2h-4.1V22c0-0.4-0.7-0.6-2-0.6c-1.4,0-2.1,0.2-2.1,0.6c0,0.1,0.1,0.3,0.4,0.4
				c0.3,0.1,0.7,0.3,1.2,0.4c0.4,0.1,1,0.2,1.6,0.3s1.2,0.2,1.7,0.3c0.6,0.1,1.1,0.2,1.6,0.4c0.4,0.1,0.9,0.3,1.2,0.5
				s0.4,0.4,0.4,0.6c0,0.4-0.4,0.7-1.2,0.9c-0.7,0.2-1.9,0.4-3.3,0.4v0.4h-3.4v-0.4c-1.4-0.1-2.6-0.2-3.3-0.4
				C-305.6,25.6-306,25.3-306,24.9"/>
		</g>
	</g>
	<g transform="translate(91.770009, 80.000000)">
		<path class="st0" d="M-328.8,27.6c0,3.4,13.6,6.3,30.3,6.3s30.3-2.8,30.3-6.3v-4.8h-60.7V27.6"/>
		<g id="Group-42-Copy-2_155_" transform="translate(0.058825, 0.414566)">
			
				<linearGradient id="Fill-53_9_" gradientUnits="userSpaceOnUse" x1="-1029.2502" y1="287.4913" x2="-1028.8011" y2="287.3749" gradientTransform="matrix(52.4512 0 0 -11.5187 53675.2539 3332.9705)">
				<stop  offset="0" style="stop-color:#005263"/>
				<stop  offset="1" style="stop-color:#65D48E"/>
			</linearGradient>
			<path id="Fill-53_128_" class="st10" d="M-268.1,22.1c0,3.7-13.6,6.7-30.3,6.7s-30.3-3-30.3-6.7s13.6-6.7,30.3-6.7
				C-281.8,15.5-268.1,18.4-268.1,22.1"/>
			<path id="Fill-54_125_" class="st2" d="M-298.5,17c-12.9,0-23.4,2.3-23.4,5.1s10.5,5.1,23.4,5.1c12.9,0,23.4-2.3,23.4-5.1
				S-285.6,17-298.5,17z M-298.5,27.3c-13.2,0-24-2.4-24-5.2s10.7-5.2,24-5.2s24,2.4,24,5.2C-274.5,25-285.3,27.3-298.5,27.3
				L-298.5,27.3z"/>
			<path id="Fill-55_125_" class="st2" d="M-304.9,23.5v-0.4h4.3v0.4c0,0.4,0.6,0.6,1.8,0.6c1.4,0,2.2-0.2,2.2-0.6
				c0-0.1-0.1-0.3-0.4-0.4c-0.3-0.1-0.7-0.3-1.2-0.4c-0.4-0.1-0.9-0.2-1.5-0.3s-1.2-0.2-1.7-0.4s-1.2-0.2-1.6-0.4
				c-0.5-0.1-0.9-0.3-1.2-0.5s-0.4-0.4-0.4-0.6c0-0.8,1.4-1.3,4.3-1.4v-0.4h3.4v0.4c1.4,0.1,2.5,0.2,3.3,0.4
				c0.7,0.2,1.1,0.6,1.1,0.9v0.2h-3.9v-0.2c0-0.4-0.7-0.6-2-0.6c-1.4,0-2.1,0.2-2.1,0.6c0,0.1,0.1,0.3,0.4,0.4s0.7,0.3,1.2,0.4
				c0.4,0.1,1,0.2,1.6,0.3c0.6,0.1,1.2,0.2,1.7,0.3c0.6,0.1,1.1,0.2,1.6,0.4c0.4,0.1,0.9,0.3,1.2,0.5c0.3,0.2,0.4,0.4,0.4,0.6
				c0,0.4-0.4,0.7-1.2,0.9c-0.7,0.2-1.9,0.4-3.3,0.4v0.4h-3.4v-0.4c-1.4-0.1-2.6-0.2-3.3-0.4C-304.5,24.2-304.9,23.9-304.9,23.5"/>
		</g>
	</g>
	<g transform="translate(0.770009, 43.000000)">
		<path class="st2" d="M-297.6,99.7c0,0,3.3-2.5,12.9-8.7c20.7-13.3,28.3-37.1,13.4-39.9c-14.8-2.8-19.3,17.6-26,33.6
			c-3,7.1-6.1,10.2-6.1,10.2L-297.6,99.7z"/>
		<path class="st11" d="M-269.2,51.7c-3.3,7.9-8.7,19.7-13.9,26.1c-4.8,6-12.5,13.6-18.2,18.9l3.7,3c0,0,3.3-2.5,12.9-8.7
			C-265,78.3-257.2,56.3-269.2,51.7z"/>
		<path class="st12" d="M-269.2,51.7c-0.8,2.2-1.7,4.4-2.5,6.5c-0.9,2.1-1.9,4.3-2.8,6.4c-2,4.2-4.2,8.4-7,12.2
			c-2.8,3.8-6,7.1-9.4,10.5c-1.7,1.6-3.3,3.3-5.1,4.8c-1.7,1.5-3.5,3.1-5.2,4.6l4.9-5c1.6-1.7,3.2-3.3,4.8-5
			c1.6-1.7,3.1-3.4,4.7-5.2s3.1-3.5,4.4-5.4c2.7-3.7,4.9-7.8,7.1-11.9c1.1-2,2.1-4.2,3.1-6.2C-271.3,55.9-270.3,53.8-269.2,51.7z"/>
		<path class="st12" d="M-266,63.4c-0.3,0.5-0.7,1-0.9,1.5c-0.4,0.4-0.7,0.9-1.2,1.3c-0.8,0.8-1.7,1.6-2.8,2.2
			c-1,0.6-2.1,1.1-3.3,1.3c-1.2,0.2-2.5,0.3-3.6-0.2c1.2,0,2.3-0.3,3.3-0.7c1-0.4,2-0.9,3-1.5c0.9-0.6,1.8-1.2,2.8-1.9
			c0.4-0.4,0.9-0.7,1.4-1C-267,64-266.5,63.7-266,63.4z"/>
		<path class="st12" d="M-266.5,58.6c-0.2,0.4-0.4,0.7-0.7,1c-0.2,0.3-0.5,0.6-0.8,0.9c-0.6,0.6-1.2,1.1-1.9,1.5
			c-0.7,0.4-1.5,0.7-2.3,0.9c-0.8,0.1-1.7,0.1-2.4-0.1c0.8,0,1.5-0.2,2.3-0.4c0.7-0.3,1.4-0.6,2-1c0.7-0.4,1.2-0.9,1.9-1.3
			c0.3-0.2,0.6-0.5,0.9-0.7C-267.2,59-266.9,58.8-266.5,58.6z"/>
		<path class="st12" d="M-283.2,86c-0.3,0.3-0.6,0.5-0.9,0.7c-0.4,0.2-0.7,0.4-1,0.7c-0.7,0.4-1.5,0.7-2.3,0.9
			c-0.8,0.2-1.6,0.3-2.5,0.2c-0.8-0.1-1.7-0.4-2.3-0.9c0.8,0.2,1.5,0.3,2.3,0.2c0.7,0,1.5-0.1,2.3-0.4c0.7-0.1,1.5-0.4,2.2-0.7
			c0.4-0.1,0.7-0.3,1.1-0.4C-284,86.3-283.6,86.1-283.2,86z"/>
		<path class="st12" d="M-269.7,71.3c-0.4,0.5-0.7,1.1-1.1,1.6c-0.4,0.4-0.9,0.9-1.3,1.4c-0.9,0.9-2,1.6-3.2,2.2
			c-1.2,0.5-2.5,0.9-3.8,1c-1.3,0.1-2.6,0-3.8-0.6c1.2,0.1,2.5-0.1,3.6-0.4c1.2-0.3,2.3-0.7,3.4-1.2c0.5-0.3,1.1-0.5,1.6-0.9
			c0.5-0.3,1-0.7,1.5-0.9c0.5-0.4,0.9-0.7,1.5-1.1C-270.8,72.1-270.3,71.6-269.7,71.3z"/>
		<path class="st12" d="M-274.3,79.3c-0.4,0.5-0.7,1-1.1,1.5c-0.4,0.4-0.9,0.9-1.4,1.2c-0.9,0.7-2.1,1.2-3.3,1.5
			c-1.2,0.3-2.5,0.4-3.7,0.2c-1.2-0.1-2.4-0.5-3.4-1.2c1.2,0.2,2.3,0.3,3.5,0.3c1.2,0,2.3-0.1,3.3-0.4c1.1-0.3,2.1-0.7,3.1-1.2
			c0.5-0.2,1-0.6,1.5-0.9C-275.2,79.9-274.8,79.6-274.3,79.3z"/>
		<path class="st12" d="M-289.6,84.7c-1-1.7-1.5-3.6-1.5-5.5c0-0.9,0.1-1.9,0.2-2.9c0.1-0.9,0.4-1.9,0.8-2.8c0.1,2,0.1,3.8,0.1,5.6
			c0,0.9,0.1,1.8,0.1,2.8C-289.7,82.8-289.7,83.8-289.6,84.7z"/>
		<path class="st12" d="M-283.9,78.8c-0.9-1.1-1.5-2.4-1.9-3.7c-0.4-1.3-0.7-2.8-0.7-4.2c-0.1-1.4,0-2.8,0.2-4.2
			c0.2-1.4,0.5-2.8,1.1-4c-0.1,2.8-0.3,5.5-0.1,8.2c0.1,1.3,0.2,2.7,0.4,4C-284.7,76.1-284.4,77.4-283.9,78.8z"/>
		<path class="st12" d="M-278.5,71.3c-0.9-0.9-1.5-2.1-1.9-3.3c-0.4-1.2-0.4-2.5-0.5-3.8c0-1.3,0.1-2.5,0.4-3.8
			c0.3-1.2,0.6-2.5,1.2-3.6c-0.1,2.5-0.4,5-0.4,7.4c0,1.2,0,2.4,0.2,3.6C-279.3,69-279.1,70.2-278.5,71.3z"/>
		<path class="st12" d="M-275.3,64.6c-0.8-1.5-1-3.3-0.9-5c0.1-0.9,0.3-1.7,0.7-2.5c0.3-0.8,0.7-1.5,1.4-2.1c-0.5,1.6-0.8,3.1-1,4.7
			c-0.1,0.8-0.1,1.6-0.1,2.4S-275.2,63.8-275.3,64.6z"/>
		<path class="st12" d="M-294.9,90.7c-0.3-0.7-0.5-1.5-0.6-2.3c-0.1-0.8-0.1-1.5,0-2.3c0.1-0.7,0.3-1.5,0.5-2.3c0.2-0.7,0.6-1.5,1-2
			c-0.3,1.5-0.6,2.9-0.7,4.4c-0.1,0.7-0.1,1.5-0.2,2.2C-294.9,89.2-294.8,89.9-294.9,90.7z"/>
		<path class="st2" d="M-299.8,100.8c0,0,2-6.2,8.4-22.8c14-36,4.9-75.6-14.5-66.9c-19.1,8.5-9.2,40.6-4.9,68.7
			c1.9,12.4,0.6,19.3,0.6,19.3L-299.8,100.8z"/>
		<path class="st11" d="M-303.1,10.2c2.1,13.8,4.7,34.7,3.6,48.1c-1,12.5-4.3,29.5-6.8,41.5l6.5,1.1c0,0,2-6.2,8.4-22.8
			C-278.2,43.8-285.7,6.4-303.1,10.2z"/>
		<path class="st12" d="M-303.1,10.2c1.5,7.4,2.6,14.9,3.5,22.4c0.8,7.5,1.4,15.1,1.1,22.6c-0.4,7.6-1.6,15.1-3,22.5
			c-1.4,7.4-3.1,14.8-4.9,22.1c1.2-7.4,2.5-14.9,3.6-22.3c0.5-3.7,1.1-7.4,1.5-11.1s0.9-7.4,1-11.1c0.1-3.7,0.1-7.5-0.1-11.2
			s-0.4-7.5-0.7-11.2C-301.6,25.2-302.3,17.7-303.1,10.2z"/>
		<path class="st12" d="M-290.6,23.8c0.1,0.9,0.1,1.8,0.1,2.7c-0.1,0.9-0.1,1.8-0.3,2.7c-0.1,0.9-0.4,1.7-0.6,2.7
			c-0.3,0.9-0.5,1.7-0.9,2.6c-0.7,1.7-1.6,3.3-2.8,4.7c-0.3,0.4-0.7,0.7-0.9,1c-0.4,0.3-0.7,0.6-1.1,0.9c-0.7,0.5-1.6,1-2.5,1.2
			c0.7-0.5,1.4-1.1,1.9-1.8c0.6-0.7,1-1.4,1.5-2c0.9-1.5,1.7-3,2.3-4.6c0.1-0.4,0.4-0.8,0.4-1.2c0.1-0.4,0.3-0.8,0.4-1.2l0.8-2.5
			c0.2-0.9,0.5-1.7,0.7-2.5C-291.1,25.4-290.9,24.6-290.6,23.8z"/>
		<path class="st12" d="M-294.8,17.5c0.1,0.6,0,1.2,0,1.8c-0.1,0.6-0.1,1.2-0.2,1.8c-0.1,0.6-0.2,1.2-0.4,1.8
			c-0.2,0.6-0.4,1.2-0.6,1.7c-0.4,1.2-1.1,2.3-1.9,3.3c-0.8,0.9-1.8,1.8-3.1,2.1c1-0.7,1.7-1.7,2.3-2.6c0.6-1,1.2-2,1.5-3.1
			c0.4-1.1,0.8-2.2,1.2-3.3c0.1-0.6,0.4-1.2,0.5-1.7C-295.2,18.7-295,18.1-294.8,17.5z"/>
		<path class="st12" d="M-293.4,69.8c-0.1,0.6-0.3,1.2-0.4,1.7c-0.2,0.6-0.4,1.1-0.7,1.7c-0.2,0.5-0.6,1.1-0.8,1.6
			c-0.4,0.5-0.7,1-1,1.5c-0.7,0.9-1.7,1.8-2.7,2.4c-0.5,0.3-1.1,0.6-1.7,0.7s-1.2,0.2-1.8,0.1c0.6-0.1,1.1-0.4,1.6-0.7
			c0.5-0.3,0.9-0.6,1.4-0.9c0.9-0.7,1.6-1.5,2.3-2.4c0.7-0.9,1.3-1.8,2-2.8c0.3-0.5,0.7-0.9,0.9-1.5
			C-294.2,70.7-293.8,70.2-293.4,69.8z"/>
		<path class="st12" d="M-288.9,37.9c0.1,0.9,0,1.9,0,2.9c-0.1,0.9-0.2,1.9-0.4,2.9c-0.4,1.9-0.9,3.8-1.9,5.5
			c-0.9,1.7-2,3.4-3.6,4.7c-1.5,1.3-3.2,2.4-5.2,2.8c1.7-1,3-2.3,4.1-3.7c1.2-1.4,2.1-3,3-4.6s1.5-3.3,2.2-5.1
			c0.3-0.9,0.6-1.7,0.9-2.7C-289.5,39.7-289.3,38.8-288.9,37.9z"/>
		<path class="st12" d="M-288.1,52.8c0,0.9,0,1.8-0.1,2.7c-0.1,0.9-0.3,1.8-0.6,2.6c-0.1,0.4-0.3,0.9-0.4,1.3s-0.4,0.8-0.6,1.2
			c-0.4,0.9-0.9,1.6-1.5,2.3c-1.2,1.5-2.5,2.7-4.1,3.6c-1.6,0.9-3.4,1.5-5.2,1.5c1.7-0.7,3.1-1.6,4.4-2.6s2.5-2.2,3.6-3.5
			c0.3-0.3,0.5-0.7,0.7-1c0.3-0.3,0.4-0.7,0.7-1c0.2-0.4,0.4-0.7,0.7-1.1c0.1-0.4,0.4-0.7,0.6-1.2c0.1-0.2,0.2-0.4,0.3-0.6
			s0.1-0.4,0.2-0.6l0.5-1.2C-288.8,54.5-288.5,53.6-288.1,52.8z"/>
		<path class="st12" d="M-301.8,73.3c-1.3-0.8-2.5-1.8-3.5-3c-1-1.2-1.8-2.4-2.6-3.7c-0.7-1.3-1.4-2.7-1.9-4.2
			c-0.5-1.5-0.9-2.9-1-4.4c1.7,2.5,3,5.2,4.4,7.7c0.7,1.2,1.5,2.5,2.2,3.8C-303.4,70.7-302.6,72-301.8,73.3z"/>
		<path class="st12" d="M-299.8,60.3c-2-0.9-3.7-2.3-5.2-3.9c-1.5-1.6-2.8-3.3-3.9-5.2c-1.1-1.9-2-3.9-2.8-5.9
			c-0.7-2-1.4-4.2-1.6-6.3l2.9,5.8c0.5,0.9,0.9,1.9,1.5,2.8c0.5,0.9,1,1.8,1.5,2.8c1.1,1.8,2.3,3.6,3.5,5.2
			C-302.7,57.2-301.3,58.7-299.8,60.3z"/>
		<path class="st12" d="M-299.1,45.3c-2-0.5-3.6-1.9-4.9-3.3c-1.4-1.5-2.5-3.2-3.3-5c-0.9-1.7-1.7-3.6-2.3-5.5
			c-0.6-1.9-1.1-3.8-1.2-5.8c0.9,1.7,1.7,3.6,2.5,5.3c0.8,1.7,1.7,3.5,2.5,5.2c0.9,1.7,1.8,3.3,2.9,5
			C-301.9,42.7-300.7,44.2-299.1,45.3z"/>
		<path class="st12" d="M-300.3,33.3c-1.1-0.8-2-1.7-2.8-2.8s-1.5-2.3-2-3.5c-0.5-1.2-0.9-2.5-1-3.9c-0.2-1.3-0.2-2.7,0.1-4
			c0.7,2.5,1.5,5,2.4,7.4c0.5,1.2,1,2.3,1.6,3.5C-301.5,31-300.9,32.1-300.3,33.3z"/>
		<path class="st12" d="M-303.5,86c-0.9-0.8-1.7-1.7-2.5-2.8c-0.7-1-1.2-2.1-1.7-3.3c-0.4-1.2-0.8-2.3-1-3.5
			c-0.2-1.2-0.4-2.4-0.3-3.6c0.8,2.3,1.5,4.5,2.5,6.7c0.4,1.1,0.9,2.2,1.4,3.2C-304.6,83.9-304,84.9-303.5,86z"/>
		<path class="st2" d="M-308.4,100.5c0,0-0.4-5-0.7-19c-0.7-30.3-18.7-53.9-29.8-40.2c-11,13.5,5.4,31.6,16.6,49.2
			c4.9,7.7,6,13,6,13L-308.4,100.5z"/>
		<path class="st11" d="M-337.2,39.4c5.5,8.7,13.4,22,16.6,31.7c2.9,9,5.6,21.9,7.3,31.2l4.9-1.9c0,0-0.4-5-0.7-19
			C-309.9,52.7-326.1,30-337.2,39.4z"/>
		<path class="st12" d="M-337.2,39.4c3.3,4.7,6.3,9.4,9.2,14.3s5.5,10,7.4,15.4c1.9,5.4,3.2,10.9,4.4,16.5
			c1.2,5.5,2.1,11.1,2.9,16.7c-1.3-5.5-2.5-11-3.9-16.5c-0.7-2.8-1.4-5.5-2.1-8.2c-0.7-2.7-1.5-5.5-2.5-8.1
			c-0.9-2.6-2.1-5.2-3.3-7.7c-1.2-2.5-2.5-5-3.8-7.6C-331.7,49.3-334.4,44.4-337.2,39.4z"/>
		<path class="st12" d="M-324.5,43.8c0.3,0.7,0.6,1.3,0.9,2c0.2,0.7,0.4,1.4,0.6,2c0.1,0.7,0.3,1.4,0.4,2.1c0.1,0.7,0.1,1.5,0.1,2.2
			s-0.1,1.5-0.1,2.2c-0.1,0.7-0.2,1.5-0.5,2.1c-0.1,0.4-0.2,0.7-0.4,1c-0.1,0.3-0.3,0.7-0.5,0.9c-0.4,0.7-0.8,1.2-1.4,1.7
			c0.4-0.7,0.6-1.2,0.8-1.9c0.2-0.7,0.4-1.3,0.4-2c0.2-1.3,0.3-2.7,0.3-4c0-1.4-0.1-2.7-0.2-4.1c-0.1-0.7-0.1-1.4-0.2-2
			C-324.3,45.3-324.4,44.5-324.5,43.8z"/>
		<path class="st12" d="M-329.3,41.2c0.2,0.4,0.4,0.9,0.6,1.3c0.1,0.4,0.3,0.9,0.4,1.4c0.2,0.9,0.4,2,0.4,2.9c0,1-0.1,2-0.4,2.9
			s-0.8,1.9-1.5,2.5c0.4-0.9,0.7-1.7,0.9-2.7c0.1-0.9,0.2-1.8,0.2-2.8s-0.1-1.9-0.1-2.8c-0.1-0.4-0.1-0.9-0.1-1.4
			C-329.2,42.2-329.3,41.7-329.3,41.2z"/>
		<path class="st12" d="M-313.1,76.6c0.1,0.4,0.1,0.9,0.2,1.5c0,0.5,0,0.9,0,1.5s-0.1,0.9-0.1,1.5c-0.1,0.5-0.1,0.9-0.3,1.5
			c-0.3,0.9-0.7,1.8-1.2,2.7c-0.6,0.8-1.2,1.5-2.2,1.9c0.7-0.7,1.2-1.5,1.5-2.3c0.4-0.8,0.7-1.7,0.9-2.5c0.3-0.9,0.4-1.7,0.6-2.7
			c0.1-0.4,0.1-0.9,0.2-1.4C-313.2,77.5-313.1,77.1-313.1,76.6z"/>
		<path class="st12" d="M-319.2,52.9c0.3,0.7,0.6,1.4,0.9,2.1c0.2,0.7,0.4,1.5,0.6,2.3c0.3,1.5,0.4,3.1,0.2,4.7
			c-0.1,1.5-0.5,3.1-1.2,4.5c-0.7,1.5-1.5,2.8-2.8,3.7c0.8-1.3,1.4-2.7,1.7-4.1c0.4-1.4,0.7-2.8,0.8-4.3l0.1-1.1c0-0.4,0-0.7,0-1.1
			c0.1-0.7-0.1-1.5-0.1-2.2s-0.1-1.5-0.1-2.3C-319,54.4-319.1,53.7-319.2,52.9z"/>
		<path class="st12" d="M-314.2,62.9c0.3,0.7,0.5,1.3,0.7,2c0.1,0.7,0.4,1.4,0.4,2.2c0.1,1.5,0,2.9-0.4,4.4s-1,2.8-1.9,4
			c-0.9,1.2-1.9,2.3-3.2,2.9c0.9-1.1,1.7-2.3,2.3-3.5c0.3-0.6,0.6-1.2,0.9-1.8c0.1-0.3,0.2-0.7,0.4-0.9l0.3-0.9
			c0.1-0.3,0.1-0.7,0.2-0.9c0.1-0.4,0.1-0.7,0.1-1l0.1-1c0-0.4,0.1-0.7,0.1-1c0.1-0.7,0-1.4,0.1-2
			C-314.2,64.3-314.3,63.6-314.2,62.9z"/>
		<path class="st12" d="M-317.9,82.3c-1.1,0-2.2-0.3-3.3-0.7c-1-0.4-2-0.9-2.9-1.5c-0.9-0.7-1.7-1.3-2.5-2.1c-0.8-0.8-1.5-1.6-2-2.6
			c1.9,1.2,3.6,2.4,5.4,3.6c0.9,0.6,1.7,1.2,2.6,1.7C-319.7,81.2-318.8,81.7-317.9,82.3z"/>
		<path class="st12" d="M-320.3,72.6c-1.6,0.1-3.2-0.1-4.7-0.6s-3-1.2-4.3-2c-1.3-0.9-2.6-1.9-3.7-3c-1.2-1.1-2.2-2.3-3-3.6
			c1.2,0.9,2.5,1.9,3.7,2.8c1.2,0.9,2.5,1.8,3.8,2.6c1.3,0.8,2.6,1.5,4,2.3C-323.2,71.6-321.8,72.1-320.3,72.6z"/>
		<path class="st12" d="M-324.2,62c-1.5,0.4-3,0.1-4.4-0.4c-0.7-0.2-1.4-0.6-2-0.9c-0.7-0.4-1.2-0.7-1.8-1.2
			c-1.2-0.9-2.3-1.8-3.3-2.9c-1-1.1-1.9-2.2-2.6-3.5c1.2,0.9,2.3,1.8,3.3,2.7c1.1,0.9,2.2,1.7,3.3,2.5c1.1,0.8,2.3,1.6,3.5,2.2
			C-326.9,61.3-325.6,61.9-324.2,62z"/>
		<path class="st12" d="M-328.5,54.2c-0.9-0.1-2-0.4-2.8-0.9c-0.9-0.4-1.7-1-2.5-1.7c-0.7-0.7-1.4-1.5-1.9-2.3s-0.9-1.7-1.1-2.7
			c0.7,0.7,1.2,1.5,1.8,2.2c0.7,0.7,1.2,1.3,2,2c0.7,0.7,1.4,1.2,2.1,1.7C-330.1,53.1-329.3,53.6-328.5,54.2z"/>
		<path class="st12" d="M-315.3,91.7c-0.9-0.1-1.7-0.5-2.5-0.9c-0.8-0.4-1.5-0.9-2.2-1.6c-0.7-0.6-1.2-1.3-1.7-2
			c-0.5-0.7-0.9-1.5-1.3-2.3c1.2,1.3,2.4,2.5,3.6,3.7c0.6,0.6,1.3,1.1,2,1.7C-316.8,90.8-316,91.2-315.3,91.7z"/>
		<path class="st13" d="M-323.3,97.6l2.9,20.7c0.4,3.3,3.1,5.8,6.4,6.1l6,0.6c1.3,0.1,2.7,0.1,4-0.1l5.7-0.7
			c3.3-0.4,5.9-3.1,6.3-6.4l2.3-21.8L-323.3,97.6z"/>
		<path class="st14" d="M-292.9,96.2l-7.3,19.7c-1.2,3.3-4.7,5.4-8.2,5l-6.2-0.8c-1.5-0.2-2.8-0.5-4.1-1l-1.7-0.7
			c0.5,3.2,3.1,5.6,6.3,5.9l6,0.6c1.3,0.1,2.7,0.1,4-0.1l5.7-0.7c3.3-0.4,5.9-3.1,6.3-6.4l2.3-21.8L-292.9,96.2z"/>
		<path class="st15" d="M-290.4,102.7l0.6-6.6l-6.3,0.3c-4.9,0.7-9.4,0.8-13.3,0.6l-14,0.7l0.6,3.5
			C-308.1,103.9-296.5,104-290.4,102.7z"/>
		<path class="st13" d="M-323.5,93.5c5.6,1.6,18.6,4.3,35,0.2c1.4-0.4,2.7,0.7,2.7,2.1v2c0,1-0.7,1.9-1.6,2.1
			c-4.6,1.3-18.8,4.3-37.2,0.4c-1-0.2-1.8-1.2-1.8-2.2v-2.4C-326.4,94.2-324.9,93-323.5,93.5z"/>
		<path class="st16" d="M-285.7,95.8c0-1.2-1-2.2-2.2-2.2c0.1,0.3,0.2,0.7,0.2,0.9v2c0,1-0.7,1.9-1.6,2.1
			c-4.6,1.2-18.5,4.3-36.8,0.4c0.3,0.5,0.9,0.9,1.5,1.1c18.5,4,32.6,0.9,37.2-0.4c0.9-0.3,1.6-1.2,1.6-2.1V95.8z"/>
	</g>
	<g transform="translate(53.770009, 0.000000)">
		<polygon class="st17" points="-305.3,36.1 -300.3,39.1 -287.2,59.2 -269.6,44.7 -264.5,49.1 -284.8,75.2 -290.1,71.5 		"/>
		<path class="st18" d="M-243.2,3.9c0.1,0.1,0.2,0.1,0.3,0.1c0.1-0.1,0.3-0.1,0.4-0.1h-0.4H-243.2z"/>
		<path class="st2" d="M-281.5,3.5L-281.5,3.5c0.1,0.1,0.1,0,0.1,0C-281.5,3.5-281.5,3.5-281.5,3.5z"/>
		<g transform="translate(3.160937, 76.623249)">
			<polygon class="st19" points="-331.3,91.2 -331.4,94.3 -325.4,97.6 -322.1,94.6 -325.1,91.5 -331.2,88.2 			"/>
			<polygon class="st11" points="-322.3,15.1 -334,17.3 -327,48.4 -331.6,90.3 -325.5,91.7 -309.5,41.1 -309.4,26 -310.6,17.1 			
				"/>
		</g>
		<g transform="translate(17.701250, 60.791999)">
			<polygon class="st11" points="-307.5,16.2 -307.1,55.5 -314.7,106 -320.4,106 -324,59.4 -331.7,12.7 			"/>
			<polygon class="st19" points="-320.4,105.3 -320.4,108.4 -314.2,111.5 -311,108.4 -314.2,105.3 			"/>
		</g>
		<path class="st17" d="M-334.5,95.2c0.1,1.8,2.6,13,2,13.4c2.6-0.9,5.3-1.8,7.9-2.4c7-1.8,14.3-2.9,21.5-3.2
			c3.3-0.1,6.7-0.4,10,0.2c1.6,0.3,3.1,0.7,4.8,1.2c0.4,0.1,4.5,0.9,4.6,1c-0.7-5.1-0.5-10-0.9-15.1c-0.4-5.1-1-10.3-1.9-15.2
			c-1.5-7.9-5.4-14.5-8.6-21.8c-1.6-3.7-3.1-7.3-5.1-10.8c-1.6-2.7-4.4-6.5-7.5-7.5c-1-0.4-2.2-0.3-3.3-0.3
			c-3.4,0.1-6.7,0.3-10.1,0.4c-1.2,0.1-2.5,0.1-3.6,0.7c-1.6,0.9-2.4,2.7-3.1,4.4c-3.2,7.6-5,15.7-5.8,24c-0.4,4.3-0.7,8.6-1,13
			c-0.2,4.8-0.3,9.7-0.1,14.5C-334.6,91.8-334.6,93.4-334.5,95.2z"/>
		<path class="st2" d="M-314.4,55.3c0.3,2.2,0.1,4.3,0,6.5c-0.7,13.3-4.1,29.5-4.9,42.7c8.5-1.5,18.9-1.8,30.4-0.4
			c-0.7-4.9-2.1-14.5-2.8-19.4c-0.4-3.1-0.9-6.3-1.6-9.4c-1.2-4.9-3.5-9.5-5.6-14.1c-4-8.3-8-16.7-12.1-25.1
			c-0.2-0.4-0.4-0.9-0.8-1.2c-0.4-0.4-1-0.4-1.5-0.5c-2.6-0.4-5.6-0.6-8.1,0c-0.4,2.7,2.3,7.3,3.3,9.7
			C-316.6,47.8-314.9,51.3-314.4,55.3z"/>
		<path class="st11" d="M-305.3,17.4c0.6,1.7,0.6,3.6,0.3,5.3c-0.1,0.4-0.1,1,0.1,1.4c0.4,0.4-0.1,1,0.2,0.7c0.4-0.3,1.8-1.5,1.9-2
			c0.4-1.2,0.6-2.3,0.7-3.5c0.1-1,0.1-2.1-0.4-3.1c-0.3-0.5-0.7-1-1.2-1.4c-0.7-0.6-1.3-1.2-2.2-1.5c-1.5-0.6-2.5-0.2-1.4,1.1
			C-306.3,15.3-305.7,16.2-305.3,17.4z"/>
		<path class="st20" d="M-318.8,35.5c2,0.6,4,1.2,6,1.8c0.7-1.7,1.2-3.4,1.7-5.3c1.8,0.1,4-0.1,5-1.8c0.3-0.5,0.4-1.2,0.6-1.8
			c0.6-2.6,1.1-5.2,1.7-7.8c0.2-0.9,0.4-1.8,0.2-2.7c-0.2-1.5-1.4-2.7-2.6-3.5c-3.1-2.1-7.1-2.9-10.7-1.5c-1,0.4-1.9,0.9-2.6,1.7
			c-1,1.2-1.3,3.1-1.5,4.7c-0.2,1.5-0.4,3.1-0.7,4.6c-0.2,1.8-0.4,3.8,0.7,5.1c0.6,0.7,1.5,1,2,1.7
			C-317.9,31.9-318.8,33.8-318.8,35.5z"/>
		<path class="st11" d="M-304.6,27.5c0.1-0.5,0.1-1.9-0.7-1.2c-0.2,0.2-0.4,0.5-0.4,0.8c-0.1,0.3-0.1,0.7-0.3,0.9
			c-0.4,0.6-1.2,0.7-1.8,0.6c-0.3-0.1-0.5-0.1-0.7-0.4c-0.2-0.1-0.4-0.4-0.4-0.7c-0.3-0.6-0.7-1.2-1-1.7c-0.6-1-2-1-3.1-1
			c-1.2-0.1-2.3,0-3.4,0.6c-0.1,0.1-0.2,0.1-0.3,0.1c-0.3,0.1-0.5,0.3-0.8,0.4c-1,0.2-1.9-0.4-2.3-1.3c-0.2-0.4-0.4-1-0.8-1.1
			c-0.3-0.1-0.7,0.1-1,0.4s-0.4,0.7-0.4,1c-0.4,1.3-0.4,2.7-0.1,4c0.7,2.9,3.1,3.7,5.6,4.1c1,0.1,1.9,0.4,2.9,0.5
			c1.8,0.3,3.7,0.7,5.3-0.1c1.5-0.7,2.6-2,3.2-3.5C-304.9,29.3-304.7,28.4-304.6,27.5z"/>
		<path class="st11" d="M-301.3,13.6c0.3-0.6,0.6-1.2,0.8-1.8c-0.7,0.1-1.3,0-1.9-0.2c0.1-0.4,0.1-0.7,0.2-1.1
			c0.1-0.3-4.1-1.4-4.4-1.5c-3.1-1-6-1.8-9.2-0.7c-2.8,1-4.8,2.8-5.8,5.6c-1,2.6-0.8,6.4,0.3,8.9c0.1-0.7,0.1-2.5,0.4-3.1
			c0.2-0.7,0.7-1.2,1.1-1.8c0.9-1.1,2.1-1.9,3.4-2.4c2.1-0.8,4.4-1,6.7-0.8c2,0.1,4.5,0.4,6.4,1.3c0.9,0.4,1,0.7,1.8-0.1
			c0.1-0.1,1.3-1.9,1.2-2C-300.6,13.7-300.9,13.7-301.3,13.6z"/>
		<polygon class="st17" points="-325.4,36.1 -321.5,37.4 -309.2,66.9 -287.1,72.2 -287.2,78.5 -311.3,78.5 -319.8,74.2 -331.6,51.2 
			-330.1,41.9 		"/>
		<polygon class="st20" points="-269.7,45 -268.2,39.9 -264.1,37 -263.2,39.2 -264.9,41 -264.9,44.5 -266.4,48 		"/>
		<g transform="translate(37.931249, 20.264000)">
			
				<linearGradient id="Rectangle_1_" gradientUnits="userSpaceOnUse" x1="-1027.5858" y1="363.3324" x2="-1026.5027" y2="363.3343" gradientTransform="matrix(79.9541 0 0 -59.2981 81833.8516 21585.6289)">
				<stop  offset="0" style="stop-color:#005263"/>
				<stop  offset="1" style="stop-color:#65D48E"/>
			</linearGradient>
			<path id="Rectangle_134_" class="st21" d="M-325.8,23.8l74.9-17.4c2-0.4,4,0.8,4.5,2.8l10.1,43.8c0.4,2.1-0.8,4-2.8,4.5
				L-314,74.9c-2,0.4-4-0.8-4.5-2.8l-10.1-43.8C-329.1,26.3-327.7,24.2-325.8,23.8z"/>
			<polygon id="Rectangle_133_" class="st22" points="-327.4,33.3 -245.1,14.2 -243,23.4 -325.3,42.5 			"/>
			<polygon id="Rectangle_132_" class="st22" points="-315.8,48.4 -248.8,32.9 -247.8,37.5 -314.8,53 			"/>
			
				<ellipse id="Oval_296_" transform="matrix(0.9744 -0.225 0.225 0.9744 -21.7194 -67.0141)" class="st0" cx="-304.9" cy="61.8" rx="5.5" ry="5.5"/>
		</g>
		<polygon class="st20" points="-287.1,73.5 -282.4,70.1 -278.9,71.5 -278.5,72.8 -280.4,72.9 -281.3,75.6 -277.9,77.5 -279.6,78.7 
			-284.6,78.7 -287.1,77.8 		"/>
		<polygon class="st20" points="-264.3,36.2 -261.9,36.2 -259.9,37.8 -260.6,43 -263.2,43.3 -264.3,42.2 -265.5,36.7 		"/>
	</g>
</g>
<g id="Group-41_26_" transform="translate(841.376014, 51.134974) rotate(-13.000000) translate(-841.376014, -51.134974) translate(814.876014, 33.634974)">
	
		<linearGradient id="Rectangle_2_" gradientUnits="userSpaceOnUse" x1="-918.222" y1="140.4131" x2="-919.2458" y2="140.1851" gradientTransform="matrix(50.9887 7.676 11.7717 -33.2485 44855.4141 11653.4336)">
		<stop  offset="0" style="stop-color:#005263"/>
		<stop  offset="1" style="stop-color:#65D48E"/>
	</linearGradient>
	<path id="Rectangle_123_" class="st23" d="M-312.1-75.8l-53.5-3c-1.4-0.1-2.7,1-2.8,2.5l-1.8,31.2c-0.1,1.4,1,2.7,2.5,2.8l53.5,3
		c1.4,0.1,2.7-1,2.8-2.5l1.8-31.2C-309.6-74.5-310.7-75.7-312.1-75.8z"/>
	
		<rect id="Rectangle_122_" x="-368.8" y="-71.2" transform="matrix(-0.9984 -5.664741e-02 5.664741e-02 -0.9984 -674.4612 -154.89)" class="st22" width="58.8" height="6.5"/>
	
		<rect id="Rectangle_121_" x="-363.9" y="-59.1" transform="matrix(-0.9984 -5.664741e-02 5.664741e-02 -0.9984 -676.2314 -134.1046)" class="st22" width="47.8" height="3.3"/>
	<circle id="Oval_269_" class="st0" cx="-321.9" cy="-47.3" r="3.8"/>
</g>
<g id="Group-6-Copy-4_36_" transform="translate(542.876014, 99.000000)">
	<polygon id="Rectangle_120_" class="st24" points="-352.2,36.1 -361.8,18.4 -396.9,37.6 -387.4,55.3 	"/>
	
		<ellipse id="Oval_268_" transform="matrix(0.8754 -0.4833 0.4833 0.8754 -65.1714 -177.0745)" class="st2" cx="-376.1" cy="37.9" rx="8.4" ry="4.2"/>
</g>
<g id="Group-6-Copy-4_35_" transform="translate(605.876014, 49.000000)">
	<polygon id="Rectangle_119_" class="st24" points="-386.9,23.9 -379.9,10.9 -354.2,24.9 -361.1,37.9 	"/>
	
		<ellipse id="Oval_267_" transform="matrix(0.4833 -0.8754 0.8754 0.4833 -212.9288 -310.3701)" class="st2" cx="-369.4" cy="25.2" rx="3.1" ry="6.2"/>
</g>
<g id="Group-6-Copy-4_35_-Copy" transform="translate(815.876014, 102.000000)">
	<polygon class="st24" points="-354.3,37.6 -344.2,18.7 -306.9,39.2 -317,58.1 	"/>
	
		<ellipse transform="matrix(0.4833 -0.8754 0.8754 0.4833 -203.9879 -267.3929)" class="st2" cx="-328.5" cy="39.1" rx="4.6" ry="9"/>
</g>
<g id="Group-37_40_" transform="translate(469.876014, 91.000000)" class="st25">
	<circle id="Oval_266_" class="st26" cx="-370.9" cy="22.9" r="2.6"/>
	<circle id="Oval_265_" class="st27" cx="-379.4" cy="32.5" r="2.6"/>
	<circle id="Oval_264_" class="st26" cx="-373.3" cy="39.8" r="2.6"/>
	<circle id="Oval_263_" class="st26" cx="-381" cy="45" r="2.6"/>
	<circle id="Oval_262_" class="st27" cx="-371.8" cy="53.8" r="2.6"/>
	<path id="Path_79_" class="st28" d="M-373.2,79.3c0.1-0.1,1.1-1.9,1.5-5.8c0.4-3.6,0.1-9.6-2.9-18.1c-5.7-15.9,1.3-28.8,1.4-28.9
		l-0.4-0.2c0,0.1-1.8,3.3-2.9,8.6c-1.4,6.9-0.9,14.1,1.5,20.8c5.7,15.9,1.5,23.4,1.4,23.5L-373.2,79.3z"/>
</g>
<g id="Group-37_39_" transform="translate(749.876014, 71.000000)" class="st25">
	<circle id="Oval_261_" class="st26" cx="-366.7" cy="34.4" r="3.3"/>
	<circle id="Oval_260_" class="st27" cx="-377.4" cy="46.7" r="3.3"/>
	<circle id="Oval_259_" class="st26" cx="-369.8" cy="55.9" r="3.3"/>
	<circle id="Oval_258_" class="st26" cx="-379.4" cy="62.5" r="3.3"/>
	<circle id="Oval_257_" class="st27" cx="-367.7" cy="73.7" r="3.3"/>
	<path id="Path_77_" class="st28" d="M-369.5,106.1c0.1-0.1,1.4-2.5,1.9-7.4c0.4-4.5,0.2-12.2-3.7-22.9c-7.2-20.2,1.7-36.6,1.8-36.8
		l-0.4-0.2c0,0.1-2.3,4.2-3.7,10.9c-1.8,8.8-1.1,17.9,1.9,26.4c7.2,20.2,1.8,29.8,1.8,29.9L-369.5,106.1z"/>
</g>
<g>
	<path class="st0" d="M35.2,122.3c1.4,0.7,5.4-4.3,8.8-11.3c3.4-7,5.1-13.2,3.6-13.9l-2-1l-12.4,25.1L35.2,122.3"/>
	<g>
		
			<ellipse transform="matrix(0.4779 -0.8784 0.8784 0.4779 -74.5812 91.5278)" class="st2" cx="39.7" cy="108.5" rx="11.7" ry="2.8"/>
		<g id="Page-1_3_">
			<g id="Group_4_">
				
					<linearGradient id="Shape_6_" gradientUnits="userSpaceOnUse" x1="346.763" y1="469.5087" x2="355.2145" y2="459.5223" gradientTransform="matrix(0.5316 0.2597 -0.4323 0.885 54.0305 -393.6415)">
					<stop  offset="0" style="stop-color:#005263"/>
					<stop  offset="1" style="stop-color:#65D48E"/>
				</linearGradient>
				<path id="Shape_4_" class="st29" d="M43.8,100.1c-1.1-0.5-3.8,2.9-6.1,7.7c-2.3,4.8-3.4,9.1-2.3,9.6c1.1,0.5,3.8-2.9,6.1-7.7
					c1.1-2.3,2-4.6,2.4-6.4C44.3,101.5,44.3,100.4,43.8,100.1z M41.4,106.8c0.1,0.1,0,0.3-0.2,0.7c-0.2,0.4-0.4,0.5-0.4,0.5
					l-0.2-0.1c-0.7,1.4-1.5,2.3-1.7,2l-0.5,2.8c0,0.1-0.1,0.2-0.1,0.4s-0.2,0.3-0.2,0.4c-0.1,0.1-0.2,0.2-0.2,0.2c0,0-0.1-0.1,0-0.2
					l0.7-4c0-0.2,0.1-0.4,0.3-0.7c0.1-0.2,0.2-0.4,0.3-0.4l0.4,0.2c0.2,0.1,0.6-0.4,1-1l-0.8-0.4c-0.1-0.1,0-0.3,0.2-0.7
					c0.2-0.3,0.4-0.5,0.4-0.5l0.8,0.4c0.2-0.6,0.4-1.2,0.2-1.3l-0.4-0.2c-0.1-0.1,0-0.3,0.2-0.7c0.2-0.4,0.4-0.5,0.4-0.5l1.3,0.6
					c0.1,0.1,0,0.3-0.2,0.7c-0.2,0.3-0.4,0.5-0.4,0.5l-0.4-0.2c-0.1,0.4-0.3,0.8-0.5,1.2L41.4,106.8z"/>
				
					<linearGradient id="SVGID_1_" gradientUnits="userSpaceOnUse" x1="344.8774" y1="471.6834" x2="357.273" y2="457.0367" gradientTransform="matrix(0.5316 0.2597 -0.4323 0.885 54.0305 -393.6415)">
					<stop  offset="0" style="stop-color:#005263"/>
					<stop  offset="1" style="stop-color:#65D48E"/>
				</linearGradient>
				<path class="st30" d="M45.8,96.1c-1.5-0.8-5.6,4.3-9,11.3c-3.5,7-4.9,13.3-3.4,14.1c1.5,0.8,5.6-4.3,9-11.3
					c1.7-3.4,2.9-6.7,3.6-9.4C46.6,98.1,46.5,96.4,45.8,96.1z M34.7,118.6c-1.2-0.6,0-5.5,2.6-10.9c2.6-5.4,5.8-9.4,7-8.8
					c1.2,0.6,0,5.5-2.6,10.9c-1.3,2.6-2.7,5-4.1,6.6C36.4,118.1,35.3,118.9,34.7,118.6z"/>
			</g>
		</g>
	</g>
</g>
<g>
	<path class="st0" d="M265.5,153.1c2.9,1.5,11.1-8.9,18.1-23.2s10.4-27,7.4-28.4l-4.1-2.1l-25.5,51.5L265.5,153.1"/>
	<g>
		
			<ellipse transform="matrix(0.4779 -0.8784 0.8784 0.4779 33.7318 306.5035)" class="st2" cx="274.7" cy="124.9" rx="24" ry="5.7"/>
		<g id="Page-1_4_">
			<g id="Group_3_">
				
					<linearGradient id="Shape_7_" gradientUnits="userSpaceOnUse" x1="711.6135" y1="384.9994" x2="728.9277" y2="364.5408" gradientTransform="matrix(0.5316 0.2597 -0.4323 0.885 54.0305 -393.6415)">
					<stop  offset="0" style="stop-color:#005263"/>
					<stop  offset="1" style="stop-color:#65D48E"/>
				</linearGradient>
				<path id="Shape_3_" class="st31" d="M283.1,107.7c-2.2-1.1-7.8,6-12.6,15.9c-4.8,9.8-7,18.5-4.8,19.6c2.2,1.1,7.8-6,12.6-15.9
					c2.3-4.8,4.1-9.4,5-13.1C284.2,110.6,284.1,108.2,283.1,107.7z M278.1,121.4c0.1,0.1,0,0.6-0.4,1.3s-0.7,1.1-0.9,1.1l-0.5-0.2
					c-1.5,2.8-3.1,4.6-3.5,4.1l-1,5.7c0,0.2-0.1,0.5-0.2,0.9c-0.1,0.4-0.4,0.6-0.5,0.9c-0.2,0.2-0.4,0.4-0.5,0.4c0,0-0.1-0.1,0-0.4
					l1.3-8.2c0-0.4,0.2-0.9,0.6-1.3c0.2-0.5,0.5-0.7,0.6-0.7l0.7,0.4c0.5,0.2,1.2-0.7,2-2l-1.6-0.7c-0.1-0.1,0-0.6,0.4-1.3
					c0.4-0.6,0.7-1.1,0.9-1.1l1.6,0.7c0.5-1.2,0.9-2.4,0.4-2.7l-0.7-0.4c-0.1-0.1,0-0.6,0.4-1.3c0.4-0.7,0.7-1.1,0.9-1.1l2.6,1.2
					c0.1,0.1,0,0.6-0.4,1.3c-0.4,0.6-0.7,1.1-0.9,1.1l-0.7-0.4c-0.2,0.7-0.6,1.6-1,2.4L278.1,121.4z"/>
				
					<linearGradient id="SVGID_2_" gradientUnits="userSpaceOnUse" x1="707.7506" y1="389.4547" x2="733.1448" y2="359.4487" gradientTransform="matrix(0.5316 0.2597 -0.4323 0.885 54.0305 -393.6415)">
					<stop  offset="0" style="stop-color:#005263"/>
					<stop  offset="1" style="stop-color:#65D48E"/>
				</linearGradient>
				<path class="st32" d="M287.1,99.4c-3.2-1.6-11.5,8.9-18.4,23.2c-7.1,14.4-10.1,27.3-7,28.8c3.2,1.6,11.5-8.9,18.4-23.2
					c3.4-7,6-13.8,7.3-19.3C288.8,103.5,288.7,100.1,287.1,99.4z M264.5,145.5c-2.4-1.2,0-11.2,5.4-22.3
					c5.4-11.1,11.8-19.2,14.3-17.9c2.4,1.2,0,11.2-5.4,22.3c-2.6,5.4-5.6,10.2-8.3,13.5C268,144.5,265.8,146.1,264.5,145.5z"/>
			</g>
		</g>
	</g>
</g>
<g>
	<path class="st0" d="M118.6,64.9c1.1,1.7,8.8-1.2,17.1-6.7S150,47,148.9,45.3l-1.6-2.4l-30.2,19.6L118.6,64.9"/>
	<g>
		<ellipse transform="matrix(0.8593 -0.5114 0.5114 0.8593 -8.278 75.2321)" class="st2" cx="132.6" cy="52.7" rx="15.1" ry="3.6"/>
		<g id="Page-1_2_">
			<g id="Group_2_">
				
					<linearGradient id="Shape_8_" gradientUnits="userSpaceOnUse" x1="129.8924" y1="50.4313" x2="142.8896" y2="35.0737" gradientTransform="matrix(0.8599 0.5104 -0.5104 0.8599 37.349 -53.6815)">
					<stop  offset="0" style="stop-color:#005263"/>
					<stop  offset="1" style="stop-color:#65D48E"/>
				</linearGradient>
				<path id="Shape_2_" class="st33" d="M142.6,46.1c-0.8-1.3-6.1,0.7-11.8,4.5c-5.7,3.7-9.7,7.8-8.8,9.1c0.8,1.3,6.1-0.7,11.8-4.5
					c2.8-1.8,5.2-3.7,6.9-5.4C142.3,48,143,46.7,142.6,46.1z M135.6,51.9c0,0.1-0.2,0.3-0.6,0.6c-0.4,0.3-0.7,0.4-0.8,0.3l-0.2-0.3
					c-1.7,1-3.1,1.5-3.2,1.1l-2.4,2.8c-0.1,0.1-0.2,0.2-0.4,0.4c-0.2,0.2-0.4,0.2-0.5,0.3c-0.2,0.1-0.3,0.1-0.4,0c0,0,0-0.1,0.1-0.2
					l3.3-4c0.1-0.2,0.4-0.4,0.8-0.5c0.3-0.2,0.5-0.2,0.6-0.2l0.3,0.4c0.2,0.3,0.9,0,1.7-0.4l-0.6-0.9c0-0.1,0.2-0.3,0.6-0.6
					c0.4-0.2,0.7-0.4,0.8-0.3l0.6,0.9c0.7-0.5,1.2-1,1.1-1.3l-0.3-0.4c0-0.1,0.2-0.3,0.6-0.6s0.7-0.4,0.8-0.3l1,1.5
					c0,0.1-0.2,0.3-0.6,0.6c-0.4,0.2-0.7,0.4-0.8,0.3l-0.3-0.4c-0.4,0.3-0.8,0.7-1.3,1L135.6,51.9z"/>
				
					<linearGradient id="SVGID_3_" gradientUnits="userSpaceOnUse" x1="127.0284" y1="53.7772" x2="146.0379" y2="31.3154" gradientTransform="matrix(0.8599 0.5104 -0.5104 0.8599 37.349 -53.6815)">
					<stop  offset="0" style="stop-color:#005263"/>
					<stop  offset="1" style="stop-color:#65D48E"/>
				</linearGradient>
				<path class="st34" d="M147.5,42.9c-1.2-1.9-9,1.1-17.3,6.6c-8.4,5.5-14.2,11.5-13,13.3c1.2,1.9,9-1.1,17.3-6.6
					c4.1-2.7,7.6-5.5,10.1-8C147,45.7,148.1,43.8,147.5,42.9z M120.5,60.5c-0.9-1.4,3.6-6,10-10.3c6.4-4.3,12.5-6.5,13.4-5.1
					s-3.6,6-10,10.3c-3.1,2.1-6.3,3.7-8.8,4.6C122.7,61.1,121,61.3,120.5,60.5z"/>
			</g>
		</g>
	</g>
</g>
<g>
	<path class="st0" d="M344.9,65.4l2.5-2l-23.9-31.5l-2.5,1.9c-1.8,1.4,2.2,9.5,8.7,18.3C336.3,60.8,343.1,66.8,344.9,65.4"/>
	<g>
		<ellipse transform="matrix(0.7728 -0.6346 0.6346 0.7728 45.9672 223.4129)" class="st2" cx="335.1" cy="47.5" rx="4" ry="16.6"/>
		<g id="Page-1_1_">
			<g id="Group_1_">
				
					<linearGradient id="Shape_9_" gradientUnits="userSpaceOnUse" x1="221.6825" y1="58.2712" x2="235.97" y2="41.389" gradientTransform="matrix(-0.9822 0.1881 0.1881 0.9822 550.2081 -44.5176)">
					<stop  offset="0" style="stop-color:#005263"/>
					<stop  offset="1" style="stop-color:#65D48E"/>
				</linearGradient>
				<path id="Shape_1_" class="st35" d="M327.8,41.5c1.1,2.4,2.9,5.3,5.1,8.2c4.5,6.1,9.2,10.1,10.6,9.1c1.3-1-1.3-6.7-5.8-12.7
					c-4.5-6.1-9.2-10.1-10.6-9.1C326.6,37.4,326.8,39.1,327.8,41.5z M332.6,45.3c-0.4-0.5-0.7-1.1-1-1.5l-0.4,0.3
					c-0.1,0-0.4-0.3-0.7-0.6c-0.3-0.4-0.5-0.8-0.4-0.9l1.6-1.2c0.1,0,0.4,0.2,0.7,0.6c0.3,0.4,0.5,0.8,0.4,0.9l-0.4,0.3
					c-0.3,0.2,0.1,1,0.6,1.8l1-0.7c0.1,0,0.4,0.3,0.7,0.6c0.3,0.4,0.5,0.8,0.4,0.9l-1,0.7c0.7,0.7,1.3,1.3,1.6,1.1l0.4-0.3
					c0.1,0,0.3,0.1,0.5,0.4c0.3,0.3,0.5,0.6,0.6,0.8l2,5.4c0.1,0.1,0,0.2,0,0.2c-0.1,0-0.2-0.1-0.4-0.2c-0.1-0.1-0.3-0.3-0.4-0.5
					c-0.1-0.2-0.2-0.4-0.3-0.5l-1.4-3.8c-0.3,0.4-1.6-0.6-2.9-2.3l-0.3,0.2c-0.1,0-0.4-0.2-0.7-0.6s-0.5-0.8-0.4-0.9L332.6,45.3z"/>
				
					<linearGradient id="SVGID_4_" gradientUnits="userSpaceOnUse" x1="218.5342" y1="61.9493" x2="239.4309" y2="37.2575" gradientTransform="matrix(-0.9822 0.1881 0.1881 0.9822 550.2081 -44.5176)">
					<stop  offset="0" style="stop-color:#005263"/>
					<stop  offset="1" style="stop-color:#65D48E"/>
				</linearGradient>
				<path class="st36" d="M324.3,38.4c1.6,3.5,4.2,7.8,7.5,12.1c6.6,8.8,13.5,14.8,15.5,13.3c2-1.4-1.8-9.8-8.4-18.6
					c-6.6-8.8-13.5-14.8-15.5-13.3C322.4,32.6,322.7,34.9,324.3,38.4z M340,58c-2.2-1.9-4.9-4.8-7.4-8.1c-5.1-6.8-8-13.3-6.5-14.4
					c1.5-1.1,6.9,3.5,12,10.3c5.1,6.8,8,13.3,6.5,14.4C343.9,60.7,342.2,59.9,340,58z"/>
			</g>
		</g>
	</g>
</g>
<g>
	<path class="st0" d="M714.2,104.5l0-4.4l-53.5-1l-0.1,4.3c0,3,11.9,5.7,26.7,6.1S714.2,107.6,714.2,104.5"/>
	<g>
		
			<ellipse transform="matrix(0.9998 -1.898155e-02 1.898155e-02 0.9998 -1.7743 13.0578)" class="st2" cx="687" cy="100" rx="22.4" ry="5.3"/>
		<g id="Page-1_5_">
			<g id="Group_5_">
				
					<linearGradient id="Shape_10_" gradientUnits="userSpaceOnUse" x1="-133.2807" y1="156.5625" x2="-113.9755" y2="133.7512" gradientTransform="matrix(-0.4611 0.8873 0.8873 0.4611 500.9427 142.9572)">
					<stop  offset="0" style="stop-color:#005263"/>
					<stop  offset="1" style="stop-color:#65D48E"/>
				</linearGradient>
				<path id="Shape_5_" class="st37" d="M674.5,102.6c3.4,0.9,8,1.3,12.9,1.5c10.2,0.3,18.5-1.3,18.5-3.6c0-2.3-8.2-4.2-18.3-4.5
					c-10.2-0.3-18.5,1.3-18.5,3.6C669.2,100.6,671.1,101.7,674.5,102.6z M682.6,100.8c-0.9-0.1-1.7-0.1-2.4-0.2l0,0.8
					c-0.1,0.1-0.6,0.2-1.3,0.2c-0.8,0-1.2-0.1-1.3-0.3l0.1-2.6c0.1-0.1,0.5-0.2,1.3-0.2c0.8,0,1.2,0.1,1.3,0.3l0,0.8
					c0,0.5,1.2,0.7,2.4,0.8l0.1-1.6c0.1-0.1,0.6-0.2,1.3-0.2c0.8,0,1.2,0.1,1.3,0.3l-0.1,1.6c1.3-0.1,2.4-0.3,2.5-0.8l0-0.8
					c0.1-0.1,0.4-0.2,0.9-0.2c0.6-0.1,1.1-0.1,1.4,0.1l7.3,2.4c0.3,0,0.3,0.2,0.3,0.2c-0.1,0.1-0.2,0.1-0.5,0.2
					c-0.3,0-0.6,0.1-0.9,0s-0.6-0.1-0.8-0.2l-5.2-1.7c0.2,0.6-2,1.1-4.9,1.1l0,0.5c-0.1,0.1-0.5,0.2-1.3,0.2c-0.8,0-1.2-0.1-1.3-0.3
					L682.6,100.8z"/>
				
					<linearGradient id="SVGID_5_" gradientUnits="userSpaceOnUse" x1="-137.5347" y1="161.5323" x2="-109.2991" y2="128.1688" gradientTransform="matrix(-0.4611 0.8873 0.8873 0.4611 500.9427 142.9572)">
					<stop  offset="0" style="stop-color:#005263"/>
					<stop  offset="1" style="stop-color:#65D48E"/>
				</linearGradient>
				<path class="st38" d="M668.3,103.7c5.1,1.2,11.9,2.1,19.1,2.2c14.8,0.4,27-2,27.1-5.3c0.2-3.2-11.8-6.3-26.8-6.6
					c-14.8-0.4-27,2-27.1,5.3C660.5,100.9,663.3,102.5,668.3,103.7z M702.2,103.5c-3.9,0.8-9.2,1.2-14.7,1
					c-11.5-0.3-20.8-2.6-20.7-5.2c0-2.5,9.5-4.4,20.9-4.1c11.5,0.3,20.8,2.6,20.7,5.2C708.4,101.7,706.1,102.9,702.2,103.5z"/>
			</g>
		</g>
	</g>
</g>
</svg>
