<?xml version="1.0" encoding="utf-8"?>
<!-- Generator: Adobe Illustrator 23.0.1, SVG Export Plug-In . SVG Version: 6.00 Build 0)  -->
<svg version="1.1" id="Layer_1" xmlns="http://www.w3.org/2000/svg" xmlns:xlink="http://www.w3.org/1999/xlink" x="0px" y="0px"
	 viewBox="0 0 751 180" style="enable-background:new 0 0 751 180;" xml:space="preserve">
<style type="text/css">
	.st0{fill:#00BEC5;}
	.st1{fill:#FFFFFF;}
	.st2{fill:#007874;}
	.st3{fill:url(#Fill-53_1_);}
	.st4{fill:url(#Fill-53_2_);}
	.st5{fill:url(#Fill-53_3_);}
	.st6{fill:url(#Fill-53_4_);}
	.st7{fill:#097975;}
	.st8{fill:#8AF6B2;}
	.st9{fill:#78D195;}
	.st10{fill:#3D5954;}
	.st11{fill:url(#Fill-53_5_);}
	.st12{fill:#F0FFF2;}
	.st13{fill:#005263;}
	.st14{fill:#D8FFDE;}
	.st15{opacity:0.9098;fill:url(#Rectangle_1_);enable-background:new    ;}
	.st16{fill:#FFFEFF;}
	.st17{opacity:0.5974;fill:#005263;enable-background:new    ;}
	.st18{opacity:0.4957;}
	.st19{fill:#7FC98A;}
	.st20{fill:#47A395;}
	.st21{fill:#4F1221;fill-opacity:0.2299;}
	.st22{fill:url(#Shape_2_);}
	.st23{fill:url(#SVGID_1_);}
	.st24{fill:url(#Shape_3_);}
	.st25{fill:url(#SVGID_2_);}
	.st26{fill:#7E6068;}
	.st27{fill:#007D78;}
	.st28{fill:url(#Fill-42_1_);}
</style>
<title>Group 9</title>
<desc>Created with Sketch.</desc>
<g transform="translate(66.499999, 0.000000)">
	<path class="st0" d="M563.9,109.4c2.5,12.1-3.8,23.8-3.6,35.8c0,0.6,0.8,4.6,1.3,7.3c0.3,1.5,0.6,2.5,0.6,2.4
		c0.6-0.5,1.1-0.9,1.8-1.3c12-9.2,26.2-15.5,41.1-18c1.9-0.4,3.9-0.6,5.4-1.8c3.7-2.9,0.4-6.7-2.9-7.6c-1.8-0.4-3.8-1-4.3-2.7
		c-2.2-6.1,9.2-7.9,12.5-8c2.8-0.1,5.9-0.3,8.1-2s3.2-5.4,1.3-7.3c-2.2-2.2-6.6-1.2-8.4-3.8c-1.2-1.8-0.2-4.4,1.5-5.7
		c1.8-1.3,4-1.6,6.1-1.9c5.3-0.7,10.6-1.4,16-2.1c2.9-0.4,6-0.8,8.3-2.6c2.4-1.8,3.6-5.3,2-7.8c-3.2-4.5-12-0.3-15.3-4.8
		c-1.8-2.4-0.6-5.9,1.5-7.9c2.2-2,5.1-2.9,7.8-4c9.9-4.1,18.1-12.2,22.4-22.2c2.5-5.9,3.2-13.3,2.8-19.6c-0.6-12-7.6-20.9-19.9-14.9
		c-5.6,2.7-9.5,8.5-9.9,14.7c-0.3,4.3,1,9-0.8,13.2c-2.1,4.8-10.6,6.2-10.2-0.8c0.1-2,1-3.8,1.3-5.7c0.3-1.9,0.1-4.2-1.4-5.4
		c-1.5-1.2-3.8-0.8-5.6-0.1c-5.7,2.6-8.8,9.4-8.4,15.5c0.2,3.1,1.3,6.2,0.9,9.2c-0.4,3.1-3.2,6.2-6.2,5.4c-3.6-1-3.6-6-2.7-9.6
		s2-8.1-1-10.4c-2-1.5-4.9-1-6.9,0.6c-1.9,1.5-2.9,3.9-3.7,6.3c-2.2,6.8-2.7,14.1-1.4,21.1c0.4,2,0.9,4.1,0.6,6.2
		c-0.3,2-1.9,4.1-3.9,4.2c-3.5,0.2-5.2-4.6-8.7-5.7c-3.4-1-6.7,2.6-6.9,6.1c-0.2,3.5,1.7,6.7,3.4,9.8c2,3.4,6.2,10.8,2.2,14.1
		c-5.2,4.3-7.7-3.6-11.3-5.3c-3.4-1.6-7.3,2.1-7.8,5.9C561.4,102,563.1,105.7,563.9,109.4z"/>
	<path class="st1" d="M561.7,152.5c0.3,1.5,0.6,2.5,0.6,2.4c0.6-0.5,1.1-0.9,1.8-1.3c2.1-10.4,5.6-20.3,10-30
		c8.8-19.3,22.3-37,39.1-50.1c8.8-6.9,18.5-12.3,27.2-19.2c6.9-5.6,14.8-13.7,16.1-22.9c0.1-0.6-0.7-0.8-0.9-0.3
		c-2.5,6-5.2,11.7-9.9,16.4c-4.5,4.5-9.7,8.4-15,12c-9.2,6.2-18.2,12.2-26.4,19.7c-7.5,6.9-14.1,14.4-19.9,22.7
		C573.5,117.4,565.9,134.3,561.7,152.5z"/>
</g>
<g transform="translate(101.499998, 142.099998)">
	<path class="st2" d="M559.8,19c0,3.4,13.2,6.2,29.4,6.2c16.2,0,29.4-2.7,29.4-6.2v-4.8h-58.8V19"/>
	<g id="Group-42-Copy-2_191_" transform="translate(0.065788, 0.468598)">
		
			<linearGradient id="Fill-53_1_" gradientUnits="userSpaceOnUse" x1="-151.0575" y1="228.8655" x2="-150.6689" y2="228.763" gradientTransform="matrix(58.8 0 0 -13.02 9460.1084 2992.6704)">
			<stop  offset="0" style="stop-color:#005263"/>
			<stop  offset="1" style="stop-color:#65D48E"/>
		</linearGradient>
		<path id="Fill-53_194_" class="st3" d="M618.6,13.5c0,3.6-13.2,6.5-29.4,6.5c-16.2,0-29.4-2.9-29.4-6.5S573,7,589.2,7
			C605.5,7,618.6,9.9,618.6,13.5"/>
		<path id="Fill-54_191_" class="st1" d="M589.2,8.5c-12.5,0-22.7,2.2-22.7,5s10.2,5,22.7,5c12.5,0,22.7-2.2,22.7-5
			C611.8,10.7,601.7,8.5,589.2,8.5z M589.2,18.6c-12.8,0-23.2-2.3-23.2-5.1c0-2.9,10.4-5.1,23.2-5.1s23.2,2.3,23.2,5.1
			C612.4,16.3,602,18.6,589.2,18.6L589.2,18.6z"/>
		<path id="Fill-55_191_" class="st1" d="M583,14.9v-0.4h4.1v0.4c0,0.3,0.6,0.6,1.8,0.6c1.4,0,2.1-0.2,2.1-0.6
			c0-0.1-0.1-0.3-0.4-0.4c-0.3-0.1-0.6-0.3-1.1-0.4c-0.4-0.1-0.9-0.2-1.5-0.3c-0.6-0.1-1.1-0.2-1.7-0.4s-1.1-0.2-1.5-0.4
			c-0.5-0.1-0.8-0.3-1.1-0.5c-0.3-0.2-0.4-0.3-0.4-0.6c0-0.8,1.4-1.3,4.2-1.4v-0.4h3.3v0.4c1.4,0.1,2.5,0.2,3.2,0.4
			c0.7,0.2,1,0.6,1,0.9v0.2h-3.8V12c0-0.3-0.6-0.6-2-0.6c-1.3,0-2,0.2-2,0.6c0,0.1,0.1,0.3,0.4,0.4c0.3,0.1,0.6,0.3,1.1,0.4
			c0.5,0.1,1,0.2,1.5,0.3s1.1,0.2,1.7,0.4c0.6,0.1,1,0.2,1.5,0.3c0.5,0.1,0.8,0.3,1.1,0.5c0.3,0.2,0.4,0.4,0.4,0.6
			c0,0.4-0.4,0.7-1.1,0.9c-0.8,0.2-1.8,0.4-3.2,0.4v0.4h-3.3v-0.4c-1.4-0.1-2.5-0.2-3.2-0.4C583.4,15.6,583,15.3,583,14.9"/>
	</g>
</g>
<g transform="translate(104.299998, 135.099998)">
	<path class="st2" d="M560,18.6c0,3.4,13.2,6.2,29.4,6.2s29.4-2.7,29.4-6.2v-4.8H560V18.6"/>
	<g id="Group-42-Copy-2_190_" transform="translate(0.065788, 0.468598)">
		
			<linearGradient id="Fill-53_2_" gradientUnits="userSpaceOnUse" x1="-153.8578" y1="235.8654" x2="-153.4692" y2="235.7628" gradientTransform="matrix(58.8 0 0 -13.02 9624.8877 3083.4604)">
			<stop  offset="0" style="stop-color:#005263"/>
			<stop  offset="1" style="stop-color:#65D48E"/>
		</linearGradient>
		<path id="Fill-53_193_" class="st4" d="M618.8,13.2c0,3.6-13.2,6.5-29.4,6.5S560,16.7,560,13.2s13.2-6.5,29.4-6.5
			C605.5,6.6,618.8,9.6,618.8,13.2"/>
		<path id="Fill-54_190_" class="st1" d="M589.3,8.1c-12.5,0-22.7,2.2-22.7,5s10.2,5,22.7,5c12.5,0,22.7-2.2,22.7-5
			S601.8,8.1,589.3,8.1z M589.3,18.3c-12.8,0-23.2-2.3-23.2-5.1c0-2.9,10.4-5.1,23.2-5.1s23.2,2.3,23.2,5.1
			C612.5,16,602.1,18.3,589.3,18.3L589.3,18.3z"/>
		<path id="Fill-55_190_" class="st1" d="M583.1,14.6v-0.4h4.1v0.4c0,0.4,0.6,0.6,1.8,0.6c1.4,0,2.1-0.2,2.1-0.6
			c0-0.1-0.1-0.3-0.4-0.4c-0.3-0.1-0.6-0.3-1.1-0.4c-0.4-0.1-0.9-0.2-1.5-0.3s-1.1-0.2-1.7-0.4c-0.6-0.1-1.1-0.2-1.5-0.3
			c-0.5-0.1-0.8-0.3-1.1-0.5c-0.3-0.2-0.4-0.4-0.4-0.6c0-0.8,1.4-1.3,4.2-1.4V9.9h3.3v0.4c1.4,0.1,2.5,0.2,3.2,0.4
			c0.7,0.2,1.1,0.6,1.1,0.9v0.2h-3.9v-0.2c0-0.4-0.6-0.6-2-0.6c-1.3,0-2,0.2-2,0.6c0,0.1,0.1,0.3,0.4,0.4c0.3,0.1,0.6,0.3,1.1,0.3
			c0.5,0.1,1,0.2,1.5,0.3c0.6,0.1,1.1,0.2,1.7,0.4s1,0.2,1.5,0.4c0.5,0.1,0.8,0.3,1.1,0.5c0.3,0.2,0.4,0.3,0.4,0.6
			c0,0.4-0.4,0.7-1.1,0.9c-0.8,0.2-1.8,0.4-3.2,0.4v0.4h-3.3v-0.4c-1.4-0.1-2.5-0.2-3.2-0.4S583.1,14.9,583.1,14.6"/>
	</g>
</g>
<g transform="translate(102.199998, 127.399998)">
	<path class="st2" d="M560.1,19c0,3.4,13.2,6.2,29.4,6.2s29.4-2.7,29.4-6.2v-4.8h-58.8V19"/>
	<g id="Group-42-Copy-2_189_" transform="translate(0.065788, 0.468598)">
		
			<linearGradient id="Fill-53_3_" gradientUnits="userSpaceOnUse" x1="-151.7576" y1="243.5654" x2="-151.369" y2="243.4628" gradientTransform="matrix(58.8 0 0 -13.02 9501.5479 3184.0642)">
			<stop  offset="0" style="stop-color:#005263"/>
			<stop  offset="1" style="stop-color:#65D48E"/>
		</linearGradient>
		<path id="Fill-53_192_" class="st5" d="M618.9,13.5c0,3.6-13.2,6.5-29.4,6.5s-29.4-2.9-29.4-6.5S573.3,7,589.5,7
			S618.9,9.9,618.9,13.5"/>
		<path id="Fill-54_189_" class="st1" d="M589.5,8.5c-12.5,0-22.7,2.2-22.7,5s10.2,5,22.7,5c12.5,0,22.7-2.2,22.7-5
			C612.1,10.8,602,8.5,589.5,8.5z M589.5,18.7c-12.8,0-23.2-2.3-23.2-5.1c0-2.9,10.4-5.1,23.2-5.1s23.2,2.3,23.2,5.1
			C612.7,16.4,602.3,18.7,589.5,18.7L589.5,18.7z"/>
		<path id="Fill-55_189_" class="st1" d="M583.3,14.9v-0.4h4.1v0.4c0,0.3,0.6,0.6,1.8,0.6c1.4,0,2.1-0.2,2.1-0.6
			c0-0.1-0.1-0.3-0.4-0.4c-0.3-0.1-0.6-0.3-1.1-0.4c-0.4-0.1-0.9-0.2-1.5-0.3s-1.1-0.2-1.7-0.4c-0.6-0.1-1.1-0.2-1.5-0.3
			c-0.5-0.1-0.8-0.3-1.1-0.5c-0.3-0.2-0.4-0.4-0.4-0.6c0-0.8,1.4-1.3,4.2-1.4v-0.4h3.3v0.4c1.4,0.1,2.4,0.2,3.2,0.4
			c0.7,0.2,1,0.6,1,0.9v0.2h-3.8V12c0-0.4-0.6-0.6-2-0.6s-2,0.2-2,0.6c0,0.1,0.1,0.3,0.4,0.4c0.3,0.1,0.6,0.3,1.1,0.3
			c0.5,0.1,1,0.2,1.5,0.3c0.6,0.1,1.1,0.2,1.7,0.3s1.1,0.2,1.5,0.4c0.5,0.1,0.8,0.3,1.1,0.5c0.3,0.2,0.4,0.3,0.4,0.6
			c0,0.4-0.3,0.7-1.1,0.9s-1.8,0.4-3.2,0.4v0.4h-3.3v-0.4c-1.4-0.1-2.5-0.2-3.2-0.4C583.6,15.6,583.3,15.3,583.3,14.9"/>
	</g>
</g>
<g transform="translate(104.999998, 120.399998)">
	<path class="st2" d="M559.8,18.6c0,3.4,13.2,6.2,29.4,6.2s29.4-2.7,29.4-6.2v-4.8h-58.8V18.6"/>
	<g id="Group-42-Copy-2_188_" transform="translate(0.065788, 0.468598)">
		
			<linearGradient id="Fill-53_4_" gradientUnits="userSpaceOnUse" x1="-154.5579" y1="250.5654" x2="-154.1693" y2="250.4629" gradientTransform="matrix(58.8 0 0 -13.02 9665.8379 3274.8542)">
			<stop  offset="0" style="stop-color:#005263"/>
			<stop  offset="1" style="stop-color:#65D48E"/>
		</linearGradient>
		<path id="Fill-53_191_" class="st6" d="M618.6,13.2c0,3.6-13.2,6.5-29.4,6.5s-29.4-2.9-29.4-6.5s13.2-6.5,29.4-6.5
			S618.6,9.6,618.6,13.2"/>
		<path id="Fill-54_188_" class="st1" d="M589.1,8.2c-12.5,0-22.7,2.2-22.7,5s10.1,5,22.7,5c12.5,0,22.7-2.2,22.7-5
			S601.6,8.2,589.1,8.2z M589.1,18.3c-12.8,0-23.2-2.3-23.2-5.1c0-2.9,10.4-5.1,23.2-5.1s23.2,2.3,23.2,5.1S601.9,18.3,589.1,18.3
			L589.1,18.3z"/>
		<path id="Fill-55_188_" class="st1" d="M582.9,14.6v-0.4h4.1v0.4c0,0.4,0.6,0.6,1.8,0.6c1.4,0,2.1-0.2,2.1-0.6
			c0-0.1-0.1-0.3-0.4-0.4c-0.3-0.1-0.6-0.3-1.1-0.3c-0.4-0.1-0.9-0.2-1.5-0.3c-0.6-0.1-1.1-0.2-1.7-0.3c-0.6-0.1-1.1-0.2-1.5-0.4
			c-0.5-0.1-0.8-0.3-1.1-0.5c-0.3-0.2-0.4-0.4-0.4-0.6c0-0.8,1.4-1.3,4.2-1.4V9.9h3.3v0.4c1.4,0.1,2.5,0.2,3.2,0.4
			c0.7,0.2,1,0.6,1,0.9v0.2h-3.8v-0.2c0-0.4-0.6-0.6-2-0.6s-2,0.2-2,0.6c0,0.1,0.1,0.3,0.4,0.4c0.3,0.1,0.6,0.3,1.1,0.3
			c0.5,0.1,1,0.2,1.5,0.3c0.6,0.1,1.1,0.2,1.7,0.3c0.6,0.1,1,0.2,1.5,0.4c0.5,0.1,0.8,0.3,1.1,0.5c0.3,0.2,0.4,0.4,0.4,0.6
			c0,0.4-0.4,0.7-1.1,0.9c-0.8,0.2-1.8,0.4-3.2,0.4v0.4h-3.3v-0.4c-1.4-0.1-2.5-0.2-3.2-0.4C583.3,15.3,582.9,15,582.9,14.6"/>
	</g>
</g>
<path class="st7" d="M658.6,79.8l-7,16.9c-1.3,3-4.3,4.9-7.6,4.6c-1.5-0.1-3.4-0.6-5.5-1.3c-1.3-0.5-2.6-1.3-3.6-2.2
	c-2-1.5-2.7-4.1-1.7-6.4l0,0C637.4,81.1,648.7,76.1,658.6,79.8C658.6,79.7,658.6,79.8,658.6,79.8z"/>
<path class="st7" d="M606.6,166.2h-15c-1.7,0-3.1-1.4-3.1-3.1V155c0-1.7,1.4-3.1,3.1-3.1h15c1.7,0,3.1,1.4,3.1,3.1v8.1
	C609.7,164.8,608.3,166.2,606.6,166.2z"/>
<path class="st7" d="M653.8,166.2h-15c-1.7,0-3.1-1.4-3.1-3.1V155c0-1.7,1.4-3.1,3.1-3.1h15c1.7,0,3.1,1.4,3.1,3.1v8.1
	C656.9,164.8,655.5,166.2,653.8,166.2z"/>
<path id="Shape" class="st7" d="M575.5,121.4c-0.3,1.8-3.4,4.8-8.7,1.1c0.9-0.6,2-1.3,2.7-3l0,0c0.9-2.2,0.1-4.4-1.1-5.9
	c-1.1-1.3-2.9-2.4-4.5-2.5c-5-0.2-3.2,7.4,0.1,10.8l0.2,0.2c0.1,0.2,0.3,0.3,0.4,0.4c-0.8,0.8-2.1,1.7-3.6,2.1
	c-0.5,0.1-0.8,0.6-0.8,1.3l0,0c0,0.2,0.1,0.3,0.4,0.4c0.6,0.1,2.2,0.1,5.2-2.7c2.1,1.9,4.8,3.4,6.9,3.4c2.2-0.1,4.7-1.4,5-4.3
	L575.5,121.4z M565.9,114c0.6,0.3,1,0.8,1.3,1.4c0.1,0.3,0.3,0.8,0.4,1.1c0.2,0.8,0.1,1.5-0.1,2.2c-0.7,1.5-1.5,2.4-1.5,2.4
	C562.4,118.9,561.7,111.8,565.9,114z"/>
<path class="st7" d="M670.6,136.6V117c0-1.2,0.9-2.1,2-2.1h5.3l0,0c3.9,1.8,6.6,6.4,6.6,12c0,5.5-2.7,10.2-6.6,12v-0.1h-5.2
	c-0.6,0-1.1-0.2-1.5-0.6C670.8,137.8,670.6,137.3,670.6,136.6z"/>
<path class="st8" d="M676,122.5c0,4.8-1,9.3-2.7,13.6c-7,16.7-26.5,28.6-49.4,28.6c-28.8,0-52.2-18.9-52.2-42.2
	c0-11.1,5.2-21.1,13.9-28.6c9.5-8.3,23.2-13.6,38.4-13.6C652.6,80.3,676,99.2,676,122.5z"/>
<path class="st9" d="M674.6,132.1c-0.4,1.3-0.8,2.7-1.4,4c-7,16.7-26.5,28.6-49.4,28.6c-28.8,0-52.2-18.9-52.2-42.2
	c0-11.1,5.2-21.1,13.9-28.6c1.4-1.2,2.9-2.4,4.4-3.4c-0.9,3.1-1.3,6.3-1.3,9.6c0,23.3,23.4,42.2,52.2,42.2
	C653.6,142.2,665.5,138.4,674.6,132.1z"/>
<path class="st7" d="M670.2,83.4l-8.5,16.1c-1.5,2.9-4.8,4.5-8,3.9c-1.5-0.3-3.3-0.8-5.4-1.9c-1.3-0.6-2.4-1.5-3.4-2.5
	c-1.8-1.7-2.2-4.3-1.1-6.5l0,0C648.9,82.9,660.6,78.8,670.2,83.4L670.2,83.4z"/>
<path class="st10" d="M636.7,93.3c-9.5-4.2-20.4-4.2-30,0c-0.7,0.4-1.6,0.1-2-0.6l0,0c-0.3-0.7,0-1.5,0.8-1.9
	c10.3-4.6,22-4.6,32.3,0c0.8,0.3,1.2,1.3,0.8,1.9l0,0C638.3,93.4,637.4,93.7,636.7,93.3z"/>
<g id="Group-42-Copy-2_187_" transform="translate(29.465788, 16.568598)">
	
		<linearGradient id="Fill-53_5_" gradientUnits="userSpaceOnUse" x1="-78.8898" y1="368.0399" x2="-78.3051" y2="367.3444" gradientTransform="matrix(60.9 0 0 -60.76 5377.4961 22378.3633)">
		<stop  offset="0" style="stop-color:#005263"/>
		<stop  offset="1" style="stop-color:#65D48E"/>
	</linearGradient>
	<path id="Fill-53_190_" class="st11" d="M621.2,37.2c0,16.7-13.7,30.4-30.5,30.4S560.3,54,560.3,37.2S574,6.9,590.8,6.9
		S621.2,20.4,621.2,37.2"/>
	<path id="Fill-54_187_" class="st1" d="M590.8,13.9c-13,0-23.5,10.5-23.5,23.4s10.5,23.4,23.5,23.4s23.5-10.5,23.5-23.4
		C614.2,24.3,603.7,13.9,590.8,13.9z M590.8,61.2c-13.2,0-24-10.8-24-23.9c0-13.2,10.8-23.9,24-23.9s24.1,10.7,24.1,23.9
		C614.9,50.4,604,61.2,590.8,61.2L590.8,61.2z"/>
</g>
<path class="st12" d="M647.3,78.5c-9.2,0.1-11.3,2.2-11.3,11.4c-0.1-9.2-2.1-11.3-11.4-11.3c9.2-0.1,11.3-2.2,11.3-11.4
	C635.9,76.4,638,78.5,647.3,78.5z"/>
<path class="st12" d="M647.9,69.6c-4.8,0.1-5.9,1.1-5.8,5.9c0-4.8-1.1-5.9-5.9-5.8c4.8,0,5.9-1.1,5.8-5.9
	C642,68.5,643.1,69.6,647.9,69.6z"/>
<path class="st12" d="M719.2,64.9c-0.1,1.3,0.9,2.4,2.2,2.4s2.5-1.1,2.5-2.4l0.3-4.3c0-0.2,0-0.4-0.1-0.5c-0.2-1-1-1.8-2.2-1.8
	c-0.6,0-1.3,0.3-1.8,0.7c-0.4,0.4-0.8,1-0.8,1.7l-0.2,4L719.2,64.9z"/>
<g transform="translate(158.199997, 57.399999)">
	<path class="st13" d="M565.7,7c0,0-0.9,1.7-2.9,2.9c0,0,0.6,0.8,0.8,1.7c0,0,2.3-1.3,3.1-4.3L565.7,7z"/>
	<path class="st13" d="M561,7.4l-1,0.3c0,2.5,1.8,3.7,1.8,3.7c0.3-1,1.1-1.6,1.1-1.6C560.9,8.7,561,7.4,561,7.4z"/>
</g>
<path class="st14" d="M719.2,64.6c0.7,0.1,1.9-0.1,2.9-1.1c0.8-0.8,1.8-2.6,2.1-3.6c-0.2-1-1-1.8-2.2-1.8c-0.6,0-1.3,0.3-1.8,0.7
	c-0.4,0.4-0.8,1-0.8,1.7L719.2,64.6z"/>
<path class="st12" d="M716.9,56.6c-0.5,3.5,0,6.4,3,6.9c2.9,0.4,4.8-2.4,6.3-5.5c2.4-5,1.2-8.4-5.5-7.6
	C717.8,50.7,717.4,53.1,716.9,56.6z"/>
<path class="st13" d="M728,51.2c-0.1-2-2.2-2.8-4.4-2.7c-2.5,0.2-3.5-0.8-3.5-0.8c-4.6,0.6-2.1,3.8-1.8,3.9c0.7,0.4,2.7,1.1,4.3,1.1
	c1.1,0,2.1-0.1,2.8-0.4c0,0.7,0.1,1.5-0.4,2.3c-1.3,2,1.4,2.6,1.4,2.6C726.4,57.3,732.1,52.3,728,51.2z"/>
<path class="st12" d="M725,57.6c-0.4,0.9-0.5,1.8,0.3,2.2c0.8,0.3,1.8-0.5,2.2-1.4s0-1.7-0.8-2C725.9,56,725.4,56.6,725,57.6z"/>
<path class="st12" d="M700.6,67.8c1,0.6,3.6,2,3.5,0.7c-0.1-0.9-2.1-2-2.9-2.2C700.3,66.3,700.6,67.8,700.6,67.8z"/>
<path class="st12" d="M718,97.9c-0.8,0.8-2.6,3.3-1.3,3.4c0.9,0.1,2.4-1.8,2.6-2.5C719.6,97.9,718,97.9,718,97.9z"/>
<path class="st12" d="M717.8,98.1c-0.6,0.4-1.8,1.2-1.7,1.4c0.4,0.5,1.7-0.4,2-0.7C718.2,98.5,717.8,98.1,717.8,98.1z"/>
<g id="Group-41_25_" transform="translate(680.484628, 49.797657) rotate(-13.000000) translate(-680.484628, -49.797657) translate(649.484628, 24.297657)">
	
		<linearGradient id="Rectangle_1_" gradientUnits="userSpaceOnUse" x1="-756.3727" y1="187.6133" x2="-755.5239" y2="187.6151" gradientTransform="matrix(59.4691 11.2121 13.7295 -48.565 42089.1367 17550.4531)">
		<stop  offset="0" style="stop-color:#005263"/>
		<stop  offset="1" style="stop-color:#65D48E"/>
	</linearGradient>
	<path id="Rectangle_118_" class="st15" d="M-317.5-47.8l45.4-18.6c1.2-0.5,2.6,0.1,3.1,1.3l10.9,26.5c0.5,1.2-0.1,2.6-1.3,3.1
		l-45.4,18.6c-1.2,0.5-2.6-0.1-3.1-1.3l-10.9-26.5C-319.3-45.9-318.7-47.3-317.5-47.8z"/>
	
		<rect id="Rectangle_117_" x="-318.4" y="-52" transform="matrix(-0.9256 0.3786 -0.3786 -0.9256 -579.8604 16.0663)" class="st16" width="53.8" height="6"/>
	
		<rect id="Rectangle_116_" x="-309.8" y="-41.7" transform="matrix(-0.9256 0.3786 -0.3786 -0.9256 -569.632 31.5971)" class="st16" width="43.8" height="3"/>
	<circle id="Oval_246_" class="st2" cx="-300.5" cy="-26" r="3.5"/>
</g>
<g id="Group-6-Copy-4_34_" transform="translate(784.858535, 21.781476)">
	<polygon id="Rectangle_115_" class="st17" points="-325.9,30.3 -313.1,6.4 -265.8,32.3 -278.6,56.1 	"/>
	
		<ellipse id="Oval_245_" transform="matrix(0.4833 -0.8754 0.8754 0.4833 -180.3581 -240.2348)" class="st1" cx="-293.7" cy="32.7" rx="5.7" ry="11.3"/>
</g>
<g id="Group-6-Copy-4_33_" transform="translate(672.858537, 114.881475)">
	<polygon id="Rectangle_114_" class="st17" points="-285.8,22.8 -294.3,6.9 -326,24.1 -317.4,40.1 	"/>
	
		<ellipse id="Oval_244_" transform="matrix(0.8754 -0.4833 0.4833 0.8754 -50.0781 -145.4779)" class="st1" cx="-307.3" cy="24.4" rx="7.6" ry="3.8"/>
</g>
<g id="Group-6-Copy-4_32_" transform="translate(477.558541, 50.481476)">
	<polygon id="Rectangle_113_" class="st17" points="-286.6,22.7 -295,7.1 -326.2,24.1 -317.7,39.8 	"/>
	
		<ellipse id="Oval_243_" transform="matrix(0.8754 -0.4833 0.4833 0.8754 -50.1036 -145.7123)" class="st1" cx="-307.8" cy="24.4" rx="7.5" ry="3.8"/>
</g>
<g id="Group-6-Copy-4_32_-Copy" transform="translate(359.180022, 128.500000) rotate(49.000000) translate(-359.180022, -128.500000) translate(343.180022, 115.000000)">
	<polygon class="st17" points="-177.4,263.6 -184.1,251.1 -209.1,264.7 -202.3,277.2 	"/>
	<ellipse transform="matrix(0.4833 0.8754 -0.8754 0.4833 131.4629 307.0154)" class="st1" cx="-194.4" cy="264.9" rx="3" ry="6"/>
</g>
<g id="Group-37_36_" transform="translate(775.180022, 87.000000)" class="st18">
	<circle id="Oval_242_" class="st19" cx="-322.7" cy="9.8" r="3.1"/>
	<circle id="Oval_241_" class="st20" cx="-312.7" cy="21.3" r="3.1"/>
	<circle id="Oval_240_" class="st19" cx="-319.9" cy="29.8" r="3.1"/>
	<circle id="Oval_239_" class="st19" cx="-310.8" cy="36" r="3.1"/>
	<circle id="Oval_238_" class="st20" cx="-321.8" cy="46.5" r="3.1"/>
	<path id="Path_71_" class="st21" d="M-320.1,76.8c-0.1-0.1-1.3-2.3-1.8-6.9c-0.4-4.3-0.1-11.4,3.4-21.4c6.7-18.9-1.5-34.2-1.6-34.3
		l0.4-0.3c0,0.1,2.2,3.9,3.4,10.1c1.7,8.2,1.1,16.7-1.8,24.6c-6.7,18.9-1.8,27.8-1.7,27.9L-320.1,76.8z"/>
</g>
<g id="Group-37_36_-Copy" transform="translate(435.680022, 110.500000) scale(-1, 1) translate(-435.680022, -110.500000) translate(426.180022, 75.000000)" class="st18">
	<circle class="st19" cx="330" cy="9.8" r="3.1"/>
	<circle class="st20" cx="340.1" cy="21.3" r="3.1"/>
	<circle class="st19" cx="332.9" cy="29.8" r="3.1"/>
	<circle class="st19" cx="342" cy="36" r="3.1"/>
	<circle class="st20" cx="331" cy="46.5" r="3.1"/>
	<path class="st21" d="M332.7,76.8c-0.1-0.1-1.3-2.3-1.8-6.9c-0.4-4.3-0.1-11.4,3.4-21.4c6.7-18.9-1.5-34.2-1.6-34.3l0.4-0.3
		c0,0.1,2.2,3.9,3.4,10.1c1.7,8.2,1.1,16.7-1.8,24.6c-6.7,18.9-1.8,27.8-1.7,27.9L332.7,76.8z"/>
</g>
<g id="Group-37_35_" transform="translate(580.422519, 85.421155)" class="st18">
	<circle id="Oval_237_" class="st19" cx="-322.7" cy="10.1" r="3.1"/>
	<circle id="Oval_236_" class="st20" cx="-312.7" cy="21.6" r="3.1"/>
	<circle id="Oval_235_" class="st19" cx="-319.9" cy="30.2" r="3.1"/>
	<circle id="Oval_234_" class="st19" cx="-310.8" cy="36.4" r="3.1"/>
	<circle id="Oval_233_" class="st20" cx="-321.8" cy="46.9" r="3.1"/>
	<path id="Path_69_" class="st21" d="M-320.1,77.1c-0.1-0.1-1.3-2.3-1.8-6.9c-0.4-4.3-0.1-11.4,3.4-21.4c6.7-18.9-1.5-34.2-1.6-34.3
		l0.4-0.3c0,0.1,2.2,3.9,3.4,10.1c1.7,8.2,1.1,16.7-1.8,24.6c-6.7,18.9-1.8,27.8-1.7,27.9L-320.1,77.1z"/>
</g>
<g>
	<g>
		<g>
			<path class="st1" d="M621,45.7c0,1.2,0.1,2.3,0.1,3.5c0,0.6,0.1,1.1,0.1,1.7c0-0.2,0-0.2,0-0.4c-0.1,0.5-0.2,1-0.3,1.5
				c0.1-0.1,0-0.2,0.1-0.3c-0.2,0.4-0.4,1-0.7,1.3c0.1-0.1,0.2-0.2,0.2-0.2c-0.2,0.4-0.6,0.8-0.9,1.1c0.1-0.1,0.2-0.2,0.2-0.2
				c-0.3,0.3-0.8,0.6-1.2,0.8c0.1-0.1,0.3-0.1,0.3-0.1c-0.4,0.2-1,0.4-1.5,0.5c0.1-0.1,0.2,0,0.3-0.1c-0.6,0.2-1.3,0.1-1.8,0.2
				c-0.6,0-1.2,0-1.9,0.1l0,0c-0.7,0.1-1.3,0.7-1.2,1.4v0.2c0,0.4,0.1,0.7,0.5,0.9l0,0c0.1,0.1,0.1,0.1,0.2,0.2
				c0.3,0.3,0.6,0.6,0.9,0.9c1,1,2.1,1.9,3.1,2.9c1,1,2.1,1.9,3.2,3c0.5,0.5,1,1,1.6,1.4l0,0c0.5,0.5,1.4,0.4,1.9-0.1
				c0.5-0.5,0.4-1.4-0.1-1.9c-0.5-0.5-0.9-0.9-1.5-1.3c-1-1-2.1-1.9-3.1-2.9c-1-1-2.1-1.9-3.1-2.9c-0.4-0.4-0.8-0.8-1.4-1.2
				c0.1,0.3,0.2,0.6,0.5,0.9v-0.2c-0.4,0.4-0.9,0.9-1.2,1.4c0.6,0,1.1-0.1,1.6,0c0.6,0,1.2,0,1.7-0.1c1.2-0.2,2.4-0.6,3.4-1.4
				c1-0.8,1.7-1.7,2.3-2.9c0.2-0.6,0.4-1.2,0.5-1.9c0.1-0.5,0.1-0.9,0.1-1.3c0-0.6-0.1-1.1-0.1-1.7c-0.1-0.9,0-1.8-0.1-2.7
				c-0.1-0.7-0.7-1.3-1.4-1.2C621.6,44.3,621,44.9,621,45.7L621,45.7z"/>
		</g>
	</g>
	<g>
		<g>
			<path class="st1" d="M613.8,47.3c0.6,0,1.3-0.1,1.9-0.1c1.4,0,2.8-0.2,4.2-0.2c1.5-0.1,2.9-0.1,4.4-0.2c0.8,0,1.6,0,2.5-0.1l0,0
				c0.7-0.1,1.3-0.7,1.2-1.4s-0.7-1.3-1.4-1.2c-0.6,0-1.3,0.1-1.9,0.1c-1.4,0-2.8,0.2-4.2,0.2c-1.5,0.1-2.9,0.1-4.4,0.2
				c-0.8,0-1.6,0-2.5,0.1l0,0c-0.7,0.1-1.3,0.7-1.2,1.4C612.3,46.8,613,47.3,613.8,47.3L613.8,47.3z"/>
		</g>
	</g>
	<g>
		<g>
			<path class="st1" d="M626.7,49c-0.6,0-1.3,0.1-1.9,0.1c-1.4,0-2.8,0.2-4.2,0.2c-1.5,0.1-2.9,0.1-4.4,0.2c-0.8,0-1.6,0-2.5,0.1
				l0,0c-0.7,0.1-1.3,0.7-1.2,1.4c0.1,0.7,0.7,1.3,1.4,1.2c0.6,0,1.3-0.1,1.9-0.1c1.4,0,2.8-0.2,4.2-0.2c1.5-0.1,2.9-0.1,4.4-0.2
				c0.8,0,1.6,0,2.5-0.1l0,0c0.7-0.1,1.3-0.7,1.2-1.4C628,49.5,627.4,48.9,626.7,49L626.7,49z"/>
		</g>
	</g>
</g>
<g>
	<path class="st2" d="M219.4,170.1l3.7-1.9l-22.4-45.1l-3.7,1.8c-2.6,1.3,0.3,12.4,6.5,24.9C209.6,162.4,216.8,171.4,219.4,170.1"/>
	<g>
		
			<ellipse transform="matrix(0.8784 -0.4779 0.4779 0.8784 -43.7811 118.7187)" class="st1" cx="211.4" cy="145.4" rx="5.1" ry="21.1"/>
		<g id="Page-1_4_">
			<g id="Group_5_">
				
					<linearGradient id="Shape_2_" gradientUnits="userSpaceOnUse" x1="882.5479" y1="357.1077" x2="897.7108" y2="339.1913" gradientTransform="matrix(-0.5316 0.2597 0.4323 0.885 533.9219 -393.7138)">
					<stop  offset="0" style="stop-color:#005263"/>
					<stop  offset="1" style="stop-color:#65D48E"/>
				</linearGradient>
				<path id="Shape_5_" class="st22" d="M203.8,136.1c0.8,3.2,2.4,7.4,4.4,11.5c4.2,8.6,9.1,14.8,11,13.9c1.9-0.9,0-8.6-4.2-17.2
					c-4.2-8.6-9.1-14.8-11-13.9C203.2,130.8,203.1,132.8,203.8,136.1z M209,142.1c-0.3-0.8-0.6-1.5-0.8-2.2l-0.6,0.3
					c-0.1,0.1-0.5-0.3-0.8-0.9c-0.3-0.6-0.4-1.1-0.3-1.2l2.3-1.1c0.1-0.1,0.5,0.3,0.8,0.9c0.3,0.6,0.4,1.1,0.3,1.2l-0.7,0.3
					c-0.4,0.2-0.1,1.3,0.3,2.4l1.3-0.6c0.1-0.1,0.5,0.3,0.8,0.9s0.4,1.1,0.3,1.2l-1.3,0.6c0.6,1,1.3,1.9,1.7,1.7l0.7-0.3
					c0.1-0.1,0.3,0.2,0.6,0.6c0.2,0.4,0.4,0.9,0.5,1.2l1.2,7.1c0,0.1,0,0.3-0.1,0.3c-0.1,0.1-0.2-0.1-0.4-0.3
					c-0.1-0.2-0.3-0.5-0.4-0.8c-0.1-0.3-0.2-0.6-0.3-0.7l-0.8-5c-0.4,0.5-1.9-1.1-3.1-3.6l-0.5,0.2c-0.1,0.1-0.5-0.3-0.8-0.9
					c-0.3-0.6-0.4-1.1-0.3-1.2L209,142.1z"/>
				
					<linearGradient id="SVGID_1_" gradientUnits="userSpaceOnUse" x1="879.2122" y1="361.0493" x2="901.4509" y2="334.7719" gradientTransform="matrix(-0.5316 0.2597 0.4323 0.885 533.9219 -393.7138)">
					<stop  offset="0" style="stop-color:#005263"/>
					<stop  offset="1" style="stop-color:#65D48E"/>
				</linearGradient>
				<path class="st23" d="M200.2,131.5c1.1,4.7,3.5,10.8,6.4,16.8c6.2,12.6,13.4,21.7,16.2,20.4c2.8-1.3,0.1-12.6-6.1-25.2
					c-6.2-12.6-13.4-21.7-16.2-20.4C199.2,123.7,199.1,126.8,200.2,131.5z M215,159.7c-2.4-2.9-4.9-7.2-7.2-11.9
					c-4.7-9.7-6.9-18.5-4.7-19.5c2.2-1,7.7,6,12.5,15.7c4.7,9.7,6.9,18.5,4.7,19.5C219.3,164,217.3,162.6,215,159.7z"/>
			</g>
		</g>
	</g>
</g>
<g>
	<path class="st2" d="M731,132.2l-0.3-4.2l-50.3,2l0.1,4.1c0.2,2.9,11.5,4.8,25.4,4.3C719.9,137.9,731.1,135,731,132.2"/>
	<g>
		
			<ellipse transform="matrix(0.9969 -7.809506e-02 7.809506e-02 0.9969 -7.9497 55.4665)" class="st1" cx="705.2" cy="129.4" rx="21.1" ry="5.1"/>
		<g id="Page-1_1_">
			<g id="Group_1_">
				
					<linearGradient id="Shape_3_" gradientUnits="userSpaceOnUse" x1="683.1703" y1="178.2175" x2="691.5833" y2="168.2767" gradientTransform="matrix(0.4078 -0.9131 0.9131 0.4078 267.049 685.9732)">
					<stop  offset="0" style="stop-color:#005263"/>
					<stop  offset="1" style="stop-color:#65D48E"/>
				</linearGradient>
				<path id="Shape_1_" class="st24" d="M693.6,132.5c3.2,0.6,7.7,0.8,12.3,0.7c9.6-0.3,17.2-2.3,17.2-4.4c0-2.1-7.9-3.5-17.4-3.2
					s-17.2,2.3-17.2,4.4C688.5,131,690.3,131.9,693.6,132.5z M701.1,130.2c-0.8,0-1.6,0-2.3-0.1l0.1,0.7c0,0.2-0.5,0.3-1.1,0.3
					c-0.6,0-1.2-0.1-1.2-0.2l-0.1-2.5c0-0.2,0.5-0.3,1.1-0.3c0.6,0,1.2,0.1,1.2,0.2l0,0.8c0,0.5,1.1,0.6,2.3,0.6l0-1.5
					c0-0.2,0.5-0.3,1.1-0.3c0.6,0,1.2,0.1,1.2,0.2l0,1.5c1.2-0.1,2.3-0.3,2.3-0.8l0-0.8c0-0.1,0.3-0.2,0.8-0.3c0.5,0,1,0,1.3,0
					l7,1.8c0.1,0.1,0.3,0.1,0.2,0.2c0,0.1-0.1,0.2-0.5,0.2c-0.2,0-0.6,0.1-0.9,0.1c-0.3,0-0.6,0-0.7,0l-4.9-1.3
					c0.3,0.6-1.8,1.3-4.6,1.4l0,0.5c0,0.2-0.5,0.3-1.1,0.3c-0.6,0-1.2-0.1-1.2-0.2L701.1,130.2z"/>
				
					<linearGradient id="SVGID_2_" gradientUnits="userSpaceOnUse" x1="681.3352" y1="180.3758" x2="693.6301" y2="165.8482" gradientTransform="matrix(0.4078 -0.9131 0.9131 0.4078 267.049 685.9732)">
					<stop  offset="0" style="stop-color:#005263"/>
					<stop  offset="1" style="stop-color:#65D48E"/>
				</linearGradient>
				<path class="st25" d="M687.9,133.9c4.8,0.9,11.2,1.2,18,1c14-0.5,25.3-3.4,25.2-6.5s-11.5-5.2-25.5-4.7
					c-14,0.5-25.3,3.4-25.2,6.5C680.4,131.7,683.2,133,687.9,133.9z M719.7,131.9c-3.6,1-8.6,1.6-13.8,1.8
					c-10.8,0.3-19.7-1.3-19.8-3.6c-0.1-2.4,8.6-4.6,19.4-5c10.8-0.3,19.7,1.3,19.8,3.6C725.4,129.8,723.3,131,719.7,131.9z"/>
			</g>
		</g>
	</g>
</g>
<path class="st13" d="M730.6,124c-0.2,4.1,0.1,10.4,0.3,17.5c0.3,8,1.1,24.9-2,24.3c-2.8-0.6-8.8-33.5-9.6-40.1
	C718.9,120.7,730.9,117.9,730.6,124z"/>
<path class="st13" d="M719.2,122c2,3.6,5.5,8.9,9.3,14.9c4.3,6.7,13.6,20.8,10.7,21.8c-2.7,1-23.5-21.9-27.5-27.2
	C708.6,127.5,716.4,116.7,719.2,122z"/>
<path class="st26" d="M739.5,156.4c0.6,0.2,1.4,1.4,2.2,2.5c0.8,1.1-1.5,1.6-2.6,2.5c-2.7,2-6.6,4.1-4.9,2c2.2-2.7,2.5-4.9,2.9-5.5
	C737.3,157.6,739.3,156.4,739.5,156.4z"/>
<path class="st13" d="M733.2,95.7l-9.8,1.3c0-0.4,0-0.8,0-1.3l-13.2,1.7c0,0-4,33.9,3,35.2c3.7,0.7,5.6-1.6,6.6-4.6
	c0.6,2.6,1.6,4.3,3.2,4.6c7.4,1.3,7.7-9.1,8.1-13.6C731.7,114.3,733.4,101.7,733.2,95.7z"/>
<path class="st2" d="M728.6,66.5c-2.5-2.9-12-2.6-14.2,1.5c-0.3,0.6-0.6,1.3-0.8,2.4c-0.1,0.4-0.3,0.7-0.5,1
	c-0.4,0.8-0.9,1.7-1.4,2.4c-0.5,0.7-1.1,1.3-1.6,1.7c-0.6,0.4-1,0.6-1.7,0.7c-0.3,0.1-0.7,0-1,0c-0.3,0-0.6-0.1-0.8-0.2
	c-0.5-0.2-1-0.7-1.5-1.5c-0.4-0.8-0.8-1.8-1-2.7c-0.1-0.5-0.2-1-0.3-1.5c-0.1-0.3-0.1-0.6-0.1-0.8v-0.4c0-0.1-0.1-0.3-0.3-0.4
	l-0.1-0.1c-0.3-0.1-0.6-0.2-0.8-0.1c-0.3,0.1-0.3,0.3-0.4,0.4l-0.1,0.4c-0.1,0.3-0.1,0.6-0.2,0.8c-0.1,0.6-0.2,1.2-0.3,1.8
	c-0.1,1.2-0.1,2.5,0.1,3.8c0.3,1.3,1,2.9,2.3,4c0.6,0.6,1.4,1,2.2,1.3c0.8,0.3,1.5,0.4,2.4,0.4c1.1,0.1,2.3-0.2,3.4-0.6
	c-0.8,6.6-1.3,13.8-1.6,17c-0.3,3.1,22.6,2,22.9,0.5C734.2,93.1,732.7,71.2,728.6,66.5z"/>
<g transform="translate(120.399998, 60.199999)">
	<path id="Fill-39_10_" class="st27" d="M607.3,30.7c0,13-10.6,23.7-23.8,23.7c-13.2,0-23.8-10.6-23.8-23.7
		c0-13,10.6-23.7,23.8-23.7C596.7,7.1,607.3,17.6,607.3,30.7"/>
	
		<linearGradient id="Fill-42_1_" gradientUnits="userSpaceOnUse" x1="-171.1668" y1="323.3881" x2="-170.6936" y2="322.5627" gradientTransform="matrix(46.76 0 0 -46.48 8577.1943 15044.2822)">
		<stop  offset="0" style="stop-color:#005263"/>
		<stop  offset="1" style="stop-color:#65D48E"/>
	</linearGradient>
	<path id="Fill-42_10_" class="st28" d="M607.6,32c0,12.8-10.4,23.2-23.4,23.2c-12.9,0-23.4-10.4-23.4-23.2s10.4-23.2,23.4-23.2
		C597.1,8.7,607.6,19.2,607.6,32"/>
	<path id="Fill-43_10_" class="st1" d="M584.3,14.1c-9.9,0-18,8-18,17.8s8,17.8,18,17.8s18-8,18-17.8S594.2,14.1,584.3,14.1
		 M584.3,50.5c-10.3,0-18.6-8.3-18.6-18.5c0-10.2,8.3-18.5,18.6-18.5s18.6,8.3,18.6,18.5S594.6,50.5,584.3,50.5"/>
</g>
<path class="st26" d="M730.6,163.9c0.4,0.4,0.5,2,0.6,3.3c0.1,1.3-2.1,0.6-3.5,0.8c-3.3,0.4-7.7,0.1-5.2-0.8
	c3.2-1.2,4.5-2.9,5.3-3.3C728,163.9,730.4,163.9,730.6,163.9z"/>
<path class="st2" d="M729.9,69.4c0.1,0.8,0.1,1.5,0.2,2.2s0.1,1.4,0.1,2.1c0,1.4-0.1,2.8-0.2,4.1c-0.1,1.4-0.3,2.8-0.6,4.1
	c-0.3,1.4-0.6,2.7-1,4.1c-0.2,0.7-0.4,1.3-0.7,2c-0.3,0.6-0.6,1.3-0.9,2c-0.6,1.3-1.5,2.4-2.3,3.6c-0.8,1.1-1.8,2.2-2.8,3.1
	c-0.5,0.5-1,1-1.5,1.4c-0.3,0.2-0.5,0.4-0.8,0.6l-0.4,0.3c-0.1,0.1-0.3,0.2-0.6,0.1c-0.3-0.1-0.6-0.3-0.6-0.6v-0.1
	c-0.1-0.3,0-0.4,0.1-0.6l0.3-0.4c0.2-0.3,0.3-0.6,0.5-0.8c0.3-0.6,0.6-1.1,1-1.7c0.6-1.1,1.1-2.3,1.6-3.4c0.5-1.1,0.9-2.3,1.2-3.4
	c0.2-0.6,0.3-1.1,0.5-1.8c0.1-0.6,0.3-1.2,0.4-1.7c0.5-2.4,0.8-4.8,1-7.4c0.1-1.3,0.1-2.5,0.1-3.7c0-1.2,0-2.5,0-3.6v-0.1
	c-0.1-1.5,1.2-2.8,2.7-2.9C728.5,66.9,729.7,68,729.9,69.4z"/>
<g>
	<g>
		<g>
			<path class="st1" d="M708.8,88.9c-0.7,0.5-1.3,1-2,1.5c-0.3,0.3-0.6,0.5-0.9,0.8c0.1-0.1,0.1-0.1,0.2-0.2c-0.3,0.2-0.7,0.3-1,0.5
				c0.1,0,0.1-0.1,0.2-0.1c-0.3,0.1-0.7,0.2-1,0.1c0.1,0,0.2,0,0.2,0c-0.3,0.1-0.7,0-1,0c0.1,0,0.2,0,0.2,0c-0.3,0-0.7-0.2-1-0.3
				c0.1,0,0.2,0.1,0.2,0.1c-0.3-0.1-0.6-0.4-0.9-0.6c0.1,0,0.1,0.1,0.2,0.1c-0.4-0.3-0.6-0.7-0.9-0.9c-0.3-0.3-0.5-0.7-0.9-1l0,0
				c-0.4-0.4-0.9-0.4-1.3-0.1l-0.1,0.1c-0.2,0.2-0.4,0.4-0.3,0.7l0,0c0,0.1,0,0.1,0,0.2c0,0.3-0.1,0.6-0.1,0.9c-0.2,1-0.2,2-0.4,3
				s-0.2,2-0.4,3.1c-0.1,0.5-0.2,1-0.1,1.5l0,0c-0.1,0.5,0.4,1,0.9,1c0.5,0.1,1-0.4,1-0.9c0.1-0.5,0.1-0.9,0.1-1.4
				c0.2-1,0.2-2,0.4-3c0.2-1,0.2-2,0.4-3c0.1-0.4,0.1-0.8,0.1-1.3c-0.1,0.2-0.3,0.4-0.3,0.7l0.1-0.1c-0.4-0.1-0.9-0.1-1.3-0.1
				c0.3,0.3,0.5,0.6,0.7,0.9c0.3,0.3,0.5,0.7,0.8,0.9c0.6,0.6,1.3,1.1,2.2,1.4c0.9,0.2,1.7,0.3,2.6,0.1c0.4-0.1,0.9-0.3,1.3-0.5
				c0.3-0.2,0.6-0.3,0.8-0.5c0.3-0.3,0.6-0.5,0.9-0.8c0.5-0.4,1-0.8,1.5-1.2c0.4-0.4,0.4-1,0.1-1.3
				C709.9,88.6,709.3,88.5,708.8,88.9L708.8,88.9z"/>
		</g>
	</g>
	<g>
		<g>
			<path class="st1" d="M704.9,85.4c0.3,0.3,0.6,0.7,0.9,1c0.6,0.8,1.3,1.5,1.9,2.3c0.7,0.8,1.3,1.6,2,2.4c0.3,0.5,0.7,0.9,1.1,1.4
				l0,0c0.4,0.4,0.9,0.4,1.3,0.1s0.4-1,0.1-1.3c-0.3-0.3-0.6-0.7-0.9-1c-0.6-0.8-1.3-1.5-1.9-2.3c-0.7-0.8-1.3-1.6-2-2.4
				c-0.3-0.5-0.7-0.9-1.1-1.4l0,0c-0.4-0.4-0.9-0.4-1.3-0.1C704.6,84.4,704.6,85,704.9,85.4L704.9,85.4z"/>
		</g>
	</g>
	<g>
		<g>
			<path class="st1" d="M709.3,93.7c-0.3-0.3-0.6-0.7-0.9-1c-0.6-0.8-1.3-1.5-1.9-2.3c-0.7-0.8-1.3-1.6-2-2.4
				c-0.3-0.5-0.7-0.9-1.1-1.4l0,0c-0.4-0.4-0.9-0.4-1.3-0.1s-0.4,1-0.1,1.3c0.3,0.3,0.6,0.7,0.9,1c0.6,0.8,1.3,1.5,1.9,2.3
				c0.7,0.8,1.3,1.6,2,2.4c0.3,0.5,0.7,0.9,1.1,1.4l0,0c0.4,0.4,0.9,0.4,1.3,0.1C709.6,94.6,709.7,94,709.3,93.7L709.3,93.7z"/>
		</g>
	</g>
</g>
</svg>
