<?xml version="1.0" encoding="utf-8"?>
<!-- Generator: Adobe Illustrator 23.0.1, SVG Export Plug-In . SVG Version: 6.00 Build 0)  -->
<svg version="1.1" id="Layer_1" xmlns="http://www.w3.org/2000/svg" xmlns:xlink="http://www.w3.org/1999/xlink" x="0px" y="0px"
	 viewBox="0 0 751 180" style="enable-background:new 0 0 751 180;" xml:space="preserve">
<style type="text/css">
	.st0{opacity:0.9098;fill:url(#Rectangle_1_);enable-background:new    ;}
	.st1{fill:#FFFEFF;}
	.st2{fill:#007874;}
	.st3{opacity:0.5974;fill:#005263;enable-background:new    ;}
	.st4{fill:#FFFFFF;}
	.st5{opacity:0.4957;}
	.st6{fill:#7FC98A;}
	.st7{fill:#47A395;}
	.st8{fill:#4F1221;fill-opacity:0.2299;}
	.st9{fill:#00BEC5;}
	.st10{fill:url(#Fill-53_1_);}
	.st11{fill:url(#Fill-53_6_);}
	.st12{fill:url(#Fill-53_7_);}
	.st13{fill:url(#Fill-53_8_);}
	.st14{fill:url(#Fill-53_9_);}
	.st15{fill:url(#Fill-53_10_);}
	.st16{fill:url(#Fill-53_11_);}
	.st17{fill:url(#Fill-53_12_);}
	.st18{fill:#8AF6B2;}
	.st19{fill:none;}
	.st20{fill:#65D48E;}
	.st21{opacity:0.26;}
	.st22{fill:#005263;}
	.st23{fill:#59595B;}
	.st24{fill:#AAB8BE;}
	.st25{fill:#097975;}
	.st26{fill:#306073;}
	.st27{fill:#444445;}
	.st28{fill:#F0FFF2;}
	.st29{fill:#282828;}
	.st30{fill:#D49C6B;}
	.st31{fill:#E0A671;}
	.st32{fill:url(#Fill-53_13_);}
	.st33{fill:#7ADD9B;}
	.st34{fill:#7E6068;}
	.st35{fill:url(#Shape_3_);}
	.st36{fill:url(#SVGID_1_);}
	.st37{fill:url(#Shape_5_);}
	.st38{fill:url(#SVGID_2_);}
	.st39{fill:url(#Shape_6_);}
	.st40{fill:url(#SVGID_3_);}
</style>
<title>Group 11</title>
<desc>Created with Sketch.</desc>
<g id="Group-41_39_" transform="translate(740.934985, 54.434565) rotate(-13.000000) translate(-740.934985, -54.434565) translate(706.434985, 25.934565)">
	
		<linearGradient id="Rectangle_1_" gradientUnits="userSpaceOnUse" x1="-810.7892" y1="172.9269" x2="-809.9899" y2="172.9286" gradientTransform="matrix(66.6927 12.5628 15.3972 -54.4156 51091.9688 19549.957)">
		<stop  offset="0" style="stop-color:#005263"/>
		<stop  offset="1" style="stop-color:#65D48E"/>
	</linearGradient>
	<path id="Rectangle_189_" class="st0" d="M-320.9-52.4l47.9-19.6c1.3-0.5,2.8,0.1,3.3,1.4l11.5,28c0.5,1.3-0.1,2.8-1.4,3.3
		l-47.9,19.6c-1.3,0.5-2.8-0.1-3.3-1.4l-11.5-28C-322.8-50.4-322.2-51.8-320.9-52.4z"/>
	
		<rect id="Rectangle_188_" x="-321.9" y="-56.8" transform="matrix(-0.9256 0.3786 -0.3786 -0.9256 -585.366 7.7864)" class="st1" width="56.8" height="6.3"/>
	
		<rect id="Rectangle_187_" x="-312.8" y="-45.9" transform="matrix(-0.9256 0.3786 -0.3786 -0.9256 -574.5381 24.2919)" class="st1" width="46.3" height="3.2"/>
	<circle id="Oval_327_" class="st2" cx="-302.9" cy="-29.4" r="3.7"/>
</g>
<g id="Group-6-Copy-4_53_" transform="translate(845.218532, 25.981476)">
	<polygon id="Rectangle_173_" class="st3" points="-338.6,25 -326.6,2.6 -282,27 -294.1,49.4 	"/>
	
		<ellipse id="Oval_321_" transform="matrix(0.4833 -0.8754 0.8754 0.4833 -183.2411 -255.7683)" class="st4" cx="-308.3" cy="27.4" rx="5.4" ry="10.7"/>
</g>
<g id="Group-6-Copy-4_50_" transform="translate(733.218534, 119.781474)">
	<polygon id="Rectangle_170_" class="st3" points="-294.4,12 -302.4,-3 -332.2,13.2 -324.1,28.2 	"/>
	
		<ellipse id="Oval_318_" transform="matrix(0.8754 -0.4833 0.4833 0.8754 -45.704 -150.3865)" class="st4" cx="-314.6" cy="13.5" rx="7.1" ry="3.6"/>
</g>
<g id="Group-6-Copy-4_49_" transform="translate(497.318538, 56.781476)">
	<polygon id="Rectangle_169_" class="st3" points="-261.8,23.5 -273.9,1 -318.4,25.3 -306.4,47.8 	"/>
	
		<ellipse id="Oval_317_" transform="matrix(0.8754 -0.4833 0.4833 0.8754 -48.8241 -137.9725)" class="st4" cx="-292.1" cy="25.7" rx="10.7" ry="5.4"/>
</g>
<g id="Group-6-Copy-4_49_-Copy" transform="translate(312.140018, 120.000000)">
	<polygon class="st3" points="-248.4,20.9 -254.1,10.5 -275.7,21.8 -269.9,32.2 	"/>
	
		<ellipse transform="matrix(0.8754 -0.4833 0.4833 0.8754 -43.5294 -124.2728)" class="st4" cx="-262.9" cy="22.3" rx="5.1" ry="2.6"/>
</g>
<g id="Group-37_38_" transform="translate(836.782512, 66.521156)" class="st5">
	<circle id="Oval_256_" class="st6" cx="-335.8" cy="3.4" r="2.9"/>
	<circle id="Oval_255_" class="st7" cx="-326.3" cy="14.3" r="2.9"/>
	<circle id="Oval_254_" class="st6" cx="-333.1" cy="22.3" r="2.9"/>
	<circle id="Oval_253_" class="st6" cx="-324.6" cy="28.2" r="2.9"/>
	<circle id="Oval_252_" class="st7" cx="-334.9" cy="38.1" r="2.9"/>
	<path id="Path_75_" class="st8" d="M-333.3,66.5c-0.1-0.1-1.3-2.2-1.6-6.5c-0.4-4-0.1-10.7,3.2-20.2c6.3-17.8-1.5-32.2-1.5-32.3
		l0.4-0.3c0,0.1,2,3.7,3.2,9.6c1.6,7.7,1,15.8-1.6,23.2c-6.3,17.8-1.6,26.2-1.6,26.3L-333.3,66.5z"/>
</g>
<g id="Group-37_37_" transform="translate(648.482515, 80.521155)" class="st5">
	<circle id="Oval_251_" class="st6" cx="-324.3" cy="2.8" r="2.9"/>
	<circle id="Oval_250_" class="st7" cx="-314.9" cy="13.6" r="2.9"/>
	<circle id="Oval_249_" class="st6" cx="-321.6" cy="21.6" r="2.9"/>
	<circle id="Oval_248_" class="st6" cx="-313.1" cy="27.5" r="2.9"/>
	<circle id="Oval_247_" class="st7" cx="-323.4" cy="37.3" r="2.9"/>
	<path id="Path_73_" class="st8" d="M-321.8,65.9c-0.1-0.1-1.3-2.2-1.6-6.5c-0.4-4-0.1-10.7,3.2-20.2c6.3-17.8-1.5-32.2-1.5-32.3
		l0.4-0.3c0,0.1,2,3.7,3.2,9.6c1.6,7.7,1,15.8-1.6,23.2c-6.3,17.8-1.6,26.2-1.6,26.3L-321.8,65.9z"/>
</g>
<g id="Group-37_37_-Copy-2" transform="translate(280.640018, 131.521155) scale(-1, 1) translate(-280.640018, -131.521155) translate(275.140018, 111.521155)" class="st5">
	<ellipse class="st6" cx="308.7" cy="-0.7" rx="1.9" ry="-1.4"/>
	<ellipse class="st7" cx="314.3" cy="5.9" rx="1.9" ry="-1.4"/>
	<ellipse class="st6" cx="310.6" cy="9.7" rx="1.9" ry="-1.4"/>
	<ellipse class="st6" cx="315.3" cy="13.5" rx="1.9" ry="-1.4"/>
	<ellipse class="st7" cx="309.6" cy="19.1" rx="1.9" ry="-1.4"/>
	<path class="st8" d="M309.7,34.7c0,0-0.7-1.2-1-3.6c-0.2-2.2-0.1-6,1.9-11.2c3.8-9.9-0.9-17.9-0.9-18l0.2-0.1c0,0,1.2,2.1,1.9,5.3
		c0.9,4.3,0.6,8.8-1,12.9c-3.8,9.9-1,14.6-0.9,14.6L309.7,34.7z"/>
</g>
<g id="Group-37_37_-Copy" transform="translate(449.140018, 124.521155) scale(-1, 1) translate(-449.140018, -124.521155) translate(442.140018, 97.521155)" class="st5">
	<circle class="st6" cx="318.1" cy="13.2" r="2.4"/>
	<circle class="st7" cx="325.6" cy="21.7" r="2.4"/>
	<circle class="st6" cx="319.9" cy="27.3" r="2.4"/>
	<circle class="st6" cx="326.5" cy="32" r="2.4"/>
	<circle class="st7" cx="319" cy="39.6" r="2.4"/>
	<path class="st8" d="M319.8,60.8c0-0.1-0.9-1.7-1.2-5c-0.3-3.1-0.1-8.2,2.4-15.4c4.7-13.6-1.1-24.5-1.1-24.6l0.3-0.2
		c0,0.1,1.5,2.8,2.4,7.3c1.2,5.9,0.7,12-1.2,17.7c-4.7,13.6-1.2,20-1.2,20.1L319.8,60.8z"/>
</g>
<g transform="translate(8.400000, 78.399999)">
	<path class="st9" d="M621.6,39.2c-0.4,5.5,3,10.2,3.6,15.6c0,0.3-0.1,2-0.2,3.3c-0.1,0.7-0.1,1.1-0.1,1.1c-0.3-0.2-0.5-0.3-0.9-0.5
		c-5.8-3.4-12.4-5.3-19.1-5.6c-0.9-0.1-1.7-0.1-2.4-0.5c-1.8-1.1-0.5-2.9,0.9-3.5c0.7-0.3,1.6-0.7,1.8-1.5c0.7-2.8-4.5-3-5.9-2.8
		c-1.3,0.1-2.6,0.2-3.7-0.4c-1.1-0.6-1.7-2.2-1-3.2c0.9-1.1,2.8-0.9,3.4-2.2c0.4-0.9-0.1-1.9-1-2.4c-0.9-0.5-1.8-0.5-2.8-0.5
		c-2.4,0-4.7,0-7.1,0c-1.3,0-2.7,0-3.8-0.7s-1.9-2.1-1.3-3.3c1.1-2.2,5.2-0.9,6.4-3c0.7-1.1-0.1-2.6-1.1-3.4c-1.1-0.7-2.4-1-3.6-1.3
		c-4.6-1.3-8.7-4.4-11.1-8.5c-1.5-2.4-2.2-5.7-2.4-8.4c-0.4-5.3,2.2-9.6,7.9-7.6c2.6,0.9,4.7,3.2,5.2,5.9c0.4,1.9,0.1,4,1.1,5.7
		c1.2,2,5,2.1,4.4-0.9c-0.2-0.9-0.7-1.6-0.9-2.4c-0.3-0.8-0.3-1.8,0.3-2.4c0.6-0.6,1.6-0.6,2.4-0.3c2.6,0.9,4.4,3.6,4.6,6.3
		c0.1,1.4-0.2,2.8,0.1,4.1c0.3,1.3,1.8,2.6,3,2c1.5-0.7,1.3-2.8,0.6-4.4c-0.7-1.5-1.3-3.4-0.2-4.6c0.8-0.8,2.1-0.7,3-0.1
		c0.9,0.6,1.5,1.6,2,2.6c1.4,2.8,2,6.1,1.8,9.2c-0.1,0.9-0.2,1.8,0.1,2.7c0.3,0.9,1.1,1.6,2,1.6c1.6-0.1,2-2.3,3.5-3
		c1.4-0.6,3,0.7,3.4,2.2c0.3,1.5-0.3,3-0.9,4.5c-0.7,1.6-2.1,5.1-0.2,6.3c2.6,1.6,3.2-2,4.7-3c1.5-0.9,3.4,0.5,3.8,2.2
		C622.2,35.9,621.7,37.6,621.6,39.2z"/>
	<path class="st4" d="M625,58.1c-0.1,0.7-0.1,1.1-0.1,1.1c-0.3-0.2-0.5-0.3-0.9-0.5c-1.5-4.4-3.6-8.6-6.1-12.6
		c-4.9-8-11.9-15-20-19.8c-4.2-2.5-8.8-4.4-13.1-6.9c-3.4-2-7.3-5.1-8.4-9.1c-0.1-0.3,0.3-0.4,0.4-0.2c1.5,2.5,3,4.9,5.3,6.7
		c2.2,1.7,4.7,3.2,7.3,4.4c4.4,2.2,8.6,4.3,12.7,7.1c3.7,2.6,7,5.5,10,8.8C617.8,43.3,622.1,50.3,625,58.1z"/>
</g>
<g transform="translate(9.800000, 160.299997)">
	<path class="st2" d="M570.4,5.7c0,3,11.5,5.4,25.8,5.4c14.2,0,25.8-2.4,25.8-5.4V1.5h-51.6L570.4,5.7"/>
	<g id="Group-42-Copy-2_99_" transform="translate(0.065788, 0.468598)">
		
			<linearGradient id="Fill-53_1_" gradientUnits="userSpaceOnUse" x1="-60.5243" y1="210.5337" x2="-60.1581" y2="210.4365" gradientTransform="matrix(54.74 0 0 -12.18 3899.3931 2564.5303)">
			<stop  offset="0" style="stop-color:#005263"/>
			<stop  offset="1" style="stop-color:#65D48E"/>
		</linearGradient>
		<path id="Fill-53_54_" class="st10" d="M622,0.8c0,3.2-11.5,5.7-25.8,5.7c-14.2,0-25.8-2.6-25.8-5.7s11.5-5.7,25.8-5.7
			C610.5-4.9,622-2.3,622,0.8"/>
		<path id="Fill-54_48_" class="st4" d="M596.2-3.6c-10.9,0-19.9,2-19.9,4.4s8.9,4.4,19.9,4.4c10.9,0,19.9-2,19.9-4.4
			C616.1-1.6,607.2-3.6,596.2-3.6z M596.2,5.3c-11.2,0-20.4-2-20.4-4.5c0-2.5,9.2-4.5,20.4-4.5s20.4,2,20.4,4.5
			C616.6,3.3,607.4,5.3,596.2,5.3L596.2,5.3z"/>
		<path id="Fill-55_48_" class="st4" d="M590.7,2V1.7h3.6v0.4c0,0.3,0.5,0.5,1.5,0.5c1.2,0,1.8-0.1,1.8-0.5c0-0.1-0.1-0.3-0.4-0.4
			s-0.6-0.2-1-0.3c-0.4-0.1-0.9-0.2-1.3-0.3c-0.5-0.1-1-0.2-1.5-0.3c-0.5-0.1-0.9-0.2-1.4-0.3c-0.4-0.1-0.7-0.3-1-0.4
			s-0.4-0.3-0.4-0.5c0-0.7,1.3-1.1,3.7-1.2V-2h2.9v0.4c1.3,0.1,2.2,0.2,2.8,0.4c0.7,0.2,0.9,0.5,0.9,0.8v0.1h-3.3v-0.2
			c0-0.3-0.6-0.5-1.8-0.5c-1.2,0-1.8,0.1-1.8,0.5c0,0.1,0.1,0.3,0.4,0.4c0.3,0.1,0.6,0.2,1,0.3c0.4,0.1,0.9,0.2,1.3,0.3
			c0.5,0.1,1,0.2,1.5,0.3c0.5,0.1,0.9,0.2,1.3,0.3c0.4,0.1,0.7,0.3,1,0.4c0.3,0.1,0.4,0.3,0.4,0.5c0,0.3-0.3,0.6-1,0.8
			c-0.7,0.2-1.6,0.3-2.8,0.4v0.3h-2.9V3.2c-1.3-0.1-2.2-0.2-2.8-0.4C591.1,2.6,590.7,2.3,590.7,2"/>
	</g>
</g>
<g transform="translate(7.000000, 153.999997)">
	<path class="st2" d="M570.1,5.5c0,2.9,11.3,5.3,25.2,5.3s25.2-2.4,25.2-5.3v-4h-50.4V5.5"/>
	<g id="Group-42-Copy-2_98_" transform="translate(0.065788, 0.468598)">
		
			<linearGradient id="Fill-53_6_" gradientUnits="userSpaceOnUse" x1="-57.848" y1="216.4117" x2="-57.4821" y2="216.3146" gradientTransform="matrix(53.48 0 0 -11.9 3679.2583 2575.448)">
			<stop  offset="0" style="stop-color:#005263"/>
			<stop  offset="1" style="stop-color:#65D48E"/>
		</linearGradient>
		<path id="Fill-53_50_" class="st11" d="M620.4,0.7c0,3.1-11.3,5.6-25.2,5.6c-13.9,0-25.2-2.5-25.2-5.6s11.3-5.6,25.2-5.6
			C609.1-4.9,620.4-2.4,620.4,0.7"/>
		<path id="Fill-54_39_" class="st4" d="M595.2-3.6c-10.7,0-19.4,1.9-19.4,4.3S584.5,5,595.2,5c10.7,0,19.4-1.9,19.4-4.3
			C614.6-1.7,605.9-3.6,595.2-3.6z M595.2,5.1c-10.9,0-19.9-2-19.9-4.4s8.9-4.4,19.9-4.4c10.9,0,19.9,2,19.9,4.4
			S606.2,5.1,595.2,5.1L595.2,5.1z"/>
		<path id="Fill-55_39_" class="st4" d="M589.9,1.9V1.6h3.5V2c0,0.3,0.5,0.5,1.5,0.5c1.2,0,1.8-0.1,1.8-0.5c0-0.1-0.1-0.3-0.4-0.4
			c-0.3-0.1-0.5-0.2-0.9-0.3c-0.4-0.1-0.8-0.2-1.3-0.3c-0.5-0.1-0.9-0.2-1.5-0.3c-0.5-0.1-0.9-0.2-1.3-0.3c-0.4-0.1-0.7-0.3-1-0.4
			c-0.3-0.1-0.4-0.3-0.4-0.5c0-0.7,1.2-1.1,3.6-1.2v-0.3h2.8v0.3c1.2,0.1,2.1,0.2,2.8,0.4c0.6,0.2,0.9,0.5,0.9,0.8v0.1h-3.2v-0.2
			c0-0.3-0.6-0.5-1.7-0.5s-1.7,0.1-1.7,0.5c0,0.1,0.1,0.3,0.4,0.4c0.3,0.1,0.6,0.2,1,0.3c0.4,0.1,0.9,0.2,1.3,0.3
			c0.5,0.1,0.9,0.2,1.5,0.3c0.5,0.1,0.9,0.2,1.3,0.3c0.4,0.1,0.7,0.3,1,0.4c0.3,0.1,0.4,0.3,0.4,0.5c0,0.3-0.3,0.6-0.9,0.8
			c-0.7,0.2-1.5,0.3-2.8,0.4v0.3h-2.8V3.1c-1.2-0.1-2.1-0.2-2.8-0.4C590.2,2.5,589.9,2.2,589.9,1.9"/>
	</g>
</g>
<g transform="translate(9.800000, 146.999997)">
	<path class="st2" d="M570.4,6.1c0,3,11.5,5.4,25.8,5.4c14.2,0,25.8-2.4,25.8-5.4V1.9h-51.6L570.4,6.1"/>
	<g id="Group-42-Copy-2_97_" transform="translate(0.065788, 0.468598)">
		
			<linearGradient id="Fill-53_7_" gradientUnits="userSpaceOnUse" x1="-60.5243" y1="223.7688" x2="-60.1581" y2="223.6716" gradientTransform="matrix(54.74 0 0 -12.18 3899.3931 2726.1741)">
			<stop  offset="0" style="stop-color:#005263"/>
			<stop  offset="1" style="stop-color:#65D48E"/>
		</linearGradient>
		<path id="Fill-53_41_" class="st12" d="M622,1.3c0,3.2-11.5,5.7-25.8,5.7c-14.2,0-25.8-2.6-25.8-5.7s11.5-5.7,25.8-5.7
			C610.5-4.5,622-1.9,622,1.3"/>
		<path id="Fill-54_38_" class="st4" d="M596.2-3.2c-10.9,0-19.9,2-19.9,4.4s8.9,4.4,19.9,4.4c10.9,0,19.9-2,19.9-4.4
			C616.1-1.2,607.2-3.2,596.2-3.2z M596.2,5.7c-11.2,0-20.4-2-20.4-4.5c0-2.5,9.2-4.5,20.4-4.5s20.4,2,20.4,4.5S607.4,5.7,596.2,5.7
			L596.2,5.7z"/>
		<path id="Fill-55_38_" class="st4" d="M590.7,2.4V2.1h3.6v0.4c0,0.3,0.5,0.5,1.5,0.5c1.2,0,1.8-0.1,1.8-0.5c0-0.1-0.1-0.3-0.4-0.4
			c-0.3-0.1-0.6-0.2-1-0.3c-0.4-0.1-0.9-0.2-1.3-0.3c-0.5-0.1-1-0.2-1.5-0.3c-0.5-0.1-0.9-0.2-1.4-0.3c-0.4-0.1-0.7-0.3-1-0.4
			c-0.3-0.1-0.4-0.3-0.4-0.5c0-0.7,1.3-1.1,3.7-1.2v-0.4h2.9v0.4c1.3,0.1,2.2,0.2,2.8,0.4c0.7,0.2,0.9,0.5,0.9,0.8v0.1h-3.3v-0.2
			c0-0.3-0.6-0.5-1.8-0.5c-1.2,0-1.8,0.1-1.8,0.5c0,0.1,0.1,0.3,0.4,0.4c0.3,0.1,0.6,0.2,1,0.3c0.4,0.1,0.9,0.2,1.3,0.3
			c0.5,0.1,1,0.2,1.5,0.3c0.5,0.1,0.9,0.2,1.3,0.3c0.4,0.1,0.7,0.3,1,0.4s0.4,0.3,0.4,0.5c0,0.3-0.3,0.6-1,0.8s-1.6,0.3-2.8,0.4V4
			h-2.9V3.6c-1.3-0.1-2.2-0.2-2.8-0.4C591.1,3,590.7,2.8,590.7,2.4"/>
	</g>
</g>
<g transform="translate(0.000000, 139.999998)">
	<path class="st2" d="M570.5,6.6c0,3,11.5,5.4,25.8,5.4c14.2,0,25.8-2.4,25.8-5.4V2.5h-51.6L570.5,6.6"/>
	<g id="Group-42-Copy-2_96_" transform="translate(0.065788, 0.468598)">
		
			<linearGradient id="Fill-53_8_" gradientUnits="userSpaceOnUse" x1="-50.7135" y1="230.7362" x2="-50.3473" y2="230.6391" gradientTransform="matrix(54.74 0 0 -12.18 3362.4512 2811.5742)">
			<stop  offset="0" style="stop-color:#005263"/>
			<stop  offset="1" style="stop-color:#65D48E"/>
		</linearGradient>
		<path id="Fill-53_40_" class="st13" d="M622.1,1.8c0,3.2-11.5,5.7-25.8,5.7c-14.2,0-25.8-2.6-25.8-5.7s11.5-5.7,25.8-5.7
			C610.6-3.9,622.1-1.4,622.1,1.8"/>
		<path id="Fill-54_37_" class="st4" d="M596.3-2.6c-10.9,0-19.9,2-19.9,4.4s8.9,4.4,19.9,4.4c10.9,0,19.9-2,19.9-4.4
			S607.3-2.6,596.3-2.6z M596.3,6.3c-11.2,0-20.4-2-20.4-4.5c0-2.5,9.2-4.5,20.4-4.5s20.4,2,20.4,4.5C616.6,4.3,607.5,6.3,596.3,6.3
			L596.3,6.3z"/>
		<path id="Fill-55_37_" class="st4" d="M590.9,3V2.7h3.6V3c0,0.3,0.5,0.5,1.5,0.5c1.2,0,1.8-0.1,1.8-0.5c0-0.1-0.1-0.3-0.4-0.4
			c-0.3-0.1-0.6-0.2-1-0.3c-0.4-0.1-0.9-0.2-1.3-0.3c-0.5-0.1-1-0.2-1.5-0.3c-0.5-0.1-0.9-0.2-1.4-0.3c-0.4-0.1-0.7-0.3-1-0.4
			s-0.4-0.3-0.4-0.5c0-0.7,1.3-1.1,3.7-1.2V-1h2.9v0.4c1.3,0.1,2.2,0.2,2.8,0.4c0.7,0.2,0.9,0.5,0.9,0.8v0.1H598V0.5
			c0-0.3-0.6-0.5-1.8-0.5c-1.2,0-1.8,0.1-1.8,0.5c0,0.1,0.1,0.3,0.4,0.4c0.3,0.1,0.6,0.2,1,0.3c0.4,0.1,0.9,0.2,1.3,0.3
			c0.5,0.1,1,0.2,1.5,0.3c0.5,0.1,0.9,0.2,1.3,0.3c0.4,0.1,0.7,0.3,1,0.4c0.3,0.1,0.4,0.3,0.4,0.5c0,0.3-0.3,0.6-1,0.8
			s-1.6,0.3-2.8,0.4v0.3h-2.9V4.2c-1.3-0.1-2.2-0.2-2.8-0.4C591.1,3.6,590.9,3.3,590.9,3"/>
	</g>
</g>
<g transform="translate(9.100000, 134.399998)">
	<path class="st2" d="M570.3,6.9c0,3,11.5,5.4,25.8,5.4c14.2,0,25.8-2.4,25.8-5.4V2.7h-51.6L570.3,6.9"/>
	<g id="Group-42-Copy-2_95_" transform="translate(0.065788, 0.468598)">
		
			<linearGradient id="Fill-53_9_" gradientUnits="userSpaceOnUse" x1="-59.8233" y1="236.308" x2="-59.4572" y2="236.2108" gradientTransform="matrix(54.74 0 0 -12.18 3860.9351 2879.6421)">
			<stop  offset="0" style="stop-color:#005263"/>
			<stop  offset="1" style="stop-color:#65D48E"/>
		</linearGradient>
		<path id="Fill-53_39_" class="st14" d="M621.9,2c0,3.2-11.5,5.7-25.8,5.7c-14.2,0-25.8-2.6-25.8-5.7s11.5-5.7,25.8-5.7
			C610.4-3.7,621.9-1.2,621.9,2"/>
		<path id="Fill-54_36_" class="st4" d="M596.1-2.4c-10.9,0-19.9,2-19.9,4.4s8.9,4.4,19.9,4.4c10.9,0,19.9-2,19.9-4.4
			C616-0.5,607.1-2.4,596.1-2.4z M596.1,6.5c-11.2,0-20.4-2-20.4-4.5c0-2.5,9.2-4.5,20.4-4.5s20.4,2,20.4,4.5S607.3,6.5,596.1,6.5
			L596.1,6.5z"/>
		<path id="Fill-55_36_" class="st4" d="M590.7,3.2V2.9h3.6v0.4c0,0.3,0.5,0.5,1.5,0.5c1.2,0,1.8-0.1,1.8-0.5c0-0.1-0.1-0.3-0.4-0.4
			c-0.3-0.1-0.6-0.2-1-0.3c-0.4-0.1-0.9-0.2-1.3-0.3c-0.5-0.1-1-0.2-1.5-0.3c-0.5-0.1-0.9-0.2-1.4-0.3c-0.4-0.1-0.7-0.3-1-0.4
			c-0.3-0.1-0.4-0.3-0.4-0.5c0-0.7,1.3-1.1,3.7-1.2v-0.4h2.9v0.4c1.3,0.1,2.2,0.2,2.8,0.4c0.7,0.2,0.9,0.5,0.9,0.8v0.1h-3.3V0.7
			c0-0.3-0.6-0.5-1.8-0.5c-1.2,0-1.8,0.1-1.8,0.5c0,0.1,0.1,0.3,0.4,0.4c0.3,0.1,0.6,0.2,1,0.3c0.4,0.1,0.9,0.2,1.3,0.3
			c0.5,0.1,1,0.2,1.5,0.3c0.5,0.1,0.9,0.2,1.3,0.3c0.4,0.1,0.7,0.3,1,0.4c0.3,0.1,0.4,0.3,0.4,0.5c0,0.3-0.3,0.6-1,0.8
			c-0.7,0.2-1.6,0.3-2.8,0.4v0.3h-2.9V4.4c-1.3-0.1-2.2-0.2-2.8-0.4C591,3.8,590.7,3.6,590.7,3.2"/>
	</g>
</g>
<g transform="translate(6.300000, 127.399998)">
	<path class="st2" d="M570.2,7.4c0,3,11.5,5.4,25.8,5.4c14.2,0,25.8-2.4,25.8-5.4V3.3h-51.6L570.2,7.4"/>
	<g id="Group-42-Copy-2_94_" transform="translate(0.065788, 0.468598)">
		
			<linearGradient id="Fill-53_10_" gradientUnits="userSpaceOnUse" x1="-57.0205" y1="243.2767" x2="-56.6543" y2="243.1796" gradientTransform="matrix(54.74 0 0 -12.18 3707.313 2965.1121)">
			<stop  offset="0" style="stop-color:#005263"/>
			<stop  offset="1" style="stop-color:#65D48E"/>
		</linearGradient>
		<path id="Fill-53_5_" class="st15" d="M621.7,2.6c0,3.2-11.5,5.7-25.8,5.7c-14.2,0-25.8-2.6-25.8-5.7s11.5-5.7,25.8-5.7
			C610.2-3.1,621.7-0.6,621.7,2.6"/>
		<path id="Fill-54_5_" class="st4" d="M595.9-1.8c-10.9,0-19.9,2-19.9,4.4S584.9,7,595.9,7c10.9,0,19.9-2,19.9-4.4
			S606.8-1.8,595.9-1.8z M595.9,7.1c-11.2,0-20.4-2-20.4-4.5c0-2.5,9.2-4.5,20.4-4.5s20.4,2,20.4,4.5S607.2,7.1,595.9,7.1L595.9,7.1
			z"/>
		<path id="Fill-55_5_" class="st4" d="M590.4,3.8V3.4h3.6v0.4c0,0.3,0.5,0.5,1.5,0.5c1.2,0,1.8-0.1,1.8-0.5c0-0.1-0.1-0.3-0.4-0.4
			s-0.6-0.2-1-0.3c-0.4-0.1-0.9-0.2-1.3-0.3c-0.5-0.1-1-0.2-1.5-0.3c-0.5-0.1-0.9-0.2-1.4-0.3c-0.4-0.1-0.7-0.3-1-0.4
			c-0.3-0.1-0.4-0.3-0.4-0.5c0-0.7,1.3-1.1,3.7-1.2v-0.4h2.9v0.4c1.3,0.1,2.2,0.2,2.8,0.4c0.7,0.2,0.9,0.5,0.9,0.8v0.1h-3.3V1.3
			c0-0.3-0.6-0.5-1.8-0.5c-1.2,0-1.8,0.1-1.8,0.5c0,0.1,0.1,0.3,0.4,0.4c0.3,0.1,0.6,0.2,1,0.3c0.4,0.1,0.9,0.2,1.3,0.3
			c0.5,0.1,1,0.2,1.5,0.3s0.9,0.2,1.3,0.3c0.4,0.1,0.7,0.3,1,0.4c0.3,0.1,0.4,0.3,0.4,0.5c0,0.3-0.3,0.6-1,0.8
			c-0.7,0.2-1.6,0.3-2.8,0.4v0.3h-2.9V5c-1.3-0.1-2.2-0.2-2.8-0.4C590.8,4.4,590.4,4.1,590.4,3.8"/>
	</g>
</g>
<g transform="translate(17.500000, 120.399998)">
	<path class="st2" d="M570,8c0,3,11.5,5.4,25.8,5.4s25.8-2.4,25.8-5.4V3.8h-51.6L570,8"/>
	<g id="Group-42-Copy-2_93_" transform="translate(0.065788, 0.468598)">
		
			<linearGradient id="Fill-53_11_" gradientUnits="userSpaceOnUse" x1="-68.2327" y1="250.244" x2="-67.8665" y2="250.1469" gradientTransform="matrix(54.74 0 0 -12.18 4320.8911 3050.5122)">
			<stop  offset="0" style="stop-color:#005263"/>
			<stop  offset="1" style="stop-color:#65D48E"/>
		</linearGradient>
		<path id="Fill-53_4_" class="st16" d="M621.6,3.1c0,3.2-11.5,5.7-25.8,5.7c-14.2,0-25.8-2.6-25.8-5.7s11.5-5.7,25.8-5.7
			C610-2.6,621.6,0,621.6,3.1"/>
		<path id="Fill-54_4_" class="st4" d="M595.7-1.3c-10.9,0-19.9,2-19.9,4.4s8.9,4.4,19.9,4.4c10.9,0,19.9-2,19.9-4.4
			S606.7-1.3,595.7-1.3z M595.7,7.6c-11.2,0-20.4-2-20.4-4.5c0-2.5,9.2-4.5,20.4-4.5s20.4,2,20.4,4.5C616.1,5.6,607,7.6,595.7,7.6
			L595.7,7.6z"/>
		<path id="Fill-55_4_" class="st4" d="M590.2,4.3V4h3.6v0.4c0,0.3,0.5,0.5,1.5,0.5c1.2,0,1.8-0.1,1.8-0.5c0-0.1-0.1-0.3-0.4-0.4
			c-0.3-0.1-0.6-0.2-1-0.3c-0.4-0.1-0.9-0.2-1.3-0.3c-0.5-0.1-1-0.2-1.5-0.3c-0.5-0.1-0.9-0.2-1.4-0.3c-0.4-0.1-0.7-0.3-1-0.4
			c-0.3-0.1-0.4-0.3-0.4-0.5c0-0.7,1.3-1.1,3.7-1.2V0.3h2.9v0.4c1.3,0.1,2.2,0.2,2.8,0.4c0.7,0.2,0.9,0.5,0.9,0.8V2h-3.3V1.8
			c0-0.3-0.6-0.5-1.8-0.5c-1.2,0-1.8,0.1-1.8,0.5c0,0.1,0.1,0.3,0.4,0.4c0.3,0.1,0.6,0.2,1,0.3c0.4,0.1,0.9,0.2,1.3,0.3
			c0.5,0.1,1,0.2,1.5,0.3c0.5,0.1,0.9,0.2,1.3,0.3c0.4,0.1,0.7,0.3,1,0.4c0.3,0.1,0.4,0.3,0.4,0.5c0,0.3-0.3,0.6-1,0.8
			c-0.7,0.2-1.6,0.3-2.8,0.4v0.3h-2.9V5.5c-1.3-0.1-2.2-0.2-2.8-0.4C590.6,5,590.2,4.6,590.2,4.3"/>
	</g>
</g>
<g transform="translate(8.400000, 113.399998)">
	<path class="st2" d="M570.2,8.6c0,3,11.5,5.4,25.8,5.4c14.2,0,25.8-2.4,25.8-5.4V4.4h-51.6L570.2,8.6"/>
	<g id="Group-42-Copy-2_44_" transform="translate(0.065788, 0.468598)">
		
			<linearGradient id="Fill-53_12_" gradientUnits="userSpaceOnUse" x1="-59.1219" y1="257.2112" x2="-58.7557" y2="257.1141" gradientTransform="matrix(54.74 0 0 -12.18 3822.3374 3135.9119)">
			<stop  offset="0" style="stop-color:#005263"/>
			<stop  offset="1" style="stop-color:#65D48E"/>
		</linearGradient>
		<path id="Fill-53_3_" class="st17" d="M621.7,3.7c0,3.2-11.5,5.7-25.8,5.7c-14.2,0-25.8-2.6-25.8-5.7s11.5-5.7,25.8-5.7
			C610.2-2.1,621.7,0.5,621.7,3.7"/>
		<path id="Fill-54_3_" class="st4" d="M595.9-0.7c-10.9,0-19.9,2-19.9,4.4s8.9,4.4,19.9,4.4c10.9,0,19.9-2,19.9-4.4
			C615.8,1.3,606.9-0.7,595.9-0.7z M595.9,8.2c-11.2,0-20.4-2-20.4-4.5c0-2.5,9.2-4.5,20.4-4.5s20.4,2,20.4,4.5S607.1,8.2,595.9,8.2
			L595.9,8.2z"/>
		<path id="Fill-55_3_" class="st4" d="M590.4,4.9V4.6h3.6V5c0,0.3,0.5,0.5,1.5,0.5c1.2,0,1.8-0.1,1.8-0.5c0-0.1-0.1-0.3-0.4-0.4
			c-0.3-0.1-0.6-0.2-1-0.3c-0.4-0.1-0.9-0.2-1.3-0.3c-0.5-0.1-1-0.2-1.5-0.3c-0.5-0.1-0.9-0.2-1.4-0.3c-0.4-0.1-0.7-0.3-1-0.4
			c-0.3-0.1-0.4-0.3-0.4-0.5c0-0.7,1.3-1.1,3.7-1.2V0.9h2.9v0.4c1.3,0.1,2.2,0.2,2.8,0.4s0.9,0.5,0.9,0.8v0.1h-3.3V2.4
			c0-0.3-0.6-0.5-1.8-0.5c-1.2,0-1.8,0.1-1.8,0.5c0,0.1,0.1,0.3,0.4,0.4c0.3,0.1,0.6,0.2,1,0.3c0.4,0.1,0.9,0.2,1.3,0.3
			c0.5,0.1,1,0.2,1.5,0.3c0.5,0.1,0.9,0.2,1.3,0.3c0.4,0.1,0.7,0.3,1,0.4s0.4,0.3,0.4,0.5c0,0.3-0.3,0.6-1,0.8
			c-0.7,0.2-1.6,0.3-2.8,0.4v0.3h-2.9V6.1c-1.3-0.1-2.2-0.2-2.8-0.4C590.8,5.5,590.4,5.2,590.4,4.9"/>
	</g>
</g>
<polygon class="st18" points="643.2,65.3 647,67.6 657.2,83.2 670.8,71.9 674.7,75.4 659,95.5 655,92.7 "/>
<path class="st19" d="M691.2,40.5c0.1,0.1,0.1,0.1,0.3,0.1c0.1-0.1,0.2-0.1,0.3-0.1h-0.3H691.2z"/>
<g transform="translate(22.400000, 0.000000)">
	<g transform="translate(23.800000, 0.000000)">
		<path class="st20" d="M630.5,7.6c0-0.6,0-1.2,0-1.8l-0.8-1.6c-0.2-0.2-0.6-0.2-0.8,0l-0.7,1.6v1.8c-0.7,0-1.6,0.5-1.6,1.1
			c0,0.6,0.5,1.1,1.1,1.1h0.5v59.4c0,3.4-1.8,6.1-4.3,6.1c-2-0.1-3.7-1.7-4-4.5c-0.1-0.6-0.6-1.1-1.2-1.1h-0.1
			c-0.7,0-1.3,0.6-1.2,1.3c0.5,3.9,3.6,6.7,6.5,6.7c2.3,0,4.2-1.1,5.3-3c1.4-2.4,1.3-4.9,1.3-7.6c0-2.4,0-4.9,0-7.4
			c0-3.4,0-6.9,0-10.3c0-3.9,0-7.8,0-11.7s0-7.8,0-11.7c0-3.4,0-6.8,0-10.2c0-2,0-4,0-5.9h0.3c0.7,0,1.1-0.5,1.1-1.1
			C632.1,8.1,631.2,7.6,630.5,7.6z"/>
		<g transform="translate(11.200000, 32.199999)" class="st21">
			<polygon class="st20" points="619.3,8.6 617,6.2 617,2.3 619.3,2.3 			"/>
		</g>
	</g>
	<path class="st22" d="M638.3,40.2l0.3-2.2c1.3-7.6,4.2-14.8,8.5-21l5.5-8c-13.5,0.6-25,8.6-30.7,20c-1.7,3.5-2.9,7.3-3.4,11.3
		c2.9-0.9,6.3-1.4,9.9-1.4C632.1,38.9,635.4,39.3,638.3,40.2z"/>
	<path class="st22" d="M667.2,35.8l0.9,4.7h0.3c3.1-1,6.7-1.6,10.7-1.6c3.9,0,7.6,0.6,10.7,1.6c-0.6-5.1-2.3-9.9-4.9-14.1
		c-6.3-10.4-17.7-17.4-30.8-17.4c-0.4,0-0.8,0-1.1,0l4.4,6.5C663,22.1,665.5,28.8,667.2,35.8z"/>
	<path class="st18" d="M638.7,38l-0.3,2.2h0.1c3.8-1.6,8.8-2.6,14.5-2.6c5.9,0,11.3,1.1,15.1,2.9h0.2l-0.9-4.7
		c-1.8-7-4.3-13.7-9.7-20.4l-4.4-6.5c-0.1,0-0.3,0-0.4,0l-5.5,8C642.8,23.2,639.9,30.4,638.7,38z"/>
</g>
<path class="st4" d="M661.6,40.2L661.6,40.2c0.1,0.1,0.1,0.1,0.1,0C661.6,40.2,661.6,40.2,661.6,40.2z"/>
<g transform="translate(71.399999, 133.699998)">
	<path id="Shape" class="st23" d="M632.2-1.6c7.8,0,14.2,9.1,14.2,20.3S640.1,39,632.2,39S618,29.9,618,18.7S624.4-1.6,632.2-1.6
		L632.2-1.6z M632.2-3.5c-2.3,0-4.5,0.7-6.5,1.9c-1.9,1.2-3.6,2.8-5.1,4.9c-2.9,4.2-4.5,9.6-4.5,15.5c0,5.8,1.6,11.3,4.5,15.5
		c1.5,2.1,3.2,3.8,5.1,4.9c2,1.3,4.3,1.9,6.5,1.9c2.3,0,4.5-0.7,6.5-1.9c1.9-1.2,3.6-2.8,5.1-4.9c2.9-4.2,4.5-9.6,4.5-15.5
		c0-5.8-1.6-11.3-4.5-15.5c-1.5-2.1-3.2-3.8-5.1-4.9C636.7-2.9,634.5-3.5,632.2-3.5L632.2-3.5z"/>
	<path class="st24" d="M632.2,0.1c3.2,0,6.3,1.8,8.6,5.3c2.5,3.6,3.8,8.3,3.8,13.4s-1.4,9.8-3.8,13.4c-2.4,3.4-5.4,5.3-8.6,5.3
		s-6.3-1.8-8.6-5.3c-2.5-3.6-3.8-8.3-3.8-13.4s1.4-9.8,3.8-13.4C625.9,2,629,0.1,632.2,0.1L632.2,0.1z M632.2-1.6
		c-7.8,0-14.2,9.1-14.2,20.3S624.4,39,632.2,39s14.2-9.1,14.2-20.3S640.1-1.6,632.2-1.6L632.2-1.6z"/>
	<rect id="Rectangle" x="632" y="-0.4" class="st24" width="0.9" height="19.1"/>
	
		<rect x="627.9" y="2.3" transform="matrix(0.8841 -0.4672 0.4672 0.8841 67.6875 294.8458)" class="st24" width="0.9" height="17.3"/>
	
		<rect x="625.4" y="6.8" transform="matrix(0.5335 -0.8458 0.8458 0.5335 279.7972 536.1)" class="st24" width="0.9" height="15.2"/>
	<rect x="618" y="18.4" class="st24" width="14.2" height="0.9"/>
	
		<rect x="618.8" y="22.4" transform="matrix(0.8459 -0.5333 0.5333 0.8459 84.2969 337.4318)" class="st24" width="14.7" height="0.9"/>
	
		<rect x="619.6" y="26.1" transform="matrix(0.4674 -0.884 0.884 0.4674 311.1522 569.6074)" class="st24" width="17.5" height="0.9"/>
	<rect x="632" y="18.7" class="st24" width="0.9" height="19.1"/>
	
		<rect x="636" y="17.6" transform="matrix(0.8841 -0.4672 0.4672 0.8841 61.4137 300.4321)" class="st24" width="0.9" height="17.5"/>
	
		<rect x="638.2" y="15" transform="matrix(0.5335 -0.8458 0.8458 0.5335 278.9529 550.627)" class="st24" width="0.9" height="14.9"/>
	<rect x="632.2" y="18.4" class="st24" width="13.4" height="0.9"/>
	
		<rect x="631.2" y="14.5" transform="matrix(0.8459 -0.5333 0.5333 0.8459 90.3882 342.8265)" class="st24" width="14.6" height="0.9"/>
	
		<rect x="627.7" y="10.5" transform="matrix(0.4674 -0.884 0.884 0.4674 329.2953 568.6029)" class="st24" width="17.7" height="0.9"/>
	<g transform="translate(14.000000, 19.600000)">
		<ellipse id="Oval" class="st24" cx="618.2" cy="-0.9" rx="2" ry="3"/>
		<path class="st23" d="M618.2-3.8c1.1,0,2,1.3,2,3s-0.9,3-2,3s-2-1.3-2-3S617.1-3.8,618.2-3.8L618.2-3.8z M618.2-4.6
			c-1.6,0-2.9,1.6-2.9,3.8s1.3,3.8,2.9,3.8c1.6,0,2.9-1.6,2.9-3.8S619.8-4.6,618.2-4.6L618.2-4.6z"/>
	</g>
</g>
<rect x="673.1" y="99.1" class="st25" width="30.5" height="8.8"/>
<polygon class="st25" points="700.3,128 729.1,128 729.1,143.1 700.1,143.1 "/>
<path class="st24" d="M704.7,152.6h-2.4V99.1c0-0.7-0.2-1.3-0.6-1.6c-0.7-0.7-2-0.8-2.5-0.7h-0.1h-5.2v-2.4h5.2
	c0.5,0,2.7-0.1,4.3,1.4c0.9,0.9,1.4,2,1.4,3.4L704.7,152.6L704.7,152.6z"/>
<path class="st26" d="M689.1,97.3h6.4c1,0,1.8-0.8,1.8-1.8l0,0c0-1-0.8-1.8-1.8-1.8h-6.4c-1,0-1.8,0.8-1.8,1.8l0,0
	C687.3,96.5,688.1,97.3,689.1,97.3z"/>
<path class="st24" d="M730.3,169.1h-2.4v-42.5c0-2.6-0.9-4.5-2.6-5.7c-1.1-0.8-2.3-1.1-2.6-1.1h-19.1v-2.4h19.1h0.1
	c0.1,0,1.9,0.3,3.8,1.5c1.7,1.2,3.7,3.5,3.7,7.7L730.3,169.1L730.3,169.1z"/>
<rect x="699.3" y="142.3" class="st24" width="29.8" height="2.4"/>
<rect x="727.8" y="160" class="st27" width="2.6" height="8.2"/>
<g transform="translate(104.999998, 168.699997)">
	<g>
		<circle class="st24" cx="620.4" cy="0.7" r="5.1"/>
		<path class="st23" d="M620.4-2c1.5,0,2.7,1.2,2.7,2.7s-1.2,2.7-2.7,2.7s-2.7-1.2-2.7-2.7C617.7-0.8,618.9-2,620.4-2L620.4-2z
			 M620.4-4.5c-2.8,0-5.1,2.3-5.1,5.1s2.3,5.1,5.1,5.1s5.1-2.3,5.1-5.1S623.2-4.5,620.4-4.5L620.4-4.5z"/>
	</g>
	<path class="st27" d="M623.2-3.8l-3.5,3.5c-0.3,0.3-0.6,0.7-0.6,1.1c0,0.7,0.6,1.3,1.3,1.3c0.5,0,0.9-0.3,1.1-0.6L625-2L623.2-3.8
		L623.2-3.8z"/>
</g>
<polygon class="st24" points="743.3,170.6 731.1,170.6 728.2,153.6 699.8,153.6 699.8,151.2 730.2,151.2 733.2,168.2 743.3,168.2 
	"/>
<path class="st25" d="M734.6,171h7.2c1,0,1.8-0.8,1.8-1.8l0,0c0-1-0.8-1.8-1.8-1.8h-7.2c-1,0-1.8,0.8-1.8,1.8l0,0
	C732.8,170.2,733.6,171,734.6,171z"/>
<path class="st25" d="M727.8,142.3l-2.2-2.2c-0.7-0.7-1.5-1-2.4-1h-23.1v3.3L727.8,142.3z"/>
<polygon class="st4" points="707.3,130.2 716.2,141.5 714.8,164.9 709.8,164.9 708.3,143.6 695.4,139.2 "/>
<polygon class="st4" points="716.8,130.2 728.3,136.7 736.6,163.9 732,166 721.4,141.5 711.9,138.7 706.1,133.3 "/>
<path class="st28" d="M687.7,92.8c1.5,0.1,3,0.3,4.4,0.5c0.3,0,0.3-3.5,0.4-3.8c0.2-0.4,0.9-0.5,1.3-0.7c0.5-0.3,0.9-0.8,1.2-1.3
	c1.4-2.1,1-4.6,1-7c0-0.7,0-1.3-0.2-1.9c-0.4-1.1-1.4-1.6-2.3-2c-2.4-1-5.3-1-7.6,0.5c-0.6,0.4-1.2,0.9-1.5,1.5
	c-0.5,1.1-0.4,2.2-0.5,3.4c0,1.3,0.2,2.6,0.6,3.8s1.1,2.3,2.1,3C688,89.7,687.3,91.3,687.7,92.8z"/>
<path class="st22" d="M684.8,83.1c-0.1-0.2-0.3-0.4-0.3-0.7c-0.2-0.8,0.7-0.9,0.9-1.6c0.1-0.5,0.1-1.3,0.7-1.5
	c0.5-0.2,1.1,0.3,1.6,0.2c0.5-0.1,0.9-0.6,1.2-1.1c0.3-0.4,0.9-0.8,1.4-0.5c0.1,0.1,0.2,0.3,0.3,0.3c0.3,0.3,0.8,0,1.2-0.1
	c0.8-0.2,1.8,0.1,2,0.9c0.1,0.1,0.1,0.3,0.1,0.4c0.2,0.4,0.7,0.5,1.1,0.5c0.4,0,1,0.2,1,0.7c0.1,0.5-0.5,0.8-0.3,1.3
	c0.1,0.2,0.3,0.3,0.3,0.5c0.2,0.3,0.3,0.7,0.1,1.1c-0.1,0.3-0.3,0.4-0.3,0.7c-0.1,0.6,0.5,1.1,1.1,1.1c0.6-0.1,1.1-0.6,1.4-1.2
	c0.3-0.5,0.4-0.9,0.3-1.5c-0.1-0.3-0.2-0.5-0.3-0.7c-0.1-0.4,0.1-0.7,0.2-1.1c0.2-0.7,0.4-1.3,0.3-2c-0.1-0.3-0.1-0.5-0.1-0.9
	c0-0.3,0-0.5-0.2-0.7c-0.3-0.3-0.6-0.5-0.7-0.9c-0.1-0.5,0.4-1,0.3-1.5c0-0.3-0.1-0.5-0.3-0.7c-0.5-0.6-1.1-1.1-1.8-1.1
	c-0.3-0.1-0.7-0.1-1-0.2c-0.5-0.3-0.7-1-1.2-1.5c-0.5-0.4-1.1-0.5-1.7-0.4c-0.6,0.1-1.3,0.2-1.8,0.1c-0.9-0.2-1.6-1-2.6-0.9
	c-1.3,0.1-1.8,1.8-2.9,2.2c-0.7,0.3-1.7,0.1-2.4,0.6c-0.9,0.7-0.7,2.4-1.1,3.4c-0.5,1.5-0.8,2.5-0.2,4c0.2,0.5,0.4,0.9,0.3,1.4
	c-0.1,0.2-0.1,0.4-0.2,0.6c-0.2,0.7,0.1,1.5,0.6,2c0.5,0.5,1.1,1,1.5,1.5c0.2,0.3,0.4,0.5,0.7,0.8c0.3,0.2,0.7,0.3,0.9,0.1
	c-0.1-0.2-0.1-0.5,0-0.7c0.1-0.2,0.3-0.3,0.4-0.5c0.1-0.1,0.1-0.3,0.1-0.4c-0.1-0.6-0.2-1.2-0.5-1.7
	C684.9,83.3,684.8,83.2,684.8,83.1z"/>
<path class="st22" d="M684.9,70.3c-0.3-0.3-0.7-0.5-1.1-0.3c-0.1,0.1-0.3,0.1-0.5,0.2c-0.5,0.1-1.1-0.2-1.6-0.4
	c-0.6-0.1-1.3,0-1.6,0.4c-0.3,0.3-0.5,0.7-0.3,1.1c0.1,0.1,0.1,0.1,0.2,0.3c0.2,0.3,0,0.9-0.3,1.1c-0.3,0.3-0.7,0.4-1.1,0.7
	c-0.6,0.5-0.9,1.4-0.6,2.1c0.3,0.7,1.1,1.3,1.8,1.2c0.4,0,0.8-0.2,1.1-0.1c0.2,0.1,0.3,0.2,0.5,0.3c0.6,0.3,1.5,0.2,2-0.2
	c0.6-0.4,1-1,1.4-1.6c0.1-0.3,0.3-0.5,0.3-0.8c-0.2-0.9-1.1-0.8-0.3-1.7C685.6,71.9,685.6,71.1,684.9,70.3z"/>
<path class="st18" d="M717.9,127.4c-6.5-4.8-12-13.1-15.3-20.5c-0.6-1.3-5.4-15.4-7.6-15.4l-9.7,0.1c0,0-9.7,14.5-6,33.6
	c1.2,6.1,2.3,11.2,3.2,15.3c4,10.1,13.2,1.5,17.6-1.8c2.6-2,9-3.7,13.7-5.5C718.1,131.5,721,129.7,717.9,127.4z"/>
<polygon class="st29" points="735.9,164.2 741,165.6 741,167.3 732.8,167.3 732.6,165.8 "/>
<polygon class="st29" points="714.2,164.9 716.9,166 716.9,167.3 709.8,167.3 709.8,164.9 "/>
<path class="st30" d="M695.6,91.9l4.6,2.8c0,0,13.6,15.9,13.8,16.4c0.2,0.5,1.3,6.5,1.1,6.4c-0.1-0.1-5.2-1.5-5.2-1.5l-10.3-9.6
	L695.6,91.9z"/>
<polygon class="st31" points="713.8,111 710.2,112.3 705.7,120.8 707.8,122.8 715,117.4 "/>
<g id="Group-42-Copy-2_40_" transform="translate(72.865787, 87.968597)">
	
		<linearGradient id="Fill-53_13_" gradientUnits="userSpaceOnUse" x1="-125.5138" y1="295.1285" x2="-125.4863" y2="294.2704" gradientTransform="matrix(40.0918 0 0 -40.0835 5666.4956 11830.4805)">
		<stop  offset="0" style="stop-color:#005263"/>
		<stop  offset="1" style="stop-color:#65D48E"/>
	</linearGradient>
	<path id="Fill-53_2_" class="st32" d="M649.8,29.5c-6.5,8.2-18.3,9.6-26.5,3.2c-8.2-6.5-9.6-18.3-3.2-26.5s18.3-9.6,26.5-3.2
		C654.8,9.5,656.3,21.3,649.8,29.5"/>
	<path id="Fill-54_2_" class="st4" d="M643.9,6.4c-6.3-4.9-15.5-3.9-20.4,2.4c-4.9,6.3-3.8,15.4,2.5,20.4c6.3,4.9,15.5,3.9,20.4-2.4
		C651.3,20.5,650.2,11.4,643.9,6.4z M625.7,29.5c-6.5-5.1-7.6-14.5-2.6-20.9c5.1-6.5,14.4-7.6,21-2.5c6.5,5.1,7.6,14.5,2.6,20.9
		C641.6,33.5,632.2,34.6,625.7,29.5L625.7,29.5z"/>
</g>
<polygon class="st28" points="718.9,122.5 716,119.7 713.4,120.1 713.3,121.9 715.7,123.2 716.9,123.8 "/>
<polygon class="st28" points="695.2,114.2 698.1,115.4 699.9,119.6 698,120.1 694.9,117.3 "/>
<polygon class="st33" points="684.5,92.9 673.6,113.3 677.2,117.4 695.1,117.4 695.5,114.1 682.7,110.6 688.7,101.1 685.2,91.7 "/>
<rect x="673.8" y="128" class="st25" width="25.4" height="15"/>
<path class="st24" d="M674.8,152.4h-2.4V99.1c0-0.7-0.2-1.3-0.6-1.6c-0.7-0.7-2-0.8-2.5-0.7h-0.1H664v-2.4h5.2
	c0.5,0,2.7-0.1,4.3,1.4c0.9,0.9,1.4,2,1.4,3.4L674.8,152.4L674.8,152.4z"/>
<path class="st25" d="M659.2,97.3h6.4c1,0,1.8-0.8,1.8-1.8l0,0c0-1-0.8-1.8-1.8-1.8h-6.4c-1,0-1.8,0.8-1.8,1.8l0,0
	C657.4,96.5,658.2,97.3,659.2,97.3z"/>
<path class="st24" d="M700.3,169.1h-2.4v-42.5c0-2.6-0.9-4.5-2.6-5.7c-1.1-0.8-2.3-1.1-2.6-1.1h-19v-2.4h19.1h0.1
	c0.1,0,1.9,0.3,3.8,1.5c1.7,1.2,3.7,3.5,3.7,7.7V169.1L700.3,169.1z"/>
<rect x="673.8" y="142.3" class="st24" width="25.4" height="2.4"/>
<polygon class="st24" points="717.7,170.6 705.5,170.6 702.6,153.6 674.2,153.6 674.2,151.2 704.7,151.2 707.6,168.2 717.7,168.2 
	"/>
<rect x="697.8" y="160" class="st27" width="2.6" height="8.2"/>
<g transform="translate(74.199999, 170.099997)">
	<g>
		<circle class="st24" cx="621.2" cy="-0.7" r="5.1"/>
		<path class="st23" d="M621.2-3.4c1.5,0,2.8,1.2,2.8,2.7S622.8,2,621.2,2c-1.5,0-2.7-1.2-2.7-2.7S619.7-3.4,621.2-3.4L621.2-3.4z
			 M621.2-5.9c-2.8,0-5.1,2.3-5.1,5.1s2.3,5.1,5.1,5.1s5.1-2.3,5.1-5.1S624.1-5.9,621.2-5.9L621.2-5.9z"/>
	</g>
	<path class="st27" d="M624.1-5.2l-3.5,3.5C620.3-1.4,620-1,620-0.6c0,0.7,0.6,1.3,1.3,1.3c0.5,0,0.9-0.3,1.1-0.6l3.4-3.4L624.1-5.2
		L624.1-5.2z"/>
</g>
<path class="st25" d="M709.1,171h7.2c1,0,1.8-0.8,1.8-1.8l0,0c0-1-0.8-1.8-1.8-1.8h-7.2c-1,0-1.8,0.8-1.8,1.8l0,0
	C707.3,170.2,708.1,171,709.1,171z"/>
<g transform="translate(38.499999, 133.699998)">
	<path class="st23" d="M635.3-1.6c8.6,0,15.4,9.1,15.4,20.3S643.7,39,635.1,39c-8.6,0-15.5-9.1-15.5-20.3s6.9-20.3,15.5-20.3H635.3
		L635.3-1.6z M635.2-3.5c-2.4,0-4.7,0.6-7,1.8c-2.1,1.2-4,2.8-5.5,4.9c-3.2,4.2-4.9,9.7-4.9,15.6s1.8,11.3,4.9,15.6
		c1.6,2.1,3.4,3.7,5.5,4.9c2.2,1.3,4.6,1.8,7,1.8s4.7-0.6,7-1.8c2.1-1.2,4-2.8,5.5-4.9c3.2-4.2,4.9-9.7,4.9-15.6s-1.8-11.3-4.9-15.6
		c-1.6-2.1-3.4-3.7-5.5-4.9C639.9-2.9,637.6-3.5,635.2-3.5L635.2-3.5z"/>
	<path class="st24" d="M635.3,0.1c3.6,0,6.9,1.9,9.6,5.3c2.7,3.6,4.2,8.3,4.2,13.4s-1.5,9.8-4.2,13.4c-2.6,3.4-6,5.3-9.6,5.3
		c-3.6,0-7.1-1.9-9.6-5.3c-2.7-3.6-4.2-8.3-4.2-13.4s1.5-9.8,4.2-13.4C628.2,1.9,631.6,0.1,635.3,0.1L635.3,0.1L635.3,0.1z
		 M635.2-1.6c-8.6,0-15.5,9.1-15.5,20.3S626.6,39,635.2,39c8.6,0,15.5-9.1,15.5-20.3S643.7-1.6,635.2-1.6L635.2-1.6z"/>
	<rect x="634.9" y="-0.4" class="st24" width="0.9" height="19.1"/>
	<rect x="630.5" y="2.1" transform="matrix(0.866 -0.5 0.5 0.866 79.0637 316.9405)" class="st24" width="0.9" height="17.6"/>
	<rect x="627.8" y="6.3" transform="matrix(0.5 -0.866 0.866 0.5 301.6428 551.3275)" class="st24" width="0.9" height="16.2"/>
	<rect x="619.7" y="18.4" class="st24" width="15.5" height="0.9"/>
	
		<rect x="620.7" y="22.3" transform="matrix(0.866 -0.5001 0.5001 0.866 72.8469 317.3689)" class="st24" width="15.7" height="0.9"/>
	
		<rect x="621.9" y="26.1" transform="matrix(0.5001 -0.866 0.866 0.5001 292.4252 559.6264)" class="st24" width="17.9" height="0.9"/>
	<rect x="634.9" y="18.7" class="st24" width="0.9" height="19.1"/>
	<rect x="639.4" y="17.4" transform="matrix(0.866 -0.5 0.5 0.866 72.5573 323.4532)" class="st24" width="0.9" height="17.9"/>
	<rect x="641.7" y="14.5" transform="matrix(0.5 -0.866 0.866 0.5 301.5974 567.3645)" class="st24" width="0.9" height="15.9"/>
	<rect x="635.2" y="18.4" class="st24" width="14.6" height="0.9"/>
	
		<rect x="634.2" y="14.5" transform="matrix(0.866 -0.5001 0.5001 0.866 78.5796 323.0706)" class="st24" width="15.6" height="0.9"/>
	
		<rect x="630.9" y="10.5" transform="matrix(0.5001 -0.866 0.866 0.5001 310.3927 559.6533)" class="st24" width="18.1" height="0.9"/>
	<g transform="translate(15.400000, 19.600000)">
		<ellipse class="st24" cx="619.8" cy="-0.9" rx="2.2" ry="3"/>
		<path class="st23" d="M619.9-3.8c1.3,0,2.2,1.3,2.2,3s-1,3-2.2,3s-2.2-1.3-2.2-3S618.5-3.8,619.9-3.8L619.9-3.8z M619.8-4.6
			c-1.7,0-3,1.7-3,3.8s1.4,3.8,3,3.8c1.7,0,3-1.7,3-3.8S621.4-4.6,619.8-4.6L619.8-4.6z"/>
	</g>
</g>
<g transform="translate(3.500000, 110.599998)">
	<polygon class="st34" points="622,56.5 621.9,58.9 626.7,61.4 629.1,59.1 626.8,56.7 622.1,54.2 	"/>
	<polygon class="st22" points="629,-2.2 619.9,-0.6 625.3,23.4 621.8,55.8 626.5,56.9 638.9,17.8 638.9,6.2 638,-0.8 	"/>
</g>
<g transform="translate(17.500000, 95.199998)">
	<polygon class="st22" points="637.7,1.8 638,32 632.2,71.1 627.7,71.1 625,35.1 618.9,-1 	"/>
	<polygon class="st34" points="627.8,70.6 627.8,72.9 632.5,75.3 635,72.9 632.5,70.6 	"/>
</g>
<path class="st18" d="M620.6,111c0.1,1.3,2,10.1,1.6,10.4c2-0.7,4.1-1.3,6.1-1.8c5.5-1.4,11-2.2,16.7-2.4c2.6-0.1,5.2-0.3,7.7,0.2
	c1.3,0.2,2.4,0.6,3.6,0.9c0.3,0.1,3.6,0.7,3.6,0.7c-0.6-3.9-0.4-7.8-0.7-11.7c-0.3-4-0.7-7.9-1.5-11.8c-1.1-6.1-4.2-11.1-6.7-16.8
	c-1.3-2.8-2.4-5.7-4-8.3c-1.3-2-3.4-5.1-5.8-5.9c-0.8-0.3-1.7-0.3-2.6-0.2c-2.6,0.1-5.2,0.2-7.8,0.3c-0.9,0.1-1.9,0.1-2.8,0.5
	c-1.3,0.7-1.9,2.1-2.4,3.4c-2.5,5.9-3.9,12.1-4.5,18.5c-0.3,3.4-0.6,6.7-0.7,10c-0.2,3.8-0.2,7.5-0.1,11.2
	C620.5,108.4,620.5,109.6,620.6,111z"/>
<path class="st4" d="M636.2,80.2c0.2,1.6,0.1,3.4,0,5c-0.6,10.2-3.2,22.8-3.8,33c6.5-1.2,14.6-1.4,23.5-0.3
	c-0.5-3.8-1.6-11.2-2.2-15c-0.3-2.4-0.7-4.9-1.3-7.2c-1-3.8-2.7-7.3-4.4-10.8c-3.1-6.5-6.3-12.9-9.4-19.4c-0.2-0.3-0.3-0.7-0.6-0.9
	c-0.3-0.3-0.8-0.3-1.2-0.4c-2-0.3-4.3-0.5-6.3,0c-0.3,2.1,1.7,5.6,2.6,7.5C634.4,74.4,635.8,77.1,636.2,80.2z"/>
<path class="st22" d="M643.2,50.9c0.4,1.3,0.5,2.8,0.3,4.2c-0.1,0.4-0.1,0.8,0.1,1.1c0.3,0.3-0.1,0.7,0.2,0.5
	c0.3-0.3,1.3-1.1,1.5-1.5c0.3-0.9,0.5-1.8,0.6-2.7c0.1-0.8,0.1-1.6-0.3-2.4c-0.2-0.4-0.6-0.7-0.9-1.1c-0.5-0.5-1.1-0.9-1.6-1.2
	c-1.1-0.5-1.9-0.2-1.1,0.8C642.4,49.2,642.9,50,643.2,50.9z"/>
<path class="st28" d="M632.8,64.9c1.6,0.5,3.1,0.9,4.7,1.5c0.5-1.3,1-2.7,1.3-4.1c1.5,0.1,3.2-0.1,3.9-1.4c0.3-0.4,0.3-0.9,0.5-1.4
	c0.5-2,0.9-4,1.3-6c0.1-0.7,0.3-1.4,0.2-2.1c-0.2-1.2-1.1-2.1-2-2.8c-2.4-1.6-5.5-2.2-8.2-1.2c-0.7,0.3-1.5,0.7-2,1.3
	c-0.8,1-1,2.4-1.2,3.6c-0.1,1.2-0.3,2.4-0.5,3.6c-0.2,1.4-0.3,3,0.6,3.9c0.5,0.5,1.2,0.7,1.6,1.3C633.5,62.2,632.7,63.6,632.8,64.9z
	"/>
<path class="st22" d="M643.7,58.7c0.1-0.4,0.1-1.5-0.6-0.9c-0.2,0.1-0.3,0.4-0.3,0.7c-0.1,0.3-0.1,0.5-0.2,0.7
	c-0.3,0.5-0.9,0.6-1.4,0.5c-0.2-0.1-0.4-0.1-0.5-0.3c-0.1-0.1-0.3-0.3-0.3-0.5c-0.3-0.5-0.5-0.9-0.7-1.3c-0.4-0.7-1.6-0.7-2.4-0.8
	c-0.9-0.1-1.8,0-2.6,0.5c-0.1,0.1-0.2,0.1-0.3,0.1c-0.2,0.1-0.4,0.2-0.6,0.3c-0.7,0.2-1.5-0.3-1.8-1.1c-0.1-0.3-0.3-0.7-0.6-0.9
	c-0.3-0.1-0.5,0.1-0.7,0.3c-0.2,0.2-0.3,0.5-0.3,0.8c-0.3,1-0.3,2.1-0.1,3.1c0.5,2.2,2.4,2.8,4.3,3.2c0.7,0.1,1.5,0.3,2.2,0.4
	c1.4,0.3,2.8,0.5,4.2-0.1c1.2-0.5,2-1.5,2.5-2.8C643.5,60,643.7,59.4,643.7,58.7z"/>
<path class="st22" d="M646.3,48c0.3-0.5,0.5-0.9,0.6-1.4c-0.5,0.1-1,0-1.5-0.2c0.1-0.3,0.1-0.6,0.2-0.9c0.1-0.3-3.2-1.1-3.4-1.2
	c-2.4-0.7-4.6-1.4-7.1-0.5c-2.1,0.7-3.7,2.2-4.5,4.3c-0.7,2-0.6,4.9,0.3,6.9c0.1-0.5,0.1-1.9,0.3-2.4c0.2-0.5,0.5-1,0.9-1.4
	c0.7-0.9,1.6-1.5,2.7-1.8c1.6-0.6,3.4-0.7,5.1-0.6c1.6,0.1,3.5,0.3,4.9,1.1c0.7,0.3,0.8,0.5,1.4-0.1c0.1-0.1,1.1-1.5,1-1.5
	C646.8,48.1,646.6,48,646.3,48z"/>
<polygon class="st18" points="627.7,65.3 630.7,66.4 640.2,89.1 657.3,93.2 657.2,98.1 638.5,98.1 632,94.9 622.9,77.1 624,69.8 "/>
<polygon class="st28" points="657.3,94.2 661,91.6 663.6,92.7 663.9,93.7 662.5,93.7 661.8,95.8 664.4,97.3 663.1,98.3 659.2,98.3 
	657.3,97.6 "/>
<g transform="translate(53.899999, 65.099999)">
	<polygon class="st28" points="621,0.3 622.9,0.3 624.4,2.2 623.9,8.4 621.9,8.8 621,7.5 620,1 	"/>
	<polygon class="st28" points="616.9,7.1 618,3.2 621.2,1 621.9,2.7 620.6,4 620.6,6.8 619.4,9.4 	"/>
</g>
<path class="st28" d="M618.7,121.8l-0.5-1.4l-0.5,1.4c-0.6,1.8-1.8,3.2-3.5,4.2l0,0l0,0c1.6,0.9,2.9,2.4,3.5,4.2l0.5,1.4l0.5-1.4
	c0.6-1.8,1.8-3.2,3.5-4.2l0,0l0,0C620.5,125.1,619.3,123.5,618.7,121.8z"/>
<path class="st28" d="M582.2,131.9l-0.3-0.9l-0.3,0.9c-0.4,1.2-1.3,2.2-2.4,2.8l0,0l0,0c1.1,0.6,2,1.6,2.4,2.8l0.3,0.9l0.3-0.9
	c0.4-1.2,1.3-2.2,2.4-2.8l0,0l0,0C583.5,134.1,582.6,133.1,582.2,131.9z"/>
<g>
	<path class="st2" d="M77.2,86.9c1.9,0.9,7.1-5.7,11.6-14.9c4.5-9.2,6.7-17.3,4.8-18.3l-2.7-1.3L74.5,85.5L77.2,86.9"/>
	<g>
		
			<ellipse transform="matrix(0.4779 -0.8784 0.8784 0.4779 -17.0356 108.8771)" class="st4" cx="83.1" cy="68.8" rx="15.4" ry="3.7"/>
		<g id="Page-1_3_">
			<g id="Group_4_">
				
					<linearGradient id="Shape_3_" gradientUnits="userSpaceOnUse" x1="381.5134" y1="415.5713" x2="392.637" y2="402.4275" gradientTransform="matrix(0.5316 0.2597 -0.4323 0.885 54.2466 -393.584)">
					<stop  offset="0" style="stop-color:#005263"/>
					<stop  offset="1" style="stop-color:#65D48E"/>
				</linearGradient>
				<path id="Shape_4_" class="st35" d="M88.5,57.7c-1.4-0.7-5,3.8-8.1,10.2c-3.1,6.3-4.5,11.9-3.1,12.6c1.4,0.7,5-3.8,8.1-10.2
					c1.5-3.1,2.7-6,3.2-8.4S89.1,58,88.5,57.7z M85.2,66.5c0.1,0.1,0,0.4-0.2,0.9s-0.5,0.7-0.5,0.7l-0.3-0.2c-0.9,1.8-2,3-2.3,2.7
					l-0.6,3.7c0,0.2-0.1,0.3-0.2,0.5c-0.1,0.2-0.2,0.4-0.3,0.5c-0.2,0.2-0.2,0.2-0.3,0.2c0,0-0.1-0.1,0-0.2l0.9-5.3
					c0-0.2,0.2-0.5,0.4-0.9c0.2-0.3,0.3-0.5,0.4-0.5l0.5,0.2c0.3,0.2,0.8-0.5,1.3-1.3l-1-0.5c-0.1-0.1,0-0.4,0.2-0.9
					c0.2-0.4,0.5-0.7,0.5-0.7l1,0.5c0.3-0.8,0.5-1.6,0.2-1.7l-0.5-0.2c-0.1-0.1,0-0.4,0.2-0.9s0.5-0.7,0.5-0.7l1.6,0.8
					c0.1,0.1,0,0.4-0.2,0.9C86.3,64.7,86.1,65,86,65l-0.5-0.2c-0.2,0.5-0.4,1-0.6,1.6L85.2,66.5z"/>
				
					<linearGradient id="SVGID_1_" gradientUnits="userSpaceOnUse" x1="379.0316" y1="418.4336" x2="395.3463" y2="399.156" gradientTransform="matrix(0.5316 0.2597 -0.4323 0.885 54.2466 -393.584)">
					<stop  offset="0" style="stop-color:#005263"/>
					<stop  offset="1" style="stop-color:#65D48E"/>
				</linearGradient>
				<path class="st36" d="M91,52.4c-2-1-7.4,5.7-11.8,14.9c-4.5,9.3-6.5,17.6-4.5,18.5c2,1,7.4-5.7,11.8-14.9
					c2.2-4.5,3.8-8.9,4.7-12.4C92.1,55.1,92.1,52.9,91,52.4z M76.5,82c-1.6-0.8,0-7.2,3.4-14.3c3.4-7.1,7.6-12.3,9.2-11.5
					c1.6,0.8,0,7.2-3.4,14.3c-1.6,3.4-3.6,6.6-5.3,8.7C78.7,81.4,77.3,82.4,76.5,82z"/>
			</g>
		</g>
	</g>
</g>
<g>
	<path class="st2" d="M290.3,112.5l3.9-2.1l-24.1-48.7l-3.9,2c-2.8,1.4,0.5,13.4,7,26.9S287.5,113.9,290.3,112.5"/>
	<g>
		
			<ellipse transform="matrix(0.8784 -0.4779 0.4779 0.8784 -6.7726 145.0217)" class="st4" cx="281.6" cy="85.8" rx="5.4" ry="22.7"/>
		<g id="Page-1_1_">
			<g id="Group_1_">
				
					<linearGradient id="Shape_5_" gradientUnits="userSpaceOnUse" x1="461.1554" y1="413.8687" x2="477.5253" y2="394.5258" gradientTransform="matrix(-0.5316 0.2597 0.4323 0.885 356.1911 -393.584)">
					<stop  offset="0" style="stop-color:#005263"/>
					<stop  offset="1" style="stop-color:#65D48E"/>
				</linearGradient>
				<path id="Shape_1_" class="st37" d="M273.5,75.8c0.8,3.5,2.5,7.8,4.7,12.3c4.5,9.3,9.8,16,11.9,15c2.1-1,0-9.3-4.5-18.6
					c-4.5-9.3-9.8-16-11.9-15C272.8,70,272.7,72.3,273.5,75.8z M278.9,82.3c-0.3-0.8-0.7-1.6-0.9-2.3l-0.7,0.3c-0.1,0-0.5-0.5-0.8-1
					c-0.3-0.7-0.5-1.2-0.3-1.3l2.4-1.2c0.1,0,0.5,0.3,0.8,1c0.3,0.7,0.5,1.2,0.3,1.3l-0.7,0.3c-0.5,0.2-0.1,1.4,0.3,2.5l1.5-0.7
					c0.1,0,0.5,0.5,0.8,1c0.3,0.7,0.5,1.2,0.3,1.3l-1.5,0.7c0.7,1.2,1.4,2.1,1.8,1.8l0.7-0.3c0.1,0,0.3,0.2,0.6,0.7
					c0.3,0.5,0.6,0.9,0.6,1.3l1.3,7.7c0.1,0.2,0,0.3,0,0.3c-0.1,0-0.2-0.1-0.5-0.3c-0.1-0.2-0.3-0.5-0.5-0.8
					c-0.1-0.3-0.2-0.6-0.2-0.8l-0.9-5.4c-0.5,0.5-2-1.3-3.3-3.9l-0.5,0.2c-0.1,0-0.5-0.3-0.8-1c-0.3-0.7-0.5-1.2-0.3-1.3L278.9,82.3
					z"/>
				
					<linearGradient id="SVGID_2_" gradientUnits="userSpaceOnUse" x1="457.5032" y1="418.081" x2="481.5124" y2="389.7115" gradientTransform="matrix(-0.5316 0.2597 0.4323 0.885 356.1911 -393.584)">
					<stop  offset="0" style="stop-color:#005263"/>
					<stop  offset="1" style="stop-color:#65D48E"/>
				</linearGradient>
				<path class="st38" d="M269.5,70.7c1.3,5.2,3.7,11.7,6.9,18.2c6.6,13.5,14.4,23.4,17.4,21.9c3-1.4,0.1-13.6-6.6-27.2
					c-6.6-13.5-14.4-23.4-17.4-21.9C268.4,62.4,268.3,65.7,269.5,70.7z M285.6,101.2c-2.5-3.1-5.4-7.7-7.8-12.8
					c-5.1-10.5-7.4-20-5.1-21.1s8.4,6.5,13.5,17s7.4,20,5.1,21.1C290.1,105.9,288,104.4,285.6,101.2z"/>
			</g>
		</g>
	</g>
</g>
<g>
	<path class="st2" d="M618.5,118.2l0.2-4.1l-50.4-4l-0.3,4.1c-0.2,2.9,10.9,6,24.8,7.2C606.8,122.5,618.3,121.1,618.5,118.2"/>
	<g>
		
			<ellipse transform="matrix(4.104500e-02 -0.9992 0.9992 4.104500e-02 456.4441 700.3093)" class="st4" cx="593.1" cy="112.4" rx="5" ry="21.2"/>
		<g id="Page-1_2_">
			<g id="Group_2_">
				
					<linearGradient id="Shape_6_" gradientUnits="userSpaceOnUse" x1="-152.6289" y1="163.0533" x2="-134.3764" y2="141.4861" gradientTransform="matrix(-0.5136 0.8581 0.8581 0.5136 388.4857 157.4746)">
					<stop  offset="0" style="stop-color:#005263"/>
					<stop  offset="1" style="stop-color:#65D48E"/>
				</linearGradient>
				<path id="Shape_2_" class="st39" d="M581.2,114.1c3.2,1,7.5,1.7,12.1,2.1c9.6,0.9,17.5-0.2,17.7-2.3c0.2-2.2-7.5-4.5-17-5.3
					c-9.6-0.9-17.5,0.2-17.7,2.3C576.2,111.9,578,113.1,581.2,114.1z M588.9,112.9c-0.8-0.1-1.6-0.2-2.3-0.4l-0.1,0.7
					c-0.1,0.1-0.6,0.1-1.2,0.1c-0.7-0.1-1.1-0.2-1.2-0.3l0.2-2.5c0.1-0.1,0.5-0.2,1.2-0.1c0.7,0.1,1.1,0.2,1.2,0.3l-0.1,0.7
					c0,0.5,1.1,0.8,2.2,0.9l0.2-1.5c0.1-0.1,0.6-0.1,1.2-0.1c0.7,0.1,1.1,0.2,1.2,0.3l-0.2,1.5c1.3,0,2.3-0.1,2.4-0.6l0.1-0.7
					c0.1-0.1,0.3-0.2,0.8-0.1c0.5-0.1,1,0,1.3,0.1l6.8,2.7c0.2,0,0.3,0.2,0.3,0.2c-0.1,0.1-0.2,0.1-0.5,0.2c-0.2,0-0.5,0.1-0.9,0
					c-0.3-0.1-0.6-0.1-0.8-0.2l-4.8-1.9c0.1,0.6-2,1-4.7,0.8l0,0.5c-0.1,0.1-0.5,0.2-1.2,0.1c-0.7-0.1-1.1-0.2-1.2-0.3L588.9,112.9z
					"/>
				
					<linearGradient id="SVGID_3_" gradientUnits="userSpaceOnUse" x1="-156.6509" y1="167.7521" x2="-129.9551" y2="136.2081" gradientTransform="matrix(-0.5136 0.8581 0.8581 0.5136 388.4857 157.4746)">
					<stop  offset="0" style="stop-color:#005263"/>
					<stop  offset="1" style="stop-color:#65D48E"/>
				</linearGradient>
				<path class="st40" d="M575.2,114.8c4.8,1.5,11.1,2.6,17.9,3.2c13.9,1.2,25.6-0.3,25.8-3.4c0.3-3.1-10.8-6.6-24.9-7.8
					c-13.9-1.2-25.6,0.3-25.8,3.4C568,111.7,570.6,113.4,575.2,114.8z M607.2,116.6c-3.7,0.5-8.8,0.6-14,0.1
					c-10.8-1-19.5-3.6-19.3-6c0.2-2.4,9.2-3.6,20-2.7s19.5,3.6,19.3,6C613.2,115.2,611,116.2,607.2,116.6z"/>
			</g>
		</g>
	</g>
</g>
<g>
	<g>
		<g>
			<path class="st4" d="M712.6,101.9c-0.6,0.6-1.1,1.2-1.7,1.8c-0.3,0.3-0.5,0.6-0.8,0.9c0.1-0.1,0.1-0.1,0.2-0.2
				c-0.3,0.2-0.6,0.4-0.9,0.6c0.1,0,0.1-0.1,0.2-0.1c-0.3,0.1-0.7,0.3-1,0.3c0.1,0,0.2,0,0.2,0c-0.3,0.1-0.7,0.1-1,0.1
				c0.1,0,0.2,0,0.2,0c-0.3,0-0.7-0.1-1-0.2c0.1,0,0.2,0.1,0.2,0.1c-0.3-0.1-0.7-0.3-1-0.5c0.1,0,0.1,0.1,0.2,0.1
				c-0.4-0.2-0.7-0.6-1-0.8c-0.3-0.3-0.6-0.6-1-0.9l0,0c-0.4-0.3-1-0.3-1.3,0.1l-0.1,0.1c-0.2,0.2-0.3,0.4-0.2,0.7l0,0
				c0,0.1,0,0.1,0,0.2c0,0.3,0,0.6,0,0.9c0,1,0.1,2,0.1,3s0.1,2,0.1,3.1c0,0.5,0,1,0.1,1.5l0,0c0,0.5,0.5,0.9,1,0.9s0.9-0.5,0.9-1
				s0-0.9-0.1-1.4c0-1-0.1-2-0.1-3s-0.1-2-0.1-3c0-0.4,0-0.8-0.1-1.3c-0.1,0.2-0.2,0.4-0.2,0.7l0.1-0.1c-0.4,0-0.9,0-1.3,0.1
				c0.3,0.3,0.6,0.5,0.8,0.8c0.3,0.3,0.6,0.6,0.9,0.8c0.7,0.5,1.5,0.9,2.4,1s1.7,0,2.6-0.3c0.4-0.2,0.8-0.4,1.2-0.7
				c0.3-0.2,0.5-0.4,0.7-0.6c0.3-0.3,0.5-0.6,0.8-0.9c0.4-0.5,0.9-0.9,1.3-1.4c0.3-0.4,0.3-1-0.1-1.3
				C713.6,101.5,713,101.5,712.6,101.9L712.6,101.9z"/>
		</g>
	</g>
	<g>
		<g>
			<path class="st4" d="M708.2,99.1c0.3,0.3,0.7,0.6,1,0.9c0.7,0.7,1.5,1.3,2.2,2c0.8,0.7,1.5,1.4,2.3,2.1c0.4,0.4,0.8,0.8,1.3,1.2
				l0,0c0.4,0.3,1,0.3,1.3-0.1s0.3-1-0.1-1.3c-0.3-0.3-0.7-0.6-1-0.9c-0.7-0.7-1.5-1.3-2.2-2c-0.8-0.7-1.5-1.4-2.3-2.1
				c-0.4-0.4-0.8-0.8-1.3-1.2l0,0c-0.4-0.3-1-0.3-1.3,0.1C707.7,98.1,707.8,98.7,708.2,99.1L708.2,99.1z"/>
		</g>
	</g>
	<g>
		<g>
			<path class="st4" d="M713.8,106.5c-0.3-0.3-0.7-0.6-1-0.9c-0.7-0.7-1.5-1.3-2.2-2c-0.8-0.7-1.5-1.4-2.3-2.1
				c-0.4-0.4-0.8-0.8-1.3-1.2l0,0c-0.4-0.3-1-0.3-1.3,0.1s-0.3,1,0.1,1.3c0.3,0.3,0.7,0.6,1,0.9c0.7,0.7,1.5,1.3,2.2,2
				c0.8,0.7,1.5,1.4,2.3,2.1c0.4,0.4,0.8,0.8,1.3,1.2l0,0c0.4,0.3,1,0.3,1.3-0.1S714.2,106.8,713.8,106.5L713.8,106.5z"/>
		</g>
	</g>
</g>
</svg>
