<svg xmlns="http://www.w3.org/2000/svg" width="43" height="43" viewBox="0 0 43 43">
  <g fill="none" fill-rule="evenodd">
    <circle cx="21.407" cy="21.407" r="21.407" fill="#005263"/>
    <g fill="#FFF" fill-rule="nonzero" transform="translate(13.5 12.6)">
      <g transform="translate(0 8.42)">
        <path d="M3.78897754 2.47097469L3.03960198 2.47097469 3.03960198 3.58858273 3.78897754 3.58858273C4.08985042 3.58858273 4.32785434 3.32363496 4.32785434 3.04521528 4.32729301 2.73143181 4.08985042 2.47097469 3.78897754 2.47097469zM6.80500366 2.49342789L6.06011874 2.49342789 6.06011874 4.50411197 6.80500366 4.50411197C8.01691514 4.50411197 8.07024149 2.49342789 6.80500366 2.49342789z"/>
        <path d="M12.9105901,0 L0.561330006,0 C0.252598503,0 0,0.252598503 0,0.561330006 L0,6.17463006 C0,6.48336157 0.252598503,6.73596007 0.561330006,6.73596007 L12.9105901,6.73596007 C13.219883,6.73596007 13.4719201,6.48336157 13.4719201,6.17463006 L13.4719201,0.561330006 C13.4719201,0.252598503 13.219883,0 12.9105901,0 Z M3.78897754,4.14991273 L3.03960198,4.14991273 L3.03960198,4.74267722 C3.03960198,4.94026538 2.91386406,5.05197005 2.75220102,5.05197005 C2.6040099,5.05197005 2.44739883,4.94026538 2.44739883,4.74211589 L2.44739883,2.21556953 C2.44739883,2.06737841 2.56415547,1.90515404 2.75220102,1.90515404 L3.78897754,1.90515404 C4.37276075,1.90515404 4.89816563,2.29583972 4.89816563,3.04521528 C4.8976043,3.75473641 4.37276075,4.14991273 3.78897754,4.14991273 Z M6.84541942,5.05197005 L5.77720842,5.05197005 C5.6290173,5.05197005 5.46735426,4.9705772 5.46735426,4.77355037 L5.46735426,2.22455081 C5.46735426,2.06288777 5.6290173,1.94613113 5.77720842,1.94613113 L6.80500366,1.94613113 C8.8561035,1.94613113 8.8111971,5.05197005 6.84541942,5.05197005 Z M10.8448957,2.52935301 L9.53811946,2.52935301 L9.53811946,3.24280344 L10.6826713,3.24280344 C10.8448957,3.24280344 11.0059974,3.40446649 11.0059974,3.56163889 C11.0059974,3.70983001 10.8448957,3.83051596 10.6826713,3.83051596 L9.53811946,3.83051596 L9.53811946,4.77298904 C9.53811946,4.93016144 9.42641479,5.05140872 9.26924239,5.05140872 C9.07165422,5.05140872 8.95040694,4.93016144 8.95040694,4.77298904 L8.95040694,2.22398948 C8.95040694,2.06232644 9.07221555,1.9455698 9.26924239,1.9455698 L10.8448957,1.9455698 C11.0424839,1.9455698 11.1586792,2.06232644 11.1586792,2.22398948 C11.1586792,2.36825129 11.0424839,2.52935301 10.8448957,2.52935301 Z"/>
      </g>
      <path d="M15.1559102,4.25824942 L11.4589907,0.561330006 C11.134542,0.235758602 10.5642307,0 10.1039401,0 L3.92931004,0 C3.00087021,0 2.24532002,0.755550188 2.24532002,1.68399002 L2.24532002,7.29729008 C2.24532002,7.60770557 2.49623454,7.85862008 2.80665003,7.85862008 C3.11706552,7.85862008 3.36798003,7.60770557 3.36798003,7.29729008 L3.36798003,1.68399002 C3.36798003,1.37469718 3.61945588,1.12266001 3.92931004,1.12266001 L8.98128009,1.12266001 C9.60154975,1.12266001 10.1039401,1.6256117 10.1039401,2.24532002 L10.1039401,4.35030754 C10.1039401,5.04523409 10.6731287,5.61330006 11.3669326,5.61330006 L13.4719201,5.61330006 C14.0921898,5.61330006 14.5945802,6.11625174 14.5945802,6.73596007 L14.5945802,16.2785702 C14.5945802,16.587863 14.3436656,16.8399002 14.0332501,16.8399002 L3.92931004,16.8399002 C3.61945588,16.8399002 3.36798003,16.587863 3.36798003,16.2785702 C3.36798003,15.9681547 3.11706552,15.7172402 2.80665003,15.7172402 C2.49623454,15.7172402 2.24532002,15.9681547 2.24532002,16.2785702 C2.24532002,17.20701 3.00087021,17.9625602 3.92931004,17.9625602 L14.0332501,17.9625602 C14.96169,17.9625602 15.7172402,17.20701 15.7172402,16.2785702 L15.7172402,5.61330006 C15.7172402,5.15357078 15.4814816,4.5832595 15.1559102,4.25824942 Z"/>
    </g>
  </g>
</svg>
