<?xml version="1.0" encoding="UTF-8"?>
<svg width="40px" height="40px" viewBox="0 0 40 40" version="1.1" xmlns="http://www.w3.org/2000/svg" xmlns:xlink="http://www.w3.org/1999/xlink">
    <!-- Generator: Sketch 56.3 (81716) - https://sketch.com -->
    <title>Group 17</title>
    <desc>Created with Sketch.</desc>
    <g id="New-UI" stroke="none" stroke-width="1" fill="none" fill-rule="evenodd">
        <g id="1.-Report-(about-you)" transform="translate(-15.000000, -553.000000)">
            <g id="Group-17" transform="translate(15.000000, 553.000000)">
                <g id="Group-33">
                    <g id="Group-18" fill="#65D48E">
                        <circle id="Oval-Copy-8" opacity="0.120419457" cx="20" cy="20" r="20"></circle>
                        <circle id="Oval-Copy-9" opacity="0.232538132" cx="20" cy="20" r="16.8421053"></circle>
                    </g>
                    <g id="Group-11-Copy-2" transform="translate(6.400000, 8.800000)">
                        <circle id="Oval" fill="#005263" opacity="0.52" cx="1.05263158" cy="11.3263158" r="1.05263158"></circle>
                        <circle id="Oval-Copy-10" fill="#005263" opacity="0.52" cx="9.6" cy="0.8" r="1"></circle>
                        <circle id="Oval-Copy-2" fill="#005263" opacity="0.523809524" cx="22.1052632" cy="1.85263158" r="1.05263158"></circle>
                        <circle id="Oval-Copy-36" fill="#47A395" opacity="0.287252604" cx="22.8842105" cy="23.1789474" r="1"></circle>
                    </g>
                </g>
                <path d="M24.0562964,20.299654 L24.0562964,12.2767878 C24.0562964,11.5716552 23.4861104,11 22.7827901,11 L13.2735063,11 C12.5704588,11 12,11.5716552 12,12.2767878 L12,24.7667701 C12,25.4719027 12.5704588,26.0435579 13.2735063,26.0435579 L18.3271548,26.0435579 C18.3274277,22.8715554 20.8924462,20.299654 24.0562964,20.299654 Z M14.4477075,13.3249135 L21.6091345,13.3249135 C21.7600019,13.3249135 21.8819508,13.4471766 21.8819508,13.5984327 C21.8819508,13.7494154 21.7600019,13.871952 21.6091345,13.871952 L14.4477075,13.871952 C14.297113,13.871952 14.1748913,13.7494154 14.1748913,13.5984327 C14.1748913,13.4474501 14.297113,13.3249135 14.4477075,13.3249135 Z M14.4477075,15.7865866 L21.6091345,15.7865866 C21.7600019,15.7865866 21.8819508,15.9088497 21.8819508,16.0601059 C21.8819508,16.2110885 21.7600019,16.3336251 21.6091345,16.3336251 L14.4477075,16.3336251 C14.297113,16.3336251 14.1748913,16.2110885 14.1748913,16.0601059 C14.1748913,15.9091232 14.297113,15.7865866 14.4477075,15.7865866 Z M14.4477075,18.2482597 L21.6091345,18.2482597 C21.7600019,18.2482597 21.8819508,18.3705228 21.8819508,18.521779 C21.8819508,18.6727616 21.7600019,18.7952982 21.6091345,18.7952982 L14.4477075,18.7952982 C14.297113,18.7952982 14.1748913,18.6727616 14.1748913,18.521779 C14.1748913,18.3707964 14.297113,18.2482597 14.4477075,18.2482597 Z M17.3589299,23.7186444 L14.4477075,23.7186444 C14.297113,23.7186444 14.1748913,23.5963813 14.1748913,23.4451252 C14.1748913,23.2938691 14.297113,23.171606 14.4477075,23.171606 L17.3589299,23.171606 C17.5095245,23.171606 17.6317462,23.2938691 17.6317462,23.4451252 C17.6317462,23.5963813 17.5095245,23.7186444 17.3589299,23.7186444 Z M18.9720925,21.2569713 L14.4477075,21.2569713 C14.297113,21.2569713 14.1748913,21.1344347 14.1748913,20.9834521 C14.1748913,20.8321959 14.297113,20.7099329 14.4477075,20.7099329 L18.9720925,20.7099329 C19.1226871,20.7099329 19.2449088,20.8321959 19.2449088,20.9834521 C19.2449088,21.1344347 19.1226871,21.2569713 18.9720925,21.2569713 Z M24.0562964,21.0871159 C21.3259512,21.0871159 19.1125929,23.3061774 19.1125929,26.0435579 C19.1125929,28.7809384 21.3259512,31 24.0562964,31 C26.7871873,31 29,28.7809384 29,26.0435579 C29,23.3061774 26.7871873,21.0871159 24.0562964,21.0871159 Z M26.4349815,27.849879 C26.3812367,27.920994 26.2996646,27.9581926 26.2170013,27.9581926 C26.1599827,27.9581926 26.1018728,27.9401403 26.0524931,27.9026682 L23.8915154,26.2615528 C23.8233113,26.2101312 23.7834802,26.129443 23.7834802,26.0435579 L23.7834802,23.3083656 C23.7834802,23.1571094 23.9057019,23.0348464 24.0562964,23.0348464 C24.2071638,23.0348464 24.3291127,23.1571094 24.3291127,23.3083656 L24.3291127,25.9076189 L26.3820551,27.4666785 C26.5020943,27.5580339 26.5258293,27.7295305 26.4349815,27.849879 Z" id="Shape" fill="#005263" fill-rule="nonzero"></path>
            </g>
        </g>
    </g>
</svg>