<svg xmlns="http://www.w3.org/2000/svg" viewBox="0 0 30.11 26"><defs><style>.cls-1{fill:#ee888e;}.cls-2{fill:#f4ca16;}.cls-3{fill:#e3ab26;}.cls-4{fill:#f49496;}.cls-5{fill:#bcd874;}.cls-6{fill:#fadc3c;}.cls-7{fill:#b5cd6a;}.cls-8{fill:#e4e5e5;}.cls-9{fill:#fff;}</style></defs><g id="Layer_2" data-name="Layer 2"><g id="Layer_1-2" data-name="Layer 1"><path class="cls-1" d="M29.45,15.67v.07c-.08,1-1.93,1.9-4.21,1.9s-4.13-.85-4.2-1.9v-.13A1.59,1.59,0,0,1,22,14.45a6.74,6.74,0,0,1,3.28-.74,6.79,6.79,0,0,1,3.29.74,1.59,1.59,0,0,1,.92,1.16v.06Z"/><path class="cls-2" d="M28.06,15.67v0c0,.57-1.29,1-2.82,1s-2.76-.45-2.81-1v-.07c.05-.57,1.29-1,2.81-1s2.77.45,2.82,1Z"/><path class="cls-3" d="M22.49,15.89c.26-.48,1.39-.84,2.75-.84s2.5.36,2.76.84a.64.64,0,0,0,.06-.18v-.07c0-.57-1.29-1-2.82-1s-2.76.45-2.81,1v.07A.64.64,0,0,0,22.49,15.89Z"/><path class="cls-4" d="M21,15.61v.13c.07,1,1.93,1.9,4.2,1.9s4.13-.85,4.21-1.9v1.37c-.08,1.05-1.93,1.9-4.21,1.9s-4.13-.85-4.2-1.9v-1.5Z"/><path class="cls-1" d="M29.45,13.54v.06c-.08,1.06-1.93,1.9-4.21,1.9s-4.13-.84-4.2-1.9v-.13A1.59,1.59,0,0,1,22,12.31a6.74,6.74,0,0,1,3.28-.74,6.79,6.79,0,0,1,3.29.74,1.59,1.59,0,0,1,.92,1.16v.07Z"/><path class="cls-5" d="M28.06,13.54v0c0,.57-1.29,1-2.82,1s-2.76-.45-2.81-1V13.5c.05-.56,1.29-1,2.81-1s2.77.46,2.82,1Z"/><path class="cls-4" d="M22.49,13.75c.26-.48,1.39-.84,2.75-.84s2.5.36,2.76.84a.64.64,0,0,0,.06-.18V13.5c0-.56-1.29-1-2.82-1s-2.76.46-2.81,1v.07A.64.64,0,0,0,22.49,13.75Z"/><path class="cls-4" d="M21,13.47v.13c.07,1.06,1.93,1.9,4.2,1.9s4.13-.84,4.21-1.9V15c-.08,1-1.93,1.9-4.21,1.9S21.11,16,21,15v-1.5Z"/><path class="cls-6" d="M23.46,17.6v.06c-.07,1.06-1.92,1.9-4.2,1.9s-4.13-.84-4.2-1.9v-.12A1.61,1.61,0,0,1,16,16.37a6.82,6.82,0,0,1,3.29-.73,6.75,6.75,0,0,1,3.28.73,1.6,1.6,0,0,1,.92,1.17Z"/><path class="cls-2" d="M22.07,17.6v0c-.05.57-1.29,1-2.81,1s-2.77-.46-2.81-1v0a0,0,0,0,1,0,0c0-.57,1.29-1,2.81-1s2.76.46,2.81,1Z"/><path class="cls-3" d="M16.5,17.81c.27-.48,1.4-.84,2.76-.84s2.49.36,2.76.84a.35.35,0,0,0,.05-.18v-.06c-.05-.57-1.29-1-2.81-1s-2.77.46-2.81,1v0a0,0,0,0,0,0,0A.35.35,0,0,0,16.5,17.81Z"/><path class="cls-3" d="M15.06,17.54v.12c.07,1.06,1.92,1.9,4.2,1.9s4.13-.84,4.2-1.9V19c-.07,1.06-1.92,1.9-4.2,1.9s-4.13-.84-4.2-1.9V17.54Z"/><path class="cls-1" d="M23.46,15.46v.07c-.07,1-1.92,1.9-4.2,1.9s-4.13-.85-4.2-1.9V15.4A1.6,1.6,0,0,1,16,14.24a6.81,6.81,0,0,1,3.29-.74,6.74,6.74,0,0,1,3.28.74,1.59,1.59,0,0,1,.92,1.16Z"/><path class="cls-2" d="M22.07,15.46v0c-.05.56-1.29,1-2.81,1s-2.77-.46-2.81-1v0a0,0,0,0,1,0,0c0-.57,1.29-1,2.81-1s2.76.45,2.81,1Z"/><path class="cls-3" d="M16.5,15.68c.27-.48,1.4-.85,2.76-.85s2.49.37,2.76.85a.41.41,0,0,0,.05-.18v-.07c-.05-.57-1.29-1-2.81-1s-2.77.45-2.81,1v0a.06.06,0,0,0,0,0A.41.41,0,0,0,16.5,15.68Z"/><path class="cls-4" d="M15.06,15.4v.13c.07,1,1.92,1.9,4.2,1.9s4.13-.85,4.2-1.9v1.36c-.07,1.06-1.92,1.9-4.2,1.9s-4.13-.84-4.2-1.9V15.4Z"/><path class="cls-1" d="M23.46,13.33v.06c-.07,1.06-1.92,1.9-4.2,1.9s-4.13-.84-4.2-1.9v-.13A1.6,1.6,0,0,1,16,12.1a6.81,6.81,0,0,1,3.29-.74,6.74,6.74,0,0,1,3.28.74,1.59,1.59,0,0,1,.92,1.16Z"/><path class="cls-2" d="M22.07,13.33v0c-.05.57-1.29,1-2.81,1s-2.77-.45-2.81-1v0s0,0,0,0c0-.57,1.29-1,2.81-1s2.76.45,2.81,1Z"/><path class="cls-3" d="M16.5,13.54c.27-.48,1.4-.84,2.76-.84s2.49.36,2.76.84a.41.41,0,0,0,.05-.18v-.07c-.05-.57-1.29-1-2.81-1s-2.77.45-2.81,1v0a0,0,0,0,0,0,0A.41.41,0,0,0,16.5,13.54Z"/><path class="cls-4" d="M15.06,13.26v.13c.07,1.06,1.92,1.9,4.2,1.9s4.13-.84,4.2-1.9v1.37c-.07,1.05-1.92,1.9-4.2,1.9s-4.13-.85-4.2-1.9v-1.5Z"/><path class="cls-1" d="M23.46,11.19v.06c-.07,1.06-1.92,1.9-4.2,1.9s-4.13-.84-4.2-1.9v-.13A1.61,1.61,0,0,1,16,10a6.81,6.81,0,0,1,3.29-.74,6.74,6.74,0,0,1,3.28.74,1.61,1.61,0,0,1,.92,1.16Z"/><path class="cls-5" d="M22.07,11.19v0c-.05.57-1.29,1-2.81,1s-2.77-.45-2.81-1v0a.08.08,0,0,1,0,0c0-.56,1.29-1,2.81-1s2.76.46,2.81,1Z"/><path class="cls-4" d="M16.5,11.4c.27-.48,1.4-.84,2.76-.84s2.49.36,2.76.84a.41.41,0,0,0,.05-.18v-.07c-.05-.56-1.29-1-2.81-1s-2.77.46-2.81,1v0a0,0,0,0,0,0,0A.41.41,0,0,0,16.5,11.4Z"/><path class="cls-4" d="M15.06,11.12v.13c.07,1.06,1.92,1.9,4.2,1.9s4.13-.84,4.2-1.9v1.37c-.07,1.06-1.92,1.9-4.2,1.9s-4.13-.84-4.2-1.9v-1.5Z"/><path class="cls-1" d="M14.81,7a4.45,4.45,0,1,0,8.9,0V6.28a4.45,4.45,0,1,0-8.9,0Z"/><circle class="cls-5" cx="19.27" cy="6.28" r="3.34"/><path class="cls-1" d="M19.26,3.19a3.33,3.33,0,0,1,3.33,3.22.62.62,0,0,0,0-.13,3.34,3.34,0,1,0-6.68,0,.62.62,0,0,0,0,.13A3.33,3.33,0,0,1,19.26,3.19Z"/><path class="cls-5" d="M30.11,18.19V25.4a.59.59,0,0,1-.57.6H14.72a.57.57,0,0,1-.54-.39.71.71,0,0,1,0-.21V18.19a.58.58,0,0,1,.57-.6H29.54a.47.47,0,0,1,.17,0,.59.59,0,0,1,.4.57Z"/><path class="cls-7" d="M29.75,17.83V25a.59.59,0,0,1-.57.6H14.36a.57.57,0,0,1-.18,0,.71.71,0,0,1,0-.21V18.19a.58.58,0,0,1,.57-.6H29.54a.47.47,0,0,1,.17,0A.65.65,0,0,1,29.75,17.83Z"/><path class="cls-5" d="M29.39,17.47v7.21a.59.59,0,0,1-.57.6H14a.58.58,0,0,1-.54-.39.66.66,0,0,1,0-.21V17.47a.58.58,0,0,1,.57-.6H28.82a.47.47,0,0,1,.17,0,.59.59,0,0,1,.4.57Z"/><path class="cls-7" d="M29,17.11v7.21a.59.59,0,0,1-.57.6H13.64a.57.57,0,0,1-.18,0,.66.66,0,0,1,0-.21V17.47a.58.58,0,0,1,.57-.6H28.82a.47.47,0,0,1,.17,0A.46.46,0,0,1,29,17.11Z"/><path class="cls-5" d="M28.67,16.75V24a.59.59,0,0,1-.57.6H13.28a.58.58,0,0,1-.57-.6V16.75a.58.58,0,0,1,.57-.6H28.1A.59.59,0,0,1,28.67,16.75Z"/><path class="cls-7" d="M28.2,16.91l0,0a.57.57,0,0,0-.08-.13s0,0,0,0L28,16.66l0,0-.06,0a.52.52,0,0,0-.18,0h-14l-.11,0h0a.58.58,0,0,0-.36.36v0a.36.36,0,0,0,0,.1v6.5a.58.58,0,0,0,0,.19l0,.06s0,0,0,0a.24.24,0,0,0,.06.08l0,0,.13.09h0a.46.46,0,0,0,.21,0h14a.54.54,0,0,0,.54-.54V17.12a.71.71,0,0,0,0-.21ZM13.91,18.86a2.38,2.38,0,0,0,1.52-1.54.29.29,0,0,1,.27-.19h10a.3.3,0,0,1,.28.19,2.39,2.39,0,0,0,1.51,1.54.28.28,0,0,1,.19.27v2.45a.28.28,0,0,1-.19.27A2.41,2.41,0,0,0,26,23.39a.3.3,0,0,1-.28.19h-10a.29.29,0,0,1-.27-.19,2.4,2.4,0,0,0-1.52-1.54.28.28,0,0,1-.18-.27V19.13a.28.28,0,0,1,.18-.27Z"/><path class="cls-8" d="M17.59,20.36a.61.61,0,1,1-.6-.61A.6.6,0,0,1,17.59,20.36Z"/><path class="cls-1" d="M16.18,25.27a4.76,4.76,0,0,1-2.55.73H4.84a4.83,4.83,0,0,1-4.6-6.32l1.94-6a7.41,7.41,0,0,1,14-.44c.06.14.11.29.16.44l1.94,6a4.84,4.84,0,0,1-2.05,5.59Z"/><path class="cls-4" d="M12.11,26H6.36c-2.15,0-3.67-3.2-3-6.32l1.27-6c1.45-6.85,7.78-6.85,9.23,0l1.27,6c.66,3.12-.87,6.32-3,6.32Z"/><path class="cls-1" d="M8.06,0h2.35a2.09,2.09,0,0,1,2,2.73L11.22,6.36a2.09,2.09,0,0,1-4,0L6.07,2.73A2.09,2.09,0,0,1,8.06,0Z"/><path class="cls-4" d="M8.63,0H9.84c.73,0,1.25,1.38,1,2.73l-.6,3.63c-.32,1.93-1.73,1.93-2,0L7.6,2.73C7.38,1.38,7.89,0,8.63,0Z"/><path class="cls-1" d="M10.59,8.85H7.87a1.36,1.36,0,0,1,0-2.72h2.72a1.36,1.36,0,1,1,0,2.72Z"/><path class="cls-4" d="M10.59,7.69H7.87a1.37,1.37,0,0,1-1.23-.78,1.27,1.27,0,0,0-.13.58A1.36,1.36,0,0,0,7.87,8.85h2.72A1.36,1.36,0,0,0,12,7.49a1.41,1.41,0,0,0-.13-.58A1.37,1.37,0,0,1,10.59,7.69Z"/><path class="cls-9" d="M11.59,15.22a.13.13,0,0,0-.12-.05h-.92a1.84,1.84,0,0,0-.34-.78h1.25a.16.16,0,0,0,.12,0,.17.17,0,0,0,.05-.13v-.54a.14.14,0,0,0-.05-.13.17.17,0,0,0-.12-.05H7a.17.17,0,0,0-.12.05.17.17,0,0,0,0,.13v.71a.17.17,0,0,0,0,.12.21.21,0,0,0,.12.05h.78c.76,0,1.24.2,1.44.61H7a.13.13,0,0,0-.12.05.17.17,0,0,0,0,.12v.55a.17.17,0,0,0,.17.17h2.3a1.07,1.07,0,0,1-.55.67A2.48,2.48,0,0,1,7.6,17H7a.21.21,0,0,0-.12.05.18.18,0,0,0,0,.12v.68a.17.17,0,0,0,0,.12c.69.73,1.58,1.75,2.67,3.07a.18.18,0,0,0,.14.06h1a.15.15,0,0,0,.16-.1.14.14,0,0,0,0-.18C9.81,19.5,9,18.54,8.39,17.9a2.68,2.68,0,0,0,1.49-.59,2,2,0,0,0,.69-1.25h.9a.17.17,0,0,0,.12,0,.13.13,0,0,0,.05-.12v-.55A.13.13,0,0,0,11.59,15.22Z"/><path class="cls-9" d="M21.71,19.35a.11.11,0,0,0-.06,0h-.38a.84.84,0,0,0-.15-.33h.53s0,0,.05,0,0,0,0-.05V18.7a.07.07,0,0,0,0-.06l-.05,0H19.76l-.06,0a.14.14,0,0,0,0,.06V19a.05.05,0,0,0,0,.05s0,0,.05,0h.33c.32,0,.52.09.61.26h-.94l-.06,0a.08.08,0,0,0,0,0v.23a.11.11,0,0,0,0,.06l.06,0h1a.43.43,0,0,1-.23.28,1,1,0,0,1-.49.1h-.25l-.05,0s0,0,0,.05v.29a.08.08,0,0,0,0,.05c.3.31.67.74,1.14,1.3a.05.05,0,0,0,.05,0h.45a.07.07,0,0,0,.06,0,.06.06,0,0,0,0-.08c-.45-.54-.8-.95-1-1.22a1.12,1.12,0,0,0,.63-.25.83.83,0,0,0,.29-.53h.38l.06,0a.11.11,0,0,0,0-.06V19.4A.08.08,0,0,0,21.71,19.35Z"/><path class="cls-9" d="M20.26,5.54l-.05,0h-.38a.91.91,0,0,0-.15-.33h.53s0,0,.05,0a.08.08,0,0,0,0,0V4.89a.08.08,0,0,0,0,0l-.05,0H18.33l0,0s0,0,0,0v.3a.08.08,0,0,0,0,0s0,0,0,0h.33c.31,0,.52.09.6.26h-.93l0,0s0,0,0,0v.23s0,0,0,0,0,0,0,0h1a.44.44,0,0,1-.23.29,1.08,1.08,0,0,1-.48.09h-.25l0,0s0,0,0,0v.29s0,0,0,0c.29.31.66.74,1.12,1.29a.07.07,0,0,0,.06,0h.44A.06.06,0,0,0,20,8a0,0,0,0,0,0-.07c-.43-.54-.78-.94-1-1.21a1.12,1.12,0,0,0,.62-.25.8.8,0,0,0,.29-.53h.38s0,0,.05,0,0,0,0,0V5.59S20.28,5.55,20.26,5.54Z"/></g></g></svg>