<?xml version="1.0" encoding="UTF-8"?>
<svg width="40px" height="40px" viewBox="0 0 40 40" version="1.1" xmlns="http://www.w3.org/2000/svg" xmlns:xlink="http://www.w3.org/1999/xlink">
    <!-- Generator: Sketch 56.3 (81716) - https://sketch.com -->
    <title>Group 20</title>
    <desc>Created with Sketch.</desc>
    <g id="New-UI" stroke="none" stroke-width="1" fill="none" fill-rule="evenodd">
        <g id="2.-Report-(scope-of-services)" transform="translate(-295.000000, -1158.000000)">
            <g id="Group-20" transform="translate(295.000000, 1158.000000)">
                <g id="Group-5-Copy-5">
                    <g id="Group-3">
                        <circle id="Oval-Copy" fill="#65D48E" opacity="0.120419457" cx="20" cy="20" r="20"></circle>
                        <circle id="Oval-Copy-5" fill="#65D48E" opacity="0.232538132" cx="20" cy="20" r="16.8421053"></circle>
                        <circle id="Oval" fill="#005263" opacity="0.52" cx="7.36842105" cy="20.5263158" r="1.05263158"></circle>
                        <circle id="Oval-Copy-2" fill="#005263" opacity="0.523809524" cx="28.4210526" cy="11.0526316" r="1.05263158"></circle>
                    </g>
                    <circle id="Oval-Copy-10" fill="#005263" opacity="0.52" cx="15.9157895" cy="10" r="1"></circle>
                </g>
                <path d="M20.5,13 C15.26,13 11,15.9362958 11,19.5820322 C11,21.3753403 12.04,23.010995 13.72,24.193396 C13.46,24.8437166 12.94,26.0261176 12.24,26.9523317 C11.86,27.4449988 12.34,28.1347327 12.96,27.9770792 C14.9,27.4647054 16.68,26.499078 17.7,25.8684641 C18.58,26.0655309 19.52,26.1640644 20.5,26.1640644 C25.74,26.1640644 30,23.2277686 30,19.5820322 C30,15.9362958 25.74,13 20.5,13 Z M16,20.8826733 C15.28,20.8826733 14.68,20.3111795 14.68,19.5820322 C14.68,18.8725916 15.26,18.2813911 16,18.2813911 C16.74,18.2813911 17.32,18.8528849 17.32,19.5820322 C17.3,20.3111795 16.72,20.8826733 16,20.8826733 Z M20.5,20.8826733 C19.78,20.8826733 19.18,20.3111795 19.18,19.5820322 C19.18,18.8725916 19.76,18.2813911 20.5,18.2813911 C21.24,18.2813911 21.82,18.8528849 21.82,19.5820322 C21.82,20.3111795 21.22,20.8826733 20.5,20.8826733 Z M25,20.8826733 C24.28,20.8826733 23.68,20.3111795 23.68,19.5820322 C23.68,18.8725916 24.26,18.2813911 25,18.2813911 C25.72,18.2813911 26.32,18.8528849 26.32,19.5820322 C26.32,20.3111795 25.74,20.8826733 25,20.8826733 Z" id="Shape" fill="#005263" fill-rule="nonzero"></path>
            </g>
        </g>
    </g>
</svg>