<?xml version="1.0" encoding="UTF-8"?>
<svg width="40px" height="40px" viewBox="0 0 40 40" version="1.1" xmlns="http://www.w3.org/2000/svg" xmlns:xlink="http://www.w3.org/1999/xlink">
    <!-- Generator: Sketch 56.3 (81716) - https://sketch.com -->
    <title>Group 9</title>
    <desc>Created with Sketch.</desc>
    <g id="New-UI" stroke="none" stroke-width="1" fill="none" fill-rule="evenodd">
        <g id="2.-Report-(scope-of-services)" transform="translate(-295.000000, -493.000000)">
            <g id="Group-9" transform="translate(295.000000, 493.000000)">
                <g id="Group-5-Copy">
                    <g id="Group-3">
                        <circle id="Oval-Copy" fill="#65D48E" opacity="0.120419457" cx="20" cy="20" r="20"></circle>
                        <circle id="Oval-Copy-5" fill="#65D48E" opacity="0.232538132" cx="20" cy="20" r="16.8421053"></circle>
                        <circle id="Oval" fill="#005263" opacity="0.52" cx="7.36842105" cy="20.5263158" r="1.05263158"></circle>
                        <circle id="Oval-Copy-2" fill="#005263" opacity="0.523809524" cx="28.4210526" cy="11.0526316" r="1.05263158"></circle>
                    </g>
                    <circle id="Oval-Copy-10" fill="#005263" opacity="0.52" cx="15.9157895" cy="10" r="1"></circle>
                </g>
                <g id="Group" transform="translate(10.000000, 11.000000)" fill="#005263" fill-rule="nonzero">
                    <path d="M4.66363636,7.196875 L5.82954545,7.328125 C5.95909091,7.35 6.08863636,7.4375 6.13181818,7.56875 C6.19659091,7.7875 6.28295455,8.00625 6.39090909,8.225 C6.45568182,8.35625 6.43409091,8.509375 6.34772727,8.61875 L5.61363636,9.5375 C5.4625,9.7125 5.48409091,9.975 5.63522727,10.128125 L6.4125,10.915625 C6.56363636,11.06875 6.82272727,11.090625 6.99545455,10.9375 L7.90227273,10.19375 C8.01022727,10.10625 8.16136364,10.084375 8.29090909,10.15 C8.50681818,10.259375 8.72272727,10.346875 8.93863636,10.4125 C9.06818182,10.45625 9.17613636,10.565625 9.17613636,10.71875 L9.30568182,11.9 C9.32727273,12.11875 9.52159091,12.29375 9.7375,12.29375 L10.8170455,12.29375 C11.0329545,12.29375 11.2272727,12.11875 11.2488636,11.9 L11.3784091,10.71875 C11.4,10.5875 11.4863636,10.45625 11.6159091,10.4125 C11.8318182,10.346875 12.0477273,10.259375 12.2636364,10.15 C12.3931818,10.084375 12.5443182,10.10625 12.6522727,10.19375 L13.5590909,10.9375 C13.7318182,11.090625 13.9909091,11.06875 14.1420455,10.915625 L14.9193182,10.128125 C15.0704545,9.975 15.0920455,9.7125 14.9409091,9.5375 L14.2068182,8.61875 C14.1204545,8.509375 14.0988636,8.35625 14.1636364,8.225 C14.2715909,8.00625 14.3579545,7.7875 14.4227273,7.56875 C14.4659091,7.4375 14.5738636,7.328125 14.725,7.328125 L15.8909091,7.196875 C16.1068182,7.175 16.2795455,6.978125 16.2795455,6.759375 L16.2795455,5.665625 C16.2795455,5.446875 16.1068182,5.25 15.8909091,5.228125 L14.725,5.096875 C14.5954545,5.075 14.4659091,4.9875 14.4227273,4.85625 C14.3579545,4.6375 14.2715909,4.41875 14.1636364,4.2 C14.0988636,4.06875 14.1204545,3.915625 14.2068182,3.80625 L14.9409091,2.8875 C15.0920455,2.7125 15.0704545,2.45 14.9193182,2.296875 L14.1420455,1.509375 C13.9909091,1.35625 13.7318182,1.334375 13.5590909,1.4875 L12.6522727,2.23125 C12.5443182,2.31875 12.3931818,2.340625 12.2636364,2.275 C12.0477273,2.165625 11.8318182,2.078125 11.6159091,2.0125 C11.4863636,1.96875 11.3784091,1.859375 11.3784091,1.70625 L11.2488636,0.525 C11.2272727,0.30625 11.0329545,0.13125 10.8170455,0.13125 L9.7375,0.13125 C9.52159091,0.13125 9.32727273,0.30625 9.30568182,0.525 L9.17613636,1.70625 C9.15454545,1.8375 9.06818182,1.96875 8.93863636,2.0125 C8.72272727,2.078125 8.50681818,2.1875 8.29090909,2.275 C8.16136364,2.340625 8.01022727,2.31875 7.90227273,2.23125 L6.99545455,1.4875 C6.82272727,1.334375 6.56363636,1.35625 6.4125,1.509375 L5.63522727,2.296875 C5.48409091,2.45 5.4625,2.7125 5.61363636,2.8875 L6.34772727,3.80625 C6.43409091,3.915625 6.45568182,4.06875 6.39090909,4.2 C6.28295455,4.41875 6.19659091,4.6375 6.13181818,4.85625 C6.08863636,4.9875 5.98068182,5.096875 5.82954545,5.096875 L4.66363636,5.228125 C4.44772727,5.25 4.275,5.446875 4.275,5.665625 L4.275,6.759375 C4.275,7 4.44772727,7.175 4.66363636,7.196875 Z M10.2988636,3.390625 C11.8318182,3.390625 13.0625,4.659375 13.0625,6.190625 C13.0625,7.74375 11.8318182,8.990625 10.2988636,8.990625 C8.76590909,8.990625 7.53522727,7.74375 7.53522727,6.190625 C7.53522727,4.659375 8.76590909,3.390625 10.2988636,3.390625 Z" id="Shape"></path>
                    <path d="M9.60795455,7.371875 C9.69431818,7.459375 9.82386364,7.525 9.95340909,7.525 L9.95340909,7.525 C10.0829545,7.525 10.2125,7.459375 10.2988636,7.371875 L11.7454545,5.796875 C11.9181818,5.6 11.9181818,5.29375 11.7238636,5.11875 C11.5295455,4.94375 11.2272727,4.94375 11.0545455,5.140625 L9.975,6.34375 L9.54318182,5.884375 C9.37045455,5.6875 9.06818182,5.6875 8.87386364,5.8625 C8.67954545,6.0375 8.67954545,6.34375 8.85227273,6.540625 L9.60795455,7.371875 Z" id="Path"></path>
                    <path d="M17.6829545,14.809375 L15.4375,15.071875 C15.4375,15.115625 15.4375,15.1375 15.4375,15.18125 C15.3943182,15.771875 15.0704545,16.209375 14.5522727,16.3625 C13.5806818,16.66875 11.2920455,17.171875 11.1840909,17.19375 C11.1409091,17.19375 11.1193182,17.19375 11.0761364,17.19375 C11.0761364,17.19375 11.0761364,17.19375 11.0761364,17.19375 L8.48522727,17.128125 C8.22613636,17.128125 8.01022727,16.909375 8.01022727,16.625 C8.01022727,16.3625 8.22613636,16.14375 8.48522727,16.165625 L10.9034091,16.23125 C10.9681818,16.23125 11.0545455,16.23125 11.1193182,16.209375 C11.6590909,16.078125 13.3431818,15.728125 14.1204545,15.465625 C14.2931818,15.4 14.4227273,15.378125 14.4443182,15.071875 C14.4875,14.6125 14.2068182,14.04375 13.9261364,13.890625 C13.6022727,13.715625 12.5875,13.78125 11.7022727,13.846875 C10.925,13.9125 10.4931818,13.95625 9.67272727,13.9125 C9.21931818,13.890625 8.59318182,13.715625 8.11818182,13.628125 C6.69318182,13.321875 5.74318182,13.475 4.87954545,13.825 C4.55568182,13.95625 4.21022727,14.0875 3.90795455,14.21875 C3.26022727,14.48125 2.59090909,14.678125 1.92159091,14.83125 L0.647727273,15.09375 C0.345454545,15.159375 0.129545455,15.421875 0.129545455,15.75 L0.129545455,19.46875 C0.129545455,19.884375 0.518181818,20.2125 0.906818182,20.125 L2.22386364,19.8625 C2.74204545,19.753125 3.28181818,19.753125 3.8,19.8625 L7.81590909,20.759375 C8.72272727,21.021875 9.69431818,20.95625 10.5363636,20.540625 L18.4386364,16.734375 C18.5465909,16.690625 18.6545455,16.58125 18.6977273,16.471875 C19.1079545,15.465625 18.4170455,14.74375 17.6829545,14.809375 Z" id="Path"></path>
                </g>
            </g>
        </g>
    </g>
</svg>