<svg xmlns="http://www.w3.org/2000/svg" viewBox="0 0 34.43 41.99"><defs><style>.cls-1{fill:#ffd386;}.cls-2{fill:#fff;}.cls-3{fill:#ef806d;}.cls-4{fill:#8cc540;}.cls-5{fill:#055263;}</style></defs><title>Calc-filled</title><g id="Layer_2" data-name="Layer 2"><g id="Layer_1-2" data-name="Layer 1"><path class="cls-1" d="M33.25,0H1.19A1.34,1.34,0,0,0,0,1.45V40.54A1.34,1.34,0,0,0,1.19,42H33.25a1.34,1.34,0,0,0,1.18-1.45V1.45A1.34,1.34,0,0,0,33.25,0Z"/><path class="cls-2" d="M21.34,24.93H13.09a.62.62,0,0,1-.59-.65v-9a.61.61,0,0,1,.59-.64h8.25a.61.61,0,0,1,.59.64v9A.62.62,0,0,1,21.34,24.93Z"/><path class="cls-2" d="M21.34,36.65H13.09A.62.62,0,0,1,12.5,36V27a.62.62,0,0,1,.59-.65h8.25a.62.62,0,0,1,.59.65v9A.62.62,0,0,1,21.34,36.65Z"/><path class="cls-2" d="M10.84,24.93H2.58A.62.62,0,0,1,2,24.28v-9a.61.61,0,0,1,.59-.64h8.26a.62.62,0,0,1,.59.64v9A.63.63,0,0,1,10.84,24.93Z"/><path class="cls-2" d="M10.84,36.65H2.58A.62.62,0,0,1,2,36V27a.62.62,0,0,1,.59-.65h8.26a.63.63,0,0,1,.59.65v9A.62.62,0,0,1,10.84,36.65Z"/><path class="cls-3" d="M31.85,36.65H23.6c-.33,0-.59-.61-.59-1.37V16c0-.76.26-1.37.59-1.37h8.25c.33,0,.59.61.59,1.37V35.28C32.44,36,32.18,36.65,31.85,36.65Z"/><path class="cls-2" d="M31.78,11.65H2.58A.55.55,0,0,1,2,11.13V3.86a.55.55,0,0,1,.59-.52h29.2a.55.55,0,0,1,.59.52v7.27A.55.55,0,0,1,31.78,11.65Z"/><path class="cls-4" d="M31.78,12H2.58a.89.89,0,0,1-.92-.85V3.86A.89.89,0,0,1,2.58,3h29.2a.89.89,0,0,1,.92.85v7.27A.89.89,0,0,1,31.78,12ZM2.58,3.67c-.14,0-.26.08-.26.19v7.27c0,.1.12.19.26.19h29.2c.14,0,.26-.09.26-.19V3.86c0-.11-.12-.19-.26-.19Z"/><path class="cls-3" d="M8.33,19.25H7.25V18.17a.54.54,0,1,0-1.08,0v1.08H5.09a.54.54,0,0,0-.54.54.54.54,0,0,0,.54.54H6.17v1.08a.54.54,0,1,0,1.08,0V20.33H8.33a.54.54,0,0,0,.54-.54A.54.54,0,0,0,8.33,19.25Z"/><path class="cls-3" d="M18.84,20.33H15.6a.54.54,0,0,1-.54-.54.54.54,0,0,1,.54-.54h3.24a.54.54,0,0,1,.54.54A.55.55,0,0,1,18.84,20.33Z"/><path class="cls-3" d="M7.48,31.2l.76-.77a.54.54,0,0,0,0-.76.54.54,0,0,0-.75,0l-.76.76L6,29.67a.54.54,0,0,0-.76,0,.54.54,0,0,0,0,.75L6,31.2,5.19,32a.54.54,0,0,0,0,.76.55.55,0,0,0,.77,0v0L6.72,32l.76.76a.54.54,0,0,0,.76,0,.54.54,0,0,0,0-.75Z"/><path class="cls-3" d="M18.72,31.74H15.48a.54.54,0,0,1,0-1.08h3.24a.54.54,0,0,1,0,1.08Z"/><path class="cls-3" d="M17.1,30.12a.55.55,0,0,1-.55-.54.55.55,0,0,1,.16-.38.57.57,0,0,1,.5-.15l.09,0,.1.05.08.07a.54.54,0,0,1,0,.76L17.4,30a.31.31,0,0,1-.1,0l-.09,0Z"/><path class="cls-3" d="M17.1,33.36a.55.55,0,0,1-.55-.54.55.55,0,0,1,.16-.38.57.57,0,0,1,.5-.15l.09,0,.1,0,.08.07a.55.55,0,0,1,0,.77l-.08.06-.1,0-.09,0Z"/><path class="cls-2" d="M29.34,24.83H26.1a.54.54,0,1,1,0-1.08h3.24a.54.54,0,0,1,0,1.08Z"/><path class="cls-2" d="M29.34,27H26.1a.54.54,0,1,1,0-1.08h3.24a.54.54,0,0,1,0,1.08Z"/><path class="cls-4" d="M10.84,25.25H2.58a.94.94,0,0,1-.92-1v-9a.94.94,0,0,1,.92-1h8.26a1,1,0,0,1,.92,1v9A1,1,0,0,1,10.84,25.25ZM2.58,15a.29.29,0,0,0-.26.31v9a.3.3,0,0,0,.26.32h8.26a.3.3,0,0,0,.26-.32v-9a.29.29,0,0,0-.26-.31Z"/><path class="cls-4" d="M21.34,25.25H13.09a.94.94,0,0,1-.92-1v-9a.94.94,0,0,1,.92-1h8.25a.94.94,0,0,1,.92,1v9A.94.94,0,0,1,21.34,25.25ZM13.09,15a.28.28,0,0,0-.26.31v9a.29.29,0,0,0,.26.32h8.25a.29.29,0,0,0,.26-.32v-9a.28.28,0,0,0-.26-.31Z"/><path class="cls-4" d="M10.84,37H2.58a.94.94,0,0,1-.92-1V27a1,1,0,0,1,.92-1h8.26a1,1,0,0,1,.92,1v9A1,1,0,0,1,10.84,37ZM2.58,26.7a.3.3,0,0,0-.26.32v9a.29.29,0,0,0,.26.31h8.26A.29.29,0,0,0,11.1,36V27a.3.3,0,0,0-.26-.32Z"/><path class="cls-4" d="M21.34,37H13.09a.94.94,0,0,1-.92-1V27a1,1,0,0,1,.92-1h8.25a1,1,0,0,1,.92,1v9A.94.94,0,0,1,21.34,37ZM13.09,26.7a.29.29,0,0,0-.26.32v9a.28.28,0,0,0,.26.31h8.25A.28.28,0,0,0,21.6,36V27a.29.29,0,0,0-.26-.32Z"/><path class="cls-4" d="M31.85,37H23.6c-.61,0-.92-.86-.92-1.7V16c0-.84.31-1.7.92-1.7h8.25c.61,0,.92.86.92,1.7V35.28C32.77,36.12,32.46,37,31.85,37Zm0-22H23.6a1.61,1.61,0,0,0-.26,1V35.28a1.53,1.53,0,0,0,.28,1h8.22a1.58,1.58,0,0,0,.27-1V16A1.5,1.5,0,0,0,31.83,15Z"/><path class="cls-5" d="M26.48,7.36A4.46,4.46,0,0,1,26.65,6a1.72,1.72,0,0,1,.51-.78A1.28,1.28,0,0,1,28,5a1.41,1.41,0,0,1,.67.15,1.24,1.24,0,0,1,.47.44,2.5,2.5,0,0,1,.29.7,4.7,4.7,0,0,1,.11,1.11,4.41,4.41,0,0,1-.17,1.34,1.81,1.81,0,0,1-.51.79,1.34,1.34,0,0,1-.86.27A1.28,1.28,0,0,1,27,9.28,3.06,3.06,0,0,1,26.48,7.36Zm.59,0a3,3,0,0,0,.27,1.55.83.83,0,0,0,.67.38.79.79,0,0,0,.67-.39A2.94,2.94,0,0,0,29,7.36a2.94,2.94,0,0,0-.27-1.54A.8.8,0,0,0,28,5.44a.75.75,0,0,0-.64.33A3,3,0,0,0,27.07,7.36Z"/></g></g></svg>