<svg width="67" height="67" viewBox="0 0 67 67" fill="none" xmlns="http://www.w3.org/2000/svg">
<g clip-path="url(#clip0_39_112)">
<path d="M33.28 66.56C51.66 66.56 66.56 51.66 66.56 33.28C66.56 14.9 51.66 0 33.28 0C14.9 0 0 14.9 0 33.28C0 51.66 14.9 66.56 33.28 66.56Z" fill="#F4F4F4"/>
<path d="M41.7446 18.9385H24.8862C24.2717 18.9385 23.7734 19.4367 23.7734 20.0513V48.8073C23.7734 49.4219 24.2717 49.9201 24.8862 49.9201H47.9118C48.5264 49.9201 49.0246 49.4219 49.0246 48.8073V26.2081C49.019 25.9939 48.8437 25.8232 48.6294 25.8233H42.1398V19.3233C42.1342 19.1091 41.9589 18.9385 41.7446 18.9385Z" fill="#042b62"/>
<path d="M28.9414 49.9196H49.0238V33.8516C49.0238 42.0988 38.7694 49.9196 28.9414 49.9196Z" fill="#042b62"/>
<path d="M20.9023 16.6398H33.5279C33.8258 16.6343 34.1137 16.7473 34.3282 16.9541C34.5428 17.1608 34.6664 17.4443 34.6719 17.7422V33.1654C34.6804 33.4723 34.563 33.7694 34.3469 33.9875C34.1308 34.2055 33.8348 34.3257 33.5279 34.3198H20.9023C20.5953 34.3257 20.2993 34.2055 20.0832 33.9875C19.8671 33.7694 19.7497 33.4723 19.7583 33.1654V17.7422C19.7637 17.4443 19.8873 17.1608 20.1019 16.9541C20.3164 16.7473 20.6043 16.6343 20.9023 16.6398Z" fill="#EAEAEA" stroke="#939393" stroke-width="0.25"/>
<path d="M41.7964 26.4158H48.7228C48.8284 26.4004 48.9162 26.3264 48.9492 26.225C48.9823 26.1235 48.955 26.0121 48.8788 25.9374L41.994 19.011C41.9138 18.9315 41.7936 18.9078 41.6892 18.951C41.5848 18.9941 41.5164 19.0956 41.5156 19.2086V26.135C41.5156 26.2095 41.5452 26.2809 41.5979 26.3336C41.6505 26.3862 41.722 26.4158 41.7964 26.4158Z" fill="#042b62"/>
<path d="M21.963 18.9072H32.4774C32.7393 18.9127 32.9503 19.1237 32.9558 19.3856V21.2888C32.9558 21.5548 32.7433 21.772 32.4774 21.7776H21.963C21.8343 21.7777 21.711 21.7258 21.621 21.6338C21.531 21.5419 21.4818 21.4175 21.4845 21.2888V19.3856C21.4845 19.1214 21.6988 18.9072 21.963 18.9072Z" fill="white"/>
<path d="M22.6268 23.9922H23.7708C23.9243 23.9922 24.0714 24.0539 24.179 24.1634C24.2865 24.2729 24.3456 24.4211 24.3428 24.5746V25.7186C24.3428 25.8703 24.2825 26.0158 24.1752 26.1231C24.068 26.2303 23.9225 26.2906 23.7708 26.2906H22.6268C22.4751 26.2906 22.3296 26.2303 22.2223 26.1231C22.115 26.0158 22.0548 25.8703 22.0548 25.7186V24.5746C22.052 24.4211 22.111 24.2729 22.2186 24.1634C22.3262 24.0539 22.4733 23.9922 22.6268 23.9922Z" fill="white"/>
<path d="M26.6423 23.9922H27.7863C28.108 23.9922 28.3687 24.2529 28.3687 24.5746V25.7186C28.363 26.0362 28.1039 26.2906 27.7863 26.2906H26.6423C26.4906 26.2906 26.3451 26.2303 26.2378 26.1231C26.1306 26.0158 26.0703 25.8703 26.0703 25.7186V24.5746C26.0703 24.257 26.3247 23.9979 26.6423 23.9922Z" fill="white"/>
<path d="M30.6579 23.9922H31.8123C32.1299 23.9979 32.3844 24.257 32.3843 24.5746V25.7186C32.3843 25.8703 32.3241 26.0158 32.2168 26.1231C32.1095 26.2303 31.964 26.2906 31.8123 26.2906H30.6579C30.5062 26.2906 30.3607 26.2303 30.2535 26.1231C30.1462 26.0158 30.0859 25.8703 30.0859 25.7186V24.5746C30.0859 24.257 30.3404 23.9979 30.6579 23.9922Z" fill="white"/>
<path d="M22.6268 28.0177H23.7708C23.9233 28.0148 24.0705 28.0742 24.1784 28.1821C24.2863 28.29 24.3456 28.4371 24.3428 28.5897V29.7337C24.3456 29.8862 24.2863 30.0334 24.1784 30.1413C24.0705 30.2492 23.9233 30.3085 23.7708 30.3057H22.6268C22.4742 30.3085 22.3271 30.2492 22.2192 30.1413C22.1113 30.0334 22.0519 29.8862 22.0548 29.7337V28.5897C22.0519 28.4371 22.1113 28.29 22.2192 28.1821C22.3271 28.0742 22.4742 28.0148 22.6268 28.0177Z" fill="white"/>
<path d="M26.6423 28.0177H27.7863C27.9398 28.0149 28.088 28.0739 28.1975 28.1815C28.307 28.2891 28.3687 28.4362 28.3687 28.5897V29.7337C28.3687 29.8872 28.307 30.0343 28.1975 30.1419C28.088 30.2494 27.9398 30.3085 27.7863 30.3057H26.6423C26.3264 30.3057 26.0703 30.0496 26.0703 29.7337V28.5897C26.0703 28.438 26.1306 28.2925 26.2378 28.1852C26.3451 28.0779 26.4906 28.0177 26.6423 28.0177Z" fill="white"/>
<path d="M30.6579 28.0176H31.8123C32.1282 28.0176 32.3843 28.2737 32.3843 28.5896V29.7336C32.3843 30.0495 32.1282 30.3056 31.8123 30.3056H30.6579C30.342 30.3056 30.0859 30.0495 30.0859 29.7336V28.5896C30.0859 28.4379 30.1462 28.2924 30.2535 28.1851C30.3607 28.0778 30.5062 28.0176 30.6579 28.0176Z" fill="white"/>
<path d="M22.0586 34.3196H33.4986C33.7965 34.3252 34.0844 34.2122 34.299 34.0054C34.5135 33.7987 34.6371 33.5152 34.6426 33.2172V24.3564C34.6738 29.8372 29.037 34.3196 22.0586 34.3196Z" fill="#E2E2E2"/>
<path d="M45.3018 29.8994H38.9474C38.7693 29.8994 38.625 30.0438 38.625 30.2218V30.8458C38.625 31.0239 38.7693 31.1682 38.9474 31.1682H45.3018C45.4799 31.1682 45.6242 31.0239 45.6242 30.8458V30.2218C45.6242 30.0438 45.4799 29.8994 45.3018 29.8994Z" fill="white"/>
<path d="M45.3018 32.625H38.9474C38.7693 32.625 38.625 32.7693 38.625 32.9474V33.5714C38.625 33.7495 38.7693 33.8938 38.9474 33.8938H45.3018C45.4799 33.8938 45.6242 33.7495 45.6242 33.5714V32.9474C45.6242 32.7693 45.4799 32.625 45.3018 32.625Z" fill="white"/>
<path d="M31.6445 42.4628C31.6503 45.0853 33.7748 47.2098 36.3973 47.2156V37.71C33.7724 37.71 31.6445 39.8379 31.6445 42.4628Z" fill="#EAEAEA"/>
<path d="M36.3984 37.71V47.2156C39.0233 47.2156 41.1512 45.0877 41.1512 42.4628C41.1512 39.8379 39.0233 37.71 36.3984 37.71Z" fill="#EAEAEA"/>
<path d="M38.0429 41.0177C38.0161 41.0073 37.9864 41.0073 37.9597 41.0177H37.3149C37.2808 40.8205 37.1987 40.6347 37.0757 40.4769H37.9493C37.9796 40.4872 38.0125 40.4872 38.0429 40.4769C38.0533 40.4501 38.0533 40.4204 38.0429 40.3937V40.0089C38.0533 39.9821 38.0533 39.9524 38.0429 39.9257C38.0125 39.9154 37.9796 39.9154 37.9493 39.9257H34.8293C34.798 39.9224 34.767 39.9334 34.7447 39.9556C34.7225 39.9778 34.7115 40.0089 34.7149 40.0401V40.5393C34.7115 40.5705 34.7225 40.6016 34.7447 40.6238C34.767 40.646 34.798 40.657 34.8293 40.6537H35.3597C35.8901 40.6537 36.2229 40.7993 36.3997 41.0801H34.8397C34.8129 41.0697 34.7832 41.0697 34.7565 41.0801C34.7443 41.1101 34.7443 41.1437 34.7565 41.1737V41.5481C34.7462 41.5784 34.7462 41.6113 34.7565 41.6417C34.7832 41.6521 34.8129 41.6521 34.8397 41.6417H36.3997C36.3367 41.8415 36.1988 42.0092 36.0149 42.1097C35.7637 42.2234 35.4895 42.2768 35.2141 42.2657H34.7981C34.7719 42.2527 34.7411 42.2527 34.7149 42.2657C34.7044 42.2924 34.7044 42.3221 34.7149 42.3489V42.8169C34.7044 42.8436 34.7044 42.8733 34.7149 42.9001C35.1933 43.4097 35.8069 44.1273 36.5765 45.0425C36.6067 45.0536 36.6399 45.0536 36.6701 45.0425H37.4397C37.4868 45.0447 37.5295 45.0148 37.5437 44.9697C37.5754 44.9342 37.5754 44.8804 37.5437 44.8449C36.8157 43.9505 36.2437 43.2849 35.8277 42.8377C36.2078 42.8127 36.571 42.6711 36.8677 42.4321C37.1147 42.2168 37.28 41.923 37.3357 41.6001H37.9597C37.9864 41.6105 38.0161 41.6105 38.0429 41.6001C38.0532 41.5697 38.0532 41.5368 38.0429 41.5065V41.1321C38.0614 41.0962 38.0614 41.0536 38.0429 41.0177Z" fill="#042b62"/>
</g>
<defs>
<clipPath id="clip0_39_112">
<rect width="67" height="67" fill="white"/>
</clipPath>
</defs>
</svg>
