<?xml version="1.0" encoding="UTF-8"?>
<svg width="18px" height="15px" viewBox="0 0 18 15" version="1.1" xmlns="http://www.w3.org/2000/svg" xmlns:xlink="http://www.w3.org/1999/xlink">
    <title>Fill 16 Copy</title>
    <g id="Landing-page-&amp;-Service-page" stroke="none" stroke-width="1" fill="none" fill-rule="evenodd">
        <path d="M0,13.2979369 C1.63491124,14.3728762 3.5760355,15 5.66094675,15 C12.5174556,15 16.3899408,9.0618932 16.1573964,3.73543689 C16.8781065,3.20206311 17.5047337,2.53489078 18,1.77487864 C17.3369822,2.07615291 16.6251479,2.28003641 15.8786982,2.37105583 C16.6411243,1.90321602 17.2269231,1.16140777 17.502071,0.275788835 C16.7884615,0.709951456 15.9976331,1.02578883 15.1579882,1.19508495 C14.483432,0.459648058 13.5239645,0 12.4615385,0 C10.0784024,0 8.32633136,2.28003641 8.86508876,4.64927184 C5.79585799,4.49180825 3.07455621,2.9836165 1.25414201,0.692657767 C0.286686391,2.39472087 0.751775148,4.62196602 2.3964497,5.74878641 C1.79112426,5.72876214 1.22130178,5.55764563 0.723372781,5.27457524 C0.683431953,7.02942961 1.9091716,8.66959951 3.6852071,9.03549757 C3.16508876,9.18112864 2.59615385,9.21389563 2.0183432,9.10012136 C2.48698225,10.6055825 3.85118343,11.6996359 5.46745562,11.7305825 C3.91508876,12.9784587 1.95976331,13.5354976 0,13.2979369" id="Fill-16-Copy" fill="#005263"></path>
    </g>
</svg>