<svg width="67" height="67" viewBox="0 0 67 67" fill="none" xmlns="http://www.w3.org/2000/svg">
<g clip-path="url(#clip0_39_36)">
<path d="M33.28 66.56C51.66 66.56 66.56 51.66 66.56 33.28C66.56 14.9 51.66 0 33.28 0C14.9 0 0 14.9 0 33.28C0 51.66 14.9 66.56 33.28 66.56Z" fill="#F4F4F4"/>
<path d="M18.3984 17.4758C18.3984 17.1025 18.7011 16.7998 19.0744 16.7998H36.3384L38.3144 20.9598L42.5784 23.0398V48.8214C42.5784 49.1907 42.2821 49.4917 41.9128 49.4974H19.0744C18.7011 49.4974 18.3984 49.1947 18.3984 48.8214V17.4758Z" fill="#042b62"/>
<path d="M41.9128 48.8733H19.0744C18.7011 48.8733 18.3984 48.5706 18.3984 48.1973V49.4037C18.3984 49.777 18.7011 50.0797 19.0744 50.0797H41.9544C42.3237 50.074 42.62 49.773 42.62 49.4037V48.1973C42.62 48.3821 42.5447 48.5589 42.4111 48.6866C42.2775 48.8144 42.0975 48.8818 41.9128 48.8733Z" fill="#042b62"/>
<path d="M37.6814 22.447H40.8014L41.3838 21.823L36.3398 16.7998V21.1054C36.3398 21.8464 36.9405 22.447 37.6814 22.447Z" fill="#042b62"/>
<path d="M37.6814 21.823C36.9405 21.823 36.3398 21.2224 36.3398 20.4814V21.6982C36.3398 22.4392 36.9405 23.0398 37.6814 23.0398H42.5798L41.3734 21.823H37.6814Z" fill="#042b62"/>
<path d="M23.9206 25.7023H21.9134C21.7792 25.7023 21.6506 25.6483 21.5567 25.5524C21.4627 25.4565 21.4114 25.3269 21.4142 25.1927C21.4113 25.0594 21.463 24.9308 21.5572 24.8365C21.6515 24.7423 21.7801 24.6906 21.9134 24.6935H23.9206C24.0548 24.6907 24.1844 24.742 24.2803 24.836C24.3762 24.9299 24.4302 25.0585 24.4302 25.1927C24.4302 25.4741 24.202 25.7023 23.9206 25.7023Z" fill="white"/>
<path d="M35.8718 25.7023H26.1894C26.0534 25.7051 25.9221 25.6524 25.8259 25.5562C25.7297 25.46 25.6769 25.3287 25.6798 25.1927C25.6769 25.0594 25.7286 24.9308 25.8229 24.8365C25.9171 24.7423 26.0457 24.6906 26.179 24.6935H35.8718C36.006 24.6907 36.1357 24.742 36.2315 24.836C36.3274 24.9299 36.3814 25.0585 36.3814 25.1927C36.3814 25.4741 36.1532 25.7023 35.8718 25.7023Z" fill="white"/>
<path d="M23.9217 30.122H21.9145C21.6273 30.122 21.3945 29.8892 21.3945 29.602C21.3945 29.3148 21.6273 29.082 21.9145 29.082H23.9217C24.2089 29.082 24.4417 29.3148 24.4417 29.602C24.4417 29.8892 24.2089 30.122 23.9217 30.122Z" fill="white"/>
<path d="M35.2672 30.122H26.188C25.9008 30.122 25.668 29.8892 25.668 29.602C25.668 29.3148 25.9008 29.082 26.188 29.082H35.2672C35.5544 29.082 35.7872 29.3148 35.7872 29.602C35.7872 29.8892 35.5544 30.122 35.2672 30.122Z" fill="white"/>
<path d="M23.9217 34.542H21.9145C21.6273 34.542 21.3945 34.3091 21.3945 34.022C21.3945 33.7348 21.6273 33.502 21.9145 33.502H23.9217C24.2089 33.502 24.4417 33.7348 24.4417 34.022C24.4417 34.3091 24.2089 34.542 23.9217 34.542Z" fill="white"/>
<path d="M35.2672 34.542H26.188C25.9008 34.542 25.668 34.3091 25.668 34.022C25.668 33.7348 25.9008 33.502 26.188 33.502H35.2672C35.5544 33.502 35.7872 33.7348 35.7872 34.022C35.7872 34.3091 35.5544 34.542 35.2672 34.542Z" fill="white"/>
<path d="M23.9217 38.9726H21.9145C21.6273 38.9726 21.3945 38.7398 21.3945 38.4526C21.3945 38.1654 21.6273 37.9326 21.9145 37.9326H23.9217C24.2089 37.9326 24.4417 38.1654 24.4417 38.4526C24.4417 38.7398 24.2089 38.9726 23.9217 38.9726Z" fill="white"/>
<path d="M35.2672 38.9726H26.188C25.9008 38.9726 25.668 38.7398 25.668 38.4526C25.668 38.1654 25.9008 37.9326 26.188 37.9326H35.2672C35.5544 37.9326 35.7872 38.1654 35.7872 38.4526C35.7872 38.7398 35.5544 38.9726 35.2672 38.9726Z" fill="white"/>
<path d="M23.9217 43.3925H21.9145C21.6273 43.3925 21.3945 43.1597 21.3945 42.8725C21.3945 42.5854 21.6273 42.3525 21.9145 42.3525H23.9217C24.2089 42.3525 24.4417 42.5854 24.4417 42.8725C24.4417 43.1597 24.2089 43.3925 23.9217 43.3925Z" fill="white"/>
<path d="M35.2672 43.3925H26.188C25.9008 43.3925 25.668 43.1597 25.668 42.8725C25.668 42.5854 25.9008 42.3525 26.188 42.3525H35.2672C35.5544 42.3525 35.7872 42.5854 35.7872 42.8725C35.7872 43.1597 35.5544 43.3925 35.2672 43.3925Z" fill="white"/>
<path d="M47.9461 29.498H36.0797C35.2871 29.498 34.6445 30.1406 34.6445 30.9332V37.7036L41.9973 38.286L49.3605 37.7036V30.9332C49.3605 30.1406 48.718 29.498 47.9253 29.498H47.9461Z" fill="#E2E2E2" stroke="#939393" stroke-width="0.25"/>
<path d="M46.1991 31.4121H37.8791C37.5098 31.4121 37.2088 31.7084 37.2031 32.0777V33.7105V34.9169C37.2031 35.2903 37.5058 35.5929 37.8791 35.5929H46.1991C46.5725 35.5929 46.8751 35.2903 46.8751 34.9169V33.7105V32.0777C46.8694 31.7084 46.5684 31.4121 46.1991 31.4121Z" fill="white"/>
<path d="M34.6641 37.3818V48.229C34.7142 48.9652 35.3412 49.5277 36.0785 49.4978H47.9449C48.69 49.5394 49.3299 48.9737 49.3801 48.229V37.3818H34.6641Z" fill="#EAEAEA" stroke="#939393" stroke-width="0.25"/>
<path d="M47.9461 48.8737H36.0797C35.2871 48.8737 34.6445 48.2311 34.6445 47.4385V48.6449C34.6445 49.4375 35.2871 50.0801 36.0797 50.0801H47.9461C48.7388 50.0801 49.3813 49.4375 49.3813 48.6449V47.4385C49.3813 48.2311 48.7388 48.8737 47.9461 48.8737Z" fill="#E2E2E2"/>
<path d="M46.1995 39.9395H45.4403C45.0439 39.9395 44.7227 40.2608 44.7227 40.6571V45.5243C44.7227 45.9206 45.0439 46.2419 45.4403 46.2419H46.2099C46.6062 46.2419 46.9275 45.9206 46.9275 45.5243V40.6571C46.9275 40.465 46.8504 40.2809 46.7136 40.146C46.5768 40.0111 46.3916 39.9367 46.1995 39.9395Z" fill="white"/>
<path d="M39.4078 40.4284C39.3441 40.1411 39.0884 39.9375 38.7942 39.9396H37.8374C37.5443 39.9342 37.2898 40.1405 37.2342 40.4284C37.2292 40.4698 37.2292 40.5117 37.2342 40.5532V41.5204C37.2342 41.6849 37.3003 41.8426 37.4176 41.958C37.5349 42.0733 37.6937 42.1367 37.8582 42.134H38.815C38.9796 42.1367 39.1383 42.0733 39.2556 41.958C39.373 41.8426 39.439 41.6849 39.439 41.5204V40.5532C39.439 40.5532 39.439 40.47 39.439 40.4284H39.4078Z" fill="white"/>
<path d="M43.1501 40.4391C43.0945 40.1512 42.84 39.945 42.5469 39.9503H41.5901C41.2959 39.9482 41.0402 40.1519 40.9765 40.4391C40.9714 40.4805 40.9714 40.5225 40.9765 40.5639V41.5311C40.9765 41.6956 41.0425 41.8533 41.1599 41.9687C41.2772 42.0841 41.436 42.1475 41.6005 42.1447H42.5573C42.7209 42.1475 42.8786 42.0838 42.9943 41.9681C43.11 41.8524 43.1737 41.6947 43.1709 41.5311V40.5639C43.176 40.5225 43.176 40.4805 43.1709 40.4391H43.1501Z" fill="white"/>
<path d="M39.4078 44.5363C39.3448 44.2472 39.0902 44.04 38.7942 44.0371H37.8374C37.5425 44.0369 37.2892 44.2466 37.2342 44.5363C37.2292 44.5778 37.2292 44.6197 37.2342 44.6611V45.6179C37.2342 45.9625 37.5136 46.2419 37.8582 46.2419H38.815C39.1597 46.2419 39.439 45.9625 39.439 45.6179V44.6611C39.439 44.6611 39.439 44.5779 39.439 44.5363H39.4078Z" fill="white"/>
<path d="M43.1501 44.5363C43.0951 44.2466 42.8418 44.0369 42.5469 44.0371H41.5901C41.2942 44.04 41.0395 44.2472 40.9765 44.5363C40.9714 44.5778 40.9714 44.6197 40.9765 44.6611V45.6179C40.9765 45.9625 41.2559 46.2419 41.6005 46.2419H42.5573C42.7218 46.2419 42.8795 46.1759 42.9949 46.0585C43.1103 45.9412 43.1737 45.7824 43.1709 45.6179V44.6611C43.176 44.6197 43.176 44.5778 43.1709 44.5363H43.1501Z" fill="white"/>
</g>
<defs>
<clipPath id="clip0_39_36">
<rect width="67" height="67" fill="white"/>
</clipPath>
</defs>
</svg>
