<?xml version="1.0" encoding="UTF-8"?>
<svg id="Layer_1" xmlns="http://www.w3.org/2000/svg" viewBox="0 0 1080 1080">
  <defs>
    <style>
      .cls-1 {
        fill: #1f2f60;
      }
    </style>
  </defs>
  <path class="cls-1" d="M710.54,537.42c5.9,5.91,11.17,12.44,15.92,17.78-.4,11.67-8.45,16.3-14.24,22.1-71.23,71.49-143.57,141.94-213.53,214.67-24.13,25.08-33.94,5.12-48.96-7.99-16.95-14.82-24.47-26.47-3.5-46.33,52.94-50.17,102.64-103.77,155.7-153.81,21.75-20.51,19.14-32.79-.96-51.98-52.76-50.37-102.48-103.94-155.64-153.87-25.37-23.83-5.38-33.93,7.85-48.92,14.77-16.75,26.19-24.56,46.36-3.69,69.27,71.7,140.57,141.46,211,212.03Z"/>
  <path class="cls-1" d="M1005.46,500.27l-.02-.24c-16.73-160.01-121.53-306.99-268.9-371.73C422.47-10.02,71.4,208.7,68.97,555.15c-3.44,226.69,159.09,424.88,382.61,464.59,317.18,59.19,591.96-199.25,553.89-519.47ZM537.97,953.11c-217.22-.42-393.42-178.83-392.88-397.79.54-215.14,178.76-391.98,395-391.96,217.82.02,394.97,177.7,394.73,395.91-.22,217.56-178.28,394.25-396.86,393.84Z"/>
  <path class="cls-1" d="M726.46,555.2c-.4,11.67-8.45,16.3-14.24,22.1-71.23,71.49-143.57,141.94-213.53,214.67-24.13,25.08-33.94,5.12-48.96-7.99-16.95-14.82-24.47-26.47-3.5-46.33,52.94-50.17,102.64-103.77,155.7-153.81,21.75-20.51,19.14-32.79-.96-51.98-52.76-50.37-102.48-103.94-155.64-153.87-25.37-23.83-5.38-33.93,7.85-48.92,14.77-16.75,26.19-24.56,46.36-3.69,69.27,71.7,140.57,141.46,211,212.03,5.9,5.91,11.17,12.44,15.92,17.78Z"/>
  <path class="cls-1" d="M726.46,555.2c-.4,11.67-8.45,16.3-14.24,22.1-71.23,71.49-143.57,141.94-213.53,214.67-24.13,25.08-33.94,5.12-48.96-7.99-16.95-14.82-24.47-26.47-3.5-46.33,52.94-50.17,102.64-103.77,155.7-153.81,21.75-20.51,19.14-32.79-.96-51.98-52.76-50.37-102.48-103.94-155.64-153.87-25.37-23.83-5.38-33.93,7.85-48.92,14.77-16.75,26.19-24.56,46.36-3.69,69.27,71.7,140.57,141.46,211,212.03,5.9,5.91,11.17,12.44,15.92,17.78Z"/>
</svg>