<svg xmlns="http://www.w3.org/2000/svg" width="45" height="45" viewBox="0 0 45 45">
  <g fill="none" fill-rule="evenodd">
    <g fill="#65D48E">
      <circle cx="22.5" cy="22.5" r="22.5" opacity=".12"/>
      <circle cx="22.5" cy="22.5" r="18.947" opacity=".233"/>
    </g>
    <g opacity=".228" transform="rotate(-32 37.046 -4.158)">
      <circle cx="1.686" cy="22.496" r="1.184" fill="#005263"/>
      <circle cx="1.276" cy="1.859" r="1" fill="#005263"/>
      <circle cx="20.764" cy="1.401" r="1.184" fill="#005263"/>
      <circle cx="21.431" cy="18.837" r="1" fill="#47A395" transform="matrix(1 0 0 -1 0 37.674)"/>
    </g>
    <g fill="#005263" fill-rule="nonzero" transform="translate(13 12)">
      <path d="M16.2000002,16.7400002 C15.4556102,16.7400002 14.8500002,17.3456102 14.8500002,18.0900002 L14.8500002,21.0600003 L19.1700003,16.7400002 L16.2000002,16.7400002 Z"/>
      <path d="M3.78000005,2.70000004 L3.78000005,18.3600002 C3.78000005,19.8450003 4.99500007,21.0600003 6.48000009,21.0600003 L13.5000002,21.0600003 L13.5000002,18.0900002 C13.5000002,16.6050002 14.7150002,15.3900002 16.2000002,15.3900002 L19.1700003,15.3900002 L19.1705403,2.70000004 L3.78000005,2.70000004 Z M11.8800002,13.6350002 L7.02000009,13.6350002 L7.02000009,12.2850002 L11.8800002,12.2850002 L11.8800002,13.6350002 Z M15.9300002,10.3950001 L7.02000009,10.3950001 L7.02000009,9.04500012 L15.9300002,9.04500012 L15.9300002,10.3950001 Z M15.9300002,7.15500009 L7.02000009,7.15500009 L7.02000009,5.80500008 L15.9300002,5.80500008 L15.9300002,7.15500009 Z"/>
      <path d="M2.43000003,1.35000002 L15.3905402,1.35000002 L15.3905402,-1.91846539e-13 L-2.48689958e-14,-1.91846539e-13 L-2.48689958e-14,15.6600002 C-2.48689958e-14,17.0537402 1.07055001,18.2096102 2.43000003,18.3462302 L2.43000003,1.35000002 Z"/>
    </g>
  </g>
</svg>
