<svg xmlns="http://www.w3.org/2000/svg" width="45" height="45" viewBox="0 0 45 45">
  <g fill="none" fill-rule="evenodd">
    <g fill="#65D48E">
      <circle cx="22.5" cy="22.5" r="22.5" opacity=".12"/>
      <circle cx="22.5" cy="22.5" r="18.947" opacity=".233"/>
    </g>
    <g opacity=".228" transform="rotate(-32 34.803 -5.402)">
      <circle cx="1.535" cy="24.026" r="1.184" fill="#005263"/>
      <circle cx="1.209" cy=".612" r="1" fill="#005263"/>
      <circle cx="23.581" cy="9.502" r="1.184" fill="#005263"/>
      <circle cx="16.899" cy="24.566" r="1" fill="#47A395" transform="matrix(1 0 0 -1 0 49.132)"/>
    </g>
    <g fill="#005263" fill-rule="nonzero" transform="translate(9 10)">
      <path d="M14.212 13.584C14.4103382 13.4517463 14.6744603 13.4779074 14.843 13.6465L15.85 14.656 16.41 13.5365 14.045 9.9865C14.0078979 10.0020561 13.9661021 10.0020561 13.929 9.9865L12.5385 12.072 13.254 14.219 14.212 13.584zM19 2.25L14.5.5C13.8333333.0245768229 13.5.0245768229 13.5.5 13.5.975423177 13.5 3.80875651 13.5 9L14.5 9 14.5 4 19 2.25z"/>
      <polygon points="7.489 11.876 .447 22 4.721 22 9.523 14.799"/>
      <polygon points="21.489 13.844 19.564 16.46 23.257 22 27.5 22"/>
      <path d="M16.4365 15.7235C16.3645715 15.8669758 16.2281404 15.9672016 16.0697222 15.9929446 15.911304 16.0186875 15.7501576 15.9668181 15.6365 15.8535L14.4265 14.6435 13.2675 15.416C13.1379236 15.5017527 12.9758443 15.5223906 12.8289129 15.4718462 12.6819815 15.4213018 12.5668993 15.3053203 12.5175 15.158L11.8405 13.1275 10.5575 15.05C10.552 15.059 10.5465 15.067 10.5405 15.0755L5.9235 22 22.055 22 17.05 14.494 16.4365 15.7235zM9.5 7.75L8 7C7.33333333 6.52001953 7 6.52001953 7 7 7 7.47998047 7 8.8133138 7 11L8 11 8 8.5C8.5 8.25 9 8 9.5 7.75zM23.5 9.75L22 9C21.3333333 8.49316406 21 8.49316406 21 9 21 9.50683594 21 10.8401693 21 13L22 13 22 10.5 23.5 9.75z"/>
    </g>
  </g>
</svg>
