<svg xmlns="http://www.w3.org/2000/svg" width="45" height="45" viewBox="0 0 45 45">
  <g fill="none" fill-rule="evenodd">
    <g fill="#65D48E">
      <circle cx="22.5" cy="22.5" r="22.5" opacity=".12"/>
      <circle cx="22.5" cy="22.5" r="18.947" opacity=".233"/>
    </g>
    <g opacity=".228" transform="rotate(-32 39.046 2.817)">
      <circle cx="29.006" cy="13.484" r="1.184" fill="#005263"/>
      <circle cx="5.276" cy="1.859" r="1" fill="#005263"/>
      <circle cx="24.764" cy="1.401" r="1.184" fill="#005263"/>
      <circle cx=".91" cy="17.526" r="1" fill="#47A395" transform="matrix(1 0 0 -1 0 35.052)"/>
    </g>
    <g transform="translate(11 11)">
      <path fill="#005263" fill-rule="nonzero" stroke="#CCF1DA" stroke-width=".5" d="M20.1009602,16.4403541 C19.4832002,16.6541941 18.4377601,16.8917941 17.2972801,17.1293941 C16.8696001,17.7709141 16.1330401,18.3173941 14.9688001,18.4837141 C14.7074401,18.5312341 14.3985601,18.5549941 14.0659201,18.5549941 C13.2580801,18.5549941 12.3314401,18.4361941 11.2860001,18.3173941 C11.2147201,18.3173941 11.1434401,18.2936341 11.0721601,18.2936341 C10.8345601,18.2698741 10.6207201,18.0797941 10.5969601,17.8184341 C10.5732001,17.4857941 10.8583201,17.2244341 11.1672001,17.2719541 C11.2384801,17.2719541 11.3335201,17.2957141 11.4048001,17.2957141 C12.7591201,17.4382741 14.0184001,17.6045941 14.8262401,17.4620341 C16.3231201,17.2244341 16.7745601,16.3215541 16.6795201,15.5612341 C16.6082401,14.9434741 16.1805601,14.3257141 15.4440001,14.3732341 C14.3985601,14.4207541 13.1630401,14.3019541 11.9750401,14.1831541 C10.6207201,14.0405941 9.19512007,13.9217941 8.19720006,14.0643541 C7.65072006,14.1356341 6.67656005,14.4920341 5.70240004,14.8959541 C5.46480004,14.9909941 5.01336004,15.1810741 5.01336004,15.1810741 L0.641520005,16.4403541 C0.261360002,16.5591541 1.0658141e-13,16.8917941 1.0658141e-13,17.2957141 L1.0658141e-13,21.2161141 C1.0658141e-13,21.7388341 0.451440004,22.1427541 0.974160008,22.1189941 L5.01336004,21.7863541 C7.03296006,22.4991541 9.52776007,23.2832341 10.9771201,23.4020341 C13.9233601,23.6396341 19.7445602,20.2894741 21.3840002,19.1965141 C23.0472002,18.1273141 21.9304802,15.8225941 20.1009602,16.4403541 Z"/>
      <g transform="translate(6)">
        <g fill="#005263" fill-rule="nonzero">
          <path d="M6.91199928 10.7524473L7.56319037 12.6719987 8.26559526 11.5220975 9.21599904 11.755371 8.56449756 9.40799902C8.08277755 9.92668955 7.5278063 10.3807343 6.91199928 10.7524473L6.91199928 10.7524473zM1.4195014 9.40799902L.76799992 11.755371 1.7184037 11.5220975 2.42080858 12.6719987 3.07199968 10.7524473C2.45650304 10.3804294 1.9015318 9.92638461 1.4195014 9.40799902zM8.92632507 1.16527088C7.49332722 1.16527088 6.10378136.763178983 4.89569349 0 3.68179162.764709013 2.29561176 1.16527088.86567391 1.16527088L0 1.16527088 0 4.31101264C0 7.33863608 2.00858379 10.0532154 4.89599949 10.9439989 7.78341519 10.0532154 9.79199898 7.33863608 9.79199898 4.31101264L9.79199898 1.16527088 8.92632507 1.16527088zM9.17999904 4.31101264C9.17999904 6.96622676 7.50036522 9.35858173 5.00034548 10.2637475L4.89599949 10.3013862 4.7916535 10.2637475C2.29163376 9.35858173.611999936 6.96622676.611999936 4.31101264L.611999936 1.77881292.916163904 1.77697689C2.25307776 1.76902073 3.57897563 1.42904806 4.7503435.794391596L4.89630549.71513604 5.04226747.794391596C6.21424735 1.42904806 7.53983921 1.76902073 8.87583507 1.77697689L9.17999904 1.77881292 9.17999904 4.31101264z"/>
          <polygon points="3.749 5.504 3.264 5.995 4.362 7.104 7.296 4.139 6.811 3.648 4.362 6.123"/>
          <path d="M1.34399986,2.31808941 L1.34399986,4.25124478 C1.34399986,6.61732883 2.80532771,8.75284463 4.99199948,9.599999 C7.17867125,8.75253803 8.6399991,6.61702222 8.6399991,4.25124478 L8.6399991,2.31808941 C7.37049523,2.26565966 6.11862336,1.93145833 4.99230348,1.34399986 C3.8662876,1.93145833 2.61411173,2.26565966 1.34399986,2.31808941 Z M4.26300756,2.34139152 L4.47611153,2.9156659 C4.27334355,2.99231758 4.06723158,3.06253052 3.8638556,3.12446508 L3.68814362,2.53761982 C3.8790556,2.47936454 4.07239958,2.4134441 4.26300756,2.34139152 L4.26300756,2.34139152 Z M1.9519998,4.25093817 L1.9519998,2.8926704 L2.21647977,2.85771723 C2.50923174,2.81877818 2.80623971,2.76450879 3.09929568,2.69613549 L3.23639966,3.29371199 C3.01204769,3.34583513 2.78556771,3.39029311 2.55969573,3.42708591 L2.55969573,4.25124478 C2.55969573,4.32299075 2.56151973,4.39443011 2.56516773,4.46556287 L1.9577758,4.49683676 C1.9538238,4.41497276 1.9519998,4.33310877 1.9519998,4.25093817 L1.9519998,4.25093817 Z M8.15785515,4.16508829 L4.38399954,7.9713041 L2.43414375,6.0047286 L3.77599961,4.65136654 L4.38399954,5.26457998 L6.81599929,2.81172623 L8.15785515,4.16508829 Z"/>
        </g>
        <polygon fill="#005263" points="1.952 2.893 4.992 1.946 8.301 3.124 8.301 4.805 5.1 8.732 3.264 7.576 1.745 4.805"/>
        <polyline stroke="#CCF1DA" stroke-width=".6" points="3.6 5.046 4.61 5.986 6.863 4.2"/>
      </g>
    </g>
  </g>
</svg>
