<svg xmlns="http://www.w3.org/2000/svg" width="45" height="45" viewBox="0 0 45 45">
  <g fill="none" fill-rule="evenodd">
    <g fill="#65D48E">
      <circle cx="22.5" cy="22.5" r="22.5" opacity=".12"/>
      <circle cx="22.5" cy="22.5" r="18.947" opacity=".233"/>
    </g>
    <g opacity=".228" transform="rotate(-32 29.084 7.56)">
      <circle cx="8.383" cy="29.556" r="1.184" fill="#005263"/>
      <circle cx="13.59" cy="1.816" r="1" fill="#005263"/>
      <circle cx="28.945" cy="11.746" r="1.184" fill="#005263"/>
      <circle cx="1.274" cy="20.77" r="1" fill="#47A395" transform="matrix(1 0 0 -1 0 41.54)"/>
    </g>
    <g transform="translate(9 15)">
      <g transform="translate(0 5.4)">
        <rect width="27" height="9.72" fill="#005263"/>
        <rect width="25.2" height="7.56" x=".9" y="1.08" stroke="#FFF" stroke-width=".54"/>
      </g>
      <g transform="translate(1.8)">
        <g transform="translate(0 2.7)">
          <rect width="23.4" height="9.72" fill="#005263"/>
          <rect width="21.6" height="7.56" x=".9" y="1.08" stroke="#FFF" stroke-width=".54"/>
        </g>
        <g transform="translate(2.7)">
          <rect width="18.36" height="9.72" fill="#005263"/>
          <path fill="#FFF" fill-rule="nonzero" stroke="#FFF" stroke-width=".3" d="M2.22810917,0.903429933 L1.71817316,0.903429933 C1.68906264,0.622362843 1.53748718,0.361371973 1.31564494,0.200762207 L2.22810917,0.200762207 C2.28331878,0.200762207 2.32849027,0.155590711 2.32849027,0.100381104 C2.32849027,0.0451714967 2.28331878,0 2.22810917,0 L0.104045014,0 C0.048835407,0 0.00366391029,0.0451714967 0.00366391029,0.100381104 C0.00366391029,0.155590711 0.048835407,0.200762207 0.104045014,0.200762207 L0.712354503,0.200762207 C1.12592465,0.200762207 1.4672204,0.511943629 1.51640714,0.903429933 L0.104045014,0.903429933 C0.048835407,0.903429933 0.00366391029,0.94860143 0.00366391029,1.00381104 C0.00366391029,1.05902064 0.048835407,1.10419214 0.104045014,1.10419214 L1.51640714,1.10419214 C1.46621659,1.51073561 1.12090559,1.81589417 0.712354503,1.81689798 L0.105048825,1.81689798 C0.048835407,1.81790179 0.00366391029,1.8640771 0.00466772132,1.92029051 C0.00466772132,1.94739341 0.0167134538,1.9734925 0.0357858635,1.99256491 L1.55455196,3.4290185 C1.5947044,3.46716332 1.6579445,3.4651557 1.69608932,3.42500326 C1.73423414,3.38384701 1.73222652,3.32060691 1.69207407,3.28145828 L0.356001584,2.01766018 L0.711350692,2.01766018 C1.23534005,2.01766018 1.66798261,1.61613577 1.71817316,1.10419214 L2.22810917,1.10419214 C2.28331878,1.10419214 2.32849027,1.05902064 2.32849027,1.00381104 C2.32849027,0.94860143 2.28331878,0.903429933 2.22810917,0.903429933 Z" transform="translate(7.56 3.24)"/>
          <rect width="16.2" height="7.56" x="1.08" y="1.08" stroke="#FFF" stroke-width=".54"/>
        </g>
      </g>
    </g>
  </g>
</svg>
