<svg width="32" height="29" viewBox="0 0 32 29" fill="none" xmlns="http://www.w3.org/2000/svg">
<g clip-path="url(#clip0_18_1386)">
<path d="M29.8 18.5H1.4C0.6 18.5 0 17.8 0 17V1.4C0 0.6 0.6 0 1.4 0H29.8C30.6 0 31.2 0.6 31.2 1.4V17C31.3 17.8 30.6 18.4 29.8 18.5Z" fill="#042b62"/>
<path d="M26.3 12.8C24.7 12.8 23.2 13.5 22.3 14.9C21.6 14.5 20.7 14.3 19.9 14.3C17.5 14.3 15.4 16.1 15 18.6H29.8C30.5 18.6 31.1 18.1 31.2 17.4C30.9 14.7 28.8 12.8 26.3 12.8Z" fill="#042b62"/>
<path d="M27 17H4.3C4.3 15.4 3 14.2 1.5 14.2V4.30002C3 4.30002 4.3 3.00002 4.3 1.40002H27C27 3.00002 28.3 4.20002 29.8 4.20002V14.1C28.3 14.2 27 15.4 27 17Z" fill="#042b62"/>
<path d="M26.3 12.8C24.7 12.8 23.2 13.5 22.3 14.9C21.6 14.5 20.7 14.3 19.9 14.3C18 14.3 16.3 15.4 15.5 17.1H27C27 15.6 28.2 14.3 29.8 14.3C28.8 13.3 27.6 12.8 26.3 12.8Z" fill="#042b62"/>
<path d="M15.6 15.6C18.748 15.6 21.3 12.7347 21.3 9.20005C21.3 5.66543 18.748 2.80005 15.6 2.80005C12.452 2.80005 9.90002 5.66543 9.90002 9.20005C9.90002 12.7347 12.452 15.6 15.6 15.6Z" fill="#042b62"/>
<path d="M7.09995 10.6C7.87315 10.6 8.49995 9.97325 8.49995 9.20005C8.49995 8.42685 7.87315 7.80005 7.09995 7.80005C6.32675 7.80005 5.69995 8.42685 5.69995 9.20005C5.69995 9.97325 6.32675 10.6 7.09995 10.6Z" fill="#042b62"/>
<path d="M24.1 10.6C24.8731 10.6 25.5 9.97325 25.5 9.20005C25.5 8.42685 24.8731 7.80005 24.1 7.80005C23.3268 7.80005 22.7 8.42685 22.7 9.20005C22.7 9.97325 23.3268 10.6 24.1 10.6Z" fill="#042b62"/>
<path d="M18.5 24.2C21.2614 24.2 23.5 21.9614 23.5 19.2C23.5 16.4385 21.2614 14.2 18.5 14.2C15.7386 14.2 13.5 16.4385 13.5 19.2C13.5 21.9614 15.7386 24.2 18.5 24.2Z" fill="#FFC860"/>
<path d="M24.9 22.8C27.6614 22.8 29.9 20.5615 29.9 17.8C29.9 15.0386 27.6614 12.8 24.9 12.8C22.1386 12.8 19.9 15.0386 19.9 17.8C19.9 20.5615 22.1386 22.8 24.9 22.8Z" fill="#E2E2E2"/>
<path d="M24.9 12.8C22.1 12.8 19.9 15 19.9 17.8C19.9 20.6 22.1 22.8 24.9 22.8C27.7 22.8 29.9 20.6 29.9 17.8C29.9 15.1 27.7 12.8 25 12.8C24.9 12.8 24.9 12.8 24.9 12.8ZM24.9 21.3C22.9 21.3 21.3 19.7 21.3 17.8C21.3 15.9 22.9 14.2 24.8 14.2C26.8 14.2 28.4 15.8 28.4 17.7C28.4 19.7 26.9 21.3 24.9 21.3Z" fill="#EAEAEA" stroke="#939393" stroke-width="0.25"/>
<path d="M24.9 19.9C24.5 19.9 24.2 19.6 24.2 19.3V19.2V16.4C24.2 16 24.5 15.7 24.9 15.7C25.3 15.7 25.6 16 25.6 16.4V19.2C25.6 19.5 25.3 19.9 24.9 19.9Z" fill="white"/>
<path d="M27.5 21.9C27 20.2 25.8 18.7 24.1 18.1C23.8 16.5 22.8 15.1 21.4 14.2C20.5 15.1 20 16.4 20 17.7C20 20.4 22.2 22.7 24.9 22.7H25C25.9 22.7 26.8 22.4 27.5 21.9Z" fill="#E2E2E2"/>
<path d="M27.5 21.9C27.4 21.4 27.2 21 26.9 20.5C26.3 21 25.6 21.2 24.8 21.2C22.8 21.2 21.2 19.6 21.3 17.6C21.3 16.6 21.7 15.7 22.4 15C22.1 14.7 21.7 14.4 21.3 14.1C20.4 15 19.9 16.3 19.9 17.6C19.9 20.3 22.1 22.6 24.8 22.6H24.9C25.8 22.7 26.7 22.5 27.5 21.9Z" fill="#E2E2E2"/>
<path d="M18.5 24.2C21.2614 24.2 23.5 21.9614 23.5 19.2C23.5 16.4385 21.2614 14.2 18.5 14.2C15.7386 14.2 13.5 16.4385 13.5 19.2C13.5 21.9614 15.7386 24.2 18.5 24.2Z" fill="#E2E2E2"/>
<path d="M17.8 22.7001C17.8 23.2001 17.9 23.7 18 24.1H18.5C21.3 24.1 23.5 21.8001 23.5 19.1C23.5 18.6 23.4 18.2 23.3 17.8H22.8C20.1 17.8 17.8 19.9001 17.8 22.7001C17.7 22.7001 17.7 22.7001 17.8 22.7001Z" fill="#E2E2E2"/>
<path d="M18.5 14.2C15.7 14.2 13.5 16.4 13.5 19.2C13.5 22 15.7 24.2 18.5 24.2C21.3 24.2 23.5 22 23.5 19.2C23.5 16.5 21.3 14.2 18.6 14.2C18.5 14.2 18.5 14.2 18.5 14.2ZM18.5 22.7C16.5 22.7 14.9 21.1 14.9 19.2C14.9 17.2 16.5 15.6 18.4 15.6C20.3 15.6 22 17.2 22 19.1C22 21.1 20.5 22.7 18.5 22.7Z" fill="#EAEAEA" stroke="#939393" stroke-width="0.25"/>
<path d="M18.5 24.1C21.2 24.2 23.4 21.9999 23.5 19.2999V19.2H23.4C23 19.2 22.7 19.4999 22.7 19.7999C22.6 20.7999 22.1 21.7 21.3 22.4C20.7 23 19.9 23.3 19.1 23.5C18.8 23.4 18.5 23.7 18.5 24.1Z" fill="#F4B343"/>
<path d="M20.6 21.4C20.5 21.4 20.4 21.4 20.4 21.3C20.3 21.2 20.3 21 20.4 20.8C20.8 20.4 21 19.8 21 19.2C21 19 21.2 18.9 21.4 18.9C21.6 18.9 21.7 19 21.7 19.2C21.7 20 21.5 20.7 21 21.3C20.9 21.4 20.7 21.4 20.6 21.4Z" fill="#FFC95D"/>
<path d="M18.5 21.3C18.1 21.3 17.8 21 17.8 20.7V20.6V17.8C17.8 17.4 18.1 17.1 18.5 17.1C18.9 17.1 19.2001 17.4 19.2001 17.8V20.6C19.2001 21 18.9 21.3 18.5 21.3Z" fill="white"/>
<path d="M21.7 17.8001C21.9 18.2001 22 18.7001 22 19.2001C22 21.1001 20.5 22.7001 18.5 22.7001H18.4C18.2 22.7001 17.9 22.7001 17.7 22.6001V22.7001C17.7 23.2001 17.8 23.7001 18 24.1001H18.5C21.3 24.1001 23.5 21.8001 23.5 19.1001C23.5 18.6001 23.3999 18.2001 23.2999 17.8001H22.7999C22.3999 17.7001 22.1 17.8001 21.7 17.8001Z" fill="#E2E2E2"/>
<path d="M22 28.4C24.7614 28.4 27 26.1614 27 23.4C27 20.6386 24.7614 18.4 22 18.4C19.2386 18.4 17 20.6386 17 23.4C17 26.1614 19.2386 28.4 22 28.4Z" fill="#E2E2E2"/>
<path d="M22 18.5C19.2 18.5 17 20.7 17 23.5C17 26.3 19.2 28.5 22 28.5C24.8 28.5 27 26.3 27 23.5C27 20.8 24.8 18.5 22.1 18.5H22ZM22 27C20 27 18.4 25.4 18.4 23.5C18.4 21.6 20 19.9 21.9 19.9C23.8 19.9 25.5 21.5 25.5 23.4C25.6 25.4 24 27 22 27Z" fill="#EAEAEA" stroke="#939393" stroke-width="0.25"/>
<path d="M22 25.6C21.6 25.6 21.3 25.3 21.3 25V24.9V22C21.3 21.6 21.6 21.3 22 21.3C22.4 21.3 22.7001 21.6 22.7001 22V24.8C22.7001 25.2 22.5 25.5 22 25.6Z" fill="white"/>
<path d="M17.9 7.29995H17.8H16.9C16.8 6.99995 16.7 6.79995 16.6 6.59995H17.8H17.9V6.49995V5.79995V5.69995H17.8H13.6H13.5C13.5 5.69995 13.5 5.79995 13.4 5.79995V6.49995C13.4 6.49995 13.4 6.59995 13.5 6.59995H13.6H14.3C15 6.59995 15.5 6.79995 15.7 7.19995H13.6H13.5C13.5 7.19995 13.5 7.29995 13.4 7.29995V7.79995C13.4 7.79995 13.4 7.89995 13.5 7.89995H13.6H15.8C15.7 8.19995 15.5 8.39995 15.3 8.49995C15 8.69995 14.6 8.69995 14.2 8.69995H13.6H13.5C13.5 8.69995 13.5 8.79995 13.4 8.79995V9.39995C13.4 9.39995 13.4 9.49995 13.5 9.49995C14.1 10.2 15 11.1 16 12.4L16.1 12.5H17.1C17.2 12.5 17.2 12.5 17.2 12.4C17.2 12.3 17.2 12.3 17.2 12.2C16.2 11 15.4 10.1 14.9 9.49995C15.4 9.49995 15.9 9.29995 16.3 8.89995C16.7 8.59995 16.9 8.19995 17 7.69995H17.9H18V7.59995V7.39995C17.9 7.39995 17.9 7.29995 17.9 7.29995Z" fill="white"/>
</g>
<defs>
<clipPath id="clip0_18_1386">
<rect width="31.2" height="28.4" fill="white"/>
</clipPath>
</defs>
</svg>
