<svg width="31" height="32" viewBox="0 0 31 32" fill="none" xmlns="http://www.w3.org/2000/svg">
<g clip-path="url(#clip0_18_1426)">
<path d="M27.6 5.6V0.4C27.6 0.2 27.4001 0 27.2001 0H22C21.8 0 21.6 0.2 21.6 0.4V1.8C21.6 2 21.8 2.2 22 2.2H23.8L17.5 8.5C17.4 8.6 17.1 8.6 17 8.5L12.1 3.6C12 3.5 11.7 3.5 11.6 3.6L4.00005 11.2C3.90005 11.3 3.90005 11.6 4.00005 11.7L5.10005 12.8C5.20005 12.9 5.50005 12.9 5.60005 12.8L11.6 6.8C11.7 6.7 12 6.7 12.1 6.8L17 11.7C17.1 11.8 17.4 11.8 17.5 11.7L25.4 3.8V5.6C25.4 5.8 25.6 6 25.8 6H27.2001C27.5001 6 27.6 5.8 27.6 5.6Z" fill="#042b62"/>
<path d="M1.5 27.2H6C6.3 27.2 6.5 27.4 6.5 27.7V29C6.5 29.3 6.3 29.5 6 29.5H1.5C1.2 29.5 1 29.3 1 29V27.7C1.1 27.4 1.3 27.2 1.5 27.2Z" fill="#EAEAEA" stroke="#939393" stroke-width="0.25"/>
<path d="M5.80002 29.4H10.4C10.6 29.4 10.8 29.6 10.8 29.8V31.2C10.8 31.4 10.6 31.6 10.4 31.6H5.80002C5.60002 31.6 5.40002 31.4 5.40002 31.2V29.8C5.40002 29.6 5.60002 29.4 5.80002 29.4Z" fill="#EAEAEA" stroke="#939393" stroke-width="0.25"/>
<path d="M5.90001 25H10.4C10.6 25 10.8 25.2 10.8 25.5V26.8C10.8 27 10.6 27.3 10.4 27.3H5.90001C5.70001 27.3 5.50001 27.1 5.50001 26.8V25.5C5.40001 25.2 5.60001 25 5.90001 25Z" fill="#EAEAEA" stroke="#939393" stroke-width="0.25"/>
<path d="M12.3 27.2H16C16.2 27.2 16.3 27.4 16.3 27.6V29C16.3 29.2 16.2 29.4 16 29.4H12.3C12.1 29.4 12 29.2 12 29V27.6C12 27.4 12.1 27.2 12.3 27.2Z" fill="#EAEAEA" stroke="#939393" stroke-width="0.25"/>
<path d="M11.2 29.4H15.8C16 29.4 16.2 29.6 16.2 29.8V31.1C16.2 31.3 16 31.5 15.8 31.5H11.2C11 31.5 10.8 31.3 10.8 31.1V29.8C10.8 29.6 11 29.4 11.2 29.4Z" fill="#042b62"/>
<path d="M11.3 25H15.9C16.1 25 16.3 25.2 16.3 25.4V26.7C16.3 26.9 16.1 27.1 15.9 27.1H11.3C11.1 27.1 10.9 26.9 10.9 26.7V25.4C10.9 25.2 11.1 25 11.3 25Z" fill="#042b62"/>
<path d="M6.90002 27.2H11.4C11.7 27.2 11.9 27.4 11.9 27.7V28.9C11.9 29.2 11.7 29.4 11.4 29.4H6.90002C6.60002 29.4 6.40002 29.2 6.40002 28.9V27.7C6.40002 27.4 6.60002 27.2 6.90002 27.2Z" fill="#042b62"/>
<path d="M6.9 22.8H11.6C11.8 22.8 12 23.0001 12 23.2001V24.6C12 24.8 11.8 25 11.6 25H6.9C6.7 25 6.5 24.8 6.5 24.6V23.2001C6.5 23.0001 6.7 22.8 6.9 22.8Z" fill="#042b62"/>
<path d="M0.5 29.4H5C5.3 29.4 5.5 29.6 5.5 29.9V31.1C5.5 31.4 5.3 31.6 5 31.6H0.5C0.2 31.6 0 31.4 0 31.1V29.9C0 29.6 0.2 29.4 0.5 29.4Z" fill="#042b62"/>
<path d="M0.4 25H5C5.2 25 5.4 25.2 5.4 25.4V26.7C5.4 26.9 5.2 27.1 5 27.1H0.4C0.2 27.2 0 27 0 26.8V25.5C0 25.2 0.2 25 0.4 25Z" fill="#042b62"/>
<path d="M16.8 27.2H28.3C28.6 27.2 28.8 27.4 28.8 27.7V31C28.8 31.3 28.6 31.5 28.3 31.5H16.8C16.5 31.5 16.3 31.3 16.3 31V27.7C16.3 27.4 16.6 27.2 16.8 27.2Z" fill="#EAEAEA" stroke="#939393" stroke-width="0.25"/>
<path d="M27.4 27.2C25.7 29.6 22.9 31 19.9 31H16.3V31.5H28.2001C28.5001 31.5 28.8 31.2 28.8 30.9V27.7C28.8 27.4 28.6001 27.1 28.2001 27.1H27.4V27.2Z" fill="#E2E2E2"/>
<path d="M21.1 27.2H23.3V31.6H21.1V27.2Z" fill="#042b62"/>
<path d="M19 22.8H30.5C30.8 22.8 31 23 31 23.3V26.6C31 26.9 30.8 27.1 30.5 27.1H19C18.7 27.1 18.5 26.9 18.5 26.6V23.3C18.5 23.1 18.7 22.8 19 22.8Z" fill="#EAEAEA" stroke="#939393" stroke-width="0.25"/>
<path d="M29.5 22.7999C27.8 25.1999 25 26.6 22 26.6H18.4V27.1H30.4C30.7 27.1 30.9 26.9 30.9 26.6V23.2C30.9 22.9 30.7 22.7 30.4 22.7H29.5V22.7999Z" fill="#E2E2E2"/>
<path d="M23.3 22.8H25.5V27.2001H23.3V22.8Z" fill="#042b62"/>
<path d="M16.8 18.5H28.4C28.6 18.5 28.8 18.7 28.8 18.9V22.4C28.8 22.6 28.6 22.8 28.4 22.8H16.8C16.6 22.8 16.4 22.6 16.4 22.4V18.9C16.3 18.7 16.5 18.5 16.8 18.5Z" fill="#EAEAEA" stroke="#939393" stroke-width="0.25"/>
<path d="M27.4 18.5C25.7 20.9 22.9 22.3 19.9 22.3H16.3V22.8H28.3C28.6 22.8 28.8 22.6 28.8 22.3V19C28.8 18.7 28.6 18.5 28.3 18.5H27.4Z" fill="#E2E2E2"/>
<path d="M21.1 18.5H23.3V22.9H21.1V18.5Z" fill="#042b62"/>
<path d="M14.7 25H15.9C16.2 25 16.4 25.2 16.4 25.5V26.7C16.4 27 16.2 27.2 15.9 27.2H14.7V25Z" fill="#042b62"/>
<path d="M14.7 27.2H15.8C16.1 27.2 16.3 27.4 16.3 27.7V28.9C16.3 29.2 16.1 29.4 15.8 29.4H14.7V27.2Z" fill="#E2E2E2"/>
<path d="M14.7 29.4H15.9C16.2 29.4 16.4 29.6 16.4 29.9V31.2C16.4 31.5 16.2 31.7 15.9 31.7H14.7V29.4Z" fill="#042b62"/>
<path d="M9.19995 29.4H10.4C10.6 29.4 10.8 29.6 10.8 29.8V31.2C10.8 31.4 10.6 31.6 10.4 31.6H9.19995V29.4Z" fill="#E2E2E2"/>
<path d="M10.3 27.2H11.5C11.7 27.2 11.9 27.4 11.9 27.6V28.9C11.9 29.1 11.7 29.2999 11.5 29.2999H10.3V27.2Z" fill="#042b62"/>
<path d="M9.19995 25H10.3C10.6 25 10.8 25.2 10.8 25.5V26.7C10.8 27 10.6 27.2 10.3 27.2H9.19995V25Z" fill="#E2E2E2"/>
<path d="M3.80005 29.4H5.00005C5.30005 29.4 5.50005 29.6 5.50005 29.9V31.1C5.50005 31.4 5.30005 31.6 5.00005 31.6H3.80005V29.4Z" fill="#042b62"/>
<path d="M4.90002 27.2H6.10002C6.30002 27.2 6.50002 27.4 6.50002 27.7V29C6.50002 29.2 6.30002 29.5 6.10002 29.5H4.90002V27.2Z" fill="#E2E2E2"/>
<path d="M3.80005 25H5.00005C5.20005 25 5.40005 25.2 5.40005 25.4V26.7C5.40005 26.9 5.20005 27.1 5.00005 27.1H3.80005V25Z" fill="#042b62"/>
<path d="M10.9 22.8H12.1C12.3 22.8 12.5 23 12.5 23.3V24.6C12.5 24.8 12.3 25.1 12.1 25.1H10.9V22.8Z" fill="#042b62"/>
<path d="M9.49998 12.5H10.9C11.1 12.5 11.3 12.7 11.3 12.9V20.9C11.3 21.1 11.1 21.3 10.9 21.3H9.49998C9.29998 21.3 9.09998 21.1 9.09998 20.9V12.9C9.09998 12.7 9.29998 12.5 9.49998 12.5Z" fill="#042b62"/>
<path d="M15 14.1H16.5C16.7 14.1 16.9 14.3 16.9 14.4V16.4C16.9 16.6 16.7 16.8 16.5 16.8H15C14.8 16.8 14.6 16.6 14.6 16.4V14.4C14.6 14.3 14.8 14.1 15 14.1Z" fill="#EAEAEA" stroke="#939393" stroke-width="0.25"/>
<path d="M20.4 12.5H21.9C22.1 12.5 22.2 12.7 22.2 12.8V16.5C22.2 16.7 22 16.8 21.9 16.8H20.4C20.2 16.8 20.1 16.6 20.1 16.5V12.8C20 12.7 20.2 12.5 20.4 12.5Z" fill="#042b62"/>
<path d="M26 8.19995H27.4C27.6 8.19995 27.8 8.39995 27.8 8.59995V16.5C27.8 16.7 27.6 16.9 27.4 16.9H26C25.8 16.9 25.6 16.7 25.6 16.5V8.59995C25.6 8.29995 25.8 8.19995 26 8.19995Z" fill="#EAEAEA" stroke="#939393" stroke-width="0.25"/>
<path d="M5.70005 15.2H4.10005C4.00005 15.2 3.80005 15.3 3.80005 15.5V22.7C3.80005 22.8 3.90005 23 4.10005 23C4.20005 23 4.20005 23 4.30005 22.9L5.90005 21.3C6.00005 21.2 6.00005 21.2 6.00005 21.1V15.5C6.00005 15.4 5.90005 15.2 5.70005 15.2Z" fill="#EAEAEA" stroke="#939393" stroke-width="0.25"/>
</g>
<defs>
<clipPath id="clip0_18_1426">
<rect width="31" height="31.5" fill="white"/>
</clipPath>
</defs>
</svg>
