<svg width="217" height="162" viewBox="0 0 217 162" fill="none" xmlns="http://www.w3.org/2000/svg">
<path d="M216.352 141.667H0V141.775H216.352V141.667Z" fill="#EBEBEB"/>
<path d="M194.673 148.629H180.342V148.738H194.673V148.629Z" fill="#EBEBEB"/>
<path d="M143.32 149.806H139.56V149.915H143.32V149.806Z" fill="#EBEBEB"/>
<path d="M179.91 144.614H171.606V144.722H179.91V144.614Z" fill="#EBEBEB"/>
<path d="M41.3881 145.341H22.6996V145.449H41.3881V145.341Z" fill="#EBEBEB"/>
<path d="M47.9825 145.341H45.2435V145.449H47.9825V145.341Z" fill="#EBEBEB"/>
<path d="M97.4232 147.167H56.8875V147.275H97.4232V147.167Z" fill="#EBEBEB"/>
<path d="M102.551 122.369H19.0001C18.3456 122.367 17.7182 122.107 17.2558 121.643C16.7934 121.18 16.5337 120.552 16.5337 119.898V2.4491C16.5394 1.79833 16.8016 1.17608 17.2634 0.717517C17.7252 0.258955 18.3493 0.00111481 19.0001 0H102.551C103.206 0 103.835 0.260309 104.298 0.723662C104.761 1.18702 105.022 1.81546 105.022 2.47074V119.898C105.022 120.553 104.761 121.182 104.298 121.645C103.835 122.108 103.206 122.369 102.551 122.369ZM19.0001 0.0865411C18.3743 0.0876873 17.7744 0.337104 17.3323 0.780046C16.8902 1.22299 16.6419 1.82326 16.6419 2.4491V119.898C16.6419 120.524 16.8902 121.124 17.3323 121.567C17.7744 122.01 18.3743 122.259 19.0001 122.26H102.551C103.177 122.259 103.777 122.01 104.22 121.567C104.663 121.124 104.912 120.524 104.913 119.898V2.4491C104.912 1.82286 104.663 1.2226 104.22 0.779782C103.777 0.336964 103.177 0.0876849 102.551 0.0865411H19.0001Z" fill="#EBEBEB"/>
<path d="M196.149 122.369H112.594C111.939 122.367 111.311 122.107 110.848 121.644C110.385 121.181 110.124 120.553 110.123 119.898V2.4491C110.13 1.79793 110.393 1.17569 110.856 0.717246C111.318 0.258804 111.943 0.00110265 112.594 0H196.149C196.799 0.002252 197.422 0.260595 197.883 0.719036C198.344 1.17748 198.605 1.79907 198.611 2.4491V119.898C198.611 120.552 198.352 121.179 197.89 121.642C197.429 122.105 196.803 122.366 196.149 122.369ZM112.594 0.0865411C111.968 0.0876849 111.367 0.336964 110.924 0.779782C110.482 1.2226 110.232 1.82286 110.231 2.4491V119.898C110.232 120.524 110.482 121.124 110.924 121.567C111.367 122.01 111.968 122.259 112.594 122.26H196.149C196.775 122.259 197.375 122.01 197.818 121.567C198.261 121.124 198.51 120.524 198.511 119.898V2.4491C198.51 1.82286 198.261 1.2226 197.818 0.779782C197.375 0.336964 196.775 0.0876849 196.149 0.0865411H112.594Z" fill="#EBEBEB"/>
<path d="M130.283 95.3722H177.365V10.294H130.283V95.3722Z" fill="#E6E6E6"/>
<path d="M128.115 95.3722H176.353V10.294H128.115V95.3722Z" fill="#F0F0F0"/>
<path d="M130.283 97.3885H177.365V95.3721H130.283V97.3885Z" fill="#E6E6E6"/>
<path d="M127.332 97.3885H175.569V95.3721H127.332V97.3885Z" fill="#F0F0F0"/>
<path d="M173.306 92.3302V13.3359L131.152 13.3359V92.3302H173.306Z" fill="#FAFAFA"/>
<path d="M143.078 92.3302L154.942 13.3359H163.372L151.502 92.3302H143.078Z" fill="white"/>
<path d="M144.415 92.3302L156.284 13.3359H164.709L152.84 92.3302H144.415Z" fill="white"/>
<path d="M153.311 92.3302L165.18 13.3359H168.464L156.6 92.3302H153.311Z" fill="white"/>
<path d="M131.542 92.3302V13.3359H131.157V92.3302H131.542Z" fill="#E6E6E6"/>
<path opacity="0.6" d="M127.392 15.6292H174.475L174.752 14.5172H127.673L127.392 15.6292Z" fill="#EBEBEB"/>
<path opacity="0.6" d="M127.392 17.4466H174.475L174.752 16.3389H127.673L127.392 17.4466Z" fill="#EBEBEB"/>
<path opacity="0.6" d="M127.392 19.2683H174.475L174.752 18.1606H127.673L127.392 19.2683Z" fill="#EBEBEB"/>
<path opacity="0.6" d="M127.392 21.09H174.475L174.752 19.9779H127.673L127.392 21.09Z" fill="#EBEBEB"/>
<path opacity="0.6" d="M127.392 22.9117H174.475L174.752 21.7996H127.673L127.392 22.9117Z" fill="#EBEBEB"/>
<path opacity="0.6" d="M127.392 24.729H174.475L174.752 23.6213H127.673L127.392 24.729Z" fill="#EBEBEB"/>
<path d="M186.69 5.19244H118.79V6.83239H186.69V5.19244Z" fill="#F0F0F0"/>
<path opacity="0.8" d="M185.461 3.81213H181.891V108.89H185.461V3.81213Z" fill="#FAFAFA"/>
<path opacity="0.8" d="M182.817 3.81213H181.891V108.89H182.817V3.81213Z" fill="#F0F0F0"/>
<path opacity="0.8" d="M181.891 3.81213H178.322V108.89H181.891V3.81213Z" fill="#FAFAFA"/>
<path opacity="0.8" d="M179.248 3.81213H178.322V108.89H179.248V3.81213Z" fill="#F0F0F0"/>
<path opacity="0.8" d="M178.322 3.81213H174.752V108.89H178.322V3.81213Z" fill="#FAFAFA"/>
<path opacity="0.8" d="M130.283 3.81213H126.713V108.89H130.283V3.81213Z" fill="#FAFAFA"/>
<path opacity="0.8" d="M127.639 3.81213H126.713V108.89H127.639V3.81213Z" fill="#F0F0F0"/>
<path opacity="0.8" d="M126.717 3.81213H123.147V108.89H126.717V3.81213Z" fill="#FAFAFA"/>
<path opacity="0.8" d="M124.073 3.81213H123.147V108.89H124.073V3.81213Z" fill="#F0F0F0"/>
<path opacity="0.8" d="M123.147 3.81213H119.578V108.89H123.147V3.81213Z" fill="#FAFAFA"/>
<path d="M36.9269 95.3722H84.0094L84.0094 10.294H36.9269L36.9269 95.3722Z" fill="#E6E6E6"/>
<path d="M34.7548 95.3722H82.9926L82.9926 10.294H34.7548L34.7548 95.3722Z" fill="#F0F0F0"/>
<path d="M36.9269 97.3885H84.0094V95.3721H36.9269V97.3885Z" fill="#E6E6E6"/>
<path d="M33.9715 97.3885H82.2094V95.3721H33.9715V97.3885Z" fill="#F0F0F0"/>
<path d="M79.9506 92.3302V13.3359L37.7966 13.3359L37.7966 92.3302H79.9506Z" fill="#FAFAFA"/>
<path d="M49.7219 92.3302L61.5867 13.3359H70.0157L58.1467 92.3302H49.7219Z" fill="white"/>
<path d="M51.059 92.3302L62.9237 13.3359H71.3528L59.4837 92.3302H51.059Z" fill="white"/>
<path d="M59.9554 92.3302L71.8244 13.3359H75.1087L63.2439 92.3302H59.9554Z" fill="white"/>
<path d="M38.1861 92.3259L38.1861 13.3315H37.801L37.801 92.3259H38.1861Z" fill="#E6E6E6"/>
<path opacity="0.6" d="M34.0365 15.6292H81.119L81.3959 14.5172H34.3178L34.0365 15.6292Z" fill="#EBEBEB"/>
<path opacity="0.6" d="M34.0365 17.4466H81.119L81.3959 16.3389H34.3178L34.0365 17.4466Z" fill="#EBEBEB"/>
<path opacity="0.6" d="M34.0365 19.2683H81.119L81.3959 18.1606H34.3178L34.0365 19.2683Z" fill="#EBEBEB"/>
<path opacity="0.6" d="M34.0365 21.09H81.119L81.3959 19.9779H34.3178L34.0365 21.09Z" fill="#EBEBEB"/>
<path opacity="0.6" d="M34.0365 22.9117H81.119L81.3959 21.7996H34.3178L34.0365 22.9117Z" fill="#EBEBEB"/>
<path opacity="0.6" d="M34.0365 24.729H81.119L81.3959 23.6213H34.3178L34.0365 24.729Z" fill="#EBEBEB"/>
<path d="M93.3342 5.19244H25.4343V6.83239H93.3342V5.19244Z" fill="#F0F0F0"/>
<path opacity="0.8" d="M92.1053 3.81213H88.5355V108.89H92.1053V3.81213Z" fill="#FAFAFA"/>
<path opacity="0.8" d="M89.4615 3.81213H88.5355V108.89H89.4615V3.81213Z" fill="#F0F0F0"/>
<path opacity="0.8" d="M88.5355 3.81213H84.9657V108.89H88.5355V3.81213Z" fill="#FAFAFA"/>
<path opacity="0.8" d="M85.8917 3.81213H84.9657V108.89H85.8917V3.81213Z" fill="#F0F0F0"/>
<path opacity="0.8" d="M84.9657 3.81213H81.3959V108.89H84.9657V3.81213Z" fill="#FAFAFA"/>
<path opacity="0.8" d="M36.9269 3.81213H33.3571V108.89H36.9269V3.81213Z" fill="#FAFAFA"/>
<path opacity="0.8" d="M34.2831 3.81213H33.3571V108.89H34.2831V3.81213Z" fill="#F0F0F0"/>
<path opacity="0.8" d="M33.3571 3.81213H29.7873V108.89H33.3571V3.81213Z" fill="#FAFAFA"/>
<path opacity="0.8" d="M30.7133 3.81213H29.7873V108.89H30.7133V3.81213Z" fill="#F0F0F0"/>
<path opacity="0.8" d="M29.7873 3.81213H26.2175V108.89H29.7873V3.81213Z" fill="#FAFAFA"/>
<path d="M162.597 138.729H169.871V102.382H162.597V138.729Z" fill="#F0F0F0"/>
<path d="M105.571 141.667H167.214V138.729H105.571V141.667Z" fill="#F0F0F0"/>
<path d="M162.597 102.382H102.919V138.729H162.597V102.382Z" fill="#F5F5F5"/>
<path d="M157.158 106.233H108.353V118.323H157.158V106.233Z" fill="#F0F0F0"/>
<path d="M157.158 121.092H108.353V133.182H157.158V121.092Z" fill="#F0F0F0"/>
<path d="M126.973 107.899H138.539C138.815 107.899 139.08 107.789 139.276 107.594C139.472 107.398 139.581 107.133 139.581 106.856C139.58 106.58 139.47 106.315 139.275 106.12C139.079 105.925 138.815 105.814 138.539 105.813H126.973C126.833 105.812 126.694 105.839 126.565 105.892C126.436 105.945 126.319 106.024 126.22 106.123C126.122 106.222 126.044 106.34 125.992 106.47C125.94 106.599 125.914 106.738 125.917 106.878C125.922 107.153 126.037 107.415 126.234 107.606C126.432 107.797 126.697 107.902 126.973 107.899Z" fill="#F5F5F5"/>
<path d="M126.973 122.762H138.539C138.815 122.761 139.08 122.651 139.275 122.456C139.47 122.26 139.58 121.996 139.582 121.72C139.582 121.583 139.555 121.447 139.502 121.32C139.45 121.194 139.373 121.079 139.276 120.982C139.179 120.885 139.064 120.808 138.938 120.756C138.811 120.704 138.676 120.677 138.539 120.677H126.973C126.835 120.675 126.698 120.701 126.569 120.752C126.441 120.804 126.325 120.881 126.227 120.978C126.129 121.075 126.051 121.19 125.997 121.317C125.944 121.445 125.917 121.581 125.917 121.72C125.917 121.857 125.945 121.994 125.999 122.121C126.052 122.248 126.13 122.363 126.228 122.46C126.326 122.557 126.442 122.634 126.57 122.686C126.698 122.737 126.835 122.763 126.973 122.762Z" fill="#F5F5F5"/>
<path d="M101.071 102.386L162.593 102.386V100.967L101.071 100.967V102.386Z" fill="#F0F0F0"/>
<path d="M171.801 100.963H162.593V102.382H171.801V100.963Z" fill="#E6E6E6"/>
<path d="M46.8791 139.257C46.0501 139.255 45.2557 138.924 44.6695 138.338C44.0833 137.752 43.753 136.958 43.7507 136.129V105.511C43.753 104.682 44.0833 103.887 44.6695 103.301C45.2557 102.715 46.0501 102.384 46.8791 102.382C47.7077 102.384 48.5017 102.715 49.0872 103.301C49.6727 103.888 50.0021 104.682 50.0032 105.511V136.129C50.0021 136.957 49.6727 137.752 49.0872 138.338C48.5017 138.924 47.7077 139.255 46.8791 139.257Z" fill="#F5F5F5"/>
<path d="M48.6661 138.032C48.1068 138.03 47.571 137.807 47.1755 137.411C46.78 137.016 46.5568 136.48 46.5545 135.921V105.727C46.5568 105.168 46.78 104.632 47.1755 104.236C47.571 103.841 48.1068 103.618 48.6661 103.615C49.2262 103.616 49.7631 103.839 50.1595 104.235C50.5559 104.63 50.7797 105.167 50.782 105.727V135.912C50.782 136.474 50.5592 137.012 50.1625 137.41C49.7659 137.807 49.2277 138.031 48.6661 138.032Z" fill="#EBEBEB"/>
<path d="M51.4182 139.257C50.5896 139.255 49.7956 138.924 49.2101 138.338C48.6246 137.752 48.2952 136.957 48.2941 136.129V105.511C48.2952 104.682 48.6246 103.888 49.2101 103.301C49.7956 102.715 50.5896 102.384 51.4182 102.382C52.2472 102.384 53.0416 102.715 53.6278 103.301C54.214 103.887 54.5444 104.682 54.5466 105.511V136.129C54.5444 136.958 54.214 137.752 53.6278 138.338C53.0416 138.924 52.2472 139.255 51.4182 139.257Z" fill="#F5F5F5"/>
<path d="M53.2226 138.032C52.6629 138.031 52.1264 137.808 51.7307 137.413C51.3349 137.017 51.1121 136.481 51.111 135.921V105.727C51.1121 105.167 51.3349 104.631 51.7307 104.235C52.1264 103.839 52.6629 103.616 53.2226 103.615C53.7822 103.616 54.3187 103.839 54.7144 104.235C55.1102 104.631 55.333 105.167 55.3341 105.727V135.912C55.3347 136.19 55.2805 136.465 55.1747 136.722C55.0689 136.979 54.9135 137.213 54.7175 137.41C54.5214 137.607 54.2885 137.763 54.032 137.87C53.7755 137.977 53.5004 138.032 53.2226 138.032Z" fill="#EBEBEB"/>
<path d="M59.0857 105.511C59.0857 103.783 57.686 102.382 55.9594 102.382C54.2328 102.382 52.8331 103.783 52.8331 105.511V136.129C52.8331 137.856 54.2328 139.257 55.9594 139.257C57.686 139.257 59.0857 137.856 59.0857 136.129V105.511Z" fill="#F5F5F5"/>
<path d="M57.753 138.032C57.1933 138.031 56.6568 137.808 56.2611 137.413C55.8653 137.017 55.6425 136.481 55.6414 135.921V105.727C55.6425 105.167 55.8653 104.631 56.2611 104.235C56.6568 103.839 57.1933 103.616 57.753 103.615C58.3126 103.616 58.8491 103.839 59.2448 104.235C59.6406 104.631 59.8634 105.167 59.8645 105.727V135.912C59.8651 136.19 59.8109 136.465 59.7051 136.722C59.5993 136.979 59.4439 137.213 59.2479 137.41C59.0518 137.607 58.8188 137.763 58.5624 137.87C58.3059 137.977 58.0308 138.032 57.753 138.032Z" fill="#EBEBEB"/>
<path d="M60.505 139.257C59.676 139.255 58.8816 138.924 58.2954 138.338C57.7092 137.752 57.3789 136.958 57.3766 136.129V105.511C57.3789 104.682 57.7092 103.887 58.2954 103.301C58.8816 102.715 59.676 102.384 60.505 102.382C61.334 102.384 62.1285 102.715 62.7147 103.301C63.3009 103.887 63.6312 104.682 63.6335 105.511V136.129C63.6312 136.958 63.3009 137.752 62.7147 138.338C62.1285 138.924 61.334 139.255 60.505 139.257Z" fill="#F5F5F5"/>
<path d="M62.3093 138.032C61.7493 138.031 61.2124 137.809 60.8159 137.413C60.4195 137.017 60.1957 136.481 60.1934 135.921V105.727C60.1957 105.167 60.4195 104.63 60.8159 104.235C61.2124 103.839 61.7493 103.616 62.3093 103.615C62.8687 103.618 63.4044 103.841 63.7999 104.236C64.1955 104.632 64.4187 105.168 64.4209 105.727V135.912C64.4209 136.473 64.1987 137.011 63.803 137.408C63.4072 137.806 62.8702 138.03 62.3093 138.032Z" fill="#EBEBEB"/>
<path d="M65.0484 139.257C64.2194 139.255 63.4249 138.924 62.8387 138.338C62.2525 137.752 61.9222 136.958 61.9199 136.129V105.511C61.9222 104.682 62.2525 103.887 62.8387 103.301C63.4249 102.715 64.2194 102.384 65.0484 102.382C65.8774 102.384 66.6718 102.715 67.258 103.301C67.8442 103.887 68.1745 104.682 68.1768 105.511V136.129C68.1745 136.958 67.8442 137.752 67.258 138.338C66.6718 138.924 65.8774 139.255 65.0484 139.257Z" fill="#F5F5F5"/>
<path d="M66.8397 138.032C66.2796 138.031 65.7427 137.809 65.3463 137.413C64.9498 137.017 64.726 136.481 64.7238 135.921V105.727C64.726 105.167 64.9498 104.63 65.3463 104.235C65.7427 103.839 66.2796 103.616 66.8397 103.615C67.399 103.618 67.9348 103.841 68.3303 104.236C68.7258 104.632 68.949 105.168 68.9513 105.727V135.912C68.9513 136.473 68.7291 137.011 68.3333 137.408C67.9376 137.806 67.4005 138.03 66.8397 138.032Z" fill="#EBEBEB"/>
<path d="M69.5917 139.257C68.7627 139.255 67.9683 138.924 67.3821 138.338C66.7959 137.752 66.4655 136.958 66.4633 136.129V105.511C66.4655 104.682 66.7959 103.887 67.3821 103.301C67.9683 102.715 68.7627 102.384 69.5917 102.382C70.4203 102.384 71.2143 102.715 71.7998 103.301C72.3853 103.888 72.7147 104.682 72.7158 105.511V136.129C72.7147 136.957 72.3853 137.752 71.7998 138.338C71.2143 138.924 70.4203 139.255 69.5917 139.257Z" fill="#F5F5F5"/>
<path d="M71.3961 138.032C70.8368 138.03 70.301 137.807 69.9055 137.411C69.51 137.016 69.2868 136.48 69.2845 135.921V105.727C69.2868 105.168 69.51 104.632 69.9055 104.236C70.301 103.841 70.8368 103.618 71.3961 103.615C71.9562 103.616 72.493 103.839 72.8895 104.235C73.2859 104.63 73.5097 105.167 73.512 105.727V135.912C73.512 136.474 73.2892 137.012 72.8925 137.41C72.4958 137.807 71.9577 138.031 71.3961 138.032Z" fill="#EBEBEB"/>
<path d="M74.1351 139.257C73.3061 139.255 72.5117 138.924 71.9255 138.338C71.3393 137.752 71.0089 136.958 71.0067 136.129V105.511C71.0089 104.682 71.3393 103.887 71.9255 103.301C72.5117 102.715 73.3061 102.384 74.1351 102.382C74.9637 102.384 75.7577 102.715 76.3432 103.301C76.9287 103.888 77.2581 104.682 77.2592 105.511V136.129C77.2581 136.957 76.9287 137.752 76.3432 138.338C75.7577 138.924 74.9637 139.255 74.1351 139.257Z" fill="#F5F5F5"/>
<path d="M77.9689 133.77H68.7955C68.4132 133.77 68.1032 134.08 68.1032 134.463C68.1032 134.845 68.4132 135.155 68.7955 135.155H77.9689C78.3512 135.155 78.6612 134.845 78.6612 134.463C78.6612 134.08 78.3512 133.77 77.9689 133.77Z" fill="#F5F5F5"/>
<path d="M77.9689 108.773H68.7999C68.709 108.773 68.619 108.755 68.535 108.72C68.451 108.686 68.3747 108.635 68.3104 108.57C68.2461 108.506 68.1951 108.43 68.1603 108.346C68.1255 108.262 68.1076 108.172 68.1076 108.081C68.1076 107.99 68.1255 107.9 68.1603 107.816C68.1951 107.732 68.2461 107.655 68.3104 107.591C68.3747 107.527 68.451 107.476 68.535 107.441C68.619 107.406 68.709 107.388 68.7999 107.388H77.9732C78.0642 107.388 78.1542 107.406 78.2382 107.441C78.3222 107.476 78.3985 107.527 78.4628 107.591C78.5271 107.655 78.5781 107.732 78.6129 107.816C78.6477 107.9 78.6656 107.99 78.6656 108.081C78.6656 108.172 78.6475 108.262 78.6125 108.347C78.5774 108.431 78.526 108.507 78.4613 108.572C78.3965 108.636 78.3197 108.687 78.2352 108.722C78.1507 108.756 78.0602 108.774 77.9689 108.773Z" fill="#F5F5F5"/>
<path d="M108.176 161.208C154.511 161.208 192.073 159.015 192.073 156.31C192.073 153.605 154.511 151.412 108.176 151.412C61.8409 151.412 24.279 153.605 24.279 156.31C24.279 159.015 61.8409 161.208 108.176 161.208Z" fill="#F5F5F5"/>
<path d="M177.335 83.7974H73.9188C73.3649 83.8031 72.8159 83.6938 72.3065 83.4764C71.797 83.2589 71.3383 82.9382 70.9592 82.5343C70.5802 82.1304 70.289 81.6523 70.1043 81.1301C69.9196 80.6079 69.8452 80.0531 69.886 79.5007L73.6765 18.4549C73.7637 17.2977 74.2804 16.215 75.125 15.4192C75.9696 14.6234 77.0812 14.1721 78.2415 14.1538H181.658C182.212 14.1487 182.761 14.2586 183.27 14.4765C183.78 14.6944 184.238 15.0156 184.617 15.4198C184.996 15.824 185.287 16.3024 185.472 16.8248C185.657 17.3472 185.731 17.9023 185.69 18.4549L181.9 79.5007C181.812 80.6571 181.295 81.7388 180.45 82.5336C179.606 83.3285 178.495 83.7792 177.335 83.7974Z" fill="#042b62"/>
<path opacity="0.8" d="M177.335 83.7974H73.9188C73.3649 83.8031 72.8159 83.6938 72.3065 83.4764C71.797 83.2589 71.3383 82.9382 70.9592 82.5343C70.5802 82.1304 70.289 81.6523 70.1043 81.1301C69.9196 80.6079 69.8452 80.0531 69.886 79.5007L73.6765 18.4549C73.7637 17.2977 74.2804 16.215 75.125 15.4192C75.9696 14.6234 77.0812 14.1721 78.2415 14.1538H181.658C182.212 14.1487 182.761 14.2586 183.27 14.4765C183.78 14.6944 184.238 15.0156 184.617 15.4198C184.996 15.824 185.287 16.3024 185.472 16.8248C185.657 17.3472 185.731 17.9023 185.69 18.4549L181.9 79.5007C181.812 80.6571 181.295 81.7388 180.45 82.5336C179.606 83.3285 178.495 83.7792 177.335 83.7974Z" fill="white"/>
<path opacity="0.4" d="M87.1725 31.7432H74.8578C74.7008 31.7455 74.5451 31.715 74.4006 31.6537C74.256 31.5924 74.1259 31.5017 74.0184 31.3873C73.9109 31.2729 73.8284 31.1373 73.7763 30.9892C73.7241 30.8412 73.7034 30.6838 73.7154 30.5273L74.0659 24.9022C74.0858 24.5716 74.2313 24.2611 74.4726 24.0342C74.7139 23.8074 75.0328 23.6814 75.364 23.6819H87.6788L87.1725 31.7432Z" fill="white"/>
<path d="M181.593 15.2312H91.4217C90.5501 15.239 89.7136 15.5752 89.0791 16.1728C88.4446 16.7704 88.0589 17.5853 87.999 18.4549L87.1336 32.4615H74.8145C74.4833 32.4609 74.1644 32.5869 73.9231 32.8137C73.6818 33.0406 73.5363 33.3511 73.5164 33.6817L73.1919 38.9607C73.1792 39.1176 73.1995 39.2754 73.2513 39.4239C73.3032 39.5725 73.3856 39.7086 73.4931 39.8235C73.6007 39.9384 73.7311 40.0295 73.8759 40.0911C74.0208 40.1526 74.1769 40.1832 74.3342 40.1809H86.649L84.2085 79.5007C84.1766 79.9157 84.2316 80.3328 84.3699 80.7254C84.5082 81.118 84.7268 81.4774 85.0119 81.7807C85.2969 82.084 85.642 82.3246 86.0252 82.4871C86.4084 82.6496 86.8213 82.7304 87.2375 82.7243H177.409C178.28 82.7166 179.117 82.3803 179.751 81.7828C180.386 81.1852 180.771 80.3702 180.831 79.5007L184.622 18.4549C184.654 18.0397 184.6 17.6223 184.462 17.2295C184.324 16.8366 184.105 16.4769 183.82 16.1734C183.535 15.8699 183.189 15.6294 182.806 15.4671C182.422 15.3049 182.009 15.2245 181.593 15.2312Z" fill="white"/>
<path opacity="0.4" d="M86.1081 48.6186H73.8106C73.6531 48.6209 73.4968 48.5903 73.3518 48.5288C73.2067 48.4673 73.0761 48.3762 72.9682 48.2614C72.8603 48.1466 72.7775 48.0105 72.7251 47.8619C72.6728 47.7133 72.6519 47.5555 72.664 47.3984L72.9928 42.1194C73.0127 41.7888 73.1582 41.4783 73.3995 41.2514C73.6408 41.0246 73.9597 40.8986 74.2909 40.8992H86.6057L86.1081 48.6186Z" fill="white"/>
<path opacity="0.4" d="M85.6018 57.0563H73.2871C73.1295 57.0586 72.9733 57.028 72.8282 56.9665C72.6832 56.905 72.5525 56.8139 72.4446 56.6991C72.3367 56.5843 72.2539 56.4483 72.2016 56.2997C72.1492 56.1511 72.1284 55.9932 72.1404 55.8361L72.4693 50.5528C72.4902 50.223 72.6361 49.9135 72.8774 49.6876C73.1186 49.4617 73.4369 49.3363 73.7674 49.3369H86.0821L85.6018 57.0563Z" fill="white"/>
<path opacity="0.4" d="M85.0783 65.4941H72.7635C72.6062 65.4957 72.4502 65.4647 72.3055 65.4029C72.1607 65.3412 72.0304 65.2501 71.9226 65.1354C71.8148 65.0208 71.732 64.885 71.6794 64.7367C71.6268 64.5884 71.6055 64.4308 71.6169 64.2739L71.9457 58.9906C71.9706 58.6618 72.1176 58.3542 72.3578 58.1283C72.5981 57.9025 72.9141 57.7748 73.2438 57.7703H85.5586L85.0783 65.4941Z" fill="white"/>
<path opacity="0.4" d="M84.5547 73.9275H72.2615C72.101 73.933 71.9412 73.9044 71.7925 73.8435C71.6439 73.7826 71.5099 73.6908 71.3995 73.5742C71.289 73.4576 71.2046 73.3188 71.1518 73.1671C71.099 73.0154 71.079 72.8543 71.0932 72.6943L71.4221 67.4153C71.442 67.0847 71.5875 66.7742 71.8288 66.5473C72.0701 66.3205 72.389 66.1945 72.7202 66.1951H85.0393L84.5547 73.9275Z" fill="white"/>
<path opacity="0.2" d="M74.6976 39.1987C74.6289 39.2002 74.5606 39.1871 74.4972 39.1604C74.4338 39.1338 74.3768 39.094 74.3299 39.0438C74.2829 38.9935 74.2471 38.934 74.2247 38.869C74.2023 38.8039 74.1939 38.7349 74.2 38.6665L74.4856 34.0322C74.4984 33.8744 74.5691 33.727 74.6842 33.6184C74.7992 33.5097 74.9504 33.4475 75.1087 33.4437H85.5455C85.6142 33.4422 85.6825 33.4553 85.7459 33.482C85.8092 33.5086 85.8663 33.5484 85.9132 33.5986C85.9602 33.6489 85.996 33.7084 86.0184 33.7734C86.0408 33.8385 86.0492 33.9075 86.0431 33.9759L85.7575 38.6145C85.7437 38.7715 85.6725 38.9179 85.5576 39.0256C85.4426 39.1334 85.2919 39.195 85.1344 39.1987H74.6976Z" fill="#042b62"/>
<path opacity="0.3" d="M109.474 22.5006H94.5761C94.3093 22.5025 94.045 22.4492 93.7998 22.3439C93.5546 22.2387 93.3338 22.0839 93.1513 21.8893C92.9689 21.6946 92.8286 21.4643 92.7395 21.2128C92.6503 20.9613 92.6142 20.6941 92.6333 20.428C92.6753 19.871 92.9242 19.35 93.331 18.9673C93.7377 18.5845 94.2729 18.3678 94.8314 18.3596H109.721C109.987 18.3572 110.252 18.4099 110.497 18.5147C110.742 18.6194 110.963 18.7738 111.145 18.9681C111.328 19.1625 111.468 19.3925 111.557 19.6438C111.647 19.895 111.683 20.162 111.664 20.428C111.621 20.9835 111.373 21.5033 110.968 21.8863C110.564 22.2694 110.031 22.4883 109.474 22.5006Z" fill="#042b62"/>
<path d="M180.437 20.4323C180.396 20.99 180.148 21.5121 179.741 21.8957C179.334 22.2794 178.798 22.4967 178.239 22.5049C177.972 22.5075 177.708 22.4546 177.462 22.3496C177.217 22.2446 176.996 22.0898 176.813 21.895C176.63 21.7002 176.49 21.4696 176.401 21.2178C176.312 20.966 176.277 20.6986 176.296 20.4323C176.338 19.875 176.586 19.3534 176.993 18.9705C177.4 18.5875 177.936 18.3711 178.495 18.364C178.761 18.3608 179.026 18.4132 179.271 18.5177C179.517 18.6222 179.738 18.7766 179.921 18.971C180.103 19.1655 180.244 19.3958 180.333 19.6474C180.422 19.8989 180.457 20.1662 180.437 20.4323Z" fill="#042b62"/>
<path opacity="0.4" d="M138.262 57.9131H94.3294C93.8002 57.9187 93.2755 57.8144 92.7887 57.6066C92.3019 57.3989 91.8636 57.0922 91.5015 56.7062C91.1394 56.3201 90.8615 55.863 90.6854 55.3639C90.5093 54.8648 90.4388 54.3345 90.4784 53.8067L91.7981 32.4528C91.8792 31.3478 92.3718 30.3134 93.1786 29.5539C93.9853 28.7944 95.0475 28.3651 96.1554 28.3507H140.101C140.63 28.3444 141.154 28.4482 141.641 28.6555C142.127 28.8628 142.565 29.1691 142.927 29.5549C143.289 29.9407 143.567 30.3976 143.742 30.8965C143.918 31.3954 143.988 31.9254 143.948 32.4528L142.623 53.8024C142.541 54.9086 142.048 55.944 141.241 56.7048C140.434 57.4656 139.371 57.8966 138.262 57.9131ZM96.1424 28.5325C95.0829 28.5469 94.0672 28.958 93.2958 29.6845C92.5244 30.411 92.0533 31.4003 91.9755 32.4571L90.6514 53.8067C90.613 54.3114 90.68 54.8186 90.8482 55.296C91.0164 55.7735 91.2821 56.2106 91.6285 56.5798C91.9748 56.9489 92.3942 57.2419 92.8599 57.4402C93.3257 57.6384 93.8276 57.7376 94.3337 57.7313H138.275C139.334 57.7169 140.35 57.3058 141.121 56.5793C141.893 55.8528 142.364 54.8635 142.442 53.8067L143.77 32.4528C143.808 31.9482 143.74 31.4413 143.572 30.9641C143.404 30.487 143.138 30.0501 142.792 29.6811C142.445 29.3121 142.026 29.0191 141.561 28.8206C141.095 28.6221 140.594 28.5225 140.088 28.5281L96.1424 28.5325Z" fill="#042b62"/>
<path d="M99.6646 42.5521L105.969 46.6325C107.233 44.7878 108.912 43.2657 110.872 42.1887L107.484 35.4818C104.362 37.1969 101.684 39.6182 99.6646 42.5521Z" fill="#042b62"/>
<path opacity="0.8" d="M99.6646 42.5521L105.969 46.6325C107.233 44.7878 108.912 43.2657 110.872 42.1887L107.484 35.4818C104.362 37.1969 101.684 39.6182 99.6646 42.5521Z" fill="white"/>
<path d="M95.8655 53.4822H103.585C103.747 51.0256 104.571 48.6586 105.969 46.6325L99.6647 42.5521C97.4349 45.7857 96.122 49.5627 95.8655 53.4822Z" fill="#263238"/>
<path d="M117.851 32.7817C114.218 32.7894 110.646 33.7152 107.466 35.4731L110.854 42.1887C112.843 41.0926 115.074 40.5138 117.345 40.5054C119.019 40.4843 120.679 40.812 122.219 41.4676C123.759 42.1233 125.146 43.0926 126.291 44.3138C127.436 45.535 128.315 46.9813 128.87 48.5606C129.425 50.1398 129.646 51.8174 129.517 53.4865H137.236C137.981 42.0502 129.287 32.7817 117.851 32.7817Z" fill="#042b62"/>
<path d="M112.84 65.771H90.2101C90.1595 65.7712 90.1095 65.7609 90.0631 65.7408C90.0167 65.7207 89.9749 65.6913 89.9404 65.6543C89.9059 65.6174 89.8793 65.5737 89.8625 65.526C89.8456 65.4784 89.8387 65.4277 89.8423 65.3773L89.9418 63.7849C89.9516 63.6771 90.0014 63.5768 90.0815 63.5039C90.1616 63.4309 90.2662 63.3907 90.3745 63.3912H113.005L112.84 65.771Z" fill="#042b62"/>
<path opacity="0.2" d="M112.841 65.771H141.399C141.507 65.7715 141.612 65.7313 141.692 65.6584C141.772 65.5855 141.822 65.4852 141.832 65.3773L141.931 63.7849C141.935 63.7345 141.928 63.6839 141.911 63.6362C141.894 63.5885 141.868 63.5449 141.833 63.5079C141.799 63.471 141.757 63.4415 141.71 63.4214C141.664 63.4013 141.614 63.391 141.563 63.3912H113.005L112.841 65.771Z" fill="#042b62"/>
<path d="M128.21 72.0496H89.8206C89.7699 72.0503 89.7195 72.0405 89.6728 72.0206C89.6261 72.0008 89.584 71.9713 89.5494 71.9342C89.5147 71.8971 89.4882 71.8532 89.4716 71.8052C89.455 71.7573 89.4486 71.7064 89.4528 71.6558L89.5523 70.0678C89.5621 69.9599 89.6119 69.8596 89.692 69.7867C89.7722 69.7138 89.8767 69.6736 89.985 69.674H128.374L128.21 72.0496Z" fill="#042b62"/>
<path opacity="0.2" d="M128.21 72.0495H141.01C141.118 72.05 141.222 72.0098 141.303 71.9369C141.383 71.864 141.432 71.7637 141.442 71.6558L141.542 70.0677C141.546 70.0172 141.54 69.9663 141.523 69.9183C141.506 69.8704 141.48 69.8264 141.445 69.7893C141.411 69.7522 141.368 69.7228 141.322 69.7029C141.275 69.6831 141.225 69.6732 141.174 69.674H128.357L128.21 72.0495Z" fill="#042b62"/>
<path d="M93.94 78.3194H89.4313C89.3807 78.3195 89.3307 78.3092 89.2843 78.2891C89.2379 78.269 89.1961 78.2396 89.1616 78.2026C89.1271 78.1657 89.1005 78.122 89.0837 78.0744C89.0668 78.0267 89.0599 77.9761 89.0635 77.9256L89.163 76.3333C89.1727 76.2254 89.2226 76.1251 89.3027 76.0522C89.3828 75.9793 89.4874 75.9391 89.5957 75.9395H94.1045L93.94 78.3194Z" fill="#042b62"/>
<path opacity="0.2" d="M93.94 78.3194H140.629C140.737 78.3198 140.842 78.2796 140.922 78.2067C141.002 78.1338 141.052 78.0335 141.061 77.9256L141.161 76.3333C141.165 76.2824 141.158 76.2314 141.14 76.1835C141.123 76.1355 141.096 76.0916 141.061 76.0546C141.026 76.0176 140.984 75.9883 140.937 75.9684C140.89 75.9486 140.84 75.9388 140.789 75.9395H94.0871L93.94 78.3194Z" fill="#042b62"/>
<path d="M150.914 78.5141C150.891 78.5148 150.868 78.5106 150.847 78.5018C150.825 78.4931 150.806 78.4799 150.79 78.4631C150.774 78.4464 150.762 78.4265 150.754 78.4047C150.747 78.3829 150.744 78.3598 150.745 78.3367L153.844 28.4417C153.847 28.3935 153.868 28.3483 153.904 28.3154C153.939 28.2824 153.986 28.2642 154.034 28.2643C154.057 28.2642 154.079 28.2689 154.1 28.2779C154.121 28.287 154.14 28.3003 154.155 28.3169C154.17 28.3336 154.182 28.3533 154.19 28.3748C154.197 28.3962 154.2 28.419 154.198 28.4417L151.1 78.3194C151.101 78.3444 151.096 78.3693 151.087 78.3926C151.078 78.4159 151.065 78.4373 151.048 78.4553C151.03 78.4734 151.01 78.4879 150.987 78.498C150.964 78.5081 150.939 78.5136 150.914 78.5141Z" fill="#042b62"/>
<path d="M154.402 41.5136C154.376 41.8344 154.232 42.1343 153.998 42.3549C153.764 42.5756 153.456 42.7014 153.134 42.7079C152.98 42.7095 152.827 42.6791 152.686 42.6187C152.544 42.5583 152.417 42.4691 152.311 42.3568C152.206 42.2446 152.125 42.1117 152.074 41.9665C152.022 41.8214 152.002 41.6671 152.013 41.5136C152.039 41.1921 152.183 40.8916 152.419 40.6709C152.654 40.4501 152.963 40.3248 153.285 40.3193C153.439 40.317 153.592 40.3469 153.734 40.4072C153.875 40.4674 154.003 40.5566 154.108 40.6691C154.213 40.7816 154.294 40.9149 154.344 41.0603C154.395 41.2057 154.414 41.3602 154.402 41.5136Z" fill="white"/>
<path d="M153.125 42.8853C152.948 42.8856 152.773 42.8497 152.611 42.78C152.448 42.7102 152.302 42.6079 152.18 42.4795C152.059 42.351 151.965 42.1991 151.904 42.033C151.843 41.8669 151.817 41.6902 151.827 41.5136C151.854 41.1435 152.019 40.7969 152.289 40.5422C152.559 40.2875 152.914 40.1431 153.285 40.1376C153.462 40.1373 153.638 40.1733 153.801 40.2433C153.963 40.3134 154.11 40.416 154.232 40.545C154.353 40.6739 154.447 40.8263 154.508 40.9929C154.568 41.1595 154.594 41.3367 154.583 41.5136C154.556 41.8834 154.391 42.2295 154.121 42.4835C153.851 42.7375 153.496 42.8809 153.125 42.8853ZM153.272 40.4968C152.998 40.5004 152.735 40.607 152.535 40.7953C152.336 40.9836 152.214 41.24 152.195 41.5136C152.185 41.6439 152.203 41.7748 152.246 41.898C152.29 42.0211 152.359 42.1339 152.448 42.2291C152.538 42.3243 152.646 42.3998 152.766 42.451C152.887 42.5021 153.016 42.5277 153.147 42.5262C153.42 42.5226 153.683 42.4167 153.882 42.2293C154.082 42.0419 154.204 41.7865 154.224 41.5136C154.234 41.383 154.217 41.2516 154.174 41.128C154.131 41.0043 154.062 40.891 153.972 40.7953C153.883 40.6997 153.774 40.6237 153.654 40.5723C153.533 40.5209 153.403 40.4952 153.272 40.4968Z" fill="#042b62"/>
<path d="M153.735 52.262C153.71 52.5828 153.566 52.8827 153.331 53.1033C153.097 53.324 152.789 53.4498 152.467 53.4563C152.313 53.4579 152.161 53.4275 152.019 53.3671C151.878 53.3067 151.75 53.2175 151.645 53.1053C151.539 52.993 151.459 52.8601 151.407 52.7149C151.356 52.5698 151.335 52.4155 151.347 52.262C151.37 51.9397 151.513 51.6377 151.748 51.4152C151.982 51.1928 152.291 51.0658 152.615 51.0591C152.769 51.0567 152.923 51.0868 153.066 51.1476C153.208 51.2083 153.337 51.2982 153.442 51.4116C153.548 51.525 153.628 51.6592 153.679 51.8057C153.729 51.9522 153.749 52.1076 153.735 52.262Z" fill="white"/>
<path d="M152.459 53.6553C152.282 53.6556 152.107 53.6198 151.945 53.55C151.782 53.4802 151.636 53.3779 151.514 53.2495C151.392 53.121 151.298 52.9691 151.238 52.803C151.177 52.637 151.151 52.4602 151.161 52.2837C151.188 51.9135 151.352 51.5669 151.622 51.3122C151.892 51.0575 152.248 50.9132 152.619 50.9077C152.796 50.9073 152.972 50.9433 153.134 51.0134C153.297 51.0834 153.444 51.1861 153.566 51.315C153.687 51.4439 153.781 51.5963 153.842 51.7629C153.902 51.9295 153.928 52.1067 153.917 52.2837C153.89 52.6534 153.725 52.9995 153.455 53.2535C153.185 53.5075 152.83 53.6509 152.459 53.6553ZM152.606 51.2668C152.332 51.2704 152.069 51.377 151.869 51.5653C151.67 51.7536 151.548 52.01 151.529 52.2837C151.518 52.4141 151.535 52.5453 151.579 52.6687C151.622 52.7922 151.691 52.9052 151.781 53.0005C151.87 53.0959 151.979 53.1714 152.099 53.2223C152.22 53.2732 152.35 53.2984 152.481 53.2962C152.754 53.2926 153.017 53.1867 153.216 52.9993C153.415 52.8119 153.537 52.5566 153.558 52.2837C153.571 52.1513 153.557 52.0176 153.515 51.8913C153.473 51.765 153.405 51.649 153.315 51.551C153.225 51.4529 153.115 51.3749 152.993 51.3222C152.871 51.2695 152.739 51.2433 152.606 51.2452V51.2668Z" fill="#042b62"/>
<path d="M152.217 57.4891L150.637 59.9598H153.493L152.217 57.4891Z" fill="white"/>
<path d="M153.48 60.1458H150.624C150.594 60.1458 150.565 60.1377 150.539 60.1225C150.513 60.1073 150.492 60.0855 150.477 60.0593C150.461 60.0317 150.453 60.0003 150.453 59.9684C150.453 59.9365 150.461 59.9052 150.477 59.8776L152.061 57.4068C152.077 57.3809 152.1 57.3596 152.127 57.3448C152.154 57.33 152.184 57.3222 152.214 57.3222C152.245 57.3222 152.275 57.33 152.302 57.3448C152.329 57.3596 152.352 57.3809 152.368 57.4068L153.666 59.8776C153.679 59.9065 153.685 59.9382 153.682 59.9699C153.68 60.0015 153.67 60.032 153.652 60.0587C153.635 60.0853 153.612 60.1073 153.584 60.1225C153.556 60.1377 153.525 60.1457 153.493 60.1458H153.48ZM150.957 59.791H153.177L152.182 57.8525L150.957 59.791Z" fill="#042b62"/>
<path d="M172.411 78.5142C172.388 78.5148 172.365 78.5107 172.343 78.5019C172.322 78.4931 172.303 78.4799 172.287 78.4631C172.271 78.4464 172.259 78.4265 172.251 78.4047C172.243 78.3829 172.24 78.3598 172.242 78.3368L175.34 28.4417C175.343 28.3935 175.365 28.3483 175.4 28.3154C175.436 28.2824 175.482 28.2642 175.531 28.2643C175.554 28.2636 175.577 28.2678 175.598 28.2766C175.619 28.2854 175.639 28.2986 175.655 28.3153C175.67 28.3321 175.683 28.352 175.69 28.3737C175.698 28.3955 175.701 28.4187 175.699 28.4417L172.601 78.3195C172.601 78.3704 172.581 78.4192 172.546 78.4556C172.51 78.492 172.462 78.513 172.411 78.5142Z" fill="#042b62"/>
<path d="M174.669 61.3185C174.681 61.1652 174.661 61.011 174.611 60.8659C174.56 60.7207 174.479 60.5878 174.374 60.4754C174.269 60.3631 174.142 60.2738 174.001 60.2134C173.859 60.1529 173.707 60.1225 173.553 60.1242C173.231 60.1296 172.922 60.2549 172.686 60.4757C172.451 60.6965 172.307 60.9969 172.281 61.3185C172.269 61.472 172.29 61.6262 172.341 61.7714C172.393 61.9165 172.474 62.0494 172.579 62.1617C172.684 62.274 172.812 62.3631 172.953 62.4236C173.095 62.484 173.248 62.5144 173.402 62.5127C173.723 62.5063 174.031 62.3805 174.266 62.1598C174.5 61.9391 174.644 61.6393 174.669 61.3185Z" fill="white"/>
<path d="M173.393 62.6902C173.216 62.6905 173.041 62.6546 172.879 62.5848C172.716 62.515 172.57 62.4128 172.448 62.2843C172.327 62.1559 172.233 62.004 172.172 61.8379C172.111 61.6718 172.085 61.4951 172.095 61.3185C172.122 60.9488 172.287 60.6027 172.557 60.3487C172.827 60.0947 173.182 59.9513 173.553 59.9468C173.73 59.9466 173.905 59.9824 174.067 60.0522C174.23 60.122 174.377 60.2242 174.498 60.3527C174.62 60.4811 174.714 60.633 174.774 60.7991C174.835 60.9652 174.861 61.142 174.851 61.3185C174.824 61.6882 174.659 62.0343 174.389 62.2883C174.119 62.5424 173.764 62.6858 173.393 62.6902ZM173.54 60.3017C173.266 60.3063 173.004 60.4131 172.804 60.6013C172.605 60.7894 172.483 61.0452 172.463 61.3185C172.453 61.449 172.471 61.5801 172.514 61.7035C172.558 61.8269 172.627 61.9399 172.716 62.0354C172.805 62.1309 172.914 62.2069 173.034 62.2585C173.154 62.3102 173.284 62.3363 173.415 62.3354C173.689 62.3307 173.951 62.2239 174.15 62.0358C174.35 61.8476 174.472 61.5918 174.492 61.3185C174.502 61.188 174.484 61.0569 174.44 60.9336C174.397 60.8102 174.328 60.6972 174.239 60.6016C174.149 60.5061 174.041 60.4301 173.921 60.3785C173.801 60.3269 173.671 60.3007 173.54 60.3017Z" fill="#042b62"/>
<path d="M176.34 34.4432C176.352 34.2895 176.332 34.135 176.281 33.9896C176.23 33.8442 176.149 33.711 176.043 33.5986C175.938 33.4862 175.81 33.397 175.668 33.3368C175.526 33.2766 175.373 33.2467 175.219 33.249C174.897 33.2544 174.588 33.3797 174.352 33.6005C174.117 33.8213 173.973 34.1217 173.947 34.4432C173.936 34.5968 173.956 34.751 174.007 34.8961C174.059 35.0413 174.14 35.1742 174.245 35.2865C174.35 35.3987 174.478 35.4879 174.619 35.5483C174.761 35.6087 174.914 35.6391 175.068 35.6375C175.39 35.6321 175.699 35.5068 175.934 35.286C176.169 35.0652 176.314 34.7648 176.34 34.4432Z" fill="white"/>
<path d="M175.059 35.815C174.881 35.8192 174.704 35.786 174.54 35.7175C174.375 35.6491 174.227 35.5469 174.105 35.4176C173.983 35.2883 173.889 35.1348 173.83 34.967C173.77 34.7992 173.747 34.6208 173.761 34.4433C173.788 34.0732 173.952 33.7266 174.222 33.4719C174.492 33.2172 174.848 33.0728 175.219 33.0673C175.396 33.067 175.572 33.103 175.734 33.173C175.897 33.2431 176.044 33.3457 176.166 33.4746C176.287 33.6036 176.381 33.756 176.442 33.9226C176.502 34.0892 176.528 34.2664 176.517 34.4433C176.489 34.8127 176.324 35.1582 176.054 35.412C175.784 35.6658 175.429 35.8096 175.059 35.815ZM175.21 33.4265C174.936 33.4301 174.673 33.5366 174.473 33.725C174.274 33.9133 174.152 34.1697 174.133 34.4433C174.123 34.5738 174.14 34.7049 174.183 34.8284C174.227 34.9518 174.295 35.0649 174.385 35.1602C174.474 35.2555 174.583 35.3311 174.704 35.382C174.824 35.4329 174.954 35.4581 175.085 35.4558C175.358 35.4523 175.621 35.3464 175.82 35.159C176.02 34.9715 176.142 34.7162 176.162 34.4433C176.172 34.3127 176.155 34.1813 176.112 34.0577C176.069 33.934 176 33.8207 175.91 33.725C175.821 33.6294 175.712 33.5534 175.592 33.502C175.471 33.4506 175.341 33.4249 175.21 33.4265Z" fill="#042b62"/>
<path d="M174.224 49.2937L172.952 46.8186H175.803L174.224 49.2937Z" fill="white"/>
<path d="M174.211 49.471C174.18 49.471 174.15 49.4625 174.124 49.4465C174.098 49.4304 174.077 49.4075 174.064 49.3801L172.787 46.9094C172.773 46.8822 172.765 46.8517 172.765 46.8207C172.765 46.7897 172.773 46.7592 172.787 46.732C172.804 46.7045 172.828 46.6818 172.856 46.6659C172.884 46.65 172.915 46.6415 172.947 46.6411H175.803C175.834 46.6408 175.865 46.6491 175.892 46.6652C175.919 46.6812 175.94 46.7043 175.955 46.732C175.969 46.7592 175.977 46.7897 175.977 46.8207C175.977 46.8517 175.969 46.8822 175.955 46.9094L174.38 49.3801C174.361 49.408 174.336 49.4308 174.307 49.4467C174.277 49.4625 174.244 49.4709 174.211 49.471ZM173.25 47.0003L174.245 48.9345L175.483 47.0003H173.25Z" fill="#042b62"/>
<path d="M161.662 78.5142C161.639 78.5149 161.616 78.5107 161.595 78.5019C161.574 78.4931 161.554 78.4799 161.538 78.4631C161.523 78.4464 161.51 78.4265 161.503 78.4047C161.495 78.3829 161.492 78.3598 161.494 78.3368L164.592 28.4417C164.595 28.3935 164.617 28.3484 164.652 28.3154C164.687 28.2825 164.734 28.2642 164.782 28.2643C164.805 28.2636 164.828 28.2677 164.849 28.2766C164.87 28.2854 164.889 28.2987 164.905 28.3155C164.921 28.3323 164.932 28.3523 164.94 28.3741C164.947 28.3958 164.949 28.4189 164.947 28.4417L161.853 78.3195C161.853 78.3704 161.833 78.4192 161.797 78.4556C161.762 78.492 161.713 78.513 161.662 78.5142Z" fill="#042b62"/>
<path d="M164.964 44.5685C164.938 44.8901 164.794 45.1905 164.558 45.4113C164.323 45.6321 164.014 45.7574 163.692 45.7628C163.538 45.7651 163.385 45.7352 163.243 45.675C163.102 45.6147 162.974 45.5255 162.869 45.413C162.764 45.3005 162.683 45.1673 162.633 45.0218C162.582 44.8764 162.563 44.722 162.575 44.5685C162.601 44.2477 162.745 43.9479 162.979 43.7272C163.214 43.5065 163.521 43.3808 163.843 43.3743C163.997 43.3726 164.15 43.403 164.291 43.4634C164.433 43.5239 164.561 43.613 164.666 43.7253C164.771 43.8375 164.852 43.9705 164.903 44.1156C164.955 44.2608 164.975 44.415 164.964 44.5685Z" fill="white"/>
<path d="M163.683 45.9531C163.506 45.9534 163.331 45.9175 163.168 45.8474C163.005 45.7774 162.858 45.6747 162.737 45.5458C162.615 45.4169 162.521 45.2644 162.461 45.0978C162.4 44.9312 162.374 44.754 162.385 44.5771C162.412 44.2074 162.577 43.8613 162.847 43.6073C163.117 43.3533 163.473 43.2099 163.843 43.2054C164.02 43.2052 164.195 43.241 164.358 43.3108C164.52 43.3806 164.667 43.4828 164.788 43.6113C164.91 43.7397 165.004 43.8916 165.065 44.0577C165.125 44.2238 165.151 44.4006 165.141 44.5771C165.114 44.9473 164.95 45.2939 164.68 45.5486C164.41 45.8033 164.054 45.9476 163.683 45.9531ZM163.83 43.5603C163.556 43.5649 163.294 43.6717 163.095 43.8599C162.895 44.048 162.773 44.3038 162.753 44.5771C162.743 44.7076 162.761 44.8387 162.804 44.9621C162.848 45.0855 162.917 45.1985 163.006 45.294C163.096 45.3895 163.204 45.4655 163.324 45.5171C163.444 45.5688 163.574 45.5949 163.705 45.594C163.979 45.5893 164.241 45.4825 164.441 45.2944C164.64 45.1062 164.762 44.8504 164.782 44.5771C164.793 44.4465 164.775 44.3151 164.732 44.1914C164.689 44.0678 164.62 43.9545 164.53 43.8588C164.441 43.7631 164.332 43.6872 164.212 43.6358C164.091 43.5844 163.961 43.5587 163.83 43.5603Z" fill="#042b62"/>
<path d="M163.48 68.4798C163.454 68.8007 163.31 69.1005 163.076 69.3212C162.842 69.5418 162.534 69.6676 162.212 69.6741C162.058 69.6764 161.905 69.6465 161.763 69.5863C161.621 69.5261 161.493 69.4369 161.388 69.3245C161.282 69.2121 161.201 69.0789 161.15 68.9335C161.099 68.788 161.079 68.6335 161.091 68.4798C161.117 68.159 161.261 67.8592 161.495 67.6385C161.729 67.4179 162.037 67.2921 162.359 67.2856C162.513 67.284 162.666 67.3143 162.807 67.3748C162.949 67.4352 163.076 67.5243 163.182 67.6366C163.287 67.7489 163.368 67.8818 163.419 68.0269C163.471 68.1721 163.491 68.3263 163.48 68.4798Z" fill="white"/>
<path d="M162.199 69.8514C162.022 69.8517 161.847 69.8159 161.685 69.7461C161.522 69.6763 161.376 69.574 161.254 69.4456C161.133 69.3172 161.039 69.1652 160.978 68.9991C160.917 68.8331 160.891 68.6563 160.901 68.4798C160.928 68.1096 161.093 67.763 161.363 67.5083C161.633 67.2536 161.988 67.1093 162.359 67.1038C162.536 67.1034 162.712 67.1394 162.875 67.2095C163.037 67.2795 163.184 67.3822 163.306 67.5111C163.427 67.64 163.521 67.7924 163.582 67.959C163.642 68.1256 163.668 68.3028 163.657 68.4798C163.63 68.8495 163.465 69.1956 163.195 69.4496C162.925 69.7036 162.57 69.847 162.199 69.8514ZM162.346 67.4629C162.072 67.4666 161.809 67.5731 161.609 67.7614C161.41 67.9497 161.288 68.2061 161.269 68.4798C161.259 68.6101 161.277 68.7409 161.32 68.8641C161.364 68.9873 161.433 69.1 161.522 69.1952C161.612 69.2904 161.72 69.3659 161.84 69.4171C161.96 69.4682 162.09 69.4938 162.221 69.4923C162.494 69.4887 162.757 69.3828 162.956 69.1954C163.156 69.008 163.278 68.7527 163.298 68.4798C163.308 68.3491 163.291 68.2178 163.248 68.0941C163.205 67.9704 163.136 67.8571 163.046 67.7615C162.957 67.6658 162.848 67.5898 162.728 67.5384C162.607 67.487 162.477 67.4613 162.346 67.4629Z" fill="#042b62"/>
<path d="M164.626 30.774L163.043 33.249H165.899L164.626 30.774Z" fill="white"/>
<path d="M165.886 33.4264H163.034C163.003 33.4267 162.972 33.4184 162.946 33.4024C162.919 33.3863 162.897 33.3632 162.883 33.3355C162.868 33.3083 162.86 33.2778 162.86 33.2468C162.86 33.2159 162.868 33.1854 162.883 33.1581L164.462 30.6874C164.479 30.6615 164.502 30.6402 164.529 30.6255C164.557 30.6108 164.587 30.6031 164.618 30.6031C164.649 30.6031 164.679 30.6108 164.706 30.6255C164.734 30.6402 164.757 30.6615 164.774 30.6874L166.046 33.1581C166.062 33.185 166.07 33.2156 166.07 33.2468C166.07 33.2781 166.062 33.3087 166.046 33.3355C166.028 33.3622 166.004 33.3843 165.977 33.4001C165.949 33.4159 165.918 33.4249 165.886 33.4264ZM163.367 33.0673H165.6L164.601 31.1547L163.367 33.0673Z" fill="#042b62"/>
<path d="M48.2638 43.6208L47.8311 45.728L47.3984 47.8915C47.1128 49.3281 46.8705 50.7647 46.6498 52.1753C46.5373 52.8806 46.4507 53.5773 46.3772 54.2653C46.3036 54.9533 46.2387 55.6196 46.2041 56.2644C46.1741 56.8525 46.1741 57.4417 46.2041 58.0298C46.2041 58.5361 46.3166 58.9688 46.295 59.0164L46.0051 58.5187C45.8753 58.3889 45.6373 58.2678 45.5983 58.324C45.5594 58.3803 45.7108 58.4798 45.9878 58.5534C46.3442 58.6378 46.7079 58.6885 47.0738 58.7048C47.5386 58.7184 48.0037 58.7069 48.4671 58.6702C49.5172 58.5839 50.5616 58.4395 51.5956 58.2375C52.1365 58.1336 52.686 58.0255 53.2312 57.9043L54.8495 57.5538L55.0659 57.5062C55.5726 57.3978 56.1011 57.4659 56.5637 57.6992C57.0264 57.9324 57.3954 58.3168 57.6096 58.7886C57.8238 59.2604 57.8702 59.7913 57.7413 60.2931C57.6123 60.7949 57.3157 61.2376 56.9005 61.5477L56.0914 62.1448L55.2952 62.69C54.75 63.0362 54.2005 63.3737 53.6293 63.6852C52.457 64.3319 51.2325 64.879 49.9686 65.3209C49.2785 65.5528 48.5747 65.7421 47.8614 65.8877C47.0515 66.0543 46.226 66.1327 45.3993 66.1213C44.3632 66.1095 43.3375 65.9132 42.3704 65.5415C41.1233 65.0431 40.0431 64.2014 39.2549 63.1141C39.1717 62.9951 39.0965 62.8708 39.0299 62.7419L38.965 62.6165C38.4253 61.5246 38.0533 60.3576 37.8616 59.1548C37.702 58.2077 37.6095 57.2505 37.5847 56.2903C37.5529 55.3874 37.5529 54.5076 37.5847 53.6508C37.6164 52.7941 37.6755 51.9503 37.7621 51.1195C37.9092 49.4579 38.1558 47.8396 38.4371 46.2343C38.5842 45.4338 38.7313 44.6376 38.9131 43.8458C38.9996 43.4477 39.0861 43.0496 39.1857 42.6515L39.5059 41.427C39.805 40.2864 40.5371 39.3075 41.5465 38.6981C42.5559 38.0887 43.7631 37.8968 44.9118 38.1633C46.0604 38.4297 47.0598 39.1335 47.6979 40.1251C48.3359 41.1166 48.5622 42.3179 48.3287 43.4736L48.2638 43.6208Z" fill="#042b62"/>
<path opacity="0.2" d="M48.2638 43.6208L47.8311 45.728L47.3984 47.8915C47.1128 49.3281 46.8705 50.7647 46.6498 52.1753C46.5373 52.8806 46.4507 53.5773 46.3772 54.2653C46.3036 54.9533 46.2387 55.6196 46.2041 56.2644C46.1741 56.8525 46.1741 57.4417 46.2041 58.0298C46.2041 58.5361 46.3166 58.9688 46.295 59.0164L46.0051 58.5187C45.8753 58.3889 45.6373 58.2678 45.5983 58.324C45.5594 58.3803 45.7108 58.4798 45.9878 58.5534C46.3442 58.6378 46.7079 58.6885 47.0738 58.7048C47.5386 58.7184 48.0037 58.7069 48.4671 58.6702C49.5172 58.5839 50.5616 58.4395 51.5956 58.2375C52.1365 58.1336 52.686 58.0255 53.2312 57.9043L54.8495 57.5538L55.0659 57.5062C55.5726 57.3978 56.1011 57.4659 56.5637 57.6992C57.0264 57.9324 57.3954 58.3168 57.6096 58.7886C57.8238 59.2604 57.8702 59.7913 57.7413 60.2931C57.6123 60.7949 57.3157 61.2376 56.9005 61.5477L56.0914 62.1448L55.2952 62.69C54.75 63.0362 54.2005 63.3737 53.6293 63.6852C52.457 64.3319 51.2325 64.879 49.9686 65.3209C49.2785 65.5528 48.5747 65.7421 47.8614 65.8877C47.0515 66.0543 46.226 66.1327 45.3993 66.1213C44.3632 66.1095 43.3375 65.9132 42.3704 65.5415C41.1233 65.0431 40.0431 64.2014 39.2549 63.1141C39.1717 62.9951 39.0965 62.8708 39.0299 62.7419L38.965 62.6165C38.4253 61.5246 38.0533 60.3576 37.8616 59.1548C37.702 58.2077 37.6095 57.2505 37.5847 56.2903C37.5529 55.3874 37.5529 54.5076 37.5847 53.6508C37.6164 52.7941 37.6755 51.9503 37.7621 51.1195C37.9092 49.4579 38.1558 47.8396 38.4371 46.2343C38.5842 45.4338 38.7313 44.6376 38.9131 43.8458C38.9996 43.4477 39.0861 43.0496 39.1857 42.6515L39.5059 41.427C39.805 40.2864 40.5371 39.3075 41.5465 38.6981C42.5559 38.0887 43.7631 37.8968 44.9118 38.1633C46.0604 38.4297 47.0598 39.1335 47.6979 40.1251C48.3359 41.1166 48.5622 42.3179 48.3287 43.4736L48.2638 43.6208Z" fill="black"/>
<path d="M37.312 154.293C37.312 154.293 33.2187 150.581 33.3182 149.404L29.9171 147.673L27.8921 151.169L29.77 152.221L30.2893 152.052L30.6311 152.645C32.3273 153.51 36.0312 155.202 37.325 155.154C37.4018 155.023 37.4411 154.874 37.4388 154.722C37.4365 154.57 37.3927 154.422 37.312 154.293Z" fill="#263238"/>
<path d="M37.6063 110.608C40.0814 92.8668 39.2722 82.1054 41.8728 73.3692L57.9694 72.071C57.9694 72.071 50.8341 100.197 47.5845 111.906C44.3349 123.615 34.0711 150.165 34.0711 150.165L29.5927 147.872C29.5927 147.872 33.249 124.324 37.6063 110.608Z" fill="#263238"/>
<path opacity="0.2" d="M50.7345 85.1863C49.6398 87.7176 47.5022 103.974 47.5109 112.092C47.5109 112.036 47.5455 111.971 47.5628 111.91C48.7095 107.795 50.3408 101.646 51.9677 95.4111L50.7345 85.1863Z" fill="black"/>
<path d="M63.1748 154.873C63.1748 154.873 56.4982 153.359 56.191 152.277H51.9548L51.6043 156.314H53.9582L54.3909 155.942L54.9188 156.314C56.8227 156.314 62.3267 156.314 63.5123 155.622C63.521 155.007 63.1748 154.873 63.1748 154.873Z" fill="#263238"/>
<path d="M51.8683 111.105C48.3331 87.0858 48.3331 72.2138 48.3331 72.2138L64.0835 71.9585C64.0835 71.9585 62.1926 100.603 61.5349 112.602C60.8555 125.077 56.9612 152.537 56.9612 152.537H51.4918C51.4918 152.537 50.1937 126.531 51.8683 111.105Z" fill="#263238"/>
<path d="M50.159 27.1174C49.4104 31.8296 48.0517 34.3566 47.1301 36.6975C48.7181 38.1773 52.1191 40.0077 55.5505 39.9601C58.9818 39.9125 58.3587 37.5889 57.4371 36.3903C54.975 35.1484 54.8798 33.8936 55.4812 32.7945L50.159 27.1174Z" fill="#FFC3BD"/>
<path d="M44.2743 37.3638C44.2743 37.3638 46.4638 34.7892 47.3292 34.3565C48.1946 33.9238 54.7414 34.7892 56.2861 35.1008C57.8309 35.4123 59.7132 37.697 59.7132 37.697L44.2743 37.3638Z" fill="#263238"/>
<path d="M61.0112 26.7236C60.942 27.0351 61.0502 27.3207 61.2535 27.364C61.4569 27.4073 61.6862 27.1909 61.7468 26.8794C61.8074 26.5678 61.7079 26.2822 61.5045 26.239C61.3011 26.1957 61.0718 26.3947 61.0112 26.7236Z" fill="#263238"/>
<path d="M60.8859 27.1521C61.0447 28.1793 61.3446 29.1797 61.7772 30.1248C61.1109 30.5185 60.2281 30.0815 60.2281 30.0815L60.8859 27.1521Z" fill="#630F0F"/>
<path d="M62.0757 24.9366C62.0492 24.9514 62.0194 24.9592 61.9891 24.9592C61.9589 24.9592 61.9291 24.9514 61.9026 24.9366C61.6911 24.8359 61.4586 24.7872 61.2245 24.7947C60.9904 24.8023 60.7615 24.8658 60.5569 24.9799C60.5368 24.9936 60.5142 25.0031 60.4904 25.0079C60.4666 25.0127 60.4421 25.0127 60.4183 25.0078C60.3945 25.003 60.3719 24.9934 60.3519 24.9797C60.3318 24.966 60.3147 24.9484 60.3016 24.928C60.2878 24.9076 60.2782 24.8846 60.2734 24.8605C60.2685 24.8363 60.2685 24.8115 60.2733 24.7873C60.2782 24.7632 60.2877 24.7402 60.3015 24.7198C60.3153 24.6994 60.333 24.6819 60.3535 24.6683C60.6089 24.5193 60.8967 24.4344 61.1921 24.4208C61.4875 24.4072 61.7817 24.4655 62.0497 24.5905C62.0723 24.6003 62.0926 24.6145 62.1096 24.6323C62.1266 24.65 62.1399 24.671 62.1488 24.6939C62.1576 24.7169 62.1618 24.7413 62.1612 24.7659C62.1605 24.7905 62.155 24.8147 62.1449 24.8371C62.1354 24.8779 62.1106 24.9135 62.0757 24.9366Z" fill="#263238"/>
<path d="M50.7042 23.565C50.0855 27.4247 49.523 29.6531 51.0158 32.0243C53.2572 35.5898 58.3718 34.8629 60.1329 31.2541C61.7252 28.0089 62.4738 22.2409 59.0727 19.9216C58.3195 19.4078 57.4483 19.0934 56.5406 19.0078C55.6329 18.9222 54.7183 19.0682 53.8823 19.4322C53.0463 19.7961 52.3163 20.3661 51.7605 21.0889C51.2047 21.8117 50.8413 22.6636 50.7042 23.565Z" fill="#FFC3BD"/>
<path d="M57.7184 27.2601C60.8426 27.9352 59.9339 24.0754 59.1853 23.6903C61.0632 24.8154 62.3094 23.5086 62.2142 22.3317C63.6508 22.0937 63.5772 19.7354 62.5907 19.6619C61.9676 18.0306 59.0555 16.6589 58.5146 17.6671C56.9439 15.8411 52.738 16.1526 53.3481 17.4767C51.7515 17.1652 48.3504 17.308 49.4884 19.7138C47.0609 20.0253 47.1778 24.1793 48.7615 24.612C47.1042 25.5293 48.7095 28.6621 49.4235 30.6266C50.1375 32.5911 57.2511 30.8429 57.7184 27.2601Z" fill="#263238"/>
<path d="M55.94 26.8665C55.8057 27.6888 55.9882 28.5315 56.4506 29.2247C57.0607 30.0901 58.004 29.5492 58.3718 28.5064C58.7007 27.5718 58.7786 25.9967 57.9088 25.5251C57.0391 25.0534 56.1001 25.8107 55.94 26.8665Z" fill="#FFC3BD"/>
<path d="M44.4949 36.9311C49.8172 36.2778 57.3678 36.334 62.3786 37.2081C63.6211 37.4273 64.7557 38.0526 65.6045 38.986C66.4534 39.9195 66.9685 41.1082 67.0691 42.3659C67.6922 50.0118 66.0003 63.3737 64.5377 76.8264C52.7466 80.7813 40.778 76.7702 40.778 76.7702C40.514 74.0571 41.9766 65.1651 42.8896 60.4183C42.2189 55.5201 40.5184 49.9079 39.5621 43.3957C39.4533 42.6462 39.4952 41.8825 39.6853 41.1494C39.8755 40.4163 40.2101 39.7286 40.6696 39.1265C41.129 38.5244 41.704 38.0201 42.3609 37.6431C43.0177 37.2661 43.7433 37.0241 44.4949 36.9311Z" fill="#042b62"/>
<path opacity="0.2" d="M60.5093 47.6362C61.3141 52.2401 63.8627 57.7268 66.195 61.3572C66.5152 58.1768 66.7835 55.1479 66.9522 52.3526L60.5093 47.6362Z" fill="black"/>
<path d="M99.4916 36.9701C97.7702 35.8765 95.6848 35.5114 93.6943 35.9553C91.7037 36.3992 89.9711 37.6156 88.8774 39.337C87.7837 41.0584 87.4187 43.1438 87.8626 45.1343C88.3064 47.1249 89.5229 48.8576 91.2443 49.9512C90.4741 50.9897 88.2154 54.0403 87.5274 55.2172C86.6619 56.6408 86.2292 57.9216 86.8264 58.2765C87.4235 58.6313 88.3322 57.6231 89.176 56.1995C89.8769 55.0269 91.4866 51.5912 92.0275 50.4142C93.8049 51.3434 95.875 51.5414 97.7964 50.9658C99.7177 50.3902 101.338 49.0867 102.312 47.3333C103.286 45.5799 103.536 43.5154 103.009 41.5802C102.482 39.645 101.22 37.9922 99.4916 36.9745V36.9701ZM101.339 47.0218C100.659 48.1642 99.655 49.0793 98.4546 49.6512C97.2542 50.2232 95.9112 50.4264 94.5953 50.2352C93.2794 50.044 92.0498 49.467 91.0618 48.5771C90.0738 47.6871 89.3719 46.5243 89.0447 45.2355C88.7175 43.9467 88.7798 42.5898 89.2236 41.3364C89.6674 40.083 90.4729 38.9893 91.5383 38.1935C92.6036 37.3978 93.8809 36.9358 95.2088 36.866C96.5366 36.7961 97.8554 37.1214 98.9983 37.8009C99.7582 38.252 100.422 38.8485 100.951 39.5563C101.48 40.2641 101.864 41.0693 102.081 41.9258C102.299 42.7823 102.345 43.6733 102.218 44.5477C102.09 45.4222 101.792 46.2629 101.339 47.0218Z" fill="#042b62"/>
<path opacity="0.2" d="M101.655 47.2079C100.938 48.4137 99.8802 49.38 98.6143 49.9844C97.3484 50.5888 95.9317 50.8042 94.5434 50.6034C93.1551 50.4026 91.8574 49.7946 90.8147 48.8562C89.772 47.9179 89.0309 46.6914 88.6853 45.3319C88.3396 43.9723 88.4049 42.5408 88.8729 41.2184C89.3409 39.896 90.1906 38.7421 91.3145 37.9026C92.4383 37.0631 93.7859 36.5757 95.1867 36.5022C96.5876 36.4286 97.9788 36.7722 99.1844 37.4893C99.9851 37.965 100.684 38.5937 101.242 39.3396C101.799 40.0855 102.204 40.934 102.434 41.8366C102.663 42.7391 102.713 43.6781 102.579 44.5997C102.445 45.5213 102.131 46.4076 101.655 47.2079Z" fill="#042b62"/>
<path d="M90.6212 53.9407L89.6822 53.1099C89.5081 52.9551 89.2992 52.8444 89.0733 52.7871C88.8474 52.7299 88.611 52.7278 88.3841 52.7811L86.2206 53.2743C85.7978 53.3712 85.4044 53.5679 85.0732 53.8479C84.7419 54.128 84.4826 54.4832 84.3167 54.884L84.109 55.3859C85.5672 56.8701 88.237 57.4023 88.237 57.4023L88.9856 57.636C89.1369 57.6889 89.2973 57.7111 89.4573 57.7013C89.6174 57.6916 89.7738 57.65 89.9176 57.5791C90.0614 57.5082 90.1897 57.4094 90.2949 57.2884C90.4001 57.1674 90.4801 57.0267 90.5303 56.8744L91.0193 55.4076C91.0994 55.1505 91.1044 54.876 91.0339 54.6161C90.9634 54.3563 90.8202 54.122 90.6212 53.9407Z" fill="#FFC3BD"/>
<path d="M66.8398 40.7994L67.7052 42.699L68.6182 44.6375C69.2283 45.9356 69.873 47.1861 70.5178 48.4107C70.8437 49.0223 71.1783 49.6151 71.5216 50.1891C71.8548 50.7646 72.1966 51.3185 72.5428 51.8291C72.8589 52.2958 73.1983 52.7464 73.5597 53.1791C73.8625 53.5512 74.1741 53.8195 74.1828 53.8628L73.6462 53.6421C74.2395 53.9182 74.8795 54.0797 75.5328 54.1181C76.4494 54.1976 77.3707 54.2092 78.2891 54.1527C79.2757 54.1094 80.2925 54.0056 81.318 53.8844C81.8329 53.8195 82.3565 53.7589 82.8801 53.681L84.4292 53.4733L84.6412 53.443C85.1517 53.3748 85.6703 53.4817 86.1121 53.7463C86.554 54.0109 86.8931 54.4176 87.0739 54.8998C87.2548 55.3821 87.2667 55.9114 87.1078 56.4013C86.9488 56.8912 86.6284 57.3127 86.1989 57.597L85.4114 58.1162L84.6369 58.5836C84.1133 58.8821 83.5854 59.172 83.0402 59.449C82.495 59.7259 81.9455 59.9725 81.3786 60.2062C80.8118 60.4399 80.2276 60.6389 79.6478 60.8509C78.396 61.2663 77.1059 61.5562 75.7967 61.7163C74.2266 61.9263 72.6307 61.8293 71.0976 61.4307C70.9862 61.3995 70.8777 61.3589 70.773 61.3096L70.5653 61.2101C69.4746 60.6861 68.4729 59.994 67.597 59.1591C66.9028 58.5101 66.2551 57.8131 65.6585 57.0734C64.589 55.7537 63.6144 54.3597 62.7421 52.9022C61.8767 51.5045 61.1238 50.0853 60.4098 48.6617C60.0593 47.9434 59.7088 47.2294 59.3886 46.4981C59.2285 46.1347 59.0641 45.7669 58.9126 45.3991L58.4453 44.2438C57.9978 43.1461 57.9984 41.9167 58.4469 40.8194C58.8954 39.7221 59.7561 38.8443 60.8444 38.3744C61.9327 37.9044 63.1618 37.8797 64.2681 38.3056C65.3744 38.7314 66.2697 39.5739 66.7619 40.6523L66.8398 40.7994Z" fill="#042b62"/>
<path d="M157.007 140.127C156.34 134.895 159.257 130.677 162.078 126.592C165.397 121.789 168.828 116.826 166.799 110.011C166.245 108.145 165.316 106.412 164.068 104.918C162.858 108.023 160.796 110.722 158.119 112.706C154.354 115.51 149.897 116.393 146.795 114.961C145.042 114.156 142.9 112.256 142.576 107.808C142.256 103.256 144.899 100.02 149.642 99.1541C154.384 98.2887 160.144 100.02 163.921 104.091C164.875 101.274 165.148 98.2716 164.717 95.329L165.15 95.2684C165.606 98.3592 165.299 101.515 164.254 104.459C165.617 106.044 166.626 107.901 167.214 109.907C169.304 116.917 165.812 121.971 162.433 126.856C159.529 131.057 156.808 135.025 157.435 140.088L157.007 140.127ZM152.104 99.3661C151.305 99.3647 150.507 99.4341 149.72 99.5738C145.215 100.392 142.706 103.468 143.004 107.765C143.238 111.118 144.61 113.468 146.976 114.554C149.949 115.921 154.224 115.056 157.863 112.347C160.533 110.371 162.576 107.667 163.748 104.559C162.27 102.937 160.472 101.639 158.469 100.746C156.465 99.8522 154.298 99.3825 152.104 99.3661Z" fill="#263238"/>
<path d="M165.107 96.7829C161.68 93.7237 161.286 89.6866 163.294 88.8342C166.076 87.6529 167.115 92.5684 165.107 96.7829Z" fill="#042b62"/>
<path d="M162.506 126.349C160.057 122.455 159.91 117.6 162.9 117.263C165.622 116.943 166.219 121.555 162.506 126.349Z" fill="#042b62"/>
<path d="M165.185 98.068C164.713 95.1646 166.141 93.0011 167.482 93.3862C169.339 93.9184 167.889 96.7786 165.185 98.068Z" fill="#042b62"/>
<path d="M158.447 112.101C156.946 108.864 157.907 105.865 159.603 105.874C161.948 105.891 161.173 109.712 158.447 112.101Z" fill="#042b62"/>
<path d="M152.684 99.1931C149.594 99.7166 147.275 98.2065 147.677 96.7743C148.236 94.7882 151.295 96.3286 152.684 99.1931Z" fill="#042b62"/>
<path d="M152.684 99.193C150.789 98.1805 150.52 96.6747 151.49 96.2723C152.853 95.7141 153.502 97.5271 152.684 99.193Z" fill="#042b62"/>
<path d="M167.578 112.07C166.829 110.05 167.621 108.738 168.62 109.089C170.009 109.578 169.295 111.361 167.578 112.07Z" fill="#042b62"/>
<path d="M143.273 110.655C141.131 110.889 140.053 109.79 140.637 108.925C141.451 107.687 143.009 108.816 143.273 110.655Z" fill="#042b62"/>
<path d="M170.728 140.071L169.707 147.583L170.136 147.642L171.157 140.13L170.728 140.071Z" fill="#042b62"/>
<path d="M169.427 149.492L168.933 153.124L169.362 153.182L169.856 149.551L169.427 149.492Z" fill="#042b62"/>
<path d="M148.85 136.834L151.355 155.155C151.399 155.475 151.558 155.768 151.801 155.98C152.044 156.193 152.357 156.31 152.68 156.31H166.206C166.529 156.31 166.841 156.193 167.084 155.98C167.328 155.768 167.486 155.475 167.53 155.155L170.035 136.834C170.061 136.645 170.045 136.453 169.99 136.271C169.935 136.088 169.842 135.92 169.717 135.776C169.591 135.633 169.437 135.518 169.263 135.439C169.09 135.36 168.902 135.32 168.711 135.319H150.148C149.96 135.323 149.775 135.367 149.604 135.447C149.434 135.528 149.283 135.643 149.16 135.786C149.038 135.929 148.947 136.096 148.893 136.277C148.84 136.457 148.825 136.647 148.85 136.834Z" fill="#042b62"/>
</svg>
