<svg width="152" height="129" viewBox="0 0 152 129" fill="none" xmlns="http://www.w3.org/2000/svg">
<path d="M137.128 128.48H66.6868C66.3778 128.487 66.0711 128.427 65.7874 128.304C65.5038 128.182 65.25 127.999 65.0433 127.77C64.8366 127.54 64.6819 127.268 64.5898 126.973C64.4977 126.678 64.4703 126.367 64.5096 126.06L76.5972 6.13823C76.674 5.48126 76.9859 4.87426 77.4754 4.42941C77.9649 3.98456 78.5988 3.73192 79.2601 3.71818H149.701C150.01 3.71217 150.316 3.77267 150.6 3.89558C150.883 4.01849 151.136 4.20092 151.343 4.4305C151.549 4.66007 151.704 4.9314 151.797 5.22607C151.889 5.52074 151.917 5.83183 151.878 6.13823L139.791 126.06C139.714 126.717 139.402 127.324 138.912 127.769C138.423 128.214 137.789 128.467 137.128 128.48Z" fill="#042b62"/>
<path d="M126.581 12.8042H100.551C100.303 12.8092 100.057 12.7608 99.8296 12.6621C99.6022 12.5635 99.3987 12.417 99.233 12.2326C99.0673 12.0483 98.9433 11.8303 98.8694 11.5937C98.7955 11.3571 98.7735 11.1074 98.8049 10.8615L99.5292 3.6474C99.545 3.55461 99.5916 3.46985 99.6615 3.4068C99.7314 3.34374 99.8205 3.30608 99.9144 3.29989H129.135C129.179 3.29886 129.223 3.30747 129.264 3.32511C129.304 3.34275 129.341 3.369 129.37 3.40205C129.4 3.4351 129.422 3.47416 129.434 3.51652C129.447 3.55889 129.451 3.60354 129.445 3.6474L128.72 10.8615C128.658 11.3888 128.407 11.8759 128.014 12.2329C127.621 12.5899 127.112 12.7928 126.581 12.8042Z" fill="#263238"/>
<path d="M114.856 0.000361547C114.323 0.0109519 113.813 0.214007 113.419 0.571944C113.025 0.929882 112.774 1.41847 112.712 1.94729L112.406 4.97025H116.3L116.602 1.94729C116.634 1.70108 116.612 1.45086 116.538 1.21374C116.465 0.976616 116.341 0.758174 116.175 0.573334C116.009 0.388493 115.806 0.241611 115.578 0.142725C115.35 0.0438395 115.104 -0.00472119 114.856 0.000361547ZM114.563 2.89772C114.462 2.90043 114.362 2.88126 114.269 2.84152C114.177 2.80179 114.094 2.74244 114.027 2.66759C113.96 2.59273 113.909 2.50416 113.88 2.40799C113.85 2.31181 113.842 2.21034 113.855 2.11058C113.88 1.8973 113.982 1.70043 114.141 1.55646C114.301 1.41249 114.507 1.33119 114.722 1.32762C114.822 1.3257 114.921 1.34526 115.013 1.38499C115.105 1.42471 115.187 1.48367 115.254 1.55789C115.321 1.6321 115.371 1.71984 115.402 1.81519C115.432 1.91054 115.441 2.01127 115.429 2.11058C115.404 2.32426 115.302 2.52162 115.143 2.66628C114.984 2.81094 114.778 2.89314 114.563 2.89772Z" fill="#263238"/>
<path d="M126.266 11.0253H115.727C115.671 11.0251 115.615 11.0135 115.563 10.9912C115.512 10.9689 115.465 10.9363 115.426 10.8955C115.387 10.855 115.356 10.8071 115.336 10.7546C115.316 10.7021 115.307 10.6461 115.309 10.5899C115.317 10.4079 115.29 10.226 115.227 10.0549C115.165 9.88378 115.068 9.72687 114.944 9.59336C114.818 9.46509 114.666 9.36375 114.499 9.2954C114.332 9.22705 114.153 9.19311 113.973 9.1956C113.56 9.20503 113.163 9.35754 112.85 9.6271C112.537 9.89666 112.327 10.2665 112.256 10.6736C112.24 10.7727 112.189 10.8627 112.112 10.9272C112.036 10.9918 111.938 11.0266 111.838 11.0253H101.308C101.248 11.0257 101.19 11.0137 101.136 10.9898C101.082 10.966 101.033 10.931 100.994 10.8871C100.955 10.8437 100.925 10.7925 100.907 10.737C100.889 10.6815 100.883 10.6228 100.889 10.5647L101.416 5.34363C101.427 5.23999 101.476 5.14396 101.553 5.07428C101.63 5.0046 101.731 4.96628 101.835 4.9668H126.789C126.848 4.96651 126.906 4.97856 126.96 5.00217C127.014 5.02578 127.062 5.06042 127.101 5.10385C127.141 5.14728 127.171 5.19852 127.189 5.25425C127.207 5.30999 127.214 5.36897 127.208 5.42736L126.68 10.6485C126.67 10.7514 126.622 10.8468 126.545 10.9164C126.469 10.986 126.369 11.0248 126.266 11.0253ZM116.121 10.1879H125.885L126.329 5.80419H102.212L101.768 10.1879H111.515C111.684 9.66533 112.011 9.20831 112.452 8.88039C112.892 8.55247 113.424 8.36995 113.973 8.35822C114.492 8.35072 114.996 8.53219 115.391 8.86882C115.787 9.20544 116.046 9.67426 116.121 10.1879Z" fill="white"/>
<path d="M124.82 5.41415C124.822 5.29879 124.853 5.18575 124.911 5.08599C124.969 4.98623 125.052 4.90312 125.151 4.84473H103.379C103.28 4.90312 103.197 4.98623 103.139 5.08599C103.081 5.18575 103.05 5.29879 103.048 5.41415C103.002 5.86634 103.262 5.98357 103.262 5.98357H125.034C125.034 5.98357 124.774 5.86634 124.82 5.41415Z" fill="#042b62"/>
<path d="M137.361 124.817H67.5352L79.3716 7.37793H149.197L137.361 124.817Z" fill="white"/>
<path d="M143.654 19.7712H82.4574C82.4019 19.7712 82.3486 19.7492 82.3094 19.7099C82.2701 19.6707 82.248 19.6174 82.248 19.5619C82.248 19.5064 82.2701 19.4531 82.3094 19.4139C82.3486 19.3746 82.4019 19.3525 82.4574 19.3525H143.654C143.709 19.3525 143.762 19.3746 143.802 19.4139C143.841 19.4531 143.863 19.5064 143.863 19.5619C143.863 19.6174 143.841 19.6707 143.802 19.7099C143.762 19.7492 143.709 19.7712 143.654 19.7712Z" fill="#263238"/>
<path d="M90.4303 14.2149C90.3227 15.1156 89.8938 15.9473 89.2223 16.5572C88.5509 17.1671 87.682 17.5143 86.7751 17.5351C86.3506 17.5468 85.9286 17.4661 85.5384 17.2986C85.1482 17.1311 84.799 16.8808 84.5151 16.565C84.2312 16.2492 84.0192 15.8755 83.894 15.4697C83.7688 15.0639 83.7332 14.6358 83.7898 14.2149C83.8974 13.3142 84.3263 12.4825 84.9978 11.8726C85.6692 11.2627 86.5381 10.9155 87.445 10.8947C87.8695 10.883 88.2915 10.9637 88.6817 11.1312C89.0719 11.2987 89.4211 11.549 89.705 11.8648C89.9889 12.1806 90.2008 12.5543 90.3261 12.9601C90.4513 13.3659 90.4869 13.794 90.4303 14.2149Z" fill="#042b62"/>
<path d="M85.2208 13.7161C85.2208 13.7161 83.4372 16.0691 83.9648 16.7851C84.4923 17.501 89.4455 13.4732 90.6345 12.0915C91.8236 10.7098 90.4294 11.2541 90.4294 11.2541C90.4294 11.2541 90.9527 11.2834 90.6722 11.7063C90.0986 12.5772 85.3967 15.6839 84.9194 15.5164C84.4421 15.349 85.2208 13.7161 85.2208 13.7161Z" fill="#263238"/>
<path d="M143.553 13.1011H137.272C137.161 13.1011 137.055 13.0569 136.976 12.9784C136.898 12.8999 136.854 12.7934 136.854 12.6824C136.854 12.5713 136.898 12.4648 136.976 12.3863C137.055 12.3078 137.161 12.2637 137.272 12.2637H143.553C143.664 12.2637 143.77 12.3078 143.849 12.3863C143.927 12.4648 143.971 12.5713 143.971 12.6824C143.971 12.7934 143.927 12.8999 143.849 12.9784C143.77 13.0569 143.664 13.1011 143.553 13.1011Z" fill="#263238"/>
<path d="M143.357 15.0522H139.3C139.189 15.0522 139.082 15.0081 139.003 14.9296C138.925 14.8511 138.881 14.7446 138.881 14.6335C138.881 14.5225 138.925 14.416 139.003 14.3375C139.082 14.259 139.189 14.2148 139.3 14.2148H143.357C143.468 14.2148 143.574 14.259 143.653 14.3375C143.731 14.416 143.775 14.5225 143.775 14.6335C143.775 14.7446 143.731 14.8511 143.653 14.9296C143.574 15.0081 143.468 15.0522 143.357 15.0522Z" fill="#263238"/>
<path d="M143.159 17.0044H132.557C132.446 17.0044 132.34 16.9603 132.261 16.8817C132.183 16.8032 132.139 16.6967 132.139 16.5857C132.139 16.4746 132.183 16.3682 132.261 16.2896C132.34 16.2111 132.446 16.167 132.557 16.167H143.159C143.27 16.167 143.376 16.2111 143.455 16.2896C143.533 16.3682 143.577 16.4746 143.577 16.5857C143.577 16.6967 143.533 16.8032 143.455 16.8817C143.376 16.9603 143.27 17.0044 143.159 17.0044Z" fill="#263238"/>
<path d="M98.2877 24.7947C98.3412 24.2888 98.5834 23.8218 98.9659 23.4865C99.3485 23.1513 99.8433 22.9726 100.352 22.9859C100.604 22.9717 100.856 23.0175 101.088 23.1193C101.319 23.2212 101.523 23.3763 101.683 23.5721L101.223 23.9699C101.115 23.8352 100.978 23.7273 100.822 23.6546C100.666 23.582 100.495 23.5466 100.323 23.5512C99.9787 23.5425 99.6445 23.6655 99.3884 23.8951C99.1324 24.1248 98.9737 24.4436 98.945 24.7863C98.9157 24.9468 98.9237 25.112 98.9682 25.269C99.0127 25.426 99.0926 25.5707 99.2018 25.692C99.3109 25.8132 99.4465 25.9079 99.5979 25.9687C99.7494 26.0294 99.9127 26.0546 100.075 26.0424C100.259 26.0421 100.44 26.0049 100.608 25.9329C100.776 25.861 100.928 25.7558 101.055 25.6237L101.436 26.0424C101.247 26.2349 101.021 26.3866 100.771 26.4882C100.521 26.5897 100.253 26.6389 99.9834 26.6327C99.7433 26.6516 99.5021 26.6158 99.278 26.5279C99.0538 26.44 98.8525 26.3024 98.6892 26.1254C98.5259 25.9485 98.405 25.7367 98.3354 25.5062C98.2659 25.2757 98.2495 25.0324 98.2877 24.7947Z" fill="black"/>
<path d="M101.864 24.7953C101.92 24.2855 102.167 23.8159 102.556 23.4805C102.944 23.1451 103.444 22.9687 103.957 22.9866C104.195 22.9674 104.434 23.0019 104.657 23.0876C104.88 23.1732 105.081 23.3078 105.245 23.4813C105.409 23.6549 105.532 23.8631 105.605 24.0906C105.677 24.318 105.698 24.5588 105.665 24.7953C105.61 25.3019 105.366 25.769 104.982 26.1041C104.598 26.4392 104.102 26.6176 103.593 26.6041C103.353 26.625 103.113 26.5919 102.888 26.5072C102.663 26.4225 102.46 26.2884 102.294 26.1147C102.128 25.9411 102.003 25.7324 101.929 25.504C101.854 25.2757 101.832 25.0335 101.864 24.7953ZM104.991 24.7953C105.017 24.6381 105.008 24.477 104.963 24.3239C104.918 24.1709 104.84 24.0299 104.733 23.9113C104.627 23.7927 104.495 23.6996 104.347 23.6388C104.2 23.578 104.041 23.5512 103.882 23.5602C103.541 23.5568 103.212 23.6822 102.959 23.9111C102.707 24.1401 102.55 24.4559 102.521 24.7953C102.492 24.954 102.5 25.1172 102.543 25.2725C102.587 25.4279 102.665 25.5713 102.771 25.6922C102.878 25.8131 103.011 25.9082 103.16 25.9704C103.308 26.0326 103.469 26.0603 103.63 26.0514C103.975 26.0544 104.307 25.9262 104.56 25.6928C104.812 25.4595 104.967 25.1385 104.991 24.7953Z" fill="black"/>
<path d="M109.647 23.0361L109.291 26.5532H108.755L107.056 24.1708L106.817 26.5573H106.168L106.524 23.0403H107.06L108.76 25.4227L108.998 23.0403L109.647 23.0361Z" fill="black"/>
<path d="M111.25 23.5888H110.082L110.141 23.0361H113.138L113.084 23.5888H111.92L111.619 26.5532H110.965L111.25 23.5888Z" fill="black"/>
<path d="M115.563 26.5573L114.947 25.5274H114.018L113.913 26.5532H113.26L113.616 23.0361H115.064C115.985 23.0361 116.513 23.5093 116.433 24.2922C116.414 24.5412 116.322 24.7791 116.169 24.9763C116.015 25.1735 115.807 25.3214 115.571 25.4018L116.266 26.5573H115.563ZM114.976 23.593H114.214L114.072 24.9956H114.834C115.408 24.9956 115.73 24.7318 115.776 24.2922C115.822 23.8526 115.55 23.5888 114.976 23.5888V23.593Z" fill="black"/>
<path d="M119.299 25.7206H117.54L117.121 26.558H116.447L118.382 23.041H119.001L120.257 26.558H119.575L119.299 25.7206ZM119.135 25.2098L118.624 23.6732L117.812 25.2098H119.135Z" fill="black"/>
<path d="M120.576 24.7947C120.629 24.2888 120.872 23.8218 121.254 23.4865C121.637 23.1513 122.132 22.9726 122.64 22.9859C122.893 22.9717 123.145 23.0175 123.376 23.1193C123.607 23.2212 123.812 23.3763 123.972 23.5721L123.511 23.9699C123.404 23.8352 123.266 23.7273 123.11 23.6546C122.954 23.582 122.783 23.5466 122.611 23.5512C122.267 23.5435 121.934 23.6669 121.678 23.8963C121.422 24.1257 121.263 24.4439 121.233 24.7863C121.204 24.9468 121.212 25.112 121.256 25.269C121.301 25.426 121.381 25.5707 121.49 25.692C121.599 25.8132 121.735 25.9079 121.886 25.9687C122.038 26.0294 122.201 26.0546 122.364 26.0424C122.547 26.0423 122.728 26.0052 122.896 25.9332C123.065 25.8613 123.217 25.756 123.343 25.6237L123.725 26.0424C123.536 26.2349 123.309 26.3866 123.059 26.4882C122.809 26.5897 122.541 26.6389 122.272 26.6327C122.032 26.6508 121.791 26.6144 121.567 26.5262C121.343 26.4381 121.142 26.3005 120.979 26.1237C120.816 25.9469 120.695 25.7355 120.625 25.5054C120.556 25.2752 120.539 25.0323 120.576 24.7947Z" fill="black"/>
<path d="M125.282 23.5888H124.109L124.164 23.0361H127.145L127.09 23.5888H125.927L125.625 26.5532H124.976L125.282 23.5888Z" fill="black"/>
<path d="M96.2539 31.4946H82.0183C81.9073 31.4946 81.8008 31.4505 81.7222 31.372C81.6437 31.2935 81.5996 31.187 81.5996 31.0759C81.5996 30.9649 81.6437 30.8584 81.7222 30.7799C81.8008 30.7013 81.9073 30.6572 82.0183 30.6572H96.2539C96.3649 30.6572 96.4714 30.7013 96.5499 30.7799C96.6284 30.8584 96.6726 30.9649 96.6726 31.0759C96.6726 31.187 96.6284 31.2935 96.5499 31.372C96.4714 31.4505 96.3649 31.4946 96.2539 31.4946Z" fill="#263238"/>
<path d="M88.9134 33.7554H81.7956C81.6846 33.7554 81.5781 33.7112 81.4996 33.6327C81.4211 33.5542 81.377 33.4477 81.377 33.3367C81.377 33.2256 81.4211 33.1191 81.4996 33.0406C81.5781 32.9621 81.6846 32.918 81.7956 32.918H88.9134C89.0245 32.918 89.131 32.9621 89.2095 33.0406C89.288 33.1191 89.3321 33.2256 89.3321 33.3367C89.3321 33.4477 89.288 33.5542 89.2095 33.6327C89.131 33.7112 89.0245 33.7554 88.9134 33.7554Z" fill="#263238"/>
<path d="M139.897 45.5747H80.614C80.503 45.5747 80.3965 45.5306 80.3179 45.4521C80.2394 45.3735 80.1953 45.267 80.1953 45.156C80.1953 45.045 80.2394 44.9385 80.3179 44.8599C80.3965 44.7814 80.503 44.7373 80.614 44.7373H139.897C140.008 44.7373 140.114 44.7814 140.193 44.8599C140.271 44.9385 140.315 45.045 140.315 45.156C140.315 45.267 140.271 45.3735 140.193 45.4521C140.114 45.5306 140.008 45.5747 139.897 45.5747Z" fill="#263238"/>
<path d="M139.639 48.1577H80.3523C80.2412 48.1577 80.1347 48.1136 80.0562 48.0351C79.9777 47.9565 79.9336 47.8501 79.9336 47.739C79.9336 47.628 79.9777 47.5215 80.0562 47.4429C80.1347 47.3644 80.2412 47.3203 80.3523 47.3203H139.639C139.75 47.3203 139.857 47.3644 139.935 47.4429C140.014 47.5215 140.058 47.628 140.058 47.739C140.058 47.8501 140.014 47.9565 139.935 48.0351C139.857 48.1136 139.75 48.1577 139.639 48.1577Z" fill="#263238"/>
<path d="M139.379 50.7378H80.0925C79.9815 50.7378 79.875 50.6937 79.7965 50.6151C79.7179 50.5366 79.6738 50.4301 79.6738 50.3191C79.6738 50.208 79.7179 50.1015 79.7965 50.023C79.875 49.9445 79.9815 49.9004 80.0925 49.9004H139.379C139.491 49.9004 139.597 49.9445 139.676 50.023C139.754 50.1015 139.798 50.208 139.798 50.3191C139.798 50.4301 139.754 50.5366 139.676 50.6151C139.597 50.6937 139.491 50.7378 139.379 50.7378Z" fill="#263238"/>
<path d="M139.12 53.3169H79.8328C79.7217 53.3169 79.6152 53.2728 79.5367 53.1942C79.4582 53.1157 79.4141 53.0092 79.4141 52.8982C79.4141 52.7871 79.4582 52.6806 79.5367 52.6021C79.6152 52.5236 79.7217 52.4795 79.8328 52.4795H139.12C139.231 52.4795 139.337 52.5236 139.416 52.6021C139.494 52.6806 139.538 52.7871 139.538 52.8982C139.538 53.0092 139.494 53.1157 139.416 53.1942C139.337 53.2728 139.231 53.3169 139.12 53.3169Z" fill="#263238"/>
<path d="M138.858 55.896H79.5749C79.4639 55.896 79.3574 55.8519 79.2789 55.7733C79.2004 55.6948 79.1562 55.5883 79.1562 55.4773C79.1562 55.3662 79.2004 55.2597 79.2789 55.1812C79.3574 55.1027 79.4639 55.0586 79.5749 55.0586H138.858C138.969 55.0586 139.075 55.1027 139.154 55.1812C139.232 55.2597 139.276 55.3662 139.276 55.4773C139.276 55.5883 139.232 55.6948 139.154 55.7733C139.075 55.8519 138.969 55.896 138.858 55.896Z" fill="#263238"/>
<path d="M138.596 58.479H79.3132C79.2022 58.479 79.0957 58.4349 79.0172 58.3564C78.9386 58.2778 78.8945 58.1713 78.8945 58.0603C78.8945 57.9493 78.9386 57.8428 79.0172 57.7642C79.0957 57.6857 79.2022 57.6416 79.3132 57.6416H138.596C138.707 57.6416 138.814 57.6857 138.892 57.7642C138.971 57.8428 139.015 57.9493 139.015 58.0603C139.015 58.1713 138.971 58.2778 138.892 58.3564C138.814 58.4349 138.707 58.479 138.596 58.479Z" fill="#263238"/>
<path d="M138.336 61.0591H79.0535C78.9424 61.0591 78.8359 61.015 78.7574 60.9364C78.6789 60.8579 78.6348 60.7514 78.6348 60.6404C78.6348 60.5293 78.6789 60.4228 78.7574 60.3443C78.8359 60.2658 78.9424 60.2217 79.0535 60.2217H138.336C138.447 60.2217 138.554 60.2658 138.632 60.3443C138.711 60.4228 138.755 60.5293 138.755 60.6404C138.755 60.7514 138.711 60.8579 138.632 60.9364C138.554 61.015 138.447 61.0591 138.336 61.0591Z" fill="#263238"/>
<path d="M138.078 63.6372H78.8074C78.6963 63.6372 78.5898 63.5931 78.5113 63.5146C78.4328 63.436 78.3887 63.3295 78.3887 63.2185C78.3887 63.1075 78.4328 63.001 78.5113 62.9224C78.5898 62.8439 78.6963 62.7998 78.8074 62.7998H138.078C138.189 62.7998 138.295 62.8439 138.374 62.9224C138.452 63.001 138.496 63.1075 138.496 63.2185C138.496 63.3295 138.452 63.436 138.374 63.5146C138.295 63.5931 138.189 63.6372 138.078 63.6372Z" fill="#263238"/>
<path d="M108.508 66.2163H78.5339C78.4229 66.2163 78.3164 66.1722 78.2379 66.0937C78.1593 66.0151 78.1152 65.9086 78.1152 65.7976C78.1152 65.6866 78.1593 65.5801 78.2379 65.5015C78.3164 65.423 78.4229 65.3789 78.5339 65.3789H108.508C108.619 65.3789 108.726 65.423 108.804 65.5015C108.883 65.5801 108.927 65.6866 108.927 65.7976C108.927 65.9086 108.883 66.0151 108.804 66.0937C108.726 66.1722 108.619 66.2163 108.508 66.2163Z" fill="#263238"/>
<path d="M141.758 31.4946H131.534C131.423 31.4946 131.316 31.4505 131.238 31.372C131.159 31.2935 131.115 31.187 131.115 31.0759C131.115 30.9649 131.159 30.8584 131.238 30.7799C131.316 30.7013 131.423 30.6572 131.534 30.6572H141.758C141.869 30.6572 141.976 30.7013 142.054 30.7799C142.133 30.8584 142.177 30.9649 142.177 31.0759C142.177 31.187 142.133 31.2935 142.054 31.372C141.976 31.4505 141.869 31.4946 141.758 31.4946Z" fill="#263238"/>
<path d="M137.489 69.7173H84.5163C84.4053 69.7173 84.2988 69.6732 84.2203 69.5946C84.1418 69.5161 84.0977 69.4096 84.0977 69.2986C84.0977 69.1875 84.1418 69.081 84.2203 69.0025C84.2988 68.924 84.4053 68.8799 84.5163 68.8799H137.489C137.6 68.8799 137.707 68.924 137.785 69.0025C137.864 69.081 137.908 69.1875 137.908 69.2986C137.908 69.4096 137.864 69.5161 137.785 69.5946C137.707 69.6732 137.6 69.7173 137.489 69.7173Z" fill="#263238"/>
<path d="M137.206 72.2954H77.9187C77.8076 72.2954 77.7011 72.2513 77.6226 72.1728C77.5441 72.0942 77.5 71.9877 77.5 71.8767C77.5 71.7657 77.5441 71.6592 77.6226 71.5806C77.7011 71.5021 77.8076 71.458 77.9187 71.458H137.206C137.317 71.458 137.423 71.5021 137.502 71.5806C137.58 71.6592 137.624 71.7657 137.624 71.8767C137.624 71.9877 137.58 72.0942 137.502 72.1728C137.423 72.2513 137.317 72.2954 137.206 72.2954Z" fill="#263238"/>
<path d="M136.946 74.8794H77.6589C77.5479 74.8794 77.4414 74.8353 77.3629 74.7567C77.2843 74.6782 77.2402 74.5717 77.2402 74.4607C77.2402 74.3496 77.2843 74.2431 77.3629 74.1646C77.4414 74.0861 77.5479 74.042 77.6589 74.042H136.946C137.057 74.042 137.163 74.0861 137.242 74.1646C137.32 74.2431 137.365 74.3496 137.365 74.4607C137.365 74.5717 137.32 74.6782 137.242 74.7567C137.163 74.8353 137.057 74.8794 136.946 74.8794Z" fill="#263238"/>
<path d="M136.682 77.4585H77.3992C77.2881 77.4585 77.1816 77.4144 77.1031 77.3358C77.0246 77.2573 76.9805 77.1508 76.9805 77.0398C76.9805 76.9287 77.0246 76.8222 77.1031 76.7437C77.1816 76.6652 77.2881 76.6211 77.3992 76.6211H136.682C136.793 76.6211 136.899 76.6652 136.978 76.7437C137.057 76.8222 137.101 76.9287 137.101 77.0398C137.101 77.1508 137.057 77.2573 136.978 77.3358C136.899 77.4144 136.793 77.4585 136.682 77.4585Z" fill="#263238"/>
<path d="M136.423 80.0376H77.1316C77.0205 80.0376 76.914 79.9935 76.8355 79.9149C76.757 79.8364 76.7129 79.7299 76.7129 79.6189C76.7129 79.5078 76.757 79.4013 76.8355 79.3228C76.914 79.2443 77.0205 79.2002 77.1316 79.2002H136.423C136.534 79.2002 136.64 79.2443 136.719 79.3228C136.797 79.4013 136.841 79.5078 136.841 79.6189C136.841 79.7299 136.797 79.8364 136.719 79.9149C136.64 79.9935 136.534 80.0376 136.423 80.0376Z" fill="#263238"/>
<path d="M98.4842 82.6216H76.8796C76.7686 82.6216 76.6621 82.5775 76.5836 82.4989C76.5051 82.4204 76.4609 82.3139 76.4609 82.2029C76.4609 82.0918 76.5051 81.9853 76.5836 81.9068C76.6621 81.8283 76.7686 81.7842 76.8796 81.7842H98.4842C98.5953 81.7842 98.7017 81.8283 98.7803 81.9068C98.8588 81.9853 98.9029 82.0918 98.9029 82.2029C98.9029 82.3139 98.8588 82.4204 98.7803 82.4989C98.7017 82.5775 98.5953 82.6216 98.4842 82.6216Z" fill="#263238"/>
<g opacity="0.2">
<path d="M137.363 124.818H67.5371L79.3736 7.37891H149.199L137.363 124.818Z" fill="black"/>
</g>
<path d="M126.062 121.27H56.2363C69.0567 83.4958 76.8025 45.1519 78.5359 7.38574H148.361C146.636 45.1519 138.882 83.5 126.062 121.27Z" fill="white"/>
<path d="M142.912 19.3565H81.7116C81.6567 19.3555 81.6042 19.3339 81.5646 19.2958C81.525 19.2578 81.5013 19.2062 81.4981 19.1513C81.4975 19.1244 81.5024 19.0977 81.5126 19.0728C81.5227 19.0478 81.5379 19.0252 81.5571 19.0064C81.5764 18.9876 81.5993 18.9729 81.6244 18.9632C81.6495 18.9536 81.6764 18.9492 81.7033 18.9504H142.899C142.955 18.9492 143.008 18.9695 143.049 19.007C143.089 19.0444 143.114 19.0962 143.117 19.1513C143.118 19.1784 143.113 19.2054 143.103 19.2305C143.093 19.2557 143.078 19.2785 143.058 19.2977C143.039 19.3169 143.016 19.3319 142.991 19.3421C142.966 19.3522 142.939 19.3571 142.912 19.3565Z" fill="#263238"/>
<path d="M89.4999 13.9977C89.4184 14.8776 89.0105 15.6951 88.3565 16.2894C87.7025 16.8837 86.8498 17.2118 85.9662 17.209C85.546 17.2216 85.1279 17.1462 84.7385 16.9878C84.3492 16.8294 83.9972 16.5914 83.7051 16.2891C83.4131 15.9868 83.1874 15.6268 83.0425 15.2322C82.8976 14.8376 82.8367 14.4171 82.8637 13.9977C82.9403 13.1207 83.3433 12.3044 83.9931 11.7105C84.6429 11.1165 85.492 10.7882 86.3723 10.7905C86.7933 10.7776 87.2124 10.8524 87.603 11.0101C87.9935 11.1678 88.3471 11.405 88.6411 11.7065C88.9352 12.0081 89.1634 12.3675 89.3113 12.7619C89.4591 13.1563 89.5234 13.5771 89.4999 13.9977Z" fill="#042b62"/>
<path d="M84.2752 13.4988C84.2752 13.4988 82.6004 15.7723 83.1405 16.4673C83.6806 17.1624 88.5081 13.2643 89.6261 11.9329C90.744 10.6014 89.379 11.1332 89.3832 11.1332C89.3874 11.1332 89.9066 11.1583 89.647 11.5728C89.1194 12.4102 84.5389 15.4122 84.0491 15.2531C83.5592 15.094 84.2752 13.4988 84.2752 13.4988Z" fill="#263238"/>
<path d="M142.582 12.9047H136.302C136.245 12.9075 136.188 12.8988 136.135 12.879C136.082 12.8592 136.033 12.8288 135.992 12.7897C135.951 12.7505 135.918 12.7034 135.896 12.6512C135.874 12.599 135.862 12.5427 135.862 12.486C135.858 12.43 135.867 12.3739 135.887 12.3215C135.906 12.269 135.937 12.2213 135.977 12.1817C136.016 12.142 136.064 12.1113 136.116 12.0916C136.169 12.0719 136.225 12.0636 136.281 12.0673H142.561C142.672 12.0673 142.779 12.1114 142.857 12.1899C142.936 12.2684 142.98 12.3749 142.98 12.486C142.983 12.5401 142.976 12.5943 142.957 12.6453C142.939 12.6963 142.91 12.7429 142.873 12.7822C142.835 12.8215 142.79 12.8527 142.74 12.8737C142.69 12.8948 142.636 12.9053 142.582 12.9047Z" fill="#263238"/>
<path d="M142.447 14.7933H138.39C138.279 14.7933 138.173 14.7492 138.094 14.6707C138.016 14.5922 137.972 14.4857 137.972 14.3746C137.968 14.3187 137.976 14.2626 137.996 14.2101C138.016 14.1576 138.046 14.11 138.086 14.0704C138.126 14.0307 138.173 14 138.226 13.9803C138.278 13.9605 138.334 13.9522 138.39 13.9559H142.447C142.558 13.9559 142.665 14 142.743 14.0786C142.822 14.1571 142.866 14.2636 142.866 14.3746C142.866 14.4857 142.822 14.5922 142.743 14.6707C142.665 14.7492 142.558 14.7933 142.447 14.7933Z" fill="#263238"/>
<path d="M142.336 16.6765H131.734C131.623 16.6765 131.517 16.6324 131.438 16.5538C131.36 16.4753 131.316 16.3688 131.316 16.2578C131.311 16.2017 131.319 16.1453 131.339 16.0925C131.358 16.0397 131.389 15.9917 131.429 15.9519C131.468 15.9121 131.516 15.8814 131.569 15.862C131.622 15.8425 131.678 15.8347 131.734 15.8391H142.331C142.443 15.8391 142.549 15.8832 142.628 15.9617C142.706 16.0402 142.75 16.1467 142.75 16.2578C142.754 16.3133 142.746 16.3691 142.726 16.4212C142.707 16.4734 142.676 16.5208 142.637 16.5604C142.598 16.6 142.551 16.6308 142.499 16.6508C142.447 16.6708 142.391 16.6796 142.336 16.6765Z" fill="#263238"/>
<path d="M97.6484 24.2179C97.7012 23.722 97.9411 23.2649 98.3192 22.9397C98.6972 22.6145 99.1851 22.4457 99.6833 22.4677C99.935 22.4557 100.186 22.5007 100.418 22.5992C100.65 22.6978 100.857 22.8475 101.023 23.0372L100.571 23.4223C100.461 23.2893 100.323 23.1826 100.166 23.1101C100.01 23.0376 99.839 23.0012 99.6665 23.0037C99.3294 22.9905 99.0001 23.1075 98.7468 23.3304C98.4935 23.5533 98.3356 23.865 98.3058 24.2011C98.2859 24.3588 98.3015 24.5189 98.3514 24.6697C98.4013 24.8206 98.4842 24.9584 98.5941 25.0732C98.704 25.1879 98.8382 25.2766 98.9868 25.3329C99.1354 25.3892 99.2946 25.4117 99.453 25.3986C99.6355 25.3984 99.816 25.3613 99.9837 25.2893C100.151 25.2173 100.303 25.1121 100.429 24.9799L100.814 25.3693C100.624 25.5575 100.397 25.7051 100.148 25.803C99.8989 25.9009 99.6325 25.947 99.3651 25.9387C98.289 25.968 97.5563 25.2353 97.6484 24.2179Z" fill="black"/>
<path d="M101.224 24.2179C101.28 23.721 101.522 23.2638 101.902 22.9389C102.282 22.6139 102.772 22.4455 103.271 22.4678C104.36 22.4678 105.101 23.2047 105.009 24.2179C104.953 24.7156 104.71 25.1734 104.329 25.4985C103.948 25.8235 103.458 25.9914 102.957 25.968C101.869 25.968 101.136 25.227 101.224 24.2179ZM104.352 24.2179C104.371 24.0618 104.356 23.9032 104.307 23.7537C104.258 23.6041 104.176 23.4672 104.068 23.3528C103.96 23.2384 103.828 23.1493 103.682 23.0918C103.535 23.0344 103.378 23.01 103.221 23.0204C102.888 23.0128 102.563 23.1322 102.315 23.3545C102.066 23.5769 101.911 23.8856 101.881 24.2179C101.861 24.3738 101.876 24.5323 101.924 24.6819C101.973 24.8314 102.054 24.9684 102.161 25.0829C102.269 25.1974 102.401 25.2867 102.547 25.3441C102.693 25.4016 102.851 25.426 103.008 25.4154C103.341 25.4221 103.664 25.3023 103.913 25.0801C104.162 24.858 104.317 24.5499 104.347 24.2179H104.352Z" fill="black"/>
<path d="M108.978 22.5176C108.88 23.6536 108.778 24.7883 108.672 25.9216H108.136C107.563 25.1512 106.985 24.3849 106.407 23.6146C106.34 24.3849 106.269 25.1512 106.198 25.9216H105.549C105.658 24.7883 105.76 23.6536 105.854 22.5176H106.39C106.972 23.2838 107.55 24.0542 108.128 24.8204C108.195 24.0542 108.266 23.2838 108.329 22.5176H108.978Z" fill="black"/>
<path d="M110.59 23.0493H109.426C109.426 22.8735 109.455 22.6934 109.472 22.5176H112.453C112.453 22.6934 112.424 22.8735 112.407 23.0493H111.243C111.159 24.0081 111.075 24.9627 110.983 25.9216H110.33C110.422 24.9627 110.506 24.0081 110.59 23.0493Z" fill="black"/>
<path d="M114.943 25.9218L114.315 24.9253H113.386C113.356 25.2561 113.327 25.5869 113.294 25.9177H112.645C112.751 24.7844 112.851 23.6497 112.946 22.5137H114.395C115.316 22.5137 115.852 22.97 115.785 23.7237C115.768 23.9659 115.679 24.1977 115.53 24.3893C115.381 24.5809 115.178 24.7238 114.947 24.7997C115.186 25.1724 115.42 25.545 115.655 25.9177L114.943 25.9218ZM114.315 23.0496H113.557C113.52 23.5018 113.478 23.954 113.44 24.4062H114.202C114.776 24.4062 115.094 24.155 115.132 23.7279C115.169 23.3008 114.889 23.0496 114.315 23.0496Z" fill="black"/>
<path d="M118.67 25.1344H116.907L116.488 25.9216H115.818C116.452 24.7883 117.08 23.6536 117.702 22.5176H118.347C118.78 23.6536 119.207 24.7883 119.628 25.9216H118.946L118.67 25.1344ZM118.498 24.6362C118.322 24.1421 118.146 23.6439 117.966 23.1498C117.702 23.6439 117.443 24.1421 117.175 24.6362H118.498Z" fill="black"/>
<path d="M119.934 24.2181C119.987 23.7222 120.227 23.2651 120.605 22.9399C120.983 22.6147 121.471 22.4459 121.969 22.4679C122.222 22.4553 122.474 22.4999 122.706 22.5985C122.939 22.6971 123.147 22.8472 123.313 23.0373C123.158 23.163 123.007 23.2928 122.857 23.4225C122.747 23.2895 122.609 23.1828 122.452 23.1103C122.296 23.0378 122.125 23.0014 121.952 23.0039C121.615 22.9907 121.286 23.1077 121.033 23.3306C120.779 23.5535 120.621 23.8652 120.592 24.2013C120.572 24.359 120.587 24.5191 120.637 24.6699C120.687 24.8208 120.77 24.9586 120.88 25.0733C120.99 25.1881 121.124 25.2768 121.273 25.3331C121.421 25.3894 121.58 25.4119 121.739 25.3988C121.921 25.3986 122.102 25.3615 122.27 25.2895C122.437 25.2175 122.589 25.1123 122.714 24.9801L123.1 25.3695C122.909 25.5577 122.683 25.7053 122.434 25.8032C122.185 25.9011 121.918 25.9472 121.651 25.9389C120.575 25.9682 119.838 25.2355 119.934 24.2181Z" fill="black"/>
<path d="M124.613 23.0493H123.449C123.449 22.8735 123.479 22.6934 123.495 22.5176H126.476C126.476 22.6934 126.447 22.8735 126.43 23.0493H125.283C125.204 24.0081 125.116 24.9627 125.024 25.9216H124.375C124.446 24.9627 124.534 24.0081 124.613 23.0493Z" fill="black"/>
<path d="M95.6545 30.7115H81.4189C81.3572 30.727 81.2927 30.7282 81.2305 30.715C81.1682 30.7019 81.1097 30.6747 81.0596 30.6355C81.0094 30.5963 80.9688 30.5463 80.9409 30.4891C80.913 30.4319 80.8984 30.3691 80.8984 30.3054C80.8984 30.2418 80.913 30.179 80.9409 30.1218C80.9688 30.0646 81.0094 30.0145 81.0596 29.9753C81.1097 29.9362 81.1682 29.909 81.2305 29.8958C81.2927 29.8826 81.3572 29.8838 81.4189 29.8993H95.6545C95.7162 29.8838 95.7807 29.8826 95.843 29.8958C95.9052 29.909 95.9637 29.9362 96.0139 29.9753C96.064 30.0145 96.1046 30.0646 96.1325 30.1218C96.1605 30.179 96.175 30.2418 96.175 30.3054C96.175 30.3691 96.1605 30.4319 96.1325 30.4891C96.1046 30.5463 96.064 30.5963 96.0139 30.6355C95.9637 30.6747 95.9052 30.7019 95.843 30.715C95.7807 30.7282 95.7162 30.727 95.6545 30.7115Z" fill="#263238"/>
<path d="M88.3021 32.9057H81.1843C81.0733 32.9057 80.9668 32.8616 80.8883 32.7831C80.8097 32.7046 80.7656 32.5981 80.7656 32.4871C80.7656 32.376 80.8097 32.2695 80.8883 32.191C80.9668 32.1125 81.0733 32.0684 81.1843 32.0684H88.3021C88.4131 32.0684 88.5197 32.1125 88.5982 32.191C88.6767 32.2695 88.7208 32.376 88.7208 32.4871C88.7208 32.5981 88.6767 32.7046 88.5982 32.7831C88.5197 32.8616 88.4131 32.9057 88.3021 32.9057Z" fill="#263238"/>
<path d="M139.028 44.3784H79.7449C79.6338 44.3784 79.5273 44.3343 79.4488 44.2558C79.3703 44.1772 79.3262 44.0708 79.3262 43.9597C79.3262 43.8487 79.3703 43.7422 79.4488 43.6636C79.5273 43.5851 79.6338 43.541 79.7449 43.541H139.057C139.168 43.541 139.274 43.5851 139.353 43.6636C139.432 43.7422 139.476 43.8487 139.476 43.9597C139.476 44.0172 139.464 44.0742 139.441 44.127C139.418 44.1798 139.385 44.2273 139.343 44.2666C139.301 44.3059 139.251 44.3361 139.197 44.3554C139.143 44.3746 139.085 44.3824 139.028 44.3784Z" fill="#263238"/>
<path d="M138.68 46.8861H79.3847C79.3286 46.8905 79.2722 46.8827 79.2194 46.8632C79.1666 46.8437 79.1187 46.813 79.0789 46.7732C79.0391 46.7335 79.0084 46.6855 78.9889 46.6327C78.9694 46.5799 78.9616 46.5235 78.966 46.4674C78.966 46.3564 79.0101 46.2499 79.0887 46.1713C79.1672 46.0928 79.2737 46.0487 79.3847 46.0487H138.701C138.757 46.045 138.813 46.0533 138.866 46.073C138.918 46.0928 138.966 46.1235 139.005 46.1631C139.045 46.2028 139.076 46.2504 139.095 46.3029C139.115 46.3554 139.123 46.4115 139.12 46.4674C139.12 46.5242 139.108 46.5804 139.086 46.6326C139.064 46.6848 139.031 46.732 138.99 46.7711C138.949 46.8103 138.9 46.8407 138.847 46.8604C138.793 46.8802 138.737 46.8889 138.68 46.8861Z" fill="#263238"/>
<path d="M138.291 49.3931H79.0035C78.9476 49.3968 78.8915 49.3885 78.839 49.3687C78.7865 49.349 78.7389 49.3183 78.6993 49.2786C78.6596 49.239 78.6289 49.1913 78.6092 49.1389C78.5894 49.0864 78.5811 49.0303 78.5848 48.9744C78.5902 48.8614 78.6389 48.7549 78.7208 48.6769C78.8027 48.599 78.9114 48.5555 79.0245 48.5557H138.328C138.439 48.5557 138.546 48.5998 138.624 48.6783C138.703 48.7568 138.747 48.8633 138.747 48.9744C138.74 49.0899 138.689 49.1983 138.604 49.2765C138.519 49.3547 138.406 49.3965 138.291 49.3931Z" fill="#263238"/>
<path d="M137.897 51.9011H78.6099C78.5557 51.9025 78.5017 51.8924 78.4517 51.8715C78.4016 51.8506 78.3565 51.8194 78.3194 51.7799C78.2822 51.7403 78.2538 51.6934 78.2361 51.6422C78.2183 51.5909 78.2116 51.5365 78.2163 51.4824C78.2227 51.3698 78.2717 51.2639 78.3533 51.1862C78.435 51.1084 78.5432 51.0646 78.656 51.0637H137.939C137.993 51.0617 138.048 51.0714 138.098 51.092C138.149 51.1126 138.194 51.1438 138.232 51.1834C138.27 51.223 138.298 51.2701 138.316 51.3217C138.334 51.3732 138.341 51.428 138.336 51.4824C138.33 51.595 138.281 51.7009 138.199 51.7787C138.118 51.8565 138.01 51.9002 137.897 51.9011Z" fill="#263238"/>
<path d="M137.486 54.4098H78.2036C78.1494 54.4112 78.0955 54.4011 78.0454 54.3802C77.9954 54.3593 77.9503 54.3281 77.9131 54.2885C77.876 54.249 77.8476 54.2021 77.8298 54.1508C77.8121 54.0996 77.8053 54.0451 77.8101 53.9911C77.8165 53.8778 77.8661 53.7712 77.9486 53.6934C78.0312 53.6155 78.1404 53.5722 78.2539 53.5724H137.537C137.591 53.571 137.645 53.5811 137.695 53.602C137.745 53.6229 137.79 53.6541 137.827 53.6936C137.864 53.7332 137.893 53.7801 137.91 53.8314C137.928 53.8826 137.935 53.937 137.93 53.9911C137.923 54.104 137.873 54.21 137.791 54.2877C137.708 54.3653 137.6 54.409 137.486 54.4098Z" fill="#263238"/>
<path d="M137.059 56.9176H77.776C77.722 56.919 77.6682 56.909 77.6183 56.888C77.5685 56.8671 77.5236 56.8358 77.4868 56.7962C77.4499 56.7566 77.422 56.7096 77.4047 56.6583C77.3874 56.6071 77.3813 56.5527 77.3866 56.4989C77.394 56.386 77.4439 56.28 77.5263 56.2023C77.6086 56.1247 77.7173 56.081 77.8305 56.0802H137.113C137.167 56.0788 137.221 56.0889 137.271 56.1098C137.322 56.1307 137.367 56.1619 137.404 56.2014C137.441 56.241 137.469 56.2879 137.487 56.3392C137.505 56.3904 137.512 56.4449 137.507 56.4989C137.498 56.6122 137.448 56.7182 137.365 56.7958C137.282 56.8734 137.172 56.9169 137.059 56.9176Z" fill="#263238"/>
<path d="M136.62 59.4264H77.3329C77.279 59.4279 77.2253 59.4179 77.1756 59.3969C77.1259 59.3759 77.0813 59.3445 77.0448 59.3049C77.0083 59.2652 76.9807 59.2181 76.964 59.1668C76.9472 59.1156 76.9416 59.0613 76.9477 59.0077C76.9561 58.8944 77.0068 58.7884 77.0899 58.7108C77.1729 58.6332 77.282 58.5897 77.3957 58.589H136.678C136.733 58.5875 136.786 58.5976 136.836 58.6186C136.886 58.6395 136.931 58.6708 136.968 58.7104C137.005 58.75 137.033 58.797 137.05 58.8483C137.067 58.8995 137.073 58.9539 137.068 59.0077C137.059 59.121 137.009 59.227 136.926 59.3046C136.843 59.3822 136.733 59.4257 136.62 59.4264Z" fill="#263238"/>
<path d="M136.169 61.9334H76.8783C76.8242 61.9357 76.7703 61.9261 76.7202 61.9054C76.6702 61.8846 76.6253 61.8532 76.5886 61.8134C76.552 61.7735 76.5244 61.7262 76.5079 61.6746C76.4914 61.623 76.4864 61.5685 76.4931 61.5147C76.5025 61.401 76.5542 61.295 76.6379 61.2175C76.7216 61.14 76.8313 61.0967 76.9453 61.096H136.228C136.282 61.0938 136.336 61.1034 136.386 61.1241C136.436 61.1448 136.481 61.1762 136.518 61.216C136.554 61.2559 136.582 61.3033 136.598 61.3548C136.615 61.4064 136.62 61.461 136.613 61.5147C136.605 61.6273 136.555 61.7327 136.473 61.8102C136.391 61.8877 136.282 61.9316 136.169 61.9334Z" fill="#263238"/>
<path d="M106.378 64.4412H76.4037C76.3496 64.4435 76.2957 64.4339 76.2456 64.4132C76.1956 64.3924 76.1507 64.3611 76.114 64.3212C76.0774 64.2814 76.0498 64.234 76.0333 64.1824C76.0168 64.1308 76.0118 64.0763 76.0185 64.0225C76.028 63.9081 76.0802 63.8015 76.1648 63.7239C76.2494 63.6463 76.3601 63.6034 76.4749 63.6038H106.441C106.495 63.6016 106.549 63.6112 106.599 63.6319C106.649 63.6526 106.694 63.684 106.73 63.7239C106.767 63.7637 106.795 63.8111 106.811 63.8627C106.828 63.9142 106.833 63.9688 106.826 64.0225C106.816 64.1351 106.764 64.2401 106.682 64.3173C106.599 64.3945 106.491 64.4386 106.378 64.4412Z" fill="#263238"/>
<path d="M141.159 30.7115H130.935C130.873 30.727 130.808 30.7282 130.746 30.715C130.684 30.7019 130.625 30.6747 130.575 30.6355C130.525 30.5963 130.484 30.5463 130.456 30.4891C130.429 30.4319 130.414 30.3691 130.414 30.3054C130.414 30.2418 130.429 30.179 130.456 30.1218C130.484 30.0646 130.525 30.0145 130.575 29.9753C130.625 29.9362 130.684 29.909 130.746 29.8958C130.808 29.8826 130.873 29.8838 130.935 29.8993H141.159C141.221 29.8838 141.285 29.8826 141.347 29.8958C141.41 29.909 141.468 29.9362 141.518 29.9753C141.569 30.0145 141.609 30.0646 141.637 30.1218C141.665 30.179 141.68 30.2418 141.68 30.3054C141.68 30.3691 141.665 30.4319 141.637 30.4891C141.609 30.5463 141.569 30.5963 141.518 30.6355C141.468 30.6747 141.41 30.7019 141.347 30.715C141.285 30.7282 141.221 30.727 141.159 30.7115Z" fill="#263238"/>
<path d="M135.046 67.8455H82.0733C82.0196 67.8472 81.9661 67.8371 81.9166 67.8161C81.8671 67.7951 81.8227 67.7637 81.7865 67.7239C81.7503 67.6841 81.7231 67.637 81.7069 67.5857C81.6906 67.5344 81.6857 67.4802 81.6923 67.4269C81.7037 67.3125 81.7571 67.2064 81.8422 67.129C81.9272 67.0517 82.0379 67.0086 82.1529 67.0082H135.122C135.176 67.0058 135.23 67.0154 135.279 67.0361C135.329 67.0569 135.374 67.0883 135.41 67.1283C135.447 67.1682 135.474 67.2157 135.49 67.2673C135.506 67.3189 135.51 67.3734 135.503 67.4269C135.491 67.5405 135.439 67.6461 135.355 67.7233C135.27 67.8005 135.161 67.8441 135.046 67.8455Z" fill="#263238"/>
<path d="M134.493 70.3534H75.2228C75.1689 70.3559 75.1152 70.3464 75.0655 70.3256C75.0158 70.3048 74.9714 70.2732 74.9353 70.2332C74.8993 70.1931 74.8726 70.1456 74.8571 70.094C74.8416 70.0424 74.8378 69.988 74.8459 69.9347C74.8573 69.8203 74.9107 69.7142 74.9958 69.6369C75.0808 69.5595 75.1916 69.5165 75.3065 69.516H134.589C134.643 69.5135 134.697 69.523 134.747 69.5438C134.796 69.5646 134.841 69.5962 134.877 69.6362C134.913 69.6763 134.94 69.7238 134.955 69.7754C134.97 69.827 134.974 69.8814 134.966 69.9347C134.954 70.0509 134.898 70.1582 134.811 70.2357C134.723 70.3131 134.61 70.3551 134.493 70.3534Z" fill="#263238"/>
<path d="M133.978 72.861H74.6954C74.6416 72.8635 74.5879 72.854 74.5382 72.8332C74.4885 72.8124 74.444 72.7809 74.408 72.7408C74.3719 72.7008 74.3452 72.6532 74.3298 72.6016C74.3143 72.55 74.3105 72.4956 74.3186 72.4423C74.3327 72.3283 74.3875 72.2231 74.4728 72.1462C74.5582 72.0693 74.6685 72.0258 74.7834 72.0236H134.075C134.128 72.0219 134.181 72.0319 134.231 72.0529C134.28 72.074 134.324 72.1055 134.36 72.1454C134.396 72.1853 134.423 72.2325 134.439 72.2838C134.454 72.3351 134.459 72.3892 134.451 72.4423C134.437 72.5578 134.381 72.664 134.294 72.7411C134.207 72.8182 134.095 72.8609 133.978 72.861Z" fill="#263238"/>
<path d="M133.436 75.3699H74.1529C74.0992 75.3725 74.0456 75.363 73.9961 75.3422C73.9465 75.3214 73.9022 75.2897 73.8665 75.2496C73.8308 75.2094 73.8045 75.1618 73.7895 75.1102C73.7746 75.0585 73.7715 75.0042 73.7803 74.9512C73.7944 74.8371 73.8491 74.732 73.9345 74.6551C74.0199 74.5782 74.1301 74.5346 74.245 74.5325H133.532C133.585 74.5305 133.638 74.5404 133.687 74.5615C133.737 74.5826 133.78 74.6144 133.816 74.6544C133.851 74.6945 133.877 74.7419 133.891 74.7932C133.906 74.8446 133.909 74.8985 133.9 74.9512C133.886 75.0652 133.832 75.1703 133.746 75.2473C133.661 75.3242 133.551 75.3677 133.436 75.3699Z" fill="#263238"/>
<path d="M132.872 77.8767H73.589C73.5354 77.8794 73.4819 77.87 73.4325 77.8492C73.3831 77.8284 73.339 77.7966 73.3036 77.7564C73.2681 77.7161 73.2423 77.6684 73.2279 77.6167C73.2135 77.565 73.211 77.5108 73.2205 77.458C73.2355 77.3436 73.2912 77.2384 73.3772 77.1616C73.4633 77.0847 73.5741 77.0413 73.6894 77.0393H132.972C133.026 77.0373 133.079 77.0473 133.128 77.0684C133.177 77.0895 133.22 77.1212 133.256 77.1613C133.291 77.2013 133.317 77.2487 133.332 77.3001C133.346 77.3514 133.349 77.4053 133.341 77.458C133.326 77.5727 133.271 77.6784 133.185 77.7554C133.099 77.8325 132.987 77.8755 132.872 77.8767Z" fill="#263238"/>
<path d="M94.6171 80.3855H73.0125C72.9593 80.3876 72.9062 80.3777 72.8574 80.3566C72.8085 80.3355 72.7649 80.3037 72.73 80.2635C72.695 80.2233 72.6695 80.1758 72.6554 80.1245C72.6412 80.0731 72.6388 80.0192 72.6482 79.9668C72.6641 79.8528 72.7199 79.7481 72.8058 79.6714C72.8917 79.5947 73.002 79.551 73.1172 79.5481H94.7175C94.7708 79.546 94.8238 79.5559 94.8727 79.577C94.9216 79.5981 94.9651 79.63 95 79.6702C95.035 79.7103 95.0605 79.7579 95.0746 79.8092C95.0888 79.8605 95.0912 79.9144 95.0818 79.9668C95.0661 80.0802 95.0108 80.1843 94.9258 80.2609C94.8408 80.3375 94.7314 80.3817 94.6171 80.3855Z" fill="#263238"/>
<g opacity="0.1">
<path d="M126.06 121.271H56.2344C69.0548 83.4968 76.8006 45.1529 78.534 7.38672H148.359C146.634 45.1529 138.88 83.501 126.06 121.271Z" fill="black"/>
</g>
<path d="M116.581 113.877H46.7559C62.8588 78.5558 73.5187 42.6989 78.5347 7.37793H148.36C143.344 42.6989 132.684 78.5558 116.581 113.877Z" fill="white"/>
<path d="M142.288 18.5777H81.0914C81.0658 18.5795 81.0401 18.5759 81.016 18.5672C80.9919 18.5584 80.9699 18.5448 80.9514 18.527C80.9328 18.5093 80.9182 18.4879 80.9084 18.4642C80.8987 18.4405 80.8939 18.415 80.8946 18.3893C80.8999 18.3357 80.9252 18.286 80.9656 18.2503C81.006 18.2145 81.0584 18.1954 81.1123 18.1967H142.313C142.339 18.1949 142.365 18.1986 142.389 18.2076C142.414 18.2166 142.436 18.2307 142.454 18.2489C142.473 18.267 142.487 18.289 142.497 18.3132C142.506 18.3374 142.511 18.3634 142.509 18.3893C142.503 18.443 142.477 18.4922 142.436 18.5272C142.394 18.5622 142.342 18.5802 142.288 18.5777Z" fill="#263238"/>
<path d="M89.3461 13.5535C89.0823 15.2073 87.3657 16.5514 85.5318 16.5514C83.6979 16.5514 82.4419 15.2073 82.7098 13.5535C82.9778 11.8997 84.6609 10.5557 86.4781 10.5557C88.2952 10.5557 89.6141 11.9039 89.3461 13.5535Z" fill="#042b62"/>
<path d="M84.1562 13.1012C84.1562 13.1012 82.2721 15.2282 82.7662 15.8771C83.2602 16.5261 88.4144 12.8835 89.6453 11.6358C90.8763 10.3881 89.4737 10.8863 89.4737 10.8863C89.4737 10.8863 89.997 10.9156 89.6997 11.305C89.101 12.088 84.2567 14.8932 83.7836 14.7467C83.3105 14.6001 84.1604 13.1012 84.1562 13.1012Z" fill="#263238"/>
<path d="M142.519 12.5488H136.239C136.186 12.5541 136.132 12.5481 136.082 12.5314C136.031 12.5146 135.984 12.4874 135.945 12.4514C135.905 12.4155 135.874 12.3717 135.852 12.3228C135.831 12.274 135.82 12.2211 135.82 12.1678C135.831 12.0641 135.879 11.9681 135.957 11.8984C136.034 11.8288 136.135 11.7904 136.239 11.791H142.519C142.572 11.7843 142.626 11.7892 142.677 11.8052C142.728 11.8212 142.775 11.848 142.815 11.8837C142.855 11.9195 142.886 11.9633 142.907 12.0123C142.929 12.0614 142.939 12.1144 142.938 12.1678C142.929 12.2722 142.88 12.3692 142.803 12.4398C142.725 12.5103 142.624 12.5492 142.519 12.5488Z" fill="#263238"/>
<path d="M142.238 14.3115H138.18C138.127 14.3168 138.074 14.3108 138.023 14.2941C137.972 14.2773 137.926 14.2501 137.886 14.2141C137.847 14.1782 137.815 14.1344 137.794 14.0855C137.772 14.0367 137.761 13.9838 137.762 13.9305C137.772 13.8268 137.821 13.7308 137.898 13.6611C137.976 13.5914 138.076 13.5531 138.18 13.5536H142.238C142.291 13.547 142.344 13.5519 142.395 13.5679C142.446 13.5839 142.493 13.6107 142.533 13.6464C142.573 13.6822 142.604 13.726 142.626 13.775C142.647 13.824 142.657 13.8771 142.656 13.9305C142.647 14.0349 142.599 14.1319 142.521 14.2025C142.444 14.273 142.342 14.3119 142.238 14.3115Z" fill="#263238"/>
<path d="M141.946 16.0908H131.345C131.291 16.0967 131.237 16.0913 131.186 16.0748C131.135 16.0582 131.089 16.0311 131.049 15.995C131.009 15.9589 130.978 15.9148 130.957 15.8657C130.935 15.8165 130.925 15.7633 130.926 15.7098C130.936 15.6024 130.988 15.5033 131.07 15.4331C131.152 15.3629 131.258 15.327 131.365 15.3329H141.988C142.041 15.3263 142.095 15.3312 142.146 15.3472C142.196 15.3632 142.243 15.39 142.283 15.4257C142.323 15.4615 142.354 15.5053 142.376 15.5543C142.397 15.6033 142.407 15.6564 142.406 15.7098C142.402 15.7652 142.386 15.8192 142.36 15.8685C142.334 15.9178 142.299 15.9615 142.256 15.9969C142.213 16.0324 142.164 16.059 142.11 16.0751C142.057 16.0912 142.001 16.0965 141.946 16.0908Z" fill="#263238"/>
<path d="M75.8251 107.964H54.3964C54.3483 107.97 54.2997 107.963 54.2551 107.944C54.2106 107.925 54.1717 107.895 54.1422 107.857C54.1127 107.818 54.0936 107.773 54.0868 107.725C54.08 107.677 54.0857 107.628 54.1033 107.583C54.1471 107.475 54.2215 107.382 54.3174 107.315C54.4133 107.248 54.5265 107.21 54.6434 107.207H76.0721C76.12 107.2 76.1687 107.206 76.2134 107.225C76.2581 107.243 76.2972 107.273 76.3269 107.311C76.3566 107.349 76.3757 107.394 76.3824 107.442C76.3891 107.49 76.3832 107.539 76.3652 107.583C76.3225 107.693 76.2486 107.787 76.1525 107.855C76.0565 107.923 75.9426 107.961 75.8251 107.964Z" fill="#263238"/>
<path d="M114.304 107.965H89.6015C89.5534 107.971 89.5047 107.964 89.4602 107.945C89.4156 107.926 89.3767 107.896 89.3472 107.857C89.3177 107.819 89.2987 107.774 89.2919 107.726C89.285 107.678 89.2907 107.629 89.3084 107.584C89.3522 107.476 89.4265 107.382 89.5224 107.315C89.6183 107.248 89.7316 107.211 89.8485 107.207H114.572C114.62 107.201 114.669 107.208 114.713 107.226C114.758 107.244 114.797 107.274 114.827 107.312C114.857 107.35 114.877 107.395 114.884 107.442C114.892 107.49 114.887 107.539 114.87 107.584C114.824 107.696 114.746 107.793 114.645 107.861C114.544 107.929 114.426 107.965 114.304 107.965Z" fill="#263238"/>
<path d="M79.6772 86.0381H68.3139C68.2655 86.0433 68.2165 86.0367 68.1713 86.0186C68.126 86.0005 68.086 85.9716 68.0545 85.9343C68.0231 85.8971 68.0013 85.8527 67.991 85.8051C67.9808 85.7575 67.9824 85.7081 67.9957 85.6612C68.0316 85.5514 68.101 85.4556 68.1941 85.3873C68.2872 85.319 68.3994 85.2815 68.5149 85.2802H79.874C79.9229 85.2747 79.9724 85.2813 80.0181 85.2996C80.0638 85.3179 80.1042 85.3473 80.1357 85.385C80.1673 85.4228 80.189 85.4678 80.1988 85.516C80.2087 85.5642 80.2064 85.6141 80.1922 85.6612C80.1564 85.7699 80.0875 85.8647 79.9952 85.9322C79.9028 85.9998 79.7917 86.0368 79.6772 86.0381Z" fill="#263238"/>
<path d="M119.101 86.0381H102.55C102.502 86.0433 102.453 86.0367 102.408 86.0186C102.362 86.0005 102.322 85.9716 102.291 85.9343C102.259 85.8971 102.238 85.8527 102.227 85.8051C102.217 85.7575 102.219 85.7081 102.232 85.6612C102.268 85.5514 102.337 85.4556 102.43 85.3873C102.524 85.319 102.636 85.2815 102.751 85.2802H119.298C119.347 85.2747 119.396 85.2813 119.442 85.2996C119.488 85.3179 119.528 85.3473 119.56 85.385C119.591 85.4228 119.613 85.4678 119.623 85.516C119.633 85.5642 119.63 85.6141 119.616 85.6612C119.581 85.7703 119.512 85.8654 119.42 85.933C119.327 86.0007 119.216 86.0374 119.101 86.0381Z" fill="#263238"/>
<path d="M101.044 103.526C100.694 103.542 100.345 103.468 100.031 103.312C99.4994 103.002 99.3696 102.475 99.6585 101.797C99.7007 101.696 99.7483 101.599 99.8008 101.503C98.1912 102.145 96.5002 102.559 94.7765 102.734C93.7465 102.797 93.4953 102.395 93.4702 102.044C93.4199 101.42 94.0312 100.427 95.0068 99.276C92.7458 100.289 91.0878 100.905 91.0543 100.917C90.9329 100.963 90.824 100.917 90.8031 100.825C90.8001 100.769 90.8162 100.714 90.849 100.668C90.8817 100.622 90.929 100.589 90.9831 100.574C91.0208 100.574 92.9929 99.8245 95.5636 98.6438C98.1763 95.8008 102.522 92.3006 104.775 91.1073C106.395 90.2699 107.337 90.0145 107.58 90.4122C107.957 91.0403 106.106 92.9244 103.054 94.9676C100.744 96.4729 98.3193 97.7944 95.8023 98.9201C94.6258 100.214 93.8512 101.323 93.8972 101.926C93.8972 102.052 93.9391 102.425 94.8602 102.345C96.6741 102.152 98.4508 101.7 100.136 101.001C101.442 99.2341 104.478 97.149 105.868 96.8141C106.404 96.6801 106.617 96.8141 106.705 96.9564C106.793 97.0988 106.818 97.3249 106.525 97.7017C105.784 98.6605 103.213 100.172 100.383 101.29C100.263 101.464 100.159 101.649 100.073 101.843C99.8511 102.37 99.939 102.743 100.349 102.981C101.287 103.522 103.699 102.751 106.094 101.646C106.116 101.516 106.155 101.389 106.211 101.269C106.881 99.7449 110.155 97.3835 111.897 97.5007C112.244 97.5007 112.316 97.6724 112.316 97.798C112.353 98.3507 110.879 99.3765 109.636 100.143C108.625 100.753 107.584 101.312 106.517 101.817C106.575 102.023 106.78 102.152 107.132 102.211C109.724 102.63 115.782 98.8405 115.837 98.8028C115.876 98.7667 115.928 98.7466 115.981 98.7466C116.035 98.7466 116.086 98.7667 116.126 98.8028C116.146 98.8519 116.147 98.9069 116.128 98.9567C116.11 99.0065 116.073 99.0473 116.025 99.0708C115.774 99.2299 109.72 103.023 106.948 102.563C106.768 102.557 106.594 102.5 106.445 102.398C106.297 102.297 106.181 102.155 106.111 101.989C104.256 102.856 102.334 103.526 101.044 103.526ZM111.658 97.8566C110.126 97.8566 107.17 100.013 106.6 101.311C106.6 101.349 106.567 101.382 106.554 101.42C107.597 100.913 108.606 100.36 109.46 99.8328C111.252 98.7317 111.901 98.0618 111.888 97.9027C111.888 97.9027 111.851 97.8692 111.746 97.8608L111.658 97.8566ZM106.131 97.1323C106.043 97.135 105.956 97.1491 105.872 97.1741C104.674 97.4714 102.137 99.1964 100.801 100.737C103.314 99.6905 105.533 98.38 106.173 97.5468C106.299 97.3835 106.341 97.2663 106.295 97.1909C106.274 97.1685 106.249 97.1514 106.22 97.1411C106.192 97.1309 106.161 97.1279 106.131 97.1323ZM107.023 90.6174C106.768 90.6174 106.165 90.7723 104.93 91.4339C102.769 92.5811 98.9886 95.6501 96.4513 98.2544C98.6681 97.227 100.808 96.0404 102.853 94.7039C106.069 92.535 107.358 90.9356 107.191 90.6635C107.166 90.6174 107.115 90.6174 107.023 90.6174Z" fill="#263238"/>
<path d="M96.6014 23.1245C96.7209 22.6406 97.0044 22.213 97.4037 21.9145C97.8029 21.6161 98.2932 21.4651 98.7912 21.4874C99.0326 21.47 99.2748 21.509 99.4986 21.6013C99.7224 21.6936 99.9217 21.8367 100.081 22.0192L99.5951 22.3792C99.4882 22.2546 99.354 22.1561 99.203 22.0915C99.052 22.0269 98.8882 21.9978 98.7242 22.0066C98.388 21.9931 98.0576 22.0974 97.79 22.3015C97.5225 22.5056 97.3346 22.7967 97.2588 23.1245C97.1373 23.7777 97.5728 24.2424 98.3013 24.2424C98.6735 24.2433 99.0334 24.1095 99.3146 23.8656L99.6663 24.2299C99.2485 24.5845 98.7152 24.7737 98.1673 24.7616C97.0913 24.7616 96.4214 24.075 96.6014 23.1245Z" fill="black"/>
<path d="M100.181 23.1246C100.302 22.6404 100.586 22.2127 100.986 21.9143C101.386 21.6159 101.877 21.4651 102.375 21.4875C103.468 21.4875 104.142 22.1784 103.966 23.1246C103.844 23.6099 103.557 24.0379 103.155 24.3362C102.753 24.6344 102.26 24.7848 101.76 24.7617C100.671 24.7617 100.001 24.0667 100.181 23.1246ZM103.309 23.1246C103.341 22.9792 103.338 22.8282 103.3 22.6843C103.261 22.5405 103.188 22.408 103.088 22.2983C102.987 22.1885 102.861 22.1047 102.721 22.054C102.581 22.0032 102.431 21.987 102.283 22.0067C101.95 21.9965 101.624 22.1025 101.36 22.3064C101.097 22.5104 100.913 22.7996 100.839 23.1246C100.713 23.7736 101.153 24.2425 101.86 24.2425C102.194 24.2521 102.52 24.146 102.784 23.9422C103.048 23.7385 103.234 23.4496 103.309 23.1246Z" fill="black"/>
<path d="M108.082 21.5332C107.886 22.5925 107.685 23.656 107.479 24.7153H106.944L105.415 22.559C105.281 23.2792 105.142 23.9979 104.997 24.7153H104.348C104.553 23.656 104.766 22.5925 104.951 21.5332H105.487C106.003 22.2478 106.515 22.9665 107.023 23.6895L107.442 21.5332H108.082Z" fill="black"/>
<path d="M109.648 22.0314H108.484C108.514 21.864 108.543 21.7007 108.576 21.5332H111.558C111.528 21.7007 111.495 21.864 111.465 22.0314H110.302C110.134 22.9275 109.967 23.8235 109.791 24.7153H109.142C109.315 23.8249 109.484 22.9302 109.648 22.0314Z" fill="black"/>
<path d="M113.751 24.7158L113.211 23.7821C113.166 23.7862 113.121 23.7862 113.077 23.7821H112.302L112.126 24.7075H111.465C111.67 23.6482 111.884 22.5847 112.064 21.5254H113.508C114.433 21.5254 114.927 21.9441 114.798 22.6559C114.749 22.8936 114.636 23.1133 114.47 23.2906C114.305 23.468 114.094 23.5961 113.86 23.6607C114.061 24.0124 114.278 24.3599 114.467 24.7075L113.751 24.7158ZM113.374 22.032H112.612L112.373 23.2881H113.14C113.713 23.2881 114.057 23.0536 114.132 22.6517C114.207 22.2497 113.948 22.032 113.374 22.032Z" fill="black"/>
<path d="M117.543 23.9784H115.785C115.626 24.2254 115.462 24.4724 115.299 24.7153H114.625C115.359 23.6574 116.086 22.5967 116.806 21.5332H117.451C117.782 22.5925 118.113 23.656 118.435 24.7153H117.744C117.686 24.4641 117.614 24.2254 117.543 23.9784ZM117.418 23.5136L116.999 22.1236C116.693 22.5883 116.388 23.0531 116.078 23.5136H117.418Z" fill="black"/>
<path d="M118.887 23.1245C119.007 22.6406 119.29 22.213 119.69 21.9146C120.089 21.6161 120.579 21.4651 121.077 21.4874C121.319 21.47 121.562 21.509 121.787 21.6013C122.011 21.6935 122.211 21.8366 122.371 22.0192L121.881 22.3793C121.774 22.2546 121.64 22.1561 121.489 22.0915C121.338 22.0269 121.174 21.9979 121.01 22.0066C120.674 21.9931 120.344 22.0974 120.076 22.3015C119.808 22.5056 119.621 22.7967 119.545 23.1245C119.423 23.7777 119.859 24.2424 120.587 24.2424C120.96 24.2433 121.319 24.1095 121.601 23.8656L121.952 24.2299C121.534 24.5845 121.001 24.7737 120.453 24.7616C119.377 24.7616 118.712 24.075 118.887 23.1245Z" fill="black"/>
<path d="M123.67 22.0314H122.506C122.535 21.864 122.564 21.7007 122.598 21.5332H125.579C125.55 21.7007 125.52 21.864 125.487 22.0314H124.323C124.156 22.9275 123.987 23.8221 123.816 24.7153H123.163C123.335 23.8235 123.507 22.9275 123.67 22.0314Z" fill="black"/>
<path d="M94.0433 29.1956H79.8077C79.7566 29.1993 79.7052 29.192 79.6571 29.1742C79.609 29.1564 79.5652 29.1285 79.5287 29.0925C79.4923 29.0564 79.4639 29.0129 79.4456 28.965C79.4273 28.9171 79.4194 28.8658 79.4225 28.8146C79.4406 28.7074 79.4967 28.6104 79.5805 28.5412C79.6643 28.472 79.7703 28.4353 79.8789 28.4378H94.1145C94.1654 28.4335 94.2167 28.4402 94.2649 28.4575C94.313 28.4748 94.3568 28.5023 94.3934 28.538C94.4299 28.5738 94.4583 28.617 94.4767 28.6647C94.495 28.7125 94.5029 28.7636 94.4997 28.8146C94.4834 28.9229 94.4279 29.0215 94.3438 29.0917C94.2597 29.1619 94.1528 29.1989 94.0433 29.1956Z" fill="#263238"/>
<path d="M86.5076 31.2471H79.3898C79.3388 31.2508 79.2876 31.2435 79.2396 31.2257C79.1917 31.2079 79.1482 31.1799 79.1121 31.1438C79.0759 31.1076 79.0479 31.0641 79.0301 31.0162C79.0123 30.9682 79.005 30.917 79.0088 30.866C79.0278 30.7585 79.0847 30.6614 79.1692 30.5922C79.2537 30.5231 79.3602 30.4865 79.4693 30.4892H86.5871C86.6377 30.4855 86.6886 30.4927 86.7362 30.5103C86.7838 30.5279 86.8271 30.5554 86.8632 30.5911C86.8993 30.6268 86.9273 30.6698 86.9454 30.7172C86.9635 30.7646 86.9712 30.8154 86.9681 30.866C86.95 30.9743 86.8935 31.0725 86.8089 31.1424C86.7243 31.2124 86.6173 31.2496 86.5076 31.2471Z" fill="#263238"/>
<path d="M136.232 41.9747H76.9488C76.8986 41.9795 76.8479 41.9729 76.8004 41.9555C76.753 41.9381 76.7101 41.9103 76.6748 41.8742C76.6395 41.8381 76.6127 41.7945 76.5963 41.7467C76.58 41.6989 76.5746 41.6481 76.5804 41.5979C76.6019 41.4897 76.6605 41.3924 76.7461 41.3228C76.8317 41.2532 76.939 41.2158 77.0493 41.2169H136.332C136.383 41.2129 136.433 41.2201 136.481 41.238C136.528 41.2559 136.571 41.2841 136.606 41.3205C136.641 41.3569 136.668 41.4007 136.684 41.4486C136.701 41.4966 136.706 41.5476 136.701 41.5979C136.679 41.7057 136.62 41.8026 136.534 41.8714C136.449 41.9403 136.342 41.9769 136.232 41.9747Z" fill="#263238"/>
<path d="M135.654 44.3194H76.3712C76.3206 44.3243 76.2694 44.3176 76.2217 44.3C76.1739 44.2823 76.1307 44.2542 76.0953 44.2176C76.06 44.181 76.0333 44.1369 76.0172 44.0886C76.0012 44.0402 75.9963 43.9889 76.0028 43.9384C76.0252 43.8303 76.0849 43.7334 76.1713 43.6645C76.2577 43.5957 76.3655 43.5593 76.4759 43.5616H135.75C135.8 43.5577 135.851 43.5648 135.898 43.5825C135.945 43.6001 135.988 43.6279 136.023 43.6638C136.058 43.6998 136.085 43.743 136.101 43.7905C136.118 43.8379 136.124 43.8884 136.119 43.9384C136.097 44.0456 136.038 44.1419 135.954 44.2113C135.869 44.2806 135.763 44.3188 135.654 44.3194Z" fill="#263238"/>
<path d="M135.059 46.6554H75.7716C75.7214 46.6597 75.6709 46.6526 75.6238 46.6346C75.5767 46.6167 75.5343 46.5883 75.4997 46.5517C75.4651 46.5151 75.4392 46.4711 75.4239 46.4231C75.4087 46.3751 75.4044 46.3242 75.4116 46.2744C75.4346 46.1662 75.4943 46.0692 75.5805 45.9998C75.6666 45.9304 75.774 45.8928 75.8847 45.8934H135.167C135.218 45.89 135.268 45.8977 135.315 45.9159C135.362 45.934 135.404 45.9623 135.439 45.9987C135.473 46.035 135.5 46.0785 135.516 46.1262C135.532 46.1738 135.537 46.2244 135.532 46.2744C135.509 46.3829 135.45 46.4803 135.364 46.5499C135.277 46.6194 135.169 46.6567 135.059 46.6554Z" fill="#263238"/>
<path d="M134.447 49.0085H75.1603C75.1101 49.0128 75.0596 49.0057 75.0125 48.9877C74.9654 48.9698 74.923 48.9414 74.8884 48.9048C74.8538 48.8682 74.8279 48.8242 74.8126 48.7762C74.7974 48.7282 74.7931 48.6774 74.8002 48.6275C74.825 48.5197 74.8858 48.4236 74.9726 48.3551C75.0594 48.2866 75.167 48.2497 75.2775 48.2506H134.56C134.61 48.2457 134.661 48.2522 134.708 48.2696C134.755 48.287 134.798 48.315 134.832 48.3513C134.867 48.3876 134.893 48.4313 134.908 48.4792C134.923 48.5271 134.928 48.5778 134.92 48.6275C134.898 48.736 134.839 48.8334 134.752 48.903C134.666 48.9725 134.558 49.0098 134.447 49.0085Z" fill="#263238"/>
<path d="M133.819 51.3528H74.5318C74.4817 51.3572 74.4313 51.3502 74.3844 51.3322C74.3375 51.3143 74.2952 51.2858 74.2609 51.2491C74.2266 51.2124 74.2011 51.1683 74.1864 51.1203C74.1717 51.0722 74.1681 51.0214 74.1759 50.9718C74.2007 50.864 74.2615 50.768 74.3483 50.6994C74.4351 50.6309 74.5427 50.5941 74.6532 50.595H133.94C133.99 50.5907 134.04 50.5977 134.086 50.6154C134.133 50.6331 134.175 50.6612 134.209 50.6974C134.243 50.7336 134.269 50.7771 134.284 50.8247C134.299 50.8722 134.303 50.9225 134.296 50.9718C134.273 51.0807 134.213 51.1782 134.126 51.2477C134.039 51.3171 133.93 51.3543 133.819 51.3528Z" fill="#263238"/>
<path d="M133.174 53.7018H73.8912C73.8411 53.7062 73.7907 53.6992 73.7438 53.6812C73.6968 53.6632 73.6546 53.6348 73.6203 53.5981C73.586 53.5614 73.5605 53.5173 73.5458 53.4693C73.531 53.4212 73.5275 53.3704 73.5353 53.3208C73.5594 53.2115 73.6205 53.114 73.7082 53.0445C73.7959 52.9751 73.9049 52.9381 74.0168 52.9398H133.3C133.35 52.9353 133.4 52.9424 133.447 52.9603C133.494 52.9783 133.536 53.0067 133.57 53.0435C133.605 53.0802 133.63 53.1243 133.645 53.1723C133.66 53.2204 133.663 53.2711 133.655 53.3208C133.63 53.4293 133.568 53.526 133.481 53.5952C133.394 53.6643 133.285 53.7019 133.174 53.7018Z" fill="#263238"/>
<path d="M132.512 56.0466H73.2296C73.1796 56.0512 73.1293 56.0442 73.0825 56.0262C73.0357 56.0083 72.9937 55.9797 72.9597 55.9429C72.9256 55.9061 72.9006 55.8619 72.8864 55.8138C72.8722 55.7657 72.8693 55.715 72.8778 55.6656C72.9034 55.5571 72.9648 55.4604 73.0522 55.3912C73.1396 55.322 73.2479 55.2845 73.3594 55.2846H132.646C132.696 55.28 132.747 55.2869 132.793 55.3049C132.84 55.3229 132.882 55.3514 132.916 55.3883C132.95 55.4251 132.975 55.4693 132.989 55.5174C133.004 55.5655 133.007 55.6162 132.998 55.6656C132.971 55.7741 132.909 55.8705 132.821 55.9395C132.733 56.0085 132.624 56.0462 132.512 56.0466Z" fill="#263238"/>
<path d="M131.838 58.3786H72.5515C72.5019 58.3825 72.452 58.3751 72.4058 58.3568C72.3595 58.3385 72.318 58.3099 72.2845 58.2731C72.251 58.2364 72.2263 58.1925 72.2123 58.1447C72.1984 58.097 72.1955 58.0466 72.204 57.9976C72.231 57.8891 72.2934 57.7927 72.3814 57.7237C72.4694 57.6547 72.5778 57.617 72.6896 57.6166H131.981C132.031 57.612 132.081 57.619 132.128 57.637C132.175 57.6549 132.217 57.6835 132.251 57.7203C132.285 57.7571 132.31 57.8013 132.324 57.8494C132.338 57.8975 132.341 57.9482 132.333 57.9976C132.305 58.1075 132.241 58.2049 132.152 58.2741C132.062 58.3433 131.952 58.3801 131.838 58.3786Z" fill="#263238"/>
<path d="M101.836 60.7361H71.8571C71.8073 60.7408 71.757 60.7339 71.7104 60.716C71.6637 60.698 71.6218 60.6694 71.5881 60.6324C71.5544 60.5954 71.5297 60.5511 71.5161 60.503C71.5025 60.4548 71.5002 60.4042 71.5096 60.355C71.5381 60.2466 71.6015 60.1505 71.69 60.0816C71.7785 60.0128 71.8873 59.9749 71.9994 59.974H101.974C102.024 59.9694 102.074 59.9764 102.121 59.9944C102.168 60.0124 102.21 60.0409 102.244 60.0777C102.278 60.1146 102.303 60.1587 102.317 60.2068C102.331 60.2549 102.334 60.3056 102.325 60.355C102.298 60.4639 102.234 60.5604 102.146 60.6293C102.057 60.6983 101.948 60.7358 101.836 60.7361Z" fill="#263238"/>
<path d="M139.548 29.1963H129.327C129.276 29.1999 129.225 29.1926 129.177 29.1748C129.129 29.1571 129.085 29.1292 129.048 29.0931C129.012 29.057 128.983 29.0136 128.965 28.9657C128.947 28.9177 128.939 28.8665 128.942 28.8153C128.96 28.7081 129.016 28.611 129.1 28.5418C129.184 28.4726 129.29 28.4359 129.398 28.4384H139.623C139.674 28.4348 139.724 28.4419 139.772 28.4595C139.82 28.4771 139.863 28.5047 139.899 28.5403C139.935 28.576 139.963 28.619 139.981 28.6664C139.999 28.7139 140.007 28.7646 140.004 28.8153C139.988 28.9236 139.932 29.0222 139.848 29.0924C139.764 29.1626 139.657 29.1995 139.548 29.1963Z" fill="#263238"/>
<path d="M130.212 63.9179H77.2386C77.1889 63.9229 77.1387 63.9161 77.0922 63.8981C77.0456 63.8801 77.0039 63.8514 76.9705 63.8143C76.9371 63.7772 76.9128 63.7328 76.8998 63.6846C76.8867 63.6364 76.8852 63.5858 76.8953 63.5369C76.9231 63.4281 76.9863 63.3316 77.075 63.2626C77.1637 63.1936 77.2728 63.1561 77.3851 63.1559H130.358C130.408 63.1509 130.458 63.1577 130.505 63.1757C130.551 63.1937 130.593 63.2224 130.626 63.2595C130.66 63.2966 130.684 63.341 130.697 63.3892C130.71 63.4374 130.712 63.488 130.702 63.5369C130.674 63.6457 130.61 63.7422 130.522 63.8112C130.433 63.8802 130.324 63.9177 130.212 63.9179Z" fill="#263238"/>
<path d="M129.468 66.2627H70.1683C70.1186 66.2677 70.0684 66.2609 70.0219 66.2429C69.9753 66.2249 69.9336 66.1962 69.9002 66.1591C69.8668 66.1221 69.8425 66.0776 69.8295 66.0294C69.8164 65.9812 69.8148 65.9306 69.8249 65.8817C69.8543 65.7729 69.9185 65.6767 70.0077 65.6079C70.0969 65.5391 70.2063 65.5014 70.319 65.5007H129.606C129.656 65.4955 129.706 65.5022 129.752 65.5202C129.799 65.5382 129.84 65.567 129.873 65.6043C129.906 65.6415 129.93 65.6861 129.943 65.7343C129.955 65.7826 129.956 65.8331 129.945 65.8817C129.917 65.9879 129.855 66.0821 129.769 66.1506C129.683 66.2192 129.578 66.2585 129.468 66.2627Z" fill="#263238"/>
<path d="M128.708 68.6071H69.421C69.3714 68.6123 69.3213 68.6056 69.2748 68.5876C69.2283 68.5696 69.1868 68.5408 69.1537 68.5036C69.1205 68.4663 69.0967 68.4218 69.0842 68.3735C69.0717 68.3253 69.0709 68.2747 69.0818 68.2261C69.1127 68.1177 69.178 68.0223 69.2679 67.9544C69.3578 67.8864 69.4674 67.8495 69.5801 67.8493H128.867C128.916 67.8443 128.966 67.8509 129.012 67.8687C129.058 67.8865 129.099 67.9149 129.132 67.9516C129.165 67.9883 129.189 68.0323 129.202 68.08C129.215 68.1277 129.216 68.1777 129.206 68.2261C129.176 68.3352 129.111 68.4316 129.021 68.5003C128.931 68.5691 128.821 68.6066 128.708 68.6071Z" fill="#263238"/>
<path d="M127.944 70.9397H68.6569C68.6077 70.9441 68.5581 70.9369 68.5122 70.9186C68.4662 70.9003 68.4253 70.8714 68.3926 70.8343C68.36 70.7971 68.3366 70.7528 68.3243 70.7049C68.312 70.657 68.3112 70.6069 68.322 70.5586C68.3529 70.4492 68.4187 70.3527 68.5094 70.284C68.6 70.2152 68.7106 70.1779 68.8244 70.1776H128.107C128.157 70.1722 128.207 70.1788 128.253 70.1968C128.299 70.2148 128.341 70.2437 128.374 70.281C128.407 70.3184 128.43 70.3632 128.442 70.4115C128.454 70.4598 128.454 70.5103 128.442 70.5586C128.411 70.6671 128.345 70.7627 128.256 70.8312C128.166 70.8998 128.057 70.9378 127.944 70.9397Z" fill="#263238"/>
<path d="M127.166 73.3012H67.8835C67.8342 73.3056 67.7846 73.2984 67.7387 73.2801C67.6928 73.2618 67.6518 73.2329 67.6192 73.1958C67.5865 73.1586 67.5631 73.1143 67.5509 73.0664C67.5386 73.0185 67.5378 72.9684 67.5485 72.9201C67.5795 72.8107 67.6453 72.7142 67.7359 72.6455C67.8266 72.5767 67.9372 72.5394 68.051 72.5391H127.338C127.387 72.5334 127.437 72.5398 127.484 72.5578C127.53 72.5758 127.571 72.6049 127.604 72.6424C127.636 72.6799 127.659 72.7248 127.671 72.7732C127.682 72.8216 127.681 72.8721 127.669 72.9201C127.637 73.0293 127.571 73.1253 127.481 73.194C127.39 73.2626 127.28 73.3002 127.166 73.3012Z" fill="#263238"/>
<path d="M88.6901 75.6459H67.0855C67.0363 75.6506 66.9868 75.6435 66.941 75.6252C66.8951 75.6069 66.8543 75.5778 66.822 75.5406C66.7896 75.5033 66.7666 75.4588 66.7549 75.4109C66.7432 75.3629 66.7432 75.3128 66.7547 75.2649C66.7871 75.1554 66.8538 75.0592 66.945 74.9906C67.0363 74.922 67.1472 74.8846 67.2613 74.8839H88.8575C88.9069 74.8782 88.9569 74.8846 89.0033 74.9026C89.0496 74.9206 89.0908 74.9496 89.1234 74.9871C89.156 75.0246 89.1789 75.0696 89.1902 75.118C89.2016 75.1664 89.2009 75.2168 89.1883 75.2649C89.1564 75.373 89.0909 75.4682 89.0013 75.5367C88.9118 75.6051 88.8028 75.6434 88.6901 75.6459Z" fill="#263238"/>
<g opacity="0.2">
<path d="M86.4373 94.4415C86.6509 94.2531 87.1868 93.8386 87.505 93.6041C87.6474 93.4953 87.8274 93.4827 87.9237 93.579C88.1037 93.7967 88.2838 93.9977 88.4596 94.2363C88.4596 94.2363 87.8651 94.9021 87.6725 95.1282C85.7465 97.41 84.5951 99.604 84.7416 100.023C86.7095 99.8217 99.5676 93.5287 105.325 89.8317C104.048 87.1604 101.008 85.494 96.867 85.6824C90.9718 85.9504 84.6411 90.0662 81.9238 95.2915C81.0417 96.89 80.5806 98.6867 80.584 100.513C82.3659 98.3323 84.3235 96.3018 86.4373 94.4415Z" fill="black"/>
<path d="M82.6152 105.189C84.0262 106.5 86.1239 107.283 88.7616 107.283C95.3477 107.283 102.817 102.455 105.225 96.4847C105.841 95.0474 106.08 93.4765 105.92 91.9209C100.02 96.1246 88.5649 103.012 82.6152 105.189Z" fill="black"/>
<path d="M86.9742 94.8561C86.9951 94.8561 78.3156 102.51 79.4712 104.842C80.6979 107.178 102.537 94.0732 107.942 89.5639C113.423 85.0671 107.942 86.8633 107.942 86.8675C107.942 86.8717 109.801 86.9596 108.424 88.3497C105.665 91.1884 85.7851 101.3 84.1898 100.76C82.5946 100.22 86.9867 94.8603 86.9742 94.8561Z" fill="black"/>
</g>
<path d="M60.4126 104.309C57.3352 104.309 56.7197 103.116 56.749 102.086C56.8537 99.038 62.7991 93.8252 68.9958 91.3591C72.3998 90.0067 75.1129 89.9188 75.9126 91.1414C76.5658 92.1505 75.7619 93.8168 73.6852 95.7177C69.582 99.486 66.1906 100.323 64.6916 99.5111C64.4813 99.4017 64.3026 99.2403 64.1725 99.0421C63.7956 99.218 63.3811 99.4022 62.9164 99.5906C62.8945 99.6042 62.87 99.613 62.8445 99.6163C62.819 99.6196 62.7931 99.6175 62.7685 99.6099C62.7439 99.6024 62.7212 99.5897 62.7019 99.5726C62.6826 99.5556 62.6673 99.5346 62.6568 99.5111C62.6513 99.4558 62.6649 99.4002 62.6953 99.3538C62.7258 99.3073 62.7713 99.2727 62.8243 99.2557C63.2639 99.0673 63.6616 98.8914 64.0175 98.7239C63.9789 98.5135 63.9842 98.2974 64.0332 98.0891C64.0822 97.8809 64.1738 97.685 64.3023 97.5139C64.5647 97.1268 64.9161 96.8081 65.3269 96.5845C65.7377 96.3608 66.1961 96.2388 66.6637 96.2285C67.0573 96.2495 67.2875 96.4253 67.275 96.7016C67.2499 97.246 66.312 97.987 64.5995 98.837C64.6996 98.9776 64.8316 99.0924 64.9847 99.1719C66.0021 99.7246 68.9497 99.5906 73.413 95.4958C75.3223 93.7457 76.0843 92.2468 75.5065 91.3884C74.8114 90.3208 72.2239 90.4464 69.0712 91.6983C63.0462 94.0932 57.2682 99.1008 57.1677 101.994C57.1258 103.338 58.4238 104.008 60.9108 103.924C64.1013 103.824 67.4718 102.521 70.3063 100.993C71.2023 99.2766 73.8108 97.0492 76.5867 95.7135C77.1394 95.4456 77.4576 95.3869 77.6041 95.5209C77.7507 95.6549 77.6962 95.8015 77.5371 96.0443C76.9593 96.9319 74.2169 99.2264 70.6538 101.169C70.6078 101.27 70.5659 101.37 70.5324 101.462C70.4297 101.66 70.3946 101.885 70.4324 102.105C70.4702 102.324 70.5789 102.525 70.7418 102.676C71.9225 103.656 76.2141 100.738 77.7507 99.5278C77.7925 99.4916 77.846 99.4716 77.9014 99.4716C77.9568 99.4716 78.0103 99.4916 78.0521 99.5278C78.1191 99.5948 78.0898 99.7162 77.9893 99.7958C77.759 99.9842 72.0648 104.401 70.3984 102.999C69.9797 102.655 69.8918 102.128 70.1179 101.475C67.2415 102.986 63.9045 104.221 60.8187 104.318L60.4126 104.309ZM77.2315 95.835C77.0529 95.8826 76.8802 95.95 76.7165 96.0359C74.3258 97.1915 71.9936 99.0966 70.9678 100.642C72.7491 99.6388 74.4314 98.4696 75.9922 97.1497C76.4739 96.7816 76.8925 96.3376 77.2315 95.835ZM66.4795 96.6053C66.1227 96.63 65.7762 96.7352 65.4659 96.9128C65.1555 97.0905 64.8894 97.336 64.6874 97.6311C64.4974 97.8854 64.4161 98.2046 64.4614 98.5188C66.2785 97.6186 66.8312 97.024 66.8395 96.7854C66.8395 96.6389 66.626 96.6137 66.5297 96.6095L66.4795 96.6053Z" fill="#042b62"/>
<path d="M45.5555 27.4418C45.5555 27.4418 37.839 19.8091 28.5649 19.3359C28.5649 19.3359 23.0465 32.7006 20.3711 45.9565L38.7475 49.2306C38.7475 49.2306 41.289 35.4766 45.5555 27.4418Z" fill="#042b62"/>
<path opacity="0.6" d="M45.5544 27.442C41.2879 35.4767 38.7632 49.214 38.7632 49.214L20.3867 45.9398C21.3717 41.2041 22.6057 36.5236 24.0838 31.9178C25.0886 28.7316 26.0768 25.9221 26.8681 23.7659C27.8855 21.0025 28.5805 19.3193 28.5805 19.3193C37.8379 19.8092 45.5544 27.442 45.5544 27.442Z" fill="white"/>
<path d="M41.5761 19.813C41.3877 19.993 41.1993 20.1814 41.0276 20.3782L40.9355 20.4871C40.566 20.9007 40.2815 21.383 40.0981 21.9064C40.0256 22.1327 39.9862 22.3682 39.9809 22.6057C39.9972 23.0192 40.0981 23.4251 40.2774 23.7981C40.4567 24.1712 40.7106 24.5035 41.0235 24.7745C40.99 25.6956 38.6118 24.7996 38.6118 24.7996C38.6118 24.7996 35.1157 22.9322 34.6719 20.8095C36.0159 20.5331 37.2343 19.0384 38.1931 17.3846C38.4359 16.9659 38.662 16.5472 38.8714 16.1075C39.2314 15.3706 39.5329 14.6505 39.7632 14.0518L41.5761 19.813Z" fill="#FFCDB0"/>
<path opacity="0.2" d="M41.0269 20.3779L40.9348 20.4868C40.5653 20.9004 40.2807 21.3827 40.0974 21.9061C40.0249 22.1324 39.9854 22.3679 39.9802 22.6054C38.9544 21.6298 37.648 19.7875 38.1923 17.3842C38.3117 16.8592 38.5004 16.3523 38.7534 15.877L38.8706 16.1072L41.0269 20.3779Z" fill="black"/>
<path d="M50.3763 11.9498C50.3763 11.9498 49.3757 16.5555 46.4155 17.3719C43.4553 18.1884 46.5537 10.0322 46.5537 10.0322L50.3763 11.9498Z" fill="#263238"/>
<path d="M38.3562 18.2805C38.5669 19.1862 39.0696 19.9974 39.7869 20.5891C40.5042 21.1808 41.3962 21.5201 42.3254 21.5547C43.0043 21.587 43.6824 21.4763 44.3157 21.2296C44.949 20.9829 45.5234 20.6058 46.0015 20.1228C48.1578 17.887 50.3015 13.3525 48.1452 10.5222C47.6714 9.89545 47.045 9.40039 46.3258 9.08407C45.6066 8.76775 44.8184 8.64069 44.0362 8.71496C43.254 8.78924 42.5039 9.06238 41.857 9.50841C41.2102 9.95445 40.6883 10.5585 40.3408 11.2632C38.8042 14.2527 37.7742 15.94 38.3562 18.2805Z" fill="#FFCDB0"/>
<path d="M44.2603 14.663C44.2226 14.7035 44.1934 14.7512 44.1743 14.8031C44.1551 14.855 44.1465 14.9102 44.1488 14.9655C44.1511 15.0208 44.1644 15.0751 44.1879 15.1252C44.2113 15.1753 44.2444 15.2203 44.2854 15.2575C44.4445 15.3496 44.679 15.2282 44.8171 14.9938C44.9553 14.7593 44.9427 14.4913 44.792 14.4034C44.6413 14.3155 44.4026 14.416 44.2603 14.663Z" fill="#263238"/>
<path d="M46.9242 16.2376C46.85 16.3198 46.8114 16.4281 46.8169 16.5388C46.8224 16.6494 46.8715 16.7534 46.9535 16.8279C47.1085 16.92 47.3471 16.7986 47.4853 16.5641C47.6234 16.3297 47.6109 16.0659 47.456 15.9738C47.3011 15.8817 47.0582 16.0156 46.9242 16.2376Z" fill="#263238"/>
<path d="M46.0106 15.8525C45.8649 16.7398 45.8423 17.6429 45.9436 18.5364C45.7136 18.5568 45.4819 18.5265 45.2649 18.4477C45.0478 18.3688 44.8507 18.2433 44.6875 18.08L46.0106 15.8525Z" fill="#F9B2A9"/>
<path d="M48.5839 15.6727C48.5545 15.6723 48.5257 15.6639 48.5006 15.6484C48.4755 15.6329 48.4551 15.6109 48.4415 15.5848C48.3521 15.4045 48.2219 15.2474 48.0613 15.1261C47.9007 15.0047 47.7141 14.9224 47.5162 14.8856C47.4736 14.8813 47.4344 14.8605 47.407 14.8276C47.3796 14.7947 47.3662 14.7524 47.3697 14.7097C47.3718 14.6888 47.378 14.6685 47.388 14.65C47.398 14.6314 47.4115 14.6151 47.4279 14.6018C47.4443 14.5886 47.4631 14.5787 47.4833 14.5728C47.5035 14.5669 47.5246 14.5651 47.5455 14.5674C47.7973 14.6071 48.0357 14.707 48.2405 14.8586C48.4454 15.0102 48.6106 15.2091 48.7221 15.4383C48.7326 15.4564 48.7394 15.4764 48.7421 15.4972C48.7448 15.518 48.7434 15.5391 48.738 15.5593C48.7325 15.5795 48.7232 15.5985 48.7104 15.6151C48.6976 15.6317 48.6816 15.6456 48.6634 15.656C48.6381 15.666 48.6112 15.6717 48.5839 15.6727Z" fill="#263238"/>
<path d="M44.3602 13.286C44.3319 13.2699 44.3098 13.2448 44.2974 13.2148C44.29 13.1727 44.2995 13.1293 44.3237 13.0941C44.348 13.0588 44.3851 13.0345 44.4272 13.0264C44.678 12.9785 44.9368 12.9915 45.1816 13.0643C45.4264 13.1372 45.6501 13.2678 45.834 13.4451C45.8494 13.4596 45.8618 13.4771 45.8702 13.4965C45.8786 13.516 45.883 13.5369 45.883 13.5581C45.883 13.5793 45.8786 13.6003 45.8702 13.6197C45.8618 13.6392 45.8494 13.6567 45.834 13.6712C45.8036 13.7004 45.7631 13.7166 45.7209 13.7166C45.6788 13.7166 45.6383 13.7004 45.6079 13.6712C45.4573 13.5368 45.2776 13.4392 45.0828 13.3861C44.8881 13.3331 44.6837 13.326 44.4858 13.3655C44.4599 13.3635 44.435 13.3552 44.4131 13.3413C44.3912 13.3275 44.373 13.3085 44.3602 13.286Z" fill="#263238"/>
<path d="M44.5975 8.90122L44.0532 10.2955C43.7757 10.2849 43.5043 10.3789 43.2927 10.5587C43.081 10.7386 42.9446 10.9912 42.9102 11.2668C42.7511 12.5941 41.2354 13.9758 40.0212 14.1977C40.0212 14.1977 40.2431 13.7078 39.7825 13.6073C39.322 13.5068 38.1078 16.0525 38.2794 17.6561C38.2794 17.6561 37.6556 15.9562 38.3632 12.9877C39.0163 10.2452 40.0002 8.19363 40.9884 7.51953L44.5975 8.90122Z" fill="#263238"/>
<path d="M37.6735 12.8879C37.6084 13.7336 37.8809 14.5706 38.4314 15.2159C39.1641 16.0532 40.1522 15.555 40.4662 14.5376C40.7384 13.6332 40.7007 12.0757 39.7084 11.6067C38.7161 11.1378 37.774 11.8538 37.6735 12.8879Z" fill="#FFCDB0"/>
<path d="M44.0533 18.7204C43.7077 18.9689 43.3803 19.2417 43.0735 19.5369L42.8935 19.4029C42.0854 18.7832 41.9138 18.2264 41.9682 17.7993C41.9984 17.5918 42.0789 17.3949 42.2027 17.2257C42.2689 17.1266 42.3493 17.0377 42.4413 16.9619C42.7732 17.565 43.23 18.0903 43.7811 18.5027C43.9528 18.6409 44.0533 18.7204 44.0533 18.7204Z" fill="#263238"/>
<path d="M43.7914 18.5027L43.4983 18.7372C42.7363 18.151 42.2757 17.6402 42.2129 17.2257C42.2791 17.1266 42.3595 17.0377 42.4515 16.9619C42.7834 17.565 43.2402 18.0903 43.7914 18.5027Z" fill="white"/>
<path d="M42.9033 19.4024C42.0952 18.7828 41.9235 18.2259 41.978 17.7988C42.2812 18.0404 42.5392 18.3338 42.74 18.6655C42.8724 18.8871 42.9297 19.1456 42.9033 19.4024Z" fill="#F9B2A9"/>
<path d="M44.054 10.2962C44.054 10.2962 50.0874 15.3205 51.0839 10.3464C51.0839 10.3464 48.1865 6.69963 44.6821 6.05903C41.1776 5.41843 40.1309 8.90614 40.1309 8.90614L44.054 10.2962Z" fill="#263238"/>
<path d="M22.3115 125.031H18.0701C18 125.032 17.9322 125.056 17.8775 125.1C17.8229 125.144 17.7846 125.205 17.7687 125.273L17.082 128.384C17.0687 128.452 17.069 128.522 17.083 128.589C17.0969 128.657 17.1241 128.721 17.1631 128.778C17.2021 128.835 17.252 128.883 17.31 128.921C17.3679 128.958 17.4328 128.984 17.5007 128.996H17.6137C18.9871 128.975 19.9877 128.891 21.7086 128.891C22.772 128.891 25.9751 129 27.4447 129C28.9143 129 29.0985 127.551 28.4998 127.417C25.8076 126.831 23.7811 126.019 22.9186 125.244C22.8365 125.17 22.7406 125.113 22.6364 125.077C22.5322 125.04 22.4218 125.024 22.3115 125.031Z" fill="black"/>
<path d="M40.3076 124.921H36.0662C35.997 124.921 35.9298 124.945 35.8758 124.988C35.8218 125.032 35.7841 125.092 35.7689 125.16L35.0781 128.271C35.0633 128.346 35.0654 128.424 35.0842 128.499C35.103 128.573 35.138 128.643 35.1868 128.703C35.2356 128.762 35.2969 128.81 35.3664 128.844C35.4359 128.877 35.5119 128.894 35.5889 128.895C36.9622 128.869 37.9629 128.786 39.6879 128.786C40.7472 128.786 43.9544 128.899 45.4198 128.899C46.8852 128.899 47.0946 127.45 46.4749 127.316C43.7827 126.73 41.7563 125.918 40.8937 125.143C40.7344 124.996 40.5243 124.916 40.3076 124.921Z" fill="black"/>
<path d="M20.3849 44.4492L39.1968 47.2628C39.4145 48.4394 38.8954 50.8636 38.8954 50.8636C41.0767 65.1369 45.3977 98.7956 41.9225 125.437H35.6421C35.6421 125.437 36.2241 79.3389 30.6806 64.446C30.0442 72.4012 23.5628 125.404 23.5628 125.404H17.1777C17.1777 125.404 18.1324 105.474 19.0912 86.6451C19.5936 76.7012 18.5636 56.248 19.5099 48.9627L20.3849 44.4492Z" fill="#263238"/>
<path opacity="0.2" d="M30.6895 64.4463C31.5977 67.0585 32.2867 69.7418 32.7494 72.4684C33.2686 65.3716 31.1961 57.8477 31.1961 57.8477L30.6895 64.4463Z" fill="black"/>
<path d="M25.5312 47.9574L36.1619 49.5569L36.4298 47.4466L25.8411 45.8682L25.5312 47.9574Z" fill="black"/>
<path d="M24.9407 45.7299L20.1048 45.0098L19.707 47.0823L24.656 47.8234L24.9407 45.7299Z" fill="black"/>
<path d="M37.2644 47.5723L36.875 49.6615L38.9392 49.9714L39.1987 47.8612L37.2644 47.5723Z" fill="black"/>
<path d="M33.3102 46.9907C33.1644 46.7888 32.9474 46.6496 32.703 46.6013L31.0283 46.3082C30.9302 46.2897 30.8293 46.2921 30.7322 46.3153C30.6351 46.3385 30.5441 46.3819 30.465 46.4428C30.3859 46.5037 30.3206 46.5807 30.2733 46.6686C30.2261 46.7565 30.198 46.8535 30.1909 46.953L30.0695 48.0416C30.0513 48.2771 30.1145 48.5117 30.2487 48.7061C30.3829 48.9004 30.5797 49.0428 30.8064 49.1093H30.8775L32.5523 49.3982C32.6504 49.4168 32.7513 49.4144 32.8484 49.3912C32.9454 49.368 33.0365 49.3245 33.1156 49.2636C33.1947 49.2027 33.26 49.1258 33.3072 49.0378C33.3545 48.9499 33.3826 48.853 33.3897 48.7534L33.5111 47.669C33.5297 47.4259 33.4582 47.1844 33.3102 46.9907ZM32.5523 48.9711L30.8775 48.678C30.8184 48.67 30.7616 48.6494 30.7111 48.6176C30.6605 48.5859 30.6174 48.5437 30.5845 48.4938C30.5095 48.3974 30.4736 48.2763 30.484 48.1547L30.6054 47.0661C30.609 47.0167 30.6232 46.9688 30.647 46.9254C30.6709 46.8821 30.7038 46.8444 30.7436 46.815C30.7834 46.7856 30.829 46.7651 30.8774 46.755C30.9258 46.7448 30.9759 46.7453 31.0241 46.7562L32.6989 47.0493H32.7491C32.8526 47.0801 32.9436 47.1432 33.0087 47.2294C33.0825 47.3262 33.1169 47.4473 33.105 47.5685L33.0841 47.7318C33.0642 47.7209 33.0431 47.7125 33.0213 47.7067L32.5523 47.6188C32.5164 47.612 32.4794 47.6133 32.444 47.6223C32.4086 47.6314 32.3756 47.648 32.3473 47.6712C32.319 47.6943 32.2961 47.7233 32.2801 47.7562C32.2642 47.7891 32.2556 47.8251 32.255 47.8616C32.2541 47.9425 32.2811 48.0212 32.3314 48.0845C32.3818 48.1478 32.4524 48.1918 32.5314 48.2091L33.0003 48.297H33.0254L32.9836 48.6529C32.9808 48.7041 32.9667 48.7539 32.9424 48.799C32.9181 48.8441 32.8841 48.8832 32.8429 48.9136C32.8017 48.944 32.7543 48.9649 32.704 48.9749C32.6538 48.9848 32.602 48.9835 32.5523 48.9711Z" fill="white"/>
<path d="M35.7891 23.7822L36.4297 26.8889C36.4297 26.8889 34.9894 34.7227 36.8735 41.9619L38.6906 43.0254L39.6829 41.5851C39.6829 41.5851 36.8693 34.505 37.5266 27.4625L39.2014 25.1765L35.7891 23.7822Z" fill="#263238"/>
<path d="M36.1 20.0645L37.8836 24.2514L40.1069 21.9025L41.6686 24.3519C41.638 24.9537 41.4844 25.5428 41.2172 26.0829C40.9501 26.623 40.575 27.1026 40.1153 27.4921L37.8125 25.1767L34.3038 25.5954C34.3038 25.5954 33.211 21.9695 33.4664 21.0358C33.7218 20.1021 36.1 20.0645 36.1 20.0645Z" fill="#042b62"/>
<path opacity="0.2" d="M24.084 31.9338C25.0888 28.7476 26.077 25.9381 26.8683 23.7819L28.0323 23.2627C28.0323 23.2627 29.4474 27.7846 24.084 31.9338Z" fill="black"/>
<path opacity="0.4" d="M36.1 20.0645L37.8836 24.2514L40.1069 21.9025L41.6686 24.3519C41.638 24.9537 41.4844 25.5428 41.2172 26.0829C40.9501 26.623 40.575 27.1026 40.1153 27.4921L37.8125 25.1767L34.3038 25.5954C34.3038 25.5954 33.211 21.9695 33.4664 21.0358C33.7218 20.1021 36.1 20.0645 36.1 20.0645Z" fill="white"/>
<path d="M28.5634 19.3358C26.0848 19.2144 21.073 25.1222 19.8044 26.1731C18.5357 27.224 15.0522 27.0649 13.0006 25.1892C13.0006 25.1892 11.4263 24.8751 10.748 25.9512C10.748 25.9512 14.0976 30.7243 18.8037 30.2051C23.5098 29.6859 26.583 25.1808 26.583 25.1808C27.4184 24.29 28.0889 23.2579 28.5634 22.1327C29.2501 20.4286 28.5634 19.3358 28.5634 19.3358Z" fill="#042b62"/>
<path opacity="0.6" d="M28.5634 19.3358C26.0848 19.2144 21.073 25.1222 19.8044 26.1731C18.5357 27.224 15.0522 27.0649 13.0006 25.1892C13.0006 25.1892 11.4263 24.8751 10.748 25.9512C10.748 25.9512 14.0976 30.7243 18.8037 30.2051C23.5098 29.6859 26.583 25.1808 26.583 25.1808C27.4184 24.29 28.0889 23.2579 28.5634 22.1327C29.2501 20.4286 28.5634 19.3358 28.5634 19.3358Z" fill="white"/>
<path d="M71.6334 78.2665L71.9809 79.0955L71.1686 78.7145L68.1289 75.5701L68.5937 75.1221L71.6334 78.2665Z" fill="#263238"/>
<path d="M0.424805 6.13974L1.89291 4.71242C2.00167 4.60663 2.14754 4.54765 2.29926 4.54812C2.45098 4.54859 2.59649 4.60847 2.70459 4.71493L8.89748 11.0848L6.59735 13.321L0.404457 6.95117C0.297188 6.84084 0.238142 6.69241 0.240309 6.53854C0.242476 6.38467 0.305679 6.23797 0.416013 6.1307L0.424805 6.13974Z" fill="#263238"/>
<path opacity="0.1" d="M0.424805 6.13974L1.89291 4.71242C2.00167 4.60663 2.14754 4.54765 2.29926 4.54812C2.45098 4.54859 2.59649 4.60847 2.70459 4.71493L8.89748 11.0848L6.59735 13.321L0.404457 6.95117C0.297188 6.84084 0.238142 6.69241 0.240309 6.53854C0.242476 6.38467 0.305679 6.23797 0.416013 6.1307L0.424805 6.13974Z" fill="white"/>
<path d="M7.4931 9.26616L4.36546 12.2891C4.08357 12.5602 3.91846 12.9305 3.90517 13.3214C3.89188 13.7123 4.03146 14.093 4.29429 14.3826C22.7587 34.8902 41.9502 54.7083 61.8688 73.8371C61.8688 73.8371 66.219 77.3624 70.4436 78.2626L71.2182 77.5174C70.4562 73.2634 67.0815 68.8002 67.0815 68.8002C48.6423 48.2758 29.4745 28.4298 9.5782 9.26198C9.29758 8.99287 8.9236 8.84297 8.5348 8.84375C8.14601 8.84453 7.77264 8.99593 7.4931 9.26616Z" fill="#042b62"/>
<path d="M8.90588 6.33544L3.63034 11.4351C3.58844 11.4764 3.55517 11.5256 3.53245 11.5799C3.50974 11.6342 3.49805 11.6924 3.49805 11.7512C3.49805 11.8101 3.50974 11.8683 3.53245 11.9226C3.55517 11.9768 3.58844 12.0261 3.63034 12.0673L4.14115 12.5991L9.50461 7.41148C17.6063 15.0359 23.7109 22.0113 23.7109 22.0113L23.5015 22.5807L25.4108 23.7405C23.8155 20.1481 11.8409 8.47915 9.62184 6.33544C9.57509 6.28796 9.51937 6.25027 9.45791 6.22453C9.39645 6.1988 9.33049 6.18555 9.26386 6.18555C9.19723 6.18555 9.13127 6.1988 9.06981 6.22453C9.00835 6.25027 8.95263 6.28796 8.90588 6.33544Z" fill="#263238"/>
<path d="M36.8584 36.3961L30.4766 42.5654L31.661 43.7906L38.0428 37.6213L36.8584 36.3961Z" fill="#042b62"/>
<path d="M41.2914 54.1375C47.0694 59.9685 52.8976 65.7325 58.776 71.4296C58.9043 71.5546 59.0763 71.6246 59.2554 71.6246C59.4346 71.6246 59.6066 71.5546 59.7348 71.4296L64.7592 66.5936C64.8882 66.4693 64.9635 66.2994 64.969 66.1202C64.9745 65.9411 64.9097 65.7669 64.7885 65.6348C59.3064 59.5721 53.742 53.5541 48.0952 47.5808C48.0323 47.5142 47.9568 47.4608 47.8731 47.4236C47.7894 47.3865 47.6991 47.3664 47.6076 47.3644C47.516 47.3625 47.425 47.3787 47.3398 47.4123C47.2546 47.4458 47.1769 47.496 47.1112 47.5598L41.3249 53.1536C41.258 53.2159 41.204 53.2908 41.1661 53.3741C41.1282 53.4573 41.107 53.5472 41.1039 53.6386C41.1008 53.73 41.1158 53.8211 41.1479 53.9067C41.1801 53.9924 41.2289 54.0708 41.2914 54.1375Z" fill="#263238"/>
<path opacity="0.2" d="M36.8584 36.3961L30.4766 42.5654L31.661 43.7906L38.0428 37.6213L36.8584 36.3961Z" fill="black"/>
<path opacity="0.6" d="M8.90588 6.33544L3.63034 11.4351C3.58844 11.4764 3.55517 11.5256 3.53245 11.5799C3.50974 11.6342 3.49805 11.6924 3.49805 11.7512C3.49805 11.8101 3.50974 11.8683 3.53245 11.9226C3.55517 11.9768 3.58844 12.0261 3.63034 12.0673L4.14115 12.5991L9.50461 7.41148C17.6063 15.0359 23.7109 22.0113 23.7109 22.0113L23.5015 22.5807L25.4108 23.7405C23.8155 20.1481 11.8409 8.47915 9.62184 6.33544C9.57509 6.28796 9.51937 6.25027 9.45791 6.22453C9.39645 6.1988 9.33049 6.18555 9.26386 6.18555C9.19723 6.18555 9.13127 6.1988 9.06981 6.22453C9.00835 6.25027 8.95263 6.28796 8.90588 6.33544Z" fill="white"/>
<path opacity="0.1" d="M41.2914 54.1375C47.0694 59.9685 52.8976 65.7325 58.776 71.4296C58.9043 71.5546 59.0763 71.6246 59.2554 71.6246C59.4346 71.6246 59.6066 71.5546 59.7348 71.4296L64.7592 66.5936C64.8882 66.4693 64.9635 66.2994 64.969 66.1202C64.9745 65.9411 64.9097 65.7669 64.7885 65.6348C59.3064 59.5721 53.742 53.5541 48.0952 47.5808C48.0323 47.5142 47.9568 47.4608 47.8731 47.4236C47.7894 47.3865 47.6991 47.3664 47.6076 47.3644C47.516 47.3625 47.425 47.3787 47.3398 47.4123C47.2546 47.4458 47.1769 47.496 47.1112 47.5598L41.3249 53.1536C41.258 53.2159 41.204 53.2908 41.1661 53.3741C41.1282 53.4573 41.107 53.5472 41.1039 53.6386C41.1008 53.73 41.1158 53.8211 41.1479 53.9067C41.1801 53.9924 41.2289 54.0708 41.2914 54.1375Z" fill="white"/>
<path d="M50.0951 46.4795L49.6052 47.1368C49.3485 47.074 49.0815 47.0653 48.8212 47.1115C48.561 47.1576 48.3132 47.2575 48.0938 47.4048C48.0938 47.4048 48.1356 49.0796 48.2068 49.2889C48.3575 49.7746 50.5389 51.2233 51.1042 51.2986C51.28 51.3238 51.615 50.1598 51.5605 49.762C51.3744 49.2298 51.1242 48.7222 50.8153 48.2506L51.2339 47.6644L50.0951 46.4795Z" fill="#FFCDB0"/>
<path d="M13.0419 26.0342L13.1089 25.5067C13.1089 25.5067 13.4648 25.5946 13.6155 24.9833C13.7663 24.372 14.0719 22.8647 13.8584 22.4962C13.2857 21.7531 12.6587 21.0533 11.9826 20.4028C11.6728 20.1348 10.9485 21.4076 10.7852 21.998C10.6219 22.5884 11.4425 24.8786 11.4425 24.8786L11.409 25.8709C11.6507 26.021 11.9235 26.1137 12.2065 26.142C12.4896 26.1703 12.7753 26.1334 13.0419 26.0342Z" fill="#FFCDB0"/>
<path d="M45.5542 27.4414C46.7559 28.8147 50.5325 34.3875 51.5709 37.1048C53.0195 40.915 51.5709 48.577 51.5709 48.577L49.0587 46.9023C49.0587 46.9023 49.5318 41.0699 48.8829 38.9973C48.2339 36.9248 43.1426 33.0351 43.1426 33.0351C43.2629 32.1017 43.5138 31.1898 43.8879 30.3262C44.3002 29.2887 44.8616 28.3169 45.5542 27.4414Z" fill="#042b62"/>
<path opacity="0.6" d="M51.5926 48.577L49.0805 46.9023C49.0805 46.9023 49.5536 41.0699 48.9046 38.9973C48.5362 37.825 46.74 36.0665 45.2536 34.7643C44.119 33.7679 43.1602 33.0351 43.1602 33.0351C43.2758 32.1713 43.5053 31.3266 43.8426 30.523L43.9222 30.3346C44.3389 29.3039 44.9031 28.3393 45.5969 27.4707C46.7986 28.844 50.5752 34.4168 51.6136 37.1341C53.0204 40.9149 51.5926 48.577 51.5926 48.577Z" fill="white"/>
<path opacity="0.2" d="M45.2146 34.7482C44.0799 33.7517 43.1211 33.019 43.1211 33.019C43.2368 32.1552 43.4662 31.3104 43.8036 30.5068C44.6547 31.7641 45.1429 33.2316 45.2146 34.7482Z" fill="black"/>
</svg>
