<svg width="162" height="102" viewBox="0 0 162 102" fill="none" xmlns="http://www.w3.org/2000/svg">
<g filter="url(#filter0_ii_349_2350)">
<path d="M161.426 86.2658C161.748 75.5226 159.91 64.8242 156.021 54.8043C152.133 44.7843 146.274 35.6465 138.79 27.9322C131.306 20.2178 122.35 14.0838 112.453 9.89333C102.555 5.70291 91.9178 3.54133 81.1698 3.53663C70.4219 3.53193 59.7823 5.6842 49.8812 9.86596C39.9801 14.0477 31.019 20.1739 23.5284 27.8818C16.0379 35.5896 10.1704 44.7222 6.27338 54.7388C2.37637 64.7553 0.529138 75.4521 0.841093 86.1955L6.17057 86.0408C5.87932 76.0105 7.60395 66.0237 11.2423 56.672C14.8806 47.3202 20.3587 38.7938 27.3521 31.5976C34.3454 24.4014 42.7118 18.6818 51.9557 14.7776C61.1995 10.8734 71.1329 8.86397 81.1675 8.86835C91.202 8.87274 101.134 10.8908 110.374 14.8031C119.615 18.7154 127.976 24.4423 134.963 31.6446C141.95 38.847 147.421 47.3782 151.051 56.7331C154.681 66.088 156.397 76.0763 156.097 86.1063L161.426 86.2658Z" fill="white"/>
</g>
<path d="M23.3791 39.2912C21.1542 37.5394 17.9152 37.9141 16.3115 40.248C8.02793 52.3043 3.26019 66.4311 2.54403 81.0413C2.40539 83.8698 4.75493 86.1305 7.58638 86.0852L20.4382 85.8792C23.2697 85.8338 25.5037 83.4971 25.7185 80.6734C26.4257 71.3784 29.4537 62.4063 34.5236 54.5837C36.0638 52.2073 35.7026 48.9947 33.4777 47.2429L23.3791 39.2912Z" fill="#FE432F"/>
<path d="M60.8984 8.73246C50.8955 11.4127 41.5184 16.037 33.3026 22.3412C25.0868 28.6454 18.1932 36.5061 13.0153 45.4745L33.0278 57.0286C36.6883 50.6883 41.5619 45.1311 47.3701 40.6743C53.1784 36.2175 59.8076 32.9483 66.8793 31.0534L60.8984 8.73246Z" fill="#FCAE00"/>
<path d="M155.038 84.9036C157.87 84.9036 160.183 82.6055 159.999 79.7796C159.362 69.9907 156.902 60.3909 152.731 51.4788C148.561 42.5668 142.766 34.5279 135.658 27.7669C133.606 25.8152 130.36 26.1187 128.546 28.293L120.311 38.162C118.496 40.3362 118.807 43.5539 120.806 45.5602C125.342 50.1144 129.066 55.4283 131.802 61.2735C134.537 67.1188 136.231 73.3825 136.822 79.7833C137.082 82.6031 139.353 84.9036 142.185 84.9036L155.038 84.9036Z" fill="#00B800"/>
<path d="M115.569 13.8776C106.242 9.37828 96.12 6.76014 85.7809 6.17268C75.4418 5.58523 65.0883 7.03996 55.3114 10.4538L62.9292 32.2705C69.8411 29.857 77.1607 28.8285 84.4701 29.2439C91.7794 29.6592 98.9354 31.5101 105.529 34.691L115.569 13.8776Z" fill="#FFEB00"/>
<path d="M149.597 45.4746C141.402 31.279 128.986 19.9902 114.077 13.1781L104.473 34.1964C115.013 39.0123 123.791 46.9931 129.585 57.0288L149.597 45.4746Z" fill="#60C600"/>
<defs>
<filter id="filter0_ii_349_2350" x="0.807251" y="2.51113" width="161.68" height="85.8057" filterUnits="userSpaceOnUse" color-interpolation-filters="sRGB">
<feFlood flood-opacity="0" result="BackgroundImageFix"/>
<feBlend mode="normal" in="SourceGraphic" in2="BackgroundImageFix" result="shape"/>
<feColorMatrix in="SourceAlpha" type="matrix" values="0 0 0 0 0 0 0 0 0 0 0 0 0 0 0 0 0 0 127 0" result="hardAlpha"/>
<feOffset dx="5.12745" dy="-2.05098"/>
<feGaussianBlur stdDeviation="0.512745"/>
<feComposite in2="hardAlpha" operator="arithmetic" k2="-1" k3="1"/>
<feColorMatrix type="matrix" values="0 0 0 0 0 0 0 0 0 0 0 0 0 0 0 0 0 0 0.1 0"/>
<feBlend mode="normal" in2="shape" result="effect1_innerShadow_349_2350"/>
<feColorMatrix in="SourceAlpha" type="matrix" values="0 0 0 0 0 0 0 0 0 0 0 0 0 0 0 0 0 0 127 0" result="hardAlpha"/>
<feOffset dy="3.58922"/>
<feGaussianBlur stdDeviation="1.02549"/>
<feComposite in2="hardAlpha" operator="arithmetic" k2="-1" k3="1"/>
<feColorMatrix type="matrix" values="0 0 0 0 0 0 0 0 0 0 0 0 0 0 0 0 0 0 0.1 0"/>
<feBlend mode="normal" in2="effect1_innerShadow_349_2350" result="effect2_innerShadow_349_2350"/>
</filter>
</defs>
</svg>
