<svg xmlns="http://www.w3.org/2000/svg" xmlns:xlink="http://www.w3.org/1999/xlink" viewBox="0 0 1358 290"><defs><style>.cls-1{isolation:isolate;}.cls-2,.cls-30,.cls-31{fill:#fed385;}.cls-3{fill:#8bc53f;}.cls-4{fill:#ddd5d4;}.cls-5{fill:#ccc;}.cls-16,.cls-6{fill:#fff;}.cls-7{fill:url(#linear-gradient);}.cls-29,.cls-8{opacity:0.5;}.cls-24,.cls-26,.cls-29,.cls-30,.cls-8{mix-blend-mode:multiply;}.cls-9{fill:#afafaf;}.cls-10{fill:#f5f7ff;}.cls-11{fill:#e6e6e6;}.cls-12{fill:#f0806d;}.cls-13{fill:url(#linear-gradient-2);}.cls-14{fill:#005263;}.cls-15{fill:none;stroke:#0c3069;stroke-linecap:round;stroke-linejoin:round;stroke-width:0.91px;}.cls-16{stroke:#f0806d;stroke-miterlimit:10;stroke-width:0.75px;}.cls-17{fill:#4e7735;}.cls-18{fill:#f9afa7;}.cls-19{fill:#02464f;}.cls-20{fill:#30363f;}.cls-21{fill:#d3d4d4;}.cls-22{fill:#4b4d4c;}.cls-23{fill:#779887;}.cls-25{fill:#1c1b1a;}.cls-26{fill:#959696;}.cls-27{fill:#bec0c0;}.cls-28{fill:#657081;}.cls-29{fill:#a5681e;}.cls-31{mix-blend-mode:color-burn;}.cls-32{fill:#fc9f21;}</style><linearGradient id="linear-gradient" x1="906.9" y1="27.4" x2="1146.14" y2="27.4" gradientTransform="translate(2053.04 54.81) rotate(-180)" gradientUnits="userSpaceOnUse"><stop offset="0" stop-color="#ffd486"/><stop offset="1" stop-color="#8ac141"/></linearGradient><linearGradient id="linear-gradient-2" x1="2079.38" y1="-233.7" x2="2091.21" y2="-233.7" gradientTransform="matrix(-0.93, -0.37, -0.37, 0.93, 3028.28, 1136.63)" gradientUnits="userSpaceOnUse"><stop offset="0.04" stop-color="#ffa526"/><stop offset="1" stop-color="#ff6026"/></linearGradient></defs><g class="cls-1"><g id="Layer_1" data-name="Layer 1"><path class="cls-2" d="M73.94,60.69a4.85,4.85,0,0,0,4.82,4.83H182a4.82,4.82,0,0,0,3.4-8.24,4.78,4.78,0,0,0-3.4-1.42h-4.88A12.58,12.58,0,0,0,156.61,52a17.49,17.49,0,0,0-20.14-7.87,20,20,0,0,0-36.89,4,12.58,12.58,0,0,0-17.71,7.73H78.76A4.84,4.84,0,0,0,73.94,60.69Z"/><path class="cls-2" d="M585.39,60.39a4.71,4.71,0,0,1-4.69,4.7H480.27a4.7,4.7,0,0,1,0-9.4H485a12.24,12.24,0,0,1,19.92-3.79,17,17,0,0,1,19.59-7.66,19.45,19.45,0,0,1,35.91,3.93,12.08,12.08,0,0,1,5.47-1.3,12.24,12.24,0,0,1,11.76,8.82h3A4.72,4.72,0,0,1,585.39,60.39Z"/><path class="cls-2" d="M1321.25,63.55a2.63,2.63,0,0,1-.79,1.88,2.59,2.59,0,0,1-1.87.79h-57a2.67,2.67,0,0,1-1.88-4.55,2.63,2.63,0,0,1,1.88-.79h2.7a6.94,6.94,0,0,1,11.3-2.15,9.64,9.64,0,0,1,11.13-4.34,11,11,0,0,1,20.38,2.22,7,7,0,0,1,9.78,4.27h1.72A2.67,2.67,0,0,1,1321.25,63.55Z"/><path class="cls-2" d="M1310,203.67l-3.42-5.62a1,1,0,1,1,1.66-1l2.43,4,6.44-3.81a1,1,0,1,1,1,1.68Z"/><path class="cls-2" d="M1312.26,212.32A12.33,12.33,0,1,1,1324.59,200,12.35,12.35,0,0,1,1312.26,212.32Zm0-22.9A10.57,10.57,0,1,0,1322.83,200,10.58,10.58,0,0,0,1312.26,189.42Z"/><path class="cls-2" d="M595.52,143.59,592.09,138a1,1,0,0,1,.32-1.34,1,1,0,0,1,1.35.32l2.42,4,6.45-3.81a1,1,0,0,1,1,1.68Z"/><path class="cls-2" d="M597.82,152.24a12.33,12.33,0,1,1,12.33-12.33A12.34,12.34,0,0,1,597.82,152.24Zm0-22.9a10.57,10.57,0,1,0,10.57,10.57A10.58,10.58,0,0,0,597.82,129.34Z"/><path class="cls-2" d="M754,167.46l-3.43-5.61a1,1,0,0,1,.33-1.35,1,1,0,0,1,1.34.33l2.43,4,6.44-3.82a1,1,0,0,1,1.34.35,1,1,0,0,1-.34,1.33Z"/><path class="cls-2" d="M756.26,176.12a12.34,12.34,0,1,1,12.33-12.34A12.35,12.35,0,0,1,756.26,176.12Zm0-22.91a10.57,10.57,0,1,0,10.57,10.57A10.59,10.59,0,0,0,756.26,153.21Z"/><path class="cls-2" d="M839.94,30.19l-3.65-6a1,1,0,0,1,1.77-1.08l2.59,4.23,6.86-4.06a1,1,0,1,1,1,1.78Z"/><path class="cls-2" d="M842.39,39.4a13.13,13.13,0,1,1,13.12-13.12A13.13,13.13,0,0,1,842.39,39.4Zm0-24.37a11.25,11.25,0,1,0,11.25,11.25A11.26,11.26,0,0,0,842.39,15Z"/><path class="cls-2" d="M822.61,201.47l-2.9-4.76a.83.83,0,1,1,1.41-.86l2.06,3.36,5.46-3.23a.84.84,0,0,1,1.14.29.83.83,0,0,1-.29,1.13Z"/><path class="cls-2" d="M824.57,208.81A10.46,10.46,0,1,1,835,198.35,10.47,10.47,0,0,1,824.57,208.81Zm0-19.42a9,9,0,1,0,9,9A9,9,0,0,0,824.57,189.39Z"/><path class="cls-2" d="M775.6,74.13l-2.91-4.76a.83.83,0,0,1,1.42-.87l2,3.37,5.47-3.24a.82.82,0,0,1,1.13.3.81.81,0,0,1-.29,1.13Z"/><path class="cls-2" d="M777.55,81.47A10.46,10.46,0,1,1,788,71,10.48,10.48,0,0,1,777.55,81.47Zm0-19.42a9,9,0,1,0,9,9A9,9,0,0,0,777.55,62.05Z"/><path class="cls-2" d="M659.55,74.54,653.3,64.3a1.78,1.78,0,1,1,3-1.85l4.42,7.24,11.76-7a1.78,1.78,0,1,1,1.81,3.07Z"/><path class="cls-2" d="M663.75,90.33a22.5,22.5,0,1,1,22.49-22.49A22.52,22.52,0,0,1,663.75,90.33Zm0-41.77A19.28,19.28,0,1,0,683,67.84,19.3,19.3,0,0,0,663.75,48.56Z"/><path class="cls-2" d="M471.31,128.87l-6.25-10.24a1.78,1.78,0,1,1,3-1.86l4.42,7.24,11.76-7a1.78,1.78,0,0,1,1.82,3.07Z"/><path class="cls-2" d="M475.51,144.65A22.49,22.49,0,1,1,498,122.16,22.52,22.52,0,0,1,475.51,144.65Zm0-41.77a19.28,19.28,0,1,0,19.28,19.28A19.3,19.3,0,0,0,475.51,102.88Z"/><path class="cls-2" d="M1268.44,228.41l-2.33-3.82a.66.66,0,0,1,1.13-.69l1.65,2.7,4.39-2.59a.66.66,0,0,1,.91.23.67.67,0,0,1-.23.91Z"/><path class="cls-2" d="M1270,234.3a8.39,8.39,0,1,1,8.39-8.39A8.39,8.39,0,0,1,1270,234.3Zm0-15.58a7.2,7.2,0,1,0,7.19,7.19A7.2,7.2,0,0,0,1270,218.72Z"/><path class="cls-2" d="M350,220.05l-2.91-4.78a.84.84,0,0,1,.27-1.15.83.83,0,0,1,1.14.28l2.07,3.38,5.49-3.25a.83.83,0,0,1,.84,1.43Z"/><path class="cls-2" d="M352,227.41a10.5,10.5,0,1,1,10.5-10.5A10.51,10.51,0,0,1,352,227.41Zm0-19.49a9,9,0,1,0,9,9A9,9,0,0,0,352,207.92Z"/><path class="cls-2" d="M1237.64,36.26l-2.92-4.78a.83.83,0,0,1,.27-1.14.84.84,0,0,1,1.15.27L1238.2,34l5.49-3.25a.83.83,0,1,1,.84,1.44Z"/><path class="cls-2" d="M1239.6,43.63a10.5,10.5,0,1,1,10.49-10.5A10.51,10.51,0,0,1,1239.6,43.63Zm0-19.5a9,9,0,1,0,9,9A9,9,0,0,0,1239.6,24.13Z"/><path class="cls-3" d="M909.86,120.63c5.42,11.82,8.46,23,4.47,28a6.54,6.54,0,0,1-.77.81c-3.07,2.7-9.11,2.77-19.31-1.26-27.14-10.73-28.43-29.23-33.92-47.3C854.92,83,836,86,835.53,86.12,879.58,70.78,900.68,100.59,909.86,120.63Z"/><path class="cls-2" d="M914.33,148.62a6.54,6.54,0,0,1-.77.81c-5.1-3.07-14.86-9.58-19.46-16.9a107.89,107.89,0,0,1-5.93-11.43c-3.66-7.76-7.44-15.79-14-21.95l.73-.79c6.76,6.3,10.58,14.42,14.28,22.28A105.67,105.67,0,0,0,895,132C899.5,139.09,909.36,145.63,914.33,148.62Z"/><path class="cls-3" d="M905.15,125.46c-.32.78-.53,1.23-.55,1.28-.08-.44-.17-.87-.25-1.28-3.62-18.56-8.46-20.49-23-36.73-14.85-16.59-6.31-32.06-6.31-32.06C924.8,71,908.53,117.16,905.15,125.46Z"/><path class="cls-2" d="M905.15,125.46c-.32.78-.53,1.23-.55,1.28-.08-.44-.17-.87-.25-1.28,1.61-16-8.06-34.86-11.1-38.24s-5.09-8.31-5.82-10.12c-.12-.3-.24-.59-.28-.65l.7-.4a6.26,6.26,0,0,1,.33.75c.71,1.77,2.61,6.49,5.67,9.88C897.7,91,906.63,109.87,905.15,125.46Z"/><rect class="cls-4" x="896.74" y="30.5" width="259.57" height="188.13" rx="10"/><rect class="cls-5" x="1011.49" y="174.65" width="30.06" height="91.3" transform="translate(2053.04 440.61) rotate(180)"/><rect class="cls-6" x="906.9" y="17.77" width="239.24" height="172.16" transform="translate(2053.04 207.71) rotate(180)"/><rect class="cls-7" x="906.9" y="17.77" width="239.24" height="19.26" transform="translate(2053.04 54.81) rotate(180)"/><g class="cls-8"><rect class="cls-3" x="906.9" y="26.53" width="239.24" height="10.5" transform="translate(2053.04 63.57) rotate(180)"/></g><path class="cls-5" d="M1117,203.07c0,4.62,4.4,8.37,9.84,8.37s9.85-3.75,9.85-8.37-4.41-8.37-9.85-8.37S1117,198.44,1117,203.07Z"/><rect class="cls-5" x="958.9" y="262.51" width="135.24" height="6.89"/><rect class="cls-9" x="958.9" y="262.51" width="135.24" height="3.45"/><rect class="cls-10" x="916.89" y="22.57" width="34.12" height="7.94" rx="2.5"/><rect class="cls-11" x="924.43" y="161.11" width="170.12" height="4.31"/><rect class="cls-11" x="924.43" y="168.86" width="207.74" height="4.31"/><rect class="cls-11" x="924.43" y="110.22" width="207.74" height="4.31"/><rect class="cls-11" x="924.43" y="117.98" width="154.08" height="4.31"/><rect class="cls-12" x="918.32" y="110.22" width="3.15" height="12.06"/><rect class="cls-11" x="924.43" y="60.01" width="125.26" height="4.31"/><rect class="cls-11" x="924.43" y="67.77" width="92.9" height="4.31"/><rect class="cls-12" x="918.32" y="60.01" width="3.15" height="12.06"/><rect class="cls-11" x="924.43" y="134.83" width="115.63" height="4.31"/><rect class="cls-11" x="924.43" y="142.58" width="207.74" height="4.31"/><rect class="cls-12" x="918.32" y="134.83" width="3.15" height="12.06"/><rect class="cls-11" x="924.43" y="84.62" width="58.91" height="4.31"/><rect class="cls-11" x="924.43" y="92.37" width="207.74" height="4.31"/><rect class="cls-12" x="918.32" y="84.62" width="3.15" height="12.06"/><rect class="cls-12" x="918.32" y="161.11" width="3.15" height="12.06"/><rect class="cls-9" x="1031.58" y="189.94" width="9.97" height="72.57"/><path class="cls-12" d="M1086.44,62.69h-7v19h-4.71v-19h-6.9V58.88h18.6Z"/><path class="cls-12" d="M1100.12,77h-8.24l-1.57,4.71h-5l8.5-22.83h4.35l8.55,22.83h-5Zm-7-3.81h5.7L1096,64.65Z"/><path class="cls-12" d="M1117,66.75l4.28-7.87h5.41l-6.65,11.32,6.82,11.51h-5.47l-4.39-8-4.39,8h-5.47L1114,70.2l-6.65-11.32h5.41Z"/><path class="cls-3" d="M1187.41,145.23a65.55,65.55,0,0,0,8-7.9c2.72-3.51,10.42-13.39,7-17.49s-8,5.67-10.16,10.9S1188,137.86,1187.41,145.23Z"/><path class="cls-3" d="M1186.49,146.72a58,58,0,0,1,7.07-3.05c3.4-1.15,9.9-4.4,10.52-1.25s-3.45,6.84-8.94,6.6a41.85,41.85,0,0,0-10.77,1.1Z"/><path class="cls-3" d="M1183,152.27s6.83-.71,10.29-.85,6.58-.21,6.9,1.67-.54,4.93-6.79,4.1-12.65-1.28-12.65-1.28Z"/><path class="cls-3" d="M1179.35,158.11s8.26-.42,12,.62,3.89,4.46-.65,4.85c-2.7.23-8.37-1.18-10.74-2a5.38,5.38,0,0,0-2.71-.21Z"/><path class="cls-3" d="M1185.05,149s.54-5.69.71-10.15-1.71-11.27-5.26-10.47-1.25,9.37-.09,12.36,2.19,12.19,2.19,12.19Z"/><path class="cls-3" d="M1181.22,154.93a57.66,57.66,0,0,0-1.37-8.66c-1.11-4.57-3.75-8.8-6.28-7.2s2.34,10.78,4.16,15.18a18.91,18.91,0,0,1,1.21,4.29Z"/><path class="cls-13" d="M1177.91,160.19a10.48,10.48,0,0,0-1.26-4.16c-1.25-2.51-3.62-8.46-6.33-7.4s.67,5.53,2,7.34,3.52,5.66,3.51,7.41Z"/><path class="cls-14" d="M1169.36,173.62a.26.26,0,0,1-.12-.05.31.31,0,0,1-.08-.43c10-14.67,29.1-46.21,29.29-46.53a.32.32,0,0,1,.43-.11.31.31,0,0,1,.1.43c-.19.32-19.25,31.88-29.31,46.56A.3.3,0,0,1,1169.36,173.62Z"/><path class="cls-14" d="M1184,150.8a.32.32,0,0,1-.25-.29c-.29-5.63-1.84-17.32-1.86-17.44a.31.31,0,0,1,.62-.08c0,.12,1.57,11.83,1.86,17.49a.3.3,0,0,1-.29.32Z"/><path class="cls-14" d="M1185.5,148.52a.33.33,0,0,1-.24-.24.31.31,0,0,1,.23-.37c4.19-1,15.31-4,15.42-4.09a.32.32,0,0,1,.38.22.3.3,0,0,1-.22.38c-.11,0-11.23,3.08-15.44,4.09A.29.29,0,0,1,1185.5,148.52Z"/><path class="cls-14" d="M1180.21,157a.31.31,0,0,1-.25-.28c-.37-5.09-4.23-14.76-4.27-14.86a.31.31,0,0,1,.17-.4.31.31,0,0,1,.41.17c.16.4,3.93,9.85,4.31,15a.31.31,0,0,1-.29.34Z"/><path class="cls-14" d="M1181.76,154.47a.31.31,0,0,1,0-.62c4.35-.55,15.24-.19,15.35-.19a.32.32,0,0,1,.3.32.31.31,0,0,1-.32.3c-.11,0-10.95-.36-15.25.19Z"/><path class="cls-15" d="M1171.19,150.76a26.8,26.8,0,0,1,6,10.66"/><path class="cls-14" d="M1178.28,160a.32.32,0,0,1-.25-.31.33.33,0,0,1,.32-.31,127.27,127.27,0,0,1,13.26,1.41.31.31,0,1,1-.1.62,122.8,122.8,0,0,0-13.17-1.41Z"/><rect class="cls-16" x="1112.29" y="155.61" width="129.1" height="114.45"/><rect class="cls-12" x="1112.29" y="155.61" width="129.1" height="21.25"/><path class="cls-14" d="M1131.78,161.5a3,3,0,1,1-3-3A3,3,0,0,1,1131.78,161.5Z"/><path class="cls-17" d="M1128.74,163.25h0a1.72,1.72,0,0,1-1.72-1.72v-7.25a1.73,1.73,0,0,1,1.72-1.73h0a1.73,1.73,0,0,1,1.73,1.73v7.25A1.72,1.72,0,0,1,1128.74,163.25Z"/><path class="cls-14" d="M1228,161.5a3,3,0,1,1-3-3A3,3,0,0,1,1228,161.5Z"/><path class="cls-17" d="M1225,163.25h0a1.72,1.72,0,0,1-1.73-1.72v-7.25a1.73,1.73,0,0,1,1.73-1.73h0a1.73,1.73,0,0,1,1.72,1.73v7.25A1.72,1.72,0,0,1,1225,163.25Z"/><rect class="cls-18" x="1118.5" y="187.1" width="19.56" height="19.56"/><rect class="cls-18" x="1142.78" y="187.1" width="19.56" height="19.56"/><rect class="cls-12" x="1167.06" y="187.1" width="19.56" height="19.56"/><rect class="cls-18" x="1191.35" y="187.1" width="19.56" height="19.56"/><rect class="cls-12" x="1215.63" y="187.1" width="19.56" height="19.56"/><rect class="cls-18" x="1118.5" y="210.85" width="19.56" height="19.56"/><rect class="cls-12" x="1142.78" y="210.85" width="19.56" height="19.56"/><rect class="cls-18" x="1118.5" y="234.6" width="19.56" height="19.56"/><rect class="cls-18" x="1142.78" y="234.6" width="19.56" height="19.56"/><rect class="cls-18" x="1167.06" y="210.85" width="19.56" height="19.56"/><rect class="cls-12" x="1191.35" y="210.85" width="19.56" height="19.56"/><rect class="cls-12" x="1215.63" y="210.85" width="19.56" height="19.56"/><rect class="cls-18" x="1167.06" y="234.6" width="19.56" height="19.56"/><rect class="cls-12" x="1191.35" y="234.6" width="19.56" height="19.56"/><rect class="cls-12" x="1215.63" y="234.6" width="19.56" height="19.56"/><path class="cls-6" d="M1200.31,226.17a1,1,0,0,1-.74-.34l-4.17-4.7a1,1,0,0,1,1.49-1.32l3.29,3.71,5.09-8a1,1,0,1,1,1.68,1.07l-5.8,9.08a1,1,0,0,1-.76.45Z"/><path class="cls-6" d="M1176,202.42a1,1,0,0,1-.75-.34l-4.16-4.69a1,1,0,0,1,.08-1.41,1,1,0,0,1,1.41.08l3.29,3.71,5.09-8a1,1,0,0,1,1.68,1.07l-5.8,9.08a1,1,0,0,1-.77.46Z"/><path class="cls-6" d="M1224.6,202.42a1,1,0,0,1-.75-.34l-4.16-4.69a1,1,0,0,1,.08-1.41,1,1,0,0,1,1.41.08l3.29,3.71,5.09-8a1,1,0,1,1,1.67,1.07l-5.79,9.08a1,1,0,0,1-.77.46Z"/><path class="cls-6" d="M1200.31,249.91a1,1,0,0,1-.74-.33l-4.17-4.7a1,1,0,0,1,.09-1.41,1,1,0,0,1,1.4.09l3.29,3.71,5.09-8a1,1,0,0,1,1.68,1.08l-5.8,9.07a1,1,0,0,1-.76.46Z"/><path class="cls-6" d="M1224.6,249.91a1,1,0,0,1-.75-.33l-4.16-4.7a1,1,0,1,1,1.49-1.32l3.29,3.71,5.09-8a1,1,0,1,1,1.67,1.08l-5.79,9.07a1,1,0,0,1-.77.46Z"/><path class="cls-6" d="M1151.74,226.17a1,1,0,0,1-.74-.34l-4.17-4.7a1,1,0,0,1,1.5-1.32l3.28,3.71,5.09-8a1,1,0,1,1,1.68,1.07l-5.8,9.08a1,1,0,0,1-.76.45Z"/><path class="cls-14" d="M866.94,185.18V264a3,3,0,0,0,2.95,2.95h73.79a3,3,0,0,0,3-2.95V185.18Z"/><path class="cls-19" d="M903.5,246.88a50.86,50.86,0,0,1-14.72-9.68c-4.63-4.53-8-10.32-11.12-16a92.05,92.05,0,0,1-8.32-20c-.84-3.15-1.48-6.36-2.1-9.56-.1-.55-.21-1.11-.3-1.67V264a3,3,0,0,0,2.95,2.95h73.79a3,3,0,0,0,3-2.95v-12A71.27,71.27,0,0,1,903.5,246.88Z"/><path class="cls-20" d="M946.8,185.18l3.51-27.83a3.19,3.19,0,0,0-3.22-3.16H866.71a3.19,3.19,0,0,0-3.22,3.16L867,185.18Z"/><path class="cls-14" d="M930.49,160.89c-7.5-.8-15.09,0-22.56.78a40.87,40.87,0,0,0-15.82,4.72,36.11,36.11,0,0,0-11.56,10.26,41.33,41.33,0,0,0-4.72,8.53h71L949,167.93C943.11,164.77,937.15,161.6,930.49,160.89Z"/><path class="cls-19" d="M886.26,168.4a38.53,38.53,0,0,1,13.87-7c5.52-1.47,11.41-1.84,17.09-2.21,6-.4,12.38-.61,18.27.94,4.8,1.27,9.29,3.65,13.7,6.05l1.12-8.86a3.19,3.19,0,0,0-3.22-3.16H866.71a3.19,3.19,0,0,0-3.22,3.16L867,185.18h7.11A39.85,39.85,0,0,1,886.26,168.4Z"/><path class="cls-21" d="M939.78,178.05a3,3,0,0,1-2.95,2.95h-60.3a3,3,0,0,1-2.95-2.95l-2-16.72a3,3,0,0,1,2.95-3h64.68a3,3,0,0,1,3,3Z"/><path class="cls-22" d="M937.54,176.7a2.23,2.23,0,0,1-2.23,2.23H878.25A2.23,2.23,0,0,1,876,176.7l-1.49-14a2.22,2.22,0,0,1,2.23-2.22h60.38a2.22,2.22,0,0,1,2.23,2.22Z"/><path class="cls-23" d="M937,176.77a2.17,2.17,0,0,1-2.17,2.16h-56a2.16,2.16,0,0,1-2.16-2.16l-1.45-13.19a2.17,2.17,0,0,1,2.17-2.17h59.25a2.17,2.17,0,0,1,2.16,2.17Z"/><g class="cls-24"><path class="cls-21" d="M880.92,166.64v2.63l-.83.84-.28-.28v-3.61Zm-1.11,7.62v-3.6l.28-.28.83.83v2.64Zm4.85,1h-4.15a.9.9,0,0,1-.7-.69l1.11-.41h3.33Zm-.41-8.87h-3.31l-1.11-.41a.88.88,0,0,1,.69-.69h4.14Zm.28,2.91v-2.91l.41-1.1a.9.9,0,0,1,.7.69v3.88l-.28.28Zm.83,1.11.28.28v3.88a.9.9,0,0,1-.7.69l-.41-1.1v-2.92Z"/><path class="cls-21" d="M887,170.11l-.28-.28v-3.19l.7-.69.41.41v2.91Zm.83,1.1v2.92l-.41.41-.7-.69v-3.19l.28-.28Zm3.33-4.85h-3l-.55-.55.55-.55h3l.56.55Zm.56,8.32-.56.55h-3l-.55-.55.55-.55h3Zm-.28-5.41v-2.91l.41-.41.7.69v3.19l-.28.28Zm.83,1.11.28.28v3.19l-.7.69-.41-.41v-2.92Z"/><path class="cls-21" d="M894,170.11l-.28-.28v-3.19l.7-.69.41.41v2.91Zm.83,1.1v2.92l-.41.41-.7-.69v-3.19l.28-.28Zm3.33-4.85h-3.05l-.55-.55.55-.55h3.05l.55.55Zm.55,8.32-.55.55h-3.05l-.55-.55.55-.55h3.05Zm-.27-5.41v-2.91l.41-.41.7.69v3.19l-.28.28Zm.83,1.11.28.28v3.19l-.7.69-.41-.41v-2.92Z"/><path class="cls-21" d="M901.71,166.64v2.63l-.83.84-.28-.28v-3.61Zm-1.11,7.62v-3.6l.28-.28.83.83v2.64Zm4.86,1H901.3a.9.9,0,0,1-.7-.69l1.11-.41H905Zm-.42-8.87h-3.31l-1.11-.41a.88.88,0,0,1,.69-.69h4.15Zm.28,2.91v-2.91l.41-1.1a.9.9,0,0,1,.7.69v3.88l-.28.28Zm.83,1.11.28.28v3.88a.9.9,0,0,1-.7.69l-.41-1.1v-2.92Z"/><path class="cls-21" d="M908.64,166.64v2.63l-.83.84-.28-.28v-3.61Zm-1.11,7.62v-3.6l.28-.28.83.83v2.64Zm4.86,1h-4.16a.9.9,0,0,1-.7-.69l1.11-.41H912Zm-.42-8.87h-3.31l-1.11-.41a.88.88,0,0,1,.69-.69h4.15Zm.28,2.91v-2.91l.41-1.1a.9.9,0,0,1,.7.69v3.88l-.28.28Zm.83,1.11.28.28v3.88a.9.9,0,0,1-.7.69l-.41-1.1v-2.92Z"/><path class="cls-21" d="M915.57,166.64v2.63l-.83.84-.28-.28v-3.61Zm-1.11,7.62v-3.6l.28-.28.83.83v2.64Zm4.86,1h-4.16a.9.9,0,0,1-.7-.69l1.11-.41h3.33Zm-.42-8.87h-3.31l-1.11-.41a.88.88,0,0,1,.69-.69h4.15Zm.28,2.91v-2.91l.41-1.1a.9.9,0,0,1,.7.69v3.88l-.28.28Zm.83,1.11.28.28v3.88a.9.9,0,0,1-.7.69l-.41-1.1v-2.92Z"/><path class="cls-21" d="M922.5,166.64v2.63l-.83.84-.28-.28v-3.61Zm-1.11,7.62v-3.6l.28-.28.83.83v2.64Zm4.86,1h-4.16a.9.9,0,0,1-.7-.69l1.11-.41h3.33Zm-.42-8.87h-3.31l-1.11-.41a.88.88,0,0,1,.69-.69h4.15Zm.28,2.91v-2.91l.41-1.1a.9.9,0,0,1,.7.69v3.88l-.28.28Zm.83,1.11.28.28v3.88a.9.9,0,0,1-.7.69l-.41-1.1v-2.92Z"/><path class="cls-21" d="M929.43,166.64v2.63l-.83.84-.28-.28v-3.61Zm-1.11,7.62v-3.6l.28-.28.83.83v2.64Zm4.86,1H929a.9.9,0,0,1-.7-.69l1.11-.41h3.33Zm-.42-8.87h-3.31l-1.11-.41a.88.88,0,0,1,.69-.69h4.15Zm.28,2.91v-2.91l.41-1.1a.9.9,0,0,1,.7.69v3.88l-.28.28Zm.83,1.11.28.28v3.88a.9.9,0,0,1-.7.69l-.41-1.1v-2.92Z"/></g><rect class="cls-19" x="874.53" y="185.92" width="26.56" height="8.36"/><rect class="cls-25" x="880.7" y="185.92" width="0.49" height="8.36"/><rect class="cls-25" x="887.57" y="185.92" width="0.49" height="8.36"/><rect class="cls-25" x="894.43" y="185.92" width="0.49" height="8.36"/><rect class="cls-26" x="875.76" y="202.22" width="12.87" height="9.47" rx="0.68"/><rect class="cls-27" x="874.53" y="201.11" width="12.87" height="9.47" rx="0.68"/><rect class="cls-26" x="894.08" y="202.22" width="12.87" height="9.47" rx="0.68"/><rect class="cls-27" x="892.85" y="201.11" width="12.87" height="9.47" rx="0.68"/><rect class="cls-26" x="910.81" y="202.22" width="12.87" height="9.47" rx="0.68"/><rect class="cls-27" x="909.58" y="201.11" width="12.87" height="9.47" rx="0.68"/><rect class="cls-26" x="927.61" y="202.22" width="12.87" height="9.47" rx="0.68"/><rect class="cls-12" x="926.38" y="201.11" width="12.87" height="9.47" rx="0.68"/><rect class="cls-26" x="875.76" y="216.89" width="12.87" height="9.47" rx="0.68"/><rect class="cls-27" x="874.53" y="215.78" width="12.87" height="9.47" rx="0.68"/><rect class="cls-26" x="894.08" y="216.89" width="12.87" height="9.47" rx="0.68"/><rect class="cls-27" x="892.85" y="215.78" width="12.87" height="9.47" rx="0.68"/><rect class="cls-26" x="910.81" y="216.89" width="12.87" height="9.47" rx="0.68"/><rect class="cls-27" x="909.58" y="215.78" width="12.87" height="9.47" rx="0.68"/><rect class="cls-26" x="927.61" y="216.89" width="12.87" height="9.47" rx="0.68"/><rect class="cls-28" x="926.38" y="215.78" width="12.87" height="9.47" rx="0.68"/><rect class="cls-26" x="875.76" y="231.56" width="12.87" height="9.47" rx="0.68"/><rect class="cls-27" x="874.53" y="230.45" width="12.87" height="9.47" rx="0.68"/><rect class="cls-26" x="894.08" y="231.56" width="12.87" height="9.47" rx="0.68"/><rect class="cls-27" x="892.85" y="230.45" width="12.87" height="9.47" rx="0.68"/><rect class="cls-26" x="910.81" y="231.56" width="12.87" height="9.47" rx="0.68"/><rect class="cls-27" x="909.58" y="230.45" width="12.87" height="9.47" rx="0.68"/><rect class="cls-26" x="927.61" y="231.56" width="12.87" height="9.47" rx="0.68"/><rect class="cls-28" x="926.38" y="230.45" width="12.87" height="9.47" rx="0.68"/><rect class="cls-26" x="875.76" y="246.23" width="12.87" height="9.47" rx="0.68"/><rect class="cls-27" x="874.53" y="245.12" width="12.87" height="9.47" rx="0.68"/><rect class="cls-26" x="894.08" y="246.23" width="12.87" height="9.47" rx="0.68"/><rect class="cls-27" x="892.85" y="245.12" width="12.87" height="9.47" rx="0.68"/><rect class="cls-26" x="910.81" y="246.23" width="12.87" height="9.47" rx="0.68"/><rect class="cls-28" x="909.58" y="245.12" width="12.87" height="9.47" rx="0.68"/><rect class="cls-26" x="927.61" y="246.23" width="12.87" height="9.47" rx="0.68"/><rect class="cls-28" x="926.38" y="245.12" width="12.87" height="9.47" rx="0.68"/><path class="cls-25" d="M882.25,203v1.34l-1,4.83h-1.54l1.1-5.07h-1.52V203Z"/><path class="cls-25" d="M900.49,205.37a1.08,1.08,0,0,1,.52.41,2.84,2.84,0,0,1,.18,1.3,3,3,0,0,1-.14,1.1,1.16,1.16,0,0,1-.56.58,2.41,2.41,0,0,1-1.13.23,2.24,2.24,0,0,1-1.09-.22,1.36,1.36,0,0,1-.57-.57,2.92,2.92,0,0,1-.17-1.2,5.42,5.42,0,0,1,.08-1,1,1,0,0,1,.54-.66.92.92,0,0,1-.43-.44,1.84,1.84,0,0,1-.14-.76A1.53,1.53,0,0,1,898,203a1.92,1.92,0,0,1,1.33-.4,1.87,1.87,0,0,1,1.4.42,1.74,1.74,0,0,1,.39,1.21,1.46,1.46,0,0,1-.13.72A1.32,1.32,0,0,1,900.49,205.37Zm-.84,1.24a1,1,0,0,0-.07-.47.25.25,0,0,0-.23-.12.24.24,0,0,0-.22.12,1.15,1.15,0,0,0-.06.47v.8a1.16,1.16,0,0,0,.07.52.28.28,0,0,0,.24.11.22.22,0,0,0,.22-.12,1.43,1.43,0,0,0,0-.52Zm0-2.57a1,1,0,0,0,0-.41.22.22,0,0,0-.21-.1.22.22,0,0,0-.21.11,1.17,1.17,0,0,0,0,.4v.47a.87.87,0,0,0,.06.39.22.22,0,0,0,.2.11.21.21,0,0,0,.21-.11,1,1,0,0,0,0-.43Z"/><path class="cls-25" d="M914.28,207.23h1.54c0,.29,0,.47,0,.54a.26.26,0,0,0,.09.19.31.31,0,0,0,.22.08.27.27,0,0,0,.2-.07.26.26,0,0,0,.08-.19c0-.08,0-.23,0-.46v-1a.81.81,0,0,1-.34.37,1.2,1.2,0,0,1-.57.12,1.23,1.23,0,0,1-.75-.23,1,1,0,0,1-.41-.55,3.34,3.34,0,0,1-.08-.86v-.49a5.9,5.9,0,0,1,.05-1,1.22,1.22,0,0,1,.26-.58,1.38,1.38,0,0,1,.59-.42,2.39,2.39,0,0,1,.88-.15,2.62,2.62,0,0,1,1,.17,1.41,1.41,0,0,1,.62.5,1.45,1.45,0,0,1,.25.67q0,.36,0,1.38v.85c0,.74,0,1.23,0,1.48a1.43,1.43,0,0,1-.9,1.2,2.78,2.78,0,0,1-2-.05,1.25,1.25,0,0,1-.59-.59A2.22,2.22,0,0,1,914.28,207.23Zm1.54-1.92c0,.26,0,.42.1.48a.28.28,0,0,0,.2.09.26.26,0,0,0,.24-.12.94.94,0,0,0,.07-.45v-1.12a1.21,1.21,0,0,0-.07-.53.23.23,0,0,0-.23-.13.29.29,0,0,0-.21.1c-.07.06-.1.24-.1.52Z"/><path class="cls-25" d="M882.68,217.61v4h.43v1h-.43v1.09h-1.54V222.7h-1.83v-1l1.33-4Zm-1.54,4V219l-.69,2.63Z"/><path class="cls-25" d="M881.91,232.27v6.18h-1.54v-3.31a4.56,4.56,0,0,0,0-.86.31.31,0,0,0-.18-.22,2,2,0,0,0-.69-.08h-.15v-.72a2.77,2.77,0,0,0,1.69-1Z"/><path class="cls-25" d="M883.17,248.87v2.06a4.81,4.81,0,0,1-.08,1,1.35,1.35,0,0,1-.32.6,1.32,1.32,0,0,1-.57.4,2.28,2.28,0,0,1-.76.13,3,3,0,0,1-.92-.13,1.32,1.32,0,0,1-.59-.4,1.74,1.74,0,0,1-.3-.57,3.17,3.17,0,0,1-.1-.95v-2.16a4.05,4.05,0,0,1,.15-1.27,1.27,1.27,0,0,1,.58-.68,2.1,2.1,0,0,1,1.06-.25,2.38,2.38,0,0,1,.91.17,1.4,1.4,0,0,1,.87,1A6,6,0,0,1,883.17,248.87Zm-1.54-.51a2.36,2.36,0,0,0,0-.62.21.21,0,0,0-.22-.12.22.22,0,0,0-.23.13,1.87,1.87,0,0,0-.06.61v3a2,2,0,0,0,.06.65c0,.07.1.11.22.11a.22.22,0,0,0,.22-.13,1.76,1.76,0,0,0,.06-.59Z"/><path class="cls-25" d="M899.11,248.87v2.06a4.22,4.22,0,0,1-.08,1,1.33,1.33,0,0,1-.31.6,1.35,1.35,0,0,1-.58.4,2.28,2.28,0,0,1-.76.13,3,3,0,0,1-.92-.13,1.29,1.29,0,0,1-.58-.4,1.6,1.6,0,0,1-.31-.57,3.63,3.63,0,0,1-.09-.95v-2.16a4.44,4.44,0,0,1,.14-1.27,1.29,1.29,0,0,1,.59-.68,2.05,2.05,0,0,1,1.06-.25,2.33,2.33,0,0,1,.9.17,1.4,1.4,0,0,1,.87,1A5.11,5.11,0,0,1,899.11,248.87Zm-1.54-.51a2.36,2.36,0,0,0-.05-.62c0-.08-.1-.12-.22-.12a.23.23,0,0,0-.23.13,2.38,2.38,0,0,0-.05.61v3a2.49,2.49,0,0,0,.05.65.22.22,0,0,0,.22.11.23.23,0,0,0,.23-.13,2.24,2.24,0,0,0,.05-.59Z"/><path class="cls-25" d="M903.3,248.87v2.06a4.81,4.81,0,0,1-.08,1,1.35,1.35,0,0,1-.32.6,1.29,1.29,0,0,1-.58.4,2.18,2.18,0,0,1-.75.13,3,3,0,0,1-.92-.13,1.32,1.32,0,0,1-.59-.4,1.74,1.74,0,0,1-.3-.57,3.17,3.17,0,0,1-.1-.95v-2.16a4.05,4.05,0,0,1,.15-1.27,1.27,1.27,0,0,1,.58-.68,2.08,2.08,0,0,1,1.06-.25,2.38,2.38,0,0,1,.91.17,1.59,1.59,0,0,1,.6.44,1.5,1.5,0,0,1,.27.57A6,6,0,0,1,903.3,248.87Zm-1.54-.51a2.36,2.36,0,0,0,0-.62.21.21,0,0,0-.22-.12.22.22,0,0,0-.23.13,1.87,1.87,0,0,0-.06.61v3a2,2,0,0,0,.06.65c0,.07.1.11.22.11a.22.22,0,0,0,.22-.13,1.76,1.76,0,0,0,.06-.59Z"/><path class="cls-6" d="M917.35,246.67l-1.83,6.41h-1.16l1.83-6.41Z"/><path class="cls-6" d="M929.52,248.39h6.59v1.24h-6.59Zm0,1.94h6.59v1.23h-6.59Z"/><path class="cls-6" d="M935,232.15l-.76,3,.92,3.29h-1.86c-.19-.83-.33-1.55-.42-2.15-.13.75-.27,1.47-.42,2.15h-1.6l.82-3.29-.82-3h1.6q.39,1.93.42,2.19.27-1.6.42-2.19Z"/><path class="cls-6" d="M929.89,205.07h2.31v-2.32h1.57v2.32h2.32v1.57h-2.32v2.3H932.2v-2.3h-2.31Z"/><path class="cls-6" d="M935.62,219.74v1.66H930v-1.66Z"/><path class="cls-25" d="M900.87,237.39v1.06h-3.39v-.88c1-1.65,1.6-2.66,1.79-3a2.34,2.34,0,0,0,.29-.92.63.63,0,0,0-.09-.37.3.3,0,0,0-.26-.13.28.28,0,0,0-.26.14,1.13,1.13,0,0,0-.09.55v.58h-1.38v-.22a5.66,5.66,0,0,1,0-.82,1.56,1.56,0,0,1,.27-.59,1.37,1.37,0,0,1,.54-.44,2.18,2.18,0,0,1,.81-.14,2,2,0,0,1,1.39.45,1.55,1.55,0,0,1,.47,1.15,2.74,2.74,0,0,1-.27,1.13,20.81,20.81,0,0,1-1.56,2.5Z"/><path class="cls-25" d="M917.48,235a1,1,0,0,1,.52.39,2.86,2.86,0,0,1,.17,1.26,3.11,3.11,0,0,1-.17,1.14,1.2,1.2,0,0,1-.58.62,2.28,2.28,0,0,1-1,.21,2.21,2.21,0,0,1-1.15-.25,1.17,1.17,0,0,1-.55-.6,4,4,0,0,1-.13-1.24V236h1.54v1a1.86,1.86,0,0,0,0,.51.23.23,0,0,0,.22.1.22.22,0,0,0,.23-.13,2.45,2.45,0,0,0,.06-.72v-.43a1.25,1.25,0,0,0-.08-.51.37.37,0,0,0-.24-.22,2.87,2.87,0,0,0-.6-.06v-.9a3.09,3.09,0,0,0,.68,0,.32.32,0,0,0,.18-.18,1.18,1.18,0,0,0,.06-.44v-.35a.81.81,0,0,0-.07-.42.26.26,0,0,0-.42,0,1.19,1.19,0,0,0-.06.47v.5h-1.54v-.52a1.45,1.45,0,0,1,.4-1.2,2.18,2.18,0,0,1,1.29-.31,2,2,0,0,1,1.49.43,1.73,1.73,0,0,1,.39,1.2,1.47,1.47,0,0,1-.14.75A1.31,1.31,0,0,1,917.48,235Z"/><path class="cls-25" d="M900.91,217.61v1H899v1.05a1.17,1.17,0,0,1,.93-.42,1.27,1.27,0,0,1,1,.35,2.16,2.16,0,0,1,.32,1.37v.88a5.65,5.65,0,0,1-.06,1,1.36,1.36,0,0,1-.27.57,1.43,1.43,0,0,1-.57.4,2.67,2.67,0,0,1-.9.13,2.46,2.46,0,0,1-1-.2,1.25,1.25,0,0,1-.64-.62,3.18,3.18,0,0,1-.19-1.28v-.33h1.54v.38a5.6,5.6,0,0,0,0,.85.26.26,0,0,0,.29.25.21.21,0,0,0,.18-.07.22.22,0,0,0,.08-.15c0-.06,0-.3,0-.73v-1.23a1,1,0,0,0-.07-.47.26.26,0,0,0-.24-.12.28.28,0,0,0-.18.06.24.24,0,0,0-.09.14,1.29,1.29,0,0,0,0,.34h-1.53l.07-3.11Z"/><path class="cls-25" d="M905.31,169.27v-2.91l.41-1.1a.88.88,0,0,1,.69.69v3.88l-.27.28Zm.83,1.11.27.28v3.88a.88.88,0,0,1-.69.69l-.41-1.1v-2.92Z"/><path class="cls-25" d="M911,175.23h-1.11v-1.1H911Z"/><path class="cls-25" d="M915.56,166.23v3l-.83.84-.28-.28v-4Zm3.61,3.46.55.56-.55.55h-3.61l-.55-.55.55-.56Zm0-.42v-2.91l.41-1.1a.88.88,0,0,1,.69.69v3.88l-.27.28Zm.83,1.11.27.28v3.88a.88.88,0,0,1-.69.69l-.41-1.1v-2.92Z"/><path class="cls-25" d="M921.38,174.26v-3.6l.28-.28.83.83v2.64Zm5.27,1h-4.57a.9.9,0,0,1-.7-.69l1.11-.41h3.74Zm-.83-8.87h-3.31L921.4,166a.88.88,0,0,1,.69-.69h4.14Zm.28,3.33.55.56-.55.55h-3.61l-.55-.55.55-.56Zm0-.42v-2.91l.41-1.1a.88.88,0,0,1,.69.69v3.88l-.27.28Z"/><path class="cls-25" d="M929.42,166.64v2.63l-.83.84-.28-.28v-3.6Zm3.74,8.59H929a.9.9,0,0,1-.7-.69l1.11-.41h3.33Zm0-8.87h-3.72l-1.11-.41a.88.88,0,0,1,.69-.69h4.56Zm-.13,3.33.55.56-.55.55h-3.61l-.55-.55.55-.56Zm.83.69.27.28v3.88a.88.88,0,0,1-.69.69l-.41-1.1v-2.92Z"/><path class="cls-25" d="M918,219.25h-1.54c0-.28,0-.46,0-.54a.25.25,0,0,0-.09-.19.31.31,0,0,0-.22-.07.29.29,0,0,0-.2.07.25.25,0,0,0-.08.18c0,.08,0,.23,0,.47v1a.72.72,0,0,1,.34-.37,1.2,1.2,0,0,1,.57-.13,1.25,1.25,0,0,1,.74.23,1,1,0,0,1,.42.55,3.89,3.89,0,0,1,.08.87v.49a5.83,5.83,0,0,1-.05,1,1.25,1.25,0,0,1-.26.59,1.38,1.38,0,0,1-.59.42,2.58,2.58,0,0,1-.88.14,2.45,2.45,0,0,1-1-.17,1.39,1.39,0,0,1-.62-.49,1.61,1.61,0,0,1-.25-.68c0-.23,0-.69,0-1.37v-.86q0-1.1,0-1.47a1.43,1.43,0,0,1,.26-.7,1.39,1.39,0,0,1,.64-.5,2.41,2.41,0,0,1,.93-.17,2.35,2.35,0,0,1,1.06.21,1.25,1.25,0,0,1,.59.59A2.28,2.28,0,0,1,918,219.25Zm-1.54,1.93a.94.94,0,0,0-.07-.45.26.26,0,0,0-.24-.12.27.27,0,0,0-.23.11,1,1,0,0,0-.07.46v1.12a1.21,1.21,0,0,0,.07.53.24.24,0,0,0,.23.12.35.35,0,0,0,.21-.09c.07-.07.1-.24.1-.53Z"/><path class="cls-29" d="M273.89,57.42l.2.6a.4.4,0,0,1,0,.15.15.15,0,0,1,0,.07v.12a.19.19,0,0,1,0,.08.83.83,0,0,1-.25.47l-.06.05,0,0-.06,0a.53.53,0,0,1-.17.08l-2.61.87a.85.85,0,0,1,1,.41.38.38,0,0,1,.06.13L273.51,65a.8.8,0,0,1,0,.15h0a.2.2,0,0,1,0,.07v.16s0,.07,0,.1,0,0,0,0a.86.86,0,0,1-.19.35l-.06.05a.18.18,0,0,1-.07,0l-.05,0a.75.75,0,0,1-.18.08l-1.21.4a.86.86,0,0,1,1,.41.35.35,0,0,1,.06.14l1.49,4.49a.58.58,0,0,1,0,.14h0a.15.15,0,0,1,0,.07v.15s0,.07,0,.1a.09.09,0,0,0,0,0,.94.94,0,0,1-.2.35l-.06,0-.07.06-.05,0a.75.75,0,0,1-.18.08l1.21-.4a.86.86,0,0,1,1,.41.35.35,0,0,1,.06.14l1.49,4.49a.35.35,0,0,1,0,.14.76.76,0,0,1,0,.15v.07a.83.83,0,0,1-.18.43l-.05.07-.06,0-.07.06-.05,0a.75.75,0,0,1-.18.08l-2.85,1a.87.87,0,0,1,1,.41l.06.14,1.49,4.49a.78.78,0,0,1,0,.22.76.76,0,0,1,0,.15.59.59,0,0,1,0,.22l0,.06a.3.3,0,0,0,0,.08l-.05.06-.05.07a.69.69,0,0,1-.13.11l-.06,0-.17.08,1.23-.41a.84.84,0,0,1,1,.41.31.31,0,0,1,.06.13L280,90a.35.35,0,0,1,0,.14.65.65,0,0,1,0,.24.13.13,0,0,0,0,.06.92.92,0,0,1-.26.46l0,0,0,0-.07,0-.17.08-2.33.77a.86.86,0,0,1,1,.41.35.35,0,0,1,.06.14l1.49,4.49a.32.32,0,0,1,0,.14.2.2,0,0,1,0,.07v.13a.25.25,0,0,1,0,.08.84.84,0,0,1-.35.55l-.06,0-.17.07-6.56,2.18c-.43-.1-.84-.21-1.26-.33s-1.11-.35-1.65-.56a22.25,22.25,0,0,1-4.83-2.59c-.23-.16-.47-.34-.7-.52l-.66-.53a21.58,21.58,0,0,1-3.75-4c-.15-.2-.29-.4-.42-.61s-.27-.41-.4-.62a21.54,21.54,0,0,1-2.13-4.58h0c-.08-.23-.15-.46-.22-.69s-.13-.46-.19-.68a21.63,21.63,0,0,1-.7-5.06c0-.25,0-.5,0-.76s0-.5,0-.76a21.79,21.79,0,0,1,1-5.63c.09-.29.19-.57.29-.85s.22-.58.34-.87a22.1,22.1,0,0,1,4.47-6.77c.1-.11.21-.21.32-.32.28-.29.58-.56.89-.83s.89-.76,1.36-1.11l.23-.17a21.76,21.76,0,0,1,6-3.08l.32-.1A21.91,21.91,0,0,1,273.89,57.42Z"/><circle class="cls-2" cx="280.68" cy="77.89" r="21.82" transform="translate(-7.26 33.87) rotate(-6.82)"/><circle class="cls-30" cx="280.18" cy="78.05" r="17.29" transform="translate(178.7 350.63) rotate(-85.15)"/><path class="cls-31" d="M274.74,61.65q-.48.15-.93.33a17.29,17.29,0,0,1,10.87,32.77c.31-.09.63-.18.94-.29a17.28,17.28,0,1,0-10.88-32.81Z"/><circle class="cls-2" cx="280.18" cy="78.05" r="11.37" transform="translate(-4.22 138.97) rotate(-27.66)"/><path class="cls-32" d="M283.13,71.69l-.53-1.58L276,72.3l-2.53.84.52,1.57,2.53-.84a2.59,2.59,0,0,1,2.87.9l-4.85,1.61.53,1.58,4.85-1.61a2.58,2.58,0,0,1-1.77,2.43l-2.53.84.52,1.58.51-.17a4.45,4.45,0,0,1,2.4-.13,9.67,9.67,0,0,1,5.62,3.81l1.66-.55a11.76,11.76,0,0,0-6.15-4.68,4.28,4.28,0,0,0,1.37-3.67l2.63-.88-.52-1.57-2.64.87a4.12,4.12,0,0,0-1.31-1.41Z"/><path class="cls-29" d="M614.48,224.62l.19.56a.7.7,0,0,1,0,.14.13.13,0,0,0,0,.06v.12s0,.05,0,.08a.8.8,0,0,1-.24.43l-.05.05,0,0-.06,0-.15.07-2.45.81a.81.81,0,0,1,1,.39.43.43,0,0,1,.05.12l1.4,4.2a.68.68,0,0,1,0,.14h0a.13.13,0,0,0,0,.06s0,0,0,0,0,.07,0,.11a.29.29,0,0,1,0,.09.06.06,0,0,1,0,0,.73.73,0,0,1-.19.33l-.05.05-.06,0-.05,0-.17.08-1.13.38a.79.79,0,0,1,1,.38.31.31,0,0,1,.06.13l1.39,4.2a.61.61,0,0,1,0,.13h0a.15.15,0,0,1,0,.07v.14s0,.07,0,.1,0,0,0,0a.8.8,0,0,1-.19.32l-.05.06-.06.05-.05,0-.17.08,1.13-.38a.83.83,0,0,1,1,.38.69.69,0,0,1,0,.13l1.4,4.2,0,.14c0,.05,0,.09,0,.14s0,0,0,.06a.77.77,0,0,1-.16.41l0,0-.06.06-.06.05,0,0-.17.08-2.67.89a.8.8,0,0,1,1,.38.5.5,0,0,1,0,.13l1.4,4.2a.75.75,0,0,1,0,.2.33.33,0,0,1,0,.14,1.29,1.29,0,0,1-.05.21l0,.06a.43.43,0,0,1,0,.07l0,.06,0,.06-.12.11-.06,0a.48.48,0,0,1-.16.08l1.16-.39a.81.81,0,0,1,1,.39l.06.13,1.39,4.2a.5.5,0,0,1,0,.13.81.81,0,0,1,0,.22.13.13,0,0,1,0,.06.76.76,0,0,1-.23.42l0,0-.05,0a.1.1,0,0,1,0,0l-.16.07-2.18.73a.79.79,0,0,1,1,.38l.06.13,1.39,4.2a.61.61,0,0,1,0,.13.15.15,0,0,0,0,.07v.12s0,.05,0,.07a.82.82,0,0,1-.33.52l-.06,0-.15.08-6.15,2c-.39-.09-.78-.19-1.18-.31s-1-.33-1.54-.52A20.91,20.91,0,0,1,606,261.4c-.22-.16-.44-.32-.65-.49s-.42-.32-.62-.5a19.72,19.72,0,0,1-3.51-3.78c-.14-.19-.27-.38-.4-.58s-.25-.38-.37-.58a20.66,20.66,0,0,1-2-4.28h0c-.07-.21-.14-.42-.2-.64s-.13-.43-.18-.64a20.35,20.35,0,0,1-.66-4.74c0-.23,0-.46,0-.7s0-.47,0-.71a20.28,20.28,0,0,1,1-5.27c.08-.27.18-.54.28-.8s.2-.54.32-.81a20.38,20.38,0,0,1,4.18-6.34l.29-.3q.4-.4.84-.78c.41-.36.83-.71,1.27-1l.22-.16a20.3,20.3,0,0,1,5.6-2.87l.3-.1A22.27,22.27,0,0,1,614.48,224.62Z"/><circle class="cls-2" cx="620.83" cy="243.77" r="20.42" transform="translate(-24.55 75.43) rotate(-6.82)"/><circle class="cls-30" cx="620.37" cy="243.93" r="16.18" transform="translate(324.83 841.43) rotate(-85.15)"/><path class="cls-31" d="M615.27,228.57l-.86.32a16.18,16.18,0,0,1,10.17,30.66c.29-.08.59-.17.88-.27a16.18,16.18,0,0,0-10.19-30.71Z"/><circle class="cls-2" cx="620.37" cy="243.93" r="10.64" transform="translate(-42.34 315.83) rotate(-27.66)"/><path class="cls-32" d="M623.13,238l-.49-1.47-6.17,2-2.36.79.49,1.47L617,240a2.4,2.4,0,0,1,2.69.84l-4.54,1.5.49,1.48,4.54-1.51a2.42,2.42,0,0,1-1.65,2.28l-2.37.78.49,1.48.47-.16a4.2,4.2,0,0,1,2.25-.12,9.11,9.11,0,0,1,5.26,3.56l1.55-.51a11,11,0,0,0-5.75-4.38,4,4,0,0,0,1.28-3.44l2.46-.81-.49-1.48-2.46.82A4,4,0,0,0,620,239Z"/><path class="cls-29" d="M1275.4,113.54l.11.34a.29.29,0,0,1,0,.09.08.08,0,0,0,0,0,.17.17,0,0,1,0,.07v0a.52.52,0,0,1-.15.27l0,0,0,0,0,0-.1,0-1.5.5a.49.49,0,0,1,.59.24.2.2,0,0,1,0,.08l.86,2.59a.25.25,0,0,1,0,.08h0a.08.08,0,0,1,0,0v.09a.13.13,0,0,0,0,.06v0a.47.47,0,0,1-.12.2l0,0,0,0,0,0a.31.31,0,0,1-.1,0l-.7.23a.5.5,0,0,1,.6.24l0,.08.86,2.59s0,0,0,.08h0v.13a.13.13,0,0,1,0,.06v0a.53.53,0,0,1-.11.21l0,0,0,0,0,0-.11,0,.7-.24a.51.51,0,0,1,.6.24l0,.08.86,2.59a.29.29,0,0,1,0,.09s0,0,0,.08,0,0,0,0a.46.46,0,0,1-.1.25l0,0,0,0,0,0,0,0-.11.05-1.64.55a.49.49,0,0,1,.59.24.25.25,0,0,1,0,.07l.86,2.6a.5.5,0,0,1,0,.12v.09l0,.13,0,0,0,0,0,0,0,0-.08.07,0,0-.1.05.71-.24a.5.5,0,0,1,.6.23l0,.08.86,2.6a.19.19,0,0,1,0,.08.33.33,0,0,1,0,.14v0a.53.53,0,0,1-.15.26l0,0,0,0,0,0-.09,0-1.35.45a.49.49,0,0,1,.59.24.2.2,0,0,1,0,.08l.86,2.59s0,0,0,.08v.12a.06.06,0,0,1,0,0,.48.48,0,0,1-.2.32l0,0-.1.05-3.79,1.25c-.25-.05-.49-.12-.73-.19s-.64-.2-1-.32a12.68,12.68,0,0,1-2.79-1.49l-.4-.3-.39-.31a12.33,12.33,0,0,1-2.16-2.34c-.08-.12-.17-.23-.24-.35l-.24-.36a13.09,13.09,0,0,1-1.23-2.65h0l-.12-.39c0-.14-.08-.27-.11-.4a12.77,12.77,0,0,1-.41-2.92v-.44c0-.14,0-.29,0-.44a12.68,12.68,0,0,1,.59-3.25c.06-.17.11-.33.18-.49s.12-.34.19-.5a12.61,12.61,0,0,1,2.58-3.91,1.7,1.7,0,0,1,.19-.19c.16-.16.33-.33.51-.48s.52-.44.79-.64l.13-.1a12.56,12.56,0,0,1,3.46-1.77l.18-.06A11.36,11.36,0,0,1,1275.4,113.54Z"/><circle class="cls-2" cx="1279.32" cy="125.36" r="12.6" transform="translate(-5.83 152.77) rotate(-6.82)"/><circle class="cls-30" cx="1279.03" cy="125.45" r="9.98"/><path class="cls-31" d="M1275.88,116l-.53.19a10,10,0,0,1,6.28,18.92l.54-.16a10,10,0,1,0-6.29-19Z"/><circle class="cls-2" cx="1279.03" cy="125.45" r="6.57" transform="translate(87.9 608.02) rotate(-27.66)"/><path class="cls-32" d="M1280.73,121.78l-.3-.91-3.81,1.26-1.46.48.31.91,1.46-.48a1.49,1.49,0,0,1,1.66.52l-2.8.93.3.91,2.8-.93a1.49,1.49,0,0,1-1,1.4l-1.46.49.3.91.29-.1a2.63,2.63,0,0,1,1.39-.08,5.67,5.67,0,0,1,3.25,2.21l.95-.32a6.77,6.77,0,0,0-3.55-2.7,2.48,2.48,0,0,0,.79-2.13l1.52-.5-.3-.91-1.52.5a2.46,2.46,0,0,0-.76-.81Z"/><path class="cls-29" d="M113.84,213.73l.11.35a.24.24,0,0,1,0,.08.06.06,0,0,0,0,0,.15.15,0,0,1,0,.07v0a.49.49,0,0,1-.15.27l0,0,0,0,0,0-.1.05-1.5.5a.48.48,0,0,1,.59.23l0,.08.86,2.59s0,.06,0,.09h0s0,0,0,0v.09a.11.11,0,0,0,0,0v0a.41.41,0,0,1-.12.2l0,0,0,0h0l-.1.05-.7.24a.48.48,0,0,1,.59.23l0,.08.86,2.59s0,.06,0,.08h0v.14a.11.11,0,0,1,0,.05v0a.56.56,0,0,1-.11.2l0,0,0,0,0,0-.11,0,.7-.23a.5.5,0,0,1,.6.24l0,.07.86,2.6a.19.19,0,0,1,0,.08s0,.06,0,.09,0,0,0,0a.49.49,0,0,1-.1.25l0,0,0,0,0,0,0,0-.11,0-1.64.54a.49.49,0,0,1,.59.24.2.2,0,0,1,0,.08l.86,2.59a.59.59,0,0,1,0,.13v.08l0,.13,0,0,0,0,0,0,0,0-.07.06,0,0-.1.05.71-.24a.51.51,0,0,1,.6.24l0,.08.86,2.59a.24.24,0,0,1,0,.08.33.33,0,0,1,0,.14,0,0,0,0,1,0,0,.5.5,0,0,1-.14.27l0,0,0,0,0,0-.1,0-1.34.45a.48.48,0,0,1,.59.23l0,.08.86,2.59s0,.06,0,.09v.11a.09.09,0,0,1,0,.05.46.46,0,0,1-.2.31l0,0-.1,0-3.79,1.26-.73-.19c-.32-.1-.64-.21-1-.33a12.68,12.68,0,0,1-2.79-1.49l-.4-.3-.39-.31a12,12,0,0,1-2.16-2.34,2.71,2.71,0,0,1-.24-.35l-.24-.36a13,13,0,0,1-1.23-2.64h0l-.12-.39c0-.13-.08-.26-.11-.4a12.77,12.77,0,0,1-.41-2.92V226c0-.15,0-.3,0-.44a12.77,12.77,0,0,1,.6-3.26c.06-.16.11-.33.17-.49s.13-.33.2-.5a12.85,12.85,0,0,1,2.58-3.91l.19-.19.51-.48c.25-.22.51-.43.79-.64l.13-.1A12.84,12.84,0,0,1,112,214.2l.18-.06A12.74,12.74,0,0,1,113.84,213.73Z"/><circle class="cls-2" cx="117.76" cy="225.55" r="12.6" transform="translate(-25.95 15.58) rotate(-6.82)"/><circle class="cls-30" cx="117.47" cy="225.65" r="9.98"/><path class="cls-31" d="M114.32,216.17l-.53.2a10,10,0,0,1,6.27,18.92l.55-.17a10,10,0,0,0-6.29-19Z"/><circle class="cls-2" cx="117.47" cy="225.65" r="6.57" transform="translate(-91.32 80.31) rotate(-27.66)"/><path class="cls-32" d="M119.17,222l-.3-.91-3.81,1.26-1.46.49.31.91,1.46-.49a1.52,1.52,0,0,1,1.66.52l-2.8.93.3.91,2.8-.93a1.51,1.51,0,0,1-1,1.41l-1.46.48.3.91.29-.09a2.6,2.6,0,0,1,1.38-.08,5.63,5.63,0,0,1,3.26,2.2l1-.32a6.77,6.77,0,0,0-3.55-2.7,2.47,2.47,0,0,0,.79-2.12l1.52-.51-.3-.91-1.52.51a2.6,2.6,0,0,0-.76-.82Z"/></g></g></svg>