<?xml version="1.0" encoding="utf-8"?>
<!-- Generator: Adobe Illustrator 26.5.1, SVG Export Plug-In . SVG Version: 6.00 Build 0)  -->
<svg version="1.1" id="Layer_1" xmlns="http://www.w3.org/2000/svg" xmlns:xlink="http://www.w3.org/1999/xlink" x="0px" y="0px"
	 viewBox="0 0 26.3 31.6" style="enable-background:new 0 0 26.3 31.6;" xml:space="preserve">
<style type="text/css">
	.st0{fill:#E2E2E2;}
	.st1{fill:#042b62;}
	.st2{fill:#042b62;}
	.st3{fill:#FFFFFF;}
</style>
<path class="st0" d="M21.5,31.6H1.6C0.7,31.6,0,30.9,0,30c0,0,0,0,0,0V3.7c0-0.9,0.7-1.6,1.6-1.6c0,0,0,0,0,0h13.8L23,9.8V30
	C23,30.9,22.3,31.6,21.5,31.6z"/>
<path class="st1" d="M24.9,28.3H4.7c-0.8,0-1.4-0.6-1.4-1.4V1.4C3.3,0.6,3.9,0,4.7,0h13.5c0.3,0,0.6,0.1,0.8,0.3l7,7
	c0.2,0.2,0.3,0.5,0.3,0.8v18.8C26.3,27.7,25.7,28.3,24.9,28.3z"/>
<path class="st2" d="M20,7.6h6.4L18.6,0v6.3C18.7,7,19.2,7.6,20,7.6C20,7.6,20,7.6,20,7.6z"/>
<path class="st3" d="M7.7,24H6.6C6.3,24,6,23.8,6,23.5c0,0,0-0.1,0-0.1c0-0.3,0.2-0.5,0.5-0.5h1.1c0.3,0,0.5,0.2,0.5,0.5
	C8.2,23.7,8,24,7.7,24C7.7,24,7.7,24,7.7,24z"/>
<path class="st3" d="M23,24H9.9c-0.3,0-0.5-0.2-0.5-0.5c0,0,0,0,0,0c0-0.3,0.2-0.5,0.6-0.5H23c0.3,0,0.5,0.2,0.5,0.5
	C23.6,23.8,23.3,24,23,24C23,24,23,24,23,24z"/>
<path class="st3" d="M7.7,20.7H6.6c-0.3,0-0.6-0.2-0.6-0.5c0,0,0,0,0,0c0-0.3,0.2-0.5,0.5-0.5c0,0,0,0,0,0h1.1
	c0.3,0,0.5,0.2,0.5,0.5C8.2,20.4,8,20.7,7.7,20.7z"/>
<path class="st3" d="M23,20.7H9.9c-0.3,0-0.6-0.2-0.6-0.5c0-0.3,0.2-0.5,0.5-0.5c0,0,0,0,0,0H23c0.3,0,0.5,0.2,0.5,0.5c0,0,0,0,0,0
	C23.5,20.4,23.3,20.7,23,20.7z"/>
<path class="st3" d="M7.7,17.4H6.6c-0.3,0-0.5-0.3-0.5-0.6c0-0.2,0.2-0.4,0.5-0.5h1.1c0.3,0,0.6,0.2,0.6,0.5c0,0.3-0.2,0.6-0.5,0.6
	C7.8,17.4,7.7,17.4,7.7,17.4z"/>
<path class="st3" d="M23,17.4H9.9c-0.3,0-0.6-0.2-0.6-0.5c0-0.3,0.2-0.6,0.5-0.6c0,0,0.1,0,0.1,0H23c0.3,0,0.6,0.2,0.6,0.5
	c0,0.3-0.2,0.6-0.5,0.6C23.1,17.4,23,17.4,23,17.4z"/>
<path class="st3" d="M7.7,14.1H6.6c-0.3,0-0.6-0.2-0.6-0.5c0,0,0,0,0,0c0-0.3,0.2-0.5,0.5-0.6h1.1c0.3,0,0.5,0.2,0.5,0.6
	C8.2,13.9,8,14.1,7.7,14.1z"/>
<path class="st3" d="M23,14.1H9.9c-0.3,0-0.5-0.2-0.5-0.5c0,0,0,0,0,0c0-0.3,0.2-0.6,0.6-0.6l0,0H23c0.3,0,0.5,0.2,0.5,0.6
	C23.6,13.9,23.3,14.2,23,14.1C23,14.2,23,14.2,23,14.1z"/>
<path class="st3" d="M7.7,4.9h2.4c0.6,0,1.1,0.5,1.1,1.1v2.5c0,0.6-0.5,1.1-1.1,1.1c0,0,0,0,0,0H7.7c-0.6,0-1.1-0.5-1.1-1.1
	c0,0,0,0,0,0V6C6.6,5.4,7.1,4.9,7.7,4.9z"/>
</svg>
