<?xml version="1.0" encoding="UTF-8"?>
<svg width="167" height="175" id="Layer_1" xmlns="http://www.w3.org/2000/svg" viewBox="0 0 1080 1080">
  <defs>
    <style>
      .cls-1 {
        fill: #00f2a6;
      }

      .cls-2 {
        fill: #025f80;
      }

      .cls-3 {
        fill: #042b62;
      }

      .cls-4 {
        fill: #fd5426;
      }

      .cls-5 {
        fill: rgba(4, 43, 98, .48);
      }

      .cls-6 {
        fill: #fff;
      }

      .cls-7 {
        fill: rgba(4, 43, 98, .13);
      }

      .cls-8 {
        fill: #ffe177;
      }

      .cls-9 {
        fill: #fd6930;
      }

      .cls-10 {
        fill: #eaf9fa;
      }

      .cls-11 {
        fill: #024c67;
      }
    </style>
  </defs>
  <g id="Group">
    <g id="Group_2">
      <path id="Vector" class="cls-7" d="M958.91,795.87c44.48-73.84,70.09-160.34,70.09-252.82s-25.61-178.98-70.09-252.82v505.64Z"/>
      <g id="Group_3">
        <path id="Vector_2" class="cls-7" d="M840.57,156.55c-83.3-65.23-188.2-104.13-302.2-104.13s-218.91,38.9-302.2,104.13h604.4Z"/>
      </g>
      <g id="Group_4">
        <path id="Vector_3" class="cls-7" d="M117.83,290.23c-44.49,73.84-70.09,160.33-70.09,252.82s25.6,178.98,70.09,252.82v-505.64Z"/>
        <path id="Vector_4" class="cls-7" d="M222.27,918.25c85.38,72.01,195.66,115.43,316.1,115.43s230.71-43.42,316.1-115.43H222.27Z"/>
      </g>
    </g>
    <path id="Vector_5" class="cls-3" d="M944.38,285.89H133.66l-17.84,2v504.59c28.76,48.61,65.64,91.83,108.82,127.77h696.22c22.12,0,40.05-17.93,40.05-40.05V287.89l-16.54-2Z"/>
    <g id="Group_5">
      <g id="Group_6">
        <g id="Group_7">
          <path id="Vector_6" class="cls-5" d="M221.96,287.89h-106.14v504.59c28.16,47.59,64.12,90,106.14,125.5V287.89Z"/>
        </g>
      </g>
      <g id="Group_8">
        <path id="Vector_7" class="cls-6" d="M791.76,389.85h72.03c3.32,0,6.01-2.69,6.01-6.01v-18.02c0-3.32-2.69-6.01-6.01-6.01h-103.08c12.25,7.84,22.83,18.07,31.05,30.04Z"/>
        <g id="Group_9">
          <path id="Vector_8" class="cls-6" d="M404.2,389.85h134.17c3.32,0,6.01-2.69,6.01-6.01v-18.02c0-3.32-2.69-6.01-6.01-6.01h-134.17c-3.32,0-6.01,2.69-6.01,6.01v18.02c0,3.32,2.69,6.01,6.01,6.01Z"/>
          <path id="Vector_9" class="cls-6" d="M574.42,365.82v18.02c0,3.32,2.69,6.01,6.01,6.01h32.98c8.23-11.97,18.8-22.2,31.05-30.04h-64.03c-3.32,0-6.01,2.69-6.01,6.01Z"/>
          <path id="Vector_10" class="cls-6" d="M362.14,359.81h-149.19c-3.32,0-6.01,2.69-6.01,6.01v18.02c0,3.32,2.69,6.01,6.01,6.01h149.19c3.32,0,6.01-2.69,6.01-6.01v-18.02c0-3.32-2.69-6.01-6.01-6.01Z"/>
        </g>
      </g>
      <g id="Group_10">
        <path id="Vector_11" class="cls-6" d="M810.72,450.93c0,3.64-.19,7.25-.54,10.8h53.61c3.32,0,6.01-2.69,6.01-6.01v-18.02c0-3.32-2.69-6.01-6.01-6.01h-54.81c1.12,6.25,1.75,12.67,1.75,19.24Z"/>
        <path id="Vector_12" class="cls-6" d="M863.79,503.57h-66.79c-6.41,11.46-14.85,21.63-24.82,30.04h91.61c3.32,0,6.01-2.69,6.01-6.01v-18.02c0-3.32-2.69-6.01-6.01-6.01Z"/>
        <path id="Vector_13" class="cls-6" d="M863.79,791.09h-120.91l30.04,30.04h90.88c3.32,0,6.01-2.69,6.01-6.01v-18.02c0-3.32-2.69-6.01-6.01-6.01Z"/>
        <g id="Group_11">
          <path id="Vector_14" class="cls-6" d="M776.68,719.21h-14.97c-3.33,10.35-7.34,20.38-12.02,30.04h26.99c3.32,0,6.01-2.69,6.01-6.01v-18.03c0-3.32-2.69-6.01-6.01-6.01Z"/>
          <path id="Vector_15" class="cls-6" d="M812.73,725.22v18.03c0,3.32,2.69,6.01,6.01,6.01h45.06c3.31,0,6-2.69,6-6.01v-18.03c0-3.32-2.69-6.01-6-6.01h-45.06c-3.32,0-6.01,2.69-6.01,6.01Z"/>
        </g>
        <path id="Vector_16" class="cls-6" d="M863.79,575.45h-102.16c3.15,9.75,5.69,19.78,7.55,30.04h94.61c3.32,0,6.01-2.69,6.01-6.01v-18.02c0-3.32-2.69-6.01-6.01-6.01Z"/>
        <path id="Vector_17" class="cls-6" d="M869.8,653.34c0-3.31-2.69-6-6.01-6h-90.85v.12c0,10.13-.65,20.12-1.9,29.92h92.75c3.32,0,6.01-2.69,6.01-6.01v-18.03Z"/>
        <g id="Group_12">
          <path id="Vector_18" class="cls-6" d="M308.07,437.7v18.02c0,3.32,2.69,6.01,6.01,6.01h81.18c15.6-12.05,32.75-22.18,51.1-30.04h-132.27c-3.32,0-6.01,2.69-6.01,6.01Z"/>
          <path id="Vector_19" class="cls-6" d="M272.03,431.69h-59.08c-3.32,0-6.01,2.69-6.01,6.01v18.02c0,3.32,2.69,6.01,6.01,6.01h59.08c3.32,0,6.01-2.69,6.01-6.01v-18.02c0-3.32-2.69-6.01-6.01-6.01Z"/>
        </g>
        <path id="Vector_20" class="cls-6" d="M315.04,719.21h-102.09c-3.32,0-6.01,2.69-6.01,6v18.03c0,3.32,2.69,6.01,6.01,6.01h114.11c-4.67-9.66-8.69-19.7-12.02-30.04Z"/>
        <g id="Group_13">
          <path id="Vector_21" class="cls-6" d="M282.04,791.09h-69.09c-3.32,0-6.01,2.69-6.01,6.01v18.02c0,3.32,2.69,6.01,6.01,6.01h69.09c3.32,0,6.01-2.69,6.01-6.01v-18.02c0-3.32-2.69-6.01-6.01-6.01Z"/>
          <path id="Vector_22" class="cls-6" d="M353.05,791.09h-28.96c-3.32,0-6.01,2.69-6.01,6.01v18.02c0,3.32,2.69,6.01,6.01,6.01h56.76c-10.11-9.18-19.42-19.24-27.81-30.04Z"/>
        </g>
        <path id="Vector_23" class="cls-6" d="M303.8,647.45s0-.08,0-.12h-90.85c-3.32,0-6.01,2.69-6.01,6v18.03c0,3.32,2.69,6.01,6.01,6.01h92.75c-1.25-9.8-1.9-19.79-1.9-29.92Z"/>
        <path id="Vector_24" class="cls-6" d="M353.24,503.57h-140.29c-3.32,0-6.01,2.69-6.01,6.01v18.02c0,3.32,2.69,6.01,6.01,6.01h120.39c5.87-10.54,12.53-20.58,19.9-30.04Z"/>
        <path id="Vector_25" class="cls-6" d="M315.12,575.45h-102.17c-3.32,0-6.01,2.69-6.01,6.01v18.02c0,3.32,2.69,6.01,6.01,6.01h94.61c1.86-10.26,4.4-20.29,7.55-30.04Z"/>
      </g>
      <g id="Group_14">
        <path id="Vector_26" class="cls-3" d="M960.92,287.89H115.83v-93.29c0-22.12,17.93-40.05,40.05-40.05h764.99c22.12,0,40.05,17.93,40.05,40.05v93.29Z"/>
      </g>
      <g id="Group_15">
        <path id="Vector_27" class="cls-3" d="M262.01,154.55h-106.14c-22.12,0-40.05,17.93-40.05,40.05v93.29h106.14v-93.29c0-22.12,17.93-40.05,40.05-40.05Z"/>
      </g>
      <g id="Group_16">
        <g id="Group_17">
          <g id="Group_18">
            <path id="Vector_28" class="cls-6" d="M844.76,236.24h-386.5c-3.32,0-6.01-2.69-6.01-6.01v-18.02c0-3.32,2.69-6.01,6.01-6.01h386.5c3.32,0,6.01,2.69,6.01,6.01v18.02c0,3.32-2.69,6.01-6.01,6.01Z"/>
          </g>
        </g>
        <g id="Group_19">
          <g id="Group_20">
            <path id="Vector_29" class="cls-9" d="M188.92,236.24c8.3,0,15.02-6.72,15.02-15.02s-6.72-15.02-15.02-15.02-15.02,6.72-15.02,15.02,6.72,15.02,15.02,15.02Z"/>
          </g>
          <g id="Group_21">
            <path id="Vector_30" class="cls-8" d="M240.99,236.24c8.29,0,15.02-6.72,15.02-15.02s-6.72-15.02-15.02-15.02-15.02,6.72-15.02,15.02,6.72,15.02,15.02,15.02Z"/>
          </g>
          <g id="Group_22">
            <path id="Vector_31" class="cls-1" d="M293.05,236.24c8.29,0,15.02-6.72,15.02-15.02s-6.72-15.02-15.02-15.02-15.02,6.72-15.02,15.02,6.72,15.02,15.02,15.02Z"/>
          </g>
          <g id="Group_23">
            <path id="Vector_32" class="cls-6" d="M887.81,236.24c8.3,0,15.02-6.72,15.02-15.02s-6.73-15.02-15.02-15.02-15.02,6.72-15.02,15.02,6.73,15.02,15.02,15.02Z"/>
          </g>
        </g>
      </g>
    </g>
    <g id="Group_24">
      <g id="Group_25">
        <path id="Vector_33" class="cls-2" d="M795.66,841.03l-62.7-62.7c-16.62,24.62-37.79,45.93-62.27,62.72l62.48,62.48,62.5-62.5Z"/>
        <g id="Group_26">
          <path id="Vector_34" class="cls-11" d="M760.31,873.55l-56.76-56.76c-9.69,9.45-20.18,18.08-31.37,25.77l59.56,59.56,28.57-28.57Z"/>
        </g>
        <g id="Group_27">
          <path id="Vector_35" class="cls-3" d="M960.82,1027.97l-40.73,40.74c-12.05,12.05-31.59,12.05-43.64,0l-148.57-148.57c-3.91-3.91-3.91-10.25,0-14.16l70.21-70.21c3.91-3.91,10.25-3.91,14.16,0l148.57,148.57c12.06,12.05,12.06,31.59,0,43.64Z"/>
        </g>
        <g id="Group_28">
          <path id="Vector_36" class="cls-3" d="M795.63,920.13c-3.91-3.91-3.91-10.25,0-14.16l43.42-43.42-26.79-26.79c-3.91-3.91-10.25-3.91-14.16,0l-70.21,70.21c-3.91,3.91-3.91,10.25,0,14.16l148.57,148.57c12.05,12.05,31.59,12.05,43.64,0l12.05-12.06-136.52-136.51Z"/>
        </g>
      </g>
      <path id="Vector_37" class="cls-3" d="M702.58,559.07c-59.63,0-108.14-48.51-108.14-108.14,0-11.18,1.7-21.96,4.87-32.11-19.44-5.17-39.87-7.94-60.94-7.94-130.66,0-236.57,105.92-236.57,236.57s105.92,236.57,236.57,236.57,236.57-105.92,236.57-236.57c0-36-8.05-70.11-22.43-100.65-14.95,7.82-31.93,12.27-49.93,12.27Z"/>
      <path id="Vector_38" class="cls-3" d="M461.18,802.05c-56.67-28.35-95.61-86.91-95.61-154.6s38.94-126.24,95.61-154.6c32.78-37.92,77.4-65.33,128.12-76.46-16.41-3.6-33.44-5.51-50.93-5.51-130.66,0-236.57,105.92-236.57,236.57s105.92,236.57,236.57,236.57c17.49,0,34.52-1.91,50.93-5.51-50.72-11.13-95.34-38.53-128.12-76.46Z"/>
      <path id="Vector_39" class="cls-6" d="M600.36,486.15c-19.25-7.4-40.14-11.5-61.99-11.5-95.44,0-172.8,77.37-172.8,172.8s77.37,172.81,172.8,172.81,172.8-77.37,172.8-172.81c0-32.82-9.15-63.5-25.03-89.63-40.02-6.13-72.86-34.29-85.77-71.67Z"/>
      <g id="Group_29">
        <path id="Vector_40" class="cls-10" d="M433.07,647.45c0-83.88,59.78-153.78,139.05-169.48-10.92-2.16-22.2-3.32-33.75-3.32-95.44,0-172.8,77.37-172.8,172.8s77.37,172.81,172.8,172.81c11.55,0,22.84-1.16,33.75-3.32-79.27-15.7-139.05-85.6-139.05-169.49Z"/>
      </g>
      <path id="Vector_41" class="cls-2" d="M702.58,559.07c-13.68,0-26.76-2.58-38.82-7.23,20.3,26.55,32.38,59.69,32.38,95.62,0,87-70.78,157.79-157.78,157.79s-157.78-70.78-157.78-157.79,70.78-157.78,157.78-157.78c25.85,0,50.23,6.29,71.79,17.35-7.03-11.55-11.94-24.52-14.24-38.36-18.15-5.86-37.48-9.03-57.55-9.03-103.57,0-187.82,84.26-187.82,187.82s84.26,187.82,187.82,187.82,187.82-84.25,187.82-187.82c0-31.95-8.03-62.05-22.16-88.42-.49,0-.97.04-1.45.04Z"/>
      <g id="Group_30">
        <path id="Vector_42" class="cls-9" d="M589.51,647.45l43.11-43.11c7.82-7.82,7.82-20.5,0-28.32l-22.82-22.82c-7.82-7.82-20.5-7.82-28.32,0l-43.12,43.12-43.11-43.11c-7.82-7.82-20.5-7.82-28.32,0l-22.82,22.82c-7.82,7.82-7.82,20.5,0,28.32l43.11,43.11-43.11,43.11c-7.82,7.82-7.82,20.5,0,28.32l22.82,22.82c7.82,7.82,20.5,7.82,28.32,0l43.11-43.11,43.11,43.11c7.82,7.82,20.5,7.82,28.32,0l22.82-22.82c7.82-7.82,7.82-20.5,0-28.32l-43.11-43.11Z"/>
      </g>
      <g id="Group_31">
        <g id="Group_32">
          <path id="Vector_43" class="cls-4" d="M478.15,718.89c-7.82-7.82-7.82-20.5,0-28.32l36.03-36.03c3.91-3.91,3.91-10.25,0-14.16l-36.03-36.03c-7.82-7.82-7.82-20.5,0-28.32l19.96-19.96-2.86-2.86c-7.82-7.82-20.5-7.82-28.32,0l-22.82,22.82c-7.82,7.82-7.82,20.5,0,28.32l43.11,43.12-43.11,43.11c-7.82,7.82-7.82,20.5,0,28.32l22.82,22.82c7.82,7.82,20.5,7.82,28.32,0l2.86-2.85-19.96-19.96Z"/>
        </g>
      </g>
    </g>
    <g id="Group_33">
      <path id="Vector_44" class="cls-9" d="M702.58,561.07c60.83,0,110.14-49.31,110.14-110.14s-49.31-110.14-110.14-110.14-110.14,49.31-110.14,110.14,49.31,110.14,110.14,110.14Z"/>
    </g>
    <g id="Group_34">
      <path id="Vector_45" class="cls-4" d="M656.52,450.93c0-49.68,32.9-91.67,78.1-105.39-10.14-3.08-20.89-4.75-32.04-4.75-60.83,0-110.14,49.31-110.14,110.14s49.31,110.14,110.14,110.14c11.15,0,21.9-1.67,32.04-4.75-45.2-13.72-78.1-55.71-78.1-105.39Z"/>
    </g>
    <g id="Group_35">
      <g id="Group_36">
        <path id="Vector_46" class="cls-6" d="M651.51,465.95c8.3,0,15.02-6.72,15.02-15.02s-6.72-15.02-15.02-15.02-15.02,6.72-15.02,15.02,6.73,15.02,15.02,15.02Z"/>
      </g>
      <g id="Group_37">
        <path id="Vector_47" class="cls-6" d="M702.58,465.95c8.29,0,15.02-6.72,15.02-15.02s-6.73-15.02-15.02-15.02-15.02,6.72-15.02,15.02,6.72,15.02,15.02,15.02Z"/>
      </g>
      <g id="Group_38">
        <path id="Vector_48" class="cls-6" d="M753.64,465.95c8.29,0,15.02-6.72,15.02-15.02s-6.73-15.02-15.02-15.02-15.02,6.72-15.02,15.02,6.73,15.02,15.02,15.02Z"/>
      </g>
    </g>
  </g>
</svg>