<?xml version="1.0" encoding="UTF-8"?>
<svg width="512" height="512" id="Layer_1" xmlns="http://www.w3.org/2000/svg" viewBox="0 0 1080 1080">
  <defs>
    <style>
      .cls-1 {
        fill: #042b62;
      }
    </style>
  </defs>
  <path class="cls-1" d="M818.18,560.63l-386.57,386.57c-11.57,11.66-30.39,11.74-42.05.17-.06-.06-.12-.11-.17-.17-11.66-11.57-11.74-30.39-.17-42.05.06-.06.11-.12.17-.17l365.76-365.46L389.38,174.06c-11.66-11.66-11.66-30.57,0-42.23,11.66-11.66,30.57-11.66,42.23,0l386.57,386.57c11.66,11.57,11.74,30.39.17,42.05-.06.06-.11.12-.17.17Z"/>
</svg>