<svg width="29" height="29" viewBox="0 0 29 29" fill="none" xmlns="http://www.w3.org/2000/svg">
<g clip-path="url(#clip0_11_1197)">
<path d="M0.5 3H18.3C18.6 3 18.8 3.2 18.8 3.5V27.9C18.8 28.2 18.6 28.4 18.3 28.4H0.5C0.2 28.4 0 28.2 0 27.9V3.6C0 3.3 0.2 3 0.5 3Z" fill="#042b62"/>
<path d="M2 3H19.8C20.1 3 20.3 3.2 20.3 3.5V27.9C20.3 28.2 20.1 28.4 19.8 28.4H2C1.7 28.4 1.5 28.2 1.5 27.9V3.6C1.5 3.3 1.7 3 2 3Z" fill="#042b62"/>
<path d="M3.59998 4.60001H18.3V27H3.59998V4.60001Z" fill="white"/>
<path d="M14.7 2H13.2C13.2 0.9 12.3 0 11.2 0C10.1 0 9.19998 0.9 9.19998 2H7.59998C7.29998 2 7.09998 2.2 7.09998 2.5V4.5C7.09998 4.8 7.29998 5 7.59998 5H14.7C15 5 15.2 4.8 15.2 4.5V2.5C15.2 2.2 15 2 14.7 2Z" fill="#E2E2E2" stroke="#939393" stroke-width="0.25"/>
<path d="M12.8 3.79999H9.79998C9.69998 3.79999 9.59998 3.69999 9.59998 3.59999C9.59998 3.49999 9.69998 3.29999 9.79998 3.29999H12.8C12.9 3.29999 13.1 3.39999 13 3.59999C13 3.69999 12.9 3.79999 12.8 3.79999Z" fill="#EAEAEA" stroke="#939393" stroke-width="0.25"/>
<path d="M14.2 7.89999H8.10002C8.00002 7.89999 7.90002 7.79999 7.90002 7.59999C7.90002 7.49999 8.00002 7.39999 8.10002 7.39999H14.2C14.3 7.39999 14.4 7.49999 14.4 7.59999C14.5 7.79999 14.4 7.89999 14.2 7.89999Z" fill="#E2E2E2" stroke="#939393" stroke-width="0.25"/>
<path d="M16.3 10.4H5.6C5.5 10.4 5.3 10.3 5.4 10.1C5.4 9.99999 5.5 9.89999 5.6 9.89999H16.3C16.4 9.89999 16.6 9.99999 16.6 10.1C16.5 10.3 16.4 10.4 16.3 10.4Z" fill="#E2E2E2" stroke="#939393" stroke-width="0.25"/>
<path d="M16.3 12.4H5.60002C5.50002 12.4 5.40002 12.3 5.40002 12.2C5.40002 12.1 5.50002 11.9 5.60002 11.9H16.3C16.4 11.9 16.6 12 16.6 12.2C16.5 12.3 16.4 12.5 16.3 12.4Z" fill="#E2E2E2" stroke="#939393" stroke-width="0.25"/>
<path d="M16.3 14.5H5.60002C5.50002 14.5 5.40002 14.4 5.40002 14.3C5.40002 14.2 5.50002 14.1 5.60002 14.1H16.3C16.4 14.1 16.6 14.2 16.6 14.4C16.5 14.4 16.4 14.5 16.3 14.5Z" fill="#E2E2E2" stroke="#939393" stroke-width="0.25"/>
<path d="M16.3 16.5H5.6C5.5 16.5 5.3 16.4 5.4 16.2C5.4 16.1 5.5 15.9 5.6 15.9H16.3C16.4 15.9 16.6 16 16.6 16.1C16.5 16.4 16.4 16.5 16.3 16.5Z" fill="#E2E2E2" stroke="#939393" stroke-width="0.25"/>
<path d="M16.3 18.5H5.6C5.5 18.5 5.3 18.4 5.4 18.2C5.4 18.1 5.5 17.9 5.6 17.9H16.3C16.4 17.9 16.6 18 16.6 18.1C16.5 18.4 16.4 18.5 16.3 18.5Z" fill="#E2E2E2" stroke="#939393" stroke-width="0.25"/>
<path d="M16.3 20.6H5.60002C5.50002 20.6 5.40002 20.5 5.40002 20.4C5.40002 20.3 5.50002 20.1 5.60002 20.1H16.3C16.4 20.1 16.6 20.2 16.6 20.4C16.5 20.5 16.4 20.6 16.3 20.6Z" fill="#E2E2E2" stroke="#939393" stroke-width="0.25"/>
<path d="M19.8 28.4C24.5497 28.4 28.4 24.5497 28.4 19.8C28.4 15.0504 24.5497 11.2 19.8 11.2C15.0504 11.2 11.2 15.0504 11.2 19.8C11.2 24.5497 15.0504 28.4 19.8 28.4Z" fill="#042b62"/>
<path d="M19.8 26.9C23.7212 26.9 26.9 23.7212 26.9 19.8C26.9 15.8788 23.7212 12.7 19.8 12.7C15.8788 12.7 12.7 15.8788 12.7 19.8C12.7 23.7212 15.8788 26.9 19.8 26.9Z" fill="white"/>
<path d="M19.8 24.9C22.6167 24.9 24.9 22.6167 24.9 19.8C24.9 16.9834 22.6167 14.7 19.8 14.7C16.9834 14.7 14.7 16.9834 14.7 19.8C14.7 22.6167 16.9834 24.9 19.8 24.9Z" fill="#042b62"/>
<path d="M19.8 22.8C21.4568 22.8 22.8 21.4568 22.8 19.8C22.8 18.1431 21.4568 16.8 19.8 16.8C18.1431 16.8 16.8 18.1431 16.8 19.8C16.8 21.4568 18.1431 22.8 19.8 22.8Z" fill="white"/>
<path d="M19.8 20.8C20.3523 20.8 20.8 20.3523 20.8 19.8C20.8 19.2477 20.3523 18.8 19.8 18.8C19.2477 18.8 18.8 19.2477 18.8 19.8C18.8 20.3523 19.2477 20.8 19.8 20.8Z" fill="#042b62"/>
</g>
<defs>
<clipPath id="clip0_11_1197">
<rect width="28.5" height="28.5" fill="white"/>
</clipPath>
</defs>
</svg>
