<?xml version="1.0" encoding="UTF-8"?>
<svg id="Layer_1" xmlns="http://www.w3.org/2000/svg" viewBox="0 0 1080 1080">
  <defs>
    <style>
      .cls-1 {
        fill: #203161;
      }

      .cls-2 {
        fill: #ddd;
      }

      .cls-3 {
        fill: #f5bb8d;
      }

      .cls-4 {
        fill: #dda779;
      }

      .cls-5 {
        fill: #2d2c2c;
      }
    </style>
  </defs>
  <path class="cls-1" d="M224.62,904.75c-79.22-66.16-134.76-148.33-160.8-248.25-42.03-161.25-11.65-308.94,92.54-439.28C232.56,121.89,332.72,63.41,453.02,43.59c148.81-24.51,283.09,11.5,399.18,108.49,92.47,77.27,149.83,176.51,167.69,295.58,22.69,151.19-15.23,286.65-116.23,403.03-20.3,23.39-42.7,44.55-67.61,63.01-4.67-4.1-4.08-10.03-5.09-15.31-3.65-19.07-7.98-37.92-13.28-56.63-6.11-21.56-19.33-36.1-38.57-46.55-8.66-4.7-18.7-7.73-24.71-16.56-5.41-27.93-8.97-56.17-15.35-83.94-5.12-22.31-9.6-44.8-14.33-67.2-6.95-32.85-4.75-65.58-1.69-98.42.64-6.91.9-13.84,1.65-20.73,1.87-8.13,6.51-15.13,9.5-22.82,9.6-24.65,12.61-49.24.76-74.06-.6-1.25-.79-2.63-.92-4.01,4.92-18.39,12.28-36.14,14.41-55.27,7.33-65.81-4.6-127.05-43.53-181.73-6.87-9.65-15.48-17.75-25.4-24.41-16.26-10.91-33.35-13.39-51.22-4.7-6.02,2.93-10.04,2.16-14.54-2.74-28.74-31.29-65.85-39.48-105.66-33.73-78.33,11.32-134.98,53.77-168.32,125.63-18.63,40.15-22.09,82.69-14.6,126.28,2.82,16.43,8.46,32.19,10.7,48.73-1.18,7.96-5.81,14.69-7.64,22.52-4.1,17.6-.81,34.32,4.48,50.97,1.46,4.6,3.52,9.05,3.56,14.02-3.23,54.95-16.43,108.15-28.3,161.59-8.94,40.26-17.77,80.54-20.87,121.82-.42,5.61.95,11.04.55,16.57-1.49,6.74-7.56,8.9-12.57,11.51-17.39,9.07-27.69,23.19-33.56,41.73-5.15,16.25-9.45,32.64-13.1,49.25-.72,3.26-.21,7.11-3.78,9.24Z"/>
  <path class="cls-2" d="M224.62,904.75c3.49-26.12,10.11-51.35,20.94-75.45,5.22-11.62,14.13-19.33,25-25.32,5.11-2.82,9.95-6.11,14.91-9.19,7.47-7.66,17.53-10.97,26.81-15.29,46.03-21.4,92.7-41.32,139.83-60.17,3.42-1.37,6.84-3.6,10.87-1.96,1.94,3.04,1.02,6.22-.26,8.97-4.69,10.17-.35,17.97,5.92,25.6,11.9,14.47,27.71,21.87,45.71,24.46,18.02,2.59,36.09,1.68,53.41-4.49,13.06-4.66,23.55-13.02,31.47-24.57,4.04-5.89,5.58-11.57,1.99-18.4-2.19-4.16-4.5-8.82-1.56-13.8,4.2-2.49,8.13-.36,11.9,1.03,45.06,16.6,89.5,34.72,133.04,55.01,4.35,2.03,8.96,3.84,11.58,8.33,10.2,5.79,20.36,11.66,30.62,17.34,16.26,8.99,26.43,22.54,32.11,40.19,8.07,25.06,13.45,50.66,17.12,76.67-39.6,32.12-83.6,56.82-131.74,73.04-174.41,58.76-334.56,31.7-479.69-81.99Z"/>
  <path class="cls-3" d="M735.26,407.21c15.66,25.87,11.43,52.27,1.76,78.64-2.71,7.4-6.7,14.33-10.11,21.47-2.76,9.93-8.07,17.68-18.53,20.53-4.72,1.29-6.71,4.3-7.59,8.77-8.07,40.81-30.12,73.87-56.81,104.75-13.04,15.08-27.96,27.8-42.87,40.73-15.31,12.61-31.52,23.78-49.45,32.44-15.42,7.44-30.54,7.67-46.03.3-14.77-7.03-28.84-15.15-41.95-24.94-23.59-20.51-46.86-41.41-63.75-68.12-16.64-26.31-30.23-53.88-31.62-85.87-.14-3.31-.75-6.3-4.53-7.28-18.87-4.9-24.75-20.46-30.04-36.52-2.96-11.32-7.31-22.18-9.12-33.91-2.92-18.95-.16-36.42,10.15-52.63,5.46-8.07,12.44-10.91,21.14-8.91,8.47,1.95,10.56,8.61,11.11,15.71,1.32,17.29,2.63,34.57,4.69,51.79.24,1.98-.28,4.25,2.92,6.57,9.73-12.93,16.31-26.97,18.22-43.12,4.23-35.82,7.63-71.72,10.84-107.65.54-6.05.53-12.48,5.59-17.18,4.29,2.25,4.24,6.42,5.2,9.98,2.79,10.4,5.09,20.95,6.6,31.58,1.33,9.37,6.45,13.08,15.23,13.71,9.68.69,19.39.89,29.07,1.48,26.98,1.65,53.9,4.27,80.92,5.2,8.39.29,13.59-2.54,16.86-10.55,3.66-8.97,8.34-17.55,12.99-26.09,1.43-2.62,2.68-6.4,6.33-6.03,3.63.37,4.23,4.23,5.04,7.14,2.51,9.05,3.68,18.38,5.22,27.61,1.46,8.72,5.7,12.93,14.75,12.04,3.43-.34,6.93,0,10.39.42q16.42,1.94,21.79-14.08c5.75-17.11,11.33-34.28,17.17-51.36,1.43-4.18,2.22-8.84,6.96-11.72,5.58,6.18,5.33,14.01,5.72,21.37,1.82,34.32,5.3,68.46,10.76,102.39,1.6,9.97,4.02,19.78,9.02,28.66,1.58,2.81,2.89,7.48,6.93,6.48,3.33-.82,2.83-5.27,2.8-8.25-.11-9.76,1.73-19.35,2.19-29.04.4-8.4,2.47-15.05,11.82-17.07,9.75-2.11,17.22,1.37,22.22,10.55Z"/>
  <path class="cls-5" d="M735.26,407.21c-3.36-2.4-6.44-5.45-10.14-7.07-11.84-5.18-20.11.3-20.98,12.97-1.04,15.16-2.53,30.29-3.91,46.36-9.56-4.33-13.31-12.1-16.68-19.9-7.25-16.81-8.37-34.96-10.36-52.79-3.41-30.61-5.93-61.33-9.13-95.22-3.98,11.93-7.03,21.08-10.1,30.23-4.64,13.78-10.17,27.34-13.65,41.4-2.46,9.92-7.53,11.62-16.26,10.13-6.12-1.05-12.52-2.04-18.61-1.37-10.89,1.2-14.34-4.13-15.61-13.74-1.54-11.63-4.1-23.12-6.73-37.47-7.47,15.09-14,27.73-19.97,40.64-2.16,4.68-4.48,7.07-10.03,6.69-41.14-2.83-82.28-5.61-123.45-7.9-7.13-.4-9.33-3.58-10.47-9.73-2.83-15.27-6.06-30.46-10.74-45.73-2.07,20.75-4.02,41.51-6.24,62.25-2.54,23.74-3.43,47.71-8.28,71.14-3.2,15.43-10.65,28.85-23.83,41.44-1.9-20.19-3.63-38.28-5.3-56.38-.26-2.76-.16-5.55-.43-8.31-1.64-17.02-10.56-21.29-25.26-12.12-1.46.91-2.89,1.89-4.32,2.85-20.15-59.35-23.06-118.39,2.54-177.15,33.82-77.64,119.21-131.89,198.77-127.49,31.29,1.73,58.79,12.25,80.02,36.2,3.17,3.58,5.06,4.98,10.02,2.28,18.94-10.34,37.44-7.49,54.87,4,15.33,10.11,27.13,23.76,36.06,39.65,39.41,70.1,48.42,143.17,20.66,219.64-.58,1.59-1.62,3.01-2.45,4.51Z"/>
  <path class="cls-5" d="M333.75,492.11c4.89,7.94,9.54,16.04,14.74,23.77,3.1,4.61,7.2,9.68,12.93,9.62,8.22-.09,9.04,3.63,9.5,10.55,2.53,37.7,19.37,69.57,41.64,99.08,15.13,20.06,34.07,36.37,52.43,53.25,3.97,10.39,5.41,20.53-3,29.67-57.51,23.54-114.97,47.21-170.77,74.68-1.82.9-3.84,1.39-5.76,2.07-3.33-24.11.7-47.83,5.31-71.22,11.17-56.64,23.86-112.99,35.01-169.63,4.01-20.34,5.38-41.2,7.96-61.82Z"/>
  <path class="cls-5" d="M599.88,680.11c37.2-31.24,69.35-66.51,88.8-111.82,4.64-10.8,8.21-21.96,9.84-33.69.67-4.81,1.55-8.4,8.39-9.08,10.35-1.02,14.22-11.08,20.01-18.21.41,19.41-2.39,38.61-3.77,57.9-2.8,38.92,7.76,76.01,15.51,113.46,6.92,33.43,14.96,66.65,17.54,100.83-49.42-23.34-99.97-43.96-151.16-63.04-1.61-.6-3.32-.92-4.98-1.36-7.11-7.97-7.18-23.1-.16-35Z"/>
  <path class="cls-4" d="M599.88,680.11c-2.22,11.68-3.55,23.35.16,35-.54,4.01.71,8.05,2.8,10.89,6.74,9.2,2.94,16.76-2.42,24.52-8.86,12.82-21.06,21-35.8,25.27-21.83,6.33-43.83,6.28-65.6-.21-6.22-1.85-12.22-4.93-17.8-8.32-8.73-5.3-14.8-13.23-20.63-21.62-6.98-10.05.58-18.46,1.39-27.61,3.18-9.67,2.56-19.72,3-29.67,10.3,6.23,20.84,12.11,30.85,18.78,25.27,16.85,49.01,11.49,72.12-4.37,10.76-7.39,21.29-15.1,31.93-22.67Z"/>
</svg>