<svg width="46" height="46" viewBox="0 0 46 46" fill="none" xmlns="http://www.w3.org/2000/svg">
<path d="M20.5507 12.4726C18.347 8.13943 13.0945 6.29506 8.65383 8.36631C4.21321 10.4376 2.24883 15.6451 4.15258 20.1188L20.5507 12.4726Z" fill="#F1B31C"/>
<path d="M8.90137 8.33377C10.7784 7.45479 12.9012 7.25058 14.9114 7.75565C14.3589 7.8944 13.8114 8.08377 13.2764 8.33377C9.41637 10.1338 7.432 14.3038 8.22762 18.3025L4.40012 20.0863C2.497 15.6125 4.46075 10.4038 8.90137 8.33315" fill="#FCEA2B"/>
<path d="M42.3113 20.0869C44.2144 15.6131 42.2507 10.4044 37.8101 8.33376C33.3694 6.26314 28.1176 8.10689 25.9132 12.44L42.3113 20.0869Z" fill="#F1B31C"/>
<path d="M37.8101 8.33378C35.8538 7.42128 33.7413 7.27128 31.8007 7.75566C32.3526 7.89441 32.9001 8.08378 33.4351 8.33378C37.2951 10.1338 39.2801 14.3038 38.4845 18.3025L42.3113 20.0869C44.2145 15.6132 42.2507 10.4044 37.8101 8.33378Z" fill="#FCEA2B"/>
<path d="M12.7082 21.6294C13.3986 21.6294 13.9582 21.0779 13.9582 20.3976C13.9582 19.7172 13.3986 19.1657 12.7082 19.1657C12.0179 19.1657 11.4582 19.7172 11.4582 20.3976C11.4582 21.0779 12.0179 21.6294 12.7082 21.6294Z" fill="#EA5A47"/>
<path d="M28.3332 22.8794C29.0236 22.8794 29.5832 22.3279 29.5832 21.6476C29.5832 20.9672 29.0236 20.4157 28.3332 20.4157C27.6429 20.4157 27.0832 20.9672 27.0832 21.6476C27.0832 22.3279 27.6429 22.8794 28.3332 22.8794Z" fill="#8967AA"/>
<path d="M25.8332 36.6294C26.5236 36.6294 27.0832 36.0779 27.0832 35.3976C27.0832 34.7172 26.5236 34.1657 25.8332 34.1657C25.1429 34.1657 24.5832 34.7172 24.5832 35.3976C24.5832 36.0779 25.1429 36.6294 25.8332 36.6294Z" fill="#FCEA2B"/>
<path d="M23.3745 19.7C23.102 19.8606 22.8495 20.0675 22.6282 20.32C21.482 21.6288 21.6082 23.6706 22.9107 24.8806M20.5507 12.4725C18.347 8.13939 13.0945 6.29501 8.65383 8.36626C4.21321 10.4375 2.24883 15.645 4.15258 20.1188L20.5507 12.4725ZM42.3113 20.0869C44.2145 15.6131 42.2507 10.4044 37.8101 8.33376C33.3695 6.26314 28.1176 8.10689 25.9132 12.44L42.3113 20.0869Z" stroke="white" stroke-width="1.25" stroke-miterlimit="10" stroke-linecap="round" stroke-linejoin="round"/>
<path d="M22.8157 24.8068C23.0779 24.9996 23.3076 25.233 23.4963 25.4981C24.5057 26.915 24.1757 28.9343 22.7588 30.0075M13.7463 27.5825C13.428 27.6503 13.1225 27.7684 12.8413 27.9325C11.3382 28.8075 10.8076 30.7837 11.6576 32.345" stroke="white" stroke-width="1.25" stroke-miterlimit="10" stroke-linecap="round" stroke-linejoin="round"/>
<path d="M11.5907 32.245C11.7732 32.5037 11.9182 32.7962 12.0157 33.1169C12.5219 34.7819 11.5663 36.5906 9.88129 37.1575M34.0819 24.8737C34.3884 24.9828 34.6755 25.14 34.9325 25.3394C36.3082 26.405 36.5738 28.4337 35.5263 29.8706" stroke="white" stroke-width="1.25" stroke-miterlimit="10" stroke-linecap="round" stroke-linejoin="round"/>
<path d="M35.6056 29.7794C35.3853 30.0188 35.2045 30.2918 35.07 30.5881C34.3494 32.1719 35.0588 34.0906 36.655 34.8737" stroke="white" stroke-width="1.25" stroke-miterlimit="10" stroke-linecap="round" stroke-linejoin="round"/>
</svg>
