<svg width="14" height="14" viewBox="0 0 14 14" fill="none" xmlns="http://www.w3.org/2000/svg">
<g opacity="0.3">
<path d="M12.8104 6.99998C12.8104 7.80092 12.6558 8.55635 12.3466 9.26627C12.0464 9.97619 11.6326 10.5951 11.1051 11.123C10.5776 11.6509 9.95913 12.065 9.24972 12.3653C8.5403 12.6748 7.78541 12.8295 6.98505 12.8295C6.18468 12.8295 5.4298 12.6748 4.72038 12.3653C4.01097 12.065 3.3925 11.6509 2.86499 11.123C2.33748 10.5951 1.92365 9.97619 1.62352 9.26627C1.31428 8.55635 1.15967 7.80092 1.15967 6.99998C1.15967 6.19904 1.31428 5.44361 1.62352 4.73369C1.92365 4.02377 2.33748 3.40486 2.86499 2.87697C3.3925 2.34908 4.01097 1.93496 4.72038 1.63461C5.4298 1.32515 6.18468 1.17043 6.98505 1.17043C7.78541 1.17043 8.5403 1.32515 9.24972 1.63461C9.95913 1.93496 10.5776 2.34908 11.1051 2.87697C11.6326 3.40486 12.0464 4.02377 12.3466 4.73369C12.6558 5.44361 12.8104 6.19904 12.8104 6.99998Z" fill="#99A1B7"/>
</g>
<path d="M6.98549 7.80914C7.14932 7.80914 7.28812 7.75226 7.40188 7.63849C7.51565 7.52472 7.57254 7.38592 7.57254 7.22209V4.50528C7.57254 4.35055 7.51565 4.2163 7.40188 4.10253C7.28812 3.98876 7.14932 3.93188 6.98549 3.93188C6.82166 3.93188 6.68286 3.98876 6.56909 4.10253C6.45532 4.2163 6.39844 4.35055 6.39844 4.50528V7.22209C6.39844 7.38592 6.45532 7.52472 6.56909 7.63849C6.68286 7.75226 6.82166 7.80914 6.98549 7.80914Z" fill="#99A1B7"/>
<path d="M7.70783 9.32452C7.70783 9.52476 7.63735 9.69541 7.49637 9.83648C7.3554 9.97756 7.18487 10.0481 6.98478 10.0481C6.78468 10.0481 6.61415 9.97756 6.47318 9.83648C6.33221 9.69541 6.26172 9.52476 6.26172 9.32452C6.26172 9.12429 6.33221 8.95363 6.47318 8.81256C6.61415 8.67148 6.78468 8.60095 6.98478 8.60095C7.18487 8.60095 7.3554 8.67148 7.49637 8.81256C7.63735 8.95363 7.70783 9.12429 7.70783 9.32452Z" fill="#99A1B7"/>
</svg>
