<?xml version="1.0" encoding="utf-8"?>
<!-- Generator: Adobe Illustrator 22.0.1, SVG Export Plug-In . SVG Version: 6.00 Build 0)  -->
<svg version="1.1" id="Layer_1" xmlns="http://www.w3.org/2000/svg" xmlns:xlink="http://www.w3.org/1999/xlink" x="0px" y="0px"
	 viewBox="0 0 25 25" style="enable-background:new 0 0 25 25;" xml:space="preserve">
<style type="text/css">
	.st0{fill:#889699;}
</style>
<title>Group Copy 3</title>
<desc>Created with Sketch.</desc>
<path id="Shape" class="st0" d="M12.5,2.7c-0.6,0-1,0.4-1,1c0,0.1,0,0.3,0.1,0.4c0,0,0,0.1,0,0.1s-0.1,0.1-0.1,0.1H8.9
	c-0.1,0-0.1,0-0.2,0c0,0,0,0,0,0v0.4c0,0,0,0,0,0v0.7c0,0,0,0,0,0c0,0,0.1,0,0.1,0h7.2c0.1,0,0.1,0,0.1,0c0,0,0,0,0,0V4.3
	c0,0,0,0,0,0c0,0-0.1,0-0.1,0h-2.5c0,0-0.1,0-0.1-0.1c0,0,0-0.1,0-0.1c0-0.1,0.1-0.2,0.1-0.4C13.5,3.1,13.1,2.7,12.5,2.7L12.5,2.7z
	 M7.3,4.8c-1.1,0-1.9,0.8-1.9,1.9v13.8c0,1,0.9,1.9,1.9,1.9h8.2v-2.1c0-1.2,1-2.1,2.2-2.1h1.9V6.6c0-1-0.9-1.9-1.9-1.9h-1.1v0.6
	c0,0.1-0.1,0.2-0.2,0.2c-0.1,0-0.2,0.1-0.3,0.1H8.9c-0.1,0-0.2,0-0.3-0.1c-0.1,0-0.2-0.1-0.2-0.2V4.8H7.3L7.3,4.8z M7,7.8h1v1H7V7.8
	z M9.1,8.2h8.4v0.6H9.1V8.2z M7,10.6h1v1H7V10.6z M9.1,11h8.4v0.6H9.1V11z M7,13.4h1v1H7V13.4z M9.1,13.8h8.4v0.6H9.1V13.8z M7,16.2
	h1v1H7V16.2z M9.1,16.6h8.4v0.6H9.1V16.6z M17.7,18.4c-1.1,0-1.9,0.8-1.9,1.9v1.9l3.7-3.7L17.7,18.4L17.7,18.4z"/>
</svg>
