<?xml version="1.0" encoding="utf-8"?>
<!-- Generator: Adobe Illustrator 22.0.1, SVG Export Plug-In . SVG Version: 6.00 Build 0)  -->
<svg version="1.1" id="Layer_1" xmlns="http://www.w3.org/2000/svg" xmlns:xlink="http://www.w3.org/1999/xlink" x="0px" y="0px"
	 viewBox="0 0 25 25" style="enable-background:new 0 0 25 25;" xml:space="preserve">
<style type="text/css">
	.st0{fill:#889699;}
</style>
<title>Group 10</title>
<desc>Created with Sketch.</desc>
<g>
	<path id="Path" class="st0" d="M7.1,17.2c-0.3,0.3-0.3,0.8,0,1.1c0.3,0.3,0.8,0.3,1.1,0l0.5-0.5l-1.1-1.1L7.1,17.2z"/>
	<path id="Path_1_" class="st0" d="M5.4,15.6c-0.3,0.3-0.3,0.8,0,1.1c0.3,0.3,0.8,0.3,1.1,0l0.5-0.5L6,15.1L5.4,15.6z"/>
	<path id="Path_2_" class="st0" d="M10.3,20.5c-0.3,0.3-0.3,0.8,0,1.1c0.3,0.3,0.8,0.3,1.1,0l0.5-0.5l-1.1-1.1L10.3,20.5z"/>
	<path id="Path_3_" class="st0" d="M9.2,18.3L9.2,18.3l-0.5,0.5c-0.3,0.3-0.3,0.8,0,1.1c0.3,0.3,0.8,0.3,1.1,0l0.5-0.5l-0.5-0.5
		L9.2,18.3z"/>
	<path class="st0" d="M1.1,9.2l6-5.9l2.7,2.7l-6,5.9L1.1,9.2z"/>
	<path class="st0" d="M15.2,5.9l2.7-2.7l6,5.9l-2.7,2.7L15.2,5.9z"/>
	<path id="Path_4_" class="st0" d="M8.4,11.6c-0.4,0.4-0.4,0.9-0.2,1.3c0.1,0.1,0.1,0.2,0.2,0.3c0.4,0.4,1.2,0.4,1.6,0l1.9-1.9h3.3
		l3.3,3.2l1.1-1.1c0.6-0.6,0.6-1.6,0-2.1l-3.8-3.8C15.2,7,14.4,7,13.8,7.4c-0.4-0.2-1-0.2-1.3,0.2h0L8.4,11.6z"/>
	<path class="st0" d="M14.9,12.1h-2.6l-1.7,1.7c-0.4,0.4-0.8,0.6-1.4,0.6c-0.5,0-1-0.2-1.4-0.6c-0.1-0.1-0.3-0.3-0.4-0.5
		c-0.3-0.7-0.2-1.6,0.4-2.2l3.8-3.8c-0.2,0-0.4,0-0.6,0.1C10.5,7,9.7,7,9.2,7.6l-3.8,3.8c-0.6,0.6-0.6,1.6,0,2.1l8.1,8.1
		c0.3,0.3,0.8,0.3,1.1,0c0.3-0.3,0.3-0.8,0-1.1l-1.1-1.1l0.5-0.5l1.1,1.1c0.3,0.3,0.8,0.3,1.1,0c0.3-0.3,0.3-0.8,0-1.1l-1.1-1.1
		l0.5-0.5l1.1,1.1c0.3,0.3,0.8,0.3,1.1,0c0.3-0.3,0.3-0.8,0-1.1l-1.1-1.1l0.5-0.5l1.1,1.1c0.3,0.3,0.8,0.3,1.1,0
		c0.3-0.3,0.3-0.8,0-1.1L19,15.1l-0.5,0.5L14.9,12.1z"/>
</g>
</svg>
