<?xml version="1.0" encoding="utf-8"?>
<!-- Generator: Adobe Illustrator 26.5.1, SVG Export Plug-In . SVG Version: 6.00 Build 0)  -->
<svg version="1.1" id="Layer_1" xmlns="http://www.w3.org/2000/svg" xmlns:xlink="http://www.w3.org/1999/xlink" x="0px" y="0px"
	 viewBox="0 0 30.3 30.3" style="enable-background:new 0 0 30.3 30.3;" xml:space="preserve">
<style type="text/css">
	.st0{fill:#042b62;}
	.st1{fill:#FFFFFF;}
	.st2{fill:#042b62;}
	.st3{fill:#E2E2E2;}
	.st4{fill:#EAEAEA;}
</style>
<circle class="st0" cx="15" cy="15.3" r="13.4"/>
<circle class="st1" cx="15" cy="15.3" r="10.6"/>
<path class="st2" d="M3.2,15.2c0-7,5.5-12.8,12.5-13.2c-0.2,0-0.5,0-0.7,0C7.7,2,1.7,7.9,1.7,15.2c0,7.3,5.9,13.3,13.2,13.3
	c0.3,0,0.5,0,0.8,0C8.7,28.2,3.2,22.3,3.2,15.2z"/>
<path class="st3" d="M15,5.9c-0.2,0-0.4-0.2-0.4-0.4V0.7c0-0.2,0.3-0.4,0.5-0.4c0.2,0,0.3,0.2,0.4,0.4v4.8C15.4,5.7,15.2,5.9,15,5.9
	z"/>
<path class="st3" d="M15,30.3c-0.2,0-0.4-0.2-0.4-0.4V25c0-0.2,0.1-0.5,0.4-0.5s0.5,0.1,0.5,0.4c0,0,0,0.1,0,0.1v4.8
	C15.4,30.1,15.2,30.3,15,30.3C15,30.3,15,30.3,15,30.3z"/>
<path class="st3" d="M5.2,15.7H0.4c-0.2,0-0.4-0.2-0.4-0.4c0-0.2,0.2-0.4,0.4-0.4h4.8c0.2,0,0.4,0.2,0.4,0.4
	C5.7,15.5,5.5,15.7,5.2,15.7z"/>
<path class="st3" d="M29.5,15.7h-4.8c-0.2,0-0.4-0.2-0.4-0.4c0-0.2,0.2-0.4,0.4-0.4h4.8c0.2,0,0.4,0.2,0.4,0.4
	C30,15.5,29.8,15.7,29.5,15.7L29.5,15.7z"/>
<path class="st0" d="M15,22.9c-4.2,0-7.7-3.5-7.6-7.7c0-4.2,3.4-7.6,7.6-7.6l0,0c4.2,0,7.7,3.5,7.6,7.7C22.6,19.5,19.2,22.9,15,22.9
	z"/>
<path class="st2" d="M11.4,20.7c-3-3-2.9-7.9,0.1-10.8c1.2-1.2,2.8-1.9,4.5-2.2c-0.3,0-0.6-0.1-0.9-0.1l0,0c-4.2,0-7.6,3.4-7.7,7.6
	c0,4.2,3.4,7.7,7.7,7.7c0,0,0,0,0,0l0,0c0.3,0,0.6,0,0.9,0C14.2,22.7,12.6,21.9,11.4,20.7L11.4,20.7z"/>
<path class="st1" d="M15,20.1c-2.7,0-4.8-2.2-4.8-4.9c0,0,0,0,0,0c0-2.7,2.2-4.8,4.8-4.8l0,0c2.7,0,4.8,2.2,4.8,4.9c0,0,0,0,0,0
	C19.8,18,17.7,20.1,15,20.1z"/>
<path class="st0" d="M15,17.3c-0.5,0-1.1-0.2-1.4-0.6c-0.8-0.8-0.8-2.1,0-2.9c0.4-0.4,0.9-0.6,1.4-0.6l0,0c0.5,0,1.1,0.2,1.5,0.6
	c0.4,0.4,0.6,0.9,0.6,1.5C17,16.4,16.1,17.3,15,17.3L15,17.3z"/>
<path class="st2" d="M14.7,16.7c-0.4-0.4-0.6-0.9-0.6-1.5c0-0.9,0.6-1.7,1.5-2c-0.2-0.1-0.4-0.1-0.6-0.1l0,0c-1.1,0-2.1,0.9-2,2.1
	c0,0.5,0.2,1.1,0.6,1.4c0.4,0.4,0.9,0.6,1.4,0.6l0,0c0.2,0,0.4,0,0.6-0.1C15.2,17.1,15,16.9,14.7,16.7L14.7,16.7z"/>
<path class="st4" d="M23.2,6.5l4.2-4.2l-0.6-2.2C26.8,0,26.7,0,26.6,0c0,0-0.1,0-0.1,0.1l-3.8,3.8c-0.1,0.1-0.1,0.3-0.1,0.4
	L23.2,6.5z"/>
<path class="st3" d="M23.2,6.5l1-1l-0.3-1c0-0.2,0-0.3,0.1-0.4l3-3l-0.3-1c0-0.1-0.1-0.1-0.1-0.1c0,0-0.1,0-0.1,0.1l-3.8,3.8
	c-0.1,0.1-0.1,0.3-0.1,0.4L23.2,6.5z"/>
<path class="st0" d="M25.1,4.7L25.8,4l-0.6-2.3c0-0.1-0.1-0.1-0.1-0.2l-0.7,0.7L25.1,4.7L25.1,4.7L25.1,4.7z"/>
<path class="st4" d="M30.2,3.5L28,2.9l-4.2,4.2l2.3,0.6c0.1,0,0.3,0,0.4-0.1l3.8-3.8C30.4,3.7,30.4,3.6,30.2,3.5z"/>
<path class="st0" d="M26.3,4.5l-0.7,0.7h0l2.5,0.7l0.7-0.7c-0.1-0.1-0.1-0.1-0.2-0.1L26.3,4.5z"/>
<path class="st3" d="M15,15.7c-0.1,0-0.2,0-0.3-0.1c-0.2-0.2-0.2-0.4,0-0.6c0,0,0,0,0,0L28.4,1.3c0.2-0.2,0.4-0.2,0.6,0c0,0,0,0,0,0
	c0.2,0.2,0.2,0.5,0,0.6c0,0,0,0,0,0L15.3,15.6C15.2,15.7,15.1,15.7,15,15.7z"/>
</svg>
