<?xml version="1.0" encoding="UTF-8"?>
<svg width="113px" height="113px" viewBox="0 0 113 113" version="1.1" xmlns="http://www.w3.org/2000/svg" xmlns:xlink="http://www.w3.org/1999/xlink">
    <!-- Generator: Sketch 57.1 (83088) - https://sketch.com -->
    <title>Group 9</title>
    <desc>Created with Sketch.</desc>
    <g id="reports" stroke="none" stroke-width="1" fill="none" fill-rule="evenodd">
        <g id="5.-Report-(your-profile)" transform="translate(-687.000000, -405.000000)" fill-rule="nonzero">
            <g id="Group-9" transform="translate(687.000000, 405.000000)">
                <circle id="Oval" fill="#00A8A2" cx="56.5" cy="56.5" r="56.5"></circle>
                <g id="manager" transform="translate(29.000000, 21.000000)">
                    <path d="M23.1439394,24.6575342 C29.9321727,24.6575342 35.4545455,19.126765 35.4545455,12.3287671 C35.4547947,5.53051956 29.9321727,0 23.1439394,0 C16.3557061,0 10.8333333,5.53051956 10.8333333,12.3287671 C10.8333333,19.1270147 16.3559554,24.6575342 23.1439394,24.6575342 Z" id="Path" fill="#65D48E"></path>
                    <path d="M51.7045455,45.369863 C44.3733091,45.369863 38.4090909,51.3431182 38.4090909,58.6849315 C38.4090909,66.0269832 44.3735471,72 51.7045455,72 C59.0355438,72 65,66.0267448 65,58.6849315 C65,51.3431182 59.0357818,45.369863 51.7045455,45.369863 L51.7045455,45.369863 Z M59.8030928,55.9194429 L51.1148373,64.6205156 C50.6777343,65.058025 50.1051675,65.2768989 49.5323625,65.2768989 C48.9595576,65.2768989 48.3869908,65.058025 47.9498878,64.6205156 L43.60576,60.2699792 C42.7317921,59.394722 42.7317921,57.9756179 43.60576,57.1003606 C44.479966,56.2253418 45.8965035,56.2253418 46.7707095,57.1003606 L49.5323625,59.8663261 L56.6381433,52.7498242 C57.5123493,51.8748054 58.9288868,51.8748054 59.8030928,52.7498242 C60.6770608,53.6250815 60.6770608,55.0441856 59.8030928,55.9194429 L59.8030928,55.9194429 Z" id="Shape" fill="#FFFFFF"></path>
                    <path d="M46.2878788,41.6397201 L46.2878788,39.5580369 C46.2878788,35.0680709 43.3826932,31.0867591 39.0868578,29.689095 L39.0668918,29.6826443 L32.7833485,28.6493285 C32.2485942,28.4859093 31.677035,28.7671146 31.4848313,29.2910594 L24.3552553,48.7195456 C23.9439058,49.840305 22.3478218,49.840305 21.9364724,48.7195456 L14.8068964,29.2910594 C14.6514977,28.8679375 14.2495299,28.6027397 13.8186954,28.6027397 C13.7164595,28.6027397 7.22507647,29.6812108 7.22507647,29.6812108 C2.89387947,31.1147124 0,35.1024749 0,39.6117932 L0,55.7778686 C0,58.2004864 1.97736403,60.1643836 4.41659411,60.1643836 L34.1023128,60.1643836 C34.0104207,59.4514554 33.9577391,58.7268204 33.9577391,57.9895227 C33.9579797,50.2579318 39.1708116,43.716625 46.2878788,41.6397201 L46.2878788,41.6397201 Z" id="Path" fill="#65D48E"></path>
                    <path d="M25.2349515,27.0968904 C24.9616682,26.7865425 24.5622542,26.630137 24.1583524,26.630137 L21.1446779,26.630137 C20.7405399,26.630137 20.3411259,26.7862962 20.0680788,27.0968904 C19.6450448,27.577437 19.5836329,28.2715326 19.8840791,28.8141488 L21.4949624,31.3466863 L20.7407761,37.9807424 L22.2257648,42.1002415 C22.3705554,42.5145314 22.9324749,42.5145314 23.0772655,42.1002415 L24.5622542,37.9807424 L23.8080679,31.3466863 L25.4189512,28.8141488 C25.7193974,28.2715326 25.6579855,27.577437 25.2349515,27.0968904 L25.2349515,27.0968904 Z" id="Path" fill="#85CCC9"></path>
                </g>
            </g>
        </g>
    </g>
</svg>