<?xml version="1.0" encoding="utf-8"?>
<!-- Generator: Adobe Illustrator 26.5.1, SVG Export Plug-In . SVG Version: 6.00 Build 0)  -->
<svg version="1.1" id="Layer_1" xmlns="http://www.w3.org/2000/svg" xmlns:xlink="http://www.w3.org/1999/xlink" x="0px" y="0px"
	 viewBox="0 0 25.4 32" style="enable-background:new 0 0 25.4 32;" xml:space="preserve">
<style type="text/css">
	.st0{fill:#042b62;}
	.st1{fill:#EAEAEA;}
	.st2{fill:#E2E2E2;}
	.st3{fill:#FFFFFF;}
	.st4{fill:#042b62;}
</style>
<path class="st0" d="M25.4,9.2v20.6c0,1.2-1,2.2-2.2,2.2h-21C1,32,0,31,0,29.8V2.2C0,1,1,0,2.2,0c0,0,0,0,0,0h14
	c0.6,0,1.1,0.2,1.6,0.6l7,7C25.2,8.1,25.4,8.6,25.4,9.2z"/>
<path class="st1" d="M16,13.1v2.8l-2.2,1.6h-2.2l-2.2-1.6v-2.8H16z"/>
<path class="st2" d="M12.7,15.3l3.3-2.2l-3.3-2.2l-3.3,2.2L12.7,15.3z"/>
<path class="st3" d="M9.9,20h5.5v1.1H9.9V20z"/>
<path class="st3" d="M4.4,8.3h1.1v6.6H4.4V8.3z"/>
<path class="st3" d="M4.4,17.1h1.1v6.6H4.4V17.1z"/>
<path class="st3" d="M19.9,17.1H21v6.6h-1.1V17.1z"/>
<path class="st3" d="M6.1,6.6h5.5v1.1H6.1V6.6z"/>
<path class="st3" d="M6.1,24.3h5.5v1.1H6.1V24.3z"/>
<path class="st3" d="M13.8,24.3h5.5v1.1h-5.5V24.3z"/>
<path class="st3" d="M21,14.9h-1.1V7.7h-6.1V6.6h6.6c0.3,0,0.6,0.2,0.6,0.6L21,14.9z"/>
<path class="st3" d="M3.9,6.1h2.2v2.2H3.9V6.1z"/>
<path class="st3" d="M11.6,6.1h2.2v2.2h-2.2V6.1z"/>
<path class="st3" d="M19.3,14.9h2.2v2.2h-2.2V14.9z"/>
<path class="st3" d="M3.9,23.7h2.2v2.2H3.9V23.7z"/>
<path class="st3" d="M3.9,14.9h2.2v2.2H3.9V14.9z"/>
<path class="st3" d="M19.3,23.7h2.2v2.2h-2.2V23.7z"/>
<path class="st3" d="M11.6,23.7h2.2v2.2h-2.2V23.7z"/>
<path class="st1" d="M6.1,8.8H3.9c-0.3,0-0.5-0.2-0.5-0.6l0,0V6.1c0-0.3,0.2-0.6,0.5-0.6c0,0,0,0,0,0h2.2c0.3,0,0.6,0.2,0.6,0.5v0
	v2.2C6.6,8.6,6.4,8.8,6.1,8.8L6.1,8.8z M4.4,7.7h1.1V6.6H4.4V7.7z"/>
<path class="st1" d="M21.5,8.8h-2.2c-0.3,0-0.5-0.2-0.5-0.6V6.1c0-0.3,0.2-0.5,0.5-0.6h2.2c0.3,0,0.5,0.2,0.5,0.6v2.2
	C22.1,8.6,21.8,8.8,21.5,8.8z M19.9,7.7H21V6.6h-1.1V7.7z"/>
<path class="st1" d="M6.1,26.5H3.9c-0.3,0-0.5-0.2-0.5-0.5v-2.2c0-0.3,0.2-0.5,0.5-0.5h2.2c0.3,0,0.5,0.2,0.6,0.5v2.2
	C6.6,26.2,6.4,26.5,6.1,26.5z M4.4,25.4h1.1v-1.1H4.4L4.4,25.4z"/>
<path class="st1" d="M21.5,26.5h-2.2c-0.3,0-0.5-0.2-0.5-0.5v-2.2c0-0.3,0.2-0.5,0.5-0.5h2.2c0.3,0,0.5,0.2,0.5,0.5v2.2
	C22.1,26.2,21.8,26.5,21.5,26.5z M19.9,25.4H21v-1.1h-1.1V25.4z"/>
<path class="st4" d="M25.2,8.3h-5.9c-1.2,0-2.2-1-2.2-2.2V0.2c0.2,0.1,0.4,0.3,0.6,0.4l7,7C24.9,7.8,25.1,8,25.2,8.3z"/>
</svg>
