<svg xmlns="http://www.w3.org/2000/svg" viewBox="0 0 24.77 31.65"><defs><style>.cls-1{fill:#b5cd6a;}.cls-2{fill:#bcd874;}.cls-3{fill:#fff;}.cls-4{fill:#f49496;}</style></defs><g id="Layer_2" data-name="Layer 2"><g id="Layer_1-2" data-name="Layer 1"><path class="cls-1" d="M0,0H22.71V31.65H0Z"/><path class="cls-2" d="M3.15,0H23.69a1.08,1.08,0,0,1,1.08,1.08V30.57a1.08,1.08,0,0,1-1.08,1.08H3.15a1.08,1.08,0,0,1-1.09-1.08V1.08A1.09,1.09,0,0,1,3.15,0Z"/><path class="cls-3" d="M20.3,23.3H6.54A.35.35,0,0,1,6.19,23a.35.35,0,0,1,.35-.34H20.3a.34.34,0,0,1,.34.34A.35.35,0,0,1,20.3,23.3Z"/><path class="cls-3" d="M20.3,26.05H6.54a.35.35,0,0,1-.35-.34.35.35,0,0,1,.35-.35H20.3a.35.35,0,0,1,.34.35A.34.34,0,0,1,20.3,26.05Z"/><circle class="cls-4" cx="13.42" cy="11.63" r="6.07"/><path class="cls-3" d="M14,9.81H9.78a.6.6,0,0,0-.61.6v1.83a.6.6,0,0,0,.61.6H14l3,1.22V8.59Z"/><path class="cls-3" d="M11.6,15.88H11a.61.61,0,0,1-.61-.61V12.84H12.2v2.43A.6.6,0,0,1,11.6,15.88Z"/></g></g></svg>