<svg width="32" height="32" viewBox="0 0 32 32" fill="none" xmlns="http://www.w3.org/2000/svg">
<g clip-path="url(#clip0_15_84)">
<path d="M24.1 31.5C26.6958 31.5 28.8 29.3957 28.8 26.8C28.8 24.2043 26.6958 22.1 24.1 22.1C21.5043 22.1 19.4 24.2043 19.4 26.8C19.4 29.3957 21.5043 31.5 24.1 31.5Z" fill="#042b62"/>
<path d="M27.2 23.1C25.2 21.4 22.2 21.7 20.5 23.7C19.3 25.1 19 27.1 19.9 28.8H20.2C23.6 28.9 26.5 26.5 27.2 23.1Z" fill="#042b62"/>
<path d="M25.6 25.4H25C25 25.2 24.9 25 24.8 24.9H25.6C25.7 24.9 25.7 24.9 25.7 24.8V24.4C25.7 24.3 25.7 24.3 25.6 24.3H22.7C22.6 24.3 22.6 24.4 22.6 24.4V24.9C22.6 24.9 22.6 24.9 22.6 25C22.6 25 22.6 25 22.7 25H23.2C23.7 25 24 25.1 24.1 25.4H22.7C22.7 25.4 22.7 25.4 22.6 25.4V25.5V25.9C22.6 26 22.7 26 22.7 26H24.2C24.1 26.2 24 26.3 23.8 26.4C23.6 26.5 23.3 26.6 23.1 26.5H22.7C22.7 26.5 22.7 26.5 22.6 26.5V26.6V27C22.6 27 22.6 27 22.6 27.1C23 27.6 23.6 28.2 24.3 29.1H24.4H25.1C25.1 29.1 25.2 29.1 25.2 29V28.9C24.5 28.1 24 27.5 23.6 27C23.9 27 24.3 26.8 24.6 26.6C24.8 26.4 24.9 26.2 25 25.9H25.6C25.7 25.9 25.7 25.9 25.7 25.8V25.4C25.7 25.5 25.7 25.5 25.6 25.4Z" fill="white"/>
<path d="M2.09998 17.3H8.39998V29.4H2.09998V17.3Z" fill="#042b62"/>
<path d="M2.09998 25.2C5.39998 25 8.09998 21.7 8.39998 17.3H2.09998V25.2Z" fill="#042b62"/>
<path d="M8.4 8.39999H2.1C0.9 8.39999 0 9.29999 0 10.5V19.4H2.1V17.3H8.4V19.4H10.5V10.5C10.5 9.29999 9.5 8.39999 8.4 8.39999Z" fill="#042b62"/>
<path d="M8.4 8.39999H2.1C0.9 8.39999 0 9.29999 0 10.5V14.8C0.8 15.1 1.6 15.2 2.4 15.2C5.8 15.2 8.8 12.6 10 8.99999C9.5 8.59999 9 8.39999 8.4 8.39999Z" fill="#042b62"/>
<path d="M5.19995 29.4H8.29995C8.89995 29.4 9.29995 29.8 9.29995 30.4C9.29995 30.4 9.29995 30.4 9.29995 30.5V31.5H5.19995V29.4Z" fill="#ccd5e0"/>
<path d="M5.19998 29.4H2.09998C1.49998 29.4 1.09998 29.8 1.09998 30.4C1.09998 30.4 1.09998 30.4 1.09998 30.5V31.5H5.29998L5.19998 29.4Z" fill="#ccd5e0"/>
<path d="M0 17.3H2.1V19.4H0V17.3Z" fill="#E2E2E2" stroke="#939393" stroke-width="0.25"/>
<path d="M8.40002 17.3H10.5V19.4H8.40002V17.3Z" fill="#E2E2E2" stroke="#939393" stroke-width="0.25"/>
<path d="M3.69995 8.39999V8.89999C3.79995 9.79999 4.49995 10.4 5.39995 10.3C6.19995 10.2 6.79995 9.59999 6.79995 8.89999V8.39999H3.69995Z" fill="#E2E2E2"/>
<path d="M6.79998 2.10001C6.79998 3.30001 4.79998 4.20001 3.59998 4.20001H2.59998V5.80001C2.79998 7.20001 3.99998 8.30001 5.49998 8.20001C6.79998 8.10001 7.89998 7.10001 7.99998 5.70001V3.90001C7.29998 3.50001 6.79998 2.90001 6.79998 2.10001Z" fill="#E2E2E2" stroke="#939393" stroke-width="0.25"/>
<path d="M7.19998 3.20001C6.89998 2.90001 6.79998 2.50001 6.79998 2.10001C6.79998 3.30001 4.79998 4.20001 3.59998 4.20001H2.59998V5.80001C2.59998 6.20001 2.69998 6.50001 2.79998 6.80001C4.99998 6.70001 6.69998 5.20001 7.19998 3.20001Z" fill="#EAEAEA"/>
<path d="M6.79998 2.1C6.79998 3.3 4.79998 4.2 3.59998 4.2H1.59998V2.1C1.59998 0.9 2.49998 0 3.69998 0H6.89998C7.99998 0 8.89998 0.9 8.89998 2.1V4.2C7.79998 4.2 6.79998 3.3 6.79998 2.1Z" fill="#042b62"/>
<path d="M8.90002 4.2H7.90002V5.8C7.90002 6 7.90002 6.2 7.90002 6.3H9.00002C9.60002 6.3 10.1 5.8 10.1 5.2C10.1 4.6 9.60002 4.2 9.00002 4.2H8.90002Z" fill="#EAEAEA" stroke="#939393" stroke-width="0.25"/>
<path d="M1.59998 4.2H2.59998V5.8C2.59998 6 2.59998 6.2 2.69998 6.3H1.59998C0.999976 6.3 0.599976 5.8 0.599976 5.2C0.599976 4.6 0.999976 4.2 1.59998 4.2Z" fill="#EAEAEA" stroke="#939393" stroke-width="0.25"/>
<path d="M12.6 2.8H31.5V11.2H12.6V2.8Z" fill="#042b62"/>
<path d="M12.6 8.4C14.3 9.2 16.1 9.7 18 9.7C23.1 9.7 27.2 6.8 27.2 3.1C27.2 3 27.2 2.9 27.2 2.8H12.6V8.4Z" fill="#042b62"/>
<path d="M15.7 4.39999H14.6C14.3 4.39999 14.1 4.59999 14.1 4.89999V9.09999C14.1 9.39999 14.3 9.59999 14.6 9.59999H15.7C16.9 9.59999 17.8 8.69999 17.8 7.49999V6.49999C17.9 5.39999 16.9 4.39999 15.7 4.39999C15.8 4.39999 15.8 4.39999 15.7 4.39999ZM16.7 7.49999C16.7 8.09999 16.3 8.49999 15.8 8.49999C15.8 8.49999 15.8 8.49999 15.7 8.49999H15.2V5.39999H15.7C16.3 5.39999 16.7 5.79999 16.7 6.39999V7.49999Z" fill="white"/>
<path d="M18.9 4.9V9.1C18.9 9.4 19.1 9.6 19.4 9.6H21.5V8.6H19.9V7.5H21.5V6.5H19.9V5.5H21.5V4.5H19.4C19.2 4.5 19 4.7 18.9 4.9Z" fill="white"/>
<path d="M24.1 4.39999H23.1C22.8 4.39999 22.6 4.59999 22.6 4.89999V9.09999C22.6 9.39999 22.8 9.59999 23.1 9.59999H24.1C25 9.59999 25.7 8.89999 25.7 7.99999C25.7 7.59999 25.6 7.29999 25.3 6.99999C25.5 6.69999 25.7 6.39999 25.7 5.99999C25.7 5.09999 25.1 4.39999 24.1 4.39999C24.2 4.39999 24.2 4.39999 24.1 4.39999ZM24.1 8.59999H23.6V7.59999H24.1C24.4 7.59999 24.6 7.79999 24.6 8.09999C24.7 8.29999 24.4 8.59999 24.1 8.59999ZM24.1 6.49999H23.6V5.49999H24.1C24.4 5.49999 24.6 5.69999 24.6 5.99999C24.6 6.29999 24.4 6.49999 24.1 6.49999Z" fill="white"/>
<path d="M29.9 4.39999H26.8V5.39999H27.8V9.59999H28.8V5.39999H29.8L29.9 4.39999Z" fill="white"/>
<path d="M21.3 21.5L18.7001 20.5C18.4001 20.4 18.3 20.1 18.3 19.9C18.3 19.7 18.5001 19.6 18.7001 19.5L20.4 18.6L20 16.4C20 16.2 20.1001 16 20.2001 15.8C20.4001 15.7 20.6 15.7 20.8 15.8L22.5 17.1L24.3 15.3C24.4 15.2 24.6 15.1 24.8 15.2C25 15.3 25.1001 15.4 25.2001 15.6L25.6 17.7L27.2001 17.3C27.5001 17.2 27.8 17.4 27.8 17.7C27.8 17.8 27.8001 18 27.7001 18.1L26.1 20.7L25.2001 20.2L26.1 18.7L25.2001 18.9C25.1001 18.9 24.9 18.9 24.8 18.8C24.7 18.7 24.6 18.6 24.6 18.5L24.3 16.8L23 18.2C22.8 18.4 22.5 18.4 22.3 18.2L21.3 17.4L21.6 18.7C21.6 18.9 21.5 19.2 21.3 19.3L20.2001 19.8L21.7001 20.4L21.3 21.5Z" fill="#042b62"/>
<path d="M24.7001 22H23.7001V21.9C23.7001 21.1 23.4 20.3 22.8 19.7L23.5 19C24.2 19.8 24.7001 20.8 24.7001 22Z" fill="#042b62"/>
</g>
<defs>
<clipPath id="clip0_15_84">
<rect width="31.5" height="31.5" fill="white"/>
</clipPath>
</defs>
</svg>
