<svg xmlns="http://www.w3.org/2000/svg" width="45" height="45" viewBox="0 0 45 45">
  <g fill="none" fill-rule="evenodd">
    <g fill="#65D48E">
      <circle cx="22.5" cy="22.5" r="22.5" opacity=".12"/>
      <circle cx="22.5" cy="22.5" r="18.947" opacity=".233"/>
    </g>
    <g opacity=".228" transform="rotate(-32 29.084 7.56)">
      <circle cx="8.383" cy="29.556" r="1.184" fill="#005263"/>
      <circle cx="13.59" cy="1.816" r="1" fill="#005263"/>
      <circle cx="28.945" cy="11.746" r="1.184" fill="#005263"/>
      <circle cx="1.274" cy="20.77" r="1" fill="#47A395" transform="matrix(1 0 0 -1 0 41.54)"/>
    </g>
    <g opacity=".14" transform="translate(17 12)">
      <g transform="translate(0 3.24)">
        <rect width="16.2" height="5.832" fill="#005263"/>
        <rect width="15.12" height="4.536" x=".54" y=".648" stroke="#FFF" stroke-width=".6"/>
      </g>
      <g transform="translate(1.08)">
        <g transform="translate(0 1.62)">
          <rect width="14.04" height="5.832" fill="#005263"/>
          <rect width="12.96" height="4.536" x=".54" y=".648" stroke="#FFF" stroke-width=".6"/>
        </g>
        <g transform="translate(1.62)">
          <rect width="11.016" height="5.832" fill="#005263"/>
          <path fill="#FFF" fill-rule="nonzero" stroke="#FFF" stroke-width=".5" d="M1.3368655,0.54205796 L1.0309039,0.54205796 C1.01343759,0.373417706 0.922492305,0.216823184 0.789386962,0.120457324 L1.3368655,0.120457324 C1.36999127,0.120457324 1.39709416,0.0933544265 1.39709416,0.0602286622 C1.39709416,0.027102898 1.36999127,0 1.3368655,0 L0.0624270084,0 C0.0293012442,0 0.00219834617,0.027102898 0.00219834617,0.0602286622 C0.00219834617,0.0933544265 0.0293012442,0.120457324 0.0624270084,0.120457324 L0.427412702,0.120457324 C0.67555479,0.120457324 0.880332242,0.307166177 0.909844286,0.54205796 L0.0624270084,0.54205796 C0.0293012442,0.54205796 0.00219834617,0.569160858 0.00219834617,0.602286622 C0.00219834617,0.635412387 0.0293012442,0.662515285 0.0624270084,0.662515285 L0.909844286,0.662515285 C0.879729955,0.906441367 0.672543357,1.0895365 0.427412702,1.09013879 L0.063029295,1.09013879 C0.0293012442,1.09074107 0.00219834617,1.11844626 0.00280063279,1.15217431 C0.00280063279,1.16843605 0.0100280723,1.1840955 0.0214715181,1.19553895 L0.932731178,2.0574111 C0.956822643,2.08029799 0.9947667,2.07909342 1.01765359,2.05500196 C1.04054048,2.0303082 1.03933591,1.99236415 1.01524444,1.96887497 L0.213600951,1.21059611 L0.426810415,1.21059611 C0.741204032,1.21059611 1.00078957,0.969681462 1.0309039,0.662515285 L1.3368655,0.662515285 C1.36999127,0.662515285 1.39709416,0.635412387 1.39709416,0.602286622 C1.39709416,0.569160858 1.36999127,0.54205796 1.3368655,0.54205796 Z" transform="translate(4.536 1.944)"/>
          <rect width="9.72" height="4.536" x=".648" y=".648" stroke="#FFF" stroke-width=".6"/>
        </g>
      </g>
    </g>
    <text fill="#005263" font-family="Muli-Bold, Muli" font-size="18" font-weight="bold">
      <tspan x="17.46" y="29">L</tspan>
    </text>
  </g>
</svg>
