<svg xmlns="http://www.w3.org/2000/svg" width="45" height="45" viewBox="0 0 45 45">
  <g fill="none" fill-rule="evenodd">
    <g fill="#65D48E">
      <circle cx="22.5" cy="22.5" r="22.5" opacity=".12"/>
      <circle cx="22.5" cy="22.5" r="18.947" opacity=".233"/>
    </g>
    <g opacity=".228" transform="rotate(-32 37.303 3.317)">
      <circle cx="17.135" cy="25.933" r="1.184" fill="#005263"/>
      <circle cx="1.176" cy="16.029" r="1" fill="#005263"/>
      <circle cx="15.665" cy="6.992" r="1" fill="#005263"/>
      <circle cx="25.294" cy="1.553" r="1.184" fill="#005263"/>
      <circle cx="25.431" cy="19.837" r="1" fill="#47A395" transform="matrix(1 0 0 -1 0 39.674)"/>
    </g>
    <g fill="#005263" fill-rule="nonzero" transform="translate(8 13)">
      <path d="M14.4000006 18.7500007C16.7986044 18.7500007 18.7500007 16.7986044 18.7500007 14.4000006 18.7500007 12.0013967 16.7986044 10.0500004 14.4000006 10.0500004 12.0013967 10.0500004 10.0500004 12.0013967 10.0500004 14.4000006 10.0500004 16.7986044 12.0013967 18.7500007 14.4000006 18.7500007zM13.2270217 13.5514848C13.1831602 13.5517412 13.1410205 13.5352221 13.110026 13.5056216 13.0790315 13.4760211 13.061768 13.4358085 13.0620959 13.3939764 13.0628155 13.3527412 13.0808809 13.3135119 13.1122308 13.2851072 13.1435806 13.2567025 13.1855845 13.241506 13.2287999 13.2429338L13.2306058 13.2429338 14.9373765 13.2540898C14.86144 12.8114392 14.4646006 12.4838307 13.9943878 12.4756107L13.2386632 12.4678996C13.1464747 12.46704 13.072417 12.3951635 13.0731262 12.307238 13.0730458 12.2651213 13.0907166 12.224741 13.122166 12.195175 13.1536154 12.165609 13.1962043 12.1493384 13.240358 12.1500005L13.9933042 12.1578383 13.9933042 12.1584212 15.8805596 12.1784542C15.973955 12.1782786 16.0498162 12.2503457 16.0500005 12.3394206 16.0501844 12.4284955 15.9746218 12.5008474 15.8812265 12.501023L15.8794205 12.501023 14.8625264 12.4883301C15.0915791 12.6877407 15.2377788 12.9590799 15.2744241 13.2527913L15.8707241 13.260423C15.9633908 13.2627923 16.0368685 13.3357279 16.0356499 13.424132 16.0351602 13.5124676 15.9615193 13.5846217 15.8689459 13.58747L15.8671122 13.58747 15.2708121 13.5753071C15.1795067 14.1855197 14.6307031 14.6382689 13.9844133 14.6365538L13.9702991 14.6365538 13.6338905 14.633109 15.2015189 16.0766261C15.2677542 16.1376167 15.2696076 16.2382699 15.2056587 16.3014411 15.1417098 16.3646124 15.0361746 16.3663801 14.9699393 16.3053894L13.1007712 14.5842719C13.0517516 14.5390211 13.0365873 14.469851 13.0624904 14.4096592 13.0883935 14.3494674 13.1501361 14.3104024 13.2183531 14.3110437L13.9738554 14.3189933C13.9773284 14.3189933 13.9809125 14.3194438 13.9843855 14.3194438 14.4492641 14.3190704 14.8480592 14.003222 14.9338479 13.5674635L13.2270217 13.5514848zM11.1000004 9.18000036C10.7700004 8.37000033 10.1400004 7.74000031 9.33000037 7.35000029L8.19000033 6.84000027C7.5 7.4700003 6.63000026 7.83000031 5.70000023 7.83000031 4.77000019 7.83000031 3.90000015 7.4700003 3.21000013 6.84000027L2.07000008 7.35000029C.810000032 7.92000031 0 9.15000036 0 10.5300004L0 12.2100005C0 12.9000005.570000023 13.5000005 1.29000005 13.5000005L8.64000034 13.5000005C8.73000035 11.7000005 9.69000039 10.1100004 11.1000004 9.18000036z"/>
      <ellipse cx="5.7" cy="3.33" rx="2.85" ry="3.33"/>
      <path d="M26.4300011,7.35000029 L25.290001,6.84000027 C24.600001,7.4400003 23.7300009,7.83000031 22.8000009,7.83000031 C21.8400009,7.83000031 21.0000008,7.4700003 20.3100008,6.84000027 L19.1700008,7.35000029 C18.3600007,7.71000031 17.7300007,8.37000033 17.4000007,9.18000036 C18.8100007,10.1400004 19.7700008,11.7000005 19.8600008,13.5300005 L27.2100011,13.5300005 C27.9000007,13.5300005 28.5000011,12.9600005 28.5000011,12.2400005 L28.5000011,10.5600004 C28.5000011,9.15000036 27.6900011,7.92000031 26.4300011,7.35000029 Z"/>
      <ellipse cx="22.8" cy="3.33" rx="2.85" ry="3.33"/>
    </g>
  </g>
</svg>
