<svg xmlns="http://www.w3.org/2000/svg" width="45" height="45" viewBox="0 0 45 45">
  <g fill="none" fill-rule="evenodd">
    <g fill="#65D48E">
      <circle cx="22.5" cy="22.5" r="22.5" opacity=".12"/>
      <circle cx="22.5" cy="22.5" r="18.947" opacity=".233"/>
    </g>
    <g opacity=".228" transform="rotate(-32 30.828 7.06)">
      <circle cx="12.305" cy="29.828" r="1.184" fill="#005263"/>
      <circle cx="1.507" cy="14.491" r="1" fill="#005263"/>
      <circle cx="14.528" cy="1.738" r="1.184" fill="#005263"/>
      <circle cx="26.431" cy="23.837" r="1" fill="#47A395" transform="matrix(1 0 0 -1 0 47.674)"/>
    </g>
    <path fill="#005263" fill-rule="nonzero" d="M2.1599999 4.31999981C3.35103068 4.31999981 4.31999981 3.35103068 4.31999981 2.1599999 4.31999981.968969124 3.35103068 0 2.1599999 0 .968969124 0 0 .968969124 0 2.1599999 0 3.35103068.968969124 4.31999981 2.1599999 4.31999981zM1.5132139 1.80168334C1.49175322 1.80181489 1.47113498 1.79334036 1.45596993 1.77815487 1.44080488 1.76296938 1.43235813 1.74233974 1.43251858 1.72087927 1.43287068 1.69972499 1.44170972 1.67959977 1.45704868 1.66502775 1.47238764 1.65045574 1.49293941 1.6426597 1.51408393 1.64339219L1.51496755 1.64339219 2.35006075 1.64911536C2.31290637 1.42202914 2.11873976 1.25396118 1.88867278 1.24974423L1.51890988 1.24578831C1.47380363 1.24534734 1.43756848 1.2084736 1.43791549 1.16336653 1.43787617 1.14176006 1.4465222 1.12104436 1.46190984 1.10587658 1.47729748 1.0907088 1.49813546 1.08236177 1.51973912 1.08270141L1.8881426 1.0867223 1.8881426 1.08702137 2.81154389 1.0972986C2.85724062 1.09720851 2.89435817 1.13417999 2.89444843 1.17987672 2.89453836 1.22557345 2.85756688 1.262691 2.81187015 1.2627811L2.81098653 1.2627811 2.31343791 1.25626946C2.42550941 1.35856999 2.49704239 1.49777098 2.51497229 1.64844924L2.80673153 1.65236438C2.85207173 1.65357988 2.88802311 1.69099693 2.88742685 1.7363495 2.88718728 1.78166698 2.85115606 1.81868305 2.8058615 1.82014429L2.80496428 1.82014429 2.51320504 1.81390455C2.46853088 2.12695253 2.20001081 2.35921949 1.88379245 2.35833964L1.87688659 2.35833964 1.71228772 2.35657239 2.47930105 3.09711776C2.51170882 3.12840686 2.51261569 3.18004338 2.48132658 3.21245116 2.45003748 3.24485894 2.39840096 3.2457658 2.36599319 3.2144767L1.45144174 2.33151823C1.4274573 2.3083039 1.42003764 2.27281863 1.43271159 2.24193936 1.44538554 2.21106009 1.47559511 2.19101918 1.5089725 2.19134818L1.87862665 2.19542645C1.88032593 2.19542645 1.88207958 2.19565755 1.88377886 2.19565755 2.11123585 2.19546597 2.30635939 2.03343115 2.34833429 1.80988065L1.5132139 1.80168334zM8.8799996 10.8799995C10.0710304 10.8799995 11.0399995 9.91103039 11.0399995 8.71999961 11.0399995 7.52896883 10.0710304 6.55999971 8.8799996 6.55999971 7.68896882 6.55999971 6.7199997 7.52896883 6.7199997 8.71999961 6.7199997 9.91103039 7.68896882 10.8799995 8.8799996 10.8799995zM8.2332136 8.36168304C8.21175292 8.36181459 8.19113468 8.35334006 8.17596963 8.33815458 8.16080458 8.32296909 8.15235783 8.30233945 8.15251828 8.28087897 8.15287038 8.2597247 8.16170942 8.23959947 8.17704838 8.22502746 8.19238734 8.21045545 8.21293911 8.20265941 8.23408363 8.2033919L8.23496725 8.2033919 9.07006045 8.20911506C9.03290606 7.98202885 8.83873946 7.81396089 8.60867248 7.80974394L8.23890958 7.80578802C8.19380333 7.80534704 8.15756818 7.7684733 8.15791519 7.72336624 8.15787587 7.70175977 8.1665219 7.68104407 8.18190954 7.66587629 8.19729718 7.65070851 8.21813516 7.64236147 8.23973882 7.64270111L8.6081423 7.646722 8.6081423 7.64702108 9.53154359 7.65729831C9.57724032 7.65720822 9.61435787 7.6941797 9.61444813 7.73987642 9.61453806 7.78557315 9.57756658 7.82269071 9.53186985 7.8227808L9.53098623 7.8227808 9.03343761 7.81626917C9.14550911 7.91856969 9.21704209 8.05777069 9.23497199 8.20844895L9.52673123 8.21236408C9.57207143 8.21357958 9.60802281 8.25099664 9.60742655 8.2963492 9.60718698 8.34166669 9.57115576 8.37868276 9.5258612 8.380144L9.52496398 8.380144 9.23320474 8.37390425C9.18853058 8.68695224 8.92001051 8.9192192 8.60379215 8.91833934L8.59688629 8.91833934 8.43228742 8.91657209 9.19930074 9.65711747C9.23170852 9.68840657 9.23261539 9.74004309 9.20132628 9.77245087 9.17003718 9.80485864 9.11840066 9.80576551 9.08599288 9.77447641L8.17144144 8.89151794C8.147457 8.86830361 8.14003734 8.83281834 8.15271129 8.80193907 8.16538524 8.77105979 8.19559481 8.75101889 8.2289722 8.75134789L8.59862635 8.75542616C8.60032563 8.75542616 8.60207928 8.75565726 8.60377856 8.75565726 8.83123555 8.75546568 9.02635909 8.59343086 9.06833399 8.36988036L8.2332136 8.36168304zM2.92799987 7.26399968L3.99999982 7.26399968 2.3039999 5.58399975.607999973 7.26399968 1.67999992 7.26399968C1.83999992 9.19999959 3.47199984 10.7199995 5.43999976 10.7199995L5.43999976 9.47199958C4.15999981 9.48799958 3.08799986 8.51199962 2.92799987 7.26399968zM8.15999964 3.66399984L7.10399968 3.66399984 8.79999961 5.35999976 10.4959995 3.66399984 9.42399958 3.66399984C9.26399959 1.72799992 7.63199966.207999991 5.64799975.207999991L5.64799975 1.45599993C6.92799969 1.45599993 7.99999964 2.41599989 8.15999964 3.66399984z" opacity=".14" transform="translate(23 12)"/>
    <text fill="#005263" font-family="Muli-Bold, Muli" font-size="18" font-weight="bold">
      <tspan x="16.25" y="29">A</tspan>
    </text>
  </g>
</svg>
