<svg xmlns="http://www.w3.org/2000/svg" width="45" height="45" viewBox="0 0 45 45">
  <g fill="none" fill-rule="evenodd">
    <g fill="#65D48E">
      <circle cx="22.5" cy="22.5" r="22.5" opacity=".12"/>
      <circle cx="22.5" cy="22.5" r="18.947" opacity=".233"/>
    </g>
    <g opacity=".228" transform="rotate(-32 35.803 -1.914)">
      <circle cx="4.383" cy="24.556" r="1.184" fill="#005263"/>
      <circle cx="1.11" cy=".951" r="1" fill="#005263"/>
      <circle cx="22.294" cy="1.553" r="1.184" fill="#005263"/>
      <circle cx="23.562" cy="13.33" r="1" fill="#47A395" transform="matrix(1 0 0 -1 0 26.66)"/>
    </g>
    <g fill="#005263" fill-rule="nonzero" transform="translate(12 11)">
      <path d="M14.7020365,12.3771973 C14.7020365,10.8359283 14.7020365,7.52275107 14.7020365,2.43766548 C14.7020365,2.07989866 14.4098773,1.78883412 14.0507648,1.78883412 L12.2817186,1.78883412 L12.2817186,0.648831359 C12.2817186,0.291064535 11.9895593,0 11.6304468,0 L4.36955318,0 C4.01044072,0 3.71828142,0.291064535 3.71828142,0.648831359 L3.71828142,1.78883412 L1.94923521,1.78883412 C1.59012275,1.78883412 1.29796346,2.07989866 1.29796346,2.43766548 L1.29796346,16.6303637 L0.623007996,16.6303637 C0.279503878,16.6303637 1.77635684e-15,16.9088202 1.77635684e-15,17.2510372 L1.77635684e-15,19.3793265 C1.77635684e-15,19.7215435 0.279503878,20 0.623007996,20 C5.55683604,20 9.25720707,20 11.7241211,20 C11.0292337,18.6454633 10.998009,17.1664187 11.6304468,15.5628662 C12.0589768,14.4763241 12.7271222,13.7336474 13.3309602,13.2403378 C14.0638665,12.6415851 14.7020365,12.4101948 14.7020365,12.3771973 Z M5.51709799,13.9580094 C5.51709799,14.0570722 5.43574175,14.1381236 5.33630635,14.1381236 L2.97094904,14.1381236 C2.87151364,14.1381236 2.7901574,14.0570722 2.7901574,13.9580094 L2.7901574,11.6015154 C2.7901574,11.5024526 2.87151364,11.4214012 2.97094904,11.4214012 L5.33630635,11.4214012 C5.43574175,11.4214012 5.51709799,11.5024526 5.51709799,11.6015154 L5.51709799,13.9580094 Z M5.51709799,10.1956641 C5.51709799,10.2947269 5.43574175,10.3757782 5.33630635,10.3757782 L2.97094904,10.3757782 C2.87151364,10.3757782 2.7901574,10.2947269 2.7901574,10.1956641 L2.7901574,7.83917003 C2.7901574,7.74010723 2.87151364,7.65905584 2.97094904,7.65905584 L5.33630635,7.65905584 C5.43574175,7.65905584 5.51709799,7.74010723 5.51709799,7.83917003 L5.51709799,10.1956641 Z M5.51709799,6.39327334 C5.51709799,6.49233614 5.43574175,6.57338753 5.33630635,6.57338753 L2.97094904,6.57338753 C2.87151364,6.57338753 2.7901574,6.49233614 2.7901574,6.39327334 L2.7901574,4.03677932 C2.7901574,3.93771651 2.87151364,3.85666513 2.97094904,3.85666513 L5.33630635,3.85666513 C5.43574175,3.85666513 5.51709799,3.93771651 5.51709799,4.03677932 L5.51709799,6.39327334 Z M9.36344016,17.1400868 C9.36344016,17.2391496 9.28208392,17.320201 9.18264852,17.320201 L6.81729121,17.320201 C6.71785581,17.320201 6.63649957,17.2391496 6.63649957,17.1400868 L6.63649957,11.6015154 C6.63649957,11.5024526 6.71785581,11.4214012 6.81729121,11.4214012 L9.18264852,11.4214012 C9.28208392,11.4214012 9.36344016,11.5024526 9.36344016,11.6015154 L9.36344016,17.1400868 Z M9.36344016,10.1956641 C9.36344016,10.2947269 9.28208392,10.3757782 9.18264852,10.3757782 L6.81729121,10.3757782 C6.71785581,10.3757782 6.63649957,10.2947269 6.63649957,10.1956641 L6.63649957,7.83917003 C6.63649957,7.74010723 6.71785581,7.65905584 6.81729121,7.65905584 L9.18264852,7.65905584 C9.28208392,7.65905584 9.36344016,7.74010723 9.36344016,7.83917003 L9.36344016,10.1956641 Z M9.36344016,6.39327334 C9.36344016,6.49233614 9.28208392,6.57338753 9.18264852,6.57338753 L6.81729121,6.57338753 C6.71785581,6.57338753 6.63649957,6.49233614 6.63649957,6.39327334 L6.63649957,4.03677932 C6.63649957,3.93771651 6.71785581,3.85666513 6.81729121,3.85666513 L9.18264852,3.85666513 C9.28208392,3.85666513 9.36344016,3.93771651 9.36344016,4.03677932 L9.36344016,6.39327334 Z M12.4294027,14.1381236 C12.0393531,14.1381236 11.4542787,14.1381236 10.6741796,14.1381236 C10.5747442,14.1381236 10.4933879,14.0570722 10.4933879,13.9580094 L10.4933879,11.6015154 C10.4933879,11.5024526 10.5747442,11.4214012 10.6741796,11.4214012 L13.0395369,11.4214012 C13.1389723,11.4214012 13.2203285,11.5024526 13.2203285,11.6015154 C13.2191047,12.3696499 13.2191047,12.9457493 13.2203285,13.3298136 C13.2203285,13.3298136 13.0040493,13.5036026 12.844401,13.6720785 C12.6658672,13.8604842 12.472168,14.1381236 12.4294027,14.1381236 Z M13.2203285,10.1956641 C13.2203285,10.2947269 13.1389723,10.3757782 13.0395369,10.3757782 L10.6741796,10.3757782 C10.5747442,10.3757782 10.4933879,10.2947269 10.4933879,10.1956641 L10.4933879,7.83917003 C10.4933879,7.74010723 10.5747442,7.65905584 10.6741796,7.65905584 L13.0395369,7.65905584 C13.1389723,7.65905584 13.2203285,7.74010723 13.2203285,7.83917003 L13.2203285,10.1956641 Z M13.2203285,6.39327334 C13.2203285,6.49233614 13.1389723,6.57338753 13.0395369,6.57338753 L10.6741796,6.57338753 C10.5747442,6.57338753 10.4933879,6.49233614 10.4933879,6.39327334 L10.4933879,4.03677932 C10.4933879,3.93771651 10.5747442,3.85666513 10.6741796,3.85666513 L13.0395369,3.85666513 C13.1389723,3.85666513 13.2203285,3.93771651 13.2203285,4.03677932 L13.2203285,6.39327334 Z"/>
      <g transform="translate(12 11)">
        <path d="M6,1 C2.687,1 0,3.687 0,7 C0,10.313 2.687,13 6,13 C9.313,13 12,10.313 12,7 L6,7 L6,1 Z M10.899,8 C10.434,10.279 8.415,12 6,12 C3.243,12 1,9.757 1,7 C1,4.585 2.721,2.565 5,2.101 L5,8 L10.899,8 Z"/>
        <path d="M7,0 L7,6 L13,6 C13,2.687 10.313,0 7,0 Z"/>
      </g>
    </g>
  </g>
</svg>
