<svg width="30" height="32" viewBox="0 0 30 32" fill="none" xmlns="http://www.w3.org/2000/svg">
<g clip-path="url(#clip0_15_848)">
<path d="M21.5 6.6C21.5 10.3 18.5 13.2 14.9 13.2C11.3 13.2 8.29999 10.2 8.29999 6.6C8.29999 3 11.3 0 14.9 0C18.6 0 21.5 3 21.5 6.6Z" fill="#042b62"/>
<path d="M19.9 6.60001C19.9 9.40001 17.7 11.6 14.9 11.6C12.1 11.6 9.90002 9.40001 9.90002 6.60001C9.90002 3.80001 12.1 1.60001 14.9 1.60001C17.7 1.60001 19.9 3.90001 19.9 6.60001Z" fill="#042b62"/>
<path d="M14.9 1.70001C13.2 1.70001 11.6 2.60001 10.7 4.00001C13.1 2.60001 16.2 3.50001 17.5 5.90001C18.4 7.40001 18.4 9.30001 17.5 10.9C19.8 9.40001 20.5 6.30001 19 4.00001C18.1 2.50001 16.6 1.70001 14.9 1.70001Z" fill="#042b62"/>
<path d="M19.9 21H9.90002L11.6 15.5H18.2L19.9 21Z" fill="#ccd5e0"/>
<path d="M15.3 19.9C13.8 19.9 12.5 18.7 12.5 17.1C12.5 16.8 12.5 16.6 12.6 16.3L12.9 15.4H11.6L9.90002 21H19.8L19.5 19.9H15.3Z" fill="#042b62"/>
<path d="M14.9 26.5H5L6.6 21H13.2L14.9 26.5Z" fill="#ccd5e0"/>
<path d="M10.3 25.4C9.4 25.4 8.6 25 8.1 24.3C7.6 23.6 7.4 22.7 7.7 21.9L7.9 21H6.6L5 26.5H14.9L14.6 25.4H10.3Z" fill="#042b62"/>
<path d="M24.8 26.5H14.9L16.5 21H23.1L24.8 26.5Z" fill="#ccd5e0"/>
<path d="M20.3 25.4C18.8 25.4 17.5 24.2 17.5 22.7C17.5 22.4 17.5 22.2 17.6 21.9L17.9 21H16.6L15 26.5H24.9L24.6 25.4H20.3Z" fill="#042b62"/>
<path d="M9.9 32H0L1.7 26.5H8.3L9.9 32Z" fill="#ccd5e0"/>
<path d="M5.4 30.9C3.9 30.9 2.6 29.6 2.6 28.1C2.6 27.8 2.6 27.6 2.7 27.3L3 26.5H1.7L0 32H9.9L9.6 30.9H5.4Z" fill="#042b62"/>
<path d="M19.9 32H9.90002L11.6 26.5H18.2L19.9 32Z" fill="#ccd5e0"/>
<path d="M15.3 30.9C13.8 30.9 12.5 29.6 12.5 28.1C12.5 27.8 12.5 27.6 12.6 27.3L12.9 26.4H11.6L9.90002 32H19.8L19.5 30.9H15.3Z" fill="#042b62"/>
<path d="M29.8 32H19.9L21.6 26.5H28.2L29.8 32Z" fill="#ccd5e0"/>
<path d="M25.2 30.9C23.7 30.9 22.4 29.6 22.4 28.1C22.4 27.8 22.4 27.6 22.5 27.3L22.8 26.4H21.5L19.9 32H29.8L29.5 30.9H25.2Z" fill="#042b62"/>
<path d="M16 17.1H13.8C13.5 17.1 13.3 17.4 13.3 17.7C13.3 18 13.5 18.1 13.8 18.2H16C16.3 18.2 16.5 17.9 16.5 17.6C16.4 17.3 16.3 17.1 16 17.1Z" fill="white"/>
<path d="M21 22.6H18.8C18.5 22.6 18.3 22.8 18.3 23.1C18.3 23.4 18.5 23.6 18.8 23.6H21C21.3 23.6 21.5 23.4 21.5 23.1C21.5 22.8 21.3 22.6 21 22.6Z" fill="white"/>
<path d="M11 22.6H8.80001C8.50001 22.6 8.20001 22.8 8.20001 23.1C8.20001 23.4 8.40001 23.6 8.70001 23.6H11C11.3 23.6 11.6 23.4 11.6 23.1C11.6 22.9 11.3 22.6 11 22.6Z" fill="white"/>
<path d="M16 28.1H13.8C13.5 28.1 13.2 28.3 13.2 28.6C13.2 28.9 13.4 29.1 13.8 29.1H16C16.3 29.1 16.5 28.9 16.5 28.6C16.5 28.3 16.3 28.1 16 28.1Z" fill="white"/>
<path d="M25.9 28.1H23.7C23.4 28.1 23.2 28.3 23.2 28.6C23.2 28.9 23.4 29.1 23.7 29.1H25.9C26.2 29.1 26.4 28.9 26.4 28.6C26.5 28.4 26.2 28.1 25.9 28.1Z" fill="white"/>
<path d="M6.10002 28.1H3.90002C3.60002 28.1 3.40002 28.3 3.40002 28.6C3.40002 28.9 3.60002 29.1 3.90002 29.1H6.10002C6.40002 29.1 6.60002 28.9 6.70002 28.6C6.60002 28.4 6.40002 28.1 6.10002 28.1Z" fill="white"/>
<path d="M16.7 5.09999H15.9C15.9 4.89999 15.8 4.69999 15.6 4.49999H16.5H16.6V4.39999V3.89999V3.79999H16.5H13.1H13V3.89999V4.39999V4.49999H13.1H13.7C14.3 4.49999 14.6 4.69999 14.8 4.99999H13.1H13V5.09999V5.49999V5.59999H13.1H14.8C14.7 5.79999 14.6 5.99999 14.4 6.09999C14.1 6.19999 13.8 6.29999 13.5 6.29999H13.1C13 6.29999 13 6.39999 13 6.39999V6.99999V7.09999C13.5 7.69999 14.2 8.39999 15 9.39999L15.1 9.49999H16C16.1 9.49999 16.1 9.49999 16.1 9.39999V9.29999C15.3 8.29999 14.7 7.59999 14.2 7.09999C14.6 7.09999 15 6.89999 15.3 6.69999C15.6 6.49999 15.8 6.09999 15.8 5.79999H16.5C16.6 5.79999 16.6 5.69999 16.6 5.69999L16.7 5.09999Z" fill="white"/>
</g>
<defs>
<clipPath id="clip0_15_848">
<rect width="29.8" height="32" fill="white"/>
</clipPath>
</defs>
</svg>
