<svg xmlns="http://www.w3.org/2000/svg" width="45" height="45" viewBox="0 0 45 45">
  <g fill="none" fill-rule="evenodd">
    <g fill="#65D48E">
      <circle cx="22.5" cy="22.5" r="22.5" opacity=".12"/>
      <circle cx="22.5" cy="22.5" r="18.947" opacity=".233"/>
    </g>
    <g opacity=".228" transform="rotate(-32 41.034 -3.414)">
      <circle cx="3.535" cy="21.026" r="1.184" fill="#005263"/>
      <circle cx="25.893" cy="4.711" r="1" fill="#005263"/>
      <circle cx="1.307" cy="1.947" r="1.184" fill="#005263"/>
      <circle cx="18.899" cy="21.566" r="1" fill="#47A395" transform="matrix(1 0 0 -1 0 43.132)"/>
    </g>
    <g fill="#005263" fill-rule="nonzero" transform="translate(12 10)">
      <path d="M8.50861322.636000199L1.88221286 5.01600044 2.48458889 5.19360045 2.94781292 5.33040046C2.95261292 5.33280046 2.95501292 5.33280046 2.95981292 5.33520046L4.93981303 5.91600049 5.23261304 6.00240049 9.80941329 2.5632003 9.81661329 2.5560003 10.9758134 1.68480026 11.3766134 1.38480024 11.4678134 1.31520024 8.70061323.602400197C8.63338923.585600196 8.56378922.597624197 8.50861322.636000199zM5.28061305 9.49200068L5.25661304 9.15120066 5.23021304 8.80800065 5.16541304 7.9320006 5.09341303 7.00560055 5.05261303 6.44882452 2.82301291 5.79362448C2.82061291 5.79362448 2.81581291 5.79122448 2.81341291 5.79122448L2.02861287 5.56082447 1.85341286 5.50802446 1.55103684 5.41922446.0366367586 7.86722459C-.00416324367 7.9320246-.0113632441 8.0112246.0174367575 8.08082461.043836759 8.15042461.103836762 8.20562461.175836766 8.22482461L5.29503705 9.66002469 5.28303705 9.49922468 5.28061305 9.49200068zM13.4406135 3.31920035C13.4454135 3.25200034 13.4190135 3.18480034 13.3734135 3.13680034L11.8830134 1.60320025 11.6670134 1.76640026 11.4966134 1.89360027 10.1046133 2.94000032 5.53021306 6.37920051 5.64301306 7.8984006 5.72701307 9.00240066 5.76061307 9.45840068 5.76061307 9.47280068 5.76781307 9.58560069 13.3518135 3.48960035C13.4045895 3.44882435 13.4357895 3.38640035 13.4406135 3.31920035z"/>
      <path d="M6.2337809,14.8629866 C6.74594961,14.8351992 7.25313084,14.7780804 7.75413704,14.6911554 L7.75413704,19.4444801 L6.2337809,19.4444801 L6.2337809,14.8629866 Z M0,19.4444801 L1.52047491,19.4444801 L1.52047491,14.8831741 L0,14.8831741 L0,19.4444801 Z M3.11694982,14.8831741 L3.11694982,19.4444801 L4.63730599,19.4444801 L4.63730599,14.8831741 L3.11694982,14.8831741 Z M15.5462741,19.4444801 L17.066749,19.4444801 L17.066749,7.88725581 C16.6417428,8.70021824 16.1338491,9.46342446 15.5462741,10.1697494 L15.5462741,19.4444801 Z M12.4295618,19.4444801 L13.9497992,19.4444801 L13.9497992,11.7839181 C13.469218,12.1930118 12.9616805,12.564818 12.4295618,12.8983867 L12.4295618,19.4444801 Z M9.31261198,14.3197054 L9.31261198,19.4444801 L10.8330869,19.4444801 L10.8330869,13.7500617 C10.7515056,13.7866367 10.6695681,13.8227367 10.5870369,13.8575305 C10.1686807,14.0344679 9.74343693,14.1882492 9.31261198,14.3197054 L9.31261198,14.3197054 Z M16.2575866,0.0100937418 L13.032218,3.23534356 L14.1073804,4.31050601 L15.4443866,2.97349983 C14.8819866,7.9566058 10.6423744,11.8422243 5.51142468,11.8422243 L5.68434189e-14,11.8422243 L5.68434189e-14,13.3626992 L5.51142468,13.3626992 C8.58788077,13.3626992 11.4801556,12.1646306 13.6555367,9.98924943 C15.5837991,8.06098702 16.7435116,5.56878094 16.9819615,2.88479358 L18.3808364,4.2836685 L19.4559989,3.20850607 L16.2575866,0.0100937418 Z" transform="translate(2 2)"/>
    </g>
  </g>
</svg>
