<svg xmlns="http://www.w3.org/2000/svg" width="45" height="45" viewBox="0 0 45 45">
  <g fill="none" fill-rule="evenodd">
    <g fill="#65D48E">
      <circle cx="22.5" cy="22.5" r="22.5" opacity=".12"/>
      <circle cx="22.5" cy="22.5" r="18.947" opacity=".233"/>
    </g>
    <g opacity=".228" transform="rotate(-32 32.572 6.56)">
      <circle cx="1.81" cy="21.091" r="1.184" fill="#005263"/>
      <circle cx="14.756" cy="1.724" r="1" fill="#005263"/>
      <circle cx="22.692" cy="23.527" r="1.184" fill="#005263"/>
      <circle cx="29.893" cy="10.711" r="1" fill="#47A395" transform="matrix(1 0 0 -1 0 21.423)"/>
    </g>
    <g fill="#005263" fill-rule="nonzero" transform="translate(10 11)">
      <path d="M0.0241286863,9.23611111 L0.0241286863,8.70138889 C0.0241286863,7.75347222 2.38873995,7 5.33243968,7 C8.25201072,7 10.6407507,7.75347222 10.6407507,8.70138889 L10.6407507,9.23611111 C10.6407507,10.1840278 8.27613941,10.9375 5.33243968,10.9375 C2.38873995,10.9375 0.0241286863,10.1840278 0.0241286863,9.23611111 Z M5.30831099,18.2048611 C5.8150134,18.2048611 6.29758713,18.1805556 6.75603217,18.1319444 L6.75603217,16.84375 L6.75603217,16.3333333 C6.29758713,16.3819444 5.79088472,16.40625 5.30831099,16.40625 C3.83646113,16.40625 2.43699732,16.2118056 1.37533512,15.8715278 C0.91689008,15.7256944 0.579088472,15.5555556 0.289544236,15.4097222 C0.0965147453,15.5798611 0,15.7743056 0,15.96875 L0,16.5034722 C0.0241286863,17.4513889 2.38873995,18.2048611 5.30831099,18.2048611 Z M5.30831099,13.34375 C5.88739946,13.34375 6.41823056,13.3194444 6.94906166,13.2708333 C7.19034853,12.8819444 7.69705094,12.4444444 8.73458445,12.1284722 C9.28954424,11.9583333 9.91689008,11.8125 10.616622,11.7395833 C10.616622,11.7152778 10.616622,11.6909722 10.616622,11.6666667 L10.616622,11.1319444 C10.616622,10.9375 10.5201072,10.7430556 10.3270777,10.5729167 C10.0616622,10.7430556 9.6997319,10.8888889 9.24128686,11.0347222 C8.17962466,11.375 6.78016086,11.5694444 5.30831099,11.5694444 C3.83646113,11.5694444 2.43699732,11.375 1.37533512,11.0347222 C0.91689008,10.8888889 0.579088472,10.71875 0.289544236,10.5729167 C0.0965147453,10.7430556 2.84217094e-14,10.9375 2.84217094e-14,11.1319444 L2.84217094e-14,11.6666667 C0.0241286863,12.5902778 2.38873995,13.34375 5.30831099,13.34375 Z M5.30831099,15.7743056 C5.8150134,15.7743056 6.29758713,15.75 6.75603217,15.7013889 L6.75603217,14.4375 L6.75603217,14.2430556 L6.75603217,13.9270833 C6.29758713,13.9756944 5.79088472,14 5.30831099,14 C3.83646113,14 2.43699732,13.8055556 1.37533512,13.4652778 C0.91689008,13.3194444 0.579088472,13.1493056 0.289544236,13.0034722 C0.0965147453,13.1736111 0,13.3680556 0,13.5625 L0,14.0972222 C0.0241286863,15.0208333 2.38873995,15.7743056 5.30831099,15.7743056 Z M17.9758713,16.8680556 L17.9758713,16.3333333 C17.9758713,16.1388889 17.8793566,15.9444444 17.6863271,15.7743056 C17.4209115,15.9444444 17.0589812,16.0902778 16.6005362,16.2361111 C15.538874,16.5763889 14.1394102,16.7708333 12.6675603,16.7708333 C11.1957105,16.7708333 9.79624665,16.5763889 8.73458445,16.2361111 C8.27613941,16.0902778 7.9383378,15.9201389 7.64879357,15.7743056 C7.45576408,15.9444444 7.35924933,16.1388889 7.35924933,16.3333333 L7.35924933,16.8680556 C7.35924933,17.8159722 9.72386059,18.5694444 12.6675603,18.5694444 C15.6112601,18.5694444 17.9758713,17.8159722 17.9758713,16.8680556 Z M7.38337802,13.9270833 L7.38337802,14.4618056 C7.38337802,15.4097222 9.74798928,16.1631944 12.691689,16.1631944 C15.6112601,16.1631944 18,15.4097222 18,14.4618056 L18,13.9270833 C18,12.9791667 15.6353887,12.2256944 12.691689,12.2256944 C9.74798928,12.2256944 7.38337802,12.9791667 7.38337802,13.9270833 Z M7.38337802,19.2986111 C7.38337802,20.2465278 9.74798928,21 12.691689,21 C15.6112601,21 18,20.2465278 18,19.2986111 L18,18.7638889 C18,18.5694444 17.9034853,18.375 17.7104558,18.2048611 C17.4450402,18.375 17.0831099,18.5208333 16.6246649,18.6666667 C15.5630027,19.0069444 14.1635389,19.2013889 12.691689,19.2013889 C11.2198391,19.2013889 9.82037534,19.0069444 8.75871314,18.6666667 C8.3002681,18.5208333 7.96246649,18.3506944 7.67292225,18.2048611 C7.47989276,18.375 7.38337802,18.5694444 7.38337802,18.7638889 L7.38337802,19.2986111 Z"/>
      <g transform="matrix(-1 0 0 1 25 0)">
        <path d="M13.286001,3.44400025 L13.286001,2.15600016 C13.286001,1.87600014 13.0620009,1.65200012 12.7820009,1.65200012 L5.82400042,1.65200012 C5.30600038,0.672000049 4.27000031,-1.84741111e-13 3.09400022,-1.84741111e-13 C1.3860001,-1.84741111e-13 7.10542736e-14,1.3860001 7.10542736e-14,3.09400022 C7.10542736e-14,4.49400033 0.938000068,5.68400041 2.21200016,6.06200044 L2.21200016,8.86200064 C2.21200016,9.14200066 2.43600018,9.36600068 2.7160002,9.36600068 L12.8100009,9.36600068 C13.0900009,9.36600068 13.314001,9.14200066 13.314001,8.86200064 L13.314001,4.71800034 L5.74000042,4.71800034 C5.96400043,4.34000031 6.11800044,3.90600028 6.16000045,3.45800025 L13.286001,3.45800025 L13.286001,3.44400025 Z M0.574000042,3.12200023 C0.574000042,1.73600013 1.69400012,0.616000045 3.08000022,0.616000045 C4.46600032,0.616000045 5.5860004,1.73600013 5.5860004,3.12200023 C5.5860004,4.50800033 4.46600032,5.62800041 3.08000022,5.62800041 C1.69400012,5.62800041 0.574000042,4.49400033 0.574000042,3.12200023 Z M5.08200037,8.05000058 C5.08200037,8.12000059 5.02600036,8.19000059 4.94200036,8.19000059 L3.65400026,8.19000059 C3.58400026,8.19000059 3.51400025,8.13400059 3.51400025,8.05000058 L3.51400025,7.67200056 C3.51400025,7.60200055 3.57000026,7.53200055 3.65400026,7.53200055 L4.94200036,7.53200055 C5.01200036,7.53200055 5.08200037,7.58800055 5.08200037,7.67200056 L5.08200037,8.05000058 Z M10.4020008,7.68600056 C10.4020008,7.61600055 10.4580008,7.54600055 10.5420008,7.54600055 L11.8440009,7.54600055 C11.9140009,7.54600055 11.9840009,7.60200055 11.9840009,7.68600056 L11.9840009,8.06400058 C11.9840009,8.13400059 11.9280009,8.20400059 11.8440009,8.20400059 L10.5420008,8.20400059 C10.4720008,8.20400059 10.4020008,8.14800059 10.4020008,8.06400058 L10.4020008,7.68600056 Z M8.10600059,7.68600056 C8.10600059,7.61600055 8.16200059,7.54600055 8.2460006,7.54600055 L9.54800069,7.54600055 C9.6180007,7.54600055 9.6880007,7.60200055 9.6880007,7.68600056 L9.6880007,8.06400058 C9.6880007,8.13400059 9.6320007,8.20400059 9.54800069,8.20400059 L8.2460006,8.20400059 C8.17600059,8.20400059 8.10600059,8.14800059 8.10600059,8.06400058 L8.10600059,7.68600056 Z M5.81000042,7.68600056 C5.81000042,7.61600055 5.86600042,7.54600055 5.95000043,7.54600055 L7.23800052,7.54600055 C7.30800053,7.54600055 7.37800053,7.60200055 7.37800053,7.68600056 L7.37800053,8.06400058 C7.37800053,8.13400059 7.32200053,8.20400059 7.23800052,8.20400059 L5.95000043,8.20400059 C5.88000043,8.20400059 5.81000042,8.14800059 5.81000042,8.06400058 L5.81000042,7.68600056 L5.81000042,7.68600056 Z"/>
        <path d="M4.35400032,4.32600031 L4.35400032,2.8140002 C4.35400032,2.7300002 4.28400031,2.66000019 4.2000003,2.66000019 L3.97600029,2.66000019 L3.97600029,2.22600016 C3.97600029,1.73600013 3.57000026,1.3300001 3.08000022,1.3300001 C2.59000019,1.3300001 2.18400016,1.73600013 2.18400016,2.22600016 L2.18400016,2.66000019 L1.96000014,2.66000019 C1.87600014,2.66000019 1.80600013,2.7300002 1.80600013,2.8140002 L1.80600013,4.32600031 C1.80600013,4.41000032 1.87600014,4.48000032 1.96000014,4.48000032 L4.1860003,4.48000032 C4.28400031,4.48000032 4.35400032,4.41000032 4.35400032,4.32600031 Z M3.27600024,3.90600028 C3.29000024,3.96200029 3.24800024,4.00400029 3.20600023,4.00400029 L2.96800021,4.00400029 C2.91200021,4.00400029 2.88400021,3.96200029 2.89800021,3.90600028 L2.96800021,3.62600026 C2.88400021,3.58400026 2.8140002,3.48600025 2.8140002,3.38800025 C2.8140002,3.23400023 2.94000021,3.12200023 3.08000022,3.12200023 C3.23400023,3.12200023 3.34600024,3.24800024 3.34600024,3.38800025 C3.34600024,3.48600025 3.29000024,3.58400026 3.19200023,3.62600026 L3.27600024,3.90600028 Z M3.52800026,2.64600019 L2.63200019,2.64600019 L2.63200019,2.21200016 C2.63200019,1.96000014 2.8280002,1.76400013 3.08000022,1.76400013 C3.33200024,1.76400013 3.52800026,1.96000014 3.52800026,2.21200016 L3.52800026,2.64600019 L3.52800026,2.64600019 Z"/>
      </g>
    </g>
  </g>
</svg>
