<svg xmlns="http://www.w3.org/2000/svg" width="45" height="45" viewBox="0 0 45 45">
  <g fill="none" fill-rule="evenodd">
    <g fill="#65D48E">
      <circle cx="22.5" cy="22.5" r="22.5" opacity=".12"/>
      <circle cx="22.5" cy="22.5" r="18.947" opacity=".233"/>
    </g>
    <g opacity=".228" transform="rotate(-32 30.072 -2.158)">
      <circle cx="1.686" cy="26.496" r="1.184" fill="#005263"/>
      <circle cx="8.908" cy="1.194" r="1" fill="#005263"/>
      <circle cx="25.111" cy="11.654" r="1.184" fill="#005263"/>
      <circle cx="21.431" cy="22.837" r="1" fill="#47A395" transform="matrix(1 0 0 -1 0 45.674)"/>
    </g>
    <g fill="#005263" fill-rule="nonzero" opacity=".14" transform="translate(18 12)">
      <path d="M5.98050008,8.77500012 C6.91099293,8.77500012 7.6680001,8.01799294 7.6680001,7.08750009 C7.6680001,6.15700724 6.91099293,5.40000007 5.98050008,5.40000007 C5.05000723,5.40000007 4.29300006,6.15700724 4.29300006,7.08750009 C4.29300006,8.01799294 5.05000723,8.77500012 5.98050008,8.77500012 Z M5.5717277,6.88557258 C5.55593756,6.88567148 5.54076725,6.87929984 5.52960925,6.8678825 C5.51845124,6.85646517 5.51223636,6.84095461 5.51235442,6.82481937 C5.51261348,6.80891436 5.51911699,6.79378304 5.53040296,6.78282695 C5.54168892,6.77187086 5.55681032,6.76600934 5.57236784,6.76656007 L5.57301799,6.76656007 L6.18745539,6.77086308 C6.16011827,6.60012644 6.0172561,6.47376316 5.84797948,6.47059261 L5.57591864,6.46761832 C5.54273077,6.46728677 5.51606999,6.43956294 5.51632531,6.40564882 C5.51629638,6.38940382 5.52265788,6.37382855 5.53397966,6.36242453 C5.54530144,6.35102051 5.56063342,6.34474472 5.57652877,6.34500008 L5.84758939,6.34802322 L5.84758939,6.34824808 L6.52700133,6.35597511 C6.56062366,6.35590737 6.58793368,6.38370468 6.58800009,6.41806214 C6.58806626,6.4524196 6.56086371,6.48032674 6.52724138,6.48039448 L6.52659124,6.48039448 L6.16050937,6.47549866 C6.24296834,6.55241415 6.29560023,6.65707357 6.30879253,6.77036226 L6.52346054,6.77330589 C6.55682054,6.77421977 6.58327252,6.80235209 6.58283381,6.83645079 C6.58265754,6.87052311 6.55614681,6.89835395 6.52282039,6.8994526 L6.52216025,6.8994526 L6.30749224,6.89476119 C6.27462228,7.1301289 6.07705299,7.30476073 5.84438867,7.30409921 L5.83930754,7.30409921 L5.71820045,7.30277049 L6.28254666,7.85955563 C6.30639136,7.8830806 6.30705861,7.92190394 6.28403699,7.94627 C6.26101538,7.97063605 6.22302272,7.97131789 6.19917802,7.94779292 L5.52627753,7.28393331 C5.50863048,7.26647943 5.50317131,7.23979953 5.51249643,7.2165827 C5.52182156,7.19336586 5.54404888,7.17829794 5.568607,7.17854531 L5.84058782,7.18161159 C5.8418381,7.18161159 5.84312839,7.18178534 5.84437867,7.18178534 C6.01173494,7.1816413 6.15530119,7.05981408 6.18618511,6.8917358 L5.5717277,6.88557258 Z"/>
      <polygon stroke="#005263" stroke-width=".5" points="8.789 2.025 8.789 0 7.844 0 7.844 1.337 5.994 0 0 4.361 .527 5.103 5.994 1.134 11.462 5.103 12.002 4.361"/>
      <path d="M5.99400008,2.41650003 L5.99400008,2.41650003 L5.99400008,2.41650003 L5.99400008,2.41650003 L1.99800003,5.27850007 L1.99800003,10.4625001 L5.72400008,10.4625001 L6.00750008,10.4625001 L10.0035001,10.4625001 L10.0035001,5.27850007 L5.99400008,2.41650003 Z M6.02100008,9.16650012 C4.86000006,9.16650012 3.92850005,8.23500011 3.92850005,7.07400009 C3.92850005,5.91300008 4.86000006,4.98150007 6.02100008,4.98150007 C7.1820001,4.98150007 8.11350011,5.91300008 8.11350011,7.07400009 C8.11350011,8.23500011 7.16850009,9.16650012 6.02100008,9.16650012 Z"/>
    </g>
    <text fill="#005263" font-family="Muli-Bold, Muli" font-size="18" font-weight="bold">
      <tspan x="10.386" y="29">RS</tspan>
    </text>
  </g>
</svg>
