<svg width="28" height="32" viewBox="0 0 28 32" fill="none" xmlns="http://www.w3.org/2000/svg">
<g clip-path="url(#clip0_15_928)">
<path d="M9.6 16.2C10.7 15.1 11.3 13.7 11.2 12.2C11.2 11.6 11 10.9 10.8 10.3C10.5 9.60001 10.1 8.90001 9.6 8.20001C9.6 8.20001 9.6 8.20001 9.6 8.10001C8.6 6.70001 7.5 5.30001 6.3 4.00001L5.6 3.20001L5 4.00001C2.9 6.40001 0 9.70001 0 12.2C0 13.7 0.6 15.1 1.6 16.2C2.7 17.3 4.1 17.9 5.6 17.8C7.1 17.8 8.5 17.2 9.6 16.2Z" fill="#042b62"/>
<path d="M24.6 0.2L24.4 0L24.2 0.2C23 1.6 21.2 3.6 21.2 5C21.2 6.7 22.5999 8.1 24.2999 8.1C25.9999 8.1 27.4 6.7 27.4 5C27.5 3.6 25.9 1.6 24.6 0.2Z" fill="#042b62"/>
<path d="M13.9 4.79999C13.4 5.39999 12.8 5.99999 12.3 6.69999L11.4 7.69999C11.8 8.29999 12.1 8.89999 12.4 9.59999C12.8 10.4 13 11.2 13 12.1C13 14 12.2 15.9 10.9 17.3C9.5 18.7 7.7 19.5 5.7 19.4C5.2 19.4 4.8 19.4 4.4 19.3L3.9 19.2L3.7 20C3.6 20.5 3.5 21 3.5 21.5C3.5 24.3 4.6 27 6.6 28.9C8.6 30.8 11.2 31.9 14 31.9C16.8 31.9 19.4 30.8 21.4 28.9C23.3 26.9 24.4 24.3 24.4 21.5C24.4 16.9 19.3 11 15.6 6.69999C15 6.09999 14.4 5.39999 13.9 4.79999Z" fill="#042b62"/>
<path d="M17.4 19.3H17.3H16.4C16.4 19 16.2 18.7 16.1 18.5H17.4H17.5C17.5 18.5 17.6 18.4 17.5 18.4V17.9C17.5 17.8 17.4 17.7 17.3 17.7H12.8H12.7V17.8V18.5V18.6L12.8 18.7H13.6C14.4 18.7 14.8 18.9 15 19.3H12.8C12.7 19.3 12.6 19.4 12.6 19.5V20V20.1H12.7H15C14.9 20.4 14.7 20.6 14.4 20.8C14 21 13.6 21.1 13.3 21H12.7C12.6 21 12.5 21.1 12.5 21.2V22V22.1C13.2 22.8 14.1 23.9 15.2 25.2L15.3 25.3H16.4C16.5 25.3 16.5 25.3 16.6 25.2C16.6 25.1 16.6 25.1 16.6 25C15.5 23.7 14.7 22.7 14.1 22.1C14.6 22.1 15.2 21.8 15.6 21.5C16 21.2 16.2 20.7 16.3 20.2H17.2H17.3C17.3 20.2 17.4 20.1 17.3 20.1V19.6C17.5 19.4 17.4 19.4 17.4 19.3Z" fill="white"/>
</g>
<defs>
<clipPath id="clip0_15_928">
<rect width="27.5" height="32" fill="white"/>
</clipPath>
</defs>
</svg>
