<svg xmlns="http://www.w3.org/2000/svg" width="45" height="45" viewBox="0 0 45 45">
  <g fill="none" fill-rule="evenodd">
    <g fill="#65D48E">
      <circle cx="22.5" cy="22.5" r="22.5" opacity=".12"/>
      <circle cx="22.5" cy="22.5" r="18.947" opacity=".233"/>
    </g>
    <g opacity=".228" transform="rotate(-32 30.828 7.06)">
      <circle cx="1.915" cy="16.261" r="1.184" fill="#005263"/>
      <circle cx="12.212" cy="1.134" r="1" fill="#005263"/>
      <circle cx="26.508" cy="22.195" r="1.184" fill="#005263"/>
      <circle cx="29.893" cy="11.711" r="1" fill="#47A395" transform="matrix(1 0 0 -1 0 23.423)"/>
    </g>
    <path fill="#005263" fill-rule="nonzero" d="M10.0483774 4.66298119C11.3336795 4.66298119 12.3793325 3.61707314 12.3793325 2.33146509 12.3793325 1.04590804 11.3336795 0 10.0483774 0 8.76282035 0 7.71696331 1.04590804 7.71696331 2.33146509 7.71696331 3.61707314 8.76282035 4.66298119 10.0483774 4.66298119zM3.37008013 14.2737786C3.50645414 14.2737786 3.63441314 14.2209426 3.73034415 14.1250116L5.41130422 12.4441025C5.50723522 12.3481205 5.56007122 12.2201615 5.56007122 12.0838385 5.56007122 11.9475155 5.50723522 11.8195055 5.41130422 11.7235745L4.9196642 11.2318834C4.9432262 11.2117384 4.9663292 11.1908794 4.9884632 11.1687964 5.22010521 10.9371544 5.34342321 10.6261054 5.33766021 10.2909844 5.43323422 10.2275914 5.51814922 10.1474704 5.58735622 10.0531204L6.38815825 8.96121036C6.50382626 8.80351835 6.77142327 8.53439134 6.92840128 8.41780533L6.99230428 8.37037533 6.29829625 11.1367684C6.28972825 11.1709894 6.28488325 11.2047004 6.28212925 11.2380034L5.70863423 13.6758035C5.65906222 13.8863826 5.52534022 14.2547046 5.42818522 14.4484026L4.03644616 17.2196407C3.91170016 17.4680617 3.89114715 17.7501427 3.97856116 18.0140167 4.06597516 18.2778907 4.25095217 18.4919377 4.49937318 18.6166327 4.63824618 18.6864007 4.78691119 18.7236307 4.9412882 18.7272517 4.9493972 18.7275577 4.9575062 18.7275577 4.9656152 18.7275577 5.36193621 18.7275577 5.71857923 18.5076967 5.89636523 18.1537057L7.28820629 15.3823146C7.4568123 15.0463776 7.6487253 14.5175586 7.73466031 14.1521946L8.29183533 11.7838055 9.25726537 11.7838055C9.25772437 11.7842135 9.25808137 11.7846725 9.25854037 11.7849785L10.5915274 12.9427805 9.93219939 15.5802966C9.79307139 16.1370126 10.1327824 16.7031637 10.6894984 16.8423427 10.7726794 16.8630997 10.8577984 16.8736057 10.9425604 16.8736057 11.4205835 16.8735547 11.8354175 16.5492967 11.9514425 16.0850946L12.6355055 13.3486385C12.8006435 12.6881885 12.5474285 11.8847855 12.0334505 11.4383825L10.7382034 10.3132714 11.1823114 8.54270434C11.4467465 9.06060936 12.0041765 9.50645138 12.5640545 9.63961238L14.4459546 10.0872904C14.5212306 10.1052424 14.5982916 10.1142694 14.6751486 10.1142694 15.1337916 10.1142694 15.5283276 9.80225139 15.6346626 9.35549137 15.7605816 8.82600935 15.4322946 8.29275333 14.9028636 8.16678332L13.0388135 7.72338931C13.0110185 7.70916031 12.9569075 7.6646883 12.9376295 7.6401573L12.0231485 5.63978422C11.8629575 5.28931221 11.5103945 5.0628722 11.1249364 5.0628722 11.1107074 5.0628722 8.41321533 5.0628722 8.41321533 5.0628722 8.20794033 5.0628722 7.99629032 5.16635121 7.87358431 5.25738621L5.75162723 6.83257227C5.43797722 7.06538728 5.0272232 7.4785893 4.79619319 7.79366731L3.99544216 8.88552635C3.97412416 8.91459635 3.95489716 8.94478836 3.93699616 8.97559236 3.63426014 8.99048436 3.35447413 9.11273136 3.14353812 9.32366737 3.12135312 9.34585237 3.10054512 9.36895537 3.08040012 9.39251737L2.5887601 8.90087735C2.4928291 8.80494635 2.36487009 8.75211035 2.22849609 8.75211035 2.09212208 8.75211035 1.96416308 8.80494635 1.86823207 8.90087735L.187323007 10.5818374C.0913920036 10.6778194.0385050015 10.8057784.0385050015 10.9421014.0385050015 11.0784244.0913410036 11.2064344.187323007 11.3023654L3.00976512 14.1248586C3.10574712 14.2209426 3.23370613 14.2737786 3.37008013 14.2737786zM3.57168314 9.75186339C3.63946214 9.68403338 3.72264315 9.63507338 3.81459615 9.60697238 3.81515715 9.61115438 3.81525915 9.61528538 3.81587115 9.61941638 3.85595715 9.87997539 3.99513616 10.1093734 4.20775517 10.2653314 4.35820517 10.3756444 4.53288018 10.4399044 4.71668419 10.4535214 4.69210219 10.5628654 4.63931718 10.6617544 4.56047118 10.7406004 4.53818418 10.7628364 4.51390818 10.7825224 4.48856118 10.8007294L3.51160514 9.82377339C3.52976114 9.79852839 3.54934514 9.77415039 3.57168314 9.75186339zM17.2839517 20.5447388C17.2839517 20.3018258 17.1014737 20.0974688 16.8596827 20.0693678L16.3227546 20.0065358C16.2430416 19.7432228 16.1335446 19.4906708 15.9966096 19.2544898L16.3314246 18.8333317C16.4822827 18.6424387 16.4666767 18.3690787 16.2951636 18.1975147L15.6226776 17.5249267C15.5324076 17.4347077 15.4123536 17.3850847 15.2845986 17.3850847 15.1771416 17.3850847 15.0713676 17.4219067 14.9867586 17.4887677L14.5380606 17.8440847C14.3160066 17.7261217 14.0830386 17.6311597 13.8441546 17.5612897L13.7778545 16.9875907C13.7499065 16.7470747 13.5456515 16.5646987 13.3023815 16.5632707L12.3516905 16.5632707C12.1087265 16.5632707 11.9043695 16.7456977 11.8763705 16.9875907L11.8101725 17.5563427C11.5584365 17.6279977 11.3147074 17.7268357 11.0842384 17.8507147L10.6268704 17.4886657C10.5423124 17.4218557 10.4365384 17.3850847 10.3290814 17.3850847 10.2012754 17.3850847 10.0812214 17.4347587 9.9910024 17.5249777L9.31836337 18.1975657C9.14690136 18.3690787 9.13129536 18.6424897 9.28225537 18.8335357L9.62982038 19.2718808C9.49171238 19.5152528 9.38155237 19.7748428 9.30183937 20.0448878L8.75287535 20.1088418C8.51230834 20.1368408 8.32988133 20.3410448 8.32850433 20.5842638L8.32850433 21.5349549C8.32850433 21.7780209 8.51103334 21.9823269 8.75272235 22.0102239L9.29220037 22.0741269C9.36859837 22.3449879 9.47411738 22.6025379 9.60641138 22.8412689L9.28322437 23.2485039C9.13241736 23.4394989 9.14802336 23.7129609 9.31953637 23.8844229L9.9921244 24.55696C10.0823434 24.64723 10.2023974 24.696853 10.3302034 24.696853 10.4376604 24.696853 10.5433834 24.660031 10.6279414 24.593221L11.0292094 24.275899C11.2632484 24.40804 11.5152905 24.514375 11.7797255 24.592609L11.8380695 25.093276C11.8659155 25.333792 12.0700175 25.516168 12.3132875 25.517596L13.2617855 25.517596C13.5048005 25.517596 13.7091575 25.335169 13.7371565 25.093225L13.7931545 24.609439C14.0713086 24.532939 14.3403336 24.422728 14.5941606 24.281356L14.9855346 24.590977C15.0700926 24.657736 15.1758666 24.694558 15.2833236 24.694558 15.4111806 24.694558 15.5312346 24.644833 15.6214026 24.554614L16.2939906 23.8821279C16.4655547 23.7105639 16.4811607 23.4372039 16.3302516 23.2463109L16.0207326 22.8549879C16.1659806 22.5947859 16.2785376 22.3174479 16.3558536 22.0291449L16.8595297 21.9709029C17.0999437 21.9430569 17.2824217 21.7389039 17.2839517 21.4955319L17.2839517 20.5447388zM13.8751116 22.1368569C13.5930815 22.4188869 13.2173135 22.5742329 12.8169125 22.5742329 12.4165625 22.5742329 12.0407945 22.4188869 11.7588155 22.1368569 11.4767855 21.8548269 11.3214394 21.4791099 11.3214394 21.0787598 11.3214394 20.6784098 11.4767345 20.3026418 11.7588155 20.0206118 12.0407945 19.7385818 12.4166135 19.5832358 12.8169125 19.5832358 13.2172625 19.5832358 13.5930815 19.7385818 13.8751116 20.0206118 14.1571416 20.3026418 14.3124876 20.6784608 14.3124876 21.0787598 14.3124876 21.4790589 14.1571416 21.8547759 13.8751116 22.1368569zM8.64541834 22.7097399C8.62415134 22.4550969 8.41576533 22.2577779 8.16102032 22.2506889L7.76526031 22.2380409C7.67825431 22.0228209 7.5681453 21.8173929 7.4372793 21.6260409L7.6540293 21.2982128C7.79463631 21.0864608 7.75439731 20.8020338 7.5600873 20.6362838L7.02795328 20.1876368C6.93712228 20.1113918 6.82181127 20.0693678 6.70328727 20.0693678 6.57527726 20.0693678 6.45354026 20.1175118 6.36041425 20.2048748L6.05324124 20.4930248C5.86066523 20.4107108 5.65717522 20.3471648 5.44700422 20.3036618L5.36219121 19.8859718C5.31170121 19.6389788 5.0836292 19.4639468 4.82801719 19.4854688L4.13492716 19.5439148C3.88033515 19.5652328 3.68301615 19.7736698 3.67602915 20.0283128L3.66215715 20.4503378C3.45234314 20.5306118 3.25405513 20.6312858 3.07152612 20.7502688L2.71172111 20.5114358C2.6295091 20.4568148 2.5337311 20.4279488 2.4346381 20.4279488 2.28612609 20.4279488 2.14597809 20.4924638 2.04974108 20.6052758L1.60109406 21.1374608C1.43707806 21.3327908 1.44452406 21.6197679 1.61828106 21.8048979L1.89959708 22.1052369C1.80086107 22.3213749 1.72640107 22.5484269 1.67769607 22.7817519L1.28020205 22.8629949C1.03065904 22.9140459.858534034 23.1435969.879801035 23.3970669L.938247037 24.090259C.959718038 24.3448 1.16810405 24.542119 1.42284906 24.549208L1.81825207 24.560785C1.90235108 24.783247 2.00985908 24.993214 2.13843008 25.186402L1.93086008 25.500358C1.79020207 25.712059 1.83039007 25.996537 2.02480208 26.162338L2.5569871 26.6109341C2.64786911 26.6872301 2.76318011 26.7292541 2.88170411 26.7292541 3.00966312 26.7292541 3.13140012 26.6811101 3.22442413 26.5937471L3.49385714 26.340991C3.70433415 26.4364631 3.92490916 26.5085261 4.15099216 26.5557521L4.22254517 26.9116811C4.26757817 27.1474031 4.47402618 27.3185591 4.71352219 27.3185591L4.71357319 27.3185591C4.72749619 27.3185591 4.74152119 27.3179471 4.75575019 27.3167741L5.44868722 27.2582771C5.70322823 27.2370101 5.90064923 27.0286241 5.90778923 26.7739811L5.91911124 26.4265181C6.14769324 26.342164 6.36750325 26.229709 6.57369626 26.091601L6.87316827 26.289583C6.95538028 26.344204 7.05115828 26.37307 7.15025128 26.37307 7.29876329 26.37307 7.4389623 26.308555 7.5351483 26.195743L7.98384632 25.663558C8.14776032 25.468228 8.14036532 25.181251 7.96671032 24.996121L7.72206331 24.73495C7.82656231 24.502033 7.90204231 24.259324 7.94692232 24.011923L8.30580933 23.939248C8.55540334 23.8883499 8.72757935 23.6587479 8.70626135 23.4048699L8.64541834 22.7097399zM5.78375723 24.260752C5.54013022 24.549973 5.18256921 24.715825 4.80287419 24.715825 4.50044418 24.715825 4.20699017 24.608419 3.97636816 24.413242 3.71473815 24.192922 3.55470014 23.8831989 3.52583414 23.5412949 3.49691714 23.1993399 3.60269114 22.8671259 3.82377615 22.6058019 4.06735216 22.3166319 4.42486218 22.1507799 4.80465919 22.1507799 5.1070382 22.1507799 5.40054321 22.2581859 5.63116522 22.4533119 5.89279523 22.6737339 6.05278224 22.9835079 6.08164824 23.3254629 6.11056524 23.6673669 6.00479124 23.999479 5.78375723 24.260752z" transform="translate(14 9)"/>
  </g>
</svg>
