<svg xmlns="http://www.w3.org/2000/svg" width="45" height="45" viewBox="0 0 45 45">
  <g fill="none" fill-rule="evenodd">
    <g fill="#65D48E">
      <circle cx="22.5" cy="22.5" r="22.5" opacity=".12"/>
      <circle cx="22.5" cy="22.5" r="18.947" opacity=".233"/>
    </g>
    <g opacity=".228" transform="rotate(-32 31.072 1.33)">
      <circle cx="1.99" cy="25.437" r="1.184" fill="#005263"/>
      <circle cx="2.958" cy="4.481" r="1" fill="#005263"/>
      <circle cx="19.054" cy="1.903" r="1.184" fill="#005263"/>
      <circle cx="26.878" cy="20.077" r="1" fill="#47A395"/>
    </g>
    <g fill="#005263" fill-rule="nonzero" transform="translate(11 12)">
      <path d="M5.19015012 8.7007202L1.67328004 12.3606003 1.67328004 18.5358604C1.67328004 18.7097404 1.81419004 18.8508604 1.98828005 18.8508604L6.25842014 18.8508604C6.43230015 18.8508604 6.57342015 18.7097404 6.57342015 18.5358604L6.57342015 9.06318021 5.58852013 8.7007202 5.19015012 8.7007202zM13.8883503 11.5710003L9.61821022 11.5710003C9.44433021 11.5710003 9.30321021 11.7121203 9.30321021 11.8860003L9.30321021 18.5358604C9.30321021 18.7097404 9.44433021 18.8508604 9.61821022 18.8508604L13.8883503 18.8508604C14.0624403 18.8508604 14.2033503 18.7097404 14.2033503 18.5358604L14.2033503 11.8860003C14.2033503 11.7121203 14.0624403 11.5710003 13.8883503 11.5710003zM21.3620405 4.93290011C21.1988705 5.01816011 21.0151205 5.06331011 20.8307405 5.06331011 20.5627805 5.06331011 20.3013305 4.96881011 20.0957405 4.79661011L19.3200004 4.14813009 16.5133504 7.20993016 16.5133504 18.5360704C16.5133504 18.7099504 16.6544704 18.8510704 16.8283504 18.8510704L21.0984905 18.8510704C21.2725805 18.8510704 21.4134905 18.7099504 21.4134905 18.5360704L21.4134905 4.90077011C21.3958505 4.91127011 21.3801005 4.92345011 21.3620405 4.93290011z"/>
      <path d="M12.1373703,10.0997402 C12.3776103,10.1877302 12.6464103,10.1224202 12.8194503,9.93426023 L19.2956404,2.86923007 L20.8112105,4.13595009 C20.8853405,4.1976901 20.9890805,4.2092401 21.0745505,4.16451009 C21.1600205,4.11957009 21.2102105,4.02843009 21.2016005,3.93204009 L20.8731605,0.259350006 C20.8616105,0.128100003 20.7459005,0.0312900007 20.6146505,0.043260001 L16.9417504,0.371490008 C16.8455704,0.380100009 16.7640904,0.44583001 16.7355304,0.537600012 C16.7256604,0.568260013 16.7225104,0.599340014 16.7252404,0.630000014 C16.7307004,0.691740016 16.7603104,0.750120017 16.8098704,0.791490018 L18.3279604,2.06052005 L12.1758003,8.7714902 L5.15235012,6.18723014 C4.91757011,6.10113014 4.65402011,6.16182014 4.4807701,6.34158014 L0.175770004,10.8215102 C-0.0653100015,11.0724603 -0.0573300013,11.4714603 0.193410004,11.7123303 C0.315840007,11.8301403 0.473130011,11.8881003 0.630000014,11.8881003 C0.795480018,11.8881003 0.960540022,11.8232103 1.08444002,11.6946903 L5.10405012,7.51149017 L12.1373703,10.0997402 Z"/>
    </g>
  </g>
</svg>
