<svg width="32" height="31" viewBox="0 0 32 31" fill="none" xmlns="http://www.w3.org/2000/svg">
<g clip-path="url(#clip0_15_473)">
<path d="M28.7 5.79999H31.9V17.4H28.7V5.79999Z" fill="#042b62"/>
<path d="M26.6 6.40002H28.7V16H26.6V6.40002Z" fill="#042b62"/>
<path d="M26.6 8.00002H24.5L20.8 6.40002H17V16H22.8L24.4 14.4H26.5L26.6 8.00002Z" fill="#E2E2E2" stroke="#939393" stroke-width="0.25"/>
<path d="M14.3 0L2.69995 6.2L12.3 23.7L24 17.4L14.3 0Z" fill="#042b62"/>
<path d="M12.4 15.3L8.69995 17.3L6.69995 13.6L10.4 11.6L12.4 15.3Z" fill="#ccd5e0"/>
<path d="M14.3 0L6.30005 4.2L15.9 21.7L23.9 17.5L14.3 0Z" fill="white"/>
<path d="M10.1 2.20001C11.2 4.30001 10.5 6.80001 8.40002 7.90001L6.40002 4.20001L10.1 2.20001Z" fill="#042b62"/>
<path d="M14.3 4.2C12.7 4.2 11.3 3.3 10.5 2L14.3 0L16.3 3.7C15.7 4.1 15 4.2 14.3 4.2Z" fill="#042b62"/>
<path d="M19.7 19.8L15.9 21.8L13.9 18.1C16 16.9 18.6 17.7 19.7 19.8Z" fill="#042b62"/>
<path d="M23.9 17.5L20.1 19.5C19 17.4 19.8 14.9 21.8 13.8L23.9 17.5Z" fill="#042b62"/>
<path d="M20.4 11L12.4 15.2L10.4 11.5L18.4 7.29999L20.4 11Z" fill="#ccd5e0"/>
<path d="M17 10.6C16.4 11.2 16.4 12.1 17 12.7C17.6 13.3 18.5 13.3 19.1 12.7L21.2 10.6C22.4 11.8 24.3 11.8 25.4 10.6L26.5 9.50002V8.00002H24.4L20.7 6.40002H17.8L19 8.60002L17 10.6Z" fill="#EAEAEA" stroke="#939393" stroke-width="0.25"/>
<path d="M0 21.2H2.1V30.8H0V21.2Z" fill="#042b62"/>
<path d="M2.09998 22.3H4.19998V29.7H2.09998V22.3Z" fill="#042b62"/>
<path d="M10.6 23.9L11.1 24.4H14.3C15.2 24.3 16 25 16 25.8C16.1 26.7 15.4 27.5 14.6 27.5H22.8C23.7 27.6 24.3 28.3 24.3 29.2C24.2 30 23.6 30.6 22.8 30.7H11.3C8.80005 30.7 6.40005 30 4.30005 28.6V23.8C6.00005 22.1 8.90005 22.1 10.6 23.9Z" fill="#EAEAEA" stroke="#939393" stroke-width="0.25"/>
<path d="M9.59998 28.1C9.59998 28.4 9.79998 28.6 10.1 28.6H14.3C14.6 28.6 14.8 28.4 14.8 28.1C14.8 27.8 14.6 27.6 14.3 27.6H10.1C9.79998 27.6 9.59998 27.9 9.59998 28.1Z" fill="#E2E2E2"/>
</g>
<defs>
<clipPath id="clip0_15_473">
<rect width="31.9" height="30.8" fill="white"/>
</clipPath>
</defs>
</svg>
