<svg width="31" height="31" viewBox="0 0 31 31" fill="none" xmlns="http://www.w3.org/2000/svg">
<g clip-path="url(#clip0_15_490)">
<path d="M26.4 8.6C28.7748 8.6 30.7 6.67482 30.7 4.3C30.7 1.92518 28.7748 0 26.4 0C24.0252 0 22.1 1.92518 22.1 4.3C22.1 6.67482 24.0252 8.6 26.4 8.6Z" fill="#042b62"/>
<path d="M30.7 4.29999C30.7 6.69999 28.8 8.59999 26.4 8.59999C25.4 8.59999 24.5 8.29999 23.7 7.59999C24.2 7.79999 24.8 7.99999 25.4 7.99999C27.8 7.99999 29.7 6.09999 29.7 3.69999C29.7 2.39999 29.1 1.19999 28.1 0.299988C29.7 1.09999 30.7 2.59999 30.7 4.29999Z" fill="#042b62"/>
<path d="M28.6 2.50002C28.3 2.20002 27.8 2.20002 27.4 2.50002L26 4.10002C26 4.20002 25.9 4.20002 25.8 4.10002L25.3 3.60002C25 3.20002 24.5 3.20002 24.1 3.50002C23.7 3.80002 23.7 4.30002 24 4.70002C24 4.70002 24 4.80002 24.1 4.80002L25.1 5.90002C25.5 6.30002 26.1 6.30002 26.5 5.90002L28.5 3.70002C28.9 3.40002 28.9 2.90002 28.6 2.50002Z" fill="white"/>
<path d="M28.7 3.70003L26.7 5.90003C26.3 6.30003 25.6999 6.30003 25.2999 5.90003L25.2 5.80003C25.5 5.80003 25.7 5.70003 25.9 5.50003L27.9 3.30003C28.2 3.00003 28.2 2.60003 28 2.30003C28.4 2.20003 28.9 2.60003 28.9 3.00003C28.9 3.30003 28.8 3.50003 28.7 3.70003Z" fill="white"/>
<path d="M24.8001 7.99999L21.8001 11.7C21.7001 11.8 21.8001 11.9 21.8001 11.9H21.9001H23.0001C23.1001 11.9 23.2001 12 23.2001 12.1V18.5H26.7001V12.1C26.7001 12 26.8001 11.9 26.9001 11.9H28.0001C28.1001 11.9 28.2001 11.8 28.2001 11.7V11.6L25.1001 7.99999C25.0001 7.89999 24.9001 7.89999 24.8001 7.99999Z" fill="#EAEAEA" stroke="#939393" stroke-width="0.25"/>
<path d="M28 12H26.9C26.8 12 26.7001 12.1 26.7001 12.2V18.6H25.5V11.6C25.5 11.5 25.6001 11.4 25.7001 11.4H26C26.1 11.4 26.2001 11.3 26.2001 11.2V11.1L24.3 8.79999L24.8 7.99999C24.9 7.89999 25 7.89999 25 7.99999L28 11.7C28.1 11.8 28.1 11.9 28.1 11.9C28.1 12 28 12 28 12Z" fill="#E2E2E2"/>
<path d="M21.1 15.4H20C19.9 15.4 19.8 15.5 19.8 15.6V22H18.5V15C18.5 14.9 18.6001 14.8 18.7001 14.8H19C19.1 14.8 19.2001 14.7 19.2001 14.6V14.5L17.3 12.2L17.9 11.4C18 11.3 18.1 11.3 18.1 11.4L21.1 15.1C21.2 15.2 21.2 15.3 21.1 15.4Z" fill="#F9C510"/>
<path d="M23.2 15.2H26.7V28.4H23.2V15.2Z" fill="#042b62"/>
<path d="M25.5 15.2H26.7V28.4H25.5V15.2Z" fill="#042b62"/>
<path d="M17.9 11.4L14.9 15.1C14.8 15.2 14.8 15.3 14.9 15.3H15H16.1C16.2 15.3 16.3 15.4 16.3 15.5V22H19.8V15.5C19.8 15.4 19.9 15.3 20 15.3H21.1C21.2 15.3 21.3 15.2 21.3 15.1V15L18.3 11.3C18.3 11.2 18.2 11.1 18.1 11.1C18 11.1 17.9 11.3 17.9 11.4Z" fill="#EAEAEA" stroke="#939393" stroke-width="0.25"/>
<path d="M21.1 15.4H20C19.9 15.4 19.8 15.5 19.8 15.6V22H18.5V15C18.5 14.9 18.6001 14.8 18.7001 14.8H19C19.1 14.8 19.2001 14.7 19.2001 14.6V14.5L17.3 12.2L17.9 11.4C18 11.3 18.1 11.3 18.1 11.4L21.1 15.1C21.2 15.2 21.2 15.3 21.1 15.4Z" fill="#E2E2E2"/>
<path d="M16.3 18.6H19.8V28.4H16.3V18.6Z" fill="#042b62"/>
<path d="M12.9 28.4H9.40002V22.2C9.40002 22.1 9.50003 22 9.60003 22H12.7C12.8 22 12.9 22.1 12.9 22.2V28.4Z" fill="#042b62"/>
<path d="M6.1 28.4H2.5V25.1C2.5 25 2.6 24.9 2.7 24.9H5.8C5.9 24.9 6 25 6 25.1V28.4H6.1Z" fill="#042b62"/>
<path d="M18.6 18.6H19.8V28.4H18.6V18.6Z" fill="#042b62"/>
<path d="M12.9 22.2V28.4H11.7V22.2C11.7 22.1 11.6 22 11.5 22H12.7C12.8 21.9 12.9 22 12.9 22.2Z" fill="#042b62"/>
<path d="M6.09998 25.1V28.4H4.79998V25.1C4.79998 25 4.69998 24.9 4.59998 24.9H5.79998C5.99998 24.9 6.09998 25 6.09998 25.1Z" fill="#042b62"/>
<path d="M30.7 28.9V30.3C30.7 30.6 30.5 30.8 30.2 30.8H0.400024C0.200024 30.8 -0.0999756 30.6 -0.0999756 30.4V29C-0.0999756 28.8 0.100024 28.5 0.300024 28.5H30.1C30.5 28.4 30.7 28.6 30.7 28.9Z" fill="#E2E2E2" stroke="#939393" stroke-width="0.25"/>
<path d="M30.7001 28.9V30.3C30.7001 30.6 30.5001 30.8 30.2001 30.8H28.8C29.1 30.8 29.3 30.6 29.3 30.3V28.9C29.3 28.6 29.1 28.4 28.8 28.4H30.2001C30.5001 28.4 30.7001 28.6 30.7001 28.9Z" fill="#EAEAEA"/>
</g>
<defs>
<clipPath id="clip0_15_490">
<rect width="30.7" height="30.8" fill="white"/>
</clipPath>
</defs>
</svg>
