<svg width="31" height="30" viewBox="0 0 31 30" fill="none" xmlns="http://www.w3.org/2000/svg">
<g clip-path="url(#clip0_15_384)">
<path d="M18.4 24.7L11.4 17.7C11 17.3 11 16.6 11.4 16.1C11.6 15.9 11.8 15.8 12 15.8C12.4 15.7 12.7 15.8 13 16.1L11.2 14.3C11 14.1 10.9 13.8 10.9 13.5C10.9 13.4 10.9 13.4 10.9 13.3C10.9 13.1 11.1 12.9 11.2 12.7C11.4 12.5 11.6 12.4 11.8 12.4C12.1 12.3 12.4 12.4 12.7 12.6L12 12C11.8 11.8 11.7 11.5 11.7 11.2C11.7 11.1 11.7 11.1 11.7 11C11.7 10.8 11.9 10.6 12 10.4C12.2 10.2 12.4 10.1 12.6 10.1C13 10 13.3 10.2 13.6 10.4L14.4 11.2C14.1 10.9 14 10.6 14.1 10.2C14.1 10 14.2 9.8 14.4 9.6C14.8 9.2 15.5 9.2 16 9.6L20.5 14.1C21.3 13.3 22.5 13.3 23.3 14C23.3 14 23.3 14 23.4 14.1L25.5 16.2C25.9 16.6 26.1 17.2 26.1 17.7V19C26.1 19.6 26.3 20.2 26.8 20.6L27.3 21.1L21.9 26.5L21.3 26C20.9 25.6 20.4 25.4 19.8 25.3C19.3 25.3 18.8 25.1 18.4 24.7Z" fill="#EAEAEA" stroke="#939393" stroke-width="0.25"/>
<path d="M21.5 26.9L27.6 20.8C27.8 20.6 28.1 20.6 28.3 20.8L30.5 23C30.7 23.2 30.7 23.5 30.5 23.7L24.4 29.8C24.2 30 23.9 30 23.7 29.8L21.5 27.6C21.3 27.5 21.3 27.1 21.5 26.9Z" fill="#ccd5e0"/>
<path d="M27.8 23.6C28 23.8 28.3 23.8 28.4 23.6C28.6 23.4 28.6 23.1 28.4 23C28.2 22.8 27.9 22.8 27.8 23C27.7 23.1 27.6 23.4 27.8 23.6Z" fill="white"/>
<path d="M22 15.7L20.4 14.1C20.6 13.9 20.9 13.7 21.2 13.6L22.7 15C22.9 15.2 22.8 15.5 22.6 15.7C22.4 15.8 22.2 15.8 22 15.7Z" fill="#E2E2E2"/>
<path d="M12.3 24.7L19.3 17.7C19.7 17.3 19.7 16.6 19.3 16.1C19.1 15.9 18.9 15.8 18.7 15.8C18.3 15.7 18 15.8 17.7 16.1L19.5 14.3C19.8 14.1 19.9 13.7 19.8 13.3C19.8 13.1 19.7 12.9 19.5 12.7C19.1 12.3 18.5 12.3 18 12.6L18.7 11.9C18.9 11.7 19 11.4 19 11.1C19 11 19 11 19 10.9C19 10.7 18.9 10.5 18.7 10.3C18.3 9.9 17.6 9.9 17.1 10.3L16.3 11.1C16.8 10.7 16.8 10 16.4 9.5C16 9 15.3 9 14.8 9.4L14.7 9.5L10.2 14C10 13.8 9.70002 13.6 9.40002 13.5C8.70002 13.2 7.80002 13.4 7.30002 14L5.20002 16.1C4.80002 16.5 4.60002 17.1 4.60002 17.6V18.9C4.60002 19.5 4.40002 20.1 3.90002 20.5L3.40002 21L8.80002 26.4L9.40002 26C9.80002 25.6 10.3 25.4 10.9 25.3C11.5 25.3 12 25 12.3 24.7Z" fill="#EAEAEA" stroke="#939393" stroke-width="0.25"/>
<path d="M9.19999 26.9L3.09999 20.8C2.89999 20.6 2.59999 20.6 2.39999 20.8L0.199988 23C-1.22041e-05 23.2 -1.22041e-05 23.5 0.199988 23.7L6.29999 29.8C6.49999 30 6.79999 30 6.99999 29.8L9.19999 27.6C9.29999 27.5 9.19999 27.2 9.19999 26.9Z" fill="#042b62"/>
<path d="M7.1 27.8C7.3 27.6 7.3 27.3 7.1 27.1C6.9 26.9 6.6 26.9 6.4 27.1C6.2 27.3 6.2 27.6 6.4 27.8C6.6 27.9 6.9 27.9 7.1 27.8Z" fill="white"/>
<path d="M8.69998 15.7L10.3 14.1C10.1 13.9 9.79998 13.7 9.49998 13.6L7.99998 15C7.79998 15.2 7.79998 15.5 7.99998 15.7C8.19998 15.9 8.49998 15.9 8.69998 15.7Z" fill="#E2E2E2"/>
<path d="M19.8 7.9V17.8C19.8 18.4 19.3 18.9 18.7 18.9C18.5 18.9 18.2 18.8 18.1 18.7C17.8 18.5 17.6 18.2 17.6 17.8V20.3C17.6 20.6 17.5 20.9 17.3 21.1L17.2 21.2C16.8 21.5 16.3 21.5 15.9 21.2C15.6 21 15.5 20.7 15.4 20.4V21.4C15.4 21.7 15.3 22 15.1 22.2L15 22.3C14.8 22.4 14.6 22.5 14.4 22.5C14.2 22.5 13.9 22.4 13.7 22.3C13.4 22.1 13.2 21.7 13.2 21.4V20.3C13.2 20.7 13 21 12.7 21.2C12.5 21.3 12.3 21.4 12 21.4C11.4 21.4 10.9 20.9 10.9 20.3V13.9C10.6 13.9 10.3 13.8 9.99999 13.7C9.29999 13.4 8.79999 12.7 8.79999 11.9V8.9C8.79999 8.3 8.99999 7.8 9.39999 7.4L10.3 6.5C10.7 6.1 11 5.5 11 4.8V4.1H18.6V5C18.6 5.6 18.8 6.1 19.2 6.5C19.6 6.9 19.8 7.4 19.8 7.9Z" fill="#FDDEC4"/>
<path d="M19.3 16.1C19.1 15.9 18.9 15.8 18.7 15.8C18.3 15.7 18 15.8 17.7 16.1L19.5 14.3C19.8 14.1 19.9 13.7 19.8 13.3C19.8 13.1 19.7 12.9 19.5 12.7C19.1 12.3 18.5 12.3 18 12.6L18.7 11.9C18.9 11.7 19 11.4 19 11.1C19 11 19 11 19 10.9C19 10.7 18.9 10.5 18.7 10.3C18.3 9.9 17.6 9.9 17.1 10.3L16.3 11.1C16.8 10.7 16.8 10 16.4 9.5C16 9 15.3 9 14.8 9.4L14.7 9.5L10.2 14C9.99999 13.8 9.69999 13.6 9.39999 13.5C9.09999 13.4 8.69999 13.4 8.29999 13.4C8.59999 13.8 8.99999 14.2 9.49999 14.4C9.59999 14.5 9.79999 14.5 9.89999 14.6V20.2C9.89999 21.3 10.8 22.2 11.9 22.2C12 22.2 12.2 22.2 12.3 22.2C12.5 22.5 12.7 22.8 12.9 23C13.1 23.1 13.3 23.2 13.5 23.3L19.2 17.6C19.7 17.2 19.7 16.5 19.3 16.1Z" fill="#E2E2E2"/>
<path d="M20.8 17.8V13.9C20.7 14 20.6 14 20.5 14.1L16 9.6C15.6 9.2 14.9 9.2 14.4 9.6C14.2 9.8 14.1 10 14.1 10.2C14 10.6 14.1 10.9 14.4 11.2L13.6 10.4C13.3 10.1 13 10 12.6 10.1C12.4 10.1 12.2 10.2 12 10.4C11.8 10.6 11.7 10.8 11.7 11C11.7 11.1 11.7 11.1 11.7 11.2C11.7 11.5 11.8 11.8 12.1 12L12.8 12.7C12.6 12.5 12.2 12.4 11.9 12.5C11.7 12.5 11.5 12.6 11.3 12.8C11.1 13 11 13.2 11 13.4C11 13.5 11 13.5 11 13.6C11 13.9 11.1 14.2 11.3 14.4L13.1 16.2C12.8 15.9 12.5 15.8 12.1 15.9C11.9 15.9 11.7 16 11.5 16.2C11.1 16.6 11.1 17.3 11.5 17.8L16.2 22.5C16.3 22.5 16.5 22.5 16.6 22.5C17 22.5 17.5 22.4 17.8 22.1L18 21.9C18.4 21.5 18.6 21 18.6 20.5V20H18.8C19.8 19.9 20.7 19 20.8 17.8Z" fill="#E2E2E2"/>
<path d="M19.8 7.9V17.8C19.8 18.4 19.3 18.9 18.7 18.9C18.5 18.9 18.3 18.8 18.1 18.7C17.8 18.5 17.6 18.2 17.6 17.8V20.3C17.6 20.6 17.5 20.9 17.3 21.1L17.2 21.2C16.8 21.5 16.3 21.5 15.9 21.2C15.6 21 15.5 20.7 15.4 20.4V21.4C15.4 21.7 15.3 22 15.1 22.2L15 22.3C14.8 22.4 14.6 22.5 14.4 22.5C14.2 22.5 13.9 22.4 13.7 22.3C13.4 22.1 13.2 21.7 13.2 21.4V20.3C13.2 20.7 13 21 12.7 21.2C12.5 21.3 12.3 21.4 12 21.4C11.4 21.4 10.9 20.9 10.9 20.3V13.9C10.6 13.9 10.3 13.8 9.99999 13.7C9.29999 13.4 8.79999 12.7 8.79999 11.9V8.9C8.79999 8.3 8.99999 7.8 9.39999 7.4L10.3 6.5C10.6 6.2 10.8 5.9 10.9 5.5C11 5.2 11.1 5 11.1 4.8V4.1H18.7V5C18.7 5.2 18.7 5.4 18.8 5.6C18.9 6 19.1 6.3 19.3 6.6C19.6 7 19.8 7.4 19.8 7.9Z" fill="#EAEAEA" stroke="#939393" stroke-width="0.25"/>
<path d="M19.8 7.9V17.8C19.8 18.4 19.3 18.9 18.7 18.9C18.5 18.9 18.3 18.8 18.1 18.7V9.2C18 9.1 18 9.1 18 9C17.6 7 15.8 5.5 13.7 5.5H11C11.1 5.3 11.1 5 11.1 4.8V4.1H18.7V5C18.7 5.2 18.7 5.4 18.8 5.6C18.9 6 19.1 6.3 19.3 6.6C19.6 7 19.8 7.4 19.8 7.9Z" fill="#E2E2E2" stroke="#939393" stroke-width="0.25"/>
<path d="M19.2 4.1H10.5C10.2 4.1 10 3.9 10 3.6V0.5C10 0.2 10.2 0 10.5 0H19.2C19.5 0 19.7 0.2 19.7 0.5V3.6C19.7 3.9 19.5 4.1 19.2 4.1Z" fill="#042b62"/>
<path d="M12.5 2.1C12.5 1.8 12.3 1.6 12 1.6C11.7 1.6 11.5 1.8 11.5 2.1C11.5 2.4 11.7 2.6 12 2.6C12.3 2.5 12.5 2.3 12.5 2.1Z" fill="white"/>
<path d="M18.1 12.6V18.7C17.8 18.5 17.6 18.2 17.6 17.8V20.3C17.6 20.6 17.5 20.9 17.3 21.1L17.2 21.2V12.6C17.2 12.3 17.3 12.1 17.6 12.1C17.9 12.1 18.1 12.2 18.1 12.5C18.1 12.6 18.1 12.6 18.1 12.6Z" fill="#E2E2E2"/>
<path d="M15.8 12.6V21.2C15.5 21 15.4 20.7 15.3 20.4V21.4C15.3 21.7 15.2 22 15 22.2L14.9 22.3V12.5C14.9 12.2 15 12 15.3 12C15.6 12 15.8 12.1 15.8 12.4C15.8 12.6 15.8 12.6 15.8 12.6Z" fill="#E2E2E2"/>
<path d="M13.6 12.6V22.3C13.3 22.1 13.1 21.7 13.1 21.4V20.3C13.1 20.7 12.9 21 12.6 21.2V12.6C12.6 12.3 12.8 12.1 13.1 12.1C13.4 12.1 13.6 12.4 13.6 12.6Z" fill="#E2E2E2"/>
<path d="M10.9 11.7V13.9C10.6 13.9 10.3 13.8 10 13.7V11.7C10 11.4 10.2 11.2 10.5 11.2C10.7 11.3 10.9 11.5 10.9 11.7Z" fill="#E2E2E2"/>
</g>
<defs>
<clipPath id="clip0_15_384">
<rect width="30.7" height="30" fill="white"/>
</clipPath>
</defs>
</svg>
