<?xml version="1.0" encoding="utf-8"?>
<!-- Generator: Adobe Illustrator 26.5.1, SVG Export Plug-In . SVG Version: 6.00 Build 0)  -->
<svg version="1.1" id="Layer_1" xmlns="http://www.w3.org/2000/svg" xmlns:xlink="http://www.w3.org/1999/xlink" x="0px" y="0px"
	 viewBox="0 0 28.1 32" style="enable-background:new 0 0 28.1 32;" xml:space="preserve">
<style type="text/css">
	.st0{fill:#042b62;}
	.st1{fill:#042b62;}
	.st2{fill:#EAEAEA;}
	.st3{fill:#FFFFFF;}
	.st4{fill:#E2E2E2;}
</style>
<path class="st0" d="M21.1,2.2H4.9c-0.6,0-1.1,0.5-1.1,1.1v27.6c0,0.6,0.5,1.1,1.1,1.1h22.1c0.6,0,1.1-0.5,1.1-1.1V9.2
	c0-0.2-0.2-0.4-0.4-0.4h-6.2V2.6C21.5,2.4,21.3,2.2,21.1,2.2z"/>
<path class="st1" d="M8.8,32h19.3V16.5C28.1,24.5,18.3,32,8.8,32z"/>
<path class="st2" d="M1.1,0h12.1c0.6,0,1.1,0.5,1.1,1.1c0,0,0,0,0,0v14.8c0,0.6-0.5,1.1-1,1.1c0,0,0,0-0.1,0H1.1
	C0.5,17,0,16.5,0,15.9c0,0,0,0,0-0.1V1.1C0,0.5,0.5,0,1.1,0C1.1,0,1.1,0,1.1,0z"/>
<path class="st1" d="M21.2,9.4h6.7c0.1,0,0.2-0.2,0.2-0.3C28.1,9,28,9,28,8.9l-6.6-6.7c-0.1-0.1-0.3-0.1-0.4,0
	c0,0.1-0.1,0.1-0.1,0.2v6.7C20.9,9.3,21,9.4,21.2,9.4z"/>
<path class="st3" d="M2.1,2.2h10.1c0.3,0,0.5,0.2,0.5,0.5v1.8c0,0.3-0.2,0.5-0.5,0.5H2.1c-0.3,0-0.5-0.2-0.5-0.5c0,0,0,0,0,0V2.6
	C1.7,2.4,1.9,2.2,2.1,2.2L2.1,2.2z"/>
<path class="st3" d="M2.8,7.1h1.1c0.3,0,0.6,0.2,0.6,0.5c0,0,0,0,0,0v1.1c0,0.3-0.2,0.6-0.5,0.6c0,0,0,0,0,0H2.8
	C2.5,9.3,2.2,9,2.2,8.7l0,0V7.6C2.2,7.3,2.4,7.1,2.8,7.1C2.8,7.1,2.8,7.1,2.8,7.1z"/>
<path class="st3" d="M6.6,7.1h1.1c0.3,0,0.6,0.3,0.6,0.6v1.1C8.3,9,8,9.3,7.7,9.3H6.6C6.3,9.3,6.1,9,6.1,8.7l0,0V7.6
	C6.1,7.3,6.3,7.1,6.6,7.1z"/>
<path class="st3" d="M10.5,7.1h1.1c0.3,0,0.6,0.3,0.6,0.6v1.1c0,0.3-0.2,0.6-0.6,0.6l0,0h-1.1c-0.3,0-0.6-0.2-0.6-0.6l0,0V7.6
	C9.9,7.3,10.2,7.1,10.5,7.1z"/>
<path class="st3" d="M2.8,10.9h1.1c0.3,0,0.5,0.2,0.6,0.5c0,0,0,0,0,0v1.1c0,0.3-0.2,0.5-0.5,0.6c0,0,0,0,0,0H2.8
	c-0.3,0-0.5-0.2-0.5-0.5c0,0,0,0,0,0v-1.1C2.2,11.2,2.4,10.9,2.8,10.9C2.7,10.9,2.8,10.9,2.8,10.9z"/>
<path class="st3" d="M6.6,10.9h1.1c0.3,0,0.6,0.2,0.6,0.5c0,0,0,0,0,0v1.1c0,0.3-0.2,0.6-0.5,0.6c0,0,0,0,0,0H6.6
	c-0.3,0-0.6-0.2-0.6-0.6l0,0v-1.1C6.1,11.2,6.3,10.9,6.6,10.9L6.6,10.9z"/>
<path class="st3" d="M10.5,10.9h1.1c0.3,0,0.6,0.2,0.6,0.6l0,0v1.1c0,0.3-0.2,0.6-0.6,0.6l0,0h-1.1c-0.3,0-0.6-0.2-0.6-0.6l0,0v-1.1
	C9.9,11.2,10.2,10.9,10.5,10.9L10.5,10.9z"/>
<path class="st4" d="M2.2,17h11c0.6,0,1.1-0.5,1.1-1.1c0,0,0,0,0,0V7.4C14.3,12.7,8.9,17,2.2,17z"/>
<path class="st3" d="M18.4,12.8h6.1c0.2,0,0.3,0.1,0.3,0.3v0.6c0,0.2-0.1,0.3-0.3,0.3h-6.1c-0.2,0-0.3-0.1-0.3-0.3v-0.6
	C18.1,12.9,18.3,12.8,18.4,12.8z"/>
<path class="st3" d="M18.4,15.4h6.1c0.2,0,0.3,0.1,0.3,0.3v0.6c0,0.2-0.1,0.3-0.3,0.3h-6.1c-0.2,0-0.3-0.1-0.3-0.3v-0.6
	C18.1,15.5,18.3,15.4,18.4,15.4z"/>
<path class="st2" d="M11.4,24.8c0,2.5,2,4.6,4.6,4.6v-9.1C13.5,20.3,11.4,22.3,11.4,24.8z"/>
<path class="st4" d="M16,20.3v9.1c2.5,0,4.6-2,4.6-4.6S18.5,20.3,16,20.3z"/>
<path class="st3" d="M17.6,23.4C17.6,23.4,17.5,23.4,17.6,23.4h-0.7c0-0.2-0.1-0.4-0.2-0.5h0.8c0,0,0.1,0,0.1,0c0,0,0-0.1,0-0.1
	v-0.4c0,0,0-0.1,0-0.1c0,0-0.1,0-0.1,0h-3c-0.1,0-0.1,0-0.1,0.1c0,0,0,0,0,0V23c0,0.1,0,0.1,0.1,0.1c0,0,0,0,0,0H15
	c0.5,0,0.8,0.1,1,0.4h-1.5c0,0-0.1,0-0.1,0c0,0,0,0.1,0,0.1V24c0,0,0,0.1,0,0.1c0,0,0.1,0,0.1,0H16c-0.1,0.2-0.2,0.4-0.4,0.5
	c-0.2,0.1-0.5,0.2-0.8,0.1h-0.4c0,0-0.1,0-0.1,0c0,0,0,0.1,0,0.1v0.5c0,0,0,0.1,0,0.1c0.5,0.5,1.1,1.2,1.8,2.1c0,0,0.1,0,0.1,0H17
	c0,0,0.1,0,0.1-0.1c0,0,0-0.1,0-0.1c-0.7-0.9-1.2-1.5-1.6-1.9c0.4,0,0.7-0.2,1-0.4c0.2-0.2,0.4-0.5,0.4-0.8h0.6c0,0,0.1,0,0.1,0
	c0,0,0-0.1,0-0.1v-0.4C17.6,23.5,17.6,23.5,17.6,23.4z"/>
</svg>
