<?xml version="1.0" encoding="utf-8"?>
<!-- Generator: Adobe Illustrator 26.5.1, SVG Export Plug-In . SVG Version: 6.00 Build 0)  -->
<svg version="1.1" id="Layer_1" xmlns="http://www.w3.org/2000/svg" xmlns:xlink="http://www.w3.org/1999/xlink" x="0px" y="0px"
	 viewBox="0 0 27.6 32" style="enable-background:new 0 0 27.6 32;" xml:space="preserve">
<style type="text/css">
	.st0{fill:#042b62;}
	.st1{fill:#042b62;}
	.st2{fill:#EAEAEA;}
	.st3{fill:#E2E2E2;}
	.st4{fill:#FFFFFF;}
</style>
<path class="st0" d="M6.6,27.6V32h18.8c1.2,0,2.2-1,2.2-2.2v-2.2H6.6z"/>
<path class="st1" d="M22.6,0H2.2c1.2,0,2.2,1,2.2,2.2v27.6c0,1.2,1,2.2,2.2,2.2s2.2-1,2.2-2.2l0,0v-2.2h16V2.2C24.8,1,23.8,0,22.6,0
	z"/>
<path class="st2" d="M14,10.3l0.4,0.2l0.4-0.2C16.6,9,17.7,7,17.7,4.7V3.3l-3.3-1.1L11,3.3v1.4C11,7,12.2,9,14,10.3z"/>
<path class="st3" d="M14.1,8.2l-0.6-0.9c0.8-0.5,1.3-1.4,1.4-2.4L16,5C15.9,6.3,15.2,7.4,14.1,8.2z"/>
<path class="st4" d="M18.8,17.1h4.4v1.1h-4.4V17.1z"/>
<path class="st4" d="M6.1,17.1h11.6v1.1H6.1V17.1z"/>
<path class="st4" d="M12.1,19.3h11v1.1h-11L12.1,19.3z"/>
<path class="st4" d="M6.1,19.3h5v1.1h-5L6.1,19.3z"/>
<path class="st4" d="M16,23.7h7.2v1.1H16V23.7z"/>
<path class="st4" d="M6.1,23.7h8.8v1.1H6.1V23.7z"/>
<path class="st4" d="M9.4,21.5h13.8v1.1H9.4V21.5z"/>
<path class="st4" d="M6.1,21.5h2.2v1.1H6.1V21.5z"/>
<path class="st4" d="M12.1,14.9h11V16h-11L12.1,14.9z"/>
<path class="st4" d="M6.1,14.9h5V16h-5L6.1,14.9z"/>
<path class="st4" d="M10.5,12.1h7.7v1.1h-7.7V12.1z"/>
<path class="st0" d="M2.2,0c1.2,0,2.2,1,2.2,2.2v3.9H0V2.2C0,1,1,0,2.2,0C2.2,0,2.2,0,2.2,0z"/>
</svg>
