<svg xmlns="http://www.w3.org/2000/svg" viewBox="0 0 24.34 31.43"><defs><style>.cls-1{fill:#ffd384;}.cls-2{fill:#bcd874;}.cls-3{fill:#b5cd6a;}.cls-4{fill:#f49496;}.cls-5{fill:#ee888e;}.cls-6{fill:#f6ddca;}.cls-7{fill:#eacec1;}.cls-8{fill:#ecf4ff;}.cls-9{fill:#ddeafb;}.cls-10{fill:#2b4d66;}</style></defs><g id="Layer_2" data-name="Layer 2"><g id="Layer_1-2" data-name="Layer 1"><path class="cls-1" d="M19.53,8.31H2V4.85A1.72,1.72,0,0,1,3.75,3.13H17.81a1.72,1.72,0,0,1,1.72,1.72V8.31Z"/><path class="cls-2" d="M21.56,30.89a.54.54,0,0,1-.54.54H.54A.54.54,0,0,1,0,30.89V22a7.15,7.15,0,0,1,7.16-7.15h7.25A7.15,7.15,0,0,1,21.56,22Z"/><path class="cls-3" d="M14.41,14.86h-2A7.16,7.16,0,0,1,19.54,22v9.42H21a.54.54,0,0,0,.54-.54V22A7.15,7.15,0,0,0,14.41,14.86Z"/><path class="cls-4" d="M23.6,31.43H18.69a.74.74,0,0,1-.74-.74v-.62a.74.74,0,0,1,.74-.74H23.6a.74.74,0,0,1,.74.74v.62A.74.74,0,0,1,23.6,31.43Z"/><path class="cls-5" d="M23.55,29.33H22.19A.75.75,0,0,1,23,30v.71a.75.75,0,0,1-.79.69h1.36a.75.75,0,0,0,.79-.69V30A.75.75,0,0,0,23.55,29.33Z"/><path class="cls-4" d="M23.6,29.33H18.69a.74.74,0,0,1-.74-.74V28a.74.74,0,0,1,.74-.74H23.6a.74.74,0,0,1,.74.74v.62A.74.74,0,0,1,23.6,29.33Z"/><path class="cls-5" d="M23.55,27.23H22.19a.75.75,0,0,1,.79.7v.71a.75.75,0,0,1-.79.69h1.36a.75.75,0,0,0,.79-.69v-.71A.75.75,0,0,0,23.55,27.23Z"/><path class="cls-4" d="M23.6,27.23H18.69a.74.74,0,0,1-.74-.74v-.62a.74.74,0,0,1,.74-.74H23.6a.74.74,0,0,1,.74.74v.62A.74.74,0,0,1,23.6,27.23Z"/><path class="cls-5" d="M23.55,25.13H22.19a.75.75,0,0,1,.79.7v.71a.75.75,0,0,1-.79.69h1.36a.75.75,0,0,0,.79-.69v-.71A.75.75,0,0,0,23.55,25.13Z"/><path class="cls-4" d="M22.12,25.13h-4.9a.74.74,0,0,1-.74-.74v-.62a.74.74,0,0,1,.74-.74h4.9a.74.74,0,0,1,.74.74v.62A.74.74,0,0,1,22.12,25.13Z"/><path class="cls-5" d="M22.07,23H20.72a.75.75,0,0,1,.79.7v.71a.75.75,0,0,1-.79.69h1.35a.74.74,0,0,0,.79-.69v-.71A.74.74,0,0,0,22.07,23Z"/><circle class="cls-4" cx="17.67" cy="28.5" r="2.94"/><path class="cls-5" d="M17.67,25.56a3.1,3.1,0,0,0-.69.08,2.94,2.94,0,0,1,0,5.71,3.1,3.1,0,0,0,.69.08,2.94,2.94,0,1,0,0-5.87Z"/><path class="cls-6" d="M10.78,20.56a2.61,2.61,0,0,1-2.61-2.62V15.33H13.4v2.61A2.62,2.62,0,0,1,10.78,20.56Z"/><path class="cls-6" d="M3.81,4.33v6a7,7,0,0,0,13.94,0v-6A4.33,4.33,0,0,0,13.42,0H8.14A4.33,4.33,0,0,0,3.81,4.33Z"/><path class="cls-7" d="M13.42,0H11.79a4.33,4.33,0,0,1,4.33,4.33v6A7,7,0,0,1,10,17.29a7.32,7.32,0,0,0,.81,0,7,7,0,0,0,7-7v-6A4.33,4.33,0,0,0,13.42,0Z"/><path class="cls-7" d="M3.81,9.71H2.7a1.4,1.4,0,1,1,0-2.8H3.81Z"/><path class="cls-7" d="M17.75,9.71h1.12a1.4,1.4,0,0,0,0-2.8H17.75Z"/><path class="cls-8" d="M10.78,18.4a3.91,3.91,0,0,1-3.92-3.92V13.2a1.76,1.76,0,0,1,1.76-1.76h4.32a1.76,1.76,0,0,1,1.77,1.76v1.28a3.92,3.92,0,0,1-3.93,3.92Z"/><path class="cls-9" d="M12.94,11.44H11.73a1.76,1.76,0,0,1,1.76,1.76v1.28a3.94,3.94,0,0,1-3.32,3.88,4.17,4.17,0,0,0,.61,0,3.92,3.92,0,0,0,3.93-3.92V13.2A1.76,1.76,0,0,0,12.94,11.44Z"/><path class="cls-7" d="M10.78,14a2.74,2.74,0,0,1-1.46-.45.46.46,0,0,1-.16-.65.48.48,0,0,1,.66-.15,1.67,1.67,0,0,0,1.93,0,.47.47,0,0,1,.5.8,2.74,2.74,0,0,1-1.47.45Z"/><path class="cls-7" d="M13.5,2.89H8.06a.48.48,0,0,1,0-1H13.5a.48.48,0,0,1,0,1Z"/><path class="cls-7" d="M12.24,4.5H9.33A.49.49,0,0,1,8.85,4a.48.48,0,0,1,.48-.47h2.91a.47.47,0,0,1,.47.47A.48.48,0,0,1,12.24,4.5Z"/><path class="cls-10" d="M7.59,10a.47.47,0,0,1-.48-.47V9a.48.48,0,0,1,1,0v.45A.47.47,0,0,1,7.59,10Z"/><path class="cls-10" d="M14,10a.48.48,0,0,1-.48-.47V9A.48.48,0,0,1,14,8.56a.47.47,0,0,1,.47.47v.45A.47.47,0,0,1,14,10Z"/></g></g></svg>