<?xml version="1.0" encoding="utf-8"?>
<!-- Generator: Adobe Illustrator 26.5.1, SVG Export Plug-In . SVG Version: 6.00 Build 0)  -->
<svg version="1.1" id="Layer_1" xmlns="http://www.w3.org/2000/svg" xmlns:xlink="http://www.w3.org/1999/xlink" x="0px" y="0px"
	 viewBox="0 0 29.6 30.9" style="enable-background:new 0 0 29.6 30.9;" xml:space="preserve">
<style type="text/css">
	.st0{fill:#042b62;}
	.st1{fill:#042b62;}
	.st2{fill:#E2E2E2;}
	.st3{fill:#EAEAEA;}
	.st4{fill:#FFFFFF;}
</style>
<path class="st0" d="M15.5,27.3c0,1.9,1.6,3.5,3.5,3.5c0,0,0,0,0,0H3.5c-1.9,0-3.5-1.6-3.5-3.5c0,0,0,0,0,0v-0.5h15.5V27.3z"/>
<path class="st1" d="M29.6,5.1h-7V3.5c0-1.9,1.6-3.5,3.5-3.5l0,0c1.9,0,3.5,1.6,3.5,3.5c0,0,0,0,0,0V5.1z"/>
<path class="st0" d="M7,26.8h8.5v0.5c-0.2,1.9,1.2,3.7,3.1,3.9c1.9,0.2,3.7-1.2,3.9-3.1c0-0.2,0-0.5,0-0.7V3.5C22.5,1.6,24.1,0,26,0
	c0,0,0,0,0.1,0H10.6C8.6,0,7,1.5,7,3.5c0,0,0,0,0,0V26.8z"/>
<path class="st1" d="M12.4,0h-1.9C8.6,0,7,1.5,7,3.5c0,0,0,0,0,0v23.3h1.9V3.5C8.9,1.6,10.5,0,12.4,0z"/>
<path class="st1" d="M17.4,27.3v-0.5h-1.9v0.5c0,1.9,1.6,3.5,3.5,3.5c0,0,0,0,0,0c0.3,0,0.6,0,0.9-0.1
	C18.5,30.3,17.4,28.9,17.4,27.3z"/>
<circle class="st2" cx="14.8" cy="11.9" r="5.3"/>
<rect x="13.9" y="8.8" class="st0" width="1.8" height="1.8"/>
<rect x="13.9" y="11.7" class="st0" width="1.8" height="3.2"/>
<path class="st1" d="M27,0.1C26.7,0,26.4,0,26.1,0l0,0c-1.9,0-3.5,1.6-3.5,3.5v1.5h1.9V3.5C24.4,1.9,25.5,0.6,27,0.1z"/>
<path class="st1" d="M1.9,27.3v-0.5H0v0.5c0,1.9,1.6,3.5,3.5,3.5c0,0,0,0,0,0h1.9C3.4,30.9,1.9,29.3,1.9,27.3L1.9,27.3z"/>
<path class="st3" d="M11.4,11.9c0-2.6,1.8-4.8,4.4-5.2c-0.3-0.1-0.6-0.1-0.9-0.1c-2.9,0-5.3,2.4-5.3,5.3s2.4,5.3,5.3,5.3
	c0,0,0,0,0,0c0.3,0,0.6,0,0.9-0.1C13.2,16.6,11.4,14.4,11.4,11.9z"/>
<rect x="14.5" y="19.4" class="st4" width="5.7" height="0.9"/>
<rect x="12.9" y="19.4" class="st4" width="0.9" height="0.9"/>
<rect x="16.7" y="21.4" class="st4" width="3.4" height="0.9"/>
<rect x="9.5" y="21.4" class="st4" width="6.3" height="0.9"/>
<rect x="9.5" y="23.4" class="st4" width="8.7" height="0.9"/>
<rect x="9.5" y="4.1" class="st4" width="0.9" height="0.9"/>
<rect x="11.1" y="4.1" class="st4" width="0.9" height="0.9"/>
</svg>
