<?xml version="1.0" encoding="utf-8"?>
<!-- Generator: Adobe Illustrator 26.5.1, SVG Export Plug-In . SVG Version: 6.00 Build 0)  -->
<svg version="1.1" id="Layer_1" xmlns="http://www.w3.org/2000/svg" xmlns:xlink="http://www.w3.org/1999/xlink" x="0px" y="0px"
	 viewBox="0 0 31.5 28.1" style="enable-background:new 0 0 31.5 28.1;" xml:space="preserve">
<style type="text/css">
	.st0{fill:#E2E2E2;stroke:#939393;stroke-width:0.25;stroke-miterlimit:10;}
	.st1{fill:#042b62;}
	.st2{fill:#042b62;}
	.st3{fill:#FFFFFF;}
</style>
<path class="st0" d="M27,23.8V5.4c0-1.2-1-2.2-2.2-2.2h-9.9c-0.6,0-1.1-0.2-1.5-0.6l-2-2C11,0.2,10.5,0,9.9,0H2.2C1,0,0,1,0,2.2
	c0,0,0,0,0,0v22.7h25.9C26.5,24.8,27,24.4,27,23.8z"/>
<path class="st1" d="M29.4,9.7H15.2c-0.9,0-1.8,0.6-2.1,1.5l-0.8,2.4c-0.3,0.9-1.1,1.5-2.1,1.5H5c-0.9,0-1.7,0.6-2,1.4l-0.8,2.2
	l-2.2,6v1.1c0,1.2,1,2.2,2.2,2.2h22.2c0.9,0,1.7-0.6,2-1.4l5-14c0.4-1.1-0.2-2.3-1.3-2.7c0,0,0,0,0,0C29.8,9.8,29.6,9.8,29.4,9.7
	L29.4,9.7z"/>
<path class="st2" d="M30.2,9.9c0.2,0.5,0.3,1.1,0.1,1.6l-5,14c-0.3,0.9-1.1,1.4-2,1.4H1.1c-0.3,0-0.6-0.1-0.9-0.2
	c0.4,0.8,1.1,1.3,2,1.3h22.2c0.9,0,1.7-0.6,2-1.4l5-14C31.8,11.6,31.3,10.4,30.2,9.9L30.2,9.9z"/>
<path class="st3" d="M2.2,5.4v13.4L3,16.6c0.3-0.8,1.1-1.4,2-1.4h5.3c0.9,0,1.8-0.6,2.1-1.5l0.8-2.4c0.3-0.9,1.1-1.5,2-1.5h9.6V5.4
	H2.2z"/>
<path class="st1" d="M11.4,9.7H9.7c-0.3,0-0.5,0.3-0.5,0.6c0,0.2,0.2,0.4,0.5,0.5h1.6c0.3,0,0.5-0.3,0.5-0.6
	C11.8,9.9,11.6,9.8,11.4,9.7z"/>
<path class="st1" d="M22.7,7h-13C9.4,7,9.2,7.2,9.2,7.5c0,0.3,0.2,0.5,0.5,0.5h13c0.3,0,0.5-0.2,0.5-0.5c0,0,0,0,0,0
	C23.2,7.2,23,7,22.7,7L22.7,7z"/>
<path class="st1" d="M5.6,13V8.5H3.9V7.9H8v0.6H6.3V13H5.6z"/>
</svg>
