<svg xmlns="http://www.w3.org/2000/svg" viewBox="0 0 30.66 30.66"><defs><style>.cls-1{fill:#fff;}.cls-2{fill:#f49496;}.cls-3{fill:#f8decb;}.cls-4{fill:#bcd874;}.cls-5{fill:#f6ddca;}.cls-6{fill:#ead2c5;}</style></defs><g id="Layer_2" data-name="Layer 2"><g id="Layer_1-2" data-name="Layer 1"><ellipse class="cls-1" cx="1.62" cy="29.15" rx="0.61" ry="0.63"/><path class="cls-1" d="M29.18.81a.58.58,0,0,1,0,1.15.58.58,0,0,1-.6-.56v0A.56.56,0,0,1,29.18.81Z"/><path class="cls-2" d="M30.66.64V2.2a.64.64,0,0,1-.63.64H24a.64.64,0,0,1-.64-.64V.64A.64.64,0,0,1,24,0H30A.64.64,0,0,1,30.66.64Zm-.92.74a.56.56,0,1,0-.56.58.57.57,0,0,0,.56-.58Z"/><path class="cls-3" d="M25.41,8.05H22.84V6.31a1.37,1.37,0,0,1,1.37-1.37V2.84h5.33v7.69a1.38,1.38,0,0,1-.39,1L25.87,14.2V11l-1.52,1.21-.24-.25a1,1,0,0,1,0-1.44L25.56,9V8.7a1.29,1.29,0,0,0-.13-.58Z"/><path class="cls-4" d="M25.87,14.2v6.26a.56.56,0,0,1-.56.56H18.05a.56.56,0,0,1-.56-.56V8.61a.56.56,0,0,1,.56-.56h7.36l0,.07a1.29,1.29,0,0,1,.13.58V9l-1.45,1.45a1,1,0,0,0,0,1.44l.24.25L25.87,11Zm-1.4.56a2.8,2.8,0,1,0-2.79,2.79A2.79,2.79,0,0,0,24.47,14.76Z"/><path class="cls-4" d="M5.23,15.17V8.34a.61.61,0,0,1,.61-.61h7.92a.61.61,0,0,1,.61.61h0V21.27a.61.61,0,0,1-.61.61h-8l0-.07a1.43,1.43,0,0,1-.15-.64l0-.34,1.58-1.58a1.11,1.11,0,0,0,0-1.58l-.26-.27L5.23,18.72Zm7.62-.6a3.05,3.05,0,1,0-3,3,3,3,0,0,0,3-3Z"/><path class="cls-2" d="M9.8,11.52a3,3,0,1,1-3.05,3.05h0A3.06,3.06,0,0,1,9.8,11.52Z"/><path class="cls-5" d="M5.73,21.88h2.8v1.9A1.49,1.49,0,0,1,7,25.27v2.3H1.23v-8.4a1.46,1.46,0,0,1,.43-1l3.57-3v3.55L6.89,17.4l.26.27a1.11,1.11,0,0,1,0,1.58L5.57,20.83l0,.34a1.43,1.43,0,0,0,.15.64Z"/><path class="cls-2" d="M8,28.21V30a.64.64,0,0,1-.64.63H.64A.64.64,0,0,1,0,30V28.21a.64.64,0,0,1,.64-.64H7.37A.64.64,0,0,1,8,28.21Zm-5.78.94a.6.6,0,0,0-.63-.58.61.61,0,1,0,.63.59Z"/><path class="cls-6" d="M5.55,24.91a.38.38,0,0,1-.38-.38v-.75a.37.37,0,0,1,.06-.21A1.63,1.63,0,0,0,5.38,22l0-.06a1.84,1.84,0,0,1-.18-.8v0l0-.34a.33.33,0,0,1,.11-.25L6.88,19a.73.73,0,0,0,0-1l0,0L3.55,20.54A.38.38,0,0,1,3,20.48a.39.39,0,0,1,.05-.54h0L6.65,17.1a.38.38,0,0,1,.51,0l.26.26a1.5,1.5,0,0,1,0,2.13L6,21v.19a1,1,0,0,0,.11.46.42.42,0,0,0,0,.1,2.4,2.4,0,0,1-.15,2.15v.64a.39.39,0,0,1-.39.38Z"/><path class="cls-6" d="M24.35,12.54a.39.39,0,0,1-.27-.11l-.24-.24a1.42,1.42,0,0,1,0-2l1.34-1.34V8.69a1,1,0,0,0-.1-.41l0-.08a2.24,2.24,0,0,1,.14-2V5.63a.39.39,0,1,1,.77,0v.68a.31.31,0,0,1-.07.21,1.47,1.47,0,0,0-.13,1.38s0,0,0,0A1.66,1.66,0,0,1,26,8.7v0l0,.32a.47.47,0,0,1-.11.25l-1.45,1.45a.63.63,0,0,0,0,.9h0l3-2.38a.38.38,0,1,1,.48.59h0l-3.28,2.6A.43.43,0,0,1,24.35,12.54Z"/><circle class="cls-2" cx="21.71" cy="14.78" r="2.82"/><path class="cls-1" d="M22.75,13.87l-.05,0h-.41a.88.88,0,0,0-.15-.34h.55l.06,0a.08.08,0,0,0,0-.05v-.24a.14.14,0,0,0,0-.06l-.06,0h-2l-.06,0a.14.14,0,0,0,0,.06v.31a.14.14,0,0,0,0,.06l.06,0h.34c.33,0,.55.09.64.27h-1l-.06,0a.08.08,0,0,0,0,.05v.25a.08.08,0,0,0,0,.05s0,0,.06,0h1a.48.48,0,0,1-.24.3,1.08,1.08,0,0,1-.51.1h-.26l-.06,0a.14.14,0,0,0,0,.06V15a.08.08,0,0,0,0,.05c.31.32.7.78,1.18,1.36a.09.09,0,0,0,.06,0h.47s.05,0,.07-.05a.08.08,0,0,0,0-.08c-.47-.56-.83-1-1.09-1.27A1.2,1.2,0,0,0,22,14.8a.9.9,0,0,0,.31-.56h.4s0,0,.05,0,0,0,0-.05v-.25S22.77,13.88,22.75,13.87Z"/><path class="cls-1" d="M10.84,13.89l-.05,0h-.41a.88.88,0,0,0-.15-.34h.55l.06,0a.14.14,0,0,0,0-.06v-.24a.14.14,0,0,0,0-.06l-.06,0h-2l-.05,0a.14.14,0,0,0,0,.06v.32s0,0,0,.05l.05,0h.35c.33,0,.55.09.64.27h-1l-.05,0a.11.11,0,0,0,0,.06v.24a.08.08,0,0,0,0,.05s0,0,.05,0h1a.51.51,0,0,1-.24.3,1.08,1.08,0,0,1-.51.1H8.8s0,0-.05,0a.08.08,0,0,0,0,.05V15a.08.08,0,0,0,0,.05c.3.33.7.78,1.18,1.36a.09.09,0,0,0,.06,0h.47a.07.07,0,0,0,.06,0,.06.06,0,0,0,0-.09c-.46-.56-.82-1-1.09-1.27a1.23,1.23,0,0,0,.66-.26.9.9,0,0,0,.31-.56h.4s0,0,.05,0a.08.08,0,0,0,0-.05V14A.11.11,0,0,0,10.84,13.89Z"/></g></g></svg>