<svg width="28" height="32" viewBox="0 0 28 32" fill="none" xmlns="http://www.w3.org/2000/svg">
<g clip-path="url(#clip0_19_2094)">
<path d="M25.3 10.8V5.70001H23.2V29.4C23.2 30.5 24.1 31.4 25.2 31.5H25.3C26.4 31.5 27.3 30.7 27.4 29.6V29.5V10.8H25.3Z" fill="#042b62"/>
<path d="M0.5 29.4V0.5H23.2V29.4C23.2 30.5 24.1 31.4 25.2 31.5H2.6C1.4 31.5 0.5 30.6 0.5 29.4Z" fill="white"/>
<path d="M21.2 16.9V28.5C21.2 29 20.8 29.4 20.3 29.4H8.7C8.2 29.4 7.8 29 7.8 28.5V16.9C7.8 16.4 8.2 16 8.7 16H20.3C20.7 16 21.2 16.4 21.2 16.9Z" fill="#ccd5e0"/>
<path d="M19.1 26.3V27.3H9.8V26.3C9.8 25.4 10.4 24.6 11.3 24.3L13.4 23.7V22.9C12.8 22.5 12.4 21.8 12.4 21.1V20.1C12.4 19 13.3 18 14.5 18C14.6 18 14.6 18 14.7 18C15.8 18.1 16.6 19.1 16.6 20.1V21C16.6 21.7 16.2 22.4 15.6 22.8V23.6L17.7 24.2C18.5 24.6 19.1 25.4 19.1 26.3Z" fill="white"/>
<path d="M5.2 3.49998C6.1 2.89998 7.1 2.59998 8.2 2.59998H8.4C8.3 2.89998 8.2 3.19998 8.2 3.49998C8.2 4.19998 8.5 4.89998 9.1 5.39998L10 6.09998C10.5 6.49998 10.8 7.09998 10.8 7.69998C10.8 8.89998 11.7 9.79998 12.9 9.79998C13.2 9.79998 13.4 9.79998 13.7 9.69998C12.9 12.7 9.9 14.6 6.8 13.8C4.8 13.3 3.2 11.7 2.7 9.69998C2.9 9.79998 3.1 9.79998 3.3 9.79998C4.1 9.79998 4.9 10.1 5.5 10.7L5.6 10.8C6 11.2 6.5 11.4 7 11.4C8 11.4 8.8 10.6 8.8 9.59998V8.99998C8.8 8.29998 8.2 7.69998 7.5 7.69998C6.8 7.69998 6.2 7.09998 6.2 6.39998V5.69998C6.2 4.99998 6 4.39998 5.6 3.79998C5.5 3.69998 5.4 3.59998 5.2 3.49998Z" fill="#042b62"/>
<path d="M13.9 8.29998C13.9 8.79998 13.8 9.29998 13.7 9.69998C13.4 9.79998 13.2 9.79998 12.9 9.79998C11.7 9.79998 10.8 8.89998 10.8 7.69998C10.8 7.09998 10.5 6.49998 10 6.09998L9.2 5.39998C8.6 4.89998 8.3 4.19998 8.3 3.49998C8.3 3.19998 8.4 2.89998 8.5 2.59998C11.5 2.69998 13.9 5.19998 13.9 8.29998Z" fill="#ccd5e0"/>
<path d="M5.60001 3.8C6.00001 4.4 6.20001 5 6.20001 5.7V6.5C6.20001 7.2 6.80001 7.8 7.50001 7.8C8.20001 7.8 8.80001 8.4 8.80001 9.1V9.6C8.80001 10.6 8.00001 11.4 7.00001 11.4C6.50001 11.4 6.10001 11.2 5.70001 10.9L5.60001 10.8C5.00001 10.1 4.20001 9.8 3.40001 9.8C3.20001 9.8 3.00001 9.8 2.80001 9.7C2.70001 9.2 2.60001 8.7 2.60001 8.3C2.60001 6.4 3.60001 4.5 5.20001 3.5C5.40001 3.6 5.50001 3.7 5.60001 3.8Z" fill="#ccd5e0"/>
<path d="M25.8 10.3V5.2H23.7V0H0V29.4C0 30.8 1.2 32 2.6 32H25.3C26.7 32 27.9 30.8 27.9 29.4V10.3H25.8ZM2.6 31C1.7 31 1 30.3 1 29.5V1H22.7V29.4C22.7 30 22.9 30.5 23.2 31H2.6ZM26.8 29.5C26.8 30.4 26.1 31 25.2 31C24.3 31 23.7 30.3 23.7 29.5V6.2H24.7V27.9H25.7V11.4H26.7L26.8 29.5Z" fill="#042b62"/>
<path d="M24.8 28.9H25.8V29.9H24.8V28.9Z" fill="white"/>
<path d="M2.10001 26.1H6.20001V27.1H2.10001V26.1Z" fill="#042b62"/>
<path d="M2.10001 23H6.20001V24H2.10001V23Z" fill="#042b62"/>
<path d="M2.10001 20.1H6.20001V21.1H2.10001V20.1Z" fill="#042b62"/>
<path d="M16.5 9.20001H20.6V10.2H16.5V9.20001Z" fill="#ccd5e0"/>
<path d="M16.5 6.09998H20.6V7.09998H16.5V6.09998Z" fill="#ccd5e0"/>
<path d="M16.5 3.20001H20.6V4.20001H16.5V3.20001Z" fill="#ccd5e0"/>
</g>
<defs>
<clipPath id="clip0_19_2094">
<rect width="27.9" height="32" fill="white"/>
</clipPath>
</defs>
</svg>
