<svg width="32" height="25" viewBox="0 0 32 25" fill="none" xmlns="http://www.w3.org/2000/svg">
<g clip-path="url(#clip0_19_2128)">
<path d="M22 1.8V5.2H20.1V1.9H11V5.2H9.1V1.8C9.1 0.8 9.9 0 10.9 0H20.2C21.2 0 22 0.8 22 1.8Z" fill="#042b62"/>
<path d="M22 1.8V5.2H20.6V1.8C20.6 0.8 19.8 0 18.8 0H20.2C21.2 0 22 0.8 22 1.8Z" fill="#042b62"/>
<path d="M31.1 7.00001V23.3C31.1 24.3 30.3 25.1 29.3 25.1H1.8C0.8 25.1 0 24.3 0 23.3V7.00001C0 6.00001 0.8 5.20001 1.8 5.20001H29.3C30.3 5.20001 31.1 6.00001 31.1 7.00001Z" fill="#042b62"/>
<path d="M31.1 7.00001V23.3C31.1 24.3 30.3 25.1 29.3 25.1H27.8C28.8 25.1 29.6 24.3 29.6 23.3V7.00001C29.6 6.00001 28.8 5.20001 27.8 5.20001H29.3C30.3 5.20001 31.1 6.00001 31.1 7.00001Z" fill="#042b62"/>
<path d="M25.1 6.70001H28.1V25H25.1V6.70001Z" fill="#EAEAEA" stroke="#939393" stroke-width="0.25"/>
<path d="M26.6 6.70001H28.1V25H26.6V6.70001Z" fill="#E2E2E2"/>
<path d="M28.1 4.40002V6.70002H25.1V4.40002C25.1 4.00002 25.4 3.80002 25.7 3.80002H27.4C27.8 3.70002 28.1 4.00002 28.1 4.40002Z" fill="#EAEAEA" stroke="#939393" stroke-width="0.25"/>
<path d="M28.1 4.40002V6.70002H26.6V4.40002C26.6 4.10002 26.3 3.80002 26 3.80002H27.5C27.8 3.70002 28.1 4.00002 28.1 4.40002Z" fill="#E2E2E2"/>
<path d="M3 6.5H6V24.9H3V6.5Z" fill="#EAEAEA" stroke="#939393" stroke-width="0.25"/>
<path d="M4.5 6.5H6V24.9H4.5V6.5Z" fill="#E2E2E2"/>
<path d="M6 4.20001V6.50001H3V4.20001C3 3.80001 3.3 3.60001 3.6 3.60001H5.3C5.7 3.50001 6 3.80001 6 4.20001Z" fill="#EAEAEA" stroke="#939393" stroke-width="0.25"/>
<path d="M6 4.20001V6.50001H4.5V4.20001C4.5 3.80001 4.2 3.60001 3.9 3.60001H5.4C5.7 3.50001 6 3.80001 6 4.20001Z" fill="#E2E2E2"/>
<path d="M21.6 10.4V19.9C21.6 20.6 21 21.2 20.3 21.2H10.8C10.1 21.2 9.5 20.6 9.5 19.9V10.4C9.5 9.69997 10.1 9.09998 10.8 9.09998H20.3C21 9.09998 21.6 9.69997 21.6 10.4Z" fill="#EAEAEA" stroke="#939393" stroke-width="0.25"/>
<path d="M21.6 10.4V19.9C21.6 20.6 21 21.2 20.3 21.2H18.7C19.4 21.2 20 20.6 20 19.9V10.4C20 9.69997 19.4 9.09998 18.7 9.09998H20.4C21.1 9.09998 21.7 9.69997 21.6 10.4Z" fill="#E2E2E2"/>
<path d="M19 13.8H16.8V11.6H14.3V13.8H12.1V16.4H14.3V18.6H16.9V16.4H19V13.8Z" fill="white"/>
</g>
<defs>
<clipPath id="clip0_19_2128">
<rect width="31.1" height="25" fill="white"/>
</clipPath>
</defs>
</svg>
