<svg width="26" height="32" viewBox="0 0 26 32" fill="none" xmlns="http://www.w3.org/2000/svg">
<g clip-path="url(#clip0_19_2167)">
<path d="M24.8 29.7H3.2V0.9C3.2 0.4 3.6 0 4.1 0H24.8C25.3 0 25.7 0.4 25.7 0.9V28.8C25.7 29.3 25.3 29.7 24.8 29.7Z" fill="#042b62"/>
<path d="M25.7 0.9V28.8C25.7 29.3 25.3 29.7 24.8 29.7H23.5C24 29.7 24.4 29.3 24.4 28.8V0.9C24.4 0.4 24 0 23.5 0H24.8C25.3 0 25.7 0.4 25.7 0.9Z" fill="#042b62"/>
<path d="M4.7 32H21.6C22.1 32 22.5 31.6 22.5 31.1V3.19999C22.5 2.69999 22.1 2.29999 21.6 2.29999H0.9C0.4 2.29999 0 2.69999 0 3.19999V28L4.7 32Z" fill="#EAEAEA" stroke="#939393" stroke-width="0.25"/>
<path d="M22.5 3.19999V31.1C22.5 31.6 22.1 32 21.6 32H20.3C20.8 32 21.2 31.6 21.2 31.1V3.19999C21.2 2.69999 20.8 2.29999 20.3 2.29999H21.6C22.1 2.29999 22.5 2.69999 22.5 3.19999Z" fill="#E2E2E2"/>
<path d="M0 28H3.9C4.3 28 4.6 28.3 4.6 28.8V32L0 28Z" fill="#E2E2E2"/>
<path d="M16.6 8.69999H6.8C6.5 8.69999 6.3 8.59999 6.3 8.29999C6.3 7.99999 6.4 7.79999 6.7 7.79999H6.8H16.6C16.9 7.79999 17.1 7.89999 17.1 8.19999C17.1 8.49999 17 8.69999 16.7 8.69999H16.6Z" fill="white"/>
<path d="M18.8 11H4.6C4.3 11 4.1 10.8 4.1 10.5C4.1 10.2 4.3 10 4.6 10H18.8C19.1 10 19.3 10.2 19.3 10.5C19.3 10.8 19.1 11 18.8 11Z" fill="white"/>
<path d="M4.1 17.1C4.70751 17.1 5.2 16.6075 5.2 16C5.2 15.3925 4.70751 14.9 4.1 14.9C3.49249 14.9 3 15.3925 3 16C3 16.6075 3.49249 17.1 4.1 17.1Z" fill="white"/>
<path d="M4.1 21.6C4.70751 21.6 5.2 21.1075 5.2 20.5C5.2 19.8925 4.70751 19.4 4.1 19.4C3.49249 19.4 3 19.8925 3 20.5C3 21.1075 3.49249 21.6 4.1 21.6Z" fill="white"/>
<path d="M4.1 26C4.70751 26 5.2 25.5075 5.2 24.9C5.2 24.2925 4.70751 23.8 4.1 23.8C3.49249 23.8 3 24.2925 3 24.9C3 25.5075 3.49249 26 4.1 26Z" fill="white"/>
<path d="M19.5 16.5H8.3C8 16.5 7.8 16.4 7.8 16.1C7.8 15.8 7.9 15.6 8.2 15.6H8.3H19.4C19.7 15.6 19.8 15.9 19.8 16.1C19.8 16.3 19.7 16.5 19.5 16.5Z" fill="white"/>
<path d="M19.5 21H8.3C8 21 7.8 20.8 7.8 20.5C7.8 20.2 8 20 8.3 20H19.4C19.7 20 19.9 20.2 19.9 20.5C19.9 20.8 19.7 21 19.5 21Z" fill="white"/>
<path d="M19.5 25.4H8.3C8 25.4 7.8 25.2 7.8 24.9C7.8 24.6 8 24.4 8.3 24.4H19.4C19.7 24.4 19.9 24.6 19.9 24.9C19.9 25.2 19.7 25.4 19.5 25.4Z" fill="white"/>
</g>
<defs>
<clipPath id="clip0_19_2167">
<rect width="25.7" height="32" fill="white"/>
</clipPath>
</defs>
</svg>
