<?xml version="1.0" encoding="utf-8"?>
<!-- Generator: Adobe Illustrator 24.2.3, SVG Export Plug-In . SVG Version: 6.00 Build 0)  -->
<svg fill="#fff"  version="1.1" id="Layer_1" xmlns="http://www.w3.org/2000/svg" xmlns:xlink="http://www.w3.org/1999/xlink" x="0px" y="0px"
	 viewBox="0 0 512 512" style="enable-background:new 0 0 512 512;" xml:space="preserve">
<g id="_x30_8_Trusted_Investment">
	<circle cx="352" cy="240" r="64"/>
	<path d="M464,64H48c-8.8,0-16,7.2-16,16v256c0,8.8,7.2,16,16,16h224v-59c-10.1-15.2-16-33.4-16-53c0-52.9,43.1-96,96-96
		s96,43.1,96,96c0,19.6-5.9,37.8-16,53v59h32c8.8,0,16-7.2,16-16V80C480,71.2,472.8,64,464,64z M183.5,140.2h-28.8
		c5,6.7,8.6,14.4,10.3,22.9h18.5V186H165c-5.3,26-28.4,45.7-56,45.7h-8.2l50.8,50.8l-16.1,16.2l-66.9-66.9v-22.9h40.6
		c14.9,0,27.6-9.6,32.3-22.9H68.5v-22.9h72.9c-4.7-13.3-17.4-22.9-32.3-22.9H68.5v-22.9h115V140.2z M208,272c-8.8,0-16-7.2-16-16
		s7.2-16,16-16s16,7.2,16,16S216.8,272,208,272z M208,224c-8.8,0-16-7.2-16-16s7.2-16,16-16s16,7.2,16,16S216.8,224,208,224z
		 M240,176h-32c-8.8,0-16-7.2-16-16s7.2-16,16-16h32c8.8,0,16,7.2,16,16S248.8,176,240,176z"/>
	<path d="M352,336c-17.5,0-33.9-4.8-48-13v94c0,6.4,7.1,10.2,12.5,6.7l31.1-20.7c2.7-1.8,6.2-1.8,8.9,0l31.1,20.7
		c5.3,3.6,12.5-0.3,12.5-6.7v-94C385.9,331.2,369.5,336,352,336z"/>
</g>
</svg>
