<?xml version="1.0" encoding="UTF-8"?>
<svg width="512" height="512" id="Layer_1" xmlns="http://www.w3.org/2000/svg" viewBox="0 0 1080 1080">
  <defs>
    <style>
      .cls-1 {
        fill: #e8f4fe;
      }

      .cls-2 {
        fill: #042b62;
      }

      .cls-3 {
        fill: #d0d0d0;
      }
    </style>
  </defs>
  <path class="cls-3" d="M961.33,548.62c0,107.17-.32,214.35.15,321.52.19,45-32.66,86.27-77.08,96.89-10.46,2.5-21.23,3.42-31.9,3.43-208.36.15-416.72.21-625.08.03-41.42-.04-74.85-15.76-96.14-52.84-7.69-13.4-12.4-28.05-12.42-43.42-.21-217.64-.53-435.28.15-652.92.15-47.28,37.24-86.97,82.68-95.07,7.11-1.27,14.18-1.72,21.36-1.72,212.55.03,425.1.02,637.66.03,55.96,0,100.59,44.66,100.61,100.76.04,107.77.01,215.55,0,323.32Z"/>
  <path class="cls-1" d="M955.91,546.11c0,108.09-.11,216.17.05,324.26.07,48.22-39.79,91.33-90.1,93.3-84.96,3.33-169.94,1.07-254.91,1.41-126.35.51-252.7.27-379.05.03-27.32-.05-53.29-4.95-74.71-24.37-16.54-14.98-26.89-33.01-31.36-54.74-1.52-7.4-1.75-14.78-1.75-22.25.02-211.68.02-423.36.02-635.04,0-47.08,29.08-84.91,74.45-96.2,6.55-1.63,13.37-2.67,20.32-2.67,214.67.09,429.35-.15,644.02.24,49.16.09,93,42.38,93.01,92.68.04,107.79.01,215.57.01,323.36Z"/>
  <path class="cls-2" d="M342.54,406.56c-11.42,0-21.88-.24-32.32.1-5.12.17-6.97-1.49-6.56-6.6.38-4.76.57-9.64-.03-14.35-1.1-8.69,1.4-11.59,10.94-11.5,57.48.53,114.96.18,172.44.39,6.04.02,9.76-1.26,12.51-7.19,3.85-8.32,10.41-14.73,18.94-18.38,5.04-2.16,6.18-5.41,6.11-10.46-.25-17.36.06-34.73-.19-52.09-.08-5.22,1.2-7.24,6.93-7.37,24.58-.55,24.58-.75,24.58,23.89,0,11.98.2,23.96-.1,35.92-.12,4.79,1.21,7.66,5.79,9.71,9.04,4.05,15.99,10.9,20.11,19.74,2.57,5.51,5.98,6.2,11.17,6.19,57.78-.13,115.56.07,173.34-.26,8-.05,10.75,1.72,10.52,10.22-.58,22.03-.15,22.04-22.64,22.04q-16.7,0-10.17,15.86c19.98,48.64,39.67,97.4,60.18,145.82,4.04,9.54,4.14,18.47,1.96,27.8-8.41,36.02-38.7,60.29-75.72,60.84-11.67.17-23.36.27-35.03-.04-37.74-1-69.25-28.81-75.01-66.08-1.11-7.17-.32-13.98,2.57-20.97,21.05-50.78,41.75-101.71,62.55-152.61,1.32-3.24,2.51-6.54,4.06-10.61-34.3,0-67.5.07-100.71-.09-3.94-.02-5.04,2.29-6.35,5-4.6,9.52-11.74,16.66-21.23,21.08-4.29,2-5.36,4.67-5.36,9.05.1,69.75.13,139.51-.04,209.26-.01,5.43,1.67,7.69,6.97,9.34,26.02,8.1,43.44,25.26,52.48,51.09,2.29,6.54.69,8.25-6.05,8.22-46.1-.21-92.21-.26-138.31.04-7.65.05-7.48-2.75-5.49-8.39,8.98-25.42,26.11-42.63,51.77-50.71,5.69-1.79,7.46-3.97,7.45-9.75-.18-69.45-.16-138.91-.01-208.37.01-5.13-1.31-8.18-6.19-10.42-8.98-4.11-15.5-11.12-19.96-19.9-1.55-3.04-2.67-5.57-6.97-5.55-33.2.16-66.4.09-100.8.09,8.53,20.97,16.66,41.1,24.9,61.18,13.83,33.73,27.47,67.53,41.75,101.06,3.64,8.54,3.97,16.84,2.27,25.39-6.95,35.01-36.81,61.22-72.5,62.42-18.45.62-37.16,2.42-55.45-2.04-30.17-7.35-53.81-33.41-58.18-63.82-1.03-7.19-.32-14.04,2.57-21,21.16-51.06,42.02-102.25,62.96-153.41,1.21-2.97,2.21-6.03,3.57-9.8Z"/>
  <path class="cls-2" d="M539.82,814.64c-42.47,0-84.94,0-127.41,0-13.5,0-13.44,0-13.47-13.92-.04-21.14,8.92-36.66,28.19-45.99,6.68-3.24,13.77-3.81,20.97-3.81,61.61-.04,123.22.09,184.83-.07,30.85-.08,53.05,23.57,48.28,60.24-.69,5.33-4.87,3.45-7.7,3.47-23.93.14-47.85.08-71.78.08-20.64,0-41.27,0-61.91,0Z"/>
  <path class="cls-1" d="M312.35,562.86c18.09-43.43,35.82-85.99,54.49-130.79,3.22,7.69,5.55,13.25,7.88,18.83,14.5,34.73,28.92,69.49,43.58,104.15,2.5,5.92,2.31,8.04-5.12,7.96-33.19-.35-66.38-.15-100.83-.15Z"/>
  <path class="cls-1" d="M768.03,562.45h-108.67c18.04-43.28,35.8-85.87,54.37-130.41,18.59,44.63,36.29,87.16,54.3,130.41Z"/>
</svg>