<?xml version="1.0" encoding="UTF-8"?>
<svg width="512" height="512" id="Layer_1" xmlns="http://www.w3.org/2000/svg" viewBox="0 0 1080 1080">
  <defs>
    <style>
      .cls-1 {
        fill: #042b62;
      }
    </style>
  </defs>
  <path class="cls-1" d="M555.29,551.47c41.56,0,75.31-.43,109.04.16,20.68.36,37.54,9.1,47.45,27.98,14.68,27.97-1.22,60.96-32.44,66.67-40.22,7.36-80.61,13.83-120.92,20.67-4.25.72-8.55,1.23-12.78,2.08-12.91,2.61-19.88,12.66-18.24,26.08,1.48,12.04,10.81,20.55,23.49,19.04,20.27-2.41,40.39-6.14,60.55-9.51,24.99-4.18,49.99-8.35,74.91-12.93,37.14-6.83,61.37-28.68,72.9-64.46,1.74-5.4,4.08-9.81,8.11-13.8,28.89-28.61,57.51-57.49,86.44-86.06,14.04-13.87,33.96-17.25,51.12-9.4,17.62,8.06,28.61,25.95,27.37,45.2-.78,12.01-6.08,22.1-14.53,30.55-37.73,37.72-75.48,75.41-113.23,113.1-15.51,15.48-31.81,30.26-46.38,46.57-28.59,32-63.86,46.83-106.56,49.19-71.63,3.96-143.13,10.27-214.71,15.37-4.75.34-7.2,3.11-10,5.9-38.19,38.07-76.35,76.17-114.52,114.26-1.84,1.83-3.64,3.7-5.51,5.5-10.05,9.71-16.64,9.78-26.55-.11-31.85-31.77-63.63-63.61-95.44-95.42-10.2-10.2-20.48-20.31-30.59-30.59-9.31-9.47-9.53-15.88-.25-25.15,66.7-66.66,133.27-133.45,200.4-199.67,25-24.67,56.71-35.8,91.12-39.39,39.11-4.08,78.38-.68,109.74-1.82Z"/>
  <path class="cls-1" d="M810.05,363.65c-20.97-31.74-48.41-57.79-74.56-84.99-12.79-13.3-25.6-26.71-34.07-43.32-2.56-5.02-5.53-6.21-10.68-6.17-27.1.22-54.2.11-81.29.11s-54.19-.03-81.29.03c-3.29,0-6.75-.9-8.92,3.3-9.54,18.44-24,33.01-38.17,47.78-21.94,22.87-44.26,45.36-63.34,70.84-36.49,48.71-46.62,102.28-31.11,161.01,1.45,5.46,2.89,6.87,8.66,4.95,22.28-7.4,45.33-11.19,68.78-11.28,67.74-.26,135.48-.54,203.22.05,32.16.28,58.12,14.4,77.91,39.92,3.63,4.67,5.36,14.05,10.02,13.56,4.95-.52,9.09-8.04,13.73-12.35,22.53-20.99,41.85-45.35,66.93-63.65,1.74-1.28,2.64-2.86,2.8-5.06.47-6.61,1.54-13.2,1.55-19.8.04-34.82-11.15-66.13-30.17-94.93ZM609.37,459.45c-41.82-.16-76.4-34.93-76.39-76.82,0-42.17,35.06-76.99,77.34-76.81,41.86.18,76.32,34.92,76.28,76.89-.04,42.43-34.72,76.9-77.23,76.74Z"/>
  <path class="cls-1" d="M608.59,182.93c-26.52,0-53.03-.15-79.55.12-5.49.06-8.02-1.62-9.91-6.89-6.17-17.17-16.34-32.34-25.07-48.23-1.8-3.28-3.52-6.61-5.04-10.03-3.7-8.33-1.68-13.12,6.89-15.88,37.26-11.98,74.85-15.07,113.07-4.5,28.12,7.77,56.57,13.7,86.02,12.27,7.19-.35,14.36-1.07,21.54-1.56,2.92-.2,5.93-.28,7.64,2.75,1.82,3.23.66,6.05-1.44,8.73-13.42,17.11-21.81,36.53-25.95,57.76-.97,4.99-3.57,5.55-7.79,5.53-26.8-.13-53.61-.07-80.41-.07Z"/>
</svg>