<?xml version="1.0" encoding="UTF-8"?>
<svg id="Layer_1" xmlns="http://www.w3.org/2000/svg" viewBox="0 0 1080 1080">
  <defs>
    <style>
      .cls-1 {
        fill: #042b62;
      }

      .cls-2 {
        fill: #263238;
      }

      .cls-3 {
        fill: #fff;
      }

      .cls-4, .cls-5 {
        opacity: .2;
      }

      .cls-6 {
        fill: #ffbe9d;
      }

      .cls-7 {
        fill: none;
      }

      .cls-8 {
        fill: #b78876;
      }

      .cls-9 {
        fill: #e0e0e0;
      }

      .cls-10 {
        fill: #aa6550;
      }

      .cls-5 {
        isolation: isolate;
      }

      .cls-11 {
        fill: #a36957;
      }

      .cls-12 {
        fill: #455a64;
      }

      .cls-13 {
        fill: #f5f5f5;
      }

      .cls-14 {
        fill: #fafafa;
      }

      .cls-15 {
        fill: #eb996e;
      }
    </style>
  </defs>
  <g id="freepik--background-complete--inject-2">
    <path class="cls-13" d="M1037.79,506.19l-9.84-17.13-15.39,2.22-12.69-16.02,6.5-15.86-17.13-11.42-12.85,12.85-16.97-3.01-6.82-19.83-20.62,2.22-1.11,17.29-15.23,7.93-16.18-11.42-16.5,12.06,8.57,18.4-9.84,14.75-17.77-.95-4.6,21.89,16.97,6.5,1.43,18.4-17.45,10.15,8.41,19.04,18.08-2.86,12.06,13.8-6.35,17.29,16.66,11.74,13.01-13.96,17.93,4.92,5.55,18.56,19.99-1.43,2.54-16.66,17.13-9.84,13.96,11.1,17.77-13.17-9.04-15.55,8.73-15.71,17.93,1.27,5.55-20.46-15.39-8.41-2.06-18.56,15.07-10.15ZM968.15,566.16c-19.35,11.1-44.1,4.44-55.21-14.91-11.1-19.35-4.44-44.1,14.91-55.21,19.35-11.1,44.1-4.44,55.21,14.91,11.1,19.51,4.44,44.1-14.91,55.21Z"/>
    <path class="cls-7" d="M863.29,409.58l-5.87-10.15-9.2,1.43-7.61-9.52,3.97-9.52-10.15-6.82-7.61,7.77-9.99-1.75-4.12-11.74-12.22,1.27-.63,10.31-9.04,4.6-9.68-6.82-9.84,7.14,5.08,10.95-5.87,8.73-10.63-.63-2.86,13.01,9.99,3.81.79,10.95-10.47,6.03,4.92,11.26,10.79-1.75,7.14,8.25-3.65,10.31,9.84,6.98,7.61-8.25,10.79,2.86,3.33,11.1,11.9-.79,1.59-9.84,10.15-5.87,8.41,6.66,10.63-7.93-5.39-9.36,5.24-9.36,10.63.79,3.33-12.06-9.2-4.92-1.27-11.1,9.2-6.03ZM821.88,445.27c-11.58,6.66-26.18,2.7-32.84-8.88-6.66-11.58-2.7-26.18,8.88-32.84,11.58-6.66,26.18-2.7,32.84,8.88,6.66,11.58,2.7,26.18-8.88,32.84h0Z"/>
    <path class="cls-9" d="M821.88,445.27c1.59-1.11,3.17-2.38,4.6-3.65,1.59-1.59,3.01-3.49,4.12-5.39,5.55-9.99,3.33-22.37-5.39-29.67-1.74-1.43-3.65-2.7-5.71-3.65-2.22-.95-4.44-1.59-6.82-1.75-10.31-1.11-19.99,4.44-24.27,13.96-1.9,4.28-2.54,9.04-1.74,13.64.79,4.12,2.54,8.09,5.24,11.26,4.44,5.24,10.79,8.25,17.61,8.41,2.38,0,4.6-.16,6.82-.79,1.9-.79,3.81-1.59,5.55-2.38,0,0,0,.16-.32.16l-.95.63c-.48.32-1.11.63-1.74.79-.79.32-1.59.63-2.38.79-2.22.63-4.6.95-6.98.95-6.98,0-13.64-3.17-18.08-8.41-2.86-3.33-4.76-7.3-5.55-11.58-.48-2.38-.48-4.6-.16-6.98s.95-4.76,1.9-6.98c4.28-9.84,14.44-15.55,25.07-14.44,4.76.48,9.36,2.54,13.01,5.55,3.33,2.86,5.87,6.5,7.3,10.63,2.22,6.66,1.59,13.8-1.9,19.99-1.11,2.06-2.54,3.97-4.28,5.39-.63.63-1.27,1.11-1.9,1.59-.48.48-.95.79-1.59,1.11l-.95.63c-.32.16-.48.16-.48.16Z"/>
    <path class="cls-9" d="M863.29,409.58l-.48.32-1.59,1.11-6.66,4.6v-.16c.32,3.01.79,6.66,1.27,11.1l-.16-.16,9.2,4.92h.16v.16c-.95,3.65-2.06,7.77-3.17,12.06v.16h-.16l-10.63-.79.32-.16-5.39,9.36v-.32c1.59,2.86,3.49,6.03,5.39,9.36l.16.16-.16.16-10.47,7.93-.16.16-.16-.16-8.41-6.66h.32l-10.15,5.87.16-.32c-.48,3.01-.95,6.5-1.59,9.84v.32h-.48l-11.9.79h-.32l-.16-.32-3.33-11.1.32.32-10.63-2.86.32-.16-7.77,8.25-.32.32-.32-.16-9.84-6.98-.32-.16.16-.32c1.11-3.17,2.38-6.66,3.65-10.31v.48l-7.14-8.25.32.16-10.79,1.75h-.32l-.16-.32c-1.59-3.49-3.33-7.46-4.92-11.26l-.16-.32.32-.16.16-.16c3.49-1.9,6.82-3.97,10.15-5.87l-.16.32c-.32-3.65-.63-7.3-.79-10.95l.32.32-10.15-3.81-.32-.16v-.32c.95-4.44,1.9-8.73,2.7-13.01v-.32h.32l10.63.63-.32.16,5.87-8.73v.32c-1.74-3.65-3.49-7.3-5.08-10.95l-.16-.32.32-.16,9.84-7.14.16-.16.16.16,9.68,6.82h-.16l9.04-4.6-.16.32c.32-3.49.48-6.98.63-10.31v-.32h.32l12.22-1.27h.32v.32l4.12,11.74-.32-.16,9.99,1.75h-.32l7.61-7.61.16-.16.16.16,10.15,6.82.16.16v.16c-1.43,3.49-2.7,6.66-3.97,9.52v-.16l7.61,9.52h-.16l9.2-1.27h0v.16l4.44,7.77,1.11,1.9c.32.48.32.63.32.63,0,0-.16-.16-.32-.63s-.63-1.11-1.11-1.9l-4.44-7.61h.16l-9.2,1.43h-.16v-.16l-7.61-9.52v-.32c1.11-2.86,2.38-5.87,3.81-9.52l.16.32-10.31-6.66h.32c-2.38,2.38-4.92,4.92-7.61,7.77l-.16.16h-.16l-9.84-1.75h-.16v-.16c-1.27-3.81-2.7-7.77-4.12-11.74l.32.16-12.22,1.27.32-.32c-.16,3.33-.48,6.82-.63,10.31v.16l-.16.16-9.04,4.6-.16.16-.16-.16-9.68-6.98h.48l-9.84,7.14.16-.48,5.08,10.95.16.16-.16.16-5.87,8.73-.16.16h-.16l-10.63-.63.48-.32c-.95,4.28-1.9,8.57-2.7,13.01l-.32-.48,9.99,3.81.32.16v.32c.32,3.65.63,7.3.79,10.95v.32l-.32.16-10.15,5.87-.16.16.16-.48,4.92,11.26-.48-.16,10.79-1.75h.16l.16.16c2.38,2.86,4.92,5.71,7.14,8.25l.16.16v.16c-1.27,3.49-2.54,6.98-3.81,10.31l-.16-.48,9.84,6.98h-.48l7.77-8.25.16-.16h.32l10.63,2.86h.16v.16c1.11,3.81,2.22,7.61,3.33,11.1l-.32-.32,11.9-.79-.32.32c.48-3.49,1.11-6.82,1.59-9.84v-.16l.16-.16,10.15-5.87.16-.16.16.16,8.25,6.66h-.32l10.63-7.77v.32c-1.9-3.17-3.65-6.35-5.24-9.36v-.32l5.24-9.36.16-.16h.16l10.63.79-.32.16c1.27-4.44,2.38-8.41,3.33-12.06l.16.16-9.2-4.92h0v-.16l-1.11-11.1v-.16h0l6.66-4.44,1.74-1.11.48.32Z"/>
  </g>
  <g id="freepik--character-2--inject-2">
    <path class="cls-2" d="M951.33,522.37l-87.25,218.29h-245.1l77.89-221.3c.63-1.59,2.06-2.7,3.81-2.7l247,.16c2.22,0,3.97,1.75,3.97,3.97,0,.63-.16,1.11-.32,1.59Z"/>
    <path class="cls-12" d="M937.85,528.72l-80.11,195.44c-.32.79-1.27,1.43-2.06,1.43h-223.21c-1.27,0-2.22-.95-2.22-2.22,0-.32,0-.48.16-.79l71.07-195.44c.32-.95,1.11-1.43,2.06-1.43h232.41c1.27,0,2.22.95,2.22,2.22-.16.16-.16.48-.32.79Z"/>
    <polygon class="cls-2" points="864.08 740.98 861.86 740.98 531.1 740.98 531.1 725.59 855.04 725.59 864.08 740.98"/>
    <path class="cls-6" d="M611.21,530.78s-6.66,79.8-21.1,83.6c-39.34,10.63-84.4,2.7-100.1-.32-1.75-1.59-3.81-3.33-6.19-5.71-1.9-2.06-3.65-4.28-4.76-6.82-1.59-3.01-2.86-6.35-3.65-9.84-.32-3.17-4.44-4.28-5.71-1.75s-2.06,12.37,3.33,21.26c.95,2.06-.16,4.6-2.22,5.55-.16.16-.48.16-.63.16-6.66,2.54-30.14,9.84-34.11,11.58-3.33,1.59-6.66,4.44-3.17,5.08s23-2.22,23-2.22c0,0-25.54,3.17-24.91,6.82.48,2.54,7.3,3.81,23.95,0,0,0-21.1,2.7-23.16,4.92-4.92,4.92,20.31,1.9,20.31,1.9-17.77,2.38-17.61,1.43-17.77,3.81-.16,1.75,3.81,2.54,13.64,2.7,7.93.16,16.02,1.75,28.08,2.54h0s152.14,42.99,172.92-23.95c11.26-36.01,11.26-49.81,15.23-73.45"/>
    <path class="cls-11" d="M462.72,644.05c0,.48-5.39,1.43-12.06,2.06s-12.22.95-12.22.48,5.39-1.43,12.06-2.06,12.22-.95,12.22-.48Z"/>
    <path class="cls-11" d="M462.72,637.07c0,.48-5.71,1.75-12.69,3.01s-13.01,1.75-13.01,1.43,5.55-1.75,12.69-3.01,12.85-1.9,13.01-1.43Z"/>
    <path class="cls-11" d="M462.4,629.93c0,.48-5.24,1.75-12.06,3.01s-12.22,1.75-12.37,1.43,5.24-1.75,12.06-3.01,12.37-1.9,12.37-1.43Z"/>
    <polygon class="cls-2" points="808.56 666.89 818.39 724.48 664.19 724.48 670.22 679.74 808.56 666.89"/>
    <path class="cls-1" d="M626.91,469.23s-22.37,67.26-20.94,69.96l49.34,11.42-28.4-81.38Z"/>
    <path class="cls-5" d="M626.91,469.23s-22.37,67.26-20.94,69.96l49.34,11.42-28.4-81.38Z"/>
    <path class="cls-1" d="M669.11,595.66l-4.76,96.29,148.96-16.82-23.32-93.12s-16.02-108.03-45.21-119.93c-10.15-3.97-20.46-7.3-30.93-9.99-18.56-5.24-38.07-6.66-57.27-4.28l-3.01.32c-12.22,1.27-22.53,9.52-26.65,20.94,0,0-.48,33.16,9.68,55.05l32.52,71.55Z"/>
    <path class="cls-12" d="M704.33,722.73c-.16,0-.48-7.77-.79-17.45-.32-9.68-.16-17.45,0-17.45s.63,7.77.79,17.45.32,17.45,0,17.45Z"/>
    <path class="cls-12" d="M712.58,692.12s.16-.32.63-.48c1.59-.48,3.17.48,3.65,2.06.16.32.16.63.16.95,0,1.43-.95,2.7-2.38,3.17-1.27.32-2.86,0-3.81-1.11-.79-.79-1.11-1.9-.95-3.01.32-1.9,1.43-2.38,1.43-2.38-.48.79-.79,1.59-.95,2.38-.16,1.75,1.11,3.17,2.7,3.33.32,0,.63,0,1.11-.16.95-.32,1.74-1.27,1.74-2.38,0-.95-.32-1.75-1.11-2.22-.48-.32-1.43-.32-2.22-.16Z"/>
    <path class="cls-12" d="M810.94,701.63c-.16.16-.32.32-.63.48-.63.48-1.11.79-1.74,1.27-2.22,1.43-4.76,2.54-7.14,3.33-17.13,6.03-36.17-.16-46.48-15.07-1.59-2.22-2.86-4.44-3.81-6.98-.32-.79-.63-1.59-.79-2.06s-.16-.79-.16-.79c0,0,.48.95,1.27,2.54,2.86,5.87,6.98,10.95,12.06,15.07,7.46,5.87,16.82,9.04,26.49,8.57,3.81-.16,7.77-.79,11.42-2.06,2.54-.79,4.92-1.9,7.14-3.01.79-.48,1.59-.95,2.38-1.27Z"/>
    <path class="cls-14" d="M690.69,512.06c-.48.63-1.11,1.27-1.75,1.75-1.75,1.59-3.49,2.86-5.39,4.12-2.86,1.9-6.03,3.17-9.36,3.65-4.12.32-8.25-.63-12.06-2.38-3.97-1.75-7.61-3.81-11.1-5.08-3.01-1.27-6.35-1.75-9.68-1.43-2.22.32-4.28,1.11-6.19,2.38-1.27.95-1.75,1.75-1.75,1.59.16-.16.16-.32.32-.48.32-.48.79-.95,1.27-1.27,1.75-1.43,3.97-2.38,6.19-2.7,3.33-.48,6.82,0,9.99,1.27,3.65,1.27,7.3,3.33,11.1,5.08,3.65,1.75,7.61,2.7,11.74,2.38,3.33-.48,6.35-1.59,9.2-3.49,1.9-1.27,3.65-2.54,5.39-3.97.79-.48,1.43-.95,2.06-1.43Z"/>
    <path class="cls-14" d="M651.66,474.3c-.79.95-1.75,1.9-2.86,2.54-5.24,3.49-11.42,4.92-17.61,3.81-1.27-.16-2.54-.48-3.65-1.11,0-.16,1.43.32,3.81.48,6.03.63,12.06-.63,17.29-3.81,1.9-.95,2.86-1.9,3.01-1.9Z"/>
    <path class="cls-14" d="M786.35,565.2c-.32.32-.63.63-1.11.79-1.11.79-2.22,1.43-3.49,1.9-4.6,1.59-9.36,2.06-14.12,1.27-3.33-.48-6.5-1.11-9.68-2.06-3.65-.95-7.3-1.75-11.1-2.22-4.12-.32-8.25,0-12.22.95-4.28,1.11-8.57,2.38-12.69,4.28-8.41,3.49-16.5,7.3-24.43,8.88-6.98,1.43-14.28,1.27-21.1-.48-4.6-1.11-9.2-2.54-13.64-4.44l-3.65-1.43c-.48-.16-.79-.32-1.27-.63.48.16.79.16,1.27.32l3.65,1.27c4.44,1.59,9.04,3.01,13.64,4.12,6.82,1.75,13.96,1.9,20.78.32,7.77-1.59,15.71-5.39,24.11-9.04,4.12-1.75,8.41-3.17,12.85-4.28,4.12-.95,8.41-1.27,12.53-.79,3.81.48,7.46,1.27,11.1,2.22,3.17.79,6.35,1.59,9.52,2.06,4.6.79,9.52.48,13.96-.95,2.06-.32,3.65-1.11,5.08-2.06Z"/>
    <path class="cls-14" d="M668.32,624.06s0-.16.16-.32l.63-.79c.95-1.11,2.06-1.9,3.17-2.7,1.9-1.27,3.97-2.22,6.03-2.86,2.86-.79,5.87-1.11,8.73-1.11,6.66.16,14.12,2.86,21.89,6.35,4.12,1.9,8.25,3.49,12.53,4.92,4.6,1.59,9.36,2.22,14.12,1.9,4.76-.48,9.36-2.06,13.48-4.44,4.12-2.22,7.93-4.76,11.58-6.82,3.49-2.06,7.46-3.65,11.42-4.44,8.73-1.59,17.77.95,24.59,6.66,1.43,1.27,2.7,2.7,3.81,4.12-.16,0-.16-.16-.32-.32-.16-.16-.48-.48-.79-.79-.32-.48-.79-.95-1.27-1.27-.63-.63-1.11-1.11-1.74-1.59-3.97-3.17-8.73-5.39-13.8-6.35-3.49-.63-6.98-.63-10.47,0-3.97.95-7.77,2.38-11.26,4.44-3.81,2.06-7.46,4.6-11.58,6.82-4.28,2.54-8.88,4.12-13.8,4.6-4.92.32-9.84-.48-14.44-2.06-4.28-1.43-8.41-3.17-12.53-5.08-7.77-3.49-15.23-6.35-21.73-6.5-2.86-.16-5.87.16-8.57.95-2.06.63-4.12,1.43-6.03,2.7-1.11,1.27-2.54,2.54-3.81,3.97Z"/>
    <path class="cls-14" d="M802.84,674.98c-.79-1.75-1.74-3.49-2.86-5.08-3.33-4.28-7.77-7.3-12.85-8.88-3.49-1.11-7.14-1.59-10.79-1.43-4.28.16-8.41.95-12.37,2.22-4.44,1.43-8.73,3.17-13.01,5.24-4.44,2.06-8.88,4.28-13.64,6.35-4.6,2.06-9.36,3.65-14.28,4.76-4.6.95-9.36,1.27-14.12.95-7.93-.63-15.86-2.54-23.16-5.39-6.35-2.38-11.26-4.76-14.75-6.35l-3.97-1.9-.95-.48-.32-.16c.16,0,.32,0,.32.16l.95.48,3.97,1.75c3.49,1.59,8.41,3.81,14.91,6.03,7.46,2.86,15.23,4.6,23,5.24,4.6.32,9.36,0,13.8-.95,4.92-1.11,9.68-2.7,14.28-4.76,4.76-2.06,9.2-4.28,13.64-6.35,4.28-2.06,8.57-3.81,13.17-5.24,4.12-1.27,8.25-2.06,12.53-2.22,3.81-.16,7.46.48,11.1,1.59,5.24,1.59,9.84,4.76,13.01,9.2.79,1.27,1.59,2.54,2.06,3.81.16.48.32.79.32,1.11q0,.16,0,.32Z"/>
    <g class="cls-4">
      <path d="M689.26,688.78c15.07-.63,30.3-5.71,41.88-15.39,15.86-13.33,23.64-34.27,25.38-55.05s-1.9-41.25-5.55-61.71c-14.12,19.83-25.7,41.4-34.27,64.25-5.55,14.91-10.63,31.41-23,41.4-4.44,3.65-9.68,6.35-13.17,10.79-3.49,4.44-4.28,11.9.32,15.39l4.12,1.27"/>
    </g>
    <path class="cls-6" d="M580.11,689.58c3.01,1.43,6.19,2.54,9.52,3.01,2.54.63,5.24.63,7.93.32,1.27-.16,2.38-.32,3.49-.48,5.08-.79,9.84-3.01,13.8-6.5,17.13-14.91,63.61-62.03,72.02-72.82,9.99-12.85,12.85-97.72,12.85-97.72l55.84,9.2s-.95,61.08-14.75,108.67c-8.73,30.3-114.22,92.49-114.38,92.49-7.77,8.57-16.66,17.77-22.05,22.37-11.26,9.36-12.06,8.41-13.01,6.98-2.38-3.97,19.2-17.29,12.85-17.13s-24.43,19.35-26.65,15.07c-3.01-5.55,19.83-19.2,21.57-20.46s0-3.97-1.59-2.7c-2.38,1.75-26.97,20.15-29.98,14.59-1.59-3.01,4.12-5.55,4.12-5.55,0,0,24.27-15.39,22.84-17.93s-16.02,6.03-20.78,9.2c-4.76,3.17-8.09,2.22-7.77-.95.16-2.22,14.44-12.53,19.2-15.55s17.93-11.26,8.09-12.53c-9.84-1.27-16.82-5.87-17.93-8.41s2.06-4.76,4.76-3.17Z"/>
    <path class="cls-1" d="M720.67,460.34c10.63-2.22,21.73,1.27,29.35,9.04,6.5,6.82,13.01,18.08,12.53,36.17-1.11,35.06-3.81,47.12-3.81,47.12l-68.85-2.38,2.7-58.86c0-.32,5.24-26.33,28.08-31.09Z"/>
    <path class="cls-5" d="M720.67,460.34c10.63-2.22,21.73,1.27,29.35,9.04,6.5,6.82,13.17,19.04,12.53,36.96-1.11,35.06-3.97,46.16-3.97,46.16l-68.85-2.38,2.86-58.06s5.24-26.97,28.08-31.73Z"/>
    <path class="cls-14" d="M761.12,532.05s-.79-.63-2.38-1.75c-2.22-1.43-4.6-2.54-7.14-3.17-3.81-.95-7.77-1.11-11.58-.32-4.76,1.11-9.2,2.7-13.64,4.76s-9.04,3.81-13.64,5.08c-3.97.95-7.93,1.11-11.9.63-2.7-.32-5.24-1.27-7.61-2.54-.63-.32-1.27-.79-1.75-1.27-.16-.16-.48-.32-.63-.48,0,0,.79.63,2.54,1.43,2.38,1.11,4.92,1.9,7.61,2.22,3.97.48,7.93.16,11.74-.79,4.6-1.27,9.2-3.01,13.48-5.24,4.44-2.06,9.04-3.81,13.8-4.76,3.97-.63,8.09-.48,11.9.63,2.54.63,5.08,1.9,7.3,3.49.63.48,1.11.95,1.59,1.43,0,.32.16.48.32.63Z"/>
    <path class="cls-14" d="M758.43,482.39c-.79.32-1.43.63-2.22.95-.79.32-1.59.63-2.7.95s-2.38.63-3.65.95c-3.17.79-6.5,1.43-9.84,1.75-4.12.48-8.09.48-12.22.48-4.12-.16-8.09-.63-12.06-1.27-3.33-.63-6.5-1.43-9.68-2.54-1.27-.48-2.38-.95-3.49-1.43-.95-.32-1.75-.79-2.54-1.27-.79-.32-1.43-.79-2.06-1.27.79.32,1.59.63,2.22.95.79.48,1.75.79,2.7,1.11,1.11.48,2.38.95,3.65,1.27,3.17.95,6.35,1.9,9.52,2.38,3.97.63,7.93,1.11,12.06,1.27,3.97.16,8.09,0,12.06-.32,3.33-.32,6.5-.79,9.68-1.59,1.43-.32,2.7-.63,3.65-.95s2.06-.48,2.7-.79c.48-.32,1.43-.48,2.22-.63Z"/>
    <path class="cls-2" d="M684.34,384.04c-.32,2.54,1.59,4.92,4.28,5.24,1.11.16,2.22-.16,3.17-.79,2.86-2.06,2.54-6.35,1.43-9.52-1.11-3.17-2.86-6.66-1.9-9.99.79-2.54,2.86-4.44,4.44-6.66,2.7-3.81,3.49-8.73,2.22-13.17-1.59-4.44-5.39-7.77-10.15-8.41-4.76-.48-9.99,1.75-13.8-.95-2.86-1.9-3.49-5.87-5.87-8.25-3.65-3.97-9.84-3.65-14.91-2.06s-10.15,3.97-15.39,3.49c-4.44-.32-8.41-2.86-12.69-3.97-12.37-3.49-25.22,3.81-28.56,16.18-1.9,6.82-.48,14.28,3.65,19.99,1.9,2.86,4.92,4.92,8.25,5.87"/>
    <path class="cls-6" d="M676.57,483.5h0c-14.28,2.7-28.08-6.82-30.78-21.1-1.59-8.09-2.86-15.07-2.86-15.07,0,0-21.26.32-25.07-20.31-3.81-20.62-8.09-65.99-8.09-65.99l-.32-2.7c22.21-14.44,50.76-13.33,74.24-.95l.63,4.28,13.48,93.12c1.75,13.64-7.61,26.18-21.26,28.71Z"/>
    <path class="cls-3" d="M653.41,411.32l-13.33,6.5c2.54,2.7,6.5,3.49,9.84,1.59,5.87-3.49,3.49-8.09,3.49-8.09Z"/>
    <path class="cls-15" d="M642.94,447.02c9.52-1.43,18.56-5.71,25.7-12.22,0,0-3.81,16.02-24.75,17.61l-.95-5.39Z"/>
    <path class="cls-6" d="M685.61,375.47c.48-.16,15.23-3.81,15.71,14.12s-17.77,12.53-17.77,11.9,2.06-26.02,2.06-26.02Z"/>
    <path class="cls-15" d="M688.94,394.98s.32.16.79.48c.79.32,1.59.32,2.38,0,1.9-.79,3.33-3.81,3.33-6.98,0-1.59-.32-3.01-.95-4.44-.32-1.11-1.27-2.06-2.38-2.38-.79-.16-1.43.16-1.75.95-.16.48-.16.79-.16.95s-.32-.32-.32-.95c.16-.48.32-.79.63-1.11.48-.32,1.11-.63,1.75-.48,1.43.32,2.7,1.27,3.33,2.7.79,1.59,1.27,3.17,1.27,4.92,0,3.65-1.75,6.98-4.28,7.77-.95.32-2.06.16-2.86-.32-.79-.63-.95-.95-.79-1.11Z"/>
    <path class="cls-2" d="M606.45,370.24s13.33,4.28,28.56-6.03c9.99-6.82,22.05-11.1,25.22-9.36s5.08,12.69,16.18,14.44c0,0,2.22,21.1,10.47,19.2,8.25-1.9-1.43-33.79-1.43-33.79l-21.1-11.26-23-1.11-24.43,6.19-12.85,10.47,2.38,11.26Z"/>
    <path class="cls-2" d="M684.5,336.92c-3.17.63-6.03,2.22-8.09,4.6,1.27-3.17,4.6-5.08,8.09-4.6Z"/>
    <path class="cls-2" d="M674.66,329.94c.95,2.06,1.43,4.28,1.43,6.5,0,1.59-.32,3.17-.79,4.76-.16.63-.48,1.27-.95,1.75.48-2.06.79-4.28.95-6.5,0-3.65-.79-6.5-.63-6.5Z"/>
    <path class="cls-2" d="M616.28,391.02c0,1.75,1.43,3.01,3.17,2.86,1.59,0,3.01-1.27,3.01-2.86h0c0-1.59-1.43-2.86-3.01-2.86-1.59-.16-3.01,1.11-3.01,2.7l-.16.16Z"/>
    <path class="cls-2" d="M616.28,388.64c.32.32,2.54-1.43,5.87-1.59s5.71,1.43,6.03.95c.16-.16-.32-.95-1.27-1.59-1.43-.95-3.17-1.27-4.92-1.27s-3.33.63-4.6,1.75c-.95.95-1.27,1.59-1.11,1.75Z"/>
    <path class="cls-2" d="M648.49,389.43c.16,1.59,1.59,2.86,3.17,2.7,1.59,0,2.86-1.27,2.86-3.01v-.16c-.16-1.59-1.59-2.86-3.17-2.7-1.59.16-2.86,1.43-2.86,3.17q0-.16,0,0Z"/>
    <path class="cls-2" d="M647.54,387.05c.48.32,2.54-1.59,5.71-1.9s5.87,1.11,6.19.63-.32-.95-1.43-1.59c-1.43-.79-3.17-1.27-4.92-.95-1.75.16-3.33.79-4.6,1.9-.79.95-1.11,1.75-.95,1.9Z"/>
    <path class="cls-2" d="M638.18,412.28c-1.75-.32-3.65-.48-5.39-.48-.79,0-1.59-.16-1.9-.63-.16-.79,0-1.75.32-2.54.63-2.06,1.27-4.28,1.9-6.5,2.54-9.36,4.28-16.97,3.97-17.13s-2.7,7.46-5.24,16.82c-.63,2.22-1.27,4.44-1.75,6.66-.48,1.11-.48,2.22-.16,3.33.32.63.79.95,1.43,1.11h1.43c1.74-.16,3.65-.32,5.39-.63Z"/>
    <path class="cls-2" d="M645.63,377.22c.48.79,3.65.16,7.46.16s7.14.79,7.46,0c.16-.32-.48-1.11-1.75-1.9-3.49-1.75-7.77-1.9-11.42-.16-1.43.79-2.06,1.59-1.75,1.9Z"/>
    <path class="cls-2" d="M615.81,379.91c.63.63,2.86-.32,5.55-.63s5.08,0,5.55-.79c.16-.32-.16-1.11-1.27-1.75-2.86-1.43-6.35-.95-8.88,1.11-.95.95-1.27,1.75-.95,2.06Z"/>
  </g>
  <g id="freepik--character-1--inject-2">
    <path class="cls-2" d="M40.42,528.4l85.03,212.58h238.59l-75.83-215.43c-.48-1.59-2.06-2.7-3.65-2.54l-240.5.16c-2.22,0-3.97,1.75-3.81,3.97-.16.32,0,.79.16,1.27Z"/>
    <path class="cls-12" d="M53.43,534.27l78.05,190.37c.32.79,1.11,1.43,2.06,1.43h217.34c1.27,0,2.22-.95,2.22-2.22,0-.32,0-.48-.16-.79l-69.17-190.37c-.32-.79-1.11-1.43-2.06-1.43H55.49c-1.27,0-2.22.95-2.22,2.06,0,.32.16.63.16.95Z"/>
    <polygon class="cls-2" points="125.45 740.98 127.52 740.98 449.71 740.98 449.71 725.91 134.18 725.91 125.45 740.98"/>
    <path class="cls-8" d="M498.42,533.95s6.03-7.77,1.9-16.66c-4.12-8.88-14.75-19.04-14.75-19.04-3.17-.79.95-18.72,2.86-24.75,1.9-6.03-.16-9.2-3.49-7.93-2.22.95-8.25,18.88-9.84,24.75-.95,3.17-2.54,9.52-4.6,13.01-1.75,2.86-3.65,3.81-5.71-.79-4.44-9.99-11.42-16.02-14.28-16.34s-4.44,3.81-1.9,6.03c2.38,2.7,4.6,5.71,6.19,9.04,1.43,2.54,2.38,5.39,2.86,8.25.48,2.54.79,4.76.95,6.82.48,4.92.48,9.99-.16,15.07l-59.97,70.75-13.01-47.75-1.27-3.65-51.4,19.2c-1.59.32,11.1,37.91,19.04,61.08,3.97,11.58,12.69,20.78,23.95,25.38h0c18.08,7.3,38.71,1.43,50.13-14.28l63.93-92.8-1.43-.95,1.27.63,8.73-15.07Z"/>
    <path class="cls-10" d="M490.32,502.86c-.16.63-.32,1.11-.48,1.75l-1.75,4.6-2.54,6.98c-.48,1.43-1.11,2.7-1.9,3.97-.63.63-1.27,1.11-2.22,1.27-.95.16-1.9-.32-2.38-.95-.63-.63-.95-1.59-.95-2.38s0-1.59.32-2.38c.32-1.43.79-2.86,1.11-4.12.79-2.7,1.59-5.08,2.38-6.98s1.43-3.49,1.9-4.6c.16-.63.48-1.11.79-1.59-.16.63-.32,1.11-.63,1.75-.32,1.11-.95,2.7-1.59,4.6s-1.43,4.28-2.22,6.98c-.32,1.27-.79,2.7-1.11,4.12-.48,1.43-.32,2.86.48,4.12.48.48,1.11.79,1.75.79.63-.16,1.27-.48,1.75-.95.79-1.11,1.43-2.38,1.9-3.81l2.7-6.82,1.9-4.6c.32-.63.48-1.27.79-1.75Z"/>
    <path class="cls-10" d="M496.51,509.84c0,.48-.16,1.11-.48,1.59-.32.95-.79,2.38-1.59,4.12s-1.43,3.81-2.38,6.03c-.48,1.27-1.27,2.38-2.38,3.17-.63.48-1.43.63-2.06.63-.79,0-1.59-.32-2.06-.95-.95-1.11-1.43-2.54-1.27-4.12.16-1.27.48-2.54.79-3.81.63-2.06,1.27-4.12,2.06-6.19.79-1.75,1.43-3.01,1.9-3.97.16-.48.48-.95.79-1.43.16,0-.79,2.06-2.22,5.55-.79,2.06-1.43,3.97-1.9,6.03-.32,1.27-.63,2.38-.63,3.65-.16,1.27.16,2.54,1.11,3.49.79.79,2.22.95,3.17.16.95-.63,1.75-1.75,2.06-2.86l2.54-5.87c.79-1.75,1.27-3.01,1.75-3.97,0-.32.32-.79.79-1.27Z"/>
    <path class="cls-10" d="M499.84,516.98c-.32,1.59-.63,3.01-1.27,4.6-.48,1.43-.95,3.01-1.59,4.76-.32,1.11-1.11,1.9-2.06,2.54-.63.32-1.27.32-1.9,0-.63-.16-1.11-.63-1.43-1.27-.63-.95-.79-2.22-.63-3.33.16-2.7.79-5.39,2.06-7.93.48-.95,1.11-2.06,1.9-2.86.48-.63.79-.95.95-.95s-1.11,1.43-2.22,4.12c-.63,1.59-1.11,3.17-1.43,4.76-.16.95-.32,1.9-.32,2.86-.16.95,0,2.06.48,2.86s1.43,1.11,2.22.79c.79-.48,1.27-1.11,1.59-2.06.63-1.75,1.11-3.33,1.75-4.76.48-1.43,1.11-2.86,1.9-4.12Z"/>
    <path class="cls-10" d="M479.38,532.21c-.16,0,0-1.27-.16-3.17-.48-5.24-2.86-9.99-6.66-13.33-1.43-1.27-2.54-1.9-2.54-2.06,1.11.32,2.06.79,2.86,1.59,4.28,3.33,6.82,8.41,6.98,13.8,0,1.11-.16,2.22-.48,3.17Z"/>
    <path class="cls-2" d="M146.24,724.64l155.15.79,1.9-27.29-121.04-53.78c-10.47,12.69-17.45,27.92-20.15,44.1l-15.86,36.17"/>
    <path class="cls-12" d="M219.53,671.81c-.48.63-.95,1.11-1.43,1.59-.63.63-1.11,1.11-1.75,1.75-.79.79-1.59,1.43-2.54,2.06-1.11.79-2.22,1.59-3.33,2.22-1.27.79-2.54,1.59-3.97,2.22-6.35,3.17-13.17,4.92-20.31,5.24-1.59.16-3.01.16-4.6,0-1.27,0-2.7-.16-3.97-.48-1.11-.16-2.06-.32-3.17-.63-.79-.16-1.59-.32-2.38-.63-.63-.16-1.43-.32-1.9-.79,0-.16,2.86.79,7.77,1.43,1.27.16,2.54.32,3.97.32h4.6c6.98-.32,13.64-2.06,19.83-5.08,1.43-.79,2.7-1.43,3.97-2.22,1.11-.63,2.22-1.43,3.33-2.22,3.65-2.54,5.71-4.76,5.87-4.76Z"/>
    <path class="cls-12" d="M261.73,722.26c.48-1.75,1.11-3.49,1.9-5.24,1.27-3.49,3.01-7.77,4.76-12.53s3.49-9.2,4.92-12.53c.63-1.75,1.43-3.49,2.22-5.08-.48,1.75-.95,3.65-1.75,5.39-1.11,3.17-2.86,7.77-4.6,12.69s-3.65,9.36-5.08,12.53c-.63,1.59-1.27,2.86-1.75,3.81-.16.16-.48.63-.63.95Z"/>
    <path class="cls-12" d="M262.52,685.45c-.95.48-1.59,1.11-2.06,1.9-.48.95-.32,1.9.16,2.86.79,1.43,2.7,1.9,4.12,1.11.79-.48,1.27-1.11,1.43-2.06.32-.95,0-2.06-.79-2.7-.63-.63-1.59-1.11-2.54-1.27,0,0,.32-.16.79-.16.79,0,1.59.48,2.22.95.95.79,1.27,2.06,1.11,3.33-.32,2.06-2.38,3.33-4.28,3.01-1.11-.16-2.06-.95-2.54-1.9-.63-1.11-.63-2.38,0-3.49.32-.63.95-1.27,1.75-1.59.32-.16.63-.16.63,0Z"/>
    <path class="cls-1" d="M367.38,493.02s22.69,66.79,21.42,69.48l-45.85,12.53,24.43-82.02Z"/>
    <path class="cls-5" d="M367.38,493.02s22.69,66.79,21.42,69.48l-45.85,12.53,24.43-82.02Z"/>
    <path class="cls-1" d="M330.26,603.59l-14.44,61.39-9.36,34.42-124.06-55.21,39.34-63.46s21.57-88.2,52.03-104.54c22.05-11.9,40.93-7.77,43.78-7.77l26.49,3.65c.63.16,1.11.16,1.75.32,14.12,2.86,23.64,16.02,23,30.3-.63,11.42-2.54,30.93-8.88,45.37-8.73,19.51-29.67,55.52-29.67,55.52Z"/>
    <path class="cls-14" d="M310.9,685.61l-.95-.48c-.95-.48-1.75-.95-2.54-1.43-3.17-2.06-6.03-4.6-8.25-7.61-3.65-4.76-5.71-10.47-6.03-16.5-.16-3.81.48-7.46,2.06-10.95.95-1.9,2.06-3.49,3.65-4.92s3.65-2.38,5.71-2.86c7.46-.79,14.12,4.6,14.91,12.06h0c.16,2.54-.32,5.24-1.43,7.46-2.22,4.92-6.66,8.73-11.9,10.15-5.55,1.43-11.42.79-16.66-1.59-5.39-2.54-10.15-6.35-13.8-11.1-1.9-2.38-3.65-4.92-5.24-7.61-1.59-2.7-2.86-5.55-3.65-8.73s-.79-6.35-.16-9.52,2.38-6.19,4.92-8.41c2.7-2.22,6.03-3.17,9.52-2.7,1.75.16,3.33.79,4.76,1.75s2.54,2.38,3.17,3.97c1.27,3.17,1.43,6.82.16,9.99-1.27,3.17-3.33,5.87-6.03,7.77-10.63,7.3-24.11,8.88-36.17,4.12-5.55-2.38-10.31-6.19-13.64-11.1-3.33-4.6-5.24-10.15-5.39-15.86,0-2.7.32-5.39,1.27-8.09.95-2.54,2.54-4.76,4.6-6.5,2.06-1.59,4.6-2.54,7.14-2.7s5.08.63,6.98,2.38c1.75,1.75,2.86,3.97,3.01,6.35.32,2.22-.16,4.6-.95,6.66-1.9,3.81-5.08,6.82-9.2,8.25-3.49,1.27-7.14,2.06-10.95,2.06-6.03,0-11.9-1.11-17.29-3.49-3.49-1.43-6.66-3.49-9.52-5.87-.95-.79-1.75-1.43-2.22-1.9s-.63-.79-.63-.79c0,0,.32.16.79.63s1.27,1.11,2.22,1.9c7.61,6.03,17.13,9.2,26.81,9.04,3.65,0,7.3-.63,10.79-2.06,1.9-.79,3.65-1.75,5.08-3.01,1.59-1.27,2.86-3.01,3.65-4.92.79-2.06,1.11-4.12.95-6.35-.16-2.22-1.27-4.44-2.86-6.03-1.75-1.59-4.12-2.38-6.5-2.22-2.54.16-4.76.95-6.82,2.54-1.9,1.59-3.49,3.81-4.28,6.19-.95,2.54-1.27,5.08-1.27,7.77.16,5.55,2.06,10.95,5.24,15.55,3.33,4.76,7.93,8.57,13.33,10.79,11.74,4.76,25.07,3.17,35.38-3.97,2.54-1.9,4.6-4.44,5.87-7.46,1.11-3.01,1.11-6.35-.16-9.36-.63-1.43-1.59-2.7-3.01-3.65-1.27-.95-2.86-1.43-4.44-1.59-3.17-.32-6.35.63-8.88,2.54-2.38,2.06-4.12,4.92-4.76,7.93s-.63,6.19.16,9.2c1.43,6.03,4.92,11.26,8.73,15.86,3.65,4.6,8.25,8.41,13.48,10.95,5.08,2.38,10.79,2.86,16.18,1.59,5.08-1.27,9.36-4.92,11.58-9.68,1.11-2.22,1.59-4.76,1.27-7.14-.63-7.14-6.98-12.37-14.12-11.74h0c-2.06.32-3.97,1.27-5.55,2.7-1.43,1.27-2.7,3.01-3.49,4.76-1.59,3.33-2.38,6.98-2.06,10.63.32,5.87,2.38,11.58,5.87,16.34,2.22,3.01,4.92,5.55,8.09,7.61.79.48,1.59.95,2.54,1.43l.95.95Z"/>
    <path class="cls-14" d="M348.18,567.11l-.32-.32-.79-1.11c-.95-1.43-1.9-2.86-2.7-4.44-2.7-5.87-3.33-12.37-2.06-18.72.95-4.44,2.86-8.41,5.87-11.74.95-.95,1.9-1.59,3.17-2.06s2.7-.32,3.81.32c1.11.63,2.06,1.75,2.7,3.01.48,1.27.79,2.54.79,3.97,0,5.71-2.06,11.1-5.55,15.55-1.9,2.38-4.12,4.28-6.66,5.87-2.7,1.59-5.71,2.54-8.73,2.54-3.17,0-6.19-1.11-8.57-3.17-2.22-1.9-3.97-4.44-5.08-7.3-.95-2.7-1.43-5.55-1.43-8.41,0-2.7.32-5.55.95-8.09.32-1.27.95-2.54,1.75-3.65.79-1.11,2.06-1.9,3.33-2.22,1.27-.32,2.7,0,3.81.63,1.11.63,1.9,1.59,2.7,2.54.63.95,1.11,2.06,1.43,3.17.32,1.11.48,2.22.48,3.33,0,2.06-.32,4.28-1.11,6.35-1.27,3.49-3.33,6.5-6.03,8.88-2.06,1.9-4.28,3.49-6.5,4.92-1.9,1.11-3.49,1.9-4.6,2.54l-1.27.63c-.16.16-.32.16-.48.16l.32-.32,1.11-.63c.95-.63,2.54-1.43,4.44-2.7,2.38-1.43,4.44-3.01,6.5-4.92,2.7-2.38,4.6-5.39,5.87-8.73.63-1.9.95-3.97.95-6.03,0-1.11-.16-2.22-.48-3.17-.32-1.11-.79-2.06-1.43-3.01s-1.43-1.75-2.38-2.38-2.22-.79-3.33-.63c-2.38.48-3.81,2.86-4.6,5.24-.63,2.54-.95,5.24-.95,7.93,0,2.86.48,5.55,1.27,8.25.95,2.7,2.54,5.08,4.76,6.98,2.22,1.9,5.08,3.01,8.09,3.01,3.01-.16,5.87-.95,8.41-2.54,2.54-1.43,4.76-3.33,6.5-5.55,3.49-4.28,5.39-9.52,5.55-15.07,0-1.27-.32-2.54-.79-3.65-.48-1.11-1.27-2.06-2.38-2.54-.95-.48-2.22-.63-3.33-.32-1.11.32-2.06.95-2.86,1.75-2.86,3.17-4.92,7.14-5.87,11.42-.79,3.49-.95,7.14-.48,10.63.32,2.7,1.11,5.24,2.22,7.77.63,1.59,1.59,3.01,2.54,4.44l.79,1.11c.63.32.63.48.63.48Z"/>
    <path class="cls-8" d="M310.27,548.39s0,56.48,14.12,61.71c38.39,14.59,84.4,11.1,100.58,9.68,1.9-1.43,4.12-3.01,6.66-5.08l5.39-4.44s25.38,4.76,25.07,6.19-9.84,4.44-19.67,2.22c-1.11,2.06-.32,4.6,1.75,5.71.16.16.48.16.63.32,6.5,3.17,29.35,12.85,33,15.07,3.17,1.9,6.19,5.08,2.54,5.39s-22.84-4.6-22.84-4.6c0,0,25.38,5.71,24.27,9.36-.63,2.54-7.77,3.01-24.11-2.38,0,0,20.78,4.92,22.84,7.3,4.44,5.55-20.62-.16-20.62-.16,17.61,4.12,17.45,3.17,17.45,5.55,0,1.9-4.12,2.22-13.96,1.27-7.93-.63-16.34.16-28.4-.16h0s-156.89,27.92-171.17-41.25c-7.77-37.28-6.35-51.08-7.93-75.2"/>
    <path class="cls-10" d="M449.08,652.46c-.16.48,5.24,1.9,11.9,3.33s12.22,2.06,12.22,1.75-5.24-1.9-11.9-3.33-12.06-2.22-12.22-1.75Z"/>
    <path class="cls-10" d="M449.87,645.63c-.16.48,5.55,2.38,12.53,4.28s12.85,3.01,12.85,2.7-5.55-2.38-12.53-4.28c-6.98-1.9-12.69-3.17-12.85-2.7Z"/>
    <path class="cls-10" d="M450.82,638.34c-.16.48,5.08,2.38,11.74,4.12s12.06,3.01,12.22,2.54-5.08-2.38-11.74-4.12-12.06-2.86-12.22-2.54Z"/>
    <path class="cls-1" d="M281.24,493.18c-10.31-.95-20.31,3.81-26.33,12.22-5.39,7.46-10.15,19.51-7.77,37.28,4.76,34.74,8.57,46.32,8.57,46.32l63.77-10.15-8.73-58.22s-7.77-25.22-29.51-27.44Z"/>
    <path class="cls-5" d="M281.24,493.18c-10.31-.95-20.31,3.81-26.33,12.22-5.39,7.46-10.15,19.51-7.77,37.28,4.76,34.74,8.57,46.32,8.57,46.32l63.77-10.15-8.73-58.22s-7.77-25.22-29.51-27.44Z"/>
    <path class="cls-10" d="M441.94,611.37c-.48,0-.95,0-1.43-.16-.95-.16-2.22-.48-3.97-.63-.95,0-1.75.48-2.54.95-.95.63-1.75,1.27-2.54,2.06-2.06,1.75-3.97,3.81-5.71,5.71h0c-4.92,1.43-9.99,2.22-15.23,2.38-6.03,0-12.06-.16-18.08-.79-14.59-.95-27.92-1.9-37.44-3.17-4.76-.63-8.57-1.27-11.26-1.9-1.27-.32-2.38-.48-3.01-.63-.32,0-.63-.16-1.11-.32.32,0,.79,0,1.11.16l3.01.48c2.7.48,6.5.95,11.26,1.59,9.52,1.11,22.84,1.9,37.44,3.01,6.35.48,12.53.95,18.08.79,5.08,0,10.15-.79,15.07-2.22l-.16.16c1.9-2.06,3.81-3.97,5.87-5.71.79-.79,1.75-1.43,2.7-2.06.79-.63,1.75-.95,2.7-.95,1.75.32,3.01.63,3.81.79.63.16,1.11.32,1.43.48Z"/>
    <path class="cls-14" d="M315.03,546.33c-.16,0-.32.16-.48.16l-1.43.32-2.38.16c-1.11,0-2.22,0-3.33-.16-4.92-.63-9.68-2.54-13.48-5.87-1.59-1.43-3.17-3.01-4.28-4.76-1.43-1.9-2.38-4.12-3.01-6.5-.32-1.27-.48-2.54-.32-3.81.16-1.43.63-2.7,1.43-3.81.95-1.11,2.38-1.75,3.81-1.75s2.86.32,4.12.95c2.7,1.43,4.76,3.65,6.03,6.35,1.43,2.86,2.06,5.87,1.75,9.04-.16,3.33-1.43,6.35-3.33,8.88-4.28,5.39-11.1,8.25-17.93,7.61-6.82-.95-12.85-4.6-16.82-10.31-1.9-2.54-3.17-5.71-3.49-8.88-.16-1.59,0-3.17.48-4.76.48-1.43,1.43-2.86,2.54-3.81,1.11-1.11,2.54-1.75,4.12-2.06,1.43-.16,3.01,0,4.28.79,2.54,1.27,4.28,3.81,4.92,6.5.63,2.54.63,5.24,0,7.77-.48,2.38-1.43,4.6-2.7,6.5-3.81,6.19-10.79,9.84-18.08,9.52-1.9,0-3.81-.48-5.71-.95-.63-.16-1.27-.48-1.9-.79,0,0,.63.32,1.9.63,1.9.48,3.65.79,5.71.79,3.01,0,6.03-.48,8.73-1.75,3.65-1.59,6.66-4.28,8.73-7.77,1.27-1.9,2.06-4.12,2.54-6.35.63-2.38.63-4.92,0-7.46s-2.22-4.76-4.6-6.03c-1.27-.63-2.54-.79-3.97-.63-1.43.32-2.7.95-3.65,1.9-1.11.95-1.9,2.22-2.38,3.49-.48,1.43-.63,2.86-.48,4.44.32,3.01,1.59,6.03,3.33,8.57,3.65,5.55,9.68,9.2,16.18,9.99,6.66.63,13.17-2.06,17.29-7.3,3.65-4.92,4.28-11.58,1.59-17.13-.63-1.27-1.43-2.38-2.38-3.49-.95-.95-2.06-1.9-3.33-2.54-1.11-.63-2.54-.95-3.81-.95s-2.38.48-3.33,1.43c-.79.95-1.27,2.06-1.43,3.33-.16,1.27,0,2.38.32,3.65.63,2.22,1.59,4.28,2.86,6.19,1.11,1.75,2.54,3.33,4.12,4.76,1.43,1.27,3.01,2.22,4.6,3.17,2.7,1.43,5.55,2.38,8.57,2.7,3.01.63,5.55.63,8.09,0Z"/>
    <path class="cls-2" d="M281.56,370.39c-3.49-9.68-14.12-14.75-23.8-11.26-3.81,1.43-7.14,3.97-9.36,7.3-2.38,3.65-3.49,7.93-4.92,12.06s-3.81,8.25-7.61,10.31c-4.44,2.38-10.47,1.59-14.59,4.76-4.6,3.33-4.76,10.95-.79,15.23,3.97,4.28,10.47,5.08,15.86,3.01-1.27,3.33-2.06,6.82-2.22,10.47-.16,3.65,1.59,7.14,4.6,9.2,3.17,1.75,7.14,1.75,10.31-.16,3.17-1.9,5.87-4.44,7.77-7.3.48,2.54,1.43,4.92,2.54,7.3,1.27,2.22,3.49,3.97,6.03,4.44,3.17.32,6.35-1.27,8.09-3.97s2.7-5.71,2.86-8.88c.95-7.77.48-15.55-1.43-23.16-1.27-4.92-2.86-9.84-1.9-14.75s5.71-9.52,10.47-8.09"/>
    <path class="cls-12" d="M219.05,403.87c.32.16.48.32.79.32.79.32,1.59.48,2.54.63,7.77,1.59,16.02-.63,21.89-6.19,2.06-1.9,3.65-4.12,4.92-6.66,1.27-2.7,2.22-5.55,2.86-8.41.48-2.86,1.27-5.55,2.38-8.25.95-2.38,2.7-4.6,4.76-6.19,3.65-2.7,8.25-3.49,12.69-2.54,3.01.79,5.71,2.22,7.93,4.28,1.59,1.43,2.38,2.54,2.38,2.38s-.16-.32-.48-.79c-.48-.63-.95-1.43-1.59-1.9-2.22-2.22-5.08-3.97-8.09-4.76-4.6-1.27-9.68-.48-13.64,2.38-2.38,1.59-4.12,3.97-5.24,6.5-1.11,2.7-1.9,5.55-2.38,8.57-.48,2.86-1.43,5.55-2.7,8.09-3.33,6.5-9.36,11.1-16.5,12.69-3.01.63-6.03.79-9.2.32-2.22-.16-3.33-.63-3.33-.48Z"/>
    <path class="cls-12" d="M260.77,433.22s.16-.16.63-.48c.63-.48,1.11-.95,1.59-1.59,1.59-2.22,2.54-4.76,2.86-7.46.32-3.97-.16-7.93-1.43-11.74-1.27-4.28-3.01-8.88-3.81-13.8-.79-4.6.16-9.36,2.54-13.48,1.9-3.33,4.76-6.03,8.25-7.61,2.38-1.11,4.92-1.9,7.46-2.06.95,0,1.9-.16,2.86-.16-.95-.32-1.9-.32-2.86-.32-2.7,0-5.39.63-7.77,1.75-3.65,1.59-6.82,4.44-8.88,7.77-2.54,4.28-3.65,9.36-2.86,14.28.79,5.24,2.7,9.68,3.97,13.96,1.27,3.65,1.75,7.46,1.59,11.42-.16,2.54-.95,5.08-2.38,7.3-.95,1.43-1.75,2.06-1.75,2.22Z"/>
    <path class="cls-2" d="M366.74,403.07c12.37-28.71-4.6-46.32-15.71-52.51-6.66-3.81-14.44-4.6-22.05-4.76-7.46-.32-15.07.32-22.37,2.06s-14.12,5.55-19.35,10.95c-9.04,9.68-11.1,24.11-10.31,37.44.95,15.71,5.55,31.09,13.33,44.74.79,1.9,2.22,3.33,3.81,4.6,1.75,1.11,4.12.63,5.39-.95"/>
    <path class="cls-8" d="M345.49,474.94l-.48-15.07s17.61-3.01,21.42-26.02c1.75-11.42,1.27-30.3.32-45.69-.79-13.48-12.37-23.64-25.86-22.84-.32,0-.79,0-1.11.16l-39.98,4.28c-4.12.48-7.3,3.97-7.3,8.25h0l5.24,98.99c.63,12.69,11.1,22.69,23.8,22.53h0c13.17.16,23.95-10.47,23.95-23.64v-.95Z"/>
    <path class="cls-2" d="M362.62,401.17c0,1.59-1.27,2.86-2.86,3.01-1.59.16-3.01-1.11-3.01-2.7h0c0-1.59,1.27-2.86,2.86-3.01,1.43-.16,2.86,1.11,3.01,2.7h0Z"/>
    <path class="cls-2" d="M362.46,397.84c-.32.32-2.54-1.27-5.87-1.27s-5.55,1.59-5.87,1.27.16-.95,1.27-1.59c1.43-.95,3.01-1.43,4.76-1.43,1.59,0,3.33.48,4.6,1.43.95.63,1.43,1.43,1.11,1.59Z"/>
    <path class="cls-2" d="M330.73,401.96c0,1.59-1.27,2.86-2.86,3.01-1.59.16-3.01-1.11-3.01-2.7h0c0-1.59,1.27-2.86,2.86-3.01,1.43-.16,2.86,1.11,3.01,2.7h0Z"/>
    <path class="cls-2" d="M331.21,398.47c-.32.32-2.54-1.27-5.71-1.27s-5.55,1.59-5.87,1.27.16-.95,1.27-1.59c1.43-.95,3.01-1.43,4.76-1.43,1.59,0,3.33.48,4.6,1.43.79.63,1.11,1.27.95,1.59Z"/>
    <path class="cls-2" d="M342.79,421.95c1.75-.48,3.49-.79,5.24-.95.79-.16,1.59-.16,1.75-.79,0-.79-.16-1.75-.48-2.38l-2.38-6.19c-3.33-8.88-5.71-16.02-5.39-16.18s3.33,6.98,6.66,15.71c.79,2.22,1.59,4.28,2.38,6.19.48.95.63,2.06.48,3.17-.16.63-.79.95-1.43,1.27-.48.16-.95.16-1.43.16-1.9.32-3.65.32-5.39,0Z"/>
    <path class="cls-10" d="M345.01,459.71c-10.79.16-21.57-2.7-30.93-8.25,0,0,7.46,15.86,30.62,13.64l.32-5.39Z"/>
    <path class="cls-10" d="M341.36,429.73c-1.27-1.59-3.17-2.38-5.08-2.22-1.43.16-2.7.79-3.65,1.9-.79,1.11-.95,2.54-.32,3.81,1.11,1.11,2.7,1.59,4.12,1.11s2.86-1.43,4.12-2.38c.32-.32.63-.63.95-.95.16-.32.16-.79-.16-1.27"/>
    <path class="cls-2" d="M333.43,424.17c.48,0,.48,3.49,3.49,5.87s6.66,2.06,6.66,2.54c0,.16-.79.63-2.38.63-2.06,0-3.97-.63-5.55-1.9s-2.54-3.01-2.7-4.92c-.16-1.27.16-2.22.48-2.22Z"/>
    <path class="cls-2" d="M332.64,392.76c-.32.95-3.49.48-7.14.95s-6.82,1.43-7.3.63c-.16-.32.32-1.27,1.59-2.06,1.59-1.11,3.49-1.75,5.39-1.9,1.9-.16,3.81,0,5.71.63,1.11.79,1.9,1.43,1.75,1.75Z"/>
    <path class="cls-2" d="M361.35,388.64c-.63.79-2.7,0-5.39,0s-4.92.48-5.39-.32c-.16-.32.16-1.11,1.11-1.75,1.27-.79,2.86-1.27,4.44-1.11,1.59,0,3.01.48,4.28,1.43.95.63,1.27,1.43.95,1.75Z"/>
    <path class="cls-2" d="M366.59,388c-3.97-19.67-9.52-11.9-15.71-21.26-9.04,9.04-29.67,19.51-42.2,21.57-1.27.16-2.54.48-3.65,1.27-1.9,1.43-2.06,4.28-2.06,6.66.32,6.82-.32,13.64-1.75,20.46-1.43,6.82-4.76,12.85-9.84,17.61-7.61-16.02-8.41-34.74-4.92-52.19,1.43-7.14,3.81-14.59,9.36-19.04,4.12-3.17,9.36-4.6,14.44-5.39,12.69-2.38,26.02-2.86,37.91,1.59s21.42,9.99,23,22.84"/>
    <path class="cls-12" d="M279.33,374.2c.79.63,1.75,1.11,2.54,1.43.95.48,2.06.95,3.17,1.27l2.06.63,2.38.63c3.81.95,7.77,1.43,11.74,1.59,9.84.32,19.51-1.27,28.56-4.76,2.06-.95,4.12-1.75,5.87-2.7l2.54-1.43,2.22-1.43c1.27-.79,2.54-1.75,3.65-2.7l1.43-1.11,1.11-1.11c.79-.63,1.43-1.43,1.9-2.22-.16-.16-3.01,2.86-8.73,6.5l-2.22,1.43-2.54,1.27c-1.75.95-3.65,1.59-5.71,2.54-4.44,1.59-9.2,2.86-13.8,3.65-4.76.79-9.52,1.11-14.28.95-3.97-.16-7.77-.48-11.58-1.27-6.5-1.43-10.15-3.49-10.31-3.17Z"/>
    <path class="cls-12" d="M286,358.66c.63.63,1.27,1.11,1.9,1.59.79.63,1.75,1.11,2.54,1.59l1.75.95,1.9.79c7.3,2.86,14.91,4.12,22.69,4.12s15.39-.79,22.84-2.54c2.86-.63,5.24-1.27,6.66-1.75.79-.16,1.59-.48,2.38-.95,0-.16-3.49.79-9.36,1.9-7.46,1.43-15.07,2.22-22.69,2.22-7.61.16-15.23-1.11-22.37-3.65-2.7-1.43-5.55-2.86-8.25-4.28Z"/>
    <path class="cls-12" d="M356.91,353.58c0-.16-.79-.32-2.06,0-3.33.95-5.71,3.81-6.03,7.3,0,1.27.16,2.06.32,2.06s.16-3.01,2.54-5.71,5.24-3.17,5.24-3.65Z"/>
    <path class="cls-2" d="M237.61,378.49c-.16-.32-.48-.63-.63-.79-.79-.63-1.75-1.11-2.86-1.27-1.59-.16-3.33.16-4.76,1.11-1.9,1.27-3.01,3.49-2.86,5.87.32,2.86,1.9,5.24,4.44,6.5,3.01,1.43,6.35.95,9.04-.95,1.43-.95,2.54-2.22,3.33-3.81s1.11-3.33,1.27-5.08c.16-3.49-.32-6.98.32-10.47,1.43-6.5,6.03-11.9,12.37-14.28,5.24-1.75,10.79-1.11,15.39,1.9,3.17,1.9,5.71,4.76,7.3,8.09,1.11,2.38,1.43,3.81,1.59,3.81,0-.32,0-.79-.16-1.11-.16-.95-.48-2.06-.95-3.01-1.59-3.49-4.12-6.5-7.3-8.57-2.22-1.43-4.76-2.54-7.3-3.01-3.01-.48-6.19-.32-9.04.63-6.82,2.38-11.74,8.09-13.17,15.07-.63,3.81,0,7.3-.32,10.63,0,1.59-.48,3.17-1.11,4.6s-1.59,2.54-2.86,3.33c-2.22,1.75-5.24,2.06-7.77.95-2.22-1.11-3.65-3.33-3.97-5.71-.32-2.06.63-3.97,2.22-5.08,1.27-.95,2.86-1.27,4.44-1.27,1.11.48,2.38,1.11,3.33,1.9Z"/>
    <path class="cls-2" d="M298.21,388.96c.79.16,1.59.32,2.38.16h6.5c7.3-.16,14.44-1.43,21.42-3.65,6.98-2.38,13.01-6.82,17.45-12.85,1.27-1.75,2.38-3.81,3.17-5.87.32-.79.48-1.59.63-2.38-1.27,2.7-2.7,5.24-4.44,7.61-4.44,5.55-10.47,9.68-17.13,12.06-6.82,2.22-13.8,3.65-20.94,3.97-3.17.32-6.03.48-9.04.95Z"/>
    <path class="cls-2" d="M265.53,445.27s.16.95,1.11,2.22c1.59,1.75,3.65,2.86,6.03,2.86,3.49.16,6.66-1.11,9.2-3.49,1.59-1.43,2.54-3.33,2.86-5.39.32-2.38-.95-4.6-3.01-5.71-2.22-1.11-4.92-.16-6.19,2.22-.48,1.11-.32,2.38.16,3.33s1.27,1.75,2.22,2.22c1.75.79,3.65.79,5.55.16,1.43-.48,2.86-1.43,3.97-2.54,1.59-1.59,2.7-3.65,3.01-6.03.16-.79.16-1.59-.16-2.38-.16,0,0,.95-.32,2.38-.48,2.06-1.59,3.97-3.01,5.39-1.11.95-2.22,1.75-3.65,2.22-1.43.48-3.17.48-4.6-.16-1.59-.63-2.38-2.38-1.9-3.97.79-1.59,2.7-2.22,4.44-1.43,1.59.95,2.54,2.7,2.22,4.6-.16,1.75-1.11,3.33-2.38,4.6-2.22,2.22-5.24,3.33-8.41,3.49-2.06,0-4.12-.79-5.71-2.38-1.11-1.43-1.43-2.22-1.43-2.22Z"/>
    <path class="cls-12" d="M397.84,725.91c0,.16-57.59.48-128.66.48s-128.66-.16-128.66-.48,57.59-.48,128.66-.48,128.66.32,128.66.48Z"/>
  </g>
</svg>