<?xml version="1.0" encoding="UTF-8"?>
<svg id="Layer_1" xmlns="http://www.w3.org/2000/svg" viewBox="0 0 1080 1080">
  <defs>
    <style>
      .cls-1 {
        fill: #042b62;
      }

      .cls-2 {
        fill: #263238;
      }

      .cls-3, .cls-4, .cls-5, .cls-6, .cls-7, .cls-8 {
        fill: #fff;
      }

      .cls-4 {
        opacity: .6;
      }

      .cls-4, .cls-5, .cls-6, .cls-7, .cls-9, .cls-8 {
        isolation: isolate;
      }

      .cls-5 {
        opacity: .4;
      }

      .cls-10 {
        fill: #e0e0e0;
      }

      .cls-11 {
        fill: #e4897b;
      }

      .cls-6 {
        opacity: .5;
      }

      .cls-7, .cls-12 {
        opacity: .7;
      }

      .cls-9, .cls-8 {
        opacity: .2;
      }

      .cls-13 {
        fill: #ebebeb;
      }

      .cls-14 {
        fill: #de5753;
      }

      .cls-15 {
        fill: #f5f5f5;
      }
    </style>
  </defs>
  <g id="freepik--background-complete--inject-2">
    <rect class="cls-13" x="27" y="798.41" width="1014" height=".41"/>
    <rect class="cls-13" x="872.27" y="831.06" width="67.13" height=".41"/>
    <rect class="cls-13" x="681.03" y="836.53" width="17.64" height=".41"/>
    <rect class="cls-13" x="831.3" y="812.2" width="38.94" height=".41"/>
    <rect class="cls-13" x="133.47" y="815.65" width="87.61" height=".41"/>
    <rect class="cls-13" x="239.13" y="815.65" width="12.78" height=".41"/>
    <rect class="cls-13" x="293.68" y="824.16" width="190.02" height=".41"/>
    <path class="cls-13" d="M507.64,707.96H116.03c-6.29,0-11.56-5.27-11.56-11.56V146c0-6.29,5.27-11.56,11.56-11.56h391.61c6.49,0,11.56,5.27,11.56,11.56h0v550.4c0,6.29-5.07,11.56-11.56,11.56ZM116.03,134.85c-6.08,0-11.15,4.87-11.15,11.15v550.4c0,6.08,4.87,11.15,11.15,11.15h391.61c6.08,0,11.15-4.87,11.15-11.15V146c0-6.08-4.87-11.15-11.15-11.15H116.03Z"/>
    <path class="cls-13" d="M946.29,707.96h-391.61c-6.49,0-11.56-5.27-11.56-11.56V146c0-6.29,5.27-11.56,11.56-11.56h391.61c6.29,0,11.56,5.07,11.56,11.56v550.4c0,6.29-5.07,11.56-11.56,11.56ZM554.69,134.85c-6.08,0-11.15,4.87-11.15,11.15v550.4c0,6.08,4.87,11.15,11.15,11.15h391.61c6.08,0,11.15-4.87,11.15-11.15V146c0-6.08-4.87-11.15-11.15-11.15h-391.61Z"/>
    <path class="cls-10" d="M811.43,279.44l18.25,13.38c-110.53,151.29-249.44,241.94-413.1,268.91-115.6,19.06-204.42-1.83-218.21-5.27v41.78c39.55,8.31,79.7,12.37,120.06,12.17,34.48,0,68.75-2.84,102.82-8.31,78.48-12.78,153.72-40.15,222.07-80.92,82.13-48.87,155.75-117.62,219.02-204.22l18.05,13.18.2-72.6-69.15,21.9Z"/>
    <rect class="cls-13" x="200.39" y="614.47" width="18.25" height="182.72"/>
    <rect class="cls-13" x="244.4" y="622.58" width="18.25" height="174.61"/>
    <rect class="cls-13" x="288.21" y="626.64" width="18.25" height="170.55"/>
    <rect class="cls-13" x="332.21" y="626.64" width="18.25" height="170.55"/>
    <rect class="cls-13" x="376.02" y="624.61" width="18.25" height="172.58"/>
    <rect class="cls-13" x="420.03" y="618.52" width="18.25" height="178.67"/>
    <rect class="cls-13" x="463.83" y="608.38" width="18.25" height="188.81"/>
    <rect class="cls-13" x="507.64" y="598.24" width="18.25" height="198.95"/>
    <rect class="cls-13" x="551.64" y="590.13" width="18.25" height="207.06"/>
    <rect class="cls-13" x="595.45" y="563.56" width="18.25" height="233.63"/>
    <rect class="cls-13" x="639.46" y="541.26" width="18.25" height="255.93"/>
    <rect class="cls-13" x="683.26" y="515.91" width="18.25" height="281.28"/>
    <rect class="cls-13" x="727.27" y="482.04" width="18.25" height="315.15"/>
    <rect class="cls-13" x="771.07" y="446.75" width="18.25" height="350.44"/>
    <rect class="cls-13" x="814.88" y="399.7" width="18.25" height="397.49"/>
    <rect class="cls-13" x="858.89" y="348.39" width="18.25" height="448.8"/>
  </g>
  <g id="freepik--Shadow--inject-2">
    <ellipse id="freepik--path--inject-2" class="cls-15" cx="534" cy="866.95" rx="393.23" ry="22.92"/>
  </g>
  <g id="freepik--Banknotes--inject-2">
    <path class="cls-1" d="M833.13,571.27c-38.94,96.74-94.3,185.97-163.86,263.84l-125.53-78.08c69.36-77.88,124.92-167.11,163.86-263.84l125.53,78.08Z"/>
    <path class="cls-5" d="M833.13,571.27c-38.94,96.74-94.5,185.97-163.86,263.84l-54.35-33.66h0l-71.39-44.21c69.36-77.88,124.92-167.11,163.86-263.84,41.98,25.96,83.96,51.92,125.74,77.88Z"/>
    <path class="cls-9" d="M728.28,515.3c-3.24,8.72-12.78,12.98-21.5,9.73-1.22-.41-2.43-1.01-3.45-1.83-34.27,78.28-79.7,151.29-134.66,216.59,8.11,4.66,10.75,14.8,6.29,22.71-.61,1.22-1.42,2.23-2.43,3.24l78.28,48.67c7.71-8.52,20.28-10.55,30.22-4.87,54.96-65.5,100.18-138.51,134.66-216.79-9.53-6.29-13.38-18.45-9.13-29.2v-.2l-78.28-48.06h0ZM731.93,693.36c-11.97,19.27-38.33,24.74-57.6,12.78-19.27-11.97-24.34-36.91-12.37-56.18,11.97-19.27,36.71-25.76,55.97-13.79,19.27,11.97,25.96,37.72,13.99,57.19h0Z"/>
    <path class="cls-9" d="M833.13,571.27c-38.94,96.74-94.5,185.97-163.86,263.84l-54.35-33.66h0l-42.99-72.81s171.77-71.18,261.21-157.37Z"/>
    <path class="cls-1" d="M926.42,707.15c-80.11,66.92-170.96,119.45-269.12,155.34-24.54-42.59-49.28-85.38-73.82-127.97,97.95-35.9,189.01-88.42,269.12-155.34,24.54,42.59,49.28,85.38,73.82,127.97Z"/>
    <path class="cls-5" d="M926.42,707.15c-80.11,66.92-170.96,119.45-269.12,155.34-24.54-42.59-49.28-85.38-73.82-127.97,97.95-35.9,189.01-88.42,269.12-155.34,24.54,42.59,49.28,85.38,73.82,127.97Z"/>
    <path class="cls-9" d="M860.31,608.38c-6.9,6.08-17.44,5.48-23.52-1.42-.81-1.01-1.62-2.03-2.23-3.24-67.33,52.73-141.76,95.72-221.05,127.56,4.87,7.91,2.64,18.05-5.27,23.12-1.01.61-2.23,1.22-3.65,1.62l46.04,79.9c10.75-3.85,22.92.41,29,10.14,79.29-31.84,153.72-74.83,221.05-127.56-5.48-10.14-3.04-22.71,5.68-30.22l.2-.2-46.24-79.7h0ZM779.39,766.97c-19.87,11.36-45.43,3.85-56.78-15.82-11.36-19.67-4.06-44.01,15.82-55.36,19.87-11.36,44.62-5.48,55.77,14.2,11.15,19.67,5.07,45.63-14.8,56.99Z"/>
  </g>
  <g id="freepik--Coins--inject-2">
    <rect class="cls-1" x="801.7" y="846.88" width="79.09" height="15.62"/>
    <rect class="cls-9" x="801.7" y="846.88" width="17.44" height="15.62"/>
    <rect class="cls-9" x="821.16" y="846.88" width="6.29" height="15.62"/>
    <rect class="cls-9" x="831.3" y="846.88" width="4.26" height="15.62"/>
    <rect class="cls-9" x="841.44" y="846.88" width="2.23" height="15.62"/>
    <rect class="cls-9" x="855.64" y="846.88" width="1.01" height="15.62"/>
    <rect class="cls-1" x="805.55" y="831.46" width="79.09" height="15.62"/>
    <rect class="cls-9" x="805.55" y="831.46" width="17.44" height="15.62"/>
    <rect class="cls-9" x="825.02" y="831.46" width="6.29" height="15.62"/>
    <rect class="cls-9" x="835.16" y="831.46" width="4.26" height="15.62"/>
    <rect class="cls-9" x="845.3" y="831.46" width="2.23" height="15.62"/>
    <rect class="cls-9" x="859.49" y="831.46" width="1.01" height="15.62"/>
    <rect class="cls-1" x="798.45" y="816.05" width="79.09" height="15.62"/>
    <rect class="cls-9" x="798.45" y="816.05" width="17.44" height="15.62"/>
    <rect class="cls-9" x="817.92" y="815.85" width="6.29" height="15.62"/>
    <rect class="cls-9" x="828.06" y="815.85" width="4.26" height="15.62"/>
    <rect class="cls-9" x="838.2" y="815.85" width="2.23" height="15.62"/>
    <rect class="cls-9" x="852.4" y="815.85" width="1.01" height="15.62"/>
    <rect class="cls-1" x="801.7" y="800.44" width="79.09" height="15.62"/>
    <rect class="cls-9" x="801.7" y="800.44" width="17.44" height="15.62"/>
    <rect class="cls-9" x="821.16" y="800.44" width="6.29" height="15.62"/>
    <rect class="cls-9" x="831.3" y="800.44" width="4.26" height="15.62"/>
    <rect class="cls-9" x="841.44" y="800.44" width="2.23" height="15.62"/>
    <rect class="cls-9" x="855.64" y="800.44" width="1.01" height="15.62"/>
    <rect class="cls-1" x="803.72" y="785.02" width="79.09" height="15.62"/>
    <rect class="cls-9" x="803.72" y="785.02" width="17.44" height="15.62"/>
    <rect class="cls-9" x="823.19" y="785.02" width="6.29" height="15.62"/>
    <rect class="cls-9" x="833.33" y="785.02" width="4.26" height="15.62"/>
    <rect class="cls-9" x="843.47" y="785.02" width="2.23" height="15.62"/>
    <rect class="cls-9" x="857.67" y="785.02" width="1.01" height="15.62"/>
    <rect class="cls-1" x="801.7" y="769.61" width="79.09" height="15.62"/>
    <rect class="cls-9" x="801.7" y="769.61" width="17.44" height="15.62"/>
    <rect class="cls-9" x="821.16" y="769.61" width="6.29" height="15.62"/>
    <rect class="cls-9" x="831.3" y="769.61" width="4.26" height="15.62"/>
    <rect class="cls-9" x="841.44" y="769.61" width="2.23" height="15.62"/>
    <rect class="cls-9" x="855.64" y="769.61" width="1.01" height="15.62"/>
    <rect class="cls-1" x="801.7" y="754.2" width="79.09" height="15.62"/>
    <rect class="cls-9" x="801.7" y="754.2" width="17.44" height="15.62"/>
    <rect class="cls-9" x="821.16" y="754.2" width="6.29" height="15.62"/>
    <rect class="cls-9" x="831.3" y="754.2" width="4.26" height="15.62"/>
    <rect class="cls-9" x="841.44" y="754.2" width="2.23" height="15.62"/>
    <rect class="cls-9" x="855.64" y="754.2" width="1.01" height="15.62"/>
    <rect class="cls-1" x="805.75" y="738.78" width="79.09" height="15.62"/>
    <rect class="cls-9" x="805.75" y="738.78" width="17.44" height="15.62"/>
    <rect class="cls-9" x="825.22" y="738.78" width="6.29" height="15.62"/>
    <rect class="cls-9" x="835.36" y="738.78" width="4.26" height="15.62"/>
    <rect class="cls-9" x="845.5" y="738.78" width="2.23" height="15.62"/>
    <rect class="cls-9" x="859.7" y="738.78" width="1.01" height="15.62"/>
    <rect class="cls-1" x="801.7" y="723.17" width="79.09" height="15.62"/>
    <rect class="cls-9" x="801.7" y="723.17" width="17.44" height="15.62"/>
    <rect class="cls-9" x="821.16" y="723.17" width="6.29" height="15.62"/>
    <rect class="cls-9" x="831.3" y="723.17" width="4.26" height="15.62"/>
    <rect class="cls-9" x="841.44" y="723.17" width="2.23" height="15.62"/>
    <rect class="cls-9" x="855.64" y="723.17" width="1.01" height="15.62"/>
    <rect class="cls-1" x="797.64" y="707.76" width="79.09" height="15.62"/>
    <rect class="cls-9" x="797.64" y="707.76" width="17.44" height="15.62"/>
    <rect class="cls-9" x="817.11" y="707.76" width="6.29" height="15.62"/>
    <rect class="cls-9" x="827.25" y="707.76" width="4.26" height="15.62"/>
    <rect class="cls-9" x="837.39" y="707.76" width="2.23" height="15.62"/>
    <rect class="cls-9" x="851.58" y="707.76" width="1.01" height="15.62"/>
    <rect class="cls-1" x="731.93" y="846.88" width="79.09" height="15.62"/>
    <rect class="cls-9" x="731.93" y="846.88" width="17.44" height="15.62"/>
    <rect class="cls-9" x="751.4" y="846.88" width="6.29" height="15.62"/>
    <rect class="cls-9" x="761.54" y="846.88" width="4.26" height="15.62"/>
    <rect class="cls-9" x="771.68" y="846.88" width="2.23" height="15.62"/>
    <rect class="cls-9" x="785.88" y="846.88" width="1.01" height="15.62"/>
    <rect class="cls-1" x="735.99" y="831.46" width="79.09" height="15.62"/>
    <rect class="cls-9" x="735.99" y="831.46" width="17.44" height="15.62"/>
    <rect class="cls-9" x="755.46" y="831.46" width="6.29" height="15.62"/>
    <rect class="cls-9" x="765.6" y="831.46" width="4.26" height="15.62"/>
    <rect class="cls-9" x="775.74" y="831.46" width="2.23" height="15.62"/>
    <rect class="cls-9" x="789.93" y="831.46" width="1.01" height="15.62"/>
    <rect class="cls-1" x="731.93" y="816.05" width="79.09" height="15.62"/>
    <rect class="cls-9" x="731.93" y="816.05" width="17.44" height="15.62"/>
    <rect class="cls-9" x="751.4" y="815.85" width="6.29" height="15.62"/>
    <rect class="cls-9" x="761.54" y="815.85" width="4.26" height="15.62"/>
    <rect class="cls-9" x="771.68" y="815.85" width="2.23" height="15.62"/>
    <rect class="cls-9" x="785.88" y="815.85" width="1.01" height="15.62"/>
    <rect class="cls-1" x="733.96" y="800.44" width="79.09" height="15.62"/>
    <rect class="cls-9" x="733.96" y="800.44" width="17.44" height="15.62"/>
    <rect class="cls-9" x="753.43" y="800.44" width="6.29" height="15.62"/>
    <rect class="cls-9" x="763.57" y="800.44" width="4.26" height="15.62"/>
    <rect class="cls-9" x="773.71" y="800.44" width="2.23" height="15.62"/>
    <rect class="cls-9" x="787.91" y="800.44" width="1.01" height="15.62"/>
    <rect class="cls-1" x="731.93" y="785.02" width="79.09" height="15.62"/>
    <rect class="cls-9" x="731.93" y="785.02" width="17.44" height="15.62"/>
    <rect class="cls-9" x="751.4" y="785.02" width="6.29" height="15.62"/>
    <rect class="cls-9" x="761.54" y="785.02" width="4.26" height="15.62"/>
    <rect class="cls-9" x="771.68" y="785.02" width="2.23" height="15.62"/>
    <rect class="cls-9" x="785.88" y="785.02" width="1.01" height="15.62"/>
    <rect class="cls-1" x="738.02" y="769.61" width="79.09" height="15.62"/>
    <rect class="cls-9" x="738.02" y="769.61" width="17.44" height="15.62"/>
    <rect class="cls-9" x="757.49" y="769.61" width="6.29" height="15.62"/>
    <rect class="cls-9" x="767.63" y="769.61" width="4.26" height="15.62"/>
    <rect class="cls-9" x="777.77" y="769.61" width="2.23" height="15.62"/>
    <rect class="cls-9" x="791.96" y="769.61" width="1.01" height="15.62"/>
  </g>
  <g id="freepik--Device--inject-2">
    <path class="cls-2" d="M384.13,220.63h295.48c11.56,0,21.09,9.53,21.09,21.09v599.68c0,11.56-9.53,21.09-21.09,21.09h-295.48c-11.56,0-21.09-9.53-21.09-21.09V241.72c0-11.56,9.53-21.09,21.09-21.09Z"/>
    <path class="cls-1" d="M689.34,240.91v600.09c0,4.46-3.65,8.31-8.31,8.31h-298.93c-4.06,0-7.5-3.24-7.5-7.3V240.3c-.2-3.65,2.64-6.69,6.49-6.9h74.83c2.23,0,4.06,1.42,4.87,3.45l3.04,7.71c.81,2.03,2.64,3.24,4.87,3.24h127.36c2.03,0,4.06-1.22,4.87-3.24l3.04-7.71c.81-2.03,2.64-3.24,4.87-3.45h73.21c4.06,0,7.5,3.45,7.3,7.5Z"/>
    <rect class="cls-7" x="374.6" y="258.35" width="314.95" height="566.22"/>
    <circle class="cls-4" cx="524.87" cy="234.01" r="4.26"/>
    <path class="cls-4" d="M538.06,234.01c0,1.62-1.22,2.84-2.84,2.84s-2.84-1.22-2.84-2.84,1.22-2.84,2.84-2.84h0c1.62.2,2.84,1.42,2.84,2.84h0Z"/>
    <rect class="cls-4" x="410.09" y="244.97" width="3.85" height="5.27"/>
    <rect class="cls-4" x="403.8" y="243.14" width="3.85" height="6.9"/>
    <rect class="cls-4" x="397.52" y="241.32" width="3.85" height="8.72"/>
    <rect class="cls-4" x="391.03" y="239.69" width="3.85" height="10.34"/>
    <rect class="cls-4" x="652.44" y="242.94" width="2.23" height="5.27"/>
    <rect class="cls-4" x="656.29" y="241.11" width="18.45" height="8.92"/>
    <rect class="cls-2" x="374.19" y="258.35" width="315.35" height="51.11"/>
    <g class="cls-12">
      <path class="cls-3" d="M395.69,293.44c-.61,0-1.01-.2-1.42-.61l-7.71-7.71c-.81-.81-.81-2.03,0-2.84h0l7.71-7.71c.81-.81,2.23-.61,2.84.2.61.81.61,1.83,0,2.64l-6.29,6.29,6.29,6.08c.81.81.81,2.03,0,2.84-.41.61-1.01.81-1.42.81Z"/>
    </g>
    <g class="cls-12">
      <path class="cls-3" d="M677.79,276.4c0,1.22-1.01,2.23-2.23,2.23s-2.23-1.01-2.23-2.23,1.01-2.23,2.23-2.23,2.23,1.01,2.23,2.23h0Z"/>
      <path class="cls-3" d="M677.79,283.7c0,1.22-1.01,2.23-2.23,2.23s-2.23-1.01-2.23-2.23,1.01-2.23,2.23-2.23,2.23,1.01,2.23,2.23h0Z"/>
      <path class="cls-3" d="M677.79,291.2c0,1.22-1.01,2.23-2.23,2.23s-2.23-1.01-2.23-2.23,1.01-2.23,2.23-2.23,2.23,1.01,2.23,2.23h0Z"/>
    </g>
    <path class="cls-1" d="M504.59,338.05v17.04h-3.04v-14.4h-3.65v-2.64h6.69Z"/>
    <path class="cls-1" d="M521.83,350.22c0,3.24-2.84,5.07-6.9,5.07s-6.9-2.03-6.9-5.07c0-1.83,1.01-3.45,2.64-4.06-1.22-.61-2.03-2.03-2.03-3.65,0-2.84,2.64-4.66,6.29-4.66s6.29,1.83,6.29,4.66c0,1.42-.81,2.84-2.23,3.65,1.83.61,2.84,2.23,2.84,4.06ZM518.59,350.22c0-1.62-1.42-2.64-3.85-2.64s-3.85,1.01-3.85,2.64,1.42,2.84,3.85,2.84,3.85-1.42,3.85-2.84h0ZM511.69,342.51c0,1.42,1.22,2.43,3.24,2.43s3.24-1.01,3.24-2.43-1.22-2.43-3.24-2.43-3.24,1.01-3.24,2.43Z"/>
    <path class="cls-1" d="M524.06,353.26c0-1.22.81-2.03,2.03-2.03s2.03.81,2.03,2.03-.81,2.03-2.03,2.03-2.03-1.01-2.03-2.03Z"/>
    <path class="cls-1" d="M535.62,338.05v17.04h-3.24v-14.4h-3.65v-2.64h6.9Z"/>
    <path class="cls-1" d="M551.24,352.25v2.64h-12.57v-2.03l6.69-6.49c1.62-1.62,2.03-2.64,2.03-3.45,0-1.62-1.01-2.43-3.24-2.43-1.62-.2-3.04.61-4.06,1.83l-2.23-1.62c1.62-1.83,4.06-3.04,6.49-2.84,3.65,0,6.08,1.83,6.08,4.87,0,2.23-1.01,4.06-2.84,5.27l-4.46,4.26h8.11Z"/>
    <path class="cls-1" d="M566.85,350.22c0,3.24-2.84,5.07-6.9,5.07s-6.9-2.03-6.9-5.07c0-1.83,1.01-3.45,2.64-4.06-1.22-.61-2.03-2.03-2.03-3.65,0-2.84,2.64-4.66,6.29-4.66s6.29,1.83,6.29,4.66c0,1.42-.81,2.84-2.23,3.65,1.83.61,3.04,2.23,2.84,4.06ZM563.81,350.22c0-1.62-1.42-2.64-3.85-2.64s-3.85,1.01-3.85,2.64,1.42,2.84,3.85,2.84,3.85-1.42,3.85-2.84h0ZM556.71,342.72c0,1.42,1.22,2.43,3.24,2.43s3.24-1.01,3.24-2.43-1.22-2.43-3.24-2.43-3.24.81-3.24,2.43h0Z"/>
    <path d="M516.76,446.55v9.33h-1.83v-7.91h-2.03v-1.42h3.85Z"/>
    <path d="M521.83,446.55v9.33h-1.83v-7.91h-2.03v-1.42h3.85Z"/>
    <path d="M530.55,453.04c0,1.62-1.22,3.04-3.65,3.04-1.22,0-2.43-.41-3.65-1.01l.81-1.42c.81.61,1.83,1.01,2.84,1.01,1.22,0,2.03-.61,2.03-1.42s-.61-1.42-2.43-1.42h-2.23l.41-5.07h5.68v1.42h-4.06l-.2,2.23h.81c2.64-.2,3.65,1.01,3.65,2.64Z"/>
    <path d="M533.8,455.07c0,.41-.2.81-.2,1.22l-.61,1.83h-1.01l.61-2.03c-.41-.2-.61-.61-.61-1.01,0-.61.41-1.22,1.01-1.22s1.22.41,1.22,1.01q-.41,0-.41.2h0Z"/>
    <path d="M541.91,454.46v1.42h-6.9v-1.01l3.85-3.65c.61-.41,1.01-1.22,1.01-2.03s-.61-1.42-1.83-1.42c-.81,0-1.62.41-2.23,1.01l-1.22-1.01c.81-1.01,2.23-1.62,3.65-1.62,2.03,0,3.45,1.01,3.45,2.64,0,1.22-.61,2.23-1.62,3.04l-2.43,2.43,4.26.2Z"/>
    <path d="M542.72,451.21c0-3.04,1.62-4.87,3.85-4.87s4.06,1.83,4.06,4.87-1.62,4.87-4.06,4.87c-2.03,0-3.85-1.62-3.85-4.87ZM548.8,451.21c0-2.23-.81-3.24-2.23-3.24-1.22,0-2.23,1.01-2.23,3.24s.81,3.24,2.23,3.24c1.42.2,2.43-.81,2.23-3.24h0Z"/>
    <path class="cls-2" d="M458.56,433.98c-9.94,40.56,14.8,81.53,55.36,91.46,40.56,9.94,81.53-14.8,91.46-55.36,9.94-40.56-14.8-81.53-55.36-91.46h0c-40.56-9.94-81.53,14.8-91.46,55.36h0ZM489.79,441.68c5.68-23.32,29.2-37.52,52.53-31.84,23.32,5.68,37.52,29.2,31.84,52.53-5.68,23.32-29.2,37.52-52.53,31.84h0c-23.32-5.68-37.72-29.2-31.84-52.53Z"/>
    <path class="cls-1" d="M467.48,491.57c21.9,35.69,68.34,46.85,104.04,24.94,35.69-21.9,46.85-68.34,24.94-104.04-13.99-22.92-39.14-36.5-65.91-36.1,8.92-.2,16.22,6.9,16.43,15.82,0,1.42-.2,2.84-.61,4.26-.81,3.45-2.84,6.49-5.68,8.52-2.84,2.23-6.29,3.45-9.73,3.45h-1.01c23.93-1.22,44.41,17.44,45.43,41.37,1.22,23.93-17.44,44.41-41.37,45.43-15.82.81-30.62-7.1-38.94-20.48-2.23-3.65-5.88-6.29-9.94-7.3-8.52-2.03-17.24,3.24-19.47,11.76-1.22,4.26-.41,8.72,1.83,12.37h0Z"/>
    <rect class="cls-1" x="401.37" y="580.6" width="7.3" height="23.52"/>
    <rect class="cls-1" x="419.62" y="586.68" width="7.3" height="17.44"/>
    <rect class="cls-1" x="437.67" y="560.32" width="7.3" height="43.8"/>
    <rect class="cls-1" x="455.72" y="550.18" width="7.3" height="53.94"/>
    <rect class="cls-1" x="473.97" y="560.32" width="7.3" height="43.8"/>
    <rect class="cls-1" x="492.02" y="580.6" width="7.3" height="23.52"/>
    <rect class="cls-1" x="510.07" y="584.66" width="7.3" height="19.47"/>
    <rect class="cls-1" x="528.32" y="586.68" width="7.3" height="17.44"/>
    <rect class="cls-1" x="546.37" y="580.6" width="7.3" height="23.52"/>
    <rect class="cls-1" x="564.62" y="570.46" width="7.3" height="33.66"/>
    <rect class="cls-1" x="582.67" y="562.35" width="7.3" height="41.78"/>
    <rect class="cls-1" x="600.72" y="554.24" width="7.3" height="49.89"/>
    <rect class="cls-1" x="618.97" y="544.1" width="7.3" height="60.03"/>
    <rect class="cls-1" x="637.02" y="558.29" width="7.3" height="45.83"/>
    <rect class="cls-1" x="655.07" y="580.6" width="7.3" height="23.52"/>
    <rect class="cls-2" x="437.67" y="560.32" width="7.3" height="10.14"/>
    <rect class="cls-2" x="455.72" y="550.18" width="7.3" height="20.28"/>
    <rect class="cls-2" x="473.97" y="560.32" width="7.3" height="10.14"/>
    <rect class="cls-2" x="582.67" y="562.35" width="7.3" height="8.11"/>
    <rect class="cls-2" x="600.72" y="554.24" width="7.3" height="16.22"/>
    <rect class="cls-2" x="618.97" y="544.1" width="7.3" height="26.36"/>
    <rect class="cls-2" x="637.02" y="558.29" width="7.3" height="12.17"/>
    <path class="cls-1" d="M401.57,633.33h260.6c3.24,0,6.08,2.64,6.08,6.08v31.03c0,3.24-2.64,6.08-6.08,6.08h-260.6c-3.24,0-6.08-2.64-6.08-6.08v-31.03c0-3.45,2.84-6.08,6.08-6.08Z"/>
    <g class="cls-12">
      <path class="cls-3" d="M600.32,654.82h-2.43v2.43h-1.42v-2.43h-2.43v-1.42h2.43v-2.43h1.42v2.43h2.43v1.42Z"/>
      <path class="cls-3" d="M609.85,658.88v1.62h-1.01v-1.42c-1.22,0-2.43-.41-3.24-1.01l.61-1.42c.81.61,1.62,1.01,2.64,1.01v-2.64c-1.42-.41-3.04-.81-3.04-2.64,0-1.42,1.01-2.64,3.04-2.84v-1.62h1.01v1.42c1.01,0,1.83.41,2.84.81l-.61,1.42c-.61-.41-1.42-.61-2.23-.81v2.84c1.42.41,3.04.81,3.04,2.64,0,1.42-.81,2.43-3.04,2.64ZM608.83,653.2v-2.43c-1.01.2-1.42.61-1.42,1.22s.61,1.01,1.42,1.22ZM611.27,656.24c0-.61-.61-1.01-1.42-1.22v2.43c1.01-.2,1.42-.61,1.42-1.22h0Z"/>
      <path class="cls-3" d="M624.85,649.35v1.22l-3.65,8.31h-1.83l3.65-7.91h-3.85v1.62h-1.62v-3.04h7.3v-.2Z"/>
      <path class="cls-3" d="M632.56,656.04c0,1.62-1.22,3.04-3.65,3.04-1.22,0-2.43-.41-3.65-1.01l.81-1.42c.81.61,1.83,1.01,2.84,1.01,1.22,0,2.03-.61,2.03-1.42s-.61-1.42-2.43-1.42h-2.23l.41-5.07h5.48v1.42h-4.06l-.2,2.23h.81c2.84-.41,3.85.81,3.85,2.64Z"/>
      <path class="cls-3" d="M635.81,657.87c0,.41-.2.81-.2,1.22l-.61,1.83h-1.01l.61-2.03c-.41-.2-.61-.61-.61-1.01,0-.61.41-1.22,1.01-1.22s1.22.41,1.22,1.01q-.41,0-.41.2h0Z"/>
      <path class="cls-3" d="M636.62,654.22c0-3.04,1.62-4.87,3.85-4.87s4.06,1.83,4.06,4.87-1.62,4.87-4.06,4.87-3.85-1.83-3.85-4.87ZM642.7,654.22c0-2.23-.81-3.24-2.23-3.24s-2.23,1.01-2.23,3.24.81,3.24,2.23,3.24,2.43-1.01,2.23-3.24h0Z"/>
      <path class="cls-3" d="M652.64,656.04c0,1.62-1.22,3.04-3.65,3.04-1.22,0-2.43-.41-3.65-1.01l.81-1.42c.81.61,1.83,1.01,2.84,1.01,1.22,0,2.03-.61,2.03-1.42s-.61-1.42-2.43-1.42h-2.23l.41-5.07h5.48v1.42h-4.06l-.2,2.23h.81c2.84-.41,3.85.81,3.85,2.64Z"/>
    </g>
    <path class="cls-7" d="M478.84,651.58h-63.48c-1.42,0-2.43-1.01-2.43-2.43h0c0-1.42,1.01-2.43,2.43-2.43h63.48c1.42,0,2.43,1.01,2.43,2.43h0c-.2,1.42-1.22,2.43-2.43,2.43Z"/>
    <path class="cls-7" d="M450.45,662.94h-35.08c-1.42,0-2.43-1.01-2.43-2.43h0c0-1.42,1.01-2.43,2.43-2.43h35.08c1.42,0,2.43,1.01,2.43,2.43h0c0,1.42-1.22,2.43-2.43,2.43Z"/>
    <path class="cls-1" d="M401.57,692.14h260.6c3.24,0,6.08,2.64,6.08,6.08v31.03c0,3.24-2.64,6.08-6.08,6.08h-260.6c-3.24,0-6.08-2.64-6.08-6.08v-31.03c0-3.45,2.84-6.08,6.08-6.08Z"/>
    <g class="cls-12">
      <path class="cls-3" d="M595.65,713.23h3.65v1.42h-3.65v-1.42Z"/>
      <path class="cls-3" d="M608.83,717.69v1.62h-1.01v-1.42c-1.22,0-2.43-.41-3.24-1.01l.61-1.42c.81.61,1.62,1.01,2.64,1.01v-2.64c-1.42-.41-3.04-.81-3.04-2.64,0-1.42,1.01-2.64,3.04-2.84v-1.62h1.01v1.42c1.01,0,1.83.41,2.84.81l-.61,1.42c-.61-.41-1.42-.61-2.23-.81v2.84c1.42.41,3.04.81,3.04,2.64,0,1.42-1.01,2.43-3.04,2.64ZM607.62,712.01v-2.43c-1.01.2-1.42.61-1.42,1.22s.61,1.01,1.42,1.22ZM610.25,715.06c0-.61-.61-1.01-1.42-1.22v2.43c1.01-.2,1.42-.61,1.42-1.22h0Z"/>
      <path class="cls-3" d="M623.64,714.85c0,1.62-1.22,3.04-3.85,3.04-1.22,0-2.43-.41-3.65-1.01l.81-1.42c.81.61,1.83,1.01,2.84,1.01,1.22,0,2.03-.61,2.03-1.42s-.61-1.42-2.43-1.42h-2.23l.41-5.07h5.48v1.42h-4.06l-.2,2.23h1.01c2.64-.41,3.85.81,3.85,2.64Z"/>
      <path class="cls-3" d="M631.34,714.85c0,1.62-1.22,3.04-3.85,3.04-1.22,0-2.43-.41-3.65-1.01l.81-1.42c.81.61,1.83,1.01,2.84,1.01,1.22,0,2.03-.61,2.03-1.42s-.61-1.42-2.64-1.42h-2.23l.41-5.07h5.48v1.42h-4.06l-.2,2.23h1.01c3.04-.41,4.06.81,4.06,2.64Z"/>
      <path class="cls-3" d="M634.59,716.68c0,.41-.2.81-.2,1.22l-.61,1.83h-1.01l.61-2.03c-.41-.2-.61-.61-.61-1.01,0-.61.41-1.01,1.01-1.01h.2c0-.2.61.41.61,1.01h0Z"/>
      <path class="cls-3" d="M643.92,715.46h-1.62v2.23h-1.62v-2.23h-5.27v-1.22l4.66-6.08h1.83l-4.46,5.88h3.04v-1.83h1.62v1.83h1.62l.2,1.42Z"/>
      <path class="cls-3" d="M652.64,714.85c0,1.83-1.62,2.84-3.85,2.84s-3.85-1.01-3.85-2.84c0-1.01.61-1.83,1.42-2.23-.81-.41-1.22-1.22-1.22-2.03,0-1.62,1.42-2.64,3.45-2.64s3.65,1.01,3.65,2.64c0,.81-.41,1.62-1.22,2.03,1.01.41,1.62,1.42,1.62,2.23ZM650.81,714.85c0-1.01-.81-1.62-2.03-1.62s-2.03.61-2.03,1.62.81,1.62,2.03,1.62,2.03-.61,2.03-1.62h0ZM646.96,710.8c0,.81.61,1.42,1.83,1.42s1.83-.61,1.83-1.42-.81-1.42-1.83-1.42-1.83.61-1.83,1.42h0Z"/>
    </g>
    <path class="cls-7" d="M478.84,710.39h-63.48c-1.42,0-2.43-1.01-2.43-2.43h0c0-1.42,1.01-2.43,2.43-2.43h63.48c1.42,0,2.43,1.01,2.43,2.43h0c-.2,1.42-1.22,2.43-2.43,2.43Z"/>
    <path class="cls-7" d="M450.45,721.75h-35.08c-1.42,0-2.43-1.01-2.43-2.43h0c0-1.42,1.01-2.43,2.43-2.43h35.08c1.42,0,2.43,1.01,2.43,2.43h0c0,1.42-1.22,2.43-2.43,2.43Z"/>
    <path class="cls-1" d="M401.57,750.95h260.6c3.24,0,6.08,2.64,6.08,6.08v31.03c0,3.24-2.64,6.08-6.08,6.08h-260.6c-3.24,0-6.08-2.64-6.08-6.08v-31.03c0-3.45,2.84-6.08,6.08-6.08Z"/>
    <g class="cls-12">
      <path class="cls-3" d="M601.94,772.45h-2.43v2.43h-1.42v-2.43h-2.43v-1.42h2.43v-2.43h1.42v2.43h2.43v1.42Z"/>
      <path class="cls-3" d="M611.47,776.5v1.62h-1.01v-1.42c-1.22,0-2.43-.41-3.24-1.01l.61-1.42c.81.61,1.62,1.01,2.64,1.01v-2.64c-1.42-.41-3.04-.81-3.04-2.64,0-1.42,1.01-2.64,3.04-2.84v-1.62h1.01v1.42c1.01,0,1.83.41,2.84.81l-.61,1.42c-.61-.41-1.42-.61-2.23-.81v2.84c1.42.41,3.04.81,3.04,2.64,0,1.42-1.01,2.43-3.04,2.64ZM610.25,770.83v-2.43c-1.01.2-1.42.61-1.42,1.22s.61,1.01,1.42,1.22h0ZM612.89,773.87c0-.61-.61-1.01-1.42-1.22v2.43c.81-.2,1.42-.61,1.42-1.22h0Z"/>
      <path class="cls-3" d="M622.62,766.97v9.53h-1.83v-7.91h-2.03v-1.42h3.85v-.2Z"/>
      <path class="cls-3" d="M632.16,773.67c0,1.83-1.62,2.84-3.85,2.84s-3.85-1.01-3.85-2.84c0-1.01.61-1.83,1.42-2.23-.81-.41-1.22-1.22-1.22-2.03,0-1.62,1.42-2.64,3.45-2.64s3.65,1.01,3.65,2.64c0,.81-.41,1.62-1.22,2.03,1.01.41,1.62,1.42,1.62,2.23ZM630.33,773.67c0-1.01-.81-1.62-2.03-1.62s-2.03.61-2.03,1.62.81,1.62,2.03,1.62,2.03-.61,2.03-1.62h0ZM626.48,769.61c0,.81.61,1.42,1.83,1.42s1.83-.61,1.83-1.42-.81-1.42-1.83-1.42-1.83.61-1.83,1.42h0Z"/>
      <path class="cls-3" d="M635.6,775.49c0,.41-.2.81-.2,1.22l-.61,1.83h-1.42l.61-2.03c-.41-.2-.61-.61-.61-1.01,0-.61.41-1.01,1.01-1.01.61-.2,1.01.41,1.22,1.01q-.2,0,0,0h0Z"/>
      <path class="cls-3" d="M643.71,775.09v1.42h-6.9v-1.22l3.85-3.65c1.01-.81,1.01-1.42,1.01-2.03,0-.81-.61-1.42-1.83-1.42-.81,0-1.62.41-2.23,1.01l-1.22-1.01c.81-1.01,2.23-1.62,3.65-1.62,2.03,0,3.45,1.01,3.45,2.64,0,1.22-.61,2.23-1.62,3.04l-2.43,2.43,4.26.41Z"/>
      <path class="cls-3" d="M644.53,771.84c0-3.04,1.62-4.87,3.85-4.87s4.06,1.83,4.06,4.87-1.62,4.87-4.06,4.87-3.85-1.83-3.85-4.87ZM650.61,771.84c0-2.23-.81-3.24-2.23-3.24s-2.23,1.01-2.23,3.24.81,3.24,2.23,3.24,2.43-1.01,2.23-3.24h0Z"/>
    </g>
    <path class="cls-7" d="M478.84,769.2h-63.48c-1.42,0-2.43-1.01-2.43-2.43h0c0-1.42,1.01-2.43,2.43-2.43h63.48c1.42,0,2.43,1.01,2.43,2.43h0c-.2,1.42-1.22,2.43-2.43,2.43Z"/>
    <path class="cls-7" d="M450.45,780.56h-35.08c-1.42,0-2.43-1.01-2.43-2.43h0c0-1.42,1.01-2.43,2.43-2.43h35.08c1.42,0,2.43,1.01,2.43,2.43h0c0,1.42-1.22,2.43-2.43,2.43Z"/>
  </g>
  <g id="freepik--Character--inject-2">
    <g id="freepik--group--inject-2">
      <path class="cls-2" d="M246.02,420.19c.2.81-.41,1.62-1.42,1.83h-.41l-18.66-.41c-1.01,0-1.83-.81-2.03-1.83l-3.24-36.71c0-1.01.61-2.03,1.83-2.03h0l18.45.41c1.01.2,2.03,1.01,2.03,2.23l3.45,36.5Z"/>
      <path class="cls-6" d="M240.75,383.07l3.24,37.11c.2.81-.2,1.42-1.01,1.62h-.41l-15.62-.41c-1.01,0-3.04-.61-3.04-1.62l-3.24-37.11c0-1.01,1.83-1.83,2.84-1.83l15.62.41c1.01,0,1.62.81,1.62,1.83Z"/>
      <path class="cls-11" d="M234.46,430.12l-2.23-7.1c1.01-2.64,1.62-5.27,2.23-7.91.2-2.43-6.29-21.09-6.29-21.09,0,0-7.1,5.48-11.15,8.31s2.43,20.89,3.65,21.5,3.04,1.62,3.04,1.62l1.42,5.88,9.33-1.22Z"/>
      <path class="cls-1" d="M222.9,436.81c2.23,8.31,11.56,42.39,22.71,46.85,2.84,1.22,6.49.41,10.14-1.42,12.17-6.29,25.96-25.35,25.96-25.35l-2.84-13.79-2.64-12.98c-10.14,5.07-21.9,29.41-24.94,29.2-2.64-.2-9.53-21.09-11.56-27.38-.41-1.01-1.42-1.62-2.43-1.22l-13.18,3.65c-.81.2-1.42,1.42-1.22,2.43Z"/>
      <polygon class="cls-1" points="235.28 426.27 236.29 430.93 224.32 434.38 222.9 429.31 235.28 426.27"/>
      <polygon class="cls-9" points="235.28 426.27 236.29 430.93 224.32 434.38 222.9 429.31 235.28 426.27"/>
      <path class="cls-9" d="M255.76,482.24c12.17-6.29,25.96-25.35,25.96-25.35l-2.84-13.79c-6.29,5.88-21.09,21.29-23.12,39.14Z"/>
      <path class="cls-2" d="M347.83,689.91l-.2-17.64c0-.61.41-1.01,1.01-1.22l12.98-3.04c1.22-.2,2.23.41,2.64,1.62v.41c0,5.68-.41,9.94-.41,17.04,0,4.46.61,17.85.61,23.93s-6.08,6.9-6.49,4.46c-2.43-11.15-5.88-19.67-9.13-23.32-.61-.61-1.01-1.42-1.01-2.23Z"/>
      <path class="cls-2" d="M268.74,526.86l-5.68,30.01s-45.22,73.21-45.22,115.39c0,50.5,131.62,21.29,131.62,21.29v-23.32s-78.69,6.69-85.78-1.01c-8.52-9.53,44.41-83.76,44.41-83.76l-39.34-58.61Z"/>
      <path class="cls-8" d="M217.83,672.27c0,27.78,39.95,31.43,76.05,29.2,17.85-1.22,35.69-3.65,53.34-7.3,1.62-.2,2.43-.41,2.43-.41v-23.32l-2.84.2c-8.92.81-36.71,2.84-57.8,2.43-12.57-.2-22.71-1.22-24.94-3.85-4.26-4.66,6.49-24.94,18.45-44.41h0c12.37-20.08,26.16-39.34,26.16-39.34l-17.24-25.76-22.11-32.85-5.68,30.01c-.61,0-45.83,73.01-45.83,115.39Z"/>
      <path class="cls-9" d="M288.81,672.87l5.07,28.39c17.85-1.22,35.69-3.65,53.34-7.3l-.41-23.52c-9.13.81-36.91,2.84-58,2.43Z"/>
      <path class="cls-9" d="M290.84,591.75s-7.3,17.24-8.72,32.85c12.37-20.08,26.16-39.34,26.16-39.34l-17.24-25.76-9.13-3.04c0,.2-2.03,12.17,8.92,35.29Z"/>
      <path class="cls-2" d="M302.61,845.86h17.64c.61,0,1.22.41,1.22,1.01l2.84,12.98c.2,1.22-.41,2.23-1.62,2.43h-.41c-5.68,0-9.94-.41-17.04-.41-4.46,0-17.85.41-23.93.41s-6.9-6.08-4.46-6.69c11.15-2.43,19.67-5.88,23.32-9.13.61-.41,1.62-.61,2.43-.61Z"/>
      <path class="cls-2" d="M347.63,527.67s3.85,14.6,0,82.13c-6.08,103.43-25.15,240.93-25.15,240.93l-22.31-4.06s2.84-205.84-.2-262.63c0,0-31.43-28.19-31.23-57.19.2-29,78.89.81,78.89.81Z"/>
      <path class="cls-8" d="M347.63,527.67s3.85,14.6,0,82.13c-6.08,103.43-25.15,240.93-25.15,240.93l-22.31-4.06s2.84-205.84-.2-262.63c0,0-31.43-28.19-31.23-57.19.2-29,78.89.81,78.89.81Z"/>
      <path class="cls-1" d="M267.12,524.83c0,1.42,1.22,2.64,2.64,2.64h0l73.41,1.62,5.27.2c1.42,0,2.64-1.01,2.64-2.43l1.42-19.27.81-10.34,3.85-49.48.81-10.55c-35.9-26.77-81.53-6.9-81.53-6.9-8.31,25.55-9.13,80.51-9.33,94.5Z"/>
      <polygon class="cls-1" points="349.65 528.89 267.72 526.45 266.71 531.32 349.65 533.96 349.65 528.89"/>
      <polygon class="cls-9" points="349.65 528.89 267.72 526.45 266.71 531.32 349.65 533.96 349.65 528.89"/>
      <path class="cls-9" d="M353.31,497.05l3.85-49.48c-2.23.81-4.26,1.83-6.08,3.45,0-.2-12.98,19.87,2.23,46.04Z"/>
      <path class="cls-9" d="M343.17,529.09l5.27.2c1.42,0,2.64-1.01,2.64-2.43l1.42-19.27c-3.65,6.9-6.69,14.2-9.33,21.5Z"/>
      <g class="cls-12">
        <path class="cls-3" d="M275.63,470.07l.81-2.43c1.22.81,2.64,1.22,4.06,1.22,1.62,0,2.43-.61,2.23-1.62-.2-2.43-6.9.2-7.1-5.07,0-2.43,1.62-4.06,4.66-4.26,1.42,0,3.04.2,4.26,1.01l-.81,2.43c-1.01-.61-2.03-.81-3.24-.81-1.62,0-2.43.81-2.23,1.62.2,2.64,6.9,0,7.1,5.07.2,2.43-1.83,4.06-4.87,4.26-1.83,0-3.45-.41-4.87-1.42Z"/>
      </g>
      <path class="cls-11" d="M332.62,429.51c-7.1,6.49-24.34,4.06-24.34,4.06,0,0-10.75-3.04-8.52-6.29,6.29-1.01,9.53-4.06,10.75-7.91.61-2.43.81-4.87.61-7.3,0-1.42-.2-2.64-.61-4.06l21.5-15.82c-2.84,10.55-6.29,29.81.61,37.32Z"/>
      <path class="cls-9" d="M326.94,402.34c-.81,12.78-11.36,16.43-16.63,17.04.61-2.43.81-4.87.61-7.3l16.02-9.73Z"/>
      <path class="cls-2" d="M339.11,358.94s5.88,19.27-3.45,28.59c-9.33,9.33-14.8-27.58-14.8-27.58l18.25-1.01Z"/>
      <path class="cls-11" d="M307.68,407.61c5.48,5.88,14.4,7.5,21.5,3.85,4.66-2.23,8.11-6.29,9.94-10.95.2-.61.41-1.42.61-2.03,3.24-12.78,1.83-34.27-12.17-40.15-9.94-4.26-21.5.2-25.96,10.14h0c-1.22,2.84-1.83,5.88-1.62,8.92.81,14.4.41,22.92,7.71,30.22Z"/>
      <path class="cls-2" d="M321.87,381.86c0,1.22.61,2.23,1.42,2.23s1.42-.81,1.42-2.03-.61-2.23-1.42-2.23-1.22.81-1.42,2.03Z"/>
      <path class="cls-2" d="M335.26,382.06c-.2,1.22.61,2.23,1.42,2.23s1.42-1.01,1.42-2.03-.61-2.23-1.42-2.23-1.42,1.01-1.42,2.03Z"/>
      <path class="cls-14" d="M331,382.67c1.22,3.65,3.04,7.1,5.48,10.14-1.62,1.22-3.65,1.42-5.68,1.01l.2-11.15Z"/>
      <path class="cls-2" d="M318.02,377.6c.2,0,.61,0,.61-.2,1.01-1.42,2.64-2.23,4.46-2.23.41,0,.61-.41.61-.81,0-.2-.2-.61-.61-.61h0c-2.23,0-4.26,1.01-5.68,2.64-.2.2-.2.61,0,1.01h0c.2,0,.41,0,.61.2Z"/>
      <path class="cls-2" d="M340.93,377.6h.41c.41-.2.61-.61.41-.81h0c-.81-2.03-2.64-3.65-4.87-4.06-.41,0-.81.2-.81.61h0c0,.41.2.81.61.81h0c1.62.41,3.04,1.62,3.85,3.24,0,0,.2.2.41.2Z"/>
      <path class="cls-2" d="M311.12,359.75l1.01,6.29c-2.23,1.22-3.24,3.85-2.23,6.08,2.23,5.27-.61,13.59-4.66,17.04,0,0-.2-2.23-2.03-1.62s-1.01,12.57,2.84,18.25c-5.07-5.27-8.72-11.56-10.34-18.66-3.24-11.56-3.04-20.08-.81-24.74l16.22-2.64Z"/>
      <path class="cls-11" d="M293.68,389.16c1.62,3.24,4.26,5.88,7.71,7.1,4.46,1.62,7.1-2.23,6.08-6.69-.81-3.85-4.26-9.73-8.92-9.33-3.45.2-5.88,3.24-5.68,6.49.2.61.41,1.62.81,2.43Z"/>
      <path class="cls-2" d="M329.17,397.88c-1.62,1.62-3.04,3.24-4.26,4.87l-1.01-.61c-4.66-2.43-5.88-5.07-6.08-7.3,0-1.01.2-2.23.61-3.04.2-.61.61-1.01,1.01-1.62,2.23,2.84,4.87,5.07,8.11,6.69,1.01.81,1.62,1.01,1.62,1.01Z"/>
      <path class="cls-3" d="M327.55,397.07l-1.22,1.42c-4.26-2.23-7.1-4.46-7.71-6.49.2-.61.61-1.01,1.01-1.62,2.03,2.84,4.66,5.07,7.91,6.69Z"/>
      <path class="cls-14" d="M323.9,402.34c-4.66-2.43-5.88-5.07-6.08-7.3,1.83,1.01,3.24,2.23,4.66,3.65.61,1.01,1.22,2.23,1.42,3.65Z"/>
      <path class="cls-2" d="M293.07,371.72c-1.01-6.69,1.62-13.59,7.1-17.85,9.33-7.91,35.9-11.56,39.95,0,4.06,11.56-15.62,22.11-29.81,11.97l-17.24,5.88Z"/>
      <path class="cls-1" d="M330.19,419.78l-20.48,9.33-1.22-7.5-7.71,2.64c-2.64,1.01-4.46,3.65-4.06,6.49l.81,8.11,10.34-5.68,5.27,7.3,24.74-11.97-7.71-8.72Z"/>
      <path class="cls-7" d="M330.19,419.78l-20.48,9.33-1.22-7.5-7.71,2.64c-2.64,1.01-4.46,3.65-4.06,6.49l.81,8.11,10.34-5.68,5.27,7.3,24.74-11.97-7.71-8.72Z"/>
      <path class="cls-9" d="M333.43,533.96s.41,10.95,14.6,15.62c.41-5.27,0-10.55-1.22-15.82l-13.38.2Z"/>
      <path class="cls-1" d="M357.77,437.02c12.57,12.17,31.23,51.11,25.76,67.94-4.66,14.4-26.57,35.9-33.06,41.98-1.01,1.01-2.43.81-3.45,0h0l-7.71-8.52c-.81-.81-.81-2.23-.2-3.04,5.07-6.69,24.13-32.25,25.55-37.52,1.42-6.08-14.8-29.61-14.8-29.61-1.42-6.9-1.62-13.79-.2-20.69,2.03-10.75,8.11-10.55,8.11-10.55Z"/>
      <path class="cls-1" d="M338.7,537.4l-2.84,2.84s4.46,6.69,9.73,8.11l1.42-1.42-8.31-9.53Z"/>
      <path class="cls-9" d="M338.7,537.4l-2.84,2.84s4.46,6.69,9.73,8.11l1.42-1.42-8.31-9.53Z"/>
    </g>
  </g>
</svg>