<?xml version="1.0" encoding="UTF-8"?>
<svg width="25" height="25" id="Layer_1" xmlns="http://www.w3.org/2000/svg" xmlns:xlink="http://www.w3.org/1999/xlink" viewBox="0 0 1080 1080">
  <defs>
    <style>
      .cls-1 {
        fill: #042b62;
      }

      .cls-2 {
        fill: none;
      }

      .cls-3 {
        clip-path: url(#clippath);
      }
    </style>
    <clipPath id="clippath">
      <rect class="cls-2" x="66.74" y="67.52" width="982.26" height="954.23"/>
    </clipPath>
  </defs>
  <g class="cls-3">
    <g>
      <path class="cls-1" d="M955.56,671.29v-339.13c-.15-2.55-.81-5.04-1.94-7.33-1.13-2.29-2.71-4.32-4.65-5.99-1.94-1.66-4.19-2.92-6.62-3.69-2.43-.77-4.99-1.05-7.54-.81h-80.33c-5.2-.46-10.36,1.16-14.37,4.5-4,3.34-6.52,8.13-7,13.33v305.93c-13.27.34-26.47,1.93-39.43,4.77v-210.77c-.19-2.58-.9-5.11-2.07-7.42-1.17-2.31-2.78-4.37-4.75-6.06-1.97-1.69-4.25-2.97-6.71-3.78-2.46-.81-5.06-1.12-7.65-.92h-80.33c-2.58-.22-5.17.08-7.63.88-2.46.8-4.74,2.09-6.69,3.78-1.96,1.69-3.55,3.76-4.7,6.09-1.14,2.32-1.81,4.85-1.96,7.43v285.86c-24.52,31.38-37.83,70.07-37.78,109.9,4.18,51.71,27.67,99.96,65.81,135.14,38.13,35.18,88.12,54.71,140,54.71s101.87-19.53,140-54.71c38.14-35.18,61.63-83.43,65.81-135.14-.43-31.54-8.87-62.45-24.52-89.83-15.65-27.38-38-50.34-64.96-66.72ZM874.61,352.7h39.43v298.28c-12.77-4.66-25.98-7.99-39.43-9.94v-288.34ZM712.69,452.27h39.43v203.91c-13.87,5.87-27.09,13.18-39.43,21.81v-225.72ZM980.84,905.06c-15.52,23.17-36.57,42.09-61.25,55.07-24.68,12.97-52.2,19.58-80.08,19.23-41.82,1.59-82.58-13.45-113.34-41.82-30.77-28.38-49.04-67.79-50.82-109.6.67-30.88,10.75-60.83,28.89-85.83,18.14-25.01,43.47-43.89,72.62-54.12,2.42-.41,4.74-1.25,6.86-2.48,18.05-6.12,36.98-9.23,56.04-9.19,4.38,0,8.52,0,12.86.59h.2c24.75,1.66,48.85,8.71,70.59,20.66,18.13,9.1,34.15,21.91,47.03,37.58,12.88,15.68,22.32,33.88,27.72,53.44,5.4,19.56,6.64,40.03,3.63,60.09-3.01,20.06-10.19,39.27-21.08,56.39h.16Z"/>
      <path class="cls-1" d="M375.6,567.16h-80.96c-5.28-.18-10.43,1.73-14.31,5.32-3.88,3.59-6.19,8.57-6.43,13.85v300.57c.24,5.28,2.55,10.26,6.43,13.85,3.88,3.59,9.03,5.5,14.31,5.32h80.96c5.28.18,10.43-1.73,14.31-5.32,3.88-3.59,6.19-8.57,6.43-13.85v-300.57c-.24-5.28-2.55-10.26-6.43-13.85-3.88-3.59-9.03-5.5-14.31-5.32ZM354.86,869.66h-39.43v-264.21h39.43v264.21Z"/>
      <path class="cls-1" d="M559.89,523.1h-80.96c-5.29-.18-10.43,1.73-14.31,5.32-3.88,3.59-6.19,8.57-6.43,13.85v346.55c.25,5.28,2.56,10.24,6.45,13.82,3.88,3.58,9.02,5.49,14.3,5.3h80.96c5.28.19,10.41-1.72,14.29-5.3,3.88-3.58,6.2-8.55,6.45-13.82v-346.55c-.24-5.28-2.55-10.26-6.43-13.85-3.88-3.59-9.03-5.5-14.31-5.32ZM539.15,869.65h-39.43v-308.26h39.43v308.26Z"/>
      <path class="cls-1" d="M189.25,731.79h-80.96c-5.28-.18-10.42,1.72-14.3,5.3-3.88,3.58-6.2,8.55-6.44,13.82v135.93c.25,5.28,2.56,10.24,6.44,13.82,3.88,3.58,9.02,5.49,14.3,5.3h80.96c5.28.18,10.42-1.72,14.3-5.3,3.88-3.58,6.2-8.55,6.44-13.82v-135.93c-.25-5.27-2.56-10.24-6.44-13.82-3.88-3.58-9.02-5.49-14.3-5.3ZM168.51,869.8h-39.43v-99.57h39.43v99.57Z"/>
      <path class="cls-1" d="M950.04,71.46h-158.45c-5.6-.5-11.17,1.2-15.54,4.74-4.37,3.54-7.18,8.64-7.85,14.23.53,5.59,3.23,10.74,7.53,14.35,4.29,3.61,9.83,5.4,15.42,4.97h103l-251.27,206.95-87.78-71.97c-4.87-3.25-10.59-4.98-16.44-4.98s-11.57,1.73-16.44,4.98L77.45,612.29c-2.1,1.55-3.81,3.57-4.99,5.9-1.18,2.33-1.79,4.9-1.79,7.51s.61,5.19,1.79,7.52c1.18,2.33,2.89,4.35,4.99,5.89,4.73,3.6,10.5,5.55,16.44,5.55s11.72-1.95,16.44-5.55l428.57-354.2,87.78,73.15c4.59,3.91,10.41,6.08,16.44,6.11,6.01-.17,11.79-2.32,16.44-6.11l267.32-221.15-.24,85.18c1.11,5.33,4.01,10.11,8.23,13.55,4.22,3.43,9.5,5.31,14.93,5.31s10.72-1.88,14.94-5.31c4.22-3.43,7.13-8.22,8.23-13.55l.24-131.32c-.59-5.61-3.34-10.76-7.67-14.37-4.33-3.61-9.89-5.39-15.52-4.95Z"/>
      <path class="cls-1" d="M881.29,749.14l-11.55,17.1h-24.03c2.46,2.77,4.51,5.93,6.12,9.47,1.62,3.54,2.77,7.62,3.47,12.24h25.99l-11.55,17.1h-14.44c-.93,5.62-2.77,10.82-5.55,15.6-2.69,4.7-6.27,8.78-10.74,12.25-4.47,3.39-9.78,6.05-15.94,7.97-6.08,1.93-12.94,2.89-20.56,2.89l70.24,74.75h-30.73l-67.82-72.9v-17.09h16.98c5.32,0,10.24-.5,14.79-1.5,4.54-1,8.59-2.5,12.13-4.51,3.55-2,6.47-4.43,8.78-7.28,2.39-2.93,4.04-6.31,4.96-10.17h-63.43l11.55-17.1h51.76c-1.77-6.62-5.58-11.9-11.44-15.82-5.78-3.93-13.67-5.89-23.68-5.89h-28.19l11.55-17.1h101.32Z"/>
    </g>
  </g>
</svg>