<?xml version="1.0" encoding="UTF-8"?>
<svg width="256" height="256" id="Layer_1" xmlns="http://www.w3.org/2000/svg" viewBox="0 0 1080 1080">
  <defs>
    <style>
      .cls-1 {
        fill: #042b62;
      }

      .cls-2 {
        fill: #fefefe;
      }
    </style>
  </defs>
  <path class="cls-2" d="M208.42,431.12c-.14-13.08,2.6-17.83,16.72-17.47,38.66.99,77.37.77,116.05.08,11.67-.21,16.42,2.07,15.89,14.96-1.05,26.02-.47,52.11-.21,78.16.07,7.57-1.09,13.29-8.72,17.38-52,27.86-96.44,64.8-132.93,111.14-.88,1.12-2.6,1.58-4.05,2.43-3.59-6.36-2.38-13-2.39-19.39-.09-62.43.33-124.87-.36-187.29Z"/>
  <path class="cls-2" d="M404.99,326.34c-.04-7.72,2.57-10.46,10.4-10.3,21.24.41,42.48.14,63.72.14s42.48.27,63.71-.14c7.82-.15,10.47,2.54,10.42,10.28-.24,42.32-.24,84.64.01,126.96.04,7.98-2.3,11.96-10.94,12.24-43.37,1.36-85.08,11-125.47,26.41-8.53,3.25-11.76,1.4-11.74-7.71.1-52.63.13-105.25-.11-157.88Z"/>
  <path class="cls-2" d="M601.19,449.75c.54-72.68.47-145.37.06-218.06-.06-10.72,3.15-13.75,13.86-13.58,40.28.61,80.58.64,120.86-.02,10.93-.17,13.87,3.2,13.74,13.72-.51,41.22-.21,82.45-.21,123.68-.01,40.68-.22,81.37.11,122.05.11,12.67-.7,18.71-16.75,12.5-37.12-14.38-75.87-23.31-115.96-24.06-11.9-.23-15.8-4.06-15.71-16.23Z"/>
  <path class="cls-2" d="M797.65,128.84c-.02-9.56,3.38-11.82,12.36-11.74,41.43.39,82.87.46,124.29-.04,9.82-.11,11.71,3.68,11.7,12.4-.2,165.66-.15,331.33-.23,496.99,0,3.68-.97,7.35-2.03,14.83-39.25-51.65-85.31-89.18-138.61-117.98-6.47-3.49-7.36-8.46-7.35-14.79.07-126.55.14-253.11-.13-379.67Z"/>
  <path class="cls-2" d="M996.21,886.79c-9.39-1.57-6.97-9.6-7.86-15.25-11.86-75.09-40.15-143.24-89.07-201.74-72.49-86.69-164.34-139.02-278.09-150.85-116.67-12.13-220.44,19.94-309.93,94.18-72.95,60.52-120.05,138.12-139.64,231.41-1.9,9.03-3.25,18.19-5.79,27.07-1.08,3.8-.98,9.21-7.45,8.66,8.07-16.7,8.11-35.3,12.55-52.89,42.41-167.71,187.65-294.21,359.8-312.7,229.48-24.65,435.1,137.75,462.38,365.18.32,2.64.11,5.49,3.1,6.93Z"/>
  <path class="cls-1" d="M996.44,942.21c-.71-18.45-.23-36.95-.23-55.42-2.99-1.44-2.78-4.29-3.1-6.93-27.28-227.43-232.9-389.83-462.38-365.18-172.15,18.49-317.39,144.99-359.8,312.7-4.44,17.59-4.48,36.19-12.55,52.89,0,19.49.72,39.01-.28,58.45-.55,10.62,1.33,13.69,13.06,13.63,115.74-.58,231.48-.35,347.23-.35,7.35-3.76,13.23-9.29,19.01-15.06,49.16-49.11,98.39-98.17,147.71-147.12,4.07-4.05,7.91-11.45,14.27-9.07,10.9,4.09,18.72,13.28,24.23,23.09,4.47,7.98-4.32,12.47-8.99,17.16-37.93,38.08-76.14,75.88-114.06,113.97-4.66,4.69-11.83,8.38-10.17,17.03h132.55c87.82,0,175.64-.13,263.45.21,8.19.03,10.36-1.8,10.05-10ZM864.03,827.06c-30.61,9.91-29.53,10.23-44.74-18.12-54.39-101.39-139.9-154.55-255.03-149.17-110.74,5.17-189.96,62.78-235.45,164.06-5.4,12.02-9.95,12.99-21.21,8.81-32.99-12.22-33.73-12.02-17.22-43.81,60.35-116.18,158.01-173.32,266.39-179.21,149.51.13,266.62,78.68,315.79,196.85,4.72,11.34,4.64,16.33-8.53,20.59Z"/>
  <path class="cls-2" d="M707.74,832.38c-35.85,35.73-71.75,71.4-107.47,107.25-3.69,3.7-9.03,6.33-9.88,12.37-1.66-8.65,5.51-12.34,10.17-17.03,37.92-38.09,76.13-75.89,114.06-113.97,4.67-4.69,13.46-9.18,8.99-17.16-5.51-9.81-13.33-19-24.23-23.09-6.36-2.38-10.2,5.02-14.27,9.07-49.32,48.95-98.55,98.01-147.71,147.12-5.78,5.77-11.66,11.3-19.01,15.06,57.35-57.31,114.8-114.53,171.9-172.07,6.49-6.54,10.07-6.6,16.76-.09,27.04,26.29,27.3,26.03.69,52.54Z"/>
  <path class="cls-1" d="M946,129.46c-.2,165.66-.15,331.33-.23,496.99,0,3.68-.97,7.35-2.03,14.83-39.25-51.65-85.31-89.18-138.61-117.98-6.47-3.49-7.36-8.46-7.35-14.79.07-126.55.14-253.11-.13-379.67-.02-9.56,3.38-11.82,12.36-11.74,41.43.39,82.87.46,124.29-.04,9.82-.11,11.71,3.68,11.7,12.4Z"/>
  <path class="cls-1" d="M749.61,477.54c.11,12.67-.7,18.71-16.75,12.5-37.12-14.38-75.87-23.31-115.96-24.06-11.9-.23-15.8-4.06-15.71-16.23.54-72.68.47-145.37.06-218.06-.06-10.72,3.15-13.75,13.86-13.58,40.28.61,80.58.64,120.86-.02,10.93-.17,13.87,3.2,13.74,13.72-.51,41.22-.21,82.45-.21,123.68-.01,40.68-.22,81.37.11,122.05Z"/>
  <path class="cls-1" d="M553.25,453.28c.04,7.98-2.3,11.96-10.94,12.24-43.37,1.36-85.08,11-125.47,26.41-8.53,3.25-11.76,1.4-11.74-7.71.1-52.63.13-105.25-.11-157.88-.04-7.72,2.57-10.46,10.4-10.3,21.24.41,42.48.14,63.72.14s42.48.27,63.71-.14c7.82-.15,10.47,2.54,10.42,10.28-.24,42.32-.24,84.64.01,126.96Z"/>
  <path class="cls-1" d="M357.08,428.69c-1.05,26.02-.47,52.11-.21,78.16.07,7.57-1.09,13.29-8.72,17.38-52,27.86-96.44,64.8-132.93,111.14-.88,1.12-2.6,1.58-4.05,2.43-3.59-6.36-2.38-13-2.39-19.39-.09-62.43.33-124.87-.36-187.29-.14-13.08,2.6-17.83,16.72-17.47,38.66.99,77.37.77,116.05.08,11.67-.21,16.42,2.07,15.89,14.96Z"/>
</svg>