<?xml version="1.0" encoding="UTF-8"?>
<svg  width="32" height="32" id="Layer_1" xmlns="http://www.w3.org/2000/svg" viewBox="0 0 1080 1080">
  <defs>
    <style>
      .cls-1 {
        fill: #042b62;
      }
    </style>
  </defs>
  <path class="cls-1" d="M863.97,483.17c-2.61,5.69-4.75,11.65-9.95,15.74-9.08,7.15-19.03,8.98-29.61,4.19-11.12-5.03-16.64-14.14-16.71-26.25-.15-26.75-.05-53.49-.05-80.24,0-25.57.07-51.15-.02-76.72-.11-35.01-24.26-59.03-59.36-59.17-9.38-.04-18.78.21-28.15-.1-4.17-.14-5.78.71-5.51,5.29.44,7.48.25,15.01.09,22.52-.36,16.19-12.32,28.41-27.82,28.58-15.77.18-28.08-12.16-28.44-28.66-.15-6.8-.41-13.64.09-20.4.42-5.59-.84-7.45-7-7.39-38.01.34-76.02.29-114.02.04-5.56-.04-7.93.82-7.36,7.03.64,6.98.3,14.07.11,21.1-.42,16.09-12.61,28.28-28.1,28.29-15.48.01-27.72-12.18-28.14-28.25-.2-7.74-.15-15.49.01-23.23.07-3.27-.28-4.94-4.41-4.92-39.42.18-78.83.15-118.25.03-3.57-.01-4.26,1.23-4.17,4.44.2,7.74.19,15.49.04,23.23-.34,16.51-12.62,28.86-28.4,28.71-15.5-.15-27.5-12.36-27.86-28.54-.18-7.97-.02-15.95-.04-23.93,0-1.78.57-3.94-2.52-3.83-15.44.54-31.12-1.93-46.29,1.92-25.95,6.59-42.4,28.43-42.66,55.81-.2,21.11-.04,42.23-.04,63.35,0,123.65-.01,247.29.01,370.94,0,29.01,15.31,50.07,41.95,57.8,6.12,1.77,12.44,2.12,18.8,2.12,69.45-.02,138.9-.03,208.35,0,14.13,0,24.61,6.66,28.93,18.15,6.56,17.47-5.26,36.24-23.96,38-1.63.15-3.28.15-4.92.15-70.62,0-141.24.15-211.86-.05-49.39-.14-91.04-29.76-107.41-75.99-4.34-12.24-6.2-24.96-6.2-37.97.02-145.47-.1-290.93.07-436.4.07-64.49,49.63-113.77,114.14-114.12,9.15-.05,18.33-.42,27.44.14,5.62.35,6.73-1.68,6.29-6.66-.42-4.89.21-9.87-.15-14.77-1.29-17.44,5.85-29.29,22.58-35.04h11.26c16.29,3.14,24.12,12.56,24.58,29.67.15,5.38-.03,10.77.07,16.15.14,7.7.72,8.35,8.56,8.37,29.97.06,59.94.02,89.9.02,5.62,0,11.24-.14,16.86.03,5.03.15,7.28-1.9,7.19-7.02-.11-6.32-.16-12.64.07-18.96.33-9.07,3.59-16.77,10.4-23,4.08-3.74,9.17-4.21,14.14-5.26h11.26c16.29,3.14,24.12,12.56,24.58,29.67.15,5.38-.03,10.77.07,16.15.14,7.69.74,8.35,8.56,8.37,28.8.07,57.59.03,86.39.02,7.26,0,14.52-.13,21.77.03,5.03.11,7.3-1.91,7.19-7.02-.12-5.85-.13-11.71.03-17.56.47-17.11,8.3-26.52,24.58-29.67h11.26c15.8,3.01,23.95,12.69,24.4,29.14.17,6.32.14,12.66.02,18.98-.09,4.5,1.87,6.33,6.31,6.3,9.84-.08,19.68-.03,29.52-.02,48.56.08,94.06,34.06,108.11,80.58,1.97,6.53,1.88,13.34,3.41,19.9v180.22Z"/>
  <path class="cls-1" d="M862.49,676.84c-5.98-42.8-24.7-79.09-57.76-106.87-48.99-41.14-105.16-53.04-165.66-32.18-63.99,22.08-102.9,68.27-113.3,135.3-9.99,64.23,12.13,117.97,62.45,158.77,38.93,31.56,84.16,41.94,133.93,34.56,61.09-9.06,119.04-60.22,134.98-119.99,2.5-9.34,2.82-19.18,6.83-28.13v-38.01c-1.96-.51-1.3-2.19-1.47-3.44ZM762.49,700.56c-1,13.86-11.89,25.34-25.95,25.93-14.99.62-30.03.64-45.02,0-14.6-.62-25.51-12.5-25.98-27.33-.31-9.85-.06-19.71-.07-29.56-.01-9.4-.15-18.78.03-28.16.31-16.52,12.62-28.85,28.4-28.7,15.5.15,27.49,12.37,27.85,28.55.17,8.2.24,16.43-.07,24.63-.14,3.83,1.18,4.72,4.75,4.59,4.9-.15,9.83-.46,14.7.83,13.49,3.61,22.36,15.61,21.37,29.21Z"/>
  <path class="cls-1" d="M319.04,415.62c15.39-.03,28.16,12.68,28.19,28.07.03,15.39-12.68,28.16-28.07,28.19-15.39.03-28.16-12.68-28.19-28.07-.03-15.39,12.68-28.16,28.07-28.19Z"/>
  <path class="cls-1" d="M469.72,443.85c-.06,15.39-12.84,28.09-28.23,28.03-15.39-.06-28.09-12.84-28.03-28.23.06-15.39,12.84-28.09,28.23-28.03,15.39.06,28.09,12.84,28.03,28.23Z"/>
  <path class="cls-1" d="M592.21,443.87c-.07,15.39-12.87,28.08-28.25,28.01-15.39-.07-28.08-12.87-28.01-28.25.07-15.39,12.87-28.08,28.25-28.01,15.39.07,28.08,12.87,28.01,28.25Z"/>
  <path class="cls-1" d="M714.7,443.49c.14,15.39-12.48,28.24-27.87,28.39-15.39.14-28.24-12.48-28.39-27.87-.14-15.39,12.48-28.24,27.87-28.39,15.39-.14,28.24,12.48,28.39,27.87Z"/>
  <path class="cls-1" d="M347.23,566.35c-.06,15.39-12.86,28.08-28.24,28.02-15.39-.06-28.08-12.86-28.02-28.24.06-15.39,12.86-28.08,28.24-28.02,15.39.06,28.08,12.86,28.02,28.24Z"/>
  <path class="cls-1" d="M469.72,566.21c.02,15.39-12.71,28.15-28.1,28.16-15.39.02-28.15-12.71-28.16-28.1-.02-15.39,12.71-28.15,28.1-28.16,15.39-.02,28.15,12.71,28.16,28.1Z"/>
  <path class="cls-1" d="M318.88,716.86c-15.39-.12-28.03-12.97-27.91-28.35.12-15.39,12.97-28.03,28.35-27.91,15.39.12,28.03,12.97,27.91,28.35-.12,15.39-12.97,28.03-28.35,27.91Z"/>
  <path class="cls-1" d="M469.72,688.85c-.07,15.39-12.87,28.08-28.25,28.01-15.39-.07-28.08-12.87-28.01-28.25.07-15.39,12.87-28.08,28.25-28.01,15.39.07,28.08,12.87,28.01,28.25Z"/>
  <path class="cls-1" d="M693.61,584.55c-62.68,0-114.04,51.36-114.03,114.04,0,62.68,51.35,114.04,114.03,114.04s114.04-51.36,114.04-114.04-51.36-114.04-114.04-114.04ZM762.49,700.56c-1,13.86-11.89,25.34-25.95,25.93-14.99.62-30.03.64-45.02,0-14.6-.62-25.51-12.5-25.98-27.33-.31-9.85-.06-19.71-.07-29.56-.01-9.4-.15-18.78.03-28.16.31-16.52,12.62-28.85,28.4-28.7,15.5.15,27.49,12.37,27.85,28.55.17,8.2.24,16.43-.07,24.63-.14,3.83,1.18,4.72,4.75,4.59,4.9-.15,9.83-.46,14.7.83,13.49,3.61,22.36,15.61,21.37,29.21Z"/>
</svg>