<?xml version="1.0" encoding="UTF-8"?>
<svg width="112" height="128" id="Layer_1" xmlns="http://www.w3.org/2000/svg" viewBox="0 0 1080 1080">
  <defs>
    <style>
      .cls-1 {
        fill: #042b62;
      }

      .cls-2 {
        fill: #8f8f8f;
      }

      .cls-3 {
        fill: #929292;
      }

      .cls-4 {
        fill: #939393;
      }

      .cls-5 {
        fill: #878787;
      }

      .cls-6 {
        fill: #fefdfd;
      }

      .cls-7 {
        fill: #888;
      }

      .cls-8 {
        fill: #fefefe;
      }

      .cls-9 {
        fill: #989898;
      }
    </style>
  </defs>
  <path class="cls-1" d="M590.03,950.65c-5.16.26-10.33.75-15.49.76-91.61.05-183.24-1.28-274.81.49-61.42,1.18-104.72-50.16-104.12-102.99.08-6.91-.49-13.87.11-20.73.66-7.57-2.5-9.67-9.49-9.05-5.49.49-11.05.16-16.58.06-17.22-.3-25.15-8.22-25.19-25.7-.1-49.43-.03-98.86-.03-148.3,0-6.22-.2-12.45.03-18.67.52-14.25,8.6-22.29,22.73-22.88.69-.03,1.39.04,2.07-.03,8.48-.85,19.36,3.77,24.85-2.16,4.92-5.33,1.4-15.88,1.41-24.11.09-119.61.16-239.21.04-358.82-.04-38.34,14.64-69.1,46.21-91.11,12.6-8.79,26.75-14.58,42.39-15.07,30.04-.94,60.1-1.04,90.14.03,1.6,1.75,2.86,3.77,4.37,5.58,7.68,9.21,14.85,8.63,21.41-1.67.92-1.44,2.16-2.59,3.23-3.89,16.9-.21,33.8-.57,50.7-.59,54.56-.07,109.13.53,163.68-.24,31.4-.44,56.91,10.63,78.44,32.97,39.03,40.49,78.49,80.56,117.55,121.02,17.26,17.88,28.22,38.93,29.7,64.23,1.35,3.34.71,6.84.72,10.26.04,112.69-.03,225.39.17,338.08.01,7.61-.92,13.26-8.99,16.32-4.75,1.8-6.71,6.64-7.71,11.63-1.19,5.92-4.64,9.18-10.99,8.29-6.26-.88-7.17-5.61-7.39-10.72-.18-4.15-.11-8.3-.11-12.44,0-115.81.01-231.61-.04-347.42,0-5.83.81-11.79-1.71-17.37-5.15-15.62-14.56-28.79-24.3-41.78-1.03-4.37-.57-8.83-.77-13.25-.71-15.85-10.83-25.97-26.78-26.31-4.84-.1-9.53-.21-13.97-2.39-23.59-20.33-45.56-42.4-66.07-65.71-16.39-18.63-35.28-28.52-60.42-28.42-103.35.41-206.72,1.04-310.06-.26-40.78-.51-65.93,23.9-71.44,57.8-.5,3.07-1.29,6.09-2.12,9.08-.48,16.69-4.61,30.65-17.86,43.37-12.16,11.67-6.9,29.56,7.94,38.58,5.45,3.31,9.06,7.24,10.16,13.49,1.04,6.19.74,12.42.74,18.62.02,82.87.01,165.74.01,248.61,0,3.45-.07,6.91.05,10.36.41,11.25,1.5,12.55,12.68,12.62,27.97.19,55.94-.14,83.9.13,21.04.21,42.11-1.18,63.11.85,7.06,2.32,7.81,7.91,7.17,14.14-.64,6.15-5.3,5.93-9.88,6.57-8.31,1.17-11.73,6.04-10.74,14.46.36,3.01,1.99,5.96.22,9.02-2.75,2.3-5.85,2.33-9.08,1.39-2.17-2.01-4.34-4.05-6.78-.27-3.2,1.51-6.81.97-10.07,2.08-5.33,6.04-7.72,14.17-14.54,19.19-3.78,2.78-7.1,5.3-11.96,3.2-1.22-.67-2.5-1.36-3.28-2.48-11.8-17.01-29.51-19.95-48.28-20.29-7.91-.14-15.83-.07-23.74-.02-13.8.1-14.81.99-14.87,14.53-.11,27.53,0,55.06-.06,82.58,0,4.8.41,9.65-1.24,14.31-1.59,3.64-5.32,3.9-8.36,5.32-22.79,10.6-25.61,37.03-4.72,51.01,9.02,6.03,6.7,15.01,9.6,22.65.93,9.3,1.87,18.57,4.5,27.59,8.77,30.08,31.37,47.44,62.67,47.47,104.02.1,208.05.03,312.07.06,5.86,0,11.76-.37,17.56.7,11.94,6.2,13.82,10.74,7.98,22.46-2.09,4.21-.79,11.03-7.75,12.03-4.17.6-8.13.2-9.84-4.65,1.47,7.21-3.98,4.86-6.8,4.32-5.47-1.06-9.89-4.5-14.34-8.59,6.58,10.81-3.75,7.76-7.53,10.05Z"/>
  <path class="cls-1" d="M590.03,950.65c1.52-2.44,4.61-1.35,6.39-2.7,2.32-1.77,2.96-4.25-1.07-4.72-2.03-.24-5.55,2.07-4.02-2.56.87-2.64,3.42-4.51,6.61-2.42,3.68,2.4,7.41,4.76,10.87,7.46,2.56,2,4.93,3.74,8.3,2.26.88-2.14-.93-3.03-1.88-4.29-1.27-1.69-2.82-3.6.03-4.94,1.91-.9,4.51-.59,5.27,1.7,1.21,3.65.01,8.8,6.62,8.08,6.58-.72,2.95-6.81,5.32-9.66,6.05-7.3,6.56-14.27-.97-20.9,3.95-4.7,9.45-3.45,14.43-3.47,29.59-.15,59.19-.67,88.76.13,21.57.58,39.96-5.33,55.14-20.79,1.44-1.47,3.03-2.81,4.85-3.78.61-.28,1.26-.49,1.93-.6,4.4-.74,9.79,4.97,12.54.92,3.71-5.46,9.39-9.92,10.66-17.03.79-4.46,2.14-10.17,7.97-7.95,5.55,2.12,7.3,7.86,5.33,13.92-1.45,4.45-9.53,14.55-16.11,20.27,3.21-1.08,5.04-3.67,7.69-4.98,2.87-1.42,5.7-2.65,8.45.19-16.55,34.18-43.44,54.99-81.54,56.13-52.81,1.57-105.71.4-158.57.37-1,0-2.01-.42-3.01-.65Z"/>
  <path class="cls-1" d="M833.16,894.8c-9.02-.73-12.74,8.48-20.36,10.86-1.25-4.46,1.14-7.16,4.36-9.39,6.17-4.27,8.88-11.24,13.36-16.83,3.35-4.17.15-7-1.28-10.26-.7-1.6-1.9-3.37-3.83-2.51-3.5,1.57-2.82,5.06-3.08,8.11-.65,7.66-8.18,11.42-10.65,18.68-1.41,4.13-9.8.34-14.37-3.01-2.11-3.88.24-5.62,3.34-7,8.84-1.31,13.16-6.31,12.93-15.37-.2-8.1,4.19-16.87-3.77-23.76-1.51-30.87-.38-61.73-.64-92.58-.07-7.93,3.95-10.23,11.11-8.75,18.47,2.75,21.24,6.31,18.5,24.2-1.48,9.65,1.72,19.02,1.26,28.68-1.05,22.23.71,44.5.1,66.75-.07,2.51,1.47,4.55,1.94,6.9-2.02,8.76-3.86,17.59-8.91,25.29Z"/>
  <path class="cls-1" d="M820.33,745.3c-2.54,4.27-5.4-1.99-8.1.27v101.38c2.4,4.82,5.2,9.75-3.14,11.7-3.73-6.02-2.5-12.75-2.5-19.21-.07-164-.11-328.01.11-492.01.01-8.41-3.25-17.13,1.24-25.36,5.19,4.51,4.09,10.65,4.09,16.41.03,119.48.02,238.96.03,358.43,0,2.76.15,5.53-.01,8.29-.27,4.69,1.43,7,6.5,6.91,4.6-.08,6.01-2.25,5.9-6.43-.25-9.4,4.7-14.92,13.65-16.32,6.64-1.04,4.83-5.74,4.85-9.45.14-24.17.07-48.34.07-72.52,0-89.09,0-178.18.01-267.27,0-3.45.22-6.89.34-10.34,2.35,4.91,1.44,10.18,1.45,15.29.05,165.77.05,331.53-.01,497.3,0,5.8.98,11.76-1.47,17.38-4.02-6.52-3.1-13.88-3.15-20.93-.2-32.38-.08-64.76-.1-97.14,0-2.76.1-5.52-.1-8.26-.19-2.72.08-6.27-2.87-7.21-4.07-1.3-3.75,3.09-4.76,5.22-2.75,5.8-6.96,10.18-12.04,13.87Z"/>
  <path class="cls-1" d="M820.33,745.3c-.06-4.42,3.64-6.38,6.01-9.22,3.84-4.61,6.07-9.74,4.58-16.15,10.13.56,12.39,5.68,12.31,14.79-.37,41.67,0,83.35.11,125.03-.42,3.25-.85,6.51-1.27,9.76-2.47-1.72-5.14-2.83-5.12-6.9.15-25.98.54-51.97-.38-77.92-.29-8.1-1.74-15.91.17-24.14,3.19-13.77-8.36-12.89-16.4-15.26Z"/>
  <path class="cls-1" d="M403.3,112.41c-1.69,7.83-3.22,15.77-14.18,14.69-8.97-.88-14-5.67-14.83-14.71,9.67-1.08,19.34-1,29.01.02Z"/>
  <path class="cls-8" d="M807.94,322.08c2.55,11.56,1.99,23.3,1.99,35,.01,162.25.02,324.5.01,486.75,0,5.17-.11,10.34-.17,15.52.99,9.43-.6,17.97-8.41,24.35-1.93,1.9-3.73,3.88-4.05,6.75-15.89,19.51-36.07,27.84-61.51,27.12-34.73-1-69.52.16-104.28.4-13.11-.23-26.22-.65-39.33-.66-97.09-.06-194.18-.9-291.25.38-40.6.54-70.11-29.17-71.42-70.78-.11-3.45-.29-6.89-.43-10.33-2.97-18.09-1.41-20.08,16.29-19.94,120.08.96,240.16.15,360.24.4,5.49.01,11.08.68,16.29-1.8,10.71-3.65,14.71-11.43,14.69-22.37-.07-54.62.09-109.24-.12-163.86-.06-15.74-6.04-21.38-22.56-21.44-59.11-.2-118.23-.06-177.34-.09-3.45,0-6.91.21-10.37-.12-10.42-.84-21.3,2.72-31.19-3.21-51.08-.17-102.16-.62-153.24-.25-10.05.07-12.54-2.67-12.5-12.59.39-90.45.24-180.9.22-271.36,0-4.13-.27-8.26-.41-12.4-5.5-13.95-2.13-28.54-3.05-42.82-.43-4.56-.09-9.11.08-13.67,3.78-11.35.39-23.32,2.99-34.77,2.2-21.88,8.36-41.75,26.43-56.36,10.93-8.84,23.12-13.83,36.99-13.85,110.85-.15,221.7-.17,332.55-.03,17.47.02,31.8,7.75,43.89,20.14,24.58,25.18,49.29,50.24,73.94,75.35,8.04,2.69,12.23,9.78,17.45,15.57,8.26,9.15,18.62,16.42,24.74,27.49,9.94,11.08,18.87,22.78,22.86,37.49Z"/>
  <path class="cls-8" d="M352.13,646c3.92-.08,7.84-.15,11.77-.23,1.38-1.26,2.76-1.34,4.14,0,3.47.03,6.93.05,10.4.08,7.35-6.03,15.09-.72,22.64-.81,37.12,6.13,52.94,42.04,47.7,78.64-5.22,36.48-27.57,55.21-64.32,55.61-8.63.1-17.26.2-25.88-.09-4.07-.14-8.46.1-10.94-4.31-2.01-6.41-1.14-13-1.14-19.5,0-27.54.09-55.08-.57-82.61-.19-8.04,2.13-15.61,2.77-23.45.16-1.95,1.67-2.87,3.44-3.33Z"/>
  <path class="cls-6" d="M233.14,761.89c.19-34.45.8-68.91.32-103.35-.14-10.15,2.81-13.09,12.69-12.36,12,.88,24.12.16,36.18.25,19.48.14,35.8,6.3,45.63,24.48,9.3,9.72,5.44,20.82,3.33,31.73-3.81,9.76-10.31,17.13-19.58,22.06-9.69,5.55-20.65,5.36-31.23,6.93-6.48.72-13.28-1.6-19.42,2.12-4.53,10.57-1.62,21.62-2.03,32.4-.34,8.85-3.41,13.72-12.78,13.19-6.69.1-13.17-.21-15.35-8.38-.54-3.33-.06-6.42,2.23-9.06Z"/>
  <path class="cls-1" d="M233.14,761.89c.04,2.76.09,5.52.13,8.29-15.54,5.94-18.44,11.4-12.02,22.82,3.6-1.04,3.3-4.91,5.17-7.19,2.21-2.7,4.42-6.16,8.21-5.22,3.75.93,4.4,4.87,4.85,8.4.26,2.03-.73,4.12.34,6.21,7.97-4.34,3.59-12.5,5.84-18.56,8.89,1.04,11.21-2.68,11.03-11.61-.25-11.99-2.67-24.26,1.45-36.13,4.49,5.36,3.12,11.83,3.14,17.92.05,11.76.02,23.16,5.98,34.19,4.73,8.77,1.92,18.31-2.7,26.81-2.82,5.19-1.07,6.84,4.15,6.81,2.76-.02,5.53.02,8.29.02,109.56,0,219.12-.03,328.68.07,6.04,0,12.57-1.54,17.78,3.34-3.06,2.33-6.65,1.43-10,1.43-121.76,0-243.52-.04-365.28-.16-17.45-.02-17.45-.23-19.1,17.24-2.32-1.68-2.19-4.2-2.01-6.56.42-5.43-1.42-8.36-6.9-10.84-9.62-4.35-17.22-20.35-15.37-29.23,3.33-16.01,14.41-26.98,28.35-28.06Z"/>
  <path class="cls-1" d="M401.22,647.53c-7.6-.56-15.2-1.11-22.8-1.67-1.16-6.11-6.01-11.58-2.04-18.56,2.64-4.64,6.24-7.44,11.1-8.25,11.18-1.88,11.62-2.47,7.51-14.9,10.38,0,20.76-.01,31.14-.02,1.73,14.32-.97,19.6-13.53,23.16-5.51,1.56-6.45,5.25-7.82,9.56-1.14,3.57-2.97,6.92-3.57,10.68Z"/>
  <path class="cls-1" d="M328.57,703.82c2.8-11.03,2.94-22.01-.61-32.91,9.41-3.27,16.12-9.45,19.17-18.97.94-2.95.36-6.4,5-5.93-2.34,2.02-2.41,4.75-2.4,7.53.19,40.84.36,81.68.54,122.52-7.86.05-5.67-6.31-5.78-10.16-.52-17.53-.14-35.07-.27-52.61-.03-4.03.86-8.27-2.26-12.66-4.06,2.18-7.21,11.18-13.38,3.19Z"/>
  <path class="cls-1" d="M229.08,216.3c1.13,11.75.81,23.49-.04,35.23-2.29,2.6-5.58,4.06-7.8,6.72-4.95,5.92-4.71,11.46.54,16.94,5.22-2.62-.1-10.73,7.28-11.17,0,14.51,0,29.02,0,43.54-2.53-2.04-2.92-5.55-6.95-6.92-12.49-4.24-16.64-15.32-17.64-26.88-.99-11.55,5.86-21.47,14.91-26.76,7.08-4.15,7.49-8.4,7.76-14.75.23-5.32-2.14-11.07,1.93-15.95Z"/>
  <path class="cls-1" d="M785.08,284.59c-14.68-13.75-28.99-27.86-42.2-43.05,6.45,2.75,13.21-.89,19.94,1.41,15.4,5.27,22.16,13.93,22.21,30.29.01,3.78.03,7.56.04,11.34Z"/>
  <path class="cls-1" d="M368.03,645.77c-1.38,0-2.76,0-4.14,0,.3-3.28-.37-8.35,4.6-7.09,3.41.87.25,4.65-.46,7.09Z"/>
  <path class="cls-1" d="M801.36,883.7c2.8-8.12,5.61-16.24,8.41-24.35,4.11-3.48,1.45-8.3,2.46-12.39,4.41-.29,6.99,1.86,5.79,6.12-2,7.1-1.55,14.3-2.06,21.48-.56,7.8-8.43,8.69-12.93,12.79-.56-1.21-1.11-2.43-1.67-3.64Z"/>
  <path class="cls-1" d="M328.57,703.82c3.17-.38,9.98,5.49,7.43-4.67-1.14-4.54,3.14-3.32,5.55-3.53,4.65-.4,5.78,2.38,5.76,6.45-.08,14.45-.02,28.91-.01,43.36,0,7.57-.1,15.14.04,22.71.05,2.89-1.13,6.43,2.92,7.92,13.45.06,26.92.49,40.35.09,29.4-.88,50.81-20.18,54.89-49.21,1.89-13.42,1.88-26.83-2-39.98-6.33-21.43-20.51-34.52-42.28-39.43-5.97-4.02.86-6.79.98-10.2.29-8.61,3.14-13.47,13.27-13.01,4.36.2,8.35-4.67,8.5-10.24.1-3.5.39-6.87,2.17-9.96,51.07-.16,102.13-.33,153.2-.47,12.77-.04,25.55-.27,38.31.08,14.33.4,22.37,8.54,22.4,22.87.13,56.6.11,113.21-.03,169.81-.03,12.09-4.7,17.72-16.57,21.65-24.5-.12-49-.33-73.5-.34-93.89-.04-187.77-.01-281.66,0-4.08,0-8.16,0-12.59,0,.65-4.56,3.52-7.11,5.45-10.23,5.29-8.57,8.3-18.23,2.66-27.13-4.61-7.27-5.77-14.41-5.61-22.47.19-9.66-.02-19.33-.06-28.99,7.58-1.47,15.17-1.05,22.77-.25,4.91,2.58,9.05,6.15,12.63,10.32,2.86,3.33,4.67,3.92,7.56-.47,3.55-5.39,7.79-10.33,10.91-16.04,7.35-4.59,12.22-11.38,16.56-18.64Z"/>
  <path class="cls-4" d="M520.53,508.71c-65.98,0-131.97,0-197.95,0-2.42,0-4.84.03-7.25-.03-2.5-.06-5.13-.27-5.03-3.67.09-3.23,2.72-3.61,5.17-3.82,2.06-.17,4.14-.11,6.21-.11,133.35,0,266.7,0,400.05,0,1.73,0,3.46-.04,5.18.05,2.44.14,5.33.34,5.58,3.36.32,3.87-2.87,4.09-5.71,4.19-2.42.08-4.84.02-7.25.02-66.33,0-132.66,0-198.99,0Z"/>
  <path class="cls-9" d="M521.56,336.97c56.01,0,112.02,0,168.02-.01,12.05,0,24.1-.04,36.16-.02,2.74,0,6.4-.2,6.71,3.22.41,4.48-3.68,4.24-6.7,4.25-24.55.07-49.09.06-73.64.06-109.6,0-219.19.03-328.79-.11-4.41,0-12.38,2.42-12.42-3.22-.05-7.21,8.08-4.01,12.57-4.02,66.03-.21,132.06-.14,198.09-.15Z"/>
  <path class="cls-3" d="M520.5,392.41c66.31,0,132.63,0,198.94,0,2.76,0,5.53-.04,8.29.05,2.05.07,4.56,0,4.8,2.71.31,3.47-2.52,3.52-4.96,3.63-2.07.09-4.14.05-6.22.05-132.97,0-265.95.03-398.92-.11-4.03,0-11.46,2.46-11.47-2.79,0-6.37,7.55-3.38,11.63-3.4,65.97-.22,131.94-.15,197.91-.15Z"/>
  <path class="cls-7" d="M722.79,452.89c-5.53,0-11.06,0-16.59,0-8.99-3.5-17.99-3.5-26.98,0h-33.18c-4.46-3.73-9.83-2.34-14.7-2.03-11.7.72-23.65-2.72-35.1,2.03-92.96.13-185.92.27-278.88.4-.69,0-1.39.03-2.07-.05-1.99-.22-4.53.07-4.82-2.69-.37-3.45,2.33-3.68,4.81-3.79,2.07-.09,4.15-.02,6.22-.02,132.37,0,264.74-.04,397.11.06,4.3,0,8.99-1.63,12.91,1.73-2,3.26-6.7,1.13-8.72,4.36Z"/>
  <path class="cls-2" d="M469.69,282.53c49.44.01,98.88.01,148.32.02,2.07,0,4.15,0,6.22.06,2.18.06,4.47.57,4.63,3.09.17,2.63-2.14,3.22-4.28,3.37-2.07.15-4.15.12-6.22.12-98.54,0-197.08.04-295.62-.15-4.19,0-11.77,2.59-11.8-3.6-.03-5.1,7.41-2.8,11.46-2.82,49.1-.18,98.19-.11,147.29-.1Z"/>
  <path class="cls-1" d="M229.06,264.02c-3.2,2.65-1.7,6.34-2.16,9.61-.31,2.19.98,5.39-2.27,5.99-2.37.44-4.36-1.36-5.95-3.34-3.13-3.9-5.63-8.06-3.49-13.13,2.59-6.12,5.78-11.87,13.85-11.62,0,4.16.01,8.33.02,12.49Z"/>
  <path class="cls-5" d="M596.24,452.89c.33-2.85,1.92-4.22,4.8-4.22,13.4.02,26.8.02,40.2,0,2.88,0,4.47,1.37,4.8,4.22-16.6,0-33.2,0-49.8,0Z"/>
  <path class="cls-5" d="M679.22,452.89c5.62-6.19,21.35-6.19,26.98,0-8.99,0-17.99,0-26.98,0Z"/>
  <path class="cls-5" d="M722.79,452.89c.71-5.84,5.39-3.75,8.72-4.36.46,8.18-5.43,3.67-8.72,4.36Z"/>
  <path class="cls-1" d="M372.76,712.09c0-13.47.04-26.94-.04-40.4-.02-3.76.25-6.26,5.22-6.92,26.16-3.47,43.84,10.48,45.56,36.86.88,13.47.93,26.93-5.58,39.48-6.61,12.75-29.99,21.78-42.45,16.36-3.59-1.56-2.63-4.49-2.65-7.03-.11-12.78-.05-25.55-.05-38.33Z"/>
  <path class="cls-1" d="M275.41,709.93q-18.87-.01-18.88-17.05c0-1.03-.1-2.08.02-3.1.92-8.06-3.79-21.03,2.04-23.24,10.99-4.17,24.5-3.89,36.28.86,9.66,3.89,13.56,12.42,12.81,22.63-.74,10.05-6.28,16.24-16.18,18.87-5.83,1.55-11.65.5-16.09,1.03Z"/>
  <path class="cls-1" d="M245.65,776.64c4.54,13.12,2.67,18.01-9.55,23.85-.91-6.22,4.29-13.01-1.93-18.46-5.6,1.76-6.78,6.91-8.59,11.68-.66,1.74-.37,4.85-3.11,4.51-1.7-.21-3.82-1.91-4.62-3.51-2.8-5.59-5.27-11.62-.52-17.31,4.03-4.83,7.76-11.19,15.94-7.23.5,9.1,7.89,5.01,12.38,6.47Z"/>
  <path class="cls-1" d="M312.01,722.46c2.02,10.74-10.03,14.09-12.16,22.87-.55,2.27-3.52-.18-4.85-1.58-4.76-4.97-9.4-10.06-14.09-15.1,10.46-1.61,21.23-1.64,31.1-6.2Z"/>
  <path class="cls-6" d="M468.99,711.15c0-18.64.21-37.27-.12-55.9-.11-6.45,1.35-9.18,8.54-9.03,21.73.46,43.48.43,65.22.01,7.19-.14,8.51,2.56,8.37,9.08-.14,6.55-.94,10.1-8.87,9.75-14.12-.63-28.3.08-42.44-.3-6.06-.16-8.86,1.31-8.46,7.95.48,7.91.32,15.88-.02,23.8-.23,5.52,2.03,7.11,7.3,6.99,12.76-.29,25.55.24,38.3-.21,6.81-.24,7.14,3.46,6.88,8.41-.24,4.62,1.41,9.98-6.63,9.76-12.76-.35-25.54.3-38.3-.13-6.1-.21-7.71,1.93-7.57,7.69.33,13.45-.14,26.92.15,40.37.24,10.73-7.61,6.22-12.42,6.77-4.94.57-10.33,1.6-10.1-7.05.51-19.31.16-38.65.15-57.97Z"/>
</svg>