<?xml version="1.0" encoding="UTF-8"?>
<svg width="24" height="24" id="Layer_1" xmlns="http://www.w3.org/2000/svg" xmlns:xlink="http://www.w3.org/1999/xlink" viewBox="0 0 1080 1080">
  <defs>
    <style>
      .cls-1 {
        fill: #042b62;
      }

      .cls-2 {
        fill: none;
      }

      .cls-3 {
        clip-path: url(#clippath);
      }
    </style>
    <clipPath id="clippath">
      <rect class="cls-2" x="88.34" y="64.21" width="951.66" height="951.66"/>
    </clipPath>
  </defs>
  <g class="cls-3">
    <g>
      <path class="cls-1" d="M1014.42,432.7l-114.37-11.58c-4.13-11.66-8.87-23.1-14.2-34.26l72.61-89.15c4.45-5.47,6.72-12.4,6.36-19.45-.36-7.05-3.32-13.71-8.3-18.7l-111.71-111.83c-4.99-4.99-11.65-7.95-18.7-8.3-7.05-.36-13.97,1.91-19.45,6.36l-74.91,60.99c-4.29,3.43-9.44,5.63-14.89,6.36-5.44.73-10.99-.03-16.04-2.19l-.67-.28c-5.08-2.05-9.51-5.43-12.82-9.8-3.31-4.36-5.38-9.54-5.98-14.99l-9.79-96.05c-.72-7.02-4.01-13.53-9.25-18.26-5.23-4.73-12.04-7.35-19.1-7.36h-158.03c-7.06,0-13.87,2.61-19.11,7.35-5.24,4.73-8.53,11.25-9.24,18.27l-9.79,96.09c-.61,5.45-2.68,10.64-6.01,15-3.32,4.37-7.77,7.75-12.87,9.78l-.63.24c-5.05,2.16-10.59,2.91-16.03,2.17-5.44-.74-10.58-2.94-14.86-6.37l-74.87-60.95c-5.47-4.45-12.4-6.72-19.45-6.36-7.05.36-13.71,3.32-18.7,8.3l-111.75,111.71c-4.99,4.99-7.95,11.65-8.3,18.7s1.91,13.98,6.36,19.45l61.19,74.91c3.42,4.28,5.62,9.41,6.36,14.85.74,5.43,0,10.96-2.16,16.01l-.32.75c-2.05,5.08-5.43,9.51-9.8,12.82-4.36,3.31-9.54,5.37-14.99,5.97l-96.09,9.83c-7.03.71-13.54,4-18.27,9.24-4.73,5.24-7.35,12.05-7.35,19.11v157.99c0,7.06,2.61,13.87,7.35,19.11,4.73,5.24,11.25,8.53,18.27,9.24l96.09,9.83c5.45.6,10.63,2.67,15,5.99,4.36,3.32,7.75,7.76,9.79,12.84l.28.67c2.16,5.05,2.91,10.59,2.17,16.03-.74,5.44-2.94,10.58-6.37,14.86l-61.15,74.83c-4.45,5.47-6.72,12.4-6.36,19.45s3.32,13.71,8.3,18.7l111.71,111.71c4.99,4.98,11.65,7.95,18.7,8.3,7.05.36,13.98-1.91,19.45-6.36l74.91-61.11c4.29-3.43,9.42-5.64,14.86-6.37,5.44-.74,10.98,0,16.03,2.17l.71.28c5.08,2.05,9.51,5.43,12.82,9.79,3.31,4.37,5.37,9.55,5.97,14.99l9.79,96.09c.72,7.02,4.01,13.53,9.25,18.26,5.24,4.73,12.04,7.35,19.1,7.36h158.03c7.06,0,13.87-2.63,19.1-7.36,5.24-4.73,8.53-11.24,9.25-18.26l9.79-96.09c.6-5.45,2.67-10.63,5.99-15,3.32-4.36,7.76-7.74,12.84-9.79l.67-.28c5.05-2.16,10.59-2.91,16.03-2.17,5.44.74,10.58,2.94,14.86,6.37l74.87,60.99c5.47,4.45,12.4,6.72,19.45,6.36,7.05-.36,13.71-3.32,18.7-8.3l111.75-111.71c4.99-4.99,7.95-11.65,8.3-18.7.36-7.05-1.91-13.97-6.36-19.45l-61.15-74.75c-3.43-4.3-5.62-9.44-6.36-14.89-.73-5.44.02-10.99,2.19-16.04l.28-.67c2.05-5.08,5.43-9.51,9.79-12.82,4.37-3.31,9.55-5.38,14.99-5.98l96.09-9.83c7.03-.71,13.54-4,18.27-9.24,4.73-5.24,7.35-12.05,7.34-19.11v-157.99c0-7.06-2.61-13.87-7.34-19.11-4.73-5.24-11.25-8.53-18.27-9.24h.12ZM983.01,593.3l-70.47,7.18c-15.68,1.64-30.63,7.51-43.25,16.97-12.62,9.46-22.44,22.17-28.41,36.76l-.24.59c-6.12,14.55-8.17,30.5-5.94,46.12,2.22,15.63,8.65,30.36,18.59,42.63l44.73,54.92-75.35,75.35-54.92-44.73c-12.25-9.9-26.95-16.3-42.53-18.52-15.59-2.22-31.49-.18-46.02,5.9l-.63.28c-14.61,5.96-27.32,15.78-36.79,28.4-9.47,12.62-15.34,27.57-16.98,43.26l-7.22,70.47h-106.67l-7.22-70.47c-1.64-15.68-7.5-30.63-16.95-43.24-9.45-12.61-22.15-22.44-36.74-28.41l-.79-.28c-14.55-6.12-30.49-8.17-46.12-5.94-15.63,2.22-30.36,8.65-42.63,18.59l-54.76,44.73-75.35-75.35,44.77-54.88c9.9-12.25,16.31-26.94,18.54-42.53,2.23-15.59.19-31.49-5.89-46.02l-.24-.63c-5.97-14.61-15.78-27.32-28.4-36.79-12.62-9.47-27.57-15.34-43.26-16.98l-70.47-7.18v-106.71l70.47-7.18c15.68-1.65,30.62-7.53,43.24-17,12.61-9.47,22.42-22.18,28.38-36.78l.24-.75c6.09-14.53,8.14-30.44,5.92-46.04-2.22-15.6-8.62-30.3-18.53-42.56l-44.73-54.92,75.35-75.35,54.88,44.73c12.25,9.91,26.95,16.32,42.55,18.55,15.6,2.23,31.51.19,46.04-5.9l.59-.24c14.6-5.97,27.32-15.78,36.79-28.4,9.47-12.62,15.34-27.57,16.98-43.26l7.22-70.47h106.52l7.22,70.47c1.66,15.7,7.55,30.66,17.04,43.28,9.49,12.62,22.23,22.43,36.86,28.38l.59.24c14.55,6.12,30.5,8.17,46.12,5.95s30.36-8.65,42.63-18.6l54.92-44.73,75.35,75.35-68.13,83.55c-3.59,4.4-5.79,9.76-6.31,15.41-.52,5.65.65,11.33,3.38,16.31,10.18,18.64,18.32,38.32,24.31,58.69,1.6,5.43,4.78,10.26,9.14,13.88,4.36,3.62,9.69,5.85,15.33,6.42l107.07,10.94.2,106.52Z"/>
      <path class="cls-1" d="M682.98,398.68l-163.06,163.07-74.51-74.52c-10.59-10.58-24.94-16.53-39.91-16.53s-29.33,5.95-39.91,16.53c-10.59,10.59-16.53,24.94-16.53,39.91s5.95,29.33,16.53,39.91l114.45,114.41c5.24,5.24,11.46,9.4,18.31,12.24,6.85,2.84,14.19,4.3,21.6,4.3s14.76-1.46,21.6-4.3c6.85-2.84,13.07-7,18.31-12.24l203-203c10.59-10.58,16.54-24.93,16.54-39.9,0-14.97-5.94-29.32-16.52-39.91-10.58-10.59-24.93-16.53-39.9-16.54-14.97,0-29.32,5.94-39.91,16.52l-.08.04Z"/>
    </g>
  </g>
</svg>