<?xml version="1.0" encoding="UTF-8"?>
<svg width="600" height="500" id="Layer_1" xmlns="http://www.w3.org/2000/svg" viewBox="0 0 1080 1080">
  <defs>
    <style>
      .cls-1 {
        fill: #042b62;
      }

      .cls-2 {
        fill: #263238;
      }

      .cls-3 {
        fill: #fff;
      }

      .cls-4 {
        fill: #ffbe9d;
      }

      .cls-5 {
        fill: #e0e0e0;
      }

      .cls-6 {
        opacity: .3;
      }

      .cls-7 {
        opacity: .6;
      }

      .cls-8 {
        fill: #455a64;
      }

      .cls-9 {
        fill: #ebebeb;
      }

      .cls-10 {
        fill: #f5f5f5;
      }

      .cls-11 {
        fill: #fafafa;
      }

      .cls-12 {
        fill: #eb996e;
      }
    </style>
  </defs>
  <g id="freepik--background-complete--inject-103">
    <path class="cls-10" d="M842.92,582.54l-153.47-58.03c-10.6-4.01-15.94-15.84-11.93-26.44,0,0,0-.01,0-.02l80.31-212.41c4.01-10.6,15.86-15.95,26.46-11.94l97.34,36.8,45.96,106.14-58.22,154.04c-4.04,10.57-15.88,15.88-26.46,11.86Z"/>
    <path class="cls-9" d="M881.64,310.5l-22.62,59.78c-3.74,9.86,1.23,20.89,11.09,24.62h0s57.48,21.74,57.48,21.74l-45.96-106.14Z"/>
    <path class="cls-5" d="M857.81,375.83s-6.23,14.22,8.44,25.32c.55.41,1.13.79,1.73,1.14,7.01,4.22,53.09,31.65,53.51,30.53l6.08-16.08-57.48-21.73s-14.14-6.01-12.28-19.18Z"/>
    <path class="cls-5" d="M847.07,362.98c-.3.78-16.42-4.62-36.02-12.03-19.6-7.41-35.26-14.05-34.97-14.77s16.42,4.62,36.02,12.03c19.6,7.41,35.26,13.95,34.97,14.77Z"/>
    <path class="cls-5" d="M880.14,414.13c-.3.76-26.67-8.44-58.94-20.7-32.26-12.26-58.2-22.73-57.9-23.51s26.67,8.44,58.96,20.72c32.29,12.28,58.11,22.71,57.88,23.49Z"/>
    <path class="cls-5" d="M879.99,446.33c-.3.76-29.04-9.39-64.21-22.71-35.18-13.32-63.45-24.71-63.16-25.47s29.04,9.39,64.21,22.71c35.18,13.32,63.54,24.69,63.16,25.47Z"/>
    <path class="cls-5" d="M869.93,472.96c-.3.76-29.04-9.39-64.21-22.71-35.18-13.32-63.45-24.79-63.16-25.47s29.04,9.39,64.21,22.68c35.18,13.29,63.45,24.71,63.16,25.49Z"/>
    <path class="cls-5" d="M859.86,499.59c-.3.76-29.06-9.39-64.21-22.71-35.16-13.32-63.45-24.71-63.18-25.47s29.04,9.39,64.23,22.68c35.2,13.29,63.43,24.71,63.16,25.49Z"/>
    <path class="cls-5" d="M849.78,526.22c-.27.76-29.04-9.41-64.19-22.71-35.16-13.29-63.47-24.71-63.18-25.47s29.04,9.39,64.21,22.68c35.18,13.29,63.45,24.71,63.16,25.49Z"/>
    <rect class="cls-9" x="164.66" y="388.07" width="241.21" height="333.98" rx="13.42" ry="13.42" transform="translate(-167.42 125.48) rotate(-19.3)"/>
    <rect class="cls-5" x="182.59" y="405.76" width="207.37" height="304.41" transform="translate(-168.33 125.98) rotate(-19.3)"/>
    <rect class="cls-11" x="178.13" y="404.57" width="207.37" height="298.61" transform="translate(-167.23 124.27) rotate(-19.3)"/>
    <path class="cls-5" d="M428.99,660.52l-98.95-281.73.36.17-195.68,68.56h0l.19-.38c36.89,105.85,71.22,203.61,98.63,281.83l-.32-.15,195.78-68.31-195.63,68.81h-.23v-.23c-27.43-78.22-61.66-175.99-98.76-281.81v-.3h.27l195.7-68.5h.27v.25l98.36,281.77Z"/>
    <path class="cls-5" d="M359.58,684.82s43.58-36.76,51.13-75.04c-8.84,12.26-22.3,20.38-37.27,22.47,0,0-.87,40.09-13.86,52.56Z"/>
    <rect class="cls-9" x="187.86" y="511.12" width="25.34" height="25.34" rx="7.22" ry="7.22" transform="translate(-161.85 95.72) rotate(-19.3)"/>
    <path class="cls-3" d="M200.24,527.76h0c-.15.08-.32.08-.46,0l-4.73-2.74c-.26-.2-.31-.57-.11-.83.16-.21.45-.29.7-.18l4.22,2.41,4.98-10.55c.15-.29.5-.42.8-.3.3.14.42.49.28.79,0,0,0,.01,0,.02l-5.25,11.23c-.11.11-.26.18-.42.17Z"/>
    <path class="cls-5" d="M335.38,466.4c0,.17-25.32,9.22-56.74,20.22-31.42,10.99-56.97,19.77-56.97,19.62s25.32-9.22,56.76-20.22c31.44-10.99,56.91-19.77,56.95-19.62Z"/>
    <path class="cls-5" d="M275.7,506.96s-.65.3-1.84.76l-5.11,1.9c-4.22,1.56-10.3,3.69-16.88,6.01-6.58,2.32-12.66,4.39-16.88,5.85l-5.17,1.71c-.63.23-1.27.41-1.92.55.59-.31,1.2-.57,1.84-.78l5.11-1.88c4.22-1.58,10.3-3.71,16.88-6.04,6.58-2.32,12.66-4.37,16.88-5.85l5.17-1.71c.62-.23,1.27-.41,1.92-.53Z"/>
    <path class="cls-5" d="M338.06,474.17c0,.15-25.32,9.2-56.76,20.19-31.44,10.99-56.97,19.79-56.97,19.62s25.32-9.2,56.78-20.19c31.46-10.99,56.95-19.79,56.95-19.62Z"/>
    <rect class="cls-9" x="202.56" y="553.11" width="25.34" height="25.34" rx="7.22" ry="7.22" transform="translate(-174.9 102.93) rotate(-19.3)"/>
    <path class="cls-3" d="M214.95,569.76h0c-.15.08-.33.08-.49,0l-4.71-2.74c-.28-.15-.38-.5-.23-.77,0,0,.01-.02.02-.03.15-.28.5-.38.77-.23,0,0,.02.01.03.02l4.22,2.41,4.98-10.66c.14-.29.48-.42.78-.3.3.13.43.48.3.78l-5.25,11.25c-.09.15-.25.25-.42.27Z"/>
    <path class="cls-5" d="M350.09,508.39c0,.17-25.32,9.2-56.76,20.22-31.44,11.02-56.97,19.77-56.97,19.62s25.32-9.22,56.76-20.22c31.44-10.99,56.93-19.77,56.97-19.62Z"/>
    <path class="cls-5" d="M290.41,548.95s-.65.3-1.86.76l-5.09,1.9c-4.22,1.56-10.3,3.69-16.88,6.01-6.58,2.32-12.66,4.39-16.88,5.85l-5.17,1.71c-.63.23-1.27.41-1.92.55.59-.31,1.2-.58,1.84-.78l5.11-1.88c4.22-1.58,10.3-3.71,16.88-6.04,6.58-2.32,12.66-4.37,16.88-5.85l5.17-1.71c.62-.23,1.27-.41,1.92-.53Z"/>
    <path class="cls-5" d="M352.83,516.2c0,.15-25.32,9.2-56.76,20.19-31.44,10.99-56.97,19.79-56.97,19.62s25.32-9.2,56.76-20.19c31.44-10.99,56.97-19.84,56.97-19.62Z"/>
    <rect class="cls-9" x="217.28" y="595.09" width="25.34" height="25.34" rx="7.22" ry="7.22" transform="translate(-187.95 110.16) rotate(-19.3)"/>
    <path class="cls-3" d="M229.66,611.75h0c-.15.08-.33.08-.49,0l-4.73-2.7c-.3-.13-.44-.48-.31-.78.13-.3.48-.44.78-.31.04.02.09.04.13.07l4.22,2.41,4.98-10.66c.12-.3.46-.45.77-.33s.45.46.33.77c0,.02-.01.03-.02.05l-5.25,11.25c-.1.12-.24.2-.4.23Z"/>
    <path class="cls-5" d="M364.79,550.39c0,.17-25.32,9.2-56.76,20.22-31.44,11.02-56.97,19.77-56.97,19.6s25.32-9.2,56.78-20.19c31.46-10.99,56.89-19.77,56.95-19.62Z"/>
    <path class="cls-5" d="M305.12,590.92c-.6.31-1.22.57-1.86.78l-5.11,1.9c-4.22,1.56-10.28,3.69-16.88,6.01-6.6,2.32-12.66,4.37-16.88,5.85l-5.17,1.71c-.63.23-1.27.41-1.92.55.59-.31,1.2-.58,1.84-.78l5.11-1.9c4.22-1.56,10.3-3.69,16.88-6.01,6.58-2.32,12.66-4.37,16.88-5.85l5.15-1.71c.64-.22,1.3-.4,1.96-.55Z"/>
    <path class="cls-5" d="M367.6,558.15c0,.15-25.32,9.2-56.76,20.19-31.44,10.99-56.97,19.79-56.97,19.62s25.32-9.2,56.76-20.22c31.44-11.02,56.83-19.77,56.97-19.6Z"/>
    <rect class="cls-9" x="231.98" y="637.08" width="25.34" height="25.34" rx="7.22" ry="7.22" transform="translate(-201 117.38) rotate(-19.3)"/>
    <path class="cls-3" d="M244.34,653.74h0c-.15.06-.32.06-.46,0l-4.73-2.74c-.28-.17-.37-.53-.2-.81.17-.28.53-.37.81-.2l4.22,2.41,4.98-10.55c.13-.3.48-.43.78-.3.29.14.42.48.3.78l-5.28,11.25c-.11.11-.26.17-.42.17Z"/>
    <path class="cls-5" d="M379.5,592.38c0,.17-25.32,9.2-56.76,20.19-31.44,10.99-56.97,19.79-56.97,19.62s25.32-9.2,56.76-20.19c31.44-10.99,56.91-19.84,56.97-19.62Z"/>
    <path class="cls-5" d="M319.8,632.91c-.59.31-1.2.58-1.84.78l-5.11,1.9c-4.22,1.56-10.3,3.69-16.88,6.01-6.58,2.32-12.66,4.37-16.88,5.85l-5.17,1.71c-1.22.38-1.92.57-1.92.55.59-.31,1.2-.58,1.84-.78l5.11-1.9c4.22-1.56,10.3-3.69,16.88-6.01,6.58-2.32,12.66-4.37,16.88-5.85l5.17-1.71c.63-.23,1.27-.41,1.92-.55Z"/>
    <path class="cls-5" d="M382.22,600.14c0,.15-25.32,9.2-56.76,20.19-31.44,10.99-56.97,19.77-56.97,19.62s25.32-9.2,56.76-20.22c31.44-11.02,56.91-19.77,56.97-19.6Z"/>
    <path class="cls-5" d="M156.77,419.77l5.15,14.77c3,8.56,12.37,13.08,20.93,10.09l108.25-37.98c8.55-2.98,13.06-12.34,10.08-20.88,0,0,0-.02,0-.03l-5.15-14.77-139.25,48.81Z"/>
    <path class="cls-5" d="M227.84,399.76c-8.03,2.82-16.82-1.39-19.64-9.42-2.82-8.03,1.39-16.82,9.42-19.64,8.03-2.82,16.82,1.39,19.64,9.42,0,.01,0,.03.01.04,2.8,8.02-1.42,16.79-9.43,19.6ZM219.61,376.27c-4.95,1.73-7.56,7.14-5.84,12.1,1.73,4.95,7.14,7.56,12.1,5.84,4.95-1.73,7.56-7.14,5.84-12.1,0,0,0,0,0-.01-1.73-4.94-7.14-7.55-12.09-5.82Z"/>
    <path class="cls-5" d="M314.36,438.12c0,.27-28.45,10.55-63.75,22.9-35.3,12.34-64,22.16-64.11,21.88s28.45-10.55,63.75-22.9c35.3-12.34,64-22.24,64.11-21.88Z"/>
    <path class="cls-5" d="M277.79,443.29c0,.27-12.45,4.94-28.04,10.4-15.59,5.47-28.32,9.75-28.42,9.37s12.47-4.94,28.07-10.4c15.59-5.47,28.32-9.64,28.4-9.37Z"/>
  </g>
  <g id="freepik--Plants--inject-103">
    <path class="cls-1" d="M840.28,870.88c7.77-3.65,16.51-4.71,24.92-3.02,4.52.74,9.24,2.11,12.3,5.49,3.06,3.38,3.67,9.37.13,12.28-2.29,1.56-5.05,2.25-7.81,1.96-6.6,0-13.91-1.24-19.16,2.72-3.02,2.26-5,6.01-8.59,7.13-3.71.86-7.54-.86-9.35-4.22-1.71-3.3-2.08-7.13-1.06-10.7.9-5.01,4.08-9.32,8.61-11.65Z"/>
    <path class="cls-1" d="M822.81,837.37c4.64,6.6,13.65,4.43,17.83.38,4.18-4.05,5.93-9.9,7.53-15.47,3.67-12.77,7.39-26.15,4.66-39.14-.68-3.91-2.41-7.55-5-10.55-2.69-3.03-6.79-4.39-10.76-3.59-4.56,1.2-7.36,5.66-9.41,9.88-6.02,12.51-9.17,26.21-9.22,40.09,0,6.46.74,13.21,4.37,18.55"/>
    <path class="cls-1" d="M810.08,846.86c4.84-6.32,6.25-14.62,3.76-22.18-2.55-7.41-7.09-13.98-13.13-18.99-6.86-6.1-14.85-10.81-23.51-13.86-3.35-1.35-6.95-1.96-10.55-1.79-3.66.21-6.98,2.21-8.86,5.36-2.49,4.73,0,10.45,2.45,15.11,4.52,8.23,9.68,16.09,15.45,23.51,4.62,5.97,9.92,11.86,16.99,14.56,7.07,2.7,14.37,2.36,18.11-2.51"/>
    <path class="cls-2" d="M822.51,937.2c.23-.98.37-1.99.4-3,.23-2.11.49-4.94.8-8.21.41-4.05,1.03-8.07,1.86-12.05,1.07-4.84,2.53-9.59,4.37-14.2,1.8-4.6,4.25-8.93,7.26-12.85,2.45-3.2,5.59-5.81,9.18-7.64,2.43-1.21,5.04-2.02,7.72-2.41,1.01-.04,2.02-.18,3-.42-1.02-.11-2.04-.11-3.06,0-2.78.22-5.5.94-8.04,2.11-3.78,1.78-7.09,4.41-9.69,7.68-3.14,3.98-5.67,8.4-7.51,13.13-1.87,4.67-3.33,9.5-4.35,14.43-.78,4.03-1.31,8.1-1.6,12.2-.27,3.48-.36,6.33-.4,8.25-.1.99-.07,1.99.06,2.98Z"/>
    <path class="cls-2" d="M823.06,930.89c.06-.46.06-.93,0-1.39v-3.92c0-3.46,0-8.44.17-14.77.32-12.39,1.37-25.7,3.44-44.48,1.94-17.66,4.56-38.22,7.32-51.57.59-3.04,1.18-5.78,1.75-8.17.57-2.38.99-4.47,1.43-6.14.44-1.67.68-2.87.93-3.88.12-.46.2-.92.25-1.39-.21.42-.37.85-.49,1.31-.32,1.01-.7,2.28-1.16,3.84s-1.06,3.71-1.65,6.1c-.59,2.38-1.29,5.11-1.94,8.15-3.38,15.82-5.92,31.81-7.62,47.9-2.11,18.82-3,35.87-3.06,48.37,0,6.2,0,11.23.21,14.77,0,1.62.17,2.95.23,3.99.02.44.07.88.17,1.31Z"/>
    <path class="cls-2" d="M823.14,897.85c.12-1.4.12-2.82,0-4.22-.24-3.78-.67-7.55-1.29-11.29-.9-5.55-2.13-11.05-3.67-16.46-1.79-6.66-4.09-13.17-6.88-19.48-4.78-11.62-11.62-22.28-20.19-31.46-1.5-1.57-3.09-3.04-4.77-4.41-.72-.63-1.37-1.24-2.11-1.73l-1.84-1.27c-1.11-.85-2.29-1.6-3.52-2.24,4.05,3.17,7.89,6.59,11.5,10.26,8.32,9.25,14.99,19.85,19.71,31.36,2.74,6.27,5.05,12.71,6.92,19.29,1.59,5.36,2.89,10.8,3.9,16.29.87,4.71,1.37,8.44,1.67,11.18.09,1.4.28,2.8.57,4.18Z"/>
    <polygon class="cls-2" points="791.2 956.15 794.51 1001.52 852.81 1001.52 856.11 956.15 791.2 956.15"/>
    <rect class="cls-2" x="785.58" y="938.26" width="77.51" height="17.89"/>
    <polygon class="cls-8" points="785.58 999.79 785.58 1004.73 789.21 1004.73 861.78 1004.73 861.78 999.79 785.58 999.79"/>
    <polygon class="cls-8" points="792.78 1013.46 789.21 1004.73 859.02 1004.73 854.84 1013.46 792.78 1013.46"/>
    <path class="cls-5" d="M855.05,970.96s0,.17-.27.42l-.87,1.16-3.4,4.35-.15.19-.15-.21-8.34-11.52h.51l-8.23,11.63-.25.36-.3-.34-9.73-11.61h.55l-.53.68-8.72,10.91-.27.38-.27-.38c-2.95-4.22-5.72-8.1-8.23-11.63h.49l-10.11,11.52-.19.21-.15-.23c-1.33-2.24-2.38-4.03-3.17-5.32l-.8-1.41c-.11-.16-.19-.33-.25-.51,0,0,.13.13.34.44l.91,1.37,3.31,5.21h-.32l9.96-11.67.25-.3.23.32,8.29,11.58h-.57l8.76-10.91.55-.68.27-.36.27.34,9.73,11.63h-.55l8.29-11.58.23-.34.25.34c3.27,4.71,6.08,8.69,8.17,11.67h-.32l3.55-4.22.95-1.1.25-.4Z"/>
    <path class="cls-8" d="M856.93,955.83c0,.21-14.6.38-32.62.38s-32.62-.17-32.62-.38,14.6-.36,32.62-.36,32.62.17,32.62.36Z"/>
    <path class="cls-2" d="M859.88,1005.23c0,.19-15.89.36-35.45.36s-35.45-.17-35.45-.36,15.87-.38,35.45-.38,35.45.17,35.45.38Z"/>
  </g>
  <g id="freepik--Character--inject-103">
    <rect class="cls-5" x="396.36" y="765.71" width="311.5" height="248.41"/>
    <g class="cls-6">
      <path d="M419.05,766.21c36.67,13.08,77.13,15.89,116.48,16.63,8.17.15,16.42.13,24.31,2.11,7.89,1.98,15.51,6.48,19.56,13.55,4.41,7.7,3.95,17.35,1.43,25.85s-6.84,16.37-9.96,24.67c-5.53,14.67-7.22,30.51-4.92,46.02.71,6.61,2.93,12.96,6.5,18.57,3.66,5.65,9.78,9.23,16.5,9.66,11.84.17,19.94-11.46,25.81-21.76,24.08-42.2,50.12-90.1,65.52-136.17l-261.24.87Z"/>
    </g>
    <path class="cls-8" d="M502.5,1012.79c-.32,0-.55-55.05-.55-122.96s.23-122.98.55-122.98.55,55.05.55,122.98-.25,122.96-.55,122.96Z"/>
    <path class="cls-1" d="M630.15,582.12c-.93-6.2-19.46-26.67-19.46-26.67,0,0-9.24-37.16-12.03-48.11-.93-3.17-2.28-6.19-4.03-8.99-6.55-10.91-15.87-19.9-27.01-26.06l-25.64-14.41-6.12-13.63-61.57-31.65-16.69,29.54s-40.54,12.87-45.9,22.01c-5.36,9.14,2.66,132.52,2.66,132.52,0,0-16.88,71.16-20.53,85.88s1.14,32.29,1.14,32.29l30.2-37.88c9.39-11.77,29.99-17.2,44.78-16.99l126.42.57-5.09-35.41,102.28,19.79s17.58-34.31,18.99-34.99-82.4-27.81-82.4-27.81Z"/>
    <path class="cls-3" d="M471.67,453.63c-.89-.91,7.13,26.21,17.22,53.83,5.43,14.93,8.19,30.69,8.17,46.57v100.02l60.6-4.11-9.05-65.88s-7.39-42.5-9.45-58.66c-1.9-14.77-8.44-54.86-8.44-54.86,0,0-33.66,8.95-59.04-16.9Z"/>
    <path class="cls-2" d="M606.18,606.94c-.09-.51-.09-1.03,0-1.54.14-1.38.41-2.74.8-4.07,1.28-4.44,3.66-8.48,6.92-11.75,3.28-3.26,7.32-5.66,11.75-6.96,1.33-.39,2.69-.66,4.07-.8.5-.1,1.02-.1,1.52,0,0,.19-2.11.42-5.36,1.54-8.55,2.93-15.26,9.66-18.17,18.21-1.12,3.27-1.35,5.38-1.54,5.38Z"/>
    <path class="cls-2" d="M609.3,582.97c2.82-1.65,6-2.57,9.26-2.68,3.23-.45,6.52-.05,9.56,1.14,0,.34-4.22-.49-9.47,0-5.25.49-9.22,1.86-9.35,1.54Z"/>
    <g class="cls-6">
      <path d="M408.26,637.56l-5.28,5.95c5.5,6.79,12.96,11.73,21.35,14.14,8.47,1.8,17.12,2.58,25.77,2.32,3.5.17,7.01-.16,10.42-.99,3.44-.99,6.63-2.93,10.19-3.14,2.39.01,4.77.35,7.07,1.01,2.31.66,4.76.69,7.09.11,2.37-.64,4.04-2.76,4.11-5.21-26.31-7.69-53.38-12.44-80.74-14.18Z"/>
    </g>
    <path class="cls-4" d="M581.3,645.2l-14.77-15.78-30.7-7.7s-28.02,8.44-28.7,8.44-24.39-6.5-24.39-6.5l-8.29,30.43,42.73,2.93,48.79-1.96s2.55-2.36,1.03-3.99,8.17,2.74,9.31,2.79,3.33.93,4.85-.89c1.03-1.35,2.43-5.34.15-7.77Z"/>
    <path class="cls-12" d="M566.99,650.96c-1.66-.31-3.28-.78-4.85-1.39-2.95-.93-7.07-2.11-11.65-3.38-4.58-1.27-8.8-2.11-11.86-2.64-1.67-.22-3.32-.61-4.92-1.16,1.69-.07,3.38.05,5.04.38,4.04.56,8.04,1.35,11.99,2.36,3.95,1,7.84,2.24,11.65,3.71,1.62.5,3.16,1.21,4.6,2.11Z"/>
    <path class="cls-12" d="M581.3,645.2c-2.3-.58-4.57-1.29-6.79-2.11-4.22-1.39-9.98-3.12-16.46-4.92-6.48-1.79-12.22-3.84-16.59-4.09-2.35-.12-4.71-.03-7.05.27.57-.31,1.19-.53,1.84-.63,1.73-.37,3.49-.51,5.25-.42,4.52,0,10.55,1.92,16.88,3.82s12.28,3.65,16.42,5.25c2.11.78,3.69,1.5,4.83,2,.59.19,1.15.47,1.67.82Z"/>
    <path class="cls-1" d="M411.7,464.14s-22.05,15.34-27.43,37.41c-5.38,22.07-28.61,112.28-23.84,125.77,4.77,13.48,97.49,26.74,97.49,26.74l10.99-46.42-47.1-12.89s.61-42.94,1.2-60.73-11.31-69.87-11.31-69.87Z"/>
    <polygon class="cls-3" points="468.32 614.62 483.49 618.35 474.35 653.34 459.46 650.96 468.32 614.62"/>
    <path class="cls-2" d="M360.09,622.55s0,.78.23,2.11c.51,2.04,1.64,3.87,3.23,5.25,4.03,3.76,11.73,6.88,21.48,8.63h0c4.45,1.48,9.54,2.64,14.96,3.86,5.42,1.22,11.29,2.47,17.45,3.71,12.34,2.53,26,5.19,40.47,7.89l-.63.4c1.03-4.22,2.11-8.84,3.27-13.46,2.6-10.55,5.13-20.93,7.51-30.7l.38.63-41.76-11.84h0c-5.77-2.43-12-3.52-18.25-3.21-4.75.26-9.41,1.36-13.78,3.25-2.78,1.2-5.43,2.67-7.91,4.39l-1.92,1.39c-.21.17-.44.32-.68.44,0,0,.19-.21.59-.55s1.01-.87,1.86-1.5c2.45-1.82,5.09-3.37,7.87-4.62,4.39-1.99,9.11-3.17,13.93-3.48,6.36-.41,12.72.65,18.61,3.08h0l41.89,11.73.51.13-.13.51c-2.38,9.77-4.9,20.07-7.47,30.72-1.14,4.6-2.24,9.16-3.29,13.44l-.13.51h-.51c-14.48-2.72-28.11-5.42-40.45-8-6.16-1.29-12.01-2.57-17.45-3.84-5.44-1.27-10.55-2.47-15.02-4.01h0c-9.88-1.88-17.58-5.13-21.65-9.07-1.61-1.45-2.72-3.38-3.17-5.51-.15-.76-.17-1.54-.04-2.3Z"/>
    <path class="cls-2" d="M424.38,597.89c-.13.15-1.71-1.31-4.54-3.19-7.41-4.96-16.16-7.52-25.07-7.32-3.42,0-5.51.46-5.55.27,1.77-.64,3.63-.99,5.51-1.03,9.16-.66,18.25,1.98,25.62,7.45,1.55,1.04,2.91,2.33,4.03,3.82Z"/>
    <path class="cls-2" d="M430.57,522.34c.08.94.08,1.89,0,2.83,0,1.84-.19,4.45-.44,7.7-.53,6.48-1.48,15.4-3.19,25.2-1.34,8.38-3.29,16.64-5.85,24.73-.51,1.54-1.06,2.93-1.5,4.22l-1.35,3.04c-.4.87-.88,1.69-1.46,2.45.26-.9.62-1.78,1.06-2.62.36-.91.74-1.94,1.18-3.08s.87-2.62,1.33-4.22c2.31-8.12,4.15-16.36,5.51-24.69,1.69-9.75,2.76-18.63,3.48-25.09.32-3.06.59-5.61.8-7.64.03-.96.17-1.91.42-2.83Z"/>
    <path class="cls-2" d="M484.34,498.43s-.21-.57-.72-1.56c-.75-1.41-1.85-2.6-3.19-3.46-2.01-1.38-4.54-1.75-6.86-1.01-2.95,1.01-5.15,3.51-5.78,6.56l-.3,1.5-.65-1.39c-2.47-5.3-4.62-10.74-6.44-16.29-3.22-9.25-4.84-18.99-4.77-28.78,0-1.88.25-3.57.36-5.06.11-1.5.44-2.74.68-3.76.22-1.06.53-2.11.93-3.12-.72,3.94-1.12,7.94-1.2,11.94.17,9.69,1.88,19.29,5.04,28.45,1.82,5.51,3.93,10.92,6.33,16.21l-.95.13c.74-3.38,3.23-6.1,6.52-7.15,2.55-.77,5.31-.29,7.45,1.29,1.37.96,2.45,2.28,3.12,3.82.18.4.32.83.4,1.27.04.27.06.44.02.44Z"/>
    <path class="cls-2" d="M535.78,503.18c-.23-.82-.39-1.66-.49-2.51-.46-2.33-.61-4.7-.44-7.07.47-3.64,2.29-6.97,5.09-9.35,1.73-1.42,3.9-2.21,6.14-2.22,2.47-.03,4.83,1.03,6.46,2.89l-.93.55-2-5.04c-3.95-9.94-7.45-18.99-9.94-25.51l-2.89-7.79c-.4-.93-.71-1.9-.91-2.89.52.87.96,1.79,1.31,2.74.84,2.11,1.92,4.58,3.23,7.66,2.68,6.48,6.33,15.45,10.23,25.32l1.98,5.06,1.29,3.25-2.11-2.72c-1.41-1.64-3.47-2.56-5.63-2.53-2.01-.01-3.96.67-5.53,1.92-2.64,2.2-4.4,5.28-4.96,8.67-.23,2.31-.18,4.64.13,6.94.1.87.09,1.75-.02,2.62Z"/>
    <path class="cls-2" d="M574.92,508.41c.3,0,5.06,32.03,10.66,71.64,5.59,39.61,9.85,71.75,9.56,71.75s-5.06-32.03-10.66-71.75c-5.59-39.71-9.85-71.6-9.56-71.64Z"/>
    <g class="cls-6">
      <path d="M461.04,483.11c.26,8.21,2.04,16.29,5.25,23.84,2.3-2.85,4.85-5.85,8.44-6.69,4.35-1.03,8.76,1.65,11.9,4.94-.54-3.29-1.84-6.41-3.8-9.12-1.98-2.69-5.1-4.31-8.44-4.37-3.38.08-6.27,2.44-7.03,5.74l-6.06-14.2"/>
    </g>
    <path class="cls-2" d="M425.4,506.3c-.19,0-.13-2.22-.76-5.66-.87-4.48-2.61-8.75-5.13-12.56-1.42-2.06-3.04-3.98-4.83-5.72-1.49-1.41-3.11-2.67-4.83-3.78-2.98-1.88-5.06-2.6-4.98-2.79.52.04,1.03.17,1.5.38.59.16,1.16.38,1.71.65.73.31,1.43.68,2.11,1.1,1.84,1.04,3.55,2.27,5.13,3.67,1.89,1.76,3.58,3.73,5.04,5.87,2.62,3.92,4.32,8.38,4.98,13.04.21,1.4.28,2.81.21,4.22,0,1.01-.06,1.56-.15,1.56Z"/>
    <path class="cls-4" d="M547.89,355.83c-2.5-23.43-22.57-41.02-46.13-40.41h-2.34c-25.22,2.11-37.5,24.71-34.67,49.84l6.92,88.42,2.93,3.59c13.54,16.64,36.59,22.07,56.13,13.23h0l-1.94-28.45s24.18-4.39,23.84-28.66c-.15-11.77-2.43-35.87-4.75-57.57Z"/>
    <path class="cls-12" d="M528.99,441.99c-11.26.31-22.37-2.62-32.01-8.44,0,0,7.91,17.28,32.07,14.48l-.06-6.04Z"/>
    <path class="cls-2" d="M540.21,375.79c.05,1.87-1.38,3.45-3.25,3.59-1.83.18-3.46-1.16-3.65-2.99,0-.02,0-.03,0-.05-.06-1.88,1.38-3.46,3.25-3.59,1.82-.19,3.45,1.13,3.64,2.95,0,.03,0,.06,0,.09Z"/>
    <path class="cls-2" d="M541.75,362.6c-.27.42-3.02.72-6.33,2.49-3.31,1.77-5.25,3.99-5.7,3.95s0-.61.82-1.6c1.26-1.4,2.76-2.56,4.43-3.44,1.59-.89,3.34-1.47,5.15-1.71,1.24-.13,1.77.11,1.62.32Z"/>
    <path class="cls-2" d="M505.18,377.63c.08,1.88-1.37,3.48-3.25,3.59-1.82.19-3.45-1.13-3.64-2.95,0-.03,0-.06,0-.09-.06-1.88,1.38-3.46,3.25-3.59,1.82-.19,3.45,1.13,3.64,2.95,0,.03,0,.06,0,.09Z"/>
    <path class="cls-2" d="M504.76,367.69c-.49,0-2.74-1.41-6.33-2.3-3.59-.89-6.56-.7-6.88-.99s.38-.42,1.67-.53c1.88-.12,3.77.06,5.59.53,1.77.42,3.45,1.13,4.98,2.11.84.68,1.1,1.14.97,1.18Z"/>
    <path class="cls-2" d="M519.28,396.66c1.96-.65,3.98-1.07,6.04-1.24.95,0,1.84-.34,1.98-.99.06-.98-.18-1.95-.7-2.79l-3.02-7.2c-4.22-10.21-7.22-18.63-6.79-18.78s4.22,7.98,8.29,18.19c1.01,2.53,1.98,4.94,2.89,7.24.62,1.13.83,2.44.59,3.71-.27.69-.83,1.22-1.54,1.43-.52.16-1.06.26-1.6.27-2.03.31-4.1.36-6.14.15Z"/>
    <path class="cls-2" d="M504.76,353.29c-.42.99-4.11.34-8.44.63s-8,1.35-8.44.4c-.25-.44.42-1.37,1.88-2.28,3.97-2.26,8.76-2.56,12.98-.8,1.39.74,2.15,1.56,2.03,2.05Z"/>
    <path class="cls-2" d="M541.67,354.12c-.82.87-4.03,0-7.87,0s-7.11.65-7.87-.23c-.34-.42.17-1.29,1.58-2.11,1.95-1.02,4.13-1.52,6.33-1.46,2.22-.02,4.4.55,6.33,1.65,1.39.87,1.86,1.75,1.5,2.15Z"/>
    <path class="cls-2" d="M554.96,334.26c-.44-2.29-2.52-3.89-4.85-3.74,1.21-.35,2.35-.93,3.33-1.71,1-.81,1.45-2.12,1.16-3.38-.63-1.88-3.04-2.28-4.94-2.81-2.49-.72-4.7-2.2-6.33-4.22-2.3-2.91-3.19-6.71-5.19-9.85-4.78-7.5-14.74-9.7-22.23-4.92-.98.62-1.89,1.35-2.71,2.17-6.46-6.64-17.08-6.79-23.72-.33-1.33,1.29-2.43,2.79-3.27,4.44-9.97-4.16-21.43.55-25.58,10.52-1.44,3.44-1.86,7.22-1.22,10.89l15.11,9.26c.48-4.48,4.5-7.73,8.99-7.25.33.03.65.09.97.16,4.56,1.33,7.47,6.6,12.2,6.96,3.69.27,6.84-2.57,10.4-3.52,4.33-1.16,8.9.57,12.81,2.76,3.9,2.19,7.64,4.94,11.99,6.04,5.19,1.04,10.58.4,15.38-1.84,2.13-.75,4.08-1.95,5.7-3.52,1.62-1.6,2.37-3.89,2-6.14Z"/>
    <path class="cls-2" d="M477.08,333.48l69.21-.38c-2.5-4.65-6.13-8.6-10.55-11.48-9.19-6.72-20.27-10.36-31.65-10.4-11.29,0-33.87,14.5-41.82,22.49-6.33,6.33-6.16,11.8-6.16,11.8-.8,8.99,4.49,18.99,6.75,27.79,1.14,4.52,3.52,18.19,3.52,18.19h0c3.8-.11,5.13-3.19,4.45-6.94l-1.12-14.77c7.67-6.4,10.16-17.12,6.1-26.25-.95-1.31-3.23-7.41,1.27-10.04Z"/>
    <path class="cls-2" d="M468.72,368.8c-3.52-12.24-6.77-25.32-3.02-37.56h-2.11l-.84.61c-5.07-1.7-10.56,1.03-12.27,6.1-1,2.99-.49,6.28,1.38,8.82-4.26-.04-7.88,3.1-8.44,7.32,0,2.84.79,5.63,2.26,8.06,1.47,2.44,2.38,5.18,2.64,8.02.18,2.92-1.76,5.54-4.6,6.23,1.37,2.97,4.64,4.56,7.83,3.82-.99,2.41-2.63,4.48-4.75,5.99,4.52,3.08,10.7,2.11,15.59-.36,3.04-1.22,5.52-3.52,6.96-6.46,1.35-3.4.34-7.13-.63-10.59Z"/>
    <path class="cls-4" d="M467.58,383.09c-.42-.17-16.88-4.49-15.85,12.07,1.03,16.56,17.41,12.2,17.41,11.71s-1.56-23.78-1.56-23.78Z"/>
    <path class="cls-12" d="M465.17,400.86s-.27.21-.76.46c-.66.33-1.41.39-2.11.17-1.79-.55-3.42-3.23-3.67-6.23-.13-1.43.07-2.87.57-4.22.27-1.08,1.06-1.96,2.11-2.34.67-.21,1.41.08,1.75.7.25.44.15.78.25.82s.34-.32.17-.99c-.14-.39-.39-.74-.72-.99-.47-.33-1.06-.45-1.62-.34-1.37.36-2.45,1.4-2.87,2.74-.61,1.48-.86,3.09-.74,4.68.32,3.33,2.11,6.33,4.64,6.92.91.2,1.86-.02,2.6-.59.4-.4.46-.78.4-.8Z"/>
    <path class="cls-8" d="M450.38,369.35s-.46-.63-.32-1.94c.36-1.8,1.49-3.34,3.1-4.22,2.38-1.13,4.96-1.76,7.6-1.84,2.99,0,5.79-1.43,7.55-3.84,1.38-2.68,1.84-5.75,1.31-8.72-.4-2.79-1.14-5.3-1.5-7.47-.67-2.33-.63-4.8.11-7.11.01,2.33.28,4.65.78,6.92.46,2.11,1.29,4.58,1.79,7.51.64,3.25.15,6.61-1.39,9.54-.92,1.51-2.3,2.68-3.95,3.33-1.47.55-3.01.89-4.58,1.01-2.5.01-4.97.5-7.28,1.43-1.46.75-2.57,2.06-3.06,3.63-.09.58-.15,1.16-.17,1.75Z"/>
    <path class="cls-8" d="M446.37,362.16s-.36-.46-.51-1.5c-.17-1.46.12-2.93.82-4.22.48-.91,1.15-1.72,1.96-2.36.95-.71,2.03-1.21,3.19-1.48,1.12-.24,2.19-.68,3.14-1.31.86-.77,1.32-1.89,1.24-3.04,0-1.24-.15-2.57-.11-3.9.02-1.27.16-2.53.42-3.78.43-2.1,1.23-4.1,2.38-5.91.74-1.35,2.12-2.23,3.65-2.34,1.1,0,1.56.51,1.52.55s-.55-.19-1.48,0c-1.29.27-2.37,1.13-2.93,2.32-.95,1.77-1.62,3.68-1.98,5.66-.2,1.17-.31,2.36-.32,3.55,0,1.22.19,2.53.13,3.97.06,1.52-.58,2.99-1.75,3.97-1.09.73-2.32,1.22-3.61,1.46-1.94.33-3.65,1.49-4.68,3.17-.87,1.59-1.25,3.4-1.1,5.21Z"/>
    <path class="cls-8" d="M543.36,318.41c.11,0-1.24.91-3.42-.11-1.22-.66-2.29-1.58-3.14-2.68-1.05-1.37-2.35-2.53-3.84-3.4-3.96-2.23-8.86-1.9-12.49.82-2.11,1.48-3.86,3.57-6.33,5.3-1.26.93-2.69,1.59-4.22,1.92-1.58.28-3.21.12-4.71-.44-3-1.08-5.36-2.91-7.93-3.84-2.48-.95-5.13-1.43-7.79-1.41-4.58,0-9.04,1.52-12.66,4.33-2.42,1.89-4.43,4.25-5.91,6.94-1.03,1.92-1.41,3.1-1.52,3.06s0-.32.17-.89c.24-.82.54-1.63.89-2.41,1.36-2.87,3.34-5.41,5.8-7.43,3.7-3.03,8.32-4.72,13.1-4.79,2.82-.07,5.62.41,8.25,1.41,2.79,1.01,5.19,2.85,7.91,3.8,1.29.5,2.69.64,4.05.4,1.32-.3,2.56-.88,3.65-1.69,2.22-1.58,4.07-3.67,6.33-5.23,2.09-1.56,4.63-2.4,7.24-2.38,2.22.02,4.41.61,6.33,1.73,1.54.98,2.88,2.25,3.95,3.74.74,1.08,1.69,2,2.81,2.7,1.05.62,2.29.82,3.48.55Z"/>
    <path class="cls-2" d="M510.08,401.01c.53,0,1.12,3.42,4.58,5.42,3.46,2,7.15.99,7.28,1.48s-.74.84-2.32,1.14c-2.07.38-4.21.03-6.04-1.01-1.75-1.01-3.05-2.66-3.63-4.6-.38-1.46-.13-2.41.13-2.43Z"/>
    <path class="cls-1" d="M728.44,730.72c-6.42-5.52-14.76-8.29-23.21-7.72l-14.26,45.31c10.45.46,20.87,5.85,30.96,3.08,8.22-2.54,14.23-9.62,15.38-18.15.89-8.5-2.42-16.9-8.86-22.52Z"/>
    <path class="cls-10" d="M705.4,721.96c0-.36,1.54-.65,4.22-.63,3.99.07,7.93.82,11.67,2.22,5.71,2.22,10.65,6.06,14.22,11.04,2.18,2.95,3.79,6.29,4.75,9.83,1.03,3.88,1.15,7.95.34,11.88-.79,3.99-2.56,7.71-5.17,10.83-2.5,2.84-5.66,5.01-9.2,6.33-5.76,2.04-11.97,2.44-17.94,1.16-3.84-.75-7.59-1.92-11.18-3.48-2.51-1.08-3.84-1.88-3.71-2.24s1.65-.25,4.22.19c2.57.44,6.48,1.27,11.12,1.69,5.26.58,10.59-.14,15.51-2.11,2.7-1.14,5.08-2.9,6.96-5.15,1.97-2.45,3.32-5.35,3.92-8.44,1.17-6.19-.22-12.59-3.86-17.73-2.91-4.4-6.91-7.98-11.61-10.38-3.33-1.57-6.82-2.79-10.4-3.63-2.43-.55-3.9-.99-3.86-1.37Z"/>
    <path class="cls-1" d="M573.24,891.94l-31.02,86.92,107.94,39.14c3.12-10.55-45.22-51.49-45.22-51.49l22.16-54.86-53.85-19.71Z"/>
    <g class="cls-7">
      <path class="cls-3" d="M573.26,949.74c-2.39-.13-4.49,1.56-4.87,3.92-.21,2.38,1.47,4.51,3.84,4.85,2.55.14,4.78-1.69,5.15-4.22,0-2.3-2.28-4.94-4.56-4.62"/>
    </g>
    <path class="cls-3" d="M542.22,978.86l3.14-8.76,102.51,40.9s4.05,3.82,2.28,7.01l-107.94-39.14Z"/>
    <path class="cls-2" d="M606.89,966.6c-.21.53-2.93-.19-6.14.57-3.21.76-5.4,2.47-5.8,2.11s1.48-3.14,5.38-3.99c3.9-.84,6.84.87,6.56,1.31Z"/>
    <path class="cls-2" d="M616.6,975.4c0,.55-2.68.61-5.28,2.11-2.6,1.5-3.97,3.76-4.49,3.55s.23-3.31,3.5-5.23c3.27-1.92,6.27-.93,6.27-.42Z"/>
    <path class="cls-2" d="M618.01,991.26c-.51,0-.3-2.95,2.11-5.36s5.28-2.64,5.34-2.11-2,1.5-3.95,3.5c-1.94,2-2.95,4.11-3.5,3.97Z"/>
    <path class="cls-2" d="M610.54,953.53c-.4.4-2.55-1.2-5.59-2.11-3.04-.91-5.72-.78-5.82-1.33s2.79-1.62,6.33-.53c3.55,1.1,5.51,3.65,5.09,3.97Z"/>
    <path class="cls-2" d="M612.61,939.8c-1.94-.17-3.8-.86-5.38-1.98-1.83-1.05-3.52-2.32-5.02-3.8-.9-.86-1.74-1.79-2.51-2.76-.49-.56-.88-1.18-1.18-1.86-.44-1.03-.11-2.22.78-2.89.8-.55,1.82-.69,2.74-.38.68.25,1.33.59,1.92,1.01,1.05.7,2.04,1.5,2.95,2.38,1.52,1.48,2.81,3.19,3.8,5.06,1.08,1.64,1.64,3.58,1.58,5.55-.3,0-.93-2-2.76-4.85-1.09-1.64-2.38-3.13-3.84-4.45-.86-.78-1.79-1.48-2.76-2.11-1.03-.72-2-1.08-2.47-.68s-.23.23-.11.65c.22.5.51.96.87,1.37.69.94,1.45,1.82,2.26,2.66,1.37,1.44,2.87,2.75,4.49,3.9,2.79,2,4.77,2.89,4.64,3.17Z"/>
    <path class="cls-2" d="M611.66,940.35c-.46-1.91-.29-3.92.46-5.74.64-2.03,1.62-3.95,2.89-5.66.76-1,1.62-1.94,2.55-2.79,1.13-1.23,2.81-1.79,4.45-1.48.97.39,1.64,1.3,1.71,2.34.04.71-.02,1.42-.17,2.11-.67,3.46-2.71,6.5-5.66,8.44-3.12,2.11-5.55,1.86-5.53,1.67s2.11-.68,4.73-2.79c1.49-1.21,2.7-2.73,3.55-4.45.49-1,.84-2.07,1.03-3.17.25-1.2.15-2.3-.32-2.32-.96-.04-1.89.36-2.53,1.08-.87.74-1.68,1.56-2.41,2.45-1.24,1.51-2.25,3.2-3,5-1.31,3.19-1.46,5.3-1.77,5.3Z"/>
    <path class="cls-2" d="M468.68,659.82c-16.37.38-31.91,2.68-43.2,14.56-14.96,15.76-33.45,38.19-34.5,53.75-1.56,23.21,12.47,30.18,22.71,35.87,4.53,2.45,9.63,3.64,14.77,3.44l189.24-1.43,5.93-32.05-122.39-30.18,5.09-46.07-37.65,2.11Z"/>
    <path class="cls-2" d="M506.43,657.69l59.53-2.74s102.85,5.72,124.77,25.83c21.92,20.11,19.2,42.96,11.88,64.89s-71.75,162.23-71.75,162.23c0,0,5.23,8.93,2.3,17.83-2.41,7.93-8.83,14.01-16.88,16l-57.23-21.1s-7.77-2.74-2.28-10.07,9.14-8.67,9.14-8.67v-14.62s20.11-36.57,21.92-41.59c1.81-5.02,21.1-79.43,21.1-79.43l12.81-22.01s-30.96-14.56-57.8-25.11l-62.67-15.45,5.15-45.98Z"/>
    <path class="cls-8" d="M602.99,918.04c-1.73-1.01-3.41-2.11-5.02-3.29-8.09-5.24-17.19-8.7-26.71-10.15-2-.19-3.98-.49-5.95-.89,2.01-.23,4.04-.2,6.04.11,9.76,1.04,19.09,4.59,27.07,10.3,1.69,1.1,3.23,2.42,4.58,3.92Z"/>
    <path class="cls-8" d="M631.58,908c-1.25-1.02-2.36-2.2-3.31-3.5-1.94-2.26-4.52-5.47-7.2-9.14-2.68-3.67-5-7.07-6.58-9.58-.94-1.31-1.74-2.73-2.36-4.22,1.13,1.15,2.14,2.41,3,3.78l6.84,9.37c2.55,3.46,4.9,6.58,6.92,9.31,1.04,1.23,1.95,2.56,2.7,3.99Z"/>
    <path class="cls-8" d="M652.47,724.22c0,.17-2.11.63-5.42,1.73-8.68,2.86-16.54,7.77-22.92,14.31-1.25,1.44-2.56,2.81-3.95,4.11.89-1.7,2.03-3.27,3.38-4.64,3.07-3.47,6.62-6.47,10.55-8.93,3.93-2.47,8.19-4.35,12.66-5.59,1.84-.62,3.76-.95,5.7-.99Z"/>
    <path class="cls-8" d="M594.02,823.57c.02-.42.1-.84.23-1.24l.89-3.48,3.42-12.77,11.71-42.01c2.38-8.21,4.41-16.02,6.71-23.11,2.43-6.16,6.1-11.76,10.78-16.44,3.09-3.17,6.52-6,10.21-8.44,1.33-.84,2.36-1.48,3.1-1.86.35-.22.73-.42,1.12-.57,0,0-1.43.97-3.97,2.76-3.57,2.55-6.9,5.44-9.92,8.63-4.52,4.66-8.05,10.19-10.38,16.25-2.11,6.98-4.22,14.9-6.6,23.06l-12.01,41.91c-1.56,5.25-2.85,9.54-3.78,12.66-.44,1.39-.78,2.53-1.08,3.42-.09.43-.24.84-.44,1.22Z"/>
    <path class="cls-8" d="M541.37,716.39c-.32,0-1.56-11.1-2.81-24.86s-2.11-24.94-1.69-24.96,1.54,11.1,2.79,24.86c1.25,13.76,2,24.94,1.71,24.96Z"/>
    <path class="cls-8" d="M442.28,746.21c-.17,0-1.08-1.71-2.95-4.35-2.42-3.43-5.33-6.49-8.63-9.09-3.33-2.57-7-4.65-10.91-6.18-3.02-1.18-4.98-1.62-4.94-1.81,1.78.08,3.53.45,5.19,1.08,8.25,2.72,15.3,8.23,19.94,15.57,1.02,1.46,1.8,3.08,2.3,4.79Z"/>
    <path class="cls-8" d="M478.74,705.69c0,.17-2.62-1.43-6.98-3.44-11.46-5.21-24.17-7.02-36.63-5.23-4.75.68-7.64,1.52-7.68,1.33.61-.35,1.27-.6,1.96-.76,1.83-.57,3.7-1.02,5.59-1.35,12.6-2.21,25.58-.35,37.05,5.32,1.72.85,3.38,1.81,4.98,2.87.63.34,1.2.77,1.71,1.27Z"/>
    <path class="cls-8" d="M621.31,733.89c-.51-.03-1.01-.11-1.5-.25l-4.22-.91-15.4-3.4c-13.02-2.91-31.04-6.84-51.02-10.78s-38.13-7.22-51.28-9.47l-15.59-2.68-4.22-.74c-.5-.06-.99-.18-1.46-.36.5.01,1,.06,1.5.13l4.22.55c3.69.51,9.03,1.31,15.64,2.34,13.19,2.11,31.38,5.19,51.38,9.16,20,3.97,37.98,8,50.98,11.1,6.48,1.56,11.73,2.87,15.34,3.82l4.22,1.1c.48.09.96.22,1.41.4Z"/>
    <path class="cls-8" d="M501.34,709.18c-.21,0-.65-2.49-2.62-6.04-1.15-2.05-2.57-3.93-4.22-5.59-2.08-2.05-4.3-3.97-6.63-5.74-4.29-3.17-8.83-5.99-13.57-8.44-2.01-.95-3.94-2.05-5.78-3.29,2.12.67,4.18,1.54,6.14,2.6,4.9,2.27,9.55,5.04,13.88,8.25,2.36,1.8,4.59,3.77,6.67,5.89,1.69,1.75,3.12,3.75,4.22,5.93.76,1.47,1.33,3.03,1.71,4.64.17.58.24,1.19.19,1.79Z"/>
    <path class="cls-2" d="M712.13,737.77c.23.25-2.93,3.44-5.4,8.31-2.47,4.87-3.27,9.26-3.59,9.2,0-3.41.9-6.76,2.62-9.71,1.4-3.12,3.6-5.81,6.37-7.81Z"/>
    <g class="cls-6">
      <path d="M576.68,521.56l13.55,95.42.68,1.52c3.18-32.99-1.7-66.26-14.22-96.94Z"/>
    </g>
    <path class="cls-5" d="M649.63,576.38l-44.04,76.98-108.53,2.36-.27,4.92,105.09-.78,3.33-.13,110.95.23,22.43-38.68,28.66-41.06c1.26-1.85.78-4.37-1.07-5.63-.67-.46-1.47-.7-2.28-.7l-110.76.42c-1.45.01-2.79.8-3.5,2.07Z"/>
    <path class="cls-4" d="M738.59,621.35s5.7,5.23,4.81,9.66-.61,7.74-4.81,8.04c.16,3.37-2.34,6.27-5.7,6.6,0,0,1.29,6.96-6.82,8.17,0,0-2.49,7.45-7.6,5.63-2.94-1-5.77-2.31-8.44-3.9l-1.5-2.7s-7.53-2.83-5.68-7.07c1.14-2.57,5.02-3.25,5.02-3.25-.91-2.14-.73-4.6.49-6.58,1.79-2.43,7.66-.42,7.66-.42-.12-2.08.54-4.13,1.86-5.74,2.11-2.38,11.35,4.05,11.35,4.05l5.09-6.08,4.26-6.41Z"/>
    <path class="cls-12" d="M726.08,653.83c-3.29-1.4-6.43-3.13-9.37-5.17-3.13-1.73-6.07-3.78-8.78-6.12,3.29,1.41,6.43,3.15,9.37,5.19,3.12,1.73,6.06,3.78,8.78,6.1Z"/>
    <path class="cls-12" d="M732.89,645.66c-3.06-1.2-5.98-2.75-8.69-4.6-2.9-1.54-5.63-3.39-8.12-5.53,3.07,1.19,5.98,2.74,8.69,4.6,2.9,1.54,5.63,3.39,8.12,5.53Z"/>
    <path class="cls-12" d="M723.61,630.38c.17-.32,3.65,1.52,7.7,4.09,2.51,1.45,4.93,3.06,7.24,4.81-.15.36-3.78-1.29-7.83-3.88-2.54-1.42-4.92-3.1-7.11-5.02Z"/>
    <path class="cls-2" d="M767.25,576.85c-.17.03-.35.03-.53,0h-7.55l-22.03.17-72.7.17h-5.3c-1.59-.15-3.14.58-4.03,1.9-1.69,3.01-3.33,5.98-4.94,8.9l-9.37,16.88-15.89,28.55c-4.52,8.06-8.21,14.6-10.8,19.22-1.24,2.11-2.26,3.92-2.98,5.19l-.8,1.33-.3.44s0-.19.19-.51l.72-1.39,2.81-5.28,10.55-19.39,15.7-28.68c2.95-5.38,6.08-11.04,9.28-16.88l4.96-8.97c1.1-1.63,2.99-2.55,4.96-2.41h5.3l72.7.15,22.03.19,5.99.11h1.56c.17.07.33.17.46.3Z"/>
    <path class="cls-3" d="M689.17,615.57c-1.47,2.13-.94,5.05,1.19,6.52,2.13,1.47,5.05.94,6.52-1.19,1.34-1.94,1.03-4.57-.72-6.15-2.16-1.69-5.28-1.32-6.98.82Z"/>
    <g class="cls-6">
      <path d="M381.08,585.84c-.93.38-2,1.01-2,2.11.07.84.71,1.52,1.54,1.65,1.55-.22,3.06-.62,4.52-1.2,11.42-2.51,20.81-.11,31.65,4.22l.36-.36c-4.3-9.35-23.78-11.42-36.06-6.41Z"/>
    </g>
  </g>
  <g id="freepik--Floor--inject-103">
    <path class="cls-2" d="M969,1014.2c0,.3-190.87.55-426.26.55s-426.26-.34-426.26-.55,190.82-.55,426.26-.55,426.26.15,426.26.55Z"/>
  </g>
  <g id="freepik--Ribbon--inject-103">
    <path class="cls-8" d="M322.06,341.5c.36.36,70.44-23.72,70.44-23.72l-27.01-61.83-62.31,23.91,34.31,19.71-15.43,41.93Z"/>
    <path class="cls-8" d="M354.94,274.56v-84.17s96.67-17.68,166.32-16.63c69.66,1.06,141.38,12.47,141.38,12.47v80.82s-218.32-19.5-307.71,7.51Z"/>
    <path class="cls-2" d="M354.43,274.65l37.98,43.49v-51.09s-31.76,3.8-37.98,7.6Z"/>
    <path class="cls-2" d="M354.94,190.37c.32,0,.44,18.99.32,42.2-.13,23.21-.51,42.2-.8,42.2s-.44-18.86-.32-42.2c.13-23.34.49-42.2.8-42.2Z"/>
    <path class="cls-8" d="M695.35,335.04c-.36.36-70.44-23.72-70.44-23.72l26.95-61.85,62.38,23.87-34.33,19.71,15.45,41.99Z"/>
    <path class="cls-2" d="M663.02,268.19l-37.98,43.49v-47.39c12.74.44,25.43,1.74,37.98,3.9Z"/>
    <path class="cls-2" d="M662.6,186.23c.3,0,.63,18.34.74,40.98s0,40.98-.36,40.98-.63-18.34-.74-40.98c-.11-22.64.04-40.98.36-40.98Z"/>
    <path class="cls-3" d="M409.44,227.3c-.56-6.81,4.5-12.78,11.31-13.34,3.21-.26,6.4.74,8.88,2.79l-2.95,3.55c-1.61-1.47-3.79-2.14-5.95-1.84-3.94.55-6.69,4.19-6.14,8.12.55,3.94,4.19,6.69,8.12,6.14,2.17-.29,4.1-1.54,5.23-3.42l3.71,2.6c-3.86,5.62-11.55,7.04-17.17,3.18-2.66-1.83-4.49-4.62-5.12-7.78h.06Z"/>
    <path class="cls-3" d="M432.47,224.13c-1.08-6.72,3.49-13.04,10.2-14.13,6.72-1.08,13.04,3.49,14.13,10.2,1.08,6.72-3.49,13.04-10.2,14.13-.23.04-.47.07-.71.09-6.35,1.01-12.32-3.31-13.34-9.67-.03-.21-.06-.42-.08-.63ZM451.69,222.15c-.48-3.85-4-6.58-7.85-6.1-3.85.48-6.58,4-6.1,7.85.47,3.76,3.84,6.47,7.61,6.12,3.78-.25,6.64-3.51,6.39-7.29-.01-.19-.03-.39-.06-.58Z"/>
    <path class="cls-3" d="M482.2,231.16l-.91-13.46-5.89,11.52-2.32.15-7.28-10.38.87,13.17-4.87.32-1.35-22.43,4.22-.27,9.28,13.4,7.36-14.45,4.22-.27,1.52,22.41-4.85.32Z"/>
    <path class="cls-3" d="M511.26,215.8c.13,5.02-3.55,8.23-9.54,8.44l-4.54.13.19,6.2-5.21.15-.63-22.6,9.73-.27c6.01-.08,9.83,2.93,10,7.96ZM505.99,215.94c0-2.47-1.71-3.86-4.9-3.78l-4.22.13.23,7.81,4.22-.13c3.17-.08,4.73-1.58,4.66-4.03Z"/>
    <path class="cls-3" d="M515.31,207.63h5.19v18.23h11.27v4.22h-16.46v-22.45Z"/>
    <path class="cls-3" d="M551.92,226.52v4.22l-17.41-.51.65-22.47,16.88.51-.13,4.22-11.82-.36-.13,4.9,10.42.3-.13,4.05-10.42-.32-.15,5.21,12.22.25Z"/>
    <path class="cls-3" d="M561.55,212.97l-7.17-.42.25-4.22,19.54,1.18-.25,4.22-7.17-.44-1.1,18.21-5.19-.32,1.1-18.21Z"/>
    <path class="cls-3" d="M593.09,229.6l-.38,4.22-17.35-1.6,2.11-22.37,16.88,1.56-.38,4.22-11.77-1.18-.44,4.87,10.38.95-.36,4.03-10.4-.95-.46,5.17,12.18,1.08Z"/>
    <path class="cls-3" d="M599.59,211.89l10.11,1.35c7.28.97,11.69,6.01,10.8,12.66s-6.5,10.55-13.78,9.5l-10.11-1.35,2.98-22.16ZM607.04,231.24c3.8.61,7.37-1.97,7.98-5.77.61-3.8-1.97-7.37-5.77-7.98-.12-.02-.25-.04-.37-.05l-4.71-.63-1.84,13.8,4.71.63Z"/>
  </g>
  <g id="freepik--Confetti--inject-103">
    <polygon class="cls-8" points="705.84 193.89 711.37 200.37 726.94 193.89 722.38 187.08 705.84 193.89"/>
    <path class="cls-1" d="M698.71,163.06c0,4.48-3.63,8.1-8.1,8.1s-8.1-3.63-8.1-8.1,3.63-8.1,8.1-8.1h0c4.47.01,8.09,3.63,8.1,8.1Z"/>
    <path class="cls-1" d="M517.19,283.93c-.01,2.24-1.84,4.04-4.07,4.03-2.24-.01-4.04-1.84-4.03-4.07.01-2.24,1.84-4.04,4.07-4.03.01,0,.03,0,.04,0,2.22.03,4,1.85,3.99,4.07Z"/>
    <path class="cls-1" d="M328.44,223.03c0,1.7-1.38,3.08-3.08,3.08s-3.08-1.38-3.08-3.08c0-1.7,1.38-3.08,3.08-3.08.01,0,.03,0,.04,0,1.68.02,3.04,1.4,3.04,3.08Z"/>
    <polygon class="cls-8" points="317 189.12 326.07 189.67 330.38 171.82 321.89 172.18 317 189.12"/>
    <polygon class="cls-1" points="600.61 331.62 603.67 340.19 621.77 337.15 618.12 329.49 600.61 331.62"/>
    <polygon class="cls-8" points="417.48 282.18 411.89 289.36 424.15 303.01 428.67 295.81 417.48 282.18"/>
  </g>
  <g id="freepik--Stars--inject-103">
    <polygon class="cls-1" points="395.81 113.64 417.23 135.48 447.39 124.09 448.59 131.58 435.53 158.31 447.58 178.28 446.56 184.25 417.38 179.33 400.12 198.26 396.07 195.2 392.5 171.12 365.28 156.94 364.08 151.44 391.49 143.94 395.81 113.64"/>
    <g class="cls-6">
      <polygon points="395.81 113.64 417.23 135.48 447.39 124.09 448.59 131.58 435.53 158.31 447.58 178.28 446.56 184.25 417.38 179.33 400.12 198.26 396.07 195.2 392.5 171.12 365.28 156.94 364.08 151.44 391.49 143.94 395.81 113.64"/>
    </g>
    <polygon class="cls-1" points="395.81 107.5 417.23 129.36 447.39 124.09 433.23 151.22 447.58 178.28 417.38 173.21 396.07 195.2 391.57 164.92 364.08 151.44 391.49 137.8 395.81 107.5"/>
    <polygon class="cls-1" points="617.91 113.64 596.47 135.48 566.32 124.09 565.11 131.58 578.17 158.31 566.13 178.28 567.14 184.25 596.32 179.33 613.58 198.26 617.63 195.2 621.2 171.12 648.42 156.94 649.63 151.44 622.21 143.94 617.91 113.64"/>
    <g class="cls-6">
      <polygon points="617.91 113.64 596.47 135.48 566.32 124.09 565.11 131.58 578.17 158.31 566.13 178.28 567.14 184.25 596.32 179.33 613.58 198.26 617.63 195.2 621.2 171.12 648.42 156.94 649.63 151.44 622.21 143.94 617.91 113.64"/>
    </g>
    <polygon class="cls-1" points="617.91 107.5 596.47 129.36 566.32 124.09 580.47 151.22 566.13 178.28 596.32 173.21 617.63 195.2 622.13 164.92 649.63 151.44 622.21 137.8 617.91 107.5"/>
    <polygon class="cls-1" points="506.15 75.3 523.99 110.14 565.11 107.71 563.72 117.29 537.6 144.96 544.66 173.89 541.18 180.79 507.44 163.67 479.19 180.22 475.41 174.92 480.22 144.18 452.41 116.51 453.04 109.36 489.34 110.65 506.15 75.3"/>
    <g class="cls-6">
      <polygon points="506.15 75.3 523.99 110.14 565.11 107.71 563.72 117.29 537.6 144.96 544.66 173.89 541.18 180.79 507.44 163.67 479.19 180.22 475.41 174.92 480.22 144.18 452.41 116.51 453.04 109.36 489.34 110.65 506.15 75.3"/>
    </g>
    <polygon class="cls-1" points="508.48 67.83 526.31 102.65 565.11 107.71 537.49 135.44 544.66 173.89 509.78 156.2 475.41 174.92 481.47 136.26 453.04 109.36 491.68 103.15 508.48 67.83"/>
  </g>
  <g id="freepik--speech-bubble--inject-103">
    <path class="cls-11" d="M579.53,380.37l29.8,3.29c22.26-31.51,65.84-39.01,97.35-16.75,31.51,22.26,39.01,65.84,16.75,97.35-22.26,31.51-65.84,39.01-97.35,16.75-23.74-16.77-34.61-46.49-27.3-74.62h0l-19.24-26.02Z"/>
    <path class="cls-2" d="M579.53,380.37c1.16,1.56,7.2,9.54,19.52,25.89h-.44c.06-.13.2-.19.33-.13.02,0,.03.02.05.03.1.06.15.18.13.3-3.02,11.84-2.86,24.26.46,36.02.98,3.53,2.27,6.96,3.86,10.26.84,1.69,1.65,3.42,2.55,5.13l3.14,5c10.04,14.55,25.23,24.76,42.5,28.55,9.56,2.1,19.46,2.14,29.04.13,10.1-2.2,19.59-6.59,27.79-12.87,8.59-6.53,15.5-15.01,20.15-24.75,4.81-9.9,7.19-20.81,6.92-31.82-.31-10.53-2.98-20.86-7.81-30.22-4.54-8.87-10.98-16.64-18.86-22.75-14.19-10.97-32.06-16.08-49.91-14.26-7.54.91-14.9,2.94-21.84,6.04-11.04,5.1-20.54,13-27.58,22.92-.04.08-.14.13-.23.11l-29.77-3.55,29.84,3.02-.25.13c7.01-10.05,16.57-18.06,27.69-23.21,6.97-3.21,14.39-5.33,22.01-6.29,18.09-1.92,36.23,3.21,50.64,14.31,8.02,6.18,14.57,14.06,19.18,23.06,4.93,9.5,7.65,19.99,7.96,30.68.28,11.18-2.12,22.27-7.01,32.33-4.73,9.89-11.76,18.51-20.49,25.13-8.34,6.37-17.98,10.82-28.23,13.04-9.75,2.05-19.82,1.99-29.54-.19-17.45-3.85-32.79-14.19-42.9-28.93l-3.17-5.06c-.91-1.73-1.71-3.5-2.57-5.21-1.59-3.34-2.87-6.81-3.84-10.38-3.31-11.88-3.4-24.43-.25-36.36l.51.19h0c-.08.13-.24.17-.38.11h0l-19.18-26.36Z"/>
    <path class="cls-2" d="M640.66,398.96c.02.32.02.65,0,.97v2.7c0,2.45,0,5.85.13,10.15,0,8.76.15,21.1.25,35.87l-.49-.49h49.65c.13-.13-1.03,1.03-.55.53h0v-49.65l.46.49-35.87-.25-10.15-.11h-3.67,3.48l10.02-.13,36.15-.23h.49v49.86h0c.51-.49-.65.7-.55.57h-50.14v-.57c0-14.9.17-27.33.23-36.15,0-4.22,0-7.64.13-10.04v-2.62c.1-.32.24-.63.42-.91Z"/>
    <path class="cls-1" d="M684.95,407.17c.72.57-5.95,10.19-14.92,21.5-1.77,2.26-3.52,4.41-5.15,6.33l-1.06,1.29-1.18-1.08c-7.77-6.98-13.02-12.34-12.56-12.89s6.56,3.88,14.6,10.55l-2.26.21c1.54-2.11,3.23-4.22,5.02-6.46,8.95-11.31,16.8-20,17.49-19.46Z"/>
  </g>
</svg>