<svg xmlns="http://www.w3.org/2000/svg" width="56.546" height="54.491" viewBox="0 0 56.546 54.491">
  <defs>
    <style>
      .cls-1, .cls-2 {
        fill: #fff;
      }

      .cls-2 {
        font-size: 20px;
        font-family: ArialMT, Arial;
      }
    </style>
  </defs>
  <g id="Group_3009" data-name="Group 3009" transform="translate(-2421.039 -1852.886)">
    <g id="Group_3008" data-name="Group 3008">
      <g id="save-money" transform="translate(2445.039 1851.886)">
        <g id="Group_3010" data-name="Group 3010" transform="translate(-24 1)">
          <path id="Path_495" data-name="Path 495" class="cls-1" d="M104.195,121.758a15.266,15.266,0,1,0,15.266-15.266A15.266,15.266,0,0,0,104.195,121.758ZM119.461,108.6A13.161,13.161,0,1,1,106.3,121.758,13.16,13.16,0,0,1,119.461,108.6Zm0,0" transform="translate(-90.531 -106.492)"/>
          <path id="Path_496" data-name="Path 496" class="cls-1" d="M49.747,330.551l-8.247,3.9a6.717,6.717,0,0,0-5.727-3.534L28.16,330.7a8.039,8.039,0,0,1-3.46-.893l-.775-.4a13.664,13.664,0,0,0-12.656.013l.048-1.755a1.053,1.053,0,0,0-1.023-1.082l-8.348-.23A1.052,1.052,0,0,0,.864,327.38L.36,345.7a1.053,1.053,0,0,0,1.023,1.082l8.348.23h.029a1.053,1.053,0,0,0,1.053-1.024l.024-.876,2.169-1.161a3.721,3.721,0,0,1,2.776-.3l12.951,3.635c.023.007.045.012.068.017a13.863,13.863,0,0,0,2.846.294,14.045,14.045,0,0,0,5.868-1.28.981.981,0,0,0,.131-.072l18.778-12.146a1.053,1.053,0,0,0,.345-1.4,5.318,5.318,0,0,0-7.023-2.139ZM2.494,344.705,2.94,328.49l6.243.172-.446,16.216Zm34.074-.275a11.937,11.937,0,0,1-7.3.815l-12.916-3.626a5.821,5.821,0,0,0-4.34.474l-1.108.594.3-10.781a11.573,11.573,0,0,1,11.756-.627l.775.4a10.17,10.17,0,0,0,4.37,1.129l7.614.209A4.618,4.618,0,0,1,40.1,336.7l-11.34-.313a1.053,1.053,0,0,0-.058,2.105l12.515.344h.029a1.053,1.053,0,0,0,1.052-1.024,6.68,6.68,0,0,0-.1-1.366l8.459-4,.025-.012a3.217,3.217,0,0,1,3.637.509Zm0,0" transform="translate(-0.36 -293.1)"/>
          <text id="_" data-name="₹" class="cls-2" transform="translate(22.834 5.087)"><tspan x="0" y="18">₹</tspan></text>
        </g>
      </g>
    </g>
  </g>
</svg>
