<?xml version="1.0" encoding="UTF-8"?>
<svg id="Layer_1" xmlns="http://www.w3.org/2000/svg" viewBox="0 0 1080 1080">
  <defs>
    <style>
      .cls-1 {
        fill: #042b62;
      }
    </style>
  </defs>
  <path class="cls-1" d="M380.74,569.85c-19.04-18.78-21.43-35.03-1.37-54.84,68.73-67.83,136.77-136.33,204.98-204.66,10.16-10.19,20.9-18.02,36.06-11.37,10.27,4.46,15.55,12.76,16.31,23.92.29,14.31-10.06,22.22-18.78,30.99-54.57,54.68-108.1,110.43-164.35,163.32-21.69,20.41-18.65,31.09,1.13,49.92,55.91,53.26,109.57,108.86,164.32,163.35,14.73,14.65,28.05,30.52,8.4,48.98-17.91,16.86-32.91,3.99-46.59-9.74-66.55-66.78-133.02-133.65-200.12-199.88Z"/>
  <path class="cls-1" d="M817.82,186.05C594.45,23.89,250.14,100.45,147.26,366.07c-68.92,168.08-28.33,379.72,106.42,501.31,192.46,176.86,529.72,138.52,668.09-86.64,121.05-188,80.96-462.18-103.54-594.39l-.41-.3ZM552.14,157c309.42-.3,487.18,346.81,314.09,600.42-67.52,99.57-184.83,161.26-304.81,163.55-164.68,6.17-322.77-102.76-372.26-260.29-82.06-247.61,100.46-504.6,362.46-503.68h.53Z"/>
  <path class="cls-1" d="M627.44,779.47c-17.91,16.86-32.91,3.99-46.59-9.74-66.55-66.78-133.02-133.65-200.12-199.88-19.04-18.78-21.43-35.03-1.37-54.84,68.73-67.83,136.77-136.33,204.98-204.66,10.16-10.19,20.9-18.02,36.06-11.37,10.27,4.46,15.55,12.76,16.31,23.92.29,14.31-10.06,22.22-18.78,30.99-54.57,54.68-108.1,110.43-164.35,163.32-21.69,20.41-18.65,31.09,1.13,49.92,55.91,53.26,109.57,108.86,164.32,163.35,14.73,14.65,28.05,30.52,8.4,48.98Z"/>
  <path class="cls-1" d="M627.44,779.47c-17.91,16.86-32.91,3.99-46.59-9.74-66.55-66.78-133.02-133.65-200.12-199.88-19.04-18.78-21.43-35.03-1.37-54.84,68.73-67.83,136.77-136.33,204.98-204.66,10.16-10.19,20.9-18.02,36.06-11.37,10.27,4.46,15.55,12.76,16.31,23.92.29,14.31-10.06,22.22-18.78,30.99-54.57,54.68-108.1,110.43-164.35,163.32-21.69,20.41-18.65,31.09,1.13,49.92,55.91,53.26,109.57,108.86,164.32,163.35,14.73,14.65,28.05,30.52,8.4,48.98Z"/>
</svg>