<?xml version="1.0" encoding="UTF-8"?>
<svg width="41" height="42" id="Layer_1" xmlns="http://www.w3.org/2000/svg" xmlns:xlink="http://www.w3.org/1999/xlink" viewBox="0 0 1080 1080">
  <defs>
    <style>
      .cls-1 {
        fill: #042b62;
      }

      .cls-2 {
        fill: none;
      }

      .cls-3 {
        clip-path: url(#clippath);
      }
    </style>
    <clipPath id="clippath">
      <rect class="cls-2" x="103.82" y="67.62" width="927.18" height="953.13"/>
    </clipPath>
  </defs>
  <g class="cls-3">
    <g>
      <path class="cls-1" d="M297.44,840.29c-5.39,5.9-8.37,13.6-8.38,21.59v127.09c-.11,8.31,3.08,16.33,8.88,22.29,5.8,5.96,13.73,9.37,22.04,9.49h169.98c8.31-.12,16.24-3.53,22.04-9.49,5.8-5.96,8.99-13.98,8.88-22.29v-127.09c.1-8.31-3.09-16.32-8.89-22.27-5.8-5.96-13.72-9.36-22.03-9.48v-29.56c.54-37.51-11.37-74.14-33.88-104.15-13-17.66-30.92-31.1-51.52-38.63-32.69-14.14-62.64-33.9-88.51-58.37-11.63-9.93-26.21-15.75-41.47-16.56-15.27-.82-30.38,3.42-43,12.05l-33.35-80.17c-3.39-8.06-8.86-15.07-15.85-20.33-6.99-5.25-15.25-8.56-23.93-9.58-8.66-.93-17.41.48-25.33,4.08-7.93,3.6-14.75,9.25-19.75,16.38-5.11,7.24-8.28,15.67-9.2,24.48-.92,8.81.43,17.72,3.93,25.86l60.57,136.95c8.12,18.46,19.49,35.33,33.56,49.78l95.24,97.93ZM489.96,988.97h-169.98v-127.09h169.98v127.09ZM136.17,542.5c-1.27-2.88-1.82-6.03-1.6-9.17.22-3.14,1.21-6.18,2.87-8.86,1.75-2.89,4.28-5.23,7.3-6.77,3.02-1.53,6.4-2.19,9.77-1.9,3.37.29,6.59,1.51,9.3,3.54,2.71,2.02,4.8,4.76,6.04,7.91l34.51,82.86c9.12,22.02,22.35,42.11,38.98,59.18l70.73,72.58c1.88,2.02,4.27,3.49,6.92,4.25,2.65.76,5.46.79,8.12.08,2.68-.74,5.12-2.18,7.06-4.17,1.94-1.99,3.31-4.47,3.98-7.17.69-2.72.67-5.57-.07-8.27-.74-2.71-2.17-5.18-4.15-7.16l-70.73-72.58c-7.12-7.3-13.51-15.29-19.07-23.84,7.15-5.69,16.05-8.72,25.18-8.56,9.13.16,17.93,3.49,24.88,9.42,28.74,27.16,62.15,48.9,98.62,64.18,14.93,5.59,27.9,15.44,37.29,28.33,18.04,24.32,27.54,53.92,27.01,84.2v29.56h-127.83l-107.23-110.22c-11.43-11.75-20.68-25.45-27.29-40.46l-60.59-136.95Z"/>
      <path class="cls-1" d="M443.64,909.56h-15.46c-4.11.16-8,1.9-10.85,4.86-2.85,2.96-4.45,6.92-4.45,11.03s1.59,8.06,4.45,11.03c2.85,2.96,6.74,4.71,10.85,4.86h15.46c4.11-.16,8-1.9,10.85-4.86,2.85-2.96,4.44-6.92,4.44-11.03s-1.59-8.07-4.44-11.03c-2.85-2.96-6.74-4.7-10.85-4.86Z"/>
      <path class="cls-1" d="M981.69,484.04c-9.74.06-19.25,3.01-27.31,8.48-8.06,5.47-14.32,13.21-17.98,22.24l-33.4,80.08c-12.67-8.59-27.81-12.78-43.09-11.92-15.28.86-29.86,6.72-41.48,16.69-25.87,24.48-55.82,44.23-88.51,58.37-20.55,7.51-38.43,20.91-51.43,38.51-22.51,30.01-34.43,66.64-33.88,104.15v29.56c-8.3.12-16.22,3.52-22.02,9.46-5.8,5.94-9,13.94-8.91,22.25v127.09c-.09,8.3,3.11,16.3,8.91,22.24,5.8,5.94,13.71,9.35,22.02,9.46h170.04c8.31-.12,16.24-3.53,22.04-9.49,5.8-5.96,8.99-13.98,8.88-22.29v-127.02c0-7.99-2.99-15.69-8.38-21.59l95.26-97.93c14.07-14.46,25.43-31.32,33.56-49.78l60.57-136.95c3.42-7.73,4.9-16.18,4.3-24.61-.59-8.43-3.24-16.59-7.7-23.76-4.38-7.05-10.48-12.88-17.72-16.93-7.25-4.05-15.41-6.19-23.71-6.21l-.07-.09ZM814.63,988.99h-170.02v-127.09h170.04l-.02,127.09ZM998.44,542.51l-60.57,136.95c-6.62,14.97-15.86,28.64-27.29,40.36l-107.25,110.22h-127.81v-29.46c-.5-30.29,9.02-59.89,27.1-84.2,9.32-12.85,22.19-22.7,37.03-28.33,36.48-15.28,69.9-37.02,98.64-64.18,6.94-5.98,15.74-9.35,24.9-9.53,9.16-.18,18.09,2.84,25.26,8.53-5.57,8.61-11.98,16.64-19.14,23.98l-70.48,72.61c-2.82,3.03-4.37,7.03-4.34,11.17.03,4.14,1.65,8.11,4.52,11.1,1.4,1.45,3.07,2.61,4.93,3.41,1.85.8,3.85,1.22,5.86,1.23,2.02.02,4.02-.37,5.89-1.13,1.87-.77,3.56-1.9,4.99-3.33l70.61-72.58c16.63-17.08,29.86-37.16,38.98-59.18l34.58-82.88c1.24-3.15,3.33-5.89,6.04-7.91,2.71-2.02,5.93-3.24,9.3-3.53,3.37-.29,6.75.37,9.77,1.9,3.02,1.53,5.54,3.87,7.3,6.77,1.66,2.67,2.65,5.71,2.87,8.86.22,3.14-.33,6.29-1.6,9.17h-.09Z"/>
      <path class="cls-1" d="M706.41,909.56h-15.46c-4.11.16-8,1.9-10.85,4.86-2.85,2.96-4.45,6.92-4.45,11.03s1.59,8.06,4.45,11.03c2.85,2.96,6.74,4.71,10.85,4.86h15.46c4.11-.16,8-1.9,10.85-4.86,2.85-2.96,4.44-6.92,4.44-11.03s-1.59-8.07-4.44-11.03c-2.85-2.96-6.74-4.7-10.85-4.86Z"/>
      <path class="cls-1" d="M738.49,67.62c-33.69-.09-66.9,8.03-96.74,23.67-29.85,15.64-55.43,38.31-74.53,66.06-19.09-27.73-44.65-50.39-74.46-66.02-29.82-15.63-62.99-23.77-96.65-23.71-123.25,0-199.81,80.27-199.81,209.51-.33,31.45,4.91,62.7,15.46,92.32h-77.28c-4.11.16-8,1.9-10.85,4.86-2.85,2.96-4.44,6.92-4.44,11.03,0,4.11,1.59,8.07,4.44,11.03,2.85,2.96,6.74,4.71,10.85,4.86h91.45c22.19,37.36,50.62,70.64,84.06,98.39,7.92,7.24,15.6,14.3,22.77,21.34,52.56,51.47,217.79,188.65,224.83,194.42,2.72,2.28,6.16,3.52,9.71,3.52s6.99-1.25,9.71-3.52c6.94-5.81,172.29-142.97,224.83-194.42,7.2-6.94,14.86-14.1,22.77-21.34,33.44-27.75,61.88-61.02,84.06-98.39h91.45c4.11-.16,8-1.9,10.85-4.86,2.85-2.96,4.45-6.92,4.45-11.03s-1.59-8.06-4.45-11.03c-2.85-2.96-6.74-4.71-10.85-4.86h-77.21c10.54-29.62,15.77-60.88,15.44-92.32,0-129.24-76.61-209.51-199.86-209.51ZM227.22,277.13c0-111.3,63.14-177.73,168.96-177.73,32.35.09,64.06,8.94,91.78,25.62,27.71,16.68,50.39,40.57,65.6,69.11,1.4,2.39,3.4,4.36,5.8,5.74,2.4,1.37,5.12,2.1,7.89,2.1s5.49-.72,7.89-2.1c2.4-1.37,4.4-3.35,5.8-5.74,15.22-28.54,37.89-52.43,65.6-69.11,27.71-16.68,59.43-25.54,91.78-25.62,105.77,0,168.96,66.43,168.96,177.73.47,31.69-5.66,63.13-18.01,92.32h-90.26c-3.1.02-6.12.97-8.67,2.73-2.55,1.76-4.52,4.24-5.64,7.13l-17.22-61.96c-.88-3.25-2.8-6.13-5.47-8.2-2.66-2.07-5.93-3.21-9.3-3.26-3.36.03-6.63,1.14-9.3,3.18-2.67,2.04-4.61,4.9-5.52,8.13l-29.07,99.52-33.68-161.8c-.66-3.47-2.49-6.61-5.19-8.89-2.7-2.28-6.1-3.56-9.64-3.62-3.53-.06-6.98,1.09-9.76,3.27-2.78,2.18-4.72,5.25-5.5,8.7l-28.01,115.05h-80.68c-3.1.02-6.12.97-8.67,2.73-2.55,1.76-4.52,4.24-5.64,7.13l-17.22-61.96c-.88-3.25-2.8-6.13-5.47-8.2-2.66-2.07-5.93-3.21-9.3-3.26-3.41-.14-6.77.91-9.49,2.97-2.72,2.07-4.64,5.02-5.41,8.34l-29.07,99.52-33.75-161.8c-.68-3.47-2.53-6.61-5.23-8.89s-6.1-3.58-9.63-3.68c-3.55-.09-7.02,1.06-9.8,3.26-2.79,2.2-4.71,5.3-5.45,8.78l-28.01,115.05h-109.04c-12.35-29.19-18.48-60.63-18.01-92.32ZM804.11,475.87c-8.17,7.5-16.2,14.77-23.54,22.06-44.41,43.54-176.25,153.87-213.19,184.65-37.03-30.78-168.75-141.18-213.19-184.65-7.43-7.29-15.39-14.56-23.54-22.06-25.84-21.88-48.77-46.97-68.25-74.67h104.01c3.49-.03,6.86-1.24,9.58-3.42,2.72-2.18,4.63-5.22,5.42-8.61l14.77-60.69,32.4,155.46c.65,3.41,2.43,6.51,5.06,8.78,2.63,2.27,5.95,3.58,9.42,3.73,3.47.15,6.89-.89,9.7-2.93,2.81-2.04,4.84-4.98,5.77-8.32l31.2-106.88,16.41,59.04c.85,3.24,2.73,6.11,5.34,8.2,2.62,2.09,5.84,3.27,9.19,3.37,3.32-.08,6.53-1.18,9.2-3.14,2.67-1.97,4.68-4.71,5.75-7.85l11.85-36.8h81.65c3.49-.03,6.86-1.24,9.58-3.42,2.72-2.18,4.63-5.22,5.42-8.61l14.77-60.69,32.4,155.46c.67,3.41,2.46,6.49,5.08,8.76,2.63,2.27,5.93,3.6,9.4,3.78h.58c3.36-.03,6.62-1.14,9.29-3.18,2.67-2.04,4.61-4.9,5.52-8.13l31.2-106.88,16.41,59.04c.85,3.24,2.73,6.11,5.34,8.2,2.62,2.09,5.84,3.27,9.19,3.37,3.32-.08,6.54-1.16,9.23-3.11,2.69-1.95,4.73-4.66,5.84-7.8l11.94-36.78h61.96c-19.46,27.7-42.37,52.81-68.18,74.71Z"/>
    </g>
  </g>
</svg>