<?xml version="1.0" encoding="UTF-8"?>
<svg width="512" height="512" id="Layer_1" xmlns="http://www.w3.org/2000/svg" viewBox="0 0 1080 1080">
  <defs>
    <style>
      .cls-1, .cls-2, .cls-3, .cls-4, .cls-5 {
        fill: #042b62;
      }

      .cls-6 {
        stroke-width: 17px;
      }

      .cls-6, .cls-2, .cls-7, .cls-8, .cls-4, .cls-9 {
        stroke-miterlimit: 10;
      }

      .cls-6, .cls-2, .cls-8, .cls-4, .cls-5 {
        stroke: #000;
      }

      .cls-6, .cls-7, .cls-8, .cls-9 {
        fill: none;
      }

      .cls-2, .cls-8 {
        stroke-width: 21px;
      }

      .cls-7 {
        stroke-width: 35px;
      }

      .cls-7, .cls-9 {
        stroke: #042b62;
      }

      .cls-3 {
        opacity: .96;
      }

      .cls-4, .cls-5 {
        stroke-width: 10px;
      }

      .cls-9 {
        stroke-linecap: round;
        stroke-width: 25px;
      }

      .cls-5 {
        stroke-linejoin: round;
      }
    </style>
  </defs>
  <path class="cls-9" d="M238.42,390.23s-31.44-19.77-71.93,0c-40.49,19.77-75.47,43.69-94.98,29.23"/>
  <path class="cls-9" d="M236.21,410.79s-36.47-7-67.02,26.11c-30.55,33.12-54.46,68.1-77.89,61.71"/>
  <rect class="cls-6" x="281.96" y="491.26" width="640.32" height="455.91" rx="13.83" ry="13.83"/>
  <rect class="cls-6" x="460.4" y="125" width="397.85" height="363.7" rx="13.83" ry="13.83"/>
  <rect class="cls-4" x="759.21" y="791.1" width="239.91" height="80.78" rx="18.2" ry="18.2"/>
  <rect class="cls-4" x="759.21" y="873.22" width="239.91" height="80.78" rx="18.2" ry="18.2"/>
  <rect class="cls-1" x="675.54" y="393.08" width="123.8" height="24.76" rx="7.25" ry="7.25"/>
  <rect class="cls-1" x="700.3" y="344.42" width="99.04" height="25.61" rx="7.25" ry="7.25"/>
  <path class="cls-8" d="M575.65,880.21c-21,34.9-49.23,52.22-66.47,60.49H205.33c-15.2-13.16-35-34.44-49.72-66.5-41.66-90.81-5.6-187.83,0-202.24,17.16-43.13,34.25-87.19,51.23-132.16,18.27-48.42,35.79-96.24,52.54-143.41l-1.6-.02-53.86-90.53c-10.6-21.13-6.11-47.49,8.55-60.67,16.98-15.26,44.49-10.05,57.55,14.3,1.56,1.44,14.24,12.72,30.74,8.01,18.87-5.39,25.24-26.7,25.61-28.03.65-1.15,13.05-22.34,35.13-21.34,14.95.68,28.44,11.26,34.88,27.35,2.07,4.21,8.89,16.77,22.2,22.03,15.54,6.13,33.64-.18,46.1-16.02,13.43-11.71,31.65-9.11,40.98,4,7.49,10.53,8.35,26.57,1.83,39.65,0,0-52.64,69.34-62.05,96.46,44.53,92.81,89.1,185.58,133.65,278.4,31.67,71.75,31.18,152.76-3.42,210.25Z"/>
  <path class="cls-2" d="M440.42,354.77c17.16,0,31.08,16.32,31.08,36.44,0,10.05-3.48,19.18-9.1,25.77-5.62,6.59-13.4,10.67-21.98,10.67h-170.92c-17.16,0-31.08-16.32-31.08-36.44,0-10.05,3.48-19.18,9.1-25.77,5.62-6.59,13.4-10.67,21.98-10.67h170.92Z"/>
  <polygon class="cls-5" points="618.27 139.51 621.75 219.77 663.96 179.64 700.74 219.77 700.74 139.51 618.27 139.51"/>
  <polyline class="cls-7" points="246.09 832.37 438.21 675.34 567.52 770.14 749.82 607.37"/>
  <polygon class="cls-3" points="838.12 528.34 825.31 607.08 813.73 686.28 747.35 619.12 680.18 552.73 759.39 541.16 838.12 528.34"/>
</svg>