<?xml version="1.0" encoding="UTF-8"?>
<svg width="31" height="40" id="Layer_1" xmlns="http://www.w3.org/2000/svg" xmlns:xlink="http://www.w3.org/1999/xlink" viewBox="0 0 1080 1080">
  <defs>
    <style>
      .cls-1 {
        fill: #042b62;
      }

      .cls-2 {
        fill: none;
      }

      .cls-3 {
        clip-path: url(#clippath);
      }
    </style>
    <clipPath id="clippath">
      <rect class="cls-2" x="237.24" y="126.55" width="630.97" height="799.64"/>
    </clipPath>
  </defs>
  <g class="cls-3">
    <g>
      <path class="cls-1" d="M852.6,554.83h-71.38c-44.46.05-87.09,17.73-118.52,49.17-31.44,31.44-49.12,74.07-49.17,118.53v64.91l-45.19,45.19v-372.58c25.02-2.37,49.19-10.34,70.71-23.34,21.51-12.99,39.82-30.67,53.57-51.71,13.74-21.05,22.57-44.92,25.81-69.84,3.25-24.92.83-50.26-7.06-74.12-1.3-3.93-4.12-7.19-7.82-9.05-3.7-1.86-7.99-2.17-11.93-.87-3.93,1.3-7.19,4.12-9.05,7.82-1.86,3.7-2.17,7.99-.87,11.92,9.56,28.9,9.13,60.17-1.22,88.8-10.35,28.63-30.03,52.94-55.86,69.04-25.84,16.1-56.34,23.04-86.59,19.71-30.26-3.33-58.52-16.73-80.24-38.05-21.72-21.32-35.65-49.33-39.53-79.52-3.89-30.19,2.49-60.81,18.1-86.94,15.61-26.13,39.56-46.25,67.99-57.14,28.43-10.88,59.69-11.89,88.76-2.86,1.96.61,4.02.83,6.06.64,2.04-.19,4.03-.77,5.85-1.73,1.82-.95,3.43-2.26,4.74-3.83,1.31-1.58,2.3-3.4,2.91-5.36.61-1.96.83-4.02.64-6.06-.19-2.04-.77-4.03-1.72-5.85-.95-1.82-2.26-3.43-3.83-4.74-1.58-1.31-3.39-2.3-5.36-2.92-22.35-6.96-45.92-9.14-69.17-6.41-23.25,2.73-45.67,10.32-65.8,22.27-20.13,11.95-37.53,27.99-51.06,47.09-13.53,19.1-22.9,40.83-27.5,63.79-4.6,22.95-4.33,46.62.8,69.46,5.13,22.84,15,44.35,28.97,63.13,13.97,18.78,31.74,34.42,52.14,45.9,20.4,11.48,42.99,18.54,66.3,20.74v237.91l-45.19-45.19v-64.89c-.05-44.46-17.73-87.09-49.17-118.53-31.44-31.44-74.06-49.12-118.52-49.17h-71.36c-4.14,0-8.11,1.64-11.04,4.57-2.93,2.93-4.57,6.9-4.57,11.04v71.38c.05,44.46,17.73,87.09,49.17,118.52,31.44,31.44,74.06,49.12,118.52,49.17h64.91l67.17,67.17v152.84h-156.34c-4.14,0-8.12,1.64-11.05,4.58-2.93,2.93-4.58,6.9-4.58,11.05s1.65,8.12,4.58,11.05c2.93,2.93,6.9,4.58,11.05,4.58h344.1c4.14,0,8.12-1.65,11.05-4.58,2.93-2.93,4.58-6.9,4.58-11.05s-1.65-8.12-4.58-11.05c-2.93-2.93-6.9-4.58-11.05-4.58h-156.44v-18.07l67.27-67.17h64.91c44.47-.05,87.11-17.74,118.55-49.2,31.44-31.46,49.12-74.1,49.14-118.58v-71.38c0-2.05-.4-4.08-1.18-5.98-.78-1.89-1.93-3.62-3.38-5.07-1.45-1.45-3.17-2.61-5.07-3.39-1.89-.79-3.93-1.19-5.98-1.19ZM404.94,643.53c-36.15-.07-70.8-14.45-96.36-40.01-25.56-25.56-39.95-60.21-40.01-96.36v-55.77h55.77c36.15.06,70.8,14.45,96.36,40.01,25.56,25.56,39.95,60.21,40.01,96.36v33.67l-68.98-68.88c-2.93-2.94-6.91-4.6-11.06-4.61-4.15,0-8.14,1.63-11.08,4.57-2.94,2.93-4.6,6.91-4.61,11.06,0,4.15,1.63,8.14,4.57,11.08l69.06,68.88h-33.67ZM836.99,641.76c-.07,36.15-14.45,70.8-40.01,96.36-25.56,25.56-60.21,39.95-96.36,40.01h-33.77l69.06-68.82c1.45-1.45,2.6-3.17,3.38-5.07.79-1.89,1.19-3.93,1.19-5.98s-.4-4.08-1.19-5.98c-.78-1.89-1.94-3.62-3.38-5.07-1.45-1.45-3.17-2.6-5.07-3.39-1.89-.78-3.93-1.19-5.98-1.19s-4.08.41-5.98,1.19c-1.89.79-3.62,1.94-5.07,3.39l-68.98,68.98v-33.69c.07-36.15,14.45-70.8,40.01-96.36,25.56-25.56,60.21-39.95,96.36-40.01h55.77v55.61Z"/>
      <path class="cls-1" d="M659.53,201.83c3.62,0,7.12-1.24,9.92-3.54,2.8-2.29,4.72-5.48,5.43-9.03.71-3.55.17-7.23-1.53-10.42-1.7-3.19-4.46-5.69-7.8-7.08-3.34-1.39-7.06-1.57-10.52-.52-3.46,1.05-6.45,3.26-8.47,6.27-2.01,3.01-2.92,6.62-2.56,10.22.35,3.6,1.95,6.97,4.5,9.52,2.93,2.92,6.89,4.56,11.03,4.58Z"/>
    </g>
  </g>
</svg>