<?xml version="1.0" encoding="UTF-8"?>
<svg  width="512" height="512"  id="Layer_1" xmlns="http://www.w3.org/2000/svg" viewBox="0 0 1080 1080">
  <defs>
    <style>
      .cls-1 {
        fill: #042b62;
      }
    </style>
  </defs>
  <path d="M315.19,991c-13.15-4.84-27.01-7.7-39.03-15.59-32.27-21.18-49.71-50.86-49.79-89.45-.31-157.48-.21-314.97-.07-472.45.03-38.24,16.25-68.27,48.05-89.54,74.48-49.82,149.03-99.53,223.72-149.04,5.52-3.66,7.85-7.36,7.37-13.96-.62-8.38-.17-16.84-.14-25.27.08-21.94,14.54-37.62,34.72-37.7,20.26-.07,35,15.57,35.02,37.4.04,74.67.01,149.35.03,224.02,0,3.48.18,6.96.28,10.44,2.4,4.15,6.47,4.51,10.6,4.59,7.84.15,15.69-.19,23.52.15,22.22.97,37.87,16.62,37.71,37.58-.16,20.99-15.91,36.82-38.18,37.03-45.89.44-91.78.44-137.67,0-22.27-.21-38.02-16.05-38.18-37.03-.16-20.96,15.49-36.62,37.71-37.59,7.83-.34,15.68,0,23.52-.15,4.14-.08,8.2-.45,10.6-4.59v-114.31c-2.7-1.34-4.03,1.27-5.75,2.41-61.61,40.94-123.13,82-184.79,122.86-12.74,8.44-18.58,19.71-18.56,35.07.17,155.49.1,310.98.11,466.47,0,24.78,14.07,38.87,38.82,38.87,136.88.01,273.76.01,410.63,0,24.73,0,38.86-14.12,38.86-38.85.01-155.2-.08-310.4.13-465.6.02-16.02-5.88-27.64-19.3-36.43-34.7-22.74-69.12-45.92-103.58-69.02-13.12-8.8-19.19-22.94-16.14-36.68,3.28-14.82,14.67-25.44,29.97-27.7,8.72-1.29,16.72,1.04,23.96,5.87,36.95,24.6,74.25,48.69,110.66,74.07,29.06,20.26,43.89,49.27,43.95,84.68.28,158.4.21,316.79.07,475.19-.04,51.23-36.94,94.03-87.88,102.7-1.15.2-2.29.22-2.76,1.55h-448.21Z"/>
  <path class="cls-1" d="M536.97,514.38c97.06.11,174.3,77.56,174.24,174.7-.06,96.81-77.94,174.5-174.8,174.39-96.8-.11-174.35-77.99-174.24-174.96.12-97.01,77.65-174.24,174.8-174.13Z"/>
  <path class="cls-1" d="M505,369.86c1.48,5.74-.68,7.61-6.57,7.32-9.27-.46-18.59-.24-27.88-.09-19.73.32-34.97,15.54-35.01,34.79-.03,19.24,15.2,34.8,34.89,34.88,46.48.19,92.97.19,139.46,0,19.71-.08,34.94-15.63,34.91-34.87-.03-19.24-15.28-34.47-35.01-34.8-9.29-.15-18.61-.37-27.88.09-5.89.29-8.04-1.58-6.57-7.32,20.92.05,41.86-.37,62.77.29,16.99.53,30.23,8.56,37.49,24.22,6.95,14.97,5.03,29.59-5.16,42.64-8.86,11.36-21.38,16.16-35.25,16.21-65.97.26-131.95.52-197.91-.1-24.05-.23-41.51-15.73-43.78-35.86-2.92-25.86,14.99-46.53,41.75-47.18,23.24-.57,46.5-.19,69.75-.22Z"/>
  <path d="M644.82,616.62c-.14,7.06-3.48,15.52-10.35,22.4-46.36,46.43-92.65,92.91-139.21,139.13-14.55,14.45-36.18,14.01-49.88-.14-13.46-13.9-13.4-34.94.83-49.26,46.05-46.32,92.26-92.48,138.54-138.57,10.88-10.84,23.91-13.79,38.38-8.11,13.08,5.13,21.55,17.88,21.68,34.55Z"/>
  <path d="M505.28,614.05c.1,19.19-15.5,34.98-34.67,35.09-19.18.11-34.98-15.52-35.07-34.68-.09-19.23,15.47-34.97,34.66-35.07,19.23-.09,34.97,15.46,35.08,34.66Z"/>
  <path d="M644.8,753.85c-.03,19.18-15.75,34.85-34.94,34.82-19.18-.03-34.84-15.75-34.8-34.95.04-19.22,15.71-34.84,34.93-34.8,19.21.03,34.84,15.71,34.81,34.93Z"/>
</svg>