<?xml version="1.0" encoding="UTF-8"?>
<svg id="Layer_1" xmlns="http://www.w3.org/2000/svg" viewBox="0 0 1080 1080">
  <defs>
    <style>
      .cls-1 {
        fill: #042b62;
      }

      .cls-2 {
        fill: #fefefe;
      }
    </style>
  </defs>
  <path class="cls-1" d="M360.94,1038c-11.76-7.86-18.77-18.93-24.07-31.99-11.52-28.41-24.61-56.18-36.01-84.63-4.15-10.37-8.74-11.76-18.79-8.12-31.65,11.46-63.75,21.66-95.49,32.87-13.53,4.78-26.09,5.89-36.4-5.81-9.78-11.11-7.13-23.13-1.62-35.41,22.66-50.45,45.45-100.86,67.32-151.66,5.62-13.05,9.28-13.32,18.88-3.33,57.94,60.25,128.09,99.14,209.94,116.07,14.45,2.99,15.63,7.25,9.82,19.75-19.28,41.42-37.72,83.23-55.94,125.13-4.64,10.67-10.61,19.84-19.55,27.14h-18.08Z"/>
  <path class="cls-1" d="M675.6,1038c-8.98-7.28-14.91-16.48-19.54-27.15-18.44-42.46-37.26-84.75-56.51-126.84-4.88-10.66-4.76-14.77,8.63-17.53,83.08-17.1,154.38-56.27,212.97-117.76,8.52-8.94,12.01-8.43,16.92,2.84,22.54,51.81,45.63,103.38,68.69,154.96,5.29,11.84,6.8,23.33-2.29,33.76-9.64,11.06-21.72,11.03-34.7,6.52-32.37-11.24-64.96-21.84-97.17-33.51-9.98-3.62-14.64-2.37-18.81,8.06-11.38,28.46-24.47,56.23-36,84.63-5.3,13.07-12.23,24.23-24.09,32.04h-18.08Z"/>
  <path class="cls-1" d="M879.37,467.36c-.28,195.68-158.61,354.08-353.58,353.71-193.13-.37-350.86-160.06-350.57-354.92.29-195.73,158.51-353.97,353.6-353.66,193.32.31,350.83,159.76,350.55,354.87Z"/>
  <path class="cls-2" d="M649.91,594.22c.57,23.71-19.26,37.37-39.48,27.76-23.88-11.35-47.22-23.92-70.35-36.76-8.74-4.85-15.6-5.57-24.71-.38-21.93,12.5-44.68,23.56-66.97,35.44-10.89,5.8-21.66,7.78-32.2-.08-10.94-8.15-13.05-19.27-10.53-32.23,4.36-22.42,7.79-45.02,12.24-67.42,2.53-12.72.9-22.6-9.83-31.9-17.26-14.97-32.73-31.98-49.37-47.69-9.99-9.43-15.85-20-11.34-33.72,4.39-13.38,16.17-16.99,28.42-18.87,24.96-3.82,49.94-7.64,75.01-10.69,8.24-1,12.47-4.52,15.9-11.89,10.15-21.79,21.42-43.05,31.74-64.76,6.05-12.72,13.31-22.66,29.31-22.46,16.04.21,22.83,10.64,28.81,23.24,10.05,21.18,21.22,41.83,30.95,63.14,3.71,8.13,8.39,11.81,17.2,12.87,23.87,2.87,47.65,6.57,71.45,10.09,13.43,1.99,26.74,4.95,31.36,20.15,4.48,14.75-3.2,25.15-13.46,34.8-16.23,15.27-31.34,31.76-48.03,46.49-9.95,8.79-11.94,18.02-9.51,30.29,5.04,25.34,9.18,50.86,13.39,74.56Z"/>
  <path class="cls-1" d="M465.72,547.08c20.54-47.06,10.03-83.36-34.67-108.39,1.17-1.14,2.33-2.27,3.5-3.41,12.61-1.86,25.18-4.22,37.85-5.45,17.9-1.73,30.07-9.93,36.75-27.1,4.48-11.52,10.81-22.32,19.27-35.63,12.92,47.81,41.34,72.68,94.49,67.11-40.27,29.43-57.34,64.09-33.55,111.66-1.99.26-3.99.53-5.98.79-10.79-5.61-22.01-10.54-32.26-17-15.94-10.05-30.88-10.61-47.07-.26-10.36,6.62-21.13,13.22-38.34,17.69Z"/>
</svg>