<?xml version="1.0" encoding="UTF-8"?>
<svg id="Layer_1" xmlns="http://www.w3.org/2000/svg" viewBox="0 0 1080 1080">
  <defs>
    <style>
      .cls-1 {
        opacity: .4;
      }

      .cls-1, .cls-2, .cls-3, .cls-4, .cls-5, .cls-6 {
        fill: #042b62;
      }

      .cls-1, .cls-3, .cls-7, .cls-4, .cls-6, .cls-8, .cls-9 {
        isolation: isolate;
      }

      .cls-10 {
        fill: #630f0f;
      }

      .cls-11, .cls-7, .cls-8, .cls-9 {
        fill: #fff;
      }

      .cls-12 {
        fill: #f0f0f0;
      }

      .cls-13 {
        fill: #e0e0e0;
      }

      .cls-3 {
        opacity: .1;
      }

      .cls-7, .cls-14 {
        opacity: .5;
      }

      .cls-15 {
        fill: #7f3e3b;
      }

      .cls-4 {
        opacity: .2;
      }

      .cls-5 {
        opacity: .59;
      }

      .cls-6 {
        opacity: .6;
      }

      .cls-16 {
        fill: #ffb573;
      }

      .cls-17, .cls-9 {
        opacity: .9;
      }

      .cls-18 {
        fill: #ebebeb;
      }

      .cls-19 {
        fill: #f5f5f5;
      }

      .cls-20 {
        fill: #ed847e;
      }

      .cls-21 {
        fill: #ed893e;
      }

      .cls-8 {
        opacity: .8;
      }

      .cls-22 {
        fill: #ffc3bd;
      }

      .cls-23 {
        fill: #e6e6e6;
      }
    </style>
  </defs>
  <path class="cls-18" d="M937.33,850.33h-65.23v.49h65.23v-.49Z"/>
  <path class="cls-18" d="M703.6,855.69h-17.11v.49h17.11v-.49Z"/>
  <path class="cls-18" d="M870.14,832.05h-37.8v.49h37.8v-.49Z"/>
  <path class="cls-18" d="M239.66,835.36h-85.06v.49h85.06v-.49Z"/>
  <path class="cls-18" d="M269.68,835.36h-12.47v.49h12.47v-.49Z"/>
  <path class="cls-18" d="M494.7,843.68h-184.5v.49h184.5v-.49Z"/>
  <path class="cls-18" d="M518.04,730.81H137.79c-2.98,0-5.84-1.18-7.95-3.29-2.11-2.11-3.29-4.97-3.29-7.95V185c.03-2.97,1.22-5.8,3.33-7.89,2.11-2.09,4.95-3.26,7.92-3.26h380.26c2.98,0,5.84,1.18,7.95,3.29,2.11,2.11,3.29,4.97,3.29,7.95v534.46c0,2.98-1.18,5.84-3.29,7.95-2.11,2.11-4.97,3.29-7.95,3.29ZM137.79,174.25c-2.85,0-5.58,1.14-7.6,3.16-2.02,2.02-3.15,4.75-3.16,7.6v534.56c0,2.85,1.14,5.58,3.16,7.6,2.02,2.02,4.75,3.15,7.6,3.15h380.26c2.85,0,5.58-1.14,7.6-3.15,2.02-2.02,3.15-4.75,3.15-7.6V185c0-2.85-1.14-5.58-3.15-7.6-2.02-2.02-4.75-3.15-7.6-3.16H137.79Z"/>
  <path class="cls-18" d="M944.05,730.81h-380.29c-2.98,0-5.84-1.19-7.95-3.3-2.1-2.11-3.29-4.97-3.3-7.95V185c.03-2.96,1.23-5.8,3.34-7.88,2.1-2.09,4.95-3.26,7.91-3.26h380.29c2.96.01,5.8,1.19,7.89,3.27,2.1,2.09,3.29,4.92,3.32,7.87v534.56c0,2.98-1.18,5.83-3.28,7.94-2.1,2.11-4.95,3.3-7.93,3.31ZM563.75,174.25c-2.85,0-5.58,1.14-7.6,3.16-2.02,2.02-3.15,4.75-3.15,7.6v534.56c0,2.85,1.14,5.58,3.15,7.6s4.75,3.15,7.6,3.15h380.29c2.85,0,5.58-1.14,7.6-3.15,2.02-2.02,3.15-4.75,3.15-7.6V185c0-2.85-1.14-5.58-3.15-7.6-2.02-2.02-4.75-3.15-7.6-3.16h-380.29Z"/>
  <path class="cls-18" d="M1036,818.65H51.29v.49h984.71v-.49Z"/>
  <path class="cls-19" d="M310.58,715.45c.24.26-1.1,2.11,4.29,1.3,8.49-1.28,23.63-9.49,33.48-15.28,1.02-.61,1.89-1.45,2.52-2.46.63-1.01,1.02-2.15,1.13-3.34.11-1.18-.07-2.38-.52-3.48-.45-1.11-1.15-2.09-2.05-2.87-5.08-4.47-10.52-10.6-9.99-15.99.57-5.71,12.53-12.37,22.69-17.02,1.2-.55,2.23-1.4,3-2.47.77-1.07,1.24-2.32,1.37-3.63.13-1.31-.08-2.63-.62-3.84-.54-1.2-1.38-2.24-2.45-3.02-3.25-2.36-5.91-5.06-5.91-7.7-.16-3.94,8.67-8.96,16.8-12.84,1.05-.51,1.98-1.24,2.7-2.16.72-.92,1.22-1.99,1.45-3.14.24-1.14.21-2.33-.09-3.46-.3-1.13-.85-2.17-1.62-3.06-.58-.6-.98-1.35-1.17-2.17-.19-.81-.16-1.66.09-2.46.85-2.46,2.74-8.7,4.79-15.52.47-1.55.44-3.21-.11-4.73-.54-1.52-1.57-2.83-2.91-3.73-1.35-.9-2.95-1.34-4.56-1.25-1.62.08-3.16.69-4.41,1.72-6.27,5.43-12.85,10.49-19.69,15.17-.72.42-1.55.63-2.39.59-.84-.04-1.64-.33-2.32-.82-1.03-.73-2.23-1.2-3.49-1.35-1.26-.15-2.53.01-3.71.48-1.18.46-2.22,1.22-3.02,2.2s-1.36,2.14-1.6,3.38c-2.52,13.79-6.77,30-13.16,33.94-3.02,1.85-6.61,2.55-10.1,1.97-1-.16-2.03-.11-3.01.13-.99.25-1.91.69-2.72,1.3-.81.61-1.49,1.38-2,2.26-.51.88-.83,1.85-.95,2.86-2.05,17.45-4.23,54.35,10.26,70.5Z"/>
  <path class="cls-13" d="M351.59,635.78c-3.91.28-7.77,1.08-11.48,2.36,2.46-3.71,5.19-7.22,8.17-10.52.09-.09.16-.2.21-.32.05-.12.08-.25.08-.38s-.03-.26-.08-.37c-.05-.12-.12-.23-.21-.32-.09-.09-.2-.17-.32-.21-.12-.05-.25-.08-.38-.08s-.26.03-.38.08c-.12.05-.23.12-.32.21-6.42,7.2-11.92,15.18-16.37,23.75-4.18-25.18,6.36-47.27,6.48-47.42.08-.18.09-.38.03-.56-.06-.19-.19-.33-.37-.42-.09-.05-.18-.07-.28-.08-.1,0-.19,0-.29.04-.09.03-.18.08-.25.14-.07.07-.13.14-.17.23-.12.24-11.38,23.73-6.28,50.16-1.31,2.62-2.67,5.4-4.08,8.33-4.77,10.6-8.53,21.63-11.23,32.93-4.92-9.28-7.62-19.57-7.88-30.08,0-.1-.02-.19-.06-.28-.04-.09-.09-.17-.16-.24-.07-.06-.15-.12-.24-.15-.09-.03-.19-.05-.28-.04-.2,0-.38.09-.52.24-.14.14-.21.33-.21.53.24,11.26,3.27,22.28,8.82,32.08-5.03,22.24-6.72,45.11-5,67.85,0,.13.04.26.1.37.06.12.14.22.23.31.1.09.21.15.33.2.12.04.25.06.38.05h.12c.24-.05.45-.18.6-.37.15-.19.22-.43.21-.67-2.44-35.45,2.86-63.83,10.18-85.37,4.06-4.71,9.63-7.88,15.76-8.96.19-.04.36-.15.48-.3.12-.16.17-.35.15-.55-.01-.09-.05-.19-.1-.27-.05-.08-.12-.16-.2-.21-.08-.06-.17-.1-.26-.12-.1-.02-.19-.03-.29,0-5.37.91-10.36,3.39-14.34,7.11,4.27-11.99,9.9-23.44,16.8-34.13,4.15-1.74,8.56-2.77,13.06-3.06.19-.02.37-.12.49-.27.12-.15.19-.34.18-.53,0-.11-.03-.2-.08-.3-.05-.09-.11-.18-.19-.24-.08-.07-.17-.11-.27-.14-.1-.02-.2-.03-.31-.01Z"/>
  <path class="cls-23" d="M293.53,723.05c-6.97.12-20.03-7.88-28.69-13.79-.83-.58-1.52-1.35-2-2.24-.48-.89-.75-1.89-.77-2.9-.03-1.01.19-2.02.63-2.94.44-.92,1.08-1.72,1.89-2.34,1.23-.8,2.18-1.95,2.73-3.31.55-1.36.68-2.85.36-4.28-1.1-3.94-10.48-5.39-19.54-5.79-1.21-.05-2.39-.44-3.39-1.11-1-.68-1.8-1.63-2.3-2.73-.5-1.11-.68-2.33-.52-3.53.16-1.2.64-2.34,1.41-3.28,1.54-1.51,2.46-3.54,2.58-5.69-.45-3.43-11.56-10.66-20.64-16.03-.99-.59-1.81-1.43-2.38-2.44-.56-1.01-.85-2.15-.83-3.3.02-1.16.35-2.29.94-3.27.6-.98,1.45-1.8,2.46-2.35,3.01-1.7,5.16-3.68,4.12-5.62-1.04-1.93-3.11-6.07-5.49-10.89-.63-1.26-.84-2.68-.59-4.07.25-1.38.93-2.65,1.96-3.62,1.02-.97,2.33-1.57,3.73-1.73,1.4-.16,2.81.13,4.03.83,5.52,3.32,11.22,6.33,17.07,9,2.66.96,5.91-.61,8.8-2.86.89-.67,1.94-1.09,3.04-1.24,1.1-.14,2.23,0,3.26.4,1.03.41,1.95,1.08,2.65,1.94.7.86,1.17,1.9,1.37,2.99,2.6,14.2,7.6,35.69,14.46,38.46,2.14.84,4.51.89,6.68.14.99-.28,2.03-.33,3.03-.13,1.01.2,1.95.63,2.76,1.26.81.64,1.45,1.45,1.88,2.39s.63,1.96.58,2.98c-.55,18.44-2.03,51.01-5.26,51.07Z"/>
  <path class="cls-19" d="M289.9,709.79c.16-.07.3-.18.39-.33,4.2-9.25,5.9-19.43,4.94-29.54-.02-.2-.11-.38-.25-.51s-.34-.2-.53-.18c-.2.02-.38.11-.51.26-.13.15-.19.34-.18.54.83,9.61-.71,19.27-4.47,28.14-4.56-12.33-10.19-24.23-16.82-35.58,1.97-23.63-10.2-43.13-10.32-43.33-.05-.08-.12-.16-.2-.22-.08-.06-.17-.1-.27-.12-.1-.02-.2-.02-.29,0-.1.01-.19.05-.27.11-.16.11-.28.27-.32.47-.04.19,0,.39.1.55,7.05,12.23,10.59,26.15,10.24,40.26-7.95-13.62-17.43-26.29-28.26-37.75-.19-.16-.43-.24-.68-.23-.25,0-.48.12-.66.29-.17.18-.28.41-.28.66,0,.25.08.49.24.68,8.03,8.41,15.28,17.53,21.66,27.26-6.67-2.49-13.75-3.74-20.88-3.68-.1,0-.2.02-.29.07-.09.04-.17.1-.24.17-.07.07-.12.16-.16.25-.04.09-.05.19-.05.28,0,.19.08.37.22.51.14.13.32.2.51.2,7.64-.07,15.22,1.42,22.27,4.35,4.36,6.67,8.37,13.57,12.01,20.66-2.97-2.06-6.35-3.45-9.9-4.07-3.56-.63-7.21-.47-10.7.45-.19.05-.35.17-.45.34-.1.17-.13.37-.08.56.03.09.07.18.13.26.06.08.13.14.22.19.08.05.18.08.27.09.1.01.19,0,.29-.02,3.79-.98,7.75-1.01,11.55-.09,3.8.92,7.31,2.76,10.23,5.36,12.72,25.17,19.98,52.74,21.29,80.9.01.26.12.5.3.67.18.18.43.27.68.27.13,0,.26-.04.37-.09.12-.05.22-.13.31-.22.09-.1.16-.21.2-.33.04-.12.07-.25.06-.38-.84-19.84-4.7-39.44-11.46-58.12Z"/>
  <path class="cls-12" d="M304.89,752.55h-37.42l8.82,58.57c.28,1.92,1.25,3.68,2.72,4.95,1.47,1.27,3.35,1.97,5.29,1.96h37.26c1.94,0,3.82-.7,5.3-1.96,1.47-1.27,2.45-3.02,2.74-4.95l8.8-58.57h-33.52Z"/>
  <path class="cls-13" d="M336.66,764.19l1.75-11.64h-70.94l1.75,11.64h67.43Z"/>
  <path class="cls-12" d="M344.28,757.47h-82.72c-.46,0-.9-.11-1.31-.33-.4-.21-.75-.52-1-.9-.26-.38-.42-.81-.47-1.26-.05-.46.01-.91.18-1.33l1.71-4.27c.21-.52.57-.97,1.03-1.28.46-.31,1.01-.48,1.57-.48h79.29c.56,0,1.1.16,1.56.48.46.31.82.76,1.02,1.28l1.71,4.27c.17.42.24.88.19,1.33-.05.45-.21.89-.46,1.26-.26.38-.6.69-1,.9-.4.21-.85.32-1.31.32Z"/>
  <path class="cls-13" d="M251.32,472.83l-30.96-4.59c-18.2-1.97-29.01,5.91-35.29,17.21,11.5,12.62,26.99,20.89,43.88,23.43,16.88,2.54,34.13-.82,48.82-9.51-3.54-26.98-26.45-26.55-26.45-26.55Z"/>
  <path class="cls-19" d="M228.54,433.82c.47,10.26-.28,28.79-8.23,34.41,0,0,10.02,19.91,24.83,26.55,9.1-6.18,6.13-21.96,6.13-21.96-10.71-4.29-9.2-12.51-6.13-20.01l-16.6-18.99Z"/>
  <path class="cls-23" d="M235.35,441.7l9.85,11.27c-.77,1.73-1.37,3.52-1.81,5.36-4.16-1.24-9.3-6.76-9.1-11.27.03-1.84.39-3.65,1.06-5.36Z"/>
  <path class="cls-19" d="M221.03,415.07c1.32,16.78,1.52,23.93,10.16,32.4,13,12.74,33.34,7.46,37.06-9.39,3.35-15.16.61-40-15.97-46.5-3.65-1.43-7.6-1.9-11.48-1.36-3.88.53-7.56,2.05-10.69,4.4-3.13,2.35-5.61,5.47-7.2,9.05-1.59,3.58-2.24,7.51-1.88,11.41Z"/>
  <path class="cls-13" d="M257.17,420.98c1.28,3.1,2.97,6.01,5.04,8.65-.69.51-1.48.87-2.32,1.05-.84.18-1.71.17-2.55-.02l-.18-9.67Z"/>
  <path class="cls-13" d="M251.36,435.89c.77,0,1.53-.08,2.28-.22.05,0,.1-.03.15-.05.05-.03.08-.06.12-.1.03-.04.05-.09.07-.14.01-.05.01-.1,0-.16-.02-.1-.08-.19-.16-.25-.08-.06-.19-.08-.29-.07-1.67.32-3.39.25-5.03-.2-1.64-.46-3.15-1.29-4.4-2.44-.04-.04-.08-.07-.13-.09-.05-.02-.1-.03-.16-.03s-.11.01-.16.03c-.05.02-.09.05-.13.09-.07.08-.11.18-.11.29s.04.21.11.29c2.13,1.98,4.93,3.08,7.84,3.05Z"/>
  <path class="cls-13" d="M241.79,414.38c.1.04.21.07.32.07s.22-.02.31-.07c.83-.58,1.79-.96,2.79-1.1,1-.14,2.03-.04,2.98.29.19.06.4.04.58-.04.18-.08.32-.23.4-.42.08-.18.09-.39.02-.58-.06-.19-.2-.35-.37-.44-1.19-.45-2.47-.61-3.73-.46-1.26.15-2.47.61-3.52,1.32-.18.12-.3.3-.34.5-.04.21,0,.42.11.6.1.16.27.27.45.31Z"/>
  <path class="cls-13" d="M264.24,414.32c.09-.01.18-.05.26-.1.08-.05.14-.12.2-.2.06-.07.1-.16.12-.25.02-.09.03-.18.02-.27-.01-.09-.04-.18-.09-.26-.05-.08-.11-.15-.19-.2-.9-.69-1.95-1.16-3.06-1.36-1.11-.2-2.26-.13-3.34.2-.17.07-.31.21-.39.38-.08.17-.09.37-.03.54.07.17.2.32.37.39.17.08.36.09.54.02.86-.26,1.77-.3,2.65-.13.88.17,1.71.55,2.41,1.11.07.06.16.1.25.12.09.02.19.02.28,0Z"/>
  <path class="cls-13" d="M239.03,511c-14.78-.02-29.22-4.42-41.5-12.64-12.28-8.22-21.84-19.9-27.48-33.56-5.64-13.66-7.11-28.68-4.21-43.17,2.89-14.49,10.02-27.8,20.48-38.24,10.46-10.44,23.77-17.55,38.27-20.43,14.5-2.88,29.52-1.39,43.17,4.27,13.65,5.66,25.32,15.24,33.53,27.53,8.21,12.29,12.59,26.73,12.59,41.51-.03,19.83-7.92,38.84-21.95,52.85-14.03,14.01-33.05,21.88-52.88,21.88ZM239.03,363.94c-14.3,0-28.28,4.25-40.17,12.2-11.89,7.95-21.16,19.24-26.63,32.46-5.47,13.21-6.9,27.75-4.11,41.78,2.79,14.03,9.68,26.91,19.8,37.02,10.11,10.11,23,17,37.03,19.79,14.03,2.79,28.57,1.36,41.78-4.12,13.21-5.47,24.51-14.74,32.45-26.64,7.95-11.89,12.19-25.87,12.19-40.17-.02-19.18-7.65-37.56-21.21-51.12-13.56-13.56-31.95-21.18-51.13-21.2Z"/>
  <path class="cls-13" d="M245.22,420.03c0,1.12.61,1.97,1.34,1.97s1.3-.93,1.28-1.97-.61-1.97-1.34-1.97-1.3.89-1.28,1.97Z"/>
  <path class="cls-13" d="M259.44,420.03c0,1.12.61,1.97,1.34,1.97s1.3-.93,1.28-1.97c-.02-1.04-.63-1.97-1.36-1.97s-1.28.89-1.26,1.97Z"/>
  <path class="cls-13" d="M224.15,428.38c2.21-.97,4.01-2.68,5.09-4.84,1.08-2.16,1.37-4.63.82-6.97,0,0,10.22-3.68,9.04-12.05,0,0,15.76,3.68,16.8-2.46,0,0,14.28,6.4,15.26,0,.98-6.4-6.26-8.63-6.26-8.63,0,0,.79-14.51-13.04-9.59,0,0-8.06-8.37-17.51,1.22,0,0-9.53-4.18-13.92,8.86,0,0-9.08,4.43-6.38,14.04,0,0-6.3,6.05-1.71,12.01-.06.06-1.4,16.96,11.82,8.41Z"/>
  <path class="cls-19" d="M217.94,430.16c1.87,2.88,4.8,4.91,8.15,5.63,4.47.91,6.38-3.15,4.86-7.19-1.36-3.62-5.32-8.47-9.65-7.56-.94.21-1.82.66-2.54,1.29-.73.64-1.28,1.44-1.62,2.35-.33.91-.44,1.88-.3,2.84.14.96.51,1.86,1.09,2.64Z"/>
  <path class="cls-13" d="M806.6,575.71s-48.76-9.63-47.7,0c0,0-4.19-9.85.22-28.93,4.41-19.09,5.91-22.97,5.91-22.97l27.02-2.6,20.72,12.19,1.22,20.19-1.83,12.43-5.56,9.69Z"/>
  <path class="cls-13" d="M777.1,598.62l30.98-4.57c18.18-1.97,28.99,5.81,35.27,17.21-11.51,12.63-27.02,20.91-43.92,23.44-16.89,2.54-34.15-.83-48.86-9.52,3.64-26.98,26.53-26.57,26.53-26.57Z"/>
  <path class="cls-19" d="M799.83,559.64c-.47,10.26.27,28.77,8.25,34.41,0,0-8.68,18.11-24.85,16.7-10.95-.97-6.13-12.13-6.13-12.13,10.72-4.27,9.2-12.49,6.13-19.99l16.6-18.99Z"/>
  <path class="cls-23" d="M793.07,567.4l-9.85,11.26c.77,1.73,1.38,3.52,1.83,5.36,4.13-1.24,9.28-6.77,9.08-11.26-.03-1.83-.39-3.65-1.06-5.36Z"/>
  <path class="cls-19" d="M807.39,540.88c-1.32,16.78-1.51,23.93-10.16,32.39-13,12.75-33.34,7.46-37.06-9.39-3.33-15.17-.61-40,15.97-46.5,3.65-1.43,7.6-1.9,11.48-1.36,3.88.53,7.57,2.05,10.7,4.4,3.13,2.35,5.61,5.47,7.19,9.05,1.59,3.58,2.24,7.51,1.88,11.41Z"/>
  <path class="cls-13" d="M771.25,546.79c-1.28,3.1-2.97,6.01-5.04,8.64.69.52,1.48.87,2.32,1.05.84.18,1.7.17,2.55-.03l.18-9.67Z"/>
  <path class="cls-13" d="M777.06,561.67c-.77.01-1.53-.05-2.28-.2-.06,0-.1-.03-.15-.05-.05-.03-.08-.07-.12-.11-.03-.04-.05-.09-.06-.14-.01-.05-.01-.11,0-.16.02-.1.07-.19.16-.25.09-.06.19-.08.29-.07,1.67.33,3.4.26,5.04-.2,1.64-.46,3.15-1.29,4.41-2.43.04-.04.08-.07.13-.09s.1-.03.15-.04c.06,0,.11,0,.15.02.05.01.1.04.13.08.04.03.07.07.09.13.02.05.04.1.04.15,0,.05,0,.1-.02.15-.02.05-.05.09-.08.13-2.12,2.02-4.95,3.12-7.88,3.07Z"/>
  <path class="cls-13" d="M786.63,540.17c-.1.04-.2.07-.32.07s-.21-.02-.32-.07c-.82-.58-1.77-.96-2.78-1.1-1-.14-2.02-.04-2.97.29-.1.03-.21.04-.32.02-.11-.01-.21-.05-.31-.1-.09-.06-.18-.13-.24-.22-.06-.09-.11-.19-.13-.29-.04-.17-.03-.35.04-.51.06-.16.19-.29.34-.38,1.18-.45,2.46-.6,3.72-.45,1.25.15,2.46.6,3.51,1.32.09.06.16.13.22.21.06.09.11.19.13.29.02.1.02.21,0,.31-.02.1-.06.2-.12.29-.11.16-.27.27-.46.32Z"/>
  <path class="cls-13" d="M764.22,540.17c-.09,0-.18-.04-.26-.08-.08-.05-.14-.12-.2-.19-.06-.07-.1-.16-.12-.25-.02-.09-.03-.19-.02-.28.01-.09.05-.18.09-.26.05-.08.11-.15.19-.2.9-.69,1.95-1.16,3.06-1.36,1.11-.2,2.26-.14,3.34.19.18.07.32.2.39.37.07.17.08.36.02.53-.03.09-.08.17-.14.24-.06.07-.14.13-.22.17-.08.04-.18.06-.27.07-.09,0-.19,0-.27-.04-.86-.26-1.77-.31-2.65-.14-.88.17-1.71.55-2.42,1.11-.07.06-.16.1-.25.12-.09.02-.19.02-.28,0Z"/>
  <path class="cls-13" d="M714.65,562.07c0-14.78,4.38-29.23,12.6-41.52,8.21-12.29,19.88-21.87,33.54-27.53,13.66-5.66,28.69-7.14,43.18-4.25,14.5,2.88,27.81,10,38.27,20.45,10.45,10.45,17.57,23.77,20.45,38.27,2.88,14.5,1.41,29.52-4.25,43.18-5.66,13.66-15.24,25.33-27.53,33.54-12.29,8.21-26.74,12.6-41.52,12.6-19.81-.03-38.81-7.91-52.82-21.92-14.01-14.01-21.89-33.01-21.92-52.82ZM717.07,562.07c0,14.3,4.25,28.28,12.19,40.18,7.95,11.89,19.24,21.16,32.46,26.63,13.21,5.47,27.75,6.91,41.78,4.12,14.03-2.79,26.91-9.68,37.03-19.79,10.11-10.11,17-23,19.79-37.03,2.79-14.03,1.36-28.57-4.12-41.78-5.48-13.22-14.74-24.51-26.63-32.46-11.9-7.95-25.88-12.19-40.18-12.19-19.17.02-37.56,7.65-51.11,21.2-13.56,13.56-21.19,31.94-21.21,51.11Z"/>
  <path class="cls-13" d="M783.2,545.84c0,1.12-.61,1.97-1.34,1.97s-1.3-.91-1.28-1.97c.02-1.06.61-1.97,1.34-1.97s1.3.87,1.28,1.97Z"/>
  <path class="cls-13" d="M768.99,545.84c0,1.12-.61,1.97-1.34,1.97s-1.28-.91-1.26-1.97c.02-1.06.61-1.97,1.34-1.97s1.3.87,1.26,1.97Z"/>
  <path class="cls-13" d="M781.94,543.83c-.46.11-.93.13-1.39.05-.46-.08-.91-.25-1.31-.51,0,0,.18,1.54,2.68,1.24l.02-.78Z"/>
  <path class="cls-13" d="M767.73,543.83c-.46.11-.93.13-1.4.05-.46-.08-.91-.25-1.3-.51,0,0,.18,1.54,2.68,1.24l.02-.78Z"/>
  <path class="cls-13" d="M803.61,553.48s-11.44,1.97-10.46-13.28c.98-15.24-8.37-6.67-10.46-14.3,0,0-4.13-.49-2.88,4.43,0,0-20.27,5.65-20.82-.26-.55-5.91,8.92-21.03,27.14-16.48,0,0,21.66-3.33,27.43,17.23,5.77,20.56,1.36,33.36,9,39.51,7.64,6.15-19.46,6.77-19.46,6.77l.49-23.63Z"/>
  <path class="cls-19" d="M810.48,555.92c-1.87,2.87-4.8,4.88-8.16,5.59-4.47.89-6.36-3.15-4.86-7.19,1.36-3.63,5.32-8.47,9.65-7.57,4.33.91,5.63,5.63,3.37,9.16Z"/>
  <path class="cls-23" d="M788.19,329.73c-7.97,0-15.75-2.36-22.37-6.79-6.62-4.43-11.78-10.72-14.84-18.07-3.05-7.36-3.85-15.46-2.29-23.27,1.55-7.81,5.39-14.99,11.02-20.62,5.63-5.63,12.81-9.47,20.62-11.02,7.81-1.55,15.91-.76,23.27,2.29,7.36,3.05,13.65,8.21,18.08,14.83,4.42,6.62,6.79,14.41,6.79,22.38,0,10.68-4.26,20.92-11.81,28.47-7.55,7.55-17.79,11.8-28.47,11.81ZM788.19,252.14c-7.4-.02-14.65,2.16-20.81,6.26-6.17,4.1-10.98,9.94-13.83,16.77-2.85,6.84-3.6,14.36-2.17,21.63,1.44,7.27,4.99,13.94,10.22,19.18,5.23,5.24,11.9,8.82,19.16,10.27,7.26,1.45,14.79.72,21.64-2.11,6.84-2.83,12.69-7.63,16.81-13.78,4.12-6.16,6.31-13.39,6.31-20.8,0-9.91-3.93-19.41-10.92-26.42-7-7.01-16.49-10.97-26.4-10.99Z"/>
  <path class="cls-23" d="M788.19,328.26c6.93,0,13.73-1.88,19.69-5.42-.27-4.35-.61-9.47-.77-11.99-.2-2.72-1.42-5.27-3.41-7.13-2-1.86-4.63-2.89-7.36-2.89h-16.36c-2.73,0-5.36,1.03-7.35,2.89-2,1.86-3.21,4.41-3.4,7.13-.18,2.52-.51,7.64-.79,11.99,5.98,3.54,12.81,5.42,19.75,5.42Z"/>
  <path class="cls-23" d="M798.03,281.62c0,5.46-4.41,11.82-9.85,11.82s-9.85-6.36-9.85-11.82c0-2.61,1.04-5.12,2.88-6.96,1.85-1.85,4.35-2.88,6.96-2.88s5.12,1.04,6.96,2.88c1.85,1.85,2.88,4.35,2.88,6.96Z"/>
  <path class="cls-19" d="M534.15,900c210.89,0,381.85-9.98,381.85-22.3s-170.96-22.29-381.85-22.29-381.85,9.98-381.85,22.29,170.96,22.3,381.85,22.3Z"/>
  <path class="cls-5" d="M606.39,336.9c-7.06,0-14-1.86-20.13-5.38l-18.55,3.58,3.59-18.57c-3.74-6.54-5.58-14-5.3-21.53.27-7.53,2.65-14.84,6.86-21.09,4.21-6.25,10.08-11.2,16.95-14.29,6.87-3.09,14.47-4.2,21.94-3.2,7.47,1,14.51,4.07,20.33,8.86,5.82,4.79,10.18,11.11,12.59,18.25,2.41,7.14,2.78,14.81,1.06,22.15-1.72,7.34-5.45,14.05-10.78,19.38-3.75,3.75-8.2,6.73-13.1,8.76-4.9,2.03-10.15,3.08-15.45,3.08ZM586.81,328.41l.47.3c7.15,4.25,15.51,5.99,23.77,4.95s15.93-4.8,21.8-10.68c4.94-4.95,8.39-11.19,9.96-18.01,1.57-6.82,1.2-13.94-1.06-20.55-2.27-6.62-6.35-12.46-11.77-16.88-5.43-4.42-11.98-7.22-18.92-8.1-6.94-.88-13.99.2-20.34,3.13-6.35,2.92-11.77,7.57-15.61,13.41-3.85,5.84-5.98,12.64-6.16,19.64-.18,6.99,1.61,13.89,5.16,19.92l.3.47-2.97,15.4,15.38-2.99Z"/>
  <g class="cls-14">
    <path class="cls-11" d="M606.39,336.9c-7.06,0-14-1.86-20.13-5.38l-18.55,3.58,3.59-18.57c-3.74-6.54-5.58-14-5.3-21.53.27-7.53,2.65-14.84,6.86-21.09,4.21-6.25,10.08-11.2,16.95-14.29,6.87-3.09,14.47-4.2,21.94-3.2,7.47,1,14.51,4.07,20.33,8.86,5.82,4.79,10.18,11.11,12.59,18.25,2.41,7.14,2.78,14.81,1.06,22.15-1.72,7.34-5.45,14.05-10.78,19.38-3.75,3.75-8.2,6.73-13.1,8.76-4.9,2.03-10.15,3.08-15.45,3.08ZM586.81,328.41l.47.3c7.15,4.25,15.51,5.99,23.77,4.95s15.93-4.8,21.8-10.68c4.94-4.95,8.39-11.19,9.96-18.01,1.57-6.82,1.2-13.94-1.06-20.55-2.27-6.62-6.35-12.46-11.77-16.88-5.43-4.42-11.98-7.22-18.92-8.1-6.94-.88-13.99.2-20.34,3.13-6.35,2.92-11.77,7.57-15.61,13.41-3.85,5.84-5.98,12.64-6.16,19.64-.18,6.99,1.61,13.89,5.16,19.92l.3.47-2.97,15.4,15.38-2.99Z"/>
  </g>
  <path class="cls-5" d="M603.95,317.27l-21.82-23.91c-.77-.92-1.13-2.11-1.03-3.31.11-1.2.68-2.3,1.6-3.07.42-.42.92-.76,1.46-.98.55-.23,1.13-.35,1.73-.35s1.18.12,1.73.35c.55.23,1.05.56,1.46.98l15.99,17.53,37.04-34.05c.85-.84,2-1.31,3.19-1.31s2.34.47,3.19,1.31c.77.92,1.13,2.11,1.03,3.31-.11,1.2-.68,2.3-1.6,3.07l-43.98,40.43Z"/>
  <path class="cls-5" d="M750.12,460.26c25.7-25.7,25.7-67.36,0-93.05-25.7-25.7-67.36-25.7-93.06,0-25.7,25.7-25.7,67.36,0,93.05,25.7,25.7,67.36,25.7,93.06,0Z"/>
  <path class="cls-7" d="M750.12,460.26c25.7-25.7,25.7-67.36,0-93.05-25.7-25.7-67.36-25.7-93.06,0-25.7,25.7-25.7,67.36,0,93.05,25.7,25.7,67.36,25.7,93.06,0Z"/>
  <path class="cls-5" d="M628.84,413.75c-.02-14.81,4.36-29.29,12.57-41.61,8.22-12.32,19.9-21.93,33.58-27.61,13.68-5.68,28.73-7.17,43.26-4.28,14.53,2.88,27.87,10.01,38.34,20.49,10.47,10.47,17.6,23.82,20.49,38.34,2.88,14.53,1.39,29.58-4.28,43.26-5.68,13.68-15.29,25.37-27.61,33.58-12.32,8.22-26.81,12.59-41.61,12.57-19.81-.03-38.81-7.91-52.82-21.92-14.01-14.01-21.89-33.01-21.92-52.82ZM631.27,413.75c0,14.3,4.25,28.28,12.2,40.17,7.95,11.89,19.24,21.16,32.46,26.63,13.21,5.47,27.75,6.9,41.78,4.11,14.03-2.79,26.91-9.68,37.02-19.8,10.11-10.11,17-23,19.78-37.03,2.79-14.03,1.36-28.57-4.12-41.78-5.48-13.21-14.74-24.51-26.64-32.45-11.89-7.95-25.87-12.19-40.17-12.19-19.18.02-37.56,7.65-51.12,21.21-13.56,13.56-21.18,31.95-21.19,51.13Z"/>
  <g class="cls-14">
    <path class="cls-11" d="M628.84,413.75c-.02-14.81,4.36-29.29,12.57-41.61,8.22-12.32,19.9-21.93,33.58-27.61,13.68-5.68,28.73-7.17,43.26-4.28,14.53,2.88,27.87,10.01,38.34,20.49,10.47,10.47,17.6,23.82,20.49,38.34,2.88,14.53,1.39,29.58-4.28,43.26-5.68,13.68-15.29,25.37-27.61,33.58-12.32,8.22-26.81,12.59-41.61,12.57-19.81-.03-38.81-7.91-52.82-21.92-14.01-14.01-21.89-33.01-21.92-52.82ZM631.27,413.75c0,14.3,4.25,28.28,12.2,40.17,7.95,11.89,19.24,21.16,32.46,26.63,13.21,5.47,27.75,6.9,41.78,4.11,14.03-2.79,26.91-9.68,37.02-19.8,10.11-10.11,17-23,19.78-37.03,2.79-14.03,1.36-28.57-4.12-41.78-5.48-13.21-14.74-24.51-26.64-32.45-11.89-7.95-25.87-12.19-40.17-12.19-19.18.02-37.56,7.65-51.12,21.21-13.56,13.56-21.18,31.95-21.19,51.13Z"/>
  </g>
  <path class="cls-2" d="M663.21,457.31c5.48-6.44,29.23-4.29,29.23-4.29l23.22-2.23c19.04-3.94,29.03,1.32,35.12,8.57l.1.12c-11.71,12.16-27.64,19.36-44.51,20.09-16.87.73-33.37-5.05-46.09-16.15.59-2.2,1.58-4.27,2.94-6.11Z"/>
  <path class="cls-2" d="M680.42,372.43s-13.79,1.26-5.4,20.13l9.49-5.47,1.53-11.44-5.63-3.21Z"/>
  <path class="cls-6" d="M680.42,372.43s-13.79,1.26-5.4,20.13l9.49-5.47,1.53-11.44-5.63-3.21Z"/>
  <path class="cls-22" d="M718.67,450.95c-2.24,4.53-8.45,12.43-24.87,12.43-9.94,0-10.66-4.1-7.7-8.72,9.65-4.69,9.71-14.18,7.13-22.39l21.49-20.64c-1.42,10.58-2.41,28.85,3.39,38.09.24.39.43.81.57,1.24Z"/>
  <path class="cls-4" d="M705.96,420.03l-12.64,12.21c.62,2.12,1.07,4.29,1.34,6.48,5-1.02,11.25-5.67,12.9-11.32.98-3.43-.28-6.99-1.6-7.37Z"/>
  <path class="cls-22" d="M718.13,394.23c-1.12,16.09-3.13,25.6-11.34,33.72-12.33,12.31-29.99,4.71-33.66-11.34-3.31-14.57-.87-38.36,14.93-44.61,2.68-1.07,5.54-1.61,8.43-1.57,2.88.03,5.74.64,8.39,1.77,2.66,1.14,5.06,2.78,7.07,4.85,2.02,2.06,3.61,4.51,4.68,7.19,1.28,3.17,1.79,6.6,1.5,10Z"/>
  <path class="cls-2" d="M692.93,398.64c0,1.32-.71,2.36-1.57,2.36s-1.54-1.08-1.51-2.4c.02-1.32.71-2.34,1.57-2.34s1.53,1.08,1.51,2.38Z"/>
  <path class="cls-2" d="M678.12,398.51c0,1.3-.71,2.34-1.57,2.34s-1.54-1.08-1.52-2.38.71-2.36,1.57-2.36,1.54,1.08,1.52,2.4Z"/>
  <path class="cls-20" d="M683.61,399.06c-1.62,3.98-3.76,7.72-6.38,11.13.89.64,1.91,1.09,3,1.3,1.08.21,2.19.19,3.27-.06l.12-12.37Z"/>
  <path class="cls-2" d="M698.07,392.56c.13.02.26.02.39,0,.15-.13.25-.31.28-.51.03-.2-.02-.4-.13-.57-.71-1-1.64-1.81-2.73-2.38-1.09-.56-2.29-.86-3.52-.87-.18.04-.35.14-.46.29-.12.15-.17.34-.16.53.01.19.09.37.23.5.13.14.31.22.5.23.96.02,1.91.27,2.76.72s1.58,1.1,2.14,1.88c.09.08.2.14.33.17.12.03.25.03.37,0Z"/>
  <path class="cls-2" d="M672.42,392.46c.13,0,.25-.05.36-.12.1-.07.19-.17.24-.29.4-.87,1-1.63,1.76-2.23.75-.6,1.63-1.01,2.57-1.2.1-.01.2-.04.29-.09s.17-.12.23-.2c.06-.08.11-.17.13-.27.03-.1.04-.2.03-.3-.01-.1-.05-.2-.09-.29-.05-.09-.12-.17-.2-.23-.08-.06-.17-.11-.27-.14-.1-.03-.2-.04-.3-.02-1.2.22-2.34.72-3.31,1.47-.97.75-1.75,1.71-2.27,2.82-.05.09-.07.18-.08.28,0,.1,0,.2.03.29s.08.18.14.26c.06.07.14.14.23.18.15.09.34.12.51.08Z"/>
  <path class="cls-2" d="M714.77,407.27s-7.34,1.14-6.89-1.97c.46-3.11,4.27-13.69,3.45-18.26-.39-2.13-2.66-6.36-4.59-7.33-7.05-3.54-61.05,5-16.89-26.63v4.12s8.82-6.09,10.71-3.94c1.4,1.58-3.82,7.5-3.82,7.5,0,0,11.56-6.36,13.29-3.39,1.12,1.97-6.15,6.42-6.15,6.42,0,0,51.99,14.69,10.89,43.47Z"/>
  <path class="cls-2" d="M683.47,412.55s15.76-2.84,15.15,2.8c-.61,5.63-3.23,20.92-8.92,20.92-2.38,0-.97-2.21-.97-2.21-1.5,1.24-3.33,2.01-5.26,2.21-2.32,0-.24-3.35-.24-3.35,0,0-2.83,2.64-5.2,1.97-.98-.26.26-1.85-.47-4.08-1.73-5.28-4.71-14.1-3.94-16.82,1.26-3.8,9.85-1.44,9.85-1.44Z"/>
  <path class="cls-2" d="M683.47,412.55s15.76-2.84,15.15,2.8c-.61,5.63-3.23,20.92-8.92,20.92-2.38,0-.97-2.21-.97-2.21-1.5,1.24-3.33,2.01-5.26,2.21-2.32,0-.24-3.35-.24-3.35,0,0-2.83,2.64-5.2,1.97-.98-.26.26-1.85-.47-4.08-1.73-5.28-4.71-14.1-3.94-16.82,1.26-3.8,9.85-1.44,9.85-1.44Z"/>
  <path class="cls-11" d="M678.02,415.42c5.38-.2,10.77.07,16.11.79-1.77,3.01-4.69,5.32-10.69,4.65-6.01-.67-5.42-5.44-5.42-5.44Z"/>
  <path class="cls-2" d="M729.77,390.75c-1.37,3.48-3.48,6.63-6.18,9.22-4.73.54-9.51-.28-13.79-2.36.69-2.47,1.19-4.99,1.5-7.54,10.32,1.89,15.77,1.4,18.47.69Z"/>
  <path class="cls-22" d="M725.85,409.32c-2.2,3.4-5.65,5.8-9.61,6.68-5.26,1.08-7.54-3.7-5.77-8.49,1.57-4.27,6.22-10.04,11.34-9,5.12,1.04,6.7,6.6,4.04,10.81Z"/>
  <path class="cls-5" d="M763.83,359.49l5.12,4.94,7.03-1,1.24,7.01,6.28,3.33-3.13,6.38,3.13,6.4-6.28,3.33-1.24,7.01-7.03-1-5.12,4.94-5.1-4.94-7.05,1-1.22-7.01-6.28-3.33,3.13-6.4-3.13-6.38,6.28-3.33,1.22-7.01,7.05,1,5.1-4.94Z"/>
  <g class="cls-17">
    <path class="cls-11" d="M760.03,388.25l-7.32-8.04c-.26-.31-.38-.71-.34-1.11.04-.4.23-.77.54-1.03.14-.14.31-.25.49-.33.18-.08.38-.12.58-.12s.39.04.58.12c.18.08.35.19.49.33l5.37,5.91,12.43-11.42c.14-.14.31-.25.49-.33.19-.08.38-.12.58-.12s.39.04.58.12c.19.08.35.19.49.33.26.31.38.71.34,1.11-.04.4-.23.77-.54,1.03l-14.75,13.55Z"/>
  </g>
  <path class="cls-5" d="M444.77,364.03c8.35-35.37-13.56-70.81-48.92-79.15-35.37-8.35-70.81,13.56-79.15,48.92-8.35,35.37,13.56,70.81,48.92,79.15,35.37,8.35,70.81-13.56,79.15-48.92Z"/>
  <path class="cls-7" d="M444.77,364.03c8.35-35.37-13.56-70.81-48.92-79.15-35.37-8.35-70.81,13.56-79.15,48.92-8.35,35.37,13.56,70.81,48.92,79.15,35.37,8.35,70.81-13.56,79.15-48.92Z"/>
  <path class="cls-5" d="M380.75,423.68c-14.78-.02-29.22-4.42-41.5-12.64-12.28-8.22-21.84-19.9-27.48-33.56s-7.11-28.68-4.21-43.17c2.9-14.49,10.02-27.8,20.48-38.24,10.46-10.44,23.77-17.55,38.27-20.43,14.5-2.88,29.52-1.39,43.17,4.27,13.65,5.66,25.32,15.24,33.53,27.53,8.21,12.29,12.59,26.73,12.59,41.51-.03,19.83-7.92,38.84-21.95,52.85-14.03,14.01-33.05,21.88-52.88,21.88ZM380.75,276.62c-14.31,0-28.3,4.23-40.2,12.17-11.9,7.94-21.18,19.24-26.66,32.46-5.48,13.22-6.92,27.77-4.13,41.8,2.79,14.03,9.68,26.93,19.79,37.05,10.12,10.12,23.01,17.01,37.04,19.8s28.58,1.36,41.8-4.12c13.22-5.48,24.52-14.75,32.47-26.65,7.95-11.9,12.19-25.89,12.18-40.2-.02-19.17-7.64-37.55-21.2-51.11-13.55-13.56-31.93-21.19-51.1-21.21Z"/>
  <g class="cls-14">
    <path class="cls-11" d="M380.75,423.68c-14.78-.02-29.22-4.42-41.5-12.64-12.28-8.22-21.84-19.9-27.48-33.56s-7.11-28.68-4.21-43.17c2.9-14.49,10.02-27.8,20.48-38.24,10.46-10.44,23.77-17.55,38.27-20.43,14.5-2.88,29.52-1.39,43.17,4.27,13.65,5.66,25.32,15.24,33.53,27.53,8.21,12.29,12.59,26.73,12.59,41.51-.03,19.83-7.92,38.84-21.95,52.85-14.03,14.01-33.05,21.88-52.88,21.88ZM380.75,276.62c-14.31,0-28.3,4.23-40.2,12.17-11.9,7.94-21.18,19.24-26.66,32.46-5.48,13.22-6.92,27.77-4.13,41.8,2.79,14.03,9.68,26.93,19.79,37.05,10.12,10.12,23.01,17.01,37.04,19.8s28.58,1.36,41.8-4.12c13.22-5.48,24.52-14.75,32.47-26.65,7.95-11.9,12.19-25.89,12.18-40.2-.02-19.17-7.64-37.55-21.2-51.11-13.55-13.56-31.93-21.19-51.1-21.21Z"/>
  </g>
  <path class="cls-5" d="M380.75,414.73c13.55.02,26.78-4.17,37.85-11.99-2.84-8.37-6.38-18.45-8.61-23.22-5.08-10.99-10.93-14.49-54.85-14.85-20.52-.18-27.04,10.61-28.16,22.18,6.07,8.62,14.12,15.66,23.48,20.51,9.36,4.85,19.75,7.38,30.29,7.38Z"/>
  <path class="cls-8" d="M380.75,414.73c13.55.02,26.78-4.17,37.85-11.99-2.84-8.37-6.38-18.45-8.61-23.22-5.08-10.99-10.93-14.49-54.85-14.85-20.52-.18-27.04,10.61-28.16,22.18,6.07,8.62,14.12,15.66,23.48,20.51,9.36,4.85,19.75,7.38,30.29,7.38Z"/>
  <path class="cls-2" d="M402.99,302.83s11.27-1.52,7.21-8c-.1-.16-.24-.28-.41-.35-.17-.07-.36-.09-.54-.05-.18.04-.34.14-.47.28-.12.14-.2.31-.22.5-.19,1.64-.81,3.21-1.78,4.54-.98,1.34-2.28,2.4-3.79,3.08Z"/>
  <path class="cls-2" d="M364.84,285.91s-15.76,2.21-12.8-8.09c.08-.25.23-.46.44-.62.21-.16.45-.25.71-.26.26-.01.51.06.73.2.22.14.39.34.49.58.89,2.15,2.32,4.03,4.14,5.47,1.83,1.44,4,2.37,6.29,2.73Z"/>
  <path class="cls-2" d="M361.98,325.99s-5.91,14.87-13.33,7.19c-.18-.19-.3-.43-.34-.68-.04-.26,0-.52.12-.76.12-.23.3-.43.53-.55.23-.12.49-.17.75-.14,2.31.29,4.65-.03,6.8-.92,2.15-.89,4.03-2.31,5.47-4.14Z"/>
  <path class="cls-2" d="M379.3,283.04s12.39-1.58,9.28-10.79c-3.11-9.22-6.28-14.49-5.14-20.21,0,0-2.99.3-2.68,5.28,0,0-3.35-11.13-12.86-10.26-9.51.87-6.14,9.37-14.06,8.21,0,0,3.23,3.64,6.6.57,0,0-.89,6.6-9.51,2.93,1.59,1.24,2.89,2.81,3.8,4.61.92,1.8,1.43,3.77,1.49,5.79.14,11.42,0,18.47,7.88,15.76l15.2-1.89Z"/>
  <path class="cls-5" d="M362.46,289.07s-4.31-6.36,9.3-8.09c13.61-1.73,12.01,4.19,12.01,4.19l-21.31,3.9Z"/>
  <path class="cls-15" d="M360.27,332.26c1.44,10.54,2.58,25.88-5.12,32.42,9.53,6.21,17.92,14.02,24.79,23.08.24.31.54.58.89.77.34.2.72.32,1.12.37.39.05.79.02,1.17-.08s.74-.28,1.05-.53c.28-.2.51-.45.69-.75,8.92-14.06,2.7-20.95,2.7-20.95-6.79-1.52-5.91-7.56-3.51-15.54l-23.79-18.79Z"/>
  <path class="cls-4" d="M366.85,340.39l13.2,7.42,4.08,3.29c-1.3,3.3-1.89,6.84-1.75,10.38-8.63-2.5-18.51-14-15.52-21.09Z"/>
  <path class="cls-15" d="M360.63,307.58c-2.78,17.27-4.31,24.6,2.32,35.13,9.99,16.05,31.81,15.76,39.66-.41,7.03-14.48,10.54-40.27-4.71-50.81-3.33-2.34-7.21-3.79-11.26-4.2-4.05-.42-8.14.21-11.88,1.83-3.74,1.61-7,4.16-9.48,7.39-2.48,3.23-4.08,7.05-4.66,11.08Z"/>
  <path class="cls-2" d="M386.78,318.19c-.3,1.38.18,2.66,1.08,2.88.91.22,1.97-.75,2.21-2.15.24-1.4-.16-2.66-1.08-2.88-.93-.22-1.89.75-2.21,2.15Z"/>
  <path class="cls-2" d="M402.46,321.7c-.31,1.4.18,2.7,1.08,2.89.91.2,1.97-.77,2.21-2.15.24-1.38-.18-2.68-1.06-2.9-.89-.22-1.91.77-2.23,2.15Z"/>
  <path class="cls-2" d="M404.25,319.59l3.51-.22s-2.26,2.19-3.51.22Z"/>
  <path class="cls-2" d="M393.02,339.17c.69.13,1.39.22,2.09.26.11-.02.2-.09.27-.18.06-.09.09-.2.07-.31-.02-.08-.06-.16-.12-.21s-.13-.1-.21-.12c-1.78-.04-3.52-.5-5.08-1.34-1.57-.84-2.91-2.03-3.94-3.48-.02-.05-.06-.09-.1-.12-.04-.03-.09-.06-.14-.07-.05-.01-.11-.02-.16-.01-.05,0-.1.02-.15.05-.09.06-.16.15-.19.25-.03.11-.02.22.03.32.87,1.3,2,2.41,3.31,3.27,1.31.86,2.79,1.44,4.33,1.71Z"/>
  <path class="cls-2" d="M385.74,306.42c.14.11.31.16.49.16s.35-.06.49-.16c3.19-2.19,7.88-.51,7.88-.49.2.05.41.02.6-.07.18-.1.33-.26.4-.45.07-.19.07-.41,0-.6-.07-.19-.22-.35-.4-.45-.24,0-5.55-1.97-9.43.69-.18.13-.3.32-.34.54-.04.22,0,.44.13.63.05.09.11.16.2.22Z"/>
  <path class="cls-2" d="M408.94,315.5c.11.14.27.25.44.3.18.05.36.04.53-.03.17-.07.31-.19.4-.35.09-.16.13-.34.1-.52-.14-1.32-.59-2.59-1.32-3.69-.73-1.11-1.72-2.02-2.88-2.67-.2-.1-.43-.11-.64-.04-.21.07-.38.22-.48.42-.1.2-.11.43-.04.64.07.21.22.38.42.48.91.53,1.67,1.27,2.24,2.15.56.88.91,1.89,1.01,2.93.04.14.1.28.2.39Z"/>
  <path class="cls-2" d="M388.57,316.03l3.51-.2s-2.25,2.23-3.51.2Z"/>
  <path class="cls-10" d="M396.65,322.37c.61,3.7,1.74,7.29,3.37,10.67-.94.38-1.96.56-2.97.53-1.02-.03-2.02-.27-2.94-.71l2.54-10.5Z"/>
  <path class="cls-5" d="M394.62,320.89c-.14.8-.44,1.57-.88,2.25-.44.69-1.01,1.28-1.67,1.74s-1.42.79-2.21.97c-.79.17-1.61.19-2.42.05-.8-.14-1.56-.44-2.25-.88-.69-.44-1.28-1.01-1.74-1.67-.47-.67-.79-1.42-.97-2.21-.17-.79-.19-1.61-.05-2.42l12.19,2.17Z"/>
  <path class="cls-5" d="M409.72,323.53c-.14.8-.44,1.56-.88,2.25-.44.69-1.01,1.28-1.67,1.74-.67.47-1.42.8-2.21.97-.79.18-1.62.19-2.42.05-.8-.14-1.56-.44-2.25-.88-.69-.44-1.28-1.01-1.74-1.67-.47-.67-.8-1.42-.97-2.21-.18-.79-.19-1.61-.05-2.41l12.19,2.17Z"/>
  <path class="cls-2" d="M404.35,329.44c-.41.03-.81.03-1.22,0-1.67-.31-3.17-1.22-4.21-2.56-1.04-1.35-1.55-3.03-1.42-4.72l-1.71-.31c-.43,1.53-1.37,2.87-2.68,3.78-.73.52-1.57.89-2.45,1.08-.88.19-1.79.21-2.67.04-1.68-.29-3.19-1.2-4.23-2.55-1.04-1.35-1.54-3.04-1.4-4.73l-3.15-.55-19.99-2.23.16-1.32,20.01,2.23,4.47.81v.47c-.23,1.12-.11,2.28.33,3.33.4.92,1.04,1.72,1.86,2.31.82.59,1.78.94,2.79,1.02,1.41.06,2.79-.4,3.88-1.29,1.09-.89,1.81-2.16,2.03-3.55.02-.08.07-.14.13-.19.07-.04.15-.06.22-.05l3.66.65s.08.02.11.04.06.05.09.08c.02.03.04.07.05.1s.01.08,0,.12c-.26,1.5.07,3.05.92,4.32.85,1.27,2.16,2.15,3.65,2.48,1.43.18,2.88-.21,4.03-1.09,1.15-.88,1.91-2.17,2.11-3.6l1.3.24c-.15.88-.48,1.73-.97,2.49-.48.76-1.11,1.41-1.85,1.92-1.12.81-2.47,1.25-3.86,1.26Z"/>
  <path class="cls-2" d="M358.24,320.87s-15.62-34.5,16.68-37.28c4.31-.37,13.1-1.02,17.31,0,5.44,1.3,18.85,9.57,13.61,17.72,0,0-4.77-6.76-20.7-5.22-15.93,1.54-13.92,28.02-26.9,24.78Z"/>
  <path class="cls-15" d="M353.16,320.14c.26,1.66.85,3.24,1.72,4.67.88,1.43,2.02,2.67,3.38,3.66,3.64,2.6,7.03-.3,7.27-4.53.22-3.8-1.38-9.85-5.65-10.69-.94-.18-1.91-.13-2.82.16-.91.28-1.74.79-2.4,1.48-.67.68-1.15,1.52-1.41,2.44-.26.92-.29,1.89-.08,2.82Z"/>
  <path class="cls-5" d="M361.36,339.82c-1.63.25-3.29-.08-4.7-.94-1.41-.86-2.46-2.19-2.97-3.76-.51-1.57-.45-3.26.17-4.79.62-1.53,1.77-2.78,3.23-3.54l.63,1.16c-1.21.63-2.16,1.68-2.65,2.96-.5,1.27-.52,2.69-.05,3.97.46,1.29,1.38,2.36,2.57,3.03,1.2.66,2.59.87,3.93.58,1.34-.29,2.53-1.05,3.34-2.15s1.21-2.45,1.11-3.82c-.11-1.36-.7-2.64-1.68-3.6-.98-.96-2.27-1.53-3.63-1.61v-1.32c1.69.13,3.28.87,4.46,2.09,1.18,1.22,1.88,2.83,1.95,4.52.08,1.7-.47,3.36-1.53,4.68-1.07,1.32-2.58,2.21-4.25,2.49l.08.04Z"/>
  <path class="cls-5" d="M438.28,287.77l5.1,4.94,7.03-1,1.24,7.01,6.28,3.33-3.13,6.38,3.13,6.4-6.28,3.33-1.24,6.99-7.03-.98-5.1,4.94-5.12-4.94-7.03.98-1.24-6.99-6.28-3.33,3.13-6.4-3.13-6.38,6.28-3.33,1.24-7.01,7.03,1,5.12-4.94Z"/>
  <g class="cls-17">
    <path class="cls-11" d="M434.46,316.52l-7.33-8.04c-.26-.31-.38-.71-.34-1.11.04-.4.23-.77.54-1.03.14-.14.3-.25.49-.33s.38-.12.58-.12.39.04.58.12.35.19.49.33l5.38,5.91,12.43-11.42c.14-.14.31-.25.49-.33.18-.08.38-.12.58-.12s.4.04.58.12c.18.08.35.19.49.33.25.31.38.71.34,1.1-.04.4-.23.77-.54,1.02l-14.75,13.57Z"/>
  </g>
  <path class="cls-5" d="M373.66,598.03c25.7-25.7,25.7-67.36,0-93.05-25.7-25.7-67.36-25.7-93.05,0-25.7,25.7-25.7,67.36,0,93.05,25.7,25.7,67.36,25.7,93.05,0Z"/>
  <path class="cls-7" d="M373.66,598.03c25.7-25.7,25.7-67.36,0-93.05-25.7-25.7-67.36-25.7-93.05,0-25.7,25.7-25.7,67.36,0,93.05,25.7,25.7,67.36,25.7,93.05,0Z"/>
  <path class="cls-2" d="M351.9,579.06c9.39-9.99,7.33-22.98,3.58-39.17-1.97-8.35,8.78-14.36,1.28-26.63-7.01-11.82-48.23-23.22-49.24-1.97-14.49,4.18-14.87,17.19-13.45,37.95.53,7.88-1.73,11.82-4.71,14.57-1.76,1.6-3.04,3.66-3.7,5.94-.66,2.29-.67,4.71-.04,7,.63,2.29,1.89,4.36,3.64,5.98,1.74,1.62,3.9,2.72,6.23,3.18,17.94,3.37,44.63,5.69,56.4-6.85Z"/>
  <path class="cls-5" d="M337.11,584.64l-27.39-4.04c-16.09-1.7-25.6,5.14-31.22,15.22,10.18,11.18,23.9,18.51,38.85,20.76,14.95,2.25,30.22-.73,43.23-8.43-3.21-23.89-23.48-23.51-23.48-23.51Z"/>
  <path class="cls-16" d="M317,550.15c.41,9.06-.24,25.46-7.29,30.45,0,0,8.88,17.6,21.98,23.48,8.06-5.46,5.42-19.44,5.42-19.44-9.47-3.78-8.13-11.05-5.42-17.72l-14.69-16.76Z"/>
  <path class="cls-4" d="M323.07,557.02l8.7,9.95c-.67,1.53-1.21,3.12-1.62,4.74-3.66-1.08-8.21-5.91-8.04-9.96.01-1.62.34-3.22.95-4.73Z"/>
  <path class="cls-16" d="M310.31,533.53c1.18,14.87,1.36,21.19,9,28.68,11.5,11.26,29.54,6.6,32.79-8.31,2.95-13.41.55-35.45-14.12-41.14-3.22-1.24-6.71-1.64-10.13-1.16-3.42.48-6.66,1.82-9.42,3.9-2.76,2.08-4.94,4.83-6.35,7.98-1.4,3.16-1.98,6.61-1.68,10.06h-.1Z"/>
  <path class="cls-2" d="M320.57,511.32c19.3,6.34-16.68,34.27-16.27,50.61-7.76-19.18-4.86-57.55,16.27-50.61Z"/>
  <path class="cls-21" d="M342.31,537.04c1.11,2.75,2.61,5.32,4.45,7.64-.61.45-1.31.77-2.06.92-.74.16-1.51.15-2.26-.02l-.14-8.55Z"/>
  <path class="cls-2" d="M337.15,550.21c.66,0,1.32-.06,1.97-.18.09-.02.17-.07.23-.15.05-.07.08-.17.07-.26-.02-.09-.07-.17-.15-.23s-.17-.08-.26-.07c-1.48.29-3,.23-4.45-.18-1.45-.4-2.79-1.14-3.9-2.15-.07-.06-.15-.1-.25-.1s-.18.04-.25.1c-.07.07-.1.16-.1.26,0,.1.04.19.1.26,1.9,1.77,4.4,2.73,6.99,2.7Z"/>
  <path class="cls-2" d="M312.69,511.3c-5.91,10.93,11.27,4.73,25.13,9.24,12.88,4.18,19.4,12.52,17.98.41-1.73-14.95-33.74-26.86-43.11-9.65Z"/>
  <path class="cls-2" d="M328.78,531.01c.1,0,.19-.05.28-.1.08-.05.16-.12.22-.2.47-.76,1.12-1.39,1.89-1.85.77-.46,1.63-.73,2.52-.79.17-.03.32-.12.44-.25.11-.13.17-.3.17-.47s-.06-.34-.17-.47c-.11-.13-.27-.22-.44-.25-1.12.05-2.22.37-3.19.93-.98.56-1.8,1.34-2.42,2.28-.1.16-.14.35-.1.53.04.18.14.34.3.45.07.07.15.12.24.15.09.03.18.04.28.03Z"/>
  <path class="cls-2" d="M334.89,534.87c-.05,0-.11,0-.16.01-.05.02-.1.05-.14.09-.39.37-.87.64-1.38.78-.52.14-1.06.17-1.59.06-.11-.02-.22,0-.31.05-.1.06-.17.14-.2.25-.03.11-.01.22.04.32.05.1.14.17.24.21.66.14,1.34.13,2-.06.65-.18,1.25-.51,1.75-.97.04-.04.07-.09.09-.14.02-.05.03-.1.03-.16s-.01-.11-.03-.16c-.02-.05-.05-.09-.09-.13-.03-.04-.06-.07-.1-.1-.04-.03-.09-.05-.13-.06Z"/>
  <path class="cls-2" d="M348.42,534.26c-.11,0-.23.03-.32.1-.38.38-.84.65-1.36.81-.51.16-1.05.19-1.58.09-.11-.02-.22,0-.32.06-.1.06-.16.15-.19.26-.01.05-.02.11-.01.16,0,.06.02.11.05.16.03.05.06.09.11.12.04.03.09.06.15.07.66.13,1.35.1,2-.09.65-.19,1.24-.54,1.73-1.01.04-.04.07-.08.09-.13s.03-.11.03-.16-.01-.11-.03-.16-.05-.1-.09-.13c-.07-.08-.16-.13-.26-.14Z"/>
  <path class="cls-2" d="M349.62,528.71c.09,0,.19-.02.27-.07.08-.04.15-.11.2-.19.06-.07.11-.15.14-.24.03-.09.04-.18.03-.27,0-.09-.04-.18-.08-.26-.05-.08-.11-.15-.18-.21-.86-.74-1.88-1.26-2.98-1.52-1.1-.26-2.25-.25-3.34.02-.18.06-.33.19-.41.36-.09.17-.11.36-.06.55.06.18.18.32.35.41.17.09.36.1.54.05.88-.21,1.79-.21,2.66,0,.87.22,1.68.64,2.36,1.23.07.06.15.1.24.13.09.02.18.03.27.01Z"/>
  <path class="cls-5" d="M327.13,626.23c-14.78,0-29.24-4.38-41.53-12.59-12.29-8.21-21.88-19.88-27.54-33.54-5.66-13.66-7.14-28.69-4.26-43.19,2.88-14.5,10-27.82,20.46-38.27,10.45-10.45,23.77-17.57,38.27-20.46,14.5-2.88,29.53-1.4,43.19,4.26,13.66,5.66,25.33,15.24,33.54,27.54,8.21,12.29,12.59,26.75,12.59,41.53-.03,19.81-7.91,38.79-21.92,52.8-14.01,14-32.99,21.89-52.8,21.92ZM327.13,479.17c-14.31,0-28.3,4.24-40.19,12.18-11.9,7.95-21.17,19.24-26.65,32.46-5.48,13.22-6.91,27.76-4.12,41.8,2.79,14.03,9.68,26.92,19.79,37.04,10.12,10.12,23,17.01,37.04,19.8,14.03,2.79,28.58,1.36,41.8-4.11,13.22-5.48,24.52-14.75,32.47-26.64,7.95-11.9,12.19-25.88,12.19-40.19,0-19.18-7.62-37.58-21.18-51.16-13.56-13.57-31.95-21.21-51.14-21.24v.06Z"/>
  <g class="cls-14">
    <path class="cls-11" d="M327.13,626.23c-14.78,0-29.24-4.38-41.53-12.59-12.29-8.21-21.88-19.88-27.54-33.54-5.66-13.66-7.14-28.69-4.26-43.19,2.88-14.5,10-27.82,20.46-38.27,10.45-10.45,23.77-17.57,38.27-20.46,14.5-2.88,29.53-1.4,43.19,4.26,13.66,5.66,25.33,15.24,33.54,27.54,8.21,12.29,12.59,26.75,12.59,41.53-.03,19.81-7.91,38.79-21.92,52.8-14.01,14-32.99,21.89-52.8,21.92ZM327.13,479.17c-14.31,0-28.3,4.24-40.19,12.18-11.9,7.95-21.17,19.24-26.65,32.46-5.48,13.22-6.91,27.76-4.12,41.8,2.79,14.03,9.68,26.92,19.79,37.04,10.12,10.12,23,17.01,37.04,19.8,14.03,2.79,28.58,1.36,41.8-4.11,13.22-5.48,24.52-14.75,32.47-26.64,7.95-11.9,12.19-25.88,12.19-40.19,0-19.18-7.62-37.58-21.18-51.16-13.56-13.57-31.95-21.21-51.14-21.24v.06Z"/>
  </g>
  <path class="cls-16" d="M489.47,620.34l-17.23,251.57,14.1,3.56s27.12-87.23,28.2-136.28c1.08-49.05-.12-59.42,15.4-87.12l-40.47-31.73Z"/>
  <path class="cls-16" d="M538.72,623.75l19.42,251.73,14.75-.1s15.76-90.1,9.67-138.75c-6.08-48.65-14.33-58.26-2.8-88.17l-41.04-24.72Z"/>
  <path class="cls-2" d="M559.28,872.53l15.34.33c.33,0,.64.12.89.33.25.2.42.49.48.81l2.95,14.5c.07.3.07.62,0,.92-.06.31-.17.6-.34.86s-.39.48-.65.65c-.26.18-.55.3-.85.36-.17.02-.34.02-.51,0-6.4-.24-12.07-.69-20.03-.81-9.42-.18-7.05.98-18.1.95-6.66,0-7.74-7.62-4.9-7.88,12.94-1.4,16.74-5.28,21.82-9.85,1.11-.85,2.49-1.27,3.88-1.18Z"/>
  <path class="cls-2" d="M472.06,870.32l15.15,2.56c.32.04.62.2.84.44.22.24.35.55.36.88l.81,14.77c.04.63-.18,1.24-.59,1.72s-1,.76-1.63.8h-.45c-6.3-1.16-11.82-2.42-19.69-3.72-9.28-1.51-7.11,0-18.04-1.67-6.58-1.01-6.54-8.67-3.7-8.57,13.02.49,17.33-2.78,23-6.54,1.2-.68,2.6-.92,3.96-.67Z"/>
  <path class="cls-4" d="M538.72,623.75l7.29,94.53c9.85-1.26,20.87-3.06,32.99-5.46-3.37-19.81-6.13-31.21-4.61-44.09-.12-7.33.88-14.64,2.95-21.66l-38.62-23.32Z"/>
  <path class="cls-4" d="M514.95,719.38c.71-32.71,1.83-43.76,14.99-67.26l-40.47-31.72-6.66,97.01c10.64,1.54,21.39,2.2,32.14,1.97Z"/>
  <path class="cls-2" d="M494.15,540.72s-10.38,86.65-13.27,168.48c0,0,28.28,8.07,102.73-3.47-1.94-10.69-2.48-21.59-1.59-32.42,2.16-29.64,10.91-61.82,1.59-92.8-10.32-34.23-21.35-43.84-21.35-43.84l-64.64-2.9-3.47,6.93Z"/>
  <path class="cls-5" d="M516.84,424.27l53.95,1.42c.93.01,1.84.25,2.66.68s1.53,1.05,2.07,1.81c.54.76.89,1.63,1.03,2.55.13.92.05,1.86-.24,2.74-5.59,17.21-17.27,61.47-8.29,109.56h-75.57l-1.14-70.9s-5.91-15.01,18.51-44.55c.85-1.05,1.92-1.89,3.14-2.46s2.55-.86,3.89-.85Z"/>
  <path class="cls-9" d="M516.84,424.27l53.95,1.42c.93.01,1.84.25,2.66.68s1.53,1.05,2.07,1.81c.54.76.89,1.63,1.03,2.55.13.92.05,1.86-.24,2.74-5.59,17.21-17.27,61.47-8.29,109.56h-75.57l-1.14-70.9s-5.91-15.01,18.51-44.55c.85-1.05,1.92-1.89,3.14-2.46s2.55-.86,3.89-.85Z"/>
  <path class="cls-16" d="M447.44,476.93l-15.01-5.69-4.98-11.38c-.15-.35-.36-.68-.61-.97l-12.57-15.11c-.33-.39-.79-.65-1.3-.72-.51-.08-1.02.03-1.46.31-.24.16-.45.36-.61.61-.16.24-.27.51-.31.8-.05.29-.04.58.03.86.07.28.2.54.38.77l6.7,8.59-2.52,11.82c-.2.97-.18,1.97.07,2.93.25.96.72,1.84,1.37,2.59l1.14,1.3c.53.6,1.16,1.11,1.87,1.48l8.45,4.35,14.44,7.21,4.92-9.73Z"/>
  <path class="cls-5" d="M510.85,424.27s-21.66,6.97-31.04,54.59c-.14.71-.43,1.38-.85,1.97-.42.59-.95,1.09-1.57,1.46-.62.37-1.31.61-2.03.7-.72.09-1.44.03-2.13-.18l-33.03-10.36-4.33,12.09s33.03,23.46,48.47,20.03c15.44-3.43,26.51-80.29,26.51-80.29Z"/>
  <path class="cls-3" d="M483.87,462.71c-1.06,5.72-1.39,11.55-.97,17.35.72,8.21.85,16.47.41,24.7.34-.03.69-.08,1.02-.16,15.44-3.43,26.51-80.33,26.51-80.33,0,0-16.58,5.34-26.98,38.44Z"/>
  <path class="cls-2" d="M569.78,378.77c-1.37-4.81,0-9.73-3.54-14.18-1.83-2.45-2.84-5.4-2.91-8.45-.91-15.76-20.27-20.72-34.45-20.8-15.66,0-9.47,6.36-22.69,9.47-13.21,3.11-6.03,19.42-2.44,24.07,3.58,4.65.3,12.68-7.03,25.09,0,0-7.88,14.59,33.15,8.06,0,0,50.34,12.72,39.92-23.26Z"/>
  <path class="cls-16" d="M550.83,391.87c-2.68,9.32-6.01,26.55,0,33.48-7.97,5.19-16.57,9.33-25.6,12.29-9.85-9.61-4.06-13.35-4.06-13.35,10.79-1.69,11.42-10.95,10.3-18.47l19.36-13.94Z"/>
  <path class="cls-4" d="M544,401.97c.24-1.72.24-3.46,0-5.18l-12.49,9c.23,1.51.36,3.04.39,4.57,4.53-.47,11.25-3.84,12.09-8.39Z"/>
  <path class="cls-16" d="M555.87,375.15c-4.27,15.36-5.75,21.96-15.3,28.26-14.38,9.49-32.3.91-32.71-15.42-.37-14.69,6.66-37.42,23.2-40.29,3.65-.69,7.42-.44,10.94.75,3.52,1.18,6.68,3.25,9.17,6.01,2.49,2.76,4.24,6.11,5.06,9.73.82,3.62.7,7.4-.36,10.96Z"/>
  <path class="cls-16" d="M556.94,388.25c-1.48,2.7-3.98,4.7-6.93,5.57-3.94,1.1-5.91-2.38-4.85-6.11.97-3.35,4.18-7.88,8.14-7.44,1.37.22,2.61.98,3.43,2.11.82,1.13,1.16,2.54.94,3.92-.12.69-.37,1.35-.73,1.95Z"/>
  <path class="cls-2" d="M549.08,344.07c2.7,4.77-4.33,13.45-18.77,12.37-10.89-.79-24.74,10.69-23.44-1.97,1.1-11.46,28.58-16.54,42.2-10.4Z"/>
  <path class="cls-2" d="M541.12,347.42c-7.64,5.65-2.78,16.27.77,21.07,3.54,4.81,9.1,9.32,4.64,16.27-4.45,6.95-6.22,15.64,7.66,12.45,13.88-3.19,12.11-15.66,8.27-26.37-3.84-10.71-12.27-30.13-21.35-23.42Z"/>
  <path class="cls-21" d="M520.39,374.4c-1.74,2.65-3.85,5.05-6.25,7.13.54.6,1.22,1.08,1.96,1.4.75.32,1.56.47,2.37.44l1.91-8.96Z"/>
  <path class="cls-2" d="M538.48,369.42c.1.03.21.03.32,0,.14-.09.25-.22.29-.39.04-.16.02-.33-.06-.48-.57-1.04-1.37-1.93-2.36-2.59s-2.11-1.08-3.29-1.21c-.17,0-.33.06-.46.18-.12.11-.2.27-.21.44,0,.16.06.32.17.44.11.12.26.2.42.21.98.13,1.9.48,2.72,1.04.81.55,1.48,1.29,1.95,2.15.06.07.14.13.23.17.09.04.18.05.28.05Z"/>
  <path class="cls-2" d="M511.58,363.92c.1.02.21.02.31,0,.84-.48,1.79-.76,2.76-.81.97-.05,1.94.14,2.83.53.07.04.15.07.24.08.08.01.17,0,.25-.02.08-.02.16-.06.22-.11.07-.05.12-.12.16-.19.07-.15.09-.32.04-.48-.05-.16-.15-.3-.29-.38-1.08-.5-2.26-.73-3.44-.68-1.19.05-2.34.39-3.37.97-.08.04-.14.09-.2.15-.06.06-.1.13-.13.21-.03.08-.04.16-.03.25,0,.08.03.16.06.24.06.11.14.2.25.26.1.06.22.1.34.1v-.12Z"/>
  <path class="cls-2" d="M529.86,374.22c-.27,1.26-1.16,2.13-1.97,1.97-.81-.16-1.28-1.34-.98-2.62.3-1.28,1.16-2.15,1.97-1.97.81.18,1.16,1.34.98,2.62Z"/>
  <path class="cls-2" d="M515.44,371.17c-.26,1.26-1.14,2.15-1.97,1.97-.83-.18-1.28-1.34-1.02-2.62.26-1.28,1.16-2.13,1.97-1.97.81.16,1.32,1.34,1.02,2.62Z"/>
  <path class="cls-2" d="M514.79,368.71l-2.86-1.52s1.06,2.7,2.86,1.52Z"/>
  <path class="cls-2" d="M529.11,371.74l-2.86-1.52s1.06,2.7,2.86,1.52Z"/>
  <path class="cls-5" d="M551.41,422c-.79-.06-1.58.06-2.31.37-.72.3-1.37.77-1.89,1.37-4.88,5.69-18.24,24.48-18.24,59.83,0,28.2,1.63,54.85,2.78,69.99.12,1.58.58,3.11,1.35,4.49.78,1.38,1.84,2.57,3.14,3.49,1.29.92,2.76,1.54,4.32,1.82,1.56.28,3.15.22,4.68-.19l31.04-8.25s-12.25-30.82-9.42-63.55c1.97-22.79,8.47-46.42,12.23-58.67.32-1.02.4-2.11.24-3.17-.16-1.06-.56-2.07-1.16-2.96-.61-.88-1.41-1.62-2.34-2.15-.93-.53-1.97-.85-3.04-.92l-21.38-1.5Z"/>
  <path class="cls-5" d="M522.73,421.84c.27,0,.53.08.76.23.22.15.4.36.5.61.1.25.13.52.08.79-.06.26-.19.51-.38.7-5.56,5.49-17.73,21.9-19.69,61.72-1.69,34.23-3.17,58.33-3.94,70.9-.07,1.1-.41,2.16-.98,3.1-.57.94-1.36,1.73-2.31,2.29-.94.57-2.01.9-3.11.96-1.1.07-2.2-.13-3.2-.59l-2.6-1.16s3.94-18.59,2.84-59.26c-1.1-40.67-7.29-42.62,9.28-64.99,1.62-2.17,5.16-6.64,8-10.18,1.29-1.59,2.91-2.88,4.76-3.76,1.85-.89,3.87-1.35,5.91-1.36h4.08Z"/>
  <path class="cls-16" d="M551.9,425.19l-34.51-.91c-2.36,9.28-6.07,27.95-1.02,39.11,0-.04,18.87-20.97,35.53-38.21Z"/>
  <path class="cls-5" d="M538.01,533.79l23.95-3.74.98,1.97c.27.59.4,1.24.39,1.89-.02.65-.19,1.29-.5,1.86-.31.58-.75,1.07-1.28,1.44-.53.37-1.15.62-1.79.72l-15.76,2.21c-.94.13-1.9-.06-2.72-.55-.82-.49-1.44-1.24-1.77-2.13l-1.5-3.66Z"/>
  <path class="cls-4" d="M538.01,533.79l23.95-3.74.98,1.97c.27.59.4,1.24.39,1.89-.02.65-.19,1.29-.5,1.86-.31.58-.75,1.07-1.28,1.44-.53.37-1.15.62-1.79.72l-15.76,2.21c-.94.13-1.9-.06-2.72-.55-.82-.49-1.44-1.24-1.77-2.13l-1.5-3.66Z"/>
  <path class="cls-5" d="M488.97,533.79h6.05l-.49,4.04c-.09.72-.32,1.43-.69,2.05-.36.63-.85,1.18-1.44,1.62-.58.44-1.25.75-1.96.93-.71.17-1.44.2-2.16.09l-2.21-.36,2.9-8.37Z"/>
  <path class="cls-4" d="M488.97,533.79h6.05l-.49,4.04c-.09.72-.32,1.43-.69,2.05-.36.63-.85,1.18-1.44,1.62-.58.44-1.25.75-1.96.93-.71.17-1.44.2-2.16.09l-2.21-.36,2.9-8.37Z"/>
  <path class="cls-16" d="M583.31,524.57l-5.67,12.7-11.82,8.37c-.75.53-1.31,1.27-1.63,2.14-.31.86-.35,1.8-.11,2.69.17.62.46,1.2.87,1.7.41.5.92.91,1.5,1.19l6.36,3.11c.98.48,2.1.59,3.16.31,1.05-.28,1.97-.94,2.57-1.85l4.41-6.62c.71-1.08,1.2-2.29,1.44-3.56l.57-3.27,7.88-12.88-9.54-4.04Z"/>
  <path class="cls-3" d="M572.06,438.58l-5.59,2.6s-6.16,16.21,1.97,37.77c1.94-12.44,4.61-24.75,8.02-36.87l-4.39-3.51Z"/>
  <path class="cls-5" d="M538.17,443.84c9.85-3.15,16.03.81,16.03.81,3.94-11.82,1.28-17.27.61-22.39l-3.4-.24c-.79-.06-1.58.06-2.31.37-.72.3-1.37.77-1.89,1.37-4.88,5.69-18.24,24.48-18.24,59.83,0,8.96.16,17.72.43,26.09,4.87-38.52,17.31-52.92,17.31-52.92-.31-2.67-1.25-5.23-2.73-7.48-1.49-2.24-3.48-4.11-5.82-5.44Z"/>
  <path class="cls-5" d="M522.73,421.84h-3.15c-5.63,3.27-13.31,8.98-15.62,16.74,1.14-.56,2.45-.73,3.69-.47,1.25.26,2.38.93,3.2,1.91-4.33,2.21-7.92,5.63-10.34,9.85-.21,15.8.75,31.6,2.88,47.27.2-3.62.39-7.35.57-11.25,1.97-39.82,14.18-56.23,19.69-61.72.19-.19.32-.43.38-.69s.03-.53-.07-.78c-.1-.25-.26-.46-.49-.61-.22-.15-.47-.24-.74-.24Z"/>
  <path class="cls-4" d="M538.17,443.84c9.85-3.15,16.03.81,16.03.81,3.94-11.82,1.28-17.27.61-22.39l-3.4-.24c-.79-.06-1.58.06-2.31.37-.72.3-1.37.77-1.89,1.37-4.88,5.69-18.24,24.48-18.24,59.83,0,8.96.16,17.72.43,26.09,4.87-38.52,17.31-52.92,17.31-52.92-.31-2.67-1.25-5.23-2.73-7.48-1.49-2.24-3.48-4.11-5.82-5.44Z"/>
  <path class="cls-4" d="M522.73,421.84h-3.15c-5.63,3.27-13.31,8.98-15.62,16.74,1.14-.56,2.45-.73,3.69-.47,1.25.26,2.38.93,3.2,1.91-4.33,2.21-7.92,5.63-10.34,9.85-.21,15.8.75,31.6,2.88,47.27.2-3.62.39-7.35.57-11.25,1.97-39.82,14.18-56.23,19.69-61.72.19-.19.32-.43.38-.69s.03-.53-.07-.78c-.1-.25-.26-.46-.49-.61-.22-.15-.47-.24-.74-.24Z"/>
  <path class="cls-5" d="M576.6,424.96s7.28.35,20.26,28.91c12.98,28.56,18.18,48.35-6.63,81.3l-10.81-5.12s11.11-26.25,10.53-39.53c-.57-13.27-12.9-26.49-19.08-34.92-4.27-5.83-9.35-15.72,5.73-30.64Z"/>
  <path class="cls-1" d="M529.45,605.32c4.29,64.8.22,94.22-2.78,106.35,4.67-.2,9.73-.51,15.23-.95-1.44-37.55-8.92-87.36-11.82-105.4h-.63Z"/>
  <path class="cls-2" d="M522.24,390.49c-.66,0-1.32-.06-1.97-.18-.04,0-.09-.02-.13-.05-.04-.02-.07-.06-.1-.09-.02-.04-.04-.08-.05-.12,0-.04,0-.09,0-.13.02-.08.07-.16.14-.21.07-.05.16-.07.25-.07,1.44.28,2.94.22,4.36-.17,1.42-.4,2.72-1.12,3.81-2.11.03-.03.07-.06.11-.08s.09-.03.13-.03.09,0,.14.02c.04.02.08.04.12.07.04.03.07.07.08.11.02.04.03.09.04.13,0,.05,0,.09-.02.14-.02.04-.04.08-.07.12-1.86,1.74-4.32,2.69-6.86,2.66Z"/>
</svg>