<?xml version="1.0" encoding="UTF-8"?>
<svg xmlns="http://www.w3.org/2000/svg" version="1.1" viewBox="0 0 1080 1080">
  <defs>
    <style>
      .cls-1 {
        fill: #1f2f60;
      }
    </style>
  </defs>
  <!-- Generator: Adobe Illustrator 28.7.1, SVG Export Plug-In . SVG Version: 1.2.0 Build 142)  -->
  <g>
    <g id="Layer_1">
      <g>
        <path class="cls-1" d="M982.3,508.6c.2-46.5.1-93,.1-139.5,0-3,0-6.1-.1-9.1-.5-9.8-3.6-12.7-13.5-13.2-4-.2-7.9-.1-11.8-.1H122.8c-4.3,0-8.5,0-12.8.1-3.6,0-6.6,1.1-8.9,3.8v527.1c1.6,11.5,7.3,19.6,19,22.8,4.8,1.3,9.6,1.2,14.5,1.2,122.8,0,245.5,0,368.3,0,2.1,0,4.3,0,6.4-.1,10.1-.6,13-4.9,9.5-14.3-.7-2-1.7-3.9-2.6-5.8-17.3-37.8-25.6-77.7-26.3-119.2-.4-24.8,3.8-49,10-72.8,2.1-8.2,3.4-15.9-3.3-23-13.9-14.9-3.1-35,14.5-37.7,8.9-1.4,14.3-5.9,18.3-13.1,6.4-11.7,13.3-23.2,21.3-33.9,2.5-3.3,5.6-7,3.3-11.6-2.3-4.6-6.9-4.3-11.1-4.4-10-.3-20.1.5-30.1-.4-19.3-1.8-28.6-21.3-17.6-36.8,5-7,12.4-9.5,20.7-9.6,15.5-.2,31,0,46.5-.1,9.3-.1,17.3,2.5,24.1,8.9,5.2,5,10.7,5.1,16.4.8,2.4-1.8,4.9-3.5,7.4-5.3,17-12.2,34.6-23.5,53.9-32.1,29.9-13.3,61-22.1,93.6-25.4,3.1-.3,7-.9,7-4.4,0-4.2-4.2-4.6-7.5-4.8-7.9-.6-15.8,0-23.7-.4-14.2-.8-24.4-10.7-24.4-23.3,0-12.5,10.6-22.7,24.7-23.1,17-.5,34-.4,51,0,12.4.3,20.6,6.5,24.1,17.3,2.8,8.9-.7,18-9.9,25.4-2.4,1.9-5.5,3.8-4.9,7.1.8,3.9,4.7,4.2,8,4.8,11.6,2.2,23.6,2.2,35.2,4.4,44.5,8.5,85.6,24.7,122.4,51.5,5.3,3.8,10.6,11.7,18.1,7.9,7.5-3.8,4.4-12.6,4.4-19.2ZM349.6,788.2c-18.5.3-37,.3-55.5,0-15.3-.3-27-12.7-26.9-27.5.1-14.8,12.1-26.7,27.5-27,9.1-.2,18.2,0,27.3,0s18.2-.2,27.3,0c15.4.4,27.3,12.3,27.3,27.1,0,14.9-11.7,27.2-27,27.4ZM349.5,678.8c-18.5.3-37,.3-55.5,0-15.3-.3-27-12.8-26.8-27.6.2-14.5,11.8-26.4,26.6-26.9,9.4-.3,18.8,0,28.2,0,9.1,0,18.2-.2,27.3,0,15.4.4,27.2,12.3,27.3,27.2,0,14.9-11.7,27.1-27.1,27.4ZM349.4,569.4c-9.1.3-18.2,0-27.3,0s-18.2.2-27.3,0c-15.9-.3-27.9-12.5-27.6-27.8.2-14.8,12.1-26.6,27.6-26.8,18.2-.2,36.4-.3,54.6,0,15.4.2,27.2,12.4,27.2,27.3,0,14.9-11.8,26.9-27.2,27.3ZM348.9,460c-9.4.2-18.8,0-28.2,0s-17.6.2-26.4,0c-15.4-.4-27.2-12.4-27.2-27.3,0-14.8,11.9-27,27.2-27.3,18.2-.3,36.4-.2,54.6,0,15.5.2,27.4,12,27.6,26.8.2,15.2-11.8,27.4-27.6,27.8ZM567.7,460c-17.9.2-35.8.2-53.7,0-16-.2-28-12.2-27.9-27.4,0-15.2,12.2-26.9,28.2-27.2,8.8-.1,17.6,0,26.4,0s18.2-.2,27.3,0c15.5.4,27.3,12.1,27.5,27,.2,15.2-11.9,27.4-27.8,27.6Z"/>
        <path class="cls-1" d="M978.7,284.6c.1,9.2-2.2,11.5-11.4,11.5-269.3-.3-538.5-.2-807.8-.2h-58.3v-144.1c4.7-18.6,11-23.9,30.3-24,41.2-.2,82.4-.1,123.6,0,3.6,0,7.3-.3,10.7,1.5.5.2,1,.5,1.5.8.5.3.9.7,1.2,1.1.1.1.2.3.3.4.5.8.9,1.6,1.2,2.4t0,0c1.2,3.3,1.1,6.8,1.1,10.3,0,20.1,0,40.1,0,60.2,0,3,0,6.1.2,9.1,1.1,13.7,10.8,23.3,23.4,23.2,12.7-.1,22.6-9.7,23-23.5.7-22.5.1-45,.3-67.5,0-4-.4-8,1-11.8.3-.8.7-1.6,1.2-2.4,0,0,0,0,0,0,.5-.6,1-1.1,1.6-1.5.3-.2.6-.4,1-.6,2.8-1.5,5.8-1.7,8.8-1.7,30-.2,60-.2,90,0,2.7,0,5.5,0,8,1.3.6.2,1.2.6,1.8,1,.4.3.7.6,1,.9.2.2.3.4.5.6.5.8.9,1.6,1.2,2.4,0,0,0,0,0,0,1.3,3.5,1.1,7.2,1.1,10.9.1,21.8,0,43.6,0,65.5,0,8.6,2.3,16.2,9.5,21.6,7.1,5.3,14.9,6.5,23.2,2.8,9.2-4.2,13.7-11.8,14-21.7.5-22.4,0-44.9.2-67.3,0-4-.4-8,1-11.8.3-.8.7-1.6,1.2-2.4,0,0,0,0,0,0,.5-.6,1-1.1,1.6-1.6.3-.2.6-.4,1-.6,2.8-1.5,5.8-1.7,8.8-1.7,30-.2,60-.2,90,0,2.7,0,5.5,0,8,1.3.6.2,1.2.6,1.8,1,.4.3.7.6,1,.9.2.2.3.4.5.6.5.8.9,1.6,1.2,2.4,1.3,3.5,1.1,7.2,1.1,10.9.1,21.8,0,43.6,0,65.5,0,8.6,2.3,16.2,9.5,21.6,7.1,5.3,14.9,6.5,23.1,2.8,9.2-4.2,13.7-11.8,14-21.7.5-22.4,0-44.9.2-67.3,0-4-.4-8,1-11.8.3-.8.7-1.6,1.2-2.4,0,0,0,0,0,0,.5-.6,1-1.1,1.6-1.6.3-.2.6-.4,1-.6,2.8-1.5,5.8-1.7,8.8-1.7,30-.2,60-.2,90,0,2.7,0,5.5,0,8,1.3.6.2,1.2.6,1.8,1,.4.2.7.5,1,.9.2.2.3.4.5.7.5.8.9,1.6,1.2,2.4t0,0c1.3,3.4,1.1,7.2,1.1,10.9.1,21.8,0,43.7,0,65.5,0,8.3,2.2,15.7,8.8,21.1,7.2,5.8,15.3,7.2,23.9,3.3,9.2-4.2,13.7-11.9,13.9-21.7.5-22.4,0-44.9.3-67.3,0-4.1-.7-8.4,1.8-12.1.2-.3.5-.6.7-.9.4-.3.9-.6,1.3-.9h.1c44.9,0,89.9,0,134.8,0,18.2,0,29.2,11.2,29.3,29.8,0,41-.3,82.1.3,123.1Z"/>
        <path class="cls-1" d="M322,110.9c-.6,6.3-.2,12.8-.2,19.2,0,.5,0,1,0,1.5h0c-.9,1.1-1.8,1.9-2.8,2.4-1.7,1-3.7,1.4-5.9,1.5-12.4.3-24.8.3-37.2,0-2.2,0-4.2-.5-5.9-1.5t0,0c-1-.6-1.9-1.3-2.8-2.3h0c0-.6,0-1.1,0-1.7,0-6.4.4-12.9-.2-19.2-1.6-16.8,4.7-28.7,20.2-35.7h14.6c15.6,6.9,21.7,19,20.2,35.7Z"/>
        <path class="cls-1" d="M486.1,110.9c-.6,6.3-.2,12.8-.2,19.2,0,.5,0,1,0,1.6h0c0,.1.1,0,.1,0-.9,1-1.9,1.8-3,2.4-1.7,1-3.7,1.4-5.9,1.5-12.4.3-24.8.3-37.2,0-2.2,0-4.2-.5-5.9-1.5,0,0,0,0,0,0-1-.6-2-1.4-2.9-2.4h.1c0,.1,0,0,0,0,0-.5,0-1,0-1.5,0-6.4.4-12.9-.2-19.2-1.6-16.8,4.7-28.7,20.2-35.7h14.6c15.5,6.9,21.7,19,20.2,35.7Z"/>
        <path class="cls-1" d="M650.3,110.9c-.6,6.3-.2,12.8-.2,19.2,0,.5,0,1,0,1.6h0c-.8,1.1-1.8,1.9-2.8,2.4-1.7,1-3.7,1.4-5.9,1.5-12.4.3-24.8.3-37.2,0-2.2,0-4.2-.5-5.9-1.5-1-.6-1.9-1.3-2.8-2.3h0c0-.6,0-1.2,0-1.7,0-6.4.4-12.9-.2-19.2-1.6-16.8,4.7-28.7,20.2-35.7h14.6c15.6,6.9,21.7,19,20.2,35.7Z"/>
        <path class="cls-1" d="M814.4,110.9c-.6,6.9-.1,13.8-.2,20.8h0c0,.1,0,.1,0,.1-.6.7-1.3,1.3-2.1,1.8-1.9,1.3-4.1,1.9-6.6,1.9-12.4.3-24.8.3-37.2,0-2.2,0-4.2-.5-5.9-1.5t0,0c-1.1-.6-2-1.4-2.9-2.4h.1c0,.1,0,0,0,0,0-.5,0-1,0-1.5,0-6.4.4-12.9-.2-19.2-1.6-16.8,4.7-28.7,20.2-35.7h14.6c15.5,6.9,21.7,19,20.2,35.7Z"/>
        <path class="cls-1" d="M789.1,516.6c-135.6,0-246.4,110.3-246.5,245.5-.1,136.1,110.2,246.9,245.9,247,135.6,0,246.4-110.3,246.5-245.5.1-136.1-110.2-246.9-245.9-247ZM895.1,790.1c-34.3,0-68.7,0-103,0-19.6,0-30.6-11-30.7-30.3,0-17.3,0-34.6,0-52s0-35.2,0-52.9c.1-16.7,11.9-29,27.4-29,15.6,0,27.1,12.3,27.2,29.2.1,23.4.3,46.8-.1,70.2-.2,7.7,1.4,10.5,9.8,10.3,23.1-.6,46.2-.2,69.3-.2,18.2,0,30.7,11.5,30.5,27.8-.3,15.9-12.6,26.9-30.4,26.9Z"/>
        <path class="cls-1" d="M267.1,131.6c0,26.4,0,52.8,0,79.2,0,17.9,10.9,30.1,26.9,30.3,16.4.2,27.8-12.1,27.8-30.3,0-26.4,0-52.8,0-79.2h-54.8ZM318,145.9c-.2,22.5.4,45-.3,67.5-.4,13.9-10.3,23.4-23,23.5-12.6.1-22.3-9.5-23.4-23.2-.2-3-.2-6.1-.2-9.1,0-20.1,0-40.1,0-60.2,0-3.5.1-7.1-1.1-10.3,1.7,1,3.7,1.5,5.9,1.5,12.4.3,24.8.3,37.2,0,2.2,0,4.1-.5,5.9-1.5-1.4,3.8-1,7.8-1,11.8Z"/>
        <path class="cls-1" d="M431.2,131.6c0,26.4,0,52.8,0,79.2,0,17.9,10.9,30.1,26.9,30.3,16.4.2,27.8-12.1,27.8-30.3,0-26.4,0-52.8,0-79.2h-54.9ZM482.1,145.8c-.2,22.4.3,44.9-.2,67.3-.2,9.9-4.8,17.5-14,21.7-8.2,3.7-16.1,2.5-23.2-2.8-7.1-5.3-9.5-13-9.5-21.6,0-21.8,0-43.7,0-65.5,0-3.7.2-7.5-1.1-10.9,1.7,1,3.7,1.5,5.9,1.5,12.4.3,24.8.3,37.2,0,2.2,0,4.1-.5,5.9-1.5-1.4,3.8-1,7.8-1,11.8Z"/>
        <path class="cls-1" d="M595.4,131.6c0,26.4,0,52.8,0,79.2,0,17.9,10.9,30.1,26.9,30.3,16.4.2,27.8-12.1,27.8-30.3,0-26.4,0-52.8,0-79.2h-54.8ZM646.3,145.8c-.2,22.4.3,44.9-.2,67.3-.2,9.9-4.8,17.5-14,21.7-8.2,3.7-16.1,2.5-23.1-2.8-7.2-5.3-9.5-13-9.5-21.6,0-21.8,0-43.7,0-65.5,0-3.7.2-7.5-1.1-10.9,1.7,1,3.7,1.5,5.9,1.5,12.4.3,24.8.3,37.2,0,2.2,0,4.1-.5,5.9-1.5-1.4,3.8-1,7.8-1,11.8Z"/>
        <path class="cls-1" d="M759.5,131.6c0,26.4,0,52.8,0,79.2,0,17.9,10.9,30.1,26.9,30.3,16.4.2,27.8-12.1,27.8-30.3,0-26.3,0-52.7,0-79h0c0-.1-54.9-.1-54.9-.1ZM810.5,145.7c-.2,22.5.3,44.9-.3,67.3-.2,9.8-4.7,17.5-13.9,21.7-8.6,3.9-16.7,2.5-23.9-3.3-6.6-5.3-8.8-12.8-8.8-21.1,0-21.8,0-43.7,0-65.5,0-3.7.2-7.5-1.1-10.9,1.7,1,3.7,1.5,5.9,1.5,12.4.3,24.8.3,37.2,0,2.5,0,4.7-.6,6.6-1.9-2.5,3.7-1.7,8-1.8,12.1Z"/>
      </g>
    </g>
  </g>
</svg>