<?xml version="1.0" encoding="UTF-8"?>
<svg xmlns="http://www.w3.org/2000/svg" version="1.1" viewBox="0 0 1080 1080">
  <defs>
    <style>
      .cls-1 {
        fill: none;
        stroke: #fff;
        stroke-linecap: round;
        stroke-miterlimit: 10;
        stroke-width: 42px;
      }

      .cls-2 {
        fill: #1f2f60;
      }
    </style>
  </defs>
  <!-- Generator: Adobe Illustrator 28.7.1, SVG Export Plug-In . SVG Version: 1.2.0 Build 142)  -->
  <g>
    <g id="Layer_1">
      <g>
        <path class="cls-2" d="M800.7,867.6c-19.8,13.5-51.8,1.7-75.9-4.9-32.5-9.6-68.6-20-100.4-4.3-33.4,16.3-55.2,53.2-80,78.1-14.8,15.2-34.7,28.9-54.8,14-39.2-30.5-54.6-95.8-107.4-112.3-48.1-17.2-123.8,23.3-156.1.2-19.9-15.7-12.6-53.6-10.6-77,1.6-14,3.1-28.2,3.1-41.6,1.9-75-59-90.6-109.1-124.9-10.4-7.6-21.3-16.9-24.2-29.6-4.9-24.9,25.2-49.3,41.9-66.1,10-9.6,20.2-19.4,28.7-29.5,36.9-41.8,27.1-82,8.7-129.9-6.5-17.7-13.5-35.9-14.9-53.6-4.9-70.5,122.7-20.9,171.9-72.9,36-33.7,38.3-104.7,70-130.2,29.8-21.8,77.4,29.4,105.1,44.9,9.2,5.8,19,11.2,29.2,14.8,60.2,22.6,106.6-34.3,158.9-48.6,16.7-4.2,30.4,1.9,38.8,17.2,21.9,41,18.4,101.5,55,134,35.3,32.4,93.9,25.2,135.6,44,24.8,11.5,23.4,33.4,14.7,55.9-10.4,27.8-30.9,58.5-37.6,89.5-6.3,26.9.5,51.3,16.7,75,16.6,26.8,58.9,62.1,61.3,92.2,1.1,18.3-15.5,30-30,38-37.1,20.6-91.9,32.4-111.3,75.9-15.9,35-7.8,80-11.6,115.5-1.5,13.2-4.5,27.7-15.2,36.1h-.1Z"/>
        <polyline class="cls-1" points="337.5 501.8 462.1 626.4 736.2 352.4"/>
      </g>
    </g>
  </g>
</svg>