<svg width="31" height="24" viewBox="0 0 31 24" fill="none" xmlns="http://www.w3.org/2000/svg">
<path d="M18.9657 1.5H24.9657C25.7953 1.5 26.4657 2.17031 26.4657 3C26.4657 3.82969 25.7953 4.5 24.9657 4.5H19.6407C19.3969 5.70937 18.5672 6.70781 17.4657 7.18594V21H24.9657C25.7953 21 26.4657 21.6703 26.4657 22.5C26.4657 23.3297 25.7953 24 24.9657 24H15.9657H6.96566C6.13597 24 5.46566 23.3297 5.46566 22.5C5.46566 21.6703 6.13597 21 6.96566 21H14.4657V7.18594C13.3641 6.70312 12.5344 5.70469 12.2907 4.5H6.96566C6.13597 4.5 5.46566 3.82969 5.46566 3C5.46566 2.17031 6.13597 1.5 6.96566 1.5H12.9657C13.65 0.590625 14.7375 0 15.9657 0C17.1938 0 18.2813 0.590625 18.9657 1.5ZM21.5719 15H28.3594L24.9657 9.17813L21.5719 15ZM24.9657 19.5C22.0172 19.5 19.5657 17.9062 19.0594 15.8016C18.9375 15.2859 19.1063 14.7563 19.3735 14.2969L23.836 6.64688C24.0703 6.24375 24.5016 6 24.9657 6C25.4297 6 25.861 6.24844 26.0953 6.64688L30.5578 14.2969C30.825 14.7563 30.9938 15.2859 30.8719 15.8016C30.3657 17.9062 27.9141 19.5 24.9657 19.5ZM6.90941 9.17813L3.51566 15H10.3078L6.90941 9.17813ZM1.00785 15.8016C0.885972 15.2859 1.05472 14.7563 1.32191 14.2969L5.78441 6.64688C6.01878 6.24375 6.45004 6 6.9141 6C7.37816 6 7.80941 6.24844 8.04378 6.64688L12.5063 14.2969C12.7735 14.7563 12.9422 15.2859 12.8203 15.8016C12.3094 17.9062 9.85785 19.5 6.90941 19.5C3.96097 19.5 1.5141 17.9062 1.00785 15.8016Z" fill="#0066FF"/>
</svg>
