<svg width="31" height="25" viewBox="0 0 31 25" fill="none" xmlns="http://www.w3.org/2000/svg">
<path d="M15.9734 0.0355225C16.8031 0.0355225 17.4734 0.705835 17.4734 1.53552V4.53552H23.0984C24.964 4.53552 26.4734 6.0449 26.4734 7.91052V20.6605C26.4734 22.5261 24.964 24.0355 23.0984 24.0355H8.84839C6.98276 24.0355 5.47339 22.5261 5.47339 20.6605V7.91052C5.47339 6.0449 6.98276 4.53552 8.84839 4.53552H14.4734V1.53552C14.4734 0.705835 15.1437 0.0355225 15.9734 0.0355225ZM10.7234 18.0355C10.3109 18.0355 9.97339 18.373 9.97339 18.7855C9.97339 19.198 10.3109 19.5355 10.7234 19.5355H12.2234C12.6359 19.5355 12.9734 19.198 12.9734 18.7855C12.9734 18.373 12.6359 18.0355 12.2234 18.0355H10.7234ZM15.2234 18.0355C14.8109 18.0355 14.4734 18.373 14.4734 18.7855C14.4734 19.198 14.8109 19.5355 15.2234 19.5355H16.7234C17.1359 19.5355 17.4734 19.198 17.4734 18.7855C17.4734 18.373 17.1359 18.0355 16.7234 18.0355H15.2234ZM19.7234 18.0355C19.3109 18.0355 18.9734 18.373 18.9734 18.7855C18.9734 19.198 19.3109 19.5355 19.7234 19.5355H21.2234C21.6359 19.5355 21.9734 19.198 21.9734 18.7855C21.9734 18.373 21.6359 18.0355 21.2234 18.0355H19.7234ZM13.3484 12.0355C13.3484 11.5382 13.1508 11.0613 12.7992 10.7097C12.4476 10.3581 11.9707 10.1605 11.4734 10.1605C10.9761 10.1605 10.4992 10.3581 10.1476 10.7097C9.79593 11.0613 9.59839 11.5382 9.59839 12.0355C9.59839 12.5328 9.79593 13.0097 10.1476 13.3613C10.4992 13.713 10.9761 13.9105 11.4734 13.9105C11.9707 13.9105 12.4476 13.713 12.7992 13.3613C13.1508 13.0097 13.3484 12.5328 13.3484 12.0355ZM20.4734 13.9105C20.9707 13.9105 21.4476 13.713 21.7992 13.3613C22.1508 13.0097 22.3484 12.5328 22.3484 12.0355C22.3484 11.5382 22.1508 11.0613 21.7992 10.7097C21.4476 10.3581 20.9707 10.1605 20.4734 10.1605C19.9761 10.1605 19.4992 10.3581 19.1476 10.7097C18.7959 11.0613 18.5984 11.5382 18.5984 12.0355C18.5984 12.5328 18.7959 13.0097 19.1476 13.3613C19.4992 13.713 19.9761 13.9105 20.4734 13.9105ZM3.22339 10.5355H3.97339V19.5355H3.22339C1.9812 19.5355 0.973389 18.5277 0.973389 17.2855V12.7855C0.973389 11.5433 1.9812 10.5355 3.22339 10.5355ZM28.7234 10.5355C29.9656 10.5355 30.9734 11.5433 30.9734 12.7855V17.2855C30.9734 18.5277 29.9656 19.5355 28.7234 19.5355H27.9734V10.5355H28.7234Z" fill="white"/>
</svg>
