<svg width="31" height="31" viewBox="0 0 31 31" fill="none" xmlns="http://www.w3.org/2000/svg">
<g clip-path="url(#clip0_18_1691)">
<path d="M28.7 22.8H1.9C0.8 22.8 0 21.9 0 20.9V1.9C0 0.9 0.9 0 1.9 0H28.7C29.8 0 30.6 0.9 30.6 1.9V20.8C30.6 21.9 29.8 22.8 28.7 22.8Z" fill="#042b62"/>
<path d="M27.2 8.50005H10.8C10.6 8.50005 10.5 8.40005 10.5 8.20005V6.60005C10.5 6.40005 10.6 6.30005 10.8 6.30005H27.3C27.5 6.30005 27.6 6.40005 27.6 6.60005V8.20005C27.5 8.40005 27.4 8.50005 27.2 8.50005Z" fill="white"/>
<path d="M17.7 23.2H12.9V30.4C12.9 30.6 13.1 30.7999 13.3 30.7999H13.4L15.2 30.1C15.3 30.1 15.4 30.1 15.5 30.1L17.3 30.7999C17.5 30.8999 17.7 30.8 17.8 30.6V30.5V23.2H17.7Z" fill="#042b62"/>
<path d="M17.7001 23.2V30.4C17.7001 30.6 17.5 30.7999 17.3 30.7999H17.2001L16.8 30.7V23.2999H17.7001V23.2Z" fill="#042b62"/>
<path d="M21.6 20.1C21.6 20.7 20.8 21.3 20.7 21.8C20.6 22.3 20.8 23.3 20.4 23.8C20 24.3 19.1 24.3 18.6 24.7C18.1 25.1 17.8 25.9 17.2 26.1C16.6 26.3 15.9 25.7 15.3 25.7C14.7 25.7 14 26.2 13.4 26C12.8 25.8 12.5 25 12 24.6C11.5 24.2 10.6 24.2 10.2 23.7C9.8 23.2 10.1 22.3 9.9 21.7C9.7 21.1 9 20.7 9 20.1C9 19.5 9.8 19 9.9 18.4C10 17.8 9.8 16.9 10.2 16.4C10.6 15.9 11.5 15.9 12 15.5C12.5 15.1 12.8 14.3 13.4 14.1C14 13.9 14.7 14.5 15.3 14.5C15.9 14.5 16.7 14 17.2 14.1C17.7 14.2 18.1 15.2 18.6 15.5C19.1 15.8 20 15.9 20.4 16.4C20.8 16.9 20.5 17.8 20.7 18.4C20.9 19 21.6 19.4 21.6 20.1Z" fill="#EAEAEA" stroke="#939393" stroke-width="0.25"/>
<path d="M20.7 21.7999C20.5 22.3999 20.8 23.2999 20.4 23.7999C20 24.2999 19.1 24.2999 18.6 24.6999C18.1 25.0999 17.8 25.8999 17.2 26.0999C16.9 26.1999 16.5 26.0999 16.2 25.9999C16.3 25.9999 16.6999 25.3999 16.7999 25.2999C17.1999 24.7999 17.6999 24.3999 18.2999 24.0999C18.7999 23.7999 19.1999 23.1999 19.2999 22.5999C19.2999 22.1999 19.4 21.8999 19.6 21.5999C19.9 21.1999 20.2999 20.7999 20.2999 20.1999C20.2999 19.5999 19.5 18.9999 19.4 18.4999C19.3 17.9999 19.4 17.3999 19.1 16.8999C18.8 16.4999 18.5 16.1999 18.1 15.9999C17.8 15.7999 17.5 15.5999 17.2 15.3999C17.1 15.2999 16.3999 14.3999 16.2999 14.4999C16.5999 14.3999 16.9999 14.2999 17.2999 14.3999C17.8999 14.5999 18.2 15.4999 18.7 15.7999C19.2 16.0999 20.1 16.1999 20.5 16.5999C20.9 17.0999 20.5999 17.9999 20.7999 18.5999C20.9999 19.1999 21.7 19.6999 21.7 20.2999C21.7 20.8999 20.8 21.1999 20.7 21.7999Z" fill="#E2E2E2" stroke="#939393" stroke-width="0.25"/>
<path d="M19.2 20.1C19.2 22.3 17.5 24 15.3 24C13.1 24 11.4 22.3 11.4 20.1C11.4 17.9 13.1 16.2 15.3 16.2C17.5 16.1 19.2 17.9 19.2 20.1Z" fill="#042b62"/>
<path d="M19.2 20.1C19.2 22.3 17.5 24 15.3 24C14.6 24 13.9 23.8 13.3 23.5C13.7 23.6 14 23.7 14.4 23.7C16.6 23.7 18.3 22 18.3 19.8C18.3 18.4 17.6 17.1 16.4 16.4C18.1 16.8 19.2 18.3 19.2 20.1Z" fill="#042b62"/>
<path d="M27.5 4.59998C27.8 4.59998 28 4.39998 28 4.09998C28 3.79998 27.8 3.59998 27.5 3.59998H24.1C23.8 3.59998 23.6 3.79998 23.6 4.09998C23.6 4.39998 23.8 4.59998 24.1 4.59998H27.5Z" fill="white"/>
<path d="M3.20005 17.5H7.60005C7.90005 17.5 8.10005 17.4 8.10005 17.1C8.10005 16.8 8.00005 16.6 7.70005 16.6H7.60005H3.20005C2.90005 16.6 2.80005 16.9 2.80005 17.1C2.80005 17.4 3.00005 17.5 3.20005 17.5Z" fill="white"/>
<path d="M3.20005 19.5H6.90005C7.20005 19.5 7.40005 19.4 7.40005 19.1C7.40005 18.8 7.30005 18.6 7.00005 18.6H6.90005H3.20005C2.90005 18.6 2.80005 18.9 2.80005 19.1C2.80005 19.3 3.00005 19.5 3.20005 19.5Z" fill="white"/>
<path d="M27.5 16.6H23C22.7 16.6 22.5 16.7 22.5 17C22.5 17.3 22.6 17.5 22.9 17.5H23H27.4C27.7 17.5 27.8 17.2 27.8 17C27.8 16.8 27.6 16.7 27.5 16.6Z" fill="white"/>
<path d="M27.5 18.6H23.8C23.5 18.6 23.3 18.7 23.3 19C23.3 19.3 23.4001 19.5 23.7001 19.5H23.8H27.5C27.8 19.5 27.9 19.2 27.9 19C27.8 18.8 27.7 18.6 27.5 18.6Z" fill="white"/>
<path d="M7.60005 5.59995H7.50005H6.70005C6.70005 5.29995 6.50005 5.09995 6.40005 4.89995H7.50005H7.60005V4.79995V4.29995V4.19995H7.50005H3.50005H3.40005V4.29995V4.89995V4.99995H3.50005H4.20005C4.90005 4.99995 5.30005 5.19995 5.50005 5.49995H3.50005C3.40005 5.49995 3.40005 5.59995 3.30005 5.59995V6.09995V6.19995H3.40005H5.40005C5.40005 6.49995 5.30005 6.69995 5.10005 6.89995C4.80005 6.99995 4.40005 7.09995 4.10005 7.09995H3.50005H3.40005V7.19995V7.79995V7.89995C4.00005 8.49995 4.80005 9.49995 5.80005 10.6C5.80005 10.6 5.90005 10.6 5.90005 10.7H6.80005C6.90005 10.7 6.90005 10.7 6.90005 10.6C6.90005 10.5 6.90005 10.5 6.90005 10.4C6.10005 9.39995 5.30005 8.59995 4.80005 7.99995C5.30005 7.99995 5.70005 7.79995 6.10005 7.49995C6.40005 7.19995 6.60005 6.79995 6.70005 6.39995H7.50005H7.60005V6.29995V5.69995C7.60005 5.69995 7.60005 5.69995 7.60005 5.59995Z" fill="white"/>
<path d="M30.6 1.9V20.8C30.6 21.9 29.7 22.7 28.7 22.7H27.5C28.6 22.7 29.4 21.9 29.4 20.8V1.9C29.4 0.8 28.5 0 27.5 0H28.7C29.8 0 30.6 0.9 30.6 1.9Z" fill="#042b62"/>
</g>
<defs>
<clipPath id="clip0_18_1691">
<rect width="30.6" height="30.7" fill="white"/>
</clipPath>
</defs>
</svg>
