<?xml version="1.0" encoding="UTF-8"?>
<svg width="44px" height="44px" viewBox="0 0 44 44" version="1.1" xmlns="http://www.w3.org/2000/svg" xmlns:xlink="http://www.w3.org/1999/xlink">
    <!-- Generator: Sketch 56.3 (81716) - https://sketch.com -->
    <title>Group 10</title>
    <desc>Created with Sketch.</desc>
    <g id="New-UI" stroke="none" stroke-width="1" fill="none" fill-rule="evenodd">
        <g id="22.-Income-tax" transform="translate(-329.000000, -317.000000)">
            <g id="Group-10" transform="translate(329.000000, 317.000000)">
                <g id="Group-7-Copy">
                    <ellipse id="Oval" fill="#65D48E" opacity="0.121954055" cx="22" cy="21.986755" rx="22" ry="21.986755"></ellipse>
                    <ellipse id="Oval" fill="#65D48E" opacity="0.225678943" cx="21.8263158" cy="21.8131753" rx="18.5263158" ry="18.5151621"></ellipse>
                    <g id="Group-11" transform="translate(6.947368, 7.576786)">
                        <ellipse id="Oval" fill="#47A395" opacity="0.52" cx="1.15789474" cy="15.4514465" rx="1.15789474" ry="1.15719763"></ellipse>
                        <ellipse id="Oval-Copy-10" fill="#47A395" opacity="0.52" cx="7.56" cy="1.8794702" rx="1" ry="1"></ellipse>
                        <ellipse id="Oval-Copy-2" fill="#47A395" opacity="0.523809524" cx="24.3157895" cy="1.73865458" rx="1.15789474" ry="1.15719763"></ellipse>
                        <ellipse id="Oval-Copy-36" fill="#A772BB" opacity="0.287252604" cx="25.1726316" cy="28.4814918" rx="1" ry="1"></ellipse>
                    </g>
                </g>
                <path d="M26.7440553,24.7273684 C26.3103203,24.4610526 25.8283926,24.2673684 25.2741757,24.1947368 L23.9970673,24.0010526 L23.6115251,22.8631579 C23.7079107,22.8147368 23.8042962,22.7421053 23.8765854,22.6936842 C25.1295974,22.5 26.5271878,22.2336842 27.3223685,21.7736842 C27.4669468,21.6768421 27.5151396,21.4831579 27.4187541,21.3136842 C27.0332119,20.6115789 26.6958625,19.5705263 26.5030914,18.8442105 C26.6235733,18.5536842 26.7199589,18.2389474 26.7199589,17.8031579 C26.7199589,16.9073684 26.5753806,16.3747368 26.2862239,16.1084211 C26.2139348,16.0357895 26.1416456,15.9873684 26.0693565,15.9389474 C25.852489,13.1547368 23.6597179,11 20.9368263,11 C18.2380312,11 16.0211637,13.1547368 15.7801998,15.9389474 C15.7079107,15.9873684 15.6356215,16.0115789 15.5874288,16.0842105 C15.2741757,16.3747368 15.1295974,16.9073684 15.1295974,17.8031579 C15.1295974,18.2389474 15.2018866,18.5778947 15.3223685,18.8442105 C15.1295974,19.5705263 14.792248,20.6115789 14.4067059,21.3136842 C14.3103203,21.4831579 14.3344167,21.6768421 14.5030914,21.7736842 C15.3223685,22.2578947 16.6958625,22.5242105 17.9488745,22.6936842 C18.0452601,22.7421053 18.1175492,22.8147368 18.1898384,22.8631579 L17.8042962,24.0010526 L16.5271878,24.1947368 C15.0814047,24.3884211 13.9247782,25.4294737 13.5633324,26.8336842 L13.0332119,28.8915789 C12.9609227,29.1336842 13.0091155,29.3515789 13.1536938,29.5210526 C13.2982721,29.6905263 13.4910432,29.7873684 13.7320071,29.7873684 L23.4187541,29.7873684 C23.3946577,29.7389474 23.3946577,29.6663158 23.3946577,29.5936842 C23.3946577,27.3663158 24.792248,25.4778947 26.7440553,24.7273684 Z M16.8404408,19.28 C16.792248,19.1105263 16.6717661,18.9894737 16.5271878,18.9410526 C16.4548986,18.9410526 15.9488745,18.7715789 15.9488745,17.7547368 C15.9488745,16.9073684 16.0934529,16.6894737 16.165742,16.6168421 C16.1898384,16.6168421 16.2139348,16.6168421 16.2380312,16.6168421 C16.3826095,16.9073684 16.6235733,17.3915789 16.6958625,17.9 C17.4910432,16.7378947 17.5633324,15.5515789 17.6838143,14.5831579 L17.9729709,15.3336842 C18.0452601,15.4547368 18.165742,15.5515789 18.2862239,15.5515789 L23.4669468,15.5515789 C23.6115251,15.5515789 23.7320071,15.4547368 23.7801998,15.3336842 L24.0693565,14.5589474 C24.1898384,15.5273684 24.2621276,16.7136842 25.0573083,17.8757895 C25.1295974,17.3673684 25.3464649,16.9073684 25.4910432,16.5926316 C25.539236,16.5926316 25.5633324,16.5926316 25.5874288,16.6410526 C25.6356215,16.6894737 25.7801998,16.8831579 25.7801998,17.7547368 C25.7801998,18.7473684 25.2500794,18.9168421 25.2018866,18.9410526 C25.0332119,18.9894737 24.91273,19.1105263 24.8886336,19.28 C24.5030914,21.3621053 22.792248,22.8873684 20.8163444,22.8873684 C18.9368263,22.8873684 17.225983,21.3621053 16.8404408,19.28 Z M18.5271878,24.4368421 L18.91273,23.2747368 C19.5151396,23.5652632 20.1898384,23.7347368 20.8886336,23.7347368 C21.5633324,23.7347368 22.2380312,23.5652632 22.8404408,23.2989474 L23.225983,24.4368421 C21.852489,25.4536842 19.9488745,25.4536842 18.5271878,24.4368421 Z" id="Shape" fill="#005263" fill-rule="nonzero"></path>
                <ellipse id="Oval" fill="#005263" fill-rule="nonzero" cx="19.3705613" cy="17.4157895" rx="1" ry="1"></ellipse>
                <ellipse id="Oval" fill="#005263" fill-rule="nonzero" cx="22.4308023" cy="17.4157895" rx="1" ry="1"></ellipse>
                <path d="M23.0573083,19.6673684 C23.0814047,19.5463158 23.0332119,19.4010526 22.9368263,19.3042105 C22.8404408,19.2073684 22.7199589,19.1589474 22.599477,19.1589474 L19.2018866,19.1589474 C19.0814047,19.1589474 18.9368263,19.2073684 18.8645372,19.3042105 C18.7681516,19.4010526 18.7440553,19.5221053 18.7440553,19.6673684 C18.8886336,20.7568421 19.8042962,21.58 20.8886336,21.58 C21.9729709,21.58 22.91273,20.7326316 23.0573083,19.6673684 Z M19.3464649,20.0547368 C19.2741757,19.9094737 19.225983,19.7884211 19.2018866,19.6189474 L22.5753806,19.6189474 C22.5512842,19.7642105 22.5030914,19.9094737 22.4308023,20.0547368 L19.3464649,20.0547368 Z" id="Shape" fill="#005263" fill-rule="nonzero"></path>
                <path d="M28.599477,25.2842105 C26.2380312,25.2842105 24.2862239,27.2210526 24.2862239,29.6178947 C24.2862239,31.9905263 26.2139348,33.9515789 28.599477,33.9515789 C30.9609227,33.9515789 32.91273,32.0147368 32.91273,29.6178947 C32.91273,27.2210526 30.9609227,25.2842105 28.599477,25.2842105 Z M28.9609227,31.7484211 L28.9609227,32.2810526 C28.9609227,32.3294737 28.91273,32.3778947 28.8645372,32.3778947 L28.3344167,32.3778947 C28.2862239,32.3778947 28.2380312,32.3294737 28.2380312,32.2810526 L28.2380312,31.7484211 C27.7079107,31.7242105 27.2741757,31.2884211 27.2018866,30.7557895 C27.2018866,30.7073684 27.2500794,30.6347368 27.2982721,30.6347368 L27.8283926,30.6347368 C27.8765854,30.6347368 27.9247782,30.6589474 27.9247782,30.7073684 C27.9488745,30.8768421 28.1175492,30.9978947 28.2862239,30.9978947 L28.7440553,30.9978947 C29.0091155,30.9978947 29.2741757,30.8042105 29.2982721,30.5136842 C29.3223685,30.1989474 29.0814047,29.9326316 28.7681516,29.9326316 L28.4308023,29.9326316 C27.7801998,29.9326316 27.1777902,29.4484211 27.1295974,28.7947368 C27.0573083,28.0926316 27.5633324,27.5115789 28.2139348,27.4147368 L28.2139348,26.8821053 C28.2139348,26.8336842 28.2621276,26.7852632 28.3103203,26.7852632 L28.8404408,26.7852632 C28.8886336,26.7852632 28.9368263,26.8336842 28.9368263,26.8821053 L28.9368263,27.4147368 C29.4669468,27.4389474 29.9006818,27.8747368 29.9729709,28.4073684 C29.9729709,28.4557895 29.9247782,28.5284211 29.8765854,28.5284211 L29.3464649,28.5284211 C29.2982721,28.5284211 29.2500794,28.5042105 29.2500794,28.4557895 C29.225983,28.2863158 29.0573083,28.1652632 28.8886336,28.1652632 L28.4308023,28.1652632 C28.165742,28.1652632 27.9006818,28.3589474 27.8765854,28.6494737 C27.852489,28.9642105 28.0934529,29.2305263 28.4067059,29.2305263 L28.8163444,29.2305263 C29.5633324,29.2305263 30.1416456,29.86 30.0693565,30.6347368 C29.9970673,31.2157895 29.539236,31.6515789 28.9609227,31.7484211 Z" id="Shape" fill="#005263" fill-rule="nonzero"></path>
            </g>
        </g>
    </g>
</svg>