<svg id="Layer_1" data-name="Layer 1" xmlns="http://www.w3.org/2000/svg" xmlns:xlink="http://www.w3.org/1999/xlink" viewBox="0 0 750 850"><defs><style>.cls-1{fill:none;}.cls-2{fill:#ffe5c0;opacity:0.6;}.cls-3{fill:#fed385;}.cls-4{fill:#fcd69a;}.cls-5,.cls-6{fill:#e8b769;}.cls-11,.cls-5{opacity:0.16;}.cls-7{fill:#8bc53f;}.cls-8{fill:#7aaf27;}.cls-9{fill:#f8be14;}.cls-10{fill:#d8a356;}.cls-11,.cls-12{fill:#c6cbcc;}.cls-13{fill:#dae3e5;}.cls-14{fill:#b6b7b7;}.cls-15{fill:#78def9;}.cls-16{fill:#182c3c;}.cls-17{fill:#f2ab88;}.cls-18{fill:#ffb085;}.cls-19{fill:#ff9a6c;}.cls-20{fill:#f0806d;}.cls-21{clip-path:url(#clip-path);}.cls-22{opacity:0.3;}.cls-23{fill:#1a2e35;}.cls-24{fill:#005263;}.cls-25{fill:#bc584b;}.cls-26{fill:#024149;}</style><clipPath id="clip-path"><path class="cls-1" d="M466.61,760.49l.32,41.83a4.39,4.39,0,0,0,4.33,4.35l16.14.2a4.38,4.38,0,0,0,4.43-4.41l-.24-41.76Z"/></clipPath></defs><path class="cls-2" d="M416.61,0V.09C185.76,4.56,0,193.08,0,425S185.76,845.44,416.61,849.91V850H750V0Z"/><path class="cls-3" d="M464,439.53a6.49,6.49,0,1,0,6.5,6.49A6.49,6.49,0,0,0,464,439.53Z"/><path class="cls-3" d="M645.32,591.4a6.49,6.49,0,1,0,6.49,6.49A6.49,6.49,0,0,0,645.32,591.4Z"/><path class="cls-3" d="M732.63,51a6.49,6.49,0,1,0,6.49,6.49A6.48,6.48,0,0,0,732.63,51Z"/><path class="cls-3" d="M683.34,403.81a6.49,6.49,0,1,0,6.49,6.49A6.5,6.5,0,0,0,683.34,403.81Z"/><path class="cls-3" d="M72.83,396.37a6.49,6.49,0,1,0,6.49,6.49A6.49,6.49,0,0,0,72.83,396.37Z"/><path class="cls-3" d="M468.54,110.5A6.49,6.49,0,1,0,475,117,6.49,6.49,0,0,0,468.54,110.5Z"/><path class="cls-3" d="M297.49,446,290,450.31a9,9,0,0,1-9,0L273.57,446l4.51,7.14a9,9,0,0,1,0,9.64l-4.51,7.14,7.14-4.52a9,9,0,0,1,9.63,0l7.15,4.52-4.3-7.46a9,9,0,0,1,0-9Z"/><path class="cls-3" d="M611.33,478l-7.46,4.29a9,9,0,0,1-9,0L587.41,478l4.52,7.14a9,9,0,0,1,0,9.63l-4.52,7.15,7.15-4.52a9,9,0,0,1,9.63,0l7.14,4.52L607,494.44a9,9,0,0,1,0-9Z"/><path class="cls-3" d="M256.58,93.07l-7.46,4.29a9,9,0,0,1-9,0l-7.46-4.29,4.52,7.14a9,9,0,0,1,0,9.63L232.66,117l7.14-4.52a9,9,0,0,1,9.64,0l7.14,4.52-4.3-7.47a9,9,0,0,1,0-9Z"/><path class="cls-3" d="M433.81,351.55l-7.46,4.3a9,9,0,0,1-9,0l-7.46-4.3,4.52,7.14a9,9,0,0,1,0,9.64l-4.52,7.14L417,371a9,9,0,0,1,9.64,0l7.14,4.52-4.3-7.46a9,9,0,0,1,0-9Z"/><path class="cls-3" d="M590.91,93.07l-7.47,4.29a9,9,0,0,1-9,0L567,93.07l4.51,7.14a9,9,0,0,1,0,9.63L567,117l7.14-4.52a9,9,0,0,1,9.63,0l7.15,4.52-4.3-7.47a9,9,0,0,1,0-9Z"/><path class="cls-3" d="M222.33,538.81l-4.28,2.46a5.19,5.19,0,0,1-5.17,0l-4.28-2.46,2.59,4.1a5.16,5.16,0,0,1,0,5.53l-2.59,4.1,4.1-2.6a5.21,5.21,0,0,1,5.53,0l4.1,2.6-2.47-4.29a5.17,5.17,0,0,1,0-5.16Z"/><path class="cls-3" d="M189.65,403.44l-4.28,2.46a5.17,5.17,0,0,1-5.16,0l-4.29-2.46,2.6,4.1a5.21,5.21,0,0,1,0,5.53l-2.6,4.1,4.1-2.6a5.21,5.21,0,0,1,5.53,0l4.1,2.6-2.46-4.29a5.17,5.17,0,0,1,0-5.16Z"/><path class="cls-3" d="M395.77,511.49,391.49,514a5.17,5.17,0,0,1-5.16,0L382,511.49l2.59,4.1a5.16,5.16,0,0,1,0,5.53l-2.59,4.1,4.1-2.6a5.21,5.21,0,0,1,5.53,0l4.1,2.6-2.46-4.29a5.17,5.17,0,0,1,0-5.16Z"/><path class="cls-3" d="M324.82,546.25l-4.28,2.47a5.19,5.19,0,0,1-5.17,0l-4.28-2.47,2.59,4.1a5.16,5.16,0,0,1,0,5.53l-2.59,4.1,4.1-2.59a5.16,5.16,0,0,1,5.53,0l4.1,2.59-2.46-4.28a5.19,5.19,0,0,1,0-5.17Z"/><path class="cls-3" d="M411.9,44.09l-4.28,2.47a5.19,5.19,0,0,1-5.17,0l-4.28-2.47,2.59,4.1a5.16,5.16,0,0,1,0,5.53l-2.59,4.1,4.1-2.59a5.16,5.16,0,0,1,5.53,0l4.1,2.59-2.47-4.28a5.17,5.17,0,0,1,0-5.16Z"/><path class="cls-3" d="M104.49,495.24l-4.29,2.47a5.17,5.17,0,0,1-5.16,0l-4.28-2.47,2.59,4.1a5.16,5.16,0,0,1,0,5.53L90.76,509l4.1-2.59a5.16,5.16,0,0,1,5.53,0l4.1,2.59L102,504.69a5.19,5.19,0,0,1,0-5.17Z"/><path class="cls-3" d="M515.25,580.61,511,583.08a5.19,5.19,0,0,1-5.17,0l-4.28-2.47,2.59,4.1a5.16,5.16,0,0,1,0,5.53l-2.59,4.1,4.1-2.59a5.16,5.16,0,0,1,5.53,0l4.1,2.59-2.46-4.28a5.19,5.19,0,0,1,0-5.17Z"/><path class="cls-3" d="M710.18,518.35l-4.29,2.47a5.17,5.17,0,0,1-5.16,0l-4.28-2.47,2.59,4.1a5.16,5.16,0,0,1,0,5.53l-2.59,4.1,4.1-2.59a5.16,5.16,0,0,1,5.53,0l4.1,2.59-2.47-4.28a5.17,5.17,0,0,1,0-5.16Z"/><ellipse class="cls-4" cx="456.71" cy="808.77" rx="140.91" ry="11.59"/><polygon class="cls-5" points="356.4 228.66 318.64 225.12 298.34 183.99 290.72 180.94 290.09 200.72 290.09 200.72 286.13 208.75 279.68 221.81 278.05 225.12 232.66 231.71 232.66 236.29 264.83 267.64 250.81 310.45 257.75 313.5 298.34 292.16 338.94 314.34 331.86 267.64 365.81 229.72 356.4 228.66"/><polygon class="cls-6" points="356.4 228.66 311.01 226.64 290.72 185.52 282.46 202.24 280.47 206.28 270.42 226.64 225.03 228.66 225.03 233.24 257.88 265.25 250.12 305.88 250.12 310.45 290.72 289.11 331.31 310.45 331.31 305.88 323.56 265.25 356.4 233.24 356.4 228.66"/><polygon class="cls-3" points="311.01 222.07 290.72 180.94 270.42 222.07 225.03 228.66 257.88 260.68 250.12 305.88 290.72 284.54 331.31 305.88 323.56 260.68 356.4 228.66 311.01 222.07"/><polygon class="cls-7" points="306.69 228.03 290.72 195.67 274.75 228.03 239.04 233.22 264.88 258.4 258.78 293.96 290.72 277.17 322.65 293.96 316.55 258.4 342.39 233.22 306.69 228.03"/><path class="cls-8" d="M264.88,258.4,258.78,294l31.94-16.79L322.65,294l-6.1-35.56,19.59-19.09C318.51,255.07,278.27,265.08,264.88,258.4Z"/><path class="cls-9" d="M338.64,236.87l-2.5,2.44C337,238.51,337.87,237.7,338.64,236.87Z"/><polygon class="cls-10" points="239.04 233.22 264.88 258.4 242.31 232.74 239.04 233.22"/><polygon class="cls-8" points="290.72 195.67 274.75 228.03 239.04 233.22 242.17 236.26 277.12 231.95 290.72 204.16 304.08 231.95 338.64 236.87 342.39 233.22 306.69 228.03 290.72 195.67"/><polygon class="cls-10" points="259.57 293.54 264.88 262.6 264.88 258.4 258.78 293.96 259.57 293.54"/><polygon class="cls-10" points="316.55 262.6 321.86 293.54 322.65 293.96 316.55 258.4 316.55 262.6"/><polygon class="cls-5" points="196.77 228.66 159.01 225.12 138.72 183.99 131.09 180.94 130.46 200.72 130.46 200.72 126.5 208.75 120.05 221.81 118.42 225.12 73.03 231.71 73.03 236.29 105.2 267.64 91.18 310.45 98.12 313.5 138.72 292.16 179.31 314.34 172.23 267.64 206.18 229.72 196.77 228.66"/><polygon class="cls-6" points="196.77 228.66 151.39 226.64 131.09 185.52 122.84 202.24 120.84 206.28 110.79 226.64 65.41 228.66 65.41 233.24 98.25 265.25 90.5 305.88 90.5 310.45 131.09 289.11 171.69 310.45 171.69 305.88 163.93 265.25 196.77 233.24 196.77 228.66"/><polygon class="cls-3" points="151.39 222.07 131.09 180.94 110.79 222.07 65.41 228.66 98.25 260.68 90.5 305.88 131.09 284.54 171.69 305.88 163.93 260.68 196.77 228.66 151.39 222.07"/><polygon class="cls-7" points="147.06 228.03 131.09 195.67 115.12 228.03 79.42 233.22 105.25 258.4 99.16 293.96 131.09 277.17 163.03 293.96 156.93 258.4 182.76 233.22 147.06 228.03"/><path class="cls-8" d="M105.26,258.4,99.16,294l31.93-16.79L163,294l-6.1-35.56,19.58-19.09C158.88,255.07,118.64,265.08,105.26,258.4Z"/><path class="cls-9" d="M179,236.87l-2.5,2.44C177.41,238.51,178.24,237.7,179,236.87Z"/><polygon class="cls-10" points="79.42 233.22 105.25 258.4 82.68 232.74 79.42 233.22"/><polygon class="cls-8" points="131.09 195.67 115.12 228.03 79.42 233.22 82.54 236.26 117.49 231.95 131.09 204.16 144.45 231.95 179.01 236.87 182.76 233.22 147.06 228.03 131.09 195.67"/><polygon class="cls-10" points="99.95 293.54 105.25 262.6 105.25 258.4 99.16 293.96 99.95 293.54"/><polyline class="cls-10" points="162.24 293.54 163.03 293.96 156.93 258.4 156.93 262.6"/><polygon class="cls-11" points="522.39 229.01 484.63 225.46 464.33 184.33 456.71 181.28 456.08 201.06 456.08 201.06 452.12 209.09 445.67 222.15 444.04 225.46 398.65 232.06 398.65 236.63 430.82 267.99 416.8 310.8 423.74 313.85 464.33 292.5 504.93 314.68 497.85 267.99 531.8 230.07 522.39 229.01"/><polygon class="cls-12" points="456.71 185.86 448.45 202.59 446.46 206.62 436.41 226.99 391.02 229.01 391.02 233.58 423.87 265.59 416.11 306.22 416.11 310.8 456.71 289.45 497.3 310.8 497.3 306.22 489.55 265.59 522.39 233.58 522.39 229.01 477 226.99 456.71 185.86"/><polygon class="cls-13" points="477 222.41 456.71 181.28 436.41 222.41 391.02 229.01 423.87 261.02 416.11 306.22 456.71 284.88 497.3 306.22 489.55 261.02 522.39 229.01 477 222.41"/><polygon class="cls-13" points="472.68 228.37 456.71 196.02 440.74 228.37 405.04 233.56 430.87 258.74 424.77 294.3 456.71 277.51 488.64 294.3 482.54 258.74 508.38 233.56 472.68 228.37"/><path class="cls-12" d="M430.87,258.74l-6.1,35.56,31.94-16.79,31.93,16.79-6.1-35.56,19.59-19.09C484.5,255.41,444.26,265.42,430.87,258.74Z"/><polygon class="cls-12" points="405.04 233.56 430.87 258.74 408.3 233.08 405.04 233.56"/><polygon class="cls-12" points="456.71 196.02 440.74 228.37 405.04 233.56 408.16 236.6 443.11 232.29 456.71 204.51 470.07 232.29 504.63 237.21 508.38 233.56 472.68 228.37 456.71 196.02"/><polygon class="cls-14" points="425.56 293.89 430.87 262.94 430.87 258.74 424.77 294.3 425.56 293.89"/><polygon class="cls-15" points="482.54 262.94 487.85 293.89 488.64 294.3 482.54 258.74 482.54 262.94"/><polygon class="cls-5" points="716.73 228.66 678.97 225.12 658.67 183.99 651.05 180.94 650.42 200.72 650.42 200.72 646.45 208.75 640.01 221.81 638.37 225.12 592.99 231.71 592.99 236.29 625.16 267.64 611.14 310.45 618.08 313.5 658.67 292.16 699.27 314.34 692.18 267.64 726.13 229.72 716.73 228.66"/><polygon class="cls-6" points="716.73 228.66 671.34 226.64 651.05 185.52 642.79 202.24 640.8 206.28 630.75 226.64 585.36 228.66 585.36 233.24 618.21 265.25 610.45 305.88 610.45 310.45 651.05 289.11 691.64 310.45 691.64 305.88 683.89 265.25 716.73 233.24 716.73 228.66"/><polygon class="cls-3" points="671.34 222.07 651.05 180.94 630.75 222.07 585.36 228.66 618.21 260.68 610.45 305.88 651.05 284.54 691.64 305.88 683.89 260.68 716.73 228.66 671.34 222.07"/><polygon class="cls-7" points="667.01 228.03 651.05 195.67 635.08 228.03 599.37 233.22 625.21 258.4 619.11 293.96 651.05 277.17 682.98 293.96 676.88 258.4 702.72 233.22 667.01 228.03"/><path class="cls-8" d="M625.21,258.4,619.11,294l31.94-16.79L683,294l-6.1-35.56,19.59-19.09C678.84,255.07,638.6,265.08,625.21,258.4Z"/><path class="cls-9" d="M699,236.87l-2.5,2.44C697.36,238.51,698.2,237.7,699,236.87Z"/><polygon class="cls-10" points="599.37 233.22 625.21 258.4 602.64 232.74 599.37 233.22"/><polygon class="cls-8" points="651.05 195.67 635.08 228.03 599.37 233.22 602.5 236.26 637.45 231.95 651.05 204.16 664.41 231.95 698.97 236.87 702.72 233.22 667.01 228.03 651.05 195.67"/><polygon class="cls-10" points="619.9 293.54 625.21 262.6 625.21 258.4 619.11 293.96 619.9 293.54"/><polygon class="cls-10" points="676.88 262.6 682.19 293.54 682.98 293.96 676.88 258.4 676.88 262.6"/><polygon class="cls-5" points="563.11 248 525.35 244.45 505.05 203.33 497.43 200.28 496.8 220.05 496.8 220.05 492.83 228.08 486.39 241.15 484.75 244.45 439.37 251.05 439.37 255.62 471.54 286.98 457.52 329.79 464.46 332.84 505.05 311.5 545.65 333.68 538.57 286.98 572.52 249.06 563.11 248"/><polygon class="cls-6" points="563.11 248 517.72 245.98 497.43 204.85 489.17 221.58 487.18 225.61 477.13 245.98 431.74 248 431.74 252.57 464.58 284.58 456.83 325.21 456.83 329.79 497.43 308.45 538.02 329.79 538.02 325.21 530.27 284.58 563.11 252.57 563.11 248"/><polygon class="cls-3" points="517.72 241.4 497.43 200.28 477.13 241.4 431.74 248 464.58 280.01 456.83 325.21 497.43 303.87 538.02 325.21 530.27 280.01 563.11 248 517.72 241.4"/><polygon class="cls-7" points="513.39 247.36 497.43 215.01 481.46 247.36 445.75 252.55 471.59 277.73 465.49 313.29 497.43 296.5 529.36 313.29 523.26 277.73 549.1 252.55 513.39 247.36"/><path class="cls-8" d="M471.59,277.73l-6.1,35.56,31.94-16.79,31.93,16.79-6.1-35.56,19.59-19.09C525.22,274.4,485,284.41,471.59,277.73Z"/><path class="cls-9" d="M545.35,256.21l-2.5,2.43C543.74,257.84,544.58,257,545.35,256.21Z"/><polygon class="cls-10" points="445.75 252.55 471.59 277.73 449.02 252.07 445.75 252.55"/><polygon class="cls-8" points="497.43 215.01 481.46 247.36 445.75 252.55 448.88 255.59 483.83 251.28 497.43 223.5 510.79 251.29 545.35 256.21 549.1 252.55 513.39 247.36 497.43 215.01"/><polygon class="cls-10" points="466.28 312.88 471.59 281.94 471.59 277.73 465.49 313.29 466.28 312.88"/><polygon class="cls-10" points="523.26 281.94 528.57 312.88 529.36 313.29 523.26 277.73 523.26 281.94"/><path class="cls-16" d="M466.61,760.49l.32,41.83a4.39,4.39,0,0,0,4.33,4.35l16.14.2a4.38,4.38,0,0,0,4.43-4.41l-.24-41.76Z"/><path class="cls-17" d="M435.85,781.49,421.32,781s-11.51,11.71-14.22,13.27-19.18,3.36-18.91,6.39c.52,11.89,38.72,6.57,50.09,2.55C436.76,796.85,436.91,790.43,435.85,781.49Z"/><path class="cls-16" d="M437.2,789.65c-5.76,1.44-9.52,2.67-14.17,1.51-9.11,6.3-7.85,4.07-3.5-1.44a29.91,29.91,0,0,1-4.12-2.81c-7.85,10.47-25.53,8.64-32.31,15,4.26,14.73,32.31,5.6,41.76,4.73C439.05,809.88,439.79,802.63,437.2,789.65Z"/><path d="M438.34,801.49c-20.21.9-42.33,15.11-55.21.21,3.69,15.09,32.36,5.82,41.72,5C429.45,807.15,439.21,808.93,438.34,801.49Z"/><path class="cls-18" d="M356.67,429.53l.88-3.49a12.87,12.87,0,0,0-.15-6.91L353.77,407a4.52,4.52,0,0,0-2.09-2.64c-2.75-1.58-8.21-4.64-8.68-4.26-3.34,2.78,4.13,7.68,4.13,7.68s2.88,3.21.6,5.6c-2.59,2.71-7.47-3.23-7.47-3.23s.26-.62.49-.51,2.55,2,4.7,2v-3.94L341,405a4.44,4.44,0,0,0-3.28-.58l-1.53.33a3.88,3.88,0,0,0-2.41,1.64l-1.45,2.18-.62.83a2.77,2.77,0,0,0-.3,2.79l.71,1.55-1,1.35a4.19,4.19,0,0,0-.49,3.88l7.45,10.24,11,18,11.94-12.83Z"/><path class="cls-19" d="M333.55,418.87a2.74,2.74,0,0,1-.39-.74,2.07,2.07,0,0,1,.36-1.91l.06-.07,0-.08c-.05-.09-.09-.18-.13-.27a18,18,0,0,0-1.6-2.91,20.12,20.12,0,0,0,1.33,3c.05.09.09.18.13.27l0-.16a2.14,2.14,0,0,0-.32,2.15C333.19,418.73,333.54,418.91,333.55,418.87Z"/><path class="cls-19" d="M334.46,405.51a3.47,3.47,0,0,0-.22,2.06,16,16,0,0,0,2,4.75,6.63,6.63,0,0,1,.7,1.38,3.71,3.71,0,0,1,.08,1.47,3.52,3.52,0,0,0,.27,2.2,4.3,4.3,0,0,0,1.44,1.5c0,.05-1-.1-1.73-1.34a3.8,3.8,0,0,1-.4-2.39,3.6,3.6,0,0,0-.09-1.31,7,7,0,0,0-.66-1.27,13.83,13.83,0,0,1-1.94-4.94A2.25,2.25,0,0,1,334.46,405.51Z"/><path class="cls-19" d="M340.35,410a9.68,9.68,0,0,0-.56-1.64c-.45-.84-.94-1.5-.84-1.59s.75.45,1.25,1.38S340.49,410,340.35,410Z"/><polygon class="cls-20" points="360.76 491.14 365.31 496.84 388.92 468.47 358 427.8 342.72 439.79 360.76 491.14"/><g class="cls-21"><rect x="466.82" y="801.88" width="24.93" height="6.08" transform="translate(28.13 -16.1) rotate(1.98)"/></g><g class="cls-22"><polygon points="491.32 778.08 491.53 783.16 466.58 783.61 466.42 779.78 491.32 778.08"/></g><path class="cls-18" d="M522.62,318l3.91,15.11s1.46,8.36-2.45,8.35c-3.44,0-3.77-4.48-3.77-4.48s1.71-9.15-2.79-8.64c-.62.07-2.27,6.37-3.06,9.59a4.67,4.67,0,0,0,.47,3.47l6.48,11.47A13.57,13.57,0,0,0,526.5,358l3.25,1.85.42,6.82,18.25.29-5.56-21.29-2.32-13a4.33,4.33,0,0,0-3.27-2.42l-1.71-.26-.65-1.64a2.89,2.89,0,0,0-2.32-1.79l-1.07-.14L530,322.75c-.5-1.22-4.08-9.26-5.4-9.25C524.63,313.5,521.66,314.31,522.62,318Z"/><path class="cls-19" d="M535.64,336.34a11.56,11.56,0,0,0-.34-1.66,6.3,6.3,0,0,0-2.48-3.16,17.85,17.85,0,0,1-1.37-4,5.15,5.15,0,0,1-.19-1.72s.12.65.4,1.66a23.75,23.75,0,0,0,1.39,3.82c.28.24.6.47.89.74a5.86,5.86,0,0,1,.75.85,5.48,5.48,0,0,1,.81,1.71,4.55,4.55,0,0,1,.19,1.25A1.14,1.14,0,0,1,535.64,336.34Z"/><path class="cls-19" d="M538.43,334.8a2.89,2.89,0,0,0-.27-.83,2.17,2.17,0,0,0-1.7-1.1h-.09l0-.09-.1-.29a18.79,18.79,0,0,1-1-3.3,20.05,20.05,0,0,1,1.33,3.19c0,.1.07.2.1.29l-.12-.1a2.24,2.24,0,0,1,1.84,1.32C538.59,334.43,538.47,334.82,538.43,334.8Z"/><path class="cls-18" d="M431,407.93l33.09-.43-3.69-28.18s2.26-.48,2.41-12.74.72-33.09.72-33.09h0a42.62,42.62,0,0,0-42.82,5.38l-1.81,1.4Z"/><path class="cls-18" d="M422.74,355.35c-.21-.09-8.43-2.49-8.16,5.89s8.63,6.38,8.64,6.14S422.74,355.35,422.74,355.35Z"/><path class="cls-18" d="M462.1,353.6c.21-.09,7.68-2.11,7.42,6.27s-8.63,6.39-8.64,6.15S462.1,353.6,462.1,353.6Z"/><path class="cls-23" d="M420,354.41c1.25,7,1,10.71,2.16,15.41,1.84,7.42,5.52,13.11,12.21,16.82s15.74,3.64,21.48-1.41c4-3.5,6.81-7.46,7.4-12.73s1.19-14.61,1.22-19.92c.07-9.57.71-18.72.71-18.72l-27.34-4.94-15.55,9.25Z"/><path class="cls-23" d="M421.34,366.35c-.8-7.2-1.32-15.43-2.44-23-.43-2.84-1.44-6.95-1.19-9.81s.53-5.84,1.8-8.43A11.84,11.84,0,0,1,438,321.38a8.88,8.88,0,0,1,16.18,3.74,6.16,6.16,0,0,1,10.17,6.18,6,6,0,0,1,4.07,9.22c-1.27,2-3.56,3-4.95,4.88A7,7,0,0,0,463,353"/><polyline class="cls-24" points="449.65 589.78 430.32 677.91 438.25 786.49 404.42 786.49 388.57 672.3 406.87 541.83 495.14 535.53 494.31 784.21 463.48 784.21 457.7 667.37 449.65 589.78"/><path class="cls-20" d="M526.32,398.48h-45s-6.1-3.52-9.06-2.92-5.51,3.74-5.51,3.74l5.94,49.53,14.56-10.77,54.2-5.65A17.23,17.23,0,0,0,553.88,427h0a17.23,17.23,0,0,0,4.56-13.86l-10-53.27-20.57.68L527,374.06Z"/><path class="cls-20" d="M402.57,411a27.58,27.58,0,0,0-10.86,12.61c-2.62,6.3-20.52,37.73-30,54.17A15.55,15.55,0,0,0,364,496.23h0c5.74,6,12.59,3.66,20.95.94,3.75-1.22,20.63-27.12,20.63-27.12Z"/><polygon class="cls-20" points="410.39 523.29 400.08 434.6 402.57 410.97 428.81 399.78 462.79 397.56 495.15 401.12 487.58 492.09 495.86 543.39 405.23 547.49 410.39 523.29"/><path class="cls-25" d="M431,525.88c-4.4-1.27-4.66-5.42-3-7.21s4.49-2,6.93-1.66,4.86,1.16,7.32,1c4-.27,7.42-3.08,10.21-6s5.46-6.17,9.14-7.85,8.8-1.08,10.73,2.47a7.7,7.7,0,0,1-.44,7.36,17.16,17.16,0,0,1-5.45,5.34A44.63,44.63,0,0,1,431,525.88"/><path class="cls-25" d="M484.58,400.29c0-.19,6-.26,8.54,3.25s.14,8.54-.05,8.52-.79-3.33-3.22-6.63S484.45,400.49,484.58,400.29Z"/><path class="cls-25" d="M404.89,476s-7.49-45.95-3.64-55.42C401.25,420.53,388.92,440.08,404.89,476Z"/><path class="cls-25" d="M526.32,398.48A24.88,24.88,0,0,1,543.62,413S543.85,394.54,526.32,398.48Z"/><polygon class="cls-26" points="463.48 784.21 457.7 667.37 453.89 630.7 463.48 664.73 480.23 784.21 463.48 784.21"/><polygon class="cls-26" points="388.57 672.3 426.53 786.49 404.42 786.49 388.57 672.3"/><polygon class="cls-26" points="406.04 547.75 495.12 543.42 495.1 548.7 405.58 551.03 406.04 547.75"/><polygon class="cls-25" points="527.85 360.54 548.42 359.86 549.64 366.35 527.5 366.39 527.85 360.54"/><polygon class="cls-25" points="342.72 439.79 358 427.8 361.42 432.29 344.97 446.21 342.72 439.79"/></svg>