<svg xmlns="http://www.w3.org/2000/svg" viewBox="0 0 750 850"><defs><style>.cls-1{isolation:isolate;}.cls-13,.cls-2{fill:#ffe5c0;}.cls-2{opacity:0.6;}.cls-3{fill:#8bc53f;}.cls-4{fill:#c46c1a;}.cls-5{opacity:0.3;mix-blend-mode:screen;}.cls-6{fill:#c4ae1a;}.cls-7{fill:#c4931a;}.cls-30,.cls-32,.cls-8{opacity:0.5;}.cls-9{fill:#f0806d;}.cls-10{fill:#cde0fb;}.cls-11{fill:#bae26d;}.cls-12{fill:#a9db5a;}.cls-14{fill:#edb966;}.cls-15{fill:#fc9f21;}.cls-16,.cls-33,.cls-34{fill:#fed385;}.cls-17{fill:#fcee21;}.cls-18{fill:#fccb21;}.cls-19{fill:#256d73;}.cls-20{fill:#e2ae5a;}.cls-21{fill:#fff;}.cls-22,.cls-23{fill:none;stroke:#c9e1f6;stroke-miterlimit:10;}.cls-22{stroke-width:1.9px;}.cls-23{stroke-width:1.42px;}.cls-24{fill:#005263;}.cls-25,.cls-30{fill:#024149;}.cls-26{fill:#e1e1e3;}.cls-27{fill:#8a8a91;}.cls-28{fill:#d9d8db;}.cls-29{fill:#f79e92;}.cls-30,.cls-32,.cls-33{mix-blend-mode:multiply;}.cls-31{fill:#ebf3fa;}.cls-32{fill:#a5681e;}.cls-34{mix-blend-mode:color-burn;}.cls-35{fill:#fcd69a;}</style></defs><g class="cls-1"><g id="Layer_1" data-name="Layer 1"><path class="cls-2" d="M416.61,0V.09C185.76,4.56,0,193.08,0,425S185.76,845.44,416.61,849.91V850H750V0Z"/><path class="cls-3" d="M522.5,224.92a328.52,328.52,0,0,1-99.29,121.39c-1.3,1,.35,2.88,1.65,1.91a331,331,0,0,0,100-122.45c.7-1.47-1.68-2.31-2.37-.85Z"/><path class="cls-3" d="M522.59,228.33c4.66-4.66,9.87-9,12.53-15.06s3.69-12.91,2-19.28c-6.76,3.85-11.07,11-13.68,18.31C521.8,216.85,522.59,228.33,522.59,228.33Z"/><path class="cls-3" d="M512,247a65.17,65.17,0,0,1,13-9,25.28,25.28,0,0,1,10-3c3.51-.11,7.22,1.16,9.33,4a1.68,1.68,0,0,1,.43,1.08,1.71,1.71,0,0,1-.3.74,19.78,19.78,0,0,1-12.9,8.71C526.34,250.65,512,247,512,247Z"/><path class="cls-3" d="M512,247a55.77,55.77,0,0,0-3.33-13.36,21.48,21.48,0,0,0-14.73-13.06,18.35,18.35,0,0,0,1.12,15.88C497.82,241.23,512,247,512,247Z"/><path class="cls-3" d="M498.38,269.59c2.86,1.33,4.91,3.92,7.56,5.63,5.44,3.5,12.52,2.78,18.85,1.47,3.37-.69,6.85-1.58,9.47-3.79a1.84,1.84,0,0,0,.75-1.08,1.91,1.91,0,0,0-.53-1.37,19.15,19.15,0,0,0-14.4-7.46c-14.26-.37-21.7,6.6-21.7,6.6"/><path class="cls-3" d="M498.47,270.46c-5.69-.38-12-.88-16-4.87-6.81-6.65-8.16-18.06-8.16-18.06s11,3.49,15,6.88C498.25,262.1,498.47,270.46,498.47,270.46Z"/><path class="cls-3" d="M482.66,291.22c3.1,5.4,11.11,11.55,17.13,13.14a23.9,23.9,0,0,0,18-2.49c-1.36-2.36-3.69-4-6-5.43-3.86-2.45-7.76-5.48-12.31-5.93A64.81,64.81,0,0,0,482.66,291.22Z"/><path class="cls-3" d="M477.3,296.25c-5.34-.33-10-3.73-13.88-7.41-5-4.73-8.44-13.6-7.36-16.63,8.38,1.06,17.05,5.87,20.23,13.7A20.82,20.82,0,0,1,477.3,296.25Z"/><path class="cls-3" d="M487.89,333.9a10.17,10.17,0,0,1-7.09,2.89,22,22,0,0,1-7.68-1.39,30.64,30.64,0,0,1-11.4-6.32c-3.2-3-4.3-6.38-4.36-10.75C467.21,316.5,483.24,323.23,487.89,333.9Z"/><path class="cls-3" d="M454.06,321.42c-7-.6-12.8-5.76-16.43-11.74-3-4.86-4.77-11-2.54-16.24,4.81,1.56,8.87,4.84,12.52,8.34,2.28,2.18,4.75,4.36,6,7.25C455.93,314.41,454.06,321.42,454.06,321.42Z"/><path class="cls-4" d="M603.94,661.36V675.8a2.22,2.22,0,0,1,0,.45,1.62,1.62,0,0,0,0,.19,1.4,1.4,0,0,1-.13.36s0,0,0,.07a2.8,2.8,0,0,1-.15.3,1.7,1.7,0,0,1-.15.22,1.18,1.18,0,0,1-.24.26,1.22,1.22,0,0,1-.27.24.67.67,0,0,1-.19.14l-.29.15a.34.34,0,0,1-.12.06,1.69,1.69,0,0,1-.4.12s0,0-.07,0a2.15,2.15,0,0,1-.51,0H501.49a2.24,2.24,0,0,1-.52,0s0,0-.05,0a2,2,0,0,1-.44-.12,2.93,2.93,0,0,1-.39-.21.75.75,0,0,1-.18-.13.74.74,0,0,1-.25-.22,1.52,1.52,0,0,1-.25-.26,2.79,2.79,0,0,1-.17-.25,1.2,1.2,0,0,1-.15-.3s0,0,0-.07a1.39,1.39,0,0,1-.12-.36,1.06,1.06,0,0,1,0-.19,2.22,2.22,0,0,1,0-.45V661.36a1.3,1.3,0,0,1,0-.44,2.62,2.62,0,0,1,2.59-2.19h99.82a2.64,2.64,0,0,1,2.59,2.19A2.12,2.12,0,0,1,603.94,661.36Z"/><g class="cls-5"><rect class="cls-6" x="508.03" y="658.73" width="8.87" height="19.7"/><rect class="cls-6" x="522.28" y="658.73" width="8.86" height="19.7"/><rect class="cls-6" x="572.6" y="658.73" width="22.16" height="19.7"/></g><path class="cls-7" d="M603.9,660.92h-105a2.62,2.62,0,0,1,2.59-2.19h99.82A2.64,2.64,0,0,1,603.9,660.92Z"/><path class="cls-7" d="M603.9,676.25a1.62,1.62,0,0,0,0,.19,1.4,1.4,0,0,1-.13.36s0,0,0,.07a2.8,2.8,0,0,1-.15.3,1.7,1.7,0,0,1-.15.22,1.18,1.18,0,0,1-.24.26,1.22,1.22,0,0,1-.27.24.67.67,0,0,1-.19.14l-.29.15a.34.34,0,0,1-.12.06,1.69,1.69,0,0,1-.4.12s0,0-.07,0a2.15,2.15,0,0,1-.51,0H501.49a2.24,2.24,0,0,1-.52,0s0,0-.05,0a2,2,0,0,1-.44-.12,2.93,2.93,0,0,1-.39-.21.75.75,0,0,1-.18-.13.74.74,0,0,1-.25-.22,1.52,1.52,0,0,1-.25-.26,2.79,2.79,0,0,1-.17-.25,1.2,1.2,0,0,1-.15-.3s0,0,0-.07a1.39,1.39,0,0,1-.12-.36,1.06,1.06,0,0,1,0-.19Z"/><path class="cls-4" d="M607.3,641.66v14.45a3.27,3.27,0,0,1,0,.45c0,.06,0,.13,0,.19a1.39,1.39,0,0,1-.12.36s0,0,0,.06a1.14,1.14,0,0,1-.17.33.94.94,0,0,1-.16.23l-.07.08a1.73,1.73,0,0,1-.23.24,1.14,1.14,0,0,1-.16.14l-.21.14a2.05,2.05,0,0,1-.39.2,2.13,2.13,0,0,1-.43.13h-.06a1.77,1.77,0,0,1-.52.06H504.85a1.77,1.77,0,0,1-.52-.06h0a1.65,1.65,0,0,1-.46-.14,1.93,1.93,0,0,1-.38-.19.55.55,0,0,1-.18-.13A2.32,2.32,0,0,1,503,658a1.13,1.13,0,0,1-.26-.31.79.79,0,0,1-.14-.18,1.14,1.14,0,0,1-.17-.33.09.09,0,0,1,0-.06,1.39,1.39,0,0,1-.12-.36c0-.06,0-.13-.05-.19a3.27,3.27,0,0,1,0-.45V641.66a1.68,1.68,0,0,1,0-.45,2.64,2.64,0,0,1,2.6-2.17h99.81a2.64,2.64,0,0,1,2.6,2.17A1.68,1.68,0,0,1,607.3,641.66Z"/><g class="cls-5"><rect class="cls-6" x="511.39" y="639.03" width="8.87" height="19.7"/><rect class="cls-6" x="525.64" y="639.03" width="8.86" height="19.7"/><rect class="cls-6" x="575.96" y="639.03" width="22.16" height="19.7"/></g><path class="cls-7" d="M607.26,641.21h-105a2.64,2.64,0,0,1,2.6-2.17h99.81A2.64,2.64,0,0,1,607.26,641.21Z"/><path class="cls-7" d="M607.26,656.56c0,.06,0,.13,0,.19a1.39,1.39,0,0,1-.12.36s0,0,0,.06a1.14,1.14,0,0,1-.17.33.94.94,0,0,1-.16.23l-.07.08a1.73,1.73,0,0,1-.23.24,1.14,1.14,0,0,1-.16.14l-.21.14a2.05,2.05,0,0,1-.39.2,2.13,2.13,0,0,1-.43.13h-.06a1.77,1.77,0,0,1-.52.06H504.85a1.77,1.77,0,0,1-.52-.06h0a1.65,1.65,0,0,1-.46-.14,1.93,1.93,0,0,1-.38-.19.55.55,0,0,1-.18-.13A2.32,2.32,0,0,1,503,658a1.13,1.13,0,0,1-.26-.31.79.79,0,0,1-.14-.18,1.14,1.14,0,0,1-.17-.33.09.09,0,0,1,0-.06,1.39,1.39,0,0,1-.12-.36c0-.06,0-.13-.05-.19Z"/><path class="cls-4" d="M616.48,622V636.4a2.15,2.15,0,0,1,0,.45c0,.07,0,.14,0,.2a1.55,1.55,0,0,1-.13.36s0,0,0,.07a1.59,1.59,0,0,1-.15.29,1,1,0,0,1-.17.24,3.17,3.17,0,0,1-.44.46l-.24.16a2.09,2.09,0,0,1-.29.16.22.22,0,0,1-.11.05,2,2,0,0,1-.41.13h-.07a2.1,2.1,0,0,1-.51.06H514a2.24,2.24,0,0,1-.52-.06h0a2,2,0,0,1-.43-.13,1.47,1.47,0,0,1-.39-.21l-.21-.13-.17-.14a2.5,2.5,0,0,1-.22-.24s0,0-.06-.07a1.07,1.07,0,0,1-.19-.28,1.18,1.18,0,0,1-.16-.29s0,0,0-.07a2.17,2.17,0,0,1-.12-.36,1.18,1.18,0,0,1,0-.2,2.15,2.15,0,0,1,0-.45V622a1.64,1.64,0,0,1,0-.44,2.63,2.63,0,0,1,2.59-2.18h99.82a2.64,2.64,0,0,1,2.59,2.18A2.18,2.18,0,0,1,616.48,622Z"/><g class="cls-5"><rect class="cls-6" x="520.57" y="619.33" width="8.87" height="19.7"/><rect class="cls-6" x="534.82" y="619.33" width="8.86" height="19.7"/><rect class="cls-6" x="585.14" y="619.33" width="22.16" height="19.7"/></g><path class="cls-7" d="M616.44,621.51h-105a2.63,2.63,0,0,1,2.59-2.18h99.82A2.64,2.64,0,0,1,616.44,621.51Z"/><path class="cls-7" d="M616.44,636.85c0,.07,0,.14,0,.2a1.55,1.55,0,0,1-.13.36s0,0,0,.07a1.59,1.59,0,0,1-.15.29,1,1,0,0,1-.17.24,3.17,3.17,0,0,1-.44.46l-.24.16a2.09,2.09,0,0,1-.29.16.22.22,0,0,1-.11.05,2,2,0,0,1-.41.13h-.07a2.1,2.1,0,0,1-.51.06H514a2.24,2.24,0,0,1-.52-.06h0a2,2,0,0,1-.43-.13,1.47,1.47,0,0,1-.39-.21l-.21-.13-.17-.14a2.5,2.5,0,0,1-.22-.24s0,0-.06-.07a1.07,1.07,0,0,1-.19-.28,1.18,1.18,0,0,1-.16-.29s0,0,0-.07a2.17,2.17,0,0,1-.12-.36,1.18,1.18,0,0,1,0-.2Z"/><path class="cls-4" d="M611.19,602.26V616.7a2.42,2.42,0,0,1-.16.85.11.11,0,0,1,0,.06,2,2,0,0,1-.18.4,1.26,1.26,0,0,1-.21.32,2.09,2.09,0,0,1-.29.31,1.3,1.3,0,0,1-.18.15,1.28,1.28,0,0,1-.21.14,2.42,2.42,0,0,1-.39.21,2.11,2.11,0,0,1-.43.12s0,0-.06,0a2.1,2.1,0,0,1-.51.05H508.72a2.24,2.24,0,0,1-.52-.05.1.1,0,0,1-.07,0,2,2,0,0,1-.4-.12.21.21,0,0,1-.1-.06.71.71,0,0,1-.3-.15,2.49,2.49,0,0,1-.24-.17,2.79,2.79,0,0,1-.45-.46.87.87,0,0,1-.16-.23,1.73,1.73,0,0,1-.16-.3.15.15,0,0,1,0-.07,1.9,1.9,0,0,1-.12-.36c0-.05,0-.12,0-.19a2.22,2.22,0,0,1,0-.45V602.26a2.12,2.12,0,0,1,0-.44,2.63,2.63,0,0,1,2.59-2.19h99.82a2.62,2.62,0,0,1,2.59,2.19A1.61,1.61,0,0,1,611.19,602.26Z"/><g class="cls-5"><rect class="cls-6" x="515.27" y="599.63" width="8.87" height="19.7"/><rect class="cls-6" x="529.52" y="599.63" width="8.86" height="19.7"/><rect class="cls-6" x="579.84" y="599.63" width="22.16" height="19.7"/></g><path class="cls-7" d="M611.13,601.82h-105a2.63,2.63,0,0,1,2.59-2.19h99.82A2.62,2.62,0,0,1,611.13,601.82Z"/><path class="cls-7" d="M611.13,617.15c0,.14-.06.27-.1.4a.11.11,0,0,1,0,.06,2,2,0,0,1-.18.4,1.26,1.26,0,0,1-.21.32,2.09,2.09,0,0,1-.29.31,1.3,1.3,0,0,1-.18.15,1.28,1.28,0,0,1-.21.14,2.42,2.42,0,0,1-.39.21,2.11,2.11,0,0,1-.43.12s0,0-.06,0a2.1,2.1,0,0,1-.51.05H508.72a2.24,2.24,0,0,1-.52-.05.1.1,0,0,1-.07,0,2,2,0,0,1-.4-.12.21.21,0,0,1-.1-.06.71.71,0,0,1-.3-.15,2.49,2.49,0,0,1-.24-.17,2.79,2.79,0,0,1-.45-.46.87.87,0,0,1-.16-.23,1.73,1.73,0,0,1-.16-.3.15.15,0,0,1,0-.07,1.9,1.9,0,0,1-.12-.36c0-.05,0-.12,0-.19Z"/><path class="cls-4" d="M616.48,582.56V597a2.45,2.45,0,0,1,0,.46.53.53,0,0,1,0,.12,2.16,2.16,0,0,1-.14.43,1.92,1.92,0,0,1-.18.35.81.81,0,0,1-.17.24,2.4,2.4,0,0,1-.44.46l-.24.17c-.1,0-.19.11-.29.15a.22.22,0,0,1-.11,0,2,2,0,0,1-.41.13h-.07a1.7,1.7,0,0,1-.51.06H514a1.81,1.81,0,0,1-.52-.06h0a2,2,0,0,1-.43-.13,1.79,1.79,0,0,1-.39-.2l-.21-.14-.17-.14a2.5,2.5,0,0,1-.22-.24.11.11,0,0,1-.06-.07,1.07,1.07,0,0,1-.19-.28,2,2,0,0,1-.19-.35,3.09,3.09,0,0,1-.14-.43s0-.08,0-.12a2.45,2.45,0,0,1,0-.46V582.56a1.68,1.68,0,0,1,0-.45,2.62,2.62,0,0,1,2.59-2.18h99.82a2.63,2.63,0,0,1,2.59,2.18A2.22,2.22,0,0,1,616.48,582.56Z"/><g class="cls-5"><rect class="cls-6" x="520.57" y="579.93" width="8.87" height="19.7"/><rect class="cls-6" x="534.82" y="579.93" width="8.86" height="19.7"/><rect class="cls-6" x="585.14" y="579.93" width="22.16" height="19.7"/></g><path class="cls-7" d="M616.44,582.11h-105a2.62,2.62,0,0,1,2.59-2.18h99.82A2.63,2.63,0,0,1,616.44,582.11Z"/><path class="cls-7" d="M616.44,597.46a.53.53,0,0,1,0,.12,2.16,2.16,0,0,1-.14.43,1.92,1.92,0,0,1-.18.35.81.81,0,0,1-.17.24,2.4,2.4,0,0,1-.44.46l-.24.17c-.1,0-.19.11-.29.15a.22.22,0,0,1-.11,0,2,2,0,0,1-.41.13h-.07a1.7,1.7,0,0,1-.51.06H514a1.81,1.81,0,0,1-.52-.06h0a2,2,0,0,1-.43-.13,1.79,1.79,0,0,1-.39-.2l-.21-.14-.17-.14a2.5,2.5,0,0,1-.22-.24.11.11,0,0,1-.06-.07,1.07,1.07,0,0,1-.19-.28,2,2,0,0,1-.19-.35,3.09,3.09,0,0,1-.14-.43s0-.08,0-.12Z"/><path class="cls-4" d="M611.17,562.84v14.43a2.32,2.32,0,0,1,0,.46.61.61,0,0,1,0,.13,2.16,2.16,0,0,1-.14.43,1.92,1.92,0,0,1-.18.35,1,1,0,0,1-.17.24,2.13,2.13,0,0,1-.44.46,2.5,2.5,0,0,1-.24.16l-.29.16-.11.05a2,2,0,0,1-.41.13h-.07a2.1,2.1,0,0,1-.51.06H508.72a2.24,2.24,0,0,1-.52-.06h-.05a2.13,2.13,0,0,1-.43-.13,1.47,1.47,0,0,1-.39-.21,1.28,1.28,0,0,1-.21-.14,1.15,1.15,0,0,1-.17-.14,2.39,2.39,0,0,1-.22-.23s0,0-.06-.07a1.26,1.26,0,0,1-.19-.28,2,2,0,0,1-.19-.35,2.13,2.13,0,0,1-.13-.43.61.61,0,0,1,0-.13,2.32,2.32,0,0,1,0-.46V562.84a1.64,1.64,0,0,1,0-.45,2.62,2.62,0,0,1,2.59-2.19h99.82a2.64,2.64,0,0,1,2.59,2.19A2.15,2.15,0,0,1,611.17,562.84Z"/><g class="cls-5"><rect class="cls-6" x="515.26" y="560.21" width="8.87" height="19.7"/><rect class="cls-6" x="529.51" y="560.21" width="8.86" height="19.7"/><rect class="cls-6" x="579.83" y="560.2" width="22.16" height="19.7"/></g><path class="cls-7" d="M611.13,562.39h-105a2.62,2.62,0,0,1,2.59-2.19h99.82A2.64,2.64,0,0,1,611.13,562.39Z"/><path class="cls-7" d="M611.13,577.73a.61.61,0,0,1,0,.13,2.16,2.16,0,0,1-.14.43,1.92,1.92,0,0,1-.18.35,1,1,0,0,1-.17.24,2.13,2.13,0,0,1-.44.46,2.5,2.5,0,0,1-.24.16l-.29.16-.11.05a2,2,0,0,1-.41.13h-.07a2.1,2.1,0,0,1-.51.06H508.72a2.24,2.24,0,0,1-.52-.06h-.05a2.13,2.13,0,0,1-.43-.13,1.47,1.47,0,0,1-.39-.21,1.28,1.28,0,0,1-.21-.14,1.15,1.15,0,0,1-.17-.14,2.39,2.39,0,0,1-.22-.23s0,0-.06-.07a1.26,1.26,0,0,1-.19-.28,2,2,0,0,1-.19-.35,2.13,2.13,0,0,1-.13-.43.61.61,0,0,1,0-.13Z"/><path class="cls-4" d="M607.3,543.11v14.44a3.57,3.57,0,0,1,0,.46.53.53,0,0,0,0,.12,2.83,2.83,0,0,1-.14.44c-.06.12-.11.23-.18.35a.91.91,0,0,1-.17.23,2.45,2.45,0,0,1-.45.46l-.23.17c-.1.05-.2.11-.3.15s-.06,0-.11.06a1.69,1.69,0,0,1-.4.12s0,0-.07,0a2.19,2.19,0,0,1-.52,0H504.85a2.19,2.19,0,0,1-.52,0s0,0-.06,0a2.11,2.11,0,0,1-.43-.12,2.93,2.93,0,0,1-.39-.21,1.28,1.28,0,0,1-.21-.14,1.14,1.14,0,0,1-.16-.14,1.31,1.31,0,0,1-.23-.24.13.13,0,0,1-.05-.07,1.26,1.26,0,0,1-.2-.27,1.94,1.94,0,0,1-.18-.35,2.83,2.83,0,0,1-.14-.44.53.53,0,0,0,0-.12,3.57,3.57,0,0,1,0-.46V543.11a1.6,1.6,0,0,1,0-.44,2.64,2.64,0,0,1,2.6-2.19h99.81a2.64,2.64,0,0,1,2.6,2.19A3.13,3.13,0,0,1,607.3,543.11Z"/><g class="cls-5"><rect class="cls-6" x="511.39" y="540.48" width="8.87" height="19.7"/><rect class="cls-6" x="525.63" y="540.48" width="8.86" height="19.7"/><rect class="cls-6" x="575.96" y="540.48" width="22.16" height="19.7"/></g><path class="cls-7" d="M607.26,542.67h-105a2.64,2.64,0,0,1,2.6-2.19h99.81A2.64,2.64,0,0,1,607.26,542.67Z"/><path class="cls-7" d="M607.26,558a.53.53,0,0,0,0,.12,2.83,2.83,0,0,1-.14.44c-.06.12-.11.23-.18.35a.91.91,0,0,1-.17.23,2.45,2.45,0,0,1-.45.46l-.23.17c-.1.05-.2.11-.3.15s-.06,0-.11.06a1.69,1.69,0,0,1-.4.12s0,0-.07,0a2.19,2.19,0,0,1-.52,0H504.85a2.19,2.19,0,0,1-.52,0s0,0-.06,0a2.11,2.11,0,0,1-.43-.12,2.93,2.93,0,0,1-.39-.21,1.28,1.28,0,0,1-.21-.14,1.14,1.14,0,0,1-.16-.14,1.31,1.31,0,0,1-.23-.24.13.13,0,0,1-.05-.07,1.26,1.26,0,0,1-.2-.27,1.94,1.94,0,0,1-.18-.35,2.83,2.83,0,0,1-.14-.44.53.53,0,0,0,0-.12Z"/><path class="cls-4" d="M622.27,523.39v14.44a2.45,2.45,0,0,1,0,.46.53.53,0,0,0,0,.12,2.16,2.16,0,0,1-.14.43,2.86,2.86,0,0,1-.18.35.81.81,0,0,1-.17.24,2.4,2.4,0,0,1-.44.46l-.24.17-.29.15a.22.22,0,0,1-.11,0,2,2,0,0,1-.41.13h-.07a1.74,1.74,0,0,1-.51.06H519.82a1.81,1.81,0,0,1-.52-.06h0a2,2,0,0,1-.44-.13,2.4,2.4,0,0,1-.39-.2l-.2-.14-.17-.14a1.73,1.73,0,0,1-.23-.24.13.13,0,0,1-.05-.07,1.42,1.42,0,0,1-.2-.28,1.45,1.45,0,0,1-.18-.35,3.09,3.09,0,0,1-.14-.43s0-.08,0-.12a2.49,2.49,0,0,1-.05-.46V523.39a1.35,1.35,0,0,1,.05-.45,2.61,2.61,0,0,1,2.59-2.18h99.82a2.63,2.63,0,0,1,2.59,2.18A2.22,2.22,0,0,1,622.27,523.39Z"/><g class="cls-5"><rect class="cls-6" x="526.36" y="520.76" width="8.87" height="19.7"/><rect class="cls-6" x="540.61" y="520.76" width="8.86" height="19.7"/><rect class="cls-6" x="590.93" y="520.76" width="22.16" height="19.7"/></g><path class="cls-7" d="M622.23,522.94h-105a2.61,2.61,0,0,1,2.59-2.18h99.82A2.63,2.63,0,0,1,622.23,522.94Z"/><path class="cls-7" d="M622.23,538.29a.53.53,0,0,0,0,.12,2.16,2.16,0,0,1-.14.43,2.86,2.86,0,0,1-.18.35.81.81,0,0,1-.17.24,2.4,2.4,0,0,1-.44.46l-.24.17-.29.15a.22.22,0,0,1-.11,0,2,2,0,0,1-.41.13h-.07a1.74,1.74,0,0,1-.51.06H519.82a1.81,1.81,0,0,1-.52-.06h0a2,2,0,0,1-.44-.13,2.4,2.4,0,0,1-.39-.2l-.2-.14-.17-.14a1.73,1.73,0,0,1-.23-.24.13.13,0,0,1-.05-.07,1.42,1.42,0,0,1-.2-.28,1.45,1.45,0,0,1-.18-.35,3.09,3.09,0,0,1-.14-.43s0-.08,0-.12Z"/><path class="cls-4" d="M625.58,510.47a2.22,2.22,0,0,1,0,.45l-2.87,14.15a1.62,1.62,0,0,1-.14.44,2.41,2.41,0,0,1-.39.68,1.45,1.45,0,0,1-.21.22.75.75,0,0,1-.25.22,1.85,1.85,0,0,1-.27.19l-.07,0-.3.14a2.51,2.51,0,0,1-.5.14,3,3,0,0,1-.44,0,2.48,2.48,0,0,1-.54-.06l-3.08-.62L614.2,526l-1.05-.21-5.85-1.19-3.89-.79h0l-12-2.43-8.84-1.79-31.8-6.44-8.68-1.77-5.28-1.06-8.68-1.77-6.41-1.3a3,3,0,0,1-.87-.33c-.12-.09-.25-.17-.36-.27a2.61,2.61,0,0,1-.89-2.05,1.75,1.75,0,0,1,0-.44L522.54,490a2.13,2.13,0,0,1,.13-.43,2.62,2.62,0,0,1,3-1.62l6.42,1.3,8.68,1.77,5.28,1.06,8.69,1.77,29.62,6,11,2.23,4.6.94,17.13,3.47,6.41,1.29A2.63,2.63,0,0,1,625.58,510.47Z"/><g class="cls-5"><rect class="cls-6" x="524.59" y="495.39" width="19.7" height="8.87" transform="translate(-61.59 924.32) rotate(-78.54)"/><rect class="cls-6" x="538.55" y="498.22" width="19.7" height="8.86" transform="translate(-53.17 940.27) rotate(-78.54)"/><polygon class="cls-6" points="617.07 506.51 617.07 506.53 616.63 508.66 613.58 523.69 613.55 523.85 613.15 525.83 607.3 524.64 603.41 523.85 603.38 523.85 591.42 521.42 591.86 519.29 594.91 504.25 595.34 502.12 599.94 503.06 617.07 506.51"/></g><path class="cls-7" d="M625.58,510.47l-9-1.81-21.72-4.41-10.77-2.18L554.27,496l-8.68-1.77-5.28-1.06-8.68-1.77-9-1.81a2.62,2.62,0,0,1,3-1.62l6.42,1.3,8.68,1.77,5.28,1.06,8.69,1.77,29.62,6,11,2.23,4.6.94,17.13,3.47,6.41,1.29A2.63,2.63,0,0,1,625.58,510.47Z"/><path class="cls-7" d="M622.53,525.51a2.41,2.41,0,0,1-.39.68,1.45,1.45,0,0,1-.21.22.75.75,0,0,1-.25.22,1.85,1.85,0,0,1-.27.19l-.07,0-.3.14a2.51,2.51,0,0,1-.5.14,3,3,0,0,1-.44,0,2.48,2.48,0,0,1-.54-.06l-3.08-.62L614.2,526l-1.05-.21-5.85-1.19-3.89-.79h0l-12-2.43-8.84-1.79-31.8-6.44-8.68-1.77-5.28-1.06-8.68-1.77-6.41-1.3a3,3,0,0,1-.87-.33c-.12-.09-.25-.17-.36-.27a2.61,2.61,0,0,1-.89-2.05l9,1.82,8.68,1.77,5.28,1.06,8.68,1.76,31.57,6.4,9.07,1.84,21.72,4.4Z"/><g class="cls-8"><path class="cls-9" d="M634.12,267.34l22.27,85.22a7.08,7.08,0,0,1-5,8.62L501.85,400.26a7.08,7.08,0,0,1-8.62-5.05L471,310a7.08,7.08,0,0,1,5.05-8.62l149.49-39.08A7.1,7.1,0,0,1,634.12,267.34Z"/><rect class="cls-10" x="499.36" y="367.9" width="47.52" height="6.73" rx="3.17" transform="translate(-76.89 144.37) rotate(-14.65)"/><rect class="cls-10" x="551.86" y="354.18" width="47.52" height="6.73" rx="3.17" transform="translate(-71.71 157.2) rotate(-14.65)"/><path class="cls-10" d="M551.28,324.79a7.72,7.72,0,0,1,.18,3.77,3.47,3.47,0,0,1-5.91,1.54,9.09,9.09,0,0,1-1.87-7.12,3.49,3.49,0,0,1,5.93-1.55A7.68,7.68,0,0,1,551.28,324.79Zm-1.83.47a7.25,7.25,0,0,0-.91-2.21q-.84-1.28-1.92-1c-.74.2-1.14.79-1.21,1.79a7.2,7.2,0,0,0,.28,2.4c.65,2.48,1.6,3.55,2.87,3.22.73-.19,1.12-.8,1.19-1.82A7.31,7.31,0,0,0,549.45,325.26Z"/><path class="cls-10" d="M559.46,322.65a7.72,7.72,0,0,1,.18,3.77,3.48,3.48,0,0,1-5.91,1.55,7.77,7.77,0,0,1-1.69-3.38,7.64,7.64,0,0,1-.18-3.75,3.49,3.49,0,0,1,5.93-1.55A7.68,7.68,0,0,1,559.46,322.65Zm-1.83.48a7.58,7.58,0,0,0-.9-2.22c-.57-.85-1.21-1.17-1.93-1s-1.14.79-1.21,1.8a7.17,7.17,0,0,0,.28,2.39c.65,2.48,1.6,3.55,2.87,3.22.73-.19,1.13-.79,1.19-1.81A7.25,7.25,0,0,0,557.63,323.13Z"/><path class="cls-10" d="M571.86,319.41a7.72,7.72,0,0,1,.18,3.77,3.48,3.48,0,0,1-5.91,1.55,9.13,9.13,0,0,1-1.87-7.13,3.25,3.25,0,0,1,2.5-2.53,3.28,3.28,0,0,1,3.43,1A7.79,7.79,0,0,1,571.86,319.41Zm-1.83.47a7.62,7.62,0,0,0-.91-2.21q-.84-1.28-1.92-1a1.73,1.73,0,0,0-1.22,1.79,7.24,7.24,0,0,0,.29,2.4c.64,2.48,1.6,3.55,2.86,3.22.74-.19,1.13-.8,1.2-1.82A7.59,7.59,0,0,0,570,319.88Z"/><path class="cls-10" d="M580,317.28a7.68,7.68,0,0,1,.18,3.76,3.48,3.48,0,0,1-5.91,1.55,9.1,9.1,0,0,1-1.87-7.13,3.49,3.49,0,0,1,5.93-1.55A7.77,7.77,0,0,1,580,317.28Zm-1.83.47a7.42,7.42,0,0,0-.91-2.22c-.56-.85-1.2-1.17-1.92-1a1.73,1.73,0,0,0-1.21,1.8,7.17,7.17,0,0,0,.28,2.39q1,3.72,2.87,3.22c.73-.19,1.12-.79,1.19-1.81A7.56,7.56,0,0,0,578.21,317.75Z"/><path class="cls-10" d="M588.22,315.14a7.72,7.72,0,0,1,.18,3.77,3.48,3.48,0,0,1-5.91,1.54,9.09,9.09,0,0,1-1.87-7.12,3.49,3.49,0,0,1,5.93-1.55A7.67,7.67,0,0,1,588.22,315.14Zm-1.83.47a7.42,7.42,0,0,0-.91-2.22c-.56-.84-1.2-1.17-1.92-1s-1.15.79-1.21,1.79a7.17,7.17,0,0,0,.28,2.39q1,3.72,2.87,3.22c.73-.19,1.12-.79,1.19-1.81A7.56,7.56,0,0,0,586.39,315.61Z"/><path class="cls-10" d="M596.4,313a7.72,7.72,0,0,1,.18,3.77,3.47,3.47,0,0,1-5.91,1.54,7.79,7.79,0,0,1-1.69-3.37,7.64,7.64,0,0,1-.18-3.75,3.49,3.49,0,0,1,5.93-1.55A7.68,7.68,0,0,1,596.4,313Zm-1.83.47a7.7,7.7,0,0,0-.9-2.22c-.57-.84-1.21-1.17-1.93-1s-1.14.79-1.21,1.79a7.15,7.15,0,0,0,.28,2.39c.65,2.48,1.6,3.56,2.87,3.23.73-.2,1.12-.8,1.19-1.82A7.31,7.31,0,0,0,594.57,313.47Z"/><path class="cls-10" d="M608.8,309.76a7.72,7.72,0,0,1,.18,3.77,3.47,3.47,0,0,1-5.91,1.54,7.68,7.68,0,0,1-1.69-3.37,7.78,7.78,0,0,1-.19-3.75,3.49,3.49,0,0,1,5.94-1.55A7.67,7.67,0,0,1,608.8,309.76Zm-1.83.47a7.69,7.69,0,0,0-.91-2.22c-.56-.84-1.2-1.17-1.92-1s-1.15.79-1.22,1.79a7.45,7.45,0,0,0,.28,2.39c.65,2.48,1.61,3.56,2.87,3.22.74-.19,1.13-.79,1.2-1.81A7.86,7.86,0,0,0,607,310.23Z"/><path class="cls-10" d="M617,307.62a7.72,7.72,0,0,1,.18,3.77,3.47,3.47,0,0,1-5.91,1.54,9.09,9.09,0,0,1-1.87-7.12,3.49,3.49,0,0,1,5.93-1.55A7.79,7.79,0,0,1,617,307.62Zm-1.83.47a7.5,7.5,0,0,0-.91-2.21q-.84-1.28-1.92-1c-.74.19-1.15.79-1.21,1.79a7.15,7.15,0,0,0,.28,2.39q1,3.72,2.87,3.23c.73-.19,1.12-.8,1.19-1.82A7.59,7.59,0,0,0,615.15,308.09Z"/><path class="cls-10" d="M625.16,305.48a7.72,7.72,0,0,1,.18,3.77,3.47,3.47,0,0,1-5.91,1.54,9.09,9.09,0,0,1-1.87-7.12,3.49,3.49,0,0,1,5.93-1.55A7.79,7.79,0,0,1,625.16,305.48Zm-1.83.47a7.5,7.5,0,0,0-.91-2.21q-.84-1.28-1.92-1c-.74.19-1.15.79-1.21,1.79a7.2,7.2,0,0,0,.28,2.4c.64,2.47,1.6,3.55,2.87,3.22.73-.19,1.12-.8,1.19-1.82A7.59,7.59,0,0,0,623.33,306Z"/><path class="cls-10" d="M633.34,303.34a7.72,7.72,0,0,1,.18,3.77,3.47,3.47,0,0,1-5.91,1.54,7.73,7.73,0,0,1-1.69-3.37,7.64,7.64,0,0,1-.18-3.75,3.25,3.25,0,0,1,2.5-2.53,3.28,3.28,0,0,1,3.43,1A7.68,7.68,0,0,1,633.34,303.34Zm-1.83.47a7.25,7.25,0,0,0-.91-2.21q-.84-1.28-1.92-1c-.74.2-1.14.79-1.21,1.79a7.2,7.2,0,0,0,.28,2.4c.65,2.48,1.6,3.55,2.87,3.22.73-.19,1.12-.8,1.19-1.82A7.31,7.31,0,0,0,631.51,303.81Z"/><path class="cls-10" d="M525.47,302.35l-39,10.19a3.17,3.17,0,0,1-3.86-2.26h0a3.18,3.18,0,0,1,2.26-3.87l39-10.19a3.18,3.18,0,0,1,3.87,2.27h0A3.17,3.17,0,0,1,525.47,302.35Z"/><path class="cls-10" d="M619.8,284.66A4.89,4.89,0,0,0,618,282a.54.54,0,0,0-.77.16l-.13.23a.52.52,0,0,0,.13.67,3.58,3.58,0,0,1,1.31,1.94,3.52,3.52,0,0,1-.19,2.34.51.51,0,0,0,.21.64l.23.14a.52.52,0,0,0,.74-.23A4.85,4.85,0,0,0,619.8,284.66Z"/><path class="cls-10" d="M622.33,284a7.43,7.43,0,0,0-3.06-4.3.51.51,0,0,0-.73.18l-.08.13a.53.53,0,0,0,.17.69,6.28,6.28,0,0,1,2.55,3.61,6.35,6.35,0,0,1-.46,4.39.52.52,0,0,0,.19.68l.13.08a.52.52,0,0,0,.73-.21A7.49,7.49,0,0,0,622.33,284Z"/><path class="cls-10" d="M624.54,283.43a9.74,9.74,0,0,0-4.13-5.72.52.52,0,0,0-.73.18h0a.51.51,0,0,0,.17.69,8.71,8.71,0,0,1,3,11.37.51.51,0,0,0,.19.68h0a.5.5,0,0,0,.72-.2A9.68,9.68,0,0,0,624.54,283.43Z"/><path class="cls-10" d="M626.94,282.8a12.21,12.21,0,0,0-5.3-7.24.52.52,0,0,0-.73.18l-.13.23a.51.51,0,0,0,.17.69,10.92,10.92,0,0,1,3.77,14.42.51.51,0,0,0,.19.69l.23.14a.52.52,0,0,0,.72-.2A12.24,12.24,0,0,0,626.94,282.8Z"/><path class="cls-10" d="M506.4,386.63a3.7,3.7,0,0,1,.08,1.82,1.67,1.67,0,0,1-2.84.75,3.73,3.73,0,0,1-.82-1.63,3.8,3.8,0,0,1-.09-1.81,1.69,1.69,0,0,1,2.86-.75A3.63,3.63,0,0,1,506.4,386.63Zm-.88.23a3.83,3.83,0,0,0-.44-1.07.83.83,0,0,0-.93-.47c-.36.09-.55.38-.58.86a3.61,3.61,0,0,0,.13,1.16c.31,1.19.78,1.71,1.39,1.55.35-.09.54-.38.57-.88A3.62,3.62,0,0,0,505.52,386.86Z"/><path class="cls-10" d="M510.35,385.6a3.7,3.7,0,0,1,.08,1.82,1.67,1.67,0,0,1-2.85.74,3.63,3.63,0,0,1-.81-1.62,3.57,3.57,0,0,1-.09-1.81,1.56,1.56,0,0,1,1.21-1.22,1.58,1.58,0,0,1,1.65.47A3.84,3.84,0,0,1,510.35,385.6Zm-.89.23a3.72,3.72,0,0,0-.43-1.07c-.28-.41-.58-.57-.93-.47s-.56.38-.59.86a3.56,3.56,0,0,0,.14,1.15q.47,1.8,1.38,1.56c.35-.09.55-.39.58-.88A3.66,3.66,0,0,0,509.46,385.83Z"/><path class="cls-10" d="M512.74,382.6a.54.54,0,0,1,0,.25l-.94,4.79c-.05.24-.15.38-.32.42a.35.35,0,0,1-.28,0,.35.35,0,0,1-.17-.22.57.57,0,0,1,0-.26l1-4.78a.46.46,0,0,1,.3-.41.36.36,0,0,1,.29,0A.32.32,0,0,1,512.74,382.6Z"/><path class="cls-10" d="M517,383.87a3.66,3.66,0,0,1,.08,1.81,1.67,1.67,0,0,1-2.84.75,3.73,3.73,0,0,1-.82-1.63,3.8,3.8,0,0,1-.09-1.81,1.69,1.69,0,0,1,2.86-.75A3.62,3.62,0,0,1,517,383.87Zm-.88.22a3.83,3.83,0,0,0-.44-1.07.85.85,0,0,0-.93-.47c-.36.09-.55.38-.58.86a3.61,3.61,0,0,0,.13,1.16c.31,1.19.77,1.71,1.39,1.55q.52-.14.57-.87A3.68,3.68,0,0,0,516.11,384.09Z"/><path class="cls-10" d="M520.94,382.83a3.71,3.71,0,0,1,.08,1.82,1.57,1.57,0,0,1-1.2,1.22,1.58,1.58,0,0,1-1.65-.47,3.72,3.72,0,0,1-.81-1.63,3.56,3.56,0,0,1-.09-1.81,1.69,1.69,0,0,1,2.86-.75A3.84,3.84,0,0,1,520.94,382.83Zm-.89.23a3.84,3.84,0,0,0-.43-1.07c-.28-.41-.59-.56-.93-.47s-.56.38-.59.86a3.65,3.65,0,0,0,.14,1.16c.31,1.19.77,1.71,1.38,1.55.35-.09.55-.38.58-.88A3.66,3.66,0,0,0,520.05,383.06Z"/><path class="cls-10" d="M524.88,381.8a3.72,3.72,0,0,1,.09,1.82,1.56,1.56,0,0,1-1.21,1.22,1.55,1.55,0,0,1-1.64-.48,3.74,3.74,0,0,1-.82-1.62,3.8,3.8,0,0,1-.09-1.81,1.69,1.69,0,0,1,2.86-.75A3.63,3.63,0,0,1,524.88,381.8ZM524,382a3.71,3.71,0,0,0-.44-1.07c-.27-.41-.58-.57-.93-.47s-.55.38-.58.86a3.52,3.52,0,0,0,.13,1.15c.32,1.2.78,1.72,1.39,1.56.35-.09.54-.39.57-.88A3.62,3.62,0,0,0,524,382Z"/><path class="cls-10" d="M528.83,380.77a3.7,3.7,0,0,1,.08,1.82,1.67,1.67,0,0,1-2.85.74,3.63,3.63,0,0,1-.81-1.62,3.57,3.57,0,0,1-.09-1.81,1.56,1.56,0,0,1,1.21-1.22,1.58,1.58,0,0,1,1.65.47A3.84,3.84,0,0,1,528.83,380.77ZM528,381a4,4,0,0,0-.44-1.07q-.4-.62-.93-.48c-.36.1-.55.39-.59.87a3.59,3.59,0,0,0,.14,1.15q.47,1.8,1.38,1.56c.35-.09.55-.39.58-.88A3.93,3.93,0,0,0,528,381Z"/></g><polygon class="cls-11" points="430.8 367.7 351.65 453.26 237.58 347.73 237.58 347.73 189.52 303.26 268.68 217.71 358.41 300.73 430.8 367.7"/><path class="cls-3" d="M412.68,368.69l-61.45,66.43L205.51,300.29,267,233.87Zm-55.93,56.4L403.09,375a8.38,8.38,0,0,0-.46-11.85L273.38,243.57a8.54,8.54,0,0,0-12.07.46l-46.16,49.9a8.46,8.46,0,0,0,.47,12L345,425.55A8.35,8.35,0,0,0,356.75,425.09Z"/><circle class="cls-3" cx="309.09" cy="334.49" r="24.35" transform="translate(-121.41 483.12) rotate(-66.31)"/><polygon class="cls-12" points="437.8 389.68 321.54 398.07 310.35 243.07 310.35 243.07 305.64 177.77 421.9 169.38 430.7 291.31 437.8 389.68"/><path class="cls-3" d="M423.89,378l-90.26,6.51-14.29-198L409.6,180Zm-79.38,3,68.06-4.91a8.39,8.39,0,0,0,7.77-9L407.66,191.47a8.54,8.54,0,0,0-9.13-7.9l-67.79,4.89a8.47,8.47,0,0,0-7.84,9.06l12.68,175.74A8.34,8.34,0,0,0,344.51,381Z"/><circle class="cls-3" cx="371.61" cy="282.27" r="24.35" transform="translate(-85.01 378.56) rotate(-49.13)"/><path class="cls-13" d="M236.51,431.69s10,17,19.24,17.25,23.2-7.89,23.2-7.89,8.45-22.66,2.72-31.52c0,0-5.75-3-11.76,2.32a20.13,20.13,0,0,0-3.11,3.59,10,10,0,0,1-4.83,3.94c-6.57,2.4-14.36-3.25-17.28,2.21a36.38,36.38,0,0,1-5.07,7.23A23.69,23.69,0,0,1,236.51,431.69Z"/><path class="cls-13" d="M380.49,680.35S405.13,464.12,268,448.94c0,0-106.39,25.33-79.86,231.41Z"/><path class="cls-14" d="M285.52,452.1S259.93,459,252,454.92c0,0-1.19-12.88,9.58-11.07,7.38,1.23,12.19-3,15-4.77C280.62,436.63,286.59,446.71,285.52,452.1Z"/><path class="cls-14" d="M263.25,432.68c1.63,1.48,6.66-20.83,6.66-20.83a20.13,20.13,0,0,0-3.11,3.59,10,10,0,0,1-4.83,3.94C262,420,261.66,431.24,263.25,432.68Z"/><path class="cls-14" d="M239.62,428.82c.36.25,12.2,8.79,13.8,8.79s-8.73-16-8.73-16A36.38,36.38,0,0,1,239.62,428.82Z"/><path class="cls-15" d="M327.59,670.91v10.55a1.15,1.15,0,0,1,0,.33c0,.06,0,.11,0,.16s-.06.18-.1.27a.6.6,0,0,1-.08.16,1.87,1.87,0,0,1-1.12.92l-.16,0a1.84,1.84,0,0,1-.41,0H252.73a1.9,1.9,0,0,1-.41,0l-.16,0-.12,0-.14-.06a1.9,1.9,0,0,1-.86-.82,1.19,1.19,0,0,1-.08-.16c0-.09-.07-.18-.09-.27a.76.76,0,0,1,0-.16,1.15,1.15,0,0,1,0-.33V670.91a1.24,1.24,0,0,1,0-.33,1.92,1.92,0,0,1,1.89-1.59h72.93a1.91,1.91,0,0,1,1.89,1.59A1.24,1.24,0,0,1,327.59,670.91Z"/><g class="cls-5"><rect class="cls-16" x="257.51" y="668.99" width="6.48" height="14.39"/><rect class="cls-16" x="267.92" y="668.99" width="6.47" height="14.39"/><rect class="cls-17" x="304.69" y="668.99" width="16.19" height="14.39"/></g><path class="cls-18" d="M327.55,670.58H250.84a1.92,1.92,0,0,1,1.89-1.59h72.93A1.91,1.91,0,0,1,327.55,670.58Z"/><path class="cls-18" d="M327.55,681.79c0,.06,0,.11,0,.16s-.06.18-.1.27a.6.6,0,0,1-.08.16,1.87,1.87,0,0,1-1.12.92l-.16,0a1.84,1.84,0,0,1-.41,0H252.73a1.9,1.9,0,0,1-.41,0l-.16,0-.12,0-.14-.06a1.9,1.9,0,0,1-.86-.82,1.19,1.19,0,0,1-.08-.16c0-.09-.07-.18-.09-.27a.76.76,0,0,1,0-.16Z"/><path class="cls-15" d="M333.07,656.52v10.55a1.84,1.84,0,0,1,0,.33,2.76,2.76,0,0,1-.16.51.41.41,0,0,1-.07.11,1.88,1.88,0,0,1-.86.79l-.12.05-.11,0-.16.05a1.9,1.9,0,0,1-.41,0H258.21a2,2,0,0,1-.44,0l-.13,0-.12,0-.12-.05a1.8,1.8,0,0,1-.77-.65l-.09-.13-.08-.15a3,3,0,0,1-.11-.32,1.57,1.57,0,0,1-.07-.49V656.52a1.24,1.24,0,0,1,0-.33,1.91,1.91,0,0,1,1.89-1.59h72.94a1.92,1.92,0,0,1,1.89,1.59A1.84,1.84,0,0,1,333.07,656.52Z"/><g class="cls-5"><rect class="cls-16" x="262.99" y="654.6" width="6.48" height="14.39"/><rect class="cls-16" x="273.4" y="654.6" width="6.47" height="14.39"/><rect class="cls-17" x="310.17" y="654.6" width="16.19" height="14.39"/></g><path class="cls-18" d="M333,656.19H256.32a1.91,1.91,0,0,1,1.89-1.59h72.94A1.92,1.92,0,0,1,333,656.19Z"/><path class="cls-18" d="M333,667.4a2.76,2.76,0,0,1-.16.51.41.41,0,0,1-.07.11,1.88,1.88,0,0,1-.86.79l-.12.05-.11,0-.16.05a1.9,1.9,0,0,1-.41,0H258.21a2,2,0,0,1-.44,0l-.13,0-.12,0-.12-.05a1.8,1.8,0,0,1-.77-.65l-.09-.13-.08-.15a3,3,0,0,1-.11-.32.9.9,0,0,1,0-.16Z"/><path class="cls-15" d="M330.17,642.12v10.56a1.57,1.57,0,0,1-.07.49,3,3,0,0,1-.11.32,2,2,0,0,1-.27.42l-.12.12a1.59,1.59,0,0,1-.13.13l-.15.11-.16.09a1.09,1.09,0,0,1-.35.15.42.42,0,0,1-.16,0,1.4,1.4,0,0,1-.41.05H255.31a2.12,2.12,0,0,1-.44-.05l-.13,0-.12,0-.12-.05a1.78,1.78,0,0,1-.76-.65.51.51,0,0,1-.09-.13.55.55,0,0,1-.08-.15,1.75,1.75,0,0,1-.12-.32,1.93,1.93,0,0,1-.07-.49V642.12a1.12,1.12,0,0,1,0-.32,1.92,1.92,0,0,1,1.89-1.6h72.93a1.91,1.91,0,0,1,1.89,1.6A1.12,1.12,0,0,1,330.17,642.12Z"/><g class="cls-5"><rect class="cls-16" x="260.09" y="640.2" width="6.48" height="14.39"/><rect class="cls-16" x="270.5" y="640.2" width="6.47" height="14.39"/><rect class="cls-17" x="307.27" y="640.2" width="16.19" height="14.39"/></g><path class="cls-18" d="M330.13,641.8H253.42a1.92,1.92,0,0,1,1.89-1.6h72.93A1.91,1.91,0,0,1,330.13,641.8Z"/><path class="cls-18" d="M330.13,653a.86.86,0,0,1,0,.17,3,3,0,0,1-.11.32,2,2,0,0,1-.27.42l-.12.12a1.59,1.59,0,0,1-.13.13l-.15.11-.16.09a1.09,1.09,0,0,1-.35.15.42.42,0,0,1-.16,0,1.4,1.4,0,0,1-.41.05H255.31a2.12,2.12,0,0,1-.44-.05l-.13,0-.12,0-.12-.05a1.78,1.78,0,0,1-.76-.65.51.51,0,0,1-.09-.13.55.55,0,0,1-.08-.15,1.75,1.75,0,0,1-.12-.32l0-.17Z"/><path class="cls-15" d="M336.88,627.73v10.55a1.76,1.76,0,0,1,0,.33,1.78,1.78,0,0,1-.09.33l-.06.14a1.84,1.84,0,0,1-.67.79l-.16.1-.17.08-.18.06-.13,0a2,2,0,0,1-.44.05H262a1.44,1.44,0,0,1-.41-.05.47.47,0,0,1-.16,0l-.18-.06a2.68,2.68,0,0,1-.33-.18l-.14-.11a.75.75,0,0,1-.14-.12l-.11-.13s0,0,0,0a.6.6,0,0,1-.09-.13.78.78,0,0,1-.1-.15l-.09-.16a2.54,2.54,0,0,1-.1-.37.13.13,0,0,1,0-.06h0a1.77,1.77,0,0,1,0-.33V627.73a1.83,1.83,0,0,1,0-.33,1.93,1.93,0,0,1,1.9-1.59H335a1.93,1.93,0,0,1,1.9,1.59A1.84,1.84,0,0,1,336.88,627.73Z"/><g class="cls-5"><rect class="cls-16" x="266.8" y="625.81" width="6.48" height="14.39"/><rect class="cls-16" x="277.21" y="625.81" width="6.47" height="14.39"/><rect class="cls-17" x="313.98" y="625.81" width="16.19" height="14.39"/></g><path class="cls-18" d="M336.85,627.4H260.12a1.93,1.93,0,0,1,1.9-1.59H335A1.93,1.93,0,0,1,336.85,627.4Z"/><path class="cls-18" d="M336.85,638.61a1.78,1.78,0,0,1-.09.33l-.06.14a1.84,1.84,0,0,1-.67.79l-.16.1-.17.08-.18.06-.13,0a2,2,0,0,1-.44.05H262a1.44,1.44,0,0,1-.41-.05.47.47,0,0,1-.16,0l-.18-.06a2.68,2.68,0,0,1-.33-.18l-.14-.11a.75.75,0,0,1-.14-.12l-.11-.13s0,0,0,0a.6.6,0,0,1-.09-.13.78.78,0,0,1-.1-.15l-.09-.16a2.54,2.54,0,0,1-.1-.37.14.14,0,0,1,0-.06Z"/><path class="cls-15" d="M334,623.89a1.64,1.64,0,0,1-.05.32h0c0,.06,0,.1,0,.16a.16.16,0,0,0,0,.09,2.44,2.44,0,0,1-.1.24,1.14,1.14,0,0,1-.1.19l-.06.09a1.94,1.94,0,0,1-.67.6l-.16.08-.18.06-.13,0a2.12,2.12,0,0,1-.44,0H259.18a1.4,1.4,0,0,1-.41,0,.42.42,0,0,1-.16,0l-.18-.06-.17-.09-.16-.09-.15-.11-.13-.13-.12-.12a1.91,1.91,0,0,1-.42-.91,1.66,1.66,0,0,1,0-.32V613.34a1.76,1.76,0,0,1,0-.33,1.92,1.92,0,0,1,1.9-1.59h72.93A1.91,1.91,0,0,1,334,613a1.19,1.19,0,0,1,0,.33Z"/><g class="cls-5"><rect class="cls-16" x="263.96" y="611.42" width="6.48" height="14.39"/><rect class="cls-16" x="274.37" y="611.42" width="6.47" height="14.39"/><rect class="cls-17" x="311.14" y="611.42" width="16.19" height="14.39"/></g><path class="cls-18" d="M334,613H257.28a1.92,1.92,0,0,1,1.9-1.59h72.93A1.91,1.91,0,0,1,334,613Z"/><path class="cls-18" d="M334,624.21c0,.06,0,.1,0,.16a.16.16,0,0,0,0,.09,2.44,2.44,0,0,1-.1.24,1.14,1.14,0,0,1-.1.19l-.06.09a1.94,1.94,0,0,1-.67.6l-.16.08-.18.06-.13,0a2.12,2.12,0,0,1-.44,0H259.18a1.4,1.4,0,0,1-.41,0,.42.42,0,0,1-.16,0l-.18-.06-.17-.09-.16-.09-.15-.11-.13-.13-.12-.12a1.91,1.91,0,0,1-.42-.91Z"/><path class="cls-15" d="M336.88,609.5a1.65,1.65,0,0,1,0,.32h0l0,.16s0,.06,0,.08l-.09.25-.11.19-.06.09a1.94,1.94,0,0,1-.67.6l-.16.07a.75.75,0,0,1-.18.07.5.5,0,0,1-.13,0,1.51,1.51,0,0,1-.44.06H262a1.92,1.92,0,0,1-.41,0l-.16,0-.18-.07a.48.48,0,0,1-.16-.08,1.4,1.4,0,0,1-.17-.09l-.14-.11-.14-.13-.11-.12a1.88,1.88,0,0,1-.43-.91,1.72,1.72,0,0,1,0-.32V598.94a1.67,1.67,0,0,1,0-.32A1.93,1.93,0,0,1,262,597H335a1.92,1.92,0,0,1,1.9,1.6,1.66,1.66,0,0,1,0,.32Z"/><g class="cls-5"><rect class="cls-16" x="266.8" y="597.02" width="6.48" height="14.39"/><rect class="cls-16" x="277.21" y="597.02" width="6.47" height="14.39"/><rect class="cls-17" x="313.98" y="597.02" width="16.19" height="14.39"/></g><path class="cls-18" d="M336.85,598.62H260.12A1.93,1.93,0,0,1,262,597H335A1.92,1.92,0,0,1,336.85,598.62Z"/><path class="cls-18" d="M336.85,609.82l0,.16s0,.06,0,.08l-.09.25-.11.19-.06.09a1.94,1.94,0,0,1-.67.6l-.16.07a.75.75,0,0,1-.18.07.5.5,0,0,1-.13,0,1.51,1.51,0,0,1-.44.06H262a1.92,1.92,0,0,1-.41,0l-.16,0-.18-.07a.48.48,0,0,1-.16-.08,1.4,1.4,0,0,1-.17-.09l-.14-.11-.14-.13-.11-.12a1.88,1.88,0,0,1-.43-.91Z"/><path class="cls-15" d="M343,584.55V595.1a1.24,1.24,0,0,1,0,.33c0,.05,0,.1,0,.15a1.69,1.69,0,0,1-.1.27.65.65,0,0,1-.08.17,1.88,1.88,0,0,1-.86.81l-.14.06-.12,0a.42.42,0,0,1-.16,0,1.4,1.4,0,0,1-.41,0H268.16a1.4,1.4,0,0,1-.41,0,.47.47,0,0,1-.16,0,1.7,1.7,0,0,1-.51-.24l-.15-.11-.13-.13-.11-.12s0,0,0,0a.64.64,0,0,1-.1-.13,1.19,1.19,0,0,1-.09-.15,2.17,2.17,0,0,1-.15-.35c0-.06,0-.12-.05-.18s0,0,0-.06a1.84,1.84,0,0,1,0-.33V584.55a1.76,1.76,0,0,1,0-.33,1.93,1.93,0,0,1,.56-1.05,2.09,2.09,0,0,1,.49-.35,2,2,0,0,1,.85-.19h72.93a1.91,1.91,0,0,1,1.89,1.59A1.19,1.19,0,0,1,343,584.55Z"/><rect class="cls-16" x="272.94" y="582.63" width="6.48" height="14.39"/><rect class="cls-16" x="283.35" y="582.63" width="6.47" height="14.39"/><rect class="cls-16" x="320.12" y="582.63" width="16.19" height="14.39"/><path class="cls-18" d="M343,584.22H266.26a1.92,1.92,0,0,1,1.9-1.59h72.93A1.91,1.91,0,0,1,343,584.22Z"/><path class="cls-18" d="M343,595.43c0,.05,0,.1,0,.15a1.69,1.69,0,0,1-.1.27.65.65,0,0,1-.08.17,1.88,1.88,0,0,1-.86.81l-.14.06-.12,0a.42.42,0,0,1-.16,0,1.4,1.4,0,0,1-.41,0H268.16a1.4,1.4,0,0,1-.41,0,.47.47,0,0,1-.16,0,1.7,1.7,0,0,1-.51-.24l-.15-.11-.13-.13-.11-.12s0,0,0,0a.64.64,0,0,1-.1-.13,1.19,1.19,0,0,1-.09-.15,2.17,2.17,0,0,1-.15-.35c0-.06,0-.12-.05-.18s0,0,0-.06Z"/><path class="cls-15" d="M340.74,570.15v10.56a1.84,1.84,0,0,1,0,.33l0,.15-.09.27a.65.65,0,0,1-.09.16,1.85,1.85,0,0,1-.86.82l-.14.06-.11,0-.17,0a1.84,1.84,0,0,1-.41,0H265.88a1.92,1.92,0,0,1-.41,0l-.16,0a2.1,2.1,0,0,1-.5-.24l-.15-.11-.14-.13-.11-.12,0,0s-.07-.09-.09-.13a.86.86,0,0,1-.1-.16,2.07,2.07,0,0,1-.15-.34,1.16,1.16,0,0,1,0-.18.14.14,0,0,1,0-.06,1.83,1.83,0,0,1,0-.33V570.15a1.83,1.83,0,0,1,0-.33,2,2,0,0,1,.56-1.05,2,2,0,0,1,1.34-.54h72.93a1.93,1.93,0,0,1,1.9,1.59A1.84,1.84,0,0,1,340.74,570.15Z"/><rect class="cls-16" x="270.66" y="568.23" width="6.48" height="14.39"/><rect class="cls-16" x="281.07" y="568.23" width="6.47" height="14.39"/><rect class="cls-16" x="317.84" y="568.23" width="16.19" height="14.39"/><path class="cls-18" d="M340.71,569.83H264a1.92,1.92,0,0,1,1.89-1.6h72.93A1.93,1.93,0,0,1,340.71,569.83Z"/><path class="cls-18" d="M340.71,581l0,.15-.09.27a.65.65,0,0,1-.09.16,1.85,1.85,0,0,1-.86.82l-.14.06-.11,0-.17,0a1.84,1.84,0,0,1-.41,0H265.88a1.92,1.92,0,0,1-.41,0l-.16,0a2.1,2.1,0,0,1-.5-.24l-.15-.11-.14-.13-.11-.12,0,0s-.07-.09-.09-.13a.86.86,0,0,1-.1-.16,2.07,2.07,0,0,1-.15-.34,1.16,1.16,0,0,1,0-.18.14.14,0,0,1,0-.06Z"/><path class="cls-15" d="M336.51,555.76v10.55a1.19,1.19,0,0,1,0,.33l0,.16c0,.09-.06.18-.09.27l-.08.16a1.83,1.83,0,0,1-.86.81l-.15.06-.11,0a.47.47,0,0,1-.16,0,1.44,1.44,0,0,1-.41.05H261.66a1.4,1.4,0,0,1-.41-.05.42.42,0,0,1-.16,0,1.59,1.59,0,0,1-.51-.24l-.15-.11a.49.49,0,0,1-.13-.12l-.12-.13s0,0,0,0a.64.64,0,0,1-.1-.13.46.46,0,0,1-.09-.15,1.37,1.37,0,0,1-.15-.35c0-.06,0-.12-.05-.18a.13.13,0,0,1,0-.06,1.76,1.76,0,0,1,0-.33V555.76a1.84,1.84,0,0,1,0-.33,1.93,1.93,0,0,1,.56-1,1.8,1.8,0,0,1,.49-.34,1.87,1.87,0,0,1,.85-.2h72.93a1.91,1.91,0,0,1,1.89,1.59A1.23,1.23,0,0,1,336.51,555.76Z"/><rect class="cls-16" x="266.44" y="553.84" width="6.48" height="14.39"/><rect class="cls-16" x="276.85" y="553.84" width="6.47" height="14.39"/><rect class="cls-16" x="313.61" y="553.84" width="16.19" height="14.39"/><path class="cls-18" d="M336.48,555.43H259.76a1.92,1.92,0,0,1,1.9-1.59h72.93A1.91,1.91,0,0,1,336.48,555.43Z"/><path class="cls-18" d="M336.48,566.64l0,.16c0,.09-.06.18-.09.27l-.08.16a1.83,1.83,0,0,1-.86.81l-.15.06-.11,0a.47.47,0,0,1-.16,0,1.44,1.44,0,0,1-.41.05H261.66a1.4,1.4,0,0,1-.41-.05.42.42,0,0,1-.16,0,1.59,1.59,0,0,1-.51-.24l-.15-.11a.49.49,0,0,1-.13-.12l-.12-.13s0,0,0,0a.64.64,0,0,1-.1-.13.46.46,0,0,1-.09-.15,1.37,1.37,0,0,1-.15-.35c0-.06,0-.12-.05-.18a.13.13,0,0,1,0-.06Z"/><path class="cls-15" d="M340.74,541.37v10.55a1.84,1.84,0,0,1,0,.33l0,.15-.09.27a.51.51,0,0,1-.09.16,1.85,1.85,0,0,1-.86.82l-.14.06-.11,0-.17,0a1.84,1.84,0,0,1-.41.05H265.88a1.92,1.92,0,0,1-.41-.05l-.16,0a1.54,1.54,0,0,1-.5-.24l-.15-.11a.55.55,0,0,1-.14-.13l-.11-.12,0,0a.6.6,0,0,1-.09-.13.86.86,0,0,1-.1-.16,1.75,1.75,0,0,1-.15-.34,1.16,1.16,0,0,1,0-.18.14.14,0,0,1,0-.06,1.83,1.83,0,0,1,0-.33V541.37a1.72,1.72,0,0,1,0-.33,1.93,1.93,0,0,1,.56-1,1.84,1.84,0,0,1,.49-.35,2,2,0,0,1,.85-.19h72.93a1.93,1.93,0,0,1,1.9,1.59A1.69,1.69,0,0,1,340.74,541.37Z"/><rect class="cls-16" x="270.66" y="539.45" width="6.48" height="14.39"/><rect class="cls-16" x="281.07" y="539.45" width="6.47" height="14.39"/><rect class="cls-16" x="317.84" y="539.45" width="16.19" height="14.39"/><path class="cls-18" d="M340.71,541H264a1.91,1.91,0,0,1,1.89-1.59h72.93A1.92,1.92,0,0,1,340.71,541Z"/><path class="cls-18" d="M340.71,552.25l0,.15-.09.27a.51.51,0,0,1-.09.16,1.85,1.85,0,0,1-.86.82l-.14.06-.11,0-.17,0a1.84,1.84,0,0,1-.41.05H265.88a1.92,1.92,0,0,1-.41-.05l-.16,0a1.54,1.54,0,0,1-.5-.24l-.15-.11a.55.55,0,0,1-.14-.13l-.11-.12,0,0a.6.6,0,0,1-.09-.13.86.86,0,0,1-.1-.16,1.75,1.75,0,0,1-.15-.34,1.16,1.16,0,0,1,0-.18.14.14,0,0,1,0-.06Z"/><path class="cls-15" d="M345.66,527v10.55a1.16,1.16,0,0,1,0,.33l0,.16c0,.09-.06.18-.09.27a1.19,1.19,0,0,1-.08.16,1.9,1.9,0,0,1-.86.82l-.15.06-.11,0-.16,0a1.9,1.9,0,0,1-.41,0H270.81a1.84,1.84,0,0,1-.41,0l-.16,0a1.73,1.73,0,0,1-.51-.25l-.15-.1-.13-.13-.12-.12a.05.05,0,0,1,0,0,.64.64,0,0,1-.1-.13.46.46,0,0,1-.09-.15,1.47,1.47,0,0,1-.15-.34,1.33,1.33,0,0,1-.05-.19.13.13,0,0,1,0-.06,1.69,1.69,0,0,1,0-.33V527a1.84,1.84,0,0,1,0-.33,1.93,1.93,0,0,1,.56-1,1.8,1.8,0,0,1,.49-.34,2,2,0,0,1,.85-.2h72.93a1.92,1.92,0,0,1,1.89,1.59A1.23,1.23,0,0,1,345.66,527Z"/><path class="cls-18" d="M345.63,526.64H268.91a1.91,1.91,0,0,1,1.89-1.59h72.94A1.91,1.91,0,0,1,345.63,526.64Z"/><path class="cls-18" d="M345.63,537.85l0,.16c0,.09-.06.18-.09.27a1.19,1.19,0,0,1-.08.16,1.9,1.9,0,0,1-.86.82l-.15.06-.11,0-.16,0a1.9,1.9,0,0,1-.41,0H270.81a1.84,1.84,0,0,1-.41,0l-.16,0a1.73,1.73,0,0,1-.51-.25l-.15-.1-.13-.13-.12-.12a.05.05,0,0,1,0,0,.64.64,0,0,1-.1-.13.46.46,0,0,1-.09-.15,1.47,1.47,0,0,1-.15-.34,1.33,1.33,0,0,1-.05-.19.13.13,0,0,1,0-.06Z"/><g class="cls-5"><rect class="cls-16" x="275.59" y="525.05" width="6.48" height="14.39"/><rect class="cls-16" x="286" y="525.05" width="6.47" height="14.39"/><rect class="cls-16" x="322.76" y="525.05" width="16.19" height="14.39"/></g><path class="cls-15" d="M336.46,509.52l.68,10.53a1.93,1.93,0,0,1-1.8,2.05l-72.78,4.71a1.93,1.93,0,0,1-2.05-1.79l-.68-10.53a1.82,1.82,0,0,1,0-.33,1.93,1.93,0,0,1,1.79-1.71l72.78-4.72a1.92,1.92,0,0,1,2,1.47A1.65,1.65,0,0,1,336.46,509.52Z"/><rect class="cls-16" x="266.86" y="511.91" width="6.48" height="14.39" transform="translate(-33 18.55) rotate(-3.71)"/><rect class="cls-16" x="277.25" y="511.24" width="6.47" height="14.39" transform="translate(-32.94 19.22) rotate(-3.71)"/><rect class="cls-16" x="313.93" y="508.55" width="16.19" height="14.39" transform="translate(-32.67 21.9) rotate(-3.71)"/><path class="cls-18" d="M336.4,509.2l-76.56,5a1.93,1.93,0,0,1,1.79-1.71l72.78-4.72A1.92,1.92,0,0,1,336.4,509.2Z"/><path class="cls-18" d="M260.57,525.34l76.56-5a1.94,1.94,0,0,1-1.79,1.72l-72.78,4.71A1.92,1.92,0,0,1,260.57,525.34Z"/><polygon class="cls-19" points="391.29 405.66 455.61 341.35 454.07 339.81 463.12 330.76 448.03 315.67 438.98 324.72 437.44 323.18 354.97 405.66 351.57 405.66 97.64 405.66 97.64 589.77 280.53 589.77 488.29 589.77 488.29 405.66 391.29 405.66"/><rect class="cls-16" x="83.7" y="391.2" width="390.65" height="184.11"/><rect class="cls-20" x="95.49" y="402.54" width="367.08" height="161.44"/><rect class="cls-16" x="110.61" y="489" width="221.19" height="28.76"/><rect class="cls-21" x="368.45" y="489" width="78.19" height="28.76"/><rect class="cls-16" x="110.61" y="427.63" width="137.33" height="22.3"/><line class="cls-22" x1="350.1" y1="415.27" x2="350.1" y2="553.62"/><rect class="cls-16" x="261.3" y="447.06" width="70.5" height="1.42"/><rect class="cls-16" x="201.02" y="541.78" width="130.78" height="1.42"/><line class="cls-23" x1="368.45" y1="447.77" x2="445.41" y2="447.77"/><polygon class="cls-24" points="269.38 488.03 272.74 491.39 260.8 503.33 255.2 502.21 269.38 488.03"/><rect class="cls-25" x="266.08" y="479.17" width="13.88" height="17.15" transform="translate(121.18 1025.7) rotate(-135)"/><rect class="cls-25" x="262.01" y="481.82" width="17.16" height="6.99" transform="translate(-263.92 333.48) rotate(-45)"/><rect class="cls-25" x="361.96" y="291.19" width="25.69" height="189.55" transform="translate(366.92 923.91) rotate(-135)"/><polygon class="cls-26" points="283.13 492.14 316.87 462.06 298.71 443.9 268.7 477.71 283.13 492.14"/><rect class="cls-25" x="363.84" y="286.67" width="12.89" height="189.55" transform="translate(362.4 912.99) rotate(-135)"/><rect class="cls-27" x="435.67" y="308.03" width="21.34" height="12.79" transform="translate(539.63 852.37) rotate(-135)"/><polygon class="cls-28" points="307.82 453.02 298.71 443.9 268.7 477.71 275.92 484.92 307.82 453.02"/><path class="cls-24" d="M530.87,282.27V669.32a11.06,11.06,0,0,1-11,11H326.29a11.06,11.06,0,0,1-11-11V282.27a11.06,11.06,0,0,1,11-11H519.84A11.06,11.06,0,0,1,530.87,282.27Z"/><path class="cls-25" d="M454.66,286.72h-56a2.19,2.19,0,0,1-2.18-2.18h0a2.19,2.19,0,0,1,2.18-2.18h56a2.19,2.19,0,0,1,2.19,2.18h0A2.19,2.19,0,0,1,454.66,286.72Z"/><path class="cls-25" d="M388.66,286.72h0a2.19,2.19,0,0,1-2.18-2.18h0a2.19,2.19,0,0,1,2.18-2.18h0a2.19,2.19,0,0,1,2.18,2.18h0A2.19,2.19,0,0,1,388.66,286.72Z"/><path class="cls-25" d="M439.8,657.74a14.06,14.06,0,1,1-14.06-14.06A14,14,0,0,1,439.8,657.74Z"/><rect class="cls-29" x="328.17" y="296.44" width="191.19" height="340.32"/><path class="cls-30" d="M435.72,667.64a14.06,14.06,0,1,1-17.52-21.77A31.51,31.51,0,0,0,435.72,667.64Z"/><path class="cls-16" d="M654.69,423.26a7.77,7.77,0,0,0-7.77-7.78H558.26a9,9,0,0,0-9,9v18.43a10.55,10.55,0,0,0,2.64,7l-2.64,12.06,15.22-8.43h82a8.22,8.22,0,0,0,8.21-8.21Z"/><polygon class="cls-3" points="565.9 426.71 568.12 431.2 573.08 431.93 569.49 435.43 570.34 440.37 565.9 438.04 561.46 440.37 562.31 435.43 558.72 431.93 563.68 431.2 565.9 426.71"/><polygon class="cls-3" points="584.62 426.71 586.84 431.2 591.8 431.93 588.21 435.43 589.06 440.37 584.62 438.04 580.18 440.37 581.03 435.43 577.44 431.93 582.4 431.2 584.62 426.71"/><polygon class="cls-3" points="603.34 426.71 605.56 431.2 610.53 431.93 606.93 435.43 607.78 440.37 603.34 438.04 598.9 440.37 599.75 435.43 596.16 431.93 601.12 431.2 603.34 426.71"/><polygon class="cls-3" points="622.07 426.71 624.28 431.2 629.25 431.93 625.66 435.43 626.5 440.37 622.07 438.04 617.63 440.37 618.48 435.43 614.88 431.93 619.85 431.2 622.07 426.71"/><polygon class="cls-3" points="640.79 426.71 643.01 431.2 647.97 431.93 644.38 435.43 645.23 440.37 640.79 438.04 636.35 440.37 637.2 435.43 633.61 431.93 638.57 431.2 640.79 426.71"/><rect class="cls-9" x="328.17" y="296.44" width="190.83" height="128.6"/><path class="cls-31" d="M489.58,404.45H358a5.22,5.22,0,0,1-5.21-5.21V324.4a5.22,5.22,0,0,1,5.21-5.21H489.58a5.22,5.22,0,0,1,5.21,5.21v74.84A5.22,5.22,0,0,1,489.58,404.45ZM358,320.17a4.23,4.23,0,0,0-4.22,4.23v74.84a4.23,4.23,0,0,0,4.22,4.23H489.58a4.23,4.23,0,0,0,4.22-4.23V324.4a4.23,4.23,0,0,0-4.22-4.23Z"/><rect class="cls-21" x="364.76" y="382.41" width="35.02" height="4.96" rx="2.33" transform="translate(-2.98 2.99) rotate(-0.45)"/><rect class="cls-21" x="404.75" y="382.1" width="35.02" height="4.96" rx="2.33" transform="translate(-2.98 3.3) rotate(-0.45)"/><path class="cls-21" d="M370.19,357.1a5.64,5.64,0,0,1-.55,2.72,2.55,2.55,0,0,1-4.5,0,5.63,5.63,0,0,1-.6-2.71,5.54,5.54,0,0,1,.55-2.71,2.57,2.57,0,0,1,4.51,0A5.64,5.64,0,0,1,370.19,357.1Zm-1.39,0a5.84,5.84,0,0,0-.25-1.75q-.37-1.05-1.2-1.05c-.56,0-1,.36-1.19,1.06a5.61,5.61,0,0,0-.23,1.76c0,1.89.5,2.83,1.47,2.82.56,0,1-.36,1.18-1.08A5.51,5.51,0,0,0,368.8,357.1Z"/><path class="cls-21" d="M376.42,357.05a5.64,5.64,0,0,1-.55,2.72,2.56,2.56,0,0,1-4.5,0,5.7,5.7,0,0,1-.6-2.72,5.54,5.54,0,0,1,.55-2.71,2.58,2.58,0,0,1,4.52,0A5.64,5.64,0,0,1,376.42,357.05Zm-1.39,0a5.43,5.43,0,0,0-.25-1.74c-.25-.71-.64-1.06-1.19-1.06s-1,.36-1.2,1.06a5.61,5.61,0,0,0-.23,1.76c0,1.89.51,2.83,1.47,2.83.56,0,.95-.37,1.18-1.09A5.51,5.51,0,0,0,375,357.05Z"/><path class="cls-21" d="M382.66,357a5.75,5.75,0,0,1-.56,2.72,2.56,2.56,0,0,1-4.5,0,6.7,6.7,0,0,1-.05-5.43A2.41,2.41,0,0,1,379.8,353a2.44,2.44,0,0,1,2.27,1.32A5.76,5.76,0,0,1,382.66,357Zm-1.4,0a5.43,5.43,0,0,0-.25-1.74c-.24-.71-.64-1.06-1.19-1.06s-1,.36-1.19,1.07a5.54,5.54,0,0,0-.24,1.76q0,2.82,1.47,2.82c.56,0,.95-.37,1.18-1.08A5.62,5.62,0,0,0,381.26,357Z"/><path class="cls-21" d="M388.89,357a5.72,5.72,0,0,1-.56,2.72,2.56,2.56,0,0,1-4.5,0,6.7,6.7,0,0,1-.05-5.43,2.57,2.57,0,0,1,4.52,0A5.68,5.68,0,0,1,388.89,357Zm-1.4,0a5.47,5.47,0,0,0-.24-1.75q-.37-1.06-1.2-1c-.57,0-1,.35-1.19,1.06a5.54,5.54,0,0,0-.24,1.76q0,2.83,1.47,2.82c.56,0,1-.37,1.18-1.08A5.31,5.31,0,0,0,387.49,357Z"/><path class="cls-21" d="M398.33,356.88a5.63,5.63,0,0,1-.56,2.72,2.55,2.55,0,0,1-4.49,0,5.48,5.48,0,0,1-.6-2.72,5.66,5.66,0,0,1,.54-2.71,2.58,2.58,0,0,1,4.52,0A5.76,5.76,0,0,1,398.33,356.88Zm-1.39,0a5.72,5.72,0,0,0-.25-1.74c-.25-.71-.65-1.06-1.2-1.06s-1,.36-1.19,1.06a5.33,5.33,0,0,0-.23,1.76q0,2.84,1.47,2.82c.55,0,.95-.36,1.18-1.08A5.81,5.81,0,0,0,396.94,356.88Z"/><path class="cls-21" d="M404.56,356.83a5.63,5.63,0,0,1-.56,2.72,2.55,2.55,0,0,1-4.49,0,6.75,6.75,0,0,1-.06-5.43,2.58,2.58,0,0,1,4.52,0A5.64,5.64,0,0,1,404.56,356.83Zm-1.39,0a5.72,5.72,0,0,0-.25-1.74c-.25-.71-.65-1.06-1.2-1.06s-1,.36-1.19,1.06a5.35,5.35,0,0,0-.23,1.77q0,2.82,1.47,2.82c.55,0,1-.37,1.18-1.09A5.81,5.81,0,0,0,403.17,356.83Z"/><path class="cls-21" d="M410.79,356.78a5.61,5.61,0,0,1-.55,2.72,2.56,2.56,0,0,1-4.5,0,5.7,5.7,0,0,1-.6-2.72,5.57,5.57,0,0,1,.55-2.71,2.38,2.38,0,0,1,2.24-1.36,2.42,2.42,0,0,1,2.27,1.33A5.57,5.57,0,0,1,410.79,356.78Zm-1.39,0a5.74,5.74,0,0,0-.25-1.75Q408.78,354,408,354c-.56,0-1,.35-1.19,1.06a5.57,5.57,0,0,0-.23,1.76c0,1.89.5,2.83,1.47,2.82.56,0,.95-.37,1.18-1.08A5.59,5.59,0,0,0,409.4,356.79Z"/><path class="cls-21" d="M417,356.73a5.65,5.65,0,0,1-.55,2.73,2.41,2.41,0,0,1-2.24,1.35,2.38,2.38,0,0,1-2.26-1.32,5.68,5.68,0,0,1-.6-2.72,5.57,5.57,0,0,1,.55-2.71,2.57,2.57,0,0,1,4.51,0A5.46,5.46,0,0,1,417,356.73Zm-1.39,0a5.45,5.45,0,0,0-.25-1.75c-.25-.71-.64-1.06-1.19-1.05s-1,.36-1.2,1.06a5.57,5.57,0,0,0-.23,1.76q0,2.83,1.47,2.82c.56,0,.95-.37,1.18-1.08A5.59,5.59,0,0,0,415.63,356.74Z"/><path class="cls-21" d="M426.47,356.66a5.63,5.63,0,0,1-.56,2.72,2.56,2.56,0,0,1-4.5,0,6.7,6.7,0,0,1-.05-5.43,2.58,2.58,0,0,1,4.52,0A5.76,5.76,0,0,1,426.47,356.66Zm-1.4,0a5.45,5.45,0,0,0-.24-1.74c-.25-.71-.65-1.06-1.2-1.06s-1,.36-1.19,1.06a5.35,5.35,0,0,0-.23,1.77c0,1.88.5,2.82,1.46,2.82.56,0,.95-.37,1.18-1.09A5.24,5.24,0,0,0,425.07,356.66Z"/><path class="cls-21" d="M432.7,356.61a5.6,5.6,0,0,1-.56,2.72,2.56,2.56,0,0,1-4.5,0,5.7,5.7,0,0,1-.6-2.72,5.81,5.81,0,0,1,.55-2.71,2.58,2.58,0,0,1,4.52,0A5.76,5.76,0,0,1,432.7,356.61Zm-1.39,0a5.72,5.72,0,0,0-.25-1.74q-.37-1.06-1.2-1.05c-.56,0-1,.35-1.19,1.06a5.29,5.29,0,0,0-.23,1.76c0,1.88.5,2.83,1.46,2.82.56,0,1-.37,1.18-1.08A5.59,5.59,0,0,0,431.31,356.61Z"/><path class="cls-21" d="M438.93,356.56a5.6,5.6,0,0,1-.56,2.72,2.55,2.55,0,0,1-4.49,0,5.45,5.45,0,0,1-.6-2.72,5.69,5.69,0,0,1,.54-2.71,2.58,2.58,0,0,1,4.52,0A5.68,5.68,0,0,1,438.93,356.56Zm-1.39,0a5.74,5.74,0,0,0-.25-1.75q-.37-1.06-1.2-1.05c-.56,0-1,.35-1.19,1.06a5.29,5.29,0,0,0-.23,1.76q0,2.84,1.47,2.82c.55,0,.95-.37,1.18-1.08A5.9,5.9,0,0,0,437.54,356.57Z"/><path class="cls-21" d="M445.16,356.51a5.65,5.65,0,0,1-.56,2.73,2.56,2.56,0,0,1-4.49,0,5.66,5.66,0,0,1-.6-2.71,5.73,5.73,0,0,1,.54-2.72,2.58,2.58,0,0,1,4.52,0A5.6,5.6,0,0,1,445.16,356.51Zm-1.39,0a5.74,5.74,0,0,0-.25-1.75q-.37-1.06-1.2-1c-.56,0-1,.36-1.19,1.06a5.29,5.29,0,0,0-.23,1.76q0,2.83,1.47,2.82c.55,0,.95-.36,1.18-1.08A5.85,5.85,0,0,0,443.77,356.52Z"/><path class="cls-21" d="M454.6,356.44a5.64,5.64,0,0,1-.55,2.72,2.56,2.56,0,0,1-4.5,0,5.7,5.7,0,0,1-.6-2.72,5.57,5.57,0,0,1,.55-2.71,2.4,2.4,0,0,1,2.25-1.36,2.44,2.44,0,0,1,2.27,1.32A5.64,5.64,0,0,1,454.6,356.44Zm-1.39,0a5.43,5.43,0,0,0-.25-1.74c-.25-.71-.64-1.06-1.19-1.06s-1,.36-1.19,1.07a5.27,5.27,0,0,0-.24,1.76q0,2.82,1.47,2.82c.56,0,.95-.37,1.18-1.08A5.62,5.62,0,0,0,453.21,356.44Z"/><path class="cls-21" d="M460.84,356.39a5.72,5.72,0,0,1-.56,2.72,2.56,2.56,0,0,1-4.5,0,6.7,6.7,0,0,1,0-5.43,2.57,2.57,0,0,1,4.52,0A5.68,5.68,0,0,1,460.84,356.39Zm-1.4,0a5.45,5.45,0,0,0-.25-1.75c-.24-.71-.64-1.06-1.19-1s-1,.35-1.19,1.06a5.54,5.54,0,0,0-.24,1.76q0,2.83,1.47,2.82c.56,0,.95-.37,1.18-1.08A5.59,5.59,0,0,0,459.44,356.4Z"/><path class="cls-21" d="M467.07,356.34a5.65,5.65,0,0,1-.56,2.73,2.56,2.56,0,0,1-4.5,0,6.7,6.7,0,0,1-.05-5.43,2.58,2.58,0,0,1,4.52,0A5.71,5.71,0,0,1,467.07,356.34Zm-1.4,0a5.47,5.47,0,0,0-.24-1.75q-.37-1.07-1.2-1.05c-.57,0-1,.36-1.19,1.06a5.54,5.54,0,0,0-.24,1.76q0,2.83,1.47,2.82c.56,0,1-.36,1.18-1.08A5.28,5.28,0,0,0,465.67,356.35Z"/><path class="cls-21" d="M473.3,356.29a5.65,5.65,0,0,1-.56,2.73,2.56,2.56,0,0,1-4.5,0,5.66,5.66,0,0,1-.6-2.71,5.85,5.85,0,0,1,.55-2.72,2.58,2.58,0,0,1,4.52,0A5.74,5.74,0,0,1,473.3,356.29Zm-1.39,0a5.74,5.74,0,0,0-.25-1.75c-.25-.7-.65-1.06-1.2-1.05s-1,.36-1.19,1.06a5.29,5.29,0,0,0-.23,1.76c0,1.89.5,2.83,1.46,2.82.56,0,.95-.36,1.18-1.08A5.52,5.52,0,0,0,471.91,356.3Z"/><path class="cls-21" d="M396.41,336.08l-29.7.23a2.34,2.34,0,0,1-2.35-2.32h0a2.34,2.34,0,0,1,2.32-2.35l29.69-.23a2.34,2.34,0,0,1,2.36,2.32h0A2.34,2.34,0,0,1,396.41,336.08Z"/><path class="cls-21" d="M481.43,333.09a3.59,3.59,0,0,0-.81-2.24.38.38,0,0,0-.57,0l-.14.14a.38.38,0,0,0,0,.5,2.62,2.62,0,0,1,0,3.26.37.37,0,0,0,0,.5l.14.14a.38.38,0,0,0,.57,0A3.66,3.66,0,0,0,481.43,333.09Z"/><path class="cls-21" d="M483.35,333.07a5.47,5.47,0,0,0-1.4-3.62.38.38,0,0,0-.56,0l-.08.08a.37.37,0,0,0,0,.52,4.65,4.65,0,0,1,0,6.1.38.38,0,0,0,0,.52l.08.08a.38.38,0,0,0,.55,0A5.46,5.46,0,0,0,483.35,333.07Z"/><path class="cls-21" d="M485,333.06a7.19,7.19,0,0,0-1.92-4.83.38.38,0,0,0-.55,0h0a.37.37,0,0,0,0,.52,6.41,6.41,0,0,1,.07,8.66.37.37,0,0,0,0,.52h0a.37.37,0,0,0,.55,0A7.18,7.18,0,0,0,485,333.06Z"/><path class="cls-21" d="M486.86,333.05a8.92,8.92,0,0,0-2.47-6.13.38.38,0,0,0-.55,0l-.14.14a.39.39,0,0,0,0,.53,8.06,8.06,0,0,1,.08,11,.4.4,0,0,0,0,.53l.14.14a.38.38,0,0,0,.55,0A9,9,0,0,0,486.86,333.05Z"/><path class="cls-21" d="M367.54,392.85a2.69,2.69,0,0,1-.26,1.31,1.17,1.17,0,0,1-1.08.65,1.15,1.15,0,0,1-1.09-.63,3.26,3.26,0,0,1,0-2.62,1.18,1.18,0,0,1,1.09-.66,1.16,1.16,0,0,1,1.09.64A2.77,2.77,0,0,1,367.54,392.85Zm-.67,0a2.49,2.49,0,0,0-.12-.84c-.12-.35-.31-.51-.58-.51s-.46.17-.57.51a2.62,2.62,0,0,0-.11.85c0,.91.24,1.36.71,1.36.26,0,.45-.18.57-.52A3,3,0,0,0,366.87,392.85Z"/><path class="cls-21" d="M370.55,392.82a2.84,2.84,0,0,1-.27,1.32,1.15,1.15,0,0,1-1.08.65,1.16,1.16,0,0,1-1.09-.64,2.76,2.76,0,0,1-.29-1.31,2.8,2.8,0,0,1,.27-1.31,1.15,1.15,0,0,1,1.08-.65,1.18,1.18,0,0,1,1.1.64A2.72,2.72,0,0,1,370.55,392.82Zm-.67,0a2.57,2.57,0,0,0-.12-.84c-.12-.34-.31-.51-.58-.51s-.46.18-.57.52a2.55,2.55,0,0,0-.12.85c0,.91.25,1.36.71,1.36.27,0,.46-.18.57-.53A2.83,2.83,0,0,0,369.88,392.82Z"/><path class="cls-21" d="M372.8,391.11a.35.35,0,0,1-.05.18l-1.54,3.25q-.12.24-.3.24a.25.25,0,0,1-.19-.07.31.31,0,0,1-.09-.2.41.41,0,0,1,.05-.18l1.55-3.25a.33.33,0,0,1,.29-.23.27.27,0,0,1,.2.07A.22.22,0,0,1,372.8,391.11Z"/><path class="cls-21" d="M375.61,392.78a2.84,2.84,0,0,1-.27,1.32,1.15,1.15,0,0,1-1.08.65,1.16,1.16,0,0,1-1.09-.64,2.76,2.76,0,0,1-.29-1.31,2.8,2.8,0,0,1,.27-1.31,1.15,1.15,0,0,1,1.08-.65,1.18,1.18,0,0,1,1.1.64A2.72,2.72,0,0,1,375.61,392.78Zm-.67,0a2.6,2.6,0,0,0-.12-.85c-.12-.34-.31-.51-.58-.51s-.46.18-.57.52a2.55,2.55,0,0,0-.12.85c0,.91.25,1.36.71,1.36.27,0,.46-.18.57-.53A2.52,2.52,0,0,0,374.94,392.79Z"/><path class="cls-21" d="M378.62,392.76a2.8,2.8,0,0,1-.27,1.31,1.23,1.23,0,0,1-2.17,0,3.26,3.26,0,0,1,0-2.62,1.25,1.25,0,0,1,2.18,0A2.79,2.79,0,0,1,378.62,392.76Zm-.68,0a2.57,2.57,0,0,0-.12-.84q-.18-.51-.57-.51c-.28,0-.47.17-.58.51a2.62,2.62,0,0,0-.11.85c0,.91.24,1.37.71,1.36.27,0,.46-.17.57-.52A2.61,2.61,0,0,0,377.94,392.76Z"/><path class="cls-21" d="M381.62,392.74a2.57,2.57,0,0,1-.27,1.31,1.24,1.24,0,0,1-2.17,0,3.2,3.2,0,0,1,0-2.62,1.24,1.24,0,0,1,2.18,0A2.77,2.77,0,0,1,381.62,392.74Zm-.67,0a2.49,2.49,0,0,0-.12-.84c-.12-.35-.31-.51-.58-.51s-.46.17-.57.51a2.37,2.37,0,0,0-.11.85c0,.91.24,1.36.7,1.36.27,0,.46-.18.57-.52A2.62,2.62,0,0,0,381,392.74Z"/><path class="cls-21" d="M384.63,392.71a2.84,2.84,0,0,1-.27,1.32,1.15,1.15,0,0,1-1.08.65,1.16,1.16,0,0,1-1.09-.64,2.65,2.65,0,0,1-.29-1.31,2.8,2.8,0,0,1,.26-1.31,1.24,1.24,0,0,1,2.18,0A2.72,2.72,0,0,1,384.63,392.71Zm-.68,0a2.57,2.57,0,0,0-.12-.84q-.18-.51-.57-.51a.64.64,0,0,0-.58.52,2.88,2.88,0,0,0-.11.85c0,.91.24,1.36.71,1.36.27,0,.46-.18.57-.53A2.57,2.57,0,0,0,384,392.71Z"/><polygon class="cls-21" points="475.77 444.68 475.77 588.65 470.84 586.35 465.29 588.65 463.03 586.48 456.11 588.65 451.43 587.28 443.19 588.65 435.58 587.28 426.88 588.65 421.07 586.48 413.04 588.65 406.57 587.28 399.2 588.65 391.39 587.28 386.26 588.65 380.68 587.28 374.38 588.65 374.38 444.68 475.77 444.68"/><path class="cls-9" d="M457.69,465.76h-67.8a1.18,1.18,0,0,1-1.17-1.17h0a1.18,1.18,0,0,1,1.17-1.18h67.8a1.18,1.18,0,0,1,1.17,1.18h0A1.18,1.18,0,0,1,457.69,465.76Z"/><path class="cls-9" d="M457.69,475.65h-67.8a1.18,1.18,0,0,1-1.17-1.17h0a1.18,1.18,0,0,1,1.17-1.18h67.8a1.18,1.18,0,0,1,1.17,1.18h0A1.18,1.18,0,0,1,457.69,475.65Z"/><rect class="cls-9" x="402.7" y="483.19" width="42.19" height="2.35" rx="1.17"/><rect class="cls-9" x="402.7" y="493.08" width="42.19" height="2.35" rx="1.17"/><rect class="cls-9" x="402.7" y="502.97" width="42.19" height="2.35" rx="1.17"/><path class="cls-3" d="M423.86,564.19a21,21,0,1,1,21-21A21,21,0,0,1,423.86,564.19Zm0-40.35a19.34,19.34,0,1,0,19.34,19.33A19.35,19.35,0,0,0,423.86,523.84Z"/><polygon class="cls-3" points="411.63 538.26 424.26 554.69 434.21 530.33 422.37 542.95 411.63 538.26"/><path class="cls-32" d="M243.79,565.35l-.81,1.83a2.82,2.82,0,0,1-.23.42l-.13.18a3.85,3.85,0,0,1-.27.3,1.56,1.56,0,0,1-.2.16,2.62,2.62,0,0,1-1.59.57h-.39l-.23,0a2.36,2.36,0,0,1-.57-.18l-8-3.5a2.73,2.73,0,0,1,1.55,3.16,1.73,1.73,0,0,1-.14.44l-6,13.75a3.85,3.85,0,0,1-.24.4h0c0,.07-.09.12-.13.19l-.08.1-.26.26a2.14,2.14,0,0,1-.26.19l-.12.08a2.75,2.75,0,0,1-1.22.4h-.25l-.27,0-.19,0a2.4,2.4,0,0,1-.6-.18l-3.7-1.63a2.73,2.73,0,0,1,1.55,3.16,1.94,1.94,0,0,1-.14.45l-6,13.74a3.85,3.85,0,0,1-.24.4h0c0,.07-.09.12-.13.19l-.08.1c-.08.09-.17.17-.26.26a2.07,2.07,0,0,1-.25.19l-.13.08a2.71,2.71,0,0,1-1.21.4h-.26a1.15,1.15,0,0,1-.26,0l-.2,0a2.4,2.4,0,0,1-.6-.18l3.7,1.62a2.74,2.74,0,0,1,1.56,3.16,2.59,2.59,0,0,1-.14.45l-6,13.74a1.5,1.5,0,0,1-.23.41,2.79,2.79,0,0,1-.3.38l-.15.15a2.82,2.82,0,0,1-1.33.65l-.26,0h-.27a1.22,1.22,0,0,1-.27,0,1.08,1.08,0,0,1-.19,0,2.29,2.29,0,0,1-.6-.18L198,617.48a2.74,2.74,0,0,1,1.55,3.17,1.87,1.87,0,0,1-.14.44l-6,13.75a2.28,2.28,0,0,1-.36.6c-.1.12-.22.24-.33.35a2.73,2.73,0,0,1-.6.4l-.22.09-.25.09-.25,0-.26,0a1.63,1.63,0,0,1-.54,0,.85.85,0,0,1-.23,0,2.14,2.14,0,0,1-.56-.17l3.78,1.66a2.73,2.73,0,0,1,1.56,3.15,2.69,2.69,0,0,1-.16.45l-6,13.74a2.24,2.24,0,0,1-.22.4,3.12,3.12,0,0,1-.5.58l-.15.11a2.83,2.83,0,0,1-1.57.54h-.19l-.17,0a.59.59,0,0,1-.23,0,2.33,2.33,0,0,1-.57-.17l-7.14-3.13a2.71,2.71,0,0,1,1.56,3.15,1.83,1.83,0,0,1-.15.45l-6,13.74a1.5,1.5,0,0,1-.23.41l-.12.19c-.09.11-.19.2-.28.3a1.75,1.75,0,0,1-.2.16,2.65,2.65,0,0,1-2,.55.59.59,0,0,1-.23,0,2.33,2.33,0,0,1-.57-.17l-20.09-8.82c-.79-1.13-1.54-2.28-2.26-3.46-1-1.56-1.87-3.18-2.71-4.83A70.15,70.15,0,0,1,139,638.79c-.2-.89-.38-1.8-.55-2.71s-.3-1.76-.43-2.67a68.34,68.34,0,0,1-.24-17.51c.09-.77.19-1.56.31-2.33s.24-1.55.38-2.31a68.77,68.77,0,0,1,4.72-15.33h0c.31-.69.62-1.39,1-2.06s.66-1.37,1-2a68.25,68.25,0,0,1,9.1-13.42c.51-.6,1-1.2,1.59-1.77s1.1-1.18,1.67-1.75a69,69,0,0,1,14.41-11.08c.83-.47,1.66-.94,2.51-1.37s1.75-.91,2.65-1.32A69.38,69.38,0,0,1,202,554.66c.48,0,1-.07,1.43-.09,1.28-.06,2.58-.08,3.88-.06,1.85,0,3.7.1,5.56.27l.91.1a68.83,68.83,0,0,1,20.63,5.47l1,.44A69.5,69.5,0,0,1,243.79,565.35Z"/><circle class="cls-16" cx="216.28" cy="628.02" r="69.24" transform="translate(-380.73 336.88) rotate(-45)"/><circle class="cls-33" cx="214.76" cy="627.34" r="54.86" transform="translate(-380.7 335.6) rotate(-45)"/><path class="cls-34" d="M236.8,577.1c-1-.42-1.93-.8-2.9-1.17a54.86,54.86,0,0,1-44,100.31c.93.47,1.87.92,2.83,1.34A54.86,54.86,0,1,0,236.8,577.1Z"/><circle class="cls-16" cx="214.76" cy="627.34" r="36.09" transform="translate(-446.27 679.51) rotate(-75.62)"/><path class="cls-15" d="M235.23,618.61l2.12-4.83-20.17-8.85-7.74-3.39-2.12,4.82,7.74,3.4a8.22,8.22,0,0,1,4.87,8.22l-14.85-6.51L203,616.29l14.84,6.52a8.2,8.2,0,0,1-9.34,2l-7.74-3.4-2.12,4.83,1.55.68a14.36,14.36,0,0,1,5.93,4.78c2.73,3.81,6,10.63,5.17,20.94l5.07,2.23c1.29-11.13-1.51-19-4.55-24.11a13.49,13.49,0,0,0,11-5.74l8.07,3.54,2.12-4.83-8.07-3.54a13.35,13.35,0,0,0-.09-6.13Z"/><circle class="cls-35" cx="613.24" cy="186.81" r="30.94" transform="translate(47.52 488.34) rotate(-45)"/><path class="cls-35" d="M569.12,146.13a8.6,8.6,0,1,1-8.6-8.6A8.6,8.6,0,0,1,569.12,146.13Z"/><circle class="cls-35" cx="291.81" cy="115.19" r="22.92"/><path class="cls-35" d="M248.26,126.07a7.45,7.45,0,1,1-7.44-7.44A7.44,7.44,0,0,1,248.26,126.07Z"/><circle class="cls-35" cx="40.85" cy="252.12" r="16.04"/><circle class="cls-35" cx="40.28" cy="214.31" r="6.88"/><circle class="cls-35" cx="647.97" cy="790.71" r="15.47"/><circle class="cls-35" cx="114.19" cy="636" r="23.49" transform="translate(-530.99 600.28) rotate(-76.65)"/><path class="cls-35" d="M74.09,628a8,8,0,1,1-8-8A8,8,0,0,1,74.09,628Z"/><path class="cls-35" d="M615.68,771a5.16,5.16,0,1,1-5.15-5.16A5.16,5.16,0,0,1,615.68,771Z"/><path class="cls-35" d="M706.06,434.9a6.31,6.31,0,1,1-6.31-6.31A6.31,6.31,0,0,1,706.06,434.9Z"/><path class="cls-35" d="M728.4,404.53a4,4,0,1,1-4-4A4,4,0,0,1,728.4,404.53Z"/><path class="cls-35" d="M707.2,628a8,8,0,1,1-8-8A8,8,0,0,1,707.2,628Z"/><circle class="cls-35" cx="591.62" cy="137.68" r="5.08"/></g></g></svg>