<svg id="Layer_1" data-name="Layer 1" xmlns="http://www.w3.org/2000/svg" viewBox="0 0 750 850"><defs><style>.cls-1{fill:#ffe5c0;opacity:0.6;}.cls-2{fill:#fcd69a;}.cls-3{fill:#8bc53f;}.cls-4{fill:#e1e1e1;}.cls-5{fill:#f5f5f5;}.cls-6{fill:#005263;}.cls-7{fill:#1a2e35;}.cls-8{fill:#f0806d;}.cls-9{fill:#f2ab88;}.cls-10{fill:#182c3c;}.cls-11{fill:#bc584b;}.cls-12{fill:#024149;}.cls-13{fill:#ffb085;}.cls-14{fill:#ff5c55;}.cls-15{fill:#fc988b;}.cls-16{fill:#0e1d28;}.cls-17{fill:#0e2838;}.cls-18{fill:#884627;}.cls-19{fill:#fff;}.cls-20{fill:#dbd8bd;}.cls-21{fill:#351807;}.cls-22{fill:#542913;}.cls-23{fill:#110804;}.cls-24{fill:#e25d5d;}.cls-25{fill:#f4a07a;}</style></defs><path class="cls-1" d="M416.61,0V.09C185.76,4.56,0,193.08,0,425S185.76,845.44,416.61,849.91V850H750V0Z"/><circle class="cls-2" cx="637.99" cy="179.08" r="79.39"/><circle class="cls-2" cx="178.5" cy="137.24" r="79.39"/><path class="cls-3" d="M327,734.62c27.21-23.52,29.94-62.23,25.25-96.3-.78-5.69-.77-11.77-4-16.49s-9.92-7.5-14.78-4.57c-4,2.44-5.37,7.55-7.32,11.88a33.56,33.56,0,0,1-12.07,14.16c-3.43,2.26-7.81,3.88-11.6,2.27-5.2-2.21-6.49-9-7-14.63q-1.53-15.88-3.07-31.75c-.55-5.68-1.13-11.48-3.45-16.68s-6.74-9.81-12.3-10.76-11.91,2.84-12.47,8.52c-.24,2.36.48,4.71.56,7.08s-.74,5.09-2.91,6-4.63-.48-6.5-2c-6.45-5.13-11.19-12.1-15.66-19.06s-8.85-14.1-14.81-19.8-13.83-9.9-22-9.52-16.32,6.29-17.55,14.48,4.27,15.85,10,21.8a127.46,127.46,0,0,0,29,22.42c1.92,1.09,4,2.26,4.9,4.29,1.62,3.66-1.57,7.79-5.18,9.42-4.09,1.84-8.72,1.87-13.09,2.85s-9,3.43-10.21,7.78c-1.73,6,3.75,11.62,8.94,15.11a109.14,109.14,0,0,0,34,15.23c4.33,1.1,8.86,2,12.53,4.57s6.23,7.48,4.61,11.68-6.71,6-11.17,5.67S241,676,236.67,674.82c-8.11-2.14-18.12-.56-22.42,6.69-2.83,4.77-2.48,11-.28,16.08s6,9.32,10.05,13.14c14,13.38,31.24,23.53,50,27.94s35.68,4.38,53-4"/><path class="cls-4" d="M330,759.91a249.45,249.45,0,0,0-14.1-45.81c-6.81-16.74-15.79-34.46-25.83-52.67L282.63,648c-2.47-4.41-4.91-8.79-7.57-12.92a255.15,255.15,0,0,0-16.62-22.86c-5.64-7-11.24-13.48-16.53-19.47s-10.35-11.47-15.16-16.28a203,203,0,0,0-24.37-21c-3.06-2.24-5.49-3.9-7.16-5l-1.9-1.24a4.1,4.1,0,0,0-.66-.39,4.14,4.14,0,0,0,.6.48l1.84,1.33c1.63,1.16,4,2.87,7,5.16A215.07,215.07,0,0,1,226.23,577c4.76,4.83,9.77,10.33,15,16.33s10.83,12.49,16.43,19.5a257.48,257.48,0,0,1,16.51,22.81c2.63,4.11,5.05,8.45,7.52,12.88l7.47,13.45c10,18.2,19,35.87,25.86,52.53a254.82,254.82,0,0,1,14.27,45.59"/><path class="cls-4" d="M274.76,635a12.13,12.13,0,0,0,.3-2.48c.14-1.6.26-3.92.37-6.78.22-5.74.25-13.67.25-22.41s.15-16.65.46-22.36c.14-2.86.28-5.17.4-6.77a10.54,10.54,0,0,0,.06-2.49,11.56,11.56,0,0,0-.46,2.45c-.25,1.58-.5,3.9-.74,6.76-.5,5.72-.76,13.65-.77,22.41s0,16.43.06,22.39c0,2.69,0,5,0,6.78A11.44,11.44,0,0,0,274.76,635Z"/><path class="cls-4" d="M200.38,628.93a15.84,15.84,0,0,0,3,.05c1.89,0,4.62-.08,8,0,6.76,0,16.09.41,26.37,1.27s19.55,2.07,26.23,3.12c3.35.5,6,1,7.91,1.31a16.4,16.4,0,0,0,2.92.4,15.83,15.83,0,0,0-2.84-.81c-1.85-.44-4.53-1-7.87-1.64-6.66-1.25-16-2.56-26.26-3.44a259.76,259.76,0,0,0-26.46-1c-3.39.06-6.13.22-8,.38A15.89,15.89,0,0,0,200.38,628.93Z"/><path class="cls-4" d="M314.91,712.85a4.5,4.5,0,0,0,.41-1l1-2.76c.84-2.41,2-5.93,3.28-10.29,2.66-8.72,5.95-20.89,9.41-34.36s6.63-25.65,9.1-34.42c1.21-4.26,2.21-7.76,3-10.37l.78-2.83a3.55,3.55,0,0,0,.21-1,4.5,4.5,0,0,0-.41.95l-1,2.76c-.84,2.41-2,5.93-3.28,10.29-2.66,8.72-5.95,20.88-9.41,34.36s-6.63,25.65-9.1,34.42c-1.21,4.26-2.21,7.77-3,10.37l-.78,2.83A3.55,3.55,0,0,0,314.91,712.85Z"/><path class="cls-4" d="M214.72,691.6a3.77,3.77,0,0,0,1,.3l2.92.65,10.73,2.29c9.06,1.94,21.54,4.76,35.33,7.9s26.32,5.85,35.42,7.6c4.55.88,8.24,1.55,10.8,2l2.95.46a4.48,4.48,0,0,0,1,.09,3.78,3.78,0,0,0-1-.3L311,711.9l-10.73-2.3c-9.06-1.94-21.54-4.76-35.33-7.9s-26.31-5.84-35.42-7.59c-4.55-.88-8.24-1.55-10.8-2l-3-.45A3.41,3.41,0,0,0,214.72,691.6Z"/><path class="cls-2" d="M230.13,351.34a3.41,3.41,0,0,1-3.06-1.92l-7.29-15.19a3.39,3.39,0,0,1,2.47-4.8,10.45,10.45,0,0,0,6.88-4.71,9.43,9.43,0,0,0,1.45-7.36,9.68,9.68,0,0,0-4.73-5.89,10.83,10.83,0,0,0-8.26-1.14c-5.27,1.57-9,7.74-8.24,13.46a3.38,3.38,0,0,1-6.7.94c-1.26-9,4.57-18.37,13-20.88a17.43,17.43,0,0,1,13.55,1.75,16.43,16.43,0,0,1,8,10.13,16.24,16.24,0,0,1-2.35,12.69,17.73,17.73,0,0,1-7.25,6.36l5.62,11.71a3.38,3.38,0,0,1-1.58,4.51A3.32,3.32,0,0,1,230.13,351.34Z"/><path class="cls-2" d="M237.39,355.7a2.77,2.77,0,1,1-3.72-1.2A2.77,2.77,0,0,1,237.39,355.7Z"/><path class="cls-5" d="M137.68,300.46a2.37,2.37,0,0,1-2.14-1.34l-5.09-10.6a2.37,2.37,0,0,1,1.72-3.35,7.29,7.29,0,0,0,4.81-3.29,6.54,6.54,0,0,0,1-5.14,6.75,6.75,0,0,0-3.3-4.12,7.57,7.57,0,0,0-5.77-.79c-3.68,1.1-6.31,5.4-5.75,9.4a2.36,2.36,0,0,1-4.68.66c-.88-6.29,3.19-12.83,9.08-14.59a12.19,12.19,0,0,1,9.46,1.22,11.53,11.53,0,0,1,5.55,7.08,11.3,11.3,0,0,1-1.64,8.86,12.28,12.28,0,0,1-5.06,4.44l3.92,8.18a2.36,2.36,0,0,1-1.1,3.15A2.33,2.33,0,0,1,137.68,300.46Z"/><path class="cls-5" d="M142.75,303.51a1.93,1.93,0,1,1-2.6-.84A1.93,1.93,0,0,1,142.75,303.51Z"/><path class="cls-2" d="M557.41,306.18a2.38,2.38,0,0,1-.3,2.5l-7.41,9.14a2.35,2.35,0,0,1-3.76-.12,7.33,7.33,0,0,0-5-2.94,6.64,6.64,0,0,0-5.08,1.28,6.8,6.8,0,0,0-2.3,4.75,7.54,7.54,0,0,0,1.75,5.56c2.56,2.85,7.58,3.39,11,1.17a2.36,2.36,0,0,1,2.59,4c-5.3,3.49-13,2.61-17.07-2a12.2,12.2,0,0,1-2.94-9.08,11.5,11.5,0,0,1,4-8,11.31,11.31,0,0,1,8.71-2.31,12.32,12.32,0,0,1,6.19,2.67l5.7-7a2.37,2.37,0,0,1,3.33-.35A2.44,2.44,0,0,1,557.41,306.18Z"/><path class="cls-2" d="M558,300.29a1.94,1.94,0,1,1,.36,2.71A1.94,1.94,0,0,1,558,300.29Z"/><path class="cls-5" d="M532.74,86.76a2.36,2.36,0,0,1-.3,2.5L525,98.4a2.37,2.37,0,0,1-1.92.87,2.34,2.34,0,0,1-1.85-1,7.38,7.38,0,0,0-5-2.94,6.61,6.61,0,0,0-5.08,1.29,6.76,6.76,0,0,0-2.3,4.75,7.51,7.51,0,0,0,1.75,5.55c2.56,2.86,7.58,3.39,10.95,1.18a2.36,2.36,0,0,1,2.6,3.94c-5.3,3.49-13,2.61-17.07-2a12.19,12.19,0,0,1-2.94-9.07,11.51,11.51,0,0,1,4-8.05,11.34,11.34,0,0,1,8.71-2.31,12.35,12.35,0,0,1,6.18,2.68l5.71-7a2.36,2.36,0,0,1,3.32-.35A2.24,2.24,0,0,1,532.74,86.76Z"/><path class="cls-5" d="M533.33,80.87a1.93,1.93,0,1,1,.35,2.71A1.93,1.93,0,0,1,533.33,80.87Z"/><path class="cls-2" d="M428.85,15.62a3.07,3.07,0,0,1,2.77,1.75l6.62,13.78a3.05,3.05,0,0,1,0,2.73A3.11,3.11,0,0,1,436,35.5a9.5,9.5,0,0,0-6.25,4.27,8.61,8.61,0,0,0-1.32,6.69,8.79,8.79,0,0,0,4.3,5.34,9.8,9.8,0,0,0,7.5,1c4.77-1.43,8.2-7,7.47-12.22a3.07,3.07,0,1,1,6.08-.86c1.14,8.17-4.15,16.68-11.8,19a15.82,15.82,0,0,1-12.29-1.59,14.9,14.9,0,0,1-7.22-9.2,14.76,14.76,0,0,1,2.13-11.51,16.18,16.18,0,0,1,6.58-5.78L426.09,20a3.06,3.06,0,0,1,1.44-4.09A3,3,0,0,1,428.85,15.62Z"/><path class="cls-2" d="M422.26,11.66a2.51,2.51,0,1,1,3.38,1.09A2.52,2.52,0,0,1,422.26,11.66Z"/><path class="cls-2" d="M574.19,392.65A3.07,3.07,0,0,1,577,394.4l6.62,13.78a3.05,3.05,0,0,1,0,2.73,3.1,3.1,0,0,1-2.21,1.62,9.54,9.54,0,0,0-6.25,4.27,8.57,8.57,0,0,0-1.31,6.69,8.76,8.76,0,0,0,4.3,5.34,9.77,9.77,0,0,0,7.49,1c4.78-1.43,8.2-7,7.47-12.22a3.08,3.08,0,0,1,2.62-3.47,3.05,3.05,0,0,1,3.46,2.61c1.15,8.17-4.14,16.68-11.79,19a15.85,15.85,0,0,1-12.3-1.59,14.92,14.92,0,0,1-7.21-9.2A14.72,14.72,0,0,1,570,413.45a16.18,16.18,0,0,1,6.58-5.78l-5.1-10.62a3.06,3.06,0,0,1,1.44-4.09A3,3,0,0,1,574.19,392.65Z"/><path class="cls-2" d="M567.6,388.69a2.51,2.51,0,1,1,3.38,1.09A2.51,2.51,0,0,1,567.6,388.69Z"/><path class="cls-3" d="M620.11,481.7s-12.93-9.94-31.8,21.34-26.46,49.56-26.46,49.56-4.86,6.49-9.22,1.71-9.85-17.85-18-16.14c-8.41,1.76-11.78,10.76-11.17,24.38s.84,43.51.85,46.21-1.78,6.43-5.27,3.65-22.91-27.78-34.22-17.86-3.39,47.6-2.61,51.73-.13,5.81-2.13,6.68-7.73-8.16-13.55-15-13.77-13.85-19.81-7.58-9.81,33.84,13.34,80.71l12.14,21,24.38.39c52.22-2.35,74.54-19,77.12-27.28s-7.36-11.93-16.2-13.7S538,689,537.84,686.87s.81-3.79,4.81-5.09,40.82-12.55,44.05-27.25-28.05-19.64-32.17-21.36-1.67-5.1.66-6.37,28.66-15.52,40.88-21.56,18.47-13.34,16-21.56c-2.41-7.92-16.51-6.42-22.8-7.93s-3-8.89-3-8.89,12.33-15.49,30.62-47.11,2.93-38.23,2.93-38.23"/><path class="cls-4" d="M603.17,509.69s-.11.24-.35.68l-1.1,2-4.26,7.51c-3.72,6.52-9.16,15.92-15.92,27.5-13.53,23.17-32.48,55-53.52,90.13s-40.07,66.92-53.71,90l-16.13,27.37-4.39,7.44-1.16,1.93c-.26.43-.41.64-.41.64a7,7,0,0,1,.35-.68l1.09-2,4.27-7.51c3.71-6.51,9.15-15.91,15.92-27.49,13.52-23.17,32.47-55,53.52-90.14s40.07-66.91,53.71-90c6.79-11.54,12.3-20.88,16.12-27.37,1.9-3.21,3.37-5.71,4.39-7.44l1.16-1.93C603,509.9,603.17,509.69,603.17,509.69Z"/><path class="cls-4" d="M541.63,556.76a7.71,7.71,0,0,1,.5,1.68c.27,1.1.62,2.69,1,4.67.82,3.95,1.82,9.43,2.81,15.5l2.47,15.55c.31,1.86.57,3.44.77,4.7a7.92,7.92,0,0,1,.22,1.74,8.19,8.19,0,0,1-.5-1.68c-.27-1.09-.62-2.69-1-4.67-.78-4-1.7-9.45-2.69-15.52s-1.89-11.39-2.58-15.52c-.32-1.87-.59-3.44-.8-4.71A8.2,8.2,0,0,1,541.63,556.76Z"/><path class="cls-4" d="M551.63,601.19c0-.2,11.17-2.75,25-5.69s25.16-5.15,25.2-5-11.17,2.75-25,5.69S551.67,601.4,551.63,601.19Z"/><path class="cls-4" d="M516.88,653.66a7.89,7.89,0,0,1,1.79,0l4.85.37c4.11.3,9.77.69,16,.89s11.94.22,16.05.19l4.88,0a8.78,8.78,0,0,1,1.79.07,7.46,7.46,0,0,1-1.78.22c-1.15.1-2.81.2-4.87.28-4.12.17-9.81.25-16.1,0s-12-.68-16-1.12c-2.05-.23-3.7-.43-4.84-.61A7.94,7.94,0,0,1,516.88,653.66Z"/><path class="cls-4" d="M499,615.46a6.29,6.29,0,0,1,.85,1.42l2.07,4c1.72,3.39,4,8.1,6.57,13.32s4.78,10,6.37,13.42l1.85,4.11a6.25,6.25,0,0,1,.59,1.55,7,7,0,0,1-.85-1.42l-2.07-4c-1.72-3.39-4-8.1-6.57-13.32s-4.78-10-6.37-13.42l-1.85-4.1A6.6,6.6,0,0,1,499,615.46Z"/><path class="cls-4" d="M462.43,657.87a12.76,12.76,0,0,1,1.07,1.84l2.67,5.11c2.22,4.34,5.25,10.35,8.55,17s6.26,12.71,8.36,17.11l2.46,5.22a13.06,13.06,0,0,1,.81,2,10.7,10.7,0,0,1-1.08-1.83l-2.67-5.11c-2.22-4.34-5.25-10.35-8.55-17s-6.26-12.71-8.36-17.11l-2.46-5.22A10.63,10.63,0,0,1,462.43,657.87Z"/><path class="cls-4" d="M486.1,704.81a13.21,13.21,0,0,1,2.27,0l6.18.24c5.21.19,12.41.44,20.37.48s15.16-.08,20.38-.22l6.18-.16a13.39,13.39,0,0,1,2.27,0,14.19,14.19,0,0,1-2.26.27c-1.45.12-3.56.26-6.17.39-5.22.28-12.43.5-20.41.45s-15.18-.38-20.39-.71c-2.61-.17-4.72-.33-6.17-.48A13.55,13.55,0,0,1,486.1,704.81Z"/><path class="cls-6" d="M655.11,190.7l-5,.33-9.93,16,.67,10s-7.71,1-7.67-12.17-.73-9.75-.73-9.75-16.45,1-17.91-.31c-1.06-1-2.59-17.28-3.36-26.13-.38-4.45,2.08-8.78,6.16-10.11a7.27,7.27,0,0,1,1.75-.36c4.1-.27,25.28,1.67,25.28,1.67l8.66-.57Z"/><polygon class="cls-6" points="669.63 192.49 664.27 158.43 655.69 159 657.92 192.58 669.63 192.49"/><path class="cls-7" d="M321.47,225.86c0,.08-.62.19-1.61.71a7.85,7.85,0,0,0-3.25,3.33,6.62,6.62,0,0,0,.09,6.56,6.93,6.93,0,0,0,12.87-1.78,6.63,6.63,0,0,0-1.69-6.33,7.84,7.84,0,0,0-4-2.33c-1.1-.23-1.75-.17-1.75-.25a3.71,3.71,0,0,1,1.81-.09,8,8,0,0,1,6.29,5.18,7,7,0,0,1,.15,4,7.7,7.7,0,0,1-14.35,2,7.11,7.11,0,0,1-.95-3.91,8,8,0,0,1,4.66-6.69A3.58,3.58,0,0,1,321.47,225.86Z"/><path class="cls-8" d="M197.35,133.52h-5.43L180.06,117V106.16s-8.4-.52-7.41,13.68-.08,10.58-.08,10.58-17.83.07-19.31,1.62c-1.08,1.13-1.57,18.84-1.75,28.44-.09,4.84,2.87,9.33,7.37,10.48a7.91,7.91,0,0,0,1.92.25c4.44,0,27.16-3.61,27.16-3.61h9.39Z"/><polygon class="cls-8" points="212.9 130.54 209.56 167.7 200.25 167.7 200.25 131.29 212.9 130.54"/><path class="cls-6" d="M512.43,90.78l-.06,0A2.53,2.53,0,0,1,511,87.45l8.83-20.66a2.55,2.55,0,0,1,1.72-1.46,2.5,2.5,0,0,1,2.19.49A16,16,0,0,0,536.09,69a14.63,14.63,0,0,0,10-5.85,14.9,14.9,0,0,0,2.06-11.46,16.21,16.21,0,0,0-7-10.57c-7.11-4.49-17.56-2.71-23.31,3.94a2.52,2.52,0,1,1-3.81-3.3c7.3-8.46,20.68-10.66,29.81-4.92a21.34,21.34,0,0,1,9.25,13.85,20,20,0,0,1-2.87,15.35,19.66,19.66,0,0,1-13.44,8,21.43,21.43,0,0,1-13.48-2.43l-7.64,17.85A2.52,2.52,0,0,1,512.43,90.78Z"/><path class="cls-6" d="M512,102.54a3.69,3.69,0,1,1-2.06-4.8A3.68,3.68,0,0,1,512,102.54Z"/><path class="cls-6" d="M154.82,430.4a17.51,17.51,0,0,1-10.52-3.35,16.92,16.92,0,0,1-6.44-11.56,15.9,15.9,0,0,1,3.29-12A15.63,15.63,0,0,1,152.34,398a17,17,0,0,1,10,2.44l6.66-12.6a2.52,2.52,0,1,1,4.46,2.35l-8,15.24a2.55,2.55,0,0,1-1.83,1.32,2.5,2.5,0,0,1-2.14-.67,11.72,11.72,0,0,0-8.77-3.05,10.64,10.64,0,0,0-7.6,3.63,10.83,10.83,0,0,0-2.17,8.19,11.86,11.86,0,0,0,4.46,8.13c4.85,3.63,12.77,2.94,17.3-1.51a2.52,2.52,0,0,1,3.54,3.6A19.18,19.18,0,0,1,154.82,430.4Z"/><path class="cls-6" d="M173.14,378.36a2.83,2.83,0,1,1,1.28,3.8A2.83,2.83,0,0,1,173.14,378.36Z"/><path class="cls-6" d="M664.06,387.94a2.52,2.52,0,0,1-2-1.05l-10.09-14a2.52,2.52,0,0,1,1.17-3.85,11.69,11.69,0,0,0,6.63-6.5,10.66,10.66,0,0,0,.12-8.43,10.88,10.88,0,0,0-6.39-5.57,11.86,11.86,0,0,0-9.25.39c-5.41,2.74-8.3,10.15-6.32,16.18a2.52,2.52,0,1,1-4.79,1.58c-2.77-8.42,1.19-18.4,8.83-22.26a16.93,16.93,0,0,1,13.22-.65,15.92,15.92,0,0,1,9.3,8.27,15.67,15.67,0,0,1-.07,12.45,17.13,17.13,0,0,1-6.62,7.85l8.36,11.55a2.53,2.53,0,0,1-.57,3.52A2.56,2.56,0,0,1,664.06,387.94Z"/><path class="cls-6" d="M672.78,391.9a2.83,2.83,0,1,1-4-.53A2.83,2.83,0,0,1,672.78,391.9Z"/><ellipse class="cls-2" cx="399.46" cy="812.22" rx="140.91" ry="11.59"/><path class="cls-8" d="M350,171.74s-47.11,15.06-51.43,24.43-1.08,96.21,4,108.1c0,0,21.62,24.86,31.35,21.61,0,0,19.85-20.63,20.56-41.48,0,0-18.66,12.56-25.91,4s-6.9-23.77-6.9-23.77l41.6-60.95V190.77Z"/><path class="cls-9" d="M450.47,769.48l19,1.64s13.13,17,16.41,19.49,24.42,7.39,23.6,11.29-5.95,8.41-13.95,7.59-14.78-1.44-17.85-2.46a198.22,198.22,0,0,0-30.32-6.63,4.14,4.14,0,0,1-3.44-3C446.88,789.31,447.69,780.94,450.47,769.48Z"/><path class="cls-10" d="M447.39,778.87c6.86,2.68,11.49,4.65,17.2,4.33a7.24,7.24,0,0,0,1-.13c5.21,4.83,10.07,8.09,8.45,5.08-.67-1.23-2.58-4.07-3.67-6.41a38.11,38.11,0,0,0,5.79-3c4.14,5.11,11.26,10.54,13.1,11.92,3.7,2.77,27.49,8.31,26.57,12.7s-6.7,9.48-15.71,8.55a288.21,288.21,0,0,1-30.49-5.38,13.05,13.05,0,0,0-8.85-3.57,15.89,15.89,0,0,0-3.24.32c-3-.58-6.21-1.13-9.62-1.6a4.66,4.66,0,0,1-4-4.31C443.62,793,445.92,785.56,447.39,778.87Z"/><path d="M444.05,794.1c2.32.62,5.18.91,10,2,13.43,3,13.88,6.9,18.89,8.45,13.8,4.24,25.16,4.71,28.47,4.4,5,.06,10.72-1.2,14.44-5.92a1.13,1.13,0,0,1,0,.32c-.92,4.39-6.7,9.48-15.71,8.55a288.21,288.21,0,0,1-30.49-5.38,13.05,13.05,0,0,0-8.85-3.57,15.89,15.89,0,0,0-3.24.32c-3-.58-6.21-1.13-9.62-1.6a4.66,4.66,0,0,1-4-4.31C443.89,797.2,444.05,794.1,444.05,794.1Z"/><path class="cls-9" d="M345.06,769.48l-19,1.64s-13.13,17-16.41,19.49S285.26,798,286.08,801.9s5.95,8.41,13.95,7.59,14.77-1.44,17.84-2.46a198.53,198.53,0,0,1,30.32-6.63,4.14,4.14,0,0,0,3.44-3C348.65,789.31,347.84,780.94,345.06,769.48Z"/><path class="cls-10" d="M348.14,778.87c-6.86,2.68-11.49,4.65-17.19,4.33a7.17,7.17,0,0,1-1-.13c-5.21,4.83-10.07,8.09-8.45,5.08.67-1.23,2.58-4.07,3.67-6.41a38.11,38.11,0,0,1-5.79-3c-4.14,5.11-11.26,10.54-13.1,11.92-3.69,2.77-27.49,8.31-26.57,12.7s6.7,9.48,15.71,8.55a288.21,288.21,0,0,0,30.49-5.38,13.05,13.05,0,0,1,8.85-3.57,15.89,15.89,0,0,1,3.24.32c3-.58,6.21-1.13,9.62-1.6a4.66,4.66,0,0,0,4-4.31C351.91,793,349.62,785.56,348.14,778.87Z"/><path d="M351.48,794.1c-2.32.62-5.17.91-10,2-13.43,3-13.87,6.9-18.89,8.45-13.8,4.24-25.16,4.71-28.47,4.4-5,.06-10.72-1.2-14.44-5.92a1.13,1.13,0,0,0,0,.32c.93,4.39,6.7,9.48,15.71,8.55a288.21,288.21,0,0,0,30.49-5.38,13.05,13.05,0,0,1,8.85-3.57,15.89,15.89,0,0,1,3.24.32c3-.58,6.21-1.13,9.62-1.6a4.66,4.66,0,0,0,4-4.31C351.64,797.2,351.48,794.1,351.48,794.1Z"/><path class="cls-6" d="M311.66,439.81s4.07,108.91,8.74,143.76c0,0-4.25,20.83,0,31.45C321.58,626.5,316,629.9,316,629.9L316.11,771s17,9.78,32.34,8.5c0,0,3.4-46.33,12.33-79.06,4-32.3,0-76.08,0-76.08s14.88-53.55,27.63-134.74c0,0,8.07-4.67,11,2.13,0,0,20.83,133,29.33,145.36,0,0-8.5,55.06,18.7,142.51,0,0,17.85,2.43,27.2-9.47,0,0-10.62-178.09-5.52-233.35,2.23-54,0-91.81,0-91.81l-18.71-15.72Z"/><path class="cls-8" d="M305.61,253.18l6.05,186.63s11.4,11.17,78.3,9L392.57,435l8.3,14.07s49.45-15.56,65.45-32.28l-3.64-56s31.27,0,37.09,4.36l5.09-28.36s-9.45-105.44-13.82-120c0,0-1.45-27.63-29.81-32,0,0-34.91-3.64-43.63-26.91l-54.54-3.64A134.85,134.85,0,0,1,350,171.74"/><path class="cls-11" d="M462.68,360.81V332.45s33.45-.73,42.18,4.36l-5.09,28.36S488.14,360.81,462.68,360.81Z"/><path class="cls-11" d="M477.88,203.37s-14.66,55.47-10.2,74.59l4.68,13.39s3.92-19.76,11.41-23.59c0,0-12.32,32.52-8.47,47.18,0,0,8.32-11.47,16-7.65,0,0-22.95,9.43-16.58,25.12l-12,0s4.52,20.91-7.75,72.39c0,0,2.55-33.79,0-49.73,0,0-6.38,15.94-19.13,23.59,0,0,30.81-40.17,26.88-88.62S470.23,222.5,477.88,203.37Z"/><path class="cls-12" d="M399.46,491.76l41.47,144,22.6,142.11-16,1.75S425.21,709,428.79,637.12C428.79,637.12,410.05,574.44,399.46,491.76Z"/><path class="cls-13" d="M495.69,364l-26.52,81s-5.7,21.54-27.58,4.08,4-27.48,4-27.48,9.25-1,17.14-60.79C462.68,360.81,484.55,359.14,495.69,364Z"/><path class="cls-12" d="M348.45,779.51s3.44-51.65,13-85.83c0,0,.21-45.12-.7-69.31,0,0,20.33-76.22,24.86-117.75L348.45,630.5s-15.57,127.69-11.63,148.2C336.82,778.7,345,780.26,348.45,779.51Z"/><path class="cls-12" d="M432.89,436.94s1.77,15.51,33.84,21.48C466.73,458.42,434.26,461.52,432.89,436.94Z"/><path class="cls-14" d="M388.81,188.12c27.18,0,39.48-5.07,43-6.27-6.43-7.09-8.8-16-9.67-21.63a6.4,6.4,0,0,0-6.31-5.43H365.51a4.57,4.57,0,0,0-4.53,4c-.72,5.72-3.1,16.39-11,24.25C351.82,183.49,372.07,188.12,388.81,188.12Z"/><path class="cls-13" d="M363.06,166s-9.61,39.49,23.83,50.42l3.75,32.08,4.72-31.18s29.18-6.85,23.38-51.32C418.74,166,398.28,213.75,363.06,166Z"/><path class="cls-15" d="M430.79,207.41l-17.85-14-14.66,14-5.1,16.36V198.91s26.89-10.19,25.56-44.63l13.09,17.46Z"/><polygon class="cls-11" points="428.57 205.38 413.29 193.38 398.63 207.41 394.37 221.09 403.48 204.52 428.57 205.38"/><path class="cls-15" d="M351,207.41l17.86-14,14.66,14,5.1,16.36V198.91s-26.9-10.19-25.56-44.63L350,171.74Z"/><polygon class="cls-11" points="353.58 205.38 368.86 193.38 383.52 207.41 387.79 221.09 378.67 204.52 353.58 205.38"/><path class="cls-13" d="M346.93,127.09c5-6.74,16.25,4.23,16.25,4.23s7,8.18-1.16,18.07c-4.07,4.94-8.78,1.21-11.93-4.67S343.38,131.89,346.93,127.09Z"/><path class="cls-14" d="M354.08,145.4a4.7,4.7,0,0,0,4.15,1.7,1.64,1.64,0,0,0,1.15-1.74c-.48-1.46-5.14-4.07-4-8.15s-4.06-8.07-5.69-5.8C348.44,133.18,350,141.24,354.08,145.4Z"/><path class="cls-13" d="M435.42,127.09c-5-6.74-16.25,4.23-16.25,4.23s-7,8.18,1.15,18.07c4.08,4.94,8.79,1.21,11.94-4.67S439,131.89,435.42,127.09Z"/><path class="cls-14" d="M428.27,145.4a4.71,4.71,0,0,1-4.15,1.7,1.64,1.64,0,0,1-1.15-1.74c.47-1.46,5.14-4.07,4-8.15s4.06-8.07,5.7-5.8C433.91,133.18,432.37,141.24,428.27,145.4Z"/><path class="cls-13" d="M428,95.13c-1-5.51-4.75-10.17-9.52-14a43.37,43.37,0,0,0-54.35,0c-4.77,3.81-8.54,8.47-9.53,14,0,0-2.34,43.32,8.47,59.94,8.37,12.86,18.91,19.84,28.23,19.84s19.86-7,28.23-19.84C430.32,138.45,428,95.13,428,95.13Z"/><path class="cls-16" d="M358.29,129.94c-1.19-19,.85-33,1.94-34.71A42.36,42.36,0,0,0,372.81,78.5s15.58,7.56,40.24,4.54c0,0,4.59,6.45,8.74,13.1,2,3.21,2.88,21.73,2.32,33.74a5.92,5.92,0,0,0,1.89,4.66l.81.73c3-6.15,6.05-32.07,4.51-40.64C427,70.47,409.51,67.92,392.13,67.92a49.44,49.44,0,0,0-20.94,4.79c-1.34-.39-3.37-.86-3.34-1.13-9.29.62-14.05,13.84-16.8,23s1.47,34.49,4.51,40.64h0A5.81,5.81,0,0,0,358.29,129.94Z"/><path class="cls-17" d="M368.34,81.2c.88.38,1.75.78,2.59,1.2a39.18,39.18,0,0,0,1.88-3.9s15.58,7.56,40.24,4.54c0,0,3.89,5.48,7.75,11.54a34.71,34.71,0,0,0,9.48-4.47c-5.62-20-21.92-22.19-38.15-22.19a49.44,49.44,0,0,0-20.94,4.79c-1.34-.39-3.37-.86-3.34-1.13a11.37,11.37,0,0,0-7.29,3.62l.09.11A20,20,0,0,0,368.34,81.2Z"/><path class="cls-16" d="M432.11,66.94c0,8.49-13.93,4.92-32.14-5.35-17.85-10.07-26.72-1.33-30.32,4.46a36.53,36.53,0,0,1,4.18-11.61c-9.25,4.35-8.63,11.88-7.41,16-3.29-.66-8.21-.83-12.05,2.59,0,0,9.43-1.48,12.9,1.5.45.39,1.91,1.07,2.08,1.23,9.76,10.74,19.41,16,39.51,14.51,11.11-.81,14.81-2.1,20.09-7.75C435.21,75.88,432.11,66.94,432.11,66.94Z"/><path class="cls-17" d="M408.86,90.32c10.47-.76,14.36-1.95,19.19-6.81-7.19.61-15.3-2.43-20.86-7.42-.18,2.77,1.2,6.47,4.9,10.72-8.87-1.48-16.75-4.25-24.15-10.17,1.48,3,3,7.86,4.47,9.33-4.59,0-16.8-5.34-19.54-6.57C381.57,87.68,391.16,91.6,408.86,90.32Z"/><path class="cls-18" d="M401.07,99.48s10.54,1.37,12.85,2.91,6.86,6.85,6.2,8.4-8.29-3.84-9.35-3.85-11-1.39-11.57-2.94C398.6,102.22,399.32,99.16,401.07,99.48Z"/><path class="cls-18" d="M379.86,99.75s-10.59,1.07-12.92,2.55-7,6.64-6.36,8.2,8.38-3.6,9.44-3.58,11.09-1.08,11.64-2.61C382.29,102.55,381.62,99.47,379.86,99.75Z"/><path class="cls-17" d="M358,115.48a24.52,24.52,0,0,1-7.08-1.31c1,8.92,3,17.78,4.67,21.1h0a5.81,5.81,0,0,0,2.7-5.32C358,124.67,357.89,119.82,358,115.48Z"/><path class="cls-17" d="M424.17,115.86c.15,4.84.13,9.82-.06,14a5.92,5.92,0,0,0,1.89,4.66l.81.73c1.71-3.46,3.4-13.17,4.29-22.54A21.52,21.52,0,0,1,424.17,115.86Z"/><path class="cls-19" d="M397,121.58a13.73,13.73,0,0,1,3.82-2.68,10.81,10.81,0,0,1,6.12-.9,8,8,0,0,1,5.12,2.13,7.35,7.35,0,0,0,2.13,1.74,22.68,22.68,0,0,1-4.21,2c-4.51.92-8.71-.84-13.18-1.94l.62,0"/><path class="cls-20" d="M412.15,121.68a7.93,7.93,0,0,0-5.12-2.13,10.82,10.82,0,0,0-6.12.9,16,16,0,0,0-2.75,1.71l-1.32-.34c.21,0,.11,0,.32,0l-.61-.15a17.18,17.18,0,0,1,4.31-2.85,10.82,10.82,0,0,1,6.12-.9,7.88,7.88,0,0,1,5.12,2.13,7.26,7.26,0,0,0,2.14,1.74c-.39.18-.83.43-1.29.68C412.68,122.21,412.42,121.93,412.15,121.68Z"/><path class="cls-21" d="M405.5,120.92a3.4,3.4,0,1,1,3.4,3.39A3.38,3.38,0,0,1,405.5,120.92Z"/><path class="cls-22" d="M406.7,121.72a2.24,2.24,0,1,1,2.2,1.77A2,2,0,0,1,406.7,121.72Z"/><path d="M407.54,120.91a1.36,1.36,0,1,1,1.36,1.36A1.35,1.35,0,0,1,407.54,120.91Z"/><path class="cls-19" d="M409.42,120.25a.68.68,0,1,1,.68.68A.69.69,0,0,1,409.42,120.25Z"/><path class="cls-23" d="M397,121.58a29.47,29.47,0,0,1,5.57-3.31s5.95-.75,8.84,1.52c.61.47,2.09,1.79,2.09,1.79l1.81-.18c-.18-.53-.7-1.6-2.73-3-2.31-1.64-10.22-1.47-10.22-1.47s-4.53,3.25-6,4.73"/><path class="cls-14" d="M413.5,121.58c-1.08.62-.85.73-2,1.15a13.24,13.24,0,0,1-6.15.86,45.92,45.92,0,0,1-6.69-1.28c-.65-.2-1.8-.94-2.3-.69.13.34.6.48,1,.6,2.78,1,5.84,2.29,8.8,2.51a12.28,12.28,0,0,0,4.86-.56,9,9,0,0,0,4.36-2.77"/><path class="cls-19" d="M383.35,121.58a13.88,13.88,0,0,0-3.82-2.68,10.83,10.83,0,0,0-6.12-.9,8,8,0,0,0-5.13,2.13,7.22,7.22,0,0,1-2.13,1.74,23,23,0,0,0,4.21,2c4.51.92,8.71-.84,13.18-1.94l-.62,0"/><path class="cls-20" d="M368.19,121.68a8,8,0,0,1,5.13-2.13,10.83,10.83,0,0,1,6.12.9,15.89,15.89,0,0,1,2.74,1.71l1.32-.34c-.21,0-.11,0-.32,0l.62-.15a17.18,17.18,0,0,0-4.31-2.85,10.83,10.83,0,0,0-6.12-.9,7.92,7.92,0,0,0-5.13,2.13,7.22,7.22,0,0,1-2.13,1.74c.38.18.82.43,1.28.68C367.66,122.21,367.92,121.93,368.19,121.68Z"/><path class="cls-21" d="M380.67,120.67A3.36,3.36,0,1,0,377.3,124,3.37,3.37,0,0,0,380.67,120.67Z"/><path class="cls-22" d="M379.48,121.46a2.22,2.22,0,1,0-2.17,1.75A2,2,0,0,0,379.48,121.46Z"/><path d="M378.65,120.66a1.34,1.34,0,1,0-1.34,1.34A1.33,1.33,0,0,0,378.65,120.66Z"/><path class="cls-19" d="M378.79,120.39a.67.67,0,1,0-.67.67A.67.67,0,0,0,378.79,120.39Z"/><path class="cls-23" d="M383.35,121.58a29.74,29.74,0,0,0-5.58-3.31s-5.94-.75-8.84,1.52c-.61.47-2.08,1.79-2.08,1.79L365,121.4c.17-.53.69-1.6,2.73-3,2.3-1.64,10.21-1.47,10.21-1.47s4.54,3.25,6,4.73"/><path class="cls-14" d="M366.85,121.58c1.07.62.84.73,2,1.15a13.28,13.28,0,0,0,6.16.86,45.53,45.53,0,0,0,6.68-1.28c.66-.2,1.8-.94,2.31-.69-.14.34-.61.48-.95.6-2.79,1-5.85,2.29-8.81,2.51a12.26,12.26,0,0,1-4.85-.56A8.94,8.94,0,0,1,365,121.4"/><path class="cls-24" d="M380.93,136.87c0,1.1,4.52,2.32,9.19,2.34s8.57-1.51,8.57-2.61c0-.61-.84-1.16-3.15-1.17-1.51,0-3.57,2.41-5.68,2.41s-4.68-2.87-6.19-2.54S380.93,136.3,380.93,136.87Z"/><path class="cls-11" d="M314.57,314.59s7.61,13.07,20.07,16.41c0,0,13.38-8.32,23.72-45.93l10.34-37.61Z"/><path class="cls-11" d="M338.24,240.21s-12.68-29.92-28.89-41.45c0,0,16.57,24.86,18,35,0,0-1.26,15.49-3.87,19.46,0,0-15.23-6.13-15.95,0,0,0,11.53,2.88,10.45,6.12,0,0-15.5,4.68-14.77,11.17,0,0,7.56-6.85,13.69-5.76,0,0-12.25,11.16-11.53,20.17,0,0,11.17-20.25,16.21-22Z"/><path class="cls-11" d="M311.66,274.43,310,293.91s16.33,12.77,27.62,13.38l14-11.27s3.08-7,2.78-13.36c0,0-20.68,18.24-29.8-2.13,0,0-3.58-12.86-3-17.68C321.6,262.85,317.54,264.58,311.66,274.43Z"/><path class="cls-25" d="M321.6,262.85s34.83-44.5,41.6-61V179.59l-5.75-14s.56-6.08,5.75-2.73a16.92,16.92,0,0,1,6.71,7.6s12.77-16.42,18.85-13.38c3.65,6.69-2.43,11.86-2.43,11.86s10.64-2.43,9.73,6.69c0,0,6.39,2.13,3.95,9.42,0,0,4.15,1.52.56,7.3,0,0-7.85,5.78-6.33,10.64s-13.38,14.5-13.38,14.5l-26.45,65.16s-15.21,10.95-24,5.47S321.6,262.85,321.6,262.85Z"/><path class="cls-14" d="M396.06,175.64s-9.73-.42-14.44,5.42A30.44,30.44,0,0,1,396.06,175.64Z"/><path class="cls-14" d="M386.33,169s-10.14,1.31-13.73,8.09C372.6,177,376.48,171.81,386.33,169Z"/><path class="cls-14" d="M400,185.06s-7.37-1.17-11.17,4.76C388.84,189.82,392.24,185.74,400,185.06Z"/><path class="cls-14" d="M395.68,153.78a7.59,7.59,0,0,1,5,1.41.54.54,0,0,1,.13.65.32.32,0,0,1-.51.14c-.18-.14-4.37-3.38-8.77.88a.33.33,0,0,1-.53-.1.55.55,0,0,1,.05-.66A7.67,7.67,0,0,1,395.68,153.78Z"/><path class="cls-14" d="M385.43,154.27a2,2,0,0,1-1.51-.67,2,2,0,0,1,.15-2.86c.33-.3,8.21-7.21,20.05-2.93a2,2,0,0,1-1.38,3.81c-9.58-3.46-15.9,2.08-16,2.13A2,2,0,0,1,385.43,154.27Z"/></svg>