<?xml version="1.0" encoding="UTF-8"?>
<svg width="128" height="128" id="Layer_1" xmlns="http://www.w3.org/2000/svg" viewBox="0 0 1080 1080">
  <defs>
    <style>
      .cls-1 {
        fill: #042b62;
      }

      .cls-2 {
        fill: #fbfbfb;
      }

      .cls-3 {
        fill: none;
        stroke: #000;
        stroke-width: 24px;
      }

      .cls-3, .cls-4 {
        stroke-miterlimit: 10;
      }

      .cls-4 {
        fill: #fff;
        stroke: #042b62;
        stroke-width: 5px;
      }

      .cls-5 {
        fill: #e6e6e7;
      }

      .cls-6 {
        fill: #fefefe;
      }

      .cls-7 {
        fill: #fdfdfd;
      }
    </style>
  </defs>
  <circle class="cls-3" cx="561.5" cy="546.5" r="408.5"/>
  <g>
    <path class="cls-1" d="M835.26,575.89c-6.27-1.98-12.79-1.84-19.24-2.43-8.74-.81-17.04-3.49-25.34-6.17-2.17-.31-2.53-2.07-2.98-3.75-2.2-8.2-6.28-15.4-11.58-21.99-4.4-5.49-9.76-9.66-16.04-12.72-2.37-1.16-4.86-2.13-6.81-4.01-.98-1.87-.28-3.25,1.2-4.5,12.62-10.71,21.27-24.19,27.31-39.45,1.18-2.99,2.92-4.85,6.21-5.97,6.01-2.03,8.67-7.44,10.92-12.94.38-.93.02-1.82-.59-2.6-.85-.72-1.8-.99-2.79-1.09-1.28-.12-2.62.06-3.88-.1-.66-.07-1.31-.24-1.92-.6-10.13-.98-19.73-3.96-28.95-8.06-28.47-12.66-48.35-33.67-60.29-62.34-.6-1.44-1.11-2.95-2.3-4.48-8.29,22.19-21.73,40.35-40.43,54.57-2.44.27-3.63,2.4-5.43,3.62-1.18.81-2.31,1.72-3.76,2.04-2.54,1.29-3.65,3.46-3.44,6.18.67,8.95,3.34,17.09,9.97,23.52,1.15,1.12,2.37,2.36,3.96,2.49,3.89.32,5.22,3.06,6.42,6.12,3.86,9.92,9.15,19.02,15.74,27.39,3.21,4.07,7.03,7.53,10.76,11.1,1.18,1.13,2.38,2.12,2.16,3.96-.13.63-.46,1.13-.95,1.52-2.45,1.6-5.25,2.5-7.81,3.86-12.35,6.56-20.02,16.99-24.75,29.88-.72,1.99-1.35,4.02-2.04,6.02-.46,1.33-1.06,2.45-2.7,2.44-11.83,4.72-24.28,6.21-36.86,7.1-2.49.17-4.93.93-7.38,1.4,14.93-32.82,21.82-67.69,25.93-103.21,2.65-22.88,4.73-45.81,7.27-68.71,3.89-35.25,30.1-61.28,65.4-65.23,19.43-2.16,38.19.11,55.45,9.7,21.41,11.91,32.55,30.9,35.84,54.71,3.77,27.14,5.59,54.52,9.46,81.66,4.37,30.66,10.88,60.74,23.66,89.17.27.6.39,1.26.59,1.89Z"/>
    <path class="cls-5" d="M761.16,561.86c-6.5,31.98-19.33,61.5-35.19,89.83-.63,1.13-1.37,2.94-2.23,3.04-1.63.19-1.9-1.88-2.56-3.06-15.87-28.31-28.74-57.82-35.21-89.82,2.46-2.32,6.2-2.23,9.68.45,1.06.83,2.14,1.6,3.33,2.14.44.2.88.37,1.36.5.17.09.32.17.46.28,1.1.77,1.36,2.07,1.81,3.28,6.77,18.39,12.97,36.98,20.68,55.62,1.95-4.36,3.5-8.46,5.05-12.54,5.26-13.86,10.18-27.85,15.05-41.86.51-1.45.85-3.02,2.13-4.09.02-.03.05-.05.09-.07.71-.22,1.37-.54,2.01-.91,2.52-1.46,4.62-3.71,7.65-4.2,2.15-.34,4.47-1.28,5.88,1.43Z"/>
    <path class="cls-2" d="M794.15,594.35c-3.86-5.13-6.89-9.38-10.18-13.43-3.5-4.31-7.26-8.41-10.89-12.6-3.17-3.63-7.1-5.87-11.92-6.46-5.78-.61-10.33,2.09-14.64,5.44-.61-.56-.89-1.13-.99-1.67-.21-1.31.73-2.53,1.38-3.67,2.17-3.8,4.95-7.19,7.51-10.71,1.74-2.39,3.22-4.89,2.69-8.05.63-1.93.88-3.63.76-5.18-.11-1.3-.47-2.48-1.12-3.6-.79-1.37-1.99-2.63-3.63-3.84-.49-.67-.83-1.42-.88-2.23-.02-.12-.02-.24-.02-.37.14-.73.22-1.5.49-2.17.23-.63.64-1.17,1.37-1.54,20.51,7.27,31.66,22.51,36.59,43.04,1.12,8.62,2.22,17.24,3.48,27.06Z"/>
    <path class="cls-2" d="M700.8,565.22c-.09.45-.31.89-.72,1.34h-.01c-4.46-2.31-8.67-5.29-14.1-4.7-5.01.48-8.97,2.85-12.31,6.54-6.4,7.1-12.34,14.57-18.06,22.23-.76,1.01-1.23,2.35-2.76,2.87,1.02-8.78,2.03-17.44,3.04-26.09,2.48-9.35,5.86-18.27,11.99-25.94,6.04-7.56,13.18-13.59,22.55-16.64.74-.24,1.45-.69,2.24-.19.81.43,1.24,1.11,1.4,1.99.11,1.54-.6,2.77-1.62,3.82-.62.64-1.13,1.33-1.55,2.05,0,.01-.01.02-.01.03-.61,1.03-1.05,2.13-1.43,3.25-.02.05-.04.11-.06.16-.54,1.64-.97,3.32-1.59,4.93h0c-.06.17-.13.34-.19.5-.11.26-.13.49-.1.72h0c.09.64.54,1.21.9,1.77,1.03,4.38,3.67,7.83,6.47,11.2,1.85,2.24,3.48,4.66,4.98,7.16.59.97,1.12,1.97.92,3Z"/>
    <path class="cls-6" d="M754.09,524.25c-.14,1.35-.29,2.69-.43,4.04-.48-.02-.96,0-1.42.04-.02-.12-.02-.24-.02-.37.14-.73.22-1.5.49-2.17.23-.63.64-1.17,1.37-1.54Z"/>
    <path class="cls-6" d="M800.03,457.32c-.51-.06-1.03-.13-1.54-.2.48,0,.99.06,1.54.2Z"/>
    <path class="cls-6" d="M689.41,535.94c-.54,1.64-.97,3.32-1.59,4.93.44-1.67.97-3.32,1.59-4.93Z"/>
    <path class="cls-6" d="M692.46,530.45c-.62.64-1.13,1.33-1.55,2.05.27-.54.53-1.07.82-1.61.74-1.4,1.71-2.67.82-4.35.04-.63.09-1.27.13-1.9.81.43,1.24,1.11,1.4,1.99.11,1.54-.6,2.77-1.62,3.82Z"/>
    <path class="cls-6" d="M752.24,528.34c-.02-.12-.02-.24-.02-.37.14-.73.22-1.5.49-2.17.43.46.72,1.29.95,2.5.3.52.6,1.05.88,1.57.95,1.44,1.64,2.97,2.21,4.54-.79-1.37-1.99-2.63-3.63-3.84-.49-.67-.83-1.42-.88-2.23Z"/>
    <path class="cls-6" d="M755.31,553.39c-2.76,3.63-5.7,7.14-7.68,11.26-.41.86-.79,1.74-1.11,2.66-5.46,15.02-10.87,30.06-16.4,45.06-2,5.42-4.27,10.74-6.83,17.16-8.75-21.42-16.19-42.11-23.23-62.97h0c-.34-.72-.7-1.43-1.09-2.12-2.11-3.81-4.87-7.17-7.6-10.58-2.21-2.78-4.38-5.63-4.31-9.48.13-.77.28-1.53.46-2.29.09.63.54,1.2.9,1.76,1.03,4.38,3.67,7.83,6.47,11.2,1.85,2.24,3.48,4.66,4.98,7.16.59.97,1.12,1.97.92,3,1.1.77,1.36,2.07,1.81,3.28,6.77,18.39,12.97,36.98,20.68,55.62,1.95-4.36,3.5-8.46,5.05-12.54,5.26-13.86,10.18-27.85,15.05-41.86.51-1.45.85-3.02,2.13-4.09-.21-1.31.73-2.53,1.38-3.67,2.17-3.8,4.95-7.19,7.51-10.71,1.74-2.39,3.22-4.89,2.69-8.05.63-1.93.88-3.63.76-5.18.5,1.8.95,3.63,1.5,5.42.29,3.99-1.81,7-4.06,9.96Z"/>
    <path class="cls-1" d="M784.42,418.08c.19,1.77-4.44-1.19-1.49,2.49.5.63-.31.84-.83.73-1.56-.32-2.6-.79-.99,1.46,1.29,1.8-1.61.14-1.56,1.58,1.03.64,2.22,1.37,3.47,2.14-1.17,1.3-2.46-.49-3.78.87,3.11.43,3.39,3.3,4.8,5.19.5.66-2.01,2.39.54,3.12-1.4,3.27,2.44,2.52,3.43,4.64-10.22,2.71-17.61-3.6-25.22-7.85-19.49-10.87-34.02-26.81-44.53-46.41-2.16-4.02-3.78-8.32-5.38-12.62,5.17,4.86,13.09,4.43,18.01,9.74.47-2.12-1.65-3.76-1.23-6.4,2.16,2.19,2.56,5.1,5.3,7.19-.68-2.23-1.17-3.8-1.77-5.78,1.32.22,1.58,1.15,2.15,1.71.33.33.35,1.4,1.32.55,1.5-1.31,4.04-.8,5.25,1.05,3.62,5.57,7.64,10.77,12.29,15.57,7.59,7.84,16.49,13.68,26.06,18.69,1.5.78,3.21,1.23,4.18,2.33Z"/>
    <path class="cls-1" d="M654.96,418.44c.08-1.52.69-2.68,1.85-3.46,11.78-8,18.71-19.5,23.58-32.52.45-1.21.28-3.82,2.43-3.28,2.35.59,5.03,1.51,4.53,5.12-.57,4.15-2.27,7.91-4.03,11.57-5.21,10.87-12.96,19.56-23.44,25.68-1.09.64-2.3,1.77-3.62.83-1.31-.93-.85-2.68-1.3-3.93Z"/>
    <path class="cls-4" d="M802.16,459.27c-3.12,7.92-6.03,16.09-15.9,18.04-1.19.24-1.37,1.06-1.69,1.9-6.38,16.85-15.67,31.71-29.71,43.31-.44.36-.53,1.14-.78,1.72-.73.37-1.14.92-1.37,1.54-.27.67-.35,1.44-.49,2.17,0,.13,0,.26.02.37.05.82.39,1.56.88,2.23,1.64,1.21,2.84,2.47,3.63,3.84.43,1.18.79,2.38,1.12,3.6.13,1.55-.13,3.26-.76,5.18.53,3.16-.95,5.66-2.69,8.05-2.56,3.52-5.34,6.92-7.51,10.71-.65,1.14-1.6,2.36-1.38,3.67-1.28,1.06-1.62,2.64-2.13,4.09-4.87,14-9.8,27.99-15.05,41.86-1.55,4.09-3.11,8.18-5.05,12.54-7.71-18.64-13.92-37.24-20.68-55.62-.45-1.2-.71-2.51-1.81-3.28.2-1.03-.33-2.03-.92-3-1.5-2.5-3.13-4.92-4.98-7.16-2.8-3.37-5.44-6.82-6.47-11.2-.36-.55-.82-1.13-.9-1.76h0c.09-.41.18-.82.29-1.22h0c.62-1.62,1.04-3.3,1.59-4.94.02-.05.04-.11.06-.16.44-1.1.9-2.18,1.43-3.25,0-.01.01-.02.01-.03.43-.72.94-1.42,1.55-2.05,1.02-1.05,1.72-2.28,1.62-3.82-.16-.88-.6-1.56-1.4-1.99.12-.32.23-.64.36-.97-1.42-2.31-3.76-3.66-5.65-5.48-10.88-10.48-18.58-23.02-24.03-37-.87-2.22-1.66-3.67-4.47-4.05-3.53-.48-6.02-3.21-8.08-6.03-5.34-7.29-7.64-15.58-7.93-24.53-.13-3.72,3.01-3.81,5.1-5.12,2.87-1.87,5.76-3.75,8.63-5.63,19.56-14.86,32.97-34.14,41.03-57.25.12-.36.4-.67.71-1.16,1.17,1,1.23,2.46,1.77,3.66.59,1.33,1.01,2.73,1.56,4.07,16.53,39.55,45.89,63.16,88.05,70.86,2.92.38,5.82.74,8.72,1.12h.03c.51.07,1.03.14,1.54.2,1.42-.11,2.98-.19,2.13,1.95Z"/>
    <path class="cls-1" d="M759.38,543.42c-2.78-4.1-4.75-8.49-4.83-13.55,5.04,3.29,4.95,8.42,4.83,13.55Z"/>
    <path class="cls-1" d="M692.55,526.55c1.16,6.86-1.92,12.42-5.47,17.83-1.73-4.99.14-9.22,2.97-13.12,1.08-1.48,2.5-2.69,2.5-4.71Z"/>
    <path class="cls-1" d="M866.12,652.55v57.45h-284.08v-54.55c-.7-.88-1.06-1.86-.28-3.16.03-9.67-.12-19.35.15-29.01.28-10.34,2.83-20.17,7.91-29.24,4.94-8.83,12.4-14.68,21.83-18.12,3.16-3.82,7.76-3.83,11.98-4,9.43-.38,18.54-2.11,27.5-4.95,1.49-.48,2.99-1.09,4.62-.55,1.89.94,2.07,2.72,1.83,4.44-.88,6.25-1.04,12.6-2.46,17.59,3.33-5.5,8.36-11.09,13.2-16.83,3.52-4.16,6.85-8.48,12.25-10.37,1.96-.69,3.94-1.86,6.01-.27,3.53,5.23,3.59,11.53,5.28,17.33,4.73,16.18,10.74,31.85,17.94,47.08,3.34,7.06,6.98,13.98,10.55,20.93.7,1.36,1.31,3.28,3.04,3.38,2.06.14,2.64-2,3.39-3.44,13.24-25,24.83-50.67,30.98-78.46.52-2.35,1.21-4.58,2.59-6.58,4.18-2.06,7.56.12,10.39,2.61,8.06,7.12,14.91,15.35,20.62,23.71-.84-5.77-1.77-12.14-2.24-18.57-.09-1.13.5-2.03,1.53-2.61,1.03-.47,2.09-.38,3.1-.04,11.22,3.85,22.84,5.42,34.61,6.17,2.81.18,5.06,1.3,6.88,3.39,18.64,6.45,26.18,21.26,29.14,39.24,2.03,12.35.49,24.86.86,37.3.02.04.05.07.06.12h.8Z"/>
  </g>
  <g>
    <path class="cls-1" d="M412.99,709.92c-43.89,0-87.79.02-131.68-.01-11.39,0-19.99-6.44-22.76-16.84-.13-.48-.35-.96-.36-1.44-.72-21.57-1.94-43.24,8.07-63.4,17.06-34.39,44.76-52.69,83.2-54.46,4.36-.2,8.73.01,13.09-.08,7.2-.16,11.55-4.52,11.79-11.71q.37-11.13-7.53-19.05c-4.91-4.96-10.04-9.7-14.53-15.07-4.64-5.55-7.24-11.89-7.41-19.11-.05-2.06-.59-2.94-2.7-3.5-5.11-1.37-8.64-5-11.04-9.5-6.8-12.75-8.87-25.81-1.58-39.15.96-1.75.39-3.42.14-5.08-2.04-13.46-3.02-26.92-2.24-40.59,1.31-23.04,12.21-40.97,28.81-55.88,17.12-15.38,37.21-24.14,60.46-23.57,25.56.62,44.37,12.34,55.01,36.1.61,1.37,1.05,2.49,2.96,2.81,16.16,2.65,23.86,14.18,25.02,29.94,1.19,16.09-2.7,31.41-7.92,46.44-1.02,2.95-1.38,4.78,1.85,6.95,4.43,2.98,6.03,8.18,6.73,13.31,1.27,9.36-.03,18.43-4.44,26.85-2.89,5.53-6.73,10.28-13.27,11.71-1.65.36-1.51,1.32-1.53,2.43-.15,8.95-3.84,16.38-9.94,22.69-5.81,6-11.72,11.91-17.65,17.79-1.33,1.31-2.06,2.63-1.96,4.56.15,2.99-.02,5.99.06,8.98.21,7.43,4.58,11.58,12.12,11.69,7.47.12,14.94-.13,22.41.67,37.63,4.02,70.9,33.62,79.44,70.72,3.49,15.15,2.89,30.5,2.1,45.78-.55,10.65-10.65,18.88-21.93,19.01-11.22.13-22.45.03-33.67.03-33.04,0-66.09,0-99.13,0Z"/>
    <path class="cls-6" d="M334.99,465.26c9.21,4.78,19.02.2,19.02-10.7,0-3.71.73-7.44,1.28-11.13.89-5.99,4.84-9.79,10.91-10.45,16.96-1.83,33.93-3.51,50.46-8.06,9.28-2.55,18.16-5.97,26.47-10.9,7.47-4.44,14.74-2.03,18.6,5.77,5.05,10.18,6.33,20.86,4.62,31.99-1.08,7.03.53,11.45,5.13,14.03,4.92,2.76,11.09,1.5,14.13-3.46,2.06-3.35,3-1.73,4.11.33,2.27,4.23,2.39,8.82,2.01,13.47-.51,6.32-2.16,12.27-6.22,17.29-1.81,2.24-3.72,4.2-7.3,2.73-2.88-1.18-5.39.81-5.89,3.95-.08.49-.1,1-.05,1.49,1.32,11.35-3.66,19.84-11.69,27.33-8.1,7.57-15.8,15.58-23.56,23.52-4.81,4.92-10.49,7.36-17.38,7.16-4.86-.14-9.72-.05-14.59-.03-5.91.03-10.98-2.06-15.14-6.19-9.12-9.04-18.09-18.23-27.27-27.21-6.33-6.2-9.72-13.44-9.02-22.41.08-.99.06-2-.02-2.99-.33-3.93-2.56-5.65-6.35-4.47-2.58.81-4.5.15-5.97-1.75-6.63-8.6-8.49-18.26-6.32-29.31Z"/>
    <path class="cls-6" d="M383.24,559.32c8.3,8.16,17.63,9.77,27.67,9.25,4.72-.25,9.5.14,14.19-.33,6.58-.65,12.24-3.67,17.34-8.53.28,2.91.23,5.29.77,7.51,1.51,6.15,5.1,10.84,11,13.3,2.53,1.05,2.64,2.34,1.92,4.51-5.52,16.59-16.7,27.27-33.74,31.1-22.72,5.1-45.23-8.29-52.32-30.49-.82-2.56-.92-3.93,2.09-5.33,6.99-3.24,10.66-9.1,11.07-16.87.05-.96,0-1.93,0-4.13Z"/>
    <path class="cls-7" d="M418.96,659.76c0,1.61.12,3.24-.02,4.84-.29,3.2-2.87,5.69-5.89,5.57-3.27-.12-5.52-1.95-5.86-5.15-.37-3.44-.36-6.97-.01-10.41.33-3.21,2.53-5.06,5.81-5.2,3.06-.13,5.64,2.28,5.94,5.51.15,1.6.03,3.22.03,4.84Z"/>
  </g>
</svg>