<?xml version="1.0" encoding="UTF-8"?>
<svg id="Layer_1" xmlns="http://www.w3.org/2000/svg" viewBox="0 0 1080 1080">
  <defs>
    <style>
      .cls-1, .cls-2, .cls-3, .cls-4, .cls-5, .cls-6, .cls-7, .cls-8 {
        stroke: #000;
        stroke-miterlimit: 10;
      }

      .cls-1, .cls-9, .cls-3, .cls-10 {
        fill: none;
      }

      .cls-11, .cls-6, .cls-7 {
        fill: #042b62;
      }

      .cls-12 {
        opacity: .6;
      }

      .cls-13 {
        fill: #263238;
      }

      .cls-14, .cls-2 {
        fill: #fff;
      }

      .cls-15 {
        opacity: .4;
      }

      .cls-3, .cls-16, .cls-17, .cls-18 {
        isolation: isolate;
      }

      .cls-3, .cls-19, .cls-17 {
        opacity: .3;
      }

      .cls-4 {
        fill: #dbdbdb;
      }

      .cls-20, .cls-8 {
        fill: #3a3a3a;
      }

      .cls-21 {
        fill: #e4897b;
      }

      .cls-22 {
        fill: #a24e3f;
      }

      .cls-10 {
        stroke: #fff;
        stroke-linecap: round;
        stroke-linejoin: round;
        stroke-width: .5px;
      }

      .cls-18 {
        opacity: .2;
      }

      .cls-5 {
        fill: #e8e8e8;
      }

      .cls-23 {
        fill: #de5753;
      }

      .cls-6 {
        opacity: .19;
      }

      .cls-24 {
        opacity: .7;
      }

      .cls-25 {
        fill: #dc897c;
      }

      .cls-26 {
        opacity: .5;
      }
    </style>
  </defs>
  <g id="Background_Complete">
    <g>
      <rect class="cls-7" x="6.79" y="852.27" width="1067.21" height=".43"/>
      <rect class="cls-7" x="896.42" y="886.64" width="70.65" height=".43"/>
      <rect class="cls-7" x="695.14" y="892.4" width="18.57" height=".43"/>
      <rect class="cls-7" x="853.3" y="866.79" width="40.98" height=".43"/>
      <rect class="cls-7" x="118.84" y="870.41" width="92.21" height=".43"/>
      <rect class="cls-7" x="230.05" y="870.41" width="13.45" height=".43"/>
      <rect class="cls-7" x="287.46" y="879.38" width="200" height=".43"/>
      <path class="cls-7" d="M512.65,757.08H100.49c-6.62,0-12.17-5.55-12.17-12.17V165.63c0-6.62,5.55-12.17,12.17-12.17h412.16c6.62,0,12.17,5.55,12.17,12.17v579.28c0,6.62-5.34,12.17-12.17,12.17ZM100.49,153.89c-6.4,0-11.74,5.12-11.74,11.74v579.28c0,6.4,5.12,11.74,11.74,11.74h412.16c6.4,0,11.74-5.12,11.74-11.74V165.63c0-6.4-5.12-11.74-11.74-11.74H100.49Z"/>
      <path class="cls-7" d="M974.32,757.08h-412.16c-6.62,0-12.17-5.55-12.17-12.17V165.63c0-6.62,5.55-12.17,12.17-12.17h412.16c6.62,0,12.17,5.55,12.17,12.17v579.28c0,6.62-5.34,12.17-12.17,12.17ZM562.16,153.89c-6.4,0-11.74,5.12-11.74,11.74v579.28c0,6.4,5.12,11.74,11.74,11.74h412.16c6.4,0,11.74-5.12,11.74-11.74V165.63c0-6.4-5.12-11.74-11.74-11.74h-412.16Z"/>
    </g>
  </g>
  <g id="Shadow">
    <ellipse id="_x3C_Path_x3E_" class="cls-6" cx="540.39" cy="924.42" rx="413.87" ry="24.12"/>
  </g>
  <g id="Document">
    <g>
      <g>
        <path class="cls-7" d="M274.87,925.91h365.2c6.19,0,10.67-4.91,10.03-11.1l-55.5-551.11c-.64-6.19-6.19-11.1-12.17-11.1H217.03c-6.19,0-10.67,4.91-10.03,11.1l55.5,551.11c.85,6.19,6.19,11.1,12.38,11.1Z"/>
        <path class="cls-7" d="M278.71,925.91h365.2c6.19,0,10.67-4.91,10.03-11.1l-55.5-551.11c-.64-6.19-6.19-11.1-12.17-11.1H220.87c-6.19,0-10.67,4.91-10.03,11.1l55.5,551.11c.85,6.19,6.19,11.1,12.38,11.1Z"/>
        <path class="cls-7" d="M286.4,931.46h365.2c6.19,0,10.67-4.91,10.03-11.1l-55.5-551.11c-.64-6.19-6.19-11.1-12.17-11.1H228.55c-6.19,0-10.67,4.91-10.03,11.1l55.5,551.11c.64,6.19,6.19,11.1,12.38,11.1Z"/>
      </g>
      <g>
        <path class="cls-13" d="M347.87,394.44h119.53c4.91,0,8.54-4.06,8.11-8.96l-3.42-33.08c0-.85-.85-1.49-1.71-1.49h-134.26c-.85,0-1.49.64-1.49,1.49l3.42,33.08c.43,4.91,4.91,8.96,9.82,8.96Z"/>
        <path class="cls-13" d="M393.76,344.49l1.49,13.87h17.93l-1.49-13.87c-.43-4.91-4.91-8.96-9.82-8.96-5.12.21-8.54,4.06-8.11,8.96ZM399.09,345.35c-.21-1.92,1.28-3.63,3.2-3.63s3.84,1.71,4.06,3.63c.21,1.92-1.28,3.63-3.2,3.63-1.92,0-3.84-1.71-4.06-3.63Z"/>
        <path class="cls-7" d="M347.87,394.44h119.53c4.91,0,8.54-4.06,8.11-8.96l-3.42-33.08c0-.85-.85-1.49-1.71-1.49h-134.26c-.85,0-1.49.64-1.49,1.49l3.42,33.08c.43,4.91,4.91,8.96,9.82,8.96Z"/>
      </g>
      <g>
        <polygon class="cls-5" points="590.34 370.75 228.13 370.75 280.63 909.69 642.85 909.69 590.34 370.75"/>
        <g>
          <path d="M308.17,419.2h2.99l1.49,16.22h-2.77l-1.71-16.22Z"/>
          <path d="M328.45,428.38l.64,7.04h-2.99l-.64-6.62c-.21-2.13-1.49-3.2-3.2-3.2-2.13,0-3.42,1.28-2.99,3.63l.64,6.19h-2.99l-1.28-12.38h2.77l.21,1.49c.85-1.07,2.35-1.71,4.06-1.71,2.99.21,5.34,1.71,5.76,5.55Z"/>
          <path d="M334.64,422.4v.64h3.42l.21,2.35h-3.2l1.07,9.82h-2.99l-1.07-9.82h-2.13l-.21-2.35h2.13v-.85c-.21-2.56,1.07-4.27,4.06-4.27,1.07,0,1.92.21,2.77.64l-.64,2.13c-.43-.21-1.07-.43-1.71-.43-1.28.21-1.92.85-1.71,2.13Z"/>
          <path d="M339.33,429.23c-.43-3.63,2.13-6.19,5.98-6.19s6.83,2.56,7.26,6.19-2.13,6.4-5.98,6.4-6.83-2.77-7.26-6.4ZM349.58,429.23c-.21-2.35-1.92-3.84-4.06-3.84s-3.42,1.49-3.2,3.84,1.92,3.84,4.06,3.84,3.42-1.49,3.2-3.84Z"/>
          <path d="M361.96,423.04l.21,2.77h-.64c-2.13,0-3.42,1.28-3.2,3.84l.64,5.98h-2.99l-1.28-12.38h2.77l.21,1.71c.64-1.28,2.13-1.92,4.27-1.92Z"/>
          <path d="M385.43,428.38l.64,7.04h-2.99l-.64-6.62c-.21-2.13-1.28-3.2-2.99-3.2-1.92,0-2.99,1.28-2.77,3.63l.64,6.19h-2.99l-.64-6.62c-.21-2.13-1.28-3.2-2.99-3.2-1.92,0-2.99,1.28-2.77,3.63l.64,6.19h-2.99l-1.28-12.38h2.77l.21,1.49c.85-1.07,2.13-1.71,3.84-1.71s3.42.64,4.27,2.13c.85-1.28,2.56-2.13,4.48-2.13,2.99.21,5.12,1.71,5.55,5.55Z"/>
          <path d="M401.02,430.08h-9.6c.43,1.71,2.13,2.99,4.27,2.99,1.28,0,2.35-.43,3.2-1.28l1.71,1.71c-1.07,1.28-2.56,1.92-4.7,1.92-4.06,0-7.04-2.56-7.47-6.4-.43-3.63,2.13-6.19,5.76-6.19s6.4,2.56,6.83,6.4v.85ZM391.2,428.16h7.04c-.43-1.71-1.92-2.99-3.84-2.99s-3.2,1.28-3.2,2.99Z"/>
          <path d="M414.68,418.34l1.71,17.08h-2.77l-.21-1.49c-.85,1.28-2.13,1.71-3.84,1.71-3.63,0-6.4-2.56-6.83-6.4s2.13-6.19,5.55-6.19c1.49,0,2.99.43,4.06,1.71l-.64-6.4h2.99ZM412.97,429.23c-.21-2.35-1.92-3.84-4.06-3.84s-3.63,1.49-3.2,3.84c.21,2.35,1.92,3.84,4.06,3.84,1.92,0,3.42-1.49,3.2-3.84Z"/>
          <path d="M424.92,427.31c-.43-4.91,2.99-8.32,7.9-8.32,2.56,0,4.91.85,6.62,2.77l-1.71,1.92c-1.28-1.28-2.77-1.92-4.48-1.92-3.42,0-5.55,2.35-5.12,5.76.43,3.42,2.99,5.76,6.4,5.76,1.71,0,2.99-.64,4.06-1.92l2.13,1.92c-1.28,1.71-3.42,2.77-6.19,2.77-5.12-.43-9.18-3.84-9.6-8.75Z"/>
          <path d="M441.14,429.23c-.43-3.63,2.13-6.19,5.98-6.19s6.83,2.56,7.26,6.19-2.13,6.4-5.98,6.4-6.83-2.77-7.26-6.4ZM451.39,429.23c-.21-2.35-1.92-3.84-4.06-3.84s-3.42,1.49-3.2,3.84,1.92,3.84,4.06,3.84,3.42-1.49,3.2-3.84Z"/>
          <path d="M469.1,428.38l.64,7.04h-2.99l-.64-6.62c-.21-2.13-1.49-3.2-3.2-3.2-2.13,0-3.42,1.28-2.99,3.63l.64,6.19h-2.99l-1.28-12.38h2.77l.21,1.49c.85-1.07,2.35-1.71,4.06-1.71,3.2.21,5.55,1.71,5.76,5.55Z"/>
          <path d="M472.09,434.14l.85-2.13c1.07.64,2.77,1.28,4.48,1.28,1.92,0,2.56-.43,2.35-1.28-.21-2.35-7.68-.21-8.11-5.12-.21-2.35,1.71-3.84,5.12-3.84,1.71,0,3.63.43,4.7,1.07l-.85,2.13c-1.28-.64-2.35-.85-3.63-.85-1.71,0-2.56.64-2.35,1.28.21,2.56,7.68.21,8.11,5.12.21,2.35-1.71,3.84-5.12,3.84-2.35,0-4.48-.64-5.55-1.49Z"/>
          <path d="M496.42,430.08h-9.6c.43,1.71,2.13,2.99,4.27,2.99,1.28,0,2.35-.43,3.2-1.28l1.71,1.71c-1.07,1.28-2.56,1.92-4.7,1.92-4.06,0-7.04-2.56-7.47-6.4-.43-3.63,2.13-6.19,5.76-6.19s6.4,2.56,6.83,6.4v.85ZM486.61,428.16h7.04c-.43-1.71-1.92-2.99-3.84-2.99s-3.2,1.28-3.2,2.99Z"/>
          <path d="M511.37,428.38l.64,7.04h-2.99l-.64-6.62c-.21-2.13-1.49-3.2-3.2-3.2-2.13,0-3.42,1.28-2.99,3.63l.64,6.19h-2.99l-1.28-12.38h2.77l.21,1.49c.85-1.07,2.35-1.71,4.06-1.71,2.99.21,5.34,1.71,5.76,5.55Z"/>
          <path d="M522.89,434.78c-.64.64-1.71.85-2.77.85-2.77,0-4.48-1.49-4.7-4.06l-.64-5.98h-2.13l-.21-2.35h2.13l-.21-2.77h2.99l.21,2.77h3.2l.21,2.35h-3.2l.64,5.76c.21,1.28.85,1.92,1.92,1.92.64,0,1.07-.21,1.49-.43l1.07,1.92Z"/>
        </g>
        <line class="cls-3" x1="244.56" y1="470" x2="593.33" y2="470"/>
        <polygon class="cls-17" points="570.92 508.42 274.44 508.42 272.74 492.19 569.21 492.19 570.92 508.42"/>
        <g class="cls-19">
          <path d="M573.05,533.6h-267.44c-1.71,0-3.2-1.49-3.2-3.2s1.49-3.2,3.2-3.2h267.44c1.71,0,3.2,1.49,3.2,3.2-.21,1.71-1.49,3.2-3.2,3.2Z"/>
        </g>
        <g class="cls-19">
          <path d="M574.54,549.18h-296.47c-1.71,0-3.2-1.49-3.2-3.2s1.49-3.2,3.2-3.2h296.47c1.71,0,3.2,1.49,3.2,3.2s-1.49,3.2-3.2,3.2Z"/>
        </g>
        <g class="cls-19">
          <path d="M576.04,564.55h-296.47c-1.71,0-3.2-1.49-3.2-3.2s1.49-3.2,3.2-3.2h296.47c1.71,0,3.2,1.49,3.2,3.2,0,1.92-1.49,3.2-3.2,3.2Z"/>
        </g>
        <g class="cls-19">
          <path d="M577.53,580.13h-296.47c-1.71,0-3.2-1.49-3.2-3.2s1.49-3.2,3.2-3.2h296.47c1.71,0,3.2,1.49,3.2,3.2s-1.49,3.2-3.2,3.2Z"/>
        </g>
        <g class="cls-19">
          <path d="M579.03,595.5h-296.47c-1.71,0-3.2-1.49-3.2-3.2s1.49-3.2,3.2-3.2h296.47c1.71,0,3.2,1.49,3.2,3.2,0,1.92-1.49,3.2-3.2,3.2Z"/>
        </g>
        <g class="cls-19">
          <path d="M580.52,611.08h-296.47c-1.71,0-3.2-1.49-3.2-3.2s1.49-3.2,3.2-3.2h296.47c1.71,0,3.2,1.49,3.2,3.2s-1.49,3.2-3.2,3.2Z"/>
        </g>
        <g class="cls-19">
          <path d="M552.99,626.66h-267.44c-1.71,0-3.2-1.49-3.2-3.2s1.49-3.2,3.2-3.2h267.44c1.71,0,3.2,1.49,3.2,3.2,0,1.71-1.49,3.2-3.2,3.2Z"/>
        </g>
        <polygon class="cls-17" points="586.92 674.05 290.45 674.05 288.96 657.83 585.43 657.83 586.92 674.05"/>
        <g class="cls-19">
          <path d="M589.06,699.23h-267.44c-1.71,0-3.2-1.49-3.2-3.2s1.49-3.2,3.2-3.2h267.44c1.71,0,3.2,1.49,3.2,3.2s-1.49,3.2-3.2,3.2Z"/>
        </g>
        <g class="cls-19">
          <path d="M590.55,714.82h-296.47c-1.71,0-3.2-1.49-3.2-3.2s1.49-3.2,3.2-3.2h296.47c1.71,0,3.2,1.49,3.2,3.2s-1.28,3.2-3.2,3.2Z"/>
        </g>
        <g class="cls-19">
          <path d="M592.26,730.18h-296.69c-1.71,0-3.2-1.49-3.2-3.2s1.49-3.2,3.2-3.2h296.47c1.71,0,3.2,1.49,3.2,3.2s-1.28,3.2-2.99,3.2Z"/>
        </g>
        <g class="cls-19">
          <path d="M593.75,745.76h-296.47c-1.71,0-3.2-1.49-3.2-3.2s1.49-3.2,3.2-3.2h296.47c1.71,0,3.2,1.49,3.2,3.2s-1.49,3.2-3.2,3.2Z"/>
        </g>
        <g class="cls-19">
          <path d="M441.78,761.35h-143.01c-1.71,0-3.2-1.49-3.2-3.2s1.49-3.2,3.2-3.2h143.01c1.71,0,3.2,1.49,3.2,3.2-.21,1.71-1.49,3.2-3.2,3.2Z"/>
        </g>
        <g class="cls-19">
          <rect x="393.33" y="850.78" width="109.5" height="2.13"/>
        </g>
        <g>
          <path class="cls-9" d="M397.17,815.35c-.43-.64-1.07-1.07-1.71-1.49l.21.21c.64,1.49,1.28,2.77,1.92,4.27.21-.64.43-1.28.43-1.92-.43-.43-.64-.85-.85-1.07Z"/>
          <path class="cls-9" d="M383.3,837.33q-.21,0,0,0c-.21-.21-.43-.64-.43-.64,0,0,0-.21-.21-.21v-.21c0-.21,0-.43.21-.85.21-2.56.43-5.12.64-7.68l7.9-3.2c-.64-2.56-1.71-5.12-2.77-7.68-1.28-2.56-2.77-4.91-4.48-7.04l-36.29,15.15h0c0,.64-.21,1.49-.85,1.92-.64.43-1.71.21-1.71-.64l-.64.64c-.21.21-.43.64-.85.64l.85-.64c.21-.21.43-.64.43-.85l-24.33,10.25c.64,2.56,1.71,5.12,2.77,7.68,1.28,2.56,2.77,4.91,4.48,7.04l8.32-3.42c0-.21-.21-.21-.21-.43-.21-2.77,7.26-4.91,9.18-5.55,1.07-.43,2.13-.64,2.99,0-.43.64-1.28.85-1.92,1.07-.64.43-1.07.85-1.71,1.28l34.79-14.51c0,1.49.21,2.99.43,4.06.21.85.43,1.71.64,2.77-.21.64-.21,1.49-.43,2.13v.21l-14.73,5.98h0c.21.21.21.64.21.85-.21.21-.43.43-.64.64-1.49.85-6.62,4.27-8.32,2.99.43-.43.85-.85,1.49-1.28l-23.91,9.82c10.89,8.75,25.61,11.95,38.21,6.62.85-.43,1.71-.85,2.56-1.28v-2.35c.64-.64,1.28-.85,2.13-1.07-.21.85-.21,1.71-.43,2.35,10.03-5.98,15.37-16.86,15.37-28.39l-8.75,3.84Z"/>
          <path class="cls-9" d="M316.49,852.06c0-.64-.21-1.28-.21-2.13v-1.92c-.21-.21-.43-.64-.43-.85-3.84-7.47-5.34-15.37-4.91-23.05l-.21.21c-.21.21-.64.21-.85,0q-.21-.21-.21-.43c-.43-1.92-.21-3.63.21-5.34l.21-.64c.21-.21.64-.64.85-.64s.64,0,.85.21c1.28-5.55,3.42-10.67,6.83-15.37.64-2.99,1.92-5.76,3.84-6.19-.21.64-.21,1.28-.21,1.92,3.63-3.63,7.9-6.62,12.81-8.75,19.64-8.11,43.54,0,56.35,18.14h.64c2.35.21,4.91,5.76,6.19,7.68.85,1.49,1.92,3.42,1.07,4.7-.21.43-.64.64-.85.64s-.21,0-.21-.21c4.48,12.81,2.99,26.04-3.42,36.5.64,1.28.43,4.06.21,5.98,10.25-13.23,12.38-32.23,3.84-49.52-12.17-24.55-41.41-36.71-65.1-26.89-23.69,9.82-32.87,37.78-20.7,62.54,1.07,2.13,2.35,4.27,3.63,6.19.21-.64.21-1.28,0-1.92-.21-.43-.21-.64-.21-.85Z"/>
          <path class="cls-9" d="M345.09,872.76c0,.64-.64,1.07-1.28,1.28-1.49.21-3.2-.43-4.27-1.49l-1.07-1.07h3.2c-10.25-4.27-19.21-12.17-24.97-22.62-.21,1.07-.21,2.13-.21,3.42v.64c0,.85.21,1.71.43,2.77,13.87,19.85,39.7,28.6,61.04,19.85,6.19-2.56,11.53-6.4,15.58-11.1v-1.71c0-1.28,0-2.99.21-4.48-4.06,6.19-10.03,11.1-17.29,14.09-10.25,3.84-21.13,3.84-31.38.43Z"/>
          <path class="cls-9" d="M326.52,824.1l1.28-2.13c.43-.64,1.28-.64,2.13-.64s1.49.43,2.35.21c.43,0,.85-.21,1.28-.21v.21l20.49-8.54v.43h0c0,.21.21.64.21.85,0,.64.85,1.07,1.49.85,1.28-.64,2.13-1.71,2.77-2.77.21-.21.21-.43.43-.85.21-.21.43-.43.43-.85l17.72-7.47c-2.56-2.13-5.12-3.84-8.11-5.12,0-.21-.21-.64-.21-.85-.21-.21-.21-.43-.43-.64-.21.85-.21,1.71-.43,2.56l-1.07.21c-.64-.43-.85-1.28-.64-1.92,0-.43.21-.64.43-1.07-.21,0-.43.21-.64.43-8.75-3.42-18.36-3.63-26.89,0-12.59,5.34-19.85,17.5-19.64,30.74l8.96-3.63c-1.07-.21-1.49-.21-1.92.21Z"/>
          <path class="cls-7" d="M405.92,844.37c0-.64.21-1.28.21-1.92v-2.56c.21-.85.85-2.13,1.71-2.56.43-8.54-1.49-17.72-5.76-26.25-7.04-14.3-19.64-24.76-33.51-29.67-.21.21-.43.64-.43,1.07-.43,1.07-2.13.64-2.13-.64,0-.43,0-.85-.21-1.28-11.31-3.42-23.48-3.2-34.58,1.49-2.13.85-4.27,1.92-6.19,3.2,0,.85.21,1.71.21,2.56-.85-.21-1.49-.64-2.13-1.28-19.64,13.23-26.25,39.7-14.3,63.39,1.71,3.42,3.84,6.62,5.98,9.82,0-1.07.21-1.92.64-2.99.43-.85.43-1.49.64-2.13-1.28-1.92-2.56-4.06-3.63-6.19-12.17-24.55-2.99-52.51,20.7-62.54,23.69-9.82,52.93,2.13,65.1,26.89,8.54,17.29,6.62,36.5-3.84,49.52v6.62c6.19-6.19,10.46-14.09,12.38-22.84h-.21c-.43-.43-.64-1.07-.64-1.71Z"/>
          <path class="cls-7" d="M377.75,875.11c-21.34,8.75-47.17,0-61.04-19.85.21,1.28.43,2.35.85,3.42.21,1.28,0,2.56-.43,3.42,7.04,8.11,16.22,14.09,26.04,17.5.43-.43.85-.85,1.49-1.07.85-.21,1.71-.21,2.56,0,.21,0,.43,0,.64.21s.43.43.43.64c.43.64.64,1.28,1.07,1.92,10.03,2.13,20.7,1.49,30.31-2.56,5.34-2.13,10.03-5.34,13.87-8.96-.21-2.13-.21-4.06-.21-6.19-4.06,5.12-9.18,8.96-15.58,11.53Z"/>
          <path class="cls-7" d="M398.03,820.04c-.43-.21-.64-1.07-.64-1.71h0c-.64-1.49-1.28-2.77-1.92-4.27l-.21-.21h-.21c-.64-.43-1.28-.85-1.71-1.49-.43-.64-.43-1.28-.85-1.92-.43-.43-1.28-.21-1.49-.64-.64-1.07-.64-1.92.21-2.13-13.02-18.14-36.71-26.25-56.35-18.14-4.91,2.13-9.39,5.12-12.81,8.75,0,.43,0,1.07-.21,1.49-.21,1.07-.85,1.92-1.49,2.56-1.49,1.71-2.56,3.84-2.99,5.98.21-1.28.43-3.63,1.07-5.98-3.42,4.48-5.55,9.82-6.83,15.37l.21.21c.21.21,0,.64,0,.85,0,.85,0,1.71.21,2.35.21.43.21.64.43,1.07,0,1.07-.85,1.71-1.71,2.13-.43,7.47,1.07,15.37,4.91,23.05.21.21.43.64.43.85,0-.21,0-.64.21-.85.21-.85.43-1.71.43-2.56.64,1.28.21,2.56-.21,3.84v.43c5.76,10.46,14.73,18.36,24.97,22.62.64,0,1.28,0,1.92.21.64,0,1.28.21,1.49.85v.43c10.03,3.42,21.13,3.42,31.16-.64,7.47-2.99,13.23-8.11,17.29-14.09,0-.64.21-1.49.43-1.92.21,0,.43.21.64.64,6.4-11.1,7.9-24.33,3.63-37.14ZM338.9,796.78c8.75-3.63,18.36-3.2,26.89,0,.21-.21.43-.21.64-.43s.21-.64.43-.85c.43-.64.85-1.28,1.71-1.28,0,.85-.21,1.71-.21,2.56.21.21.43.43.43.64.21.21.21.64.21.85,2.77,1.49,5.55,3.2,8.11,5.12l-17.72,7.47c0,.21-.21.43-.43.85-.21.21-.21.43-.43.85-.64,1.07-1.49,2.35-2.77,2.77-.64.21-1.49-.21-1.49-.85,0-.21,0-.64-.21-.85h0v-.43l-20.49,8.54c-1.07,1.28-2.13,2.77-3.84,2.56-.43,0-.85-.21-1.49-.21l-8.96,3.63c-.21-13.45,6.83-25.61,19.64-30.95ZM376.9,862.09c0,.64-.21,1.07-.21,1.71-.21,1.92-.64,4.06-1.92,5.34,0-2.13.21-4.06.43-5.98-.85.43-1.71.85-2.56,1.28-12.59,5.34-27.53,2.13-38.21-6.62l23.91-9.82c.64-.64,1.49-1.28,2.35-1.92.43-.43,1.07-.85,1.49-1.07.85-.43,2.13-.21,3.2-.21h.43l14.73-5.98v-.21c.21-.64.43-1.49.43-2.13-.21-.85-.43-1.92-.64-2.77-.21-1.07-.43-2.56-.43-4.06l-34.79,14.51q-.21.21-.43.43c-1.07.85-7.04,4.7-8.11,3.2l-8.32,3.42c-1.71-2.13-3.2-4.48-4.48-7.04-1.28-2.56-2.13-5.12-2.77-7.68l24.33-10.25c.64-1.07,1.07-2.56,2.13-2.99.43.43.43,1.28.43,1.92l36.29-15.15c1.71,2.13,3.2,4.48,4.48,7.04,1.28,2.56,2.13,5.12,2.77,7.68l-7.9,3.2c-.21,2.56-.21,5.12-.64,7.68,0,.21,0,.43-.21.85v.21s.21.43.21.21c0,0,.21.21.43.43,0,0,0,.21.21.21l8.96-3.63c-.21,11.31-5.76,22.2-15.58,28.17Z"/>
        </g>
        <path class="cls-1" d="M414.89,828.79c11.95-7.04,21.34,22.2.85,39.27-20.7,17.08-49.09,3.2-33.94-30.74,15.15-33.94,45.68-35.22,56.14-24.97,10.46,10.25,7.9,35.22.43,33.94s6.62-24.97,17.08-23.27c10.46,1.71,8.32,25.61,2.13,23.05-5.98-2.56,5.76-16.44,14.09-16.01,8.32.43,6.19,16.65,1.49,16.01-4.48-.43,3.63-13.23,21.34-12.38"/>
      </g>
      <g>
        <path class="cls-13" d="M463.98,386.33h-48.45c-.85,0-1.71-.64-1.92-1.71-.64-3.84-4.06-6.83-7.9-6.83-1.71,0-3.42.64-4.48,1.92-1.07,1.28-1.71,2.77-1.71,4.48,0,.43-.21,1.07-.64,1.49s-.85.64-1.28.64h-48.45c-1.07,0-1.92-.85-1.92-1.71l-2.35-23.91c0-.64.21-1.07.43-1.49.43-.43.85-.64,1.49-.64h114.62c1.07,0,1.92.85,1.92,1.71l2.35,23.91c0,.64-.21,1.07-.43,1.49s-.64.64-1.28.64ZM417.24,382.49h44.82l-2.13-20.06h-110.78l2.13,20.06h44.82c.21-2.13,1.28-3.84,2.56-5.34,1.92-1.92,4.48-2.99,7.26-2.99,4.91-.21,9.6,3.42,11.31,8.32Z"/>
        <g class="cls-12">
          <path class="cls-7" d="M463.98,386.33h-48.45c-.85,0-1.71-.64-1.92-1.71-.64-3.84-4.06-6.83-7.9-6.83-1.71,0-3.42.64-4.48,1.92-1.07,1.28-1.71,2.77-1.71,4.48,0,.43-.21,1.07-.64,1.49s-.85.64-1.28.64h-48.45c-1.07,0-1.92-.85-1.92-1.71l-2.35-23.91c0-.64.21-1.07.43-1.49.43-.43.85-.64,1.49-.64h114.62c1.07,0,1.92.85,1.92,1.71l2.35,23.91c0,.64-.21,1.07-.43,1.49s-.64.64-1.28.64ZM417.24,382.49h44.82l-2.13-20.06h-110.78l2.13,20.06h44.82c.21-2.13,1.28-3.84,2.56-5.34,1.92-1.92,4.48-2.99,7.26-2.99,4.91-.21,9.6,3.42,11.31,8.32Z"/>
        </g>
        <path class="cls-13" d="M355.98,360.5c-.21-1.92-1.49-2.56-1.49-2.56h100.1s1.28.64,1.49,2.56c.21,2.13-1.07,2.56-1.07,2.56h-100.1s1.28-.43,1.07-2.56Z"/>
        <path class="cls-7" d="M355.98,360.5c-.21-1.92-1.49-2.56-1.49-2.56h100.1s1.28.64,1.49,2.56c.21,2.13-1.07,2.56-1.07,2.56h-100.1s1.28-.43,1.07-2.56Z"/>
      </g>
    </g>
  </g>
  <g id="Sign">
    <g>
      <polygon class="cls-2" points="525.67 773.3 473.59 811.5 525.67 849.5 525.67 836.9 657.57 836.9 657.57 785.89 525.67 785.89 525.67 773.3"/>
      <g>
        <path class="cls-11" d="M538.9,815.99l.85-2.13c1.07.85,2.99,1.49,4.7,1.49,2.13,0,3.2-.85,3.2-1.92,0-3.2-8.54-1.07-8.54-6.4,0-2.35,1.92-4.27,5.76-4.27,1.71,0,3.63.43,4.7,1.28l-.85,2.13c-1.28-.85-2.77-1.07-4.06-1.07-2.13,0-3.2.85-3.2,1.92,0,2.99,8.54,1.07,8.54,6.4,0,2.35-1.92,4.27-5.76,4.27-1.92,0-4.06-.85-5.34-1.71Z"/>
        <path class="cls-11" d="M552.35,803.18c0-.85.64-1.49,1.71-1.49.85,0,1.71.64,1.71,1.49s-.64,1.71-1.71,1.71c-.85-.21-1.71-.85-1.71-1.71ZM552.77,806.38h2.56v10.89h-2.56v-10.89Z"/>
        <path class="cls-11" d="M569.64,806.38v9.39c0,4.06-2.13,5.76-5.98,5.76-2.13,0-4.06-.43-5.34-1.49l1.07-1.92c1.07.85,2.56,1.28,4.06,1.28,2.35,0,3.42-1.07,3.42-3.42v-.64c-.85,1.07-2.13,1.49-3.63,1.49-3.2,0-5.55-2.13-5.55-5.34s2.35-5.34,5.55-5.34c1.49,0,2.99.43,3.84,1.49v-1.49h2.56v.21ZM567.07,811.5c0-1.92-1.49-3.2-3.42-3.2s-3.42,1.28-3.42,3.2,1.49,3.2,3.42,3.2,3.42-1.28,3.42-3.2Z"/>
        <path class="cls-11" d="M583.72,811.08v6.19h-2.56v-5.98c0-1.92-1.07-2.99-2.56-2.99-1.92,0-2.99,1.07-2.99,3.2v5.55h-2.56v-10.89h2.35v1.49c.85-1.07,2.13-1.49,3.84-1.49,2.56.21,4.48,1.71,4.48,4.91Z"/>
        <path class="cls-11" d="M603.36,811.08v6.19h-2.56v-5.98c0-1.92-1.07-2.99-2.56-2.99-1.92,0-2.99,1.07-2.99,3.2v5.55h-2.56v-15.15h2.56v5.55c.85-.85,2.13-1.49,3.63-1.49,2.56.43,4.48,1.92,4.48,5.12Z"/>
        <path class="cls-11" d="M617.02,812.79h-8.54c.21,1.71,1.71,2.56,3.63,2.56,1.28,0,2.13-.43,2.99-1.28l1.28,1.49c-1.07,1.07-2.56,1.71-4.48,1.71-3.63,0-5.98-2.35-5.98-5.55s2.35-5.55,5.76-5.55c3.2,0,5.55,2.13,5.55,5.76-.21.21-.21.64-.21.85ZM608.48,811.08h6.19c-.21-1.49-1.49-2.56-3.2-2.56-1.49-.21-2.77.85-2.99,2.56Z"/>
        <path class="cls-11" d="M625.98,806.38v2.35h-.64c-1.92,0-3.2,1.07-3.2,3.42v5.34h-2.56v-10.89h2.35v1.71c.85-1.49,2.13-1.92,4.06-1.92Z"/>
        <path class="cls-11" d="M638.15,812.79h-8.54c.21,1.71,1.71,2.56,3.63,2.56,1.28,0,2.13-.43,2.99-1.28l1.28,1.49c-1.07,1.07-2.56,1.71-4.48,1.71-3.63,0-5.98-2.35-5.98-5.55s2.35-5.55,5.76-5.55c3.2,0,5.55,2.13,5.55,5.76,0,.21,0,.64-.21.85ZM629.61,811.08h6.19c-.21-1.49-1.49-2.56-3.2-2.56-1.49-.21-2.77.85-2.99,2.56Z"/>
      </g>
    </g>
  </g>
  <g id="Speech_bubble">
    <g>
      <path class="cls-4" d="M813.6,272.99h-59.55c-10.03,0-18.36,8.11-18.36,18.36v51.87c0,10.03,8.11,18.36,18.36,18.36h38.21l12.38,20.49v-20.49h9.18c10.03,0,18.36-8.11,18.36-18.36v-51.87c-.21-10.25-8.32-18.36-18.57-18.36Z"/>
      <g>
        <g class="cls-16">
          <circle class="cls-7" cx="783.9" cy="316.95" r="29.45" transform="translate(295.29 1007.03) rotate(-76.71)"/>
        </g>
        <path class="cls-14" d="M780.73,330.19c-.85,0-1.49-.43-2.13-.85l-11.53-13.66c-1.07-1.07-.85-2.77.21-3.84s2.77-.85,3.84.21l9.6,11.31,15.79-18.57c1.07-1.07,2.77-1.28,3.84-.21s1.28,2.77.21,3.84l-17.72,20.92c-.64.43-1.28.85-2.13.85Z"/>
      </g>
    </g>
  </g>
  <g id="Character">
    <g>
      <g>
        <g>
          <path class="cls-25" d="M816.37,511.19c-7.9,6.62-15.79,12.38-24.33,18.14-4.27,2.77-8.54,5.55-13.23,8.11-2.35,1.28-4.7,2.56-7.26,3.63-1.28.64-2.56,1.07-4.27,1.71-.64.21-1.49.43-2.35.64-.21,0-.43,0-.64.21l-1.07.21c-.64.21-1.28.21-2.13.21-5.12,0-8.54-1.49-11.31-2.77-2.77-1.49-5.12-2.99-7.47-4.7-4.48-3.42-8.11-7.04-11.74-10.67-7.04-7.47-13.23-15.37-19-23.69l7.68-6.4c7.04,6.62,14.3,13.02,21.56,19,3.63,2.99,7.47,5.76,11.1,7.9,1.92,1.07,3.63,2.13,5.34,2.77,1.49.64,3.2.85,2.77.64h-.43.21c.43-.21.64-.21,1.07-.43l2.56-1.28c1.92-1.07,3.63-2.13,5.55-3.42,3.84-2.35,7.68-5.12,11.53-7.9s7.68-5.76,11.53-8.54,7.68-5.98,11.31-8.75l13.02,15.37Z"/>
          <path class="cls-7" d="M822.78,498.17c1.71,20.7-39.27,40.55-39.27,40.55l-13.66-22.2s12.81-16.22,25.4-26.89c13.45-11.31,26.47-5.12,27.53,8.54Z"/>
          <path class="cls-7" d="M808.9,522.29c-3.2,2.77-6.83,5.55-10.25,7.68-8.11,5.55-15.15,8.96-15.15,8.96l-13.66-22.2s12.81-16.22,25.4-26.89c13.23-11.31,26.25-5.12,27.32,8.54,1.07,8.32-5.76,16.86-13.66,23.91Z"/>
        </g>
        <g>
          <path class="cls-21" d="M719.05,496.46l-11.31-15.37-11.74,11.95s6.4,11.95,17.5,10.46l5.55-7.04Z"/>
          <polygon class="cls-21" points="695.35 475.12 688.74 486.22 695.99 493.05 707.73 481.1 695.35 475.12"/>
        </g>
        <path class="cls-18" d="M808.9,522.29c-3.2,2.77-6.83,5.55-10.25,7.68,2.35-8.32,7.04-15.58,7.04-15.58,1.92,2.13,2.99,4.91,3.2,7.9Z"/>
        <g>
          <path class="cls-20" d="M789.91,909.69l16.01-.43c.64,0,1.07.43,1.28,1.07l3.42,13.02c.43,1.28-.64,2.56-1.92,2.56-5.76,0-14.09,0-21.56.21-8.54.21-13.87-.21-23.91,0-5.98.21-7.9-5.98-5.34-6.4,11.53-2.77,18.78-2.35,28.6-8.54.85-1.07,2.13-1.49,3.42-1.49Z"/>
          <g class="cls-15">
            <path class="cls-8" d="M789.91,909.69l16.01-.43c.64,0,1.07.43,1.28,1.07l3.42,13.02c.43,1.28-.64,2.56-1.92,2.56-5.76,0-14.09,0-21.56.21-8.54.21-13.87-.21-23.91,0-5.98.21-7.9-5.98-5.34-6.4,11.53-2.77,18.78-2.35,28.6-8.54.85-1.07,2.13-1.49,3.42-1.49Z"/>
          </g>
        </g>
        <g>
          <path class="cls-20" d="M871.66,909.69l16.01-.43c.64,0,1.07.43,1.28,1.07l3.42,13.02c.43,1.28-.64,2.56-1.92,2.56-5.76,0-14.09,0-21.56.21-8.54.21-13.87-.21-23.91,0-5.98.21-7.9-5.98-5.34-6.4,11.53-2.77,18.78-2.35,28.6-8.54.85-1.07,2.13-1.49,3.42-1.49Z"/>
          <g class="cls-15">
            <path class="cls-8" d="M871.66,909.69l16.01-.43c.64,0,1.07.43,1.28,1.07l3.42,13.02c.43,1.28-.64,2.56-1.92,2.56-5.76,0-14.09,0-21.56.21-8.54.21-13.87-.21-23.91,0-5.98.21-7.9-5.98-5.34-6.4,11.53-2.77,18.78-2.35,28.6-8.54.85-1.07,2.13-1.49,3.42-1.49Z"/>
          </g>
        </g>
        <path class="cls-13" d="M898.98,592.3c7.68,33.51-7.68,319.52-7.68,319.52l-25.4-.85-9.18-241.19-48.45,243.54-24.76-3.63c17.93-170.11,39.06-293.91,39.06-293.91v-12.81l76.41-10.67Z"/>
        <path class="cls-7" d="M885.1,468.08c-.85,16.44-.21,32.87,1.28,48.02,1.07,11.1,2.56,21.77,4.06,31.16,3.63,22.2,7.9,39.06,8.54,44.82-11.1,1.49-53.15,7.26-76.2,10.46-27.75-77.69-17.29-118.89-17.29-118.89l17.5-10.03s2.56-.64,3.84-1.07c8.54-1.92,22.62-3.63,32.44-4.48,2.13-.21,4.06-.21,6.19-.43,10.46-.21,19.64.43,19.64.43Z"/>
        <g class="cls-24">
          <path class="cls-7" d="M898.98,592.3c-11.1,1.49-53.15,7.26-76.2,10.46-27.75-77.69-17.29-118.89-17.29-118.89l17.5-10.03s2.56-.64,3.84-1.07c8.54-1.92,22.62-3.63,32.44-4.48,2.13-.21,4.27-.43,6.19-.43,10.46-.43,19.85,0,19.85,0-.64,10.46-.43,20.7,0,30.95.21,5.76.64,11.53,1.28,17.29v.85c1.07,10.89,2.56,21.13,4.06,30.52,3.63,22.2,7.68,38.85,8.32,44.82Z"/>
        </g>
        <g>
          <path class="cls-21" d="M856.5,468.08s-17.5,13.87-22.84,13.66c-3.63,0-8.96-5.98-8.96-5.98,2.77-1.28,4.48-2.99,5.76-4.7,3.63-4.91,1.49-11.1-1.49-16.65l15.37-21.34c.21,4.27.85,9.82,1.92,15.37h0c1.92,8.54,4.91,16.65,10.25,19.64Z"/>
          <path class="cls-18" d="M846.47,448.65h0c-1.49,9.39-5.76,20.06-15.79,22.41,3.63-4.91,1.49-11.1-1.49-16.65l15.37-21.34c0,4.27.64,10.03,1.92,15.58Z"/>
        </g>
        <g>
          <path class="cls-7" d="M833.88,481.74s4.27,3.84,9.18,7.68c5.76-3.84,19.42-14.09,17.72-21.77-1.07-2.13-7.26-2.99-7.26-2.99,0,0-5.55,9.18-19.64,17.08Z"/>
          <path class="cls-7" d="M833.88,481.74s-4.48,4.27-7.04,9.6c-4.91-2.35-4.27-17.08-2.77-19,3.42-2.56,7.68-2.99,7.68-2.99,0,0-2.56,7.04,2.13,12.38Z"/>
          <g class="cls-26">
            <path class="cls-7" d="M833.88,481.74s4.27,3.84,9.18,7.68c5.76-3.84,19.42-14.09,17.72-21.77-1.07-2.13-7.26-2.99-7.26-2.99,0,0-5.55,9.18-19.64,17.08Z"/>
            <path class="cls-7" d="M833.88,481.74s-4.48,4.27-7.04,9.6c-4.91-2.35-4.27-17.08-2.77-19,3.42-2.56,7.68-2.99,7.68-2.99,0,0-2.56,7.04,2.13,12.38Z"/>
          </g>
        </g>
        <path class="cls-18" d="M848.18,716.31l8.54-46.74-1.71-24.76c.21.21-11.53,42.9-6.83,71.5Z"/>
        <g>
          <path class="cls-13" d="M805.49,417.92c-1.71,5.98-.43,17.93,7.68,13.87,8.11-4.27-4.91-24.12-7.68-13.87Z"/>
          <path class="cls-21" d="M847.96,424.75c1.28,15.15,2.77,23.91-3.63,32.44-9.6,13.02-29.24,8.96-35-5.55-5.12-13.02-6.4-35.43,7.26-43.33,13.66-7.9,30.1,1.28,31.38,16.44Z"/>
          <path class="cls-13" d="M825.77,432c.21,1.28-.21,2.35-1.07,2.35-.85.21-1.49-.85-1.71-1.92-.21-1.28.21-2.35,1.07-2.35.85-.21,1.71.85,1.71,1.92Z"/>
          <path class="cls-13" d="M812.11,433.92c.21,1.28-.21,2.35-1.07,2.35-.85.21-1.49-.85-1.71-1.92-.21-1.28.21-2.35,1.07-2.35.64-.21,1.49.85,1.71,1.92Z"/>
          <path class="cls-23" d="M816.59,433.92s-1.92,7.04-4.48,10.89c2.35,1.71,5.98.21,5.98.21l-1.49-11.1Z"/>
          <path class="cls-13" d="M829.39,427.09c-.21,0-.43,0-.64-.21-2.35-2.35-4.91-1.71-4.91-1.71-.43,0-.85-.21-.85-.64s.21-.85.64-.85c.21,0,3.42-.64,6.19,2.13.21.21.21.64,0,1.07-.21,0-.21.21-.43.21Z"/>
          <path class="cls-13" d="M805.49,430.08h-.43c-.43-.21-.64-.43-.43-.85,1.28-3.84,4.48-4.7,4.48-4.7.43,0,.85.21.85.43.21.43-.21.85-.43.85s-2.56.64-3.63,3.84c0,.21-.21.43-.43.43Z"/>
          <path class="cls-13" d="M822.78,416s3.63-3.42,5.98-.64c2.35,2.99,3.42,11.31,3.42,11.31l.64-1.71s7.9,18.14,14.94,12.38,15.79-26.47-3.63-33.94c0,0-2.56-4.27-14.73-4.91-12.17-.64-25.61,8.75-26.89,16.86-1.28,8.11,2.77,12.17,2.77,12.17.21-2.99,1.71-4.91,1.71-4.91.64,2.56,3.42,3.2,3.42,3.2-.43-2.99.43-4.7.43-4.7.43,1.71,2.56,3.42,2.56,3.42-.21-8.11,5.12-10.67,6.83-10.89,1.92,0,2.56,2.35,2.56,2.35Z"/>
          <path class="cls-21" d="M855.65,436.27c-.64,4.06-2.99,7.47-5.76,9.18-4.06,2.77-7.9-.43-8.11-5.12-.21-4.27,1.49-10.89,6.4-11.95,4.7-.85,8.11,3.42,7.47,7.9Z"/>
          <g>
            <path class="cls-13" d="M819.15,449.93c1.71,1.28,4.06,3.84,4.06,3.84.21-.21.64-.43.85-.64,3.63-2.56,4.48-4.91,4.48-6.83,0-1.07-.43-1.92-.85-2.56-.43-.85-1.07-1.28-1.07-1.28-1.07,2.56-4.48,5.12-6.19,6.4-.64.85-1.28,1.07-1.28,1.07Z"/>
            <path class="cls-7" d="M820.43,449.08l1.28,1.07c3.42-2.35,5.55-4.48,5.98-6.4-.43-.85-1.07-1.28-1.07-1.28-1.07,2.56-4.27,5.34-6.19,6.62Z"/>
            <path class="cls-22" d="M824.27,453.13c3.63-2.56,4.48-4.91,4.48-6.83-1.28.85-2.56,2.13-3.63,3.63-.85,1.28-1.07,2.35-.85,3.2Z"/>
          </g>
        </g>
        <polygon class="cls-13" points="822.78 606.6 821.28 598.49 898.98 587.18 900.26 601.26 822.78 606.6"/>
        <g>
          <polygon points="827.69 599.77 828.33 604.25 822.14 604.89 821.28 600.62 827.69 599.77"/>
          <polygon points="871.02 594.43 871.66 599.13 831.1 603.83 830.46 599.34 871.02 594.43"/>
          <polygon points="900.26 595.71 874.43 598.7 873.79 594.01 899.83 590.81 900.26 595.71"/>
          <path class="cls-10" d="M844.12,599.34l.21,1.49c.21.85.85,1.28,1.71,1.28l6.62-.85c.85,0,1.49-.85,1.28-1.71l-.21-1.71c0-.85-.85-1.49-1.71-1.28l-6.83.85c-.64.21-1.28,1.07-1.07,1.92Z"/>
          <line class="cls-10" x1="850.53" y1="599.13" x2="852.66" y2="598.92"/>
        </g>
        <g>
          <path class="cls-21" d="M909.65,579.49l-19-1.28,1.49,16.65s13.23,2.77,19.21-6.62l-1.71-8.75Z"/>
          <polygon class="cls-21" points="878.27 583.76 882.33 595.93 892.15 594.86 890.65 578.21 878.27 583.76"/>
        </g>
        <path class="cls-18" d="M886.6,516.95c-5.12-7.68-6.62-20.7-6.62-20.7,1.92.43,3.63,1.28,5.34,2.56.21,5.76.64,11.53,1.28,17.29-.21.43-.21.64,0,.85Z"/>
        <g>
          <path class="cls-25" d="M893.21,473.41c7.68,7.47,14.73,15.15,21.56,23.27,3.42,4.06,6.83,8.32,9.82,12.81,1.49,2.35,3.2,4.48,4.7,7.04s2.99,5.12,4.27,8.96c.85,2.56.85,4.7.85,6.4,0,1.92-.21,3.42-.43,5.12-.43,3.2-1.07,5.98-1.92,8.75-1.49,5.34-3.63,10.46-5.76,15.37-4.27,9.82-9.18,19-14.94,27.96l-8.96-4.48c3.42-9.6,6.83-19.21,9.6-28.81,1.49-4.7,2.56-9.6,3.63-14.09.43-2.35.85-4.48.85-6.62v-2.56c0-.64-.21-1.28-.21-1.07-.43-1.07-1.71-2.99-2.77-4.7-1.28-1.92-2.77-3.63-4.27-5.55-2.99-3.84-6.19-7.47-9.6-11.31s-6.83-7.47-10.25-11.1c-3.42-3.63-7.04-7.26-10.46-10.89l14.3-14.51Z"/>
          <path class="cls-7" d="M879.98,468.08c20.49-3.2,43.33,36.29,43.33,36.29l-21.13,15.15s-17.08-11.74-28.6-23.48c-12.38-12.38-7.26-25.83,6.4-27.96Z"/>
          <path class="cls-7" d="M879.98,468.08c20.49-3.2,43.33,36.29,43.33,36.29l-21.13,15.15s-17.08-11.74-28.6-23.48c-12.38-12.38-7.26-25.83,6.4-27.96Z"/>
        </g>
      </g>
      <g>
        <polygon class="cls-13" points="698.34 921.85 699.84 925.91 701.54 921.85 701.76 900.3 698.55 900.08 698.34 921.85"/>
        <path class="cls-13" d="M696.42,466.37l15.79.21.43-43.76c0-1.71-1.28-2.99-2.99-2.99h-9.82c-1.71,0-2.99,1.28-2.99,2.99l-.43,43.54Z"/>
        <path class="cls-7" d="M696.42,466.37l15.79.21.43-43.76c0-1.49-1.28-2.77-2.77-2.99h-10.03c-1.49,0-2.77,1.28-2.99,2.77l-.43,43.76Z"/>
        <path class="cls-13" d="M693.65,455.7l21.56.21c4.06,0,7.26,3.2,7.26,7.26,3.63,136.6,2.13,273.21-4.27,409.6h0s-3.63,27.53-15.79,45.04h-5.34c-11.74-17.93-14.94-45.46-14.94-45.46h0c-3.63-136.6-2.56-273.21,3.63-409.6.64-4.06,4.06-7.04,7.9-7.04Z"/>
        <path class="cls-13" d="M678.7,449.93l36.29.43c1.28,0,2.13,1.07,2.13,2.13v3.63l-36.93-.43c-3.2,55.07-1.28,100.74-1.28,100.74l2.77,1.28-2.99,10.67c-6.62-18.36-3.2-100.96-2.56-116.33,0-1.07,1.07-2.13,2.56-2.13Z"/>
        <rect class="cls-13" x="698.14" y="635.3" width="8.54" height="43.97" transform="translate(38.37 1353.32) rotate(-89.45)"/>
        <path class="cls-13" d="M725.23,731.89c-.85,40.55-2.13,81.11-3.84,121.66,0,1.92-1.71,3.2-3.42,3.2l-34.36-.43c-1.92,0-3.42-1.49-3.42-3.42-.85-40.34-1.49-81.11-1.49-121.66,0-1.92,1.49-3.42,3.42-3.42l39.91.43c1.71.21,3.2,1.71,3.2,3.63Z"/>
        <rect class="cls-18" x="698.14" y="635.3" width="8.54" height="43.97" transform="translate(38.37 1353.32) rotate(-89.45)"/>
        <path class="cls-7" d="M678.7,449.93l36.29.43c1.28,0,2.13,1.07,2.13,2.13v3.63l-36.93-.43c-3.2,55.07-1.28,100.74-1.28,100.74l2.77,1.28-2.99,10.67c-6.62-18.36-3.2-100.96-2.56-116.33,0-1.07,1.07-2.13,2.56-2.13Z"/>
        <path class="cls-7" d="M725.23,731.89c-.85,40.55-2.13,81.11-3.84,121.66,0,1.92-1.71,3.2-3.42,3.2l-34.36-.43c-1.92,0-3.42-1.49-3.42-3.42-.85-40.34-1.49-81.11-1.49-121.66,0-1.92,1.49-3.42,3.42-3.42l39.91.43c1.71.21,3.2,1.71,3.2,3.63Z"/>
      </g>
    </g>
  </g>
</svg>