<?xml version="1.0" encoding="UTF-8"?>
<svg id="Layer_1" xmlns="http://www.w3.org/2000/svg" viewBox="0 0 1080 1080">
  <defs>
    <style>
      .cls-1 {
        fill: #1f2f60;
      }

      .cls-2 {
        fill: none;
        stroke: #1f2f60;
        stroke-miterlimit: 10;
        stroke-width: 22px;
      }

      .cls-3 {
        fill: #1f3463;
      }
    </style>
  </defs>
  <g>
    <g>
      <path class="cls-1" d="M687.77,483.92c-3.53,12.01-6.09,24.3-9.59,36.3-4.08,13.96-7.36,28.13-11.65,42.01-1.27,4.09-3.55,7.95-7.87,9.88l-1.91,1.5c-3.59,3.55-8.06,5.25-12.96,5.27-41.15.09-82.31.05-123.45.06-12.71,0-25.41.07-38.12,0-2.47-.02-3.23.72-3.83,3.31-2.05,8.94-4.67,17.75-7.06,26.61-1.88,6.99-3.74,14-5.63,20.99-2.01,7.43-4.03,14.86-6.09,22.28-.57,2.04-2.3,2.3-4.04,2.26-3.25-.09-6.5-.42-9.75-.4-6.96.06-13.91.26-20.88.44-2.49.06-3.45-.7-2.79-3.43,2.49-10.34,5.4-20.55,8.29-30.77,1.13-3.98,1.86-8.08,2.97-12.06.36-1.27-.02-3.08,1.86-3.61,1.38-5.15,2.76-10.3,4.14-15.45-.7-4.2,1.59-7.8,2.52-11.64,1.76-7.25,4.12-14.36,5.67-21.69.97-4.57,2.62-8.99,3.87-13.5.44-1.58,1.54-1.78,2.84-1.75,12.81.22,25.61-.49,38.42.43,4,.29,8.06-.37,12.1-.37,41.94-.04,83.89-.07,125.84.02,3.23,0,4.33-1.09,5.16-4.15,2.74-10.13,5.47-20.26,8.11-30.43.76-2.92-.02-3.39-2.73-3.39-57.92.06-115.83.05-173.74.05-1.01,0-2.07.12-3.02-.15-1.19-.36-2.17-.98-1.68-2.69,2.68-9.37,5.27-18.76,7.89-28.14.18-.65.44-1.28.62-1.93q1.39-4.92,6.69-4.93c65.23,0,130.45.13,195.67-.1,10.74-.04,17.05,9.21,14.12,19.17Z"/>
      <path class="cls-1" d="M447.95,470.22c-1.62,6.37-3.97,12.56-5.39,18.97-1.87,8.42-4.45,16.63-6.64,24.96-3.09,11.77-6.52,23.44-9.7,35.19-3,11.11-5.78,22.29-8.77,33.4-3.28,12.18-6.7,24.33-10.06,36.49-2.14,7.73-4.3,15.44-6.44,23.16-.37,1.33-1.08,2.42-2.14,3.29-4.1,5.91-9.83,7.76-16.87,7.75-60.93-.12-121.86-.06-182.8-.09-2.68,0-5.42.3-8.03-.55-7.83-2.55-10.15-10.15-8.29-17.55,2.86-11.37,6.22-22.61,9.32-33.92,3.17-11.55,6.29-23.11,9.4-34.68,1.93-7.14,3.79-14.28,5.68-21.43.52-6.06,2.65-11.75,4.16-17.59,1.67-6.49,3.44-12.96,5.22-19.41,3.83-13.89,7.68-27.77,11.55-41.64.36-1.29,1.12-1.91,2.7-1.89,10.46.13,20.91.11,31.37.14,3.63.01,4.11.56,3.1,4.27-2.86,10.57-5.86,21.11-8.72,31.67-1.93,7.11-3.45,14.34-5.6,21.37-2.44,8.01-4.44,16.13-6.65,24.19-2.51,9.14-4.9,18.31-7.4,27.46-2.19,8.04-4.42,16.07-6.72,24.08-1.5,5.25-2.53,10.62-4.48,15.75-.7,1.86.53,2.36,2.15,2.36,3.03,0,6.07.04,9.1.04,43.3,0,86.59-.02,129.89.03,2.17,0,3.28-.4,4.08-2.72,1.63-4.69,2.39-9.55,3.68-14.29,2.16-7.97,4.64-15.85,6.8-23.82,2.55-9.39,4.9-18.83,7.33-28.25.2-.79.41-1.52,1.28-1.83.17-2.27,1.91-4.19,1.48-6.61,3.68-17.53,9.36-34.54,13.63-51.91,1.6-6.46,3.56-12.86,5.23-19.31.59-2.27,2.21-2.52,4.14-2.52,8.66.02,17.31.02,25.97.02,1.01,0,2.03.04,3.03,0,5.5-.29,5.8-.13,4.39,5.4Z"/>
      <path class="cls-1" d="M693.24,560.06c-.11,0-.22,0-.32,0,.02-.06.04-.11.05-.16.09.02.18.08.27.17Z"/>
      <path class="cls-1" d="M733.88,544.22c-.06.2-.12.4-.17.6-.02-.34-.06-.67-.08-1.01.12.14.21.27.26.41Z"/>
      <path class="cls-1" d="M330.61,683.46c-2.8-.52-5.56-.55-9.14-.82-.78,0-2.36.06-3.93-.01-2.17-.09-3.28.92-3.7,3.03-.67,3.4-1.48,6.76-2.24,10.14-1.36,5.99-2.72,11.99-4.11,17.98-.32,1.36-.37,2.7,1.41,2.69,5.48-.04,11.12.88,16.36-1.17,9.63-3.79,13.42-12.77,13.47-21.71.02-4.72-3.29-9.24-8.13-10.13ZM333.34,697.66c-1.49,9.76-6.29,14.34-15.66,14.56-4.32.11-4.81-.41-3.9-4.59,1.28-5.9,2.67-11.77,3.99-17.65.24-1.06.75-2.19,1.74-2.28,3.63-.33,7.48-1.33,10.76,1,3.02,2.15,3.63,5.32,3.07,8.96Z"/>
      <path class="cls-1" d="M531.93,685.08c-2.32,7.04-3.46,14.48-5.3,21.75-.52,2.06-.89,4.16-1.41,6.22-.54,2.14-1.58,2.68-3.14.77-4.74-5.82-9.47-11.65-14.21-17.47-.69-.85-1.32-2.1-2.64-1.66-1.17.39-.83,1.72-.97,2.67-.81,5.78-2.54,11.34-3.9,16.99-.49,2.05-1.66,2.41-3.47,2.07-2.43-.46-1.43-1.93-1.12-3.32,1.57-7.22,3.05-14.46,4.63-21.67.5-2.27,1.85-4.32,1.78-6.78-.01-.44.52-1.24.86-1.27,1-.09,1.55.83,2.09,1.5,3.7,4.65,7.35,9.33,11.01,14,1.25,1.59,2.49,3.17,3.75,4.75.47.59.86,1.46,1.84,1.04.69-.29.76-1.02.9-1.7,1.25-5.8,2.57-11.59,3.79-17.4.37-1.75,1.17-2.86,3.02-3.09,1.91-.24,2.78.53,2.48,2.59Z"/>
      <path class="cls-1" d="M173.76,716.52c-3.17.08-6.84-.56-9.07-4.65-1.25-2.29-1-4.66-.56-6.88,1.28-6.6,2.86-13.14,4.37-19.7.47-2.04,1.79-3.23,3.92-2.72,2.24.54,1.59,2.31,1.24,3.85-1.39,6-2.88,11.98-4.11,18.01-1,4.89,1.32,7.53,6.29,7.55,4.8.02,8.87-3.11,10.01-7.81,1.53-6.32,3.08-12.63,4.43-18.98.46-2.18,1.6-2.77,3.55-2.55,2.37.28,1.76,2,1.45,3.33-1.46,6.21-2.86,12.45-4.61,18.58-2.41,8.46-7.39,12.05-16.89,11.97Z"/>
      <path class="cls-1" d="M633.7,713.23c-4.69-5.73-9.77-11.13-14.06-17.17-.46-.66-.94-1.37-1.88-1.09-1.16.34-1.33,1.48-1.55,2.43-1.24,5.35-2.46,10.71-3.58,16.09-.3,1.43-.67,2.66-2.27,2.93-2.01.35-3.46-.06-2.87-2.61,2.19-9.5,4.4-19,6.6-28.51.15-.63.1-1.57.92-1.61,1.2-.05,2.11.64,2.59,1.8,4.36,6.37,9.8,11.92,13.97,18.42.47.73,1,1.26,1.9,1.03.78-.2.83-.91.98-1.59,1.21-5.57,2.91-11.03,3.77-16.68.12-.77.18-1.59.63-2.26.78-1.15,1.73-2.27,3.29-1.77,1.7.54,1.62,2.07,1.25,3.39-2.42,8.6-4.02,17.39-6,26.08-.57,2.5-1.33,2.68-3.68,1.12Z"/>
      <path class="cls-1" d="M216.68,699.02c1.16,1.51,2.3,3.03,3.5,4.52.4.49.58,1.37,1.42,1.25.91-.14,1.18-1,1.35-1.75,1.35-5.77,2.67-11.56,3.97-17.34.25-1.09.23-2.35,1.5-2.79,1.06-.37,2.31-.57,3.28.02,1.06.65.54,1.82.32,2.78-2.1,9.06-4.24,18.11-6.34,27.17-.21.9-.37,1.88-1.34,2.16-1.13.32-1.44-.78-1.98-1.46-2.8-3.49-5.63-6.96-8.45-10.44-1.91-2.49-4.21-4.65-5.98-7.26-.51-.74-1.2-1.53-2.21-1.14-.91.35-1.09,1.32-1.23,2.24-.73,4.87-2.29,9.57-3.16,14.42-.29,1.43-.46,2.93-1.41,4.08-.76.91-1.84,1.35-3.02.84-1.19-.52-.98-1.48-.76-2.56,1.67-8.44,3.9-16.76,5.87-25.13.15-.65.42-1.26.46-1.95.05-.97-.22-2.21.96-2.64,1.36-.5,2.05.73,2.64,1.59,3.22,4.73,7.29,8.76,10.61,13.4Z"/>
      <path class="cls-1" d="M479.28,716.58c-2.13,0-4.27,0-6.4,0-1.94,0-2.49-.79-1.99-2.78,2.26-9.12,4.46-18.25,6.5-27.43.65-2.94,1.89-4.16,5.05-3.86,3.45.33,6.95.07,10.43.08,1.5,0,3.08-.03,3.09,2.11,0,2.03-1.19,2.69-3.07,2.66-2.69-.05-5.39-.07-8.08.02-2.5.09-4.34,3.2-4.07,6.89.19,2.64,2.32,1.91,3.86,1.97,1.79.07,3.59-.04,5.38-.08,1.55-.03,2.71.46,2.61,2.26-.08,1.6-.92,2.41-2.63,2.33-2.46-.11-4.94-.03-7.4-.2-2.35-.16-3.71,1.01-4.1,3.1-1.48,7.9-4.08,8.8,6.35,8.38.11,0,.23-.02.34-.01,1.55.11,3.89-.71,3.95,1.74.05,2.32-1.87,2.97-4.09,2.8-1.9-.15-3.81-.03-5.72-.03v.03Z"/>
      <path class="cls-1" d="M810.89,716.49c-2.13,0-4.27-.03-6.4,0-2.09.04-2.8-.72-2.26-2.89,2.21-9.01,4.39-18.04,6.4-27.1.64-2.91,1.86-4.23,5.02-3.96,3.45.3,6.95.1,10.43.13,1.33.01,2.98-.23,3.09,1.68.11,1.9-1.21,2.86-3,2.91-2.58.08-5.16.06-7.73-.09-1.61-.09-2.79.56-3.15,1.94-.55,2.09-2.22,4.06-1.04,6.4.41.82,1.34.7,2.11.71,2.13.03,4.27.06,6.4.03,1.49-.02,3.18-.23,3.19,1.91.01,2.08-1.55,2.5-3.28,2.48-2.24-.02-4.5.04-6.73-.11-2.42-.17-3.85.75-4.29,3.18-1.62,9.05-4.14,8.42,6.03,8.25.67-.01,1.35-.03,2.02-.02,1.37.01,2.54.39,2.45,2.05-.08,1.52-.82,2.53-2.53,2.52-2.24-.02-4.49,0-6.73,0v-.04Z"/>
      <path class="cls-1" d="M676.31,716.55c-2.02,0-4.04-.04-6.06.01-2.18.06-2.73-.95-2.25-2.97,2.22-9.47,4.38-18.96,6.55-28.44.46-2.02,1.83-2.58,3.75-2.54,3.81.08,7.63.03,11.44.06,1.31,0,2.99-.28,3.1,1.65.1,1.84-1.1,2.96-2.91,3.04-2.58.1-5.16-.09-7.74-.02-2.91.08-5.81,5.71-4.27,8.17.57.91,1.52.82,2.4.82,2.24,0,4.49-.08,6.73-.07,1.23,0,2.69-.08,2.58,1.78-.09,1.53-.99,2.51-2.59,2.55-2.36.05-4.73.16-7.06-.05-2.55-.23-3.84.62-4.64,3.14-2.49,7.88-2.22,8.39,5.9,8.53.45,0,.9-.03,1.35-.01,1.34.06,3.21-.7,3.23,1.7.02,2.28-1.56,2.68-3.46,2.62-2.02-.05-4.03-.01-6.05-.01,0,0,0,.02,0,.03Z"/>
      <path class="cls-1" d="M456.94,703.12c-2.28,3.11-4.55,6.22-6.83,9.34-.69.96-1.09,2.44-2.65,2.12-1.43-.29-1.65-1.68-1.97-2.87-.92-3.46-1.74-6.95-2.94-10.32-.27-.76-.43-1.97-1.54-1.95-1.05.02-1.33,1.12-1.62,1.94-1.37,3.9-3.52,7.46-4.98,11.33-.42,1.11-.9,2.32-1.91,3.12-.96.76-2.06.98-3.11.24-.92-.66-.6-1.61-.24-2.44.8-1.82,1.72-3.58,2.31-5.48,2.35-3.17,3.68-6.88,5.27-10.43,1.42-3.16,3.01-6.24,4.42-9.4.41-.93.27-2.53,1.9-2.29,1.32.19,1.54,1.41,1.72,2.57.7,4.65,1.9,9.19,3.03,13.74.3,1.21-.29,3.13,1.37,3.45,1.73.34,2.21-1.55,3.01-2.7h0c1.76-2.12,3.22-4.45,4.71-6.76h0c1.79-3.05,4.18-5.7,5.88-8.82.45-.83.75-2.44,2.27-1.89,1.34.48.91,1.85.91,2.92,0,.33-.12.65-.2.98-.19,7.27-.03,14.53-.08,21.79,0,.89,0,1.79-.02,2.68-.03,1.44-.64,2.41-2.19,2.36-1.46-.05-1.79-1.13-1.81-2.35-.06-3.46.03-6.93-.05-10.39-.03-1.4.69-3.47-.75-4-1.72-.64-2.26,1.72-3.38,2.67-.25.21-.38.55-.54.84Z"/>
      <path class="cls-1" d="M562.82,716.47c-2.42.09-5.24-.58-6.93-3.7-.84-1.56-1.14-3.06.56-4.1,1.47-.91,2.78-.88,3.96.9,2.94,4.42,8.57,2.51,10.73-1.45.88-1.61.53-3.27-.9-4.59-1.58-1.45-3.44-2.49-5.27-3.59-5.56-3.36-6.34-9.02-1.95-13.88,3.46-3.83,9.65-5.28,13.85-3.18,1.41.71,2.77,1.63,2.81,3.47.03,1.37-1.09,1.85-2.08,2.38-1.38.74-2.25-.14-3.25-.95-2.49-2.02-5.57-1.6-7.68.93-1.96,2.34-1.68,4.08,1.35,6.44,1.66,1.3,3.58,2.26,5.34,3.43,3.55,2.36,4.51,5.38,3.04,9.3-2.02,5.4-6.94,8.69-13.59,8.58Z"/>
      <path class="cls-1" d="M402.58,713.84c-.76-3.49-1.35-7.04-2.41-10.43-1.68-5.35-2.57-10.87-3.88-16.3-.22-.9.37-2.2-1.15-2.41-1.18-.16-1.73.7-2.34,1.58-6.23,9.04-12.51,18.05-18.77,27.06-.6.87-2.01,1.79-.72,2.79,1.18.92,2.85.74,4.05-.29.75-.63,1.32-1.55,1.76-2.44,2.26-4.62,5.8-6.03,10.91-5.58,6.01.53,6.11.13,7.28,6.25.34,1.78,1.02,2.65,2.89,2.5,1.66-.14,2.8-.79,2.37-2.74ZM391.74,703.35c-.33.02-.67,0-1,0v-.06c-.9,0-1.81.11-2.69-.02-1.33-.2-1.8-1.27-1-2.18,1.63-1.86,2.89-3.96,4.26-5.99.31-.45.89-.92,1.41-.46,2.06,1.8,1.88,4.47,2.19,6.8.28,2.11-1.76,1.82-3.17,1.91Z"/>
      <path class="cls-1" d="M376,683.48c-2.29-.89-4.61-.79-6.04-.75-1.37,0-1.82,0-2.27,0q-5.23-.13-6.44,4.96c-2,8.36-4.04,16.72-6.01,25.09-.36,1.51-.92,3.29,1.4,3.77,2.07.42,3.12-.75,3.55-2.67.59-2.62,1.51-5.22,1.74-7.87.31-3.64,2.06-4.54,5.49-4.52,8.84.06,11.35-5.23,12.53-11.41.57-2.97-.82-5.39-3.94-6.61ZM371.31,696.47c-1.26.63-2.61.55-4.19.66-2.58.07-3.36-.99-2.47-3.7.29-.85.84-1.64.97-2.51.34-2.3.88-4.23,3.88-3.83,2.15.28,4.52.47,5.04,3.02.58,2.78-.57,5.03-3.23,6.36Z"/>
      <path class="cls-1" d="M765.45,714.4c-.09-.29-.24-.71-.34-1.15-1.99-8.95-3.98-17.91-5.95-26.86-.17-.75-.12-1.68-1.12-1.84-1.06-.17-1.57.66-2.09,1.41-6.32,9.1-12.64,18.19-18.94,27.3-.59.85-2,1.71-.8,2.83,1.07,1,2.58.79,3.73-.07.79-.59,1.61-1.38,1.96-2.27,2.04-5.32,6.05-6.62,11.24-5.83.98.16,2.03.09,3.03,0,2.29-.18,3.25.98,3.47,3.12.14,1.33.27,2.7.72,3.94.62,1.71,2.22,1.69,3.71,1.5,1.06-.14,1.48-.9,1.38-2.09ZM753.68,703.75c-.89,0-1.79.09-2.67-.02-1.61-.2-2.24-1.28-1.41-2.59,1.48-2.32,3.19-4.51,4.92-6.67.42-.52,1.05-1.33,1.95-.94.71.31.58,1.14.67,1.78.16,1.22.16,2.46.44,3.65,1.1,4.7,1.04,4.79-3.91,4.8Z"/>
      <path class="cls-1" d="M792.52,682.1c2.59-.12,5.39.55,7.97,2.09,1.79,1.07,1.53,2.66.73,4.11-.86,1.57-1.97.79-3.09.1-7.34-4.45-17.73-.7-20.91,7.53-1.25,3.25-2.56,6.55-1.09,10.07,2.63,6.32,9.5,8.03,16.49,4.17.9-.5,1.79-1.97,2.83-.7.97,1.18.31,2.68-.64,3.66-1.87,1.93-4.36,2.63-6.97,3.02-12.72,1.92-19.91-6.36-16.19-18.68,2.58-8.54,11.61-15.33,20.86-15.38Z"/>
      <path class="cls-1" d="M693.24,560.06c-.11,0-.22,0-.32,0-.14,0-.27,0-.4-.01.16-.14.31-.19.45-.15.09.02.18.08.27.17Z"/>
      <path class="cls-1" d="M733.75,545.4c-.02-.19-.03-.39-.05-.57-.02-.34-.06-.67-.08-1.01.12.14.21.27.26.41.13.38.03.77-.12,1.17Z"/>
      <path class="cls-1" d="M733.64,682.77c1.91,0,3.82-.07,5.72.03,1.2.06,3.08-.55,2.96,1.62-.09,1.7-1.14,2.93-3.06,2.93-2.36,0-4.72,0-7.07-.14-2.35-.14-3.64.46-4.15,3.13-1.16,6.11-1.34,6.08,4.87,6,1.23-.02,2.47-.07,3.7-.09,1.21-.03,2.38.18,2.43,1.67.06,1.53-.66,2.61-2.36,2.64-2.69.04-5.39.15-8.08,0-2.37-.13-3.5.87-3.94,3.12-.62,3.19-1.37,6.35-2.13,9.51-.26,1.07-.43,2.25-1.48,2.93-1.01.65-2.17.83-3.2.24-1.45-.83-.74-2.28-.49-3.36,1.51-6.52,3.16-13.01,4.73-19.52.55-2.28,1.13-4.58,1.44-6.9.35-2.67,1.5-4.09,4.37-3.88,1.9.14,3.81.03,5.72.03v.07Z"/>
      <path class="cls-1" d="M261.17,700.6c-.67,0-1.35,0-2.02,0-4.43-.07-4.86.3-5.8,4.68-.64,2.95-1.33,5.89-2.02,8.83-.46,1.98-1.67,2.89-3.7,2.35-2.25-.6-1.3-2.12-.97-3.51,2.09-8.81,4.25-17.61,6.16-26.46.64-2.99,1.85-4.14,5.01-3.81,3.22.34,6.5.02,9.75.04,1.59,0,3.68-.64,3.64,2.1-.04,2.59-1.91,2.61-3.83,2.55-2.24-.08-4.49-.21-6.73-.12-2.72.11-5.76,5.72-4.51,8.13.52,1.01,1.5.93,2.35.94,2.24.03,4.49-.06,6.73-.11,1.49-.03,2.81.28,2.72,2.12-.08,1.62-1.13,2.32-2.73,2.29-1.35-.03-2.69,0-4.04-.01Z"/>
      <path class="cls-1" d="M650.85,687.37c-1.29-.06-3.66.78-3.51-2.14.12-2.25,1.85-2.61,3.92-2.55,5.16.14,10.32.04,15.49.02,1.48,0,3.11-.21,3.11,2,0,2.09-1.34,2.5-3.13,2.6-6.72.37-6.63.43-8.07,7.07-1.45,6.67-3.15,13.29-4.6,19.97-.41,1.86-1.4,2.45-3.08,2.23-2.18-.28-1.92-1.87-1.59-3.33,1.66-7.31,3.33-14.62,5.08-21.91.88-3.67.67-4.02-3.63-3.96Z"/>
      <path class="cls-1" d="M755.28,467.18c-.73,3.48-1.71,6.92-2.64,10.35-3.09,11.3-6.18,22.6-9.03,33.96-2.73,10.9-5.96,21.67-9,32.48-.15.52-.56.95-.85,1.42.16-.4.26-.79.12-1.17-.05-.14-.13-.27-.26-.41.02.34.06.67.08,1.01.02.19.03.38.05.57-.51,4.82-2.14,9.38-3.27,14.05-2.35,9.78-5.39,19.37-7.83,29.14-1.92,7.69-4.37,15.25-6.34,22.95-2.98,11.6-6.26,23.12-9.26,34.71-1.79,6.92-1.66,6.95-8.65,6.97-8.89,0-17.77.03-26.65.01-3.49,0-4.46-1.27-3.46-4.63,3.74-12.54,6.79-25.26,10.23-37.88,3.45-12.6,6.92-25.19,10.21-37.83,1.11-4.29,2.21-8.65,3.78-12.84.13,0,.26,0,.4.01.11,0,.22,0,.32,0-.09-.09-.18-.14-.27-.17-.14-.04-.29.01-.45.15,1.39-5.48,2.72-10.96,4.18-16.42,2.18-8.14,4.42-16.28,6.73-24.4.37-1.31.22-2.99,1.81-3.76.07-.84.14-1.67.22-2.51.61-5.25,2.39-10.21,3.7-15.29,1.77-6.9,3.7-13.76,5.57-20.63.93-3.45,1.87-6.89,2.87-10.31.65-2.19,2.03-3.32,4.49-3.15,4.36.29,8.7.77,13.09.58,5.59-.25,11.19-.3,16.79-.59,2.74-.14,3.85,1.09,3.33,3.59Z"/>
      <path class="cls-1" d="M733.75,545.4c-.02-.19-.03-.39-.05-.57-.02-.34-.06-.67-.08-1.01.12.14.21.27.26.41.13.38.03.77-.12,1.17Z"/>
      <path class="cls-1" d="M425.88,693.65c-.91,1.11-1.82,2.21-2.74,3.32-4.6,3.93-4.5,9.77-6,14.93-1.09,3.75-2.23,5.43-4.09,4.45-2.78-1.46-1.26-3.84-.63-5.84,1.68-5.31,2.74-10.54-.13-15.83-1.44-2.65-1.79-5.75-3.19-8.46-.59-1.16-1.13-2.71.64-3.45,1.85-.77,3.48-.07,4.13,1.74.9,2.52,2.12,4.92,2.81,7.52.31,1.16.3,2.65,1.71,3.02,1.45.38,2.06-1.02,2.92-1.86,2.42-2.36,4.08-5.33,6.42-7.75.7-.73,1.33-1.55,2.18-2.09,1.04-.67,2.36-1.42,3.38-.39,1.22,1.23-.11,2.16-.86,3.1-2.09,2.63-4.47,5-6.57,7.61Z"/>
      <path class="cls-1" d="M299.82,682.18c1.91,0,3.82-.06,5.73.02,1.45.06,3.55-.5,3.39,2.02-.13,2.04-1.02,3.66-3.57,3.56-2.35-.09-4.72-.08-7.07-.03-2.96.06-5.54,3.88-4.6,6.69.41,1.24,1.38,1.3,2.43,1.29,2.13-.02,4.27-.06,6.4-.03,1.39.02,3.16-.45,3.24,1.83.07,2.09-.82,3.52-3.08,3.59-2.58.08-5.18.2-7.74-.04-2.17-.21-3.08.82-3.61,2.61-.1.32-.18.65-.26.97-1.76,7.38-1.42,7.75,6.32,6.9,1.61-.18,3.6-.99,4.27,1.3.54,1.84.3,3.7-2.23,3.98-4.81.55-9.65.28-14.47.18-2.06-.04-2.39-1.37-1.93-3.33,2.27-9.7,4.42-19.44,6.56-29.17.39-1.79,1.54-2.34,3.16-2.35,2.36-.01,4.71,0,7.07,0Z"/>
      <path class="cls-1" d="M596.73,716.57c-1.34-.11-2.93.02-2.41-2.15,2.38-9.78,4.78-19.56,7.16-29.34.31-1.27.74-2.37,2.28-2.51,2.01-.18,3.4.24,2.8,2.74-2.35,9.78-4.68,19.57-7.05,29.35-.34,1.41-1.35,2-2.78,1.91Z"/>
      <path class="cls-1" d="M282.14,684.92c-1.1,5.04-2.15,10.09-3.31,15.11-1.05,4.58-2.3,9.11-3.3,13.7-.53,2.45-2.04,3.25-4.16,2.69-2.23-.59-1.05-2.24-.73-3.58,2.15-9.05,4.28-18.09,6.38-27.15.38-1.62.74-3.1,2.85-3.09,1.59,0,2.71.39,2.26,2.32Z"/>
      <path class="cls-1" d="M707.67,704.37c-.81-1.56-.62-2.8,1.24-3.46,5.25-1.84,6.69-6.18,7.23-10.36.17-5.17-2.61-8.21-7.09-8.39-2.47-.1-4.95-.02-7.42-.07-2.25-.05-3.34.84-3.88,3.2-2.17,9.6-4.54,19.16-6.94,28.7-.58,2.29.14,3.1,2.37,3.22,2.11.11,3.39-.54,3.89-2.74.6-2.6,1.71-5.07,1.91-7.79.07-.92-.36-2.37.82-2.65,1.35-.32,1.69,1.19,2.24,2.1.4.67.67,1.43,1,2.14,1.2,2.53,2.09,5.22,3.79,7.5,1.38,1.86,3.43,1.99,5.12,1.02,1.79-1.02.83-2.67.04-4.11-1.51-2.74-2.93-5.51-4.36-8.29ZM701.03,695.48c.09-5.22,1.83-8.19,4.79-8.13,2.92.06,4.68,1.64,4.62,4.11-.09,3.54-3.39,6.55-7.18,6.61-1.83.03-2.26-1.02-2.23-2.59Z"/>
      <path class="cls-1" d="M425.88,693.65c1.21-3.11,4.07-4.93,5.93-7.54.61-.86,2.11-1.69,1.11-2.76-1.07-1.13-2.38-.05-3.17.84-2.74,3.1-5.39,6.29-8.03,9.48-1.01,1.22-1.91,2.82-3.69,2.46-1.62-.34-1.18-2.19-1.64-3.39-1.04-2.72-2.07-5.44-3.14-8.15-.53-1.34-1.61-1.99-2.96-1.51-1.73.61-1.14,2.01-.61,3.09,2.12,4.34,3.3,9.03,4.98,13.53,1.36,3.64-1.18,6.91-1.45,10.43-.07.98-.63,1.92-.77,2.9-.15,1.07-1.16,2.57.91,2.93,1.69.29,2.45-.8,2.8-2.25.76-3.16,1.61-6.29,2.19-9.48.58-3.17,2.07-5.6,4.81-7.26-3.95,5.17-4.38,11.54-5.93,17.52-.62,2.39-2.16,2.97-4.29,2.73-2.31-.26-2.17-1.97-1.85-3.56.64-3.17,1.3-6.35,2.19-9.46.56-1.96.42-3.74-.26-5.59-1.47-4-3.03-7.97-4.29-12.03-.41-1.33-2.13-3.38.44-4.27,2.27-.79,4.58-.4,5.62,2.23.94,2.38,1.68,4.84,2.45,7.28.3.95.23,2.17,1.43,2.45,1.2.28,1.76-.81,2.39-1.55,2.39-2.83,4.71-5.71,7.12-8.51.87-1.01,1.78-2.1,3.29-2.14,1.21-.03,2.66-.4,3.38.88.73,1.3-.62,2.06-1.33,2.77-2.59,2.6-4.46,5.9-7.63,7.94Z"/>
      <path class="cls-1" d="M547.24,682.06c2.7,0,5.4-.02,8.1.01,1.42.02,3.4-.27,3.28,1.83-.11,1.91-.53,4.18-3.31,4.31-.11,0-.23,0-.34,0-6.04.45-6.11.44-7.47,6.19-1.51,6.41-2.92,12.84-4.32,19.27-.7,3.2-2.03,4.29-4.85,3.55-3-.79-2.16-3.3-1.58-4.99,1.58-4.56,2.15-9.34,3.49-13.95.71-2.45.66-5.06,1.87-7.45.9-1.77,0-2.78-2.02-2.66-.67.04-1.35.03-2.02.07-1.98.1-3.66-.12-3.57-2.75.08-2.38,1.32-3.45,3.63-3.44,3.04,0,6.07,0,9.11,0Z"/>
      <path class="cls-1" d="M633.7,713.23c2.24,1.44,2.92.12,3.33-1.83,1.36-6.42,2.73-12.84,4.16-19.24.41-1.85,1.03-3.66,1.51-5.5.33-1.26,1.1-2.9-.71-3.44-1.77-.53-2.62,1.01-2.97,2.49-.89,3.7-1.66,7.42-2.45,11.14-.51,2.4-1.03,4.81-1.46,7.23-.15.83-.22,1.57-1.27,1.63-.91.05-1.85.1-2.39-.84-3.51-6.12-8.53-11.11-12.66-16.77-.56-.77-1.57-1.39-1.19-2.62,4.99,5.28,9.3,11.12,13.78,16.82.52.66.66,1.91,1.81,1.66.93-.21.69-1.29.86-2.01,1.29-5.44,2.57-10.88,3.79-16.34.55-2.48,1.98-3.85,4.51-3.39,2.53.46,1.78,2.56,1.45,4.08-1.99,9.17-4.1,18.31-6.17,27.46-.21.92-.57,1.86-1.66,1.8-1.36-.07-2.31-.78-2.27-2.33Z"/>
      <path class="cls-1" d="M235.8,716.79c-3.33.16-3.2-1.94-2.76-3.86,1.54-6.66,3.26-13.27,4.87-19.91.55-2.28.98-4.6,1.42-6.91.29-1.5.87-2.79,2.28-3.53.93-.49,1.94-.62,2.89-.04,1,.62,1.21,1.62.97,2.66-2.32,9.8-4.67,19.58-7,29.38-.37,1.56-1.4,2.22-2.66,2.22Z"/>
      <path class="cls-1" d="M216.68,699.02c-4.24-3.54-7.07-8.29-10.62-12.42-.7-.81-1.05-2.35-2.35-1.94-1.09.34-.48,1.78-.7,2.72-2.01,8.5-4.03,16.99-6,25.5-.22.95-1.32,2.28.33,2.88,1.84.66,2.14-1.09,2.79-2.19.46-.78-.03-1.84.77-2.51.37-.21.69-.16.97.15-.2,2.23-.22,4.59-2.75,5.63-1.05.43-2.23.48-3.21-.29-.93-.73-.79-1.68-.54-2.75,2.26-9.67,4.43-19.37,6.7-29.03.3-1.28.9-3.6,2.68-1.34,4.04,5.14,8.82,9.72,11.92,15.58Z"/>
      <path class="cls-1" d="M431.92,708.43c-.67,1.63-1.39,3.24-1.99,4.89-.3.83-1.35,1.9.13,2.55,1.23.54,2.18-.19,2.76-1.26.75-1.37,1.47-2.76,2.04-4.21,1.41-3.63,3.52-6.96,4.59-10.74.26-.92.51-2.1,1.89-1.92,1.05.14,1.32,1.04,1.56,1.94,1.01,3.77,2.09,7.51,3.06,11.28.98,3.83,1.21,3.94,4.14,1.49-.2,1.61-.51,3.24-2.52,3.38-2.32.16-2.11-1.85-2.49-3.28-.93-3.44-1.82-6.89-2.81-10.31-.2-.7-.52-1.64-1.46-1.64-1.02,0-.98,1.04-1.28,1.72-1.92,4.36-3.79,8.75-5.79,13.08-.91,1.98-2.78,2.33-4.58,1.65-2.33-.88-.97-2.66-.43-3.95.88-2.1,2.05-4.08,3.1-6.11.49.45.47.93.06,1.42Z"/>
      <path class="cls-1" d="M431.92,708.43c-.02-.47-.04-.95-.06-1.42,2.86-7.25,6.94-13.95,9.45-21.36.27-.79.79-1.42,1.69-1.38,1.2.07,1.68.96,1.91,2.01.87,3.91,1.73,7.82,2.58,11.74.26,1.2.44,2.41.72,3.61q.96,4.09,3.99,1.46c.21,1.4-.59,2.33-1.49,3.21-.58.57-1.21,1.06-2.08.74-.85-.32-1.08-1.06-1.14-1.89-.45-5.5-2.53-10.68-3.26-16.13-.13-.95-.07-2.32-1.31-2.43-1.15-.11-1,1.29-1.35,2.03-2.79,5.98-5.51,11.99-8.29,17.98-.32.69-.52,1.51-1.35,1.84Z"/>
      <path class="cls-1" d="M456.94,703.12c.18-1.91,1.67-3.08,2.57-4.58.47-.79.96-1.7,2.03-1.39,1.15.33.84,1.44.83,2.29-.04,4.48-.16,8.97-.15,13.45,0,1.1-.62,2.84,1.26,2.92,2.09.09,1.61-1.72,1.61-2.99,0-7.18-.04-14.35-.02-21.53,0-.87.31-1.74.47-2.61.69.62.47,1.45.45,2.21-.16,8.35.39,16.71-.29,25.05-3.25,1.99-4.71,1.27-4.78-2.43-.06-3.35.03-6.7,0-10.04,0-.95.59-2.31-.44-2.76-1.26-.55-1.76.95-2.52,1.67-.31.29-.69.5-1.04.74Z"/>
      <path class="cls-1" d="M693.24,560.06c-.11,0-.22,0-.32,0-.14,0-.27,0-.4-.01.16-.14.31-.19.45-.15.09.02.18.08.27.17Z"/>
      <path class="cls-1" d="M465.72,715.95c-.05-9.09-.11-18.17-.16-27.26-.22-.91.35-2.04-.92-2.83-2.77,3.34-4.3,7.62-7.73,10.46.82-3.59,3.86-5.82,5.51-8.92.63-1.19.85-3.67,2.9-3.07,2.15.62,1.04,2.88,1.05,4.39.1,7.93.06,15.86.02,23.79,0,1.17.49,2.48-.67,3.45Z"/>
      <path class="cls-1" d="M201.88,711.21c-.32-.05-.65-.1-.97-.15.69-5.2,2.71-10.12,3.25-15.36.1-.94.27-2.17,1.44-2.45,1.18-.28,2.02.74,2.37,1.54,1.42,3.21,4.85,4.95,5.95,8.35-2.4-1.53-3.94-3.84-5.56-6.07-.54-.74-1.13-1.5-2.16-1.35-1.22.19-.97,1.31-1.16,2.13-1.05,4.45-2.1,8.91-3.15,13.36Z"/>
      <path class="cls-1" d="M456.91,696.33c-.77,2.81-2.29,5.1-4.71,6.76.98-2.66,2.48-4.97,4.71-6.76Z"/>
      <path class="cls-1" d="M828.09,549.28h0s0,0,0,0h0s0,0,0,0Z"/>
      <path class="cls-1" d="M828.09,549.28h0s0,0,0,0Z"/>
      <path class="cls-1" d="M863.2,556s-.06.01-.08.01c.02-.02.04-.03.07-.04,0,.01,0,.02.01.03Z"/>
      <path class="cls-1" d="M828.09,549.28h0s0,0,0,0h0s0,0,0,0Z"/>
      <path class="cls-1" d="M292.28,715.78c-1.68,0-3.39-.17-5.05.04-2.94.37-3.52-.87-2.87-3.47,1.76-7.05,3.41-14.12,5.13-21.18q1.87-7.66,9.68-7.72c1.91-.02,3.82-.06,5.72-.01,1.01.03,2.55-.57,2.64,1.15.09,1.73-1.23,2.18-2.75,2.16-2.36-.02-4.71-.05-7.07,0-1.41.03-3.4-.41-3.82,1.31-.61,2.53-2.08,5.06-1.1,7.78.37,1.02,1.45,1.28,2.55,1.25,2.13-.06,4.27-.11,6.39-.04.96.03,2.59-.67,2.51,1.2-.06,1.47-1.32,2.13-2.67,1.86-2.35-.48-4.7-.12-7.04-.3-2.15-.16-3.41.8-4.06,2.73-.36,1.06-.69,2.13-.92,3.23-1.59,7.44-.92,8.13,6.8,7.09.44-.06.89-.19,1.33-.18,1.29.03,3.03-.42,3.08,1.59.05,1.83-1.58,1.53-2.77,1.55-1.91.04-3.82,0-5.72,0,0-.02,0-.03,0-.05Z"/>
      <path class="cls-1" d="M706.2,704.22c-1.27-2.27-.51-3.53,1.77-4.31,4.76-1.63,7.62-6.69,6.83-12-.49-3.29-2.72-4.42-8.89-4.49h-.34v-.04c-.79,0-1.58.08-2.36-.02-3.05-.39-4.22.77-4.81,3.96-.6,3.25-1.36,6.54-2.19,9.78-1.4,5.41-2.54,10.88-3.88,16.31-.32,1.31-.34,2.22,1.23,2.44,1.25.17,2.11-.09,2.41-1.59.49-2.41,1.34-4.74,1.79-7.14.35-1.93-.29-4.66,2.08-5.14,2.7-.55,2.57,2.55,3.44,4.17,1.43,2.65,2.56,5.48,3.88,8.2.85,1.74,2.62,2.11,4.01,1.41,1.88-.95,0-2.01-.47-2.94-1.46-2.89-2.94-5.78-4.52-8.61ZM703.26,698.06c-1.83.03-2.26-1.02-2.23-2.59.09-5.22,1.83-8.19,4.79-8.13,2.92.06,4.68,1.64,4.62,4.11-.09,3.54-3.39,6.55-7.18,6.61Z"/>
      <path class="cls-1" d="M546.73,683.01c2.7,0,5.4,0,8.09,0,1.16,0,2.4,0,2.39,1.62-.02,1.4-.62,2.21-2.23,2.35-7.64.63-7.47.7-8.85,8.27-1.17,6.38-2.8,12.68-4.24,19.01-.44,1.94-2,2.09-3.44,1.72-1.68-.43-.81-1.66-.54-2.73,1.85-7.51,3.71-15.03,5.42-22.57.72-3.18-.14-3.9-3.49-3.93-1.57-.01-4.24,1.36-4.29-1.47-.05-2.53,2.55-2.26,4.45-2.26,1.12,0,2.25.04,3.37.05,1.12,0,2.25,0,3.37,0v-.06Z"/>
      <path class="cls-1" d="M244.18,685.23c-.8,3.49-1.46,6.66-2.26,9.8-1.42,5.59-3.17,11.1-3.87,16.86-.05.43-.25.87-.46,1.26-.62,1.1-.82,3.18-2.53,2.5-1.92-.77-.46-2.33-.15-3.67,1.88-8.13,3.63-16.3,5.36-24.47.23-1.11.36-2.22,1.08-3.13.51-.65,1.2-1.05,2.06-.77,1.05.34.71,1.23.77,1.64Z"/>
      <path class="cls-1" d="M828.09,549.28h0s0,0,0,0h0s0,0,0,0Z"/>
    </g>
    <polygon class="cls-1" points="671.56 637.07 717.52 470.74 753.26 470.74 707.31 642.59 671.56 637.07"/>
    <path class="cls-1" d="M828.09,549.28h0s0,0,0,0h0s0,0,0,0Z"/>
    <path class="cls-1" d="M745.28,615.3s-.09.07-.13.11c0-.03-.01-.06-.02-.09.06,0,.11,0,.15-.01Z"/>
    <polygon class="cls-1" points="910.61 561.18 866.95 606.34 822.99 649.92 831.07 554.12 840.01 458.39 875.59 509.03 910.61 561.18"/>
    <polygon class="cls-3" points="870.85 560.37 827.19 605.53 783.23 649.1 791.32 553.3 800.25 457.58 835.83 508.22 870.85 560.37"/>
  </g>
  <rect class="cls-2" x="116.59" y="355.62" width="846.41" height="462.38" rx="74.35" ry="74.35"/>
</svg>