<?xml version="1.0" encoding="UTF-8"?>
<svg id="Layer_1" xmlns="http://www.w3.org/2000/svg" viewBox="0 0 1080 1080">
  <defs>
    <style>
      .cls-1, .cls-2 {
        fill: #1f3060;
      }

      .cls-3 {
        fill: #203160;
      }

      .cls-4 {
        fill: #fff;
      }

      .cls-2 {
        opacity: .18;
      }
    </style>
  </defs>
  <g>
    <path class="cls-4" d="M812.17,962.37c-2.64-.29-5.34-.04-8.01-.04v-.04c-2.67,0-5.35-.16-8.01.03-8.25.59-13.96,6.59-13.87,14.42.09,7.45,5.56,13.49,13.33,14.02,5.61.38,11.34.62,16.88-.1,7.7-1,12.13-5.94,12.52-13.82.38-7.43-5.23-13.64-12.84-14.47ZM812.17,962.37c-2.64-.29-5.34-.04-8.01-.04v-.04c-2.67,0-5.35-.16-8.01.03-8.25.59-13.96,6.59-13.87,14.42.09,7.45,5.56,13.49,13.33,14.02,5.61.38,11.34.62,16.88-.1,7.7-1,12.13-5.94,12.52-13.82.38-7.43-5.23-13.64-12.84-14.47ZM182.68,488.77c-.99-7.71-5.82-12.21-13.7-12.65-7.43-.42-14.1,5.14-14.47,12.77-.49,10.38-.46,20.82-.02,31.21.32,7.72,6.72,13.18,14.17,13.15,7.43-.04,13.51-5.52,14.1-13.28.38-5.02.07-10.1.06-15.16,0-5.35.53-10.77-.14-16.04ZM812.17,962.37c-2.64-.29-5.34-.04-8.01-.04v-.04c-2.67,0-5.35-.16-8.01.03-8.25.59-13.96,6.59-13.87,14.42.09,7.45,5.56,13.49,13.33,14.02,5.61.38,11.34.62,16.88-.1,7.7-1,12.13-5.94,12.52-13.82.38-7.43-5.23-13.64-12.84-14.47ZM182.68,488.77c-.99-7.71-5.82-12.21-13.7-12.65-7.43-.42-14.1,5.14-14.47,12.77-.49,10.38-.46,20.82-.02,31.21.32,7.72,6.72,13.18,14.17,13.15,7.43-.04,13.51-5.52,14.1-13.28.38-5.02.07-10.1.06-15.16,0-5.35.53-10.77-.14-16.04ZM812.17,962.37c-2.64-.29-5.34-.04-8.01-.04v-.04c-2.67,0-5.35-.16-8.01.03-8.25.59-13.96,6.59-13.87,14.42.09,7.45,5.56,13.49,13.33,14.02,5.61.38,11.34.62,16.88-.1,7.7-1,12.13-5.94,12.52-13.82.38-7.43-5.23-13.64-12.84-14.47ZM182.68,488.77c-.99-7.71-5.82-12.21-13.7-12.65-7.43-.42-14.1,5.14-14.47,12.77-.49,10.38-.46,20.82-.02,31.21.32,7.72,6.72,13.18,14.17,13.15,7.43-.04,13.51-5.52,14.1-13.28.38-5.02.07-10.1.06-15.16,0-5.35.53-10.77-.14-16.04ZM440.36,318.76c-23.94-.09-43.28,18.86-43.4,42.53-.13,23.83,18.96,43.17,42.66,43.24,23.72.07,42.84-19.07,42.94-42.99.1-23.3-19.02-42.69-42.2-42.78ZM439.86,375.94c-7.52.09-14.29-6.58-14.36-14.18-.08-7.57,6.56-14.33,14.13-14.39,7.57-.07,14.33,6.58,14.38,14.15.05,7.56-6.6,14.32-14.15,14.42ZM686.3,390.34c-11.11-.37-17.86,4.71-18.19,13.68-.32,8.68,5.52,14.03,16.24,14.87,22.66,1.78,38.97,18.14,40.78,40.93.85,10.67,6.28,16.58,14.9,16.22,8.65-.35,13.85-6.99,13.64-17.41-.71-35.59-31.82-67.13-67.37-68.29ZM809.06,440.76c-8.23-58.3-62.21-106.35-121.08-107.68-11.12-.25-16.49,2.41-19.08,9.45-3.63,9.84,3.39,18.61,15.49,19.15,26.26,1.16,49.14,10.36,67.91,28.94,19.48,19.29,28.99,42.97,29.99,70.29.35,9.26,6.01,15.06,14.11,15.13,8.42.08,14.13-6.19,14.41-15.76.19-6.58-.83-13.03-1.75-19.52ZM812.17,962.37c-2.64-.29-5.34-.04-8.01-.04v-.04c-2.67,0-5.35-.16-8.01.03-8.25.59-13.96,6.59-13.87,14.42.09,7.45,5.56,13.49,13.33,14.02,5.61.38,11.34.62,16.88-.1,7.7-1,12.13-5.94,12.52-13.82.38-7.43-5.23-13.64-12.84-14.47ZM866.18,437.7c-9.62-87.66-88.1-159.64-178.88-161.83h-.09c-12.18-.13-18.75,4.6-19.1,13.73-.36,9.44,6.15,14.45,18.89,14.94,17.01.65,33.59,3.75,49.58,9.71,60.87,22.68,100.59,78.8,102.75,145.17.34,10.51,5.76,16.74,14.47,16.62,8.72-.11,14.24-6.53,14.01-17-.16-7.12-.85-14.25-1.63-21.34ZM182.68,488.77c-.99-7.71-5.82-12.21-13.7-12.65-7.43-.42-14.1,5.14-14.47,12.77-.49,10.38-.46,20.82-.02,31.21.32,7.72,6.72,13.18,14.17,13.15,7.43-.04,13.51-5.52,14.1-13.28.38-5.02.07-10.1.06-15.16,0-5.35.53-10.77-.14-16.04ZM866.18,437.7c-9.62-87.66-88.1-159.64-178.88-161.83h-.09c-12.18-.13-18.75,4.6-19.1,13.73-.36,9.44,6.15,14.45,18.89,14.94,17.01.65,33.59,3.75,49.58,9.71,60.87,22.68,100.59,78.8,102.75,145.17.34,10.51,5.76,16.74,14.47,16.62,8.72-.11,14.24-6.53,14.01-17-.16-7.12-.85-14.25-1.63-21.34ZM809.06,440.76c-8.23-58.3-62.21-106.35-121.08-107.68-11.12-.25-16.49,2.41-19.08,9.45-3.63,9.84,3.39,18.61,15.49,19.15,26.26,1.16,49.14,10.36,67.91,28.94,19.48,19.29,28.99,42.97,29.99,70.29.35,9.26,6.01,15.06,14.11,15.13,8.42.08,14.13-6.19,14.41-15.76.19-6.58-.83-13.03-1.75-19.52ZM686.3,390.34c-11.11-.37-17.86,4.71-18.19,13.68-.32,8.68,5.52,14.03,16.24,14.87,22.66,1.78,38.97,18.14,40.78,40.93.85,10.67,6.28,16.58,14.9,16.22,8.65-.35,13.85-6.99,13.64-17.41-.71-35.59-31.82-67.13-67.37-68.29ZM440.36,318.76c-23.94-.09-43.28,18.86-43.4,42.53-.13,23.83,18.96,43.17,42.66,43.24,23.72.07,42.84-19.07,42.94-42.99.1-23.3-19.02-42.69-42.2-42.78ZM439.86,375.94c-7.52.09-14.29-6.58-14.36-14.18-.08-7.57,6.56-14.33,14.13-14.39,7.57-.07,14.33,6.58,14.38,14.15.05,7.56-6.6,14.32-14.15,14.42ZM812.17,962.37c-2.64-.29-5.34-.04-8.01-.04v-.04c-2.67,0-5.35-.16-8.01.03-8.25.59-13.96,6.59-13.87,14.42.09,7.45,5.56,13.49,13.33,14.02,5.61.38,11.34.62,16.88-.1,7.7-1,12.13-5.94,12.52-13.82.38-7.43-5.23-13.64-12.84-14.47ZM182.68,488.77c-.99-7.71-5.82-12.21-13.7-12.65-7.43-.42-14.1,5.14-14.47,12.77-.49,10.38-.46,20.82-.02,31.21.32,7.72,6.72,13.18,14.17,13.15,7.43-.04,13.51-5.52,14.1-13.28.38-5.02.07-10.1.06-15.16,0-5.35.53-10.77-.14-16.04ZM440.36,318.76c-23.94-.09-43.28,18.86-43.4,42.53-.13,23.83,18.96,43.17,42.66,43.24,23.72.07,42.84-19.07,42.94-42.99.1-23.3-19.02-42.69-42.2-42.78ZM439.86,375.94c-7.52.09-14.29-6.58-14.36-14.18-.08-7.57,6.56-14.33,14.13-14.39,7.57-.07,14.33,6.58,14.38,14.15.05,7.56-6.6,14.32-14.15,14.42ZM686.3,390.34c-11.11-.37-17.86,4.71-18.19,13.68-.32,8.68,5.52,14.03,16.24,14.87,22.66,1.78,38.97,18.14,40.78,40.93.85,10.67,6.28,16.58,14.9,16.22,8.65-.35,13.85-6.99,13.64-17.41-.71-35.59-31.82-67.13-67.37-68.29ZM809.06,440.76c-8.23-58.3-62.21-106.35-121.08-107.68-11.12-.25-16.49,2.41-19.08,9.45-3.63,9.84,3.39,18.61,15.49,19.15,26.26,1.16,49.14,10.36,67.91,28.94,19.48,19.29,28.99,42.97,29.99,70.29.35,9.26,6.01,15.06,14.11,15.13,8.42.08,14.13-6.19,14.41-15.76.19-6.58-.83-13.03-1.75-19.52ZM812.17,962.37c-2.64-.29-5.34-.04-8.01-.04v-.04c-2.67,0-5.35-.16-8.01.03-8.25.59-13.96,6.59-13.87,14.42.09,7.45,5.56,13.49,13.33,14.02,5.61.38,11.34.62,16.88-.1,7.7-1,12.13-5.94,12.52-13.82.38-7.43-5.23-13.64-12.84-14.47ZM866.18,437.7c-9.62-87.66-88.1-159.64-178.88-161.83h-.09c-12.18-.13-18.75,4.6-19.1,13.73-.36,9.44,6.15,14.45,18.89,14.94,17.01.65,33.59,3.75,49.58,9.71,60.87,22.68,100.59,78.8,102.75,145.17.34,10.51,5.76,16.74,14.47,16.62,8.72-.11,14.24-6.53,14.01-17-.16-7.12-.85-14.25-1.63-21.34ZM182.68,488.77c-.99-7.71-5.82-12.21-13.7-12.65-7.43-.42-14.1,5.14-14.47,12.77-.49,10.38-.46,20.82-.02,31.21.32,7.72,6.72,13.18,14.17,13.15,7.43-.04,13.51-5.52,14.1-13.28.38-5.02.07-10.1.06-15.16,0-5.35.53-10.77-.14-16.04ZM866.18,437.7c-9.62-87.66-88.1-159.64-178.88-161.83h-.09c-12.18-.13-18.75,4.6-19.1,13.73-.36,9.44,6.15,14.45,18.89,14.94,17.01.65,33.59,3.75,49.58,9.71,60.87,22.68,100.59,78.8,102.75,145.17.34,10.51,5.76,16.74,14.47,16.62,8.72-.11,14.24-6.53,14.01-17-.16-7.12-.85-14.25-1.63-21.34ZM809.06,440.76c-8.23-58.3-62.21-106.35-121.08-107.68-11.12-.25-16.49,2.41-19.08,9.45-3.63,9.84,3.39,18.61,15.49,19.15,26.26,1.16,49.14,10.36,67.91,28.94,19.48,19.29,28.99,42.97,29.99,70.29.35,9.26,6.01,15.06,14.11,15.13,8.42.08,14.13-6.19,14.41-15.76.19-6.58-.83-13.03-1.75-19.52ZM686.3,390.34c-11.11-.37-17.86,4.71-18.19,13.68-.32,8.68,5.52,14.03,16.24,14.87,22.66,1.78,38.97,18.14,40.78,40.93.85,10.67,6.28,16.58,14.9,16.22,8.65-.35,13.85-6.99,13.64-17.41-.71-35.59-31.82-67.13-67.37-68.29ZM440.36,318.76c-23.94-.09-43.28,18.86-43.4,42.53-.13,23.83,18.96,43.17,42.66,43.24,23.72.07,42.84-19.07,42.94-42.99.1-23.3-19.02-42.69-42.2-42.78ZM439.86,375.94c-7.52.09-14.29-6.58-14.36-14.18-.08-7.57,6.56-14.33,14.13-14.39,7.57-.07,14.33,6.58,14.38,14.15.05,7.56-6.6,14.32-14.15,14.42ZM812.17,962.37c-2.64-.29-5.34-.04-8.01-.04v-.04c-2.67,0-5.35-.16-8.01.03-8.25.59-13.96,6.59-13.87,14.42.09,7.45,5.56,13.49,13.33,14.02,5.61.38,11.34.62,16.88-.1,7.7-1,12.13-5.94,12.52-13.82.38-7.43-5.23-13.64-12.84-14.47ZM182.68,488.77c-.99-7.71-5.82-12.21-13.7-12.65-7.43-.42-14.1,5.14-14.47,12.77-.49,10.38-.46,20.82-.02,31.21.32,7.72,6.72,13.18,14.17,13.15,7.43-.04,13.51-5.52,14.1-13.28.38-5.02.07-10.1.06-15.16,0-5.35.53-10.77-.14-16.04ZM440.36,318.76c-23.94-.09-43.28,18.86-43.4,42.53-.13,23.83,18.96,43.17,42.66,43.24,23.72.07,42.84-19.07,42.94-42.99.1-23.3-19.02-42.69-42.2-42.78ZM439.86,375.94c-7.52.09-14.29-6.58-14.36-14.18-.08-7.57,6.56-14.33,14.13-14.39,7.57-.07,14.33,6.58,14.38,14.15.05,7.56-6.6,14.32-14.15,14.42ZM686.3,390.34c-11.11-.37-17.86,4.71-18.19,13.68-.32,8.68,5.52,14.03,16.24,14.87,22.66,1.78,38.97,18.14,40.78,40.93.85,10.67,6.28,16.58,14.9,16.22,8.65-.35,13.85-6.99,13.64-17.41-.71-35.59-31.82-67.13-67.37-68.29ZM809.06,440.76c-8.23-58.3-62.21-106.35-121.08-107.68-11.12-.25-16.49,2.41-19.08,9.45-3.63,9.84,3.39,18.61,15.49,19.15,26.26,1.16,49.14,10.36,67.91,28.94,19.48,19.29,28.99,42.97,29.99,70.29.35,9.26,6.01,15.06,14.11,15.13,8.42.08,14.13-6.19,14.41-15.76.19-6.58-.83-13.03-1.75-19.52ZM812.17,962.37c-2.64-.29-5.34-.04-8.01-.04v-.04c-2.67,0-5.35-.16-8.01.03-8.25.59-13.96,6.59-13.87,14.42.09,7.45,5.56,13.49,13.33,14.02,5.61.38,11.34.62,16.88-.1,7.7-1,12.13-5.94,12.52-13.82.38-7.43-5.23-13.64-12.84-14.47ZM866.18,437.7c-9.62-87.66-88.1-159.64-178.88-161.83h-.09c-12.18-.13-18.75,4.6-19.1,13.73-.36,9.44,6.15,14.45,18.89,14.94,17.01.65,33.59,3.75,49.58,9.71,60.87,22.68,100.59,78.8,102.75,145.17.34,10.51,5.76,16.74,14.47,16.62,8.72-.11,14.24-6.53,14.01-17-.16-7.12-.85-14.25-1.63-21.34ZM182.68,488.77c-.99-7.71-5.82-12.21-13.7-12.65-7.43-.42-14.1,5.14-14.47,12.77-.49,10.38-.46,20.82-.02,31.21.32,7.72,6.72,13.18,14.17,13.15,7.43-.04,13.51-5.52,14.1-13.28.38-5.02.07-10.1.06-15.16,0-5.35.53-10.77-.14-16.04ZM866.18,437.7c-9.62-87.66-88.1-159.64-178.88-161.83h-.09c-12.18-.13-18.75,4.6-19.1,13.73-.36,9.44,6.15,14.45,18.89,14.94,17.01.65,33.59,3.75,49.58,9.71,60.87,22.68,100.59,78.8,102.75,145.17.34,10.51,5.76,16.74,14.47,16.62,8.72-.11,14.24-6.53,14.01-17-.16-7.12-.85-14.25-1.63-21.34ZM809.06,440.76c-8.23-58.3-62.21-106.35-121.08-107.68-11.12-.25-16.49,2.41-19.08,9.45-3.63,9.84,3.39,18.61,15.49,19.15,26.26,1.16,49.14,10.36,67.91,28.94,19.48,19.29,28.99,42.97,29.99,70.29.35,9.26,6.01,15.06,14.11,15.13,8.42.08,14.13-6.19,14.41-15.76.19-6.58-.83-13.03-1.75-19.52ZM686.3,390.34c-11.11-.37-17.86,4.71-18.19,13.68-.32,8.68,5.52,14.03,16.24,14.87,22.66,1.78,38.97,18.14,40.78,40.93.85,10.67,6.28,16.58,14.9,16.22,8.65-.35,13.85-6.99,13.64-17.41-.71-35.59-31.82-67.13-67.37-68.29ZM440.36,318.76c-23.94-.09-43.28,18.86-43.4,42.53-.13,23.83,18.96,43.17,42.66,43.24,23.72.07,42.84-19.07,42.94-42.99.1-23.3-19.02-42.69-42.2-42.78ZM439.86,375.94c-7.52.09-14.29-6.58-14.36-14.18-.08-7.57,6.56-14.33,14.13-14.39,7.57-.07,14.33,6.58,14.38,14.15.05,7.56-6.6,14.32-14.15,14.42ZM812.17,962.37c-2.64-.29-5.34-.04-8.01-.04v-.04c-2.67,0-5.35-.16-8.01.03-8.25.59-13.96,6.59-13.87,14.42.09,7.45,5.56,13.49,13.33,14.02,5.61.38,11.34.62,16.88-.1,7.7-1,12.13-5.94,12.52-13.82.38-7.43-5.23-13.64-12.84-14.47ZM182.68,488.77c-.99-7.71-5.82-12.21-13.7-12.65-7.43-.42-14.1,5.14-14.47,12.77-.49,10.38-.46,20.82-.02,31.21.32,7.72,6.72,13.18,14.17,13.15,7.43-.04,13.51-5.52,14.1-13.28.38-5.02.07-10.1.06-15.16,0-5.35.53-10.77-.14-16.04ZM440.36,318.76c-23.94-.09-43.28,18.86-43.4,42.53-.13,23.83,18.96,43.17,42.66,43.24,23.72.07,42.84-19.07,42.94-42.99.1-23.3-19.02-42.69-42.2-42.78ZM439.86,375.94c-7.52.09-14.29-6.58-14.36-14.18-.08-7.57,6.56-14.33,14.13-14.39,7.57-.07,14.33,6.58,14.38,14.15.05,7.56-6.6,14.32-14.15,14.42ZM686.3,390.34c-11.11-.37-17.86,4.71-18.19,13.68-.32,8.68,5.52,14.03,16.24,14.87,22.66,1.78,38.97,18.14,40.78,40.93.85,10.67,6.28,16.58,14.9,16.22,8.65-.35,13.85-6.99,13.64-17.41-.71-35.59-31.82-67.13-67.37-68.29ZM809.06,440.76c-8.23-58.3-62.21-106.35-121.08-107.68-11.12-.25-16.49,2.41-19.08,9.45-3.63,9.84,3.39,18.61,15.49,19.15,26.26,1.16,49.14,10.36,67.91,28.94,19.48,19.29,28.99,42.97,29.99,70.29.35,9.26,6.01,15.06,14.11,15.13,8.42.08,14.13-6.19,14.41-15.76.19-6.58-.83-13.03-1.75-19.52ZM812.17,962.37c-2.64-.29-5.34-.04-8.01-.04v-.04c-2.67,0-5.35-.16-8.01.03-8.25.59-13.96,6.59-13.87,14.42.09,7.45,5.56,13.49,13.33,14.02,5.61.38,11.34.62,16.88-.1,7.7-1,12.13-5.94,12.52-13.82.38-7.43-5.23-13.64-12.84-14.47ZM866.18,437.7c-9.62-87.66-88.1-159.64-178.88-161.83h-.09c-12.18-.13-18.75,4.6-19.1,13.73-.36,9.44,6.15,14.45,18.89,14.94,17.01.65,33.59,3.75,49.58,9.71,60.87,22.68,100.59,78.8,102.75,145.17.34,10.51,5.76,16.74,14.47,16.62,8.72-.11,14.24-6.53,14.01-17-.16-7.12-.85-14.25-1.63-21.34ZM182.68,488.77c-.99-7.71-5.82-12.21-13.7-12.65-7.43-.42-14.1,5.14-14.47,12.77-.49,10.38-.46,20.82-.02,31.21.32,7.72,6.72,13.18,14.17,13.15,7.43-.04,13.51-5.52,14.1-13.28.38-5.02.07-10.1.06-15.16,0-5.35.53-10.77-.14-16.04ZM866.18,437.7c-9.62-87.66-88.1-159.64-178.88-161.83h-.09c-12.18-.13-18.75,4.6-19.1,13.73-.36,9.44,6.15,14.45,18.89,14.94,17.01.65,33.59,3.75,49.58,9.71,60.87,22.68,100.59,78.8,102.75,145.17.34,10.51,5.76,16.74,14.47,16.62,8.72-.11,14.24-6.53,14.01-17-.16-7.12-.85-14.25-1.63-21.34ZM809.06,440.76c-8.23-58.3-62.21-106.35-121.08-107.68-11.12-.25-16.49,2.41-19.08,9.45-3.63,9.84,3.39,18.61,15.49,19.15,26.26,1.16,49.14,10.36,67.91,28.94,19.48,19.29,28.99,42.97,29.99,70.29.35,9.26,6.01,15.06,14.11,15.13,8.42.08,14.13-6.19,14.41-15.76.19-6.58-.83-13.03-1.75-19.52ZM686.3,390.34c-11.11-.37-17.86,4.71-18.19,13.68-.32,8.68,5.52,14.03,16.24,14.87,22.66,1.78,38.97,18.14,40.78,40.93.85,10.67,6.28,16.58,14.9,16.22,8.65-.35,13.85-6.99,13.64-17.41-.71-35.59-31.82-67.13-67.37-68.29ZM440.36,318.76c-23.94-.09-43.28,18.86-43.4,42.53-.13,23.83,18.96,43.17,42.66,43.24,23.72.07,42.84-19.07,42.94-42.99.1-23.3-19.02-42.69-42.2-42.78ZM439.86,375.94c-7.52.09-14.29-6.58-14.36-14.18-.08-7.57,6.56-14.33,14.13-14.39,7.57-.07,14.33,6.58,14.38,14.15.05,7.56-6.6,14.32-14.15,14.42ZM812.17,962.37c-2.64-.29-5.34-.04-8.01-.04v-.04c-2.67,0-5.35-.16-8.01.03-8.25.59-13.96,6.59-13.87,14.42.09,7.45,5.56,13.49,13.33,14.02,5.61.38,11.34.62,16.88-.1,7.7-1,12.13-5.94,12.52-13.82.38-7.43-5.23-13.64-12.84-14.47ZM182.68,488.77c-.99-7.71-5.82-12.21-13.7-12.65-7.43-.42-14.1,5.14-14.47,12.77-.49,10.38-.46,20.82-.02,31.21.32,7.72,6.72,13.18,14.17,13.15,7.43-.04,13.51-5.52,14.1-13.28.38-5.02.07-10.1.06-15.16,0-5.35.53-10.77-.14-16.04ZM440.36,318.76c-23.94-.09-43.28,18.86-43.4,42.53-.13,23.83,18.96,43.17,42.66,43.24,23.72.07,42.84-19.07,42.94-42.99.1-23.3-19.02-42.69-42.2-42.78ZM439.86,375.94c-7.52.09-14.29-6.58-14.36-14.18-.08-7.57,6.56-14.33,14.13-14.39,7.57-.07,14.33,6.58,14.38,14.15.05,7.56-6.6,14.32-14.15,14.42ZM686.3,390.34c-11.11-.37-17.86,4.71-18.19,13.68-.32,8.68,5.52,14.03,16.24,14.87,22.66,1.78,38.97,18.14,40.78,40.93.85,10.67,6.28,16.58,14.9,16.22,8.65-.35,13.85-6.99,13.64-17.41-.71-35.59-31.82-67.13-67.37-68.29ZM809.06,440.76c-8.23-58.3-62.21-106.35-121.08-107.68-11.12-.25-16.49,2.41-19.08,9.45-3.63,9.84,3.39,18.61,15.49,19.15,26.26,1.16,49.14,10.36,67.91,28.94,19.48,19.29,28.99,42.97,29.99,70.29.35,9.26,6.01,15.06,14.11,15.13,8.42.08,14.13-6.19,14.41-15.76.19-6.58-.83-13.03-1.75-19.52ZM812.17,962.37c-2.64-.29-5.34-.04-8.01-.04v-.04c-2.67,0-5.35-.16-8.01.03-8.25.59-13.96,6.59-13.87,14.42.09,7.45,5.56,13.49,13.33,14.02,5.61.38,11.34.62,16.88-.1,7.7-1,12.13-5.94,12.52-13.82.38-7.43-5.23-13.64-12.84-14.47ZM866.18,437.7c-9.62-87.66-88.1-159.64-178.88-161.83h-.09c-12.18-.13-18.75,4.6-19.1,13.73-.36,9.44,6.15,14.45,18.89,14.94,17.01.65,33.59,3.75,49.58,9.71,60.87,22.68,100.59,78.8,102.75,145.17.34,10.51,5.76,16.74,14.47,16.62,8.72-.11,14.24-6.53,14.01-17-.16-7.12-.85-14.25-1.63-21.34ZM182.68,488.77c-.99-7.71-5.82-12.21-13.7-12.65-7.43-.42-14.1,5.14-14.47,12.77-.49,10.38-.46,20.82-.02,31.21.32,7.72,6.72,13.18,14.17,13.15,7.43-.04,13.51-5.52,14.1-13.28.38-5.02.07-10.1.06-15.16,0-5.35.53-10.77-.14-16.04ZM866.18,437.7c-9.62-87.66-88.1-159.64-178.88-161.83h-.09c-12.18-.13-18.75,4.6-19.1,13.73-.36,9.44,6.15,14.45,18.89,14.94,17.01.65,33.59,3.75,49.58,9.71,60.87,22.68,100.59,78.8,102.75,145.17.34,10.51,5.76,16.74,14.47,16.62,8.72-.11,14.24-6.53,14.01-17-.16-7.12-.85-14.25-1.63-21.34ZM687.98,333.08c-11.12-.25-16.49,2.41-19.08,9.45-3.63,9.84,3.39,18.61,15.49,19.15,26.26,1.16,49.14,10.36,67.91,28.94,19.48,19.29,28.99,42.97,29.99,70.29.35,9.26,6.01,15.06,14.11,15.13,8.42.08,14.13-6.19,14.41-15.76.19-6.58-.83-13.03-1.75-19.52-8.23-58.3-62.21-106.35-121.08-107.68ZM686.3,390.34c-11.11-.37-17.86,4.71-18.19,13.68-.32,8.68,5.52,14.03,16.24,14.87,22.66,1.78,38.97,18.14,40.78,40.93.85,10.67,6.28,16.58,14.9,16.22,8.65-.35,13.85-6.99,13.64-17.41-.71-35.59-31.82-67.13-67.37-68.29ZM440.36,318.76c-23.94-.09-43.28,18.86-43.4,42.53-.13,23.83,18.96,43.17,42.66,43.24,23.72.07,42.84-19.07,42.94-42.99.1-23.3-19.02-42.69-42.2-42.78ZM439.86,375.94c-7.52.09-14.29-6.58-14.36-14.18-.08-7.57,6.56-14.33,14.13-14.39,7.57-.07,14.33,6.58,14.38,14.15.05,7.56-6.6,14.32-14.15,14.42ZM812.17,962.37c-2.64-.29-5.34-.04-8.01-.04v-.04c-2.67,0-5.35-.16-8.01.03-8.25.59-13.96,6.59-13.87,14.42.09,7.45,5.56,13.49,13.33,14.02,5.61.38,11.34.62,16.88-.1,7.7-1,12.13-5.94,12.52-13.82.38-7.43-5.23-13.64-12.84-14.47ZM891.99,175.76c-117.42-.02-234.84-.01-352.26-.01H188.36c-47.15.01-76.84,29.66-76.84,76.76v504.01c0,47.25,29.6,77.04,76.56,77.05,124.26,0,248.51.05,372.77-.16,6.42,0,10.06,1.81,13.47,7.28,8.79,14.12,18.3,27.79,27.6,41.58,5.25,7.8,8.67,16.2,9.07,25.7q.48,11.3-10.96,11.4c-11.69.1-17.44,4.85-17.5,15.3-.17,28-.16,56,0,84,.06,9.47,5.56,15.03,15.03,15.04,85.02.1,170.04.1,255.06,0,9.51,0,15.14-5.51,15.2-14.88.18-28.3.19-56.6,0-84.9-.06-8.89-5.72-14.12-14.65-14.54-2.67-.13-5.39-.3-8.02.03-4.76.6-5.91-1.35-5.91-5.94.01-10.67,3.28-19.75,10.73-27.45,8.89-9.2,14.02-20.28,17.14-32.73,1.64-6.55-3.26-15.85,3.71-19.13,5.85-2.76,14-.6,21.14-.61,45.81-.03,75.83-30.09,75.84-76.01,0-168.59,0-337.19,0-505.79,0-45.96-29.97-76.01-75.8-76.01ZM839.46,953.8c-.3,14.88-.39,29.77.03,44.65.16,5.59-1.44,6.9-6.9,6.86-35.95-.26-71.9-.14-107.85-.14s-70.72-.16-106.08.16c-6.21.06-8.03-1.43-7.81-7.77.51-14.57.35-29.18.05-43.76-.09-4.73,1.36-5.93,5.98-5.92,72.2.13,144.4.13,216.6,0,4.6-.01,6.07,1.18,5.98,5.92ZM839.29,842.49c0,8.64-3.1,16.43-9.15,22.62-13.14,13.44-20.02,29.35-19.22,48.22.24,5.46-1.98,6.14-6.65,6.13-52.6-.14-105.2-.21-157.8.08-6.3.03-7.28-2.22-7-7.62.9-16.98-4.64-32-14.01-46.02-30.56-45.69-60.72-91.64-91.45-137.21-4.65-6.91-2.81-9.42,3.73-12.04,12.69-5.08,25.94-1.47,34.64,10.43,12.98,17.75,25.73,35.67,38.36,53.68,4.78,6.81,10.07,12.23,19.09,9.1,8.39-2.91,9.86-9.88,9.81-18.01-.2-36.62-.09-73.25-.09-109.88s.07-74.44-.04-111.67c-.03-8.51,3.21-14.54,11.65-16.67,9.13-2.3,16.88,5.34,16.9,16.63.08,39.61.04,79.21.04,118.82,0,1.78-.04,3.57,0,5.36.23,9.79,5.64,15.99,14.06,16.11,8.43.12,14.27-6.11,14.44-15.72.16-8.33-.06-16.68.07-25.01.15-9.77,5.7-16.21,13.91-16.42,8.5-.23,14.43,6.44,14.58,16.66.12,8.34-.11,16.68.06,25.01.19,9.5,6.22,15.74,14.66,15.48,8.09-.25,13.62-6.29,13.8-15.46.17-8.63-.1-17.27.09-25.91.21-9.52,6.31-15.98,14.53-15.78,7.91.19,13.68,6.42,13.91,15.51.22,8.63-.06,17.27.09,25.9.16,9.62,5.98,15.85,14.41,15.74,8.41-.11,13.93-6.31,14.07-16.1.12-8.33-.1-16.67.06-25.01.19-9.62,6.07-16.08,14.28-16.04,8.24.03,14.17,6.46,14.18,16.14.09,64.32.09,128.64,0,192.95ZM282.58,468.06c.42-20.59.07-20.6,20.73-20.6,94.79,0,189.59.09,284.38-.18,7.25-.02,9.48,1.45,9.26,9.07-.58,19.7-.17,19.71-19.86,19.71h-137.28c-49.63,0-99.25-.13-148.88.16-6.49.04-8.49-1.28-8.35-8.16ZM282.14,418.24c46.7-36.76,92.18-72.65,137.77-108.39,6.5-5.09,12.37-13.97,19.9-13.97s13.41,8.89,19.91,13.98c45.59,35.74,91.05,71.64,137.69,108.38h-315.27ZM539.56,510.06c-.09-4.3,1.26-5.35,5.49-5.52,23.15-.95,23.15-1.08,23.15,21.64,0,19.33-.17,38.67.11,57.99.08,5.06-1.39,6.36-6.4,6.43-22.26.3-22.25.47-22.25-21.65v-21.42c0-12.49.17-24.99-.1-37.47ZM482.49,510.18c-.08-4.12.95-5.46,5.35-5.65,23.28-1.03,23.27-1.18,23.27,22.41,0,19.04-.15,38.08.11,57.11.07,4.88-1.08,6.48-6.27,6.56-22.38.33-22.38.52-22.38-21.54v-22.31c0-12.19.15-24.39-.08-36.58ZM425.4,510.09c-.09-4.25,1.17-5.37,5.44-5.55,23.19-.97,23.19-1.11,23.19,21.6,0,19.34-.17,38.67.11,58,.07,5.01-1.31,6.39-6.36,6.46-22.3.31-22.29.49-22.29-21.62v-22.31c0-12.19.16-24.39-.09-36.58ZM368.31,510.72c-.09-4.37.74-6.07,5.71-6.21,22.93-.65,22.92-.84,22.92,21.89,0,19.34-.11,38.67.09,58,.05,4.37-.74,6.07-5.7,6.21-22.93.66-22.93.85-22.93-21.89v-21.41c0-12.2.17-24.4-.09-36.59ZM311.2,511c-.07-4.99,1.28-6.41,6.35-6.48,22.31-.31,22.31-.49,22.31,21.61v21.41c0,12.5-.16,24.99.09,37.48.08,4.23-1.14,5.39-5.43,5.57-23.21.98-23.2,1.12-23.2-21.59,0-19.34.16-38.67-.12-58ZM289.48,619.06c104.01,0,208.02.09,312.03-.18,7.6-.02,10.02,1.43,9.73,9.53-.69,19.24-.21,19.25-19.43,19.25h-152.45c-54.38,0-108.76-.1-163.14.15-6.11.03-7.98-1.28-7.89-7.7.28-21.04-.01-21.05,21.15-21.05ZM602.04,676.08c7.41-.02,9.5,1.68,9.16,9.17-.66,14.5-.19,29.06-.19,46.27-6.12-8.6-10.62-15.17-15.38-21.55-21.54-28.88-58.92-32.72-85.84-8.69-2.91,2.59-5.66,3.65-9.47,3.65-84.69-.08-169.39-.11-254.08.04-5.04.01-6.35-1.39-6.41-6.41-.3-22.3-.48-22.3,21.66-22.3,113.52,0,227.04.09,340.55-.18ZM868.03,652.81c.25-18.21-5.66-32.94-21.51-42.17-15.85-9.22-31.88-8.06-46.82,2.73-2.9,2.09-4.4,1.18-6.83-.45-16.57-11.17-33.27-11.13-49.86.01-1.96,1.32-3.33,3.03-6.08.89-11.86-9.22-25.21-11.19-40.29-6.85,0-19.29.02-38.01-.01-56.74-.04-26.55-18.19-45.69-43.16-45.56-24.39.12-42.4,19.37-42.45,45.38-.03,11.62-.37,23.25.14,34.85.27,6.24-3.17,5.72-7.17,5.59-3.7-.13-7.49,1.17-7.39-5.35.35-25.02.24-50.05.05-75.08-.03-4.29,1.19-5.94,5.49-5.45,2.64.29,5.35.14,8.02.03,9.46-.39,14.89-5.62,15.06-15.08.23-11.91.29-23.84-.05-35.74-.14-4.98,1.18-6.85,6.35-6.45,8.79.68,18.05.88,21.55-9.61,3.63-10.89-4.67-16.02-11.75-21.6-61.68-48.53-123.33-97.11-184.99-145.69-15.62-12.31-17.41-12.33-32.95-.09-62.83,49.49-125.66,98.98-188.52,148.43-3.55,2.79-7.05,5.53-8.53,10-3.42,10.32,4.13,19.14,16.99,18.44,8.61-.46,12.1,1.4,11.13,10.84-.99,9.73-.27,19.64-.2,29.47.08,11.8,5.1,16.9,16.65,17.1q11.87.2,11.87,12.32c0,22.34-.13,44.69.11,67.03.05,4.83-.95,6.96-6.25,6.56-6.21-.46-12.48-.13-18.73-.1-12.99.06-17.86,4.82-17.93,17.59-.05,9.54-.56,19.11.16,28.59.64,8.46-1.18,13.08-10.68,11.04-.86-.18-1.78-.05-2.67-.02-9.92.37-15.24,5.62-15.32,15.72-.15,17.87-.12,35.75,0,53.62.06,11.12,5.28,16.39,16.39,16.42,30.63.09,61.25.04,91.87.04,58.57,0,117.14.07,175.71-.12,5.28-.02,8.76,1.11,11.53,5.92,4.26,7.38,9.27,14.33,14.03,21.59-2.88,2.07-5.6,1.15-8.09,1.16-103.46.06-206.93.05-310.39.04-15.04,0-19.62-4.6-19.62-19.72,0-43.79.17-87.59-.15-131.38-.06-9.06,2.97-15.34,10.67-19.9,5.35-3.17,10.48-6.79,15.42-10.57,10.8-8.26,16.7-19.33,16.8-32.97.2-28.59.24-57.2-.02-85.8-.13-14.7-6.88-26.25-18.9-34.58-27.53-19.09-23.63-10.79-23.79-46.67-.16-38.14-.05-76.27-.03-114.41.01-13.91,4.87-18.8,18.73-18.8,225.37-.01,450.73-.01,676.1,0,13.82,0,18.72,4.93,18.72,18.83,0,159.09,0,318.18-.01,477.27,0,14.97-11.5,23.11-26,18.7-4.54-1.38-2.41-4.91-2.42-7.36-.16-33.96-.44-67.93.03-101.89ZM892.46,804.97c-5.65.01-11.34-.45-16.93.12-6.3.64-7.66-1.53-7.93-7.74-.33-7.94,4.25-6.99,8.87-6.64,26.23,1.98,43.66-15.25,47.57-34.17.72-3.46.9-7.09.9-10.64.04-160.85.05-321.71.02-482.57,0-26.5-18.33-44.66-44.98-44.66-226.82-.02-453.64-.02-680.46,0-27.18,0-45.15,18.08-45.18,45.36-.03,45.27.22,90.55-.12,135.83-.13,17.99,6.13,32.67,21.97,40.89,17.15,8.9,22.89,21.42,21.33,40.39-1.66,20.12-.6,40.48-.27,60.73.14,8.26-2.22,14.79-9.68,18.53-26.8,13.47-35.28,35.08-33.75,64.59,2.06,39.51.5,79.21.52,118.82.01,29.16,17.51,46.85,46.39,46.85,109.4.02,218.8.23,328.19-.32,11.35-.06,16.49,4.52,20.59,14.63h-170.48c-63.92,0-127.83.01-191.75,0-29.42-.01-47.21-17.75-47.21-47.12-.02-168.9-.02-337.8,0-506.7.01-28.93,17.79-46.78,46.63-46.78,235.44-.01,470.88-.02,706.33.01,28.19,0,46.2,18.03,46.2,46.31.03,169.2.03,338.4.01,507.6-.01,28.78-17.95,46.61-46.78,46.69ZM687.3,275.87h-.09c-12.18-.13-18.75,4.6-19.1,13.73-.36,9.44,6.15,14.45,18.89,14.94,17.01.65,33.59,3.75,49.58,9.71,60.87,22.68,100.59,78.8,102.75,145.17.34,10.51,5.76,16.74,14.47,16.62,8.72-.11,14.24-6.53,14.01-17-.16-7.12-.85-14.25-1.63-21.34-9.62-87.66-88.1-159.64-178.88-161.83ZM812.17,962.37c-2.64-.29-5.34-.04-8.01-.04v-.04c-2.67,0-5.35-.16-8.01.03-8.25.59-13.96,6.59-13.87,14.42.09,7.45,5.56,13.49,13.33,14.02,5.61.38,11.34.62,16.88-.1,7.7-1,12.13-5.94,12.52-13.82.38-7.43-5.23-13.64-12.84-14.47ZM687.98,333.08c-11.12-.25-16.49,2.41-19.08,9.45-3.63,9.84,3.39,18.61,15.49,19.15,26.26,1.16,49.14,10.36,67.91,28.94,19.48,19.29,28.99,42.97,29.99,70.29.35,9.26,6.01,15.06,14.11,15.13,8.42.08,14.13-6.19,14.41-15.76.19-6.58-.83-13.03-1.75-19.52-8.23-58.3-62.21-106.35-121.08-107.68ZM686.3,390.34c-11.11-.37-17.86,4.71-18.19,13.68-.32,8.68,5.52,14.03,16.24,14.87,22.66,1.78,38.97,18.14,40.78,40.93.85,10.67,6.28,16.58,14.9,16.22,8.65-.35,13.85-6.99,13.64-17.41-.71-35.59-31.82-67.13-67.37-68.29ZM440.36,318.76c-23.94-.09-43.28,18.86-43.4,42.53-.13,23.83,18.96,43.17,42.66,43.24,23.72.07,42.84-19.07,42.94-42.99.1-23.3-19.02-42.69-42.2-42.78ZM439.86,375.94c-7.52.09-14.29-6.58-14.36-14.18-.08-7.57,6.56-14.33,14.13-14.39,7.57-.07,14.33,6.58,14.38,14.15.05,7.56-6.6,14.32-14.15,14.42ZM154.49,520.1c.32,7.72,6.72,13.18,14.17,13.15,7.43-.04,13.51-5.52,14.1-13.28.38-5.02.07-10.1.06-15.16,0-5.35.53-10.77-.14-16.04-.99-7.71-5.82-12.21-13.7-12.65-7.43-.42-14.1,5.14-14.47,12.77-.49,10.38-.46,20.82-.02,31.21ZM812.17,962.37c-2.64-.29-5.34-.04-8.01-.04v-.04c-2.67,0-5.35-.16-8.01.03-8.25.59-13.96,6.59-13.87,14.42.09,7.45,5.56,13.49,13.33,14.02,5.61.38,11.34.62,16.88-.1,7.7-1,12.13-5.94,12.52-13.82.38-7.43-5.23-13.64-12.84-14.47ZM440.36,318.76c-23.94-.09-43.28,18.86-43.4,42.53-.13,23.83,18.96,43.17,42.66,43.24,23.72.07,42.84-19.07,42.94-42.99.1-23.3-19.02-42.69-42.2-42.78ZM439.86,375.94c-7.52.09-14.29-6.58-14.36-14.18-.08-7.57,6.56-14.33,14.13-14.39,7.57-.07,14.33,6.58,14.38,14.15.05,7.56-6.6,14.32-14.15,14.42ZM686.3,390.34c-11.11-.37-17.86,4.71-18.19,13.68-.32,8.68,5.52,14.03,16.24,14.87,22.66,1.78,38.97,18.14,40.78,40.93.85,10.67,6.28,16.58,14.9,16.22,8.65-.35,13.85-6.99,13.64-17.41-.71-35.59-31.82-67.13-67.37-68.29ZM809.06,440.76c-8.23-58.3-62.21-106.35-121.08-107.68-11.12-.25-16.49,2.41-19.08,9.45-3.63,9.84,3.39,18.61,15.49,19.15,26.26,1.16,49.14,10.36,67.91,28.94,19.48,19.29,28.99,42.97,29.99,70.29.35,9.26,6.01,15.06,14.11,15.13,8.42.08,14.13-6.19,14.41-15.76.19-6.58-.83-13.03-1.75-19.52ZM866.18,437.7c-9.62-87.66-88.1-159.64-178.88-161.83h-.09c-12.18-.13-18.75,4.6-19.1,13.73-.36,9.44,6.15,14.45,18.89,14.94,17.01.65,33.59,3.75,49.58,9.71,60.87,22.68,100.59,78.8,102.75,145.17.34,10.51,5.76,16.74,14.47,16.62,8.72-.11,14.24-6.53,14.01-17-.16-7.12-.85-14.25-1.63-21.34ZM182.68,488.77c-.99-7.71-5.82-12.21-13.7-12.65-7.43-.42-14.1,5.14-14.47,12.77-.49,10.38-.46,20.82-.02,31.21.32,7.72,6.72,13.18,14.17,13.15,7.43-.04,13.51-5.52,14.1-13.28.38-5.02.07-10.1.06-15.16,0-5.35.53-10.77-.14-16.04ZM866.18,437.7c-9.62-87.66-88.1-159.64-178.88-161.83h-.09c-12.18-.13-18.75,4.6-19.1,13.73-.36,9.44,6.15,14.45,18.89,14.94,17.01.65,33.59,3.75,49.58,9.71,60.87,22.68,100.59,78.8,102.75,145.17.34,10.51,5.76,16.74,14.47,16.62,8.72-.11,14.24-6.53,14.01-17-.16-7.12-.85-14.25-1.63-21.34ZM812.17,962.37c-2.64-.29-5.34-.04-8.01-.04v-.04c-2.67,0-5.35-.16-8.01.03-8.25.59-13.96,6.59-13.87,14.42.09,7.45,5.56,13.49,13.33,14.02,5.61.38,11.34.62,16.88-.1,7.7-1,12.13-5.94,12.52-13.82.38-7.43-5.23-13.64-12.84-14.47ZM809.06,440.76c-8.23-58.3-62.21-106.35-121.08-107.68-11.12-.25-16.49,2.41-19.08,9.45-3.63,9.84,3.39,18.61,15.49,19.15,26.26,1.16,49.14,10.36,67.91,28.94,19.48,19.29,28.99,42.97,29.99,70.29.35,9.26,6.01,15.06,14.11,15.13,8.42.08,14.13-6.19,14.41-15.76.19-6.58-.83-13.03-1.75-19.52ZM686.3,390.34c-11.11-.37-17.86,4.71-18.19,13.68-.32,8.68,5.52,14.03,16.24,14.87,22.66,1.78,38.97,18.14,40.78,40.93.85,10.67,6.28,16.58,14.9,16.22,8.65-.35,13.85-6.99,13.64-17.41-.71-35.59-31.82-67.13-67.37-68.29ZM440.36,318.76c-23.94-.09-43.28,18.86-43.4,42.53-.13,23.83,18.96,43.17,42.66,43.24,23.72.07,42.84-19.07,42.94-42.99.1-23.3-19.02-42.69-42.2-42.78ZM439.86,375.94c-7.52.09-14.29-6.58-14.36-14.18-.08-7.57,6.56-14.33,14.13-14.39,7.57-.07,14.33,6.58,14.38,14.15.05,7.56-6.6,14.32-14.15,14.42ZM182.68,488.77c-.99-7.71-5.82-12.21-13.7-12.65-7.43-.42-14.1,5.14-14.47,12.77-.49,10.38-.46,20.82-.02,31.21.32,7.72,6.72,13.18,14.17,13.15,7.43-.04,13.51-5.52,14.1-13.28.38-5.02.07-10.1.06-15.16,0-5.35.53-10.77-.14-16.04ZM812.17,962.37c-2.64-.29-5.34-.04-8.01-.04v-.04c-2.67,0-5.35-.16-8.01.03-8.25.59-13.96,6.59-13.87,14.42.09,7.45,5.56,13.49,13.33,14.02,5.61.38,11.34.62,16.88-.1,7.7-1,12.13-5.94,12.52-13.82.38-7.43-5.23-13.64-12.84-14.47ZM440.36,318.76c-23.94-.09-43.28,18.86-43.4,42.53-.13,23.83,18.96,43.17,42.66,43.24,23.72.07,42.84-19.07,42.94-42.99.1-23.3-19.02-42.69-42.2-42.78ZM439.86,375.94c-7.52.09-14.29-6.58-14.36-14.18-.08-7.57,6.56-14.33,14.13-14.39,7.57-.07,14.33,6.58,14.38,14.15.05,7.56-6.6,14.32-14.15,14.42ZM686.3,390.34c-11.11-.37-17.86,4.71-18.19,13.68-.32,8.68,5.52,14.03,16.24,14.87,22.66,1.78,38.97,18.14,40.78,40.93.85,10.67,6.28,16.58,14.9,16.22,8.65-.35,13.85-6.99,13.64-17.41-.71-35.59-31.82-67.13-67.37-68.29ZM809.06,440.76c-8.23-58.3-62.21-106.35-121.08-107.68-11.12-.25-16.49,2.41-19.08,9.45-3.63,9.84,3.39,18.61,15.49,19.15,26.26,1.16,49.14,10.36,67.91,28.94,19.48,19.29,28.99,42.97,29.99,70.29.35,9.26,6.01,15.06,14.11,15.13,8.42.08,14.13-6.19,14.41-15.76.19-6.58-.83-13.03-1.75-19.52ZM866.18,437.7c-9.62-87.66-88.1-159.64-178.88-161.83h-.09c-12.18-.13-18.75,4.6-19.1,13.73-.36,9.44,6.15,14.45,18.89,14.94,17.01.65,33.59,3.75,49.58,9.71,60.87,22.68,100.59,78.8,102.75,145.17.34,10.51,5.76,16.74,14.47,16.62,8.72-.11,14.24-6.53,14.01-17-.16-7.12-.85-14.25-1.63-21.34ZM182.68,488.77c-.99-7.71-5.82-12.21-13.7-12.65-7.43-.42-14.1,5.14-14.47,12.77-.49,10.38-.46,20.82-.02,31.21.32,7.72,6.72,13.18,14.17,13.15,7.43-.04,13.51-5.52,14.1-13.28.38-5.02.07-10.1.06-15.16,0-5.35.53-10.77-.14-16.04ZM866.18,437.7c-9.62-87.66-88.1-159.64-178.88-161.83h-.09c-12.18-.13-18.75,4.6-19.1,13.73-.36,9.44,6.15,14.45,18.89,14.94,17.01.65,33.59,3.75,49.58,9.71,60.87,22.68,100.59,78.8,102.75,145.17.34,10.51,5.76,16.74,14.47,16.62,8.72-.11,14.24-6.53,14.01-17-.16-7.12-.85-14.25-1.63-21.34ZM812.17,962.37c-2.64-.29-5.34-.04-8.01-.04v-.04c-2.67,0-5.35-.16-8.01.03-8.25.59-13.96,6.59-13.87,14.42.09,7.45,5.56,13.49,13.33,14.02,5.61.38,11.34.62,16.88-.1,7.7-1,12.13-5.94,12.52-13.82.38-7.43-5.23-13.64-12.84-14.47ZM809.06,440.76c-8.23-58.3-62.21-106.35-121.08-107.68-11.12-.25-16.49,2.41-19.08,9.45-3.63,9.84,3.39,18.61,15.49,19.15,26.26,1.16,49.14,10.36,67.91,28.94,19.48,19.29,28.99,42.97,29.99,70.29.35,9.26,6.01,15.06,14.11,15.13,8.42.08,14.13-6.19,14.41-15.76.19-6.58-.83-13.03-1.75-19.52ZM686.3,390.34c-11.11-.37-17.86,4.71-18.19,13.68-.32,8.68,5.52,14.03,16.24,14.87,22.66,1.78,38.97,18.14,40.78,40.93.85,10.67,6.28,16.58,14.9,16.22,8.65-.35,13.85-6.99,13.64-17.41-.71-35.59-31.82-67.13-67.37-68.29ZM440.36,318.76c-23.94-.09-43.28,18.86-43.4,42.53-.13,23.83,18.96,43.17,42.66,43.24,23.72.07,42.84-19.07,42.94-42.99.1-23.3-19.02-42.69-42.2-42.78ZM439.86,375.94c-7.52.09-14.29-6.58-14.36-14.18-.08-7.57,6.56-14.33,14.13-14.39,7.57-.07,14.33,6.58,14.38,14.15.05,7.56-6.6,14.32-14.15,14.42ZM182.68,488.77c-.99-7.71-5.82-12.21-13.7-12.65-7.43-.42-14.1,5.14-14.47,12.77-.49,10.38-.46,20.82-.02,31.21.32,7.72,6.72,13.18,14.17,13.15,7.43-.04,13.51-5.52,14.1-13.28.38-5.02.07-10.1.06-15.16,0-5.35.53-10.77-.14-16.04ZM812.17,962.37c-2.64-.29-5.34-.04-8.01-.04v-.04c-2.67,0-5.35-.16-8.01.03-8.25.59-13.96,6.59-13.87,14.42.09,7.45,5.56,13.49,13.33,14.02,5.61.38,11.34.62,16.88-.1,7.7-1,12.13-5.94,12.52-13.82.38-7.43-5.23-13.64-12.84-14.47ZM440.36,318.76c-23.94-.09-43.28,18.86-43.4,42.53-.13,23.83,18.96,43.17,42.66,43.24,23.72.07,42.84-19.07,42.94-42.99.1-23.3-19.02-42.69-42.2-42.78ZM439.86,375.94c-7.52.09-14.29-6.58-14.36-14.18-.08-7.57,6.56-14.33,14.13-14.39,7.57-.07,14.33,6.58,14.38,14.15.05,7.56-6.6,14.32-14.15,14.42ZM686.3,390.34c-11.11-.37-17.86,4.71-18.19,13.68-.32,8.68,5.52,14.03,16.24,14.87,22.66,1.78,38.97,18.14,40.78,40.93.85,10.67,6.28,16.58,14.9,16.22,8.65-.35,13.85-6.99,13.64-17.41-.71-35.59-31.82-67.13-67.37-68.29ZM809.06,440.76c-8.23-58.3-62.21-106.35-121.08-107.68-11.12-.25-16.49,2.41-19.08,9.45-3.63,9.84,3.39,18.61,15.49,19.15,26.26,1.16,49.14,10.36,67.91,28.94,19.48,19.29,28.99,42.97,29.99,70.29.35,9.26,6.01,15.06,14.11,15.13,8.42.08,14.13-6.19,14.41-15.76.19-6.58-.83-13.03-1.75-19.52ZM866.18,437.7c-9.62-87.66-88.1-159.64-178.88-161.83h-.09c-12.18-.13-18.75,4.6-19.1,13.73-.36,9.44,6.15,14.45,18.89,14.94,17.01.65,33.59,3.75,49.58,9.71,60.87,22.68,100.59,78.8,102.75,145.17.34,10.51,5.76,16.74,14.47,16.62,8.72-.11,14.24-6.53,14.01-17-.16-7.12-.85-14.25-1.63-21.34ZM182.68,488.77c-.99-7.71-5.82-12.21-13.7-12.65-7.43-.42-14.1,5.14-14.47,12.77-.49,10.38-.46,20.82-.02,31.21.32,7.72,6.72,13.18,14.17,13.15,7.43-.04,13.51-5.52,14.1-13.28.38-5.02.07-10.1.06-15.16,0-5.35.53-10.77-.14-16.04ZM866.18,437.7c-9.62-87.66-88.1-159.64-178.88-161.83h-.09c-12.18-.13-18.75,4.6-19.1,13.73-.36,9.44,6.15,14.45,18.89,14.94,17.01.65,33.59,3.75,49.58,9.71,60.87,22.68,100.59,78.8,102.75,145.17.34,10.51,5.76,16.74,14.47,16.62,8.72-.11,14.24-6.53,14.01-17-.16-7.12-.85-14.25-1.63-21.34ZM812.17,962.37c-2.64-.29-5.34-.04-8.01-.04v-.04c-2.67,0-5.35-.16-8.01.03-8.25.59-13.96,6.59-13.87,14.42.09,7.45,5.56,13.49,13.33,14.02,5.61.38,11.34.62,16.88-.1,7.7-1,12.13-5.94,12.52-13.82.38-7.43-5.23-13.64-12.84-14.47ZM809.06,440.76c-8.23-58.3-62.21-106.35-121.08-107.68-11.12-.25-16.49,2.41-19.08,9.45-3.63,9.84,3.39,18.61,15.49,19.15,26.26,1.16,49.14,10.36,67.91,28.94,19.48,19.29,28.99,42.97,29.99,70.29.35,9.26,6.01,15.06,14.11,15.13,8.42.08,14.13-6.19,14.41-15.76.19-6.58-.83-13.03-1.75-19.52ZM686.3,390.34c-11.11-.37-17.86,4.71-18.19,13.68-.32,8.68,5.52,14.03,16.24,14.87,22.66,1.78,38.97,18.14,40.78,40.93.85,10.67,6.28,16.58,14.9,16.22,8.65-.35,13.85-6.99,13.64-17.41-.71-35.59-31.82-67.13-67.37-68.29ZM440.36,318.76c-23.94-.09-43.28,18.86-43.4,42.53-.13,23.83,18.96,43.17,42.66,43.24,23.72.07,42.84-19.07,42.94-42.99.1-23.3-19.02-42.69-42.2-42.78ZM439.86,375.94c-7.52.09-14.29-6.58-14.36-14.18-.08-7.57,6.56-14.33,14.13-14.39,7.57-.07,14.33,6.58,14.38,14.15.05,7.56-6.6,14.32-14.15,14.42ZM182.68,488.77c-.99-7.71-5.82-12.21-13.7-12.65-7.43-.42-14.1,5.14-14.47,12.77-.49,10.38-.46,20.82-.02,31.21.32,7.72,6.72,13.18,14.17,13.15,7.43-.04,13.51-5.52,14.1-13.28.38-5.02.07-10.1.06-15.16,0-5.35.53-10.77-.14-16.04ZM812.17,962.37c-2.64-.29-5.34-.04-8.01-.04v-.04c-2.67,0-5.35-.16-8.01.03-8.25.59-13.96,6.59-13.87,14.42.09,7.45,5.56,13.49,13.33,14.02,5.61.38,11.34.62,16.88-.1,7.7-1,12.13-5.94,12.52-13.82.38-7.43-5.23-13.64-12.84-14.47ZM440.36,318.76c-23.94-.09-43.28,18.86-43.4,42.53-.13,23.83,18.96,43.17,42.66,43.24,23.72.07,42.84-19.07,42.94-42.99.1-23.3-19.02-42.69-42.2-42.78ZM439.86,375.94c-7.52.09-14.29-6.58-14.36-14.18-.08-7.57,6.56-14.33,14.13-14.39,7.57-.07,14.33,6.58,14.38,14.15.05,7.56-6.6,14.32-14.15,14.42ZM686.3,390.34c-11.11-.37-17.86,4.71-18.19,13.68-.32,8.68,5.52,14.03,16.24,14.87,22.66,1.78,38.97,18.14,40.78,40.93.85,10.67,6.28,16.58,14.9,16.22,8.65-.35,13.85-6.99,13.64-17.41-.71-35.59-31.82-67.13-67.37-68.29ZM809.06,440.76c-8.23-58.3-62.21-106.35-121.08-107.68-11.12-.25-16.49,2.41-19.08,9.45-3.63,9.84,3.39,18.61,15.49,19.15,26.26,1.16,49.14,10.36,67.91,28.94,19.48,19.29,28.99,42.97,29.99,70.29.35,9.26,6.01,15.06,14.11,15.13,8.42.08,14.13-6.19,14.41-15.76.19-6.58-.83-13.03-1.75-19.52ZM866.18,437.7c-9.62-87.66-88.1-159.64-178.88-161.83h-.09c-12.18-.13-18.75,4.6-19.1,13.73-.36,9.44,6.15,14.45,18.89,14.94,17.01.65,33.59,3.75,49.58,9.71,60.87,22.68,100.59,78.8,102.75,145.17.34,10.51,5.76,16.74,14.47,16.62,8.72-.11,14.24-6.53,14.01-17-.16-7.12-.85-14.25-1.63-21.34ZM182.68,488.77c-.99-7.71-5.82-12.21-13.7-12.65-7.43-.42-14.1,5.14-14.47,12.77-.49,10.38-.46,20.82-.02,31.21.32,7.72,6.72,13.18,14.17,13.15,7.43-.04,13.51-5.52,14.1-13.28.38-5.02.07-10.1.06-15.16,0-5.35.53-10.77-.14-16.04ZM866.18,437.7c-9.62-87.66-88.1-159.64-178.88-161.83h-.09c-12.18-.13-18.75,4.6-19.1,13.73-.36,9.44,6.15,14.45,18.89,14.94,17.01.65,33.59,3.75,49.58,9.71,60.87,22.68,100.59,78.8,102.75,145.17.34,10.51,5.76,16.74,14.47,16.62,8.72-.11,14.24-6.53,14.01-17-.16-7.12-.85-14.25-1.63-21.34ZM812.17,962.37c-2.64-.29-5.34-.04-8.01-.04v-.04c-2.67,0-5.35-.16-8.01.03-8.25.59-13.96,6.59-13.87,14.42.09,7.45,5.56,13.49,13.33,14.02,5.61.38,11.34.62,16.88-.1,7.7-1,12.13-5.94,12.52-13.82.38-7.43-5.23-13.64-12.84-14.47ZM809.06,440.76c-8.23-58.3-62.21-106.35-121.08-107.68-11.12-.25-16.49,2.41-19.08,9.45-3.63,9.84,3.39,18.61,15.49,19.15,26.26,1.16,49.14,10.36,67.91,28.94,19.48,19.29,28.99,42.97,29.99,70.29.35,9.26,6.01,15.06,14.11,15.13,8.42.08,14.13-6.19,14.41-15.76.19-6.58-.83-13.03-1.75-19.52ZM686.3,390.34c-11.11-.37-17.86,4.71-18.19,13.68-.32,8.68,5.52,14.03,16.24,14.87,22.66,1.78,38.97,18.14,40.78,40.93.85,10.67,6.28,16.58,14.9,16.22,8.65-.35,13.85-6.99,13.64-17.41-.71-35.59-31.82-67.13-67.37-68.29ZM440.36,318.76c-23.94-.09-43.28,18.86-43.4,42.53-.13,23.83,18.96,43.17,42.66,43.24,23.72.07,42.84-19.07,42.94-42.99.1-23.3-19.02-42.69-42.2-42.78ZM439.86,375.94c-7.52.09-14.29-6.58-14.36-14.18-.08-7.57,6.56-14.33,14.13-14.39,7.57-.07,14.33,6.58,14.38,14.15.05,7.56-6.6,14.32-14.15,14.42ZM182.68,488.77c-.99-7.71-5.82-12.21-13.7-12.65-7.43-.42-14.1,5.14-14.47,12.77-.49,10.38-.46,20.82-.02,31.21.32,7.72,6.72,13.18,14.17,13.15,7.43-.04,13.51-5.52,14.1-13.28.38-5.02.07-10.1.06-15.16,0-5.35.53-10.77-.14-16.04ZM812.17,962.37c-2.64-.29-5.34-.04-8.01-.04v-.04c-2.67,0-5.35-.16-8.01.03-8.25.59-13.96,6.59-13.87,14.42.09,7.45,5.56,13.49,13.33,14.02,5.61.38,11.34.62,16.88-.1,7.7-1,12.13-5.94,12.52-13.82.38-7.43-5.23-13.64-12.84-14.47ZM686.3,390.34c-11.11-.37-17.86,4.71-18.19,13.68-.32,8.68,5.52,14.03,16.24,14.87,22.66,1.78,38.97,18.14,40.78,40.93.85,10.67,6.28,16.58,14.9,16.22,8.65-.35,13.85-6.99,13.64-17.41-.71-35.59-31.82-67.13-67.37-68.29ZM809.06,440.76c-8.23-58.3-62.21-106.35-121.08-107.68-11.12-.25-16.49,2.41-19.08,9.45-3.63,9.84,3.39,18.61,15.49,19.15,26.26,1.16,49.14,10.36,67.91,28.94,19.48,19.29,28.99,42.97,29.99,70.29.35,9.26,6.01,15.06,14.11,15.13,8.42.08,14.13-6.19,14.41-15.76.19-6.58-.83-13.03-1.75-19.52ZM866.18,437.7c-9.62-87.66-88.1-159.64-178.88-161.83h-.09c-12.18-.13-18.75,4.6-19.1,13.73-.36,9.44,6.15,14.45,18.89,14.94,17.01.65,33.59,3.75,49.58,9.71,60.87,22.68,100.59,78.8,102.75,145.17.34,10.51,5.76,16.74,14.47,16.62,8.72-.11,14.24-6.53,14.01-17-.16-7.12-.85-14.25-1.63-21.34ZM182.68,488.77c-.99-7.71-5.82-12.21-13.7-12.65-7.43-.42-14.1,5.14-14.47,12.77-.49,10.38-.46,20.82-.02,31.21.32,7.72,6.72,13.18,14.17,13.15,7.43-.04,13.51-5.52,14.1-13.28.38-5.02.07-10.1.06-15.16,0-5.35.53-10.77-.14-16.04ZM866.18,437.7c-9.62-87.66-88.1-159.64-178.88-161.83h-.09c-12.18-.13-18.75,4.6-19.1,13.73-.36,9.44,6.15,14.45,18.89,14.94,17.01.65,33.59,3.75,49.58,9.71,60.87,22.68,100.59,78.8,102.75,145.17.34,10.51,5.76,16.74,14.47,16.62,8.72-.11,14.24-6.53,14.01-17-.16-7.12-.85-14.25-1.63-21.34ZM812.17,962.37c-2.64-.29-5.34-.04-8.01-.04v-.04c-2.67,0-5.35-.16-8.01.03-8.25.59-13.96,6.59-13.87,14.42.09,7.45,5.56,13.49,13.33,14.02,5.61.38,11.34.62,16.88-.1,7.7-1,12.13-5.94,12.52-13.82.38-7.43-5.23-13.64-12.84-14.47ZM809.06,440.76c-8.23-58.3-62.21-106.35-121.08-107.68-11.12-.25-16.49,2.41-19.08,9.45-3.63,9.84,3.39,18.61,15.49,19.15,26.26,1.16,49.14,10.36,67.91,28.94,19.48,19.29,28.99,42.97,29.99,70.29.35,9.26,6.01,15.06,14.11,15.13,8.42.08,14.13-6.19,14.41-15.76.19-6.58-.83-13.03-1.75-19.52ZM686.3,390.34c-11.11-.37-17.86,4.71-18.19,13.68-.32,8.68,5.52,14.03,16.24,14.87,22.66,1.78,38.97,18.14,40.78,40.93.85,10.67,6.28,16.58,14.9,16.22,8.65-.35,13.85-6.99,13.64-17.41-.71-35.59-31.82-67.13-67.37-68.29ZM182.68,488.77c-.99-7.71-5.82-12.21-13.7-12.65-7.43-.42-14.1,5.14-14.47,12.77-.49,10.38-.46,20.82-.02,31.21.32,7.72,6.72,13.18,14.17,13.15,7.43-.04,13.51-5.52,14.1-13.28.38-5.02.07-10.1.06-15.16,0-5.35.53-10.77-.14-16.04ZM812.17,962.37c-2.64-.29-5.34-.04-8.01-.04v-.04c-2.67,0-5.35-.16-8.01.03-8.25.59-13.96,6.59-13.87,14.42.09,7.45,5.56,13.49,13.33,14.02,5.61.38,11.34.62,16.88-.1,7.7-1,12.13-5.94,12.52-13.82.38-7.43-5.23-13.64-12.84-14.47ZM812.17,962.37c-2.64-.29-5.34-.04-8.01-.04v-.04c-2.67,0-5.35-.16-8.01.03-8.25.59-13.96,6.59-13.87,14.42.09,7.45,5.56,13.49,13.33,14.02,5.61.38,11.34.62,16.88-.1,7.7-1,12.13-5.94,12.52-13.82.38-7.43-5.23-13.64-12.84-14.47Z"/>
    <path class="cls-1" d="M812.17,962.37c-2.64-.29-5.34-.04-8.01-.04v-.04c-2.67,0-5.35-.16-8.01.03-8.25.59-13.96,6.59-13.87,14.42.09,7.45,5.56,13.49,13.33,14.02,5.61.38,11.34.62,16.88-.1,7.7-1,12.13-5.94,12.52-13.82.38-7.43-5.23-13.64-12.84-14.47ZM812.17,962.37c-2.64-.29-5.34-.04-8.01-.04v-.04c-2.67,0-5.35-.16-8.01.03-8.25.59-13.96,6.59-13.87,14.42.09,7.45,5.56,13.49,13.33,14.02,5.61.38,11.34.62,16.88-.1,7.7-1,12.13-5.94,12.52-13.82.38-7.43-5.23-13.64-12.84-14.47ZM182.68,488.77c-.99-7.71-5.82-12.21-13.7-12.65-7.43-.42-14.1,5.14-14.47,12.77-.49,10.38-.46,20.82-.02,31.21.32,7.72,6.72,13.18,14.17,13.15,7.43-.04,13.51-5.52,14.1-13.28.38-5.02.07-10.1.06-15.16,0-5.35.53-10.77-.14-16.04ZM812.17,962.37c-2.64-.29-5.34-.04-8.01-.04v-.04c-2.67,0-5.35-.16-8.01.03-8.25.59-13.96,6.59-13.87,14.42.09,7.45,5.56,13.49,13.33,14.02,5.61.38,11.34.62,16.88-.1,7.7-1,12.13-5.94,12.52-13.82.38-7.43-5.23-13.64-12.84-14.47ZM182.68,488.77c-.99-7.71-5.82-12.21-13.7-12.65-7.43-.42-14.1,5.14-14.47,12.77-.49,10.38-.46,20.82-.02,31.21.32,7.72,6.72,13.18,14.17,13.15,7.43-.04,13.51-5.52,14.1-13.28.38-5.02.07-10.1.06-15.16,0-5.35.53-10.77-.14-16.04ZM812.17,962.37c-2.64-.29-5.34-.04-8.01-.04v-.04c-2.67,0-5.35-.16-8.01.03-8.25.59-13.96,6.59-13.87,14.42.09,7.45,5.56,13.49,13.33,14.02,5.61.38,11.34.62,16.88-.1,7.7-1,12.13-5.94,12.52-13.82.38-7.43-5.23-13.64-12.84-14.47ZM182.68,488.77c-.99-7.71-5.82-12.21-13.7-12.65-7.43-.42-14.1,5.14-14.47,12.77-.49,10.38-.46,20.82-.02,31.21.32,7.72,6.72,13.18,14.17,13.15,7.43-.04,13.51-5.52,14.1-13.28.38-5.02.07-10.1.06-15.16,0-5.35.53-10.77-.14-16.04ZM440.36,318.76c-23.94-.09-43.28,18.86-43.4,42.53-.13,23.83,18.96,43.17,42.66,43.24,23.72.07,42.84-19.07,42.94-42.99.1-23.3-19.02-42.69-42.2-42.78ZM439.86,375.94c-7.52.09-14.29-6.58-14.36-14.18-.08-7.57,6.56-14.33,14.13-14.39,7.57-.07,14.33,6.58,14.38,14.15.05,7.56-6.6,14.32-14.15,14.42ZM686.3,390.34c-11.11-.37-17.86,4.71-18.19,13.68-.32,8.68,5.52,14.03,16.24,14.87,22.66,1.78,38.97,18.14,40.78,40.93.85,10.67,6.28,16.58,14.9,16.22,8.65-.35,13.85-6.99,13.64-17.41-.71-35.59-31.82-67.13-67.37-68.29ZM809.06,440.76c-8.23-58.3-62.21-106.35-121.08-107.68-11.12-.25-16.49,2.41-19.08,9.45-3.63,9.84,3.39,18.61,15.49,19.15,26.26,1.16,49.14,10.36,67.91,28.94,19.48,19.29,28.99,42.97,29.99,70.29.35,9.26,6.01,15.06,14.11,15.13,8.42.08,14.13-6.19,14.41-15.76.19-6.58-.83-13.03-1.75-19.52ZM812.17,962.37c-2.64-.29-5.34-.04-8.01-.04v-.04c-2.67,0-5.35-.16-8.01.03-8.25.59-13.96,6.59-13.87,14.42.09,7.45,5.56,13.49,13.33,14.02,5.61.38,11.34.62,16.88-.1,7.7-1,12.13-5.94,12.52-13.82.38-7.43-5.23-13.64-12.84-14.47ZM866.18,437.7c-9.62-87.66-88.1-159.64-178.88-161.83h-.09c-12.18-.13-18.75,4.6-19.1,13.73-.36,9.44,6.15,14.45,18.89,14.94,17.01.65,33.59,3.75,49.58,9.71,60.87,22.68,100.59,78.8,102.75,145.17.34,10.51,5.76,16.74,14.47,16.62,8.72-.11,14.24-6.53,14.01-17-.16-7.12-.85-14.25-1.63-21.34ZM182.68,488.77c-.99-7.71-5.82-12.21-13.7-12.65-7.43-.42-14.1,5.14-14.47,12.77-.49,10.38-.46,20.82-.02,31.21.32,7.72,6.72,13.18,14.17,13.15,7.43-.04,13.51-5.52,14.1-13.28.38-5.02.07-10.1.06-15.16,0-5.35.53-10.77-.14-16.04ZM866.18,437.7c-9.62-87.66-88.1-159.64-178.88-161.83h-.09c-12.18-.13-18.75,4.6-19.1,13.73-.36,9.44,6.15,14.45,18.89,14.94,17.01.65,33.59,3.75,49.58,9.71,60.87,22.68,100.59,78.8,102.75,145.17.34,10.51,5.76,16.74,14.47,16.62,8.72-.11,14.24-6.53,14.01-17-.16-7.12-.85-14.25-1.63-21.34ZM809.06,440.76c-8.23-58.3-62.21-106.35-121.08-107.68-11.12-.25-16.49,2.41-19.08,9.45-3.63,9.84,3.39,18.61,15.49,19.15,26.26,1.16,49.14,10.36,67.91,28.94,19.48,19.29,28.99,42.97,29.99,70.29.35,9.26,6.01,15.06,14.11,15.13,8.42.08,14.13-6.19,14.41-15.76.19-6.58-.83-13.03-1.75-19.52ZM686.3,390.34c-11.11-.37-17.86,4.71-18.19,13.68-.32,8.68,5.52,14.03,16.24,14.87,22.66,1.78,38.97,18.14,40.78,40.93.85,10.67,6.28,16.58,14.9,16.22,8.65-.35,13.85-6.99,13.64-17.41-.71-35.59-31.82-67.13-67.37-68.29ZM440.36,318.76c-23.94-.09-43.28,18.86-43.4,42.53-.13,23.83,18.96,43.17,42.66,43.24,23.72.07,42.84-19.07,42.94-42.99.1-23.3-19.02-42.69-42.2-42.78ZM439.86,375.94c-7.52.09-14.29-6.58-14.36-14.18-.08-7.57,6.56-14.33,14.13-14.39,7.57-.07,14.33,6.58,14.38,14.15.05,7.56-6.6,14.32-14.15,14.42ZM812.17,962.37c-2.64-.29-5.34-.04-8.01-.04v-.04c-2.67,0-5.35-.16-8.01.03-8.25.59-13.96,6.59-13.87,14.42.09,7.45,5.56,13.49,13.33,14.02,5.61.38,11.34.62,16.88-.1,7.7-1,12.13-5.94,12.52-13.82.38-7.43-5.23-13.64-12.84-14.47ZM182.68,488.77c-.99-7.71-5.82-12.21-13.7-12.65-7.43-.42-14.1,5.14-14.47,12.77-.49,10.38-.46,20.82-.02,31.21.32,7.72,6.72,13.18,14.17,13.15,7.43-.04,13.51-5.52,14.1-13.28.38-5.02.07-10.1.06-15.16,0-5.35.53-10.77-.14-16.04ZM440.36,318.76c-23.94-.09-43.28,18.86-43.4,42.53-.13,23.83,18.96,43.17,42.66,43.24,23.72.07,42.84-19.07,42.94-42.99.1-23.3-19.02-42.69-42.2-42.78ZM439.86,375.94c-7.52.09-14.29-6.58-14.36-14.18-.08-7.57,6.56-14.33,14.13-14.39,7.57-.07,14.33,6.58,14.38,14.15.05,7.56-6.6,14.32-14.15,14.42ZM686.3,390.34c-11.11-.37-17.86,4.71-18.19,13.68-.32,8.68,5.52,14.03,16.24,14.87,22.66,1.78,38.97,18.14,40.78,40.93.85,10.67,6.28,16.58,14.9,16.22,8.65-.35,13.85-6.99,13.64-17.41-.71-35.59-31.82-67.13-67.37-68.29ZM809.06,440.76c-8.23-58.3-62.21-106.35-121.08-107.68-11.12-.25-16.49,2.41-19.08,9.45-3.63,9.84,3.39,18.61,15.49,19.15,26.26,1.16,49.14,10.36,67.91,28.94,19.48,19.29,28.99,42.97,29.99,70.29.35,9.26,6.01,15.06,14.11,15.13,8.42.08,14.13-6.19,14.41-15.76.19-6.58-.83-13.03-1.75-19.52ZM812.17,962.37c-2.64-.29-5.34-.04-8.01-.04v-.04c-2.67,0-5.35-.16-8.01.03-8.25.59-13.96,6.59-13.87,14.42.09,7.45,5.56,13.49,13.33,14.02,5.61.38,11.34.62,16.88-.1,7.7-1,12.13-5.94,12.52-13.82.38-7.43-5.23-13.64-12.84-14.47ZM866.18,437.7c-9.62-87.66-88.1-159.64-178.88-161.83h-.09c-12.18-.13-18.75,4.6-19.1,13.73-.36,9.44,6.15,14.45,18.89,14.94,17.01.65,33.59,3.75,49.58,9.71,60.87,22.68,100.59,78.8,102.75,145.17.34,10.51,5.76,16.74,14.47,16.62,8.72-.11,14.24-6.53,14.01-17-.16-7.12-.85-14.25-1.63-21.34ZM182.68,488.77c-.99-7.71-5.82-12.21-13.7-12.65-7.43-.42-14.1,5.14-14.47,12.77-.49,10.38-.46,20.82-.02,31.21.32,7.72,6.72,13.18,14.17,13.15,7.43-.04,13.51-5.52,14.1-13.28.38-5.02.07-10.1.06-15.16,0-5.35.53-10.77-.14-16.04ZM866.18,437.7c-9.62-87.66-88.1-159.64-178.88-161.83h-.09c-12.18-.13-18.75,4.6-19.1,13.73-.36,9.44,6.15,14.45,18.89,14.94,17.01.65,33.59,3.75,49.58,9.71,60.87,22.68,100.59,78.8,102.75,145.17.34,10.51,5.76,16.74,14.47,16.62,8.72-.11,14.24-6.53,14.01-17-.16-7.12-.85-14.25-1.63-21.34ZM809.06,440.76c-8.23-58.3-62.21-106.35-121.08-107.68-11.12-.25-16.49,2.41-19.08,9.45-3.63,9.84,3.39,18.61,15.49,19.15,26.26,1.16,49.14,10.36,67.91,28.94,19.48,19.29,28.99,42.97,29.99,70.29.35,9.26,6.01,15.06,14.11,15.13,8.42.08,14.13-6.19,14.41-15.76.19-6.58-.83-13.03-1.75-19.52ZM686.3,390.34c-11.11-.37-17.86,4.71-18.19,13.68-.32,8.68,5.52,14.03,16.24,14.87,22.66,1.78,38.97,18.14,40.78,40.93.85,10.67,6.28,16.58,14.9,16.22,8.65-.35,13.85-6.99,13.64-17.41-.71-35.59-31.82-67.13-67.37-68.29ZM440.36,318.76c-23.94-.09-43.28,18.86-43.4,42.53-.13,23.83,18.96,43.17,42.66,43.24,23.72.07,42.84-19.07,42.94-42.99.1-23.3-19.02-42.69-42.2-42.78ZM439.86,375.94c-7.52.09-14.29-6.58-14.36-14.18-.08-7.57,6.56-14.33,14.13-14.39,7.57-.07,14.33,6.58,14.38,14.15.05,7.56-6.6,14.32-14.15,14.42ZM812.17,962.37c-2.64-.29-5.34-.04-8.01-.04v-.04c-2.67,0-5.35-.16-8.01.03-8.25.59-13.96,6.59-13.87,14.42.09,7.45,5.56,13.49,13.33,14.02,5.61.38,11.34.62,16.88-.1,7.7-1,12.13-5.94,12.52-13.82.38-7.43-5.23-13.64-12.84-14.47ZM182.68,488.77c-.99-7.71-5.82-12.21-13.7-12.65-7.43-.42-14.1,5.14-14.47,12.77-.49,10.38-.46,20.82-.02,31.21.32,7.72,6.72,13.18,14.17,13.15,7.43-.04,13.51-5.52,14.1-13.28.38-5.02.07-10.1.06-15.16,0-5.35.53-10.77-.14-16.04ZM440.36,318.76c-23.94-.09-43.28,18.86-43.4,42.53-.13,23.83,18.96,43.17,42.66,43.24,23.72.07,42.84-19.07,42.94-42.99.1-23.3-19.02-42.69-42.2-42.78ZM439.86,375.94c-7.52.09-14.29-6.58-14.36-14.18-.08-7.57,6.56-14.33,14.13-14.39,7.57-.07,14.33,6.58,14.38,14.15.05,7.56-6.6,14.32-14.15,14.42ZM686.3,390.34c-11.11-.37-17.86,4.71-18.19,13.68-.32,8.68,5.52,14.03,16.24,14.87,22.66,1.78,38.97,18.14,40.78,40.93.85,10.67,6.28,16.58,14.9,16.22,8.65-.35,13.85-6.99,13.64-17.41-.71-35.59-31.82-67.13-67.37-68.29ZM809.06,440.76c-8.23-58.3-62.21-106.35-121.08-107.68-11.12-.25-16.49,2.41-19.08,9.45-3.63,9.84,3.39,18.61,15.49,19.15,26.26,1.16,49.14,10.36,67.91,28.94,19.48,19.29,28.99,42.97,29.99,70.29.35,9.26,6.01,15.06,14.11,15.13,8.42.08,14.13-6.19,14.41-15.76.19-6.58-.83-13.03-1.75-19.52ZM812.17,962.37c-2.64-.29-5.34-.04-8.01-.04v-.04c-2.67,0-5.35-.16-8.01.03-8.25.59-13.96,6.59-13.87,14.42.09,7.45,5.56,13.49,13.33,14.02,5.61.38,11.34.62,16.88-.1,7.7-1,12.13-5.94,12.52-13.82.38-7.43-5.23-13.64-12.84-14.47ZM866.18,437.7c-9.62-87.66-88.1-159.64-178.88-161.83h-.09c-12.18-.13-18.75,4.6-19.1,13.73-.36,9.44,6.15,14.45,18.89,14.94,17.01.65,33.59,3.75,49.58,9.71,60.87,22.68,100.59,78.8,102.75,145.17.34,10.51,5.76,16.74,14.47,16.62,8.72-.11,14.24-6.53,14.01-17-.16-7.12-.85-14.25-1.63-21.34ZM182.68,488.77c-.99-7.71-5.82-12.21-13.7-12.65-7.43-.42-14.1,5.14-14.47,12.77-.49,10.38-.46,20.82-.02,31.21.32,7.72,6.72,13.18,14.17,13.15,7.43-.04,13.51-5.52,14.1-13.28.38-5.02.07-10.1.06-15.16,0-5.35.53-10.77-.14-16.04ZM866.18,437.7c-9.62-87.66-88.1-159.64-178.88-161.83h-.09c-12.18-.13-18.75,4.6-19.1,13.73-.36,9.44,6.15,14.45,18.89,14.94,17.01.65,33.59,3.75,49.58,9.71,60.87,22.68,100.59,78.8,102.75,145.17.34,10.51,5.76,16.74,14.47,16.62,8.72-.11,14.24-6.53,14.01-17-.16-7.12-.85-14.25-1.63-21.34ZM809.06,440.76c-8.23-58.3-62.21-106.35-121.08-107.68-11.12-.25-16.49,2.41-19.08,9.45-3.63,9.84,3.39,18.61,15.49,19.15,26.26,1.16,49.14,10.36,67.91,28.94,19.48,19.29,28.99,42.97,29.99,70.29.35,9.26,6.01,15.06,14.11,15.13,8.42.08,14.13-6.19,14.41-15.76.19-6.58-.83-13.03-1.75-19.52ZM686.3,390.34c-11.11-.37-17.86,4.71-18.19,13.68-.32,8.68,5.52,14.03,16.24,14.87,22.66,1.78,38.97,18.14,40.78,40.93.85,10.67,6.28,16.58,14.9,16.22,8.65-.35,13.85-6.99,13.64-17.41-.71-35.59-31.82-67.13-67.37-68.29ZM440.36,318.76c-23.94-.09-43.28,18.86-43.4,42.53-.13,23.83,18.96,43.17,42.66,43.24,23.72.07,42.84-19.07,42.94-42.99.1-23.3-19.02-42.69-42.2-42.78ZM439.86,375.94c-7.52.09-14.29-6.58-14.36-14.18-.08-7.57,6.56-14.33,14.13-14.39,7.57-.07,14.33,6.58,14.38,14.15.05,7.56-6.6,14.32-14.15,14.42ZM812.17,962.37c-2.64-.29-5.34-.04-8.01-.04v-.04c-2.67,0-5.35-.16-8.01.03-8.25.59-13.96,6.59-13.87,14.42.09,7.45,5.56,13.49,13.33,14.02,5.61.38,11.34.62,16.88-.1,7.7-1,12.13-5.94,12.52-13.82.38-7.43-5.23-13.64-12.84-14.47ZM182.68,488.77c-.99-7.71-5.82-12.21-13.7-12.65-7.43-.42-14.1,5.14-14.47,12.77-.49,10.38-.46,20.82-.02,31.21.32,7.72,6.72,13.18,14.17,13.15,7.43-.04,13.51-5.52,14.1-13.28.38-5.02.07-10.1.06-15.16,0-5.35.53-10.77-.14-16.04ZM440.36,318.76c-23.94-.09-43.28,18.86-43.4,42.53-.13,23.83,18.96,43.17,42.66,43.24,23.72.07,42.84-19.07,42.94-42.99.1-23.3-19.02-42.69-42.2-42.78ZM439.86,375.94c-7.52.09-14.29-6.58-14.36-14.18-.08-7.57,6.56-14.33,14.13-14.39,7.57-.07,14.33,6.58,14.38,14.15.05,7.56-6.6,14.32-14.15,14.42ZM686.3,390.34c-11.11-.37-17.86,4.71-18.19,13.68-.32,8.68,5.52,14.03,16.24,14.87,22.66,1.78,38.97,18.14,40.78,40.93.85,10.67,6.28,16.58,14.9,16.22,8.65-.35,13.85-6.99,13.64-17.41-.71-35.59-31.82-67.13-67.37-68.29ZM809.06,440.76c-8.23-58.3-62.21-106.35-121.08-107.68-11.12-.25-16.49,2.41-19.08,9.45-3.63,9.84,3.39,18.61,15.49,19.15,26.26,1.16,49.14,10.36,67.91,28.94,19.48,19.29,28.99,42.97,29.99,70.29.35,9.26,6.01,15.06,14.11,15.13,8.42.08,14.13-6.19,14.41-15.76.19-6.58-.83-13.03-1.75-19.52ZM812.17,962.37c-2.64-.29-5.34-.04-8.01-.04v-.04c-2.67,0-5.35-.16-8.01.03-8.25.59-13.96,6.59-13.87,14.42.09,7.45,5.56,13.49,13.33,14.02,5.61.38,11.34.62,16.88-.1,7.7-1,12.13-5.94,12.52-13.82.38-7.43-5.23-13.64-12.84-14.47ZM866.18,437.7c-9.62-87.66-88.1-159.64-178.88-161.83h-.09c-12.18-.13-18.75,4.6-19.1,13.73-.36,9.44,6.15,14.45,18.89,14.94,17.01.65,33.59,3.75,49.58,9.71,60.87,22.68,100.59,78.8,102.75,145.17.34,10.51,5.76,16.74,14.47,16.62,8.72-.11,14.24-6.53,14.01-17-.16-7.12-.85-14.25-1.63-21.34ZM182.68,488.77c-.99-7.71-5.82-12.21-13.7-12.65-7.43-.42-14.1,5.14-14.47,12.77-.49,10.38-.46,20.82-.02,31.21.32,7.72,6.72,13.18,14.17,13.15,7.43-.04,13.51-5.52,14.1-13.28.38-5.02.07-10.1.06-15.16,0-5.35.53-10.77-.14-16.04ZM866.18,437.7c-9.62-87.66-88.1-159.64-178.88-161.83h-.09c-12.18-.13-18.75,4.6-19.1,13.73-.36,9.44,6.15,14.45,18.89,14.94,17.01.65,33.59,3.75,49.58,9.71,60.87,22.68,100.59,78.8,102.75,145.17.34,10.51,5.76,16.74,14.47,16.62,8.72-.11,14.24-6.53,14.01-17-.16-7.12-.85-14.25-1.63-21.34ZM809.06,440.76c-8.23-58.3-62.21-106.35-121.08-107.68-11.12-.25-16.49,2.41-19.08,9.45-3.63,9.84,3.39,18.61,15.49,19.15,26.26,1.16,49.14,10.36,67.91,28.94,19.48,19.29,28.99,42.97,29.99,70.29.35,9.26,6.01,15.06,14.11,15.13,8.42.08,14.13-6.19,14.41-15.76.19-6.58-.83-13.03-1.75-19.52ZM686.3,390.34c-11.11-.37-17.86,4.71-18.19,13.68-.32,8.68,5.52,14.03,16.24,14.87,22.66,1.78,38.97,18.14,40.78,40.93.85,10.67,6.28,16.58,14.9,16.22,8.65-.35,13.85-6.99,13.64-17.41-.71-35.59-31.82-67.13-67.37-68.29ZM440.36,318.76c-23.94-.09-43.28,18.86-43.4,42.53-.13,23.83,18.96,43.17,42.66,43.24,23.72.07,42.84-19.07,42.94-42.99.1-23.3-19.02-42.69-42.2-42.78ZM439.86,375.94c-7.52.09-14.29-6.58-14.36-14.18-.08-7.57,6.56-14.33,14.13-14.39,7.57-.07,14.33,6.58,14.38,14.15.05,7.56-6.6,14.32-14.15,14.42ZM812.17,962.37c-2.64-.29-5.34-.04-8.01-.04v-.04c-2.67,0-5.35-.16-8.01.03-8.25.59-13.96,6.59-13.87,14.42.09,7.45,5.56,13.49,13.33,14.02,5.61.38,11.34.62,16.88-.1,7.7-1,12.13-5.94,12.52-13.82.38-7.43-5.23-13.64-12.84-14.47ZM182.68,488.77c-.99-7.71-5.82-12.21-13.7-12.65-7.43-.42-14.1,5.14-14.47,12.77-.49,10.38-.46,20.82-.02,31.21.32,7.72,6.72,13.18,14.17,13.15,7.43-.04,13.51-5.52,14.1-13.28.38-5.02.07-10.1.06-15.16,0-5.35.53-10.77-.14-16.04ZM440.36,318.76c-23.94-.09-43.28,18.86-43.4,42.53-.13,23.83,18.96,43.17,42.66,43.24,23.72.07,42.84-19.07,42.94-42.99.1-23.3-19.02-42.69-42.2-42.78ZM439.86,375.94c-7.52.09-14.29-6.58-14.36-14.18-.08-7.57,6.56-14.33,14.13-14.39,7.57-.07,14.33,6.58,14.38,14.15.05,7.56-6.6,14.32-14.15,14.42ZM686.3,390.34c-11.11-.37-17.86,4.71-18.19,13.68-.32,8.68,5.52,14.03,16.24,14.87,22.66,1.78,38.97,18.14,40.78,40.93.85,10.67,6.28,16.58,14.9,16.22,8.65-.35,13.85-6.99,13.64-17.41-.71-35.59-31.82-67.13-67.37-68.29ZM809.06,440.76c-8.23-58.3-62.21-106.35-121.08-107.68-11.12-.25-16.49,2.41-19.08,9.45-3.63,9.84,3.39,18.61,15.49,19.15,26.26,1.16,49.14,10.36,67.91,28.94,19.48,19.29,28.99,42.97,29.99,70.29.35,9.26,6.01,15.06,14.11,15.13,8.42.08,14.13-6.19,14.41-15.76.19-6.58-.83-13.03-1.75-19.52ZM812.17,962.37c-2.64-.29-5.34-.04-8.01-.04v-.04c-2.67,0-5.35-.16-8.01.03-8.25.59-13.96,6.59-13.87,14.42.09,7.45,5.56,13.49,13.33,14.02,5.61.38,11.34.62,16.88-.1,7.7-1,12.13-5.94,12.52-13.82.38-7.43-5.23-13.64-12.84-14.47ZM866.18,437.7c-9.62-87.66-88.1-159.64-178.88-161.83h-.09c-12.18-.13-18.75,4.6-19.1,13.73-.36,9.44,6.15,14.45,18.89,14.94,17.01.65,33.59,3.75,49.58,9.71,60.87,22.68,100.59,78.8,102.75,145.17.34,10.51,5.76,16.74,14.47,16.62,8.72-.11,14.24-6.53,14.01-17-.16-7.12-.85-14.25-1.63-21.34ZM182.68,488.77c-.99-7.71-5.82-12.21-13.7-12.65-7.43-.42-14.1,5.14-14.47,12.77-.49,10.38-.46,20.82-.02,31.21.32,7.72,6.72,13.18,14.17,13.15,7.43-.04,13.51-5.52,14.1-13.28.38-5.02.07-10.1.06-15.16,0-5.35.53-10.77-.14-16.04ZM866.18,437.7c-9.62-87.66-88.1-159.64-178.88-161.83h-.09c-12.18-.13-18.75,4.6-19.1,13.73-.36,9.44,6.15,14.45,18.89,14.94,17.01.65,33.59,3.75,49.58,9.71,60.87,22.68,100.59,78.8,102.75,145.17.34,10.51,5.76,16.74,14.47,16.62,8.72-.11,14.24-6.53,14.01-17-.16-7.12-.85-14.25-1.63-21.34ZM687.98,333.08c-11.12-.25-16.49,2.41-19.08,9.45-3.63,9.84,3.39,18.61,15.49,19.15,26.26,1.16,49.14,10.36,67.91,28.94,19.48,19.29,28.99,42.97,29.99,70.29.35,9.26,6.01,15.06,14.11,15.13,8.42.08,14.13-6.19,14.41-15.76.19-6.58-.83-13.03-1.75-19.52-8.23-58.3-62.21-106.35-121.08-107.68ZM686.3,390.34c-11.11-.37-17.86,4.71-18.19,13.68-.32,8.68,5.52,14.03,16.24,14.87,22.66,1.78,38.97,18.14,40.78,40.93.85,10.67,6.28,16.58,14.9,16.22,8.65-.35,13.85-6.99,13.64-17.41-.71-35.59-31.82-67.13-67.37-68.29ZM440.36,318.76c-23.94-.09-43.28,18.86-43.4,42.53-.13,23.83,18.96,43.17,42.66,43.24,23.72.07,42.84-19.07,42.94-42.99.1-23.3-19.02-42.69-42.2-42.78ZM439.86,375.94c-7.52.09-14.29-6.58-14.36-14.18-.08-7.57,6.56-14.33,14.13-14.39,7.57-.07,14.33,6.58,14.38,14.15.05,7.56-6.6,14.32-14.15,14.42ZM812.17,962.37c-2.64-.29-5.34-.04-8.01-.04v-.04c-2.67,0-5.35-.16-8.01.03-8.25.59-13.96,6.59-13.87,14.42.09,7.45,5.56,13.49,13.33,14.02,5.61.38,11.34.62,16.88-.1,7.7-1,12.13-5.94,12.52-13.82.38-7.43-5.23-13.64-12.84-14.47ZM891.99,175.76c-117.42-.02-234.84-.01-352.26-.01H188.36c-47.15.01-76.84,29.66-76.84,76.76v504.01c0,47.25,29.6,77.04,76.56,77.05,124.26,0,248.51.05,372.77-.16,6.42,0,10.06,1.81,13.47,7.28,8.79,14.12,18.3,27.79,27.6,41.58,5.25,7.8,8.67,16.2,9.07,25.7q.48,11.3-10.96,11.4c-11.69.1-17.44,4.85-17.5,15.3-.17,28-.16,56,0,84,.06,9.47,5.56,15.03,15.03,15.04,85.02.1,170.04.1,255.06,0,9.51,0,15.14-5.51,15.2-14.88.18-28.3.19-56.6,0-84.9-.06-8.89-5.72-14.12-14.65-14.54-2.67-.13-5.39-.3-8.02.03-4.76.6-5.91-1.35-5.91-5.94.01-10.67,3.28-19.75,10.73-27.45,8.89-9.2,14.02-20.28,17.14-32.73,1.64-6.55-3.26-15.85,3.71-19.13,5.85-2.76,14-.6,21.14-.61,45.81-.03,75.83-30.09,75.84-76.01,0-168.59,0-337.19,0-505.79,0-45.96-29.97-76.01-75.8-76.01ZM839.46,953.8c-.3,14.88-.39,29.77.03,44.65.16,5.59-1.44,6.9-6.9,6.86-35.95-.26-71.9-.14-107.85-.14s-70.72-.16-106.08.16c-6.21.06-8.03-1.43-7.81-7.77.51-14.57.35-29.18.05-43.76-.09-4.73,1.36-5.93,5.98-5.92,72.2.13,144.4.13,216.6,0,4.6-.01,6.07,1.18,5.98,5.92ZM839.29,842.49c0,8.64-3.1,16.43-9.15,22.62-13.14,13.44-20.02,29.35-19.22,48.22.24,5.46-1.98,6.14-6.65,6.13-52.6-.14-105.2-.21-157.8.08-6.3.03-7.28-2.22-7-7.62.9-16.98-4.64-32-14.01-46.02-30.56-45.69-60.72-91.64-91.45-137.21-4.65-6.91-2.81-9.42,3.73-12.04,12.69-5.08,25.94-1.47,34.64,10.43,12.98,17.75,25.73,35.67,38.36,53.68,4.78,6.81,10.07,12.23,19.09,9.1,8.39-2.91,9.86-9.88,9.81-18.01-.2-36.62-.09-73.25-.09-109.88s.07-74.44-.04-111.67c-.03-8.51,3.21-14.54,11.65-16.67,9.13-2.3,16.88,5.34,16.9,16.63.08,39.61.04,79.21.04,118.82,0,1.78-.04,3.57,0,5.36.23,9.79,5.64,15.99,14.06,16.11,8.43.12,14.27-6.11,14.44-15.72.16-8.33-.06-16.68.07-25.01.15-9.77,5.7-16.21,13.91-16.42,8.5-.23,14.43,6.44,14.58,16.66.12,8.34-.11,16.68.06,25.01.19,9.5,6.22,15.74,14.66,15.48,8.09-.25,13.62-6.29,13.8-15.46.17-8.63-.1-17.27.09-25.91.21-9.52,6.31-15.98,14.53-15.78,7.91.19,13.68,6.42,13.91,15.51.22,8.63-.06,17.27.09,25.9.16,9.62,5.98,15.85,14.41,15.74,8.41-.11,13.93-6.31,14.07-16.1.12-8.33-.1-16.67.06-25.01.19-9.62,6.07-16.08,14.28-16.04,8.24.03,14.17,6.46,14.18,16.14.09,64.32.09,128.64,0,192.95ZM282.58,468.06c.42-20.59.07-20.6,20.73-20.6,94.79,0,189.59.09,284.38-.18,7.25-.02,9.48,1.45,9.26,9.07-.58,19.7-.17,19.71-19.86,19.71h-137.28c-49.63,0-99.25-.13-148.88.16-6.49.04-8.49-1.28-8.35-8.16ZM282.14,418.24c46.7-36.76,92.18-72.65,137.77-108.39,6.5-5.09,12.37-13.97,19.9-13.97s13.41,8.89,19.91,13.98c45.59,35.74,91.05,71.64,137.69,108.38h-315.27ZM539.56,510.06c-.09-4.3,1.26-5.35,5.49-5.52,23.15-.95,23.15-1.08,23.15,21.64,0,19.33-.17,38.67.11,57.99.08,5.06-1.39,6.36-6.4,6.43-22.26.3-22.25.47-22.25-21.65v-21.42c0-12.49.17-24.99-.1-37.47ZM482.49,510.18c-.08-4.12.95-5.46,5.35-5.65,23.28-1.03,23.27-1.18,23.27,22.41,0,19.04-.15,38.08.11,57.11.07,4.88-1.08,6.48-6.27,6.56-22.38.33-22.38.52-22.38-21.54v-22.31c0-12.19.15-24.39-.08-36.58ZM425.4,510.09c-.09-4.25,1.17-5.37,5.44-5.55,23.19-.97,23.19-1.11,23.19,21.6,0,19.34-.17,38.67.11,58,.07,5.01-1.31,6.39-6.36,6.46-22.3.31-22.29.49-22.29-21.62v-22.31c0-12.19.16-24.39-.09-36.58ZM368.31,510.72c-.09-4.37.74-6.07,5.71-6.21,22.93-.65,22.92-.84,22.92,21.89,0,19.34-.11,38.67.09,58,.05,4.37-.74,6.07-5.7,6.21-22.93.66-22.93.85-22.93-21.89v-21.41c0-12.2.17-24.4-.09-36.59ZM311.2,511c-.07-4.99,1.28-6.41,6.35-6.48,22.31-.31,22.31-.49,22.31,21.61v21.41c0,12.5-.16,24.99.09,37.48.08,4.23-1.14,5.39-5.43,5.57-23.21.98-23.2,1.12-23.2-21.59,0-19.34.16-38.67-.12-58ZM289.48,619.06c104.01,0,208.02.09,312.03-.18,7.6-.02,10.02,1.43,9.73,9.53-.69,19.24-.21,19.25-19.43,19.25h-152.45c-54.38,0-108.76-.1-163.14.15-6.11.03-7.98-1.28-7.89-7.7.28-21.04-.01-21.05,21.15-21.05ZM602.04,676.08c7.41-.02,9.5,1.68,9.16,9.17-.66,14.5-.19,29.06-.19,46.27-6.12-8.6-10.62-15.17-15.38-21.55-21.54-28.88-58.92-32.72-85.84-8.69-2.91,2.59-5.66,3.65-9.47,3.65-84.69-.08-169.39-.11-254.08.04-5.04.01-6.35-1.39-6.41-6.41-.3-22.3-.48-22.3,21.66-22.3,113.52,0,227.04.09,340.55-.18ZM868.03,652.81c.25-18.21-5.66-32.94-21.51-42.17-15.85-9.22-31.88-8.06-46.82,2.73-2.9,2.09-4.4,1.18-6.83-.45-16.57-11.17-33.27-11.13-49.86.01-1.96,1.32-3.33,3.03-6.08.89-11.86-9.22-25.21-11.19-40.29-6.85,0-19.29.02-38.01-.01-56.74-.04-26.55-18.19-45.69-43.16-45.56-24.39.12-42.4,19.37-42.45,45.38-.03,11.62-.37,23.25.14,34.85.27,6.24-3.17,5.72-7.17,5.59-3.7-.13-7.49,1.17-7.39-5.35.35-25.02.24-50.05.05-75.08-.03-4.29,1.19-5.94,5.49-5.45,2.64.29,5.35.14,8.02.03,9.46-.39,14.89-5.62,15.06-15.08.23-11.91.29-23.84-.05-35.74-.14-4.98,1.18-6.85,6.35-6.45,8.79.68,18.05.88,21.55-9.61,3.63-10.89-4.67-16.02-11.75-21.6-61.68-48.53-123.33-97.11-184.99-145.69-15.62-12.31-17.41-12.33-32.95-.09-62.83,49.49-125.66,98.98-188.52,148.43-3.55,2.79-7.05,5.53-8.53,10-3.42,10.32,4.13,19.14,16.99,18.44,8.61-.46,12.1,1.4,11.13,10.84-.99,9.73-.27,19.64-.2,29.47.08,11.8,5.1,16.9,16.65,17.1q11.87.2,11.87,12.32c0,22.34-.13,44.69.11,67.03.05,4.83-.95,6.96-6.25,6.56-6.21-.46-12.48-.13-18.73-.1-12.99.06-17.86,4.82-17.93,17.59-.05,9.54-.56,19.11.16,28.59.64,8.46-1.18,13.08-10.68,11.04-.86-.18-1.78-.05-2.67-.02-9.92.37-15.24,5.62-15.32,15.72-.15,17.87-.12,35.75,0,53.62.06,11.12,5.28,16.39,16.39,16.42,30.63.09,61.25.04,91.87.04,58.57,0,117.14.07,175.71-.12,5.28-.02,8.76,1.11,11.53,5.92,4.26,7.38,9.27,14.33,14.03,21.59-2.88,2.07-5.6,1.15-8.09,1.16-103.46.06-206.93.05-310.39.04-15.04,0-19.62-4.6-19.62-19.72,0-43.79.17-87.59-.15-131.38-.06-9.06,2.97-15.34,10.67-19.9,5.35-3.17,10.48-6.79,15.42-10.57,10.8-8.26,16.7-19.33,16.8-32.97.2-28.59.24-57.2-.02-85.8-.13-14.7-6.88-26.25-18.9-34.58-27.53-19.09-23.63-10.79-23.79-46.67-.16-38.14-.05-76.27-.03-114.41.01-13.91,4.87-18.8,18.73-18.8,225.37-.01,450.73-.01,676.1,0,13.82,0,18.72,4.93,18.72,18.83,0,159.09,0,318.18-.01,477.27,0,14.97-11.5,23.11-26,18.7-4.54-1.38-2.41-4.91-2.42-7.36-.16-33.96-.44-67.93.03-101.89ZM892.46,804.97c-5.65.01-11.34-.45-16.93.12-6.3.64-7.66-1.53-7.93-7.74-.33-7.94,4.25-6.99,8.87-6.64,26.23,1.98,43.66-15.25,47.57-34.17.72-3.46.9-7.09.9-10.64.04-160.85.05-321.71.02-482.57,0-26.5-18.33-44.66-44.98-44.66-226.82-.02-453.64-.02-680.46,0-27.18,0-45.15,18.08-45.18,45.36-.03,45.27.22,90.55-.12,135.83-.13,17.99,6.13,32.67,21.97,40.89,17.15,8.9,22.89,21.42,21.33,40.39-1.66,20.12-.6,40.48-.27,60.73.14,8.26-2.22,14.79-9.68,18.53-26.8,13.47-35.28,35.08-33.75,64.59,2.06,39.51.5,79.21.52,118.82.01,29.16,17.51,46.85,46.39,46.85,109.4.02,218.8.23,328.19-.32,11.35-.06,16.49,4.52,20.59,14.63h-170.48c-63.92,0-127.83.01-191.75,0-29.42-.01-47.21-17.75-47.21-47.12-.02-168.9-.02-337.8,0-506.7.01-28.93,17.79-46.78,46.63-46.78,235.44-.01,470.88-.02,706.33.01,28.19,0,46.2,18.03,46.2,46.31.03,169.2.03,338.4.01,507.6-.01,28.78-17.95,46.61-46.78,46.69ZM687.3,275.87h-.09c-12.18-.13-18.75,4.6-19.1,13.73-.36,9.44,6.15,14.45,18.89,14.94,17.01.65,33.59,3.75,49.58,9.71,60.87,22.68,100.59,78.8,102.75,145.17.34,10.51,5.76,16.74,14.47,16.62,8.72-.11,14.24-6.53,14.01-17-.16-7.12-.85-14.25-1.63-21.34-9.62-87.66-88.1-159.64-178.88-161.83ZM812.17,962.37c-2.64-.29-5.34-.04-8.01-.04v-.04c-2.67,0-5.35-.16-8.01.03-8.25.59-13.96,6.59-13.87,14.42.09,7.45,5.56,13.49,13.33,14.02,5.61.38,11.34.62,16.88-.1,7.7-1,12.13-5.94,12.52-13.82.38-7.43-5.23-13.64-12.84-14.47ZM687.98,333.08c-11.12-.25-16.49,2.41-19.08,9.45-3.63,9.84,3.39,18.61,15.49,19.15,26.26,1.16,49.14,10.36,67.91,28.94,19.48,19.29,28.99,42.97,29.99,70.29.35,9.26,6.01,15.06,14.11,15.13,8.42.08,14.13-6.19,14.41-15.76.19-6.58-.83-13.03-1.75-19.52-8.23-58.3-62.21-106.35-121.08-107.68ZM686.3,390.34c-11.11-.37-17.86,4.71-18.19,13.68-.32,8.68,5.52,14.03,16.24,14.87,22.66,1.78,38.97,18.14,40.78,40.93.85,10.67,6.28,16.58,14.9,16.22,8.65-.35,13.85-6.99,13.64-17.41-.71-35.59-31.82-67.13-67.37-68.29ZM440.36,318.76c-23.94-.09-43.28,18.86-43.4,42.53-.13,23.83,18.96,43.17,42.66,43.24,23.72.07,42.84-19.07,42.94-42.99.1-23.3-19.02-42.69-42.2-42.78ZM439.86,375.94c-7.52.09-14.29-6.58-14.36-14.18-.08-7.57,6.56-14.33,14.13-14.39,7.57-.07,14.33,6.58,14.38,14.15.05,7.56-6.6,14.32-14.15,14.42ZM154.49,520.1c.32,7.72,6.72,13.18,14.17,13.15,7.43-.04,13.51-5.52,14.1-13.28.38-5.02.07-10.1.06-15.16,0-5.35.53-10.77-.14-16.04-.99-7.71-5.82-12.21-13.7-12.65-7.43-.42-14.1,5.14-14.47,12.77-.49,10.38-.46,20.82-.02,31.21ZM812.17,962.37c-2.64-.29-5.34-.04-8.01-.04v-.04c-2.67,0-5.35-.16-8.01.03-8.25.59-13.96,6.59-13.87,14.42.09,7.45,5.56,13.49,13.33,14.02,5.61.38,11.34.62,16.88-.1,7.7-1,12.13-5.94,12.52-13.82.38-7.43-5.23-13.64-12.84-14.47ZM440.36,318.76c-23.94-.09-43.28,18.86-43.4,42.53-.13,23.83,18.96,43.17,42.66,43.24,23.72.07,42.84-19.07,42.94-42.99.1-23.3-19.02-42.69-42.2-42.78ZM439.86,375.94c-7.52.09-14.29-6.58-14.36-14.18-.08-7.57,6.56-14.33,14.13-14.39,7.57-.07,14.33,6.58,14.38,14.15.05,7.56-6.6,14.32-14.15,14.42ZM686.3,390.34c-11.11-.37-17.86,4.71-18.19,13.68-.32,8.68,5.52,14.03,16.24,14.87,22.66,1.78,38.97,18.14,40.78,40.93.85,10.67,6.28,16.58,14.9,16.22,8.65-.35,13.85-6.99,13.64-17.41-.71-35.59-31.82-67.13-67.37-68.29ZM809.06,440.76c-8.23-58.3-62.21-106.35-121.08-107.68-11.12-.25-16.49,2.41-19.08,9.45-3.63,9.84,3.39,18.61,15.49,19.15,26.26,1.16,49.14,10.36,67.91,28.94,19.48,19.29,28.99,42.97,29.99,70.29.35,9.26,6.01,15.06,14.11,15.13,8.42.08,14.13-6.19,14.41-15.76.19-6.58-.83-13.03-1.75-19.52ZM866.18,437.7c-9.62-87.66-88.1-159.64-178.88-161.83h-.09c-12.18-.13-18.75,4.6-19.1,13.73-.36,9.44,6.15,14.45,18.89,14.94,17.01.65,33.59,3.75,49.58,9.71,60.87,22.68,100.59,78.8,102.75,145.17.34,10.51,5.76,16.74,14.47,16.62,8.72-.11,14.24-6.53,14.01-17-.16-7.12-.85-14.25-1.63-21.34ZM182.68,488.77c-.99-7.71-5.82-12.21-13.7-12.65-7.43-.42-14.1,5.14-14.47,12.77-.49,10.38-.46,20.82-.02,31.21.32,7.72,6.72,13.18,14.17,13.15,7.43-.04,13.51-5.52,14.1-13.28.38-5.02.07-10.1.06-15.16,0-5.35.53-10.77-.14-16.04ZM866.18,437.7c-9.62-87.66-88.1-159.64-178.88-161.83h-.09c-12.18-.13-18.75,4.6-19.1,13.73-.36,9.44,6.15,14.45,18.89,14.94,17.01.65,33.59,3.75,49.58,9.71,60.87,22.68,100.59,78.8,102.75,145.17.34,10.51,5.76,16.74,14.47,16.62,8.72-.11,14.24-6.53,14.01-17-.16-7.12-.85-14.25-1.63-21.34ZM812.17,962.37c-2.64-.29-5.34-.04-8.01-.04v-.04c-2.67,0-5.35-.16-8.01.03-8.25.59-13.96,6.59-13.87,14.42.09,7.45,5.56,13.49,13.33,14.02,5.61.38,11.34.62,16.88-.1,7.7-1,12.13-5.94,12.52-13.82.38-7.43-5.23-13.64-12.84-14.47ZM809.06,440.76c-8.23-58.3-62.21-106.35-121.08-107.68-11.12-.25-16.49,2.41-19.08,9.45-3.63,9.84,3.39,18.61,15.49,19.15,26.26,1.16,49.14,10.36,67.91,28.94,19.48,19.29,28.99,42.97,29.99,70.29.35,9.26,6.01,15.06,14.11,15.13,8.42.08,14.13-6.19,14.41-15.76.19-6.58-.83-13.03-1.75-19.52ZM686.3,390.34c-11.11-.37-17.86,4.71-18.19,13.68-.32,8.68,5.52,14.03,16.24,14.87,22.66,1.78,38.97,18.14,40.78,40.93.85,10.67,6.28,16.58,14.9,16.22,8.65-.35,13.85-6.99,13.64-17.41-.71-35.59-31.82-67.13-67.37-68.29ZM440.36,318.76c-23.94-.09-43.28,18.86-43.4,42.53-.13,23.83,18.96,43.17,42.66,43.24,23.72.07,42.84-19.07,42.94-42.99.1-23.3-19.02-42.69-42.2-42.78ZM439.86,375.94c-7.52.09-14.29-6.58-14.36-14.18-.08-7.57,6.56-14.33,14.13-14.39,7.57-.07,14.33,6.58,14.38,14.15.05,7.56-6.6,14.32-14.15,14.42ZM182.68,488.77c-.99-7.71-5.82-12.21-13.7-12.65-7.43-.42-14.1,5.14-14.47,12.77-.49,10.38-.46,20.82-.02,31.21.32,7.72,6.72,13.18,14.17,13.15,7.43-.04,13.51-5.52,14.1-13.28.38-5.02.07-10.1.06-15.16,0-5.35.53-10.77-.14-16.04ZM812.17,962.37c-2.64-.29-5.34-.04-8.01-.04v-.04c-2.67,0-5.35-.16-8.01.03-8.25.59-13.96,6.59-13.87,14.42.09,7.45,5.56,13.49,13.33,14.02,5.61.38,11.34.62,16.88-.1,7.7-1,12.13-5.94,12.52-13.82.38-7.43-5.23-13.64-12.84-14.47ZM440.36,318.76c-23.94-.09-43.28,18.86-43.4,42.53-.13,23.83,18.96,43.17,42.66,43.24,23.72.07,42.84-19.07,42.94-42.99.1-23.3-19.02-42.69-42.2-42.78ZM439.86,375.94c-7.52.09-14.29-6.58-14.36-14.18-.08-7.57,6.56-14.33,14.13-14.39,7.57-.07,14.33,6.58,14.38,14.15.05,7.56-6.6,14.32-14.15,14.42ZM686.3,390.34c-11.11-.37-17.86,4.71-18.19,13.68-.32,8.68,5.52,14.03,16.24,14.87,22.66,1.78,38.97,18.14,40.78,40.93.85,10.67,6.28,16.58,14.9,16.22,8.65-.35,13.85-6.99,13.64-17.41-.71-35.59-31.82-67.13-67.37-68.29ZM809.06,440.76c-8.23-58.3-62.21-106.35-121.08-107.68-11.12-.25-16.49,2.41-19.08,9.45-3.63,9.84,3.39,18.61,15.49,19.15,26.26,1.16,49.14,10.36,67.91,28.94,19.48,19.29,28.99,42.97,29.99,70.29.35,9.26,6.01,15.06,14.11,15.13,8.42.08,14.13-6.19,14.41-15.76.19-6.58-.83-13.03-1.75-19.52ZM866.18,437.7c-9.62-87.66-88.1-159.64-178.88-161.83h-.09c-12.18-.13-18.75,4.6-19.1,13.73-.36,9.44,6.15,14.45,18.89,14.94,17.01.65,33.59,3.75,49.58,9.71,60.87,22.68,100.59,78.8,102.75,145.17.34,10.51,5.76,16.74,14.47,16.62,8.72-.11,14.24-6.53,14.01-17-.16-7.12-.85-14.25-1.63-21.34ZM182.68,488.77c-.99-7.71-5.82-12.21-13.7-12.65-7.43-.42-14.1,5.14-14.47,12.77-.49,10.38-.46,20.82-.02,31.21.32,7.72,6.72,13.18,14.17,13.15,7.43-.04,13.51-5.52,14.1-13.28.38-5.02.07-10.1.06-15.16,0-5.35.53-10.77-.14-16.04ZM866.18,437.7c-9.62-87.66-88.1-159.64-178.88-161.83h-.09c-12.18-.13-18.75,4.6-19.1,13.73-.36,9.44,6.15,14.45,18.89,14.94,17.01.65,33.59,3.75,49.58,9.71,60.87,22.68,100.59,78.8,102.75,145.17.34,10.51,5.76,16.74,14.47,16.62,8.72-.11,14.24-6.53,14.01-17-.16-7.12-.85-14.25-1.63-21.34ZM812.17,962.37c-2.64-.29-5.34-.04-8.01-.04v-.04c-2.67,0-5.35-.16-8.01.03-8.25.59-13.96,6.59-13.87,14.42.09,7.45,5.56,13.49,13.33,14.02,5.61.38,11.34.62,16.88-.1,7.7-1,12.13-5.94,12.52-13.82.38-7.43-5.23-13.64-12.84-14.47ZM809.06,440.76c-8.23-58.3-62.21-106.35-121.08-107.68-11.12-.25-16.49,2.41-19.08,9.45-3.63,9.84,3.39,18.61,15.49,19.15,26.26,1.16,49.14,10.36,67.91,28.94,19.48,19.29,28.99,42.97,29.99,70.29.35,9.26,6.01,15.06,14.11,15.13,8.42.08,14.13-6.19,14.41-15.76.19-6.58-.83-13.03-1.75-19.52ZM686.3,390.34c-11.11-.37-17.86,4.71-18.19,13.68-.32,8.68,5.52,14.03,16.24,14.87,22.66,1.78,38.97,18.14,40.78,40.93.85,10.67,6.28,16.58,14.9,16.22,8.65-.35,13.85-6.99,13.64-17.41-.71-35.59-31.82-67.13-67.37-68.29ZM440.36,318.76c-23.94-.09-43.28,18.86-43.4,42.53-.13,23.83,18.96,43.17,42.66,43.24,23.72.07,42.84-19.07,42.94-42.99.1-23.3-19.02-42.69-42.2-42.78ZM439.86,375.94c-7.52.09-14.29-6.58-14.36-14.18-.08-7.57,6.56-14.33,14.13-14.39,7.57-.07,14.33,6.58,14.38,14.15.05,7.56-6.6,14.32-14.15,14.42ZM182.68,488.77c-.99-7.71-5.82-12.21-13.7-12.65-7.43-.42-14.1,5.14-14.47,12.77-.49,10.38-.46,20.82-.02,31.21.32,7.72,6.72,13.18,14.17,13.15,7.43-.04,13.51-5.52,14.1-13.28.38-5.02.07-10.1.06-15.16,0-5.35.53-10.77-.14-16.04ZM812.17,962.37c-2.64-.29-5.34-.04-8.01-.04v-.04c-2.67,0-5.35-.16-8.01.03-8.25.59-13.96,6.59-13.87,14.42.09,7.45,5.56,13.49,13.33,14.02,5.61.38,11.34.62,16.88-.1,7.7-1,12.13-5.94,12.52-13.82.38-7.43-5.23-13.64-12.84-14.47ZM440.36,318.76c-23.94-.09-43.28,18.86-43.4,42.53-.13,23.83,18.96,43.17,42.66,43.24,23.72.07,42.84-19.07,42.94-42.99.1-23.3-19.02-42.69-42.2-42.78ZM439.86,375.94c-7.52.09-14.29-6.58-14.36-14.18-.08-7.57,6.56-14.33,14.13-14.39,7.57-.07,14.33,6.58,14.38,14.15.05,7.56-6.6,14.32-14.15,14.42ZM686.3,390.34c-11.11-.37-17.86,4.71-18.19,13.68-.32,8.68,5.52,14.03,16.24,14.87,22.66,1.78,38.97,18.14,40.78,40.93.85,10.67,6.28,16.58,14.9,16.22,8.65-.35,13.85-6.99,13.64-17.41-.71-35.59-31.82-67.13-67.37-68.29ZM809.06,440.76c-8.23-58.3-62.21-106.35-121.08-107.68-11.12-.25-16.49,2.41-19.08,9.45-3.63,9.84,3.39,18.61,15.49,19.15,26.26,1.16,49.14,10.36,67.91,28.94,19.48,19.29,28.99,42.97,29.99,70.29.35,9.26,6.01,15.06,14.11,15.13,8.42.08,14.13-6.19,14.41-15.76.19-6.58-.83-13.03-1.75-19.52ZM866.18,437.7c-9.62-87.66-88.1-159.64-178.88-161.83h-.09c-12.18-.13-18.75,4.6-19.1,13.73-.36,9.44,6.15,14.45,18.89,14.94,17.01.65,33.59,3.75,49.58,9.71,60.87,22.68,100.59,78.8,102.75,145.17.34,10.51,5.76,16.74,14.47,16.62,8.72-.11,14.24-6.53,14.01-17-.16-7.12-.85-14.25-1.63-21.34ZM182.68,488.77c-.99-7.71-5.82-12.21-13.7-12.65-7.43-.42-14.1,5.14-14.47,12.77-.49,10.38-.46,20.82-.02,31.21.32,7.72,6.72,13.18,14.17,13.15,7.43-.04,13.51-5.52,14.1-13.28.38-5.02.07-10.1.06-15.16,0-5.35.53-10.77-.14-16.04ZM866.18,437.7c-9.62-87.66-88.1-159.64-178.88-161.83h-.09c-12.18-.13-18.75,4.6-19.1,13.73-.36,9.44,6.15,14.45,18.89,14.94,17.01.65,33.59,3.75,49.58,9.71,60.87,22.68,100.59,78.8,102.75,145.17.34,10.51,5.76,16.74,14.47,16.62,8.72-.11,14.24-6.53,14.01-17-.16-7.12-.85-14.25-1.63-21.34ZM812.17,962.37c-2.64-.29-5.34-.04-8.01-.04v-.04c-2.67,0-5.35-.16-8.01.03-8.25.59-13.96,6.59-13.87,14.42.09,7.45,5.56,13.49,13.33,14.02,5.61.38,11.34.62,16.88-.1,7.7-1,12.13-5.94,12.52-13.82.38-7.43-5.23-13.64-12.84-14.47ZM809.06,440.76c-8.23-58.3-62.21-106.35-121.08-107.68-11.12-.25-16.49,2.41-19.08,9.45-3.63,9.84,3.39,18.61,15.49,19.15,26.26,1.16,49.14,10.36,67.91,28.94,19.48,19.29,28.99,42.97,29.99,70.29.35,9.26,6.01,15.06,14.11,15.13,8.42.08,14.13-6.19,14.41-15.76.19-6.58-.83-13.03-1.75-19.52ZM686.3,390.34c-11.11-.37-17.86,4.71-18.19,13.68-.32,8.68,5.52,14.03,16.24,14.87,22.66,1.78,38.97,18.14,40.78,40.93.85,10.67,6.28,16.58,14.9,16.22,8.65-.35,13.85-6.99,13.64-17.41-.71-35.59-31.82-67.13-67.37-68.29ZM440.36,318.76c-23.94-.09-43.28,18.86-43.4,42.53-.13,23.83,18.96,43.17,42.66,43.24,23.72.07,42.84-19.07,42.94-42.99.1-23.3-19.02-42.69-42.2-42.78ZM439.86,375.94c-7.52.09-14.29-6.58-14.36-14.18-.08-7.57,6.56-14.33,14.13-14.39,7.57-.07,14.33,6.58,14.38,14.15.05,7.56-6.6,14.32-14.15,14.42ZM182.68,488.77c-.99-7.71-5.82-12.21-13.7-12.65-7.43-.42-14.1,5.14-14.47,12.77-.49,10.38-.46,20.82-.02,31.21.32,7.72,6.72,13.18,14.17,13.15,7.43-.04,13.51-5.52,14.1-13.28.38-5.02.07-10.1.06-15.16,0-5.35.53-10.77-.14-16.04ZM812.17,962.37c-2.64-.29-5.34-.04-8.01-.04v-.04c-2.67,0-5.35-.16-8.01.03-8.25.59-13.96,6.59-13.87,14.42.09,7.45,5.56,13.49,13.33,14.02,5.61.38,11.34.62,16.88-.1,7.7-1,12.13-5.94,12.52-13.82.38-7.43-5.23-13.64-12.84-14.47ZM440.36,318.76c-23.94-.09-43.28,18.86-43.4,42.53-.13,23.83,18.96,43.17,42.66,43.24,23.72.07,42.84-19.07,42.94-42.99.1-23.3-19.02-42.69-42.2-42.78ZM439.86,375.94c-7.52.09-14.29-6.58-14.36-14.18-.08-7.57,6.56-14.33,14.13-14.39,7.57-.07,14.33,6.58,14.38,14.15.05,7.56-6.6,14.32-14.15,14.42ZM686.3,390.34c-11.11-.37-17.86,4.71-18.19,13.68-.32,8.68,5.52,14.03,16.24,14.87,22.66,1.78,38.97,18.14,40.78,40.93.85,10.67,6.28,16.58,14.9,16.22,8.65-.35,13.85-6.99,13.64-17.41-.71-35.59-31.82-67.13-67.37-68.29ZM809.06,440.76c-8.23-58.3-62.21-106.35-121.08-107.68-11.12-.25-16.49,2.41-19.08,9.45-3.63,9.84,3.39,18.61,15.49,19.15,26.26,1.16,49.14,10.36,67.91,28.94,19.48,19.29,28.99,42.97,29.99,70.29.35,9.26,6.01,15.06,14.11,15.13,8.42.08,14.13-6.19,14.41-15.76.19-6.58-.83-13.03-1.75-19.52ZM866.18,437.7c-9.62-87.66-88.1-159.64-178.88-161.83h-.09c-12.18-.13-18.75,4.6-19.1,13.73-.36,9.44,6.15,14.45,18.89,14.94,17.01.65,33.59,3.75,49.58,9.71,60.87,22.68,100.59,78.8,102.75,145.17.34,10.51,5.76,16.74,14.47,16.62,8.72-.11,14.24-6.53,14.01-17-.16-7.12-.85-14.25-1.63-21.34ZM182.68,488.77c-.99-7.71-5.82-12.21-13.7-12.65-7.43-.42-14.1,5.14-14.47,12.77-.49,10.38-.46,20.82-.02,31.21.32,7.72,6.72,13.18,14.17,13.15,7.43-.04,13.51-5.52,14.1-13.28.38-5.02.07-10.1.06-15.16,0-5.35.53-10.77-.14-16.04ZM866.18,437.7c-9.62-87.66-88.1-159.64-178.88-161.83h-.09c-12.18-.13-18.75,4.6-19.1,13.73-.36,9.44,6.15,14.45,18.89,14.94,17.01.65,33.59,3.75,49.58,9.71,60.87,22.68,100.59,78.8,102.75,145.17.34,10.51,5.76,16.74,14.47,16.62,8.72-.11,14.24-6.53,14.01-17-.16-7.12-.85-14.25-1.63-21.34ZM812.17,962.37c-2.64-.29-5.34-.04-8.01-.04v-.04c-2.67,0-5.35-.16-8.01.03-8.25.59-13.96,6.59-13.87,14.42.09,7.45,5.56,13.49,13.33,14.02,5.61.38,11.34.62,16.88-.1,7.7-1,12.13-5.94,12.52-13.82.38-7.43-5.23-13.64-12.84-14.47ZM809.06,440.76c-8.23-58.3-62.21-106.35-121.08-107.68-11.12-.25-16.49,2.41-19.08,9.45-3.63,9.84,3.39,18.61,15.49,19.15,26.26,1.16,49.14,10.36,67.91,28.94,19.48,19.29,28.99,42.97,29.99,70.29.35,9.26,6.01,15.06,14.11,15.13,8.42.08,14.13-6.19,14.41-15.76.19-6.58-.83-13.03-1.75-19.52ZM686.3,390.34c-11.11-.37-17.86,4.71-18.19,13.68-.32,8.68,5.52,14.03,16.24,14.87,22.66,1.78,38.97,18.14,40.78,40.93.85,10.67,6.28,16.58,14.9,16.22,8.65-.35,13.85-6.99,13.64-17.41-.71-35.59-31.82-67.13-67.37-68.29ZM440.36,318.76c-23.94-.09-43.28,18.86-43.4,42.53-.13,23.83,18.96,43.17,42.66,43.24,23.72.07,42.84-19.07,42.94-42.99.1-23.3-19.02-42.69-42.2-42.78ZM439.86,375.94c-7.52.09-14.29-6.58-14.36-14.18-.08-7.57,6.56-14.33,14.13-14.39,7.57-.07,14.33,6.58,14.38,14.15.05,7.56-6.6,14.32-14.15,14.42ZM182.68,488.77c-.99-7.71-5.82-12.21-13.7-12.65-7.43-.42-14.1,5.14-14.47,12.77-.49,10.38-.46,20.82-.02,31.21.32,7.72,6.72,13.18,14.17,13.15,7.43-.04,13.51-5.52,14.1-13.28.38-5.02.07-10.1.06-15.16,0-5.35.53-10.77-.14-16.04ZM812.17,962.37c-2.64-.29-5.34-.04-8.01-.04v-.04c-2.67,0-5.35-.16-8.01.03-8.25.59-13.96,6.59-13.87,14.42.09,7.45,5.56,13.49,13.33,14.02,5.61.38,11.34.62,16.88-.1,7.7-1,12.13-5.94,12.52-13.82.38-7.43-5.23-13.64-12.84-14.47ZM686.3,390.34c-11.11-.37-17.86,4.71-18.19,13.68-.32,8.68,5.52,14.03,16.24,14.87,22.66,1.78,38.97,18.14,40.78,40.93.85,10.67,6.28,16.58,14.9,16.22,8.65-.35,13.85-6.99,13.64-17.41-.71-35.59-31.82-67.13-67.37-68.29ZM809.06,440.76c-8.23-58.3-62.21-106.35-121.08-107.68-11.12-.25-16.49,2.41-19.08,9.45-3.63,9.84,3.39,18.61,15.49,19.15,26.26,1.16,49.14,10.36,67.91,28.94,19.48,19.29,28.99,42.97,29.99,70.29.35,9.26,6.01,15.06,14.11,15.13,8.42.08,14.13-6.19,14.41-15.76.19-6.58-.83-13.03-1.75-19.52ZM866.18,437.7c-9.62-87.66-88.1-159.64-178.88-161.83h-.09c-12.18-.13-18.75,4.6-19.1,13.73-.36,9.44,6.15,14.45,18.89,14.94,17.01.65,33.59,3.75,49.58,9.71,60.87,22.68,100.59,78.8,102.75,145.17.34,10.51,5.76,16.74,14.47,16.62,8.72-.11,14.24-6.53,14.01-17-.16-7.12-.85-14.25-1.63-21.34ZM182.68,488.77c-.99-7.71-5.82-12.21-13.7-12.65-7.43-.42-14.1,5.14-14.47,12.77-.49,10.38-.46,20.82-.02,31.21.32,7.72,6.72,13.18,14.17,13.15,7.43-.04,13.51-5.52,14.1-13.28.38-5.02.07-10.1.06-15.16,0-5.35.53-10.77-.14-16.04ZM866.18,437.7c-9.62-87.66-88.1-159.64-178.88-161.83h-.09c-12.18-.13-18.75,4.6-19.1,13.73-.36,9.44,6.15,14.45,18.89,14.94,17.01.65,33.59,3.75,49.58,9.71,60.87,22.68,100.59,78.8,102.75,145.17.34,10.51,5.76,16.74,14.47,16.62,8.72-.11,14.24-6.53,14.01-17-.16-7.12-.85-14.25-1.63-21.34ZM812.17,962.37c-2.64-.29-5.34-.04-8.01-.04v-.04c-2.67,0-5.35-.16-8.01.03-8.25.59-13.96,6.59-13.87,14.42.09,7.45,5.56,13.49,13.33,14.02,5.61.38,11.34.62,16.88-.1,7.7-1,12.13-5.94,12.52-13.82.38-7.43-5.23-13.64-12.84-14.47ZM809.06,440.76c-8.23-58.3-62.21-106.35-121.08-107.68-11.12-.25-16.49,2.41-19.08,9.45-3.63,9.84,3.39,18.61,15.49,19.15,26.26,1.16,49.14,10.36,67.91,28.94,19.48,19.29,28.99,42.97,29.99,70.29.35,9.26,6.01,15.06,14.11,15.13,8.42.08,14.13-6.19,14.41-15.76.19-6.58-.83-13.03-1.75-19.52ZM686.3,390.34c-11.11-.37-17.86,4.71-18.19,13.68-.32,8.68,5.52,14.03,16.24,14.87,22.66,1.78,38.97,18.14,40.78,40.93.85,10.67,6.28,16.58,14.9,16.22,8.65-.35,13.85-6.99,13.64-17.41-.71-35.59-31.82-67.13-67.37-68.29ZM182.68,488.77c-.99-7.71-5.82-12.21-13.7-12.65-7.43-.42-14.1,5.14-14.47,12.77-.49,10.38-.46,20.82-.02,31.21.32,7.72,6.72,13.18,14.17,13.15,7.43-.04,13.51-5.52,14.1-13.28.38-5.02.07-10.1.06-15.16,0-5.35.53-10.77-.14-16.04ZM812.17,962.37c-2.64-.29-5.34-.04-8.01-.04v-.04c-2.67,0-5.35-.16-8.01.03-8.25.59-13.96,6.59-13.87,14.42.09,7.45,5.56,13.49,13.33,14.02,5.61.38,11.34.62,16.88-.1,7.7-1,12.13-5.94,12.52-13.82.38-7.43-5.23-13.64-12.84-14.47ZM812.17,962.37c-2.64-.29-5.34-.04-8.01-.04v-.04c-2.67,0-5.35-.16-8.01.03-8.25.59-13.96,6.59-13.87,14.42.09,7.45,5.56,13.49,13.33,14.02,5.61.38,11.34.62,16.88-.1,7.7-1,12.13-5.94,12.52-13.82.38-7.43-5.23-13.64-12.84-14.47Z"/>
    <path class="cls-4" d="M753.67,458.63c.21,10.42-4.99,17.06-13.64,17.41-8.62.36-14.05-5.55-14.9-16.22-1.81-22.79-18.12-39.15-40.78-40.93-10.72-.84-16.56-6.19-16.24-14.87.33-8.97,7.08-14.05,18.19-13.68,35.55,1.16,66.66,32.7,67.37,68.29Z"/>
    <path class="cls-4" d="M809.06,440.76c.92,6.49,1.94,12.94,1.75,19.52-.28,9.57-5.99,15.84-14.41,15.76-8.1-.07-13.76-5.87-14.11-15.13-1-27.32-10.51-51-29.99-70.29-18.77-18.58-41.65-27.78-67.91-28.94-12.1-.54-19.12-9.31-15.49-19.15,2.59-7.04,7.96-9.7,19.08-9.45,58.87,1.33,112.85,49.38,121.08,107.68Z"/>
    <path class="cls-4" d="M867.81,459.04c.23,10.47-5.29,16.89-14.01,17-8.71.12-14.13-6.11-14.47-16.62-2.16-66.37-41.88-122.49-102.75-145.17-15.99-5.96-32.57-9.06-49.58-9.71-12.74-.49-19.25-5.5-18.89-14.94.35-9.13,6.92-13.86,19.1-13.73h.09c90.78,2.19,169.26,74.17,178.88,161.83.78,7.09,1.47,14.22,1.63,21.34Z"/>
    <path class="cls-4" d="M182.82,504.81c.01,5.06.32,10.14-.06,15.16-.59,7.76-6.67,13.24-14.1,13.28-7.45.03-13.85-5.43-14.17-13.15-.44-10.39-.47-20.83.02-31.21.37-7.63,7.04-13.19,14.47-12.77,7.88.44,12.71,4.94,13.7,12.65.67,5.27.13,10.69.14,16.04Z"/>
    <path class="cls-4" d="M440.36,318.76c-23.94-.09-43.28,18.86-43.4,42.53-.13,23.83,18.96,43.17,42.66,43.24,23.72.07,42.84-19.07,42.94-42.99.1-23.3-19.02-42.69-42.2-42.78ZM439.86,375.94c-7.52.09-14.29-6.58-14.36-14.18-.08-7.57,6.56-14.33,14.13-14.39,7.57-.07,14.33,6.58,14.38,14.15.05,7.56-6.6,14.32-14.15,14.42Z"/>
    <path class="cls-4" d="M825.01,976.84c-.39,7.88-4.82,12.82-12.52,13.82-5.54.72-11.27.48-16.88.1-7.77-.53-13.24-6.57-13.33-14.02-.09-7.83,5.62-13.83,13.87-14.42,2.66-.19,5.34-.03,8.01-.03v.04c2.67,0,5.37-.25,8.01.04,7.61.83,13.22,7.04,12.84,14.47Z"/>
    <path class="cls-1" d="M867.81,459.04c.23,10.47-5.29,16.89-14.01,17-8.71.12-14.13-6.11-14.47-16.62-2.16-66.37-41.88-122.49-102.75-145.17-15.99-5.96-32.57-9.06-49.58-9.71-12.74-.49-19.25-5.5-18.89-14.94.35-9.13,6.92-13.86,19.1-13.73h.09c90.78,2.19,169.26,74.17,178.88,161.83.78,7.09,1.47,14.22,1.63,21.34Z"/>
    <path class="cls-1" d="M810.81,460.28c-.28,9.57-5.99,15.84-14.41,15.76-8.1-.07-13.76-5.87-14.11-15.13-1-27.32-10.51-51-29.99-70.29-18.77-18.58-41.65-27.78-67.91-28.94-12.1-.54-19.12-9.31-15.49-19.15,2.59-7.04,7.96-9.7,19.08-9.45,58.87,1.33,112.85,49.38,121.08,107.68.92,6.49,1.94,12.94,1.75,19.52Z"/>
    <path class="cls-1" d="M753.67,458.63c.21,10.42-4.99,17.06-13.64,17.41-8.62.36-14.05-5.55-14.9-16.22-1.81-22.79-18.12-39.15-40.78-40.93-10.72-.84-16.56-6.19-16.24-14.87.33-8.97,7.08-14.05,18.19-13.68,35.55,1.16,66.66,32.7,67.37,68.29Z"/>
    <path class="cls-1" d="M182.82,504.81c.01,5.06.32,10.14-.06,15.16-.59,7.76-6.67,13.24-14.1,13.28-7.45.03-13.85-5.43-14.17-13.15-.44-10.39-.47-20.83.02-31.21.37-7.63,7.04-13.19,14.47-12.77,7.88.44,12.71,4.94,13.7,12.65.67,5.27.13,10.69.14,16.04Z"/>
    <path class="cls-1" d="M440.36,318.76c-23.94-.09-43.28,18.86-43.4,42.53-.13,23.83,18.96,43.17,42.66,43.24,23.72.07,42.84-19.07,42.94-42.99.1-23.3-19.02-42.69-42.2-42.78ZM439.86,375.94c-7.52.09-14.29-6.58-14.36-14.18-.08-7.57,6.56-14.33,14.13-14.39,7.57-.07,14.33,6.58,14.38,14.15.05,7.56-6.6,14.32-14.15,14.42Z"/>
    <path class="cls-3" d="M825.01,976.84c-.39,7.88-4.82,12.82-12.52,13.82-5.54.72-11.27.48-16.88.1-7.77-.53-13.24-6.57-13.33-14.02-.09-7.83,5.62-13.83,13.87-14.42,2.66-.19,5.34-.03,8.01-.03v.04c2.67,0,5.37-.25,8.01.04,7.61.83,13.22,7.04,12.84,14.47Z"/>
  </g>
  <circle class="cls-2" cx="1311.05" cy="1373.88" r="363.31"/>
</svg>