<?xml version="1.0" encoding="UTF-8"?>
<svg id="Layer_1" xmlns="http://www.w3.org/2000/svg" viewBox="0 0 1080 1080">
  <defs>
    <style>
      .cls-1 {
        fill: #1f3060;
      }

      .cls-2 {
        fill: #1f2f60;
      }
    </style>
  </defs>
  <g id="Business-Management-Operation-Smartphone-Hand">
    <path class="cls-1" d="M387.38,153.02h28.77v28.77h-28.77v-28.77Z"/>
    <path class="cls-1" d="M444.92,153.02h114.95v28.77h-114.95s0-28.77,0-28.77Z"/>
    <path class="cls-1" d="M531.1,670.22h-57.41c-23.75,0-43.09,19.34-43.09,43.09s19.34,43.09,43.09,43.09h57.41c23.75,0,43.09-19.34,43.09-43.09s-19.34-43.09-43.09-43.09ZM531.1,727.64h-57.41c-7.96,0-14.32-6.49-14.32-14.32s6.49-14.32,14.32-14.32h57.41c7.96,0,14.32,6.49,14.32,14.32s-6.49,14.32-14.32,14.32Z"/>
    <path class="cls-1" d="M157.61,469.09h28.77v-166.49l18.61,18.61,20.32-20.32-43.09-43.09c-5.63-5.63-14.69-5.63-20.32,0l-43.09,43.09,20.32,20.32,18.61-18.61v166.49h-.12Z"/>
    <path class="cls-1" d="M818.41,302.73v166.49h28.77v-166.49l18.61,18.61,20.32-20.32-43.09-43.09c-5.63-5.63-14.69-5.63-20.32,0l-43.09,43.09,20.32,20.32,18.61-18.61h-.12Z"/>
    <path class="cls-1" d="M904.59,727.76c-13.47,0-26.56,4.77-36.97,13.47-10.41-17.26-29.13-27.79-49.33-27.91-13.47,0-26.56,4.77-36.97,13.47-7.71-12.98-20.32-22.28-34.89-25.95V196.11c0-55.45-45.05-100.5-100.5-100.5h-287.31c-55.45,0-100.5,45.05-100.5,100.5v262.95c-9.18,4.28-16.53,11.63-20.81,20.69l-65.25,141.51c-9.55,20.69-14.45,43.21-14.57,66.1v270.17h28.77v-270.17c0-18.61,4.16-37.09,11.87-53.99l59.86-130.01v210.07c0,11.75,2.08,23.38,6.12,34.28l-14.2,24.61,24.85,14.32,86.18-149.22c3.79-6.61,10.04-11.51,17.38-13.47,7.34-1.84,15.18-.86,21.79,2.82,13.71,7.96,18.48,25.58,10.53,39.42l-64.64,111.89c-2.57,4.53-2.45,10.16.12,14.69l30.73,51.17c6.73,11.14,10.28,23.87,10.28,36.97v76.75h28.77v-76.75c0-18.24-5.02-36.11-14.32-51.66l-9.06-15.06h88.63c-3.92,14.69-1.84,30.48,5.75,43.7l61.94,107.11,24.85-14.32-61.94-107.11c-7.96-13.71-3.43-31.34,10.28-39.3,6.61-3.92,14.57-4.9,22.03-2.94,7.34,1.96,13.71,6.86,17.38,13.47l28.77,49.7c3.31,5.63,9.92,8.32,16.28,6.73,6.24-1.71,10.65-7.47,10.65-13.96v-272.99c0-15.91,12.85-28.77,28.77-28.77s28.77,12.85,28.77,28.77v229.9c0,7.96,6.49,14.32,14.32,14.32s14.32-6.49,14.32-14.32v-57.41c0-15.91,12.85-28.77,28.77-28.77s28.77,12.85,28.77,28.77v57.41c0,7.96,6.49,14.32,14.32,14.32s14.32-6.49,14.32-14.32v-43.09c0-15.91,12.85-28.77,28.77-28.77s28.77,12.85,28.77,28.77v43.09c0,7.96,6.49,14.32,14.32,14.32s14.32-6.49,14.32-14.32v-28.77c0-15.91,12.85-28.77,28.77-28.77s28.77,12.85,28.77,28.77v172.36h28.77v-172.36c0-31.71-25.71-57.41-57.41-57.41h0v-.24ZM717.78,700.95c-5.02,1.35-9.92,3.31-14.32,5.88v-122.66c0-31.71-25.71-57.41-57.41-57.41s-57.41,25.71-57.41,57.41v201.13h-14.57c-6.49-5.51-14.08-9.67-22.28-11.87-14.69-3.92-30.48-1.84-43.7,5.75-2.94,1.84-5.88,3.92-8.45,6.12h-124.25l60.47-104.79c15.91-27.54,6.49-62.68-21.06-78.47-27.54-15.79-62.68-6.49-78.47,21.06l-49.46,85.45V196.11c0-39.66,32.2-71.86,71.86-71.86h287.31c39.66,0,71.86,32.2,71.86,71.86v504.72l-.12.12Z"/>
    <path class="cls-1" d="M502.33,267.96c-79.33,0-143.72,64.27-143.72,143.72s64.27,143.72,143.72,143.72,143.72-64.27,143.72-143.72-64.39-143.59-143.72-143.72ZM502.33,526.51c-63.53,0-114.95-51.41-114.95-114.95s51.41-114.95,114.95-114.95,114.95,51.41,114.95,114.95-51.54,114.83-114.95,114.95Z"/>
    <path class="cls-1" d="M818.41,497.86h28.77v28.77h-28.77v-28.77Z"/>
    <path class="cls-1" d="M818.41,555.27h28.77v28.77h-28.77v-28.77Z"/>
    <path class="cls-1" d="M157.61,497.86h28.77v28.77h-28.77s0-28.77,0-28.77Z"/>
  </g>
  <g>
    <path class="cls-2" d="M460,369h80c3.92,0,7.68-3.45,7.5-7.5s-3.3-7.5-7.5-7.5h-80c-3.92,0-7.68,3.45-7.5,7.5s3.3,7.5,7.5,7.5h0Z"/>
    <path class="cls-2" d="M499.02,371.74c1.15,1.17,2.25,2.39,3.3,3.65.26.31.51.63.77.95.96,1.18-1.08-1.46-.18-.23.48.65.95,1.3,1.4,1.96,1.77,2.6,3.29,5.36,4.53,8.25l-.76-1.79c1.31,3.13,2.27,6.39,2.75,9.76l-.27-1.99c.37,2.8.41,5.6.06,8.4l.27-1.99c-.36,2.59-1.03,5.09-2.03,7.5l.76-1.79c-.85,1.97-1.9,3.77-3.14,5.52-.56.79.56-.77.61-.78-.11.03-.4.49-.49.6-.34.4-.68.8-1.04,1.18-.72.79-1.49,1.54-2.28,2.25-.36.33-.74.65-1.11.96-.21.17-.43.34-.64.52-.67.56,1.55-1.15.6-.47s-1.82,1.3-2.78,1.89c-1.95,1.22-4,2.26-6.11,3.17l1.79-.76c-3.69,1.55-7.55,2.62-11.52,3.18l1.99-.27c-3.51.46-7.05.51-10.57.06l1.99.27c-2.33-.32-4.62-.85-6.85-1.62-3-1.03-7,.66-8.47,3.45s-1.29,6.71,1.17,9.09c14.77,14.23,29.75,28.26,44.92,42.06,4.31,3.92,8.64,7.83,12.98,11.72,2.92,2.62,7.76,3.1,10.61,0,2.62-2.86,3.12-7.81,0-10.61-15.31-13.71-30.44-27.64-45.35-41.78-4.2-3.98-8.38-7.98-12.55-12l-7.3,12.54c14.08,4.84,31.08,1.57,43.05-7.04,2.97-2.13,5.82-4.48,8.15-7.31,2.72-3.3,4.66-6.61,6.24-10.58,3.02-7.57,2.93-16.32.77-24.1-2.57-9.26-8.02-17.6-14.69-24.43-2.75-2.81-7.89-2.96-10.61,0s-2.93,7.61,0,10.61h0Z"/>
    <path class="cls-2" d="M475.8,399.44c16.67,0,33.35-.02,50.02-.03,4.73,0,9.46,0,14.18,0,3.92,0,7.68-3.45,7.5-7.5s-3.3-7.5-7.5-7.5c-16.67,0-33.35.02-50.02.03-4.73,0-9.46,0-14.18,0-3.92,0-7.68,3.45-7.5,7.5s3.3,7.5,7.5,7.5h0Z"/>
  </g>
</svg>