<?xml version="1.0" encoding="UTF-8"?>
<svg width="500" height="300" id="Layer_1" xmlns="http://www.w3.org/2000/svg" viewBox="0 0 1080 1080">
  <defs>
    <style>
      .cls-1 {
        fill: #b3cb69;
      }

      .cls-2 {
        stroke: #24a7df;
      }

      .cls-2, .cls-3 {
        fill: none;
      }

      .cls-2, .cls-3, .cls-4 {
        stroke-miterlimit: 10;
      }

      .cls-5 {
        fill: #005263;
      }

      .cls-6 {
        fill: #fff;
      }

      .cls-3 {
        stroke: #fff;
        stroke-linecap: round;
        stroke-width: 2px;
      }

      .cls-7 {
        fill: #ccc;
      }

      .cls-4 {
        fill: #042b62;
        stroke: #000;
      }

      .cls-8 {
        fill: #e6e6e6;
      }

      .cls-9 {
        fill: #afafaf;
      }
    </style>
  </defs>
  <path class="cls-4" d="M31.02,605.29h269.19s-17.53-28.87-65.76-18.41c0,0-9.09-39.43-56.58-39.43-41.32,0-52.92,39.43-52.92,39.43,0,0-29.91-21.56-54,9.71,0,0-34.14-10.19-39.94,8.7Z"/>
  <path class="cls-4" d="M747.75,358.74h269.19s-17.55-28.87-65.78-18.41c0,0-9.06-39.43-56.55-39.43-41.16,0-52.76,39.43-52.76,39.43,0,0-29.91-21.56-54,9.71-.09-.14-34.24-10.26-40.1,8.7Z"/>
  <path class="cls-4" d="M318.62,400.52c-1.87-8.43-5.46-16.38-10.56-23.35l8.9-12.86-5.5-5.2-2.3-2.3-5.41-5.38-13.51,9.36c-7.24-4.67-15.39-7.74-23.9-9.02l-2.78-15.44h-18.41l-2.94,16.11c-8.42,1.81-16.37,5.38-23.31,10.49l-13.02-8.88-5.38,5.41-2.3,2.3-5.38,5.38,9.34,13.51c-4.65,7.26-7.72,15.42-9,23.95l-15.3,2.83v18.41l16.11,2.92c1.87,8.44,5.46,16.4,10.56,23.38l-8.88,12.82,5.38,5.41,2.3,2.3,5.41,5.41,13.51-9.36c7.23,4.67,15.39,7.74,23.9,9l2.81,15.44h18.41l2.94-16.24c8.42-1.8,16.35-5.37,23.28-10.47l12.88,8.93,5.38-5.38,2.3-2.3,5.38-5.38-9.34-13.53c4.65-7.24,7.72-15.39,9-23.9l15.53-2.88v-18.41l-16.11-3.04ZM256.24,451.85c-7.36,0-14.55-2.18-20.67-6.27-6.12-4.09-10.89-9.9-13.7-16.7-2.82-6.8-3.55-14.28-2.12-21.5,1.44-7.22,4.98-13.85,10.18-19.05,5.2-5.2,11.83-8.75,19.05-10.18,7.22-1.44,14.7-.7,21.49,2.12,6.8,2.82,12.61,7.58,16.7,13.7,4.09,6.12,6.27,13.31,6.27,20.67,0,4.89-.96,9.73-2.83,14.24-1.87,4.52-4.61,8.62-8.06,12.07-3.46,3.46-7.56,6.2-12.07,8.06-4.52,1.87-9.35,2.83-14.24,2.83Z"/>
  <path class="cls-4" d="M996.26,569.1c-1.4-6.3-4.08-12.25-7.89-17.46l6.67-9.62-4.03-4.03-1.68-1.68-4.03-4.03-10.12,6.9c-5.41-3.49-11.51-5.79-17.88-6.74l-2.09-11.5h-13.8l-2.3,12.15c-6.3,1.34-12.24,4-17.42,7.82l-9.62-6.67-4.05,4.03-1.68,1.68-4.03,4.03,6.9,10.1c-3.49,5.43-5.78,11.54-6.74,17.92l-11.5,2.09v13.8l12.08,2.19c1.39,6.31,4.08,12.26,7.89,17.49l-6.65,9.59,4.03,4.03,1.68,1.7,4.03,4.03,10.12-6.9c5.44,3.49,11.57,5.76,17.97,6.67l2.09,11.5h13.8l2.3-12.12c6.29-1.36,12.23-4.03,17.42-7.85l9.64,6.67,4.05-4.03,1.68-1.7,4.03-4.03-6.9-10.1c3.48-5.42,5.77-11.51,6.72-17.88l11.5-2.09v-13.8l-12.19-2.16ZM949.69,607.43c-5.5,0-10.88-1.63-15.45-4.69-4.57-3.06-8.14-7.4-10.25-12.48-2.11-5.08-2.66-10.68-1.58-16.07,1.07-5.4,3.72-10.35,7.61-14.24,3.89-3.89,8.85-6.54,14.24-7.61,5.4-1.07,10.99-.52,16.07,1.58,5.08,2.11,9.43,5.67,12.48,10.25,3.06,4.57,4.69,9.95,4.69,15.45,0,7.38-2.93,14.45-8.15,19.67-5.22,5.22-12.29,8.15-19.67,8.15Z"/>
  <path class="cls-4" d="M385.82,339.46c-.97-4.44-2.86-8.64-5.54-12.31l4.6-6.76-2.85-2.83-1.17-1.2-2.85-2.83-7.11,4.92c-3.81-2.45-8.1-4.06-12.59-4.74l-1.47-8.14h-9.71l-1.56,8.56c-4.43.96-8.61,2.84-12.26,5.52l-6.79-4.6-2.76,2.65-1.2,1.2-2.83,2.83,4.92,7.11c-2.45,3.82-4.07,8.12-4.74,12.61l-8.19,1.56v9.69l8.49,1.56c.98,4.44,2.88,8.62,5.57,12.29l-4.6,6.76,2.85,2.85,1.17,1.17,2.85,2.85,7.06-4.97c3.81,2.45,8.1,4.06,12.59,4.74l1.47,8.12h9.71l1.56-8.54c4.43-.96,8.61-2.84,12.26-5.52l6.79,4.6,2.85-2.85,1.17-1.17,2.85-2.83-4.95-7.13c2.45-3.76,4.07-7.99,4.76-12.42l8.14-1.47v-9.73l-8.51-1.54ZM353.13,366.45c-3.88,0-7.67-1.15-10.89-3.31-3.23-2.15-5.74-5.22-7.22-8.8-1.48-3.58-1.87-7.53-1.11-11.33.76-3.8,2.63-7.3,5.37-10.04,2.74-2.74,6.24-4.61,10.04-5.36,3.8-.75,7.75-.36,11.33,1.12,3.58,1.49,6.64,4,8.79,7.23,2.15,3.23,3.3,7.02,3.29,10.9,0,2.57-.51,5.12-1.49,7.5-.98,2.38-2.43,4.54-4.25,6.35-1.82,1.82-3.98,3.26-6.36,4.24-2.38.98-4.93,1.49-7.5,1.48Z"/>
  <path class="cls-9" d="M632,791.42h-78.16v71.74h78.16v-71.74Z"/>
  <path class="cls-7" d="M657.7,859.8h-128.47c-1.7,0-3.34.68-4.55,1.88-1.21,1.2-1.89,2.83-1.9,4.54,0,1.7.69,3.34,1.9,4.54,1.21,1.2,2.84,1.88,4.55,1.88h128.47c.84,0,1.68-.17,2.46-.49.78-.32,1.49-.8,2.08-1.39s1.07-1.3,1.39-2.08c.32-.78.49-1.61.49-2.46s-.17-1.68-.49-2.46c-.32-.78-.8-1.49-1.39-2.08s-1.3-1.07-2.08-1.39c-.78-.32-1.61-.49-2.46-.49Z"/>
  <path class="cls-7" d="M913.39,414.65H273.04c-5.01,0-9.06,4.06-9.06,9.07v403.67c0,5.01,4.06,9.06,9.06,9.06h640.35c5.01,0,9.06-4.06,9.06-9.06v-403.67c0-5.01-4.06-9.07-9.06-9.07Z"/>
  <path class="cls-6" d="M908.05,821.93v-392.76c0-1.18-.96-2.14-2.14-2.14H280.54c-1.18,0-2.14.96-2.14,2.14v392.76c0,1.18.96,2.14,2.14,2.14h625.37c1.18,0,2.14-.96,2.14-2.14Z"/>
  <path class="cls-8" d="M464.19,483.21h-136.23v136.23h136.23v-136.23Z"/>
  <path class="cls-8" d="M848.11,483.42h-361.03v136.23h361.03v-136.23Z"/>
  <path class="cls-8" d="M848.11,633.84h-361.03v19.14h361.03v-19.14Z"/>
  <path class="cls-8" d="M847.93,666.28h-361.03v19.14h361.03v-19.14Z"/>
  <path class="cls-8" d="M464.19,633.63h-136.23v19.14h136.23v-19.14Z"/>
  <path class="cls-8" d="M464.19,666.28h-136.23v19.14h136.23v-19.14Z"/>
  <path class="cls-4" d="M921.87,719.68H263.97v47.88h657.9v-47.88Z"/>
  <path class="cls-5" d="M313.95,719.68l-29.86,47.88h-20.11v-.48l29.56-47.4h20.41Z"/>
  <path class="cls-5" d="M359.57,719.68l-29.89,47.88h-20.36l29.89-47.88h20.36Z"/>
  <path class="cls-5" d="M405.22,719.68l-29.86,47.88h-20.41l29.86-47.88h20.41Z"/>
  <path class="cls-5" d="M450.89,719.68l-29.89,47.88h-20.41l29.89-47.88h20.41Z"/>
  <path class="cls-5" d="M496.53,719.68l-29.86,47.88h-20.41l29.89-47.88h20.38Z"/>
  <path class="cls-5" d="M542.2,719.68l-29.89,47.88h-20.41l29.89-47.88h20.41Z"/>
  <path class="cls-5" d="M587.87,719.68l-29.89,47.88h-20.41l29.89-47.88h20.41Z"/>
  <path class="cls-5" d="M633.48,719.68l-29.86,47.88h-20.36l29.86-47.88h20.36Z"/>
  <path class="cls-5" d="M679.14,719.68l-29.89,47.88h-20.36l29.89-47.88h20.36Z"/>
  <path class="cls-5" d="M724.79,719.68l-29.86,47.88h-20.41l29.86-47.88h20.41Z"/>
  <path class="cls-5" d="M770.46,719.68l-29.89,47.88h-20.41l29.89-47.88h20.41Z"/>
  <path class="cls-5" d="M816.11,719.68l-29.86,47.88h-20.41l29.89-47.88h20.38Z"/>
  <path class="cls-5" d="M861.78,719.68l-29.86,47.88h-20.41l29.86-47.88h20.41Z"/>
  <path class="cls-5" d="M907.45,719.68l-29.89,47.88h-20.41l29.89-47.88h20.41Z"/>
  <path class="cls-5" d="M921.9,736.98v30.58h-19.07l19.07-30.58Z"/>
  <path class="cls-8" d="M556.84,449.73h-67.34v16.59h67.34v-16.59Z"/>
  <path class="cls-4" d="M649.81,533.45l-244.6,40.1,12.41,75.72,244.6-40.1-12.41-75.72Z"/>
  <path class="cls-2" d="M409.47,572.85c-3.13,1.4,113.8-46.25,113.8-46.25l126.54,6.9"/>
  <path class="cls-9" d="M1048,872.64H97.83v29.68h950.17v-29.68Z"/>
  <path class="cls-4" d="M105.48,642.35c-3.13-.97-47.6,194.39,121.11,219.86,0,0,49.47-169.66-121.11-219.86Z"/>
  <path class="cls-3" d="M141.76,706.84l82.32,152.95"/>
  <path class="cls-3" d="M137.62,754.54l39,17.05"/>
  <path class="cls-3" d="M208.5,760.11l-10.7,50.87"/>
  <path class="cls-4" d="M848.13,279.06h-71.78v135.58h71.78v-135.58Z"/>
  <path class="cls-4" d="M859.68,251.41h-125.32v125.32h125.32v-125.32Z"/>
  <path class="cls-4" d="M522.85,498.07c11.84,0,21.44-9.6,21.44-21.44s-9.6-21.44-21.44-21.44-21.44,9.6-21.44,21.44,9.6,21.44,21.44,21.44Z"/>
  <path class="cls-4" d="M491.45,291.72h-4.56v174.6h4.56v-174.6Z"/>
  <path class="cls-4" d="M524.58,291.72h-4.56v174.6h4.56v-174.6Z"/>
  <path class="cls-4" d="M559.64,291.72h-4.56v174.6h4.56v-174.6Z"/>
  <path class="cls-1" d="M523.2,506.36c-.29,0-.58-.07-.85-.19s-.51-.29-.7-.51c-.2-.21-.35-.47-.45-.74-.1-.28-.14-.57-.12-.86v-24.39c.15-.46.44-.86.84-1.15.39-.29.86-.44,1.35-.44s.96.15,1.35.44c.39.28.69.69.84,1.15v24.39c0,.6-.24,1.18-.66,1.61-.42.43-.99.68-1.6.69Z"/>
  <path class="cls-4" d="M559.65,464.55h-72.75v18.68h72.75v-18.68Z"/>
  <path class="cls-1" d="M522.83,533.46c-2.88-.02-5.7-.81-8.16-2.31-2.46-1.5-4.46-3.63-5.8-6.18-1.34-2.55-1.95-5.42-1.79-8.29.17-2.87,1.12-5.65,2.74-8.02,1.5-2.12,3.48-3.86,5.78-5.06,2.3-1.2,4.86-1.83,7.45-1.85.59.03,1.14.29,1.54.72.4.43.63.99.63,1.58-.04.59-.29,1.14-.72,1.54-.43.4-.99.62-1.58.62-2.45-.02-4.85.75-6.83,2.19-1.99,1.44-3.46,3.47-4.21,5.81-.75,2.34-.73,4.85.05,7.17.78,2.32,2.28,4.34,4.29,5.75,2.51,1.73,5.59,2.39,8.58,1.85,2.99-.54,5.65-2.25,7.39-4.74,1.31-1.87,2.02-4.09,2.05-6.37.04-.59.29-1.14.72-1.54.43-.4.99-.62,1.58-.62.29,0,.59.06.86.18.27.12.51.29.71.51.2.21.35.47.45.75.1.28.14.57.12.87-.05,4.17-1.75,8.15-4.72,11.08-2.97,2.93-6.98,4.57-11.15,4.56l.02-.18Z"/>
  <path class="cls-4" d="M848.34,251.41h-380.73v64.56h380.73v-64.56Z"/>
  <path class="cls-6" d="M526.74,262.57l-24.39,42.24-24.39-42.24h48.78Z"/>
  <path class="cls-6" d="M564.04,304.81l-24.39-42.24-24.39,42.24h48.78Z"/>
  <path class="cls-6" d="M489.17,304.83h-21.56v-37.34l21.56,37.34Z"/>
  <path class="cls-6" d="M603.86,262.57l-24.39,42.24-24.39-42.24h48.78Z"/>
  <path class="cls-6" d="M641.16,304.81l-24.39-42.24-24.39,42.24h48.78Z"/>
  <path class="cls-6" d="M680.99,262.57l-24.39,42.24-24.39-42.24h48.78Z"/>
  <path class="cls-6" d="M718.28,304.81l-24.39-42.24-24.39,42.24h48.78Z"/>
  <path class="cls-6" d="M758.09,262.57l-24.36,42.24-24.41-42.24h48.78Z"/>
  <path class="cls-6" d="M795.4,304.81l-24.39-42.24-24.39,42.24h48.78Z"/>
  <path class="cls-6" d="M835.21,262.57l-24.39,42.24-24.39-42.24h48.78Z"/>
  <path class="cls-6" d="M848.37,262.96v41.87h-24.62l24.39-42.26.23.39Z"/>
  <path class="cls-4" d="M467.61,251.41h-11.87v64.56h11.87v-64.56Z"/>
  <path class="cls-4" d="M859.71,251.41h-11.87v64.56h11.87v-64.56Z"/>
  <path class="cls-4" d="M1032.86,705.03c2.3-.69,33.89,138.46-86.19,156.59.05,0-35.32-120.84,86.19-156.59Z"/>
  <path class="cls-3" d="M945.85,866.22l65.36-122.58"/>
  <path class="cls-3" d="M978.52,761.88l3.24,37"/>
  <path class="cls-6" d="M968.88,823.03c-.35.62,30.39-12.68,30.39-12.68l-30.39,12.68Z"/>
  <path class="cls-3" d="M968.88,823.03c-.35.62,30.39-12.68,30.39-12.68"/>
  <path class="cls-4" d="M786.45,483.21h-10.1v400.19h10.1v-400.19Z"/>
  <path class="cls-4" d="M848.14,483.21h-10.1v400.19h10.1v-400.19Z"/>
  <path class="cls-4" d="M841.33,530.84h-59.93v5.13h59.93v-5.13Z"/>
  <path class="cls-4" d="M841.33,582.35h-59.93v5.13h59.93v-5.13Z"/>
  <path class="cls-4" d="M841.33,633.84h-59.93v5.13h59.93v-5.13Z"/>
  <path class="cls-4" d="M841.33,685.33h-59.93v5.13h59.93v-5.13Z"/>
  <path class="cls-4" d="M841.33,736.85h-59.93v5.13h59.93v-5.13Z"/>
  <path class="cls-4" d="M841.33,788.34h-59.93v5.13h59.93v-5.13Z"/>
  <path class="cls-6" d="M478.11,584.24l-6.57,1.21c-.28-.83-.66-1.54-1.15-2.13-.49-.6-1.07-1.08-1.74-1.45-.67-.36-1.4-.6-2.21-.71-.8-.11-1.64-.09-2.51.07-1.59.29-2.9.94-3.94,1.95-1.04,1-1.74,2.31-2.12,3.93-.38,1.61-.37,3.48.02,5.61.4,2.19,1.07,3.97,1.99,5.34.93,1.37,2.06,2.33,3.38,2.87,1.32.54,2.76.67,4.31.39.87-.16,1.65-.42,2.35-.79.71-.37,1.31-.83,1.81-1.37.5-.56.88-1.19,1.14-1.9.27-.71.41-1.49.41-2.34l6.58-1.18c.09,1.44-.09,2.88-.52,4.32-.43,1.42-1.12,2.75-2.08,3.99-.94,1.23-2.14,2.29-3.61,3.18-1.45.88-3.16,1.5-5.13,1.86-2.74.5-5.31.33-7.69-.51-2.38-.85-4.41-2.33-6.09-4.45-1.67-2.12-2.81-4.85-3.43-8.2-.62-3.35-.51-6.32.32-8.9.83-2.58,2.21-4.69,4.15-6.31,1.93-1.64,4.25-2.7,6.95-3.2,1.78-.33,3.48-.38,5.09-.16,1.62.22,3.11.7,4.47,1.44,1.36.73,2.53,1.72,3.52,2.97,1,1.24,1.77,2.74,2.31,4.48ZM511.95,582.73c.62,3.36.5,6.34-.34,8.94-.83,2.59-2.23,4.71-4.19,6.36-1.95,1.64-4.29,2.7-7.01,3.2-2.74.5-5.31.33-7.72-.51-2.41-.85-4.46-2.33-6.16-4.46-1.7-2.13-2.86-4.87-3.47-8.22-.62-3.36-.51-6.34.32-8.93.83-2.59,2.22-4.71,4.18-6.34,1.95-1.65,4.3-2.72,7.04-3.22,2.72-.5,5.28-.33,7.69.52,2.42.83,4.47,2.31,6.17,4.44,1.71,2.13,2.87,4.87,3.49,8.23ZM505.34,583.94c-.4-2.18-1.06-3.95-1.99-5.33-.92-1.38-2.03-2.35-3.35-2.9-1.32-.56-2.76-.69-4.34-.4-1.58.29-2.88.93-3.91,1.92-1.03.99-1.74,2.29-2.12,3.91-.37,1.61-.35,3.51.05,5.69.4,2.18,1.06,3.95,1.98,5.33.93,1.38,2.05,2.34,3.37,2.9,1.32.56,2.76.69,4.34.4,1.58-.29,2.88-.93,3.91-1.92,1.03-.99,1.73-2.29,2.1-3.9.38-1.62.37-3.51-.03-5.69ZM513.95,566.42l8.04-1.48,12.3,19.16.36-.07,4.69-22.28,8.04-1.48,5.66,30.84-6.32,1.16-3.69-20.07-.26.05-4.32,21.39-4.31.79-11.65-18.53-.26.05,3.7,20.15-6.32,1.16-5.66-30.84ZM559.27,558.09l5.66,30.84-6.52,1.2-5.66-30.84,6.52-1.2ZM590.43,552.37l5.66,30.84-5.63,1.04-16.98-16.95-.23.04,3.57,19.41-6.52,1.2-5.66-30.84,5.72-1.05,16.87,16.95.27-.05-3.56-19.4,6.49-1.19ZM618.1,557.59c-.35-.69-.76-1.29-1.24-1.78-.49-.5-1.04-.9-1.67-1.19-.61-.3-1.29-.49-2.04-.58-.73-.09-1.52-.05-2.36.11-1.58.29-2.89.94-3.94,1.94-1.04,1-1.76,2.31-2.14,3.93-.39,1.61-.39,3.49,0,5.63.39,2.15,1.06,3.92,1.99,5.3.93,1.39,2.06,2.37,3.4,2.94,1.34.56,2.82.7,4.45.4,1.48-.27,2.69-.76,3.64-1.48.96-.73,1.62-1.62,2-2.69.38-1.07.46-2.26.22-3.57l1.36-.05-7.95,1.46-.9-4.91,12.91-2.37.71,3.89c.5,2.71.35,5.14-.43,7.3-.79,2.15-2.09,3.93-3.9,5.36-1.82,1.41-4.02,2.36-6.61,2.83-2.89.53-5.55.36-7.97-.51-2.43-.88-4.47-2.39-6.12-4.53-1.65-2.15-2.77-4.85-3.37-8.1-.46-2.5-.51-4.79-.14-6.89.37-2.1,1.09-3.96,2.15-5.56,1.06-1.61,2.4-2.93,4.02-3.96,1.62-1.04,3.44-1.74,5.48-2.11,1.75-.32,3.42-.36,5.02-.13,1.6.23,3.06.69,4.4,1.4,1.35.71,2.51,1.63,3.48,2.77.98,1.13,1.71,2.44,2.2,3.93l-6.63,1.22Z"/>
  <path class="cls-6" d="M520.56,611.74c-.17-.59-.51-1.01-1.03-1.26-.52-.25-1.16-.3-1.94-.16-.53.1-.96.25-1.3.47-.34.21-.58.46-.72.76-.14.29-.18.61-.12.93.04.28.14.51.3.69.17.18.38.33.63.43.25.1.53.18.85.24.31.05.64.08.99.1l1.44.08c.69.03,1.34.11,1.95.26.6.15,1.14.36,1.62.65.47.29.87.66,1.18,1.11.32.45.54.99.66,1.63.17.94.08,1.79-.27,2.57-.34.77-.92,1.42-1.74,1.96-.81.54-1.84.92-3.09,1.15-1.24.23-2.35.24-3.33.03-.98-.21-1.8-.64-2.45-1.29-.65-.65-1.08-1.53-1.31-2.63l3.13-.58c.13.51.35.91.68,1.21.33.29.72.48,1.19.58.47.09.99.08,1.55-.02.55-.1,1.01-.27,1.38-.5.38-.23.66-.52.83-.84.17-.32.23-.67.16-1.04-.06-.34-.22-.61-.46-.81-.24-.2-.57-.34-.99-.44-.41-.09-.91-.16-1.49-.19l-1.74-.11c-1.35-.08-2.45-.38-3.32-.91-.87-.53-1.41-1.36-1.61-2.49-.18-.92-.08-1.78.29-2.56.38-.78.97-1.45,1.77-2,.81-.55,1.77-.92,2.88-1.13,1.14-.21,2.16-.2,3.08.03.92.23,1.68.65,2.28,1.26s.99,1.36,1.18,2.27l-3.1.57ZM540.7,611.4c.31,1.67.25,3.15-.17,4.43-.41,1.28-1.1,2.34-2.08,3.15-.97.81-2.13,1.34-3.48,1.59-1.36.25-2.64.17-3.83-.26-1.19-.42-2.21-1.15-3.06-2.21-.84-1.05-1.41-2.41-1.72-4.08-.31-1.67-.25-3.15.16-4.43s1.1-2.33,2.07-3.15c.97-.82,2.13-1.35,3.49-1.6,1.35-.25,2.62-.16,3.82.26,1.2.41,2.22,1.15,3.06,2.2.85,1.05,1.42,2.42,1.73,4.08ZM537.42,612c-.2-1.08-.53-1.96-.99-2.65-.46-.68-1.01-1.16-1.66-1.44-.65-.28-1.37-.34-2.15-.2-.78.14-1.43.46-1.94.95-.51.49-.86,1.14-1.05,1.94-.18.8-.17,1.74.02,2.82.2,1.08.52,1.96.98,2.65.46.68,1.02,1.16,1.67,1.44.65.28,1.37.34,2.15.2.78-.14,1.43-.46,1.94-.95.51-.49.86-1.14,1.04-1.94.19-.8.18-1.74-.02-2.82ZM557.15,608.37c.31,1.67.25,3.15-.17,4.43-.41,1.29-1.1,2.34-2.08,3.15-.97.81-2.13,1.34-3.48,1.59-1.36.25-2.64.17-3.83-.25-1.19-.42-2.21-1.16-3.06-2.21-.84-1.06-1.41-2.42-1.72-4.08-.31-1.67-.25-3.15.16-4.43.41-1.28,1.1-2.33,2.07-3.15.97-.81,2.13-1.35,3.49-1.6,1.35-.25,2.62-.16,3.82.26,1.2.41,2.22,1.15,3.06,2.2.85,1.06,1.42,2.42,1.73,4.08ZM553.87,608.98c-.2-1.08-.53-1.96-.99-2.64-.46-.68-1.01-1.16-1.66-1.44-.65-.28-1.37-.34-2.15-.2-.78.14-1.43.46-1.94.95-.51.49-.86,1.14-1.05,1.94-.18.8-.17,1.74.02,2.82.2,1.08.53,1.96.98,2.65.46.68,1.02,1.16,1.67,1.44.65.28,1.37.34,2.15.2.78-.14,1.43-.46,1.94-.95.51-.49.86-1.14,1.04-1.94.19-.8.18-1.74-.02-2.82ZM570.94,597.94l2.81,15.3-2.8.51-8.42-8.4-.11.02,1.77,9.63-3.23.59-2.81-15.3,2.84-.52,8.37,8.41.13-.02-1.77-9.62,3.22-.59Z"/>
</svg>