<svg width="9" height="16" viewBox="0 0 9 16" fill="none" xmlns="http://www.w3.org/2000/svg">
<path d="M4.284 15.139V13.643C3.62667 13.5863 2.975 13.4503 2.329 13.235C1.69433 13.0197 1.11067 12.725 0.578 12.351L1.445 10.906C1.89833 11.2233 2.363 11.4783 2.839 11.671C3.315 11.8523 3.79667 11.977 4.284 12.045V8.73L3.247 8.475C2.397 8.237 1.76233 7.88567 1.343 7.421C0.935 6.945 0.731 6.34433 0.731 5.619C0.731 4.67833 1.04833 3.93033 1.683 3.375C2.31767 2.80833 3.18467 2.49667 4.284 2.44V0.961H5.338V2.457C5.93867 2.525 6.52233 2.67233 7.089 2.899C7.65567 3.11433 8.18267 3.39767 8.67 3.749L7.837 5.16C7.04367 4.582 6.21067 4.21933 5.338 4.072V7.234L6.358 7.506C7.25333 7.75533 7.91067 8.10667 8.33 8.56C8.74933 9.01333 8.959 9.597 8.959 10.311C8.959 10.9343 8.81167 11.4897 8.517 11.977C8.22233 12.453 7.803 12.8383 7.259 13.133C6.715 13.4163 6.07467 13.5807 5.338 13.626V15.139H4.284ZM4.284 6.996V4.021C3.71733 4.04367 3.26967 4.191 2.941 4.463C2.62367 4.72367 2.465 5.06367 2.465 5.483C2.465 5.83433 2.57833 6.12333 2.805 6.35C3.03167 6.56533 3.417 6.74667 3.961 6.894L4.284 6.996ZM5.338 12.045C5.90467 11.9997 6.35233 11.841 6.681 11.569C7.00967 11.297 7.174 10.9457 7.174 10.515C7.174 10.1523 7.06067 9.869 6.834 9.665C6.61867 9.461 6.222 9.26267 5.644 9.07L5.338 8.968V12.045Z" fill="black" fill-opacity="0.7"/>
</svg>
