<svg width="24" height="24" viewBox="0 0 24 24" fill="none" xmlns="http://www.w3.org/2000/svg">
<g clip-path="url(#clip0_113_26)">
<path d="M23.3529 9.292L20.4689 9C20.3647 8.70597 20.2452 8.41757 20.1109 8.136L21.9419 5.888C22.0542 5.75 22.1114 5.57527 22.1023 5.39758C22.0933 5.21989 22.0187 5.05187 21.8929 4.926L19.0759 2.106C18.95 1.98025 18.782 1.90564 18.6043 1.89659C18.4266 1.88754 18.2519 1.9447 18.1139 2.057L16.2249 3.595C16.1166 3.68143 15.9868 3.73685 15.8494 3.75534C15.7121 3.77383 15.5723 3.7547 15.4449 3.7L15.4279 3.693C15.2998 3.6414 15.188 3.55603 15.1046 3.44598C15.0211 3.33592 14.969 3.2053 14.9539 3.068L14.7069 0.646C14.6888 0.468917 14.6057 0.304833 14.4736 0.1855C14.3416 0.0661676 14.1699 7.07169e-05 13.9919 2.67228e-07H10.0069C9.82884 -0.000153278 9.65707 0.0658665 9.52494 0.185242C9.39282 0.304618 9.30976 0.468831 9.29191 0.646L9.04491 3.069C9.0296 3.20652 8.97723 3.33729 8.8934 3.44737C8.80956 3.55745 8.69741 3.64269 8.56891 3.694L8.55291 3.7C8.42562 3.75448 8.28594 3.77339 8.14875 3.75473C8.01156 3.73606 7.88201 3.68051 7.77391 3.594L5.88591 2.057C5.74791 1.9447 5.57318 1.88754 5.39549 1.89659C5.2178 1.90564 5.04978 1.98025 4.92391 2.106L2.10591 4.923C1.98016 5.04887 1.90555 5.21689 1.8965 5.39458C1.88745 5.57227 1.9446 5.74701 2.05691 5.885L3.59991 7.774C3.68623 7.882 3.74167 8.01137 3.76034 8.14836C3.779 8.28536 3.76019 8.42484 3.70591 8.552L3.69791 8.571C3.64631 8.69913 3.56094 8.81087 3.45088 8.89433C3.34083 8.9778 3.2102 9.02987 3.07291 9.045L0.649906 9.293C0.472737 9.31086 0.308524 9.39391 0.189148 9.52604C0.0697728 9.65816 0.00375297 9.82993 0.00390652 10.008V13.992C0.00375297 14.1701 0.0697728 14.3418 0.189148 14.474C0.308524 14.6061 0.472737 14.6891 0.649906 14.707L3.07291 14.955C3.21031 14.9702 3.34101 15.0224 3.45108 15.1061C3.56115 15.1897 3.64645 15.3017 3.69791 15.43L3.70491 15.447C3.75939 15.5743 3.7783 15.714 3.75963 15.8512C3.74096 15.9883 3.68541 16.1179 3.59891 16.226L2.05691 18.113C1.9446 18.251 1.88745 18.4257 1.8965 18.6034C1.90555 18.7811 1.98016 18.9491 2.10591 19.075L4.92291 21.892C5.04878 22.0177 5.2168 22.0924 5.39449 22.1014C5.57218 22.1105 5.74691 22.0533 5.88491 21.941L7.77391 20.4C7.88201 20.3135 8.01156 20.2579 8.14875 20.2393C8.28594 20.2206 8.42562 20.2395 8.55291 20.294L8.57091 20.301C8.69903 20.3526 8.81078 20.438 8.89424 20.548C8.97771 20.6581 9.02978 20.7887 9.04491 20.926L9.29191 23.349C9.30998 23.5261 9.3931 23.6902 9.52518 23.8095C9.65725 23.9288 9.8289 23.9949 10.0069 23.995H13.9919C14.1699 23.9949 14.3416 23.9288 14.4736 23.8095C14.6057 23.6902 14.6888 23.5261 14.7069 23.349L14.9539 20.926C14.9691 20.7886 15.0213 20.6579 15.105 20.5478C15.1886 20.4378 15.3006 20.3525 15.4289 20.301L15.4459 20.294C15.5732 20.2395 15.7129 20.2206 15.8501 20.2393C15.9873 20.2579 16.1168 20.3135 16.2249 20.4L18.1129 21.938C18.2509 22.0503 18.4256 22.1075 18.6033 22.0984C18.781 22.0894 18.949 22.0147 19.0749 21.889L21.8929 19.072C22.0187 18.9461 22.0933 18.7781 22.1023 18.6004C22.1114 18.4227 22.0542 18.248 21.9419 18.11L20.3999 16.225C20.3135 16.1166 20.2581 15.9869 20.2396 15.8495C20.2211 15.7122 20.2402 15.5723 20.2949 15.445L20.3019 15.428C20.3535 15.2999 20.4389 15.1881 20.5489 15.1047C20.659 15.0212 20.7896 14.9691 20.9269 14.954L23.3499 14.706C23.5271 14.6881 23.6913 14.6051 23.8107 14.473C23.93 14.3408 23.9961 14.1691 23.9959 13.991V10.007C23.9961 9.82893 23.93 9.65716 23.8107 9.52504C23.6913 9.39291 23.5271 9.30986 23.3499 9.292H23.3529ZM22.5609 13.342L20.7839 13.523C20.3884 13.5644 20.0114 13.7123 19.6933 13.9509C19.3751 14.1895 19.1275 14.5099 18.9769 14.878L18.9709 14.893C18.8166 15.26 18.7648 15.662 18.821 16.0561C18.8771 16.4502 19.0392 16.8217 19.2899 17.131L20.4179 18.516L18.5179 20.416L17.1329 19.288C16.8241 19.0384 16.4534 18.877 16.0603 18.8211C15.6671 18.7651 15.2662 18.8165 14.8999 18.97L14.8839 18.977C14.5156 19.1274 14.195 19.3749 13.9562 19.6931C13.7175 20.0113 13.5694 20.3883 13.5279 20.784L13.3459 22.561H10.6559L10.4739 20.784C10.4326 20.3886 10.2848 20.0117 10.0464 19.6935C9.808 19.3754 9.48782 19.1277 9.11991 18.977L9.09991 18.97C8.73291 18.8157 8.33093 18.7639 7.9368 18.8201C7.54267 18.8762 7.17117 19.0383 6.86191 19.289L5.48091 20.417L3.58091 18.517L4.70991 17.133C4.95967 16.8242 5.12121 16.4536 5.17737 16.0605C5.23353 15.6674 5.18223 15.2663 5.02891 14.9L5.02291 14.884C4.87246 14.5157 4.62496 14.1951 4.30676 13.9563C3.98856 13.7176 3.61156 13.5695 3.21591 13.528L1.43891 13.347V10.656L3.21591 10.475C3.61139 10.4333 3.98817 10.2852 4.30618 10.0464C4.62419 9.80765 4.87154 9.48715 5.02191 9.119L5.02791 9.1C5.18156 8.73362 5.23313 8.33246 5.17714 7.93912C5.12115 7.54579 4.95969 7.17496 4.70991 6.866L3.58191 5.481L5.48191 3.581L6.86591 4.709C7.17477 4.95895 7.54555 5.12059 7.93889 5.17676C8.33223 5.23292 8.73343 5.18152 9.09991 5.028L9.11491 5.022C9.48319 4.87155 9.80379 4.62405 10.0426 4.30585C10.2814 3.98765 10.4294 3.61066 10.4709 3.215L10.6529 1.438H13.3389L13.5209 3.215C13.5627 3.61099 13.7112 3.98821 13.9505 4.30644C14.1898 4.62467 14.5111 4.87198 14.8799 5.022L14.8949 5.028C15.2619 5.1823 15.6639 5.23412 16.058 5.17794C16.4521 5.12176 16.8236 4.95969 17.1329 4.709L18.5179 3.581L20.4179 5.481L18.6999 7.588C18.6093 7.69884 18.5539 7.83418 18.5407 7.9767C18.5276 8.11922 18.5572 8.26243 18.6259 8.388C18.8825 8.85803 19.088 9.3542 19.2389 9.868C19.2793 10.005 19.3595 10.1268 19.4694 10.218C19.5793 10.3092 19.7138 10.3656 19.8559 10.38L22.5559 10.656L22.5609 13.342Z" fill="#042b62"/>
<path d="M14.9951 8.43416L10.8831 12.5462L9.00412 10.6671C8.73718 10.4002 8.37513 10.2502 7.99762 10.2502C7.62011 10.2502 7.25806 10.4002 6.99112 10.6671C6.72418 10.9341 6.57422 11.2961 6.57422 11.6736C6.57422 12.0512 6.72418 12.4132 6.99112 12.6801L9.87712 15.5652C10.0093 15.6974 10.1662 15.8023 10.3389 15.8738C10.5116 15.9454 10.6967 15.9822 10.8836 15.9822C11.0706 15.9822 11.2557 15.9454 11.4284 15.8738C11.6011 15.8023 11.758 15.6974 11.8901 15.5652L17.0091 10.4462C17.2761 10.1793 17.4261 9.81742 17.4262 9.44C17.4263 9.06259 17.2764 8.7006 17.0096 8.43365C16.7428 8.16671 16.3809 8.0167 16.0035 8.0166C15.6261 8.01651 15.2641 8.16634 14.9971 8.43315L14.9951 8.43416Z" fill="#042b62"/>
</g>
<defs>
<clipPath id="clip0_113_26">
<rect width="23.998" height="23.998" fill="white"/>
</clipPath>
</defs>
</svg>
