<?xml version="1.0" encoding="UTF-8"?>
<svg width="64" height="64" id="Layer_1" xmlns="http://www.w3.org/2000/svg" viewBox="0 0 1080 1080">
  <defs>
    <style>
      .cls-1 {
        fill: #042b62;
      }
    </style>
  </defs>
  <path class="cls-1" d="M529.65,104.91c-240.07,0-434.69,194.62-434.69,434.68s194.62,434.69,434.69,434.69,434.68-194.62,434.68-434.69S769.71,104.91,529.65,104.91ZM671.34,560.12c-2.91,3.75-6.4,6.78-10.24,9.09l-197.1,160.03c-16.01,12.99-39.53,10.55-52.52-5.46-5.62-6.92-8.35-15.24-8.35-23.51,0-10.86,4.71-21.63,13.8-29.01l164.66-133.69-165.7-128.99c-16.27-12.67-19.2-36.13-6.53-52.4,7.36-9.46,18.37-14.4,29.49-14.4,8.02,0,16.1,2.57,22.91,7.87l203.05,158.07c16.27,12.67,19.19,36.13,6.53,52.4Z"/>
</svg>