<svg width="110" height="107" viewBox="0 0 110 107" fill="none" xmlns="http://www.w3.org/2000/svg">
<path d="M81.335 51.4669C81.335 51.4641 81.3294 51.4558 81.3322 51.4558C81.335 51.453 81.335 51.4586 81.335 51.4669Z" fill="#005478"/>
<path d="M16.4875 25.9284L11.9342 30.9609L28.9782 50.7902L45.9876 31.2325L71.4991 62.7244C71.4991 62.7244 81.2366 51.8579 81.3351 51.4665C81.431 51.9697 110.777 103.538 109.983 104.766H100.949L80.3659 64.4791L71.6642 74.5362L45.6628 42.2482L29.0635 62.0827L7.71651 35.5381L3.11269 39.7559L-2.28882e-05 21.6255L16.4875 25.9284Z" fill="#005478"/>
<path opacity="0.7" d="M16.4875 25.9284L11.9342 30.9609L28.9782 50.7902L45.9876 31.2325L71.4991 62.7244C71.4991 62.7244 81.2366 51.8579 81.3351 51.4665C81.431 51.9697 110.777 103.538 109.983 104.766H100.949L80.3659 64.4791L71.6642 74.5362L45.6628 42.2482L29.0635 62.0827L7.71651 35.5381L3.11269 39.7559L-2.28882e-05 21.6255L16.4875 25.9284Z" fill="white"/>
<path d="M24.5603 92.5787H81.3452C82.3384 92.5787 83.1426 91.7745 83.1426 90.7813V6.06454C83.1426 5.07135 82.3384 4.26721 81.3452 4.26721H24.5603C23.5671 4.26721 22.763 5.07135 22.763 6.06454V90.7813C22.763 91.7745 23.5671 92.5787 24.5603 92.5787Z" fill="#005478"/>
<path opacity="0.5" d="M24.5603 92.5787H81.3452C82.3384 92.5787 83.1426 91.7745 83.1426 90.7813V6.06454C83.1426 5.07135 82.3384 4.26721 81.3452 4.26721H24.5603C23.5671 4.26721 22.763 5.07135 22.763 6.06454V90.7813C22.763 91.7745 23.5671 92.5787 24.5603 92.5787Z" fill="white"/>
<path d="M78.4191 6.677H81.0791V90.334L25.25 90.808L23.7083 88.8882L25.0583 9.9761L78.4191 6.677Z" fill="#EBEBEB"/>
<path d="M23.7083 88.8882H78.909V6.677H81.0791V90.808H25.25L23.7083 88.8882Z" fill="#E0E0E0"/>
<path opacity="0.2" d="M81.0791 90.808L78.909 88.8882H23.7083L25.25 90.808H81.0791Z" fill="black"/>
<path d="M18.9532 86.1909H73.4988C78.8136 72.9679 79.7535 39.3272 78.9121 6.67969H24.7552C25.1946 39.3085 24.1268 68.609 18.9532 86.1909Z" fill="white" stroke="#263238" stroke-width="0.266271" stroke-miterlimit="10"/>
<path opacity="0.2" d="M25.2634 78.7035H69.4111V82.7002H25.2634V78.7035Z" fill="black"/>
<path opacity="0.2" d="M63.75 13.1343H75.5059V25.8061H63.75V13.1343Z" fill="black"/>
<path d="M65.4943 76.9355C65.4943 76.9355 68.9638 60.7941 69.4111 53.1868H64.0378C63.4067 60.8554 61.9422 68.753 60.0091 76.7837L65.4943 76.9355Z" fill="#005478"/>
<path d="M57.9797 76.9354C57.9797 76.9354 60.4055 65.3127 60.8555 57.0183H55.4821C54.8511 65.3766 54.4304 68.0153 52.4946 76.7703L57.9797 76.9354Z" fill="#005478"/>
<path d="M35.4983 76.9356C35.4983 76.9356 37.924 65.3129 38.374 57.0186H33.0007C32.3696 65.3768 31.9489 68.0155 30.0131 76.7705L35.4983 76.9356Z" fill="#005478"/>
<path d="M50.2291 76.9353C50.2291 76.9353 51.4806 71.6658 52.4951 63.0679H47.1218C46.4907 71.4261 44.744 76.7728 44.744 76.7728L50.2291 76.9353Z" fill="#005478"/>
<path d="M42.4354 76.9356C42.4354 76.9356 43.1889 75.5749 44.2061 66.9771H38.8327C38.2016 75.3353 36.9502 76.7705 36.9502 76.7705L42.4354 76.9356Z" fill="#005478"/>
<path d="M72.4092 51.938C72.4065 52.6968 72.3293 53.4637 72.276 54.2199C72.1615 55.9027 72.0284 57.5829 71.874 59.2631C71.4879 63.5048 71.0299 67.7624 70.2124 71.9456C69.869 73.7003 69.4935 75.5109 68.7453 77.1458C68.716 77.2071 68.6388 77.2443 68.5722 77.2443C67.2355 77.2364 65.9015 77.2257 64.5648 77.2177C61.3696 77.1964 58.1743 77.1751 54.9817 77.1538C51.1181 77.1272 47.2546 77.1006 43.3936 77.0739C40.0466 77.05 36.6996 77.0287 33.3499 77.0047C32.2528 76.9967 31.1585 76.9887 30.0614 76.9834C29.5422 76.9807 29.015 77.0047 28.4958 76.9728C28.4718 76.9701 28.4478 76.9728 28.4265 76.9728C28.1709 76.9701 28.1682 76.5707 28.4265 76.5733C29.7632 76.5813 31.0972 76.592 32.4339 76.6C35.6292 76.6213 38.8244 76.6426 42.017 76.6639C45.8806 76.6905 49.7442 76.7171 53.6051 76.7438C56.9521 76.7677 60.2992 76.789 63.6489 76.813C64.7459 76.821 65.8403 76.829 66.9373 76.8343C67.2781 76.837 67.6216 76.8396 67.9625 76.8423C68.1329 76.8423 68.3352 76.8157 68.503 76.8449C68.5243 76.8503 68.5509 76.8449 68.5722 76.8449C68.5136 76.8769 68.4577 76.9115 68.3991 76.9435C69.0488 75.5296 69.3897 73.9612 69.7039 72.4461C70.1272 70.4012 70.4388 68.3349 70.7104 66.266C71.2136 62.4104 71.5731 58.5308 71.8447 54.6512C71.9086 53.7513 72.0044 52.8406 72.0071 51.938C72.0098 51.6823 72.4092 51.6797 72.4092 51.938Z" fill="#263238"/>
<path opacity="0.2" d="M54.3399 13.2488H62.3174V14.7452H54.3399V13.2488Z" fill="black"/>
<path opacity="0.2" d="M59.4656 15.725H62.3174V18.5767H59.4656V15.725Z" fill="black"/>
<path d="M51.3014 30.1358H39.9582C39.9582 36.3586 45.0786 41.479 51.3014 41.479C57.5241 41.479 62.6445 36.3586 62.6445 30.1358C62.6445 25.6012 59.9232 21.482 55.7534 19.7007L51.3014 30.1358Z" fill="#005478"/>
<path d="M50.7479 28.5061L55.0615 18.0123C53.6929 17.4505 52.2284 17.1603 50.7479 17.1603C47.8722 17.1603 45.1003 18.2547 42.9968 20.2197L50.7479 28.5061Z" fill="#005478"/>
<path opacity="0.2" d="M50.7479 28.5061L55.0615 18.0123C53.6929 17.4505 52.2284 17.1603 50.7479 17.1603C47.8722 17.1603 45.1003 18.2547 42.9968 20.2197L50.7479 28.5061Z" fill="black"/>
<path d="M49.6455 29.1319L41.5429 21.1917C40.5577 22.1955 39.7695 23.3751 39.2157 24.6691C38.6618 25.9632 38.353 27.3478 38.3077 28.7564L49.6455 29.1319Z" fill="#005478"/>
<path opacity="0.3" d="M49.6455 29.1319L41.5429 21.1917C40.5577 22.1955 39.7695 23.3751 39.2157 24.6691C38.6618 25.9632 38.353 27.3478 38.3077 28.7564L49.6455 29.1319Z" fill="white"/>
<path d="M38.9979 39.9956C35.8932 39.9956 32.7884 39.9956 29.6837 39.9956C29.5559 39.9956 29.5559 39.7959 29.6837 39.7959C32.7884 39.7959 35.8932 39.7959 38.9979 39.7959C39.1257 39.7959 39.1257 39.9956 38.9979 39.9956Z" fill="#263238"/>
<path d="M38.9305 40.9092C35.8258 40.9092 32.7211 40.9092 29.6163 40.9092C29.4885 40.9092 29.4885 40.7095 29.6163 40.7095C32.7211 40.7095 35.8258 40.7095 38.9305 40.7095C39.0583 40.7095 39.0583 40.9092 38.9305 40.9092Z" fill="#263238"/>
<path d="M38.9305 41.8223C37.3995 41.8223 35.8684 41.8223 34.34 41.8223C34.2122 41.8223 34.2122 41.6226 34.34 41.6226C35.8711 41.6226 37.4021 41.6226 38.9305 41.6226C39.0583 41.6226 39.0583 41.8223 38.9305 41.8223Z" fill="#263238"/>
<path d="M40.409 17.251C37.3043 17.251 34.1995 17.251 31.0948 17.251C30.967 17.251 30.967 17.0513 31.0948 17.0513C34.1995 17.0513 37.3043 17.0513 40.409 17.0513C40.5395 17.0513 40.5395 17.251 40.409 17.251Z" fill="#263238"/>
<path d="M40.409 18.1641C37.3043 18.1641 34.1995 18.1641 31.0948 18.1641C30.967 18.1641 30.967 17.9644 31.0948 17.9644C34.1995 17.9644 37.3043 17.9644 40.409 17.9644C40.5395 17.9644 40.5395 18.1641 40.409 18.1641Z" fill="#263238"/>
<path d="M40.409 19.0776C38.8779 19.0776 37.3469 19.0776 35.8185 19.0776C35.6907 19.0776 35.6907 18.8779 35.8185 18.8779C37.3495 18.8779 38.8806 18.8779 40.409 18.8779C40.5395 18.8779 40.5395 19.0776 40.409 19.0776Z" fill="#263238"/>
<path d="M73.7293 34.6914C70.6246 34.6914 67.5198 34.6914 64.4151 34.6914C64.2873 34.6914 64.2873 34.4917 64.4151 34.4917C67.5198 34.4917 70.6246 34.4917 73.7293 34.4917C73.8598 34.4917 73.8598 34.6914 73.7293 34.6914Z" fill="#263238"/>
<path d="M73.7293 35.6074C70.6246 35.6074 67.5198 35.6074 64.4151 35.6074C64.2873 35.6074 64.2873 35.4077 64.4151 35.4077C67.5198 35.4077 70.6246 35.4077 73.7293 35.4077C73.8598 35.4077 73.8598 35.6074 73.7293 35.6074Z" fill="#263238"/>
<path d="M73.7293 36.521C72.1982 36.521 70.6672 36.521 69.1388 36.521C69.011 36.521 69.011 36.3213 69.1388 36.3213C70.6698 36.3213 72.2009 36.3213 73.7293 36.3213C73.8598 36.3213 73.8598 36.521 73.7293 36.521Z" fill="#263238"/>
<path d="M43.6494 35.7086C42.5391 36.3903 41.4287 37.0746 40.321 37.7562L43.6494 35.7086Z" fill="white"/>
<path d="M43.7001 35.7939C42.5898 36.4755 41.4821 37.1599 40.3718 37.8415C40.2626 37.9081 40.1614 37.7377 40.2706 37.6684C41.3809 36.9868 42.4886 36.3025 43.599 35.6208C43.7081 35.5542 43.8093 35.7273 43.7001 35.7939Z" fill="#263238"/>
<path d="M39.8998 37.7562C39.8998 37.9878 40.0889 38.1769 40.3205 38.1769C40.5522 38.1769 40.7412 37.9878 40.7412 37.7562C40.7412 37.5245 40.5522 37.3354 40.3205 37.3354C40.0889 37.3354 39.8998 37.5245 39.8998 37.7562Z" fill="#263238"/>
<path d="M44.4508 19.5407C43.865 18.9603 43.2792 18.3771 42.6934 17.7967C42.6082 17.7141 42.5257 17.6289 42.4405 17.5464C42.3499 17.4558 42.4911 17.3147 42.5816 17.4052C43.1674 17.9857 43.7532 18.5688 44.339 19.1493C44.4242 19.2319 44.5067 19.3171 44.592 19.3996C44.6825 19.4901 44.5414 19.6313 44.4508 19.5407Z" fill="#263238"/>
<path d="M42.2268 16.9553C41.9978 17.0165 41.8594 17.2402 41.918 17.4559C41.9739 17.6716 42.2055 17.7994 42.4345 17.7381C42.6635 17.6769 42.802 17.4532 42.7434 17.2375C42.6848 17.0219 42.4532 16.894 42.2268 16.9553Z" fill="#263238"/>
<path d="M62.3172 29.8721C64.1625 29.8721 66.0104 29.8721 67.8557 29.8721C68.1166 29.8721 68.3776 29.8721 68.6385 29.8721C68.7663 29.8721 68.7663 30.0718 68.6385 30.0718C66.7933 30.0718 64.9453 30.0718 63.1001 30.0718C62.8391 30.0718 62.5782 30.0718 62.3172 30.0718C62.1894 30.0718 62.1894 29.8721 62.3172 29.8721Z" fill="#263238"/>
<path d="M69.2137 30.1303C69.3282 29.9253 69.2643 29.6697 69.0699 29.5605C68.8755 29.4514 68.6226 29.5286 68.5081 29.7336C68.3936 29.9386 68.4575 30.1943 68.6519 30.3034C68.8462 30.4153 69.0992 30.3354 69.2137 30.1303Z" fill="#263238"/>
<path opacity="0.2" d="M29.8458 45.4834H72.7607V49.797H29.8458V45.4834Z" fill="black"/>
<path opacity="0.2" d="M34.5105 33.4401H37.7324V38.5365H34.5105V33.4401Z" fill="black"/>
<path opacity="0.2" d="M30.4393 35.9243H33.6611V38.587H30.4393V35.9243Z" fill="black"/>
<path opacity="0.2" d="M70.806 38.8347H74.3154V42.3442H70.806V38.8347Z" fill="black"/>
<path opacity="0.2" d="M63.2251 38.8347H69.6289V42.3442H63.2251V38.8347Z" fill="black"/>
<path opacity="0.2" d="M30.8351 27.404C30.5212 26.0804 31.3398 24.7531 32.6634 24.4393C33.9869 24.1254 35.3143 24.944 35.6281 26.2676C35.9419 27.5911 35.1233 28.9185 33.7998 29.2323C32.4762 29.5461 31.1489 28.7275 30.8351 27.404Z" fill="black"/>
<path opacity="0.2" d="M62.6475 4.2644V10.6576L42.765 10.7667L42.797 9.59514L52.3428 3.9502L62.6475 4.2644Z" fill="black"/>
<path d="M41.8226 9.59529H61.4707V4.94087C61.4707 3.82254 60.5627 2.91455 59.4444 2.91455H43.8489C42.7306 2.91455 41.8226 3.82254 41.8226 4.94087V9.59529Z" fill="#263238"/>
<path d="M55.277 3.4418L56.0252 0.853646C56.0811 0.664593 55.948 0.470215 55.7642 0.470215H46.972C46.7829 0.470215 46.6498 0.672582 46.7137 0.864297L47.5924 3.57227C47.6323 3.6921 47.7362 3.77198 47.856 3.76931L55.0187 3.64683C55.1385 3.64683 55.2424 3.56162 55.277 3.4418Z" fill="#263238"/>
<path d="M76.5205 3.01575C71.898 3.01575 67.2729 3.01575 62.6504 3.01575" stroke="#005478" stroke-width="0.199703" stroke-miterlimit="10" stroke-linejoin="round"/>
<path d="M77.3034 3.01575H79.4629" stroke="#005478" stroke-width="0.199703" stroke-miterlimit="10" stroke-linejoin="round"/>
<path d="M54.9528 2.78149C52.4073 2.78149 49.8644 2.78149 47.3188 2.78149C47.0605 2.78149 47.0605 2.38208 47.3188 2.38208C49.8644 2.38208 52.4073 2.38208 54.9528 2.38208C55.2084 2.38208 55.2084 2.78149 54.9528 2.78149Z" fill="black"/>
<path d="M18.0752 26.7353H31.0133C31.9479 26.7353 32.7041 25.9791 32.7041 25.0445V12.1063C32.7041 11.1717 31.9479 10.4155 31.0133 10.4155H18.0752C17.1406 10.4155 16.3844 11.1717 16.3844 12.1063V25.0445C16.3844 25.9791 17.1406 26.7353 18.0752 26.7353Z" fill="#005478"/>
<path opacity="0.8" d="M18.0752 26.7353H31.0133C31.9479 26.7353 32.7041 25.9791 32.7041 25.0445V12.1063C32.7041 11.1717 31.9479 10.4155 31.0133 10.4155H18.0752C17.1406 10.4155 16.3844 11.1717 16.3844 12.1063V25.0445C16.3844 25.9791 17.1406 26.7353 18.0752 26.7353Z" fill="white"/>
<g opacity="0.3">
<path d="M30.2412 12.8495C30.2412 16.6385 30.2412 20.4276 30.2412 24.2166C30.2412 24.2698 30.196 24.3178 30.14 24.3178C26.8756 24.3178 23.6111 24.3178 20.3492 24.3178C19.8806 24.3178 19.4146 24.3178 18.946 24.3178C18.8182 24.3178 18.8182 24.1181 18.946 24.1181C22.2105 24.1181 25.475 24.1181 28.7368 24.1181C29.2054 24.1181 29.6714 24.1181 30.14 24.1181C30.1081 24.15 30.0735 24.1846 30.0389 24.2193C30.0389 20.4302 30.0389 16.6412 30.0389 12.8521C30.0415 12.719 30.2412 12.719 30.2412 12.8495Z" fill="black"/>
</g>
<g opacity="0.3">
<path d="M27.3223 12.7985C27.3223 16.5982 27.3223 20.3953 27.3223 24.1949C27.3223 24.3227 27.1226 24.3227 27.1226 24.1949C27.1226 20.3953 27.1226 16.5982 27.1226 12.7985C27.1226 12.6681 27.3223 12.6681 27.3223 12.7985Z" fill="black"/>
</g>
<g opacity="0.3">
<path d="M24.4443 12.7987C24.4443 16.5983 24.4443 20.3954 24.4443 24.1951C24.4443 24.3229 24.2446 24.3229 24.2446 24.1951C24.2446 20.3954 24.2446 16.5983 24.2446 12.7987C24.2446 12.6682 24.4443 12.6682 24.4443 12.7987Z" fill="black"/>
</g>
<g opacity="0.3">
<path d="M21.5684 12.7987C21.5684 16.5983 21.5684 20.3954 21.5684 24.1951C21.5684 24.3229 21.3687 24.3229 21.3687 24.1951C21.3687 20.3954 21.3687 16.5983 21.3687 12.7987C21.3687 12.6682 21.5684 12.6682 21.5684 12.7987Z" fill="black"/>
</g>
<g opacity="0.3">
<path d="M30.0789 21.4365C26.3991 21.4365 22.7192 21.4365 19.0367 21.4365C18.9089 21.4365 18.9089 21.2368 19.0367 21.2368C22.7166 21.2368 26.3964 21.2368 30.0789 21.2368C30.2068 21.2368 30.2068 21.4365 30.0789 21.4365Z" fill="black"/>
</g>
<g opacity="0.3">
<path d="M30.0789 18.5952C26.3991 18.5952 22.7192 18.5952 19.0367 18.5952C18.9089 18.5952 18.9089 18.3955 19.0367 18.3955C22.7166 18.3955 26.3964 18.3955 30.0789 18.3955C30.2068 18.3955 30.2068 18.5952 30.0789 18.5952Z" fill="black"/>
</g>
<g opacity="0.3">
<path d="M30.0789 15.6103C26.3991 15.6103 22.7192 15.6103 19.0367 15.6103C18.9089 15.6103 18.9089 15.4106 19.0367 15.4106C22.7166 15.4106 26.3964 15.4106 30.0789 15.4106C30.2068 15.4106 30.2068 15.6103 30.0789 15.6103Z" fill="black"/>
</g>
<path d="M29.895 18.3478C29.4876 17.4558 28.9684 16.4866 28.0497 16.0472C27.7355 15.8981 27.3707 15.7836 27.0193 15.8209C26.6225 15.8635 26.3376 16.1457 26.1406 16.4733C25.7172 17.1789 25.5095 18.0496 25.2353 18.8218C24.9237 19.6978 24.3992 21.8626 23.0039 21.3221C22.49 21.1224 22.2077 20.5472 21.9788 20.0839C21.803 19.7298 21.6326 19.3703 21.4888 19.0028C21.1373 18.1108 20.4717 17.2241 19.4279 17.2082C19.3001 17.2055 19.3001 17.0058 19.4279 17.0085C21.5501 17.0404 21.582 19.586 22.6578 20.8135C22.9107 21.1037 23.2542 21.2688 23.6403 21.1463C24.1222 20.9919 24.3965 20.4993 24.5749 20.0626C24.9157 19.2345 25.1847 18.3718 25.4829 17.5304C25.6906 16.9472 25.8876 16.2629 26.3989 15.8662C26.8542 15.5147 27.4453 15.5839 27.9512 15.7836C29.0216 16.207 29.6127 17.2454 30.0681 18.244C30.1213 18.3638 29.9482 18.465 29.895 18.3478Z" fill="#263238"/>
<path d="M21.4675 19.1998C21.141 19.1998 20.8763 18.9352 20.8763 18.6087C20.8763 18.2822 21.141 18.0176 21.4675 18.0176C21.7939 18.0176 22.0586 18.2822 22.0586 18.6087C22.0586 18.9352 21.7939 19.1998 21.4675 19.1998Z" fill="#005478"/>
<path d="M23.0678 21.3354C23.0678 21.6629 23.334 21.9265 23.6589 21.9265C23.9864 21.9265 24.25 21.6629 24.25 21.3354C24.25 21.0079 23.9864 20.7443 23.6589 20.7443C23.334 20.7443 23.0678 21.0079 23.0678 21.3354Z" fill="#005478"/>
<path d="M27.0827 16.2256C26.7562 16.2256 26.4916 15.9609 26.4916 15.6345C26.4916 15.308 26.7562 15.0433 27.0827 15.0433C27.4092 15.0433 27.6738 15.308 27.6738 15.6345C27.6738 15.9609 27.4092 16.2256 27.0827 16.2256Z" fill="#005478"/>
<path d="M87.8911 33.006H103.25C104.184 33.006 104.94 32.2498 104.94 31.3152V15.9567C104.94 15.0221 104.184 14.2659 103.25 14.2659H87.8911C86.9565 14.2659 86.2003 15.0221 86.2003 15.9567V31.3152C86.2003 32.2498 86.9565 33.006 87.8911 33.006Z" fill="#005478"/>
<path opacity="0.7" d="M87.8911 33.006H103.25C104.184 33.006 104.94 32.2498 104.94 31.3152V15.9567C104.94 15.0221 104.184 14.2659 103.25 14.2659H87.8911C86.9565 14.2659 86.2003 15.0221 86.2003 15.9567V31.3152C86.2003 32.2498 86.9565 33.006 87.8911 33.006Z" fill="white"/>
<path d="M95.2557 17.3147C98.7678 17.3147 101.614 20.1611 101.614 23.6733C101.614 27.1854 98.7678 30.0318 95.2557 30.0318C91.7436 30.0318 88.8972 27.1854 88.8972 23.6733C88.8972 20.1638 91.7436 17.3147 95.2557 17.3147ZM95.2557 27.4916C97.29 27.4916 98.9382 25.8434 98.9382 23.809C98.9382 21.7747 97.29 20.1265 95.2557 20.1265C93.2214 20.1265 91.5732 21.7747 91.5732 23.809C91.5732 25.8407 93.2214 27.4916 95.2557 27.4916Z" fill="#005478"/>
<path opacity="0.3" d="M94.4248 17.3708L94.9707 20.1374C93.1334 20.2785 91.6743 21.767 91.5784 23.6176C90.8701 23.4338 89.8556 23.1489 88.9477 22.888C89.2991 20.0229 91.5624 17.7463 94.4248 17.3708Z" fill="white"/>
<path d="M95.2556 17.3147C97.6201 17.3147 99.681 18.6061 100.775 20.5179L98.4668 22.0091C97.8358 20.8854 96.6349 20.1265 95.2556 20.1265C95.1597 20.1265 95.0665 20.1318 94.9733 20.1372H94.9707L94.4248 17.3706C94.6964 17.336 94.9733 17.3147 95.2556 17.3147Z" fill="white"/>
<path d="M101.614 23.6733C101.614 23.7851 101.612 23.8969 101.606 24.0088C100.704 24.0088 99.5453 24.0194 98.9302 24.0274C98.9356 23.9555 98.9382 23.881 98.9382 23.8091C98.9382 23.1567 98.7678 22.5416 98.4696 22.0117L100.778 20.5206C101.308 21.4499 101.614 22.5257 101.614 23.6733Z" fill="#263238"/>
<path d="M72.2046 95.7207H89.7705V98.7775H72.2046V95.7207Z" fill="#005478"/>
<g opacity="0.3">
<path d="M88.333 95.8859C88.333 96.7992 88.333 97.7125 88.333 98.6258C88.333 98.7536 88.1333 98.7536 88.1333 98.6258C88.1333 97.7125 88.1333 96.7992 88.1333 95.8859C88.1333 95.7581 88.333 95.7581 88.333 95.8859Z" fill="#263238"/>
</g>
<g opacity="0.3">
<path d="M86.8818 95.8859C86.8818 96.7992 86.8818 97.7125 86.8818 98.6258C86.8818 98.7536 86.6821 98.7536 86.6821 98.6258C86.6821 97.7125 86.6821 96.7992 86.6821 95.8859C86.6821 95.7581 86.8818 95.7581 86.8818 95.8859Z" fill="#263238"/>
</g>
<g opacity="0.3">
<path d="M85.4521 95.8859C85.4521 96.7992 85.4521 97.7125 85.4521 98.6258C85.4521 98.7536 85.2524 98.7536 85.2524 98.6258C85.2524 97.7125 85.2524 96.7992 85.2524 95.8859C85.2524 95.7581 85.4521 95.7581 85.4521 95.8859Z" fill="#263238"/>
</g>
<g opacity="0.3">
<path d="M84.0195 95.8859C84.0195 96.7992 84.0195 97.7125 84.0195 98.6258C84.0195 98.7536 83.8198 98.7536 83.8198 98.6258C83.8198 97.7125 83.8198 96.7992 83.8198 95.8859C83.8198 95.7581 84.0195 95.7581 84.0195 95.8859Z" fill="#263238"/>
</g>
<g opacity="0.3">
<path d="M82.5898 95.8859C82.5898 96.7992 82.5898 97.7125 82.5898 98.6258C82.5898 98.7536 82.3901 98.7536 82.3901 98.6258C82.3901 97.7125 82.3901 96.7992 82.3901 95.8859C82.3901 95.7581 82.5898 95.7581 82.5898 95.8859Z" fill="#263238"/>
</g>
<g opacity="0.3">
<path d="M81.1592 95.8859C81.1592 96.7992 81.1592 97.7125 81.1592 98.6258C81.1592 98.7536 80.9595 98.7536 80.9595 98.6258C80.9595 97.7125 80.9595 96.7992 80.9595 95.8859C80.9595 95.7581 81.1592 95.7581 81.1592 95.8859Z" fill="#263238"/>
</g>
<g opacity="0.3">
<path d="M79.7295 95.8859C79.7295 96.7992 79.7295 97.7125 79.7295 98.6258C79.7295 98.7536 79.5298 98.7536 79.5298 98.6258C79.5298 97.7125 79.5298 96.7992 79.5298 95.8859C79.5298 95.7581 79.7295 95.7581 79.7295 95.8859Z" fill="#263238"/>
</g>
<g opacity="0.3">
<path d="M78.2969 95.8859C78.2969 96.7992 78.2969 97.7125 78.2969 98.6258C78.2969 98.7536 78.0972 98.7536 78.0972 98.6258C78.0972 97.7125 78.0972 96.7992 78.0972 95.8859C78.0972 95.7581 78.2969 95.7581 78.2969 95.8859Z" fill="#263238"/>
</g>
<g opacity="0.3">
<path d="M76.8672 95.8859C76.8672 96.7992 76.8672 97.7125 76.8672 98.6258C76.8672 98.7536 76.6675 98.7536 76.6675 98.6258C76.6675 97.7125 76.6675 96.7992 76.6675 95.8859C76.6675 95.7581 76.8672 95.7581 76.8672 95.8859Z" fill="#263238"/>
</g>
<g opacity="0.3">
<path d="M75.4375 95.8859C75.4375 96.7992 75.4375 97.7125 75.4375 98.6258C75.4375 98.7536 75.2378 98.7536 75.2378 98.6258C75.2378 97.7125 75.2378 96.7992 75.2378 95.8859C75.2378 95.7581 75.4375 95.7581 75.4375 95.8859Z" fill="#263238"/>
</g>
<g opacity="0.3">
<path d="M74.0078 95.8859C74.0078 96.7992 74.0078 97.7125 74.0078 98.6258C74.0078 98.7536 73.8081 98.7536 73.8081 98.6258C73.8081 97.7125 73.8081 96.7992 73.8081 95.8859C73.8081 95.7581 74.0078 95.7581 74.0078 95.8859Z" fill="#263238"/>
</g>
<path d="M72.4683 101.664H90.0342V104.721H72.4683V101.664Z" fill="#005478"/>
<path d="M71.1236 98.687H88.6895V101.744H71.1236V98.687Z" fill="#005478"/>
<path opacity="0.2" d="M71.1236 98.687H88.6895V101.744H71.1236V98.687Z" fill="black"/>
<g opacity="0.3">
<path d="M87.1719 98.8469C87.1719 99.7602 87.1719 100.673 87.1719 101.587C87.1719 101.715 86.9722 101.715 86.9722 101.587C86.9722 100.673 86.9722 99.7602 86.9722 98.8469C86.9722 98.7164 87.1719 98.7164 87.1719 98.8469Z" fill="#263238"/>
</g>
<g opacity="0.3">
<path d="M85.7178 98.8469C85.7178 99.7602 85.7178 100.673 85.7178 101.587C85.7178 101.715 85.5181 101.715 85.5181 101.587C85.5181 100.673 85.5181 99.7602 85.5181 98.8469C85.5181 98.7164 85.7178 98.7164 85.7178 98.8469Z" fill="#263238"/>
</g>
<g opacity="0.3">
<path d="M84.2881 98.8469C84.2881 99.7602 84.2881 100.673 84.2881 101.587C84.2881 101.715 84.0884 101.715 84.0884 101.587C84.0884 100.673 84.0884 99.7602 84.0884 98.8469C84.0884 98.7164 84.2881 98.7164 84.2881 98.8469Z" fill="#263238"/>
</g>
<g opacity="0.3">
<path d="M82.8584 98.8469C82.8584 99.7602 82.8584 100.673 82.8584 101.587C82.8584 101.715 82.6587 101.715 82.6587 101.587C82.6587 100.673 82.6587 99.7602 82.6587 98.8469C82.6587 98.7164 82.8584 98.7164 82.8584 98.8469Z" fill="#263238"/>
</g>
<g opacity="0.3">
<path d="M81.4287 98.8469C81.4287 99.7602 81.4287 100.673 81.4287 101.587C81.4287 101.715 81.229 101.715 81.229 101.587C81.229 100.673 81.229 99.7602 81.229 98.8469C81.229 98.7164 81.4287 98.7164 81.4287 98.8469Z" fill="#263238"/>
</g>
<g opacity="0.3">
<path d="M79.9961 98.8469C79.9961 99.7602 79.9961 100.673 79.9961 101.587C79.9961 101.715 79.7964 101.715 79.7964 101.587C79.7964 100.673 79.7964 99.7602 79.7964 98.8469C79.7964 98.7164 79.9961 98.7164 79.9961 98.8469Z" fill="#263238"/>
</g>
<g opacity="0.3">
<path d="M78.5654 98.8469C78.5654 99.7602 78.5654 100.673 78.5654 101.587C78.5654 101.715 78.3657 101.715 78.3657 101.587C78.3657 100.673 78.3657 99.7602 78.3657 98.8469C78.3657 98.7164 78.5654 98.7164 78.5654 98.8469Z" fill="#263238"/>
</g>
<g opacity="0.3">
<path d="M77.1357 98.8469C77.1357 99.7602 77.1357 100.673 77.1357 101.587C77.1357 101.715 76.936 101.715 76.936 101.587C76.936 100.673 76.936 99.7602 76.936 98.8469C76.936 98.7164 77.1357 98.7164 77.1357 98.8469Z" fill="#263238"/>
</g>
<g opacity="0.3">
<path d="M75.7031 98.8469C75.7031 99.7602 75.7031 100.673 75.7031 101.587C75.7031 101.715 75.5034 101.715 75.5034 101.587C75.5034 100.673 75.5034 99.7602 75.5034 98.8469C75.5034 98.7164 75.7031 98.7164 75.7031 98.8469Z" fill="#263238"/>
</g>
<g opacity="0.3">
<path d="M74.2734 98.8469C74.2734 99.7602 74.2734 100.673 74.2734 101.587C74.2734 101.715 74.0737 101.715 74.0737 101.587C74.0737 100.673 74.0737 99.7602 74.0737 98.8469C74.0737 98.7164 74.2734 98.7164 74.2734 98.8469Z" fill="#263238"/>
</g>
<g opacity="0.3">
<path d="M72.8438 98.8469C72.8438 99.7602 72.8438 100.673 72.8438 101.587C72.8438 101.715 72.644 101.715 72.644 101.587C72.644 100.673 72.644 99.7602 72.644 98.8469C72.644 98.7164 72.8438 98.7164 72.8438 98.8469Z" fill="#263238"/>
</g>
<path d="M71.1236 92.6187H88.6895V95.6754H71.1236V92.6187Z" fill="#005478"/>
<path opacity="0.2" d="M71.1236 92.6187H88.6895V95.6754H71.1236V92.6187Z" fill="black"/>
<g opacity="0.3">
<path d="M87.1719 92.7755C87.1719 93.6889 87.1719 94.6022 87.1719 95.5155C87.1719 95.6433 86.9722 95.6433 86.9722 95.5155C86.9722 94.6022 86.9722 93.6889 86.9722 92.7755C86.9722 92.6477 87.1719 92.6477 87.1719 92.7755Z" fill="#263238"/>
</g>
<g opacity="0.3">
<path d="M85.7178 92.7755C85.7178 93.6889 85.7178 94.6022 85.7178 95.5155C85.7178 95.6433 85.5181 95.6433 85.5181 95.5155C85.5181 94.6022 85.5181 93.6889 85.5181 92.7755C85.5181 92.6477 85.7178 92.6477 85.7178 92.7755Z" fill="#263238"/>
</g>
<g opacity="0.3">
<path d="M84.2881 92.7755C84.2881 93.6889 84.2881 94.6022 84.2881 95.5155C84.2881 95.6433 84.0884 95.6433 84.0884 95.5155C84.0884 94.6022 84.0884 93.6889 84.0884 92.7755C84.0884 92.6477 84.2881 92.6477 84.2881 92.7755Z" fill="#263238"/>
</g>
<g opacity="0.3">
<path d="M82.8584 92.7755C82.8584 93.6889 82.8584 94.6022 82.8584 95.5155C82.8584 95.6433 82.6587 95.6433 82.6587 95.5155C82.6587 94.6022 82.6587 93.6889 82.6587 92.7755C82.6587 92.6477 82.8584 92.6477 82.8584 92.7755Z" fill="#263238"/>
</g>
<g opacity="0.3">
<path d="M81.4287 92.7755C81.4287 93.6889 81.4287 94.6022 81.4287 95.5155C81.4287 95.6433 81.229 95.6433 81.229 95.5155C81.229 94.6022 81.229 93.6889 81.229 92.7755C81.229 92.6477 81.4287 92.6477 81.4287 92.7755Z" fill="#263238"/>
</g>
<g opacity="0.3">
<path d="M79.9961 92.7755C79.9961 93.6889 79.9961 94.6022 79.9961 95.5155C79.9961 95.6433 79.7964 95.6433 79.7964 95.5155C79.7964 94.6022 79.7964 93.6889 79.7964 92.7755C79.7964 92.6477 79.9961 92.6477 79.9961 92.7755Z" fill="#263238"/>
</g>
<g opacity="0.3">
<path d="M78.5654 92.7755C78.5654 93.6889 78.5654 94.6022 78.5654 95.5155C78.5654 95.6433 78.3657 95.6433 78.3657 95.5155C78.3657 94.6022 78.3657 93.6889 78.3657 92.7755C78.3657 92.6477 78.5654 92.6477 78.5654 92.7755Z" fill="#263238"/>
</g>
<g opacity="0.3">
<path d="M77.1357 92.7755C77.1357 93.6889 77.1357 94.6022 77.1357 95.5155C77.1357 95.6433 76.936 95.6433 76.936 95.5155C76.936 94.6022 76.936 93.6889 76.936 92.7755C76.936 92.6477 77.1357 92.6477 77.1357 92.7755Z" fill="#263238"/>
</g>
<g opacity="0.3">
<path d="M75.7031 92.7755C75.7031 93.6889 75.7031 94.6022 75.7031 95.5155C75.7031 95.6433 75.5034 95.6433 75.5034 95.5155C75.5034 94.6022 75.5034 93.6889 75.5034 92.7755C75.5034 92.6477 75.7031 92.6477 75.7031 92.7755Z" fill="#263238"/>
</g>
<g opacity="0.3">
<path d="M74.2734 92.7755C74.2734 93.6889 74.2734 94.6022 74.2734 95.5155C74.2734 95.6433 74.0737 95.6433 74.0737 95.5155C74.0737 94.6022 74.0737 93.6889 74.0737 92.7755C74.0737 92.6477 74.2734 92.6477 74.2734 92.7755Z" fill="#263238"/>
</g>
<g opacity="0.3">
<path d="M72.8438 92.7755C72.8438 93.6889 72.8438 94.6022 72.8438 95.5155C72.8438 95.6433 72.644 95.6433 72.644 95.5155C72.644 94.6022 72.644 93.6889 72.644 92.7755C72.644 92.6477 72.8438 92.6477 72.8438 92.7755Z" fill="#263238"/>
</g>
<g opacity="0.3">
<path d="M88.7402 101.877C88.7402 102.79 88.7402 103.703 88.7402 104.617C88.7402 104.744 88.5405 104.744 88.5405 104.617C88.5405 103.703 88.5405 102.79 88.5405 101.877C88.5405 101.749 88.7402 101.749 88.7402 101.877Z" fill="#263238"/>
</g>
<g opacity="0.3">
<path d="M87.2891 101.877C87.2891 102.79 87.2891 103.703 87.2891 104.617C87.2891 104.744 87.0894 104.744 87.0894 104.617C87.0894 103.703 87.0894 102.79 87.0894 101.877C87.0894 101.749 87.2891 101.749 87.2891 101.877Z" fill="#263238"/>
</g>
<g opacity="0.3">
<path d="M85.8564 101.877C85.8564 102.79 85.8564 103.703 85.8564 104.617C85.8564 104.744 85.6567 104.744 85.6567 104.617C85.6567 103.703 85.6567 102.79 85.6567 101.877C85.6567 101.749 85.8564 101.749 85.8564 101.877Z" fill="#263238"/>
</g>
<g opacity="0.3">
<path d="M84.4268 101.877C84.4268 102.79 84.4268 103.703 84.4268 104.617C84.4268 104.744 84.2271 104.744 84.2271 104.617C84.2271 103.703 84.2271 102.79 84.2271 101.877C84.2271 101.749 84.4268 101.749 84.4268 101.877Z" fill="#263238"/>
</g>
<g opacity="0.3">
<path d="M82.9961 101.877C82.9961 102.79 82.9961 103.703 82.9961 104.617C82.9961 104.744 82.7964 104.744 82.7964 104.617C82.7964 103.703 82.7964 102.79 82.7964 101.877C82.7964 101.749 82.9961 101.749 82.9961 101.877Z" fill="#263238"/>
</g>
<g opacity="0.3">
<path d="M81.5664 101.877C81.5664 102.79 81.5664 103.703 81.5664 104.617C81.5664 104.744 81.3667 104.744 81.3667 104.617C81.3667 103.703 81.3667 102.79 81.3667 101.877C81.3667 101.749 81.5664 101.749 81.5664 101.877Z" fill="#263238"/>
</g>
<g opacity="0.3">
<path d="M80.1338 101.877C80.1338 102.79 80.1338 103.703 80.1338 104.617C80.1338 104.744 79.9341 104.744 79.9341 104.617C79.9341 103.703 79.9341 102.79 79.9341 101.877C79.9341 101.749 80.1338 101.749 80.1338 101.877Z" fill="#263238"/>
</g>
<g opacity="0.3">
<path d="M78.7041 101.877C78.7041 102.79 78.7041 103.703 78.7041 104.617C78.7041 104.744 78.5044 104.744 78.5044 104.617C78.5044 103.703 78.5044 102.79 78.5044 101.877C78.5044 101.749 78.7041 101.749 78.7041 101.877Z" fill="#263238"/>
</g>
<g opacity="0.3">
<path d="M77.2744 101.877C77.2744 102.79 77.2744 103.703 77.2744 104.617C77.2744 104.744 77.0747 104.744 77.0747 104.617C77.0747 103.703 77.0747 102.79 77.0747 101.877C77.0747 101.749 77.2744 101.749 77.2744 101.877Z" fill="#263238"/>
</g>
<g opacity="0.3">
<path d="M75.8447 101.877C75.8447 102.79 75.8447 103.703 75.8447 104.617C75.8447 104.744 75.645 104.744 75.645 104.617C75.645 103.703 75.645 102.79 75.645 101.877C75.645 101.749 75.8447 101.749 75.8447 101.877Z" fill="#263238"/>
</g>
<g opacity="0.3">
<path d="M74.4121 101.877C74.4121 102.79 74.4121 103.703 74.4121 104.617C74.4121 104.744 74.2124 104.744 74.2124 104.617C74.2124 103.703 74.2124 102.79 74.2124 101.877C74.2124 101.749 74.4121 101.749 74.4121 101.877Z" fill="#263238"/>
</g>
<g opacity="0.3">
<path d="M72.2047 95.7207H89.7706V98.7775H88.6895V101.664H90.0342V104.723H72.4683V101.744H71.1263V98.687H72.2047V95.7207Z" fill="black"/>
</g>
<g opacity="0.2">
<path d="M71.1236 92.6187H88.6895V95.6754H71.1236V92.6187Z" fill="black"/>
</g>
<path d="M83.103 95.7633H100.669V98.8201H83.103V95.7633Z" fill="#005478"/>
<g opacity="0.3">
<path d="M99.2334 95.931C99.2334 96.8443 99.2334 97.7576 99.2334 98.6709C99.2334 98.7987 99.0337 98.7987 99.0337 98.6709C99.0337 97.7576 99.0337 96.8443 99.0337 95.931C99.0337 95.8032 99.2334 95.8005 99.2334 95.931Z" fill="#263238"/>
</g>
<g opacity="0.3">
<path d="M97.7822 95.931C97.7822 96.8443 97.7822 97.7576 97.7822 98.6709C97.7822 98.7987 97.5825 98.7987 97.5825 98.6709C97.5825 97.7576 97.5825 96.8443 97.5825 95.931C97.5825 95.8032 97.7822 95.8005 97.7822 95.931Z" fill="#263238"/>
</g>
<g opacity="0.3">
<path d="M96.3496 95.931C96.3496 96.8443 96.3496 97.7576 96.3496 98.6709C96.3496 98.7987 96.1499 98.7987 96.1499 98.6709C96.1499 97.7576 96.1499 96.8443 96.1499 95.931C96.1499 95.8032 96.3496 95.8005 96.3496 95.931Z" fill="#263238"/>
</g>
<g opacity="0.3">
<path d="M94.9199 95.931C94.9199 96.8443 94.9199 97.7576 94.9199 98.6709C94.9199 98.7987 94.7202 98.7987 94.7202 98.6709C94.7202 97.7576 94.7202 96.8443 94.7202 95.931C94.7202 95.8032 94.9199 95.8005 94.9199 95.931Z" fill="#263238"/>
</g>
<g opacity="0.3">
<path d="M93.4902 95.931C93.4902 96.8443 93.4902 97.7576 93.4902 98.6709C93.4902 98.7987 93.2905 98.7987 93.2905 98.6709C93.2905 97.7576 93.2905 96.8443 93.2905 95.931C93.2905 95.8032 93.4902 95.8005 93.4902 95.931Z" fill="#263238"/>
</g>
<g opacity="0.3">
<path d="M92.0576 95.931C92.0576 96.8443 92.0576 97.7576 92.0576 98.6709C92.0576 98.7987 91.8579 98.7987 91.8579 98.6709C91.8579 97.7576 91.8579 96.8443 91.8579 95.931C91.8579 95.8032 92.0576 95.8005 92.0576 95.931Z" fill="#263238"/>
</g>
<g opacity="0.3">
<path d="M90.6279 95.931C90.6279 96.8443 90.6279 97.7576 90.6279 98.6709C90.6279 98.7987 90.4282 98.7987 90.4282 98.6709C90.4282 97.7576 90.4282 96.8443 90.4282 95.931C90.4282 95.8032 90.6279 95.8005 90.6279 95.931Z" fill="#263238"/>
</g>
<g opacity="0.3">
<path d="M89.1982 95.931C89.1982 96.8443 89.1982 97.7576 89.1982 98.6709C89.1982 98.7987 88.9985 98.7987 88.9985 98.6709C88.9985 97.7576 88.9985 96.8443 88.9985 95.931C88.9985 95.8032 89.1982 95.8005 89.1982 95.931Z" fill="#263238"/>
</g>
<g opacity="0.3">
<path d="M87.7676 95.931C87.7676 96.8443 87.7676 97.7576 87.7676 98.6709C87.7676 98.7987 87.5679 98.7987 87.5679 98.6709C87.5679 97.7576 87.5679 96.8443 87.5679 95.931C87.5679 95.8032 87.7676 95.8005 87.7676 95.931Z" fill="#263238"/>
</g>
<g opacity="0.3">
<path d="M86.335 95.931C86.335 96.8443 86.335 97.7576 86.335 98.6709C86.335 98.7987 86.1353 98.7987 86.1353 98.6709C86.1353 97.7576 86.1353 96.8443 86.1353 95.931C86.1353 95.8032 86.335 95.8005 86.335 95.931Z" fill="#263238"/>
</g>
<g opacity="0.3">
<path d="M84.9053 95.931C84.9053 96.8443 84.9053 97.7576 84.9053 98.6709C84.9053 98.7987 84.7056 98.7987 84.7056 98.6709C84.7056 97.7576 84.7056 96.8443 84.7056 95.931C84.7056 95.8032 84.9053 95.8005 84.9053 95.931Z" fill="#263238"/>
</g>
<path d="M83.3667 101.709H100.933V104.766H83.3667V101.709Z" fill="#005478"/>
<path d="M82.0249 98.7296H99.5908V101.786H82.0249V98.7296Z" fill="#005478"/>
<path opacity="0.2" d="M82.0249 98.7296H99.5908V101.786H82.0249V98.7296Z" fill="black"/>
<g opacity="0.3">
<path d="M98.0703 98.8893C98.0703 99.8026 98.0703 100.716 98.0703 101.629C98.0703 101.757 97.8706 101.757 97.8706 101.629C97.8706 100.716 97.8706 99.8026 97.8706 98.8893C97.8706 98.7615 98.0703 98.7615 98.0703 98.8893Z" fill="#263238"/>
</g>
<g opacity="0.3">
<path d="M96.6191 98.8893C96.6191 99.8026 96.6191 100.716 96.6191 101.629C96.6191 101.757 96.4194 101.757 96.4194 101.629C96.4194 100.716 96.4194 99.8026 96.4194 98.8893C96.4194 98.7615 96.6191 98.7615 96.6191 98.8893Z" fill="#263238"/>
</g>
<g opacity="0.3">
<path d="M95.1895 98.8893C95.1895 99.8026 95.1895 100.716 95.1895 101.629C95.1895 101.757 94.9897 101.757 94.9897 101.629C94.9897 100.716 94.9897 99.8026 94.9897 98.8893C94.9897 98.7615 95.1895 98.7615 95.1895 98.8893Z" fill="#263238"/>
</g>
<g opacity="0.3">
<path d="M93.7568 98.8893C93.7568 99.8026 93.7568 100.716 93.7568 101.629C93.7568 101.757 93.5571 101.757 93.5571 101.629C93.5571 100.716 93.5571 99.8026 93.5571 98.8893C93.5571 98.7615 93.7568 98.7615 93.7568 98.8893Z" fill="#263238"/>
</g>
<g opacity="0.3">
<path d="M92.3271 98.8893C92.3271 99.8026 92.3271 100.716 92.3271 101.629C92.3271 101.757 92.1274 101.757 92.1274 101.629C92.1274 100.716 92.1274 99.8026 92.1274 98.8893C92.1274 98.7615 92.3271 98.7615 92.3271 98.8893Z" fill="#263238"/>
</g>
<g opacity="0.3">
<path d="M90.8975 98.8893C90.8975 99.8026 90.8975 100.716 90.8975 101.629C90.8975 101.757 90.6978 101.757 90.6978 101.629C90.6978 100.716 90.6978 99.8026 90.6978 98.8893C90.6978 98.7615 90.8975 98.7615 90.8975 98.8893Z" fill="#263238"/>
</g>
<g opacity="0.3">
<path d="M89.4668 98.8893C89.4668 99.8026 89.4668 100.716 89.4668 101.629C89.4668 101.757 89.2671 101.757 89.2671 101.629C89.2671 100.716 89.2671 99.8026 89.2671 98.8893C89.2671 98.7615 89.4668 98.7615 89.4668 98.8893Z" fill="#263238"/>
</g>
<g opacity="0.3">
<path d="M88.0342 98.8893C88.0342 99.8026 88.0342 100.716 88.0342 101.629C88.0342 101.757 87.8345 101.757 87.8345 101.629C87.8345 100.716 87.8345 99.8026 87.8345 98.8893C87.8345 98.7615 88.0342 98.7615 88.0342 98.8893Z" fill="#263238"/>
</g>
<g opacity="0.3">
<path d="M86.6045 98.8893C86.6045 99.8026 86.6045 100.716 86.6045 101.629C86.6045 101.757 86.4048 101.757 86.4048 101.629C86.4048 100.716 86.4048 99.8026 86.4048 98.8893C86.4048 98.7615 86.6045 98.7615 86.6045 98.8893Z" fill="#263238"/>
</g>
<g opacity="0.3">
<path d="M85.1748 98.8893C85.1748 99.8026 85.1748 100.716 85.1748 101.629C85.1748 101.757 84.9751 101.757 84.9751 101.629C84.9751 100.716 84.9751 99.8026 84.9751 98.8893C84.9751 98.7615 85.1748 98.7615 85.1748 98.8893Z" fill="#263238"/>
</g>
<g opacity="0.3">
<path d="M83.7451 98.8893C83.7451 99.8026 83.7451 100.716 83.7451 101.629C83.7451 101.757 83.5454 101.757 83.5454 101.629C83.5454 100.716 83.5454 99.8026 83.5454 98.8893C83.5454 98.7615 83.7451 98.7615 83.7451 98.8893Z" fill="#263238"/>
</g>
<path d="M82.0249 92.6613H99.5908V95.718H82.0249V92.6613Z" fill="#005478"/>
<path opacity="0.2" d="M82.0249 92.6613H99.5908V95.718H82.0249V92.6613Z" fill="black"/>
<g opacity="0.3">
<path d="M98.0703 92.821C98.0703 93.7343 98.0703 94.6476 98.0703 95.5609C98.0703 95.6887 97.8706 95.6887 97.8706 95.5609C97.8706 94.6476 97.8706 93.7343 97.8706 92.821C97.8706 92.6931 98.0703 92.6931 98.0703 92.821Z" fill="#263238"/>
</g>
<g opacity="0.3">
<path d="M96.6191 92.821C96.6191 93.7343 96.6191 94.6476 96.6191 95.5609C96.6191 95.6887 96.4194 95.6887 96.4194 95.5609C96.4194 94.6476 96.4194 93.7343 96.4194 92.821C96.4194 92.6931 96.6191 92.6931 96.6191 92.821Z" fill="#263238"/>
</g>
<g opacity="0.3">
<path d="M95.1895 92.821C95.1895 93.7343 95.1895 94.6476 95.1895 95.5609C95.1895 95.6887 94.9897 95.6887 94.9897 95.5609C94.9897 94.6476 94.9897 93.7343 94.9897 92.821C94.9897 92.6931 95.1895 92.6931 95.1895 92.821Z" fill="#263238"/>
</g>
<g opacity="0.3">
<path d="M93.7568 92.821C93.7568 93.7343 93.7568 94.6476 93.7568 95.5609C93.7568 95.6887 93.5571 95.6887 93.5571 95.5609C93.5571 94.6476 93.5571 93.7343 93.5571 92.821C93.5571 92.6931 93.7568 92.6931 93.7568 92.821Z" fill="#263238"/>
</g>
<g opacity="0.3">
<path d="M92.3271 92.821C92.3271 93.7343 92.3271 94.6476 92.3271 95.5609C92.3271 95.6887 92.1274 95.6887 92.1274 95.5609C92.1274 94.6476 92.1274 93.7343 92.1274 92.821C92.1274 92.6931 92.3271 92.6931 92.3271 92.821Z" fill="#263238"/>
</g>
<g opacity="0.3">
<path d="M90.8975 92.821C90.8975 93.7343 90.8975 94.6476 90.8975 95.5609C90.8975 95.6887 90.6978 95.6887 90.6978 95.5609C90.6978 94.6476 90.6978 93.7343 90.6978 92.821C90.6978 92.6931 90.8975 92.6931 90.8975 92.821Z" fill="#263238"/>
</g>
<g opacity="0.3">
<path d="M89.4668 92.821C89.4668 93.7343 89.4668 94.6476 89.4668 95.5609C89.4668 95.6887 89.2671 95.6887 89.2671 95.5609C89.2671 94.6476 89.2671 93.7343 89.2671 92.821C89.2671 92.6931 89.4668 92.6931 89.4668 92.821Z" fill="#263238"/>
</g>
<g opacity="0.3">
<path d="M88.0342 92.821C88.0342 93.7343 88.0342 94.6476 88.0342 95.5609C88.0342 95.6887 87.8345 95.6887 87.8345 95.5609C87.8345 94.6476 87.8345 93.7343 87.8345 92.821C87.8345 92.6931 88.0342 92.6931 88.0342 92.821Z" fill="#263238"/>
</g>
<g opacity="0.3">
<path d="M86.6045 92.821C86.6045 93.7343 86.6045 94.6476 86.6045 95.5609C86.6045 95.6887 86.4048 95.6887 86.4048 95.5609C86.4048 94.6476 86.4048 93.7343 86.4048 92.821C86.4048 92.6931 86.6045 92.6931 86.6045 92.821Z" fill="#263238"/>
</g>
<g opacity="0.3">
<path d="M85.1748 92.821C85.1748 93.7343 85.1748 94.6476 85.1748 95.5609C85.1748 95.6887 84.9751 95.6887 84.9751 95.5609C84.9751 94.6476 84.9751 93.7343 84.9751 92.821C84.9751 92.6931 85.1748 92.6931 85.1748 92.821Z" fill="#263238"/>
</g>
<g opacity="0.3">
<path d="M83.7451 92.821C83.7451 93.7343 83.7451 94.6476 83.7451 95.5609C83.7451 95.6887 83.5454 95.6887 83.5454 95.5609C83.5454 94.6476 83.5454 93.7343 83.5454 92.821C83.5454 92.6931 83.7451 92.6931 83.7451 92.821Z" fill="#263238"/>
</g>
<g opacity="0.3">
<path d="M99.6416 101.922C99.6416 102.835 99.6416 103.749 99.6416 104.662C99.6416 104.79 99.4419 104.79 99.4419 104.662C99.4419 103.749 99.4419 102.835 99.4419 101.922C99.4419 101.794 99.6416 101.794 99.6416 101.922Z" fill="#263238"/>
</g>
<g opacity="0.3">
<path d="M98.1875 101.922C98.1875 102.835 98.1875 103.749 98.1875 104.662C98.1875 104.79 97.9878 104.79 97.9878 104.662C97.9878 103.749 97.9878 102.835 97.9878 101.922C97.9878 101.794 98.1875 101.794 98.1875 101.922Z" fill="#263238"/>
</g>
<g opacity="0.3">
<path d="M96.7578 101.922C96.7578 102.835 96.7578 103.749 96.7578 104.662C96.7578 104.79 96.5581 104.79 96.5581 104.662C96.5581 103.749 96.5581 102.835 96.5581 101.922C96.5581 101.794 96.7578 101.794 96.7578 101.922Z" fill="#263238"/>
</g>
<g opacity="0.3">
<path d="M95.3281 101.922C95.3281 102.835 95.3281 103.749 95.3281 104.662C95.3281 104.79 95.1284 104.79 95.1284 104.662C95.1284 103.749 95.1284 102.835 95.1284 101.922C95.1284 101.794 95.3281 101.794 95.3281 101.922Z" fill="#263238"/>
</g>
<g opacity="0.3">
<path d="M93.8955 101.922C93.8955 102.835 93.8955 103.749 93.8955 104.662C93.8955 104.79 93.6958 104.79 93.6958 104.662C93.6958 103.749 93.6958 102.835 93.6958 101.922C93.6958 101.794 93.8955 101.794 93.8955 101.922Z" fill="#263238"/>
</g>
<g opacity="0.3">
<path d="M92.4658 101.922C92.4658 102.835 92.4658 103.749 92.4658 104.662C92.4658 104.79 92.2661 104.79 92.2661 104.662C92.2661 103.749 92.2661 102.835 92.2661 101.922C92.2661 101.794 92.4658 101.794 92.4658 101.922Z" fill="#263238"/>
</g>
<g opacity="0.3">
<path d="M91.0352 101.922C91.0352 102.835 91.0352 103.749 91.0352 104.662C91.0352 104.79 90.8355 104.79 90.8355 104.662C90.8355 103.749 90.8355 102.835 90.8355 101.922C90.8355 101.794 91.0352 101.794 91.0352 101.922Z" fill="#263238"/>
</g>
<g opacity="0.3">
<path d="M89.6055 101.922C89.6055 102.835 89.6055 103.749 89.6055 104.662C89.6055 104.79 89.4058 104.79 89.4058 104.662C89.4058 103.749 89.4058 102.835 89.4058 101.922C89.4058 101.794 89.6055 101.794 89.6055 101.922Z" fill="#263238"/>
</g>
<g opacity="0.3">
<path d="M88.1729 101.922C88.1729 102.835 88.1729 103.749 88.1729 104.662C88.1729 104.79 87.9731 104.79 87.9731 104.662C87.9731 103.749 87.9731 102.835 87.9731 101.922C87.9731 101.794 88.1729 101.794 88.1729 101.922Z" fill="#263238"/>
</g>
<g opacity="0.3">
<path d="M86.7432 101.922C86.7432 102.835 86.7432 103.749 86.7432 104.662C86.7432 104.79 86.5435 104.79 86.5435 104.662C86.5435 103.749 86.5435 102.835 86.5435 101.922C86.5435 101.794 86.7432 101.794 86.7432 101.922Z" fill="#263238"/>
</g>
<g opacity="0.3">
<path d="M85.3135 101.922C85.3135 102.835 85.3135 103.749 85.3135 104.662C85.3135 104.79 85.1138 104.79 85.1138 104.662C85.1138 103.749 85.1138 102.835 85.1138 101.922C85.1138 101.794 85.3135 101.794 85.3135 101.922Z" fill="#263238"/>
</g>
<path d="M83.103 83.7811H100.669V86.8379H83.103V83.7811Z" fill="#005478"/>
<g opacity="0.3">
<path d="M99.2334 83.9488C99.2334 84.8621 99.2334 85.7754 99.2334 86.6887C99.2334 86.8165 99.0337 86.8165 99.0337 86.6887C99.0337 85.7754 99.0337 84.8621 99.0337 83.9488C99.0337 83.821 99.2334 83.821 99.2334 83.9488Z" fill="#263238"/>
</g>
<g opacity="0.3">
<path d="M97.7822 83.9488C97.7822 84.8621 97.7822 85.7754 97.7822 86.6887C97.7822 86.8165 97.5825 86.8165 97.5825 86.6887C97.5825 85.7754 97.5825 84.8621 97.5825 83.9488C97.5825 83.821 97.7822 83.821 97.7822 83.9488Z" fill="#263238"/>
</g>
<g opacity="0.3">
<path d="M96.3496 83.9488C96.3496 84.8621 96.3496 85.7754 96.3496 86.6887C96.3496 86.8165 96.1499 86.8165 96.1499 86.6887C96.1499 85.7754 96.1499 84.8621 96.1499 83.9488C96.1499 83.821 96.3496 83.821 96.3496 83.9488Z" fill="#263238"/>
</g>
<g opacity="0.3">
<path d="M94.9199 83.9488C94.9199 84.8621 94.9199 85.7754 94.9199 86.6887C94.9199 86.8165 94.7202 86.8165 94.7202 86.6887C94.7202 85.7754 94.7202 84.8621 94.7202 83.9488C94.7202 83.821 94.9199 83.821 94.9199 83.9488Z" fill="#263238"/>
</g>
<g opacity="0.3">
<path d="M93.4902 83.9488C93.4902 84.8621 93.4902 85.7754 93.4902 86.6887C93.4902 86.8165 93.2905 86.8165 93.2905 86.6887C93.2905 85.7754 93.2905 84.8621 93.2905 83.9488C93.2905 83.821 93.4902 83.821 93.4902 83.9488Z" fill="#263238"/>
</g>
<g opacity="0.3">
<path d="M92.0576 83.9488C92.0576 84.8621 92.0576 85.7754 92.0576 86.6887C92.0576 86.8165 91.8579 86.8165 91.8579 86.6887C91.8579 85.7754 91.8579 84.8621 91.8579 83.9488C91.8579 83.821 92.0576 83.821 92.0576 83.9488Z" fill="#263238"/>
</g>
<g opacity="0.3">
<path d="M90.6279 83.9488C90.6279 84.8621 90.6279 85.7754 90.6279 86.6887C90.6279 86.8165 90.4282 86.8165 90.4282 86.6887C90.4282 85.7754 90.4282 84.8621 90.4282 83.9488C90.4282 83.821 90.6279 83.821 90.6279 83.9488Z" fill="#263238"/>
</g>
<g opacity="0.3">
<path d="M89.1982 83.9488C89.1982 84.8621 89.1982 85.7754 89.1982 86.6887C89.1982 86.8165 88.9985 86.8165 88.9985 86.6887C88.9985 85.7754 88.9985 84.8621 88.9985 83.9488C88.9985 83.821 89.1982 83.821 89.1982 83.9488Z" fill="#263238"/>
</g>
<g opacity="0.3">
<path d="M87.7676 83.9488C87.7676 84.8621 87.7676 85.7754 87.7676 86.6887C87.7676 86.8165 87.5679 86.8165 87.5679 86.6887C87.5679 85.7754 87.5679 84.8621 87.5679 83.9488C87.5679 83.821 87.7676 83.821 87.7676 83.9488Z" fill="#263238"/>
</g>
<g opacity="0.3">
<path d="M86.335 83.9488C86.335 84.8621 86.335 85.7754 86.335 86.6887C86.335 86.8165 86.1353 86.8165 86.1353 86.6887C86.1353 85.7754 86.1353 84.8621 86.1353 83.9488C86.1353 83.821 86.335 83.821 86.335 83.9488Z" fill="#263238"/>
</g>
<g opacity="0.3">
<path d="M84.9053 83.9488C84.9053 84.8621 84.9053 85.7754 84.9053 86.6887C84.9053 86.8165 84.7056 86.8165 84.7056 86.6887C84.7056 85.7754 84.7056 84.8621 84.7056 83.9488C84.7056 83.821 84.9053 83.821 84.9053 83.9488Z" fill="#263238"/>
</g>
<path d="M83.3667 89.7269H100.933V92.7837H83.3667V89.7269Z" fill="#005478"/>
<path d="M82.0249 86.7474H99.5908V89.8042H82.0249V86.7474Z" fill="#005478"/>
<path opacity="0.2" d="M82.0249 86.7474H99.5908V89.8042H82.0249V86.7474Z" fill="black"/>
<g opacity="0.3">
<path d="M98.0703 86.9071C98.0703 87.8204 98.0703 88.7338 98.0703 89.6471C98.0703 89.7749 97.8706 89.7749 97.8706 89.6471C97.8706 88.7338 97.8706 87.8204 97.8706 86.9071C97.8706 86.7793 98.0703 86.7793 98.0703 86.9071Z" fill="#263238"/>
</g>
<g opacity="0.3">
<path d="M96.6191 86.9071C96.6191 87.8204 96.6191 88.7338 96.6191 89.6471C96.6191 89.7749 96.4194 89.7749 96.4194 89.6471C96.4194 88.7338 96.4194 87.8204 96.4194 86.9071C96.4194 86.7793 96.6191 86.7793 96.6191 86.9071Z" fill="#263238"/>
</g>
<g opacity="0.3">
<path d="M95.1895 86.9071C95.1895 87.8204 95.1895 88.7338 95.1895 89.6471C95.1895 89.7749 94.9897 89.7749 94.9897 89.6471C94.9897 88.7338 94.9897 87.8204 94.9897 86.9071C94.9897 86.7793 95.1895 86.7793 95.1895 86.9071Z" fill="#263238"/>
</g>
<g opacity="0.3">
<path d="M93.7568 86.9071C93.7568 87.8204 93.7568 88.7338 93.7568 89.6471C93.7568 89.7749 93.5571 89.7749 93.5571 89.6471C93.5571 88.7338 93.5571 87.8204 93.5571 86.9071C93.5571 86.7793 93.7568 86.7793 93.7568 86.9071Z" fill="#263238"/>
</g>
<g opacity="0.3">
<path d="M92.3271 86.9071C92.3271 87.8204 92.3271 88.7338 92.3271 89.6471C92.3271 89.7749 92.1274 89.7749 92.1274 89.6471C92.1274 88.7338 92.1274 87.8204 92.1274 86.9071C92.1274 86.7793 92.3271 86.7793 92.3271 86.9071Z" fill="#263238"/>
</g>
<g opacity="0.3">
<path d="M90.8975 86.9071C90.8975 87.8204 90.8975 88.7338 90.8975 89.6471C90.8975 89.7749 90.6978 89.7749 90.6978 89.6471C90.6978 88.7338 90.6978 87.8204 90.6978 86.9071C90.6978 86.7793 90.8975 86.7793 90.8975 86.9071Z" fill="#263238"/>
</g>
<g opacity="0.3">
<path d="M89.4668 86.9071C89.4668 87.8204 89.4668 88.7338 89.4668 89.6471C89.4668 89.7749 89.2671 89.7749 89.2671 89.6471C89.2671 88.7338 89.2671 87.8204 89.2671 86.9071C89.2671 86.7793 89.4668 86.7793 89.4668 86.9071Z" fill="#263238"/>
</g>
<g opacity="0.3">
<path d="M88.0342 86.9071C88.0342 87.8204 88.0342 88.7338 88.0342 89.6471C88.0342 89.7749 87.8345 89.7749 87.8345 89.6471C87.8345 88.7338 87.8345 87.8204 87.8345 86.9071C87.8345 86.7793 88.0342 86.7793 88.0342 86.9071Z" fill="#263238"/>
</g>
<g opacity="0.3">
<path d="M86.6045 86.9071C86.6045 87.8204 86.6045 88.7338 86.6045 89.6471C86.6045 89.7749 86.4048 89.7749 86.4048 89.6471C86.4048 88.7338 86.4048 87.8204 86.4048 86.9071C86.4048 86.7793 86.6045 86.7793 86.6045 86.9071Z" fill="#263238"/>
</g>
<g opacity="0.3">
<path d="M85.1748 86.9071C85.1748 87.8204 85.1748 88.7338 85.1748 89.6471C85.1748 89.7749 84.9751 89.7749 84.9751 89.6471C84.9751 88.7338 84.9751 87.8204 84.9751 86.9071C84.9751 86.7793 85.1748 86.7793 85.1748 86.9071Z" fill="#263238"/>
</g>
<g opacity="0.3">
<path d="M83.7451 86.9071C83.7451 87.8204 83.7451 88.7338 83.7451 89.6471C83.7451 89.7749 83.5454 89.7749 83.5454 89.6471C83.5454 88.7338 83.5454 87.8204 83.5454 86.9071C83.5454 86.7793 83.7451 86.7793 83.7451 86.9071Z" fill="#263238"/>
</g>
<g opacity="0.3">
<path d="M99.6416 89.94C99.6416 90.8533 99.6416 91.7666 99.6416 92.6799C99.6416 92.8077 99.4419 92.8077 99.4419 92.6799C99.4419 91.7666 99.4419 90.8533 99.4419 89.94C99.4419 89.8122 99.6416 89.8122 99.6416 89.94Z" fill="#263238"/>
</g>
<g opacity="0.3">
<path d="M98.1875 89.94C98.1875 90.8533 98.1875 91.7666 98.1875 92.6799C98.1875 92.8077 97.9878 92.8077 97.9878 92.6799C97.9878 91.7666 97.9878 90.8533 97.9878 89.94C97.9878 89.8122 98.1875 89.8122 98.1875 89.94Z" fill="#263238"/>
</g>
<g opacity="0.3">
<path d="M96.7578 89.94C96.7578 90.8533 96.7578 91.7666 96.7578 92.6799C96.7578 92.8077 96.5581 92.8077 96.5581 92.6799C96.5581 91.7666 96.5581 90.8533 96.5581 89.94C96.5581 89.8122 96.7578 89.8122 96.7578 89.94Z" fill="#263238"/>
</g>
<g opacity="0.3">
<path d="M95.3281 89.94C95.3281 90.8533 95.3281 91.7666 95.3281 92.6799C95.3281 92.8077 95.1284 92.8077 95.1284 92.6799C95.1284 91.7666 95.1284 90.8533 95.1284 89.94C95.1284 89.8122 95.3281 89.8122 95.3281 89.94Z" fill="#263238"/>
</g>
<g opacity="0.3">
<path d="M93.8955 89.94C93.8955 90.8533 93.8955 91.7666 93.8955 92.6799C93.8955 92.8077 93.6958 92.8077 93.6958 92.6799C93.6958 91.7666 93.6958 90.8533 93.6958 89.94C93.6958 89.8122 93.8955 89.8122 93.8955 89.94Z" fill="#263238"/>
</g>
<g opacity="0.3">
<path d="M92.4658 89.94C92.4658 90.8533 92.4658 91.7666 92.4658 92.6799C92.4658 92.8077 92.2661 92.8077 92.2661 92.6799C92.2661 91.7666 92.2661 90.8533 92.2661 89.94C92.2661 89.8122 92.4658 89.8122 92.4658 89.94Z" fill="#263238"/>
</g>
<g opacity="0.3">
<path d="M91.0352 89.94C91.0352 90.8533 91.0352 91.7666 91.0352 92.6799C91.0352 92.8077 90.8355 92.8077 90.8355 92.6799C90.8355 91.7666 90.8355 90.8533 90.8355 89.94C90.8355 89.8122 91.0352 89.8122 91.0352 89.94Z" fill="#263238"/>
</g>
<g opacity="0.3">
<path d="M89.6055 89.94C89.6055 90.8533 89.6055 91.7666 89.6055 92.6799C89.6055 92.8077 89.4058 92.8077 89.4058 92.6799C89.4058 91.7666 89.4058 90.8533 89.4058 89.94C89.4058 89.8122 89.6055 89.8122 89.6055 89.94Z" fill="#263238"/>
</g>
<g opacity="0.3">
<path d="M88.1729 89.94C88.1729 90.8533 88.1729 91.7666 88.1729 92.6799C88.1729 92.8077 87.9731 92.8077 87.9731 92.6799C87.9731 91.7666 87.9731 90.8533 87.9731 89.94C87.9731 89.8122 88.1729 89.8122 88.1729 89.94Z" fill="#263238"/>
</g>
<g opacity="0.3">
<path d="M86.7432 89.94C86.7432 90.8533 86.7432 91.7666 86.7432 92.6799C86.7432 92.8077 86.5435 92.8077 86.5435 92.6799C86.5435 91.7666 86.5435 90.8533 86.5435 89.94C86.5435 89.8122 86.7432 89.8122 86.7432 89.94Z" fill="#263238"/>
</g>
<g opacity="0.3">
<path d="M85.3135 89.94C85.3135 90.8533 85.3135 91.7666 85.3135 92.6799C85.3135 92.8077 85.1138 92.8077 85.1138 92.6799C85.1138 91.7666 85.1138 90.8533 85.1138 89.94C85.1138 89.8122 85.3135 89.8122 85.3135 89.94Z" fill="#263238"/>
</g>
<path d="M85.1829 57.668C85.071 57.7052 80.9598 64.6549 80.6989 64.6549C80.4406 64.6549 76.5504 63.0999 76.5504 63.0999L75.7728 64.9505C75.7728 64.9505 80.7707 67.962 82.7518 67.733C84.7329 67.504 88.0293 59.5425 88.0293 59.5425L85.1829 57.668Z" fill="#FDBBB5"/>
<path d="M76.6279 63.0892L74.3753 61.5529L73.8161 64.9611C73.8161 64.9611 76.0262 65.8425 76.6146 64.7055L76.6279 63.0892Z" fill="#FDBBB5"/>
<path d="M72.1413 61.691L71.8137 64.5268L73.8188 64.9582L74.3779 61.5472L72.1413 61.691Z" fill="#FDBBB5"/>
<path d="M64.7043 103.895L62.0896 102.532L63.8549 96.2479L66.4697 97.6139L64.7043 103.895Z" fill="#FDBBB5"/>
<path d="M62.001 102.122L65.1803 103.048C65.2921 103.075 65.3587 103.187 65.332 103.299V103.301L64.7569 105.863C64.677 106.137 64.3894 106.294 64.1152 106.22C63.0128 105.879 62.5016 105.661 61.1223 105.243C60.2622 104.987 58.5448 104.574 57.4264 104.044C56.3081 103.512 56.8593 102.423 57.3812 102.548C58.614 102.841 60.5019 102.535 61.4818 102.14C61.6468 102.077 61.8279 102.071 62.001 102.122Z" fill="#263238"/>
<path d="M55.8695 91.905L54.4849 89.5778L58.6893 85.6503L60.0713 87.9748L55.8695 91.905Z" fill="#FDBBB5"/>
<path d="M54.2212 89.277C54.1999 89.277 54.1999 89.277 54.1999 89.277C54.1972 89.2716 54.1972 89.2636 54.1999 89.2557C54.0002 89.1225 53.8138 88.9681 53.6487 88.7923C53.5129 88.6725 53.4277 88.5048 53.4091 88.3264C53.4171 88.1959 53.4969 88.0814 53.6194 88.0308C53.6913 87.9909 53.7765 87.9909 53.8484 88.0308C54.0428 88.2065 54.1706 88.4462 54.2026 88.7071C54.2319 88.4755 54.3437 88.2625 54.5168 88.1054C54.61 88.0494 54.7298 88.0654 54.807 88.1426C54.8789 88.2039 54.9215 88.2944 54.9188 88.3903C54.8922 88.7657 54.2718 89.2184 54.2425 89.2423L54.2185 89.2024L54.2398 89.2477C54.2239 89.2503 54.2398 89.2929 54.2398 89.2929C54.2319 89.2876 54.2265 89.2823 54.2212 89.277ZM54.2638 89.048V89.1119C54.4608 88.9415 54.7724 88.6379 54.7724 88.4142C54.775 88.3636 54.7591 88.3131 54.7245 88.2758L54.7005 88.2545C54.6339 88.1932 54.5833 88.2065 54.5514 88.2278C54.365 88.4595 54.2611 88.7497 54.2638 89.048ZM54.1253 89.1065C54.0614 88.7391 53.9283 88.2545 53.7606 88.1666C53.7233 88.148 53.6807 88.148 53.6461 88.1666C53.5715 88.2012 53.5209 88.2705 53.5103 88.353C53.5023 88.5314 53.7366 88.8057 54.1253 89.1065Z" fill="#005478"/>
<path d="M54.6124 89.2157L56.6413 91.471C56.7159 91.5456 56.7159 91.6654 56.6413 91.7426L54.9505 93.4654C54.7562 93.6438 54.4526 93.6305 54.2742 93.4361C53.5766 92.6373 53.2837 92.2219 52.3943 91.2234C51.8458 90.6136 50.7035 89.458 50.0884 88.5181C49.4733 87.5781 50.4266 86.979 50.7647 87.3278C51.5902 88.1533 53.2091 88.819 54.1464 88.9841C54.3248 89.0027 54.4899 89.0852 54.6124 89.2157Z" fill="#263238"/>
<path d="M84.4959 57.3724L87.0281 59.2257L88.9186 60.6129L89.1929 60.2748L89.8905 59.4121L91.2432 57.7612L89.6775 51.5917C88.1757 51.6609 85.6967 55.5485 84.874 56.7946C84.6343 57.1514 84.4959 57.3724 84.4959 57.3724Z" fill="#005478"/>
<path opacity="0.2" d="M87.0282 59.2256L88.9187 60.6129L89.8906 59.412C89.6643 57.4975 89.4273 55.5431 89.4273 55.5431C88.3835 56.5922 87.5687 57.8463 87.0282 59.2256Z" fill="black"/>
<path d="M61.7615 100.373C61.7615 100.373 67.3799 80.0241 68.3091 78.8525C69.8189 76.9407 84.3626 74.9223 84.3626 74.9223L88.1676 68.3428L101.907 70.2679C101.907 70.2679 100.893 79.9309 99.2019 82.4205C97.5111 84.9102 75.3707 84.4948 73.9008 84.9767C72.4284 85.4613 66.8606 101.344 66.8606 101.344L61.7615 100.373Z" fill="#263238"/>
<path opacity="0.2" d="M61.7623 100.367L66.888 101.342C66.888 101.342 72.453 85.4612 73.9282 84.9766C75.4033 84.492 97.5491 84.91 99.2293 82.4204C100.909 79.9308 101.935 70.2678 101.935 70.2678L88.195 68.3427L87.0713 70.2864L86.4429 71.3728L84.366 74.9222C84.366 74.9222 69.8223 76.9512 68.2992 78.8524C67.3806 80.0186 61.7623 100.367 61.7623 100.367Z" fill="white"/>
<path opacity="0.2" d="M87.071 70.2865L86.4293 71.3702L96.915 74.5788L87.071 70.2865Z" fill="black"/>
<path d="M94.6836 74.0063C94.6836 74.0063 78.7313 67.8927 74.3884 69.5889C70.0455 71.2823 56.3113 86.6062 56.3113 86.6062L59.416 90.5364C59.416 90.5364 73.326 77.3214 74.9529 76.5652C76.5798 75.8116 92.9156 84.0074 92.9156 84.0074L94.6836 74.0063Z" fill="#263238"/>
<path opacity="0.2" d="M94.6836 74.0063C94.6836 74.0063 78.7313 67.8927 74.3884 69.5889C70.0455 71.2823 56.3113 86.6062 56.3113 86.6062L59.416 90.5364C59.416 90.5364 73.326 77.3214 74.9529 76.5652C76.5798 75.8116 92.9156 84.0074 92.9156 84.0074L94.6836 74.0063Z" fill="white"/>
<path opacity="0.2" d="M91.3525 83.2485C91.3525 83.2485 77.147 76.0938 74.5588 75.1299C71.9707 74.166 66.4402 77.2361 65.4763 84.8355L66.616 83.592C66.616 83.592 67.7503 79.0334 69.3506 77.6542C70.4556 76.7009 75.4934 77.2601 75.4934 77.2601C74.2952 76.6663 85.894 82.4737 91.3525 83.2485Z" fill="black"/>
<path d="M86.8579 70.8563C91.4405 72.9785 96.3478 74.6826 101.932 73.7719C101.932 73.7719 102.115 68.553 102.328 65.6613C102.464 63.8134 102.6 61.6486 102.666 59.5051C102.776 56.2566 101.785 52.9069 101.404 50.9658C98.5126 50.199 96.2147 50.4652 93.4695 50.7155C91.744 51.336 90.836 51.0697 89.0707 51.8286C89.0707 51.8259 87.8698 61.2226 86.8579 70.8563Z" fill="#005478"/>
<path d="M87.4517 64.8759L84.8636 64.0159L85.263 67.4454C85.263 67.4454 87.6301 67.6851 87.8857 66.4309L87.4517 64.8759Z" fill="#FDBBB5"/>
<path d="M82.7544 64.7639L83.2177 67.5811L85.2627 67.4453L84.8633 64.0131L82.7544 64.7639Z" fill="#FDBBB5"/>
<path opacity="0.2" d="M102.328 65.5523C102.464 63.7044 102.599 61.5396 102.666 59.3961C101.444 57.1435 99.5293 54.4755 99.5293 54.4755C99.5293 54.4755 94.5527 59.9127 102.328 65.5523Z" fill="black"/>
<path d="M103.782 57.7716C103.079 61.0148 101.54 66.4041 98.518 68.1855C98.2385 68.3319 97.9376 68.4304 97.626 68.4837C96.5823 68.5875 95.5305 68.5556 94.4947 68.3932C91.7707 68.0257 89.0761 67.4586 86.4347 66.7023L86.7728 64.8225L92.1169 65.118C93.5281 65.1953 95.9911 65.2938 96.8858 65.142L96.7766 65.2006C96.8246 65.1553 96.9231 65.0674 96.9657 65.0169C97.7192 64.1275 98.1559 63.0118 98.5953 61.8589C99.1571 60.2692 99.6337 58.6477 100.02 57.0048L103.782 57.7716Z" fill="#FDBBB5"/>
<path d="M98.5125 59.6356L103.998 60.9217L104.149 60.2667C105.108 55.8705 103.777 51.4424 101.401 50.9658C101.401 50.9658 100.701 51.8285 99.961 53.2744C99.3832 54.3901 98.8267 57.6013 98.6083 58.9832C98.5497 59.3853 98.5125 59.6356 98.5125 59.6356Z" fill="#005478"/>
<path d="M96.7874 44.1493C96.7874 44.5114 96.7874 44.9268 96.7874 45.3741C96.8646 47.3765 97.3439 49.6505 98.6406 50.5265C97.6448 51.9883 95.9513 52.8617 94.4469 52.9203C93.1501 52.9442 93.1048 51.4504 93.3791 50.7422C94.0048 50.5318 93.9649 50.5531 93.9649 50.5531C94.3031 49.749 94.0288 48.7904 93.6267 47.8904L96.7874 44.1493Z" fill="#FDBBB5"/>
<path opacity="0.2" d="M96.7867 44.1493C96.8107 44.5567 96.8107 44.9667 96.7867 45.3741C96.7095 46.9984 96.2222 49.7277 93.9483 50.5531C94.2864 49.749 94.0122 48.7904 93.6101 47.8904L96.7867 44.1493Z" fill="black"/>
<path d="M96.9281 42.5064C96.8616 39.8677 94.1163 38.1076 91.6746 39.3564C89.1956 40.6239 89.1743 44.5487 89.9412 46.8573C90.7932 49.4241 94.1376 50.3454 95.9562 48.146C97.1678 46.6842 96.9947 45.1451 96.9281 42.5064Z" fill="#FDBBB5"/>
<path d="M94.7767 38.1023C97.0293 37.7002 97.5379 39.0689 97.9346 40.5467C98.4459 40.8156 98.5417 41.3242 98.0864 42.155C98.0758 42.2561 98.0571 42.36 98.0252 42.4718C97.8761 43.023 97.2823 44.3038 96.7577 45.3902C96.7897 45.249 96.811 45.0999 96.827 44.9348C96.8802 44.3916 96.9255 43.6434 96.9441 42.7514C96.7444 42.8073 96.6113 42.9005 96.4968 43.0017C95.6607 43.7526 95.4264 44.3197 94.9045 43.9496C94.5876 43.7233 94.6675 42.7354 94.6782 41.9073C94.6782 41.6916 94.6648 41.207 94.5583 40.7544C94.4172 40.1499 93.6876 39.8065 93.6876 39.8065C93.6876 39.8065 93.6424 39.7718 93.5891 39.7159C92.8941 40.4535 91.1048 41.91 89.4939 41.5612C87.0921 41.0419 92.0501 36.2437 94.7767 38.1023Z" fill="#263238"/>
<path d="M98.0787 44.1493C97.9722 44.8788 97.5381 45.4859 97.0455 45.8374C96.3027 46.3646 95.866 45.5312 95.8074 44.6685C95.7568 43.8936 95.8314 42.9244 96.7047 42.7407C97.5621 42.5596 98.2012 43.3158 98.0787 44.1493Z" fill="#FDBBB5"/>
<path d="M92.8969 43.8378C92.9554 44.144 92.8596 44.4076 92.6838 44.4262C92.5054 44.4448 92.3137 44.2105 92.2551 43.9043C92.1966 43.5981 92.2924 43.3345 92.4682 43.3159C92.6439 43.2972 92.8356 43.5315 92.8969 43.8378Z" fill="#263238"/>
<path d="M90.421 44.2796C90.4796 44.5859 90.3864 44.8495 90.208 44.8681C90.0296 44.8867 89.8379 44.6524 89.7766 44.3462C89.7181 44.04 89.8139 43.7764 89.9896 43.7578C90.1707 43.7391 90.3624 43.9734 90.421 44.2796Z" fill="#263238"/>
<path d="M91.5551 43.9203C91.5551 43.9203 90.9214 45.3768 90.735 45.9573C91.1584 46.2342 91.7734 45.9786 91.7734 45.9786L91.5551 43.9203Z" fill="#FA7B76"/>
<path d="M93.3357 42.5198C93.2985 42.5437 93.2505 42.5437 93.2079 42.5224C92.726 42.2535 92.3346 42.4399 92.2946 42.4612C92.2334 42.4931 92.1562 42.4692 92.1242 42.4079C92.0923 42.3467 92.1162 42.2695 92.1775 42.2375C92.1988 42.2269 92.718 41.9632 93.3331 42.3041C93.3943 42.3387 93.4156 42.4132 93.3837 42.4745C93.3704 42.4931 93.3544 42.5064 93.3357 42.5198Z" fill="#263238"/>
<path d="M93.1659 46.5325C93.1712 46.4899 93.1978 46.4499 93.2431 46.4313C93.7517 46.2156 93.8449 45.7949 93.8555 45.7496C93.8688 45.6804 93.9354 45.6351 94.002 45.6484C94.0712 45.6618 94.1165 45.7257 94.1031 45.7949C94.0978 45.8189 93.986 46.3913 93.3416 46.6629C93.2777 46.6896 93.2032 46.6603 93.1765 46.5964C93.1659 46.5724 93.1632 46.5511 93.1659 46.5325Z" fill="#263238"/>
<path opacity="0.2" d="M97.3467 43.4995C97.2135 43.3557 96.9819 43.3318 96.8008 43.4063C96.6198 43.4836 96.484 43.6433 96.3934 43.8164C96.2843 44.0267 96.231 44.2637 96.2417 44.5007" stroke="black" stroke-width="0.133136" stroke-miterlimit="10" stroke-linecap="round" stroke-linejoin="round"/>
<path d="M89.38 43.2626C89.356 43.2626 89.332 43.252 89.3107 43.2387C89.2548 43.1961 89.2415 43.1189 89.2841 43.0629C89.6968 42.5038 90.2773 42.5384 90.3039 42.5384C90.3731 42.5437 90.4264 42.6023 90.4237 42.6715C90.4211 42.7407 90.3598 42.794 90.2906 42.7887C90.2666 42.786 89.8193 42.7647 89.4891 43.212C89.4625 43.2493 89.4226 43.2653 89.38 43.2626Z" fill="#263238"/>
<path d="M91.8657 45.0787H91.9136L93.4766 44.7645C93.5379 44.7512 93.5911 44.7139 93.6284 44.6633C93.663 44.6101 93.6737 44.5462 93.663 44.4849L93.49 43.6249V43.6222C93.4633 43.4944 93.3382 43.4118 93.2104 43.4385L91.65 43.7527C91.5196 43.7793 91.437 43.9044 91.461 44.0322L91.6341 44.887C91.6474 44.9509 91.6846 45.0041 91.7379 45.0388C91.7752 45.0654 91.8204 45.0787 91.8657 45.0787ZM93.2556 43.6062C93.2823 43.6062 93.3089 43.6222 93.3196 43.6462L93.4926 44.5062C93.498 44.5222 93.498 44.5408 93.4926 44.5568C93.482 44.5728 93.466 44.5834 93.4474 44.5861L91.887 44.9003C91.8684 44.9083 91.8497 44.9083 91.8338 44.9003C91.8204 44.8896 91.8098 44.8737 91.8071 44.855L91.6314 43.995C91.6261 43.9577 91.65 43.9231 91.6846 43.9151L93.2477 43.6009L93.2556 43.6062Z" fill="#263238"/>
<path d="M89.3635 45.59L90.9239 45.2784H90.9265C91.0543 45.2518 91.1369 45.1266 91.1102 44.9988L90.9372 44.1388V44.1361C90.9105 44.0083 90.7854 43.9258 90.6576 43.9524L89.0972 44.2666H89.0946C88.9668 44.2932 88.8842 44.4184 88.9108 44.5462L89.0839 45.4009C89.1052 45.5127 89.2037 45.5953 89.3182 45.5926L89.3635 45.59ZM90.7028 44.1148C90.7401 44.1095 90.7747 44.1334 90.7801 44.1681L90.9531 45.0281C90.9585 45.0654 90.9345 45.1 90.8999 45.108L89.3395 45.4195H89.3369C89.2996 45.4249 89.265 45.4009 89.2597 45.3636L89.0866 44.5089C89.0813 44.4716 89.1052 44.437 89.1398 44.429L90.7002 44.1148H90.7028Z" fill="#263238"/>
<path d="M90.8995 44.4584C90.8782 44.4584 90.8569 44.4504 90.841 44.4344C90.809 44.4025 90.809 44.3492 90.841 44.3173C91.0486 44.1149 91.3549 44.051 91.6265 44.1548C91.6691 44.1708 91.6904 44.2214 91.6744 44.264V44.2667C91.6584 44.3093 91.6131 44.3306 91.5705 44.3146C91.5679 44.3146 91.5679 44.3146 91.5652 44.3119C91.3602 44.2321 91.1259 44.2773 90.9661 44.4291C90.9501 44.4504 90.9262 44.461 90.8995 44.4584Z" fill="#263238"/>
<path d="M93.4264 43.9072C93.3944 43.9072 93.3678 43.8779 93.3598 43.8406C93.3518 43.7953 93.3731 43.7501 93.4104 43.7394L95.8015 43.0631C95.8388 43.0525 95.8761 43.0817 95.8841 43.127C95.8921 43.1723 95.8708 43.2175 95.8335 43.2282L93.4424 43.9045L93.4264 43.9072Z" fill="#263238"/>
<path d="M95.4502 68.8886L88.1837 71.4474L79.5485 67.5812L95.4502 68.3427V68.8886Z" fill="#263238"/>
<path d="M87.23 71.4473H72.3295C71.9461 71.4473 71.6159 71.173 71.5413 70.7975L69.3606 59.4038C69.2647 58.9085 69.6455 58.4506 70.1487 58.4506H85.2569C85.6457 58.4506 85.9812 58.7301 86.0478 59.1162L88.0182 70.51C88.1034 70.9999 87.7279 71.4473 87.23 71.4473Z" fill="#263238"/>
<path opacity="0.2" d="M95.4502 68.3427C95.2665 68.3347 88.1224 70.7365 88.1224 70.7365L87.8668 67.9779L95.4502 68.3427Z" fill="black"/>
<path d="M98.8105 50.5533C98.8105 50.5533 97.6656 49.3738 97.6709 49.3818C97.6762 49.3924 94.6887 51.3468 94.5262 51.1844C94.3638 51.022 94.1029 50.1193 94.1029 50.1193C94.1029 50.1193 93.0857 50.8116 92.9233 51.1924C92.7609 51.5732 93.1257 53.5915 94.1029 53.7672C96.6538 54.2252 98.8105 50.5533 98.8105 50.5533Z" fill="#005478"/>
<g opacity="0.3">
<path d="M98.76 50.7448C98.2861 51.115 97.8148 51.4851 97.3408 51.8552C97.0293 52.0975 96.7337 52.3797 96.3849 52.5715C96.1346 52.7073 95.8204 52.7978 95.5941 52.5741C95.2692 52.2546 95.0615 51.8365 94.8059 51.4638C94.734 51.3573 94.9071 51.2561 94.979 51.3626C95.2133 51.7061 95.413 52.0602 95.6846 52.3771C95.9216 52.654 96.2651 52.4277 96.5047 52.2599C96.8163 52.0416 97.1065 51.786 97.4074 51.5516C97.8121 51.2348 98.2168 50.9206 98.6189 50.6037C98.7201 50.5265 98.8612 50.665 98.76 50.7448Z" fill="black"/>
</g>
<g opacity="0.3">
<path d="M94.6304 51.4931C94.4201 51.7141 94.2124 51.9378 94.002 52.1588C93.9062 52.26 93.813 52.3745 93.7038 52.4624C93.6106 52.5369 93.4908 52.5822 93.3763 52.5263C93.1633 52.4224 93.1766 52.1082 93.1686 51.9112C93.1553 51.6076 93.1606 51.3041 93.1819 51.0032C93.1926 50.8754 93.3923 50.8754 93.3816 51.0032C93.3603 51.2668 93.355 51.5331 93.363 51.7994C93.3656 51.9192 93.3683 52.039 93.3843 52.1588C93.3923 52.2174 93.4029 52.3212 93.4642 52.3505C93.5414 52.3852 93.6319 52.2627 93.6745 52.2174C93.7624 52.1242 93.8502 52.031 93.9408 51.9378C94.1245 51.7434 94.3082 51.5491 94.492 51.3547C94.5772 51.2588 94.7183 51.3999 94.6304 51.4931Z" fill="black"/>
</g>
</svg>
