<svg width="512" height="512" viewBox="0 0 512 512" fill="none" xmlns="http://www.w3.org/2000/svg">
<path d="M441.8 267.8H427.7C418.4 239.3 400.2 214 375.9 194.4C375.9 193.5 375.7 192.5 375.5 191.6C370.4 173.7 376.7 157.4 384 145.7C389.1 137.5 382.5 127 372.9 128.2C351.4 130.9 336.6 138.8 326.4 147.7C319.4 153.8 314.4 162 312.2 171.1C296.8 234.9 239.3 282.4 170.8 282.4C137.5 282.4 106.9 271.2 82.4001 252.4C73.9001 270.8 69.3 290.9 69.3 312C69.3 323.4 70.7 334.5 73.3 345.2C73.3 345.2 73.3 345.4 73.4 345.7C76.1 356.8 80.2001 367.5 85.4001 377.6C92.3001 392.5 102.3 409.9 116.1 424C136 444.5 139.4 469.9 139.9 480.9V485.6C139.9 485.8 139.9 486 139.9 486.2C139.9 486.3 139.9 486.3 139.9 486.3C140.3 491.7 144.8 496 150.3 496H213.5C219.2 496 223.9 491.4 223.9 485.6V470C233.1 471.2 242.5 471.9 252 471.9C259.5 471.9 266.8 471.5 274.1 470.7V485.6C274.1 491.3 278.7 496 284.5 496H347.9C353.6 496 358.3 491.4 358.3 485.6V470C358.4 464.8 360.2 444.1 379.8 426.4C380.5 425.8 381.2 425.2 381.9 424.6C382.1 424.4 382.3 424.3 382.5 424.1C404.3 404.7 420.4 380.5 428.7 353.5H442C452.6 353.5 461.2 344.9 461.2 334.3V287C461 276.4 452.4 267.8 441.8 267.8ZM362.7 271.2C354 271.2 347 264.2 347 255.5C347 246.8 354 239.8 362.7 239.8C371.4 239.8 378.4 246.8 378.4 255.5C378.4 264.2 371.4 271.2 362.7 271.2Z" fill="#01729C"/>
<path d="M170.8 16C104.1 16 50 70.1 50 136.8C50 203.5 104.1 257.7 170.8 257.7C237.5 257.7 291.6 203.6 291.6 136.9C291.6 70.2 237.5 16 170.8 16ZM217.8 90H194.7C198.7 95.3 201.6 101.6 203 108.4H217.9V126.8H203C198.7 147.7 180.2 163.5 158 163.5H151.4L192.3 204.4L179.3 217.4L125.5 163.6V145.2H158.1C170.1 145.2 180.3 137.5 184.1 126.8H125.5V108.4H184.1C180.3 97.7 170.1 90 158.1 90H125.5V71.6H218V90H217.8Z" fill="#01729C"/>
</svg>
