<svg width="32" height="30" viewBox="0 0 32 30" fill="none" xmlns="http://www.w3.org/2000/svg">
<g clip-path="url(#clip0_26_167)">
<path d="M7.24953 3.54004H24.2495C24.4431 3.54004 24.6288 3.61695 24.7657 3.75385C24.9026 3.89075 24.9795 4.07643 24.9795 4.27004V26C24.9769 26.1919 24.8988 26.375 24.7622 26.5098C24.6256 26.6445 24.4414 26.7201 24.2495 26.72H7.24953C7.05764 26.7201 6.87346 26.6445 6.73685 26.5098C6.60023 26.375 6.52216 26.1919 6.51953 26V4.27004C6.51953 4.17417 6.53841 4.07925 6.5751 3.99068C6.61178 3.90211 6.66556 3.82164 6.73334 3.75385C6.80113 3.68606 6.8816 3.63229 6.97017 3.59561C7.05874 3.55892 7.15367 3.54004 7.24953 3.54004Z" fill="#042b62"/>
<path d="M24.9303 9.3999V13.9999L24.0003 12.9299C23.82 12.7191 23.5633 12.5885 23.2866 12.5669C23.01 12.5454 22.7362 12.6346 22.5253 12.8149C22.3145 12.9952 22.1839 13.252 22.1623 13.5286C22.1408 13.8052 22.23 14.0791 22.4103 14.2899L24.4603 16.6899C24.4603 16.6899 23.8503 19.2799 25.4603 20.7499H30.0303L29.6203 15.1999C29.5561 14.712 29.3391 14.2569 29.0003 13.8999L24.9303 9.3999Z" fill="#E2E2E2" stroke="#939393" stroke-width="0.25"/>
<path d="M24.09 20.75H30.82C30.987 20.75 31.1473 20.8164 31.2654 20.9345C31.3836 21.0527 31.45 21.2129 31.45 21.38V23.38C31.45 23.5471 31.3836 23.7073 31.2654 23.8255C31.1473 23.9436 30.987 24.01 30.82 24.01H24.09C23.9229 24.01 23.7626 23.9436 23.6445 23.8255C23.5263 23.7073 23.46 23.5471 23.46 23.38V21.38C23.46 21.2129 23.5263 21.0527 23.6445 20.9345C23.7626 20.8164 23.9229 20.75 24.09 20.75Z" fill="#42BFEA"/>
<path d="M24.3696 24.0498H30.5396C30.6563 24.0498 30.7682 24.0962 30.8507 24.1787C30.9332 24.2612 30.9796 24.3731 30.9796 24.4898V28.9998C30.9796 29.1165 30.9332 29.2284 30.8507 29.3109C30.7682 29.3934 30.6563 29.4398 30.5396 29.4398H24.3696C24.2546 29.4372 24.1453 29.3897 24.0649 29.3074C23.9845 29.2252 23.9395 29.1148 23.9396 28.9998V24.4898C23.9382 24.4325 23.9484 24.3755 23.9694 24.3222C23.9904 24.2689 24.0219 24.2203 24.0619 24.1793C24.102 24.1383 24.1498 24.1057 24.2027 24.0835C24.2555 24.0612 24.3122 24.0498 24.3696 24.0498Z" fill="#42BFEA"/>
<path d="M6.52039 9.3999V13.9999L7.43039 12.9399C7.51544 12.8303 7.62236 12.7396 7.74435 12.6736C7.86634 12.6076 8.00073 12.5677 8.13898 12.5564C8.27723 12.5451 8.41632 12.5627 8.5474 12.6081C8.67848 12.6534 8.79869 12.7256 8.90039 12.8199C9.10442 13.0041 9.22889 13.2604 9.24755 13.5347C9.26621 13.809 9.17759 14.0797 9.00039 14.2899L7.00039 16.6899C7.00039 16.6899 7.61039 19.2799 6.00039 20.7499H1.40039L1.81039 15.1999C1.8939 14.7034 2.13598 14.2473 2.50039 13.8999L6.52039 9.3999Z" fill="#E2E2E2" stroke="#939393" stroke-width="0.25"/>
<path d="M4.46039 13.8999L6.52039 11.5899V9.3999L2.52039 13.8999C2.15598 14.2473 1.9139 14.7034 1.83039 15.1999L1.40039 20.7599H3.40039L3.80039 15.1999C3.88857 14.705 4.12992 14.2503 4.49039 13.8999H4.46039Z" fill="#EAEAEA"/>
<path d="M27.0004 13.8999L24.9404 11.5899V9.3999L28.9404 13.8999C29.3048 14.2473 29.5469 14.7034 29.6304 15.1999L30.0404 20.7599H28.0404L27.6404 15.1999C27.5661 14.711 27.3426 14.2569 27.0004 13.8999Z" fill="#EAEAEA"/>
<path d="M7.41 24.05H0.57C0.41963 24.0474 0.276137 23.9866 0.169793 23.8802C0.0634498 23.7739 0.002571 23.6304 6.4164e-09 23.48V21.33C-2.26035e-05 21.1779 0.0597098 21.0319 0.166327 20.9234C0.272945 20.8149 0.417914 20.7526 0.57 20.75H7.41C7.56383 20.75 7.71135 20.8111 7.82012 20.9199C7.92889 21.0286 7.99 21.1762 7.99 21.33V23.48C7.98738 23.6321 7.92511 23.7771 7.81663 23.8837C7.70814 23.9903 7.56211 24.05 7.41 24.05Z" fill="#42BFEA"/>
<path d="M0.56 20.75H2V24.05H0.56C0.48646 24.05 0.41364 24.0355 0.345697 24.0074C0.277755 23.9792 0.216021 23.938 0.16402 23.886C0.112019 23.834 0.0707701 23.7722 0.0426275 23.7043C0.0144848 23.6364 0 23.5635 0 23.49L0 21.31C0 21.1615 0.0589998 21.019 0.16402 20.914C0.269041 20.809 0.411479 20.75 0.56 20.75Z" fill="#042b62"/>
<path d="M7.08973 29.4798H0.889727C0.778336 29.4798 0.671507 29.4356 0.592742 29.3568C0.513976 29.278 0.469727 29.1712 0.469727 29.0598V24.4698C0.469727 24.3584 0.513976 24.2516 0.592742 24.1728C0.671507 24.0941 0.778336 24.0498 0.889727 24.0498H7.08973C7.20112 24.0498 7.30795 24.0941 7.38671 24.1728C7.46548 24.2516 7.50973 24.3584 7.50973 24.4698V29.0598C7.50973 29.1712 7.46548 29.278 7.38671 29.3568C7.30795 29.4356 7.20112 29.4798 7.08973 29.4798Z" fill="#42BFEA"/>
<path d="M0.869727 24.0498H2.43973V29.4798H0.869727C0.76364 29.4798 0.661898 29.4377 0.586884 29.3626C0.511869 29.2876 0.469727 29.1859 0.469727 29.0798V24.4498C0.469727 24.3437 0.511869 24.242 0.586884 24.167C0.661898 24.0919 0.76364 24.0498 0.869727 24.0498Z" fill="#042b62"/>
<path d="M29 24.0499H30.46C30.5265 24.0486 30.5926 24.0605 30.6544 24.0851C30.7162 24.1096 30.7725 24.1462 30.82 24.1928C30.8675 24.2393 30.9053 24.2949 30.931 24.3562C30.9568 24.4175 30.97 24.4834 30.97 24.5499V28.9999C30.97 29.0664 30.9568 29.1323 30.931 29.1936C30.9053 29.2549 30.8675 29.3105 30.82 29.357C30.7725 29.4036 30.7162 29.4402 30.6544 29.4648C30.5926 29.4893 30.5265 29.5012 30.46 29.4999H29V24.0499Z" fill="#042b62"/>
<path d="M29.4902 20.75H30.8202C30.9873 20.75 31.1476 20.8164 31.2657 20.9345C31.3839 21.0527 31.4502 21.2129 31.4502 21.38V23.38C31.4502 23.5471 31.3839 23.7073 31.2657 23.8255C31.1476 23.9436 30.9873 24.01 30.8202 24.01H29.4902V20.75Z" fill="#042b62"/>
<path d="M18.7998 15.4899C18.6923 15.4901 18.5881 15.4535 18.5044 15.3862C18.4207 15.3189 18.3626 15.2249 18.3398 15.1199L17.7098 12.4399C17.7048 12.4034 17.7048 12.3664 17.7098 12.3299V10.4099C17.7098 10.2853 17.7593 10.1657 17.8474 10.0776C17.9356 9.98946 18.0551 9.93994 18.1798 9.93994C18.3054 9.93991 18.426 9.98911 18.5157 10.077C18.6054 10.1648 18.6571 10.2844 18.6598 10.4099V12.2799L19.2698 14.9099C19.297 15.0318 19.2757 15.1595 19.2104 15.2659C19.145 15.3724 19.0408 15.4491 18.9198 15.4799L18.7998 15.4899Z" fill="white"/>
<path d="M15.72 12.7999C15.5953 12.7999 15.4758 12.7504 15.3877 12.6623C15.2995 12.5741 15.25 12.4546 15.25 12.3299V10.4099C15.2666 10.2958 15.3237 10.1915 15.411 10.116C15.4982 10.0405 15.6097 9.99902 15.725 9.99902C15.8403 9.99902 15.9518 10.0405 16.039 10.116C16.1263 10.1915 16.1834 10.2958 16.2 10.4099V12.3299C16.2 12.3925 16.1875 12.4544 16.1633 12.5121C16.139 12.5698 16.1035 12.6221 16.0588 12.6658C16.0141 12.7096 15.9611 12.744 15.9029 12.7671C15.8448 12.7901 15.7826 12.8013 15.72 12.7999Z" fill="white"/>
<path d="M19.4296 10.1102H12.8196C12.694 10.1075 12.5745 10.0558 12.4866 9.96608C12.3988 9.87635 12.3496 9.75575 12.3496 9.63016C12.3496 9.5055 12.3991 9.38596 12.4873 9.29782C12.5754 9.20967 12.695 9.16016 12.8196 9.16016H19.4296C19.5543 9.16016 19.6738 9.20967 19.7619 9.29782C19.8501 9.38596 19.8996 9.5055 19.8996 9.63016C19.8996 9.75575 19.8504 9.87635 19.7626 9.96608C19.6747 10.0558 19.5552 10.1075 19.4296 10.1102Z" fill="white"/>
<path d="M19.3495 11.86H13.6195L11.9395 6.51997C11.9025 6.40011 11.82 6.29951 11.7098 6.23971C11.5995 6.1799 11.4702 6.16564 11.3495 6.19997C11.2895 6.21716 11.2334 6.24616 11.1846 6.28527C11.1359 6.32439 11.0954 6.37283 11.0656 6.42777C11.0358 6.48271 11.0173 6.54304 11.0111 6.60524C11.0049 6.66743 11.0112 6.73023 11.0295 6.78997L12.6295 11.85H12.0995C11.9749 11.85 11.8553 11.8995 11.7672 11.9876C11.6791 12.0758 11.6295 12.1953 11.6295 12.32C11.6295 12.4446 11.6791 12.5642 11.7672 12.6523C11.8553 12.7405 11.9749 12.79 12.0995 12.79H12.6795L12.1895 14.9C12.1731 14.9598 12.169 15.0222 12.1773 15.0837C12.1856 15.1451 12.2063 15.2042 12.2381 15.2574C12.2698 15.3107 12.312 15.3569 12.3621 15.3935C12.4122 15.43 12.4691 15.456 12.5295 15.47C12.59 15.4865 12.6531 15.4907 12.7152 15.4825C12.7773 15.4743 12.8371 15.4537 12.8911 15.4221C12.9451 15.3904 12.9923 15.3482 13.0298 15.2981C13.0673 15.2479 13.0944 15.1908 13.1095 15.13L13.6495 12.82H19.3495C19.4768 12.82 19.5989 12.7694 19.689 12.6794C19.779 12.5894 19.8295 12.4673 19.8295 12.34C19.8296 12.2774 19.8171 12.2155 19.7928 12.1578C19.7686 12.1001 19.7331 12.0478 19.6884 12.004C19.6437 11.9603 19.5907 11.9259 19.5325 11.9028C19.4743 11.8798 19.4121 11.8686 19.3495 11.87V11.86Z" fill="white"/>
<path d="M15.7201 16.6299C14.0589 16.6285 12.4424 16.092 11.1101 15.0999C11.0097 15.0227 10.944 14.9089 10.9271 14.7834C10.9103 14.6579 10.9437 14.5309 11.0201 14.4299C11.0574 14.3805 11.1041 14.339 11.1576 14.3078C11.211 14.2765 11.2701 14.2562 11.3314 14.2478C11.3927 14.2394 11.4551 14.2433 11.5149 14.2591C11.5748 14.2749 11.6309 14.3023 11.6801 14.3399C12.8489 15.2108 14.2675 15.6812 15.7251 15.6812C17.1826 15.6812 18.6013 15.2108 19.7701 14.3399C19.8187 14.3018 19.8743 14.2736 19.9337 14.257C19.9932 14.2405 20.0554 14.2357 20.1167 14.2432C20.1779 14.2506 20.2372 14.27 20.2909 14.3003C20.3447 14.3307 20.392 14.3713 20.4301 14.4199C20.5051 14.5206 20.5387 14.6462 20.5238 14.7709C20.5089 14.8955 20.4467 15.0097 20.3501 15.0899C19.0132 16.089 17.3891 16.6292 15.7201 16.6299Z" fill="white"/>
<path d="M15.7197 7.08C17.6748 7.08 19.2597 5.49509 19.2597 3.54C19.2597 1.58491 17.6748 0 15.7197 0C13.7646 0 12.1797 1.58491 12.1797 3.54C12.1797 5.49509 13.7646 7.08 15.7197 7.08Z" fill="#42BFEA"/>
<path d="M9.41969 17.9199H21.9997C22.0633 17.9199 22.1244 17.9452 22.1694 17.9902C22.2144 18.0352 22.2397 18.0963 22.2397 18.1599V18.9999C22.2397 19.031 22.2335 19.0617 22.2213 19.0903C22.2091 19.1189 22.1913 19.1447 22.1688 19.1662C22.1464 19.1877 22.1198 19.2044 22.0908 19.2154C22.0617 19.2263 22.0307 19.2313 21.9997 19.2299H9.41969C9.38865 19.2313 9.35767 19.2263 9.3286 19.2154C9.29953 19.2044 9.27298 19.1877 9.25055 19.1662C9.22812 19.1447 9.21028 19.1189 9.1981 19.0903C9.18592 19.0617 9.17966 19.031 9.17969 18.9999V18.1299C9.18703 18.0716 9.21553 18.018 9.25976 17.9793C9.304 17.9406 9.36091 17.9195 9.41969 17.9199Z" fill="white"/>
<path d="M9.44969 20.3701H21.9997C22.0713 20.3701 22.14 20.3986 22.1906 20.4492C22.2412 20.4998 22.2697 20.5685 22.2697 20.6401V21.4501C22.2697 21.4851 22.2627 21.5198 22.249 21.552C22.2353 21.5842 22.2152 21.6133 22.19 21.6376C22.1648 21.6619 22.135 21.6808 22.1023 21.6933C22.0696 21.7057 22.0347 21.7115 21.9997 21.7101H9.44969C9.41471 21.7115 9.37982 21.7057 9.34712 21.6933C9.31441 21.6808 9.28455 21.6619 9.25934 21.6376C9.23413 21.6133 9.21408 21.5842 9.20039 21.552C9.1867 21.5198 9.17966 21.4851 9.17969 21.4501V20.6401C9.17969 20.5685 9.20813 20.4998 9.25877 20.4492C9.3094 20.3986 9.37808 20.3701 9.44969 20.3701Z" fill="white"/>
<path d="M9.35969 22.8198H22.0897C22.1374 22.8198 22.1832 22.8388 22.217 22.8725C22.2507 22.9063 22.2697 22.9521 22.2697 22.9998V23.9998C22.2671 24.0458 22.247 24.0891 22.2136 24.1207C22.1801 24.1523 22.1357 24.1699 22.0897 24.1698H9.35969C9.31363 24.1699 9.2693 24.1523 9.23582 24.1207C9.20233 24.0891 9.18225 24.0458 9.17969 23.9998V22.9998C9.17969 22.9521 9.19865 22.9063 9.23241 22.8725C9.26616 22.8388 9.31195 22.8198 9.35969 22.8198Z" fill="white"/>
<path d="M17.13 2.32001C17.1043 2.30997 17.0758 2.30997 17.05 2.32001H16.51C16.4741 2.15507 16.4062 1.99878 16.31 1.86001H17.05C17.0766 1.86001 17.102 1.84948 17.1207 1.83072C17.1395 1.81197 17.15 1.78653 17.15 1.76001V1.40001C17.15 1.37349 17.1395 1.34805 17.1207 1.3293C17.102 1.31055 17.0766 1.30001 17.05 1.30001H14.4C14.3743 1.28997 14.3458 1.28997 14.32 1.30001C14.3154 1.31109 14.3129 1.32299 14.3129 1.33501C14.3129 1.34703 14.3154 1.35893 14.32 1.37001V1.79001C14.3185 1.80484 14.3202 1.81984 14.3252 1.8339C14.3302 1.84796 14.3382 1.86073 14.3488 1.87128C14.3593 1.88183 14.3721 1.88988 14.3861 1.89485C14.4002 1.89982 14.4152 1.90159 14.43 1.90001H14.89C15.34 1.90001 15.62 2.02001 15.74 2.26001H14.4H14.32C14.31 2.28573 14.31 2.31429 14.32 2.34001V2.66001C14.3185 2.67484 14.3202 2.68984 14.3252 2.7039C14.3302 2.71796 14.3382 2.73073 14.3488 2.74128C14.3593 2.75183 14.3721 2.75988 14.3861 2.76485C14.4002 2.76982 14.4152 2.77159 14.43 2.77001H15.79C15.7653 2.85446 15.7232 2.93279 15.6663 2.99996C15.6095 3.06713 15.5392 3.12165 15.46 3.16001C15.2494 3.26516 15.015 3.31342 14.78 3.30001H14.4C14.3743 3.28997 14.3458 3.28997 14.32 3.30001C14.3124 3.32272 14.3124 3.3473 14.32 3.37001V3.78001C14.3154 3.79109 14.3129 3.80299 14.3129 3.81501C14.3129 3.82703 14.3154 3.83893 14.32 3.85001C14.73 4.28001 15.26 4.85001 15.91 5.67001C15.9359 5.67916 15.9641 5.67916 15.99 5.67001H16.61C16.6298 5.67309 16.65 5.66864 16.6667 5.65753C16.6834 5.64642 16.6953 5.62946 16.7 5.61001C16.7122 5.59426 16.7188 5.57491 16.7188 5.55501C16.7188 5.53511 16.7122 5.51577 16.7 5.50001C16.08 4.74001 15.59 4.17001 15.24 3.79001C15.5615 3.76301 15.8678 3.6412 16.12 3.44001C16.3406 3.25014 16.486 2.98768 16.53 2.70001H17.06C17.0749 2.70159 17.0899 2.69982 17.1039 2.69485C17.118 2.68988 17.1308 2.68183 17.1413 2.67128C17.1518 2.66073 17.1599 2.64796 17.1649 2.6339C17.1698 2.61984 17.1716 2.60484 17.17 2.59001V2.39001C17.1702 2.37585 17.1665 2.3619 17.1595 2.3496C17.1525 2.3373 17.1423 2.32709 17.13 2.32001Z" fill="white"/>
</g>
<defs>
<clipPath id="clip0_26_167">
<rect width="31.45" height="29.48" fill="white"/>
</clipPath>
</defs>
</svg>
