<svg xmlns="http://www.w3.org/2000/svg" viewBox="0 0 31.61 30"><defs><style>.cls-1{fill:#bcd874;}.cls-2{fill:#f49496;}.cls-3{fill:#fff;}</style></defs><g id="Layer_2" data-name="Layer 2"><g id="Layer_1-2" data-name="Layer 1"><path class="cls-1" d="M26.75,11.89H20.08L25.33,6.4l.13.11A11.72,11.72,0,0,1,26.75,11.89Z"/><path class="cls-1" d="M25.46,6.51h0l-5.37,5.37H14.87v0l8.26-8.39h.12l0,0A12.14,12.14,0,0,1,25.46,6.51Z"/><path class="cls-1" d="M23.25,3.46h0l-8.39,8.39V6.6l5.33-5.33A12.05,12.05,0,0,1,23.25,3.46Z"/><path class="cls-1" d="M20.19,1.27,14.86,6.6V0A11.72,11.72,0,0,1,20.19,1.27Z"/><path class="cls-1" d="M20.22,14.79h0a8,8,0,0,0-3.82,10.7c0,.08.08.17.13.25A11.91,11.91,0,0,1,3.48,6.37a11.8,11.8,0,0,1,8.41-3.48v11.9Z"/><path class="cls-2" d="M23.59,14a8,8,0,1,1-3.43.77A8,8,0,0,1,23.59,14Z"/><path class="cls-3" d="M26.22,25.48a.4.4,0,0,1-.39-.31l-.54-2.3a.34.34,0,0,1,0-.1V21.13a.41.41,0,1,1,.81,0h0v1.6L26.62,25a.41.41,0,0,1-.31.49Z"/><path class="cls-3" d="M23.59,23.18a.41.41,0,0,1-.41-.41V21.13a.41.41,0,1,1,.81,0v1.64a.4.4,0,0,1-.4.41Z"/><path class="cls-3" d="M26.76,20.87H21.1a.41.41,0,1,1,0-.81h5.66a.41.41,0,1,1,0,.81Z"/><path class="cls-3" d="M26.7,22.37H21.79l-1.45-4.58a.41.41,0,1,0-.78.24h0l1.36,4.33h-.45a.41.41,0,1,0,0,.81H21L20.55,25a.4.4,0,0,0,.3.49.39.39,0,0,0,.49-.29h0l.47-2H26.7a.41.41,0,0,0,0-.81Z"/><path class="cls-3" d="M23.59,26.46a6.57,6.57,0,0,1-4-1.32.4.4,0,0,1-.08-.56.41.41,0,0,1,.57-.09,5.77,5.77,0,0,0,6.93,0,.41.41,0,0,1,.5.65h0A6.56,6.56,0,0,1,23.59,26.46Z"/></g></g></svg>