<svg width="32" height="30" viewBox="0 0 32 30" fill="none" xmlns="http://www.w3.org/2000/svg">
<g clip-path="url(#clip0_58_2)">
<path d="M26.7501 11.8899H20.0801L25.3301 6.3999L25.4601 6.5099C26.3133 8.17459 26.7556 10.0193 26.7501 11.8899Z" fill="#042b62"/>
<path d="M25.4591 6.51023L20.0891 11.8802H14.8691L23.1291 3.49023H23.2491C24.1375 4.37663 24.883 5.39539 25.4591 6.51023Z" fill="#042b62"/>
<path d="M23.2494 3.46002L14.8594 11.85V6.60002L20.1894 1.27002C21.3178 1.83527 22.3504 2.57428 23.2494 3.46002Z" fill="#042b62"/>
<path d="M20.1894 1.27002L14.8594 6.60002V2.4047e-05C16.7114 -0.00372737 18.538 0.431499 20.1894 1.27002Z" fill="#042b62"/>
<path d="M20.2199 14.7902C19.2635 15.2385 18.4053 15.8717 17.6948 16.6533C16.9844 17.435 16.4358 18.3496 16.0806 19.3443C15.7255 20.3391 15.5709 21.3944 15.6257 22.4492C15.6805 23.504 15.9436 24.5376 16.3999 25.4902C16.3999 25.5702 16.4799 25.6602 16.5299 25.7402C13.9894 26.7998 11.1603 26.9468 8.52367 26.156C5.88706 25.3652 3.60576 23.6856 2.06774 21.4027C0.529712 19.1198 -0.170075 16.3747 0.0873835 13.6341C0.344842 10.8935 1.54365 8.3267 3.47994 6.37021C4.58155 5.26227 5.89223 4.38412 7.33591 3.78674C8.7796 3.18935 10.3275 2.88462 11.8899 2.89021V14.7902H20.2199Z" fill="#042b62"/>
<path d="M23.5895 14C25.5581 14.0014 27.4571 14.7285 28.9232 16.0424C30.3892 17.3562 31.3193 19.1645 31.5356 21.1212C31.7518 23.0779 31.239 25.0457 30.0953 26.6479C28.9515 28.2502 27.2571 29.3745 25.3363 29.8057C23.4155 30.2369 21.4031 29.9448 19.6842 28.9851C17.9653 28.0255 16.6606 26.4657 16.0198 24.6044C15.3789 22.743 15.4468 20.7106 16.2106 18.8962C16.9744 17.0818 18.3804 15.6127 20.1595 14.77C21.2316 14.2622 22.4032 13.9992 23.5895 14Z" fill="#E2E2E2" stroke="#939393" stroke-width="0.25"/>
<path d="M26.2202 25.4801C26.1297 25.4801 26.0418 25.4495 25.971 25.3932C25.9002 25.3369 25.8505 25.2583 25.8302 25.1701L25.2902 22.8701C25.2852 22.8369 25.2852 22.8032 25.2902 22.7701V21.1301C25.2809 21.0716 25.2845 21.0117 25.3006 20.9547C25.3167 20.8977 25.345 20.8449 25.3835 20.7999C25.422 20.7548 25.4698 20.7187 25.5236 20.6939C25.5774 20.6691 25.6359 20.6562 25.6952 20.6562C25.7544 20.6562 25.8129 20.6691 25.8667 20.6939C25.9205 20.7187 25.9683 20.7548 26.0068 20.7999C26.0453 20.8449 26.0736 20.8977 26.0897 20.9547C26.1058 21.0117 26.1094 21.0716 26.1002 21.1301V22.7301L26.6202 25.0001C26.644 25.1062 26.6248 25.2174 26.5666 25.3093C26.5085 25.4012 26.4162 25.4662 26.3102 25.4901L26.2202 25.4801Z" fill="white"/>
<path d="M23.5908 23.1801C23.482 23.1801 23.3778 23.1369 23.3009 23.06C23.224 22.9831 23.1808 22.8788 23.1808 22.7701V21.1301C23.1716 21.0716 23.1751 21.0117 23.1912 20.9547C23.2073 20.8977 23.2356 20.8449 23.2741 20.7999C23.3126 20.7548 23.3604 20.7187 23.4142 20.6939C23.468 20.6691 23.5265 20.6562 23.5858 20.6562C23.645 20.6562 23.7036 20.6691 23.7574 20.6939C23.8112 20.7187 23.859 20.7548 23.8974 20.7999C23.9359 20.8449 23.9642 20.8977 23.9803 20.9547C23.9964 21.0117 24 21.0716 23.9908 21.1301V22.7701C23.9921 22.8235 23.9828 22.8765 23.9633 22.9262C23.9437 22.9759 23.9145 23.0212 23.8772 23.0594C23.8399 23.0976 23.7954 23.128 23.7462 23.1487C23.697 23.1694 23.6442 23.1801 23.5908 23.1801Z" fill="white"/>
<path d="M26.7608 20.8702H21.1008C21.0423 20.8794 20.9824 20.8758 20.9254 20.8597C20.8684 20.8436 20.8156 20.8153 20.7706 20.7768C20.7255 20.7384 20.6894 20.6906 20.6646 20.6368C20.6398 20.583 20.627 20.5244 20.627 20.4652C20.627 20.4059 20.6398 20.3474 20.6646 20.2936C20.6894 20.2398 20.7255 20.192 20.7706 20.1535C20.8156 20.115 20.8684 20.0867 20.9254 20.0706C20.9824 20.0545 21.0423 20.051 21.1008 20.0602H26.7608C26.8193 20.051 26.8791 20.0545 26.9361 20.0706C26.9931 20.0867 27.046 20.115 27.091 20.1535C27.136 20.192 27.1722 20.2398 27.197 20.2936C27.2218 20.3474 27.2346 20.4059 27.2346 20.4652C27.2346 20.5244 27.2218 20.583 27.197 20.6368C27.1722 20.6906 27.136 20.7384 27.091 20.7768C27.046 20.8153 26.9931 20.8436 26.9361 20.8597C26.8791 20.8758 26.8193 20.8794 26.7608 20.8702Z" fill="white"/>
<path d="M26.6991 22.3701H21.7891L20.3391 17.7901C20.3277 17.7341 20.3047 17.681 20.2715 17.6344C20.2384 17.5878 20.1958 17.5486 20.1466 17.5194C20.0974 17.4902 20.0427 17.4716 19.9859 17.4648C19.9291 17.458 19.8715 17.4632 19.8168 17.48C19.7621 17.4969 19.7115 17.525 19.6683 17.5625C19.6252 17.6 19.5903 17.6462 19.5661 17.698C19.5418 17.7498 19.5286 17.8061 19.5274 17.8633C19.5262 17.9205 19.537 17.9774 19.5591 18.0301L20.9191 22.3601H20.4691C20.4106 22.3509 20.3508 22.3545 20.2938 22.3706C20.2368 22.3867 20.1839 22.415 20.1389 22.4535C20.0938 22.492 20.0577 22.5398 20.0329 22.5936C20.0081 22.6474 19.9953 22.7059 19.9953 22.7651C19.9953 22.8244 20.0081 22.8829 20.0329 22.9367C20.0577 22.9905 20.0938 23.0383 20.1389 23.0768C20.1839 23.1153 20.2368 23.1436 20.2938 23.1597C20.3508 23.1758 20.4106 23.1794 20.4691 23.1701H20.9991L20.5491 25.0001C20.5358 25.052 20.533 25.1061 20.5409 25.1591C20.5489 25.2121 20.5674 25.263 20.5954 25.3087C20.6233 25.3544 20.6602 25.394 20.7038 25.4252C20.7474 25.4563 20.7968 25.4784 20.8491 25.4901C20.9003 25.5051 20.9541 25.5094 21.0071 25.5027C21.06 25.496 21.111 25.4786 21.157 25.4514C21.2029 25.4242 21.2428 25.3879 21.2741 25.3447C21.3054 25.3014 21.3276 25.2523 21.3391 25.2001L21.8091 23.2001H26.6991C26.7956 23.1849 26.8835 23.1358 26.9469 23.0615C27.0104 22.9873 27.0453 22.8928 27.0453 22.7951C27.0453 22.6975 27.0104 22.603 26.9469 22.5288C26.8835 22.4545 26.7956 22.4054 26.6991 22.3901V22.3701Z" fill="white"/>
<path d="M23.5897 26.4598C22.1476 26.4707 20.742 26.0069 19.5897 25.1398C19.5048 25.0762 19.4487 24.9814 19.4337 24.8764C19.4187 24.7714 19.446 24.6647 19.5097 24.5798C19.5737 24.4927 19.6694 24.4344 19.7762 24.4176C19.8829 24.4007 19.992 24.4267 20.0797 24.4898C21.079 25.2403 22.2949 25.6461 23.5447 25.6461C24.7944 25.6461 26.0104 25.2403 27.0097 24.4898C27.0959 24.4235 27.2049 24.3942 27.3127 24.4082C27.4206 24.4223 27.5184 24.4786 27.5847 24.5648C27.651 24.651 27.6803 24.76 27.6663 24.8679C27.6522 24.9757 27.5959 25.0735 27.5097 25.1398C26.3796 25.991 25.0045 26.4541 23.5897 26.4598Z" fill="white"/>
</g>
<defs>
<clipPath id="clip0_58_2">
<rect width="31.61" height="30" fill="white"/>
</clipPath>
</defs>
</svg>
