<svg xmlns="http://www.w3.org/2000/svg" viewBox="0 0 27.59 32"><defs><style>.cls-1{fill:#f49496;}.cls-2{fill:#b5cd6a;}.cls-3{fill:#bcd874;}.cls-4{fill:#fff;}</style></defs><g id="Layer_2" data-name="Layer 2"><g id="Layer_1-2" data-name="Layer 1"><path class="cls-1" d="M24.28,0,21,3.31h1.65V8.23A12.13,12.13,0,0,0,1.66,16V28.69H0L3.31,32l3.31-3.31H5V24.88a12.14,12.14,0,0,0,21-8.33V3.31h1.66ZM13.79,25.38a8.83,8.83,0,1,1,8.83-8.83A8.82,8.82,0,0,1,13.79,25.38Z"/><path class="cls-2" d="M19.86,16.55a6.07,6.07,0,1,1-6.07-6.07A6.07,6.07,0,0,1,19.86,16.55Z"/><path class="cls-3" d="M18.21,16.55a4.42,4.42,0,1,1-4.42-4.41A4.42,4.42,0,0,1,18.21,16.55Z"/><path class="cls-4" d="M15.55,15a.13.13,0,0,0-.1,0h-.68a1.34,1.34,0,0,0-.25-.57h.93a.12.12,0,0,0,.12-.13v-.41a.16.16,0,0,0,0-.09l-.09,0H12.13a.12.12,0,0,0-.09,0,.18.18,0,0,0,0,.09v.53a.13.13,0,0,0,0,.09.12.12,0,0,0,.09,0h.58c.56,0,.92.15,1.07.45H12.13A.1.1,0,0,0,12,15a.13.13,0,0,0,0,.09v.41a.18.18,0,0,0,0,.09.12.12,0,0,0,.09,0h1.7a.76.76,0,0,1-.41.5,1.7,1.7,0,0,1-.84.17h-.45a.14.14,0,0,0-.13.13V17A.12.12,0,0,0,12,17c.51.55,1.17,1.3,2,2.28a.14.14,0,0,0,.1.05h.78a.13.13,0,0,0,.12-.07.12.12,0,0,0,0-.14c-.78-.95-1.38-1.66-1.83-2.14a2.06,2.06,0,0,0,1.1-.43,1.55,1.55,0,0,0,.52-.94h.66a.17.17,0,0,0,.1,0,.16.16,0,0,0,0-.09v-.41A.12.12,0,0,0,15.55,15Z"/></g></g></svg>