<?xml version="1.0" encoding="utf-8"?>
<!-- Generator: Adobe Illustrator 27.0.1, SVG Export Plug-In . SVG Version: 6.00 Build 0)  -->
<svg version="1.1" id="Layer_1" xmlns="http://www.w3.org/2000/svg" xmlns:xlink="http://www.w3.org/1999/xlink" x="0px" y="0px"
	 viewBox="0 0 1358 290" style="enable-background:new 0 0 1358 290;" xml:space="preserve">
<style type="text/css">
	.st0{fill:#ccd5e0;}
	.st1{fill:#024b62;}
	.st2{fill:#024b62;}
	.st3{fill:#4E7735;}
	.st4{opacity:0.5;fill:#ccd5e0;enable-background:new    ;}
	.st5{fill:#042b62;}
	.st6{opacity:0.3;}
	.st7{fill:#C4AE1A;}
	.st8{fill:#C46C1A;}
	.st9{fill:#C4931A;}
	.st10{opacity:0.3;fill:#024b62;enable-background:new    ;}
	.st11{opacity:0.3;fill:#FED385;enable-background:new    ;}
	.st12{fill:#FED385;}
	.st13{fill:#FC9F21;fill-opacity:0;}
	.st14{fill:#FCEE21;}
	.st15{opacity:0.5;fill:#024b62;enable-background:new    ;}
	.st16{opacity:0.5;fill:#606060;enable-background:new    ;}
	.st17{fill:#FFB085;}
	.st18{fill:#C63E3E;}
	.st19{fill:#0E1D28;}
	.st20{fill:#FF5C55;}
	.st21{opacity:0.3;fill:#B89584;enable-background:new    ;}
	.st22{fill:#0A0A0A;}
	.st23{fill:#E8E1D8;}
	.st24{opacity:0.5;fill:#1C6691;enable-background:new    ;}
	.st25{fill:#5E4E46;}
	.st26{fill:#FFFFFF;}
	.st27{fill:url(#SVGID_1_);}
	.st28{clip-path:url(#SVGID_00000139275539233326520680000010135661438272382863_);}
	.st29{fill:url(#SVGID_00000152961263981037495300000000026133568254598538_);}
	.st30{fill:url(#SVGID_00000026860718971358285960000000220419755435956648_);}
	.st31{fill:#182C3C;}
	.st32{clip-path:url(#SVGID_00000065793664790392262980000010449397789348050604_);}
	.st33{fill:#005263;}
	.st34{clip-path:url(#SVGID_00000026861537301764902790000006000107691276401845_);}
	.st35{fill:#023F47;}
	.st36{clip-path:url(#SVGID_00000088123367124133111180000007285792299252380859_);}
	.st37{clip-path:url(#SVGID_00000076595705504940839830000001454589236545941644_);}
	.st38{fill:#EAEAEA;stroke:#A8A8A8;stroke-width:0.25;stroke-miterlimit:10;}
	.st39{clip-path:url(#SVGID_00000101088278062334362320000007346348297234352280_);}
	.st40{fill:#E2E2E2;}
	.st41{fill:url(#SVGID_00000132809899783124621920000013579651044416395453_);}
	.st42{fill:#FCBDA9;}
	.st43{clip-path:url(#SVGID_00000025402667216229769200000012297011503130578067_);}
	.st44{fill:url(#SVGID_00000039133010087054025450000006198896682450377378_);}
</style>
<path class="st0" d="M1217.3,176.4c-43.3-0.8-75.7,22.1-87.8,49c-12-4.9-27.4-5.9-43.3-0.1c-2.3-32,15.5-70.2,53-94.8
	C1169.5,136.9,1196.9,153,1217.3,176.4z"/>
<path class="st1" d="M1210.9,172.3c-41,1.8-71.2,24.4-82.8,50.4c-12.6-4.4-26.3-4.6-39-0.6c-0.5-30.7,17.6-66.2,53.4-88.9
	C1168.5,139.6,1192.2,153.1,1210.9,172.3z"/>
<path class="st0" d="M1144.3,149.4c-3.4,2.3-9,3.8-15.2,4.7c-14.7,13.3-24.7,29.1-29.8,45c2.8,1.6,4,4.9,3,7.9
	c-0.9,3.3-1.5,6.6-2,10c6.6-0.8,13.3-0.5,19.9,0.7c1.1-3.1,2.5-6.1,4-9s4.8-5,8.8-5.7c9.4-12.9,23.6-24.2,41.4-31.4
	c-1.1-3-0.1-5.7,3.6-7c5-1.8,10.1-3.2,15.2-4.3c-10.7-8.1-22.5-14.6-35-19.3C1153.4,143.6,1148.7,146.4,1144.3,149.4z"/>
<path class="st2" d="M1142.7,168.1c14.2,4.9,17.9,14.1,11.7,18.1c-6.3,4.2-18.9,4.1-30.8,2.1s-20.2-6.7-16.2-13.6
	S1128.5,163.2,1142.7,168.1z"/>
<path class="st3" d="M1120.4,196c4.4,0.7,6.2,3.8,4.5,6.5s-5.9,4.4-9.8,4s-6.5-2.9-5.3-5.9S1116,195.3,1120.4,196z"/>
<path class="st2" d="M1164.2,156.6c5.8,2.8,7.2,6.7,3.6,8.3s-10.5,0.9-16-1.2s-7.8-5.4-4.5-7.7S1158.4,153.7,1164.2,156.6z"/>
<path class="st0" d="M73.9,60.7c0,2.7,2.2,4.8,4.8,4.8H182c2.7,0,4.8-2.2,4.8-4.8c0-1.3-0.5-2.5-1.4-3.4s-2.1-1.4-3.4-1.4h-4.9
	c-2.7-6.4-10.1-9.3-16.5-6.6c-1.5,0.6-2.8,1.6-4,2.7c-4.1-7-12.4-10.2-20.1-7.9c-5.2-9.7-17.3-13.4-27.1-8.2
	c-4.8,2.6-8.3,7-9.8,12.2c-6.2-3.1-13.8-0.6-16.9,5.6c-0.3,0.7-0.6,1.4-0.8,2.1h-3.1C76.1,55.9,73.9,58,73.9,60.7z"/>
<path class="st0" d="M585.4,60.4c0,2.6-2.1,4.7-4.7,4.7H480.3c-2.6,0-4.7-2.1-4.7-4.7s2.1-4.7,4.7-4.7l0,0h4.7
	c2.7-6.2,9.9-9.1,16.1-6.4c1.4,0.6,2.7,1.5,3.8,2.6c4-6.8,12.1-9.9,19.6-7.7c5-9.5,16.8-13.1,26.3-8c4.7,2.5,8.2,6.8,9.6,12
	c1.7-0.9,3.6-1.3,5.5-1.3c5.4,0,10.2,3.6,11.8,8.8h3C583.3,55.7,585.4,57.8,585.4,60.4L585.4,60.4z"/>
<path class="st0" d="M1321.2,63.5c0,0.7-0.3,1.4-0.8,1.9s-1.2,0.8-1.9,0.8h-57c-1.5,0-2.7-1.2-2.7-2.7c0-0.7,0.3-1.4,0.8-1.9
	s1.2-0.8,1.9-0.8h2.7c1.5-3.5,5.6-5.1,9.1-3.6c0.8,0.4,1.6,0.9,2.2,1.5c2.3-3.8,6.9-5.6,11.1-4.3c2.8-5.4,9.4-7.5,14.8-4.7
	c2.7,1.4,4.7,3.9,5.5,6.9c3.5-1.7,7.7-0.3,9.4,3.2c0.2,0.3,0.3,0.7,0.4,1.1h1.7C1320.1,60.9,1321.2,62.1,1321.2,63.5z"/>
<path class="st0" d="M1310,203.7l-3.4-5.6c-0.4-0.4-0.4-1,0-1.4s1-0.4,1.4,0c0.1,0.1,0.2,0.3,0.3,0.4l2.4,4l6.4-3.8
	c0.4-0.4,1-0.4,1.4,0.1c0.4,0.4,0.4,1-0.1,1.4c-0.1,0.1-0.2,0.2-0.4,0.2L1310,203.7z"/>
<path class="st0" d="M1312.3,212.3c-6.8,0-12.3-5.5-12.3-12.3s5.5-12.3,12.3-12.3s12.3,5.5,12.3,12.3l0,0
	C1324.6,206.8,1319.1,212.3,1312.3,212.3z M1312.3,189.4c-5.8,0-10.6,4.7-10.6,10.6c0,5.8,4.7,10.6,10.6,10.6
	c5.8,0,10.6-4.7,10.6-10.6C1322.8,194.2,1318.1,189.4,1312.3,189.4L1312.3,189.4z"/>
<path class="st0" d="M595.5,143.6l-3.4-5.6c-0.3-0.5-0.1-1,0.3-1.3c0.5-0.3,1.1-0.1,1.3,0.3l2.4,4l6.5-3.8c0.5-0.2,1.1,0.1,1.3,0.6
	c0.1,0.4,0,0.8-0.3,1.1L595.5,143.6z"/>
<path class="st0" d="M597.8,152.2c-6.8,0-12.3-5.5-12.3-12.3s5.5-12.3,12.3-12.3s12.3,5.5,12.3,12.3S604.6,152.2,597.8,152.2z
	 M597.8,129.3c-5.8,0-10.6,4.7-10.6,10.6s4.7,10.6,10.6,10.6s10.6-4.7,10.6-10.6C608.4,134.1,603.7,129.3,597.8,129.3L597.8,129.3z"
	/>
<path class="st0" d="M754,167.5l-3.4-5.6c-0.3-0.5-0.1-1.1,0.3-1.4c0.5-0.3,1.1-0.1,1.3,0.3l2.4,4l6.4-3.8c0.5-0.3,1.1-0.1,1.3,0.4
	c0.3,0.5,0.1,1-0.3,1.3L754,167.5z"/>
<path class="st0" d="M756.3,176.1c-6.8,0-12.3-5.5-12.3-12.3s5.5-12.3,12.3-12.3s12.3,5.5,12.3,12.3l0,0
	C768.6,170.6,763.1,176.1,756.3,176.1z M756.3,153.2c-5.8,0-10.6,4.7-10.6,10.6s4.7,10.6,10.6,10.6s10.6-4.7,10.6-10.6
	C766.8,157.9,762.1,153.2,756.3,153.2L756.3,153.2z"/>
<path class="st0" d="M839.9,30.2l-3.7-6c-0.3-0.5-0.1-1.1,0.3-1.4c0.5-0.3,1.1-0.1,1.4,0.3l2.6,4.2l6.9-4.1c0.5-0.3,1.1-0.1,1.4,0.4
	c0.3,0.5,0.1,1.1-0.4,1.4L839.9,30.2z"/>
<path class="st0" d="M842.4,39.4c-7.3,0-13.1-5.9-13.1-13.1c0-7.3,5.9-13.1,13.1-13.1c7.3,0,13.1,5.9,13.1,13.1l0,0
	C855.5,33.5,849.6,39.4,842.4,39.4z M842.4,15c-6.2,0-11.2,5-11.2,11.2s5,11.2,11.2,11.2s11.2-5,11.2-11.2
	C853.7,20.1,848.6,15,842.4,15L842.4,15L842.4,15z"/>
<path class="st0" d="M822.6,201.5l-2.9-4.8c-0.3-0.4-0.2-0.9,0.2-1.2s0.9-0.2,1.2,0.2l0.1,0.1l2.1,3.4l5.5-3.2
	c0.4-0.2,0.9-0.1,1.1,0.3c0.2,0.4,0.1,0.9-0.3,1.1L822.6,201.5z"/>
<path class="st0" d="M824.6,208.8c-5.8,0-10.5-4.7-10.5-10.4c0-5.8,4.7-10.5,10.4-10.5c5.8,0,10.5,4.7,10.5,10.4l0,0
	C835,204.1,830.3,208.8,824.6,208.8z M824.6,189.4c-5,0-9,4-9,9s4,9,9,9s9-4,9-9S829.5,189.4,824.6,189.4z"/>
<path class="st0" d="M775.6,74.1l-2.9-4.8c-0.2-0.4-0.1-0.9,0.3-1.1c0.4-0.2,0.9-0.1,1.1,0.3l0,0l2,3.4l5.5-3.2
	c0.4-0.2,0.9-0.1,1.1,0.3l0,0c0.2,0.4,0.1,0.9-0.3,1.1l0,0L775.6,74.1z"/>
<path class="st0" d="M777.5,81.5c-5.8,0-10.5-4.7-10.5-10.5s4.7-10.5,10.5-10.5S788,65.2,788,70.9C788,76.8,783.3,81.5,777.5,81.5z
	 M777.5,62.1c-5,0-9,4-9,9s4,9,9,9s9-4,9-9S782.5,62.1,777.5,62.1C777.5,62,777.5,62,777.5,62.1z"/>
<path class="st0" d="M659.5,74.5l-6.2-10.2c-0.6-0.8-0.5-1.9,0.2-2.5c0.8-0.6,1.9-0.5,2.5,0.2c0.1,0.1,0.2,0.3,0.3,0.4l4.4,7.2
	l11.8-7c0.8-0.5,1.9-0.2,2.4,0.6c0.5,0.8,0.2,1.9-0.6,2.4l0,0L659.5,74.5z"/>
<path class="st0" d="M663.8,90.3c-12.4,0-22.5-10.1-22.5-22.5s10.1-22.5,22.5-22.5s22.5,10.1,22.5,22.5l0,0
	C686.2,80.3,676.2,90.3,663.8,90.3z M663.8,48.6c-10.6,0-19.3,8.6-19.3,19.2s8.6,19.3,19.2,19.3S683,78.5,683,67.9l0,0
	C683,57.2,674.4,48.6,663.8,48.6z"/>
<path class="st0" d="M471.3,128.9l-6.2-10.2c-0.6-0.8-0.5-1.9,0.3-2.5s1.9-0.5,2.5,0.3c0.1,0.1,0.2,0.3,0.2,0.4l4.4,7.2l11.8-7
	c0.8-0.5,1.9-0.2,2.4,0.6c0.5,0.8,0.2,1.9-0.6,2.4L471.3,128.9z"/>
<path class="st0" d="M475.5,144.6c-12.4,0-22.5-10.1-22.5-22.5s10.1-22.5,22.5-22.5s22.5,10.1,22.5,22.5l0,0
	C498,134.6,487.9,144.6,475.5,144.6z M475.5,102.9c-10.6,0-19.3,8.6-19.3,19.3s8.6,19.3,19.3,19.3s19.3-8.6,19.3-19.3l0,0
	C494.8,111.5,486.2,102.9,475.5,102.9z"/>
<path class="st0" d="M1268.4,228.4l-2.3-3.8c-0.2-0.3-0.1-0.7,0.2-0.9s0.7-0.1,0.9,0.2l1.7,2.7l4.4-2.6c0.3-0.2,0.7-0.1,0.9,0.2l0,0
	c0.2,0.3,0.1,0.7-0.2,0.9L1268.4,228.4z"/>
<path class="st0" d="M1270,234.3c-4.6,0-8.4-3.8-8.4-8.4s3.8-8.4,8.4-8.4s8.4,3.8,8.4,8.4S1274.6,234.3,1270,234.3L1270,234.3z
	 M1270,218.7c-4,0-7.2,3.2-7.2,7.2s3.2,7.2,7.2,7.2s7.2-3.2,7.2-7.2l0,0C1277.2,221.9,1274,218.7,1270,218.7z"/>
<path class="st0" d="M350,220.1l-2.9-4.8c-0.2-0.4-0.1-0.9,0.3-1.1c0.4-0.2,0.9-0.1,1.1,0.3l0,0l2.1,3.4l5.5-3.2
	c0.4-0.2,0.9-0.1,1.1,0.3c0.2,0.4,0.1,0.9-0.3,1.1L350,220.1z"/>
<path class="st0" d="M352,227.4c-5.8,0-10.5-4.7-10.5-10.5s4.7-10.5,10.5-10.5s10.5,4.7,10.5,10.5S357.8,227.4,352,227.4z
	 M352,207.9c-5,0-9,4-9,9s4,9,9,9s9-4,9-9l0,0C361,211.9,357,207.9,352,207.9z"/>
<path class="st0" d="M1237.6,36.3l-2.9-4.8c-0.2-0.4-0.1-0.9,0.3-1.1s0.9-0.1,1.2,0.3l2.1,3.4l5.5-3.2c0.4-0.2,0.9-0.1,1.1,0.3
	s0.1,0.9-0.3,1.1L1237.6,36.3z"/>
<path class="st0" d="M1239.6,43.6c-5.8,0-10.5-4.7-10.5-10.5s4.7-10.5,10.5-10.5s10.5,4.7,10.5,10.5l0,0
	C1250.1,38.9,1245.4,43.6,1239.6,43.6z M1239.6,24.1c-5,0-9,4-9,9s4,9,9,9s9-4,9-9S1244.6,24.1,1239.6,24.1L1239.6,24.1z"/>
<path class="st0" d="M924.3,176.4c43.3-0.8,75.7,22.1,87.8,49c12-4.9,27.4-5.9,43.3-0.1c2.3-32-15.5-70.2-53-94.8
	C972.1,136.9,944.7,153,924.3,176.4z"/>
<path class="st1" d="M930.7,172.3c41,1.8,71.2,24.4,82.8,50.4c12.6-4.4,26.3-4.6,39-0.6c0.5-30.7-17.6-66.2-53.4-88.9
	C973.1,139.6,949.4,153.1,930.7,172.3z"/>
<path class="st0" d="M997.4,149.4c3.4,2.3,9,3.8,15.2,4.7c14.7,13.3,24.7,29.1,29.8,45c-2.8,1.6-4,4.9-3,7.9c0.9,3.3,1.5,6.6,2,10
	c-6.6-0.8-13.3-0.5-19.9,0.7c-1.1-3.1-2.5-6.1-4-9s-4.8-5-8.8-5.7c-9.4-12.9-23.5-24.2-41.4-31.4c1-3,0.1-5.7-3.5-7
	c-5-1.8-10.1-3.2-15.2-4.3c10.7-8.1,22.5-14.6,35-19.3C988.3,143.6,992.9,146.4,997.4,149.4z"/>
<path class="st2" d="M998.9,168.1c-14.2,4.9-17.9,14.1-11.7,18.1c6.3,4.2,18.9,4.1,30.8,2.1c11.9-2,20.3-6.7,16.2-13.6
	S1013.1,163.2,998.9,168.1z"/>
<path class="st2" d="M1021.2,196c-4.4,0.7-6.2,3.8-4.5,6.5s5.9,4.4,9.8,4c3.9-0.4,6.5-2.9,5.3-5.9S1025.6,195.3,1021.2,196z"/>
<path class="st2" d="M977.4,156.6c-5.8,2.8-7.2,6.7-3.6,8.3s10.5,0.9,16-1.2s7.8-5.4,4.5-7.7S983.2,153.7,977.4,156.6z"/>
<path class="st4" d="M273.9,57.4l0.2,0.6c0,0,0,0.1,0,0.2c0,0,0,0,0,0.1v0.1v0.1c0,0.2-0.1,0.3-0.2,0.5h-0.1l0,0h-0.1
	c-0.1,0-0.1,0.1-0.2,0.1l-2.6,0.9c0.4-0.1,0.8,0.1,1,0.4c0,0,0,0.1,0.1,0.1l1.5,4.5c0,0,0,0.1,0,0.2l0,0c0,0,0,0,0,0.1v0.2v0.1l0,0
	c0,0.1-0.1,0.2-0.2,0.3l-0.1,0.1c0,0,0,0-0.1,0l0,0c-0.1,0-0.1,0.1-0.2,0.1l-1.2,0.4c0.4-0.1,0.8,0.1,1,0.4l0.1,0.1l1.5,4.5v0.1l0,0
	c0,0,0,0,0,0.1v0.2V72l0,0c0,0.1-0.1,0.2-0.2,0.3H274l-0.1,0.1l0,0c-0.1,0-0.1,0.1-0.2,0.1L275,72c0.4-0.1,0.8,0.1,1,0.4l0.1,0.1
	l1.5,4.5v0.1c0,0,0,0.1,0,0.2v0.1c0,0.2-0.1,0.3-0.2,0.4v0.1h-0.1l-0.1,0.1l0,0c-0.1,0-0.1,0.1-0.2,0.1l-2.9,1
	c0.4-0.1,0.8,0.1,1,0.4l0.1,0.1l1.5,4.5c0,0.1,0,0.1,0,0.2c0,0,0,0.1,0,0.2s0,0.1,0,0.2v0.1v0.1V85v0.1l-0.1,0.1h-0.1l-0.2,0.1
	l1.2-0.4c0.4-0.1,0.8,0,1,0.4l0.1,0.1L280,90v0.1c0,0.1,0,0.2,0,0.2s0,0,0,0.1c0,0.2-0.1,0.3-0.3,0.5l0,0l0,0h-0.1l-0.2,0.1
	l-2.3,0.8c0.4-0.1,0.8,0.1,1,0.4l0.1,0.1l1.5,4.5v0.1c0,0,0,0,0,0.1v0.1v0.1c0,0.2-0.2,0.4-0.4,0.6h-0.1l-0.2,0.1l-6.6,2.2
	c-0.4-0.1-0.8-0.2-1.3-0.3s-1.1-0.3-1.6-0.6c-1.7-0.7-3.3-1.5-4.8-2.6c-0.2-0.2-0.5-0.3-0.7-0.5l-0.7-0.5c-1.4-1.2-2.7-2.5-3.8-4
	c-0.1-0.2-0.3-0.4-0.4-0.6s-0.3-0.4-0.4-0.6c-0.9-1.4-1.6-3-2.1-4.6l0,0c-0.1-0.2-0.1-0.5-0.2-0.7s-0.1-0.5-0.2-0.7
	c-0.4-1.7-0.7-3.4-0.7-5.1c0-0.2,0-0.5,0-0.8s0-0.5,0-0.8c0.1-1.9,0.4-3.8,1-5.6c0.1-0.3,0.2-0.6,0.3-0.8s0.2-0.6,0.3-0.9
	c1.1-2.5,2.6-4.8,4.5-6.8c0.1-0.1,0.2-0.2,0.3-0.3c0.3-0.3,0.6-0.6,0.9-0.8s0.9-0.8,1.4-1.1l0.2-0.2c1.8-1.3,3.9-2.4,6-3.1l0.3-0.1
	C271.9,57.7,272.9,57.5,273.9,57.4z"/>
<circle class="st0" cx="280.7" cy="77.9" r="21.8"/>
<circle class="st0" cx="280.2" cy="78.1" r="17.3"/>
<path class="st0" d="M274.7,61.7c-0.3,0.1-0.6,0.2-0.9,0.3c9.2-2.5,18.7,3,21.2,12.2c2.3,8.5-2.2,17.4-10.3,20.6
	c0.3-0.1,0.6-0.2,0.9-0.3c9.1-3,14-12.8,11-21.8S283.8,58.6,274.7,61.7C274.7,61.6,274.7,61.6,274.7,61.7z"/>
<ellipse class="st0" cx="280.2" cy="78" rx="11.4" ry="11.4"/>
<path class="st5" d="M283.1,71.7l-0.5-1.6l-6.6,2.2l-2.5,0.8l0.5,1.6l2.5-0.8c1.1-0.3,2.2,0,2.9,0.9l-4.9,1.6L275,78l4.9-1.6
	c0,1.1-0.7,2.1-1.8,2.4l-2.5,0.8l0.5,1.6l0.5-0.2c0.8-0.3,1.6-0.3,2.4-0.1c2.3,0.5,4.3,1.9,5.6,3.8l1.7-0.6
	c-1.5-2.2-3.6-3.9-6.1-4.7c1-0.9,1.5-2.3,1.4-3.7l2.6-0.9l-0.5-1.6l-2.6,0.9c-0.3-0.6-0.8-1.1-1.3-1.4L283.1,71.7z"/>
<path class="st4" d="M614.5,224.6l0.2,0.6v0.1c0,0,0,0,0,0.1v0.1v0.1c0,0.2-0.1,0.3-0.2,0.4v0.1l0,0h-0.1l-0.2,0.1l-2.5,0.8
	c0.4-0.1,0.8,0,1,0.4v0.1l1.4,4.2v0.1l0,0c0,0,0,0,0,0.1l0,0v0.1v0.1l0,0c0,0.1-0.1,0.2-0.2,0.3v0.1h-0.1l0,0l-0.2,0.1l-1.1,0.4
	c0.4-0.2,0.8,0,1,0.4l0.1,0.1l1.4,4.2v0.1l0,0c0,0,0,0,0,0.1v0.1v0.1l0,0c0,0.1-0.1,0.2-0.2,0.3v0.1l-0.1,0.1l0,0l-0.2,0.1l1.1-0.4
	c0.4-0.1,0.8,0,1,0.4v0.1l1.4,4.2v0.1c0,0.1,0,0.1,0,0.1s0,0,0,0.1s-0.1,0.3-0.2,0.4l0,0l-0.1,0.1l-0.1,0.1l0,0l-0.2,0.1l-2.7,0.9
	c0.4-0.1,0.8,0,1,0.4v0.1l1.4,4.2c0,0.1,0,0.1,0,0.2v0.1c0,0.1,0,0.1,0,0.2v0.1c0,0,0,0,0,0.1v0.1v0.1l-0.1,0.1h0
	c0,0-0.1,0.1-0.2,0.1l1.2-0.4c0.4-0.1,0.8,0,1,0.4l0.1,0.1l1.4,4.2v0.1c0,0.1,0,0.1,0,0.2c0,0,0,0,0,0.1c0,0.2-0.1,0.3-0.2,0.4l0,0
	l0,0l0,0l-0.2,0.1l-2.2,0.7c0.4-0.2,0.8,0,1,0.4l0.1,0.1l1.4,4.2v0.1c0,0,0,0,0,0.1v0.1c0,0,0,0,0,0.1c0,0.2-0.2,0.4-0.3,0.5H620
	l-0.2,0.1l-6.2,2c-0.4-0.1-0.8-0.2-1.2-0.3s-1-0.3-1.5-0.5c-1.7-0.4-3.4-1-4.9-1.8c-0.2-0.2-0.4-0.3-0.7-0.5s-0.4-0.3-0.6-0.5
	c-1.3-1.1-2.5-2.4-3.5-3.8c-0.1-0.2-0.3-0.4-0.4-0.6s-0.2-0.4-0.4-0.6c-0.8-1.3-1.5-2.8-2-4.3l0,0c-0.1-0.2-0.1-0.4-0.2-0.6
	s-0.1-0.4-0.2-0.6c-0.4-1.5-0.6-3.1-0.7-4.7c0-0.2,0-0.5,0-0.7s0-0.5,0-0.7c0.1-1.8,0.4-3.6,1-5.3c0.1-0.3,0.2-0.5,0.3-0.8
	s0.2-0.5,0.3-0.8c1-2.4,2.4-4.5,4.2-6.3l0.3-0.3c0.3-0.3,0.5-0.5,0.8-0.8c0.4-0.4,0.8-0.7,1.3-1l0.2-0.2c1.7-1.2,3.6-2.2,5.6-2.9
	l0.3-0.1C612.6,225,613.5,224.8,614.5,224.6z"/>
<ellipse transform="matrix(0.9929 -0.1188 0.1188 0.9929 -24.5635 75.4791)" class="st0" cx="620.8" cy="243.8" rx="20.4" ry="20.4"/>
<circle class="st0" cx="620.3" cy="243.9" r="16.2"/>
<path class="st0" d="M615.3,228.6l-0.9,0.3c8.6-2.3,17.5,2.8,19.8,11.5c2.1,7.9-2,16.2-9.6,19.2c0.3-0.1,0.6-0.2,0.9-0.3
	c8.4-2.9,12.9-12.2,10-20.6C632.5,230.4,623.6,225.9,615.3,228.6L615.3,228.6z"/>
<ellipse transform="matrix(0.8857 -0.4642 0.4642 0.8857 -42.3246 315.8611)" class="st0" cx="620.4" cy="243.9" rx="10.6" ry="10.6"/>
<path class="st5" d="M623.1,238l-0.5-1.5l-6.2,2l-2.4,0.8l0.5,1.5l2.4-0.8c1-0.3,2.1,0,2.7,0.8l-4.5,1.5l0.5,1.5l4.5-1.5
	c0,1-0.7,2-1.7,2.3l-2.4,0.8l0.5,1.5l0.5-0.2c0.7-0.2,1.5-0.3,2.2-0.1c2.1,0.5,4,1.8,5.3,3.6l1.5-0.5c-1.4-2.1-3.4-3.6-5.8-4.4
	c1-0.9,1.4-2.2,1.3-3.4l2.5-0.8l-0.5-1.5l-2.5,0.8c-0.3-0.5-0.7-1-1.2-1.3L623.1,238z"/>
<path class="st4" d="M1017.4,64.2v0.7c0,0.1,0,0.1,0,0.2v0.1v0.1v0.1c-0.1,0.2-0.2,0.3-0.4,0.4h-0.1h-0.1h-0.1c-0.1,0-0.1,0-0.2,0
	h-3c0.5,0,0.8,0.3,0.9,0.8c0,0.1,0,0.1,0,0.2v5.1c0,0,0,0.1,0,0.2l0,0c0,0,0,0,0,0.1s0,0,0,0v0.1l-0.1,0.1l0,0
	c-0.1,0.1-0.2,0.2-0.3,0.3h-0.1h-0.1h-0.1c-0.1,0-0.1,0-0.2,0h-1.4c0.5,0,0.8,0.3,0.9,0.8c0,0.1,0,0.1,0,0.2v5.1c0,0.1,0,0.1,0,0.2
	l0,0v0.1l0,0v0.1V79l0,0c-0.1,0.1-0.2,0.2-0.3,0.3h-0.1h-0.1h-0.1c-0.1,0-0.1,0-0.2,0h1.4c0.5,0,0.8,0.3,0.9,0.8c0,0.1,0,0.1,0,0.2
	v5.1c0,0.1,0,0.1,0,0.2s0,0.1,0,0.2v0.1c-0.1,0.2-0.2,0.3-0.3,0.4h-0.1h-0.1h-0.1h-0.1h-0.2h-3.2c0.5,0,0.8,0.3,0.9,0.8
	c0,0,0,0.1,0,0.2v5.1c0,0.1,0,0.2,0,0.2c0,0.1,0,0.1-0.1,0.2c0,0.1-0.1,0.1-0.1,0.2v0.1l-0.1,0.1h-0.1h-0.1c-0.1,0-0.1,0.1-0.2,0.1
	h-0.1c-0.1,0-0.1,0-0.2,0h1.4c0.5,0,0.8,0.3,0.9,0.8c0,0.1,0,0.1,0,0.2V99c0,0.1,0,0.1,0,0.2s0,0.2-0.1,0.2l0,0
	c-0.1,0.2-0.2,0.3-0.4,0.4h-0.1h-0.1h-0.1c-0.1,0-0.1,0-0.2,0h-3.1c0.4,0,0.8,0.3,0.9,0.8c0,0.1,0,0.1,0,0.2v5.1c0,0.1,0,0.1,0,0.2
	c0,0,0,0,0,0.1v0.1c0,0,0,0,0,0.1c-0.1,0.2-0.3,0.4-0.5,0.4h-0.1h-0.2h-7.5c-0.4-0.2-0.8-0.5-1.2-0.8s-1-0.7-1.5-1.1
	c-1.5-1.3-2.9-2.7-4.1-4.3c-0.2-0.2-0.4-0.5-0.5-0.8s-0.3-0.5-0.5-0.8c-1.1-1.7-1.9-3.5-2.5-5.4c-0.1-0.3-0.2-0.5-0.2-0.8
	s-0.1-0.5-0.2-0.8c-0.4-1.8-0.6-3.6-0.6-5.4l0,0c0-0.3,0-0.5,0-0.8s0-0.5,0-0.8c0.1-1.8,0.5-3.7,1-5.4c0.1-0.3,0.2-0.5,0.3-0.8
	s0.2-0.5,0.3-0.8c0.8-1.9,1.8-3.8,3-5.4c0.2-0.3,0.4-0.5,0.6-0.8s0.4-0.5,0.6-0.8c1.9-2.2,4.3-4.1,6.9-5.4l0.4-0.2
	c0.4-0.2,0.8-0.4,1.2-0.6c0.6-0.2,1.2-0.5,1.8-0.7l0.3-0.1c2.3-0.7,4.8-1.1,7.2-1.1h0.4C1015.3,63.3,1016.3,63.7,1017.4,64.2z"/>
<ellipse transform="matrix(0.1999 -0.9798 0.9798 0.1999 728.251 1066.845)" class="st0" cx="1017.4" cy="87.5" rx="23.6" ry="23.6"/>
<circle class="st0" cx="1016.8" cy="87.5" r="18.7"/>
<path class="st0" d="M1016.8,68.8c-0.4,0-0.7,0-1.1,0c10.3,0.6,18.2,9.4,17.6,19.7c-0.5,9.5-8.1,17.1-17.6,17.6c0.4,0,0.7,0,1.1,0
	c10.3,0,18.7-8.4,18.7-18.7S1027.1,68.8,1016.8,68.8L1016.8,68.8L1016.8,68.8z"/>
<ellipse transform="matrix(0.9868 -0.1618 0.1618 0.9868 -0.755 165.6706)" class="st0" cx="1016.8" cy="87.5" rx="12.3" ry="12.3"/>
<path class="st5" d="M1022,82v-1.8h-10.4V82h2.9c1.2,0,2.3,0.8,2.6,1.9h-5.5v1.8h5.5c-0.4,1.1-1.4,1.9-2.6,1.9h-2.9v1.8h0.6
	c0.9,0,1.7,0.2,2.5,0.7c2.1,1.3,3.7,3.4,4.5,5.8h1.9c-0.8-2.8-2.4-5.2-4.7-6.9c1.4-0.6,2.4-1.8,2.7-3.3h3v-1.8h-3
	c-0.1-0.7-0.4-1.3-0.9-1.9H1022z"/>
<path class="st0" d="M1159.4,79.8h-1.3c-2.5,0-4.6-2.1-4.6-4.6l0,0c0,2.5-2.1,4.6-4.6,4.6l0,0c2.5,0,4.6,2.1,4.6,4.6l0,0
	c0-2.5,2.1-4.6,4.6-4.6H1159.4z"/>
<path class="st5" d="M1134.2,263.9l43.7-36.5C1177.9,227.3,1173.5,273.4,1134.2,263.9z"/>
<path class="st1" d="M1134.2,263.9l43.7-36.5C1177.9,227.3,1131.8,223.4,1134.2,263.9z"/>
<path class="st5" d="M1131,270.9l38.2-2.2C1169.2,268.6,1148.4,291.8,1131,270.9z"/>
<path class="st1" d="M1131,270.9l38.2-2.2C1169.2,268.6,1145.8,248.1,1131,270.9z"/>
<path class="st1" d="M1032.7,255.2l-41-23.6C991.7,231.6,1028.9,221.8,1032.7,255.2z"/>
<path class="st5" d="M1032.7,255.2l-41-23.6C991.7,231.6,1001.9,268.7,1032.7,255.2z"/>
<path class="st1" d="M1036.2,263.5l-59.9,1.9C976.4,265.4,1009.9,230.1,1036.2,263.5z"/>
<path class="st5" d="M1036.2,263.5l-59.9,1.9C976.4,265.4,1012,298.6,1036.2,263.5z"/>
<path class="st0" d="M1128.2,54.4h-1.7c-3.2,0-5.8-2.6-5.8-5.8l0,0c0,3.2-2.6,5.8-5.8,5.8l0,0c3.2,0,5.8,2.6,5.8,5.9l0,0l0,0
	c0-3.2,2.6-5.9,5.8-5.9l0,0H1128.2z"/>
<path class="st0" d="M997.5,30.4h-1.7c-3.2,0-5.8-2.6-5.8-5.9l0,0c0,3.2-2.6,5.9-5.9,5.9l0,0c3.2,0,5.9,2.6,5.9,5.8l0,0l0,0
	c0-3.2,2.6-5.8,5.8-5.9L997.5,30.4L997.5,30.4z"/>
<path class="st0" d="M961.3,22.4h-1.7c-3.2,0-5.8-2.6-5.8-5.9l0,0c0,3.2-2.6,5.9-5.8,5.9l0,0l0,0c3.2,0,5.9,2.6,5.9,5.8l0,0l0,0
	c0-3.2,2.6-5.8,5.8-5.9L961.3,22.4L961.3,22.4z"/>
<path class="st0" d="M1177.8,90.1h-1.3c-2.5,0-4.6-2.1-4.6-4.6l0,0c0,2.5-2.1,4.6-4.6,4.6l0,0l0,0c2.5,0,4.6,2,4.6,4.6l0,0l0,0
	c0-2.5,2.1-4.6,4.6-4.6H1177.8z"/>
<path class="st0" d="M1166.2,24h-1.3c-2.5,0-4.6-2.1-4.6-4.6l0,0c0,2.5-2.1,4.6-4.6,4.6l0,0c2.5,0,4.6,2.1,4.6,4.6l0,0
	c0-2.5,2.1-4.6,4.6-4.6H1166.2z"/>
<path class="st0" d="M980.6,96h-1.2c-2.3,0-4.2-1.9-4.2-4.2l0,0l0,0c0,2.3-1.9,4.2-4.2,4.2l0,0l0,0c2.3,0,4.2,1.9,4.2,4.2l0,0l0,0
	c0-2.3,1.9-4.2,4.2-4.2l0,0H980.6z"/>
<path class="st0" d="M1058.9,18.1h-2.5c-4.8,0-8.7-3.9-8.7-8.7l0,0c0,4.8-3.9,8.7-8.7,8.7l0,0c4.8,0,8.7,3.9,8.7,8.7l0,0
	c0-4.8,3.9-8.7,8.7-8.7L1058.9,18.1z"/>
<path class="st0" d="M1187.1,53.2h-2.5c-4.8,0-8.7-3.9-8.7-8.7l0,0c0,4.8-3.9,8.7-8.7,8.7l0,0c4.8,0,8.7,3.9,8.7,8.7l0,0
	c0-4.8,3.9-8.7,8.7-8.7l0,0H1187.1z"/>
<path class="st5" d="M1036.9,263.8v5.4c0,0.1,0,0.1,0,0.2v0.1v0.1l0,0v0.1l-0.1,0.1l-0.1,0.1l-0.1,0.1h-0.1l-0.1,0.1l0,0h-0.2l0,0
	h-0.2h-37.8H998l0,0h0c-0.1,0-0.1,0-0.2-0.1h-0.1l-0.1-0.1l-0.1-0.1l-0.1-0.1c0,0,0-0.1-0.1-0.1l0,0v-0.1c0,0,0,0,0-0.1s0-0.1,0-0.2
	v-5.4c0-0.1,0-0.1,0-0.2c0.1-0.5,0.5-0.8,1-0.8h37.5c0.5,0,0.9,0.3,1,0.8C1037,263.7,1036.9,263.8,1036.9,263.8z"/>
<g class="st6">
	<rect x="1000.8" y="262.8" class="st2" width="3.3" height="7.4"/>
	<rect x="1006.2" y="262.8" class="st2" width="3.3" height="7.4"/>
	<rect x="1025.1" y="262.8" class="st2" width="8.3" height="7.4"/>
</g>
<path class="st2" d="M1036.9,263.6h-39.5c0.1-0.5,0.5-0.8,1-0.8h37.5C1036.4,262.8,1036.8,263.2,1036.9,263.6z"/>
<path class="st2" d="M1036.9,269.4C1036.9,269.4,1036.9,269.5,1036.9,269.4c0,0.1,0,0.2,0,0.2l0,0v0.1l-0.1,0.1l-0.1,0.1l-0.1,0.1
	h-0.1l-0.1,0.1l0,0h-0.2l0,0h-0.2h-37.7h-0.2l0,0H998c-0.1,0-0.1,0-0.2-0.1h-0.1l-0.1-0.1l-0.1-0.1l-0.1-0.1c0,0,0-0.1-0.1-0.1l0,0
	v-0.1c0,0,0,0,0-0.1H1036.9z"/>
<path class="st5" d="M1038.1,256.4v5.4c0,0.1,0,0.1,0,0.2c0,0,0,0,0,0.1v0.1l0,0c0,0.1-0.1,0.1-0.1,0.2l0,0l-0.1,0.1h-0.1h-0.1
	c0,0-0.1,0.1-0.2,0.1h-0.2l0,0c-0.1,0-0.1,0-0.2,0h-37.7c-0.1,0-0.1,0-0.2,0l0,0H999l-0.2-0.1h0.2l-0.1-0.1l-0.1-0.1v-0.1l-0.1-0.1
	l0,0V262c0,0,0,0,0-0.1s0-0.1,0-0.2v-5.4c0-0.1,0-0.1,0-0.2c0.1-0.5,0.5-0.8,1-0.8h37.5c0.5,0,0.9,0.3,1,0.8
	C1038.2,256.3,1038.2,256.4,1038.1,256.4z"/>
<g class="st6">
	<rect x="1002.1" y="255.4" class="st2" width="3.3" height="7.4"/>
	<rect x="1007.4" y="255.4" class="st2" width="3.3" height="7.4"/>
	<rect x="1026.3" y="255.4" class="st2" width="8.3" height="7.4"/>
</g>
<path class="st2" d="M1038.1,256.2h-39.5c0.1-0.5,0.5-0.8,1-0.8h37.6C1037.6,255.4,1038,255.8,1038.1,256.2z"/>
<path class="st2" d="M1038.1,262L1038.1,262c0,0.1,0,0.2,0,0.2l0,0c0,0.1-0.1,0.1-0.1,0.2l0,0l-0.1,0.1h-0.1h-0.1
	c0,0-0.1,0.1-0.2,0.1h-0.2l0,0c-0.1,0-0.1,0-0.2,0h-37.7c-0.1,0-0.1,0-0.2,0l0,0H999l-0.2-0.1h0.2l-0.1-0.1l-0.1-0.1v-0.1l-0.1-0.1
	l0,0V262c0,0,0,0,0-0.1L1038.1,262z"/>
<path class="st5" d="M1041.6,249v5.4c0,0.1,0,0.1,0,0.2v0.1v0.1l0,0c0,0,0,0.1-0.1,0.1c0,0,0,0.1-0.1,0.1c0,0.1-0.1,0.1-0.2,0.2
	l-0.1,0.1h-0.1l0,0c0,0-0.1,0-0.2,0l0,0h-0.2h-37.5h-0.2l0,0c-0.1,0-0.1,0-0.2,0l-0.2-0.1l-0.1-0.1c0,0,0,0-0.1-0.1l-0.1-0.1l0,0
	l-0.1-0.1c0,0,0-0.1-0.1-0.1l0,0v-0.1c0,0,0,0,0-0.1s0-0.1,0-0.2V249c0-0.1,0-0.1,0-0.2c0.1-0.5,0.5-0.8,1-0.8h37.6
	c0.5,0,0.9,0.3,1,0.8C1041.8,248.9,1041.7,249,1041.6,249z"/>
<g class="st6">
	<rect x="1005.5" y="248" class="st2" width="3.3" height="7.4"/>
	<rect x="1010.9" y="248" class="st2" width="3.3" height="7.4"/>
	<rect x="1029.8" y="248" class="st2" width="8.3" height="7.4"/>
</g>
<path class="st2" d="M1041.6,248.8h-39.5c0.1-0.5,0.5-0.8,1-0.8h37.6C1041.1,248,1041.5,248.4,1041.6,248.8z"/>
<path class="st2" d="M1041.6,254.6L1041.6,254.6c0,0.1,0,0.2,0,0.2l0,0c0,0,0,0.1-0.1,0.1c0,0,0,0.1-0.1,0.1c0,0.1-0.1,0.1-0.2,0.2
	l-0.1,0.1h-0.1l0,0c0,0-0.1,0-0.2,0l0,0h-0.2h-37.5h-0.2l0,0c-0.1,0-0.1,0-0.2,0l-0.2-0.1l-0.1-0.1c0,0,0,0-0.1-0.1l-0.1-0.1l0,0
	l-0.1-0.1c0,0,0-0.1-0.1-0.1l0,0v-0.1c0,0,0,0,0-0.1L1041.6,254.6z"/>
<path class="st5" d="M1039.6,241.6v5.4c0,0.1,0,0.2-0.1,0.3l0,0c0,0.1,0,0.1-0.1,0.1c0,0,0,0.1-0.1,0.1l-0.1,0.1l-0.1,0.1h-0.1
	c0,0-0.1,0.1-0.2,0.1h-0.2l0,0c-0.1,0-0.1,0-0.2,0h-37.5c-0.1,0-0.1,0-0.2,0l0,0h-0.2l0,0c0,0-0.1,0-0.1-0.1l-0.1-0.1
	c-0.1-0.1-0.1-0.1-0.2-0.2l-0.1-0.1l-0.1-0.1l0,0v-0.1c0,0,0,0,0-0.1s0-0.1,0-0.2v-5.4c0-0.1,0-0.1,0-0.2c0.1-0.5,0.5-0.8,1-0.8
	h37.5c0.5,0,0.9,0.3,1,0.8C1039.7,241.5,1039.7,241.5,1039.6,241.6z"/>
<g class="st6">
	<rect x="1003.5" y="240.6" class="st2" width="3.3" height="7.4"/>
	<rect x="1008.9" y="240.6" class="st2" width="3.3" height="7.4"/>
	<rect x="1027.8" y="240.6" class="st2" width="8.3" height="7.4"/>
</g>
<path class="st2" d="M1039.6,241.4h-39.5c0.1-0.5,0.5-0.8,1-0.8h37.5C1039.1,240.6,1039.5,240.9,1039.6,241.4z"/>
<path class="st2" d="M1039.6,247.2v0.1l0,0c0,0.1,0,0.1-0.1,0.1c0,0,0,0.1-0.1,0.1l-0.1,0.1l-0.1,0.1h-0.1c0,0-0.1,0.1-0.2,0.1h-0.2
	l0,0c-0.1,0-0.1,0-0.2,0H1001c-0.1,0-0.1,0-0.2,0l0,0h-0.2l0,0c0,0-0.1,0-0.1-0.1l-0.1-0.1c-0.1-0.1-0.1-0.1-0.2-0.2l-0.1-0.1
	l-0.1-0.1l0,0v-0.1c0,0,0,0,0-0.1L1039.6,247.2z"/>
<path class="st5" d="M1041.6,234.2v5.4c0,0.1,0,0.1,0,0.2l0,0c0,0.1,0,0.1,0,0.2l-0.1,0.1c0,0,0,0.1-0.1,0.1c0,0.1-0.1,0.1-0.2,0.2
	l-0.1,0.1l-0.1,0.1l0,0h-0.2l0,0c-0.1,0-0.1,0-0.2,0h-37.5c-0.1,0-0.1,0-0.2,0l0,0h-0.2c-0.1,0-0.1,0-0.2-0.1l-0.1-0.1h-0.1
	l-0.1-0.1l0,0l-0.1-0.1l-0.1-0.1c0-0.1,0-0.1,0-0.2l0,0c0-0.1,0-0.1,0-0.2v-5.4c0-0.1,0-0.1,0-0.2c0.1-0.5,0.5-0.8,1-0.8h37.6
	c0.5,0,0.9,0.3,1,0.8C1041.8,234.1,1041.7,234.2,1041.6,234.2z"/>
<g class="st6">
	<rect x="1005.5" y="233.2" class="st2" width="3.3" height="7.4"/>
	<rect x="1010.9" y="233.2" class="st2" width="3.3" height="7.4"/>
	<rect x="1029.8" y="233.2" class="st2" width="8.3" height="7.4"/>
</g>
<path class="st2" d="M1041.6,234h-39.5c0.1-0.5,0.5-0.8,1-0.8h37.6C1041.1,233.2,1041.5,233.5,1041.6,234z"/>
<path class="st2" d="M1041.6,239.8L1041.6,239.8c0,0.1,0,0.1,0,0.2l-0.1,0.1c0,0,0,0.1-0.1,0.1c0,0.1-0.1,0.1-0.2,0.2l-0.1,0.1
	l-0.1,0.1l0,0h-0.2l0,0c-0.1,0-0.1,0-0.2,0h-37.5c-0.1,0-0.1,0-0.2,0l0,0h-0.2c-0.1,0-0.1,0-0.2-0.1l-0.1-0.1h-0.1l-0.1-0.1l0,0
	l-0.1-0.1l-0.1-0.1c0-0.1,0-0.1,0-0.2l0,0L1041.6,239.8z"/>
<path class="st5" d="M1039.6,226.8v5.4c0,0.1,0,0.1,0,0.2l0,0c0,0.1,0,0.1-0.1,0.2l-0.1,0.1l-0.1,0.1c0,0.1-0.1,0.1-0.2,0.2
	l-0.1,0.1l-0.1,0.1l0,0c0,0-0.1,0-0.2,0.1l0,0c-0.1,0-0.1,0-0.2,0H1001c-0.1,0-0.1,0-0.2,0l0,0l-0.2-0.1l-0.2-0.1l-0.1-0.1l-0.1-0.1
	l-0.1-0.1l0,0l-0.1-0.1l-0.1-0.1c0-0.1,0-0.1,0-0.2l0,0c0-0.1,0-0.1,0-0.2v-5.4c0-0.1,0-0.1,0-0.2c0.1-0.5,0.5-0.8,1-0.8h37.5
	c0.5,0,0.9,0.3,1,0.8C1039.8,226.7,1039.7,226.7,1039.6,226.8z"/>
<g class="st6">
	<rect x="1003.5" y="225.8" class="st2" width="3.3" height="7.4"/>
	<rect x="1008.9" y="225.8" class="st2" width="3.3" height="7.4"/>
	<rect x="1027.8" y="225.8" class="st2" width="8.3" height="7.4"/>
</g>
<path class="st2" d="M1039.6,226.6h-39.5c0.1-0.5,0.5-0.8,1-0.8h37.5C1039.1,225.8,1039.5,226.1,1039.6,226.6z"/>
<path class="st2" d="M1039.6,232.4L1039.6,232.4c0,0.1,0,0.1-0.1,0.2l-0.1,0.1l-0.1,0.1c0,0.1-0.1,0.1-0.2,0.2l-0.1,0.1l-0.1,0.1
	l0,0c0,0-0.1,0-0.2,0.1l0,0c-0.1,0-0.1,0-0.2,0H1001c-0.1,0-0.1,0-0.2,0l0,0l-0.2-0.1l-0.2-0.1l-0.1-0.1l-0.1-0.1l-0.1-0.1l0,0
	l-0.1-0.1l-0.1-0.1c0-0.1,0-0.1,0-0.2l0,0L1039.6,232.4z"/>
<path class="st5" d="M1038.1,219.3v5.4c0,0.1,0,0.1,0,0.2c0,0,0,0,0,0.1s0,0.1,0,0.2c0,0,0,0.1-0.1,0.1l-0.1,0.1
	c0,0.1-0.1,0.1-0.2,0.2l-0.1,0.1c0,0-0.1,0-0.1,0.1l0,0h-0.2l0,0c-0.1,0-0.1,0-0.2,0h-37.7c-0.1,0-0.1,0-0.2,0l0,0H999
	c-0.1,0-0.1,0-0.2-0.1h0.2c0,0,0,0-0.1-0.1l-0.1-0.1l0,0l-0.1-0.1c0,0,0-0.1-0.1-0.1c0-0.1,0-0.1-0.1-0.2c0,0,0,0,0-0.1s0-0.1,0-0.2
	v-5.4c0-0.1,0-0.1,0-0.2c0.1-0.5,0.5-0.8,1-0.8h37.6c0.5,0,0.9,0.3,1,0.8C1038.2,219.3,1038.2,219.3,1038.1,219.3z"/>
<g class="st6">
	<rect x="1002.1" y="218.4" class="st2" width="3.3" height="7.4"/>
	<rect x="1007.4" y="218.4" class="st2" width="3.3" height="7.4"/>
	<rect x="1026.3" y="218.3" class="st2" width="8.3" height="7.4"/>
</g>
<path class="st2" d="M1038.1,219.2h-39.5c0.1-0.5,0.5-0.8,1-0.8h37.6C1037.6,218.4,1038,218.7,1038.1,219.2z"/>
<path class="st2" d="M1038.1,224.9C1038.1,225,1038.1,225,1038.1,224.9c0,0.1,0,0.2,0,0.2s0,0.1-0.1,0.1l-0.1,0.1
	c0,0.1-0.1,0.1-0.2,0.2l-0.1,0.1c0,0-0.1,0-0.1,0.1l0,0h-0.2l0,0c-0.1,0-0.1,0-0.2,0h-37.7c-0.1,0-0.1,0-0.2,0l0,0H999
	c-0.1,0-0.1,0-0.2-0.1h0.2c0,0,0,0-0.1-0.1l-0.1-0.1l0,0l-0.1-0.1c0,0,0-0.1-0.1-0.1c0-0.1,0-0.1-0.1-0.2c0,0,0,0,0-0.1
	L1038.1,224.9z"/>
<path class="st5" d="M1043.8,211.9v5.4c0,0.1,0,0.1,0,0.2l0,0c0,0.1,0,0.1,0,0.2c0,0,0,0.1-0.1,0.1c0,0,0,0.1-0.1,0.1
	c0,0.1-0.1,0.1-0.2,0.2l-0.1,0.1c0,0-0.1,0-0.1,0.1l0,0l-0.2,0.1l0,0h-0.2h-37.5h-0.2l0,0l-0.2-0.1c-0.1,0-0.1,0-0.1-0.1l-0.1-0.1
	c0,0,0,0-0.1,0l-0.1-0.1l0,0l-0.1-0.1l-0.1-0.1c0-0.1,0-0.1,0-0.2l0,0c0-0.1,0-0.1,0-0.2V212c0-0.1,0-0.1,0-0.2
	c0.1-0.5,0.5-0.8,1-0.8h37.5C1043.3,211,1043.7,211.3,1043.8,211.9C1043.9,211.9,1043.9,211.9,1043.8,211.9z"/>
<g class="st6">
	<rect x="1007.7" y="210.9" class="st2" width="3.3" height="7.4"/>
	<rect x="1013" y="210.9" class="st2" width="3.3" height="7.4"/>
	<rect x="1032" y="210.9" class="st2" width="8.3" height="7.4"/>
</g>
<path class="st2" d="M1043.8,211.8h-39.5c0.1-0.5,0.5-0.8,1-0.8h37.6C1043.3,210.9,1043.7,211.3,1043.8,211.8z"/>
<path class="st2" d="M1043.8,217.5L1043.8,217.5c0,0.1,0,0.1,0,0.2c0,0,0,0.1-0.1,0.1c0,0,0,0.1-0.1,0.1c0,0.1-0.1,0.1-0.2,0.2
	l-0.1,0.1c0,0-0.1,0-0.1,0.1l0,0l-0.2,0.1l0,0h-0.2h-37.5h-0.2l0,0l-0.2-0.1c-0.1,0-0.1,0-0.1-0.1l-0.1-0.1c0,0,0,0-0.1,0l-0.1-0.1
	l0,0l-0.1-0.1l-0.1-0.1c0-0.1,0-0.1,0-0.2l0,0L1043.8,217.5z"/>
<path class="st5" d="M1045,207.1c0,0.1,0,0.1,0,0.2l-1.1,5.3c0,0.1,0,0.1-0.1,0.2c0,0.1-0.1,0.2-0.2,0.3l-0.1,0.1l-0.1,0.1l-0.1,0.1
	l0,0c0,0-0.1,0-0.1,0.1c-0.1,0-0.1,0-0.2,0.1h-0.2c-0.1,0-0.1,0-0.2,0l-1.2-0.2l-0.9-0.2l-0.4-0.1l-2.2-0.4l-1.5-0.3l0,0l-4.5-0.9
	l-3.3-0.7l-12-2.4l-3.3-0.7l-2-0.4l-3.3-0.7l-2.4-0.5c-0.1,0-0.2-0.1-0.3-0.1l-0.1-0.1c-0.2-0.2-0.3-0.5-0.3-0.8c0-0.1,0-0.1,0-0.2
	l1.1-5.3c0-0.1,0-0.1,0-0.2c0.2-0.4,0.6-0.7,1.1-0.6l2.4,0.5l3.3,0.7l2,0.4l3.3,0.7l11.1,2.3l4.1,0.8l1.7,0.4l6.4,1.3l2.4,0.5
	C1044.7,206.1,1045,206.6,1045,207.1z"/>
<g class="st6">
	
		<rect x="1007.1" y="201.3" transform="matrix(0.1987 -0.9801 0.9801 0.1987 611.0125 1153.2811)" class="st2" width="7.4" height="3.3"/>
	
		<rect x="1012.4" y="202.5" transform="matrix(0.1987 -0.9801 0.9801 0.1987 614.1365 1159.3588)" class="st2" width="7.4" height="3.3"/>
	<polygon class="st2" points="1041.8,205.6 1041.8,205.6 1041.7,206.4 1040.5,212 1040.5,212.1 1040.3,212.8 1038.1,212.4 
		1036.7,212.1 1036.7,212.1 1032.2,211.2 1032.3,210.4 1033.5,204.7 1033.6,203.9 1035.4,204.3 	"/>
</g>
<path class="st2" d="M1045,207.1l-3.4-0.7l-8.2-1.6l-4.1-0.8l-11.2-2.3l-3.3-0.7l-2-0.4l-3.3-0.7l-3.4-0.7c0.2-0.4,0.6-0.7,1.1-0.6
	l2.4,0.5l3.3,0.7l2,0.4l3.3,0.7l11.1,2.3l4.1,0.8l1.7,0.4l6.4,1.3l2.4,0.5C1044.7,206.2,1045,206.6,1045,207.1z"/>
<path class="st2" d="M1043.9,212.7c0,0.1-0.1,0.2-0.2,0.3l-0.1,0.1l-0.1,0.1l-0.1,0.1l0,0c0,0-0.1,0-0.1,0.1c-0.1,0-0.1,0-0.2,0.1
	h-0.2c-0.1,0-0.1,0-0.2,0l-1.2-0.2l-0.9-0.2l-0.4-0.1l-2.2-0.4l-1.5-0.3l0,0l-4.5-0.9l-3.3-0.7l-12-2.4l-3.3-0.7l-2-0.4l-3.3-0.7
	l-2.4-0.5c-0.1,0-0.2-0.1-0.3-0.1l-0.1-0.1c-0.2-0.2-0.3-0.5-0.3-0.8l3.4,0.7l3.3,0.7l2,0.4l3.3,0.7l11.9,2.4l3.4,0.7l8.2,1.7
	L1043.9,212.7z"/>
<path class="st5" d="M1161.6,263.8v5.4c0,0.6-0.4,1-1,1H1123c-0.6,0-1-0.4-1-1v-5.4c0-0.1,0-0.1,0-0.2c0.1-0.5,0.5-0.8,1-0.8h37.6
	c0.5,0,0.9,0.3,1,0.8C1161.6,263.7,1161.6,263.8,1161.6,263.8z"/>
<g class="st6">
	<rect x="1125.5" y="262.8" class="st2" width="3.3" height="7.4"/>
	<rect x="1130.8" y="262.8" class="st2" width="3.3" height="7.4"/>
	<rect x="1149.8" y="262.8" class="st2" width="8.3" height="7.4"/>
</g>
<path class="st2" d="M1161.5,263.6H1122c0.1-0.5,0.5-0.8,1-0.8h37.6C1161,262.8,1161.4,263.2,1161.5,263.6z"/>
<path class="st2" d="M1122,269.4h39.5c-0.1,0.5-0.5,0.8-1,0.8H1123C1122.5,270.2,1122.1,269.9,1122,269.4z"/>
<path class="st5" d="M1156.7,256.4v5.4c0,0.6-0.4,1-1,1h-37.6c-0.6,0-1-0.4-1-1v-5.4c0-0.1,0-0.1,0-0.2c0.1-0.5,0.5-0.8,1-0.8h37.6
	c0.5,0,0.9,0.3,1,0.8C1156.7,256.3,1156.7,256.3,1156.7,256.4z"/>
<g class="st6">
	<rect x="1120.6" y="255.4" class="st7" width="3.3" height="7.4"/>
	<rect x="1125.9" y="255.4" class="st7" width="3.3" height="7.4"/>
	<rect x="1144.9" y="255.4" class="st7" width="8.3" height="7.4"/>
</g>
<path class="st2" d="M1156.6,256.2h-39.5c0.1-0.5,0.5-0.8,1-0.8h37.6C1156.2,255.4,1156.6,255.8,1156.6,256.2z"/>
<path class="st2" d="M1117.1,262h39.5c-0.1,0.5-0.5,0.8-1,0.8H1118C1117.6,262.8,1117.2,262.5,1117.1,262z"/>
<path class="st5" d="M1152.3,249v5.4c0,0.6-0.4,1-1,1h-37.6c-0.6,0-1-0.4-1-1V249c0-0.1,0-0.1,0-0.2c0.1-0.5,0.5-0.8,1-0.8h37.6
	c0.5,0,0.9,0.3,1,0.8C1152.3,248.9,1152.3,248.9,1152.3,249z"/>
<g class="st6">
	<rect x="1116.2" y="248" class="st2" width="3.3" height="7.4"/>
	<rect x="1121.6" y="248" class="st2" width="3.3" height="7.4"/>
	<rect x="1140.5" y="248" class="st2" width="8.3" height="7.4"/>
</g>
<path class="st2" d="M1152.2,248.8h-39.5c0.1-0.5,0.5-0.8,1-0.8h37.6C1151.8,248,1152.2,248.4,1152.2,248.8z"/>
<path class="st2" d="M1112.8,254.6h39.5c-0.1,0.5-0.5,0.8-1,0.8h-37.6C1113.2,255.4,1112.8,255.1,1112.8,254.6z"/>
<path class="st5" d="M1156.7,241.5v5.4c0,0.6-0.4,1-1,1h-37.6c-0.6,0-1-0.4-1-1v-5.4c0-0.1,0-0.1,0-0.2c0.1-0.5,0.5-0.8,1-0.8h37.6
	c0.5,0,0.9,0.3,1,0.8C1156.7,241.4,1156.7,241.4,1156.7,241.5z"/>
<g class="st6">
	<rect x="1120.6" y="240.5" class="st2" width="3.3" height="7.4"/>
	<rect x="1125.9" y="240.5" class="st2" width="3.3" height="7.4"/>
	<rect x="1144.9" y="240.5" class="st2" width="8.3" height="7.4"/>
</g>
<path class="st2" d="M1156.6,241.3h-39.5c0.1-0.5,0.5-0.8,1-0.8h37.6C1156.2,240.5,1156.6,240.8,1156.6,241.3z"/>
<path class="st2" d="M1117.1,247.1h39.5c-0.1,0.5-0.5,0.8-1,0.8H1118C1117.6,247.9,1117.2,247.5,1117.1,247.1z"/>
<path class="st5" d="M1152.3,234.2v5.4c0,0.6-0.4,1-1,1h-37.6c-0.6,0-1-0.4-1-1v-5.4c0-0.6,0.4-1,1-1h37.6c0.5,0,0.9,0.3,1,0.8
	C1152.3,234,1152.3,234.1,1152.3,234.2z"/>
<g class="st6">
	<rect x="1116.2" y="233.2" class="st2" width="3.3" height="7.4"/>
	<rect x="1121.6" y="233.2" class="st2" width="3.3" height="7.4"/>
	<rect x="1140.5" y="233.2" class="st2" width="8.3" height="7.4"/>
</g>
<path class="st2" d="M1152.2,234h-39.5c0.1-0.5,0.5-0.8,1-0.8h37.6C1151.8,233.2,1152.2,233.5,1152.2,234z"/>
<path class="st2" d="M1112.8,239.8h39.5c-0.1,0.5-0.5,0.8-1,0.8h-37.6C1113.2,240.6,1112.8,240.2,1112.8,239.8z"/>
<path class="st5" d="M1148.6,224.5l0.7,5.4c0.1,0.5-0.3,1-0.9,1.1l-37.3,4.6c-0.5,0.1-1-0.3-1.1-0.9l-0.7-5.4c0-0.1,0-0.1,0-0.2
	c0-0.5,0.4-0.9,0.9-0.9l37.3-4.6c0.5-0.1,0.9,0.2,1.1,0.7C1148.5,224.4,1148.5,224.4,1148.6,224.5z"/>
<g class="st6">
	
		<rect x="1113.1" y="227.7" transform="matrix(0.9925 -0.1222 0.1222 0.9925 -19.9244 137.9561)" class="st2" width="3.3" height="7.4"/>
	
		<rect x="1118.4" y="227.1" transform="matrix(0.9925 -0.1222 0.1222 0.9925 -19.8115 138.6003)" class="st2" width="3.3" height="7.4"/>
	
		<rect x="1137.1" y="224.4" transform="matrix(0.9925 -0.1222 0.1222 0.9925 -19.3239 141.1696)" class="st2" width="8.3" height="7.4"/>
</g>
<path class="st2" d="M1148.5,224.3l-39.2,4.8c0-0.5,0.4-0.9,0.9-0.9l37.3-4.6C1147.9,223.6,1148.4,223.8,1148.5,224.3z"/>
<path class="st2" d="M1110,234.9l39.2-4.8c0,0.5-0.4,0.9-0.9,0.9l-37.3,4.6C1110.6,235.6,1110.1,235.3,1110,234.9z"/>
<path class="st8" d="M1132.5,220.5l-0.3,5.4c0,0.5-0.5,0.9-1,0.9l-37.5-2.1c-0.5,0-0.9-0.5-0.9-1l0.3-5.4c0-0.1,0-0.1,0-0.2
	c0.1-0.5,0.5-0.8,1-0.8l37.5,2.1c0.5,0,0.9,0.4,0.9,0.9C1132.5,220.4,1132.5,220.4,1132.5,220.5z"/>
<g class="st6">
	
		<rect x="1094.3" y="219.6" transform="matrix(5.651859e-02 -0.9984 0.9984 5.651859e-02 815.0746 1305.0006)" class="st7" width="7.4" height="3.3"/>
	
		<rect x="1099.7" y="219.8" transform="matrix(5.651859e-02 -0.9984 0.9984 5.651859e-02 819.8823 1310.5942)" class="st7" width="7.4" height="3.3"/>
	
		<rect x="1121.1" y="218.6" transform="matrix(5.651859e-02 -0.9984 0.9984 5.651859e-02 838.8314 1333.0936)" class="st7" width="7.4" height="8.3"/>
</g>
<path class="st9" d="M1132.5,220.3l-39.4-2.2c0.1-0.5,0.5-0.8,1-0.8l37.5,2.1C1132,219.4,1132.4,219.8,1132.5,220.3z"/>
<path class="st9" d="M1092.7,223.8l39.4,2.2c-0.1,0.5-0.5,0.8-1,0.8l-37.5-2.1C1093.2,224.7,1092.8,224.3,1092.7,223.8z"/>
<path class="st5" d="M1077.9,262.3v6.7c0,0.1,0,0.1,0,0.2v0.1l-0.1,0.2v0.1c-0.1,0.3-0.4,0.5-0.7,0.6h-0.1c-0.1,0-0.2,0-0.3,0h-46.2
	c-0.1,0-0.2,0-0.3,0h-0.1h-0.1h-0.1c-0.2-0.1-0.4-0.3-0.5-0.5v-0.1c0-0.1,0-0.1-0.1-0.2v-0.1c0-0.1,0-0.1,0-0.2v-6.7
	c0-0.1,0-0.1,0-0.2c0.1-0.6,0.6-1,1.2-1h46.2c0.6,0,1.1,0.4,1.2,1C1078,262.2,1078,262.3,1077.9,262.3z"/>
<g class="st6">
	<rect x="1033.6" y="261.1" class="st2" width="4.1" height="9.1"/>
	<rect x="1040.1" y="261.1" class="st2" width="4.1" height="9.1"/>
	<rect x="1063.4" y="261.1" class="st2" width="10.2" height="9.1"/>
</g>
<path class="st2" d="M1077.9,262.1h-48.6c0.1-0.6,0.6-1,1.2-1h46.2C1077.3,261.1,1077.8,261.6,1077.9,262.1z"/>
<path class="st2" d="M1077.9,269.2v0.1l-0.1,0.2v0.1c-0.1,0.3-0.4,0.5-0.7,0.6h-0.1c-0.1,0-0.2,0-0.3,0h-46.2c-0.1,0-0.2,0-0.3,0
	h-0.1h-0.1h-0.1c-0.2-0.1-0.4-0.3-0.5-0.5v-0.1c0-0.1,0-0.1-0.1-0.2v-0.1L1077.9,269.2z"/>
<path class="st5" d="M1081.4,253.2v6.7c0,0.1,0,0.1,0,0.2s-0.1,0.2-0.1,0.3c0,0,0,0,0,0.1c-0.1,0.2-0.3,0.4-0.5,0.5h-0.1h-0.1h-0.1
	c-0.1,0-0.2,0-0.3,0H1034c-0.1,0-0.2,0-0.3,0h-0.1h-0.1c0,0,0,0-0.1,0c-0.2-0.1-0.4-0.2-0.5-0.4l-0.1-0.1v-0.1
	c0-0.1-0.1-0.1-0.1-0.2s0-0.2,0-0.3v-6.7c0-0.1,0-0.1,0-0.2c0.1-0.6,0.6-1,1.2-1h46.2c0.6,0,1.1,0.4,1.2,1
	C1081.4,253.1,1081.4,253.2,1081.4,253.2z"/>
<g class="st6">
	<rect x="1037" y="252" class="st2" width="4.1" height="9.1"/>
	<rect x="1043.6" y="252" class="st2" width="4.1" height="9.1"/>
	<rect x="1066.9" y="252" class="st2" width="10.2" height="9.1"/>
</g>
<path class="st2" d="M1081.4,253h-48.6c0.1-0.6,0.6-1,1.2-1h46.2C1080.7,252,1081.3,252.4,1081.4,253z"/>
<path class="st2" d="M1081.4,260.1c0,0.1-0.1,0.2-0.1,0.3c0,0,0,0,0,0.1c-0.1,0.2-0.3,0.4-0.5,0.5h-0.1h-0.1h-0.1
	c-0.1,0-0.2,0-0.3,0H1034c-0.1,0-0.2,0-0.3,0h-0.1h-0.1c0,0,0,0-0.1,0c-0.2-0.1-0.4-0.2-0.5-0.4l-0.1-0.1v-0.1
	c0-0.1-0.1-0.1-0.1-0.2v-0.1L1081.4,260.1L1081.4,260.1z"/>
<path class="st5" d="M1079.5,244.1v6.7c0,0.1,0,0.2,0,0.3s0,0.1-0.1,0.2c0,0.1-0.1,0.2-0.2,0.3l-0.1,0.1l-0.1,0.1l-0.1,0.1l-0.1,0.1
	c-0.1,0-0.1,0.1-0.2,0.1h-0.1c-0.1,0-0.2,0-0.3,0H1032c-0.1,0-0.2,0-0.3,0h-0.1h-0.1h-0.1c-0.2-0.1-0.4-0.2-0.5-0.4
	c0,0,0-0.1-0.1-0.1v-0.1c0-0.1-0.1-0.1-0.1-0.2c0-0.1,0-0.2,0-0.3v-6.7c0-0.1,0-0.1,0-0.2c0.1-0.6,0.6-1,1.2-1h46.2
	c0.6,0,1.1,0.4,1.2,1C1079.6,244,1079.6,244.1,1079.5,244.1z"/>
<g class="st6">
	<rect x="1035.2" y="242.9" class="st2" width="4.1" height="9.1"/>
	<rect x="1041.8" y="242.9" class="st2" width="4.1" height="9.1"/>
	<rect x="1065.1" y="242.9" class="st2" width="10.2" height="9.1"/>
</g>
<path class="st2" d="M1079.5,243.9H1031c0.1-0.6,0.6-1,1.2-1h46.2C1078.9,242.9,1079.4,243.3,1079.5,243.9z"/>
<path class="st2" d="M1079.5,251v0.1c0,0.1,0,0.1-0.1,0.2c0,0.1-0.1,0.2-0.2,0.3l-0.1,0.1l-0.1,0.1l-0.1,0.1l-0.1,0.1
	c-0.1,0-0.1,0.1-0.2,0.1h-0.1c-0.1,0-0.2,0-0.3,0H1032c-0.1,0-0.2,0-0.3,0h-0.1h-0.1h-0.1c-0.2-0.1-0.4-0.2-0.5-0.4
	c0,0,0-0.1-0.1-0.1v-0.1c0-0.1-0.1-0.1-0.1-0.2v-0.1L1079.5,251z"/>
<path class="st5" d="M1083.8,235v6.7c0,0.1,0,0.1,0,0.2c0,0.1,0,0.1,0,0.2v0.1c-0.1,0.2-0.2,0.4-0.4,0.5l-0.1,0.1l-0.1,0.1h-0.1
	h-0.1c-0.1,0-0.2,0-0.3,0h-46.2c-0.1,0-0.2,0-0.3,0h-0.1h-0.1c-0.1,0-0.1-0.1-0.2-0.1l-0.1-0.1l-0.1-0.1l-0.1-0.1l0,0l-0.1-0.1
	c0,0,0-0.1-0.1-0.1l-0.1-0.1c0-0.1-0.1-0.2-0.1-0.2l0,0l0,0c0-0.1,0-0.1,0-0.2V235c0-0.1,0-0.1,0-0.2c0.1-0.6,0.6-1,1.2-1h46.2
	c0.6,0,1.1,0.4,1.2,1C1083.9,234.9,1083.8,234.9,1083.8,235z"/>
<g class="st6">
	<rect x="1039.4" y="233.8" class="st2" width="4.1" height="9.1"/>
	<rect x="1046" y="233.8" class="st2" width="4.1" height="9.1"/>
	<rect x="1069.3" y="233.8" class="st2" width="10.2" height="9.1"/>
</g>
<path class="st2" d="M1083.8,234.8h-48.6c0.1-0.6,0.6-1,1.2-1h46.2C1083.2,233.8,1083.7,234.2,1083.8,234.8z"/>
<path class="st2" d="M1083.8,241.9c0,0.1,0,0.1,0,0.2v0.1c-0.1,0.2-0.2,0.4-0.4,0.5l-0.1,0.1l-0.1,0.1h-0.1h-0.1c-0.1,0-0.2,0-0.3,0
	h-46.2c-0.1,0-0.2,0-0.3,0h-0.1h-0.1c-0.1,0-0.1-0.1-0.2-0.1l-0.1-0.1l-0.1-0.1l-0.1-0.1l0,0l-0.1-0.1c0,0,0-0.1-0.1-0.1l-0.1-0.1
	c0-0.1-0.1-0.2-0.1-0.2l0,0L1083.8,241.9z"/>
<path class="st5" d="M1082,232.6c0,0.1,0,0.1,0,0.2l0,0v0.1v0.1l-0.1,0.1c0,0,0,0.1-0.1,0.1v0.1c-0.1,0.2-0.2,0.3-0.4,0.4h-0.1h-0.1
	h-0.1c-0.1,0-0.2,0-0.3,0h-46.2c-0.1,0-0.2,0-0.3,0h-0.1h-0.1h-0.1l-0.1-0.1l-0.1-0.1l-0.1-0.1l-0.1-0.1c-0.1-0.2-0.2-0.4-0.3-0.6
	c0-0.1,0-0.1,0-0.2v-6.7c0-0.1,0-0.1,0-0.2c0.1-0.6,0.6-1,1.2-1h46.2c0.6,0,1.1,0.4,1.2,1c0,0.1,0,0.1,0,0.2L1082,232.6z"/>
<g class="st6">
	<rect x="1037.6" y="224.7" class="st2" width="4.1" height="9.1"/>
	<rect x="1044.2" y="224.7" class="st2" width="4.1" height="9.1"/>
	<rect x="1067.5" y="224.7" class="st2" width="10.2" height="9.1"/>
</g>
<path class="st2" d="M1082,225.7h-48.6c0.1-0.6,0.6-1,1.2-1h46.2C1081.4,224.7,1081.9,225.1,1082,225.7z"/>
<path class="st2" d="M1082,232.8v0.1v0.1l-0.1,0.1c0,0,0,0.1-0.1,0.1v0.1c-0.1,0.2-0.2,0.3-0.4,0.4h-0.1h-0.1h-0.1
	c-0.1,0-0.2,0-0.3,0h-46.2c-0.1,0-0.2,0-0.3,0h-0.1h-0.1h-0.1l-0.1-0.1l-0.1-0.1l-0.1-0.1l-0.1-0.1c-0.1-0.2-0.2-0.4-0.3-0.6h48.7
	V232.8z"/>
<path class="st5" d="M1083.8,223.5c0,0.1,0,0.1,0,0.2l0,0v0.1c0,0,0,0,0,0.1l-0.1,0.1c0,0,0,0.1-0.1,0.1l0,0
	c-0.1,0.2-0.2,0.3-0.4,0.4l-0.1,0.1h-0.1h-0.1c-0.1,0-0.2,0-0.3,0h-46.2c-0.1,0-0.2,0-0.3,0h-0.1h-0.1l-0.1-0.1l-0.1-0.1l-0.1-0.1
	l-0.1-0.1l-0.1-0.1c-0.1-0.2-0.2-0.4-0.3-0.6c0-0.1,0-0.1,0-0.2v-6.7c0-0.1,0-0.1,0-0.2c0.1-0.6,0.6-1,1.2-1h46.2
	c0.6,0,1.1,0.4,1.2,1c0,0.1,0,0.1,0,0.2L1083.8,223.5z"/>
<g class="st6">
	<rect x="1039.4" y="215.6" class="st2" width="4.1" height="9.1"/>
	<rect x="1046" y="215.6" class="st2" width="4.1" height="9.1"/>
	<rect x="1069.3" y="215.6" class="st2" width="10.2" height="9.1"/>
</g>
<path class="st2" d="M1083.8,216.6h-48.6c0.1-0.6,0.6-1,1.2-1h46.2C1083.2,215.6,1083.7,216,1083.8,216.6z"/>
<path class="st2" d="M1083.8,223.7L1083.8,223.7c0,0.1,0,0.1,0,0.1l-0.1,0.1c0,0,0,0.1-0.1,0.1l0,0c-0.1,0.2-0.2,0.3-0.4,0.4
	l-0.1,0.1h-0.1h-0.1c-0.1,0-0.2,0-0.3,0h-46.2c-0.1,0-0.2,0-0.3,0h-0.1h-0.1l-0.1-0.1l-0.1-0.1l-0.1-0.1l-0.1-0.1l-0.1-0.1
	c-0.1-0.2-0.2-0.4-0.3-0.6L1083.8,223.7z"/>
<path class="st5" d="M1087.7,207.7v6.7c0,0.1,0,0.1,0,0.2v0.1c0,0.1,0,0.1-0.1,0.2v0.1c-0.1,0.2-0.3,0.4-0.5,0.5h-0.1h-0.1h-0.1
	c-0.1,0-0.2,0-0.3,0h-46.2c-0.1,0-0.2,0-0.3,0h-0.1c-0.1,0-0.2-0.1-0.3-0.2l-0.1-0.1l-0.1-0.1c0,0,0-0.1-0.1-0.1l0,0l-0.1-0.1
	l-0.1-0.1c0-0.1-0.1-0.1-0.1-0.2v-0.1l0,0c0-0.1,0-0.1,0-0.2v-6.7c0-0.1,0-0.1,0-0.2c0-0.3,0.2-0.5,0.3-0.7c0.1-0.1,0.2-0.2,0.3-0.2
	c0.2-0.1,0.3-0.1,0.5-0.1h46.2c0.6,0,1.1,0.4,1.2,1C1087.8,207.5,1087.7,207.6,1087.7,207.7z"/>
<rect x="1043.3" y="206.5" class="st10" width="4.1" height="9.1"/>
<rect x="1049.9" y="206.5" class="st10" width="4.1" height="9.1"/>
<rect x="1073.2" y="206.5" class="st11" width="10.2" height="9.1"/>
<path class="st2" d="M1087.7,207.5h-48.6c0.1-0.6,0.6-1,1.2-1h46.2C1087,206.5,1087.5,206.9,1087.7,207.5z"/>
<path class="st2" d="M1087.7,214.6v0.1c0,0.1,0,0.1-0.1,0.2v0.1c-0.1,0.2-0.3,0.4-0.5,0.5h-0.1h-0.1h-0.1c-0.1,0-0.2,0-0.3,0h-46.2
	c-0.1,0-0.2,0-0.3,0h-0.1c-0.1,0-0.2-0.1-0.3-0.2l-0.1-0.1l-0.1-0.1c0,0,0-0.1-0.1-0.1l0,0l-0.1-0.1l-0.1-0.1c0-0.1-0.1-0.1-0.1-0.2
	v-0.1l0,0L1087.7,214.6z"/>
<path class="st5" d="M1086.2,198.6v6.7c0,0.1,0,0.1,0,0.2v0.1l-0.1,0.2l-0.1,0.1c-0.1,0.2-0.3,0.4-0.6,0.5h-0.1h-0.1h-0.1
	c-0.1,0-0.2,0-0.3,0h-46.2c-0.1,0-0.2,0-0.3,0h-0.1c-0.1,0-0.2-0.1-0.3-0.2l-0.1-0.1l-0.1-0.1l-0.1-0.1l0,0l-0.1-0.1l-0.1-0.1
	c0-0.1-0.1-0.1-0.1-0.2v-0.1l0,0c0-0.1,0-0.1,0-0.2v-6.7c0-0.1,0-0.1,0-0.2c0-0.3,0.2-0.5,0.3-0.7c0.1-0.1,0.2-0.2,0.3-0.2
	c0.2-0.1,0.3-0.1,0.5-0.1h46.1c0.6,0,1.1,0.4,1.2,1C1086.2,198.4,1086.2,198.5,1086.2,198.6z"/>
<rect x="1041.9" y="197.4" class="st10" width="4.1" height="9.1"/>
<rect x="1048.5" y="197.4" class="st10" width="4.1" height="9.1"/>
<rect x="1071.7" y="197.4" class="st11" width="10.2" height="9.1"/>
<path class="st2" d="M1086.2,198.4h-48.6c0.1-0.6,0.6-1,1.2-1h46.2C1085.6,197.4,1086.1,197.8,1086.2,198.4z"/>
<path class="st2" d="M1086.2,205.5v0.1l-0.1,0.2l-0.1,0.1c-0.1,0.2-0.3,0.4-0.6,0.5h-0.1h-0.1h-0.1c-0.1,0-0.2,0-0.3,0h-46.2
	c-0.1,0-0.2,0-0.3,0h-0.1c-0.1,0-0.2-0.1-0.3-0.2l-0.1-0.1l-0.1-0.1l-0.1-0.1l0,0l-0.1-0.1l-0.1-0.1c0-0.1-0.1-0.1-0.1-0.2v-0.1l0,0
	L1086.2,205.5z"/>
<path class="st5" d="M1083.6,189.5v6.7c0,0.1,0,0.1,0,0.2v0.1l-0.1,0.2v0.1c-0.1,0.2-0.3,0.4-0.6,0.5h-0.1h-0.1h-0.1
	c-0.1,0-0.2,0-0.3,0h-46.2c-0.1,0-0.2,0-0.3,0h-0.1c-0.1,0-0.2-0.1-0.3-0.2l-0.1-0.1l-0.1-0.1l-0.1-0.1l0,0c0,0,0-0.1-0.1-0.1
	c0,0,0-0.1-0.1-0.1c0-0.1-0.1-0.1-0.1-0.2v-0.1l0,0c0-0.1,0-0.1,0-0.2v-6.7c0-0.1,0-0.1,0-0.2c0-0.3,0.2-0.5,0.3-0.7
	c0.1-0.1,0.2-0.2,0.3-0.2c0.2-0.1,0.4-0.1,0.5-0.1h46.2c0.6,0,1.1,0.4,1.2,1C1083.6,189.3,1083.6,189.4,1083.6,189.5z"/>
<rect x="1039.2" y="188.2" class="st10" width="4.1" height="9.1"/>
<rect x="1045.8" y="188.2" class="st10" width="4.1" height="9.1"/>
<rect x="1069.1" y="188.2" class="st12" width="10.2" height="9.1"/>
<path class="st2" d="M1083.5,189.2H1035c0.1-0.6,0.6-1,1.2-1h46.2C1082.9,188.3,1083.4,188.7,1083.5,189.2z"/>
<path class="st2" d="M1083.5,196.4v0.1l-0.1,0.2v0.1c-0.1,0.2-0.3,0.4-0.6,0.5h-0.1h-0.1h-0.1c-0.1,0-0.2,0-0.3,0H1036
	c-0.1,0-0.2,0-0.3,0h-0.1c-0.1,0-0.2-0.1-0.3-0.2l-0.1-0.1l-0.1-0.1l-0.1-0.1l0,0c0,0,0-0.1-0.1-0.1c0,0,0-0.1-0.1-0.1
	c0-0.1-0.1-0.1-0.1-0.2v-0.1l0,0L1083.5,196.4z"/>
<path class="st5" d="M1086.2,180.4v6.6c0,0.1,0,0.1,0,0.2v0.1l-0.1,0.2l-0.1,0.1c-0.1,0.2-0.3,0.4-0.6,0.5h-0.1h-0.1h-0.1
	c-0.1,0-0.2,0-0.3,0h-46.2c-0.1,0-0.2,0-0.3,0h-0.1c-0.1,0-0.2-0.1-0.3-0.2l-0.1-0.1l-0.1-0.1l-0.1-0.1l0,0l-0.1-0.1l-0.1-0.1
	c0-0.1-0.1-0.1-0.1-0.2v-0.1l0,0c0-0.1,0-0.1,0-0.2v-6.7c0-0.1,0-0.1,0-0.2c0.1-0.4,0.3-0.7,0.7-0.9c0.2-0.1,0.3-0.1,0.5-0.1h46
	c0.6,0,1.1,0.4,1.2,1C1086.2,180.2,1086.2,180.3,1086.2,180.4z"/>
<rect x="1041.9" y="179.1" class="st10" width="4.1" height="9.1"/>
<rect x="1048.5" y="179.1" class="st10" width="4.1" height="9.1"/>
<rect x="1071.7" y="179.1" class="st12" width="10.2" height="9.1"/>
<path class="st2" d="M1086.2,180.1h-48.6c0.1-0.6,0.6-1,1.2-1h46.2C1085.6,179.1,1086.1,179.6,1086.2,180.1z"/>
<path class="st2" d="M1086.2,187.2C1086.2,187.2,1086.2,187.3,1086.2,187.2l-0.1,0.3l-0.1,0.1c-0.1,0.2-0.3,0.4-0.6,0.5h-0.1h-0.1
	h-0.1c-0.1,0-0.2,0-0.3,0h-46.2c-0.1,0-0.2,0-0.3,0h-0.1c-0.1,0-0.2-0.1-0.3-0.2l-0.1-0.1l-0.1-0.1l-0.1-0.1l0,0l-0.1-0.1l-0.1-0.1
	c0-0.1-0.1-0.1-0.1-0.2v-0.1l0,0L1086.2,187.2z"/>
<path class="st5" d="M1089.3,171.2v6.7c0,0.1,0,0.1,0,0.2v0.1l-0.1,0.2v0.1c-0.1,0.2-0.3,0.4-0.6,0.5h-0.1h-0.1h-0.1
	c-0.1,0-0.2,0-0.3,0h-46c-0.1,0-0.2,0-0.3,0h-0.1c-0.1,0-0.2-0.1-0.3-0.2l-0.1-0.1l-0.1-0.1l-0.1-0.1l0,0l-0.1-0.1
	c0,0,0-0.1-0.1-0.1c0-0.1-0.1-0.1-0.1-0.2V178l0,0c0-0.1,0-0.1,0-0.2v-6.7c0-0.1,0-0.1,0-0.2c0-0.3,0.2-0.5,0.3-0.7
	c0.1-0.1,0.2-0.2,0.3-0.2c0.2-0.1,0.4-0.1,0.5-0.1h46.2c0.6,0,1.1,0.4,1.2,1C1089.4,171.1,1089.4,171.2,1089.3,171.2z"/>
<path class="st2" d="M1089.3,171h-48.6c0.1-0.6,0.6-1,1.2-1h46.2C1088.7,170,1089.2,170.4,1089.3,171z"/>
<path class="st2" d="M1089.3,178.1C1089.3,178.2,1089.3,178.2,1089.3,178.1l-0.1,0.3v0.1c-0.1,0.2-0.3,0.4-0.6,0.5h-0.1h-0.1h-0.1
	c-0.1,0-0.2,0-0.3,0h-46c-0.1,0-0.2,0-0.3,0h-0.1c-0.1,0-0.2-0.1-0.3-0.2l-0.1-0.1l-0.1-0.1l-0.1-0.1l0,0l-0.1-0.1
	c0,0,0-0.1-0.1-0.1c0-0.1-0.1-0.1-0.1-0.2V178l0,0L1089.3,178.1z"/>
<g class="st6">
	<rect x="1045" y="170" class="st2" width="4.1" height="9.1"/>
	<rect x="1051.6" y="170" class="st2" width="4.1" height="9.1"/>
	<rect x="1074.8" y="170" class="st2" width="10.2" height="9.1"/>
</g>
<path class="st5" d="M1083.5,160.2l0.4,6.7c0,0.7-0.5,1.2-1.1,1.3l-46.1,3c-0.7,0-1.3-0.5-1.3-1.1l-0.4-6.7c0-0.1,0-0.1,0-0.2
	c0.1-0.6,0.5-1,1.1-1.1l46.1-3c0.6,0,1.1,0.4,1.3,0.9C1083.5,160.1,1083.5,160.1,1083.5,160.2z"/>
<rect x="1039.5" y="161.7" transform="matrix(0.9979 -6.470675e-02 6.470675e-02 0.9979 -8.5746 67.7435)" class="st10" width="4.1" height="9.1"/>
<rect x="1046.1" y="161.2" transform="matrix(0.9979 -6.470675e-02 6.470675e-02 0.9979 -8.5283 68.1693)" class="st10" width="4.1" height="9.1"/>
<rect x="1069.3" y="159.5" transform="matrix(0.9979 -6.470675e-02 6.470675e-02 0.9979 -8.3635 69.8643)" class="st12" width="10.2" height="9.1"/>
<path class="st2" d="M1083.5,160l-48.5,3.1c0.1-0.6,0.5-1,1.1-1.1l46.1-3C1082.8,159,1083.3,159.4,1083.5,160z"/>
<path class="st2" d="M1035.5,170.2l48.4-3.1c-0.1,0.6-0.5,1-1.1,1.1l-46.1,3C1036.2,171.2,1035.6,170.8,1035.5,170.2z"/>
<path class="st5" d="M1144.9,262.3v6.7c0,0.1,0,0.1,0,0.2s0,0.1,0,0.2s0,0.1-0.1,0.2l0,0c-0.1,0.2-0.3,0.3-0.4,0.4l0,0l-0.2,0.1
	h-0.2l0,0h-0.2h-46.2h-0.2l0,0h-0.2l-0.2-0.1l0,0c-0.2-0.1-0.3-0.2-0.4-0.4l0,0c0-0.1-0.1-0.1-0.1-0.2s0-0.1,0-0.2s0-0.1,0-0.2v-6.7
	c0-0.1,0-0.1,0-0.2c0.1-0.6,0.6-1,1.2-1h46.2c0.6,0,1.1,0.4,1.2,1C1145.1,262.2,1145,262.3,1144.9,262.3z"/>
<g class="st6">
	<rect x="1100.5" y="261.1" class="st2" width="4.1" height="9.1"/>
	<rect x="1107.1" y="261.1" class="st2" width="4.1" height="9.1"/>
	<rect x="1130.4" y="261.1" class="st2" width="10.2" height="9.1"/>
</g>
<path class="st2" d="M1144.9,262.1h-48.6c0.1-0.6,0.6-1,1.2-1h46.2C1144.3,261.1,1144.8,261.5,1144.9,262.1z"/>
<path class="st2" d="M1096.3,269.2h48.6c-0.1,0.6-0.6,1-1.2,1h-46.2C1096.9,270.2,1096.4,269.8,1096.3,269.2z"/>
<path class="st5" d="M1137.9,253.2v6.7c0,0.1,0,0.1,0,0.2s0,0.1-0.1,0.2c0,0.1,0,0.1-0.1,0.2l0,0c-0.1,0.1-0.2,0.2-0.3,0.3
	c-0.1,0.1-0.1,0.1-0.2,0.1l-0.2,0.1h-0.2l0,0h-0.2h-46.2c-0.1,0-0.1,0-0.2,0l0,0h-0.2c-0.1,0-0.1,0-0.2-0.1h-0.1
	c-0.2-0.1-0.3-0.2-0.4-0.4l0,0c0,0,0-0.1-0.1-0.2c0-0.1,0-0.1,0-0.2s0-0.1,0-0.2v-6.7c0-0.1,0-0.1,0-0.2c0-0.3,0.2-0.5,0.4-0.7
	c0.2-0.2,0.5-0.3,0.8-0.3h46.2c0.6,0,1.1,0.4,1.2,1C1138,253.1,1138,253.2,1137.9,253.2z"/>
<g class="st6">
	<rect x="1093.5" y="252" class="st2" width="4.1" height="9.1"/>
	<rect x="1100.1" y="252" class="st2" width="4.1" height="9.1"/>
	<path class="st2" d="M1133.7,252v9.1h-10.2V252H1133.7z"/>
</g>
<path class="st2" d="M1137.9,253h-48.6c0-0.3,0.2-0.5,0.4-0.7c0.2-0.2,0.5-0.3,0.8-0.3h46.2C1137.3,252,1137.8,252.4,1137.9,253z"/>
<path class="st2" d="M1089.3,260.1h48.6c-0.1,0.6-0.6,1-1.2,1h-46.2C1089.9,261.1,1089.4,260.7,1089.3,260.1z"/>
<path class="st13" d="M1129.1,244.4v6.7c0,0.1,0,0.1,0,0.2c0,0.1,0,0.1,0,0.2c0,0.1-0.1,0.1-0.1,0.2c-0.1,0.1-0.2,0.2-0.3,0.3l0,0
	l-0.1,0.1c0,0,0,0-0.1,0.1l0,0c0,0-0.1,0.1-0.2,0.1l-0.2,0.1l0,0h-0.2h-46.2h-0.2l0,0l-0.2-0.1l-0.2-0.1h-0.1
	c-0.2-0.1-0.3-0.3-0.4-0.4c0-0.1-0.1-0.1-0.1-0.2c0-0.1,0-0.1,0-0.2c0-0.1,0-0.1,0-0.2v-6.7c0-0.1,0-0.1,0-0.2c0.1-0.6,0.6-1,1.2-1
	h46.2C1128.5,243.3,1129,243.7,1129.1,244.4C1129.2,244.3,1129.2,244.3,1129.1,244.4z"/>
<g class="st6">
	<rect x="1085.5" y="244" class="st14" width="4.1" height="9.1"/>
	<rect x="1092.1" y="244" class="st14" width="4.1" height="9.1"/>
</g>
<path class="st2" d="M1129.1,244.2h-48.6c0.1-0.6,0.6-1,1.2-1h46.2C1128.5,243.2,1129,243.6,1129.1,244.2z"/>
<path class="st2" d="M1129.1,251.3c0,0.1,0,0.1,0,0.2c0,0.1-0.1,0.1-0.1,0.2c-0.1,0.1-0.2,0.2-0.3,0.3l0,0l-0.1,0.1c0,0,0,0-0.1,0.1
	l0,0c0,0-0.1,0.1-0.2,0.1l-0.2,0.1l0,0h-0.2h-46.2h-0.2l0,0l-0.2-0.1l-0.2-0.1h-0.1c-0.2-0.1-0.3-0.3-0.4-0.4c0-0.1-0.1-0.1-0.1-0.2
	c0-0.1,0-0.1,0-0.2L1129.1,251.3z"/>
<path class="st2" d="M1125.8,235h-48.6c0.1-0.6,0.6-1,1.2-1h46.2C1125.1,234,1125.7,234.4,1125.8,235z"/>
<path class="st2" d="M1125.8,242.1c0,0.1,0,0.1-0.1,0.2c0,0.1,0,0.1-0.1,0.2c-0.1,0.1-0.2,0.2-0.3,0.3l0,0l0,0l-0.1,0.1l-0.1,0.1
	l0,0l-0.2,0.1l-0.2,0.1l0,0h-0.2h-46.2h-0.2l0,0l-0.2-0.1c-0.1,0-0.1,0-0.2-0.1h-0.1c-0.2-0.1-0.3-0.3-0.4-0.4
	c0-0.1-0.1-0.1-0.1-0.2c0-0.1,0-0.1,0-0.2h48.7V242.1z"/>
<path class="st5" d="M1132.6,226.1v6.7c0,0.1,0,0.1,0,0.2c0,0.1,0,0.1,0,0.2l-0.1,0.2c-0.1,0.1-0.2,0.2-0.3,0.3l0,0l0,0l-0.1,0.1
	l-0.1,0.1l0,0l-0.2,0.1l-0.2,0.1l0,0c-0.1,0-0.1,0-0.2,0h-46.2c-0.1,0-0.1,0-0.2,0l0,0l-0.2-0.1l-0.2-0.1h-0.1
	c-0.2-0.1-0.3-0.3-0.4-0.4c0-0.1-0.1-0.1-0.1-0.2c0-0.1,0-0.1-0.1-0.2c0-0.1,0-0.1,0-0.2v-6.7c0-0.1,0-0.1,0-0.2
	c0.1-0.6,0.6-1,1.2-1h46.2C1131.9,225,1132.4,225.4,1132.6,226.1C1132.7,226,1132.7,226.1,1132.6,226.1z"/>
<g class="st6">
	<rect x="1088.3" y="224.9" class="st2" width="4.1" height="9.1"/>
	<rect x="1094.9" y="224.9" class="st2" width="4.1" height="9.1"/>
	<rect x="1118.1" y="224.9" class="st2" width="10.2" height="9.1"/>
</g>
<path class="st2" d="M1132.6,225.9H1084c0.1-0.6,0.6-1,1.2-1h46.2C1132,224.9,1132.5,225.3,1132.6,225.9z"/>
<path class="st2" d="M1132.6,233c0,0.1,0,0.1,0,0.2l-0.1,0.2c-0.1,0.1-0.2,0.2-0.3,0.3l0,0l0,0l-0.1,0.1l-0.1,0.1l0,0l-0.2,0.1
	l-0.2,0.1l0,0c-0.1,0-0.1,0-0.2,0h-46.2c-0.1,0-0.1,0-0.2,0l0,0l-0.2-0.1l-0.2-0.1h-0.1c-0.2-0.1-0.3-0.3-0.4-0.4
	c0-0.1-0.1-0.1-0.1-0.2c0-0.1,0-0.1-0.1-0.2L1132.6,233z"/>
<path class="st5" d="M1136.8,217v6.7c0,0.1,0,0.1,0,0.2c0,0.1,0,0.1,0,0.2l-0.1,0.2c-0.1,0.1-0.2,0.2-0.3,0.3l0,0l0,0l-0.1,0.1
	l-0.1,0.1l0,0l-0.2,0.1l-0.2,0.1l0,0c-0.1,0-0.1,0-0.2,0h-46.2c-0.1,0-0.1,0-0.2,0l0,0l-0.2-0.1c-0.1,0-0.1,0-0.2-0.1h-0.1
	c-0.2-0.1-0.3-0.3-0.4-0.4c0-0.1-0.1-0.1-0.1-0.2c0-0.1,0-0.1-0.1-0.2c0-0.1,0-0.1,0-0.2V217c0-0.1,0-0.1,0-0.2c0.1-0.6,0.6-1,1.2-1
	h46.2c0.6,0,1.1,0.4,1.2,1C1136.9,216.9,1136.8,216.9,1136.8,217z"/>
<g class="st6">
	<rect x="1092.4" y="215.8" class="st2" width="4.1" height="9.1"/>
	<rect x="1099" y="215.8" class="st2" width="4.1" height="9.1"/>
	<rect x="1122.3" y="215.8" class="st2" width="10.2" height="9.1"/>
</g>
<path class="st2" d="M1136.7,216.8h-48.6c0.1-0.6,0.6-1,1.2-1h46.2C1136.1,215.8,1136.6,216.3,1136.7,216.8z"/>
<path class="st2" d="M1136.7,223.9c0,0.1,0,0.1,0,0.2l-0.1,0.2c-0.1,0.1-0.2,0.2-0.3,0.3l0,0l0,0l-0.1,0.1l-0.1,0.1l0,0l-0.2,0.1
	l-0.2,0.1l0,0c-0.1,0-0.1,0-0.2,0h-46.2c-0.1,0-0.1,0-0.2,0l0,0l-0.2-0.1c-0.1,0-0.1,0-0.2-0.1h-0.1c-0.2-0.1-0.3-0.3-0.4-0.4
	c0-0.1-0.1-0.1-0.1-0.2c0-0.1,0-0.1-0.1-0.2L1136.7,223.9z"/>
<path class="st5" d="M1132.6,207.9v6.7c0,0.1,0,0.1,0,0.2c0,0.1,0,0.1,0,0.2l-0.1,0.2c-0.1,0.1-0.2,0.2-0.3,0.3l0,0l0,0l-0.1,0.1
	l-0.1,0.1l0,0l-0.2,0.1l-0.2,0.1l0,0h-0.2h-46.2h-0.2l0,0l-0.2-0.1l-0.2-0.1h-0.1c-0.2-0.1-0.3-0.2-0.4-0.4c0-0.1-0.1-0.1-0.1-0.2
	l-0.1-0.2c0-0.1,0-0.1,0-0.2V208c0-0.1,0-0.1,0-0.2c0.1-0.6,0.6-1,1.2-1h46.2C1131.9,206.8,1132.4,207.2,1132.6,207.9
	C1132.7,207.8,1132.7,207.9,1132.6,207.9z"/>
<rect x="1088.3" y="206.7" class="st12" width="4.1" height="9.1"/>
<rect x="1094.9" y="206.7" class="st12" width="4.1" height="9.1"/>
<rect x="1118.1" y="206.7" class="st10" width="10.2" height="9.1"/>
<path class="st2" d="M1132.6,207.7H1084c0.1-0.6,0.6-1,1.2-1h46.2C1132,206.7,1132.5,207.1,1132.6,207.7z"/>
<path class="st2" d="M1132.6,214.8c0,0.1,0,0.1,0,0.2l-0.1,0.2c-0.1,0.1-0.2,0.2-0.3,0.3l0,0l0,0l-0.1,0.1l-0.1,0.1l0,0l-0.2,0.1
	l-0.2,0.1l0,0h-0.2h-46.2h-0.2l0,0l-0.2-0.1l-0.2-0.1h-0.1c-0.2-0.1-0.3-0.2-0.4-0.4c0-0.1-0.1-0.1-0.1-0.2l-0.1-0.2L1132.6,214.8z"
	/>
<path class="st5" d="M1137.7,198.9v6.7c0,0.1,0,0.1,0,0.2c0,0.1,0,0.1,0,0.2c0,0.1-0.1,0.1-0.1,0.2c-0.1,0.1-0.2,0.2-0.3,0.3l0,0
	l0,0l-0.1,0.1l-0.1,0.1l0,0l-0.2,0.1l-0.2,0.1l0,0c-0.1,0-0.1,0-0.2,0h-46.2c-0.1,0-0.1,0-0.2,0l0,0l-0.2-0.1l-0.2-0.1l0,0
	c-0.2-0.1-0.3-0.3-0.4-0.4c0-0.1-0.1-0.1-0.1-0.2c0-0.1,0-0.1,0-0.2c0-0.1,0-0.1,0-0.2V199c0-0.1,0-0.1,0-0.2c0.1-0.6,0.6-1,1.2-1
	h46.2c0.6,0,1.1,0.4,1.2,1C1137.9,198.7,1137.8,198.8,1137.7,198.9z"/>
<rect x="1093.4" y="197.6" class="st12" width="4.1" height="9.1"/>
<rect x="1099.9" y="197.6" class="st12" width="4.1" height="9.1"/>
<rect x="1123.2" y="197.6" class="st10" width="10.2" height="9.1"/>
<path class="st2" d="M1137.7,198.6h-48.6c0.1-0.6,0.6-1,1.2-1h46.2C1137.1,197.6,1137.6,198.1,1137.7,198.6z"/>
<path class="st2" d="M1137.7,205.7c0,0.1,0,0.1,0,0.2c0,0.1-0.1,0.1-0.1,0.2c-0.1,0.1-0.2,0.2-0.3,0.3l0,0l0,0l-0.1,0.1l-0.1,0.1
	l0,0l-0.2,0.1l-0.2,0.1l0,0c-0.1,0-0.1,0-0.2,0h-46.2c-0.1,0-0.1,0-0.2,0l0,0l-0.2-0.1l-0.2-0.1l0,0c-0.2-0.1-0.3-0.3-0.4-0.4
	c0-0.1-0.1-0.1-0.1-0.2c0-0.1,0-0.1,0-0.2L1137.7,205.7z"/>
<path class="st5" d="M1140.5,189.8v6.7c0,0.1,0,0.1,0,0.2c0,0.1,0,0.1,0,0.2c0,0.1-0.1,0.1-0.1,0.2c-0.1,0.1-0.2,0.2-0.3,0.3l0,0
	l-0.1,0.1l-0.1,0.1l0,0l-0.2,0.1c-0.1,0-0.1,0.1-0.2,0.1l0,0c-0.1,0-0.1,0-0.2,0H1093c-0.1,0-0.1,0-0.2,0l0,0c-0.1,0-0.1,0-0.2-0.1
	l-0.2-0.1h-0.1c-0.2-0.1-0.3-0.3-0.4-0.4c0-0.1-0.1-0.1-0.1-0.2c0-0.1,0-0.1,0-0.2c0-0.1,0-0.1,0-0.2v-6.7c0-0.1,0-0.1,0-0.2
	c0.1-0.6,0.6-1,1.2-1h46.2C1139.8,188.7,1140.3,189.1,1140.5,189.8C1140.5,189.6,1140.5,189.7,1140.5,189.8z"/>
<rect x="1096.1" y="188.5" class="st12" width="4.1" height="9.1"/>
<rect x="1102.7" y="188.5" class="st11" width="4.1" height="9.1"/>
<rect x="1126" y="188.5" class="st10" width="10.2" height="9.1"/>
<path class="st2" d="M1140.5,189.6h-48.6c0.1-0.6,0.6-1,1.2-1h46.2C1139.9,188.5,1140.4,189,1140.5,189.6z"/>
<path class="st2" d="M1140.5,196.6c0,0.1,0,0.1,0,0.2c0,0.1-0.1,0.1-0.1,0.2c-0.1,0.1-0.2,0.2-0.3,0.3l0,0l-0.1,0.1l-0.1,0.1l0,0
	l-0.2,0.1c-0.1,0-0.1,0.1-0.2,0.1l0,0c-0.1,0-0.1,0-0.2,0H1093c-0.1,0-0.1,0-0.2,0l0,0c-0.1,0-0.1,0-0.2-0.1l-0.2-0.1h-0.1
	c-0.2-0.1-0.3-0.3-0.4-0.4c0-0.1-0.1-0.1-0.1-0.2c0-0.1,0-0.1,0-0.2L1140.5,196.6z"/>
<path class="st5" d="M1144.6,180.7v6.7c0,0.1,0,0.1,0,0.2c0,0.1,0,0.1,0,0.2c0,0.1-0.1,0.1-0.1,0.2c-0.1,0.1-0.2,0.2-0.3,0.3l0,0
	l-0.1,0.1h-0.1l0,0c0,0-0.1,0.1-0.2,0.1l-0.2,0.1l0,0h-0.2h-46.2h-0.2l0,0l-0.2-0.1l-0.2-0.1h-0.1c-0.2-0.1-0.3-0.3-0.4-0.4
	c0-0.1-0.1-0.1-0.1-0.2c0-0.1,0-0.1,0-0.2c0-0.1,0-0.1,0-0.2v-6.7c0-0.1,0-0.1,0-0.2c0.1-0.6,0.6-1,1.2-1h46.2c0.6,0,1.1,0.4,1.2,1
	C1144.7,180.5,1144.7,180.6,1144.6,180.7z"/>
<rect x="1100.2" y="179.4" class="st12" width="4.1" height="9.1"/>
<rect x="1106.8" y="179.4" class="st10" width="4.1" height="9.1"/>
<rect x="1130.1" y="179.4" class="st10" width="10.2" height="9.1"/>
<path class="st2" d="M1144.6,180.5H1096c0.1-0.6,0.6-1,1.2-1h46.2C1143.9,179.4,1144.5,179.9,1144.6,180.5z"/>
<path class="st2" d="M1144.6,187.6c0,0.1,0,0.1,0,0.2c0,0.1-0.1,0.1-0.1,0.2c-0.1,0.1-0.2,0.2-0.3,0.3l0,0l-0.1,0.1h-0.1l0,0
	c0,0-0.1,0.1-0.2,0.1l-0.2,0.1l0,0h-0.2h-46.2h-0.2l0,0l-0.2-0.1l-0.2-0.1h-0.1c-0.2-0.1-0.3-0.3-0.4-0.4c0-0.1-0.1-0.1-0.1-0.2
	c0-0.1,0-0.1,0-0.2L1144.6,187.6z"/>
<path class="st15" d="M1136.9,253.5c0,0.1,0,0.1,0,0.2v6.5l-4.2-3l-5.3-3.7l-1-0.7l-0.4-0.3l-1-0.7l-1-0.7l-9.1-6.4l-1.2-0.8
	l-0.3-0.2h13.5c0.6,0,1.1,0.4,1.2,1c0,0.1,0,0.1,0,0.2v6.7c0,0.1,0,0.1,0,0.2s0,0.1,0,0.2c0,0.1-0.1,0.1-0.1,0.2
	c-0.1,0.1-0.2,0.2-0.3,0.3h8C1136.3,252.5,1136.8,252.9,1136.9,253.5z"/>
<path class="st15" d="M1144.9,262.3v2.3l-3.6-2.5l-0.7-0.5l-0.7-0.5h3.8c0.6,0,1.1,0.4,1.2,1
	C1144.9,262.2,1144.9,262.3,1144.9,262.3z"/>
<path class="st5" d="M1161.7,264.8l-4.4,5c-0.4,0.5-1.2,0.6-1.7,0.1l-34.9-30.2c-0.5-0.4-0.6-1.2-0.1-1.7l4.4-5l0.2-0.1
	c0.5-0.4,1.1-0.4,1.6,0l34.9,30.2c0.5,0.4,0.6,1,0.2,1.5C1161.8,264.7,1161.8,264.7,1161.7,264.8z"/>
<rect x="1123" y="237.6" transform="matrix(0.6545 -0.7561 0.7561 0.6545 208.3928 935.3442)" class="st10" width="9.1" height="4.1"/>
<rect x="1128" y="241.9" transform="matrix(0.6545 -0.7561 0.7561 0.6545 206.8764 940.5964)" class="st10" width="9.1" height="4.1"/>
<rect x="1147.9" y="256.1" transform="matrix(0.6545 -0.7561 0.7561 0.6545 200.7009 961.6188)" class="st10" width="9.1" height="10.2"/>
<path class="st2" d="M1161.8,264.6l-36.7-31.8c0.5-0.4,1.1-0.4,1.6,0l34.9,30.2C1162,263.4,1162.2,264.1,1161.8,264.6z"/>
<path class="st2" d="M1120.5,238.2l36.7,31.8c-0.5,0.4-1.1,0.4-1.6,0l-34.9-30.2C1120.2,239.4,1120.1,238.7,1120.5,238.2z"/>
<path class="st16" d="M1087.7,213.5v0.9c0,0.1,0,0.1,0,0.2v0.1c0,0.1,0,0.1-0.1,0.2v0.1c-0.1,0.2-0.3,0.4-0.5,0.5h-0.1h-0.1h-0.1
	c-0.1,0-0.2,0-0.3,0h-3.9c0.6,0,1.1,0.4,1.2,1c0,0.1,0,0.1,0,0.2v6.7c0,0.1,0,0.1,0,0.2l0,0v0.1c0,0,0,0,0,0.1l-0.1,0.1
	c0,0,0,0.1-0.1,0.1l0,0c-0.1,0.2-0.2,0.3-0.4,0.4l-0.1,0.1h-0.1h-0.1c-0.1,0-0.2,0-0.3,0h-1.8c0.6,0,1.1,0.4,1.2,1
	c0,0.1,0,0.1,0,0.2v6.7c0,0.1,0,0.1,0,0.2l0,0v0.1v0.1l-0.1,0.1c0,0,0,0.1-0.1,0.1v0.1c-0.1,0.2-0.2,0.3-0.4,0.4h-0.1h-0.1h-0.1
	c-0.1,0-0.2,0-0.3,0h1.8c0.6,0,1.1,0.4,1.2,1c0,0.1,0,0.1,0,0.2v6.7c0,0.1,0,0.1,0,0.2c0,0.1,0,0.1,0,0.2v0.1
	c-0.1,0.2-0.2,0.4-0.4,0.5l-0.1,0.1l-0.1,0.1h-0.1h-0.1c-0.1,0-0.2,0-0.3,0h-4.2c0.6,0,1.1,0.4,1.2,1c0,0.1,0,0.1,0,0.2v6.7
	c0,0.1,0,0.2,0,0.3s0,0.1-0.1,0.2c0,0.1-0.1,0.2-0.2,0.3l-0.1,0.1l-0.1,0.1l-0.1,0.1l-0.1,0.1c-0.1,0-0.1,0.1-0.2,0.1h-0.1
	c-0.1,0-0.2,0-0.3,0h1.8c0.6,0,1.1,0.4,1.2,1c0,0.1,0,0.1,0,0.2v6.7c0,0.1,0,0.1,0,0.2s-0.1,0.2-0.1,0.3c0,0,0,0,0,0.1
	c-0.1,0.2-0.3,0.4-0.5,0.5h-0.1h-0.1h-0.1c-0.1,0-0.2,0-0.3,0h-3.5c0.6,0,1.1,0.4,1.2,1c0,0.1,0,0.1,0,0.2v7.4c0,0.1,0,0.1,0,0.2
	v0.1l-0.1,0.2v0.1c-0.1,0.3-0.4,0.5-0.7,0.6h-0.1c-0.1,0-0.2,0-0.3,0h-9.8c-0.5-0.3-1-0.6-1.5-1c-0.7-0.5-1.3-1-2-1.5
	c-2-1.6-3.8-3.5-5.3-5.6c-0.2-0.3-0.5-0.7-0.7-1s-0.4-0.7-0.7-1c-1.4-2.2-2.5-4.6-3.2-7.1c-0.1-0.3-0.2-0.7-0.3-1s-0.2-0.7-0.3-1
	c-0.5-2.3-0.8-4.7-0.8-7.1l0,0c0-0.3,0-0.7,0-1s0-0.7,0-1c0.2-2.4,0.6-4.8,1.3-7.1c0.1-0.3,0.2-0.7,0.3-1s0.2-0.7,0.4-1
	c1-2.5,2.3-4.9,3.9-7.1c0.2-0.3,0.5-0.7,0.8-1s0.6-0.7,0.8-1c2.5-2.9,5.6-5.3,9-7.1l0.6-0.3c0.5-0.2,1-0.5,1.6-0.7
	c0.8-0.3,1.5-0.6,2.3-0.9l0.4-0.1c3-1,6.2-1.5,9.4-1.5h0.5C1085.1,213.1,1086.4,213.3,1087.7,213.5z"/>
<ellipse transform="matrix(0.1999 -0.9798 0.9798 0.1999 631.246 1260.8748)" class="st0" cx="1087.7" cy="243.9" rx="30.8" ry="30.8"/>
<ellipse transform="matrix(0.3939 -0.9191 0.9191 0.3939 434.5046 1146.8101)" class="st0" cx="1086.8" cy="243.9" rx="24.4" ry="24.4"/>
<path class="st1" d="M1086.9,219.5c-0.5,0-0.9,0-1.4,0.1c13.5,0.8,23.7,12.3,23,25.8c-0.7,12.4-10.6,22.3-23,23c0.5,0,0.9,0,1.4,0
	c13.5-0.3,24.2-11.4,23.9-24.9C1110.6,230.3,1100,219.7,1086.9,219.5L1086.9,219.5z"/>
<ellipse transform="matrix(0.9868 -0.1618 0.1618 0.9868 -25.1376 179.0745)" class="st1" cx="1086.9" cy="243.9" rx="16.1" ry="16.1"/>
<path class="st5" d="M1093.7,236.7v-2.4h-13.6v2.4h3.8c1.6,0,2.9,1,3.4,2.5h-7.2v2.3h7.2c-0.5,1.5-1.9,2.5-3.4,2.5h-3.8v2.4h0.8
	c1.1,0,2.3,0.3,3.3,0.9c2.8,1.8,4.9,4.5,5.8,7.6h2.5c-1-3.6-3.2-6.8-6.2-9c1.8-0.8,3.1-2.4,3.5-4.3h3.9v-2.3h-3.9
	c-0.2-0.9-0.6-1.8-1.1-2.5L1093.7,236.7z"/>
<path class="st5" d="M1275.4,113.5l0.1,0.3v0.1l0,0c0,0,0,0,0,0.1l0,0c0,0.1-0.1,0.2-0.2,0.3l0,0l0,0l0,0h-0.1l-1.5,0.5
	c0.2-0.1,0.5,0,0.6,0.2v0.1l0.9,2.6v0.1l0,0l0,0v0.1c0,0,0,0,0,0.1l0,0c0,0.1-0.1,0.1-0.1,0.2l0,0l0,0l0,0h-0.1l-0.7,0.2
	c0.2-0.1,0.5,0,0.6,0.2v0.1l0.9,2.6c0,0,0,0,0,0.1l0,0v0.1c0,0,0,0,0,0.1l0,0c0,0.1-0.1,0.1-0.1,0.2l0,0l0,0l0,0h-0.1l0.7-0.2
	c0.2-0.1,0.5,0,0.6,0.2v0.1l0.9,2.6v0.1c0,0,0,0,0,0.1s0,0,0,0c0,0.1,0,0.2-0.1,0.2l0,0l0,0l0,0l0,0l-0.1,0.1l-1.6,0.6
	c0.2-0.1,0.5,0,0.6,0.2c0,0,0,0,0,0.1l0.9,2.6v0.1v0.1v0.1l0,0l0,0l0,0l0,0l-0.1,0.1l0,0l-0.1,0.1l0.7-0.2c0.2-0.1,0.5,0,0.6,0.2
	v0.1l0.9,2.6v0.1v0.1l0,0c0,0.1-0.1,0.2-0.2,0.3l0,0l0,0l0,0h-0.1l-1.3,0.4c0.2-0.1,0.5,0,0.6,0.2v0.1l0.9,2.6c0,0,0,0,0,0.1v0.1
	l0,0c0,0.1-0.1,0.2-0.2,0.3l0,0l-0.1,0.1l-3.8,1.2c-0.2-0.1-0.5-0.1-0.7-0.2s-0.6-0.2-1-0.3c-1-0.4-1.9-0.9-2.8-1.5l-0.4-0.3
	l-0.4-0.3c-0.8-0.7-1.5-1.5-2.2-2.3c-0.1-0.1-0.2-0.2-0.2-0.4l-0.2-0.4c-0.5-0.8-0.9-1.7-1.2-2.6l0,0l-0.1-0.4
	c0-0.1-0.1-0.3-0.1-0.4c-0.2-1-0.4-1.9-0.4-2.9v-0.4c0-0.1,0-0.3,0-0.4c0.1-1.1,0.3-2.2,0.6-3.2c0.1-0.2,0.1-0.3,0.2-0.5
	s0.1-0.3,0.2-0.5c0.6-1.5,1.5-2.8,2.6-3.9c0.1-0.1,0.1-0.1,0.2-0.2c0.2-0.2,0.3-0.3,0.5-0.5s0.5-0.4,0.8-0.6l0.1-0.1
	c1.1-0.8,2.2-1.4,3.5-1.8l0.2-0.1C1274.5,113.1,1275,113.3,1275.4,113.5z"/>
<ellipse transform="matrix(0.9929 -0.1188 0.1188 0.9929 -5.8185 152.8673)" class="st0" cx="1279.3" cy="125.2" rx="12.6" ry="12.6"/>
<circle class="st0" cx="1279" cy="125.4" r="10"/>
<path class="st0" d="M1275.9,116l-0.5,0.2c5.4-1.3,10.8,2,12.1,7.3c1.2,4.8-1.3,9.7-5.8,11.6l0.5-0.2c5.2-1.7,8.1-7.4,6.4-12.6
	S1281.1,114.2,1275.9,116L1275.9,116z"/>
<path class="st5" d="M1280.7,121.8l-0.3-0.9l-3.8,1.3l-1.5,0.5l0.3,0.9l1.5-0.5c0.6-0.2,1.3,0,1.7,0.5l-2.8,0.9l0.3,0.9l2.8-0.9
	c0,0.6-0.4,1.2-1,1.4l-1.5,0.5l0.3,0.9l0.3-0.1c0.4-0.2,0.9-0.2,1.4-0.1c1.3,0.3,2.5,1.1,3.2,2.2l0.9-0.3c-0.8-1.3-2.1-2.2-3.6-2.7
	c0.6-0.5,0.9-1.3,0.8-2.1l1.5-0.5l-0.3-0.9l-1.5,0.5c-0.2-0.3-0.4-0.6-0.8-0.8L1280.7,121.8z"/>
<path class="st4" d="M113.8,213.7l0.1,0.4v0.1l0,0c0,0,0,0,0,0.1l0,0c0,0.1-0.1,0.2-0.2,0.3l0,0l0,0l0,0l-0.1,0.1l-1.5,0.5
	c0.2-0.1,0.5,0,0.6,0.2v0.1l0.9,2.6v0.1l0,0l0,0v0.1l0,0l0,0c0,0.1-0.1,0.1-0.1,0.2l0,0l0,0l0,0l-0.1,0.1l-0.7,0.2
	c0.2-0.1,0.5,0,0.6,0.2v0.1l0.9,2.6v0.1l0,0v0.1c0,0,0,0,0,0.1l0,0c0,0.1-0.1,0.1-0.1,0.2l0,0l0,0l0,0H114l0.7-0.2
	c0.2-0.1,0.5,0,0.6,0.2v0.1l0.9,2.6v0.1v0.1l0,0c0,0.1,0,0.2-0.1,0.2l0,0l0,0l0,0l0,0H116l-1.6,0.5c0.2-0.1,0.5,0,0.6,0.2v0.1
	l0.9,2.6v0.1v0.1v0.1l0,0l0,0l0,0l0,0l-0.1,0.1l0,0l-0.1,0.1l0.7-0.2c0.2-0.1,0.5,0,0.6,0.2v0.1l0.9,2.6v0.1v0.1l0,0
	c0,0.1-0.1,0.2-0.1,0.3l0,0l0,0l0,0h-0.1l-1.3,0.4c0.2-0.1,0.5,0,0.6,0.2v0.1l0.9,2.6v0.1v0.1c0,0,0,0,0,0.1s-0.1,0.2-0.2,0.3l0,0
	h-0.1l-3.8,1.3l-0.7-0.2c-0.3-0.1-0.6-0.2-1-0.3c-1-0.4-1.9-0.9-2.8-1.5l-0.4-0.3l-0.4-0.3c-0.8-0.7-1.5-1.5-2.2-2.3
	c-0.1-0.1-0.2-0.2-0.2-0.4l-0.2-0.4c-0.5-0.8-0.9-1.7-1.2-2.6l0,0l-0.1-0.4c0-0.1-0.1-0.3-0.1-0.4c-0.2-1-0.4-1.9-0.4-2.9v0.7
	c0-0.1,0-0.3,0-0.4c0.1-1.1,0.3-2.2,0.6-3.3c0.1-0.2,0.1-0.3,0.2-0.5s0.1-0.3,0.2-0.5c0.6-1.5,1.5-2.8,2.6-3.9l0.2-0.2l0.5-0.5
	c0.2-0.2,0.5-0.4,0.8-0.6l0.1-0.1c1-0.7,2-1.3,3.2-1.8l0.2-0.1C112.7,214,113.3,213.8,113.8,213.7z"/>
<circle class="st0" cx="117.8" cy="225.5" r="12.6"/>
<circle class="st0" cx="117.5" cy="225.6" r="10"/>
<path class="st0" d="M114.3,216.2l-0.5,0.2c5.4-1.3,10.8,2,12.1,7.4c1.1,4.8-1.3,9.6-5.8,11.6l0.6-0.2c5.2-1.7,8.1-7.4,6.4-12.6
	C125.2,217.2,119.6,214.4,114.3,216.2L114.3,216.2z"/>
<circle class="st0" cx="117.5" cy="225.6" r="6.6"/>
<path class="st0" d="M119.2,222l-0.3-0.9l-3.8,1.3l-1.5,0.5l0.3,0.9l1.5-0.5c0.6-0.2,1.3,0,1.7,0.5l-2.8,0.9l0.3,0.9l2.8-0.9
	c0,0.6-0.4,1.2-1,1.4l-1.5,0.5l0.3,0.9l0.3-0.1c0.4-0.2,0.9-0.2,1.4-0.1c1.3,0.3,2.5,1.1,3.3,2.2l1-0.3c-0.8-1.3-2.1-2.2-3.6-2.7
	c0.6-0.5,0.9-1.3,0.8-2.1l1.5-0.5l-0.3-0.9l-1.5,0.5c-0.2-0.3-0.5-0.6-0.8-0.8L119.2,222z"/>
<path class="st17" d="M1062.9,44.6l-2.4,6.4v1.6l-1.9,5c0,0-0.3,1.2,2.1,0.9v2c0,0,0.8,0.4,0,1c0,0.6,0.2,0.7,0.2,0.7s0.4,0.3,0.1,1
	c-0.5,0.7-0.3,1.6,0.4,2.1c0.1,0.1,0.2,0.1,0.2,0.1c1.4,0.4,2.9,0.4,4.2-0.2c0.5,0.7,1,1.4,1.3,2.2v7l2.7,9.2l5.3,3.4l2.9-9.1
	l3.4-8.5v-5.2V52l-6.4-11.4l-8-0.2L1062.9,44.6z"/>
<path class="st18" d="M1076,54.2c0,0,2.6-2,1.9,2.5c0.8-1.1,0.8-2.5,0.1-3.7C1077,52.4,1076,54.2,1076,54.2z"/>
<path class="st18" d="M1075.6,56.8c0,0,0.1-2,0.9-1.9s1.2,2.3-1.6,3.3C1075.2,57.7,1075.4,57.3,1075.6,56.8z"/>
<path class="st19" d="M1061.8,50.4c0,0,3.2,0,4.3,1.2c-1.6-0.5-3.2-0.7-4.9-0.6C1061,50.5,1061.8,50.4,1061.8,50.4z"/>
<path d="M1064.8,37.9c0,0,1.3,1.5,8.3,0s18,4.3,13.5,16c-4.6,8.5-4.9,10.3-4.9,10.3s-3.5-1.5-2.8-8.4c0,0,1.3-5.3-3.4-2.9l-1.5,2.9
	l-1.8,0.3l0.6-3.1c0,0-2.6-3.9-3.7-3.8c0,0,4.7-5.3,0.8-5.6c-2.4-0.2-4.7,0.1-6.9,0.9L1064.8,37.9z"/>
<path class="st18" d="M1061,59.7c1.3-0.1,2.5,0.5,3.3,1.5c0,0-2.5-1-3.3-0.3C1060.2,59.6,1061,59.7,1061,59.7z"/>
<path class="st20" d="M1064.2,61.2c-0.9,0.5-1.8,0.9-2.7,1.2c-0.8,0.2-0.8-1.4-0.6-1.6C1061,60.9,1061.7,60.1,1064.2,61.2z"/>
<path class="st21" d="M1061.9,52.6c0.2-0.6,0.3-0.7,0.6-0.7s2.8,1.1,1.8,1.2C1063.5,53.1,1062.6,52.9,1061.9,52.6z"/>
<path class="st22" d="M1061.3,52.4c0,0.1-0.4,0.3,0.6,0.2s0,0.7,0,0.7s-0.1,0.4,0,0.6c0.8,0.1,1.5-0.1,2.2-0.5
	c0.5-0.3,0.7-0.5,0.1-0.6c-0.6-0.2-1.2-0.4-1.8-0.5C1061.4,52.2,1061.3,52.2,1061.3,52.4z"/>
<path class="st23" d="M1064.3,53.1c0.1-0.2-0.9-0.6-2.4-0.5c0,0-0.2,0.2-0.1,0.7s0.3,0.6,1.1,0.5S1064.1,53.4,1064.3,53.1z"/>
<path class="st22" d="M1061.9,52.6h0.3c0.2,0,0.4,0.2,0.5,0.4c0.1,0.3-0.1,0.7-0.4,0.8l0,0c-0.4,0-0.5-0.2-0.5-0.5
	S1061.9,52.6,1061.9,52.6z"/>
<path class="st24" d="M1062.2,53.8c0.3-0.1,0.5-0.4,0.4-0.7l0,0c-0.1-0.2-0.2-0.4-0.5-0.4h-0.3l0,0h0.3c0.2,0,0.4,0.2,0.5,0.4
	C1062.8,53.4,1062.6,53.7,1062.2,53.8C1062.3,53.8,1062.3,53.8,1062.2,53.8h-0.2H1062.2z"/>
<path class="st25" d="M1063.5,52.7c0.6,0.1,1,0.3,0.9,0.4c-0.3,0.3-0.7,0.5-1.1,0.6C1064.2,53.4,1063.8,52.8,1063.5,52.7z"/>
<path class="st25" d="M1063.4,53.6L1063.4,53.6z"/>
<path class="st22" d="M1062.2,53.1c0,0.2-0.1,0.3-0.3,0.3l0,0h-0.1c0-0.1,0-0.1-0.1-0.2c0-0.1,0-0.2,0-0.4h0.1
	C1062,52.9,1062.1,53,1062.2,53.1z"/>
<path class="st26" d="M1061.9,52.8c0,0.1,0,0.2,0.1,0.2s0.2,0,0.3,0s0-0.2-0.1-0.2C1062.1,52.8,1062,52.8,1061.9,52.8z"/>
<path class="st26" d="M1062,53.5L1062,53.5l0.2-0.1C1062.2,53.4,1062.1,53.3,1062,53.5C1062.1,53.5,1062,53.4,1062,53.5z"/>
<path class="st20" d="M1066,65.4c0,0,4,0.9,8.5-4.9c0,0-3.6,8.6-6.3,11.4L1066,65.4z"/>
<linearGradient id="SVGID_1_" gradientUnits="userSpaceOnUse" x1="1075.098" y1="305" x2="1075.098" y2="256.3" gradientTransform="matrix(1 0 0 1 0 -188)">
	<stop  offset="0" style="stop-color:#E8E8E9"/>
	<stop  offset="1" style="stop-color:#FFFFFF"/>
</linearGradient>
<path class="st27" d="M1079,117c12.2-23.3,4.7-48.7,4.7-48.7h-16.4C1056.1,96.5,1079,117,1079,117z"/>
<g>
	<g>
		<defs>
			<path id="SVGID_00000093886612532222285900000011878486591425748383_" d="M1079,117c12.2-23.3,4.7-48.7,4.7-48.7h-16.4
				C1056.1,96.5,1079,117,1079,117z"/>
		</defs>
		<clipPath id="SVGID_00000025422675745409119360000002264313653334998203_">
			<use xlink:href="#SVGID_00000093886612532222285900000011878486591425748383_"  style="overflow:visible;"/>
		</clipPath>
		<g style="clip-path:url(#SVGID_00000025422675745409119360000002264313653334998203_);">
			<path class="st1" d="M1071.6,76.6c0,0-0.9,20.4,2.1,36.7l5.3,3.7c0.9-1.6,1.6-3.2,2.2-4.9c0.8-2.8-5.5-35.5-5.5-35.5H1071.6z"/>
		</g>
	</g>
</g>
<linearGradient id="SVGID_00000164503040253648455120000005526428932219582891_" gradientUnits="userSpaceOnUse" x1="1064.9301" y1="259.75" x2="1072.74" y2="259.75" gradientTransform="matrix(1 0 0 1 0 -188)">
	<stop  offset="0" style="stop-color:#E8E8E9"/>
	<stop  offset="1" style="stop-color:#FFFFFF"/>
</linearGradient>
<polygon style="fill:url(#SVGID_00000164503040253648455120000005526428932219582891_);" points="1067.2,68.3 1064.9,75.2 
	1072.7,71.7 "/>
<linearGradient id="SVGID_00000082352874765817056610000000545240781213175997_" gradientUnits="userSpaceOnUse" x1="1072.74" y1="257.8" x2="1083.61" y2="257.8" gradientTransform="matrix(1 0 0 1 0 -188)">
	<stop  offset="0" style="stop-color:#E8E8E9"/>
	<stop  offset="1" style="stop-color:#FFFFFF"/>
</linearGradient>
<polygon style="fill:url(#SVGID_00000082352874765817056610000000545240781213175997_);" points="1072.7,71.7 1082,75.2 
	1083.6,68.3 1081.6,64.4 "/>
<path d="M1087.9,273.9c1.3-0.9,2.1-2.3,2.2-3.8V268c0,2.4-3.7,3-3.7,3v3L1087.9,273.9z"/>
<path d="M1085.6,276.2c-1.1,3.3-12.7,6-14.3,2.9c-0.1,0.4-0.2,0.9-0.2,1.3c0.1,4.3,13.4,1.5,14.6-2.1L1085.6,276.2z"/>
<path class="st31" d="M1077.4,266.2l-3.2,6.4c0,0-3.2,3.1-3.2,5.7c0.1,4.3,13.4,1.5,14.6-2.1s2.3-4.4,2.3-4.4
	c1.3-0.9,2.1-2.3,2.2-3.8v-7.9C1090,260.1,1086.4,264.5,1077.4,266.2z"/>
<g>
	<g>
		<defs>
			<path id="SVGID_00000116214111532860350120000000464655960211722415_" d="M1077.4,266.2l-3.2,6.4c0,0-3.2,3.1-3.2,5.7
				c0.1,4.3,13.4,1.5,14.6-2.1s2.3-4.4,2.3-4.4c1.3-0.9,2.1-2.3,2.2-3.8v-7.9C1090,260.1,1086.4,264.5,1077.4,266.2z"/>
		</defs>
		<clipPath id="SVGID_00000049218945934425626120000014472516873415150726_">
			<use xlink:href="#SVGID_00000116214111532860350120000000464655960211722415_"  style="overflow:visible;"/>
		</clipPath>
		<g style="clip-path:url(#SVGID_00000049218945934425626120000014472516873415150726_);">
			<path d="M1092.6,258c0,0,0.3,10.2-17,10l3.9-6L1092.6,258z"/>
		</g>
	</g>
</g>
<path class="st33" d="M1060.1,155c0,0-4,27.9,6.3,60.8l9.5,41.5l-1.2,6.8l2.7,2.2c0,0,12.8-0.2,12.6-6.1l-2.2-5.5l2.2-2.2l-9.3-41
	l2.5-38.3L1075,141L1060.1,155z"/>
<g>
	<g>
		<defs>
			<path id="SVGID_00000116207432851845849960000013882879768921655450_" d="M1060.1,155c0,0-4,27.9,6.3,60.8l9.5,41.5l-1.2,6.8
				l2.7,2.2c0,0,12.8-0.2,12.6-6.1l-2.2-5.5l2.2-2.2l-9.3-41l2.5-38.3L1075,141L1060.1,155z"/>
		</defs>
		<clipPath id="SVGID_00000004543638608675076470000007743102900833439361_">
			<use xlink:href="#SVGID_00000116207432851845849960000013882879768921655450_"  style="overflow:visible;"/>
		</clipPath>
		<g style="clip-path:url(#SVGID_00000004543638608675076470000007743102900833439361_);">
			<path class="st35" d="M1085.6,207.7c-0.5,0.9-24.3,33.6-24.3,33.6l14.7,16l14.1-25L1085.6,207.7z"/>
			<polygon class="st35" points="1053.7,166.2 1077.4,167.9 1084.4,187 1078.4,133.4 1048,160.2 			"/>
		</g>
	</g>
</g>
<path class="st33" d="M1103,144.6l3.9,59.5c0,0,0.3,5.2-7.1,14.8s-27.2,38.3-27.2,38.3s-9.3-11.7-6-20.9c0.9-2.6,4.3-0.8,4.3-0.8
	l19.3-36.7l-7-25.8l-5.9-12.8v-29.9L1103,144.6z"/>
<g>
	<g>
		<defs>
			<path id="SVGID_00000130606374289677625330000009523049193324734625_" d="M1103,144.6l3.9,59.5c0,0,0.3,5.2-7.1,14.8
				s-27.2,38.3-27.2,38.3s-9.3-11.7-6-20.9c0.9-2.6,4.3-0.8,4.3-0.8l19.3-36.7l-7-25.8l-5.9-12.8v-29.9L1103,144.6z"/>
		</defs>
		<clipPath id="SVGID_00000121241297191458607370000010528822345101701812_">
			<use xlink:href="#SVGID_00000130606374289677625330000009523049193324734625_"  style="overflow:visible;"/>
		</clipPath>
		<g style="clip-path:url(#SVGID_00000121241297191458607370000010528822345101701812_);">
			<path class="st35" d="M1084.4,179.2l-2.6-27.3l6.3,15c0,0,14.7,3.9,21-11.5l-19-24.9l-19.4,18.6L1084.4,179.2z"/>
		</g>
	</g>
</g>
<path d="M1059.7,269.4c2.9,7.5,6.8,7.7,6.8,7.7h2.1c0,0-3.7-0.4-6.8-7.7c-1.6-3.7-0.8-6.9,0-10
	C1061.8,259.4,1057.6,264,1059.7,269.4z"/>
<path d="M1062.1,249.9c-1.5-3.6-2-7.5-1.3-11.3c0.1-0.8,0.9-1.4,1.7-1.4h-2.1c-0.8,0-1.6,0.6-1.7,1.4c-0.6,3.8-0.2,7.7,1.3,11.3
	H1062.1z"/>
<path class="st31" d="M1066.3,237.2h-4.2c-0.8,0-1.6,0.6-1.7,1.4c-0.6,3.8-0.2,7.7,1.3,11.3c2.9,6.6-3.5,12.2-0.3,19.5
	s6.8,7.7,6.8,7.7l0,0c1.6,0,2.9-1.2,3-2.8l1.3-17.1C1072.6,257.2,1064.3,246.5,1066.3,237.2z"/>
<g>
	<g>
		<defs>
			<path id="SVGID_00000113317733647509820360000002860832361496821435_" d="M1066.3,237.2h-4.2c-0.8,0-1.6,0.6-1.7,1.4
				c-0.6,3.8-0.2,7.7,1.3,11.3c2.9,6.6-3.5,12.2-0.3,19.5s6.8,7.7,6.8,7.7l0,0c1.6,0,2.9-1.2,3-2.8l1.3-17.1
				C1072.6,257.2,1064.3,246.5,1066.3,237.2z"/>
		</defs>
		<clipPath id="SVGID_00000055666316077481254420000002224662926931108227_">
			<use xlink:href="#SVGID_00000113317733647509820360000002860832361496821435_"  style="overflow:visible;"/>
		</clipPath>
		<g style="clip-path:url(#SVGID_00000055666316077481254420000002224662926931108227_);">
			<path d="M1064.6,235.1c0,0-2.6,18.5,9.3,23.5l-7-26.1L1064.6,235.1z"/>
		</g>
	</g>
</g>
<path class="st38" d="M1067.2,68.3l-9.4,8l-10,2.8l12.7,38.5c0,0-4.1,24.2-3,39.9h21.2l1.4-17.7l7.8,17.7c0,0,14,2.2,17.6-11.8
	l-6.6-18.6l6.6-33.4c0,0,2.9-14.3,0-24.5l-8.3,0.6l-13.6-1.5c0,0,7.5,25.4-4.7,48.7C1079,117,1056.1,96.5,1067.2,68.3z"/>
<polygon class="st2" points="1069.7,73.1 1071.6,76.6 1075.7,76.6 1077.4,73.4 1072.7,71.7 "/>
<path class="st38" d="M1105.6,69.2l25.3,30.5c1.3,1.6,1.5,3.8,0.5,5.6l-14.2,25.2l-9.5-7.3l10.6-18.5l-4.1-1.1l-1.5-3.7l-7.1-6.1
	C1105.6,93.7,1106.8,80,1105.6,69.2z"/>
<g>
	<g>
		<defs>
			<path id="SVGID_00000091738199146596602770000004976622344967005108_" d="M1105.6,69.2l25.3,30.5c1.3,1.6,1.5,3.8,0.5,5.6
				l-14.2,25.2l-9.5-7.3l10.6-18.5l-4.1-1.1l-1.5-3.7l-7.1-6.1C1105.6,93.7,1106.8,80,1105.6,69.2z"/>
		</defs>
		<clipPath id="SVGID_00000031889991127560321630000014719865853383460782_">
			<use xlink:href="#SVGID_00000091738199146596602770000004976622344967005108_"  style="overflow:visible;"/>
		</clipPath>
		<g style="clip-path:url(#SVGID_00000031889991127560321630000014719865853383460782_);">
			<path class="st40" d="M1106.9,96.8c0,0,4.7-6.1,1.2-20.2l-2.5,17.1"/>
			<polygon class="st40" points="1112.7,99.8 1116.1,101.6 1122.2,97.7 1118.2,104.6 1111.2,106.3 			"/>
		</g>
	</g>
</g>
<linearGradient id="SVGID_00000073679795427934070310000012536173046214170003_" gradientUnits="userSpaceOnUse" x1="1110.95" y1="320.32" x2="1110.95" y2="311.12" gradientTransform="matrix(1 0 0 1 0 -188)">
	<stop  offset="0" style="stop-color:#E8E8E9"/>
	<stop  offset="1" style="stop-color:#FFFFFF"/>
</linearGradient>
<polygon style="fill:url(#SVGID_00000073679795427934070310000012536173046214170003_);" points="1107.7,123.1 1105.8,125.8 
	1114.2,132.3 1116.1,129.6 "/>
<path class="st42" d="M1105.8,125.8l-6.6,0.5l-0.3,0.8l3.4,9.7l5.3-2.8c0.4-0.2,0.8-0.5,1.1-0.9l2.4-3L1105.8,125.8z"/>
<path class="st38" d="M1047.8,79l-3.3,24.8l-4,10.4l-13.7-0.6c0,0,1.1,9.1-3.1,11.9l0,0c0.3,0.9,1.2,1.5,2.1,1.5h21.1
	c0,0,8.5-0.6,10.7-18.4L1047.8,79z"/>
<g>
	<g>
		<defs>
			<path id="SVGID_00000039854528801524937330000013622055945421342372_" d="M1047.8,79l-3.3,24.8l-4,10.4l-13.7-0.6
				c0,0,1.1,9.1-3.1,11.9l0,0c0.3,0.9,1.2,1.5,2.1,1.5h21.1c0,0,8.5-0.6,10.7-18.4L1047.8,79z"/>
		</defs>
		<clipPath id="SVGID_00000049224286856959715760000012811451851743787676_">
			<use xlink:href="#SVGID_00000039854528801524937330000013622055945421342372_"  style="overflow:visible;"/>
		</clipPath>
		<g style="clip-path:url(#SVGID_00000049224286856959715760000012811451851743787676_);">
			<polygon class="st40" points="1057.6,108.6 1050.7,87.7 1056.6,114 			"/>
			<polyline class="st40" points="1040.6,114.2 1047.8,117.2 1039.4,109.3 1039,114.2 			"/>
		</g>
	</g>
</g>
<linearGradient id="SVGID_00000060014678365407562450000012732415873844728969_" gradientUnits="userSpaceOnUse" x1="1024.5028" y1="313.5" x2="1024.5028" y2="301.32" gradientTransform="matrix(1 0 0 1 0 -188)">
	<stop  offset="0" style="stop-color:#E8E8E9"/>
	<stop  offset="1" style="stop-color:#FFFFFF"/>
</linearGradient>
<path style="fill:url(#SVGID_00000060014678365407562450000012732415873844728969_);" d="M1023.7,125.5L1023.7,125.5
	c-1,0-1.8-0.8-1.8-1.8v-0.4c2.4-2.8,3.1-6.6,1.8-10l3.1,0.3C1026.9,113.6,1028.4,121.1,1023.7,125.5z"/>
<path class="st42" d="M1022.7,122.2l-6.8-6.4l-14.2-3.4l18-0.3c1,0,1.7,0.7,1.8,1.7l0,0l0,0l2.7,1.2
	C1024.7,117.6,1024.1,120.1,1022.7,122.2z"/>
<polygon class="st17" points="1070.6,68.3 1069.7,69.8 1072.7,71.7 1078.8,66.8 "/>
<polygon class="st20" points="1070.6,68.3 1067.2,68.3 1069.7,69.8 "/>
</svg>
