<svg width="25" height="25" viewBox="0 0 25 25" fill="none" xmlns="http://www.w3.org/2000/svg">
<g clip-path="url(#clip0_113_31)">
<path d="M22.5396 15.3109V6.71092C22.5359 6.6463 22.5191 6.58311 22.4904 6.5251C22.4617 6.46709 22.4217 6.41545 22.3726 6.37326C22.3235 6.33108 22.2664 6.29922 22.2047 6.27958C22.143 6.25993 22.0781 6.25291 22.0136 6.25892H19.9766C19.8448 6.24725 19.7138 6.28826 19.6122 6.37297C19.5107 6.45769 19.4468 6.57921 19.4346 6.71092V14.4689C19.0982 14.4774 18.7633 14.5179 18.4346 14.5899V9.24492C18.4297 9.17937 18.4119 9.11544 18.3822 9.05678C18.3525 8.99812 18.3116 8.94588 18.2617 8.90307C18.2118 8.86025 18.154 8.82768 18.0915 8.80724C18.029 8.7868 17.9632 8.77887 17.8976 8.78392H15.8606C15.7952 8.77834 15.7294 8.78591 15.667 8.8062C15.6046 8.8265 15.5469 8.8591 15.4973 8.90207C15.4477 8.94505 15.4072 8.99753 15.3782 9.05642C15.3492 9.1153 15.3324 9.17941 15.3286 9.24492V16.4939C14.7067 17.2897 14.3694 18.2709 14.3706 19.2809C14.4765 20.5923 15.0723 21.8158 16.0394 22.7079C17.0064 23.6 18.2739 24.0953 19.5896 24.0953C20.9053 24.0953 22.1728 23.6 23.1398 22.7079C24.1069 21.8158 24.7027 20.5923 24.8086 19.2809C24.7977 18.4812 24.5837 17.6973 24.1868 17.0029C23.7899 16.3085 23.2232 15.7263 22.5396 15.3109ZM20.4866 7.23192H21.4866V14.7959C21.1628 14.6777 20.8277 14.5933 20.4866 14.5439V7.23192ZM16.3806 9.75692H17.3806V14.9279C17.0289 15.0768 16.6937 15.2622 16.3806 15.4809V9.75692ZM23.1806 21.2389C22.7871 21.8264 22.2533 22.3063 21.6274 22.6353C21.0016 22.9643 20.3036 23.1319 19.5966 23.1229C18.536 23.1633 17.5025 22.7819 16.7224 22.0623C15.9422 21.3427 15.4788 20.3433 15.4336 19.2829C15.4506 18.4997 15.7062 17.7404 16.1661 17.1063C16.626 16.4721 17.2684 15.9934 18.0076 15.7339C18.0689 15.7234 18.1278 15.7021 18.1816 15.6709C18.6392 15.5156 19.1193 15.4369 19.6026 15.4379C19.7136 15.4379 19.8186 15.4379 19.9286 15.4529H19.9336C20.5613 15.4949 21.1723 15.6738 21.7236 15.9769C22.1834 16.2077 22.5897 16.5324 22.9162 16.93C23.2427 17.3276 23.4821 17.7892 23.6191 18.2851C23.756 18.781 23.7874 19.3002 23.7112 19.809C23.6349 20.3178 23.4528 20.8049 23.1766 21.2389H23.1806Z" fill="#042b62" stroke="#042b62" stroke-width="0.2"/>
<path d="M7.83241 12.6702H5.77942C5.6454 12.6656 5.51498 12.7141 5.41649 12.8051C5.318 12.8961 5.2594 13.0223 5.25342 13.1562V20.7782C5.2594 20.9122 5.318 21.0384 5.41649 21.1294C5.51498 21.2204 5.6454 21.2688 5.77942 21.2642H7.83241C7.96643 21.2688 8.09685 21.2204 8.19534 21.1294C8.29383 21.0384 8.35243 20.9122 8.35841 20.7782V13.1562C8.35243 13.0223 8.29383 12.8961 8.19534 12.8051C8.09685 12.7141 7.96643 12.6656 7.83241 12.6702ZM7.30642 20.3412H6.30642V13.6412H7.30642V20.3412Z" fill="#042b62" stroke="#042b62" stroke-width="0.2"/>
<path d="M12.5058 11.553H10.4528C10.3187 11.5484 10.1883 11.5969 10.0898 11.6879C9.99134 11.7789 9.93274 11.9051 9.92676 12.039V20.827C9.93299 20.9608 9.99172 21.0868 10.0902 21.1775C10.1886 21.2683 10.3189 21.3167 10.4528 21.312H12.5058C12.6396 21.3167 12.7699 21.2683 12.8683 21.1775C12.9668 21.0868 13.0255 20.9608 13.0318 20.827V12.039C13.0258 11.9051 12.9672 11.7789 12.8687 11.6879C12.7702 11.5969 12.6398 11.5484 12.5058 11.553ZM11.9798 20.341H10.9798V12.524H11.9798V20.341Z" fill="#042b62" stroke="#042b62" stroke-width="0.2"/>
<path d="M3.10683 16.845H1.05383C0.919983 16.8404 0.789708 16.8887 0.691246 16.9795C0.592784 17.0703 0.534067 17.1963 0.527832 17.33V20.777C0.534067 20.9108 0.592784 21.0367 0.691246 21.1275C0.789708 21.2183 0.919983 21.2666 1.05383 21.262H3.10683C3.24068 21.2666 3.37096 21.2183 3.46943 21.1275C3.56789 21.0367 3.6266 20.9108 3.63284 20.777V17.33C3.6266 17.1963 3.56789 17.0703 3.46943 16.9795C3.37096 16.8887 3.24068 16.8404 3.10683 16.845ZM2.58083 20.345H1.58083V17.82H2.58083V20.345Z" fill="#042b62" stroke="#042b62" stroke-width="0.2"/>
<path d="M22.3996 0.099839H18.3816C18.2397 0.0871318 18.0983 0.130257 17.9876 0.220062C17.8769 0.309867 17.8055 0.439281 17.7886 0.580839C17.8021 0.722478 17.8706 0.853171 17.9795 0.944806C18.0883 1.03644 18.2288 1.0817 18.3706 1.07084H18.3826H20.9826L14.6106 6.31884L12.3846 4.49384C12.2611 4.41154 12.116 4.36763 11.9676 4.36763C11.8192 4.36763 11.6741 4.41154 11.5506 4.49384L0.271641 13.8148C0.218309 13.854 0.17495 13.9053 0.145065 13.9643C0.115181 14.0234 0.0996094 14.0886 0.0996094 14.1548C0.0996094 14.221 0.115181 14.2863 0.145065 14.3454C0.17495 14.4044 0.218309 14.4556 0.271641 14.4948C0.391477 14.5862 0.537976 14.6356 0.688641 14.6356C0.839305 14.6356 0.985804 14.5862 1.10564 14.4948L11.9736 5.51284L14.1996 7.36784C14.316 7.46702 14.4637 7.52191 14.6166 7.52284C14.7689 7.51863 14.9156 7.46413 15.0336 7.36784L21.8126 1.75984L21.8066 3.91984C21.8347 4.05494 21.9084 4.17626 22.0154 4.26335C22.1224 4.35045 22.2562 4.398 22.3941 4.398C22.5321 4.398 22.6659 4.35045 22.7729 4.26335C22.8799 4.17626 22.9536 4.05494 22.9816 3.91984L22.9876 0.589839C22.9727 0.447693 22.9029 0.316977 22.7931 0.225476C22.6833 0.133975 22.5422 0.0889024 22.3996 0.099839Z" fill="#042b62" stroke="#042b62" stroke-width="0.2"/>
<path d="M20.6562 17.2852L20.3633 17.7188H19.7539C19.8164 17.7891 19.8682 17.8691 19.9092 17.959C19.9502 18.0488 19.9795 18.1523 19.9971 18.2695H20.6562L20.3633 18.7031H19.9971C19.9736 18.8457 19.9268 18.9775 19.8564 19.0986C19.7881 19.2178 19.6973 19.3213 19.584 19.4092C19.4707 19.4951 19.3359 19.5625 19.1797 19.6113C19.0254 19.6602 18.8516 19.6846 18.6582 19.6846L20.4395 21.5801H19.6602L17.9404 19.7314V19.2979H18.3711C18.5059 19.2979 18.6309 19.2852 18.7461 19.2598C18.8613 19.2344 18.9639 19.1963 19.0537 19.1455C19.1436 19.0947 19.2178 19.0332 19.2764 18.9609C19.3369 18.8867 19.3789 18.8008 19.4023 18.7031H17.7939L18.0869 18.2695H19.3994C19.3545 18.1016 19.2578 17.9678 19.1094 17.8682C18.9629 17.7686 18.7627 17.7188 18.5088 17.7188H17.7939L18.0869 17.2852H20.6562Z" fill="#042b62"/>
</g>
<defs>
<clipPath id="clip0_113_31">
<rect width="24.909" height="24.198" fill="white"/>
</clipPath>
</defs>
</svg>
