<svg width="31" height="31" viewBox="0 0 31 31" fill="none" xmlns="http://www.w3.org/2000/svg">
<g clip-path="url(#clip0_64_18)">
<path d="M14.208 15.925V1.93799C14.208 1.76666 14.1399 1.60235 14.0188 1.4812C13.8976 1.36005 13.7333 1.29199 13.562 1.29199C6.084 1.29199 0 7.95899 0 16.146C0.00449938 20.0841 1.57091 23.8597 4.35561 26.6444C7.1403 29.4291 10.9159 30.9955 14.854 31C18.518 31 20.501 30.336 23.015 28.269C23.1463 28.162 23.2304 28.0078 23.2491 27.8394C23.2678 27.6711 23.2196 27.5022 23.115 27.369L14.208 15.925ZM14.854 29.708C11.2584 29.704 7.81111 28.2739 5.2686 25.7314C2.72609 23.1889 1.29597 19.7416 1.292 16.146C1.292 8.90799 6.45 2.97499 12.917 2.60199V16.146C12.9162 16.291 12.9645 16.432 13.054 16.546L21.7 27.659C19.663 29.22 17.962 29.708 14.854 29.708Z" fill="#042b62"/>
<path d="M16.146 15.5H30.354C30.5253 15.5 30.6896 15.4319 30.8108 15.3108C30.9319 15.1896 31 15.0253 31 14.854C30.9955 10.9159 29.4291 7.1403 26.6444 4.35561C23.8597 1.57091 20.0841 0.00449938 16.146 0C15.9747 0 15.8104 0.0680605 15.6892 0.189209C15.5681 0.310358 15.5 0.47467 15.5 0.646V14.854C15.5 15.0253 15.5681 15.1896 15.6892 15.3108C15.8104 15.4319 15.9747 15.5 16.146 15.5ZM16.792 1.307C20.16 1.47182 23.3463 2.88383 25.7307 5.26826C28.1152 7.65268 29.5272 10.8389 29.692 14.207H16.792V1.307Z" fill="#042b62"/>
<path d="M30.3547 16.791H17.4387C17.317 16.7913 17.1978 16.8259 17.095 16.891C16.9921 16.9561 16.9098 17.049 16.8575 17.1589C16.8052 17.2689 16.7851 17.3914 16.7994 17.5122C16.8138 17.6331 16.8621 17.7474 16.9387 17.842L25.3387 28.2361C25.3943 28.3053 25.4635 28.3623 25.5422 28.4034C25.6208 28.4446 25.7072 28.469 25.7957 28.475H25.8407C26.0039 28.4747 26.161 28.413 26.2807 28.302C27.7693 26.9098 28.9567 25.2272 29.7695 23.3582C30.5824 21.4891 31.0035 19.4732 31.0067 17.435C31.0065 17.3499 30.9894 17.2656 30.9564 17.187C30.9235 17.1085 30.8753 17.0373 30.8147 16.9774C30.7541 16.9176 30.6823 16.8703 30.6033 16.8383C30.5244 16.8063 30.4399 16.7903 30.3547 16.791ZM25.8897 26.871L18.7897 18.083H29.6897C29.5277 21.3756 28.1777 24.4978 25.8897 26.871Z" fill="#042b62"/>
</g>
<defs>
<clipPath id="clip0_64_18">
<rect width="31" height="31" fill="white"/>
</clipPath>
</defs>
</svg>
