<svg width="18" height="18" viewBox="0 0 18 18" fill="none" xmlns="http://www.w3.org/2000/svg">
<g id="Group">
<path id="Vector" d="M2.32031 1.40625H3.9375V0.5625C3.9375 0.251859 4.18932 0 4.5 0C4.81068 0 5.0625 0.251859 5.0625 0.5625V1.40625H12.9375V0.5625C12.9375 0.251859 13.1893 0 13.5 0C13.8107 0 14.0625 0.251859 14.0625 0.5625V1.40625H15.6797C16.9591 1.40625 18 2.44712 18 3.72656V15.6797C18 16.9591 16.9591 18 15.6797 18H2.32031C1.04087 18 0 16.9591 0 15.6797V3.72656C0 2.44712 1.04087 1.40625 2.32031 1.40625ZM1.125 15.6797C1.125 16.3399 1.66015 16.875 2.32031 16.875H15.6797C16.3399 16.875 16.875 16.3399 16.875 15.6797V6.36328C16.875 6.26621 16.7963 6.1875 16.6992 6.1875H1.30078C1.20371 6.1875 1.125 6.26621 1.125 6.36328V15.6797Z" fill="black" fill-opacity="0.6"/>
</g>
</svg>
