<svg width="28" height="31" viewBox="0 0 28 31" fill="none" xmlns="http://www.w3.org/2000/svg">
<path id="Vector" d="M7.83516 21.25C8.37222 21.25 8.88729 21.0129 9.26705 20.591C9.64681 20.169 9.86016 19.5967 9.86016 19C9.86675 18.9252 9.86675 18.8498 9.86016 18.775L13.6267 14.59H13.9372H14.2477L16.4212 17.005C16.4212 17.005 16.4212 17.08 16.4212 17.125C16.4212 17.7217 16.6345 18.294 17.0143 18.716C17.394 19.1379 17.9091 19.375 18.4462 19.375C18.9832 19.375 19.4983 19.1379 19.878 18.716C20.2578 18.294 20.4712 17.7217 20.4712 17.125V17.005L25.3852 11.5C25.7857 11.5 26.1772 11.368 26.5102 11.1208C26.8432 10.8736 27.1027 10.5222 27.256 10.111C27.4093 9.6999 27.4494 9.2475 27.3712 8.81105C27.2931 8.37459 27.1002 7.97368 26.817 7.65901C26.5338 7.34434 26.173 7.13005 25.7802 7.04323C25.3874 6.95642 24.9802 7.00097 24.6102 7.17127C24.2402 7.34157 23.9239 7.62996 23.7014 7.99997C23.4789 8.36998 23.3602 8.80499 23.3602 9.25C23.3536 9.32482 23.3536 9.40018 23.3602 9.475L18.4867 14.89H18.2707L15.9352 12.25C15.9352 11.6533 15.7218 11.081 15.342 10.659C14.9623 10.2371 14.4472 10 13.9102 10C13.3731 10 12.858 10.2371 12.4783 10.659C12.0985 11.081 11.8852 11.6533 11.8852 12.25L7.83516 16.75C7.29809 16.75 6.78303 16.9871 6.40326 17.409C6.0235 17.831 5.81016 18.4033 5.81016 19C5.81016 19.5967 6.0235 20.169 6.40326 20.591C6.78303 21.0129 7.29809 21.25 7.83516 21.25ZM26.0602 27.25H3.11016V1.75C3.11016 1.35218 2.96792 0.970644 2.71475 0.68934C2.46158 0.408035 2.1182 0.25 1.76016 0.25C1.40211 0.25 1.05874 0.408035 0.805562 0.68934C0.552388 0.970644 0.410156 1.35218 0.410156 1.75V28.75C0.410156 29.1478 0.552388 29.5294 0.805562 29.8107C1.05874 30.092 1.40211 30.25 1.76016 30.25H26.0602C26.4182 30.25 26.7616 30.092 27.0148 29.8107C27.2679 29.5294 27.4102 29.1478 27.4102 28.75C27.4102 28.3522 27.2679 27.9706 27.0148 27.6893C26.7616 27.408 26.4182 27.25 26.0602 27.25Z" fill="#14B082"/>
</svg>
