<?xml version="1.0" encoding="UTF-8"?>
<svg id="Layer_1" data-name="Layer 1" xmlns="http://www.w3.org/2000/svg" viewBox="0 0 544 282">
  <defs>
    <style>
      .cls-1, .cls-2, .cls-3, .cls-4 {
        stroke-linecap: round;
        stroke-linejoin: round;
      }

      .cls-1, .cls-2, .cls-4 {
        stroke-width: 2px;
      }

      .cls-1, .cls-5, .cls-6 {
        stroke: #fff;
      }

      .cls-1, .cls-7 {
        fill: #1a2e35;
      }

      .cls-2, .cls-8, .cls-3 {
        fill: #fff;
      }

      .cls-2, .cls-3, .cls-4 {
        stroke: #1a2e35;
      }

      .cls-9 {
        fill: #022641;
      }

      .cls-5, .cls-6 {
        stroke-miterlimit: 10;
      }

      .cls-5, .cls-4 {
        fill: none;
      }

      .cls-10 {
        opacity: .4;
      }

      .cls-6, .cls-11 {
        fill: #0b4d9b;
      }

      .cls-12 {
        fill: #bad9f2;
        fill-rule: evenodd;
      }

      .cls-13 {
        fill: #1083e2;
      }
    </style>
  </defs>
  <g class="cls-10">
    <path class="cls-12" d="M451.52,70.56c-31.19-25.88-75.55-30.79-120.09-32.89-55.2-1.5-119.61-3.44-174.86.1-30.06,3.02-76.01,6.3-87.95,34.96-5,12.06-4.35,25.94-2.08,38.85,6.25,36.07,32.1,77.81,58.61,106.3,15.12,16.56,31.89,31.45,51.63,42.43,52.86,28.27,113.39,27.87,176.11,22.28,66.71-7.73,149.75-27.09,177.51-92.25,9.55-23.26,6.34-54.74-20.21-57.01-12.59-.22-20.66,9.55-27.66,18.22-.96,1.21-1.75,2.23-2.35,2.94-.69.82-1.13,1.24-1.29,1.06,6.41-30.16-.74-63.06-27.26-84.9l-.11-.09Z"/>
  </g>
  <g>
    <path class="cls-13" d="M471.71,266.68c0,2.09-.03,4.17-.11,6.24H116.88c-.08-2.07-.11-4.15-.11-6.24,0-98.01,79.45-177.47,177.47-177.47s177.47,79.45,177.47,177.47Z"/>
    <g>
      <path class="cls-4" d="M64.04,166.87v3.35"/>
      <path class="cls-4" d="M64.04,174.01v3.35"/>
      <path class="cls-4" d="M58.8,172.11h3.35"/>
      <path class="cls-4" d="M65.93,172.11h3.35"/>
    </g>
    <g>
      <path class="cls-4" d="M217.56,118.04l-14.88-54.7c-.62-2.27.49-4.66,2.62-5.66,17.72-8.26,49.6-20.1,90.76-19.68,38.95.39,69.18,11.58,86.54,19.68,2.14,1,3.24,3.38,2.62,5.65l-14.72,54.11"/>
      <g>
        <path class="cls-9" d="M471.71,266.68c0,2.09-.03,4.17-.11,6.24h-98.05c.03-.81.04-1.62.04-2.44,0-29.91-16.55-55.95-40.99-69.47l67.25-76.97c43.61,32.33,71.87,84.18,71.87,142.64Z"/>
        <path class="cls-11" d="M399.83,124.03l-67.24,76.97c-11.37-6.3-24.45-9.87-38.36-9.87s-27.1,3.61-38.5,9.95l-67.23-76.97c29.53-21.94,66.11-34.91,105.72-34.91s76.09,12.94,105.6,34.83Z"/>
      </g>
      <g>
        <path class="cls-8" d="M377.64,270.33c0,.98-.02,1.96-.05,2.93h-166.71c-.04-.97-.05-1.95-.05-2.93,0-46.06,37.34-83.41,83.41-83.41s83.41,37.34,83.41,83.41Z"/>
        <g>
          <g>
            <polygon class="cls-9" points="292.92 246.05 284.51 250.56 124.09 144.87 132.5 140.36 292.92 246.05"/>
            <ellipse class="cls-7" cx="124.09" cy="141.71" rx="8.69" ry="8.66"/>
          </g>
          <g>
            <ellipse class="cls-2" cx="289.34" cy="247.7" rx="15.08" ry="13.56"/>
            <ellipse class="cls-1" cx="289.34" cy="247.7" rx="8.23" ry="7.4"/>
          </g>
        </g>
      </g>
      <path class="cls-5" d="M127.53,272.95c-.07-1.94-.11-3.9-.11-5.86,0-92.13,74.68-166.81,166.81-166.81s166.82,74.68,166.82,166.81c0,1.96-.03,3.92-.11,5.86"/>
    </g>
    <g>
      <g>
        <path class="cls-2" d="M62.55,263.25c0,2.37-.02,12.23-.02,12.23h31.17c2.11,0,1.79-3.18-4.56-6.32-4.11-2.03-10.75-4.01-10.75-4.01l-.03-2.56"/>
        <path class="cls-2" d="M62.53,254.19l-6.47,1.99s-.03,6.94-.82,11.45c-1.22,6.98-4.19,8.18-4.78,6.16-1.14-3.9-8.77-29.91-8.77-29.91l11.93-5.42,8.92,15.73Z"/>
      </g>
      <g>
        <path class="cls-6" d="M77.75,203.71l9.36-54.42,11.53,1.55s9.32,56.06,3.83,63.57c-5.49,7.51-36.66,44.21-36.66,44.21l-12.91-14.56-5.05-6.13,29.89-34.22Z"/>
        <g>
          <path class="cls-6" d="M85.86,154.13l-.68-.28c.26.58.5,1.18.73,1.78l-.05-1.51Z"/>
          <path class="cls-6" d="M85.17,153.85l-.22-.09c-.48.5-.24.37.22.09Z"/>
          <path class="cls-6" d="M85.18,153.86h-.02c-.46.28-.7.4-.22-.1l-16-6.54s-9.32,6.3-9.32,13.9,2.36,9.46,2.36,9.46l-3.05,91.88h28.18v-70.63"/>
        </g>
      </g>
      <g>
        <g>
          <polygon class="cls-8" points="76.15 109.45 76.33 107.32 80.42 108.86 83.5 107.35 83.79 109.62 84.63 109.56 97.02 157.72 72.15 159.48 75.46 109.44 76.15 109.45"/>
          <g>
            <g id="Layer-11">
              <path class="cls-7" d="M78.32,111.5l1.63,3.94-.8,4.45,6.34,19.55,3.62-.74-4.68-20.42-2.36-3.19.36-3.68-1.92-1.55-2.18,1.65Z"/>
            </g>
            <polyline class="cls-4" points="75.83 109.74 77.25 112.3 80.49 109.85 83.03 111.9 83.71 109.91"/>
          </g>
        </g>
        <g>
          <g>
            <path class="cls-3" d="M126.33,102.32s4.31.77,9.35,4.38c3.39,1.86,8.32,4.83,6.35,6.52-.76.65-1.97-.05-7.62-1.41l.12,2.72c-.18-.99-1.04-1.24-1.04-1.24-1.11-1-2.37-2.04-2.17-4.09"/>
            <path class="cls-3" d="M133.9,113.5c-.1-.08-.36-.26-.67-.22-1.49.18-1.94,4.91-1.99,5.51.75.82,1.3,1.01,1.7.92,1.53-.35,2.48-5.1.97-6.21Z"/>
            <path class="cls-3" d="M131.24,118.79c-.11.09-.65.52-1.2.38-.68-.17-1.22-1.17-.92-2.36.51-2.34,1.49-4.64,3.23-2.77"/>
            <path class="cls-3" d="M126.79,116.61s.37-4.25,2.06-4.04c.36.05,1.15.44.7,2.32-.58,2.42-1.28,2.6-1.93,2.43-2.45-.62-3.9-3.92-3.71-5.85.04-.42-.21-.81-.61-.95l-1.28-.26"/>
          </g>
          <path class="cls-9" d="M126.33,102.32c-4.18-.88-9.55-1.22-13.85,1.64-6.64,4.41-5.55,12.97-10.48,14.98-2.94,1.2-8,.08-17.36-9.39l12,61.23,9.57-1.59-5.97-32.41c7.8,1.79,12.73.74,15.9-1.7,3.26-2.5,3.44-6.13,6.4-18.28,1.5-6.16,2.87-11.17,3.8-14.49Z"/>
        </g>
        <g>
          <path class="cls-3" d="M115.02,149.75c3.39,1.56,4.97-.69,7.37-.98,2.4-.3,7.29,2.06,7.64.83.93-1.1-.13-2.9-1.97-3.47-2.44-.76-3.74-.75-3.74-.75,0,0,2.3.35,3.74.74,1.44.39,3.48,2.44,3.92,1.24,1.09-2.07-1.54-3.55-2.6-4.17-1.05-.62-4.05-1.02-4.05-1.02,0,0-.31-.05,2.37.47,2.91.62,4.1,2.42,4.1,2.42,0,0,1.46-2.83-2.27-5.33-3.77-1.58-6.64-1.74-10.51-.38-2.99,1.05-5.13,3.28-5.13,3.28l1.12,7.14Z"/>
          <path class="cls-9" d="M108.89,136.21c-4.64-.9-21.37,3.14-26.23,3.82l-7.2-30.59s-26.12-4.24-16.58,45.43l-1.17,18.12,32.48-1.75-.59-8.83c6.71-.58,17.62-3.33,23.66-6.53,6.89-3.65,1.62-18.52-4.36-19.68Z"/>
          <path class="cls-4" d="M102.67,159.53c-17.79,5.22-37.46,5.57-40.75-21.12"/>
          <path class="cls-4" d="M68.92,114.3c7.93,4.2,13.74,25.73,13.74,25.73.07.03,20.67-4.9,26.23-3.82.61.12,1.21.39,1.8.78"/>
        </g>
      </g>
      <g>
        <path class="cls-8" d="M87.51,99.39c2.41-5.08.25-11.16-4.84-13.58-5.08-2.41-11.16-.25-13.58,4.83-2.41,5.08-.25,11.16,4.84,13.58,5.08,2.41,11.16.25,13.58-4.83Z"/>
        <path class="cls-7" d="M83.97,86.43s-.79,3.97-4.49,6.12c-1.53.89-5.06.56-5.06.56,0,0,.14,2.6-1.29,4.11-1.43,1.52-4.42,1.96-4.42,1.96,0,0-5.21-3.3-5.22-7.02-.02-7.22,6.77-6.12,6.77-6.12,0,0-1.44-4.92,3.66-6.69,3.23-.92,5.99,1.63,5.99,1.63,0,0,7.37-5.74,12.08.17,1.45,1.82,1.91,5.3-.82,7.18-1.62,1.11-4.53.68-4.53.68l-2.67-2.59Z"/>
      </g>
    </g>
  </g>
</svg>