<svg width="44" height="44" viewBox="0 0 44 44" fill="none" xmlns="http://www.w3.org/2000/svg">
<g clip-path="url(#clip0_235_260)">
<circle opacity="0.100028" cx="21.8984" cy="22.125" r="21.5" fill="#004FBF"/>
<path d="M20.9314 28.625C20.8294 28.625 20.7444 28.591 20.6764 28.523C20.6198 28.4437 20.5914 28.353 20.5914 28.251C20.5914 28.217 20.6028 28.166 20.6254 28.098L24.8584 18.204H19.2824C19.1691 18.204 19.0728 18.17 18.9934 18.102C18.9254 18.0227 18.8914 17.9263 18.8914 17.813V17.133C18.8914 17.0083 18.9254 16.912 18.9934 16.844C19.0728 16.7647 19.1691 16.725 19.2824 16.725H26.2524C26.3771 16.725 26.4734 16.7647 26.5414 16.844C26.6208 16.912 26.6604 17.0083 26.6604 17.133V17.762C26.6604 17.9093 26.6491 18.0283 26.6264 18.119C26.6038 18.2097 26.5698 18.3117 26.5244 18.425L22.3254 28.2C22.2914 28.2907 22.2348 28.387 22.1554 28.489C22.0874 28.5797 21.9854 28.625 21.8494 28.625H20.9314Z" fill="#004FBF"/>
</g>
<defs>
<clipPath id="clip0_235_260">
<rect width="43" height="43" fill="white" transform="translate(0.398438 0.625)"/>
</clipPath>
</defs>
</svg>
