<svg width="609" height="359" viewBox="0 0 609 359" fill="none" xmlns="http://www.w3.org/2000/svg">
<g filter="url(#filter0_dd_235_1500)">
<g clip-path="url(#clip0_235_1500)">
<path d="M32.0547 37.4619C32.0547 32.4914 36.0841 28.4619 41.0547 28.4619H567.055C572.025 28.4619 576.055 32.4914 576.055 37.4619V301.462C576.055 306.432 572.025 310.462 567.055 310.462H41.0547C36.0841 310.462 32.0547 306.432 32.0547 301.462V37.4619Z" fill="white" fill-opacity="0.01" shape-rendering="crispEdges"/>
<g clip-path="url(#clip1_235_1500)">
<rect width="544" height="282.07" transform="translate(32.0547 28.4619)" fill="white"/>
<g clip-path="url(#clip2_235_1500)">
<path d="M555.056 49.6924H57.1855V294.802H555.056V49.6924Z" stroke="black" stroke-width="0.25" stroke-miterlimit="10"/>
<g opacity="0.11">
<path d="M306.436 171.902C324.176 171.902 324.176 190.912 341.916 190.912C359.656 190.912 359.656 171.902 377.396 171.902C395.136 171.902 395.136 190.912 412.876 190.912C430.616 190.912 430.616 171.902 448.356 171.902C466.096 171.902 466.096 190.912 483.836 190.912C501.576 190.912 501.576 171.902 519.316 171.902C537.056 171.902 537.056 190.912 554.796 190.912" stroke="#282828" stroke-width="0.5" stroke-linecap="round" stroke-linejoin="round"/>
<path d="M306.436 193.103C324.176 193.103 324.176 212.113 341.916 212.113C359.656 212.113 359.656 193.103 377.396 193.103C395.136 193.103 395.136 212.113 412.876 212.113C430.616 212.113 430.616 193.103 448.356 193.103C466.096 193.103 466.096 212.113 483.836 212.113C501.576 212.113 501.576 193.103 519.316 193.103C537.056 193.103 537.056 212.113 554.796 212.113" stroke="#282828" stroke-width="0.5" stroke-linecap="round" stroke-linejoin="round"/>
<path d="M306.436 214.312C324.176 214.312 324.176 233.322 341.916 233.322C359.656 233.322 359.656 214.312 377.396 214.312C395.136 214.312 395.136 233.322 412.876 233.322C430.616 233.322 430.616 214.312 448.356 214.312C466.096 214.312 466.096 233.322 483.836 233.322C501.576 233.322 501.576 214.312 519.316 214.312C537.056 214.312 537.056 233.322 554.796 233.322" stroke="#282828" stroke-width="0.5" stroke-linecap="round" stroke-linejoin="round"/>
</g>
<g opacity="0.11">
<path d="M306.436 232.872C324.176 232.872 324.176 251.882 341.916 251.882C359.656 251.882 359.656 232.872 377.396 232.872C395.136 232.872 395.136 251.882 412.876 251.882C430.616 251.882 430.616 232.872 448.356 232.872C466.096 232.872 466.096 251.882 483.836 251.882C501.576 251.882 501.576 232.872 519.316 232.872C537.056 232.872 537.056 251.882 554.796 251.882" stroke="#282828" stroke-width="0.5" stroke-linecap="round" stroke-linejoin="round"/>
<path d="M306.436 254.072C324.176 254.072 324.176 273.082 341.916 273.082C359.656 273.082 359.656 254.072 377.396 254.072C395.136 254.072 395.136 273.082 412.876 273.082C430.616 273.082 430.616 254.072 448.356 254.072C466.096 254.072 466.096 273.082 483.836 273.082C501.576 273.082 501.576 254.072 519.316 254.072C537.056 254.072 537.056 273.082 554.796 273.082" stroke="#282828" stroke-width="0.5" stroke-linecap="round" stroke-linejoin="round"/>
<path d="M306.436 275.282C324.176 275.282 324.176 294.292 341.916 294.292C359.656 294.292 359.656 275.282 377.396 275.282C395.136 275.282 395.136 294.292 412.876 294.292C430.616 294.292 430.616 275.282 448.356 275.282C466.096 275.282 466.096 294.292 483.836 294.292C501.576 294.292 501.576 275.282 519.316 275.282C537.056 275.282 537.056 294.292 554.796 294.292" stroke="#282828" stroke-width="0.5" stroke-linecap="round" stroke-linejoin="round"/>
</g>
<g opacity="0.11">
<path d="M306.436 49.9619C324.176 49.9619 324.176 68.9719 341.916 68.9719C359.656 68.9719 359.656 49.9619 377.396 49.9619C395.136 49.9619 395.136 68.9719 412.876 68.9719C430.616 68.9719 430.616 49.9619 448.356 49.9619C466.096 49.9619 466.096 68.9719 483.836 68.9719C501.576 68.9719 501.576 49.9619 519.316 49.9619C537.056 49.9619 537.056 68.9719 554.796 68.9719" stroke="#282828" stroke-width="0.5" stroke-linecap="round" stroke-linejoin="round"/>
<path d="M306.436 71.1719C324.176 71.1719 324.176 90.1819 341.916 90.1819C359.656 90.1819 359.656 71.1719 377.396 71.1719C395.136 71.1719 395.136 90.1819 412.876 90.1819C430.616 90.1819 430.616 71.1719 448.356 71.1719C466.096 71.1719 466.096 90.1819 483.836 90.1819C501.576 90.1819 501.576 71.1719 519.316 71.1719C537.056 71.1719 537.056 90.1819 554.796 90.1819" stroke="#282828" stroke-width="0.5" stroke-linecap="round" stroke-linejoin="round"/>
<path d="M306.436 92.3721C324.176 92.3721 324.176 111.382 341.916 111.382C359.656 111.382 359.656 92.3721 377.396 92.3721C395.136 92.3721 395.136 111.382 412.876 111.382C430.616 111.382 430.616 92.3721 448.356 92.3721C466.096 92.3721 466.096 111.382 483.836 111.382C501.576 111.382 501.576 92.3721 519.316 92.3721C537.056 92.3721 537.056 111.382 554.796 111.382" stroke="#282828" stroke-width="0.5" stroke-linecap="round" stroke-linejoin="round"/>
</g>
<g opacity="0.11">
<path d="M306.436 110.932C324.176 110.932 324.176 129.942 341.916 129.942C359.656 129.942 359.656 110.932 377.396 110.932C395.136 110.932 395.136 129.942 412.876 129.942C430.616 129.942 430.616 110.932 448.356 110.932C466.096 110.932 466.096 129.942 483.836 129.942C501.576 129.942 501.576 110.932 519.316 110.932C537.056 110.932 537.056 129.942 554.796 129.942" stroke="#282828" stroke-width="0.5" stroke-linecap="round" stroke-linejoin="round"/>
<path d="M306.436 132.132C324.176 132.132 324.176 151.142 341.916 151.142C359.656 151.142 359.656 132.132 377.396 132.132C395.136 132.132 395.136 151.142 412.876 151.142C430.616 151.142 430.616 132.132 448.356 132.132C466.096 132.132 466.096 151.142 483.836 151.142C501.576 151.142 501.576 132.132 519.316 132.132C537.056 132.132 537.056 151.142 554.796 151.142" stroke="#282828" stroke-width="0.5" stroke-linecap="round" stroke-linejoin="round"/>
<path d="M306.436 153.342C324.176 153.342 324.176 172.352 341.916 172.352C359.656 172.352 359.656 153.342 377.396 153.342C395.136 153.342 395.136 172.352 412.876 172.352C430.616 172.352 430.616 153.342 448.356 153.342C466.096 153.342 466.096 172.352 483.836 172.352C501.576 172.352 501.576 153.342 519.316 153.342C537.056 153.342 537.056 172.352 554.796 172.352" stroke="#282828" stroke-width="0.5" stroke-linecap="round" stroke-linejoin="round"/>
</g>
<g opacity="0.11">
<path d="M305.796 172.132C288.056 172.132 288.056 191.142 270.316 191.142C252.576 191.142 252.576 172.132 234.836 172.132C217.096 172.132 217.096 191.142 199.356 191.142C181.616 191.142 181.616 172.132 163.876 172.132C146.136 172.132 146.136 191.142 128.396 191.142C110.656 191.142 110.656 172.132 92.9156 172.132C75.1756 172.132 75.1755 191.142 57.4355 191.142" stroke="#282828" stroke-width="0.5" stroke-linecap="round" stroke-linejoin="round"/>
<path d="M305.796 193.332C288.056 193.332 288.056 212.342 270.316 212.342C252.576 212.342 252.576 193.332 234.836 193.332C217.096 193.332 217.096 212.342 199.356 212.342C181.616 212.342 181.616 193.332 163.876 193.332C146.136 193.332 146.136 212.342 128.396 212.342C110.656 212.342 110.656 193.332 92.9156 193.332C75.1756 193.332 75.1755 212.342 57.4355 212.342" stroke="#282828" stroke-width="0.5" stroke-linecap="round" stroke-linejoin="round"/>
<path d="M305.796 214.542C288.056 214.542 288.056 233.552 270.316 233.552C252.576 233.552 252.576 214.542 234.836 214.542C217.096 214.542 217.096 233.552 199.356 233.552C181.616 233.552 181.616 214.542 163.876 214.542C146.136 214.542 146.136 233.552 128.396 233.552C110.656 233.552 110.656 214.542 92.9156 214.542C75.1756 214.542 75.1755 233.552 57.4355 233.552" stroke="#282828" stroke-width="0.5" stroke-linecap="round" stroke-linejoin="round"/>
</g>
<g opacity="0.11">
<path d="M305.796 233.102C288.056 233.102 288.056 252.112 270.316 252.112C252.576 252.112 252.576 233.102 234.836 233.102C217.096 233.102 217.096 252.112 199.356 252.112C181.616 252.112 181.616 233.102 163.876 233.102C146.136 233.102 146.136 252.112 128.396 252.112C110.656 252.112 110.656 233.102 92.9156 233.102C75.1756 233.102 75.1755 252.112 57.4355 252.112" stroke="#282828" stroke-width="0.5" stroke-linecap="round" stroke-linejoin="round"/>
<path d="M305.796 254.302C288.056 254.302 288.056 273.312 270.316 273.312C252.576 273.312 252.576 254.302 234.836 254.302C217.096 254.302 217.096 273.312 199.356 273.312C181.616 273.312 181.616 254.302 163.876 254.302C146.136 254.302 146.136 273.312 128.396 273.312C110.656 273.312 110.656 254.302 92.9156 254.302C75.1756 254.302 75.1755 273.312 57.4355 273.312" stroke="#282828" stroke-width="0.5" stroke-linecap="round" stroke-linejoin="round"/>
<path d="M305.796 275.512C288.056 275.512 288.056 294.522 270.316 294.522C252.576 294.522 252.576 275.512 234.836 275.512C217.096 275.512 217.096 294.522 199.356 294.522C181.616 294.522 181.616 275.512 163.876 275.512C146.136 275.512 146.136 294.522 128.396 294.522C110.656 294.522 110.656 275.512 92.9156 275.512C75.1756 275.512 75.1755 294.522 57.4355 294.522" stroke="#282828" stroke-width="0.5" stroke-linecap="round" stroke-linejoin="round"/>
</g>
<g opacity="0.11">
<path d="M305.796 50.1924C288.056 50.1924 288.056 69.2024 270.316 69.2024C252.576 69.2024 252.576 50.1924 234.836 50.1924C217.096 50.1924 217.096 69.2024 199.356 69.2024C181.616 69.2024 181.616 50.1924 163.876 50.1924C146.136 50.1924 146.136 69.2024 128.396 69.2024C110.656 69.2024 110.656 50.1924 92.9156 50.1924C75.1756 50.1924 75.1755 69.2024 57.4355 69.2024" stroke="#282828" stroke-width="0.5" stroke-linecap="round" stroke-linejoin="round"/>
<path d="M305.796 71.3926C288.056 71.3926 288.056 90.4026 270.316 90.4026C252.576 90.4026 252.576 71.3926 234.836 71.3926C217.096 71.3926 217.096 90.4026 199.356 90.4026C181.616 90.4026 181.616 71.3926 163.876 71.3926C146.136 71.3926 146.136 90.4026 128.396 90.4026C110.656 90.4026 110.656 71.3926 92.9156 71.3926C75.1756 71.3926 75.1755 90.4026 57.4355 90.4026" stroke="#282828" stroke-width="0.5" stroke-linecap="round" stroke-linejoin="round"/>
<path d="M305.796 92.6025C288.056 92.6025 288.056 111.613 270.316 111.613C252.576 111.613 252.576 92.6025 234.836 92.6025C217.096 92.6025 217.096 111.613 199.356 111.613C181.616 111.613 181.616 92.6025 163.876 92.6025C146.136 92.6025 146.136 111.613 128.396 111.613C110.656 111.613 110.656 92.6025 92.9156 92.6025C75.1756 92.6025 75.1755 111.613 57.4355 111.613" stroke="#282828" stroke-width="0.5" stroke-linecap="round" stroke-linejoin="round"/>
</g>
<g opacity="0.11">
<path d="M305.796 111.162C288.056 111.162 288.056 130.172 270.316 130.172C252.576 130.172 252.576 111.162 234.836 111.162C217.096 111.162 217.096 130.172 199.356 130.172C181.616 130.172 181.616 111.162 163.876 111.162C146.136 111.162 146.136 130.172 128.396 130.172C110.656 130.172 110.656 111.162 92.9156 111.162C75.1756 111.162 75.1755 130.172 57.4355 130.172" stroke="#282828" stroke-width="0.5" stroke-linecap="round" stroke-linejoin="round"/>
<path d="M305.796 132.362C288.056 132.362 288.056 151.372 270.316 151.372C252.576 151.372 252.576 132.362 234.836 132.362C217.096 132.362 217.096 151.372 199.356 151.372C181.616 151.372 181.616 132.362 163.876 132.362C146.136 132.362 146.136 151.372 128.396 151.372C110.656 151.372 110.656 132.362 92.9156 132.362C75.1756 132.362 75.1755 151.372 57.4355 151.372" stroke="#282828" stroke-width="0.5" stroke-linecap="round" stroke-linejoin="round"/>
<path d="M305.796 153.572C288.056 153.572 288.056 172.582 270.316 172.582C252.576 172.582 252.576 153.572 234.836 153.572C217.096 153.572 217.096 172.582 199.356 172.582C181.616 172.582 181.616 153.572 163.876 153.572C146.136 153.572 146.136 172.582 128.396 172.582C110.656 172.582 110.656 153.572 92.9156 153.572C75.1756 153.572 75.1755 172.582 57.4355 172.582" stroke="#282828" stroke-width="0.5" stroke-linecap="round" stroke-linejoin="round"/>
</g>
<path d="M298.226 139.082C298.056 137.322 297.176 136.252 295.396 136.002L273.706 136.072C272.366 136.462 271.526 137.402 271.356 138.822C272.126 149.792 270.356 162.122 271.356 172.932C271.516 174.682 272.756 175.692 274.456 176.012C280.956 175.572 288.186 176.582 294.606 176.012C296.416 175.852 298.176 174.912 298.236 172.932C297.426 162.072 299.266 149.762 298.236 139.092L298.226 139.082ZM282.646 171.972H275.406V163.652H282.646V171.972ZM282.646 159.622H275.406V152.382H282.646V159.622ZM282.646 148.352H275.406V140.032H282.646V148.352ZM294.186 171.972H287.076C287.076 171.972 286.676 171.602 286.676 171.572V164.052C286.676 164.052 287.046 163.652 287.076 163.652H294.186V171.972ZM294.186 159.622H286.666V152.382H294.186V159.622ZM294.186 148.352H287.076C287.076 148.352 286.676 147.972 286.676 147.952V140.032H294.196V148.352H294.186Z" fill="#FEFEFE"/>
<path d="M318.606 147.271V151.431C317.726 151.041 317.766 147.741 318.606 147.271Z" fill="#FEFEFE"/>
<path d="M323.985 218.261C324.095 219.281 324.125 222.661 323.925 223.571C323.485 225.511 320.765 225.651 320.095 224.021C319.835 223.401 319.835 218.581 320.015 217.781C320.185 216.981 320.965 216.361 321.765 216.301C322.955 216.201 323.855 217.131 323.985 218.261Z" fill="#FEFEFE"/>
<path d="M337.935 206.722C337.935 206.722 337.565 206.322 337.535 206.322C338.105 205.862 338.285 206.082 337.935 206.722Z" fill="#FEFEFE"/>
<path d="M290.155 228.332H278.615C278.895 225.192 277.995 222.062 275.665 219.872C282.175 213.582 292.155 219.662 290.155 228.332ZM253.655 109.972H268.685V112.652H253.655V109.972ZM265.735 116.682V122.182C265.735 122.702 258.635 127.902 257.655 128.592C257.255 128.882 256.845 129.312 256.335 129.292V116.672H265.735V116.682ZM243.995 147.432L242.415 145.532C256.465 134.652 270.395 123.552 284.705 112.982L326.815 145.132C327.255 145.822 325.915 146.962 325.465 147.532L285.865 116.832L284.665 116.662L244.005 147.432H243.995ZM295.535 237.192H242.385V232.362H261.575C262.655 232.362 263.105 230.202 262.535 229.252C262.425 229.072 261.435 228.332 261.305 228.332H243.455C242.705 225.142 246.515 224.892 247.605 223.752C248.275 223.052 248.425 221.092 248.955 219.992C251.635 214.422 259.315 214.032 263.045 218.802C263.735 219.682 264.415 221.582 265.265 221.952C266.475 222.472 268.045 221.252 269.585 221.362C271.665 221.502 274.015 223.252 274.465 225.352C275.445 229.892 272.885 227.772 270.215 228.382C267.795 228.922 268.615 232.352 269.885 232.352H295.125C295.125 232.352 295.525 232.722 295.525 232.752V237.182L295.535 237.192ZM369.315 198.522L368.445 198.232C356.105 189.112 344.395 179.052 332.005 169.992C331.105 169.342 329.205 167.632 328.165 167.692L288.005 198.412C287.205 198.982 286.575 197.432 286.115 196.812L328.155 164.202L370.675 196.412L369.305 198.532L369.315 198.522Z" fill="#FEFEFE"/>
<path d="M375.245 195.592V196.932C374.445 199.552 371.605 204.472 368.395 203.672C367.795 203.522 363.715 200.542 362.625 199.552V236.642C363.755 236.572 367.645 236.552 368.015 236.652L368.395 237.192C369.035 236.162 369.965 237.512 370.225 238.342C370.745 240.022 369.985 241.522 368.195 241.752L240.885 241.672C238.265 240.722 237.255 238.362 237.875 234.612C237.625 232.482 237.965 230.562 238.885 228.852C238.995 225.012 240.015 221.942 243.995 220.422C244.745 218.372 245.355 216.722 246.925 215.082C247.885 214.082 249.615 212.332 250.965 212.622L250.425 212.432C250.425 190.972 250.425 169.492 250.425 148.012C249.065 149.722 246.375 151.962 244.665 152.432C240.825 153.472 235.835 145.512 238.245 143.082C242.695 139.462 247.185 135.882 251.705 132.342L251.785 117.172C249.985 116.032 249.505 115.692 249.065 113.612C248.585 111.272 248.655 106.222 251.715 105.932H270.005C273.295 106.652 273.355 113.402 271.845 115.422C270.815 116.802 269.045 115.992 269.735 119.082L282.155 109.632C285.875 107.712 288.125 110.202 290.915 112.262C304.265 122.172 317.035 132.912 330.395 142.832C333.445 144.802 329.905 148.762 328.245 150.612C324.695 154.542 321.815 149.032 318.585 147.262C317.745 147.732 317.715 151.032 318.585 151.422C318.585 152.622 316.315 153.552 315.105 152.482C313.875 151.402 315.015 145.782 314.425 144.042L284.855 121.282L283.985 121.642L255.015 144.222L254.975 211.412C258.445 211.202 262.365 212.332 264.915 214.762C265.615 215.422 266.765 217.522 267.465 217.592C267.965 217.642 268.825 217.272 269.605 217.302C270.325 217.322 271.595 217.872 271.985 217.792C272.375 217.712 273.415 216.352 273.905 215.982C283.425 208.842 296.185 216.772 294.155 228.322C296.125 228.212 298.165 228.242 299.035 230.292C299.125 230.512 299.525 231.592 299.525 231.682V237.182H314.825V204.572C314.825 203.522 317.195 202.402 318.185 202.292C324.525 201.582 332.115 202.822 338.595 202.292C340.735 202.662 341.725 204.132 341.935 206.192C342.325 210.122 342.375 219.732 341.905 223.602C341.475 227.172 337.915 225.892 337.915 224.702V206.712C338.265 206.062 338.075 205.852 337.515 206.312H318.865V237.182H337.925V232.482C337.925 232.302 338.795 231.612 339.135 231.552C342.575 230.862 341.915 234.962 341.955 237.182H358.055V195.442L328.395 172.302L288.995 202.622C287.845 203.552 286.575 203.472 285.435 202.562C284.975 202.202 281.545 197.682 281.405 197.202C281.095 196.172 281.365 195.382 281.975 194.522L314.045 169.692C314.445 169.392 314.515 169.092 314.585 168.612C314.865 166.442 314.045 160.992 314.775 159.402C315.545 157.722 318.595 158.682 318.595 160.012V166.052C322.545 163.962 325.935 158.152 330.955 160.802L374.295 194.232L375.225 195.572L375.245 195.592Z" fill="#042B62"/>
<path d="M337.536 206.321C337.536 206.321 337.936 206.691 337.936 206.721C338.286 206.071 338.096 205.861 337.536 206.321ZM318.606 151.431V147.271C317.766 147.741 317.726 151.041 318.606 151.431Z" fill="#042B62"/>
<path d="M298.226 139.082C298.056 137.322 297.176 136.252 295.396 136.002L273.706 136.072C272.366 136.462 271.526 137.402 271.356 138.822C272.126 149.792 270.356 162.122 271.356 172.932C271.516 174.682 272.756 175.692 274.456 176.012C280.956 175.572 288.186 176.582 294.606 176.012C296.416 175.852 298.176 174.912 298.236 172.932C297.426 162.072 299.266 149.762 298.236 139.092L298.226 139.082ZM282.646 171.972H275.406V163.652H282.646V171.972ZM282.646 159.622H275.406V152.382H282.646V159.622ZM282.646 148.352H275.406V140.032H282.646V148.352ZM294.186 171.972H287.076C287.076 171.972 286.676 171.602 286.676 171.572V164.052C286.676 164.052 287.046 163.652 287.076 163.652H294.186V171.972ZM294.186 159.622H286.666V152.382H294.186V159.622ZM294.186 148.352H287.076C287.076 148.352 286.676 147.972 286.676 147.952V140.032H294.196V148.352H294.186Z" fill="#042B62"/>
<path d="M323.925 223.571C323.485 225.511 320.765 225.651 320.095 224.021C319.835 223.401 319.835 218.581 320.015 217.781C320.185 216.981 320.965 216.361 321.765 216.301C322.955 216.201 323.855 217.131 323.985 218.261C324.095 219.281 324.125 222.661 323.925 223.571Z" fill="#042B62"/>
<path d="M143.134 216.331C168.291 216.331 188.684 195.938 188.684 170.781C188.684 145.625 168.291 125.231 143.134 125.231C117.977 125.231 97.584 145.625 97.584 170.781C97.584 195.938 117.977 216.331 143.134 216.331Z" fill="white" stroke="#042B62" stroke-miterlimit="10"/>
<path d="M477.835 227.182C502.992 227.182 523.385 206.789 523.385 181.632C523.385 156.475 502.992 136.082 477.835 136.082C452.679 136.082 432.285 156.475 432.285 181.632C432.285 206.789 452.679 227.182 477.835 227.182Z" fill="white" stroke="#042B62" stroke-miterlimit="10"/>
<path d="M119.555 152.482C119.585 152.332 119.615 152.192 119.645 152.052C119.635 152.192 119.705 152.412 119.555 152.482Z" fill="#042B62"/>
<path d="M125.585 152.181V156.531H121.275V152.271C121.275 152.271 121.505 151.681 121.545 151.601C122.275 150.231 124.345 150.141 125.215 151.431C125.275 151.521 125.575 152.141 125.575 152.191L125.585 152.181Z" fill="#042B62"/>
<path d="M130.055 192.882C129.905 192.852 129.765 192.822 129.625 192.792C129.765 192.802 129.985 192.732 130.055 192.882Z" fill="#042B62"/>
<path d="M131.345 170.012C131.345 170.122 130.335 170.252 130.115 170.332C128.975 170.732 128.875 171.652 128.755 172.722C127.445 171.652 126.285 171.452 125.005 172.722C124.775 172.272 124.825 171.732 124.595 171.242C124.435 170.892 124.135 170.582 123.785 170.422C123.295 170.202 122.745 170.242 122.295 170.012C123.525 168.722 123.365 167.592 122.295 166.262C123.985 166.212 124.905 165.432 124.875 163.682C125.585 163.932 125.985 164.552 126.815 164.552C127.645 164.552 128.095 163.972 128.755 163.682C128.785 165.372 129.665 166.192 131.345 166.262C131.215 166.672 130.855 166.962 130.685 167.362C130.195 168.502 130.715 169.112 131.345 170.012Z" fill="#042B62"/>
<path d="M129.995 185.622C129.635 186.822 130.665 186.732 131.355 186.892C133.725 187.452 133.545 191.402 130.185 191.162C128.885 191.072 127.305 189.812 127.305 188.442V173.932C128.065 174.242 128.575 174.882 129.475 174.512C130.645 174.042 130.345 172.272 130.655 171.992C131.015 171.672 132.405 171.952 133.015 171.082C133.735 170.052 132.705 169.042 132.215 168.192C132.655 167.322 133.555 166.622 133.155 165.532C132.755 164.422 130.905 164.662 130.645 164.342C130.345 163.102 130.295 161.512 128.565 161.812C128.095 161.892 127.735 162.312 127.295 162.482V152.022C127.295 151.692 126.845 150.852 126.695 150.512H156.195C156.695 150.512 157.615 151.502 157.615 152.022V185.142H130.525C130.435 185.142 130.015 185.512 129.985 185.632L129.995 185.622Z" fill="#042B62"/>
<path d="M160.785 190.922C160.715 190.962 160.195 191.162 160.165 191.162H134.025C134.875 189.882 134.925 188.132 134.025 186.852H160.255C160.305 186.852 160.925 187.152 161.015 187.212C162.345 188.102 162.185 190.202 160.785 190.922Z" fill="#042B62"/>
<path d="M159.565 184.942C159.515 173.992 159.495 163.042 159.525 152.082C159.395 150.282 158.015 148.662 156.125 148.732H123.045C121.345 148.712 119.475 150.282 119.645 152.052C119.635 152.192 119.705 152.412 119.555 152.482V157.652C119.605 157.962 119.765 158.562 120.115 158.252L120.215 158.422H125.405V161.732C125.145 161.562 124.665 161.572 124.395 161.622C123.305 161.822 123.015 163.272 122.905 164.192C120.475 164.462 119.295 165.792 121.135 167.902L121.265 168.182C119.515 170.322 120.065 171.882 122.885 172.092C123.015 173.002 123.295 174.502 124.355 174.742C124.645 174.802 125.135 174.792 125.405 174.602V188.372L125.575 188.432C125.255 188.702 125.525 189.422 125.675 189.802C126.255 191.302 127.935 192.942 129.625 192.782C129.765 192.792 129.985 192.722 130.055 192.872H160.285C165.315 192.432 164.615 184.672 159.555 184.932L159.565 184.942ZM121.275 156.532V152.272C121.275 152.272 121.505 151.682 121.545 151.602C122.275 150.232 124.345 150.142 125.215 151.432C125.275 151.522 125.575 152.142 125.575 152.192V156.542H121.265L121.275 156.532ZM125.015 172.722C124.785 172.272 124.835 171.732 124.605 171.242C124.445 170.892 124.145 170.582 123.795 170.422C123.305 170.202 122.755 170.242 122.305 170.012C123.535 168.722 123.375 167.592 122.305 166.262C123.995 166.212 124.915 165.432 124.885 163.682C125.595 163.932 125.995 164.552 126.825 164.552C127.655 164.552 128.105 163.972 128.765 163.682C128.795 165.372 129.675 166.192 131.355 166.262C131.225 166.672 130.865 166.962 130.695 167.362C130.205 168.502 130.725 169.112 131.355 170.012C131.355 170.122 130.345 170.252 130.125 170.332C128.985 170.732 128.885 171.652 128.765 172.722C127.455 171.652 126.295 171.452 125.015 172.722ZM130.185 191.162C128.885 191.072 127.305 189.812 127.305 188.442V173.932C128.065 174.242 128.575 174.882 129.475 174.512C130.645 174.042 130.345 172.272 130.655 171.992C131.015 171.672 132.405 171.952 133.015 171.082C133.735 170.052 132.705 169.042 132.215 168.192C132.655 167.322 133.555 166.622 133.155 165.532C132.755 164.422 130.905 164.662 130.645 164.342C130.345 163.102 130.295 161.512 128.565 161.812C128.095 161.892 127.735 162.312 127.295 162.482V152.022C127.295 151.692 126.845 150.852 126.695 150.512H156.195C156.695 150.512 157.615 151.502 157.615 152.022V185.142H130.525C130.435 185.142 130.015 185.512 129.985 185.632C129.625 186.832 130.655 186.742 131.345 186.902C133.715 187.462 133.535 191.412 130.175 191.172L130.185 191.162ZM160.785 190.922C160.715 190.962 160.195 191.162 160.165 191.162H134.025C134.875 189.882 134.925 188.132 134.025 186.852H160.255C160.305 186.852 160.925 187.152 161.015 187.212C162.345 188.102 162.185 190.202 160.785 190.922Z" fill="#042B62"/>
<path d="M129.625 192.882V192.792C129.705 192.812 129.695 192.842 129.625 192.882Z" fill="#FEFEFE"/>
<path d="M119.555 152.482V152.052H119.645C119.635 152.192 119.705 152.412 119.555 152.482Z" fill="#44618A"/>
<path d="M130.055 192.882H129.625V192.792C129.765 192.802 129.985 192.732 130.055 192.882Z" fill="#647C9D"/>
<path d="M129.995 185.622C129.635 186.822 130.665 186.732 131.355 186.892C133.725 187.452 133.545 191.402 130.185 191.162C128.885 191.072 127.305 189.812 127.305 188.442V173.932C128.065 174.242 128.575 174.882 129.475 174.512C130.645 174.042 130.345 172.272 130.655 171.992C131.015 171.672 132.405 171.952 133.015 171.082C133.735 170.052 132.705 169.042 132.215 168.192C132.655 167.322 133.555 166.622 133.155 165.532C132.755 164.422 130.905 164.662 130.645 164.342C130.345 163.102 130.295 161.512 128.565 161.812C128.095 161.892 127.735 162.312 127.295 162.482V152.022C127.295 151.692 126.845 150.852 126.695 150.512H156.195C156.695 150.512 157.615 151.502 157.615 152.022V185.142H130.525C130.435 185.142 130.015 185.512 129.985 185.632L129.995 185.622Z" fill="#FEFEFE"/>
<path d="M160.785 190.922C160.715 190.962 160.195 191.162 160.165 191.162H134.025C134.875 189.882 134.925 188.132 134.025 186.852H160.255C160.305 186.852 160.925 187.152 161.015 187.212C162.345 188.102 162.185 190.202 160.785 190.922Z" fill="#FEFEFE"/>
<path d="M131.345 170.012C131.345 170.122 130.335 170.252 130.115 170.332C128.975 170.732 128.875 171.652 128.755 172.722C127.445 171.652 126.285 171.452 125.005 172.722C124.775 172.272 124.825 171.732 124.595 171.242C124.435 170.892 124.135 170.582 123.785 170.422C123.295 170.202 122.745 170.242 122.295 170.012C123.525 168.722 123.365 167.592 122.295 166.262C123.985 166.212 124.905 165.432 124.875 163.682C125.585 163.932 125.985 164.552 126.815 164.552C127.645 164.552 128.095 163.972 128.755 163.682C128.785 165.372 129.665 166.192 131.345 166.262C131.215 166.672 130.855 166.962 130.685 167.362C130.195 168.502 130.715 169.112 131.345 170.012Z" fill="#FEFEFE"/>
<path d="M125.585 152.181V156.531H121.275V152.271C121.275 152.271 121.505 151.681 121.545 151.601C122.275 150.231 124.345 150.141 125.215 151.431C125.275 151.521 125.575 152.141 125.575 152.191L125.585 152.181Z" fill="#FEFEFE"/>
<path d="M129.865 176.452H155.055C155.565 176.542 155.815 176.832 155.885 177.342C156.005 178.242 156.015 181.702 155.875 182.572C155.765 183.232 155.345 183.362 154.735 183.412L129.875 183.372C129.135 183.242 129.065 182.852 129.015 182.162C128.925 180.972 128.895 178.582 129.025 177.432C129.095 176.882 129.275 176.562 129.855 176.452H129.865Z" fill="#042B62"/>
<path d="M136.435 156.532L137.425 152.662C137.845 152.012 138.905 152.302 139.015 153.052C138.515 155.202 138.145 157.402 137.575 159.532C137.455 159.962 137.395 160.702 136.885 160.822C136.435 160.922 136.075 160.852 135.835 160.442C135.295 159.512 135.045 157.512 134.615 156.412C134.575 156.322 134.585 156.202 134.445 156.192L133.135 160.442C132.185 161.342 131.685 160.782 131.455 159.742C131.075 158.022 130.565 155.372 130.405 153.642C130.365 153.192 130.345 152.592 130.845 152.382C131.525 152.102 131.925 152.542 132.095 153.162C132.315 154.012 132.335 155.042 132.545 155.892C132.575 156.012 132.545 156.162 132.715 156.192C132.715 156.052 132.735 155.912 132.775 155.782C132.955 155.202 133.585 152.892 133.835 152.552C134.255 151.992 135.075 152.222 135.345 152.832C135.815 153.902 135.985 155.412 136.425 156.532H136.435Z" fill="#042B62"/>
<path d="M133.225 173.001L154.915 172.981C155.895 172.981 156.235 174.151 155.365 174.641C147.935 174.751 140.445 174.751 133.015 174.641C132.315 174.261 132.395 173.171 133.225 173.001Z" fill="#042B62"/>
<path d="M155.615 162.851C156.245 163.481 155.675 164.421 154.825 164.371H135.185C134.215 164.311 133.915 163.231 134.735 162.711C141.575 162.571 148.465 162.661 155.325 162.671C155.425 162.721 155.535 162.771 155.615 162.851Z" fill="#042B62"/>
<path d="M135.805 169.562L155.075 169.542C155.975 169.692 156.125 170.742 155.355 171.202C148.905 171.352 142.415 171.222 135.955 171.272C134.925 171.212 134.815 169.742 135.805 169.572V169.562Z" fill="#042B62"/>
<path d="M135.716 166.112L155.076 166.092C156.156 166.282 156.096 167.682 154.986 167.822H135.946C134.956 167.702 134.806 166.472 135.706 166.112H135.716Z" fill="#042B62"/>
<path d="M151.935 159.122H153.705C153.785 159.122 154.225 159.302 154.315 159.382C154.735 159.752 154.595 160.702 154.035 160.822C153.645 160.912 151.295 160.912 150.875 160.842C150.345 160.752 150.255 160.122 150.225 159.692C150.115 158.162 150.045 154.612 150.255 153.162C150.365 152.432 150.975 151.952 151.645 152.422C151.735 152.482 151.955 152.712 151.955 152.792V159.122H151.935Z" fill="#042B62"/>
<path d="M145.905 159.121H147.675C148.545 159.121 148.855 160.611 147.915 160.821C147.525 160.911 145.265 160.901 144.835 160.831C144.465 160.771 144.315 160.491 144.205 160.171V152.981C144.315 152.331 145.135 151.971 145.645 152.451C145.695 152.501 145.905 152.851 145.905 152.881V159.121Z" fill="#042B62"/>
<path d="M141.494 152.242C142.034 152.172 142.414 152.622 142.464 153.122C142.664 155.332 142.314 157.852 142.454 160.092C142.314 161.112 140.854 161.192 140.734 159.932C140.524 157.722 140.894 155.202 140.734 152.962C140.784 152.632 141.154 152.282 141.484 152.242H141.494Z" fill="#042B62"/>
<path d="M130.874 178.151H154.044C154.044 178.151 154.174 178.271 154.174 178.281V181.551C154.174 181.551 154.054 181.681 154.044 181.681H130.874C130.874 181.681 130.744 181.561 130.744 181.551V178.281C130.744 178.281 130.844 178.191 130.874 178.151Z" fill="#FEFEFE"/>
<path d="M360.705 172.582H421.085" stroke="black" stroke-miterlimit="10" stroke-linecap="round"/>
<path d="M410.686 165.412L421.756 172.542L410.686 179.762" stroke="black" stroke-linecap="round" stroke-linejoin="round"/>
<path d="M188.895 172.582H242.655" stroke="black" stroke-miterlimit="10" stroke-linecap="round"/>
<path d="M233.404 166.202L243.254 172.542L233.404 178.972" stroke="black" stroke-linecap="round" stroke-linejoin="round"/>
<path d="M506.416 189.282C505.796 189.842 502.856 190.932 502.046 190.252C501.736 191.292 500.986 192.082 499.826 191.972C499.616 193.322 498.516 194.122 497.176 194.112C497.036 194.562 496.826 194.982 496.546 195.382L496.496 195.972C497.056 198.962 495.186 201.692 492.126 201.972C491.486 203.762 489.926 205.202 487.926 205.122H459.866C457.686 205.252 455.846 203.522 455.456 201.442L455.436 160.602C455.636 158.372 457.606 156.632 459.806 156.532C460.326 154.842 461.726 153.502 463.556 153.402H492.106C492.276 153.442 492.436 153.472 492.586 153.502H492.616C494.656 153.312 496.226 155.422 496.536 157.282V179.512C496.976 179.732 497.426 179.912 497.896 180.012C497.806 178.862 498.496 178.412 499.406 177.972C500.756 177.332 502.776 176.522 503.656 178.262L506.836 186.852C506.986 187.712 507.126 188.642 506.416 189.282Z" fill="#042B62"/>
<path d="M492.616 153.402V153.502C492.526 153.482 492.526 153.442 492.616 153.402Z" fill="#FEFEFE"/>
<path d="M506.416 189.282C505.796 189.842 502.856 190.932 502.046 190.252C501.736 191.292 500.986 192.082 499.826 191.972C499.616 193.322 498.516 194.122 497.176 194.112C497.036 194.562 496.826 194.982 496.546 195.382L496.496 195.972C497.056 198.962 495.186 201.692 492.126 201.972C491.486 203.762 489.926 205.202 487.926 205.122H459.866C457.686 205.252 455.846 203.522 455.456 201.442L455.436 160.602C455.636 158.372 457.606 156.632 459.806 156.532C460.326 154.842 461.726 153.502 463.556 153.402C462.386 153.742 461.226 154.352 460.546 155.392C460.386 155.632 459.986 156.652 459.926 156.692C459.816 156.752 458.846 156.872 458.506 156.992C456.966 157.552 455.816 158.992 455.586 160.622V201.182C455.916 203.282 457.706 204.972 459.866 205.072H487.926C489.426 204.952 490.766 204.092 491.516 202.812C491.626 202.632 491.956 201.822 492.006 201.782C492.116 201.712 492.926 201.652 493.196 201.562C494.626 201.142 496.066 199.602 496.306 198.112C496.436 197.232 496.196 196.112 496.346 195.332C496.416 195.012 497.106 194.412 496.956 193.872C497.936 194.002 498.966 193.562 499.416 192.642C499.506 192.462 499.646 191.782 499.686 191.762C499.786 191.702 500.286 191.772 500.516 191.722C501.196 191.592 501.856 190.612 501.896 189.932C502.396 190.202 502.726 190.382 503.316 190.292C503.756 190.222 505.976 189.392 506.286 189.122C506.806 188.692 506.956 187.942 506.796 187.302L503.456 178.332C503.056 177.582 502.396 177.292 501.546 177.422C501.156 177.492 499.366 178.182 498.986 178.392C498.316 178.762 497.906 179.512 498.166 180.242C498.046 180.342 496.446 179.822 496.366 179.572L496.336 157.302C496.056 155.462 494.516 153.692 492.616 153.502C494.656 153.312 496.226 155.422 496.536 157.282V179.512C496.976 179.732 497.426 179.912 497.896 180.012C497.806 178.862 498.496 178.412 499.406 177.972C500.756 177.332 502.776 176.522 503.656 178.262L506.836 186.852C506.986 187.712 507.126 188.642 506.416 189.282Z" fill="#FEFEFE"/>
<path d="M492.615 153.402V153.502H492.585C492.425 153.502 492.185 153.562 492.105 153.402H492.615Z" fill="#546E93"/>
<path d="M476.265 158.142V166.162C476.265 166.452 477.325 166.652 477.575 166.462L481.765 163.622L486.005 166.422C486.345 166.602 486.965 166.202 486.965 165.862V158.142C488.235 158.022 489.285 158.282 490.095 159.302C490.385 159.672 490.805 160.562 490.805 161.012V179.532C490.355 179.512 489.955 179.242 489.515 179.152C488.015 178.842 486.595 179.362 485.105 179.512C484.975 179.482 484.715 178.862 484.535 178.682C484.205 178.372 481.845 177.562 481.355 177.522C480.815 177.482 480.205 177.702 479.865 178.122C478.575 181.342 477.625 184.742 476.585 188.062C476.575 188.422 476.825 189.002 477.085 189.262C477.405 189.582 479.475 190.312 479.985 190.402C480.295 190.452 480.605 190.412 480.915 190.432C479.895 191.922 480.615 194.012 482.525 194.062C482.435 195.722 483.575 196.632 485.195 196.482C485.365 196.462 485.565 196.292 485.605 196.292C485.645 196.292 486.005 196.812 486.155 196.932C486.485 197.222 487.075 197.482 487.525 197.492C487.745 197.492 488.125 197.322 488.255 197.402C488.275 197.412 488.445 197.772 488.535 197.882C489.155 198.612 489.815 198.972 490.795 198.802V200.772C490.795 202.022 489.295 203.582 488.025 203.652H459.765C457.905 203.392 457.015 202.072 456.885 200.272V161.412C456.975 160.352 457.315 159.332 458.205 158.702C458.335 158.612 459.275 158.142 459.355 158.142H476.255H476.265Z" fill="#FEFEFE"/>
<path d="M494.936 179.232C494.026 178.922 493.116 179.082 492.216 179.332V161.322C492.216 159.652 491.186 157.952 489.676 157.202C489.466 157.102 488.586 156.732 488.426 156.732H461.436C461.786 155.662 462.846 155.002 463.906 154.812H492.166C493.156 154.712 494.936 156.272 494.936 157.182V179.232Z" fill="#FEFEFE"/>
<path d="M492.235 191.412C492.805 191.872 495.115 192.712 495.425 193.212C495.825 193.852 495.335 194.622 494.605 194.552C493.525 194.222 492.215 193.072 491.195 192.792C490.805 192.682 490.685 192.852 490.385 193.052C490.115 192.062 489.055 191.422 488.065 191.642C488.015 190.802 487.255 190.042 486.455 189.872C486.255 189.832 485.685 189.842 485.655 189.822C485.635 189.802 485.605 189.492 485.555 189.372C484.985 188.152 483.775 187.722 482.525 188.212L484.845 180.892C486.525 180.982 488.315 179.932 489.895 180.792C489.895 181.032 486.865 183.442 486.635 184.392C486.425 185.252 487.945 186.232 488.685 186.442C490.805 187.032 492.405 185.332 494.465 185.502C495.595 186.312 499.805 187.862 500.375 188.972C500.645 189.502 500.575 190.562 499.755 190.302C498.075 189.642 496.395 188.282 494.755 187.622C493.995 187.312 493.425 188.022 493.875 188.702L497.905 190.922C498.705 191.602 498.035 192.742 497.045 192.392L492.955 190.222C492.115 190.112 491.745 190.712 492.235 191.402V191.412Z" fill="#FEFEFE"/>
<path d="M485.546 158.143V164.403C484.676 164.153 482.476 162.073 481.766 162.073C481.056 162.073 478.466 164.433 477.576 164.703V158.143H485.546Z" fill="#FEFEFE"/>
<path d="M500.686 187.403C498.846 186.033 496.696 185.133 494.656 184.093C492.506 183.543 489.976 186.373 488.186 184.523C489.466 183.103 491.546 180.593 493.576 180.443C495.136 180.333 496.526 181.533 498.006 181.643C498.236 181.663 498.456 181.463 498.606 181.643L500.676 187.403H500.686Z" fill="#FEFEFE"/>
<path d="M481.076 178.943C481.196 178.903 483.216 179.513 483.406 179.613C483.526 179.683 483.636 179.723 483.636 179.893L480.816 188.773C480.756 188.933 480.676 189.103 480.476 189.103C480.356 189.103 478.386 188.463 478.256 188.393C478.116 188.313 477.986 188.253 477.986 188.063C478.496 187.073 480.616 179.083 481.076 178.933V178.943Z" fill="#FEFEFE"/>
<path d="M502.185 178.842L505.435 187.762C505.435 187.942 505.415 187.992 505.265 188.102C505.155 188.182 503.165 188.922 503.045 188.912C502.735 188.902 502.635 188.392 502.525 188.132C501.385 185.482 500.575 182.562 499.475 179.882C499.475 179.692 499.605 179.632 499.745 179.552C499.965 179.432 501.405 178.902 501.665 178.852C501.835 178.812 502.015 178.802 502.185 178.852V178.842Z" fill="#FEFEFE"/>
<path d="M485.615 191.263C486.115 191.113 486.685 191.373 486.735 191.923C486.785 192.473 485.525 194.233 485.285 194.873C484.495 195.403 483.695 194.963 483.975 193.963C484.045 193.703 485.055 191.883 485.255 191.613C485.345 191.483 485.455 191.313 485.615 191.263Z" fill="#FEFEFE"/>
<path d="M494.935 197.703C494.795 199.043 493.465 200.313 492.105 200.323V197.803C493.355 198.273 494.385 197.853 494.825 196.593C494.885 196.583 494.925 196.573 494.935 196.593C495.055 196.803 494.985 197.453 494.935 197.713V197.703Z" fill="#FDFDFD"/>
<path d="M483.306 189.442C483.896 189.312 484.436 189.762 484.326 190.352C484.286 190.562 483.346 192.302 483.186 192.452C482.616 192.992 481.676 192.502 481.836 191.712C481.856 191.602 482.786 189.832 482.876 189.722C482.986 189.582 483.116 189.472 483.296 189.432L483.306 189.442Z" fill="#FDFDFE"/>
<path d="M487.795 193.193C488.335 192.703 489.215 193.173 489.175 193.813C489.155 194.043 488.355 195.523 488.165 195.733C487.585 196.363 486.695 196.063 486.755 195.243C486.775 195.033 487.645 193.323 487.795 193.193Z" fill="#FDFDFD"/>
<path d="M490.465 195.092C490.885 195.002 491.525 195.252 491.505 195.722C491.485 196.062 490.705 197.512 490.255 197.472C488.935 197.362 489.595 195.282 490.465 195.092Z" fill="#FDFDFD"/>
<path d="M492.815 195.272C493.655 195.272 493.835 196.712 492.965 196.592C492.455 196.522 493.045 195.652 492.815 195.272Z" fill="#F3F5F7"/>
<path d="M494.936 197.702C494.966 197.392 494.996 196.832 494.836 196.592C494.896 196.412 494.866 196.042 495.036 195.992C494.976 196.532 495.166 197.202 494.936 197.702Z" fill="#3F5D86"/>
<path d="M484.815 172.552C484.695 172.682 484.275 172.782 484.085 172.782H463.595C462.565 172.872 462.345 171.462 463.395 171.362H484.285C484.915 171.302 485.165 172.172 484.815 172.552Z" fill="#042B62"/>
<path d="M462.876 190.202C462.636 189.942 462.706 189.242 463.076 189.092C466.736 188.922 470.436 189.072 474.106 189.012C475.086 189.102 475.086 190.312 474.106 190.432C470.726 190.202 466.936 190.732 463.606 190.432C463.406 190.412 463.016 190.342 462.876 190.202Z" fill="#042B62"/>
<path d="M462.876 177.442C462.996 177.312 463.416 177.212 463.606 177.212C466.946 177.432 470.606 176.942 473.906 177.212C475.126 177.312 475.086 178.522 474.106 178.632H463.406C462.776 178.692 462.526 177.822 462.876 177.442Z" fill="#042B62"/>
<path d="M474.626 184.352C474.506 184.472 474.266 184.472 474.106 184.482C470.656 184.782 466.796 184.252 463.296 184.482C462.536 184.402 462.516 183.252 463.296 183.162H474.206C474.776 183.212 475.046 183.962 474.626 184.352Z" fill="#042B62"/>
</g>
</g>
</g>
</g>
<defs>
<filter id="filter0_dd_235_1500" x="0.0546875" y="0.461914" width="608" height="358" filterUnits="userSpaceOnUse" color-interpolation-filters="sRGB">
<feFlood flood-opacity="0" result="BackgroundImageFix"/>
<feColorMatrix in="SourceAlpha" type="matrix" values="0 0 0 0 0 0 0 0 0 0 0 0 0 0 0 0 0 0 127 0" result="hardAlpha"/>
<feMorphology radius="8" operator="erode" in="SourceAlpha" result="effect1_dropShadow_235_1500"/>
<feOffset dy="24"/>
<feGaussianBlur stdDeviation="16"/>
<feComposite in2="hardAlpha" operator="out"/>
<feColorMatrix type="matrix" values="0 0 0 0 0 0 0 0 0 0 0 0 0 0 0 0 0 0 0.07 0"/>
<feBlend mode="normal" in2="BackgroundImageFix" result="effect1_dropShadow_235_1500"/>
<feColorMatrix in="SourceAlpha" type="matrix" values="0 0 0 0 0 0 0 0 0 0 0 0 0 0 0 0 0 0 127 0" result="hardAlpha"/>
<feOffset dy="4"/>
<feGaussianBlur stdDeviation="16"/>
<feComposite in2="hardAlpha" operator="out"/>
<feColorMatrix type="matrix" values="0 0 0 0 0 0 0 0 0 0 0 0 0 0 0 0 0 0 0.03 0"/>
<feBlend mode="normal" in2="effect1_dropShadow_235_1500" result="effect2_dropShadow_235_1500"/>
<feBlend mode="normal" in="SourceGraphic" in2="effect2_dropShadow_235_1500" result="shape"/>
</filter>
<clipPath id="clip0_235_1500">
<path d="M32.0547 37.4619C32.0547 32.4914 36.0841 28.4619 41.0547 28.4619H567.055C572.025 28.4619 576.055 32.4914 576.055 37.4619V301.462C576.055 306.432 572.025 310.462 567.055 310.462H41.0547C36.0841 310.462 32.0547 306.432 32.0547 301.462V37.4619Z" fill="white"/>
</clipPath>
<clipPath id="clip1_235_1500">
<rect width="544" height="282.07" fill="white" transform="translate(32.0547 28.4619)"/>
</clipPath>
<clipPath id="clip2_235_1500">
<rect width="544" height="282" fill="white" transform="translate(32.0547 28.4619)"/>
</clipPath>
</defs>
</svg>
