<svg width="102" height="102" viewBox="0 0 102 102" fill="none" xmlns="http://www.w3.org/2000/svg">
<circle cx="50.9102" cy="51.4678" r="46.5" fill="#004FBF" stroke="white" stroke-width="8"/>
<path d="M51.3192 70.9649C48.6676 70.9649 46.3061 70.5092 44.2346 69.5977C42.175 68.6744 40.5474 67.4079 39.3518 65.798C38.1681 64.1763 37.5585 62.3061 37.523 60.1872H45.2645C45.3118 61.075 45.6018 61.8563 46.1345 62.531C46.679 63.1939 47.4011 63.7088 48.3007 64.0757C49.2003 64.4427 50.2124 64.6262 51.3369 64.6262C52.5088 64.6262 53.5445 64.419 54.4442 64.0047C55.3438 63.5904 56.0481 63.0163 56.5571 62.2824C57.0661 61.5485 57.3206 60.7021 57.3206 59.7433C57.3206 58.7727 57.0483 57.9145 56.5038 57.1688C55.9711 56.4112 55.2017 55.8193 54.1956 55.3932C53.2013 54.9671 52.0175 54.754 50.6444 54.754H47.2531V49.1077H50.6444C51.8045 49.1077 52.8284 48.9065 53.7162 48.504C54.6158 48.1015 55.3142 47.5452 55.8113 46.835C56.3085 46.1129 56.5571 45.2725 56.5571 44.3137C56.5571 43.4022 56.3381 42.6032 55.9001 41.9166C55.474 41.2182 54.8703 40.6737 54.089 40.2831C53.3196 39.8925 52.42 39.6972 51.3902 39.6972C50.3485 39.6972 49.3956 39.8866 48.5315 40.2654C47.6674 40.6323 46.9749 41.1591 46.4541 41.8456C45.9333 42.5322 45.6551 43.3371 45.6196 44.2604H38.251C38.2865 42.1652 38.8843 40.3186 40.0443 38.7206C41.2043 37.1226 42.7668 35.8738 44.7318 34.9742C46.7086 34.0627 48.9399 33.607 51.4257 33.607C53.9352 33.607 56.1309 34.0627 58.0131 34.9742C59.8952 35.8856 61.357 37.1167 62.3987 38.6673C63.4522 40.2062 63.973 41.9344 63.9612 43.852C63.973 45.888 63.3398 47.5866 62.0613 48.9479C60.7948 50.3092 59.1435 51.1733 57.1075 51.5402V51.8243C59.7827 52.1676 61.8187 53.0968 63.2155 54.6119C64.6241 56.1153 65.3225 57.9974 65.3106 60.2583C65.3225 62.3298 64.7247 64.1704 63.5173 65.7803C62.3218 67.3901 60.6705 68.6567 58.5635 69.58C56.4565 70.5033 54.0417 70.9649 51.3192 70.9649Z" fill="white"/>
</svg>
