<svg width="102" height="102" viewBox="0 0 102 102" fill="none" xmlns="http://www.w3.org/2000/svg">
<circle cx="50.9102" cy="51.4346" r="46.5" fill="#004FBF" stroke="white" stroke-width="8"/>
<path d="M51.3097 70.9317C49.4394 70.9199 47.6342 70.6062 45.8942 69.9907C44.166 69.3751 42.6153 68.3749 41.2422 66.99C39.8691 65.605 38.7801 63.7703 37.9751 61.4857C37.1821 59.2011 36.7855 56.3957 36.7855 53.0695C36.7973 50.0155 37.1465 47.2871 37.8331 44.8841C38.5315 42.4694 39.5258 40.4215 40.8161 38.7407C42.1181 37.0598 43.6747 35.7814 45.4858 34.9054C47.2969 34.0177 49.3269 33.5738 51.576 33.5738C54.0026 33.5738 56.1451 34.0473 58.0036 34.9942C59.862 35.9294 61.3535 37.2019 62.478 38.8117C63.6143 40.4215 64.3009 42.2267 64.5376 44.2272H56.956C56.66 42.9606 56.0386 41.9663 55.0916 41.2442C54.1447 40.5222 52.9728 40.1611 51.576 40.1611C49.2086 40.1611 47.4093 41.191 46.1783 43.2506C44.959 45.3103 44.3376 48.1098 44.3139 51.6491H44.5625C45.107 50.5719 45.8409 49.6545 46.7642 48.8969C47.6993 48.1275 48.7588 47.5416 49.9425 47.1391C51.138 46.7248 52.3987 46.5177 53.7244 46.5177C55.8788 46.5177 57.7964 47.0267 59.4773 48.0447C61.1581 49.0508 62.4839 50.4358 63.4545 52.1995C64.4252 53.9632 64.9105 55.9814 64.9105 58.2542C64.9105 60.7163 64.3364 62.9062 63.1882 64.8238C62.0518 66.7414 60.4598 68.2447 58.4119 69.3337C56.3759 70.4109 54.0085 70.9436 51.3097 70.9317ZM51.2741 64.8948C52.4579 64.8948 53.5173 64.6107 54.4524 64.0425C55.3875 63.4743 56.1214 62.7049 56.6541 61.7343C57.1868 60.7636 57.4531 59.6746 57.4531 58.4672C57.4531 57.2599 57.1868 56.1768 56.6541 55.218C56.1333 54.2591 55.4112 53.4956 54.4879 52.9275C53.5646 52.3593 52.5111 52.0752 51.3274 52.0752C50.4396 52.0752 49.617 52.2409 48.8594 52.5724C48.1136 52.9038 47.4567 53.3654 46.8885 53.9573C46.3321 54.5492 45.8942 55.2357 45.5746 56.017C45.255 56.7864 45.0952 57.609 45.0952 58.485C45.0952 59.6569 45.3615 60.7281 45.8942 61.6988C46.4387 62.6694 47.1726 63.4448 48.0959 64.0248C49.031 64.6048 50.0904 64.8948 51.2741 64.8948Z" fill="white"/>
</svg>
