<svg width="29" height="34" viewBox="0 0 29 34" fill="none" xmlns="http://www.w3.org/2000/svg">
<g id="icon">
<path id="Vector" fill-rule="evenodd" clip-rule="evenodd" d="M27.0387 10.5929L26.1644 8.90714C25.4247 7.48077 23.7856 6.98871 22.5001 7.80714C21.8882 8.20766 21.158 8.3213 20.4706 8.12298C19.7832 7.92467 19.1951 7.4307 18.8358 6.75C18.6047 6.31734 18.4805 5.82453 18.4758 5.32143C18.4967 4.51482 18.2228 3.73319 17.7166 3.15458C17.2104 2.57597 16.5149 2.24967 15.7887 2.25H14.0273C13.3158 2.25 12.6336 2.56501 12.1317 3.12536C11.6298 3.6857 11.3495 4.44517 11.353 5.23572C11.3319 6.86792 10.135 8.17874 8.66582 8.17857C8.21303 8.17335 7.76951 8.03536 7.38011 7.77857C6.09462 6.96014 4.45547 7.4522 3.71582 8.87857L2.77725 10.5929C2.0385 12.0174 2.47533 13.8376 3.75439 14.6643C4.58581 15.1976 5.09798 16.1833 5.09798 17.25C5.09798 18.3167 4.58581 19.3024 3.75439 19.8357C2.47695 20.6569 2.03965 22.4726 2.77725 23.8929L3.66439 25.5929C4.01095 26.2877 4.59241 26.8004 5.28011 27.0175C5.96781 27.2347 6.70504 27.1384 7.32868 26.75C7.94175 26.3525 8.67232 26.2436 9.35799 26.4475C10.0437 26.6514 10.6276 27.1511 10.9801 27.8357C11.2112 28.2684 11.3354 28.7612 11.3401 29.2643C11.3401 30.9133 12.5432 32.25 14.0273 32.25H15.7887C17.2677 32.25 18.4687 30.922 18.4758 29.2786C18.4724 28.4855 18.7544 27.7239 19.2591 27.1631C19.7638 26.6024 20.4492 26.289 21.163 26.2929C21.6147 26.3063 22.0564 26.4437 22.4487 26.6929C23.7308 27.5137 25.3689 27.0283 26.113 25.6071L27.0387 23.8929C27.397 23.2095 27.4953 22.3956 27.3119 21.6314C27.1285 20.8672 26.6785 20.2158 26.0615 19.8214C25.4446 19.427 24.9945 18.7756 24.8111 18.0114C24.6277 17.2473 24.7261 16.4334 25.0844 15.75C25.3174 15.298 25.6547 14.9232 26.0615 14.6643C27.3329 13.838 27.7687 12.0285 27.0387 10.6071V10.5929Z" stroke="#F23936" stroke-width="3" stroke-linecap="round" stroke-linejoin="round"/>
<path id="Vector_2" d="M14.9175 21.3609C16.9624 21.3609 18.6201 19.519 18.6201 17.2469C18.6201 14.9747 16.9624 13.1328 14.9175 13.1328C12.8726 13.1328 11.2148 14.9747 11.2148 17.2469C11.2148 19.519 12.8726 21.3609 14.9175 21.3609Z" stroke="#F23936" stroke-width="3" stroke-linecap="round" stroke-linejoin="round"/>
</g>
</svg>
