<?xml version="1.0" encoding="UTF-8"?>
<svg id="Layer_1" xmlns="http://www.w3.org/2000/svg" version="1.1" viewBox="0 0 25 30">
  <!-- Generator: Adobe Illustrator 29.4.0, SVG Export Plug-In . SVG Version: 2.1.0 Build 49)  -->
  <defs>
    <style>
      .st0 {
        fill: #042b62;
      }
    </style>
  </defs>
  <g>
    <path class="st0" d="M11.8,7.9c.3,0,1.2,0,1.5,0s.5.2.6.4,0,.4.1.6c.2.5.7.8,1.2.7s.9-.8,1.5-.4,1,.9,1,1,.1.3.1.5c0,.3-.4.5-.5,1s.2,1,.6,1.2,1.1,0,1.2.6,0,1.2,0,1.5c0,.7-.8.5-1.3.8s-.6.8-.4,1.3.8.7.3,1.3-.9.9-1,1-.3.1-.5.1c-.3,0-.4-.3-.6-.4-.5-.3-1.3,0-1.5.5s0,1.1-.7,1.2-1.1,0-1.4,0c-.9,0-.5-.9-.9-1.4s-.8-.5-1.2-.4-.7.8-1.3.4-1-.9-1.1-1.1c-.4-.6.3-.9.4-1.5s-.2-.9-.6-1.1-1,0-1.1-.6,0-1.3,0-1.6.3-.5.6-.5.2,0,.3,0c.7-.1,1.1-.8.9-1.5s-.6-.6-.4-1.2,1.1-1.2,1.3-1.3c.6-.1.7.4,1.2.5s1-.1,1.2-.6,0-1.1.7-1.2ZM12,8.5c-.1,0,0,.4-.1.5-.2,1-1.3,1.5-2.3,1.2s-.5-.5-.7-.3-.8.8-.8.8,0,0,0,.1c.6.6.7,1.5.2,2.2-.3.5-.9.7-1.4.7,0,0,0,1.2,0,1.3s.2,0,.3.1c1.2.2,1.8,1.6,1.1,2.6s-.2.2-.2.3l.9,1c.1,0,.4-.3.6-.3.9-.4,2,0,2.3,1s0,.6.1.6,1.2,0,1.3,0,.2-.5.2-.7c.3-.9,1.4-1.4,2.3-1s.4.3.6.4l1-.9c0,0-.3-.4-.3-.6-.4-.9,0-2,1-2.3s.4,0,.6-.1c0,0,0-1.2,0-1.3s-.4-.1-.5-.2c-1-.3-1.5-1.3-1.1-2.3s.3-.4.4-.6c0,0,0-.1,0-.2,0,0-.7-.7-.8-.8-.2-.1-.4.2-.6.3-.9.5-2.1,0-2.4-1s0-.4-.1-.6c0,0-1.2,0-1.3,0Z"/>
    <path class="st0" d="M5.2,9l.7,2.1c-.1.3-.5.3-.6,0s-.2-.8-.4-1.1c0,0-.5.8-.5.9-2.3,5.2.8,11.1,6.2,12.3.2.1.2.5,0,.5s-1-.2-1.2-.3c-5-1.8-7.6-7.4-5.6-12.4.2-.4.4-.8.6-1.2-.3,0-.9.4-1.1.4s-.4-.3-.2-.5,1.7-.5,2-.7h.2Z"/>
    <path class="st0" d="M20.8,9.5c0,0,0,0,0-.1,0-.3.1-1.1.4-1.1.4-.1.4.2.4.5s-.3,1.4-.4,1.7-.2.2-.4.2c-.6,0-1.3-.3-1.9-.4-.2,0-.2-.4,0-.5.3,0,1,.2,1.3.2s0,0,0,0c-.7-1.2-1.7-2.2-2.8-3-3.3-2.1-7.6-1.9-10.6.5s-.8.8-.9.8-.2,0-.3,0c-.4-.2.3-.8.5-1,.7-.6,1.7-1.2,2.5-1.6,4.4-1.9,9.6-.3,12,3.8Z"/>
    <path class="st0" d="M12.8,23.9c.1.2.8.6.9.8s0,.2,0,.3c-.2.3-.4,0-.6-.1-.4-.3-.8-.8-1.2-1.1v-.3c0,0,1.3-1.6,1.3-1.6.2-.1.5,0,.5.3s-.7.8-.8,1,0,0,0,.1c1.9,0,3.7-.6,5.2-1.6,2.9-2,4.3-5.5,3.6-9s-.2-.9-.2-1,.3-.3.5-.2.2.6.3.8c.8,3.7-.6,7.6-3.7,9.8-1.6,1.1-3.5,1.7-5.4,1.8Z"/>
    <path class="st0" d="M12.5,11.1c2.3-.1,4.1,2.3,3.2,4.5-.9,2.3-4,2.8-5.6.9s-.3-5.2,2.4-5.3ZM10.7,16.3c2.5,2.5,6.3-1.4,3.8-3.8-2.5-2.5-6.3,1.3-3.8,3.8Z"/>
  </g>
  <path class="st0" d="M13.8,13.3h-.8c.1.1.2.3.2.5h.6v.4h-.6c0,.5-.5.8-1,.8.3.4.8.8,1.1,1.3h-.8c-.3-.4-.7-.8-1.1-1.3v-.5h.3c.4,0,.6-.1.7-.4h-1v-.4h1c0-.2-.3-.3-.6-.3h-.4v-.5h2.3v.4Z"/>
</svg>