<svg width="44" height="44" viewBox="0 0 44 44" fill="none" xmlns="http://www.w3.org/2000/svg">
<g clip-path="url(#clip0_235_235)">
<circle opacity="0.100028" cx="21.8984" cy="22.125" r="21.5" fill="#004FBF"/>
<path d="M23.4644 28.795C22.7504 28.795 22.1271 28.71 21.5944 28.54C21.0618 28.3587 20.6141 28.1207 20.2514 27.826C19.8888 27.5313 19.6111 27.2083 19.4184 26.857C19.2371 26.5057 19.1408 26.143 19.1294 25.769C19.1294 25.667 19.1634 25.5877 19.2314 25.531C19.2994 25.4743 19.3844 25.446 19.4864 25.446H20.3194C20.4214 25.446 20.5121 25.4687 20.5914 25.514C20.6708 25.5593 20.7388 25.6557 20.7954 25.803C20.9088 26.211 21.1014 26.5283 21.3734 26.755C21.6568 26.9817 21.9798 27.1403 22.3424 27.231C22.7164 27.3103 23.0904 27.35 23.4644 27.35C24.2464 27.35 24.8811 27.163 25.3684 26.789C25.8558 26.415 26.0994 25.8653 26.0994 25.14C26.0994 24.4033 25.8784 23.8763 25.4364 23.559C24.9944 23.2417 24.3824 23.083 23.6004 23.083H21.9854C21.8721 23.083 21.7758 23.049 21.6964 22.981C21.6284 22.913 21.5944 22.8167 21.5944 22.692V22.233C21.5944 22.131 21.6114 22.046 21.6454 21.978C21.6908 21.8987 21.7361 21.8307 21.7814 21.774L25.0794 18.17H20.0644C19.9511 18.17 19.8548 18.136 19.7754 18.068C19.7074 18 19.6734 17.9037 19.6734 17.779V17.133C19.6734 17.0083 19.7074 16.912 19.7754 16.844C19.8548 16.7647 19.9511 16.725 20.0644 16.725H26.8474C26.9721 16.725 27.0684 16.7647 27.1364 16.844C27.2158 16.912 27.2554 17.0083 27.2554 17.133V17.745C27.2554 17.8243 27.2328 17.898 27.1874 17.966C27.1534 18.0227 27.1138 18.0793 27.0684 18.136L23.7874 21.791L24.0594 21.808C24.8074 21.8307 25.4591 21.9667 26.0144 22.216C26.5811 22.4653 27.0174 22.8393 27.3234 23.338C27.6408 23.8253 27.7994 24.443 27.7994 25.191C27.7994 25.9503 27.6124 26.602 27.2384 27.146C26.8644 27.6787 26.3488 28.0867 25.6914 28.37C25.0341 28.6533 24.2918 28.795 23.4644 28.795Z" fill="#004FBF"/>
</g>
<defs>
<clipPath id="clip0_235_235">
<rect width="43" height="43" fill="white" transform="translate(0.398438 0.625)"/>
</clipPath>
</defs>
</svg>
