<?xml version="1.0" encoding="UTF-8"?>
<svg width="512" height="512" id="Layer_1" xmlns="http://www.w3.org/2000/svg" viewBox="0 0 1080 1080">
  <defs>
    <style>
      .cls-1 {
        fill: #010101;
      }

      .cls-2 {
        fill: #042b62;
      }

      .cls-3 {
        fill: #020202;
      }

      .cls-4 {
        fill: #fefefe;
      }
    </style>
  </defs>
  <path d="M444.17,563.88c8.44,13.08,14.7,25.88,18.03,39.92.83,3.52,3.97,2.59,6.4,2.61,7.09.08,14.21.35,21.28-.08,5.68-.34,7.14,1.89,6.91,7.25-.4,9.33-.36,18.7-.01,28.04.19,5.15-.78,7.69-6.75,7.41-8.66-.39-19.21-2.83-25.51,1.11-5.6,3.5-6,14.75-9.59,22.14-18.49,38.03-48.78,58.84-91.2,61.43-5.36.32-10.77.04-18.74.04,30.01,30.51,58.04,59.42,86.63,87.76,5.85,5.8,5.83,8.95-.21,14.08-6.6,5.62-12.61,12.02-18.4,18.5-3.53,3.96-5.59,3.47-9.1-.12-37.86-38.74-75.85-77.35-113.94-115.87-3-3.03-4.14-6.08-4.04-10.22.23-9.67.41-19.36-.05-29.01-.28-5.87,1.37-7.76,7.48-7.66,22.25.37,44.5.31,66.75.1,24.79-.24,42.93-11.98,55.14-33.17,5.02-8.71,4.59-9.23-5.25-9.23-38.37-.02-76.74-.21-115.11.17-7.09.07-9.73-1.35-9.05-8.86.74-8.32.76-16.81-.01-25.12-.7-7.73,2.38-8.88,9.26-8.82,38.38.32,76.75-.06,115.12.32,8.25.09,9.64-1.62,5.51-8.75-12.71-21.9-31.43-33.63-56.85-33.91-21.6-.25-43.21-.26-64.81.07-5.96.09-8.69-.91-8.22-7.72.65-9.31.39-18.7.07-28.04-.16-4.74.71-6.76,6.2-6.74,66.11.2,132.21.18,198.32.03,5.27-.01,6.53,1.88,6.35,6.77-.34,9.34-.45,18.72.03,28.04.31,5.95-1.51,7.83-7.53,7.66-14.44-.41-28.89-.13-45.11-.13Z"/>
  <path d="M832.78,205.36c-143.59-39.14-282.93,55.55-308.65,198.16-4.96-5.58-9.09-10.8-13.83-15.4-4.8-4.67-5.75-6.92,1.03-11.64,20.73-14.45,28.83-35.01,24.05-59.91-4.51-23.46-22.81-40.49-47.31-45.2-1.12-.22-2.21-.61-6.02-1.68,8.8-8.24,16.41-15.1,23.73-22.27,7.59-7.45,15.13-14.98,22.28-22.86,19.49-21.47,20.57-53.79,2.8-76.44-17.89-22.82-47.71-28.95-73.83-15.19-9.52,5.01-12.18,3.96-15.37-6.09-8.43-26.58-30.37-43.46-56.28-43.29-25.52.17-47.47,17.08-55.72,42.92-3.33,10.46-5.65,11.48-15.01,6.61-26.36-13.74-56.62-7.72-73.97,14.71-18.06,23.37-17.03,55.27,3.1,77.19,12.21,13.3,25.22,25.85,37.74,38.85,1.87,1.94,5.03,3.15,4.81,6.67-27.07,6.1-44.19,20.42-49.62,43.01-7.19,29.9,4.81,52.02,29.99,68.01-46.96,53.16-92.3,106.73-129.97,166.39-28.49,45.14-48.68,93.06-51.18,146.99-3.85,83.46,26.8,153.49,89.51,207.16,95.22,81.49,205.31,95.82,321.8,57.8,86.97-28.4,147.48-87.52,177.5-175.27,10.98-32.06,14-65.33,10.79-99.97,145.14,50.01,287.72-39.72,322.44-175.05,33.39-130.15-44.15-268.6-174.81-304.21ZM768.75,279.17c90.88.22,165.16,76.1,165.03,168.56-.13,92.54-74.24,167.76-165.44,167.91-91.59.16-166.05-75.35-166.01-168.33.04-92.87,74.77-168.37,166.42-168.14ZM268.36,207.3c-12.21-12.49-13.81-27.92-4.47-40.11,9.18-11.97,23.37-14.12,38.98-5.9,22.87,12.05,46.9,2.11,54.68-22.62,5.06-16.1,14.85-24.64,28.2-24.6,13.36.04,23.09,8.59,28.14,24.69,7.74,24.67,31.65,34.5,54.73,22.5,15.7-8.15,30.01-5.94,38.9,6.03,9.09,12.24,7.41,27.77-4.66,40.14-19.13,19.6-38.5,38.96-57.55,58.63-3.47,3.59-7.02,4.81-11.87,4.73-16.1-.26-32.22-.09-48.33-.1-15.79,0-31.58-.17-47.36.11-4.9.08-8.39-1.31-11.84-4.87-19.06-19.66-38.42-39.04-57.55-58.63ZM656.35,713.03c-2.96,83.62-43.61,146.12-112.24,191-56.32,36.83-119.29,47.97-185.69,42.86-58.82-4.52-112.16-23.7-157.28-61.95-62.57-53.04-93.53-120.16-84.59-203.22,4.69-43.55,23-82.01,46.17-118.55,39.34-62.03,87.06-117.41,135.88-171.95,3.1-3.47,6.38-4.58,10.91-4.55,25.47.2,50.93.1,76.4.1s50.29.05,75.43-.05c4.31-.01,7.79.4,11.08,4.08,48.83,54.53,96.45,109.97,135.95,171.91,29.31,45.95,49.95,94.74,47.98,150.32ZM881.61,448.15c.42,8.44,5.24,13.51,13.85,14.35,2.86.27,5.76.04,8.64.04v.06c2.56,0,5.13.14,7.68-.03,8.79-.58,14.67-6.23,15.08-14.33.4-7.98-5.21-15.02-13.59-15.83-6.33-.62-12.89-.78-19.14.18-8.37,1.28-12.94,7.04-12.52,15.56ZM858.63,370.56c9.55.1,26.45-17.75,25.89-27.38-.34-5.98-3.37-10.2-8.69-12.79-5.47-2.66-10.76-1.95-15.18,1.98-4.76,4.25-9.29,8.82-13.47,13.64-4.18,4.81-4.45,10.47-1.63,16.15,2.66,5.35,7.29,7.82,13.08,8.4ZM867.02,527.21c-4.14-3.63-9.51-3.77-14.49-1.28-5.22,2.61-8.32,6.93-8.66,12.9-.56,9.78,16.31,27.26,26.12,27.12,11.52-.16,18.89-13.22,12.24-22.87-4.11-5.97-9.7-11.06-15.21-15.87ZM763.81,462.72c13.48,7.45,26.62,15.53,40,23.17,9.83,5.62,17.68,4.13,22.58-3.95,4.69-7.72,2.03-16.32-7.12-21.92-9.86-6.04-19.75-12.06-29.92-17.53-4.96-2.67-6.48-5.97-6.37-11.42.34-16.72.24-33.46.09-50.18-.11-11.25-5.53-17.52-14.75-17.69-9.6-.18-15.23,6.31-15.37,18.04-.12,10.61-.03,21.23-.03,31.85,0,9.97.25,19.95-.07,29.91-.29,8.94,2.94,15.29,10.96,19.72ZM768.02,562.93c-8.1,0-14.05,5.7-14.98,14.59-.3,2.87-.12,5.79-.12,8.69,0,14.79,5.22,22.57,15.12,22.56,10.02,0,15.06-7.54,14.97-22.56,0-2.9.24-5.82-.05-8.68-.87-8.83-6.89-14.61-14.94-14.6ZM768.39,332.48c10-.3,14.72-7.62,14.54-22.83,0-3.22.39-6.49-.08-9.63-1.22-8.35-5.99-13.58-14.69-13.71-8.8-.14-13.45,5.29-14.97,13.45-.59,3.12-.26,6.41-.27,9.62-.01,15.52,5.28,23.41,15.47,23.1ZM668.67,367.33c4.49,3.92,9.99,4.23,15.3,1.49,5.25-2.7,8.1-7.28,8.41-13.13.48-9.08-16.36-26.49-27.5-26.76-4,.2-8.67,2.58-11.5,7.84-3,5.59-2.88,11.41,1.12,16.26,4.26,5.15,9.11,9.91,14.17,14.3ZM684.68,526.47c-5.17-3.03-10.83-3.16-15.35.68-5.57,4.74-10.76,10.08-15.38,15.76-3.74,4.6-3.36,10.24-.51,15.41,2.89,5.24,7.6,7.72,13.49,7.6,8.78-.17,25.3-17.08,25.54-26.72-.28-5.05-2.72-9.75-7.79-12.73ZM642.22,432.62c-6.96-1.09-14.18-1.38-21.1.22-7.88,1.83-12.05,7.32-11.59,15.49.46,8.15,5.19,12.92,13.23,14.09,2.83.41,5.78.06,8.67.06v.08c2.9,0,5.81.19,8.68-.03,8.63-.65,13.56-5.48,14.48-13.97.83-7.65-4.45-14.7-12.37-15.94Z"/>
  <path class="cls-4" d="M496.79,613.58c-.4,9.33-.36,18.7-.01,28.04.19,5.15-.78,7.69-6.75,7.41-8.66-.39-19.21-2.83-25.51,1.11-5.6,3.5-6,14.75-9.59,22.14-18.49,38.03-48.78,58.84-91.2,61.43-5.36.32-10.77.04-18.74.04,30.01,30.51,58.04,59.42,86.63,87.76,5.85,5.8,5.83,8.95-.21,14.08-6.6,5.62-12.61,12.02-18.4,18.5-3.53,3.96-5.59,3.47-9.1-.12-37.86-38.74-75.85-77.35-113.94-115.87-3-3.03-4.14-6.08-4.04-10.22.23-9.67.41-19.36-.05-29.01-.28-5.87,1.37-7.76,7.48-7.66,22.25.37,44.5.31,66.75.1,24.79-.24,42.93-11.98,55.14-33.17,5.02-8.71,4.59-9.23-5.25-9.23-38.37-.02-76.74-.21-115.11.17-7.09.07-9.73-1.35-9.05-8.86.74-8.32.76-16.81-.01-25.12-.7-7.73,2.38-8.88,9.26-8.82,38.38.32,76.75-.06,115.12.32,8.25.09,9.64-1.62,5.51-8.75-12.71-21.9-31.43-33.63-56.85-33.91-21.6-.25-43.21-.26-64.81.07-5.96.09-8.69-.91-8.22-7.72.65-9.31.39-18.7.07-28.04-.16-4.74.71-6.76,6.2-6.74,66.11.2,132.21.18,198.32.03,5.27-.01,6.53,1.88,6.35,6.77-.34,9.34-.45,18.72.03,28.04.31,5.95-1.51,7.83-7.53,7.66-14.44-.41-28.89-.13-45.11-.13,8.44,13.08,14.7,25.88,18.03,39.92.83,3.52,3.97,2.59,6.4,2.61,7.09.08,14.21.35,21.28-.08,5.68-.34,7.14,1.89,6.91,7.25Z"/>
  <path class="cls-4" d="M654.59,448.56c-.92,8.49-5.85,13.32-14.48,13.97-2.87.22-5.78.03-8.68.03v-.08c-2.89,0-5.84.35-8.67-.06-8.04-1.17-12.77-5.94-13.23-14.09-.46-8.17,3.71-13.66,11.59-15.49,6.92-1.6,14.14-1.31,21.1-.22,7.92,1.24,13.2,8.29,12.37,15.94Z"/>
  <path class="cls-4" d="M692.47,539.2c-.24,9.64-16.76,26.55-25.54,26.72-5.89.12-10.6-2.36-13.49-7.6-2.85-5.17-3.23-10.81.51-15.41,4.62-5.68,9.81-11.02,15.38-15.76,4.52-3.84,10.18-3.71,15.35-.68,5.07,2.98,7.51,7.68,7.79,12.73Z"/>
  <path class="cls-4" d="M654.5,353.03c-4-4.85-4.12-10.67-1.12-16.26,2.83-5.26,7.5-7.64,11.5-7.84,11.14.27,27.98,17.68,27.5,26.76-.31,5.85-3.16,10.43-8.41,13.13-5.31,2.74-10.81,2.43-15.3-1.49-5.06-4.39-9.91-9.15-14.17-14.3Z"/>
  <path class="cls-4" d="M752.92,309.38c0-3.21-.32-6.5.27-9.62,1.52-8.16,6.17-13.59,14.97-13.45,8.7.13,13.47,5.36,14.69,13.71.47,3.14.08,6.41.08,9.63.18,15.21-4.54,22.53-14.54,22.83-10.19.31-15.48-7.58-15.47-23.1Z"/>
  <path class="cls-4" d="M782.96,577.53c.29,2.86.05,5.78.05,8.68.09,15.02-4.95,22.56-14.97,22.56-9.9.01-15.12-7.77-15.12-22.56,0-2.9-.18-5.82.12-8.69.93-8.89,6.88-14.59,14.98-14.59,8.05-.01,14.07,5.77,14.94,14.6Z"/>
  <path class="cls-4" d="M826.39,481.94c-4.9,8.08-12.75,9.57-22.58,3.95-13.38-7.64-26.52-15.72-40-23.17-8.02-4.43-11.25-10.78-10.96-19.72.32-9.96.07-19.94.07-29.91,0-10.62-.09-21.24.03-31.85.14-11.73,5.77-18.22,15.37-18.04,9.22.17,14.64,6.44,14.75,17.69.15,16.72.25,33.46-.09,50.18-.11,5.45,1.41,8.75,6.37,11.42,10.17,5.47,20.06,11.49,29.92,17.53,9.15,5.6,11.81,14.2,7.12,21.92Z"/>
  <path class="cls-4" d="M882.23,543.08c6.65,9.65-.72,22.71-12.24,22.87-9.81.14-26.68-17.34-26.12-27.12.34-5.97,3.44-10.29,8.66-12.9,4.98-2.49,10.35-2.35,14.49,1.28,5.51,4.81,11.1,9.9,15.21,15.87Z"/>
  <path class="cls-4" d="M845.55,362.16c-2.82-5.68-2.55-11.34,1.63-16.15,4.18-4.82,8.71-9.39,13.47-13.64,4.42-3.93,9.71-4.64,15.18-1.98,5.32,2.59,8.35,6.81,8.69,12.79.56,9.63-16.34,27.48-25.89,27.38-5.79-.58-10.42-3.05-13.08-8.4Z"/>
  <path class="cls-4" d="M926.86,448.24c-.41,8.1-6.29,13.75-15.08,14.33-2.55.17-5.12.03-7.68.03v-.06c-2.88,0-5.78.23-8.64-.04-8.61-.84-13.43-5.91-13.85-14.35-.42-8.52,4.15-14.28,12.52-15.56,6.25-.96,12.81-.8,19.14-.18,8.38.81,13.99,7.85,13.59,15.83Z"/>
  <path class="cls-2" d="M563.03,449.03c-3.16-3.96-6.32-7.91-9.48-11.87,1.84-2.59.05-5.59.42-6.37-.19.77,1.27,3.72-.48,6.29-4.34-12.23-.11-24.18,2.48-35.67,17.52-77.58,63-132.12,137.38-160.95,32.19-12.47,66.13-16.46,100.7-11.95,1.88.24,3.68,1,5.52,1.52-.56,1.26-2.03.68-2.86,1.41,2.04-.63,4.38.49,6.26-1.06,24.98,3.1,48.12,11.73,69.79,24.17,49.82,28.6,83.83,70.38,101.62,124.98,47.26,145.04-63.36,292.99-215.36,288.16-12.86-.41-25.72-1.53-38.1-5.57,1.48-1.72,3.03-1.9,3.96-.98-8.53-.25-16.91-5.19-26.35-5.27-16.79-1.5-22.88-12.73-25.01-27.54-.22-1.52-1.2-3.21.28-4.51,1.83-1.6,3.58-.34,5.23.56,22.04,11.94,45.93,17.82,70.49,21.5-1.15,1.49-2.83,1.43-4.38,1.24-1.76-.21-3.85,1.02-4.99-.61,3.71,2.29,8.58-.72,12.59,1.62,9.06,2.37,18.22.26,27.31.91,1.29-.48-.37-1.98.13-.79-8.78,1.89-17.64.55-26.48.64-1.19-.6-1.52-1.51-1-2.73,15.46,0,30.91.24,46.27-2.33,35.35-5.91,66.66-20.53,93.95-43.6,88.57-74.86,95.4-210.07,13.77-292.44-54.76-55.25-121.56-72.83-195.52-49.94-73.71,22.81-118.04,75.3-134.85,150.7-3.38,15.18-4.19,30.6-3.73,46.11.11,3.58-.13,3.59-3.41,1.87,1.52-13.32-.94-26.86,2.77-39.25-2.89,8.34-2.33,17.71-2.07,27.02.16,5.77-3.22,5.16-6.88,4.73Z"/>
  <path class="cls-2" d="M282.29,303.64c3.3-2.7,7.33-2.24,11.09-2.25,61.56-.09,123.13-.16,184.69,0,15.42.04,26.24,9.4,28.51,23.58,1.98,12.41-5.89,25.36-18.26,29.62-2.68.93-5.65,1.46-8.48,1.47-62.85.07-125.71.05-188.56,0-1.58,0-3.17-.46-4.75-.71,1.1-3.8,4.27-2.14,6.46-2.14,61.25-.1,122.49-.09,183.74-.04,1.46,0,3.38-1.03,3.77-.1-.89-1.06-3.19.06-5.06.05-59.96-.07-119.91-.07-179.87-.04-3.83,0-7.77-.64-11.36,1.41-11.96-3.83-18.86-12.48-19.35-24.28-.53-12.61,5.49-21.78,17.46-26.61,3.23,2.24,6.89,1.09,10.31,1.09,59.9.08,119.8.05,179.69.09,3.36,0,6.76-.57,8.26-.09-61.42,0-124.68.02-187.93-.05-3.45,0-7.09,1.04-10.37-1.02Z"/>
  <path class="cls-2" d="M284.22,354.5c1.97-2.99,5.06-2.35,7.88-2.35,62.84-.02,125.68-.01,188.52,0,.91,0,1.83.29,2.78,1.89h-9.62c-58.97,0-117.94-.02-176.92.05-3.45,0-7.12-1.03-10.33,1.25-.77-.29-1.54-.57-2.32-.86Z"/>
  <path class="cls-2" d="M563.03,449.03c7.38-2.12,6.11-8.18,5.77-13.45-.52-8.06,1.65-15.68,3.65-23.42-3.4,14.66.33,29.73-3.25,44.37-2.06-2.5-4.12-5-6.17-7.5Z"/>
  <path class="cls-2" d="M698.54,655.86c5.52-4.53,10.03.73,14.97,1.61,4,.71,7.94,1.79,12.11,2.75-1.08,2.45-3.27,1.16-4.69,1.9-7.96-.32-15.23-3.08-22.39-6.25Z"/>
  <path class="cls-2" d="M752.71,646.15v2.01s0,0,0,0h-13.05c-.04-.45-.07-.9-.11-1.35,3.33-.31,6.65-.63,9.98-.94,1.06.09,2.12.19,3.19.28Z"/>
  <path class="cls-2" d="M802.98,230.37c-2.13,2.47-4.77,1.97-7.58,1.35.76-2.41,2.9-.98,4.18-1.69,1.14.11,2.27.23,3.4.34Z"/>
  <path d="M496.79,613.58c-.4,9.33-.36,18.7-.01,28.04.19,5.15-.78,7.69-6.75,7.41-8.66-.39-19.21-2.83-25.51,1.11-5.6,3.5-6,14.75-9.59,22.14-18.49,38.03-48.78,58.84-91.2,61.43-5.36.32-10.77.04-18.74.04,30.01,30.51,58.04,59.42,86.63,87.76,5.85,5.8,5.83,8.95-.21,14.08-6.6,5.62-12.61,12.02-18.4,18.5-3.53,3.96-5.59,3.47-9.1-.12-37.86-38.74-75.85-77.35-113.94-115.87-3-3.03-4.14-6.08-4.04-10.22.23-9.67.41-19.36-.05-29.01-.28-5.87,1.37-7.76,7.48-7.66,22.25.37,44.5.31,66.75.1,24.79-.24,42.93-11.98,55.14-33.17,5.02-8.71,4.59-9.23-5.25-9.23-38.37-.02-76.74-.21-115.11.17-7.09.07-9.73-1.35-9.05-8.86.74-8.32.76-16.81-.01-25.12-.7-7.73,2.38-8.88,9.26-8.82,38.38.32,76.75-.06,115.12.32,8.25.09,9.64-1.62,5.51-8.75-12.71-21.9-31.43-33.63-56.85-33.91-21.6-.25-43.21-.26-64.81.07-5.96.09-8.69-.91-8.22-7.72.65-9.31.39-18.7.07-28.04-.16-4.74.71-6.76,6.2-6.74,66.11.2,132.21.18,198.32.03,5.27-.01,6.53,1.88,6.35,6.77-.34,9.34-.45,18.72.03,28.04.31,5.95-1.51,7.83-7.53,7.66-14.44-.41-28.89-.13-45.11-.13,8.44,13.08,14.7,25.88,18.03,39.92.83,3.52,3.97,2.59,6.4,2.61,7.09.08,14.21.35,21.28-.08,5.68-.34,7.14,1.89,6.91,7.25Z"/>
  <path class="cls-1" d="M826.39,481.94c-4.9,8.08-12.75,9.57-22.58,3.95-13.38-7.64-26.52-15.72-40-23.17-8.02-4.43-11.25-10.78-10.96-19.72.32-9.96.07-19.94.07-29.91,0-10.62-.09-21.24.03-31.85.14-11.73,5.77-18.22,15.37-18.04,9.22.17,14.64,6.44,14.75,17.69.15,16.72.25,33.46-.09,50.18-.11,5.45,1.41,8.75,6.37,11.42,10.17,5.47,20.06,11.49,29.92,17.53,9.15,5.6,11.81,14.2,7.12,21.92Z"/>
  <path class="cls-3" d="M782.93,309.65c.18,15.21-4.54,22.53-14.54,22.83-10.19.31-15.48-7.58-15.47-23.1,0-3.21-.32-6.5.27-9.62,1.52-8.16,6.17-13.59,14.97-13.45,8.7.13,13.47,5.36,14.69,13.71.47,3.14.08,6.41.08,9.63Z"/>
  <path class="cls-3" d="M783.01,586.21c.09,15.02-4.95,22.56-14.97,22.56-9.9.01-15.12-7.77-15.12-22.56,0-2.9-.18-5.82.12-8.69.93-8.89,6.88-14.59,14.98-14.59,8.05-.01,14.07,5.77,14.94,14.6.29,2.86.05,5.78.05,8.68Z"/>
  <path class="cls-3" d="M654.59,448.56c-.92,8.49-5.85,13.32-14.48,13.97-2.87.22-5.78.03-8.68.03v-.08c-2.89,0-5.84.35-8.67-.06-8.04-1.17-12.77-5.94-13.23-14.09-.46-8.17,3.71-13.66,11.59-15.49,6.92-1.6,14.14-1.31,21.1-.22,7.92,1.24,13.2,8.29,12.37,15.94Z"/>
  <path class="cls-3" d="M926.86,448.24c-.41,8.1-6.29,13.75-15.08,14.33-2.55.17-5.12.03-7.68.03v-.06c-2.88,0-5.78.23-8.64-.04-8.61-.84-13.43-5.91-13.85-14.35-.42-8.52,4.15-14.28,12.52-15.56,6.25-.96,12.81-.8,19.14-.18,8.38.81,13.99,7.85,13.59,15.83Z"/>
  <path class="cls-1" d="M692.47,539.2c-.24,9.64-16.76,26.55-25.54,26.72-5.89.12-10.6-2.36-13.49-7.6-2.85-5.17-3.23-10.81.51-15.41,4.62-5.68,9.81-11.02,15.38-15.76,4.52-3.84,10.18-3.71,15.35-.68,5.07,2.98,7.51,7.68,7.79,12.73Z"/>
  <path class="cls-1" d="M692.38,355.69c-.31,5.85-3.16,10.43-8.41,13.13-5.31,2.74-10.81,2.43-15.3-1.49-5.06-4.39-9.91-9.15-14.17-14.3-4-4.85-4.12-10.67-1.12-16.26,2.83-5.26,7.5-7.64,11.5-7.84,11.14.27,27.98,17.68,27.5,26.76Z"/>
  <path class="cls-1" d="M869.99,565.95c-9.81.14-26.68-17.34-26.12-27.12.34-5.97,3.44-10.29,8.66-12.9,4.98-2.49,10.35-2.35,14.49,1.28,5.51,4.81,11.1,9.9,15.21,15.87,6.65,9.65-.72,22.71-12.24,22.87Z"/>
  <path class="cls-1" d="M858.63,370.56c-5.79-.58-10.42-3.05-13.08-8.4-2.82-5.68-2.55-11.34,1.63-16.15,4.18-4.82,8.71-9.39,13.47-13.64,4.42-3.93,9.71-4.64,15.18-1.98,5.32,2.59,8.35,6.81,8.69,12.79.56,9.63-16.34,27.48-25.89,27.38Z"/>
  <path class="cls-2" d="M752.71,648.17h28.46c-9.51.96-19.06,4.22-28.46,0h0Z"/>
  <path class="cls-2" d="M553.49,437.08v-9.17c2.03,3.16,2.75,6.28.06,9.25l-.06-.08Z"/>
  <path class="cls-2" d="M282.29,303.64h203.64c-2.83,3.35-5.68,1.98-8.07,1.99-61.85.1-123.71.1-185.56.03-3.39,0-7.19,1.23-9.97-2.04,0,0-.04.03-.04.03Z"/>
</svg>