<?xml version="1.0" encoding="UTF-8"?>
<svg id="Layer_1" xmlns="http://www.w3.org/2000/svg" version="1.1" viewBox="0 0 56 56">
  <!-- Generator: Adobe Illustrator 29.4.0, SVG Export Plug-In . SVG Version: 2.1.0 Build 49)  -->
  <path d="M32.8,9.7c1.5.2,3.2,0,4.6.3s.8.9.8,1.6,0,1.7,0,2.5.4,2-.6,2.2-1.2-.8-1.8-1.2-.1,0-.2,0l-9.3,8.6v.3c0,1.2.7,2.8.8,4,0,.5-.2.9-.5,1.2l-10.5,8.1c-1.9,1.1-3.7-1.2-2.3-2.8l9-7.1-.8-4.1c0-.7.3-1.3.9-1.8l10.2-9.2c0,0,0-.1,0-.2-.1-.2-.8-.7-1-1.1-.3-.6,0-1.3.7-1.4Z"/>
  <path d="M7.4,48.6h42.1c.5,0,.8,1.3-.2,1.4H6.4s-.4-.4-.4-.4V6.7c0-1,1.3-.6,1.3-.2v42.1Z"/>
  <path d="M46.7,15.2c1.9-.3,2.9,1.9,1.6,3.2l-8.8,7v.3c.1,1.7,1.4,4,.2,5.4l-10.4,9.4c-.1.3.7.8.8,1.1.5.7.2,1.5-.7,1.6-1.5-.3-3.1-.1-4.6-.3s-.7-.5-.7-.9c0-1.5-.2-3.1,0-4.6s1.1-1.1,1.7-.5.7,1,.9.8l9.3-8.6v-.3c.1,0-.8-4.2-.8-4.2,0-.5.3-.9.6-1.2,3.1-2.8,7.1-5.1,10.2-7.9.2-.1.6-.3.8-.4ZM27.6,40l11-9.9c.2-.2.2-.4.2-.6,0-1.2-.8-2.8-.9-4.1s0-.5,0-.7l9.2-7.3c.6-.5,0-1.2-.5-.8l-10.1,7.8c-.1.1,0,.3,0,.4.1,1.3.8,2.9.9,4.2l-.2.5-10.5,9.7c-.6.3-1-.4-1.4-.7v2.8c.1,0,2.8.2,2.8.2,0-.1-.6-.7-.7-.9s0-.5.2-.8Z"/>
</svg>