<?xml version="1.0" encoding="UTF-8"?>
<svg width="512" height="512" id="Layer_1" xmlns="http://www.w3.org/2000/svg" viewBox="0 0 1080 1080">
  <defs>
    <style>
      .cls-1 {
        fill: #010101;
      }

      .cls-2 {
        fill: #c3c3c3;
      }

      .cls-3 {
        fill: #042b62;
      }

      .cls-4 {
        fill: #bababa;
      }

      .cls-5 {
        fill: #020202;
      }

      .cls-6 {
        fill: #bfbfbf;
      }

      .cls-7 {
        fill: #c4c4c4;
      }

      .cls-8 {
        fill: #c8c8c8;
      }

      .cls-9 {
        fill: #cbcbcb;
      }

      .cls-10 {
        fill: #c5c5c5;
      }

      .cls-11 {
        fill: #cfcfcf;
      }

      .cls-12 {
        fill: #c6c6c6;
      }

      .cls-13 {
        fill: #fefefe;
      }

      .cls-14 {
        fill: #bebebe;
      }
    </style>
  </defs>
  <path d="M644.68,450.35c-33.39-30.05-48.41-65.16-47.85-107.25.09-7.07,2.01-8.85,8.83-8.7,19.63.43,39.28.04,58.92.17,66.75.46,117.08,41.38,131.21,106.56,3.78.78,4.49-2.79,6.19-4.65,25.96-28.39,57.92-43.53,96.58-43.81,21.39-.15,42.79.17,64.18-.17,5.92-.09,7.53,1.53,7.68,7.57,2.01,77.32-54.61,136.41-132.04,137.4-11.22.14-22.45.17-33.67-.05-4.67-.09-6.62.96-6.87,6.33-1.05,22.52-1.28,22.51,20.92,25.76,92.79,13.63,167.83,93.03,178.84,189.24,12.71,111.13-60.64,214.07-169.32,236.96-49.81,10.49-97.6,3.88-142.79-19.74-6.1-3.19-12.07-4.66-18.96-4.66-182.03.13-364.05.02-546.08.34-9.72.02-11.85-2.55-11.83-11.99.3-165.88.31-331.76-.01-497.63-.02-9.67,2.45-11.94,12-11.93,170.1.31,340.2.22,510.3.22h13.77Z"/>
  <path d="M407.11,202.9c-13.36-16.15-26.41-31.94-39.82-48.16-13.49,16.3-26.4,31.91-41.01,49.58,7.39,0,13.05.44,18.6-.11,6.59-.66,8.25,1.74,8.2,8.2-.3,38.57-.15,77.14-.15,115.71,0,28.05-.23,56.11.16,84.15.1,7.09-1.47,9.67-9.11,9.56-19.83-.29-19.83.11-19.83-19.66,0-52.95-.22-105.9.22-158.84.07-8.53-2.4-10.54-10.47-10.22-15.57.63-31.19.18-48.95.18,34.8-42.1,68.19-82.48,102.32-123.77,33.97,41.05,67.55,81.63,102.42,123.77-17.82,0-33.78.41-49.7-.18-7.66-.29-10.03,1.5-9.97,9.67.41,56.1,0,112.21.43,168.31.07,8.89-2.42,11.1-11.07,10.76-17.59-.7-17.62-.18-17.62-17.84,0-62.42.24-124.83-.25-187.24-.08-9.97,2.04-14.16,12.49-12.62,3.85.56,8.19,1.25,13.1-1.24Z"/>
  <path d="M107.01,320.08c31.72-38.37,61.78-74.75,91.87-111.1,10.43-12.6,10.52-12.61,20.97.02,30.1,36.37,60.15,72.78,91.81,111.08-17.43,0-32.93.48-48.38-.19-8.44-.36-11.36,1.7-11.15,10.72.63,27.32-.06,54.67.41,81.99.13,7.55-2.2,9.31-9.39,9.2-19.45-.29-19.46.05-19.46-19.15,0-33.64.24-67.28-.18-100.92-.1-7.85,1.37-11.64,10.05-10.37,4.74.7,9.67.12,17.06.12-14.41-17.44-27.58-33.38-41.27-49.95-13.62,16.47-26.67,32.26-41.3,49.95,7.05,0,12.16.58,17.07-.13,8.75-1.27,10.16,2.64,10.08,10.46-.39,36.44-.39,72.89,0,109.33.08,7.86-1.4,10.99-10.16,10.71-18.92-.61-18.94-.09-18.94-19.45,0-24.18-.31-48.36.18-72.53.15-7.6-1.38-10.4-9.65-10.01-15.68.75-31.43.22-49.63.22Z"/>
  <path d="M422.94,320.08c27.09-32.78,52.68-63.74,78.28-94.7,6.48-7.83,13.16-15.51,19.36-23.55,3.26-4.23,5.09-5.26,9.1-.36,31.92,39.02,64.14,77.79,97.89,118.61-17.23,0-32.7.65-48.09-.24-9.41-.54-11.72,2.2-11.48,11.48.69,26.98.01,53.98.4,80.97.1,7.07-1.42,9.66-9.09,9.53-19.69-.34-19.69.06-19.69-19.94,0-33.65.31-67.31-.22-100.96-.13-8.1,2.2-10.5,9.88-9.55,4.8.59,9.74.11,16.94.11-7.88-9.71-14.66-18.25-21.66-26.6-6.26-7.47-12.41-20.12-19.29-20.59-7.3-.5-12.68,13.05-19.04,20.33-7.11,8.14-13.81,16.64-22.23,26.86,8.21,0,14.6.21,20.97-.07,4.41-.19,6.07,1.09,6.05,5.83-.18,39.26-.18,78.53,0,117.79.02,5-1.52,6.46-6.54,6.72-22.45,1.18-22.44,1.36-22.44-21.2,0-23.49-.44-46.99.23-70.46.25-8.68-2.63-10.51-10.61-10.2-15.39.6-30.82.17-48.7.17Z"/>
  <path class="cls-13" d="M593.22,884.75c-4.25,0-7.01,0-9.77,0-125.85,0-251.7-.09-377.55.2-8.54.02-11.09-1.87-11.06-10.76.32-109.01.29-218.03.02-327.04-.02-7.67,1.53-9.85,9.58-9.84,165.81.27,331.63.28,497.45-.01,8.59-.02,9.15,2.89,10.24,10.41,3.22,22.16-4.62,33.13-25.73,43.59-103.99,51.5-146.21,176.12-98.13,282.52,1.42,3.14,2.84,6.29,4.95,10.94Z"/>
  <path class="cls-13" d="M784.05,913.47c-71.39.09-129.37-58.01-129.54-129.81-.17-71.74,57.72-130.14,129.09-130.21,71.52-.07,129.3,57.86,129.42,129.76.12,71.89-57.59,130.18-128.97,130.27Z"/>
  <path class="cls-4" d="M165.97,912.7c4.54.2,9.07.58,13.61.58,140.45.03,280.9,0,421.36.11,3.62,0,7.68-1.68,10.94,1.49-3.31,1.77-6.89.93-10.33.93-140.23.05-280.46.04-420.68.03-3.12,0-6.23.23-7.05.07,1.53-.06,5.37,0,9.2,0,138.83,0,277.65,0,416.48-.05,4.14,0,8.41.99,12.42-.95,5.32,5.56,11.26,10.64,14.28,18.02,2.29,4.66-.05,6.52-4.36,6.96-3.49.36-7.01.18-10.52.18-152.22,0-304.45.02-456.67-.06-4.79,0-9.86,1.29-14.34-1.73-1.34-3.02-.75-6.22-.75-9.34-.03-145.41-.03-290.81,0-436.22,0-3.12-.53-6.32.68-9.36,2.61-1.52,5.48-.92,8.24-.92,204.7-.02,409.41-.04,614.11,0,.7,0,1.4.07,2.09.11,3.62,3.05,1.83,7.19,1.86,10.77.19,22.33.1,44.67.13,67,.03-22.75.16-45.5-.11-68.25-.04-3.25,2.63-7.94-2.98-9.72-204.28,0-408.54.01-612.8-.05-4.12,0-8.4,1.06-12.39-.97,2.5-3.86,6.36-1.9,9.51-1.9,203.94-.11,407.89-.05,611.83-.28,7.78,0,10.16,1.71,9.94,9.75-.6,21.71-.21,43.44-.21,65.17q0,13.66-14.31,13.69-11.57-.8-11.59-12.88c0-14.06-.02-28.11-.03-42.16-.61,18.99,1.24,37.98-1.05,56.95-4.1-9.6-1.02-19.66-1.87-29.47-.9-10.35,4.44-24.2-2.25-30.11-5.79-5.12-19.31-1.72-29.42-1.72-176.73-.04-353.47-.03-530.2-.01-4.2,0-8.4.27-12.6.41-2.47,2.71-1.34,6.03-1.35,9.05-.06,128.58-.06,257.16,0,385.74,0,3.06-.97,6.34,1.2,9.15Z"/>
  <path class="cls-3" d="M734.53,450.31c-26.63,1.76-53.68-5.4-75.81-26.44-15.16-14.42-26.09-31.51-30.44-52.43-1.15-5.51-1.25-8.33,5.79-7.95,17.44.93,35.01-1.4,52.37,1.85,39.66,7.43,71.18,37.91,80.43,76.84,1.68,7.05-.59,8.59-7.03,8.23-7.33-.41-14.7-.09-25.31-.09Z"/>
  <path class="cls-3" d="M801.61,498.24c3.02-15.45,9.95-28.9,20.63-40.44,3.17-.93,5.51-2.65,5.82-6.25,13.43-14.18,29.43-23.75,48.87-27.13,3.3-2.19,7.44.39,10.73-1.86,2.11-.05,4.21-.11,6.32-.16,14.76,1.76,29.52,1.98,44.27-.12.62.68,1.87,1.45,1.78,2.02-5.43,35.33-35.45,73.16-75.09,80.31-17.62,2.52-35.36,1.77-53.07,2.08-6.37.11-9.79-2.05-10.26-8.45Z"/>
  <path class="cls-3" d="M969.75,802c-5.49,36.46-16.29,68.2-38.74,95.83-6.39,7.87-8.36,5.79-12.92.47-1.13-1.33-2.35-2.63-3.71-3.71-7.57-6-9.45-10.65-1.96-19.9,15.65-19.34,24.06-42.66,27.21-67.31,1.09-8.56,4.3-10.66,11.86-9.82,3.81.42,7.7.2,11.55.04,4.66-.2,7.92.7,6.71,4.41Z"/>
  <path class="cls-3" d="M765.52,969.82c-37.17-2.56-69.45-17.13-98.49-39.85-3.75-2.93-3.57-4.59-.49-8.04,14.54-16.29,14.49-16.51,32.36-4.57,19.86,13.26,42.14,19.92,65.22,24.52,5.35,9.07,5.05,18.42,1.41,27.94Z"/>
  <path class="cls-3" d="M766.31,624.79c-26.53,4.36-51.27,13.1-73.71,28.38-3.33,2.27-6.24,9.18-10.44,6.3-6.79-4.65-12.27-11.32-17.89-17.5-2.05-2.25,1.08-3.58,2.51-4.73,28.96-23.16,61.55-37.44,98.82-40.22,2.92,8.71,4.28,17.35-.79,25.85-.68,1.14,1.43.92,1.5,1.93Z"/>
  <path class="cls-3" d="M820.24,599.56c29.8,5.1,55.72,18.55,79.57,36.64,4.48,3.4,4.57,5.44.63,9.57-14.27,14.94-14.16,15.19-31.61,3.7-17.46-11.49-36.82-18.19-56.93-23.09-11.14-4.2-14.09-10.2-11.57-22.35.85-4.11,3.47-4.44,6.7-4.8,4.44-.48,8.77,2.31,13.21.32Z"/>
  <path class="cls-3" d="M814.67,941.93c1.45-2.78,4.05-3.36,6.86-4.07,21.26-5.38,40.79-14.51,57.95-28.2,4.28-3.42,6.52-2.88,10.23.73,17,16.51,17.18,16.46-3.1,29.77-20.33,13.34-42.09,23.31-66.35,27.06-.96-.36-1.87-.83-2.97-.74-17.46,1.52-17.06,1.51-17.07-15.42,0-11.67,8.55-7.85,14.44-9.13Z"/>
  <path class="cls-3" d="M942.3,767.89c-2.59-10.4-4.93-20.87-7.82-31.19-5.05-18.08-13.4-34.65-25.19-49.2-3.92-4.84-3.23-7.11.79-11.09,16.38-16.18,16.36-16.38,29.08,3.09,7.26,11.12,14.02,22.57,17.78,35.48-2.85,8.59,5.14,14.66,5.3,22.58.03,1.35.84,2.26.47.91-.17-.59.43-1.09,1.22-1.34,2.32,4.99,3.24,10.29,3.46,15.75-.99,1.56-1.06,3.33-.65,4.99,1.96,7.93-2.35,9.57-9.03,9.74-5.13.13-10.31-1.34-15.4.28Z"/>
  <path class="cls-3" d="M626.88,804.94c5.15,28.69,15.68,55.08,33.58,78.31-3.39,5.36-8.9,8.8-12.63,13.77-3.42,4.55-6.87,3.41-10.77,1.39-22.47-28.56-36.37-60.42-37.59-97.2,12.75-4.51,18.55-3.04,26.16,6.6.58-.88-.03-2.28,1.24-2.86Z"/>
  <path class="cls-3" d="M630.76,676.99c1.4-3.42,2.69-6.91,6.3-8.74,1.53.2,3.09.15,4.57.68,5.61,3.64,11.24,7.59,10.4,15.28-.51,4.68,4.18.73,4.46,3.35-13.42,20.55-24.07,42.34-29.2,66.51-.63,2.98-.38,6.15-.54,9.24-1.38,2.59-2.11,5.7-6.28,5.28-7.02-.71-14.18,1.13-21.13-1.06-1.37-2.84-.74-5.65.13-8.45,2.25-3.4-.2-7.57,1.82-11.01,2.31-18.91,9.04-36.39,18.35-52.76,2.27-4,2.22-9.42,6.76-12.11,3.95-.32,6.29-1.77,4.37-6.21Z"/>
  <path class="cls-7" d="M140.57,937.98c158.54,0,317.08.02,475.61-.03,3.99,0,9.44,2.17,10.02-5,4.53.82,6.19,4.85,9.15,7.65-2.8,3.21-6.15,1.67-9,1.67-159.29.09-318.59.11-477.88-.1-3.42,0-9.52,3.6-10.21-4.19.77-1.14,1.54-1.15,2.31,0Z"/>
  <path class="cls-10" d="M138.38,481.34c209.09.03,418.19.06,627.28.09.54.49.7.96.49,1.41-.21.44-.41.66-.6.66-208.33-.01-416.65-.02-624.98-.03-.78,1.14-1.55,1.13-2.32,0,.04-.71.08-1.42.13-2.12Z"/>
  <path class="cls-14" d="M138.25,483.46c.77,0,1.54,0,2.32,0,0,151.5,0,303.01,0,454.51-.77,0-1.54,0-2.31,0-.19-2.78-.54-5.56-.54-8.34-.03-145.95-.03-291.89,0-437.84,0-2.78.35-5.56.54-8.34Z"/>
  <path class="cls-2" d="M165.97,912.7c-3.7-2.98-2.2-7.14-2.2-10.79-.08-127.48-.08-254.97,0-382.45,0-3.62-1.58-7.83,2.35-10.69-.05,134.64-.1,269.29-.15,403.93Z"/>
  <path class="cls-3" d="M801.61,498.24c2.22,4.97,5.81,6.54,11.42,6.41,17.29-.41,34.6-.08,51.91-.04-20.36,6.47-41.33,3.28-62.01,3.22-7.21-.02-1.09-6.24-1.32-9.59Z"/>
  <path class="cls-12" d="M742.46,569.67v-58.41c.7-.01,1.4-.02,2.11-.03,0,13.21.5,26.44-.18,39.62-.45,8.74.75,15.32,10.74,16.93-4.06,1.72-8.32,2.1-12.67,1.9Z"/>
  <path class="cls-3" d="M942.3,767.89c1-1.27-1.94-5.56,2.94-3.84.62.22,1.12.87,1.74,1,12.65,2.66,16.34.45,20.41-12.17,3.44,16.26,3.43,16.38-12.96,16.18-4.03-.05-8.31,1.41-12.12-1.17Z"/>
  <path class="cls-3" d="M626.88,804.94c-.14,2.77-.29,5.54-.43,8.31-2.3-19.24-17.16-10.04-26.98-12.05,7.26-6.67,23.76-4.42,27.41,3.74Z"/>
  <path class="cls-3" d="M820.24,599.56c-1.6,1.72-3.74,2.04-5.8,1.68-10.66-1.82-14.63,2.43-13.21,13.13.61,4.62.65,8.36,6.68,8.08,2.5-.12,3.68,1.59,4,3.94-9.77,1.51-15.63-1.38-13.43-12.5,1.11-5.62-3.28-12.18,2.89-16.9,4.21,2.63,9.17.03,13.48,1.95,1.8.21,3.6.42,5.4.63Z"/>
  <path class="cls-3" d="M814.67,941.93c-3.43,4.36-12.65-1.28-13.4,8.38-1.01,13.06-.35,14.29,13.26,15.02,2.11.11,4.2.08,5.73,1.89-1.21.14-2.41.28-3.62.42-4.81,2.43-10.5-1.14-15.17,2.24-6.78-8.19-3.22-17.8-1.86-26.19.56-3.48,9.37-5.2,15.05-1.77Z"/>
  <path class="cls-3" d="M765.52,969.82c.03-5.6.17-11.2.04-16.8-.08-3.59,1.34-8.18-4.66-8.76-.77-.07-2.4-.57-.86-1.63,1.04-.71,2.69-.53,4.07-.76,1.34.18,3.28-.13,3.91.63,2.51,3.03,1.87,24.26-.64,27.69-.16.21-1.22-.24-1.87-.38Z"/>
  <path class="cls-3" d="M766.31,624.79c-2.06-.23-4.13-.46-6.6-.73,11.4-7.14,3.61-18.11,5.89-27.04.34-.04.86-.23.99-.08,4.26,4.77,4.06,22.31-.28,27.86Z"/>
  <path class="cls-3" d="M656.49,687.57c-2.47-.46-6.78,3.03-6.62-3.07.2-7.44-4.82-10.86-10.53-13.76-.58-3.14.84-4.87,3.9-4.35,4.33.74,14.55,14.01,15.04,19.05l-1.79,2.14Z"/>
  <path class="cls-3" d="M637.07,898.4c7.01,2.16,10.18-3.33,14.26-7.09,2.98-2.76,6.09-5.38,9.14-8.06-1.56,10.41-11.08,14.4-17.49,20.67-2.05,2-4.38-3-5.91-5.51Z"/>
  <path class="cls-3" d="M658.28,685.44c-1.94-8.1-9.28-11.75-14.43-17.13-1.98-2.07-3.49.62-4.5,2.43-.76-.83-1.52-1.66-2.28-2.49,2.94-6.39,6.26-7.17,10.95-1.31,3.19,3.99,7.12,7.38,10.77,11,2.75,2.73,4.8,5.34-.5,7.49Z"/>
  <path class="cls-3" d="M938.24,422.28c-14.75,3.69-29.5,3.52-44.27.12,14.75-1.04,29.51-.86,44.27-.12Z"/>
  <path class="cls-3" d="M963.92,737.13c-.61,1.04-1.23,2.07-1.84,3.11-1.92-8.38-9.34-15.63-5.15-25.25.72,7.89,6.87,14.07,6.99,22.15Z"/>
  <path class="cls-3" d="M599.34,767.54c9.11-1.6,19.31,3.92,27.41-4.22.21,2.51.42,5.72-2.91,5.58-8.17-.33-16.53,2.25-24.5-1.37Z"/>
  <path class="cls-3" d="M630.76,676.99c3.53,1.84,5.86,4.51,2.98,8.22-3.47,4.47-4.9-1.18-7.34-2.01,1.46-2.07,2.91-4.14,4.37-6.21Z"/>
  <path class="cls-3" d="M828.06,451.56c1.44,5.23-1.06,6.79-5.82,6.25,1.32-2.66,3.2-4.8,5.82-6.25Z"/>
  <path class="cls-3" d="M801.48,969.89c4.48-4.6,10.07-1.75,15.16-2.24-4.79,2.56-10,2.2-15.16,2.24Z"/>
  <path class="cls-3" d="M814.84,598.93c-4.55-.28-9.47,2.06-13.48-1.95,4.6-.07,9.25-.5,13.48,1.95Z"/>
  <path class="cls-3" d="M887.66,422.57c-3.12,3.25-7.08,1.67-10.73,1.86,3.3-2.22,7.02-2.02,10.73-1.86Z"/>
  <path class="cls-3" d="M601.28,748.08c-.28,3.72,1.56,7.8-1.82,11.01-.15-3.79-.18-7.57,1.82-11.01Z"/>
  <path d="M381.35,566.14c49.46,0,98.91.17,148.37-.18,7.63-.05,10.23,1.45,10.11,9.66-.51,32.26-.4,64.53-.06,96.79.08,7.03-1.39,9.56-9.08,9.54-99.61-.27-199.22-.23-298.84-.05-6.21.01-8.41-1.18-8.33-7.99.39-33.31.37-66.64.02-99.95-.07-6.73,2.09-8.01,8.39-7.97,49.8.27,99.61.15,149.42.15Z"/>
  <path d="M381.55,797.54c-49.43,0-98.86-.19-148.28.2-7.82.06-10.04-1.74-9.79-9.74.6-19.01.13-19.03,19.27-19.03,95.35,0,190.7.11,286.06-.19,8.53-.03,11.37,1.94,11.03,10.83-.69,17.91-.17,17.93-18.41,17.93-46.62,0-93.25,0-139.87,0Z"/>
  <path class="cls-1" d="M424.14,739.92c-34.69,0-69.39-.23-104.08.18-7.98.09-10.88-1.53-10.54-10.24.72-18.89.18-18.91,19.54-18.91,66.93,0,133.87.13,200.8-.18,7.69-.04,10.22,1.55,9.98,9.71-.57,19.43-.11,19.45-20.03,19.45-31.89,0-63.78,0-95.67,0Z"/>
  <path class="cls-1" d="M453.49,855.64c-25.91,0-51.82-.26-77.73.17-7.09.12-8.69-2.05-8.61-8.86.23-20.31-.09-20.31,20.08-20.31,47.62,0,95.24.21,142.85-.2,8.05-.07,9.95,2.16,9.74,9.94-.51,19.26-.11,19.27-19.11,19.27-22.41,0-44.82,0-67.22,0Z"/>
  <path class="cls-1" d="M280.14,855.64c-16.45,0-32.9-.18-49.34.1-5.33.09-7.12-1.3-7.28-6.97-.63-22.14-.86-22.13,21.39-22.13,28.34,0,56.69.21,85.03-.15,6.74-.09,8.86,1.55,8.79,8.59-.21,20.56.13,20.56-20.8,20.56-12.6,0-25.2,0-37.79,0Z"/>
  <path class="cls-5" d="M252.29,739.92c-2.45,0-4.89,0-7.34,0-23.16,0-23.01.01-21.41-23.1.31-4.52,1.59-6.03,6.1-5.97,15.37.21,30.75.15,46.12.03,3.85-.03,5.81,1.01,5.61,5.31-.27,5.93-.34,11.89,0,17.81.28,4.69-1.55,6.13-6.03,5.99-7.68-.25-15.37-.07-23.06-.07Z"/>
  <path d="M780.54,797.83c-7.35-.08-14.76.43-21.98-1.43-18.77-4.84-32.19-22.37-32.19-41.88,0-19.61,12.9-37.44,32.2-41.53,9.62-2.04,12.61-5.95,11.03-15-.53-3.06.16-6.32-.14-9.45-.48-5.02,1.42-7.27,6.53-6.5.34.05.7.02,1.05,0,21-.62,21.33-.62,21.05,20.27-.09,6.7,2.07,8.55,8.4,9.84,18.71,3.82,29.68,16.06,34.16,34.39,1.31,5.37.63,8.87-6.33,8.16-4.86-.49-9.82-.33-14.71-.03-4.35.27-7.64-.35-8.2-5.5-.07-.64-.6-1.25-.96-1.84-6.38-10.24-45.19-11-52.02-1.02-6.61,9.66-.41,21.84,11.98,22.65,9.08.6,18.23-.03,27.34.2,23.4.59,41.38,16.86,43.33,39.02,1.98,22.46-12.39,42.54-35.02,46.6-7.38,1.32-7.91,4.13-7.88,10.06.11,22.43-.23,22.44-23.44,20.17-4.29-.42-5.52-1.96-5.22-5.76.08-1.05-.14-2.13.03-3.15,2.19-13.04-.46-20.72-15.96-24.18-15.16-3.39-23.68-16.57-26.33-32.38-.33-1.98-1.51-4.1.02-6.04,2.68-3.4,26.73-.97,28.46,3.1,3.18,7.47,8.71,10.45,16.59,10.26,8.06-.2,16.13.09,24.19-.08,9.07-.2,14.56-4.88,15.29-13.99.67-8.3-5.87-14.45-15.47-14.92-5.25-.26-10.52-.05-15.78-.03Z"/>
  <path class="cls-9" d="M737.56,506.2H168.65c0-.33,0-.65,0-.98h569.31c-.13.33-.27.65-.4.98Z"/>
  <path class="cls-8" d="M611.92,914.93c-2.79,3.17-6.53,1.97-9.89,1.97-142.03.06-284.06.05-426.09,0-2.59,0-5.44.99-9.09-2h445.03l.04.03Z"/>
  <path class="cls-11" d="M765.55,483.5c.03-.69.06-1.39.11-2.08,2.63,2.1,1.88,5.08,1.88,7.78.04,23.4.04,46.8-.01,70.2,0,1.61.6,3.53-1.98,5.2v-81.1Z"/>
  <path class="cls-6" d="M254.04,652.03c-3.81-17.55-.77-35.31-1.52-52.96-.24-5.69,4.92-3.78,7.97-3.8,23.14-.14,46.28-.07,69.42-.07,56.8,0,113.61.21,170.41-.22,8.95-.07,11.21,2.55,10.75,11.09-.72,13.28-.29,26.64-.13,39.96.05,4.37-.3,7.25-5.98,7.24-83.1-.16-166.2-.15-249.3-.23-.58,0-1.15-.7-1.73-1.07,4.73-4.21,10.56-3.09,16.04-3.09,73.8-.07,147.6-.02,221.4-.12,4,0,8.43,1.64,11.91-1.83.47-15,.61-29.95-.26-44.83-2.83-3.16-6.57-1.99-9.92-1.99-74.14-.05-148.28-.06-222.42-.03-12.65,0-13.44.9-13.5,13.9-.04,8.74.03,17.48-.03,26.23-.03,4.2.11,8.46-3.11,11.83Z"/>
  <path class="cls-4" d="M506.73,599.23c0,16.81,0,33.62,0,50.44-3.27,1.92-6.86,1-10.28,1.01-76.69.06-153.39.05-230.08.04-11.06,0-11.07-.03-11.08-11.56,0-11.21.2-22.42-.09-33.61-.14-5.23,1.18-7.48,6.97-7.47,80.55.19,161.09.02,241.64.14,1.14,0,1.98.6,2.93,1.01Z"/>
  <path class="cls-10" d="M506.73,599.23c-79.83-.01-159.67.11-239.5-.22-8.84-.04-11.71,2.59-11.07,11.27.69,9.4.68,18.93,0,28.34-.63,8.68,2.24,11.32,11.08,11.27,67.93-.35,135.86-.19,203.78-.19,11.9,0,23.81-.02,35.71-.03-2.41,4.26-6.42,1.93-9.54,1.94-81.09.23-162.17.28-243.26.36,0,0,.1.07.1.07.07-15.39.32-30.78.12-46.16-.08-5.91,1.16-8.88,8.02-8.87,80.45.18,160.9.11,241.35.12,1.01,0,2.04.13,2.99.43.22.07.15,1.09.21,1.68Z"/>
</svg>