<?xml version="1.0" encoding="UTF-8"?>
<svg xmlns="http://www.w3.org/2000/svg" viewBox="0 0 544 282">
  <defs>
    <style>
      .cls-1, .cls-2, .cls-3, .cls-4, .cls-5, .cls-6, .cls-7, .cls-8, .cls-9, .cls-10, .cls-11 {
        mix-blend-mode: overlay;
      }

      .cls-1, .cls-2, .cls-3, .cls-4, .cls-10 {
        fill: #232020;
      }

      .cls-1, .cls-11 {
        opacity: .3;
      }

      .cls-3, .cls-12 {
        opacity: .4;
      }

      .cls-13 {
        fill: #042b62;
      }

      .cls-4, .cls-14 {
        opacity: .5;
      }

      .cls-15 {
        stroke: #231f20;
        stroke-miterlimit: 10;
      }

      .cls-15, .cls-16 {
        fill: #fff;
      }

      .cls-17, .cls-5, .cls-6 {
        fill: #232020;
      }

      .cls-5 {
        opacity: .6;
      }

      .cls-6, .cls-7, .cls-10 {
        opacity: .2;
      }

      .cls-18 {
        isolation: isolate;
      }

      .cls-19 {
        fill: #3e65b5;
      }

      .cls-20 {
        fill: #233b87;
      }

      .cls-8 {
        fill: #b5cee5;
      }

      .cls-9 {
        opacity: .7;
      }

      .cls-21 {
        fill: #0b4d9b;
      }

      .cls-22 {
        fill: #bad9f2;
        fill-rule: evenodd;
      }

      .cls-23 {
        fill: #c2c0e3;
      }

      .cls-24 {
        fill: #4c8ad1;
      }

      .cls-25 {
        fill: #4c8bd2;
      }
    </style>
  </defs>
  <g class="cls-18">
    <g id="Layer_1" data-name="Layer 1">
      <g class="cls-12">
        <path class="cls-22" d="M470.91,28.43c-3.63-26.1-67.64-9.64-88.53-5.95-22.24,4.52-46.02,8.55-69.17,10.12-38.19,3.01-78.24-1.46-115.08-9.67-41.61-8.4-80.91-20.66-116.25,1.28-17.28,10.77-29.56,33.49-12.99,50.21,12.02,12.11,32.47,17.49,48.84,23.79,11.53,4.51,23.54,9.07,29.9,19.76,14.43,26.97-18.44,68.39-5.43,101.99,6.37,18.17,25.58,29.63,44.56,28.65,69.8-5.33,59.44-118.19,142.43-101.82,34.77,6.5,70.72,27.41,105.77,32.1,15.21,2.6,34.91,1.36,43.59-3.93,30.92-18.85-23.22-47.99-36.06-61.77-9.95-9.52-8.04-19.35-1.33-30.51,7.88-14.86,30.42-38.3,29.77-54.15v-.1Z"/>
      </g>
      <g>
        <path class="cls-8" d="M414.36,251.96c.06,6.44-74.21,13.78-139.15,14.55-77.97.93-161.94-7.35-161.88-14.3.06-7.07,87.25-12.86,157.16-12.57,63.25.26,143.8,5.62,143.87,12.32Z"/>
        <g>
          <g>
            <polygon class="cls-24" points="286.76 81.47 281.97 81.47 189.51 81.47 190.9 241.9 281.97 241.9 287.61 241.9 344.97 241.9 346.36 81.47 286.76 81.47"/>
            <polygon class="cls-3" points="286.76 81.47 281.97 81.47 189.51 81.47 190.9 241.9 281.97 241.9 287.61 241.9 344.97 241.9 346.36 81.47 286.76 81.47"/>
            <polygon class="cls-24" points="320.27 250.45 298.91 250.45 172.5 250.45 173.19 231.42 298.91 231.42 308.7 231.42 364.01 231.42 364.7 250.45 320.27 250.45"/>
            <polygon class="cls-4" points="320.27 250.45 298.91 250.45 172.5 250.45 173.19 231.42 298.91 231.42 308.7 231.42 364.01 231.42 364.7 250.45 320.27 250.45"/>
            <g>
              <polygon class="cls-24" points="268.6 22.05 167.73 81.46 284.72 81.46 290.22 81.46 369.47 81.46 268.6 22.05"/>
              <polygon class="cls-24" points="268.6 32.11 189.72 78.57 281.2 78.57 285.5 78.57 347.48 78.57 268.6 32.11"/>
              <polygon class="cls-15" points="268.6 32.11 189.72 78.57 281.2 78.57 285.5 78.57 347.48 78.57 268.6 32.11"/>
              <rect class="cls-24" x="167.73" y="78.57" width="201.74" height="8.01"/>
              <rect class="cls-24" x="172.5" y="86.58" width="192.2" height="4"/>
              <rect class="cls-1" x="172.5" y="86.58" width="192.2" height="4"/>
            </g>
            <g>
              <g>
                <g>
                  <g>
                    <rect class="cls-24" x="184.68" y="90.59" width="12.41" height="140.84"/>
                    <rect class="cls-24" x="182.14" y="90.59" width="17.5" height="7.16"/>
                    <rect class="cls-24" x="182.14" y="224.26" width="17.5" height="7.16"/>
                  </g>
                  <g>
                    <rect class="cls-10" x="186.28" y="97.75" width=".95" height="126.51"/>
                    <rect class="cls-10" x="189.03" y="97.75" width=".95" height="126.51"/>
                    <rect class="cls-10" x="191.79" y="97.75" width=".95" height="126.51"/>
                    <rect class="cls-10" x="194.54" y="97.75" width=".95" height="126.51"/>
                  </g>
                </g>
                <g>
                  <rect class="cls-24" x="180.78" y="90.59" width="20.21" height="3.58"/>
                  <rect class="cls-24" x="180.78" y="227.84" width="20.21" height="3.58"/>
                </g>
              </g>
              <g>
                <g>
                  <g>
                    <rect class="cls-24" x="228.51" y="90.59" width="12.41" height="140.84"/>
                    <rect class="cls-24" x="225.96" y="90.59" width="17.5" height="7.16"/>
                    <rect class="cls-24" x="225.96" y="224.26" width="17.5" height="7.16"/>
                  </g>
                  <g>
                    <rect class="cls-10" x="230.11" y="97.75" width=".95" height="126.51"/>
                    <rect class="cls-10" x="232.86" y="97.75" width=".95" height="126.51"/>
                    <rect class="cls-10" x="235.61" y="97.75" width=".95" height="126.51"/>
                    <rect class="cls-10" x="238.36" y="97.75" width=".95" height="126.51"/>
                  </g>
                </g>
                <g>
                  <rect class="cls-24" x="224.6" y="90.59" width="20.21" height="3.58"/>
                  <rect class="cls-24" x="224.6" y="227.84" width="20.21" height="3.58"/>
                </g>
              </g>
            </g>
            <g>
              <g>
                <g>
                  <g>
                    <rect class="cls-24" x="294.95" y="90.59" width="12.41" height="140.84"/>
                    <rect class="cls-24" x="292.41" y="90.59" width="17.5" height="7.16"/>
                    <rect class="cls-24" x="292.41" y="224.26" width="17.5" height="7.16"/>
                  </g>
                  <g class="cls-7">
                    <rect class="cls-2" x="296.55" y="97.75" width=".95" height="126.51"/>
                    <rect class="cls-2" x="299.31" y="97.75" width=".95" height="126.51"/>
                    <rect class="cls-2" x="302.06" y="97.75" width=".95" height="126.51"/>
                    <rect class="cls-2" x="304.81" y="97.75" width=".95" height="126.51"/>
                  </g>
                </g>
                <g>
                  <rect class="cls-24" x="291.05" y="90.59" width="20.21" height="3.58"/>
                  <rect class="cls-24" x="291.05" y="227.84" width="20.21" height="3.58"/>
                </g>
              </g>
              <g>
                <g>
                  <g>
                    <rect class="cls-24" x="338.78" y="90.59" width="12.41" height="140.84"/>
                    <rect class="cls-24" x="336.23" y="90.59" width="17.5" height="7.16"/>
                    <rect class="cls-24" x="336.23" y="224.26" width="17.5" height="7.16"/>
                  </g>
                  <g class="cls-7">
                    <rect class="cls-2" x="340.38" y="97.75" width=".95" height="126.51"/>
                    <rect class="cls-2" x="343.13" y="97.75" width=".95" height="126.51"/>
                    <rect class="cls-2" x="345.89" y="97.75" width=".95" height="126.51"/>
                    <rect class="cls-2" x="348.64" y="97.75" width=".95" height="126.51"/>
                  </g>
                </g>
                <g>
                  <rect class="cls-24" x="334.88" y="90.59" width="20.21" height="3.58"/>
                  <rect class="cls-24" x="334.88" y="227.84" width="20.21" height="3.58"/>
                </g>
              </g>
            </g>
            <polygon class="cls-24" points="322.83 250.45 300.41 250.45 167.73 250.45 168.45 239.65 300.41 239.65 310.69 239.65 368.75 239.65 369.47 250.45 322.83 250.45"/>
          </g>
          <g>
            <g>
              <circle class="cls-21" cx="262.87" cy="194.03" r="54.68"/>
              <path class="cls-5" d="M317.55,194.04c0,30.2-24.47,54.67-54.67,54.67-18.95,0-35.65-9.63-45.46-24.29-1.87-2.78-3.49-5.74-4.82-8.86-2.84-6.6-4.41-13.88-4.41-21.53,0-.32,0-.63.01-.95.04-3.03.34-5.99.88-8.86.8-4.52,2.18-8.86,4.05-12.92,1.42-3.11,3.13-6.09,5.1-8.86,9.9-13.98,26.21-23.11,44.65-23.11,30.2,0,54.67,24.49,54.67,54.69Z"/>
              <g class="cls-11">
                <path class="cls-16" d="M245.98,162.46v8.86h-32.86c1.42-3.11,3.13-6.09,5.1-8.86h27.76Z"/>
                <path class="cls-16" d="M241.13,184.24v8.86h-32.93c.04-3.03.34-5.99.88-8.86h32.05Z"/>
                <path class="cls-16" d="M243.29,215.57v8.86h-25.87c-1.87-2.78-3.49-5.74-4.82-8.86h30.69Z"/>
              </g>
              <circle class="cls-21" cx="270.78" cy="194.03" r="54.68"/>
              <path class="cls-6" d="M319.34,194.04c0,26.81-21.75,48.56-48.57,48.56-.3,0-.6,0-.9-.01,26.25-.66,47.32-22.15,47.32-48.54s-21.07-47.9-47.32-48.56c.3-.01.6-.01.9-.01,26.83,0,48.57,21.75,48.57,48.57Z"/>
            </g>
            <circle class="cls-16" cx="271.95" cy="192.38" r="48.04"/>
          </g>
          <g>
            <polygon class="cls-19" points="163.33 170.28 45.61 162.67 55.37 11.68 57.36 9.93 173.1 19.29 165.32 168.54 163.33 170.28"/>
            <rect class="cls-13" x="52.36" y="13.58" width="117.97" height="151.3" transform="translate(5.99 -7) rotate(3.7)"/>
            <g>
              <polygon class="cls-23" points="58.35 112.52 55.72 153.28 158.09 159.11 160.82 116.3 58.35 112.52"/>
              <path class="cls-16" d="M174.21,157.54c-14.59-5-14.45-22.23-14.32-25.18l.03-.44h0s0,0,0,0l6.26-108.96-101.85-6.14-6.77,108.47s0,.03,0,.03c.1,8.71,2.38,22.03,14.75,25.55l69.2,4.57,16.71,1.1h0s15.98.99,15.98.99Z"/>
              <g class="cls-14">
                <g>
                  <rect class="cls-23" x="97.94" y="43.12" width="58.64" height="1.68" rx=".23" ry=".23" transform="translate(2.87 -7.57) rotate(3.44)"/>
                  <path class="cls-23" d="M155.44,51.56l-57.07-3.43c-.4-.02-.71-.37-.69-.77v-.22c.04-.4.39-.71.79-.69l57.07,3.43c.4.02.71.37.69.77v.22c-.04.4-.39.71-.79.69Z"/>
                  <rect class="cls-23" x="97.34" y="53.2" width="58.64" height="1.68" rx=".23" ry=".23" transform="translate(3.47 -7.51) rotate(3.44)"/>
                  <rect class="cls-23" x="97.06" y="57.36" width="29.59" height="1.68" rx=".23" ry=".23" transform="translate(3.7 -6.61) rotate(3.44)"/>
                  <path class="cls-23" d="M90.24,50.12h0s.55-9.19.55-9.19c.03-.54-.38-1-.92-1.04l-15.99-.96c-.54-.03-1,.38-1.04.92l-1.01,16.79c-.03.54.38,1,.92,1.04l15.99.96c.54.03,1-.38,1.04-.92l.46-7.59ZM73.85,55.78l.89-14.84,14.04.85-.55,9.05h0s-.35,5.78-.35,5.78l-14.04-.85Z"/>
                  <path class="cls-23" d="M88.69,75.78h0s.55-9.19.55-9.19c.03-.54-.38-1-.92-1.04l-15.99-.96c-.54-.03-1,.38-1.04.92l-1.01,16.79c-.03.54.38,1,.92,1.04l15.99.96c.54.03,1-.38,1.04-.92l.46-7.59ZM72.3,81.44l.89-14.84,14.04.85-.55,9.05h0s-.35,5.78-.35,5.78l-14.04-.85Z"/>
                  <path class="cls-23" d="M87.15,101.45h0s.55-9.19.55-9.19c.03-.54-.38-1-.92-1.04l-15.99-.96c-.54-.03-1,.38-1.04.92l-1.01,16.79c-.03.54.38,1,.92,1.04l15.99.96c.54.03,1-.38,1.04-.92l.46-7.59ZM70.76,107.1l.89-14.84,14.04.85-.55,9.05h0s-.35,5.78-.35,5.78l-14.04-.85Z"/>
                  <path class="cls-23" d="M85.6,127.11h0s.55-9.19.55-9.19c.03-.54-.38-1-.92-1.04l-15.99-.96c-.54-.03-1,.38-1.04.92l-1.01,16.79c-.03.54.38,1,.92,1.04l15.99.96c.54.03,1-.38,1.04-.92l.46-7.59ZM69.21,132.76l.89-14.84,14.04.85-.55,9.05h0s-.35,5.78-.35,5.78l-14.04-.85Z"/>
                </g>
                <g>
                  <rect class="cls-23" x="96.4" y="68.79" width="58.64" height="1.68" rx=".23" ry=".23" transform="translate(4.41 -7.43) rotate(3.44)"/>
                  <rect class="cls-23" x="96.1" y="73.82" width="58.64" height="1.68" rx=".23" ry=".23" transform="translate(4.71 -7.4) rotate(3.44)"/>
                  <rect class="cls-23" x="95.79" y="78.86" width="58.64" height="1.68" rx=".23" ry=".23" transform="translate(5.01 -7.37) rotate(3.44)"/>
                  <rect class="cls-23" x="95.52" y="83.02" width="29.59" height="1.68" rx=".23" ry=".23" transform="translate(5.24 -6.48) rotate(3.44)"/>
                </g>
                <g>
                  <rect class="cls-23" x="94.85" y="94.45" width="58.64" height="1.68" rx=".23" ry=".23" transform="translate(5.95 -7.29) rotate(3.44)"/>
                  <rect class="cls-23" x="94.55" y="99.49" width="58.64" height="1.68" rx=".23" ry=".23" transform="translate(6.25 -7.26) rotate(3.44)"/>
                  <rect class="cls-23" x="94.25" y="104.52" width="58.64" height="1.68" rx=".23" ry=".23" transform="translate(6.55 -7.23) rotate(3.44)"/>
                  <rect class="cls-23" x="93.97" y="108.69" width="29.59" height="1.68" rx=".23" ry=".23" transform="translate(6.78 -6.34) rotate(3.44)"/>
                </g>
                <g>
                  <path class="cls-23" d="M151.11,123.51l-57.07-3.43c-.4-.02-.71-.37-.69-.77v-.22c.04-.4.39-.71.79-.69l57.07,3.43c.4.02.71.37.69.77v.22c-.04.4-.39.71-.79.69Z"/>
                  <rect class="cls-23" x="93.01" y="125.15" width="58.64" height="1.68" rx=".23" ry=".23" transform="translate(7.79 -7.12) rotate(3.44)"/>
                  <rect class="cls-23" x="92.7" y="130.18" width="58.64" height="1.68" rx=".23" ry=".23" transform="translate(8.09 -7.09) rotate(3.44)"/>
                  <rect class="cls-23" x="92.43" y="134.35" width="29.59" height="1.68" rx=".23" ry=".23" transform="translate(8.31 -6.2) rotate(3.44)"/>
                </g>
              </g>
            </g>
            <polygon class="cls-10" points="138.49 27 92.5 24.03 92.69 21.2 138.67 24.2 138.49 27"/>
          </g>
          <g>
            <polygon class="cls-13" points="62.76 240.87 80.32 240.87 112.49 208.24 124.5 225.64 157.93 192.92 149.18 183.99 126.36 206.33 114.19 188.7 62.76 240.87"/>
            <polygon class="cls-13" points="168.02 175.05 161.84 197.09 145.84 180.71 168.02 175.05"/>
          </g>
          <g class="cls-9">
            <g>
              <rect class="cls-17" x="189.45" y="235.01" width="2.96" height="9.44" rx=".52" ry=".52" transform="translate(-49.47 429.8) rotate(-89.8)"/>
              <rect class="cls-17" x="202" y="235.05" width="2.96" height="9.44" rx=".52" ry=".52" transform="translate(-37.01 442.4) rotate(-89.8)"/>
              <rect class="cls-17" x="214.55" y="235.1" width="2.96" height="9.44" rx=".52" ry=".52" transform="translate(-24.56 454.99) rotate(-89.8)"/>
              <rect class="cls-17" x="227.09" y="235.14" width="2.96" height="9.44" rx=".52" ry=".52" transform="translate(-12.1 467.58) rotate(-89.8)"/>
            </g>
          </g>
          <g>
            <path class="cls-13" d="M397.67,273.39l79.39-8.36c3.88-.41,6.61-2.17,8.3-8.02l-15.53-106.33c-.41-3.88-3.89-6.68-7.76-6.27l-74.62,4.97c-3.88.41-9.3,7.13-8.89,11l11.34,106.74c.41,3.88,3.89,6.69,7.77,6.27Z"/>
            <rect class="cls-25" x="388.31" y="144.56" width="91.79" height="121.46" rx="6.33" ry="6.33" transform="translate(-19.26 47.04) rotate(-6.07)"/>
            <g class="cls-11">
              <rect class="cls-17" x="447.36" y="183.88" width="19.7" height="13.23" rx="2.11" ry="2.11" transform="translate(-17.57 49.39) rotate(-6.07)"/>
              <path class="cls-17" d="M423.85,186.6h15.47c1.17,0,2.11.95,2.11,2.11v9c0,1.17-.95,2.11-2.11,2.11h-15.47c-1.17,0-2.11-.95-2.11-2.11v-9.01c0-1.17.95-2.11,2.11-2.11Z" transform="translate(-18 46.7) rotate(-6.07)"/>
              <path class="cls-17" d="M398.22,189.32h15.47c1.17,0,2.11.95,2.11,2.11v9.01c0,1.17-.95,2.11-2.11,2.11h-15.47c-1.17,0-2.11-.95-2.11-2.11v-9.01c0-1.17.95-2.11,2.11-2.11Z" transform="translate(-18.43 44) rotate(-6.07)"/>
              <path class="cls-17" d="M451.61,203.99h15.47c1.17,0,2.11.95,2.11,2.11v9.01c0,1.17-.95,2.11-2.11,2.11h-15.47c-1.17,0-2.11-.95-2.11-2.11v-9.01c0-1.17.95-2.11,2.11-2.11Z" transform="translate(-19.69 49.73) rotate(-6.07)"/>
              <path class="cls-17" d="M425.98,206.71h15.47c1.17,0,2.11.95,2.11,2.11v9.01c0,1.17-.95,2.11-2.11,2.11h-15.47c-1.17,0-2.11-.95-2.11-2.11v-9.01c0-1.17.95-2.11,2.11-2.11Z" transform="translate(-20.12 47.04) rotate(-6.07)"/>
              <path class="cls-17" d="M400.36,209.43h15.47c1.17,0,2.11.95,2.11,2.11v9c0,1.17-.95,2.11-2.11,2.11h-15.47c-1.17,0-2.11-.95-2.11-2.11v-9.01c0-1.17.95-2.11,2.11-2.11Z" transform="translate(-20.55 44.34) rotate(-6.07)"/>
              <path class="cls-17" d="M453.75,224.1h15.47c1.17,0,2.11.95,2.11,2.11v9c0,1.17-.95,2.11-2.11,2.11h-15.47c-1.17,0-2.11-.95-2.11-2.11v-9c0-1.17.95-2.11,2.11-2.11Z" transform="translate(-21.8 50.07) rotate(-6.07)"/>
              <path class="cls-17" d="M428.12,226.82h15.47c1.17,0,2.11.95,2.11,2.11v9.01c0,1.17-.95,2.11-2.11,2.11h-15.47c-1.17,0-2.11-.95-2.11-2.11v-9c0-1.17.95-2.11,2.11-2.11Z" transform="translate(-22.23 47.37) rotate(-6.07)"/>
              <path class="cls-17" d="M402.5,229.55h15.47c1.17,0,2.11.95,2.11,2.11v9.01c0,1.17-.95,2.11-2.11,2.11h-15.47c-1.17,0-2.11-.95-2.11-2.11v-9c0-1.17.95-2.11,2.11-2.11Z" transform="translate(-22.66 44.68) rotate(-6.07)"/>
              <rect class="cls-17" x="453.77" y="247.52" width="19.7" height="6.62" rx="2.11" ry="2.11" transform="translate(-23.91 50.4) rotate(-6.07)"/>
              <path class="cls-17" d="M430.26,250.24h15.47c1.17,0,2.11.95,2.11,2.11v2.39c0,1.17-.95,2.11-2.11,2.11h-15.47c-1.17,0-2.11-.95-2.11-2.11v-2.39c0-1.17.95-2.11,2.11-2.11Z" transform="translate(-24.34 47.71) rotate(-6.07)"/>
              <path class="cls-17" d="M404.63,252.97h15.47c1.17,0,2.11.95,2.11,2.11v2.39c0,1.17-.95,2.11-2.11,2.11h-15.47c-1.17,0-2.11-.95-2.11-2.11v-2.39c0-1.17.95-2.11,2.11-2.11Z" transform="translate(-24.78 45.02) rotate(-6.07)"/>
            </g>
            <g>
              <path class="cls-16" d="M393.65,160.81l1.67,15.73c.14,1.31,1.31,2.26,2.62,2.12l17.68-1.88,8.26-.87,6.59-.7,13.76-1.46,19.81-2.1c1.31-.14,2.26-1.32,2.12-2.63l-1.67-15.73c-.14-1.31-1.32-2.26-2.63-2.12l-8.73.93-13.75,1.47-6.59.7-8.26.88-28.75,3.06c-1.31.13-2.27,1.31-2.13,2.62Z"/>
              <g class="cls-11">
                <polygon class="cls-16" points="430.47 175.21 444.23 173.74 453.14 152.09 439.39 153.55 430.47 175.21"/>
                <polygon class="cls-16" points="415.63 176.78 423.89 175.91 432.8 154.25 424.53 155.13 415.63 176.78"/>
              </g>
              <path class="cls-20" d="M398.19,172.73l-.97-9.13c-.2-1.9,1.18-3.6,3.07-3.81l6.52-.69c1.9-.2,3.6,1.18,3.81,3.07l.97,9.13c.2,1.9-1.18,3.6-3.07,3.81l-6.52.69c-1.9.2-3.6-1.18-3.81-3.07ZM400.51,161.84c-.77.08-1.33.78-1.25,1.55l.97,9.13c.08.77.78,1.33,1.55,1.25l6.52-.69c.77-.08,1.33-.78,1.25-1.55l-.97-9.13c-.08-.77-.78-1.33-1.55-1.25l-6.52.69Z"/>
            </g>
            <g>
              <path class="cls-16" d="M450.65,182.41h15.47c1.17,0,2.11.95,2.11,2.11v9.01c0,1.17-.95,2.11-2.11,2.11h-15.47c-1.17,0-2.11-.95-2.11-2.11v-9.01c0-1.17.95-2.11,2.11-2.11Z" transform="translate(-17.41 49.51) rotate(-6.07)"/>
              <path class="cls-16" d="M425.03,185.14h15.47c1.17,0,2.11.95,2.11,2.11v9c0,1.17-.95,2.11-2.11,2.11h-15.47c-1.17,0-2.11-.95-2.11-2.11v-9.01c0-1.17.95-2.11,2.11-2.11Z" transform="translate(-17.84 46.81) rotate(-6.07)"/>
              <path class="cls-16" d="M399.4,187.86h15.47c1.17,0,2.11.95,2.11,2.11v9.01c0,1.17-.95,2.11-2.11,2.11h-15.47c-1.17,0-2.11-.95-2.11-2.11v-9.01c0-1.17.95-2.11,2.11-2.11Z" transform="translate(-18.27 44.12) rotate(-6.07)"/>
              <path class="cls-16" d="M452.79,202.52h15.47c1.17,0,2.11.95,2.11,2.11v9.01c0,1.17-.95,2.11-2.11,2.11h-15.47c-1.17,0-2.11-.95-2.11-2.11v-9.01c0-1.17.95-2.11,2.11-2.11Z" transform="translate(-19.52 49.84) rotate(-6.07)"/>
              <path class="cls-16" d="M427.16,205.25h15.47c1.17,0,2.11.95,2.11,2.11v9c0,1.17-.95,2.11-2.11,2.11h-15.47c-1.17,0-2.11-.95-2.11-2.11v-9c0-1.17.95-2.11,2.11-2.11Z" transform="translate(-19.96 47.15) rotate(-6.07)"/>
              <path class="cls-16" d="M401.54,207.97h15.47c1.17,0,2.11.95,2.11,2.11v9.01c0,1.17-.95,2.11-2.11,2.11h-15.47c-1.17,0-2.11-.95-2.11-2.11v-9c0-1.17.95-2.11,2.11-2.11Z" transform="translate(-20.39 44.45) rotate(-6.07)"/>
              <path class="cls-16" d="M454.93,222.64h15.47c1.17,0,2.11.95,2.11,2.11v9.01c0,1.17-.95,2.11-2.11,2.11h-15.47c-1.17,0-2.11-.95-2.11-2.11v-9.01c0-1.17.95-2.11,2.11-2.11Z" transform="translate(-21.64 50.18) rotate(-6.07)"/>
              <path class="cls-16" d="M429.3,225.36h15.47c1.17,0,2.11.95,2.11,2.11v9c0,1.17-.95,2.11-2.11,2.11h-15.47c-1.17,0-2.11-.95-2.11-2.11v-9c0-1.17.95-2.11,2.11-2.11Z" transform="translate(-22.07 47.49) rotate(-6.07)"/>
              <rect class="cls-16" x="401.56" y="228.08" width="19.7" height="13.23" rx="2.11" ry="2.11" transform="translate(-22.5 44.79) rotate(-6.07)"/>
              <path class="cls-16" d="M457.07,246.06h15.47c1.17,0,2.11.95,2.11,2.11v2.39c0,1.17-.95,2.11-2.11,2.11h-15.47c-1.17,0-2.11-.95-2.11-2.11v-2.39c0-1.17.95-2.11,2.11-2.11Z" transform="translate(-23.75 50.52) rotate(-6.07)"/>
              <path class="cls-16" d="M431.44,248.78h15.47c1.17,0,2.11.95,2.11,2.11v2.39c0,1.17-.95,2.11-2.11,2.11h-15.47c-1.17,0-2.11-.95-2.11-2.11v-2.39c0-1.17.95-2.11,2.11-2.11Z" transform="translate(-24.18 47.83) rotate(-6.07)"/>
              <path class="cls-16" d="M405.81,251.5h15.47c1.17,0,2.11.95,2.11,2.11v2.39c0,1.17-.95,2.11-2.11,2.11h-15.47c-1.17,0-2.11-.95-2.11-2.11v-2.39c0-1.17.95-2.11,2.11-2.11Z" transform="translate(-24.62 45.14) rotate(-6.07)"/>
            </g>
          </g>
        </g>
      </g>
      <path class="cls-13" d="M265.94,52.86c0,6.34-3.33,9.49-7.22,9.49s-6.99-3.01-7.04-9.07c0-6.02,3.29-9.4,7.27-9.4,4.21,0,6.99,3.24,6.99,8.98ZM254.92,53.14c-.09,3.84,1.34,6.76,3.89,6.76,2.68,0,3.89-2.87,3.89-6.85,0-3.66-1.06-6.71-3.89-6.71-2.55,0-3.89,3.01-3.89,6.8ZM258.44,74.99l17.68-31.1h2.59l-17.68,31.1h-2.59ZM285.52,65.31c0,6.34-3.33,9.49-7.17,9.49s-6.99-3.01-7.04-9.03c0-6.06,3.29-9.44,7.27-9.44,4.21,0,6.94,3.24,6.94,8.98ZM274.5,65.59c-.05,3.84,1.43,6.76,3.93,6.76,2.68,0,3.89-2.87,3.89-6.85,0-3.66-1.06-6.71-3.89-6.71-2.55,0-3.93,3.01-3.93,6.8Z"/>
      <g>
        <rect class="cls-13" x="367.03" y="41.81" width="53.43" height="23.52" transform="translate(57.21 264.87) rotate(-39.87)"/>
        <path class="cls-15" d="M407.03,31.74c-.28.11-.57.15-.87.11-.31-.02-.58-.1-.84-.26-.29-.12-.53-.3-.72-.55l-.02-.02-34.98,29.22c.26.31.42.67.49,1.07,0,.2.01.39.02.59-.04.4-.17.77-.4,1.1-.13.14-.26.28-.39.42l10.34,12.37s0,0,0,0c1.15-.96,2.47-.53,3.2.38l35.02-29.25c-.73-.88-.89-2.23.24-3.18.01-.01.03-.02.04-.03l-10.33-12.37c-.23.21-.5.35-.81.42Z"/>
        <path class="cls-13" d="M399.85,48.47c2.82,3.37,2.37,8.39-1.01,11.2-3.37,2.82-8.39,2.37-11.2-1.01-2.82-3.37-2.37-8.39,1.01-11.2,3.37-2.82,8.39-2.37,11.2,1.01Z"/>
      </g>
      <g>
        <rect class="cls-13" x="388.97" y="72.41" width="53.43" height="23.52" transform="translate(-8.1 67.25) rotate(-9.16)"/>
        <path class="cls-15" d="M438.24,72.19c-.3-.05-.56-.16-.81-.35-.25-.17-.45-.39-.59-.65-.19-.25-.3-.53-.34-.84v-.03s-45,7.26-45,7.26c.06.4.02.79-.13,1.17-.09.17-.19.34-.28.52-.24.33-.54.57-.91.74-.18.06-.37.11-.55.17l2.57,15.92s0,0,.01,0c1.48-.24,2.39.81,2.56,1.96l45.05-7.26c-.18-1.13.37-2.37,1.82-2.61.02,0,.03,0,.05,0l-2.57-15.92c-.31.06-.61.04-.9-.05Z"/>
        <path class="cls-13" d="M423.53,82.9c.7,4.34-2.25,8.42-6.59,9.12-4.34.7-8.42-2.25-9.12-6.59-.7-4.34,2.25-8.42,6.59-9.12,4.34-.7,8.42,2.25,9.12,6.59Z"/>
      </g>
      <path class="cls-13" d="M289.9,168.74h-14.03c2.47,1.95,4.25,4.76,4.76,8.67h9.27v4.25h-9.18c-.85,8.68-7.74,14.2-18.63,14.55,6.63,6.88,13.86,15.56,21.01,24.32h-8.17c-6.63-7.99-12.84-15.39-20.83-23.9v-5.27h4.67c9.18,0,14.12-3.83,14.71-9.7h-19.39v-4.25h19.13c-1.19-4.93-5.7-7.4-13.09-7.4h-6.04v-5.53h35.8v4.25Z"/>
    </g>
  </g>
</svg>