<?xml version="1.0" encoding="UTF-8"?>
<svg width="512" height="512" id="Layer_1" xmlns="http://www.w3.org/2000/svg" viewBox="0 0 1080 1080">
  <defs>
    <style>
      .cls-1 {
        fill: #d3dcdc;
      }

      .cls-2 {
        fill: #2d2c2c;
      }

      .cls-3 {
        fill: #898989;
      }

      .cls-4 {
        fill: #252525;
      }

      .cls-5 {
        fill: #2c2c2c;
      }

      .cls-6 {
        fill: #d1dbdb;
      }

      .cls-7 {
        fill: #2a2a2a;
      }

      .cls-8 {
        fill: #323131;
      }

      .cls-9 {
        fill: #c8d1d1;
      }

      .cls-10 {
        fill: #c6cece;
      }

      .cls-11 {
        fill: #c1c9c9;
      }

      .cls-12 {
        fill: #cfd9d9;
      }

      .cls-13 {
        fill: #042b62;
      }

      .cls-14 {
        fill: #cad3d3;
      }

      .cls-15 {
        fill: #3e3e3e;
      }

      .cls-16 {
        fill: #3f3f3f;
      }

      .cls-17 {
        fill: #b6bfbf;
      }

      .cls-18 {
        fill: #fff;
        font-family: MyriadPro-Regular, 'Myriad Pro';
        font-size: 266.91px;
      }

      .cls-19 {
        fill: #f8f9f9;
      }

      .cls-20 {
        fill: #b3bcbc;
      }

      .cls-21 {
        fill: #b6bebe;
      }

      .cls-22 {
        fill: #3c3c3c;
      }

      .cls-23 {
        fill: #b7c0c0;
      }

      .cls-24 {
        fill: #c7cfcf;
      }

      .cls-25 {
        fill: #b8c0c0;
      }

      .cls-26 {
        fill: #b5bebe;
      }

      .cls-27 {
        fill: #959696;
      }

      .cls-28 {
        fill: #c9d1d1;
      }

      .cls-29 {
        fill: #2f2e2e;
      }

      .cls-30 {
        fill: #303030;
      }

      .cls-31 {
        fill: #9ba1a1;
      }

      .cls-32 {
        fill: #bac2c2;
      }

      .cls-33 {
        fill: #cbd5d5;
      }

      .cls-34 {
        fill: #2f2f2f;
      }

      .cls-35 {
        fill: #fbfbfb;
      }

      .cls-36 {
        fill: #f9f9f9;
      }

      .cls-37 {
        fill: #b0b7b7;
      }

      .cls-38 {
        fill: #404040;
      }

      .cls-39 {
        fill: #2b2a2a;
      }

      .cls-40 {
        fill: #1f1f1f;
      }

      .cls-41 {
        fill: #363636;
      }

      .cls-42 {
        fill: #b3bdbd;
      }

      .cls-43 {
        fill: #393a3a;
      }

      .cls-44 {
        fill: #3a3a3a;
      }

      .cls-45 {
        fill: #454545;
      }

      .cls-46 {
        fill: #d4d9d9;
      }

      .cls-47 {
        fill: #373737;
      }

      .cls-48 {
        fill: #212121;
      }

      .cls-49 {
        fill: #252424;
      }

      .cls-50 {
        fill: #222;
      }

      .cls-51 {
        fill: #6e7171;
      }

      .cls-52 {
        fill: #b8c1c1;
      }

      .cls-53 {
        fill: #b5bdbd;
      }

      .cls-54 {
        fill: #585959;
      }

      .cls-55 {
        fill: #2b2b2b;
      }

      .cls-56 {
        fill: #3c3b3b;
      }

      .cls-57 {
        fill: #333;
      }

      .cls-58 {
        fill: #898e8e;
      }

      .cls-59 {
        fill: #e6e9e9;
      }

      .cls-60 {
        fill: #bfc7c7;
      }

      .cls-61 {
        fill: #b4bdbd;
      }

      .cls-62 {
        fill: #bdc5c5;
      }

      .cls-63 {
        fill: #262525;
      }

      .cls-64 {
        fill: #cdd5d5;
      }

      .cls-65 {
        fill: #f2f3f3;
      }

      .cls-66 {
        fill: #393939;
      }

      .cls-67 {
        fill: #ced7d7;
      }

      .cls-68 {
        fill: #292929;
      }

      .cls-69 {
        fill: #282727;
      }

      .cls-70 {
        fill: #423c39;
      }

      .cls-71 {
        fill: #3e3836;
      }

      .cls-72 {
        fill: #f7f8f8;
      }

      .cls-73 {
        fill: #fefefe;
      }

      .cls-74 {
        fill: #b9c2c2;
      }

      .cls-75 {
        fill: #3e3d3d;
      }

      .cls-76 {
        fill: #3d3d3d;
      }

      .cls-77 {
        fill: #313030;
      }

      .cls-78 {
        fill: #f8f8f8;
      }

      .cls-79 {
        fill: #242424;
      }

      .cls-80 {
        fill: #353434;
      }

      .cls-81 {
        fill: #f9fafa;
      }

      .cls-82 {
        fill: #343434;
      }

      .cls-83 {
        fill: #f6f7f7;
      }

      .cls-84 {
        fill: #bbc3c3;
      }

      .cls-85 {
        fill: #ced8d8;
      }

      .cls-86 {
        fill: #393838;
      }

      .cls-87 {
        fill: #414141;
      }

      .cls-88 {
        fill: #b5b5b5;
      }

      .cls-89 {
        fill: #2e2e2e;
      }
    </style>
  </defs>
  <g>
    <path class="cls-87" d="M539.08,252.95c30.9-.83,61.71.42,92.27,5.21,6.14.96,9.65-.98,13.35-5.58,14.66-18.19,29.73-36.05,44.62-54.06,17.59-21.27,40.07-31.93,67.76-31.64,15.58.16,31.17-.04,46.75.05,20.13.11,29.52,13.77,22.41,32.42-1.42,3.72-2.8,7.46-4.47,11.9,21.56-2.1,42.4-2.2,63.26-1.42,22.58.84,30.99,12.71,23.96,33.89-13.41,40.39-26.78,80.8-40.41,121.12-1.8,5.31-1.14,8.67,2.92,12.84,22.08,22.72,39.96,48.46,53.21,77.28,2.48,5.39,5.71,8.93,11.56,10.99,12.62,4.43,24.88,9.84,37.39,14.59,21.43,8.13,34.77,23.34,40.41,45.42.61,2.37.32,5.11,3.75,5.44v5.61c-2.21,11.62-.63,23.35-.89,35.03-.31,13.91-.07,27.82-.07,41.73.51,4.06-1.47,7.55-2.63,11.22-5.97,22.74-19.95,38.16-42.01,46.41-13.4,5.02-27.89,8.55-39.62,16.23-11.68,7.64-13.98,23.49-21.36,35.2-21.32,33.82-47.1,63.48-79.09,87.55-4.56,3.43-6.79,6.98-7.44,12.88-3.93,35.28-8.28,70.51-12.76,105.73-4,31.46-30.38,54.7-62.08,54.95-16.83.13-33.66.05-50.49.02-33.84-.06-58.54-20.71-64.8-54.14-1.89-10.09-4.1-20.14-5.56-30.3-.68-4.73-2.74-5.38-6.84-4.87-39.77,4.94-79.57,4.97-119.33-.01-5.29-.66-6.39,1.12-6.25,5.94.25,8.4.38,16.85-.28,25.22-2.64,33.37-29.28,58.08-62.78,58.13-81.34.11-162.69.06-244.03.03-34.62-.01-60.27-21.64-64.6-56.08-2.48-19.75-1.64-39.82-.15-59.71.83-11.06,5.12-21.14,11.75-30.03,2.31-3.09,3.29-5.13.37-8.68-8.42-10.23-12.02-22.59-12.49-35.5-.64-17.42-1.34-34.98.13-52.3,2.83-33.26,24.66-53.93,61.18-59.39-8.53-21.14-14.59-42.81-18.19-65.19-1.05-6.57,1.72-15.59-4-19.12-4.78-2.95-12.7-.84-19.23-.94-38.24-.61-71.09-27.65-80.52-65.95-2.25-9.14-4.56-17.76-.26-27.21,4.82-10.59,11.62-15.54,22.36-13.98,9.65,1.41,16.93,9.45,17.4,20.12.43,9.92,2.85,19.02,8.75,27.07,10.25,13.98,33.92,21.75,50.6,16.94,3.41-.98,3.22-3.41,3.46-5.72,8.34-78.94,46.52-141.88,104.15-194.42,9.5-1.34,14.43,5.73,20.32,11.02,1.19,4.51,4.72,4.49,8.35,4.27,4.48.75,8.77,1.8,10.82,6.54-.49,4.66-4.65,6.14-7.56,8.7-6.49,2.35-10.91,7.1-14.59,12.69-1.27,1.71-2.76,3.19-4.48,4.46-4.21,2.99-8.53,5.86-10.57,10.93-.83,2.44-2.38,4.33-4.42,5.85-2.7,1.71-5.46,3.37-5.38,7.19-5.99,13.1-15.72,23.85-22.5,36.52-13.94,26.06-24.1,53.27-28.2,82.61-.26,1.86-.5,3.71-1.67,5.27-.75.59-1.61.8-2.55.61-.98-1.35-.95-2.88-.74-4.44-1.09,3.97,1.94,6.92,2.63,10.47.4,1.47.62,2.96.74,4.48.26,11.3.31,22.59.03,33.87-.07,1.48-.32,2.95-.67,4.39-.36,1.47-.85,2.9-1.5,4.28-.65,1.37-1.42,2.7-1.41,4.28.65-1.13,1-2.71,2.95-1.96.8.71,1.37,1.54,1.76,2.53,3.42,20.33,8.55,40.15,16.71,59.14,4.96,11.55,5.93,12.45,18.79,12.46,59.43.05,118.86.01,178.29.03,4.04,0,8.14-.37,12.07.75,2.09.6,5.26.87,3.73,4.62-66.05.59-132.1.08-198.15.3-2.09,0-4.3-.77-6.32.39,3.01-.75,6.09-.36,9.13-.36,62.31-.03,124.63,0,186.94-.06,3.37,0,6.87.8,10.08-.94,13.02-3.7,22.51,2.47,31.11,11.13,2.19,4.39,5.36,7.9,9.57,10.47,2.28,2.15,4.4,4.44,6.44,6.83,3.96,7.22,8.6,14.23,7.43,23.11-1.45,6.19-.53,12.46-.72,18.7-.6,16.8,1.25,33.65-1.1,50.39-.96,2.87-.75,5.88-.95,8.83.03,5.49-2.37,10.18-5.82,14.07-4.35,4.91-4.16,9.02.75,13.14,2.04,3.03,2.97,6.67,5.36,9.51,13.81,4.01,28.13,4.32,42.21,4.95,28.78,1.28,57.6.45,86.15-4.09,3.1-1.1,6.17,1.06,9.3.21-1.62.16-3.27.55-4.27-1.33,1.74-4.26,5.33-3.33,8.66-3.14,4.11,1.33,8.26,1.52,12.48.5,7.42.36,10.68,6.25,14.77,11.06,5.08,15.1,6.92,30.85,9.25,46.5-.16,1.92-1.24,3.47-2.18,5.08-.46.79-.17,1.88-1.01,2.52,1.57-.14.37-2.44,2.01-2.54,4.26,1.35,3.72,5.33,4.26,8.39,1.65,9.3,5.79,16.66,14.65,20.8.82.5,1.6,1.04,2.38,1.59,19.33,1.69,38.67.58,57.96.58.68-.48,1.36-.99,1.99-1.56,3.18-3.23,7.99-4.26,10.79-8.01,2.35-3.07,3.53-6.86,6.02-9.84,3.26-5.38,1.61-11.74,3.5-17.38.42-14.12,3.56-27.93,4.47-41.98,2.14-5.93.66-12.43,2.85-18.34.59-5.58-.03-11.31,1.86-16.74-.11-9.35,3.74-18.46,1.59-27.92-.96-8.85,5.77-13.29,11.23-17.78,7.08-5.82,14.5-11.36,22.61-15.81,7.24-1.73,10.68-8.2,15.75-12.64.57-.64,1.18-1.24,1.81-1.83,3.88-3.88,8.56-7.14,9.89-12.98,13.61-16.61,25.27-34.5,35.36-53.46,3.22-6.05,6.47-12.13,8.84-18.5,3.91-10.54,11.49-16.32,21.54-20.4,17.55-7.13,35.61-13.06,52.5-21.76,4.46-3.07,4.2-9.95,9.77-12.12,3.17-2.72,1.81-6.39,1.83-9.63.15-19.8.01-39.6,0-59.4,0,20.02.11,40.03-.13,60.05-.03,2.67,2.61,7.1-3.02,7.91-3.09-3.77-2.11-8.29-2.21-12.56-.5-20.81.86-41.64-.76-62.41-2.04-7.15-6.93-11.36-13.77-13.97-16.8-6.42-33.09-14.11-49.85-20.64-7.89-3.07-12.37-9-15.42-16.44-9.73-23.74-23.92-44.76-39.61-64.87-1.35-1.73-2.6-3.48-3.26-5.58-.62-3.96-3.03-6.56-6.48-8.36-6.78-3.98-11-10.43-15.78-16.34-3.37-4.22-6.15-9.12-12.21-10.08-10.01-5.74-19.26-12.52-27.92-20.13-1.5-2.63-3.68-4.11-6.81-4.03-10.02-3.28-18.57-9.32-27.42-14.73-4.91-3-7.73-7.76-7.72-13.81.87-3.5.78-7-.05-10.5,1.1-7.68,2.66-15.23,6.54-22.09,2.83-2.29,3.79-5.19,2.83-8.73,1.37-7.53,3.26-14.89,7.11-21.59,4.48-3.58,4.84-8.4,4.06-13.57,1.53-7.58,2.45-15.35,7.07-21.93,3.94-3.1,4.94-7.28,4.32-12.02-.41-2.14.5-4.5-1.11-6.43-7.58-2.37-15.56.65-23.09-1.89-1.17-.4.29-.41-.86-.19-.63.12.73.5.63,1.12-.52,2.66-2.72,3.2-4.77,3.62-10.24,2.12-18.34,7.9-25.76,14.88-2.23,2.22-6.51,2.4-6.65,6.72-2.38,5.87-5.62,11.09-11.06,14.64-2.34,1.34-4.75,2.6-5.52,5.52-.71,1.99-2.09,3.41-3.77,4.61-2.36,1.76-4.83,3.41-5.58,6.53-.72,2.38-2.23,4.18-4.17,5.67-2.4,1.4-4.01,3.42-4.75,6.13-2.63,5.83-6.27,10.85-11.62,14.49-2.34,1.39-4.92,2.54-5.65,5.57-.75,2.35-2.25,4.14-4.18,5.62-2.41,1.4-3.99,3.48-4.87,6.12-3.2,5.35-5.96,11.04-11.52,14.51-3.67,1.8-6.54,4.35-7.82,8.41-.48.68-1.05,1.27-1.7,1.81-2.29,1.81-4.82,3.41-5.5,6.56-.72,2.39-2.25,4.19-4.2,5.67-2.5,1.45-3.97,3.68-4.82,6.4-1.76,4-4.47,6.71-9.13,6.8-5.09-.74-10.16-.65-15.22.32-14.58-4.87-19.98-22.32-10.8-34.9,1.85-2.53,4.1-4.68,6.64-6.5,3.39-2.32,7.21-4.28,7.64-9.1.64-2.15,2.37-3.28,4.08-4.43,1.11-.93,2.52-1.7,1.61-3.54-1.03-1.69-4.48-2.1-2.82-5.18.19,1.25-.3-.8.83-.32.77.33.98-.25.55-.14-3.2.8-6.38,1.37-9.65.24-17.45-.88-34.88-.1-52.31-.42-4.6-.08-9.53.58-12.6-4.2-.39-.83-1.04-1.76-.8-2.61,3.53-12.66,6.27-25.64,14.14-36.63Z"/>
    <path class="cls-3" d="M1015.94,615.54c-.02-23.32-.08-46.65.02-69.97.01-2.89-1.4-6.31,1.87-8.58v78.56c-.64.83-1.27.86-1.89-.01Z"/>
    <path class="cls-88" d="M1015.94,615.54c.63,0,1.26,0,1.89.01v5.61c-1.2,1.27-2.39,2.54-3.59,3.8-.76-3.38,1.07-6.3,1.7-9.43Z"/>
    <path class="cls-13" d="M539.08,252.95c-3.45,12.72-8.16,24.99-13.14,37.16.83,3.11-.74,5.63-2.01,8.23-1.76,2.7-3.24,5.66-6.26,7.28-2.96.79-2.9,3.59-3.78,5.76-1.58,4.45-3.46,8.73-7.44,11.65-3.26,1.82-6.79,3.35-7.78,7.53-2.61,5.58-7.34,9.23-11.87,13.06-2.23,1.34-4.61,2.2-7.25,2.12-1.62,1.74-5.97-3.94-5.98,2.26-3.37,3.25-7.86,3.54-12.01,4.59-30.17,7.6-59.1,18.32-86.19,33.77-3.57,2.03-7.3,3.38-11.44,3.47-8.59.14-17.16.16-25.01-4.09-2-4.6,3.37-1.65,3.87-3.61-2.2.73-4.79.58-6.49,2.59-9.87.73-18.4-2.63-26.1-8.52-3.97-2.4-7.94-4.81-12.69-5.38-3.23.04-5.18-2.05-7.07-4.24-6.26-5.02-12.57-9.96-20.25-12.74-11.59-11.71-23.97-22.6-33.87-35.99-72.03-97.31-28.52-239.93,84.79-277.46,93.91-31.11,194.91,28.02,217.85,127.38,6.57,28.44,6.06,56.78.12,85.18Z"/>
    <path class="cls-72" d="M310.21,376.21c9.28,1.08,17.14,7.39,26.76,7.24.66-.66,1.18-.53,1.58.28,8.56,3.29,17.64,3.12,26.56,4.03,1.94,4.34-1.9,5.34-4.23,6.92-6.17,4.18-12.43,8.24-18.6,12.42-3.03,2.28-5.74,4.89-7.95,7.98-5.16,12.28-2.7,20.37,8.6,28.1.71.47,1.32,1.06,1.84,1.72.33.75.39,1.54.23,2.33,3.17.1,6.35-.6,9.51.14.75.17,1.3-.03,1.23-.15-.15-.23-.45-.37-.69-.57-.06-.88.19-1.64.73-2.34.63-.64,1.32-1.18,2.06-1.68,32.6-23.33,68.08-40.66,106.7-51.5,8.58-3.06,17.59-4.14,26.46-5.86,2.7-.38,5.48-.28,8.11-1.18,1.3-.37,2.63-.6,3.97-.73.87-.12,1.75-.16,2.62-.17,2.96.02,5.91-.07,8.77-1,2.73-.73,5.61-.72,8.3-1.62,1.79-.61,3.54-1.3,5.24-2.13,1.65-.84,2.93-2.06,3.77-3.73.83-1.72,1.34-3.55,1.85-5.38.19-.79.43-1.56.67-2.34.82-2.9.65-5.84.5-8.77-.17-2.74-1.13-5.19-2.82-7.35-1.51-1.88-2.89-3.83-3.93-6-2.86-4.14-7.29-4.1-11.57-4.22-2.75-.08-5.55.64-8.26.25-4.71-.67-10.88,3.47-13.76-1-2.59-4.01,4.89-6.21,5.66-10.48.11-.6.17-1.21.19-1.83.47-2.81,2.93-4.01,4.71-5.76,4.19-2.76,5.52-7.45,7.77-11.51,1.55-1.47.82-4.67,3.83-5.03,1.82-2.48,3.63-4.96,5.45-7.44,1.34-1.21,2.93-1.87,4.69-2.19,20.21.12,40.43,0,60.64.06,1.65.03,3.31.04,4.92.49,1.86.95,4.4-.43,5.92,1.71,1.76,2.02,5.96-.56,6.64,3.51.38,2.98-2.31,3.8-3.83,5.45-.12,2.51-4,1.14-3.95,3.83.24,4.49-4.43,5.87-5.89,9.28-16.6,11.96-15.63,31.22,1.99,39.31,4.96-.28,9.93.22,14.89-.25,4.21-.06,5.17-4.16,7.75-6.25.44-3.15,2.91-4.73,5.06-6.55,1.63-1.75,3.25-3.49,4.88-5.24.05-3.63,3.59-5.07,4.96-7.88.67.06,1.23-.16,1.68-.66,1.17-3.89,4.2-6.25,7.14-8.69,5.4-3.47,7.33-9.86,11.84-14.07.46-3.1,2.92-4.66,5.03-6.48,1.62-1.76,3.24-3.51,4.86-5.27-.01-3.1,2.68-4.19,4.45-5.96,4.9-3.88,8.48-8.87,11.84-14.06.45-3.13,2.91-4.69,5.05-6.52l4.88-5.25c.08-3.62,3.59-5.07,4.97-7.87,2.28-.07,3.59-1.36,4.3-3.41.08-3.04,2.71-4.15,4.48-5.92,5.62-3.6,7.58-10.35,12.48-14.57-.13-3.19,2.65-4.23,4.43-6.01,8.48-10.38,19.62-16.09,32.63-18.48,9.21-1.56,18.42-2.74,27.51.68-.57,2.18-1.13,4.36-1.7,6.54.07,4.76-1.38,9.06-3.89,13.06-3.53,7.14-5.42,14.82-7.32,22.49.05,4.75-1.4,9.06-3.89,13.06-3.51,7.15-5.43,14.81-7.32,22.48.6,2.84-.46,5.22-2.06,7.44-3.51,7.16-5.67,14.75-7.2,22.54,1.06,3.1,1.21,6.19-.1,9.26.44,7.3,4.9,11.82,10.83,15.09,8.13,4.47,16.4,8.7,24.61,13.04,2.66-.15,4.12,1.68,5.62,3.43,9.57,6.93,19.14,13.86,28.71,20.79,5.31,1.66,7.91,6.85,12.42,9.56,5.11,5.58,10.22,11.16,15.33,16.74,2.8,2.43,6.16,4.41,6.98,8.47,14.53,18.79,28.06,38.24,38.69,59.56,2.28,4.57,4.29,9.29,6.3,13.99,3.17,7.41,8.97,10.93,16.46,13.74,17.58,6.6,34.79,14.23,52.01,21.77,3.97,1.74,7.05,5.06,8.12,9.66.4,25.37-.05,50.75.28,76.11.09,6.66-3.58,11.67-5.84,17.33-17.33,9.54-36.2,15.47-54.44,22.85-8.93,3.61-15.01,8.9-18.57,18.09-7.76,20.04-19.62,38-31.12,55.98-3.68,5.75-9.59,10.4-13.76,16.19-1.94,6.15-8.1,8.92-11.29,14.07l.16-.21c-5.83,3.92-9.26,10.7-16.09,13.42-9.63,8.45-21.64,13.87-30.02,24.03-2.06,2.5-3.8,4.59-4.06,7.77.93,1.73.63,3.55.43,5.37-1.1,3.09-.49,6.34-.87,9.51-.47,1.77-.82,3.57-.97,5.4-1.14,3.12-.51,6.41-.91,9.6-.49,1.81-.81,3.65-1.01,5.51-1.07,3.24-.53,6.6-.75,9.91-.9,5.23-2.15,10.42-1.97,15.79-.47,1.85-.91,3.71-.9,5.63-1.18,3.16-.62,6.5-.96,9.75-.43,1.81-.85,3.62-.97,5.48-1.16,3.15-.52,6.46-.93,9.68-.51,1.83-.79,3.71-1.03,5.59-1.06,3.35-.47,6.81-.74,10.22-2.01,5.78-.5,12.27-3.6,17.82-2.03,3.11-2,7.39-5.52,9.65-9.69,6.42-20.27,8.68-31.9,8-10.86-.63-21.8.02-32.69-.19-13.09-.26-20.73-6.24-23.92-19.08-4.48-18.05-6.93-36.52-10.73-54.72-.84-4.01-1.57-7.94-4.58-10.99-7.74-13.07-20.45-11.25-31.62-8.53-13.44,3.27-26.99,4.55-40.52,5.21-20.52,1-41.11.31-61.68.24-8.42-.03-16.63-2.1-25.04-2.51-6.29-.31-10.85-4.08-14.55-8.94-6.82-4.28-8.77-8.59-1.49-14.78,3.02-2.57,5.4-6.66,5.62-11.23.18-.86.68-1.41,1.5-1.71,4.33-7.53,4.9-16.01,4.96-24.2.12-17.91,1.21-35.85-1.09-53.76-1.13-8.82-3.47-16.83-9.4-23.58-1.95-1.97-3.89-3.94-5.84-5.91-3.38-2.59-6.37-5.59-8.97-8.96-7.54-8.38-17.28-12.01-28.21-13.1-1.29.64-2.53.73-3.67-.32-4.01-2.52-8.49-1.33-12.72-1.34-62.6-.09-125.2-.17-187.8.09-6.95.03-10.36-2.08-13.04-8.59-9.03-21.94-17.57-43.92-18.63-68-2.68-3.06.34-6.86-1.32-10.05-1.4-12.5-1.42-25-.01-37.5,1.66-3.22-1.32-7.04,1.31-10.13,2.25-33.7,14.74-64.01,31.37-92.78,6.63-11.48,14.63-22.16,22.01-33.21,0-3.08,2.68-4.17,4.43-5.95l4.94-5.24c1.58-5.45,6.45-8.02,10.16-11.6,1.36-1.37,2.73-2.74,4.09-4.1,4.19-4.87,8.18-9.97,14.26-12.73,2.09-3.87,6.34-4.99,9.53-7.45Z"/>
    <path class="cls-62" d="M439.78,855c3.13,1.86,6.26,3.72,9.39,5.59,1.58,1.66,4.67,2.25,3.96,5.55.61,1.86,1.22,3.73,1.82,5.59.56.95.84,1.97.82,3.07-.53,15.48-.51,30.95,0,46.43.01,1.1-.28,2.12-.86,3.06-2.23,6.92-5.71,12.72-13.29,14.85-3.34.98-6.78.79-10.2.79-79.03,0-158.07-.06-237.1.09-9.13.02-17.21-1.92-24.15-7.97-1.96-1.58-3.01-3.63-3.17-6.14-1.74-18.61-1.68-37.21-.02-55.82,1.12-6.48,4.22-11.26,11.02-12.88,7.19,1.58,14.6-.29,21.82.96-6.71-1.44-13.78,1.06-20.39-1.46,8.57-3.79,17.68-.55,26.43-2.04.95-.35,1.76-.14,2.42.63.8,5.18-.15,10.36,0,15.56.28,9.83,3.55,17.93,12.34,23.12,3.68,2.07,7.53,2.23,11.49.98.68-.4,1.37-.76,2.05-1.15.66-.45,1.35-.84,2.04-1.24,3.18-1.88,6.02-4.28,9.19-6.18,4.66-4.94,2.37-11.09,2.97-16.72.47-4.41-1.05-9.41,3.8-12.52,11.1-1.56,22.18-1.89,33.25.18,6.3,5.79,1.95,13.73,4.09,20.35.45.79.91,1.59,1.41,2.36,1.53,2.61,2.66,5.46,4.65,7.8,4.41,6.52,11.15,8.08,18.37,8.6,7.25,1.32,11.26-1.88,12.52-8.95.29-1.88.8-3.7,1.41-5.5,1.46-5.04.6-10.21.9-15.31.2-3.3.04-6.71,3.03-9.09,11.8-2.66,23.65-1.86,35.49-.48,6.74,5.08,2.44,12.5,3.99,18.67.69.5,1.3,1.05,1.9,1.63,1.71,2.61,2.48,5.49,2.59,8.57,2.7,8.98,6.36,11.36,15.48,10.02,15.11-2.87,19.36-8.12,19.87-23.28.21-6.31-2.09-13.16,2.93-18.78,6.99-1.66,14.07-.58,21.12-.7,1.68.21,3.22.78,4.6,1.74Z"/>
    <path class="cls-62" d="M167.05,741.04c1.73-6.82,4.84-12.32,12.73-13.19,7.92-.29,15.89-2.17,23.72.65,5.29,6.43,2.63,13.77,2.33,20.85,0,.18.12.52.22.53.29.05.6-.04.92-.07,1.21.47,2,1.36,2.66,2.41,9.59,15.27,12.83,16.5,29.95,11.37,7.73-2.98,8.19-9.65,8.85-16.52.62-6.4-2.63-13.65,3.72-18.96,11.13-1.55,22.24-1.95,33.34.22,6.25,5.87,1.75,13.92,4.15,20.55.51.77,1,1.56,1.5,2.33,4.38,9.76,11.19,16.12,22.55,16.12,6.92,1.61,10.9-1.42,12.65-7.99.24-1.73.71-3.4,1.23-5.07.22-.9.5-1.78.81-2.65,1.45-7.21-1.16-14.8,2.06-21.85.71-.85,1.57-1.46,2.59-1.88,11.59-1.09,23.18-1.79,34.72.41,3.93,2.7,3.27,6.9,3.39,10.77.15,5.17-.17,10.38,1.89,15.28.32.83.64,1.69.99,2.51,3.52,6.21,7.1,12.33,15.93,10.49,11.64-.04,18.45-6.57,22.56-16.76.52-.68,1.08-1.32,1.64-1.97,2.54-6.43-1.95-14.1,3.58-19.98,7.91-1.7,15.87-.58,23.81-.55,4.53-.73,6.84,1.51,7.65,5.74,4.3,6.64,6.69,13.89,6.25,21.83-.69,12.56,1.88,25.26-1.66,37.68-3.83,13.78-13.45,17.02-26.85,16.95-75.65-.43-151.3-.27-226.95-.14-10.31.02-20.49.26-29.72-5.3-2.21-2.21-2.85-5.06-3.31-7.99-1.54-18.61-1.77-37.22.1-55.82Z"/>
    <path class="cls-62" d="M852.96,280.19c-5.74,17.42-11.56,34.81-17.16,52.28-2.11,6.57-3.83,9.52-10.74,3.35-7.94-7.1-17.36-12.54-26.13-18.71-.85.16-1.64,0-2.38-.44-2.77-2.67-4.23-6.01-4.94-9.73-.08-.64-.15-1.29-.23-1.93.45-4.6.29-9.39,3.91-13.05,1.6-4.34,3.77-8.57,4.71-13.05,3.11-14.89,13.52-21.24,27.1-24.22,9.79-.89,19.57-1.5,29.38-.25,1.07.37,2.01.95,2.83,1.72-.51,4.72-1.4,9.31-4.12,13.34-2.56,2.27-1.54,4.95-.86,7.59,0,1.23-.16,2.4-1.38,3.07Z"/>
    <path class="cls-11" d="M170.26,804.85c.32-1.97.9-4.26,3.21-1.82,5.11,5.41,11.53,5.22,18.15,5.22,78.72-.06,157.45-.29,236.17.22,12.49.08,21.13-2.85,25.08-15.22.52.45.71.91.56,1.39-.15.48-.31.73-.48.73.57,9.6-7,16.45-19.25,16.65-16.79.27-33.59.07-50.39.07-64.7,0-129.4-.06-194.11.08-7.47.02-13.91-1.54-18.94-7.31Z"/>
    <path class="cls-36" d="M488.21,842.33c37.02,15.23,75.45,7.95,113.49,7.27,13.69-.25,26.92-3.19,40.29-5.48,7.79-1.33,16.66,4.5,20.41,12.73.85.86.78,1.64-.21,2.34-4.54-2.95-6.6-9.16-12.91-9.77-3.73-.5-7.48,1.47-11.21-.04-3.39-.2-6.73-.07-9.82,1.59-.93,1.42-2.65,1.08-3.91,1.76-5.13,2.59-10.91.37-16.15,2.21-4.1.19-8.24-.37-12.26.91-3.82-.12-7.5,1.35-11.34,1-17.24,0-34.48.03-51.72-.01-3.26.19-6.36-1.19-9.62-.97-4.39-1.36-8.95-.68-13.42-.97-1.89-.16-3.69-.95-5.61-.92-3.08-1.21-6.39-.59-9.55-1.23-.87-.37-1.56-.95-2.08-1.73-1.46-2.89-2.92-5.78-4.38-8.68Z"/>
    <path class="cls-47" d="M331.27,722.19c13.72,0,27.45,0,41.17,0,8.47,2.08,17.08.37,25.6.97,3.32.23,6.76-.87,9.94.89,0,.51-.02,1.03-.03,1.54-4.18,4.47-9.66,2.63-14.64,2.88-5.76.29-11.54.09-17.32.1-28.51-2.32-57.03.91-85.54-.07-14.3-1.16-28.61-1.11-42.91-.06-13.8-.02-27.61.58-41.39-.35-6.5-2.06-13.16-1.65-19.83-1.19-1.06.01-2.01-.31-2.84-.97,1.18-5.69,5.78-3.64,9.05-3.66,32.53-.14,65.06-.08,97.59-.08,13.71,1.55,27.43,1.55,41.14,0Z"/>
    <path class="cls-14" d="M170.18,932.04c20.32,9.73,41.97,4.8,62.97,5.01,65.95.65,131.91.22,197.87.31,3.55,0,7.53-1.48,10.61,1.77,0,0,.06.06.06.06-3.77,2.82-8.19,2.6-12.53,2.6-78.36.02-156.71,0-235.07.06-5.06,0-9.82-1.05-14.56-2.56-4.12-1.12-8.68-1.68-9.35-7.25Z"/>
    <path class="cls-37" d="M179.53,939.29c87.39-.03,174.77-.07,262.16-.1-.7,1.62-1.11,3.55-3.5,3.48-.61.05-1.22.09-1.83.14-81.29.19-162.58.04-243.87.06-3.09,0-6.28.37-9.01-1.65-1.32-.64-2.64-1.29-3.96-1.93Z"/>
    <path class="cls-8" d="M439.78,855c-1.24-.1-2.48-.2-3.72-.3-10.87-1.96-21.61.84-32.39.9-61.99.33-123.99.16-185.98.17-4.11,0-8.09-.33-11.68-2.59h-21.62c3.56-2.88,6.32-1.87,8.8-1.87,78.36-.07,156.71-.07,235.07,0,4.13,0,8.98-1.54,11.52,3.7Z"/>
    <path class="cls-47" d="M438.2,942.67c-2.35,2.94-5.67,2.07-8.68,2.07-79.09.04-158.19.04-237.28-.01-2.98,0-6.32,1.04-8.74-1.86,2.3-1.42,4.85-.85,7.3-.86,79.99-.03,159.99-.03,239.98,0,2.46,0,4.99-.43,7.37.67h.06Z"/>
    <path class="cls-77" d="M435.43,815.45h-249.45c0-.3,0-.61,0-.91h249.82c-.12.3-.25.61-.37.91Z"/>
    <path class="cls-45" d="M438.14,942.68c-84.88.06-169.76.13-254.64.19,0-.55,0-1.1,0-1.65,82.91-.06,165.83-.13,248.74-.16,2.05,0,4.45-.76,5.91,1.62Z"/>
    <path class="cls-35" d="M662.19,859.18c.07-.78.14-1.56.21-2.34,8.27,8.17,6.33,19.58,9.03,29.46,2.93,10.69,4.01,21.87,6.03,32.82,2.69,14.57,9.34,19.98,24.39,20.03,6.86.02,13.71-.09,20.57.02,14.59.25,29.22.88,43-5.34-1.99,5.08-7.4,5.06-11.16,7.5-4.99,2.69-10.4,1.42-15.62,1.49-12.78.18-25.56.1-38.34.04-3.38-.02-6.92.54-9.92-1.75-10.46-3.31-14.4-11.6-16.48-21.4-.62-2.91.54-6.29-2.12-8.7-1.12-1.08-1-2.3-.39-3.57-3.07-16.09-6.13-32.18-9.2-48.27Z"/>
    <path class="cls-54" d="M206.02,853.18c73.09,0,146.18-.02,219.26.05,3.6,0,7.5-1.23,10.79,1.47-7.54.21-15.08.42-22.62.63-6.14,4.22-13.11,2.31-19.74,2.52-7.06.22-14.14.44-21.2-.25-13.69-1.54-27.42-.5-41.12-.62-13.72,1.33-27.46.39-41.2.57-14.33-1.12-28.66-1.1-42.99,0-9.58.16-19.16.09-28.73.02-3.64-.03-7.5.55-10.56-2.3-.67-.2-1.35-.39-2.02-.59.04-.5.09-1,.14-1.5Z"/>
    <path class="cls-50" d="M441.62,684.78c1.22.11,2.45.22,3.67.32-2.01,2.07-4.62,1.52-7.06,1.52-66.99.02-133.99.01-200.98,0-.9,0-1.8-.21-2.69-1.84,69.02,0,138.04,0,207.06,0Z"/>
    <path class="cls-78" d="M488.31,713.08c6.65.66,7.08,7.01,8.15,10.96,7.91,29.25,6.89,58.81,1.4,88.36-.33,1.78-.94,4.01-2.22,4.98-1.55,1.19-1.37-.99-1.71-1.93-1.52-2.68-.58-5.57-.71-8.36.82-1.73,1.82-3.38,2.25-5.28.84-4.43.28-8.91.44-13.36,0-5.29,0-10.56,0-15.85-.15-11.39.33-22.79-.27-34.18-.4-1.07-.34-2.12.2-3.13-.06-8.24-4.79-14.89-7.53-22.22Z"/>
    <path class="cls-78" d="M965.31,626.74c-1.75-.19-3.46-.99-1.62-2.67,5.76-5.24,5.59-11.94,5.55-18.85-.12-20.74-.1-41.47.01-62.21.02-3.27-1.17-6.87,1.63-9.73,2.71,3.49,2.19,7.62,2.2,11.61.04,22.3.03,44.59.04,66.89.94,1.34.94,2.59-.36,3.71-2.85,3.5-2.57,9.08-7.45,11.24Z"/>
    <path class="cls-66" d="M585.68,855.18c3.39-.13,6.79-.25,10.18-.38,3.96-1.6,8.32.23,12.26-1.45,5.44-2.25,11.59,1.55,16.88-1.96.65.38.86.75.64,1.12-.22.37-.43.55-.65.55-5.08,3.68-11.39,2.93-16.87,3.41-34.56,2.99-69.19,4.21-103.69-1.24-3.04-.48-6.23,0-9.29-.4-1.85-.24-4.96-.41-2.54-3.83.55-.14,1.04-.02,1.46.35,3.25,1.84,7.03.06,10.33,1.53,1.54.11,3.09.23,4.63.34,4.54,2.04,9.55-.22,14.11,1.57,2.78.11,5.56.22,8.34.32,18.07,1.41,36.13,1.26,54.2.06Z"/>
    <path class="cls-67" d="M376.18,726.17c10.59-.19,21.19-.39,31.78-.58,11.1,2.09,22.62-1.47,33.59,2.5-7.88,3.45-16.17.65-24.22,1.58-2.6,6.66.68,13.87-1.9,20.53-.56.02-1.11.06-1.67.11-3.22-2.8-3.03-6.71-2.83-10.3.4-7.4-3.16-9.56-10.05-9.57-7.94-.02-16.04,1.48-23.82-1.51-1.08-.67-1.37-1.58-.88-2.75Z"/>
    <path class="cls-85" d="M204.06,725.85c14.34.12,28.69.23,43.03.35.47,1.19.15,2.1-.96,2.74-12.88,3.32-26.02.65-39,1.76-1.12-.04-2.14-.39-3.05-1.04-8.06-1.07-16.45,2.18-24.29-1.82,1.24-.64,2.47-1.28,3.71-1.93.63-.03,1.26-.05,1.88-.08,6.23-1.35,12.46-1.37,18.68.01Z"/>
    <path class="cls-71" d="M593.19,297.48c-1.26-.04-2.52-.09-3.78-.13-21.18-1.19-42.37-1.33-63.55.06-1.27.15-2.54.29-3.81.44,1.3-2.57,2.59-5.15,3.89-7.72,2.49,3.36,5.91,3.8,9.87,3.76,15.89-.17,31.78-.14,47.67,0,3.27.03,6.94-1.24,9.7,1.82.66.4.88.79.66,1.19-.21.4-.43.6-.65.6Z"/>
    <path class="cls-22" d="M972.75,615.5c.12-1.24.24-2.48.36-3.71,2.96-3.19,1.6-7.13,1.62-10.72.13-20.69.07-41.38,1.91-62.07,0,23.58,0,47.15,0,70.73,0,2.78-1.28,4.73-3.89,5.77Z"/>
    <path class="cls-44" d="M497.58,772.65c0,5.63,0,11.26-.01,16.89-1.87,4.48.27,9.38-1.43,13.88.33,1.58-.09,2.7-1.83,3.01-.75.97-1.46.94-2.13-.09,3.75-9.57,1.28-19.53,1.78-29.3.4-7.7.1-15.43.11-23.14,1.05-.61,1.9-.4,2.54.63.82,6.01-.75,12.15.96,18.12Z"/>
    <path class="cls-33" d="M452.95,795.37c-.03-.71-.06-1.41-.09-2.12,0-11.08-.27-22.17.09-33.24.29-9.01-.5-17.74-3.76-26.19,4.24,2.29,4.81,6.61,5.91,10.64,2.08,16.84,3.3,33.67-.64,50.44-.5.18-1,.34-1.52.46Z"/>
    <path class="cls-40" d="M753.86,942.75c.94,1.89-.4,2.01-1.65,2.01-19.01,0-38.02,0-57.03-.02-1.95,0-3.73-.36-4.61-2.41,21.1-.31,42.2-1.09,63.29.42Z"/>
    <path class="cls-27" d="M753.86,942.75c-21.1-.14-42.19-.28-63.29-.42-.04-.41-.1-.81-.18-1.21,21.29.07,42.59.14,63.88.22-.13.47-.27.94-.41,1.41Z"/>
    <path class="cls-2" d="M164.94,923.96c-.94.69-1.94.36-1.94-.61-.08-16.89-.06-33.79-.04-50.69,0-.24.24-.67.4-.69.51-.06,1.04.03,1.57.07,3.24,5.78,1.76,12.1,1.58,18.1-.34,11.27,2.02,22.7-1.57,33.82Z"/>
    <path class="cls-1" d="M166.99,870.08c3.3,8.99,1.36,18.31,1.36,27.44,0,9.44,1.95,19.07-1.34,28.38-.34-.44-.56-.94-.64-1.49-1.03-17.61-1.01-35.22-.02-52.83.08-.56.29-1.06.63-1.5Z"/>
    <path class="cls-1" d="M167.05,741.04c2.39,18.61,2.58,37.22-.1,55.82-.34-.44-.55-.93-.63-1.48-2.42-17.61-2.59-35.22.08-52.82.08-.56.3-1.06.65-1.51Z"/>
    <path class="cls-2" d="M164.91,794.93c-.97.68-1.92.3-1.92-.67-.07-16.9-.04-33.79-.02-50.69,0-.24.26-.66.42-.68.52-.04,1.05.07,1.57.12,1.18,17.31,1.25,34.61-.05,51.92Z"/>
    <path class="cls-58" d="M166.35,871.59c0,17.61.01,35.22.02,52.83-.49-.12-.97-.27-1.44-.45,0-17.31,0-34.62,0-51.93.47-.18.94-.33,1.43-.45Z"/>
    <path class="cls-39" d="M456.58,744.67c2.93-.64,1.86,1.68,1.86,2.79.07,13.96.05,27.91.04,41.87,0,2.17.13,4.41-2.13,5.75-.92-16.81-1.34-33.61.23-50.41Z"/>
    <path class="cls-29" d="M456.27,871.89c2.7,1.54,2.2,4.19,2.21,6.61.03,13.01.03,26.02,0,39.02,0,2.41.49,5.07-2.22,6.6-2.41-17.41-2.47-34.82.02-52.23Z"/>
    <path class="cls-51" d="M456.27,871.89c0,17.41,0,34.82-.01,52.23-.46,0-.9.06-1.34.16-.17-.71-.33-1.43-.5-2.14-.98-16.08-.9-32.16-.03-48.24.19-.72.37-1.45.56-2.17.44.11.88.17,1.33.17Z"/>
    <path class="cls-58" d="M164.91,794.93c.02-17.31.03-34.61.05-51.92.47-.18.96-.33,1.44-.46-.03,17.61-.05,35.22-.08,52.82-.48-.11-.96-.25-1.42-.44Z"/>
    <path class="cls-43" d="M774.42,895.34c.16-1.62.32-3.24.47-4.86,1.57-3.26-.03-6.96,1.41-10.25.14-1.57.28-3.14.42-4.71,1.65-3.28.02-7.03,1.47-10.35.12-1.52.24-3.04.35-4.56,1.59-.35,2.53-.07,1.76,1.84.67,15.13-4.48,29.77-3.79,44.9-2.25.48-2.63-.97-2.75-2.68.11-3.12-.46-6.29.66-9.34Z"/>
    <path class="cls-51" d="M456.58,744.67c-.08,16.8-.15,33.6-.23,50.41-.63-.06-1.26-.11-1.89-.17.21-16.81.42-33.63.64-50.44.49.05.99.12,1.48.2Z"/>
    <path class="cls-47" d="M407.99,724.05c-11.82-1.05-23.87,2.19-35.54-1.86,13.01,0,26.01,0,39.17,0-.39.74-.54,1.48-.88,1.57-.88.25-1.83.21-2.75.29Z"/>
    <path class="cls-47" d="M331.27,722.19c-13.71,3.07-27.43,3.07-41.14,0,13.71,0,27.43,0,41.14,0Z"/>
    <path class="cls-49" d="M778.28,210.59c-9.17-.23-18.34-.45-27.51-.68-1.81-1.05-4.32.54-6.4-2.13,9.94,0,19.32,0,28.71,0,2.26,0,4.29.37,5.2,2.82Z"/>
    <path class="cls-86" d="M829.32,252.9c-.93-.38-2.48-1.77-1.9-1.75,11.09.45,22.36-2.48,33.26,1.55-10.44,2.8-20.89,2.91-31.36.2Z"/>
    <path class="cls-31" d="M829.32,252.9c10.45-.07,20.91-.13,31.36-.2-.46,1.16-.91,2.32-1.36,3.48-.76.07-1.53.14-2.3.22-6.19-2.07-12.57-.36-18.83-.99-3.21-.32-6.66,1.18-9.61-1.18.17-.49.41-.93.74-1.33Z"/>
    <path class="cls-56" d="M774.64,905.48c.62.62,1.25,1.25,1.87,1.87-2.05,3.31-1.91,6.99-1.87,10.67.03,2.78.24,5.73-3.69,6.17-.91-6.41.65-12.55,2.1-18.69.52-.85,1.05-.85,1.59-.01Z"/>
    <path class="cls-47" d="M785.62,803.53c.17-1.53.34-3.07.51-4.6,4.9,10-1.89,19.9-.27,29.87-1.08.72-1.95.51-2.59-.62-.19-3.19-.56-6.4.48-9.53.15-1.62.31-3.23.46-4.85,1.63-3.26.02-6.98,1.41-10.27Z"/>
    <path class="cls-15" d="M780.3,862.46c-.59-.61-1.17-1.23-1.76-1.84-1.11-5.83.88-11.29,1.99-16.85.41-.63.98-.82,1.69-.59.77.69,1.04,1.74,1.77,2.46-3.94,5.01.46,11.86-3.69,16.83Z"/>
    <path class="cls-30" d="M820.21,767.12c4.94-4.98,8.96-11.06,16.09-13.42-4.8,5.15-7.35,12.99-16.09,13.42Z"/>
    <path class="cls-6" d="M828.58,254.23c9.4,1.8,19.23-2.13,28.44,2.17-9.95-.95-20.12,1.98-29.92-1.69.44-.33.93-.49,1.48-.48Z"/>
    <path class="cls-30" d="M300.68,383.65c-4.25,4.8-8.66,9.43-14.26,12.73,2.88-6.34,6.53-11.82,14.26-12.73Z"/>
    <path class="cls-9" d="M179.44,856.71h22.73c-8.08,1.45-16.19,3.74-24.16.5.38-.43.86-.6,1.43-.5Z"/>
    <path class="cls-4" d="M608.07,359.04c-4.92,2.51-9.88,2.76-14.89.25,4.91-2.97,9.88-2.67,14.89-.25Z"/>
    <path class="cls-7" d="M282.33,400.48c-2.4,4.73-6.53,7.95-10.16,11.6-.23-7.04,4.86-9.4,10.16-11.6Z"/>
    <path class="cls-7" d="M836.13,753.92c1.64-6.4,7.16-9.67,11.29-14.07-.52,7.29-6.36,10.32-11.29,14.07Z"/>
    <path class="cls-75" d="M761.47,265.74c-.62-4.92,2.27-8.8,3.89-13.06,2.31,5.43,1.71,9.99-3.89,13.06Z"/>
    <path class="cls-57" d="M826.99,389.36c-5.71-1.15-8.9-5.56-12.42-9.56,7.15-.73,8.82,5.67,12.42,9.56Z"/>
    <path class="cls-76" d="M772.69,230.19c-.59-4.91,2.26-8.8,3.89-13.06,2.33,5.43,1.73,9.99-3.89,13.06Z"/>
    <path class="cls-16" d="M795.29,291.97c-1.09,4.41-1.48,9.04-3.91,13.05-2.24-5.41-1.71-9.99,3.91-13.05Z"/>
    <path class="cls-10" d="M791.61,306.95c2.27,2.81,5.1,5.3,5.48,9.23-2.74,2.1-4.17.32-5.46-1.85-2.1-2.46-1.87-4.92-.02-7.38Z"/>
    <path class="cls-44" d="M783.99,845.63c-.63-.62-1.25-1.25-1.88-1.87-1.56-3.34-1.08-6.72-.22-10.11.16-1.61.31-3.23.47-4.84.54-.9,1.08-.95,1.63-.01.62,0,1.25,0,1.87,0-3.08,5.34-1.43,11.2-1.87,16.84Z"/>
    <path class="cls-50" d="M495.71,753.75c-.54.1-1.09.15-1.64.16.9-6.18-1.97-12.71,1.78-18.62.4.46.48.96.23,1.51.95,5.67,1.58,11.33-.37,16.94Z"/>
    <path class="cls-55" d="M473.5,698.2c4.28,1.7,7.13,4.83,8.97,8.96-4.88-1.09-7.86-4.09-8.97-8.96Z"/>
    <path class="cls-48" d="M638.08,849.37c3.74-1.47,7.48-1.8,11.21.04-3.75,2.79-7.48,2.8-11.21-.04Z"/>
    <path class="cls-41" d="M639.53,323.77c-1.37,3.73-3.97,6.45-7.14,8.69-1.47-6.06,3.14-7.12,7.14-8.69Z"/>
    <path class="cls-15" d="M852.96,280.19c.06-1.08.11-2.15.17-3.23-.89-2.08.28-3.04,2-3.72,3.76,3.41.11,6.36-.82,9.39-.08.27-1.02-1.49-1.34-2.44Z"/>
    <path class="cls-70" d="M290.44,366.59c3.08.21,4.6,3.02,7.07,4.24-4.16,1.58-7.15,1.24-7.07-4.24Z"/>
    <path class="cls-76" d="M791.62,314.33c1.78.74,3.21,2.51,5.46,1.85.62.31,1.23.62,1.85.93-3.98,3.06-6.09,2.26-7.31-2.78Z"/>
    <path class="cls-5" d="M591.19,319.98c.13-4.25,3.56-6.42,5.89-9.28,2.45,5.89-3.15,6.68-5.89,9.28Z"/>
    <path class="cls-4" d="M593.19,297.48c0-.6-.01-1.2-.01-1.8,3.57,0,7.15,0,11.1,0-1.71,2.81-4.32,1.15-6.05,2.23-1.68-.14-3.36-.29-5.03-.43Z"/>
    <path class="cls-5" d="M692.46,258.31c-.11,3.6-2.56,5.73-4.97,7.87-2.39-5.18,2.6-5.7,4.97-7.87Z"/>
    <path class="cls-68" d="M849.3,414.57c-2.8-2.43-5.69-4.79-6.98-8.47,4.78.8,7.09,3.64,6.98,8.47Z"/>
    <path class="cls-63" d="M207.57,555.66c-2.76-3.56-1.68-7.4-.72-13.46.61,4.2.9,6.24,1.19,8.27.79,1.81,1.3,3.6-.47,5.18Z"/>
    <path class="cls-55" d="M630.72,333.13c-.1,3.6-2.54,5.73-4.96,7.88-2.41-5.18,2.59-5.7,4.96-7.88Z"/>
    <path class="cls-60" d="M855.12,273.25c-.67,1.24-1.33,2.48-2,3.72-3.51-3.65-1.09-5.65,2.07-7.44-.03,1.24-.05,2.48-.08,3.72Z"/>
    <path class="cls-38" d="M785.86,359.01c-1.87-1.14-3.75-2.29-5.62-3.43,4.34-2.9,5,.24,5.62,3.43Z"/>
    <path class="cls-79" d="M208.07,605.77c-.35,1.45-.69,2.9-1.28,5.37-1.04-4.35-1.75-7.58.8-10.52,1.75,1.57,1.23,3.34.48,5.15Z"/>
    <path class="cls-34" d="M701.23,248.97c-.5,2.72-2.56,4.27-4.48,5.92-2.76-5.19,1.84-4.81,4.48-5.92Z"/>
    <path class="cls-55" d="M718.14,228.4c-.42,2.78-2.61,4.26-4.43,6-3.02-5.32,1.79-4.86,4.43-6Z"/>
    <path class="cls-4" d="M624.99,853.07c.01-.56.01-1.12.01-1.67,1.09-.14,2.17-.29,3.26-.43,2.01.3,4.02.61,6.66,1.01-3.62,1.99-6.85.79-9.93,1.1Z"/>
    <path class="cls-89" d="M665.72,291.99c-.47,2.75-2.58,4.26-4.45,5.96-2.89-5.25,1.81-4.83,4.45-5.96Z"/>
    <path class="cls-15" d="M752.09,295.66c-.15-2.71.65-5.16,2.06-7.44,3.52,3.65,1.08,5.64-2.06,7.44Z"/>
    <path class="cls-34" d="M267.23,417.32c-.5,2.71-2.57,4.25-4.43,5.95-2.89-5.24,1.81-4.82,4.43-5.95Z"/>
    <path class="cls-82" d="M492.17,806.36c.71.03,1.42.06,2.13.09-.12,3-.24,6.01-.37,9.01-.5.35-1.03.64-1.59.87-.06-3.32-.11-6.64-.17-9.96Z"/>
    <path class="cls-7" d="M682.61,271.42c-.66,2.97-2.77,4.8-5.05,6.52-.29-3.7,1.04-6.15,5.05-6.52Z"/>
    <path class="cls-7" d="M620.88,346.24c-.65,2.98-2.79,4.82-5.06,6.55-.29-3.71,1.03-6.18,5.06-6.55Z"/>
    <path class="cls-65" d="M208.07,605.77c-.16-1.72-.32-3.43-.48-5.15.18-1.25.35-2.49.53-3.74,2.7,3.05,1.32,6.64,1.32,10.05-.45-.39-.9-.78-1.36-1.17Z"/>
    <path class="cls-65" d="M207.57,555.66c.16-1.73.31-3.46.47-5.18.45-.41.91-.82,1.37-1.21,0,3.43,1.42,7.05-1.31,10.13-.18-1.24-.35-2.49-.53-3.73Z"/>
    <path class="cls-50" d="M744.8,327.46c-1.07-3.1-.99-6.18.1-9.26,2.5,3.11,2.61,6.2-.1,9.26Z"/>
    <path class="cls-69" d="M671.4,907.46c.13,1.19.26,2.38.39,3.57-.15,1.18-.29,2.36-.58,4.6-1.79-3.48-1.93-5.85.19-8.17Z"/>
    <path class="cls-39" d="M656.41,303.22c-.69,2.92-2.77,4.77-5.03,6.48-.31-3.7,1.04-6.12,5.03-6.48Z"/>
    <path class="cls-5" d="M601.03,306.87c.08-2.66,2.37-3.76,3.83-5.45,2.48,4.46-.94,4.76-3.83,5.45Z"/>
    <path class="cls-80" d="M453.12,866.13c-1.32-1.85-2.64-3.7-3.96-5.55,3.18.52,6.38,1.03,3.96,5.55Z"/>
    <path class="cls-62" d="M464.4,393.11c-24.36,8.1-48.51,16.76-70.84,29.64-12.29,7.09-24.19,14.86-36.26,22.33-4.33-.32-8.6,1.64-12.95.27-14.35-4.87-19.28-18.84-11.3-31.95,3.44-1.51,5.79-4.13,7.56-7.35,7.23-7.34,17.85-10.14,24.48-18.3,11.59-3.04,21.12-10.38,31.84-15.27,24.85-11.34,50.87-18.99,77.15-25.96,1.14-2.1,3.15-1.96,5.1-1.95,2.38-.64,4.77-1.29,7.15-1.93,1.63-.12,3.12.19,4.24,1.48,5.93.95,11.87.27,17.65-.84,4.95-.95,9.74-1.62,14.69-.57,4.57.77,6.36,5.66,10.49,7.09,2.26,2.07,3.46,4.63,3.59,7.69-2.26,3.49.44,7.75-1.76,11.25l.05-.07c-1,2.38-2.7,4.56-2.12,7.39-.62,1.82-1.85,3.05-3.67,3.68-3.17-.66-5.55,1.73-8.43,2.2-5.69,1.42-11.57,1.35-17.32,2.25-2.2.43-4.41.58-6.82-.03.96.92,2.43.26,2.98,1.48-2.22,2.25-5.08,1.58-7.76,1.68-9.7-.26-19.02,1.32-27.73,5.82Z"/>
    <path class="cls-81" d="M490.2,344.56c-1.29-.65-2.58-1.29-3.87-1.94,3.9-4.38,7.8-8.76,11.69-13.14.58-1.57,1.28-2.94,3.36-2.04,3.88,6.81-5.92,6.65-5.28,11.99,6.22-.41,13-.9,19.79-1.31,7.55-.45,11.02,1.18,13.51,6.25-2.22,1.03-3.97-.68-5.96-1.01-.84-.13-1.66-.33-2.47-.6-3.43-.58-6.88-.25-10.32-.29-3.11.4-6.24.69-9.09,2.21-3.8.74-7.6,1.09-11.37-.12Z"/>
    <path class="cls-62" d="M733.46,497.74c-4.38-4.81-6.19-10.74-7.34-16.95-.21-8.66.33-17.32.07-25.98,1.92-9.95,6.17-18.48,14.86-24.3,3.7.87,5.92-2.54,9.13-3.13,4.29-2.1,8.78.94,13.09-.52,2.24.67,4.42,1.44,5.91,3.41,3.31,5.6,9.22,9.44,10.92,16.14,5.66,14.37,2.57,29.11,1.86,43.75-.47,3.28-3.43,4.97-4.89,7.61.57,5.86-3.11,8.15-7.96,9.46-8.76,4.45-17.5,5.84-26.18-.2-2.25-4.02-5.68-6.84-9.46-9.29Z"/>
    <path class="cls-62" d="M781.96,490.16c-.47-8.7-2.37-17.63-.96-26.01,1.19-7.07-.07-12.77-2.61-18.81.67-1.05,1.37-1.07,2.1-.08,4.42,4.1,2.09,10.57,5.28,15.1.66.6.98,1.35.98,2.24-.68,3.77-.48,7.58-.49,11.38-.04.42-.08.85-.12,1.27-3.67,4.33-.52,10.57-4.18,14.91Z"/>
    <path class="cls-87" d="M525.86,297.4c3.83-3.22,8.43-1.8,12.58-1.62,16.98.72,34.09-2.3,50.96,1.56-21.18.02-42.36.04-63.55.06Z"/>
    <path class="cls-74" d="M464.4,393.11c-.74-.37-1.48-.75-2.22-1.12,9.77-2.91,19.17-8.22,29.95-4.69-9.24,1.94-18.49,3.88-27.73,5.82Z"/>
    <path class="cls-26" d="M726.19,454.81c2.63,8.67,2.75,17.33-.07,25.98-3.09-8.67-2.05-17.33.07-25.98Z"/>
    <path class="cls-26" d="M780.48,445.26c-.7.03-1.4.05-2.1.08-.79-6.41-9.29-8.12-9.21-15.07,5.42,3.76,9.96,8.17,11.31,14.99Z"/>
    <path class="cls-61" d="M763.27,426.86c-4.63,3.31-9.9.89-14.82,1.64-.55-.39-.73-.78-.55-1.16.18-.39.36-.58.55-.58,4.96-3.04,9.89-1.64,14.82.11Z"/>
    <path class="cls-32" d="M503.39,383.61c5.61-4.41,13.07.45,18.71-3.74.62.68,1.74.86,1.98,1.94-2.57,3.04-6.06,1.65-9.2,1.92-2.96,1.89-6.64-.39-9.58,1.64-.64.01-1.28.03-1.92.04-.65-.4-.87-.8-.65-1.2.22-.4.44-.6.66-.6Z"/>
    <path class="cls-35" d="M769.11,507.24c3.25-2.65,6.73-5.11,7.95-9.46,2.84,4.99-.56,9.03-7.95,9.46Z"/>
    <path class="cls-21" d="M733.46,497.74c6.04-.36,7.18,6.28,11.66,8.15-.14.26-.21.67-.42.75-.57.2-1.18.27-1.78.39-4.03-2.2-7.11-5.38-9.46-9.29Z"/>
    <path class="cls-73" d="M787.71,460.33c3.96,4.56,1.1,9.85,1.55,14.79.01.13-.43.43-.68.44-.28.01-.58-.2-.86-.31-2.94-4.97-2.31-9.94,0-14.91Z"/>
    <path class="cls-62" d="M523.96,342.51c1.82.62,3.63,1.25,5.45,1.87,1.33,1.8,2.66,3.6,3.99,5.4-4.68.84-6.3-3.62-9.44-5.45-.66-.4-.87-.81-.66-1.21.22-.4.43-.61.66-.61Z"/>
    <path class="cls-26" d="M340.62,406.04c-1.04,5.12-2.64,6.68-7.56,7.35,1.77-3.22,4.32-5.64,7.56-7.35Z"/>
    <path class="cls-59" d="M787.71,460.33c0,4.97,0,9.94,0,14.91,0,0-.8.01-.8.01,0,0-.8,0-.79,0,0,0-.49-.04-.49-.04-1.02-4.32-1.17-8.63.08-12.94.01-.64.03-1.27.04-1.9.65-.01,1.3-.02,1.95-.03Z"/>
    <path class="cls-73" d="M355.55,447.18c-3.22,4.16-7.41,1.13-11.15,1.47-.1,0-.34-.45-.33-.68.01-.27.23-.53.36-.79,3.71-2.46,7.41-2.46,11.11,0Z"/>
    <path class="cls-42" d="M344.35,445.35c4.26-3.04,8.58-2.75,12.95-.26-.5.22-1.02.36-1.56.41-3.83,1.16-7.66,1.17-11.49-.01l.1-.13Z"/>
    <path class="cls-46" d="M344.26,445.49c3.83,0,7.66,0,11.49.01-.08.56-.15,1.12-.2,1.68-3.71,0-7.41,0-11.11,0-.05-.56-.11-1.13-.18-1.69Z"/>
    <path class="cls-20" d="M535.23,368.71c.54-3.76-1.53-7.92,1.77-11.25-.16,3.82,1.87,7.98-1.77,11.25Z"/>
    <path class="cls-61" d="M748.45,426.74c0,.58,0,1.16,0,1.75-2.14,1.87-3.96,4.93-7.4,2.02,2.47-1.25,4.94-2.51,7.4-3.77Z"/>
    <path class="cls-61" d="M533.16,376.04c-2.86-3.48.13-5.29,2.12-7.39.07,2.69-.25,5.26-2.12,7.39Z"/>
    <path class="cls-87" d="M785.62,803.53c-.04,3.48,1.45,7.18-1.41,10.27-.18-3.51-.17-7,1.41-10.27Z"/>
    <path class="cls-87" d="M778.18,865.18c-.17,3.49,1.44,7.24-1.47,10.35-.13-3.54-.2-7.07,1.47-10.35Z"/>
    <path class="cls-87" d="M781.9,833.65c.07,3.37.15,6.74.22,10.11-.53,0-1.06,0-1.59,0-.2-3.46-.05-6.87,1.37-10.12Z"/>
    <path class="cls-87" d="M776.3,880.23c-.11,3.47,1.42,7.15-1.41,10.25-.18-3.5-.13-6.98,1.41-10.25Z"/>
    <path class="cls-87" d="M783.99,828.79c-.54,0-1.08,0-1.63.01-.18-3.47-.12-6.91,1.38-10.16.08,3.38.16,6.76.24,10.15Z"/>
    <path class="cls-62" d="M505.3,385.37c2.77-2.99,6.34-1.38,9.58-1.64-2.86,2.5-6.32,1.48-9.58,1.64Z"/>
    <path class="cls-87" d="M774.64,905.48c-.53,0-1.06.01-1.59.01-.2-3.47-.06-6.9,1.36-10.16.07,3.38.15,6.76.22,10.14Z"/>
    <path class="cls-61" d="M503.39,383.61c0,.6,0,1.2,0,1.8-1.16.07-2.33.13-3.49.2-1.36-.16-2.71-.32-4.07-.48.03-.51.05-1.02.08-1.52h7.49Z"/>
    <path class="cls-61" d="M524.09,381.81c-.66-.65-1.32-1.29-1.98-1.94,2.48.68,4.86-3.29,7.39-.16-1.8.7-3.6,1.4-5.41,2.09Z"/>
    <path class="cls-83" d="M372.58,855.41c13.62-.03,27.24-.06,40.86-.08.09,5.88.24,11.77.24,17.65,0,17.79-6.8,24.73-24.48,25.15-8.04.29-12.31-4.48-15.07-11.26-.63-3.13-1.25-6.26-1.88-9.39-2.38-7.39-2.99-14.76.33-22.07Z"/>
    <path class="cls-72" d="M329.27,884.85c-.5,1.3-1,2.61-1.5,3.91-.22,4.07-3,5.71-6.41,6.77-10.3,1.08-20.71,2.54-27.2-8.54-3.97-6.97-5.46-14.4-4.62-22.4.55-5.23,2.97-7.8,8.4-7.73,8.08.11,16.16.04,24.24.03,5.13,0,7.22,2.49,7.22,7.47.01,6.83-.09,13.66-.12,20.49Z"/>
    <path class="cls-72" d="M207.9,855.26c13.05,0,26.1.01,39.15.02,2.34.85,3.06,2.62,2.83,4.94-.09,6.53.44,13.09-.25,19.58-.35,3.29-1.09,6.84-4.36,8.9-3.51,1.24-5.01,5.79-9.35,5.66-1.31-3.64,1.47-5.8,3.19-8.18,4.39-6.08,5.14-13.48,2.99-19.6-3.8-10.78-13.92-3.48-21.05-5.11-4.6-1.05-8.24.6-8.8,6.64-1.34,14.48,3.5,21.23,17.92,23.72,2.17.37,4.28.74,5.84,2.49-.59.63-1.18,1.26-1.77,1.89-4.5,1.28-9,1.31-13.49-.01-7.39-2.07-11.21-7.6-13-14.46-2.28-8.76-2.98-17.68.17-26.48Z"/>
    <path class="cls-36" d="M329.27,884.85c-3.49-5.73-1.53-12.04-1.57-18.04-.04-5.8-1.46-8.58-7.82-8.18-7.09.44-14.23.27-21.34.05-4.71-.15-6.39,1.61-6.69,6.43-.52,8.24,1.48,15.88,3.88,23.55-.66.76-1.34.81-2.05.07-2.27-1.99-3.29-4.61-3.71-7.51-2.8-8.11-2.48-16.26-.3-24.43,13.49-1.8,27.03-.5,40.55-.72,1.32.48,1.76,1.38,1.3,2.71-1.38,8.63,1.85,17.67-2.25,26.07Z"/>
    <path class="cls-28" d="M290.25,856.86c-.09,8.12-.18,16.24-.27,24.36-.57-.03-1.13-.05-1.7-.04-2.58-7.32.75-15.14-1.9-22.45-11.85,0-23.7,0-35.55,0-.59.9-1.19.91-1.8.02-.66-1.16-1.33-2.32-1.99-3.48,14.4.03,28.8.06,43.2.1.57.33.76.65.57.99-.19.33-.37.5-.56.5Z"/>
    <path class="cls-24" d="M331.52,858.78c-.17-.64-.34-1.28-.51-1.92-.49-.36-.64-.69-.43-.99.19-.28.38-.43.56-.43,13.82-.01,27.63-.02,41.45-.04-.11,7.36-.22,14.71-.33,22.07-.56-.03-1.12-.05-1.68-.06-2.59-6.03.78-12.66-1.88-18.69-12.39.02-24.79.03-37.18.05Z"/>
    <path class="cls-19" d="M293.69,888.72c.68-.02,1.36-.05,2.05-.07,7.45,7.94,17.2,4.88,26.18,5.48-1.37,3.4-4.02,4.39-7.43,3.97-8.63.64-16.01-1.52-20.8-9.38Z"/>
    <path class="cls-12" d="M454.39,873.89c.01,16.08.02,32.16.03,48.24-2.57-16.08-2.52-32.16-.03-48.24Z"/>
    <path class="cls-23" d="M249.04,858.75c.6-.03,1.2-.04,1.8-.02,0,6.85.25,13.72-.09,20.56-.19,3.83.41,8.67-5.48,9.42,5.28-9.48,3.06-19.9,3.77-29.95Z"/>
    <path class="cls-52" d="M314.5,898.11c2.48-1.32,4.95-2.65,7.43-3.97,2.65-1.03,4.19-3.27,5.84-5.38-.51,7.61-5.44,11.08-13.27,9.35Z"/>
    <path class="cls-23" d="M374.13,886.87c3.93,5.22,8.33,9.81,15.08,11.26-8.04,1.75-14.72-3.24-15.08-11.26Z"/>
    <path class="cls-21" d="M416.88,860.64v18.23c-.27,0-.54.01-.81.02v-18.23c.27,0,.54-.01.81-.02Z"/>
    <path class="cls-53" d="M286.39,858.73c3.91,7.21.88,15,1.89,22.45-3.96-7.2-.93-14.99-1.89-22.45Z"/>
    <path class="cls-23" d="M368.7,858.73c3.82,5.91,1.01,12.48,1.88,18.69-3.93-5.9-.97-12.48-1.88-18.69Z"/>
    <path class="cls-72" d="M220.73,896.21c4.5,0,8.99,0,13.49.01-4.5,2.76-9,2.75-13.49-.01Z"/>
    <path class="cls-72" d="M205.96,729.64c8.21-4,16.93-1.1,25.38-1.82,5.22-.45,10.51-.17,15.77-.22,2.13-.26,2.74.97,2.75,2.79.02,6.09.49,12.24-.12,18.27-.7,6.93-2.32,13.79-10.05,16.71-16.49,7.55-25.13,3.6-33.62-15.36-1.69-6.78-1.54-13.57-.11-20.37Z"/>
    <path class="cls-72" d="M376.18,727.54c9.86.06,19.74.44,29.59.08,6.04-.22,8.39,1.8,7.91,7.9-.39,4.9.03,9.85.09,14.79-3.11,13.64-9.31,18.38-24.57,18.78-8.7.74-12.13-6.19-16.69-11.48l.05.08c-1.48-3.15-1.54-6.58-1.94-9.95-.04-4.84-.2-9.68.07-14.5.18-3.3.17-7.19,5.5-5.71Z"/>
    <path class="cls-72" d="M329.31,755.79c-.5,1.31-1,2.61-1.5,3.92-.69,4.14-3.17,6.3-7.32,6.62-4.32.57-8.67,1.08-13.01.61-10.61-1.15-16.16-9.8-12.76-19.69.51-1.47.97-2.95,1.41-4.44,1.44-4.84-1.13-12.2,4.94-14.03,7.95-2.39,16.64-1.61,24.92-.24,3.37.56,3.31,4.06,3.38,6.89.15,6.78-.06,13.57-.06,20.35Z"/>
    <path class="cls-72" d="M329.31,755.79c-3.62-5.06-1.79-10.84-1.57-16.17.31-7.43-1.63-11.23-9.7-10.01-2.12.32-4.36.28-6.49,0-8.52-1.08-14,.74-12.21,11.15.38,2.22-.59,4.9-1.58,7.08-4.53,9.93-.14,16.42,11,17.57,4.53.46,8.75-4.29,13.16-.3-.73,4.55-3.76,4.8-7.39,3.97-14.51-.35-20.17-4.26-24.52-16.93-2.64-8.2-2.78-16.41-.12-24.64,12.61-1.41,25.26-.29,37.88-.62,1.94-.05,3.77.22,3.75,2.85l-.28-.1c-2.57,8.03.66,16.47-1.75,24.52.05.55-.01,1.09-.18,1.62Z"/>
    <path class="cls-67" d="M331.52,729.75c-7.57-4.33-15.76-1.26-23.64-1.91-5.87-.49-11.82-.03-17.73,0-.41-.34-.55-.68-.42-1.03.13-.35.27-.52.4-.52,28.68-.04,57.36-.08,86.05-.12,0,.46,0,.92,0,1.37-5.5,1.22-3.37,5.67-3.64,8.95-.32,3.94-.19,7.93-.26,11.89-4.9-.95-2.04-4.78-2.55-7.26-.77-3.75.94-7.77-1.04-11.46-12.39.03-24.79.05-37.18.08Z"/>
    <path class="cls-64" d="M290.13,726.29c0,.52,0,1.03.02,1.55-.05,8.1-.1,16.21-.14,24.31-.56-.05-1.13-.06-1.69-.05-2.65-7.31.71-15.12-1.92-22.43-11.85,0-23.71,0-35.56,0-.58.88-1.18.89-1.79.03-.65-.7-1.29-1.4-1.94-2.11,0-.46-.01-.93-.02-1.39,14.35.03,28.69.06,43.04.09Z"/>
    <path class="cls-32" d="M249.05,729.7c.59-.04,1.19-.05,1.79-.03-1.03,10.3,2.81,21.19-3.4,30.84-1.68,2.62-2.28,7.91-7.75,4.85,11.78-9.62,8.61-23.15,9.36-35.67Z"/>
    <path class="cls-23" d="M368.7,729.67c4.82,5.54-.88,13.1,3.58,18.71.08,3.1.17,6.21.25,9.31-6.55-8.62-2.88-18.64-3.84-28.03Z"/>
    <path class="cls-25" d="M372.49,757.62c5.67,3.68,9.23,10.42,16.7,11.48-9.95,2.55-13.4-4.35-16.7-11.48Z"/>
    <path class="cls-72" d="M329.49,754.17c.87-8.15-2.22-16.59,1.75-24.52-.81,8.16,2.04,16.57-1.75,24.52Z"/>
    <path class="cls-20" d="M205.96,729.64c.04,6.79.07,13.58.11,20.37-.06.29-.1.6-.2.89-.32.87-1.59,1.48-1.61.65-.24-7.29-.16-14.58-.18-21.87.63,0,1.26-.02,1.88-.03Z"/>
    <path class="cls-23" d="M314.53,769.08c2.77-.75,5.54-1.49,7.39-3.97,2.67-1.03,4.22-3.28,5.89-5.4-.6,7.6-5.45,11.02-13.28,9.37Z"/>
    <path class="cls-21" d="M415.43,750.21c1.02-6.81-2.15-14.01,1.9-20.53-.11,6.8-.21,13.6-.35,20.4,0,.16-.43.42-.67.43-.29.01-.58-.19-.87-.3Z"/>
    <path class="cls-53" d="M286.4,729.68c3.92,7.2.87,14.99,1.91,22.43-4.02-7.19-.95-14.98-1.91-22.43Z"/>
    <path class="cls-87" d="M585.68,855.18c-13.81,3.84-27.9.88-41.84,1.56-4.08.2-8.61,1.6-12.36-1.62,18.07.02,36.14.04,54.2.06Z"/>
    <path class="cls-87" d="M523.13,854.8c-4.72-.36-9.73,1.83-14.11-1.57,4.77-.03,9.55-.26,14.11,1.57Z"/>
    <path class="cls-87" d="M608.12,853.36c-3.78,3.05-8.15,1.18-12.26,1.45,3.93-1.8,8.11-1.54,12.26-1.45Z"/>
    <path class="cls-87" d="M504.39,852.89c-3.5-.12-7.26,1.49-10.33-1.53,3.53-.1,7.06-.11,10.33,1.53Z"/>
    <path class="cls-87" d="M204.06,725.85c-6.23,0-12.46,0-18.68-.01,6.23-2.8,12.46-2.82,18.68.01Z"/>
    <path class="cls-72" d="M331.14,855.44c-.02.47-.06.95-.13,1.42-13.59,0-27.18,0-40.76,0-.03-.49-.03-.99,0-1.48,13.63.02,27.26.05,40.89.07Z"/>
    <path class="cls-87" d="M495.71,753.75c.12-5.65.25-11.29.37-16.94,2.92,11.85,1.35,23.88,1.5,35.85-3.44-6.02-.73-12.65-1.87-18.91Z"/>
    <path class="cls-87" d="M496.13,803.43c.24-4.65-1.76-9.53,1.43-13.88.32,4.71.45,9.4-1.43,13.88Z"/>
    <path class="cls-84" d="M523.96,342.51c0,.61,0,1.21,0,1.82-12.53-.14-24.79,2.57-37.29,3.66-.16-2.69,3.12-1.55,3.53-3.42,3.7-1.08,8.03,1.35,11.33-2.01,3.01-1.96,6.36-.59,9.53-1,3.75.37,7.62-.83,11.28.8.55-.06,1.1-.01,1.63.16Z"/>
    <path class="cls-62" d="M522.34,342.35l-11.75-.04c-.5-.77-.32-1.31.54-1.62,3.73.58,7.83-1.29,11.21,1.66Z"/>
    <path class="cls-72" d="M511.13,340.69c-.17.55-.35,1.09-.54,1.62-3.02.08-6.04.15-9.06.23,2.68-3.31,6.34-1.53,9.6-1.86Z"/>
    <path class="cls-17" d="M785.73,462.27c-.03,4.31-.05,8.63-.08,12.94-2.48-4.33-2.62-8.64.08-12.94Z"/>
    <path class="cls-72" d="M235.99,894.33c-22.39-.27-28.39-7.19-26.39-29.73.39-4.41,2.01-6.11,6.27-5.9,3.41.16,6.91-.43,10.24.12,6.3,1.03,16.23-4.02,18.23,3.32,2.5,9.18,3.96,20.58-5.7,28.51-1.15.94-1.82,2.46-2.72,3.71,0,0,.07-.04.07-.04Z"/>
  </g>
  <text class="cls-18" transform="translate(300.96 305.41)"><tspan x="0" y="0">₹</tspan></text>
</svg>