<?xml version="1.0" encoding="UTF-8"?>
<svg id="Layer_1" xmlns="http://www.w3.org/2000/svg" version="1.1" viewBox="0 0 56 56">
  <!-- Generator: Adobe Illustrator 29.4.0, SVG Export Plug-In . SVG Version: 2.1.0 Build 49)  -->
  <defs>
    <style>
      .st0 {
        fill: #042b62;
      }
    </style>
  </defs>
  <path class="st0" d="M33.9,12.2l-.3,1.4c-1.2-.3-2.4-.8-3.7-.7,2.8,3.7,4.5,8.4,4.6,13.1,2.7-2.3,6.3-2.1,8.9,0-.4-3.2-1.8-6.1-3.9-8.5,0-.1.7-1.2.8-1.1,2.4,2.5,4.1,5.9,4.5,9.4,0,.5.3,2.2-.1,2.5-.7.6-1.5-.7-2-1.1-2.6-2.2-5.2-2.2-7.7.1-.4.4-.9,1.3-1.5,1.1s-.8-1.2-1.2-1.6c-1.9-2.3-5.9-2.3-7.8,0s-.7,1.6-1.3,1.6-.9-.7-1.3-1.1c-2.5-2.4-5.2-2.4-7.8-.2s-1.4,1.8-2,1-.1-1.1-.1-1.5c.1-2.7,1.2-5.8,2.7-8.1,4.1-6.2,12-8.8,19.1-6.4ZM27,12.8c-6.9.6-12.7,6.3-13.4,13.2,2.7-2.2,6.3-2.4,8.9,0,0-3.6,1.1-7.2,2.9-10.4l1.7-2.7ZM28.6,13.1h-.2c-2,2.7-3.5,5.8-4.1,9.1-.2,1.1-.3,2.2-.5,3.3,2.6-2.5,6.6-2.5,9.3,0-.1-4.5-1.9-8.8-4.5-12.3Z"/>
  <path class="st0" d="M28.5,29.6c8.1,0,12.4,9.5,7.1,15.6-4.5,5.1-12.9,3.9-15.7-2.3-2.8-6.3,1.7-13.3,8.6-13.4ZM28.6,31c-6.3,0-10.3,6.8-7.1,12.2,3,5,10.3,5.3,13.6.4s-.1-12.5-6.5-12.6Z"/>
  <path class="st0" d="M40.5,9l-2.1,4.3c-.1.2.3.8.4.8h1.4l-3.6,5.2.6-3.7c0-.2-.4-.6-.6-.6h-1.9l1.6-5.9h4.2Z"/>
  <path class="st0" d="M27.6,33.3c-2.4.3-4.4,2.3-4.8,4.6-1,5.1,4.9,8.8,9.1,5.7,4.7-3.5,1.8-11-4.3-10.3ZM31.4,36h-1.9c.3.3.4.6.5,1.1h1.4v.9h-1.4c-.2,1.2-1.1,1.9-2.3,2,.8.9,1.8,2,2.7,3.2h-2c-.7-.8-1.6-2-2.6-3v-1.2h.7c1,0,1.5-.3,1.7-.9h-2.4v-.9h2.4c-.2-.4-.6-.7-1.5-.7h-.9v-1.3h5.6v.9Z"/>
</svg>