<?xml version="1.0" encoding="UTF-8"?>
<svg width="512" height="512" id="Layer_1" xmlns="http://www.w3.org/2000/svg" viewBox="0 0 1080 1080">
  <defs>
    <style>
      .cls-1 {
        fill: #252525;
      }

      .cls-2 {
        fill: #042b62;
      }

      .cls-3 {
        fill: #202020;
      }

      .cls-4 {
        fill: #bdc5c5;
      }

      .cls-5 {
        fill: #f7f8f8;
      }

      .cls-6 {
        fill: #fefefe;
      }

      .cls-7 {
        fill: #414141;
      }
    </style>
  </defs>
  <path class="cls-7" d="M46.18,740.68c19.4-25.81,46.62-43.17,70.17-64.47,21.41-19.36,43.63-37.85,65.86-56.28,4.72-3.91,2.93-7.37,1.9-11.4-20.49-79.99-12.22-156.93,24.46-230.86.55-1.11,1.25-2.14,1.87-3.2,2.62-.93,4.96.12,6.86,1.6,8.83,6.85,20.68,8.92,28.17,17.88.45,3.63-1.39,6.61-2.8,9.71-20.29,44.47-29.56,91.27-25.63,139.87,5.51,68.04,31.62,127.25,79.75,176.51,44.82,45.88,98.6,74.55,161.79,84.08,78.61,11.86,150.95-5.04,215.24-52.53,63.29-46.75,101.37-109.22,113.76-187.05,4.28-26.88,3.98-53.88.61-80.86-.3-2.4.1-5.62-2.28-6.75-2.69-1.27-4.2,1.88-6.11,3.28-1,.73.32-.07-.7.6-18.87,12.34-29.49,28.6-24.9,52.14-7.55,92.92-51.4,163.24-132.92,208.43-44.24,24.52-92.44,33.87-143.26,28.24-50.49-5.6-95.98-23.16-135.06-55.81-48.45-40.49-78.64-91.85-87.93-154.56-7.28-49.19-.48-96.73,20.32-142.06,2.29-5,3.83-10.63,8.86-13.97.86-.34,1.74-.85,2.64-.79,15.55.99,31.12.05,46.66.49,5.75,3.8,1,7.26-.85,10.07-12.27,18.63-20.95,38.79-27.08,60.17-3.96,13.82-4.98,28.03-7.15,44.81,9.05-6.67,15.5-13.1,22.3-18.96,33.44-28.82,66.73-57.81,100.29-86.49,25.36-21.67,70.07-19.25,92.66,10.03,17.09,22.15,35.67,43.14,53.34,64.85,4.77,5.86,8.45,5.92,13.69,1.16,17.49-15.88,35.59-31.07,53.19-46.82,9.72-8.71,19.32-17.56,29.33-25.94,7.21-6.04,7.39-8.02,1.64-15.33-35.29-44.9-81.91-70.07-138.08-76.86-18.34-2.22-37.25-1.99-55.83,1.07-4.11.68-8.46,2.86-12.64-.1-1.22-2.09-.96-4.3.12-6.18,7.55-13.11,11.81-27.65,18.03-41.34,2.46-2.85,5.8-3.37,9.29-3.55,41.04-2.13,80.55,4.32,118.27,20.99,26.12,11.55,49.41,27.46,70.97,46,9.48,8.15,16.89,18.22,24.95,27.67,5.97,6.99,7.19,7.25,14.03.79,3.85-3.64,7.82-7.14,12.08-10.26,6.11-4.46,6.35-8.65,1.35-14.51-21.76-25.48-46.1-47.99-75.13-64.89-42.63-24.81-88.29-39.66-138.06-40.33-7.13-.1-14.23-.8-21.4-.11-3.88.37-8.22.84-11.09-3.13-1.63-12.62-6.1-25.01-3-38,90.27-5.87,170.51,19.58,240.37,77.18,16.12,13.29,30.62,28.3,43.35,44.87,3.58,4.66,5.45,4.79,9.79.82,19.05-17.41,38.31-34.6,57.93-51.37,4.52-3.87,2.77-5.41-.2-8.36-9.93-9.87-19.6-19.99-29.51-29.87-6.8-6.78-9.65-14.5-5.8-23.66,3.85-9.18,11.49-12.43,20.98-12.42,53.81.02,107.62-.06,161.43.05,15.23.03,24.33,9.28,24.35,24.39.06,51.94.03,103.89.02,155.83,0,10.52-4.26,18.9-13.87,23.36-10.17,4.72-18.47.57-25.86-6.97-11.1-11.33-22.71-22.16-33.74-33.55-3.66-3.78-5.72-3.68-9.61-.22-29.51,26.23-59.22,52.25-88.99,78.19-3.89,3.39-5.23,6.45-3.98,11.93,20.67,90.21,6.47,174.59-43.43,252.65-3.88,6.07-3.08,9.15,1.75,13.62,10.5,9.7,20.57,19.88,30.62,30.05,2.86,2.9,5.49,4.08,9.76,3.38,13.48-2.21,25.3,1.99,34.89,11.49,40.22,39.83,81.44,78.74,120.08,120.06,44,47.04,16.34,118.07-41.3,133.93-30.7,8.44-56.82-.54-78.65-21.5-39.71-38.11-78.4-77.29-117.46-116.08-9.4-9.34-13.5-20.88-11.87-33.96.62-4.98-.76-8.03-4.18-11.29-10.8-10.3-21.45-20.76-31.86-31.46-3.15-3.24-5.07-3.41-9.08-.98-108.65,65.76-220.23,71.51-334.57,15.6-39.14-19.14-71.61-46.87-99.85-79.64-4.7-5.45-6.76-5.16-11.83-.74-32.09,27.99-64.41,55.73-96.92,83.24-16.91,14.3-24.36,13.57-39.15-3.01-15.94-17.87-31.69-35.9-47.31-54.04-3.39-3.93-5.89-8.63-8.8-12.98,0-1.87,0-3.73,0-5.6Z"/>
  <path class="cls-2" d="M244.74,393.56c-11.82-5.67-23.29-11.96-34.29-19.09-30.57-23.55-52.98-52.8-64.23-90.22-29.99-99.76,38.42-204.26,141.62-217.85,98.23-12.94,174.69,57.96,189.77,128.81.19.89.72,1.7,1.09,2.55,2.22,12.82,3.87,25.69,4.29,38.71,4.08,14.23,1.74,27.62-5.24,40.41-4.34,16.73-11.59,32.27-19.54,47.52-.83,6.9-5.64,11.62-9.6,16.63-26.54,33.59-60.77,55.03-102.65,64.09-3.46.75-7.21,2.61-10.61-.47-17.03,1.71-34.05.96-51.08.02-14.47.9-27.65-2.78-39.53-11.1Z"/>
  <path class="cls-4" d="M244.74,393.56c12.94,4.53,26.11,8.28,39.53,11.1-18.14,35.38-28.85,72.64-29.54,112.65-2.09,121.46,84.24,226.27,203.87,247.29,135.45,23.8,262.37-63.05,288.56-197.55,3.7-19,5.06-38.21,4.08-57.57-.15-2.97-1.36-6.05,1.63-8.66,11.43-9.98,22.72-20.11,34.88-30.9,3.42,10.24,3.87,19.77,4.67,29.12,13.01,153.24-100.85,291.67-254.13,309.16-152.62,17.41-290.23-82.33-319.38-232.3-12.34-63.49-2.82-124.4,25.84-182.34Z"/>
  <path class="cls-5" d="M959,328.13c-7.69-1.32-10.75-8.39-15.61-13.04-15.44-14.77-23.21-15.3-38.98-1.38-83.43,73.72-166.85,147.46-250.29,221.18-24.24,21.41-48.49,42.81-72.79,64.16-12.28,10.79-23.17,9.92-33.63-2.52-23.81-28.33-47.59-56.67-71.41-84.99-12.76-15.17-22.8-15.93-37.87-3.05-40.17,34.31-80.37,68.59-120.97,103.23-6.91-11.88-10.42-24.41-14.02-36.92-1.02-3.54.98-5.12,3.14-6.96,47.26-40.43,94.44-80.95,141.82-121.24,10.29-8.75,21.74-7.02,30.99,3.97,22.82,27.13,45.57,54.31,68.27,81.53,16.84,20.2,25.41,20.97,45.29,3.33,46.06-40.87,92-81.88,138.04-122.77,47.43-42.13,94.94-84.18,142.39-126.29,16.09-14.28,16.33-24.37,1.02-39.71-2.99-2.99-6.14-5.82-10.49-9.93h94.73c1.34,1.14,1.27,2.7,1.28,4.25,0,27.88,0,55.76,0,83.63,0,1.27-.23,2.45-.93,3.52Z"/>
  <path class="cls-5" d="M454.76,548.65c13.65,16.3,27.36,32.71,41.11,49.09,7.39,8.81,14.8,17.6,22.3,26.32,23.32,27.1,62.13,30.27,89.15,6.8,32.62-28.34,64.86-57.12,97.27-85.7,1.36-1.2,2.75-2.38,5.36-4.63-1.93,23.06-7.19,43.77-16.05,63.48-56.93,126.68-215.49,163.75-322.7,75.6-9.17-7.54-17.27-16.05-25.39-24.65-5.03-5.33-5.49-8.3.79-13.59,36.14-30.43,71.8-61.43,108.16-92.71Z"/>
  <path class="cls-5" d="M335.35,404.64c53.05-8.24,93.19-36.23,122.86-80.25,47.92-9.63,94.09-4.28,138.09,17.04,30.21,14.64,54.56,36.48,74.93,63.07,3.74,4.88.72,6.3-1.99,8.7-31.88,28.23-63.76,56.47-96.09,85.09-20.14-24.32-40.23-48.4-60.11-72.65-25.27-30.82-64.14-34.34-94.46-8.21-40.24,34.69-80.39,69.49-121.95,105.43.63-44.56,14.33-83.11,38.72-118.23Z"/>
  <path class="cls-4" d="M919.3,974.32c-13.78-.13-23.29-4.14-31.16-11.91-37.6-37.11-75.11-74.32-112.84-111.31-3.8-3.73-3.81-5.62.01-9.3,16.8-16.16,33.39-32.53,49.74-49.14,3.68-3.73,5.52-2.87,8.71.31,37.21,37.07,74.63,73.92,111.81,111.03,12.96,12.93,16.46,30.24,9.38,45.38-7.53,16.11-20.39,24.51-35.66,24.93Z"/>
  <path class="cls-4" d="M477.75,276.88c2.97-13.31,4.65-26.79,5.24-40.41,100.94-4.73,183.93,31.28,248.62,109.2,4.27,5.14,4.99,8.05-.94,12.29-6.79,4.86-13.1,10.53-19.03,16.44-4.74,4.73-7.1,4.07-11.12-1.2-32.29-42.36-74.34-70.9-125.09-86.69-31.87-9.92-64.49-12.86-97.68-9.63Z"/>
  <path class="cls-5" d="M124.71,776.82c-1.24-1.33-2.28-2.37-3.24-3.49-6.69-7.77-13.25-15.66-20.11-23.28-2.56-2.84-3.08-4.19.37-7.11,31.79-26.89,63.38-54.02,94.92-81.2,3.28-2.83,4.61-3.89,6.94,1.16,4.27,9.28,9.38,18.2,14.58,27.02,1.98,3.35,1.82,5.11-1.18,7.67-29.53,25.24-58.92,50.65-88.35,76-1.14.98-2.32,1.92-3.93,3.24Z"/>
  <path class="cls-5" d="M785.11,773.98c-1.3,1.37-2.12,2.27-2.98,3.13-7.48,7.48-15.06,14.86-22.38,22.48-2.48,2.58-4.01,2.8-6.64.11-8.9-9.13-17.91-18.16-27.2-26.89-3.39-3.19-2.08-4.72.57-7.23,7.21-6.84,14.22-13.91,21.19-21.01,2.34-2.39,3.96-4.38,7.33-.9,9.07,9.39,18.49,18.44,27.76,27.64.8.79,1.5,1.69,2.36,2.67Z"/>
  <path class="cls-3" d="M954.72,234.3h-88.4c0-.27,0-.54,0-.8h88.75c-.12.27-.23.54-.35.8Z"/>
  <path class="cls-1" d="M959,328.13c-.12-30.47-.23-60.94-.35-91.41,2.78,1.5,2.22,4.17,2.22,6.57.03,26.32.02,52.63.01,78.95,0,2.15.2,4.39-1.88,5.89Z"/>
  <path class="cls-6" d="M330.38,214.05c-24.41,0-47.42-.07-70.42.04-7.2.04-12.89-2.62-13.19-10.05-.29-7.41,4.9-10.74,12.32-10.71,20.84.1,41.69.09,62.53-.04,2.56-.02,6.25,1.63,7.5-1.43,1.09-2.65-1.79-5.06-3.44-7.22-6.65-8.72-15.57-13.1-26.54-13.15-13.07-.06-26.14-.22-39.2.05-7.81.16-13.35-2.87-13.22-10.81.12-7.34,5.44-10.32,12.86-10.28,34.22.16,68.44.1,102.66.05,7.33-.01,12.5,2.99,12.38,10.64-.12,7.63-5.4,10.53-12.7,10.35-5.85-.15-11.71-.03-18.12-.03,2.91,6.73,5.73,12.81,8.15,19.05,1.02,2.62,2.73,3.03,5.04,2.99,2.49-.04,4.99-.12,7.46.04,6.12.4,10.18,3.66,10.32,9.81.16,6.59-4.06,11.2-10.43,10.48-9.28-1.04-12.27,3.43-15.62,11.08-8.89,20.32-25.26,30.85-47.45,32.01-5.43.28-10.89.04-16.93.04,9.77,10.1,18.69,19.47,27.78,28.66,12.03,12.17,24.18,24.21,36.29,36.3,4.83,4.82,8.11,10.11,2.2,16.09-5.91,5.98-11.72,3.93-17.04-1.36-12.57-12.5-25.15-25-37.76-37.47-14.82-14.65-29.69-29.24-44.51-43.89-3.42-3.38-6.29-7.03-4.16-12.34,2.3-5.75,6.8-7.58,12.63-7.55,13.38.08,26.75.14,40.13-.02,14.15-.17,23.89-7.04,30.44-21.37Z"/>
</svg>