<?xml version="1.0" encoding="UTF-8"?>
<svg id="Layer_1" xmlns="http://www.w3.org/2000/svg" version="1.1" viewBox="0 0 56 56">
  <!-- Generator: Adobe Illustrator 29.4.0, SVG Export Plug-In . SVG Version: 2.1.0 Build 49)  -->
  <path d="M12.4,51.9c-1.2,0-3.9-.7-4.7-1.7s-.2-.4-.3-.6v-13c.3-.8,1-1.3,1.8-1.5s1.1-.4,1.3.2c.4.9-.7,1-1.2,1.3s-.8.4-.2.9c1.2.9,4.3,1,5.7.9s2.6-.4,3.3-1.2c-.6-.7-1.8-1-2.7-1.1s-1.9,0-2.3-.2-.5-1.2.2-1.3c1.5-.2,3.4.3,4.8.8v-4.9s.3-.5.3-.6c.5-.7,1.5-1,2.2-1.2-.4-1.1-.9-2.1-1.1-3.2-3-12.1,8.8-23.1,20.7-19,.4.1,2,.7,2.1,1,.3.7-.3,1.1-.9.9s-1.8-.8-2.8-1c-10.6-2.7-20.4,7.1-17.8,17.7s.7,2.2,1.2,3.2c1.9-.1,3.8-.2,5.7.4s2.4.9,2.5,2.1-.1,4.6,0,4.7c6.2,2.1,12.7,0,16.6-5.3,4-5.6,3.9-13-.7-18.2-.4-.4-1.5-1.4-1.7-1.7-.3-.6.3-1.2,1-.9s1.5,1.5,1.8,1.8c9.4,10.8.5,27.7-13.6,26.4s-2.2-.4-3.3-.6v4.5c2.2-1,4.8-1.1,7.2-.7s3.4.8,3.5,2.3c.1,1.6.2,4.9,0,6.5-.1,1.2-1.6,1.8-2.6,2s-1.7.4-2.3.5h-2.2l-2.6-.5-1.8-.8c-.5.4-1.1.6-1.7.8l-2.5.5h-2.2c-.6-.1-1.2-.2-1.7-.3-.9-.2-1.8-.5-2.6-1-.8.5-1.6.8-2.6,1s-1.2.2-1.7.3c-.7,0-1.5,0-2.2,0ZM23.7,29.5c-1.4,0-2.9.3-4.1,1.2v.3c1.7,1.2,4.3,1.3,6.3,1.1s2.4-.4,3.1-1.2c-1.3-1.1-3.6-1.4-5.3-1.3ZM29,32.5c-3,1.2-6.4,1.2-9.4,0v1.4c2.1,1.4,5.4,1.5,7.8.8s1.7-.6,1.7-.9v-1.3ZM29,35.6c-3.1,1.2-6.4,1.2-9.4,0v1.4c1.7,1.3,4.5,1.4,6.6,1.1s2.9-.7,2.9-1.2v-1.3ZM29,38.7c-3,1.2-6.5,1.3-9.4,0v1.4c0,.3,1.2.7,1.5.8,2,.6,5.2.6,7.1-.2s.6-.3.9-.6v-1.4ZM18.2,38.8c-3.1,1.2-6.4,1.2-9.4,0v1.3c0,.3,1.2.7,1.5.8,1.8.6,4.3.6,6.1.1s1.9-.6,1.9-.9v-1.3ZM18.2,41.8c-2.9,1.3-6.6,1.3-9.4,0v1.4c1.7,1.3,4.6,1.4,6.6,1.1s2.1-.4,2.8-1.1v-1.4ZM19.5,41.8v1.4c.5.5,1.2.8,1.9.9,1.9.5,4.7.5,6.6-.3s1.1-.8,1-1.9c-3,1-6.5,1.3-9.4,0ZM39.7,43c-2-1.2-4.8-1.4-7.1-.9s-2.3.6-2.3,1.1c.4.5,1.2.8,1.9.9,1.9.5,5,.5,6.8-.4s.8-.4.6-.7ZM18.2,44.9c-2.9,1.2-6.5,1.3-9.4,0v1.4c1,.8,2.7,1.2,3.9,1.2s4.1-.1,5.5-1.2v-1.4ZM29,44.9c-2.9,1.2-6.5,1.3-9.4,0v1.4c1.8,1.4,4.9,1.5,7.1,1s1.9-.4,2.4-1.1v-1.3ZM30.3,44.9v1.4c1.4,1.1,3.8,1.3,5.6,1.2s3.4-.5,3.8-1.2.2-1.4,0-1.4c-2.8,1.3-6.5,1.2-9.3,0ZM18.2,47.9c-3,1.2-6.5,1.2-9.4,0v1.4c1.7,1.3,4.4,1.4,6.5,1.1s3-.7,3-1.2v-1.3ZM29,47.9c-3,1.2-6.5,1.3-9.4,0v1.4c.6.6,1.6.8,2.4,1,1.8.4,4.1.3,5.9-.3s1.2-.6,1.2-.8v-1.3ZM39.8,47.9c-3,1.2-6.5,1.3-9.4,0v1.4c.6.6,1.6.8,2.4,1,1.8.4,3.9.3,5.7-.3s1.4-.6,1.4-.8v-1.3Z"/>
  <path d="M31.6,28c-.6.5-1.4,0-1.1-.8l8.2-12.1c.5-.7,1.6-.2,1.2.6l-8.3,12.3Z"/>
  <path d="M30.4,14.8c1.6-.2,2.8,1.5,2.8,3,0,1.9-1.5,3.9-3.5,3.1-2.4-1-2.1-5.7.7-6.1ZM31.3,19.5c.7-.7.7-2.3,0-3s-1.8.3-1.9,1.3.8,2.7,1.9,1.7Z"/>
  <path d="M39.5,21.9c3.4-.2,3.5,6.3.1,6.3s-3.6-6.1-.1-6.3ZM39.5,23.3c-1.5.2-1.3,3.7.2,3.6s1.5-3.8-.2-3.6Z"/>
</svg>