<?xml version="1.0" encoding="UTF-8"?>
<svg width="512" height="512" id="Layer_1" xmlns="http://www.w3.org/2000/svg" viewBox="0 0 1080 1080">
  <defs>
    <style>
      .cls-1 {
        fill: #042b62;
      }

      .cls-2 {
        fill: #bdc5c5;
      }

      .cls-3 {
        fill: #f7f8f8;
      }

      .cls-4 {
        fill: #fefefe;
      }

      .cls-5 {
        fill: #bcc4c4;
      }

      .cls-6 {
        fill: #414141;
      }

      .cls-7 {
        fill: #2e2e2e;
      }
    </style>
  </defs>
  <path class="cls-6" d="M756.92,980.13c-5.87.11-11.74.32-17.61.32-193.08.02-386.15.03-579.23,0-38.13,0-70.03-23.18-79.56-57.54-1.89-6.83-2.77-13.77-2.76-20.88.05-69.06,0-138.12.04-207.18,0-18.65,11.88-27.2,29.76-21.52,15.07,4.79,30.17,9.52,45.14,14.6,4.14,1.4,7.67,1.61,11.84,0,9.56-3.69,19.24-7.1,29.05-10.04,4.61-1.38,6.21-3.74,5.65-8.22-.18-1.45-.03-2.94-.03-4.4,0-182.79.23-365.58-.34-548.37-.06-19.16,12.45-31.59,32.59-23.57,5.43,2.16,11.5,2.94,16.64,5.58,21.98,11.31,43.62,10.19,65.17-.81,17.55-8.95,35.02-9.3,52.69-.39,24,12.1,47.94,11.77,71.99-.19,16.23-8.07,32.98-8.02,49.12-.11,24.15,11.84,47.76,12.14,71.76-.33,15.34-7.97,31.1-8.45,46.85-.4,25.59,13.07,51.25,13.11,76.96.16,15.23-7.68,30.96-7.24,45.74.21,25.74,12.97,50.73,11.83,75.99-.79,4.67-2.33,10-3.31,14.91-5.22,12.05-4.7,25.43,2.96,27.23,15.78.24,1.74.22,3.52.22,5.28-.02,187.49-.05,374.98-.08,562.47-14.18,1.73-28.01.38-41.41-4.76-2.9-5.21-1.88-10.91-1.88-16.42-.05-165.45-.07-330.9,0-496.35,0-19.69-1.79-16.72-15.55-11.7-15.19,5.54-29.73,5.72-44.61-.2-3.26-1.3-6.95-1.64-10.06-3.22-18.63-9.47-36.72-7.14-55.98-.54-38.64,13.23-29.5,12.36-68.61-.77-17.13-5.75-32.64-7.66-49.16.22-7.13,3.4-15.19,4.54-22.68,7.15-8.37,2.92-16.63,2.87-25.12.51-13.32-3.7-26.49-7.83-39.51-12.44-6.7-2.37-13.05-2.4-19.76-.02-13.01,4.63-26.22,8.69-39.52,12.42-7.89,2.21-15.52,2.15-23.37-.43-13.39-4.41-27.1-7.86-40.45-12.41-5.84-1.99-11.39-1.94-17.21.05-10.29,3.52-20.8,6.46-30.97,10.2-13.65,5.02-26.53,4.81-40.34.14-16.78-5.68-17.83-9.22-17.83,13.22.06,245.09.04,490.18.03,735.27,0,4.4.43,8.87-.46,13.19-.47,2.31.18,6.51-4.71,4.89-.29-2.94-.15-5.88-.15-8.81,0-251.16-.01-502.31.06-753.47,0-3.06-1.12-6.39-.05-7.89-.53,1.88-.03,5.38-.03,8.78-.03,250.86-.03,501.73,0,752.59,0,4.32-.96,8.86,2.12,12.69,1.59,5.52-.81,10.41-2.59,15.34-1.66,4.59-.24,6.68,4.56,6.77,2.94.05,5.88.06,8.81.06,141.34,0,282.68,0,424.02.01,5.28,0,10.58-.24,15.83.42,4.02.3,7.03,2.54,9.87,5.16,13.94,12.84,30.06,22.1,47.51,29.32,3.5,1.45,8.32,1.55,9.5,6.58Z"/>
  <path class="cls-1" d="M756.92,980.13c-23.74-9.24-45.77-21.3-64.36-39.02-6.56-3.13-11.36-8.44-15.7-13.89-23.94-30.01-36.9-64.45-35.06-102.73,3.64-75.56,54.38-130.85,121.91-149.88,13.77-3.88,27.8-7.24,42.36-4.49,13.59.89,27.2,1.55,40.56,4.45,59.39,15.19,102.2,49.84,121.22,108.92,27.42,85.15-25.2,175.26-113.85,198.53-29.34,7.7-58.42,8.61-87.65.08-3.07-.9-6.28-1.33-9.43-1.98Z"/>
  <path class="cls-3" d="M806.07,670.12c-24.07,1.99-47.72,5.89-69.49,17.04-59.17,30.28-92.09,77.9-92.15,145.16-.03,40.67,15.81,75.84,44.61,104.89,1.23,1.24,2.35,2.6,3.52,3.9-4.39.12-8.79.33-13.18.33-147.97.02-295.93.01-443.9.01-1.75,0-3.51,0-5.98,0,3.1-8.44,8.29-15.8,8.5-24.74-.72-1.12-1-2.18.44-2.99,2.29-5.66,1.38-11.6,1.39-17.42.05-249.75.05-499.5.05-749.25,0-3.14,0-6.29,0-10.14,8.44,2.53,16.17,4.28,23.45,7.17,11.23,4.46,21.89,4.41,33.29.1,13.42-5.08,27.09-10.59,41.13-12.59,14.34-2.04,27.83,5.87,40.89,11.09,18.51,7.41,35.83,4.78,52.68-2.75,20.75-9.27,40.79-10.47,61.2.13,2.3,1.2,5.16,1.31,7.51,2.44,18.05,8.71,35.78,4.81,52.65-2.63,20.74-9.14,40.69-10.15,61.36-.18,7.31,3.52,15.64,4.9,23.45,7.41,5.01,1.61,9.81,1.02,14.69-.51,14.55-4.57,29.25-8.71,43.63-13.74,6.51-2.28,12.14-2.24,18.55.23,9.56,3.68,19.82,5.63,29.21,9.65,16.33,6.98,31.94,4.92,47.72-1.3,4.32-1.71,8.88-2.84,14.79-4.69v533.37Z"/>
  <path class="cls-2" d="M119.01,717.68c9.82,3.22,19.39,5.94,28.61,9.52,7.29,2.83,14.14,2.83,21.41.32,7.76-2.67,15.77-4.62,23.52-7.32,4.7-1.64,6.76-1.55,6.74,4.45-.18,59.91.13,119.83-.26,179.74-.14,21.1-18.39,37.12-40.41,37.04-21.94-.08-39.94-16.29-40.05-37.45-.33-60.79-.13-121.59-.12-182.38,0-1.09.3-2.19.56-3.92Z"/>
  <path class="cls-7" d="M238.44,913.73c-.15,1-.29,1.99-.44,2.99-2.7-2.69-1.57-6.12-1.57-9.22-.04-253-.04-505.99-.03-758.99,0-3.14,0-6.28,0-9.42.57,0,1.15.02,1.72.03,0,3.16,0,6.31,0,9.47,0,252.41,0,504.82,0,757.23,0,2.64.2,5.27.31,7.91Z"/>
  <path class="cls-4" d="M863.78,749.56c5.12,2.95,9.43,6.56,7.34,13.27-2.05,6.57-7.54,7.43-13.5,7.26-5.16-.14-10.33-.03-16.85-.03,3.84,6.06,6.88,11,8.51,16.63,1.45,5.03,5.84,2.93,8.96,2.92,5.42-.02,10.04,1.1,12.52,6.31,3.26,6.85-1.91,13.92-10.7,13.5-7.28-.35-10.25,2.17-13.22,8.95-8.86,20.29-25.65,29.73-47.43,30.7-4.84.22-9.7.03-16.6.03,20.36,19.44,39.17,37.4,57.97,55.37,2.55,2.44,5.16,4.83,7.49,7.46,3.63,4.09,3.79,8.54.23,12.73-3.84,4.52-8.53,4.74-13.41,1.77-1.48-.9-2.7-2.25-3.97-3.47-25.46-24.4-50.92-48.79-76.34-73.22-4-3.84-8.89-7.51-5.96-14.2,2.74-6.25,8.3-6.53,14.13-6.47,12.93.13,25.86.07,38.79-.03,10.59-.08,18.34-5.33,24.2-13.79,2.75-3.97,2.85-5.98-3.13-5.91-21.16.26-42.32.06-63.48.12-6.14.02-10.32-2.65-11.4-8.71-.89-4.99,1.97-8.6,6.44-10.34,2.35-.92,5.19-.73,7.81-.73,21.72-.05,43.45-.03,65.25-.03-2.72-11.39-13.34-19.2-27-19.51-12.92-.3-25.86-.22-38.79-.04-6.52.09-12.04-1.43-13.57-8.42-1.51-6.88,3.48-9.93,8.87-12.27,1.45-1.39,3.29-1.03,5.01-1.03,32.3-.02,64.59-.02,96.89,0,1.71,0,3.57-.42,4.93,1.16Z"/>
  <path class="cls-1" d="M863.78,749.56c-35.61-.04-71.22-.09-106.83-.13-.28-.09-.56-.16-.84-.27-.27-.11-.71-.19-.77-.38-.66-2.21,1.18-1.27,1.87-1.27,34.85-.05,69.7-.05,104.55-.02.78,0,1.58.31,2.32.61.08.03-.2.95-.31,1.45Z"/>
  <path class="cls-2" d="M522.95,670.05c-66.71,0-133.41,0-200.12,0-16.06,0-22.85-6.84-22.86-23.12-.03-68.17-.03-136.35,0-204.52,0-15.67,7.43-23.04,23.17-23.04,133.12-.02,266.23-.01,399.35,0,15.94,0,23.41,7.59,23.42,23.78.02,67.88.02,135.76,0,203.64,0,15.91-7.26,23.26-22.85,23.27-66.71.01-133.41,0-200.12,0Z"/>
  <path class="cls-2" d="M522.49,283.73c-37.87,0-75.75-.6-113.6.25-19.3.43-29.58-7.8-27.96-28.54.73-9.34.03-18.78.15-28.17.17-12.85,8.09-21.12,20.8-21.14,80.73-.09,161.45-.09,242.18,0,12.66.01,20.62,8.35,20.76,21.18.12,10.86.04,21.72.02,32.58-.02,16.22-7.44,23.8-23.46,23.81-39.63.04-79.26.01-118.89.01Z"/>
  <path class="cls-2" d="M401.3,380.65c-26.15,0-52.31.03-78.46-.01-12.38-.02-22.44-8.79-22.77-19.68-.33-10.98,9.28-19.1,22.9-19.11,52.31-.04,104.61-.04,156.92,0,13.93.01,22.9,7.51,22.82,18.82-.08,12.24-8.87,19.94-22.95,19.97-26.15.04-52.31.01-78.46.01Z"/>
  <path class="cls-2" d="M401.63,863.97c-26.11,0-52.22.04-78.32,0-13.82-.02-23.19-7.63-23.26-18.7-.06-11.1,10.2-20.06,23.37-20.07,51.92-.06,103.84,0,155.77-.06,3.57,0,6.98.46,10.33,1.66,9.98,3.59,14.51,10.8,13.12,21.05-1.17,8.66-9.63,16.01-19.17,16.06-27.28.13-54.56.05-81.84.06Z"/>
  <path class="cls-5" d="M401.31,786.39c-26.44,0-52.88.03-79.33-.02-12.41-.02-21.5-7.63-21.91-18.15-.42-10.7,9.78-20.53,22.04-20.57,39.08-.14,78.15-.06,117.23-.06,14.1,0,28.21-.21,42.31.08,10.55.21,18.1,5.88,20.51,14.9,2.35,8.78-1.21,15.42-8.11,20.69-3.74,2.86-8.04,3.16-12.53,3.15-26.74-.06-53.47-.03-80.21-.03Z"/>
  <path class="cls-3" d="M421.66,563.19c0-19.69.14-39.38-.09-59.07-.06-5.22,1.41-7.25,6.95-7.22,35.85.2,71.7.22,107.56-.02,6.07-.04,7.3,2.3,7.28,7.78-.18,39.67-.18,79.35,0,119.02.03,5.58-1.42,7.74-7.38,7.7-35.56-.23-71.12-.26-106.67.02-6.51.05-7.82-2.43-7.74-8.27.28-19.98.11-39.97.11-59.95Z"/>
  <path class="cls-3" d="M705.38,564.55c0,19.4-.22,38.79.13,58.18.12,6.34-1.42,8.73-8.28,8.67-34.97-.33-69.94-.29-104.91-.02-6.32.05-8.73-1.35-8.68-8.24.31-39.38.25-78.76.04-118.13-.03-5.92,1.38-8.24,7.79-8.19,35.26.28,70.53.31,105.79-.02,6.88-.06,8.35,2.37,8.24,8.69-.35,19.68-.13,39.38-.13,59.06Z"/>
  <path class="cls-3" d="M340.56,565c0-19.94.27-39.88-.15-59.81-.14-6.74,2.09-8.69,8.56-8.32,8.77.5,17.59.24,26.38.09,4.08-.07,5.76,1.44,5.75,5.63-.08,41.05-.1,82.09,0,123.14.01,5.06-2.72,5.52-6.71,5.61-9.65.22-19.31-.75-28.96.61-5.76.81-4.82-3.83-4.83-7.13-.08-19.94-.04-39.87-.04-59.81Z"/>
</svg>