<svg width="28" height="32" viewBox="0 0 28 32" fill="none" xmlns="http://www.w3.org/2000/svg">
<g clip-path="url(#clip0_11_916)">
<path d="M22.1 9.20001V18.7C22.1 23.3 18.4 26.9 13.9 26.9C9.30001 26.9 5.70001 23.2 5.70001 18.7V9.20001H22.1Z" fill="#042b62"/>
<path d="M22 9.20001V18.7C22 21.7 20.4 24.5 17.7 25.9C17.4 26 16.9 26 16.5 26C12 26 8.29999 22.3 8.29999 17.8V9.20001H22Z" fill="#042b62"/>
<path d="M24.8 3V9C24.8 9.4 24.5 9.7 24.1 9.7H3.59999C3.19999 9.7 2.89999 9.4 2.89999 9V3H24.8Z" fill="#E2E2E2" stroke="#939393" stroke-width="0.25"/>
<path d="M24.8 3V8.1H7.30001C6.90001 8.1 6.60001 7.8 6.60001 7.4V3H24.8Z" fill="#EAEAEA"/>
<path d="M25.8 3.5H1.79999C1.59999 3.5 1.39999 3.3 1.39999 3.1V0.4C1.39999 0.2 1.59999 0 1.79999 0H25.7C25.9 0 26.1 0.2 26.1 0.4V3C26.2 3.3 26 3.5 25.8 3.5Z" fill="#E2E2E2" stroke="#939393" stroke-width="0.25"/>
<path d="M13.8 28.7C13.5 28.7 13.3 28.9 13.3 29.2V31.6C13.3 31.9 13.5 32.1 13.8 32.1C14.1 32.1 14.3 31.9 14.3 31.6V29.2C14.3 28.9 14.1 28.7 13.8 28.7Z" fill="#042b62"/>
<path d="M21.4 26.2C21.2 26 20.9 26 20.7 26.1C20.5 26.3 20.5 26.6 20.6 26.8L22.1 28.6C22.2 28.7 22.3 28.8 22.5 28.8C22.6 28.8 22.7 28.8 22.8 28.7C23 28.5 23 28.2 22.9 28L21.4 26.2Z" fill="#042b62"/>
<path d="M27.2 19.8L24.9 19.4C24.6 19.3 24.4 19.5 24.3 19.7C24.2 20 24.4 20.2 24.6 20.3H24.7L27 20.7H27.1C27.3 20.7 27.5 20.5 27.6 20.3C27.7 20 27.5 19.8 27.2 19.8Z" fill="#042b62"/>
<path d="M6.89999 26.1C6.69999 26 6.39999 26 6.19999 26.2L4.69999 28C4.49999 28.2 4.59999 28.5 4.79999 28.7C4.89999 28.8 4.99999 28.8 5.09999 28.8C5.19999 28.8 5.39999 28.7 5.49999 28.6L6.99999 26.8C7.19999 26.6 7.09999 26.3 6.89999 26.1Z" fill="#042b62"/>
<path d="M3.3 19.7C3.3 19.4 3 19.3 2.8 19.3L0.5 19.7C0.1 19.8 0 20 0 20.3C0 20.5 0.2 20.7 0.5 20.7H0.6L2.9 20.3C3.1 20.3 3.3 20 3.3 19.7Z" fill="#042b62"/>
<path d="M18.1 28.3C18 28.1 17.7 27.9 17.5 28C17.3 28.1 17.1 28.4 17.2 28.6L18 30.8C18.1 31 18.2 31.1 18.5 31.1C18.6 31.1 18.6 31.1 18.7 31.1C18.9 31 19.1 30.7 19 30.5L18.1 28.3Z" fill="#042b62"/>
<path d="M25.8 24.3L23.8 23.1C23.6 23 23.3 23 23.2 23.2C23.1 23.4 23.1 23.7 23.4 23.9L25.4 25.1C25.5 25.1 25.6 25.2 25.6 25.2C25.8 25.2 25.9 25.1 26 25C26.1 24.7 26 24.4 25.8 24.3Z" fill="#042b62"/>
<path d="M24.8 16.4L27.2 16C27.5 15.9 27.7 15.7 27.6 15.4C27.5 15.1 27.3 14.9 27 15L24.7 15.4C24.4 15.4 24.3 15.7 24.3 16C24.3 16.2 24.5 16.4 24.8 16.4Z" fill="#042b62"/>
<path d="M10.1 28C9.80001 27.9 9.60001 28 9.50001 28.3L8.70001 30.5C8.60001 30.7 8.70001 31 9.00001 31.1C9.10001 31.1 9.10001 31.1 9.20001 31.1C9.40001 31.1 9.60001 31 9.60001 30.8L10.4 28.6C10.5 28.4 10.4 28.1 10.1 28Z" fill="#042b62"/>
<path d="M3.9 23.1L1.9 24.3C1.7 24.4 1.6 24.7 1.7 24.9C1.8 25 1.9 25.1 2.1 25.1C2.2 25.1 2.3 25.1 2.3 25L4.3 23.8C4.5 23.7 4.6 23.4 4.5 23.1C4.5 23 4.2 22.9 3.9 23.1Z" fill="#042b62"/>
<path d="M0.4 16L2.7 16.4H2.8C3 16.4 3.2 16.2 3.3 16C3.3 15.7 3.2 15.5 2.9 15.4L0.6 15C0.3 15 0 15.1 0 15.4C0 15.7 0.1 16 0.4 16Z" fill="#042b62"/>
<path d="M13.8 20.8C13 20.8 12.4 20.2 12.3 19.4L11.7 13.1C11.6 12.3 12.2 11.5 13.1 11.5H13.2H14.4C15.2 11.5 15.9 12.2 15.9 13V13.1L15.3 19.4C15.2 20.2 14.6 20.8 13.8 20.8Z" fill="white"/>
<path d="M15.2 23.8C15.2 24.6 14.6 25.2 13.8 25.2C13 25.2 12.4 24.6 12.4 23.8C12.4 23 13 22.4 13.8 22.4C14.6 22.3 15.2 23 15.2 23.8Z" fill="white"/>
</g>
<defs>
<clipPath id="clip0_11_916">
<rect width="27.6" height="32" fill="white"/>
</clipPath>
</defs>
</svg>
