<svg xmlns="http://www.w3.org/2000/svg" viewBox="0 0 430 300"><defs><style>.cls-1{isolation:isolate;}.cls-2{fill:#f9e7d2;}.cls-3,.cls-8{fill:#fed385;}.cls-4{fill:#f0806d;}.cls-5{fill:none;stroke:#fed385;stroke-miterlimit:10;}.cls-5,.cls-7,.cls-8{mix-blend-mode:multiply;}.cls-6{fill:#8bc53f;}.cls-9{opacity:0.2;}.cls-10{fill:#005263;}.cls-11{fill:#003544;}.cls-12{fill:#005b71;}.cls-13{fill:#e30d16;}</style></defs><g class="cls-1"><g id="Layer_1" data-name="Layer 1"><path class="cls-2" d="M430,0V121.5A131.21,131.21,0,0,1,348.16,150,131.82,131.82,0,0,1,217.63,0Z"/><rect class="cls-3" x="245.06" y="25.74" width="169.39" height="81.95"/><rect class="cls-4" x="245.06" y="25.74" width="12.84" height="81.95"/><rect class="cls-5" x="266.83" y="33.5" width="139.15" height="66.43"/><rect class="cls-6" x="273.43" y="38.94" width="31.92" height="10.79"/><rect class="cls-6" x="310.86" y="38.94" width="31.92" height="10.79"/><g class="cls-7"><rect class="cls-3" x="273.43" y="82.49" width="6.49" height="10.79"/><rect class="cls-3" x="282.07" y="82.49" width="5.09" height="10.79"/><rect class="cls-3" x="303.59" y="82.49" width="5.09" height="10.79"/><rect class="cls-3" x="288.79" y="82.49" width="2.97" height="10.79"/><rect class="cls-3" x="296.4" y="82.49" width="2.97" height="10.79"/><rect class="cls-3" x="313.32" y="82.49" width="2.97" height="10.79"/><rect class="cls-3" x="293.38" y="82.49" width="1.48" height="10.79"/><rect class="cls-3" x="300.86" y="82.49" width="1.48" height="10.79"/><rect class="cls-3" x="310.12" y="82.49" width="1.48" height="10.79"/></g><rect class="cls-8" x="273.43" y="57.46" width="124.08" height="2.63"/><rect class="cls-8" x="273.43" y="73.34" width="91.52" height="2.63"/><path class="cls-9" d="M414.45,87.46a10.55,10.55,0,0,0-3.81-.14l-4.11.53-.9-6.92-2.13.27-49.31,6.39-2.13.27.27,2.13.28,2.12,2.13-.27-.27-2.12,49.3-6.38.62,4.79L279.64,104.27l-8.3,3.42h97.07L412.54,102a12.85,12.85,0,0,0,1.91-.4Z"/><path class="cls-3" d="M419.84,98.47h0c.52,4-1.79,7.69-7.3,8.4l-131,17L253.2,120h0l26.44-10.87,131-17C416.16,91.5,419.32,94.44,419.84,98.47Z"/><path class="cls-10" d="M279.54,109.21,253.2,120l28.23,3.77a10.66,10.66,0,0,0-1.89-14.6Z"/><path class="cls-11" d="M261.78,116.52,253.2,120l9.19,1.23a13.07,13.07,0,0,0-.07-2.41A12.3,12.3,0,0,0,261.78,116.52Z"/><rect class="cls-10" x="381.13" y="79.26" width="14.78" height="46.52" transform="translate(336.71 500.99) rotate(-97.38)"/><rect class="cls-12" x="401.52" y="88.35" width="6.98" height="2.15" transform="translate(368.32 502.56) rotate(-97.37)"/><rect class="cls-12" x="351.26" y="93.67" width="4.29" height="2.15" transform="translate(304.81 457.38) rotate(-97.38)"/><rect class="cls-10" x="377.91" y="63.34" width="2.15" height="54.02" transform="matrix(-0.13, -0.99, 0.99, -0.13, 338.01, 477.8)"/><path class="cls-13" d="M382.69,56.52a2,2,0,0,0-.68-.11c0,.15-.06.3-.11.5l.76,0C382.68,56.8,382.8,56.61,382.69,56.52Z"/><path class="cls-13" d="M375.13,74.8a1,1,0,0,0,.53,0,.48.48,0,0,0,.12-.16l-.68.08Z"/><path class="cls-13" d="M371.38,66.13s0,.11-.08.21a2.87,2.87,0,0,0,.4,0s.05-.14,0-.15A1.29,1.29,0,0,0,371.38,66.13Z"/><path class="cls-13" d="M389.37,73.64a2,2,0,0,0,.23.06s.1-.08.08-.09l-.2-.08Z"/><path class="cls-13" d="M387.08,66.89s0,0,0-.06l-.14,0,.05,0Z"/><path class="cls-13" d="M352.51,73.72a.75.75,0,0,0-.82,0c-.21.11-.27.24-.2.35l1.1-.14A.3.3,0,0,0,352.51,73.72Z"/><path class="cls-13" d="M329.8,84s.09,0,.14.06S330,84,330,84s-.09,0-.14-.06S329.79,84,329.8,84Z"/><path class="cls-13" d="M343.67,79.52s0,0,0,0l-.14,0-.06.1A1.08,1.08,0,0,0,343.67,79.52Z"/><path class="cls-13" d="M337.54,71.65c-1,.2-1.65.94-1.38,1.59s1.66,1,2.69.86,1.48-.93,1.2-1.63S338.71,71.42,337.54,71.65Zm.81,1.07-.23-.1a.76.76,0,0,1,.18-.09c.05,0,.11,0,.16.07Z"/><path class="cls-13" d="M367.25,68a8.36,8.36,0,0,0-4,.29,6,6,0,0,0,2.82.94,3.07,3.07,0,0,0,1.38-.38C368.15,68.48,368.05,68.17,367.25,68Z"/><path class="cls-13" d="M349.62,67.92h-.05v0a1.75,1.75,0,0,0-.94-.09c-.64.12-1.14.7-.95,1.09a1.66,1.66,0,0,0,1.7.52c.63-.15,1-.62.78-1A1,1,0,0,0,349.62,67.92Z"/><path class="cls-13" d="M347.69,66.13a2.45,2.45,0,0,0-1.06.25l.84.05A1.46,1.46,0,0,0,347.69,66.13Z"/><path class="cls-13" d="M340.23,73.54a.79.79,0,0,0,.51.21c.14,0,.26-.21.48-.39a3,3,0,0,0-.73-.1C340.37,73.27,340.18,73.49,340.23,73.54Z"/><path class="cls-13" d="M360.12,69.35c-.05.18-.12.27-.09.35a.44.44,0,0,0,.29.08c.11,0,.24-.16.22-.22S360.34,69.46,360.12,69.35Z"/><path class="cls-13" d="M350.23,62l-.14.29a.87.87,0,0,0,.28,0l0-.26Z"/><path class="cls-13" d="M324.59,81.54s.07-.09,0-.11-.12,0-.19,0-.06.09,0,.12A.53.53,0,0,0,324.59,81.54Z"/><path class="cls-13" d="M340.65,70.19l.23.1a1.14,1.14,0,0,1,.11-.11c-.05,0-.11-.08-.16-.07A.48.48,0,0,0,340.65,70.19Z"/><path class="cls-13" d="M388.71,68.55a.89.89,0,0,0,.33.08,4.75,4.75,0,0,0,1.53-.14.8.8,0,0,0,.81-.47c.15-.24.27-.48.11-.73a2,2,0,0,0-1.93-.57,2,2,0,0,0-1.23.67C388,67.75,388.24,68.35,388.71,68.55Z"/><path class="cls-13" d="M359.79,77.28c0,.11.29.2.51.16s.31-.16.26-.27-.25-.19-.46-.15S359.75,77.18,359.79,77.28Z"/><path class="cls-13" d="M396.65,69.31s.18.07.21.06a.28.28,0,0,0,.14-.15s-.12-.06-.24-.1S396.64,69.26,396.65,69.31Z"/><path class="cls-13" d="M360.83,76.76l.05,0-.06,0s-.05,0-.05,0Z"/><path class="cls-13" d="M333.92,49.64a1.22,1.22,0,0,0,0-.41l-.94.12C333,49.56,333.22,49.59,333.92,49.64Z"/><path class="cls-13" d="M351.51,42.19a4.18,4.18,0,0,0,.72.08c.09,0,.2-.1.4-.22a1.56,1.56,0,0,0-.47-.14,3.53,3.53,0,0,0-.65.11S351.48,42.18,351.51,42.19Z"/><path class="cls-13" d="M273.39,78.25c-.07,0-.06.14-.11.28a2.06,2.06,0,0,0,.45-.1s.06-.15,0-.16A.75.75,0,0,0,273.39,78.25Z"/><path class="cls-13" d="M330.29,44.78l.23,0s.1-.08.09-.08a1.33,1.33,0,0,0-.21-.09Z"/><path class="cls-13" d="M273.65,74.77a.41.41,0,0,0,0,.11l.17,0-.08-.09Z"/><path class="cls-13" d="M282.54,57.16a2.66,2.66,0,0,0,2.28,0c.74-.36.83-.68.3-1.08a2.48,2.48,0,0,0-1.05-.4l-1.46.19A1,1,0,0,0,282.54,57.16Z"/><path class="cls-13" d="M283.71,70.72a1.87,1.87,0,0,0-.91.52c-.38.39-.15.61.57.6a5.7,5.7,0,0,0,2.59-.69l0-.33A5.88,5.88,0,0,0,283.71,70.72Z"/><path class="cls-13" d="M298,67a.51.51,0,0,0-.12.92,1.64,1.64,0,0,0,1.39.18l-.15-1.2A1.75,1.75,0,0,0,298,67Z"/><path class="cls-13" d="M264.86,57.65a1,1,0,0,0,.23.34,4.93,4.93,0,0,1,.26-.93C265,57.16,264.77,57.37,264.86,57.65Z"/><path class="cls-13" d="M271.56,58.49a1.57,1.57,0,0,0-1.41,0,.43.43,0,0,0-.13.75,1.37,1.37,0,0,0,1.21.09C271.6,59.13,271.78,58.7,271.56,58.49Z"/><path class="cls-13" d="M292.05,59.15a4.92,4.92,0,0,0,1,.1c0-.28,0-.48-.07-.61a.74.74,0,0,0-.82,0C291.85,58.74,291.77,59,292.05,59.15Z"/><path class="cls-13" d="M302.51,62.58a3.1,3.1,0,0,0,.63,0c.08,0,.13-.23.07-.26a.87.87,0,0,0-.5-.06C302.6,62.25,302.6,62.41,302.51,62.58Z"/><path class="cls-13" d="M284.09,64.33a1,1,0,0,0-.45,0c-.05,0-.14.18-.09.2a1.79,1.79,0,0,0,.5.11C284.07,64.47,284.14,64.34,284.09,64.33Z"/><path class="cls-13" d="M301.16,55a.32.32,0,0,0-.17,0,.83.83,0,0,0-.11.15l.31.05C301.18,55.12,301.2,55.06,301.16,55Z"/><path class="cls-13" d="M311.93,53.65s0-.08,0-.1a.53.53,0,0,0-.16,0s0,.08,0,.09S311.87,53.66,311.93,53.65Z"/><path class="cls-13" d="M284.59,50.66s0,0,0-.06l-.15-.05a.93.93,0,0,0-.05.1Z"/><path class="cls-13" d="M290.22,50.85l-.17.29.76-.1Z"/><path class="cls-13" d="M279.79,66.89c-.15.37-.34.58-.29.76s.46.35.89.24.6-.34.39-.56A4.46,4.46,0,0,0,279.79,66.89Z"/><path class="cls-13" d="M297.79,65.2a3.51,3.51,0,0,0-.84-.46c-.15.34-.29.52-.28.7s.27.37.67.3S298,65.43,297.79,65.2Z"/><path class="cls-13" d="M289.11,58.31a1.73,1.73,0,0,0-.4,0s-.11.11-.09.12a.53.53,0,0,0,.27.08C289,58.5,289,58.4,289.11,58.31Z"/><path class="cls-13" d="M311.84,61.31c-.06,0-.15.07-.15.1s.07.08.11.11l.09-.05,0-.13Z"/><path class="cls-13" d="M334.45,52.14c0,.33.36.73,1.09.71a4,4,0,0,0,1.1-.19c.15,0,.19-.25.28-.38a.25.25,0,0,0,.05-.08c.11-.28-.14-.49-.28-.71,0,0-.16-.06-.24-.07l-.37-.05a1.68,1.68,0,0,0-1.2.25c-.12.08-.29.14-.48.24A.82.82,0,0,1,334.45,52.14Z"/><path class="cls-13" d="M322.32,56.66l.78.12.4-.36c.4-.34.13-.8-.53-.84a1.13,1.13,0,0,0-.76.09,1.36,1.36,0,0,0-.4.55C321.74,56.42,322,56.61,322.32,56.66Z"/><path class="cls-13" d="M349.3,57.55c-.39.09-.73.45-.62.67a1.06,1.06,0,0,0,1.07.32.65.65,0,0,0,.13,0l-.12-1A1.42,1.42,0,0,0,349.3,57.55Z"/><path class="cls-13" d="M334.77,44.39a.66.66,0,0,0-.31.06,3.06,3.06,0,0,0-.4.49c0,.05.05.13.11.17a1.28,1.28,0,0,0,.79.1.94.94,0,0,0,.62-.48c.07-.13-.12-.28-.35-.3A3.42,3.42,0,0,0,334.77,44.39Z"/><path class="cls-13" d="M314.81,56.6c.18-.05.31-.21.25-.32s-.27-.14-.47-.09-.3.18-.24.29A.44.44,0,0,0,314.81,56.6Z"/><path class="cls-13" d="M331.12,60.51c.15,0,.24-.1.2-.2s-.26-.16-.51-.13l.05.35A.74.74,0,0,0,331.12,60.51Z"/><path class="cls-13" d="M309,54c.18,0,.41-.23.38-.31a.47.47,0,0,0-.46-.13c-.2,0-.33.18-.26.3A.29.29,0,0,0,309,54Z"/><path class="cls-13" d="M312.51,54.88a2.85,2.85,0,0,0,.5-.24l-.53-.06c-.15,0-.31,0-.37.09s0,.16,0,.18A.68.68,0,0,0,312.51,54.88Z"/><path class="cls-13" d="M348.48,48.8s.13-.14.12-.21-.28-.16-.49-.09-.26.09-.21.2S348.2,48.87,348.48,48.8Z"/><path class="cls-13" d="M323.06,46.46c.16,0,.26-.12.21-.23s-.23-.14-.59,0C322.76,46.45,322.87,46.52,323.06,46.46Z"/><path class="cls-13" d="M342,51.7s.1-.12.09-.19-.25-.15-.37-.09-.16.13-.15.19S341.72,51.76,342,51.7Z"/><path class="cls-13" d="M323.62,51.2c0,.09.2.12.33.07a1.22,1.22,0,0,0,.32-.25,1.72,1.72,0,0,0-.45-.05C323.65,51,323.58,51.1,323.62,51.2Z"/><path class="cls-13" d="M338.91,59.78a.52.52,0,0,0-.17-.09l.06.28C338.93,59.93,339,59.85,338.91,59.78Z"/><path class="cls-13" d="M334.66,60.87c-.05,0-.11.1-.1.13s.29.12.49.06c0,0,.09-.08.08-.12S334.84,60.8,334.66,60.87Z"/><path class="cls-13" d="M325,54.89c-.06.1-.16.18-.13.21a.53.53,0,0,0,.28.1c.14,0,.24-.1.17-.18A1.35,1.35,0,0,0,325,54.89Z"/><path class="cls-13" d="M316.82,53.28s-.15-.05-.31-.1c0,.11-.09.18-.06.23a.34.34,0,0,0,.24.05C316.77,53.42,316.83,53.34,316.82,53.28Z"/><path class="cls-13" d="M303.77,53.8a.52.52,0,0,0-.51,0s0,.08,0,.1A.45.45,0,0,0,303.77,53.8Z"/><path class="cls-13" d="M303.61,54.55a.91.91,0,0,0-.25-.06c0,.06-.09.12-.08.17s.13.05.25.09S303.64,54.59,303.61,54.55Z"/><path class="cls-13" d="M322.34,46.46s-.13-.06-.23-.1-.14.14-.12.16a1.05,1.05,0,0,0,.25.08C322.27,46.55,322.35,46.49,322.34,46.46Z"/><path class="cls-13" d="M353.18,60.75l-.12.11,0,.14C353.29,61,353.29,60.92,353.18,60.75Z"/><path class="cls-13" d="M320.13,55.94a.9.9,0,0,0-.26-.06c-.06,0-.09.08-.14.13a1,1,0,0,0,.23.05S320.05,56,320.13,55.94Z"/><path class="cls-13" d="M309.24,64.56c.06,0,.12.06.17,0s.1,0,.18-.1a.67.67,0,0,0-.23-.05C309.31,64.47,309.28,64.52,309.24,64.56Z"/><path class="cls-13" d="M309.74,61A.83.83,0,0,0,310,61c0-.08.08-.15.05-.18a.45.45,0,0,0-.24,0S309.71,60.93,309.74,61Z"/><path class="cls-13" d="M338.32,54.07a1.52,1.52,0,0,0,.2-.11,1.13,1.13,0,0,0-.24-.05s-.12.07-.11.08A.22.22,0,0,0,338.32,54.07Z"/><path class="cls-13" d="M348.65,50.87c.07,0,.1-.08.18-.14a1.11,1.11,0,0,0-.21,0,.49.49,0,0,0-.11.14A.42.42,0,0,0,348.65,50.87Z"/><path class="cls-13" d="M310.07,60.28a1.15,1.15,0,0,0,.14.17C310.21,60.24,310.19,60.22,310.07,60.28Z"/><path class="cls-13" d="M307.22,55.85c.13.13.16.14.32.06a.17.17,0,0,0,0-.07Z"/><path class="cls-13" d="M327.29,46s-.1,0-.15,0-.06.07,0,.09.08,0,.17.06S327.32,46,327.29,46Z"/><path class="cls-13" d="M340.28,63a.5.5,0,0,0,.13,0s.09,0,.08-.05-.06,0-.11-.07A.29.29,0,0,0,340.28,63Z"/><path class="cls-13" d="M310,56.73s0,.07,0,.09a.22.22,0,0,0,.16,0,.11.11,0,0,0,.05-.09.45.45,0,0,0-.1-.09Z"/><path class="cls-13" d="M340.44,58.88c0,.06-.08.09-.07.11s.06,0,.09,0,.07-.06.07-.09Z"/><path class="cls-13" d="M344.27,50l-.08,0-.08,0,.08,0S344.24,50.05,344.27,50Z"/><path class="cls-13" d="M346.85,49.11l-.08,0-.08.06.07,0Z"/><path class="cls-13" d="M313,52.07l-.07,0s0,0,0,.05l.07,0Z"/><path class="cls-13" d="M334.18,64.92h.07s0,0,0-.05h-.08S334.17,64.91,334.18,64.92Z"/><path class="cls-13" d="M328.08,55.56s-.05,0-.08,0l-.05,0,.09,0Z"/><path class="cls-13" d="M338.56,55l0-.07h-.09s0,0,0,0Z"/><path class="cls-13" d="M339,57.4l.06,0,0,0H339S338.94,57.4,339,57.4Z"/><path class="cls-13" d="M336.15,49.57v0h0s0,0,0,0Z"/><path class="cls-13" d="M327.43,62.08l0,0s0,0,.06,0l.06-.06Z"/><path class="cls-13" d="M335.44,59.29a1.46,1.46,0,0,0-.58.26.46.46,0,0,0,0,.75,1.28,1.28,0,0,0,1.09.05A3.86,3.86,0,0,0,335.44,59.29Z"/><path class="cls-13" d="M303.23,49.16l-.73.37,1.48-.2A3.14,3.14,0,0,1,303.23,49.16Z"/><path class="cls-13" d="M309.79,55.16a1.94,1.94,0,0,0-1.79,0,.79.79,0,0,0-.47.67h.13l-.12.07a.53.53,0,0,0,.21.35,2.41,2.41,0,0,0,1.84-.06C310.06,56,310.16,55.43,309.79,55.16Z"/><path class="cls-13" d="M313.28,54.29a.29.29,0,0,0,0-.55.89.89,0,0,0-1,.06c0,.12,0,.33.12.47A.77.77,0,0,0,313.28,54.29Z"/><path class="cls-13" d="M305.63,48.79a1.36,1.36,0,0,0-1.19.49l1.19-.16A.91.91,0,0,0,305.63,48.79Z"/><path class="cls-13" d="M302,49.56l-.17,0s0,.06,0,.08l.18,0Z"/><path class="cls-13" d="M336.55,54.48a.41.41,0,0,0,0,.11l.17,0-.09-.08S336.55,54.48,336.55,54.48Z"/><path class="cls-13" d="M307.79,48.79h-.15v.08h.12Z"/><path class="cls-13" d="M370.41,53s0-.05,0-.07a2.09,2.09,0,0,0-.34.08Z"/><path class="cls-13" d="M347.38,50.85a6.06,6.06,0,0,0,3-.92,6.51,6.51,0,0,0-2.69-.2,1.9,1.9,0,0,0-.92.52C346.42,50.64,346.65,50.86,347.38,50.85Z"/><path class="cls-13" d="M362.23,47.73a.58.58,0,0,0,.23-1,1.8,1.8,0,0,0-1.6-.09.51.51,0,0,0-.11.92A1.61,1.61,0,0,0,362.23,47.73Z"/><path class="cls-13" d="M364.53,48.08c-.57.1-.78.29-.75.73C364.41,48.62,364.68,48.44,364.53,48.08Z"/><path class="cls-13" d="M352.27,48.31a.5.5,0,0,0-.27,0c-.06.06-.11.16-.07.21a1.9,1.9,0,0,0,.44.08C352.32,48.45,352.33,48.36,352.27,48.31Z"/><path class="cls-13" d="M363.76,52.34c0-.11,0-.18,0-.25s-.2,0-.24.06a.12.12,0,0,0,0,.16S363.61,52.33,363.76,52.34Z"/><path class="cls-13" d="M383,39.1a.5.5,0,0,0,0-.12c-.34.06-.64.15-.93.19l-.06.06Z"/><path class="cls-13" d="M331.32,44.53c-.18,0-.39.33-.31.42a3.35,3.35,0,0,0,.89.45c.14-.31.32-.48.27-.62S331.73,44.41,331.32,44.53Z"/><path class="cls-13" d="M380.4,39.28a.53.53,0,0,1,.73-.26,1.35,1.35,0,0,0,1,.15l.06-.06c.2-.25.07-.48-.31-.59,0,.08,0,.17,0,.24h-.08s-.05,0-.05-.07c-.08-.44-.12-.46-.82-.49a.87.87,0,0,0-.53.1,2.31,2.31,0,0,0-.81.58l.17.35a1,1,0,0,0,.27.27l.41,0A.53.53,0,0,1,380.4,39.28Z"/><path class="cls-13" d="M368.82,44.93c0,.11.05.22.08.32.1.31.57.46,1.15.38s.75-.35.68-.63a.47.47,0,0,0-.19-.28.92.92,0,0,1-.23-.2l-1.93.25C368.36,44.93,368.41,44.94,368.82,44.93Z"/><path class="cls-13" d="M372.46,44.24l-.3,0a.44.44,0,0,0,.15,0A.49.49,0,0,0,372.46,44.24Z"/><path class="cls-13" d="M377.28,39v0l.5-.07,0-.08Z"/><path class="cls-13" d="M392.87,37.44a1.06,1.06,0,0,0-.23,0s-.06.06-.08.09l.19.05S392.81,37.5,392.87,37.44Z"/><path class="cls-13" d="M373,40l.14.17C373.11,40,373.09,39.94,373,40Z"/><path class="cls-13" d="M376.17,45.13l-.23,0s-.07.09-.06.09a.28.28,0,0,0,.18,0S376.12,45.19,376.17,45.13Z"/><path class="cls-13" d="M377.61,46.65l-.13,0s-.05,0-.08.06a.25.25,0,0,0,.11,0Z"/><path class="cls-13" d="M391.88,39.77l.06,0,0,0-.07,0S391.87,39.76,391.88,39.77Z"/><path class="cls-13" d="M392.93,40.29l-.09,0s0,0,0,0l.05,0Z"/><path class="cls-13" d="M305.21,50.8h-.15l0,.3Z"/><path class="cls-13" d="M375,74.32a2.47,2.47,0,0,1,.75.14.2.2,0,0,1,0,.21l15.27-2a5.1,5.1,0,0,0,4.4-5.71L392.35,43a5.09,5.09,0,0,0-5.71-4.4l-3.6.46a1.45,1.45,0,0,1,.06.64c-.13.46-.71.66-1.43.55a1.73,1.73,0,0,1-1.24-.59,1.16,1.16,0,0,1-.48-.2l-72.2,9.35a1.76,1.76,0,0,1-.14.23v.05h0l0,0a1.5,1.5,0,0,0,0-.22l-2,.26a.34.34,0,0,1-.09.2c.44,0,.89-.08,1.32-.09l1.56,0c.56,0,1.12,0,1.67,0a2,2,0,0,1,1.21.13,2.1,2.1,0,0,1-1.56.28,5.12,5.12,0,0,0-1.87.09c-1,.21-1.3.44-1.25,1.1V51a3.21,3.21,0,0,1-1.6.19c-.91.07-1.1.06-1.21-.31-.17-.58-.74-.84-1.65-.92a1.53,1.53,0,0,1-.29-.07l.63-.31-.5.06s0,.06,0,.07h-.17v-.06l-11,1.43a1.24,1.24,0,0,1,.43.19c.24.2-.07.54-.5.62s-.82,0-.88-.26.07-.27.19-.45l-20.61,2.67a5.06,5.06,0,0,0-4.09,3.25l.25,0a2.29,2.29,0,0,0,.17-.28c.36.14.65.23.86.33s.55.24.59.46-.15.4-.46.32c-.62-.17-.95.13-1.48.36-.06-.08-.13-.15-.19-.22a5.49,5.49,0,0,0-.06,1.52l3.1,23.95a5.11,5.11,0,0,0,5.71,4.4L375.1,74.75C375,74.66,375.07,74.52,375,74.32ZM378,72.8s-.05,0-.06,0,0,0,.05,0h.17Zm2.89-.9-.15,0,0,0,.17,0Zm.07-.89c.31,0,.31,0,.48.09Zm4.67.86-.17-.05a.6.6,0,0,1,.08-.08l.15,0S385.61,71.83,385.58,71.87Zm2.16.94c.3-.1.3-.1.47.09Zm2-1.68a1.7,1.7,0,0,1-.37-.14c-.08-.09,0-.17.15-.22s.37,0,.37.09S389.77,71,389.7,71.13Zm.06-.91a1.14,1.14,0,0,1-1.05-.34c-.1-.22.22-.52.66-.6s.85,0,1,.26S390.23,70.12,389.76,70.22Zm2.49-17.83s-.14.11-.21.11c-.34,0-.44-.13-.32-.34C392.05,52.12,392.26,52.17,392.25,52.39Zm-1.91-10.6h.07l-.06.06s-.05,0-.05,0S390.32,41.8,390.34,41.79Zm1.78,26.37s0,0,0,.06l-.07,0-.06,0ZM385.73,40c.13,0,.28.07.27.1a.23.23,0,0,1-.15.17.86.86,0,0,1-.3-.05Zm-10.2.18c.23,0,.48,0,.54.12s-.08.27-.27.31a.52.52,0,0,1-.53-.13C375.2,40.37,375.32,40.24,375.53,40.19Zm-.79.83s.11.08.1.12-.09.06-.14.09-.12-.07-.11-.11S374.68,41.06,374.74,41Zm-2-.47a.42.42,0,0,1,.23,0s0,.1-.05.18a.83.83,0,0,1-.25-.09S372.67,40.55,372.71,40.55Zm-7.1,1.37a.87.87,0,0,1,.5.06c.07,0,0,.23-.07.26a3,3,0,0,1-.62,0C365.5,42.12,365.5,42,365.61,41.92Zm-5.76,2.53c.42.22.73.31.84.46s0,.46-.45.54-.67-.07-.67-.3S359.7,44.79,359.85,44.45Zm-3.54-1.61.19,0-.13.11-.13-.1ZM346.54,44a1.3,1.3,0,0,1,.45,0c.05,0,0,.14,0,.28a3,3,0,0,1-.5-.11S346.5,44,346.54,44Zm.56,2.69s-.06.06-.09.07h-.07s0,0,0-.07Zm-4.41-.09a4,4,0,0,1,1,.45c.21.21.06.45-.39.56s-.81,0-.88-.25S342.54,47,342.69,46.6Zm-6.68.13.22.11s0,0,0,0l-.26-.05A.86.86,0,0,0,336,46.73Zm.4,1.34c-.1.06-.13.09-.16.09s-.07,0-.1,0,.05-.05.08-.06Zm-3.89.42c.09-.1.2-.07.34,0a.22.22,0,0,1-.28.14S332.5,48.51,332.52,48.49Zm-10.33-.58s.08,0,.12,0,0,0,0,.06h-.14S322.16,47.92,322.19,47.91Zm-3.71,1.17a1.3,1.3,0,0,1-1,.11A1.15,1.15,0,0,1,318.48,49.08Zm-5.58.27a.81.81,0,0,1,.9.23c.11.24-.08.46-.5.55a.74.74,0,0,1-.83-.2C312.35,49.73,312.58,49.42,312.9,49.35Zm-.67,2.29.07,0-.05.05-.07,0ZM308.64,50a.75.75,0,0,1,.88,0c.09.12,0,.29.06.56a5.48,5.48,0,0,1-1.06-.15C308.43,50.39,308.5,50.11,308.64,50Zm-.2,1.56.08,0,0,0-.07,0ZM303,50.67a2.57,2.57,0,0,1,.39,0c-.12.11-.17.2-.27.25s-.3,0-.32-.1S302.81,50.69,303,50.67ZM290.4,53.31a.58.58,0,0,1,.26,0s0,.09,0,.11a2.13,2.13,0,0,1-.31.07C290.36,53.41,290.35,53.33,290.4,53.31Zm-12.07.18.3.15a1,1,0,0,1-.22.14s-.18,0-.18-.06S278.28,53.59,278.33,53.49Zm-7.54,1.58s.13,0,.14.06,0,.07-.07.1-.12,0-.13-.06S270.77,55.11,270.79,55.07ZM269,65.69a3.19,3.19,0,0,1-.89-.45c-.08-.09.13-.37.31-.43.41-.11.76,0,.85.26S269.14,65.38,269,65.69Zm71.09,13.25a4.32,4.32,0,0,1-.89-.19c-.26-.14-.22-.35.1-.48a.55.55,0,0,1,.68.1A1.89,1.89,0,0,1,340.09,78.94Zm12.56-4.6a5,5,0,0,1-1-.16.32.32,0,0,1-.16-.14L273.36,84.15A1.36,1.36,0,0,1,271.84,83l-3.1-24a1.37,1.37,0,0,1,1.18-1.52l12.69-1.64a.39.39,0,0,1,.1-.08,2.29,2.29,0,0,1,1.36-.11L333,49.35a1.39,1.39,0,0,1,.13-.47c.57.12.76.16.81.35l34.48-4.46v-.05a1.17,1.17,0,0,1,0-.26c.08-.24.33-.38.73-.39h.38c.35,0,.61.1.68.31a1.3,1.3,0,0,0,.1.15l1.85-.24h0s.07-.09.12-.1a.63.63,0,0,1,.23,0l0,0,14.66-1.9a1.36,1.36,0,0,1,1.52,1.18l3.1,23.94A1.35,1.35,0,0,1,390.57,69l-38,4.92C352.61,74,352.61,74.15,352.65,74.34Zm9.21-.49c-.1-.09-.05-.25-.08-.5a3.87,3.87,0,0,1,.93.18c.1,0,.07.3,0,.37A.7.7,0,0,1,361.86,73.85Zm1.42,2.4a.91.91,0,0,1-.47-.17s.12-.16.24-.31c.22.11.4.16.47.26S363.33,76.25,363.28,76.25ZM365.49,74a.23.23,0,0,1,.1-.07.47.47,0,0,1,.18,0s-.1.1-.12.09A.43.43,0,0,1,365.49,74Zm1.22,1.73c-.16,0-.28,0-.33-.13s.07-.21.25-.24.31,0,.34.11S366.91,75.7,366.71,75.74Zm-.16-.79a.69.69,0,0,1-.72-.18c-.09-.17.06-.35.36-.42a.56.56,0,0,1,.65.19C366.93,74.72,366.81,74.89,366.55,75Zm1-.63s-.07,0-.08-.06,0,0,.07-.07l.11,0Zm4-.44s-.23,0-.45,0a1.49,1.49,0,0,1,.23-.36s.23,0,.35,0A2.43,2.43,0,0,1,371.47,73.88Zm2.84.34s-.12,0-.18-.06a1.24,1.24,0,0,1,.23-.17s.13,0,.29.08A2.09,2.09,0,0,1,374.31,74.22Z"/><path class="cls-13" d="M304.44,49.28l-.46,0,.38,0Z"/><path class="cls-13" d="M266.39,57.67c.23-.1.51-.4.43-.47a.57.57,0,0,0-.19-.13,2.53,2.53,0,0,0-.9-.07l-.13,0c-.1.16-.18.29-.16.4S266,57.84,266.39,57.67Z"/><path class="cls-13" d="M304.34,49.4c.65.11,1,.1,1.2-.08a9.4,9.4,0,0,1-1.18,0S304.35,49.38,304.34,49.4Z"/><path class="cls-13" d="M381.68,39.56a3.75,3.75,0,0,0,.35-.33l-1.67.22a.38.38,0,0,0,.07.25,2.45,2.45,0,0,0,.93,0A.93.93,0,0,0,381.68,39.56Z"/><path class="cls-13" d="M290,61.28l-5.22.67-1.51.2.22,1.7L285,64l.89,6.87.48.1-.44.23.38,2.94-1.47.48.22,1.7,5.85-.75-.22-1.7-1.55-.1-.4-3.13,2.38-.31a5.61,5.61,0,0,0,3.67-1.73A4.52,4.52,0,0,0,294,62,5.58,5.58,0,0,0,290,61.28Zm-1,7.51s0-.14.07-.2a.5.5,0,0,1,.27,0c.06.05.05.13.1.27C289.24,68.84,289.08,68.84,289,68.79Zm3.55-1.57a2.41,2.41,0,0,1-1.71.88l-2.39.31-.6-4.64,2.39-.31a2.35,2.35,0,0,1,1.88.43A2.44,2.44,0,0,1,293,65.5,2.34,2.34,0,0,1,292.58,67.22Zm.89-3.94a.64.64,0,0,1-.13-.1l.07,0,.19,0Z"/><path class="cls-13" d="M307.16,71.21l-4.56.59-.52-4,4.78-.62L306.58,65l-4.79.62L301.33,62l4.52-.59.35,1.67,2.17-.28-.5-3.87-9.65,1.25-1.51.2.23,1.7,1.54.1.6,4.64a1.3,1.3,0,0,1,.48.19.58.58,0,0,1-.23,1,.38.38,0,0,0-.1,0l.56,4.3-1.47.48.22,1.7,11.18-1.44-.5-3.87-2.15.28Zm-6.61,1.39a.13.13,0,0,1,0-.16s.16,0,.24-.06,0,.14,0,.25A1.23,1.23,0,0,1,300.55,72.6Zm.32-3.5c0-.44.19-.63.76-.74C301.78,68.73,301.51,68.91,300.87,69.1Zm6.64,4.15c-.75,0-1.48,0-2.19,0-.42,0-.84-.11-.83-.44s.43-.53,1-.59,1.11-.11,1.74-.16C307.19,72.46,308,72.73,307.51,73.25Z"/><path class="cls-13" d="M318.59,57.58l.22,1.7,1.55.1,1,7.5h-.06l-6.93-8.76-2.84.36-1.5.2.22,1.7,1.54.1.11.85s.07.06.07.08,0,0-.05,0l1.18,9.16-1.46.48.22,1.7,5.85-.75-.22-1.7-1.55-.1-1-7.51H315l6.94,8.77,2.82-.37L323.18,59l1.48-.48-.22-1.71-1.52.19Zm-5.43,8a.37.37,0,0,1-.18,0s0-.08,0-.09a1.15,1.15,0,0,1,.24,0C313.22,65.48,313.19,65.53,313.16,65.53Zm-.26-4.62a.54.54,0,0,1-.53-.13c-.07-.13,0-.25.26-.3s.48,0,.54.12S313.09,60.86,312.9,60.91ZM314.6,67s-.06,0-.1,0,0,0,.08-.06l.12,0S314.63,67,314.6,67Zm-.21-7.71v0l.49-.11s0,0,0,.08ZM323,60.57a.7.7,0,0,1-.3-.06l.18-.21c.13,0,.28.07.27.1A.25.25,0,0,1,323,60.57Z"/><path class="cls-13" d="M339.31,63.27l-.3-2.34a9,9,0,0,0-.21-1l0,0c-.16,0-.31,0-.34-.09s.06-.15.12-.28l.2.07a5.61,5.61,0,0,0-2-2.79,5.92,5.92,0,0,0-4.48-1.1l-4.85.63-1.51.19.22,1.71,1.55.1L329,68.57l-1.47.48.22,1.7,6.36-.82a5.94,5.94,0,0,0,4.05-2.2A5.73,5.73,0,0,0,339.31,63.27Zm-1-.88a.6.6,0,0,1,.58.15c.06.12-.09.29-.3.34s-.49,0-.56-.12S338.07,62.44,338.27,62.39Zm-2-4.43a.74.74,0,0,1,.36,0s0,.14,0,.17a2.25,2.25,0,0,1-.45.09C336.23,58.1,336.22,58,336.29,58ZM329,60.08l-.07,0s0,0,0-.05l.07,0Zm.91.53s-.05,0-.05,0,0,0,0,0l.09,0Zm-.1-2.77a.58.58,0,0,1-.19,0s0-.09.07-.09a1.1,1.1,0,0,1,.24,0C329.91,57.79,329.87,57.84,329.85,57.84Zm7.33,4.6-.06-.08h0l.08.08Zm-.44-2.26a1.28,1.28,0,0,0-.77.16h0a5.07,5.07,0,0,1,.21.93l.31,2.36a4,4,0,0,1-.52,2.79,3,3,0,0,1-2.25,1.34l-1.87.24-1-7.48c-.16,0-.3-.06-.32-.14s.09-.14.11-.18l.16,0-.25-1.93,1.87-.25a3,3,0,0,1,3,1.29,2,2,0,0,1,.66,0,1,1,0,0,1,.8.44C337,59.85,336.85,60,336.74,60.18Z"/><path class="cls-13" d="M347.68,66.45l-.21,0a1.31,1.31,0,0,1-1.14.37.65.65,0,0,1,.3-.42l-.5,0-1.32-10.14,1.48-.48L346.07,54l-5.85.76.22,1.7,1.55.1,1.31,10.14-1.47.48.22,1.7,5.85-.76Zm-2.86-5.62-.08,0s0,0,0-.05h.08A.14.14,0,0,0,344.82,60.83Z"/><path class="cls-13" d="M355.42,67.17l-.22-1.7-1.55-.09L353.08,61l-.19,0,.17-.16-.38-3,.05,0,6.94,8.77,2.82-.36-1.57-12.13,1.48-.49-.22-1.71-1.52.2-4.33.56.22,1.71,1.55.09,1,7.5L359,62l-6.93-8.77-2.84.37-1.5.19.22,1.71,1.54.1.26,1.94a1,1,0,0,1,.76.41c.05.13-.31.42-.64.54l.45,3.53c.12,0,.21,0,.21.08a.24.24,0,0,1-.15.18h0l.45,3.45-1.47.49.21,1.66.06,0ZM352.33,61h.08l0,0h-.07S352.33,61,352.33,61ZM351,54.8h0l0,0h0S351,54.81,351,54.8Zm.41,6.1a.5.5,0,0,1,.51.11c.06.08.15.15.17.23a.21.21,0,0,1-.07.23.62.62,0,0,1-.38.06c-.34-.08-.65-.2-.69-.49A4,4,0,0,1,351.37,60.9Z"/><path class="cls-13" d="M364.56,59.18A7,7,0,0,0,367,63.93a6.12,6.12,0,0,0,4.9,1.31,8.72,8.72,0,0,0,3.27-1A6.4,6.4,0,0,0,377,62.78l-.7-5.43-4.86.63.25,2,2-.1.31,2.39a2.77,2.77,0,0,1-.78.45,5.43,5.43,0,0,1-1.37.32,3.48,3.48,0,0,1-3.07-.91,5.42,5.42,0,0,1-1.46-3.3l-.06-.51a5.84,5.84,0,0,1,.56-3.71A3.3,3.3,0,0,1,370.12,53c-.64,0-1.28,0-1.9,0-.42,0-.84-.11-.83-.44s.43-.52,1-.59,1.11-.1,1.74-.16c0,.39.69.65.32,1.13a.61.61,0,0,1,.13,0,4.86,4.86,0,0,1,1.48,0,3,3,0,0,1,1.09.39l.65,1.84,2.09-.27L375.53,52a6.53,6.53,0,0,0-2.47-1.13,8.37,8.37,0,0,0-3.1-.14,6,6,0,0,0-4.36,2.59,7.48,7.48,0,0,0-1.1,5.39Z"/></g></g></svg>