<svg xmlns="http://www.w3.org/2000/svg" xmlns:xlink="http://www.w3.org/1999/xlink" viewBox="0 0 750 850"><defs><style>.cls-1{fill:none;}.cls-2{isolation:isolate;}.cls-3{fill:#ffe5c0;}.cls-4{fill:#005263;}.cls-5{fill:#034149;}.cls-6{fill:#036c7a;}.cls-7{fill:#eaeaea;}.cls-8{fill:#e0e0e0;}.cls-9{fill:#a4a4a4;}.cls-10{fill:#ffb085;}.cls-11{fill:#fcf0eb;}.cls-12{fill:#ff5c55;}.cls-13,.cls-27,.cls-34{fill:#fff;}.cls-14,.cls-30{fill:#f0806d;}.cls-15{fill:#033135;}.cls-16{fill:#7b91ab;}.cls-17{fill:#f4f6f5;}.cls-18{fill:#303133;}.cls-19{fill:#6c92b7;}.cls-20{fill:#fc6;}.cls-21{fill:#97dad8;}.cls-22{fill:#f7f7f7;}.cls-23{fill:#f73c3c;}.cls-24{fill:#ddd;}.cls-24,.cls-30{mix-blend-mode:multiply;}.cls-25{fill:#58616c;opacity:0.75;}.cls-26{fill:#39393d;mix-blend-mode:screen;}.cls-27{opacity:0.8;}.cls-28{fill:#8bc53f;}.cls-29{fill:#4f4f4f;}.cls-31{fill:#fed385;}.cls-32{fill:#bc584b;}.cls-33{fill:#1a2e35;}.cls-34{opacity:0.5;}.cls-35{fill:#dadada;}.cls-36{fill:#c7c7c7;}.cls-37{clip-path:url(#clip-path);}</style><clipPath id="clip-path"><path class="cls-1" d="M417.17,0V.09C186.32,4.56.56,193.08.56,425S186.32,845.44,417.17,849.91V850H750.56V0Z"/></clipPath></defs><g class="cls-2"><g id="Layer_1" data-name="Layer 1"><path class="cls-3" d="M417.17,0V.09C186.32,4.56.56,193.08.56,425S186.32,845.44,417.17,849.91V850H750.56V0Z"/><path class="cls-4" d="M485.59,427.66H368.39c-4,0-7.32,3.75-7.32,8.37v26c0,4.62,3.28,8.37,7.32,8.37h117.2c4.05,0,7.33-3.75,7.33-8.37V436C492.92,431.41,489.64,427.66,485.59,427.66Z"/><path class="cls-5" d="M485.59,430.64H368.39c-4,0-7.32,2-7.32,4.48V449H492.92v-13.9C492.92,432.64,489.64,430.64,485.59,430.64Z"/><path class="cls-4" d="M712.43,303.3a4.33,4.33,0,0,0-3.58-2.18H145.13a4.33,4.33,0,0,0-3.57,2.18l-7.19,14S133.81,326,139,326H715c6.7,0,4.56-8.92,4.56-8.92Z"/><rect class="cls-5" x="158.66" y="301.12" width="14.44" height="25.22"/><rect class="cls-5" x="180.72" y="301.12" width="6.07" height="25.22"/><rect class="cls-5" x="657.62" y="301.12" width="14.44" height="25.22"/><rect class="cls-5" x="679.68" y="301.12" width="6.07" height="25.22"/><rect class="cls-5" x="649.93" y="301.12" width="3.03" height="25.22"/><path class="cls-6" d="M714,314.45H140c-6.67,0-8.15,5.92-3.46,13l72.34,109.36c2.58,3.89,8.48,7,13.24,7H631.87c4.76,0,10.66-3.09,13.23-7l72.35-109.36C722.14,320.37,720.65,314.45,714,314.45Z"/><polygon class="cls-7" points="219.15 431.92 634.84 431.92 704.95 326.34 149.03 326.34 219.15 431.92"/><rect class="cls-8" x="219.55" y="494.47" width="349.69" height="120.03" rx="8.92"/><rect class="cls-9" x="229.72" y="503.44" width="12.54" height="12.54" rx="0.89"/><rect class="cls-9" x="229.72" y="522.37" width="12.54" height="12.54" rx="0.89"/><rect class="cls-9" x="244.36" y="522.37" width="12.54" height="12.54" rx="0.89"/><rect class="cls-9" x="259.01" y="522.37" width="12.54" height="12.54" rx="0.89"/><rect class="cls-9" x="273.65" y="522.37" width="12.54" height="12.54" rx="0.89"/><rect class="cls-9" x="288.29" y="522.37" width="12.54" height="12.54" rx="0.89"/><rect class="cls-9" x="302.94" y="522.37" width="12.54" height="12.54" rx="0.89"/><rect class="cls-9" x="317.58" y="522.37" width="12.54" height="12.54" rx="0.89"/><rect class="cls-9" x="332.23" y="522.37" width="12.54" height="12.54" rx="0.89"/><rect class="cls-9" x="346.87" y="522.37" width="12.54" height="12.54" rx="0.89"/><rect class="cls-9" x="361.52" y="522.37" width="12.54" height="12.54" rx="0.89"/><rect class="cls-9" x="376.16" y="522.37" width="12.54" height="12.54" rx="0.89"/><rect class="cls-9" x="390.8" y="522.37" width="12.54" height="12.54" rx="0.89"/><rect class="cls-9" x="405.45" y="522.37" width="12.54" height="12.54" rx="0.89"/><rect class="cls-9" x="420.09" y="522.37" width="25.38" height="12.54" rx="0.89"/><rect class="cls-9" x="229.72" y="537.54" width="18.39" height="12.54" rx="0.89"/><rect class="cls-9" x="229.72" y="552.63" width="22.16" height="12.54" rx="0.89"/><rect class="cls-9" x="229.72" y="567.71" width="29.64" height="12.54" rx="0.89"/><rect class="cls-9" x="229.72" y="582.58" width="18.94" height="12.54" rx="0.89"/><rect class="cls-9" x="250.63" y="537.54" width="12.54" height="12.54" rx="0.89"/><rect class="cls-9" x="254.24" y="552.63" width="12.54" height="12.54" rx="0.89"/><rect class="cls-9" x="269.37" y="552.63" width="12.54" height="12.54" rx="0.89"/><rect class="cls-9" x="261.98" y="567.71" width="12.54" height="12.54" rx="0.89"/><rect class="cls-9" x="251.04" y="582.58" width="12.54" height="12.54" rx="0.89"/><rect class="cls-9" x="266.18" y="582.58" width="12.54" height="12.54" rx="0.89"/><rect class="cls-9" x="281.17" y="582.58" width="12.54" height="12.54" rx="0.89"/><rect class="cls-9" x="296.05" y="582.58" width="87.82" height="12.54" rx="0.89"/><rect class="cls-9" x="277.21" y="567.71" width="12.54" height="12.54" rx="0.89"/><rect class="cls-9" x="292.45" y="567.71" width="12.54" height="12.54" rx="0.89"/><rect class="cls-9" x="307.69" y="567.71" width="12.54" height="12.54" rx="0.89"/><rect class="cls-9" x="322.92" y="567.71" width="12.54" height="12.54" rx="0.89"/><rect class="cls-9" x="338.16" y="567.71" width="12.54" height="12.54" rx="0.89"/><rect class="cls-9" x="353.39" y="567.71" width="12.54" height="12.54" rx="0.89"/><rect class="cls-9" x="368.63" y="567.71" width="12.54" height="12.54" rx="0.89"/><rect class="cls-9" x="383.87" y="567.71" width="12.54" height="12.54" rx="0.89"/><rect class="cls-9" x="387.16" y="582.58" width="12.54" height="12.54" rx="0.89"/><rect class="cls-9" x="402.42" y="582.58" width="12.54" height="12.54" rx="0.89"/><rect class="cls-9" x="417.68" y="582.58" width="12.54" height="12.54" rx="0.89"/><rect class="cls-9" x="432.93" y="582.58" width="12.54" height="12.54" rx="0.89"/><rect class="cls-9" x="399.1" y="567.71" width="12.54" height="12.54" rx="0.89"/><rect class="cls-9" x="414.34" y="567.71" width="31.14" height="12.54" rx="0.89"/><rect class="cls-9" x="284.51" y="552.63" width="12.54" height="12.54" rx="0.89"/><rect class="cls-9" x="299.64" y="552.63" width="12.54" height="12.54" rx="0.89"/><rect class="cls-9" x="314.78" y="552.63" width="12.54" height="12.54" rx="0.89"/><rect class="cls-9" x="329.91" y="552.63" width="12.54" height="12.54" rx="0.89"/><rect class="cls-9" x="345.05" y="552.63" width="12.54" height="12.54" rx="0.89"/><rect class="cls-9" x="360.19" y="552.63" width="12.54" height="12.54" rx="0.89"/><rect class="cls-9" x="375.32" y="552.63" width="12.54" height="12.54" rx="0.89"/><rect class="cls-9" x="390.46" y="552.63" width="12.54" height="12.54" rx="0.89"/><rect class="cls-9" x="405.59" y="552.63" width="12.54" height="12.54" rx="0.89"/><rect class="cls-9" x="265.62" y="537.54" width="12.54" height="12.54" rx="0.89"/><rect class="cls-9" x="280.61" y="537.54" width="12.54" height="12.54" rx="0.89"/><rect class="cls-9" x="295.61" y="537.54" width="12.54" height="12.54" rx="0.89"/><rect class="cls-9" x="310.6" y="537.54" width="12.54" height="12.54" rx="0.89"/><rect class="cls-9" x="325.59" y="537.54" width="12.54" height="12.54" rx="0.89"/><rect class="cls-9" x="340.58" y="537.54" width="12.54" height="12.54" rx="0.89"/><rect class="cls-9" x="355.57" y="537.54" width="12.54" height="12.54" rx="0.89"/><rect class="cls-9" x="370.56" y="537.54" width="12.54" height="12.54" rx="0.89"/><rect class="cls-9" x="385.55" y="537.54" width="12.54" height="12.54" rx="0.89"/><rect class="cls-9" x="400.54" y="537.54" width="12.54" height="12.54" rx="0.89"/><rect class="cls-9" x="415.54" y="537.54" width="12.54" height="12.54" rx="0.89"/><path class="cls-9" d="M444.59,537.54H431.42a.89.89,0,0,0-.89.88v10.77a.89.89,0,0,0,.89.89h3.46a.89.89,0,0,1,.88.88v13.32a.89.89,0,0,0,.89.89h7.94a.89.89,0,0,0,.88-.89V538.42A.89.89,0,0,0,444.59,537.54Z"/><path class="cls-9" d="M432.38,552.63H421.61a.88.88,0,0,0-.88.88v10.77a.89.89,0,0,0,.88.89h10.77a.89.89,0,0,0,.89-.89V553.51A.88.88,0,0,0,432.38,552.63Z"/><rect class="cls-9" x="253.08" y="503.44" width="12.54" height="12.54" rx="0.89"/><rect class="cls-9" x="269.37" y="503.44" width="12.54" height="12.54" rx="0.89"/><rect class="cls-9" x="285.67" y="503.44" width="12.54" height="12.54" rx="0.89"/><rect class="cls-9" x="301.96" y="503.44" width="12.54" height="12.54" rx="0.89"/><rect class="cls-9" x="318.57" y="503.44" width="12.54" height="12.54" rx="0.89"/><rect class="cls-9" x="334.86" y="503.44" width="12.54" height="12.54" rx="0.89"/><rect class="cls-9" x="351.15" y="503.44" width="12.54" height="12.54" rx="0.89"/><rect class="cls-9" x="367.44" y="503.44" width="12.54" height="12.54" rx="0.89"/><rect class="cls-9" x="384.06" y="503.44" width="12.54" height="12.54" rx="0.89"/><rect class="cls-9" x="400.35" y="503.44" width="12.54" height="12.54" rx="0.89"/><rect class="cls-9" x="416.64" y="503.44" width="12.54" height="12.54" rx="0.89"/><rect class="cls-9" x="432.93" y="503.44" width="12.54" height="12.54" rx="0.89"/><rect class="cls-9" x="452.9" y="503.44" width="12.54" height="12.54" rx="0.89"/><rect class="cls-9" x="468.66" y="503.44" width="12.54" height="12.54" rx="0.89"/><rect class="cls-9" x="484.41" y="503.44" width="12.54" height="12.54" rx="0.89"/><rect class="cls-9" x="452.9" y="522.37" width="12.54" height="12.54" rx="0.89"/><rect class="cls-9" x="468.66" y="522.37" width="12.54" height="12.54" rx="0.89"/><rect class="cls-9" x="484.41" y="522.37" width="12.54" height="12.54" rx="0.89"/><rect class="cls-9" x="501.6" y="522.37" width="12.54" height="12.54" rx="0.89"/><rect class="cls-9" x="516.58" y="522.37" width="12.54" height="12.54" rx="0.89"/><rect class="cls-9" x="531.56" y="522.37" width="12.54" height="12.54" rx="0.89"/><rect class="cls-9" x="546.53" y="522.37" width="12.54" height="12.54" rx="0.89"/><rect class="cls-9" x="501.6" y="537.54" width="12.54" height="12.54" rx="0.89"/><rect class="cls-9" x="516.58" y="537.54" width="12.54" height="12.54" rx="0.89"/><rect class="cls-9" x="531.56" y="537.54" width="12.54" height="12.54" rx="0.89"/><rect class="cls-9" x="546.53" y="537.54" width="12.54" height="12.54" rx="0.89"/><rect class="cls-9" x="501.6" y="552.7" width="12.54" height="12.54" rx="0.89"/><rect class="cls-9" x="516.58" y="552.7" width="12.54" height="12.54" rx="0.89"/><rect class="cls-9" x="531.56" y="552.7" width="12.54" height="12.54" rx="0.89"/><rect class="cls-9" x="546.53" y="552.7" width="12.54" height="12.54" rx="0.89"/><rect class="cls-9" x="501.6" y="567.86" width="12.54" height="12.54" rx="0.89"/><rect class="cls-9" x="516.58" y="567.86" width="12.54" height="12.54" rx="0.89"/><rect class="cls-9" x="531.56" y="567.86" width="12.54" height="12.54" rx="0.89"/><rect class="cls-9" x="546.53" y="567.86" width="12.54" height="27.26" rx="0.89"/><rect class="cls-9" x="501.6" y="583.02" width="27.52" height="12.54" rx="0.89"/><rect class="cls-9" x="531.56" y="583.02" width="12.54" height="12.54" rx="0.89"/><rect class="cls-9" x="452.9" y="537.54" width="12.54" height="12.54" rx="0.89"/><rect class="cls-9" x="468.66" y="537.54" width="12.54" height="12.54" rx="0.89"/><rect class="cls-9" x="484.41" y="537.54" width="12.54" height="12.54" rx="0.89"/><rect class="cls-9" x="468.66" y="567.42" width="12.54" height="12.54" rx="0.89"/><rect class="cls-9" x="452.9" y="582.58" width="12.54" height="12.54" rx="0.89"/><rect class="cls-9" x="468.66" y="582.58" width="12.54" height="12.54" rx="0.89"/><rect class="cls-9" x="484.41" y="582.58" width="12.54" height="12.54" rx="0.89"/><path class="cls-9" d="M514.81,503.9a3.88,3.88,0,1,0,3.88,3.88A3.89,3.89,0,0,0,514.81,503.9Z"/><path class="cls-9" d="M529.12,503.9a3.88,3.88,0,1,0,3.88,3.88A3.88,3.88,0,0,0,529.12,503.9Z"/><path class="cls-9" d="M543.44,503.9a3.88,3.88,0,1,0,3.88,3.88A3.89,3.89,0,0,0,543.44,503.9Z"/><path class="cls-8" d="M611,524.21c-12.93,0-23.42,6.71-23.42,19.64v38.2c0,12.94,10.49,20.18,23.42,20.18s23.43-7.24,23.43-20.18v-38.2C634.44,530.92,624,524.21,611,524.21Z"/><path class="cls-9" d="M611.6,524.21h-1.17v39.5a56.71,56.71,0,0,1-22.84-5.59v1.34a52.41,52.41,0,0,0,22.78,5.44v0l.64,0,.55,0h0a52.22,52.22,0,0,0,22.87-5.45v-1.33a56.69,56.69,0,0,1-22.83,5.58Z"/><path class="cls-9" d="M611,534.08a4.77,4.77,0,0,0-4.77,4.77v15a4.78,4.78,0,0,0,9.55,0v-15A4.78,4.78,0,0,0,611,534.08Z"/><path class="cls-4" d="M611,536.09a4,4,0,0,0-4,4v12.59a4,4,0,0,0,8,0V540.08A4,4,0,0,0,611,536.09Z"/><path class="cls-10" d="M680.42,656.51c1.79-14.67,3.15-25.18,3-30-.19-7.46-1.76-26.31-2.15-29.61-.35-3-.06-15.42.09-19.43.11-2.83-2.84-16.7-3.43-18.42-1.81-5.37-8.39-4.69-7.91,2.05.06.81.79,15.24.79,15.24-.36,2.66,0,12.24-.09,13-.4-2.48-1.72-14-2.38-21.6-.69-8.07-9-26.65-9.54-28.19-2.33-6-10.66-5.43-9.84,2.53.09.9,5.89,15.27,6.7,26.06.12,1.62,0,14.94,0,16C655.3,582,654.18,568,652.31,565c-4.65-7.39-8.76-16.71-9.57-18.28-4.26-8.19-10-3.64-10.51,1.85-.17,1.67-.62,3.57,6.68,18.62,1.5,3.09,1.76,16.52,1.85,18.3-1-2.37-3.35-7.53-6.55-17.17-1.77-5.35-4.36-12.79-6.16-16.64-4.14-8.82-10.57-11.4-11-2.59-.25,4.52,2.47,12.53,5,23.23,4.42,18.89,6.49,21.61,4.9,49.3-.49-1.22-10.37-35.65-19.38-29.18-3.22,2.32,1.49,8.12,2.48,21.08,0,0,5.37,13.26,9.81,24.69,2.15,5.54,11.89,18.34,21.62,24.95l6.83,40.58a9.17,9.17,0,0,0,10.17,8s14.89-.74,17-1.06l3.08-.45c5-.73,7.54-13.4,6.8-18.41Z"/><path class="cls-11" d="M620,546.74c-3,1.44-.64,9.52-.64,9.52,5.38,2,7.38-2.16,7.38-2.16C626.8,552.81,623.93,544.91,620,546.74Z"/><path class="cls-11" d="M635.94,543.35c-3.1,1.33-.75,6.94-.75,6.94,5.3,2.18,7.44-1.9,7.44-1.9C642.7,547.1,639.88,541.66,635.94,543.35Z"/><path class="cls-11" d="M652.24,538.08c-2.75,1.54,0,8.93,0,8.93,5.14,1.53,6.75-2.47,6.75-2.47C658.93,543.33,655.76,536.13,652.24,538.08Z"/><path class="cls-11" d="M672.84,557.44c-2.5.81-1.44,7.34-1.44,7.34,4,2.09,6-.94,6-.94C677.49,562.83,676.05,556.4,672.84,557.44Z"/><path class="cls-12" d="M656,597.4s2.65-4.5-.09-10.95C655.9,586.45,653.25,590.76,656,597.4Z"/><path class="cls-12" d="M642.29,600.47a13.66,13.66,0,0,0-.88-11.47S639,594.1,642.29,600.47Z"/><path class="cls-12" d="M669.68,600.24s2.72-1.83,1.05-8.63C670.73,591.61,668,593.25,669.68,600.24Z"/><path class="cls-11" d="M608.27,595.42c-.72-.42-2.16.65-2,1.05,1.82,5.24,2.45,8.74,2.25,8.36,0,0,1.49,1.5,1.92-.44C611.67,598.8,609.82,596.33,608.27,595.42Z"/><rect class="cls-13" x="637.88" y="664.24" width="49.12" height="22.13" transform="translate(-92.15 104.81) rotate(-8.46)"/><polygon class="cls-14" points="631.65 680.22 657.86 850.45 719.64 850.45 693.32 670.98 631.65 680.22"/><path class="cls-9" d="M533.52,654.7c-1.63-.93-3.2-1.26-3.5-.73s.78,1.7,2.41,2.63,3.2,1.26,3.5.73S535.15,655.63,533.52,654.7Z"/><polygon class="cls-15" points="580.33 674.93 601.93 687.22 600.59 689.57 602.97 690.92 605.64 686.22 579.19 671.17 580.33 674.93"/><polygon class="cls-13" points="532.38 656.7 537.3 663.05 541.65 655.41 533.54 654.66 532.38 656.7"/><rect class="cls-15" x="600.81" y="693.06" width="6.78" height="6.06" transform="translate(-299.62 876.93) rotate(-60.36)"/><polygon class="cls-4" points="541.65 655.41 537.3 663.05 541.02 665.17 574.91 684.46 579.26 676.81 545.37 657.52 541.65 655.41"/><rect class="cls-5" x="583.43" y="667.25" width="8.8" height="39" transform="translate(-299.78 858) rotate(-60.36)"/><rect class="cls-15" x="568.34" y="676.03" width="8.8" height="4.28" transform="translate(-299.94 840.56) rotate(-60.36)"/><path class="cls-16" d="M583.32,749.6l-1.68-3.48c-1.07-2.21-2.12-1.37-3.58-.67s-2.78,1-1.7,3.23l1.67,3.48c1.07,2.21,2.1,1.31,3.56.6S584.39,751.82,583.32,749.6Z"/><polygon class="cls-14" points="557.18 698.82 557.18 698.82 554.52 700.11 554.52 700.11 553.19 700.75 575.28 746.48 580.59 743.91 558.51 698.18 557.18 698.82"/><polygon class="cls-17" points="553.18 700.75 558.51 698.18 552 691.32 553.18 700.75"/><path class="cls-18" d="M552,691.32l.43,3.42c.64.57,1,.63,1.44.42s.56-.67.54-1.29Z"/><polygon class="cls-13" points="579.03 744.05 579.03 744.05 576.38 745.34 575.05 745.98 576.48 748.95 581.79 746.38 580.36 743.41 579.03 744.05"/><rect class="cls-19" x="350.73" y="654.57" width="152.54" height="105.98"/><rect class="cls-20" x="353.27" y="727.22" width="7.77" height="8.46"/><rect class="cls-21" x="353.27" y="709.52" width="7.77" height="8.46"/><rect class="cls-22" x="357.15" y="657.81" width="69.98" height="100.05"/><rect class="cls-9" x="361.41" y="665.64" width="59.53" height="2.05"/><rect class="cls-9" x="361.41" y="670.87" width="59.53" height="2.05"/><rect class="cls-9" x="361.41" y="676.1" width="59.53" height="2.05"/><rect class="cls-9" x="361.41" y="681.33" width="59.53" height="2.05"/><rect class="cls-9" x="361.41" y="686.57" width="59.53" height="2.05"/><rect class="cls-9" x="361.41" y="691.8" width="59.53" height="2.05"/><rect class="cls-9" x="361.41" y="697.03" width="59.53" height="2.05"/><rect class="cls-9" x="361.41" y="702.26" width="59.53" height="2.05"/><rect class="cls-9" x="361.41" y="707.5" width="59.53" height="2.05"/><rect class="cls-9" x="361.41" y="712.73" width="59.53" height="2.05"/><rect class="cls-9" x="361.41" y="717.96" width="59.53" height="2.05"/><rect class="cls-9" x="361.41" y="723.19" width="59.53" height="2.05"/><rect class="cls-9" x="361.41" y="728.43" width="59.53" height="2.05"/><rect class="cls-9" x="361.41" y="733.66" width="59.53" height="2.05"/><rect class="cls-9" x="361.41" y="738.89" width="59.53" height="2.05"/><rect class="cls-9" x="361.41" y="744.13" width="59.53" height="2.05"/><path class="cls-23" d="M497.53,694.52h-.07a4.24,4.24,0,0,0-1.76.38v24.29a4.24,4.24,0,0,0,1.76.38h.07c2.07,0,3.75-1.38,3.75-3.09V697.61C501.28,695.9,499.6,694.52,497.53,694.52Z"/><path class="cls-20" d="M497.53,677.54h-.07a4.4,4.4,0,0,0-1.76.38v24.3a4.4,4.4,0,0,0,1.76.37h.07c2.07,0,3.75-1.38,3.75-3.08V680.63C501.28,678.93,499.6,677.54,497.53,677.54Z"/><path class="cls-21" d="M497.53,660.57h-.07a4.4,4.4,0,0,0-1.76.37v24.3a4.4,4.4,0,0,0,1.76.38h.07c2.07,0,3.75-1.38,3.75-3.09V663.65C501.28,662,499.6,660.57,497.53,660.57Z"/><rect class="cls-22" x="427.13" y="657.81" width="69.98" height="100.05"/><rect class="cls-9" x="433.44" y="665.64" width="59.53" height="2.05"/><rect class="cls-9" x="433.44" y="670.87" width="59.53" height="2.05"/><rect class="cls-9" x="433.44" y="676.1" width="59.53" height="2.05"/><rect class="cls-9" x="433.44" y="681.33" width="59.53" height="2.05"/><rect class="cls-9" x="433.44" y="686.57" width="59.53" height="2.05"/><rect class="cls-9" x="433.44" y="691.8" width="59.53" height="2.05"/><rect class="cls-9" x="433.44" y="697.03" width="59.53" height="2.05"/><rect class="cls-9" x="433.44" y="702.26" width="59.53" height="2.05"/><rect class="cls-9" x="433.44" y="707.5" width="59.53" height="2.05"/><rect class="cls-9" x="433.44" y="712.73" width="59.53" height="2.05"/><rect class="cls-9" x="433.44" y="717.96" width="59.53" height="2.05"/><rect class="cls-9" x="433.44" y="723.19" width="59.53" height="2.05"/><rect class="cls-9" x="433.44" y="728.43" width="59.53" height="2.05"/><rect class="cls-9" x="433.44" y="733.66" width="59.53" height="2.05"/><rect class="cls-9" x="433.44" y="738.89" width="59.53" height="2.05"/><rect class="cls-9" x="433.44" y="744.13" width="59.53" height="2.05"/><path class="cls-24" d="M427.13,757.86l44,9.2V666.21l-44-8.4Z"/><path class="cls-13" d="M427.13,757.86l37.17-19.22v-100l-37.17,19.22Z"/><path class="cls-9" d="M430.61,665.08v2l29.56-15.71v-2Z"/><path class="cls-9" d="M430.61,670.29v2l29.58-15.73c0-.81,0-1.22,0-2Z"/><path class="cls-9" d="M430.61,675.5v2L460.2,661.8c0-.81,0-1.22,0-2Z"/><path class="cls-9" d="M430.61,680.72v2L460.21,667c0-.81,0-1.22,0-2Z"/><path class="cls-9" d="M430.61,685.94v2l29.61-15.78v-2Z"/><path class="cls-9" d="M430.61,691.17v2.05l29.62-15.8v-2Z"/><path class="cls-9" d="M430.61,696.4v2.05l29.63-15.82v-2Z"/><path class="cls-9" d="M430.61,701.64v2.05l29.65-15.84c0-.82,0-1.23,0-2Z"/><path class="cls-9" d="M430.61,706.88v2l29.66-15.86v-2Z"/><path class="cls-9" d="M430.61,712.12v2l29.67-15.87v-2Z"/><path class="cls-9" d="M430.61,717.37v2l29.68-15.89v-2Z"/><path class="cls-9" d="M430.61,722.62v2.06l29.69-15.92v-2Z"/><path class="cls-9" d="M430.61,727.88v2L460.32,714c0-.82,0-1.23,0-2Z"/><path class="cls-9" d="M430.61,733.14v2.06l29.72-16c0-.82,0-1.23,0-2.06Z"/><path class="cls-9" d="M430.61,738.4v2.06l29.73-16v-2Z"/><path class="cls-9" d="M430.61,743.67v2.06l29.74-16v-2.06Z"/><polygon class="cls-23" points="379.95 691.08 383.09 688.67 386.24 691.08 386.24 656.65 379.95 656.65 379.95 691.08"/><path class="cls-25" d="M166.7,513.83c-7.23,6.11-26.89,30.16-26.89,30.16s.64,5,8.71-4.13L168.68,517c14.54-10.83,20.74-17,20.74-17L185.67,497S173.92,507.72,166.7,513.83Z"/><path class="cls-25" d="M180.78,512.28s-27,12.11-34.16,17.17-20.3,12.91-20.3,12.91l3,4.5s6.94-4.11,19.93-14.7c0,0,17.84-8.57,25.27-12.58C185.57,513.57,180.78,512.28,180.78,512.28Z"/><path class="cls-26" d="M137.45,531.14c-9.81,6.12-11.4,11.59-7.09,17.12,2.39,3.07,7,5.32,11.77,5.77l-.31-25.31A41.41,41.41,0,0,0,137.45,531.14Z"/><path class="cls-27" d="M141.82,528.72l.31,25.31a19.57,19.57,0,0,0,2.3.07l-.32-26.35C143.38,528,142.61,528.34,141.82,528.72Z"/><path class="cls-26" d="M149.87,526.66l.26,26.22a13.05,13.05,0,0,0,2.92-1.71c7-5.47,9.23-14.39,4.92-19.92C155.78,528.44,153.23,526.77,149.87,526.66Z"/><path class="cls-26" d="M144.11,527.75l.32,26.35a16,16,0,0,0,4.71-.84l-.26-26.58A16,16,0,0,0,144.11,527.75Z"/><path class="cls-27" d="M148.88,526.68l.26,26.58c.33-.11.66-.24,1-.38l-.26-26.22C149.55,526.65,149.22,526.66,148.88,526.68Z"/><path class="cls-26" d="M171.73,503.28c-2.94,2.78-9.25,13.43-4.58,19.43,2.59,3.33,3.39,4.65,8.59,5.14l-.38-27.4A13,13,0,0,0,171.73,503.28Z"/><path class="cls-27" d="M175.36,500.45l.38,27.4a18.78,18.78,0,0,0,2.49.08l-.39-28.53C177,499.69,176.22,500,175.36,500.45Z"/><path class="cls-26" d="M184.06,498.24l.33,28.39a14.37,14.37,0,0,0,3.16-1.85c7.59-5.91,9.12-15.42,4.45-21.42C189.63,500.32,187.69,498.36,184.06,498.24Z"/><path class="cls-26" d="M177.84,499.4l.39,28.53a17.3,17.3,0,0,0,5.1-.9L183,498.25A17.82,17.82,0,0,0,177.84,499.4Z"/><path class="cls-27" d="M183,498.25l.33,28.78c.36-.12.71-.25,1.06-.4l-.33-28.39C183.72,498.23,183.36,498.23,183,498.25Z"/><path class="cls-4" d="M191.94,499.44c0-.12.47-2.95.76-2.58l-3.93-5c-2.12-.76-11,3.06-20,14.24S157,520.47,157,520.47s-3.8,1.87-16.85,7.87S121.24,542,121.45,544.22l3.92,5c-.28-.36,2.58-.15,2.69-.1,3.35,1.54,5.6,3.66,8.53,5.53,4.82,3.09,10.23,2.36,15.17-.43a27.17,27.17,0,0,0,4.78-3.48c3.08-2.79,5.17-6.38,5.22-9.59,0-2.48-.28-6.47-2.81-15.43l2.72-2.12c8.07,4.65,11.86,5.94,14.26,6.51,3.14.74,7.13-.4,10.59-2.7a27.52,27.52,0,0,0,4.55-3.78c3.92-4.11,6-9.17,4.14-14.6C194.11,505.76,192.6,503.06,191.94,499.44ZM157.45,545.2c-1.79,4-9.58,8.16-12.44,8.48-8.65,1-13.81-7.17-14.88-10.64a5,5,0,0,1,.5-4.28c2.3-3.69,8.93-7.27,14-9.58,6.14-2.81,9.34,0,12.27,5.18A12.2,12.2,0,0,1,157.45,545.2ZM192.16,517c-1,2.69-6.95,9.22-11.27,10a12.18,12.18,0,0,1-10.37-3.19c-4.29-4.11-6.24-7.91-2-13.17,3.49-4.34,8.58-9.89,12.73-11.21a5,5,0,0,1,4.27.56C188.6,501.83,195.23,508.83,192.16,517Z"/><rect class="cls-13" x="485.17" y="249.77" width="17.85" height="12" transform="translate(-15.57 478.9) rotate(-51.01)"/><path class="cls-28" d="M465.12,278.08c-.91,1.12-.52,2.94.87,4.06l8.31,6.73c1.39,1.12,3.25,1.13,4.15,0l21.49-26.55-13.33-10.79Z"/><rect class="cls-29" x="492.63" y="250.61" width="2.9" height="2.65" transform="translate(-12.61 477.45) rotate(-51.01)"/><rect class="cls-29" x="496.54" y="253.78" width="2.91" height="2.65" transform="translate(-13.61 481.68) rotate(-51.01)"/><polygon class="cls-28" points="682.51 185 628.45 190.8 633.74 240 678.47 235.19 677.47 225.87 686.8 224.87 682.51 185"/><rect class="cls-13" x="638.1" y="196.02" width="39.17" height="4.03" transform="translate(-17.39 71.39) rotate(-6.13)"/><rect class="cls-13" x="639.04" y="204.82" width="39.17" height="4.03" transform="translate(-18.33 71.54) rotate(-6.13)"/><rect class="cls-13" x="639.99" y="213.63" width="39.17" height="4.03" transform="translate(-19.26 71.67) rotate(-6.13)"/><rect class="cls-13" x="640.97" y="223.09" width="26.9" height="4.03" transform="translate(-20.3 71.17) rotate(-6.13)"/><polygon class="cls-13" points="678.47 235.19 686.8 224.87 677.47 225.87 678.47 235.19"/><path class="cls-4" d="M142.07,414.24a2.35,2.35,0,0,0-2.25-.78,9.18,9.18,0,0,0-4.17,1.67l0,0c-1.21.78-4,2.61-3.42,5.25v0l9,14.19a2.18,2.18,0,0,0,2.11.78,6,6,0,0,0,2.75-1.18l.1-.07c1-.68,3.52-2.48,2.54-4.3l-7.82-12.25-1.4.89,7.8,12.23c.55,1-.45,1.85-1.72,2.74l-.11.08a3.45,3.45,0,0,1-1.55.7,1.42,1.42,0,0,1-1.3-.52l-9-14.11c-.4-1.86,1.25-2.93,2.46-3.72l0,0c3.41-2.2,4.42-.9,4.52-.75l10.86,17c1,1.5,1.11,2.8.46,4a8.27,8.27,0,0,1-3,2.7c-2,1.25-3.73,1.56-5.26.92a4.37,4.37,0,0,1-1.86-1.45L133.44,425l-1.4.89,8.48,13.27a4.71,4.71,0,0,0,2.08,1.66c2,.82,4.34.38,6.91-1.25a10.75,10.75,0,0,0,3.82-3.57,4.32,4.32,0,0,0-.4-4.77Z"/><path class="cls-4" d="M154,461.82l0,0L137.33,459a2.19,2.19,0,0,0-2,1,6.1,6.1,0,0,0-1,2.84V463c-.14,1.17-.52,4.27,1.48,4.77l14.34,2.41.27-1.63-14.3-2.41c-1.13-.29-1.07-1.59-.88-3.12v-.13a3.38,3.38,0,0,1,.53-1.62,1.4,1.4,0,0,1,1.25-.62l16.51,2.78c1.66.95,1.34,2.9,1.11,4.32v0c-.65,4-2.3,3.89-2.48,3.86l-19.89-3.35c-1.76-.3-2.82-1.06-3.26-2.32a8.51,8.51,0,0,1,0-4c.39-2.28,1.35-3.81,2.85-4.51a4.28,4.28,0,0,1,2.32-.4l15.53,2.61L150,458l-15.52-2.62a4.82,4.82,0,0,0-2.63.44c-1.92.89-3.2,3-3.71,6a10.88,10.88,0,0,0,.08,5.23,4.34,4.34,0,0,0,3.81,2.89l19.89,3.36a2.37,2.37,0,0,0,2.09-1.15,9.19,9.19,0,0,0,1.56-4.21v-.05C155.79,466.46,156.33,463.14,154,461.82Z"/><path class="cls-14" d="M712.19,491.45l-7.61-2.74a6.49,6.49,0,0,0-2.67-.36,33.8,33.8,0,1,0-3.72,11.38,6.72,6.72,0,0,0,2,1.18l7.61,2.74a6.48,6.48,0,0,0,4.4-12.2Z"/><path class="cls-30" d="M662.19,457.36a27.38,27.38,0,1,0,33,20.23A27.38,27.38,0,0,0,662.19,457.36Z"/><path class="cls-13" d="M661.32,472.69c16.61-8.06,24.3,10.4,24.3,10.4-4.28-21.11-21.78-16.59-26.51-13.89A17.5,17.5,0,0,0,651.33,490a16.71,16.71,0,0,0,15,11.8c3.64.21,12.34-1.58,15-9.71a12.17,12.17,0,0,0-8.81-15.5c-12.09-2.63-15.09,8-12.16,12.54,3.25,5,8.69,3,11.37,1-4.42.61-7.83-1.86-7.87-4.65-.07-5.09,7-5.53,10.27-2.83,3.69,3.09,5.31,9.08,1,12.7a12.18,12.18,0,0,1-8.77,2.45c-4.92-.59-9.24-3.26-11-8.81C653.22,482.39,656,475.3,661.32,472.69Z"/><rect class="cls-13" x="564.31" y="219.72" width="38.8" height="58.9" transform="translate(38.47 574.01) rotate(-53.9)"/><rect class="cls-28" x="588.99" y="207.17" width="7.74" height="58.9" transform="translate(52.37 576.24) rotate(-53.9)"/><rect class="cls-9" x="597.28" y="240.6" width="1.78" height="23.52" transform="translate(41.84 587.01) rotate(-53.9)"/><rect class="cls-9" x="594.59" y="244.29" width="1.78" height="23.52" transform="translate(37.75 586.35) rotate(-53.9)"/><rect class="cls-9" x="591.9" y="247.98" width="1.78" height="23.52" transform="translate(33.66 585.69) rotate(-53.9)"/><rect class="cls-9" x="589.21" y="251.67" width="1.78" height="23.52" transform="translate(29.58 585.03) rotate(-53.9)"/><rect class="cls-9" x="586.52" y="255.36" width="1.78" height="23.52" transform="translate(25.49 584.37) rotate(-53.9)"/><path class="cls-31" d="M573.32,246.64,567,242a5,5,0,0,0-7.06,1.1l-2.61,3.57,14.51,10.58,2.6-3.57A5.06,5.06,0,0,0,573.32,246.64Z"/><path class="cls-31" d="M576.4,235.77a5.15,5.15,0,1,0,1.13,7.19A5.15,5.15,0,0,0,576.4,235.77Z"/><path class="cls-28" d="M603.37,234.12l-3.15-2.31a2.53,2.53,0,0,0,1.43-.94l0-.05a2.63,2.63,0,0,0-.58-3.67l-1.76-1.28a2.62,2.62,0,0,0-3.67.57l0,0a2.66,2.66,0,0,0-.46,1.66l-3.15-2.3a2.65,2.65,0,0,0-3.68.58l-.35.48a2.62,2.62,0,0,0-.44,1.07L602.71,239a2.52,2.52,0,0,0,.88-.75l.36-.48A2.63,2.63,0,0,0,603.37,234.12Z"/><polygon class="cls-32" points="631.65 680.22 645.92 678.17 675.64 850 657.86 850.45 631.65 680.22"/><polygon class="cls-33" points="630.84 426.92 224.22 426.92 168.14 340.45 687.63 340.45 630.84 426.92"/><path class="cls-13" d="M323.51,361.92h-55c-1.35,0-2.24.54-2,1.21s1.56,1.21,2.91,1.21h54.64c1.35,0,2.31-.54,2.15-1.21S324.87,361.92,323.51,361.92Z"/><path class="cls-13" d="M325.35,369.39H278.61c-1.33,0-2.22.52-2,1.17s1.5,1.17,2.82,1.17h46.48c1.32,0,2.27-.53,2.12-1.17S326.69,369.39,325.35,369.39Z"/><path class="cls-34" d="M327.13,376.6h-53c-1.31,0-2.17.51-1.93,1.13s1.48,1.13,2.78,1.13h52.75c1.3,0,2.23-.51,2.08-1.13S328.44,376.6,327.13,376.6Z"/><path class="cls-13" d="M328.84,383.56H297.69c-1.28,0-2.17.49-2,1.09s1.4,1.09,2.68,1.09h31c1.28,0,2.2-.48,2.06-1.09S330.13,383.56,328.84,383.56Z"/><path class="cls-13" d="M330.5,390.29H279.26c-1.27,0-2.11.47-1.89,1s1.42,1.06,2.68,1.06h51c1.26,0,2.17-.47,2-1.06S331.77,390.29,330.5,390.29Z"/><path class="cls-13" d="M332.1,396.79H290.72c-1.24,0-2.09.46-1.88,1s1.37,1,2.6,1h41.17c1.23,0,2.13-.45,2-1S333.35,396.79,332.1,396.79Z"/><path class="cls-13" d="M333.65,403.08H293c-1.23,0-2.06.45-1.86,1s1.34,1,2.56,1h40.49c1.22,0,2.1-.44,2-1S334.88,403.08,333.65,403.08Z"/><path class="cls-13" d="M335.15,409.17H290.74c-1.2,0-2,.43-1.82,1s1.32.95,2.52.95h44.18c1.2,0,2.07-.42,1.94-.95S336.36,409.17,335.15,409.17Z"/><path class="cls-34" d="M336.61,415.07H307.92c-1.19,0-2,.41-1.84.93s1.26.92,2.44.92h28.54c1.18,0,2-.41,1.92-.92S337.79,415.07,336.61,415.07Z"/><path class="cls-34" d="M321.6,354.17h-41c-1.39,0-2.31.56-2.07,1.26s1.55,1.25,2.93,1.25h40.71c1.38,0,2.36-.56,2.19-1.25S323,354.17,321.6,354.17Z"/><path class="cls-13" d="M319.62,346.13h-57c-1.41,0-2.32.59-2.05,1.31s1.64,1.3,3,1.3h56.68c1.4,0,2.39-.58,2.22-1.3S321,346.13,319.62,346.13Z"/><path class="cls-13" d="M338,420.78H290.76c-1.17,0-2,.41-1.77.9s1.28.9,2.44.9h47c1.16,0,2-.4,1.88-.9S339.18,420.78,338,420.78Z"/><polygon class="cls-34" points="342.82 364.64 353.48 364.64 352.94 361.61 342.2 361.61 342.82 364.64"/><polygon class="cls-34" points="344.3 372.02 354.78 372.02 354.26 369.09 343.71 369.09 344.3 372.02"/><polygon class="cls-34" points="345.74 379.14 356.03 379.14 355.53 376.31 345.17 376.31 345.74 379.14"/><polygon class="cls-34" points="347.13 386.01 357.24 386.01 356.76 383.29 346.58 383.29 347.13 386.01"/><polygon class="cls-34" points="348.47 392.66 358.41 392.66 357.95 390.02 347.94 390.02 348.47 392.66"/><polygon class="cls-34" points="349.76 399.08 359.54 399.08 359.1 396.54 349.25 396.54 349.76 399.08"/><polygon class="cls-34" points="351.02 405.3 360.64 405.3 360.2 402.83 350.52 402.83 351.02 405.3"/><polygon class="cls-34" points="352.23 411.32 361.7 411.32 361.28 408.93 351.75 408.93 352.23 411.32"/><polygon class="cls-34" points="353.41 417.15 362.73 417.15 362.32 414.84 352.94 414.84 353.41 417.15"/><polygon class="cls-34" points="341.27 357 352.13 357 351.58 353.85 340.64 353.85 341.27 357"/><polygon class="cls-34" points="339.67 349.06 350.73 349.06 350.16 345.8 339.02 345.8 339.67 349.06"/><polygon class="cls-34" points="354.55 422.8 363.72 422.8 363.33 420.56 354.09 420.56 354.55 422.8"/><path class="cls-13" d="M410.72,410.13c0-.53.93-1,2.14-1h157.8c1.21,0,2,.43,1.81,1s-1.35.95-2.54.95h-157C411.73,411.08,410.74,410.66,410.72,410.13Z"/><path class="cls-13" d="M572.25,405.06H484.87c-1.22,0-2.14-.44-2.06-1s1.14-1,2.36-1H573c1.22,0,2,.45,1.83,1S573.47,405.06,572.25,405.06Z"/><path class="cls-34" d="M464.13,405.06H437c-1.22,0-2.19-.44-2.18-1s1-1,2.23-1h27.33c1.22,0,2.17.45,2.11,1S465.35,405.06,464.13,405.06Z"/><path class="cls-13" d="M520.86,398.83H397.6c-1.23,0-2.28-.45-2.32-1s.92-1,2.17-1H521.36c1.24,0,2.14.46,2,1S522.1,398.83,520.86,398.83Z"/><path class="cls-34" d="M371.83,396.79h8.79c1.24,0,2.3.46,2.37,1s-.89,1-2.13,1h-8.74c-1.23,0-2.31-.45-2.39-1S370.59,396.79,371.83,396.79Z"/><path class="cls-13" d="M538.69,391.34c-.17.59-1.32,1.06-2.58,1.06H420c-1.26,0-2.29-.47-2.3-1.06s1-1,2.26-1H536.7C538,390.29,538.86,390.76,538.69,391.34Z"/><path class="cls-13" d="M370.9,390.29h33c1.27,0,2.32.47,2.35,1s-1,1.06-2.22,1.06H371.2c-1.26,0-2.35-.47-2.43-1.06S369.63,390.29,370.9,390.29Z"/><path class="cls-13" d="M369.94,383.56h126.7c1.28,0,2.24.49,2.13,1.09s-1.24,1.09-2.52,1.09h-126c-1.28,0-2.39-.49-2.48-1.09S368.65,383.56,369.94,383.56Z"/><path class="cls-13" d="M452.2,378.86c-1.31,0-2.33-.51-2.3-1.13s1.13-1.13,2.44-1.13h66.85c1.31,0,2.26.5,2.11,1.13s-1.32,1.13-2.62,1.13Z"/><path class="cls-13" d="M368.94,376.6H426.8c1.31,0,2.37.5,2.37,1.13s-1.06,1.13-2.37,1.13H369.26c-1.3,0-2.43-.51-2.52-1.13S367.63,376.6,368.94,376.6Z"/><path class="cls-13" d="M585.09,371.73H425.83c-1.32,0-2.4-.53-2.41-1.17s1.07-1.17,2.41-1.17H586c1.34,0,2.21.52,2,1.17S586.42,371.73,585.09,371.73Z"/><path class="cls-13" d="M587.94,364.34H447.8c-1.35,0-2.42-.54-2.39-1.21s1.15-1.21,2.51-1.21h141c1.36,0,2.25.54,2,1.21S589.29,364.34,587.94,364.34Z"/><path class="cls-34" d="M590.89,356.68H561.54c-1.37,0-2.31-.56-2.09-1.25s1.51-1.26,2.89-1.26h29.52c1.38,0,2.28.56,2,1.26S592.26,356.68,590.89,356.68Z"/><path class="cls-13" d="M541,356.68H433.25c-1.37,0-2.48-.56-2.47-1.25s1.13-1.26,2.51-1.26h108.4c1.38,0,2.34.56,2.15,1.26S542.39,356.68,541,356.68Z"/><path class="cls-13" d="M374.45,415.07H474c1.18,0,2.09.41,2,.93s-1.08.92-2.26.92h-99c-1.18,0-2.19-.41-2.27-.92S373.26,415.07,374.45,415.07Z"/><path class="cls-13" d="M375.27,420.78H528.16c1.17,0,2,.4,1.85.9s-1.19.9-2.35.9H375.52c-1.16,0-2.16-.4-2.23-.9S374.1,420.78,375.27,420.78Z"/><path class="cls-13" d="M535.67,348.74H457.83c-1.4,0-2.5-.58-2.45-1.3s1.23-1.31,2.64-1.31h78.3c1.41,0,2.4.59,2.21,1.31S537.07,348.74,535.67,348.74Z"/><path class="cls-34" d="M435.75,348.74H365c-1.4,0-2.62-.58-2.73-1.3s.95-1.31,2.36-1.31H435.8c1.41,0,2.54.59,2.52,1.31S437.15,348.74,435.75,348.74Z"/><path class="cls-34" d="M496,415.07c1.19,0,2.07.41,2,.93s-1.14.92-2.32.92H488c-1.18,0-2.07-.41-2-.92s1.11-.93,2.3-.93Z"/><path class="cls-34" d="M401.65,410.13c0,.53-.91.95-2.11.95H389.06c-1.2,0-2.21-.42-2.27-.95s.87-1,2.08-1H399.4C400.6,409.17,401.61,409.6,401.65,410.13Z"/><path class="cls-34" d="M528.06,384.65c-.16.6-1.32,1.09-2.6,1.09H513.21c-1.28,0-2.21-.49-2.09-1.09s1.28-1.09,2.57-1.09H526C527.29,383.56,528.21,384.05,528.06,384.65Z"/><path class="cls-34" d="M566.28,390.29c1.26,0,2.12.47,1.91,1s-1.4,1.06-2.66,1.06h-9.77c-1.25,0-2.12-.47-1.93-1.06s1.37-1,2.63-1Z"/><path class="cls-34" d="M406.54,371.73c-1.32,0-2.43-.53-2.46-1.17s1-1.17,2.35-1.17h10.39c1.33,0,2.42.52,2.44,1.17s-1.06,1.17-2.38,1.17Z"/><path class="cls-28" d="M178.34,334c.81,2-.75,3.62-3.47,3.62s-5.61-1.61-6.48-3.62.65-3.7,3.43-3.7S177.52,331.93,178.34,334Z"/><path class="cls-28" d="M191.74,334c.72,2-.9,3.62-3.62,3.62S182.58,336,181.8,334s.8-3.7,3.59-3.7S191,332,191.74,334Z"/><path class="cls-28" d="M205.3,334c.63,2-1.06,3.62-3.78,3.62s-5.47-1.61-6.17-3.62,1-3.7,3.76-3.7S204.66,331.93,205.3,334Z"/><rect class="cls-35" x="98.59" y="91.33" width="175.85" height="129.19" transform="translate(11.82 324.99) rotate(-83.96)"/><rect class="cls-35" x="107.14" y="86.55" width="175.85" height="129.19" transform="translate(11.26 315.81) rotate(-79.62)"/><path class="cls-4" d="M159.22,56a3.26,3.26,0,0,1-1.55-.42,3.22,3.22,0,0,1-1.45-1.88l-4.6-17.08.47-.14,4.6,17.08a2.73,2.73,0,0,0,1.22,1.6,2.61,2.61,0,0,0,2,.23,2.68,2.68,0,0,0,1.59-1.22,2.4,2.4,0,0,0,.24-2l-5-18.64a1.43,1.43,0,0,0-.8-1,1.5,1.5,0,0,0-1.27-.14,1.65,1.65,0,0,0-1.17,2L158,51.38a.72.72,0,0,0,.89.51.74.74,0,0,0,.52-.89l-4.27-15.73.47-.14,4.32,15.78a1.18,1.18,0,0,1-.85,1.45,1.16,1.16,0,0,1-1.45-.84l-4.56-16.9a2.14,2.14,0,1,1,4.13-1.13l5,18.64a3.15,3.15,0,0,1-.29,2.35,3.23,3.23,0,0,1-1.87,1.45A5,5,0,0,1,159.22,56Z"/><path class="cls-4" d="M170.68,43.16a3.53,3.53,0,0,1-1.18-.23,3.08,3.08,0,0,1-1.69-4l6.72-16.39.42.19-6.71,16.38a2.59,2.59,0,0,0,4.78,2l7.28-17.84a1.66,1.66,0,0,0-.89-2.16,1.49,1.49,0,0,0-1.27,0,1.65,1.65,0,0,0-.89.89l-6.53,16.15a.61.61,0,0,0,0,.56c.1.19.19.33.38.38a.75.75,0,0,0,.94-.38l6.15-15.07.42.19-6.15,15.07a1.2,1.2,0,0,1-1.55.66,1.29,1.29,0,0,1-.66-.66,1,1,0,0,1,0-.89l6.62-16.2A2.26,2.26,0,0,1,178,20.63a2,2,0,0,1,1.64,0,2.15,2.15,0,0,1,1.18,2.77l-7.28,17.84A3.11,3.11,0,0,1,170.68,43.16Z"/><rect class="cls-13" x="101.86" y="89.01" width="175.86" height="129.2" transform="matrix(0.14, -0.99, 0.99, 0.14, 11.43, 320.34)"/><path class="cls-4" d="M247.29,91.52l-16.38-2.3a5.55,5.55,0,0,1-4.7-6.2l.14-1a5.55,5.55,0,0,1,6.2-4.7l16.39,2.3a5.53,5.53,0,0,1,4.69,6.2l-.14,1A5.53,5.53,0,0,1,247.29,91.52Z"/><rect class="cls-7" x="192.79" y="65.3" width="5.4" height="101.45" transform="translate(53.56 293.61) rotate(-82.06)"/><rect class="cls-7" x="191.15" y="76.99" width="5.4" height="101.45" transform="translate(40.57 302.06) rotate(-82.06)"/><rect class="cls-7" x="189.51" y="88.68" width="5.4" height="101.45" transform="translate(27.58 310.5) rotate(-82.06)"/><rect class="cls-7" x="187.86" y="100.37" width="5.4" height="101.45" transform="translate(14.58 318.94) rotate(-82.06)"/><rect class="cls-7" x="186.27" y="112.06" width="5.4" height="101.45" transform="translate(1.62 327.44) rotate(-82.06)"/><rect class="cls-7" x="184.62" y="123.75" width="5.4" height="101.45" transform="translate(-11.37 335.89) rotate(-82.06)"/><rect class="cls-7" x="182.98" y="135.39" width="5.4" height="101.45" transform="translate(-24.31 344.3) rotate(-82.06)"/><rect class="cls-31" x="217.68" y="188.82" width="5.4" height="28.12" transform="translate(-11.01 393.1) rotate(-82.06)"/><path class="cls-36" d="M235,202.68l-101.4-14.13,0-.47,11.5-82.25L246.59,120l-.05.47ZM134.72,187.76l99.52,13.89,11.27-80.84L146,106.91Z"/><path class="cls-36" d="M234.29,208l-28.78-4,.05-.47L217.76,116l28.78,4,0,.47Zm-27.7-4.84,26.9,3.76,12-86.2L218.61,117Z"/><path class="cls-36" d="M245.7,126.26,144.29,112.13l.89-6.25L246.59,120ZM145.37,111.33l99.53,13.89.61-4.41L146,106.91Z"/><path class="cls-36" d="M141.15,189.59l-7.51-1,0-.47,11.5-82.25,7.52,1,0,.47Zm-6.43-1.83,5.63.79,11.27-80.84-5.64-.8Z"/><path class="cls-36" d="M207.2,198.84l-36.76-5.12.05-.47L182,111l36.76,5.12-.05.47Zm-35.73-6,34.93,4.89,11.27-80.85L182.74,112Z"/><rect class="cls-36" x="173.92" y="76" width="0.94" height="54.27" transform="translate(48.14 261.59) rotate(-82.06)"/><rect class="cls-36" x="216.06" y="215.78" width="0.94" height="29.25" transform="translate(-41.59 413.02) rotate(-82.06)"/><rect class="cls-36" x="164.39" y="167.08" width="0.94" height="63.75" transform="translate(-54.97 334.74) rotate(-82.06)"/><rect class="cls-36" x="163.78" y="171.59" width="0.94" height="63.75" transform="translate(-59.96 338.02) rotate(-82.06)"/><rect class="cls-36" x="174.72" y="70.56" width="0.94" height="54.27" transform="translate(54.22 257.7) rotate(-82.06)"/><rect class="cls-36" x="175.47" y="65.16" width="0.94" height="54.27" transform="translate(60.21 253.79) rotate(-82.06)"/><rect class="cls-36" x="176.22" y="59.76" width="0.94" height="54.27" transform="translate(66.21 249.88) rotate(-82.06)"/><path class="cls-28" d="M185.93,98.7l-44.41-4a1.9,1.9,0,0,1-1.73-2.11l2.3-25.49a1.91,1.91,0,0,1,2.11-1.74l44.41,4a1.91,1.91,0,0,1,1.74,2.11L188.05,97A2,2,0,0,1,185.93,98.7Z"/><rect class="cls-13" x="143.19" y="77.41" width="17.23" height="12.58" transform="translate(54.7 227.3) rotate(-84.8)"/><path class="cls-36" d="M152.74,85.41a3.38,3.38,0,0,0,1.51-1.83.43.43,0,0,0,.46-.42l.19-1.88a2.5,2.5,0,0,0-2-2.67,2.61,2.61,0,0,0-.66-.1c-.23,0-.47,0-.65,0a2.5,2.5,0,0,0-2.45,2.25L149,82.6a.43.43,0,0,0,.42.47,3.17,3.17,0,0,0,1.13,2.06l-5.26.85-.52,5.68,6.25.56,6.24.56.52-5.68Z"/><path class="cls-4" d="M184.1,75.65l-6.43-.56a1.58,1.58,0,0,1-1.41-1.69l.1-.85a1.57,1.57,0,0,1,1.69-1.41l6.43.57a1.57,1.57,0,0,1,1.41,1.69l-.1.84A1.56,1.56,0,0,1,184.1,75.65Z"/><rect class="cls-4" x="167.63" y="70.67" width="1.78" height="14.55" transform="translate(75.63 238.72) rotate(-84.8)"/><rect class="cls-4" x="171.69" y="70.93" width="1.78" height="23.52" transform="translate(74.6 247.07) rotate(-84.8)"/><rect class="cls-4" x="168.17" y="78.11" width="1.78" height="17.23" transform="translate(67.38 247.24) rotate(-84.8)"/><rect class="cls-4" x="166.46" y="83.68" width="1.78" height="14.55" transform="translate(61.61 249.38) rotate(-84.8)"/><g class="cls-37"><path class="cls-10" d="M307.34,593.37c-2.42,3.5-7.87,9.54-10.75,14.39-1.51,2.52-9.35,11.55-10.73,13.72.37-1.74,3.74-14.49,4.88-17.73,4-11.51,12-25.59,12.14-27.26.37-5.51-5.53-10.68-11.1-3.31-1.06,1.41-11.78,20.83-13.89,26.17-1.29,3.27-5.79,16.3-6.52,18.34.13-1.06,2.27-14.2,2.66-15.78,2.6-10.5,10.72-23.69,11-24.57,2.13-7.7-6-9.69-9.28-4.14-.84,1.42-12.09,18.36-14.13,26.2-1.92,7.42-5.15,18.52-6,20.89.07-.81,2-10.19,2.1-12.87,0,0,3.14-14.11,3.33-14.9,1.6-6.56-4.77-8.34-7.46-3.35-.87,1.61-6.09,14.79-6.46,17.59-.53,4-2.33,16.3-3.17,19.17-.93,3.19-5.64,21.52-7.07,28.83-.93,4.75-1.35,15.34-2,30.1l-10.76,34c-1.56,4.81-1.2,17.73,3.62,19.29l3,1c2.07.67,16.63,3.89,16.63,3.89a9.16,9.16,0,0,0,11.37-6.22L272.21,698c10.7-4.9,22.45-15.88,25.49-21,6.29-10.53,13.81-22.71,13.81-22.71,3.15-12.61,8.76-17.54,6-20.36-7.8-7.9-23.3,24.4-24,25.52,3.06-27.56,5.46-30.65,15.17-45.62,6.74-10.41,9.49-16.63,10-21.13C319.67,583.91,312.9,585.38,307.34,593.37Z"/><path class="cls-11" d="M316.14,588.84c-3.52-2.46-7.59,3.76-7.79,5,0,0,1.27,4.43,6.91,3.36C315.26,597.24,318.9,590.77,316.14,588.84Z"/><path class="cls-11" d="M299.46,572.41c-3.61-2.33-7.5,5.12-7.65,6.41,0,0,1.43,4.38,7,3.11C298.84,581.93,302.29,574.24,299.46,572.41Z"/><path class="cls-11" d="M274.73,578.05s.92,4.21,6.24,3.57c0,0,3.95-6.83,1.49-8.8C279.32,570.31,275,576.87,274.73,578.05Z"/><path class="cls-11" d="M258.92,588.46c-3-1.56-5.49,4.54-5.52,5.55,0,0,1.43,3.32,5.71,1.92C259.11,595.93,261.25,589.68,258.92,588.46Z"/><path class="cls-12" d="M268.84,630.68c3.82-6.1,1.93-10.79,1.93-10.79C267,625.79,268.84,630.68,268.84,630.68Z"/><path class="cls-12" d="M281.84,636c4.35-5.72,2.79-11.16,2.79-11.16A13.61,13.61,0,0,0,281.84,636Z"/><path class="cls-12" d="M255.28,622.5c-2.78,6.42-.41,8.69-.41,8.69C257.66,624.56,255.28,622.5,255.28,622.5Z"/><path class="cls-11" d="M316.22,636.7c-1.68.64-4.28,2.55-4,8.27.11,2,2.06,1.18,2.06,1.18s1.49-3.72,3.62-7.87C318.1,637.9,317,636.41,316.22,636.7Z"/><rect class="cls-13" x="238.38" y="681.84" width="22.13" height="49.12" transform="matrix(0.31, -0.95, 0.95, 0.31, -499.49, 724.16)"/><polygon class="cls-14" points="219.73 696.97 166.4 850.45 231.97 850.45 278.98 716.4 219.73 696.97"/><polygon class="cls-32" points="266.18 712.73 278.98 716.4 231.97 850.45 216.44 850 266.18 712.73"/></g></g></g></svg>