<svg xmlns="http://www.w3.org/2000/svg" xmlns:xlink="http://www.w3.org/1999/xlink" viewBox="0 0 430 300"><defs><style>.cls-1,.cls-35,.cls-40{fill:none;}.cls-2{fill:#e8b770;}.cls-3{isolation:isolate;}.cls-4{fill:#f9e7d2;}.cls-5{fill:#fed385;}.cls-6{fill:#fff;}.cls-7{fill:#f0806d;}.cls-8{fill:#8bc53f;}.cls-9{fill:#9e9e9e;}.cls-10{fill:#b3603f;}.cls-11{fill:#cbcbcb;}.cls-12{fill:#e5e5e5;}.cls-13{fill:#d2d2d2;}.cls-14{fill:#353535;}.cls-15{fill:#7faa33;}.cls-16,.cls-17{fill:#6e9122;}.cls-17{fill-rule:evenodd;}.cls-18{fill:#b8a9ad;mix-blend-mode:multiply;}.cls-19{clip-path:url(#clip-path);}.cls-20{fill:#fc9f21;}.cls-21{fill:#fdf41c;}.cls-22{clip-path:url(#clip-path-2);}.cls-23{fill:#cc9752;}.cls-24{fill:#edae3c;}.cls-25{fill:#ebc61c;}.cls-26{fill:#e16f1b;}.cls-27{clip-path:url(#clip-path-3);}.cls-28{clip-path:url(#clip-path-4);}.cls-29{clip-path:url(#clip-path-5);}.cls-30{fill:#d65c02;}.cls-31{fill:#e6bf02;}.cls-32{clip-path:url(#clip-path-6);}.cls-33{clip-path:url(#clip-path-7);}.cls-34{clip-path:url(#clip-path-8);}.cls-35{stroke:#e47900;}.cls-35,.cls-40{stroke-miterlimit:10;}.cls-36{fill:#f4dc00;}.cls-37{fill:#e47900;}.cls-38{clip-path:url(#clip-path-9);}.cls-39{clip-path:url(#clip-path-10);}.cls-40{stroke:#d65c02;}.cls-41{clip-path:url(#clip-path-11);}.cls-42{clip-path:url(#clip-path-12);}.cls-43{fill:#f39e1b;}.cls-44{clip-path:url(#clip-path-13);}.cls-45{clip-path:url(#clip-path-14);}.cls-46{clip-path:url(#clip-path-15);}.cls-47{clip-path:url(#clip-path-16);}.cls-48{clip-path:url(#clip-path-17);}.cls-49{clip-path:url(#clip-path-18);}.cls-50{clip-path:url(#clip-path-19);}.cls-51{clip-path:url(#clip-path-20);}.cls-52{clip-path:url(#clip-path-21);}.cls-53{clip-path:url(#clip-path-22);}.cls-54{clip-path:url(#clip-path-23);}.cls-55{clip-path:url(#clip-path-24);}.cls-56{clip-path:url(#clip-path-25);}.cls-57{clip-path:url(#clip-path-26);}.cls-58{clip-path:url(#clip-path-27);}.cls-59{clip-path:url(#clip-path-28);}.cls-60{clip-path:url(#clip-path-29);}</style><clipPath id="clip-path"><path class="cls-1" d="M408,123.65l-.09,4.28c-.07,1.21,3.18,2.22,7.24,2.28s7.4-.87,7.46-2.07l.1-4.29Z"/></clipPath><clipPath id="clip-path-2"><path class="cls-1" d="M367.21,123.42l-.1,4.29c-.06,1.2,3.18,2.22,7.24,2.27s7.41-.87,7.47-2.07l.09-4.29Z"/></clipPath><clipPath id="clip-path-3"><path class="cls-1" d="M346.78,123.44l-.09,4.28c-.07,1.2,3.18,2.22,7.24,2.28s7.4-.87,7.46-2.08l.1-4.28Z"/></clipPath><clipPath id="clip-path-4"><path class="cls-1" d="M326.46,124.16l-.1,4.29c-.06,1.2,3.18,2.22,7.24,2.27s7.41-.87,7.47-2.07l.09-4.29Z"/></clipPath><clipPath id="clip-path-5"><path class="cls-1" d="M360.52,115.83v2.62c0,3.3,3.13,5.94,7,5.88s7-2.77,7-6.07v-2.63Z"/></clipPath><clipPath id="clip-path-6"><path class="cls-2" d="M381,105.75v2.63c0,3.3,3.12,5.93,7,5.88s7-2.78,7-6.08v-2.62Z"/></clipPath><clipPath id="clip-path-7"><path class="cls-1" d="M322.72,113.74v2.62c0,3.3,3.12,5.94,7,5.88s7-2.77,7-6.07v-2.63Z"/></clipPath><clipPath id="clip-path-8"><path class="cls-1" d="M370.66,116.51l0,3.35c0,2.18,3.35,3.89,7.41,3.82s7.33-1.9,7.3-4.08l-.05-3.36Z"/></clipPath><clipPath id="clip-path-9"><path class="cls-1" d="M340.72,116.79v2.62c0,3.3,3.13,5.93,7,5.88s7-2.77,7-6.07v-2.63Z"/></clipPath><clipPath id="clip-path-10"><path class="cls-1" d="M384.13,112l1.94-1.75c2.44-2.18,2.31-6.3-.28-9.2s-6.68-3.49-9.12-1.31l-1.93,1.75Z"/></clipPath><clipPath id="clip-path-11"><path class="cls-1" d="M364.54,114.05l1.1-2.38c1.39-3-.32-6.72-3.83-8.35s-7.49-.53-8.89,2.45l-1.09,2.38Z"/></clipPath><clipPath id="clip-path-12"><path class="cls-1" d="M380.76,115.42l2.1-1.54c2.64-1.92,2.92-6,.62-9.18-2.09-3.28-6.3-4.15-8.94-2.22L372.45,104Z"/></clipPath><clipPath id="clip-path-13"><path class="cls-1" d="M360.23,120.18l2.09-1.54c2.64-1.93,2.92-6,.63-9.19s-6.3-4.15-8.94-2.22l-2.1,1.54Z"/></clipPath><clipPath id="clip-path-14"><path class="cls-1" d="M391.81,122.53,393.9,121c2.64-1.93,2.92-6,.63-9.19s-6.3-4.15-8.94-2.22l-2.1,1.54Z"/></clipPath><clipPath id="clip-path-15"><path class="cls-1" d="M370.63,107.57l2.09-1.54c2.64-1.93,2.92-6,.63-9.19s-6.3-4.15-8.94-2.22l-2.1,1.54Z"/></clipPath><clipPath id="clip-path-16"><path class="cls-1" d="M410.87,128.84,413,127.3c2.64-1.92,2.92-6,.63-9.19s-6.3-4.14-8.94-2.22l-2.1,1.54Z"/></clipPath><clipPath id="clip-path-17"><path class="cls-1" d="M364.47,103.69l-1.76,1.92c-2.23,2.41-1.72,6.5,1.13,9.14s7,2.84,9.2.43l1.76-1.92Z"/></clipPath><clipPath id="clip-path-18"><path class="cls-1" d="M339.07,124.51l2.09-1.54c2.65-1.93,2.93-6,.63-9.19s-6.3-4.14-8.94-2.22l-2.09,1.54Z"/></clipPath><clipPath id="clip-path-19"><path class="cls-1" d="M347.05,104.68l1.26,3.1c.82,2,4.52,2.36,8.27.77s6.12-4.51,5.3-6.52l-1.26-3.11Z"/></clipPath><clipPath id="clip-path-20"><path class="cls-1" d="M390.83,123l.14,3.35c.09,2.18,3.45,3.8,7.5,3.61s7.28-2.11,7.19-4.29l-.14-3.35Z"/></clipPath><clipPath id="clip-path-21"><path class="cls-1" d="M392.23,110.58l-1.31,3.08c-.86,2,1.48,4.94,5.21,6.56s7.45,1.32,8.3-.68l1.32-3.07Z"/></clipPath><clipPath id="clip-path-22"><path class="cls-1" d="M307.55,124.1l-.1,4.28c-.06,1.21,3.18,2.22,7.24,2.28s7.41-.87,7.47-2.07l.09-4.29Z"/></clipPath><clipPath id="clip-path-23"><path class="cls-1" d="M316.11,125.61l1,3.19c.66,2.07,4.33,2.7,8.19,1.4s6.44-4,5.77-6.1l-1-3.19Z"/></clipPath><clipPath id="clip-path-24"><path class="cls-1" d="M380.66,123.14l0,3.35c0,2.18,3.35,3.89,7.41,3.82s7.33-1.9,7.3-4.08l-.05-3.36Z"/></clipPath><clipPath id="clip-path-25"><path class="cls-1" d="M385.58,121.43l-1.06,3.18c-.69,2.07-4.37,2.65-8.21,1.32s-6.39-4.1-5.7-6.17l1.06-3.18Z"/></clipPath><clipPath id="clip-path-26"><path class="cls-1" d="M352.74,123.34l.48,3.32c.31,2.16-2.7,4.38-6.72,5s-7.53-.7-7.84-2.86l-.48-3.32Z"/></clipPath><clipPath id="clip-path-27"><path class="cls-1" d="M357.54,121.93l-.48,3.32c-.31,2.15,2.7,4.37,6.72,4.95s7.53-.7,7.84-2.85l.48-3.32Z"/></clipPath><clipPath id="clip-path-28"><path class="cls-1" d="M346.53,116.08l2.1-1.54c2.64-1.93,2.92-6,.62-9.19s-6.29-4.15-8.94-2.22l-2.09,1.54Z"/></clipPath><clipPath id="clip-path-29"><path class="cls-1" d="M350.85,117.46l0,3.36c0,2.18,3.34,3.89,7.4,3.81s7.33-1.89,7.3-4.07l0-3.36Z"/></clipPath></defs><g class="cls-3"><g id="Layer_1" data-name="Layer 1"><path class="cls-4" d="M430,0V121.5A131.21,131.21,0,0,1,348.16,150,131.82,131.82,0,0,1,217.63,0Z"/><polygon class="cls-5" points="349.52 100.37 333.93 69.26 324.9 72.57 314.31 48.67 303.7 52.66 289.87 20 284.08 22.12 284.08 4.42 300.65 16.76 295.09 18.51 309 39.57 321.16 33.46 337.12 56.46 350.26 49.82 380.18 100.37 349.52 100.37"/><polygon class="cls-2" points="284.08 4.42 286.48 19.08 290.74 17.48 304.93 48.74 315.57 45.59 328.58 71.18 324.9 72.57 314.31 48.67 303.7 52.66 289.87 20 284.08 22.12 284.08 4.42"/><polygon class="cls-6" points="251.38 56.54 346.75 53.7 348.21 119.76 252.85 122.59 251.38 56.54"/><polygon class="cls-7" points="251.36 56.54 346.73 53.7 347.01 66.67 251.65 69.51 251.36 56.54"/><polygon class="cls-8" points="283.15 76.4 294.05 76.08 294.22 83.89 283.33 84.22 283.15 76.4"/><path class="cls-9" d="M293.89,84.24l-.18-8.52,11.59-.35.18,8.52Zm.51-7.82.15,7.1,10.2-.31-.16-7.1Z"/><path class="cls-9" d="M304.8,83.91l-.18-8.52,11.59-.34.18,8.52Zm.51-7.81.15,7.1,10.2-.31-.16-7.1Z"/><path class="cls-9" d="M315.71,83.59l-.18-8.52,11.59-.35.18,8.52Zm.51-7.81.15,7.09,10.2-.3-.16-7.1Z"/><path class="cls-9" d="M326.59,83.26l-.19-8.52,11.6-.35.18,8.52Zm.54-7.81.15,7.1,10.2-.3-.16-7.1Z"/><path class="cls-9" d="M261.36,93l-.18-8.52,11.59-.35.18,8.52Zm.55-7.84.16,7.1L272.26,92l-.15-7.1Z"/><path class="cls-9" d="M272.27,92.72l-.18-8.52,11.59-.35.18,8.52Zm.52-7.86.15,7.1,10.19-.3-.15-7.1Z"/><path class="cls-9" d="M283.18,92.39,283,83.88l11.59-.35.18,8.52Zm.52-7.85.15,7.1,10.19-.3-.15-7.1Z"/><path class="cls-9" d="M294.05,92.06l-.18-8.52,11.59-.34.19,8.52Zm.56-7.84.15,7.1L305,91l-.15-7.1Z"/><path class="cls-9" d="M305,91.74l-.18-8.52,11.59-.35.19,8.52Zm.52-7.85.16,7.1,10.19-.31-.15-7.1Z"/><path class="cls-9" d="M315.87,91.42l-.18-8.52,11.59-.35.19,8.52Zm.52-7.85.16,7.1,10.19-.31-.15-7.1Z"/><path class="cls-9" d="M326.78,91.1l-.18-8.52,11.59-.35.19,8.52Zm.52-7.86.16,7.1,10.19-.3-.15-7.1Z"/><path class="cls-9" d="M261.52,100.87l-.18-8.52L272.93,92l.19,8.52Zm.56-7.85.15,7.1,10.19-.3-.15-7.1Z"/><path class="cls-9" d="M272.43,100.55,272.25,92l11.59-.35.19,8.52Zm.52-7.86.15,7.1,10.2-.3-.16-7.1Z"/><path class="cls-9" d="M283.34,100.22l-.18-8.52,11.59-.34.19,8.52Zm.52-7.85.15,7.1,10.2-.31-.16-7.1Z"/><path class="cls-9" d="M294.25,99.9l-.18-8.52L305.66,91l.19,8.52Zm.52-7.85.15,7.1,10.2-.31-.16-7.1Z"/><path class="cls-9" d="M305.13,99.57l-.19-8.52,11.6-.35.18,8.52Zm.55-7.84.15,7.1,10.2-.31-.16-7.1Z"/><path class="cls-9" d="M316,99.25l-.19-8.52,11.6-.35.18,8.52Zm.52-7.86.15,7.1,10.19-.3-.15-7.1Z"/><path class="cls-9" d="M327,98.92l-.19-8.52,11.6-.34.18,8.52Zm.52-7.85.15,7.1,10.19-.3-.15-7.1Z"/><path class="cls-9" d="M261.73,108.67l-.18-8.52,11.59-.35.18,8.52Zm.51-7.82.15,7.1,10.2-.31-.16-7.09Z"/><path class="cls-9" d="M272.6,108.34l-.18-8.52L284,99.47l.19,8.52Zm.55-7.81.15,7.1,10.2-.31-.16-7.1Z"/><path class="cls-9" d="M283.51,108l-.18-8.52,11.59-.34.19,8.52Zm.52-7.81.15,7.1,10.19-.31-.15-7.1Z"/><path class="cls-9" d="M294.42,107.69l-.18-8.52,11.59-.34.19,8.52Zm.52-7.81.15,7.1,10.19-.31-.15-7.1Z"/><path class="cls-9" d="M305.3,107.36l-.18-8.52,11.59-.35.18,8.52Zm.55-7.81.15,7.1,10.19-.3-.15-7.1Z"/><path class="cls-9" d="M316.21,107,316,98.52l11.59-.35.18,8.52Zm.55-7.81.15,7.1L327.1,106l-.15-7.1Z"/><path class="cls-9" d="M327.12,106.72l-.18-8.52,11.59-.35.18,8.52Zm.51-7.82.15,7.1,10.19-.31-.15-7.1Z"/><path class="cls-9" d="M261.89,116.5l-.18-8.52,11.59-.35.19,8.52Zm.52-7.86.16,7.1,10.19-.3-.16-7.1Z"/><path class="cls-9" d="M272.8,116.17l-.18-8.52,11.59-.34.19,8.52Zm.52-7.85.16,7.1,10.19-.31-.16-7.1Z"/><path class="cls-9" d="M283.68,115.84l-.18-8.52,11.59-.34.18,8.52Zm.55-7.84.16,7.1,10.19-.31-.16-7.1Z"/><ellipse class="cls-10" cx="259.31" cy="60.51" rx="1.71" ry="1.68" transform="translate(139.19 298.16) rotate(-76.32)"/><ellipse class="cls-10" cx="269.27" cy="60.22" rx="1.71" ry="1.68" transform="translate(147.08 307.62) rotate(-76.32)"/><ellipse class="cls-10" cx="279.23" cy="59.94" rx="1.71" ry="1.68" transform="translate(154.96 317.08) rotate(-76.32)"/><ellipse class="cls-10" cx="289.19" cy="59.65" rx="1.71" ry="1.68" transform="translate(162.84 326.54) rotate(-76.32)"/><ellipse class="cls-10" cx="299.16" cy="59.33" rx="1.71" ry="1.68" transform="translate(170.77 335.98) rotate(-76.32)"/><ellipse class="cls-10" cx="309.09" cy="59.04" rx="1.71" ry="1.68" transform="translate(178.63 345.39) rotate(-76.32)"/><ellipse class="cls-10" cx="319.05" cy="58.75" rx="1.71" ry="1.68" transform="matrix(0.24, -0.97, 0.97, 0.24, 186.51, 354.85)"/><ellipse class="cls-10" cx="329.01" cy="58.46" rx="1.71" ry="1.68" transform="translate(194.4 364.31) rotate(-76.32)"/><ellipse class="cls-10" cx="338.97" cy="58.18" rx="1.71" ry="1.68" transform="translate(202.28 373.77) rotate(-76.32)"/><path class="cls-11" d="M260,54.76l.11,5a.81.81,0,0,1-.76.81.8.8,0,0,1-.8-.77l-.11-5a.82.82,0,0,1,.76-.81.61.61,0,0,1,.55.22A1.16,1.16,0,0,1,260,54.76Z"/><path class="cls-12" d="M260,54.76l.07,4-1.55,0-.08-4a.82.82,0,0,1,.76-.81.61.61,0,0,1,.55.22A1.16,1.16,0,0,1,260,54.76Z"/><path class="cls-11" d="M269.92,54.47l.11,5a.79.79,0,0,1-.76.8.78.78,0,0,1-.79-.76l-.11-5a.8.8,0,0,1,.76-.81.65.65,0,0,1,.55.21A.92.92,0,0,1,269.92,54.47Z"/><path class="cls-12" d="M269.92,54.47l.07,4-1.55,0-.07-4a.8.8,0,0,1,.76-.81.65.65,0,0,1,.55.21A.92.92,0,0,1,269.92,54.47Z"/><path class="cls-11" d="M279.88,54.18l.11,5a.8.8,0,0,1-.76.81.79.79,0,0,1-.79-.77l-.11-5a.81.81,0,0,1,.76-.81.65.65,0,0,1,.55.21A.8.8,0,0,1,279.88,54.18Z"/><path class="cls-12" d="M279.88,54.18l.07,4-1.55,0-.07-4a.81.81,0,0,1,.76-.81.65.65,0,0,1,.55.21A.8.8,0,0,1,279.88,54.18Z"/><path class="cls-11" d="M289.84,53.89l.11,5a.8.8,0,0,1-.76.81.79.79,0,0,1-.79-.76l-.11-5a.8.8,0,0,1,.76-.81.63.63,0,0,1,.55.21A1,1,0,0,1,289.84,53.89Z"/><path class="cls-12" d="M289.84,53.89l.08,4-1.56,0-.07-4a.8.8,0,0,1,.76-.81.63.63,0,0,1,.55.21A1,1,0,0,1,289.84,53.89Z"/><path class="cls-11" d="M299.81,53.57l.11,5a.78.78,0,1,1-1.55,0l-.11-5a.79.79,0,0,1,.76-.8.61.61,0,0,1,.55.21A1.06,1.06,0,0,1,299.81,53.57Z"/><path class="cls-12" d="M299.81,53.57l.08,4-1.56,0-.07-4a.79.79,0,0,1,.76-.8.61.61,0,0,1,.55.21A1.06,1.06,0,0,1,299.81,53.57Z"/><path class="cls-11" d="M309.77,53.28l.11,5a.79.79,0,0,1-.76.8.79.79,0,0,1-.79-.76l-.11-5a.8.8,0,0,1,.76-.81.63.63,0,0,1,.55.21A1.1,1.1,0,0,1,309.77,53.28Z"/><path class="cls-12" d="M309.77,53.28l.08,4-1.56,0-.07-4a.8.8,0,0,1,.76-.81.63.63,0,0,1,.55.21A1.1,1.1,0,0,1,309.77,53.28Z"/><path class="cls-11" d="M319.7,53l.11,4.95a.8.8,0,0,1-.76.81.79.79,0,0,1-.79-.77L318.15,53a.81.81,0,0,1,.76-.81.62.62,0,0,1,.55.22A.69.69,0,0,1,319.7,53Z"/><path class="cls-12" d="M319.7,53l.07,4-1.55,0-.07-4a.81.81,0,0,1,.76-.81.62.62,0,0,1,.55.22A.69.69,0,0,1,319.7,53Z"/><path class="cls-11" d="M329.66,52.7l.11,5a.79.79,0,0,1-.76.8.78.78,0,0,1-.79-.76l-.11-5a.8.8,0,0,1,.76-.81.65.65,0,0,1,.55.21A.82.82,0,0,1,329.66,52.7Z"/><path class="cls-12" d="M329.66,52.7l.07,4-1.55,0-.07-4a.8.8,0,0,1,.76-.81.65.65,0,0,1,.55.21A.82.82,0,0,1,329.66,52.7Z"/><path class="cls-11" d="M339.63,52.38l.11,4.95a.8.8,0,0,1-.76.81.79.79,0,0,1-.79-.76l-.11-5a.79.79,0,0,1,.76-.8.62.62,0,0,1,.55.21A1,1,0,0,1,339.63,52.38Z"/><path class="cls-12" d="M339.63,52.38l.07,4-1.55,0-.07-4a.79.79,0,0,1,.76-.8.62.62,0,0,1,.55.21A1,1,0,0,1,339.63,52.38Z"/><path class="cls-13" d="M412,141l0,.5h1.76a.29.29,0,0,0,.32-.3h0a.32.32,0,0,0-.29-.35l-1.74-.36Z"/><path class="cls-14" d="M372.22,133.23c-.21,2.73-.33,3.9-.33,3.9s-.12,1.17-.33,3.9c-10.75-1-20.15-2.41-26.57-3.45-.7-.1-1.39-.23-2-.33-2.11-.35-3.76-.67-4.93-.87a2.14,2.14,0,0,1-1.73-2.29l.08-.86a2.06,2.06,0,0,1,2.08-1.9c1.18,0,2.89,0,5,.1.62,0,1.32,0,2,0C352,131.71,361.47,132.2,372.22,133.23Z"/><path class="cls-14" d="M408.62,138.77c2.41.7,3.85,1.48,3.78,2.31s-1.63,1.29-4.11,1.52c-10.34,1-36.68-2.25-36.68-2.25l.53-6.45S398.59,135.8,408.62,138.77Z"/><path class="cls-5" d="M344.79,129.53,369.55,132a2.39,2.39,0,0,1-1.7.55,3,3,0,0,1-1.52-.52l-20.77-1.35-.56,6.91c-.7-.1-1.39-.23-2-.33l.54-6.63A1.17,1.17,0,0,1,344.79,129.53Z"/><polygon class="cls-5" points="369.53 140.83 370.17 133.02 372.23 133.22 371.58 141.03 369.53 140.83"/><path class="cls-5" d="M408.62,138.77c2.41.7,3.85,1.48,3.78,2.31s-1.63,1.29-4.11,1.52Z"/><path class="cls-8" d="M410.41,108.71c-1.23,17-4.73,21.74-34.42,22.52-17.41.46-37.06-2-43.15-13.87-2.57-5-4.51-16.31-3.08-24.81a32.89,32.89,0,0,1,1-4.3c2.2-7.35,7.12-15.06,16.38-22,10.37-7.71,13.36-9.69,16.25-12.47,1.31-1.26,2.6-2.69,4.56-4.9l3.82.41,8,.85,3.74.39a9.47,9.47,0,0,0,.64,1.33c1.88,3.28,6.09,7.19,10.47,12.31a73.29,73.29,0,0,1,5.12,6.64C404.84,78.35,411.34,95.91,410.41,108.71Z"/><path class="cls-15" d="M410.41,108.71c-1.23,17-4.73,21.74-34.42,22.52-17.41.46-37.06-2-43.15-13.87-2.57-5-4.51-16.31-3.08-24.81.09,10.38,3.08,21.22,15.51,27.32,12.19,6,33.54,1.86,43.29-8.19s14.66-20.05,10.06-31.91c-5.54-14.3-9.77-18.37-14.44-27.87,1.88,3.28,6.09,7.19,10.47,12.31a73.29,73.29,0,0,1,5.12,6.64C404.84,78.35,411.34,95.91,410.41,108.71Z"/><path class="cls-15" d="M383.94,71.76a2.72,2.72,0,0,0-3.35-2c-3,.47-3.88-1.54-3.88-1.54s2.8-3.21.29-7.94a14.9,14.9,0,0,1-2.07-6.57,22.38,22.38,0,0,1,.19-3.8c.06-.59.15-1.21.24-1.88l.06-.42h.13l3.81,0s0,1.25.06,3.27v1.68a6.33,6.33,0,0,0,1,3.18c1.08,1.91,2.83,3.95,4.13,6.61C386.56,66.45,383.94,71.76,383.94,71.76Z"/><path class="cls-16" d="M375.12,49.9c.41.59,1.78-.93,1.87,1.89.1,3.35.67,4.36,2,6.9a18.22,18.22,0,0,1,1.46,7.44,17.13,17.13,0,0,0-.13-7c-.92-3.17-1.94-4.19-1.77-6.29a3.25,3.25,0,0,1,.89-2c0-2-.06-3.27-.06-3.27l-3.81,0c-.07.14-.13.28-.19.42Z"/><path class="cls-15" d="M401.5,57.11a4,4,0,0,0-3.26,2.32A3.34,3.34,0,0,1,394,61a5.4,5.4,0,0,0-.67-1.68c-1.2-2-3.87-4-8.44-3.55-2.25.23-3.44-.25-4.23-1.06-1.27-1.29-1.49-3.42-3.48-4.69l4.18-1.42a4.44,4.44,0,0,0,1.07,1.79,2.58,2.58,0,0,0,1.28.7,34.79,34.79,0,0,0,4.55.29,47.11,47.11,0,0,1,5.24.37C400.67,52.86,401.5,57.11,401.5,57.11Z"/><path class="cls-16" d="M393.36,59.32c-1.2-2-3.87-4-8.44-3.55-2.25.23-3.44-.25-4.23-1.06-1.27-1.29-1.49-3.42-3.48-4.69l4.18-1.42a4.44,4.44,0,0,0,1.07,1.79c.1,1.49.21,2.39,2.73,2.49a23.43,23.43,0,0,1,6.28,1.17s-3.36,0-5.76.08-5.6-3.15-5.16-2,.61,3.11,3.6,2.81C386.68,54.73,393.12,54.9,393.36,59.32Z"/><path class="cls-17" d="M395.06,37.68s2.95-2.69-2.46-5-7.81-4.53-13.43-5.31-6-1.17-9.4.15c-8,3.12-8,.25-11.48,2.61-2.11,1.44-3.13,2.91-1,4.51s16.15,5.5,21.92,4.67S395.06,37.68,395.06,37.68Z"/><path class="cls-8" d="M395.06,37.68a13.22,13.22,0,0,0-1.9,1.29c-.29.22-.61.48-1,.77-.62.53-1.33,1.19-2.09,2-4.1,4.21-5.76,5.6-10.7,7.4-1.2.44-4.09.39-6.67.22s-4.8-.42-4.8-.42c-.44-.21-.12-4-5.08-5.7-3.93-1.35-6.8-6.28-6.6-9.71,0-.1,0-.21,0-.31a4.92,4.92,0,0,0,5.19-1.27l0-.05A19,19,0,0,1,367,27.6a15.34,15.34,0,0,1,6.61-1.81,16.83,16.83,0,0,1,4.66.51,12,12,0,0,1,7.67,5.29c.11.21.22.42.32.64,1.85,4.15,4.1,4.83,5.76,4.41A3.52,3.52,0,0,1,395.06,37.68Z"/><path class="cls-16" d="M393.16,39c-.29.22-.61.48-1,.77-.62.53-1.33,1.19-2.09,2-4.1,4.21-5.76,5.6-10.7,7.4-1.2.44-4.09.39-6.67.22s-4.8-.42-4.8-.42c-.44-.21-.12-4-5.08-5.7-3.93-1.35-6.8-6.28-6.6-9.71a12,12,0,0,0,.73,1.2,15.81,15.81,0,0,0,9.3,6.47c1.36.32,2.76.44,4.11.8,1.55.42,3,1.17,4.59,1.45,3.67.64,7.24-1.27,10.66-2.78A15.26,15.26,0,0,1,393.16,39Z"/><path class="cls-15" d="M361.48,31.93a8.13,8.13,0,0,0,3.27,6.72c4.11,2.87,6.94,6.83,7.84,9.36a4.07,4.07,0,0,1,.16,1.33c2.58.17,5.47.22,6.67-.22,4.94-1.8,6.6-3.19,10.7-7.4.76-.79,1.47-1.45,2.09-2a12,12,0,0,0-5.73,2.5c-3,2.42-2.48,3.71-5.83,4.92s2.92-5,4.18-7.16a10,10,0,0,0,1.11-8.41,12,12,0,0,0-7.67-5.29c.4,1.57,2.9,2.11,3.57,3.79,1.82,4.59,2,6.45,1,9.78s-6.18,5.94-7.78,8.31-3.35-6.26-6.76-9.29-2-6-1.53-9.21A14.66,14.66,0,0,0,367,27.6Z"/><path class="cls-18" d="M373.11,80.09c0,.08.11.07.17.09l6,2.1.19.06c0,.07-.05.09-.09.11L376.19,85a.26.26,0,0,1-.29,0l-3.79-1.33c-.11,0-.17,0-.24.08a9.79,9.79,0,0,1-4.74,4.51A12.92,12.92,0,0,1,361,89.36a16.44,16.44,0,0,1-3.48-.58l-.12,0q3.7,11,7.4,21.93c-.07,0-.12,0-.17,0l-5.42-1.89a.32.32,0,0,1-.21-.21l-7-20.85a.66.66,0,0,1,0-.48c.33-.95.66-1.9,1-2.85.06-.17.12-.18.26-.13,1.32.46,2.61,1,3.95,1.35a10.46,10.46,0,0,0,5.18.35,6.32,6.32,0,0,0,4.31-3,6.41,6.41,0,0,0,.45-.91c0-.09,0-.14-.08-.16l-.12,0-12.65-4.42-.21-.07c0-.08.09-.11.14-.15l3.12-2.46a.31.31,0,0,1,.33-.06l10.07,3.52.21.08a3.86,3.86,0,0,0-.09-.77,5.71,5.71,0,0,0-2.2-3.44,13,13,0,0,0-3.22-1.77c-1.87-.76-3.8-1.38-5.7-2.06l-.2-.06a.27.27,0,0,1,.14-.14l3.12-2.46c.05,0,.12-.06.14-.14L382,75.17a.4.4,0,0,1-.17.23l-3.08,2.42a.45.45,0,0,1-.47.06L373,76a.7.7,0,0,0-.19-.06c0,.06,0,.1,0,.15a8.43,8.43,0,0,1,.36,3.7C373.17,79.92,373.18,80,373.11,80.09Z"/><path class="cls-6" d="M373.46,79.06c0,.08.11.07.17.09l6,2.1.19.07c0,.07-.06.08-.09.11L376.54,84a.26.26,0,0,1-.28,0l-3.8-1.33c-.11,0-.17,0-.23.08a9.77,9.77,0,0,1-4.75,4.51,12.86,12.86,0,0,1-6.11,1.08,16.33,16.33,0,0,1-3.48-.58l-.12,0,7.39,21.93c-.07,0-.11,0-.16,0l-5.43-1.89a.3.3,0,0,1-.2-.21q-3.51-10.42-7-20.85a.72.72,0,0,1,0-.48c.33-.95.66-1.9,1-2.85.05-.17.11-.18.26-.13,1.31.46,2.61,1,3.94,1.36a10.46,10.46,0,0,0,5.18.34,6.2,6.2,0,0,0,4.76-3.88c0-.09,0-.14-.07-.16l-.12,0-12.66-4.42-.21-.07a.31.31,0,0,1,.15-.15l3.12-2.46a.29.29,0,0,1,.33,0l10.06,3.51.21.08a3.25,3.25,0,0,0-.09-.77A5.67,5.67,0,0,0,366,73.08a13,13,0,0,0-3.22-1.78c-1.88-.76-3.8-1.37-5.71-2l-.19-.07c0-.08.09-.11.13-.14l3.12-2.46c.05,0,.13-.06.15-.14l22.05,7.7a.36.36,0,0,1-.17.23l-3.08,2.42a.43.43,0,0,1-.46.06L373.34,75a1.06,1.06,0,0,0-.19-.06c0,.06,0,.1,0,.15a8.46,8.46,0,0,1,.36,3.71A.33.33,0,0,1,373.46,79.06Z"/><path class="cls-15" d="M383.65,49l-.11,1.55c-.71-.25-4,0-6.87.58a26.9,26.9,0,0,1-7.77.64c-.74-.08-2.92-.66-2.92-.66a.77.77,0,0,1-.15-.67,2.59,2.59,0,0,1,.56-1.09,3.59,3.59,0,0,0,.41-.66,3.64,3.64,0,0,0,.3-1.06,3.75,3.75,0,0,0,0-1A16.33,16.33,0,0,0,373.26,48C377,48.11,383.65,49,383.65,49Z"/><path class="cls-16" d="M381.58,49.83a46.86,46.86,0,0,0-8.09.72,23.33,23.33,0,0,1-7.65-.19,2.37,2.37,0,0,1,.56-1.09,3.12,3.12,0,0,0,.4-.67,10.68,10.68,0,0,1-.27-1.31c.19.08.38.16.57.26a10.81,10.81,0,0,0,3.66,1.31c2.26.27,7.57.12,8.67.16A4.41,4.41,0,0,1,381.58,49.83Z"/><path class="cls-8" d="M385,46.84a2.87,2.87,0,0,0-.1,1.22,2.19,2.19,0,0,1-.34,1.43,3.76,3.76,0,0,1-1,1.08,19.81,19.81,0,0,0-2-.63,14.37,14.37,0,0,0-6.81-.45,15,15,0,0,1-4.91.3l-.42,0-.37,0c-1.27-.15-2.24-.35-2.67-.34s-.32-.32,0-.73c.46-.66.26-.76.17-1.25,0-.13,0-.26-.07-.39a6.69,6.69,0,0,0-.63-2.08s7.36,1.48,10.19,1.16c9.69-1.08,9.63-.17,9.63-.17A2,2,0,0,0,385,46.84Z"/><path class="cls-16" d="M380.87,48a80.92,80.92,0,0,0-8.28.06c2-.55,4.63-.54,8.06-.85,2.14-.19,3.29-.17,4.38-.32a2.87,2.87,0,0,0-.1,1.22C385,48.61,383.42,48.08,380.87,48Z"/><path class="cls-16" d="M377.31,48.37c-.22.08-4.48,1.6-7.46,1.42l-.42,0-.37,0c-1.27-.15-2.24-.35-2.67-.34s-.32-.32,0-.73c.46-.66.26-.76.17-1.25,0-.13,0-.26-.07-.39a9.19,9.19,0,0,0,3.6.22,8.55,8.55,0,0,1-1.68.82c-1.57.67.92,1,3.5.91S377.14,48.4,377.31,48.37Z"/><path class="cls-15" d="M358.46,34.94c-3-.85,2,5.25,3.68,6.17s4.39,2.14,4.39,2.14-4.39-2.14-5.48-4.85a10.35,10.35,0,0,1-.83-3.54S359.79,35.31,358.46,34.94Z"/><g class="cls-19"><path class="cls-2" d="M408,123.65l-.09,4.28c-.07,1.21,3.18,2.22,7.24,2.28s7.4-.87,7.46-2.07l.1-4.29Z"/></g><path class="cls-5" d="M422.75,123.85c-.07,1.2-3.41,2.13-7.47,2.07s-7.3-1.07-7.24-2.27,3.4-2.13,7.46-2.07S422.81,122.65,422.75,123.85Z"/><path class="cls-20" d="M415.61,126h-.31c-3,0-5.56-.65-6.36-1.51a1.07,1.07,0,0,1-.31-.77c.07-1.43,3.51-2.12,6.86-2.08h0c3,0,5.55.65,6.35,1.52a1,1,0,0,1,.31.77C422.09,125.25,418.86,126,415.61,126Zm-.45-3.58c-3.68,0-5.73.86-5.75,1.33a.39.39,0,0,0,.1.19c.55.59,2.72,1.22,5.8,1.26,3.9.07,6-.84,6.07-1.32a.32.32,0,0,0-.1-.19c-.56-.6-2.73-1.23-5.8-1.27Z"/><path class="cls-21" d="M417.26,124.05v0c0,.14,0,.28,0,.43h0l-.63-.17s0,0,0,0,0-.19,0-.28h0a3.47,3.47,0,0,1-1.08-.23,1.25,1.25,0,0,1-.54-.38.55.55,0,0,1-.09-.23h0l-3.46.88h0l0-.39s0,0,0,0l3.3-.85h.08l.56,0s0,0,0,0a2.62,2.62,0,0,0,0,.28.44.44,0,0,0,.23.35,1.81,1.81,0,0,0,.78.23h.18s0,0,0,0h0l.06-.91h0l.62.16,0,0c0,.24,0,.48-.05.73h0l.13,0a.86.86,0,0,0,.48-.21.39.39,0,0,0,.13-.24,2.85,2.85,0,0,0,0-.41h0l.61.16h0c0,.53-.07,1.05-.1,1.58h-.05l-.61-.15s0,0,0,0,0-.25,0-.38h0a3.09,3.09,0,0,1-.64.09S417.28,124.06,417.26,124.05Z"/><path class="cls-20" d="M417.25,124.15s0,0,0,0l0,.43v0h0l-.63-.16s0,0,0,0,0-.18,0-.27,0,0,0,0a3.4,3.4,0,0,1-1.07-.23,1.19,1.19,0,0,1-.54-.38.5.5,0,0,1-.1-.24h0l-3.47.89a0,0,0,0,1,0,0l0-.39,0,0,3.3-.84h.65s0,0,0,0a2.62,2.62,0,0,0,0,.28.45.45,0,0,0,.24.35,1.68,1.68,0,0,0,.77.22h.21l.06-.91h0l.61.16s0,0,0,0c0,.24,0,.48-.05.72v0l.13,0a1,1,0,0,0,.49-.21.48.48,0,0,0,.13-.24c0-.14,0-.28,0-.41v0h0l.61.16h0c0,.52-.07,1-.11,1.58h-.05l-.6-.16s0,0,0,0l0-.38v0h0a3,3,0,0,1-.64.09Z"/><g class="cls-22"><path class="cls-23" d="M367.21,123.42l-.1,4.29c-.06,1.2,3.18,2.22,7.24,2.27s7.41-.87,7.47-2.07l.09-4.29Z"/></g><path class="cls-24" d="M381.91,123.62c-.06,1.21-3.4,2.13-7.46,2.08s-7.3-1.08-7.24-2.28,3.4-2.13,7.46-2.07S382,122.42,381.91,123.62Z"/><path class="cls-20" d="M374.77,125.72h-.3c-3,0-5.56-.65-6.36-1.52a1.06,1.06,0,0,1-.31-.77c.07-1.42,3.5-2.12,6.85-2.08h0c3,0,5.56.65,6.36,1.52a1.06,1.06,0,0,1,.31.77C381.25,125,378,125.72,374.77,125.72Zm-.45-3.58c-3.68,0-5.72.86-5.74,1.33,0,.07.06.15.1.19.55.6,2.72,1.23,5.8,1.27,3.9,0,6-.85,6.07-1.33a.33.33,0,0,0-.11-.19c-.55-.6-2.72-1.23-5.8-1.27Z"/><path class="cls-25" d="M376.43,123.83s0,0,0,0l0,.43h0l-.63-.16s0,0,0,0a2.45,2.45,0,0,0,0-.27s0,0,0,0a3.8,3.8,0,0,1-1.07-.22,1.27,1.27,0,0,1-.54-.38.5.5,0,0,1-.1-.24h0l-3.47.89s0,0,0,0,0-.26,0-.39,0,0,0,0l3.3-.84h.68a2.83,2.83,0,0,0,0,.29.44.44,0,0,0,.24.34,1.8,1.8,0,0,0,.77.23h.19s0,0,0,0h0l.06-.9v0h0l.62.16s0,0,0,0c0,.24,0,.48-.05.72h0l.13,0a.86.86,0,0,0,.48-.2.41.41,0,0,0,.13-.25,2.71,2.71,0,0,0,0-.41h0l.62.15h0c0,.53-.07,1.06-.1,1.58h-.05l-.61-.16s0,0,0,0l0-.38h0a3.78,3.78,0,0,1-.63.1Z"/><path class="cls-26" d="M376.42,123.92s0,0,0,0l0,.43h0l-.63-.17h0a2.64,2.64,0,0,1,0-.28h0a3.34,3.34,0,0,1-1.07-.23,1.23,1.23,0,0,1-.55-.38.5.5,0,0,1-.09-.23h0l-3.47.88h0l0-.39s0,0,0,0l3.3-.85a.21.21,0,0,1,.08,0h.56s0,0,0,0a2.72,2.72,0,0,0,0,.28.46.46,0,0,0,.23.35,1.9,1.9,0,0,0,.78.23h.21l.06-.91h0l.62.15s0,0,0,0c0,.24,0,.49-.05.73h0l.13,0a.86.86,0,0,0,.48-.21.4.4,0,0,0,.14-.24c0-.13,0-.27,0-.41h0l.61.16h0c0,.53-.06,1-.1,1.58h-.05l-.6-.15s0,0,0,0,0-.25,0-.38,0,0,0,0h0a3.09,3.09,0,0,1-.64.09S376.44,123.93,376.42,123.92Z"/><g class="cls-27"><path class="cls-23" d="M346.78,123.44l-.09,4.28c-.07,1.2,3.18,2.22,7.24,2.28s7.4-.87,7.46-2.08l.1-4.28Z"/></g><path class="cls-5" d="M361.49,123.64c-.06,1.2-3.41,2.13-7.47,2.07s-7.3-1.07-7.24-2.27,3.4-2.13,7.46-2.08S361.55,122.44,361.49,123.64Z"/><path class="cls-20" d="M354.34,125.73H354c-3,0-5.55-.65-6.36-1.51a1.08,1.08,0,0,1-.31-.78c.07-1.42,3.5-2.11,6.86-2.07,3,0,5.55.65,6.35,1.51a1,1,0,0,1,.32.77C360.83,125,357.6,125.73,354.34,125.73Zm-.44-3.58c-3.68,0-5.73.87-5.75,1.33a.32.32,0,0,0,.1.19c.55.6,2.72,1.23,5.8,1.27,3.88,0,6-.85,6.07-1.33a.39.39,0,0,0-.1-.19c-.56-.59-2.73-1.22-5.8-1.26Z"/><path class="cls-25" d="M356,123.84h0c0,.15,0,.29,0,.43v0h0l-.63-.16s0,0,0,0a2.45,2.45,0,0,1,0-.27s0,0,0,0a3.34,3.34,0,0,1-1.07-.23,1.23,1.23,0,0,1-.55-.38.59.59,0,0,1-.09-.24h0l-3.46.88a0,0,0,0,1,0,0l0-.39,0,0,3.3-.84h.64s0,0,0,0a2.62,2.62,0,0,0,0,.28.46.46,0,0,0,.23.35,1.73,1.73,0,0,0,.78.22l.18,0h0l.06-.91h0l.62.16s0,0,0,0c0,.24,0,.48-.05.72v0l.13,0a.94.94,0,0,0,.48-.21.5.5,0,0,0,.14-.24c0-.14,0-.27,0-.41v0h0l.61.16h0c0,.52-.07,1-.1,1.58h-.05l-.61-.15s0,0,0,0,0-.26,0-.38v0h0a3.09,3.09,0,0,1-.64.09Z"/><path class="cls-26" d="M356,123.94s0,0,0,0l0,.43v0h0l-.63-.16s0,0,0,0,0-.18,0-.27h0a3.7,3.7,0,0,1-1.07-.23,1.19,1.19,0,0,1-.54-.38.5.5,0,0,1-.1-.24h0l-3.47.89h0l0-.39s0,0,0,0l3.3-.84h.65s0,0,0,0a1.27,1.27,0,0,0,0,.28.43.43,0,0,0,.24.34,1.56,1.56,0,0,0,.77.23h.21l.06-.91v0h0l.61.16s0,0,0,0c0,.24,0,.48-.05.72v0l.13,0a.94.94,0,0,0,.49-.21.48.48,0,0,0,.13-.24c0-.14,0-.28,0-.41v0h0l.61.16h0c0,.53-.07,1.06-.11,1.59h-.05l-.6-.16s0,0,0,0l0-.37v0h0a3.79,3.79,0,0,1-.64.09Z"/><g class="cls-28"><path class="cls-23" d="M326.46,124.16l-.1,4.29c-.06,1.2,3.18,2.22,7.24,2.27s7.41-.87,7.47-2.07l.09-4.29Z"/></g><path class="cls-5" d="M341.16,124.36c-.06,1.2-3.4,2.13-7.46,2.08s-7.3-1.08-7.24-2.28,3.4-2.13,7.46-2.07S341.22,123.16,341.16,124.36Z"/><path class="cls-20" d="M334,126.46h-.3c-3,0-5.56-.65-6.36-1.52a1.06,1.06,0,0,1-.31-.77c.07-1.43,3.49-2.13,6.86-2.08,3,0,5.55.65,6.35,1.52a1,1,0,0,1,.31.77C340.5,125.76,337.27,126.46,334,126.46Zm-.44-3.58c-3.68,0-5.73.86-5.75,1.33,0,.06.06.15.1.19.55.6,2.72,1.23,5.8,1.27,3.87,0,6-.85,6.07-1.33a.33.33,0,0,0-.11-.19c-.55-.6-2.72-1.23-5.8-1.27Z"/><path class="cls-25" d="M335.68,124.56s0,0,0,0l0,.43h0l-.63-.16,0,0a2.45,2.45,0,0,0,0-.27s0,0,0,0a3.47,3.47,0,0,1-1.07-.23,1.26,1.26,0,0,1-.54-.37.5.5,0,0,1-.1-.24h0l-3.47.89s0,0,0,0,0-.25,0-.38,0,0,0,0l3.3-.84h.64s0,0,0,0a2.83,2.83,0,0,0,0,.29.46.46,0,0,0,.24.34,1.8,1.8,0,0,0,.77.23H335l.06-.91h0l.62.15s0,0,0,0c0,.24,0,.48-.05.72h0l.13,0a.94.94,0,0,0,.48-.2.41.41,0,0,0,.13-.25,2.71,2.71,0,0,0,0-.41h0l.62.16h0c0,.53-.07,1-.1,1.58H337l-.61-.16s0,0,0,0l0-.38h0a3,3,0,0,1-.63.09Z"/><path class="cls-26" d="M335.67,124.66s0,0,0,0l0,.44h0L335,125s0,0,0,0a2.46,2.46,0,0,1,0-.28h0a3.34,3.34,0,0,1-1.07-.23,1.29,1.29,0,0,1-.55-.38.59.59,0,0,1-.09-.24h0l-3.47.88s0,0,0,0l0-.39s0,0,0,0l3.3-.85h.08l.56,0h0a2.62,2.62,0,0,0,0,.28.46.46,0,0,0,.23.35,1.77,1.77,0,0,0,.78.22l.18,0s0,0,0,0h0l.06-.91h0l.61.16,0,0c0,.24,0,.48-.05.72v0l.13,0a1,1,0,0,0,.49-.21.44.44,0,0,0,.13-.24c0-.14,0-.27,0-.41h0l.61.16h0c0,.52-.06,1.05-.1,1.58H337l-.6-.15s0,0,0,0,0-.25,0-.38,0,0,0,0h0a3.09,3.09,0,0,1-.64.09S335.69,124.67,335.67,124.66Z"/><g class="cls-29"><path class="cls-30" d="M360.52,115.83v2.62c0,3.3,3.13,5.94,7,5.88s7-2.77,7-6.07v-2.63Z"/></g><ellipse class="cls-5" cx="367.51" cy="115.73" rx="6.99" ry="5.97" transform="translate(-5.65 19.76) rotate(-3.06)"/><path class="cls-20" d="M367.41,120.19a6.29,6.29,0,0,1-4.44-1.72,4.32,4.32,0,0,1-1.31-3c0-2.66,2.62-4.86,5.85-4.91h.11a6.26,6.26,0,0,1,4.44,1.72,4.3,4.3,0,0,1,1.31,3c0,2.66-2.63,4.86-5.85,4.91h-.11Zm.21-8.87h-.1c-2.8,0-5.08,1.89-5.08,4.12a3.45,3.45,0,0,0,1.08,2.47,5.56,5.56,0,0,0,4,1.49h0c2.8-.05,5.08-1.89,5.08-4.12a3.45,3.45,0,0,0-1.08-2.47A5.48,5.48,0,0,0,367.62,111.32Z"/><path class="cls-31" d="M369.3,116.46s0,0,0,0c0,.39,0,.79,0,1.18v0s0,0,0,0l-.61-.41s0,0,0,0v-.75s0,0,0,0a1.68,1.68,0,0,1-1-.56,2.56,2.56,0,0,1-.53-1,2.84,2.84,0,0,1-.1-.65v0l-3.26,2.61s0,0,0,0v-1.07s0,0,0,0l3.09-2.48a.11.11,0,0,1,.08,0,4.69,4.69,0,0,0,.53,0s0,0,0,0c0,.26,0,.52,0,.78a1.87,1.87,0,0,0,.24.93,1.15,1.15,0,0,0,.74.59l.18,0s0,0,0,0v0c0-.84,0-1.67,0-2.5v0s0,0,0,0l.6.4s0,0,0,0c0,.67,0,1.33,0,2v0a.34.34,0,0,0,.12-.06,1.08,1.08,0,0,0,.46-.59,2.61,2.61,0,0,0,.11-.68c0-.37,0-.75,0-1.13v0h0c.19.14.39.27.59.4l0,0,0,4.35a0,0,0,0,1-.05,0l-.59-.4a.11.11,0,0,1,0-.08v-1s0,0,0,0,0,0,0,0a1.5,1.5,0,0,1-.6.28S369.32,116.47,369.3,116.46Z"/><path class="cls-20" d="M369.3,116.73s0,0,0,0c0,.39,0,.79,0,1.18v0h0l-.6-.41s0,0,0,0c0-.25,0-.5,0-.75,0,0,0,0,0,0a1.73,1.73,0,0,1-1-.56,2.5,2.5,0,0,1-.53-1,2.84,2.84,0,0,1-.1-.65v0l-3.25,2.61s0,0,0,0V116s0,0,0,0c1-.82,2.07-1.65,3.1-2.48a.11.11,0,0,1,.08,0h.53s0,0,0,0c0,.26,0,.52,0,.78a1.9,1.9,0,0,0,.24.93,1.15,1.15,0,0,0,.74.59l.18,0s0,0,0,0v0l0-2.49v0h0l.59.41s0,0,0,.05c0,.66,0,1.33,0,2v0l.12-.06a1,1,0,0,0,.45-.59,2.62,2.62,0,0,0,.12-.68c0-.37,0-.75,0-1.13v0s0,0,0,0l.6.4s0,0,0,0l0,4.35,0,0-.59-.39a.08.08,0,0,1,0-.08v-1.08h0a1.4,1.4,0,0,1-.6.29Z"/><path class="cls-2" d="M381,105.75v2.63c0,3.3,3.12,5.93,7,5.88s7-2.78,7-6.08v-2.62Z"/><g class="cls-32"><path class="cls-2" d="M381,105.75v2.63c0,3.3,3.12,5.93,7,5.88s7-2.78,7-6.08v-2.62Z"/></g><ellipse class="cls-5" cx="388.03" cy="105.65" rx="6.99" ry="5.97" transform="translate(-5.08 20.83) rotate(-3.06)"/><path class="cls-20" d="M387.92,110.11a6.26,6.26,0,0,1-4.44-1.72,4.3,4.3,0,0,1-1.31-3c0-2.65,2.63-4.86,5.85-4.9a6.36,6.36,0,0,1,4.55,1.71,4.32,4.32,0,0,1,1.31,3c0,2.66-2.62,4.86-5.85,4.91h-.11Zm.21-8.87H388c-2.8,0-5.08,1.88-5.08,4.11a3.43,3.43,0,0,0,1.08,2.47,5.49,5.49,0,0,0,4,1.49h0c2.8,0,5.08-1.89,5.08-4.12a3.41,3.41,0,0,0-1.08-2.46A5.45,5.45,0,0,0,388.13,101.24Z"/><path class="cls-31" d="M389.81,106.39s0,0,0,0c0,.4,0,.79,0,1.19v0a0,0,0,0,1,0,0l-.61-.42s0,0,0,0v-.74s0,0,0,0a1.74,1.74,0,0,1-1-.57,2.48,2.48,0,0,1-.54-1,3.65,3.65,0,0,1-.1-.65v0l-3.25,2.61a0,0,0,0,1,0,0c0-.36,0-.72,0-1.07,0,0,0,0,0-.05l3.09-2.48a.13.13,0,0,1,.08,0h.53s0,0,0,0c0,.26,0,.52,0,.77a2.18,2.18,0,0,0,.24.94,1.13,1.13,0,0,0,.75.58l.17,0a0,0,0,0,0,0,0v0c0-.83,0-1.66,0-2.5v0a.05.05,0,0,1,0,0l.59.4a.07.07,0,0,1,0,.06c0,.66,0,1.32,0,2v0a.31.31,0,0,0,.13-.06,1.07,1.07,0,0,0,.45-.59,2.54,2.54,0,0,0,.11-.67c0-.38,0-.76,0-1.13v0l0,0,.59.4,0,0,0,4.35,0,0-.58-.4a.08.08,0,0,1,0-.08c0-.34,0-.69,0-1v0s0,0,0,0a1.5,1.5,0,0,1-.6.28Z"/><path class="cls-20" d="M389.81,106.66s0,0,0,0c0,.4,0,.79,0,1.19v0s0,0,0,0c-.21-.13-.41-.27-.61-.41,0,0,0,0,0,0v-.75s0,0,0,0a1.72,1.72,0,0,1-1-.57,2.45,2.45,0,0,1-.54-1,2.76,2.76,0,0,1-.1-.64v0L384.2,107s0,0,0,0v-1.07a0,0,0,0,1,0,0l3.09-2.49.08,0h.53s0,0,0,0c0,.26,0,.51,0,.77a2.05,2.05,0,0,0,.24.94,1.13,1.13,0,0,0,.75.58.86.86,0,0,0,.17,0,0,0,0,0,0,0,0v-2.56s0,0,0,0l.6.4s0,0,0,.06c0,.66,0,1.32,0,2v0a.31.31,0,0,0,.13-.06,1.07,1.07,0,0,0,.45-.59,2.61,2.61,0,0,0,.11-.67c0-.38,0-.76,0-1.13v0h0l.59.41s0,0,0,0l0,4.35a0,0,0,0,1,0,0l-.58-.4a.09.09,0,0,1,0-.08v-1s0,0,0,0,0,0,0,0a1.5,1.5,0,0,1-.6.28Z"/><g class="cls-33"><path class="cls-23" d="M322.72,113.74v2.62c0,3.3,3.12,5.94,7,5.88s7-2.77,7-6.07v-2.63Z"/></g><ellipse class="cls-5" cx="329.71" cy="113.64" rx="6.99" ry="5.97" transform="matrix(1, -0.05, 0.05, 1, -5.59, 17.73)"/><path class="cls-20" d="M329.61,118.1a6.31,6.31,0,0,1-4.45-1.72,4.32,4.32,0,0,1-1.31-3c0-2.66,2.63-4.86,5.85-4.91a6.22,6.22,0,0,1,4.55,1.72,4.3,4.3,0,0,1,1.31,3c0,2.66-2.62,4.86-5.85,4.91h-.1Zm.2-8.87h-.1c-2.8,0-5.08,1.89-5.08,4.12a3.45,3.45,0,0,0,1.08,2.47,5.37,5.37,0,0,0,4,1.49c2.8,0,5.08-1.89,5.08-4.12a3.45,3.45,0,0,0-1.08-2.47A5.48,5.48,0,0,0,329.81,109.23Z"/><path class="cls-31" d="M331.49,114.37s0,0,0,0c0,.39,0,.79,0,1.18v0s0,0,0,0l-.61-.41s0,0,0,0v-.75s0,0,0,0a1.68,1.68,0,0,1-1-.56,2.45,2.45,0,0,1-.54-1,3.52,3.52,0,0,1-.1-.65v0l-3.25,2.61a0,0,0,0,1,0,0c0-.35,0-.71,0-1.07,0,0,0,0,0,0L329,111.1a.13.13,0,0,1,.08,0h.53s0,0,0,0c0,.26,0,.52,0,.78a2.18,2.18,0,0,0,.24.94,1.16,1.16,0,0,0,.75.58l.18,0s0,0,0,0v0c0-.84,0-1.67,0-2.5v0a.05.05,0,0,1,0,0l.59.4a.05.05,0,0,1,0,0c0,.67,0,1.33,0,2v0a.52.52,0,0,0,.13-.06,1.11,1.11,0,0,0,.45-.59,2.61,2.61,0,0,0,.11-.68c0-.37,0-.75,0-1.13v0h0l.59.4,0,0,0,4.35a0,0,0,0,1-.05,0l-.58-.4a.09.09,0,0,1,0-.08c0-.35,0-.69,0-1v0s0,0,0,0a1.5,1.5,0,0,1-.6.28Z"/><path class="cls-20" d="M331.49,114.64s0,0,0,0c0,.39,0,.79,0,1.18v0h0l-.61-.41a.06.06,0,0,1,0,0v-.75s0,0,0,0a1.7,1.7,0,0,1-1-.56,2.52,2.52,0,0,1-.54-1,3.52,3.52,0,0,1-.1-.65v0L325.88,115s0,0,0,0V113.9s0,0,0-.05l3.09-2.48a.11.11,0,0,1,.08,0h.53s0,0,0,0c0,.26,0,.52,0,.78a2,2,0,0,0,.24.93,1.14,1.14,0,0,0,.75.59l.17,0s0,0,0,0v-2.56h0l.6.41a0,0,0,0,1,0,0c0,.66,0,1.33,0,2v0l.13-.06a1.11,1.11,0,0,0,.45-.59,2.61,2.61,0,0,0,.11-.68c0-.37,0-.75,0-1.13v0l0,0,.59.4,0,0,0,4.35-.05,0-.58-.39a.09.09,0,0,1,0-.08c0-.35,0-.7,0-1a.06.06,0,0,0,0,0h0a1.4,1.4,0,0,1-.6.29S331.51,114.65,331.49,114.64Z"/><g class="cls-34"><path class="cls-23" d="M370.66,116.51l0,3.35c0,2.18,3.35,3.89,7.41,3.82s7.33-1.9,7.3-4.08l-.05-3.36Z"/></g><path class="cls-5" d="M385.36,116.24c0,2.18-3.23,4-7.3,4.08s-7.37-1.63-7.4-3.81,3.24-4,7.3-4.08S385.33,114.06,385.36,116.24Z"/><path class="cls-35" d="M378,113.15c-3.52.06-6.36,1.57-6.33,3.36s2.9,3.19,6.42,3.13,6.35-1.57,6.32-3.37S381.49,113.08,378,113.15Z"/><path class="cls-36" d="M379.9,116.84a0,0,0,0,0,0,0c0,.26,0,.53,0,.79v0h0l-.64-.26s0,0,0,0c0-.17,0-.33,0-.5,0,0,0,0,0,0a2.24,2.24,0,0,1-1.09-.37,1.54,1.54,0,0,1-.57-.66,1.32,1.32,0,0,1-.12-.43h0l-3.4,1.75s0,0,0,0c0-.23,0-.47,0-.7a.05.05,0,0,1,0,0l3.24-1.67.08,0h.56s0,0,0,0a4.34,4.34,0,0,0,0,.51,1,1,0,0,0,.26.61,1.23,1.23,0,0,0,.79.38l.19,0a0,0,0,0,0,0,0h0v-1.68h0l.62.26s0,0,0,0c0,.43,0,.87,0,1.31v0l.13,0a.85.85,0,0,0,.47-.39,1.24,1.24,0,0,0,.11-.45c0-.25,0-.5,0-.74v0h0l.62.26h0c0,1,0,1.92,0,2.88h-.05l-.61-.26s0,0,0-.05c0-.23,0-.46,0-.69v0a0,0,0,0,0,0,0,2.11,2.11,0,0,1-.63.2Z"/><path class="cls-37" d="M379.9,117s0,0,0,0c0,.26,0,.52,0,.78v0h0l-.64-.26s0,0,0,0v-.49s0,0,0,0a2.24,2.24,0,0,1-1.09-.37,1.6,1.6,0,0,1-.57-.66,1.73,1.73,0,0,1-.12-.43v0l-3.4,1.76s0,0,0,0c0-.24,0-.47,0-.71t0,0l3.23-1.67.08,0h.56s0,0,0,0a4.51,4.51,0,0,0,0,.52,1,1,0,0,0,.26.61,1.23,1.23,0,0,0,.79.38h.19s0,0,0,0V114.7h0l.62.26s0,0,0,0c0,.44,0,.88,0,1.32v0l.13,0a.85.85,0,0,0,.47-.39,1.24,1.24,0,0,0,.11-.45c0-.25,0-.5,0-.75v0h0l.63.26h0c0,1,0,1.92,0,2.87h0l-.62-.26s0,0,0,0c0-.23,0-.45,0-.68,0,0,0,0,0,0h0a2.11,2.11,0,0,1-.63.2Z"/><g class="cls-38"><path class="cls-30" d="M340.72,116.79v2.62c0,3.3,3.13,5.93,7,5.88s7-2.77,7-6.07v-2.63Z"/></g><ellipse class="cls-5" cx="347.71" cy="116.69" rx="6.99" ry="5.97" transform="translate(-5.73 18.7) rotate(-3.06)"/><path class="cls-20" d="M347.61,121.15a6.27,6.27,0,0,1-4.44-1.72,4.28,4.28,0,0,1-1.31-3c0-2.66,2.62-4.86,5.84-4.91a6.34,6.34,0,0,1,4.55,1.72,4.26,4.26,0,0,1,1.31,3c0,2.65-2.62,4.86-5.84,4.9h-.11Zm.2-8.87h-.09c-2.81,0-5.08,1.89-5.08,4.12a3.48,3.48,0,0,0,1.07,2.47,5.49,5.49,0,0,0,4,1.48h0c2.81,0,5.09-1.88,5.09-4.11a3.47,3.47,0,0,0-1.08-2.47A5.51,5.51,0,0,0,347.81,112.28Z"/><path class="cls-31" d="M349.5,117.42s0,0,0,0v1.22h0l-.6-.41s0,0,0-.05c0-.25,0-.5,0-.75,0,0,0,0,0,0a1.73,1.73,0,0,1-1-.56,2.5,2.5,0,0,1-.53-1,3.53,3.53,0,0,1-.11-.65v0l-3.25,2.61a0,0,0,0,1,0,0c0-.35,0-.71,0-1.07,0,0,0,0,0-.05l3.09-2.48a.13.13,0,0,1,.08,0h.54s0,0,0,0c0,.26,0,.52,0,.78a2.14,2.14,0,0,0,.24.93,1.14,1.14,0,0,0,.75.59l.18,0s0,0,0,0v0l0-2.49v0h0l.59.41a.05.05,0,0,1,0,.05c0,.66,0,1.33,0,2v0l.12-.06a1,1,0,0,0,.45-.59,2.61,2.61,0,0,0,.11-.68c0-.37,0-.75,0-1.13v0s0,0,0,0l.59.4a.05.05,0,0,0,0,0l0,4.35-.05,0-.58-.39a.09.09,0,0,1,0-.08c0-.35,0-.7,0-1v0h0a1.43,1.43,0,0,1-.61.29S349.51,117.43,349.5,117.42Z"/><path class="cls-20" d="M349.5,117.69s0,0,0,0c0,.4,0,.79,0,1.19v0h0l-.61-.42a.05.05,0,0,1,0,0c0-.25,0-.5,0-.75,0,0,0,0,0,0a1.69,1.69,0,0,1-1-.57,2.4,2.4,0,0,1-.53-1,3.53,3.53,0,0,1-.11-.65v0l-3.25,2.61a0,0,0,0,1,0,0c0-.36,0-.71,0-1.07a.06.06,0,0,1,0,0l3.09-2.48a.13.13,0,0,1,.08,0h.54s0,0,0,0c0,.26,0,.52,0,.78a2.14,2.14,0,0,0,.24.93,1.14,1.14,0,0,0,.75.59l.18,0s0,0,0,0v0c0-.83,0-1.66,0-2.49v0s0,0,0,0l.59.41a0,0,0,0,1,0,0c0,.66,0,1.32,0,2v0l.12-.06a1,1,0,0,0,.45-.6,2.47,2.47,0,0,0,.11-.67c0-.38,0-.75,0-1.13v0l0,0,.59.4,0,0,0,4.35-.05,0-.58-.4a.08.08,0,0,1,0-.08c0-.34,0-.69,0-1v0h0a1.35,1.35,0,0,1-.6.29S349.51,117.7,349.5,117.69Z"/><g class="cls-39"><path class="cls-23" d="M384.13,112l1.94-1.75c2.44-2.18,2.31-6.3-.28-9.2s-6.68-3.49-9.12-1.31l-1.93,1.75Z"/></g><ellipse class="cls-5" cx="379.44" cy="106.72" rx="5.93" ry="7.05" transform="translate(25.15 279.47) rotate(-41.7)"/><path class="cls-40" d="M382.44,104c2,2.27,2.21,5.42.4,7s-4.92,1.1-6.95-1.17-2.21-5.42-.4-7S380.41,101.77,382.44,104Z"/><path class="cls-31" d="M378.8,104.88l0,0,.88-.78,0,0a0,0,0,0,1,0,0c0,.24.07.49.1.73a.08.08,0,0,1,0,0l-.56.49s0,0,0,.05a1.69,1.69,0,0,1,.26,1.16,2.39,2.39,0,0,1-.39,1.07,3,3,0,0,1-.41.51l0,0,4.08.75s0,0,0,0l-.79.7a.06.06,0,0,1,0,0l-3.88-.71-.08,0c-.11-.14-.23-.28-.35-.41s0,0,0-.06c.19-.17.39-.33.57-.51a2,2,0,0,0,.53-.8,1.16,1.16,0,0,0-.06-1,.86.86,0,0,0-.1-.16,0,0,0,0,0,0,0l0,0-1.85,1.64,0,0a.08.08,0,0,1,0,0c0-.24-.06-.48-.1-.72a.09.09,0,0,1,0-.06l1.47-1.3,0,0-.13,0a1,1,0,0,0-.73,0,2.39,2.39,0,0,0-.57.36c-.3.23-.57.49-.85.73l0,0a.06.06,0,0,1,0,0l-.09-.71s0,0,0,0l3.23-2.86s0,0,0,0l.09.71s0,0,0,.08l-.77.68,0,0h0a1.48,1.48,0,0,1,.6.27A.08.08,0,0,1,378.8,104.88Z"/><path class="cls-30" d="M379,104.7l0,0,.87-.78,0,0s0,0,0,0c0,.25.06.49.1.74,0,0,0,0,0,0l-.56.49s0,0,0,0a1.76,1.76,0,0,1,.26,1.16,2.47,2.47,0,0,1-.39,1.08,3.35,3.35,0,0,1-.42.51h0l4.08.75,0,0-.79.71s0,0-.05,0l-3.88-.71a.12.12,0,0,1-.08,0c-.11-.14-.23-.27-.35-.41s0,0,0,0c.19-.17.39-.34.57-.52a1.91,1.91,0,0,0,.53-.8,1.17,1.17,0,0,0-.06-1,1.3,1.3,0,0,0-.1-.15s0,0,0,0h0l-1.85,1.64,0,0a.06.06,0,0,1,0,0c0-.24-.06-.48-.1-.71a.06.06,0,0,1,0-.06l1.47-1.31,0,0a.52.52,0,0,0-.13-.06,1,1,0,0,0-.73.05,2.39,2.39,0,0,0-.57.36c-.3.23-.57.49-.85.74l0,0a0,0,0,0,1,0,0l-.09-.72a.06.06,0,0,0,0,0l3.23-2.86a.06.06,0,0,1,0,0l.09.71a.08.08,0,0,1,0,.08l-.77.68,0,0h0a1.35,1.35,0,0,1,.61.27S379,104.68,379,104.7Z"/><g class="cls-41"><path class="cls-23" d="M364.54,114.05l1.1-2.38c1.39-3-.32-6.72-3.83-8.35s-7.49-.53-8.89,2.45l-1.09,2.38Z"/></g><ellipse class="cls-5" cx="358.18" cy="111.1" rx="5.96" ry="7.01" transform="translate(108.74 391.13) rotate(-65.54)"/><path class="cls-35" d="M359.9,107.43c2.74,1.27,4.13,4.09,3.1,6.31s-4.1,3-6.84,1.7-4.14-4.09-3.11-6.31S357.15,106.16,359.9,107.43Z"/><path class="cls-36" d="M356.88,109.66s0,0,0,0l.5-1.07,0,0,0,0c.12.21.24.42.37.63a.06.06,0,0,1,0,.06c-.11.22-.21.45-.32.67,0,0,0,0,0,0a1.73,1.73,0,0,1,.69,1,2.48,2.48,0,0,1,.05,1.15,3,3,0,0,1-.18.63v0l4-1s0,0,0,0l-.46,1s0,0,0,0l-3.84.9a.11.11,0,0,1-.08,0l-.49-.23s0,0,0,0c.11-.24.23-.47.33-.71a2,2,0,0,0,.17-.94,1.17,1.17,0,0,0-.42-.86l-.16-.1h0a0,0,0,0,1,0,0L356,113.09l0,0s0,0,0,0l-.37-.62a.06.06,0,0,1,0-.06c.28-.6.57-1.19.85-1.79l0,0h-.14a1,1,0,0,0-.66.33,2.31,2.31,0,0,0-.38.56c-.18.34-.33.68-.5,1v0a0,0,0,0,1,0,0l-.37-.63,0,0,1.86-3.92s0,0,0,0l.36.61a.07.07,0,0,1,0,.09l-.44.93,0,0s0,0,0,0a1.47,1.47,0,0,1,.66,0Z"/><path class="cls-37" d="M357,109.42s0,0,0,0l.51-1.07v0s0,0,0,0c.13.21.25.42.37.63,0,0,0,0,0,.06l-.33.67s0,0,0,0a1.74,1.74,0,0,1,.69,1,2.44,2.44,0,0,1,.06,1.14,3.58,3.58,0,0,1-.18.64v0l4-1s0,0,0,0l-.45,1a.08.08,0,0,1,0,0l-3.85.9h-.08l-.48-.24s0,0,0,0c.11-.23.23-.46.33-.7a2.18,2.18,0,0,0,.18-.95,1.18,1.18,0,0,0-.43-.85l-.15-.1s0,0,0,0a0,0,0,0,1,0,0l-1.07,2.25,0,0s0,0,0,0l-.36-.62a0,0,0,0,1,0-.06c.29-.6.57-1.2.85-1.79l0,0a.66.66,0,0,0-.14,0,1,1,0,0,0-.65.34,2.68,2.68,0,0,0-.39.56c-.18.33-.33.68-.49,1l0,0,0,0-.36-.62,0,0c.61-1.31,1.23-2.61,1.85-3.92a.08.08,0,0,1,0,0l.36.61a.14.14,0,0,1,0,.09l-.45.93s0,0,0,0h0a1.38,1.38,0,0,1,.67,0A0,0,0,0,1,357,109.42Z"/><g class="cls-42"><path class="cls-2" d="M380.76,115.42l2.1-1.54c2.64-1.92,2.92-6,.62-9.18s-6.3-4.15-8.94-2.22L372.45,104Z"/></g><path class="cls-5" d="M372.45,104c2.64-1.93,6.64-.94,8.94,2.22s2,7.26-.63,9.18-6.64.94-8.94-2.22S369.81,105.94,372.45,104Z"/><path class="cls-20" d="M377.35,115.48a6.27,6.27,0,0,1-4.9-2.72,6.51,6.51,0,0,1-1.28-4.75,4.26,4.26,0,0,1,1.66-2.85c2.12-1.55,5.42-.67,7.34,2h0a6.53,6.53,0,0,1,1.28,4.75,4.25,4.25,0,0,1-1.66,2.84A4.11,4.11,0,0,1,377.35,115.48Zm-2.08-10.3a3.35,3.35,0,0,0-2,.62,3.42,3.42,0,0,0-1.34,2.33,5.73,5.73,0,0,0,1.13,4.16c1.67,2.28,4.48,3.08,6.26,1.78a3.41,3.41,0,0,0,1.35-2.32,5.71,5.71,0,0,0-1.14-4.16A5.48,5.48,0,0,0,375.27,105.18Z"/><path class="cls-21" d="M376.15,107.82l0,0,.95-.68,0,0s0,0,0,0c0,.25,0,.49,0,.74a.08.08,0,0,1,0,0l-.61.43s0,0,0,0a1.79,1.79,0,0,1,.15,1.18,2.52,2.52,0,0,1-.5,1,4,4,0,0,1-.46.46h0l4,1.16s0,0,0,0l-.86.62s0,0-.05,0l-3.79-1.1s-.06,0-.07,0-.21-.29-.31-.44,0,0,0-.05c.2-.15.42-.29.62-.45a2.13,2.13,0,0,0,.61-.75,1.17,1.17,0,0,0,0-1l-.09-.16s0,0,0,0h0l-2,1.45,0,0s0,0,0,0l0-.73a.05.05,0,0,1,0,0l1.6-1.15,0,0-.12-.06a1,1,0,0,0-.74,0,2.81,2.81,0,0,0-.6.3c-.32.21-.61.43-.92.65l0,0v0c0-.24,0-.49,0-.73a0,0,0,0,0,0,0l3.5-2.52a.07.07,0,0,1,0,0c0,.23,0,.47,0,.71a.08.08,0,0,1,0,.08l-.83.6,0,0s0,0,0,0a1.59,1.59,0,0,1,.58.33Z"/><path class="cls-43" d="M376.36,107.66a0,0,0,0,0,0,0l1-.69,0,0a0,0,0,0,1,0,0l0,.75s0,0,0,0l-.6.44s0,0,0,0a1.78,1.78,0,0,1,.14,1.18,2.48,2.48,0,0,1-.5,1,2.86,2.86,0,0,1-.46.46v0l4,1.16s0,0,0,0l-.86.62H379l-3.79-1.1a.18.18,0,0,1-.07,0c-.1-.15-.2-.3-.31-.44s0,0,0-.06c.21-.15.42-.29.62-.45a2,2,0,0,0,.61-.74,1.18,1.18,0,0,0-.05-1.12s0,0,0,0,0,0,0,0l-2,1.44,0,0a.06.06,0,0,1,0,0c0-.24,0-.48,0-.72a.07.07,0,0,1,0-.06l1.59-1.15,0,0-.13-.07a1,1,0,0,0-.73,0,2.31,2.31,0,0,0-.61.3c-.31.2-.61.43-.91.64l0,0a.08.08,0,0,1,0,0c0-.24,0-.48,0-.72,0,0,0,0,0,0l3.49-2.52s0,0,0,.05c0,.24,0,.48,0,.72,0,0,0,0-.05.07l-.83.6,0,0s0,0,0,0a1.38,1.38,0,0,1,.57.33S376.36,107.65,376.36,107.66Z"/><g class="cls-44"><path class="cls-2" d="M360.23,120.18l2.09-1.54c2.64-1.93,2.92-6,.63-9.19s-6.3-4.15-8.94-2.22l-2.1,1.54Z"/></g><path class="cls-5" d="M351.91,108.77c2.64-1.93,6.65-.93,8.94,2.22s2,7.26-.62,9.19-6.65.93-8.94-2.22S349.27,110.69,351.91,108.77Z"/><path class="cls-20" d="M356.82,120.23a6.28,6.28,0,0,1-4.91-2.72,6.55,6.55,0,0,1-1.28-4.75,4.3,4.3,0,0,1,1.66-2.85c2.13-1.55,5.42-.67,7.34,2a6.51,6.51,0,0,1,1.28,4.75,4.26,4.26,0,0,1-1.66,2.85A4.05,4.05,0,0,1,356.82,120.23Zm-2.08-10.3a3.33,3.33,0,0,0-2,.62,3.43,3.43,0,0,0-1.35,2.33,5.72,5.72,0,0,0,1.14,4.16c1.67,2.28,4.47,3.09,6.26,1.79a3.42,3.42,0,0,0,1.34-2.33,5.72,5.72,0,0,0-1.13-4.16h0A5.54,5.54,0,0,0,354.74,109.93Z"/><path class="cls-21" d="M355.61,112.57h0l1-.69,0,0s0,0,0,0l0,.74a0,0,0,0,1,0,0l-.6.43s0,0,0,0a1.78,1.78,0,0,1,.14,1.18,2.54,2.54,0,0,1-.5,1,3.33,3.33,0,0,1-.46.46v0l4,1.15s0,0,0,0l-.86.62h-.05l-3.79-1.1a.18.18,0,0,1-.07-.05c-.1-.15-.2-.3-.31-.44s0,0,0-.06c.21-.15.42-.29.62-.45a2,2,0,0,0,.61-.74,1.19,1.19,0,0,0,0-1,.8.8,0,0,0-.08-.16s0,0,0,0l0,0-2,1.44,0,0a.08.08,0,0,1,0,0c0-.24,0-.48,0-.72a.07.07,0,0,1,0-.06l1.59-1.15,0,0a.35.35,0,0,0-.12-.07,1,1,0,0,0-.73,0,2,2,0,0,0-.61.3c-.31.2-.61.43-.91.64l0,0a0,0,0,0,1,0,0c0-.24,0-.48,0-.72,0,0,0,0,0,0l3.49-2.52a.09.09,0,0,1,0,0l0,.71a.09.09,0,0,1-.05.08l-.83.6,0,0,0,0a1.44,1.44,0,0,1,.58.32S355.61,112.55,355.61,112.57Z"/><path class="cls-20" d="M355.83,112.42l0,0,.95-.69,0,0a0,0,0,0,1,0,0c0,.24,0,.49,0,.74,0,0,0,0,0,.05l-.61.43s0,0,0,0a1.79,1.79,0,0,1,.15,1.18,2.42,2.42,0,0,1-.5,1,3.41,3.41,0,0,1-.46.47h0l4,1.16a0,0,0,0,1,0,0l-.86.62s0,0-.05,0l-3.79-1.1s-.06,0-.07,0l-.31-.44s0,0,0,0c.2-.15.42-.3.62-.46a2.09,2.09,0,0,0,.61-.74,1.17,1.17,0,0,0,0-1l-.09-.17h-.05l-2,1.45,0,0s0,0,0,0l0-.72a0,0,0,0,1,0,0L355,113l0,0a.67.67,0,0,0-.12-.06,1,1,0,0,0-.74,0,2.81,2.81,0,0,0-.6.3c-.31.2-.61.43-.91.65l0,0v0c0-.24,0-.48,0-.72a.08.08,0,0,0,0,0l3.5-2.51a.06.06,0,0,1,0,0c0,.24,0,.48,0,.72a.07.07,0,0,1,0,.07c-.28.2-.56.4-.83.61l0,0h0a1.46,1.46,0,0,1,.58.33S355.83,112.4,355.83,112.42Z"/><g class="cls-45"><path class="cls-23" d="M391.81,122.53,393.9,121c2.64-1.93,2.92-6,.63-9.19s-6.3-4.15-8.94-2.22l-2.1,1.54Z"/></g><ellipse class="cls-5" cx="387.65" cy="116.82" rx="5.92" ry="7.06" transform="translate(5.57 250.74) rotate(-36.09)"/><path class="cls-20" d="M388.4,122.58a6.28,6.28,0,0,1-4.91-2.72,6.55,6.55,0,0,1-1.28-4.75,4.34,4.34,0,0,1,1.66-2.85c2.13-1.55,5.42-.67,7.34,2a6.44,6.44,0,0,1,1.28,4.75,4.26,4.26,0,0,1-1.66,2.85A4.12,4.12,0,0,1,388.4,122.58Zm-2.08-10.3a3.33,3.33,0,0,0-2,.62,3.47,3.47,0,0,0-1.35,2.33,5.74,5.74,0,0,0,1.14,4.16c1.67,2.28,4.48,3.08,6.26,1.78a3.4,3.4,0,0,0,1.34-2.32,5.7,5.7,0,0,0-1.13-4.16A5.5,5.5,0,0,0,386.32,112.28Z"/><path class="cls-36" d="M387.19,114.92l0,0,.95-.68,0,0s0,0,0,0l0,.74a.05.05,0,0,1,0,.05l-.6.43s0,0,0,0a1.75,1.75,0,0,1,.14,1.17,2.52,2.52,0,0,1-.5,1,2.86,2.86,0,0,1-.46.46h0l4,1.16s0,0,0,0l-.86.62s0,0-.05,0l-3.79-1.1a.12.12,0,0,1-.07,0l-.31-.44s0,0,0,0c.21-.15.42-.29.62-.45a1.93,1.93,0,0,0,.61-.75,1.17,1.17,0,0,0,0-1,.8.8,0,0,0-.08-.16s0,0,0,0,0,0,0,0l-2,1.44,0,0a0,0,0,0,1,0,0c0-.24,0-.49,0-.73a.05.05,0,0,1,0,0l1.59-1.15,0,0-.12-.07a1.05,1.05,0,0,0-.74,0,2.66,2.66,0,0,0-.61.3c-.31.21-.61.43-.91.65l0,0a0,0,0,0,1,0,0c0-.24,0-.48,0-.73,0,0,0,0,0,0l3.49-2.52a.08.08,0,0,1,0,0c0,.24,0,.47,0,.71a.1.1,0,0,1,0,.08l-.84.6,0,0h0a1.55,1.55,0,0,1,.57.33S387.19,114.9,387.19,114.92Z"/><path class="cls-20" d="M387.41,114.76s0,0,0,0l.95-.69,0,0a0,0,0,0,1,0,0c0,.24,0,.49,0,.74,0,0,0,0,0,0l-.6.44s0,0,0,0a1.79,1.79,0,0,1,.15,1.18,2.48,2.48,0,0,1-.5,1,2.86,2.86,0,0,1-.46.46l0,0,4,1.16,0,0-.86.62h0l-3.79-1.1a.12.12,0,0,1-.07,0l-.31-.44s0,0,0-.06c.2-.15.42-.29.62-.45a2.09,2.09,0,0,0,.61-.74,1.19,1.19,0,0,0,0-1,.65.65,0,0,0-.09-.16s0,0,0,0h0l-2,1.44,0,0s0,0,0,0c0-.24,0-.48,0-.72,0,0,0,0,0-.06l1.6-1.15,0,0-.12-.07a1,1,0,0,0-.74,0,2.81,2.81,0,0,0-.6.3c-.31.2-.61.43-.91.64l0,0a.08.08,0,0,1,0,0c0-.24,0-.48,0-.72a.06.06,0,0,0,0,0l3.5-2.52a.09.09,0,0,1,0,0c0,.24,0,.48,0,.72a.08.08,0,0,1,0,.07l-.83.6,0,0s0,0,0,0a1.35,1.35,0,0,1,.58.33S387.41,114.75,387.41,114.76Z"/><g class="cls-46"><path class="cls-23" d="M370.63,107.57l2.09-1.54c2.64-1.93,2.92-6,.63-9.19s-6.3-4.15-8.94-2.22l-2.1,1.54Z"/></g><ellipse class="cls-5" cx="366.47" cy="101.86" rx="5.92" ry="7.06" transform="translate(10.32 235.4) rotate(-36.09)"/><path class="cls-20" d="M367.22,107.62a6.27,6.27,0,0,1-4.9-2.72,6.51,6.51,0,0,1-1.29-4.75,4.34,4.34,0,0,1,1.66-2.85c2.13-1.55,5.42-.67,7.34,2h0a6.45,6.45,0,0,1,1.28,4.75,4.26,4.26,0,0,1-1.66,2.85A4.05,4.05,0,0,1,367.22,107.62Zm-2.08-10.3a3.33,3.33,0,0,0-2,.62,3.47,3.47,0,0,0-1.35,2.33,5.72,5.72,0,0,0,1.14,4.16c1.67,2.29,4.48,3.09,6.26,1.78a3.4,3.4,0,0,0,1.34-2.32,5.67,5.67,0,0,0-1.13-4.16h0A5.53,5.53,0,0,0,365.14,97.32Z"/><path class="cls-36" d="M366,100l0,0,.95-.68,0,0s0,0,0,0l0,.74a0,0,0,0,1,0,0l-.6.43s0,0,0,0a1.78,1.78,0,0,1,.14,1.18,2.54,2.54,0,0,1-.5,1,2.86,2.86,0,0,1-.46.46v0l4,1.15,0,0-.85.62h-.06l-3.79-1.11a.1.1,0,0,1-.07,0l-.31-.45s0,0,0-.05c.21-.15.42-.29.62-.45a1.9,1.9,0,0,0,.61-.74,1.19,1.19,0,0,0,0-1,.8.8,0,0,0-.08-.16s0,0,0,0,0,0,0,0l-2,1.44,0,0a.08.08,0,0,1,0,0c0-.24,0-.48,0-.72a.06.06,0,0,1,0-.06l1.59-1.15,0,0-.12-.07a1,1,0,0,0-.74,0,2,2,0,0,0-.61.3c-.31.2-.61.43-.91.64l0,0a0,0,0,0,1,0,0c0-.24,0-.48,0-.72,0,0,0,0,0,0l3.49-2.52a.08.08,0,0,1,0,0c0,.24,0,.48,0,.71a.1.1,0,0,1,0,.08l-.84.6,0,0,0,0a1.44,1.44,0,0,1,.58.32A.05.05,0,0,1,366,100Z"/><path class="cls-20" d="M366.23,99.81l0,0,.95-.69,0,0a0,0,0,0,1,0,0c0,.24,0,.49,0,.74a.06.06,0,0,1,0,.05l-.6.43s0,0,0,0a1.79,1.79,0,0,1,.15,1.18,2.42,2.42,0,0,1-.5,1,3.41,3.41,0,0,1-.46.47h0l4,1.16a0,0,0,0,1,0,0l-.86.62s0,0-.05,0l-3.79-1.1a.12.12,0,0,1-.07,0l-.31-.44s0,0,0,0c.21-.15.42-.3.62-.46a2.09,2.09,0,0,0,.61-.74,1.19,1.19,0,0,0,0-1,.89.89,0,0,0-.09-.16h-.05l-2,1.45,0,0v0c0-.24,0-.48,0-.72,0,0,0,0,0-.06l1.6-1.14,0,0-.12-.06a1,1,0,0,0-.74,0,2.81,2.81,0,0,0-.6.3c-.31.2-.61.43-.91.65l0,0a.06.06,0,0,1,0,0c0-.24,0-.48,0-.72a.08.08,0,0,0,0,0l3.5-2.51a.06.06,0,0,1,0,0c0,.24,0,.48,0,.72a.08.08,0,0,1,0,.07l-.83.6,0,0h0a1.46,1.46,0,0,1,.58.33S366.23,99.79,366.23,99.81Z"/><g class="cls-47"><path class="cls-23" d="M410.87,128.84,413,127.3c2.64-1.92,2.92-6,.63-9.19s-6.3-4.14-8.94-2.22l-2.1,1.54Z"/></g><ellipse class="cls-5" cx="406.71" cy="123.14" rx="5.92" ry="7.06" transform="matrix(0.81, -0.59, 0.59, 0.81, 5.51, 263.18)"/><path class="cls-20" d="M407.46,128.9a6.3,6.3,0,0,1-4.91-2.73,6.53,6.53,0,0,1-1.28-4.75,4.3,4.3,0,0,1,1.66-2.85c2.13-1.55,5.42-.67,7.34,2a6.51,6.51,0,0,1,1.28,4.75,4.26,4.26,0,0,1-1.66,2.85A4.06,4.06,0,0,1,407.46,128.9Zm-2.08-10.31a3.28,3.28,0,0,0-2,.63,3.41,3.41,0,0,0-1.35,2.32,5.71,5.71,0,0,0,1.14,4.16c1.67,2.29,4.48,3.09,6.26,1.79a3.42,3.42,0,0,0,1.34-2.33,5.73,5.73,0,0,0-1.13-4.16A5.54,5.54,0,0,0,405.38,118.59Z"/><path class="cls-36" d="M406.25,121.23a0,0,0,0,0,0,0l1-.69,0,0s0,0,0,0l0,.74s0,0,0,0l-.6.44s0,0,0,0a1.78,1.78,0,0,1,.14,1.18,2.42,2.42,0,0,1-.5,1,3.41,3.41,0,0,1-.46.47h0l4,1.16,0,0-.86.62h-.05l-3.79-1.1a.12.12,0,0,1-.07,0c-.1-.15-.2-.3-.31-.44s0,0,0,0c.21-.15.42-.3.62-.46a2,2,0,0,0,.61-.74,1.18,1.18,0,0,0-.05-1.12s0,0,0,0h0l-2,1.45,0,0a.06.06,0,0,1,0,0c0-.24,0-.48,0-.72a.07.07,0,0,1,0-.06l1.59-1.15,0,0a.23.23,0,0,0-.12-.06,1,1,0,0,0-.73,0,2.66,2.66,0,0,0-.61.3c-.31.2-.61.43-.91.64l0,0a.06.06,0,0,1,0,0c0-.24,0-.48,0-.72,0,0,0,0,0,0l3.49-2.52s0,0,0,0c0,.24,0,.48,0,.72,0,0,0,0,0,.07l-.83.6,0,0h0a1.46,1.46,0,0,1,.58.33S406.25,121.22,406.25,121.23Z"/><path class="cls-20" d="M406.47,121.08l0,0,.95-.68,0,0s0,0,0,0c0,.25,0,.49,0,.74a.08.08,0,0,1,0,0l-.61.43a0,0,0,0,0,0,.05,1.76,1.76,0,0,1,.15,1.17,2.52,2.52,0,0,1-.5,1,3.33,3.33,0,0,1-.46.46h0l4,1.16s0,0,0,0l-.86.62s0,0,0,0l-3.79-1.1s-.06,0-.07-.05-.21-.29-.31-.44,0,0,0,0c.2-.15.42-.29.62-.45a2.13,2.13,0,0,0,.61-.75,1.17,1.17,0,0,0,0-1l-.09-.16s0,0,0,0l0,0-2,1.44,0,0s0,0,0,0l0-.73a.05.05,0,0,1,0-.05l1.6-1.15,0,0-.12-.07a1,1,0,0,0-.74,0,2.81,2.81,0,0,0-.6.3c-.31.21-.61.43-.91.65l0,0v0c0-.24,0-.48,0-.73a0,0,0,0,0,0,0l3.5-2.52a.07.07,0,0,1,0,.05c0,.24,0,.47,0,.71a.08.08,0,0,1,0,.08l-.83.6,0,0h0a1.59,1.59,0,0,1,.58.33S406.47,121.06,406.47,121.08Z"/><g class="cls-48"><path class="cls-23" d="M364.47,103.69l-1.76,1.92c-2.23,2.41-1.72,6.5,1.13,9.14s7,2.84,9.2.43l1.76-1.92Z"/></g><path class="cls-5" d="M374.8,113.26c-2.23,2.41-6.34,2.21-9.19-.43s-3.36-6.73-1.14-9.14,6.35-2.21,9.2.43S377,110.85,374.8,113.26Z"/><path class="cls-20" d="M371,113.53a6.8,6.8,0,0,1-6.51-6.21,4.27,4.27,0,0,1,1.09-3.12c1.79-1.94,5.19-1.72,7.57.48a6.47,6.47,0,0,1,2.16,4.41,4.13,4.13,0,0,1-4.31,4.44Zm-2.21-9.87a3.51,3.51,0,0,0-2.65,1.08,3.46,3.46,0,0,0-.87,2.55,5.63,5.63,0,0,0,1.9,3.85h0c2.07,1.92,5,2.16,6.48.53a3.45,3.45,0,0,0,.88-2.54,5.69,5.69,0,0,0-1.91-3.87A5.74,5.74,0,0,0,368.78,103.66Z"/><path class="cls-36" d="M370.45,110.25s0,0,0,0l-.81.86,0,0s0,0,0,0c-.06-.24-.11-.48-.17-.73,0,0,0,0,0,0l.51-.54s0,0,0,0a1.77,1.77,0,0,1-.36-1.13,2.35,2.35,0,0,1,.29-1.11,3.48,3.48,0,0,1,.36-.55l0,0-4.14-.35s0,0,0,0l.73-.77s0,0,.05,0l3.92.34a.1.1,0,0,1,.08,0l.39.37s0,0,0,.06a6.89,6.89,0,0,0-.52.56,2.07,2.07,0,0,0-.46.85,1.16,1.16,0,0,0,.15.94.53.53,0,0,0,.12.14s0,0,0,0h0l1.7-1.81,0,0a0,0,0,0,1,0,0c.05.24.1.47.16.71a.07.07,0,0,1,0,.06l-1.35,1.44,0,0,.13,0a1,1,0,0,0,.72-.12,2.74,2.74,0,0,0,.54-.41c.27-.26.52-.54.77-.82l0,0a0,0,0,0,1,0,0c.06.23.11.47.16.7,0,0,0,0,0,0l-2.95,3.15a.05.05,0,0,1,0,0c-.05-.23-.1-.46-.16-.7a.08.08,0,0,1,0-.08l.7-.75,0,0h0a1.47,1.47,0,0,1-.63-.21S370.45,110.27,370.45,110.25Z"/><path class="cls-20" d="M370.26,110.45a0,0,0,0,0,0,0l-.81.86,0,0s0,0,0,0c-.06-.24-.11-.48-.17-.72,0,0,0,0,0,0l.51-.54s0,0,0,0a1.82,1.82,0,0,1-.37-1.13,2.56,2.56,0,0,1,.3-1.11,3.17,3.17,0,0,1,.36-.54l0,0-4.14-.36a0,0,0,0,1,0,0l.72-.78a.06.06,0,0,1,.05,0l3.93.34a.11.11,0,0,1,.08,0l.39.38s0,0,0,.05c-.18.19-.36.37-.53.57a2,2,0,0,0-.45.84,1.17,1.17,0,0,0,.15,1,1.34,1.34,0,0,0,.11.14h0s0,0,0,0c.57-.6,1.13-1.21,1.69-1.81l0,0s0,0,0,0c.05.23.1.47.16.7,0,0,0,0,0,.06L371,109.67l0,0,.13,0a1,1,0,0,0,.73-.12,2.41,2.41,0,0,0,.54-.41c.27-.26.52-.54.77-.81l0,0a0,0,0,0,1,0,0c0,.24.11.47.16.71a0,0,0,0,0,0,0c-1,1.06-2,2.11-2.95,3.16a.08.08,0,0,1,0,0c-.06-.23-.11-.46-.16-.69a.08.08,0,0,1,0-.09l.7-.75,0,0h0a1.57,1.57,0,0,1-.63-.21Z"/><g class="cls-49"><path class="cls-2" d="M339.07,124.51l2.09-1.54c2.65-1.93,2.93-6,.63-9.19s-6.3-4.14-8.94-2.22l-2.09,1.54Z"/></g><path class="cls-5" d="M330.76,113.1c2.64-1.92,6.64-.93,8.93,2.22s2,7.26-.62,9.19-6.64.93-8.94-2.22S328.11,115,330.76,113.1Z"/><path class="cls-20" d="M335.66,124.57a6.28,6.28,0,0,1-4.9-2.73,6.45,6.45,0,0,1-1.28-4.75,4.29,4.29,0,0,1,1.65-2.85c2.13-1.55,5.42-.67,7.34,2a6.46,6.46,0,0,1,1.28,4.75,4.29,4.29,0,0,1-1.65,2.85A4.11,4.11,0,0,1,335.66,124.57Zm-2.08-10.31a3.3,3.3,0,0,0-2,.63,3.45,3.45,0,0,0-1.35,2.32,5.72,5.72,0,0,0,1.14,4.16c1.67,2.29,4.48,3.09,6.26,1.79a3.47,3.47,0,0,0,1.35-2.33,5.72,5.72,0,0,0-1.14-4.16A5.53,5.53,0,0,0,333.58,114.26Z"/><path class="cls-21" d="M334.46,116.9s0,0,0,0l.95-.69,0,0a0,0,0,0,1,0,0l0,.75s0,0,0,0l-.6.44s0,0,0,0a1.78,1.78,0,0,1,.14,1.18,2.36,2.36,0,0,1-.5,1,2.86,2.86,0,0,1-.46.46v0l4,1.16s0,0,0,0l-.86.62h-.06l-3.79-1.1a.18.18,0,0,1-.07-.05c-.1-.15-.2-.3-.31-.44s0,0,0-.06c.21-.15.42-.29.62-.45a1.9,1.9,0,0,0,.61-.74,1.15,1.15,0,0,0,0-1,1.19,1.19,0,0,0-.08-.16s0,0,0,0h0l-2,1.44,0,0a.06.06,0,0,1,0,0c0-.24,0-.48,0-.72a.07.07,0,0,1,0-.06l1.59-1.15,0,0-.12-.07a1,1,0,0,0-.74,0,2.31,2.31,0,0,0-.61.3c-.31.2-.6.43-.91.64l0,0s0,0,0,0l0-.72s0,0,0,0l3.49-2.52a.06.06,0,0,1,0,0c0,.24,0,.48,0,.71a.1.1,0,0,1,0,.08l-.84.6,0,0s0,0,0,0a1.35,1.35,0,0,1,.58.33Z"/><path class="cls-20" d="M334.67,116.75s0,0,0,0l.95-.68,0,0a0,0,0,0,1,0,0c0,.25,0,.49,0,.74a.06.06,0,0,1,0,0l-.6.43s0,0,0,0a1.79,1.79,0,0,1,.15,1.18,2.42,2.42,0,0,1-.5,1,2.93,2.93,0,0,1-.46.47h0l4,1.16a0,0,0,0,1,0,0l-.86.62s0,0-.05,0l-3.79-1.1a.12.12,0,0,1-.07,0l-.31-.44s0,0,0,0c.21-.15.42-.29.62-.45a2.13,2.13,0,0,0,.61-.75,1.17,1.17,0,0,0,0-1,.51.51,0,0,0-.09-.16s0,0,0,0,0,0,0,0c-.66.49-1.33,1-2,1.45l0,0v0c0-.25,0-.49,0-.73,0,0,0,0,0,0l1.6-1.15,0,0-.12-.06a1,1,0,0,0-.73,0,2.66,2.66,0,0,0-.61.3c-.31.21-.61.43-.91.65l0,0a0,0,0,0,1,0,0c0-.25,0-.49,0-.73a0,0,0,0,0,0,0l3.5-2.52a.07.07,0,0,1,0,0c0,.23,0,.47,0,.71,0,0,0,.06,0,.08l-.83.6,0,0h0a1.46,1.46,0,0,1,.58.33S334.67,116.73,334.67,116.75Z"/><g class="cls-50"><path class="cls-23" d="M347.05,104.68l1.26,3.1c.82,2,4.52,2.36,8.27.77s6.12-4.51,5.3-6.52l-1.26-3.11Z"/></g><path class="cls-5" d="M360.62,98.92c.82,2-1.55,4.94-5.3,6.53s-7.45,1.24-8.27-.77,1.55-4.94,5.3-6.53S359.8,96.91,360.62,98.92Z"/><path class="cls-20" d="M351,106.12a5.31,5.31,0,0,1-2-.36,2.44,2.44,0,0,1-1.38-1.29c-.77-1.89,1.37-4.53,4.87-6h0c2.33-1,4.72-1.21,6.23-.57a2.41,2.41,0,0,1,1.38,1.29c.77,1.89-1.37,4.53-4.86,6A11,11,0,0,1,351,106.12Zm5.65-7.81a10.36,10.36,0,0,0-3.9.87h0c-3,1.27-5,3.55-4.45,5a1.64,1.64,0,0,0,1,.87c1.31.54,3.52.32,5.63-.58,3-1.27,5-3.55,4.45-5a1.63,1.63,0,0,0-.95-.86A4.55,4.55,0,0,0,356.67,98.31Z"/><path class="cls-21" d="M355.76,101.53s0,0,0,0c.1.24.19.49.29.73v0s0,0,0,0h-.69s0,0,0,0l-.18-.46s0,0,0,0a2.25,2.25,0,0,1-1.14.06,1.57,1.57,0,0,1-.78-.4,1.67,1.67,0,0,1-.26-.35v0L350.38,104s0,0,0,0c-.09-.22-.17-.44-.26-.65,0,0,0,0,0,0l2.4-2.76a.12.12,0,0,1,.07-.05l.52-.22s0,0,0,0,.12.32.2.48a1,1,0,0,0,.46.47,1.32,1.32,0,0,0,.87.06l.18-.06s0,0,0,0h0c-.21-.51-.41-1-.61-1.53v0H355s0,0,0,0c.16.41.32.81.49,1.22v0a.39.39,0,0,0,.1-.08.85.85,0,0,0,.29-.55,1,1,0,0,0-.06-.45c-.07-.24-.17-.47-.26-.7v0h.71s0,0,0,0l1.05,2.66h-.71a.06.06,0,0,1-.06,0l-.25-.63s0,0,0,0l0,0a2,2,0,0,1-.52.42Z"/><path class="cls-20" d="M355.82,101.69s0,0,0,0c.09.24.19.48.29.72v0h-.72a.05.05,0,0,1,0,0l-.18-.46s0,0,0,0A2.25,2.25,0,0,1,354,102a1.5,1.5,0,0,1-.77-.41,1.1,1.1,0,0,1-.26-.35h0l-2.52,2.9a0,0,0,0,1,0,0c-.09-.22-.18-.44-.26-.66,0,0,0,0,0,0l2.39-2.76a.18.18,0,0,1,.07,0l.52-.21s0,0,.05,0,.12.32.19.47a1,1,0,0,0,.47.47,1.2,1.2,0,0,0,.87.06l.18-.06s0,0,0,0v0l-.61-1.52v0H355s0,0,0,0l.48,1.21v0l.11-.09a.88.88,0,0,0,.29-.54,1.42,1.42,0,0,0-.06-.46c-.07-.24-.18-.46-.27-.69v0h.75l1.06,2.67h-.72a0,0,0,0,1-.05,0c-.09-.22-.17-.43-.26-.64,0,0,0,0,0,0s0,0,0,0a2.13,2.13,0,0,1-.51.41Z"/><g class="cls-51"><path class="cls-2" d="M390.83,123l.14,3.35c.09,2.18,3.45,3.8,7.5,3.61s7.28-2.11,7.19-4.29l-.14-3.35Z"/></g><ellipse class="cls-5" cx="398.18" cy="122.62" rx="7.35" ry="3.95" transform="translate(-5.46 19.39) rotate(-2.77)"/><path class="cls-20" d="M397.72,126.29a8.29,8.29,0,0,1-5.44-1.64,2.47,2.47,0,0,1-.86-1.7c-.08-2,2.82-3.77,6.61-4h0c2.51-.12,4.84.51,6.05,1.63a2.51,2.51,0,0,1,.86,1.69c.08,2-2.82,3.78-6.61,4Zm.9-6.51h-.56c-3.24.15-5.92,1.59-5.86,3.13a1.69,1.69,0,0,0,.61,1.15c1,1,3.2,1.53,5.49,1.42,3.24-.15,5.92-1.59,5.86-3.13a1.69,1.69,0,0,0-.61-1.15A7.64,7.64,0,0,0,398.62,119.78Z"/><path class="cls-21" d="M400.08,123a0,0,0,0,0,0,0l0,.78v0s0,0,0,0l-.64-.25s0,0,0,0,0-.33,0-.49,0,0,0,0a2.19,2.19,0,0,1-1.09-.33,1.51,1.51,0,0,1-.59-.65,1.36,1.36,0,0,1-.13-.42v0l-3.35,1.85s0,0,0,0c0-.23,0-.47,0-.7a.05.05,0,0,1,0,0l3.19-1.76.08,0,.56,0s0,0,0,0c0,.17,0,.34,0,.51a1.06,1.06,0,0,0,.28.61,1.24,1.24,0,0,0,.8.35h.19s0,0,0,0h0l-.05-1.65v0h0l.64.25,0,0c0,.44,0,.88,0,1.31v0l.13,0a.82.82,0,0,0,.45-.4,1.06,1.06,0,0,0,.11-.45c0-.25,0-.5,0-.75v0h0l.64.25h0l.09,2.87h-.05l-.62-.24a.05.05,0,0,1,0,0c0-.23,0-.46,0-.69v0h0a2,2,0,0,1-.62.21S400.09,123,400.08,123Z"/><path class="cls-20" d="M400.08,123.21a0,0,0,0,0,0,0c0,.27,0,.53,0,.79v0h0l-.65-.25s0,0,0,0c0-.17,0-.33,0-.5,0,0,0,0,0,0a2.34,2.34,0,0,1-1.1-.33,1.71,1.71,0,0,1-.59-.65,1.62,1.62,0,0,1-.12-.43h0l-3.34,1.85v0c0-.23,0-.47,0-.71,0,0,0,0,0,0l3.18-1.76.09,0,.56,0s0,0,0,0a4.52,4.52,0,0,0,0,.52.94.94,0,0,0,.27.6,1.3,1.3,0,0,0,.81.36h.18s0,0,0,0h0l-.06-1.65v0h0l.63.24s0,0,0,0c0,.44,0,.87,0,1.31v0l.12-.05a.82.82,0,0,0,.46-.41,1.14,1.14,0,0,0,.1-.45c0-.25,0-.49,0-.74v0h0l.63.25h0l.09,2.87h0l-.62-.24s0,0,0,0l0-.69v0s0,0,0,0a2.13,2.13,0,0,1-.63.21S400.1,123.22,400.08,123.21Z"/><g class="cls-52"><path class="cls-2" d="M392.23,110.58l-1.31,3.08c-.86,2,1.48,4.94,5.21,6.56s7.45,1.32,8.3-.68l1.32-3.07Z"/></g><ellipse class="cls-5" cx="398.99" cy="113.52" rx="3.94" ry="7.37" transform="translate(134.78 433.33) rotate(-66.32)"/><path class="cls-20" d="M401.82,117.86a10.87,10.87,0,0,1-4.26-1c-2.32-1-4.14-2.59-4.75-4.14a2.46,2.46,0,0,1,0-1.9c.8-1.88,4.15-2.16,7.64-.64,2.32,1,4.14,2.59,4.75,4.14a2.46,2.46,0,0,1,0,1.9C404.75,117.31,403.47,117.86,401.82,117.86Zm-5.7-7.84c-1.31,0-2.32.38-2.64,1.13a1.65,1.65,0,0,0,.06,1.3c.52,1.34,2.22,2.79,4.33,3.71,3,1.29,6,1.19,6.62-.23a1.7,1.7,0,0,0-.06-1.3c-.52-1.33-2.22-2.79-4.33-3.7h0A10.28,10.28,0,0,0,396.12,110Z"/><path class="cls-21" d="M400.53,114.74s0,0,0,0l-.31.72v0h0l-.48-.51s0,0,0,0l.2-.45s0,0,0,0a2.27,2.27,0,0,1-.84-.78,1.57,1.57,0,0,1-.25-.85,1.61,1.61,0,0,1,.06-.44h0l-3.81.19a0,0,0,0,1,0,0c.09-.22.19-.44.28-.65a.05.05,0,0,1,0,0l3.62-.18.08,0,.52.23s0,0,0,0-.14.31-.2.47a1,1,0,0,0,0,.67,1.33,1.33,0,0,0,.57.67.65.65,0,0,0,.16.09h0l.66-1.51v0l0,0c.16.16.32.33.47.5s0,0,0,0l-.52,1.2v0h.13a.82.82,0,0,0,.59-.16,1.17,1.17,0,0,0,.28-.36c.12-.22.21-.45.31-.68v0l0,0,.46.5s0,0,0,0c-.38.88-.77,1.75-1.15,2.63l0,0c-.15-.17-.3-.33-.46-.49a.06.06,0,0,1,0-.07l.27-.62s0,0,0,0h0a1.89,1.89,0,0,1-.65-.09Z"/><path class="cls-20" d="M400.45,114.9s0,0,0,0c-.1.23-.21.47-.31.71v0h0l-.48-.51s0,0,0,0l.2-.45s0,0,0,0a2.2,2.2,0,0,1-.84-.78,1.57,1.57,0,0,1-.25-.85,1.21,1.21,0,0,1,.06-.43v0l-3.81.19a0,0,0,0,1,0,0c.09-.22.19-.43.28-.65a.05.05,0,0,1,0,0l3.62-.18.08,0,.52.23s0,0,0,0-.14.31-.2.47a1,1,0,0,0,0,.67,1.34,1.34,0,0,0,.57.68l.16.09s0,0,0,0h0l.66-1.51v0a0,0,0,0,1,0,0l.47.5s0,0,0,0c-.17.39-.35.79-.52,1.19v0h.13a.83.83,0,0,0,.59-.16,1.07,1.07,0,0,0,.28-.36c.12-.22.21-.45.31-.68v0l0,0,.46.5s0,0,0,0c-.38.88-.77,1.75-1.15,2.63l0,0-.46-.49a.06.06,0,0,1,0-.07l.27-.62s0,0,0,0h0a2.14,2.14,0,0,1-.65-.08Z"/><g class="cls-53"><path class="cls-23" d="M307.55,124.1l-.1,4.28c-.06,1.21,3.18,2.22,7.24,2.28s7.41-.87,7.47-2.07l.09-4.29Z"/></g><path class="cls-5" d="M322.25,124.3c-.06,1.2-3.4,2.13-7.46,2.07s-7.3-1.07-7.24-2.27S311,122,315,122,322.31,123.1,322.25,124.3Z"/><path class="cls-20" d="M315.11,126.4h-.3c-3,0-5.56-.65-6.36-1.51a1.07,1.07,0,0,1-.31-.77c.07-1.43,3.52-2.14,6.85-2.08,3,0,5.56.65,6.36,1.51a1.08,1.08,0,0,1,.31.78C321.59,125.7,318.36,126.4,315.11,126.4Zm-.45-3.58c-3.68,0-5.72.86-5.74,1.33,0,.06.06.14.1.19.55.59,2.72,1.22,5.8,1.26,3.86.06,6-.85,6.07-1.32a.33.33,0,0,0-.11-.19c-.55-.6-2.72-1.23-5.8-1.27Z"/><path class="cls-21" d="M316.77,124.5h0l0,.44h0l-.63-.17h0c0-.1,0-.19,0-.28s0,0,0,0a3.47,3.47,0,0,1-1.07-.23,1.19,1.19,0,0,1-.54-.38.5.5,0,0,1-.1-.24h0l-3.47.88s0,0,0,0,0-.26,0-.39h0l3.3-.85h.08l.56,0s0,0,0,0a2.64,2.64,0,0,0,0,.28.45.45,0,0,0,.24.35,1.68,1.68,0,0,0,.77.22l.19,0s0,0,0,0h0l.06-.91h0l.62.16s0,0,0,0c0,.24,0,.48,0,.72v0l.13,0a.94.94,0,0,0,.48-.21.39.39,0,0,0,.13-.24,2.85,2.85,0,0,0,0-.41h0l.62.16h0c0,.52-.07,1-.1,1.58h0l-.61-.15s0,0,0,0l0-.38h0a3,3,0,0,1-.63.09S316.78,124.51,316.77,124.5Z"/><path class="cls-20" d="M316.76,124.6s0,0,0,0l0,.43v0h0l-.63-.16s0,0,0,0a2.45,2.45,0,0,1,0-.27h0a3.34,3.34,0,0,1-1.07-.23,1.23,1.23,0,0,1-.55-.38.59.59,0,0,1-.09-.24h0l-3.47.89a0,0,0,0,1,0,0l0-.39s0,0,0,0l3.3-.84h.64s0,0,0,0a2.62,2.62,0,0,0,0,.28.43.43,0,0,0,.23.34,1.64,1.64,0,0,0,.78.23h.21l.06-.91v0h0l.61.16,0,0c0,.24,0,.48-.05.72v0l.13,0a.94.94,0,0,0,.48-.21.43.43,0,0,0,.14-.24c0-.14,0-.28,0-.41v0h0l.61.16h0c0,.52-.06,1-.1,1.58h-.05l-.6-.16s0,0,0,0,0-.25,0-.37,0,0,0,0h0a3.09,3.09,0,0,1-.64.09Z"/><g class="cls-54"><path class="cls-2" d="M316.11,125.61l1,3.19c.66,2.07,4.33,2.7,8.19,1.4s6.44-4,5.77-6.1l-1-3.19Z"/></g><ellipse class="cls-5" cx="323.09" cy="123.26" rx="7.37" ry="3.94" transform="translate(-22.51 111.28) rotate(-18.9)"/><path class="cls-20" d="M320.59,127.37a5.81,5.81,0,0,1-2.63-.54,2.4,2.4,0,0,1-1.28-1.39c-.63-1.94,1.7-4.41,5.3-5.62,2.39-.81,4.79-.85,6.26-.1a2.43,2.43,0,0,1,1.28,1.39c.62,1.94-1.71,4.41-5.31,5.63A11.55,11.55,0,0,1,320.59,127.37Zm5-7.39a10.67,10.67,0,0,0-3.39.59c-3.08,1-5.28,3.15-4.8,4.62a1.62,1.62,0,0,0,.89.94c1.26.65,3.48.59,5.66-.14,3.08-1,5.28-3.16,4.81-4.63a1.72,1.72,0,0,0-.89-.94A5.12,5.12,0,0,0,325.61,120Z"/><path class="cls-21" d="M325,123.13s0,0,0,0c.08.25.16.49.23.74v0h0l-.69-.06s0,0,0,0-.1-.32-.14-.48,0,0,0,0a2.29,2.29,0,0,1-1.14,0,1.57,1.57,0,0,1-.74-.46,1.28,1.28,0,0,1-.24-.38h0l-2.72,2.71,0,0-.21-.67s0,0,0,0l2.59-2.57a.18.18,0,0,1,.07-.05l.54-.17s0,0,0,0,.1.33.16.49a1,1,0,0,0,.43.51,1.28,1.28,0,0,0,.87.12l.18,0s0,0,0,0h0c-.16-.52-.32-1-.49-1.57v0h0l.67.06s0,0,0,0l.39,1.25v0a.31.31,0,0,0,.11-.08.82.82,0,0,0,.33-.52,1,1,0,0,0,0-.46c-.06-.24-.14-.47-.21-.71v0s0,0,0,0l.68.06h0c.29.91.58,1.82.86,2.73h-.05l-.66-.06a.06.06,0,0,1-.06,0c-.06-.22-.13-.43-.2-.65,0,0,0,0,0,0h0a2.17,2.17,0,0,1-.54.38Z"/><path class="cls-43" d="M325.08,123.3s0,0,0,0l.24.74v0h0l-.69-.06a0,0,0,0,1,0,0l-.15-.47s0,0,0,0a2.29,2.29,0,0,1-1.14,0,1.62,1.62,0,0,1-.74-.46,1.52,1.52,0,0,1-.24-.38h0l-2.73,2.7a0,0,0,0,1,0,0l-.21-.68s0,0,0,0l2.59-2.57a.16.16,0,0,1,.08,0l.53-.17s0,0,.05,0,.09.33.15.49a1,1,0,0,0,.43.51,1.29,1.29,0,0,0,.87.12l.18,0s0,0,0,0h0c-.17-.53-.33-1.05-.5-1.57v0h0l.68.06s0,0,0,0l.39,1.25v0l.11-.08a.86.86,0,0,0,.33-.52,1,1,0,0,0,0-.46c-.05-.24-.14-.47-.21-.71v0s0,0,0,0l.67,0h0c.28.91.57,1.82.86,2.73h-.05l-.67-.06a0,0,0,0,1,0,0l-.21-.65a0,0,0,0,0,0,0l0,0a2.17,2.17,0,0,1-.54.38Z"/><g class="cls-55"><path class="cls-23" d="M380.66,123.14l0,3.35c0,2.18,3.35,3.89,7.41,3.82s7.33-1.9,7.3-4.08l-.05-3.36Z"/></g><path class="cls-5" d="M395.36,122.87c0,2.18-3.24,4-7.3,4.08s-7.37-1.63-7.4-3.81,3.23-4,7.3-4.08S395.33,120.69,395.36,122.87Z"/><path class="cls-20" d="M387.82,126.67a8.58,8.58,0,0,1-5.76-1.8,2.5,2.5,0,0,1-.81-1.72c0-2,2.91-3.7,6.71-3.77v0c2.52,0,4.82.64,6,1.8a2.48,2.48,0,0,1,.81,1.72c0,2-2.92,3.69-6.71,3.76Zm.37-6.5H388c-3.24.06-6,1.42-5.94,3a1.63,1.63,0,0,0,.57,1.16c1,1,3.16,1.62,5.45,1.57,3.24-.06,6-1.41,5.94-3a1.67,1.67,0,0,0-.57-1.16A7.9,7.9,0,0,0,388.19,120.17Z"/><path class="cls-36" d="M389.9,123.47s0,0,0,0c0,.26,0,.53,0,.79v0h0l-.64-.27s0,0,0,0v-.5s0,0,0,0a2.32,2.32,0,0,1-1.09-.37,1.58,1.58,0,0,1-.56-.66,1.32,1.32,0,0,1-.12-.43h0l-3.4,1.75s0,0,0,0V123a.05.05,0,0,1,0,0l3.23-1.67h.65s0,0,0,0,0,.34,0,.51a1,1,0,0,0,.27.61,1.23,1.23,0,0,0,.79.38l.18,0s0,0,0,0h0c0-.55,0-1.1,0-1.65v0h0l.63.26s0,0,0,0c0,.43,0,.87,0,1.31v0l.13,0a.83.83,0,0,0,.46-.39,1.08,1.08,0,0,0,.12-.45c0-.25,0-.49,0-.74v0h0l.62.26h0c0,1,0,1.92,0,2.88h-.05l-.62-.26s0,0,0,0c0-.23,0-.46,0-.69v0h0a2.11,2.11,0,0,1-.63.2S389.91,123.48,389.9,123.47Z"/><path class="cls-20" d="M389.9,123.65s0,0,0,0c0,.26,0,.52,0,.78v0h0l-.64-.26s0,0,0,0v-.49s0,0,0,0a2.24,2.24,0,0,1-1.08-.37,1.6,1.6,0,0,1-.57-.66,1.39,1.39,0,0,1-.12-.43v0l-3.4,1.76s0,0,0,0v-.71l0,0,3.23-1.67.09,0h.56s0,0,0,0a4.51,4.51,0,0,0,0,.52.92.92,0,0,0,.26.61,1.23,1.23,0,0,0,.79.38h.18s0,0,0,0v-1.69h0l.63.26,0,0c0,.44,0,.88,0,1.32v0l.13,0a.85.85,0,0,0,.47-.39,1.24,1.24,0,0,0,.11-.45c0-.25,0-.5,0-.75v0h0l.62.26h0c0,1,0,1.92,0,2.87,0,0,0,0-.05,0l-.61-.25s0,0,0-.06c0-.23,0-.45,0-.68v0h0a2.11,2.11,0,0,1-.63.2Z"/><g class="cls-56"><path class="cls-2" d="M385.58,121.43l-1.06,3.18c-.69,2.07-4.37,2.65-8.21,1.32s-6.39-4.1-5.7-6.17l1.06-3.18Z"/></g><ellipse class="cls-5" cx="378.62" cy="119.01" rx="3.94" ry="7.37" transform="translate(139.93 436.09) rotate(-70.48)"/><path class="cls-20" d="M381.17,123.15a11.42,11.42,0,0,1-3.71-.68c-3.59-1.25-5.89-3.74-5.24-5.68h0a2.47,2.47,0,0,1,1.29-1.38c1.47-.73,3.87-.67,6.26.17,3.59,1.25,5.89,3.75,5.24,5.68a2.44,2.44,0,0,1-1.29,1.38A5.77,5.77,0,0,1,381.17,123.15Zm-5.12-7.45a5.06,5.06,0,0,0-2.19.42,1.66,1.66,0,0,0-.9.93h0c-.49,1.46,1.68,3.6,4.75,4.68,2.17.75,4.39.83,5.67.2a1.64,1.64,0,0,0,.89-.93c.49-1.46-1.68-3.6-4.75-4.67A10.73,10.73,0,0,0,376.05,115.7Z"/><path class="cls-21" d="M376.68,118.86s0,0,0,0l-.24.74v0h0l.69-.05s0,0,0,0l.15-.47s0,0,0,0a2.34,2.34,0,0,0,1.15,0,1.47,1.47,0,0,0,.74-.46,1.31,1.31,0,0,0,.24-.37h0l2.7,2.73a0,0,0,0,0,0,0c.07-.23.14-.45.22-.67,0,0,0,0,0,0l-2.56-2.6-.08,0-.53-.17s0,0,0,0-.1.33-.17.48a1,1,0,0,1-.43.51,1.29,1.29,0,0,1-.87.11l-.18,0s0,0,0,0h0l.51-1.57v0h0l-.68.06s0,0,0,0c-.13.42-.27.83-.4,1.25v0a.31.31,0,0,1-.11-.08.84.84,0,0,1-.33-.52,1,1,0,0,1,0-.46c.06-.24.15-.47.22-.71v0h0l-.67.06h0c-.29.91-.59,1.82-.88,2.72h.05l.66,0a.06.06,0,0,0,.06,0l.21-.65s0,0,0,0h0a1.8,1.8,0,0,0,.54.38Z"/><path class="cls-20" d="M376.63,119a0,0,0,0,1,0,0l-.24.75v0a0,0,0,0,0,0,0l.69,0s0,0,0,0l.15-.47s0,0,0,0a2.23,2.23,0,0,0,1.15,0,1.62,1.62,0,0,0,.74-.46,1.24,1.24,0,0,0,.24-.37h0l2.7,2.73a0,0,0,0,0,0,0c.08-.23.15-.45.22-.68,0,0,0,0,0,0-.86-.87-1.71-1.74-2.57-2.6a.18.18,0,0,0-.07,0l-.54-.18s0,0,0,0-.1.32-.16.48a1,1,0,0,1-.44.5,1.26,1.26,0,0,1-.86.12l-.19,0a0,0,0,0,1,0,0v0l.51-1.56v0h0l-.68,0s0,0,0,0c-.13.42-.26.83-.4,1.25v0l-.11-.08a.82.82,0,0,1-.32-.52,1,1,0,0,1,0-.46,5.83,5.83,0,0,1,.22-.71v0h0l-.68,0a0,0,0,0,1,0,0c-.3.91-.59,1.82-.89,2.73h.05l.67,0a.07.07,0,0,0,.05,0l.21-.65v0h0a1.94,1.94,0,0,0,.54.38Z"/><g class="cls-57"><path class="cls-2" d="M352.74,123.34l.48,3.32c.31,2.16-2.7,4.38-6.72,5s-7.53-.7-7.84-2.86l-.48-3.32Z"/></g><path class="cls-5" d="M338.18,125.44c.31,2.16,3.82,3.43,7.84,2.85s7-2.79,6.72-4.95-3.82-3.44-7.85-2.86S337.86,123.28,338.18,125.44Z"/><path class="cls-20" d="M344.17,128.14c-2.92,0-5.17-1.08-5.41-2.77h0a2.52,2.52,0,0,1,.54-1.83c1-1.33,3.14-2.38,5.64-2.74,3.76-.54,6.93.62,7.22,2.64a2.49,2.49,0,0,1-.54,1.83c-1,1.33-3.14,2.38-5.65,2.74A12.51,12.51,0,0,1,344.17,128.14Zm-4.64-2.88c.22,1.53,3.12,2.43,6.33,2,2.28-.33,4.29-1.28,5.14-2.43a1.69,1.69,0,0,0,.38-1.24c-.21-1.53-3.12-2.44-6.33-2-2.27.32-4.28,1.28-5.13,2.43a1.72,1.72,0,0,0-.39,1.24Z"/><path class="cls-21" d="M343.66,125.15s0,0,0,0l.12.77v0h0l.59-.36s0,0,0,0-.05-.32-.07-.49c0,0,0,0,0,0a2.16,2.16,0,0,0,1-.53,1.58,1.58,0,0,0,.46-.75,1.32,1.32,0,0,0,0-.44h0l3.63,1.18s0,0,0,0c0-.23-.07-.46-.11-.69a0,0,0,0,0,0,0L346,122.62h-.08l-.56.09s0,0,0,0,.06.34.07.51a1,1,0,0,1-.16.65,1.32,1.32,0,0,1-.72.5l-.19,0s0,0,0,0,0,0,0,0l-.24-1.63v0h0l-.58.36s0,0,0,0c.06.43.13.87.19,1.3v0l-.13,0a.82.82,0,0,1-.53-.31,1.19,1.19,0,0,1-.18-.42c-.06-.25-.08-.49-.12-.74v0h0l-.57.36a.05.05,0,0,1,0,0c.15.94.29,1.89.44,2.84l0,0,.57-.36s0,0,0,0c0-.23-.06-.46-.1-.68v0h0a2.29,2.29,0,0,0,.66.09Z"/><path class="cls-20" d="M343.69,125.33s0,0,0,0l.12.77v0h0l.59-.37s0,0,0,0c0-.17,0-.33-.08-.49s0,0,0,0a2.32,2.32,0,0,0,1-.54,1.58,1.58,0,0,0,.45-.74,1.35,1.35,0,0,0,.05-.44v0l3.63,1.19s0,0,0,0c0-.23-.07-.47-.1-.7t0,0L346,122.79a.14.14,0,0,0-.09,0l-.55.08s0,0,0,0c0,.17.06.34.08.51a1,1,0,0,1-.16.65,1.26,1.26,0,0,1-.73.5l-.18,0s0,0,0,0h0L344,123v0l0,0-.58.36s0,0,0,0c.07.43.14.86.2,1.29v0l-.14,0a.81.81,0,0,1-.52-.32,1,1,0,0,1-.18-.42c-.06-.24-.09-.49-.13-.73v0l0,0-.58.36h0c.15,1,.29,1.89.43,2.84l.05,0L343,126a.06.06,0,0,0,0-.06c0-.22-.07-.45-.1-.68a0,0,0,0,1,0,0h0a1.74,1.74,0,0,0,.65.09S343.68,125.34,343.69,125.33Z"/><g class="cls-58"><path class="cls-2" d="M357.54,121.93l-.48,3.32c-.31,2.15,2.7,4.37,6.72,4.95s7.53-.7,7.84-2.85l.48-3.32Z"/></g><ellipse class="cls-5" cx="364.82" cy="122.98" rx="3.95" ry="7.36" transform="translate(190.97 466.48) rotate(-81.78)"/><path class="cls-20" d="M366.11,126.73a12.75,12.75,0,0,1-1.81-.13c-2.5-.36-4.66-1.41-5.64-2.74a2.45,2.45,0,0,1-.54-1.83c.29-2,3.46-3.18,7.21-2.64h0c2.51.36,4.67,1.41,5.65,2.74a2.49,2.49,0,0,1,.54,1.83C371.27,125.64,369,126.73,366.11,126.73Zm-2.56-6.68c-2.48,0-4.48.84-4.66,2.09a1.72,1.72,0,0,0,.39,1.24c.85,1.16,2.86,2.11,5.13,2.44,3.21.46,6.12-.44,6.34-2a1.75,1.75,0,0,0-.39-1.24c-.85-1.15-2.87-2.1-5.14-2.43h0A12,12,0,0,0,363.55,120.05Z"/><path class="cls-21" d="M366.61,123.74s0,0,0,0c0,.26-.07.52-.11.78v0h0c-.2-.12-.4-.24-.59-.37,0,0,0,0,0,0,0-.16,0-.33.07-.49,0,0,0,0,0,0a2.36,2.36,0,0,1-1-.53,1.6,1.6,0,0,1-.46-.75,1.7,1.7,0,0,1-.05-.44v0l-3.63,1.19s0,0,0,0c0-.23.07-.46.11-.7t0,0l3.45-1.12a.11.11,0,0,1,.08,0l.56.09s0,0,0,0c0,.17-.06.33-.07.5a1,1,0,0,0,.16.65,1.27,1.27,0,0,0,.72.5l.18,0h0v0l.25-1.63v0l0,0,.58.36s0,0,0,0c-.07.43-.13.86-.2,1.3v0l.13,0a.82.82,0,0,0,.53-.31,1.36,1.36,0,0,0,.18-.43c.05-.24.08-.49.12-.73v0l0,0,.58.36h0c-.14,1-.28,1.9-.43,2.84l-.05,0-.57-.35a.07.07,0,0,1,0-.06c0-.22.07-.45.11-.67v0h0a2.22,2.22,0,0,1-.65.09Z"/><path class="cls-43" d="M366.59,123.92s0,0,0,0l-.12.77v0h0l-.59-.37s0,0,0,0,.05-.32.08-.49c0,0,0,0,0,0a2.27,2.27,0,0,1-1-.54,1.67,1.67,0,0,1-.46-.75,1.29,1.29,0,0,1,0-.44h0l-3.63,1.19a0,0,0,0,1,0,0c0-.24.08-.47.11-.7,0,0,0,0,0,0l3.45-1.13h.08l.56.09s0,0,0,0c0,.17-.06.34-.07.51a1.05,1.05,0,0,0,.16.65,1.32,1.32,0,0,0,.72.5l.19,0s0,0,0,0h0l.24-1.63v0l0,0,.58.35s0,0,0,0c-.06.44-.13.87-.19,1.3v0l.14,0a.85.85,0,0,0,.52-.32,1,1,0,0,0,.18-.42c.06-.24.08-.49.12-.74v0h0l.58.36s0,0,0,0c-.15.94-.29,1.89-.44,2.84a.05.05,0,0,1,0,0l-.57-.35s0,0,0-.06c0-.23.07-.45.1-.68v0a0,0,0,0,0,0,0,2,2,0,0,1-.66.09Z"/><g class="cls-59"><path class="cls-2" d="M346.53,116.08l2.1-1.54c2.64-1.93,2.92-6,.62-9.19s-6.29-4.15-8.94-2.22l-2.09,1.54Z"/></g><ellipse class="cls-5" cx="342.38" cy="110.37" rx="5.92" ry="7.06" transform="translate(0.68 222.84) rotate(-36.09)"/><path class="cls-20" d="M343.12,116.13a6.28,6.28,0,0,1-4.9-2.72,6.51,6.51,0,0,1-1.28-4.75,4.26,4.26,0,0,1,1.66-2.85c2.13-1.55,5.42-.67,7.34,2h0a6.51,6.51,0,0,1,1.28,4.75,4.26,4.26,0,0,1-1.66,2.85A4.08,4.08,0,0,1,343.12,116.13ZM341,105.83a3.35,3.35,0,0,0-2,.62,3.46,3.46,0,0,0-1.34,2.33,5.68,5.68,0,0,0,1.14,4.16c1.66,2.28,4.47,3.09,6.26,1.79a3.46,3.46,0,0,0,1.34-2.33,5.68,5.68,0,0,0-1.14-4.16A5.51,5.51,0,0,0,341,105.83Z"/><path class="cls-36" d="M341.92,108.47s0,0,0,0l.95-.69,0,0v0c0,.25,0,.5,0,.74,0,0,0,0,0,0l-.6.43s0,0,0,.05a1.78,1.78,0,0,1,.15,1.18,2.54,2.54,0,0,1-.5,1,3.33,3.33,0,0,1-.46.46l0,0,4,1.15s0,0,0,0l-.86.62h-.05l-3.79-1.1a.18.18,0,0,1-.07,0l-.31-.44s0,0,0-.06c.21-.15.42-.29.62-.45a2.09,2.09,0,0,0,.61-.74,1.19,1.19,0,0,0,0-1,.51.51,0,0,0-.09-.16s0,0,0,0,0,0,0,0l-2,1.44,0,0v0c0-.24,0-.48,0-.72,0,0,0,0,0-.06l1.6-1.15,0,0L341,109a1,1,0,0,0-.74,0,2.11,2.11,0,0,0-.6.3c-.31.2-.61.43-.91.64l0,0a0,0,0,0,1,0,0c0-.24,0-.48,0-.72,0,0,0,0,0,0l3.5-2.52a.09.09,0,0,1,0,.05c0,.24,0,.48,0,.71a.08.08,0,0,1,0,.08l-.83.6,0,0,0,0a1.44,1.44,0,0,1,.58.32S341.92,108.45,341.92,108.47Z"/><path class="cls-20" d="M342.14,108.32l0,0,.95-.69,0,0s0,0,0,0l0,.74s0,0,0,0l-.6.43s0,0,0,0a1.78,1.78,0,0,1,.14,1.18,2.31,2.31,0,0,1-.5,1,2.56,2.56,0,0,1-.46.47h0l4,1.16,0,0-.86.62a.07.07,0,0,1-.06,0l-3.79-1.1a.12.12,0,0,1-.07,0l-.31-.44s0,0,0-.05c.21-.15.42-.3.62-.46a1.83,1.83,0,0,0,.61-.74,1.13,1.13,0,0,0,0-1,1.3,1.3,0,0,0-.08-.17,0,0,0,0,0,0,0h0l-2,1.45,0,0s0,0,0,0c0-.24,0-.48,0-.72a0,0,0,0,1,0,0l1.59-1.15,0,0-.12-.06a1,1,0,0,0-.74,0,2.66,2.66,0,0,0-.61.3c-.31.2-.6.43-.91.65l0,0s0,0,0,0l0-.72s0,0,0,0l3.49-2.52a0,0,0,0,1,0,0c0,.24,0,.48,0,.72a.08.08,0,0,1,0,.07l-.84.61,0,0h0a1.46,1.46,0,0,1,.58.33Z"/><g class="cls-60"><path class="cls-2" d="M350.85,117.46l0,3.36c0,2.18,3.34,3.89,7.4,3.81s7.33-1.89,7.3-4.07l0-3.36Z"/></g><path class="cls-5" d="M365.56,117.2c0,2.18-3.24,4-7.3,4.08s-7.38-1.64-7.41-3.82,3.24-4,7.3-4.07S365.53,115,365.56,117.2Z"/><path class="cls-20" d="M358,121c-2.43,0-4.62-.68-5.76-1.8a2.43,2.43,0,0,1-.82-1.72c0-2,2.92-3.69,6.71-3.76,2.53-.06,4.83.64,6,1.8a2.48,2.48,0,0,1,.81,1.72c0,2-2.92,3.69-6.71,3.76Zm.14-6.88v.39c-3.25.06-6,1.42-5.95,3a1.68,1.68,0,0,0,.58,1.17c1,1,3.16,1.62,5.45,1.57,3.24-.06,6-1.42,5.94-3a1.65,1.65,0,0,0-.57-1.16c-1-1-3.17-1.62-5.45-1.58Z"/><path class="cls-36" d="M360.1,117.8s0,0,0,0v.81h0l-.64-.26s0,0,0,0v-.49s0,0,0,0a2.32,2.32,0,0,1-1.09-.37,1.61,1.61,0,0,1-.57-.66,1.36,1.36,0,0,1-.11-.43v0l-3.4,1.76s0,0,0,0v-.71s0,0,0,0l3.23-1.67.08,0h.57s0,0,0,0c0,.18,0,.35,0,.52a1,1,0,0,0,.26.61,1.26,1.26,0,0,0,.79.38h.19s0,0,0,0v0c0-.55,0-1.1,0-1.65v0h0l.63.26s0,0,0,0c0,.43,0,.87,0,1.31v0l.12,0a.82.82,0,0,0,.47-.39,1.26,1.26,0,0,0,.12-.45c0-.25,0-.5,0-.75v0h0l.63.26h0c0,1,0,1.92,0,2.87,0,0,0,0-.05,0l-.62-.25s0,0,0-.06v-.71h0a1.94,1.94,0,0,1-.63.2Z"/><path class="cls-20" d="M360.1,118s0,0,0,0v.81h0l-.64-.27a0,0,0,0,1,0,0V118s0,0,0,0a2.31,2.31,0,0,1-1.09-.36,1.48,1.48,0,0,1-.68-1.09v0l-3.4,1.76a0,0,0,0,1,0,0v-.71s0,0,0,0l3.23-1.67.09,0h.56s0,0,0,0,0,.34,0,.51a1,1,0,0,0,.26.62,1.31,1.31,0,0,0,.79.38h.19s0,0,0,0v-1.7l0,0,.63.26s0,0,0,0c0,.44,0,.88,0,1.31v0l.13,0a.81.81,0,0,0,.46-.4,1,1,0,0,0,.12-.44c0-.25,0-.5,0-.75v0h0l.62.26h0c0,1,0,1.91,0,2.87h-.05l-.62-.26a.05.05,0,0,1,0,0v-.71h0a1.72,1.72,0,0,1-.63.19Z"/></g></g></svg>