<svg xmlns="http://www.w3.org/2000/svg" xmlns:xlink="http://www.w3.org/1999/xlink" viewBox="0 0 430 300"><defs><style>.cls-1{isolation:isolate;}.cls-2{fill:#f9e7d2;}.cls-3{fill:#d16152;}.cls-11,.cls-21,.cls-3{mix-blend-mode:multiply;}.cls-4{fill:#c8ccce;}.cls-5{fill:#6ba7d1;}.cls-6{fill:#e57565;}.cls-7{fill:#e9e9e9;}.cls-8{fill:#f0806d;}.cls-9{fill:#fff;}.cls-10{fill:#e4e8ea;}.cls-11,.cls-12{fill:#fed385;}.cls-11{opacity:0.4;}.cls-13{fill:#8bc53f;}.cls-14{fill:#ffc64e;}.cls-15{fill:#fcb638;}.cls-16{fill:#f5882a;}.cls-17{fill:#ffe07c;}.cls-18{fill:#e46b28;}.cls-19{fill:#c1d258;}.cls-20{fill:#adc93f;}.cls-21{fill:#ffc563;opacity:0.2;}.cls-22{fill:url(#linear-gradient);}</style><linearGradient id="linear-gradient" x1="238.7" y1="38.68" x2="279.05" y2="60.84" gradientUnits="userSpaceOnUse"><stop offset="0" stop-color="#fff5de"/><stop offset="1" stop-color="#fff"/></linearGradient></defs><g class="cls-1"><g id="Layer_1" data-name="Layer 1"><path class="cls-2" d="M430,0V121.5A131.21,131.21,0,0,1,348.16,150,131.82,131.82,0,0,1,217.63,0Z"/><rect class="cls-3" x="267.67" y="109.22" width="60.32" height="25.89" transform="translate(-10.86 30.86) rotate(-5.83)"/><rect class="cls-4" x="307.18" y="107.22" width="20.73" height="25.89" transform="translate(-10.56 32.85) rotate(-5.83)"/><circle class="cls-5" cx="289.82" cy="123" r="9.91"/><rect class="cls-5" x="268.78" y="113.47" width="12.15" height="3.05" transform="translate(-10.25 28.49) rotate(-5.83)"/><rect class="cls-5" x="312.84" y="127.56" width="12.15" height="3.05" transform="translate(-11.46 33.04) rotate(-5.83)"/><rect class="cls-6" x="283.94" y="92.49" width="25.89" height="60.32" transform="translate(170.86 418.11) rotate(-89.35)"/><rect class="cls-7" x="303.77" y="112.52" width="25.89" height="20.73" transform="translate(190.23 438.17) rotate(-89.35)"/><circle class="cls-5" cx="288.85" cy="122.55" r="9.91"/><rect class="cls-5" x="273.36" y="106.84" width="3.05" height="12.15" transform="translate(158.83 386.5) rotate(-89.35)"/><rect class="cls-8" x="315.53" y="125.85" width="3.05" height="12.15" transform="translate(181.52 447.45) rotate(-89.35)"/><rect class="cls-8" x="259.89" y="106.1" width="60.32" height="25.89" transform="translate(-17.21 56.65) rotate(-10.84)"/><rect class="cls-9" x="299.11" y="102.39" width="20.73" height="25.89" transform="translate(-16.16 60.23) rotate(-10.84)"/><circle class="cls-10" cx="282.13" cy="120.55" r="9.91"/><rect class="cls-10" x="260.47" y="112.4" width="12.15" height="3.05" transform="translate(-16.66 52.14) rotate(-10.84)"/><rect class="cls-8" x="305.58" y="122.58" width="12.15" height="3.05" transform="translate(-17.77 60.8) rotate(-10.84)"/><ellipse class="cls-11" cx="345.75" cy="137.61" rx="44.05" ry="4.92"/><path class="cls-12" d="M374.91,62.34H316a10.3,10.3,0,0,0-7.72,3.49,49.54,49.54,0,0,0,4.17,69.76,10.25,10.25,0,0,0,6.82,2.59h52.34a10.25,10.25,0,0,0,6.82-2.59,49.54,49.54,0,0,0,4.17-69.76A10.3,10.3,0,0,0,374.91,62.34Z"/><path class="cls-11" d="M378.46,135.59a49.54,49.54,0,0,0,4.17-69.76,10.3,10.3,0,0,0-7.72-3.49H364.66c8.91,7.32,12.87,20,10.84,31.43-2.19,12.29-10.53,23-21,29.7s-23,9.85-35.46,10.79c-2.54.19-5.07.3-7.61.34l1.08,1a10.25,10.25,0,0,0,6.82,2.59h52.34A10.25,10.25,0,0,0,378.46,135.59Z"/><path class="cls-13" d="M345.58,83.35h0a1.49,1.49,0,0,1-1.49-1.49l.83-63.25c0-.82-.16-1.49.66-1.49h0c.82,0,.65.67.65,1.49l.84,63.25A1.49,1.49,0,0,1,345.58,83.35Z"/><circle class="cls-14" cx="316.77" cy="108.4" r="11.69" transform="translate(138.05 391.51) rotate(-76.63)"/><circle class="cls-15" cx="316.77" cy="108.4" r="10.56"/><circle class="cls-16" cx="316.77" cy="108.4" r="10.1"/><circle class="cls-15" cx="316.77" cy="108.4" r="8.85" transform="translate(-14.68 155.65) rotate(-27)"/><circle class="cls-14" cx="316.77" cy="108.4" r="8.19" transform="translate(-3.71 11.51) rotate(-2.07)"/><path class="cls-15" d="M320.64,105.75l.42-1.3-6.29-2-.41,1.29,2.63.85a3.51,3.51,0,0,1,.11,1.06l-3-1-.42,1.29,3.09,1c-.79,1.09-3.49.26-3.49.26l-.3.93,2.17,5.8,1.86.59-1.39-5.14a3.79,3.79,0,0,0,2.91-1.88l1.43.46.42-1.3-1.52-.48a3.49,3.49,0,0,0,0-1Z"/><path class="cls-16" d="M321.15,105.53l.41-1.29-6.28-2-.42,1.3,2.64.84a3.62,3.62,0,0,1,.11,1.07l-3-1-.42,1.3,3.09,1c-.79,1.09-3.49.27-3.49.27l-.3.93,2.16,5.79,1.87.6-1.39-5.14A3.78,3.78,0,0,0,319,107.3l1.43.46.42-1.29-1.52-.49a3.5,3.5,0,0,0,0-1Z"/><path class="cls-17" d="M323.07,107.76a.64.64,0,0,0,.57-.25,1.42,1.42,0,0,0,.23-.6,3.47,3.47,0,0,0-.79-2.91.65.65,0,0,0-.51-.28.48.48,0,0,0-.36.33,1.2,1.2,0,0,0,0,.5,15.3,15.3,0,0,0,.29,2.33C322.53,107.26,322.69,107.7,323.07,107.76Z"/><path class="cls-17" d="M324.27,109.15a1.06,1.06,0,0,0-.1-.63.6.6,0,0,0-.53-.33.61.61,0,0,0-.48.33,1.35,1.35,0,0,0-.14.59.83.83,0,0,0,.36.85.58.58,0,0,0,.64-.17A1,1,0,0,0,324.27,109.15Z"/><path class="cls-18" d="M342.21,78.8,319.75,89.59l-5.1,14.47,2.48,16.12,2.11,9.94s21.12,6.3,53,.34c7.66-1.44,2.89-12.6,2.89-12.6l5.62-11.07.89-18.28-13-7.61-21.29-1.7Z"/><circle class="cls-14" cx="347.25" cy="87.11" r="11.69"/><circle class="cls-15" cx="347.25" cy="87.11" r="10.56" transform="matrix(0.99, -0.14, 0.14, 0.99, -8.81, 49.76)"/><circle class="cls-16" cx="347.25" cy="87.11" r="10.1" transform="translate(244.96 430.2) rotate(-87.48)"/><circle class="cls-15" cx="347.25" cy="87.11" r="8.85" transform="translate(0.55 176.39) rotate(-28.52)"/><circle class="cls-12" cx="347.25" cy="87.11" r="8.19" transform="translate(126.4 368.89) rotate(-65.99)"/><path class="cls-15" d="M349.62,83.06l-.18-1.35-6.55.87.18,1.35,2.74-.37a3.32,3.32,0,0,1,.56.92l-3.17.42.18,1.35,3.22-.43c-.25,1.33-3,1.74-3,1.74l.13,1,4.44,4.3,1.94-.25-3.46-4a3.79,3.79,0,0,0,1.82-3l1.49-.2L349.74,84l-1.57.21a3.81,3.81,0,0,0-.47-.93Z"/><path class="cls-16" d="M350,82.64l-.18-1.35-6.54.88.18,1.35,2.74-.37a3.68,3.68,0,0,1,.56.91l-3.17.43.18,1.35,3.22-.43c-.25,1.32-3.05,1.74-3.05,1.74l.13,1,4.44,4.3,1.94-.26-3.46-4a3.76,3.76,0,0,0,1.83-2.94l1.49-.2-.18-1.35-1.58.21a3.49,3.49,0,0,0-.46-.93Z"/><path class="cls-17" d="M352.68,83.83a.64.64,0,0,0,.4-.47,1.54,1.54,0,0,0,0-.64,3.56,3.56,0,0,0-2-2.29.65.65,0,0,0-.59,0,.47.47,0,0,0-.18.45,1.16,1.16,0,0,0,.17.47,17,17,0,0,0,1.26,2C352,83.61,352.31,84,352.68,83.83Z"/><path class="cls-17" d="M354.36,84.58a1.11,1.11,0,0,0-.37-.53.57.57,0,0,0-.61-.07.62.62,0,0,0-.3.5,1.38,1.38,0,0,0,.13.6c.12.3.36.62.69.61a.59.59,0,0,0,.5-.42A1.16,1.16,0,0,0,354.36,84.58Z"/><circle class="cls-14" cx="375.52" cy="92.73" r="11.69"/><circle class="cls-15" cx="375.52" cy="92.73" r="10.56"/><circle class="cls-16" cx="375.52" cy="92.73" r="10.1" transform="translate(187.35 430.67) rotate(-74.76)"/><circle class="cls-15" cx="375.52" cy="92.73" r="8.85"/><circle class="cls-14" cx="375.52" cy="92.73" r="8.19" transform="translate(-10.9 109.83) rotate(-16.41)"/><path class="cls-15" d="M377.13,88.32l-.42-1.3-6.28,2,.41,1.29,2.63-.84a3,3,0,0,1,.71.8l-3,1,.42,1.29,3.09-1c0,1.35-2.68,2.25-2.68,2.25l.3.93,5.13,3.45,1.87-.6-4.13-3.37A3.78,3.78,0,0,0,376.41,91l1.43-.46-.41-1.3-1.52.49a4.06,4.06,0,0,0-.63-.83Z"/><path class="cls-16" d="M377.41,87.85l-.41-1.3-6.29,2,.42,1.3,2.63-.85a3.39,3.39,0,0,1,.71.8l-3,1,.42,1.3,3.09-1c0,1.34-2.69,2.25-2.69,2.25l.3.93,5.14,3.44,1.86-.6-4.12-3.36a3.78,3.78,0,0,0,1.26-3.23l1.44-.46-.42-1.3-1.51.49a3.8,3.8,0,0,0-.63-.83Z"/><path class="cls-17" d="M380.27,88.54a.62.62,0,0,0,.31-.54,1.38,1.38,0,0,0-.15-.62,3.48,3.48,0,0,0-2.33-1.9.64.64,0,0,0-.59.07.47.47,0,0,0-.1.47,1.22,1.22,0,0,0,.26.44,16.2,16.2,0,0,0,1.59,1.72C379.54,88.44,379.93,88.71,380.27,88.54Z"/><path class="cls-17" d="M382.06,89a1.11,1.11,0,0,0-.45-.46.6.6,0,0,0-.62,0,.61.61,0,0,0-.2.55,1.31,1.31,0,0,0,.23.56c.18.27.47.55.79.48a.61.61,0,0,0,.42-.51A1.09,1.09,0,0,0,382.06,89Z"/><circle class="cls-14" cx="316.25" cy="93.75" r="11.69" transform="translate(151.89 379.74) rotate(-76.63)"/><circle class="cls-15" cx="316.25" cy="93.75" r="10.56"/><circle class="cls-16" cx="316.25" cy="93.75" r="10.1"/><circle class="cls-15" cx="316.25" cy="93.75" r="8.85" transform="translate(-8.09 153.82) rotate(-27)"/><circle class="cls-12" cx="316.25" cy="93.75" r="8.19" transform="translate(-3.18 11.49) rotate(-2.07)"/><path class="cls-15" d="M320.13,91.1l.41-1.29-6.28-2-.42,1.3,2.64.84a3.62,3.62,0,0,1,.11,1.07l-3-1-.42,1.3,3.09,1c-.79,1.09-3.49.27-3.49.27l-.3.93,2.16,5.79,1.87.6-1.39-5.14A3.78,3.78,0,0,0,318,92.87l1.43.46.42-1.29-1.52-.49a3.5,3.5,0,0,0,0-1Z"/><path class="cls-16" d="M320.64,90.89l.41-1.3-6.28-2-.42,1.29,2.64.85a3.51,3.51,0,0,1,.11,1.06l-3.05-1-.41,1.29,3.09,1c-.79,1.1-3.49.27-3.49.27l-.3.93,2.16,5.79,1.87.6-1.39-5.14a3.76,3.76,0,0,0,2.9-1.88l1.44.46.42-1.3-1.52-.49a3.43,3.43,0,0,0,0-1Z"/><path class="cls-17" d="M322.56,93.12a.65.65,0,0,0,.57-.26,1.37,1.37,0,0,0,.23-.6,3.44,3.44,0,0,0-.79-2.9.62.62,0,0,0-.51-.28.47.47,0,0,0-.36.32,1.25,1.25,0,0,0,0,.51,16.33,16.33,0,0,0,.28,2.32C322,92.61,322.18,93.06,322.56,93.12Z"/><path class="cls-17" d="M323.76,94.51a1.16,1.16,0,0,0-.1-.64.55.55,0,0,0-1,0,1.28,1.28,0,0,0-.14.59.82.82,0,0,0,.36.84.58.58,0,0,0,.64-.16A1.06,1.06,0,0,0,323.76,94.51Z"/><circle class="cls-14" cx="320.58" cy="118.79" r="11.69"/><circle class="cls-15" cx="320.58" cy="118.79" r="10.56" transform="translate(-18.5 162.47) rotate(-27.67)"/><circle class="cls-16" cx="320.58" cy="118.79" r="10.1" transform="translate(36.18 308.54) rotate(-54.04)"/><circle class="cls-15" cx="320.58" cy="118.79" r="8.85" transform="translate(117.29 393.67) rotate(-73.85)"/><circle class="cls-14" cx="320.58" cy="118.79" r="8.19" transform="translate(-1.23 234.21) rotate(-40.06)"/><path class="cls-15" d="M321.81,114.27l-.52-1.26-6.09,2.54.52,1.25,2.55-1.06a3.72,3.72,0,0,1,.78.74l-2.95,1.23.52,1.26,3-1.25c.1,1.34-2.49,2.46-2.49,2.46l.37.91,5.41,3,1.81-.75-4.4-3a3.76,3.76,0,0,0,1-3.32l1.39-.58-.52-1.26-1.47.61A4.19,4.19,0,0,0,320,115Z"/><path class="cls-16" d="M322.06,113.77l-.52-1.26-6.1,2.54.53,1.26,2.55-1.06a3.07,3.07,0,0,1,.77.74l-3,1.22.53,1.26,3-1.25c.1,1.35-2.49,2.47-2.49,2.47l.37.9,5.41,3,1.8-.75-4.39-3a3.75,3.75,0,0,0,1-3.32l1.39-.58-.52-1.25-1.47.61a3.38,3.38,0,0,0-.7-.77Z"/><path class="cls-17" d="M325,114.22a.62.62,0,0,0,.26-.56,1.51,1.51,0,0,0-.2-.61,3.51,3.51,0,0,0-2.49-1.7.63.63,0,0,0-.57.12.44.44,0,0,0-.06.48,1.32,1.32,0,0,0,.29.42,17.34,17.34,0,0,0,1.73,1.58C324.23,114.19,324.64,114.42,325,114.22Z"/><path class="cls-17" d="M326.78,114.51a1,1,0,0,0-.48-.42.55.55,0,0,0-.77.65,1.38,1.38,0,0,0,.27.54.85.85,0,0,0,.83.42.62.62,0,0,0,.38-.54A1,1,0,0,0,326.78,114.51Z"/><circle class="cls-14" cx="333.52" cy="104.36" r="11.69"/><circle class="cls-15" cx="333.52" cy="104.36" r="10.56" transform="translate(-3.14 10.64) rotate(-1.82)"/><circle class="cls-16" cx="333.52" cy="104.36" r="10.1" transform="translate(68.19 331.79) rotate(-57.98)"/><circle class="cls-15" cx="333.52" cy="104.36" r="8.85" transform="translate(-14.68 134.03) rotate(-22.25)"/><circle class="cls-12" cx="333.52" cy="104.36" r="8.19" transform="translate(69.62 333.45) rotate(-58.34)"/><path class="cls-15" d="M335.5,100.1l-.31-1.32-6.43,1.48.31,1.33,2.69-.62a3.29,3.29,0,0,1,.64.85l-3.11.72.3,1.33,3.17-.73c-.13,1.34-2.87,2-2.87,2l.22,1,4.83,3.87,1.9-.44L333,105.83a3.75,3.75,0,0,0,1.53-3.11l1.47-.33-.3-1.33-1.55.36a3.43,3.43,0,0,0-.56-.88Z"/><path class="cls-16" d="M335.82,99.66l-.3-1.33-6.43,1.48.3,1.33,2.7-.62a3.61,3.61,0,0,1,.64.86l-3.12.72.31,1.32,3.17-.73c-.13,1.35-2.87,2-2.87,2l.22,1,4.82,3.87,1.91-.44-3.83-3.7a3.77,3.77,0,0,0,1.54-3.11l1.47-.34-.31-1.33-1.55.36a3.62,3.62,0,0,0-.55-.88Z"/><path class="cls-17" d="M338.62,100.59a.64.64,0,0,0,.35-.51,1.37,1.37,0,0,0-.1-.63,3.49,3.49,0,0,0-2.16-2.1.64.64,0,0,0-.59,0,.44.44,0,0,0-.14.46,1.11,1.11,0,0,0,.22.45,16,16,0,0,0,1.44,1.86C337.89,100.43,338.26,100.73,338.62,100.59Z"/><path class="cls-17" d="M340.36,101.17a1,1,0,0,0-.41-.49.6.6,0,0,0-.62,0,.65.65,0,0,0-.25.54,1.56,1.56,0,0,0,.18.58c.16.28.42.58.75.54a.59.59,0,0,0,.46-.47A1.07,1.07,0,0,0,340.36,101.17Z"/><circle class="cls-14" cx="347.72" cy="121.49" r="11.69" transform="translate(112.09 404.6) rotate(-69.49)"/><circle class="cls-15" cx="347.72" cy="121.49" r="10.56" transform="translate(-15.82 62.27) rotate(-10.01)"/><circle class="cls-16" cx="347.72" cy="121.49" r="10.1" transform="translate(199.28 458.59) rotate(-85.49)"/><circle class="cls-15" cx="347.72" cy="121.49" r="8.85" transform="translate(132.33 420.29) rotate(-73.47)"/><circle class="cls-12" cx="347.72" cy="121.49" r="8.19" transform="translate(155.03 435.4) rotate(-77.72)"/><path class="cls-15" d="M350.88,118l.11-1.36-6.58-.52-.11,1.36,2.76.22a3.46,3.46,0,0,1,.35,1l-3.18-.26-.11,1.36,3.24.26c-.53,1.24-3.35,1.06-3.35,1.06l-.07,1,3.43,5.14,2,.16-2.54-4.69a3.74,3.74,0,0,0,2.4-2.5l1.51.12.1-1.36-1.58-.12a3.83,3.83,0,0,0-.27-1Z"/><path class="cls-16" d="M351.33,117.7l.1-1.36-6.57-.52-.11,1.36,2.75.22a3.54,3.54,0,0,1,.36,1l-3.19-.25-.11,1.36,3.24.25c-.52,1.25-3.34,1.06-3.34,1.06l-.08,1,3.44,5.14,1.95.15-2.53-4.68a3.78,3.78,0,0,0,2.4-2.5l1.5.12.11-1.36-1.59-.13a3.6,3.6,0,0,0-.26-1Z"/><path class="cls-17" d="M353.71,119.43a.62.62,0,0,0,.49-.38,1.54,1.54,0,0,0,.1-.64,3.49,3.49,0,0,0-1.44-2.64.65.65,0,0,0-.57-.16.47.47,0,0,0-.27.4,1.41,1.41,0,0,0,.07.5,15.72,15.72,0,0,0,.82,2.2C353.07,119.06,353.33,119.46,353.71,119.43Z"/><path class="cls-17" d="M355.2,120.51a1.11,1.11,0,0,0-.25-.6.58.58,0,0,0-.58-.19.6.6,0,0,0-.4.43,1.35,1.35,0,0,0,0,.6c.06.33.22.69.54.75a.61.61,0,0,0,.59-.31A1.13,1.13,0,0,0,355.2,120.51Z"/><circle class="cls-14" cx="371.22" cy="120.3" r="11.69" transform="translate(49.06 340.5) rotate(-52.31)"/><circle class="cls-15" cx="371.22" cy="120.3" r="10.56" transform="translate(47.37 338.01) rotate(-51.87)"/><circle class="cls-16" cx="371.22" cy="120.3" r="10.1" transform="translate(44.8 334.13) rotate(-51.18)"/><circle class="cls-15" cx="371.22" cy="120.3" r="8.85" transform="translate(-10.06 37.2) rotate(-5.66)"/><circle class="cls-12" cx="371.22" cy="120.3" r="8.19" transform="translate(-18.69 135.92) rotate(-20.25)"/><path class="cls-15" d="M372,115.68l-.63-1.2-5.84,3.07.63,1.21,2.45-1.29a3.62,3.62,0,0,1,.84.66l-2.83,1.49.63,1.21,2.88-1.51c.22,1.33-2.26,2.68-2.26,2.68l.45.86,5.66,2.51,1.73-.91-4.65-2.61a3.76,3.76,0,0,0,.7-3.39l1.33-.71-.63-1.2-1.41.74a4,4,0,0,0-.76-.71Z"/><path class="cls-16" d="M372.24,115.17l-.63-1.21L365.77,117l.64,1.2,2.44-1.29a3.49,3.49,0,0,1,.84.67l-2.83,1.49.64,1.2,2.87-1.51c.22,1.33-2.26,2.68-2.26,2.68l.46.87,5.65,2.51L376,124l-4.64-2.61a3.77,3.77,0,0,0,.69-3.4l1.34-.7L372.7,116l-1.41.75a3.46,3.46,0,0,0-.76-.71Z"/><path class="cls-17" d="M375.18,115.35a.6.6,0,0,0,.21-.58,1.26,1.26,0,0,0-.25-.58,3.5,3.5,0,0,0-2.63-1.48.63.63,0,0,0-.56.18.44.44,0,0,0,0,.48,1.19,1.19,0,0,0,.33.38,16.11,16.11,0,0,0,1.86,1.43C374.44,115.39,374.88,115.59,375.18,115.35Z"/><path class="cls-17" d="M377,115.47a1.16,1.16,0,0,0-.53-.37.55.55,0,0,0-.7.72,1.23,1.23,0,0,0,.32.52.82.82,0,0,0,.86.33.58.58,0,0,0,.33-.57A1.1,1.1,0,0,0,377,115.47Z"/><circle class="cls-14" cx="365.45" cy="102.09" r="11.69" transform="translate(113.44 385.77) rotate(-63.99)"/><circle class="cls-15" cx="365.45" cy="102.09" r="10.56"/><circle class="cls-16" cx="365.45" cy="102.09" r="10.1" transform="translate(-8.73 39.09) rotate(-6.05)"/><circle class="cls-15" cx="365.45" cy="102.09" r="8.85" transform="matrix(0.85, -0.53, 0.53, 0.85, 0.88, 207.28)"/><circle class="cls-12" cx="365.45" cy="102.09" r="8.19"/><path class="cls-15" d="M369,99l.26-1.33-6.47-1.27-.27,1.33,2.72.54a3.5,3.5,0,0,1,.23,1l-3.13-.62-.27,1.34,3.19.63c-.66,1.17-3.44.67-3.44.67l-.19,1,2.82,5.5,1.93.37-2-4.94a3.77,3.77,0,0,0,2.67-2.21l1.48.29.26-1.33-1.56-.31a4,4,0,0,0-.15-1Z"/><path class="cls-16" d="M369.47,98.74l.26-1.34-6.47-1.27L363,97.47l2.72.53a3.66,3.66,0,0,1,.23,1l-3.13-.62-.27,1.34,3.19.62c-.66,1.18-3.44.67-3.44.67l-.19,1,2.82,5.5,1.93.38-2-4.94a3.77,3.77,0,0,0,2.67-2.21L369,101l.26-1.34-1.56-.31a3.94,3.94,0,0,0-.15-1Z"/><path class="cls-17" d="M371.64,100.73a.6.6,0,0,0,.53-.32,1.43,1.43,0,0,0,.17-.62A3.48,3.48,0,0,0,371.22,97a.65.65,0,0,0-.55-.22.47.47,0,0,0-.32.36,1.25,1.25,0,0,0,0,.51,16.45,16.45,0,0,0,.55,2.28C371,100.29,371.26,100.72,371.64,100.73Z"/><path class="cls-17" d="M373,102a1.14,1.14,0,0,0-.17-.62.63.63,0,0,0-.56-.26.6.6,0,0,0-.44.39,1.33,1.33,0,0,0-.08.6c0,.32.15.7.46.8a.57.57,0,0,0,.61-.24A1,1,0,0,0,373,102Z"/><rect class="cls-14" x="322.84" y="116.5" width="23.37" height="5.09" rx="1.05" transform="translate(131.84 410.59) rotate(-74.78)"/><path class="cls-15" d="M335.41,121.52l-2.89-.79a1.05,1.05,0,0,1-.74-1.29l-2.5,9.2a1.05,1.05,0,0,0,.73,1.29l2.9.79a1,1,0,0,0,1.28-.74l2.51-9.2A1.06,1.06,0,0,1,335.41,121.52Z"/><path class="cls-16" d="M334.33,125.48l-2.89-.79a1,1,0,0,1-.74-1.28l-1.42,5.23a1.05,1.05,0,0,0,.73,1.29l2.9.79a1,1,0,0,0,1.28-.74l1.43-5.24A1.05,1.05,0,0,1,334.33,125.48Z"/><path class="cls-17" d="M333.92,111.58c1.64.44,3.28.87,4.94,1.26l.19-.71c-1.62-.5-3.26-1-4.9-1.41Z"/><rect class="cls-17" x="334.99" y="111.65" width="1.7" height="5.09" transform="translate(137.49 408.29) rotate(-74.78)"/><rect class="cls-14" x="302.58" y="103.39" width="23.37" height="5.09" rx="1.05" transform="translate(193.79 414.91) rotate(-87.33)"/><path class="cls-15" d="M315.66,108.15l-3-.14a1,1,0,0,1-1-1.1l-.45,9.53a1.05,1.05,0,0,0,1,1.1l3,.14a1.06,1.06,0,0,0,1.1-1l.44-9.53A1,1,0,0,1,315.66,108.15Z"/><path class="cls-16" d="M315.47,112.26l-3-.14a1.06,1.06,0,0,1-1-1.1l-.25,5.42a1.05,1.05,0,0,0,1,1.1l3,.14a1.06,1.06,0,0,0,1.1-1l.25-5.42A1,1,0,0,1,315.47,112.26Z"/><path class="cls-17" d="M312.05,98.77c1.69.08,3.39.14,5.09.17l0-.74c-1.69-.13-3.39-.23-5.08-.31Z"/><rect class="cls-17" x="313.64" y="98.37" width="1.7" height="5.09" transform="translate(199.02 410.36) rotate(-87.33)"/><rect class="cls-14" x="321.11" y="88.23" width="23.37" height="5.09" rx="1.05" transform="translate(-11.26 115.61) rotate(-19.39)"/><path class="cls-15" d="M331.26,92.9l-1-2.83a1,1,0,0,1,.64-1.33l-9,3.16a1.05,1.05,0,0,0-.65,1.34l1,2.83a1.06,1.06,0,0,0,1.34.64l9-3.17A1,1,0,0,1,331.26,92.9Z"/><path class="cls-16" d="M327.39,94.27l-1-2.83A1.05,1.05,0,0,1,327,90.1l-5.12,1.8a1.05,1.05,0,0,0-.65,1.34l1,2.83a1.06,1.06,0,0,0,1.34.64l5.12-1.8A1.06,1.06,0,0,1,327.39,94.27Z"/><path class="cls-17" d="M338.6,86c.56,1.6,1.15,3.2,1.76,4.78l.7-.24q-.78-2.43-1.63-4.83Z"/><rect class="cls-17" x="336.68" y="86.56" width="1.7" height="5.09" transform="matrix(0.94, -0.33, 0.33, 0.94, -10.44, 117.08)"/><rect class="cls-14" x="353.27" y="99.7" width="5.09" height="23.37" rx="1.05" transform="translate(-1.33 218.42) rotate(-34.07)"/><path class="cls-15" d="M358.26,112.33,355.78,114a1,1,0,0,1-1.46-.28l5.34,7.9a1,1,0,0,0,1.46.28l2.48-1.67a1,1,0,0,0,.28-1.46l-5.34-7.9A1,1,0,0,1,358.26,112.33Z"/><path class="cls-16" d="M360.56,115.73l-2.48,1.68a1.06,1.06,0,0,1-1.46-.28l3,4.49a1,1,0,0,0,1.46.28l2.48-1.67a1,1,0,0,0,.28-1.46l-3-4.5A1,1,0,0,1,360.56,115.73Z"/><path class="cls-17" d="M349.76,107c1.4-1,2.8-1.92,4.17-2.91l-.41-.61c-1.43.9-2.85,1.84-4.26,2.79Z"/><rect class="cls-17" x="350.45" y="106.37" width="5.09" height="1.7" transform="translate(0.52 216.13) rotate(-34.07)"/><rect class="cls-14" x="368.65" y="103.05" width="23.37" height="5.09" rx="1.05" transform="translate(179.9 445.64) rotate(-75)"/><path class="cls-15" d="M381.23,108.06l-2.9-.78a1.05,1.05,0,0,1-.74-1.28l-2.47,9.21a1,1,0,0,0,.75,1.28l2.89.78a1.05,1.05,0,0,0,1.29-.74l2.46-9.21A1,1,0,0,1,381.23,108.06Z"/><path class="cls-16" d="M380.17,112l-2.9-.78a1,1,0,0,1-.74-1.28l-1.41,5.24a1,1,0,0,0,.75,1.28l2.89.78a1.05,1.05,0,0,0,1.29-.74l1.4-5.25A1,1,0,0,1,380.17,112Z"/><path class="cls-17" d="M379.7,98.13c1.64.44,3.29.86,4.94,1.24l.19-.71c-1.62-.49-3.26-1-4.9-1.39Z"/><rect class="cls-17" x="380.79" y="98.2" width="1.7" height="5.09" transform="translate(185.55 443.3) rotate(-75)"/><rect class="cls-14" x="360.08" y="76.2" width="5.09" height="23.37" rx="1.05" transform="translate(130.82 380.27) rotate(-65.22)"/><path class="cls-15" d="M365.21,87.42,364,90.14a1,1,0,0,1-1.39.52l8.66,4a1.05,1.05,0,0,0,1.39-.52l1.25-2.72a1,1,0,0,0-.51-1.39l-8.66-4A1,1,0,0,1,365.21,87.42Z"/><path class="cls-16" d="M368.94,89.15l-1.26,2.72a1.05,1.05,0,0,1-1.39.51l4.93,2.28a1.05,1.05,0,0,0,1.39-.52l1.25-2.72a1,1,0,0,0-.51-1.39l-4.93-2.28A1.06,1.06,0,0,1,368.94,89.15Z"/><path class="cls-17" d="M355.16,87.24q1.06-2.31,2.07-4.66l-.67-.3c-.76,1.51-1.49,3-2.21,4.59Z"/><rect class="cls-17" x="355.52" y="84.93" width="5.09" height="1.7" transform="translate(130.08 374.9) rotate(-65.21)"/><rect class="cls-14" x="362.97" y="70.58" width="5.09" height="23.37" rx="1.05" transform="matrix(0.17, -0.98, 0.98, 0.17, 221.31, 428.06)"/><path class="cls-15" d="M367.9,81.16l-.52,3a1.05,1.05,0,0,1-1.22.85l9.4,1.65a1,1,0,0,0,1.21-.85l.52-3a1.05,1.05,0,0,0-.85-1.22L367.05,80A1,1,0,0,1,367.9,81.16Z"/><path class="cls-16" d="M371.94,81.87l-.51,2.95a1.05,1.05,0,0,1-1.22.85l5.35.94a1,1,0,0,0,1.21-.85l.52-3a1.05,1.05,0,0,0-.85-1.22l-5.35-.93A1,1,0,0,1,371.94,81.87Z"/><path class="cls-17" d="M358.14,83.55c.29-1.67.56-3.35.81-5l-.73-.12c-.35,1.66-.66,3.33-1,5Z"/><rect class="cls-17" x="358.03" y="80.54" width="5.09" height="1.7" transform="translate(218.07 422.47) rotate(-80.05)"/><rect class="cls-14" x="319.44" y="80.23" width="23.37" height="5.09" rx="1.05" transform="translate(-1.43 159.62) rotate(-27.05)"/><path class="cls-15" d="M329.89,85.09l-1.36-2.67A1,1,0,0,1,329,81l-8.49,4.33a1.05,1.05,0,0,0-.46,1.41l1.37,2.67a1,1,0,0,0,1.41.46l8.49-4.34A1,1,0,0,1,329.89,85.09Z"/><path class="cls-16" d="M326.23,87l-1.36-2.66a1.06,1.06,0,0,1,.45-1.42l-4.83,2.47a1.05,1.05,0,0,0-.46,1.41l1.37,2.67a1,1,0,0,0,1.41.46l4.83-2.47A1,1,0,0,1,326.23,87Z"/><path class="cls-17" d="M336.24,77.3c.77,1.51,1.57,3,2.38,4.5l.66-.33c-.72-1.54-1.48-3.06-2.25-4.57Z"/><rect class="cls-17" x="334.74" y="77.94" width="1.7" height="5.09" transform="translate(0.1 161.4) rotate(-27.05)"/><rect class="cls-14" x="346.1" y="83.79" width="5.09" height="23.37" rx="1.05" transform="translate(177.62 413.95) rotate(-77.08)"/><path class="cls-15" d="M351.08,94.5l-.67,2.92a1,1,0,0,1-1.26.79l9.3,2.13a1,1,0,0,0,1.25-.79l.67-2.92a1,1,0,0,0-.78-1.25l-9.3-2.14A1.05,1.05,0,0,1,351.08,94.5Z"/><path class="cls-16" d="M355.08,95.42l-.67,2.92a1,1,0,0,1-1.25.79l5.29,1.21a1,1,0,0,0,1.25-.79l.67-2.92a1,1,0,0,0-.78-1.25l-5.29-1.22A1,1,0,0,1,355.08,95.42Z"/><path class="cls-17" d="M341.21,96.39q.57-2.49,1.07-5l-.72-.16q-.66,2.46-1.21,5Z"/><rect class="cls-17" x="341.21" y="93.5" width="5.09" height="1.7" transform="translate(174.91 408.3) rotate(-77.08)"/><path class="cls-13" d="M348.12,60.05a4.08,4.08,0,0,1-3-.85c-1.24-1.26-.49-3.39.43-4.91A42,42,0,0,1,372.58,35c1.92,6.49-.78,13.8-5.77,18.37S354.88,60,348.12,60.05Z"/><path class="cls-19" d="M369.7,39.58a.28.28,0,0,0-.4-.4l-4.07,3.38s0-.09,0-.14a11.05,11.05,0,0,0,0-1.52.37.37,0,0,0-.68-.08,3.1,3.1,0,0,0,0,2.33c-2,1.61-3.93,3.21-5.95,4.75a11.66,11.66,0,0,1,.34-1.29,24.06,24.06,0,0,1,1.14-2.27.43.43,0,0,0-.67-.51,6.42,6.42,0,0,0-1.76,4.79q-2.52,1.86-5.1,3.65c-.36.25-.74.49-1.12.73a11.34,11.34,0,0,0,1-2.85.46.46,0,0,0-.84-.36,15.6,15.6,0,0,0-1.66,4.14,14.34,14.34,0,0,0-3,2.27.66.66,0,0,0,.63,1.09c2-.65,3.9-2.25,5.64-3.49a11.62,11.62,0,0,0,4.33.72.44.44,0,0,0,.11-.86,16.91,16.91,0,0,0-2.58-.4c-.3,0-.59-.1-.88-.16,1.6-1.15,3.18-2.35,4.72-3.58l1.54-1.24c.67.16,1.34.27,2,.39a6.82,6.82,0,0,0,1.9.23.36.36,0,0,0,.09-.7,6.57,6.57,0,0,0-1.88-.33l-1.44-.16c2-1.65,3.93-3.38,5.78-5.19h0a6.29,6.29,0,0,0,2.48.08.34.34,0,0,0,0-.65,4.48,4.48,0,0,0-2,0C368.19,41.19,369,40.39,369.7,39.58Z"/><path class="cls-20" d="M371.25,37.14a.78.78,0,0,1-.39.41,30.55,30.55,0,0,1-4.66,2.3,2,2,0,0,1-.89.18.68.68,0,0,1-.61-.58c0-.31.28-.54.53-.71a14.7,14.7,0,0,1,4.91-2.12,1.3,1.3,0,0,1,.73,0A.5.5,0,0,1,371.25,37.14Z"/><path class="cls-20" d="M363.19,39.88c-.37-.11-.93,0-.94.48a.31.31,0,0,0,.23.29c.27.1.54-.13.78-.23S363.41,40,363.19,39.88Z"/><path class="cls-20" d="M366.9,49.14a13,13,0,0,0-2.3,2.27c-.88.85-2,1.5-2.79,2.39-.21.22-.08.71.28.67A7.41,7.41,0,0,0,365.37,53c1-.71,2.29-1.76,2.57-3A.71.71,0,0,0,366.9,49.14Z"/><path class="cls-20" d="M368.93,47a2.22,2.22,0,0,0-.49.38c-.36.37.21.94.57.57a1.8,1.8,0,0,0,.38-.49A.34.34,0,0,0,368.93,47Z"/><path class="cls-13" d="M341.87,52.67a4,4,0,0,0,3-.85c1.25-1.26.49-3.39-.42-4.91A42,42,0,0,0,317.4,27.65c-1.91,6.49.78,13.8,5.78,18.36S335.1,52.61,341.87,52.67Z"/><path class="cls-19" d="M320.28,32.19a.28.28,0,0,1,.4-.39l4.07,3.38a.61.61,0,0,0,0-.14,12.9,12.9,0,0,1,0-1.52.38.38,0,0,1,.69-.09,3.18,3.18,0,0,1,0,2.34c2,1.61,3.92,3.21,5.94,4.75a9.81,9.81,0,0,0-.34-1.29A21.88,21.88,0,0,0,329.92,37a.43.43,0,0,1,.67-.51,6.38,6.38,0,0,1,1.77,4.78c1.67,1.25,3.38,2.47,5.09,3.66.36.25.74.49,1.13.73a11.79,11.79,0,0,1-1-2.85.46.46,0,0,1,.84-.36,15.29,15.29,0,0,1,1.67,4.14,14.53,14.53,0,0,1,3,2.27.66.66,0,0,1-.63,1.09c-2-.65-3.89-2.25-5.63-3.49a11.69,11.69,0,0,1-4.33.72.44.44,0,0,1-.12-.86,17.23,17.23,0,0,1,2.59-.4c.29,0,.59-.1.88-.16-1.61-1.15-3.18-2.35-4.73-3.58l-1.54-1.24c-.66.16-1.34.27-2,.39a6.75,6.75,0,0,1-1.89.23.36.36,0,0,1-.1-.7,6.69,6.69,0,0,1,1.88-.33l1.44-.16c-2-1.65-3.93-3.38-5.78-5.19h0a6.16,6.16,0,0,1-2.49.09.34.34,0,0,1,0-.65,4.52,4.52,0,0,1,2,0C321.8,33.81,321,33,320.28,32.19Z"/><path class="cls-20" d="M318.74,29.76c0,.19.22.31.39.41a29.66,29.66,0,0,0,4.66,2.3,1.93,1.93,0,0,0,.88.18.66.66,0,0,0,.61-.58c0-.31-.27-.54-.53-.71a14.7,14.7,0,0,0-4.91-2.12,1.3,1.3,0,0,0-.73,0A.5.5,0,0,0,318.74,29.76Z"/><path class="cls-20" d="M326.8,32.5c.36-.11.93,0,.94.48a.31.31,0,0,1-.23.29c-.28.1-.54-.13-.78-.23S326.58,32.57,326.8,32.5Z"/><path class="cls-20" d="M323.09,41.76a13,13,0,0,1,2.3,2.27c.88.85,1.95,1.5,2.78,2.38.22.23.09.72-.28.68a7.37,7.37,0,0,1-3.27-1.51,5.94,5.94,0,0,1-2.58-3A.72.72,0,0,1,323.09,41.76Z"/><path class="cls-20" d="M321.06,39.59a2,2,0,0,1,.48.38c.37.36-.2.93-.57.57a2.29,2.29,0,0,1-.38-.49A.34.34,0,0,1,321.06,39.59Z"/><path class="cls-13" d="M347.61,37.55a2.86,2.86,0,0,1-2.14-.6c-.87-.89-.34-2.38.3-3.45A29.53,29.53,0,0,1,364.8,20c1.35,4.56-.55,9.7-4.06,12.91A19.67,19.67,0,0,1,347.61,37.55Z"/><path class="cls-19" d="M362.78,23.16a.2.2,0,0,0-.28-.28l-2.86,2.38a.38.38,0,0,1,0-.1,9.6,9.6,0,0,0,0-1.07c0-.23-.37-.24-.48-.06a2.2,2.2,0,0,0,0,1.64c-1.37,1.13-2.76,2.26-4.18,3.34a7.17,7.17,0,0,1,.24-.91,15.76,15.76,0,0,1,.8-1.59.3.3,0,0,0-.47-.36,4.49,4.49,0,0,0-1.24,3.36c-1.18.88-2.37,1.73-3.58,2.57l-.79.51a7.79,7.79,0,0,0,.69-2,.32.32,0,0,0-.59-.25,11,11,0,0,0-1.17,2.91,9.91,9.91,0,0,0-2.1,1.59.46.46,0,0,0,.44.77,15.87,15.87,0,0,0,4-2.46,8,8,0,0,0,3,.51.31.31,0,0,0,.09-.6,11.28,11.28,0,0,0-1.82-.28l-.62-.12c1.13-.81,2.23-1.65,3.32-2.51l1.08-.88c.47.12.94.2,1.42.28a4.57,4.57,0,0,0,1.33.16.25.25,0,0,0,.06-.49,4.87,4.87,0,0,0-1.32-.23l-1-.11c1.4-1.17,2.76-2.38,4.06-3.65h0a4.31,4.31,0,0,0,1.75.06.24.24,0,0,0,0-.46,3.27,3.27,0,0,0-1.39,0C361.71,24.29,362.25,23.73,362.78,23.16Z"/><path class="cls-20" d="M363.86,21.45a.51.51,0,0,1-.27.29,20.77,20.77,0,0,1-3.28,1.61,1.23,1.23,0,0,1-.62.12.45.45,0,0,1-.42-.4c0-.22.19-.38.37-.5a10.3,10.3,0,0,1,3.45-1.49,1,1,0,0,1,.51,0A.36.36,0,0,1,363.86,21.45Z"/><path class="cls-20" d="M358.2,23.37c-.26-.08-.66,0-.66.34a.24.24,0,0,0,.16.21c.19.06.38-.1.55-.17S358.35,23.42,358.2,23.37Z"/><path class="cls-20" d="M360.81,29.88a8.71,8.71,0,0,0-1.62,1.59c-.62.6-1.37,1.06-2,1.68-.15.16-.06.51.2.48a5.28,5.28,0,0,0,2.3-1.07,4.16,4.16,0,0,0,1.81-2.12A.5.5,0,0,0,360.81,29.88Z"/><path class="cls-20" d="M362.23,28.36a1.4,1.4,0,0,0-.34.26c-.26.26.15.66.4.4a1.44,1.44,0,0,0,.27-.34A.24.24,0,0,0,362.23,28.36Z"/><path class="cls-13" d="M346.87,18.88a1.69,1.69,0,0,1-1.31-.1c-.61-.42-.47-1.35-.22-2a17.52,17.52,0,0,1,9.5-10.08,7.73,7.73,0,0,1-.87,8A11.67,11.67,0,0,1,346.87,18.88Z"/><path class="cls-19" d="M354,8.76a.12.12,0,0,0-.2-.13l-1.39,1.71a.14.14,0,0,0,0-.06,4.48,4.48,0,0,0-.11-.62.15.15,0,0,0-.28,0,1.31,1.31,0,0,0,.17,1c-.67.82-1.34,1.63-2,2.42a5.09,5.09,0,0,1,0-.55,8.51,8.51,0,0,1,.28-1,.18.18,0,0,0-.31-.16,2.66,2.66,0,0,0-.34,2.1c-.58.65-1.18,1.28-1.78,1.91l-.41.39a4.55,4.55,0,0,0,.18-1.25.2.2,0,0,0-.38-.07,6.38,6.38,0,0,0-.34,1.82,6.38,6.38,0,0,0-1,1.18.27.27,0,0,0,.34.39,9.27,9.27,0,0,0,2-1.89,4.66,4.66,0,0,0,1.83-.05.18.18,0,0,0,0-.36,6.68,6.68,0,0,0-1.09.05h-.37c.56-.6,1.11-1.22,1.64-1.85l.53-.63h.85a3.05,3.05,0,0,0,.8-.06.15.15,0,0,0,0-.3,3.06,3.06,0,0,0-.8,0l-.6,0c.68-.83,1.33-1.7,1.94-2.59h0a2.53,2.53,0,0,0,1-.16.14.14,0,0,0,0-.27,2,2,0,0,0-.81.16C353.55,9.54,353.8,9.15,354,8.76Z"/><path class="cls-20" d="M354.47,7.64c0,.08-.07.14-.13.2a13,13,0,0,1-1.72,1.31.74.74,0,0,1-.34.15.29.29,0,0,1-.3-.19.41.41,0,0,1,.16-.33A6.18,6.18,0,0,1,354,7.51a.59.59,0,0,1,.29-.07C354.37,7.45,354.48,7.54,354.47,7.64Z"/><path class="cls-20" d="M351.4,9.41c-.16,0-.38.08-.35.27a.12.12,0,0,0,.12.1c.12,0,.21-.09.3-.16S351.49,9.42,351.4,9.41Z"/><path class="cls-20" d="M353.67,12.89a5.67,5.67,0,0,0-.76,1.12c-.29.42-.68.77-1,1.2-.07.11,0,.3.17.26a3.16,3.16,0,0,0,1.22-.89,2.47,2.47,0,0,0,.81-1.44A.3.3,0,0,0,353.67,12.89Z"/><path class="cls-20" d="M354.32,11.84a.82.82,0,0,0-.17.2.17.17,0,0,0,.28.18.94.94,0,0,0,.12-.22A.15.15,0,0,0,354.32,11.84Z"/><path class="cls-13" d="M342.8,32.36a2.86,2.86,0,0,0,2.13-.59c.87-.9.34-2.39-.3-3.46a29.49,29.49,0,0,0-19-13.53c-1.34,4.56.55,9.7,4.06,12.9A19.68,19.68,0,0,0,342.8,32.36Z"/><path class="cls-19" d="M327.63,18a.2.2,0,0,1,.28-.28l2.86,2.38a.34.34,0,0,1,0-.1,7.65,7.65,0,0,1,0-1.07.27.27,0,0,1,.48-.06,2.2,2.2,0,0,1,0,1.64c1.38,1.14,2.76,2.26,4.18,3.34a7.17,7.17,0,0,0-.24-.91,15.76,15.76,0,0,0-.8-1.59.3.3,0,0,1,.47-.36,4.49,4.49,0,0,1,1.24,3.36c1.18.88,2.38,1.73,3.58,2.57.25.18.52.35.79.51a8.48,8.48,0,0,1-.69-2,.32.32,0,0,1,.59-.25,10.82,10.82,0,0,1,1.17,2.91,10.28,10.28,0,0,1,2.11,1.6.46.46,0,0,1-.45.76,15.94,15.94,0,0,1-4-2.46,8,8,0,0,1-3,.52.31.31,0,0,1-.08-.61,12.1,12.1,0,0,1,1.82-.28l.62-.12c-1.13-.8-2.24-1.64-3.33-2.51l-1.08-.87c-.47.11-.94.19-1.41.28a5.5,5.5,0,0,1-1.33.16.26.26,0,0,1-.07-.5,4.87,4.87,0,0,1,1.32-.23l1-.11Q331.57,22,329.62,20h0a4.51,4.51,0,0,1-1.75.07.24.24,0,0,1,0-.46,3.21,3.21,0,0,1,1.38,0C328.69,19.11,328.15,18.55,327.63,18Z"/><path class="cls-20" d="M326.54,16.26a.54.54,0,0,0,.27.29,21.66,21.66,0,0,0,3.28,1.61,1.36,1.36,0,0,0,.62.13.46.46,0,0,0,.43-.41c0-.22-.19-.38-.37-.5a10.39,10.39,0,0,0-3.45-1.49,1,1,0,0,0-.51,0A.36.36,0,0,0,326.54,16.26Z"/><path class="cls-20" d="M332.21,18.18c.25-.07.65,0,.66.34a.23.23,0,0,1-.16.21c-.2.07-.39-.09-.55-.17S332.05,18.23,332.21,18.18Z"/><path class="cls-20" d="M329.6,24.69a9.42,9.42,0,0,1,1.62,1.6c.61.59,1.37,1.06,1.95,1.67.15.16.06.51-.19.48a5.14,5.14,0,0,1-2.31-1.06,4.2,4.2,0,0,1-1.81-2.12A.51.51,0,0,1,329.6,24.69Z"/><path class="cls-20" d="M328.17,23.17a1.7,1.7,0,0,1,.34.26.28.28,0,0,1-.4.4,1.1,1.1,0,0,1-.26-.34A.23.23,0,0,1,328.17,23.17Z"/><path class="cls-13" d="M344.7,18.34a1.46,1.46,0,0,0,1.08-.31c.45-.45.18-1.21-.15-1.76a15,15,0,0,0-9.7-6.9A6.65,6.65,0,0,0,338,16,10.12,10.12,0,0,0,344.7,18.34Z"/><path class="cls-19" d="M337,11a.1.1,0,0,1,.14-.15l1.46,1.22a.07.07,0,0,1,0-.05,3.41,3.41,0,0,1,0-.55.14.14,0,0,1,.25,0,1.15,1.15,0,0,1,0,.84c.7.58,1.41,1.15,2.13,1.7a3.45,3.45,0,0,0-.12-.46,7,7,0,0,0-.41-.82.15.15,0,0,1,.24-.18,2.28,2.28,0,0,1,.64,1.72l1.82,1.31.41.26a4.15,4.15,0,0,1-.36-1,.17.17,0,0,1,.3-.13,5.23,5.23,0,0,1,.6,1.48,4.89,4.89,0,0,1,1.07.82.23.23,0,0,1-.22.38,7.72,7.72,0,0,1-2-1.25,3.89,3.89,0,0,1-1.55.26.16.16,0,0,1,0-.31,7.46,7.46,0,0,1,.93-.14c.11,0,.21,0,.32-.06-.58-.41-1.14-.84-1.7-1.28l-.55-.44-.72.14a2.58,2.58,0,0,1-.68.08.13.13,0,0,1,0-.25,2.2,2.2,0,0,1,.67-.12l.52-.06Q339,13,338,12.05h0a2.24,2.24,0,0,1-.89,0,.13.13,0,0,1,0-.24,1.51,1.51,0,0,1,.7,0C337.5,11.58,337.23,11.29,337,11Z"/><path class="cls-20" d="M336.41,10.13c0,.06.08.11.14.14a10.34,10.34,0,0,0,1.67.82.7.7,0,0,0,.31.07c.11,0,.22-.1.22-.21s-.1-.19-.19-.25a5.12,5.12,0,0,0-1.76-.76.46.46,0,0,0-.26,0A.17.17,0,0,0,336.41,10.13Z"/><path class="cls-20" d="M339.29,11.11c.13,0,.34,0,.34.17a.1.1,0,0,1-.08.1c-.1,0-.2,0-.28-.08A.1.1,0,0,1,339.29,11.11Z"/><path class="cls-20" d="M338,14.42a4.3,4.3,0,0,1,.83.82c.31.3.7.54,1,.85.07.08,0,.26-.1.25a2.67,2.67,0,0,1-1.18-.55,2.11,2.11,0,0,1-.92-1.08A.26.26,0,0,1,338,14.42Z"/><path class="cls-20" d="M337.24,13.65a.7.7,0,0,1,.17.13c.13.13-.07.34-.2.21a.79.79,0,0,1-.14-.18A.12.12,0,0,1,337.24,13.65Z"/><rect class="cls-12" x="313.88" y="54.32" width="63.17" height="8.02" rx="3.63"/><path class="cls-11" d="M377.06,58.71V58a3.63,3.63,0,0,0-3.63-3.63H362.49a122,122,0,0,1-46.88,7.48,3.6,3.6,0,0,0,1.9.54h55.92A3.64,3.64,0,0,0,377.06,58.71Z"/><rect class="cls-11" x="312.7" y="57.3" width="65.54" height="2.06" rx="1.02"/><path class="cls-11" d="M377.22,58.59H313.71a1,1,0,0,1-.94-.64,1,1,0,0,0-.07.36v0a1,1,0,0,0,1,1h63.51a1,1,0,0,0,1-1v0a1,1,0,0,0-.07-.36A1,1,0,0,1,377.22,58.59Z"/><polygon class="cls-12" points="360.69 4.92 361.44 7.12 363.64 7.88 361.44 8.63 360.69 10.83 359.93 8.63 357.73 7.88 359.93 7.12 360.69 4.92"/><polygon class="cls-12" points="314.95 37.62 315.7 39.82 317.9 40.58 315.7 41.34 314.95 43.53 314.19 41.34 311.99 40.58 314.19 39.82 314.95 37.62"/><polygon class="cls-12" points="364.25 11.72 364.74 13.16 366.18 13.66 364.74 14.15 364.25 15.59 363.75 14.15 362.31 13.66 363.75 13.16 364.25 11.72"/><polygon class="cls-12" points="310.74 44.21 311.24 45.65 312.68 46.14 311.24 46.64 310.74 48.08 310.25 46.64 308.81 46.14 310.25 45.65 310.74 44.21"/><path class="cls-21" d="M254.21,85.12h43.24a2.35,2.35,0,0,0,2.35-2.35V35.69a2.35,2.35,0,0,0-2.35-2.35H254.21Z"/><path class="cls-21" d="M297.45,33.34h-51a2.36,2.36,0,0,0-2.36,2.35V49.3H299.8V35.69A2.35,2.35,0,0,0,297.45,33.34Z"/><rect class="cls-22" x="245.57" y="31.86" width="55.71" height="51.78" rx="3.38"/><path class="cls-13" d="M295.42,77.56H252.05a.39.39,0,0,1-.39-.39V47.47a.39.39,0,1,1,.78,0v29.3h43a.4.4,0,0,1,0,.79Z"/><rect class="cls-12" x="255.7" y="67.22" width="4.91" height="6.29"/><rect class="cls-12" x="265.06" y="62.49" width="4.91" height="11.02"/><rect class="cls-12" x="274.41" y="64.04" width="4.91" height="9.47"/><rect class="cls-12" x="283.76" y="58.6" width="4.91" height="14.91"/><rect class="cls-8" x="255.7" y="63.33" width="4.91" height="3.89"/><rect class="cls-8" x="265.06" y="55.67" width="4.91" height="6.82"/><rect class="cls-8" x="274.41" y="58.19" width="4.91" height="5.86"/><rect class="cls-8" x="283.76" y="49.37" width="4.91" height="9.23"/><rect class="cls-13" x="252.05" y="37.39" width="4.7" height="1.85"/><rect class="cls-13" x="252.05" y="41.32" width="4.7" height="1.85"/><path class="cls-13" d="M266.69,39.1h-6.07a.79.79,0,1,1,0-1.57h6.07a.79.79,0,0,1,0,1.57Z"/><path class="cls-13" d="M269,39.1a.8.8,0,0,1-.56-.24.75.75,0,0,1-.23-.55.39.39,0,0,1,0-.15.83.83,0,0,1,0-.15l.08-.14a.87.87,0,0,1,.09-.11.83.83,0,0,1,1.12,0l.09.11a.61.61,0,0,1,.07.14.88.88,0,0,1,0,.15.76.76,0,0,1,0,.15.78.78,0,0,1-.22.55A.8.8,0,0,1,269,39.1Z"/><path class="cls-13" d="M278.7,39.1h-7.28a.79.79,0,0,1,0-1.57h7.28a.79.79,0,1,1,0,1.57Z"/><path class="cls-13" d="M273.16,43H260.62a.78.78,0,0,1-.79-.78.79.79,0,0,1,.79-.79h12.54a.79.79,0,0,1,.78.79A.78.78,0,0,1,273.16,43Z"/><path class="cls-13" d="M278.7,43h-2.89a.78.78,0,0,1-.78-.78.79.79,0,0,1,.78-.79h2.89a.8.8,0,0,1,.79.79A.79.79,0,0,1,278.7,43Z"/></g></g></svg>