<svg id="Layer_1" data-name="Layer 1" xmlns="http://www.w3.org/2000/svg" viewBox="0 0 430 300"><defs><style>.cls-1{fill:#f9e7d2;}.cls-2{fill:#f0806d;}.cls-3{fill:#fff;}.cls-4{fill:#bcbec0;}.cls-5{fill:#fed385;}.cls-6{fill:#ffcc27;}.cls-7{fill:#8bc53f;}.cls-8{fill:#005263;}.cls-9{fill:#1b384c;}</style></defs><path class="cls-1" d="M430,0V121.5A131.21,131.21,0,0,1,348.16,150,131.82,131.82,0,0,1,217.63,0Z"/><path class="cls-2" d="M380.29,43.47a12.58,12.58,0,0,0-.16-6.67,4,4,0,0,0-3.55-2.55H339.14v9.22Z"/><path class="cls-3" d="M380.62,43.86H338.74v-10h37.84a4.37,4.37,0,0,1,3.92,2.81,12.75,12.75,0,0,1,.18,6.88Zm-41.08-.79H380a12,12,0,0,0-.22-6.15,3.51,3.51,0,0,0-3.18-2.27h-37Z"/><path class="cls-3" d="M376.78,34.25H336.31c-3.59,0-4.75,2-4.75,5.42v51.9h.71V97h37.44a4,4,0,0,0,3.55-2.55,10.21,10.21,0,0,0,.51-2.89h0V40.22S373.41,34.83,376.78,34.25Z"/><path class="cls-3" d="M369.71,97.41H331.87V92h-.71V39.67c0-4,1.64-5.81,5.15-5.81h40.47l.07.79c-3,.5-2.67,5.49-2.67,5.54V92h0a10.41,10.41,0,0,1-.52,2.62,4.38,4.38,0,0,1-3.91,2.82Zm-37-.8h37a3.49,3.49,0,0,0,3.17-2.27,9.8,9.8,0,0,0,.49-2.78l0-.43V40.22c0-.17-.24-3.86,1.66-5.57H336.31c-3.05,0-4.35,1.5-4.35,5V91.18h.71Z"/><rect class="cls-4" x="336.39" y="45.71" width="15.06" height="1.14"/><rect class="cls-4" x="335.79" y="45.11" width="16.25" height="2.33"/><rect class="cls-4" x="355.06" y="45.71" width="15.06" height="1.14"/><rect class="cls-4" x="354.46" y="45.11" width="16.25" height="2.33"/><rect class="cls-4" x="336.39" y="49.94" width="15.06" height="1.14"/><rect class="cls-4" x="335.79" y="49.35" width="16.25" height="2.33"/><rect class="cls-4" x="355.06" y="49.94" width="15.06" height="1.14"/><rect class="cls-4" x="354.46" y="49.35" width="16.25" height="2.33"/><rect class="cls-4" x="336.39" y="55.51" width="15.06" height="1.14"/><rect class="cls-4" x="335.79" y="54.91" width="16.25" height="2.33"/><rect class="cls-4" x="355.06" y="55.51" width="15.06" height="1.14"/><rect class="cls-4" x="354.46" y="54.91" width="16.25" height="2.33"/><rect class="cls-4" x="336.39" y="59.74" width="15.06" height="1.14"/><rect class="cls-4" x="335.79" y="59.15" width="16.25" height="2.33"/><rect class="cls-4" x="355.06" y="59.74" width="15.06" height="1.14"/><rect class="cls-4" x="354.46" y="59.15" width="16.25" height="2.33"/><rect class="cls-4" x="336.39" y="66.63" width="15.06" height="1.14"/><rect class="cls-4" x="335.79" y="66.04" width="16.25" height="2.33"/><rect class="cls-4" x="355.06" y="66.63" width="15.06" height="1.14"/><rect class="cls-4" x="354.46" y="66.04" width="16.25" height="2.33"/><rect class="cls-4" x="336.39" y="70.87" width="15.06" height="1.14"/><rect class="cls-4" x="335.79" y="70.27" width="16.25" height="2.33"/><rect class="cls-4" x="355.06" y="70.87" width="15.06" height="1.14"/><rect class="cls-4" x="354.46" y="70.27" width="16.25" height="2.33"/><rect class="cls-4" x="336.39" y="76.43" width="15.06" height="1.14"/><rect class="cls-4" x="335.79" y="75.84" width="16.25" height="2.33"/><rect class="cls-4" x="355.06" y="76.43" width="15.06" height="1.14"/><rect class="cls-4" x="354.46" y="75.84" width="16.25" height="2.33"/><rect class="cls-4" x="336.39" y="80.67" width="15.06" height="1.14"/><rect class="cls-4" x="335.79" y="80.07" width="16.25" height="2.33"/><rect class="cls-4" x="355.06" y="80.67" width="15.06" height="1.14"/><rect class="cls-4" x="354.46" y="80.07" width="16.25" height="2.33"/><path class="cls-2" d="M366.92,91V14.83h0a10.57,10.57,0,0,0-.52-3.61,4,4,0,0,0-3.55-2.55H325.4v6.16h-.71V91.59c0,3.38,1.16,5.42,4.75,5.42h40.47C366.54,96.43,366.92,91,366.92,91Z"/><path class="cls-3" d="M369.91,97.41H329.44c-3.51,0-5.14-1.85-5.14-5.82V14.43h.7V8.27h37.84a4.4,4.4,0,0,1,3.92,2.82,10.46,10.46,0,0,1,.55,3.46V91c0,.08-.32,5.07,2.66,5.58ZM325.09,15.22V91.59c0,3.52,1.3,5,4.35,5h38.74c-1.9-1.7-1.67-5.41-1.66-5.6V15.22h0v-.4a10.21,10.21,0,0,0-.51-3.48,3.51,3.51,0,0,0-3.17-2.27h-37v6.15Z"/><path class="cls-3" d="M360.05,66V14.64s-.38-5.39,3-6H322.57c-3.59,0-4.75,2-4.75,5.42V66Z"/><path class="cls-3" d="M360.45,66.39h-43V14.09c0-4,1.63-5.82,5.14-5.82H363l.07.79c-3,.51-2.67,5.5-2.66,5.55Zm-42.23-.8h41.43V14.64c0-.17-.24-3.87,1.67-5.57H322.57c-3.05,0-4.35,1.5-4.35,5Z"/><path class="cls-3" d="M359.69,62.29a12.58,12.58,0,0,1-.17,6.67A3.94,3.94,0,0,1,356,71.51H318.53V62.29Z"/><path class="cls-3" d="M356,71.9H318.14v-10H360l.07.31a13,13,0,0,1-.18,6.88A4.38,4.38,0,0,1,356,71.9Zm-37.05-.79h37a3.51,3.51,0,0,0,3.18-2.27,12,12,0,0,0,.22-6.15H318.93Z"/><rect class="cls-4" x="322.06" y="24.04" width="15.06" height="1.14"/><rect class="cls-4" x="321.47" y="23.44" width="16.25" height="2.33"/><rect class="cls-4" x="340.73" y="24.04" width="15.06" height="1.14"/><rect class="cls-4" x="340.14" y="23.44" width="16.25" height="2.33"/><rect class="cls-4" x="322.06" y="28.28" width="15.06" height="1.14"/><rect class="cls-4" x="321.47" y="27.68" width="16.25" height="2.33"/><rect class="cls-4" x="340.73" y="28.28" width="15.06" height="1.14"/><rect class="cls-4" x="340.14" y="27.68" width="16.25" height="2.33"/><rect class="cls-4" x="322.06" y="33.84" width="15.06" height="1.14"/><rect class="cls-4" x="321.47" y="33.24" width="16.25" height="2.33"/><rect class="cls-4" x="340.73" y="33.84" width="15.06" height="1.14"/><rect class="cls-4" x="340.14" y="33.24" width="16.25" height="2.33"/><rect class="cls-4" x="322.06" y="38.08" width="15.06" height="1.14"/><rect class="cls-4" x="321.47" y="37.48" width="16.25" height="2.33"/><rect class="cls-4" x="340.73" y="38.08" width="15.06" height="1.14"/><rect class="cls-4" x="340.14" y="37.48" width="16.25" height="2.33"/><rect class="cls-4" x="322.06" y="44.96" width="15.06" height="1.14"/><rect class="cls-4" x="321.47" y="44.37" width="16.25" height="2.33"/><rect class="cls-4" x="340.73" y="44.96" width="15.06" height="1.14"/><rect class="cls-4" x="340.14" y="44.37" width="16.25" height="2.33"/><rect class="cls-4" x="322.06" y="49.2" width="15.06" height="1.14"/><rect class="cls-4" x="321.47" y="48.61" width="16.25" height="2.33"/><rect class="cls-4" x="340.73" y="49.2" width="15.06" height="1.14"/><rect class="cls-4" x="340.14" y="48.61" width="16.25" height="2.33"/><rect class="cls-4" x="322.06" y="54.77" width="15.06" height="1.14"/><rect class="cls-4" x="321.47" y="54.17" width="16.25" height="2.33"/><rect class="cls-4" x="340.73" y="54.77" width="15.06" height="1.14"/><rect class="cls-4" x="340.14" y="54.17" width="16.25" height="2.33"/><rect class="cls-4" x="322.06" y="59" width="15.06" height="1.14"/><rect class="cls-4" x="321.47" y="58.41" width="16.25" height="2.33"/><rect class="cls-4" x="340.73" y="59" width="15.06" height="1.14"/><rect class="cls-4" x="340.14" y="58.41" width="16.25" height="2.33"/><path class="cls-2" d="M353.18,65.54V45.22a4.68,4.68,0,0,0,0-.53v-.1h0a10.41,10.41,0,0,0-.52-3A3.94,3.94,0,0,0,349.12,39H311.67v5.57H311v21.5c0,3.38,1.16,5.42,4.75,5.42h40.47C352.81,70.93,353.18,65.54,353.18,65.54Z"/><path class="cls-3" d="M356.18,71.9H315.71c-3.51,0-5.15-1.84-5.15-5.81V44.19h.72V38.63h37.84A4.38,4.38,0,0,1,353,41.44a10.48,10.48,0,0,1,.52,2.75h0v.5c0,.17,0,.35,0,.54V65.54c0,.08-.31,5.07,2.66,5.58ZM311.36,45v21.1c0,3.52,1.3,5,4.35,5h38.74c-1.91-1.71-1.67-5.41-1.66-5.6V44.6a9.64,9.64,0,0,0-.5-2.91,3.5,3.5,0,0,0-3.17-2.27h-37V45Z"/><path class="cls-3" d="M346.32,111.82V45s-.38-5.39,3-6H308.84c-3.59,0-4.74,2-4.74,5.42v67.38Z"/><path class="cls-3" d="M346.72,112.22h-43V44.44c0-4,1.63-5.81,5.14-5.81h40.47l.07.78c-3,.51-2.66,5.5-2.66,5.55Zm-42.23-.8h41.44V45c0-.17-.25-3.87,1.66-5.57H308.84c-3,0-4.35,1.5-4.35,5Z"/><rect class="cls-4" x="308.4" y="47.98" width="15.06" height="1.14"/><rect class="cls-4" x="307.8" y="47.38" width="16.25" height="2.33"/><rect class="cls-4" x="327.07" y="47.98" width="15.06" height="1.14"/><rect class="cls-4" x="326.47" y="47.38" width="16.25" height="2.33"/><rect class="cls-4" x="308.4" y="52.21" width="15.06" height="1.14"/><rect class="cls-4" x="307.8" y="51.62" width="16.25" height="2.33"/><rect class="cls-4" x="327.07" y="52.21" width="15.06" height="1.14"/><rect class="cls-4" x="326.47" y="51.62" width="16.25" height="2.33"/><rect class="cls-4" x="308.4" y="57.78" width="15.06" height="1.14"/><rect class="cls-4" x="307.8" y="57.18" width="16.25" height="2.33"/><rect class="cls-4" x="327.07" y="57.78" width="15.06" height="1.14"/><rect class="cls-4" x="326.47" y="57.18" width="16.25" height="2.33"/><rect class="cls-4" x="308.4" y="62.01" width="15.06" height="1.14"/><rect class="cls-4" x="307.8" y="61.42" width="16.25" height="2.33"/><rect class="cls-4" x="327.07" y="62.01" width="15.06" height="1.14"/><rect class="cls-4" x="326.47" y="61.42" width="16.25" height="2.33"/><path class="cls-3" d="M378.2,70.3A8.83,8.83,0,1,0,387,61.47,8.83,8.83,0,0,0,378.2,70.3Z"/><path class="cls-5" d="M387,80a9.65,9.65,0,1,1,9.65-9.65A9.65,9.65,0,0,1,387,80Z"/><path class="cls-6" d="M393.46,70.22a6.38,6.38,0,1,1-6.38-6.38A6.38,6.38,0,0,1,393.46,70.22Z"/><rect class="cls-7" x="350.65" y="99.19" width="40.31" height="26.83"/><rect class="cls-3" x="350.65" y="100.51" width="38.85" height="24.18"/><path class="cls-7" d="M381.82,101.6v0H350.65v22.09h31.29a6.55,6.55,0,0,1,6.3-6.35v-9.23A6.54,6.54,0,0,1,381.82,101.6Z"/><path class="cls-3" d="M374.06,112.6a7.88,7.88,0,1,0-7.88,7.89A7.9,7.9,0,0,0,374.06,112.6Z"/><path class="cls-3" d="M359,112.67a7.13,7.13,0,1,1,7.13,7.13A7.13,7.13,0,0,1,359,112.67Z"/><rect class="cls-3" x="376.26" y="112.1" width="3.61" height="1.01"/><rect class="cls-3" x="381.18" y="112.1" width="3.61" height="1.01"/><rect class="cls-3" x="352.98" y="112.1" width="3.62" height="1.01"/><path class="cls-5" d="M405.84,92.67a9.38,9.38,0,1,0,9.38,9.38A9.39,9.39,0,0,0,405.84,92.67Z"/><path class="cls-6" d="M412.87,102a7,7,0,1,1-7-7A7,7,0,0,1,412.87,102Z"/><rect class="cls-8" x="298.89" y="52.3" width="52.37" height="76.04"/><rect class="cls-4" x="303.31" y="78.32" width="7.08" height="7.08"/><rect class="cls-3" x="303.31" y="90.95" width="7.08" height="7.08"/><rect class="cls-3" x="303.31" y="103.59" width="7.08" height="7.08"/><rect class="cls-3" x="303.31" y="116.23" width="7.08" height="7.08"/><rect class="cls-4" x="315.46" y="78.32" width="7.08" height="7.08"/><rect class="cls-3" x="315.46" y="90.95" width="7.08" height="7.08"/><rect class="cls-3" x="315.46" y="103.59" width="7.08" height="7.08"/><rect class="cls-3" x="315.46" y="116.23" width="7.08" height="7.08"/><rect class="cls-4" x="327.61" y="78.32" width="7.08" height="7.08"/><rect class="cls-3" x="303.31" y="73.54" width="7.08" height="0.97"/><rect class="cls-3" x="315.46" y="73.54" width="7.08" height="0.97"/><rect class="cls-3" x="327.61" y="73.54" width="7.08" height="0.97"/><rect class="cls-3" x="327.61" y="90.95" width="7.08" height="7.08"/><rect class="cls-3" x="327.61" y="103.59" width="7.08" height="7.08"/><rect class="cls-3" x="327.61" y="116.23" width="7.08" height="7.08"/><rect class="cls-4" x="339.75" y="78.32" width="7.08" height="7.08"/><rect class="cls-4" x="339.75" y="90.95" width="7.08" height="7.08"/><rect class="cls-4" x="339.75" y="103.59" width="7.08" height="19.72"/><rect class="cls-3" x="302.63" y="56.58" width="44.88" height="13.17"/><path class="cls-3" d="M344.37,74a1.2,1.2,0,1,1-1.2-1.2A1.2,1.2,0,0,1,344.37,74Z"/><path class="cls-2" d="M293.65,122.88a.18.18,0,0,1,.19.18v2.78a.18.18,0,0,1-.19.18h-5.46a.19.19,0,0,1-.2-.18v-2.78a.19.19,0,0,1,.2-.18Z"/><path class="cls-3" d="M288,122.05v1h5.85v-1a.18.18,0,0,0-.19-.17h-5.46A.19.19,0,0,0,288,122.05Z"/><polygon class="cls-7" points="287.99 78.16 287.99 80.38 287.99 109.55 287.99 114.36 287.99 121.96 293.85 121.96 293.85 114.36 293.85 109.55 293.85 80.38 293.85 78.16 293.85 68.51 287.99 68.51 287.99 78.16"/><polygon class="cls-9" points="290.13 78.16 290.13 80.38 290.13 109.55 290.13 114.36 290.13 121.96 291.7 121.96 291.7 114.36 291.7 109.55 291.7 80.38 291.7 78.16 291.7 68.51 290.13 68.51 290.13 78.16"/><polygon class="cls-3" points="293.86 68.53 290.92 70.03 287.98 68.53 290.92 61.68 293.86 68.53"/><polygon class="cls-9" points="289.69 64.54 292.15 64.54 290.92 61.68 289.69 64.54"/><path class="cls-3" d="M407.51,100v-.68h-3.33V100h1.39a1.81,1.81,0,0,1,.22.5h-1.61v.69h1.64c-.22.65-1.64.67-1.64.67v.49l1.93,2.45h1l-1.46-2.26a1.88,1.88,0,0,0,1.11-1.35h.76v-.69h-.8a2,2,0,0,0-.18-.5Z"/><path class="cls-3" d="M388.75,68.81v-.69h-3.34v.69h1.4a1.81,1.81,0,0,1,.22.5h-1.62V70h1.65c-.22.64-1.65.66-1.65.66v.5l1.94,2.45h1l-1.46-2.26A1.9,1.9,0,0,0,388,70h.76v-.69H388a2,2,0,0,0-.18-.5Z"/></svg>