<?xml version="1.0" encoding="UTF-8"?>
<svg id="Layer_1" xmlns="http://www.w3.org/2000/svg" viewBox="0 0 1080 1080">
  <defs>
    <style>
      .cls-1 {
        fill: #1f3060;
      }

      .cls-2, .cls-3 {
        opacity: .6;
      }

      .cls-4 {
        fill: #f5f6f6;
      }

      .cls-5, .cls-3, .cls-6, .cls-7, .cls-8, .cls-9, .cls-10, .cls-11, .cls-12 {
        fill: #fff;
      }

      .cls-3, .cls-6, .cls-7, .cls-13, .cls-8, .cls-9, .cls-14, .cls-15, .cls-10, .cls-11, .cls-16, .cls-12 {
        isolation: isolate;
      }

      .cls-17 {
        fill: #d5827e;
      }

      .cls-18, .cls-13, .cls-15, .cls-10 {
        opacity: .2;
      }

      .cls-6, .cls-19 {
        opacity: .3;
      }

      .cls-7, .cls-14 {
        opacity: .4;
      }

      .cls-13, .cls-20, .cls-16 {
        fill: #010101;
      }

      .cls-21 {
        fill: #edc1bb;
      }

      .cls-8, .cls-22 {
        opacity: .5;
      }

      .cls-23 {
        fill: #cfcfce;
        opacity: .28;
      }

      .cls-24 {
        fill: #ebc0ba;
      }

      .cls-9 {
        opacity: .7;
      }

      .cls-25 {
        fill: #273339;
      }

      .cls-11 {
        opacity: .8;
      }

      .cls-16, .cls-12 {
        opacity: .1;
      }
    </style>
  </defs>
  <path class="cls-23" d="M100.88,611.65c-19.46-111.42-36.8-234.01,1.05-341.92,32.83-95.32,111.83-152.21,197.85-162.65,40.58-5.67,82.64-2.61,121.14,13.27,78.73,30.63,130.52,112.78,201.98,157.64,38.06,23.66,81.2,35.7,124.33,35.4,40.15.1,80.72-11.08,119.63-21.16,44.53-10.91,90.43-22.15,128.09,7.3,34.3,27.88,46.71,79.57,52.06,127.65,11.63,121.66-10.71,274.71-65.69,379.22-37.95,71.2-97.75,131.85-168.3,150.39-54.46,13.28-103.29,9.25-162.66,10.09-125.92-.35-271.62.74-396.54-.48-23.47-1.18-47.19-2-65.22-17.87-29.76-26.51-40.12-101.75-51.02-149.94-12.44-61.94-25.34-124.75-36.66-186.71l-.04-.23Z"/>
  <g id="freepik--Shadow--inject-344">
    <ellipse id="freepik--path--inject-344" class="cls-4" cx="539.61" cy="994.48" rx="465.39" ry="27.17"/>
  </g>
  <g id="freepik--Plant--inject-344">
    <path class="cls-25" d="M894.85,937.76s3.34-24.41,18.94-27.08c15.6-2.66,10.92-14.4,14.98-19.06s14.71,8.9,5.59,21.96c-9.12,13.06-1.66,8.98-5.59,21.12-3.94,12.15-35.45,23.31-33.92,3.05Z"/>
    <path class="cls-10" d="M894.85,937.76s3.34-24.41,18.94-27.08c15.6-2.66,10.92-14.4,14.98-19.06s14.71,8.9,5.59,21.96c-9.12,13.06-1.66,8.98-5.59,21.12-3.94,12.15-35.45,23.31-33.92,3.05Z"/>
    <path class="cls-25" d="M899.94,954.44c-.6,0-1.08-.48-1.08-1.08,0-.13.02-.26.07-.38,0-.26,9.6-25.95.38-65.07-2.85-11.24-6.88-22.15-12-32.55-9.03-19.59-16.8-36.48-5.26-68.05,3.55-9.75,7.2-18.87,10.85-27.68,13.23-32.5,23.69-58.18,12.65-81.95-.24-.54,0-1.18.53-1.44.52-.26,1.16-.05,1.42.48,0,.02.02.03.02.05,11.43,24.6.82,50.67-12.6,83.67-3.58,8.78-7.2,17.88-10.85,27.6-11.23,30.72-3.98,46.45,5.21,66.39,5.21,10.53,9.31,21.58,12.24,32.96,9.48,39.82-.38,66.1-.48,66.37-.17.45-.63.73-1.1.67Z"/>
    <path class="cls-25" d="M904.45,948.76s10.08-15.22-4.49-23.04c-14.57-7.82-17.47-1.54-26.4-7.2s-15.84-19.2-17.38-10.54c-1.54,8.66,8.88,13.71,5.18,17.69s24.39,29.84,43.08,23.09Z"/>
    <path class="cls-25" d="M911.65,689.55s7.42-30.58-14.93-29.43,4.54,27.08,14.93,29.43Z"/>
    <path class="cls-25" d="M894.2,714.01s-8.81-26.57-24.19-19.59,8.45,21.36,24.19,19.59Z"/>
    <path class="cls-25" d="M921.25,714.2s-4.1-21.43,12.65-23.21c16.75-1.78,10.78,17.83-12.65,23.21Z"/>
    <path class="cls-25" d="M913.6,759.21s20.93-21.89,30.24-7.58c9.31,14.31-15.55,19.42-30.24,7.58Z"/>
    <path class="cls-25" d="M873.44,758.85s-6.91-33.03-24.29-21.12c-17.38,11.91,8.69,25.75,24.29,21.12Z"/>
    <path class="cls-25" d="M861.25,807.91s10.73-34.8-13.92-29c-24.65,5.81-4.37,22.23,13.92,29Z"/>
    <path class="cls-25" d="M900.54,816.86s19.08-26.55,35.84-19.95c16.75,6.6,5.57,32.33-35.84,19.95Z"/>
    <path class="cls-25" d="M885.8,873.43s-21.17-38.4-36-23.71c-14.83,14.69,12.82,32.72,36,23.71Z"/>
    <path class="cls-25" d="M911.65,869.09s-7.2-30.58,10.75-29.52c17.95,1.06,14.91,20.31-10.75,29.52Z"/>
    <g class="cls-15">
      <path class="cls-5" d="M911.65,689.55s7.42-30.58-14.93-29.43,4.54,27.08,14.93,29.43Z"/>
      <path class="cls-5" d="M894.2,714.01s-8.81-26.57-24.19-19.59,8.45,21.36,24.19,19.59Z"/>
      <path class="cls-5" d="M921.25,714.2s-4.1-21.43,12.65-23.21c16.75-1.78,10.78,17.83-12.65,23.21Z"/>
      <path class="cls-5" d="M913.6,759.21s20.93-21.89,30.24-7.58c9.31,14.31-15.55,19.42-30.24,7.58Z"/>
      <path class="cls-5" d="M873.44,758.85s-6.91-33.03-24.29-21.12c-17.38,11.91,8.69,25.75,24.29,21.12Z"/>
      <path class="cls-5" d="M861.25,807.91s10.73-34.8-13.92-29c-24.65,5.81-4.37,22.23,13.92,29Z"/>
      <path class="cls-5" d="M900.54,816.86s19.08-26.55,35.84-19.95c16.75,6.6,5.57,32.33-35.84,19.95Z"/>
      <path class="cls-5" d="M885.8,873.43s-21.17-38.4-36-23.71c-14.83,14.69,12.82,32.72,36,23.71Z"/>
      <path class="cls-5" d="M911.65,869.09s-7.2-30.58,10.75-29.52c17.95,1.06,14.91,20.31-10.75,29.52Z"/>
    </g>
    <path class="cls-25" d="M905.27,731.17h-.22c-.29-.06-.54-.24-.7-.48,0-.17-9.94-15.84-16.68-19.2-.54-.27-.76-.92-.49-1.45.27-.54.92-.76,1.45-.49h0c6.34,3.14,14.64,15.43,16.95,19.01,7.94-6.15,14.63-13.76,19.73-22.42.29-.52.95-.71,1.48-.42.52.29.71.95.42,1.48-.36.62-8.74,15.36-21.34,23.79-.18.12-.39.19-.6.19Z"/>
    <path class="cls-25" d="M888.15,774.21h0c-.31-.03-.59-.2-.77-.46,0-.17-12.19-17.16-26.4-24-.51-.34-.65-1.02-.31-1.53.28-.42.8-.6,1.27-.44,12.96,6.31,23.79,20.04,26.59,23.86,18.12-15.48,42.12-16.8,42.36-16.8.59-.01,1.09.44,1.13,1.03.04.58-.4,1.09-.98,1.13,0,0-.02,0-.03,0-.24,0-24.31,1.34-41.93,17.04-.27.19-.61.26-.94.17Z"/>
    <path class="cls-25" d="M879.51,829.97c-.22,0-.43-.06-.6-.19-14.4-9.6-26.76-35.69-27.27-36.8-.26-.54-.03-1.18.5-1.44.52-.26,1.16-.05,1.42.48,0,.02.02.03.02.05.12.24,12.36,25.8,25.95,35.5,4.2-2.83,27.75-18.19,46.61-20.07.58-.04,1.1.38,1.18.96.07.59-.35,1.13-.95,1.2,0,0,0,0-.01,0-19.8,1.97-45.97,19.95-46.23,20.11-.18.13-.4.2-.62.19Z"/>
    <path class="cls-25" d="M899.94,885.27c-.32.01-.62-.13-.82-.38-8.45-8.64-19.34-14.5-31.2-16.8-.57-.11-.94-.67-.83-1.24,0-.02,0-.04.01-.05.12-.57.68-.94,1.25-.82,0,0,.02,0,.02,0,11.99,2.36,23.01,8.2,31.68,16.8,9.22-7.2,20.04-33.17,20.16-33.44.21-.54.83-.81,1.37-.6.02,0,.03.01.05.02.55.23.81.86.58,1.41,0,0,0,0,0,0-.48,1.15-11.79,28.2-21.6,34.95-.2.13-.44.18-.67.14Z"/>
    <path class="cls-25" d="M902.87,945.11s8.66-13.78,18.43-15.72c9.77-1.94,13.99-13.23,17.59-6.46,3.6,6.77-6.34,29.21-36.03,22.18Z"/>
    <polygon class="cls-1" points="947.8 999.18 853.28 999.18 846.94 940.91 954.11 940.91 947.8 999.18"/>
    <polygon class="cls-1" points="956.32 951.95 844.73 951.95 843.32 939.59 957.74 939.59 956.32 951.95"/>
    <polygon class="cls-6" points="956.32 951.95 844.73 951.95 843.32 939.59 957.74 939.59 956.32 951.95"/>
  </g>
  <g id="freepik--Banknotes--inject-344">
    <rect class="cls-1" x="225" y="501.85" width="222.79" height="461.26" transform="translate(-388.85 380.75) rotate(-39.46)"/>
    <polygon class="cls-16" points="569.01 839.78 520.75 879.48 429.87 954.3 397.01 981.35 362.57 939.47 301.34 865.11 103.87 625.2 137.9 597.16 184.32 559 275.89 483.63 303.81 517.57 552.72 819.98 569.01 839.78"/>
    <g class="cls-19">
      <path class="cls-5" d="M355.17,712.4l6.55-5.4,3.98,4.8-6.53,5.38c4.39,6.02,7.2,13.15,6.96,18.39l-8.09,2.23c-.24-5.53-2.05-10.87-5.21-15.41l-11.74,9.6c3.77,7.8,7.42,16.54-.74,23.26-6,4.8-14.79,4.8-23.21-3.55l-6.62,5.45-3.96-4.8,6.5-5.38c-3.29-4.3-5.45-9.35-6.29-14.69l7.9-2.4c.7,4.32,2.28,8.45,4.66,12.12l11.86-9.77c-3.77-7.8-7.56-16.61.6-23.33,6.05-5.09,14.83-4.94,23.38,3.5ZM334,737.89l-10.42,8.59c4.06,3.65,7.63,3.67,10.2,1.54s2.02-5.9.22-10.13ZM338.57,715.81c-2.86,2.4-2.09,6.07-.19,10.42l10.39-8.54c-4.18-3.77-7.66-3.94-10.2-1.87h0Z"/>
    </g>
    <path class="cls-6" d="M533.59,816.62l-241.8-293.79c-10.92,9.01-27.08,7.46-36.09-3.46-.01-.01-.02-.03-.04-.04l-112.81,92.89c8.93,10.92,7.36,27.01-3.5,36l241.85,293.91c10.92-8.93,27.01-7.36,36,3.5l112.81-92.89c-8.99-10.96-7.39-27.12,3.56-36.11,0,0,0,0,.01-.01ZM191.57,674.33c-2.51,2.06-6.22,1.7-8.28-.81,0,0,0,0,0,0l-16.32-19.83c-2.06-2.51-1.7-6.22.81-8.28,0,0,0,0,0,0h0c2.51-2.06,6.22-1.7,8.28.81,0,0,0,0,0,0l16.32,19.83c2.06,2.51,1.7,6.22-.81,8.28,0,0,0,0,0,0ZM367.68,770.51c-21,17.29-52.04,14.29-69.33-6.71-17.29-21-14.29-52.04,6.71-69.33,21-17.29,52.04-14.29,69.33,6.71,0,0,0,0,0,.01,17.29,20.98,14.31,52-6.65,69.32h-.07ZM504.98,819.57c-2.51,2.06-6.22,1.7-8.28-.81,0,0,0,0,0,0l-16.32-19.83c-2.07-2.51-1.71-6.21.79-8.28,2.51-2.07,6.21-1.71,8.28.79l16.32,19.85c2.07,2.49,1.75,6.19-.72,8.28h-.07Z"/>
    <polygon class="cls-16" points="552.72 819.98 362.57 939.47 301.34 865.11 137.9 597.16 184.32 559 303.81 517.57 552.72 819.98"/>
    <rect class="cls-1" x="224.97" y="448.14" width="222.79" height="461.26" transform="translate(-294.83 259.89) rotate(-30.07)"/>
    <polygon class="cls-16" points="548.32 822.55 355.53 934.16 337.48 903.01 291.04 822.81 124.41 535 179.84 502.91 223.98 477.34 317.2 423.36 338.88 460.8 546.19 818.88 548.32 822.55"/>
    <g class="cls-19">
      <path class="cls-5" d="M358.1,662.02l7.39-4.27,3.12,5.4-7.2,4.22c3.34,6.67,4.8,14.14,3.89,19.2l-8.38.89c.67-5.49-.23-11.06-2.62-16.06l-13.15,7.61c2.4,8.35,4.61,17.55-4.54,22.85-6.7,3.89-15.39,2.4-22.3-7.2l-7.44,4.3-3.12-5.38,7.2-4.25c-2.53-4.83-3.81-10.22-3.72-15.67l8.21-1.15c-.03,4.38.86,8.71,2.62,12.72l13.3-7.7c-2.4-8.33-4.8-17.62,4.39-22.9,6.67-3.96,15.31-2.33,22.35,7.39ZM333.07,683.62l-11.71,6.77c3.43,4.25,6.96,4.8,9.84,3.19s2.98-5.4,1.99-9.87l-.12-.1ZM341.18,662.57c-3.22,1.87-3.05,5.64-1.87,10.23l11.64-6.72c-3.5-4.3-6.94-5.04-9.77-3.41v-.1Z"/>
    </g>
    <path class="cls-6" d="M517.15,793.94l-190.65-329.29c-12.25,7.09-27.94,2.91-35.03-9.34,0,0,0-.02-.01-.02l-126.52,73.26c7.09,12.25,2.91,27.94-9.34,35.03,0,0-.02,0-.02.01l190.65,329.32c12.26-7.11,27.96-2.93,35.07,9.33,0,0,0,0,0,0l126.49-73.23c-7.1-12.26-2.91-27.96,9.35-35.06h.01ZM203,597.86c-2.81,1.63-6.41.68-8.04-2.13h0s-12.87-22.23-12.87-22.23c-1.63-2.81-.68-6.41,2.13-8.04,0,0,0,0,0,0h0c2.81-1.63,6.41-.68,8.04,2.13h0s12.87,22.25,12.87,22.25c1.63,2.8.68,6.38-2.12,8.01,0,0-.01,0-.02,0ZM361.06,721.5c-23.52,13.66-53.67,5.66-67.33-17.86s-5.66-53.67,17.86-67.33c23.52-13.66,53.67-5.66,67.33,17.86.02.04.05.08.07.12,13.49,23.5,5.48,53.47-17.93,67.11v.1ZM488.51,792.28c-2.81,1.63-6.41.66-8.03-2.15,0,0,0,0,0-.01l-12.87-22.32c-1.72-2.75-.89-6.38,1.87-8.1,2.75-1.72,6.38-.89,8.1,1.87.07.12.14.24.21.36l12.87,22.23c1.67,2.79.77,6.4-2.02,8.07-.04.02-.08.05-.12.07Z"/>
    <polygon class="cls-16" points="546.19 818.88 337.48 903.01 291.04 822.81 179.84 502.91 223.98 477.34 338.88 460.8 546.19 818.88"/>
    <rect class="cls-1" x="244.06" y="405.94" width="222.79" height="461.26" transform="translate(-187.97 150.5) rotate(-19.01)"/>
    <rect class="cls-16" x="244.06" y="405.94" width="222.79" height="461.26" transform="translate(-187.97 150.5) rotate(-19.01)"/>
    <g class="cls-19">
      <path class="cls-5" d="M380.04,624.26l8.04-2.76,2.04,5.88-7.99,2.76c1.99,7.2,2.06,14.81,0,19.66l-8.35-.72c1.7-5.27,1.87-10.91.5-16.27l-14.4,4.97c.82,8.64,1.15,18.1-8.83,21.6-7.32,2.52-15.55-.6-20.5-11.43l-7.99,2.71-2.04-5.88,7.97-2.76c-1.55-5.23-1.76-10.77-.62-16.11l8.26.46c-.86,4.29-.81,8.71.14,12.99l14.52-5.02c-.82-8.64-1.3-18.19,8.69-21.6,7.32-2.52,15.53.7,20.57,11.52ZM351.24,640.78l-12.79,4.39c2.57,4.8,5.88,6.1,9.05,5.02,3.17-1.08,4.01-4.78,3.79-9.36l-.05-.05ZM363.24,621.57c-3.5,1.22-4.08,4.94-3.82,9.6l12.72-4.37c-2.54-4.75-5.76-6.14-8.86-5.09l-.05-.14Z"/>
    </g>
    <path class="cls-6" d="M510.81,784.31l-123.93-359.75c-13.4,4.61-28-2.51-32.62-15.9,0,0,0,0,0,0l-138.21,47.6c4.61,13.4-2.51,28-15.9,32.62,0,0,0,0,0,0l123.93,359.78c13.4-4.61,28,2.51,32.62,15.9,0,0,0,0,0,0l138.21-47.62c-4.62-13.4,2.51-28,15.9-32.62,0,0,0,0,0,0ZM240.13,531.52c-3.07,1.05-6.42-.58-7.49-3.65l-8.35-24.27c-1.05-3.07.58-6.42,3.65-7.49h0c3.07-1.05,6.41.58,7.46,3.65l8.38,24.29c1.05,3.07-.58,6.41-3.65,7.46ZM371.59,683.17c-25.72,8.86-53.75-4.81-62.61-30.53-8.86-25.72,4.81-53.75,30.53-62.61,25.72-8.86,53.75,4.81,62.61,30.53,0,0,0,0,0,0,8.86,25.7-4.79,53.73-30.5,62.59-.01,0-.02,0-.04.01ZM483.11,777.09c-3.07,1.05-6.42-.58-7.49-3.65l-8.42-24.36c-1.19-3.02.3-6.44,3.33-7.62,3.02-1.19,6.44.3,7.62,3.33.06.16.12.32.17.48l8.35,24.29c1.11,3.02-.45,6.37-3.47,7.48-.05.02-.1.04-.15.05h.07Z"/>
    <path class="cls-16" d="M299.39,925.23c-31.6,8.44-64.05-10.33-72.49-41.93-.84-3.13-1.41-6.33-1.73-9.56,31.52-8.47,63.94,10.21,72.41,41.73.86,3.2,1.45,6.46,1.76,9.75h.05Z"/>
    <circle class="cls-16" cx="368.59" cy="768.14" r="59.12"/>
    <path class="cls-16" d="M520.75,879.48l-90.87,74.82c-23.04-23.14-22.96-60.57.18-83.61,23.14-23.04,60.57-22.96,83.61.18,2.63,2.64,5,5.52,7.09,8.61Z"/>
  </g>
  <g id="freepik--Coins--inject-344">
    <path class="cls-1" d="M383.59,984.52v10.97c0,.98-.38,1.91-1.08,2.59-.17.17-.36.32-.55.46-.61.42-1.34.65-2.09.65h-114.61c-.39-.09-.77-.26-1.1-.48-.13-.09-.26-.18-.38-.29l-.29-.29h0c-.1-.11-.19-.23-.26-.36l-.12-.19h0c-.09-.08-.15-.19-.17-.31h0v-.26h0v-.41c0-.1,0,0,0,0-.01-.17-.01-.34,0-.5v-11.07c-.04-1.99,1.54-3.63,3.53-3.67.06,0,.11,0,.17,0h113.65c.25-.02.5-.02.74,0h.14c.19.03.38.1.55.19h.17l.38.22h0l.43.36.17.14.24.34c.12.12.21.26.29.41-.01.06-.01.11,0,.17.08.15.14.3.19.46.09.18.15.38.17.58-.05.11-.11.21-.17.31Z"/>
    <path class="cls-6" d="M383.59,984.52v10.97c0,.97-.38,1.9-1.06,2.59-.17.17-.36.32-.55.46-.61.42-1.34.65-2.09.65h-114.64c-.39-.09-.77-.26-1.1-.48-.13-.09-.26-.18-.38-.29l-.29-.29h0c-.07-.09-.14-.19-.19-.29h0l-.12-.19v-.17h0c-.04-.1-.09-.2-.14-.29v-.79c0-.1,0,0,0,0-.01-.17-.01-.34,0-.5v-11.07c-.22-1.01-.02-2.07.55-2.93.7-.7,1.65-1.09,2.64-1.08h114.61c.17.04.33.11.48.19.05-.02.11-.02.17,0l.43.22h0l.43.36.17.14.24.34c.12.12.21.26.29.41-.01.06-.01.11,0,.17.08.15.14.3.19.46.07.19.13.38.17.58.19.43.19.62.19.84Z"/>
    <path class="cls-10" d="M381.89,981.4h-90.03c-1.25,0-2.26,1.01-2.26,2.26,0,0,0,.02,0,.02v12c0,1.13-.91,2.04-2.04,2.04h-24.29l-.12-.19h0v-.19h0v-.26h0c-.02-.13-.02-.27,0-.41h0c-.01-.17-.01-.34,0-.5v-11.07c-.34-1.08-.18-2.25.43-3.19.7-.7,1.65-1.09,2.64-1.08h114.61c.17.04.33.11.48.19.05-.02.11-.02.17,0l.41.38Z"/>
    <path class="cls-16" d="M383.59,984.52v10.97c0,.97-.38,1.9-1.06,2.59-.17.17-.36.32-.55.46-.61.42-1.34.65-2.09.65h-114.64c-.39-.09-.77-.26-1.1-.48h90.03c1.25,0,2.26-1.01,2.26-2.26h0v-12c0-1.13.91-2.04,2.04-2.04h24.29c.12.12.21.26.29.41-.01.06-.01.11,0,.17.08.15.14.3.19.46.07.19.13.38.17.58.17.1.17.29.17.5Z"/>
    <g class="cls-18">
      <path class="cls-20" d="M268.69,997.1c-.3.01-.56-.22-.58-.53,0,0,0-.02,0-.02v-13.08c0-.32.26-.57.58-.57.32,0,.57.26.57.57v13.08c0,.3-.25.55-.55.55,0,0-.02,0-.02,0Z"/>
      <path class="cls-20" d="M274.74,997.1c-.3.01-.56-.22-.58-.53,0,0,0-.02,0-.02v-13.08c-.06-.31.14-.62.45-.68.31-.06.62.14.68.45.02.08.02.16,0,.23v13.08c0,.3-.25.55-.55.55h0Z"/>
      <path class="cls-20" d="M280.77,997.1c-.3.01-.56-.22-.58-.53,0,0,0-.02,0-.02v-13.08c0-.32.26-.57.58-.57.32,0,.57.26.57.57v13.08c0,.3-.25.55-.55.55,0,0-.02,0-.02,0Z"/>
      <path class="cls-20" d="M286.82,997.1c-.3.01-.56-.22-.58-.53,0,0,0-.02,0-.02v-13.08c-.06-.31.14-.62.45-.68.31-.06.62.14.68.45.02.08.02.16,0,.23v13.08c0,.3-.25.55-.55.55h0Z"/>
      <path class="cls-20" d="M292.84,997.1c-.3.01-.56-.22-.58-.53,0,0,0-.02,0-.02v-13.08c0-.32.26-.57.58-.57.32,0,.57.26.57.57v13.08c0,.3-.25.55-.55.55,0,0-.02,0-.02,0Z"/>
      <path class="cls-20" d="M298.89,997.1c-.3.01-.56-.22-.58-.53,0,0,0-.02,0-.02v-13.08c-.06-.31.14-.62.45-.68.31-.06.62.14.68.45.02.08.02.16,0,.23v13.08c0,.3-.25.55-.55.55h0Z"/>
      <path class="cls-20" d="M304.91,997.1c-.3.01-.56-.22-.58-.53,0,0,0-.02,0-.02v-13.08c0-.32.26-.57.58-.57.32,0,.57.26.57.57v13.08c0,.3-.25.55-.55.55,0,0-.02,0-.02,0Z"/>
      <path class="cls-20" d="M310.96,997.1c-.3.01-.56-.22-.58-.53,0,0,0-.02,0-.02v-13.08c0-.32.26-.58.57-.58.32,0,.58.26.58.57h0v13.09c0,.3-.25.55-.55.55,0,0-.02,0-.02,0Z"/>
      <path class="cls-20" d="M316.99,997.1c-.3.01-.56-.22-.58-.53,0,0,0-.02,0-.02v-13.08c0-.32.26-.57.58-.57.32,0,.57.26.57.57v13.08c0,.3-.25.55-.55.55,0,0-.02,0-.02,0Z"/>
      <path class="cls-20" d="M323.04,997.1c-.3.01-.56-.22-.58-.53,0,0,0-.02,0-.02v-13.08c0-.32.26-.58.57-.58.32,0,.58.26.58.57h0v13.09c0,.3-.25.55-.55.55,0,0-.02,0-.02,0Z"/>
      <path class="cls-20" d="M329.06,997.1c-.3,0-.55-.25-.55-.55h0v-13.08c-.01-.3.22-.56.53-.58,0,0,.02,0,.02,0,.32,0,.58.26.58.58v13.08c0,.3-.25.55-.55.55,0,0-.02,0-.02,0Z"/>
      <path class="cls-20" d="M335.11,997.1c-.3.01-.56-.22-.58-.53,0,0,0-.02,0-.02v-13.08c0-.32.26-.58.57-.58.32,0,.58.26.58.57h0v13.09c0,.3-.25.55-.55.55,0,0-.02,0-.02,0Z"/>
      <path class="cls-20" d="M341.13,997.1c-.3,0-.55-.25-.55-.55h0v-13.08c-.06-.31.14-.62.45-.68.31-.06.62.14.68.45.02.08.02.16,0,.23v13.08c0,.3-.25.55-.55.55,0,0-.02,0-.02,0Z"/>
      <path class="cls-20" d="M347.18,997.1c-.3.01-.56-.22-.58-.53,0,0,0-.02,0-.02v-13.08c0-.32.26-.58.57-.58.32,0,.58.26.58.57h0v13.09c0,.3-.25.55-.55.55,0,0-.02,0-.02,0Z"/>
      <path class="cls-20" d="M353.21,997.1c-.3,0-.55-.25-.55-.55h0v-13.08c-.06-.31.14-.62.45-.68.31-.06.62.14.68.45.02.08.02.16,0,.23v13.08c0,.3-.25.55-.55.55,0,0-.02,0-.02,0Z"/>
      <path class="cls-20" d="M359.26,997.1c-.3.01-.56-.22-.58-.53,0,0,0-.02,0-.02v-13.08c0-.32.26-.58.57-.58.32,0,.58.26.58.57h0v13.09c0,.3-.25.55-.55.55,0,0-.02,0-.02,0Z"/>
      <path class="cls-20" d="M365.3,997.1c-.3.01-.56-.22-.58-.53,0,0,0-.02,0-.02v-13.08c-.06-.31.14-.62.45-.68.31-.06.62.14.68.45.02.08.02.16,0,.23v13.08c0,.3-.25.55-.55.55h0Z"/>
      <path class="cls-20" d="M371.33,997.1c-.3.01-.56-.22-.58-.53,0,0,0-.02,0-.02v-13.08c0-.32.26-.57.58-.57.32,0,.57.26.57.57v13.08c0,.3-.25.55-.55.55,0,0-.02,0-.02,0Z"/>
      <path class="cls-20" d="M377.38,997.1c-.3.01-.56-.22-.58-.53,0,0,0-.02,0-.02v-13.08c-.06-.31.14-.62.45-.68.31-.06.62.14.68.45.02.08.02.16,0,.23v13.08c0,.3-.25.55-.55.55h0Z"/>
    </g>
    <path class="cls-1" d="M385.99,966.28v10.95c0,.99-.4,1.93-1.1,2.62-.7.7-1.65,1.09-2.64,1.08h-114.64c-.37-.1-.72-.26-1.03-.48h0c-.2-.13-.39-.28-.55-.46-.13-.11-.25-.24-.34-.38h0v-.14h0c-.11-.11-.19-.24-.24-.38h0v-.24s-.01-.08,0-.12v-.14c-.01-.09-.01-.18,0-.26h0c-.01-.17-.01-.34,0-.5v-11.07c0-.74.23-1.46.65-2.06.12-.21.27-.4.46-.55.44-.47,1.01-.8,1.63-.96h0c.29-.08.59-.12.89-.12h114.61c.05-.03.12-.03.17,0,.04-.02.08-.02.12,0h-.38c.21.08.42.18.6.31.17.1.32.22.46.36l.19.19c.09.09.17.2.24.31l.31.41c-.01.06-.01.11,0,.17,0,.17.12.29.17.46.09.19.15.39.17.6.1.14.19.28.26.43Z"/>
    <path class="cls-6" d="M385.85,966.28v10.95c0,2.04-1.65,3.7-3.7,3.7,0,0-.02,0-.02,0h-114.52c-.37-.1-.72-.26-1.03-.48h0c-.2-.13-.39-.28-.55-.46-.13-.11-.25-.24-.34-.38h0v-.14c-.06-.07-.12-.15-.17-.24-.04-.08-.08-.16-.12-.24h0v-.24c0-.09,0-.18,0-.26-.01-.09-.01-.18,0-.26h0c-.01-.17-.01-.34,0-.5v-11.07c0-.74.23-1.46.65-2.06.12-.21.27-.4.46-.55.44-.47,1.01-.8,1.63-.96h0c.29-.08.59-.12.89-.12h114.8c.21.08.42.18.6.31.17.1.32.22.46.36l.19.19c.09.09.17.2.24.31l.31.41c-.01.06-.01.11,0,.17,0,.17.12.29.17.46.07.2.13.4.17.6-.03.18-.07.35-.12.53Z"/>
    <path class="cls-10" d="M384.17,963.16h-90.01c-1.24-.08-2.32.86-2.4,2.11,0,.05,0,.1,0,.15v12c0,1.12-.9,2.03-2.02,2.04h-24.19v-.14h0l-.12-.14c-.04-.08-.08-.16-.12-.24h0v-.24s-.01-.08,0-.12c-.06-.13-.1-.27-.12-.41h0c-.01-.17-.01-.34,0-.5v-11.07c0-.74.23-1.46.65-2.06.12-.21.27-.4.46-.55.44-.47,1.01-.8,1.63-.96h0c.29-.08.59-.12.89-.12h114.95c.14.07.28.16.41.26Z"/>
    <path class="cls-16" d="M385.85,966.28v10.95c0,2.04-1.65,3.7-3.7,3.7,0,0-.02,0-.02,0h-114.52c-.37-.1-.72-.26-1.03-.48h89.89c1.25,0,2.26-1.01,2.26-2.26,0,0,0-.02,0-.02v-12c0-1.13.91-2.04,2.04-2.04h24.29l.31.41c-.01.06-.01.11,0,.17,0,.17.12.29.17.46.07.2.13.4.17.6.06.17.11.35.14.53Z"/>
    <g class="cls-18">
      <path class="cls-20" d="M270.97,978.83c-.3,0-.55-.25-.55-.55h0v-13.18c-.06-.31.14-.62.45-.68.31-.06.62.14.68.45.02.08.02.16,0,.23v13.08c.05.3-.15.59-.45.64-.04,0-.09.01-.13,0Z"/>
      <path class="cls-20" d="M277.02,978.83c-.3.01-.56-.22-.58-.53,0,0,0-.02,0-.02v-13.18c0-.32.26-.57.58-.57.32,0,.57.26.57.57v13.08c.05.3-.15.59-.45.64-.04,0-.09.01-.13,0Z"/>
      <path class="cls-20" d="M283.05,978.83c-.3,0-.55-.25-.55-.55h0v-13.18c-.06-.31.14-.62.45-.68.31-.06.62.14.68.45.02.08.02.16,0,.23v13.08c.05.3-.15.59-.45.64-.04,0-.09.01-.13,0Z"/>
      <path class="cls-20" d="M289.1,978.83c-.3.01-.56-.22-.58-.53,0,0,0-.02,0-.02v-13.18c0-.32.26-.57.58-.57.32,0,.57.26.57.57v13.08c.05.3-.15.59-.45.64-.04,0-.09.01-.13,0Z"/>
      <path class="cls-20" d="M295.12,978.83c-.3,0-.55-.25-.55-.55h0v-13.18c-.06-.31.14-.62.45-.68.31-.06.62.14.68.45.02.08.02.16,0,.23v13.08c.05.3-.15.59-.45.64-.04,0-.09.01-.13,0Z"/>
      <path class="cls-20" d="M301.17,978.83c-.3.01-.56-.22-.58-.53,0,0,0-.02,0-.02v-13.18c0-.32.26-.57.58-.57.32,0,.57.26.57.57v13.08c.05.3-.15.59-.45.64-.04,0-.09.01-.13,0Z"/>
      <path class="cls-20" d="M307.22,978.83c-.3.01-.56-.22-.58-.53,0,0,0-.02,0-.02v-13.18c-.06-.31.14-.62.45-.68.31-.06.62.14.68.45.02.08.02.16,0,.23v13.08c.05.3-.15.59-.45.64-.03,0-.07,0-.1,0Z"/>
      <path class="cls-20" d="M313.24,978.83c-.3.01-.56-.22-.58-.53,0,0,0-.02,0-.02v-13.18c0-.32.26-.57.58-.57.32,0,.57.26.57.57v13.08c.05.3-.15.59-.45.64-.04,0-.09.01-.13,0Z"/>
      <path class="cls-20" d="M319.29,978.83c-.3.01-.56-.22-.58-.53,0,0,0-.02,0-.02v-13.18c-.06-.31.14-.62.45-.68.31-.06.62.14.68.45.02.08.02.16,0,.23v13.08c.05.3-.15.59-.45.64-.03,0-.07,0-.1,0Z"/>
      <path class="cls-20" d="M325.32,978.83c-.3.01-.56-.22-.58-.53,0,0,0-.02,0-.02v-13.18c0-.32.26-.57.58-.57.32,0,.57.26.57.57v13.08c.05.3-.15.59-.45.64-.04,0-.09.01-.13,0Z"/>
      <path class="cls-20" d="M331.36,978.83c-.3.01-.56-.22-.58-.53,0,0,0-.02,0-.02v-13.18c0-.32.26-.58.57-.58.32,0,.58.26.58.57h0v13.09c.05.3-.15.59-.45.64-.04,0-.09.01-.13,0Z"/>
      <path class="cls-20" d="M337.39,978.83c-.3.01-.56-.22-.58-.53,0,0,0-.02,0-.02v-13.18c0-.32.26-.58.57-.58.32,0,.58.26.58.57h0v13.09c.05.3-.15.59-.45.64-.04,0-.09.01-.13,0Z"/>
      <path class="cls-20" d="M343.44,978.83c-.3.01-.56-.22-.58-.53,0,0,0-.02,0-.02v-13.18c0-.32.26-.58.57-.58.32,0,.58.26.58.57h0v13.09c.05.3-.15.59-.45.64-.04,0-.09.01-.13,0Z"/>
      <path class="cls-20" d="M349.46,978.83c-.3.01-.56-.22-.58-.53,0,0,0-.02,0-.02v-13.18c0-.32.26-.57.58-.57.32,0,.57.26.57.57v13.08c.05.3-.15.59-.45.64-.04,0-.09.01-.13,0Z"/>
      <path class="cls-20" d="M355.51,978.83c-.3.01-.56-.22-.58-.53,0,0,0-.02,0-.02v-13.18c0-.32.26-.58.57-.58.32,0,.58.26.58.57h0v13.09c.05.3-.15.59-.45.64-.04,0-.09.01-.13,0Z"/>
      <path class="cls-20" d="M361.54,978.83c-.3,0-.55-.25-.55-.55h0v-13.18c-.06-.31.14-.62.45-.68.31-.06.62.14.68.45.02.08.02.16,0,.23v13.08c.05.3-.15.59-.45.64-.04,0-.09.01-.13,0Z"/>
      <path class="cls-20" d="M367.58,978.83c-.3.01-.56-.22-.58-.53,0,0,0-.02,0-.02v-13.18c0-.32.26-.58.57-.58.32,0,.58.26.58.57h0v13.09c.05.3-.15.59-.45.64-.04,0-.09.01-.13,0Z"/>
      <path class="cls-20" d="M373.61,978.83c-.3,0-.55-.25-.55-.55h0v-13.18c-.06-.31.14-.62.45-.68.31-.06.62.14.68.45.02.08.02.16,0,.23v13.08c.05.3-.15.59-.45.64-.04,0-.09.01-.13,0Z"/>
      <path class="cls-20" d="M379.66,978.83c-.3.01-.56-.22-.58-.53,0,0,0-.02,0-.02v-13.18c0-.32.26-.58.57-.58.32,0,.58.26.58.57h0v13.09c.05.3-.15.59-.45.64-.04,0-.09.01-.13,0Z"/>
    </g>
    <path class="cls-1" d="M383.59,947.99v10.97c0,.49-.1.98-.29,1.44h0c-.17.43-.43.83-.77,1.15-.49.47-1.09.8-1.75.96-.29.08-.59.12-.89.12h-113.7c-.25.02-.5.02-.74,0-.24-.06-.47-.13-.7-.22-.2-.07-.39-.17-.55-.31h0l-.5-.38c-.13-.13-.24-.28-.34-.43v-.12h0c-.12-.14-.21-.3-.26-.48-.05-.08-.09-.17-.12-.26-.02-.14-.02-.27,0-.41v-.19c-.01-.2-.01-.4,0-.6v-10.97c0-1.7,1.15-3.19,2.81-3.6.3-.03.59-.03.89,0h114.61c.05-.03.12-.03.17,0h-.26l.6.31.46.38.19.17c.24.22.43.49.55.79h0c0,.17.17.36.22.5.21.36.34.76.38,1.18Z"/>
    <path class="cls-6" d="M383.59,948.01v10.95c.01.49-.08.98-.26,1.44h0c-.18.43-.44.82-.77,1.15-.46.46-1.04.8-1.68.96-.31.1-.63.15-.96.14h-113.72c-.25.04-.5.04-.74,0-.24-.06-.47-.13-.7-.22-.21-.08-.41-.18-.6-.31h0l-.5-.38c-.13-.13-.24-.28-.34-.43v-.12h0l-.14-.22h0c-.1-.17-.18-.36-.24-.55-.02-.14-.02-.27,0-.41v-.19c-.01-.2-.01-.4,0-.6v-10.97c0-1.7,1.15-3.19,2.81-3.6.3-.03.59-.03.89,0h114.8l.6.31.46.38.19.17.24.34c.13.13.24.29.31.46h0c0,.17.17.36.22.5.12.39.17.79.14,1.2Z"/>
    <path class="cls-10" d="M381.89,944.89h-90.03c-1.25,0-2.26,1.01-2.26,2.26,0,0,0,.02,0,.02v12c0,1.13-.91,2.04-2.04,2.04h-24.29v-.12h0v-.14h0v-.29c-.05-.08-.09-.17-.12-.26-.02-.14-.02-.27,0-.41v-.19c-.01-.2-.01-.4,0-.6v-10.97c0-1.7,1.15-3.19,2.81-3.6.3-.03.59-.03.89,0h114.85l.19.26Z"/>
    <path class="cls-16" d="M383.59,948.01v10.95c.01.49-.08.98-.26,1.44h0c-.18.43-.44.82-.77,1.15-.46.46-1.04.8-1.68.96-.31.1-.63.15-.96.14h-113.72c-.25.04-.5.04-.74,0-.24-.06-.47-.13-.7-.22-.21-.08-.41-.18-.6-.31h90.03c1.25,0,2.26-1.01,2.26-2.26h0v-12c.01-1.12.92-2.02,2.04-2.02h24.29c.13.13.24.29.31.46h0c0,.17.17.36.22.5.17.38.26.79.29,1.2Z"/>
    <g class="cls-18">
      <path class="cls-20" d="M268.69,960.56c-.3.01-.56-.22-.58-.53,0,0,0-.02,0-.02v-13.08c0-.32.26-.58.57-.58.32,0,.58.26.58.57h0v13.09c0,.3-.25.55-.55.55,0,0-.02,0-.02,0Z"/>
      <path class="cls-20" d="M274.74,960.56c-.3.01-.56-.22-.58-.53,0,0,0-.02,0-.02v-13.08c-.06-.31.14-.62.45-.68.31-.06.62.14.68.45.02.08.02.16,0,.23v13.08c0,.3-.25.55-.55.55h0Z"/>
      <path class="cls-20" d="M280.77,960.56c-.3.01-.56-.22-.58-.53,0,0,0-.02,0-.02v-13.08c0-.32.26-.57.58-.57.32,0,.57.26.57.57v13.08c0,.3-.25.55-.55.55,0,0-.02,0-.02,0Z"/>
      <path class="cls-20" d="M286.82,960.56c-.3.01-.56-.22-.58-.53,0,0,0-.02,0-.02v-13.08c-.06-.31.14-.62.45-.68.31-.06.62.14.68.45.02.08.02.16,0,.23v13.08c0,.3-.25.55-.55.55h0Z"/>
      <path class="cls-20" d="M292.84,960.56c-.3.01-.56-.22-.58-.53,0,0,0-.02,0-.02v-13.08c0-.32.26-.57.58-.57.32,0,.57.26.57.57v13.08c0,.3-.25.55-.55.55,0,0-.02,0-.02,0Z"/>
      <path class="cls-20" d="M298.89,960.56c-.3.01-.56-.22-.58-.53,0,0,0-.02,0-.02v-13.08c-.06-.31.14-.62.45-.68.31-.06.62.14.68.45.02.08.02.16,0,.23v13.08c0,.3-.25.55-.55.55h0Z"/>
      <path class="cls-20" d="M304.91,960.56c-.3.01-.56-.22-.58-.53,0,0,0-.02,0-.02v-13.08c0-.32.26-.57.58-.57.32,0,.57.26.57.57v13.08c0,.3-.25.55-.55.55,0,0-.02,0-.02,0Z"/>
      <path class="cls-20" d="M310.96,960.56c-.3.01-.56-.22-.58-.53,0,0,0-.02,0-.02v-13.08c0-.32.26-.58.57-.58.32,0,.58.26.58.57h0v13.09c0,.3-.25.55-.55.55,0,0-.02,0-.02,0Z"/>
      <path class="cls-20" d="M316.99,960.56c-.3.01-.56-.22-.58-.53,0,0,0-.02,0-.02v-13.08c0-.32.26-.57.58-.57.32,0,.57.26.57.57v13.08c0,.3-.25.55-.55.55,0,0-.02,0-.02,0Z"/>
      <path class="cls-20" d="M323.04,960.56c-.3.01-.56-.22-.58-.53,0,0,0-.02,0-.02v-13.08c0-.32.26-.58.57-.58.32,0,.58.26.58.57h0v13.09c0,.3-.25.55-.55.55,0,0-.02,0-.02,0Z"/>
      <path class="cls-20" d="M329.06,960.56c-.3,0-.55-.25-.55-.55h0v-13.08c-.01-.3.22-.56.53-.58,0,0,.02,0,.02,0,.32,0,.58.26.58.58v13.08c0,.3-.25.55-.55.55,0,0-.02,0-.02,0Z"/>
      <path class="cls-20" d="M335.11,960.56c-.3.01-.56-.22-.58-.53,0,0,0-.02,0-.02v-13.08c0-.32.26-.58.57-.58.32,0,.58.26.58.57h0v13.09c0,.3-.25.55-.55.55,0,0-.02,0-.02,0Z"/>
      <path class="cls-20" d="M341.13,960.56c-.3,0-.55-.25-.55-.55h0v-13.08c-.06-.31.14-.62.45-.68.31-.06.62.14.68.45.02.08.02.16,0,.23v13.08c0,.3-.25.55-.55.55,0,0-.02,0-.02,0Z"/>
      <path class="cls-20" d="M347.18,960.56c-.3.01-.56-.22-.58-.53,0,0,0-.02,0-.02v-13.08c0-.32.26-.58.57-.58.32,0,.58.26.58.57h0v13.09c0,.3-.25.55-.55.55,0,0-.02,0-.02,0Z"/>
      <path class="cls-20" d="M353.21,960.56c-.3,0-.55-.25-.55-.55h0v-13.08c-.06-.31.14-.62.45-.68.31-.06.62.14.68.45.02.08.02.16,0,.23v13.08c0,.3-.25.55-.55.55,0,0-.02,0-.02,0Z"/>
      <path class="cls-20" d="M359.26,960.56c-.3.01-.56-.22-.58-.53,0,0,0-.02,0-.02v-13.08c0-.32.26-.58.57-.58.32,0,.58.26.58.57h0v13.09c0,.3-.25.55-.55.55,0,0-.02,0-.02,0Z"/>
      <path class="cls-20" d="M365.3,960.56c-.3.01-.56-.22-.58-.53,0,0,0-.02,0-.02v-13.08c-.06-.31.14-.62.45-.68.31-.06.62.14.68.45.02.08.02.16,0,.23v13.08c0,.3-.25.55-.55.55h0Z"/>
      <path class="cls-20" d="M371.33,960.56c-.3.01-.56-.22-.58-.53,0,0,0-.02,0-.02v-13.08c0-.32.26-.57.58-.57.32,0,.57.26.57.57v13.08c0,.3-.25.55-.55.55,0,0-.02,0-.02,0Z"/>
      <path class="cls-20" d="M377.38,960.56c-.3.01-.56-.22-.58-.53,0,0,0-.02,0-.02v-13.08c-.06-.31.14-.62.45-.68.31-.06.62.14.68.45.02.08.02.16,0,.23v13.08c0,.3-.25.55-.55.55h0Z"/>
    </g>
    <path class="cls-1" d="M378.99,929.72v10.97c0,1.7-1.16,3.18-2.81,3.6-.3.03-.61.03-.91,0h-114.2c-.13.03-.26.03-.38,0-.38-.1-.75-.26-1.08-.48-.36-.23-.66-.53-.89-.89h0c-.03-.06-.03-.13,0-.19h0s-.01-.08,0-.12v-.14c.01-.06.01-.13,0-.19h0s-.01-.08,0-.12v-.14c0-.09,0-.18,0-.26h0c-.01-.17-.01-.34,0-.5v-11.09c0-.97.38-1.91,1.08-2.59.55-.54,1.26-.9,2.02-1.03h0c.16-.02.32-.02.48,0h113.65c.17-.03.34-.03.5,0h.26l.67.22h.17c.14.06.27.14.38.24h0c.16.08.31.2.43.34.05.06.11.12.17.17.09.09.17.2.24.31.08.12.17.23.26.34.08.13.14.27.19.41.01.04.01.08,0,.12.07.12.12.25.14.38-.1.24-.23.46-.38.67Z"/>
    <path class="cls-6" d="M378.99,929.72v10.97c0,1.7-1.16,3.18-2.81,3.6-.3.03-.61.03-.91,0h-114.2c-.13.03-.26.03-.38,0-.38-.1-.75-.26-1.08-.48-.36-.23-.66-.53-.89-.89h0l-.19-.31c-.07-.07-.12-.16-.14-.26.01-.06.01-.13,0-.19h0c0-.09,0-.18,0-.26,0-.09,0-.18,0-.26h0c-.01-.17-.01-.34,0-.5v-11.09c0-.97.38-1.91,1.08-2.59.53-.54,1.21-.9,1.94-1.03h0c.2-.02.4-.02.6,0h114.42c.23.05.46.12.67.22.05-.02.11-.02.17,0,.16.06.3.14.43.24h0c.16.08.31.2.43.34.05.06.11.12.17.17.09.09.17.2.24.31.08.12.17.23.26.34.08.13.14.27.19.41.01.04.01.08,0,.12.07.12.12.25.14.38-.02.27-.07.53-.14.79Z"/>
    <path class="cls-10" d="M377.31,926.7h-90.01c-1.25-.01-2.27.99-2.28,2.23,0,0,0,.02,0,.02v12c-.01,1.11-.91,2-2.02,2.02h-24.22c-.06-.09-.12-.19-.17-.29h0s-.01-.08,0-.12c-.06-.11-.11-.22-.14-.34h0s-.01-.08,0-.12c-.06-.13-.1-.27-.12-.41h0c-.01-.17-.01-.34,0-.5v-11.09c0-.97.38-1.91,1.08-2.59.53-.54,1.21-.9,1.94-1.03h0c.2-.02.4-.02.6,0h114.42c.23.05.46.12.67.22.05-.02.11-.02.17,0,.02,0,.05,0,.07,0Z"/>
    <path class="cls-16" d="M378.99,929.72v10.97c0,1.7-1.16,3.18-2.81,3.6-.3.03-.61.03-.91,0h-114.2c-.13.03-.26.03-.38,0-.38-.1-.75-.26-1.08-.48h90.01c1.25,0,2.26-1.01,2.26-2.26,0,0,0-.02,0-.02v-12c.01-1.12.92-2.03,2.04-2.04h24.29c.08.12.17.23.26.34.08.13.14.27.19.41.01.04.01.08,0,.12.07.12.12.25.14.38.11.32.18.65.19.98Z"/>
    <g class="cls-18">
      <path class="cls-20" d="M264.11,942.3c-.3.01-.56-.22-.58-.53,0,0,0-.02,0-.02v-13.08c0-.32.26-.57.58-.57.32,0,.57.26.57.57v13.08c0,.3-.25.55-.55.55,0,0-.02,0-.02,0Z"/>
      <path class="cls-20" d="M270.16,942.3c-.3.01-.56-.22-.58-.53,0,0,0-.02,0-.02v-13.08c0-.32.26-.58.57-.58.32,0,.58.26.58.57h0v13.09c0,.3-.25.55-.55.55,0,0-.02,0-.02,0Z"/>
      <path class="cls-20" d="M276.18,942.3c-.3.01-.56-.22-.58-.53,0,0,0-.02,0-.02v-13.08c0-.32.26-.58.57-.58.32,0,.58.26.58.57h0v13.09c0,.3-.25.55-.55.55,0,0-.02,0-.02,0Z"/>
      <path class="cls-20" d="M282.23,942.3c-.3.01-.56-.22-.58-.53,0,0,0-.02,0-.02v-13.08c0-.32.26-.58.57-.58.32,0,.58.26.58.57h0v13.09c0,.3-.25.55-.55.55,0,0-.02,0-.02,0Z"/>
      <path class="cls-20" d="M288.26,942.3c-.3,0-.55-.25-.55-.55h0v-13.08c-.06-.31.14-.62.45-.68.31-.06.62.14.68.45.02.08.02.16,0,.23v13.08c0,.3-.25.55-.55.55,0,0-.02,0-.02,0Z"/>
      <path class="cls-20" d="M294.3,942.3c-.3.01-.56-.22-.58-.53,0,0,0-.02,0-.02v-13.08c0-.32.26-.58.57-.58.32,0,.58.26.58.57h0v13.09c0,.3-.25.55-.55.55,0,0-.02,0-.02,0Z"/>
      <path class="cls-20" d="M300.33,942.3c-.3,0-.55-.25-.55-.55h0v-13.08c-.06-.31.14-.62.45-.68.31-.06.62.14.68.45.02.08.02.16,0,.23v13.08c0,.3-.25.55-.55.55,0,0-.02,0-.02,0Z"/>
      <path class="cls-20" d="M306.38,942.3c-.3.01-.56-.22-.58-.53,0,0,0-.02,0-.02v-13.08c0-.32.26-.58.57-.58.32,0,.58.26.58.57h0v13.09c0,.3-.25.55-.55.55,0,0-.02,0-.02,0Z"/>
      <path class="cls-20" d="M312.43,942.3c-.3.01-.56-.22-.58-.53,0,0,0-.02,0-.02v-13.08c-.06-.31.14-.62.45-.68.31-.06.62.14.68.45.02.08.02.16,0,.23v13.08c0,.3-.25.55-.55.55h0Z"/>
      <path class="cls-20" d="M318.45,942.3c-.3.01-.56-.22-.58-.53,0,0,0-.02,0-.02v-13.08c0-.32.26-.58.57-.58.32,0,.58.26.58.57h0v13.09c0,.3-.25.55-.55.55,0,0-.02,0-.02,0Z"/>
      <path class="cls-20" d="M324.5,942.3c-.3.01-.56-.22-.58-.53,0,0,0-.02,0-.02v-13.08c-.06-.31.14-.62.45-.68.31-.06.62.14.68.45.02.08.02.16,0,.23v13.08c0,.3-.25.55-.55.55h0Z"/>
      <path class="cls-20" d="M330.52,942.3c-.3.01-.56-.22-.58-.53,0,0,0-.02,0-.02v-13.08c0-.32.26-.57.58-.57.32,0,.57.26.57.57v13.08c0,.3-.25.55-.55.55,0,0-.02,0-.02,0Z"/>
      <path class="cls-20" d="M336.57,942.3c-.3.01-.56-.22-.58-.53,0,0,0-.02,0-.02v-13.08c-.06-.31.14-.62.45-.68.31-.06.62.14.68.45.02.08.02.16,0,.23v13.08c0,.3-.25.55-.55.55h0Z"/>
      <path class="cls-20" d="M342.6,942.3c-.3.01-.56-.22-.58-.53,0,0,0-.02,0-.02v-13.08c0-.32.26-.57.58-.57.32,0,.57.26.57.57v13.08c0,.3-.25.55-.55.55,0,0-.02,0-.02,0Z"/>
      <path class="cls-20" d="M348.65,942.3c-.3.01-.56-.22-.58-.53,0,0,0-.02,0-.02v-13.08c0-.32.26-.57.58-.57.32,0,.57.26.57.57v13.08c0,.3-.25.55-.55.55,0,0-.02,0-.02,0Z"/>
      <path class="cls-20" d="M354.79,942.3c-.3.01-.56-.22-.58-.53,0,0,0-.02,0-.02v-13.08c0-.32.26-.57.58-.57.32,0,.57.26.57.57v13.08c0,.3-.25.55-.55.55,0,0-.02,0-.02,0Z"/>
      <path class="cls-20" d="M360.72,942.3c-.3.01-.56-.22-.58-.53,0,0,0-.02,0-.02v-13.08c0-.32.26-.57.58-.57.32,0,.57.26.57.57v13.08c0,.3-.25.55-.55.55,0,0-.02,0-.02,0Z"/>
      <path class="cls-20" d="M366.79,942.3c-.3.01-.56-.22-.58-.53,0,0,0-.02,0-.02v-13.08c0-.32.26-.57.58-.57.32,0,.57.26.57.57v13.08c0,.3-.25.55-.55.55,0,0-.02,0-.02,0Z"/>
      <path class="cls-20" d="M372.79,942.3c-.3.01-.56-.22-.58-.53,0,0,0-.02,0-.02v-13.08c0-.32.26-.58.57-.58.32,0,.58.26.58.57h0v13.09c0,.3-.25.55-.55.55,0,0-.02,0-.02,0Z"/>
    </g>
    <path class="cls-1" d="M378.99,911.48v10.95c0,.98-.38,1.92-1.08,2.62-.55.54-1.26.9-2.02,1.03h0c-.17.03-.34.03-.5,0h-113.77c-.16.02-.32.02-.48,0h-.26c-.24-.06-.47-.14-.7-.24-.2-.05-.38-.15-.53-.29h0c-.18-.11-.35-.24-.5-.38-.14-.12-.25-.27-.34-.43h0s-.01-.08,0-.12c-.1-.12-.17-.26-.22-.41-.05-.09-.09-.19-.12-.29-.01-.14-.01-.27,0-.41v-.19c-.01-.2-.01-.4,0-.6v-10.97c0-2.04,1.65-3.7,3.7-3.7h114.85l.6.31c.17.11.32.24.46.38l.19.17c.09.1.17.2.24.31.1.13.19.26.26.41.07.06.12.15.14.24l.14.34c.01.06.01.11,0,.17.06.14.1.28.12.43-.04.23-.1.46-.19.67Z"/>
    <path class="cls-6" d="M378.99,911.48v10.95c0,.98-.38,1.92-1.08,2.62-.53.53-1.21.89-1.94,1.03h-114.35c-.2.02-.4.02-.6,0h-.14c-.24-.06-.47-.14-.7-.24-.21-.06-.4-.16-.58-.29h0c-.18-.11-.35-.24-.5-.38-.14-.12-.25-.27-.34-.43h0l-.19-.29c-.09-.17-.17-.34-.22-.53-.01-.14-.01-.27,0-.41v-.19c-.01-.2-.01-.4,0-.6v-10.97c0-2.04,1.65-3.7,3.7-3.7h114.54-.19.12l.6.31c.17.11.32.24.46.38l.19.17c.09.1.17.2.24.31.1.13.19.26.26.41.07.06.12.15.14.24l.14.34c.01.06.01.11,0,.17.06.14.1.28.12.43.13.21.24.44.31.67Z"/>
    <path class="cls-10" d="M377.31,908.36h-90.01c-1.25-.01-2.27.99-2.28,2.23,0,.02,0,.03,0,.05v12c0,1.12-.9,2.03-2.02,2.04h-24.22c-.06-.07-.1-.14-.14-.22l-.12-.17c0-.08,0-.16,0-.24-.05-.09-.09-.19-.12-.29-.01-.14-.01-.27,0-.41v-.19c-.01-.2-.01-.4,0-.6v-10.97c0-2.04,1.65-3.7,3.7-3.7h114.54-.24.14l.77.46Z"/>
    <path class="cls-16" d="M378.99,911.48v10.95c0,.98-.38,1.92-1.08,2.62-.53.53-1.21.89-1.94,1.03h-114.35c-.2.02-.4.02-.6,0h-.14c-.24-.06-.47-.14-.7-.24-.21-.06-.4-.16-.58-.29h90.01c1.25,0,2.26-1.01,2.26-2.26h0v-12c.01-1.12.92-2.03,2.04-2.04h24.29c.1.13.19.26.26.41.07.06.12.15.14.24l.14.34c.01.06.01.11,0,.17.06.14.1.28.12.43.06.21.1.43.12.65Z"/>
    <g class="cls-18">
      <path class="cls-20" d="M264.11,924.06c-.32,0-.58-.26-.58-.58v-13.08c0-.32.26-.57.58-.57.32,0,.57.26.57.57v13.08c0,.32-.26.58-.58.58Z"/>
      <path class="cls-20" d="M270.16,924.06c-.32,0-.58-.26-.58-.58v-13.08c0-.32.26-.58.57-.58.32,0,.58.26.58.57h0v13.09c0,.32-.26.58-.58.58Z"/>
      <path class="cls-20" d="M276.18,924.06c-.32,0-.58-.26-.58-.58v-13.08c0-.32.26-.57.58-.57.32,0,.57.26.57.57v13.08c0,.32-.26.58-.58.58Z"/>
      <path class="cls-20" d="M282.23,924.06c-.32,0-.58-.26-.58-.58v-13.08c0-.32.26-.58.57-.58.32,0,.58.26.58.57h0v13.09c0,.32-.26.58-.58.58Z"/>
      <path class="cls-20" d="M288.26,924.06c-.3,0-.55-.25-.55-.55,0,0,0-.02,0-.02v-13.08c-.06-.31.14-.62.45-.68.31-.06.62.14.68.45.02.08.02.16,0,.23v13.08c0,.32-.26.58-.58.58Z"/>
      <path class="cls-20" d="M294.3,924.06c-.32,0-.58-.26-.58-.58v-13.08c0-.32.26-.58.57-.58.32,0,.58.26.58.57h0v13.09c0,.32-.26.58-.58.58Z"/>
      <path class="cls-20" d="M300.33,924.06c-.3,0-.55-.25-.55-.55,0,0,0-.02,0-.02v-13.08c-.06-.31.14-.62.45-.68.31-.06.62.14.68.45.02.08.02.16,0,.23v13.08c0,.32-.26.58-.58.58Z"/>
      <path class="cls-20" d="M306.38,924.06c-.32,0-.58-.26-.58-.58v-13.08c0-.32.26-.58.57-.58.32,0,.58.26.58.57h0v13.09c0,.32-.26.58-.58.58Z"/>
      <path class="cls-20" d="M312.43,924.06c-.32,0-.58-.26-.58-.58v-13.08c-.06-.31.14-.62.45-.68.31-.06.62.14.68.45.02.08.02.16,0,.23v13.08c.01.3-.22.56-.53.58,0,0-.02,0-.02,0Z"/>
      <path class="cls-20" d="M318.45,924.06c-.32,0-.58-.26-.58-.58v-13.08c0-.32.26-.58.57-.58.32,0,.58.26.58.57h0v13.09c0,.32-.26.58-.58.58Z"/>
      <path class="cls-20" d="M324.5,924.06c-.32,0-.58-.26-.58-.58v-13.08c-.06-.31.14-.62.45-.68.31-.06.62.14.68.45.02.08.02.16,0,.23v13.08c.01.3-.22.56-.53.58,0,0-.02,0-.02,0Z"/>
      <path class="cls-20" d="M330.52,924.06c-.32,0-.58-.26-.58-.58v-13.08c0-.32.26-.57.58-.57.32,0,.57.26.57.57v13.08c0,.32-.26.58-.58.58Z"/>
      <path class="cls-20" d="M336.57,924.06c-.32,0-.58-.26-.58-.58v-13.08c-.06-.31.14-.62.45-.68.31-.06.62.14.68.45.02.08.02.16,0,.23v13.08c.01.3-.22.56-.53.58,0,0-.02,0-.02,0Z"/>
      <path class="cls-20" d="M342.6,924.06c-.32,0-.58-.26-.58-.58v-13.08c0-.32.26-.57.58-.57.32,0,.57.26.57.57v13.08c0,.32-.26.58-.58.58Z"/>
      <path class="cls-20" d="M348.65,924.06c-.32,0-.58-.26-.58-.58v-13.08c0-.32.26-.57.58-.57.32,0,.57.26.57.57v13.08c0,.32-.26.58-.58.58Z"/>
      <path class="cls-20" d="M354.79,924.06c-.32,0-.58-.26-.58-.58v-13.08c0-.32.26-.57.58-.57.32,0,.57.26.57.57v13.08c0,.32-.26.58-.58.58Z"/>
      <path class="cls-20" d="M360.72,924.06c-.32,0-.58-.26-.58-.58v-13.08c0-.32.26-.57.58-.57.32,0,.57.26.57.57v13.08c0,.32-.26.58-.58.58Z"/>
      <path class="cls-20" d="M366.79,924.06c-.32,0-.58-.26-.58-.58v-13.08c0-.32.26-.57.58-.57.32,0,.57.26.57.57v13.08c0,.32-.26.58-.58.58Z"/>
      <path class="cls-20" d="M372.79,924.06c-.32,0-.58-.26-.58-.58v-13.08c0-.32.26-.57.58-.57.32,0,.57.26.57.57v13.08c0,.32-.26.58-.58.58Z"/>
    </g>
    <path class="cls-1" d="M388.15,893.09v10.97c-.01,2.05-1.68,3.7-3.72,3.7h-114.52c-.4-.1-.78-.27-1.13-.5h0c-.2-.15-.4-.31-.58-.48-.13-.11-.24-.25-.31-.41h0v-.12h0c-.1-.11-.17-.24-.22-.38-.07-.12-.12-.25-.14-.38h0v-.14c0-.09,0-.18,0-.26h0c-.01-.17-.01-.34,0-.5v-11.47c0-.73.23-1.44.65-2.04.13-.2.28-.39.46-.55.47-.48,1.07-.81,1.73-.96.29-.08.59-.12.89-.12h114.52l.6.19h0c.15.06.29.14.41.24h0c.17.08.33.2.46.34.03.07.08.12.14.17.1.09.19.2.26.31l.29.41c-.01.06-.01.11,0,.17.08.14.14.3.17.46.1.19.15.39.17.6,0,.27-.04.54-.12.79Z"/>
    <path class="cls-6" d="M388.13,893.09v10.97c0,.98-.39,1.92-1.08,2.62-.69.7-1.63,1.09-2.62,1.08h-114.52c-.4-.1-.78-.27-1.13-.5h0c-.2-.15-.4-.31-.58-.48-.13-.11-.24-.25-.31-.41h0v-.12l-.17-.24c0-.08,0-.16,0-.24-.07-.12-.12-.25-.14-.38,0-.07,0-.14,0-.22,0-.09,0-.18,0-.26h0c-.01-.17-.01-.34,0-.5v-11.31c0-.73.23-1.44.65-2.04.13-.2.28-.39.46-.55.44-.48,1.02-.81,1.66-.96.31-.1.63-.15.96-.14h114.52l.6.19h0c.16.06.3.14.43.24h0c.17.08.33.2.46.34.03.07.08.12.14.17.1.09.19.2.26.31l.29.41c-.01.06-.01.11,0,.17.08.14.14.3.17.46.07.19.13.4.17.6-.05.28-.12.55-.22.82Z"/>
    <path class="cls-10" d="M386.45,890.09h-90.01c-1.25,0-2.26,1.01-2.26,2.26h0v12c-.01,1.12-.92,2.02-2.04,2.02h-24.29v-.12h0l-.12-.14c0-.08,0-.16,0-.24-.07-.12-.12-.25-.14-.38h0c-.06-.13-.1-.27-.12-.41h0c-.01-.17-.01-.34,0-.5v-11.47c0-.73.23-1.44.65-2.04.13-.2.28-.39.46-.55.44-.48,1.02-.81,1.66-.96.31-.1.63-.15.96-.14h114.52l.6.19h0c.08.16.13.33.14.5Z"/>
    <path class="cls-16" d="M388.13,893.09v10.97c0,.98-.39,1.92-1.08,2.62-.69.7-1.63,1.09-2.62,1.08h-114.52c-.4-.1-.78-.27-1.13-.5h89.99c1.25.01,2.27-.99,2.28-2.23,0-.02,0-.03,0-.05v-12c0-1.12.9-2.03,2.02-2.04h24.31l.29.41c-.01.06-.01.11,0,.17.08.14.14.3.17.46.07.19.13.4.17.6.05.17.09.35.12.53Z"/>
    <g class="cls-18">
      <path class="cls-20" d="M273.18,905.79c-.32,0-.58-.26-.58-.58v-13.08c0-.32.26-.57.58-.57.32,0,.57.26.57.57v13.08c0,.32-.26.58-.58.58Z"/>
      <path class="cls-20" d="M279.3,905.79c-.32,0-.58-.26-.58-.58v-13.08c0-.32.26-.58.57-.58.32,0,.58.26.58.57h0v13.09c0,.32-.26.58-.58.58Z"/>
      <path class="cls-20" d="M285.35,905.79c-.32,0-.58-.26-.58-.58v-13.08c0-.32.26-.57.58-.57.32,0,.57.26.57.57v13.08c0,.32-.26.58-.58.58Z"/>
      <path class="cls-20" d="M291.38,905.79c-.32,0-.58-.26-.58-.58v-13.08c0-.32.26-.58.57-.58.32,0,.58.26.58.57h0v13.09c0,.32-.26.58-.58.58Z"/>
      <path class="cls-20" d="M297.42,905.79c-.32,0-.58-.26-.58-.58v-13.08c0-.32.26-.57.58-.57.32,0,.57.26.57.57v13.08c0,.32-.26.58-.58.58Z"/>
      <path class="cls-20" d="M303.45,905.79c-.3,0-.55-.25-.55-.55,0,0,0-.02,0-.02v-13.08c-.06-.31.14-.62.45-.68.31-.06.62.14.68.45.02.08.02.16,0,.23v13.08c0,.32-.26.58-.58.58Z"/>
      <path class="cls-20" d="M309.5,905.79c-.32,0-.58-.26-.58-.58v-13.08c0-.32.26-.57.58-.57.32,0,.57.26.57.57v13.08c0,.32-.26.58-.58.58Z"/>
      <path class="cls-20" d="M315.52,905.79c-.3,0-.55-.25-.55-.55,0,0,0-.02,0-.02v-13.08c-.06-.31.14-.62.45-.68.31-.06.62.14.68.45.02.08.02.16,0,.23v13.08c0,.32-.26.58-.58.58Z"/>
      <path class="cls-20" d="M321.57,905.79c-.32,0-.58-.26-.58-.58v-13.08c0-.32.26-.57.58-.57.32,0,.57.26.57.57v13.08c0,.32-.26.58-.58.58Z"/>
      <path class="cls-20" d="M327.62,905.79c-.32,0-.58-.26-.58-.58v-13.08c-.06-.31.14-.62.45-.68.31-.06.62.14.68.45.02.08.02.16,0,.23v13.08c.01.3-.22.56-.53.58,0,0-.02,0-.02,0Z"/>
      <path class="cls-20" d="M333.64,905.79c-.32,0-.58-.26-.58-.58v-13.08c0-.32.26-.57.58-.57.32,0,.57.26.57.57v13.08c0,.32-.26.58-.58.58Z"/>
      <path class="cls-20" d="M339.69,905.79c-.32,0-.58-.26-.58-.58v-13.08c-.06-.31.14-.62.45-.68.31-.06.62.14.68.45.02.08.02.16,0,.23v13.08c.01.3-.22.56-.53.58,0,0-.02,0-.02,0Z"/>
      <path class="cls-20" d="M345.72,905.79c-.32,0-.58-.26-.58-.58v-13.08c0-.32.26-.57.58-.57.32,0,.57.26.57.57v13.08c0,.32-.26.58-.58.58Z"/>
      <path class="cls-20" d="M351.77,905.79c-.32,0-.58-.26-.58-.58v-13.08c-.06-.31.14-.62.45-.68.31-.06.62.14.68.45.02.08.02.16,0,.23v13.08c.01.3-.22.56-.53.58,0,0-.02,0-.02,0Z"/>
      <path class="cls-20" d="M357.79,905.79c-.32,0-.58-.26-.58-.58v-13.08c0-.32.26-.57.58-.57.32,0,.57.26.57.57v13.08c0,.32-.26.58-.58.58Z"/>
      <path class="cls-20" d="M363.84,905.79c-.32,0-.58-.26-.58-.58v-13.08c0-.32.26-.58.57-.58.32,0,.58.26.58.57h0v13.09c0,.32-.26.58-.58.58Z"/>
      <path class="cls-20" d="M369.86,905.79c-.32,0-.58-.26-.58-.58v-13.08c0-.32.26-.57.58-.57.32,0,.57.26.57.57v13.08c0,.32-.26.58-.58.58Z"/>
      <path class="cls-20" d="M375.91,905.79c-.32,0-.58-.26-.58-.58v-13.08c0-.32.26-.58.57-.58.32,0,.58.26.58.57h0v13.09c0,.32-.26.58-.58.58Z"/>
      <path class="cls-20" d="M381.94,905.79c-.3,0-.55-.25-.55-.55,0,0,0-.02,0-.02v-13.08c-.06-.31.14-.62.45-.68.31-.06.62.14.68.45.02.08.02.16,0,.23v13.08c0,.32-.26.58-.58.58Z"/>
    </g>
    <path class="cls-1" d="M383.59,874.92v10.97c0,.5-.09.99-.29,1.44h0c-.16.45-.42.85-.77,1.18-.46.46-1.04.8-1.68.96h0c-.29.08-.59.12-.89.12h-114.71c-.39-.09-.77-.26-1.1-.48-.34-.24-.64-.53-.89-.86v-.12h0c-.13-.13-.22-.3-.26-.48-.05-.07-.09-.15-.12-.24-.02-.14-.02-.27,0-.41v-.19c-.01-.2-.01-.4,0-.6v-10.97c-.01-2.04,1.63-3.71,3.67-3.72,0,0,.02,0,.02,0h114.61c.05-.03.12-.03.17,0h-.17l.6.31.46.36.19.19c.23.22.42.48.55.77h0c0,.17.17.36.22.5.22.39.35.82.38,1.27Z"/>
    <path class="cls-6" d="M383.59,874.95v10.95c.01.49-.08.97-.26,1.42h0c-.18.43-.44.83-.77,1.18-.46.46-1.04.8-1.68.96h0c-.29.08-.59.12-.89.12h-114.73c-.39-.09-.77-.26-1.1-.48-.34-.24-.64-.53-.89-.86v-.12h0l-.14-.22h0c-.1-.17-.18-.36-.24-.55-.02-.14-.02-.27,0-.41v-.19c-.01-.2-.01-.4,0-.6v-10.97c-.01-2.04,1.63-3.71,3.67-3.72,0,0,.02,0,.02,0h114.8l.6.31.46.36.19.19c.07.11.15.21.24.31.12.14.22.29.31.46h0c0,.17.17.36.22.5.16.44.22.9.19,1.37Z"/>
    <path class="cls-10" d="M381.89,871.83h-90.03c-1.25,0-2.26,1.01-2.26,2.26,0,0,0,.02,0,.02v12c0,1.13-.91,2.04-2.04,2.04h-24.29v-.12h0v-.12h0c0-.1,0-.21,0-.31-.05-.07-.09-.15-.12-.24-.02-.14-.02-.27,0-.41v-.19c-.01-.2-.01-.4,0-.6v-10.97c-.01-2.04,1.63-3.71,3.67-3.72,0,0,.02,0,.02,0h114.85l.19.36Z"/>
    <path class="cls-16" d="M383.59,874.95v10.95c.01.49-.08.97-.26,1.42h0c-.18.43-.44.83-.77,1.18-.46.46-1.04.8-1.68.96h0c-.29.08-.59.12-.89.12h-114.73c-.39-.09-.77-.26-1.1-.48h90.03c1.25,0,2.26-1.01,2.26-2.26h0v-12c.01-1.12.92-2.03,2.04-2.04h24.29c.12.14.22.29.31.46h0c0,.17.17.36.22.5.17.38.26.79.29,1.2Z"/>
    <g class="cls-18">
      <path class="cls-20" d="M268.69,887.52c-.32,0-.58-.26-.58-.58v-13.06c0-.32.26-.57.58-.57.32,0,.57.26.57.57v13.08c-.01.31-.27.55-.58.55Z"/>
      <path class="cls-20" d="M274.74,887.52c-.32,0-.58-.26-.58-.58v-13.06c-.06-.31.14-.62.45-.68.31-.06.62.14.68.45.02.08.02.16,0,.23v13.08c0,.3-.25.55-.55.55Z"/>
      <path class="cls-20" d="M280.77,887.52c-.32,0-.58-.26-.58-.58v-13.06c0-.32.26-.57.58-.57.32,0,.57.26.57.57v13.08c-.01.31-.27.55-.58.55Z"/>
      <path class="cls-20" d="M286.82,887.52c-.32,0-.58-.26-.58-.58v-13.06c-.06-.31.14-.62.45-.68.31-.06.62.14.68.45.02.08.02.16,0,.23v13.08c0,.3-.25.55-.55.55Z"/>
      <path class="cls-20" d="M292.84,887.52c-.32,0-.58-.26-.58-.58v-13.06c0-.32.26-.57.58-.57.32,0,.57.26.57.57v13.08c-.01.31-.27.55-.58.55Z"/>
      <path class="cls-20" d="M298.89,887.52c-.32,0-.58-.26-.58-.58v-13.06c-.06-.31.14-.62.45-.68.31-.06.62.14.68.45.02.08.02.16,0,.23v13.08c0,.3-.25.55-.55.55Z"/>
      <path class="cls-20" d="M304.91,887.52c-.32,0-.58-.26-.58-.58v-13.06c0-.32.26-.57.58-.57.32,0,.57.26.57.57v13.08c-.01.31-.27.55-.58.55Z"/>
      <path class="cls-20" d="M310.96,887.52c-.32,0-.58-.26-.58-.58v-13.06c0-.32.26-.58.57-.58.32,0,.58.26.58.57h0v13.09c-.01.31-.27.55-.58.55Z"/>
      <path class="cls-20" d="M316.99,887.52c-.32,0-.58-.26-.58-.58v-13.06c0-.32.26-.57.58-.57.32,0,.57.26.57.57v13.08c-.01.31-.27.55-.58.55Z"/>
      <path class="cls-20" d="M323.04,887.52c-.32,0-.58-.26-.58-.58v-13.06c0-.32.26-.58.57-.58.32,0,.58.26.58.57h0v13.09c-.01.31-.27.55-.58.55Z"/>
      <path class="cls-20" d="M329.06,887.52c-.3,0-.55-.25-.55-.55,0,0,0-.02,0-.02v-13.06c-.01-.3.22-.56.53-.58,0,0,.02,0,.02,0,.32,0,.58.26.58.58v13.08c-.01.31-.27.55-.58.55Z"/>
      <path class="cls-20" d="M335.11,887.52c-.32,0-.58-.26-.58-.58v-13.06c0-.32.26-.58.57-.58.32,0,.58.26.58.57h0v13.09c-.01.31-.27.55-.58.55Z"/>
      <path class="cls-20" d="M341.13,887.52c-.3,0-.55-.25-.55-.55,0,0,0-.02,0-.02v-13.06c-.06-.31.14-.62.45-.68.31-.06.62.14.68.45.02.08.02.16,0,.23v13.08c-.01.31-.27.55-.58.55Z"/>
      <path class="cls-20" d="M347.18,887.52c-.32,0-.58-.26-.58-.58v-13.06c0-.32.26-.58.57-.58.32,0,.58.26.58.57h0v13.09c-.01.31-.27.55-.58.55Z"/>
      <path class="cls-20" d="M353.21,887.52c-.3,0-.55-.25-.55-.55,0,0,0-.02,0-.02v-13.06c-.06-.31.14-.62.45-.68.31-.06.62.14.68.45.02.08.02.16,0,.23v13.08c-.01.31-.27.55-.58.55Z"/>
      <path class="cls-20" d="M359.26,887.52c-.32,0-.58-.26-.58-.58v-13.06c0-.32.26-.58.57-.58.32,0,.58.26.58.57h0v13.09c-.01.31-.27.55-.58.55Z"/>
      <path class="cls-20" d="M365.3,887.52c-.32,0-.58-.26-.58-.58v-13.06c-.06-.31.14-.62.45-.68.31-.06.62.14.68.45.02.08.02.16,0,.23v13.08c0,.3-.25.55-.55.55Z"/>
      <path class="cls-20" d="M371.33,887.52c-.32,0-.58-.26-.58-.58v-13.06c0-.32.26-.57.58-.57.32,0,.57.26.57.57v13.08c-.01.31-.27.55-.58.55Z"/>
      <path class="cls-20" d="M377.38,887.52c-.32,0-.58-.26-.58-.58v-13.06c-.06-.31.14-.62.45-.68.31-.06.62.14.68.45.02.08.02.16,0,.23v13.08c0,.3-.25.55-.55.55Z"/>
    </g>
    <rect class="cls-1" x="125.13" y="980.82" width="121.07" height="18.39" rx="3.72" ry="3.72"/>
    <path class="cls-6" d="M246.23,984.54v10.95c0,2.04-1.65,3.7-3.7,3.7,0,0-.02,0-.02,0h-113.65c-.73.05-1.46-.11-2.09-.48-1.04-.69-1.67-1.85-1.68-3.1v-11.07c-.01-2.05,1.64-3.73,3.7-3.74h113.65c1.16,0,2.25.55,2.93,1.49.54.63.85,1.43.86,2.26Z"/>
    <path class="cls-10" d="M125.16,995.46v-10.95c-.01-2.04,1.63-3.71,3.67-3.72,0,0,.02,0,.02,0h113.65c.73,0,1.43.23,2.04.62h-90.03c-1.25,0-2.26,1.01-2.26,2.26h0v12c-.01,1.12-.92,2.02-2.04,2.02h-24.29c-.51-.63-.78-1.42-.77-2.23Z"/>
    <path class="cls-16" d="M246.23,984.54v10.95c0,2.04-1.65,3.7-3.7,3.7,0,0-.02,0-.02,0h-113.65c-.73.05-1.46-.11-2.09-.48h90.01c1.25,0,2.26-1.01,2.26-2.26,0,0,0-.02,0-.02v-12c0-1.13.91-2.04,2.04-2.04h24.29c.52.6.83,1.36.86,2.16Z"/>
    <g class="cls-18">
      <path class="cls-20" d="M131.35,997.1c-.3.01-.56-.22-.58-.53,0,0,0-.02,0-.02v-13.08c0-.32.26-.58.58-.58s.58.26.58.58v13.08c0,.3-.25.55-.55.55,0,0-.02,0-.02,0Z"/>
      <path class="cls-20" d="M137.37,997.1c-.3,0-.55-.25-.55-.55h0v-13.08c-.06-.31.14-.62.45-.68.31-.06.62.14.68.45.02.08.02.16,0,.23v13.08c0,.3-.25.55-.55.55,0,0-.02,0-.02,0Z"/>
      <path class="cls-20" d="M143.42,997.1c-.3.01-.56-.22-.58-.53,0,0,0-.02,0-.02v-13.08c0-.32.26-.58.58-.58s.58.26.58.58v13.08c0,.3-.25.55-.55.55,0,0-.02,0-.02,0Z"/>
      <path class="cls-20" d="M149.45,997.1c-.3,0-.55-.25-.55-.55h0v-13.08c-.06-.31.14-.62.45-.68.31-.06.62.14.68.45.02.08.02.16,0,.23v13.08c0,.3-.25.55-.55.55,0,0-.02,0-.02,0Z"/>
      <path class="cls-20" d="M155.57,997.1c-.3.01-.56-.22-.58-.53,0,0,0-.02,0-.02v-13.08c0-.32.26-.58.58-.58s.58.26.58.58v13.08c0,.3-.25.55-.55.55,0,0-.02,0-.02,0Z"/>
      <path class="cls-20" d="M161.55,997.1c-.3.01-.56-.22-.58-.53,0,0,0-.02,0-.02v-13.08c-.06-.31.14-.62.45-.68.31-.06.62.14.68.45.02.08.02.16,0,.23v13.08c0,.3-.25.55-.55.55h0Z"/>
      <path class="cls-20" d="M167.57,997.1c-.3.01-.56-.22-.58-.53,0,0,0-.02,0-.02v-13.08c0-.32.26-.58.58-.58s.58.26.58.58v13.08c0,.3-.25.55-.55.55,0,0-.02,0-.02,0Z"/>
      <path class="cls-20" d="M173.62,997.1c-.3.01-.56-.22-.58-.53,0,0,0-.02,0-.02v-13.08c-.06-.31.14-.62.45-.68.31-.06.62.14.68.45.02.08.02.16,0,.23v13.08c0,.3-.25.55-.55.55h0Z"/>
      <path class="cls-20" d="M179.57,997.1c-.3.01-.56-.22-.58-.53,0,0,0-.02,0-.02v-13.08c0-.32.26-.58.58-.58s.58.26.58.58v13.08c0,.3-.25.55-.55.55,0,0-.02,0-.02,0Z"/>
      <path class="cls-20" d="M185.69,997.1c-.3.01-.56-.22-.58-.53,0,0,0-.02,0-.02v-13.08c-.06-.31.14-.62.45-.68.31-.06.62.14.68.45.02.08.02.16,0,.23v13.08c0,.3-.25.55-.55.55h0Z"/>
      <path class="cls-20" d="M191.72,997.1c-.3.01-.56-.22-.58-.53,0,0,0-.02,0-.02v-13.08c0-.32.26-.58.58-.58s.58.26.58.58v13.08c0,.3-.25.55-.55.55,0,0-.02,0-.02,0Z"/>
      <path class="cls-20" d="M197.77,997.1c-.3.01-.56-.22-.58-.53,0,0,0-.02,0-.02v-13.08c0-.32.26-.58.58-.58s.58.26.58.58v13.08c0,.3-.25.55-.55.55,0,0-.02,0-.02,0Z"/>
      <path class="cls-20" d="M203.79,997.1c-.3.01-.56-.22-.58-.53,0,0,0-.02,0-.02v-13.08c0-.32.26-.58.58-.58s.58.26.58.58v13.08c0,.3-.25.55-.55.55,0,0-.02,0-.02,0Z"/>
      <path class="cls-20" d="M209.84,997.1c-.3.01-.56-.22-.58-.53,0,0,0-.02,0-.02v-13.08c0-.32.26-.58.58-.58s.58.26.58.58v13.08c0,.3-.25.55-.55.55,0,0-.02,0-.02,0Z"/>
      <path class="cls-20" d="M215.86,997.1c-.3,0-.55-.25-.55-.55h0v-13.08c-.06-.31.14-.62.45-.68.31-.06.62.14.68.45.02.08.02.16,0,.23v13.08c0,.3-.25.55-.55.55,0,0-.02,0-.02,0Z"/>
      <path class="cls-20" d="M221.91,997.1c-.3.01-.56-.22-.58-.53,0,0,0-.02,0-.02v-13.08c0-.32.26-.58.58-.58s.58.26.58.58v13.08c0,.3-.25.55-.55.55,0,0-.02,0-.02,0Z"/>
      <path class="cls-20" d="M227.94,997.1c-.3,0-.55-.25-.55-.55h0v-13.08c-.06-.31.14-.62.45-.68.31-.06.62.14.68.45.02.08.02.16,0,.23v13.08c0,.3-.25.55-.55.55,0,0-.02,0-.02,0Z"/>
      <path class="cls-20" d="M233.99,997.1c-.3.01-.56-.22-.58-.53,0,0,0-.02,0-.02v-13.08c0-.32.26-.58.58-.58s.58.26.58.58v13.08c0,.3-.25.55-.55.55,0,0-.02,0-.02,0Z"/>
      <path class="cls-20" d="M240.01,997.1c-.3,0-.55-.25-.55-.55h0v-13.08c-.06-.31.14-.62.45-.68.31-.06.62.14.68.45.02.08.02.16,0,.23v13.08c0,.3-.25.55-.55.55,0,0-.02,0-.02,0Z"/>
    </g>
    <rect class="cls-1" x="109.12" y="962.56" width="121.07" height="18.39" rx="3.72" ry="3.72"/>
    <path class="cls-6" d="M230.19,966.28v10.95c0,2.04-1.65,3.7-3.7,3.7h-113.65c-.72,0-1.43-.2-2.04-.6-1.04-.69-1.67-1.85-1.68-3.1v-10.95c-.01-2.05,1.64-3.73,3.7-3.74,0,0,.02,0,.02,0h113.65c1.16,0,2.24.56,2.93,1.49.51.64.78,1.44.77,2.26Z"/>
    <path class="cls-10" d="M109.12,977.1v-10.95c0-2.05,1.65-3.71,3.7-3.72h113.65c.73,0,1.44.22,2.04.62h-90.01c-1.24-.08-2.32.86-2.4,2.11,0,.05,0,.1,0,.15v12c0,1.12-.9,2.03-2.02,2.04h-24.12c-.53-.63-.83-1.43-.84-2.26Z"/>
    <path class="cls-16" d="M230.19,966.28v10.95c0,2.04-1.65,3.7-3.7,3.7h-113.65c-.72,0-1.43-.2-2.04-.6h90.01c1.24.08,2.32-.86,2.4-2.11,0-.06,0-.12,0-.17v-12c0-1.13.91-2.04,2.04-2.04h24.29c.47.66.7,1.47.65,2.28Z"/>
    <g class="cls-18">
      <path class="cls-20" d="M115.32,978.83c-.3.01-.56-.22-.58-.53,0,0,0-.02,0-.02v-13.18c0-.32.26-.58.58-.58s.58.26.58.58v13.08c.05.3-.15.59-.45.64-.04,0-.09.01-.13,0Z"/>
      <path class="cls-20" d="M121.36,978.83c-.3.01-.56-.22-.58-.53,0,0,0-.02,0-.02v-13.18c0-.32.26-.58.58-.58s.58.26.58.58v13.08c.05.3-.15.59-.45.64-.04,0-.09.01-.13,0Z"/>
      <path class="cls-20" d="M127.39,978.83c-.3,0-.55-.25-.55-.55h0v-13.18c-.06-.31.14-.62.45-.68.31-.06.62.14.68.45.02.08.02.16,0,.23v13.08c.05.3-.15.59-.45.64-.04,0-.09.01-.13,0Z"/>
      <path class="cls-20" d="M133.44,978.83c-.3.01-.56-.22-.58-.53,0,0,0-.02,0-.02v-13.18c0-.32.26-.58.58-.58s.58.26.58.58v13.08c.05.3-.15.59-.45.64-.04,0-.09.01-.13,0Z"/>
      <path class="cls-20" d="M139.46,978.83c-.3,0-.55-.25-.55-.55h0v-13.18c-.06-.31.14-.62.45-.68.31-.06.62.14.68.45.02.08.02.16,0,.23v13.08c.05.3-.15.59-.45.64-.04,0-.09.01-.13,0Z"/>
      <path class="cls-20" d="M145.51,978.83c-.3.01-.56-.22-.58-.53,0,0,0-.02,0-.02v-13.18c0-.32.26-.58.58-.58s.58.26.58.58v13.08c.05.3-.15.59-.45.64-.04,0-.09.01-.13,0Z"/>
      <path class="cls-20" d="M151.54,978.83c-.3,0-.55-.25-.55-.55h0v-13.18c-.06-.31.14-.62.45-.68.31-.06.62.14.68.45.02.08.02.16,0,.23v13.08c.05.3-.15.59-.45.64-.04,0-.09.01-.13,0Z"/>
      <path class="cls-20" d="M157.58,978.83c-.3.01-.56-.22-.58-.53,0,0,0-.02,0-.02v-13.18c0-.32.26-.58.58-.58s.58.26.58.58v13.08c.05.3-.15.59-.45.64-.04,0-.09.01-.13,0Z"/>
      <path class="cls-20" d="M163.63,978.83c-.3.01-.56-.22-.58-.53,0,0,0-.02,0-.02v-13.18c-.06-.31.14-.62.45-.68.31-.06.62.14.68.45.02.08.02.16,0,.23v13.08c.05.3-.15.59-.45.64-.03,0-.07,0-.1,0Z"/>
      <path class="cls-20" d="M169.66,978.83c-.3.01-.56-.22-.58-.53,0,0,0-.02,0-.02v-13.18c0-.32.26-.58.58-.58s.58.26.58.58v13.08c.05.3-.15.59-.45.64-.04,0-.09.01-.13,0Z"/>
      <path class="cls-20" d="M175.71,978.83c-.3.01-.56-.22-.58-.53,0,0,0-.02,0-.02v-13.18c-.06-.31.14-.62.45-.68.31-.06.62.14.68.45.02.08.02.16,0,.23v13.08c.05.3-.15.59-.45.64-.03,0-.07,0-.1,0Z"/>
      <path class="cls-20" d="M181.73,978.83c-.3.01-.56-.22-.58-.53,0,0,0-.02,0-.02v-13.18c0-.32.26-.58.58-.58s.58.26.58.58v13.08c.05.3-.15.59-.45.64-.04,0-.09.01-.13,0Z"/>
      <path class="cls-20" d="M187.78,978.83c-.3.01-.56-.22-.58-.53,0,0,0-.02,0-.02v-13.18c0-.32.26-.58.58-.58s.58.26.58.58v13.08c.05.3-.15.59-.45.64-.04,0-.09.01-.13,0Z"/>
      <path class="cls-20" d="M193.8,978.83c-.3.01-.56-.22-.58-.53,0,0,0-.02,0-.02v-13.18c0-.32.26-.58.58-.58s.58.26.58.58v13.08c.05.3-.15.59-.45.64-.04,0-.09.01-.13,0Z"/>
      <path class="cls-20" d="M199.85,978.83c-.3.01-.56-.22-.58-.53,0,0,0-.02,0-.02v-13.18c0-.32.26-.58.58-.58s.58.26.58.58v13.08c.05.3-.15.59-.45.64-.04,0-.09.01-.13,0Z"/>
      <path class="cls-20" d="M205.97,978.83c-.3.01-.56-.22-.58-.53,0,0,0-.02,0-.02v-13.18c0-.32.26-.58.58-.58s.58.26.58.58v13.08c.05.3-.15.59-.45.64-.04,0-.09.01-.13,0Z"/>
      <path class="cls-20" d="M211.93,978.83c-.3.01-.56-.22-.58-.53,0,0,0-.02,0-.02v-13.18c0-.32.26-.58.58-.58s.58.26.58.58v13.08c.05.3-.15.59-.45.64-.04,0-.09.01-.13,0Z"/>
      <path class="cls-20" d="M217.98,978.83c-.3,0-.55-.25-.55-.55h0v-13.18c-.06-.31.14-.62.45-.68.31-.06.62.14.68.45.02.08.02.16,0,.23v13.08c.05.3-.15.59-.45.64-.04,0-.09.01-.13,0Z"/>
      <path class="cls-20" d="M224,978.83c-.3.01-.56-.22-.58-.53,0,0,0-.02,0-.02v-13.18c0-.32.26-.58.58-.58s.58.26.58.58v13.08c.05.3-.15.59-.45.64-.04,0-.09.01-.13,0Z"/>
    </g>
    <rect class="cls-1" x="125.13" y="944.29" width="121.07" height="18.39" rx="3.72" ry="3.72"/>
    <path class="cls-6" d="M246.23,948.01v10.95c0,2.04-1.65,3.7-3.7,3.7,0,0-.02,0-.02,0h-113.65c-.72,0-1.42-.21-2.02-.6-1.04-.69-1.67-1.85-1.68-3.1v-10.95c-.01-2.05,1.64-3.73,3.7-3.74h113.65c1.16,0,2.25.55,2.93,1.49.52.64.8,1.43.79,2.26Z"/>
    <path class="cls-10" d="M125.16,958.93v-10.95c-.01-2.04,1.63-3.71,3.67-3.72,0,0,.02,0,.02,0h113.65c.73,0,1.43.23,2.04.62h-90.03c-1.25,0-2.26,1.01-2.26,2.26h0v12c-.01,1.12-.92,2.03-2.04,2.04h-24.29c-.51-.64-.78-1.44-.77-2.26Z"/>
    <path class="cls-16" d="M246.23,948.01v10.95c0,2.04-1.65,3.7-3.7,3.7,0,0-.02,0-.02,0h-113.65c-.72,0-1.42-.21-2.02-.6h90.01c1.25,0,2.26-1.01,2.26-2.25,0-.05,0-.1,0-.15v-12c0-1.13.91-2.04,2.04-2.04h24.29c.55.67.83,1.53.79,2.4Z"/>
    <g class="cls-18">
      <path class="cls-20" d="M131.35,960.56c-.3.01-.56-.22-.58-.53,0,0,0-.02,0-.02v-13.08c0-.32.26-.58.58-.58s.58.26.58.58v13.08c0,.3-.25.55-.55.55,0,0-.02,0-.02,0Z"/>
      <path class="cls-20" d="M137.37,960.56c-.3,0-.55-.25-.55-.55h0v-13.08c-.06-.31.14-.62.45-.68.31-.06.62.14.68.45.02.08.02.16,0,.23v13.08c0,.3-.25.55-.55.55,0,0-.02,0-.02,0Z"/>
      <path class="cls-20" d="M143.42,960.56c-.3.01-.56-.22-.58-.53,0,0,0-.02,0-.02v-13.08c0-.32.26-.58.58-.58s.58.26.58.58v13.08c0,.3-.25.55-.55.55,0,0-.02,0-.02,0Z"/>
      <path class="cls-20" d="M149.45,960.56c-.3,0-.55-.25-.55-.55h0v-13.08c-.06-.31.14-.62.45-.68.31-.06.62.14.68.45.02.08.02.16,0,.23v13.08c0,.3-.25.55-.55.55,0,0-.02,0-.02,0Z"/>
      <path class="cls-20" d="M155.57,960.56c-.3.01-.56-.22-.58-.53,0,0,0-.02,0-.02v-13.08c0-.32.26-.58.58-.58s.58.26.58.58v13.08c0,.3-.25.55-.55.55,0,0-.02,0-.02,0Z"/>
      <path class="cls-20" d="M161.55,960.56c-.3.01-.56-.22-.58-.53,0,0,0-.02,0-.02v-13.08c-.06-.31.14-.62.45-.68.31-.06.62.14.68.45.02.08.02.16,0,.23v13.08c0,.3-.25.55-.55.55h0Z"/>
      <path class="cls-20" d="M167.57,960.56c-.3.01-.56-.22-.58-.53,0,0,0-.02,0-.02v-13.08c0-.32.26-.58.58-.58s.58.26.58.58v13.08c0,.3-.25.55-.55.55,0,0-.02,0-.02,0Z"/>
      <path class="cls-20" d="M173.62,960.56c-.3.01-.56-.22-.58-.53,0,0,0-.02,0-.02v-13.08c-.06-.31.14-.62.45-.68.31-.06.62.14.68.45.02.08.02.16,0,.23v13.08c0,.3-.25.55-.55.55h0Z"/>
      <path class="cls-20" d="M179.57,960.56c-.3.01-.56-.22-.58-.53,0,0,0-.02,0-.02v-13.08c0-.32.26-.58.58-.58s.58.26.58.58v13.08c0,.3-.25.55-.55.55,0,0-.02,0-.02,0Z"/>
      <path class="cls-20" d="M185.69,960.56c-.3.01-.56-.22-.58-.53,0,0,0-.02,0-.02v-13.08c-.06-.31.14-.62.45-.68.31-.06.62.14.68.45.02.08.02.16,0,.23v13.08c0,.3-.25.55-.55.55h0Z"/>
      <path class="cls-20" d="M191.72,960.56c-.3.01-.56-.22-.58-.53,0,0,0-.02,0-.02v-13.08c0-.32.26-.58.58-.58s.58.26.58.58v13.08c0,.3-.25.55-.55.55,0,0-.02,0-.02,0Z"/>
      <path class="cls-20" d="M197.77,960.56c-.3.01-.56-.22-.58-.53,0,0,0-.02,0-.02v-13.08c0-.32.26-.58.58-.58s.58.26.58.58v13.08c0,.3-.25.55-.55.55,0,0-.02,0-.02,0Z"/>
      <path class="cls-20" d="M203.79,960.56c-.3.01-.56-.22-.58-.53,0,0,0-.02,0-.02v-13.08c0-.32.26-.58.58-.58s.58.26.58.58v13.08c0,.3-.25.55-.55.55,0,0-.02,0-.02,0Z"/>
      <path class="cls-20" d="M209.84,960.56c-.3.01-.56-.22-.58-.53,0,0,0-.02,0-.02v-13.08c0-.32.26-.58.58-.58s.58.26.58.58v13.08c0,.3-.25.55-.55.55,0,0-.02,0-.02,0Z"/>
      <path class="cls-20" d="M215.86,960.56c-.3,0-.55-.25-.55-.55h0v-13.08c-.06-.31.14-.62.45-.68.31-.06.62.14.68.45.02.08.02.16,0,.23v13.08c0,.3-.25.55-.55.55,0,0-.02,0-.02,0Z"/>
      <path class="cls-20" d="M221.91,960.56c-.3.01-.56-.22-.58-.53,0,0,0-.02,0-.02v-13.08c0-.32.26-.58.58-.58s.58.26.58.58v13.08c0,.3-.25.55-.55.55,0,0-.02,0-.02,0Z"/>
      <path class="cls-20" d="M227.94,960.56c-.3,0-.55-.25-.55-.55h0v-13.08c-.06-.31.14-.62.45-.68.31-.06.62.14.68.45.02.08.02.16,0,.23v13.08c0,.3-.25.55-.55.55,0,0-.02,0-.02,0Z"/>
      <path class="cls-20" d="M233.99,960.56c-.3.01-.56-.22-.58-.53,0,0,0-.02,0-.02v-13.08c0-.32.26-.58.58-.58s.58.26.58.58v13.08c0,.3-.25.55-.55.55,0,0-.02,0-.02,0Z"/>
      <path class="cls-20" d="M240.01,960.56c-.3,0-.55-.25-.55-.55h0v-13.08c-.06-.31.14-.62.45-.68.31-.06.62.14.68.45.02.08.02.16,0,.23v13.08c0,.3-.25.55-.55.55,0,0-.02,0-.02,0Z"/>
    </g>
    <rect class="cls-1" x="120.57" y="926.02" width="121.07" height="18.39" rx="3.72" ry="3.72"/>
    <path class="cls-6" d="M241.64,929.75v10.95c0,2.05-1.65,3.71-3.7,3.72h-113.58c-2.05-.01-3.71-1.67-3.72-3.72v-10.95c-.01-2.05,1.64-3.73,3.7-3.74,0,0,.02,0,.02,0h113.65c2.04.04,3.68,1.7,3.7,3.74h-.07Z"/>
    <path class="cls-10" d="M120.57,940.67v-10.95c0-2.05,1.66-3.72,3.72-3.72.02,0,.05,0,.07,0h113.65c.73,0,1.44.22,2.04.62h-90.11c-1.24-.08-2.32.86-2.4,2.11,0,.05,0,.1,0,.15v12c-.01,1.12-.92,2.03-2.04,2.04h-24.17c-.51-.64-.78-1.44-.77-2.26Z"/>
    <path class="cls-16" d="M241.64,929.75v10.95c0,2.05-1.65,3.71-3.7,3.72h-113.58c-.73,0-1.44-.22-2.04-.62h90.01c1.25.01,2.27-.99,2.28-2.23,0-.02,0-.03,0-.05v-12c0-1.12.9-2.03,2.02-2.04h24.31c.48.66.73,1.46.7,2.28Z"/>
    <g class="cls-18">
      <path class="cls-20" d="M126.77,942.3c-.3.01-.56-.22-.58-.53,0,0,0-.02,0-.02v-13.08c0-.32.26-.58.58-.58s.58.26.58.58v13.08c0,.3-.25.55-.55.55,0,0-.02,0-.02,0Z"/>
      <path class="cls-20" d="M132.81,942.3c-.3.01-.56-.22-.58-.53,0,0,0-.02,0-.02v-13.08c-.06-.31.14-.62.45-.68.31-.06.62.14.68.45.02.08.02.16,0,.23v13.08c0,.3-.25.55-.55.55h0Z"/>
      <path class="cls-20" d="M138.77,942.3c-.3.01-.56-.22-.58-.53,0,0,0-.02,0-.02v-13.08c0-.32.26-.58.58-.58s.58.26.58.58v13.08c0,.3-.25.55-.55.55,0,0-.02,0-.02,0Z"/>
      <path class="cls-20" d="M144.89,942.3c-.3.01-.56-.22-.58-.53,0,0,0-.02,0-.02v-13.08c0-.32.26-.58.58-.58s.58.26.58.58v13.08c0,.3-.25.55-.55.55,0,0-.02,0-.02,0Z"/>
      <path class="cls-20" d="M150.91,942.3c-.3.01-.56-.22-.58-.53,0,0,0-.02,0-.02v-13.08c0-.32.26-.58.58-.58s.58.26.58.58v13.08c0,.3-.25.55-.55.55,0,0-.02,0-.02,0Z"/>
      <path class="cls-20" d="M156.96,942.3c-.3.01-.56-.22-.58-.53,0,0,0-.02,0-.02v-13.08c0-.32.26-.58.58-.58s.58.26.58.58v13.08c0,.3-.25.55-.55.55,0,0-.02,0-.02,0Z"/>
      <path class="cls-20" d="M162.99,942.3c-.3.01-.56-.22-.58-.53,0,0,0-.02,0-.02v-13.08c0-.32.26-.58.58-.58s.58.26.58.58v13.08c0,.3-.25.55-.55.55,0,0-.02,0-.02,0Z"/>
      <path class="cls-20" d="M169.03,942.3c-.3.01-.56-.22-.58-.53,0,0,0-.02,0-.02v-13.08c0-.32.26-.58.58-.58s.58.26.58.58v13.08c0,.3-.25.55-.55.55,0,0-.02,0-.02,0Z"/>
      <path class="cls-20" d="M175.06,942.3c-.3,0-.55-.25-.55-.55h0v-13.08c-.06-.31.14-.62.45-.68.31-.06.62.14.68.45.02.08.02.16,0,.23v13.08c0,.3-.25.55-.55.55,0,0-.02,0-.02,0Z"/>
      <path class="cls-20" d="M181.11,942.3c-.3.01-.56-.22-.58-.53,0,0,0-.02,0-.02v-13.08c0-.32.26-.58.58-.58s.58.26.58.58v13.08c0,.3-.25.55-.55.55,0,0-.02,0-.02,0Z"/>
      <path class="cls-20" d="M187.13,942.3c-.3,0-.55-.25-.55-.55h0v-13.08c-.06-.31.14-.62.45-.68.31-.06.62.14.68.45.02.08.02.16,0,.23v13.08c0,.3-.25.55-.55.55,0,0-.02,0-.02,0Z"/>
      <path class="cls-20" d="M193.18,942.3c-.3.01-.56-.22-.58-.53,0,0,0-.02,0-.02v-13.08c0-.32.26-.58.58-.58s.58.26.58.58v13.08c0,.3-.25.55-.55.55,0,0-.02,0-.02,0Z"/>
      <path class="cls-20" d="M199.23,942.3c-.3.01-.56-.22-.58-.53,0,0,0-.02,0-.02v-13.08c-.06-.31.14-.62.45-.68.31-.06.62.14.68.45.02.08.02.16,0,.23v13.08c0,.3-.25.55-.55.55h0Z"/>
      <path class="cls-20" d="M205.25,942.3c-.3.01-.56-.22-.58-.53,0,0,0-.02,0-.02v-13.08c0-.32.26-.58.58-.58s.58.26.58.58v13.08c0,.3-.25.55-.55.55,0,0-.02,0-.02,0Z"/>
      <path class="cls-20" d="M211.3,942.3c-.3.01-.56-.22-.58-.53,0,0,0-.02,0-.02v-13.08c-.06-.31.14-.62.45-.68.31-.06.62.14.68.45.02.08.02.16,0,.23v13.08c0,.3-.25.55-.55.55h0Z"/>
      <path class="cls-20" d="M217.33,942.3c-.3.01-.56-.22-.58-.53,0,0,0-.02,0-.02v-13.08c0-.32.26-.58.58-.58s.58.26.58.58v13.08c0,.3-.25.55-.55.55,0,0-.02,0-.02,0Z"/>
      <path class="cls-20" d="M223.38,942.3c-.3.01-.56-.22-.58-.53,0,0,0-.02,0-.02v-13.08c0-.32.26-.58.58-.58s.58.26.58.58v13.08c0,.3-.25.55-.55.55,0,0-.02,0-.02,0Z"/>
      <path class="cls-20" d="M229.4,942.3c-.3.01-.56-.22-.58-.53,0,0,0-.02,0-.02v-13.08c0-.32.26-.58.58-.58s.58.26.58.58v13.08c0,.3-.25.55-.55.55,0,0-.02,0-.02,0Z"/>
      <path class="cls-20" d="M235.45,942.3c-.3.01-.56-.22-.58-.53,0,0,0-.02,0-.02v-13.08c0-.32.26-.58.58-.58s.58.26.58.58v13.08c0,.3-.25.55-.55.55,0,0-.02,0-.02,0Z"/>
    </g>
    <path class="cls-16" d="M348.81,871.2v.62c-.29,1.97-.58,4.15-.96,6.5s-.72,4.42-1.15,6.82c-.22,1.25-.48,2.52-.72,3.84-.01.16-.01.32,0,.48h0s-.01.08,0,.12c0,.14,0,.31-.12.48-.12.55-.19,1.08-.31,1.63h0c0,.29,0,.53-.17.82-.96,4.61-2.11,9.6-3.5,14.71,0,.14,0,.34-.12.5s0,0,0,0l-.14.5c-1.22,4.49-2.62,9.15-4.2,13.87-.19.6-.41,1.18-.6,1.8s-.34.98-.53,1.49l-.19.48h0c0,.14,0,.31-.14.48-1.37,3.82-2.88,7.68-4.54,11.52-.36.86-.74,1.78-1.15,2.64s-.89,1.99-1.34,3c-.09.16-.17.33-.24.5h0c-.07.18-.16.34-.26.5-1.39,2.95-2.88,5.9-4.46,8.78-.36.7-.74,1.39-1.13,2.06-1.22,2.14-2.4,4.22-3.79,6.31-.09.17-.18.33-.29.48v.12h0l-.29.48c-1.34,2.09-2.74,4.1-4.2,6.1l-1.13,1.51c-1.54,2.09-3.19,4.13-4.8,6.12-.36.43-.77.86-1.15,1.3s-1.25,1.44-1.92,2.14l-.46.48h0s-.08.01-.12,0c-.12.19-.27.35-.46.48-1.34,1.46-2.74,2.86-4.2,4.18l-1.15,1.08c-1.58,1.42-3.19,2.81-4.8,4.1-.36.32-.73.61-1.13.89-.89.7-1.78,1.37-2.69,1.97s-1.46,1.06-2.21,1.54c-.37.27-.76.52-1.15.74-.96.62-1.92,1.22-2.9,1.8-.48.29-.98.6-1.49.86l-1.13.62h-15.34c-.39-.09-.77-.26-1.1-.48-.13-.09-.26-.18-.38-.29l-.29-.29h0c-.1-.11-.19-.23-.26-.36l-.12-.19v-.17h0c-.04-.1-.09-.2-.14-.29v-.79c0-.1,0,0,0,0-.01-.17-.01-.34,0-.5v-11.07c-.3-.75-.35-1.57-.14-2.35.7-.7,1.65-1.09,2.64-1.08h1.32c-.37-.1-.72-.26-1.03-.48h0c-.2-.13-.39-.28-.55-.46-.13-.11-.25-.24-.34-.38h0v-.14c-.06-.07-.12-.15-.17-.24-.04-.08-.08-.16-.12-.24h0v-.24c0-.09,0-.18,0-.26-.01-.09-.01-.18,0-.26h0c-.01-.17-.01-.34,0-.5v-11.07c0-.74.23-1.46.65-2.06.12-.21.27-.4.46-.55.44-.47,1.01-.8,1.63-.96h-1.32c-.25.04-.5.04-.74,0-.24-.06-.47-.13-.7-.22-.21-.08-.41-.18-.6-.31h0l-.5-.38c-.13-.13-.24-.28-.34-.43v-.12h0l-.14-.22h0c-.1-.17-.18-.36-.24-.55-.02-.14-.02-.27,0-.41v-.19c-.01-.2-.01-.4,0-.6v-10.97c0-1.7,1.15-3.19,2.81-3.6h-4.25c-.13.03-.26.03-.38,0-.38-.1-.75-.26-1.08-.48-.36-.23-.66-.53-.89-.89h0l-.19-.31c-.07-.07-.12-.16-.14-.26.01-.06.01-.13,0-.19h0c0-.09,0-.18,0-.26,0-.09,0-.18,0-.26h0c-.01-.17-.01-.34,0-.5v-11.09c0-.97.38-1.91,1.08-2.59.53-.54,1.21-.9,1.94-1.03h0c-.24-.06-.47-.14-.7-.24-.21-.06-.4-.16-.58-.29h0c-.18-.11-.35-.24-.5-.38-.14-.12-.25-.27-.34-.43h0l-.19-.29c-.09-.17-.17-.34-.22-.53-.01-.14-.01-.27,0-.41v-.19c-.01-.2-.01-.4,0-.6v-10.97c0-2.04,1.65-3.7,3.7-3.7h8.28c-.4-.1-.78-.27-1.13-.5h0c-.2-.15-.4-.31-.58-.48-.13-.11-.24-.25-.31-.41h0v-.12l-.17-.24c0-.08,0-.16,0-.24-.07-.12-.12-.25-.14-.38,0-.07,0-.14,0-.22,0-.09,0-.18,0-.26h0c-.01-.17-.01-.34,0-.5v-12.6c0-.73.23-1.44.65-2.04.13-.2.28-.39.46-.55.44-.48,1.02-.81,1.66-.96h-4.56c-.39-.09-.77-.26-1.1-.48-.34-.24-.64-.53-.89-.86v-.12h0l-.14-.22h0c-.1-.17-.18-.36-.24-.55-.02-.14-.02-.27,0-.41v-.19c-.01-.2-.01-.4,0-.6v-10.97c-.01-2.04,1.63-3.71,3.67-3.72,0,0,.02,0,.02,0l79.78-.22Z"/>
    <circle class="cls-1" cx="358.85" cy="755.41" r="59.12"/>
    <circle class="cls-8" cx="358.85" cy="755.41" r="59.12"/>
    <path class="cls-6" d="M362.52,760.84v13.47c5.54-.84,7.9-3.43,7.9-6.7,0-3.72-3.34-5.47-7.9-6.77Z"/>
    <path class="cls-6" d="M348.6,743.44c0,3.65,3.29,5.3,7.68,6.6v-13.54c-5.4.84-7.68,3.58-7.68,6.94Z"/>
    <path class="cls-6" d="M358.92,704.91c-27.84,0-50.41,22.57-50.41,50.41s22.57,50.41,50.41,50.41,50.41-22.57,50.41-50.41h0c0-27.84-22.57-50.41-50.41-50.41ZM362.52,782.58v8.52h-6.24v-8.42c-7.44-.46-14.67-2.88-18.63-6.31l3.43-7.68c4.41,3.33,9.68,5.34,15.19,5.78v-15.19c-8.42-2.06-17.47-4.8-17.47-15.36,0-7.75,5.62-14.4,17.47-15.67v-8.59h6.24v8.45c5.45.23,10.76,1.82,15.43,4.63l-3.12,7.68c-3.78-2.21-7.97-3.61-12.31-4.1v15.36c8.45,2.04,17.64,4.8,17.64,15.27,0,7.73-5.71,14.43-17.64,15.75v-.1Z"/>
    <path class="cls-1" d="M497.08,879.24c30.7,11.12,46.56,45.03,35.44,75.72-11.12,30.7-45.03,46.56-75.72,35.44-30.69-11.12-46.56-45.02-35.44-75.71,11.1-30.69,44.98-46.57,75.67-35.47.02,0,.04.01.06.02Z"/>
    <path class="cls-8" d="M497.08,879.24c30.7,11.12,46.56,45.03,35.44,75.72-11.12,30.7-45.03,46.56-75.72,35.44-30.69-11.12-46.56-45.02-35.44-75.71,11.1-30.69,44.98-46.57,75.67-35.47.02,0,.04.01.06.02Z"/>
    <path class="cls-6" d="M483.3,933.3l12.65,4.58c1.1-5.52-.5-8.59-3.6-9.72-3.48-1.27-6.26,1.27-9.05,5.14Z"/>
    <path class="cls-6" d="M462.2,940.43c3.43,1.25,6.12-1.25,8.83-4.94l-12.72-4.63c-1.06,5.45.74,8.45,3.89,9.58Z"/>
    <path class="cls-6" d="M429.49,917.62c-9.46,26.18,4.1,55.07,30.28,64.53,26.18,9.46,55.07-4.1,64.53-30.28,9.44-26.14-4.06-54.99-30.18-64.49-26.16-9.52-55.08,3.98-64.6,30.14-.01.04-.03.07-.04.11ZM503.75,940.69l7.99,2.9-2.11,5.88-7.94-2.88c-2.45,6.24-6.72,11.59-12.27,15.36l-6.07-5.83c4.64-3.03,8.33-7.3,10.63-12.34l-14.38-5.09c-4.8,7.2-10.47,14.81-20.4,11.21-7.2-2.64-11.74-10.23-8.76-21.77l-8.06-2.93,2.11-5.86,7.94,2.86c2.07-5.04,5.37-9.48,9.6-12.91l6.14,5.54c-3.37,2.79-6.12,6.26-8.06,10.18l14.4,5.23c4.8-7.2,10.44-14.98,20.38-11.38,7.44,2.54,11.79,10.23,8.86,21.82Z"/>
  </g>
  <g id="freepik--Device--inject-344">
    <path class="cls-25" d="M351.79,337.96h0v621.86h0c-5-.03-9.03-4.1-9-9.1,0,0,0-.02,0-.02V347.01c0-4.98,4.02-9.02,9-9.05Z"/>
    <rect class="cls-25" x="339.41" y="326.13" width="12.6" height="38.09" rx="3.19" ry="3.19"/>
    <g class="cls-14">
      <path class="cls-5" d="M352.03,329.34v31.71c-.01,1.75-1.44,3.17-3.19,3.17h-6.24c-1.75,0-3.18-1.41-3.19-3.17v-31.71c0-1.77,1.43-3.2,3.19-3.22h6.24c1.77.01,3.19,1.45,3.19,3.22Z"/>
    </g>
    <g class="cls-15">
      <path class="cls-5" d="M347.45,329.34v31.71c-.01,1.75-1.44,3.17-3.19,3.17h-1.66c-1.75,0-3.18-1.41-3.19-3.17v-31.71c0-1.77,1.43-3.2,3.19-3.22h1.66c1.77.01,3.19,1.45,3.19,3.22Z"/>
    </g>
    <path class="cls-25" d="M342.41,359.39h-6.82c-6.2.01-11.24-5.01-11.26-11.21,0,0,0-.02,0-.02v-6.34c.01-6.21,5.05-11.23,11.26-11.23h6.94c1.03,0,1.87.84,1.87,1.87,0,0,0,.02,0,.02v3.07c.01,1.03-.81,1.88-1.85,1.9,0,0-.02,0-.02,0h-6.94c-2.42,0-4.38,1.95-4.39,4.37v6.41c0,2.41,1.96,4.37,4.37,4.37,0,0,.02,0,.02,0h6.94c1.04.01,1.87.86,1.87,1.9v3.1c-.04,1.03-.91,1.84-1.94,1.8-.02,0-.04,0-.05,0Z"/>
    <g class="cls-2">
      <path class="cls-5" d="M342.41,359.39h-6.82c-6.2.01-11.24-5.01-11.26-11.21,0,0,0-.02,0-.02v-6.34c.01-6.21,5.05-11.23,11.26-11.23h6.94c1.03,0,1.87.84,1.87,1.87,0,0,0,.02,0,.02v3.07c.01,1.03-.81,1.88-1.85,1.9,0,0-.02,0-.02,0h-6.94c-2.42,0-4.38,1.95-4.39,4.37v6.41c0,2.41,1.96,4.37,4.37,4.37,0,0,.02,0,.02,0h6.94c1.04.01,1.87.86,1.87,1.9v3.1c-.04,1.03-.91,1.84-1.94,1.8-.02,0-.04,0-.05,0Z"/>
    </g>
    <polygon class="cls-25" points="331.41 932.77 345.69 937.88 345.69 947.72 331.41 950.53 331.41 932.77"/>
    <polygon class="cls-25" points="331.41 904.88 345.69 910.01 345.69 919.83 331.41 922.66 331.41 904.88"/>
    <polygon class="cls-25" points="331.41 877.01 345.69 882.12 345.69 891.94 331.41 894.77 331.41 877.01"/>
    <polygon class="cls-25" points="331.41 849.12 345.69 854.23 345.69 864.07 331.41 866.88 331.41 849.12"/>
    <polygon class="cls-25" points="331.41 821.23 345.69 826.37 345.69 836.18 331.41 839.01 331.41 821.23"/>
    <polygon class="cls-25" points="331.41 793.36 345.69 798.47 345.69 808.32 331.41 811.12 331.41 793.36"/>
    <polygon class="cls-25" points="331.41 765.47 345.69 770.61 345.69 780.42 331.41 783.26 331.41 765.47"/>
    <polygon class="cls-25" points="331.41 737.6 345.69 742.72 345.69 752.53 331.41 755.37 331.41 737.6"/>
    <polygon class="cls-25" points="331.41 709.71 345.69 714.82 345.69 724.67 331.41 727.47 331.41 709.71"/>
    <polygon class="cls-25" points="331.41 681.82 345.69 686.96 345.69 696.77 331.41 699.61 331.41 681.82"/>
    <polygon class="cls-25" points="331.41 653.95 345.69 659.07 345.69 668.91 331.41 671.72 331.41 653.95"/>
    <polygon class="cls-25" points="331.41 626.06 345.69 631.2 345.69 641.02 331.41 643.82 331.41 626.06"/>
    <polygon class="cls-25" points="331.41 598.17 345.69 603.31 345.69 613.13 331.41 615.96 331.41 598.17"/>
    <polygon class="cls-25" points="331.41 570.3 345.69 575.42 345.69 585.26 331.41 588.07 331.41 570.3"/>
    <polygon class="cls-25" points="331.41 542.41 345.69 547.55 345.69 557.37 331.41 560.2 331.41 542.41"/>
    <polygon class="cls-25" points="331.41 514.55 345.69 519.66 345.69 529.48 331.41 532.31 331.41 514.55"/>
    <polygon class="cls-25" points="331.41 486.66 345.69 491.79 345.69 501.61 331.41 504.42 331.41 486.66"/>
    <polygon class="cls-25" points="331.41 458.76 345.69 463.9 345.69 473.72 331.41 476.55 331.41 458.76"/>
    <polygon class="cls-25" points="331.41 430.9 345.69 436.01 345.69 445.85 331.41 448.66 331.41 430.9"/>
    <polygon class="cls-25" points="331.41 403.01 345.69 408.14 345.69 417.96 331.41 420.77 331.41 403.01"/>
    <polygon class="cls-25" points="331.41 375.14 345.69 380.25 345.69 390.07 331.41 392.9 331.41 375.14"/>
    <path class="cls-25" d="M334.03,277.11h-17.52c-1.25,0-2.02,1.51-1.66,3.26l12.65,64.02c.31,1.61,1.46,2.86,2.59,2.86h11.59c1.13,0,1.9-1.25,1.73-2.86l-6.74-64.02c-.19-1.75-1.39-3.26-2.64-3.26ZM334.84,336.97c.1.64.02,1.3-.24,1.9-.4-.57-.67-1.21-.79-1.9l-.72-4.8c-.1-.65-.02-1.32.24-1.92.4.57.67,1.23.79,1.92l.72,4.8ZM326.16,283.02c1.22,0,2.4,1.39,2.66,3.1l.72,4.68c.26,1.7-.53,3.1-1.73,3.1h0c-1.22,0-2.4-1.39-2.66-3.1l-.72-4.68c-.26-1.7.53-3.1,1.73-3.1Z"/>
    <path class="cls-7" d="M334.03,277.11h-17.52c-1.25,0-2.02,1.51-1.66,3.26l12.65,64.02c.31,1.61,1.46,2.86,2.59,2.86h11.59c1.13,0,1.9-1.25,1.73-2.86l-6.74-64.02c-.19-1.75-1.39-3.26-2.64-3.26ZM334.84,336.97c.1.64.02,1.3-.24,1.9-.4-.57-.67-1.21-.79-1.9l-.72-4.8c-.1-.65-.02-1.32.24-1.92.4.57.67,1.23.79,1.92l.72,4.8ZM326.16,283.02c1.22,0,2.4,1.39,2.66,3.1l.72,4.68c.26,1.7-.53,3.1-1.73,3.1h0c-1.22,0-2.4-1.39-2.66-3.1l-.72-4.68c-.26-1.7.53-3.1,1.73-3.1Z"/>
    <path class="cls-10" d="M327.5,344.39c.31,1.61,1.46,2.86,2.59,2.86h8.28c1.15,0,1.9-1.25,1.73-2.86l-6.74-64.02c-.17-1.75-1.39-3.26-2.64-3.26h-14.21c-1.25,0-2.02,1.51-1.66,3.26l12.65,64.02ZM334.84,336.97c.24,1.68-.5,3.05-1.7,3.05s-2.4-1.37-2.62-3.05l-.72-4.8c-.26-1.7.5-3.07,1.68-3.07s2.4,1.37,2.64,3.07l.72,4.8ZM322.84,283.02h3.31c1.22,0,2.4,1.39,2.66,3.1l.72,4.68c.26,1.7-.53,3.1-1.73,3.1h-3.31c-1.22,0-2.4-1.39-2.66-3.1l-.72-4.68c-.26-1.7.53-3.1,1.73-3.1Z"/>
    <path class="cls-25" d="M342.41,352.53h-6.82c-2.41.01-4.38-1.93-4.39-4.34,0,0,0-.02,0-.02v-6.34c0-1.96,1.32-3.68,3.22-4.2v-2.11l-.36-.86h0v-.24c0-.22-.38-2.81-.38-3.02h0c-.01-.14-.01-.29,0-.43-5.33.93-9.23,5.54-9.27,10.95v6.34c0,6.2,5.03,11.23,11.23,11.23,0,0,.02,0,.02,0h6.94c1.03,0,1.87-.84,1.87-1.87v-3.1c.04-1.05-.77-1.93-1.81-1.97-.08,0-.17,0-.25,0Z"/>
    <g class="cls-2">
      <path class="cls-5" d="M342.41,352.53h-6.82c-2.41.01-4.38-1.93-4.39-4.34,0,0,0-.02,0-.02v-6.34c0-1.96,1.32-3.68,3.22-4.2v-2.11l-.36-.86h0v-.24c0-.22-.38-2.81-.38-3.02h0c-.01-.14-.01-.29,0-.43-5.33.93-9.23,5.54-9.27,10.95v6.34c0,6.2,5.03,11.23,11.23,11.23,0,0,.02,0,.02,0h6.94c1.03,0,1.87-.84,1.87-1.87v-3.1c.04-1.05-.77-1.93-1.81-1.97-.08,0-.17,0-.25,0Z"/>
    </g>
    <rect class="cls-25" x="349.63" y="308.96" width="383.76" height="690.22" rx="22.99" ry="22.99"/>
    <rect class="cls-6" x="349.63" y="308.96" width="383.76" height="690.22" rx="22.99" ry="22.99"/>
    <path class="cls-25" d="M720.42,332.08v642.74c-.01,5.21-4.25,9.42-9.46,9.41-.05,0-.1,0-.15,0h-339.71c-4.65.07-8.48-3.65-8.55-8.3,0-.11,0-.21,0-.32V331.43c-.18-4.16,3.04-7.69,7.2-7.9h84.95c2.44.04,4.62,1.56,5.5,3.84l3.5,8.64c.88,2.25,3.03,3.74,5.45,3.77h144.86c2.41-.01,4.57-1.48,5.47-3.72l3.5-8.69c.88-2.27,3.04-3.78,5.47-3.84h83.75c4.58.2,8.19,3.96,8.21,8.54Z"/>
    <path class="cls-3" d="M541.44,324.23c0,2.65-2.15,4.8-4.8,4.8s-4.8-2.15-4.8-4.8,2.15-4.8,4.8-4.8c2.62.06,4.74,2.18,4.8,4.8Z"/>
    <path class="cls-3" d="M551.37,324.23c0,1.74-1.41,3.14-3.14,3.14s-3.14-1.41-3.14-3.14,1.41-3.14,3.14-3.14h0c1.72-.01,3.13,1.37,3.14,3.1,0,.02,0,.03,0,.05Z"/>
    <rect class="cls-1" x="367.73" y="364.58" width="347.54" height="589.67"/>
    <rect class="cls-3" x="367.73" y="364.58" width="347.54" height="589.67"/>
    <rect class="cls-1" x="377.16" y="822.19" width="328.67" height="71.77" rx="9.46" ry="9.46"/>
    <rect class="cls-5" x="377.16" y="718.62" width="328.67" height="91.35" rx="9.46" ry="9.46"/>
    <rect class="cls-5" x="377.16" y="456.58" width="328.67" height="252.27" rx="9.46" ry="9.46"/>
    <rect class="cls-1" x="377.16" y="375.81" width="328.67" height="71.77" rx="9.46" ry="9.46"/>
    <g class="cls-22">
      <path class="cls-20" d="M543.98,762.81l3.12,1.73-1.06,1.85-3.19-1.85v3.53h-2.09v-3.5l-3.14,1.82-1.1-1.85,3.14-1.73-3.14-1.75,1.1-1.87,3.14,1.85v-3.5h2.09v3.55l3.19-1.87,1.06,1.87-3.12,1.73Z"/>
      <path class="cls-20" d="M555.96,762.81l3.12,1.73-1.08,1.85-3.17-1.85v3.53h-2.09v-3.5l-3.17,1.82-1.08-1.85,3.14-1.73-3.14-1.75,1.08-1.87,3.17,1.85v-3.5h2.09v3.55l3.17-1.87,1.08,1.87-3.12,1.73Z"/>
      <path class="cls-20" d="M567.91,762.81l3.14,1.73-1.08,1.85-3.19-1.85v3.53h-2.09v-3.5l-3.17,1.82-1.1-1.85,3.17-1.73-3.1-1.73,1.1-1.87,3.17,1.85v-3.5h2.09v3.53l3.19-1.87,1.08,1.87-3.22,1.73Z"/>
      <path class="cls-20" d="M579.89,762.81l3.12,1.73-1.06,1.85-3.19-1.85v3.53h-2.09v-3.5l-3.14,1.82-1.1-1.85,3.14-1.73-3.14-1.75,1.1-1.87,3.14,1.85v-3.5h2.09v3.55l3.19-1.87,1.06,1.87-3.12,1.73Z"/>
      <path class="cls-20" d="M598.87,762.81l3.14,1.73-1.08,1.85-3.19-1.85v3.53h-2.09v-3.5l-3.17,1.82-1.1-1.85,3.17-1.73-3.1-1.73,1.1-1.87,3.17,1.85v-3.5h2.09v3.53l3.19-1.87,1.08,1.87-3.22,1.73Z"/>
      <path class="cls-20" d="M610.85,762.81l3.12,1.73-1.06,1.85-3.19-1.85v3.53h-2.09v-3.5l-3.14,1.82-1.1-1.85,3.14-1.73-3.14-1.75,1.1-1.87,3.14,1.85v-3.5h2.09v3.55l3.19-1.87,1.06,1.87-3.12,1.73Z"/>
      <path class="cls-20" d="M622.8,762.81l3.14,1.73-1.08,1.85-3.19-1.85v3.53h-2.09v-3.5l-3.17,1.82-1.1-1.85,3.17-1.73-3.17-1.75,1.1-1.87,3.17,1.85v-3.5h2.09v3.53l3.19-1.87,1.08,1.87-3.14,1.75Z"/>
      <path class="cls-20" d="M634.78,762.81l3.14,1.73-1.08,1.85-3.19-1.85v3.53h-2.09v-3.5l-3.14,1.82-1.1-1.85,3.17-1.73-3.17-1.75,1.1-1.87,3.14,1.85v-3.5h2.09v3.55l3.19-1.87,1.08,1.87-3.14,1.73Z"/>
      <path class="cls-20" d="M653.77,762.81l3.14,1.73-1.08,1.85-3.17-1.85v3.53h-2.09v-3.5l-3.17,1.82-1.1-1.85,3.17-1.73-3.17-1.75,1.1-1.87,3.17,1.85v-3.5h2.09v3.55l3.17-1.87,1.08,1.87-3.14,1.73Z"/>
      <path class="cls-20" d="M665.75,762.81l3.14,1.73-1.08,1.85-3.19-1.85v3.53h-2.09v-3.5l-3.14,1.82-1.1-1.85,3.17-1.73-3.17-1.75,1.1-1.87,3.14,1.85v-3.5h2.09v3.55l3.19-1.87,1.08,1.87-3.14,1.73Z"/>
      <path class="cls-20" d="M677.72,762.81l3.12,1.73-1.06,1.85-3.19-1.85v3.53h-2.09v-3.5l-3.14,1.82-1.1-1.85,3.14-1.73-3.14-1.75,1.1-1.87,3.14,1.85v-3.5h2.09v3.55l3.19-1.87,1.06,1.87-3.12,1.73Z"/>
    </g>
    <rect class="cls-1" x="401.72" y="743.41" width="59.12" height="39.17" rx="6.24" ry="6.24"/>
    <g class="cls-22">
      <rect class="cls-20" x="401.72" y="764.53" width="59.12" height="9.77"/>
    </g>
    <g class="cls-22">
      <path class="cls-20" d="M456.08,757.55c.01,1.63-1.3,2.96-2.93,2.98-1.63.01-2.96-1.3-2.98-2.93s1.3-2.96,2.93-2.98c0,0,.02,0,.02,0,1.62,0,2.94,1.31,2.95,2.93Z"/>
    </g>
    <path class="cls-5" d="M452.24,757.55c.01,1.63-1.3,2.96-2.93,2.98-1.63.01-2.96-1.3-2.98-2.93s1.3-2.96,2.93-2.98c0,0,.02,0,.02,0,1.62,0,2.94,1.31,2.95,2.93Z"/>
    <path class="cls-5" d="M682.72,402.55h-23.69c-1.27.39-2.61-.31-3-1.58-.39-1.27.31-2.61,1.58-3,.46-.14.96-.14,1.42,0h23.69c1.27-.39,2.61.31,3,1.58.39,1.27-.31,2.61-1.58,3-.46.14-.96.14-1.42,0Z"/>
    <path class="cls-5" d="M682.72,425.42h-23.69c-1.26.41-2.62-.27-3.03-1.53-.41-1.26.27-2.62,1.53-3.03.49-.16,1.01-.16,1.5,0h23.69c1.26-.41,2.62.27,3.03,1.53.41,1.26-.27,2.62-1.53,3.03-.49.16-1.01.16-1.5,0Z"/>
    <path class="cls-5" d="M682.72,414h-23.69c-1.27.39-2.61-.31-3-1.58-.39-1.27.31-2.61,1.58-3,.46-.14.96-.14,1.42,0h23.69c1.27-.39,2.61.31,3,1.58.39,1.27-.31,2.61-1.58,3-.46.14-.96.14-1.42,0Z"/>
    <g class="cls-19">
      <path class="cls-20" d="M507.33,607.15h-101.05c-3.16.2-5.89-2.19-6.1-5.35-.2-3.16,2.19-5.89,5.35-6.1.25-.02.49-.02.74,0h101.05c3.16.2,5.56,2.93,5.35,6.1-.19,2.88-2.48,5.17-5.35,5.35h0Z"/>
      <path class="cls-20" d="M550.82,639.19h-144.54c-3.16.2-5.89-2.19-6.1-5.35-.2-3.16,2.19-5.89,5.35-6.1.25-.02.5-.02.74,0h144.54c3.16.2,5.56,2.93,5.35,6.1-.19,2.88-2.48,5.17-5.35,5.35Z"/>
      <path class="cls-20" d="M676.72,639.19h-39.24c-3.16-.2-5.56-2.93-5.35-6.1.19-2.88,2.48-5.17,5.35-5.35h39.24c3.16-.2,5.89,2.19,6.1,5.35.2,3.16-2.19,5.89-5.35,6.1-.25.02-.5.02-.74,0Z"/>
      <path class="cls-20" d="M473,662.09h-66.73c-3.16.2-5.89-2.19-6.1-5.35-.2-3.16,2.19-5.89,5.35-6.1.25-.02.5-.02.74,0h66.73c3.16.2,5.56,2.93,5.35,6.1-.19,2.88-2.48,5.17-5.35,5.35Z"/>
      <path class="cls-20" d="M676.72,662.09h-55.21c-3.16-.2-5.56-2.93-5.35-6.1.19-2.88,2.48-5.17,5.35-5.35h55.21c3.16-.2,5.89,2.19,6.1,5.35.2,3.16-2.19,5.89-5.35,6.1-.25.02-.5.02-.74,0Z"/>
      <path class="cls-20" d="M537.21,684.97h-130.81c-3.16,0-5.71-2.56-5.71-5.71s2.56-5.71,5.71-5.71h130.81c3.16,0,5.71,2.56,5.71,5.71s-2.56,5.71-5.71,5.71Z"/>
      <path class="cls-20" d="M676.72,684.97h-32.38c-3.16,0-5.71-2.56-5.71-5.71s2.56-5.71,5.71-5.71h32.38c3.16,0,5.71,2.56,5.71,5.71s-2.56,5.71-5.71,5.71Z"/>
    </g>
    <path class="cls-20" d="M647.05,854.86c0,4.08-2.98,6.55-7.85,6.55h-5.18v6.07h-2.02v-19.2h7.2c4.87-.02,7.85,2.45,7.85,6.58ZM645.01,854.86c0-3.07-2.02-4.8-5.88-4.8h-5.11v9.6h5.11c3.86-.02,5.88-1.78,5.88-4.8Z"/>
    <path class="cls-5" d="M635.17,868.63h-4.34v-21.6h8.35c5.54,0,9,2.95,9,7.73s-3.46,7.7-9,7.7h-4.03l.02,6.17ZM635.17,858.48h3.96c3.14,0,4.8-1.22,4.8-3.62s-1.61-3.7-4.8-3.7h-3.96v7.32Z"/>
    <path class="cls-20" d="M662.53,862.35h-10.71l-2.4,5.14h-2.11l8.78-19.2h2.02l8.78,19.2h-2.14l-2.23-5.14ZM661.79,860.71l-4.56-10.35-4.63,10.35h9.19Z"/>
    <path class="cls-5" d="M668.75,868.63h-4.66l-2.4-5.14h-9.24l-2.4,5.14h-4.63l9.84-21.6h3.48l10.01,21.6ZM654.34,859.56h5.69l-2.81-6.38-2.88,6.38Z"/>
    <path class="cls-20" d="M675.61,860.83v6.65h-1.99v-6.65l-7.7-12.58h2.18l6.58,10.8,6.6-10.8h2.04l-7.7,12.58Z"/>
    <polygon class="cls-5" points="676.76 868.63 672.47 868.63 672.47 861.17 663.87 847.13 668.75 847.13 674.67 856.85 680.63 847.13 685.36 847.13 676.76 861.17 676.76 868.63"/>
    <path class="cls-5" d="M436.74,870.58h-25.35c-.58,0-1.08-.4-1.2-.96l-5.81-24.36c-.17-.64.21-1.3.85-1.47.12-.03.23-.04.35-.04h36.96c.37,0,.73.16.96.46.24.3.33.69.24,1.06l-5.81,24.36c-.12.56-.62.96-1.2.96ZM412.37,868.18h23.38l5.21-21.87h-33.8l5.21,21.87Z"/>
    <path class="cls-5" d="M424.06,870.58c-.69,0-1.25-.56-1.25-1.25v-24.24c.19-.66.88-1.05,1.54-.86.41.12.74.44.86.86v24.24c0,.65-.5,1.2-1.15,1.25Z"/>
    <path class="cls-5" d="M430.93,870.53h-.14c-.68-.08-1.17-.69-1.1-1.37l2.86-24.31c.25-.64.97-.96,1.62-.71.42.17.72.55.78,1l-2.86,24.31c-.08.59-.56,1.04-1.15,1.08Z"/>
    <path class="cls-5" d="M417.2,870.53c-.63,0-1.15-.48-1.22-1.1l-2.86-24.34c-.08-.67.39-1.28,1.06-1.37,0,0,.01,0,.02,0,.68-.08,1.3.4,1.39,1.08l2.86,24.29c.07.68-.42,1.29-1.1,1.37l-.14.07Z"/>
    <path class="cls-5" d="M440.58,854.5h-32.98c-.66-.19-1.05-.88-.86-1.54.12-.41.44-.74.86-.86h33.03c.66.19,1.05.88.86,1.54-.12.41-.44.74-.86.86h-.05Z"/>
    <path class="cls-5" d="M438.56,862.92h-29c-.69,0-1.25-.56-1.25-1.25s.56-1.25,1.25-1.25h29c.68.01,1.24.56,1.25,1.25,0,.69-.56,1.25-1.25,1.25Z"/>
    <path class="cls-5" d="M412.4,879.44c-2.27,0-4.1-1.84-4.1-4.1s1.84-4.1,4.1-4.1c2.27,0,4.1,1.84,4.1,4.1h0c-.01,2.26-1.84,4.09-4.1,4.1ZM412.4,873.72c-.89,0-1.61.72-1.61,1.61h0c0,.89.72,1.61,1.6,1.61s1.61-.72,1.61-1.6h0c0-.9-.72-1.62-1.61-1.62h0Z"/>
    <path class="cls-5" d="M435.63,879.44c-2.27,0-4.1-1.84-4.1-4.1s1.84-4.1,4.1-4.1c2.27,0,4.1,1.84,4.1,4.1h0c-.01,2.26-1.84,4.09-4.1,4.1ZM435.63,873.72c-.89,0-1.62.72-1.63,1.61.01.9.74,1.62,1.63,1.63.89-.01,1.61-.74,1.61-1.63,0-.89-.72-1.61-1.61-1.61h0Z"/>
    <path class="cls-5" d="M405.58,846.22c-.14.02-.27.02-.41,0l-5.9-2.04c-.64-.21-.99-.9-.78-1.54,0-.01,0-.03.01-.04.23-.65.93-.99,1.58-.77l5.9,2.04c.64.24.98.94.77,1.58-.19.48-.66.79-1.18.77Z"/>
    <circle class="cls-1" cx="541.5" cy="528.79" r="48.97" transform="translate(-215.31 537.78) rotate(-45)"/>
    <path class="cls-5" d="M550.58,541.02c-6.77-.04-12.23-5.57-12.19-12.34,0-.69.07-1.38.19-2.06,1.3-5.96,6.65-10.16,12.75-10.01h13.54c.16,0,.29-.13.29-.29v-7.2c0-1.7-1.38-3.07-3.07-3.07h-44.07c-1.68,0-3.05,1.36-3.05,3.05,0,0,0,.02,0,.02v39.51c0,1.69,1.36,3.06,3.05,3.07h43.92c1.7,0,3.07-1.38,3.07-3.07v-7.2c-.01-.15-.13-.28-.29-.29l-14.14-.12Z"/>
    <path class="cls-5" d="M564.89,520.5h-14.4c-4.59,0-8.31,3.71-8.31,8.3s3.71,8.31,8.3,8.31h14.41c1.7,0,3.07-1.38,3.07-3.07v-10.59c-.05-1.66-1.42-2.97-3.07-2.95ZM551.08,531.9c-1.72,0-3.12-1.4-3.12-3.12,0-1.72,1.4-3.12,3.12-3.12,1.72,0,3.12,1.4,3.12,3.12,0,0,0,.02,0,.02,0,1.71-1.39,3.1-3.1,3.1,0,0-.02,0-.02,0Z"/>
    <rect class="cls-3" x="402.03" y="343.46" width="4.42" height="5.88"/>
    <rect class="cls-3" x="394.8" y="341.49" width="4.42" height="7.85"/>
    <rect class="cls-3" x="387.6" y="339.52" width="4.42" height="9.82"/>
    <rect class="cls-3" x="380.4" y="337.55" width="4.42" height="11.79"/>
    <rect class="cls-3" x="677.29" y="341.29" width="2.62" height="5.88"/>
    <rect class="cls-3" x="681.71" y="339.13" width="20.88" height="10.2"/>
    <path class="cls-12" d="M699.64,325.5c-31.66,87.71-134.66,328.57-339.33,426.82v-418.82c-.18-4.16,3.04-7.69,7.2-7.9h84.95c2.44.04,4.62,1.56,5.5,3.84l3.5,8.64c.88,2.25,3.03,3.74,5.45,3.77h144.86c2.41-.01,4.57-1.48,5.47-3.72l3.5-8.69c.88-2.27,3.04-3.78,5.47-3.84l73.42-.1Z"/>
    <path class="cls-12" d="M720.42,638.66v336.28c-.01,5.21-4.25,9.42-9.46,9.41-.05,0-.1,0-.15,0h-339.71c-4.65.07-8.48-3.65-8.55-8.3,0-.11,0-.21,0-.32v-152.97c94.55-124.45,257.02-168.55,357.86-184.1Z"/>
  </g>
  <g id="freepik--Character--inject-344">
    <path class="cls-24" d="M811.95,468.65c7.68,17.47,16.32,38.4,25.9,53.38-.9-.57-1.93-.91-3-.98-2.21,0-2.4.72-2.06.5,3.7-2.4,6.55-6.7,9.6-10.99,5.3-7.94,10.18-16.14,14.64-24.58,1.5-2.83,5.02-3.91,7.85-2.41,2.52,1.33,3.69,4.3,2.78,6.99-3.36,9.57-7.37,18.91-12,27.94-4.8,9.41-15.05,26.91-28.3,18.58-6.82-5.18-10.63-12.72-14.98-19.2-7.87-12.89-14.93-25.97-21.75-39.44-6.7-14.4,14.4-24.34,21.22-9.79h.1Z"/>
    <path class="cls-25" d="M805.15,460.76c10.47.65,27.96,33.6,27.96,33.6l-32.07,23.76s-5.71-48.63-5.71-48.7,9.82-8.66,9.82-8.66Z"/>
    <path class="cls-9" d="M833.12,494.43l-15.96,11.83-11.11,8.18-5.04,3.74s-3.46-29.38-4.97-42.48c-.46-3.77-.74-6.19-.74-6.22s9.82-8.71,9.82-8.71c8.64.53,22.11,23.19,26.52,31.04.96,1.63,1.49,2.62,1.49,2.62Z"/>
    <polygon class="cls-25" points="833.09 490.93 837.61 496.06 808.32 518.19 803.28 509.7 833.09 490.93"/>
    <polygon class="cls-11" points="837.58 496.06 818.19 510.73 808.32 518.19 806.09 514.45 803.28 509.7 815.64 501.9 831.68 491.82 833.09 490.93 837.58 496.06"/>
    <path class="cls-25" d="M837.65,483.92c-.23.84.27,1.72,1.11,1.95.08.02.16.04.24.05l17.67,2.4c1.02.13,1.97-.52,2.23-1.51l8.74-34.28c.27-.97-.3-1.98-1.27-2.24-.02,0-.03,0-.05-.01l-17.67-2.4c-1.06.02-1.97.74-2.26,1.75l-8.74,34.3Z"/>
    <path class="cls-8" d="M848.38,449.67l-8.74,34.61c-.29.68.02,1.47.7,1.77.14.06.29.1.45.11l14.98,2.04c1.01.14,2.9-.17,3.17-1.13l8.83-34.76c.26-.98-1.34-1.99-2.4-2.14l-14.98-2.06c-.98-.11-1.88.58-2.02,1.56Z"/>
    <path class="cls-21" d="M868.14,489.42l-2.21-19.92-12.94,15.03s-2.78,12.87,8.9,12l6.24-7.1Z"/>
    <polygon class="cls-21" points="853.35 465.75 849.08 480.39 852.99 484.52 865.93 469.49 853.35 465.75"/>
    <path class="cls-16" d="M823.64,506.65l-15.19,11.55-2.23-3.74-5.04,3.74s-3.46-29.38-4.97-42.48c2.78,2.33,24.67,5.64,27.44,30.94Z"/>
    <path class="cls-21" d="M735.95,823.2l6.43,12.29s5.52-2.93,14.28-7.73c2.52-1.37,5.3-2.88,8.28-4.56,8.3-4.56,18.27-10.11,28.8-16.06l6.89-3.96c36.51-20.91,66.44-40.97,66.44-51.94,0-18.39-13.32-53.36-32.14-88.35-12.58-23.38-23.04-42.2-23.04-42.2l-44.69,27.36s15.22,20.35,30.82,42.77c18.19,26.14,36.89,55.04,32.62,57.92-3.26,2.18-19.9,15.19-38.28,29.74l-3.34,2.62c-9.91,7.85-20.16,15.96-29,22.99l-7.2,5.64-16.87,13.47Z"/>
    <path class="cls-13" d="M767.18,648.05s15.22,20.35,30.82,42.77l36.84-27.94c-12.58-23.38-23.04-42.2-23.04-42.2l-44.62,27.36Z"/>
    <path class="cls-13" d="M752.88,809.73l3.79,18.03c10.99-6,27.08-14.88,43.95-24.58-2.86-8.69-6.14-18.48-8.28-24.7-13.73,10.83-28.47,22.54-39.46,31.25Z"/>
    <path class="cls-21" d="M716.25,670.78l8.62,26.26,1.75,5.4,13.13,39.96,1.49,4.58,8.69,26.4,10.08,30.72,4.66,14.21c0,1.61.17,3.24.29,4.8,4.42,67.88,39.77,156.59,39.77,156.59l12.63-3.43c-4.49-53.31-14.07-115.45-23.62-169.22-1.58-8.93-3.14-17.64-4.8-26.04-.89-4.8-1.75-9.34-2.59-13.83-1.82-9.6-3.55-18.58-5.26-26.98-.79-3.98-1.56-7.8-2.28-11.52-1.85-9.17-3.53-17.33-5.02-24.34-1.49-7.01-2.66-12.79-3.62-17.23-1.39-6.46-2.16-10.06-2.16-10.06l-51.75-6.29Z"/>
    <path class="cls-25" d="M751.17,810.02c1.63,0,.65,20.16.65,20.16,0,0-12.41,12.58-15.05,24.65s-9.96,5.45-10.18-7.99c-.22-13.44-.36-23.69-.5-33.24-.14-9.55,8.09-3.72,25.08-3.58Z"/>
    <path class="cls-1" d="M746.83,840.86c.32-2.92,1.13-5.76,2.4-8.4l.14-.17h.12c.13-.06.28-.06.41,0,.19,0,4.92,1.68,6.1,4.39.38.83.38,1.79,0,2.62-.41.91-.98,1.37-1.66,1.34-1.06,0-2.14-1.46-3.05-3.1.29,1.51.14,3.08-.43,4.51-.27.54-.76.95-1.34,1.1-.74.32-1.6.14-2.14-.46-.4-.53-.6-1.19-.55-1.85ZM749.64,834.31c-1.22,2.98-2.28,6.7-1.49,7.63,0,0,.29.31,1.08.12.3-.11.55-.32.7-.6.55-2.37.45-4.84-.29-7.15h0ZM755.23,837.81c0-.27-.07-.54-.19-.79-1.05-1.58-2.58-2.77-4.37-3.41,1.18,2.98,2.78,5.83,3.7,5.88.26,0,.53-.46.65-.74.13-.27.2-.56.22-.86v-.07Z"/>
    <path class="cls-25" d="M801.24,974.08c0-1.63,20.16-.36,20.16-.36,0,0,12.39,12.6,24.41,15.43,12.03,2.83,5.3,10.03-8.14,10.03h-33.36c-9.55,0-3.6-8.14-3.07-25.11Z"/>
    <path class="cls-1" d="M831.87,978.88c-2.9-.36-5.72-1.22-8.33-2.54l-.19-.14h0v-.12c-.05-.13-.05-.28,0-.41,0-.19,1.78-4.8,4.51-6.02.82-.38,1.77-.38,2.59,0,.91.43,1.37,1.01,1.32,1.68,0,1.06-1.49,2.14-3.12,3,1.52-.26,3.09-.09,4.51.5.53.28.92.76,1.08,1.34.29.76.09,1.61-.5,2.16-.54.4-1.2.6-1.87.55ZM825.36,975.97c2.98,1.27,6.67,2.4,7.61,1.61,0,0,.34-.29.14-1.08-.08-.31-.29-.56-.58-.7-1.46-.84-4.9-.31-7.18.17h0ZM828.99,970.45c-.28,0-.56.05-.82.17-1.59,1.03-2.8,2.55-3.46,4.32,2.98-1.13,5.86-2.71,5.9-3.6,0-.29-.43-.55-.72-.67-.29-.14-.6-.21-.91-.22h0Z"/>
    <path class="cls-9" d="M786.84,685.33l2.93,2.74,43.44-29.48-5.57-13.39c.08,4.72-.61,9.42-2.04,13.92-2.42,5.59-31.2,21.94-38.76,26.21Z"/>
    <path class="cls-13" d="M716.25,670.78l8.62,26.26c23.74,5.64,39.1,7.46,48.99,7.39-1.44-6.98-2.66-12.79-3.62-17.23-1.39-6.46-2.16-10.06-2.16-10.06l-51.82-6.36Z"/>
    <path class="cls-1" d="M833.09,658.61l-43.47,29.48-2.78-2.74-9.87-9.31v23.31l-60.01-10.75c-9.1-40.28-7.94-70.11-4.01-90.61,1.82-10.32,5.1-20.33,9.72-29.74h0l.77-7.61,81.18,8.42.79,5.3,3.91,26.23,18.27,44.65,5.5,13.37Z"/>
    <path class="cls-13" d="M776.85,676.04v-25.92s11.59,19.39,9.87,35.21l-9.87-9.29Z"/>
    <polygon class="cls-1" points="784.75 685.33 831.12 651.67 835.06 658.13 788.38 690.82 784.75 685.33"/>
    <polygon class="cls-9" points="784.75 685.33 831.12 651.67 835.06 658.13 788.38 690.82 784.75 685.33"/>
    <polygon class="cls-1" points="714.33 683.31 778.08 694.57 778.08 700.83 716.25 690.82 714.33 683.31"/>
    <polygon class="cls-9" points="714.33 683.31 778.08 694.57 778.08 700.83 716.25 690.82 714.33 683.31"/>
    <path class="cls-13" d="M739.79,570.45s-5.98,21.99-26.93,27.53c1.82-10.32,5.1-20.33,9.72-29.74h0l17.21,2.21Z"/>
    <path class="cls-13" d="M809.33,600.55c-7.75-7.49-9.99-26.23-9.99-26.23h6.07l3.91,26.23Z"/>
    <path class="cls-13" d="M779.37,572.99c0,1.41-1.14,2.54-2.55,2.54-1.4,0-2.54-1.14-2.54-2.54,0-1.41,1.14-2.54,2.55-2.54,1.4,0,2.54,1.14,2.54,2.54Z"/>
    <path class="cls-25" d="M724.29,563.49c-18.77-4.27-.24-4.01-6.34-88.81-.4-4.29-.06-8.62,1.01-12.79,2-6.82,8.64-11.21,15.7-10.37,3.26.36,6.17.7,6.82.72,1.75,0,3.55.12,5.35.24,12.24.5,24.42,1.88,36.46,4.13,2.98.6,6.02,1.32,9,2.02.96.24,12,1.94,12.87,2.18,0,0,12.63,19.61,11.47,33.82-.65,7.92-3.34,13.75-3.55,32.76-.48,43.2,8.54,41.88-10.2,43.2l-78.58-7.1Z"/>
    <path class="cls-9" d="M813.07,527.34c-.48,43.2,8.54,41.91-10.2,43.2l-78.58-6.98c-15.46-3.48-5.62-3.94-5.09-51.46,0-8.16,0-17.69-.67-28.8-.17-2.74-.36-5.59-.58-8.52-.4-4.28-.06-8.6,1.01-12.77,1.98-6.84,8.63-11.24,15.7-10.39,3.26.36,6.17.7,6.82.7,1.73,0,3.55.14,5.35.26,12.23.51,24.42,1.89,36.46,4.1,2.98.65,6,1.32,9.03,2.04.96.24,12,1.94,12.84,2.21,0,0,12.63,19.59,11.5,33.77-.67,7.8-3.41,13.63-3.58,32.64Z"/>
    <path class="cls-16" d="M763.96,510.9s-16.66,18.07-44.77,1.1c0-8.16,0-17.69-.67-28.8,10.87-3.89,22.14-6.58,33.6-8.02l11.83,35.72Z"/>
    <path class="cls-21" d="M799.97,473.05l17.5-9.96,6.17,16.49s-11.26,8.69-21.29,2.64l-2.38-9.17Z"/>
    <polygon class="cls-21" points="831.8 462.7 833.43 476.09 823.64 479.62 817.47 463.13 831.8 462.7"/>
    <path class="cls-24" d="M742.24,464.57c4.66,18.57,12.01,36.36,21.82,52.81l.5.84c-.51-.76-1.16-1.41-1.92-1.92-1.75-1.31-4.01-1.71-6.1-1.08,7.54-3.96,13.49-11.07,19.78-17.14,7.46-7.75,14.95-15.87,22.32-24,2.23-2.32,5.92-2.4,8.25-.17,1.9,1.82,2.34,4.68,1.09,6.99-8.33,14.9-18.16,28.91-29.33,41.81-3.95,4.76-8.8,8.69-14.26,11.59-6.46,3.17-14.27.87-17.98-5.3-13.18-18-22.43-38.56-27.15-60.37-2.4-15.43,19.75-19.54,22.97-4.22v.17Z"/>
    <path class="cls-25" d="M732.79,451.44c-12.72-1.51-20.5,13.3-16.49,47.31h39.77s-2.35-44.91-23.28-47.31Z"/>
    <path class="cls-9" d="M732.79,451.44c-12.72-1.51-20.5,13.3-16.49,47.31h39.77s-2.35-44.91-23.28-47.31Z"/>
    <polygon class="cls-25" points="714.28 490.93 757.41 496.06 757.56 501.87 715.24 501.87 714.28 490.93"/>
    <polygon class="cls-11" points="714.28 490.93 757.41 496.06 757.56 501.87 715.24 501.87 714.28 490.93"/>
    <path class="cls-25" d="M764.97,354.38s9.15-6.6,24.6-1.54c15.46,5.06,31.52,21.72,24.43,45.61-7.08,23.88-6.19,39.12-6.19,39.12,0,0-53.14-8.81-64.5-19.2-11.35-10.39-9.55-70.14,21.65-63.99Z"/>
    <path class="cls-21" d="M754,411.65c1.85,12,3.34,34.04-5.18,41.02,10.76,6.23,21.87,11.84,33.27,16.8,7.94-9.03,3.22-12.72,3.22-12.72-12.96-4.63-12.27-14.4-9.6-23.31l-21.7-21.79Z"/>
    <path class="cls-13" d="M762.84,420.55l12.82,12.89c-.64,2.09-1.1,4.24-1.37,6.41-4.97-1.3-11.62-7.61-12-12.94-.21-2.14-.02-4.29.55-6.36Z"/>
    <path class="cls-21" d="M756.6,380.9c-3.84,19.01-5.88,26.98.77,39.53,9.99,18.91,33.6,20.62,42.87,3.43,8.38-15.48,13.27-44-2.57-57.22-10.24-9.15-25.96-8.27-35.11,1.97-3.09,3.46-5.16,7.72-5.96,12.29Z"/>
    <path class="cls-25" d="M777.96,393.02c-.38,1.58,0,3.12,1.08,3.43s2.11-.7,2.4-2.4,0-3.12-1.08-3.46-1.99.84-2.4,2.42Z"/>
    <path class="cls-25" d="M797.35,398.64c-.38,1.58,0,3.12,1.08,3.46s2.09-.72,2.4-2.4,0-3.12-1.08-3.43-2.02.77-2.4,2.38Z"/>
    <path class="cls-25" d="M799.39,396.24h3.89s-2.59,2.4-3.89,0Z"/>
    <path class="cls-17" d="M790.63,400.2c.45,4.05,1.42,8.03,2.88,11.83-1.88.66-3.97.41-5.64-.67l2.76-11.16Z"/>
    <path class="cls-25" d="M777.74,414.41c.77.41,1.57.76,2.4,1.03.21.08.45-.02.53-.23.01-.03.02-.05.02-.08.08-.25-.06-.52-.31-.6-3.92-1.25-7.06-4.21-8.54-8.04-.06-.25-.3-.4-.55-.34-.01,0-.02,0-.03,0-.24.09-.37.36-.29.6,1.23,3.3,3.64,6.03,6.77,7.66Z"/>
    <path class="cls-25" d="M777.6,382.2c.23.11.49.11.72,0,2.08-1.07,4.56-1.03,6.6.12.39.27.93.18,1.2-.22.02-.02.03-.05.05-.07.26-.47.11-1.06-.34-1.34-2.56-1.5-5.71-1.6-8.35-.26-.45.26-.62.83-.38,1.3.1.22.28.39.5.48Z"/>
    <path class="cls-25" d="M807.82,390.74c.21.1.46.1.67,0,.48-.14.76-.65.61-1.13,0-.01,0-.03-.01-.04-.72-3.02-2.82-5.53-5.66-6.77-.45-.16-.94.07-1.1.52,0,.03-.02.05-.02.08-.15.51.13,1.04.62,1.22,2.22,1.04,3.85,3.04,4.42,5.42.05.29.23.55.48.7Z"/>
    <path class="cls-25" d="M780,390.67h3.91s-2.62,2.45-3.91,0Z"/>
    <path class="cls-25" d="M761.01,394.89s14.02-8.59,15.72-29.81c0,0,23.38-.74,31.59,19.97,0,0-2.93-29.79-36.29-31.04-33.36-1.25-24.17,35.43-21.6,39.24s10.59,1.63,10.59,1.63Z"/>
    <path class="cls-21" d="M746.49,394.32c.94,3.99,3.41,7.44,6.89,9.6,4.54,2.69,8.06-1.54,7.85-6.94-.17-4.8-2.74-12.15-7.8-12.6s-8.14,4.85-6.94,9.94Z"/>
  </g>
</svg>