<?xml version="1.0" encoding="UTF-8"?>
<svg width="110px" height="110px" viewBox="0 0 110 110" version="1.1" xmlns="http://www.w3.org/2000/svg" xmlns:xlink="http://www.w3.org/1999/xlink">
    <!-- Generator: Sketch 57.1 (83088) - https://sketch.com -->
    <title>Group 5</title>
    <desc>Created with Sketch.</desc>
    <g id="reports" stroke="none" stroke-width="1" fill="none" fill-rule="evenodd">
        <g id="1.-Report-(about-you)" transform="translate(-902.000000, -424.000000)" fill-rule="nonzero">
            <g id="Group-5" transform="translate(902.000000, 424.000000)">
                <g id="analytics">
                    <circle id="Oval" fill="#00A8A2" cx="55" cy="55" r="55"></circle>
                    <polygon id="Path" fill="#FFFFFF" points="39.43734 18.9655172 39.43734 30.6745966 27.816092 30.6745966 27.816092 91.6666667 82.816092 91.6666667 82.816092 18.9655172"></polygon>
                    <polygon id="Path" fill="#E6E9EE" points="39.1954023 18.9655172 27.183908 30.9770115 39.1954023 30.9770115"></polygon>
                    <path d="M55,73.6494253 C55,74.2339789 54.9567421,74.8401826 54.8702262,75.4030861 C54.0915832,80.2960164 50.0902237,84.1280901 45.1371895,84.6476933 C44.747868,84.6909935 44.3585465,84.7126437 43.9475961,84.7126437 C37.8265975,84.7126437 32.8735632,79.754763 32.8735632,73.6494253 C32.8735632,68.5616438 36.3125695,64.2532672 41.0060561,62.9759093 C41.9361018,62.7161077 42.9310345,62.5862069 43.9475961,62.5862069 C46.8891361,62.5862069 49.5711284,63.733664 51.5393647,65.6172256 C53.6806328,67.6090379 55,70.4668556 55,73.6494253 Z" id="Path" fill="#65D48E"></path>
                    <path d="M51.8390805,65.6817829 L44.0932049,73.9655172 L41.091954,62.9873424 C42.0408789,62.7201251 43.0560079,62.5865165 44.0932049,62.5865165 C47.0944559,62.5642484 49.8308905,63.7444579 51.8390805,65.6817829 Z" id="Path" fill="#1C4029"></path>
                    <path d="M55,73.4172516 C55,74.0214627 54.9554626,74.6480521 54.8663877,75.2298851 L43.6206897,73.4172516 L51.4370065,65.1149425 C53.6416087,67.1737361 55,70.1276574 55,73.4172516 Z" id="Path" fill="#34704A"></path>
                    <path d="M55,75.1477509 C54.2338682,80.2102 50.2968021,84.1750385 45.4233527,84.7126437 L44.2528736,73.3333333 L55,75.1477509 Z" id="Path" fill="#54B578"></path>
                    <rect id="Rectangle" fill="#65D48E" x="58.1609195" y="65.7471264" width="3.16091954" height="2.52873563"></rect>
                    <rect id="Rectangle" fill="#54B578" x="58.1609195" y="72.0689655" width="3.16091954" height="2.52873563"></rect>
                    <rect id="Rectangle" fill="#1C4029" x="58.1609195" y="79.0229885" width="3.16091954" height="2.52873563"></rect>
                    <g id="Group" transform="translate(63.850575, 65.114943)" fill="#E6E9EE">
                        <rect id="Rectangle" x="0.110381317" y="0.199507389" width="13.6652071" height="3.01477833"></rect>
                        <rect id="Rectangle" x="0.110381317" y="7.00492611" width="13.6652071" height="3.01477833"></rect>
                        <rect id="Rectangle" x="0.110381317" y="13.8325123" width="13.6652071" height="3.01477833"></rect>
                    </g>
                    <polygon id="Rectangle" fill="#65D48E" transform="translate(75.707323, 49.644973) rotate(-45.000000) translate(-75.707323, -49.644973) " points="73.7687275 44.1885894 77.6459181 44.1885894 77.6459181 55.101356 73.7687275 55.101356"></polygon>
                    <circle id="Oval" fill="#65D48E" cx="65.4310345" cy="39.5114943" r="14.8563218"></circle>
                    <circle id="Oval" fill="#D7FFE6" cx="65.1149425" cy="39.1954023" r="11.3793103"></circle>
                    <path d="M76.5921043,55.1176577 L81.6586359,50.0565662 C81.8108493,49.9045162 82.028297,49.9045162 82.1805104,50.0565662 L91.5525066,59.4184994 C91.70472,59.5705494 91.70472,59.7877636 91.5525066,59.9398136 L86.485975,65.0009051 C86.3337616,65.152955 86.1163139,65.152955 85.9641005,65.0009051 L76.5921043,55.6389719 C76.4616357,55.4869219 76.4616357,55.2479862 76.5921043,55.1176577 Z" id="Path" fill="#34704A"></path>
                    <polygon id="Rectangle" fill="#E6E9EE" transform="translate(83.977017, 57.914178) rotate(-135.000000) translate(-83.977017, -57.914178) " points="79.8928975 53.9607502 88.061136 53.9607502 88.061136 61.867605 79.8928975 61.867605"></polygon>
                    <g id="Group" transform="translate(32.241379, 37.298851)" fill="#00A8A2">
                        <rect id="Rectangle" x="0.0440613027" y="0.0672969967" width="3.50287356" height="13.840749"></rect>
                        <rect id="Rectangle" x="5.46360153" y="4.91268076" width="3.50287356" height="8.99536522"></rect>
                        <rect id="Rectangle" x="10.8831418" y="8.8383389" width="3.50287356" height="5.06970708"></rect>
                    </g>
                </g>
                <path d="M69.7819473,35.6908209 L63.2369844,42.4614721 L59.8157539,38.9222681 C59.443881,38.537572 58.8116971,38.537572 58.4398242,38.9222681 C58.0679513,39.3069642 58.0679513,39.9609475 58.4398242,40.3456436 L62.530426,44.5773006 C62.7163624,44.7696486 62.9766734,44.8850575 63.2369844,44.8850575 C63.4972955,44.8850575 63.7204192,44.7696486 63.9435429,44.5773006 L71.1578769,37.1141965 C71.5297498,36.7295004 71.5297498,36.075517 71.1578769,35.6908209 C70.7860041,35.3061248 70.1538201,35.3061248 69.7819473,35.6908209 Z" id="Path" fill="#00A8A2"></path>
            </g>
        </g>
    </g>
</svg>